<svg xmlns="http://www.w3.org/2000/svg" enable-background="new 0 0 130 130" viewBox="0 0 130 130" id="AccountsMonitoringReport"><path fill="#f4f6f8" d="M56.74379,110.75227v1.98999c0,0.26001-0.16998,0.54004-0.53998,0.75l-22.37006,12.92004
			c-0.71997,0.40997-1.88995,0.40997-2.60998,0L2.08376,109.4623c-0.34998-0.20001-0.53998-0.47003-0.53998-0.73999
			l-0.01001-1.99005c0,0.09003,0.02002,0.17004,0.07001,0.26001c-0.15997-0.34998,0-0.73999,0.47998-1.01996l22.37006-12.92004
			c0.71997-0.40997,1.88995-0.40997,2.60999,0l29.14001,16.94C56.5638,110.20229,56.74379,110.47231,56.74379,110.75227z" class="colorcad0dd svgShape"></path><path fill="#d4dee8" d="M89.4338,49.9123l0.06-19.71002c0-0.73999,0.48999-1.48999,1.46997-2.06
			c1.96002-1.14001,5.17999-1.14001,7.15002,0c1.14001,0.64996,1.59998,1.53998,1.44,2.39996
			c0.02002-0.10999,0.04999-0.20996,0.04999-0.31l-0.06,19.71002c0,0.73999-0.48999,1.48999-1.46002,2.04999
			c-1.96997,1.15002-5.17999,1.15002-7.15997,0C89.9338,51.42225,89.4338,50.6623,89.4338,49.9123z" class="colord4dae8 svgShape"></path><path fill="#d4dee8" d="M12.55379,79.62227l-0.12-40.39002c0-1.39996,0.97998-3.09998,2.20001-3.79999L69.79379,3.58229
			c0.60999-0.35004,1.16998-0.39001,1.57001-0.15002l2.52997,1.47003c0.41003,0.21997,0.66003,0.70996,0.66003,1.41998
			l0.12,40.39001l34.91998,20.28998c0.62,0.35999,0.92004,0.83002,0.90002,1.29999l0.03998,1.97003
			c0,0.45996-0.31,0.92999-0.91998,1.28998L54.45382,103.8423c-1.22003,0.70996-3.19,0.70996-4.40002,0L15.1238,85.23225
			l-0.02002-4.12L12.55379,79.62227z" class="colord4dae8 svgShape"></path><path fill="#d4dee8" d="M78.25381 43.7223l.06-24.57001c0-.73999.48999-1.48999 1.46997-2.06 1.96002-1.14001 5.17004-1.14001 7.15002 0 1.13.64996 1.59998 1.53998 1.44 2.39996.01996-.10999.04999-.20996.04999-.31l-.06 24.57001c0 .75-.48999 1.48999-1.47003 2.06-1.95996 1.14001-5.16998 1.14001-7.14996 0C78.7438 45.24226 78.25381 44.48225 78.25381 43.7223zM128.46376 104.44228c0 .83002-.57995 1.84998-1.30999 2.27002-.37.20996-.70996.22998-.94995.07996l-8.04004-4.69995-27.70996 15.98999-25.24005-14.66998v-1.74005l37.63-21.71997 25.23998 14.65997.01001 1.73999-6.23998 3.61005 6.22002 3.63995c0 0 0 0 .00995 0C128.3138 103.74226 128.46376 104.0323 128.46376 104.44228zM100.6238 56.10225l.06-14.83997c0-.75.48999-1.48999 1.47998-2.06 1.96002-1.14001 5.16003-1.15002 7.15002 0 1.12.64996 1.57996 1.52997 1.42999 2.38.02002-.10004.04999-.20001.04999-.31l-.06 14.84998c-.01001.75-.48999 1.48999-1.46997 2.06-1.97003 1.14001-5.18005 1.14001-7.14001.01001C101.1238 57.61226 100.6238 56.86226 100.6238 56.10225zM111.80379 62.29225l.06-9.97998h.01001c0-.73999.48999-1.48999 1.46997-2.06 1.96002-1.14001 5.16003-1.15002 7.15002 0 1.13.65002 1.58997 1.53998 1.42999 2.39001.02002-.10999.04999-.21002.04999-.32001l-.06 9.97998c0 .75-.48999 1.48999-1.46997 2.06-1.97003 1.15002-5.16003 1.15002-7.14001.01001C112.30379 63.79225 111.80379 63.04225 111.80379 62.29225z" class="colord4dae8 svgShape"></path><g fill="#0c2340" class="color000000 svgShape"><path fill="#6822a2" d="M15.10073,81.10838l0.01805,4.12197l34.93594,18.6142c1.21193,0.70541,3.17448,0.70541,4.39546,0
						l55.15979-32.28522c0.61499-0.35273,0.92252-0.82298,0.92252-1.28424l-0.0349-1.99119
						c0,0.46126-0.30752,0.92251-0.92252,1.27519l-55.15073,31.84419c-1.22098,0.69641-3.19258,0.69641-4.3954,0L15.10073,81.10838z
						" class="color5b5e71 svgShape"></path><path fill="#bac4ce" d="M73.91447,4.91347c-0.39794-0.23515-0.95866-0.208-1.57366,0.15373L17.18102,36.9114
						c-1.22093,0.70541-2.1977,2.4057-2.1977,3.80752l0.11758,40.39086l-2.55044-1.48325l-0.11758-40.3908
						c0-1.40187,0.97678-3.10211,2.1977-3.80757L69.79037,3.58401c0.61499-0.35273,1.17572-0.38889,1.57366-0.15379
						L73.91447,4.91347z" class="colorbac1ce svgShape"></path><path fill="#6822a2" d="M72.34361,5.06346c1.21841-0.70345,2.20905-0.13892,2.21301,1.26109l0.1145,40.38815L15.09733,81.10764
						l-0.1145-40.38815c-0.00397-1.40002,0.98023-3.10471,2.1986-3.80814L72.34361,5.06346z" class="color5b5e71 svgShape"></path><path fill="#f4f6f8" d="M71.95382,45.15365L17.79378,76.4136l-0.09998-35.69995c0-0.42999,0.46997-1.23004,0.83997-1.45001
						L71.85378,8.48361L71.95382,45.15365z" class="colorffffff svgShape"></path><path fill="#e4ecf4" d="M15.10481,81.10624l34.91991,20.29324c1.21046,0.70344,3.17887,0.70345,4.39724,0.00002
						l55.15643-31.84458c1.22413-0.70675,1.23055-1.84692,0.02009-2.55037L74.67857,46.71131L15.10481,81.10624z" class="colore4e8f4 svgShape"></path><polygon fill="#6822a2" points="74.939 53.176 72.164 51.532 75.066 49.842 75.195 49.871 77.971 51.516 75.116 53.176" class="color5b5e71 svgShape"></polygon><polygon fill="#6822a2" points="71.299 55.279 68.523 53.634 71.416 51.949 71.561 51.972 74.32 53.609 71.476 55.279" class="color5b5e71 svgShape"></polygon><polygon fill="#6822a2" points="27.227 84.901 24.428 83.243 29.72 80.188 29.869 80.217 32.633 81.854 27.404 84.901" class="color5b5e71 svgShape"></polygon><polygon fill="#6822a2" points="38.032 91.18 35.245 89.528 39.08 87.313 39.208 87.343 41.984 88.987 38.209 91.18" class="color5b5e71 svgShape"></polygon><polygon fill="#6822a2" points="34.426 89.085 31.651 87.441 40.913 82.079 41.041 82.108 43.817 83.753 34.604 89.085" class="color5b5e71 svgShape"></polygon><polygon fill="#6822a2" points="62.644 72.793 59.857 71.142 62.771 69.459 62.899 69.488 65.687 71.14 62.821 72.793" class="color5b5e71 svgShape"></polygon><polygon fill="#6822a2" points="42.603 88.541 39.826 86.896 43.661 84.668 43.789 84.697 46.578 86.349 42.78 88.541" class="color5b5e71 svgShape"></polygon><polygon fill="#6822a2" points="76.553 56.421 73.756 54.764 78.661 51.931 78.795 51.966 81.588 53.618 76.73 56.421" class="color5b5e71 svgShape"></polygon><polygon fill="#6822a2" points="67.66 57.379 64.873 55.728 67.777 54.051 67.921 54.074 70.68 55.711 67.836 57.379" class="color5b5e71 svgShape"></polygon><polygon fill="#6822a2" points="72.978 58.486 70.18 56.829 73.095 55.145 73.229 55.18 76.01 56.825 73.155 58.486" class="color5b5e71 svgShape"></polygon><polygon fill="#6822a2" points="64.02 59.48 61.245 57.836 64.137 56.152 64.265 56.181 67.052 57.833 64.198 59.48" class="color5b5e71 svgShape"></polygon><polygon fill="#6822a2" points="69.451 60.581 66.596 58.923 69.487 57.227 69.622 57.263 72.402 58.907 69.51 60.591" class="color5b5e71 svgShape"></polygon><polygon fill="#6822a2" points="60.45 61.601 57.608 59.951 60.497 58.253 60.626 58.282 63.402 59.927 60.51 61.611" class="color5b5e71 svgShape"></polygon><polygon fill="#6822a2" points="80.783 62.38 77.941 60.729 85.871 56.121 86.001 56.15 88.776 57.794 80.842 62.389" class="color5b5e71 svgShape"></polygon><polygon fill="#6822a2" points="65.774 62.645 62.976 60.987 65.88 59.31 66.03 59.34 68.794 60.977 65.95 62.645" class="color5b5e71 svgShape"></polygon><polygon fill="#6822a2" points="71.942 63.251 69.162 61.606 72.066 59.916 72.194 59.945 74.991 61.602 72.129 63.256" class="color5b5e71 svgShape"></polygon><polygon fill="#6822a2" points="56.731 63.69 53.954 62.045 56.858 60.355 56.986 60.384 59.762 62.028 56.908 63.69" class="color5b5e71 svgShape"></polygon><polygon fill="#6822a2" points="77.154 64.476 74.311 62.824 77.201 61.128 77.33 61.157 80.106 62.8 77.213 64.485" class="color5b5e71 svgShape"></polygon><polygon fill="#6822a2" points="62.166 64.728 59.368 63.07 62.283 61.386 62.417 61.422 65.21 63.073 62.344 64.728" class="color5b5e71 svgShape"></polygon><polygon fill="#6822a2" points="68.324 65.339 65.544 63.696 68.446 62.005 68.576 62.034 71.373 63.691 68.511 65.344" class="color5b5e71 svgShape"></polygon><polygon fill="#6822a2" points="53.091 65.791 50.316 64.146 53.208 62.462 53.352 62.485 56.111 64.122 53.267 65.791" class="color5b5e71 svgShape"></polygon><polygon fill="#6822a2" points="73.546 66.558 70.704 64.906 73.594 63.21 73.722 63.239 76.498 64.884 73.606 66.567" class="color5b5e71 svgShape"></polygon><polygon fill="#6822a2" points="58.639 66.824 55.784 65.165 58.676 63.47 58.809 63.505 61.591 65.149 58.699 66.833" class="color5b5e71 svgShape"></polygon><polygon fill="#6822a2" points="64.706 67.429 61.926 65.784 64.828 64.094 64.957 64.123 67.755 65.78 64.892 67.434" class="color5b5e71 svgShape"></polygon><polygon fill="#6822a2" points="49.451 67.892 46.676 66.247 49.568 64.563 49.713 64.586 52.472 66.223 49.627 67.892" class="color5b5e71 svgShape"></polygon><polygon fill="#6822a2" points="78.588 67.826 75.745 66.174 79.426 64.02 79.57 64.043 82.329 65.68 78.645 67.835" class="color5b5e71 svgShape"></polygon><polygon fill="#6822a2" points="69.94 68.641 67.097 66.99 69.986 65.293 70.115 65.322 72.89 66.967 69.998 68.651" class="color5b5e71 svgShape"></polygon><polygon fill="#6822a2" points="54.963 68.887 52.164 67.231 55.068 65.553 55.204 65.587 57.983 67.232 55.14 68.887" class="color5b5e71 svgShape"></polygon><polygon fill="#6822a2" points="61.088 69.517 58.308 67.873 61.21 66.183 61.339 66.212 64.137 67.87 61.274 69.522" class="color5b5e71 svgShape"></polygon><polygon fill="#6822a2" points="45.812 69.994 43.036 68.349 45.929 66.664 46.057 66.694 48.834 68.338 45.99 69.994" class="color5b5e71 svgShape"></polygon><polygon fill="#6822a2" points="66.332 70.724 63.49 69.073 66.379 67.376 66.507 67.405 69.283 69.049 66.39 70.733" class="color5b5e71 svgShape"></polygon><polygon fill="#6822a2" points="51.355 70.97 48.557 69.312 51.472 67.629 51.605 67.664 54.386 69.309 51.532 70.97" class="color5b5e71 svgShape"></polygon><polygon fill="#6822a2" points="57.47 71.607 54.678 69.955 57.592 68.272 57.721 68.301 60.519 69.959 57.656 71.612" class="color5b5e71 svgShape"></polygon><polygon fill="#6822a2" points="42.242 72.114 39.4 70.463 42.289 68.766 42.417 68.796 45.193 70.44 42.301 72.124" class="color5b5e71 svgShape"></polygon><polygon fill="#6822a2" points="47.828 73.066 44.951 71.394 47.864 69.712 47.998 69.748 50.79 71.399 47.886 73.076" class="color5b5e71 svgShape"></polygon><polygon fill="#6822a2" points="53.847 73.695 51.083 72.058 53.974 70.361 54.102 70.39 56.901 72.048 54.045 73.695" class="color5b5e71 svgShape"></polygon><polygon fill="#6822a2" points="38.522 74.202 35.746 72.558 38.649 70.867 38.777 70.897 41.554 72.541 38.699 74.202" class="color5b5e71 svgShape"></polygon><polygon fill="#6822a2" points="59.036 74.876 56.26 73.232 59.164 71.541 59.292 71.57 62.08 73.222 59.214 74.876" class="color5b5e71 svgShape"></polygon><polygon fill="#6822a2" points="44.15 75.129 41.352 73.472 44.257 71.794 44.39 71.83 47.183 73.481 44.328 75.129" class="color5b5e71 svgShape"></polygon><polygon fill="#6822a2" points="50.229 75.785 47.464 74.148 50.356 72.45 50.484 72.479 53.283 74.137 50.427 75.785" class="color5b5e71 svgShape"></polygon><polygon fill="#6822a2" points="34.882 76.304 32.106 74.66 35.01 72.968 35.138 72.998 37.915 74.642 35.06 76.304" class="color5b5e71 svgShape"></polygon><polygon fill="#6822a2" points="55.429 76.959 52.653 75.314 55.556 73.624 55.684 73.653 58.461 75.298 55.606 76.959" class="color5b5e71 svgShape"></polygon><polygon fill="#6822a2" points="40.543 77.212 37.745 75.555 40.649 73.878 40.799 73.907 43.563 75.544 40.72 77.212" class="color5b5e71 svgShape"></polygon><polygon fill="#6822a2" points="46.611 77.873 43.846 76.236 46.738 74.539 46.866 74.568 49.664 76.225 46.809 77.873" class="color5b5e71 svgShape"></polygon><polygon fill="#6822a2" points="31.243 78.405 28.456 76.753 31.36 75.077 31.504 75.1 34.263 76.737 31.419 78.405" class="color5b5e71 svgShape"></polygon><polygon fill="#6822a2" points="51.821 79.042 49.045 77.398 51.948 75.706 52.078 75.736 54.853 77.38 51.998 79.042" class="color5b5e71 svgShape"></polygon><polygon fill="#6822a2" points="36.936 79.295 34.136 77.637 37.052 75.954 37.186 75.989 39.967 77.633 37.113 79.295" class="color5b5e71 svgShape"></polygon><polygon fill="#6822a2" points="42.992 79.963 40.228 78.326 43.12 76.628 43.248 76.657 46.047 78.314 43.191 79.963" class="color5b5e71 svgShape"></polygon><polygon fill="#6822a2" points="56.61 80.514 53.768 78.863 74.951 66.603 75.096 66.626 77.853 68.262 56.668 80.524" class="color5b5e71 svgShape"></polygon><polygon fill="#6822a2" points="48.214 81.124 45.438 79.48 48.342 77.79 48.47 77.819 51.246 79.463 48.392 81.124" class="color5b5e71 svgShape"></polygon><polygon fill="#6822a2" points="33.409 81.391 30.553 79.732 33.445 78.037 33.579 78.072 36.359 79.716 33.467 81.4" class="color5b5e71 svgShape"></polygon><polygon fill="#6822a2" points="39.374 82.051 36.61 80.414 39.501 78.717 39.63 78.746 42.428 80.403 39.573 82.051" class="color5b5e71 svgShape"></polygon><polygon fill="#6822a2" points="23.621 82.805 20.846 81.161 27.72 77.178 27.848 77.207 30.635 78.858 23.798 82.805" class="color5b5e71 svgShape"></polygon><polygon fill="#6822a2" points="44.607 83.207 41.83 81.563 44.734 79.872 44.862 79.901 47.639 81.545 44.784 83.207" class="color5b5e71 svgShape"></polygon><polygon fill="#6822a2" points="51.755 83.256 48.979 81.612 52.932 79.316 53.075 79.339 55.834 80.976 51.933 83.256" class="color5b5e71 svgShape"></polygon><polygon fill="#6822a2" points="47.184 85.895 44.397 84.244 48.232 82.029 48.361 82.058 51.136 83.703 47.362 85.895" class="color5b5e71 svgShape"></polygon><polygon fill="#6822a2" points="30.826 86.989 28.045 85.345 35.852 80.824 35.98 80.853 38.778 82.511 31.013 86.994" class="color5b5e71 svgShape"></polygon><polygon fill="#6822a2" points="83.06 65.242 80.219 63.591 89.477 58.217 89.605 58.246 92.392 59.898 83.12 65.252" class="color5b5e71 svgShape"></polygon><polygon fill="#6822a2" points="75.561 61.161 72.78 59.518 75.672 57.833 75.817 57.856 78.588 59.5 75.746 61.166" class="color5b5e71 svgShape"></polygon><polygon fill="#6822a2" points="79.093 59.122 76.312 57.479 82.267 54.026 82.395 54.055 85.193 55.712 79.28 59.127" class="color5b5e71 svgShape"></polygon><path fill="#6822a2" d="M81.09618,81.72128l-11.49153,6.67815c-0.61995,0.36028-1.38527,0.36136-2.00624,0.00284
						l-7.33247-4.2334c-0.66602-0.38453-0.66738-1.34538-0.00245-1.73179l11.49153-6.67815
						c0.61995-0.36028,1.38528-0.36136,2.00625-0.00285l7.33247,4.23341C81.75975,80.37402,81.76111,81.33487,81.09618,81.72128z" class="color5b5e71 svgShape"></path><g fill="#0c2340" class="color000000 svgShape"><path fill="#fa51db" d="M88.4268,19.17782l-0.06139,24.57713c-0.00209,0.74565-0.49081,1.4902-1.46716,2.05758
					c-1.96531,1.14212-5.17645,1.14213-7.15462,0.00003c-0.99546-0.57473-1.49264-1.33126-1.49049-2.08662l0.06135-24.57708
					c-0.00212,0.75534,0.49506,1.51187,1.49052,2.0866c1.97817,1.1421,5.18932,1.14208,7.15463-0.00003
					C87.93597,20.66805,88.42469,19.92351,88.4268,19.17782z" class="colorfa5168 svgShape"></path><path fill="#f960dd" d="M86.9363,17.09121c1.97818,1.1421,1.98867,3.0021,0.02333,4.14423
					c-1.96532,1.14212-5.17646,1.14213-7.15463,0.00003c-1.97817-1.1421-1.98864-3.00211-0.02333-4.14423
					C81.74701,15.94911,84.95813,15.94911,86.9363,17.09121z" class="colorf9607f svgShape"></path><path fill="#d4dee8" d="M99.60844,30.2287l-0.06138,19.71097c-0.00211,0.74565-0.49083,1.49019-1.46717,2.05758
					c-1.96531,1.14212-5.17645,1.14213-7.15463,0.00003c-0.99547-0.57473-1.49265-1.33127-1.49051-2.08663l0.06136-19.71093
					c-0.00212,0.75536,0.49506,1.51189,1.49053,2.08663c1.97817,1.1421,5.18932,1.14208,7.15463-0.00003
					C99.1176,31.71893,99.60632,30.97438,99.60844,30.2287z" class="colord4dae8 svgShape"></path><path fill="#e4ecf4" d="M98.11794,28.14208c1.97817,1.1421,1.98867,3.0021,0.02333,4.14423
					c-1.96532,1.14212-5.17646,1.14213-7.15463,0.00003c-1.9782-1.14211-1.98867-3.00213-0.02335-4.14424
					C92.92862,26.99997,96.13974,26.99997,98.11794,28.14208z" class="colore4e8f4 svgShape"></path><path fill="#5046e4" d="M110.79179,41.27657l-0.0614,14.84478c-0.00208,0.74601-0.49081,1.4922-1.46889,2.0606
					c-1.96532,1.14212-5.17646,1.14213-7.1405,0.00819c-1.00077-0.57779-1.49791-1.33261-1.49577-2.08558l0.06136-14.84474
					c-0.00213,0.75294,0.49502,1.50776,1.49578,2.08556c1.96404,1.13394,5.17519,1.13392,7.1405-0.00819
					C110.30096,42.76878,110.78968,42.02258,110.79179,41.27657z" class="color576cfb svgShape"></path><path fill="#7d74fd" d="M109.31368,39.20111c1.96404,1.13394,1.97453,2.99394,0.00919,4.13607
					c-1.96532,1.14212-5.17646,1.14213-7.1405,0.00819c-1.9923-1.15026-1.98864-3.00211-0.02332-4.14423
					C104.12439,38.05901,107.32137,38.05085,109.31368,39.20111z" class="color748bfd svgShape"></path><path fill="#ef41cf" d="M121.97872,52.32643l-0.06138,9.97861c-0.00211,0.74634-0.49435,1.49218-1.47421,2.06162
					c-1.96532,1.14211-5.16232,1.15029-7.14052,0.00818c-1.00077-0.5778-1.49791-1.33261-1.49577-2.08559l0.06137-9.9786
					c-0.00214,0.75296,0.495,1.50778,1.49577,2.08558c1.9782,1.14211,5.17521,1.13393,7.14053-0.00818
					C121.48437,53.81862,121.9766,53.07278,121.97872,52.32643z" class="colorefac41 svgShape"></path><path fill="#4aa1f9" d="M120.49529,50.25197c1.9782,1.14211,1.97456,2.99395,0.00922,4.13608
					c-1.96532,1.14212-5.16233,1.15029-7.14053,0.00818c-1.99231-1.15026-1.98864-3.00211-0.02332-4.14423
					C115.306,49.10987,118.50298,49.10171,120.49529,50.25197z" class="colorf9bb4a svgShape"></path></g><g fill="#0c2340" class="color000000 svgShape"><polygon fill="#f960dd" points="23.741 43.344 23.782 57.887 20.632 59.706 20.591 45.162" class="colorf9607f svgShape"></polygon><polygon fill="#7d74fd" points="29.992 42.389 30.026 54.282 26.848 56.117 26.814 44.224" class="color748bfd svgShape"></polygon><polygon fill="#7abcfe" points="36.201 36.15 36.242 50.694 33.064 52.529 33.023 37.985" class="colorfed57a svgShape"></polygon><polygon fill="#98b8d8" points="42.431 37.377 42.458 47.105 39.308 48.923 39.28 39.195" class="color9ad898 svgShape"></polygon><polygon fill="#d4dee8" points="62.443 20.999 62.446 22.098 46.329 31.403 46.326 30.304" class="colord4dae8 svgShape"></polygon><polygon fill="#d4dee8" points="68.884 17.28 68.887 18.379 63.29 21.611 63.287 20.512" class="colord4dae8 svgShape"></polygon><polygon fill="#d4dee8" points="54.631 27.937 54.634 29.036 46.336 33.827 46.333 32.728" class="colord4dae8 svgShape"></polygon><polygon fill="#d4dee8" points="57.921 26.037 57.924 27.136 55.513 28.528 55.51 27.43" class="colord4dae8 svgShape"></polygon><polygon fill="#d4dee8" points="63.84 28.771 63.843 29.87 46.354 39.967 46.351 38.868" class="colord4dae8 svgShape"></polygon><polygon fill="#d4dee8" points="62.481 34.444 62.484 35.543 46.368 44.848 46.364 43.749" class="colord4dae8 svgShape"></polygon><polygon fill="#d4dee8" points="68.908 25.845 68.911 26.944 64.687 29.383 64.684 28.284" class="colord4dae8 svgShape"></polygon><polygon fill="#d4dee8" points="54.655 36.502 54.658 37.601 46.361 42.391 46.358 41.292" class="colord4dae8 svgShape"></polygon><polygon fill="#d4dee8" points="57.946 34.602 57.949 35.701 55.537 37.093 55.534 35.994" class="colord4dae8 svgShape"></polygon><path fill="#98b8d8" d="M41.16699,51.13307c0.11708-0.0676,0.23489-0.11484,0.35124-0.13613
					c0.83863-0.14104,0.88489,1.13951,1.28508,1.83989c0.40696,0.70798,1.32359,0.76394,2.22268,0.24485
					c0.30059-0.17355,0.59908-0.41121,0.87608-0.71032c1.07751-1.1614,1.72662-2.94144,2.86136-3.95607
					c0.16825-0.14801,0.33803-0.26991,0.5072-0.36758c0.97265-0.56156,1.92578-0.32111,2.43665,0.40009
					c0.21906,0.32173,0.63705,0.2602,1.09969-0.0069c0.53254-0.30746,1.12429-0.88709,1.5412-1.46883
					c0.43914-0.59668,0.7642-1.2909,1.1321-1.94453c0.3665-0.63482,0.82465-1.26242,1.33774-1.55865
					c0.77565-0.3805,1.28886,0.04218,1.71656,0.4489c0.40451,0.42167,0.91785,0.82737,1.60416,0.43113
					c0.8133-0.47061,1.32215-1.54871,1.81721-2.48819c0.19785-0.42469,0.45269-0.84964,0.75032-1.18488
					c0.15208-0.17125,0.3265-0.32132,0.49866-0.42072c0.16484-0.09517,0.32768-0.14392,0.46682-0.12036
					c0.54072,0.09634,0.48684,1.15689,1.05573,1.18799c0.11807,0.01007,0.24622-0.03067,0.37736-0.10638
					c0.2797-0.16149,0.57352-0.48228,0.81455-0.81055c0.33991-0.49041,0.6227-1.06215,1.00549-1.49559
					c0.21985-0.24972,0.45337-0.44012,0.68878-0.57603c0.73579-0.42487,1.49084-0.31801,1.91241,0.16905
					c0.5422,0.65107,0.6796,3.93789,0.76799,5.04705l-50.20229,28.9843c0.25257-1.1916,0.54003-5.14864,1.16241-6.32497
					c0.43087-0.79072,1.07685-1.53341,1.70086-1.89368c0.2979-0.17199,0.59074-0.25679,0.85288-0.21803
					c0.78243,0.10385,1.09861,1.2776,1.99363,0.95695c0.07284-0.02587,0.14478-0.05971,0.21536-0.10046
					c0.71413-0.4123,1.30645-1.54097,1.6401-2.50683c0.38104-1.05334,0.73321-2.22078,1.51309-3.01419
					c0.16953-0.17451,0.34534-0.31042,0.52298-0.41298c0.5802-0.33498,1.17925-0.31376,1.63704-0.11512
					c0.61215,0.21851,1.09708,0.70649,1.73736,0.84343c0.60349,0.1236,1.32421-0.07359,2.05018-0.49273
					c0.45523-0.26283,0.91252-0.61289,1.34427-1.0259c1.1204-1.07168,2.05479-2.54257,2.71902-4.02089
					c0.31096-0.66978,0.55071-1.34745,0.93305-1.94403C40.4068,51.79566,40.78321,51.35465,41.16699,51.13307z" class="color9ad898 svgShape"></path></g><g fill="#0c2340" class="color000000 svgShape"><path fill="#f4f6f8" d="M1.53488,106.73214l0.01222,1.98959c0,0.26857,0.18305,0.53706,0.53707,0.74462L31.22,126.40828
					c0.72012,0.41504,1.89192,0.41504,2.61211,0l22.37363-12.91394c0.36617-0.20756,0.53707-0.48827,0.53707-0.75677v-1.98959
					c0,0.26849-0.18304,0.54929-0.54929,0.75677l-22.36142,12.91402c-0.73241,0.41497-1.892,0.41497-2.61211,0L2.07195,107.47677
					C1.71793,107.26921,1.53488,107.00071,1.53488,106.73214z" class="colorcad0dd svgShape"></path><path fill="#e4ecf4" d="M2.08566,105.97017c-0.72477,0.41844-0.72857,1.09334-0.00851,1.5118l29.14275,16.93591
					c0.72006,0.41846,1.88521,0.41846,2.60998,0.00002l22.36631-12.9132c0.72477-0.41844,0.72859-1.09335,0.00854-1.51181
					L27.06198,93.05697c-0.72006-0.41846-1.88523-0.41844-2.61,0L2.08566,105.97017z" class="colore4e8f4 svgShape"></path><polygon fill="#f4f6f8" points="3.377 106.603 4.157 107.053 25.657 94.643 25.657 93.743" class="colorcad0dd svgShape"></polygon><polygon fill="#bac4ce" points="25.657 93.743 25.657 94.643 31.577 98.093 32.357 97.643" class="colorbac1ce svgShape"></polygon><polygon fill="#5046e4" points="4.157 107.053 10.087 110.503 31.577 98.093 25.657 94.643" class="color576cfb svgShape"></polygon><path fill="#7abcfe" d="M30.21482,100.70117c-0.1247,0.072-0.11754,0.18447,0.00635,0.25647l3.46088,2.01124
				c0.12389,0.072,0.31804,0.07652,0.44274,0.00452l3.49134-2.01573c0.11688-0.06748,0.11753-0.18447-0.00636-0.25646
				l-3.46088-2.01125c-0.12389-0.072-0.32586-0.072-0.44274-0.00452L30.21482,100.70117z" class="colorfed57a svgShape"></path><path fill="#6822a2" d="M24.35436 104.08471c-.12467.07198-.11754.18446.00635.25646l3.46088 2.01125c.12389.07199.31807.0765.44274.00452l3.49134-2.01572c.11691-.0675.11754-.18447-.00635-.25647l-3.46088-2.01125c-.12389-.07199-.32584-.07201-.44274-.00452L24.35436 104.08471zM18.49392 107.46824c-.12467.07198-.11754.18447.00635.25646l3.46088 2.01125c.12389.072.31807.0765.44274.00452l3.49134-2.01572c.11691-.0675.11756-.18449-.00633-.25648l-3.46088-2.01124c-.12389-.072-.32586-.072-.44277-.0045L18.49392 107.46824z" class="color5b5e71 svgShape"></path><path fill="#98b8d8" d="M12.63349,110.85175c-0.1247,0.072-0.12536,0.18899-0.00147,0.26099l3.46088,2.01124
				c0.12389,0.072,0.32586,0.072,0.45056,0l3.49131-2.01571c0.11691-0.0675,0.11757-0.18449-0.00633-0.25648l-3.46088-2.01125
				c-0.12389-0.072-0.32586-0.072-0.44277-0.0045L12.63349,110.85175z" class="color9ad898 svgShape"></path><path fill="#6822a2" d="M35.69651 103.88679c-.1247.07199-.11753.18447.00633.25645l3.4609 2.01126c.12389.072.31801.0765.44271.0045l3.49134-2.01572c.11688-.06748.11756-.18446-.00633-.25645l-3.4609-2.01125c-.12386-.07198-.32584-.07198-.44271-.0045L35.69651 103.88679zM29.83606 107.27032c-.12468.07198-.11754.18447.00633.25645l3.4609 2.01125c.12389.072.31804.07648.44271.0045l3.49134-2.01572c.11691-.0675.11757-.18446-.00632-.25645l-3.4609-2.01126c-.12387-.07198-.32581-.072-.44271-.0045L29.83606 107.27032zM23.97561 110.65385c-.12467.07198-.11754.18447.00633.25645l3.46091 2.01126c.12389.07199.31804.07648.44271.0045l3.49134-2.01573c.11691-.06749.11759-.18446-.0063-.25646l-3.4609-2.01126c-.12387-.07198-.32584-.07198-.44274-.00449L23.97561 110.65385z" class="color5b5e71 svgShape"></path><path fill="#98b8d8" d="M18.11519,114.03737c-0.1247,0.07199-0.12536,0.18898-0.0015,0.26096l3.4609,2.01126
				c0.12389,0.072,0.32584,0.07198,0.45054-0.00002l3.49131-2.01571c0.11691-0.0675,0.11759-0.18447-0.0063-0.25647
				l-3.46091-2.01125c-0.12386-0.07198-0.32583-0.07198-0.44274-0.00449L18.11519,114.03737z" class="color9ad898 svgShape"></path><path fill="#6822a2" d="M41.1782 107.0724c-.1247.072-.11757.18446.00632.25645l3.4609 2.01125c.12386.07198.31801.0765.44271.00451l3.49134-2.01573c.11688-.06747.11754-.18446-.00633-.25645l-3.4609-2.01126c-.12389-.072-.32583-.07198-.44271-.0045L41.1782 107.0724zM35.31775 110.45593c-.12468.07198-.11757.18445.00632.25645l3.46091 2.01126c.12386.07198.31804.07648.44271.0045l3.49134-2.01572c.11691-.0675.11754-.18447-.00632-.25645l-3.4609-2.01125c-.12389-.072-.32581-.072-.44271-.00451L35.31775 110.45593zM29.4573 113.83946c-.12468.07198-.11757.18446.00633.25645l3.4609 2.01125c.12386.07198.31804.07648.44271.0045l3.49134-2.01572c.11691-.0675.11756-.18449-.0063-.25647l-3.4609-2.01125c-.12389-.072-.32584-.07198-.44274-.00449L29.4573 113.83946zM46.65987 110.258c-.1247.072-.11754.18447-.00139.25197l3.46862 2.01574c.12389.072.31804.07652.44274.00452l3.49134-2.01572c.11688-.06748.11754-.18447-.00635-.25647l-3.46862-2.01574c-.11615-.0675-.31812-.0675-.43499-.00002L46.65987 110.258zM40.79942 113.64153c-.12468.07198-.11754.18447-.00139.25197l3.46862 2.01574c.12389.072.31807.0765.44274.00452l3.49134-2.01573c.11691-.06749.11754-.18446-.00635-.25646l-3.46862-2.01575c-.11615-.0675-.31809-.06751-.435-.00002L40.79942 113.64153zM34.93897 117.02506c-.12468.07198-.11754.18446-.00139.25196l3.46862 2.01575c.12389.072.31807.0765.44274.00452l3.49134-2.01572c.11691-.0675.11757-.18449-.00633-.25648l-3.46862-2.01574c-.11615-.0675-.31812-.0675-.43502-.00001L34.93897 117.02506z" class="color5b5e71 svgShape"></path><path fill="#474f59" d="M38.78777 112.72535l-3.46655-2.01402c-.06101-.03658-.09767-.08546-.09767-.13425l.01222.61418c0 .0488.02444.09766.08545.13425l3.46655 2.00181c.12203.07323.3173.08545.4394.01222l3.49091-2.01403c.06102-.03658.08545-.08545.08545-.13425v-.60196c0 .0488-.02444.08545-.08545.12203l-3.49091 2.01402C39.10506 112.79858 38.90979 112.79858 38.78777 112.72535zM46.66061 111.11802l3.46655 2.01395c.12203.07323.31737.07323.4394.01221l3.50313-2.02617c.04887-.02444.08545-.07323.08545-.12211l-.01222-.60196c0 .03666-.02436.08546-.08545.12211l-3.49091 2.01395c-.12203.07323-.31737.07323-.4394 0l-3.46655-2.01395c-.06102-.03665-.0976-.08545-.0976-.13425l.01214.6141C46.57515 111.03257 46.59959 111.08137 46.66061 111.11802zM48.57697 107.93226c.06102-.02444.09767-.07323.09767-.12211l-.01222-.60196c0 .03666-.02443.08546-.08545.12211l-3.49091 2.01395c-.12203.07323-.31737.07323-.4394 0l-3.46655-2.01395c-.06102-.03665-.09767-.08545-.09767-.13432l.01222.61417c0 .03666.02444.08546.09767.12211l3.45433 2.01395c.12203.07323.31737.07323.4394.01221L48.57697 107.93226zM40.80172 114.49905l3.46655 2.01402c.12203.07323.31737.08545.4394.01222l3.49091-2.01403c.06102-.03658.09767-.08545.09767-.13425l-.01222-.60196c0 .0488-.02444.08545-.08545.12203l-3.49091 2.01402c-.12203.07323-.31737.07323-.4394 0l-3.46655-2.01402c-.06101-.03658-.09767-.08538-.09767-.13425l.01222.61418C40.71627 114.42581 40.7407 114.46246 40.80172 114.49905zM43.09646 104.74642c.06101-.02436.08545-.07323.08545-.12203v-.60196c0 .03658-.02444.08546-.08545.12203l-3.49091 2.01403c-.1221.07323-.31737.07323-.4394 0l-3.46655-2.01403c-.06102-.03658-.09767-.08545-.09767-.13425l.01222.61417c0 .03658.02444.08546.08545.12203l3.46655 2.01403c.12203.07323.3173.07323.4394.01221L43.09646 104.74642z" class="color474b59 svgShape"></path><path fill="#fa51db" d="M23.59122,117.48566c-0.06101-0.03658-0.08545-0.08537-0.08545-0.13425v0.61417
				c0,0.0488,0.03658,0.08545,0.09767,0.12203l8.93476,5.19979c0.1221,0.07323,0.32959,0.07323,0.45169,0l3.49091-2.01395
				c0.06102-0.03666,0.08545-0.07323,0.08545-0.12211v-0.61417c0,0.04887-0.02443,0.09767-0.08545,0.1221l-3.49091,2.02618
				c-0.1221,0.07323-0.32959,0.07323-0.45169,0L23.59122,117.48566z" class="colorfa5168 svgShape"></path><path fill="#986eba" d="M18.11072 114.2999c-.06109-.03658-.08545-.08545-.08545-.13425v.61417c0 .0488.02436.08545.08545.12203l3.46648 2.01403c.1221.07323.32959.07323.45162 0l3.49091-2.01403c.06109-.03658.08545-.07323.08545-.12203v-.61417c0 .0488-.03658.09766-.08545.13425l-3.49091 2.01403c-.13425.07323-.32951.07323-.45162 0L18.11072 114.2999zM12.54476 110.9799v.61417c0 .0488.02436.08538.08538.12203l3.46655 2.01403c.12203.07323.32959.07323.45162 0l3.49091-2.01403c.06109-.03665.08545-.07323.08545-.12203v-.61417c0 .0488-.03658.0976-.08545.13425l-3.49091 2.01403c-.13425.07323-.32959.07323-.45162 0l-3.46655-2.01403C12.56912 111.07749 12.54476 111.02869 12.54476 110.9799z" class="color6eba6e svgShape"></path><path fill="#ef41cf" d="M37.61596,101.56066c0.06102-0.02444,0.08545-0.07323,0.08545-0.12203v-0.60196
				c0,0.03658-0.02444,0.08546-0.08545,0.12203l-3.49091,2.01403c-0.1221,0.07323-0.31737,0.07323-0.43948,0l-3.46647-2.01403
				c-0.06102-0.03658-0.09767-0.08545-0.09767-0.13425v0.61417c0.01222,0.0488,0.03665,0.08546,0.09767,0.12203l3.46647,2.01403
				c0.1221,0.07323,0.31737,0.07323,0.43948,0.01221L37.61596,101.56066z" class="colorefac41 svgShape"></path><path fill="#474f59" d="M36.85919 114.7066c.06102-.03665.08545-.08545.08545-.1221v-.61418c0 .04887-.02444.09767-.08545.12211l-3.49091 2.01395c-.1221.0733-.31737.0733-.43947 0l-3.46648-2.01395c-.06102-.03665-.09767-.08545-.09767-.13425v.61417c0 .0488.03665.0976.09767.13425l3.46648 2.01395c.1221.06109.31737.07323.43947 0L36.85919 114.7066zM33.74666 110.15369l3.49091-2.01395c.06102-.03665.08545-.08545.08545-.13425v-.60196c0 .0488-.02444.08537-.08545.12203l-3.49091 2.01402c-.12211.07323-.31737.07323-.43948 0l-3.46648-2.01402c-.06101-.03666-.09767-.08546-.09767-.13425v.61418c0 .0488.03665.0976.09767.13425l3.46648 2.00181C33.42929 110.21478 33.62455 110.22693 33.74666 110.15369zM34.94283 117.88014l3.46655 2.02625c.12203.06101.3173.07323.4394 0l3.49091-2.01403c.06102-.03665.08545-.08545.08545-.12202v-.61418c0 .0488-.02444.0976-.08545.12203l-3.49091 2.01403c-.12211.07323-.31737.07323-.4394 0l-3.46655-2.01403c-.06102-.03658-.09767-.08545-.09767-.12203v.60196C34.84516 117.80691 34.88181 117.85571 34.94283 117.88014zM31.75707 104.3398l-3.49099 2.01395c-.12203.07323-.3173.07323-.4394 0l-3.46648-2.01395c-.06109-.03665-.09767-.08545-.09767-.13432v.61418c0 .04887.03658.09767.09767.13432l3.46648 2.00173c.1221.07323.31737.08546.4394.01222l3.49099-2.01395c.06102-.03665.08545-.08545.08545-.13432v-.60196C31.84252 104.26657 31.81808 104.30315 31.75707 104.3398zM25.89818 107.72083l-3.49099 2.01403c-.12203.07323-.31737.07323-.45162 0l-3.45433-2.01403c-.06101-.03658-.09759-.08537-.09759-.12203v.60196c0 .0488.03658.09767.09759.13425l3.46655 2.01402c.12203.07323.31737.07323.4394 0l3.49099-2.01402c.06102-.03658.08538-.08546.08538-.12203v-.61418C25.98356 107.64759 25.9592 107.69646 25.89818 107.72083zM27.8877 113.53479l3.49099-2.01395c.06101-.03665.08545-.08545.08545-.1221v-.61418c0 .04887-.02444.09767-.08545.12211l-3.49099 2.01395c-.12203.07323-.31729.07323-.4394 0l-3.46647-2.01395c-.06109-.03665-.09767-.08545-.09767-.12211v.60196c0 .04887.03658.09767.09767.13432l3.46647 2.01395C27.5704 113.59581 27.76567 113.60802 27.8877 113.53479z" class="color474b59 svgShape"></path><path fill="#f960dd" d="M23.59688,117.22298c-0.1247,0.072-0.12539,0.18897-0.0015,0.26097l8.94257,5.19685
				c0.12389,0.072,0.32586,0.072,0.45056,0l3.49131-2.01571c0.11691-0.0675,0.11757-0.18449-0.00632-0.25648l-8.94257-5.19685
				c-0.12389-0.072-0.32584-0.07198-0.44274-0.00449L23.59688,117.22298z" class="colorf9607f svgShape"></path></g><g fill="#0c2340" class="color000000 svgShape"><polygon fill="#d4dee8" points="65.21 101.676 65.218 103.416 90.458 118.084 90.45 116.344" class="colord4dae8 svgShape"></polygon><polygon fill="#f4f6f8" points="90.45 116.344 90.458 118.084 128.092 96.356 128.084 94.616" class="colorcad0dd svgShape"></polygon><polygon fill="#e4ecf4" points="65.21 101.676 90.45 116.344 128.084 94.616 102.844 79.948" class="colore4e8f4 svgShape"></polygon><path fill="#a375ca" d="M82.11601,99.04934c-2.74432,1.58443-2.76608,4.16072-0.03238,5.74937l4.97907-2.87466
					L82.11601,99.04934z" class="color75ca75 svgShape"></path><polygon fill="#5046e4" points="68.873 101.928 71.932 103.706 94.221 90.837 91.162 89.059" class="color576cfb svgShape"></polygon><polygon fill="#5046e4" points="95.864 86.344 98.924 88.122 106.327 83.848 103.268 82.07" class="color576cfb svgShape"></polygon><polygon fill="#f960dd" points="101.647 88.929 102.804 89.602 109.538 85.714 108.381 85.042" class="colorf9607f svgShape"></polygon><polygon fill="#f960dd" points="104.072 96.427 105.229 97.099 117.218 90.177 116.061 89.505" class="colorf9607f svgShape"></polygon><polygon fill="#f960dd" points="103.113 94.015 104.27 94.687 114.658 88.69 113.501 88.017" class="colorf9607f svgShape"></polygon><polygon fill="#f960dd" points="96.6 94.809 97.758 95.481 112.098 87.202 110.941 86.529" class="colorf9607f svgShape"></polygon><path fill="#4aa1f9" d="M83.33497,99.04934l4.93948,2.87051l-4.97907,2.87466c2.72646,1.58445,7.17422,1.58026,9.91853-0.00417
						c2.75156-1.58862,2.75879-4.15652,0.03233-5.74096C90.51252,97.46072,86.08654,97.46072,83.33497,99.04934z" class="colorf9bb4a svgShape"></path><polygon fill="#bac4ce" points="89.56 113.979 90.574 114.568 101.923 108.016 100.909 107.427" class="colorbac1ce svgShape"></polygon><polygon fill="#bac4ce" points="87.535 112.753 88.549 113.342 99.897 106.79 98.883 106.201" class="colorbac1ce svgShape"></polygon><polygon fill="#bac4ce" points="85.509 111.527 86.524 112.116 97.872 105.564 96.858 104.975" class="colorbac1ce svgShape"></polygon><polygon fill="#bac4ce" points="111.309 100.003 112.323 100.592 123.671 94.04 122.657 93.451" class="colorbac1ce svgShape"></polygon><polygon fill="#bac4ce" points="109.284 98.777 110.298 99.366 121.646 92.814 120.632 92.225" class="colorbac1ce svgShape"></polygon><polygon fill="#bac4ce" points="107.258 97.551 108.272 98.14 119.621 91.588 118.607 90.999" class="colorbac1ce svgShape"></polygon><path fill="#986eba" d="M127.14619,103.69345c0.72556-0.41891,1.31767-0.08147,1.32003,0.75227
							c0.00235,0.8275-0.58591,1.84643-1.31148,2.26533c-0.73097,0.42203-1.31769,0.08147-1.32003-0.74603
							C125.83234,105.13129,126.41521,104.11548,127.14619,103.69345z" class="color6eba6e svgShape"></path><path fill="#664184" d="M118.04884,94.03802l-0.00882,1.98768c-0.00372,1.31758-0.86734,2.63241-2.59159,3.63444
							c-3.48092,2.02289-9.15589,2.02293-12.65958,0.00007c-1.76312-1.01794-2.64369-2.35603-2.6399-3.69207l0.00879-1.98766
							c-0.00377,1.33603,0.8768,2.67413,2.63992,3.69206c3.50369,2.02286,9.17867,2.02282,12.65958-0.00007
							C117.18148,96.67044,118.0451,95.35562,118.04884,94.03802z" class="color416e84 svgShape"></path><path fill="#724c91" d="M115.402,90.34296c-3.50354-2.02467-9.18059-2.02467-12.64445-0.00993
							c-1.73687,1.01237-2.60033,2.3324-2.60033,3.65244c0,0.61534,0.18858,1.23069,0.56573,1.81622
							c0.07941,0.12903,0.16871,0.25806,0.26799,0.37716c0.30768,0.38708,0.70464,0.7543,1.19101,1.09178
							c0.18858,0.1389,0.39697,0.26793,0.61534,0.39696c3.50348,2.02473,9.17065,2.02473,12.65433,0
							c0.21832-0.12903,0.42677-0.25806,0.61534-0.38708c0.18858-0.13891,0.35728-0.27787,0.51605-0.41683
							c0.00994-0.00993,0.00994,0,0.00994,0c0.07941-0.07941,0.1489-0.14884,0.22831-0.21832
							c0.06948-0.06948,0.13891-0.1489,0.20839-0.21838c0.12903-0.14884,0.24812-0.29774,0.36722-0.45651
							c0.04967-0.06948,0.09928-0.15883,0.1489-0.23825c0.09923-0.15877,0.17864-0.3176,0.24812-0.47638
							C118.50845,93.54877,117.70454,91.67294,115.402,90.34296z M114.72705,97.25076c-3.08665,1.79642-8.10867,1.79642-11.21519,0
							c-1.12152-0.65508-1.83609-1.44907-2.14376-2.28272c0.30767-0.82379,1.0123-1.60784,2.11402-2.25299
							c3.06677-1.78648,8.09874-1.78648,11.20525,0.00993c1.13146,0.65502,1.84603,1.44901,2.14376,2.29266
							C116.52346,95.8315,115.81883,96.61555,114.72705,97.25076z" class="color4c7891 svgShape"></path><path fill="#664184" d="M116.83113,95.01764c-0.29773-0.84366-1.0123-1.63764-2.14376-2.29266
							c-3.10651-1.79641-8.13848-1.79641-11.20525-0.00993c-1.10172,0.64515-1.80635,1.4292-2.11402,2.25299
							c-0.55579-1.46894,0.14883-3.07677,2.11402-4.21811c3.06677-1.78654,8.09874-1.78654,11.20525,0.00993
							C116.6823,91.92106,117.39687,93.53883,116.83113,95.01764z" class="color416e84 svgShape"></path><path fill="#fa51db" d="M118.67981,98.98952c-0.12405-0.07088-0.28941-0.05909-0.47842,0.04722
							c-0.3721,0.21854-0.67333,0.7383-0.67333,1.16949c0,0.2067,0.07678,0.35436,0.19492,0.42524l-1.94567-1.12874
							c-0.11813-0.07088-0.19492-0.21854-0.19492-0.43119c0-0.43115,0.30123-0.95091,0.67333-1.16354
							c0.18901-0.11222,0.36028-0.11813,0.47842-0.04726L118.67981,98.98952z" class="colorfa5168 svgShape"></path><path fill="#a50b89" d="M118.19978,99.03903c0.37332-0.21554,0.67599-0.04306,0.6772,0.38593
							c0.00121,0.42464-0.29949,0.94547-0.67282,1.16102c-0.37332,0.21554-0.67599,0.04306-0.67719-0.38158
							C117.52575,99.7754,117.82645,99.25457,118.19978,99.03903z" class="colorf34858 svgShape"></path><path fill="#a375ca" d="M128.08238,103.60304c-0.23749-0.13572-0.5682-0.11874-0.93291,0.09328
								c-0.73782,0.41555-1.3145,1.43324-1.3145,2.27283c0,0.40711,0.14416,0.69543,0.38165,0.83115l-9.01806-5.27248
								c-0.23743-0.13567-0.38159-0.42403-0.38159-0.83958c0-0.83109,0.57668-1.84879,1.3145-2.26434
								c0.36466-0.21202,0.69543-0.23749,0.93286-0.09328L128.08238,103.60304z" class="color75ca75 svgShape"></path><path fill="#7d74fd" d="M116.83469,95.0216c-0.30767,0.81385-1.01237,1.5979-2.10409,2.23312
							c-3.08665,1.79641-8.10867,1.79641-11.21519,0c-1.12152-0.65502-1.83615-1.44901-2.14382-2.28273
							c0.30767-0.82379,1.01237-1.60784,2.11402-2.25298c3.06684-1.78648,8.0988-1.78648,11.20531,0.00993
							C115.82232,93.38402,116.53695,94.178,116.83469,95.0216z" opacity=".4" class="color748bfd svgShape"></path></g></g></svg>