<svg xmlns="http://www.w3.org/2000/svg" enable-background="new 0 0 50 50" viewBox="0 0 50 50" id="Ambulance"><path fill="#0c2340" d="M9.5 29.1c-.8-.5-1.6-.5-2.1-.2l-3 1.7c.5-.3 1.3-.3 2.1.2 1.7 1 3 3.3 3 5.2 0 .9-.3 1.6-.9 1.9l3-1.7c.5-.3.9-1 .9-1.9C12.5 32.4 11.1 30.1 9.5 29.1zM29.5 40.5c-.8-.5-1.6-.5-2.1-.2l-3 1.7c.5-.3 1.3-.3 2.1.2 1.7 1 3 3.3 3 5.2 0 .9-.3 1.6-.9 1.9l3-1.7c.5-.3.9-1 .9-1.9C32.5 43.8 31.2 41.5 29.5 40.5z" class="color282828 svgShape"></path><path fill="#f4f6f8" d="M49.1,34.8c-0.2-0.3-0.4-0.7-0.6-1.1l-3.3-7.1l-16.2,9.3l-7.1-4L0.4,24.5l0,5.6c0,0.4,0.2,0.8,0.6,1
					l30.9,17.7c0.9,0.5,2,0.5,3,0l13.9-8c0.5-0.3,0.8-0.8,0.8-1.4l0-3.2C49.6,35.7,49.3,35.2,49.1,34.8z" class="color5bc8ff svgShape"></path><path fill="#465160" d="M28.5,36.5c0.1,0,0.1,0.1,0.1,0.2l2.7,6c0.1,0.2,0,0.3-0.1,0.2l-8.3-4.8
												c-0.1-0.1-0.2-0.2-0.2-0.3l0-4.4c0-0.1,0.1-0.1,0.2-0.1L28.5,36.5z" class="color465160 svgShape"></path><path fill="#2c3744" d="M31.3,42.9l-8.3-4.8c-0.1-0.1-0.2-0.2-0.2-0.3l0-4.4c0-0.1,0.1-0.1,0.2-0.1l0.2,0.1l0,4.2
										c0,0.1,0.1,0.2,0.2,0.3l8.1,4.6l0,0.1C31.5,42.8,31.4,42.9,31.3,42.9z" class="color2c3644 svgShape"></path><polygon fill="#f4f6f8" points=".4 9.7 16.6 .4 38.2 12.7 22 22" class="colorf1f1f2 svgShape"></polygon><polygon fill="#afafaf" points="22 22 38.2 12.7 38.2 22.6 22 31.9" class="colorafafaf svgShape"></polygon><polygon fill="#d8d8d8" points="22 22 22 31.9 22 36.8 .4 24.5 .4 9.7" class="colord8d8d8 svgShape"></polygon><polygon fill="#77b9fc" points="22 31.9 38.2 22.6 45.3 26.6 29.1 35.9" class="color77d6fc svgShape"></polygon><polygon fill="#465160" points="48.2 34.2 45.1 27.2 29.6 36.1 32.8 43.1" class="color465160 svgShape"></polygon><polygon fill="#2c3744" points="48.2 34.2 45.1 27.2 44.6 27.5 47.5 34 32.6 42.6 32.8 43.1" class="color2c3644 svgShape"></polygon><path fill="#0c00bf" d="M30.6,47.3c0-2.4-1.6-5.2-3.7-6.4c-0.7-0.4-1.3-0.6-1.9-0.6c-1.3,0-2.6,0.9-2.7,2.8l8.3,4.8
										c0-0.1,0-0.1,0-0.2C30.6,47.6,30.6,47.5,30.6,47.3z" class="color0092bf svgShape"></path><polygon fill="#4d4e4f" points="46 37.5 37.7 42.4 37.8 44.8 46 39.9" class="color4f4d4d svgShape"></polygon><polygon fill="#ffffff" points="44.2 41.7 41 43.5 41.1 44.5 44.2 42.6" class="colorffffff svgShape"></polygon><polygon fill="#0c2340" points="46 39.9 46 37.5 45.6 37.7 45.7 39.6 37.8 44.3 37.8 44.8" class="color282828 svgShape"></polygon><path fill="#ff01d1" d="M35.6 46.8c.2-.1.4 0 .4.2s-.2.5-.4.7l-.9.5c-.2.1-.4 0-.4-.2 0-.2.2-.5.4-.7L35.6 46.8zM49.6 38.3l-.7.4c-.2.1-.3.3-.3.5 0 .2.1.3.3.2l.7-.4L49.6 38.3z" class="colorffb001 svgShape"></path><path fill="#4d4e4f" d="M29.6,47.3c0,0.1,0,0.2,0,0.3c-0.2,1.8-1.5,2.5-3.2,1.5c-1.7-1-3.1-3.2-3.2-5.2c0-0.1,0-0.2,0-0.4
										c0-2,1.5-2.9,3.3-1.8S29.6,45.3,29.6,47.3z" class="color4f4d4d svgShape"></path><path fill="#d8d8d8" d="M28.6,46.7c0,0.1,0,0.2,0,0.2c-0.1,1.2-1,1.6-2.2,1c-1.1-0.6-2-2.1-2.1-3.5c0-0.1,0-0.2,0-0.2
										c0-1.4,1-1.9,2.2-1.2C27.6,43.7,28.6,45.4,28.6,46.7z" class="colord8d8d8 svgShape"></path><path fill="#939293" d="M27.5,46.1c0,0,0,0.1,0,0.1c-0.1,0.6-0.5,0.9-1.1,0.5c-0.6-0.3-1.1-1.1-1.1-1.8c0,0,0-0.1,0-0.1
										c0-0.7,0.5-1,1.1-0.6C27,44.5,27.5,45.4,27.5,46.1z" class="color929393 svgShape"></path><g fill="#000000" class="color000000 svgShape"><path fill="#0c00bf" d="M10.6,35.9c0-2.4-1.6-5.2-3.7-6.4C6.2,29.1,5.5,29,4.9,29c-1.3,0-2.6,0.9-2.7,2.8l8.3,4.8
						c0-0.1,0-0.1,0-0.2C10.6,36.2,10.6,36,10.6,35.9z" class="color0092bf svgShape"></path></g><g fill="#000000" class="color000000 svgShape"><path fill="#4d4e4f" d="M9.6,35.9c0,0.1,0,0.2,0,0.3C9.4,38,8,38.7,6.4,37.7c-1.7-1-3.1-3.2-3.2-5.2c0-0.1,0-0.2,0-0.4
						c0-2,1.5-2.9,3.3-1.8C8.2,31.4,9.6,33.9,9.6,35.9z" class="color4f4d4d svgShape"></path><path fill="#d8d8d8" d="M8.5,35.3c0,0.1,0,0.2,0,0.2c-0.1,1.2-1,1.6-2.2,1c-1.1-0.6-2-2.1-2.1-3.5c0-0.1,0-0.2,0-0.2
						c0-1.4,1-1.9,2.2-1.2C7.6,32.3,8.5,33.9,8.5,35.3z" class="colord8d8d8 svgShape"></path><path fill="#939293" d="M7.5,34.7c0,0,0,0.1,0,0.1c-0.1,0.6-0.5,0.9-1.1,0.5c-0.6-0.3-1.1-1.1-1.1-1.8c0,0,0-0.1,0-0.1
						c0-0.7,0.5-1,1.1-0.6C7,33.1,7.5,34,7.5,34.7z" class="color929393 svgShape"></path></g><g fill="#000000" class="color000000 svgShape"><g fill="#000000" class="color000000 svgShape"><polygon fill="#a50b89" points="32.7 27 32.7 28.1 35.4 29.7 35.4 28.6" class="colorc5322e svgShape"></polygon><polygon fill="#cf18ae" points="35.4 28.6 35.4 29.7 40.5 26.8 40.5 25.7" class="colorcf181a svgShape"></polygon><polygon fill="#ff3cdc" points="32.7 27 35.4 28.6 40.5 25.7 37.8 24.1" class="colorff413c svgShape"></polygon></g><g fill="#000000" class="color000000 svgShape"><polygon fill="#3b3c3d" points="31.2 27.9 31.2 29 33.9 30.6 33.9 29.4" class="color3d3b3b svgShape"></polygon><polygon fill="#6822a2" points="31.2 27.9 33.9 29.4 35.4 28.6 32.7 27" class="color686868 svgShape"></polygon><polygon fill="#3d3d3d" points="33.9 29.4 33.9 30.6 35.4 29.7 35.4 28.6" class="color3d3d3d svgShape"></polygon><polygon fill="#004295" points="28.9 32.4 28.9 33.5 33.9 30.6 33.9 29.4" class="color004795 svgShape"></polygon><polygon fill="#004295" points="26.2 30.8 26.2 31.9 28.9 33.5 28.9 32.4" class="color004795 svgShape"></polygon><polygon fill="#5046e4" points="26.2 30.8 28.9 32.4 33.9 29.4 31.2 27.9" class="color025daf svgShape"></polygon></g></g><g fill="#000000" class="color000000 svgShape"><path fill="#ffffff" d="M15.3,26c0,3-2.1,4.2-4.7,2.7C8.1,27.1,6,23.5,6,20.6c0-3,2.1-4.2,4.7-2.7C13.3,19.4,15.4,23,15.3,26z" class="colorffffff svgShape"></path></g><g fill="#000000" class="color000000 svgShape"><path fill="#f4f6f8" d="M47.4 37.4c.2-.1.4 0 .4.3 0 .3-.2.6-.4.8-.2.1-.4 0-.4-.3C46.9 37.9 47.1 37.6 47.4 37.4zM49.6 37.1l0-.9c0 0 0 0 0 0-.1-.1-.1-.1-.2-.1-.1 0-.3 0-.5.1-.4.3-.8.9-.8 1.4 0 .3.1.4.2.5 0 0 .1 0 .2 0 0 0 .1 0 .1 0 .1 0 .2 0 .3-.1C49.2 37.8 49.5 37.4 49.6 37.1z" class="colorf1f1f2 svgShape"></path><path fill="#0c00bf" d="M48.9,37.9C48.8,38,48.7,38,48.6,38c0,0-0.1,0-0.1,0c-0.1,0-0.1,0-0.2,0c-0.1-0.1-0.2-0.3-0.2-0.5
					c0-0.5,0.4-1.1,0.8-1.4c0.2-0.1,0.3-0.1,0.5-0.1c0.1,0,0.2,0.1,0.2,0.1c0-0.2-0.1-0.4-0.1-0.6c-0.2,0-0.3,0-0.5,0.1
					c-0.2,0.1-0.4,0.3-0.6,0.6c-0.2,0.3-0.4,0.5-0.6,0.6c-0.1,0-0.1,0.1-0.2,0.1c-0.1,0-0.1,0-0.2,0.1c0,0-0.1,0.1-0.1,0.1
					c-0.3,0.3-0.6,0.7-0.6,1.1c-0.1,0.6,0.3,0.8,0.8,0.5l0.2-0.1c0.1-0.1,0.2-0.1,0.2-0.2c0.2-0.1,0.4-0.2,0.6-0.1
					c0.2,0,0.4,0,0.6-0.1c0.1,0,0.2-0.1,0.3-0.2c0.1-0.1,0.3-0.3,0.4-0.4l0-0.6C49.5,37.4,49.2,37.8,48.9,37.9z M47.4,38.4
					c-0.2,0.1-0.4,0-0.4-0.3c0-0.3,0.2-0.6,0.4-0.8c0.2-0.1,0.4,0,0.4,0.3C47.8,37.9,47.6,38.3,47.4,38.4z" class="color0092bf svgShape"></path></g><g fill="#000000" class="color000000 svgShape"><path fill="#f4f6f8" d="M34.4 44.4c.4-.3.8 0 .8.5 0 .5-.4 1.1-.8 1.4-.4.3-.8 0-.8-.5C33.6 45.3 33.9 44.7 34.4 44.4zM36 44c.2-.1.4 0 .4.3 0 .3-.2.6-.4.8-.2.1-.4 0-.4-.3C35.5 44.4 35.7 44.1 36 44z" class="colorf1f1f2 svgShape"></path><path fill="#0c00bf" d="M36.7,43.9c0.1,0.5-0.3,1.2-0.8,1.4l-0.2,0.1c-0.1,0-0.2,0.1-0.2,0.1c-0.2,0.1-0.4,0.3-0.6,0.5
					c-0.2,0.3-0.4,0.5-0.6,0.6c-0.1,0-0.2,0.1-0.3,0.1c-0.4,0.1-0.7-0.1-0.8-0.5c-0.1-0.7,0.4-1.7,1.1-2.1c0.2-0.1,0.4-0.2,0.6-0.1
					c0.2,0,0.4,0,0.6-0.1c0.1,0,0.1-0.1,0.2-0.1c0.1-0.1,0.1-0.1,0.2-0.2c0,0,0.1,0,0.1-0.1C36.4,43.4,36.7,43.5,36.7,43.9z
					 M34.4,46.3c0.4-0.3,0.8-0.9,0.8-1.4c0-0.5-0.4-0.7-0.8-0.5c-0.4,0.3-0.8,0.9-0.8,1.4C33.6,46.3,33.9,46.5,34.4,46.3 M36,45
					c0.2-0.1,0.4-0.5,0.4-0.8c0-0.3-0.2-0.4-0.4-0.3c-0.2,0.1-0.4,0.5-0.4,0.8C35.5,45,35.7,45.1,36,45" class="color0092bf svgShape"></path></g><g fill="#000000" class="color000000 svgShape"><path fill="#ff3cdc" d="M13.5,21.6c-0.1,0.2-0.4,0.1-0.6,0c-0.2-0.1-0.4-0.2-0.6-0.3l0,0c0.3,0.2,0.6,0.3,0.9,0.5
			c-0.1,0.1-0.2,0.1-0.4,0c-0.3-0.1-0.6-0.4-0.7-0.4c0.2,0.2,0.5,0.4,0.7,0.5c-0.1,0.1-0.2,0.1-0.3,0c0,0-0.1,0-0.1-0.1
			c-0.2-0.1-0.3-0.2-0.5-0.3l0,0c0.1,0.1,0.3,0.2,0.4,0.3c-0.2,0.1-0.5-0.2-0.7-0.3c0,0,0.2,0.2,0.3,0.3c-0.2,0-0.4-0.1-0.6-0.4
			c-0.1-0.1-0.1-0.2-0.2-0.2c0,0-0.1-0.1-0.1-0.1c0.1,0.9,0.1,1.7,0.1,2.5c0.4,0,0.7,0.1,0.8-0.3l0-0.1c0-0.2,0-0.2-0.2-0.3
			c-0.1-0.1-0.2-0.1-0.2-0.2c-0.1-0.1-0.1-0.1-0.2-0.2l0.1,0c0.1,0,0-0.1-0.1-0.3c-0.3-0.5,1.1,0.1,1.1,1.2c0,0.1,0,0.2,0,0.4
			c0,0.2-0.2,0.3-0.3,0.3c-0.2,0-0.3,0-0.7,0c0.2,0.2,0.3,0.4,0.4,0.7c0.1,0.4,0.1,0.8-0.2,1c-0.1,0.1-0.3,0.1-0.4,0.1
			c0,0.1,0.1,0.1,0.1,0.2c0.1,0.3,0.3,0.6,0.2,0.8c-0.1,0.2-0.2,0.4-0.4,0.5l0,0l0,0c0.3-0.5,0.1-0.9,0-1.2l0,0
			c0,0.2-0.1,1.8-0.1,2.1l-0.1-0.1c0-0.4-0.1-2.1-0.1-2.2c0,0.1-0.4,0-0.1,1.2l0,0.1l0,0c-0.1-0.3-0.5-1.1-0.3-1.3
			c0.1-0.1,0.2-0.2,0.3-0.2c-0.3-0.4-1-1.3-0.6-1.8c0.1-0.2,0.3-0.2,0.4-0.2l0,0c-1.8-1.9-0.7-2.9,0.1-1.9c0.1,0.1,0.1,0.1,0,0.2
			c0,0-0.1,0.1-0.1,0.1c0,0,0,0.1,0,0.1l0.1,0.1c0,0.1-0.1,0.1-0.2,0C10,22,9.9,22,9.8,21.9c-0.1-0.1-0.2-0.1-0.2,0.1
			c0.1,0.6,0,0.4,0.8,1.3c0-0.8,0-1.7,0.1-2.4c0,0-0.1,0-0.1,0c-0.1,0-0.1,0-0.2,0c-0.3,0-0.5-0.1-0.6-0.3c0,0,0.1,0,0.1,0l0.1,0
			c-0.3-0.1-0.5-0.2-0.7-0.5c0.1,0,0.3,0.1,0.4,0.1l0,0C9.3,20.2,9.1,20.1,9,20c0,0-0.1-0.1-0.1-0.1c-0.1-0.1-0.3-0.2-0.3-0.4
			c0.2,0.1,0.5,0.2,0.7,0.3c-0.2-0.2-0.8-0.3-1.1-0.9c0.3,0.2,0.6,0.3,0.9,0.5l0,0c-0.6-0.3-0.9-0.6-1.2-1.1
			c0.9,0.6,0.9,0.6,1.9,1.1c0.4,0.2,0.2,0.3,0.3,0.4c0,0.2,0.1,0.3,0.2,0.5c0.1,0.1,0.3,0.4,0.4,0.5c0,0,0-0.1,0-0.2
			c-0.2-0.1-0.3-0.3-0.3-0.5c0-0.2,0.2-0.3,0.4-0.1c0.2,0.1,0.4,0.4,0.4,0.6c0,0.2-0.1,0.2-0.3,0.2c0,0.1,0,0.2,0,0.2
			c0.1,0,0.3,0,0.4,0c0.1-0.1,0.2-0.2,0.2-0.3c0-0.1,0-0.3,0.3-0.1C12.4,21,12.7,21.3,13.5,21.6z M10.8,24.2c0,0.4,0,0.9,0,1.4
			C11.7,25.3,11.2,24.7,10.8,24.2L10.8,24.2 M10,24.5c0.1,0.3,0.2,0.6,0.4,0.9c0-0.5,0-0.9,0-1.4l0,0C10.2,24,9.9,24,10,24.5
			 M11.5,22.4c0-0.1-0.2-0.3-0.2-0.2c0,0,0,0.1,0.1,0.2C11.4,22.4,11.4,22.4,11.5,22.4C11.4,22.5,11.5,22.5,11.5,22.4 M9.9,21.4
			C9.8,21.4,9.8,21.4,9.9,21.4c-0.1,0.1,0,0.2,0,0.2c0,0,0,0,0.1,0c0.1,0,0.1,0,0.1-0.1C10,21.5,10,21.4,9.9,21.4
			C9.9,21.4,9.9,21.4,9.9,21.4" class="colorff413c svgShape"></path></g></svg>