<svg xmlns="http://www.w3.org/2000/svg" viewBox="0 0 52 52" id="DataMonitoring"><path fill="#010001" d="m29.79 39.315-.01 1.41-9.16 5.32-4.69-2.73c-1.27-.74-2.3-2.51-2.29-3.97l.01-3.66 1.23.71 9.15-5.33v3.67c0 .67.47 1.51 1.06 1.84l4.7 2.74z" class="color111d33 svgShape"></path><path fill="#f4f6f8" d="m20.627 44.636 9.16-5.324-.004 1.412-9.16 5.323z" class="color1d2943 svgShape"></path><path fill="#6822a2" d="m29.786 39.316-9.158 5.32-4.694-2.737c-.59-.338-1.066-1.16-1.066-1.845l.009-3.657 9.158-5.329-.008 3.666c0 .675.476 1.507 1.065 1.845l4.694 2.737z" class="color4c5c75 svgShape"></path><path fill="#010001" d="m14.876 36.394-.01 3.661c-.002.68.478 1.505 1.064 1.844l4.697 2.737-.004 1.411-4.697-2.737c-1.267-.731-2.292-2.508-2.288-3.964l.01-3.661 1.228.709z" class="color111d33 svgShape"></path><path fill="#f4f6f8" d="M33.16 26.835c.01 1.15-.8 2.55-1.8 3.13L6.55 44.315c-.57.34-1.09.31-1.42.02.04.04.09.08.14.11l-2.7-1.57c-.33-.19-.53-.59-.53-1.16L2 20.855c-.01-1.15.8-2.55 1.8-3.13l24.81-14.35c.5-.3.95-.32 1.28-.13l2.7 1.57c.33.18.53.59.53 1.16l.04 20.86z" class="color1d2943 svgShape"></path><path fill="#6822a2" d="M2 20.852c-.007-1.149.804-2.546 1.8-3.127L28.605 3.37c.504-.294.957-.32 1.29-.128l2.7 1.57c-.333-.191-.786-.166-1.29.122L6.499 19.295c-.995.574-1.806 1.979-1.8 3.128l.039 20.86c.006.575.204.97.53 1.162l-2.7-1.57c-.326-.186-.524-.588-.524-1.156l-.045-20.867z" class="color4c5c75 svgShape"></path><path fill="#f4f6f8" d="M31.306 4.938c.999-.577 1.812-.113 1.816 1.039l.043 20.861c.003 1.147-.805 2.547-1.804 3.124L6.556 44.319c-.999.577-1.813.113-1.816-1.034l-.043-20.861c-.003-1.152.805-2.552 1.804-3.129L31.306 4.938z" class="color1d2943 svgShape"></path><path fill="#b0bfcf" d="M33.16 24.535v2.3c.01 1.15-.8 2.55-1.8 3.13L6.55 44.315c-.5.29-.95.32-1.28.13l-.11-.07-2.59-1.5c-.33-.19-.53-.59-.53-1.16v-2.3l2.7 1.57 28.42-16.45z" class="colorb0b8cf svgShape"></path><path fill="#b0bfcf" d="m4.738 43.283.002-2.3-2.701-1.571.005 2.307c0 .568.198.97.523 1.156l2.7 1.57c-.325-.192-.523-.587-.53-1.162z" class="colorb0b8cf svgShape"></path><path fill="#e3e9f0" d="M33.165 24.536v2.302c.003 1.147-.805 2.547-1.804 3.124L6.556 44.319c-.999.577-1.813.113-1.816-1.034v-2.302l28.425-16.447z" class="colore3e7f0 svgShape"></path><path fill="#f4f6f8" d="M19.572 33.489c.513-.296.926-.06.928.529.002.589-.41 1.3-.922 1.596-.512.296-.926.06-.928-.528-.001-.589.41-1.301.922-1.597z" class="color1d2943 svgShape"></path><path fill="#ffffff" d="M32.272 24.096 5.61 39.528l-.027-17.105c-.009-.836.634-1.946 1.356-2.368L31.744 5.697c.203-.114.326-.123.37-.123.053.018.123.132.123.405l.035 18.117z" class="colorffffff svgShape"></path><path fill="#5aa0e7" d="m8.275 20.663.018 7.642-1.431.826-.018-7.642z" class="color78e75a svgShape"></path><path fill="#6cb5ff" d="m10.804 20.364.015 6.482-1.436.83-.015-6.482z" class="colorffd06c svgShape"></path><path fill="#968ffe" d="m13.328 19.863.012 5.528-1.43.826-.013-5.528z" class="color8fabfe svgShape"></path><path fill="#db60c5" d="m15.858 19.585.009 4.347-1.437.83-.008-4.348z" class="colordba660 svgShape"></path><path fill="#6cb5ff" d="m18.381 18.898.007 3.579-1.431.826-.007-3.579z" class="colorffd06c svgShape"></path><path fill="#f451d6" d="M8.007 29.936c.645-.372 1.157-.066 1.159.66l.001.438c.005 1.751 2.313.426 2.308-1.333v-.139c-.003-.744.516-1.693 1.16-2.065.619-.357 1.144-.056 1.146.667l.002.61c.002.729.523 1.026 1.158.66l.519-.3c.352-.204.633-.692.632-1.096-.002-.75.517-1.693 1.161-2.065l.03-.016c.611-.327 1.114-.046 1.116.683l.009 2.93-11.543 6.663-.012-4.242c-.002-.737.513-1.684 1.154-2.055z" class="colorf45170 svgShape"></path><path fill="#5aa0e7" d="m23.653 23.122.01 3.413-3.023 1.745-.01-3.413z" class="color78e75a svgShape"></path><path fill="#918afd" d="m23.639 18.064.01 3.414-3.023 1.745-.01-3.414z" class="colorb28afd svgShape"></path><path fill="#f451d6" d="m23.624 13.007.01 3.413-3.023 1.745-.009-3.413z" class="colorf45170 svgShape"></path><path fill="#deecfb" d="m31.459 8.868.002.676-6.911 3.99-.001-.676zM29.619 22.034l.002.676-5.036 2.908-.002-.676zM31.488 18.99l.002.676-6.911 3.99-.002-.676zM29.604 16.977l.002.676-5.036 2.907-.002-.676zM31.474 13.926l.001.676-6.91 3.99-.002-.676zM29.59 11.913l.002.676-5.036 2.907-.002-.676z" class="colordedffb svgShape"></path><path fill="#5046e4" d="M36.114 42.045c1.948 1.128 5.11 1.131 7.072 0 1.958-1.131 1.965-2.963.021-4.095-1.944-1.13-5.11-1.13-7.068 0-1.958 1.132-1.969 2.964-.025 4.095z" opacity=".3" class="color57b3fe svgShape"></path><path fill="#f4f6f8" d="M45.73 39.985c0-.89-.58-1.79-1.76-2.47-2.36-1.38-6.21-1.38-8.59-.01-1.36.79-1.92 1.85-1.73 2.88-.02-.12-.06-.25-.06-.37v1.43c.01.89.59 1.78 1.77 2.47 2.36 1.37 6.21 1.37 8.59 0 1.19-.69 1.79-1.6 1.79-2.51l-.01-1.42zm-2.54 2.06c-1.96 1.13-5.13 1.13-7.07 0-.65-.38-1.07-.84-1.28-1.32.22-.49.64-.96 1.3-1.35 1.96-1.13 5.13-1.13 7.07 0 .65.38 1.07.84 1.28 1.32-.22.5-.64.96-1.3 1.35z" class="color1d2943 svgShape"></path><path fill="#f4f6f8" d="m33.59 40.014.004 1.428c.002.894.59 1.787 1.763 2.469 2.364 1.374 6.21 1.375 8.591 0 1.196-.69 1.792-1.596 1.79-2.502l-.004-1.427c.002.905-.595 1.811-1.79 2.501-2.382 1.375-6.227 1.374-8.59 0-1.174-.681-1.762-1.574-1.764-2.469z" class="color1d2943 svgShape"></path><path fill="#f4f6f8" d="m34.665 40.011.004 1.428c-.002-.746.49-1.493 1.476-2.063 1.957-1.13 5.122-1.13 7.066 0 .967.563 1.451 1.298 1.454 2.034l-.005-1.427c-.002-.737-.486-1.472-1.453-2.034-1.944-1.13-5.11-1.13-7.066 0-.986.57-1.478 1.316-1.476 2.062z" class="color1d2943 svgShape"></path><path fill="#6822a2" d="M43.968 37.51c2.364 1.374 2.353 3.6-.024 4.973-2.382 1.375-6.227 1.374-8.59 0-2.362-1.372-2.352-3.6.03-4.974 2.377-1.373 6.222-1.372 8.584 0zm-.782 4.533c1.957-1.13 1.968-2.963.021-4.094-1.944-1.13-5.11-1.13-7.066 0-1.959 1.13-1.97 2.964-.025 4.094 1.946 1.131 5.111 1.131 7.07 0z" class="color4c5c75 svgShape"></path><path fill="#deecfb" d="M35.45 43.515c0 .21-.08.36-.19.43l-.87.51c.03-.02.06-.05.08-.08-.11.15-.32.17-.56.03-.37-.21-.66-.72-.66-1.14 0-.22.08-.38.22-.44l.84-.5c.13-.07.29-.06.48.05.37.21.66.72.66 1.14z" class="colordedffb svgShape"></path><path fill="#f4f6f8" d="M33.444 42.836c.122-.068.29-.059.47.05.369.21.663.72.663 1.143 0 .211-.073.358-.191.427l.87-.512c.118-.07.192-.216.192-.427 0-.422-.29-.933-.658-1.144-.186-.108-.353-.118-.476-.05l-.87.513z" class="colorf3f1fc svgShape"></path><path fill="#deecfb" d="M33.917 42.885c-.37-.214-.665-.045-.666.38-.002.421.292.93.662 1.143.366.212.662.043.663-.378.001-.425-.292-.933-.659-1.145z" class="colordedffb svgShape"></path><path fill="#a50b89" d="M26.098 47.97c.232.536.768.862 1.215.888a.7.7 0 0 0 .17.022c.483 0 .72-.181.896-.278l5.847-4.1a.446.446 0 0 0 .085-.077c.079-.086.114-.17.121-.334.007-.391-.263-.867-.604-1.066-.156-.092-.305-.107-.412-.064l-.028.014-6.53 2.956c-.748.339-1.133 1.263-.76 2.04z" class="coloraa6256 svgShape"></path><path fill="#db60c5" d="M26.098 47.97c.232.536.768.862 1.215.888.744-.068.997-.586 6.558-4.37a.901.901 0 0 0 .085-.07c.078-.086.114-.17.12-.341.008-.384-.262-.86-.603-1.066a.432.432 0 0 0-.085-.036l-6.53 2.956c-.748.339-1.133 1.263-.76 2.04z" class="colordba660 svgShape"></path><path fill="#f93dd7" d="m40.411 27.305-2.69 1.55-2.69-1.56-.03-10.91 2.7-1.56 2.68 1.57z" class="colorf9a83d svgShape"></path><path fill="#f93dd7" d="m35.004 16.384.03 10.912 2.688 1.562-.03-10.912z" class="colorf9a83d svgShape"></path><path fill="#fe1fd5" d="m37.692 17.946.03 10.912 2.693-1.555-.029-10.912z" class="colorfebc1f svgShape"></path><path fill="#6cb5ff" d="m35.004 16.384 2.688 1.562 2.694-1.555-2.688-1.562z" class="colorffd06c svgShape"></path><path fill="#deecfb" d="m45.211 30.085-2.7 1.56-2.68-1.56-.03-8.15 2.69-1.56 2.69 1.56z" class="colordedffb svgShape"></path><path fill="#deecfb" d="m39.797 21.93.029 8.151 2.688 1.562-.029-8.151z" class="colordedffb svgShape"></path><path fill="#e7f1fc" d="m42.485 23.492.029 8.151 2.693-1.555-.029-8.15z" class="colore9e7fc svgShape"></path><path fill="#f4f6f8" d="m39.797 21.93 2.688 1.562 2.693-1.554-2.688-1.563z" class="colorf3f1fc svgShape"></path><path fill="#955ec3" d="m50.001 32.875-2.69 1.55-2.69-1.56-.03-5.41 2.69-1.55 2.69 1.56z" class="color5ec363 svgShape"></path><path fill="#955ec3" d="m44.589 27.458.029 5.408 2.688 1.562-.029-5.408z" class="color5ec363 svgShape"></path><path fill="#a061d5" d="m47.277 29.02.029 5.408 2.693-1.555-.029-5.408z" class="color72d561 svgShape"></path><path fill="#5aa0e7" d="m44.589 27.458 2.688 1.562 2.693-1.555-2.688-1.562z" class="color78e75a svgShape"></path></svg>