<svg xmlns="http://www.w3.org/2000/svg" viewBox="0 0 2000 2000" id="AppDevelopment"><path fill="#f4f6f8" d="m1004.767 1576.566.032 11.568 55.808 32.432-.033-11.568z" class="colorffb839 svgShape"></path><path fill="#88c3ff" d="m1004.767 1576.566 55.807 32.432 425.55-245.691-55.808-32.432z" class="colorffe088 svgShape"></path><path fill="#f4f6f8" d="m1060.575 1608.998.033 11.568 24.725.618-.033-5.531z" class="colorffb839 svgShape"></path><path fill="#f4f6f8" d="m1085.3 1615.653.033 5.531 406.161-234.496-.033-5.532z" class="colorffb839 svgShape"></path><path fill="#69b4ff" d="m1486.124 1363.307-425.549 245.691 24.725 6.655 406.161-234.497z" class="colorffd469 svgShape"></path><path fill="#474e56" d="m1035.11 1559.004 20.246 11.952-5.465 3.232-20.449-11.942zM1081.271 1532.283l35.431 20.651-5.67 3.243-35.227-20.651zM1096.86 1523.376l20.246 11.942-5.668 3.242-20.246-11.941zM1194.244 1490.783l14.981 8.709-5.669 3.233-14.982-8.709-20.448-11.735.202-.207 5.467-3.243zM1220.158 1452.11l20.245 11.952-5.668 3.233-20.448-11.744.202-.198 5.466-3.035zM1235.342 1443.401l35.43 20.453-5.668 3.243-35.229-20.453zM1050.497 1550.107l35.228 20.641-5.668 3.243-35.228-20.652zM1019.723 1567.921l20.449 11.744-5.668 3.44-20.449-11.952zM1065.884 1541.19l20.449 11.952-5.67 3.232-20.448-11.942zM1112.247 1514.469l35.227 20.453-5.668 3.441-35.227-20.651zM1127.634 1505.562l20.246 11.942-5.467 3.242-20.447-11.941zM1143.021 1496.655l35.228 20.651-5.669 3.233-35.228-20.444zM1158.408 1487.748l20.448 11.942-5.669 3.242-20.448-11.951zM1189.384 1469.924l20.044 11.952-5.467 3.233-20.246-11.735 5.467-3.242zM1204.771 1461.017l35.026 20.651-5.67 3.243-35.227-20.453.202-.198 5.466-3.035zM1358.841 1372.145l35.229 20.444-5.67 3.242-35.227-20.453zM1312.479 1398.866l20.448 11.744-5.669 3.441-20.448-11.952zM1281.704 1416.68l20.246 11.952-5.465 3.035-20.449-11.744zM1266.319 1425.587l35.227 20.454-5.669 3.232-35.025-20.443zM1297.092 1407.773l35.227 20.444-5.668 3.242-35.228-20.443zM1327.865 1389.959l35.431 20.444-5.67 3.242-35.227-20.443zM1389.615 1354.321l35.228 20.454-5.669 3.44-35.227-20.651zM1405.002 1345.414l20.449 11.942-5.67 3.243-20.448-11.942zM1455.819 1356.961l-5.669 3.232-35.228-20.443 5.467-3.243zM1250.932 1434.494l20.245 11.744-5.669 3.243-20.246-11.744zM1343.455 1381.052l20.246 11.734-5.669 3.451-20.246-11.952zM1374.228 1363.228l20.449 11.745-5.669 3.242-20.448-11.744z" class="color474756 svgShape"></path><path fill="#0c2340" d="M1189.342 397.134c9.529 5.502 17.207 18.801 17.176 29.75-.015 5.442-1.969 9.272-5.089 11.05-3.12 1.78-7.434 1.521-12.199-1.23l-116.201-67.089c-9.5-5.485-17.178-18.784-17.147-29.701.016-5.474 1.969-9.304 5.061-11.098 3.12-1.778 7.434-1.521 12.199 1.23l116.2 67.088z" class="color26262e svgShape"></path><path fill="#5e5466" d="M1268.478 436.8c36.29 20.952 65.636 71.782 65.518 113.481l-2.127 750.099c-.118 41.732-29.656 58.532-65.946 37.58l-266.066-153.613c-36.318-20.968-65.636-71.749-65.518-113.481l2.127-750.099c.118-41.699 29.628-58.548 65.946-37.58L1268.478 436.8zm49.07 855.312 2.127-750.099c.092-32.62-22.856-72.367-51.243-88.756l-25.22-14.561c-2.555-1.286-4.219-1.561-5.637-1.295-3.361 1.635-4.461 3.733-4.57 6.703-.044 12.195-8.16 17.126-18.279 11.781l-158.021-91.212c-10.599-6.421-18.739-20.519-18.963-32.285.014-7.058-4.536-14.938-10.156-18.183l-25.22-14.561c-28.387-16.389-51.486-3.227-51.578 29.392l-2.126 750.099c1.026 18.785 5.882 33.86 13.374 47.64a124.564 124.564 0 0 0 11.089 16.964c6.034 7.75 12.895 14.582 20.241 19.901a76.075 76.075 0 0 0 3.151 2.166 71.438 71.438 0 0 0 3.388 2.084l266.066 153.613c20.318 11.125 36.771 8.209 45.322-4.904 4.276-7.279 6.228-15.071 6.255-24.487" class="color545466 svgShape"></path><path fill="#c2e0ff" d="M1268.431 453.257c28.387 16.389 51.335 56.136 51.243 88.755l-2.127 750.1c-.027 9.416-1.979 17.209-5.425 23.138-3.208 4.989-6.193 7.842-9.671 9.847-9.052 5.192-21.43 4.651-35.087-2.809L999.903 1167.89a76.724 76.724 0 0 1-6.538-4.251c-7.346-5.319-14.204-12.148-20.241-19.901a124.676 124.676 0 0 1-11.09-16.965 124.49 124.49 0 0 1-7.517-16.709c-3.155-8.77-5.172-17.676-5.711-26.189l1.981-754.84c.092-32.619 23.191-45.781 51.578-29.392l25.22 14.561c5.62 3.245 10.17 11.125 10.152 17.615.229 12.333 8.368 26.432 18.477 32.562l157.66 91.032c10.971 5.816 19.086.885 19.12-10.863.053-1.364.209-2.152.408-2.916.231-.72.518-1.343.863-1.866 4.911-2.563 6.472-2.312 8.184-1.478l25.982 14.967z" class="colorc2ecff svgShape"></path><path fill="#dce6f1" d="m1387.514 519.175-2.1 750.073c-.045 20.734-7.373 35.344-19.169 42.182l-53.532 31.1c11.797-6.836 19.08-21.404 19.17-42.138l2.1-750.117c.134-41.691-29.224-92.541-65.507-113.454l-266.052-153.625c-18.276-10.547-34.854-11.529-46.785-4.604l53.532-31.1c11.975-6.925 28.509-5.987 46.785 4.604l266.051 153.579c36.283 20.958 65.641 71.809 65.507 113.5z" class="colordce8f1 svgShape"></path><path fill="#4c545e" d="M1365.291 661.867c2.572-1.485 4.906-1.633 6.596-.664 1.689.956 2.74 3.033 2.748 5.988l.097 38.738c.017 5.91-4.139 13.109-9.283 16.079-5.144 2.97-9.321.582-9.338-5.328l-.097-38.738c-.017-5.909 4.134-13.105 9.277-16.075z" class="color4c4c5e svgShape"></path><path fill="#6822a2" d="m1348.313 635.18-.09-38.751c-.018-5.912 4.127-13.098 9.276-16.067 2.566-1.48 4.907-1.633 6.594-.673l7.589 4.414c-1.695-.96-4.028-.816-6.594.673-5.149 2.969-9.294 10.156-9.285 16.067l.099 38.742c.009 2.934 1.05 4.997 2.718 5.975l-7.589-4.414c-1.668-.969-2.708-3.032-2.718-5.966zm23.576 26.025c-1.695-.969-4.028-.825-6.603.664-5.141 2.969-9.294 10.164-9.276 16.076l.099 38.733c.009 2.942 1.05 5.005 2.718 5.984l-7.59-4.414c-1.669-.969-2.709-3.041-2.718-5.975l-.09-38.742c-.018-5.912 4.127-13.107 9.276-16.077 2.566-1.48 4.907-1.632 6.594-.664l7.59 4.415z" class="color616173 svgShape"></path><path fill="#4c545e" d="M1365.085 584.772c2.572-1.485 4.906-1.633 6.596-.67 1.69.963 2.74 3.033 2.748 5.988l.097 38.745c.017 5.903-4.14 13.102-9.283 16.072s-9.321.582-9.338-5.321l-.097-38.745c-.016-5.91 4.134-13.099 9.277-16.069z" class="color4c4c5e svgShape"></path><path fill="#474e56" d="M1166.933 397.555c3.759 2.17 6.787 7.416 6.775 11.735-.006 2.147-.777 3.658-2.008 4.359-1.231.702-2.932.6-4.812-.485l-70.496-40.904c-3.748-2.164-6.776-7.41-6.764-11.716.006-2.159.777-3.67 1.996-4.378 1.231-.701 2.932-.6 4.812.485l70.497 40.904zM1207.713 422.635c4.143 2.392 7.481 8.203 7.468 12.936-.014 4.761-3.374 6.675-7.517 4.283-4.118-2.378-7.482-8.174-7.468-12.935.014-4.733 3.399-6.662 7.517-4.284zm-20.468-11.817c4.143 2.392 7.482 8.203 7.468 12.936-.013 4.761-3.374 6.675-7.517 4.283s-7.482-8.174-7.468-12.935c.014-4.733 3.374-6.676 7.517-4.284zM1076.142 341.773c4.143 2.392 7.481 8.203 7.468 12.936-.014 4.761-3.374 6.675-7.517 4.283-4.118-2.378-7.481-8.174-7.468-12.935.013-4.732 3.398-6.662 7.517-4.284zm-20.468-11.817c4.143 2.392 7.481 8.203 7.468 12.936-.013 4.761-3.374 6.675-7.517 4.283-4.143-2.392-7.482-8.174-7.468-12.935.013-4.732 3.374-6.676 7.517-4.284z" class="color474756 svgShape"></path><path fill="#4c545e" d="M1048.665 547.899c-1.458 0-2.944-.431-4.417-1.281l-67.142-38.765c-4.342-2.507-7.607-8.169-7.594-13.171l.219-77.142c.013-4.561 2.836-7.748 6.865-7.748 1.458 0 2.943.431 4.414 1.28l67.142 38.764c4.343 2.508 7.607 8.17 7.593 13.171l-.219 77.141c-.012 4.563-2.834 7.751-6.861 7.751z" class="color4c4c5e svgShape"></path><path fill="#6f66f1" d="m1051.398 463.044-.213 77.137c-.013 1.82-.653 3.114-1.695 3.716l-20.351 11.827c1.042-.603 1.682-1.883 1.695-3.716l.214-77.137c.013-3.679-2.574-8.161-5.763-10.006l-67.144-38.757c-1.607-.929-3.063-1.017-4.118-.402l20.352-11.827c1.055-.615 2.511-.527 4.118.389l67.144 38.77c3.188 1.846 5.774 6.328 5.761 10.006z" class="colorbf66f1 svgShape"></path><path fill="#85b2df" d="M1025.28 464.866c3.198 1.846 5.779 6.326 5.769 10.001l-.219 77.141c-.01 3.675-2.608 5.165-5.806 3.318l-67.141-38.764c-3.19-1.842-5.779-6.326-5.768-10.001l.219-77.141c.01-3.675 2.616-5.16 5.806-3.318l67.14 38.764z" class="colordf85de svgShape"></path><path fill="#4c545e" d="M1048.665 696.363c-1.458 0-2.944-.431-4.417-1.281l-67.142-38.765c-4.342-2.507-7.607-8.169-7.594-13.171l.219-77.142c.013-4.561 2.836-7.748 6.865-7.748 1.458 0 2.943.431 4.414 1.28l67.142 38.764c4.343 2.508 7.607 8.17 7.593 13.171l-.219 77.141c-.012 4.563-2.834 7.751-6.861 7.751z" class="color4c4c5e svgShape"></path><path fill="#ea3dcb" d="m1051.398 611.508-.213 77.137c-.013 1.82-.653 3.114-1.695 3.716l-20.351 11.827c1.042-.603 1.682-1.883 1.695-3.716l.214-77.137c.013-3.679-2.574-8.161-5.763-10.006l-67.144-38.757c-1.607-.929-3.063-1.017-4.118-.402l20.352-11.827c1.055-.615 2.511-.527 4.118.389l67.144 38.77c3.188 1.846 5.774 6.328 5.761 10.006z" class="colorea3d5b svgShape"></path><path fill="#ff6ce4" d="M1025.28 613.33c3.198 1.846 5.779 6.326 5.769 10.001l-.219 77.141c-.01 3.675-2.608 5.164-5.806 3.318l-67.141-38.764c-3.19-1.842-5.779-6.326-5.768-10.001l.219-77.141c.01-3.675 2.616-5.16 5.806-3.318l67.14 38.764z" class="colorff6c85 svgShape"></path><path fill="#ffffff" d="M1023.073 648.85c-.06.504-.149.992-.268 1.428l3.297 5.272-3 3.522-4.003-4.467a4.09 4.09 0 0 1-1.144.249l.249 5.196-5.33-1.764-1.508-5.654a18.764 18.764 0 0 1-1.345-1.08l-2.937 2.11-4.556-6.066 1.857-3.542a18.193 18.193 0 0 1-.786-1.768l-4.391-2.198-1.094-6.796 4.16.651c.06-.504.12-.975.238-1.412l-3.297-5.271 3.029-3.506 4.003 4.433c.352-.134.733-.183 1.115-.232l-.249-5.23 5.359 1.814 1.479 5.637c.468.304.907.692 1.375 1.097l2.937-2.11 4.555 6.065-1.886 3.525c.292.573.554 1.162.786 1.768l4.391 2.198 1.094 6.796-4.13-.665zm-6.764-2.591c1.353-1.543.776-4.975-1.239-7.687-.736-.978-1.565-1.723-2.388-2.198-1.429-.825-2.834-.832-3.674.18-1.323 1.56-.776 4.974 1.238 7.687.73.971 1.553 1.708 2.369 2.179 1.437.829 2.85.834 3.694-.161m-19.895 7.712c-.09.723-.209 1.429-.387 2.067l4.902 7.849-4.47 5.267-5.961-6.641c-.528.201-1.115.299-1.701.365l.388 7.769-7.965-2.679-2.233-8.396c-.673-.456-1.346-1.013-2.018-1.603l-4.376 3.166-6.804-9.081 2.799-5.255a31.663 31.663 0 0 1-1.165-2.626l-6.556-3.314-1.642-10.109 6.211.959c.061-.74.209-1.395.358-2.084l-4.902-7.849 4.5-5.25 5.961 6.641c.528-.167 1.085-.316 1.672-.348l-.388-7.802 7.965 2.679 2.262 8.413a26.059 26.059 0 0 1 1.989 1.62l4.406-3.148 6.775 9.065-2.8 5.254c.437.859.845 1.734 1.165 2.592l6.557 3.314 1.642 10.109-6.184-.944zm-10.043-3.879c1.971-2.331 1.135-7.462-1.873-11.455-1.102-1.475-2.343-2.592-3.57-3.301-2.121-1.225-4.201-1.228-5.449.249-2 2.315-1.164 7.445 1.843 11.471 1.095 1.455 2.328 2.559 3.549 3.264 2.132 1.232 4.229 1.244 5.5-.228" class="colorffffff svgShape"></path><path fill="#4c545e" d="M1048.665 844.827c-1.458 0-2.944-.431-4.417-1.281l-67.142-38.765c-4.342-2.507-7.607-8.169-7.594-13.17l.219-77.142c.013-4.561 2.836-7.748 6.865-7.748 1.458 0 2.943.431 4.414 1.28l67.142 38.764c4.343 2.508 7.607 8.17 7.593 13.171l-.219 77.141c-.012 4.562-2.834 7.75-6.861 7.75z" class="color4c4c5e svgShape"></path><path fill="#f4f6f8" d="m1051.398 759.972-.213 77.137c-.013 1.82-.653 3.114-1.695 3.716l-20.351 11.827c1.042-.603 1.682-1.883 1.695-3.716l.214-77.137c.013-3.679-2.574-8.161-5.763-10.006l-67.144-38.757c-1.607-.929-3.063-1.017-4.118-.402l20.352-11.827c1.055-.615 2.511-.527 4.118.389l67.144 38.77c3.188 1.846 5.774 6.328 5.761 10.006z" class="colorffb839 svgShape"></path><path fill="#88c3ff" d="M1025.28 761.794c3.198 1.847 5.779 6.326 5.769 10.001l-.219 77.141c-.01 3.675-2.608 5.164-5.806 3.318l-67.141-38.764c-3.19-1.842-5.779-6.326-5.768-10.001l.219-77.141c.01-3.675 2.616-5.16 5.806-3.318l67.14 38.764z" class="colorffe088 svgShape"></path><path fill="#4c545e" d="M1048.665 993.291c-1.458 0-2.944-.431-4.417-1.281l-67.142-38.765c-4.342-2.507-7.607-8.169-7.594-13.17l.219-77.142c.013-4.561 2.836-7.748 6.865-7.748 1.458 0 2.943.431 4.414 1.28l67.142 38.764c4.343 2.508 7.607 8.17 7.593 13.171l-.219 77.141c-.012 4.562-2.834 7.75-6.861 7.75z" class="color4c4c5e svgShape"></path><path fill="#7bbdff" d="m1051.398 908.436-.213 77.137c-.013 1.82-.653 3.114-1.695 3.716l-20.351 11.827c1.042-.603 1.682-1.883 1.695-3.716l.214-77.137c.013-3.679-2.574-8.161-5.763-10.006L958.141 871.5c-1.607-.929-3.063-1.017-4.118-.402l20.352-11.827c1.055-.615 2.511-.527 4.118.389l67.144 38.769c3.188 1.847 5.774 6.329 5.761 10.007z" class="colorff7bba svgShape"></path><path fill="#9fcfff" d="M1025.28 910.258c3.198 1.847 5.779 6.326 5.769 10.001l-.219 77.141c-.01 3.675-2.608 5.165-5.806 3.318l-67.141-38.764c-3.19-1.842-5.779-6.326-5.768-10.001l.219-77.141c.01-3.675 2.616-5.16 5.806-3.318l67.14 38.764z" class="colorff9fd1 svgShape"></path><path fill="#ffffff" d="M992.618 904.722c10.108 5.836 18.282 19.995 18.249 31.622-.033 11.614-17.508 30.435-18.428 31.426-.911-2.048-18.222-40.953-18.189-52.567.033-11.628 8.249-16.323 18.368-10.481zm-.095 33.329c6.238 3.601 11.314.736 11.334-6.432.02-7.167-5.023-15.902-11.26-19.504-6.238-3.601-11.314-.709-11.334 6.459-.02 7.167 5.023 15.876 11.26 19.477" class="colorffffff svgShape"></path><path fill="#4c545e" d="M1168.125 616.952c-1.458 0-2.944-.431-4.417-1.281l-67.142-38.765c-4.342-2.507-7.607-8.169-7.594-13.17l.219-77.142c.013-4.561 2.836-7.748 6.865-7.748 1.458 0 2.943.431 4.414 1.28l67.142 38.764c4.343 2.508 7.607 8.17 7.593 13.171l-.219 77.141c-.013 4.562-2.834 7.75-6.861 7.75z" class="color4c4c5e svgShape"></path><path fill="#2e25b8" d="m1170.858 532.097-.213 77.137c-.013 1.82-.653 3.114-1.695 3.716l-20.352 11.827c1.042-.603 1.682-1.883 1.695-3.716l.214-77.137c.012-3.679-2.574-8.161-5.763-10.006l-67.144-38.757c-1.607-.929-3.063-1.017-4.118-.402l20.351-11.827c1.055-.615 2.511-.527 4.118.389l67.144 38.77c3.19 1.846 5.776 6.328 5.763 10.006z" class="color255bb8 svgShape"></path><path fill="#5046e4" d="M1144.74 533.919c3.198 1.847 5.779 6.326 5.769 10.001l-.219 77.141c-.01 3.675-2.608 5.165-5.806 3.318l-67.141-38.764c-3.19-1.842-5.779-6.326-5.769-10.001l.219-77.141c.01-3.675 2.616-5.16 5.806-3.318l67.141 38.764z" class="color5576db svgShape"></path><path fill="#4c545e" d="M1168.125 1062.344c-1.458 0-2.944-.431-4.417-1.281l-67.142-38.765c-4.342-2.507-7.607-8.169-7.594-13.171l.219-77.142c.013-4.561 2.836-7.748 6.865-7.748 1.458 0 2.943.431 4.414 1.28l67.142 38.764c4.343 2.508 7.607 8.17 7.593 13.171l-.219 77.141c-.013 4.563-2.834 7.751-6.861 7.751z" class="color4c4c5e svgShape"></path><path fill="#2e25b8" d="m1170.858 977.489-.213 77.137c-.013 1.821-.653 3.114-1.695 3.716l-20.352 11.827c1.042-.603 1.682-1.883 1.695-3.716l.214-77.137c.012-3.679-2.574-8.161-5.763-10.006l-67.144-38.757c-1.607-.929-3.063-1.017-4.118-.402l20.351-11.827c1.055-.615 2.511-.527 4.118.389l67.144 38.77c3.19 1.846 5.776 6.328 5.763 10.006z" class="color255bb8 svgShape"></path><path fill="#5046e4" d="m1150.518 989.323-.177 57.521-.051 19.613c0 3.674-2.61 5.169-5.803 3.32l-67.151-38.77c-3.193-1.85-5.777-6.335-5.752-10.009l.025-10.288.177-66.847c.025-3.674 2.61-5.169 5.803-3.32l67.151 38.77c3.194 1.851 5.778 6.336 5.778 10.01z" class="color5576db svgShape"></path><path fill="#4c545e" d="M1287.584 686.005c-1.458 0-2.944-.431-4.417-1.281l-67.142-38.765c-4.342-2.507-7.607-8.169-7.594-13.17l.219-77.142c.012-4.561 2.836-7.748 6.865-7.748 1.458 0 2.943.431 4.414 1.28l67.142 38.764c4.343 2.508 7.607 8.17 7.593 13.171l-.219 77.141c-.012 4.562-2.833 7.75-6.861 7.75z" class="color4c4c5e svgShape"></path><path fill="#7b75d1" d="m1290.318 601.15-.213 77.137c-.013 1.82-.653 3.114-1.695 3.716l-20.351 11.827c1.042-.603 1.682-1.883 1.695-3.716l.214-77.137c.013-3.679-2.574-8.161-5.763-10.006l-67.143-38.757c-1.607-.929-3.063-1.017-4.118-.402l20.352-11.827c1.055-.615 2.511-.527 4.118.389l67.144 38.77c3.186 1.846 5.773 6.328 5.76 10.006z" class="color75d178 svgShape"></path><path fill="#94c0ed" d="M1264.2 602.972c3.198 1.846 5.779 6.326 5.769 10.001l-.219 77.141c-.01 3.675-2.608 5.165-5.806 3.318l-67.141-38.764c-3.19-1.842-5.779-6.326-5.769-10.001l.219-77.141c.01-3.675 2.616-5.16 5.806-3.318l67.141 38.764z" class="color94ed96 svgShape"></path><path fill="#4c545e" d="M1287.584 1131.397c-1.458 0-2.944-.431-4.417-1.281l-67.142-38.765c-4.342-2.507-7.607-8.169-7.594-13.171l.219-77.142c.012-4.561 2.836-7.748 6.865-7.748 1.458 0 2.943.431 4.414 1.28l67.142 38.764c4.343 2.508 7.607 8.17 7.593 13.171l-.219 77.141c-.012 4.563-2.833 7.751-6.861 7.751z" class="color4c4c5e svgShape"></path><path fill="#7b75d1" d="m1290.318 1046.542-.213 77.137c-.013 1.821-.653 3.114-1.695 3.716l-20.351 11.827c1.042-.603 1.682-1.883 1.695-3.716l.214-77.137c.013-3.679-2.574-8.161-5.763-10.006l-67.143-38.757c-1.607-.929-3.063-1.017-4.118-.402l20.352-11.827c1.055-.615 2.511-.527 4.118.389l67.144 38.77c3.186 1.846 5.773 6.328 5.76 10.006z" class="color75d178 svgShape"></path><path fill="#94c0ed" d="M1264.2 1048.364c3.198 1.847 5.779 6.326 5.769 10.001l-.219 77.141c-.01 3.675-2.608 5.164-5.806 3.318l-67.141-38.764c-3.19-1.842-5.779-6.326-5.769-10.001l.219-77.141c.01-3.675 2.616-5.16 5.806-3.318l67.141 38.764z" class="color94ed96 svgShape"></path><path fill="#ffffff" d="M1220.754 1046.955c.361.208.731.539 1.071.99l27.873 37.116c1.206 1.57 1.2 3.539-.01 3.681l-27.993 4.896c-.336.048-.699-.051-1.054-.256-1.013-.585-1.951-2.03-1.948-3.322l.119-42.01c.004-1.306.936-1.675 1.942-1.095z" class="colorffffff svgShape"></path><path fill="#4c545e" d="M1287.584 1279.861c-1.458 0-2.944-.431-4.417-1.281l-67.142-38.765c-4.342-2.507-7.607-8.169-7.594-13.171l.219-77.142c.012-4.561 2.836-7.748 6.865-7.748 1.458 0 2.943.431 4.414 1.28l67.142 38.764c4.343 2.508 7.607 8.17 7.593 13.171l-.219 77.141c-.012 4.563-2.833 7.751-6.861 7.751z" class="color4c4c5e svgShape"></path><path fill="#6f66f1" d="m1290.318 1195.006-.213 77.137c-.013 1.821-.653 3.114-1.695 3.716l-20.351 11.827c1.042-.603 1.682-1.883 1.695-3.716l.214-77.137c.013-3.679-2.574-8.161-5.763-10.006l-67.143-38.757c-1.607-.929-3.063-1.017-4.118-.402l20.352-11.827c1.055-.615 2.511-.527 4.118.389l67.144 38.77c3.186 1.846 5.773 6.328 5.76 10.006z" class="colorbf66f1 svgShape"></path><path fill="#85b2df" d="M1264.2 1196.828c3.198 1.847 5.779 6.326 5.769 10.001l-.219 77.141c-.01 3.675-2.608 5.165-5.806 3.318l-67.141-38.764c-3.19-1.842-5.779-6.326-5.769-10.001l.219-77.141c.01-3.675 2.616-5.16 5.806-3.318l67.141 38.764z" class="colordf85de svgShape"></path><path fill="#ffffff" d="M1225.75 1244.298c2.205 1.278 3.976 4.317 3.998 6.867.026 2.577-1.777 3.637-4.016 2.354-2.279-1.316-4.03-4.339-4.022-6.933.007-2.61 1.764-3.607 4.04-2.288zm30.417-22.81c1.739 1.014 2.458 2.415 2.094 4.193-.666 3.207-1.376 6.378-2.067 9.571-.904 4.175-1.803 8.357-2.707 12.537-.259 1.16-.516 1.249-1.703.564-9.74-5.614-19.48-11.247-29.216-16.853-.495-.286-1.006-.562-1.472-.679-.961-.237-1.529.521-1.392 1.692.137 1.118.816 2.098 1.916 2.738l31.635 18.279c1.187.704 1.939 2.087 1.918 3.423-.016 1.338-.798 1.793-1.985 1.112l-31.479-18.117c-3.992-2.302-7.157-8.725-5.15-12.637.212-.419.461-.849.829-1.035.62-.32.581-1.031.427-1.983-1.144-7.174-2.242-14.327-3.378-21.491a980.99 980.99 0 0 0-2.082-12.621c-.081-.479-.393-1.128-.718-1.581-3.187-4.421-6.403-8.811-9.603-13.23-1.209-1.666-1.463-3.829-.577-4.603.356-.307.809-.323 1.282-.05.302.174.612.466.912.875a3691.974 3691.974 0 0 1 11.375 15.633c.218.301.386.764.447 1.103a875.21 875.21 0 0 1 1.444 9.022c.251 1.62.235 1.616 1.578 2.391l34.285 19.79c.322.19.643.377.965.563l.964.556c.486.276.972.557 1.458.838zm-2.442 6.711c.234-1.094.456-2.189.712-3.422-.581-.335-1.135-.659-1.674-.97a75.004 75.004 0 0 0-1.978-1.11c-.144-.078-.372.141-.41.342-.395 2.268-.76 4.547-1.146 6.819-.086.492.033.84.537 1.131l.038.022c.4.216.802.44 1.202.671a38.695 38.695 0 0 1 1.183.708c.468.27.638.097.729-.392.234-1.292.535-2.532.807-3.799m-34.282-15.247c.032.223.304.664.477.769a57.76 57.76 0 0 0 1.75 1.042l1.51.868c-.42-3.184-.812-6.148-1.225-9.114-.032-.204-.262-.621-.407-.709a91.5 91.5 0 0 0-1.963-1.16c-.491-.284-.984-.565-1.478-.851-.03.234-.067.341-.051.469.454 2.89.904 5.779 1.387 8.686m5.706 1.548c.315 2.454.303 2.447 2.339 3.623.255.148.511.291.768.439a32.15 32.15 0 0 1 .43.253c.385.222.548.131.506-.382-.211-2.641-.398-5.273-.638-7.926-.02-.258-.32-.83-.501-.944a61.465 61.465 0 0 0-1.942-1.161c-.612-.353-1.244-.712-1.912-1.098.339 2.555.659 4.884.95 7.196m21.013 14.423c.551.318.745.107.824-.487.152-1.16.382-2.265.563-3.409.198-1.248.375-2.511.581-3.911-.685-.395-1.337-.75-1.975-1.119a26.406 26.406 0 0 1-1.31-.801 3.132 3.132 0 0 0-.162-.1c-.663-.383-.927-.165-.983.578a578.575 578.575 0 0 1-.552 6.755c-.042.514.122.811.557 1.062l.031.017c.43.238.859.472 1.288.72.34.196.679.401 1.02.622.041.027.081.052.118.073m-22.73-1.519c.451.26.917.525 1.409.809-.416-3.182-.812-6.186-1.225-9.185-.028-.192-.234-.567-.357-.643a81.291 81.291 0 0 0-1.825-1.08c-.467-.27-.945-.543-1.443-.831.527 3.274 1.006 6.302 1.514 9.342.036.206.283.6.44.7.49.307.98.595 1.487.888m27.411 14.123c.448-2.08.891-4.168 1.385-6.459-.649-.375-1.239-.708-1.808-1.036a65.795 65.795 0 0 1-1.091-.642c-.477-.275-.682-.154-.756.375-.261 1.813-.576 3.596-.858 5.397-.101.649-.169 1.321-.266 2.114.513.296.982.548 1.434.809.271.156.536.316.8.49.054.036.105.068.155.096.552.318.826.181.866-.479.018-.242.093-.445.139-.665m-15.658-26.888c.037-.742-.204-1.136-.789-1.474a3.976 3.976 0 0 0-.115-.063c-.44-.227-.88-.471-1.321-.725-.466-.269-.933-.55-1.4-.831l-.078-.046c-.503-.29-.698-.215-.633.509.224 2.516.403 5.015.557 7.499.042.63.208 1.009.721 1.305l.077.042a32.376 32.376 0 0 1 2.226 1.285l.084.051c.47.271.658.144.648-.449-.026-1.22-.002-2.406.006-3.602.002-1.17-.036-2.364.017-3.501m10.39 22.333c.277-1.695.546-3.399.841-5.241-.509-.294-.997-.579-1.471-.853a55.614 55.614 0 0 0-1.74-.972c-.14-.071-.372.151-.389.349-.238 2.41-.435 4.844-.66 7.261-.042.45.083.751.5.991l.026.015.119.067c.168.097.338.202.508.304.146.088.291.175.436.259.252.145.501.279.747.382.255.1.611-.036.678-.282.198-.701.279-1.508.405-2.28m-4.042-18.909c.042-.483-.09-.811-.566-1.086a91.434 91.434 0 0 1-2.944-1.7c-.493-.285-.611-.047-.608.47.017 1.21-.003 2.404-.006 3.607-.003 1.231.01 2.472-.015 3.692-.009.531.14.883.611 1.156l.05.028c.322.173.645.354.968.541.392.226.785.461 1.176.697l.04.024c.422.243.621.139.662-.325.206-2.369.415-4.744.632-7.104m-12.684 12.462 1.083.622-.414-8.37c-.032-.298-.258-.903-.414-1.003a38.578 38.578 0 0 0-1.622-.982c-.518-.299-1.055-.601-1.626-.931.433 3.205.833 6.231 1.262 9.263.02.168.25.515.386.603.453.279.907.545 1.345.798m11.649-1.039c.102-1.127.094-1.136-.978-1.76-.282-.163-.566-.311-.848-.474a7.597 7.597 0 0 1-.471-.292 2.99 2.99 0 0 0-.146-.091c-.495-.286-.698-.14-.677.527.034 1.191.002 2.34-.002 3.505l-.008 1.324c.003.476-.003.947 0 1.423.019 2.089-.195 1.634 1.582 2.735l.088.053c.604.349.822.183.875-.498.172-2.169.393-4.295.585-6.452m-5.368.189c.004-1.231-.01-2.472.019-3.694.009-.534-.166-.875-.613-1.133l-.065-.036a46.175 46.175 0 0 1-.974-.546c-.363-.21-.728-.426-1.091-.646l-.074-.045c-.443-.256-.604-.136-.555.46.184 2.127.31 4.216.486 6.334.165 1.965.205 2.297 1.328 2.945.236.136.52.287.863.469.507.274.677.153.67-.401-.014-1.242.002-2.476.006-3.707m10.813 26.282c2.287 1.325 4.02 4.347 4.005 6.957-.02 2.565-1.756 3.559-3.986 2.281-2.263-1.307-4.05-4.382-4.047-6.938.003-2.569 1.793-3.59 4.028-2.3z" class="colorffffff svgShape"></path><g fill="#ffffff" class="colorffffff svgShape"><path d="m1091.549 525.108-.011 4.098-5.853-3.38-.101 35.534 5.853 3.379-.012 4.087-9.582-5.532.124-43.718zM1099.141 559.568c1.742 1.006 3.18 3.392 3.175 5.436-.006 2.044-1.444 2.832-3.195 1.821s-3.126-3.434-3.12-5.467c.005-2.023 1.379-2.806 3.14-1.79zm11.886 6.863c1.733 1.001 3.172 3.387 3.166 5.431-.006 2.044-1.444 2.832-3.186 1.826-1.76-1.016-3.135-3.439-3.129-5.472.005-2.023 1.38-2.806 3.149-1.785zm11.878 6.858c1.733 1.001 3.171 3.387 3.166 5.431-.006 2.044-1.444 2.832-3.186 1.826-1.76-1.016-3.135-3.439-3.129-5.472.005-2.024 1.38-2.807 3.149-1.785zM1140.24 553.219l-.124 43.719-9.582-5.532.011-4.088 5.853 3.379.101-35.533-5.853-3.379.012-4.098z" fill="#000000" class="color000000 svgShape"></path></g><g fill="#ffffff" class="colorffffff svgShape"><path d="m1217.687 609.124-.015 5.369-14.458-.848-.001.521 14.414 16.019-.015 5.37-19.28-21.377.017-5.932zM1243.838 617.945l-17.882 33.466-4.11-2.373 17.89-33.461zM1247.994 626.621l19.289 21.424-.017 5.932-19.347-.924.015-5.37 14.458.65.002-.521-14.415-15.821z" fill="#000000" class="color000000 svgShape"></path></g><g fill="#ffffff" class="colorffffff svgShape"><path d="M972.385 468.601c4.328 2.499 7.943 6.424 10.837 11.781l-3.005 2.035c-2.506-4.225-4.58-6.602-7.947-8.546-5.526-3.19-10.012-1.311-10.031 5.415-.019 6.704 4.477 14.063 9.604 17.022 2.867 1.655 4.993 2.047 7.887.606l3.03 5.331c-2.969 2.067-6.567 1.879-10.796-.562-8.321-4.804-14.671-15.248-14.644-25.029.027-9.3 6.082-13.24 15.065-8.053zM997.861 487.633l-.024 8.644 7.64 4.411-.012 4.316-7.64-4.411-.025 8.727-3.603-2.08.025-8.727-7.631-4.405.012-4.317 7.631 4.406.025-8.644zM1020.573 500.746l-.024 8.643 7.64 4.411-.012 4.317-7.641-4.411-.024 8.727-3.603-2.08.025-8.727-7.631-4.406.012-4.316 7.631 4.406.025-8.644z" fill="#000000" class="color000000 svgShape"></path></g><path fill="#ffffff" d="m1150.341 1046.844-.051 19.613c0 3.674-2.61 5.169-5.803 3.32l-67.151-38.77c-3.193-1.85-5.777-6.335-5.752-10.009l.025-10.288c2.281-2.154 4.739-3.776 7.323-5.195.431-.228.862-.456 1.47-.304.228.076.431.152.659.279.963.583 1.926 1.774 2.61 2.838 2.509 4.004 3.7 8.058 5.752 12.112 1.748 3.522 4.688 7.45 7.83 9.274a7.62 7.62 0 0 0 1.394.659c3.041 1.064 4.916-.532 6.487-2.103 6.512-6.487 13.025-12.999 19.537-19.486 1.115-1.09 2.686-2.154 4.84-.938.101.076.203.127.304.203 1.824 1.191 3.066 3.446 4.08 5.423 5.499 10.871 10.973 21.691 16.446 33.372zm-49.799-63.535c4.715 2.722 8.528 9.318 8.512 14.744-.015 5.418-3.853 7.597-8.568 4.875-4.715-2.722-8.528-9.318-8.512-14.736.015-5.426 3.853-7.606 8.568-4.883z" class="colorffffff svgShape"></path><g fill="#ffffff" class="colorffffff svgShape"><path d="M997.017 820.705a6.493 6.493 0 0 1-.085 1.048c-.46 2.766-2.76 3.708-5.532 2.108-2.701-1.559-4.98-5.145-5.423-8.433a8.402 8.402 0 0 1-.079-1.142l11.119 6.419z" fill="#000000" class="color000000 svgShape"></path><path d="M999.879 821.261c.556.321.952 1.052.95 1.645-.002.639-.4.866-.956.545l-2.941-1.698c.054-.325.084-.673.085-1.048l-11.119-6.419c-.001.374.027.756.079 1.142l-2.981-1.721c-.556-.321-.952-1.006-.95-1.645.002-.593.4-.866.956-.545l16.877 9.744zm-8.199-67.375c12.698 7.331 23.114 25.214 23.072 39.993-.023 8.168-3.222 13.954-8.835 15.786-2.19.747-3.985 2.407-5.105 4.868l-.915.157-8.379-4.838c.516.298.954.048.956-.545l.003-1.095 6.83 3.943c1.24-2.437 3.154-4.121 5.463-4.89 5.096-1.72 8.054-7.005 8.076-14.488.039-13.644-9.566-29.995-21.191-36.706a25.097 25.097 0 0 0-4.632-2.106c-8.186-2.761-14.72 1.145-16.295 9.651-1.495 8.141 1.18 18.506 7.2 27.786 2.416 3.725 4.393 7.747 5.694 11.697l6.949 4.012-.003 1.095c-.002.593.394 1.324.95 1.645l-8.498-4.906-.871-1.189c-1.222-3.814-3.081-7.72-5.457-11.378-6.534-10.08-9.485-21.381-7.83-30.252 1.737-9.281 8.869-13.527 17.77-10.536a27.447 27.447 0 0 1 5.048 2.296z" fill="#000000" class="color000000 svgShape"></path><path d="m992.541 785.945-.063 22.267-.003 1.095c-.002.593-.44.843-.956.545-.556-.321-.952-1.052-.95-1.645l.003-1.095.063-22.267 1.906 1.1z" fill="#000000" class="color000000 svgShape"></path><path d="M996.121 785.819c.516.298.951 1.052.95 1.645-.002.639-.44.843-.956.545l-3.574-2.064-1.906-1.1-3.574-2.063c-.516-.298-.952-1.007-.95-1.645.002-.593.44-.843.956-.545l9.054 5.227z" fill="#000000" class="color000000 svgShape"></path></g><path fill="#7bbdff" d="m878.361 1085.483-.08 21.622c0 2.016-1.3 4.006-3.927 5.545l-81.609 47.41c-5.306 3.078-13.902 3.078-19.208 0l-82.139-47.41c-2.706-1.565-4.033-3.581-4.033-5.624l.053-21.623c0 2.016 1.353 4.059 4.033 5.624l82.139 47.411c5.306 3.078 13.902 3.078 19.208 0l81.609-47.411c2.627-1.537 3.927-3.527 3.954-5.544z" class="colorff7bba svgShape"></path><path fill="#f4f6f8" d="M874.343 1079.887c5.319 3.071 5.347 8.059.063 11.13l-81.604 47.423c-5.301 3.081-13.895 3.071-19.214 0l-82.137-47.422c-5.336-3.081-5.381-8.058-.08-11.139l81.604-47.423c5.284-3.071 13.895-3.071 19.231.01l82.137 47.421z" class="colore7f1f7 svgShape"></path><path fill="#7caddf" d="m878.361 1054.497-.08 21.622c0 2.016-1.3 4.006-3.927 5.545l-81.609 47.41c-5.306 3.078-13.902 3.078-19.208 0l-82.139-47.41c-2.706-1.566-4.033-3.581-4.033-5.624l.053-21.623c0 2.016 1.353 4.059 4.033 5.624l82.139 47.411c5.306 3.078 13.902 3.078 19.208 0l81.609-47.411c2.627-1.538 3.927-3.528 3.954-5.544z" class="color7cdf82 svgShape"></path><path fill="#f4f6f8" d="M874.343 1048.901c5.319 3.071 5.347 8.059.063 11.13l-81.604 47.423c-5.301 3.081-13.895 3.071-19.214 0l-82.137-47.422c-5.336-3.08-5.381-8.058-.08-11.139l81.604-47.423c5.284-3.071 13.895-3.071 19.231.01l82.137 47.421z" class="colore7f1f7 svgShape"></path><path fill="#a7ccf2" d="m878.361 1023.511-.08 21.622c0 2.016-1.3 4.006-3.927 5.545l-81.609 47.41c-5.306 3.078-13.902 3.078-19.208 0l-82.139-47.41c-2.706-1.566-4.033-3.581-4.033-5.624l.053-21.623c0 2.016 1.353 4.059 4.033 5.624l82.139 47.411c5.306 3.078 13.902 3.078 19.208 0l81.609-47.411c2.627-1.538 3.927-3.528 3.954-5.544z" class="colorf2c0a7 svgShape"></path><path fill="#f4f6f8" d="M874.343 1017.915c5.319 3.071 5.347 8.059.063 11.13l-81.604 47.423c-5.301 3.081-13.895 3.071-19.214 0l-82.137-47.422c-5.336-3.081-5.381-8.058-.08-11.139l81.604-47.423c5.284-3.071 13.895-3.071 19.231.01l82.137 47.421z" class="colore7f1f7 svgShape"></path><path fill="#1d13ab" d="m806.211 984.511-.03 10.637-2.542 9.319.03-10.637zM752.919 995.718l-.03 10.638-4.784-8.971.03-10.638zM834.533 1003.691l-.03 10.637-13.152 5.448.03-10.637zM738.978 1012.29l-.03 10.637-14.308-4.402.03-10.637z" class="color1352ab svgShape"></path><path fill="#1d13ab" d="m799.937 1013.844-.03 10.637c.009-3.035-2.087-5.939-5.743-8.049-2.029-1.171-4.538-2.099-7.435-2.668-10.267-1.972-21.211 1.13-24.623 7.023-.692 1.19-1.022 2.398-1.026 3.585l.03-10.637c.003-1.188.334-2.396 1.026-3.586 3.412-5.892 14.357-8.995 24.623-7.023 2.897.57 5.406 1.497 7.435 2.668 3.656 2.111 5.751 5.014 5.743 8.05zm22.197-.234-.03 10.637a14.406 14.406 0 0 1-.096 1.614l.03-10.637c.062-.541.094-1.079.096-1.614zm-83.252 10.652.03-10.637c-.005 1.608.261 3.22.807 4.773l-.03 10.637a14.237 14.237 0 0 1-.807-4.773zM831.166 1028.74l-.03 10.637-16.015-1.527.03-10.637z" class="color1352ab svgShape"></path><path fill="#1d13ab" d="m836.388 1019.697-.03 10.637-5.222 9.043.03-10.637zM815.151 1027.213l-.03 10.637c-2.005 1.744-4.279 3.283-6.971 4.606l.03-10.637c2.692-1.323 4.966-2.862 6.971-4.606zM749.477 1029.715l-.03 10.637-15.472 2.742.03-10.638z" class="color1352ab svgShape"></path><path fill="#1d13ab" d="m734.005 1032.456-.03 10.638-7.439-8.611.03-10.637zM757.451 1033.767l-.03 10.637c-2.199-.851-4.212-1.784-6.03-2.833a31.017 31.017 0 0 1-1.945-1.219l.03-10.637c.621.423 1.27.829 1.945 1.219 1.818 1.049 3.831 1.982 6.03 2.833zm31.163 3.655-.03 10.637c-3.382.421-6.91.565-10.441.373l.03-10.637c3.531.193 7.059.049 10.441-.373zM798.124 1045.071l-.03 10.637-9.51-7.648.03-10.638z" class="color1352ab svgShape"></path><path fill="#1d13ab" d="m812.964 1040.79-.03 10.637-14.84 4.281.03-10.637zM778.172 1037.796l-.03 10.637-7.676 8.297.031-10.637z" class="color1352ab svgShape"></path><path fill="#5046e4" d="m808.18 1031.819 4.784 8.971-14.84 4.281-9.51-7.648c-3.382.421-6.91.565-10.441.373l-7.676 8.297-15.63-3.054 2.585-9.272c-2.199-.851-4.212-1.784-6.03-2.833a31.017 31.017 0 0 1-1.945-1.219l-15.472 2.742-7.439-8.61 13.153-5.448a14.29 14.29 0 0 1-.741-6.109l-14.308-4.402 5.263-9.091 16.036 1.491a32.694 32.694 0 0 1 6.95-4.57l-4.784-8.971 14.82-4.269 9.51 7.648c3.382-.421 6.931-.505 10.502-.433l7.552-8.274 15.691 3.091-2.542 9.319a40.621 40.621 0 0 1 6.027 2.83c.638.368 1.253.748 1.842 1.139l15.556-2.718 7.439 8.61-13.153 5.448c.697 1.984.895 4.016.657 6.085l14.351 4.473-5.222 9.043-16.015-1.527c-2.004 1.745-4.278 3.284-6.97 4.607zm-33.84-7.408c10.142 1.996 21.211-1.13 24.603-7.011 2.394-4.218.326-8.676-4.749-11.606-2.029-1.171-4.538-2.098-7.435-2.668-10.267-1.972-21.211 1.13-24.623 7.023-2.447 4.206-.373 8.648 4.695 11.575 2.047 1.181 4.585 2.116 7.509 2.687" class="color5576db svgShape"></path><path fill="#1d13ab" d="m770.497 1046.093-.031 10.637-15.63-3.054.031-10.637z" class="color1352ab svgShape"></path><path fill="#7bbdff" d="m1623.679 1517.57-.08 21.622c0 2.016-1.3 4.006-3.927 5.545l-81.609 47.41c-5.306 3.078-13.902 3.078-19.208 0l-82.139-47.41c-2.706-1.566-4.033-3.581-4.033-5.624l.053-21.623c0 2.016 1.353 4.059 4.033 5.624l82.139 47.411c5.306 3.078 13.902 3.078 19.208 0l81.609-47.411c2.627-1.537 3.927-3.527 3.954-5.544z" class="colorff7bba svgShape"></path><path fill="#f4f6f8" d="M1619.661 1511.974c5.319 3.071 5.347 8.059.063 11.13l-81.604 47.423c-5.301 3.081-13.895 3.071-19.214 0l-82.137-47.422c-5.336-3.081-5.381-8.058-.08-11.139l81.604-47.423c5.284-3.071 13.895-3.071 19.231.01l82.137 47.421z" class="colore7f1f7 svgShape"></path><path fill="#7caddf" d="m1623.679 1486.584-.08 21.622c0 2.016-1.3 4.006-3.927 5.545l-81.609 47.41c-5.306 3.078-13.902 3.078-19.208 0l-82.139-47.41c-2.706-1.565-4.033-3.581-4.033-5.624l.053-21.623c0 2.016 1.353 4.059 4.033 5.624l82.139 47.411c5.306 3.078 13.902 3.078 19.208 0l81.609-47.411c2.627-1.538 3.927-3.528 3.954-5.544z" class="color7cdf82 svgShape"></path><path fill="#f4f6f8" d="M1619.661 1480.988c5.319 3.071 5.347 8.059.063 11.13l-81.604 47.423c-5.301 3.081-13.895 3.071-19.214 0l-82.137-47.422c-5.336-3.081-5.381-8.058-.08-11.139l81.604-47.423c5.284-3.071 13.895-3.071 19.231.01l82.137 47.421z" class="colore7f1f7 svgShape"></path><path fill="#a7ccf2" d="m1623.679 1455.598-.08 21.622c0 2.016-1.3 4.006-3.927 5.545l-81.609 47.41c-5.306 3.078-13.902 3.078-19.208 0l-82.139-47.41c-2.706-1.565-4.033-3.581-4.033-5.624l.053-21.623c0 2.016 1.353 4.059 4.033 5.624l82.139 47.411c5.306 3.078 13.902 3.078 19.208 0l81.609-47.411c2.627-1.538 3.927-3.528 3.954-5.544z" class="colorf2c0a7 svgShape"></path><path fill="#f4f6f8" d="M1619.661 1450.002c5.319 3.071 5.347 8.059.063 11.13l-81.604 47.423c-5.301 3.081-13.895 3.071-19.214 0l-82.137-47.422c-5.336-3.081-5.381-8.058-.08-11.139l81.604-47.423c5.284-3.071 13.895-3.071 19.231.01l82.137 47.421z" class="colore7f1f7 svgShape"></path><path fill="#1d13ab" d="m1551.529 1416.598-.03 10.637-2.542 9.319.03-10.637zM1498.237 1427.805l-.03 10.638-4.784-8.971.031-10.638zM1579.851 1435.778l-.03 10.637-13.152 5.448.03-10.637zM1484.296 1444.377l-.03 10.637-14.308-4.402.03-10.637z" class="color1352ab svgShape"></path><path fill="#1d13ab" d="m1545.255 1445.931-.03 10.637c.009-3.035-2.087-5.938-5.743-8.049-2.029-1.171-4.538-2.098-7.435-2.668-10.267-1.972-21.211 1.13-24.624 7.023-.692 1.189-1.022 2.398-1.026 3.585l.03-10.637c.003-1.188.334-2.396 1.026-3.586 3.412-5.892 14.357-8.995 24.623-7.023 2.897.57 5.406 1.497 7.435 2.668 3.657 2.111 5.753 5.014 5.744 8.05zm22.197-.234-.03 10.637a14.647 14.647 0 0 1-.096 1.614l.03-10.637c.062-.541.094-1.079.096-1.614zm-83.252 10.652.03-10.637c-.005 1.608.261 3.22.807 4.773l-.03 10.637a14.242 14.242 0 0 1-.807-4.773zM1576.484 1460.827l-.03 10.637-16.015-1.527.03-10.637z" class="color1352ab svgShape"></path><path fill="#1d13ab" d="m1581.706 1451.784-.03 10.637-5.222 9.043.03-10.637zM1560.469 1459.3l-.03 10.637c-2.005 1.744-4.279 3.283-6.971 4.606l.03-10.637c2.692-1.323 4.966-2.862 6.971-4.606zM1494.795 1461.802l-.03 10.637-15.472 2.742.03-10.638z" class="color1352ab svgShape"></path><path fill="#1d13ab" d="m1479.323 1464.543-.03 10.638-7.439-8.611.03-10.637zM1502.769 1465.854l-.03 10.637c-2.199-.851-4.212-1.784-6.03-2.834a30.56 30.56 0 0 1-1.945-1.219l.03-10.637c.621.423 1.269.829 1.945 1.219 1.818 1.05 3.831 1.984 6.03 2.834zm31.163 3.656-.03 10.637c-3.382.421-6.91.565-10.441.373l.03-10.637c3.531.192 7.059.048 10.441-.373z" class="color1352ab svgShape"></path><path fill="#1d13ab" d="m1543.442 1477.158-.03 10.637-9.51-7.648.03-10.637z" class="color1352ab svgShape"></path><path fill="#1d13ab" d="m1558.282 1472.877-.03 10.637-14.84 4.281.03-10.637zM1523.491 1469.883l-.031 10.637-7.675 8.297.03-10.637z" class="color1352ab svgShape"></path><path fill="#5046e4" d="m1553.498 1463.906 4.784 8.971-14.84 4.281-9.51-7.648c-3.382.421-6.91.565-10.441.373l-7.676 8.297-15.63-3.054 2.585-9.272c-2.199-.851-4.212-1.784-6.03-2.833a31.017 31.017 0 0 1-1.945-1.219l-15.472 2.742-7.439-8.61 13.153-5.448a14.29 14.29 0 0 1-.741-6.109l-14.308-4.402 5.263-9.091 16.036 1.491a32.694 32.694 0 0 1 6.95-4.57l-4.784-8.971 14.82-4.269 9.51 7.648c3.382-.421 6.931-.505 10.502-.433l7.552-8.274 15.691 3.091-2.542 9.32a40.621 40.621 0 0 1 6.027 2.83c.638.368 1.253.748 1.842 1.139l15.556-2.718 7.439 8.61-13.153 5.448c.697 1.984.895 4.016.657 6.085l14.351 4.473-5.222 9.043-16.015-1.527c-2.004 1.744-4.278 3.283-6.97 4.606zm-33.84-7.408c10.142 1.997 21.211-1.13 24.603-7.011 2.394-4.218.326-8.676-4.749-11.606-2.029-1.171-4.538-2.099-7.435-2.668-10.267-1.972-21.211 1.13-24.623 7.023-2.447 4.206-.373 8.648 4.695 11.575 2.047 1.181 4.585 2.116 7.509 2.687" class="color5576db svgShape"></path><path fill="#1d13ab" d="m1515.815 1478.18-.03 10.637-15.63-3.054.03-10.637z" class="color1352ab svgShape"></path><path fill="#dce6f1" d="m548.298 1010.568-.051 18.095c-.026 9.196-6.066 18.375-18.128 25.384-24.322 14.135-63.876 14.135-88.358 0-12.298-7.1-18.442-16.426-18.415-25.741l.051-18.094c-.026 9.315 6.118 18.641 18.415 25.741 24.483 14.135 64.036 14.135 88.358 0 12.062-7.011 18.102-16.189 18.128-25.385z" class="colordce8f1 svgShape"></path><path fill="#f4f6f8" d="M529.847 984.791c24.483 14.135 24.611 37.046.323 51.16-24.322 14.135-63.876 14.135-88.358 0-24.447-14.114-24.576-37.025-.254-51.16 24.289-14.114 63.842-14.114 88.289 0z" class="colore7f1f7 svgShape"></path><path fill="#3a3a3a" d="m525.08 1018.962-4.513 2.622-10.214-5.897-5.011 2.456 1.996 1.152c3.466 2.001 5.308 3.881 5.58 5.609.298 1.743-.741 3.29-3.037 4.624-1.487.864-3.185 1.425-5.146 1.713-1.987.273-4.082.182-6.335-.273-2.28-.47-4.51-1.334-6.768-2.637-1.733-1-3.179-2.107-4.415-3.335-1.211-1.212-1.977-2.41-2.323-3.578l6.562-1.197c.241.925.77 1.865 1.586 2.789a13.624 13.624 0 0 0 3.181 2.501c1.418.819 2.834 1.304 4.195 1.456 1.388.136 2.591-.076 3.582-.652 1.044-.607 1.379-1.319 1.061-2.107-.292-.803-1.528-1.819-3.629-3.032l-6.249-3.608 14.955-7.231 14.942 8.625zm-28.859-17.145c1.838 1.061 3.126 2.138 3.892 3.274.791 1.122 1.033 2.229.699 3.305-.309 1.061-1.219 2.017-2.679 2.865-1.305.758-2.846 1.319-4.545 1.668-1.725.364-4.132.485-7.221.424l-10.941-.182 10.555 6.094-4.591 2.668-18.538-10.703 3.652-2.122 18.322.303c1.937.031 3.455-.061 4.5-.242 1.019-.197 1.882-.485 2.56-.879.965-.561 1.38-1.198 1.246-1.88-.161-.697-.872-1.41-2.158-2.153a11.828 11.828 0 0 0-3.488-1.319 13.525 13.525 0 0 0-4.006-.197l-1.487-3.911a22.582 22.582 0 0 1 7.251.349 22.94 22.94 0 0 1 6.977 2.638z" class="color3a3a3a svgShape"></path><path fill="#dce6f1" d="m501.336 1107.921-.051 18.094c-.026 9.196-6.066 18.375-18.128 25.384-24.323 14.135-63.876 14.135-88.358 0-12.298-7.1-18.442-16.426-18.415-25.741l.051-18.094c-.026 9.315 6.118 18.641 18.415 25.741 24.483 14.135 64.036 14.135 88.358 0 12.062-7.009 18.102-16.188 18.128-25.384z" class="colordce8f1 svgShape"></path><path fill="#f4f6f8" d="M482.885 1082.145c24.483 14.135 24.611 37.046.323 51.161-24.323 14.135-63.876 14.135-88.358 0-24.447-14.115-24.576-37.025-.254-51.16 24.288-14.116 63.842-14.116 88.289-.001z" class="colore7f1f7 svgShape"></path><path fill="#3a3a3a" d="M471.165 1118.134c-.985 1.607-2.782 3.198-5.391 4.715a27.357 27.357 0 0 1-8.148 3.153c-2.771.576-5.439.697-8.059.364-2.566-.333-4.874-1.092-6.896-2.259-2.048-1.182-3.365-2.516-3.948-4.002-.584-1.516-.384-3.062.601-4.669 1.012-1.622 2.809-3.184 5.444-4.715 2.609-1.516 5.325-2.577 8.096-3.153 2.771-.576 5.466-.713 8.059-.364 2.566.333 4.875 1.091 6.922 2.273 2.022 1.167 3.338 2.502 3.921 3.987.611 1.501.384 3.063-.601 4.67zm-18.298 4.123c2.118-.258 4.495-1.152 7.182-2.714 2.661-1.546 4.197-2.926 4.635-4.154.412-1.243-.118-2.304-1.588-3.153-1.47-.849-3.304-1.152-5.423-.894-2.145.242-4.521 1.137-7.182 2.683-2.687 1.562-4.224 2.941-4.635 4.184-.438 1.228.118 2.274 1.588 3.123 1.471.85 3.279 1.168 5.423.925m.224-20.814-4.513 2.623-10.214-5.897-5.011 2.456 1.995 1.152c3.466 2.001 5.309 3.881 5.607 5.624.245 1.743-.74 3.289-3.036 4.623-1.487.864-3.212 1.41-5.172 1.698-1.988.273-4.082.182-6.335-.273s-4.509-1.334-6.741-2.623c-1.733-1-3.205-2.123-4.416-3.335-1.237-1.228-2.002-2.426-2.323-3.578l6.536-1.213c.267.94.77 1.865 1.612 2.805.842.909 1.868 1.743 3.154 2.486 1.418.819 2.834 1.304 4.196 1.455 1.388.136 2.565-.061 3.582-.652 1.043-.606 1.406-1.304 1.061-2.107-.292-.804-1.502-1.804-3.602-3.017l-6.276-3.623 14.956-7.231 14.94 8.627z" class="color3a3a3a svgShape"></path><path fill="#dce6f1" d="m672.951 1082.915-.051 18.094c-.026 9.196-6.066 18.375-18.128 25.384-24.322 14.135-63.876 14.135-88.358 0-12.298-7.1-18.442-16.426-18.415-25.741l.051-18.094c-.026 9.315 6.118 18.641 18.416 25.741 24.483 14.135 64.036 14.135 88.358 0 12.061-7.009 18.101-16.188 18.127-25.384z" class="colordce8f1 svgShape"></path><path fill="#f4f6f8" d="M654.5 1057.139c24.483 14.135 24.611 37.046.323 51.161-24.322 14.135-63.876 14.135-88.358 0-24.447-14.115-24.576-37.025-.253-51.16 24.287-14.116 63.841-14.116 88.288-.001z" class="colore7f1f7 svgShape"></path><path fill="#ff65e3" d="m647.477 1060.965-8.398 4.88c-16.123-9.308-42.264-9.308-58.282 0-16.018 9.309-15.933 24.451.19 33.759s42.264 9.308 58.282 0l8.453 4.88c-20.649 12-54.349 12-75.133 0-20.773-11.993-20.893-31.52-.245-43.52 20.649-11.998 54.36-11.992 75.133.001z" class="colorff65a7 svgShape"></path><path fill="#3a3a3a" d="m641.509 1087.641-4.513 2.622-10.214-5.897-5.011 2.456 1.995 1.152c3.466 2.001 5.309 3.881 5.607 5.624.271 1.728-.741 3.29-3.037 4.624-1.487.864-3.211 1.41-5.172 1.698-1.961.288-4.081.182-6.335-.273-2.253-.455-4.509-1.334-6.741-2.622-1.733-1.001-3.205-2.122-4.415-3.335-1.237-1.228-2.003-2.426-2.323-3.578l6.536-1.213c.267.94.77 1.864 1.613 2.804.843.91 1.868 1.743 3.155 2.486 1.444.834 2.833 1.304 4.195 1.455 1.388.136 2.591-.076 3.582-.652 1.044-.607 1.406-1.304 1.061-2.107-.292-.803-1.502-1.804-3.602-3.017l-6.275-3.623 14.955-7.231 14.939 8.627zM622.577 1076.711l-3.652 2.123-29.797 6.761-6.145-3.547 28.517-6.413-8.113-4.684-3.965 2.304-5.041-2.911 8.556-4.972z" class="color3a3a3a svgShape"></path><path fill="#f93dd7" d="m475.96 1086.503-8.398 4.88c-16.123-9.308-42.275-9.315-58.293-.006s-15.922 24.457.201 33.766l-8.398 4.88c-20.784-12-20.893-31.52-.245-43.52 20.649-11.999 54.35-11.999 75.133 0z" class="colorf9ac3d svgShape"></path><path fill="#1204e0" d="m529.234 991.464-9.378 5.45c-18.004-10.395-47.197-10.395-65.084 0l-9.439-5.45c23.059-13.4 60.692-13.4 83.901 0z" class="color04e0c2 svgShape"></path><path fill="#2e25b8" d="M840.45 1280.401v24.879c0 1.379-.916 2.75-2.747 3.816l-79.223 46.099c-3.663 2.139-9.617 1.99-13.127 0l-79.834-46.099c-1.832-1.066-2.747-2.437-2.747-3.816v-24.879c0 1.371.916 2.75 2.747 3.816l79.834 46.099c3.663 1.983 9.617 2.139 13.28 0l79.07-46.099c1.832-1.065 2.747-2.444 2.747-3.816z" class="color255bb8 svgShape"></path><path fill="#5046e4" d="M837.733 1276.607c3.606 2.082 3.722 5.514.045 7.651l-79.201 46.027c-3.682 2.14-9.608 2.084-13.215.002l-79.818-46.083c-3.606-2.082-3.722-5.514-.04-7.654l79.201-46.027c3.677-2.137 9.603-2.081 13.209.001l79.819 46.083z" class="color5576db svgShape"></path><g fill="#ffffff" class="colorffffff svgShape"><path d="m795.486 1291.177-8.164 4.745 8.386 4.842-4.081 2.372-8.387-4.842-8.25 4.794-3.858-2.227 8.25-4.795-8.387-4.842 4.082-2.372 8.387 4.842 8.164-4.744zM770.661 1276.844l-8.164 4.745 8.387 4.842-4.082 2.372-8.387-4.842-8.25 4.794-3.942-2.275 8.25-4.795-8.303-4.794 4.082-2.372 8.303 4.794 8.164-4.745zM746.899 1258.396c4.697 2.712 6.889 6.004 6.577 9.877l-6.851.192c-.105-3.145-1.284-5.083-4.974-7.214-6.039-3.486-15.071-3.873-21.486-.145-6.333 3.68-5.883 9.151-.264 12.396 3.103 1.792 6.283 2.664 12.302 2.761l-.058 3.92c-6.855.195-12.463-1.016-17.159-3.727-9.058-5.23-9.604-12.976-.355-18.351 8.751-5.085 22.372-5.423 32.268.291z" fill="#000000" class="color000000 svgShape"></path></g><path fill="#ea3dcb" d="M923.126 1432.142v24.879c0 1.379-.916 2.75-2.747 3.816l-79.223 46.099c-3.663 2.139-9.617 1.99-13.127 0l-79.834-46.099c-1.832-1.066-2.747-2.437-2.747-3.816v-24.879c0 1.371.916 2.75 2.747 3.816l79.834 46.099c3.663 1.983 9.617 2.139 13.28 0l79.07-46.099c1.832-1.066 2.747-2.444 2.747-3.816z" class="colorea3d5b svgShape"></path><path fill="#ff6ce4" d="M920.409 1428.348c3.606 2.082 3.722 5.514.045 7.651l-79.201 46.026c-3.682 2.14-9.608 2.084-13.215.002l-79.818-46.083c-3.606-2.082-3.722-5.514-.04-7.654l79.201-46.026c3.677-2.137 9.603-2.081 13.209.001l79.819 46.083z" class="colorff6c85 svgShape"></path><g fill="#ffffff" class="colorffffff svgShape"><path d="m853.725 1462.53-8.71 5.062-49.23-28.423 8.71-5.061zM873.404 1451.094l-8.624 5.012-49.23-28.423 8.624-5.012zM893.169 1439.608l-8.706 5.059-49.23-28.423 8.706-5.059zM810.339 1412.352c3.372 1.947 3.391 5.353.038 7.302-3.517 2.044-9.23 1.946-12.602-.001-3.54-2.044-3.476-5.207.041-7.251 3.354-1.949 8.983-2.094 12.523-.05zm19.679-11.436c3.372 1.947 3.392 5.353.043 7.299-3.517 2.044-9.23 1.946-12.602-.001-3.54-2.044-3.476-5.207.041-7.251 3.349-1.946 8.977-2.091 12.518-.047zm-39.444 22.922c3.372 1.947 3.473 5.306.043 7.299-3.435 1.996-9.148 1.898-12.52-.048-3.54-2.044-3.476-5.207-.041-7.203 3.431-1.994 8.978-2.092 12.518-.048z" fill="#000000" class="color000000 svgShape"></path></g><path fill="#a7ccf2" d="M682.337 1393.116v24.879c0 1.379-.916 2.75-2.747 3.816l-79.223 46.099c-3.663 2.139-9.617 1.99-13.127 0l-79.834-46.099c-1.832-1.066-2.747-2.437-2.747-3.816v-24.879c0 1.371.916 2.75 2.747 3.816l79.834 46.099c3.663 1.983 9.617 2.139 13.28 0l79.07-46.099c1.831-1.066 2.747-2.445 2.747-3.816z" class="colorf2c0a7 svgShape"></path><path fill="#b5d9fe" d="M679.62 1389.322c3.606 2.082 3.722 5.514.045 7.651L600.464 1443c-3.682 2.14-9.609 2.084-13.215.002l-79.818-46.083c-3.606-2.082-3.722-5.514-.04-7.654l79.201-46.026c3.677-2.137 9.603-2.081 13.209.001l79.819 46.082z" class="colorfed0b5 svgShape"></path><g fill="#ffffff" class="colorffffff svgShape"><path d="m612.019 1393.357 13.745 21.489-6.746 3.92-37.06-7.939 6.148-3.573 27.708 5.905.597-.347-10.457-15.93zM630.393 1384.802l-72.997 15.434-5.415-3.126 73.083-15.385zM603.902 1369.168l-6.065 3.525-27.536-6.005-.598.347 10.287 16.03-6.149 3.573-13.828-21.44 6.746-3.921z" fill="#000000" class="color000000 svgShape"></path></g><path fill="#cfdbe8" d="M607.121 1242.957v24.879c0 1.379-.916 2.75-2.747 3.816l-79.223 46.099c-3.663 2.139-9.617 1.99-13.127 0l-79.834-46.099c-1.832-1.066-2.748-2.437-2.748-3.816v-24.879c0 1.371.916 2.75 2.748 3.816l79.834 46.099c3.663 1.983 9.617 2.139 13.28 0l79.07-46.099c1.831-1.065 2.747-2.444 2.747-3.816z" class="colorcfdee8 svgShape"></path><path fill="#f4f6f8" d="M604.403 1239.163c3.606 2.082 3.722 5.514.045 7.651l-79.201 46.026c-3.682 2.14-9.609 2.084-13.214.002l-79.819-46.083c-3.606-2.082-3.722-5.514-.04-7.654l79.201-46.026c3.677-2.137 9.603-2.081 13.209.001l79.819 46.083z" class="colore7f1f7 svgShape"></path><path fill="#2e25b8" d="M554.89 1264.064c-8.274 4.809-19.192 7.806-30.845 8.546l-1.078.089c-15.212.767-30.153-2.382-40.984-8.635-10.847-6.262-16.317-14.898-15.027-23.72l.104-.615c1.257-6.745 6.426-13.078 14.701-17.887 8.259-4.8 19.16-7.806 30.816-8.546l1.062-.08c7.621-.384 15.14.205 22.14 1.668 1.234.268 2.437.553 3.64.875a67.15 67.15 0 0 1 3.965 1.151 64.254 64.254 0 0 1 4.737 1.74 55.776 55.776 0 0 1 6.518 3.193c10.831 6.253 16.316 14.897 15.026 23.72l-.09.625c-1.288 6.743-6.427 13.076-14.685 17.876zm-30.655 7.021c10.453-.723 20.233-3.381 27.849-7.574l-17.63-10.179a112.712 112.712 0 0 1-13.009 6.325c2.175 3.64 3.139 7.556 2.79 11.428m29.676-8.636c7.212-4.424 11.77-10.098 12.984-16.155-6.682.214-13.431-.322-19.737-1.579-3.066 2.533-6.702 5.076-10.876 7.556l17.629 10.178m-71.203-38.992c-7.214 4.424-11.771 10.099-12.97 16.164 6.698-.223 13.448.312 19.707 1.578 3.081-2.542 6.716-5.084 10.892-7.565l-17.629-10.177m29.69-8.627c-10.468.714-20.249 3.372-27.863 7.565l17.629 10.178a112.868 112.868 0 0 1 13.008-6.325c-2.175-3.621-3.137-7.537-2.774-11.418m-35.084 43.552c.293.241.603.473.897.714-.826-4.461 2.652-10.42 9.687-16.602a83.318 83.318 0 0 0-18.429-1.373l-.013.223a15.262 15.262 0 0 0-.046 2.641l.048.401c.067.874.21 1.758.431 2.632l.094.356c.251.875.548 1.74.923 2.596l.171.33c.406.856.858 1.704 1.401 2.551l.186.268a24.536 24.536 0 0 0 1.909 2.489l.185.215c.73.829 1.534 1.632 2.4 2.417l.156.142m43.966 12.863.353-.008c.396-3.613-.487-7.253-2.431-10.67-10.65 4.095-20.927 6.13-28.599 5.666.402.161.787.348 1.189.508l.245.089c1.359.5 2.779.963 4.198 1.392l.355.097c1.419.411 2.853.777 4.333 1.098l.433.107a79.36 79.36 0 0 0 4.455.812l.509.08c1.494.223 3.005.401 4.53.535l.586.054c1.51.125 3.051.213 4.591.25l.632.027a89.14 89.14 0 0 0 4.621-.037m-5.91-56.584-.385.009c-.379 3.622.489 7.27 2.433 10.669 10.649-4.095 20.926-6.129 28.598-5.665-.401-.16-.787-.348-1.219-.508l-.232-.098a75.003 75.003 0 0 0-4.197-1.391l-.353-.099a65.979 65.979 0 0 0-4.334-1.097l-.433-.107a83.694 83.694 0 0 0-4.424-.812l-.54-.08a83.206 83.206 0 0 0-4.501-.535l-.616-.054a86.18 86.18 0 0 0-4.559-.25l-.663-.009a78.572 78.572 0 0 0-4.575.027m43.904 12.864c-.264-.241-.589-.464-.867-.696.842 4.451-2.652 10.401-9.687 16.583a82.918 82.918 0 0 0 18.427 1.374l.016-.205c.085-.892.097-1.793.046-2.676l-.049-.366a15.657 15.657 0 0 0-.445-2.659l-.094-.339a17.144 17.144 0 0 0-.939-2.622l-.14-.294a21.614 21.614 0 0 0-1.416-2.578l-.186-.25a23.166 23.166 0 0 0-1.908-2.507l-.171-.204a33.485 33.485 0 0 0-2.417-2.427l-.17-.134M528.457 1236l23.334-13.56c-6.516-2.819-19.765-.882-33.442 4.398 2.314 3.417 5.704 6.476 10.108 9.162m25.173-12.499-23.334 13.56c4.62 2.524 9.928 4.487 15.835 5.816 9.071-7.939 12.387-15.611 7.499-19.376m-70.626 38.913 23.318-13.551c-4.635-2.551-9.944-4.513-15.818-5.825-9.088 7.931-12.372 15.602-7.5 19.376m1.84 1.061c6.53 2.81 19.748.874 33.426-4.407-2.315-3.416-5.72-6.485-10.108-9.143l-23.318 13.55m23.334-15.691 8.306-4.827-14.307-8.26c-3.854 2.293-7.243 4.674-10.156 7.048 5.999 1.4 11.416 3.425 16.157 6.039m10.133-5.888 8.304-4.826c-4.527-2.738-8.042-5.87-10.478-9.34a110.193 110.193 0 0 0-12.133 5.905l14.307 8.261m.012 2.123-8.306 4.827c4.513 2.729 8.011 5.869 10.464 9.331a107.197 107.197 0 0 0 12.134-5.906l-14.292-8.252m10.131-5.887-8.304 4.826 14.292 8.252c3.852-2.292 7.258-4.666 10.155-7.047-5.999-1.402-11.415-3.427-16.143-6.031" class="color255bb8 svgShape"></path><path fill="#474e56" d="m1209.535 1358.451-.023 9.525c0 2.153-1.428 4.283-4.236 5.921l-8.261 4.798.047-9.525 8.238-4.798c2.831-1.638 4.235-3.791 4.235-5.921z" class="color474756 svgShape"></path><path fill="#4037c7" d="m1197.051 1369.16-.027 9.539-211.879-122.329.027-9.538z" class="color3765c7 svgShape"></path><path fill="#5e5466" d="M1205.238 1352.441c5.708 3.296 5.738 8.627.067 11.922l-8.254 4.797-211.879-122.328 8.254-4.797c5.671-3.295 14.89-3.287 20.583 0l191.229 110.406z" class="color545466 svgShape"></path><path fill="#a50b89" d="M1016.048 1247.906c2.485 1.434 2.498 3.76.033 5.192-2.468 1.435-6.483 1.435-8.968 0-2.481-1.432-2.494-3.758-.026-5.192 2.465-1.432 6.48-1.432 8.961 0z" class="colore22951 svgShape"></path><path fill="#f4f6f8" d="M1029.256 1255.524c2.485 1.435 2.498 3.76.033 5.192-2.468 1.435-6.483 1.435-8.968 0-2.481-1.432-2.494-3.758-.026-5.192 2.466-1.432 6.48-1.432 8.961 0z" class="colorffb839 svgShape"></path><path fill="#7b75d1" d="M1042.464 1263.142c2.485 1.435 2.498 3.76.033 5.192-2.469 1.434-6.483 1.434-8.968 0-2.481-1.432-2.494-3.758-.026-5.192 2.466-1.432 6.48-1.432 8.961 0z" class="color75d178 svgShape"></path><path fill="#c5d1dd" d="m1197.051 1369.16-.027 9.539-140.656 81.74.027-9.538z" class="colorc5d4dd svgShape"></path><path fill="#cfdbe8" d="m1056.395 1450.901-.027 9.538-211.879-122.328.027-9.539z" class="colorcfdee8 svgShape"></path><path fill="#f4f6f8" d="m1197.051 1369.16-140.656 81.741-211.879-122.329 140.656-81.74z" class="colore7f1f7 svgShape"></path><path fill="#c5d1dd" d="m966.977 1312.714-5.351 3.11-33.569-19.381 5.351-3.11zM994.086 1386.072l-5.35 3.109-110.49-63.791 5.351-3.109zM971.813 1353.978l-5.35 3.109-71.614-41.346 5.351-3.109zM1039.514 1373.828l-5.35 3.11-122.709-70.847 5.35-3.109zM1119.114 1400.551l-5.35 3.11-144.918-83.669 5.35-3.109zM1085.906 1419.85l-5.35 3.109-108.262-62.505 5.35-3.109zM1046.618 1339.458l-5.353 3.111-96.605-55.775 5.353-3.111zM1089.939 1364.47l-5.353 3.111-38.321-22.125 5.353-3.111zM1102.511 1410.2l-5.35 3.109-55.778-32.203 5.351-3.11zM1135.72 1390.901l-5.354 3.111-35.783-20.659 5.353-3.111z" class="colorc5d4dd svgShape"></path><g fill="#c5d1dd" class="colorc5d4dd svgShape"><path d="m998.796 1292.614-5.351 3.11-32.179-18.58 5.35-3.109zM1152.322 1381.253l-5.35 3.109-149.082-86.072 5.351-3.11z" fill="#000000" class="color000000 svgShape"></path></g><path fill="#c5d1dd" d="m1168.925 1371.604-5.35 3.11-185.707-107.218 5.351-3.109zM1041.295 1413.327l-5.351 3.11-38.876-22.445 5.351-3.11z" class="colorc5d4dd svgShape"></path></svg>