<svg xmlns="http://www.w3.org/2000/svg" xmlns:xlink="http://www.w3.org/1999/xlink" viewBox="0 0 822.66 800" id="Bigdataorstockmarketanalysis"><defs><linearGradient id="g" x1="126.585" x2="243.029" y1="597.725" y2="396.039" gradientUnits="userSpaceOnUse"><stop offset="0" stop-color="#726ae2" class="stopColor6a6ae2 svgShape"></stop><stop offset=".245" stop-color="#7a41aa" class="stopColor4141aa svgShape"></stop><stop offset=".347" stop-color="#726ae2" class="stopColor6a6ae2 svgShape"></stop><stop offset=".412" stop-color="#7a41aa" class="stopColor4141aa svgShape"></stop><stop offset=".438" stop-color="#7d43ad" class="stopColor4343ad svgShape"></stop><stop offset="1" stop-color="#726ae2" class="stopColor6a6ae2 svgShape"></stop></linearGradient><linearGradient id="h" x1="80.289" x2="464.239" y1="573.557" y2="573.557" gradientUnits="userSpaceOnUse"><stop offset="0" stop-color="#d3e2f2" class="stopColord3d8f2 svgShape"></stop><stop offset=".317" stop-color="#e0ebf6" class="stopColore0e4f6 svgShape"></stop><stop offset=".834" stop-color="#ffffff" class="stopColorffffff svgShape"></stop></linearGradient><linearGradient id="i" x1="110.17" x2="502.105" y1="584.57" y2="584.57" gradientUnits="userSpaceOnUse"><stop offset="0" stop-color="#bed1e5" class="stopColore5cebe svgShape"></stop><stop offset=".029" stop-color="#c2d4e7" class="stopColore7d1c2 svgShape"></stop><stop offset=".282" stop-color="#e3ebf4" class="stopColorf4eae3 svgShape"></stop><stop offset=".492" stop-color="#f8fafc" class="stopColorfcf9f8 svgShape"></stop><stop offset=".633" stop-color="#ffffff" class="stopColorffffff svgShape"></stop></linearGradient><linearGradient id="j" x1="301.902" x2="328.038" y1="463.852" y2="418.582" gradientUnits="userSpaceOnUse"><stop offset="0" stop-color="#78b5f3" class="stopColorf3b378 svgShape"></stop><stop offset="1" stop-color="#ec66d4" class="stopColorec6675 svgShape"></stop></linearGradient><linearGradient id="k" x1="193.422" x2="259.718" y1="550.768" y2="435.94" gradientUnits="userSpaceOnUse"><stop offset="0" stop-color="#78b5f3" class="stopColorf3b378 svgShape"></stop><stop offset=".509" stop-color="#ec66d4" class="stopColorec6675 svgShape"></stop><stop offset="1" stop-color="#78b5f3" class="stopColorf3b378 svgShape"></stop></linearGradient><linearGradient id="l" x1="84.723" x2="155.623" y1="635.368" y2="512.565" gradientUnits="userSpaceOnUse"><stop offset="0" stop-color="#ec66d4" class="stopColorec6675 svgShape"></stop><stop offset="1" stop-color="#78b5f3" class="stopColorf3b378 svgShape"></stop></linearGradient><linearGradient id="a" x1="507.159" x2="576.487" y1="28.185" y2="28.185" gradientTransform="matrix(.7494 -1.0114 -.434 -.7486 -194.177 949.56)" gradientUnits="userSpaceOnUse"><stop offset="0" stop-color="#6db6ff" class="stopColorffaf6d svgShape"></stop><stop offset="1" stop-color="#ff6ae4" class="stopColorff826a svgShape"></stop></linearGradient><linearGradient id="m" x1="283.723" x2="358.51" y1="472.391" y2="472.391" gradientTransform="matrix(-.866 .5 0 1.1547 442.743 -289.016)" xlink:href="#a"></linearGradient><linearGradient id="n" x1="290.455" x2="358.51" y1="504.773" y2="504.773" gradientTransform="matrix(-.866 .5 0 1.1547 442.743 -289.016)" xlink:href="#a"></linearGradient><linearGradient id="o" x1="623.955" x2="672.58" y1="415.328" y2="331.107" gradientUnits="userSpaceOnUse"><stop offset="0" stop-color="#64318f" class="stopColor34318f svgShape"></stop><stop offset="1" stop-color="#867ff4" class="stopColor7f7ff4 svgShape"></stop></linearGradient><linearGradient id="b" x1="644.947" x2="644.951" y1="165" y2="164.994" gradientUnits="userSpaceOnUse"><stop offset=".363" stop-color="#5c55c6" class="stopColor5555c6 svgShape"></stop><stop offset=".409" stop-color="#867ff4" class="stopColor7f7ff4 svgShape"></stop></linearGradient><linearGradient id="p" x1="442.696" x2="596.223" y1="402.779" y2="136.862" xlink:href="#b"></linearGradient><linearGradient id="c" x1="462.614" x2="462.614" y1="385.192" y2="324.138" gradientTransform="matrix(.866 -.5 0 1.1547 66.063 160.787)" gradientUnits="userSpaceOnUse"><stop offset="0" stop-color="#726ae2" class="stopColor6a6ae2 svgShape"></stop><stop offset=".059" stop-color="#716ad7" class="stopColor776ad7 svgShape"></stop><stop offset=".267" stop-color="#9268b4" class="stopColora168b4 svgShape"></stop><stop offset=".47" stop-color="#c267b1" class="stopColorc26799 svgShape"></stop><stop offset=".664" stop-color="#d967c4" class="stopColord96785 svgShape"></stop><stop offset=".845" stop-color="#e766d0" class="stopColore76679 svgShape"></stop><stop offset="1" stop-color="#ec66d4" class="stopColorec6675 svgShape"></stop></linearGradient><linearGradient id="q" x1="483.631" x2="483.631" y1="385.192" y2="342.338" xlink:href="#c"></linearGradient><linearGradient id="r" x1="507.575" x2="507.575" y1="385.192" y2="327.597" xlink:href="#c"></linearGradient><linearGradient id="s" x1="538.937" x2="538.937" y1="385.193" y2="327.598" xlink:href="#c"></linearGradient><linearGradient id="t" x1="559.473" x2="559.473" y1="385.193" y2="314.092" xlink:href="#c"></linearGradient><linearGradient id="u" x1="580.1" x2="580.1" y1="385.193" y2="337.392" xlink:href="#c"></linearGradient><linearGradient id="v" x1="606.429" x2="606.429" y1="385.194" y2="322.081" xlink:href="#c"></linearGradient><linearGradient id="w" x1="644.032" x2="644.032" y1="385.194" y2="322.082" xlink:href="#c"></linearGradient><linearGradient id="x" x1="656.314" x2="656.314" y1="383.653" y2="310.559" xlink:href="#c"></linearGradient><linearGradient id="y" x1="69.732" x2="155.51" y1="689.348" y2="689.348" gradientTransform="translate(152.864)" gradientUnits="userSpaceOnUse"><stop offset="0" stop-color="#d3e2f2" class="stopColord3d8f2 svgShape"></stop><stop offset=".142" stop-color="#dde9f5" class="stopColordde1f5 svgShape"></stop><stop offset=".562" stop-color="#f6f9fc" class="stopColorf6f7fc svgShape"></stop><stop offset=".817" stop-color="#ffffff" class="stopColorffffff svgShape"></stop></linearGradient><linearGradient id="d" x1="599.945" x2="642.341" y1="480.765" y2="480.765" gradientUnits="userSpaceOnUse"><stop offset="0" stop-color="#c4d4e5" class="stopColorc4c9e5 svgShape"></stop><stop offset=".241" stop-color="#dde6f0" class="stopColordde0f0 svgShape"></stop><stop offset=".539" stop-color="#f6f8fb" class="stopColorf6f7fb svgShape"></stop><stop offset=".719" stop-color="#ffffff" class="stopColorffffff svgShape"></stop></linearGradient><linearGradient id="z" x1="624.737" x2="667.133" y1="472.612" y2="472.612" xlink:href="#d"></linearGradient><linearGradient id="e" x1="619.169" x2="629.694" y1="460.222" y2="460.222" gradientUnits="userSpaceOnUse"><stop offset="0" stop-color="#cee3f8" class="stopColorced3f8 svgShape"></stop><stop offset="1" stop-color="#a3b9d0" class="stopColora3a9d0 svgShape"></stop></linearGradient><linearGradient id="A" x1="612.592" x2="637.494" y1="490.033" y2="490.033" xlink:href="#d"></linearGradient><linearGradient id="B" x1="607.024" x2="617.549" y1="484.124" y2="484.124" gradientUnits="userSpaceOnUse"><stop offset="0" stop-color="#f471dc" class="stopColorf48a71 svgShape"></stop><stop offset="1" stop-color="#e33cc5" class="stopColore33c5c svgShape"></stop></linearGradient><linearGradient id="C" x1="594.377" x2="604.902" y1="470.029" y2="470.029" gradientUnits="userSpaceOnUse"><stop offset="0" stop-color="#726ae2" class="stopColor6a6ae2 svgShape"></stop><stop offset="1" stop-color="#7a41aa" class="stopColor4141aa svgShape"></stop></linearGradient><linearGradient id="D" x1="587.8" x2="630.196" y1="498.187" y2="498.187" xlink:href="#d"></linearGradient><linearGradient id="E" x1="582.232" x2="592.757" y1="488.438" y2="488.438" xlink:href="#e"></linearGradient><linearGradient id="F" x1="322.362" x2="398.33" y1="565.932" y2="565.932" gradientTransform="translate(42.41)" xlink:href="#d"></linearGradient><linearGradient id="G" x1="235.245" x2="307.958" y1="588.215" y2="588.215" gradientTransform="translate(97.637)" xlink:href="#d"></linearGradient><linearGradient id="H" x1="148.129" x2="215.053" y1="610.497" y2="610.497" gradientTransform="translate(152.864)" xlink:href="#d"></linearGradient><linearGradient id="I" x1="180.657" x2="249.675" y1="369.094" y2="489.434" gradientTransform="matrix(-1 0 0 1 569.556 0)" gradientUnits="userSpaceOnUse"><stop offset="0" stop-color="#f471dc" class="stopColorf48a71 svgShape"></stop><stop offset=".305" stop-color="#f073d9" class="stopColorf07973 svgShape"></stop><stop offset=".679" stop-color="#ed6bd5" class="stopColored6b74 svgShape"></stop><stop offset="1" stop-color="#ec66d4" class="stopColorec6675 svgShape"></stop></linearGradient><linearGradient id="J" x1="377.799" x2="457.598" y1="644.691" y2="644.691" gradientUnits="userSpaceOnUse"><stop offset=".331" stop-color="#c6d6e7" class="stopColorc6cbe7 svgShape"></stop><stop offset=".592" stop-color="#d9e4ef" class="stopColord9ddef svgShape"></stop><stop offset="1" stop-color="#ffffff" class="stopColorffffff svgShape"></stop></linearGradient><linearGradient id="K" x1="395.706" x2="419.815" y1="635.473" y2="635.473" gradientUnits="userSpaceOnUse"><stop offset="0" stop-color="#bdd0e4" class="stopColorbdc1e4 svgShape"></stop><stop offset="1" stop-color="#deebf9" class="stopColordee2f9 svgShape"></stop></linearGradient><linearGradient id="L" x1="388.898" x2="404.278" y1="653.235" y2="653.235" gradientUnits="userSpaceOnUse"><stop offset="0" stop-color="#bdd0e4" class="stopColorbdc1e4 svgShape"></stop><stop offset="1" stop-color="#d0e3f6" class="stopColord0d4f6 svgShape"></stop></linearGradient><linearGradient id="M" x1="353.115" x2="360.697" y1="613.081" y2="625.762" gradientTransform="rotate(120.001 377.858 654.045)" gradientUnits="userSpaceOnUse"><stop offset="0" stop-color="#d0e3f6" class="stopColord0d4f6 svgShape"></stop><stop offset="1" stop-color="#bdd0e4" class="stopColorbdc1e4 svgShape"></stop></linearGradient><linearGradient id="N" x1="427.207" x2="437.696" y1="641.271" y2="641.271" gradientUnits="userSpaceOnUse"><stop offset=".404" stop-color="#bdd0e4" class="stopColorbdc1e4 svgShape"></stop><stop offset="1" stop-color="#d0e3f6" class="stopColord0d4f6 svgShape"></stop></linearGradient><linearGradient id="O" x1="690.105" x2="747.139" y1="577.975" y2="577.975" gradientUnits="userSpaceOnUse"><stop offset=".365" stop-color="#c4d4e4" class="stopColorc4c9e4 svgShape"></stop><stop offset="1" stop-color="#ffffff" class="stopColorffffff svgShape"></stop></linearGradient><linearGradient id="P" x1="678.18" x2="734.045" y1="582.438" y2="582.438" gradientUnits="userSpaceOnUse"><stop offset="0" stop-color="#fb4bdb" class="stopColorfb944b svgShape"></stop><stop offset="1" stop-color="#d14bb9" class="stopColord14b5f svgShape"></stop></linearGradient><linearGradient id="Q" x1="683.427" x2="728.795" y1="564.232" y2="564.232" gradientUnits="userSpaceOnUse"><stop offset="0" stop-color="#d14bb9" class="stopColord14b5f svgShape"></stop><stop offset="1" stop-color="#f471dc" class="stopColorf48a71 svgShape"></stop></linearGradient><linearGradient id="R" x1="697.492" x2="709.753" y1="576.066" y2="576.066" gradientUnits="userSpaceOnUse"><stop offset="0" stop-color="#f471dc" class="stopColorf48a71 svgShape"></stop><stop offset="1" stop-color="#d14bb9" class="stopColord14b5f svgShape"></stop></linearGradient><linearGradient id="S" x1="706.148" x2="714.617" y1="567.093" y2="567.093" gradientUnits="userSpaceOnUse"><stop offset="0" stop-color="#d14bb9" class="stopColord14b5f svgShape"></stop><stop offset="1" stop-color="#ec66d4" class="stopColorec6675 svgShape"></stop></linearGradient><linearGradient id="T" x1="599.197" x2="599.197" y1="312.019" y2="312.018" gradientUnits="userSpaceOnUse"><stop offset=".4" stop-color="#64318f" class="stopColor34318f svgShape"></stop><stop offset=".484" stop-color="#867ff4" class="stopColor7f7ff4 svgShape"></stop></linearGradient><linearGradient id="U" x1="490.993" x2="574.552" y1="442.518" y2="297.789" gradientUnits="userSpaceOnUse"><stop offset=".4" stop-color="#0b00aa" class="stopColor009aaa svgShape"></stop><stop offset=".484" stop-color="#0e00dc" class="stopColor00d6dc svgShape"></stop></linearGradient><linearGradient id="V" x1="520.019" x2="427.518" y1="495.096" y2="466.655" gradientUnits="userSpaceOnUse"><stop offset="0" stop-color="#64318f" class="stopColor34318f svgShape"></stop><stop offset="1" stop-color="#726ae2" class="stopColor6a6ae2 svgShape"></stop></linearGradient><linearGradient id="W" x1="477.044" x2="477.044" y1="521.091" y2="459.879" gradientTransform="matrix(.866 -.5 0 1.1547 61.132 158.964)" gradientUnits="userSpaceOnUse"><stop offset="0"></stop><stop offset=".096" stop-color="#0c2340" class="stopColor001415 svgShape"></stop><stop offset=".54" stop-color="#003270" class="stopColor006a70 svgShape"></stop><stop offset=".851" stop-color="#0b00a9" class="stopColor00a1a9 svgShape"></stop><stop offset="1" stop-color="#0c00bf" class="stopColor00b6bf svgShape"></stop></linearGradient><linearGradient id="X" x1="416.761" x2="494.739" y1="537.87" y2="402.808" gradientUnits="userSpaceOnUse"><stop offset=".396" stop-color="#64318f" class="stopColor34318f svgShape"></stop><stop offset=".479" stop-color="#7a41aa" class="stopColor4141aa svgShape"></stop></linearGradient><linearGradient id="Y" x1="77.068" x2="99.045" y1="617.673" y2="617.673" gradientTransform="translate(431.01)" gradientUnits="userSpaceOnUse"><stop offset="0" stop-color="#662e94" class="stopColor362e94 svgShape"></stop><stop offset="1" stop-color="#662e94" class="stopColor362e94 svgShape"></stop></linearGradient><linearGradient id="Z" x1="60.137" x2="82.115" y1="629.241" y2="629.241" gradientTransform="translate(431.01)" gradientUnits="userSpaceOnUse"><stop offset="0" stop-color="#7c3eaf" class="stopColor423eaf svgShape"></stop><stop offset=".375" stop-color="#7237a3" class="stopColor3d37a3 svgShape"></stop><stop offset="1" stop-color="#662e94" class="stopColor362e94 svgShape"></stop></linearGradient><linearGradient id="f" x1="68.354" x2="153.386" y1="601.377" y2="601.377" gradientTransform="translate(431.01)" gradientUnits="userSpaceOnUse"><stop offset="0" stop-color="#5a52cc" class="stopColor5652cc svgShape"></stop><stop offset=".087" stop-color="#5049be" class="stopColor4e49be svgShape"></stop><stop offset=".265" stop-color="#6822a2" class="stopColor413aa7 svgShape"></stop><stop offset=".432" stop-color="#6a3199" class="stopColor393199 svgShape"></stop><stop offset=".576" stop-color="#662e94" class="stopColor362e94 svgShape"></stop></linearGradient><linearGradient id="aa" x1="568.253" x2="691.379" y1="649.308" y2="649.308" gradientUnits="userSpaceOnUse"><stop offset="0" stop-color="#d3e2f2" class="stopColord3d8f2 svgShape"></stop><stop offset=".547" stop-color="#eef4fa" class="stopColoreef0fa svgShape"></stop><stop offset="1" stop-color="#ffffff" class="stopColorffffff svgShape"></stop></linearGradient><linearGradient id="ab" x1="528.823" x2="530.794" y1="540.966" y2="536.235" gradientUnits="userSpaceOnUse"><stop offset="0" stop-color="#c4d6e9" class="stopColorc4cae9 svgShape"></stop><stop offset=".292" stop-color="#d1dfee" class="stopColord1d6ee svgShape"></stop><stop offset=".83" stop-color="#f4f6f8" class="stopColorf3f4fa svgShape"></stop><stop offset="1" stop-color="#ffffff" class="stopColorffffff svgShape"></stop></linearGradient><linearGradient id="ac" x1="503.454" x2="506.809" y1="552.818" y2="544.767" gradientUnits="userSpaceOnUse"><stop offset="0" stop-color="#c4d6e9" class="stopColorc4cae9 svgShape"></stop><stop offset="1" stop-color="#ffffff" class="stopColorffffff svgShape"></stop></linearGradient><linearGradient id="ad" x1="178.335" x2="179.286" y1="552.546" y2="550.264" gradientTransform="matrix(-1 0 0 1 732.591 0)" gradientUnits="userSpaceOnUse"><stop offset="0" stop-color="#e100b8" class="stopColore19100 svgShape"></stop><stop offset=".584" stop-color="#f304c8" class="stopColorf3ac04 svgShape"></stop><stop offset="1" stop-color="#fc06cf" class="stopColorfcba06 svgShape"></stop></linearGradient><linearGradient id="ae" x1="68.354" x2="153.385" y1="591.342" y2="591.342" xlink:href="#f"></linearGradient><linearGradient id="af" x1="188.602" x2="182.224" y1="548.304" y2="540.248" gradientTransform="matrix(-1 0 0 1 732.591 0)" gradientUnits="userSpaceOnUse"><stop offset="0" stop-color="#ec66d4" class="stopColorec6675 svgShape"></stop><stop offset=".595" stop-color="#f073d9" class="stopColorf07a73 svgShape"></stop><stop offset="1" stop-color="#f471dc" class="stopColorf48a71 svgShape"></stop></linearGradient><linearGradient id="ag" x1="108.186" x2="153.385" y1="559.634" y2="559.634" gradientTransform="translate(431.01)" gradientUnits="userSpaceOnUse"><stop offset="0" stop-color="#78b5f3" class="stopColorf3b378 svgShape"></stop><stop offset=".243" stop-color="#f077da" class="stopColorf09777 svgShape"></stop><stop offset=".538" stop-color="#ee76d8" class="stopColoree7c76 svgShape"></stop><stop offset=".8" stop-color="#ed6cd6" class="stopColored6c75 svgShape"></stop><stop offset="1" stop-color="#ec66d4" class="stopColorec6675 svgShape"></stop></linearGradient><linearGradient id="ah" x1="558.968" x2="509.281" y1="540.028" y2="553.44" gradientUnits="userSpaceOnUse"><stop offset="0" stop-color="#ec66d4" class="stopColorec6675 svgShape"></stop><stop offset=".284" stop-color="#ee76d8" class="stopColoree8076 svgShape"></stop><stop offset=".752" stop-color="#77b4f2" class="stopColorf2a577 svgShape"></stop><stop offset="1" stop-color="#78b5f3" class="stopColorf3b378 svgShape"></stop></linearGradient></defs><g style="isolation:isolate" fill="#f4f6f8" class="color000000 svgShape"><g fill="#f4f6f8" class="color000000 svgShape"><g data-name="Candle chart" fill="#f4f6f8" class="color000000 svgShape"><path fill="#78b5f3" d="m346.562 293.831-3.683 2.128v-66.487l3.682-2.127.001 66.486z" class="colorf3b378 svgShape"></path><path fill="#d3e2f2" d="m339.195 293.831 3.684 2.128v-66.487l-3.683-2.127-.001 66.486z" class="colord3d8f2 svgShape"></path><path fill="#f7f9fc" d="m339.195 227.344 3.684 2.128 3.682-2.127-3.682-2.128-3.684 2.127z" class="colorf7f7fc svgShape"></path><path fill="#f471dc" d="m360.987 253.254-3.684 2.128v-61.17l3.683-2.127.001 61.169z" class="colorf48a71 svgShape"></path><path fill="#d3e2f2" d="m353.62 253.254 3.683 2.128v-61.17l-3.682-2.127-.001 61.169z" class="colord3d8f2 svgShape"></path><path fill="#f7f9fc" d="m353.62 192.085 3.683 2.127 3.683-2.127-3.683-2.127-3.683 2.127z" class="colorf7f7fc svgShape"></path><path fill="#ec66d4" d="m373.57 261.227-3.683 2.127v-58.825l3.682-2.128.001 58.826z" class="colorec6675 svgShape"></path><path fill="#d3e2f2" d="m366.203 261.227 3.684 2.127v-58.825l-3.683-2.128-.001 58.826z" class="colord3d8f2 svgShape"></path><path fill="#f7f9fc" d="m366.203 202.401 3.684 2.128 3.682-2.128-3.682-2.127-3.684 2.127z" class="colorf7f7fc svgShape"></path><path fill="#78b5f3" d="m389.839 279.121-3.683 2.127-.001-40.928 3.683-2.128.001 40.929z" class="colorf3b378 svgShape"></path><path fill="#d3e2f2" d="m382.472 279.121 3.684 2.127-.001-40.928-3.682-2.128-.001 40.929z" class="colord3d8f2 svgShape"></path><path fill="#f7f9fc" d="m382.472 238.192 3.683 2.128 3.683-2.128-3.683-2.127-3.683 2.127z" class="colorf7f7fc svgShape"></path><path fill="#f471dc" d="m404.263 261.541-3.684 2.128.002-68.394 3.683-2.127-.001 68.393z" class="colorf48a71 svgShape"></path><path fill="#d3e2f2" d="m396.896 261.541 3.683 2.128.002-68.394-3.682-2.127-.003 68.393z" class="colord3d8f2 svgShape"></path><path fill="#f7f9fc" d="m396.898 193.148 3.683 2.127 3.683-2.127-3.683-2.127-3.683 2.127z" class="colorf7f7fc svgShape"></path><path fill="#ec66d4" d="m418.689 227.737-3.683 2.128.002-67.73 3.683-2.127-.002 67.729z" class="colorec6675 svgShape"></path><path fill="#d3e2f2" d="m411.322 227.737 3.684 2.128.002-67.73-3.682-2.127-.004 67.729z" class="colord3d8f2 svgShape"></path><path fill="#f7f9fc" d="m411.325 160.007 3.683 2.128 3.683-2.127-3.683-2.128-3.683 2.127z" class="colorf7f7fc svgShape"></path><path fill="#f471dc" d="m433.114 204.522-3.684 2.128.003-36.572 3.682-2.128-.001 36.572z" class="colorf48a71 svgShape"></path><path fill="#d3e2f2" d="m425.747 204.522 3.683 2.128.003-36.572-3.683-2.128-.003 36.572z" class="colord3d8f2 svgShape"></path><path fill="#f7f9fc" d="m425.749 167.95 3.684 2.128 3.682-2.128-3.682-2.127-3.684 2.127z" class="colorf7f7fc svgShape"></path><path fill="#ec66d4" d="m447.539 223.733-3.683 2.127.002-42.93 3.682-2.127-.001 42.93z" class="colorec6675 svgShape"></path><path fill="#d3e2f2" d="m440.172 223.733 3.684 2.127.002-42.93-3.683-2.127-.003 42.93z" class="colord3d8f2 svgShape"></path><path fill="#f7f9fc" d="m440.174 180.803 3.684 2.127 3.682-2.127-3.682-2.127-3.684 2.127z" class="colorf7f7fc svgShape"></path></g><g data-name="Area charts" fill="#f4f6f8" class="color000000 svgShape"><path fill="url(#g)" d="M110.29 570.943c16.676-10.673 22.682-40.188 42.212-48.882 18.166-8.087 23.63 11.494 37.065 3.737 27.692-15.988 27.155-85.21 74.348-106.722 7.393-3.37 16.046-1.358 23.692 2.735-8.3-5.173-18.264-8.23-26.616-4.423-47.194 21.512-46.657 90.733-74.35 106.721-13.435 7.757-18.898-11.824-37.064-3.737-19.53 8.694-25.536 38.209-42.211 48.882-8.868 5.676-18.542 5.812-25.336 2.659 6.71 4.756 18.023 5.583 28.26-.97Z"></path><path fill="#867ff4" d="m80.29 639.047 226.862-130.98v-67.465c-3.408-9.323-26.542-29.136-43.237-21.526-47.193 21.513-46.656 90.734-74.348 106.722-13.436 7.757-18.9-11.824-37.065-3.737-19.53 8.694-25.536 38.209-42.211 48.882-11.177 7.154-23.653 5.527-30.002-.424Z" class="color7f7ff4 svgShape"></path><path fill="url(#h)" d="m80.29 639.047 226.863-130.98h116.853c16.147 1.968 50.464 15.324 37.283 24.963-37.26 27.247-157.154 26.937-184.846 42.925-13.436 7.758 20.48 10.912 6.472 21.4-15.06 11.275-66.18 14.743-84.666 24.37-12.392 6.453-9.574 13.657.734 17.322Z" opacity=".8"></path><path fill="#7a41aa" d="m77.364 637.358 2.925 1.689v-68.528l-2.925-1.689v68.528z" class="color4141aa svgShape"></path><path fill="#78b5f3" d="m110.17 650.06 226.863-130.98v-95.304c-5.136 10.071-12.142 27.585-25.882 35.517-22.455 12.965-32.564-29.506-56.364-14.5-29.129 18.367-21.575 76.688-63.075 99.652-18.078 10.004-40.47-49.16-57.617-39.261-16.51 9.532-23.925 42.94-23.925 74.24Z" opacity=".8" class="colorf3b378 svgShape"></path><path fill="url(#i)" d="m110.17 650.06 226.863-130.98h165.072c-17.444 2.966-47.779 7.01-61.518 14.943-22.456 12.965 51.106 18.8 25.114 32.542-31.812 16.818-132.826 12.456-172.602 36.417-17.327 10.437 85.15 23.365 68.003 33.264-16.51 9.533-74.373 13.814-128.589 13.814Z" opacity=".8"></path><path fill="url(#j)" d="M311.151 459.293c13.74-7.932 20.746-25.446 25.882-35.517l-2.925-1.689c-5.136 10.072-12.142 27.585-25.881 35.518-6.1 3.52-11.286 2.946-16.084.552 5.621 3.681 11.652 5.384 19.008 1.136Z"></path><path fill="url(#k)" d="M191.712 544.445c41.5-22.964 33.946-81.285 63.075-99.651 7.297-4.601 13.306-3.795 18.779-.845v-.003l-1.556-.9q-.632-.385-1.274-.735l-.094-.054-.001.003c-5.473-2.95-11.482-3.756-18.779.845-29.129 18.367-21.575 76.687-63.075 99.652-2.96 1.638-6.036 1.417-9.185-.046 4.172 2.842 8.24 3.876 12.11 1.734Z"></path><path fill="url(#l)" d="M110.17 579.425c0-31.301 7.415-64.709 23.925-74.241 3.174-1.832 6.529-1.294 10.001.73l.001-.003-2.925-1.689v.003c-3.473-2.024-6.827-2.562-10.001-.73-16.51 9.533-23.926 42.94-23.926 74.241v70.635l2.925 1.689v-70.635Z"></path></g><g data-name="Line graph" fill="#f4f6f8" class="color000000 svgShape"><path fill="#0e00dc" d="M424.891 317.958c-6.885 0-12.618-3.561-17.22-6.42-1.564-.972-3.042-1.89-4.397-2.569l.896-1.788c1.436.72 2.952 1.662 4.557 2.659 6.84 4.247 15.352 9.532 26.387 3.162 13.925-8.039 23.36-35.41 32.482-61.878 9.585-27.807 19.496-56.56 35.148-65.597 15.35-8.864 25.023.162 32.796 7.412 5.782 5.394 10.35 9.652 15.85 6.627 6.778-3.729 11.73-11.993 14.322-23.9l1.956.426c-2.72 12.488-8.015 21.211-15.313 25.226-6.771 3.728-12.312-1.443-18.18-6.917-7.67-7.155-16.366-15.264-30.431-7.141-15.004 8.662-24.791 37.056-34.256 64.515-9.67 28.051-18.802 54.546-33.374 62.96a22.143 22.143 0 0 1-11.223 3.223Z" class="color00d6dc svgShape"></path><path fill="#0e00dc" d="M400.08 310.178a8.048 8.048 0 0 1 3.642-6.307c2.01-1.16 3.64-.22 3.64 2.102a8.048 8.048 0 0 1-3.64 6.307c-2.011 1.16-3.641.22-3.641-2.102ZM563.05 177.982a8.048 8.048 0 0 1 3.64-6.307c2.011-1.16 3.641-.22 3.641 2.102a8.048 8.048 0 0 1-3.64 6.307c-2.012 1.16-3.642.22-3.642-2.102ZM532.425 196.33a8.048 8.048 0 0 1 3.641-6.307c2.011-1.161 3.641-.22 3.641 2.102a8.048 8.048 0 0 1-3.64 6.306c-2.012 1.161-3.642.22-3.642-2.102ZM472.67 231.677a8.048 8.048 0 0 1 3.64-6.307c2.012-1.16 3.642-.22 3.642 2.102a8.048 8.048 0 0 1-3.641 6.307c-2.011 1.16-3.641.22-3.641-2.102Z" class="color00d6dc svgShape"></path></g><g data-name="Flat pie charts" fill="#f4f6f8" class="color000000 svgShape"><path fill="url(#a)" d="m207.061 391.807-4.753-6.733c10.943-13.636 14.677-31.968 8.339-40.945l8.207-10.228c8.963 12.696 3.683 38.621-11.793 57.906Z"></path><path fill="#0e00dc" d="m207.061 391.807-4.753-6.733c10.943-13.636 14.677-31.968 8.339-40.945l8.207-10.228c8.963 12.696 3.683 38.621-11.793 57.906Z" class="color00d6dc svgShape"></path><path fill="#bbd0e6" d="M210.647 344.129c-6.338-8.977-20.347-5.2-31.29 8.436-6.73 8.386-10.72 18.542-11.33 27.212-.383 5.428.55 10.277 2.99 13.734 4.053 5.74 11.245 6.243 18.764 2.31a40.767 40.767 0 0 0 12.527-10.747l4.753 6.733a57.66 57.66 0 0 1-17.715 15.197c-10.634 5.563-20.805 4.853-26.536-3.266-3.452-4.888-4.771-11.746-4.23-19.423.864-12.26 6.506-26.623 16.023-38.482 15.476-19.285 35.288-24.627 44.251-11.932Z" class="colorbbc0e6 svgShape"></path><path fill="#7c3eaf" d="M192.385 367.923c0-.99-.695-1.392-1.553-.896a3.432 3.432 0 0 0-1.553 2.69c0 .99.695 1.391 1.553.896a3.433 3.433 0 0 0 1.553-2.69ZM197.802 364.796c0-.99-.695-1.392-1.553-.897a3.432 3.432 0 0 0-1.553 2.69c0 .99.696 1.391 1.553.896a3.433 3.433 0 0 0 1.553-2.69ZM183.862 372.844a3.432 3.432 0 0 1 1.553-2.69c.857-.495 1.552-.093 1.552.897a3.432 3.432 0 0 1-1.552 2.69c-.858.495-1.553.093-1.553-.897Z" class="color423eaf svgShape"></path><path fill="url(#m)" d="M164.656 398.317v10.951c-12.646 7.302-22.897 25.058-22.897 39.66l-9.485 5.477c0-20.651 14.498-45.763 32.382-56.088Z"></path><path fill="#857dfb" d="M164.656 398.317v10.951c-12.646 7.302-22.897 25.058-22.897 39.66l-9.485 5.477c0-20.651 14.498-45.763 32.382-56.088Z" class="color807dfb svgShape"></path><path fill="#5046e4" d="M164.656 409.268v-10.951c6.448-3.723 12.44-4.981 17.487-4.144l-5.122 12.165c-3.568-.592-7.805.298-12.365 2.93Z" class="color5652cc svgShape"></path><path fill="url(#n)" d="M141.759 448.929c0 14.602 10.251 20.52 22.897 13.22 7.777-4.49 14.637-12.938 18.776-22.17l7.777 1.768c-5.853 13.057-15.554 25.004-26.553 31.354-17.884 10.325-32.382 1.955-32.382-18.696Z"></path><path fill="#dae7f5" d="M187.554 422.488c0-9.338-4.203-15.1-10.533-16.15l5.122-12.165c8.952 1.484 14.896 9.633 14.896 22.84 0 7.95-2.165 16.559-5.83 24.734l-7.777-1.769a43.724 43.724 0 0 0 4.122-17.49Z" class="colordae0f5 svgShape"></path><path fill="#64318f" d="M165.115 433.34a2.108 2.108 0 0 1-3.458-1.996 7.656 7.656 0 0 1 3.458-5.99c1.907-1.101 3.458-.205 3.458 1.997l3.139-1.812c0-3.575-2.147-5.335-5.028-4.488v-2.858l-3.138 1.811v2.859a14.821 14.821 0 0 0-5.027 10.293c0 2.036.686 3.552 1.932 4.271 1.246.719 2.902.555 4.664-.463 1.907-1.1 3.458-.205 3.458 1.997a7.657 7.657 0 0 1-3.458 5.99c-1.907 1.102-3.458.205-3.458-1.997l-3.138 1.812c0 3.575 2.146 5.335 5.027 4.489v2.637l3.138-1.812v-2.637a14.824 14.824 0 0 0 5.028-10.294c0-4.2-2.96-5.908-6.597-3.808Z" class="color34318f svgShape"></path><path fill="#867ff4" d="M303.919 347.697c-2.543 11.181-10.35 22.763-19.592 28.1-6.503 3.754-12.293 3.59-16.042.296l-8.136 12.136c5.65 4.966 14.377 5.211 24.178-.447 13.928-8.042 25.696-25.498 29.528-42.35Z" class="color7f7ff4 svgShape"></path><path fill="#d0e3f6" d="M263.86 363.98c0-13.053 9.163-28.925 20.467-35.451s20.467-1.236 20.467 11.816a33.316 33.316 0 0 1-.875 7.352l9.936-2.265a50.213 50.213 0 0 0 1.32-11.08c0-19.671-13.812-27.645-30.848-17.809s-30.848 33.757-30.848 53.43c0 8.355 2.498 14.59 6.67 18.256l8.136-12.136c-2.768-2.433-4.426-6.57-4.426-12.114Z" class="colord0d4f6 svgShape"></path><path fill="#ec66d4" d="M284.327 334.694c-8.355 4.824-15.128 16.555-15.128 26.203a14.668 14.668 0 0 0 1.096 5.873l14.032-14.608Z" class="colorec6675 svgShape"></path><path fill="#5c55c6" d="M284.327 334.694v17.468l-14.032 14.608c2.235 5.132 7.67 6.534 14.032 2.86 8.355-4.823 15.128-16.554 15.128-26.202s-6.773-13.558-15.128-8.734Z" class="color5555c6 svgShape"></path></g><g data-name="Pie chart" fill="#f4f6f8" class="color000000 svgShape"><path fill="#5c55c6" d="M662.785 407.835c-12.55 7.246-22.725 1.372-22.725-13.12s10.174-32.114 22.725-39.36c10.234-5.909 18.886-3.09 21.731 6.008l11.153-10.382c-4.306-13.768-17.398-18.032-32.884-9.091-18.991 10.964-34.386 37.63-34.386 59.558s15.395 30.817 34.386 19.852a59.72 59.72 0 0 0 13.763-11.263l-4.668-9.646a39.466 39.466 0 0 1-9.095 7.444Z" class="color5555c6 svgShape"></path><path fill="url(#o)" d="M628.399 401.448c0-21.929 15.395-48.594 34.386-59.558 9.593-5.54 18.266-6.006 24.502-2.289l.001-.002-4.909-2.834-.001.002c-6.237-3.717-14.909-3.25-24.503 2.288-18.99 10.965-34.386 37.63-34.386 59.558 0 10.95 3.84 18.648 10.048 22.247l.017.01.014.008 4.878 2.817c-6.208-3.6-10.047-11.297-10.047-22.247Z"></path><path fill="#64318f" d="M676.192 352.68a14.034 14.034 0 0 1 3.415 5.849l4.91 2.834c-1.451-4.638-4.416-7.632-8.325-8.682ZM666.97 397.557a39.468 39.468 0 0 1-9.095 7.444c-5.022 2.9-9.662 3.693-13.423 2.679 4.135 4.122 10.805 4.501 18.333.155a39.468 39.468 0 0 0 9.095-7.444Z" class="color34318f svgShape"></path><path fill="#0c00bf" d="m684.516 361.363-4.909-2.834a23.845 23.845 0 0 1 .993 7.112c0 10.756-5.608 23.233-13.63 31.916l4.91 2.834c8.022-8.682 13.63-21.16 13.63-31.916a23.845 23.845 0 0 0-.994-7.112Z" class="color00b6bf svgShape"></path><path fill="#57a1ec" d="M684.516 361.363a23.844 23.844 0 0 1 .993 7.112c0 10.757-5.607 23.234-13.63 31.916l4.669 9.646c12.138-13.138 20.623-32.018 20.623-48.295a36.08 36.08 0 0 0-1.502-10.761Z" class="color57ecea svgShape"></path></g><g data-name="Window with graphs" fill="#f4f6f8" class="color000000 svgShape"><path fill="url(#b)" d="m644.982 165.02.004-.005-.07-.04c.023.013.043.03.066.045Z"></path><path fill="url(#p)" d="M454.703 407.18V279.071a11.816 11.816 0 0 1 5.326-9.224l181.074-104.543a3.766 3.766 0 0 1 3.705-.392l-2.747-1.586-.004.005c-.974-.637-2.352-.597-3.879.284L457.104 268.158a11.816 11.816 0 0 0-5.326 9.225v128.109a3.952 3.952 0 0 0 1.265 3.232v.002l.017.01a2.547 2.547 0 0 0 .593.342l2.314 1.336.001-.001a3.952 3.952 0 0 1-1.265-3.233Z"></path><path fill="#f7f9fc" d="M646.429 296.488a11.815 11.815 0 0 1-5.326 9.224L460.029 410.255c-2.93 1.691-5.326.308-5.326-3.075V279.071a11.815 11.815 0 0 1 5.326-9.224l181.074-104.543c2.93-1.691 5.326-.308 5.326 3.075Z" class="colorf7f7fc svgShape"></path><path fill="#726ae2" d="m626.014 226.559-2.219-1.281-9.209 15.95-4.999-2.886-11.484 19.89-6.873-3.968-13.924 24.118-8.877-5.125-7.877 13.645-9.548-5.513-9.542 16.527-8.679-5.01-4.549 7.879-9.733-5.62-7.656 13.26-5.223-3.015-13.199 22.862-7.537-4.351-6.201 10.74-12.854-7.421V394.379l169.47-97.844v-43.993l.017-42.098-9.304 16.115z" class="color6a6ae2 svgShape"></path><path fill="url(#c)" d="m467.574 373.749-1.775 1.025v-70.499l1.775-1.025v70.499z"></path><path fill="url(#q)" d="m485.774 363.241-1.775 1.025v-49.483l1.775-1.025v49.483z"></path><path fill="url(#r)" d="m506.51 351.269-1.775 1.025v-66.505l1.775-1.025v66.505z"></path><path fill="url(#s)" d="m533.67 335.588-1.775 1.025v-66.505l1.775-1.025v66.505z"></path><path fill="url(#t)" d="m551.454 325.321-1.776 1.025v-82.1l1.776-1.025v82.1z"></path><path fill="url(#u)" d="m569.317 315.007-1.775 1.025v-55.195l1.775-1.025v55.195z"></path><path fill="url(#v)" d="m592.118 301.843-1.776 1.025v-72.875l1.776-1.025v72.875z"></path><path fill="url(#w)" d="m624.682 283.042-1.775 1.025v-72.876l1.775-1.024v72.875z"></path><path fill="url(#x)" d="m635.318 275.122-1.775 1.025v-84.402l1.775-1.025v84.402z"></path><path fill="#f471dc" d="M634.43 182.22a9.62 9.62 0 0 0-4.346 7.529 3.523 3.523 0 0 0 .742 2.373l-4.709 8.996a3.57 3.57 0 0 0-2.322.549 9.769 9.769 0 0 0-4.254 6.45l-24.057 13.889c-.411-2.04-2.161-2.746-4.254-1.538a9.62 9.62 0 0 0-4.346 7.528 4.172 4.172 0 0 0 .324 1.697l-15.747 21.302a3.068 3.068 0 0 0-3.032.317 7.697 7.697 0 0 0-1.874 1.593L553.846 241.1a8.65 8.65 0 0 0 1.066-3.87c0-2.768-1.95-3.894-4.346-2.51a9.62 9.62 0 0 0-4.346 7.528 3.927 3.927 0 0 0 .433 1.895l-11.035 16.049a3.164 3.164 0 0 0-2.835.39 9.768 9.768 0 0 0-4.253 6.45l-18.654 10.769c-.41-2.04-2.16-2.746-4.253-1.538a9.62 9.62 0 0 0-4.347 7.528 4.079 4.079 0 0 0 .369 1.795l-13.817 19.32a3.108 3.108 0 0 0-2.941.35 8.191 8.191 0 0 0-2.377 2.199l-12.193-7.04a8.191 8.191 0 0 0 .715-3.156c0-2.767-1.95-3.893-4.346-2.51a9.62 9.62 0 0 0-4.346 7.528c0 2.767 1.95 3.893 4.346 2.51a8.192 8.192 0 0 0 2.376-2.197l12.193 7.039a8.19 8.19 0 0 0-.714 3.156c0 2.767 1.949 3.893 4.346 2.509a9.62 9.62 0 0 0 4.346-7.528 4.08 4.08 0 0 0-.369-1.795l13.817-19.32a3.107 3.107 0 0 0 2.942-.35 9.769 9.769 0 0 0 4.253-6.45l18.654-10.77c.41 2.04 2.16 2.746 4.253 1.538a9.62 9.62 0 0 0 4.346-7.527 3.926 3.926 0 0 0-.433-1.895l11.035-16.049a3.164 3.164 0 0 0 2.835-.391 7.694 7.694 0 0 0 1.874-1.592l12.71 11.803a8.65 8.65 0 0 0-1.067 3.87c0 2.768 1.95 3.894 4.346 2.51a9.62 9.62 0 0 0 4.347-7.528 4.172 4.172 0 0 0-.325-1.697l15.748-21.302a3.068 3.068 0 0 0 3.031-.317 9.769 9.769 0 0 0 4.254-6.45l24.057-13.889c.41 2.04 2.161 2.746 4.254 1.538a9.62 9.62 0 0 0 4.346-7.528 3.522 3.522 0 0 0-.743-2.374l4.709-8.995a3.57 3.57 0 0 0 2.323-.55 9.62 9.62 0 0 0 4.346-7.526c0-2.767-1.95-3.894-4.346-2.51ZM466.686 302.739c-1.417.818-2.57.152-2.57-1.485a5.692 5.692 0 0 1 2.57-4.453c1.417-.818 2.571-.152 2.571 1.485a5.692 5.692 0 0 1-2.57 4.453Zm18.2 10.507c-1.416.818-2.57.153-2.57-1.484a5.692 5.692 0 0 1 2.57-4.453c1.418-.818 2.572-.153 2.572 1.484a5.691 5.691 0 0 1-2.571 4.453Zm20.737-28.994c-1.418.819-2.571.153-2.571-1.484a5.691 5.691 0 0 1 2.57-4.453c1.418-.818 2.572-.153 2.572 1.484a5.691 5.691 0 0 1-2.571 4.453Zm27.16-15.68c-1.418.818-2.57.152-2.57-1.485a5.69 5.69 0 0 1 2.57-4.453c1.417-.818 2.57-.152 2.57 1.485a5.692 5.692 0 0 1-2.57 4.453Zm15.212-27.347a5.691 5.691 0 0 1 2.571-4.453c1.417-.818 2.571-.153 2.571 1.484a5.691 5.691 0 0 1-2.571 4.453c-1.417.818-2.57.153-2.57-1.484Zm20.434 18.075c-1.417.818-2.57.153-2.57-1.484a5.691 5.691 0 0 1 2.57-4.453c1.418-.818 2.571-.153 2.571 1.484a5.692 5.692 0 0 1-2.57 4.453Zm22.801-30.844c-1.417.818-2.57.153-2.57-1.484a5.691 5.691 0 0 1 2.57-4.453c1.417-.818 2.571-.153 2.571 1.484a5.691 5.691 0 0 1-2.571 4.453Zm32.565-18.801c-1.418.818-2.571.153-2.571-1.484a5.691 5.691 0 0 1 2.57-4.453c1.418-.819 2.572-.153 2.572 1.484a5.691 5.691 0 0 1-2.571 4.453Zm10.635-19.446c-1.417.818-2.57.153-2.57-1.484a5.691 5.691 0 0 1 2.57-4.453c1.418-.819 2.57-.153 2.57 1.484a5.69 5.69 0 0 1-2.57 4.453Z" class="colorf48a71 svgShape"></path><path fill="#d0e3f6" d="m482.441 268.139-15.755 9.096v-4.1l15.755-9.095v4.099zM505.623 254.755l-9.202 5.313v-4.1l9.202-5.312v4.099zM531.039 240.081l-19.824 11.445v-4.099l19.824-11.445v4.099zM489.616 263.997l-3.55 2.05v-4.1l3.55-2.05v4.1z" class="colord0d4f6 svgShape"></path><path d="m577.408 307.378-85.291 49.243a11.636 11.636 0 0 0-5.245 9.084v29.052l95.782-55.3v-29.05c0-3.332-2.361-4.694-5.246-3.029Z" style="mix-blend-mode:multiply" fill="#dce8f4" class="colordce1f4 svgShape"></path></g><g fill="#f4f6f8" class="color000000 svgShape"><path style="mix-blend-mode:multiply" fill="url(#y)" d="m222.596 671.518 30.883 17.83-30.883 17.831 85.777-17.831-85.777-17.83z"></path><path fill="#f7f9fc" d="M222.596 635.431v71.748l-30.884-17.83 30.884-53.918z" class="colorf7f7fc svgShape"></path><path fill="#d0e3f6" d="M222.596 635.431v71.748l30.883-17.83-30.883-53.918z" class="colord0d4f6 svgShape"></path></g><g fill="#f4f6f8" class="color000000 svgShape"><path fill="#d0e3f6" d="m699.672 268.718-3.425 1.978c-.386-4.007-3.304-5.692-6.966-4.023v-3.954l-1.651.953v3.955a17.806 17.806 0 0 0-6.966 12.065l-3.425 1.977v1.907l3.425-1.977c.385 4.007 3.303 5.692 6.966 4.022v3.954l1.651-.953v-3.955a17.806 17.806 0 0 0 6.966-12.065l3.425-1.977Zm-5.094 2.94-5.297 3.059V268.6c2.75-1.16 4.928.098 5.297 3.059Zm-6.948-2.104v6.116l-5.298 3.059a14.13 14.13 0 0 1 5.298-9.175Zm-5.298 11.082 5.298-3.059v6.117c-2.75 1.16-4.928-.097-5.297-3.058Zm6.95 2.105v-6.117l5.296-3.058a14.128 14.128 0 0 1-5.297 9.175ZM254.868 273.155l-2.57 1.484c-.29-3.007-2.478-4.27-5.226-3.018v-2.967l-1.239.715v2.967a13.36 13.36 0 0 0-5.226 9.053l-2.57 1.483v1.43l2.57-1.483c.289 3.006 2.478 4.27 5.226 3.018v2.967l1.24-.716v-2.967a13.359 13.359 0 0 0 5.225-9.052l2.57-1.483Zm-3.822 2.207-3.974 2.294v-4.59c2.063-.87 3.697.074 3.974 2.296Zm-5.213-1.58v4.59l-3.974 2.294a10.601 10.601 0 0 1 3.974-6.884Zm-3.974 8.314 3.974-2.294v4.589c-2.062.87-3.697-.073-3.974-2.295Zm5.213 1.58v-4.59l3.974-2.294a10.6 10.6 0 0 1-3.974 6.884Z" class="colord0d4f6 svgShape"></path></g><g data-name="Cylinder graph" fill="#f4f6f8" class="color000000 svgShape"><path d="M640.8 478.617a7.606 7.606 0 0 0-3.722-.89h-37.133v6.077h37.133a7.608 7.608 0 0 0 3.721-.89 2.268 2.268 0 0 0 0-4.297Z" style="mix-blend-mode:multiply" fill="url(#d)"></path><path d="M665.591 470.464a7.606 7.606 0 0 0-3.72-.89h-37.134v6.076h37.133a7.61 7.61 0 0 0 3.721-.89 2.268 2.268 0 0 0 0-4.296Z" style="mix-blend-mode:multiply" fill="url(#z)"></path><path fill="url(#e)" d="M619.169 444.794v27.818a2.615 2.615 0 0 0 1.54 2.148 8.225 8.225 0 0 0 7.443 0 2.615 2.615 0 0 0 1.542-2.148v-27.818Z"></path><path fill="#eaf1f9" d="M620.71 442.645a8.224 8.224 0 0 1 7.442 0 2.268 2.268 0 0 1 0 4.297 8.225 8.225 0 0 1-7.442 0 2.268 2.268 0 0 1 0-4.297Z" class="coloreaeef9 svgShape"></path><path d="M635.952 487.885a7.607 7.607 0 0 0-3.72-.89h-19.64v6.076h19.64a7.608 7.608 0 0 0 3.72-.89 2.268 2.268 0 0 0 0-4.296Z" style="mix-blend-mode:multiply" fill="url(#A)"></path><path fill="url(#B)" d="M607.024 475.176v14.857a2.615 2.615 0 0 0 1.541 2.148 8.225 8.225 0 0 0 7.442 0 2.615 2.615 0 0 0 1.542-2.148v-14.857Z"></path><path fill="#78b5f3" d="M608.565 473.028a8.224 8.224 0 0 1 7.442 0 2.268 2.268 0 0 1 0 4.296 8.225 8.225 0 0 1-7.442 0 2.268 2.268 0 0 1 0-4.296Z" class="colorf3b378 svgShape"></path><path fill="url(#C)" d="M594.377 456.255v24.51a2.615 2.615 0 0 0 1.54 2.149 8.225 8.225 0 0 0 7.443 0 2.615 2.615 0 0 0 1.542-2.149v-24.51Z"></path><path fill="#867ff4" d="M595.918 454.107a8.224 8.224 0 0 1 7.442 0 2.268 2.268 0 0 1 0 4.296 8.225 8.225 0 0 1-7.442 0 2.268 2.268 0 0 1 0-4.296Z" class="color7f7ff4 svgShape"></path><path d="M628.654 496.038a7.607 7.607 0 0 0-3.72-.89H587.8v6.077h37.133a7.609 7.609 0 0 0 3.721-.89 2.268 2.268 0 0 0 0-4.297Z" style="mix-blend-mode:multiply" fill="url(#D)"></path><path fill="url(#E)" d="M582.232 475.65v22.537a2.615 2.615 0 0 0 1.541 2.148 8.225 8.225 0 0 0 7.442 0 2.615 2.615 0 0 0 1.542-2.148V475.65Z"></path><path fill="#eaf1f9" d="M583.773 473.502a8.224 8.224 0 0 1 7.442 0 2.268 2.268 0 0 1 0 4.297 8.225 8.225 0 0 1-7.442 0 2.268 2.268 0 0 1 0-4.297Z" class="coloreaeef9 svgShape"></path></g><g data-name="Bar graph" fill="#f4f6f8" class="color000000 svgShape"><path style="mix-blend-mode:multiply" fill="url(#F)" d="M421.442 554.79h-56.67l19.299 11.142-19.299 11.142h56.67l19.298-11.142-19.298-11.142z"></path><path style="mix-blend-mode:multiply" fill="url(#G)" d="M386.296 577.073h-53.414l19.299 11.142-19.299 11.141h53.414l19.298-11.141-19.298-11.142z"></path><path style="mix-blend-mode:multiply" fill="url(#H)" d="M348.619 599.356h-47.627l19.299 11.141-19.299 11.142h47.627l19.298-11.142-19.298-11.141z"></path><path fill="#f471dc" d="m345.472 525.357 19.298 11.141v40.575l-19.298-11.142v-40.574z" class="colorf48a71 svgShape"></path><path fill="#e33cc5" d="m384.069 525.357-19.299 11.141v40.575l19.299-11.142v-40.574z" class="colore33c5c svgShape"></path><path fill="#78b5f3" d="m364.77 514.215-19.298 11.142 19.298 11.141 19.299-11.141-19.299-11.142z" class="colorf3b378 svgShape"></path><path fill="#5046e4" d="m313.583 558.618 19.298 11.142v29.596l-19.298-11.142v-29.596z" class="color5652cc svgShape"></path><path fill="#7c3eaf" d="m352.18 558.618-19.299 11.142v29.596l19.299-11.142v-29.596z" class="color423eaf svgShape"></path><path fill="#6f67e9" d="m332.881 547.476-19.298 11.142 19.298 11.142 19.299-11.142-19.299-11.142z" class="color6b67e9 svgShape"></path><path fill="#0e00dc" d="m281.694 587.285 19.298 11.142v23.212l-19.298-11.141v-23.213z" class="color00d6dc svgShape"></path><path fill="#0c00bf" d="m320.291 587.285-19.299 11.142v23.212l19.299-11.141v-23.213z" class="color00b6bf svgShape"></path><path fill="#57a1ec" d="m300.992 576.143-19.298 11.142 19.298 11.142 19.299-11.142-19.299-11.142z" class="color57ecea svgShape"></path></g><g data-name="Pie chart" fill="#f4f6f8" class="color000000 svgShape"><path fill="#857dfb" d="M376.23 384.798v56.834l-49.22 28.417c0-31.388 22.036-69.557 49.22-85.251Z" class="color807dfb svgShape"></path><path fill="url(#I)" d="m366.937 379.433 33.649 19.427-48.218 85.83-34.651-20.006c0-31.389 22.037-69.557 49.22-85.251Z"></path><path fill="#f471dc" d="M376.23 384.798v56.834l-49.22 28.417c0-31.388 22.036-69.557 49.22-85.251Z" class="colorf48a71 svgShape"></path><path fill="#857dfb" d="m327.01 470.05 49.22-28.418-43.581 51.572c-3.595-5.817-5.64-13.618-5.64-23.155Z" class="color807dfb svgShape"></path><path fill="#eaf1f9" d="M376.23 441.632v-56.834c27.184-15.694 49.22-2.972 49.22 28.417s-22.036 69.557-49.22 85.251c-18.924 10.926-35.344 8.067-43.581-5.262Z" class="coloreaeef9 svgShape"></path><path fill="#f7f9fc" d="M366.937 379.433c13.672-7.894 26.039-8.593 34.958-3.35l8.674 5.007-.007.013c-8.868-4.854-20.975-4.017-34.332 3.695l-9.293-5.365Z" class="colorf7f7fc svgShape"></path><path fill="#a3b9d0" d="M331.255 495.991a25.337 25.337 0 0 1-7.899-8.152l9.293 5.365a25.339 25.339 0 0 0 7.9 8.153Z" class="colora3a9d0 svgShape"></path><path fill="#5046e4" d="M323.356 487.839c-3.595-5.817-5.639-13.618-5.639-23.155l9.293 5.365c0 9.537 2.044 17.338 5.639 23.155Z" class="color5652cc svgShape"></path></g><g fill="#f4f6f8" class="color000000 svgShape"><path d="M448.745 640.603a11.168 11.168 0 0 0-1.161-1.634c-1.58-1.567 2.06-4.19 3.703-5.139.03 0-4.788-2.782-4.788-2.782l-14.16.014a6.391 6.391 0 0 1-1.191-3.699l-6.796-.003c-.001 1.108-.453 3.585-2.328 4.667a3.825 3.825 0 0 1-1.374.47c-.962.189-1.909.414-2.826.68a.512.512 0 0 1-.12-.02q-1.38-.396-2.82-.678c-3.034-.457-3.657-3.798-3.65-5.136l-6.795-.002c-.002 1.107-.453 3.585-2.329 4.666a3.863 3.863 0 0 1-1.373.47c-.962.189-1.908.414-2.826.68-3.13.673-7.227-1.18-8.86-2.129l-4.818 2.783c1.632.948 5.24 3.572 3.644 5.136a10.963 10.963 0 0 0-1.178 1.637 1.908 1.908 0 0 1-.818.794c-1.875 1.081-6.151 1.336-8.07 1.336l-.012 3.934c2.31 0 8.076.37 8.853 2.13a10.774 10.774 0 0 0 1.16 1.635c1.581 1.565-2.059 4.19-3.7 5.138l4.786 2.783c.167-.096.372-.207.595-.323l-.561.323 14.151.015a6.396 6.396 0 0 1 1.162 3.673l26.703.02 6.654-3.698 8.742.009 4.822-2.781c-1.638-.95-5.243-3.574-3.648-5.139a12.15 12.15 0 0 0 .756-.988l4.48.005 4.816-2.782c.006 0 .028-3.933.028-3.933-2.479.097-8.076-.371-8.853-2.132Z" style="mix-blend-mode:multiply" fill="url(#J)"></path><path fill="#f7f9fc" d="M388.275 626.567c-.004-1.528-2.696-3.452-4.042-4.234l.032 11.478c1.347.782 4.04 2.705 4.043 4.233Z" class="colorf7f7fc svgShape"></path><path fill="#bdd0e4" d="m431.406 633.81-.032-11.477c-1.363.786-4.097 2.724-4.09 4.255l.03 11.478c-.003-1.532 2.73-3.469 4.092-4.255Z" class="colorbdc1e4 svgShape"></path><path fill="url(#K)" d="M399.29 639.754c4.72-2.726 12.337-2.726 17.025-.001 2.327 1.352 3.493 3.123 3.5 4.897l-.034-11.478c-.006-1.773-1.172-3.544-3.5-4.897-4.688-2.725-12.304-2.725-17.023 0-2.372 1.37-3.557 3.167-3.552 4.961l.032 11.478c-.003-1.794 1.181-3.592 3.553-4.96Z"></path><path fill="#d0e3f6" d="m388.898 646.857-4.787-2.783.033 11.477 4.788 2.783-.034-11.477z" class="colord0d4f6 svgShape"></path><path fill="#bdd0e4" d="m431.285 655.551-.032-11.477-4.822 2.783.035 11.477 4.819-2.783z" class="colorbdc1e4 svgShape"></path><path fill="url(#L)" d="M397.814 656.206c.915.264 1.858.49 2.819.677 2.994.45 3.64 3.713 3.645 5.086l-.032-11.477c-.006-1.373-.651-4.636-3.645-5.086a32.564 32.564 0 0 1-2.82-.677c-2.698-.92-7.24 1.178-8.883 2.128l.034 11.477c1.642-.95 6.184-3.048 8.882-2.128Z"></path><path fill="url(#M)" d="M413.415 657.349a3.826 3.826 0 0 1 1.365-.465 34.049 34.049 0 0 0 2.82-.676c2.714-.922 7.233 1.176 8.866 2.126l-.035-11.477c-1.631-.95-6.15-3.048-8.862-2.125-.922.262-1.858.487-2.821.674a3.87 3.87 0 0 0-1.367.465c-1.85 1.068-2.242 3.509-2.346 4.673l.033 11.477c.105-1.163.496-3.604 2.347-4.672Z"></path><path fill="#eaf1f9" d="M387.813 638.936c1.58 1.565-2.06 4.189-3.702 5.138l4.787 2.783c1.642-.95 6.185-3.048 8.884-2.128.915.265 1.858.49 2.819.677 3.032.455 3.656 3.798 3.644 5.138h6.79c.104-1.164.497-3.605 2.346-4.673a3.87 3.87 0 0 1 1.367-.465 34.134 34.134 0 0 0 2.82-.674c2.714-.923 7.232 1.175 8.863 2.125l4.822-2.783c-1.634-.948-5.244-3.573-3.647-5.138a11.438 11.438 0 0 0 1.18-1.636 1.898 1.898 0 0 1 .818-.794c1.872-1.082 6.15-1.336 8.06-1.335l.022-3.934c-2.481.098-8.078-.372-8.855-2.133a11.136 11.136 0 0 0-1.16-1.632c-1.58-1.568 2.059-4.19 3.703-5.139l-4.788-2.782c-1.644.948-6.186 3.047-8.882 2.128q-1.38-.396-2.82-.678c-3.034-.457-3.657-3.797-3.65-5.136l-6.795-.003c-.002 1.109-.453 3.586-2.329 4.668a3.86 3.86 0 0 1-1.373.47c-.962.188-1.908.413-2.826.679-3.13.674-7.227-1.18-8.86-2.128l-4.818 2.782c1.632.949 5.24 3.573 3.644 5.137a10.968 10.968 0 0 0-1.178 1.636 1.901 1.901 0 0 1-.818.794c-1.875 1.082-6.151 1.336-8.07 1.336l-.012 3.935c2.31-.001 8.076.37 8.853 2.13a10.826 10.826 0 0 0 1.16 1.635Zm11.445-10.661c4.719-2.725 12.335-2.725 17.024 0 4.684 2.723 4.664 7.137-.056 9.862-4.713 2.722-12.336 2.72-17.02-.003-4.688-2.725-4.662-7.136.052-9.86Z" class="coloreaeef9 svgShape"></path><path fill="#d0e3f6" d="M384.111 644.074c1.642-.95 5.282-3.573 3.702-5.138a10.826 10.826 0 0 1-1.16-1.636c-.778-1.759-6.544-2.13-8.854-2.13l.032 11.478a28.813 28.813 0 0 1 6.288.676Z" class="colord0d4f6 svgShape"></path><path fill="#bdd0e4" d="m411.068 662.021-.033-11.477h-6.79l.033 11.478 6.79-.001z" class="colorbdc1e4 svgShape"></path><path fill="url(#N)" d="m437.696 646.648-.032-11.477c-1.91-.001-6.188.253-8.06 1.335a1.898 1.898 0 0 0-.818.794 11.438 11.438 0 0 1-1.18 1.636c-1.597 1.565 2.013 4.19 3.647 5.138l.009 3.297a28.336 28.336 0 0 1 6.434-.723Z"></path></g><g fill="#f4f6f8" class="color000000 svgShape"><path d="M738.718 566.288c-5.963-3.442-13.887-5.029-21.671-4.796h-12.203v2a32.425 32.425 0 0 0-6.457 2.796c-11.098 6.453-11.032 16.912.134 23.364a32.598 32.598 0 0 0 6.323 2.739v2.09h14.635c7.04-.118 14.017-1.715 19.374-4.827 11.098-6.454 11.044-16.913-.135-23.366Z" style="mix-blend-mode:multiply" fill="url(#O)"></path><path fill="#6bb5ff" d="M678.18 570.395c-.001-4.129 2.724-8.255 8.18-11.406 5.454-3.148 12.602-4.723 19.752-4.723 7.148 0 14.296 1.575 19.749 4.723 5.455 3.15 8.183 7.276 8.184 11.405 0 4.126-2.727 8.253-8.184 11.404-5.451 3.148-12.6 4.721-19.747 4.721-7.149 0-14.298-1.573-19.751-4.722-5.456-3.15-8.182-7.277-8.183-11.402Z" class="colorffc16b svgShape"></path><path fill="url(#P)" d="M725.86 581.798c-5.45 3.148-12.598 4.721-19.746 4.721-7.149 0-14.298-1.573-19.751-4.722-5.456-3.15-8.182-7.277-8.183-11.402v7.96c0 4.126 2.727 8.254 8.183 11.402 5.453 3.15 12.602 4.725 19.751 4.725 7.148 0 14.296-1.573 19.747-4.724 5.457-3.148 8.185-7.277 8.184-11.403v-7.961c0 4.126-2.727 8.253-8.184 11.404Z"></path><path fill="#63aef9" d="M690.073 579.653a35.447 35.447 0 0 0 32.08.001c4.086-2.358 6.283-5.395 6.598-8.485-.315-3.088-2.512-6.122-6.599-8.483a35.446 35.446 0 0 0-32.081 0c-4.087 2.36-6.283 5.394-6.6 8.482.317 3.09 2.513 6.126 6.602 8.485Z" class="colorf9a363 svgShape"></path><path fill="url(#Q)" d="M690.07 562.686a35.446 35.446 0 0 1 32.082 0c4.087 2.36 6.284 5.395 6.599 8.483a7.645 7.645 0 0 0 .044-.775c0-3.353-2.213-6.704-6.643-9.26a35.436 35.436 0 0 0-32.081 0c-4.43 2.556-6.644 5.908-6.644 9.26a7.658 7.658 0 0 0 .044.774c.317-3.088 2.513-6.122 6.6-8.482Z"></path><path fill="#a50b89" d="m717.287 567.064 2.146-1.24v-1.552l-2.146 1.239v1.553z" class="colord14b5f svgShape"></path><path fill="#6bb5ff" d="M707.389 569.656a1.825 1.825 0 0 1 .001-3.458 6.631 6.631 0 0 1 5.99 0c1.653.953 1.653 2.505 0 3.458l2.72 1.57c2.681-1.549 3.073-3.92 1.187-5.715l2.146-1.239-2.718-1.57-2.145 1.239a12.833 12.833 0 0 0-9.898.688c-1.528.881-2.368 2.052-2.366 3.298-.002 1.246.84 2.418 2.366 3.298 1.65.954 1.65 2.506 0 3.461a6.64 6.64 0 0 1-5.992 0c-1.652-.955-1.652-2.507 0-3.46l-2.717-1.57c-2.683 1.55-3.075 3.922-1.191 5.715l-1.978 1.142 2.72 1.57 1.978-1.143a12.846 12.846 0 0 0 9.898-.684c3.149-1.819 3.149-4.78-.001-6.6Z" class="colorffc16b svgShape"></path><path fill="#f471dc" d="m692.794 578.066 2.719 1.571v-1.554l-2.719-1.57v1.553z" class="colorf48a71 svgShape"></path><path fill="#a50b89" d="m695.513 579.637 1.979-1.144v-1.553l-1.979 1.143v1.554z" class="colord14b5f svgShape"></path><path fill="#f471dc" d="m713.381 571.208 2.72 1.57v-1.552l-2.72-1.57v1.552z" class="colorf48a71 svgShape"></path><path fill="#a50b89" d="M698.68 572.778v-1.552c-1.172.677-1.507 1.653-1.017 2.505a2.688 2.688 0 0 1 1.017-.953Z" class="colord14b5f svgShape"></path><path fill="#f471dc" d="m693.605 572.877.003 1.749.003-.004a2.991 2.991 0 0 0 .337 1.225l.824-.476a3.336 3.336 0 0 1-1.163-2.49Z" class="colorf48a71 svgShape"></path><path fill="#ec66d4" d="M704.672 572.777a2.726 2.726 0 0 1 1.018.954c.489-.852.152-1.829-1.018-2.506-1.527-.88-2.368-2.052-2.366-3.298v1.553c-.002 1.246.84 2.416 2.366 3.297Z" class="colorec6675 svgShape"></path><path fill="#fc06cf" d="M709.753 572.947v-.031h-.003c0 .01.003.02.003.031Z" class="colorfcba06 svgShape"></path><path fill="#a50b89" d="M718.452 567.926a3.99 3.99 0 0 1-2.351 3.3v1.552c1.617-.933 2.393-2.165 2.349-3.39l.006.006v-1.468Z" class="colord14b5f svgShape"></path><path fill="url(#R)" d="M707.39 576.256a12.846 12.846 0 0 1-9.898.684v1.553a12.83 12.83 0 0 0 9.898-.686 4.03 4.03 0 0 0 2.362-3.27v.003-1.576a4.023 4.023 0 0 1-2.362 3.292Z"></path><path fill="url(#S)" d="M713.38 566.198a6.631 6.631 0 0 0-5.99 0 2.108 2.108 0 0 0-1.242 1.729 1.547 1.547 0 0 0 .22.776 2.72 2.72 0 0 1 1.022-.953 6.628 6.628 0 0 1 5.99 0 2.691 2.691 0 0 1 1.018.954c.493-.851.155-1.83-1.017-2.506Z"></path></g><g data-name="Window with calendar" fill="#f4f6f8" class="color000000 svgShape"><path fill="#f7f9fc" d="M600.727 392.781a11.636 11.636 0 0 1-5.246 9.085l-85.291 49.242c-2.885 1.666-5.245.303-5.245-3.028v-77.383a11.636 11.636 0 0 1 5.245-9.084l85.291-49.243c2.885-1.666 5.245-.303 5.245 3.028Z" class="colorf7f7fc svgShape"></path><path fill="url(#T)" d="m599.202 312.021-.009-.006.009.006z"></path><path fill="url(#U)" d="M504.945 448.08v-77.383a11.636 11.636 0 0 1 5.245-9.084l85.291-49.243a3.683 3.683 0 0 1 3.697-.363l-2.884-1.665a3.667 3.667 0 0 0-3.721.349l-85.292 49.242a11.636 11.636 0 0 0-5.244 9.085V446.4a3.637 3.637 0 0 0 1.6 3.416l2.795 1.613a3.71 3.71 0 0 1-1.487-3.35Z"></path><g style="mix-blend-mode:multiply" fill="#f4f6f8" class="color000000 svgShape"><path fill="#eaf1f9" d="m518.181 397.039-3.964 2.288v-4.576l3.964-2.289v4.577zM526.472 392.252l-3.964 2.288v-4.576l3.964-2.289v4.577zM534.763 387.465l-3.964 2.289v-4.577l3.964-2.288v4.576zM543.054 382.678l-3.963 2.289v-4.577l3.963-2.288v4.576z" class="coloreaeef9 svgShape"></path><path fill="#bdd0e4" d="m551.345 377.892-3.963 2.288v-4.577l3.963-2.288v4.577z" class="colorbdc1e4 svgShape"></path><path fill="#f471dc" d="m559.636 373.105-3.963 2.288v-4.577l3.963-2.288v4.577zM567.927 368.318l-3.963 2.288v-4.576l3.963-2.289v4.577z" class="colorf48a71 svgShape"></path><path fill="#bdd0e4" d="m518.181 406.613-3.964 2.288v-4.577l3.964-2.288v4.577z" class="colorbdc1e4 svgShape"></path><path fill="#867ff4" d="m526.472 401.826-3.964 2.288v-4.577l3.964-2.288v4.577z" class="color7f7ff4 svgShape"></path><path fill="#bdd0e4" d="m534.763 397.039-3.964 2.288v-4.576l3.964-2.289v4.577zM543.054 392.252l-3.963 2.288v-4.576l3.963-2.289v4.577zM551.345 387.465l-3.963 2.288v-4.576l3.963-2.288v4.576z" class="colorbdc1e4 svgShape"></path><path fill="#f471dc" d="m559.636 382.678-3.963 2.289v-4.577l3.963-2.288v4.576zM567.927 377.891l-3.963 2.289v-4.577l3.963-2.288v4.576z" class="colorf48a71 svgShape"></path><path fill="#bdd0e4" d="m518.181 416.186-3.964 2.289v-4.577l3.964-2.288v4.576zM526.472 411.399l-3.964 2.289v-4.577l3.964-2.288v4.576zM534.763 406.612l-3.964 2.289v-4.577l3.964-2.288v4.576zM543.054 401.826l-3.963 2.288v-4.577l3.963-2.288v4.577z" class="colorbdc1e4 svgShape"></path><path fill="#867ff4" d="m551.345 397.039-3.963 2.288v-4.576l3.963-2.289v4.577z" class="color7f7ff4 svgShape"></path><path fill="#f471dc" d="m559.636 392.252-3.963 2.288v-4.576l3.963-2.289v4.577zM567.927 387.465l-3.963 2.288v-4.576l3.963-2.288v4.576z" class="colorf48a71 svgShape"></path><path fill="#bdd0e4" d="m518.181 425.76-3.964 2.288v-4.576l3.964-2.289v4.577zM526.472 420.973l-3.964 2.288v-4.576l3.964-2.289v4.577zM534.763 416.186l-3.964 2.289v-4.577l3.964-2.288v4.576zM543.054 411.399l-3.963 2.289v-4.577l3.963-2.288v4.576zM551.345 406.612l-3.963 2.289v-4.577l3.963-2.288v4.576z" class="colorbdc1e4 svgShape"></path><path fill="#f471dc" d="m559.636 401.826-3.963 2.288v-4.577l3.963-2.288v4.577zM567.927 397.039l-3.963 2.288v-4.577l3.963-2.288v4.577z" class="colorf48a71 svgShape"></path><path fill="#867ff4" d="m518.181 435.333-3.964 2.289v-4.577l3.964-2.288v4.576z" class="color7f7ff4 svgShape"></path><path fill="#bdd0e4" d="m526.472 430.547-3.964 2.288v-4.577l3.964-2.288v4.577zM534.763 425.76l-3.964 2.288v-4.577l3.964-2.288v4.577zM543.054 420.973l-3.963 2.288v-4.576l3.963-2.289v4.577z" class="colorbdc1e4 svgShape"></path><path fill="#eaf1f9" d="m551.345 416.186-3.963 2.289v-4.577l3.963-2.289v4.577zM559.636 411.399l-3.963 2.289v-4.577l3.963-2.288v4.576zM567.927 406.612l-3.963 2.289v-4.577l3.963-2.288v4.576z" class="coloreaeef9 svgShape"></path></g><path fill="#d0e3f6" d="m534.763 361.78-20.546 11.862v5.791l20.546-11.862v-5.791z" class="colord0d4f6 svgShape"></path><path fill="#bdd0e4" d="m593.104 371.085-16.582 9.574v7.121l16.582-9.573v-7.122zM593.104 383.472l-16.582 9.574v7.122l16.582-9.574v-7.122z" class="colorbdc1e4 svgShape"></path><g style="mix-blend-mode:multiply" fill="#f4f6f8" class="color000000 svgShape"><path fill="#57a1ec" d="M590.04 342.455a5.225 5.225 0 0 1 .731 2.88 13.17 13.17 0 0 1-5.958 10.32c-3.29 1.9-5.958.36-5.958-3.44a13.17 13.17 0 0 1 5.958-10.32v-4.281c-5.339 3.082-9.666 10.578-9.666 16.742s4.327 8.663 9.666 5.581c5.338-3.082 9.666-10.578 9.666-16.742a8.478 8.478 0 0 0-1.186-4.673Z" class="color57ecea svgShape"></path><path fill="#7a41aa" d="m590.04 342.455 3.253-3.933c-1.642-2.51-4.823-3.02-8.48-.908v4.282c2.254-1.302 4.215-.988 5.227.56Z" class="color4141aa svgShape"></path></g></g><g fill="#f4f6f8" class="color000000 svgShape"><path fill="#f7f9fc" d="M434.076 551.49c-2.929-1.692-2.929-4.459 0-6.15l80.35-46.39a11.815 11.815 0 0 1 10.652 0l36.656 21.163c2.929 1.691 2.929 4.459 0 6.15l-80.35 46.39a11.815 11.815 0 0 1-10.652 0Z" class="colorf7f7fc svgShape"></path><path fill="#d0e3f6" d="M548.258 523.619c.001.018.004.034.004.052ZM516.479 512.035l3.437-1.983-3.437-1.985-3.437 1.985 3.437 1.983zM510.692 515.378l3.437-1.984-3.437-1.985-3.436 1.985 3.436 1.984zM504.904 518.719l3.436-1.984-3.436-1.984-3.437 1.984 3.437 1.984zM499.116 522.061l3.437-1.983-3.437-1.986-3.436 1.986 3.436 1.983zM493.328 525.402l3.437-1.983-3.437-1.984-3.435 1.984 3.435 1.983zM487.541 528.744l3.436-1.984-3.436-1.984-3.436 1.984 3.436 1.984zM481.753 532.087l3.436-1.985-3.436-1.985-3.436 1.985 3.436 1.985zM475.965 535.427l3.437-1.984-3.437-1.983-3.436 1.983 3.436 1.984zM470.177 538.769l3.437-1.984-3.437-1.985-3.435 1.985 3.435 1.984zM464.39 542.11l3.436-1.983-3.436-1.985-3.436 1.985 3.436 1.983zM458.603 545.452l3.435-1.984-3.435-1.984-3.437 1.984 3.437 1.984zM452.814 548.794l3.437-1.985-3.437-1.984-3.436 1.984 3.436 1.985zM519.525 516.96l6.179-3.566-3.436-1.985-6.18 3.568 3.437 1.983zM522.722 521.522l8.529-4.926-3.437-1.985-8.529 4.926 3.437 1.985zM526.157 526.22l10.881-6.282-3.436-1.985-10.88 6.283 3.435 1.984zM537.864 527.549l6.178-3.567-4.653-2.687-6.178 3.568 4.653 2.686zM529.335 532.474l6.177-3.568-4.651-2.686-6.179 3.567 4.653 2.687zM520.805 537.398l6.178-3.567-4.652-2.687-6.178 3.568 4.652 2.686zM491.396 554.377l6.178-3.567-4.653-2.686-6.178 3.567 4.653 2.686zM476.941 562.722l12.118-6.995-4.652-2.687-12.118 6.997 4.652 2.685zM499.911 549.461l18.543-10.706-4.654-2.686-18.542 10.706 4.653 2.686zM512.118 521.238l5.056-2.92-3.436-1.984-5.057 2.92 3.437 1.984zM515.314 525.798l5.056-2.919-3.437-1.984-5.056 2.919 3.437 1.984zM518.592 530.406l5.056-2.92-3.436-1.984-5.056 2.919 3.436 1.985zM511.184 534.682l5.057-2.919-3.436-1.984-5.057 2.919 3.436 1.984zM503.777 538.958l5.056-2.918-3.435-1.985-5.056 2.92 3.435 1.983zM496.371 543.235l5.055-2.919-3.436-1.984-5.056 2.919 3.437 1.984zM488.963 547.511l5.056-2.918-3.436-1.984-5.056 2.918 3.436 1.984zM481.556 551.788l5.055-2.919-3.436-1.984-5.056 2.919 3.437 1.984zM469.778 558.587l9.426-5.441-3.436-1.984-9.425 5.441 3.435 1.984zM507.907 530.075l5.056-2.919-3.437-1.984-5.056 2.918 3.437 1.985zM500.499 534.351l5.057-2.919-3.437-1.984-5.056 2.919 3.436 1.984zM493.092 538.628l5.056-2.919-3.437-1.985-5.055 2.919 3.436 1.985zM485.685 542.904l5.056-2.918-3.437-1.985-5.055 2.919 3.436 1.984zM478.277 547.181l5.056-2.919-3.436-1.985-5.056 2.92 3.436 1.984zM464.15 555.337l11.776-6.799-3.436-1.984-11.777 6.799 3.437 1.984zM504.71 525.515l5.057-2.921-3.437-1.982-5.056 2.918 3.436 1.985zM497.304 529.791l5.056-2.92-3.437-1.983-5.056 2.919 3.437 1.984zM489.896 534.068l5.056-2.919-3.437-1.985-5.056 2.919 3.437 1.985zM482.489 538.345l5.056-2.92-3.437-1.984-5.055 2.919 3.436 1.985zM475.081 542.62l5.057-2.918-3.437-1.984-5.055 2.918 3.435 1.984zM467.674 546.897l5.056-2.918-3.436-1.985-5.056 2.919 3.436 1.984zM458.602 552.135l6.721-3.88-3.437-1.984-6.72 3.88 3.436 1.984z" class="colord0d4f6 svgShape"></path><path fill="#bdd0e4" d="m561.734 526.263-80.35 46.39a11.816 11.816 0 0 1-10.652 0l-36.656-21.163a3.737 3.737 0 0 1-2.196-3.073v2.325a3.726 3.726 0 0 0 2.196 3.088l36.656 21.164a11.815 11.815 0 0 0 10.652 0l80.35-46.39a3.694 3.694 0 0 0 2.191-3.14h.006v-2.276a3.736 3.736 0 0 1-2.197 3.075Z" class="colorbdc1e4 svgShape"></path><path fill="url(#V)" d="M428.75 472.323a11.815 11.815 0 0 1 5.326-9.224l80.351-46.39c2.93-1.692 5.326-.308 5.326 3.074v69.942a11.815 11.815 0 0 1-5.326 9.225l-80.35 46.39c-2.93 1.691-5.326.308-5.326-3.075Z"></path><path d="m434.076 545.34 80.351-46.39a11.815 11.815 0 0 0 5.326-9.225v-64.532c-7.196 4.155-4.09 22.755-9.563 25.915-3.846 2.22-4.734-7.827-10.356-4.582-5.917 3.417-8.284 31.517-14.941 35.36-5.326 3.075-6.065-5.733-11.366-2.673-7.1 4.1-6.978 23.376-13.931 27.39-7.25 4.186-12.87-23.132-19.69-19.195-3.832 2.213-8.27 16.395-11.155 24.162v30.695c0 3.383 2.396 4.766 5.325 3.075Z" style="mix-blend-mode:screen" fill="url(#W)"></path><path style="mix-blend-mode:screen" fill="#0e00dc" d="m474.415 517.221-1.775 1.025v-38.521l1.775-1.025v38.521z" class="color00d6dc svgShape"></path><ellipse cx="473.527" cy="479.212" fill="#ffffff" rx="3.524" ry="2.035" transform="rotate(-59.999 473.527 479.212)" class="colorffffff svgShape"></ellipse><path fill="#7a41aa" d="m447.169 464.563-9.986 5.765v-3.869l9.986-5.765v3.869zM446.23 470.116l-9.047 5.223v-2.474l9.047-5.224v2.475z" class="color4141aa svgShape"></path><path fill="url(#X)" d="M428.75 542.265v-69.942a11.815 11.815 0 0 1 5.326-9.224l80.351-46.39a3.754 3.754 0 0 1 3.726-.383l-2.787-1.609-.004.006c-.973-.624-2.343-.58-3.86.297l-80.35 46.39a11.816 11.816 0 0 0-5.326 9.224v69.943c0 1.77.66 2.985 1.705 3.506l2.656 1.533a3.815 3.815 0 0 1-1.436-3.35Z"></path></g><g data-name="Man on block" fill="#f4f6f8" class="color000000 svgShape"><path fill="url(#Y)" d="M530.055 621.877c0-8.61-5.455-8.855-5.455-8.855a22.513 22.513 0 0 1-7.755-1.995c-4.734-1.967-11.409-1.208-7.678 5.674a1.474 1.474 0 0 0 .126.253 3.36 3.36 0 0 0 1.209 1.064l11.922 6.993c1.817 1.037 7.59-1.362 7.63-3.134Z"></path><path fill="#193f6f" d="M530.025 621.106v-.005c-.105 1.774-5.798 4.126-7.601 3.097l-11.922-6.995a10.873 10.873 0 0 1-1.68-1.223c.112.239.205.465.345.721a1.474 1.474 0 0 0 .126.253 3.36 3.36 0 0 0 1.209 1.064l11.922 6.993c1.701.972 6.873-1.072 7.556-2.79a1.912 1.912 0 0 0 .054-.35 6.393 6.393 0 0 0-.009-.765Z" class="color20196f svgShape"></path><path fill="#ffffff" d="M527.836 611.89a50.101 50.101 0 0 0-6.35 1.255 2.742 2.742 0 0 1-.44 1.28c-.052.055-.092.11-.137.168l-.004-.002c-.974.682-1.966 1.754.348 3.206a3.21 3.21 0 0 0 4.169-.295 3.808 3.808 0 0 1 1.345-1.525 3.521 3.521 0 0 1 1.288-.546.736.736 0 0 1 .016-.118s.357-3.423-.235-3.423Z" class="colorffffff svgShape"></path><path fill="#193f6f" d="M574.317 599.214c-2.213-8-3.196-16.468-5.361-25.863-5.171-1.028-46.449-21.076-52.021-10.287a2.621 2.621 0 0 0-.27 1.275h-.001c-1.978 10.046 4.638 49.322 4.638 49.322h.007a1.822 1.822 0 0 0 .921 1.058 5.193 5.193 0 0 0 4.698-.001c.589-.34 1.076-.777 1.13-1.222h.013s2.873-23.364 1.994-33.7c14.187 11.005 35.688 22.273 44.252 19.418Z" class="color20196f svgShape"></path><path fill="url(#Z)" d="M513.126 633.445c0-8.61-5.457-8.857-5.457-8.857a22.537 22.537 0 0 1-7.754-1.992c-4.735-1.968-11.41-1.208-7.68 5.673a1.729 1.729 0 0 0 .129.254 3.353 3.353 0 0 0 1.21 1.061l11.92 6.994c1.817 1.038 7.589-1.361 7.632-3.133Z"></path><path fill="#193f6f" d="M513.093 632.674v-.005c-.103 1.773-5.796 4.125-7.599 3.096l-11.92-6.992a10.91 10.91 0 0 1-1.682-1.225c.11.237.205.464.344.721a1.729 1.729 0 0 0 .128.254 3.353 3.353 0 0 0 1.21 1.061l11.92 6.994c1.7.972 6.873-1.07 7.555-2.79a1.92 1.92 0 0 0 .054-.35 5.578 5.578 0 0 0-.01-.764Z" class="color20196f svgShape"></path><path fill="#ffffff" d="M510.907 623.456a50.048 50.048 0 0 0-6.35 1.256 2.787 2.787 0 0 1-.441 1.281c-.05.055-.093.111-.138.168l-.004-.002c-.973.68-1.965 1.754.35 3.207a3.21 3.21 0 0 0 4.168-.296 3.812 3.812 0 0 1 1.344-1.527 3.471 3.471 0 0 1 1.29-.544.64.64 0 0 1 .013-.118s.358-3.425-.232-3.425Z" class="colorffffff svgShape"></path><path fill="url(#f)" d="M499.733 575.907c-1.978 10.047 4.64 49.322 4.64 49.322h.006a1.826 1.826 0 0 0 .921 1.056 5.186 5.186 0 0 0 4.697 0c.589-.34 1.076-.776 1.132-1.22h.01s2.874-23.365 1.995-33.702c-4.774-3.535-13.4-9.393-13.4-15.456Z"></path><path style="mix-blend-mode:multiply" fill="url(#aa)" d="M630.415 614.106h-62.162l60.969 35.2-60.969 35.204h62.162l60.964-35.204-60.964-35.2z"></path><path fill="#bbd0e6" d="m568.253 684.51 60.969-35.204V603.75l-60.969 35.202v45.558z" class="colorbbc0e6 svgShape"></path><path fill="#cee3f8" d="m568.253 684.51-60.964-35.199v-45.556l60.964 35.197v45.558z" class="colorced3f8 svgShape"></path><path fill="#f1f3f6" d="m568.253 638.952-60.964-35.197 60.964-35.198 60.969 35.193-60.969 35.202z" class="colorf1f1f6 svgShape"></path><path d="M538.172 542.204c-1.395-1.194-1.237-.994-2.81-2.208a3.006 3.006 0 0 1-.153-.903 2.983 2.983 0 0 0-.963-.288 8.072 8.072 0 0 1-2.883-.24v.001c-1.057-.27-3.351-6.61-8.782-6.295 1.51 1.211 3.53 3.72 3.107 3.456a1.965 1.965 0 0 0-2.474.211 20.6 20.6 0 0 0 6.44 3.41 8.075 8.075 0 0 0 2.882.24 2.983 2.983 0 0 1 .963.287 3.005 3.005 0 0 0 .153.904 87.352 87.352 0 0 1 2.903 2.362c.25-.145 1.352-.781 1.617-.937Z" style="mix-blend-mode:multiply" fill="url(#ab)"></path><path d="M510.002 549.659a3.006 3.006 0 0 1-.14-.718c-5.112.313-6.482-3.135-8.03-4.69-1.551-1.557-1.907-2.104-3.643-2.104-1.736 0-3.06-1.383-1.403-2.424.407-.255.863-.497 1.289-.708a3.337 3.337 0 0 0-.318.13 24.8 24.8 0 0 0-2.681 1.36c-1.658 1.042-.333 2.425 1.403 2.425 1.737 0 2.092.547 3.643 2.104 1.548 1.554 2.917 5.003 8.03 4.69a3.017 3.017 0 0 0 .14.718c3.089 2.383 3.766 3.284 6.445 5.295l1.825-1.021c-2.626-1.992-3.53-2.72-6.56-5.057Z" style="mix-blend-mode:multiply" fill="url(#ac)"></path><path fill="url(#ad)" d="M551.089 550.588a15.759 15.759 0 0 0 4.973.32 6.105 6.105 0 0 0 1.243-.243 6.797 6.797 0 0 1-2.953 1.027 15.882 15.882 0 0 1-4.37-.207c.366-.293.734-.588 1.107-.897Z"></path><path fill="url(#ae)" d="M552.025 584.919c-5.172-1.028-46.449-21.075-52.02-10.287a2.621 2.621 0 0 0-.27 1.275h-.002c0 6.063 8.627 11.92 13.401 15.456 14.188 11.006 35.69 22.275 44.253 19.42 13.867-4.628 20.845-8.28 25.257-17.712 1.45-3.096 1.751-11.768 1.751-15.478-15.337-7.598-27.324-.751-32.37 7.326Z"></path><path fill="#a9d2fc" d="M522.823 530.341a24.82 24.82 0 0 1 2.68-1.36 6.707 6.707 0 0 1 5.27.369c.769.533 5.538 3.461 6.445 5.351 0 0 1.79.926 2.487 1.284l-2.62 4.006a13.003 13.003 0 0 0-2.839-1.186 8.072 8.072 0 0 1-2.883-.24v.001a20.606 20.606 0 0 1-6.439-3.41c1.274-1.151 2.684.124 3.64.634a4.845 4.845 0 0 0-.695-.92c-1.551-1.558-1.907-2.105-3.642-2.105-1.737 0-3.062-1.383-1.404-2.424Z" class="colorfcd1a9 svgShape"></path><path fill="url(#af)" d="M535.361 539.996c-.92-2.741 2.338-5.154 4.263-4.972 8.998 3.922 13.362 6.256 16.438 5.347 12.94-6.048 7.666 9.866 0 10.538-8.972.787-13.525-5.378-20.7-10.913Z"></path><path fill="#a50b89" d="M572.822 519.768c6.508 1.424 14.664 5.584 9.238 16.928-3.704 7.744-9.238-16.928-9.238-16.928Z" class="colord14b5f svgShape"></path><path fill="url(#ag)" d="M571.637 595.54c-12.746 7.152-30.055 4.54-32.441-5.511 8.678-29.117 10.632-48.474 10.425-60.314 5.623-4.341 10.413-8.2 14.532-9.123 4.302-.963 9.993-1.708 12.503.697 7.824 10.553 5.783 28.801 7.74 56.304-1.347 8.804-6.482 14.427-12.76 17.947Z"></path><path fill="#a9d2fc" d="M570.096 520.285c-2.17-2.047-2.83-5.354-3.19-9.1a18.384 18.384 0 0 0-.47-6.5c-2.03-8.029-8.77-13.247-15.056-11.657-6.284 1.589-9.735 9.384-7.706 17.41a16.48 16.48 0 0 0 14.265 12.158c.292.634-.81 1.547-1.832 2.207 4.802 1.275 9.254-1.243 11.617-2.528a5.146 5.146 0 0 0 2.372-1.99ZM514.01 545.105c-.697-.359-1.835-.954-1.835-.954-.02-.405-1.44-4.91-5.28-6.04-.79 1.197.569 2.168 1.677 3.288-1.332-1.066-3.067-2.133-3.835-2.667a6.708 6.708 0 0 0-5.27-.37 24.818 24.818 0 0 0-2.681 1.361c-1.658 1.041-.333 2.424 1.403 2.424s2.092.547 3.643 2.104c1.55 1.557 2.921 5.017 8.057 4.689a2.15 2.15 0 0 1 1.16.434Z" class="colorfcd1a9 svgShape"></path><path fill="url(#ah)" d="M510.002 549.659c-.92-2.741 2.338-5.155 4.262-4.972 8.998 3.922 13.363 6.255 16.439 5.347 12.939-6.048 15.708-17.348 18.918-20.319 7.22-5.138 15.912 6.231 6.444 16.475-9.992 9.358-17.696 13.71-25.362 14.382-8.973.786-13.526-5.378-20.701-10.913Z"></path><path fill="#193f6f" d="M568.06 503.131c0-.007.01-.003.007-.013-1.349-4.012-3.314-7.474-6.661-9.697-8.787-5.834-12.395-5.257-13.235-3.92-9.436-1.15-11.537 3.856-5.08 11.002 1.839 2.45 1.01 9.223 4.28 10.212-.38-1.537 1.982-5.909 3.707.913.185.733-.326 1.015.402 1.864.73.849 4.444 2.515 7.006 4.04 3.575 2.133 4.604-.852 9.448-1.53a7.777 7.777 0 0 1 .152-4.613 22.125 22.125 0 0 0-.025-8.258Z" class="color20196f svgShape"></path></g></g></g></svg>