<svg xmlns="http://www.w3.org/2000/svg" enable-background="new 0 0 110 110" viewBox="0 0 110 110" id="BotanyExperiment"><g fill="#f4f6f8" class="color000000 svgShape"><path fill="#4239c9" d="M16.4811306,61.4230537l0.0087414,4.9861565
															c0.0124607,4.3987656,2.9029274,8.7894058,8.6752071,12.1438828
															c11.6391582,6.7639465,30.5535755,6.7640305,42.2689056,0.0001831
															c5.8902359-3.4007263,8.83255-7.8638,8.8199158-12.3208389l-0.0087128-4.9861412
															c0.012619,4.4570274-2.9296951,8.9201012-8.8199387,12.3208351
															c-11.7153206,6.7638397-30.6297379,6.7637558-42.268898-0.0001831
															C19.3840675,70.2124634,16.4936008,65.8218231,16.4811306,61.4230537z" class="color39c988 svgShape"></path><path fill="#5349e4" d="M25.3101025,49.0924797c-11.7153225,6.7638474-11.7769623,17.719799-0.1537552,24.4744682
															c11.6391621,6.7639389,30.5535793,6.7640228,42.268898,0.0001831
															c11.7072906-6.7592087,11.7689514-17.7151413,0.1297913-24.479084
															C55.9318352,42.3333778,37.0173912,42.3332748,25.3101025,49.0924797z" class="color49e4a3 svgShape"></path><path fill="#5046e4" d="M21.5163021,58.7321281l0.007225,2.5457191
															c0.0103016,3.6359482,2.3995152,7.2651749,7.1707878,10.037941
															c9.6207447,5.5909653,25.2550983,5.5910339,34.938797,0.0001526
															c4.8687782-2.8109894,7.3008461-6.5000992,7.2904015-10.1842117l-0.0072021-2.5457077
															c0.010437,3.6841087-2.4216385,7.3732147-7.2904167,10.1842041
															c-9.6837006,5.590889-25.3180542,5.5908127-34.938797-0.0001526
															C23.9158249,65.9973145,21.5266113,62.368084,21.5163021,58.7321281z" class="color457aef svgShape"></path><path fill="#5a4fff" d="M28.8141899,48.5398712c-9.6836987,5.590889-9.7346478,14.6469002-0.1270924,20.2302017
															c9.6207447,5.5909653,25.2550983,5.5910416,34.938797,0.0001526
															c9.6770592-5.5870514,9.7280312-14.6430511,0.1072845-20.2340164
															C54.1256256,42.9529076,38.4912453,42.9528198,28.8141899,48.5398712z" class="color4f91ff svgShape"></path><path fill="#5046e4" d="M29.4127998,48.3051605c-9.5415783,5.5088348-9.5917797,14.4319382-0.125227,19.9332962
															c9.4795475,5.5089111,24.8844509,5.5089874,34.4260254,0.0001526
															c9.5350342-5.5050545,9.5852585-14.4281464,0.1057091-19.9370575
															C54.3527565,42.80019,38.947834,42.800106,29.4127998,48.3051605z" class="color457aef svgShape"></path><path fill="#0c2340" d="M23.1734066,58.7016754c-0.0103245,2.1246567,1.0004787,4.2080841,2.8879375,6.0645676
															c7.6207581,7.4536133,25.9087219,8.8389893,36.7380486,2.5681458
															c1.4026718-0.804451,2.5990524-1.6914291,3.5582352-2.6403503
															c1.8874588-1.8564835,2.898201-3.9399109,2.9085236-6.0748291c0-3.7866516-3.1137924-6.7682076-6.3636475-8.6533623
															c-4.3937225-2.557888-10.2932358-3.9605598-16.6053276-3.9605598
															c-6.3018303,0-12.2219887,1.4026718-16.6569443,3.9708824
															C26.3074245,51.8971291,23.1734066,54.8907547,23.1734066,58.7016754z" class="color1d2943 svgShape"></path><g fill="#f4f6f8" class="color000000 svgShape"><path fill="#3c9dff" d="M23.745348,52.3000107v6.6445847c-0.0100307,1.9943695,0.7616825,3.9987679,2.3150787,5.8227768
													c7.9930592,7.7377167,26.2685108,8.6172256,36.7406006,2.5656281
													c1.4031029-0.8017502,2.5957222-1.693718,3.5577965-2.635788
													c1.4231644-1.6636848,2.1948166-3.4676323,2.3051071-5.2916412
													c0.0099716-0.1502953,0.0200043-0.3106804,0.0200043-0.4609756v-6.6445847H23.745348z" class="colorffb63c svgShape"></path></g><g fill="#f4f6f8" class="color000000 svgShape"><path fill="#6cb5ff" d="M23.8254795,52.6769447c0,0,0.5712624,1.6135254,0.94207,2.2048492
												c0.3608379,0.5912628,0.3508072,0.8418121,1.7338467,0.9019432
												c1.3830414,0.0500984,2.0544968,0.0801926,2.856245,0.9020042
												c0.811779,0.8218117,2.8662739,2.1747551,4.2493153,2.1647224
												c1.3730087-0.0100327,3.0467262-0.7917137,4.4397354,0.0500984
												c1.4031029,0.8619385,3.0567589,1.9843979,5.2816086,1.8139763
												c2.2048531-0.1603241,4.740387-1.2226524,7.2960434-0.9821358
												c2.5555954,0.2304878,4.2793503,0.0701637,4.2793503,0.0701637s4.7805099-0.5411644,6.0533218-1.523365
												c3.2091522-2.4570198,4.8953934-1.5920448,6.4741669-4.0188293
												c0.6818619-1.0956154,1.3776093-1.2756691,1.2427216-2.2649155
												c-0.0501022-0.2806473-0.1502991-0.6213608-0.3708115-0.9822006
												c-0.6413574-1.0522957-0.6313934-2.3251076-1.3328781-3.1769524
												c-0.7015533-0.841877-1.2126846-1.3529472-2.7861481-1.332943
												c-1.5734596,0.0200653-2.5255585-1.3529434-3.6279564-1.8540459
												c-1.1124268-0.4810333-5.2615471-1.5032959-6.8350067-1.3930702
												c-1.5834923,0.1202583-4.9808998-0.0701599-5.9229698-0.3708076
												c-0.9220695-0.2906189-3.3172798-0.9220085-4.2293129-0.9921684
												c-1.8064041-0.0992317-5.2921066,1.4375114-7.0454292,1.6636238
												c-0.6213608,0.0701599-4.3796082,1.4431686-4.3796082,1.4431686s-3.5076981,0.6113892-4.0388927,0.94207
												c-0.5411644,0.3407745-0.8819408,0.8719101-1.5133305,1.0522957
												c-0.6113262,0.1704216-1.783884,0.6313934-2.1847878,1.5333977
												C23.9958973,49.4498291,23.5549278,51.3339691,23.8254795,52.6769447z" class="colorffca6c svgShape"></path></g><g fill="#f4f6f8" class="color000000 svgShape"><path fill="#4239c9" d="M64.3559418,26.037569c0,0-0.3091888-0.0159187-0.8240738,0.0690613
											c-1.1041489,0.1699944-3.1625862,0.7649555-5.2551918,2.8314037
											c-3.073925,3.0385857-7.0400848,4.7331734-11.4431915,3.7929077
											c-4.3746529-0.924284-3.0533028-10.3585072,4.1104279-11.0334167c0,0,9.0498505-0.9827404,13.2965202,4.2019558
											C64.2804642,25.9419537,64.3208618,25.9897785,64.3559418,26.037569z" class="color39c988 svgShape"></path><path fill="#5349e4" d="M64.3559418,26.037569c0,0-0.3091888-0.0159187-0.8240738,0.0690613
											c-1.1041489,0.1699944-3.1625862,0.7649555-5.2551918,2.8314037
											c-3.073925,3.0385857-7.0400848,4.7331734-11.4431915,3.7929077
											c-0.3772011-0.0796967-0.7108498-0.2231026-1.0005913-0.4249687
											c-1.7654228-2.8792267,0.2381706-9.1263275,6.0027466-9.6681805c0,0,7.9003448-0.8552551,12.4047928,3.2616882
											C64.2804642,25.9419537,64.3208618,25.9897785,64.3559418,26.037569z" class="color49e4a3 svgShape"></path><path fill="#4239c9" d="M48.8295593,27.0742149c0.0999985-0.0518589,2.9395294-2.9855461,7.2829247-2.4998875
											c1.2282524,0.0141602,3.3275642,0.7469788,3.4401741,0.7804832c0.1250992,0.03722,0.0909615,0.2217712-0.0360947,0.196703
											c-0.1015854-0.0200424-2.2131577-0.5536842-3.3868561-0.4531975
											c-4.0092735-0.0821819-6.282917,2.8137627-6.3829384,2.8791065
											c-0.2875748,0.360054-0.8387871,0.953207-1.2898102,1.8971939l-0.0171432,0.0358772
											c-0.1723785,0.360836-0.6153374,0.4939861-0.9893379,0.2974033
											c-0.374012-0.1965809-0.5374527-0.6484509-0.3650551-1.0092716
											C47.4421768,28.4519806,48.4070549,27.5017757,48.8295593,27.0742149z" class="color39c988 svgShape"></path><g fill="#f4f6f8" class="color000000 svgShape"><path fill="#4239c9" d="M48.9837875,52.9883118c0.0179825,0.743721-0.1659012,1.4874382-0.8829384,1.8061562
										c-1.3508377,0.6109161-3.311676,0.8393326-4.8191185,0.2231026c-0.050663,0-0.4603348-0.1697884-0.7208214-0.3718262
										c-1.0003738-0.6587372-0.5810623-2.6454887-0.5450211-2.8207703
										c0.2927322-1.4183731,1.7733574-13.8270569,1.6287308-21.9281368
										c0.4694595-0.3665428,0.9445915-0.727766,1.4257545-1.0783558
										c0.4705276-0.3506222,0.5758667-0.6958961,1.0520668-1.0412006
										c0.6673698,7.2617474,1.8795624,21.104723,2.524929,23.362402
										C48.737442,51.4531174,48.9640274,52.218071,48.9837875,52.9883118z" class="color39c988 svgShape"></path></g><g fill="#f4f6f8" class="color000000 svgShape"><path fill="#5349e4" d="M48.9837875,52.9883118c-2.0980072,0.7182579-4.1525841,0.3065834-5.0066872-0.3559074
										c-1.0003433-0.6587029-0.5810623-2.6454544-0.5449905-2.8207664
										c0.2746696-1.3705521,1.6821823-13.2055092,1.6382637-20.9931564
										c0.4705276-0.3506222,0.5758667-0.6958961,1.0520668-1.0412006
										c0.6673698,7.2617474,1.8795624,21.104723,2.524929,23.362402
										C48.737442,51.4531174,48.9640274,52.218071,48.9837875,52.9883118z" class="color49e4a3 svgShape"></path></g><g fill="#f4f6f8" class="color000000 svgShape"><path fill="#4239c9" d="M34.5970612,33.8828087c-2.5099792-0.3815651-4.528656,0.1765175-5.8752289,1.11026l0.0003567,0.0053177
								c-0.4365463,0.3027649-0.648941,0.5418205-0.648941,0.5418205
								c0.1027489-14.3960037,11.2062511-10.5765419,15.0089931-8.8447647
								c1.4689293,0.6640949,2.3651085,1.6533852,2.7838211,2.6189022
								C47.6049919,33.383461,38.5042267,34.4777718,34.5970612,33.8828087z" class="color39c988 svgShape"></path></g><g fill="#f4f6f8" class="color000000 svgShape"><path fill="#5349e4" d="M34.5970612,33.8828087c-2.5099792-0.3815651-4.528656,0.1765175-5.8752289,1.11026
								c0.8605747-12.6005154,11.2964439-8.9935226,14.9567909-7.3255215
								c1.0654449,0.4816837,1.8929977,1.2050591,2.187439,1.6467972
								C47.6049919,33.383461,38.5042267,34.4777718,34.5970612,33.8828087z" class="color49e4a3 svgShape"></path></g><g fill="#f4f6f8" class="color000000 svgShape"><path fill="#4239c9" d="M33.3973007,30.4188156c-1.2912788,0.6518669-2.3594418,1.9834328-2.2712269,1.8834152
							c-0.0617619,0.0700264-0.1765938-0.0226288-0.1236267-0.0995216c0.5767803-0.8300781,1.2477207-1.6306362,2.1193027-2.2031765
							c2.6562767-1.7828102,6.2891045-2.0495129,9.2967339-1.4780006c0.4088593,0.0776939,0.6992416,0.4678974,0.6486053,0.8715305
							c-0.0544281,0.4338856-0.4776535,0.7003689-0.9105186,0.5710449
							C39.4016876,29.1410446,36.035656,29.0576935,33.3973007,30.4188156z" class="color39c988 svgShape"></path></g></g><g fill="#f4f6f8" class="color000000 svgShape"><path fill="#9eb3c9" d="M68.6864853,58.8801346c-0.0100098,1.9800415-0.7800293,3.9500122-2.3300781,5.7600098
								c-0.9599609,0.9400024-2.1499023,1.8300171-3.5600586,2.6300049
								c-10.4183578,6.0305405-28.6407204,5.1984177-36.7399902-2.5599976
								c-1.5500488-1.8300171-2.3200684-3.8300171-2.3100586-5.8300171V34.5101395
								c0-0.8800049,0.0500488-6.7600117,0.1601563-7.619997c0.0898438-0.8099976,0.2199707-1.6099854,0.3999023-2.3900146
								c2.2316914-9.9968977,11.1783104-17.5,21.920166-17.5c11.2465858,0,20.9390182,8.4122992,22.2998047,19.8600464
								C68.7709198,28.7927399,68.6630402,44.2894669,68.6864853,58.8801346z" opacity=".15" class="color9ea9c9 svgShape"></path></g><g fill="#f4f6f8" class="color000000 svgShape"><path fill="#6822a2" d="M21.8275146,74.0904312c-0.5023785-0.2900543-0.912672-0.0542145-0.9143143,0.5250778
													s0.4059811,1.2853241,0.9083595,1.5753708s0.914423,0.0572586,0.9160652-0.5220413
													C22.7392673,75.0895462,22.3298931,74.3804779,21.8275146,74.0904312z" class="color4f575f svgShape"></path><path fill="#2a2e34" d="M21.180254,74.0283127c0.1656628-0.0966415,0.394804-0.0828247,0.6460533,0.06073
							c0.5024834,0.2926559,0.9138508,0.9994431,0.911087,1.5792313c0,0.2871323-0.10215,0.4914322-0.2650509,0.5853119
							l0.4627018-0.267807c0.1656628-0.0966263,0.2678146-0.2981796,0.2678146-0.5853119
							c0-0.5797729-0.4086208-1.2893219-0.911087-1.5792084c-0.2512493-0.1463394-0.4804077-0.1573792-0.6460533-0.0635147
							L21.180254,74.0283127z" class="color2a3134 svgShape"></path></g><g fill="#f4f6f8" class="color000000 svgShape"><path fill="#bbd5ef" d="M86.5873642,91.6357498L82.73629,89.3966141c-0.9755859-0.5673828-2.1904297-0.5703125-3.1679688-0.0092773
					l-13.8935547,7.9682617c-0.5771484,0.331543-1.2919922,0.3295898-1.8691406-0.0058594L46.776329,87.4454422
					c-0.9726563-0.565918-2.1835938-0.5712891-3.1601563-0.0146484l-14.5126953,8.2617188
					c-0.5751953,0.328125-1.2900391,0.324707-1.8632813-0.0083008l-16.9433594-9.8447266
					c-1.2404785-0.722229-1.239502-2.5117188,0.0019531-3.2324219l11.6337891-6.7358398
					c0.3105469-0.1796875,0.4169922-0.5771484,0.2373047-0.8876953c-0.1796875-0.3100586-0.5761719-0.4169922-0.8876953-0.2363281
					L9.6483994,81.4830399c-2.1049805,1.2189331-2.1083984,4.2577515-0.0039063,5.4794922l16.9433594,9.8447266
					c0.9726563,0.5654297,2.1835938,0.5712891,3.1582031,0.0141602L44.2587509,88.5597
					c0.578125-0.3276367,1.2919922-0.3242188,1.8642578,0.0087891l17.0302734,9.9042969
					c0.9719238,0.5662842,2.1884766,0.5722656,3.1679688,0.0097656l13.8935547-7.9682617
					c0.5791016-0.3310547,1.2939453-0.328125,1.8691406,0.0053711l3.2946777,1.9155273
					C85.7738876,92.1587601,86.1779404,91.8933182,86.5873642,91.6357498z" class="colorbbcfef svgShape"></path></g><g fill="#f4f6f8" class="color000000 svgShape"><path fill="#0c2340" d="M84.4406357,92.5757523l0.4155273,0.241333c0.7458496-0.5569458,1.532959-1.0693359,2.331543-1.5561523
								l-1.4863281-0.8638916C84.8537216,89.9166336,83.6317978,92.1039505,84.4406357,92.5757523z" class="color1d2943 svgShape"></path><polygon fill="#f4f6f8" points="96.284 93.829 89.408 89.833 91.215 90.245 98.092 94.241" class="colorebf2ff svgShape"></polygon><polygon fill="#dbeafa" points="90.877 96.951 84 92.955 89.408 89.833 96.284 93.829" class="colordbe6fa svgShape"></polygon><polygon fill="#f4f6f8" points="89.078 99.445 82.201 95.449 84 92.955 90.877 96.951" class="colorebf2ff svgShape"></polygon><polygon fill="#bbd5ef" points="89.083 101.51 82.207 97.514 82.201 95.449 89.078 99.445" class="colorbbcfef svgShape"></polygon><polygon fill="#cbdff4" points="96.284 93.829 98.092 94.241 98.098 96.535 96.298 98.799 90.891 101.921 89.083 101.51 89.078 99.445 90.877 96.951" class="colorcbdbf4 svgShape"></polygon><g fill="#f4f6f8" class="color000000 svgShape"><path fill="#3d4249" d="M97.892807 102.6498032c-.197876.3391953-.6293716.4467773-.9643326.2569046-1.1678696-.6790695-5.4155731-3.1469421-5.1455231-2.9897461l-.0632935-.0372467-.0037231-.0037079c-.3746338-.3330917.2583313-1.3984451.7111511-1.2212296.0037003.0037231.0111542.0037231.0148849.0074539.0186081.007431.0372238.0186081.0521317.0297699l.0037003.0037231 5.1418228 2.9860458C97.9747009 101.8790894 98.090126 102.3110046 97.892807 102.6498032zM101.8357086 99.7717438c-.2006073.3439026-.6453323.4468079-.9680405.2531815-.1002655-.058197-5.3093719-3.0815887-4.9779739-2.8892441 0-.0037231-.0037231-.0037231-.0037231-.0037231-.4150314-.3494415.3365326-1.5154724.774437-1.1877136l4.918396 2.8594666C101.9176254 99.00103 102.0330505 99.4329453 101.8357086 99.7717438z" class="color3d4449 svgShape"></path></g></g><g fill="#f4f6f8" class="color000000 svgShape"><path fill="#9eb3c9" d="M68.0963974,24.4001522c-3.1398926-9.0700073-11.75-15.5900269-21.869873-15.5900269
						c-10.1101074,0-18.8000488,6.4900513-21.920166,15.6900024c2.2316914-9.9968977,11.1783104-17.5,21.920166-17.5
						C56.7183342,7.0001278,65.7661362,14.3024845,68.0963974,24.4001522z" opacity=".15" class="color9ea9c9 svgShape"></path><g opacity=".8" fill="#f4f6f8" class="color000000 svgShape"><path fill="#ffffff" d="M31.5805225 20.1149082c.8491421 0 1.539957-.6908131 1.539957-1.5399551 0-.849144-.690815-1.539957-1.539957-1.539957s-1.5400467.6908131-1.5400467 1.539957C30.0404758 19.4240952 30.7313805 20.1149082 31.5805225 20.1149082zM38.9600449 16.8197594c.4276924-.0827827.8244553-.3738289.8941689-.6514721.0697136-.2776423-.2197876-.4379387-.6425018-.357316-.4227142.0806236-.8244553.3738279-.8941689.6514711C38.2478218 16.7400684 38.5373306 16.9003811 38.9600449 16.8197594zM33.6239471 35.7024765c0-.2240181-.3644981-.4062653-.8125343-.4062653s-.8125801.1822472-.8125801.4062653C31.9988327 36.2397423 33.6239471 36.2391663 33.6239471 35.7024765zM30.2668743 27.1727428c.4480362 0 .8125343-.3644962.8125343-.8125324s-.3644981-.8125324-.8125343-.8125324-.8125801.3644962-.8125801.8125324S29.8188381 27.1727428 30.2668743 27.1727428zM26.6981068 32.5829353c.3213997 0 .5828724-.2614708.5828724-.5828705s-.2614727-.5828705-.5828724-.5828705c-.3213978 0-.5829048.2614708-.5829048.5828705S26.376709 32.5829353 26.6981068 32.5829353zM41.5928688 49.1652679c.4826508 0 .8753052-.2331352.8753052-.5197029s-.3926544-.5197029-.8753052-.5197029c-.4826469 0-.8753548.2331352-.8753548.5197029S41.1102219 49.1652679 41.5928688 49.1652679zM34.7100334 42.9083366c.3842659.5195618.9478607.7566299 1.2563553.5284729.3084946-.2281609.2468491-.8364639-.1374207-1.3560295-.3842697-.5195618-.9479027-.7566872-1.2563972-.5285263C34.2640762 41.7804108 34.3257637 42.3887711 34.7100334 42.9083366zM53.85355 23.804863c.2467194.2855053.6298561.3601456.854084.1663837.2242279-.1937599.2059288-.5836658-.0407906-.8691711-.2467194-.2855072-.6298828-.360178-.8541107-.1664162C53.5885048 23.1294193 53.6068306 23.5193558 53.85355 23.804863zM52.3625107 17.1496162c.4668236.1106701.9173241-.0975647 1.0042534-.4641933s-.2221298-.7549314-.6889496-.8656015c-.4668236-.1106701-.9173737.0975513-1.004303.4641809C51.5865822 16.650631 51.8956909 17.0389462 52.3625107 17.1496162zM41.5249062 12.2480955c.3767891 0 .6833229-.3065348.6833229-.6833239 0-.37679-.3065338-.6833239-.6833229-.6833239s-.6833649.3065338-.6833649.6833239C40.8415413 11.9415607 41.1481171 12.2480955 41.5249062 12.2480955zM37.0189323 32.8183708c.3536186.1300812.7170677.0299263.8101959-.2232628.093132-.2531853-.1187897-.564991-.4724083-.6950703-.3536224-.1300793-.7171097-.0299397-.8102379.2232494C36.4533539 32.3764725 36.6653137 32.6882935 37.0189323 32.8183708zM49.7796631 46.5549774c.3536224.1300812.7170715.0299263.8101997-.2232628s-.1187935-.564991-.4724121-.6950722c-.3536186-.1300774-.7171059-.0299377-.8102341.2232513C49.2140884 46.1130791 49.4260445 46.4249001 49.7796631 46.5549774zM60.2609825 43.5988388c.1175995-.3197098-.5575142-.5680656-.6751137-.2483406C59.4682693 43.6702156 60.1433792 43.9185638 60.2609825 43.5988388zM39.9923897 22.2690678c.1539688-.2259769.0269661-.575592-.2831154-.7793579-.3100815-.2037678-.6876106-.1856995-.8415833.0402775-.1539688.2259769-.0269814.5756168.2831001.7793827C39.4608727 22.5131378 39.8384171 22.4950447 39.9923897 22.2690678zM64.2611237 40.6947784c.7340393 0 1.3312149-.490242 1.3312149-1.0928421 0-.6025963-.5971756-1.0928383-1.3312149-1.0928383-.7340431 0-1.331295.490242-1.331295 1.0928383C62.9298286 40.2045364 63.5270805 40.6947784 64.2611237 40.6947784zM61.8800354 27.7481079c.1813469-.167038.0351982-.6218739-.325798-1.0139179s-.8022194-.5750961-.9835701-.4080582-.0352211.6218929.325779 1.013937C61.2574425 27.7321129 61.6986847 27.9151459 61.8800354 27.7481079zM65.9553909 33.6794319c.3808594 0 .690712-.3098488.690712-.690712 0-.380867-.3098526-.6907158-.690712-.6907158-.380867 0-.6907578.3098488-.6907578.6907158C65.2646332 33.3695831 65.5745239 33.6794319 65.9553909 33.6794319zM57.3914795 32.5494652c-.2042351-.5996666-.8606987-.3755074-.6566429.2236404C56.8199234 33.0229263 57.5955391 33.148613 57.3914795 32.5494652zM56.6925278 15.7239866c2.35569 1.6826429 4.1140251 3.1044798 4.7198029 2.7847738.5889359-.2860737-.1851196-2.3641129-2.5408096-4.2907724-2.3388481-1.93503-5.3423729-2.6501322-5.9228859-2.1033039C52.3428574 12.6615639 54.3536301 14.0329218 56.6925278 15.7239866zM27.1616783 42.8077888c1.6305389 1.8552246 3.9585476 2.8153648 4.4935265 2.4497604.5603485-.3605194-.8825817-1.72229-2.5474186-3.3810081-1.6837006-1.6578255-2.913496-3.0300636-3.4385834-2.8471909C25.1550884 39.1802788 25.5123577 40.9535294 27.1616783 42.8077888zM64.0877228 22.9593334c.4290848-.159853.4627228-1.1189728-.0925293-2.13694-.5384598-1.0264378-1.4807358-1.6574287-1.9098167-1.4302559C61.1746483 19.8560505 63.2043915 23.2950039 64.0877228 22.9593334z" class="colorffffff svgShape"></path></g></g><g fill="#f4f6f8" class="color000000 svgShape"><polygon fill="#a50b89" points="89.604 91.486 91.617 93.704 90.607 93.704 92.178 95.53 88.473 93.174 89.824 93.174 88.411 91.935" class="colorff6161 svgShape"></polygon></g></g></svg>