<svg xmlns="http://www.w3.org/2000/svg" xmlns:xlink="http://www.w3.org/1999/xlink" viewBox="0 0 1602.38 1028.843" id="Businessdevelopmentdirections"><defs><linearGradient id="m" x1="584.105" x2="904.035" y1="519.056" y2="519.056" gradientUnits="userSpaceOnUse"><stop offset=".411" stop-color="#dae7f5" class="stopColordae0f5 svgShape"></stop><stop offset=".635" stop-color="#e5eef8" class="stopColore5e9f8 svgShape"></stop><stop offset="1" stop-color="#ffffff" class="stopColorffffff svgShape"></stop></linearGradient><linearGradient id="s" x1="549.532" x2="869.463" y1="555.183" y2="555.183" gradientUnits="userSpaceOnUse"><stop offset="0" stop-color="#cee3f8" class="stopColorced3f8 svgShape"></stop><stop offset=".93" stop-color="#bbd0e6" class="stopColorbbc0e6 svgShape"></stop></linearGradient><linearGradient id="a" x1="1030.994" x2="1091.526" y1="670.502" y2="775.346" gradientUnits="userSpaceOnUse"><stop offset="0" stop-color="#dfe9f4" class="stopColordfe4f4 svgShape"></stop><stop offset=".778" stop-color="#ffffff" class="stopColorffffff svgShape"></stop></linearGradient><linearGradient id="t" x1="1050.011" x2="1110.543" y1="659.523" y2="764.367" xlink:href="#a"></linearGradient><linearGradient id="u" x1="1011.977" x2="1072.509" y1="681.481" y2="786.326" xlink:href="#a"></linearGradient><linearGradient id="v" x1="1332.193" x2="1495.183" y1="675.443" y2="675.443" gradientUnits="userSpaceOnUse"><stop offset="0" stop-color="#c4d6e9" class="stopColorc4cae9 svgShape"></stop><stop offset=".327" stop-color="#dfe9f3" class="stopColordfe2f3 svgShape"></stop><stop offset=".693" stop-color="#f6f9fc" class="stopColorf6f7fc svgShape"></stop><stop offset=".921" stop-color="#ffffff" class="stopColorffffff svgShape"></stop></linearGradient><linearGradient id="b" x1="1299.98" x2="1317.626" y1="552.624" y2="552.624" gradientUnits="userSpaceOnUse"><stop offset="0" stop-color="#c4d6e9" class="stopColorc4cae9 svgShape"></stop><stop offset=".252" stop-color="#c8d9eb" class="stopColorc8ceeb svgShape"></stop><stop offset=".521" stop-color="#d5e2ef" class="stopColord5d9ef svgShape"></stop><stop offset=".796" stop-color="#eaf0f7" class="stopColoreaecf7 svgShape"></stop><stop offset="1" stop-color="#ffffff" class="stopColorffffff svgShape"></stop></linearGradient><linearGradient id="w" x1="1250.46" x2="1271.054" y1="529.747" y2="529.747" xlink:href="#b"></linearGradient><linearGradient id="c" x1="1666.564" x2="1689.805" y1="577.186" y2="577.186" gradientTransform="translate(-345.707)" gradientUnits="userSpaceOnUse"><stop offset="0" stop-color="#c4d6e9" class="stopColorc4cae9 svgShape"></stop><stop offset=".236" stop-color="#cbdbec" class="stopColorcbd0ec svgShape"></stop><stop offset=".577" stop-color="#dee8f3" class="stopColordee1f3 svgShape"></stop><stop offset=".98" stop-color="#fdfdfe" class="stopColorfdfdfe svgShape"></stop><stop offset="1" stop-color="#ffffff" class="stopColorffffff svgShape"></stop></linearGradient><linearGradient id="x" x1="1566.56" x2="1589.801" y1="519.449" y2="519.449" xlink:href="#c"></linearGradient><linearGradient id="y" x1="1666.564" x2="1682.933" y1="526.903" y2="526.903" gradientTransform="translate(-427.105)" xlink:href="#c"></linearGradient><linearGradient id="z" x1="1666.564" x2="1684.789" y1="558.943" y2="558.943" gradientTransform="translate(-370.2)" xlink:href="#c"></linearGradient><linearGradient id="d" x1="80.996" x2="90.522" y1="-289.994" y2="-306.493" gradientTransform="scale(1 -1) rotate(-60 469.55 -1409.32)" gradientUnits="userSpaceOnUse"><stop offset=".28" stop-color="#f6f8fb" class="stopColorf6f6fb svgShape"></stop><stop offset=".473" stop-color="#e6f0fa" class="stopColore6e8fa svgShape"></stop><stop offset=".704" stop-color="#cee3f8" class="stopColorced3f8 svgShape"></stop></linearGradient><linearGradient id="A" x1="100.454" x2="126.649" y1="-295.56" y2="-250.19" gradientTransform="scale(1 -1) rotate(-60 469.55 -1409.32)" gradientUnits="userSpaceOnUse"><stop offset=".199" stop-color="#662e94" class="stopColor362e94 svgShape"></stop><stop offset=".245" stop-color="#572680" class="stopColor2d2680 svgShape"></stop><stop offset=".349" stop-color="#173357" class="stopColor1a1757 svgShape"></stop><stop offset=".403" stop-color="#112947" class="stopColor131147 svgShape"></stop></linearGradient><linearGradient id="B" x1="93.162" x2="96.523" y1="-292.286" y2="-298.109" gradientTransform="scale(1 -1) rotate(-60 469.55 -1409.32)" gradientUnits="userSpaceOnUse"><stop offset="0" stop-color="#7c3eaf" class="stopColor423eaf svgShape"></stop><stop offset=".051" stop-color="#763aa8" class="stopColor3e3aa8 svgShape"></stop><stop offset=".365" stop-color="#224b7f" class="stopColor28227f svgShape"></stop><stop offset=".526" stop-color="#193f6f" class="stopColor20196f svgShape"></stop></linearGradient><linearGradient id="C" x1="136.52" x2="139.881" y1="-267.254" y2="-273.077" gradientTransform="scale(1 -1) rotate(-60 469.55 -1409.32)" gradientUnits="userSpaceOnUse"><stop offset="0" stop-color="#7c3eaf" class="stopColor423eaf svgShape"></stop><stop offset=".055" stop-color="#763aa8" class="stopColor3e3aa8 svgShape"></stop><stop offset=".395" stop-color="#224b7f" class="stopColor28227f svgShape"></stop><stop offset=".571" stop-color="#193f6f" class="stopColor20196f svgShape"></stop></linearGradient><linearGradient id="D" x1="137.904" x2="147.429" y1="-257.14" y2="-273.638" xlink:href="#d"></linearGradient><linearGradient id="E" x1="1199.114" x2="1331.948" y1="739.032" y2="739.032" gradientUnits="userSpaceOnUse"><stop offset=".03" stop-color="#c4d4e4" class="stopColorc4c9e4 svgShape"></stop><stop offset=".655" stop-color="#edf2f7" class="stopColoredeff7 svgShape"></stop><stop offset="1" stop-color="#ffffff" class="stopColorffffff svgShape"></stop></linearGradient><linearGradient id="e" x1="1174.141" x2="1280.904" y1="701.914" y2="701.914" gradientUnits="userSpaceOnUse"><stop offset="0" stop-color="#fc06cf" class="stopColorfcba06 svgShape"></stop><stop offset="1" stop-color="#dc00b4" class="stopColordc8b00 svgShape"></stop></linearGradient><linearGradient id="f" x1="1174.141" x2="1280.904" y1="717.129" y2="717.129" gradientUnits="userSpaceOnUse"><stop offset="0" stop-color="#3e9eff" class="stopColorffd03e svgShape"></stop><stop offset="1" stop-color="#e100b8" class="stopColore19100 svgShape"></stop></linearGradient><linearGradient id="F" x1="1174.141" x2="1280.904" y1="732.345" y2="732.345" xlink:href="#e"></linearGradient><linearGradient id="G" x1="1174.141" x2="1280.904" y1="747.56" y2="747.56" xlink:href="#f"></linearGradient><linearGradient id="g" x1="1184.169" x2="1270.879" y1="667.121" y2="667.121" gradientUnits="userSpaceOnUse"><stop offset="0" stop-color="#fc06cf" class="stopColorfcba06 svgShape"></stop><stop offset="1" stop-color="#e100b8" class="stopColore19100 svgShape"></stop></linearGradient><linearGradient id="H" x1="1211.05" x2="1234.481" y1="689.736" y2="689.736" xlink:href="#g"></linearGradient><linearGradient id="I" x1="1286.961" x2="1371.378" y1="768.183" y2="768.183" gradientUnits="userSpaceOnUse"><stop offset=".453" stop-color="#c4d4e4" class="stopColorc4c9e4 svgShape"></stop><stop offset="1" stop-color="#ffffff" class="stopColorffffff svgShape"></stop></linearGradient><linearGradient id="h" x1="1264.711" x2="1347.797" y1="746.084" y2="746.084" gradientUnits="userSpaceOnUse"><stop offset="0" stop-color="#dc00b4" class="stopColordc8b00 svgShape"></stop><stop offset="1" stop-color="#fb05ce" class="stopColorfbba05 svgShape"></stop></linearGradient><linearGradient id="J" x1="1338.889" x2="1255.125" y1="793.582" y2="739.493" xlink:href="#h"></linearGradient><linearGradient id="K" x1="1290.223" x2="1313.243" y1="764.112" y2="764.112" gradientUnits="userSpaceOnUse"><stop offset="0" stop-color="#fb05ce" class="stopColorfbba05 svgShape"></stop><stop offset="1" stop-color="#dc00b4" class="stopColordc8b00 svgShape"></stop></linearGradient><linearGradient id="i" x1="1255.097" x2="1314.545" y1="776.431" y2="776.431" gradientTransform="translate(-218.782)" gradientUnits="userSpaceOnUse"><stop offset="0" stop-color="#c4d6e8" class="stopColorc4cae8 svgShape"></stop><stop offset=".095" stop-color="#ceddec" class="stopColorced3ec svgShape"></stop><stop offset=".409" stop-color="#e9eff6" class="stopColore9ebf6 svgShape"></stop><stop offset=".687" stop-color="#f9fbfd" class="stopColorf9fafd svgShape"></stop><stop offset=".899" stop-color="#ffffff" class="stopColorffffff svgShape"></stop></linearGradient><linearGradient id="L" x1="1218.475" x2="1277.917" y1="760.664" y2="760.664" gradientTransform="translate(-155.067)" xlink:href="#i"></linearGradient><linearGradient id="j" x1="-334.044" x2="-312.131" y1="758.564" y2="758.564" gradientTransform="translate(1381.574)" gradientUnits="userSpaceOnUse"><stop offset="0" stop-color="#7c3eaf" class="stopColor423eaf svgShape"></stop><stop offset=".304" stop-color="#7035a0" class="stopColor3a35a0 svgShape"></stop><stop offset=".891" stop-color="#1e4577" class="stopColor241e77 svgShape"></stop><stop offset="1" stop-color="#193f6f" class="stopColor1f196f svgShape"></stop></linearGradient><linearGradient id="M" x1="-361.139" x2="-339.228" y1="774.334" y2="774.334" xlink:href="#j"></linearGradient><linearGradient id="N" x1="-351.622" x2="-313.953" y1="721.979" y2="721.979" gradientTransform="translate(1381.574)" gradientUnits="userSpaceOnUse"><stop offset="0" stop-color="#7c3eaf" class="stopColor423eaf svgShape"></stop><stop offset=".301" stop-color="#683097" class="stopColor353097 svgShape"></stop><stop offset=".746" stop-color="#1f477a" class="stopColor251f7a svgShape"></stop><stop offset="1" stop-color="#193f6f" class="stopColor1f196f svgShape"></stop></linearGradient><linearGradient id="O" x1="1933.977" x2="1956.998" y1="636.798" y2="636.798" gradientTransform="translate(-919.677)" gradientUnits="userSpaceOnUse"><stop offset="0" stop-color="#dc00b4" class="stopColordc8b00 svgShape"></stop><stop offset=".289" stop-color="#e602bd" class="stopColore69a02 svgShape"></stop><stop offset="1" stop-color="#fc06cf" class="stopColorfcba06 svgShape"></stop></linearGradient><linearGradient id="P" x1="-353.078" x2="-313.73" y1="654.374" y2="654.374" gradientTransform="translate(1381.574)" gradientUnits="userSpaceOnUse"><stop offset="0" stop-color="#dc00b4" class="stopColordc8b00 svgShape"></stop><stop offset="1" stop-color="#fc06cf" class="stopColorfcba06 svgShape"></stop></linearGradient><linearGradient id="Q" x1="1287.944" x2="1255.721" y1="651.671" y2="640.338" gradientTransform="matrix(-1 0 0 1 2296.65 0)" gradientUnits="userSpaceOnUse"><stop offset="0" stop-color="#dc00b4" class="stopColordc8b00 svgShape"></stop><stop offset=".361" stop-color="#ec03c2" class="stopColoreca303 svgShape"></stop><stop offset=".728" stop-color="#f805cc" class="stopColorf8b405 svgShape"></stop><stop offset="1" stop-color="#fc06cf" class="stopColorfcba06 svgShape"></stop></linearGradient><linearGradient id="R" x1="1088.83" x2="1162.784" y1="734.573" y2="734.573" gradientUnits="userSpaceOnUse"><stop offset="0" stop-color="#c4d6e9" class="stopColorc4cae9 svgShape"></stop><stop offset=".095" stop-color="#cedded" class="stopColorced3ed svgShape"></stop><stop offset=".409" stop-color="#e9f0f7" class="stopColore9ebf7 svgShape"></stop><stop offset=".687" stop-color="#f9fbfd" class="stopColorf9fafd svgShape"></stop><stop offset=".899" stop-color="#ffffff" class="stopColorffffff svgShape"></stop></linearGradient><linearGradient id="k" x1="-141.825" x2="-127.852" y1="681.805" y2="674.318" gradientTransform="scale(-1 1) rotate(-9.265 -287.787 6630.72)" gradientUnits="userSpaceOnUse"><stop offset="0" stop-color="#193f6f" class="stopColor20196f svgShape"></stop><stop offset=".512" stop-color="#612b8e" class="stopColor302b8e svgShape"></stop><stop offset="1" stop-color="#7c3eaf" class="stopColor423eaf svgShape"></stop></linearGradient><linearGradient id="S" x1="-154.486" x2="-140.515" y1="686.573" y2="679.087" xlink:href="#k"></linearGradient><linearGradient id="T" x1="1084.571" x2="1129.526" y1="630.186" y2="630.186" gradientUnits="userSpaceOnUse"><stop offset="0" stop-color="#6f67e9" class="stopColor6b67e9 svgShape"></stop><stop offset="1" stop-color="#662e94" class="stopColor362e94 svgShape"></stop></linearGradient><linearGradient id="U" x1="442.978" x2="551.918" y1="271.697" y2="271.697" gradientUnits="userSpaceOnUse"><stop offset=".128" stop-color="#d1e2f3" class="stopColord1d7f3 svgShape"></stop><stop offset=".851" stop-color="#ffffff" class="stopColorffffff svgShape"></stop></linearGradient><linearGradient id="V" x1="418.019" x2="524.722" y1="280.219" y2="280.219" gradientUnits="userSpaceOnUse"><stop offset="0" stop-color="#cee3f8" class="stopColorced3f8 svgShape"></stop><stop offset=".14" stop-color="#cbe0f5" class="stopColorcbd0f5 svgShape"></stop><stop offset="1" stop-color="#bbd0e6" class="stopColorbbc0e6 svgShape"></stop></linearGradient><linearGradient id="W" x1="428.042" x2="514.698" y1="245.449" y2="245.449" gradientUnits="userSpaceOnUse"><stop offset="0" stop-color="#bbd0e6" class="stopColorbbc0e6 svgShape"></stop><stop offset="1" stop-color="#cee3f8" class="stopColorced3f8 svgShape"></stop></linearGradient><linearGradient id="l" x1="454.906" x2="478.324" y1="268.05" y2="268.05" gradientUnits="userSpaceOnUse"><stop offset="0" stop-color="#cee3f8" class="stopColorced3f8 svgShape"></stop><stop offset="1" stop-color="#bbd0e6" class="stopColorbbc0e6 svgShape"></stop></linearGradient><linearGradient id="X" x1="121.107" x2="184.206" y1="596.551" y2="596.551" gradientUnits="userSpaceOnUse"><stop offset=".427" stop-color="#c4d4e4" class="stopColorc4c9e4 svgShape"></stop><stop offset=".577" stop-color="#d7e2ed" class="stopColord7daed svgShape"></stop><stop offset=".846" stop-color="#f4f6f8" class="stopColorf4f5fa svgShape"></stop><stop offset="1" stop-color="#ffffff" class="stopColorffffff svgShape"></stop></linearGradient><linearGradient id="Y" x1="107.197" x2="170.328" y1="600.287" y2="600.287" xlink:href="#l"></linearGradient><linearGradient id="Z" x1="684.637" x2="789.741" y1="498.955" y2="498.955" xlink:href="#m"></linearGradient><linearGradient id="n" x1="656.946" x2="762.049" y1="504.889" y2="504.889" gradientUnits="userSpaceOnUse"><stop offset="0" stop-color="#5a52cc" class="stopColor5652cc svgShape"></stop><stop offset=".93" stop-color="#662e94" class="stopColor362e94 svgShape"></stop></linearGradient><linearGradient id="aa" x1="707.331" x2="762.049" y1="480.482" y2="480.482" gradientUnits="userSpaceOnUse"><stop offset=".388" stop-color="#dae7f5" class="stopColordae0f5 svgShape"></stop><stop offset=".597" stop-color="#e2ecf7" class="stopColore2e7f7 svgShape"></stop><stop offset=".929" stop-color="#f9fbfd" class="stopColorf9fafd svgShape"></stop><stop offset="1" stop-color="#ffffff" class="stopColorffffff svgShape"></stop></linearGradient><linearGradient id="ab" x1="678.754" x2="740.241" y1="446.616" y2="446.616" gradientUnits="userSpaceOnUse"><stop offset="0" stop-color="#6f67e9" class="stopColor6b67e9 svgShape"></stop><stop offset=".93" stop-color="#7c3eaf" class="stopColor423eaf svgShape"></stop></linearGradient><linearGradient id="ac" x1="678.754" x2="740.241" y1="472.203" y2="472.203" xlink:href="#n"></linearGradient><linearGradient id="ad" x1="709.497" x2="735.236" y1="435.533" y2="435.533" gradientUnits="userSpaceOnUse"><stop offset=".388" stop-color="#dae7f5" class="stopColordae0f5 svgShape"></stop><stop offset=".683" stop-color="#e2ebf5" class="stopColore2e6f5 svgShape"></stop><stop offset="1" stop-color="#f1f3f6" class="stopColorf1f1f6 svgShape"></stop></linearGradient><linearGradient id="o" x1="703.343" x2="715.59" y1="311.493" y2="311.493" gradientUnits="userSpaceOnUse"><stop offset="0" stop-color="#5a52cc" class="stopColor5652cc svgShape"></stop><stop offset=".309" stop-color="#4b44b6" class="stopColor4944b6 svgShape"></stop><stop offset=".739" stop-color="#6822a2" class="stopColor3b349d svgShape"></stop><stop offset="1" stop-color="#662e94" class="stopColor362e94 svgShape"></stop></linearGradient><linearGradient id="ae" x1="703.343" x2="715.59" y1="135.836" y2="135.836" xlink:href="#o"></linearGradient><linearGradient id="p" x1="1018.512" x2="948.052" y1="211.724" y2="211.724" gradientUnits="userSpaceOnUse"><stop offset="0" stop-color="#ffffff" class="stopColorffffff svgShape"></stop><stop offset="1" stop-color="#d1e2f3" class="stopColord1d7f3 svgShape"></stop></linearGradient><linearGradient id="af" x1="310.095" x2="210.355" y1="531.148" y2="531.148" xlink:href="#p"></linearGradient><linearGradient id="q" x1="168.898" x2="251.805" y1="517.199" y2="517.199" gradientUnits="userSpaceOnUse"><stop offset=".396" stop-color="#cee3f8" class="stopColorced3f8 svgShape"></stop><stop offset=".552" stop-color="#bed3e9" class="stopColorbec3e9 svgShape"></stop><stop offset=".574" stop-color="#bbd0e6" class="stopColorbbc0e6 svgShape"></stop></linearGradient><linearGradient id="ag" x1="1109.835" x2="1010.096" y1="185.142" y2="185.142" xlink:href="#p"></linearGradient><linearGradient id="ah" x1="968.639" x2="1051.545" y1="171.193" y2="171.193" xlink:href="#q"></linearGradient><linearGradient id="ai" x1="739.368" x2="614.843" y1="889.787" y2="889.787" xlink:href="#p"></linearGradient><linearGradient id="aj" x1="563.084" x2="666.593" y1="872.371" y2="872.371" xlink:href="#q"></linearGradient><linearGradient id="ak" x1="918.765" x2="977.334" y1="201.869" y2="201.869" xlink:href="#q"></linearGradient><linearGradient id="al" x1="826.193" x2="755.733" y1="942.283" y2="942.283" xlink:href="#p"></linearGradient><linearGradient id="am" x1="726.446" x2="785.015" y1="932.429" y2="932.429" xlink:href="#q"></linearGradient><radialGradient id="r" cx="862.374" cy="581.013" r="545.605" gradientTransform="matrix(.866 .5 -.866 .5 465.839 -202.242)" gradientUnits="userSpaceOnUse"><stop offset=".636" stop-color="#f1f3f6" class="stopColorf1f1f6 svgShape"></stop><stop offset=".929" stop-color="#fcfcfd" class="stopColorfcfcfd svgShape"></stop><stop offset="1" stop-color="#ffffff" class="stopColorffffff svgShape"></stop></radialGradient></defs><g style="isolation:isolate" fill="#f4f6f8" class="color000000 svgShape"><g fill="#f4f6f8" class="color000000 svgShape"><g fill="#f4f6f8" class="color000000 svgShape"><path fill="url(#r)" d="m1265.478 744.053-173.544-100.197c75.22-76.98 75.219-171.827-.002-248.808l173.544-100.196-166.961-96.395-173.544 100.195c-133.335-43.428-297.615-43.428-430.95 0L320.477 198.455l-166.96 96.395L327.06 395.046c-75.22 76.981-75.219 171.828.002 248.81L153.519 744.05l166.961 96.395L494.024 740.25c133.335 43.429 297.615 43.43 430.95.001l173.544 100.196Z"></path><path d="M630.958 453.75c62.47-36.067 163.754-36.067 226.224 0 31.235 18.034 46.853 41.67 46.853 65.306 0 23.636-15.617 47.272-46.852 65.305-62.47 36.068-163.754 36.067-226.225 0-31.235-18.034-46.853-41.67-46.853-65.305 0-23.636 15.617-47.272 46.853-65.306Z" style="mix-blend-mode:multiply" fill="url(#m)"></path><path fill="#ffffff" d="M596.385 433.649c62.47-36.067 163.754-36.067 226.225 0 31.235 18.034 46.852 41.67 46.853 65.305 0 23.637-15.618 47.273-46.853 65.306-62.47 36.067-163.754 36.067-226.225 0-31.235-18.034-46.852-41.67-46.853-65.306 0-23.636 15.618-47.272 46.853-65.305Z" class="colorffffff svgShape"></path><path fill="url(#s)" d="M822.61 564.26c-62.47 36.067-163.754 36.067-226.225 0-31.235-18.034-46.852-41.67-46.853-65.305v20.1c0 23.637 15.618 47.272 46.853 65.306 62.471 36.067 163.755 36.068 226.225 0 31.235-18.033 46.853-41.67 46.853-65.305v-20.101c0 23.635-15.618 47.272-46.853 65.305Z"></path><path d="M924.895 395.091c-118.192-68.238-310.148-68.568-429.06-.997l-151.333-87.372 6.766-3.906-34.624-10.178 17.628 19.99 6.766-3.906 153.058 88.368a3.825 3.825 0 0 0 3.465 0c116.862-67.47 307.008-67.47 423.87.001 116.863 67.471 116.864 177.252.002 244.722a1.055 1.055 0 0 0 0 2l77.894 44.972 3.464-2-76.169-43.976c117.038-68.654 116.466-179.48-1.727-247.718Z" style="mix-blend-mode:multiply" fill="#dfe9f4" class="colordfe4f4 svgShape"></path><path d="M1118.658 757.681a3.825 3.825 0 0 0 3.464 0 1.055 1.055 0 0 0 0-2l-119.331-68.896-3.464 2Z" style="mix-blend-mode:multiply" fill="url(#a)"></path><path d="m1141.139 744.702-119.332-68.896-3.464 2 119.332 68.896a3.825 3.825 0 0 0 3.464 0 1.055 1.055 0 0 0 0-2Z" style="mix-blend-mode:multiply" fill="url(#t)"></path><path d="M965.135 643.086c53.179-36.57 80.717-83.022 77.578-130.952-3.155-48.161-37.121-93.494-95.702-127.811l130.942-75.6 6.766 3.907 17.627-19.99-34.623 10.177 6.765 3.907-132.667 76.595a1.056 1.056 0 0 0 0 2c58.766 33.93 92.858 79.004 95.995 126.921 3.124 47.658-24.534 93.83-77.872 130.009-.828.561-.77 1.395.133 1.917l58.266 33.64 3.464-2Z" style="mix-blend-mode:multiply" fill="#dfe9f4" class="colordfe4f4 svgShape"></path><path d="M1099.641 768.66a3.826 3.826 0 0 0 3.464 0 1.055 1.055 0 0 0 0-2L983.77 697.768l-3.46 1.998Z" style="mix-blend-mode:multiply" fill="url(#u)"></path><path d="M904.203 631.866c107.361-61.985 107.361-162.842 0-224.828s-282.052-61.985-389.413 0c-106.785 61.652-107.36 161.758-1.723 223.822L341.04 730.18l-6.765-3.906-17.628 19.99 34.624-10.178-6.767-3.906 173.751-100.315a1.055 1.055 0 0 0 0-2c-105.452-60.883-105.453-159.945-.001-220.827 105.451-60.883 277.032-60.882 382.484 0 105.452 60.883 105.453 159.945.001 220.828a277.949 277.949 0 0 1-19.668 10.306c-1.043.496-1.194 1.387-.336 1.99l.987.683 98.588 56.92 3.459-1.998-97.617-56.354a281.786 281.786 0 0 0 18.051-9.547Z" style="mix-blend-mode:multiply" fill="#dfe9f4" class="colordfe4f4 svgShape"></path><path fill="#f6f8fb" d="m1199.071 958.899-169.522-97.876 226.566-130.809 169.523 97.874-226.567 130.811z" class="colorf6f6fb svgShape"></path><path fill="#cee3f8" d="m1199.071 960.015-169.522-97.876-.001-1.114 169.523 97.874v1.116z" class="colorced3f8 svgShape"></path><path fill="#bbd0e6" d="m1199.071 960.015 226.567-130.812v-1.115l-226.567 130.811v1.116z" class="colorbbc0e6 svgShape"></path><path fill="#857dfb" d="M1230.079 778.786c5.585-3.22 14.643-3.22 20.229 0 5.582 3.226 5.582 8.456-.003 11.68-5.583 3.225-14.641 3.227-20.226 0-5.585-3.224-5.585-8.454 0-11.68Z" class="color807dfb svgShape"></path><path fill="#dae7f5" d="m1270.231 792.058 77.233 44.592-5.72 3.303-77.238-44.59 5.725-3.305zM1259.022 798.529l46.009 26.562-5.72 3.303-46.006-26.564 5.717-3.301z" class="colordae0f5 svgShape"></path><path fill="#857dfb" d="M1192.126 800.703c5.585-3.224 14.644-3.224 20.229 0 5.585 3.222 5.585 8.452-.002 11.678-5.583 3.222-14.642 3.225-20.227 0-5.585-3.226-5.585-8.456 0-11.678Z" class="color807dfb svgShape"></path><path fill="#dae7f5" d="m1232.275 813.973 77.237 44.59-5.723 3.305-77.235-44.592 5.721-3.303zM1221.072 820.442l46.006 26.562-5.718 3.305-46.008-26.564 5.72-3.303zM1144.9 813.96l120.934 69.823-5.719 3.305-120.937-69.823 5.722-3.305zM1133.456 820.57l120.934 69.823-5.72 3.305-120.937-69.823 5.723-3.305zM1122.011 827.18l120.935 69.823-5.72 3.305-120.937-69.823 5.722-3.305zM1110.567 833.79l120.934 69.823-5.72 3.305-120.937-69.823 5.723-3.305zM1099.122 840.4l83.859 48.418-5.719 3.304-83.862-48.417 5.722-3.305zM1087.678 847.01l83.859 48.417-5.72 3.305-83.862-48.417 5.723-3.305zM1076.233 853.62l83.859 48.417-5.719 3.305-83.862-48.417 5.722-3.305zM1302.958 770.537l52.805 30.49-10.684 6.167-52.806-30.485 10.685-6.172z" class="colordae0f5 svgShape"></path><path style="mix-blend-mode:multiply" fill="url(#v)" d="M1332.193 611.862h162.99v127.162h-162.99z"></path><path fill="#7c3eaf" d="M1332.193 739.024V601.598l-162.858-94.026v137.426Z" class="color423eaf svgShape"></path><path fill="#662e94" d="M1368.305 718.175V580.749l-16.304 9.413v137.426l16.304-9.413z" class="color362e94 svgShape"></path><path fill="#193f6f" d="M1352.001 727.588V590.162l-1.791 1.034v137.426l1.791-1.034z" class="color20196f svgShape"></path><path fill="#5046e4" d="m1368.305 580.749-162.858-94.026-16.304 9.413 162.858 94.026 16.304-9.413z" class="color5652cc svgShape"></path><path fill="#662e94" d="M1350.21 728.622V591.196l-18.017 10.402v137.426l18.017-10.402z" class="color362e94 svgShape"></path><path fill="#5046e4" d="m1350.21 591.196-162.858-94.026-18.017 10.402 162.858 94.026 18.017-10.402z" class="color5652cc svgShape"></path><path fill="#7c3eaf" d="m1352.001 590.162-162.858-94.026-1.791 1.034 162.858 94.026 1.791-1.034z" class="color423eaf svgShape"></path><path d="M1309.54 546.82c-.252 1.872-1.608 3.702-4.086 5.133l-5.474 3.16 5.74 3.315 10.913-6.3c.354-.205.684-.419.993-.639Z" style="mix-blend-mode:multiply" fill="url(#b)"></path><path d="M1269.039 527.215a6.557 6.557 0 0 0-7.45 0l-10.405 6.007-.25-.145-.474.366 11.904-.048 8.69-5.017Z" style="mix-blend-mode:multiply" fill="url(#w)"></path><path style="mix-blend-mode:multiply" fill="url(#c)" d="M1320.857 583.895h4.742l18.499-10.68-4.743-2.738-10.144 6.528-8.354 6.89z"></path><path style="mix-blend-mode:multiply" fill="url(#x)" d="M1220.853 526.158h4.742l18.499-10.68-4.743-2.738-10.144 6.527-8.354 6.891z"></path><path style="mix-blend-mode:multiply" fill="url(#y)" d="M1239.459 521.637h16.369v10.532h-16.369z"></path><path style="mix-blend-mode:multiply" fill="url(#z)" d="M1296.365 552.863h18.225v12.161h-18.225z"></path><path fill="#bbd0e6" d="M1239.35 515.478v-2.737l-8.354 4.823v2.737l8.354-4.823z" class="colorbbc0e6 svgShape"></path><path fill="#cee3f8" d="M1230.996 520.301v-2.737l-20.888-12.06v2.738l20.888 12.059z" class="colorced3f8 svgShape"></path><path fill="#f6f8fb" d="m1239.35 512.741-20.888-12.06-8.354 4.823 20.888 12.06 8.354-4.823z" class="colorf6f6fb svgShape"></path><path fill="#bbd0e6" d="M1229.207 521.335v-2.738l-8.354 4.823v2.738l8.354-4.823z" class="colorbbc0e6 svgShape"></path><path fill="#cee3f8" d="M1220.853 526.158v-2.738l-20.888-12.06v2.738l20.888 12.06z" class="colorced3f8 svgShape"></path><path fill="#f6f8fb" d="m1229.207 518.597-20.888-12.06-8.354 4.823 20.888 12.06 8.354-4.823z" class="colorf6f6fb svgShape"></path><path fill="#bbd0e6" d="M1339.355 573.215v-2.738l-8.354 4.823v2.738l8.354-4.823z" class="colorbbc0e6 svgShape"></path><path fill="#cee3f8" d="M1331.001 578.038V575.3l-20.888-12.059v2.738l20.888 12.059z" class="colorced3f8 svgShape"></path><path fill="#f6f8fb" d="m1339.355 570.477-20.888-12.059-8.354 4.823 20.888 12.059 8.354-4.823z" class="colorf6f6fb svgShape"></path><path fill="#bbd0e6" d="M1329.211 579.072v-2.738l-8.354 4.823v2.738l8.354-4.823z" class="colorbbc0e6 svgShape"></path><path fill="#cee3f8" d="M1320.857 583.895v-2.738l-20.888-12.059v2.737l20.888 12.06z" class="colorced3f8 svgShape"></path><path fill="#f6f8fb" d="m1329.211 576.334-20.888-12.059-8.354 4.823 20.888 12.059 8.354-4.823z" class="colorf6f6fb svgShape"></path><path fill="url(#d)" d="M1250.46 516.543a2.942 2.942 0 0 0-2.473.427l-4.962 2.866a7.395 7.395 0 0 0-3.566 5.624v6.709l-6.774-3.911v-6.71a7.396 7.396 0 0 1 3.565-5.624l4.963-2.865c1.188-.686 2.237-.708 2.885-.189Z"></path><path fill="#bbd0e6" d="M1251.553 518.477v6.71l-12.094 6.982v-6.709a7.395 7.395 0 0 1 3.566-5.624l4.962-2.866c1.97-1.137 3.566-.462 3.566 1.507Z" class="colorbbc0e6 svgShape"></path><path fill="url(#A)" d="M1269.039 527.215a7.002 7.002 0 0 0-7.45 0l-10.405 6.007c-.926.534-1.676.101-1.676-.968v-3.095a3.706 3.706 0 0 1 1.676-2.903l10.405-6.007a8.234 8.234 0 0 1 7.45 0l32.857 18.97v6.966Z"></path><path fill="#7c3eaf" d="m1287.767 547.377 10.404-6.007c2.057-1.188 2.057-3.114 0-4.302l-29.132-16.82a8.234 8.234 0 0 0-7.45 0l-10.405 6.008-6.774-3.911 10.912-6.3c5.518-3.187 14.465-3.187 19.983 0l30.148 17.405c5.519 3.186 5.519 8.352 0 11.537l-10.912 6.3Z" class="color423eaf svgShape"></path><path fill="url(#B)" d="M1249.508 529.16v3.094a1.191 1.191 0 0 0 .463 1.062l-6.684-3.857.001-.007a1.131 1.131 0 0 1-.555-1.11v-3.094a3.705 3.705 0 0 1 1.677-2.903l6.774 3.91a3.706 3.706 0 0 0-1.676 2.904Z"></path><path fill="url(#C)" d="M1292.865 554.191v3.095a1.193 1.193 0 0 0 .463 1.063l-6.684-3.857.001-.008a1.132 1.132 0 0 1-.555-1.11v-3.094a3.705 3.705 0 0 1 1.677-2.904l6.774 3.912a3.706 3.706 0 0 0-1.676 2.903Z"></path><path fill="#0c2340" d="M1292.865 557.286v-3.095a3.706 3.706 0 0 1 1.676-2.903l10.913-6.3c2.724-1.573 4.098-3.63 4.132-5.69l.005-.008-.094 6.846-.007-.008c.049 2.1-1.295 4.206-4.036 5.82v.006l-10.913 6.3c-.926.534-1.676.101-1.676-.968Z" class="color131147 svgShape"></path><path fill="#bbd0e6" d="M1308.459 551.332v6.71l-12.094 6.981v-6.708a7.395 7.395 0 0 1 3.566-5.625l4.962-2.865c1.97-1.137 3.566-.462 3.566 1.507Z" class="colorbbc0e6 svgShape"></path><path fill="url(#D)" d="M1307.366 549.398a2.94 2.94 0 0 0-2.473.427l-4.962 2.865a7.394 7.394 0 0 0-3.566 5.625v6.708l-6.775-3.91v-6.71a7.395 7.395 0 0 1 3.566-5.624l4.963-2.865c1.188-.686 2.237-.709 2.885-.19Z"></path><path fill="#abc2da" d="M1253.044 527.421a2.666 2.666 0 0 0-1.206 2.09c0 .77.54 1.08 1.206.696a2.667 2.667 0 0 0 1.207-2.09c0-.769-.54-1.08-1.207-.696Z" class="colorabb2da svgShape"></path><path d="M1315.855 716.698c-11.394-6.58-26.54-9.615-41.42-9.168h-47.152v3.822a61.574 61.574 0 0 0-12.344 5.346c-21.206 12.332-21.082 32.322.265 44.647a61.99 61.99 0 0 0 12.079 5.238v3.994h51.804c13.451-.229 26.788-3.278 37.02-9.225 21.216-12.332 21.109-32.322-.252-44.654Z" style="mix-blend-mode:multiply" fill="url(#E)"></path><path fill="#50a7ff" d="M1174.141 678.897c-.002-7.886 5.207-15.777 15.634-21.794 10.424-6.016 24.087-9.03 37.749-9.03 13.661 0 27.32 3.014 37.744 9.03 10.424 6.017 15.636 13.903 15.636 21.794.005 7.883-5.207 15.774-15.636 21.79-10.421 6.022-24.08 9.028-37.742 9.028s-27.322-3.006-37.747-9.027c-10.426-6.017-15.635-13.908-15.638-21.791Z" class="colorffe950 svgShape"></path><path fill="url(#e)" d="M1265.268 700.688c-10.421 6.021-24.08 9.027-37.742 9.027s-27.322-3.006-37.747-9.027c-10.426-6.017-15.635-13.908-15.638-21.791v15.213c.003 7.886 5.212 15.774 15.638 21.793 10.425 6.02 24.086 9.028 37.747 9.028s27.32-3.008 37.742-9.028c10.43-6.014 15.641-13.907 15.636-21.795v-15.211c.005 7.883-5.207 15.774-15.636 21.79Z"></path><path fill="url(#f)" d="M1265.268 715.903c-10.421 6.022-24.08 9.027-37.742 9.027s-27.322-3.005-37.747-9.027c-10.426-6.016-15.635-13.907-15.638-21.79v15.213c.003 7.886 5.212 15.774 15.638 21.793 10.425 6.02 24.086 9.027 37.747 9.027s27.32-3.008 37.742-9.027c10.43-6.014 15.641-13.907 15.636-21.796v-15.21c.005 7.883-5.207 15.774-15.636 21.79Z"></path><path fill="url(#F)" d="M1265.268 731.119c-10.421 6.021-24.08 9.027-37.742 9.027s-27.322-3.006-37.747-9.027c-10.426-6.017-15.635-13.908-15.638-21.791v15.213c.003 7.886 5.212 15.774 15.638 21.793 10.425 6.02 24.086 9.028 37.747 9.028s27.32-3.008 37.742-9.028c10.43-6.014 15.641-13.907 15.636-21.795v-15.211c.005 7.883-5.207 15.774-15.636 21.79Z"></path><path fill="url(#G)" d="M1265.268 746.334c-10.421 6.022-24.08 9.028-37.742 9.028s-27.322-3.006-37.747-9.028c-10.426-6.016-15.635-13.907-15.638-21.79v15.213c.003 7.886 5.212 15.774 15.638 21.793 10.425 6.02 24.086 9.027 37.747 9.027s27.32-3.008 37.742-9.027c10.43-6.014 15.641-13.907 15.636-21.796v-15.21c.005 7.883-5.207 15.774-15.636 21.79Z"></path><path fill="#3e9eff" d="M1196.87 696.595c8.467 4.883 19.56 7.333 30.656 7.333 11.095 0 22.188-2.45 30.651-7.333 7.815-4.51 12.012-10.311 12.611-16.216-.599-5.902-4.796-11.7-12.61-16.216-8.467-4.89-19.562-7.33-30.656-7.33-11.095 0-22.188 2.44-30.656 7.33-7.81 4.515-12.005 10.312-12.611 16.214.606 5.904 4.801 11.706 12.615 16.218Z" class="colorffd03e svgShape"></path><path fill="url(#g)" d="M1196.866 664.163c8.468-4.89 19.56-7.33 30.656-7.33 11.094 0 22.19 2.44 30.655 7.33 7.815 4.515 12.012 10.314 12.611 16.216a13.411 13.411 0 0 0 .091-1.482c0-6.409-4.233-12.812-12.702-17.699-8.466-4.89-19.56-7.335-30.655-7.335-11.095 0-22.188 2.445-30.656 7.335-8.467 4.887-12.697 11.29-12.697 17.699a13.968 13.968 0 0 0 .086 1.48c.606-5.902 4.801-11.699 12.61-16.214Z"></path><path fill="#e100b8" d="m1248.88 672.527 4.102-2.366V667.2l-4.102 2.361v2.966z" class="colore19100 svgShape"></path><path fill="#50a7ff" d="M1229.966 677.486a4.02 4.02 0 0 1-2.373-3.307c0-1.244.845-2.419 2.373-3.302a12.68 12.68 0 0 1 11.448-.002c3.16 1.821 3.16 4.791 0 6.61l5.198 3c5.124-2.956 5.873-7.495 2.268-10.924l4.102-2.36-5.195-3.007-4.102 2.371c-5.933-2.077-13.788-1.645-18.914 1.318-2.92 1.678-4.522 3.916-4.522 6.296 0 2.383 1.602 4.624 4.522 6.305 3.156 1.827 3.161 4.79 0 6.611a12.67 12.67 0 0 1-11.453 0c-3.156-1.821-3.156-4.784.003-6.61l-5.193-3c-5.129 2.961-5.874 7.495-2.278 10.924l-3.782 2.182 5.198 3.003 3.784-2.187c5.938 2.077 13.793 1.653 18.916-1.306 6.022-3.483 6.022-9.132 0-12.615Z" class="colorffe950 svgShape"></path><path fill="#fc06cf" d="m1202.068 693.561 5.198 2.999v-2.966l-5.198-3.003v2.97z" class="colorfcba06 svgShape"></path><path fill="#e100b8" d="m1207.266 696.56 3.784-2.187v-2.966l-3.784 2.187v2.966z" class="colore19100 svgShape"></path><path fill="#fc06cf" d="m1241.414 680.451 5.198 3.001v-2.968l-5.198-2.998v2.965z" class="colorfcba06 svgShape"></path><path fill="#e100b8" d="M1213.32 683.452v-2.968c-2.239 1.297-2.881 3.164-1.943 4.79a5.12 5.12 0 0 1 1.944-1.822Z" class="colore19100 svgShape"></path><path fill="#fc06cf" d="m1203.617 683.64.01 3.343.007-.007a5.674 5.674 0 0 0 .645 2.342l1.57-.91a6.378 6.378 0 0 1-2.22-4.758ZM1224.771 683.45a5.122 5.122 0 0 1 1.943 1.824c.939-1.626.297-3.493-1.943-4.79-2.92-1.68-4.522-3.922-4.522-6.305v2.973c0 2.377 1.602 4.617 4.522 6.298Z" class="colorfcba06 svgShape"></path><path fill="#fb05ce" d="M1234.481 683.78v-.065h-.002l.002.064Z" class="colorfbba05 svgShape"></path><path fill="#e100b8" d="M1251.106 674.179c.007 2.285-1.478 4.567-4.494 6.305v2.968c3.09-1.783 4.577-4.135 4.494-6.477l.007.01v-2.806Z" class="colore19100 svgShape"></path><path fill="url(#H)" d="M1229.966 690.101c-5.123 2.959-12.978 3.383-18.916 1.306v2.966c5.938 2.08 13.793 1.652 18.916-1.311 2.987-1.721 4.484-3.985 4.513-6.248l.002.002v-3.008c-.007 2.275-1.509 4.558-4.515 6.293Z"></path><path fill="#e100b8" d="M1241.414 670.875a12.68 12.68 0 0 0-11.448.002c-1.528.883-2.373 2.058-2.373 3.302a2.991 2.991 0 0 0 .42 1.487 5.193 5.193 0 0 1 1.953-1.816 12.636 12.636 0 0 1 11.448-.008 5.132 5.132 0 0 1 1.946 1.824c.941-1.63.299-3.495-1.946-4.791Z" class="colore19100 svgShape"></path><path d="M1358.914 745.495c-8.824-6.683-20.555-9.762-32.076-9.31h-18.062v3.884a42.952 42.952 0 0 0-9.558 5.426c-16.423 12.527-16.328 32.828.201 45.353a43.348 43.348 0 0 0 9.357 5.32v4.055h21.664c10.414-.229 20.747-3.328 28.673-9.37 16.428-12.53 16.345-32.83-.2-45.358Z" style="mix-blend-mode:multiply" fill="url(#I)"></path><path fill="url(#h)" d="M1336.947 731.754a53.1 53.1 0 0 0-20.331-12.678c-12.56-4.366-26.259-4.086-36.328 1.764a24.958 24.958 0 0 0-10.834 12.014l-4.743 11.486a24.945 24.945 0 0 1 10.833-12.014c6.551-3.803 14.644-5.255 22.954-4.597a54.145 54.145 0 0 1 33.703 15.511c10.209 10.373 13.171 22.91 9.067 32.84l4.746-11.486c4.104-9.93 1.141-22.463-9.067-32.84Z"></path><path fill="#3e9eff" d="M1335.683 734.814c15.132 15.375 14.338 35.495-1.766 44.856-16.107 9.36-41.519 4.466-56.653-10.907-15.136-15.382-14.344-35.502 1.76-44.86 16.108-9.362 41.52-4.468 56.659 10.911Z" class="colorffd03e svgShape"></path><path fill="url(#J)" d="M1354.872 768.238q-2.371 5.746-4.743 11.486a30.762 30.762 0 0 1-13.363 14.807c-19.85 11.535-51.071 5.524-69.722-13.426-12.58-12.784-16.23-28.184-11.187-40.397l4.743-11.488c-5.041 12.215-1.391 27.615 11.19 40.402 18.65 18.946 49.872 24.958 69.721 13.423a30.755 30.755 0 0 0 13.361-14.807Z"></path><path fill="#50a7ff" d="M1343.685 727.84c18.65 18.946 17.685 43.664-2.174 55.205-19.849 11.535-51.07 5.523-69.721-13.423-18.657-18.958-17.673-43.673 2.173-55.206 19.86-11.54 51.065-5.534 69.722 13.424Zm-65.157 37.863c15.134 15.372 40.546 20.264 56.65 10.907 16.107-9.36 16.9-29.483 1.769-44.856-15.14-15.38-40.553-20.273-56.66-10.914-16.103 9.361-16.895 29.481-1.759 44.863Z" class="colorffe950 svgShape"></path><path fill="#fb05ce" d="m1284.53 758.409 2.195-1.278a10.279 10.279 0 0 1-1.329-9.127l-1.25 2.995h.012a9.728 9.728 0 0 0 .373 7.41ZM1303.785 753.351a6.539 6.539 0 0 1 2.072 4.62c1.91-1.986 1.669-5.162-.808-7.68-2.68-2.724-4.095-5.923-3.965-9.016a8.675 8.675 0 0 1 .735-3.188l-.001-.002-1.195 2.912.007-.004a8.583 8.583 0 0 0-.81 3.342 12.358 12.358 0 0 0 3.965 9.016Z" class="colorfbba05 svgShape"></path><path fill="#e100b8" d="M1294.202 748.198a4.598 4.598 0 0 0-2.417 3.963 5.328 5.328 0 0 1 1.155-.905ZM1328.435 740.497a13.09 13.09 0 0 1 .94 1.78l1.8-1.048 1.265-3.058Z" class="colore19100 svgShape"></path><path fill="#fb05ce" d="m1320.968 749.428-1.267 3.06 4.764 4.838 1.266-3.06-4.763-4.838z" class="colorfbba05 svgShape"></path><path fill="#e100b8" d="m1325.731 754.266-1.266 3.06a9.086 9.086 0 0 0 3.889-4.25l.005-.014c.01-.019.016-.037.025-.056l1.248-3.018a9.092 9.092 0 0 1-3.9 4.278Z" class="colore19100 svgShape"></path><path fill="#50a7ff" d="m1332.44 738.17-4.005 2.327c3.234 5.11 2.292 10.864-2.704 13.769l-4.763-4.838c3.08-1.79 3.234-5.642.335-8.584-2.902-2.949-7.766-3.886-10.845-2.095a4.6 4.6 0 0 0-2.418 3.864 6.497 6.497 0 0 0 2.078 4.732c5.526 5.615 5.23 12.955-.643 16.37-5.007 2.907-12.468 2.039-17.989-1.746l-3.694 2.15-4.764-4.837 3.697-2.15c-3.236-5.112-2.292-10.864 2.713-13.774l4.764 4.84c-3.09 1.794-3.241 5.644-.338 8.593 2.896 2.944 7.757 3.88 10.847 2.083 3.08-1.791 3.236-5.639.338-8.583-2.68-2.724-4.095-5.923-3.965-9.016a8.76 8.76 0 0 1 4.61-7.363c4.998-2.903 12.461-2.035 17.98 1.75l4.004-2.33Z" class="colorffe950 svgShape"></path><path fill="#fb05ce" d="m1283.028 759.282-1.264 3.057 4.762 4.838 1.266-3.057-4.764-4.838z" class="colorfbba05 svgShape"></path><path fill="#e100b8" d="m1287.792 764.12-1.266 3.057 3.697-2.145 1.263-3.063-3.694 2.151z" class="colore19100 svgShape"></path><path fill="url(#K)" d="M1312.634 760.784c-.004.005-.004.01-.009.014a9.074 9.074 0 0 1-.74.947 9.686 9.686 0 0 1-2.41 1.97c-5.007 2.907-12.468 2.039-17.989-1.746l-1.263 3.063c5.52 3.782 12.981 4.648 17.988 1.74a9.111 9.111 0 0 0 3.731-3.944l.003.02 1.298-3.129a7.887 7.887 0 0 1-.609 1.065Z"></path><path fill="#e100b8" d="M1322.14 748.513c1.888-1.988 1.635-5.16-.837-7.669-2.902-2.949-7.766-3.886-10.845-2.095a4.6 4.6 0 0 0-2.418 3.864l.002.102a5.267 5.267 0 0 1 1.153-.906c3.08-1.789 7.942-.854 10.847 2.095a6.612 6.612 0 0 1 2.067 4.445Z" class="colore19100 svgShape"></path><path style="mix-blend-mode:multiply" fill="url(#i)" d="M1036.315 770.967h59.449v10.929h-59.449z"></path><path style="mix-blend-mode:multiply" fill="url(#L)" d="M1063.407 755.203h59.443v10.923h-59.443z"></path><path fill="url(#j)" d="M1069.443 762.756c0-8.58-5.442-8.832-5.442-8.832a22.475 22.475 0 0 1-7.73-1.987c-4.721-1.96-11.375-1.201-7.656 5.658a1.752 1.752 0 0 0 .127.253 3.346 3.346 0 0 0 1.206 1.06l11.886 6.972c1.814 1.032 7.566-1.357 7.609-3.124Z"></path><path fill="#102847" d="M1069.409 761.99c-.103 1.758-5.78 4.106-7.575 3.078l-11.886-6.968a11.342 11.342 0 0 1-1.675-1.22c.107.232.204.46.342.715a1.752 1.752 0 0 0 .127.253 3.346 3.346 0 0 0 1.206 1.06l11.886 6.972c1.697.969 6.852-1.068 7.532-2.785a1.785 1.785 0 0 0 .055-.345 5.06 5.06 0 0 0-.012-.76Z" class="color121047 svgShape"></path><path fill="#ffffff" d="M1067.229 752.796a49.718 49.718 0 0 0-6.331 1.255 2.716 2.716 0 0 1-.443 1.277 1.998 1.998 0 0 0-.136.167c-.974.675-1.963 1.744.347 3.194a3.198 3.198 0 0 0 4.155-.297 3.785 3.785 0 0 1 1.341-1.522 3.373 3.373 0 0 1 1.284-.54c0-.037.01-.119.01-.119s.36-3.415-.227-3.415Z" class="colorffffff svgShape"></path><path fill="#0c2340" d="M1067.32 668.87c-5.376.099-18.808.341-24.18.433 1.999 16.154 6.025 30.826 8.711 46.474 2.886 15.202 6.136 25.89 8.974 38.542 1.039 2.354 5.79 1.464 6.755-.803.75-11.654 1.618-25.85-1.838-39.295.578-14.492 1.915-30.714 1.579-45.352Z" class="color131147 svgShape"></path><path fill="url(#M)" d="M1042.346 778.527c0-8.583-5.438-8.831-5.438-8.831a22.484 22.484 0 0 1-7.732-1.986c-4.719-1.962-11.373-1.205-7.657 5.654a2.398 2.398 0 0 0 .13.257 3.315 3.315 0 0 0 1.207 1.056l11.881 6.972c1.814 1.033 7.568-1.355 7.609-3.122Z"></path><path fill="#102847" d="M1042.318 777.756c-.104 1.762-5.784 4.109-7.581 3.08l-11.881-6.964a11.456 11.456 0 0 1-1.678-1.224c.113.235.204.462.34.716a2.398 2.398 0 0 0 .132.257 3.315 3.315 0 0 0 1.206 1.056l11.881 6.972c1.698.972 6.856-1.068 7.534-2.779a1.49 1.49 0 0 0 .052-.352 5.802 5.802 0 0 0-.005-.762Z" class="color121047 svgShape"></path><path fill="#ffffff" d="M1040.134 768.564a49.784 49.784 0 0 0-6.329 1.255 2.821 2.821 0 0 1-.437 1.279c-.052.056-.093.11-.14.166-.975.676-1.965 1.745.346 3.195a3.207 3.207 0 0 0 4.155-.293 3.8 3.8 0 0 1 1.339-1.523 3.457 3.457 0 0 1 1.284-.543 1.07 1.07 0 0 1 .014-.115s.357-3.421-.232-3.421Z" class="colorffffff svgShape"></path><path fill="url(#N)" d="M1050.266 707.282c1.47-6.943 18.415-7.804 17.303-35.11-5.316-.783-32.139 11.801-37.453 11.018-.666 16.259.904 31.397 1.005 47.264.36 15.472 1.825 26.545 2.557 39.493.64 2.498 5.472 2.392 6.795.315 2.644-11.376 5.816-25.244 4.604-39.072 1.581-7.658 3.469-15.774 5.19-23.908Z"></path><path fill="#a50b89" d="M1055.305 619.152c18.923 12.641 21.179 37.754 10.95 53.685 0 0 2.198-35.307-10.95-53.685Z" class="colordc8b00 svgShape"></path><path fill="#9dc7f2" d="M1031.886 618.277c.121-1.469-.427-3.627.546-4.686a14.856 14.856 0 0 1 3.135-2.203c1.1.593 4.614 3.219 4.614 3.219-.465 1.27-1.29 3.898-3.525 5.528-1.265-.542-4.77-1.858-4.77-1.858Z" class="colorf2c39d svgShape"></path><path fill="url(#O)" d="M1014.3 655.485c1.815-14.295 12.593-28.374 17.092-37.374a55.513 55.513 0 0 1 5.929 2.324c-1.65 5.851-13.615 34.633-13.615 34.633Z"></path><path fill="url(#P)" d="M1056.172 687.65c-11.517 6.467-23.57 6.476-27.676-1.469 1.538-14.792 2.978-26.83.01-41.011.874-7.83 1.494-9.007.489-13.577.354-1.531 5.067-4.802 8.498-7.935 3.708-3.381 6.21-6.603 8.124-6.991 15.748-3.218 23.4 24.846 22.081 54.766-1.214 7.956-5.857 13.038-11.526 16.217Z"></path><path fill="#a9d2fc" d="M1054.349 618.454c-3.413-2.474-3.141-7.576-2.853-10.965a16.619 16.619 0 0 0 .637-5.854c-.503-7.463-5.696-13.596-11.494-12.8-11.69 1.597-9.182 7.64-8.677 15.104.466 6.917 3.926 11.464 9.224 11.91.078 1.138-.387 4.592-1.82 6.028 3.847 2.298 9.456 1.217 11.676.218 2.36-1.071 4.911-1.985 3.307-3.641Z" class="colorfcd1a9 svgShape"></path><path fill="#193f6f" d="M1035.969 585.19c.28-.936 2.064-1.546 8.134.791.039.018 1.475.579 1.567.614 11.24 4.867 8.523 17.827 6.846 21.267a7 7 0 0 0-.886 4.08c-4.416-.182-5.815 2.303-8.643-.174-2.03-1.772-5.065-3.853-5.576-4.724a3.463 3.463 0 0 1-.414-2.144c-.01-6.209-2.878-2.419-2.787-.988-1.176-.573-1.096-3.07-1.02-5.847-9.54-7.117-4.417-12.028 2.779-12.876Z" class="color20196f svgShape"></path><path fill="url(#Q)" d="M1015.11 652.866c4.024-7.921 6.89-11.206 14.025-21.62 1.656-2.448 7.002-1.52 9.634 1.955 3.564 4.697 2.04 11.536.024 14.314-5.172 5.351-8.841 7.553-13.406 11.266-7.485 6.093-13.42.268-10.278-5.915Z"></path><path style="mix-blend-mode:multiply" fill="url(#R)" d="m1162.784 724.767-66.342.038-7.612 12.83h17.458l-4.001 6.744 60.497-.033v-19.579z"></path><path fill="#a9d2fc" d="M1094.688 610.325c0 1.2-4.134 16.49-5.022 18.018-1.277 2.202-3.496 4.502-4.032 5.923a22.733 22.733 0 0 0-1.066 4.975c0 .737.949 3.322 1.871 2.956.923-.37-.421-1.713.026-2.166.185.424 1.238 1.481 2.162 1.293.923-.182.586-.519.586-.519.491.182 1.146.185 1.324-.19.415.137 1.11.493 1.286-.553a12.582 12.582 0 0 1 .733-3.461c1.38-2.154 1.223-7.306 1.502-7.954.274-.644 5.354-13.362 5.786-16.05.43-2.687.378-16.183-1.993-16.288-2.37-.102-3.163 10.158-3.163 14.016Z" class="colorfcd1a9 svgShape"></path><path fill="url(#k)" d="M1102.298 724.1c2.812.46 3.626 4.994 2.22 7.835a10.837 10.837 0 0 1-3.079 1.898s-8.883 3.643-10.878 3.802c-2.003.163-6.44-.586-6.802-3.999.34-2.084 2.094-2.658 4.248-3.939 2.801-1.66 5.204-4.071 7.46-5.183 1.859-.91 6.83-.414 6.83-.414Z"></path><path fill="#a9d2fc" d="M1096.902 721.213c1.37.225 5.781 1.314 5.781 1.314s1.632 4.57-.943 5.382c-5.005 1.569-9.267-1.79-7.3-2.918 1.322-.753 2.623-1.607 2.462-3.778Z" class="colorfcd1a9 svgShape"></path><path fill="#0c2340" d="M1090.62 736.723c2.059-.165 11.201-3.911 11.201-3.911a11.784 11.784 0 0 0 3.07-1.865 6.252 6.252 0 0 1-.373.988 10.837 10.837 0 0 1-3.079 1.898s-8.883 3.643-10.878 3.802c-2.003.163-6.44-.586-6.802-3.999.015-.073.038-.131.052-.204.945 2.809 4.927 3.446 6.809 3.29Z" class="color131147 svgShape"></path><path fill="#662e94" d="M1093.593 725.667c.37-.496 1.235-1.811 2.765-.722a3.641 3.641 0 0 1 1.77 3.641c-.187 1.137-3.481.29-3.604.125-.126-.173-.931-3.044-.931-3.044Z" class="color362e94 svgShape"></path><path fill="#ffffff" d="M1092.084 727.084a6.733 6.733 0 0 1 2.981 2.907.897.897 0 0 0 1.196.427.907.907 0 0 0 .432-1.205 8.511 8.511 0 0 0-3.908-3.784.899.899 0 1 0-.701 1.655ZM1089.307 728.86a6.664 6.664 0 0 1 2.975 2.9.903.903 0 0 0 1.632-.773 8.465 8.465 0 0 0-3.9-3.785.902.902 0 1 0-.707 1.659Z" class="colorffffff svgShape"></path><path fill="#a9d2fc" d="M1097.675 631.473c-1.352 16.73-3.59 32.652-3.59 46.075 0 15.357 2.668 31.535 2.83 44.407-.142 3.945 4.337 7.039 6.231 3.557.08-1.15-.456-2.602-.257-4.287 1.144-9.802 4.5-24.862 1.674-37.537 3.887-16.804 14.594-37.567 13.009-50.75-4.862-2.414-16.173-2.645-19.897-1.465ZM1099.826 578.518c-4.388 2.159-5.988 5.448-5.988 11.984 2.995-1.834 5.988-11.984 5.988-11.984Z" class="colorfcd1a9 svgShape"></path><path fill="#7c3eaf" d="M1102.175 637.854v2.805l2.432-1.404-2.432-1.401z" class="color423eaf svgShape"></path><path fill="url(#S)" d="M1114.027 730.843c2.814.46 3.624 4.996 2.216 7.84a10.833 10.833 0 0 1-3.075 1.894s-8.886 3.646-10.88 3.802c-2 .164-6.442-.58-6.801-4 .34-2.079 2.093-2.652 4.248-3.933 2.801-1.664 5.202-4.077 7.46-5.188 1.858-.91 6.832-.415 6.832-.415Z"></path><path fill="#a9d2fc" d="M1108.628 727.957c1.37.225 5.783 1.313 5.783 1.313s1.633 4.573-.945 5.382c-5.002 1.57-9.265-1.787-7.299-2.914 1.32-.755 2.622-1.607 2.461-3.78Z" class="colorfcd1a9 svgShape"></path><path fill="#0c2340" d="M1102.35 743.471c2.055-.165 11.197-3.91 11.197-3.91a11.759 11.759 0 0 0 3.069-1.869 6.058 6.058 0 0 1-.373.99 10.833 10.833 0 0 1-3.075 1.895s-8.886 3.646-10.88 3.802c-2 .164-6.442-.58-6.801-4 .012-.067.04-.13.052-.203.943 2.81 4.927 3.447 6.81 3.295Z" class="color131147 svgShape"></path><path fill="#662e94" d="M1105.319 732.41c.371-.49 1.237-1.81 2.763-.722a3.647 3.647 0 0 1 1.773 3.642c-.188 1.137-3.479.295-3.601.124-.128-.17-.935-3.043-.935-3.043Z" class="color362e94 svgShape"></path><path fill="#ffffff" d="M1103.81 733.833a6.697 6.697 0 0 1 2.981 2.902.9.9 0 1 0 1.626-.775 8.473 8.473 0 0 0-3.904-3.784.9.9 0 1 0-.703 1.657ZM1101.036 735.606a6.705 6.705 0 0 1 2.978 2.898.9.9 0 1 0 1.626-.77 8.435 8.435 0 0 0-3.9-3.789.902.902 0 1 0-.704 1.661Z" class="colorffffff svgShape"></path><path fill="#a9d2fc" d="M1106.867 638.673c0 15.378-.16 32.57-.16 45.995 0 15.36 1.773 31.159 1.933 44.03-.141 3.951 4.338 7.043 6.236 3.557.078-1.147-.46-2.6-.261-4.282 1.144-9.801 4.5-24.863 1.678-37.538 3.885-16.802 9.879-34.507 6.313-51.641-4.861-2.418-12.016-1.3-15.739-.121Z" class="colorfcd1a9 svgShape"></path><path fill="url(#T)" d="M1118.436 618.902c-1.275-11.583 4.194-22.514 5.197-29.753.634-4.566 1.089-9.915-3.045-11.203-4.278-1.332-6.006-1.953-9.71-1.858-8.92.22-13.103 2.053-14.921 8.2-1.713 5.78-2.923 7.541-4.333 13.215-.63 2.54 6.369 8.067 5.556 19.041-6.2 9.374-10.647 30.56-12.541 47.192-.724 5.015 4.377 11.458 13.394 15.974 11.375 5.69 24.634 6.144 29.614 1.014a6.408 6.408 0 0 0 1.88-4.29c.006-5.9-3.347-47.906-11.091-57.532Z"></path><path fill="#a9d2fc" d="M1114.05 565.223c-.161-2.746-9.55 2.718-9.345 6.34.173 2.95.558 5.911-.548 6.295-1.279.924-5.091 10.706-2.805 12.991 7.978-3.265 12.14-10.178 19.236-12.903-2.907-.59-6.03-3.83-6.538-12.723Z" class="colorfcd1a9 svgShape"></path><path fill="#a9d2fc" d="m1116.31 561.424-2.825-7.072h-17.914v10.783c0 5.952 4.01 10.782 8.958 10.782 4.796 0 8.682-4.55 8.914-10.259l1.248.035Z" class="colorfcd1a9 svgShape"></path><path fill="#9dc7f2" d="M1111.895 571.182a8.655 8.655 0 0 1-6.996 4.702 2.909 2.909 0 0 1-.453 1.782 6.582 6.582 0 0 0 1.419-.133 8.602 8.602 0 0 0 6.03-6.351Z" class="colorf2c39d svgShape"></path><path fill="#193f6f" d="M1105.706 546.841a.767.767 0 0 0-.168-.005c-9.773.244-10.508 7.55-9.967 8.757 3.1 1.11 5.054-.992 7-.828.94.074 4.756.593 6.33 2.615 1.698 2.17 1.157 5.641 2.759 5.558.696-.028.905-2.359 1.94-2.418a1.743 1.743 0 0 1 1.644 2.093c-.133 1.794-1.832 2.886-1.581 3.75.416 1.428 3.988-1.135 3.925-6.232-.077-5.062-3.452-13.634-11.882-13.29Z" class="color20196f svgShape"></path><path fill="#a9d2fc" d="M1123.02 624.41s1.918 4.787 1.923 4.79c6.695-3.489 10.622-12.61 11.005-19.968.517-9.914-9.752-26.668-10.286-27.463-2.598-3.87-8.768-.437-6.728 4.526.446 1 10.959 18.295 9.837 24.142-.778 4.039-2.102 11.448-5.752 13.973Z" class="colorfcd1a9 svgShape"></path><path fill="#193f6f" d="M1106.94 546.857c10.385.74 11.63 10.978 15.761 13.751 2.465 1.65 7.966-1.469 11.187 4.11 3.707 6.412-2.29 8.742 1.637 11.455 3.923 2.713 6.944 11.002.403 16.095-6.547 5.084-14.74.615-13.816-6.839.665-5.36-.925-8.128-5.429-6.394-3.373 1.296-4.664-1.366-3.147-4.8-7.502.75.365-13.56-10.965-19.47.429-2.919 4.369-7.908 4.369-7.908Z" class="color20196f svgShape"></path><path fill="#a9d2fc" d="M1123.02 624.41c-.785.511-5.085-.505-6.103-.505a21.487 21.487 0 0 0-6.17.76c-2.342.752-3.942 1.61-2.342 1.981-.86.188-2.898 1.02-1.294 1.481.154.557.74 1.293 2.497 1.232a15.47 15.47 0 0 0 5.954 1.11c1.324.403 8.302.256 9.38-1.269a8.33 8.33 0 0 0-1.923-4.79Z" class="colorfcd1a9 svgShape"></path><path d="M535.832 249.373c-11.388-6.575-26.526-9.602-41.394-9.16h-23.309v3.821a61.891 61.891 0 0 0-12.335 5.339c-21.193 12.326-21.07 32.302.26 44.624a62.194 62.194 0 0 0 12.075 5.231v3.995h27.957c13.442-.225 26.772-3.277 37.001-9.22 21.204-12.328 21.095-32.304-.255-44.63Z" style="mix-blend-mode:multiply" fill="url(#U)"></path><path fill="#f6f8fb" d="M418.019 257.214c-.005-7.882 5.204-15.765 15.624-21.782 10.42-6.013 24.073-9.021 37.727-9.021 13.654 0 27.306 3.008 37.723 9.021 10.418 6.017 15.627 13.9 15.63 21.782.004 7.88-5.207 15.768-15.63 21.783-10.417 6.015-24.066 9.02-37.72 9.02s-27.306-3.005-37.726-9.02c-10.42-6.015-15.626-13.902-15.628-21.783Z" class="colorf6f6fb svgShape"></path><path fill="url(#V)" d="M509.093 278.997c-10.417 6.015-24.066 9.02-37.72 9.02s-27.306-3.005-37.726-9.02c-10.42-6.015-15.626-13.902-15.628-21.783v15.208c.002 7.882 5.209 15.762 15.628 21.777 10.42 6.018 24.072 9.024 37.726 9.024s27.303-3.004 37.72-9.019c10.423-6.015 15.634-13.9 15.63-21.785v-15.205c.004 7.88-5.207 15.768-15.63 21.783Z"></path><path fill="#dfe9f4" d="M440.735 274.902c8.461 4.885 19.55 7.331 30.638 7.331 11.09 0 22.176-2.446 30.635-7.33 7.805-4.506 12.003-10.305 12.604-16.204-.601-5.9-4.799-11.7-12.604-16.207-8.461-4.887-19.548-7.327-30.64-7.327-11.087 0-22.174 2.44-30.64 7.327-7.8 4.507-11.998 10.306-12.603 16.203.605 5.899 4.803 11.702 12.61 16.207Z" class="colordfe4f4 svgShape"></path><path fill="url(#W)" d="M440.728 242.492c8.466-4.887 19.553-7.327 30.64-7.327 11.092 0 22.179 2.44 30.64 7.327 7.805 4.507 12.003 10.306 12.604 16.207a14.072 14.072 0 0 0 .086-1.485c0-6.402-4.229-12.802-12.69-17.687-8.461-4.883-19.548-7.33-30.64-7.33-11.087 0-22.174 2.447-30.64 7.33-8.459 4.885-12.688 11.285-12.686 17.687a14.533 14.533 0 0 0 .083 1.48c.605-5.896 4.803-11.695 12.603-16.202Z"></path><path fill="#bbd0e6" d="m492.713 250.853 4.1-2.366v-2.963l-4.1 2.364v2.965z" class="colorbbc0e6 svgShape"></path><path fill="#f6f8fb" d="M473.812 255.807c-1.528-.884-2.371-2.057-2.371-3.305 0-1.246.843-2.419 2.373-3.302a12.653 12.653 0 0 1 11.44 0c3.157 1.82 3.157 4.787 0 6.607l5.193 2.995c5.125-2.957 5.872-7.486 2.266-10.914l4.1-2.364-5.19-3-4.1 2.369c-5.93-2.08-13.78-1.647-18.904 1.314-2.92 1.679-4.52 3.917-4.52 6.295 0 2.38 1.602 4.619 4.52 6.3 3.157 1.824 3.159 4.787 0 6.61a12.658 12.658 0 0 1-11.445 0c-3.154-1.823-3.154-4.786 0-6.61l-5.188-2.995c-5.126 2.956-5.871 7.49-2.275 10.916l-3.779 2.182 5.193 3 3.781-2.187c5.935 2.077 13.784 1.651 18.908-1.307 6.018-3.475 6.018-9.129-.002-12.604Z" class="colorf6f6fb svgShape"></path><path fill="#cee3f8" d="m445.932 271.87 5.193 3v-2.965l-5.193-3v2.965z" class="colorced3f8 svgShape"></path><path fill="#bbd0e6" d="m451.125 274.87 3.781-2.184v-2.968l-3.781 2.187v2.965z" class="colorbbc0e6 svgShape"></path><path fill="#cee3f8" d="m485.255 258.772 5.192 2.998v-2.968l-5.192-2.995v2.965z" class="colorced3f8 svgShape"></path><path fill="#bbd0e6" d="M457.174 261.77v-2.968c-2.236 1.296-2.878 3.163-1.94 4.787a5.15 5.15 0 0 1 1.94-1.82Z" class="colorbbc0e6 svgShape"></path><path fill="#cee3f8" d="m447.481 261.959.007 3.338.007-.006a5.681 5.681 0 0 0 .644 2.341l1.572-.909a6.368 6.368 0 0 1-2.22-4.755ZM468.619 261.767a5.15 5.15 0 0 1 1.943 1.822c.936-1.624.296-3.491-1.943-4.787-2.918-1.681-4.52-3.92-4.52-6.3v2.968c0 2.378 1.602 4.614 4.52 6.297Z" class="colorced3f8 svgShape"></path><path fill="#fb05ce" d="M478.324 262.093v-.062h-.007c0 .02.007.04.007.062Z" class="colorfbba05 svgShape"></path><path fill="#bbd0e6" d="M494.94 252.5c.008 2.284-1.48 4.569-4.493 6.302v2.968c3.09-1.784 4.574-4.134 4.49-6.478l.01.014V252.5Z" class="colorbbc0e6 svgShape"></path><path fill="url(#l)" d="M473.814 268.41c-5.124 2.96-12.973 3.385-18.908 1.308v2.968c5.935 2.077 13.784 1.646 18.908-1.31 2.982-1.726 4.482-3.986 4.508-6.25l.002.007v-3.008c-.007 2.275-1.508 4.552-4.51 6.286Z"></path><path fill="#bbd0e6" d="M485.255 249.2a12.653 12.653 0 0 0-11.44 0c-1.531.883-2.374 2.056-2.374 3.302a2.978 2.978 0 0 0 .42 1.485 5.2 5.2 0 0 1 1.953-1.82 12.656 12.656 0 0 1 11.44-.004 5.157 5.157 0 0 1 1.943 1.824c.938-1.629.296-3.496-1.942-4.787Z" class="colorbbc0e6 svgShape"></path><path d="M174.891 583.622c-6.595-3.81-15.363-5.565-23.976-5.307H137.41v2.21a35.7 35.7 0 0 0-7.143 3.097c-12.276 7.14-12.205 18.71.152 25.85a35.954 35.954 0 0 0 6.991 3.028v2.312h16.196c7.789-.131 15.505-1.898 21.43-5.339 12.281-7.142 12.217-18.712-.146-25.851Z" style="mix-blend-mode:multiply" fill="url(#X)"></path><path fill="url(#Y)" d="M116.51 609.482c-6.218-3.592-9.332-8.306-9.313-13.014l.026-10.731c-.012 4.709 3.093 9.422 9.312 13.015 12.365 7.138 32.34 7.138 44.62.007 6.104-3.552 9.16-8.189 9.173-12.838l-.027 10.732c-.014 4.645-3.07 9.282-9.17 12.83-12.28 7.14-32.26 7.14-44.62-.001Z"></path><path fill="#f6f8fb" d="M116.535 598.752c-12.358-7.133-12.426-18.71-.147-25.843 12.28-7.14 32.265-7.14 44.623 0 12.364 7.133 12.426 18.71.144 25.85-12.28 7.131-32.255 7.131-44.62-.007Z" class="colorf6f6fb svgShape"></path><path fill="#bbd0e6" d="m154.962 584.36-23.349 1.187.727-5.248h-6.452l-1.753 9.567 30.827-1.782v-3.724zM838.051 120.417l20.175-34.944-20.175-11.647-119.943 69.249v46.591l119.943-69.249z" class="colorbbc0e6 svgShape"></path><path fill="#cee3f8" d="m580.856 120.416-20.174-34.943 20.174-11.648 119.943 69.249v46.591l-119.943-69.249z" class="colorced3f8 svgShape"></path><path fill="#f6f8fb" d="m580.856 73.825 248.584 143.47 8.655-4.997-248.584-143.47-8.655 4.997z" class="colorf6f6fb svgShape"></path><path fill="#f6f8fb" d="M589.555 217.295 838.051 73.826l-8.655-4.997L580.9 212.298l8.655 4.997z" class="colorf6f6fb svgShape"></path><path d="M700.029 477.5c20.523-11.849 53.797-11.849 74.32 0 10.26 5.925 15.391 13.69 15.392 21.454 0 7.765-5.131 15.53-15.392 21.455-20.523 11.849-53.797 11.848-74.32 0-10.261-5.925-15.392-13.69-15.392-21.455 0-7.764 5.13-15.53 15.392-21.454Z" style="mix-blend-mode:multiply" fill="url(#Z)"></path><path fill="#857dfb" d="M672.338 459.028c20.522-11.849 53.796-11.849 74.32 0 10.26 5.924 15.391 13.69 15.391 21.454 0 7.765-5.13 15.53-15.392 21.454-20.522 11.85-53.796 11.85-74.32 0-10.26-5.924-15.391-13.689-15.391-21.454 0-7.765 5.13-15.53 15.392-21.454Z" class="color807dfb svgShape"></path><path fill="url(#n)" d="M746.657 501.936c-20.522 11.85-53.796 11.85-74.32 0-10.26-5.924-15.391-13.689-15.391-21.454v18.472c0 7.765 5.13 15.53 15.392 21.455 20.523 11.848 53.797 11.849 74.32 0 10.26-5.925 15.391-13.69 15.391-21.455v-18.472c0 7.765-5.13 15.53-15.392 21.454Z"></path><path d="M753.177 497.354c5.91-5.088 8.872-10.979 8.872-16.872 0-5.893-2.962-11.783-8.872-16.872a51.84 51.84 0 0 0-9.48-.878h-36.366v35.5h36.366a51.846 51.846 0 0 0 9.48-.878Z" style="mix-blend-mode:multiply" fill="url(#aa)"></path><path fill="#857dfb" d="M691.298 425.208c10.051-5.803 26.348-5.803 36.4 0 5.025 2.902 7.538 6.705 7.538 10.508s-2.513 7.606-7.539 10.508c-10.051 5.803-26.348 5.803-36.4 0-5.025-2.902-7.538-6.705-7.538-10.508 0-3.803 2.513-7.606 7.539-10.508Z" class="color807dfb svgShape"></path><path fill="url(#ab)" d="M739.924 443.77h.033a33.888 33.888 0 0 0-7.263-14.463 10.051 10.051 0 0 1 2.542 6.41c0 3.802-2.513 7.605-7.539 10.507-10.051 5.803-26.348 5.803-36.4 0-5.025-2.902-7.538-6.705-7.538-10.508a10.05 10.05 0 0 1 2.542-6.41 33.888 33.888 0 0 0-7.263 14.465l.032-.002a10.495 10.495 0 0 0-.316 2.405c0 4.543 3.001 9.085 9.005 12.551 12.006 6.932 31.471 6.932 43.478 0 6.003-3.466 9.004-8.008 9.004-12.55a10.493 10.493 0 0 0-.317-2.406Z"></path><path fill="url(#ac)" d="M731.237 458.725c-12.007 6.932-31.472 6.932-43.478 0-6.004-3.466-9.005-8.008-9.005-12.55v34.307c0 4.543 3.001 9.085 9.005 12.551 12.006 6.932 31.471 6.932 43.478 0 6.003-3.466 9.004-8.008 9.004-12.55v-34.309c0 4.543-3.001 9.085-9.004 12.551Z"></path><path d="M709.497 439.243h24.976a8.635 8.635 0 0 0-.155-7.42h-24.82Z" style="mix-blend-mode:multiply" fill="url(#ad)"></path><path fill="url(#o)" d="M705.15 438.204a3.06 3.06 0 0 1-1.807-2.523l.005-251.939a3.065 3.065 0 0 0 1.807 2.525 9.543 9.543 0 0 0 8.655.001 3.044 3.044 0 0 0 1.78-2.49l-.005 251.938a3.043 3.043 0 0 1-1.78 2.489 9.531 9.531 0 0 1-8.655 0Z"></path><path fill="#857dfb" d="M705.155 186.249c-2.398-1.384-2.411-3.63-.03-5.013a9.537 9.537 0 0 1 8.657 0c2.399 1.383 2.41 3.629.028 5.014a9.543 9.543 0 0 1-8.655-.001Z" class="color807dfb svgShape"></path><path fill="#bbd0e6" d="m589.555 217.295-20.175 34.944 20.175 11.647 119.942-69.249v-46.591l-119.942 69.249z" class="colorbbc0e6 svgShape"></path><path fill="#cee3f8" d="m829.44 217.295 20.175 34.944-20.175 11.647-119.943-69.249v-46.591l119.943 69.249z" class="colorced3f8 svgShape"></path><path fill="#dfe9f4" d="M554.965 227.284h40.306v9.994h-40.306z" transform="rotate(-59.999 575.118 232.28)" class="colordfe4f4 svgShape"></path><path fill="#bbd0e6" d="M838.88 212.128h9.994v40.306h-9.994z" transform="rotate(-30.001 843.877 232.28)" class="colorbbc0e6 svgShape"></path><path d="m718.132 143.061 8.28-4.78h-16.946v8.331h14.817l-6.151-3.551z" style="mix-blend-mode:multiply" fill="#dfe9f4" class="colordfe4f4 svgShape"></path><path fill="url(#ae)" d="M705.15 145.572a3.06 3.06 0 0 1-1.807-2.523l.005-17.989a3.065 3.065 0 0 0 1.807 2.525 9.543 9.543 0 0 0 8.655.002 3.044 3.044 0 0 0 1.78-2.49l-.005 17.987a3.043 3.043 0 0 1-1.78 2.489 9.531 9.531 0 0 1-8.655 0Z"></path><path fill="#857dfb" d="M705.155 127.567c-2.398-1.384-2.411-3.63-.03-5.013a9.537 9.537 0 0 1 8.657 0c2.399 1.384 2.41 3.63.028 5.015a9.543 9.543 0 0 1-8.655-.002Z" class="color807dfb svgShape"></path><path d="m814.437 113.822-52.539 30.334v-4.667l52.539-30.333v4.666z" style="mix-blend-mode:multiply" fill="#dfe9f4" class="colordfe4f4 svgShape"></path><g style="mix-blend-mode:multiply" fill="#f4f6f8" class="color000000 svgShape"><path fill="#dfe9f4" d="M744.595 189.762c-1.466-.847-2.654-.16-2.654 1.532a5.865 5.865 0 0 0 2.654 4.596c1.465.846 2.653.16 2.653-1.532a5.865 5.865 0 0 0-2.653-4.596Zm13.728 7.926c-1.466-.847-2.654-.16-2.654 1.532a5.865 5.865 0 0 0 2.654 4.596c1.466.846 2.654.16 2.654-1.532a5.865 5.865 0 0 0-2.654-4.596Zm13.728 7.926c-1.465-.847-2.653-.16-2.653 1.532a5.865 5.865 0 0 0 2.653 4.596c1.466.846 2.654.16 2.654-1.532a5.865 5.865 0 0 0-2.654-4.596Zm13.729 7.926c-1.466-.846-2.654-.16-2.654 1.532a5.865 5.865 0 0 0 2.654 4.596c1.465.846 2.654.16 2.654-1.532a5.866 5.866 0 0 0-2.654-4.596Z" class="colordfe4f4 svgShape"></path></g><g style="mix-blend-mode:multiply" fill="#f4f6f8" class="color000000 svgShape"><path fill="#dfe9f4" d="M618.385 116.894c-1.465-.846-2.653-.16-2.653 1.532a5.865 5.865 0 0 0 2.653 4.597c1.466.846 2.654.16 2.654-1.532a5.866 5.866 0 0 0-2.654-4.597Zm13.729 7.927c-1.466-.847-2.654-.16-2.654 1.532a5.865 5.865 0 0 0 2.654 4.596c1.465.846 2.653.16 2.653-1.532a5.866 5.866 0 0 0-2.653-4.596Zm13.728 7.926c-1.465-.846-2.653-.16-2.653 1.532a5.865 5.865 0 0 0 2.653 4.596c1.466.846 2.654.16 2.654-1.532a5.866 5.866 0 0 0-2.654-4.596Zm13.728 7.926c-1.465-.846-2.653-.16-2.653 1.532a5.866 5.866 0 0 0 2.653 4.596c1.466.846 2.654.16 2.654-1.532a5.865 5.865 0 0 0-2.654-4.596Z" class="colordfe4f4 svgShape"></path></g><path d="M658.54 206.714c-3.521 2.034-7.041 2.52-9.721.971-3.888-2.238-10.21 1.41-14.09 8.135-5.365 9.285-14.093 14.323-19.455 11.233l2.68-4.645c3.885 2.24 10.208-1.411 14.095-8.138 5.358-9.284 14.084-14.32 19.45-11.23 3.883 2.243 10.2-1.404 14.084-8.13a27.952 27.952 0 0 1 9.724-10.264c3.676-2.122 7.13-2.465 9.724-.964l-2.68 4.644c-1.88-1.086-4.382-.838-7.044.699a20.246 20.246 0 0 0-7.043 7.434 27.996 27.996 0 0 1-9.723 10.255Z" style="mix-blend-mode:multiply" fill="#dfe9f4" class="colordfe4f4 svgShape"></path><path style="mix-blend-mode:multiply" fill="url(#p)" d="M948.052 195.841h70.46v31.764h-70.46z"></path><path style="mix-blend-mode:multiply" fill="url(#af)" d="M210.355 508.666h99.739v44.964h-99.739z"></path><path fill="#f6f8fb" d="m203.915 503.164-32.346-18.679c-1.781-1.027-2.67-2.372-2.67-3.717 0-1.346.889-2.69 2.67-3.715l32.346-18.677a14.236 14.236 0 0 1 12.875 0l32.349 18.677c1.776 1.025 2.666 2.369 2.666 3.718 0 1.342-.89 2.687-2.666 3.714l-32.349 18.679a14.249 14.249 0 0 1-12.875 0Z" class="colorf6f6fb svgShape"></path><path fill="url(#q)" d="m249.139 484.485-32.349 18.679a14.249 14.249 0 0 1-12.875 0l-32.346-18.679c-1.781-1.027-2.67-2.372-2.67-3.717v48.928c0 1.348.889 2.691 2.67 3.717l32.346 18.675a14.208 14.208 0 0 0 12.875 0l32.349-18.675c1.776-1.026 2.666-2.369 2.666-3.717v-48.928c0 1.345-.89 2.69-2.666 3.717Z"></path><path style="mix-blend-mode:multiply" fill="url(#ag)" d="M1010.096 162.66h99.739v44.964h-99.739z"></path><path fill="#f6f8fb" d="m1003.655 157.157-32.346-18.678c-1.781-1.028-2.67-2.373-2.67-3.717 0-1.347.889-2.69 2.67-3.716l32.346-18.677a14.236 14.236 0 0 1 12.875 0l32.35 18.677c1.776 1.026 2.665 2.37 2.665 3.719 0 1.341-.89 2.686-2.666 3.714l-32.349 18.678a14.249 14.249 0 0 1-12.875 0Z" class="colorf6f6fb svgShape"></path><path fill="url(#ah)" d="m1048.88 138.479-32.35 18.678a14.249 14.249 0 0 1-12.875 0l-32.346-18.678c-1.781-1.028-2.67-2.373-2.67-3.717v48.928c0 1.348.889 2.69 2.67 3.717l32.346 18.675a14.208 14.208 0 0 0 12.875 0l32.35-18.675c1.776-1.026 2.665-2.37 2.665-3.718v-48.927c0 1.345-.89 2.69-2.666 3.717Z"></path><path style="mix-blend-mode:multiply" fill="url(#ai)" d="M614.843 861.718h124.525v56.137H614.843z"></path><path fill="#f6f8fb" d="m606.802 854.848-40.383-23.32c-2.224-1.283-3.335-2.962-3.335-4.64 0-1.682 1.11-3.36 3.335-4.64l40.383-23.318a17.772 17.772 0 0 1 16.075 0l40.388 23.318c2.218 1.28 3.328 2.958 3.328 4.643 0 1.675-1.11 3.354-3.328 4.637l-40.388 23.32a17.788 17.788 0 0 1-16.075 0Z" class="colorf6f6fb svgShape"></path><path fill="url(#aj)" d="m663.265 831.528-40.388 23.32a17.788 17.788 0 0 1-16.075 0l-40.383-23.32c-2.224-1.283-3.335-2.962-3.335-4.64v61.085c0 1.683 1.11 3.36 3.335 4.641l40.383 23.316a17.739 17.739 0 0 0 16.075 0l40.388-23.316c2.218-1.28 3.328-2.958 3.328-4.64v-61.087c0 1.68-1.11 3.358-3.328 4.641Z"></path><path fill="#f6f8fb" d="m943.502 191.954-22.85-13.195a2.77 2.77 0 0 1 0-5.25l22.85-13.195a10.056 10.056 0 0 1 9.096 0l22.852 13.194a2.772 2.772 0 0 1 0 5.251l-22.852 13.195a10.066 10.066 0 0 1-9.096 0Z" class="colorf6f6fb svgShape"></path><path fill="url(#ak)" d="m975.45 178.76-22.852 13.194a10.066 10.066 0 0 1-9.096 0l-22.85-13.195a3.196 3.196 0 0 1-1.887-2.626v34.565a3.192 3.192 0 0 0 1.887 2.626l22.85 13.192a10.038 10.038 0 0 0 9.096 0l22.852-13.192a3.195 3.195 0 0 0 1.884-2.626v-34.565a3.199 3.199 0 0 1-1.884 2.626Z"></path><path style="mix-blend-mode:multiply" fill="url(#al)" d="M755.733 926.401h70.46v31.764h-70.46z"></path><path fill="#f6f8fb" d="m751.183 922.514-22.85-13.195a2.77 2.77 0 0 1 0-5.251l22.85-13.194a10.057 10.057 0 0 1 9.096 0l22.852 13.194a2.772 2.772 0 0 1 0 5.25l-22.852 13.196a10.066 10.066 0 0 1-9.096 0Z" class="colorf6f6fb svgShape"></path><path fill="url(#am)" d="m783.131 909.319-22.852 13.195a10.066 10.066 0 0 1-9.096 0l-22.85-13.195a3.197 3.197 0 0 1-1.887-2.626v34.564a3.192 3.192 0 0 0 1.887 2.626l22.85 13.193a10.036 10.036 0 0 0 9.096 0l22.852-13.193a3.194 3.194 0 0 0 1.884-2.626v-34.564a3.199 3.199 0 0 1-1.884 2.626Z"></path></g></g></g></svg>