<svg xmlns="http://www.w3.org/2000/svg" xmlns:xlink="http://www.w3.org/1999/xlink" viewBox="0 0 1652.123 1550.167" id="BusinessCompetition"><defs><linearGradient id="a" x1="792.53" x2="979.687" y1="496.062" y2="496.062" gradientUnits="userSpaceOnUse"><stop offset="0" stop-color="#cfe0f1" class="stopColorcfd5f1 svgShape"></stop><stop offset=".283" stop-color="#e1ebf6" class="stopColore1e5f6 svgShape"></stop><stop offset=".719" stop-color="#f7fafd" class="stopColorf7f8fd svgShape"></stop><stop offset="1" stop-color="#ffffff" class="stopColorffffff svgShape"></stop></linearGradient><linearGradient id="t" x1="1377.587" x2="1434.601" y1="999.495" y2="999.495" xlink:href="#a"></linearGradient><linearGradient id="u" x1="1172.299" x2="1216.781" y1="407.17" y2="407.17" xlink:href="#a"></linearGradient><linearGradient id="v" x1="455.314" x2="543.406" y1="1209.123" y2="1209.123" xlink:href="#a"></linearGradient><linearGradient id="f" x1="482.512" x2="482.512" y1="827.795" y2="208.637" gradientUnits="userSpaceOnUse"><stop offset=".465" stop-color="#ffffff" class="stopColorffffff svgShape"></stop><stop offset=".829" stop-color="#dfe9f4" class="stopColordfe4f4 svgShape"></stop></linearGradient><linearGradient id="g" x1="323.928" x2="323.928" y1="827.795" y2="208.637" gradientUnits="userSpaceOnUse"><stop offset=".474" stop-color="#ffffff" class="stopColorffffff svgShape"></stop><stop offset=".891" stop-color="#e9f0f7" class="stopColore9edf7 svgShape"></stop></linearGradient><linearGradient id="b" x1="464.745" x2="828.96" y1="1008.524" y2="1008.524" gradientUnits="userSpaceOnUse"><stop offset="0" stop-color="#d1e2f3" class="stopColord1d7f3 svgShape"></stop><stop offset="1" stop-color="#ffffff" class="stopColorffffff svgShape"></stop></linearGradient><linearGradient id="w" x1="736.995" x2="1150.695" y1="837.055" y2="837.055" xlink:href="#b"></linearGradient><linearGradient id="x" x1="461.249" x2="654.931" y1="1095.063" y2="759.597" gradientUnits="userSpaceOnUse"><stop offset=".42" stop-color="#6bb5ff" class="stopColorffc16b svgShape"></stop><stop offset=".564" stop-color="#ff6ae4" class="stopColorff826a svgShape"></stop><stop offset=".784" stop-color="#ff6ae4" class="stopColorff826a svgShape"></stop><stop offset=".927" stop-color="#6bb5ff" class="stopColorffc16b svgShape"></stop></linearGradient><linearGradient id="y" x1="782.767" x2="992.051" y1="945.216" y2="582.725" gradientUnits="userSpaceOnUse"><stop offset=".39" stop-color="#6bb5ff" class="stopColorffc16b svgShape"></stop><stop offset=".552" stop-color="#ff6ae4" class="stopColorff826a svgShape"></stop><stop offset=".784" stop-color="#ff6ae4" class="stopColorff826a svgShape"></stop><stop offset=".927" stop-color="#6bb5ff" class="stopColorffc16b svgShape"></stop></linearGradient><linearGradient id="c" x1="703.37" x2="751.757" y1="907.719" y2="823.91" gradientUnits="userSpaceOnUse"><stop offset="0" stop-color="#a50b89" class="stopColora5284c svgShape"></stop><stop offset=".16" stop-color="#c130a7" class="stopColorc13053 svgShape"></stop></linearGradient><linearGradient id="z" x1="1025.105" x2="1073.493" y1="721.965" y2="638.155" xlink:href="#c"></linearGradient><linearGradient id="A" x1="1264.039" x2="1313.863" y1="611.131" y2="611.131" xlink:href="#b"></linearGradient><linearGradient id="B" x1="655.565" x2="1019.798" y1="1118.689" y2="1118.689" xlink:href="#b"></linearGradient><linearGradient id="C" x1="652.074" x2="845.765" y1="1205.236" y2="869.754" gradientUnits="userSpaceOnUse"><stop offset=".39" stop-color="#857dfb" class="stopColor807dfb svgShape"></stop><stop offset=".552" stop-color="#5a52cc" class="stopColor5652cc svgShape"></stop><stop offset=".784" stop-color="#5a52cc" class="stopColor5652cc svgShape"></stop><stop offset=".927" stop-color="#857dfb" class="stopColor807dfb svgShape"></stop></linearGradient><linearGradient id="D" x1="894.208" x2="942.596" y1="1017.879" y2="934.069" gradientUnits="userSpaceOnUse"><stop offset="0" stop-color="#193f6f" class="stopColor20196f svgShape"></stop><stop offset=".16" stop-color="#662e94" class="stopColor362e94 svgShape"></stop></linearGradient><linearGradient id="E" x1="1111.45" x2="1161.273" y1="919.569" y2="919.569" xlink:href="#b"></linearGradient><linearGradient id="e" x1="1009.92" x2="1205.603" y1="1068.832" y2="1068.832" gradientUnits="userSpaceOnUse"><stop offset="0" stop-color="#dae7f5" class="stopColordae0f5 svgShape"></stop><stop offset=".006" stop-color="#dbe8f5" class="stopColordbe1f5 svgShape"></stop><stop offset=".228" stop-color="#eff5fb" class="stopColoreff1fb svgShape"></stop><stop offset=".449" stop-color="#fbfcfe" class="stopColorfbfcfe svgShape"></stop><stop offset=".669" stop-color="#ffffff" class="stopColorffffff svgShape"></stop></linearGradient><linearGradient id="d" x1="677.254" x2="753.822" y1="906.093" y2="906.093" gradientUnits="userSpaceOnUse"><stop offset="0" stop-color="#e8eff7" class="stopColore8ecf7 svgShape"></stop><stop offset="1" stop-color="#ffffff" class="stopColorffffff svgShape"></stop></linearGradient><linearGradient id="G" x1="869.646" x2="946.214" y1="1017.171" y2="1017.171" xlink:href="#d"></linearGradient><linearGradient id="H" x1="1331.655" x2="1527.339" y1="883.078" y2="883.078" xlink:href="#e"></linearGradient><linearGradient id="J" x1="998.989" x2="1075.557" y1="720.339" y2="720.339" xlink:href="#d"></linearGradient><linearGradient id="K" x1="411.231" x2="461.054" y1="883.162" y2="883.162" xlink:href="#b"></linearGradient><linearGradient id="k" x1="914.534" x2="990.791" y1="1167.075" y2="1167.075" gradientUnits="userSpaceOnUse"><stop offset=".427" stop-color="#c4d4e4" class="stopColorc4c9e4 svgShape"></stop><stop offset=".577" stop-color="#d7e2ed" class="stopColord7daed svgShape"></stop><stop offset=".846" stop-color="#f4f7fa" class="stopColorf4f5fa svgShape"></stop><stop offset="1" stop-color="#ffffff" class="stopColorffffff svgShape"></stop></linearGradient><linearGradient id="L" x1="897.725" x2="974.02" y1="1171.59" y2="1171.59" gradientUnits="userSpaceOnUse"><stop offset="0" stop-color="#cee3f8" class="stopColorced3f8 svgShape"></stop><stop offset=".173" stop-color="#c5d9ee" class="stopColorc5caee svgShape"></stop><stop offset=".687" stop-color="#aec1d5" class="stopColoraeb3d5 svgShape"></stop><stop offset="1" stop-color="#a5b8cc" class="stopColora5abcc svgShape"></stop></linearGradient><linearGradient id="M" x1="1436.532" x2="1436.532" y1="1684.811" y2="1113.293" xlink:href="#f"></linearGradient><linearGradient id="N" x1="1289.741" x2="1289.741" y1="1684.811" y2="1113.293" xlink:href="#g"></linearGradient><linearGradient id="O" x1="766.661" x2="766.661" y1="1552.247" y2="1281.701" xlink:href="#f"></linearGradient><linearGradient id="P" x1="685.914" x2="685.914" y1="1552.247" y2="1281.701" xlink:href="#g"></linearGradient><linearGradient id="Q" x1="526.024" x2="665.534" y1="656.246" y2="656.246" gradientUnits="userSpaceOnUse"><stop offset="0" stop-color="#d1e0f0" class="stopColord1d6f0 svgShape"></stop><stop offset=".29" stop-color="#d5e3f1" class="stopColord5daf1 svgShape"></stop><stop offset=".592" stop-color="#e2ebf5" class="stopColore2e5f5 svgShape"></stop><stop offset=".899" stop-color="#f6f9fc" class="stopColorf6f7fc svgShape"></stop><stop offset="1" stop-color="#ffffff" class="stopColorffffff svgShape"></stop></linearGradient><linearGradient id="h" x1="559.984" x2="609.553" y1="636.7" y2="636.7" gradientUnits="userSpaceOnUse"><stop offset="0" stop-color="#bbcee2" class="stopColorbbbfe2 svgShape"></stop><stop offset="1" stop-color="#cee1f4" class="stopColorced2f4 svgShape"></stop></linearGradient><linearGradient id="R" x1="629.983" x2="643.854" y1="663.806" y2="663.806" gradientUnits="userSpaceOnUse"><stop offset="0" stop-color="#a5bcd4" class="stopColora5acd4 svgShape"></stop><stop offset=".635" stop-color="#bed2e7" class="stopColorbec3e7 svgShape"></stop><stop offset="1" stop-color="#cee1f4" class="stopColorced2f4 svgShape"></stop></linearGradient><linearGradient id="S" x1="526.024" x2="539.961" y1="663.821" y2="663.821" xlink:href="#h"></linearGradient><linearGradient id="T" x1="606.811" x2="624.62" y1="676.674" y2="676.674" gradientUnits="userSpaceOnUse"><stop offset="0" stop-color="#a5bcd4" class="stopColora5acd4 svgShape"></stop><stop offset=".516" stop-color="#bcd1e6" class="stopColorbcc2e6 svgShape"></stop><stop offset="1" stop-color="#cee1f4" class="stopColorced2f4 svgShape"></stop></linearGradient><linearGradient id="U" x1="545.43" x2="563.272" y1="676.692" y2="676.692" xlink:href="#h"></linearGradient><linearGradient id="V" x1="575.401" x2="594.737" y1="681.892" y2="681.892" xlink:href="#h"></linearGradient><linearGradient id="W" x1="549.643" x2="619.899" y1="629.945" y2="629.945" xlink:href="#h"></linearGradient><linearGradient id="X" x1="1024.351" x2="1099.777" y1="495.6" y2="495.6" gradientUnits="userSpaceOnUse"><stop offset=".365" stop-color="#c4d4e4" class="stopColorc4c9e4 svgShape"></stop><stop offset="1" stop-color="#ffffff" class="stopColorffffff svgShape"></stop></linearGradient><linearGradient id="i" x1="1008.58" x2="1082.459" y1="501.501" y2="501.501" gradientUnits="userSpaceOnUse"><stop offset="0" stop-color="#cee3f8" class="stopColorced3f8 svgShape"></stop><stop offset="1" stop-color="#bbd0e6" class="stopColorbbc0e6 svgShape"></stop></linearGradient><linearGradient id="Y" x1="1034.119" x2="1050.334" y1="493.074" y2="493.074" xlink:href="#i"></linearGradient><linearGradient id="Z" x1="239.207" x2="334.622" y1="773.164" y2="773.164" xlink:href="#a"></linearGradient><linearGradient id="aa" x1="1213.509" x2="1297.733" y1="913.492" y2="913.492" xlink:href="#a"></linearGradient><linearGradient id="ab" x1="1202.325" x2="1259.339" y1="959.631" y2="959.631" xlink:href="#a"></linearGradient><linearGradient id="ac" x1="1381.651" x2="1456.032" y1="665.955" y2="665.955" gradientUnits="userSpaceOnUse"><stop offset="0" stop-color="#c4d4e4" class="stopColorc4c9e4 svgShape"></stop><stop offset="1" stop-color="#ffffff" class="stopColorffffff svgShape"></stop></linearGradient><linearGradient id="j" x1="1366.778" x2="1434.284" y1="659.569" y2="659.569" gradientUnits="userSpaceOnUse"><stop offset="0" stop-color="#847cfb" class="stopColor807cfb svgShape"></stop><stop offset=".014" stop-color="#837bfa" class="stopColor7f7bfa svgShape"></stop><stop offset=".448" stop-color="#625ad1" class="stopColor5e5ad1 svgShape"></stop><stop offset=".792" stop-color="#4d46b8" class="stopColor4a46b8 svgShape"></stop><stop offset="1" stop-color="#7c3eaf" class="stopColor423eaf svgShape"></stop></linearGradient><linearGradient id="ad" x1="1366.778" x2="1434.284" y1="666.013" y2="666.013" gradientUnits="userSpaceOnUse"><stop offset="0" stop-color="#d8e4f0" class="stopColord8def0 svgShape"></stop><stop offset=".551" stop-color="#c6d6e7" class="stopColorc6cce7 svgShape"></stop><stop offset="1" stop-color="#bdd0e3" class="stopColorbdc3e3 svgShape"></stop></linearGradient><linearGradient id="ae" x1="1366.778" x2="1434.284" y1="672.457" y2="672.457" xlink:href="#j"></linearGradient><linearGradient id="af" x1="779.983" x2="893.086" y1="677.708" y2="677.708" xlink:href="#a"></linearGradient><linearGradient id="ag" x1="157.195" x2="252.02" y1="1256.272" y2="1256.272" gradientUnits="userSpaceOnUse"><stop offset="0" stop-color="#cfe0f1" class="stopColorcfd5f1 svgShape"></stop><stop offset=".007" stop-color="#d0e0f1" class="stopColord0d5f1 svgShape"></stop><stop offset=".389" stop-color="#eaf1f9" class="stopColoreaecf9 svgShape"></stop><stop offset=".732" stop-color="#f9fbfd" class="stopColorf9fafd svgShape"></stop><stop offset="1" stop-color="#ffffff" class="stopColorffffff svgShape"></stop></linearGradient><linearGradient id="ah" x1="717.698" x2="771.024" y1="695.961" y2="695.961" xlink:href="#a"></linearGradient><linearGradient id="ai" x1="780.745" x2="826.351" y1="381.791" y2="381.791" xlink:href="#k"></linearGradient><linearGradient id="aj" x1="770.691" x2="816.32" y1="384.491" y2="384.491" gradientUnits="userSpaceOnUse"><stop offset="0" stop-color="#6bb5ff" class="stopColorffc16b svgShape"></stop><stop offset=".012" stop-color="#6bb5ff" class="stopColorffbf6b svgShape"></stop><stop offset=".347" stop-color="#f364d9" class="stopColorf38764 svgShape"></stop><stop offset=".636" stop-color="#ea5ed1" class="stopColorea5e60 svgShape"></stop><stop offset=".862" stop-color="#e545c8" class="stopColore5455d svgShape"></stop><stop offset="1" stop-color="#e33cc5" class="stopColore33c5c svgShape"></stop></linearGradient><linearGradient id="ak" x1="769.348" x2="810.488" y1="589.956" y2="589.956" xlink:href="#k"></linearGradient><linearGradient id="al" x1="760.279" x2="801.439" y1="592.392" y2="592.392" gradientUnits="userSpaceOnUse"><stop offset="0" stop-color="#857dfb" class="stopColor807dfb svgShape"></stop><stop offset=".014" stop-color="#847cfa" class="stopColor7f7cfa svgShape"></stop><stop offset=".448" stop-color="#625ad1" class="stopColor5e5ad1 svgShape"></stop><stop offset=".792" stop-color="#4d46b8" class="stopColor4a46b8 svgShape"></stop><stop offset="1" stop-color="#7c3eaf" class="stopColor423eaf svgShape"></stop></linearGradient><linearGradient id="am" x1="1344.655" x2="1478.288" y1="505.193" y2="505.193" gradientUnits="userSpaceOnUse"><stop offset=".427" stop-color="#c2d4e7" class="stopColorc2c8e7 svgShape"></stop><stop offset=".559" stop-color="#c9d9ea" class="stopColorc9ceea svgShape"></stop><stop offset=".745" stop-color="#dbe6f1" class="stopColordbdef1 svgShape"></stop><stop offset=".961" stop-color="#f9fbfd" class="stopColorf9f9fd svgShape"></stop><stop offset="1" stop-color="#ffffff" class="stopColorffffff svgShape"></stop></linearGradient><linearGradient id="an" x1="1391.932" x2="1430.616" y1="492.175" y2="492.175" gradientUnits="userSpaceOnUse"><stop offset="0" stop-color="#c2d4e7" class="stopColorc2c8e7 svgShape"></stop><stop offset=".916" stop-color="#ffffff" class="stopColorffffff svgShape"></stop></linearGradient><linearGradient id="ao" x1="1324.793" x2="1458.431" y1="517.972" y2="517.972" xlink:href="#i"></linearGradient><linearGradient id="ap" x1="1391.932" x2="1411.135" y1="483.993" y2="483.993" gradientUnits="userSpaceOnUse"><stop offset="0" stop-color="#c2d4e7" class="stopColorc2c8e7 svgShape"></stop><stop offset="1" stop-color="#ffffff" class="stopColorffffff svgShape"></stop></linearGradient><linearGradient id="l" x1="1372.705" x2="1411.156" y1="493.333" y2="493.333" gradientUnits="userSpaceOnUse"><stop offset="0" stop-color="#ff6ae4" class="stopColorff826a svgShape"></stop><stop offset=".116" stop-color="#f567db" class="stopColorf57767 svgShape"></stop><stop offset=".708" stop-color="#c845b0" class="stopColorc84557 svgShape"></stop><stop offset="1" stop-color="#b7329f" class="stopColorb73251 svgShape"></stop></linearGradient><linearGradient id="aq" x1="1382.317" x2="1401.541" y1="469.234" y2="469.234" xlink:href="#l"></linearGradient><linearGradient id="ar" x1="1382.317" x2="1401.541" y1="455.445" y2="455.445" gradientUnits="userSpaceOnUse"><stop offset="0" stop-color="#ffffff" class="stopColorffffff svgShape"></stop><stop offset=".14" stop-color="#fbfcfe" class="stopColorfbfcfe svgShape"></stop><stop offset="1" stop-color="#e8eff7" class="stopColore8ecf7 svgShape"></stop></linearGradient><linearGradient id="as" x1="1309.431" x2="1474.427" y1="394.38" y2="394.38" gradientUnits="userSpaceOnUse"><stop offset="0" stop-color="#ff6ae4" class="stopColorff826a svgShape"></stop><stop offset=".007" stop-color="#ff6ae4" class="stopColorff816a svgShape"></stop><stop offset=".672" stop-color="#eb4fcf" class="stopColoreb4f60 svgShape"></stop><stop offset="1" stop-color="#e33cc5" class="stopColore33c5c svgShape"></stop></linearGradient><linearGradient id="at" x1="1316.02" x2="1467.841" y1="334.309" y2="334.309" gradientUnits="userSpaceOnUse"><stop offset="0" stop-color="#e33cc5" class="stopColore33c5c svgShape"></stop><stop offset=".213" stop-color="#e644c9" class="stopColore6445e svgShape"></stop><stop offset=".536" stop-color="#ee59d3" class="stopColoree5962 svgShape"></stop><stop offset=".927" stop-color="#fc69e1" class="stopColorfc7b69 svgShape"></stop><stop offset="1" stop-color="#ff6ae4" class="stopColorff826a svgShape"></stop></linearGradient><linearGradient id="m" x1="409.868" x2="462.35" y1="1001.569" y2="1001.569" gradientTransform="translate(-218.782)" gradientUnits="userSpaceOnUse"><stop offset="0" stop-color="#c4d6e8" class="stopColorc4cae8 svgShape"></stop><stop offset=".095" stop-color="#ceddec" class="stopColorced3ec svgShape"></stop><stop offset=".409" stop-color="#e9eff6" class="stopColore9ebf6 svgShape"></stop><stop offset=".687" stop-color="#f9fbfd" class="stopColorf9fafd svgShape"></stop><stop offset=".899" stop-color="#ffffff" class="stopColorffffff svgShape"></stop></linearGradient><linearGradient id="au" x1="322.664" x2="375.14" y1="987.651" y2="987.651" gradientTransform="translate(-155.067)" xlink:href="#m"></linearGradient><linearGradient id="n" x1="-267.525" x2="-248.179" y1="985.797" y2="985.797" gradientTransform="matrix(-1 0 0 1 -86.606 0)" gradientUnits="userSpaceOnUse"><stop offset="0" stop-color="#7c3eaf" class="stopColor423eaf svgShape"></stop><stop offset=".304" stop-color="#7035a0" class="stopColor3a35a0 svgShape"></stop><stop offset=".891" stop-color="#1e4577" class="stopColor241e77 svgShape"></stop><stop offset="1" stop-color="#193f6f" class="stopColor1f196f svgShape"></stop></linearGradient><linearGradient id="av" x1="-291.443" x2="-272.1" y1="999.719" y2="999.719" xlink:href="#n"></linearGradient><linearGradient id="aw" x1="-283.041" x2="-249.787" y1="953.5" y2="953.5" gradientTransform="matrix(-1 0 0 1 -86.606 0)" gradientUnits="userSpaceOnUse"><stop offset="0" stop-color="#7c3eaf" class="stopColor423eaf svgShape"></stop><stop offset=".301" stop-color="#683097" class="stopColor353097 svgShape"></stop><stop offset=".746" stop-color="#1f477a" class="stopColor251f7a svgShape"></stop><stop offset="1" stop-color="#193f6f" class="stopColor1f196f svgShape"></stop></linearGradient><linearGradient id="ax" x1="2004.391" x2="2024.714" y1="878.302" y2="878.302" gradientTransform="matrix(-1 0 0 1 2214.645 0)" gradientUnits="userSpaceOnUse"><stop offset="0" stop-color="#e33cc5" class="stopColore33c5c svgShape"></stop><stop offset=".256" stop-color="#e440c6" class="stopColore4405d svgShape"></stop><stop offset=".487" stop-color="#e94bcc" class="stopColore94b5f svgShape"></stop><stop offset=".708" stop-color="#f05dd5" class="stopColorf05d63 svgShape"></stop><stop offset=".922" stop-color="#fa68df" class="stopColorfa7768 svgShape"></stop><stop offset="1" stop-color="#ff6ae4" class="stopColorff826a svgShape"></stop></linearGradient><linearGradient id="ay" x1="-284.328" x2="-249.591" y1="893.818" y2="893.818" gradientTransform="matrix(-1 0 0 1 -86.606 0)" gradientUnits="userSpaceOnUse"><stop offset="0" stop-color="#e33cc5" class="stopColore33c5c svgShape"></stop><stop offset="1" stop-color="#ff6ae4" class="stopColorff826a svgShape"></stop></linearGradient><linearGradient id="az" x1="1272.834" x2="1244.387" y1="891.432" y2="881.427" gradientTransform="translate(-1057.642)" gradientUnits="userSpaceOnUse"><stop offset="0" stop-color="#e33cc5" class="stopColore33c5c svgShape"></stop><stop offset=".177" stop-color="#ea4ece" class="stopColorea4e60 svgShape"></stop><stop offset=".504" stop-color="#f665dc" class="stopColorf66b65 svgShape"></stop><stop offset=".789" stop-color="#fd69e2" class="stopColorfd7c69 svgShape"></stop><stop offset="1" stop-color="#ff6ae4" class="stopColorff826a svgShape"></stop></linearGradient><linearGradient id="o" x1="846.72" x2="907.432" y1="829.957" y2="829.957" gradientUnits="userSpaceOnUse"><stop offset="0" stop-color="#d1e2f3" class="stopColord1d7f3 svgShape"></stop><stop offset=".379" stop-color="#dfebf7" class="stopColordfe3f7 svgShape"></stop><stop offset="1" stop-color="#ffffff" class="stopColorffffff svgShape"></stop></linearGradient><linearGradient id="aA" x1="378.107" x2="417.127" y1="234.937" y2="234.937" gradientTransform="scale(-1 1) rotate(-59.748 228.979 1522.606)" gradientUnits="userSpaceOnUse"><stop offset="0" stop-color="#cee3f8" class="stopColorced3f8 svgShape"></stop><stop offset=".882" stop-color="#bed3e8" class="stopColorbec3e8 svgShape"></stop><stop offset="1" stop-color="#bbd0e6" class="stopColorbbc0e6 svgShape"></stop></linearGradient><linearGradient id="p" x1="643.023" x2="663.087" y1="1032.838" y2="1032.838" gradientTransform="scale(-1 1) rotate(25.722 365.266 -2373.172)" gradientUnits="userSpaceOnUse"><stop offset="0" stop-color="#7c3eaf" class="stopColor423eaf svgShape"></stop><stop offset="1" stop-color="#7c3eaf" class="stopColor423eaf svgShape"></stop></linearGradient><linearGradient id="aB" x1="801.129" x2="850.854" y1="788.396" y2="788.396" gradientUnits="userSpaceOnUse"><stop offset="0" stop-color="#7c3eaf" class="stopColor423eaf svgShape"></stop><stop offset=".564" stop-color="#5c2888" class="stopColor2d2888 svgShape"></stop><stop offset="1" stop-color="#193f6f" class="stopColor20196f svgShape"></stop></linearGradient><linearGradient id="aC" x1="1244.776" x2="1299.127" y1="718.387" y2="718.387" gradientTransform="rotate(2.109 486.645 -11315.626)" gradientUnits="userSpaceOnUse"><stop offset="0" stop-color="#dae7f5" class="stopColordae0f5 svgShape"></stop><stop offset=".224" stop-color="#d4e3f2" class="stopColord4daf2 svgShape"></stop><stop offset="1" stop-color="#c4d6e9" class="stopColorc4cae9 svgShape"></stop></linearGradient><linearGradient id="aD" x1="-79.467" x2="-26.233" y1="835.602" y2="835.602" gradientTransform="scale(-1 1) rotate(11.058 108.761 -3286.475)" gradientUnits="userSpaceOnUse"><stop offset="0" stop-color="#c4d6e9" class="stopColorc4cae9 svgShape"></stop><stop offset=".611" stop-color="#e6edf5" class="stopColore6e8f5 svgShape"></stop><stop offset="1" stop-color="#f6f8fb" class="stopColorf6f6fb svgShape"></stop></linearGradient><linearGradient id="aE" x1="692.722" x2="758.013" y1="1128.811" y2="1128.811" xlink:href="#o"></linearGradient><linearGradient id="r" x1="203.698" x2="243.957" y1="514.6" y2="514.6" gradientTransform="scale(-1 1) rotate(-61.731 218.95 1489.93)" gradientUnits="userSpaceOnUse"><stop offset="0" stop-color="#6f67e9" class="stopColor6b67e9 svgShape"></stop><stop offset=".221" stop-color="#756dee" class="stopColor706dee svgShape"></stop><stop offset="1" stop-color="#857dfb" class="stopColor807dfb svgShape"></stop></linearGradient><linearGradient id="aF" x1="203.698" x2="243.958" y1="491.84" y2="491.84" gradientTransform="scale(-1 1) rotate(-61.731 218.95 1489.93)" gradientUnits="userSpaceOnUse"><stop offset="0" stop-color="#bbd0e6" class="stopColorbbc0e6 svgShape"></stop><stop offset=".118" stop-color="#bed3e8" class="stopColorbec3e8 svgShape"></stop><stop offset="1" stop-color="#cee3f8" class="stopColorced3f8 svgShape"></stop></linearGradient><linearGradient id="aG" x1="909.921" x2="931.499" y1="1234.812" y2="1234.812" xlink:href="#p"></linearGradient><linearGradient id="q" x1="642.656" x2="682.87" y1="1081.703" y2="1081.703" gradientUnits="userSpaceOnUse"><stop offset="0" stop-color="#5a52cc" class="stopColor5652cc svgShape"></stop><stop offset=".509" stop-color="#6822a2" class="stopColor443ead svgShape"></stop><stop offset="1" stop-color="#662e94" class="stopColor362e94 svgShape"></stop></linearGradient><linearGradient id="s" x1="775.837" x2="813.334" y1="1035.446" y2="1035.446" gradientTransform="matrix(-1 0 0 1 1460.176 0)" gradientUnits="userSpaceOnUse"><stop offset="0" stop-color="#bbd0e6" class="stopColorbbc0e6 svgShape"></stop><stop offset=".662" stop-color="#e6edf5" class="stopColore6e7f5 svgShape"></stop><stop offset="1" stop-color="#f6f8fb" class="stopColorf6f6fb svgShape"></stop></linearGradient><linearGradient id="aH" x1="660.092" x2="674.982" y1="1005.3" y2="1005.3" xlink:href="#q"></linearGradient><linearGradient id="aI" x1="659.67" x2="685.054" y1="983.933" y2="983.933" xlink:href="#q"></linearGradient><linearGradient id="aJ" x1="130.372" x2="183.355" y1="1111.875" y2="1111.875" gradientTransform="scale(-1 1) rotate(10.382 156.601 -3562.506)" xlink:href="#r"></linearGradient><linearGradient id="aK" x1="130.372" x2="183.354" y1="1099.331" y2="1099.331" gradientTransform="scale(-1 1) rotate(10.382 156.601 -3562.506)" xlink:href="#s"></linearGradient><clipPath id="F"><path fill="none" d="m307.205 742.988 263.557 152.58a43.823 43.823 0 0 0 2.841-14.786v-86.139c0-14.34 7.708-31.03 18.592-42.295l-284.99-164.99ZM687.38 854.385v86.139a54.607 54.607 0 0 1-4.29 20.074l78.42 45.399a43.999 43.999 0 0 0 2.932-15.056v-86.138c0-14.253 7.61-30.83 18.388-42.092l-78.084-45.205c-10.038 9.23-17.366 24.175-17.366 36.88Zm207.983 73.474c-9.926 9.245-17.145 24.074-17.145 36.686v86.138a54.78 54.78 0 0 1-4.396 20.335l183.513 106.24V1021.63Z"></path></clipPath><clipPath id="I"><path fill="none" d="M1030.145 628.748c-11.868 8.683-21.03 25.679-21.03 39.883v86.138c0 1.418-.099 2.863-.245 4.319l395.01 227.823V844.3ZM628.94 539.962 895.34 693.608v-84.72c0-15.699 9.237-34.207 21.77-45.334L628.94 397.352Z"></path></clipPath></defs><g style="isolation:isolate" fill="#f4f6f8" class="color000000 svgShape"><g fill="#f4f6f8" class="color000000 svgShape"><g fill="#f4f6f8" class="color000000 svgShape"><path style="mix-blend-mode:multiply" fill="url(#a)" d="M907.022 454.095H792.53l71.573 42.6-71.573 41.333h114.492l72.665-41.955-72.665-41.978z"></path><path fill="#b9cee4" d="m792.53 538.028 71.573-41.333V381.732l-71.573 41.321v114.975z" class="colorb9bee4 svgShape"></path><path fill="#cce1f6" d="m792.53 538.028-71.58-41.333V381.732l71.58 41.321v114.975z" class="colorccd1f6 svgShape"></path><path fill="#f4f6f9" d="m792.53 423.053-71.58-41.321 71.58-41.307 71.573 41.307-71.573 41.321z" class="colorf4f4f9 svgShape"></path><path style="mix-blend-mode:multiply" fill="url(#t)" d="M1412.464 986.711h-34.877l21.801 12.976-21.801 12.592h34.877l22.137-12.783-22.137-12.785z"></path><path fill="#bbd0e6" d="m1377.587 1012.279 21.801-12.592v-25.56l-21.801 12.584v25.568z" class="colorbbc0e6 svgShape"></path><path fill="#cee3f8" d="m1377.587 1012.279-21.803-12.592v-25.56l21.803 12.584v25.568z" class="colorced3f8 svgShape"></path><path fill="#f6f8fb" d="m1377.587 986.711-21.803-12.584 21.803-12.584 21.801 12.584-21.801 12.584z" class="colorf6f6fb svgShape"></path><path style="mix-blend-mode:multiply" fill="url(#u)" d="M1199.51 397.196h-27.211l17.009 10.124-17.009 9.824h27.211l17.271-9.973-17.271-9.975z"></path><path fill="#bbd0e6" d="m1172.299 417.144 17.009-9.824v-19.942l-17.009 9.818v19.948z" class="colorbbc0e6 svgShape"></path><path fill="#cee3f8" d="m1172.299 417.144-17.01-9.824v-19.942l17.01 9.818v19.948z" class="colorced3f8 svgShape"></path><path fill="#f6f8fb" d="m1172.299 397.196-17.01-9.818 17.01-9.818 17.009 9.818-17.009 9.818z" class="colorf6f6fb svgShape"></path><path style="mix-blend-mode:multiply" fill="url(#v)" d="M509.202 1189.373h-53.888l33.693 20.051-33.693 19.449h53.888l34.204-19.742-34.204-19.758z"></path><path fill="#b9cee4" d="m455.314 1228.873 33.693-19.449v-39.496l-33.693 19.445v39.5z" class="colorb9bee4 svgShape"></path><path fill="#cce1f6" d="m455.314 1228.873-33.696-19.449v-39.496l33.696 19.445v39.5z" class="colorccd1f6 svgShape"></path><path fill="#f4f6f9" d="m455.314 1189.373-33.696-19.445 33.696-19.445 33.693 19.445-33.693 19.445z" class="colorf4f4f9 svgShape"></path><path fill="#dfe9f4" d="m468.161 1169.928-12.847-7.414-12.852 7.414 12.852 7.414 12.847-7.414z" class="colordfe4f4 svgShape"></path><path fill="url(#f)" d="m561.806 208.636-158.588 91.557v254.891h158.588V208.636z"></path><path fill="#f1f5f9" d="m403.218 300.193-158.58-91.557 158.58-91.552 158.588 91.552-158.588 91.557z" class="colorf1f3f9 svgShape"></path><path fill="url(#g)" d="m403.218 300.193-158.58-91.557v346.448h158.58V300.193z"></path><path d="m775.626 929.487 26.791-15.467h-10.3l-26.791 15.467c-9.163 5.29-52.522-5.407-77.946 9.271-19.654 11.347-22.333 48.625-29.416 52.715l-193.22 111.555h10.3l193.22-111.555c13.402-7.738 45.993-14.01 72.796-14.01h87.9v-33.966H799.89c-26.803 0-37.667-6.272-24.265-14.01Z" style="mix-blend-mode:multiply" fill="url(#b)"></path><path d="m1097.361 743.733 26.791-15.468h-10.3l-26.79 15.468c-9.163 5.29-52.523-5.408-77.947 9.27-19.653 11.348-22.332 48.626-29.415 52.715L736.995 945.844h10.3L990 805.718c13.401-7.737 45.993-14.01 72.796-14.01h87.9v-33.965h-29.07c-26.802 0-37.666-6.273-24.265-14.01Z" style="mix-blend-mode:multiply" fill="url(#w)"></path><path fill="#e33cc5" d="M1087.061 737.786c-13.401 7.738-24.265 1.465-24.265-14.01v-86.138c0-18.758-13.17-26.362-29.415-16.982-16.246 9.379-29.416 32.19-29.416 50.948v86.139c0 15.474-10.864 34.291-24.265 42.028l-214.374 123.77c-13.402 7.737-24.266 1.465-24.266-14.01v-86.138c0-18.759-13.17-26.362-29.415-16.983-16.246 9.38-29.415 32.19-29.415 50.949v86.138c0 15.475-10.864 34.292-24.266 42.029l-193.22 111.555v5.947l193.22-111.555c16.246-9.38 29.416-32.19 29.416-50.95v-86.138c0-15.474 10.864-34.291 24.265-42.028s24.265-1.465 24.265 14.01v86.138c0 18.758 13.17 26.362 29.416 16.982L979.7 805.718c16.245-9.38 29.415-32.19 29.415-50.949v-86.138c0-15.474 10.864-34.291 24.266-42.029s24.265-1.465 24.265 14.01v86.138c0 18.759 13.17 26.362 29.415 16.983l155.6-89.835v-5.947Z" class="colore33c5c svgShape"></path><path fill="#ff6ae4" d="m1134.034 591.182-21.379-12.343v-5.947l21.379 12.343v5.947zM464.745 1103.028l-108.627-62.716v-5.946l108.627 62.715v5.947z" class="colorff826a svgShape"></path><path fill="url(#x)" d="M624.311 741.946c-5.357-3.399-12.913-3.09-21.293 1.748-16.245 9.38-29.415 32.19-29.415 50.95v86.138c0 15.474-10.864 34.291-24.265 42.028l-193.22 111.556 108.627 62.715 193.22-111.555c13.4-7.737 24.265-26.554 24.265-42.029V857.36c0-18.759 13.17-41.57 29.415-50.949 8.122-4.69 15.475-5.134 20.798-2.061Z"></path><path fill="url(#y)" d="M741.06 823.393v86.138c0 15.473 10.863 21.746 24.263 14.011L979.7 799.772q1.256-.726 2.48-1.578c12.237-8.499 21.785-25.944 21.785-40.451v-86.139q0-1.758.152-3.56a49.664 49.664 0 0 1 .774-5.463q.363-1.837.86-3.686.494-1.846 1.115-3.69.62-1.843 1.358-3.672a71.745 71.745 0 0 1 6.446-12.319 70.254 70.254 0 0 1 3.458-4.835 58.842 58.842 0 0 1 10.773-10.746q.73-.55 1.472-1.066 1.483-1.03 3.008-1.911a28.195 28.195 0 0 1 11.45-3.942c.088-.008.174-.008.263-.014.349-.027.697-.05 1.039-.058.098-.002.192.005.289.004.329-.001.657-.002.98.014.102.005.2.02.302.026a16.223 16.223 0 0 1 2.122.275c.14.029.276.069.414.1.248.058.498.112.74.181.113.032.22.075.332.11.262.082.525.161.78.257.063.024.124.055.187.08a14.027 14.027 0 0 1 1.9.905l-108.132-62.402c-5.358-3.4-12.913-3.09-21.293 1.748-16.246 9.38-29.415 32.19-29.415 50.949v86.138c0 15.475-10.865 34.291-24.266 42.029L739.394 813.08a29.732 29.732 0 0 1 1.666 10.312Z"></path><path fill="#6bb5ff" d="m1134.034 585.235-72.901 42.09a29.732 29.732 0 0 1 1.666 10.312v86.138c0 15.473 10.863 21.746 24.262 14.011l155.6-89.835Z" class="colorffc16b svgShape"></path><path fill="url(#c)" d="M687.38 854.385v44.102l56.102 32.39c-4.705-3.304-7.572-9.623-7.572-18.372v-86.139c0-15.474-10.864-21.746-24.265-14.01s-24.265 26.555-24.265 42.03Z"></path><path fill="url(#z)" d="M1009.115 668.631v44.102l56.103 32.39c-4.706-3.304-7.572-9.624-7.572-18.373v-86.138c0-15.475-10.864-21.747-24.265-14.01-13.402 7.738-24.266 26.555-24.266 42.029Z"></path><path fill="#6bb5ff" d="m1303.562 550.074-190.907 22.818 151.384 87.402 39.523-110.22z" class="colorffc16b svgShape"></path><path fill="#ff6ae4" d="m1264.039 666.241-21.378-12.343v-5.947l21.378 12.343v5.947z" class="colorff826a svgShape"></path><path fill="#e33cc5" d="m1303.562 556.02-39.523 110.221v-5.947l39.523-110.22v5.946z" class="colore33c5c svgShape"></path><path fill="#dae7f5" d="m1155.495 710.438 92.548-53.433-5.382-3.107-92.548 53.432 5.382 3.108z" class="colordae0f5 svgShape"></path><path d="m1248.043 657.005-5.382-9.054v5.947l5.382 3.107z" style="mix-blend-mode:multiply" fill="#e8eff7" class="colore8ecf7 svgShape"></path><path style="mix-blend-mode:multiply" fill="url(#A)" d="m1303.562 556.02-39.523 110.221h10.3l39.524-110.221h-10.301z"></path><path d="m966.464 1039.647 26.792-15.468h-10.3l-26.792 15.468c-9.162 5.29-52.521-5.408-77.946 9.27-19.653 11.348-22.332 48.626-29.415 52.715l-193.238 111.566h10.3l193.238-111.566c13.401-7.737 45.993-14.01 72.796-14.01h87.9v-33.965h-29.07c-26.802 0-37.666-6.273-24.265-14.01Z" style="mix-blend-mode:multiply" fill="url(#B)"></path><path fill="#7c3eaf" d="M956.164 1033.7c-13.401 7.738-24.265 1.465-24.265-14.01v-86.138c0-18.758-13.17-26.362-29.415-16.982-16.246 9.38-29.416 32.19-29.416 50.948v86.139c0 15.474-10.864 34.291-24.265 42.028l-193.238 111.566v5.947l193.238-111.566c16.245-9.38 29.415-32.19 29.415-50.949v-86.138c0-15.474 10.864-34.291 24.266-42.029 13.4-7.737 24.265-1.465 24.265 14.01v86.138c0 18.759 13.17 26.362 29.415 16.983l133.907-77.311v-5.947Z" class="color423eaf svgShape"></path><path fill="#5046e4" d="m981.445 899.62-21.379-12.343v-5.946l21.379 12.342v5.947z" class="color5652cc svgShape"></path><path fill="url(#C)" d="M815.15 852.106c-5.358-3.4-12.913-3.09-21.293 1.748-16.246 9.38-29.415 32.19-29.415 50.949v86.138c0 15.475-10.864 34.291-24.266 42.029l-175.745 101.467-17.492 10.099 108.626 62.715 193.238-111.566q1.256-.725 2.48-1.577c12.237-8.499 21.785-25.944 21.785-40.451v-86.139q0-1.758.152-3.56a49.599 49.599 0 0 1 .774-5.463q.363-1.837.86-3.686.494-1.846 1.115-3.69.62-1.843 1.358-3.672a71.745 71.745 0 0 1 6.446-12.319 70.254 70.254 0 0 1 3.458-4.835 58.851 58.851 0 0 1 10.773-10.746q.73-.55 1.472-1.066 1.483-1.03 3.008-1.911a28.195 28.195 0 0 1 11.45-3.942c.088-.008.174-.008.263-.014.349-.027.697-.05 1.04-.058.097-.002.19.005.288.004.329-.001.657-.002.98.014.102.005.2.02.303.026a16.224 16.224 0 0 1 2.121.275c.14.029.276.069.415.1.247.058.497.112.739.181.113.032.22.075.333.11.26.082.524.161.778.257.064.024.125.055.189.08a14.05 14.05 0 0 1 1.899.905Z"></path><path fill="#857dfb" d="m981.445 893.673-51.21 29.566a29.731 29.731 0 0 1 1.667 10.312v86.138c0 15.473 10.863 21.746 24.262 14.011l133.907-77.31Z" class="color807dfb svgShape"></path><path fill="url(#D)" d="M878.218 964.545v44.102l56.103 32.39c-4.706-3.304-7.572-9.624-7.572-18.373v-86.138c0-15.475-10.864-21.747-24.265-14.01-13.402 7.738-24.266 26.555-24.266 42.029Z"></path><path fill="#857dfb" d="m1150.973 858.512-190.907 22.819 151.384 87.401 39.523-110.22z" class="color807dfb svgShape"></path><path fill="#5046e4" d="m1111.45 974.679-21.379-12.343v-5.947l21.379 12.343v5.947z" class="color5652cc svgShape"></path><path fill="#7c3eaf" d="m1150.973 864.459-39.523 110.22v-5.947l39.523-110.22v5.947z" class="color423eaf svgShape"></path><path fill="#dae7f5" d="m1024.599 1006.352 70.855-40.909-5.383-3.107-70.855 40.908 5.383 3.108z" class="colordae0f5 svgShape"></path><path d="m1095.454 965.443-5.383-9.054v5.947l5.383 3.107z" style="mix-blend-mode:multiply" fill="#e8eff7" class="colore8ecf7 svgShape"></path><path style="mix-blend-mode:multiply" fill="url(#E)" d="m1150.973 864.459-39.523 110.22h10.3l39.523-110.22h-10.3z"></path><path fill="#5046e4" d="m655.565 1213.198-108.626-62.715v-5.947l108.626 62.715v5.947z" class="color5652cc svgShape"></path><path style="mix-blend-mode:multiply" fill="url(#e)" d="m1034.94 1012.344-25.02 14.445 25.02 84.087-25.02 14.445h170.663l25.02-14.445-170.663-98.532z"></path><g clip-path="url(#F)" fill="#f4f6f8" class="color000000 svgShape"><path fill="#bbd0e6" d="M1009.92 1125.321v-98.532l25.02-14.445v98.532l-25.02 14.445z" class="colorbbc0e6 svgShape"></path><path fill="#cee3f8" d="M307.205 719.609v-98.533l702.715 405.713v98.532L307.205 719.609z" class="colorced3f8 svgShape"></path><path fill="#f6f8fb" d="M1009.92 1026.789 307.205 621.076l25.02-14.445 702.715 405.713-25.02 14.445z" class="colorf6f6fb svgShape"></path><path style="mix-blend-mode:multiply" fill="url(#d)" d="m753.822 977.463-46.211-125.212-30.357-17.527v98.532l76.568 44.207z"></path><path d="M707.611 852.251 669.938 830.5l24.832-14.554 56.256 32.48-43.415 3.825z" style="mix-blend-mode:multiply" fill="#e8eff7" class="colore8ecf7 svgShape"></path><path style="mix-blend-mode:multiply" fill="url(#G)" d="m946.214 1088.541-46.211-125.213-30.357-17.526v98.532l76.568 44.207z"></path><path d="m900.003 963.328-37.673-21.75 24.832-14.554 56.256 32.479-43.415 3.825z" style="mix-blend-mode:multiply" fill="#e8eff7" class="colore8ecf7 svgShape"></path></g><path style="mix-blend-mode:multiply" fill="url(#H)" d="m1356.676 826.589-25.021 14.446 25.021 84.087-25.021 14.445h170.663l25.021-14.445-170.663-98.533z"></path><g clip-path="url(#I)" fill="#f4f6f8" class="color000000 svgShape"><path fill="#bbd0e6" d="M1331.655 939.567v-98.532l25.021-14.446v98.532l-25.021 14.446z" class="colorbbc0e6 svgShape"></path><path fill="#cee3f8" d="M628.94 533.854v-98.532l702.715 405.713v98.532L628.94 533.854z" class="colorced3f8 svgShape"></path><path fill="#f6f8fb" d="M1331.655 841.035 628.94 435.322l25.02-14.446 702.716 405.713-25.021 14.446z" class="colorf6f6fb svgShape"></path><path style="mix-blend-mode:multiply" fill="url(#J)" d="m1075.557 791.708-46.211-125.212-30.357-17.526v98.532l76.568 44.206z"></path><path d="m1029.346 666.496-37.673-21.75 24.833-14.554 56.256 32.479-43.416 3.825z" style="mix-blend-mode:multiply" fill="#e8eff7" class="colore8ecf7 svgShape"></path></g><path fill="#662e94" d="M273.924 986.911v5.947l115.928-66.929v-5.947l-115.928 66.929z" class="color362e94 svgShape"></path><path fill="#5046e4" d="m281.226 863.213-21.379-12.343v-5.947l21.379 12.343v5.947z" class="color5652cc svgShape"></path><path fill="#857dfb" d="m273.924 986.911 115.928-66.929-108.626-62.716-115.928 66.929 108.626 62.716z" class="color807dfb svgShape"></path><path fill="#857dfb" d="m450.754 822.105-190.907 22.818 151.384 87.402 39.523-110.22z" class="color807dfb svgShape"></path><path fill="#5046e4" d="m411.231 938.272-21.379-12.343v-5.947l21.379 12.343v5.947z" class="color5652cc svgShape"></path><path fill="#662e94" d="m450.754 828.052-39.523 110.22v-5.947l39.523-110.22v5.947z" class="color362e94 svgShape"></path><path fill="#dae7f5" d="m285.097 992.622 110.138-63.586-5.383-3.107-115.928 66.929 11.173-.236z" class="colordae0f5 svgShape"></path><path d="m395.235 929.036-5.383-9.054v5.947l5.383 3.107z" style="mix-blend-mode:multiply" fill="#e8eff7" class="colore8ecf7 svgShape"></path><path style="mix-blend-mode:multiply" fill="url(#K)" d="m450.754 828.052-39.523 110.22h10.3l39.523-110.22h-10.3z"></path><path fill="#5046e4" d="m273.924 992.858-108.626-62.716v-5.947l108.626 62.716v5.947z" class="color5652cc svgShape"></path><path d="M979.534 1151.45c-7.97-4.606-18.567-6.726-28.976-6.414h-16.32v2.671a43.133 43.133 0 0 0-8.632 3.742c-14.835 8.629-14.75 22.611.184 31.24a43.423 43.423 0 0 0 8.449 3.66v2.794h19.573c9.413-.158 18.738-2.293 25.9-6.452 14.84-8.63 14.763-22.613-.178-31.242Z" style="mix-blend-mode:multiply" fill="url(#k)"></path><path fill="url(#L)" d="M908.98 1182.701c-7.515-4.34-11.278-10.038-11.255-15.727l.03-12.969c-.014 5.691 3.739 11.387 11.254 15.73 14.944 8.626 39.085 8.626 53.924.008 7.378-4.293 11.07-9.896 11.087-15.515l-.033 12.97c-.017 5.613-3.71 11.217-11.083 15.505-14.84 8.63-38.987 8.63-53.924-.002Z"></path><path fill="#f6f8fb" d="M909.01 1169.734c-14.936-8.62-15.017-22.61-.178-31.231 14.842-8.629 38.993-8.629 53.928 0 14.942 8.62 15.017 22.611.173 31.24-14.84 8.618-38.98 8.618-53.924-.009Z" class="colorf6f6fb svgShape"></path><path fill="#dae7f5" d="m928.364 1158.238-12.811-2.299 10.953-4.472-.171-7.745 10.751 4.632 12.704-2.487-4.308 7.335 8.023 6.207-13.413-.099-7.746 6.324-3.982-7.396z" class="colordae0f5 svgShape"></path><path fill="#bbd0e6" d="M331.207 678.115a14.491 14.491 0 0 1-6.016-6.625 22.497 22.497 0 0 1-1.994-9.567q0-5.264 1.994-7.265 1.998-1.998 6.016.322a14.494 14.494 0 0 1 6.014 6.623 22.507 22.507 0 0 1 1.996 9.569q0 5.261-1.996 7.263-1.998 1.998-6.014-.32Zm-2.855-18.608a9.849 9.849 0 0 0-.915 4.88 17.708 17.708 0 0 0 .915 5.935 6.597 6.597 0 0 0 2.855 3.697q1.94 1.12 2.853-.4a9.835 9.835 0 0 0 .915-4.881 17.674 17.674 0 0 0-.915-5.936 6.599 6.599 0 0 0-2.853-3.695q-1.942-1.122-2.855.4ZM341.627 661.507l7.842 4.528v22.367l-4.157-2.398V667.89l-3.685-2.127ZM652.941 492.36a14.492 14.492 0 0 1-6.015-6.625 22.498 22.498 0 0 1-1.994-9.566q0-5.265 1.994-7.266 1.998-1.998 6.015.322a14.494 14.494 0 0 1 6.014 6.623 22.508 22.508 0 0 1 1.996 9.569q0 5.261-1.996 7.263-1.998 1.998-6.014-.32Zm-2.855-18.607a9.85 9.85 0 0 0-.914 4.879 17.71 17.71 0 0 0 .914 5.935 6.599 6.599 0 0 0 2.855 3.697q1.94 1.12 2.854-.4a9.835 9.835 0 0 0 .914-4.881 17.672 17.672 0 0 0-.914-5.935 6.599 6.599 0 0 0-2.854-3.696q-1.942-1.122-2.855.4ZM672.242 489.6a2.659 2.659 0 0 0 .735-1.896 4.49 4.49 0 0 0-.637-2.24 4.439 4.439 0 0 0-1.635-1.696q-1.828-1.055-3.465 1.008l-3.463-4.367a5.16 5.16 0 0 1 2.979-1.961 6.325 6.325 0 0 1 4.129 1.137 13.161 13.161 0 0 1 4.406 4.382 11.088 11.088 0 0 1 1.898 6.106 5.073 5.073 0 0 1-.761 2.871 9.298 9.298 0 0 1-2.813 2.424l-3.492 2.176 7.648 4.416v4.48l-13.664-7.889v-3.712l5.682-3.44a11.892 11.892 0 0 0 2.453-1.799Z" class="colorbbc0e6 svgShape"></path><path fill="url(#M)" d="m1509.929 1113.292-146.795 84.748v235.044h146.795v-319.792z"></path><path fill="#f1f5f9" d="m1363.134 1198.04-146.786-84.748 146.786-84.745 146.795 84.745-146.795 84.748z" class="colorf1f3f9 svgShape"></path><path fill="url(#N)" d="m1363.134 1198.04-146.786-84.748v319.792h146.786V1198.04z"></path><path fill="url(#O)" d="m807.036 1281.701-80.749 46.618v104.765h80.749v-151.383z"></path><path fill="#f1f5f9" d="m726.287 1328.319-80.745-46.618 80.745-46.617 80.749 46.617-80.749 46.618z" class="colorf1f3f9 svgShape"></path><path fill="url(#P)" d="m726.287 1328.319-80.745-46.618v151.383h80.745v-104.765z"></path><path d="M651.76 670.74a5.489 5.489 0 0 1 1.899-1.247h8.376l3.5-7.661-3.157-.483a8.83 8.83 0 0 1-2.947-.979 3.003 3.003 0 0 1-1.752-2.596 20.007 20.007 0 0 0-.01-3.049c-.07-2.188 2.606-3.255 4.641-3.579l3.161-.487-3.586-7.653h-8.364a6.058 6.058 0 0 1-.798-.382 5.104 5.104 0 0 1-1.126-.87 33.985 33.985 0 0 0-2.648-2.641c-1.945-1.882-.552-3.587.934-4.448l2.303-1.34-9.706-5.603-2.304 1.335a9.538 9.538 0 0 1-7.676.559q-2.24-.831-4.575-1.529a7.874 7.874 0 0 1-1.501-.647c-1.863-1.08-1.96-2.516-1.52-3.482l.833-1.823-13.229-2.058-.835 1.831c-.533 1.18-2.373 2.739-6.149 2.71a104.934 104.934 0 0 0-5.263-.005 8.77 8.77 0 0 1-4.496-1.004 4.066 4.066 0 0 1-1.693-1.696l-.853-1.836-13.207 2.058.856 1.823c.55 1.185.31 3.062-2.973 4.13q-2.332.698-4.56 1.528a9.604 9.604 0 0 1-7.68-.554l-2.321-1.34-9.643 5.603 2.316 1.34c1.495.865 2.91 2.566.987 4.444a34.358 34.358 0 0 0-2.622 2.646c-1.83 1.902-5.068 2.054-7.106 1.743l-3.167-.492-3.5 7.653 3.16.487a8.898 8.898 0 0 1 2.947.983 3.01 3.01 0 0 1 1.754 2.596 19.754 19.754 0 0 0 .002 3.041 2.552 2.552 0 0 1-.869 1.978h-21.57v9.75h26.597a6.24 6.24 0 0 1 .787.377 5.258 5.258 0 0 1 1.124.865 33.393 33.393 0 0 0 2.659 2.647 3.434 3.434 0 0 1 .765 1.05H545.43v10.34h18.947v-.42l1.582-.915a9.51 9.51 0 0 1 7.677-.555c.583.21 1.172.416 1.765.622v8.909h18.113v-.021l.113.02.834-1.83a3.485 3.485 0 0 1 .23-.4v2.23h18.224l13.207-2.049-.858-1.831c-.491-1.054-.341-2.667 2.05-3.76H642.8l9.643-5.603-2.314-1.335c-1.498-.87-2.912-2.575-.99-4.452a31.633 31.633 0 0 0 2.62-2.642Zm-31.072-4.317c-9.712 5.64-25.524 5.649-35.304 0-9.776-5.646-9.825-14.806-.113-20.447 9.721-5.65 25.524-5.65 35.305 0 9.779 5.645 9.831 14.797.112 20.447Z" style="mix-blend-mode:multiply" fill="url(#Q)"></path><path fill="url(#h)" d="M602.243 629.595c-9.714-5.603-25.41-5.607-35.06 0-8.586 4.986-9.485 12.743-2.732 18.338a20.618 20.618 0 0 1 2.732-1.886c9.65-5.611 25.346-5.607 35.06 0a20.656 20.656 0 0 1 2.84 1.962c6.793-5.603 5.842-13.403-2.84-18.414Z"></path><path fill="#bbcee2" d="M606.725 607.455a2.42 2.42 0 0 0-.22.988l-.045 16.498a2.37 2.37 0 0 1 .218-.983l.835-1.823.046-16.502ZM562.69 607.455l-.856-1.822-.047 16.502.856 1.823a2.446 2.446 0 0 1 .23 1.025l.047-16.507a2.408 2.408 0 0 0-.23-1.02ZM631.703 618.162a3.3 3.3 0 0 0-1.887 2.554l-.048 16.502a3.306 3.306 0 0 1 1.888-2.553l2.304-1.34.047-16.503Z" class="colorbbbfe2 svgShape"></path><path fill="#cee1f4" d="m537.83 618.162-2.319-1.34-.046 16.503 2.318 1.34a3.33 3.33 0 0 1 1.92 2.587l.045-16.507a3.337 3.337 0 0 0-1.918-2.583Z" class="colorced2f4 svgShape"></path><path fill="#bbcee2" d="M644.13 634.644c-2.007.315-4.634 1.36-4.64 3.49l-.048 16.503c.007-2.125 2.634-3.171 4.644-3.49l3.16-.488.046-16.503Z" class="colorbbbfe2 svgShape"></path><path fill="#242f3c" d="m639.553 639.873-.046 16.503q-.003.7-.053 1.398l.045-16.503c.037-.466.052-.932.054-1.398Z" class="color242d3c svgShape"></path><path fill="#cee1f4" d="m530.276 640.948.006-2.726a3.008 3.008 0 0 0-1.756-2.596 8.68 8.68 0 0 0-2.944-.978l-3.163-.492-.044 16.503 3.159.487a8.85 8.85 0 0 1 2.944.983 3.218 3.218 0 0 1 1.705 2.088l-.008 1.928c0 .541.022 1.083.063 1.621l.048-16.499c-.008-.109-.006-.21-.01-.319Z" class="colorced2f4 svgShape"></path><path fill="#242f3c" d="m530.286 641.351-.046 16.503c0-.03 0-.059-.002-.088l.048-16.499Z" class="color242d3c svgShape"></path><path fill="#bbcee2" d="m647.356 645.333-.047 16.499-3.499 7.661.044-16.499 3.502-7.661z" class="colorbbbfe2 svgShape"></path><path fill="#cee1f4" d="m526.071 652.994-.047 16.499-3.582-7.657.046-16.503 3.583 7.661z" class="colorced2f4 svgShape"></path><path fill="url(#R)" d="M640.693 652.495c-2.04-.311-5.28-.164-7.111 1.743a31.285 31.285 0 0 1-2.622 2.642 2.65 2.65 0 0 0-.933 1.856l-.044 16.507a2.629 2.629 0 0 1 .932-1.86 31.644 31.644 0 0 0 2.62-2.642c1.833-1.912 5.074-2.054 7.11-1.74l3.165.492.044-16.499Z"></path><path fill="url(#S)" d="M539.01 656.88a32.848 32.848 0 0 1-2.655-2.642 5.115 5.115 0 0 0-1.13-.87 9.774 9.774 0 0 0-6.007-.873l-3.147.5-.047 16.498 3.148-.491a9.741 9.741 0 0 1 6.007.87 5.187 5.187 0 0 1 1.126.864 33.023 33.023 0 0 0 2.66 2.647 2.645 2.645 0 0 1 .95 1.89l.046-16.499a2.647 2.647 0 0 0-.95-1.894Z"></path><path fill="#bbcee2" d="m634.263 662.663-.045 16.507-9.643 5.603.045-16.502 9.643-5.608z" class="colorbbbfe2 svgShape"></path><path fill="#cee1f4" d="m545.477 668.271-.047 16.502-9.708-5.603.047-16.507 9.708 5.608z" class="colorced2f4 svgShape"></path><path fill="url(#T)" d="M622.3 666.931a9.585 9.585 0 0 0-7.678-.55 71.527 71.527 0 0 1-4.56 1.524c-2.439.798-3.201 2.037-3.205 3.109l-.046 16.502c.002-1.07.763-2.314 3.204-3.108q2.334-.693 4.56-1.525a9.57 9.57 0 0 1 7.678.55l2.322 1.34.045-16.502Z"></path><path fill="url(#U)" d="M561.532 668.556a7.95 7.95 0 0 0-1.505-.65 73.161 73.161 0 0 1-4.568-1.525 9.552 9.552 0 0 0-7.68.55l-2.302 1.34-.047 16.502 2.3-1.335a9.521 9.521 0 0 1 7.682-.555 73.21 73.21 0 0 0 4.57 1.525 7.96 7.96 0 0 1 1.504.647 2.93 2.93 0 0 1 1.74 2.499l.046-16.499a2.926 2.926 0 0 0-1.74-2.499Z"></path><path fill="#bbcee2" d="m607.944 673.861-.047 16.503-13.206 2.05.046-16.503 13.207-2.05z" class="colorbbbfe2 svgShape"></path><path fill="url(#V)" d="M593.882 674.08a4.05 4.05 0 0 0-1.696-1.701 8.733 8.733 0 0 0-4.49-1c-1.75.038-3.511.038-5.266-.008-3.773-.021-5.605 1.533-6.148 2.709l-.835 1.831-.046 16.503.835-1.832c.543-1.18 2.375-2.734 6.147-2.704 1.758.046 3.518.041 5.264 0a8.821 8.821 0 0 1 4.492 1 4.081 4.081 0 0 1 1.696 1.704l.856 1.832.046-16.503Z"></path><path fill="#f0f2f5" d="m631.954 661.332 2.31 1.331-9.644 5.608-2.32-1.34a9.585 9.585 0 0 0-7.678-.55 71.527 71.527 0 0 1-4.56 1.524c-3.284 1.071-3.528 2.949-2.973 4.13l.855 1.826-13.207 2.05-.855-1.831a4.05 4.05 0 0 0-1.696-1.701 8.733 8.733 0 0 0-4.49-1c-1.75.038-3.511.038-5.266-.008-3.773-.021-5.605 1.533-6.148 2.709l-.835 1.831-13.23-2.05.841-1.831c.435-.966.336-2.398-1.526-3.474a7.95 7.95 0 0 0-1.505-.65 73.161 73.161 0 0 1-4.568-1.525 9.552 9.552 0 0 0-7.68.55l-2.302 1.34-9.708-5.608 2.305-1.335c1.484-.861 2.879-2.567.936-4.448a32.848 32.848 0 0 1-2.655-2.642 5.115 5.115 0 0 0-1.13-.87 9.774 9.774 0 0 0-6.007-.873l-3.147.5-3.583-7.662 3.154-.487c2.036-.323 4.707-1.386 4.644-3.579a19.442 19.442 0 0 1-.004-3.045 3.008 3.008 0 0 0-1.756-2.596 8.68 8.68 0 0 0-2.944-.978l-3.163-.492 3.502-7.652 3.168.491c2.038.315 5.275.164 7.105-1.739a32.701 32.701 0 0 1 2.622-2.646c1.922-1.882.51-3.587-.986-4.448l-2.319-1.34 9.644-5.607 2.325 1.344a9.57 9.57 0 0 0 7.674.554q2.231-.831 4.56-1.529c3.284-1.067 3.527-2.944 2.975-4.129l-.855-1.822 13.207-2.054.85 1.831a4.047 4.047 0 0 0 1.696 1.697 8.715 8.715 0 0 0 4.497 1.004c1.746-.042 3.507-.042 5.265.008 3.773.025 5.61-1.529 6.145-2.713l.838-1.827 13.227 2.054-.834 1.822c-.439.97-.345 2.407 1.52 3.483a7.622 7.622 0 0 0 1.5.646q2.336.7 4.578 1.53a9.538 9.538 0 0 0 7.674-.56l2.305-1.34 9.705 5.608-2.304 1.34c-1.484.86-2.88 2.562-.931 4.452a32.845 32.845 0 0 1 2.647 2.642 5.391 5.391 0 0 0 1.127.865 9.729 9.729 0 0 0 6.011.87l3.152-.492 3.583 7.657-3.161.488c-2.034.323-4.706 1.39-4.64 3.578a20.1 20.1 0 0 1 .008 3.05 3.01 3.01 0 0 0 1.753 2.595 8.949 8.949 0 0 0 2.95.979l3.154.487-3.502 7.661-3.161-.5c-2.04-.31-5.28-.163-7.111 1.744a31.285 31.285 0 0 1-2.622 2.642c-1.923 1.881-.507 3.587.994 4.452Zm-64.745-11.408c9.778 5.645 25.587 5.637 35.3-.004 9.719-5.65 9.666-14.802-.112-20.447-9.777-5.645-25.585-5.65-35.304 0-9.712 5.645-9.665 14.806.116 20.451Z" class="colorf0f0f5 svgShape"></path><path fill="#cee1f4" d="m575.447 675.911-.046 16.503-13.229-2.05.044-16.503 13.231 2.05z" class="colorced2f4 svgShape"></path><path fill="#e0e5eb" d="M609.535 626.68c-13.765-7.947-36.011-7.951-49.694 0-6.512 3.784-9.9 8.69-10.181 13.65.266 5.02 3.71 10.006 10.343 13.832 13.764 7.943 36.013 7.939 49.685-.008 6.518-3.789 9.908-8.69 10.191-13.651-.267-5.02-3.712-9.992-10.344-13.823Zm-7.183 23.244c-9.645 5.599-25.345 5.603-35.054 0-4.597-2.654-7.026-6.09-7.29-9.564.275-3.436 2.663-6.821 7.175-9.438 9.65-5.611 25.346-5.607 35.06-.004 4.593 2.655 7.02 6.09 7.285 9.564-.275 3.431-2.663 6.813-7.176 9.442Z" class="colore0e0eb svgShape"></path><path fill="url(#W)" d="M559.841 626.68c13.683-7.951 35.93-7.947 49.694 0 6.632 3.826 10.072 8.8 10.344 13.815.313-5.453-3.132-10.972-10.344-15.134-13.765-7.951-36.011-7.96-49.694 0-7.087 4.116-10.472 9.56-10.181 14.961.286-4.956 3.675-9.858 10.181-13.642Z"></path><path d="M1088.643 480.144c-7.887-4.552-18.369-6.648-28.662-6.343h-16.137v2.645a42.925 42.925 0 0 0-8.541 3.698c-14.675 8.533-14.587 22.367.178 30.898a43.078 43.078 0 0 0 8.363 3.623v2.764h19.354c9.309-.158 18.537-2.269 25.62-6.384 14.677-8.534 14.605-22.368-.175-30.901Z" style="mix-blend-mode:multiply" fill="url(#X)"></path><path fill="#f6f8fb" d="M1008.58 485.575c0-5.459 3.604-10.916 10.818-15.082 7.215-4.166 16.667-6.248 26.122-6.248 9.453 0 18.905 2.082 26.118 6.248 7.212 4.166 10.82 9.622 10.82 15.08.004 5.458-3.603 10.914-10.82 15.083-7.21 4.163-16.664 6.245-26.115 6.245-9.454 0-18.91-2.082-26.12-6.248-7.215-4.166-10.821-9.622-10.823-15.078Z" class="colorf6f6fb svgShape"></path><path fill="url(#i)" d="M1071.638 500.656c-7.21 4.163-16.664 6.245-26.115 6.245-9.454 0-18.91-2.082-26.12-6.248-7.215-4.166-10.821-9.622-10.823-15.078v10.528c.002 5.456 3.608 10.912 10.823 15.078 7.21 4.166 16.666 6.248 26.12 6.248 9.451 0 18.905-2.082 26.115-6.245 7.217-4.166 10.824-9.625 10.82-15.083v-10.528c.004 5.458-3.603 10.914-10.82 15.083Z"></path><path fill="#dae7f5" d="M1024.31 497.817c5.855 3.385 13.534 5.078 21.213 5.078 7.677 0 15.354-1.693 21.21-5.075 5.406-3.118 8.31-7.136 8.727-11.22-.416-4.084-3.321-8.098-8.728-11.22-5.858-3.382-13.534-5.074-21.212-5.074-7.677 0-15.355 1.692-21.214 5.074-5.406 3.121-8.31 7.134-8.726 11.22.417 4.084 3.32 8.1 8.73 11.217Z" class="colordae0f5 svgShape"></path><path fill="#bbd0e6" d="M1024.306 475.38c5.86-3.382 13.537-5.074 21.214-5.074 7.678 0 15.354 1.692 21.212 5.074 5.407 3.122 8.312 7.136 8.728 11.22a9.828 9.828 0 0 0 .059-1.027c0-4.433-2.928-8.863-8.787-12.245-5.858-3.383-13.534-5.077-21.212-5.077-7.677 0-15.355 1.693-21.214 5.077-5.859 3.382-8.785 7.813-8.785 12.247a10.202 10.202 0 0 0 .059 1.025c.417-4.086 3.32-8.099 8.726-11.22Z" class="colorbbc0e6 svgShape"></path><path fill="#bbd0e6" d="m1060.3 481.169 2.837-1.638v-2.052l-2.837 1.636v2.054z" class="colorbbc0e6 svgShape"></path><path fill="#f6f8fb" d="M1047.21 484.598a2.413 2.413 0 0 1 .002-4.574 8.767 8.767 0 0 1 7.92 0c2.185 1.261 2.185 3.313 0 4.574l3.599 2.078c3.545-2.05 4.06-5.187 1.569-7.56l2.837-1.637-3.594-2.078-2.84 1.64c-4.105-1.437-9.54-1.14-13.088.908-2.02 1.166-3.13 2.715-3.13 4.363 0 1.646 1.112 3.196 3.13 4.36 2.185 1.263 2.185 3.315 0 4.577a8.771 8.771 0 0 1-7.923 0c-2.184-1.262-2.184-3.314 0-4.573l-3.594-2.078c-3.548 2.05-4.065 5.187-1.575 7.557l-2.615 1.51 3.595 2.079 2.616-1.515c4.11 1.44 9.545 1.144 13.093-.904 4.164-2.405 4.164-6.319-.002-8.727Z" class="colorf6f6fb svgShape"></path><path fill="#cee3f8" d="m1027.908 495.72 3.595 2.076v-2.052l-3.595-2.079v2.055z" class="colorced3f8 svgShape"></path><path fill="#bbd0e6" d="m1031.503 497.796 2.616-1.511v-2.056l-2.616 1.515v2.052z" class="colorbbc0e6 svgShape"></path><path fill="#cee3f8" d="m1055.133 486.65 3.598 2.078v-2.052l-3.598-2.078v2.052z" class="colorced3f8 svgShape"></path><path fill="#bbd0e6" d="M1035.692 488.728v-2.052c-1.55.894-1.994 2.185-1.345 3.311a3.566 3.566 0 0 1 1.345-1.26Z" class="colorbbc0e6 svgShape"></path><path fill="#cee3f8" d="m1028.98 488.86.005 2.31.004-.005a3.951 3.951 0 0 0 .446 1.62l1.088-.63a4.407 4.407 0 0 1-1.537-3.29ZM1043.615 488.725a3.626 3.626 0 0 1 1.346 1.262c.649-1.126.204-2.417-1.346-3.316-2.018-1.163-3.13-2.713-3.13-4.359v2.053c0 1.647 1.112 3.197 3.13 4.36Z" class="colorced3f8 svgShape"></path><path fill="#fc06cf" d="M1050.334 488.95v-.041h-.003c0 .013.003.027.003.041Z" class="colorfcba06 svgShape"></path><path fill="#bbd0e6" d="M1061.839 482.308c.005 1.581-1.024 3.163-3.108 4.368v2.052c2.138-1.234 3.164-2.864 3.105-4.486l.008.01v-1.944Z" class="colorbbc0e6 svgShape"></path><path fill="url(#Y)" d="M1047.212 493.325c-3.548 2.048-8.984 2.344-13.093.904v2.056c4.11 1.436 9.545 1.14 13.093-.91 2.065-1.191 3.105-2.756 3.122-4.324v-2.08c-.003 1.577-1.045 3.154-3.122 4.354Z"></path><path fill="#bbd0e6" d="M1055.133 480.024a8.767 8.767 0 0 0-7.921 0 2.787 2.787 0 0 0-1.644 2.288 2.043 2.043 0 0 0 .292 1.025 3.608 3.608 0 0 1 1.352-1.26 8.764 8.764 0 0 1 7.92 0 3.547 3.547 0 0 1 1.346 1.263c.651-1.128.205-2.422-1.345-3.316Z" class="colorbbc0e6 svgShape"></path><path fill="#e8eff7" d="m783.056 202.883-11.723 6.767c-6.844 3.954-16.273-17.63-23.937-13.204l-20.544 11.861c-15.322 8.845-9.79-16.907-32.704-3.68-26.928 15.55-24.723 46.755-40.04 55.6l-20.547 11.862c-7.656 4.422-9.751 22.733-16.599 26.685l-11.722 6.77c-2.556 1.472-7.43 5.541-7.43 10.88 3.484-2.009 96.338-55.621 96.338-55.621s92.852-53.608 96.337-55.619c0-5.336-4.876-3.778-7.429-2.301Z" class="colore8ecf7 svgShape"></path><path style="mix-blend-mode:multiply" fill="url(#Z)" d="M308.668 758.174h-69.461l25.564 15.216-25.564 14.765h69.461l25.954-14.987-25.954-14.994z"></path><path fill="#b9cee4" d="m239.207 788.155 25.564-14.765v-69.571l-25.564 14.759v69.577z" class="colorb9bee4 svgShape"></path><path fill="#cce1f6" d="m239.207 788.155-25.568-14.765v-69.571l25.568 14.759v69.577z" class="colorccd1f6 svgShape"></path><path fill="#f4f6f9" d="m239.207 718.578-25.568-14.759 25.568-14.755 25.564 14.755-25.564 14.759z" class="colorf4f4f9 svgShape"></path><path style="mix-blend-mode:multiply" fill="url(#aa)" d="M1249.549 892.163h-36.04l36.373 21.652-36.373 21.006h58.189l26.035-14.839-48.184-27.819z"></path><path fill="#bbd0e6" d="m1213.509 934.821 36.373-21.006v-42.648l-36.373 20.996v42.658z" class="colorbbc0e6 svgShape"></path><path fill="#cee3f8" d="m1213.509 934.821-36.375-21.006v-42.648l36.375 20.996v42.658z" class="colorced3f8 svgShape"></path><path fill="#f6f8fb" d="m1213.509 892.163-36.375-20.996 36.375-20.996 36.373 20.996-36.373 20.996z" class="colorf6f6fb svgShape"></path><path style="mix-blend-mode:multiply" fill="url(#ab)" d="M1237.202 946.846h-34.877l21.801 12.977-21.801 12.592h34.877l22.137-12.783-22.137-12.786z"></path><path fill="#7c3eaf" d="m1202.325 972.415 21.801-12.592v-25.56l-21.801 12.583v25.569z" class="color423eaf svgShape"></path><path fill="#5046e4" d="m1202.325 972.415-21.802-12.592v-25.56l21.802 12.583v25.569z" class="color5652cc svgShape"></path><path fill="#857dfb" d="m1202.325 946.846-21.802-12.583 21.802-12.584 21.801 12.584-21.801 12.583z" class="color807dfb svgShape"></path><path d="M1446.071 652.128c-7.052-4.07-16.429-5.946-25.635-5.673h-21.349v2.367a38.218 38.218 0 0 0-7.636 3.306c-13.13 7.635-13.054 20.008.157 27.642a38.437 38.437 0 0 0 7.48 3.24v2.472h24.225c8.33-.14 16.58-2.03 22.916-5.71 13.13-7.636 13.065-20.009-.158-27.644Z" style="mix-blend-mode:multiply" fill="url(#ac)"></path><path fill="url(#j)" d="M1376.737 666.887c-6.648-3.842-9.976-8.883-9.959-13.916l.029-6.448c-.013 5.04 3.306 10.08 9.959 13.92 13.22 7.63 34.58 7.63 47.71.004 6.527-3.796 9.792-8.755 9.808-13.725l-.032 6.443c-.014 4.97-3.28 9.93-9.803 13.725-13.13 7.633-34.492 7.633-47.712-.003Z"></path><path fill="url(#ad)" d="M1376.737 673.331c-6.648-3.841-9.976-8.882-9.959-13.915l.029-6.448c-.013 5.038 3.306 10.077 9.959 13.919 13.22 7.632 34.58 7.632 47.71.004 6.527-3.797 9.792-8.756 9.808-13.726l-.032 6.445c-.014 4.97-3.28 9.927-9.803 13.723-13.13 7.634-34.492 7.634-47.712-.002Z"></path><path fill="url(#ae)" d="M1376.737 679.775c-6.648-3.842-9.976-8.883-9.959-13.916l.029-6.448c-.013 5.04 3.306 10.079 9.959 13.92 13.22 7.63 34.58 7.63 47.71.004 6.527-3.798 9.792-8.755 9.808-13.725l-.032 6.443c-.014 4.97-3.28 9.93-9.803 13.725-13.13 7.633-34.492 7.633-47.712-.003Z"></path><path fill="#eff2f6" d="M1376.766 660.443c-13.216-7.63-13.29-20.008-.16-27.635 13.135-7.634 34.5-7.634 47.716 0 13.222 7.627 13.284 20.005.154 27.639-13.13 7.627-34.49 7.627-47.71-.004Z" class="coloreff2f6 svgShape"></path><path fill="#bbd0e6" d="m1419.418 644.098-27.015 1.375.836-6.072h-7.463l-2.027 11.068 35.669-2.059v-4.312z" class="colorbbc0e6 svgShape"></path><path style="mix-blend-mode:multiply" fill="url(#af)" d="M828.359 648.989h-48.376l48.977 29.151-48.977 28.286h78.346l34.757-20.067-64.727-37.37z"></path><path fill="#b9cee4" d="m779.983 706.426 48.977-28.286v-87.842l-48.977 28.275v87.853z" class="colorb9bee4 svgShape"></path><path fill="#cce1f6" d="m779.983 706.426-48.984-28.286v-87.842l48.984 28.275v87.853z" class="colorccd1f6 svgShape"></path><path fill="#f4f6f9" d="m779.983 618.573-48.984-28.275 48.984-28.268 48.977 28.268-48.977 28.275z" class="colorf4f4f9 svgShape"></path><path style="mix-blend-mode:multiply" fill="url(#ag)" d="M219.119 1237.269h-61.925l32.409 19.29-32.409 18.717h61.925l32.901-18.997-32.901-19.01z"></path><path fill="#b9cee4" d="m157.194 1275.276 32.409-18.717v-72.551l-32.409 18.709v72.559z" class="colorb9bee4 svgShape"></path><path fill="#cce1f6" d="m157.194 1275.276-32.41-18.717v-72.551l32.41 18.709v72.559z" class="colorccd1f6 svgShape"></path><path fill="#f4f6f9" d="m157.194 1202.717-32.41-18.709 32.41-18.704 32.409 18.704-32.409 18.709z" class="colorf4f4f9 svgShape"></path><path style="mix-blend-mode:multiply" fill="url(#ah)" d="M737.594 681.949h-19.896l23.894 14.224-23.894 13.799h38.226l15.1-8.719-33.43-19.304z"></path><path fill="#bbd0e6" d="m717.698 709.972 23.894-13.799v-28.017l-23.894 13.793v28.023z" class="colorbbc0e6 svgShape"></path><path fill="#cee3f8" d="m717.698 709.972-23.896-13.799v-28.017l23.896 13.793v28.023z" class="colorced3f8 svgShape"></path><path fill="#f6f8fb" d="m717.698 681.949-23.896-13.793 23.896-13.793 23.894 13.793-23.894 13.793z" class="colorf6f6fb svgShape"></path><path d="M819.618 372.446c-4.766-2.753-11.106-4.02-17.33-3.835h-9.758v1.599a25.725 25.725 0 0 0-5.161 2.236c-8.875 5.16-8.824 13.522.106 18.683a25.92 25.92 0 0 0 5.055 2.19v1.67h11.705a32.55 32.55 0 0 0 15.49-3.857c8.875-5.164 8.83-13.526-.107-18.686Z" style="mix-blend-mode:multiply" fill="url(#ai)"></path><path fill="url(#aj)" d="M777.424 391.138c-4.496-2.598-6.743-6.004-6.733-9.406l.02-7.758c-.01 3.407 2.235 6.811 6.73 9.41 8.939 5.156 23.374 5.156 32.25.003 4.411-2.567 6.62-5.919 6.63-9.279l-.023 7.755c-.007 3.359-2.215 6.71-6.625 9.277-8.875 5.158-23.314 5.158-32.25-.002Z"></path><path fill="#ffffff" d="M777.442 383.384c-8.934-5.157-8.983-13.524-.108-18.68 8.878-5.16 23.321-5.16 32.253 0 8.937 5.156 8.98 13.523.104 18.683-8.876 5.153-23.311 5.153-32.25-.003Z" class="colorffffff svgShape"></path><path fill="#bdcdde" d="m805.215 372.98-16.875.859.524-3.793h-4.663l-1.266 6.915 22.28-1.289v-2.692z" class="colorbdc2de svgShape"></path><path d="M804.414 581.526c-4.3-2.483-10.018-3.626-15.632-3.46h-8.803v1.443a23.21 23.21 0 0 0-4.656 2.017c-8.005 4.655-7.96 12.198.096 16.853a23.385 23.385 0 0 0 4.56 1.976v1.507h10.558a29.361 29.361 0 0 0 13.973-3.48c8.007-4.658 7.965-12.2-.096-16.856Z" style="mix-blend-mode:multiply" fill="url(#ak)"></path><path fill="url(#al)" d="M766.352 598.387c-4.055-2.342-6.083-5.415-6.073-8.484l.017-6.998c-.008 3.073 2.017 6.144 6.072 8.489 8.063 4.65 21.085 4.65 29.091.002 3.98-2.316 5.971-5.339 5.98-8.37l-.02 6.996c-.006 3.03-1.998 6.052-5.976 8.368-8.006 4.653-21.03 4.653-29.09-.003Z"></path><path fill="#ffffff" d="M766.368 591.394c-8.058-4.653-8.103-12.2-.097-16.852 8.009-4.654 21.037-4.654 29.095 0 8.06 4.652 8.1 12.2.093 16.854-8.006 4.649-21.028 4.649-29.09-.002Z" class="colorffffff svgShape"></path><path fill="#bdcdde" d="m791.421 582.009-15.222.774.473-3.422h-4.206l-1.142 6.238 20.097-1.162v-2.428z" class="colorbdc2de svgShape"></path><path fill="#ff6ae4" d="M1326.53 366.267v-7.281c-7.79-4.497-13.663-14.425-13.663-23.09v-29.625l18.524 10.693v-7.28l-24.83-14.335v36.906c0 12.606 8.77 27.548 19.969 34.012Z" class="colorff826a svgShape"></path><path fill="#6db6ff" d="m1306.561 295.349 6.306-3.641 24.83 14.336-6.306 3.64-24.83-14.335z" class="colorffaf6d svgShape"></path><path fill="#e33cc5" d="M1319.172 309.912v22.343c0 8.666 5.875 18.595 13.665 23.091l-6.307 3.64c-7.79-4.497-13.663-14.425-13.663-23.09v-29.625Z" class="colore33c5c svgShape"></path><path d="M1364.226 477.919c26.09-15.069 68.4-15.069 94.49 0 26.096 15.062 26.096 39.488 0 54.552-26.09 15.064-68.4 15.064-94.49 0-26.094-15.064-26.094-39.49 0-54.552Z" style="mix-blend-mode:multiply" fill="url(#am)"></path><path fill="#f4f6f8" d="M1344.363 464.897c26.095-15.068 68.4-15.068 94.496 0 26.095 15.067 26.095 39.493 0 54.556-26.095 15.063-68.399 15.063-94.496 0-26.088-15.063-26.088-39.489 0-54.556Z" class="colorf5f5f9 svgShape"></path><path d="M1391.932 502.656h33.58c6.402-6.45 6.78-14.342 1.14-20.961h-34.72Z" style="mix-blend-mode:multiply" fill="url(#an)"></path><path fill="url(#ao)" d="M1438.859 519.453c-26.095 15.063-68.399 15.063-94.496 0-13.044-7.534-19.57-17.406-19.57-27.278v13.017c0 9.873 6.526 19.752 19.57 27.279 26.097 15.064 68.4 15.064 94.496 0 13.049-7.527 19.572-17.406 19.572-27.279v-13.017c0 9.872-6.523 19.744-19.572 27.278Z"></path><path fill="#6db6ff" d="M1378.335 476.164c7.508-4.334 19.684-4.334 27.19 0 7.508 4.334 7.508 11.366 0 15.697-7.506 4.335-19.682 4.335-27.19 0-7.508-4.334-7.508-11.363 0-15.697Z" class="colorffaf6d svgShape"></path><path d="M1391.932 489.562h16.63c3.444-3.44 3.43-7.708-.043-11.138h-16.587Z" style="mix-blend-mode:multiply" fill="url(#ap)"></path><path fill="url(#l)" d="M1405.525 491.861c-7.506 4.335-19.682 4.335-27.19 0-3.754-2.168-5.63-5.006-5.63-7.848v7.54c0 2.842 1.876 5.682 5.63 7.848 7.508 4.337 19.684 4.337 27.19 0 3.754-2.166 5.63-5.006 5.63-7.848v-7.54c0 2.842-1.876 5.68-5.63 7.848Z"></path><path fill="url(#aq)" d="M1382.317 448.906v35.107c0 1.419.939 2.839 2.818 3.923a15.022 15.022 0 0 0 13.592 0c1.877-1.084 2.814-2.504 2.814-3.923v-35.107Z"></path><path d="M1382.317 456.434c0 1.42.939 2.84 2.818 3.925a15.022 15.022 0 0 0 13.592 0c1.877-1.085 2.814-2.504 2.814-3.925v-7.528h-19.224Z" style="mix-blend-mode:multiply" fill="url(#ar)"></path><path fill="url(#as)" d="M1474.427 334.308h-164.996c0 58.2 40.562 120.145 82.501 120.145 41.937 0 82.495-61.944 82.495-120.145Z"></path><path fill="#6db6ff" d="M1333.598 300.628c32.215-18.6 84.45-18.6 116.665.002 32.218 18.6 32.218 48.758.001 67.358-32.214 18.6-84.451 18.6-116.666 0-32.22-18.6-32.22-48.759 0-67.36Z" class="colorffaf6d svgShape"></path><path fill="url(#at)" d="M1338.254 303.319c29.645-17.116 77.708-17.116 107.35 0 29.648 17.114 29.65 44.866.002 61.98-29.643 17.116-77.705 17.116-107.351 0s-29.646-44.866-.001-61.98Z"></path><path fill="#e33cc5" d="m1465.431 439.92.792-4.192s5.277-5.096 5.277-8.579v-36.907l6.309-3.642v36.908c0 5.911-1.94 10.096-5.142 12.22h.012Z" class="colore33c5c svgShape"></path><path fill="#ff6ae4" d="M1451.531 438.104c11.198 6.464 19.969 1.653 19.969-10.955v-36.907l-24.83-14.336v7.28l18.526 10.697v29.625c0 8.667-5.876 11.812-13.665 7.314Z" class="colorff826a svgShape"></path><path fill="#6db6ff" d="m1446.67 375.906 6.306-3.641 24.833 14.335-6.309 3.642-24.83-14.336zM1464.01 429.197c-2.085 4.094-6.761 4.925-12.479 1.625l6.307-3.643a13.647 13.647 0 0 0 6.173 2.018Z" class="colorffaf6d svgShape"></path><path style="mix-blend-mode:multiply" fill="url(#m)" d="M191.087 996.746h52.482v9.647h-52.482z"></path><path style="mix-blend-mode:multiply" fill="url(#au)" d="M167.597 982.829h52.476v9.643h-52.476z"></path><path fill="url(#n)" d="M161.573 989.497c0-7.574 4.804-7.796 4.804-7.796a19.83 19.83 0 0 0 6.824-1.754c4.169-1.73 10.042-1.061 6.759 4.995a1.51 1.51 0 0 1-.112.223 2.964 2.964 0 0 1-1.065.936l-10.493 6.155c-1.601.91-6.68-1.198-6.717-2.759Z"></path><path fill="#102847" d="M161.602 988.82c.092 1.553 5.103 3.626 6.687 2.718l10.494-6.15a9.968 9.968 0 0 0 1.479-1.078c-.095.205-.18.407-.302.632a1.51 1.51 0 0 1-.112.223 2.964 2.964 0 0 1-1.065.936l-10.493 6.155c-1.497.855-6.048-.944-6.649-2.459a1.598 1.598 0 0 1-.05-.304 4.516 4.516 0 0 1 .011-.672Z" class="color121047 svgShape"></path><path fill="#ffffff" d="M163.528 980.705a43.896 43.896 0 0 1 5.59 1.108 2.394 2.394 0 0 0 .39 1.127 1.673 1.673 0 0 1 .12.148c.859.596 1.733 1.54-.307 2.82a2.824 2.824 0 0 1-3.668-.262 3.334 3.334 0 0 0-1.184-1.344 2.934 2.934 0 0 0-1.133-.476c0-.035-.009-.106-.009-.106s-.317-3.015.2-3.015Z" class="colorffffff svgShape"></path><path fill="#0c2340" d="M163.446 906.614c4.748.088 16.605.302 21.348.383-1.766 14.261-5.319 27.214-7.69 41.028-2.549 13.42-5.418 22.855-7.923 34.024-.918 2.078-5.112 1.293-5.963-.709-.663-10.287-1.43-22.82 1.622-34.689-.51-12.793-1.69-27.114-1.394-40.037Z" class="color131147 svgShape"></path><path fill="url(#av)" d="M185.494 1003.42c0-7.576 4.801-7.797 4.801-7.797a19.858 19.858 0 0 0 6.825-1.752c4.166-1.732 10.04-1.063 6.76 4.99a1.78 1.78 0 0 1-.116.228 2.913 2.913 0 0 1-1.064.933l-10.489 6.154c-1.6.912-6.68-1.195-6.717-2.755Z"></path><path fill="#102847" d="M185.518 1002.74c.092 1.554 5.106 3.627 6.693 2.72l10.49-6.149a10.153 10.153 0 0 0 1.48-1.081c-.1.207-.18.409-.302.632a1.78 1.78 0 0 1-.115.227 2.913 2.913 0 0 1-1.064.933l-10.489 6.154c-1.498.858-6.053-.942-6.651-2.452a1.327 1.327 0 0 1-.046-.311 5.12 5.12 0 0 1 .004-.674Z" class="color121047 svgShape"></path><path fill="#ffffff" d="M187.447 994.625a44 44 0 0 1 5.586 1.107 2.49 2.49 0 0 0 .385 1.13c.048.05.084.097.125.147.861.596 1.736 1.54-.305 2.82a2.831 2.831 0 0 1-3.668-.259 3.363 3.363 0 0 0-1.182-1.345 3.05 3.05 0 0 0-1.134-.478.94.94 0 0 0-.012-.102s-.316-3.02.205-3.02Z" class="colorffffff svgShape"></path><path fill="url(#aw)" d="M178.502 940.525c-1.298-6.129-16.257-6.89-15.275-30.995 4.693-.691 28.372 10.418 33.063 9.727.587 14.353-.798 27.717-.887 41.725-.317 13.658-1.61 23.433-2.258 34.864-.565 2.205-4.83 2.112-5.997.277-2.336-10.041-5.136-22.284-4.065-34.492-1.395-6.76-3.062-13.925-4.58-21.106Z"></path><path fill="#e33cc5" d="M174.054 862.724c-16.706 11.16-18.698 33.33-9.667 47.393 0 0-1.94-31.169 9.667-47.393Z" class="colore33c5c svgShape"></path><path fill="#9dc7f2" d="M194.728 861.951c-.108-1.295.378-3.202-.482-4.137a13.12 13.12 0 0 0-2.768-1.944c-.97.523-4.073 2.842-4.073 2.842a9.756 9.756 0 0 0 3.112 4.88c1.117-.478 4.211-1.64 4.211-1.64Z" class="colorf2c39d svgShape"></path><path fill="url(#ax)" d="M210.254 894.799c-1.602-12.62-11.119-25.049-15.09-32.994a48.91 48.91 0 0 0-5.234 2.052c1.456 5.166 12.02 30.574 12.02 30.574Z"></path><path fill="url(#ay)" d="M173.29 923.194c10.165 5.71 20.806 5.718 24.432-1.296-1.358-13.059-2.63-23.686-.01-36.206-.77-6.912-1.318-7.95-.431-11.985-.314-1.353-4.474-4.24-7.503-7.006-3.273-2.984-5.482-5.828-7.171-6.171-13.904-2.84-20.658 21.934-19.494 48.348a19.224 19.224 0 0 0 10.176 14.316Z"></path><path fill="#a9d2fc" d="M174.897 862.107c3.014-2.182 2.775-6.688 2.52-9.68a14.655 14.655 0 0 1-.563-5.168c.445-6.589 5.028-12.001 10.146-11.299 10.32 1.41 8.107 6.745 7.661 13.334-.411 6.106-3.466 10.121-8.143 10.514-.07 1.006.342 4.053 1.606 5.322-3.394 2.029-8.347 1.074-10.306.192-2.084-.946-4.337-1.752-2.92-3.215Z" class="colorfcd1a9 svgShape"></path><path fill="#193f6f" d="M191.123 832.74c-.245-.825-1.821-1.363-7.18.701-.034.015-1.302.51-1.384.541-9.922 4.297-7.524 15.738-6.043 18.776a6.183 6.183 0 0 1 .783 3.6c3.896-.16 5.133 2.034 7.629-.153 1.792-1.564 4.471-3.401 4.923-4.171a3.061 3.061 0 0 0 .366-1.892c.008-5.48 2.54-2.134 2.459-.872 1.038-.506.969-2.71.9-5.162 8.423-6.282 3.9-10.619-2.453-11.367Z" class="color20196f svgShape"></path><path fill="url(#az)" d="M209.538 892.487c-3.553-6.993-6.083-9.892-12.382-19.087-1.46-2.161-6.18-1.342-8.504 1.726-3.147 4.146-1.801 10.184-.022 12.637 4.567 4.724 7.807 6.668 11.835 9.946 6.608 5.378 11.848.235 9.073-5.222Z"></path><path d="M907.432 829.633q-1.539-.163-3.07-.309c-20.182-1.898-23.913-2.189-38.597-3.405a549.82 549.82 0 0 1 3.12-1.735c4.957-2.735 5.878-5.3-2.978-5.114-.416.013-.898.035-1.368.082a9.186 9.186 0 0 0-.684.092 4.694 4.694 0 0 0-.605.144l-6.887 2.464-7.389 2.643a2.616 2.616 0 0 0-2.223 2.797 1.534 1.534 0 0 0 .457.845 1.776 1.776 0 0 0 .624.374 2.396 2.396 0 0 0 .41.106c6.05.971 9.563.756 11.555.327.37.023.765.045 1.182.065 14.24 2.689 17.576 4.244 34.994 8.033a66.295 66.295 0 0 1 11.46 3.811Z" style="mix-blend-mode:multiply" fill="url(#o)"></path><path fill="#a9d2fc" d="M791.305 753.2c-.473 2.64 1.1 2.85.93 4.315-.159 1.38-1.14 1.218-1.194 1.93a3.008 3.008 0 0 1-1.74 2.884c-2.605 1.576-4.298-.053-5.106-1.207-.734-1.05-1.588-1.232-.302-4.839.521-1.465 1.925-1.222 2.509-4.189.488.465 4.903 1.105 4.903 1.105Z" class="colorfcd1a9 svgShape"></path><path fill="url(#aA)" d="M817.71 714.469c2.306 2.595 2.083 4.63.85 5.947-2.68 2.017-19.21 14.651-20.417 15.443-1.714 3.284-3.627 10.913-5.96 17.72-1.056 3.084-6.639 2.513-6.669-.835-.014-1.47 1.888-15.688 3.882-19.762 2.289-6.594 15.364-17.615 20.193-19.766 4.38-1.957 5.812-1.342 8.12 1.253Z"></path><path fill="#ffffff" d="M782.154 795.084a25.923 25.923 0 0 1-2.938-.346s-.495 10.245 4.072 8.252c1.52-.663.915-7.906-1.134-7.906Z" class="colorffffff svgShape"></path><path fill="#193f6f" d="M801.17 758.013c4.818.088 12.677 3.934 17.49 4.021-1.793 16.996-2.674 24.064-7.795 37.548-2.355 6.201-19.66 3.566-27.65 3.51 1.384-1.582.646-6.55-1.061-8.008 4.346.476 11.811-2.847 18.253-2.052-.517-12.986-.673-21.816.763-35.019Z" class="color20196f svgShape"></path><path fill="#6f67e9" d="M771.874 816.182c2.543-.271 4.911-1.214 6.006-4.295a20.17 20.17 0 0 1 3.825-6.904c.801-.925.406-3.958-.282-6.39-.324-1.142.958-2.513.282-3.295-.781-.905-3.825-1.2-4.742-1.34a35.928 35.928 0 0 1-2.445 9.677Z" class="color6b67e9 svgShape"></path><path fill="#193f6f" d="M776.963 793.957c2.546.82 2.954 7.443 1.121 11.26-1.834 3.817-2.954 12.477-8.15 10.847s1.324-10.799 1.63-12.633c.306-1.833-.611-11.41 5.4-9.474Z" class="color20196f svgShape"></path><path fill="url(#p)" d="M845.631 826.643c-3.237-6.72 1.123-8.049 1.123-8.049s1.406-.76 6.555-3.87c4.738-2.86 9.182-3.393 8.858 1.72a2.535 2.535 0 0 1-.551 1.534l-8.844 8.243c-1.03 1.493-6.44 1.79-7.14.422Z"></path><path fill="#193f6f" d="M845.356 826.01c.09.21.168.41.275.633.702 1.368 6.111 1.071 7.14-.422l8.845-8.243a2.532 2.532 0 0 0 .55-1.534l-9.716 9.084c-1.013 1.47-6.26 1.778-7.094.482Z" class="color20196f svgShape"></path><path fill="#ffffff" d="M845.061 817.768a43.532 43.532 0 0 1 5.597.422 2.425 2.425 0 0 0 .511 1.057c.05.042.09.086.136.129.911.481 1.878 1.306.036 2.795a2.785 2.785 0 0 1-3.619.177 3.323 3.323 0 0 0-1.315-1.173 2.975 2.975 0 0 0-1.167-.335.41.41 0 0 0-.02-.097s-.663-2.914-.159-2.975Z" class="colorffffff svgShape"></path><path fill="url(#aB)" d="M831.913 767.025c-4.624.678-25.993-11.399-30.617-10.719-2.53 25.094 24.43 32.618 31.001 42.687 6.572 10.068 8.005 12.078 12.673 20.325 1.247 1.743 5.447 1.608 5.884-.585-2.596-10.412-3.968-12.169-7.527-24.776-2.264-8.022-5.487-15.927-11.414-26.932Z"></path><path fill="url(#aC)" d="M829.743 713.27c-3.863-3.283-5.955-5.14-7.855-5.604-15.685-3.806-16.639 24.452-21.161 48.002.927 5.998 2.458 7.84 5.307 9.66 6.918 4.028 22.254 8.61 26.67.789-2.628-7.24-4.097-10.22-2.162-17.929 1.202-4.787 4.75-6.163 6.109-11.641-.097-1.324-1.607-16.696-1.921-17.783-2.925-2.776-3.689-4.392-4.987-5.494Z"></path><path fill="#bbd0e6" d="M836.65 736.547c-.062-.86-.72-7.63-1.26-12.58-.01-.006-.02-.016-.03-.021-.142 2.339-1.489 15.238-5.742 20.767-4.248 5.522-3.969 20.519-1.59 25.007a7.877 7.877 0 0 0 4.676-3.603c-2.628-7.24-4.097-10.22-2.162-17.929 1.202-4.787 4.75-6.163 6.109-11.641Z" class="colorbbc0e6 svgShape"></path><path fill="#193f6f" d="M836.922 696.057c-1.094-4.815-5.602-12.706-14.287-11.167-8.389 1.486-10.556 6.8-10.676 15.204-.078 5.354-2.33 4.693-3.44 8.384-.675 2.242.923 5.4-.951 8.543a8.41 8.41 0 0 1-4.675 3.83c-6.387 2.4-2.384 5.634 1.298 6.587 8.941 2.314 5.381-2.082 9.274-2.719 2.288-.376 6.37 1.943 8.535.929 4.263-1.998 2.823-4.369 4.866-6.449 2.154-2.193 4.431-1.625 7.37-4.936a8.296 8.296 0 0 0 1.665-9.396c-1.01-2.59 1.87-5.065 1.02-8.81Z" class="color20196f svgShape"></path><path fill="#a9d2fc" d="M861.92 721.723c1.717-1.761 1.315-3.204 2.198-4.228.83-.966 1.49-.338 1.898-.85.408-.512.837-1.014 2.737-.916 2.787.144 3.184 2.306 3.204 3.598.016 1.174.57 1.751-2.26 3.827-1.15.844-2.09-.062-4.06 1.889-.132-.604-3.718-3.32-3.718-3.32Z" class="colorfcd1a9 svgShape"></path><path fill="url(#aD)" d="M829.742 722.05c.904-3.524 3.543-4.267 4.988-3.286a78.984 78.984 0 0 0 15.974 9.689c2.18-1.406 4.935-3.578 10.62-7.077 3.226-1.987 6.918 2.021 4.863 4.35-.901 1.022-12.307 13.062-17.864 11.411-7.277-2.999-11.245-3.758-15.302-7.45-2.716-2.641-4.079-4.517-3.279-7.638Z"></path><path d="M758.013 1128.463q-1.656-.175-3.303-.332c-21.703-2.042-25.716-2.355-41.507-3.663a597.54 597.54 0 0 1 3.356-1.865c5.33-2.942 6.321-5.701-3.203-5.5-.448.014-.966.037-1.47.088a9.87 9.87 0 0 0-.737.1 5.015 5.015 0 0 0-.65.154l-7.406 2.65-7.947 2.842a2.814 2.814 0 0 0-2.391 3.007 1.65 1.65 0 0 0 .492.91 1.91 1.91 0 0 0 .67.401 2.582 2.582 0 0 0 .442.115c6.506 1.045 10.283.813 12.426.352.397.024.823.048 1.272.07 15.313 2.89 18.9 4.563 37.632 8.639a71.264 71.264 0 0 1 12.324 4.098Z" style="mix-blend-mode:multiply" fill="url(#aE)"></path><path fill="#a9d2fc" d="M638.736 1044.387c-.586 2.723 1.25 3.588 1.021 5.101-.213 1.426-1.226 1.223-1.308 1.96a3.122 3.122 0 0 1-1.909 2.93c-2.76 1.543-5.187-.419-5.984-1.645-.724-1.117-1.603-1.335-.139-5.032.593-1.501 2.04-1.2 2.753-4.257.49.5 5.566.943 5.566.943Z" class="colorfcd1a9 svgShape"></path><path fill="url(#r)" d="M647.463 1011.562c-4.674 3.957-9.136 8.627-10.5 12.157-2.214 4.155-4.7 18.842-4.737 20.368-.09 3.475 5.96 4.258 7.3.234 2.36-7.089 4.664-13.11 6.561-16.456.364-.221 2.095-1.385 4.45-2.981a13.079 13.079 0 0 0-3.074-13.322Z"></path><path fill="url(#aF)" d="M667.72 1006.371c-2.301-2.775-4.67-5.654-9.092-2.439-2.432.984-6.888 4.009-11.165 7.63a13.079 13.079 0 0 1 3.073 13.322c5.922-4.017 15.797-10.778 17.84-12.207 1.327-1.323 1.645-3.53-.656-6.306Z"></path><path fill="url(#aG)" d="M691.55 1125.247c-3.48-7.227 1.208-8.656 1.208-8.656s1.512-.817 7.05-4.162c5.095-3.077 9.874-3.649 9.525 1.85a2.727 2.727 0 0 1-.592 1.65l-9.511 8.864c-1.108 1.606-6.925 1.925-7.68.454Z"></path><path fill="#193f6f" d="M691.255 1124.566c.097.226.18.442.296.68.754 1.472 6.571 1.153 7.679-.453l9.51-8.865a2.724 2.724 0 0 0 .593-1.649l-10.449 9.77c-1.09 1.58-6.733 1.91-7.629.517Z" class="color20196f svgShape"></path><path fill="#ffffff" d="M690.937 1115.703a46.813 46.813 0 0 1 6.02.453 2.609 2.609 0 0 0 .55 1.137c.052.045.096.092.145.139.98.518 2.02 1.404.04 3.006a2.995 2.995 0 0 1-3.892.19 3.57 3.57 0 0 0-1.415-1.261 3.192 3.192 0 0 0-1.255-.36.422.422 0 0 0-.023-.105s-.71-3.134-.17-3.199Z" class="colorffffff svgShape"></path><path fill="#193f6f" d="M676.798 1061.133c-4.972.729-24.147-8.148-29.119-7.416-.837 29.024 21.111 31.066 28.178 41.894 7.068 10.829 9.963 12.89 14.982 21.759 1.341 1.874 5.858 1.73 6.328-.63-2.791-11.197-3.107-12.78-6.934-26.337-2.435-8.627-7.06-17.435-13.435-29.27Z" class="color20196f svgShape"></path><path fill="#ffffff" d="M642.656 1096.876a27.889 27.889 0 0 1-3.16-.372s-.532 11.018 4.38 8.875c1.635-.713.984-8.503-1.22-8.503Z" class="colorffffff svgShape"></path><path fill="url(#q)" d="M650.818 1056.693c5.18.095 26.875 7.346 32.052 7.44-.693 19.514-2.02 24.562-7.548 37.581-3.493 8.224-22.932 3.835-31.524 3.774 1.488-1.7.695-7.043-1.142-8.612 4.674.512 11.433-3.061 18.36-2.206.275-6.298-.445-12.374-2.593-17.026-3.299-7.144-8.54-12.351-7.605-20.95Z"></path><path fill="#6f67e9" d="M631.6 1119.566c2.735-.292 5.282-1.305 6.46-4.62a21.696 21.696 0 0 1 4.114-7.424c.861-.994.436-4.256-.304-6.871-.348-1.229 1.03-2.704.304-3.544-.84-.973-4.114-1.291-5.1-1.442a38.64 38.64 0 0 1-2.63 10.408Z" class="color6b67e9 svgShape"></path><path fill="#193f6f" d="M637.074 1095.665c2.737.881 3.177 8.004 1.205 12.11-1.972 4.104-3.177 13.416-8.764 11.663s1.424-11.612 1.753-13.584c.328-1.972-.658-12.27 5.806-10.189Z" class="color20196f svgShape"></path><path fill="url(#s)" d="M657.554 1065.507c10.765 6.042 22.034 6.056 25.876-1.373-1.438-13.834-1.865-23.022.909-36.276-.818-7.324-1.398-8.427-.458-12.693-.33-1.434-4.735-4.49-7.945-7.42-3.469-3.165-5.81-6.176-7.595-6.542-14.728-3.005-15.862 29.115-21.446 49.832-.683 8.93 5.355 11.497 10.659 14.472Z"></path><path fill="#a9d2fc" d="M660.697 1003.39c3.193-2.307 3.377-7.295 3.402-10.474a15.543 15.543 0 0 1-.092-5.505c1.108-6.911 6.467-12.173 11.8-10.934 10.743 2.49 7.893 7.894 6.785 14.8-1.028 6.401-4.636 10.34-9.61 10.305a7.203 7.203 0 0 0 1.722 5.01c-3.593 2.157-8.84 1.14-10.912.205-2.208-.997-4.594-1.855-3.095-3.406Z" class="colorfcd1a9 svgShape"></path><path fill="url(#aH)" d="M674.982 1006.854a12.448 12.448 0 0 0-.776-2.044c-.957.213-11.456.658-12.53-2.309-1.072.33-1.35.638-1.566 1.622-.414 1.887 6.45 6.05 14.872 2.73Z"></path><path fill="url(#aI)" d="M667.985 971.98c1.532-.788 2.912-.381 3.768-.928 2.029-1.242 3.951-2.035 5.027-1.445a11.543 11.543 0 0 1 1.51 1.202c1.058 1.056 3.225-1.194 3.745 1.536a10.323 10.323 0 0 1 .18 2.121c5.076.652 2.577 5.275-1.502 14.18-.003-1.836-3.075-4.786-3.075 1.637 0 .69.515.824.063 1.74-.456.914-3.373 3.217-5.298 5.14-2.684 2.687-4.262.278-8.7.761a7.088 7.088 0 0 0-1.169-4.047 11.835 11.835 0 0 1-2.864-7.314c3.446.424-2.68-8.918 8.315-14.583Z"></path><path fill="#a9d2fc" d="M705.644 1025.474c1.946-1.948.883-3.65 1.885-4.784.941-1.07 1.673-.36 2.136-.928a3.086 3.086 0 0 1 3.156-1.41c3.118.197 4.083 3.128 4.089 4.573.002 1.315.616 1.968-2.581 4.254-1.297.93-2.338-.098-4.568 2.06-.14-.677-4.117-3.765-4.117-3.765Z" class="colorfcd1a9 svgShape"></path><path fill="url(#aJ)" d="M704.982 1025.078c-6.409 3.841-8.846 5.48-11.304 7.024-.818-1.263-2.235-3.597-3.765-6.193-1.66 5.384-5.816 7.384-9.994 8.111a94.407 94.407 0 0 0 9.01 8.53c3.275 3.384 20.416-11.407 21.439-12.54 2.33-2.578-1.749-7.113-5.386-4.932Z"></path><path fill="url(#aK)" d="M689.913 1025.909c-2.288-3.88-4.833-8.35-6.032-10.744-.85-1.669-2.853-2.65-6.202-1.314-3.348 1.338-5.772 6.293-4.071 11.489.514 1.9 3.131 5.257 6.311 8.68 4.178-.727 8.334-2.727 9.994-8.111Z"></path></g></g></g></svg>