<svg xmlns="http://www.w3.org/2000/svg" xmlns:xlink="http://www.w3.org/1999/xlink" viewBox="0 0 1573.939 1263.635" id="Businesswebsite"><defs><linearGradient id="b" x1="397.192" x2="473.987" y1="374.891" y2="507.904" gradientUnits="userSpaceOnUse"><stop offset="0" stop-color="#d1e2f3" class="stopColord1d7f3 svgShape"></stop><stop offset="1" stop-color="#ffffff" class="stopColorffffff svgShape"></stop></linearGradient><linearGradient id="a" x1="1012.987" x2="1089.781" y1="677.457" y2="810.469" gradientUnits="userSpaceOnUse"><stop offset="0" stop-color="#ffffff" class="stopColorffffff svgShape"></stop><stop offset="1" stop-color="#d1e2f3" class="stopColord1d7f3 svgShape"></stop></linearGradient><linearGradient id="l" x1="831.245" x2="926.087" y1="899.201" y2="1063.473" xlink:href="#a"></linearGradient><linearGradient id="m" x1="1097.996" x2="1169.914" y1="946.029" y2="1070.594" xlink:href="#a"></linearGradient><linearGradient id="n" x1="223.528" x2="297.791" y1="743.704" y2="872.332" xlink:href="#b"></linearGradient><linearGradient id="o" x1="700.471" x2="745.72" y1="545.06" y2="623.434" xlink:href="#b"></linearGradient><linearGradient id="p" x1="525.194" x2="705.472" y1="797.922" y2="797.922" xlink:href="#b"></linearGradient><linearGradient id="q" x1="1038.239" x2="1218.517" y1="538.551" y2="538.551" xlink:href="#a"></linearGradient><linearGradient id="r" x1="416.126" x2="702.878" y1="749.165" y2="749.165" xlink:href="#b"></linearGradient><linearGradient id="s" x1="493.029" x2="720.327" y1="1104.251" y2="1104.251" xlink:href="#b"></linearGradient><linearGradient id="t" x1="1086.038" x2="1287.241" y1="712.471" y2="712.471" xlink:href="#a"></linearGradient><linearGradient id="u" x1="608.668" x2="702.256" y1="356.842" y2="518.94" xlink:href="#b"></linearGradient><linearGradient id="k" x1="133.176" x2="322.35" y1="901.586" y2="901.586" gradientUnits="userSpaceOnUse"><stop offset="0" stop-color="#cfe0f1" class="stopColorcfd5f1 svgShape"></stop><stop offset=".283" stop-color="#e1ebf6" class="stopColore1e5f6 svgShape"></stop><stop offset=".719" stop-color="#f7fafd" class="stopColorf7f8fd svgShape"></stop><stop offset="1" stop-color="#ffffff" class="stopColorffffff svgShape"></stop></linearGradient><linearGradient id="c" x1="187.415" x2="295.306" y1="913.653" y2="913.653" gradientUnits="userSpaceOnUse"><stop offset="0" stop-color="#cee3f8" class="stopColorced3f8 svgShape"></stop><stop offset=".372" stop-color="#bbd0e6" class="stopColorbbc0e6 svgShape"></stop></linearGradient><linearGradient id="v" x1="106.151" x2="206.786" y1="886.739" y2="886.739" xlink:href="#c"></linearGradient><linearGradient id="d" x1="900.121" x2="980.295" y1="875.075" y2="875.075" gradientUnits="userSpaceOnUse"><stop offset="0" stop-color="#c4d6e9" class="stopColorc4cae9 svgShape"></stop><stop offset="1" stop-color="#ffffff" class="stopColorffffff svgShape"></stop></linearGradient><linearGradient id="w" x1="868.117" x2="970.944" y1="872.553" y2="872.553" gradientUnits="userSpaceOnUse"><stop offset=".264" stop-color="#6f67e9" class="stopColor6b67e9 svgShape"></stop><stop offset=".341" stop-color="#645cd9" class="stopColor605cd9 svgShape"></stop><stop offset=".49" stop-color="#7d3fb0" class="stopColor433fb0 svgShape"></stop><stop offset=".494" stop-color="#7c3eaf" class="stopColor423eaf svgShape"></stop></linearGradient><linearGradient id="x" x1="896.715" x2="1305.236" y1="645.566" y2="645.566" gradientUnits="userSpaceOnUse"><stop offset="0" stop-color="#c4d6e9" class="stopColorc4cae9 svgShape"></stop><stop offset=".396" stop-color="#e2ebf4" class="stopColore2e5f4 svgShape"></stop><stop offset=".76" stop-color="#f7f9fc" class="stopColorf7f8fc svgShape"></stop><stop offset="1" stop-color="#ffffff" class="stopColorffffff svgShape"></stop></linearGradient><linearGradient id="y" x1="-8.338" x2="281.59" y1="672.657" y2="672.657" gradientTransform="matrix(-1 0 0 1 1072.44 0)" gradientUnits="userSpaceOnUse"><stop offset=".242" stop-color="#7c3eaf" class="stopColor423eaf svgShape"></stop><stop offset=".304" stop-color="#7e40b1" class="stopColor4440b1 svgShape"></stop><stop offset=".337" stop-color="#4c45b9" class="stopColor4945b9 svgShape"></stop><stop offset=".363" stop-color="#574fc7" class="stopColor534fc7 svgShape"></stop><stop offset=".386" stop-color="#645cda" class="stopColor605cda svgShape"></stop><stop offset=".399" stop-color="#6f67e9" class="stopColor6b67e9 svgShape"></stop></linearGradient><linearGradient id="z" x1="893.84" x2="1076.915" y1="639.466" y2="639.466" gradientUnits="userSpaceOnUse"><stop offset="0" stop-color="#dae7f5" class="stopColordae0f5 svgShape"></stop><stop offset=".319" stop-color="#e0ebf7" class="stopColore0e5f7 svgShape"></stop><stop offset=".765" stop-color="#f3f7fc" class="stopColorf3f5fc svgShape"></stop><stop offset="1" stop-color="#ffffff" class="stopColorffffff svgShape"></stop></linearGradient><linearGradient id="A" x1="277.606" x2="-83.509" y1="-1.571" y2="623.898" gradientTransform="matrix(-1 0 0 1 1072.44 0)" gradientUnits="userSpaceOnUse"><stop offset=".635" stop-color="#6f67e9" class="stopColor6b67e9 svgShape"></stop><stop offset=".697" stop-color="#193f6f" class="stopColor20196f svgShape"></stop></linearGradient><linearGradient id="B" x1="515.65" x2="780.422" y1="360.748" y2="360.748" gradientUnits="userSpaceOnUse"><stop offset="0" stop-color="#d1e2f3" class="stopColord1d7f3 svgShape"></stop><stop offset=".181" stop-color="#dfebf7" class="stopColordfe3f7 svgShape"></stop><stop offset=".558" stop-color="#f6f9fd" class="stopColorf6f7fd svgShape"></stop><stop offset=".792" stop-color="#ffffff" class="stopColorffffff svgShape"></stop></linearGradient><linearGradient id="C" x1="468.674" x2="565.726" y1="337.349" y2="337.349" gradientUnits="userSpaceOnUse"><stop offset="0" stop-color="#7c3eaf" class="stopColor423eaf svgShape"></stop><stop offset="1" stop-color="#193f6f" class="stopColor20196f svgShape"></stop></linearGradient><linearGradient id="D" x1="465.767" x2="568.705" y1="337.467" y2="337.467" gradientUnits="userSpaceOnUse"><stop offset="0" stop-color="#5a52cc" class="stopColor5652cc svgShape"></stop><stop offset="1" stop-color="#662e94" class="stopColor362e94 svgShape"></stop></linearGradient><linearGradient id="F" x1="465.375" x2="569.027" y1="304.437" y2="304.437" gradientUnits="userSpaceOnUse"><stop offset="0" stop-color="#ffffff" class="stopColorffffff svgShape"></stop><stop offset=".324" stop-color="#ecf2f9" class="stopColoreceff9 svgShape"></stop><stop offset=".662" stop-color="#e0eaf5" class="stopColore0e4f5 svgShape"></stop><stop offset="1" stop-color="#dce8f4" class="stopColordce1f4 svgShape"></stop></linearGradient><linearGradient id="G" x1="536.635" x2="503.143" y1="286.192" y2="228.181" gradientUnits="userSpaceOnUse"><stop offset="0"></stop><stop offset=".12" stop-color="#0e2139" class="stopColor392f0e svgShape"></stop><stop offset=".244" stop-color="#1b3f6d" class="stopColor6d591b svgShape"></stop><stop offset=".371" stop-color="#9a2585" class="stopColor9a7e25 svgShape"></stop><stop offset=".498" stop-color="#be2ea4" class="stopColorbe9b2e svgShape"></stop><stop offset=".624" stop-color="#db35bd" class="stopColordbb235 svgShape"></stop><stop offset=".75" stop-color="#3a94ef" class="stopColorefc33a svgShape"></stop><stop offset=".875" stop-color="#3d9cfb" class="stopColorfbcd3d svgShape"></stop><stop offset="1" stop-color="#3e9eff" class="stopColorffd03e svgShape"></stop></linearGradient><linearGradient id="H" x1="782.117" x2="891.113" y1="749.454" y2="749.454" gradientTransform="translate(13.375)" xlink:href="#d"></linearGradient><linearGradient id="I" x1="128.63" x2="427.453" y1="717.701" y2="717.701" gradientTransform="matrix(-1 0 0 1 1022.279 0)" gradientUnits="userSpaceOnUse"><stop offset=".264" stop-color="#7c3eaf" class="stopColor423eaf svgShape"></stop><stop offset=".288" stop-color="#5049bf" class="stopColor4d49bf svgShape"></stop><stop offset=".336" stop-color="#6e66e8" class="stopColor6a66e8 svgShape"></stop><stop offset=".337" stop-color="#6f67e9" class="stopColor6b67e9 svgShape"></stop></linearGradient><linearGradient id="J" x1="530.481" x2="697.49" y1="515.9" y2="515.9" gradientUnits="userSpaceOnUse"><stop offset="0" stop-color="#d1e0f0" class="stopColord1d6f0 svgShape"></stop><stop offset=".29" stop-color="#d5e3f1" class="stopColord5daf1 svgShape"></stop><stop offset=".592" stop-color="#e2ebf5" class="stopColore2e5f5 svgShape"></stop><stop offset=".899" stop-color="#f6f9fc" class="stopColorf6f7fc svgShape"></stop><stop offset="1" stop-color="#ffffff" class="stopColorffffff svgShape"></stop></linearGradient><linearGradient id="e" x1="571.136" x2="630.475" y1="492.501" y2="492.501" gradientUnits="userSpaceOnUse"><stop offset="0" stop-color="#bbcee2" class="stopColorbbbfe2 svgShape"></stop><stop offset="1" stop-color="#cee1f4" class="stopColorced2f4 svgShape"></stop></linearGradient><linearGradient id="K" x1="654.931" x2="671.539" y1="524.949" y2="524.949" gradientUnits="userSpaceOnUse"><stop offset="0" stop-color="#a5bcd4" class="stopColora5acd4 svgShape"></stop><stop offset=".635" stop-color="#bed2e7" class="stopColorbec3e7 svgShape"></stop><stop offset="1" stop-color="#cee1f4" class="stopColorced2f4 svgShape"></stop></linearGradient><linearGradient id="L" x1="530.481" x2="547.167" y1="524.969" y2="524.969" xlink:href="#e"></linearGradient><linearGradient id="M" x1="627.192" x2="648.514" y1="540.353" y2="540.353" gradientUnits="userSpaceOnUse"><stop offset="0" stop-color="#a5bcd4" class="stopColora5acd4 svgShape"></stop><stop offset=".516" stop-color="#bcd1e6" class="stopColorbcc2e6 svgShape"></stop><stop offset="1" stop-color="#cee1f4" class="stopColorced2f4 svgShape"></stop></linearGradient><linearGradient id="N" x1="553.712" x2="575.073" y1="540.377" y2="540.377" xlink:href="#e"></linearGradient><linearGradient id="O" x1="589.59" x2="612.739" y1="546.601" y2="546.601" xlink:href="#e"></linearGradient><linearGradient id="P" x1="558.755" x2="642.859" y1="484.414" y2="484.414" xlink:href="#e"></linearGradient><linearGradient id="Q" x1="159.01" x2="284.527" y1="753.553" y2="753.553" gradientUnits="userSpaceOnUse"><stop offset="0" stop-color="#c4d6e9" class="stopColorc4cae9 svgShape"></stop><stop offset=".241" stop-color="#d5e2f0" class="stopColord5daf0 svgShape"></stop><stop offset=".726" stop-color="#f4f7fb" class="stopColorf4f5fb svgShape"></stop><stop offset="1" stop-color="#ffffff" class="stopColorffffff svgShape"></stop></linearGradient><linearGradient id="R" x1="162.714" x2="180.968" y1="675.756" y2="707.372" gradientUnits="userSpaceOnUse"><stop offset="0" stop-color="#fc06cf" class="stopColorfcba06 svgShape"></stop><stop offset=".403" stop-color="#1e8dfd" class="stopColorfdc31e svgShape"></stop><stop offset="1" stop-color="#3e9eff" class="stopColorffd03e svgShape"></stop></linearGradient><linearGradient id="S" x1="1020.48" x2="1077.267" y1="630.569" y2="728.927" gradientTransform="matrix(-1 0 0 1 1200.936 0)" gradientUnits="userSpaceOnUse"><stop offset=".337" stop-color="#3e9eff" class="stopColorffd03e svgShape"></stop><stop offset=".509" stop-color="#359aff" class="stopColorffcc35 svgShape"></stop><stop offset=".788" stop-color="#1d8dfd" class="stopColorfdc31d svgShape"></stop><stop offset="1" stop-color="#fc06cf" class="stopColorfcba06 svgShape"></stop></linearGradient><linearGradient id="T" x1="1255.415" x2="1427.759" y1="710.049" y2="710.049" gradientTransform="translate(40.047)" gradientUnits="userSpaceOnUse"><stop offset="0" stop-color="#d1e2f3" class="stopColord1d7f3 svgShape"></stop><stop offset=".285" stop-color="#d5e4f4" class="stopColord5dbf4 svgShape"></stop><stop offset=".596" stop-color="#e3edf8" class="stopColore3e6f8 svgShape"></stop><stop offset=".919" stop-color="#f8fafd" class="stopColorf8f9fd svgShape"></stop><stop offset="1" stop-color="#ffffff" class="stopColorffffff svgShape"></stop></linearGradient><linearGradient id="f" x1="309.336" x2="434.705" y1="682.517" y2="682.517" gradientUnits="userSpaceOnUse"><stop offset="0" stop-color="#c2d4e6" class="stopColorc2c8e6 svgShape"></stop><stop offset=".281" stop-color="#d7e3ef" class="stopColord7dbef svgShape"></stop><stop offset=".738" stop-color="#f4f7fb" class="stopColorf4f5fb svgShape"></stop><stop offset="1" stop-color="#ffffff" class="stopColorffffff svgShape"></stop></linearGradient><linearGradient id="U" x1="322.35" x2="434.705" y1="771.443" y2="771.443" xlink:href="#f"></linearGradient><linearGradient id="V" x1="438.386" x2="584.381" y1="770.373" y2="770.373" xlink:href="#f"></linearGradient><linearGradient id="W" x1="450.693" x2="584.381" y1="683.597" y2="683.597" xlink:href="#f"></linearGradient><linearGradient id="X" x1="459.58" x2="459.58" y1="690.548" y2="540.647" gradientUnits="userSpaceOnUse"><stop offset=".247" stop-color="#bc31a3" class="stopColorbc3153 svgShape"></stop><stop offset=".715" stop-color="#e44ac8" class="stopColore44a66 svgShape"></stop><stop offset="1" stop-color="#ff5ae1" class="stopColorff5a72 svgShape"></stop></linearGradient><linearGradient id="Y" x1="681.358" x2="681.358" y1="690.548" y2="540.647" gradientTransform="matrix(-1 0 0 1 982.109 0)" gradientUnits="userSpaceOnUse"><stop offset=".247" stop-color="#bc31a3" class="stopColorbc3153 svgShape"></stop><stop offset=".528" stop-color="#da55c2" class="stopColorda555d svgShape"></stop><stop offset=".833" stop-color="#f566db" class="stopColorf57666 svgShape"></stop><stop offset="1" stop-color="#ff6ae4" class="stopColorff826a svgShape"></stop></linearGradient><linearGradient id="Z" x1="332.614" x2="427.717" y1="691.31" y2="691.31" gradientUnits="userSpaceOnUse"><stop offset="0" stop-color="#ff5ae1" class="stopColorff5a72 svgShape"></stop><stop offset=".404" stop-color="#e74bcb" class="stopColore74b67 svgShape"></stop><stop offset="1" stop-color="#bc31a3" class="stopColorbc3153 svgShape"></stop></linearGradient><linearGradient id="aa" x1="336.804" x2="427.717" y1="690.406" y2="690.406" gradientUnits="userSpaceOnUse"><stop offset="0" stop-color="#c2d6eb" class="stopColorc2c9eb svgShape"></stop><stop offset=".238" stop-color="#cadcee" class="stopColorcad0ee svgShape"></stop><stop offset=".611" stop-color="#e1ebf5" class="stopColore1e4f5 svgShape"></stop><stop offset="1" stop-color="#ffffff" class="stopColorffffff svgShape"></stop></linearGradient><linearGradient id="ab" x1="294.396" x2="465.935" y1="544.862" y2="544.862" gradientUnits="userSpaceOnUse"><stop offset="0" stop-color="#f0f2f5" class="stopColorf0f0f5 svgShape"></stop><stop offset=".284" stop-color="#e5ebf2" class="stopColore5e6f2 svgShape"></stop><stop offset=".78" stop-color="#c8daec" class="stopColorc8ccec svgShape"></stop><stop offset="1" stop-color="#b9d0e8" class="stopColorb9bfe8 svgShape"></stop></linearGradient><linearGradient id="ac" x1="339.81" x2="420.52" y1="430.871" y2="430.871" gradientUnits="userSpaceOnUse"><stop offset="0" stop-color="#ff5ae1" class="stopColorff5a72 svgShape"></stop><stop offset=".295" stop-color="#ef50d2" class="stopColoref506b svgShape"></stop><stop offset=".866" stop-color="#c737ad" class="stopColorc73758 svgShape"></stop><stop offset="1" stop-color="#bc31a3" class="stopColorbc3153 svgShape"></stop></linearGradient><linearGradient id="ad" x1="321.494" x2="371.973" y1="624.115" y2="699.328" gradientUnits="userSpaceOnUse"><stop offset="0" stop-color="#d1e2f3" class="stopColord1d7f3 svgShape"></stop><stop offset=".104" stop-color="#d7e6f5" class="stopColord7dcf5 svgShape"></stop><stop offset=".674" stop-color="#f4f8fc" class="stopColorf4f6fc svgShape"></stop><stop offset="1" stop-color="#ffffff" class="stopColorffffff svgShape"></stop></linearGradient><linearGradient id="ae" x1="451.004" x2="451.004" y1="763.326" y2="615.126" gradientUnits="userSpaceOnUse"><stop offset="0" stop-color="#bc31a3" class="stopColorbc3153 svgShape"></stop><stop offset="1" stop-color="#ff5ae1" class="stopColorff5a72 svgShape"></stop></linearGradient><linearGradient id="af" x1="431.693" x2="457.059" y1="631.379" y2="687.41" gradientUnits="userSpaceOnUse"><stop offset="0" stop-color="#dae7f5" class="stopColordae0f5 svgShape"></stop><stop offset=".506" stop-color="#eaf1f8" class="stopColoreaedf8 svgShape"></stop><stop offset="1" stop-color="#f5f7fa" class="stopColorf5f5fa svgShape"></stop></linearGradient><linearGradient id="ag" x1="457.792" x2="457.913" y1="635.334" y2="635.334" gradientUnits="userSpaceOnUse"><stop offset="0" stop-color="#b9d0e8" class="stopColorb9bfe8 svgShape"></stop><stop offset=".22" stop-color="#c8daec" class="stopColorc8ccec svgShape"></stop><stop offset=".716" stop-color="#e5ebf2" class="stopColore5e6f2 svgShape"></stop><stop offset="1" stop-color="#f0f2f5" class="stopColorf0f0f5 svgShape"></stop></linearGradient><linearGradient id="ah" x1="309.327" x2="309.327" y1="763.326" y2="615.126" gradientUnits="userSpaceOnUse"><stop offset="0" stop-color="#e33cc5" class="stopColore33c5c svgShape"></stop><stop offset="1" stop-color="#ff6ae4" class="stopColorff826a svgShape"></stop></linearGradient><linearGradient id="ai" x1="336.635" x2="336.635" y1="588.992" y2="512.345" gradientTransform="rotate(88.196 336.635 550.669)" xlink:href="#b"></linearGradient><linearGradient id="aj" x1="333.414" x2="351.208" y1="586.636" y2="513.947" gradientUnits="userSpaceOnUse"><stop offset="0" stop-color="#a3b9d0" class="stopColora3a9d0 svgShape"></stop><stop offset=".672" stop-color="#bbd0e6" class="stopColorbbc0e6 svgShape"></stop><stop offset="1" stop-color="#f6f8fb" class="stopColorf6f6fb svgShape"></stop></linearGradient><linearGradient id="ak" x1="314.434" x2="325.792" y1="572.524" y2="516.366" gradientUnits="userSpaceOnUse"><stop offset="0" stop-color="#cee3f8" class="stopColorced3f8 svgShape"></stop><stop offset=".344" stop-color="#c3d8ee" class="stopColorc3c8ee svgShape"></stop><stop offset=".945" stop-color="#a6bcd3" class="stopColora6acd3 svgShape"></stop><stop offset="1" stop-color="#a3b9d0" class="stopColora3a9d0 svgShape"></stop></linearGradient><linearGradient id="al" x1="316.122" x2="327.419" y1="572.485" y2="516.626" gradientUnits="userSpaceOnUse"><stop offset="0" stop-color="#ffffff" class="stopColorffffff svgShape"></stop><stop offset="1" stop-color="#cfe2f5" class="stopColorcfd6f5 svgShape"></stop></linearGradient><linearGradient id="am" x1="316.964" x2="353.12" y1="569.301" y2="536.553" gradientUnits="userSpaceOnUse"><stop offset="0" stop-color="#5a52cc" class="stopColor5652cc svgShape"></stop><stop offset="1" stop-color="#857dfb" class="stopColor807dfb svgShape"></stop></linearGradient><linearGradient id="an" x1="-631.717" x2="-358.589" y1="872.974" y2="872.974" gradientTransform="matrix(-1 0 0 1 751.43 0)" gradientUnits="userSpaceOnUse"><stop offset="0" stop-color="#f6f8fb" class="stopColorf6f6fb svgShape"></stop><stop offset=".621" stop-color="#d4dfeb" class="stopColord4d7eb svgShape"></stop><stop offset="1" stop-color="#c4d4e4" class="stopColorc4c9e4 svgShape"></stop></linearGradient><linearGradient id="g" x1="-509.288" x2="-437.479" y1="810.901" y2="810.901" gradientTransform="matrix(-1 0 0 1 751.43 0)" gradientUnits="userSpaceOnUse"><stop offset="0" stop-color="#bbd0e6" class="stopColorbbc0e6 svgShape"></stop><stop offset="1" stop-color="#cee3f8" class="stopColorced3f8 svgShape"></stop></linearGradient><linearGradient id="ao" x1="-562.873" x2="-509.288" y1="846.397" y2="846.397" xlink:href="#g"></linearGradient><linearGradient id="ap" x1="269" x2="366.478" y1="361.077" y2="361.077" gradientUnits="userSpaceOnUse"><stop offset=".427" stop-color="#c4d4e4" class="stopColorc4c9e4 svgShape"></stop><stop offset=".577" stop-color="#d7e2ed" class="stopColord7daed svgShape"></stop><stop offset=".846" stop-color="#f4f6f8" class="stopColorf4f5fa svgShape"></stop><stop offset="1" stop-color="#ffffff" class="stopColorffffff svgShape"></stop></linearGradient><linearGradient id="aq" x1="247.509" x2="345.038" y1="366.849" y2="366.849" gradientUnits="userSpaceOnUse"><stop offset="0" stop-color="#857dfb" class="stopColor807dfb svgShape"></stop><stop offset=".014" stop-color="#847cfa" class="stopColor7f7cfa svgShape"></stop><stop offset=".448" stop-color="#625ad1" class="stopColor5e5ad1 svgShape"></stop><stop offset=".792" stop-color="#4d46b8" class="stopColor4a46b8 svgShape"></stop><stop offset="1" stop-color="#7c3eaf" class="stopColor423eaf svgShape"></stop></linearGradient><linearGradient id="ar" x1="397.7" x2="558.376" y1="903.266" y2="903.266" gradientUnits="userSpaceOnUse"><stop offset=".453" stop-color="#c4d4e4" class="stopColorc4c9e4 svgShape"></stop><stop offset="1" stop-color="#ffffff" class="stopColorffffff svgShape"></stop></linearGradient><linearGradient id="h" x1="360.889" x2="518.264" y1="915.835" y2="915.835" gradientUnits="userSpaceOnUse"><stop offset="0" stop-color="#fc06cf" class="stopColorfcba06 svgShape"></stop><stop offset="1" stop-color="#e100b8" class="stopColore19100 svgShape"></stop></linearGradient><linearGradient id="as" x1="415.29" x2="449.834" y1="897.888" y2="897.888" xlink:href="#h"></linearGradient><linearGradient id="i" x1="716.912" x2="854.355" y1="890.973" y2="890.973" gradientTransform="translate(42.41)" gradientUnits="userSpaceOnUse"><stop offset="0" stop-color="#c4d4e5" class="stopColorc4c9e5 svgShape"></stop><stop offset=".241" stop-color="#dde6f0" class="stopColordde0f0 svgShape"></stop><stop offset=".539" stop-color="#f6f8fb" class="stopColorf6f7fb svgShape"></stop><stop offset=".719" stop-color="#ffffff" class="stopColorffffff svgShape"></stop></linearGradient><linearGradient id="at" x1="603.99" x2="735.539" y1="931.284" y2="931.284" gradientTransform="translate(97.637)" xlink:href="#i"></linearGradient><linearGradient id="au" x1="491.069" x2="612.146" y1="971.599" y2="971.599" gradientTransform="translate(152.864)" xlink:href="#i"></linearGradient><linearGradient id="av" x1="820.642" x2="1042.144" y1="968.337" y2="968.337" gradientUnits="userSpaceOnUse"><stop offset="0" stop-color="#dae7f5" class="stopColordae0f5 svgShape"></stop><stop offset=".327" stop-color="#deeaf6" class="stopColordee3f6 svgShape"></stop><stop offset=".66" stop-color="#eaf1f9" class="stopColoreaeef9 svgShape"></stop><stop offset=".996" stop-color="#ffffff" class="stopColorffffff svgShape"></stop><stop offset="1" stop-color="#ffffff" class="stopColorffffff svgShape"></stop></linearGradient><linearGradient id="aw" x1="1006.237" x2="1018.682" y1="897.526" y2="918.187" gradientUnits="userSpaceOnUse"><stop offset="0" stop-color="#6f67e9" class="stopColor6b67e9 svgShape"></stop><stop offset="1" stop-color="#652e93" class="stopColor362e93 svgShape"></stop></linearGradient><linearGradient id="ax" x1="833.583" x2="821.887" y1="1022.726" y2="1002.207" gradientUnits="userSpaceOnUse"><stop offset="0" stop-color="#bbd0e6" class="stopColorbbc0e6 svgShape"></stop><stop offset="1" stop-color="#f6f8fb" class="stopColorf6f6fb svgShape"></stop></linearGradient><linearGradient id="ay" x1="813.985" x2="809.06" y1="1026.216" y2="1019.854" gradientUnits="userSpaceOnUse"><stop offset="0" stop-color="#652e93" class="stopColor362e93 svgShape"></stop><stop offset="1" stop-color="#847cfb" class="stopColor807cfb svgShape"></stop></linearGradient><linearGradient id="az" x1="999.924" x2="986.268" y1="928.737" y2="905.776" gradientUnits="userSpaceOnUse"><stop offset=".074" stop-color="#a3b9d0" class="stopColora3a9d0 svgShape"></stop><stop offset=".137" stop-color="#cee3f8" class="stopColorced3f8 svgShape"></stop><stop offset=".559" stop-color="#cee3f8" class="stopColorced3f8 svgShape"></stop><stop offset=".69" stop-color="#f6f8fb" class="stopColorf6f6fb svgShape"></stop></linearGradient><linearGradient id="j" x1="992.588" x2="975.611" y1="933.951" y2="912.383" gradientUnits="userSpaceOnUse"><stop offset=".559" stop-color="#d1e2f3" class="stopColord1d7f3 svgShape"></stop><stop offset=".69" stop-color="#f1f3f6" class="stopColorf1f1f6 svgShape"></stop></linearGradient><linearGradient id="aA" x1="995.906" x2="978.93" y1="932.033" y2="910.465" xlink:href="#j"></linearGradient><linearGradient id="aB" x1="999.231" x2="982.254" y1="930.115" y2="908.546" xlink:href="#j"></linearGradient><linearGradient id="aC" x1="922.66" x2="1139.105" y1="1091.244" y2="1091.244" xlink:href="#k"></linearGradient><linearGradient id="aD" x1="-83.098" x2="15.214" y1="1036.381" y2="1036.381" gradientTransform="matrix(-1 0 0 1 1017.443 0)" xlink:href="#g"></linearGradient><linearGradient id="aE" x1="-99.952" x2="32.071" y1="1056.948" y2="1056.948" gradientTransform="matrix(-1 0 0 1 1017.443 0)" gradientUnits="userSpaceOnUse"><stop offset="0" stop-color="#cee3f8" class="stopColorced3f8 svgShape"></stop><stop offset=".771" stop-color="#bbd0e6" class="stopColorbbc0e6 svgShape"></stop></linearGradient><linearGradient id="aF" x1="26.074" x2="92.074" y1="1024.175" y2="1138.491" gradientTransform="matrix(-1 0 0 1 1017.443 0)" gradientUnits="userSpaceOnUse"><stop offset=".492" stop-color="#ff6ae4" class="stopColorff826a svgShape"></stop><stop offset="1" stop-color="#e33cc5" class="stopColore33c5c svgShape"></stop></linearGradient><linearGradient id="aG" x1="1221.758" x2="1407.751" y1="441.306" y2="441.306" gradientUnits="userSpaceOnUse"><stop offset=".416" stop-color="#c6d6e7" class="stopColorc6cbe7 svgShape"></stop><stop offset=".587" stop-color="#d2dfec" class="stopColord2d6ec svgShape"></stop><stop offset=".897" stop-color="#f3f6fa" class="stopColorf3f4fa svgShape"></stop><stop offset="1" stop-color="#ffffff" class="stopColorffffff svgShape"></stop></linearGradient><linearGradient id="aH" x1="1204.873" x2="1382.659" y1="460.964" y2="460.964" gradientUnits="userSpaceOnUse"><stop offset="0" stop-color="#cee3f8" class="stopColorced3f8 svgShape"></stop><stop offset="1" stop-color="#bbd0e6" class="stopColorbbc0e6 svgShape"></stop></linearGradient><linearGradient id="aI" x1="1293.775" x2="1379.158" y1="415.452" y2="415.452" gradientUnits="userSpaceOnUse"><stop offset="0" stop-color="#c4d6e9" class="stopColorc4cae9 svgShape"></stop><stop offset=".564" stop-color="#d4e3f2" class="stopColord4daf2 svgShape"></stop><stop offset="1" stop-color="#dae7f5" class="stopColordae0f5 svgShape"></stop></linearGradient><linearGradient id="aJ" x1="447.033" x2="574.964" y1="1095.075" y2="1095.075" xlink:href="#k"></linearGradient><linearGradient id="aK" x1="1247.443" x2="1318.228" y1="1070.625" y2="1070.625" xlink:href="#k"></linearGradient><linearGradient id="aL" x1="1224.728" x2="1295.513" y1="250.392" y2="250.392" xlink:href="#k"></linearGradient><radialGradient id="E" cx="474.948" cy="196.462" r="163.244" gradientUnits="userSpaceOnUse"><stop offset="0" stop-color="#3e9eff" class="stopColorffd03e svgShape"></stop><stop offset=".253" stop-color="#3b9cfd" class="stopColorfdcc3b svgShape"></stop><stop offset=".488" stop-color="#3194f7" class="stopColorf7c131 svgShape"></stop><stop offset=".714" stop-color="#ee20c9" class="stopColoreeae20 svgShape"></stop><stop offset=".935" stop-color="#e108ba" class="stopColore19408 svgShape"></stop><stop offset="1" stop-color="#dc00b4" class="stopColordc8b00 svgShape"></stop></radialGradient></defs><g style="isolation:isolate" fill="#f4f6f8" class="color000000 svgShape"><g fill="#f4f6f8" class="color000000 svgShape"><g fill="#f4f6f8" class="color000000 svgShape"><path fill="url(#b)" d="M511.384 486.158a1 1 0 0 1-.5-.134l-151.588-87.52a1 1 0 0 1 1-1.733l151.588 87.52a1 1 0 0 1-.5 1.867Z"></path><path fill="url(#a)" d="M1127.179 788.723a.992.992 0 0 1-.5-.135l-151.59-87.52a1 1 0 0 1 1-1.73l151.59 87.52a1 1 0 0 1-.5 1.865Z"></path><path fill="url(#l)" d="M972.509 1036.517a.992.992 0 0 1-.5-.134L784.323 928.02a1 1 0 1 1 1-1.73l187.686 108.361a1 1 0 0 1-.5 1.865Z"></path><path fill="url(#m)" d="M1204.872 1050.256a.992.992 0 0 1-.5-.135l-141.834-81.889a1 1 0 0 1 1-1.73l141.834 81.889a1 1 0 0 1-.5 1.865Z"></path><path fill="url(#n)" d="M333.922 851.316a.986.986 0 0 1-.5-.134l-146.525-84.596a1 1 0 1 1 1-1.73l146.526 84.595a1 1 0 0 1-.501 1.865Z"></path><path fill="url(#o)" d="M767.345 610.795a.992.992 0 0 1-.5-.135l-88.498-51.095a1 1 0 0 1 1-1.732l88.498 51.097a1 1 0 0 1-.5 1.865Z"></path><path fill="url(#p)" d="M526.194 850.387a1 1 0 0 1-.5-1.866l178.277-102.927a1 1 0 1 1 1 1.73L526.694 850.252a.992.992 0 0 1-.5.135Z"></path><path fill="url(#q)" d="M1039.24 591.016a1 1 0 0 1-.5-1.866l178.276-102.93a1 1 0 0 1 1 1.732L1039.74 590.881a.992.992 0 0 1-.5.135Z"></path><path fill="url(#r)" d="M530.481 799.385a.996.996 0 0 1-.5-.135l-113.355-65.445a1 1 0 0 1 1-1.73l112.857 65.155 170.897-98.152a1 1 0 1 1 .996 1.734l-171.397 98.44a1.006 1.006 0 0 1-.498.133Z"></path><path fill="url(#s)" d="M547.93 1154.47a.996.996 0 0 1-.5-.134l-53.901-31.12a1 1 0 1 1 1-1.73l53.403 30.83 170.897-98.152a1 1 0 1 1 .996 1.734l-171.397 98.44a1.006 1.006 0 0 1-.498.133Z"></path><path fill="url(#t)" d="M1238.626 757.23a.996.996 0 0 1-.5-.134l-151.588-87.52a1 1 0 1 1 1-1.73l151.09 87.23 47.115-27.059a1 1 0 0 1 .996 1.735l-47.615 27.346a1.007 1.007 0 0 1-.498.132Z"></path><path fill="url(#u)" d="M748.05 492.347a1 1 0 0 1-.5-.134L562.373 385.302a1 1 0 0 1 1-1.733L748.549 490.48a1 1 0 0 1-.5 1.867Z"></path><path fill="#c4d6e9" d="M181.83 762.507a12.304 12.304 0 0 1 11.134 0c3.075 1.775 3.075 4.653 0 6.428a12.304 12.304 0 0 1-11.133 0c-3.075-1.776-3.075-4.653 0-6.428ZM411.559 729.725a12.304 12.304 0 0 1 11.133 0c3.075 1.775 3.075 4.653 0 6.428a12.304 12.304 0 0 1-11.133 0c-3.075-1.775-3.075-4.653 0-6.428ZM520.627 846.174a12.304 12.304 0 0 1 11.133 0c3.074 1.775 3.074 4.653 0 6.428a12.304 12.304 0 0 1-11.133 0c-3.075-1.776-3.075-4.653 0-6.428ZM354.228 394.424a12.304 12.304 0 0 1 11.133 0c3.075 1.775 3.075 4.653 0 6.428a12.304 12.304 0 0 1-11.133 0c-3.074-1.775-3.074-4.653 0-6.428ZM557.307 381.221a12.305 12.305 0 0 1 11.134 0c3.074 1.775 3.074 4.653 0 6.428a12.304 12.304 0 0 1-11.133 0c-3.075-1.775-3.075-4.653 0-6.428ZM673.279 555.486a12.305 12.305 0 0 1 11.133 0c3.075 1.775 3.075 4.653 0 6.428a12.304 12.304 0 0 1-11.133 0c-3.075-1.776-3.075-4.653 0-6.428ZM1280.674 725.67a12.304 12.304 0 0 1 11.134 0c3.074 1.775 3.074 4.653 0 6.428a12.304 12.304 0 0 1-11.134 0c-3.074-1.775-3.074-4.653 0-6.428ZM1211.95 483.872a12.304 12.304 0 0 1 11.134 0c3.074 1.775 3.074 4.653 0 6.428a12.304 12.304 0 0 1-11.134 0c-3.074-1.775-3.074-4.653 0-6.428ZM1121.612 784.509a12.304 12.304 0 0 1 11.133 0c3.074 1.775 3.074 4.652 0 6.427a12.304 12.304 0 0 1-11.133 0c-3.075-1.775-3.075-4.652 0-6.427ZM1199.306 1046.042a12.304 12.304 0 0 1 11.133 0c3.075 1.776 3.075 4.653 0 6.428a12.304 12.304 0 0 1-11.133 0c-3.074-1.775-3.074-4.653 0-6.428ZM966.943 1032.303a12.304 12.304 0 0 1 11.133 0c3.074 1.775 3.074 4.653 0 6.428a12.304 12.304 0 0 1-11.133 0c-3.075-1.775-3.075-4.653 0-6.428ZM488.463 1119.137a12.304 12.304 0 0 1 11.133 0c3.075 1.775 3.075 4.653 0 6.428a12.304 12.304 0 0 1-11.133 0c-3.075-1.775-3.075-4.653 0-6.428Z" class="colorc4cae9 svgShape"></path><path d="M251.106 858.568s-103.366 31.22-111.688 36.025-8.322 12.594 0 17.399 21.814 4.805 30.136 0l64.276-37.11 46.253 26.704S229 918.798 220.678 923.602s-8.322 12.595 0 17.4 21.814 4.804 30.136 0L322.35 899.7Z" style="mix-blend-mode:multiply" fill="url(#k)"></path><path fill="#f1f3f6" d="m224.062 841.568-75.41 43.538c-.457-2.743-2.504-5.413-6.141-7.513-8.322-4.805-21.815-4.805-30.137 0-8.322 4.804-8.322 12.594 0 17.399 8.322 4.805 21.815 4.805 30.137 0l64.275-37.11 60.263 34.793-37.136 21.44c-.458-2.742-2.505-5.412-6.142-7.513-8.322-4.804-21.815-4.804-30.137 0s-8.321 12.595 0 17.4 21.815 4.804 30.137 0l71.535-41.301Z" class="colorf1f1f6 svgShape"></path><path fill="url(#c)" d="M223.77 924.002c-8.321 4.804-21.814 4.804-30.135 0-3.976-2.296-6.03-5.274-6.207-8.28v16.16a7.144 7.144 0 0 0 0 .84v.021h.002c.185 3 2.238 5.969 6.205 8.259 8.321 4.804 21.814 4.804 30.136 0l71.535-41.301v-17Z"></path><path fill="url(#v)" d="M142.51 894.992c-8.321 4.805-21.814 4.805-30.136 0-4.026-2.325-6.086-5.348-6.216-8.394v16.389q-.013.306 0 .61v.001c.13 3.046 2.19 6.07 6.216 8.394 8.322 4.805 21.815 4.805 30.137 0l64.276-37.11v-17Z"></path><path fill="#cce1f6" d="M206.786 857.882v17l45.54 26.293 14.723-8.5-60.263-34.793z" class="colorccd1f6 svgShape"></path><path d="M970.942 853.948s-2.076 7.676-6.395 10.173l-40.772 23.537-2.06-1.407s-9.64 5.013-21.594 9.95c22.943 0 26.347-1.578 30.691-3.738 25.432-11.336 36.644-17.448 49.044-28.016 2.826-2.57-8.914-10.499-8.914-10.499Z" style="mix-blend-mode:multiply" fill="url(#d)"></path><path fill="#f1f3f6" d="M964.513 841.89c4.046 2.334 6.36 4.768 6.429 7.012.081 2.491-2.515 4.745-6.968 6.378-18.304 7.157-28.89 13.631-48.523 28.314-8.528 6.745-22.49 9.466-31.031 4.54-3.98-2.296-5.965-3.443-9.945-5.742-4.268-2.467-6.253-6.175-6.344-10.104-.093-3.934 1.711-8.094 6.007-11.526 18.702-15.158 31.267-22.07 48.866-28.736 8.453-3.06 23.024-.81 31.568 4.124 3.976 2.293 5.962 3.443 9.941 5.74Z" class="colorf1f1f6 svgShape"></path><path fill="url(#w)" d="M963.974 855.28c-18.304 7.157-28.89 13.631-48.523 28.314-8.528 6.745-22.49 9.466-31.031 4.54-3.98-2.296-5.965-3.443-9.945-5.742-4.268-2.467-6.253-6.175-6.344-10.104v5.094a7.434 7.434 0 0 0 0 .901v.163h.012c.256 3.024 2.359 6.01 6.356 8.317l9.945 5.742c8.543 4.929 22.389 4.935 30.935 0l49.161-28.387c4.326-2.494 6.45-5.78 6.399-9.055h.003v-6.16c.081 2.49-2.515 4.744-6.968 6.377Z"></path><path fill="#bbd0e6" d="M932.556 849.336c-1.949-1.115-2.009-2.753-.078-3.413 1.934-.654 5.154.03 7.1 1.133 1.757.985 1.874 2.22-.06 2.882a9.8 9.8 0 0 1-6.962-.602Z" class="colorbbc0e6 svgShape"></path><path d="M1084.657 687.817h220.579L1081.596 558.7 902.724 661.422c-8.01 4.624-8.01 12.192 0 16.818 0 0 85.446 49.305 85.839 49.5l-13.046 4.693h20.949a39.79 39.79 0 0 0 20.084-5.294Z" style="mix-blend-mode:multiply" fill="url(#x)"></path><path fill="#f6f8fb" d="M881.532 555.21c8.014-4.623 21.12-4.623 29.134 0l164.109 94.75c8.01 4.627 8.01 12.192 0 16.821l-84.692 48.902c-8.014 4.618-21.123 4.618-29.134 0l-164.114-94.756c-8.014-4.624-8.014-12.192 0-16.817Z" class="colorf6f6fb svgShape"></path><path fill="url(#y)" d="m796.835 620.927 164.114 94.756c8.01 4.618 21.12 4.618 29.134 0l84.692-48.902c3.848-2.22 5.828-5.124 5.978-8.05.024 0 .024 12.906.024 12.906.005 3.053-1.988 6.105-6.002 8.425l-84.692 48.902c-8.014 4.628-21.123 4.628-29.134 0L796.835 634.21c-4.162-2.404-6.142-5.6-5.976-8.765v-12.566c.148 2.929 2.13 5.826 5.976 8.048Z"></path><path d="m971.04 604.421-1.43-.02h-75.77c.342 2.755 2.309 5.449 5.933 7.542l90.42 52.202-.645 1.403-15.57 8.983h87.37l15.567-8.983Z" style="mix-blend-mode:multiply" fill="url(#z)"></path><path fill="#cee3f8" d="M879.816 587.744a139.957 139.957 0 0 0 6.603-44.526l11.654-6.727c0 2.979-.008 7.515-.393 13.229l94.614 54.625c0 9.984-.013 39.94-18.315 70.186L868.1 613.406Z" class="colorced3f8 svgShape"></path><path fill="#b7bfc8" d="m886.419 543.217 105.875 61.128 11.652-6.726-105.873-61.128-11.654 6.726z" class="colorc8b7bd svgShape"></path><path fill="#bbd0e6" d="M973.979 674.531c18.302-30.246 18.315-60.202 18.315-70.186l11.652-6.726a156.302 156.302 0 0 1-14.398 67.929Z" class="colorbbc0e6 svgShape"></path><path d="m986.458 646.462 12.516-7.228a155.4 155.4 0 0 0 4.062-22.53l-11.775 6.803a134.401 134.401 0 0 1-4.803 22.955Z" style="mix-blend-mode:multiply" fill="#dae7f5" class="colordae0f5 svgShape"></path><path fill="#d9ecff" d="m1132.76 635.188.003 53.193c-.003 9.253-6.556 13.033-14.567 8.41L725.682 470.171c-8.008-4.623-14.564-15.977-14.564-25.227l.005-53.188Z" class="colord9dfff svgShape"></path><path fill="#bbd0e6" d="m1132.763 688.381-.003-53.193 15.798-9.113v53.19c0 4.65-1.663 7.922-4.33 9.427l-15.143 8.684c2.278-1.661 3.678-4.74 3.678-8.995Z" class="colorbbc0e6 svgShape"></path><path fill="#ffffff" d="m725.685 400.165 392.511 226.617v-263.1L725.682 137.065l.003 263.1z" class="colorffffff svgShape"></path><path fill="#6822a2" d="M1118.196 346.862 725.682 120.247c-8.008-4.625-14.56-.844-14.564 8.41l.005 263.1 14.562 8.408-.003-263.1 392.514 226.617v263.097l14.564 8.409.003-263.096c-.003-9.254-6.556-20.603-14.567-25.23Z" class="color423eaf svgShape"></path><path fill="url(#A)" d="m741.477 111.132 392.514 226.617c8.011 4.625 14.567 15.975 14.567 25.226v263.1l-15.798 9.113.003-263.096c-.003-9.254-6.556-20.603-14.567-25.23L725.682 120.247c-3.269-1.886-6.277-2.354-8.723-1.641l12.635-7.19c2.644-2.782 6.988-3.112 11.883-.284Z"></path><path fill="#cee3f8" d="m826.16 229.701-27.795-16.047v-6.615l27.795 16.048v6.614zM967.586 311.353l-126.599-73.092v-6.614l126.599 73.092v6.614z" class="colorced3f8 svgShape"></path><path fill="#bbd0e6" d="m845.93 259.127-47.565-27.462v-6.614l47.565 27.462v6.614zM967.586 329.365l-106.828-61.678v-6.614l106.828 61.678v6.614z" class="colorbbc0e6 svgShape"></path><path fill="#fc06cf" d="m816.795 260.316-18.43-10.64v-6.614l18.43 10.64v6.614z" class="colorfcba06 svgShape"></path><path fill="#857dfb" d="m967.586 347.376-135.964-78.499v-6.614l135.964 78.499v6.614z" class="color807dfb svgShape"></path><path fill="#bbd0e6" d="m859.17 302.793-60.805-35.106v-6.614l60.805 35.106v6.614z" class="colorbbc0e6 svgShape"></path><path fill="#fc06cf" d="m967.586 365.387-93.589-54.034v-6.614l93.589 54.034v6.614z" class="colorfcba06 svgShape"></path><path fill="#cee3f8" d="m826.16 301.746-27.795-16.048v-6.614l27.795 16.048v6.614zM967.586 383.398l-126.599-73.092v-6.614l126.599 73.092v6.614z" class="colorced3f8 svgShape"></path><path fill="#857dfb" d="m838.204 326.711-19.919-11.501v-6.614l19.919 11.501v6.614zM987.506 412.91l-134.474-77.639v-6.614l134.474 77.639v6.614z" class="color807dfb svgShape"></path><path fill="#bbd0e6" d="m846.08 349.269-27.795-16.048v-6.614l27.795 16.048v6.614zM979.22 426.137l-126.599-73.092v-6.614l126.599 73.092v6.614z" class="colorbbc0e6 svgShape"></path><path fill="#cee3f8" d="m846.08 367.28-27.795-16.048v-6.614l27.795 16.048v6.614zM987.506 448.932 860.907 375.84v-6.614l126.599 73.092v6.614zM855.072 390.483l-27.795-16.048v-6.614l27.795 16.047v6.615zM987.506 466.943l-126.599-73.091v-6.615l126.599 73.092v6.614z" class="colorced3f8 svgShape"></path><path fill="#fc06cf" d="m836.269 397.638-17.984-10.383v-6.614l17.984 10.383v6.614z" class="colorfcba06 svgShape"></path><path fill="#857dfb" d="m977.952 479.439-136.41-78.756v-6.614l136.41 78.756v6.614z" class="color807dfb svgShape"></path><path fill="#bbd0e6" d="m846.08 421.313-27.795-16.047v-6.614l27.795 16.047v6.614zM907.25 456.63l-46.343-26.756v-6.614l46.343 26.756v6.614z" class="colorbbc0e6 svgShape"></path><path fill="#857dfb" d="m846.08 439.325-27.795-16.048v-6.614l27.795 16.047v6.615zM987.506 520.977l-126.599-73.092v-6.614l126.599 73.092v6.614z" class="color807dfb svgShape"></path><path fill="#ff5ae1" d="m754.181 398.456-9.975-5.759V165.472l9.975 5.759v227.225z" class="colorff5a72 svgShape"></path><ellipse cx="1076.915" cy="399.354" fill="#cee3f8" rx="11.331" ry="19.625" transform="rotate(-30.001 1076.915 399.354)" class="colorced3f8 svgShape"></ellipse><ellipse cx="1076.915" cy="466.943" fill="#ff5ae1" rx="11.331" ry="19.625" transform="rotate(-30.001 1076.915 466.943)" class="colorff5a72 svgShape"></ellipse><ellipse cx="1076.915" cy="534.533" fill="#cee3f8" rx="11.331" ry="19.625" transform="rotate(-30 1076.921 534.536)" class="colorced3f8 svgShape"></ellipse><path style="mix-blend-mode:multiply" fill="url(#B)" d="M780.422 343.765H537.701l-22.051 16.981 1.552 16.985h204.382l58.838-33.966z"></path><path fill="#193f6f" d="M474.148 354.014c11.763 11.757 37.093 22.229 43.054 23.717 5.96-1.488 31.289-11.96 43.047-23.717a767.763 767.763 0 0 0-86.101 0Z" class="color20196f svgShape"></path><path fill="url(#C)" d="M468.674 305.61v35.463c0 7.168 4.74 14.34 14.212 19.81 18.951 10.94 49.675 10.938 68.625 0 9.476-5.47 14.215-12.642 14.215-19.81V305.61Z"></path><path fill="url(#D)" d="M568.63 323.665a3.044 3.044 0 0 0-1.53-2.438 19.265 19.265 0 0 0 1.605-7.637 3.17 3.17 0 0 0-2.898-2.816c-1.455 0-.005 2.816-.005 2.816h-.672c0 6.998-4.848 13.651-13.658 18.738-18.878 10.896-49.595 10.896-68.47 0-8.807-5.085-13.659-11.736-13.659-18.738h-.742s1.443-2.816-.01-2.816a3.037 3.037 0 0 0-2.824 2.816 19.233 19.233 0 0 0 1.595 7.607 3.04 3.04 0 0 0-1.595 2.468 19.176 19.176 0 0 0 1.594 7.594 3.064 3.064 0 0 0-1.594 2.472c0 8.326 5.484 16.08 15.444 21.83 19.866 11.466 52.184 11.466 72.049 0 9.96-5.75 15.445-13.508 15.445-21.83a3.312 3.312 0 0 0-1.605-2.43 17.99 17.99 0 0 0 1.53-7.636Zm-17.158 28.8c-18.878 10.896-49.595 10.896-68.47 0-8.27-4.773-13.052-10.931-13.6-17.46a34.995 34.995 0 0 0 11.81 10.488c19.865 11.47 52.183 11.47 72.048 0a35.07 35.07 0 0 0 11.816-10.485c-.552 6.523-5.332 12.684-13.604 17.458Zm0-10.07c-18.878 10.9-49.595 10.9-68.47 0-8.27-4.774-13.052-10.934-13.6-17.46a35.024 35.024 0 0 0 11.81 10.493c19.865 11.462 52.183 11.462 72.048 0a35.099 35.099 0 0 0 11.816-10.494c-.552 6.527-5.33 12.687-13.604 17.46Z"></path><path fill="url(#E)" d="M603.168 221.142a85.97 85.97 0 1 0-145.943 61.565c6.528 6.554 8.15 18.405 8.15 21.728 0 7.658 5.06 15.318 15.18 21.16 20.24 11.688 53.056 11.683 73.291 0 10.123-5.842 15.18-13.502 15.18-21.16 0-3.323 1.616-15.174 8.208-21.762a85.734 85.734 0 0 0 25.934-61.531Z"></path><path d="M480.555 283.282c20.24-11.688 53.05-11.688 73.291 0 20.241 11.683 20.241 30.626 0 42.314-20.235 11.682-53.052 11.687-73.291 0-20.24-11.688-20.24-30.634 0-42.314Z" style="mix-blend-mode:multiply" fill="url(#F)"></path><path fill="#ffffff" d="M448.59 226.158a5.017 5.017 0 0 1-5.017-5.016 73.711 73.711 0 0 1 73.629-73.628 5.017 5.017 0 1 1 0 10.033 63.666 63.666 0 0 0-63.594 63.595 5.017 5.017 0 0 1-5.017 5.016Z" class="colorffffff svgShape"></path><path d="M536.411 210.946a3.347 3.347 0 0 0-3.455.022c-2.374 1.376-4.134 5.85-5.275 11.543-.764-2.28-1.773-3.997-3.075-4.747a3.323 3.323 0 0 0-3.452.023c-2.372 1.371-4.136 5.845-5.273 11.534-.769-2.272-1.778-3.994-3.074-4.743a3.332 3.332 0 0 0-3.457.027c-2.371 1.368-4.136 5.843-5.275 11.533-.769-2.277-1.776-3.993-3.074-4.746a3.338 3.338 0 0 0-3.454.025c-4.463 2.578-6.798 16.1-6.798 28.126 0 12.246 2.916 15.864 5.738 19.362 2.982 3.699 6.065 7.52 6.065 23.864a1.79 1.79 0 0 0 3.58 0c0-17.6-3.644-22.122-6.858-26.105-2.655-3.293-4.948-6.136-4.948-17.121 0-13.627 2.882-23.68 4.97-24.994 1.152.766 3.26 6.791 3.256 18.182a1.79 1.79 0 0 0 3.58 0c0-13.63 2.877-23.685 4.965-25 1.153.769 3.262 6.797 3.262 18.185a1.788 1.788 0 0 0 3.577 0c0-13.633 2.878-23.685 4.961-24.998 1.158.767 3.263 6.793 3.263 18.182a1.79 1.79 0 0 0 3.582 0c0-13.63 2.874-23.683 4.961-24.998 1.154.77 3.262 6.799 3.262 18.18 0 11.314-2.543 17.475-5.245 24.001-3.072 7.438-6.56 15.87-6.56 32.86a1.79 1.79 0 0 0 3.582 0c0-16.28 3.194-24.018 6.284-31.497 2.836-6.859 5.516-13.342 5.516-25.363 0-8.883-1.349-19.15-5.13-21.337Z" style="mix-blend-mode:screen" fill="url(#G)"></path><path d="m901.23 724.464-11.214-6.475c4.342 2.508 4.342 6.612 0 9.116l-78.731 45.459c-4.342 2.507-11.449 2.507-15.793 0l10.99 6.342-3.485 2.012h11.217a16.58 16.58 0 0 0 8.287-1.88l78.73-45.456c4.344-2.507 4.344-6.609 0-9.118Z" style="mix-blend-mode:multiply" fill="url(#H)"></path><path fill="url(#I)" d="m598.082 659.039 196.627 113.525c4.342 2.507 11.448 2.507 15.793 0l79.892-46.126c2.05-1.184 3.12-2.725 3.234-4.289.02 0 .02 6.206.02 6.206 0 1.652-1.085 3.305-3.254 4.56l-79.892 46.123c-4.344 2.507-11.451 2.507-15.793 0L598.082 665.516c-2.357-1.36-3.422-3.19-3.224-4.977-.032 0-.032-6.055-.032-6.055 0 1.65 1.084 3.303 3.256 4.555Z"></path><path fill="#2219a7" d="M594.837 654.331c-.003.053-.01.1-.01.153a.743.743 0 0 1 .01-.153Z" class="color1967a7 svgShape"></path><path fill="#f1f3f6" d="M810.502 772.564c-4.344 2.507-11.451 2.507-15.793 0L598.082 659.039c-4.342-2.504-4.342-6.609 0-9.116l79.891-46.128c4.345-2.504 11.449-2.504 15.793 0L890.394 717.32c4.34 2.51 4.34 6.611 0 9.118Z" class="colorf1f1f6 svgShape"></path><path fill="#dfe9f4" d="m687.442 620.576-10.014-5.778 10.014-5.784 10.014 5.784-10.014 5.778zM704.305 630.319l-10.015-5.784 10.015-5.783 10.014 5.783-10.014 5.784zM721.173 640.054l-10.014-5.781 10.014-5.783 10.015 5.783-10.015 5.781zM738.039 649.792l-10.015-5.778 10.015-5.787 10.011 5.787-10.011 5.778zM754.905 659.529l-10.015-5.781 10.015-5.781 10.011 5.781-10.011 5.781zM771.77 669.267l-10.014-5.781 10.014-5.781 10.012 5.781-10.012 5.781zM788.636 679.007l-10.015-5.783 10.015-5.784 10.012 5.784-10.012 5.783zM805.501 688.742l-10.014-5.781 10.014-5.78 10.012 5.78-10.012 5.781zM822.367 698.48l-10.015-5.781 10.015-5.784 10.012 5.784-10.012 5.781zM839.232 708.215l-10.014-5.778 10.014-5.784 10.012 5.784-10.012 5.778zM856.095 717.955l-10.011-5.781 10.011-5.783 10.015 5.783-10.015 5.781zM872.964 727.693l-10.015-5.784 10.015-5.781 10.011 5.781-10.011 5.784zM678.566 634.927l-18.004-10.392 10.012-5.783 18.007 10.397-10.015 5.778zM669.251 648.221l-24.854-14.354 10.015-5.783 24.853 14.353-10.014 5.784zM659.239 661.912l-31.707-18.304 10.014-5.787 31.705 18.31-10.012 5.781zM625.125 665.785l-18.002-10.394 13.558-7.83 18.004 10.397-13.56 7.827zM649.981 680.136l-18.002-10.397 13.555-7.827 18.004 10.394-13.557 7.83zM674.836 694.484l-18.004-10.395 13.557-7.828 18.005 10.396-13.558 7.827zM760.535 743.963l-18.002-10.394 13.558-7.83 18.002 10.397-13.558 7.827zM802.657 768.28l-35.313-20.384 13.558-7.829 35.312 20.387-13.557 7.826zM735.722 729.636l-54.035-31.195 13.56-7.83 54.035 31.198-13.56 7.827zM700.15 647.393l-14.733-8.507 10.012-5.783 14.736 8.509-10.015 5.781zM690.837 660.681l-14.733-8.506 10.015-5.781 14.733 8.506-10.015 5.781zM681.284 674.109l-14.733-8.509 10.014-5.781 14.733 8.507-10.014 5.783zM702.871 686.57l-14.736-8.507 10.015-5.78 14.735 8.506-10.014 5.781zM724.455 699.031l-14.733-8.504 10.012-5.784 14.733 8.51-10.012 5.778zM746.039 711.494l-14.733-8.506 10.015-5.781 14.733 8.506-10.015 5.781zM767.624 723.955l-14.733-8.504 10.014-5.781 14.733 8.504-10.014 5.781zM789.21 736.418l-14.733-8.506 10.015-5.781 14.733 8.506-10.015 5.781zM823.53 756.231l-27.468-15.856 10.014-5.781 27.465 15.856-10.011 5.781zM712.421 673.145l-14.733-8.507 10.015-5.781 14.733 8.504-10.015 5.784zM734.008 685.605l-14.735-8.506 10.014-5.781 14.733 8.507-10.012 5.78zM755.593 698.069l-14.734-8.507 10.015-5.783 14.733 8.506-10.014 5.784zM777.177 710.53l-14.733-8.504 10.014-5.784 14.733 8.507-10.014 5.781zM798.763 722.993l-14.733-8.507 10.015-5.783 14.733 8.509-10.015 5.781zM839.931 746.759l-34.316-19.812 10.011-5.781 34.32 19.813-10.015 5.78zM721.737 659.856l-14.735-8.509 10.014-5.778 14.733 8.504-10.012 5.783zM743.319 672.317l-14.733-8.507 10.014-5.78 14.734 8.506-10.015 5.781zM764.906 684.78l-14.733-8.506 10.014-5.784 14.733 8.507-10.014 5.783zM786.49 697.244l-14.733-8.51 10.014-5.78 14.733 8.506-10.014 5.784zM808.077 709.702l-14.736-8.504 10.014-5.781 14.733 8.504-10.011 5.781zM829.661 722.165l-14.733-8.504 10.012-5.784 14.735 8.507-10.014 5.781zM856.098 737.428l-19.586-11.306 10.015-5.781 19.583 11.306-10.012 5.781z" class="colordfe4f4 svgShape"></path><path d="M681.002 533.251a6.524 6.524 0 0 1 2.274-1.494h10.025l4.189-9.169-3.776-.584a10.52 10.52 0 0 1-3.53-1.17 3.59 3.59 0 0 1-2.098-3.106 24.022 24.022 0 0 0-.01-3.65c-.082-2.618 3.119-3.898 5.553-4.28l3.786-.586-4.293-9.162h-10.015a7.559 7.559 0 0 1-.954-.458 6.198 6.198 0 0 1-1.346-1.037 40.748 40.748 0 0 0-3.17-3.166c-2.33-2.254-.661-4.293 1.117-5.327l2.757-1.602-11.62-6.709-2.757 1.602a11.44 11.44 0 0 1-9.188.667q-2.681-.996-5.48-1.828a9.375 9.375 0 0 1-1.795-.776c-2.231-1.289-2.346-3.01-1.821-4.167l1-2.183-15.837-2.46-1 2.19c-.64 1.411-2.84 3.275-7.36 3.242-2.102-.056-4.21-.056-6.302-.006a10.492 10.492 0 0 1-5.38-1.2 4.89 4.89 0 0 1-2.03-2.033l-1.02-2.192-15.81 2.46 1.025 2.182c.66 1.415.37 3.663-3.56 4.943q-2.787.831-5.46 1.829a11.476 11.476 0 0 1-9.19-.664l-2.78-1.605-11.545 6.709 2.775 1.602c1.79 1.033 3.482 3.073 1.181 5.324a39.77 39.77 0 0 0-3.138 3.168c-2.193 2.278-6.068 2.457-8.507 2.082l-3.792-.587-4.19 9.163 3.782.586a10.53 10.53 0 0 1 3.527 1.17 3.603 3.603 0 0 1 2.1 3.106 23.4 23.4 0 0 0 .006 3.648 3.063 3.063 0 0 1-1.042 2.364H530.48v11.67h31.838a7.603 7.603 0 0 1 .94.453 6.223 6.223 0 0 1 1.35 1.039 40.352 40.352 0 0 0 3.18 3.165 4.053 4.053 0 0 1 .918 1.257h-14.995v12.378h22.682v-.502l1.893-1.1a11.44 11.44 0 0 1 9.193-.664c.695.258 1.402.502 2.11.745v10.666h21.684v-.02l.134.02 1-2.189a3.469 3.469 0 0 1 .275-.478v2.667H634.5l15.81-2.454-1.025-2.188c-.592-1.261-.412-3.193 2.45-4.503h18.54l11.545-6.709-2.77-1.599c-1.795-1.036-3.487-3.076-1.187-5.327a38.32 38.32 0 0 0 3.139-3.163Zm-37.2-5.17c-11.625 6.756-30.551 6.762-42.258.003s-11.763-17.725-.137-24.48c11.635-6.762 30.557-6.76 42.263 0 11.707 6.758 11.768 17.715.133 24.477Z" style="mix-blend-mode:multiply" fill="url(#J)"></path><path fill="url(#e)" d="M621.721 483.997c-11.625-6.712-30.415-6.715-41.97 0-10.275 5.972-11.352 15.253-3.267 21.955a24.309 24.309 0 0 1 3.268-2.263c11.554-6.715 30.344-6.712 41.97 0a24.607 24.607 0 0 1 3.4 2.351c8.135-6.709 6.995-16.042-3.4-22.043Z"></path><path fill="#bbcee2" d="M627.088 457.494a2.877 2.877 0 0 0-.26 1.175l-.056 19.755a2.87 2.87 0 0 1 .26-1.175l1-2.183.057-19.754ZM574.374 457.495l-1.025-2.183-.056 19.755 1.025 2.182a2.885 2.885 0 0 1 .276 1.224l.055-19.755a2.881 2.881 0 0 0-.275-1.223ZM656.992 470.307a3.957 3.957 0 0 0-2.26 3.058l-.056 19.755a3.957 3.957 0 0 1 2.26-3.058l2.757-1.602.056-19.755Z" class="colorbbbfe2 svgShape"></path><path fill="#cee1f4" d="m544.614 470.308-2.775-1.602-.056 19.755 2.775 1.602c1.171.676 2.3 1.783 2.297 3.098l.056-19.755c.004-1.315-1.126-2.422-2.297-3.098Z" class="colorced2f4 svgShape"></path><path fill="#bbcee2" d="M671.868 490.044c-2.402.376-5.548 1.627-5.555 4.173l-.056 19.754c.007-2.545 3.153-3.797 5.555-4.173l3.785-.586.056-19.755Z" class="colorbbbfe2 svgShape"></path><path fill="#0c2340" d="m666.389 496.3-.056 19.754q-.002.837-.065 1.674l.057-19.754q.062-.837.064-1.675Z" class="color242d3c svgShape"></path><path fill="#cee1f4" d="m535.569 497.587.01-3.266a3.603 3.603 0 0 0-2.102-3.107 10.536 10.536 0 0 0-3.527-1.17l-3.781-.586-.056 19.755 3.782.586a10.53 10.53 0 0 1 3.526 1.17 3.858 3.858 0 0 1 2.04 2.5l-.008 2.308q-.002.975.074 1.946l.056-19.755c-.01-.127-.006-.254-.014-.381Z" class="colorced2f4 svgShape"></path><path fill="#0c2340" d="m535.585 498.069-.056 19.755c0-.034 0-.067-.002-.101l.056-19.755.002.101Z" class="color242d3c svgShape"></path><path fill="#bbcee2" d="m675.729 502.833-.056 19.755-4.19 9.169.056-19.755 4.19-9.169z" class="colorbbbfe2 svgShape"></path><path fill="#cee1f4" d="m530.537 512.002-.056 19.755-4.288-9.165.056-19.755 4.288 9.165z" class="colorced2f4 svgShape"></path><path fill="url(#K)" d="M667.752 511.412c-2.438-.375-6.319-.2-8.511 2.084a38.356 38.356 0 0 1-3.14 3.163 3.154 3.154 0 0 0-1.114 2.225l-.056 19.755a3.153 3.153 0 0 1 1.115-2.225 38.366 38.366 0 0 0 3.138-3.163c2.193-2.283 6.073-2.46 8.512-2.084l3.787.59.056-19.755Z"></path><path fill="url(#L)" d="M546.027 516.66a40.552 40.552 0 0 1-3.18-3.166 6.209 6.209 0 0 0-1.349-1.039 11.662 11.662 0 0 0-7.191-1.042l-3.77.59-.056 19.754 3.77-.59a11.66 11.66 0 0 1 7.191 1.043 6.22 6.22 0 0 1 1.35 1.039 40.376 40.376 0 0 0 3.179 3.165 3.168 3.168 0 0 1 1.14 2.265l.056-19.755a3.17 3.17 0 0 0-1.14-2.264Z"></path><path fill="#bbcee2" d="m660.058 523.585-.056 19.755-11.544 6.709.056-19.755 11.544-6.709z" class="colorbbbfe2 svgShape"></path><path fill="#cee1f4" d="m553.768 530.294-.056 19.755-11.62-6.708.056-19.755 11.62 6.708z" class="colorced2f4 svgShape"></path><path fill="url(#M)" d="M645.734 528.69a11.471 11.471 0 0 0-9.19-.659q-2.663.992-5.46 1.829c-2.922.951-3.832 2.438-3.836 3.716l-.056 19.755c.004-1.279.914-2.765 3.836-3.717q2.794-.835 5.46-1.828a11.474 11.474 0 0 1 9.19.658l2.78 1.605.056-19.755Z"></path><path fill="url(#N)" d="M572.99 530.636a9.402 9.402 0 0 0-1.802-.779q-2.796-.831-5.47-1.828a11.44 11.44 0 0 0-9.193.664l-2.757 1.601-.056 19.755 2.757-1.602a11.44 11.44 0 0 1 9.193-.664 87.185 87.185 0 0 0 5.47 1.829 9.405 9.405 0 0 1 1.802.779 3.502 3.502 0 0 1 2.083 2.99l.056-19.755a3.501 3.501 0 0 0-2.083-2.99Z"></path><path fill="#bbcee2" d="m628.548 536.985-.056 19.755-15.809 2.454.056-19.755 15.809-2.454z" class="colorbbbfe2 svgShape"></path><path fill="url(#O)" d="M611.713 537.25a4.863 4.863 0 0 0-2.028-2.04 10.484 10.484 0 0 0-5.377-1.196c-2.092.05-4.2.05-6.303-.006-4.513-.03-6.708 1.831-7.358 3.242l-1 2.189-.057 19.755 1-2.189c.65-1.411 2.846-3.272 7.36-3.243 2.102.057 4.21.057 6.302.006a10.484 10.484 0 0 1 5.377 1.198 4.864 4.864 0 0 1 2.029 2.04l1.025 2.188.056-19.755Z"></path><path fill="#f0f2f5" d="m657.289 521.986 2.769 1.6-11.544 6.708-2.78-1.605a11.471 11.471 0 0 0-9.19-.658q-2.664.992-5.46 1.829c-3.93 1.28-4.222 3.528-3.56 4.937l1.024 2.188-15.81 2.454-1.025-2.189a4.863 4.863 0 0 0-2.028-2.04 10.486 10.486 0 0 0-5.377-1.196c-2.092.05-4.2.05-6.303-.006-4.513-.03-6.708 1.831-7.358 3.242l-1 2.189-15.838-2.454 1.005-2.191c.524-1.156.404-2.871-1.824-4.158a9.402 9.402 0 0 0-1.802-.779q-2.796-.831-5.47-1.828a11.44 11.44 0 0 0-9.193.664l-2.757 1.601-11.62-6.708 2.757-1.602c1.778-1.033 3.448-3.073 1.122-5.324a40.552 40.552 0 0 1-3.18-3.166 6.216 6.216 0 0 0-1.349-1.039 11.663 11.663 0 0 0-7.191-1.042l-3.77.59-4.288-9.166 3.776-.587c2.434-.381 5.635-1.661 5.558-4.282a23.402 23.402 0 0 1-.005-3.647 3.603 3.603 0 0 0-2.1-3.107 10.538 10.538 0 0 0-3.528-1.17l-3.781-.586 4.19-9.163 3.792.587c2.438.375 6.313.197 8.506-2.081a39.806 39.806 0 0 1 3.139-3.169c2.3-2.251.608-4.29-1.182-5.324l-2.774-1.602 11.544-6.71 2.78 1.606a11.479 11.479 0 0 0 9.19.664q2.67-.996 5.46-1.828c3.93-1.28 4.221-3.529 3.56-4.943l-1.025-2.183 15.81-2.46 1.02 2.192a4.892 4.892 0 0 0 2.03 2.033 10.494 10.494 0 0 0 5.38 1.2c2.093-.05 4.2-.05 6.303.006 4.52.033 6.72-1.831 7.359-3.242l1-2.19 15.838 2.46-1 2.183c-.525 1.158-.41 2.879 1.82 4.167a9.38 9.38 0 0 0 1.795.776q2.797.831 5.48 1.828a11.438 11.438 0 0 0 9.188-.666l2.757-1.603 11.62 6.71-2.757 1.601c-1.778 1.034-3.447 3.073-1.116 5.327a40.737 40.737 0 0 1 3.17 3.166 6.197 6.197 0 0 0 1.346 1.037 11.658 11.658 0 0 0 7.199 1.041l3.77-.583 4.292 9.162-3.785.587c-2.435.381-5.635 1.661-5.554 4.279a24.06 24.06 0 0 1 .01 3.65 3.59 3.59 0 0 0 2.098 3.107 10.522 10.522 0 0 0 3.53 1.17l3.777.583-4.19 9.169-3.787-.59c-2.439-.375-6.319-.2-8.512 2.084a38.356 38.356 0 0 1-3.138 3.163c-2.301 2.251-.608 4.291 1.187 5.327Zm-77.506-13.657c11.706 6.76 30.633 6.753 42.258-.003 11.636-6.762 11.574-17.719-.132-24.477-11.707-6.76-30.628-6.762-42.264 0-11.625 6.756-11.569 17.722.138 24.48Z" class="colorf0f0f5 svgShape"></path><path fill="#cee1f4" d="m589.646 539.439-.056 19.755-15.837-2.454.056-19.755 15.837 2.454z" class="colorced2f4 svgShape"></path><path fill="#e0e5eb" d="M630.453 480.508c-16.479-9.514-43.108-9.52-59.49 0-7.795 4.53-11.85 10.404-12.188 16.342.32 6.009 4.44 11.969 12.382 16.554 16.479 9.513 43.113 9.504 59.48-.007 7.803-4.534 11.86-10.408 12.198-16.344-.32-6.006-4.442-11.96-12.382-16.545Zm-8.6 27.818c-11.544 6.71-30.34 6.715-41.965.003-5.5-3.176-8.407-7.287-8.723-11.448.328-4.11 3.188-8.162 8.587-11.299 11.554-6.715 30.344-6.712 41.97 0 5.5 3.176 8.407 7.285 8.725 11.444-.33 4.11-3.19 8.16-8.594 11.3Z" class="colore0e0eb svgShape"></path><path fill="url(#P)" d="M570.963 480.508c16.382-9.52 43.011-9.514 59.49 0 7.936 4.582 12.058 10.533 12.382 16.536.377-6.53-3.748-13.136-12.382-18.121-16.479-9.514-43.108-9.52-59.49 0-8.483 4.93-12.535 11.451-12.187 17.914.342-5.933 4.398-11.802 12.187-16.329Z"></path><path d="M284.527 757.32a177.055 177.055 0 0 1-30.902 2.942 99.646 99.646 0 0 1-10.375-.489 11.587 11.587 0 0 1 3.914-3.237c7.336-4.233 22.03-7.897 37.363-9.715v-19.428a388.086 388.086 0 0 0-40.34 5.541l-85.177 16.392 28.387 16.395 12.482 7.208c12.479 7.206 47.25 8.667 84.648 4.4Z" style="mix-blend-mode:multiply" fill="url(#Q)"></path><path fill="url(#R)" d="M179.966 673.987a18.253 18.253 0 0 0-1.386-7.391c6.948-.765 11.852 4.249 11.852 13.437 0 12.078-8.481 26.768-18.943 32.812-7.956 4.59-14.75 2.848-17.554-3.548a18.424 18.424 0 0 0 7.095-2.496c10.46-6.039 18.936-20.731 18.936-32.814Z"></path><path fill="url(#S)" d="M132.635 668.531c15.678-27.152 41.099-41.847 56.787-32.785l10.462 6.041c-15.685-9.06-41.11 5.634-56.789 32.788-15.664 27.14-15.673 56.471-.028 65.546l-10.432-6.017c-15.686-9.053-15.678-38.41 0-65.573Z"></path><path fill="#e100b8" d="m143.095 740.145 28.397 16.39 28.392-49.178c15.684-27.161 15.684-56.522 0-65.57-15.685-9.06-41.11 5.634-56.789 32.788-15.673 27.164-15.678 56.52 0 65.57Zm9.456-38.236c0-12.088 8.476-26.778 18.938-32.82 10.462-6.036 18.943-1.143 18.943 10.944 0 12.078-8.481 26.768-18.943 32.812-10.462 6.036-18.938 1.139-18.938-10.936Z" class="colore19100 svgShape"></path><path style="mix-blend-mode:multiply" fill="url(#T)" d="m1467.806 710.188-85.931 49.613h-14.357l-72.056-49.891 85.931-49.613 86.413 49.891z"></path><path fill="#3e9eff" d="m1220.367 666.451 147.149 84.958 86.414-49.891-147.149-84.958-86.414 49.891z" class="colorffd03e svgShape"></path><path fill="#dc00b4" d="m1367.517 751.409-147.15-84.958.004 8.393 147.147 84.957-.001-8.392z" class="colordc8b00 svgShape"></path><path fill="#50a7ff" d="m1453.93 701.518-12.019 6.939-114.755-18.705-32.395-66.253 12.02-6.939 147.149 84.958z" class="colorffe950 svgShape"></path><path fill="#3e9eff" d="m1453.933 709.909-.003-8.391-12.019 6.939.002 8.392 12.02-6.94z" class="colorffd03e svgShape"></path><path fill="#fc06cf" d="m1441.913 716.849-.002-8.392-74.394 42.952.001 8.392 74.395-42.952z" class="colorfcba06 svgShape"></path><g style="mix-blend-mode:multiply" fill="#f4f6f8" class="color000000 svgShape"><path fill="url(#f)" d="M434.705 674.82c-61.63 4.445-128.547 13.492-125.252 15.394h125.252Z"></path><path fill="url(#U)" d="M434.705 764.245H322.467c-3.063 1.769 54.585 9.716 112.238 14.395Z"></path><path fill="url(#V)" d="M584.381 763.165c-3.455.674-9.169 1.08-18.065 1.08h-127.93c2.843 1.641 76.392 8.602 145.995 13.336Z"></path><path fill="url(#W)" d="M584.381 677.326c-65.703 4.677-131.013 10.934-133.688 12.479h127.93c2.094 0 3.997.023 5.758.063Z"></path></g><path fill="url(#X)" d="M439.03 549.91v55.756c6.17-3.252 11.79-3.709 11.79 11.354v73.528c3.487-2.014 20.907-65.748 27.899-110.894 6.17-39.835-8.035-48.02-39.69-29.744Z"></path><path fill="url(#Y)" d="M321.301 549.91v55.756c-6.17-3.252-11.79-3.709-11.79 11.354v73.528c-3.487-2.014-20.907-65.748-27.899-110.894-6.17-39.835 8.034-48.02 39.69-29.744Z"></path><path fill="url(#Z)" d="M346.541 671.897c9.285-5.36 21.454-8.04 33.624-8.04 12.17 0 24.34 2.68 33.624 8.04 9.285 5.361 13.928 12.387 13.928 19.413s-4.643 14.052-13.928 19.413c-9.285 5.36-21.454 8.041-33.624 8.041-12.17 0-24.339-2.68-33.624-8.041-9.285-5.36-13.927-12.387-13.927-19.413s4.642-14.052 13.927-19.413Z"></path><path d="M413.79 671.897c-9.286-5.36-21.456-8.04-33.625-8.04-12.17 0-24.339 2.68-33.624 8.04a33.272 33.272 0 0 0-9.737 8.14c2.363 3.013 6.183 5.084 11.929 5.766 38.217 4.54 48.826 21.183 48.322 31.154a58.743 58.743 0 0 0 16.734-6.234c9.285-5.36 13.928-12.387 13.928-19.413s-4.643-14.052-13.928-19.413Z" style="mix-blend-mode:multiply" fill="url(#aa)"></path><path fill="url(#ab)" d="M465.206 567.326c-6.97-77.13-58.224-147.293-85.04-177.494-26.818 30.201-78.072 100.364-85.042 177.494-3.43 37.96 5.83 72.523 15.72 100.025h.014c2.707 7.537 9.11 14.719 19.24 20.568 13.826 7.982 31.947 11.973 50.067 11.973s36.241-3.99 50.067-11.973c10.13-5.849 16.534-13.031 19.24-20.568h.015c9.89-27.502 19.15-62.065 15.72-100.025Z"></path><path fill="url(#ac)" d="M380.165 389.832a401.176 401.176 0 0 0-38.15 51.159V441a14.76 14.76 0 0 0-2.205 7.611c0 5.963 3.94 11.926 11.82 16.475s18.207 6.824 28.535 6.824 20.656-2.275 28.536-6.824 11.82-10.512 11.82-16.475a14.763 14.763 0 0 0-2.205-7.612v-.009a401.171 401.171 0 0 0-38.15-51.158Z"></path><path d="M370.07 678.518c0-23.53-12.957-43.764-43.998-63.392-4.79 15.855-1.146 30.703 3.78 48.73 6.781 2.663 10.967 10.085 13.756 24.888l1.053 5.592a108.037 108.037 0 0 0 24.61 5.027c.503-7.003.8-14.06.8-20.845Z" style="mix-blend-mode:multiply" fill="url(#ad)"></path><path fill="#ff5ae1" d="M434.26 615.126c-7.643 14.694-10.13 31.808-8.625 50.436 6.17 3.872 12.229 10.093 12.229 25.156v73.527c3.487 2.014 20.907-41.606 27.899-78.678 6.17-32.712-.862-50.984-31.504-70.44Z" class="colorff5a72 svgShape"></path><path fill="url(#ae)" d="M444.506 629.82c7.954 7.87 20.302 19.51 18.353 43.444-2.167 26.608-14.433 72.567-23.39 90.062 5.549-6.488 20.06-44.71 26.294-77.76 6.17-32.71-.862-50.983-31.504-70.44-.37.711.737 5.285 10.247 14.694Z"></path><g style="mix-blend-mode:multiply" fill="#f4f6f8" class="color000000 svgShape"><path fill="url(#af)" d="M440.5 699.892c10.073-15.603 17.031-20.983 13.102-60.277-.353-3.53 1.277-7.615 3.759-4.898-5.35-6.781-12.915-13.122-23.102-19.59-7.642 14.693-10.129 31.807-8.624 50.435 6.17 3.872 12.229 10.093 12.229 25.156v7.652Z"></path><path fill="url(#ag)" d="M457.792 635.256c.04.056.08.096.121.155v-.003c-.039-.051-.082-.101-.121-.152Z"></path></g><path fill="#e33cc5" d="M326.072 615.126c7.642 14.694 10.129 31.808 8.623 50.436-6.17 3.872-12.228 10.093-12.228 25.156v73.527c-3.487 2.014-20.907-41.606-27.899-78.678-6.17-32.712.862-50.984 31.504-70.44Z" class="colore33c5c svgShape"></path><path fill="url(#ah)" d="M315.825 629.82c-7.954 7.87-20.302 19.51-18.353 43.444 2.167 26.608 14.433 72.567 23.39 90.062-5.55-6.488-20.06-44.71-26.294-77.76-6.17-32.71.862-50.983 31.504-70.44.37.711-.737 5.285-10.247 14.694Z"></path><ellipse cx="336.635" cy="550.669" rx="38.321" ry="31.044" transform="rotate(-88.196 336.635 550.669)" style="mix-blend-mode:multiply" fill="url(#ai)"></ellipse><path fill="#ffffff" d="M341.344 512.208c15.67 8.331 22.731 30.86 15.77 50.307-6.963 19.447-25.317 28.462-40.986 20.131s-22.73-30.86-15.77-50.308c6.963-19.446 25.318-28.461 40.986-20.13Z" class="colorffffff svgShape"></path><path fill="#857dfb" d="M350.642 559.075c5.375-15.012-.077-32.405-12.173-38.836a20.055 20.055 0 0 0-7.703-2.29c-9.105.254-17.765 6.902-21.703 17.9-5.374 15.013.078 32.405 12.174 38.836a20.055 20.055 0 0 0 7.703 2.291c9.105-.255 17.765-6.903 21.702-17.901Z" class="color807dfb svgShape"></path><path fill="url(#aj)" d="M345.701 512.345a25.882 25.882 0 0 0-11.389-3.092l-4.356-.137a25.882 25.882 0 0 1 11.388 3.092c15.67 8.331 22.731 30.86 15.77 50.307-5.315 14.845-17.268 23.611-29.598 23.223l4.357.137c12.33.388 24.282-8.378 29.597-23.222 6.962-19.447-.1-41.977-15.769-50.308Z"></path><path fill="url(#ak)" d="M309.063 535.85c3.938-10.999 12.598-17.647 21.703-17.902-9.896-.873-19.678 5.935-23.936 17.831-5.375 15.012.077 32.405 12.173 38.836a19.816 19.816 0 0 0 9.937 2.361 20.055 20.055 0 0 1-7.703-2.29c-12.096-6.432-17.548-23.824-12.174-38.836Z"></path><path d="M323.282 575.626a19.967 19.967 0 0 0 3.705 1.081l.014.003q.969.181 1.939.266c.377-.01.753-.049 1.128-.081a20.01 20.01 0 0 1-6.598-2.14c-12.096-6.43-17.547-23.823-12.173-38.835 3.774-10.542 11.89-17.071 20.574-17.82-.339-.049-.677-.108-1.016-.14-.376.01-.752.032-1.127.063-.17.014-.342.018-.512.037-.478.051-.951.128-1.424.214-.114.02-.23.032-.344.055q-.884.176-1.754.432c-.062.018-.121.043-.183.062a21.05 21.05 0 0 0-1.51.52c-.2.079-.397.174-.596.259-.356.152-.712.303-1.063.475-.226.111-.448.237-.672.357-.314.168-.63.336-.939.52-.233.14-.462.293-.693.441-.29.188-.582.378-.867.581-.231.165-.459.34-.686.513-.274.21-.547.425-.815.649-.225.187-.446.382-.665.58q-.392.35-.773.72-.32.312-.631.638c-.25.26-.494.528-.735.8-.199.226-.397.454-.59.688a28.13 28.13 0 0 0-.698.887c-.182.24-.366.48-.542.728a29.6 29.6 0 0 0-.662.984c-.163.25-.33.498-.487.756-.219.36-.426.735-.633 1.109-.139.25-.283.494-.416.75-.22.426-.425.869-.63 1.312-.103.224-.215.44-.314.668-.295.679-.574 1.375-.83 2.092a35.474 35.474 0 0 0-1.91 8.607q-.136 1.447-.157 2.89a36.068 36.068 0 0 0 .462 6.204 34.892 34.892 0 0 0 1.14 4.934 32.707 32.707 0 0 0 1.442 3.708 27.69 27.69 0 0 0 6.98 9.593 22.843 22.843 0 0 0 4.216 2.9c.57.303 1.147.566 1.726.808.107.045.213.09.32.132Z" style="mix-blend-mode:multiply" fill="url(#al)"></path><path fill="url(#am)" d="M339.275 532.396c-11.58.324-22.595 8.78-27.603 22.769a44.689 44.689 0 0 0-1.796 6.668 26.12 26.12 0 0 0 11.36 12.852 20.055 20.055 0 0 0 7.704 2.291c9.105-.255 17.765-6.903 21.702-17.901a35.917 35.917 0 0 0 .5-22.507c-.678-.439-1.355-.878-2.07-1.258a25.51 25.51 0 0 0-9.797-2.914Z"></path><path fill="url(#an)" d="M1307.429 837.844c-22.537.005-42.577-1.038-58.243-10.086-14.738-8.507-17.48-19.68-17.474-33.63l-83.458 48.188c-47.835 27.618-43.906 80.155-25.325 102.049 37.922 10.732 128.925 12.998 176.76-14.62l83.458-48.184c-22.541 0-42.579-1.048-58.25-10.091-14.732-8.507-17.468-19.675-17.468-33.626Z"></path><path fill="#cee3f8" d="m1080.972 880.298-.014.005v23.16h.014c-.047 15.777 5.134 30.26 12.892 39.398V919.7c-7.758-9.139-12.94-23.626-12.892-39.403Z" class="colorced3f8 svgShape"></path><path fill="#bbd0e6" d="M1270.624 905.081c-47.835 27.617-138.838 25.35-176.76 14.62v23.16c37.922 10.726 128.925 12.998 176.76-14.62l83.457-48.184v-23.16Z" class="colorbbc0e6 svgShape"></path><path fill="#f6f8fb" d="M1278.363 813.18c-22.537.004-42.577-1.039-58.242-10.087-14.738-8.507-17.48-19.68-17.475-33.63l-83.457 48.188c-47.836 27.618-43.907 80.155-25.325 102.05 37.922 10.73 128.925 12.997 176.76-14.62l83.457-48.185c-22.54 0-42.578-1.047-58.25-10.09-14.732-8.508-17.468-19.675-17.468-33.626Z" class="colorf6f6fb svgShape"></path><path fill="#bbd0e6" d="M1132.144 825.13c-25.712 14.842-33.766 38.083-32.841 58.057.853-18.476 9.68-38.658 32.84-52.03l56.765-32.773v-6.032c-24.692 14.26-56.764 32.778-56.764 32.778Z" class="colorbbc0e6 svgShape"></path><path fill="url(#g)" d="M1207.165 810.572c-9.434-5.45-14.956-11.666-18.257-18.22v6.032c3.3 6.55 8.823 12.766 18.257 18.214 15.92 9.19 35.056 12.017 53.553 12.852v-6.028c-18.497-.834-37.633-3.66-53.553-12.85Z"></path><path fill="url(#ao)" d="M1282.88 854.284c-15.357-8.868-20.56-19.746-22.162-30.862v6.028c1.602 11.12 6.805 21.993 22.162 30.866a86.736 86.736 0 0 0 23.684 9.057c2.627-1.517 5.219-3.016 7.739-4.467-11.082-1.878-21.837-5.088-31.423-10.622Z"></path><path fill="#6f67e9" d="M1207.165 816.598c-9.434-5.448-14.956-11.665-18.257-18.214l-56.764 32.773c-23.16 13.372-31.988 33.554-32.841 52.03.519 11.2 3.853 21.377 8.504 28.461 2.438.536 5.105 1.034 7.939 1.503l144.972-83.701c-18.497-.835-37.633-3.661-53.553-12.852Z" class="color6b67e9 svgShape"></path><path fill="#5046e4" d="M1282.88 860.316c-15.357-8.873-20.56-19.746-22.162-30.866l-144.972 83.701c36.843 6.08 104.657 5.966 141.922-15.549 0 0 25.755-14.866 48.896-28.23a86.736 86.736 0 0 1-23.684-9.056Z" class="color5652cc svgShape"></path><path d="M1188.908 798.384c3.3 6.55 8.823 12.766 18.257 18.214 15.92 9.19 35.056 12.017 53.553 12.851 1.602 11.12 6.804 21.994 22.161 30.867a86.726 86.726 0 0 0 23.685 9.056l-6.237 3.602v-.175a86.724 86.724 0 0 1-23.685-9.057c-15.357-8.872-20.559-19.746-22.162-30.866-18.496-.834-37.633-3.66-53.552-12.85-9.37-5.412-14.876-11.583-18.184-18.083l6.164-3.559Z" style="mix-blend-mode:multiply" fill="#d1e2f3" class="colord1d7f3 svgShape"></path><path d="M352.088 341.101c-10.19-5.882-23.737-8.592-37.04-8.196H294.19v3.417a55.22 55.22 0 0 0-11.034 4.779c-18.967 11.032-18.858 28.905.23 39.933a55.231 55.231 0 0 0 10.804 4.683v3.57h25.017c12.031-.2 23.953-2.93 33.11-8.247 18.968-11.034 18.872-28.907-.23-39.939Z" style="mix-blend-mode:multiply" fill="url(#ap)"></path><path fill="url(#aq)" d="M261.9 381.053c-9.609-5.55-14.413-12.83-14.39-20.103l.041-16.58c-.018 7.279 4.777 14.558 14.388 20.111 19.102 11.023 49.96 11.023 68.93.005 9.427-5.484 14.146-12.647 14.169-19.83l-.045 16.575c-.018 7.18-4.737 14.343-14.16 19.827-18.972 11.028-49.836 11.028-68.933-.005Z"></path><path fill="#f6f8fb" d="M261.94 364.481c-19.094-11.024-19.2-28.905-.23-39.927 18.975-11.027 49.844-11.027 68.936 0 19.102 11.022 19.192 28.903.222 39.932-18.97 11.018-49.827 11.018-68.929-.005Z" class="colorf6f6fb svgShape"></path><path fill="#bbd0e6" d="m321.302 342.245-36.07 1.835 1.12-8.109h-9.966l-2.705 14.779 47.621-2.751v-5.754z" class="colorbbc0e6 svgShape"></path><path d="M534.653 870.343c-16.798-9.7-39.128-14.168-61.052-13.509h-34.379v5.631a91.288 91.288 0 0 0-18.192 7.878c-31.261 18.178-31.078 47.64.384 65.818a91.812 91.812 0 0 0 17.808 7.72v5.88h41.234c19.826-.33 39.483-4.828 54.574-13.592 31.272-18.187 31.108-47.648-.377-65.826Z" style="mix-blend-mode:multiply" fill="url(#ar)"></path><path fill="#4ca5ff" d="M360.89 881.909c-.003-11.623 7.68-23.247 23.044-32.129 15.369-8.865 35.506-13.304 55.646-13.304 20.131 0 40.27 4.439 55.637 13.304 15.363 8.882 23.044 20.498 23.047 32.126.006 11.626-7.682 23.258-23.047 32.129-15.36 8.871-35.495 13.306-55.632 13.306-20.14 0-40.28-4.44-55.646-13.306-15.363-8.871-23.047-20.503-23.05-32.126Z" class="colorffe54c svgShape"></path><path fill="url(#h)" d="M495.217 914.035c-15.36 8.871-35.495 13.306-55.632 13.306-20.14 0-40.28-4.44-55.646-13.306-15.363-8.871-23.047-20.503-23.05-32.126v22.428c.003 11.621 7.687 23.25 23.05 32.118 15.367 8.882 35.506 13.31 55.646 13.31 20.137 0 40.271-4.428 55.632-13.302 15.365-8.876 23.053-20.505 23.047-32.131v-22.426c.006 11.626-7.682 23.258-23.047 32.129Z"></path><path fill="#3e9eff" d="M394.393 907.993c12.48 7.21 28.836 10.813 45.192 10.813 16.348 0 32.704-3.604 45.181-10.808 11.512-6.647 17.704-15.205 18.588-23.898-.884-8.702-7.076-17.254-18.588-23.905-12.482-7.21-28.836-10.81-45.19-10.807-16.35-.003-32.706 3.598-45.189 10.807-11.509 6.65-17.7 15.197-18.59 23.899.89 8.699 7.081 17.257 18.596 23.899Z" class="colorffd03e svgShape"></path><path fill="#e100b8" d="M394.387 860.195c12.483-7.21 28.84-10.81 45.19-10.807 16.353-.003 32.707 3.598 45.19 10.807 11.51 6.65 17.703 15.203 18.587 23.905a20.975 20.975 0 0 0 .128-2.194c0-9.444-6.236-18.882-18.716-26.086-12.482-7.202-28.836-10.808-45.19-10.808-16.35 0-32.706 3.606-45.189 10.808-12.48 7.204-18.718 16.648-18.713 26.089a21.542 21.542 0 0 0 .123 2.185c.89-8.702 7.081-17.248 18.59-23.899Z" class="colore19100 svgShape"></path><path fill="#e100b8" d="m471.059 872.525 6.045-3.492v-4.369l-6.045 3.494v4.367z" class="colore19100 svgShape"></path><path fill="#4ca5ff" d="M443.177 879.83c-2.253-1.301-3.5-3.033-3.5-4.872 0-1.835 1.247-3.567 3.503-4.869 4.654-2.687 12.224-2.687 16.874 0 4.654 2.684 4.654 7.06 0 9.744l7.663 4.42c7.55-4.363 8.656-11.046 3.342-16.095l6.045-3.494-7.657-4.425-6.042 3.494c-8.749-3.06-20.329-2.43-27.885 1.934-4.304 2.486-6.67 5.783-6.664 9.291-.005 3.514 2.365 6.806 6.664 9.294 4.651 2.684 4.654 7.055 0 9.75-4.65 2.684-12.226 2.684-16.88 0-4.65-2.695-4.65-7.06.006-9.75l-7.657-4.419c-7.559 4.37-8.66 11.043-3.356 16.1l-5.575 3.213 7.663 4.428 5.57-3.227c8.756 3.066 20.333 2.438 27.89-1.924 8.87-5.123 8.87-13.467-.004-18.592Z" class="colorffe54c svgShape"></path><path fill="#fc06cf" d="m402.058 903.522 7.663 4.422v-4.37l-7.663-4.428v4.376z" class="colorfcba06 svgShape"></path><path fill="#e100b8" d="m409.721 907.944 5.569-3.219v-4.378l-5.569 3.227v4.37z" class="colore19100 svgShape"></path><path fill="#fc06cf" d="m460.054 884.206 7.663 4.416v-4.37l-7.663-4.419v4.373z" class="colorfcba06 svgShape"></path><path fill="#e100b8" d="M418.646 888.622v-4.37c-3.309 1.91-4.247 4.66-2.867 7.055a7.614 7.614 0 0 1 2.867-2.685Z" class="colore19100 svgShape"></path><path fill="#fc06cf" d="m404.346 888.903.009 4.932.01-.01a8.338 8.338 0 0 0 .95 3.445l2.318-1.337a9.401 9.401 0 0 1-3.276-7.016ZM435.52 888.622a7.671 7.671 0 0 1 2.867 2.685c1.38-2.396.437-5.145-2.867-7.055-4.299-2.488-6.67-5.78-6.664-9.294v4.376c-.005 3.505 2.365 6.806 6.664 9.288ZM449.834 889.1v-.082h-.006c0 .022.006.057.006.082Z" class="colorfcba06 svgShape"></path><path fill="#e100b8" d="M474.34 874.953c.011 3.369-2.187 6.738-6.623 9.3v4.369c4.55-2.627 6.744-6.096 6.618-9.547l.016.022v-4.144Z" class="colore19100 svgShape"></path><path fill="url(#as)" d="M443.18 898.423c-7.556 4.362-19.133 4.99-27.89 1.924v4.378c8.757 3.063 20.334 2.433 27.89-1.932 4.4-2.547 6.615-5.875 6.648-9.211l.006.008v-4.441c-.014 3.358-2.23 6.716-6.654 9.274Z"></path><path fill="#e100b8" d="M460.054 870.089c-4.65-2.687-12.22-2.687-16.874 0-2.256 1.302-3.502 3.034-3.502 4.87a4.362 4.362 0 0 0 .625 2.19 7.733 7.733 0 0 1 2.877-2.69c4.654-2.684 12.224-2.684 16.874-.002a7.61 7.61 0 0 1 2.868 2.695c1.386-2.407.439-5.159-2.868-7.063Z" class="colore19100 svgShape"></path><path style="mix-blend-mode:multiply" fill="url(#i)" d="M861.845 870.816H759.323l34.914 20.154-34.914 20.161h102.522l34.92-20.161-34.92-20.154z"></path><path style="mix-blend-mode:multiply" fill="url(#at)" d="M798.263 911.126h-96.636l34.912 20.161-34.912 20.156h96.636l34.913-20.156-34.913-20.161z"></path><path style="mix-blend-mode:multiply" fill="url(#au)" d="M730.097 951.44h-86.164l34.913 20.159-34.913 20.158h86.164l34.913-20.158-34.913-20.159z"></path><path fill="#cee3f8" d="m724.403 817.559 34.914 20.161v73.406l-34.914-20.159v-73.408z" class="colorced3f8 svgShape"></path><path fill="#bbd0e6" d="m794.233 817.559-34.916 20.161v73.406l34.916-20.159v-73.408z" class="colorbbc0e6 svgShape"></path><path fill="#f1f3f6" d="m759.317 797.406-34.914 20.153 34.914 20.161 34.916-20.161-34.916-20.153z" class="colorf1f1f6 svgShape"></path><path fill="#5046e4" d="m666.709 877.74 34.915 20.158v53.545l-34.915-20.159V877.74z" class="color5652cc svgShape"></path><path fill="#6822a2" d="m736.539 877.74-34.915 20.158v53.545l34.915-20.159V877.74z" class="color423eaf svgShape"></path><path fill="#6f67e9" d="m701.624 857.581-34.915 20.159 34.915 20.158 34.915-20.158-34.915-20.159z" class="color6b67e9 svgShape"></path><path fill="#e33cc5" d="m609.016 929.603 34.917 20.159v41.995l-34.917-20.158v-41.996z" class="colore33c5c svgShape"></path><path fill="#a50b89" d="m678.846 929.603-34.913 20.159v41.995l34.913-20.158v-41.996z" class="colorbc3153 svgShape"></path><path fill="#ff5ae1" d="m643.933 909.445-34.917 20.158 34.917 20.159 34.913-20.159-34.913-20.158z" class="colorff5a72 svgShape"></path><path d="M1030.665 900.15a10.73 10.73 0 0 0-5.59 1.41c-.897.522-3.736 2.153-6.3 3.63l-1.172-.68a1.932 1.932 0 0 0-1.868.009c-.15.073-22.127 12.767-22.127 12.767a2.225 2.225 0 0 0-.743.609l-1.043 1.486-154.113 96.762-13.154 20.38 34.397-10.774 143.499-82.85a1.951 1.951 0 0 0 1.877-.02c.112-.053 22.132-12.772 22.132-12.772a2.322 2.322 0 0 0 .715-.594l1.588-2.264 8.245-4.759a12.208 12.208 0 0 0 5.724-10.282 12.06 12.06 0 0 0-12.067-12.058Z" style="mix-blend-mode:multiply" fill="url(#av)"></path><path fill="url(#aw)" d="M1011.198 895.97a10.812 10.812 0 0 0-5.59 1.405l-7.883 4.552a10.307 10.307 0 0 1 2.177.946c5.382 3.114 9.741 10.663 9.741 16.875a9.362 9.362 0 0 1-.637 3.486l8.53-4.924a12.186 12.186 0 0 0 5.724-10.282 12.062 12.062 0 0 0-12.062-12.058Z"></path><path fill="url(#ax)" d="M815.655 1017.138a6.973 6.973 0 0 1 3.152 5.464c0 1.216-.531 1.988-1.323 2.182l21.992-3.215 4.706-6.69-4.706-12.116-9.394-5.426-16.904 19.79a2.041 2.041 0 0 1 2.477.01Z"></path><path fill="url(#ay)" d="M815.655 1017.138a2.041 2.041 0 0 0-2.477-.01l-.26.3-7.83 9.17 12.169-1.786.227-.028c.792-.194 1.323-.966 1.323-2.182a6.973 6.973 0 0 0-3.152-5.464Z"></path><path fill="#cee3f8" d="M975.308 934.292a5.78 5.78 0 0 1-2.138-2.486l-3.813-9.833a3.617 3.617 0 0 1 .377-3.036l3.663-5.222a1.951 1.951 0 0 1 2.506-.56l7.665 4.421a5.749 5.749 0 0 1 2.128 2.495l3.814 9.829a3.623 3.623 0 0 1-.372 3.045l-3.659 5.218a1.95 1.95 0 0 1-2.505.555Z" class="colorced3f8 svgShape"></path><path fill="#fc06cf" d="m988.839 931.362-144.657 83.517-4.706-12.116 144.661-83.512 4.702 12.111z" class="colorfcba06 svgShape"></path><path fill="#dc00b4" d="m984.137 938.052-144.661 83.517 4.706-6.69 144.657-83.517-4.702 6.69z" class="colordc8b00 svgShape"></path><path fill="#3e9eff" d="m984.137 919.251-144.661 83.512-9.394-5.426 144.657-83.516 9.398 5.43z" class="colorffd03e svgShape"></path><path fill="url(#az)" d="m1011.738 917.064-3.809-9.823a5.768 5.768 0 0 0-2.138-2.495l-7.655-4.422a1.945 1.945 0 0 0-1.868.02c-.15.067-22.127 12.762-22.127 12.762a2.031 2.031 0 0 1 1.762.049l7.665 4.421a5.749 5.749 0 0 1 2.128 2.495l3.814 9.829a3.623 3.623 0 0 1-.372 3.045l-3.659 5.218a2.003 2.003 0 0 1-.507.483l22.026-12.714a2.209 2.209 0 0 0 .704-.604l3.67-5.213a3.667 3.667 0 0 0 .366-3.05Z"></path><path d="M988.187 936.788a1.777 1.777 0 0 0 .503-.483l3.663-5.213a3.62 3.62 0 0 0 .367-3.046l-3.809-9.823a5.708 5.708 0 0 0-2.133-2.496l-7.66-4.416a1.89 1.89 0 0 0-1.738-.04c-.034-.018-1.603.889-1.603.889a2.015 2.015 0 0 1 1.762.058l7.665 4.417a5.793 5.793 0 0 1 2.133 2.495l3.809 9.828a3.641 3.641 0 0 1-.367 3.041l-3.668 5.223a1.913 1.913 0 0 1-.502.483Z" style="mix-blend-mode:multiply" fill="url(#j)"></path><path d="M991.503 934.867a1.735 1.735 0 0 0 .512-.483l3.654-5.214a3.594 3.594 0 0 0 .372-3.04l-3.809-9.833a5.816 5.816 0 0 0-2.133-2.491l-7.66-4.417a1.912 1.912 0 0 0-1.743-.038c-.024-.02-1.603.893-1.603.893a2.014 2.014 0 0 1 1.762.053l7.665 4.421a5.788 5.788 0 0 1 2.139 2.491l3.813 9.828a3.636 3.636 0 0 1-.377 3.05l-3.663 5.214a1.73 1.73 0 0 1-.507.482Z" style="mix-blend-mode:multiply" fill="url(#aA)"></path><path d="M994.824 932.955a1.781 1.781 0 0 0 .507-.483L999 927.26a3.672 3.672 0 0 0 .371-3.05l-3.813-9.829a5.85 5.85 0 0 0-2.138-2.49l-7.66-4.422a1.904 1.904 0 0 0-1.739-.038c-.023-.015-1.607.897-1.607.897a2.036 2.036 0 0 1 1.771.054l7.656 4.426a5.708 5.708 0 0 1 2.139 2.481l3.813 9.838a3.63 3.63 0 0 1-.372 3.04l-3.663 5.219a1.842 1.842 0 0 1-.507.478Z" style="mix-blend-mode:multiply" fill="url(#aB)"></path><path d="M1127.979 1035.662c-9.57-5.528-23.006-7.468-35.324-5.86-12.32-1.608-25.755.332-35.325 5.86l-55.974 32.317c-11.164 6.446-13.921 15.934-8.28 23.883a57.873 57.873 0 0 0-8.126 3.757l-55.982 32.317c-7.817 4.515-8.099 8.571-2.335 11.415l-.06.009 16.275 9.211c.123.078.264.155.396.228l.272.154.028-.014c5.06 2.653 15.238 4.292 29.592 4.292 29.665 0 65.866-6.963 80.696-15.53l55.978-32.317c7.79-4.497 8.099-8.539 2.399-11.378l.058-.009-14.626-7.953-.018.027a7.874 7.874 0 0 0-1.322-1.059l31.683-18.29c14.83-8.563 14.83-22.498-.005-31.06Zm-115.249 92.274c-7.54 4.356-25 7.958-40.557 8.558l53.848-31.092a66.115 66.115 0 0 0 10.66-.504 65.948 65.948 0 0 0 15.666.168Zm86.483-68.096-35.12 20.276c-3.084.032-6.223.141-9.402.309-.95.005-2.053.054-3.398.177-7.585.686-18.36 1.835-27.34 3.225-.145-3.239 1.904-6.5 6.169-8.962l55.978-32.322a25.307 25.307 0 0 1 6.555-2.544 25.311 25.311 0 0 1 6.553 2.544c8.263 4.77 8.263 12.527.005 17.297Z" style="mix-blend-mode:multiply" fill="url(#aC)"></path><path fill="#f6f8fb" d="M996.496 1070.741c-14.83-8.562-14.83-22.498 0-31.06l55.978-32.317c14.835-8.567 38.967-8.567 53.803 0 14.83 8.567 14.83 22.497 0 31.06l-55.979 32.317c-14.834 8.567-38.967 8.567-53.802 0Zm11.919-24.178c-8.258 4.77-8.258 12.527 0 17.297 8.262 4.77 21.702 4.77 29.96 0l55.978-32.318c8.263-4.77 8.263-12.527 0-17.297-8.258-4.769-21.698-4.769-29.955 0Z" class="colorf6f6fb svgShape"></path><path fill="#e100b8" d="M1117.386 1022.73h.01v.09c0-.03-.01-.062-.01-.09Z" class="colore19100 svgShape"></path><path fill="url(#aD)" d="m1008.415 1046.563 55.983-32.318c8.257-4.769 21.697-4.769 29.955 0 7.308 4.22 8.135 10.774 2.52 15.53a16.887 16.887 0 0 0-2.52-1.767c-8.258-4.769-21.698-4.769-29.955 0l-55.983 32.318a17.213 17.213 0 0 0-2.521 1.767c-5.614-4.76-4.783-11.315 2.52-15.53Z"></path><path fill="url(#aE)" d="M996.496 1070.741c14.835 8.567 38.972 8.567 53.802 0l55.979-32.318c7.38-4.26 11.082-9.856 11.119-15.457v13.241h-.037c.209 5.773-3.47 11.582-11.082 15.98l-55.979 32.321c-14.83 8.562-38.967 8.562-53.802-.004-7.576-4.374-11.26-10.152-11.092-15.898h-.032v-13.395c0 5.624 3.707 11.247 11.124 15.53Z"></path><path fill="url(#aF)" d="m934.314 1068.702 55.977-32.322c7.559-4.361 14.386-4.674 19.278-1.681l.013-.01 10.852 6.287-.037.027c-4.792-2.33-11.17-1.794-18.187 2.258l-55.977 32.322c-14.83 8.562-26.9 29.46-26.9 46.59 0 8.352 2.885 14.262 7.546 17.155l-.005.032-11.351-6.555v-.013c-4.997-2.757-8.108-8.816-8.108-17.501 0-17.129 12.069-38.027 26.899-46.59Z"></path><path fill="#ff5ae1" d="M1005.104 1061.348a16.081 16.081 0 0 0 3.31 2.512 27.089 27.089 0 0 0 8.731 2.975c.018-.386.05-.777.05-1.158 0-8.44-5.264-12.433-12.191-9.948a16.972 16.972 0 0 1 .268 3.066 22.34 22.34 0 0 1-.168 2.553Zm-73.579 57c1.308 7.249 7.4 9.81 14.708 5.591l38.017-21.948 17.96-10.37a24.237 24.237 0 0 0 4.097-3.038 44.308 44.308 0 0 1-9.81-4.08 30.385 30.385 0 0 1-3.026-1.997 23.444 23.444 0 0 1-3.18 2.234l-55.977 32.318a17.035 17.035 0 0 1-2.789 1.29Z" class="colorff5a72 svgShape"></path><path fill="#a50b89" d="m946.233 1075.583 55.977-32.322c14.835-8.562 26.899-1.594 26.899 15.534a42.786 42.786 0 0 1-.886 8.285 36.068 36.068 0 0 1-11.078-.245c.018-.386.05-.777.05-1.158 0-9.54-6.722-13.418-14.985-8.649l-55.977 32.318c-8.258 4.769-14.976 16.406-14.976 25.945 0 9.534 6.718 13.417 14.976 8.648l55.977-32.318a24.237 24.237 0 0 0 4.097-3.038 59.688 59.688 0 0 0 11.442 2.08 51.47 51.47 0 0 1-15.539 14.721l-55.977 32.318c-14.83 8.566-26.9 1.599-26.9-15.53 0-17.128 12.07-38.027 26.9-46.589Z" class="colorbc3153 svgShape"></path><path d="M1407.751 420.074c-4.343-6.121-10.806-11.852-19.412-16.82-30.942-17.865-79.01-19.795-113.681-5.816l-14.818 3.51a95.383 95.383 0 0 0-12.045 5.815c-17.355 10.021-26.037 23.156-26.037 36.292 0 13.14 8.682 26.272 26.037 36.295 34.72 20.044 91.012 20.044 125.73 0 16.32-9.424 24.967-21.6 25.939-33.939.59-7.404-1.594-14.868-6.527-21.833Z" style="mix-blend-mode:multiply" fill="url(#aG)"></path><path fill="#857dfb" d="m1242.96 367.103 50.815 42.107 62.867-36.293c-30.942-17.864-79.013-19.795-113.681-5.814Z" class="color807dfb svgShape"></path><path fill="#ff5ae1" d="m1356.642 372.917-62.867 36.293 82.274-19.474c-4.339-6.122-10.802-11.85-19.407-16.82Z" class="colorff5a72 svgShape"></path><path fill="#f6f8fb" d="m1293.775 425.19-50.814-42.108a95.56 95.56 0 0 0-12.045 5.814c-17.358 10.024-26.043 23.158-26.043 36.294 0 13.14 8.685 26.27 26.043 36.297 34.718 20.046 91.008 20.046 125.726 0 16.324-9.425 24.968-21.602 25.942-33.943.59-7.404-1.596-14.866-6.535-21.83Z" class="colorf6f6fb svgShape"></path><path fill="url(#aH)" d="M1382.584 427.544c-.971 12.341-9.618 24.518-25.942 33.943-34.718 20.046-91.008 20.044-125.726 0-16.325-9.425-24.966-21.602-25.945-33.943h-.098v15.516c0 13.135 8.685 26.27 26.043 36.29 34.718 20.044 91.008 20.044 125.726 0 16.324-9.423 24.97-21.6 25.942-33.937a30.146 30.146 0 0 0 0-4.242Z"></path><path fill="#a50b89" d="m1376.049 405.714-82.274 19.476v-15.98l82.274-19.474v15.978z" class="colorbc3153 svgShape"></path><path fill="#5046e4" d="m1293.775 425.19-50.814-42.108v-15.979l50.814 42.107v15.98z" class="color5652cc svgShape"></path><path d="M1379.158 410.873a39.133 39.133 0 0 0-3.109-5.16l-82.274 19.477h25.26Z" style="mix-blend-mode:multiply" fill="url(#aI)"></path><path style="mix-blend-mode:multiply" fill="url(#aJ)" d="M525.292 1066.391h-78.259l48.925 29.121-48.925 28.248h78.259l49.672-28.673-49.672-28.696z"></path><path fill="#b9cee4" d="m447.033 1123.76 48.925-28.248v-57.369l-48.925 28.248v57.369z" class="colorb9bee4 svgShape"></path><path fill="#cce1f6" d="m447.033 1123.76-48.935-28.248v-57.369l48.935 28.248v57.369z" class="colorccd1f6 svgShape"></path><path fill="#f6f8fb" d="m447.033 1066.391-48.935-28.248 48.935-28.234 48.925 28.234-48.925 28.248z" class="colorf6f6fb svgShape"></path><path style="mix-blend-mode:multiply" fill="url(#aK)" d="M1290.744 1054.753h-43.301l27.07 16.114-27.07 15.629h43.301l27.484-15.865-27.484-15.878z"></path><path fill="#b9cee4" d="m1247.443 1086.496 27.07-15.629v-31.743l-27.07 15.629v31.743z" class="colorb9bee4 svgShape"></path><path fill="#cce1f6" d="m1247.443 1086.496-27.076-15.629v-31.743l27.076 15.629v31.743z" class="colorccd1f6 svgShape"></path><path fill="#f6f8fb" d="m1247.443 1054.753-27.076-15.629 27.076-15.621 27.07 15.621-27.07 15.629z" class="colorf6f6fb svgShape"></path><path style="mix-blend-mode:multiply" fill="url(#aL)" d="M1268.029 234.52h-43.301l27.071 16.114-27.071 15.629h43.301l27.484-15.865-27.484-15.878z"></path><path fill="#b9cee4" d="m1224.728 266.263 27.071-15.629v-31.743l-27.071 15.629v31.743z" class="colorb9bee4 svgShape"></path><path fill="#cce1f6" d="m1224.728 266.263-27.076-15.629v-31.743l27.076 15.629v31.743z" class="colorccd1f6 svgShape"></path><path fill="#f6f8fb" d="m1224.728 234.52-27.076-15.629 27.076-15.622 27.071 15.622-27.071 15.629z" class="colorf6f6fb svgShape"></path></g></g></g></svg>