<svg xmlns="http://www.w3.org/2000/svg" xmlns:xlink="http://www.w3.org/1999/xlink" viewBox="0 0 1661.298 1475.426" id="Businessdataanalysisteam,financialforecast,statisticalmarketresearch"><defs><linearGradient id="a" x1="675.612" x2="738.556" y1="603.393" y2="603.393" gradientTransform="translate(475.166)" gradientUnits="userSpaceOnUse"><stop offset=".427" stop-color="#c4d4e4" class="stopColorc4c9e4 svgShape"></stop><stop offset=".577" stop-color="#d7e2ed" class="stopColord7daed svgShape"></stop><stop offset=".846" stop-color="#f4f6f8" class="stopColorf4f5fa svgShape"></stop><stop offset="1" stop-color="#ffffff" class="stopColorffffff svgShape"></stop></linearGradient><linearGradient id="o" x1="662.719" x2="722.212" y1="606.058" y2="606.058" gradientTransform="translate(475.166)" gradientUnits="userSpaceOnUse"><stop offset="0" stop-color="#cee3f8" class="stopColorced3f8 svgShape"></stop><stop offset="1" stop-color="#a9d4ff" class="stopColora9a9ff svgShape"></stop></linearGradient><linearGradient id="p" x1="488.144" x2="547.634" y1="746.229" y2="746.229" xlink:href="#a"></linearGradient><linearGradient id="q" x1="475.029" x2="534.549" y1="749.751" y2="749.751" gradientUnits="userSpaceOnUse"><stop offset="0" stop-color="#857dfb" class="stopColor807dfb svgShape"></stop><stop offset=".014" stop-color="#847cfa" class="stopColor7f7cfa svgShape"></stop><stop offset=".448" stop-color="#625ad1" class="stopColor5e5ad1 svgShape"></stop><stop offset=".792" stop-color="#4d46b8" class="stopColor4a46b8 svgShape"></stop><stop offset="1" stop-color="#7c3eaf" class="stopColor423eaf svgShape"></stop></linearGradient><linearGradient id="b" x1="546.306" x2="655.266" y1="930.256" y2="741.531" gradientUnits="userSpaceOnUse"><stop offset="0" stop-color="#c4d6e9" class="stopColorc4cae9 svgShape"></stop><stop offset=".217" stop-color="#d4e1ef" class="stopColord4d9ef svgShape"></stop><stop offset=".833" stop-color="#ffffff" class="stopColorffffff svgShape"></stop></linearGradient><linearGradient id="r" x1="823.101" x2="886.668" y1="775.225" y2="665.124" xlink:href="#b"></linearGradient><linearGradient id="s" x1="540.688" x2="866.036" y1="927.013" y2="363.494" gradientUnits="userSpaceOnUse"><stop offset="0" stop-color="#fb4bdb" class="stopColorfb944b svgShape"></stop><stop offset=".362" stop-color="#6bb5ff" class="stopColorffae6b svgShape"></stop><stop offset=".378" stop-color="#6db6ff" class="stopColorffaf6d svgShape"></stop><stop offset=".402" stop-color="#fb4bdb" class="stopColorfb944b svgShape"></stop><stop offset=".41" stop-color="#62b0fe" class="stopColorfea662 svgShape"></stop><stop offset=".416" stop-color="#6db6ff" class="stopColorffaf6d svgShape"></stop><stop offset=".434" stop-color="#63b0fe" class="stopColorfea763 svgShape"></stop><stop offset=".46" stop-color="#fb4bdb" class="stopColorfb944b svgShape"></stop><stop offset="1" stop-color="#6db6ff" class="stopColorffaf6d svgShape"></stop></linearGradient><linearGradient id="c" x1="585.566" x2="842.64" y1="945.482" y2="945.482" gradientUnits="userSpaceOnUse"><stop offset="0" stop-color="#c4d6e9" class="stopColorc4cae9 svgShape"></stop><stop offset=".444" stop-color="#e5edf5" class="stopColore5e8f5 svgShape"></stop><stop offset=".853" stop-color="#ffffff" class="stopColorffffff svgShape"></stop></linearGradient><linearGradient id="t" x1="760.439" x2="1001.288" y1="848.935" y2="848.935" xlink:href="#c"></linearGradient><linearGradient id="u" x1="970.879" x2="1155.345" y1="728.403" y2="728.403" xlink:href="#c"></linearGradient><linearGradient id="d" x1="607.217" x2="706.938" y1="965.423" y2="792.701" gradientUnits="userSpaceOnUse"><stop offset="0" stop-color="#5a52cc" class="stopColor5652cc svgShape"></stop><stop offset=".909" stop-color="#857dfb" class="stopColor807dfb svgShape"></stop></linearGradient><linearGradient id="e" x1="746.014" x2="761.959" y1="852.094" y2="824.476" gradientUnits="userSpaceOnUse"><stop offset="0" stop-color="#662e94" class="stopColor362e94 svgShape"></stop><stop offset=".055" stop-color="#6b329b" class="stopColor39329b svgShape"></stop><stop offset=".204" stop-color="#6822a2" class="stopColor3e39a6 svgShape"></stop><stop offset=".415" stop-color="#7a3dad" class="stopColor413dad svgShape"></stop><stop offset="1" stop-color="#7c3eaf" class="stopColor423eaf svgShape"></stop></linearGradient><linearGradient id="v" x1="767.087" x2="894.342" y1="864.261" y2="643.848" xlink:href="#d"></linearGradient><linearGradient id="w" x1="937.273" x2="960.663" y1="722.708" y2="682.195" xlink:href="#e"></linearGradient><linearGradient id="x" x1="962.425" x2="1106.577" y1="737.229" y2="487.551" gradientUnits="userSpaceOnUse"><stop offset="0" stop-color="#857dfb" class="stopColor807dfb svgShape"></stop><stop offset=".03" stop-color="#847cf9" class="stopColor7f7cf9 svgShape"></stop><stop offset="1" stop-color="#5a52cc" class="stopColor5652cc svgShape"></stop></linearGradient><linearGradient id="y" x1="718.488" x2="936.81" y1="1012.672" y2="1012.672" xlink:href="#c"></linearGradient><linearGradient id="z" x1="902.828" x2="1159.216" y1="904.861" y2="904.861" xlink:href="#c"></linearGradient><linearGradient id="A" x1="1112.556" x2="1358.04" y1="783.604" y2="783.604" xlink:href="#c"></linearGradient><linearGradient id="B" x1="767.811" x2="855.255" y1="1058.142" y2="906.685" gradientUnits="userSpaceOnUse"><stop offset="0" stop-color="#fb4bdb" class="stopColorfb944b svgShape"></stop><stop offset=".941" stop-color="#6db6ff" class="stopColorffaf6d svgShape"></stop></linearGradient><linearGradient id="C" x1="937.758" x2="1050.523" y1="955.228" y2="759.914" gradientUnits="userSpaceOnUse"><stop offset="0" stop-color="#e539c6" class="stopColore57139 svgShape"></stop><stop offset=".067" stop-color="#ef41cf" class="stopColoref8041 svgShape"></stop><stop offset=".157" stop-color="#f848d8" class="stopColorf88f48 svgShape"></stop><stop offset=".234" stop-color="#fb4bdb" class="stopColorfb944b svgShape"></stop><stop offset=".934" stop-color="#6db6ff" class="stopColorffaf6d svgShape"></stop></linearGradient><linearGradient id="D" x1="1109.312" x2="1115.489" y1="808.124" y2="797.424" gradientUnits="userSpaceOnUse"><stop offset="0" stop-color="#a50b89" class="stopColorc85a2b svgShape"></stop><stop offset=".068" stop-color="#d12fb4" class="stopColord1612f svgShape"></stop><stop offset=".216" stop-color="#dc35be" class="stopColordc6a35 svgShape"></stop><stop offset=".423" stop-color="#e338c4" class="stopColore37038 svgShape"></stop><stop offset="1" stop-color="#e539c6" class="stopColore57139 svgShape"></stop></linearGradient><linearGradient id="E" x1="1158.382" x2="1304.816" y1="836.455" y2="582.822" gradientUnits="userSpaceOnUse"><stop offset="0" stop-color="#fb4bdb" class="stopColorfb944b svgShape"></stop><stop offset=".165" stop-color="#fc53dd" class="stopColorfc9a53 svgShape"></stop><stop offset=".658" stop-color="#66b2fe" class="stopColorfeaa66 svgShape"></stop><stop offset="1" stop-color="#6db6ff" class="stopColorffaf6d svgShape"></stop></linearGradient><linearGradient id="f" x1="844.536" x2="1003.483" y1="341.267" y2="65.963" gradientTransform="matrix(.866 .5 0 1.1547 84.005 -391.428)" gradientUnits="userSpaceOnUse"><stop offset="0" stop-color="#7c3eaf" class="stopColor423eaf svgShape"></stop><stop offset=".173" stop-color="#544dc2" class="stopColor514dc2 svgShape"></stop><stop offset=".513" stop-color="#6f67e1" class="stopColor6b67e1 svgShape"></stop><stop offset=".801" stop-color="#7f77f4" class="stopColor7a77f4 svgShape"></stop><stop offset="1" stop-color="#857dfb" class="stopColor807dfb svgShape"></stop></linearGradient><linearGradient id="F" x1="1051.541" x2="1210.488" y1="288.986" y2="13.683" gradientTransform="matrix(.866 .5 0 1.1547 84.005 -391.428)" gradientUnits="userSpaceOnUse"><stop offset="0" stop-color="#7c3eaf" class="stopColor423eaf svgShape"></stop><stop offset=".253" stop-color="#7f58a0" class="stopColor6e58a0 svgShape"></stop><stop offset=".823" stop-color="#dc79ca" class="stopColordc9a79 svgShape"></stop><stop offset="1" stop-color="#6db6ff" class="stopColorffaf6d svgShape"></stop></linearGradient><linearGradient id="G" x1="1324.852" x2="1483.799" y1="320.138" y2="44.834" xlink:href="#f"></linearGradient><linearGradient id="H" x1="151.647" x2="266.936" y1="1200.214" y2="1200.214" gradientUnits="userSpaceOnUse"><stop offset=".453" stop-color="#c4d4e4" class="stopColorc4c9e4 svgShape"></stop><stop offset="1" stop-color="#ffffff" class="stopColorffffff svgShape"></stop></linearGradient><linearGradient id="g" x1="125.234" x2="238.157" y1="1209.232" y2="1209.232" gradientUnits="userSpaceOnUse"><stop offset="0" stop-color="#fb4bdb" class="stopColorfb944b svgShape"></stop><stop offset="1" stop-color="#e539c6" class="stopColore57139 svgShape"></stop></linearGradient><linearGradient id="I" x1="135.84" x2="227.551" y1="1172.435" y2="1172.435" xlink:href="#g"></linearGradient><linearGradient id="J" x1="164.272" x2="189.054" y1="1196.354" y2="1196.354" xlink:href="#g"></linearGradient><linearGradient id="h" x1="1206.461" x2="1326.054" y1="1010.556" y2="1010.556" gradientUnits="userSpaceOnUse"><stop offset="0" stop-color="#c6d6e7" class="stopColorc6cbe7 svgShape"></stop><stop offset=".258" stop-color="#cfddeb" class="stopColorcfd3eb svgShape"></stop><stop offset=".682" stop-color="#e8eef5" class="stopColore8eaf5 svgShape"></stop><stop offset="1" stop-color="#ffffff" class="stopColorffffff svgShape"></stop></linearGradient><linearGradient id="K" x1="1093.474" x2="1213.067" y1="1010.556" y2="1010.556" xlink:href="#h"></linearGradient><linearGradient id="L" x1="1092.22" x2="1306.004" y1="1029.772" y2="1029.772" gradientUnits="userSpaceOnUse"><stop offset="0" stop-color="#867ff4" class="stopColor7f7ff4 svgShape"></stop><stop offset=".108" stop-color="#7b74e6" class="stopColor7574e6 svgShape"></stop><stop offset=".513" stop-color="#5650b7" class="stopColor5250b7 svgShape"></stop><stop offset=".823" stop-color="#6e399a" class="stopColor3c399a svgShape"></stop><stop offset="1" stop-color="#64318f" class="stopColor34318f svgShape"></stop></linearGradient><linearGradient id="i" x1="1329.201" x2="1349.786" y1="1097.484" y2="1061.829" gradientUnits="userSpaceOnUse"><stop offset="0" stop-color="#7a41aa" class="stopColor4141aa svgShape"></stop><stop offset=".212" stop-color="#5049b3" class="stopColor4949b3 svgShape"></stop><stop offset=".563" stop-color="#655ecc" class="stopColor5e5ecc svgShape"></stop><stop offset="1" stop-color="#867ff4" class="stopColor7f7ff4 svgShape"></stop></linearGradient><linearGradient id="M" x1="1288.465" x2="1309.055" y1="1073.948" y2="1038.285" xlink:href="#h"></linearGradient><linearGradient id="N" x1="1381.173" x2="1415.259" y1="1124.25" y2="1104.57" xlink:href="#i"></linearGradient><linearGradient id="O" x1="227.865" x2="321.849" y1="1071.974" y2="1071.974" gradientTransform="translate(50.3)" gradientUnits="userSpaceOnUse"><stop offset="0" stop-color="#c4d6e9" class="stopColorc4cae9 svgShape"></stop><stop offset=".095" stop-color="#cedded" class="stopColorced3ed svgShape"></stop><stop offset=".409" stop-color="#e9f0f7" class="stopColore9ebf7 svgShape"></stop><stop offset=".687" stop-color="#f9fbfd" class="stopColorf9fafd svgShape"></stop><stop offset=".899" stop-color="#ffffff" class="stopColorffffff svgShape"></stop></linearGradient><linearGradient id="j" x1="931.677" x2="951.631" y1="1171.783" y2="1161.091" gradientTransform="rotate(-9.265 5.31 5101.296)" gradientUnits="userSpaceOnUse"><stop offset="0" stop-color="#7c3eaf" class="stopColor423eaf svgShape"></stop><stop offset=".488" stop-color="#612b8e" class="stopColor302b8e svgShape"></stop><stop offset="1" stop-color="#193f6f" class="stopColor20196f svgShape"></stop></linearGradient><linearGradient id="P" x1="913.599" x2="933.553" y1="1178.592" y2="1167.901" xlink:href="#j"></linearGradient><linearGradient id="Q" x1="274.904" x2="339.095" y1="922.917" y2="922.917" gradientTransform="matrix(-1 0 0 1 585.965 0)" gradientUnits="userSpaceOnUse"><stop offset="0" stop-color="#662e94" class="stopColor362e94 svgShape"></stop><stop offset="1" stop-color="#6f67e9" class="stopColor6b67e9 svgShape"></stop></linearGradient><linearGradient id="k" x1="750.618" x2="839.028" y1="1185.179" y2="1185.179" gradientTransform="translate(-228.072)" gradientUnits="userSpaceOnUse"><stop offset="0" stop-color="#c4d6e8" class="stopColorc4cae8 svgShape"></stop><stop offset=".095" stop-color="#ceddec" class="stopColorced3ec svgShape"></stop><stop offset=".409" stop-color="#e9eff6" class="stopColore9ebf6 svgShape"></stop><stop offset=".687" stop-color="#f9fbfd" class="stopColorf9fafd svgShape"></stop><stop offset=".899" stop-color="#ffffff" class="stopColorffffff svgShape"></stop></linearGradient><linearGradient id="R" x1="668.269" x2="756.669" y1="1161.731" y2="1161.731" gradientTransform="translate(-186.014)" xlink:href="#k"></linearGradient><linearGradient id="l" x1="-1186.463" x2="-1153.875" y1="1158.61" y2="1158.61" gradientTransform="matrix(-1 0 0 1 -680.951 0)" gradientUnits="userSpaceOnUse"><stop offset="0" stop-color="#7c3eaf" class="stopColor423eaf svgShape"></stop><stop offset=".304" stop-color="#7035a0" class="stopColor3a35a0 svgShape"></stop><stop offset=".891" stop-color="#1e4577" class="stopColor241e77 svgShape"></stop><stop offset="1" stop-color="#193f6f" class="stopColor1f196f svgShape"></stop></linearGradient><linearGradient id="S" x1="-1226.757" x2="-1194.171" y1="1182.062" y2="1182.062" xlink:href="#l"></linearGradient><linearGradient id="m" x1="-1212.604" x2="-1156.582" y1="1104.2" y2="1104.2" gradientTransform="matrix(-1 0 0 1 -680.951 0)" gradientUnits="userSpaceOnUse"><stop offset="0" stop-color="#7c3eaf" class="stopColor423eaf svgShape"></stop><stop offset=".301" stop-color="#683097" class="stopColor353097 svgShape"></stop><stop offset=".746" stop-color="#1f477a" class="stopColor251f7a svgShape"></stop><stop offset="1" stop-color="#193f6f" class="stopColor1f196f svgShape"></stop></linearGradient><linearGradient id="T" x1="-1214.77" x2="-1156.252" y1="1003.661" y2="1003.661" gradientTransform="matrix(-1 0 0 1 -680.951 0)" gradientUnits="userSpaceOnUse"><stop offset="0" stop-color="#e539c6" class="stopColore57139 svgShape"></stop><stop offset=".252" stop-color="#e942cb" class="stopColore97b42 svgShape"></stop><stop offset=".685" stop-color="#f559d9" class="stopColorf59759 svgShape"></stop><stop offset="1" stop-color="#6db6ff" class="stopColorffaf6d svgShape"></stop></linearGradient><linearGradient id="U" x1="2442.592" x2="2390.628" y1="1024.401" y2="1006.124" gradientTransform="translate(-1883.4)" gradientUnits="userSpaceOnUse"><stop offset="0" stop-color="#6db6ff" class="stopColorffaf6d svgShape"></stop><stop offset="1" stop-color="#fb4bdb" class="stopColorfb944b svgShape"></stop></linearGradient><linearGradient id="V" x1="612.826" x2="701.236" y1="1155.06" y2="1155.06" xlink:href="#k"></linearGradient><linearGradient id="W" x1="530.876" x2="619.276" y1="1140.843" y2="1140.843" gradientTransform="translate(-186.014)" xlink:href="#k"></linearGradient><linearGradient id="X" x1="-1049.07" x2="-1016.482" y1="1137.721" y2="1137.721" xlink:href="#l"></linearGradient><linearGradient id="Y" x1="-1088.965" x2="-1056.379" y1="1151.943" y2="1151.943" xlink:href="#l"></linearGradient><linearGradient id="Z" x1="-1074.812" x2="-1018.79" y1="1074.081" y2="1074.081" xlink:href="#m"></linearGradient><linearGradient id="n" x1="325.748" x2="353.983" y1="964.03" y2="964.03" gradientUnits="userSpaceOnUse"><stop offset="0" stop-color="#cee3f8" class="stopColorced3f8 svgShape"></stop><stop offset="1" stop-color="#bbd0e6" class="stopColorbbc0e6 svgShape"></stop></linearGradient><linearGradient id="aa" x1="337.134" x2="447.327" y1="966.132" y2="966.132" gradientUnits="userSpaceOnUse"><stop offset="0" stop-color="#f6f8fb" class="stopColorf6f6fb svgShape"></stop><stop offset=".289" stop-color="#e1eaf3" class="stopColore1e3f3 svgShape"></stop><stop offset=".738" stop-color="#c5d7ea" class="stopColorc5c9ea svgShape"></stop><stop offset="1" stop-color="#bbd0e6" class="stopColorbbc0e6 svgShape"></stop></linearGradient><linearGradient id="ab" x1="354.914" x2="380.162" y1="927.83" y2="927.83" xlink:href="#n"></linearGradient></defs><g style="isolation:isolate" fill="#f4f6f8" class="color000000 svgShape"><g fill="#f4f6f8" class="color000000 svgShape"><g data-name="Isometric pie charts" fill="#f4f6f8" class="color000000 svgShape"><path fill="#bbd0e6" d="M311.89866,616.94015l.343.1978.0078-.0142C312.13346,617.061,312.01387,617.00453,311.89866,616.94015Z" class="colorbbc0e6 svgShape"></path><path fill="#5046e4" d="M391.98106,475.18975l-39.6928,71.0576v-66.4886c-31.80139,18.3602-57.5812,63.0124-57.5812,99.733s25.77981,51.6044,57.5812,33.244c31.801-18.3604,57.581-63.0124,57.581-99.733C409.86926,494.05535,402.99406,480.94215,391.98106,475.18975Z" class="color5652cc svgShape"></path><path fill="#e539c6" d="M391.98106,475.18975c-10.3306-5.396-24.3008-4.3178-39.6928,4.569v66.4886Z" class="colore57139 svgShape"></path><path fill="#857dfb" d="M345.97826,476.11575c-31.8012,18.3604-57.581,63.0124-57.581,99.733,0,18.09578,6.269,30.8744,16.42561,36.999l-.005.00878.21119.12182q.2403.1422.4836.279l5.75521,3.319c-10.23741-6.09182-16.56081-18.9074-16.56081-37.0846,0-36.7206,25.77981-81.3728,57.5812-99.733l-6.31-3.643Z" class="color807dfb svgShape"></path><path fill="#6db6ff" d="M386.75806,472.12253c-10.42519-6.05718-24.846-5.20618-40.7798,3.99322l6.31,3.643c15.46561-8.92922,29.496-9.9758,39.8408-4.4916l.0096-.0172Z" class="colorffaf6d svgShape"></path><path fill="#cee3f8" d="M517.88946,384.14875c-31.8012,18.3602-57.5812,63.0124-57.5812,99.733s25.78,51.6044,57.5812,33.2442c16.59541-9.5816,31.54141-26.3286,42.04941-45.3662l-42.04941-21.1224Z" class="colorced3f8 svgShape"></path><path fill="#e539c6" d="M517.88946,384.14875v66.4886l42.04941,21.1224c9.62778-17.4434,15.53178-36.80922,15.53178-54.367C575.47065,380.67215,549.69066,365.78815,517.88946,384.14875Z" class="colore57139 svgShape"></path><path fill="#bbd0e6" d="M453.99866,480.23875c0,18.096,6.269,30.8744,16.4256,36.999l-.005.00878.2112.122q.2403.14193.4836.27882l5.7552,3.319c-10.23739-6.09182-16.5608-18.9074-16.5608-37.0846,0-36.7206,25.7796-81.3726,57.581-99.733l-6.3098-3.643C479.77846,398.86615,453.99866,443.51815,453.99866,480.23875Z" class="colorbbc0e6 svgShape"></path><path fill="#6db6ff" d="M552.35946,376.51253c-10.4252-6.05718-24.846-5.20618-40.7798,3.99322h0l6.3098,3.643h0c15.4658-8.92922,29.4962-9.9756,39.841-4.4916l.0096-.017Z" class="colorffaf6d svgShape"></path><path fill="#cee3f8" d="M683.49087,355.02735v-66.4886c-31.80122,18.3604-57.58122,63.0124-57.58122,99.733,0,36.72078,25.78,51.6046,57.58122,33.2442,31.801-18.3606,57.58118-63.01242,57.58118-99.7332a65.95819,65.95819,0,0,0-1.1226-12.4448Z" class="colorced3f8 svgShape"></path><path fill="#5046e4" d="M683.49087,288.53875v66.4886l50.647-60.878C724.39587,279.019,705.372,275.90553,683.49087,288.53875Z" class="color5652cc svgShape"></path><path fill="#662e94" d="M683.49087,355.02735l56.45858-45.6894a42.80771,42.80771,0,0,0-5.81158-15.1886Z" class="color362e94 svgShape"></path><path fill="#bbd0e6" d="M677.18087,284.89575c-31.801,18.3604-57.581,63.0126-57.581,99.733,0,18.096,6.269,30.8746,16.42558,36.999l-.005.00878.2112.122q.24033.14193.4838.27882l5.755,3.319c-10.2374-6.09182-16.5608-18.9074-16.5608-37.0846,0-36.7206,25.7798-81.3726,57.58122-99.733h0l-6.30982-3.643Z" class="colorbbc0e6 svgShape"></path><path fill="#857dfb" d="M717.96065,280.90253c-10.4252-6.05718-24.84578-5.20618-40.7796,3.99322l6.30982,3.643c15.46578-8.92922,29.496-9.9756,39.84078-4.4916l.0096-.017Z" class="color807dfb svgShape"></path></g><g fill="#f4f6f8" class="color000000 svgShape"><rect width="1.999" height="519.606" x="661.328" y="662.381" fill="#e8eff7" transform="rotate(-60 662.327 922.184)" class="colore8ecf7 svgShape"></rect><rect width="1.999" height="519.604" x="727.663" y="624.083" fill="#e8eff7" transform="rotate(-60 728.662 883.885)" class="colore8ecf7 svgShape"></rect><rect width="1.999" height="519.606" x="793.998" y="585.784" fill="#e8eff7" transform="rotate(-60 794.997 845.587)" class="colore8ecf7 svgShape"></rect><rect width="1.999" height="519.604" x="860.332" y="547.486" fill="#e8eff7" transform="rotate(-60 861.332 807.288)" class="colore8ecf7 svgShape"></rect><rect width="1.999" height="519.604" x="926.666" y="509.188" fill="#e8eff7" transform="rotate(-60 927.666 768.99)" class="colore8ecf7 svgShape"></rect><rect width="1.999" height="519.604" x="993.002" y="470.89" fill="#e8eff7" transform="rotate(-60 994.002 730.692)" class="colore8ecf7 svgShape"></rect><rect width="1.999" height="519.604" x="1059.336" y="432.591" fill="#e8eff7" transform="rotate(-60 1060.336 692.393)" class="colore8ecf7 svgShape"></rect><rect width="1.999" height="519.604" x="1125.672" y="394.292" fill="#e8eff7" transform="rotate(-60 1126.672 654.094)" class="colore8ecf7 svgShape"></rect><rect width="1.999" height="519.604" x="1192.006" y="355.994" fill="#e8eff7" transform="rotate(-60 1193.006 615.796)" class="colore8ecf7 svgShape"></rect><path fill="#cee3f8" d="M1488.42347,703.92453l-51.2416,15.38621h20.1068l-622.0508,359.14039c-4.43282-1.4256-10.11622-1.0804-13.88222,1.094-4.549,2.6264-4.549,6.8846,0,9.511,4.54922,2.6264,11.9248,2.6264,16.4738,0,3.7666-2.1748,4.36442-5.4568,1.89342-8.0164l622.0508-359.14039v11.6094Z" class="colorced3f8 svgShape"></path></g><g data-name="+ symbol" fill="#f4f6f8" class="color000000 svgShape"><path d="M1204.94567,591.207c-6.2154-3.5896-14.48-5.24142-22.5958-4.9986h-16.207v2.083a33.72664,33.72664,0,0,0-6.7312,2.9156c-11.5684,6.72958-11.5004,17.6312.1392,24.3588a33.70907,33.70907,0,0,0,6.592,2.8554v2.179h18.7458c7.338-.1224,14.61-1.7892,20.1944-5.03062C1216.65307,608.83815,1216.59687,597.93653,1204.94567,591.207Z" style="mix-blend-mode:multiply" fill="url(#a)"></path><path fill="url(#o)" d="M1146.66427,615.55253c-5.8594-3.38658-8.7902-7.82558-8.7788-12.26318l.0264-11.7734c-.0114,4.4394,2.9154,8.8788,8.779,12.267,11.649,6.724,30.4738,6.724,42.0442.0038,5.75-3.3468,8.6278-7.7166,8.6428-12.0974l-.0262,11.7734c-.0152,4.3772-2.893,8.74878-8.6396,12.0936C1177.13847,622.282,1158.31327,622.282,1146.66427,615.55253Z"></path><path fill="#f6f8fb" d="M1146.69087,603.783c-11.6494-6.7258-11.7134-17.6312-.1434-24.355,11.5756-6.7258,30.4064-6.7258,42.05,0,11.653,6.7238,11.7094,17.6292.1376,24.3588C1177.16467,610.507,1158.33987,610.507,1146.69087,603.783Z" class="colorf6f6fb svgShape"></path><polygon fill="#bbd0e6" points="1179.549 596.688 1170.591 591.516 1179.549 586.344 1176.603 584.641 1167.644 589.813 1158.684 584.641 1155.737 586.342 1164.696 591.516 1155.737 596.688 1158.684 598.391 1167.644 593.217 1176.603 598.391 1179.549 596.688" class="colorbbc0e6 svgShape"></polygon></g><g data-name="Accept symbol" fill="#f4f6f8" class="color000000 svgShape"><path d="M538.85166,734.03734c-6.2186-3.58981-14.486-5.2434-22.605-5.0016h-12.7292v2.0852a33.70787,33.70787,0,0,0-6.734,2.9164c-11.5754,6.7328-11.5082,17.64019.1402,24.37119a33.71376,33.71376,0,0,0,6.5938,2.85761v2.17839h15.2676c7.3426-.122,14.6184-1.78839,20.2062-5.033C550.56806,751.67753,550.50906,740.77014,538.85166,734.03734Z" style="mix-blend-mode:multiply" fill="url(#p)"></path><path fill="url(#q)" d="M483.81126,758.41994c-5.8642-3.387-8.7958-7.83041-8.7826-12.269l.0258-10.1186c-.0114,4.4424,2.9156,8.885,8.7806,12.2738,11.65781,6.727,30.49,6.727,42.0672.0032,5.7532-3.3472,8.6332-7.71881,8.6472-12.1024l-.0272,10.1158c-.01139,4.3814-2.891,8.7532-8.64239,12.1002C514.30206,765.15294,495.46646,765.15294,483.81126,758.41994Z"></path><path fill="#f6f8fb" d="M483.83506,748.30614c-11.65219-6.7278-11.7166-17.6402-.14019-24.3672,11.58079-6.7298,30.41979-6.7298,42.071,0,11.65839,6.727,11.71319,17.6394.13639,24.3704C514.32506,755.03314,495.49287,755.03314,483.83506,748.30614Z" class="colorf6f6fb svgShape"></path><polygon fill="#bbd0e6" points="520.063 734.736 498.05 735.856 498.734 730.907 492.652 730.907 491.001 739.926 520.063 738.248 520.063 734.736" class="colorbbc0e6 svgShape"></polygon></g><g data-name="Back arrow" fill="#f4f6f8" class="color000000 svgShape"><path d="M710.10245,773.19114c-55.3964,29.1168-212.73039,81.74939-257.458,102.9898l38.8318,22.4194,52.085-21.2546c65.72839-25.1118,163.99161-59.987,205.36619-81.739Z" style="mix-blend-mode:multiply" fill="url(#b)"></path><path d="M945.63247,699.16774c-109.97422,8.0532-205.05082,13.3614-219.35982,19.1412l-.9696.4524,38.832,22.4196.9694-.45241c14.309-5.77979,109.38542-11.08739,219.36122-19.14039Z" style="mix-blend-mode:multiply" fill="url(#r)"></path><path fill="url(#s)" d="M895.85507,380.71015l-.012.0068c-12.1082-7.30142-27.41782-8.7538-47.3522,4.0538-81.842,52.5822-99.93582,320.566-123.18782,333.99059-23.2518,13.4246-40.459-23.12781-89.7786,6.0156s-144.96958,124.79359-182.88,151.404l38.8318,22.4194c37.9104-26.6102,133.56061-122.2604,182.88019-151.40381s66.5266,7.40881,89.7786-6.01559c23.25182-13.4246,41.3456-281.40841,123.18762-333.99079a62.89574,62.89574,0,0,1,17.8884-8.2202,41.00961,41.00961,0,0,1,8.6982-1.339,36.19205,36.19205,0,0,1,19.653,4.8494Z"></path><path fill="#e539c6" d="M962.08927,432.98975c-6.01-8.4066-18.4742-24.462-27.4144-29.85322-.1444-.08718-1.1126-.65618-1.1126-.65618a36.19205,36.19205,0,0,0-19.653-4.8494c1.4198,1.805,8.0454,11.1168,9.3482,12.9392v.0002l-11.728-6.7712,42.5278,70.7042,20.608-34.25282Z" class="colore57139 svgShape"></path></g><g data-name="Center arrow" fill="#f4f6f8" class="color000000 svgShape"><path d="M803.80787,915.62053c-72.53782,15.47361-178.17562,32.03961-218.24162,37.30261l38.8318,22.4196c40.066-5.26321,145.7036-21.82921,218.2416-37.3028Z" style="mix-blend-mode:multiply" fill="url(#c)"></path><path d="M962.45627,823.49074c-76.6438,7.7844-156.1904,13.727-190.19662,23.8016l-11.8196,4.6676-.0008.0004h-.0002l38.83182,22.4194.00038-.00021-.00038.00021h.00018l.0016-.0008,11.818-4.6668c34.0056-10.0748,113.553-16.0174,190.19742-23.8018Z" style="mix-blend-mode:multiply" fill="url(#t)"></path><path d="M1116.51107,703.92453c-66.8784,6.62161-126.6548,15.58181-145.6324,26.53841l38.8318,22.4194,11.647-4.9406c26.0282-8.7316,77.4714-15.9994,133.9872-21.5968Z" style="mix-blend-mode:multiply" fill="url(#u)"></path><path fill="url(#d)" d="M697.10665,787.03334c-4.15-2.5522-8.4486-3.035-13.00978-.3764-29.90362,17.4304-85.18842,132.4094-98.53062,166.2662l38.8318,22.4196c12.1876-30.9266,59.3684-129.5268,90.2364-159.6496.91342-.8912,1.81342-1.72761,2.6968-2.4954a37.56957,37.56957,0,0,1,5.59762-4.12121,11.591,11.591,0,0,1,12.21478-.08259Z"></path><path fill="url(#e)" d="M784.36887,874.23853c-7.22822-4.25959-13.82982-14.037-20.23382-24.843-1.16818-1.971-2.3298-3.97479-3.4874-5.98679-8.1344-14.1388-16.0746-28.601-24.7214-33.949-.1278-.079-.25538-.16021-.3836-.2354l-.399-.2304a11.591,11.591,0,0,0-12.21478.08259,37.56957,37.56957,0,0,0-5.59762,4.12121q1.5111,2.6031,3.0254,5.2514c8.05022,14.03339,16.2404,28.2862,25.4526,33.5266Z"></path><path fill="url(#v)" d="M885.86227,639.00853c-6.503-4.28218-13.47622-5.16558-21.21462-.69778-55.833,32.23519-62.413,171.046-96.9574,207.75839a36.5604,36.5604,0,0,1-3.5552,3.32639c6.404,10.806,13.0056,20.58341,20.23382,24.843l.27218.15661a13.753,13.753,0,0,0,14.62982-.0154c39.80218-22.9798,44.412-169.2926,98.5754-209.9124a56.37041,56.37041,0,0,1,5.6332-3.737c.235-.1356.4652-.239.6986-.36481,6.4018-3.45039,12.2836-3.26459,17.7978-.50679Z"></path><path fill="url(#w)" d="M989.08987,752.62394c-6.769-4.2082-12.9986-12.165-18.9928-21.7528-1.6448-2.6312-3.272-5.3844-4.8878-8.2174-13.1416-23.04221-25.5284-51.28821-40.5318-61.216-.0702-.0464-.1404-.09521-.2106-.1408l-2.491-1.4382c-5.5142-2.7578-11.396-2.9436-17.7978.50679,1.914,3.06541,3.804,6.29861,5.6806,9.62781,13.2922,23.5816,25.899,52.0134,41.3382,60.7508Z"></path><path fill="url(#x)" d="M1091.69787,548.22315l-31.568-87.4882-31.568,51.03658,11.1368,6.42982c0,36.9156-23.281,174.90318-63.4626,208.46159a38.31449,38.31449,0,0,1-5.3574,3.8c-.2628.1518-.5204.26859-.7816.4082,5.9942,9.5878,12.2238,17.5446,18.9928,21.7528,0,0,.8792.506.9388.53959,6.0546,3.42661,12.5424,3.84081,19.6818-.28119,43.4644-25.0942,68.82-173.73359,68.82-212.26139Z"></path></g><g data-name="Front arrow" fill="#f4f6f8" class="color000000 svgShape"><path d="M897.97867,973.25853c-42.62622,17.67561-118.235,38.67481-179.4908,56.40681l38.83178,22.4196c61.2558-17.732,136.86462-38.731,179.49062-56.4068Z" style="mix-blend-mode:multiply" fill="url(#y)"></path><path d="M1120.38427,864.06614c-69.9538,21.31739-178.5798,44.5296-210.5162,56.1322l-7.0376,3.037-.0018.001h-.0004l.0004-.0004-.0004.0004,38.8318,22.4194h.0002l.0012-.0006,7.0394-3.03761c31.9376-11.60279,140.562-34.81479,210.5152-56.13179Z" style="mix-blend-mode:multiply" fill="url(#z)"></path><path d="M1319.20027,742.63774c-73.9752,22.50879-166.8224,44.3916-198.108,55.8286l-8.5358,3.6834,38.8318,22.4196,8.5358-3.6834c31.2834-11.4362,124.1424-33.31741,198.1156-55.8242Z" style="mix-blend-mode:multiply" fill="url(#A)"></path><path fill="url(#B)" d="M865.74605,912.74274c-7.2566-4.18821-15.11718-6.7676-24.723-2.6436-33.9396,14.5718-82.9466,73.97939-122.53518,119.5662l38.83178,22.4196c34.10822-39.276,75.19922-88.785,107.63022-111.0662a88.87626,88.87626,0,0,1,14.905-8.5c9.6058-4.12421,17.4662-1.5446,24.7228,2.6436C904.58027,935.16074,865.79665,912.77194,865.74605,912.74274Z"></path><path fill="url(#C)" d="M1063.25967,767.26894c-6.8284-4.0222-14.4908-5.0338-23.561.203-45.9564,26.533-114.116,142.6272-136.87,155.7644a18.63619,18.63619,0,0,1-15.506,1.9606l17.2576,9.9638c12.2552,7.0762,22.7874,18.747,37.08,10.495,20.896-12.06421,80.0826-110.94821,125.2024-147.56821a91.25882,91.25882,0,0,1,11.6678-8.19619,29.16,29.16,0,0,1,5.2014-2.3812,20.90427,20.90427,0,0,1,17.6204,1.75139Z"></path><path fill="url(#D)" d="M1137.42247,824.35353c-7.636-4.41539-14.759-14.81979-22.7028-23.63619-1.6046-1.78081-3.2432-3.49481-4.9258-5.0832a43.58235,43.58235,0,0,0-7.7206-5.9352c.0182-.0106-.721-.43741-.721-.43741a20.90427,20.90427,0,0,0-17.6204-1.75139c2.525,3.022,5.0088,5.9296,7.5012,8.44739a35.92332,35.92332,0,0,0,7.5048,6.05981Z"></path><path fill="url(#E)" d="M1351.46087,609.75253l-91.5508,16.40542,12.1522,7.016v0c-49.3894,28.393-112.5934,120.74779-145.3818,156.23939a90.8509,90.8509,0,0,1-11.9608,11.304c7.9438,8.8164,15.0668,19.2208,22.7028,23.63619l.1008.05861c4.4006,2.4962,8.9242,3.0098,13.865.1572,24.4948-14.1422,101.525-135.64381,159.5056-168.976h0l12.1522,7.01618Z"></path></g><g fill="#f4f6f8" class="color000000 svgShape"><path d="M932.36647,341.21435c0-32.8444-23.0586-72.783-51.503-89.20519-28.4442-16.4224-51.5028-3.10963-51.5028,29.73479,0,28.0722,16.8656,61.2784,39.5206,80.603l11.9822,24.7908,11.98242-10.9548C915.50067,383.018,932.36647,369.28653,932.36647,341.21435Z" style="mix-blend-mode:multiply" fill="url(#f)"></path><path fill="#ffffff" d="M844.95415 289.60425l8.3476 4.81928v3.64562l-8.3476-4.8194zM871.24125 312.49195v3.8555l-15.6621-9.043v-3.0488l8.4375-4.3809a4.59508 4.59508 0 001.9277-1.6396 4.06935 4.06935 0 00.5-2.042 5.64125 5.64125 0 00-1.002-3.2071 8.67042 8.67042 0 00-2.9433-2.6093q-3.249-1.878-4.9766-.3164l-2.7617-4.0479a4.15371 4.15371 0 013.3535-1.0596 11.24193 11.24193 0 014.7188 1.6553 16.36859 16.36859 0 015.5253 5.082 11.27615 11.27615 0 012.06252 6.3438 6.892 6.892 0 01-.72652 3.3301 6.3051 6.3051 0 01-2.793 2.3838l-5.6777 2.9609zM877.73735 318.95875a20.8609 20.8609 0 01-3.1563-6.1689 23.77041 23.77041 0 01-1.1543-7.44832 13.29659 13.29659 0 011.1543-6.11518 4.34676 4.34676 0 013.1563-2.5235 6.93548 6.93548 0 014.55272 1.13868 15.4833 15.4833 0 014.5664 4.127 20.77387 20.77387 0 013.1738 6.17772 23.81913 23.81913 0 011.1543 7.44728 13.32347 13.32347 0 01-1.1543 6.11622 4.33393 4.33393 0 01-3.1738 2.5146 7.006 7.006 0 01-4.5664-1.1474A15.36475 15.36475 0 01877.73735 318.95875zm8.14842.0605q1.32135-1.4091 1.3223-5.72072a17.64514 17.64514 0 00-1.3223-7.248 8.90741 8.90741 0 00-3.5957-4.248q-2.24718-1.29792-3.56642.11322-1.32135 1.4121-1.3223 5.7207a17.63077 17.63077 0 001.3223 7.24708 8.86966 8.86966 0 003.56642 4.23342Q884.56647 320.42945 885.88577 319.01925zM894.917 316.83765a12.04292 12.04292 0 01-1.3964-5.6777q0-3.0147 1.3964-4.0655 1.39455-1.05165 3.6719.2627a9.65724 9.65724 0 013.6875 3.9688 11.96885 11.96885 0 011.4121 5.7051q0 3.0483-1.4121 4.0732-1.4091 1.0269-3.6875-.2881A9.55938 9.55938 0 01894.917 316.83765zm5.5997 1.5156a4.115 4.115 0 00.6816-2.75972 8.581 8.581 0 00-.6816-3.54888 4.71808 4.71808 0 00-1.9278-2.2343q-1.1835-.68415-1.8984.0429a3.932 3.932 0 00-.711 2.7266 8.40771 8.40771 0 00.711 3.5469 4.77457 4.77457 0 001.8984 2.2353C899.417 318.84053 900.06157 318.83765 900.51667 318.35325zm10.8203-3.3906l2.9765 1.7178-14.5097 16.1572-2.9746-1.7178zm-2.4883 21.4854a12.04879 12.04879 0 01-1.3965-5.6788q0-3.01308 1.3965-4.0644 1.3974-1.0518 3.6738.26168a9.67347 9.67347 0 013.6875 3.98632 12.00716 12.00716 0 011.4121 5.6875q0 3.0147-1.4121 4.0567-1.4121 1.043-3.6875-.27152A9.56774 9.56774 0 01908.84867 336.44805zm5.584 1.4892a4.01164 4.01164 0 00.6992-2.7344 8.483 8.483 0 00-.6992-3.54 4.7345 4.7345 0 00-1.9102-2.2432q-1.21575-.7002-1.9141.0176a4.01954 4.01954 0 00-.6972 2.752 8.47306 8.47306 0 00.6972 3.5566 4.73742 4.73742 0 001.9141 2.2266Q913.73537 338.67265 914.43267 337.93725z" class="colorffffff svgShape"></path><path d="M1111.63267,384.34853c0-32.84438-23.0586-72.783-51.5028-89.20518-28.4442-16.4224-51.503-3.1096-51.503,29.7348,0,28.0722,16.8658,61.2786,39.5206,80.603l11.9824,24.791,11.9822-10.955C1094.76707,426.15235,1111.63267,412.42075,1111.63267,384.34853Z" style="mix-blend-mode:multiply" fill="url(#F)"></path><path fill="#ffffff" d="M1035.10057 340.07205l-5.373-3.1016v6.1328l-3.2461-1.875v-6.1328l-5.375-3.1035v-3.5039l5.375 3.1016v-6.1329l3.2461 1.875v6.1329l5.373 3.1015zM1051.67487 347.13453a12.05782 12.05782 0 012.1543 6.72952 5.61362 5.61362 0 01-.9415 3.4521 3.23169 3.23169 0 01-2.8203 1.209 10.23317 10.23317 0 01-4.6465-1.6289 24.40809 24.40809 0 01-4.4003-3.2949 23.82635 23.82635 0 01-3.5821-4.1543l1.6699-2.5762a20.021 20.021 0 002.8379 3.4092 17.45865 17.45865 0 003.4141 2.6201 4.76256 4.76256 0 003.293.90238q1.2012-.30612 1.1992-2.05858a5.88952 5.88952 0 00-1.2891-3.6016 14.79593 14.79593 0 00-4.4179-3.5137l-5.1289-2.9629 1.0917-12.7226 12.4766 7.2031v3.82028l-9.1367-5.27538-.4551 5.416 2.0352 1.1739A19.33677 19.33677 0 011051.67487 347.13453zM1060.417 364.06325a20.86391 20.86391 0 01-3.1562-6.169 23.75846 23.75846 0 01-1.1543-7.4472 13.29838 13.29838 0 011.1543-6.1162 4.35148 4.35148 0 013.1562-2.5235 6.931 6.931 0 014.5528 1.1397 15.46481 15.46481 0 014.5664 4.126 20.78774 20.78774 0 013.1738 6.1777 23.82437 23.82437 0 011.1543 7.4482 13.3193 13.3193 0 01-1.1543 6.1153 4.33175 4.33175 0 01-3.1738 2.5146 6.99405 6.99405 0 01-4.5664-1.1474A15.3404 15.3404 0 011060.417 364.06325zm8.1485.0615q1.3242-1.4091 1.3222-5.7217a17.60911 17.60911 0 00-1.3222-7.247 8.9103 8.9103 0 00-3.5957-4.2491q-2.24715-1.2978-3.5664.1133-1.32135 1.4121-1.3223 5.7217a17.62621 17.62621 0 001.3223 7.2461 8.86968 8.86968 0 003.5664 4.2334Q1067.24617 365.53545 1068.56547 364.12475zM1077.59667 361.94315a12.04987 12.04987 0 01-1.3965-5.6787q0-3.0132 1.3965-4.0655 1.39455-1.05165 3.6719.2627a9.66009 9.66009 0 013.6875 3.9698 11.94164 11.94164 0 011.4121 5.70408q0 3.04833-1.4121 4.07322-1.4091 1.0269-3.6875-.2881A9.55729 9.55729 0 011077.59667 361.94315zm5.5996 1.5156a4.11767 4.11767 0 00.6817-2.7607 8.5745 8.5745 0 00-.6817-3.5479 4.70232 4.70232 0 00-1.9277-2.2344q-1.18365-.6855-1.8965.043a3.91647 3.91647 0 00-.7129 2.7256 8.383 8.383 0 00.7129 3.5478 4.75773 4.75773 0 001.8965 2.23438Q1082.51372 364.18431 1083.19627 363.45875zm10.8204-3.3906l2.9765 1.7168-14.5098 16.1582-2.9746-1.7188zm-2.4864 21.48438a12.02129 12.02129 0 01-1.3984-5.67778q0-3.01455 1.3984-4.0654 1.39455-1.0518 3.6719.2627a9.65426 9.65426 0 013.6875 3.9863 12.00392 12.00392 0 011.4121 5.6875q0 3.0147-1.4121 4.05668-1.4121 1.043-3.6875-.27148A9.56053 9.56053 0 011091.53027 381.55253zm5.5821 1.48922a4.007 4.007 0 00.6992-2.7334 8.48776 8.48776 0 00-.6992-3.541 4.7319 4.7319 0 00-1.9102-2.2422q-1.21575-.7017-1.9141.0176a4.01589 4.01589 0 00-.6972 2.7519 8.47321 8.47321 0 00.6972 3.5567 4.74632 4.74632 0 001.9141 2.2265Q1096.41507 383.77805 1097.11237 383.04175z" class="colorffffff svgShape"></path><path d="M1348.31987,556.97435c0-32.8444-23.0586-72.783-51.5028-89.2052-28.4444-16.4224-51.503-3.10962-51.503,29.7348,0,28.0722,16.8658,61.27858,39.5206,80.603l11.9824,24.791,11.9822-10.955C1331.45427,598.77815,1348.31987,585.04653,1348.31987,556.97435Z" style="mix-blend-mode:multiply" fill="url(#G)"></path><path fill="#ffffff" d="M1275.17287 514.65215l-5.3711-3.10162v6.13282l-3.248-1.875v-6.13282l-5.3731-3.10348v-3.5039l5.3731 3.1015v-6.1328l3.248 1.875v6.1328l5.3711 3.1016zM1285.19047 506.41575V530.949l-3.9473-2.2773v-20.7149l-4.4902-2.5917v-3.8204zM1293.71977 534.73515a20.86148 20.86148 0 01-3.1563-6.169 23.75821 23.75821 0 01-1.1523-7.4472 13.3016 13.3016 0 011.1523-6.1163 4.35154 4.35154 0 013.1563-2.5234 6.93554 6.93554 0 014.5547 1.1397 15.488 15.488 0 014.5664 4.1259 20.83183 20.83183 0 013.1738 6.1778 23.82358 23.82358 0 011.1523 7.4482 13.32105 13.32105 0 01-1.1523 6.1152 4.33493 4.33493 0 01-3.1738 2.5147 6.99128 6.99128 0 01-4.5664-1.1475A15.34348 15.34348 0 011293.71977 534.73515zm8.1504.0615q1.3212-1.40925 1.3203-5.7217a17.64416 17.64416 0 00-1.3203-7.2471 8.932 8.932 0 00-3.5957-4.249q-2.25-1.2978-3.5684.1133-1.31835 1.41207-1.3203 5.7217a17.66062 17.66062 0 001.3203 7.2461 8.87391 8.87391 0 003.5684 4.2334Q1300.54787 536.2072 1301.87017 534.79665zM1310.90137 532.61505a12.02821 12.02821 0 01-1.3984-5.6788q0-3.01308 1.3984-4.0654 1.39455-1.0518 3.6719.26268a9.67291 9.67291 0 013.6875 3.96972 11.96523 11.96523 0 011.4121 5.7041q0 3.04845-1.4121 4.0733-1.4121 1.02675-3.6875-.28812A9.55771 9.55771 0 011310.90137 532.61505zm5.5996 1.5156a4.1178 4.1178 0 00.6817-2.7608 8.57375 8.57375 0 00-.6817-3.5478 4.72358 4.72358 0 00-1.9277-2.2344q-1.1865-.6855-1.8984.043a3.92556 3.92556 0 00-.7129 2.7256 8.41047 8.41047 0 00.7129 3.5478 4.7505 4.7505 0 001.8984 2.2344Q1315.81542 534.8562 1316.501 534.13065zm10.8203-3.3906l2.9746 1.7167-14.5078 16.1583-2.9765-1.7188zm-2.4882 21.4843a12.04155 12.04155 0 01-1.3965-5.6777q0-3.0147 1.3965-4.0654 1.3944-1.0518 3.6718.2627a9.64008 9.64008 0 013.6875 3.9863 11.98068 11.98068 0 011.4121 5.6875q0 3.01467-1.4121 4.0566-1.4091 1.043-3.6875-.2715A9.55918 9.55918 0 011324.83307 552.22435zm5.5839 1.4893a4.00824 4.00824 0 00.6973-2.7334 8.48766 8.48766 0 00-.6973-3.541 4.73407 4.73407 0 00-1.9121-2.2422q-1.21575-.7017-1.9121.0176a4.01568 4.01568 0 00-.6972 2.75188 8.47363 8.47363 0 00.6972 3.55672 4.74288 4.74288 0 001.9121 2.2265Q1329.71777 554.44992 1330.417 553.71365z" class="colorffffff svgShape"></path></g><g fill="#f4f6f8" class="color000000 svgShape"><path d="M249.91446,1176.58674c-12.051-6.9556-28.0718-10.16321-43.809-9.69321h-24.6654v4.04361a65.386,65.386,0,0,0-13.05319,5.6496c-22.4306,13.04459-22.3008,34.18639.2764,47.224a65.64972,65.64972,0,0,0,12.77679,5.5394v4.2284h29.5864c14.2258-.2418,28.33241-3.4682,39.15741-9.759C272.62146,1210.77313,272.50726,1189.63133,249.91446,1176.58674Z" style="mix-blend-mode:multiply" fill="url(#H)"></path><path fill="#6bb5ff" d="M125.23427,1184.88633c-.002-8.3408,5.508-16.68359,16.5352-23.0506,11.0268-6.3614,25.4754-9.5484,39.926-9.5484,14.4486,0,28.89741,3.187,39.921,9.5484,11.0236,6.367,16.54041,14.708,16.54041,23.0506.00179,8.341-5.51021,16.6856-16.54041,23.0506-11.0218,6.3666-25.4688,9.5486-39.9194,9.5486-14.44859,0-28.89879-3.182-39.92219-9.5486C130.74587,1201.57193,125.23587,1193.22733,125.23427,1184.88633Z" class="colorffc16b svgShape"></path><path fill="url(#g)" d="M221.61646,1207.93693c-11.0218,6.3666-25.4688,9.5486-39.9194,9.5486-14.44859,0-28.89879-3.182-39.92219-9.5486-11.029-6.365-16.539-14.7096-16.5406-23.0506v16.0948c.0016,8.3394,5.5116,16.6822,16.5406,23.0472,11.0234,6.3668,25.4736,9.5502,39.92219,9.5502,14.4506,0,28.8976-3.1816,39.9194-9.545,11.0302-6.3668,16.5422-14.713,16.54041-23.0558v-16.0914C238.15866,1193.22733,232.64666,1201.57193,221.61646,1207.93693Z"></path><path fill="#6db6ff" d="M149.27447,1203.60693c8.9542,5.1662,20.6876,7.7568,32.42259,7.7568,11.7354,0,23.46881-2.5906,32.4212-7.7568,8.26161-4.7676,12.70261-10.908,13.33661-17.1486-.634-6.24259-5.075-12.38119-13.33661-17.152-8.9558-5.17121-20.6892-7.75561-32.4246-7.75561-11.735,0-23.46859,2.5844-32.42619,7.75561-8.2564,4.7708-12.6954,10.906-13.338,17.14679C136.57207,1192.69713,141.01107,1198.83593,149.27447,1203.60693Z" class="colorffaf6d svgShape"></path><path fill="url(#I)" d="M149.26747,1169.30634c8.9576-5.17121,20.6912-7.75561,32.42619-7.75561,11.7354,0,23.4688,2.5844,32.4246,7.75561,8.26161,4.7708,12.70261,10.9094,13.33661,17.152a14.59413,14.59413,0,0,0,.09639-1.572c0-6.77419-4.4768-13.5488-13.433-18.71859-8.9558-5.168-20.6892-7.75541-32.4246-7.75541-11.735,0-23.46859,2.5874-32.42619,7.75541-8.9506,5.16979-13.4278,11.9444-13.4278,18.71859a15.32242,15.32242,0,0,0,.0898,1.5668C136.57207,1180.21234,141.01107,1174.07714,149.26747,1169.30634Z"></path><polygon fill="#e539c6" points="204.285 1178.155 208.622 1175.651 208.622 1172.516 204.285 1175.015 204.285 1178.155" class="colore57139 svgShape"></polygon><path fill="#6bb5ff" d="M184.27926,1183.39753c-1.6166-.93439-2.5112-2.17479-2.5112-3.49759,0-1.318.8946-2.56,2.5112-3.49441a13.39318,13.39318,0,0,1,12.10861-.00179c3.34039,1.9276,3.34039,5.0662,0,6.99379l5.496,3.1696c5.42019-3.12839,6.21139-7.925,2.401-11.552l4.33739-2.49961-5.49439-3.17639-4.33741,2.50639c-6.2788-2.19879-14.5852-1.74119-20.0072,1.39221-3.08839,1.7774-4.78439,4.1452-4.78439,6.6622,0,2.52,1.69939,4.88979,4.78439,6.66719,3.3408,1.9312,3.3422,5.0662,0,6.9954a13.40062,13.40062,0,0,1-12.11159,0c-3.3388-1.9292-3.3388-5.0642.0016-6.9954l-5.491-3.1696c-5.4256,3.1298-6.2148,7.9248-2.4094,11.552l-3.9988,2.3096,5.4962,3.173,4.0022-2.313c6.2806,2.199,14.58519,1.7498,20.00679-1.3818C190.64626,1193.05613,190.64626,1187.07673,184.27926,1183.39753Z" class="colorffc16b svgShape"></path><polygon fill="#fb4bdb" points="154.774 1200.397 160.27 1203.571 160.27 1200.432 154.774 1197.259 154.774 1200.397" class="colorfb944b svgShape"></polygon><polygon fill="#e539c6" points="160.27 1203.571 164.272 1201.258 164.272 1198.119 160.27 1200.432 160.27 1203.571" class="colore57139 svgShape"></polygon><polygon fill="#fb4bdb" points="196.388 1186.534 201.884 1189.706 201.884 1186.567 196.388 1183.398 196.388 1186.534" class="colorfb944b svgShape"></polygon><path fill="#e539c6" d="M166.67327,1189.70553v-3.1384c-2.3682,1.3716-3.0504,3.3474-2.0552,5.0662A5.45534,5.45534,0,0,1,166.67327,1189.70553Z" class="colore57139 svgShape"></path><path fill="#fb4bdb" d="M156.41167 1189.90753l.0086 3.5342.0066-.0086a6.07227 6.07227 0 00.6828 2.4786l1.6632-.9622a6.73773 6.73773 0 01-2.349-5.0332zM178.78326 1189.70373a5.45339 5.45339 0 012.0572 1.9296c.9932-1.7188.30941-3.6946-2.0572-5.0662-3.085-1.7774-4.78439-4.14719-4.78439-6.66719v3.1402C173.99887 1185.55853 175.69826 1187.92473 178.78326 1189.70373z" class="colorfb944b svgShape"></path><path fill="#fb05ce" d="M189.05366,1190.04933v-.064h-.0034C189.05026,1190.00773,189.05366,1190.02693,189.05366,1190.04933Z" class="colorfbba05 svgShape"></path><path fill="#e539c6" d="M206.63726,1179.89634c.0072,2.4164-1.5646,4.83459-4.75339,6.67079v3.1384c3.27-1.8842,4.84-4.3752,4.75179-6.85019l.0088.0118v-2.9708Z" class="colore57139 svgShape"></path><path fill="url(#J)" d="M184.27926,1196.73733c-5.4216,3.1316-13.72619,3.5808-20.00679,1.3818v3.1386c6.2806,2.2004,14.58519,1.7462,20.00679-1.3854,3.1594-1.8222,4.7434-4.2162,4.771-6.6104l.0034.007v-3.1852C189.04687,1192.48993,187.45606,1194.90473,184.27926,1196.73733Z"></path><path fill="#e539c6" d="M196.38787,1176.40374a13.39318,13.39318,0,0,0-12.10861.00179c-1.6166.93441-2.5112,2.17641-2.5112,3.49441a3.1257,3.1257,0,0,0,.4474,1.57,5.50522,5.50522,0,0,1,2.0638-1.92441,13.38947,13.38947,0,0,1,12.10861-.00339,5.46246,5.46246,0,0,1,2.059,1.9278C199.43987,1179.74774,198.75926,1177.77153,196.38787,1176.40374Z" class="colore57139 svgShape"></path></g><g data-name="Glass screen" fill="#f4f6f8" class="color000000 svgShape"><path fill="#e8eff7" d="M338.00246,833.91534c0,14.8358,10.5146,33.0466,23.3642,40.4644l408.64179,235.92459c12.84942,7.4244,23.3626,1.3508,23.3626-13.4864V845.82553c0-14.83859-10.512-33.04639-23.3614-40.467l-408.643-235.92578c-12.8496-7.4208-23.3642-1.351-23.3642,13.48778Z" opacity=".4" class="colore8ecf7 svgShape"></path><path fill="#ffffff" d="M775.34865,802.27594l-408.643-235.92579c-6.2036-3.58262-11.8482-3.9944-16.04279-1.8198l-.01741-.0234-.304.1754q-.13138.0735-.2608.1506l-4.7742,2.7564.01741.0236c4.19459-2.1748,9.83919-1.7628,16.04259,1.8198L770.00987,805.35853c12.849,7.42041,23.36118,25.62861,23.36118,40.467v250.9924c0,7.136-2.4486,12.2176-6.4026,14.7726l.0186.0252,4.697-2.7116c.105-.0586.20882-.1182.31182-.1802l.33018-.1906-.0186-.0252c3.9542-2.555,6.4026-7.6366,6.4026-14.7728V842.74314C798.71005,827.90453,788.19805,809.69653,775.34865,802.27594Z" opacity=".8" class="colorffffff svgShape"></path></g><g data-name="Divisions on screen" fill="#f4f6f8" class="color000000 svgShape"><g style="mix-blend-mode:multiply" fill="#f4f6f8" class="color000000 svgShape"><polygon fill="#cee3f8" points="774.49 1100.22 764.297 1094.335 764.297 1089.851 774.49 1095.736 774.49 1100.22" class="colorced3f8 svgShape"></polygon><polygon fill="#cee3f8" points="774.49 1086.643 764.297 1080.758 764.297 1076.274 774.49 1082.159 774.49 1086.643" class="colorced3f8 svgShape"></polygon><polygon fill="#cee3f8" points="774.49 1073.066 764.297 1067.181 764.297 1062.697 774.49 1068.582 774.49 1073.066" class="colorced3f8 svgShape"></polygon><polygon fill="#cee3f8" points="774.49 1059.489 764.297 1053.604 764.297 1049.12 774.49 1055.005 774.49 1059.489" class="colorced3f8 svgShape"></polygon><polygon fill="#cee3f8" points="774.49 1045.912 764.297 1040.027 764.297 1035.543 774.49 1041.428 774.49 1045.912" class="colorced3f8 svgShape"></polygon><polygon fill="#cee3f8" points="774.49 1032.335 764.297 1026.45 764.297 1021.966 774.49 1027.851 774.49 1032.335" class="colorced3f8 svgShape"></polygon><polygon fill="#cee3f8" points="774.49 1018.758 764.297 1012.873 764.297 1008.389 774.49 1014.274 774.49 1018.758" class="colorced3f8 svgShape"></polygon><polygon fill="#cee3f8" points="774.49 1005.181 764.297 999.296 764.297 994.812 774.49 1000.697 774.49 1005.181" class="colorced3f8 svgShape"></polygon><polygon fill="#cee3f8" points="774.49 991.604 764.297 985.719 764.297 981.235 774.49 987.12 774.49 991.604" class="colorced3f8 svgShape"></polygon><polygon fill="#cee3f8" points="774.49 978.027 764.297 972.142 764.297 967.659 774.49 973.543 774.49 978.027" class="colorced3f8 svgShape"></polygon><polygon fill="#cee3f8" points="774.49 964.45 764.297 958.565 764.297 954.082 774.49 959.966 774.49 964.45" class="colorced3f8 svgShape"></polygon><polygon fill="#cee3f8" points="774.49 950.873 764.297 944.988 764.297 940.505 774.49 946.389 774.49 950.873" class="colorced3f8 svgShape"></polygon><polygon fill="#cee3f8" points="774.49 937.296 764.297 931.411 764.297 926.928 774.49 932.812 774.49 937.296" class="colorced3f8 svgShape"></polygon><polygon fill="#cee3f8" points="774.49 923.719 764.297 917.834 764.297 913.351 774.49 919.235 774.49 923.719" class="colorced3f8 svgShape"></polygon><polygon fill="#cee3f8" points="774.49 910.142 764.297 904.257 764.297 899.774 774.49 905.658 774.49 910.142" class="colorced3f8 svgShape"></polygon><polygon fill="#cee3f8" points="774.49 896.565 764.297 890.68 764.297 886.197 774.49 892.081 774.49 896.565" class="colorced3f8 svgShape"></polygon><polygon fill="#cee3f8" points="774.49 882.988 764.297 877.103 764.297 872.62 774.49 878.504 774.49 882.988" class="colorced3f8 svgShape"></polygon><polygon fill="#cee3f8" points="774.49 869.411 764.297 863.526 764.297 859.043 774.49 864.928 774.49 869.411" class="colorced3f8 svgShape"></polygon><polygon fill="#cee3f8" points="774.49 855.834 764.297 849.949 764.297 845.466 774.49 851.351 774.49 855.834" class="colorced3f8 svgShape"></polygon><polygon fill="#cee3f8" points="774.49 842.257 764.297 836.372 764.297 831.889 774.49 837.774 774.49 842.257" class="colorced3f8 svgShape"></polygon><polygon fill="#cee3f8" points="774.49 828.68 764.297 822.795 764.297 818.312 774.49 824.197 774.49 828.68" class="colorced3f8 svgShape"></polygon></g></g><g data-name="Pie charts on screen" fill="#f4f6f8" class="color000000 svgShape"><g style="mix-blend-mode:multiply" fill="#f4f6f8" class="color000000 svgShape"><path fill="#cee3f8" d="M372.13466,683.29394c10.42,6.016,18.86721,1.1392,18.86721-10.8928,0-5.8012-1.97681-12.2-5.17841-17.95261l-13.6888,7.05961V639.72235c-10.42-6.016-18.8672-1.1392-18.8672,10.8928S361.71466,677.27794,372.13466,683.29394Z" class="colorced3f8 svgShape"></path><path fill="#5046e4" d="M385.82346,654.44853c-3.4388-6.17858-8.2928-11.61078-13.6888-14.72618v21.78579Z" class="color5652cc svgShape"></path></g><g style="mix-blend-mode:multiply" fill="#f4f6f8" class="color000000 svgShape"><path fill="#6db6ff" d="M372.13466,752.69274c9.0626,5.2322,16.62621,2.21779,18.4448-6.57021l-18.4448-15.21579v-21.7858c-10.42-6.016-18.8672-1.1392-18.8672,10.893C353.26746,732.04594,361.71466,746.67653,372.13466,752.69274Z" class="colorffaf6d svgShape"></path><path fill="#857dfb" d="M390.57946,746.12253a21.3,21.3,0,0,0,.42241-4.32259c0-12.0322-8.44721-26.663-18.86721-32.679v21.7858Z" class="color807dfb svgShape"></path></g><g style="mix-blend-mode:multiply" fill="#f4f6f8" class="color000000 svgShape"><path fill="#cee3f8" d="M372.13466,778.51974c-10.42-6.016-18.8672-1.13921-18.8672,10.89279s8.4472,26.66281,18.8672,32.67881,18.86721,1.139,18.86721-10.89281a30.41711,30.41711,0,0,0-.71561-6.29659l-18.1516-4.59641Z" class="colorced3f8 svgShape"></path><path fill="#857dfb" d="M372.13466,778.51974v21.78579h16.8506C385.89166,791.37774,379.52126,782.78434,372.13466,778.51974Z" class="color807dfb svgShape"></path><path fill="#6db6ff" d="M372.13466,800.30553l18.1516,4.59641a38.69394,38.69394,0,0,0-1.301-4.59641Z" class="colorffaf6d svgShape"></path></g></g><g fill="#f4f6f8" class="color000000 svgShape"><path d="M1294.89247,967.12253c-24.1366-13.93859-56.9838-19.76019-88.424-17.50279,22.6742,1.6272,44.6196,7.4502,62.03,17.50279,41.547,23.98721,41.5438,62.87921,0,86.8662-17.412,10.0528-39.3588,15.8758-62.0376,17.5028,31.4402,2.2574,64.292-3.567,88.4316-17.5028C1336.43927,1030.00174,1336.44247,991.10974,1294.89247,967.12253Z" style="mix-blend-mode:multiply" fill="url(#h)"></path><path d="M1151.03347,967.12253c17.409-10.05259,39.3542-15.87559,62.0332-17.50279-31.442-2.2574-64.292,3.5656-88.4302,17.50279-41.55,23.98721-41.55,62.87921,0,86.8662,24.1382,13.9372,56.9852,19.7602,88.4256,17.5028-22.6772-1.627-44.6196-7.45-62.0286-17.5028C1109.48207,1030.00174,1109.48207,991.10974,1151.03347,967.12253Z" style="mix-blend-mode:multiply" fill="url(#K)"></path><path fill="#a09ba5" d="M1274.71447,967.23053c-41.7518-24.10419-109.4524-24.10419-151.2042.00161-41.755,24.1086-41.752,63.1902.0016,87.29719,41.7534,24.1074,109.4492,24.1074,151.1994.0018C1316.46627,1030.42234,1316.46947,991.34074,1274.71447,967.23053Zm-12.4766,80.097c-34.8642,20.1286-91.3886,20.1286-126.2512,0-34.864-20.12739-34.8656-52.76459-.0032-72.89339,34.8658-20.12561,91.3918-20.12561,126.256,0C1297.10367,994.56294,1297.10207,1027.20014,1262.23787,1047.32753Z" class="colora59ba5 svgShape"></path><path fill="#64318f" d="M1135.98347,949.87553c34.8658-20.12879,91.3918-20.12879,126.256-.00159,22.8838,13.2132,30.7468,31.81159,23.5892,48.7274-3.7474-8.857-11.6104-17.25-23.5892-24.1672-34.8642-20.12561-91.3902-20.12561-126.256,0-11.9786,6.9172-19.8418,15.3102-23.5878,24.1672C1105.23827,981.68553,1113.10147,963.08714,1135.98347,949.87553Z" class="color34318f svgShape"></path><path d="M1262.42587,957.53214c-34.8564-20.12561-91.3762-20.127-126.2342,0-34.8594,20.1256-34.858,52.757,0,72.8826,34.8596,20.1254,91.3762,20.127,126.2342,0C1297.28687,1010.28914,1297.28687,977.65774,1262.42587,957.53214Z" style="mix-blend-mode:screen" fill="#6b686d" class="color686a6d svgShape"></path><path d="M1145.15967 961.13314c7.5964-4.8352 20.2256-5.3822 28.2122-1.2202 7.9848 4.1602 8.299 11.4534.7042 16.2872-7.5968 4.8336-20.2258 5.3808-28.2122 1.22039C1137.88047 973.26014 1137.56467 965.96694 1145.15967 961.13314zM1183.44147 952.26994a12.92612 12.92612 0 0111.6784-.5022c3.3052 1.7212 3.4346 4.73979.2928 6.7414a12.92045 12.92045 0 01-11.68.50539C1180.42607 957.29334 1180.29507 954.27314 1183.44147 952.26994z" style="mix-blend-mode:screen" fill="#a09ba5" class="colora59ba5 svgShape"></path><path fill="#f7f9fc" d="M1262.42587,961.17934c-34.8564-20.1254-91.3762-20.12681-126.2342,0-16.6276,9.5998-25.3028,22.0426-26.0702,34.61619-.8382-13.78939,7.8368-27.736,26.0702-38.26339,34.858-20.127,91.3778-20.12561,126.2342,0,18.2364,10.52739,26.9132,24.474,26.0718,38.26339C1287.73027,983.22194,1279.05347,970.77914,1262.42587,961.17934Z" class="colorf7f7fc svgShape"></path><path fill="#d0e3f6" d="M1274.71447,942.67153c-41.7518-24.10519-109.4524-24.10519-151.2042.00181-41.755,24.107-41.752,63.1904.0016,87.296,41.7534,24.10879,109.4492,24.10879,151.1994.0016C1316.46627,1005.86374,1316.46947,966.78034,1274.71447,942.67153Zm-12.4766,80.097c-34.8642,20.12881-91.3886,20.12881-126.2512,0-34.864-20.12839-34.8656-52.76439-.0032-72.893,34.8658-20.12879,91.3918-20.12879,126.256-.00159C1297.10367,970.00414,1297.10207,1002.64014,1262.23787,1022.76853Z" class="colord0d4f6 svgShape"></path><path fill="url(#L)" d="M1123.51187,1029.96934c41.7534,24.10879,109.4492,24.10879,151.1994.0016,20.608-11.8988,31.0258-27.4432,31.2924-43.037v23.3382h-.0046c.2744,16.0006-10.1422,32.0488-31.2878,44.259-41.7502,24.1056-109.446,24.1056-151.1994-.0016-21.1456-12.20859-31.5606-28.25679-31.2864-44.25739h0v-23.2304C1092.53687,1002.59853,1102.95167,1018.09834,1123.51187,1029.96934Z"></path><path fill="#f7f9fc" d="M1274.71127,1033.25314q3.9501-2.2815,7.3962-4.73061l17.9822,10.384-15.5828,8.99721-17.9838-10.3856Q1270.75967,1035.53034,1274.71127,1033.25314Z" class="colorf7f7fc svgShape"></path><polygon fill="#d0e3f6" points="1284.507 1065.898 1266.523 1055.514 1266.523 1037.518 1284.507 1047.904 1284.507 1065.898" class="colord0d4f6 svgShape"></polygon><path fill="url(#i)" d="M1277.73767,1060.81013c0-9.28839,6.518-20.58019,14.56-25.2226,4.1832-2.41459,7.94-2.53779,10.5966-.81219l.0076-.0154,103.6588,59.84959-19.816,35.9828-103.6586-59.8496.0016-.0014C1279.82407,1069.54233,1277.73767,1066.06153,1277.73767,1060.81013Z"></path><path d="M1291.10647,1075.35473l-.0016.0016,5.0696,2.9262c-2.199-1.6766-3.5426-4.7168-3.5426-8.9082,0-9.2884,6.5196-20.57839,14.5614-25.22259,4.182-2.413,7.9418-2.5378,10.5968-.81221l-6.8694-3.96619-.0076.014c-2.6534-1.72581-6.4132-1.6012-10.5966.812-8.042,4.64419-14.5602,15.93419-14.5602,25.22279C1285.75627,1070.67353,1287.84287,1074.15433,1291.10647,1075.35473Z" style="mix-blend-mode:multiply" fill="url(#M)"></path><path fill="url(#N)" d="M1384.34247,1129.20553a20.55241,20.55241,0,1,0,21.4878-34.9812c-2.598-1.2758-6.0558-.9938-9.874,1.2128-8.042,4.6442-14.5614,15.9356-14.5614,25.2244,0,4.04,1.2342,7.031,3.2928,8.7442Z"></path><path d="M1386.73547,1130.58773l.0092.0032v.0014Z" fill="#f4f6f8" class="color000000 svgShape"></path></g><g fill="#f4f6f8" class="color000000 svgShape"><polygon points="372.148 1057.969 289.035 1058.02 278.164 1076.346 291.476 1076.346 285.763 1085.979 372.148 1085.926 372.148 1057.969" style="mix-blend-mode:multiply" fill="url(#O)"></polygon><path fill="#a9d2fc" d="M296.61426,894.55353c0,1.71841,5.9022,23.54781,7.17,25.73061,1.8234,3.1446,4.9954,6.42939,5.758,8.4606a32.24631,32.24631,0,0,1,1.5238,7.1046c0,1.0544-1.35519,4.7414-2.67219,4.216-1.31821-.5272.60119-2.4486-.039-3.08781-.26261.60341-1.76841,2.10741-3.08481,1.84541-1.31719-.26341-.842-.73941-.842-.73941-.696.254-1.632.25961-1.88619-.277-.59361.197-1.58061.70561-1.83481-.791-.254-1.49459-.4306-3.98639-1.045-4.94039-1.9744-3.0764-1.7504-10.4292-2.145-11.3528-.3946-.92381-7.645-19.0834-8.2634-22.92181-.6192-3.83879-.5424-23.108,2.845-23.25759C295.48406,874.39314,296.61426,889.04974,296.61426,894.55353Z" class="colorfcd1a9 svgShape"></path><path fill="url(#j)" d="M285.74687,1057.01853c-4.016.6562-5.17741,7.1292-3.169,11.1918a15.62958,15.62958,0,0,0,4.396,2.7062s12.68439,5.204,15.53479,5.4298c2.85821.2332,9.1936-.8346,9.7124-5.7124-.4876-2.9738-2.9908-3.791-6.06619-5.6176-3.99881-2.3764-7.42961-5.8224-10.654-7.408C292.84766,1056.30533,285.74687,1057.01853,285.74687,1057.01853Z"></path><path fill="#a9d2fc" d="M293.45466,1052.89333c-1.9594.3208-8.255,1.8776-8.255,1.8776s-2.3326,6.5282,1.3476,7.6832c7.1434,2.2436,13.2304-2.551,10.42161-4.163C295.08087,1057.21573,293.22426,1055.99433,293.45466,1052.89333Z" class="colorfcd1a9 svgShape"></path><path fill="#0c2340" d="M302.42246,1075.04353c-2.9368-.2352-15.99459-5.5838-15.99459-5.5838a16.91258,16.91258,0,0,1-4.38321-2.6644,9.175,9.175,0,0,0,.53321,1.415,15.62958,15.62958,0,0,0,4.396,2.7062s12.68439,5.204,15.53479,5.4298c2.85821.2332,9.1936-.8346,9.7124-5.7124-.021-.0986-.058-.1894-.075-.2922C310.79966,1074.35493,305.11187,1075.26353,302.42246,1075.04353Z" class="color131147 svgShape"></path><path fill="#662e94" d="M298.18066,1059.25653c-.52879-.7074-1.7664-2.5908-3.9476-1.0374-2.2814,1.6234-2.7954,3.5788-2.528,5.2042.2664,1.6234,4.966.4208,5.1424.176C297.02687,1063.35673,298.18066,1059.25653,298.18066,1059.25653Z" class="color362e94 svgShape"></path><path fill="#ffffff" d="M300.33806 1061.28193a9.573 9.573 0 00-4.2604 4.144 1.28629 1.28629 0 11-2.3246-1.102 12.10368 12.10368 0 015.579-5.407 1.285 1.285 0 111.006 2.365zM304.29806 1063.81393a9.54872 9.54872 0 00-4.251 4.142 1.2883 1.2883 0 01-2.32819-1.1038 12.05347 12.05347 0 015.575-5.407 1.28643 1.28643 0 111.00419 2.3688z" class="colorffffff svgShape"></path><path fill="#a9d2fc" d="M292.34606 924.75614c1.9306 23.88739 5.1292 46.6212 5.1292 65.7918 0 21.928-3.80539 45.028-4.0386 63.40559.2028 5.6366-6.1924 10.0538-8.898 5.0772-.1162-1.6368.6508-3.7114.3708-6.1144-1.6364-13.99839-6.4282-35.5018-2.3962-53.60059-5.5512-23.9916-20.8366-53.6424-18.5738-72.4694C270.88466 923.39834 287.03387 923.06834 292.34606 924.75614zM289.27746 849.14434c6.2636 3.07619 8.5496 7.774 8.5496 17.105C293.55306 863.63014 289.27746 849.14434 289.27746 849.14434z" class="colorfcd1a9 svgShape"></path><polygon fill="#7c3eaf" points="285.924 933.862 285.924 937.871 282.451 935.866 285.924 933.862" class="color423eaf svgShape"></polygon><path fill="url(#P)" d="M269.00026,1066.64913c-4.0148.6562-5.1746,7.1292-3.1672,11.1934a15.58958,15.58958,0,0,0,4.3964,2.7046s12.6842,5.2044,15.5336,5.432c2.8582.235,9.1954-.8364,9.7122-5.7146-.4872-2.9738-2.9918-3.7912-6.066-5.6176-3.999-2.3742-7.43-5.8206-10.6528-7.406C276.10287,1065.93633,269.00026,1066.64913,269.00026,1066.64913Z"></path><path fill="#a9d2fc" d="M276.70806,1062.52413c-1.95819.3206-8.2548,1.8778-8.2548,1.8778s-2.33,6.5296,1.3484,7.683c7.1434,2.2436,13.2304-2.551,10.4224-4.1612C278.33626,1066.84633,276.47846,1065.62513,276.70806,1062.52413Z" class="colorfcd1a9 svgShape"></path><path fill="#0c2340" d="M285.67766,1084.67413c-2.93779-.2332-15.9934-5.5834-15.9934-5.5834a16.86714,16.86714,0,0,1-4.385-2.6648,9.16073,9.16073,0,0,0,.5338,1.4166,15.58958,15.58958,0,0,0,4.3964,2.7046s12.6842,5.2044,15.5336,5.432c2.8582.235,9.1954-.8364,9.7122-5.7146-.0208-.0984-.0588-.1896-.0748-.29C294.05487,1083.98553,288.36506,1084.89433,285.67766,1084.67413Z" class="color131147 svgShape"></path><path fill="#662e94" d="M281.43526,1068.88713c-.52939-.7074-1.7668-2.5906-3.9478-1.0354-2.28159,1.6234-2.79459,3.5788-2.5282,5.204.26761,1.6214,4.9672.4212,5.1434.1764C280.28106,1072.98753,281.43526,1068.88713,281.43526,1068.88713Z" class="color362e94 svgShape"></path><path fill="#ffffff" d="M283.59246 1070.91273a9.57888 9.57888 0 00-4.2588 4.1458 1.28681 1.28681 0 01-2.325-1.1036 12.10025 12.10025 0 015.5776-5.4072 1.28508 1.28508 0 111.0062 2.365zM287.55366 1073.44453a9.54844 9.54844 0 00-4.2534 4.144 1.28686 1.28686 0 01-2.325-1.1038 12.07157 12.07157 0 015.572-5.409 1.28686 1.28686 0 111.0064 2.3688z" class="colorffffff svgShape"></path><path fill="#a9d2fc" d="M279.21987,935.03553c0,21.95661.23339,46.51121.23339,65.68,0,21.92981-2.53,44.49121-2.76139,62.8688.202,5.6384-6.19321,10.0556-8.89861,5.079-.1158-1.6366.6512-3.7116.3708-6.1164-1.636-13.99859-6.4286-35.50159-2.3964-53.60059-5.5512-23.9916-14.1086-49.2706-9.0192-73.74C263.69166,931.75834,273.90866,933.34974,279.21987,935.03553Z" class="colorfcd1a9 svgShape"></path><path fill="url(#Q)" d="M262.70746,906.80734c1.818-16.54381-5.992-32.1506-7.4222-42.48681-.9036-6.52219-1.556-14.15779,4.35161-15.99739,6.10239-1.9004,8.569-2.7844,13.86019-2.6532,12.74.31659,18.70881,2.9302,21.306,11.7052,2.44181,8.26139,4.1742,10.7726,6.1856,18.8728.9008,3.6302-9.0922,11.52159-7.9324,27.1872,8.854,13.3878,15.2048,43.6322,17.90761,67.39039,1.03339,7.15781-6.25041,16.35981-19.12721,22.80241-16.24,8.12859-35.1716,8.7792-42.2866,1.4528a9.15466,9.15466,0,0,1-2.6806-6.12221C246.85806,980.52634,251.65066,920.54974,262.70746,906.80734Z"></path><path fill="#a9d2fc" d="M268.97106,830.15774c.2256-3.922,13.6332,3.8786,13.3374,9.0486-.24559,4.2084-.79259,8.4454.78341,8.9878,1.82919,1.322,7.27119,15.2882,4.00259,18.552-11.39059-4.6618-17.3278-14.5294-27.45759-18.423C263.78387,847.47534,268.24266,842.85134,268.97106,830.15774Z" class="colorfcd1a9 svgShape"></path><path fill="#a9d2fc" d="M265.73926,824.73174l4.034-10.0974h25.5808v15.3926c0,8.5022-5.7268,15.3944-12.7906,15.3944-6.8502,0-12.39659-6.49381-12.7288-14.6434l-1.78179.0474Z" class="colorfcd1a9 svgShape"></path><path fill="#9dc7f2" d="M272.04426,838.66394c2.1964,3.905,5.8244,6.5088,9.992,6.7194a4.10811,4.10811,0,0,0,.6458,2.5358,9.27214,9.27214,0,0,1-2.02719-.1822C276.38546,846.69014,273.29987,843.16053,272.04426,838.66394Z" class="colorf2c39d svgShape"></path><path fill="#193f6f" d="M280.88326,803.90374a1.44361,1.44361,0,0,1,.2398-.0038c13.9532.35259,15.00081,10.7802,14.231,12.5058-4.4266,1.58179-7.2156-1.4168-9.996-1.18521-1.3406.108-6.7894.84761-9.0398,3.73041-2.423,3.1028-1.652,8.0622-3.93639,7.9428-.99181-.0398-1.29261-3.3664-2.77281-3.4554-1.24019-.0702-2.492,1.0866-2.345,2.9908.1896,2.5642,2.6154,4.11739,2.25881,5.358-.59641,2.0388-5.70021-1.6238-5.60161-8.9008C264.02266,815.65874,268.84487,803.41434,280.88326,803.90374Z" class="color20196f svgShape"></path><path fill="#a9d2fc" d="M256.15966,914.67053s-2.7394,6.83121-2.7454,6.839c-9.56139-4.98439-15.1686-18.01-15.7156-28.51679-.73679-14.15221,13.9254-38.0736,14.688-39.2096,3.7104-5.5284,12.5208-.624,9.60421,6.4578-.63161,1.4338-15.64581,26.1254-14.04041,34.4738C249.05906,900.48214,250.94887,911.06314,256.15966,914.67053Z" class="colorfcd1a9 svgShape"></path><path fill="#193f6f" d="M279.12126,803.93014c-14.8282,1.05839-16.6072,15.6788-22.50439,19.63339-3.521,2.35921-11.37541-2.09379-15.97781,5.87161-5.29019,9.1568,3.26981,12.4796-2.3354,16.3578-5.6052,3.8748-9.9124,15.7092-.57,22.9748,9.3416,7.266,21.04221.882,19.7204-9.7556-.94919-7.6582,1.32181-11.6108,7.7522-9.1358,4.8202,1.8528,6.66161-1.94981,4.4968-6.8504,10.71281,1.0694-.5226-19.362,15.655-27.80541C284.74646,811.05574,279.12126,803.93014,279.12126,803.93014Z" class="color20196f svgShape"></path><path fill="#a9d2fc" d="M256.15966,914.67053c1.121.72621,7.262-.72659,8.7148-.72659a30.64238,30.64238,0,0,1,8.8066,1.09059c3.3472,1.07541,5.63,2.30061,3.3472,2.82761,1.232.2658,4.13761,1.4528,1.84761,2.1148-.22021.7908-1.05561,1.8492-3.56661,1.76-.83539.662-6.691,1.89459-8.4976,1.58559-1.8916.57261-11.8574.36581-13.3974-1.813C253.41426,917.81874,256.15966,914.67053,256.15966,914.67053Z" class="colorfcd1a9 svgShape"></path></g><g fill="#f4f6f8" class="color000000 svgShape"><rect width="88.41" height="16.251" x="522.545" y="1177.053" style="mix-blend-mode:multiply" fill="url(#k)"></rect><rect width="88.4" height="16.246" x="482.255" y="1153.608" style="mix-blend-mode:multiply" fill="url(#R)"></rect><path fill="url(#l)" d="M472.92366,1164.84314c0-12.76181,8.0908-13.13561,8.0908-13.13561s4.37741,0,11.497-2.9526c7.021-2.9152,16.9172-1.7886,11.3852,8.413a2.56477,2.56477,0,0,1-.18779.3774,4.996,4.996,0,0,1-1.79241,1.5742l-17.6778,10.37041C481.54166,1171.02414,472.98446,1167.46994,472.92366,1164.84314Z"></path><path fill="#102847" d="M472.97387,1163.69973c.15019,2.619,8.59439,6.10881,11.26479,4.58l17.6778-10.36081a16.732,16.732,0,0,0,2.48841-1.8168c-.15921.3488-.30161.6864-.50821,1.0658a2.56477,2.56477,0,0,1-.18779.3774,4.996,4.996,0,0,1-1.79241,1.5742l-17.6778,10.37041c-2.5224,1.4394-10.1914-1.5894-11.203-4.1422a2.85128,2.85128,0,0,1-.07979-.5158A7.91633,7.91633,0,0,1,472.97387,1163.69973Z" class="color121047 svgShape"></path><path fill="#ffffff" d="M476.21346,1150.03113c2.0852,0,9.41541,1.8642,9.41541,1.8642a4.0587,4.0587,0,0,0,.65819,1.9006c.072.0776.1364.161.20481.2484,1.445,1.005,2.91679,2.5946-.516,4.7488a4.76385,4.76385,0,0,1-6.181-.438,5.60348,5.60348,0,0,0-1.994-2.2646,5.00132,5.00132,0,0,0-1.90981-.804,1.23262,1.23262,0,0,0-.01619-.1762S475.34106,1150.03113,476.21346,1150.03113Z" class="colorffffff svgShape"></path><path fill="#0c2340" d="M476.08046,1025.21853c7.995.146,27.97141.50641,35.9582.64481-2.972,24.0238-8.9596,45.84179-12.95379,69.11259-4.29181,22.6108-9.12621,38.504-13.34581,57.3196-1.546,3.5012-8.6146,2.1772-10.0454-1.1948-1.117-17.3306-2.40679-38.4412,2.732-58.4386C477.56846,1071.11133,475.57787,1046.98534,476.08046,1025.21853Z" class="color131147 svgShape"></path><path fill="url(#S)" d="M513.22006,1188.29613c0-12.76379,8.08681-13.13379,8.08681-13.13379s4.37919,0,11.49879-2.951c7.01721-2.9188,16.9154-1.7922,11.387,8.4074a3.77292,3.77292,0,0,1-.1914.3812,4.94666,4.94666,0,0,1-1.798,1.5704l-17.67039,10.37019C521.83626,1194.47513,513.28066,1190.92493,513.22006,1188.29613Z"></path><path fill="#102847" d="M513.26346,1187.15053c.1536,2.6174,8.599,6.1108,11.26941,4.5802l17.67039-10.3572a16.93068,16.93068,0,0,0,2.4958-1.82039c-.167.3508-.3016.6882-.5064,1.0656a3.77292,3.77292,0,0,1-.1914.3812,4.94666,4.94666,0,0,1-1.798,1.5704l-17.67039,10.37019c-2.52061,1.4416-10.192-1.589-11.20281-4.1344a2.32791,2.32791,0,0,1-.0776-.5214A8.70956,8.70956,0,0,1,513.26346,1187.15053Z" class="color121047 svgShape"></path><path fill="#ffffff" d="M516.50866,1173.47994c2.0784,0,9.4146,1.8664,9.4146,1.8664a4.16117,4.16117,0,0,0,.6504,1.9024c.0758.0816.1384.163.2048.2466,1.451,1.005,2.9262,2.5946-.5122,4.7506a4.765,4.765,0,0,1-6.1788-.434,5.69125,5.69125,0,0,0-1.9914-2.2666,5.082,5.082,0,0,0-1.9136-.806,1.25421,1.25421,0,0,0-.019-.1706S515.63426,1173.47994,516.50866,1173.47994Z" class="colorffffff svgShape"></path><path fill="url(#m)" d="M501.44046,1082.34493c-2.185-10.3248-27.3844-11.6072-25.73159-52.216,7.90779-1.1646,47.798,17.54859,55.701,16.3842.98819,24.18119-1.34661,46.69339-1.49621,70.294-.53679,23.0072-2.7122,39.475-3.80279,58.72881-.95021,3.7134-8.13821,3.5582-10.10481.4686-3.9316-16.91741-8.6504-37.54041-6.8468-58.10481C506.80587,1106.50893,504.00087,1094.43913,501.44046,1082.34493Z"></path><path fill="#e539c6" d="M493.94526,951.27934c-28.1392,18.8004-31.494,56.1476-16.2812,79.8394C477.66406,1031.11874,474.39526,978.61234,493.94526,951.27934Z" class="colore57139 svgShape"></path><path fill="url(#T)" d="M492.66126,1053.14713c17.126,9.6176,35.0484,9.6328,41.1572-2.18279-2.2872-22-4.4304-39.9036-.017-60.9916-1.2974-11.6448-2.219-13.3954-.7264-20.1906-.5274-2.2778-7.539-7.13861-12.6386-11.8022-5.5152-5.0278-9.2384-9.8186-12.081-10.397-23.4208-4.783-34.7992,36.95059-32.838,81.4478C477.32466,1040.86334,484.22706,1048.41914,492.66126,1053.14713Z"></path><path fill="#a9d2fc" d="M495.36787,950.23994c5.07859-3.6756,4.67079-11.2638,4.24419-16.3028a24.811,24.811,0,0,1-.94819-8.707c.74919-11.0988,8.47379-20.2192,17.09579-19.0358,17.3818,2.3744,13.65321,11.3604,12.904,22.4628-.696,10.2832-5.8394,17.0462-13.7196,17.7102-.1138,1.6934.5764,6.8294,2.7064,8.965-5.7182,3.4194-14.0612,1.809-17.3632.3244C496.77866,954.06153,492.98566,952.70374,495.36787,950.23994Z" class="colorfcd1a9 svgShape"></path><path fill="#193f6f" d="M522.70287,900.77194c-.41361-1.3902-3.06681-2.2968-12.09641,1.178-.0568.0264-2.1924.859-2.3308.912-16.7124,7.2374-12.6766,26.5102-10.17879,31.6272a10.40474,10.40474,0,0,1,1.31439,6.067c6.5694-.2714,8.65,3.4252,12.85661-.258,3.01939-2.6342,7.53119-5.7314,8.29159-7.0248a5.14326,5.14326,0,0,0,.6148-3.1882c.0168-9.2342,4.2824-3.5958,4.1438-1.46961,1.7506-.85359,1.633-4.567,1.5174-8.69579h0C541.02366,909.33694,533.40687,902.03334,522.70287,900.77194Z" class="color20196f svgShape"></path><path fill="#a9d2fc" d="M531.78346,1059.10233a5.78911,5.78911,0,0,1-8.4832.2808c-2.771-2.9188-1.16839-6.1582-2.6932-7.13679-4.1534-2.66281-5.1094-5.168-4.4078-7.68081,3.31561,2.103,6.7368,5.49221,9.63661,3.43441,2.89619-2.0482,6.66819-4.8818,6.87319-7.8062,4.3126.9844,4.5346,10.3362,2.291,14.08779A39.97035,39.97035,0,0,1,531.78346,1059.10233Z" class="colorfcd1a9 svgShape"></path><path fill="url(#U)" d="M525.95166,1051.75153c-2.1376,5.2228-.6354,8.4356,4.6028,9.0236,13.075-6.6946,20.6802-25.4706,20.8982-35.78039.3774-17.2-7.9752-38.794-18.5844-55.7304-2.4636-3.6396-10.4158-2.25881-14.3286,2.9094-5.29879,6.98479-3.0324,17.1544-.034,21.287,7.683,12.2784,16.2498,21.4236,17.08421,31.259C536.35987,1033.83653,532.64646,1045.83414,525.95166,1051.75153Z"></path></g><g data-name="Man" fill="#f4f6f8" class="color000000 svgShape"><rect width="88.41" height="16.251" x="384.753" y="1146.935" style="mix-blend-mode:multiply" fill="url(#V)"></rect><rect width="88.401" height="16.246" x="344.862" y="1132.72" style="mix-blend-mode:multiply" fill="url(#W)"></rect><path fill="url(#X)" d="M335.53106,1143.95473c0-12.762,8.09081-13.1356,8.09081-13.1356s4.37739,0,11.497-2.9528c7.021-2.9152,16.91719-1.7884,11.385,8.413a2.57411,2.57411,0,0,1-.18761.3774,4.993,4.993,0,0,1-1.7926,1.5742l-17.6776,10.3704C344.14887,1150.13553,335.59187,1146.58133,335.53106,1143.95473Z"></path><path fill="#102847" d="M335.58126,1142.81113c.1502,2.619,8.5944,6.1088,11.2648,4.5802l17.6776-10.361a16.71688,16.71688,0,0,0,2.4886-1.8168c-.1592.3488-.3018.6866-.50839,1.0658a2.57411,2.57411,0,0,1-.18761.3774,4.993,4.993,0,0,1-1.7926,1.5742l-17.6776,10.3704c-2.5224,1.4394-10.1914-1.5894-11.203-4.1422a2.84879,2.84879,0,0,1-.0798-.5158A7.89,7.89,0,0,1,335.58126,1142.81113Z" class="color121047 svgShape"></path><path fill="#ffffff" d="M338.82087,1129.14253c2.085,0,9.41539,1.8644,9.41539,1.8644a4.05941,4.05941,0,0,0,.658,1.9004c.0722.0776.1364.161.205.2484,1.445,1.0052,2.9168,2.5946-.516,4.749a4.76382,4.76382,0,0,1-6.181-.4382,5.60462,5.60462,0,0,0-1.994-2.2646,4.99972,4.99972,0,0,0-1.9098-.8038,1.26554,1.26554,0,0,0-.0162-.1764S337.94846,1129.14253,338.82087,1129.14253Z" class="colorffffff svgShape"></path><path fill="#0c2340" d="M338.68787,1004.32994c7.995.146,27.97139.5064,35.958.645-2.972,24.0238-8.95941,45.8418-12.95361,69.11259-4.2918,22.6106-9.1262,38.5038-13.346,57.3196-1.5458,3.501-8.61439,2.1772-10.04539-1.1948-1.11681-17.3308-2.40661-38.4414,2.73219-58.4388C340.17566,1050.22294,338.18526,1026.09674,338.68787,1004.32994Z" class="color131147 svgShape"></path><path fill="url(#Y)" d="M375.42806,1158.17753c0-12.7638,8.0866-13.1338,8.0866-13.1338s4.37921,0,11.499-2.951c7.01721-2.9188,16.9154-1.7922,11.3868,8.4074a3.77033,3.77033,0,0,1-.1912.3812,4.95223,4.95223,0,0,1-1.798,1.5706l-17.6706,10.37C384.04406,1164.35653,375.48866,1160.80633,375.42806,1158.17753Z"></path><path fill="#102847" d="M375.47146,1157.03193c.1536,2.6174,8.5988,6.1108,11.2692,4.5802l17.6706-10.357a16.95029,16.95029,0,0,0,2.49561-1.8206c-.16681.3508-.30141.6882-.50641,1.0656a3.77033,3.77033,0,0,1-.1912.3812,4.95223,4.95223,0,0,1-1.798,1.5706l-17.6706,10.37c-2.5204,1.4416-10.19179-1.589-11.20279-4.1344a2.3274,2.3274,0,0,1-.07761-.5214A8.70967,8.70967,0,0,1,375.47146,1157.03193Z" class="color121047 svgShape"></path><path fill="#ffffff" d="M378.71646,1143.36153c2.0786,0,9.4146,1.8662,9.4146,1.8662a4.16216,4.16216,0,0,0,.6506,1.9024c.0756.0816.13821.163.2046.2466,1.451,1.005,2.9264,2.5946-.5122,4.7506a4.76513,4.76513,0,0,1-6.1788-.434,5.69065,5.69065,0,0,0-1.9912-2.2666,5.08238,5.08238,0,0,0-1.9138-.806,1.26378,1.26378,0,0,0-.0188-.1706S377.84206,1143.36153,378.71646,1143.36153Z" class="colorffffff svgShape"></path><path fill="url(#Z)" d="M363.64826,1052.22634c-2.1848-10.32481-27.38439-11.6072-25.73139-52.216,7.90759-1.1646,47.79779,17.5488,55.701,16.38419.98819,24.18121-1.34661,46.6934-1.49641,70.2942-.5368,23.007-2.7122,39.4748-3.8028,58.7286-.95,3.7134-8.138,3.5582-10.10479.4686-3.93161-16.9174-8.65021-37.5404-6.84661-58.1048C369.01387,1076.39033,366.20887,1064.32053,363.64826,1052.22634Z"></path><path fill="url(#n)" d="M353.98346,925.19914c-18.35159,12.6718-27.1,28.959-28.0128,36.8116-1.4422,12.40679,4.259,20.7146,12.812,40.85,0,0,.3134-13.3478.4128-18.3464-.9218-3.069-3.62559-12.5832-2.87359-17.4944.66239-4.325,13.35379-13.83241,14.94-18.48241C355.15287,937.12974,347.98646,933.58374,353.98346,925.19914Z"></path><path fill="#a9d2fc" d="M444.34706,902.72853l-.05119.04941c1.36419-2.7276,2.72979-4.03041,4.01419-3.9702.5532-.5386,1.13181-1.09921,1.6884-1.63221,3.262-3.12739,9.155-4.25939,9.6076-2.90119.2732.8204-2.732,1.4106-4.7824,2.6508a7.22513,7.22513,0,0,0-2.3782,2.3786s4.85941,3.02679,2.7406,7.2634c-1.7228,3.4448-2.90119,1.1536-2.562.4752-3.059,2.83119-3.5904-.0126-5.61719,2.5276l-4.297-5.1978S443.36187,903.71253,444.34706,902.72853Z" class="colorfcd1a9 svgShape"></path><path fill="url(#aa)" d="M442.06026,904.39734c-1.7192.8406-19.5162,16.7444-26.0332,21.4514-6.75319,2.1294-16.5896,5.3436-21.7178,6.60779-3.8266.33861-5.9382.29761-12.87139-3.38859-6.74461-3.586-14.334-4.723-17.17661-5.30141-23.4208-4.783-28.7138,38.74741-26.7528,83.24441,3.299,10.9454,8.3292,12.9904,18.2742,16.9312,8.3148,3.2948,33.6688,8.25339,40.2438-3.0964-2.264-21.77521-6.4782-45.9958-2.28459-66.9366,10.00539-5.0548,22.21079-7.67261,31.045-15.0302,13.50419-11.2468,19.776-24.809,22.294-28.391C448.05826,909.09774,446.07126,903.84494,442.06026,904.39734Z"></path><path fill="#bbd0e6" d="M424.78687,938.87894c-2.25341,1.72059-24.00681,9.3154-33.15041,11.04059s-4.6632,4.09361-3.9058,9.20761c1.037,7.0048,2.15021,36.2352,6.8556,48.9986v-.0006c-2.1278-18.1984-4.236-37.2794-.84439-54.216C403.74726,948.85434,415.95287,946.23653,424.78687,938.87894Z" class="colorbbc0e6 svgShape"></path><path fill="#a9d2fc" d="M355.96926,924.39014c5.237-3.78661,4.45961-6.2624,3.6768-11.416a25.607,25.607,0,0,1-1.58119-8.8948c0-11.4786,7.30659-21.395,16.26579-20.77781,18.0514,1.23761,14.8418,10.73581,14.8418,22.21441,0,10.6312-4.8244,17.9468-12.889,19.181,0,1.747,1.682,2.8238,3.8786,3.726-5.8944,3.5322-14.7366,4.10859-18.6744,2.57459C357.78287,929.55434,353.51087,926.93194,355.96926,924.39014Z" class="colorfcd1a9 svgShape"></path><path fill="#0c2340" d="M360.44087,882.55694c3.14359-3.0316,6.801-.1252,8.62819-1.074q.4734-.2253.9886-.4758l.00521-.00361c2.39379-1.42959,1.24639-2.479,3.46059-3.79719,2.1898-1.30581,4.3116.5076,5.7342.03319l-.0054.00861c3.3684-1.0548,6.4072-1.4942,7.7358-.25961a9.40653,9.40653,0,0,1,1.7312,2.27681l-.002-.00181c1.1352,1.897,5.05761-.54219,4.8118,3.55841-.2264,3.84959-1.6684,5.13259-2.2768,11.02359-.0242.34-.0506.68161-.089,1.01641-.00339.06959-.0138.129-.0172.19359-.0054,0-.0054-.00339-.00719-.014-.45661,3.81281-1.68221,4.82741-3.62121,6.76621-1.8826,1.88279-1.81979.101-1.914-.6434-.1762-1.4014-.5752-2.6502-1.4086-2.596-.849.056-2.5298.4816-3.3928,4.1776-.62239,2.6672,1.1768,2.0814,1.013,2.8154-2.418,10.8596-6.4698,10.0366-11.0828,11.34119a14.071,14.071,0,0,1-10.8652-1.08479c-1.1122-4.1578-1.5516-6.5988-2.08839-8.54621a33.70108,33.70108,0,0,1,.035-11.79759c0-.01241-.01081-.00541-.009-.01741C359.08806,890.38674,357.36746,885.52253,360.44087,882.55694Z" class="color131147 svgShape"></path><path fill="url(#ab)" d="M380.16206,928.42294c0-.6162-1.0958-2.6652-3.0118-1.7926-5.94039,2.7048-13.4686,2.666-18.2468.0134-1.17859-.65421-2.19659-1.78021-1.8232-3.1428a1.8595,1.8595,0,0,0-2.0022,1.435c-.1924.5682-.6566,2.4584,1.8342,4.22659C359.56846,931.04834,368.05626,935.24174,380.16206,928.42294Z"></path></g></g></g></svg>