<svg xmlns="http://www.w3.org/2000/svg" enable-background="new 0 0 50 50" viewBox="0 0 50 50" id="BusinessCalculation"><path fill="#6822a2" d="M2.8649902 27.1784935l-.1799927.1400146-.1499634-1.1799927-1.4800415-.8600464.1900024-.1399536c8.8599854-6.4700317 15.9200439-17.8200073 17.9500122-21.2700195l-1-.5800171 3.2299805-2.289978 1.4700317.8599854-.5499878 3.8099976-.8800049-.5C19.9150391 7.7984886 12.2850342 20.3084984 2.8649902 27.1784935zM7.1149902 33.2384911l-2.6300049 1.5200195L3.0050049 33.908474l-.0100098-4.25C3.8950195 28.9985008 4.7750244 28.2984886 5.625 27.5685081l1.4799805.8599854L7.1149902 33.2384911zM48.9450073 33.6885033l-.0100098 1.5199585c0 .210022-.1400146.4100342-.4199829.5700073L26.1950073 48.7585106c-.5499878.3200073-1.4500122.3200073-2 0L7.0449829 38.8684959c-.2799683-.1600342-.4099731-.3800049-.4099731-.5800171v-1.5299683c0-.2000122.1400146-.4100342.4099731-.5700073L29.375 23.2084618c.5599976-.3199463 1.4500122-.3199463 2 0l17.1400146 9.8900146c.3099976.1799927.4500122.4199829.4199829.6600342C48.9349976 33.7284813 48.9450073 33.7084618 48.9450073 33.6885033zM10.8150024 22.5284691l1.4700317.8500366.0199585 6.8699951-2.6300049 1.5199585L8.1950073 30.908474l-.0100098-5.6799927C9.085022 24.3484764 9.9650269 23.4385033 10.8150024 22.5284691zM21.1650391 8.6285057l1.4699707.8499756.0499878 14.7800293-2.6400146 1.5199585-1.4699707-.8599854-.039978-12.2299805C19.6049805 11.1084862 20.4949951 9.7184715 21.1650391 8.6285057zM26.3049927 17.9184837c0-.1699829.0200195-.3399658.0800171-.5-.0599976-.1699829-.0900269-.3499756-.0900269-.5299683l.0100098-1.5200195c-.0100098-.710022.4500122-1.4199829 1.3800049-1.960022 1.8500366-1.0700073 4.8599854-1.0700073 6.7300415 0 .9399414.5400391 1.4099731 1.2600098 1.3999634 1.9700317l-.0100098 1.539978c0 .1600342-.0299683.3200073-.0799561.4799805.0599976.1700439.0899658.3500366.0899658.5200195l-.0100098 1.539978c0 .2700195-.0700073.5400391-.2000122.8000488-.0499878.0999756-.1099854.1999512-.1899414.289978-.1400146.1900024-.3200073.3699951-.5400391.539978-.0700073.0599976-.1300049.1000366-.2000122.1400146-.0700073.0599976-.1599731.1099854-.2399902.1600342C34.335022 21.448513 34.2349854 21.4985008 34.125 21.5584984c-.0599976.0299683-.1199951.0599976-.1900024.0899658-.1799927.0800171-.3599854.1400146-.5499878.210022-.0599976.0100098-.1199951.0300293-.1900024.0499878-.1799927.0499878-.3599854.1000366-.5599976.1400146-.0599976.0100098-.1300049.0200195-.1900024.039978-.1799927.0300293-.3599854.0500488-.5499878.0700073-.0599976 0-.1300049.0100098-.1900024.0100098-.1799927.0200195-.3699951.0300293-.5499878.0300293h-.1900024c-.1900024 0-.3699951-.0100098-.5499878-.0300293-.0600586 0-.1300049-.0100098-.1900024-.0100098-.1900024-.0199585-.3700562-.0499878-.5599976-.0799561-.0600586-.0100098-.1300049-.0200195-.1900024-.0400391-.1800537-.039978-.3700562-.0800171-.5500488-.1400146-.0700073-.0099487-.1300049-.0299683-.1900024-.0499878-.1900024-.0599976-.3800049-.1300049-.5499878-.2199707-.0700073-.0200195-.1300049-.0499878-.2000122-.0800171-.0999756-.0599976-.1900024-.0999756-.2799683-.1599731-.0900269-.0500488-.1799927-.1000366-.2600098-.1600342-.0700073-.039978-.1300049-.0899658-.1900024-.1400146-.2299805-.1699829-.4099731-.3499756-.5499878-.539978-.0800171-.0900269-.1500244-.1900024-.1900024-.2999878-.1500244-.2600098-.2200317-.5300293-.2200317-.8099976L26.3049927 17.9184837zM37.7349854 22.5284691c0-.1699829.0200195-.3399658.0800171-.5100098-.0599976-.1699829-.0899658-.3399658-.0899658-.5199585l.0099487-1.5200195c0-.1699829.0200195-.3399658.0800171-.5-.0599976-.1699829-.0899658-.3499756-.0899658-.5299683l.0099487-1.5200195c0-.1699829.0200195-.3400269.0800171-.5-.0599976-.1699829-.0899658-.3499756-.0899658-.5300293l.0099487-1.539978c0-.7000122.460022-1.4000244 1.3800049-1.9400024 1.8500366-1.0700073 4.8600464-1.0700073 6.7300415 0 .9400024.539978 1.4099731 1.2600098 1.3999634 1.9700317l-.0100098 1.539978c0 .1699829-.0199585.3300171-.0799561.4899902.0599976.1699829.0899658.3400269.0899658.5100098l-.0100098 1.539978c0 .1600342-.0199585.3200073-.0799561.4800415v.0099487c.0599976.1700439.0899658.3500366.0899658.5200195l-.0100098 1.539978c0 .1700439-.0199585.3300171-.0799561.4900513.0700073.1699829.0899658.3499756.0899658.5199585l-.0100098 1.5400391c0 .2699585-.0599976.539978-.1999512.789978-.0500488.0999756-.1100464.2000122-.1900024.289978-.1400146.2000122-.3200073.3800049-.5400391.5500488-.0700073.0499878-.1300049.0999756-.2000122.1399536-.0699463.0599976-.1599731.1100464-.2399902.1600342-.0999756.0499878-.1999512.1099854-.3099976.1599731-.0599976.0300293-.1199951.0599976-.1900024.0900269-.1799927.0800171-.3599854.1499634-.5499878.2099609-.0599976.0200195-.1199951.0400391-.1900024.0599976-.1799927.0500488-.3599854.1000366-.5599976.1300049-.0599976.0200195-.1300049.0300293-.1900024.0400391-.1799927.0299683-.3599854.0599976-.5499878.0700073-.0599976.0099487-.1300049.0199585-.1900024.0199585-.1799927.0200195-.3699951.0300293-.5499878.0300293h-.1900024c-.1900024 0-.3699951-.0200195-.5499878-.0300293-.0599976 0-.1300049-.0100098-.1900024-.0199585-.1900024-.0100098-.3699951-.0400391-.5599976-.0700073-.0599976-.0100098-.1300049-.0300293-.1900024-.0400391-.1799927-.039978-.3699951-.0899658-.5500488-.1399536-.0699463-.0200195-.1299438-.0300293-.1899414-.0599976-.1900024-.0599976-.3800049-.1300049-.5500488-.210022-.0700073-.0200195-.1300049-.0599976-.1999512-.0900269-.1000366-.0499878-.1900024-.0999756-.2800293-.1499634S38.9550171 25.8885155 38.875 25.8384666c-.0700073-.0499878-.1300049-.0899658-.1900024-.1499634-.2299805-.1600342-.4099731-.3400269-.5499878-.5400391-.0800171-.0899658-.1500244-.1900024-.1900024-.2999878-.1500244-.2600098-.2199707-.5299683-.2199707-.7999878L37.7349854 22.5284691zM15.9849854 16.2485008l1.4800415.8499756.0299683 10.1500244-2.6400146 1.5199585-1.4699707-.8499756-.0300293-8.3300171C14.2949829 18.448513 15.1749878 17.3285179 15.9849854 16.2485008z" class="color5b5e71 svgShape"></path><polygon fill="#a50b89" points="2.536 26.14 1.06 25.282 1.211 26.457 2.686 27.314" class="colore63044 svgShape"></polygon><g fill="#0c2340" class="color000000 svgShape"><path fill="#f4f6f8" d="M7.1026587,28.4248562l-1.4751716-0.8572731c-0.8545814,0.7291889-1.7360389,1.4329453-2.6309783,2.088089
			l1.4751813,0.8572826C5.3666248,29.8578072,6.2480826,29.1540508,7.1026587,28.4248562z" class="color748bfd svgShape"></path><polygon fill="#6157fb" points="4.472 30.513 2.997 29.656 3.009 33.904 4.484 34.761" class="color576cfb svgShape"></polygon><path fill="#5046e4" d="M7.1026587,28.4248562c-0.8545761,0.7291946-1.7360339,1.432951-2.6309729,2.0880947l0.012044,4.2483711
			l2.6325841-1.5199203L7.1026587,28.4248562z" class="color4562ef svgShape"></path><path fill="#986eba" d="M12.286334,23.381237c-0.845129,0.9186554-1.7215347,1.8244953-2.6292324,2.7074413l0.0160923,5.676506
			l2.6325989-1.5199318L12.286334,23.381237z" class="color6eba6e svgShape"></path><path fill="#98b8d8" d="M12.286334,23.381237l-1.4751673-0.8572769c-0.8451385,0.9186535-1.7215443,1.8244915-2.6292419,2.7074394
			l1.4751797,0.8572865C10.5647993,25.2057323,11.441205,24.2998924,12.286334,23.381237z" class="color9ad898 svgShape"></path><polygon fill="#a375ca" points="9.657 26.089 8.182 25.231 8.198 30.908 9.673 31.765" class="color75ca75 svgShape"></polygon><path fill="#7abcfe" d="M22.6384029,9.4834318l-1.4751759-0.857275c-0.6661739,1.0920935-1.5545845,2.4817553-2.6254025,4.0587177
			l1.4751835,0.8572826C21.0838203,11.9651909,21.972229,10.5755291,22.6384029,9.4834318z" class="colorfed57a svgShape"></path><polygon fill="#4aa1f9" points="20.013 13.542 18.538 12.685 18.573 24.918 20.048 25.775" class="colorf9bb4a svgShape"></polygon><path fill="#bac4ce" d="M48.9401093,33.6850853L48.930748,35.209713c0,0.2058067-0.1402702,0.4115562-0.4115562,0.57061
				L26.1923237,48.7629662c-0.5518265,0.3180428-1.4497852,0.3180428-2.0016689,0L7.0456805,38.8669739
				c-0.2805943-0.15905-0.4115577-0.3741646-0.4115577-0.5799141v-1.5246277c0,0.2057495,0.1402688,0.4209175,0.4209204,0.5799141
				l17.1356125,9.8960457c0.5612469,0.3179893,1.4498425,0.3179893,2.0016689,0L48.528553,34.2556915
				C48.7998428,34.0966415,48.9401093,33.890892,48.9401093,33.6850853z" class="colorbac1ce svgShape"></path><path fill="#d4dee8" d="M48.5180435,33.101181c0.5553932,0.3206558,0.5583038,0.8378334,0.0065231,1.158493
				L26.1923943,47.2377129c-0.5517807,0.3206635-1.4446411,0.3206673-2.0000324,0.0000114L7.0529962,37.3423042
				c-0.5553913-0.3206558-0.5583224-0.837841-0.0065408-1.1585045L29.3786259,23.205761
				c0.5517826-0.3206596,1.4446621-0.320652,2.0000515,0.0000019L48.5180435,33.101181z" class="colord4dae8 svgShape"></path><path fill="#ef41cf" d="M22.6384029,9.4834318c-0.6661739,1.0920973-1.5545826,2.4817591-2.6254025,4.0587215
			l0.0346813,12.2333174l2.6325989-1.5199318L22.6384029,9.4834318z" class="colorefac41 svgShape"></path><path fill="#724c91" d="M17.4620419,17.1015854l-1.4751701-0.8572712
			c-0.8134375,1.0848312-1.6892347,2.2057476-2.6274405,3.3421135l1.4751787,0.8572845
			C15.7728138,19.3073425,16.6486111,18.1864262,17.4620419,17.1015854z" class="color4c7891 svgShape"></path><polygon fill="#664184" points="14.835 20.444 13.359 19.586 13.383 27.914 14.858 28.772" class="color416e84 svgShape"></polygon><path fill="#5c377b" d="M17.4620419,17.1015854c-0.8134308,1.0848408-1.6892281,2.2057571-2.6274338,3.3421211
			l0.0236101,8.3279037l2.6325979-1.5199318L17.4620419,17.1015854z" class="color37617b svgShape"></path><polygon fill="#fa51db" points="22.897 1.859 21.422 1.002 18.198 3.293 19.673 4.151" class="colorfa5168 svgShape"></polygon><path fill="#f348d4" d="M20.6714878,4.7220726c-2.023304,3.4535084-9.0908585,14.8048611-17.9514275,21.2793999
				L2.5386553,26.140976l-1.4790893-0.858139l0.1813624-0.1395874C10.1015396,18.6687946,17.1690941,7.3174415,19.1924,3.8638484
				L20.6714878,4.7220726z" class="colorf34858 svgShape"></path><path fill="#f960dd" d="M22.8972816,1.8587961l-3.2238369,2.2919335l0.9966087,0.5730324
				c-2.0247879,3.4504933-9.0912914,14.8002911-17.9518528,21.2797222l-0.1825559,0.1361351l0.1505661,1.1742859
				l0.1825562-0.1361332C12.2859354,20.3052197,19.9158096,7.7995934,21.461031,5.1642742l0.8848667,0.5043111L22.8972816,1.8587961
				z" class="colorf9607f svgShape"></path><path fill="#4aa1f9" d="M47.2470474,22.5274086l-0.0077057,1.5393238c0,0.2693634-0.0692444,0.5387268-0.200119,0.7927284
				c-0.0538368,0.1000595-0.1154213,0.200119-0.1924171,0.2924747c-0.1385307,0.1924152-0.3232422,0.3771267-0.5464287,0.5464764
				c-0.0615845,0.0538826-0.1231728,0.1000614-0.1924133,0.1385345c-0.0769958,0.0615387-0.1616478,0.1077633-0.2462997,0.1615982
				c-0.1000595,0.0538826-0.200119,0.1077652-0.3078842,0.1616459c-0.0615387,0.0307693-0.1231232,0.0615864-0.1924133,0.0923557
				c-0.1770096,0.0769939-0.3540154,0.1462383-0.5464325,0.2078247c-0.0615845,0.0153599-0.1231689,0.0384731-0.1924133,0.0538807
				c-0.1770554,0.0538826-0.3617668,0.1000614-0.5541801,0.1385345c-0.0615425,0.0153618-0.1308327,0.0230656-0.1924171,0.0384731
				c-0.1847115,0.0307693-0.3617172,0.0538826-0.5464287,0.0692902c-0.0615883,0.007658-0.1308784,0.0153618-0.1924171,0.0153618
				c-0.1847572,0.0231133-0.3694687,0.030817-0.5541801,0.030817H42.39048c-0.1847115,0-0.3694229-0.0154095-0.5464745-0.030817
				c-0.0615387,0-0.1308289-0.0077038-0.1924171-0.0153618c-0.1847115-0.0154076-0.3694229-0.0461769-0.5541344-0.0769939
				c-0.0615845-0.0077038-0.1308289-0.0230656-0.1924133-0.0384731c-0.1847115-0.038475-0.3694229-0.0846519-0.5464783-0.1385345
				c-0.0692444-0.0154076-0.1308289-0.030817-0.1924171-0.0538807c-0.1924133-0.0615864-0.3771248-0.1308308-0.5541306-0.2155285
				c-0.0692902-0.0230656-0.1308327-0.0538349-0.1924171-0.0846519c-0.1000595-0.0538826-0.1924171-0.1000595-0.284771-0.1539421
				c-0.0923576-0.0538349-0.1847115-0.1077156-0.2617073-0.1615982c-0.0692406-0.0461788-0.1308289-0.0923557-0.1924133-0.1462383
				c-0.2231865-0.1616459-0.4078979-0.3463573-0.5464325-0.5387726c-0.076992-0.0923557-0.1462364-0.1924152-0.1924133-0.3001785
				c-0.1462364-0.2616596-0.2155266-0.5310688-0.2155266-0.808136l0.0077019-1.5470276
				c0,0.2770672,0.0692444,0.5464764,0.2078247,0.8081341c0.053833,0.1000614,0.1154213,0.2001209,0.1924133,0.3001804
				c0.1385345,0.1924152,0.323246,0.3771267,0.5464325,0.5464764c0.0615845,0.0538826,0.1231728,0.1000595,0.1924133,0.1462383
				c0.0846519,0.0538807,0.1693497,0.1077633,0.2617073,0.1615982c0.0923538,0.0538826,0.1847115,0.1000595,0.284771,0.1539421
				c0.0615845,0.030817,0.123127,0.0615864,0.1924171,0.0846519c0.1770058,0.0846977,0.3617172,0.1539421,0.5541306,0.2155285
				c0.0615883,0.0230637,0.1308784,0.0384731,0.1924171,0.0538807c0.1770554,0.0538826,0.3617668,0.1000595,0.5464783,0.1385345
				c0.0615845,0.0154076,0.1231232,0.0307693,0.1924133,0.0384731c0.1847115,0.030817,0.3694229,0.0615864,0.5541344,0.0769939
				c0.0615883,0.007658,0.1231728,0.0153618,0.1924171,0.0153618c0.1770515,0.0154076,0.361763,0.030817,0.5464745,0.0231113
				c0.0615883,0.0077057,0.1308289,0.0077057,0.1924171,0.0077057c0.1847115,0,0.3694229-0.0077057,0.5541801-0.030817
				c0.0615387,0,0.1308289-0.0077038,0.1924171-0.0153618c0.1847115-0.0154076,0.3694229-0.0385208,0.5464287-0.0692902
				c0.0615845-0.0154076,0.1308746-0.0231113,0.1924171-0.0384731c0.1924133-0.0384731,0.3771248-0.0846519,0.5541801-0.1385345
				c0.0692444-0.0154076,0.1308289-0.0308151,0.1924133-0.0538807c0.1924171-0.0615864,0.3694229-0.1308308,0.5464325-0.2078247
				c0.0692902-0.0307693,0.1308746-0.0538807,0.1924133-0.0846519c0.1077652-0.0538807,0.2155304-0.1077633,0.3155899-0.1693497
				c0.0846519-0.0461769,0.1615982-0.1000595,0.2385941-0.1538944c0.0692406-0.0385208,0.1308289-0.0846977,0.1924133-0.1385803
				c0.2231865-0.1693039,0.4078979-0.3463097,0.5464287-0.5387268c0.0769958-0.1000595,0.1385803-0.200119,0.1924171-0.3001785
				C47.177803,23.0661354,47.2470474,22.796772,47.2470474,22.5274086z" class="colorf9bb4a svgShape"></path><path fill="#7abcfe" d="M45.8404312,20.5633984c1.8626213,1.075386,1.8761597,2.8212833,0.0256691,3.8966732
				c-1.8542442,1.0775681-4.8683891,1.0754318-6.7310143,0.0000458c-1.8626213-1.075386-1.8724632-2.819149-0.018219-3.8967171
				C40.9673576,19.4880104,43.9778061,19.4880123,45.8404312,20.5633984z" class="colorfed57a svgShape"></path><path fill="#d839bb" d="M45.4951935,20.7652988c-1.6691284-0.9663315-4.3704491-0.9663315-6.0322495,0
				c-0.8930969,0.5197372-1.303051,1.20788-1.2298622,1.8886948c0.0512505-0.5783157,0.4685326-1.1493473,1.2298622-1.5958958
				c1.6618004-0.9663315,4.363121-0.9663315,6.0322495,0c0.7759895,0.4465485,1.1932716,1.0249081,1.2444763,1.6105518
				C46.8202286,21.9878349,46.3956184,21.2850361,45.4951935,20.7652988z" class="colord89b39 svgShape"></path><path fill="#ef41cf" d="M45.4951935,21.0580978c-1.6691284-0.9663315-4.3704491-0.9663315-6.0322495,0
				c-0.7613297,0.4465485-1.1786118,1.01758-1.2298622,1.5958958c0.0512505,0.5856876,0.4758606,1.1566753,1.2445183,1.6032238
				c1.6764565,0.9663296,4.3777313,0.9663296,6.0395355,0c0.7613754-0.4392223,1.1713295-1.0102539,1.2225342-1.5885677
				C46.6884651,22.0830059,46.271183,21.5046463,45.4951935,21.0580978z" class="colorefac41 svgShape"></path><path fill="#f4f6f8" d="M44.3309669,21.5855179l0.4539375-0.2636318l-0.3454323-0.1996326l-0.4598732,0.2674484
				l-0.0508614-0.0233116c-0.3428917-0.1555519-0.7078247-0.2352352-1.0846252-0.2365074c-0.0025406,0-0.005085,0-0.0080528,0
				c-0.3674736,0-0.6955299,0.0826511-0.9756927,0.2449837c-0.259819,0.1513138-0.3865471,0.3026257-0.3763771,0.4497013
				c0.0118675,0.1640282,0.1466522,0.3734074,0.4018059,0.6230545l0.10215,0.0996037l-0.9824753,0.5709209l-0.0593414-0.0635777
				c-0.1530075-0.1648769-0.2543068-0.3857002-0.3017769-0.6573849l-0.8697319,0.0491657
				c0.064846,0.3327198,0.2585449,0.6289883,0.5764313,0.8807526l0.1246109,0.0991802l-0.3602715,0.2089558l0.3454361,0.1996326
				l0.362812-0.2110767l0.0508614,0.0233116c0.3636589,0.1661472,0.7408829,0.2517643,1.1214981,0.2547321
				c0.370018,0.005085,0.7133331-0.0788364,0.9973106-0.2437115c0.2610893-0.1517372,0.3869705-0.3068657,0.3738327-0.4611454
				c-0.0152588-0.1742001-0.1555519-0.3924809-0.4179153-0.649332l-0.1017227-0.0996037l0.9545021-0.5548153l0.0589142,0.0601864
				c0.1318169,0.1343594,0.2331161,0.3026257,0.3022041,0.5005627l0.8303146-0.0868893
				c-0.1080818-0.264904-0.2873688-0.4942036-0.5340462-0.683239L44.3309669,21.5855179z M42.2130051,23.3805065
				c-0.1085014,0.0631542-0.2309952,0.0945187-0.3662033,0.0945187c-0.0987549,0-0.2042923-0.016531-0.3166122-0.0504379
				l-0.2394714-0.0720539l0.9489899-0.551424l0.0572205,0.0796833c0.0796814,0.1097755,0.110199,0.2038708,0.092823,0.2873669
				C42.3740692,23.249115,42.3147278,23.3211689,42.2130051,23.3805065z M42.5931969,22.1954327l-0.0550995-0.0919743
				c-0.0529823-0.088583-0.069088-0.1742001-0.0483208-0.2551556c0.0216179-0.0839214,0.0822296-0.1555519,0.1801376-0.212347
				c0.1661453-0.0974846,0.3691673-0.1118946,0.60186-0.0478954l0.2475281,0.0695114L42.5931969,22.1954327z" class="colorffffff svgShape"></path><path fill="#d839bb" d="M47.0392227 23.3278408v1.53162c-.0538368.1000595-.1154213.200119-.1924171.2924747v-1.5239162C46.9238014 23.5279598 46.9853859 23.4279003 47.0392227 23.3278408zM46.3003769 24.1667461v1.5316658c-.0615845.0538826-.1231728.1000614-.1924133.1385345v-1.53162C46.1772041 24.2668056 46.2387924 24.2206287 46.3003769 24.1667461zM45.5537796 24.6285706v1.53162c-.0615387.0307693-.1231232.0615864-.1924133.0923557v-1.5393238C45.4306564 24.6824532 45.4922409 24.6593418 45.5537796 24.6285706zM44.8149338 24.9210472v1.5393238c-.0615845.0153599-.1231689.0384731-.1924133.0538807v-1.5393238C44.6917648 24.9595203 44.7533493 24.9441128 44.8149338 24.9210472zM44.0683403 25.1134624v1.5393238c-.0615425.0153618-.1308327.0230656-.1924171.0384731v-1.5393238C43.9375076 25.136528 44.0067978 25.1288242 44.0683403 25.1134624zM43.3294945 25.2212257v1.5393238c-.0615883.007658-.1308784.0153618-.1924171.0153618v-1.5393238C43.198616 25.2365875 43.2679062 25.2288837 43.3294945 25.2212257zM42.5828972 25.2674046v1.5393238H42.39048v-1.5470295C42.4520683 25.2674046 42.5213089 25.2674046 42.5828972 25.2674046zM41.8440056 25.2365875v1.5393238c-.0615387 0-.1308289-.0077038-.1924171-.0153618v-1.5393238C41.7131767 25.2288837 41.7747612 25.2365875 41.8440056 25.2365875zM41.0974541 25.1442318v1.5393238c-.0615845-.0077038-.1308289-.0230656-.1924133-.0384731v-1.5393238C40.9666252 25.1211662 41.0281639 25.136528 41.0974541 25.1442318zM40.3585625 24.9672241v1.5393238c-.0692444-.0154076-.1308289-.030817-.1924171-.0538807v-1.5393238C40.2277336 24.9364071 40.2970238 24.9518166 40.3585625 24.9672241zM39.6120148 24.6978149v1.5393238c-.0692902-.0230656-.1308327-.0538349-.1924171-.0846519V24.613163C39.4811821 24.64398 39.5427246 24.6747494 39.6120148 24.6978149zM38.8731194 24.2976227v1.5393238c-.0692406-.0461788-.1308289-.0923557-.1924133-.1462383v-1.5393238C38.7422905 24.205267 38.8038788 24.2514439 38.8731194 24.2976227zM38.1342735 23.604908v1.5470276c-.076992-.0923557-.1462364-.1924152-.1924133-.3001785v-1.5470295C37.9956932 23.404789 38.0572815 23.5048485 38.1342735 23.604908z" class="colord89b39 svgShape"></path><path fill="#4aa1f9" d="M47.2470474,19.9802399l-0.0077057,1.5393238c0,0.2693615-0.0692444,0.5387249-0.200119,0.7927265
				c-0.0538368,0.1000595-0.1154213,0.2001209-0.1924171,0.2924747c-0.1385307,0.1924171-0.3232422,0.3771286-0.5464287,0.5464783
				c-0.0615845,0.0538807-0.1231728,0.1000595-0.1924133,0.1385326c-0.0769958,0.0615387-0.1616478,0.1077652-0.2462997,0.1616001
				c-0.1000595,0.0538807-0.200119,0.1077633-0.3078842,0.1616459c-0.0615387,0.0307693-0.1231232,0.0615845-0.1924133,0.0923557
				c-0.1770096,0.0769939-0.3540154,0.1462364-0.5464325,0.2078228c-0.0615845,0.0153618-0.1231689,0.0384731-0.1924133,0.0538826
				c-0.1770554,0.0538807-0.3617668,0.1000595-0.5541801,0.1385326c-0.0615425,0.0153618-0.1308327,0.0230656-0.1924171,0.038475
				c-0.1847115,0.0307693-0.3617172,0.0538807-0.5464287,0.0692902c-0.0615883,0.0076561-0.1308784,0.0153599-0.1924171,0.0153599
				c-0.1847572,0.0231133-0.3694687,0.030817-0.5541801,0.030817H42.39048c-0.1847115,0-0.3694229-0.0154076-0.5464745-0.030817
				c-0.0615387,0-0.1308289-0.0077038-0.1924171-0.0153599c-0.1847115-0.0154095-0.3694229-0.0461788-0.5541344-0.0769958
				c-0.0615845-0.0077038-0.1308289-0.0230656-0.1924133-0.0384731c-0.1847115-0.0384731-0.3694229-0.0846519-0.5464783-0.1385326
				c-0.0692444-0.0154095-0.1308289-0.030817-0.1924171-0.0538826c-0.1924133-0.0615864-0.3771248-0.1308289-0.5541306-0.2155285
				c-0.0692902-0.0230656-0.1308327-0.0538349-0.1924171-0.0846519c-0.1000595-0.0538807-0.1924171-0.1000595-0.284771-0.1539402
				c-0.0923576-0.0538349-0.1847115-0.1077175-0.2617073-0.1616001c-0.0692406-0.0461769-0.1308289-0.0923557-0.1924133-0.1462364
				c-0.2231865-0.1616459-0.4078979-0.3463573-0.5464325-0.5387745c-0.076992-0.0923538-0.1462364-0.1924152-0.1924133-0.3001785
				c-0.1462364-0.2616596-0.2155266-0.5310688-0.2155266-0.808136l0.0077019-1.5470276
				c0,0.2770672,0.0692444,0.5464764,0.2078247,0.808136c0.053833,0.1000595,0.1154213,0.200119,0.1924133,0.3001785
				c0.1385345,0.1924152,0.323246,0.3771267,0.5464325,0.5464783c0.0615845,0.0538807,0.1231728,0.1000595,0.1924133,0.1462364
				c0.0846519,0.0538826,0.1693497,0.1077652,0.2617073,0.1616001c0.0923538,0.0538807,0.1847115,0.1000595,0.284771,0.1539402
				c0.0615845,0.030817,0.123127,0.0615864,0.1924171,0.0846519c0.1770058,0.0846996,0.3617172,0.1539421,0.5541306,0.2155285
				c0.0615883,0.0230656,0.1308784,0.0384731,0.1924171,0.0538826c0.1770554,0.0538807,0.3617668,0.1000595,0.5464783,0.1385326
				c0.0615845,0.0154076,0.1231232,0.0307693,0.1924133,0.0384731c0.1847115,0.030817,0.3694229,0.0615864,0.5541344,0.0769958
				c0.0615883,0.0076561,0.1231728,0.0153599,0.1924171,0.0153599c0.1770515,0.0154095,0.361763,0.030817,0.5464745,0.0231133
				c0.0615883,0.0077038,0.1308289,0.0077038,0.1924171,0.0077038c0.1847115,0,0.3694229-0.0077038,0.5541801-0.030817
				c0.0615387,0,0.1308289-0.0077038,0.1924171-0.0153599c0.1847115-0.0154095,0.3694229-0.0385208,0.5464287-0.0692921
				c0.0615845-0.0154076,0.1308746-0.0231113,0.1924171-0.0384731c0.1924133-0.0384731,0.3771248-0.0846519,0.5541801-0.1385326
				c0.0692444-0.0154095,0.1308289-0.030817,0.1924133-0.0538826c0.1924171-0.0615864,0.3694229-0.1308289,0.5464325-0.2078228
				c0.0692902-0.0307713,0.1308746-0.0538826,0.1924133-0.0846519c0.1077652-0.0538826,0.2155304-0.1077652,0.3155899-0.1693497
				c0.0846519-0.0461788,0.1615982-0.1000614,0.2385941-0.1538963c0.0692406-0.0385208,0.1308289-0.0846977,0.1924133-0.1385803
				c0.2231865-0.169302,0.4078979-0.3463097,0.5464287-0.5387249c0.0769958-0.1000595,0.1385803-0.2001209,0.1924171-0.3001804
				C47.177803,20.5189648,47.2470474,20.2496014,47.2470474,19.9802399z" class="colorf9bb4a svgShape"></path><path fill="#7abcfe" d="M45.8404312,18.0162277c1.8626213,1.075386,1.8761597,2.8212852,0.0256691,3.8966732
				c-1.8542442,1.0775681-4.8683891,1.0754318-6.7310143,0.0000458c-1.8626213-1.075386-1.8724632-2.819149-0.018219-3.8967171
				C40.9673576,16.9408417,43.9778061,16.9408417,45.8404312,18.0162277z" class="colorfed57a svgShape"></path><path fill="#d839bb" d="M45.4951935,18.2181282c-1.6691284-0.9663296-4.3704491-0.9663296-6.0322495,0
				c-0.8930969,0.5197372-1.303051,1.20788-1.2298622,1.8886948c0.0512505-0.5783138,0.4685326-1.1493473,1.2298622-1.5958958
				c1.6618004-0.9663296,4.363121-0.9663296,6.0322495,0c0.7759895,0.4465485,1.1932716,1.0249081,1.2444763,1.6105518
				C46.8202286,19.4406643,46.3956184,18.7378654,45.4951935,18.2181282z" class="colord89b39 svgShape"></path><path fill="#ef41cf" d="M45.4951935,18.5109272c-1.6691284-0.9663296-4.3704491-0.9663296-6.0322495,0
				c-0.7613297,0.4465485-1.1786118,1.0175819-1.2298622,1.5958958c0.0512505,0.5856876,0.4758606,1.1566753,1.2445183,1.6032238
				c1.6764565,0.9663315,4.3777313,0.9663315,6.0395355,0c0.7613754-0.4392204,1.1713295-1.010252,1.2225342-1.5885677
				C46.6884651,19.5358353,46.271183,18.9574757,45.4951935,18.5109272z" class="colorefac41 svgShape"></path><path fill="#f4f6f8" d="M44.3309669,19.0383492l0.4539375-0.2636337l-0.3454323-0.1996307l-0.4598732,0.2674465
				l-0.0508614-0.0233116c-0.3428917-0.1555519-0.7078247-0.2352352-1.0846252-0.2365055c-0.0025406,0-0.005085,0-0.0080528,0
				c-0.3674736,0-0.6955299,0.0826492-0.9756927,0.2449818c-0.259819,0.1513138-0.3865471,0.3026276-0.3763771,0.4497013
				c0.0118675,0.1640282,0.1466522,0.3734093,0.4018059,0.6230545l0.10215,0.0996037l-0.9824753,0.5709209l-0.0593414-0.0635777
				c-0.1530075-0.164875-0.2543068-0.3857002-0.3017769-0.6573849l-0.8697319,0.0491657
				c0.064846,0.3327198,0.2585449,0.6289883,0.5764313,0.8807526l0.1246109,0.0991802l-0.3602715,0.2089558l0.3454361,0.1996326
				l0.362812-0.2110748l0.0508614,0.0233116c0.3636589,0.1661472,0.7408829,0.2517643,1.1214981,0.2547302
				c0.370018,0.0050869,0.7133331-0.0788345,0.9973106-0.2437115c0.2610893-0.1517372,0.3869705-0.3068638,0.3738327-0.4611435
				c-0.0152588-0.174202-0.1555519-0.3924828-0.4179153-0.649334l-0.1017227-0.0996037l0.9545021-0.5548153l0.0589142,0.0601864
				c0.1318169,0.1343594,0.2331161,0.3026276,0.3022041,0.5005627l0.8303146-0.0868874
				c-0.1080818-0.264904-0.2873688-0.4942055-0.5340462-0.6832409L44.3309669,19.0383492z M42.2130051,20.8333378
				c-0.1085014,0.0631523-0.2309952,0.0945168-0.3662033,0.0945168c-0.0987549,0-0.2042923-0.0165291-0.3166122-0.0504379
				l-0.2394714-0.0720539l0.9489899-0.551424l0.0572205,0.0796833c0.0796814,0.1097775,0.110199,0.2038708,0.092823,0.2873688
				C42.3740692,20.7019444,42.3147278,20.7739983,42.2130051,20.8333378z M42.5931969,19.6482639l-0.0550995-0.0919762
				c-0.0529823-0.088583-0.069088-0.1742001-0.0483208-0.2551556c0.0216179-0.0839214,0.0822296-0.15555,0.1801376-0.212347
				c0.1661453-0.0974846,0.3691673-0.1118946,0.60186-0.0478935l0.2475281,0.0695114L42.5931969,19.6482639z" class="colorffffff svgShape"></path><path fill="#d839bb" d="M47.0392227 20.7806702v1.53162c-.0538368.1000595-.1154213.2001209-.1924171.2924747v-1.5239143C46.9238014 20.9807911 46.9853859 20.8807297 47.0392227 20.7806702zM46.3003769 21.6195755v1.5316677c-.0615845.0538807-.1231728.1000595-.1924133.1385326v-1.53162C46.1772041 21.719635 46.2387924 21.6734581 46.3003769 21.6195755zM45.5537796 22.0814018v1.53162c-.0615387.0307693-.1231232.0615845-.1924133.0923557v-1.5393238C45.4306564 22.1352825 45.4922409 22.1121712 45.5537796 22.0814018zM44.8149338 22.3738766v1.5393238c-.0615845.0153618-.1231689.0384731-.1924133.0538826v-1.5393238C44.6917648 22.4123497 44.7533493 22.3969421 44.8149338 22.3738766zM44.0683403 22.5662918v1.5393238c-.0615425.0153618-.1308327.0230656-.1924171.038475v-1.5393257C43.9375076 22.5893574 44.0067978 22.5816536 44.0683403 22.5662918zM43.3294945 22.674057v1.5393238c-.0615883.0076561-.1308784.0153599-.1924171.0153599v-1.5393238C43.198616 22.6894169 43.2679062 22.6817131 43.3294945 22.674057zM42.5828972 22.7202339v1.5393238H42.39048v-1.5470276C42.4520683 22.7202339 42.5213089 22.7202339 42.5828972 22.7202339zM41.8440056 22.6894169v1.5393238c-.0615387 0-.1308289-.0077038-.1924171-.0153599V22.674057C41.7131767 22.6817131 41.7747612 22.6894169 41.8440056 22.6894169zM41.0974541 22.5970612v1.5393238c-.0615845-.0077038-.1308289-.0230656-.1924133-.0384731V22.558588C40.9666252 22.5739956 41.0281639 22.5893574 41.0974541 22.5970612zM40.3585625 22.4200554v1.5393238c-.0692444-.0154095-.1308289-.030817-.1924171-.0538826v-1.5393238C40.2277336 22.3892384 40.2970238 22.4046459 40.3585625 22.4200554zM39.6120148 22.1506443v1.5393238c-.0692902-.0230656-.1308327-.0538349-.1924171-.0846519v-1.5393238C39.4811821 22.0968094 39.5427246 22.1275787 39.6120148 22.1506443zM38.8731194 21.750452v1.5393238c-.0692406-.0461769-.1308289-.0923557-.1924133-.1462364v-1.5393238C38.7422905 21.6580963 38.8038788 21.7042751 38.8731194 21.750452zM38.1342735 21.0577374v1.5470276c-.076992-.0923538-.1462364-.1924152-.1924133-.3001785v-1.5470276C37.9956932 20.8576183 38.0572815 20.9576778 38.1342735 21.0577374z" class="colord89b39 svgShape"></path><path fill="#4aa1f9" d="M47.2470474,17.4330692l-0.0077057,1.5393238c0,0.2693634-0.0692444,0.5387268-0.200119,0.7927284
				c-0.0538368,0.1000595-0.1154213,0.200119-0.1924171,0.2924747c-0.1385307,0.1924152-0.3232422,0.3771267-0.5464287,0.5464764
				c-0.0615845,0.0538826-0.1231728,0.1000595-0.1924133,0.1385345c-0.0769958,0.0615387-0.1616478,0.1077633-0.2462997,0.1615982
				c-0.1000595,0.0538826-0.200119,0.1077633-0.3078842,0.1616459c-0.0615387,0.0307693-0.1231232,0.0615864-0.1924133,0.0923557
				c-0.1770096,0.0769939-0.3540154,0.1462383-0.5464325,0.2078228c-0.0615845,0.0153618-0.1231689,0.038475-0.1924133,0.0538826
				c-0.1770554,0.0538826-0.3617668,0.1000595-0.5541801,0.1385345c-0.0615425,0.0153599-0.1308327,0.0230656-0.1924171,0.0384731
				c-0.1847115,0.0307693-0.3617172,0.0538826-0.5464287,0.0692902c-0.0615883,0.0076561-0.1308784,0.0153618-0.1924171,0.0153618
				c-0.1847572,0.0231113-0.3694687,0.0308151-0.5541801,0.0308151H42.39048c-0.1847115,0-0.3694229-0.0154076-0.5464745-0.0308151
				c-0.0615387,0-0.1308289-0.0077057-0.1924171-0.0153618c-0.1847115-0.0154076-0.3694229-0.0461788-0.5541344-0.0769939
				c-0.0615845-0.0077038-0.1308289-0.0230656-0.1924133-0.038475c-0.1847115-0.0384731-0.3694229-0.08465-0.5464783-0.1385326
				c-0.0692444-0.0154076-0.1308289-0.030817-0.1924171-0.0538826c-0.1924133-0.0615864-0.3771248-0.1308289-0.5541306-0.2155266
				c-0.0692902-0.0230656-0.1308327-0.0538349-0.1924171-0.0846519c-0.1000595-0.0538826-0.1924171-0.1000595-0.284771-0.1539421
				c-0.0923576-0.0538349-0.1847115-0.1077175-0.2617073-0.1615982c-0.0692406-0.0461788-0.1308289-0.0923557-0.1924133-0.1462383
				c-0.2231865-0.1616459-0.4078979-0.3463573-0.5464325-0.5387726c-0.076992-0.0923557-0.1462364-0.1924152-0.1924133-0.3001804
				c-0.1462364-0.2616577-0.2155266-0.5310688-0.2155266-0.8081341l0.0077019-1.5470295
				c0,0.2770672,0.0692444,0.5464783,0.2078247,0.808136c0.053833,0.1000595,0.1154213,0.200119,0.1924133,0.3001804
				c0.1385345,0.1924152,0.323246,0.3771267,0.5464325,0.5464764c0.0615845,0.0538826,0.1231728,0.1000595,0.1924133,0.1462383
				c0.0846519,0.0538807,0.1693497,0.1077633,0.2617073,0.1615982c0.0923538,0.0538826,0.1847115,0.1000595,0.284771,0.1539421
				c0.0615845,0.0308151,0.123127,0.0615864,0.1924171,0.0846519c0.1770058,0.0846977,0.3617172,0.1539402,0.5541306,0.2155266
				c0.0615883,0.0230656,0.1308784,0.038475,0.1924171,0.0538826c0.1770554,0.0538826,0.3617668,0.1000595,0.5464783,0.1385326
				c0.0615845,0.0154095,0.1231232,0.0307693,0.1924133,0.038475c0.1847115,0.0308151,0.3694229,0.0615845,0.5541344,0.0769939
				c0.0615883,0.0076561,0.1231728,0.0153618,0.1924171,0.0153618c0.1770515,0.0154076,0.361763,0.0308151,0.5464745,0.0231113
				c0.0615883,0.0077038,0.1308289,0.0077038,0.1924171,0.0077038c0.1847115,0,0.3694229-0.0077038,0.5541801-0.0308151
				c0.0615387,0,0.1308289-0.0077057,0.1924171-0.0153618c0.1847115-0.0154095,0.3694229-0.0385208,0.5464287-0.0692902
				c0.0615845-0.0154095,0.1308746-0.0231133,0.1924171-0.0384731c0.1924133-0.038475,0.3771248-0.0846519,0.5541801-0.1385345
				c0.0692444-0.0154076,0.1308289-0.030817,0.1924133-0.0538826c0.1924171-0.0615845,0.3694229-0.1308289,0.5464325-0.2078228
				c0.0692902-0.0307693,0.1308746-0.0538826,0.1924133-0.0846519c0.1077652-0.0538826,0.2155304-0.1077633,0.3155899-0.1693497
				c0.0846519-0.0461788,0.1615982-0.1000595,0.2385941-0.1538944c0.0692406-0.0385208,0.1308289-0.0846996,0.1924133-0.1385803
				c0.2231865-0.1693039,0.4078979-0.3463116,0.5464287-0.5387268c0.0769958-0.1000595,0.1385803-0.200119,0.1924171-0.3001785
				C47.177803,17.9717941,47.2470474,17.7024326,47.2470474,17.4330692z" class="colorf9bb4a svgShape"></path><path fill="#7abcfe" d="M45.8404312,15.469058c1.8626213,1.075387,1.8761597,2.8212843,0.0256691,3.8966742
				c-1.8542442,1.0775681-4.8683891,1.0754318-6.7310143,0.0000439c-1.8626213-1.075386-1.8724632-2.819149-0.018219-3.8967161
				C40.9673576,14.393671,43.9778061,14.393672,45.8404312,15.469058z" class="colorfed57a svgShape"></path><path fill="#d839bb" d="M45.4951935,15.6709585c-1.6691284-0.9663305-4.3704491-0.9663305-6.0322495,0
				c-0.8930969,0.5197382-1.303051,1.207881-1.2298622,1.8886957c0.0512505-0.5783157,0.4685326-1.1493473,1.2298622-1.5958967
				c1.6618004-0.9663305,4.363121-0.9663305,6.0322495,0c0.7759895,0.4465494,1.1932716,1.024909,1.2444763,1.6105509
				C46.8202286,16.8934937,46.3956184,16.1906967,45.4951935,15.6709585z" class="colord89b39 svgShape"></path><path fill="#ef41cf" d="M45.4951935,15.9637575c-1.6691284-0.9663305-4.3704491-0.9663305-6.0322495,0
				c-0.7613297,0.4465494-1.1786118,1.017581-1.2298622,1.5958967c0.0512505,0.5856857,0.4758606,1.1566734,1.2445183,1.6032219
				c1.6764565,0.9663315,4.3777313,0.9663315,6.0395355,0c0.7613754-0.4392204,1.1713295-1.010252,1.2225342-1.5885677
				C46.6884651,16.9886665,46.271183,16.4103069,45.4951935,15.9637575z" class="colorefac41 svgShape"></path><path fill="#f4f6f8" d="M44.3309669,16.4911785l0.4539375-0.2636318l-0.3454323-0.1996326l-0.4598732,0.2674465
				l-0.0508614-0.0233116c-0.3428917-0.15555-0.7078247-0.2352333-1.0846252-0.2365055c-0.0025406,0-0.005085,0-0.0080528,0
				c-0.4469986,0-1.3813629,0.2711506-1.3520699,0.694685c0.0118675,0.1640282,0.1466522,0.3734074,0.4018059,0.6230526
				l0.10215,0.0996037l-0.9824753,0.5709209l-0.0593414-0.0635757c-0.1530075-0.1648769-0.2543068-0.3857002-0.3017769-0.6573868
				l-0.8697319,0.0491676c0.064846,0.3327179,0.2585449,0.6289864,0.5764313,0.8807526l0.1246109,0.0991802l-0.3602715,0.2089558
				l0.3454361,0.1996307l0.362812-0.2110748l0.0508614,0.0233116c0.3636589,0.1661472,0.7408829,0.2517643,1.1214981,0.2547321
				c0.370018,0.005085,0.7133331-0.0788364,0.9973106-0.2437115c0.2610893-0.1517372,0.3869705-0.3068657,0.3738327-0.4611454
				c-0.0152588-0.174202-0.1555519-0.3924828-0.4179153-0.649332l-0.1017227-0.0996037l0.9545021-0.5548153l0.0589142,0.0601864
				c0.1318169,0.1343594,0.2331161,0.3026257,0.3022041,0.5005627l0.8303146-0.0868893
				c-0.1080818-0.264904-0.2873688-0.4942055-0.5340462-0.6832409L44.3309669,16.4911785z M42.2130051,18.2861671
				c-0.1085014,0.0631523-0.2309952,0.0945187-0.3662033,0.0945187c-0.0987549,0-0.2042923-0.016531-0.3166122-0.0504379
				l-0.2394714-0.0720539l0.9489899-0.551424l0.0572205,0.0796833c0.0796814,0.1097755,0.110199,0.2038689,0.092823,0.2873669
				C42.3740692,18.1547756,42.3147278,18.2268295,42.2130051,18.2861671z M42.5931969,17.1010933l-0.0550995-0.0919743
				c-0.0529823-0.0885849-0.069088-0.174202-0.0483208-0.2551556c0.0216179-0.0839214,0.0822296-0.1555519,0.1801376-0.212347
				c0.1661453-0.0974846,0.3691673-0.1118965,0.60186-0.0478954l0.2475281,0.0695114L42.5931969,17.1010933z" class="colorffffff svgShape"></path><path fill="#d839bb" d="M47.0392227 18.2335014v1.53162c-.0538368.1000595-.1154213.200119-.1924171.2924747V18.53368C46.9238014 18.4336205 46.9853859 18.3335609 47.0392227 18.2335014zM46.3003769 19.0724068v1.5316658c-.0615845.0538826-.1231728.1000595-.1924133.1385345v-1.53162C46.1772041 19.1724663 46.2387924 19.1262875 46.3003769 19.0724068zM45.5537796 19.5342312v1.53162c-.0615387.0307693-.1231232.0615864-.1924133.0923557v-1.5393238C45.4306564 19.5881138 45.4922409 19.5650005 45.5537796 19.5342312zM44.8149338 19.8267059v1.5393238c-.0615845.0153618-.1231689.038475-.1924133.0538826v-1.5393238C44.6917648 19.865181 44.7533493 19.8497715 44.8149338 19.8267059zM44.0683403 20.0191231v1.5393238c-.0615425.0153599-.1308327.0230656-.1924171.0384731v-1.5393238C43.9375076 20.0421867 44.0067978 20.034483 44.0683403 20.0191231zM43.3294945 20.1268864v1.5393238c-.0615883.0076561-.1308784.0153618-.1924171.0153618v-1.5393238C43.198616 20.1422482 43.2679062 20.1345425 43.3294945 20.1268864zM42.5828972 20.1730633v1.5393238H42.39048v-1.5470276C42.4520683 20.1730633 42.5213089 20.1730633 42.5828972 20.1730633zM41.8440056 20.1422482v1.5393238c-.0615387 0-.1308289-.0077057-.1924171-.0153618v-1.5393238C41.7131767 20.1345425 41.7747612 20.1422482 41.8440056 20.1422482zM41.0974541 20.0498924v1.5393238c-.0615845-.0077038-.1308289-.0230656-.1924133-.038475v-1.5393238C40.9666252 20.0268269 41.0281639 20.0421867 41.0974541 20.0498924zM40.3585625 19.8728848v1.5393238c-.0692444-.0154076-.1308289-.030817-.1924171-.0538826v-1.5393238C40.2277336 19.8420677 40.2970238 19.8574772 40.3585625 19.8728848zM39.6120148 19.6034756v1.5393238c-.0692902-.0230656-.1308327-.0538349-.1924171-.0846519v-1.5393238C39.4811821 19.5496387 39.5427246 19.58041 39.6120148 19.6034756zM38.8731194 19.2032833v1.5393238c-.0692406-.0461788-.1308289-.0923557-.1924133-.1462383V19.057045C38.7422905 19.1109276 38.8038788 19.1571045 38.8731194 19.2032833zM38.1342735 18.5105686v1.5470276c-.076992-.0923557-.1462364-.1924152-.1924133-.3001804v-1.5470276C37.9956932 18.3104477 38.0572815 18.4105072 38.1342735 18.5105686z" class="colord89b39 svgShape"></path><g fill="#0c2340" class="color000000 svgShape"><path fill="#4aa1f9" d="M47.2470474,14.8858995l-0.0077057,1.5393229c0,0.2693634-0.0692444,0.5387268-0.200119,0.7927284
				c-0.0538368,0.1000595-0.1154213,0.200119-0.1924171,0.2924747c-0.1385307,0.1924152-0.3232422,0.3771267-0.5464287,0.5464764
				c-0.0615845,0.0538826-0.1231728,0.1000614-0.1924133,0.1385345c-0.0769958,0.0615387-0.1616478,0.1077633-0.2462997,0.1615982
				c-0.1000595,0.0538826-0.200119,0.1077652-0.3078842,0.1616459c-0.0615387,0.0307693-0.1231232,0.0615864-0.1924133,0.0923557
				c-0.1770096,0.0769958-0.3540154,0.1462383-0.5464325,0.2078247c-0.0615845,0.0153618-0.1231689,0.0384731-0.1924133,0.0538807
				c-0.1770554,0.0538826-0.3617668,0.1000614-0.5541801,0.1385345c-0.0615425,0.0153618-0.1308327,0.0230656-0.1924171,0.0384731
				c-0.1847115,0.0307693-0.3617172,0.0538826-0.5464287,0.0692902c-0.0615883,0.007658-0.1308784,0.0153618-0.1924171,0.0153618
				c-0.1847572,0.0231133-0.3694687,0.030817-0.5541801,0.030817H42.39048c-0.1847115,0-0.3694229-0.0154095-0.5464745-0.030817
				c-0.0615387,0-0.1308289-0.0077038-0.1924171-0.0153618c-0.1847115-0.0154076-0.3694229-0.0461769-0.5541344-0.0769939
				c-0.0615845-0.0077038-0.1308289-0.0230656-0.1924133-0.0384731c-0.1847115-0.038475-0.3694229-0.0846519-0.5464783-0.1385345
				c-0.0692444-0.0154076-0.1308289-0.0308151-0.1924171-0.0538807c-0.1924133-0.0615864-0.3771248-0.1308308-0.5541306-0.2155285
				c-0.0692902-0.0230656-0.1308327-0.0538349-0.1924171-0.0846519c-0.1000595-0.0538826-0.1924171-0.1000595-0.284771-0.1539421
				c-0.0923576-0.0538349-0.1847115-0.1077156-0.2617073-0.1615982c-0.0692406-0.0461788-0.1308289-0.0923557-0.1924133-0.1462383
				c-0.2231865-0.1616459-0.4078979-0.3463573-0.5464325-0.5387726c-0.076992-0.0923557-0.1462364-0.1924152-0.1924133-0.3001785
				c-0.1462364-0.2616596-0.2155266-0.5310688-0.2155266-0.808136l0.0077019-1.5470285
				c0,0.2770672,0.0692444,0.5464773,0.2078247,0.808136c0.053833,0.1000595,0.1154213,0.20012,0.1924133,0.3001795
				c0.1385345,0.1924152,0.323246,0.3771267,0.5464325,0.5464764c0.0615845,0.0538826,0.1231728,0.1000595,0.1924133,0.1462383
				c0.0846519,0.0538826,0.1693497,0.1077633,0.2617073,0.1615982c0.0923538,0.0538826,0.1847115,0.1000595,0.284771,0.1539421
				c0.0615845,0.030817,0.123127,0.0615864,0.1924171,0.0846519c0.1770058,0.0846977,0.3617172,0.1539421,0.5541306,0.2155285
				c0.0615883,0.0230637,0.1308784,0.0384731,0.1924171,0.0538807c0.1770554,0.0538826,0.3617668,0.1000595,0.5464783,0.1385345
				c0.0615845,0.0154076,0.1231232,0.0307693,0.1924133,0.0384731c0.1847115,0.030817,0.3694229,0.0615864,0.5541344,0.0769939
				c0.0615883,0.007658,0.1231728,0.0153618,0.1924171,0.0153618c0.1770515,0.0154076,0.361763,0.030817,0.5464745,0.0231133
				c0.0615883,0.0077038,0.1308289,0.0077038,0.1924171,0.0077038c0.1847115,0,0.3694229-0.0077038,0.5541801-0.030817
				c0.0615387,0,0.1308289-0.0077038,0.1924171-0.0153618c0.1847115-0.0154076,0.3694229-0.0385208,0.5464287-0.0692902
				c0.0615845-0.0154076,0.1308746-0.0231113,0.1924171-0.0384731c0.1924133-0.0384731,0.3771248-0.0846519,0.5541801-0.1385345
				c0.0692444-0.0154076,0.1308289-0.0308151,0.1924133-0.0538807c0.1924171-0.0615864,0.3694229-0.1308308,0.5464325-0.2078247
				c0.0692902-0.0307693,0.1308746-0.0538807,0.1924133-0.0846519c0.1077652-0.0538807,0.2155304-0.1077633,0.3155899-0.1693497
				c0.0846519-0.0461769,0.1615982-0.1000595,0.2385941-0.1538944c0.0692406-0.0385208,0.1308289-0.0846977,0.1924133-0.1385803
				c0.2231865-0.1693039,0.4078979-0.3463097,0.5464287-0.5387259c0.0769958-0.1000595,0.1385803-0.20012,0.1924171-0.3001795
				C47.177803,15.4246254,47.2470474,15.155262,47.2470474,14.8858995z" class="colorf9bb4a svgShape"></path><path fill="#7abcfe" d="M45.8404312,12.9218884c1.8626213,1.075386,1.8761597,2.8212843,0.0256691,3.8966732
				c-1.8542442,1.0775681-4.8683891,1.0754318-6.7310143,0.0000458c-1.8626213-1.075386-1.8724632-2.819149-0.018219-3.8967171
				C40.9673576,11.8465014,43.9778061,11.8465014,45.8404312,12.9218884z" class="colorfed57a svgShape"></path><path fill="#d839bb" d="M45.4951935,13.1237888c-1.6691284-0.9663305-4.3704491-0.9663305-6.0322495,0
				c-0.8930969,0.5197372-1.303051,1.20788-1.2298622,1.8886948c0.0512505-0.5783148,0.4685326-1.1493473,1.2298622-1.5958958
				c1.6618004-0.9663305,4.363121-0.9663305,6.0322495,0c0.7759895,0.4465485,1.1932716,1.0249081,1.2444763,1.6105509
				C46.8202286,14.346324,46.3956184,13.6435261,45.4951935,13.1237888z" class="colord89b39 svgShape"></path><path fill="#ef41cf" d="M45.4951935,13.4165878c-1.6691284-0.9663305-4.3704491-0.9663305-6.0322495,0
				c-0.7613297,0.4465485-1.1786118,1.017581-1.2298622,1.5958958c0.0512505,0.5856876,0.4758606,1.1566753,1.2445183,1.6032238
				c1.6764565,0.9663296,4.3777313,0.9663296,6.0395355,0c0.7613754-0.4392223,1.1713295-1.010253,1.2225342-1.5885687
				C46.6884651,14.4414959,46.271183,13.8631363,45.4951935,13.4165878z" class="colorefac41 svgShape"></path><path fill="#7abcfe" d="M44.3309669,13.9440079l0.4539375-0.2636318l-0.3454323-0.1996317l-0.4598732,0.2674465
				l-0.0508614-0.0233107c-0.5774193-0.2619438-1.1927872-0.2473154-1.0926781-0.2365065
				c-0.3674736,0-0.6955299,0.0826502-0.9756927,0.2449827c-0.6593094,0.3839703-0.3471413,0.6334467,0.1275787,1.1723595
				l-0.9824753,0.57092c-0.070343-0.1007605-0.2749901-0.2280178-0.3611183-0.7209616l-0.8697319,0.0491657
				c0.1184273,0.6076155,0.6025772,0.8797636,0.7010422,0.9799328l-0.3602715,0.2089558l0.3454361,0.1996326l0.362812-0.2110767
				c0.7757301,0.2695122,1.4537773,0.449976,2.1696701,0.0343323c0.4558258-0.2649136,0.5504799-0.5284023-0.0440826-1.1104774
				l-0.1017227-0.0996037l0.9545021-0.5548153c0.1380119,0.171463,0.2251816,0.1712837,0.3611183,0.5607491l0.8303146-0.0868883
				c-0.1080818-0.264904-0.2873688-0.4942055-0.5340462-0.6832409L44.3309669,13.9440079z M42.2130051,15.7389975
				c-0.3282814,0.1910706-0.6475601,0.0456095-0.922287-0.0279741l0.9489899-0.551424
				C42.3440361,15.3362932,42.5371208,15.5499306,42.2130051,15.7389975z M42.5931969,14.5539227
				c-0.0840988-0.180254-0.2243996-0.3848047,0.0767174-0.5594769c0.3320389-0.1948204,0.7020302-0.0040703,0.8493881,0.021616
				L42.5931969,14.5539227z" class="colorfed57a svgShape"></path><path fill="#d839bb" d="M47.0392227 15.6863308v1.53162c-.0538368.1000595-.1154213.200119-.1924171.2924747v-1.5239153C46.9238014 15.8864508 46.9853859 15.7863903 47.0392227 15.6863308zM46.3003769 16.5252361v1.5316658c-.0615845.0538826-.1231728.1000614-.1924133.1385345v-1.53162C46.1772041 16.6252956 46.2387924 16.5791187 46.3003769 16.5252361zM45.5537796 16.9870605v1.53162c-.0615387.0307693-.1231232.0615864-.1924133.0923557v-1.5393238C45.4306564 17.0409431 45.4922409 17.0178318 45.5537796 16.9870605zM44.8149338 17.2795372v1.5393238c-.0615845.0153618-.1231689.0384731-.1924133.0538807v-1.5393238C44.6917648 17.3180103 44.7533493 17.3026028 44.8149338 17.2795372zM44.0683403 17.4719524v1.5393238c-.0615425.0153618-.1308327.0230656-.1924171.0384731v-1.5393238C43.9375076 17.495018 44.0067978 17.4873142 44.0683403 17.4719524zM43.3294945 17.5797157v1.5393238c-.0615883.007658-.1308784.0153618-.1924171.0153618v-1.5393238C43.198616 17.5950775 43.2679062 17.5873737 43.3294945 17.5797157zM42.5828972 17.6258945v1.5393238H42.39048v-1.5470276C42.4520683 17.6258945 42.5213089 17.6258945 42.5828972 17.6258945zM41.8440056 17.5950775v1.5393238c-.0615387 0-.1308289-.0077038-.1924171-.0153618v-1.5393238C41.7131767 17.5873737 41.7747612 17.5950775 41.8440056 17.5950775zM41.0974541 17.5027218v1.5393238c-.0615845-.0077038-.1308289-.0230656-.1924133-.0384731v-1.5393238C40.9666252 17.4796562 41.0281639 17.495018 41.0974541 17.5027218zM40.3585625 17.3257141v1.5393238c-.0692444-.0154076-.1308289-.0308151-.1924171-.0538807v-1.5393238C40.2277336 17.2948971 40.2970238 17.3103065 40.3585625 17.3257141zM39.6120148 17.0563049v1.5393238c-.0692902-.0230656-.1308327-.0538349-.1924171-.0846519V16.971653C39.4811821 17.00247 39.5427246 17.0332394 39.6120148 17.0563049zM38.8731194 16.6561127v1.5393238c-.0692406-.0461788-.1308289-.0923557-.1924133-.1462383v-1.5393238C38.7422905 16.5637569 38.8038788 16.6099339 38.8731194 16.6561127zM38.1342735 15.963398v1.5470276c-.076992-.0923557-.1462364-.1924152-.1924133-.3001785v-1.5470285C37.9956932 15.763278 38.0572815 15.8633385 38.1342735 15.963398z" class="colord89b39 svgShape"></path></g><g fill="#0c2340" class="color000000 svgShape"><path fill="#4aa1f9" d="M35.8169403,17.9214535l-0.0077019,1.5393238c0,0.2693634-0.0692444,0.5387268-0.200119,0.7927284
				c-0.0538368,0.1000595-0.1154213,0.200119-0.1924171,0.2924747c-0.1385345,0.1924152-0.323246,0.3771267-0.5464287,0.5464764
				c-0.0615883,0.0538826-0.1231728,0.1000595-0.1924171,0.1385345c-0.076992,0.0615387-0.161644,0.1077633-0.2462959,0.1615982
				c-0.1000595,0.0538826-0.200119,0.1077633-0.3078842,0.1616459c-0.0615387,0.0307693-0.123127,0.0615864-0.1924171,0.0923557
				c-0.1770058,0.0769939-0.3540115,0.1462383-0.5464287,0.2078247c-0.0615845,0.0153599-0.1231728,0.0384731-0.1924133,0.0538807
				c-0.1770554,0.0538826-0.3617668,0.1000595-0.554184,0.1385345c-0.0615387,0.0153618-0.1308289,0.0230656-0.1924133,0.0384731
				c-0.1847115,0.0307693-0.361721,0.0538826-0.5464306,0.0692902c-0.0615864,0.007658-0.1308765,0.0153618-0.1924152,0.0153618
				c-0.1847591,0.0231113-0.3694706,0.030817-0.5541821,0.030817h-0.1924152c-0.1847115,0-0.3694229-0.0154095-0.5464764-0.030817
				c-0.0615387,0-0.1308289-0.0077038-0.1924152-0.0153618c-0.1847115-0.0154076-0.3694229-0.0461769-0.5541344-0.0769939
				c-0.0615864-0.0077038-0.1308289-0.0230656-0.1924152-0.0384731c-0.1847115-0.038475-0.3694229-0.0846519-0.5464764-0.1385345
				c-0.0692444-0.0154076-0.1308308-0.030817-0.1924171-0.0538826c-0.1924152-0.0615845-0.3771267-0.1308289-0.5541325-0.2155266
				c-0.0692902-0.0230656-0.1308308-0.0538349-0.1924171-0.0846519c-0.1000595-0.0538826-0.1924152-0.1000595-0.284771-0.1539421
				c-0.0923557-0.0538349-0.1847115-0.1077175-0.2617054-0.1615982c-0.0692425-0.0461788-0.1308289-0.0923557-0.1924152-0.1462383
				c-0.2231846-0.1616459-0.407896-0.3463573-0.5464306-0.5387726c-0.0769939-0.0923557-0.1462364-0.1924152-0.1924152-0.3001785
				c-0.1462364-0.2616596-0.2155266-0.5310688-0.2155266-0.808136l0.0077038-1.5470295
				c0,0.2770672,0.0692425,0.5464783,0.2078228,0.808136c0.0538349,0.1000595,0.1154213,0.2001209,0.1924152,0.3001804
				c0.1385345,0.1924152,0.323246,0.3771267,0.5464306,0.5464764c0.0615864,0.0538826,0.1231728,0.1000595,0.1924152,0.1462383
				c0.0846519,0.0538807,0.1693497,0.1077633,0.2617054,0.1615982c0.0923557,0.0538826,0.1847115,0.1000595,0.284771,0.1539421
				c0.0615864,0.030817,0.123127,0.0615864,0.1924171,0.0846519c0.1770058,0.0846977,0.3617172,0.1539421,0.5541325,0.2155266
				c0.0615864,0.0230656,0.1308765,0.038475,0.1924171,0.0538826c0.1770535,0.0538826,0.3617649,0.1000595,0.5464764,0.1385345
				c0.0615864,0.0154076,0.1231251,0.0307693,0.1924152,0.0384731c0.1847115,0.030817,0.3694229,0.0615864,0.5541344,0.0769939
				c0.0615864,0.007658,0.1231709,0.0153618,0.1924152,0.0153618c0.1770535,0.0154076,0.3617649,0.030817,0.5464764,0.0231113
				c0.0615864,0.0077057,0.1308289,0.0077057,0.1924152,0.0077057c0.1847115,0,0.3694229-0.0077057,0.5541821-0.030817
				c0.0615387,0,0.1308289-0.0077038,0.1924152-0.0153618c0.1847095-0.0154076,0.369421-0.0385208,0.5464306-0.0692902
				c0.0615845-0.0154076,0.1308746-0.0231133,0.1924133-0.0384731c0.1924171-0.038475,0.3771286-0.0846519,0.554184-0.1385345
				c0.0692406-0.0154076,0.1308289-0.0308151,0.1924133-0.0538807c0.1924171-0.0615864,0.3694229-0.1308308,0.5464287-0.2078247
				c0.0692902-0.0307693,0.1308784-0.0538826,0.1924171-0.0846519c0.1077652-0.0538807,0.2155266-0.1077633,0.3155861-0.1693497
				c0.0846519-0.0461769,0.161602-0.1000595,0.2385941-0.1538944c0.0692444-0.0385208,0.1308289-0.0846996,0.1924171-0.1385803
				c0.2231827-0.1693039,0.4078941-0.3463116,0.5464287-0.5387268c0.0769958-0.1000595,0.1385803-0.200119,0.1924171-0.3001785
				C35.7476997,18.4601803,35.8169403,18.1908169,35.8169403,17.9214535z" class="colorf9bb4a svgShape"></path><path fill="#7abcfe" d="M34.4103241,15.9574423c1.8626251,1.075387,1.8761635,2.8212843,0.0256691,3.8966742
				c-1.8542404,1.0775681-4.8683872,1.0754318-6.7310104,0.0000458s-1.8724632-2.819149-0.0182209-3.896718
				C29.5372543,14.8820562,32.5477028,14.8820562,34.4103241,15.9574423z" class="colorfed57a svgShape"></path><path fill="#d839bb" d="M34.0650902,16.1593437c-1.6691284-0.9663315-4.3704491-0.9663315-6.0322495,0
				c-0.8930988,0.5197372-1.3030529,1.20788-1.2298641,1.8886948c0.0512505-0.5783157,0.4685326-1.1493473,1.2298641-1.5958958
				c1.6618004-0.9663315,4.363121-0.9663315,6.0322495,0c0.7759857,0.4465485,1.1932678,1.0249081,1.2444763,1.6105518
				C35.3901253,17.3818779,34.9655151,16.679081,34.0650902,16.1593437z" class="colord89b39 svgShape"></path><path fill="#ef41cf" d="M34.0650902,16.4521427c-1.6691284-0.9663315-4.3704491-0.9663315-6.0322495,0
				c-0.7613316,0.4465485-1.1786137,1.01758-1.2298641,1.5958958c0.0512505,0.5856876,0.4758606,1.1566734,1.2445183,1.6032238
				c1.6764584,0.9663296,4.3777332,0.9663296,6.0395336,0c0.7613754-0.4392223,1.1713295-1.0102539,1.222538-1.5885677
				C35.258358,17.4770508,34.8410759,16.8986912,34.0650902,16.4521427z" class="colorefac41 svgShape"></path><path fill="#f4f6f8" d="M32.9008636,16.9795628l0.4539375-0.2636318l-0.3454361-0.1996326l-0.4598732,0.2674484
				l-0.0508614-0.0233116c-0.3428917-0.1555519-0.7078228-0.2352352-1.0846214-0.2365074c-0.0025425,0-0.005085,0-0.0080528,0
				c-0.4470005,0-1.3813629,0.2711506-1.3520699,0.694685c0.0118675,0.1640282,0.1466503,0.3734074,0.4018059,0.6230526
				l0.1021481,0.0996056l-0.9824753,0.5709209l-0.0593395-0.0635777c-0.1530075-0.1648769-0.2543068-0.3857002-0.3017788-0.6573849
				l-0.8697319,0.0491657c0.0648479,0.3327198,0.2585468,0.6289883,0.5764313,0.8807526l0.1246109,0.0991802l-0.3602695,0.2089558
				l0.3454342,0.1996307l0.362812-0.2110748l0.0508614,0.0233116c0.3636608,0.1661472,0.7408848,0.2517643,1.1214981,0.2547321
				c0.370018,0.005085,0.7133331-0.0788364,0.9973106-0.2437115c0.2610893-0.1517372,0.3869705-0.3068657,0.3738327-0.4611454
				c-0.0152588-0.1742001-0.1555519-0.3924809-0.4179134-0.649332l-0.1017227-0.0996037l0.9545021-0.5548153l0.0589142,0.0601864
				c0.1318169,0.1343594,0.2331161,0.3026257,0.3022041,0.5005627l0.8303146-0.0868893
				c-0.1080818-0.264904-0.2873688-0.4942036-0.5340462-0.683239L32.9008636,16.9795628z M30.7829018,18.7745514
				c-0.1085033,0.0631542-0.2309952,0.0945187-0.3662033,0.0945187c-0.0987549,0-0.2042942-0.016531-0.3166122-0.0504379
				l-0.2394733-0.0720539l0.9489918-0.551424l0.0572186,0.0796833c0.0796833,0.1097755,0.1102009,0.2038689,0.092823,0.2873669
				C30.943964,18.6431599,30.8846245,18.7152138,30.7829018,18.7745514z M31.1630917,17.5894775l-0.0550995-0.0919743
				c-0.0529804-0.0885849-0.0690861-0.174202-0.0483189-0.2551556c0.021616-0.0839214,0.0822258-0.1555519,0.1801357-0.212347
				c0.1661472-0.0974846,0.3691692-0.1118946,0.601862-0.0478954l0.2475243,0.0695114L31.1630917,17.5894775z" class="colorffffff svgShape"></path><path fill="#d839bb" d="M35.6091194 18.7218857v1.53162c-.0538368.1000595-.1154213.200119-.1924171.2924747v-1.5239162C35.4936981 18.9220047 35.5552826 18.8219452 35.6091194 18.7218857zM34.8702736 19.560791v1.5316658c-.0615883.0538826-.1231728.1000595-.1924171.1385345v-1.53162C34.7471008 19.6608505 34.8086853 19.6146717 34.8702736 19.560791zM34.1236763 20.0226154v1.53162c-.0615387.0307693-.123127.0615864-.1924171.0923557v-1.5393238C34.0005493 20.076498 34.0621376 20.0533848 34.1236763 20.0226154zM33.3848305 20.3150921v1.5393238c-.0615845.0153599-.1231728.0384731-.1924133.0538807v-1.5393238C33.2616577 20.3535652 33.323246 20.3381577 33.3848305 20.3150921zM32.6382332 20.5075073v1.5393238c-.0615387.0153618-.1308289.0230656-.1924133.0384731v-1.5393238C32.5074043 20.5305729 32.5766945 20.5228672 32.6382332 20.5075073zM31.8993893 20.6152706v1.5393238c-.0615864.007658-.1308765.0153618-.1924152.0153618v-1.5393238C31.7685127 20.6306324 31.8378029 20.6229286 31.8993893 20.6152706zM31.152792 20.6614494v1.5393238h-.1924152v-1.5470295C31.0219631 20.6614494 31.0912056 20.6614494 31.152792 20.6614494zM30.4139004 20.6306324v1.5393238c-.0615387 0-.1308289-.0077038-.1924152-.0153618v-1.5393238C30.2830715 20.6229286 30.344656 20.6306324 30.4139004 20.6306324zM29.6673508 20.5382767v1.5393238c-.0615864-.0077038-.1308289-.0230656-.1924152-.0384731v-1.5393238C29.5365219 20.5152111 29.5980606 20.5305729 29.6673508 20.5382767zM28.9284592 20.361269v1.5393238c-.0692444-.0154076-.1308308-.030817-.1924171-.0538826v-1.5393238C28.7976284 20.330452 28.8669186 20.3458614 28.9284592 20.361269zM28.1819096 20.0918598v1.5393238c-.0692902-.0230656-.1308308-.0538349-.1924171-.0846519v-1.5393238C28.0510788 20.0380249 28.1126194 20.0687943 28.1819096 20.0918598zM27.4430161 19.6916676v1.5393238c-.0692425-.0461788-.1308289-.0923557-.1924152-.1462383v-1.5393238C27.3121872 19.5993118 27.3737736 19.6454887 27.4430161 19.6916676zM26.7041702 18.9989529v1.5470276c-.0769939-.0923557-.1462364-.1924152-.1924152-.3001785v-1.5470295C26.5655899 18.7988319 26.6271763 18.8988934 26.7041702 18.9989529z" class="colord89b39 svgShape"></path></g><g fill="#0c2340" class="color000000 svgShape"><path fill="#4aa1f9" d="M35.8169403,15.3742838l-0.0077019,1.5393248c0,0.2693615-0.0692444,0.5387249-0.200119,0.7927265
				c-0.0538368,0.1000595-0.1154213,0.200119-0.1924171,0.2924747c-0.1385345,0.1924152-0.323246,0.3771267-0.5464287,0.5464783
				c-0.0615883,0.0538807-0.1231728,0.1000595-0.1924171,0.1385326c-0.076992,0.0615387-0.161644,0.1077633-0.2462959,0.1615982
				c-0.1000595,0.0538826-0.200119,0.1077652-0.3078842,0.1616478c-0.0615387,0.0307693-0.123127,0.0615845-0.1924171,0.0923538
				c-0.1770058,0.0769958-0.3540115,0.1462383-0.5464287,0.2078247c-0.0615845,0.0153618-0.1231728,0.0384731-0.1924133,0.0538826
				c-0.1770554,0.0538807-0.3617668,0.1000595-0.554184,0.1385326c-0.0615387,0.0153618-0.1308289,0.0230656-0.1924133,0.0384731
				c-0.1847115,0.0307713-0.361721,0.0538826-0.5464306,0.0692902c-0.0615864,0.007658-0.1308765,0.0153618-0.1924152,0.0153618
				c-0.1847591,0.0231133-0.3694706,0.030817-0.5541821,0.030817h-0.1924152c-0.1847115,0-0.3694229-0.0154076-0.5464764-0.030817
				c-0.0615387,0-0.1308289-0.0077038-0.1924152-0.0153618c-0.1847115-0.0154076-0.3694229-0.0461769-0.5541344-0.0769939
				c-0.0615864-0.0077038-0.1308289-0.0230656-0.1924152-0.0384731c-0.1847115-0.0384731-0.3694229-0.0846519-0.5464764-0.1385345
				c-0.0692444-0.0154076-0.1308308-0.0308151-0.1924171-0.0538807c-0.1924152-0.0615864-0.3771267-0.1308289-0.5541325-0.2155285
				c-0.0692902-0.0230656-0.1308308-0.0538349-0.1924171-0.0846519c-0.1000595-0.0538807-0.1924152-0.1000595-0.284771-0.1539421
				c-0.0923557-0.0538349-0.1847115-0.1077156-0.2617054-0.1615982c-0.0692425-0.0461769-0.1308289-0.0923557-0.1924152-0.1462383
				c-0.2231846-0.1616459-0.407896-0.3463573-0.5464306-0.5387726c-0.0769939-0.0923557-0.1462364-0.1924152-0.1924152-0.3001785
				c-0.1462364-0.2616596-0.2155266-0.5310688-0.2155266-0.808136l0.0077038-1.5470276
				c0,0.2770662,0.0692425,0.5464764,0.2078228,0.808136c0.0538349,0.1000595,0.1154213,0.200119,0.1924152,0.3001785
				c0.1385345,0.1924152,0.323246,0.3771267,0.5464306,0.5464764c0.0615864,0.0538826,0.1231728,0.1000614,0.1924152,0.1462383
				c0.0846519,0.0538826,0.1693497,0.1077633,0.2617054,0.1615982c0.0923557,0.0538826,0.1847115,0.1000614,0.284771,0.1539421
				c0.0615864,0.030817,0.123127,0.0615864,0.1924171,0.0846519c0.1770058,0.0846977,0.3617172,0.1539421,0.5541325,0.2155285
				c0.0615864,0.0230656,0.1308765,0.0384731,0.1924171,0.0538807c0.1770535,0.0538826,0.3617649,0.1000614,0.5464764,0.1385345
				c0.0615864,0.0154076,0.1231251,0.0307693,0.1924152,0.0384731c0.1847115,0.030817,0.3694229,0.0615864,0.5541344,0.0769939
				c0.0615864,0.007658,0.1231709,0.0153618,0.1924152,0.0153618c0.1770535,0.0154095,0.3617649,0.030817,0.5464764,0.0231133
				c0.0615864,0.0077038,0.1308289,0.0077038,0.1924152,0.0077038c0.1847115,0,0.3694229-0.0077038,0.5541821-0.030817
				c0.0615387,0,0.1308289-0.0077038,0.1924152-0.0153618c0.1847095-0.0154076,0.369421-0.0385208,0.5464306-0.0692902
				c0.0615845-0.0154076,0.1308746-0.0231113,0.1924133-0.0384731c0.1924171-0.0384731,0.3771286-0.0846519,0.554184-0.1385326
				c0.0692406-0.0154095,0.1308289-0.030817,0.1924133-0.0538826c0.1924171-0.0615864,0.3694229-0.1308289,0.5464287-0.2078247
				c0.0692902-0.0307693,0.1308784-0.0538807,0.1924171-0.08465c0.1077652-0.0538826,0.2155266-0.1077652,0.3155861-0.1693516
				c0.0846519-0.0461769,0.161602-0.1000595,0.2385941-0.1538944c0.0692444-0.0385208,0.1308289-0.0846977,0.1924171-0.1385803
				c0.2231827-0.169302,0.4078941-0.3463097,0.5464287-0.5387249c0.0769958-0.1000595,0.1385803-0.2001209,0.1924171-0.3001804
				C35.7476997,15.9130096,35.8169403,15.6436472,35.8169403,15.3742838z" class="colorf9bb4a svgShape"></path><path fill="#7abcfe" d="M34.4103241,13.4102726c1.8626251,1.075386,1.8761635,2.8212852,0.0256691,3.8966732
				c-1.8542404,1.0775681-4.8683872,1.0754318-6.7310104,0.0000458s-1.8724632-2.819149-0.0182209-3.8967171
				C29.5372543,12.3348856,32.5477028,12.3348866,34.4103241,13.4102726z" class="colorfed57a svgShape"></path><path fill="#d839bb" d="M34.0650902,13.6121731c-1.6691284-0.9663305-4.3704491-0.9663305-6.0322495,0
				c-0.8930988,0.5197372-1.3030529,1.20788-1.2298641,1.8886948c0.0512505-0.5783148,0.4685326-1.1493464,1.2298641-1.5958958
				c1.6618004-0.9663305,4.363121-0.9663305,6.0322495,0c0.7759857,0.4465494,1.1932678,1.024909,1.2444763,1.6105518
				C35.3901253,14.8347092,34.9655151,14.1319103,34.0650902,13.6121731z" class="colord89b39 svgShape"></path><path fill="#ef41cf" d="M34.0650902,13.9049721c-1.6691284-0.9663305-4.3704491-0.9663305-6.0322495,0
				c-0.7613316,0.4465494-1.1786137,1.017581-1.2298641,1.5958958c0.0512505,0.5856876,0.4758606,1.1566753,1.2445183,1.6032238
				c1.6764584,0.9663315,4.3777332,0.9663315,6.0395336,0c0.7613754-0.4392204,1.1713295-1.0102539,1.222538-1.5885677
				C35.258358,14.9298811,34.8410759,14.3515215,34.0650902,13.9049721z" class="colorefac41 svgShape"></path><path fill="#7abcfe" d="M32.9008636,14.4323931l0.4539375-0.2636328l-0.3454361-0.1996317l-0.4598732,0.2674475
				l-0.0508614-0.0233116c-1.3244381-0.6008272-2.4712162,0.0754452-2.4447441,0.4581776
				c0.0215321,0.2976036,0.4158535,0.6226444,0.5039539,0.7226582l-0.9824753,0.5709209
				c-0.070343-0.1007605-0.2749882-0.2280188-0.3611183-0.7209625l-0.8697319,0.0491657
				c0.1184273,0.6076155,0.6025772,0.8797626,0.7010422,0.9799328l-0.3602695,0.2089558l0.3454342,0.1996326l0.362812-0.2110767
				l0.0508614,0.0233116c0.6602135,0.3016376,1.4936676,0.3739758,2.1188087,0.0110207
				c0.4558277-0.2649136,0.5504818-0.5284023-0.0440807-1.1104774L31.4174004,15.29492l0.9545021-0.5548143
				c0.1380119,0.1714621,0.2251778,0.1712828,0.3611183,0.5607481l0.8303146-0.0868883
				c-0.1080818-0.264904-0.2873688-0.4942045-0.5340462-0.6832399L32.9008636,14.4323931z M30.7829018,16.2273827
				c-0.3657093,0.2128544-0.7632446,0.0052719-0.9222889-0.0279751l0.9489918-0.551424
				C30.8240318,15.7479916,31.1748638,15.9987373,30.7829018,16.2273827z M31.1630917,15.0423079
				c-0.0468502-0.1004171-0.1450367-0.1848984-0.1034184-0.3471298c0.1307774-0.5077248,0.9292297-0.1975327,1.0295219-0.190731
				L31.1630917,15.0423079z" class="colorfed57a svgShape"></path><path fill="#d839bb" d="M35.6091194 16.174715v1.53162c-.0538368.1000595-.1154213.200119-.1924171.2924747v-1.5239143C35.4936981 16.374836 35.5552826 16.2747746 35.6091194 16.174715zM34.8702736 17.0136204v1.5316677c-.0615883.0538807-.1231728.1000595-.1924171.1385326v-1.53162C34.7471008 17.1136799 34.8086853 17.067503 34.8702736 17.0136204zM34.1236763 17.4754467v1.53162c-.0615387.0307693-.123127.0615845-.1924171.0923538v-1.5393238C34.0005493 17.5293274 34.0621376 17.506216 34.1236763 17.4754467zM33.3848305 17.7679214v1.5393238c-.0615845.0153618-.1231728.0384731-.1924133.0538826V17.821804C33.2616577 17.8063946 33.323246 17.790987 33.3848305 17.7679214zM32.6382332 17.9603367v1.5393238c-.0615387.0153618-.1308289.0230656-.1924133.0384731v-1.5393238C32.5074043 17.9834023 32.5766945 17.9756985 32.6382332 17.9603367zM31.8993893 18.0681v1.5393238c-.0615864.007658-.1308765.0153618-.1924152.0153618v-1.5393238C31.7685127 18.0834618 31.8378029 18.075758 31.8993893 18.0681zM31.152792 18.1142788v1.5393238h-.1924152V18.106575C31.0219631 18.1142788 31.0912056 18.1142788 31.152792 18.1142788zM30.4139004 18.0834618v1.5393238c-.0615387 0-.1308289-.0077038-.1924152-.0153618V18.0681C30.2830715 18.075758 30.344656 18.0834618 30.4139004 18.0834618zM29.6673508 17.991106v1.5393238c-.0615864-.0077038-.1308289-.0230656-.1924152-.0384731v-1.5393238C29.5365219 17.9680405 29.5980606 17.9834023 29.6673508 17.991106zM28.9284592 17.8140984v1.5393238c-.0692444-.0154076-.1308308-.0308151-.1924171-.0538807v-1.5393238C28.7976284 17.7832832 28.8669186 17.7986908 28.9284592 17.8140984zM28.1819096 17.5446892v1.5393238c-.0692902-.0230656-.1308308-.0538349-.1924171-.0846519v-1.5393238C28.0510788 17.4908543 28.1126194 17.5216236 28.1819096 17.5446892zM27.4430161 17.1444969v1.5393238c-.0692425-.0461769-.1308289-.0923557-.1924152-.1462383v-1.5393238C27.3121872 17.0521412 27.3737736 17.09832 27.4430161 17.1444969zM26.7041702 16.4517822v1.5470276c-.0769939-.0923557-.1462364-.1924152-.1924152-.3001785v-1.5470276C26.5655899 16.2516632 26.6271763 16.3517227 26.7041702 16.4517822z" class="colord89b39 svgShape"></path></g><polygon fill="#f4f6f8" points="47.529 33.59 42.39 36.576 25.318 26.719 30.456 23.733" class="color748bfd svgShape"></polygon><path fill="#7abcfe" d="M26.9626007,29.0635376c0.0955582,0.055172,0.0900688,0.1413593-0.0048676,0.1965313l-2.6520805,1.5412197
			c-0.0949383,0.055172-0.2437153,0.0586338-0.3392735,0.0034637l-2.6754227-1.5446568
			c-0.0895653-0.0517101-0.0900707-0.1413593,0.0048676-0.1965313l2.6520805-1.5412216
			c0.0949364-0.0551701,0.2497082-0.055172,0.3392735-0.0034618L26.9626007,29.0635376z" class="colorfed57a svgShape"></path><path fill="#6822a2" d="M31.4534798 31.6563473c.0955372.0551605.0900688.1413593-.0048695.1965313l-2.6520786 1.5412216c-.0949383.055172-.2437363.0586205-.3392735.0034599l-2.6754246-1.5446548c-.0895844-.0517216-.0900688-.1413593.0048695-.1965313l2.6520786-1.5412197c.0949383-.055172.2496891-.0551853.3392735-.0034637L31.4534798 31.6563473zM35.9443588 34.249157c.0955353.0551605.0900688.1413612-.0048714.1965332l-2.6520767 1.5412178c-.0949402.055172-.2437363.0586243-.3392754.0034637l-2.6754227-1.5446587c-.0895863-.0517197-.0900898-.1413689.0048485-.1965408l2.6520805-1.5412216c.0949364-.055172.2497063-.055172.3392906-.0034485L35.9443588 34.249157z" class="color5b5e71 svgShape"></path><path fill="#98b8d8" d="M40.435215,36.8419571c0.0955582,0.0551682,0.0960617,0.1448174,0.0011253,0.1999893l-2.6520805,1.5412216
			c-0.0949364,0.055172-0.2497063,0.055172-0.3452644,0l-2.6754036-1.5446434
			c-0.0895882-0.0517235-0.0900917-0.1413727,0.0048485-0.1965446l2.6520767-1.5412178
			c0.0949402-0.055172,0.2497101-0.055172,0.3392944-0.0034523L40.435215,36.8419571z" class="color9ad898 svgShape"></path><path fill="#6822a2" d="M22.7619629 31.5046806c.0955601.055172.0900707.1413593-.0048466.1965199l-2.6521015 1.5412312c-.0949364.055172-.2436943.0586243-.3392525.0034523l-2.6754227-1.5446568c-.0895653-.0517101-.0900898-.1413479.0048485-.1965199l2.6520996-1.5412312c.0949173-.0551605.2496872-.0551624.3392525-.0034523L22.7619629 31.5046806zM27.2528419 34.0974922c.0955391.0551567.0900688.1413574-.0048485.1965179l-2.6520996 1.5412331c-.0949383.055172-.2437153.058609-.3392525.0034485l-2.6754246-1.5446548c-.0895844-.0517235-.0900898-.1413498.0048485-.1965179l2.6520996-1.5412331c.0949173-.0551605.2496681-.055172.3392544-.0034523L27.2528419 34.0974922zM31.743721 36.6903c.0955372.0551605.0900688.1413612-.0048485.1965218l-2.6520996 1.5412292c-.0949383.055172-.2437153.0586128-.3392544.0034523l-2.6754227-1.5446587c-.0895863-.0517197-.0901108-.1413574.0048275-.1965294l2.6520996-1.5412331c.0949173-.0551605.2496891-.0551605.3392735-.003437L31.743721 36.6903z" class="color5b5e71 svgShape"></path><path fill="#98b8d8" d="M36.2345772,39.2831001c0.0955582,0.0551682,0.0960655,0.1448174,0.0011482,0.1999779
			l-2.6520996,1.5412331c-0.0949402,0.055172-0.249691,0.0551605-0.3452492-0.0000114l-2.6754036-1.5446434
			c-0.0895844-0.0517235-0.0901089-0.1413574,0.0048294-0.1965294l2.6520996-1.5412331
			c0.0949173-0.0551605,0.2496872-0.0551605,0.3392715-0.0034409L36.2345772,39.2831001z" class="color9ad898 svgShape"></path><path fill="#6822a2" d="M18.561327 33.9458237c.0955582.055172.0900898.1413498-.0048485.1965218l-2.6520996 1.5412292c-.0949173.0551605-.2436943.0586243-.3392534.0034523l-2.6754227-1.5446587c-.0895653-.0517082-.0900698-.1413574.0048475-.1965179l2.6520996-1.5412331c.0949383-.055172.2496891-.0551605.3392534-.0034485L18.561327 33.9458237zM23.052206 36.5386353c.0955372.0551567.0900879.141346-.0048485.1965179l-2.6520996 1.5412331c-.0949192.0551605-.2437153.058609-.3392544.0034485l-2.6754227-1.5446548c-.0895863-.0517235-.0900688-.1413574.0048485-.1965179l2.6520996-1.5412331c.0949383-.055172.2496681-.055172.3392525-.0034523L23.052206 36.5386353zM27.5430832 39.131443c.0955391.0551605.0900898.1413498-.0048485.1965218l-2.6520996 1.5412292c-.0949173.0551605-.2437153.0586128-.3392525.0034523l-2.6754246-1.5446548c-.0895844-.0517235-.0900898-.1413727.0048294-.1965332l2.6520996-1.5412331c.0949364-.055172.2496872-.0551605.3392735-.003437L27.5430832 39.131443zM14.3607101 36.3869553c.0955591.055172.0900698.1413612.0010672.1930847l-2.6580153 1.5446663c-.0949373.055172-.2437143.0586357-.3392735.0034637l-2.6754227-1.5446548c-.0895653-.051712-.0900698-.1413612.0048676-.1965332l2.6580153-1.5446701c.0890026-.0517235.2437735-.0517235.3333378-.0000114L14.3607101 36.3869553zM18.8515892 38.9797668c.0955372.0551567.0900688.1413574.0010662.1930809l-2.6580143 1.5446701c-.0949383.055172-.2437353.0586205-.3392744.0034637l-2.6754227-1.5446587c-.0895853-.0517235-.0900698-.1413574.0048676-.1965294l2.6580153-1.5446701c.0890026-.0517235.2437534-.0517349.3333378-.0000153L18.8515892 38.9797668zM23.3424664 41.5725746c.0955391.0551605.0900707.1413612.0010662.1930847l-2.6580143 1.5446663c-.0949364.055172-.2437344.0586243-.3392735.0034637l-2.6754227-1.5446548c-.0895844-.0517235-.0900898-.1413727.0048485-.1965446l2.6580143-1.5446701c.0890026-.0517197.2437725-.0517235.3333588 0L23.3424664 41.5725746z" class="color5b5e71 svgShape"></path><path fill="#474f59" d="M20.3931255 38.2776985l2.6564274-1.543354c.0467567-.0280342.0748444-.0654831.0748444-.1028786l-.0093632.4706459c0 .0373955-.0187244.0748444-.0654812.1028748l-2.6564274 1.5339928c-.0935116.0561218-.2431431.0654831-.3367138.0093651l-2.6750946-1.5433578c-.0467567-.0280304-.0654812-.0654793-.0654812-.1028748V36.640831c0 .0373917.0187244.0654793.0654812.0935135l2.6750946 1.543354C20.1499825 38.3338165 20.299614 38.3338165 20.3931255 38.2776985zM14.3601456 37.0459938l-2.6564264 1.5432968c-.0935125.0561218-.2432013.0561218-.3367138.0093651l-2.6844578-1.5526619c-.0374508-.0187263-.0654812-.056118-.0654812-.0935707l.0093622-.4612808c0 .0280876.0186682.0654793.0654821.0935707l2.6750946 1.5432968c.0935125.056118.2432013.056118.3367138 0l2.6564264-1.5432968c.0467567-.0280914.0747871-.0654831.0747871-.1028786l-.009305.4705887C14.4256277 36.9805145 14.4069023 37.0179062 14.3601456 37.0459938zM12.8916349 34.6047363c-.0467558-.0187225-.0748434-.056118-.0748434-.0935669l.0093622-.4612846c0 .0280876.0187254.0654831.0654812.0935707l2.6750956 1.5432968c.0935125.056118.2432013.056118.3367128 0l2.6564283-1.5432968c.0467548-.0280876.0748425-.0654831.0748425-.102932l-.0093613.4706459c0 .0280876-.0187263.0654793-.0748444.0935669l-2.6470652 1.5432968c-.0935116.0561218-.2432003.0561218-.3367128.0093651L12.8916349 34.6047363zM18.8498287 39.6368828l-2.6564274 1.543354c-.0935135.056118-.2432013.0654831-.3367138.0093651L13.181592 39.646244c-.0467558-.0280304-.0748434-.0654793-.0748434-.1028748l.0093622-.4612808c0 .0373917.0187254.0654793.0654812.0935097l2.6750956 1.5433578c.0935125.056118.2432003.056118.3367138 0l2.6564274-1.5433578c.0467548-.0280304.0748425-.0654221.0748425-.1028748l-.0093613.4706459C18.9153099 39.5807648 18.8965836 39.6088524 18.8498287 39.6368828zM17.0913601 32.1634216c-.0467567-.0186653-.0654812-.056118-.0654812-.0935097v-.4612846c0 .0280323.0187244.0654812.0654812.0935135l2.6750946 1.543354c.0935707.056118.2432022.056118.3367138 0l2.6564274-1.543354c.0467567-.0280323.0748444-.0654812.0748444-.1028748l-.0093632.4706459c0 .0280304-.0187244.0654793-.0654812.0935097l-2.6564274 1.5433578c-.0935116.056118-.2431431.056118-.3367138.0093613L17.0913601 32.1634216z" class="color474b59 svgShape"></path><path fill="#fa51db" d="M32.0382805,41.9255409c0.0467529-0.0280342,0.0654793-0.0654259,0.0654793-0.1028786v0.4706459
			c0,0.0373955-0.0280304,0.0654831-0.0748444,0.0935135l-6.8467312,3.9846115c-0.0935688,0.056118-0.2525635,0.056118-0.3461323,0
			l-2.6750965-1.5432968c-0.0467548-0.0280876-0.0654812-0.056118-0.0654812-0.0935707v-0.4706459
			c0,0.0374527,0.0187263,0.0748444,0.0654812,0.0935707l2.6750965,1.5526619c0.0935688,0.056118,0.2525635,0.056118,0.3461323,0
			L32.0382805,41.9255409z" class="colorfa5168 svgShape"></path><path fill="#986eba" d="M36.2380028 39.4842834c.046814-.0280304.0654831-.0654831.0654831-.1028748v.4706421c0 .0373955-.0186691.0654831-.0654831.0935135l-2.6563683 1.543354c-.0935707.0561218-.2525635.0561218-.346077 0l-2.6750946-1.543354c-.046814-.0280304-.0654812-.056118-.0654812-.0935135v-.4706421c0 .0373917.0280304.0748444.0654812.1028748l2.6750946 1.543354c.1028748.056118.2525063.056118.346077 0L36.2380028 39.4842834zM40.5032082 36.9401512v.4706459c0 .0373917-.0186653.0654221-.0654221.0935097l-2.6564293 1.5433578c-.0935097.056118-.2525635.056118-.3460732 0l-2.6750946-1.5433578c-.046814-.0280876-.0654831-.056118-.0654831-.0935097v-.4706459c0 .0373917.0280304.0747871.0654831.1028748l2.6750946 1.543354c.1028748.056118.2525635.056118.3460732 0l2.6564293-1.543354C40.4845428 37.0149384 40.5032082 36.9775429 40.5032082 36.9401512z" class="color6eba6e svgShape"></path><path fill="#ef41cf" d="M21.2910843,29.7221661c-0.0467548-0.0187244-0.0654812-0.056118-0.0654812-0.0935116v-0.4612827
			c0,0.0280304,0.0187263,0.0654812,0.0654812,0.0935116l2.6750965,1.543354c0.0935688,0.0561199,0.2432003,0.0561199,0.3367691,0
			l2.6563702-1.543354c0.0467567-0.0280304,0.0748444-0.0654812,0.0748444-0.1028748v0.4706459
			c-0.0093632,0.0373936-0.0280876,0.0654812-0.0748444,0.0935116l-2.6563702,1.543354
			c-0.0935688,0.0561199-0.2432003,0.0561199-0.3367691,0.0093632L21.2910843,29.7221661z" class="colorefac41 svgShape"></path><path fill="#474f59" d="M21.8709984 39.7959328c-.0467548-.0280876-.0654812-.0654793-.0654812-.0935669V39.23172c0 .0374489.0187263.0748444.0654812.0935669l2.6750965 1.5433006c.0935688.0561752.2432003.0561752.3367691 0l2.6563702-1.5433006c.0467567-.0280876.0748444-.0654793.0748444-.1028748v.4706459c0 .0373955-.0280876.0747871-.0748444.1028748l-2.6563702 1.5432968c-.0935688.046814-.2432003.0561218-.3367691 0L21.8709984 39.7959328zM24.2561378 36.3070297l-2.6750965-1.5432968c-.0467548-.0280914-.0654812-.0654831-.0654812-.1028786v-.4612808c0 .0373917.0187263.0654259.0654812.0935135l2.6750965 1.543354c.0935688.056118.2432003.056118.3367691 0l2.6563702-1.543354c.0467567-.0280876.0748444-.0654831.0748444-.1028748v.4706421c0 .0373955-.0280876.0747871-.0748444.1028786l-2.6563702 1.533989C24.4993382 36.3538437 24.3497066 36.3631477 24.2561378 36.3070297zM23.33951 42.227829l-2.6564274 1.5527153c-.0935116.0467567-.2431431.0561218-.3367138 0l-2.6750946-1.543354c-.0467567-.0280876-.0654812-.0654793-.0654812-.0935135v-.4706459c0 .0373955.0187244.0747871.0654812.0935135l2.6750946 1.543354c.0935707.0561218.2432022.0561218.3367138 0l2.6564274-1.543354c.0467567-.0280304.0748444-.0654793.0748444-.0935135v.4612846C23.4143543 42.171711 23.3862667 42.2091026 23.33951 42.227829zM25.7807674 31.8518295l2.6751518 1.5432968c.0935116.056118.2431431.056118.3367138 0l2.6563683-1.5432968c.046814-.0280895.0748444-.0654831.0748444-.1029339v.4706478c0 .0374489-.0280304.0748444-.0748444.102932l-2.6563683 1.5339355c-.0935707.056118-.2432022.0654793-.3367138.0093613l-2.6751518-1.5432968c-.0467567-.0280876-.0654831-.0654831-.0654831-.102932v-.4612846C25.7152843 31.7957096 25.7340107 31.82374 25.7807674 31.8518295zM30.2704487 34.4427185l2.6751537 1.543354c.0935097.056118.2431984.056118.3460732 0l2.6470642-1.543354c.0467567-.0280342.0747871-.0654259.0747871-.0935135v.4612808c0 .0373955-.0280304.0748444-.0747871.1028786l-2.6564255 1.543354c-.0935135.056118-.2432022.056118-.3367119 0l-2.6751537-1.543354c-.0467567-.0280342-.065424-.0654831-.065424-.0935135V34.349205C30.2050247 34.3865967 30.2236919 34.4240494 30.2704487 34.4427185zM28.7458763 38.8979759l-2.6751518-1.5433006c-.0467567-.0280876-.0654831-.0654793-.0654831-.0935669v-.4706459c0 .0374489.0187263.0748444.0654831.0935669l2.6751518 1.5433006c.0935116.056118.2431431.056118.3367138 0l2.6563683-1.5433006c.046814-.0280876.0748444-.0654793.0748444-.0935669v.4612808c0 .0374527-.0280304.0748444-.0748444.102932l-2.6563683 1.5433006C28.9890194 38.9447289 28.8393879 38.9540939 28.7458763 38.8979759z" class="color474b59 svgShape"></path><path fill="#f960dd" d="M32.0339432,41.7242432c0.0955582,0.055172,0.0960808,0.1448059,0.0011444,0.1999779l-6.8527164,3.9823647
			c-0.0949383,0.055172-0.2497082,0.055172-0.3452682,0.0000038l-2.6754036-1.5446472
			c-0.0895844-0.0517197-0.0900879-0.1413689,0.0048485-0.1965408l6.8527164-3.9823647
			c0.0949383-0.055172,0.2496891-0.0551605,0.3392735-0.0034409L32.0339432,41.7242432z" class="colorf9607f svgShape"></path></g></svg>