<svg xmlns="http://www.w3.org/2000/svg" xmlns:xlink="http://www.w3.org/1999/xlink" viewBox="0 0 800 600" id="buyerstandinginfrontofgiantsmartphoneandbuyinggoodsoninternetstore"><defs><linearGradient id="l" x1="88.91" x2="167.25" y1="408.86" y2="408.86" gradientUnits="userSpaceOnUse"><stop offset=".45" stop-color="#c6d6e7" class="stopColorc6cbe7 svgShape"></stop><stop offset="1" stop-color="#ffffff" class="stopColorffffff svgShape"></stop></linearGradient><linearGradient id="a" x1="75.14" x2="147.7" y1="414.99" y2="414.99" gradientUnits="userSpaceOnUse"><stop offset="0" stop-color="#ed5ad2" class="stopColored995a svgShape"></stop><stop offset="1" stop-color="#d647bc" class="stopColord67747 svgShape"></stop></linearGradient><linearGradient id="m" x1="97.48" x2="114.33" y1="406.23" y2="406.23" xlink:href="#a"></linearGradient><linearGradient id="n" x1="124.3" x2="145.7" y1="393.17" y2="403.54" gradientUnits="userSpaceOnUse"><stop offset="0" stop-color="#c6d6e7" class="stopColorc6cbe7 svgShape"></stop><stop offset="1" stop-color="#ffffff" class="stopColorffffff svgShape"></stop></linearGradient><linearGradient id="o" x1="67.25" x2="139.8" y1="396.16" y2="396.16" xlink:href="#a"></linearGradient><linearGradient id="p" x1="89.59" x2="106.43" y1="387.41" y2="387.41" xlink:href="#a"></linearGradient><linearGradient id="q" x1="86" x2="162.74" y1="380.22" y2="380.22" xlink:href="#a"></linearGradient><linearGradient id="r" x1="112.53" x2="129.37" y1="371.46" y2="371.46" xlink:href="#a"></linearGradient><linearGradient id="b" x1="141.45" x2="191.58" y1="123.24" y2="210.07" gradientUnits="userSpaceOnUse"><stop offset="0" stop-color="#ffffff" class="stopColorffffff svgShape"></stop><stop offset=".43" stop-color="#f4f8fc" class="stopColorf4f6fc svgShape"></stop><stop offset="1" stop-color="#eaf1f9" class="stopColoreaeef9 svgShape"></stop></linearGradient><linearGradient id="c" x1="148.14" x2="176.38" y1="243.3" y2="194.39" gradientUnits="userSpaceOnUse"><stop offset="0" stop-color="#5e4e6c" class="stopColor4f4e6c svgShape"></stop><stop offset="1" stop-color="#816d91" class="stopColor6d6d91 svgShape"></stop></linearGradient><linearGradient id="s" x1="584.07" x2="622.93" y1="126.15" y2="193.46" xlink:href="#b"></linearGradient><linearGradient id="t" x1="589.25" x2="611.14" y1="219.22" y2="181.3" xlink:href="#c"></linearGradient><linearGradient id="d" x1="519.66" x2="574.44" y1="508.85" y2="508.85" gradientUnits="userSpaceOnUse"><stop offset=".43" stop-color="#c6d6e7" class="stopColorc6cbe7 svgShape"></stop><stop offset=".57" stop-color="#d7e2ee" class="stopColord7dbee svgShape"></stop><stop offset=".84" stop-color="#f4f6f8" class="stopColorf4f5fa svgShape"></stop><stop offset="1" stop-color="#ffffff" class="stopColorffffff svgShape"></stop></linearGradient><linearGradient id="e" x1="507.59" x2="562.39" y1="514.12" y2="514.12" gradientUnits="userSpaceOnUse"><stop offset="0" stop-color="#70607d" class="stopColor61607d svgShape"></stop><stop offset=".04" stop-color="#6e5e7b" class="stopColor5f5e7b svgShape"></stop><stop offset=".64" stop-color="#465364" class="stopColor464764 svgShape"></stop><stop offset="1" stop-color="#3d4a5b" class="stopColor3d3e5b svgShape"></stop></linearGradient><linearGradient id="u" x1="232.25" x2="287.03" y1="535.51" y2="535.51" xlink:href="#d"></linearGradient><linearGradient id="v" x1="220.17" x2="274.98" y1="538.94" y2="538.94" xlink:href="#e"></linearGradient><linearGradient id="w" x1="166.96" x2="248.51" y1="469.11" y2="469.11" gradientUnits="userSpaceOnUse"><stop offset="0" stop-color="#c6d6e7" class="stopColorc6cbe7 svgShape"></stop><stop offset=".15" stop-color="#d7e2ee" class="stopColord7dbee svgShape"></stop><stop offset=".46" stop-color="#f4f6f8" class="stopColorf4f5fa svgShape"></stop><stop offset=".64" stop-color="#ffffff" class="stopColorffffff svgShape"></stop></linearGradient><linearGradient id="x" x1="157.77" x2="183.58" y1="471.08" y2="426.37" gradientUnits="userSpaceOnUse"><stop offset="0" stop-color="#c9d5e2" class="stopColorc9cee2 svgShape"></stop><stop offset=".02" stop-color="#cad6e3" class="stopColorcacfe3 svgShape"></stop><stop offset=".64" stop-color="#e7edf3" class="stopColore7eaf3 svgShape"></stop><stop offset="1" stop-color="#f2f5f9" class="stopColorf2f4f9 svgShape"></stop></linearGradient><linearGradient id="y" x1="334.8" x2="555.49" y1="274.96" y2="274.96" gradientUnits="userSpaceOnUse"><stop offset="0" stop-color="#d3e2f2" class="stopColord3d8f2 svgShape"></stop><stop offset=".22" stop-color="#e8f0f8" class="stopColore8ebf8 svgShape"></stop><stop offset=".46" stop-color="#f9fbfd" class="stopColorf9fafd svgShape"></stop><stop offset=".64" stop-color="#ffffff" class="stopColorffffff svgShape"></stop></linearGradient><linearGradient id="z" x1="364.8" x2="372.68" y1="98.51" y2="112.17" gradientUnits="userSpaceOnUse"><stop offset="0" stop-color="#f7f9fc" class="stopColorf7f7fc svgShape"></stop><stop offset=".33" stop-color="#ecf1f6" class="stopColorecedf6 svgShape"></stop><stop offset=".9" stop-color="#cfdae5" class="stopColorcfd3e5 svgShape"></stop><stop offset="1" stop-color="#c9d5e2" class="stopColorc9cee2 svgShape"></stop></linearGradient><linearGradient id="f" x1="305.67" x2="322.92" y1="158.41" y2="188.29" gradientUnits="userSpaceOnUse"><stop offset="0" stop-color="#c9d5e2" class="stopColorc9cee2 svgShape"></stop><stop offset=".33" stop-color="#d4dee8" class="stopColord4d8e8 svgShape"></stop><stop offset=".9" stop-color="#f1f5f9" class="stopColorf1f2f9 svgShape"></stop><stop offset="1" stop-color="#f7f9fc" class="stopColorf7f7fc svgShape"></stop></linearGradient><linearGradient id="A" x1="372.89" x2="377.85" y1="264.85" y2="273.44" xlink:href="#f"></linearGradient><linearGradient id="B" x1="216.6" x2="505.53" y1="361.53" y2="361.53" gradientUnits="userSpaceOnUse"><stop offset="0" stop-color="#c6d6e7" class="stopColorc6cbe7 svgShape"></stop><stop offset="0" stop-color="#c6d6e7" class="stopColorc6cbe7 svgShape"></stop><stop offset=".26" stop-color="#e5ecf4" class="stopColore5e8f4 svgShape"></stop><stop offset=".48" stop-color="#f8fafc" class="stopColorf8f9fc svgShape"></stop><stop offset=".64" stop-color="#ffffff" class="stopColorffffff svgShape"></stop></linearGradient><linearGradient id="k" x1="601.26" x2="732.75" y1="336.41" y2="336.41" gradientUnits="userSpaceOnUse"><stop offset="0" stop-color="#c6d6e7" class="stopColorc6cbe7 svgShape"></stop><stop offset=".19" stop-color="#d7e2ee" class="stopColord7dbee svgShape"></stop><stop offset=".58" stop-color="#f4f6f8" class="stopColorf4f5fa svgShape"></stop><stop offset=".8" stop-color="#ffffff" class="stopColorffffff svgShape"></stop></linearGradient><linearGradient id="C" x1="418.78" x2="707.2" y1="349.7" y2="349.7" gradientUnits="userSpaceOnUse"><stop offset=".2" stop-color="#c6d6e7" class="stopColorc6cbe7 svgShape"></stop><stop offset=".88" stop-color="#ffffff" class="stopColorffffff svgShape"></stop></linearGradient><linearGradient id="D" x1="607.78" x2="618.36" y1="271.02" y2="289.34" gradientUnits="userSpaceOnUse"><stop offset="0" stop-color="#ffffff" class="stopColorffffff svgShape"></stop><stop offset=".31" stop-color="#eff3f8" class="stopColoreff1f8 svgShape"></stop><stop offset=".9" stop-color="#c7d6e5" class="stopColorc7cbe5 svgShape"></stop><stop offset="1" stop-color="#bfd0e1" class="stopColorbfc4e1 svgShape"></stop></linearGradient><linearGradient id="E" x1="575.21" x2="587.88" y1="257.97" y2="279.91" gradientUnits="userSpaceOnUse"><stop offset="0" stop-color="#a7bace" class="stopColora7adce svgShape"></stop><stop offset=".39" stop-color="#b0c2d5" class="stopColorb0b5d5 svgShape"></stop><stop offset="1" stop-color="#c6d6e7" class="stopColorc6cbe7 svgShape"></stop></linearGradient><linearGradient id="F" x1="603.14" x2="611.7" y1="276.47" y2="291.3" gradientUnits="userSpaceOnUse"><stop offset="0" stop-color="#a7bace" class="stopColora7adce svgShape"></stop><stop offset=".56" stop-color="#b7cade" class="stopColorb7bcde svgShape"></stop><stop offset="1" stop-color="#bdd0e4" class="stopColorbdc1e4 svgShape"></stop></linearGradient><linearGradient id="G" x1="582.29" x2="596.9" y1="251.99" y2="277.3" gradientUnits="userSpaceOnUse"><stop offset=".36" stop-color="#ffffff" class="stopColorffffff svgShape"></stop><stop offset=".66" stop-color="#f9fafc" class="stopColorf9fafc svgShape"></stop><stop offset="1" stop-color="#ebf0f6" class="stopColorebeef6 svgShape"></stop></linearGradient><linearGradient id="H" x1="419.92" x2="592.23" y1="50" y2="348.45" gradientUnits="userSpaceOnUse"><stop offset=".3" stop-color="#816d91" class="stopColor6d6d91 svgShape"></stop><stop offset=".32" stop-color="#756285" class="stopColor626385 svgShape"></stop><stop offset=".41" stop-color="#3d4a5b" class="stopColor3d3e5b svgShape"></stop></linearGradient><linearGradient id="g" x1="428.29" x2="471.54" y1="397.57" y2="397.57" gradientUnits="userSpaceOnUse"><stop offset="0" stop-color="#c6d6e7" class="stopColorc6cbe7 svgShape"></stop><stop offset=".08" stop-color="#cedcea" class="stopColorced2ea svgShape"></stop><stop offset=".4" stop-color="#e9eff6" class="stopColore9ebf6 svgShape"></stop><stop offset=".68" stop-color="#f9fbfd" class="stopColorf9fafd svgShape"></stop><stop offset=".9" stop-color="#ffffff" class="stopColorffffff svgShape"></stop></linearGradient><linearGradient id="I" x1="408.58" x2="451.83" y1="386.09" y2="386.09" xlink:href="#g"></linearGradient><linearGradient id="h" x1="870.87" x2="886.81" y1="384.57" y2="384.57" gradientTransform="matrix(-1 0 0 1 1290.6 0)" gradientUnits="userSpaceOnUse"><stop offset="0" stop-color="#70607d" class="stopColor61607d svgShape"></stop><stop offset=".51" stop-color="#5c4c6a" class="stopColor4c4d6a svgShape"></stop><stop offset="1" stop-color="#3d4a5b" class="stopColor3d3e5b svgShape"></stop></linearGradient><linearGradient id="J" x1="851.16" x2="867.1" y1="396.05" y2="396.05" xlink:href="#h"></linearGradient><linearGradient id="K" x1="858.08" x2="885.49" y1="357.95" y2="357.95" gradientTransform="matrix(-1 0 0 1 1290.6 0)" gradientUnits="userSpaceOnUse"><stop offset="0" stop-color="#816d91" class="stopColor6d6d91 svgShape"></stop><stop offset=".2" stop-color="#746183" class="stopColor616183 svgShape"></stop><stop offset=".71" stop-color="#584766" class="stopColor474866 svgShape"></stop><stop offset="1" stop-color="#3d4a5b" class="stopColor3d3e5b svgShape"></stop></linearGradient><linearGradient id="L" x1="857.02" x2="885.65" y1="308.76" y2="308.76" gradientTransform="matrix(-1 0 0 1 1290.6 0)" gradientUnits="userSpaceOnUse"><stop offset="0" stop-color="#bfd0e1" class="stopColorbfc4e1 svgShape"></stop><stop offset="1" stop-color="#ffffff" class="stopColorffffff svgShape"></stop></linearGradient><linearGradient id="M" x1="865.17" x2="823.26" y1="296.91" y2="273.65" gradientTransform="matrix(-1 0 0 1 1290.6 0)" gradientUnits="userSpaceOnUse"><stop offset="0" stop-color="#ebf0f6" class="stopColorebeef6 svgShape"></stop><stop offset=".49" stop-color="#e6edf4" class="stopColore6eaf4 svgShape"></stop><stop offset="1" stop-color="#dae4ef" class="stopColordadfef svgShape"></stop></linearGradient><linearGradient id="i" x1="520.06" x2="586.96" y1="422.4" y2="422.4" gradientUnits="userSpaceOnUse"><stop offset="0" stop-color="#c6d6e7" class="stopColorc6cbe7 svgShape"></stop><stop offset=".26" stop-color="#cfddeb" class="stopColorcfd3eb svgShape"></stop><stop offset=".68" stop-color="#e8eef5" class="stopColore8eaf5 svgShape"></stop><stop offset="1" stop-color="#ffffff" class="stopColorffffff svgShape"></stop></linearGradient><linearGradient id="N" x1="456.86" x2="523.76" y1="422.4" y2="422.4" xlink:href="#i"></linearGradient><linearGradient id="O" x1="456.16" x2="575.75" y1="433.15" y2="433.15" gradientUnits="userSpaceOnUse"><stop offset="0" stop-color="#70607d" class="stopColor61607d svgShape"></stop><stop offset=".61" stop-color="#584865" class="stopColor484865 svgShape"></stop><stop offset="1" stop-color="#3d4a5b" class="stopColor3d3e5b svgShape"></stop></linearGradient><linearGradient id="j" x1="588.72" x2="600.24" y1="471.02" y2="451.08" gradientUnits="userSpaceOnUse"><stop offset="0" stop-color="#5e4e6c" class="stopColor4f4e6c svgShape"></stop><stop offset=".36" stop-color="#675675" class="stopColor565675 svgShape"></stop><stop offset=".94" stop-color="#7e6b8e" class="stopColor6b6b8e svgShape"></stop><stop offset="1" stop-color="#816d91" class="stopColor6d6d91 svgShape"></stop></linearGradient><linearGradient id="P" x1="565.93" x2="577.45" y1="457.86" y2="437.91" gradientUnits="userSpaceOnUse"><stop offset="0" stop-color="#d3e2f2" class="stopColord3d8f2 svgShape"></stop><stop offset=".31" stop-color="#dce8f5" class="stopColordce0f5 svgShape"></stop><stop offset=".83" stop-color="#f5f8fc" class="stopColorf5f6fc svgShape"></stop><stop offset="1" stop-color="#ffffff" class="stopColorffffff svgShape"></stop></linearGradient><linearGradient id="Q" x1="617.79" x2="636.86" y1="486" y2="474.99" xlink:href="#j"></linearGradient><linearGradient id="R" x1="263.77" x2="475.32" y1="473" y2="473" gradientUnits="userSpaceOnUse"><stop offset="0" stop-color="#c6d6e7" class="stopColorc6cbe7 svgShape"></stop><stop offset=".07" stop-color="#cfddeb" class="stopColorcfd3eb svgShape"></stop><stop offset=".31" stop-color="#e9eff6" class="stopColore9ebf6 svgShape"></stop><stop offset=".53" stop-color="#f9fbfd" class="stopColorf9fafd svgShape"></stop><stop offset=".7" stop-color="#ffffff" class="stopColorffffff svgShape"></stop></linearGradient><linearGradient id="S" x1="347.54" x2="479.48" y1="460.05" y2="460.05" gradientUnits="userSpaceOnUse"><stop offset="0" stop-color="#c6d6e7" class="stopColorc6cbe7 svgShape"></stop><stop offset=".55" stop-color="#ebf0f6" class="stopColorebecf6 svgShape"></stop><stop offset=".92" stop-color="#ffffff" class="stopColorffffff svgShape"></stop></linearGradient><linearGradient id="T" x1="368.63" x2="447.08" y1="520.71" y2="520.71" xlink:href="#k"></linearGradient></defs><g style="isolation:isolate" fill="#5046e4" class="color000000 svgShape"><g fill="#5046e4" class="color000000 svgShape"><g data-name="Gift box" fill="#5046e4" class="color000000 svgShape"><path d="M155.69,392.8c-8.19-4.73-19.08-6.9-29.77-6.58H109.15V389a45.23,45.23,0,0,0-8.87,3.84c-15.24,8.87-15.15,23.24.19,32.1a44.69,44.69,0,0,0,8.68,3.76v2.87h20.11c9.67-.16,19.25-2.35,26.61-6.63C171.12,416,171,401.67,155.69,392.8Z" style="mix-blend-mode:multiply" fill="url(#l)"></path><path fill="#f4f6f8" d="M75.14,398.44c0-5.67-.44-11.34,7-15.66s17.31-6.49,27.13-6.49,19.64,2.16,27.14,6.49,11.23,10,11.24,15.66-3.75,11.34-11.24,15.67-17.31,6.49-27.13,6.49-19.64-2.17-27.14-6.49S75.14,404.11,75.14,398.44Z" class="colorf7c479 svgShape"></path><path fill="url(#a)" d="M136.46,414.11c-7.5,4.33-17.31,6.49-27.13,6.49s-19.64-2.17-27.14-6.49-7-10-7-15.67v10.94c0,5.67-.44,11.34,7,15.66s17.32,6.49,27.14,6.49,19.63-2.16,27.13-6.48,11.24-10,11.24-15.67V398.44C147.7,404.11,144,409.78,136.46,414.11Z"></path><path fill="#78b5f3" d="M87.29,411.16c6.09,3.52,14.06,5.28,22,5.28s16-1.76,22-5.27c5.61-3.25,8.63-7.42,9.06-11.66-.43-4.24-3.45-8.41-9.06-11.66-6.09-3.51-14.06-5.27-22-5.26s-15.94,1.75-22,5.26c-5.61,3.25-4.44,7.42-4.88,11.66C82.85,403.75,81.68,407.92,87.29,411.16Z" class="colorf3b378 svgShape"></path><path fill="#d647bc" d="M87.29,387.85c6.09-3.51,14.06-5.27,22-5.26s16,1.75,22,5.26c5.61,3.25,8.63,7.42,9.06,11.66a9.45,9.45,0,0,0,.07-1.07c0-4.6-3.05-9.2-9.13-12.72s-14.06-5.27-22-5.27-15.94,1.76-22,5.27-4.94,8.12-4.94,12.72a9.59,9.59,0,0,0,.06,1.07C82.85,395.27,81.68,391.1,87.29,387.85Z" class="colord67747 svgShape"></path><polygon fill="#d647bc" points="124.68 393.87 127.62 392.17 127.62 390.04 124.68 391.74 124.68 393.87" class="colord67747 svgShape"></polygon><path fill="#f4f6f8" d="M111.08,397.43a2.5,2.5,0,0,1,0-4.75,9.11,9.11,0,0,1,8.23,0c2.27,1.31,2.27,3.44,0,4.75l3.74,2.16c3.68-2.13,4.22-5.39,1.63-7.85l2.94-1.71-3.73-2.15-3,1.7c-4.26-1.49-9.91-1.18-13.59.94-2.1,1.21-3.26,2.82-3.26,4.53s1.16,3.33,3.26,4.54c2.26,1.31,2.27,3.44,0,4.75a9.13,9.13,0,0,1-8.24,0c-2.26-1.31-2.26-3.44,0-4.75l-3.74-2.16c-3.68,2.13-4.22,5.39-1.63,7.85L91,406.85,94.76,409l2.72-1.57c4.27,1.49,9.92,1.18,13.6-.94C115.41,404,115.41,399.93,111.08,397.43Z" class="colorf7c479 svgShape"></path><polygon fill="#ed5ad2" points="91.03 408.98 94.76 411.14 94.76 409.01 91.03 406.85 91.03 408.98" class="colored995a svgShape"></polygon><polygon fill="#d647bc" points="94.76 411.14 97.48 409.57 97.48 407.44 94.76 409.01 94.76 411.14" class="colord67747 svgShape"></polygon><polygon fill="#ed5ad2" points="119.31 399.56 123.05 401.72 123.05 399.59 119.31 397.43 119.31 399.56" class="colored995a svgShape"></polygon><path fill="#d647bc" d="M99.12,401.72v-2.13c-1.61.93-2.08,2.27-1.4,3.44A3.72,3.72,0,0,1,99.12,401.72Z" class="colord67747 svgShape"></path><path fill="#ed5ad2" d="M92.14 401.86v2.4h0a4 4 0 00.47 1.68l1.13-.65a4.56 4.56 0 01-1.6-3.42zM107.35 401.72a3.69 3.69 0 011.39 1.31c.68-1.17.22-2.51-1.39-3.44-2.1-1.21-3.26-2.82-3.26-4.54v2.14C104.09 398.9 105.25 400.51 107.35 401.72zM114.33 402v0h0z" class="colored995a svgShape"></path><path fill="#d647bc" d="M126.28,395.05c0,1.64-1.07,3.29-3.23,4.54v2.13c2.22-1.28,3.28-3,3.22-4.66h0v-2Z" class="colord67747 svgShape"></path><path fill="url(#m)" d="M111.08,406.5c-3.68,2.12-9.33,2.43-13.6.94v2.13c4.27,1.49,9.92,1.19,13.6-.94,2.15-1.24,3.23-2.87,3.24-4.5h0V402C114.32,403.61,113.24,405.25,111.08,406.5Z"></path><path fill="#d647bc" d="M119.31,392.68a9.11,9.11,0,0,0-8.23,0,2.89,2.89,0,0,0-1.71,2.37,2.1,2.1,0,0,0,.31,1.07,3.72,3.72,0,0,1,1.4-1.31,9.11,9.11,0,0,1,8.23,0,3.72,3.72,0,0,1,1.4,1.31C121.38,395,120.92,393.61,119.31,392.68Z" class="colord67747 svgShape"></path><path d="M147.79,374c-8.19-4.72-19.08-6.9-29.77-6.58H101.26v2.74A45.23,45.23,0,0,0,92.39,374c-15.25,8.87-15.16,23.24.18,32.1a44.78,44.78,0,0,0,8.69,3.76v2.87h20.1c9.67-.16,19.26-2.35,26.62-6.63C163.22,397.21,163.15,382.84,147.79,374Z" style="mix-blend-mode:multiply" fill="url(#n)"></path><path fill="#f4f6f8" d="M67.25,379.61C67.25,374,71,368.28,78.49,364s13.12-6.49,22.94-6.49,19.64,2.16,27.13,6.49,11.24,10,11.24,15.66-3.74,11.34-11.24,15.67-17.31,6.49-27.13,6.49S86,399.61,78.49,395.28,67.25,385.28,67.25,379.61Z" class="colorf7c479 svgShape"></path><path fill="url(#o)" d="M128.56,395.28c-7.49,4.33-17.31,6.49-27.13,6.49S86,399.61,78.49,395.28s-11.24-10-11.24-15.67v10.94c0,5.67,3.75,11.34,11.24,15.66s13.12,6.49,22.94,6.49,19.64-2.16,27.13-6.48,11.24-10,11.24-15.67V379.61C139.8,385.28,136.06,391,128.56,395.28Z"></path><path fill="#78b5f3" d="M83.59,392.34c6.08,3.51,9.87,5.27,17.84,5.27s15.95-1.76,22-5.27c5.61-3.24,8.63-7.42,9.06-11.66-.43-4.24-3.45-8.41-9.06-11.65-6.09-3.52-14.06-5.27-22-5.27S89.67,365.51,83.58,369c-5.61,3.24-8.63,7.41-9.06,11.65C75,384.92,78,389.09,83.59,392.34Z" class="colorf3b378 svgShape"></path><path fill="#d647bc" d="M83.58,369c6.09-3.52,9.88-5.27,17.85-5.27s15.95,1.75,22,5.27c5.61,3.24,8.63,7.41,9.06,11.65a9.46,9.46,0,0,0,.06-1.07c0-4.6-3-9.2-9.12-12.72s-14.06-5.27-22-5.27-11.76,1.76-17.85,5.27-9.12,8.12-9.12,12.72a9.59,9.59,0,0,0,.06,1.07C75,376.44,78,372.27,83.58,369Z" class="colord67747 svgShape"></path><polygon fill="#d647bc" points="116.78 375.04 119.73 373.34 119.73 371.2 116.78 372.91 116.78 375.04" class="colord67747 svgShape"></polygon><path fill="#f4f6f8" d="M103.19,378.6a2.5,2.5,0,0,1,0-4.75,9.11,9.11,0,0,1,8.23,0c2.27,1.31,2.27,3.44,0,4.75l3.73,2.16c3.69-2.13,4.22-5.39,1.63-7.85l3-1.7L116,369.05l-3,1.7c-4.27-1.49-9.91-1.18-13.6.94-2.1,1.22-3.25,2.82-3.25,4.54s1.16,3.32,3.25,4.53c2.27,1.31,2.27,3.44,0,4.75a9.11,9.11,0,0,1-8.23,0c-2.27-1.31-2.27-3.44,0-4.75l-3.73-2.16c-3.69,2.13-4.22,5.39-1.64,7.85L83.14,388l3.73,2.16,2.72-1.57c4.27,1.49,9.91,1.18,13.6-.94C107.52,385.17,107.52,381.1,103.19,378.6Z" class="colorf7c479 svgShape"></path><polygon fill="#ed5ad2" points="83.14 390.15 86.87 392.31 86.87 390.18 83.14 388.02 83.14 390.15" class="colored995a svgShape"></polygon><polygon fill="#d647bc" points="86.87 392.31 89.59 390.74 89.59 388.61 86.87 390.18 86.87 392.31" class="colord67747 svgShape"></polygon><polygon fill="#ed5ad2" points="111.42 380.73 115.15 382.89 115.15 380.76 111.42 378.6 111.42 380.73" class="colored995a svgShape"></polygon><path fill="#d647bc" d="M91.22,382.89v-2.13c-1.61.93-2.07,2.27-1.39,3.44A3.61,3.61,0,0,1,91.22,382.89Z" class="colord67747 svgShape"></path><path fill="#ed5ad2" d="M84.25 383v2.4h0a4.11 4.11 0 00.46 1.68l1.13-.65A4.58 4.58 0 0184.26 383zM99.45 382.89a3.72 3.72 0 011.4 1.31c.67-1.17.21-2.51-1.4-3.44-2.09-1.21-3.25-2.82-3.25-4.53v2.13C96.2 380.07 97.36 381.68 99.45 382.89zM106.43 383.12v0h0z" class="colored995a svgShape"></path><path fill="#d647bc" d="M118.38,376.22c0,1.64-1.06,3.29-3.23,4.54v2.13c2.22-1.28,3.29-3,3.23-4.66h0v-2Z" class="colord67747 svgShape"></path><path fill="url(#p)" d="M103.19,387.67c-3.69,2.12-9.33,2.43-13.6.94v2.13c4.27,1.49,9.91,1.19,13.6-.94,2.14-1.24,3.22-2.87,3.24-4.49h0v-2.17C106.43,384.78,105.35,386.42,103.19,387.67Z"></path><path fill="#d647bc" d="M111.42,373.85a9.11,9.11,0,0,0-8.23,0,2.89,2.89,0,0,0-1.71,2.38,2.09,2.09,0,0,0,.31,1.06,3.72,3.72,0,0,1,1.4-1.31,9.11,9.11,0,0,1,8.23,0,3.61,3.61,0,0,1,1.39,1.31C113.49,376.12,113,374.78,111.42,373.85Z" class="colord67747 svgShape"></path><path fill="#f4f6f8" d="M86,363.67C86,358,89.75,352.33,97.24,348s17.31-6.49,27.13-6.49S144,343.68,151.5,348s11.24,10,11.24,15.66S159,375,151.5,379.34s-17.31,6.48-27.12,6.48-19.64-2.16-27.14-6.48S86,369.34,86,363.67Z" class="colorf7c479 svgShape"></path><path fill="url(#q)" d="M151.5,379.34c-7.49,4.32-17.31,6.48-27.12,6.48s-19.64-2.16-27.14-6.48S86,369.34,86,363.67v10.94c0,5.67,3.75,11.34,11.24,15.66s17.32,6.49,27.14,6.49,19.63-2.16,27.12-6.49,11.25-10,11.24-15.66V363.67C162.75,369.34,159,375,151.5,379.34Z"></path><path fill="#78b5f3" d="M102.34,376.39c6.08,3.52,14.06,5.27,22,5.27s15.94-1.75,22-5.27c5.61-3.24,8.63-7.41,9.06-11.65-.43-4.24-3.45-8.41-9.06-11.66-6.09-3.51-14.06-5.27-22-5.27s-16,1.76-22,5.27c-5.62,3.24-8.63,7.41-9.07,11.66C93.71,369,96.72,373.15,102.34,376.39Z" class="colorf3b378 svgShape"></path><path fill="#d647bc" d="M102.34,353.08c6.08-3.51,14.06-5.27,22-5.27s15.95,1.76,22,5.27c5.61,3.25,8.63,7.42,9.06,11.66a9.59,9.59,0,0,0,.06-1.07c0-4.6-3-9.21-9.12-12.72s-14.06-5.27-22-5.27-16,1.76-22,5.27-9.13,8.12-9.13,12.72a9.59,9.59,0,0,0,.06,1.07C93.71,360.49,96.72,356.32,102.34,353.08Z" class="colord67747 svgShape"></path><polygon fill="#d647bc" points="139.72 359.1 142.67 357.39 142.67 355.26 139.72 356.96 139.72 359.1" class="colord67747 svgShape"></polygon><path fill="#f4f6f8" d="M126.13,362.66a2.5,2.5,0,0,1,0-4.75,9.11,9.11,0,0,1,8.23,0c2.27,1.31,2.27,3.44,0,4.75l3.73,2.15c3.69-2.12,4.22-5.38,1.63-7.85l2.95-1.7-3.73-2.15-2.95,1.7c-4.27-1.5-9.91-1.19-13.6.94-2.09,1.21-3.25,2.82-3.25,4.53s1.16,3.32,3.25,4.53c2.27,1.31,2.27,3.45,0,4.76a9.11,9.11,0,0,1-8.23,0c-2.27-1.31-2.27-3.45,0-4.76l-3.73-2.15c-3.68,2.13-4.22,5.39-1.63,7.85l-2.72,1.57,3.73,2.15,2.72-1.57c4.27,1.5,9.91,1.19,13.6-.94C130.46,369.22,130.46,365.16,126.13,362.66Z" class="colorf7c479 svgShape"></path><polygon fill="#ed5ad2" points="106.08 374.21 109.81 376.37 109.81 374.24 106.08 372.08 106.08 374.21" class="colored995a svgShape"></polygon><polygon fill="#d647bc" points="109.81 376.37 112.53 374.8 112.53 372.66 109.81 374.24 109.81 376.37" class="colord67747 svgShape"></polygon><polygon fill="#ed5ad2" points="134.36 364.79 138.09 366.95 138.09 364.81 134.36 362.66 134.36 364.79" class="colored995a svgShape"></polygon><path fill="#d647bc" d="M114.16,367v-2.14c-1.61.93-2.07,2.28-1.39,3.45A3.61,3.61,0,0,1,114.16,367Z" class="colord67747 svgShape"></path><path fill="#ed5ad2" d="M107.19 367.08v2.4h0a4.15 4.15 0 00.46 1.68l1.14-.65a4.59 4.59 0 01-1.6-3.42zM122.39 367a3.72 3.72 0 011.4 1.31c.68-1.17.21-2.52-1.4-3.45-2.09-1.21-3.25-2.82-3.25-4.53v2.14C119.14 364.13 120.3 365.74 122.39 367zM129.37 367.18v0h0z" class="colored995a svgShape"></path><path fill="#d647bc" d="M141.32,360.28c0,1.64-1.06,3.28-3.23,4.53V367c2.22-1.29,3.29-3,3.23-4.66h0v-2Z" class="colord67747 svgShape"></path><path fill="url(#r)" d="M126.13,371.72c-3.69,2.13-9.33,2.44-13.6.94v2.14c4.27,1.49,9.91,1.18,13.6-.95,2.15-1.23,3.22-2.86,3.24-4.49h0V367.2C129.37,368.84,128.29,370.48,126.13,371.72Z"></path><path fill="#d647bc" d="M134.36,357.91a9.11,9.11,0,0,0-8.23,0,2.89,2.89,0,0,0-1.71,2.37,2.1,2.1,0,0,0,.31,1.07,3.64,3.64,0,0,1,1.4-1.31,9.11,9.11,0,0,1,8.23,0,3.72,3.72,0,0,1,1.4,1.31C136.43,360.18,136,358.84,134.36,357.91Z" class="colord67747 svgShape"></path><polygon fill="url(#b)" points="187.28 212.55 145.75 232.42 145.75 120.76 187.28 100.89 187.28 212.55"></polygon><path fill="url(#c)" d="M165.72,197.85c5.56-3.21,10.6-3.51,14.25-1.39l7,4.09c-3.64-2.11-8.68-1.82-14.25,1.4-11.06,6.38-20,21.86-20,34.57,0,6.31,2.25,10.76,5.84,12.84l-7-4.09c-3.6-2.09-5.83-6.53-5.85-12.85C145.72,219.72,154.65,204.24,165.72,197.85Z"></path><path fill="#e3eaf1" d="M172.76,202c11.06-6.39,20.06-1.26,20.1,11.44s-8.91,28.2-20,34.58-20,1.26-20.09-11.45S161.7,208.33,172.76,202Z" class="colore3e6f1 svgShape"></path><path fill="#bfd0e1" d="M171,225.84a9.15,9.15,0,0,0,1-4.45c0-1.75-.33-2.86-1-3.31s-1.58-.34-2.75.34a6.93,6.93,0,0,0-2.7,2.82,9.23,9.23,0,0,0-1,4.45c0,1.75.33,2.85,1,3.31s1.58.34,2.75-.34A6.93,6.93,0,0,0,171,225.84Zm-1.95-.23a1.94,1.94,0,0,1-.81.94c-.33.2-.6.19-.79,0a4.24,4.24,0,0,1-.38-2.32,7.5,7.5,0,0,1,.38-2.77,2,2,0,0,1,.79-.93c.35-.2.62-.19.81,0a4.3,4.3,0,0,1,.37,2.32A7.45,7.45,0,0,1,169,225.61Zm8.26-12.43-9,25.75,2.4-1.38,8.94-25.72Zm5.08,8.61c-.66-.46-1.57-.35-2.73.32a7.07,7.07,0,0,0-2.72,2.83,9.21,9.21,0,0,0-1,4.46c0,1.76.33,2.87,1,3.33s1.58.35,2.75-.33a7,7,0,0,0,2.7-2.82,9.46,9.46,0,0,0,1-4.47C183.33,223.36,183,222.25,182.34,221.79Zm-2,7.56a1.92,1.92,0,0,1-.8.94c-.33.2-.6.19-.79,0a4.12,4.12,0,0,1-.38-2.32,7.26,7.26,0,0,1,.38-2.77,1.91,1.91,0,0,1,.79-.94c.35-.2.62-.19.81,0a4.63,4.63,0,0,1,.37,2.34A7.47,7.47,0,0,1,180.38,229.35Z" class="colorbfc4e1 svgShape"></path><polygon fill="url(#s)" points="619.59 195.38 587.4 210.79 587.4 124.23 619.59 108.82 619.59 195.38"></polygon><path fill="url(#t)" d="M602.87,184c4.32-2.49,8.23-2.72,11-1.08l5.46,3.17c-2.82-1.64-6.73-1.41-11,1.08-8.58,5-15.51,17-15.48,26.8,0,4.9,1.74,8.34,4.53,10l-5.46-3.17c-2.79-1.62-4.52-5.07-4.53-10C587.37,200.94,594.3,188.94,602.87,184Z"></path><path fill="#e3eaf1" d="M608.34,187.16c8.57-4.94,15.54-1,15.57,8.88s-6.9,21.85-15.47,26.8-15.55,1-15.58-8.88S599.76,192.11,608.34,187.16Z" class="colore3e6f1 svgShape"></path><path fill="#bfd0e1" d="M606.93,205.69a7.09,7.09,0,0,0,.77-3.45c0-1.36-.25-2.22-.77-2.57s-1.23-.26-2.14.26a5.52,5.52,0,0,0-2.09,2.19,7.18,7.18,0,0,0-.77,3.45c0,1.36.26,2.21.77,2.56s1.23.27,2.14-.26A5.42,5.42,0,0,0,606.93,205.69Zm-1.51-.18a1.57,1.57,0,0,1-.63.73c-.26.15-.46.14-.61,0a3.22,3.22,0,0,1-.3-1.8,5.61,5.61,0,0,1,.3-2.14,1.54,1.54,0,0,1,.61-.73c.27-.15.48-.15.63,0a3.38,3.38,0,0,1,.28,1.8A5.91,5.91,0,0,1,605.42,205.51Zm6.4-9.64-7,20,1.85-1.08,6.94-19.93Zm3.94,6.68c-.52-.36-1.22-.28-2.12.24a5.52,5.52,0,0,0-2.11,2.2,7.22,7.22,0,0,0-.77,3.46c0,1.36.26,2.22.77,2.57s1.23.28,2.14-.25a5.52,5.52,0,0,0,2.09-2.19,7.22,7.22,0,0,0,.77-3.46C616.53,203.76,616.27,202.9,615.76,202.55Zm-1.52,5.86a1.55,1.55,0,0,1-.62.73c-.26.15-.47.14-.62,0a3.35,3.35,0,0,1-.29-1.8,5.67,5.67,0,0,1,.3-2.15,1.42,1.42,0,0,1,.61-.72c.27-.16.48-.15.63,0a3.42,3.42,0,0,1,.28,1.81A5.92,5.92,0,0,1,614.24,208.41Z" class="colorbfc4e1 svgShape"></path><path d="M566.36,497.62c-5.73-3.31-13.34-4.83-20.82-4.61H533.82v1.92a31.54,31.54,0,0,0-6.2,2.69c-10.66,6.2-10.6,16.24.13,22.44a30.73,30.73,0,0,0,6.07,2.63v2h14.06c6.76-.11,13.46-1.65,18.6-4.64C577.14,513.86,577.09,503.82,566.36,497.62Z" style="mix-blend-mode:multiply" fill="url(#d)"></path><path fill="url(#e)" d="M515.67,520.06c-5.4-3.12-8.1-7.21-8.08-11.3l0-5.23c0,4.09,2.68,8.18,8.08,11.3,10.74,6.19,28.08,6.19,38.74,0,5.3-3.08,8-7.1,8-11.14l0,5.23c0,4-2.66,8.06-8,11.14C543.75,526.26,526.41,526.26,515.67,520.06Z"></path><path fill="#f2f5f9" d="M515.69,514.83c-10.72-6.19-10.78-16.24-.12-22.44s28-6.19,38.74,0,10.78,16.25.12,22.44S526.43,521,515.69,514.83Z" class="colorf2f4f9 svgShape"></path><polygon fill="#bfd0e1" points="546.13 506.56 539.01 508.62 526.94 501.65 533.07 494.61 533.53 494.07 530.08 492.09 528.07 493.25 530.06 494.4 523.93 501.44 523.47 501.97 538.46 510.62 539.37 510.36 547.4 508.03 546.13 506.56" class="colorbfc4e1 svgShape"></polygon><path fill="#bfd0e1" d="M535.06 511.16a3.11 3.11 0 00-2.82 0 .85.85 0 000 1.62 3.11 3.11 0 002.82 0A.86.86 0 00535.06 511.16zM522.39 503.84a3.11 3.11 0 00-2.82 0 .86.86 0 000 1.63 3.09 3.09 0 002.81 0A.86.86 0 00522.39 503.84z" class="colorbfc4e1 svgShape"></path><polygon fill="#bfd0e1" points="541.81 503.78 541.81 502.69 538.4 502.69 544.18 499.35 542.83 498.58 537.06 501.91 537.06 499.94 535.17 499.94 535.17 503.78 541.81 503.78" class="colorbfc4e1 svgShape"></polygon><path d="M278.94,524.29c-5.72-3.31-13.34-4.83-20.81-4.61H246.41v1.92a30.47,30.47,0,0,0-6.2,2.69c-10.66,6.2-10.6,16.24.12,22.44a30.82,30.82,0,0,0,6.08,2.63v2h14c6.77-.12,13.47-1.65,18.61-4.64C289.73,540.53,289.68,530.49,278.94,524.29Z" style="mix-blend-mode:multiply" fill="url(#u)"></path><path fill="url(#v)" d="M228.26,546.73c-5.4-3.12-8.1-7.21-8.09-11.3l0-8.93c0,4.1,2.68,8.19,8.08,11.31C239,544,256.36,544,267,537.81c5.3-3.08,8-7.11,8-11.14l0,8.92c0,4-2.67,8.06-8,11.14C256.34,552.93,239,552.93,228.26,546.73Z"></path><path fill="#f2f5f9" d="M228.28,537.81c-10.73-6.2-10.79-16.25-.13-22.44s28-6.2,38.74,0,10.79,16.24.13,22.44S239,544,228.28,537.81Z" class="colorf2f4f9 svgShape"></path><path fill="#816d91" d="M248.88,533.69a5.49,5.49,0,0,0-2.72-.63L242,524.21a6.66,6.66,0,0,0,1.47-.6,3.55,3.55,0,0,0,1.27-1.17l13.14,1.19a2,2,0,0,0,1.07,1.32,5.85,5.85,0,0,0,5.31,0c1.47-.85,1.47-2.22,0-3.07a5.85,5.85,0,0,0-5.31,0,2.56,2.56,0,0,0-.79.67L245,521.37a2.68,2.68,0,0,0-1.56-2.1,8.28,8.28,0,0,0-7.51,0c-2.08,1.19-2.08,3.14,0,4.34a7.85,7.85,0,0,0,4.23.88l4.19,8.86a3.85,3.85,0,0,0-.8.34c-1.47.85-1.47,2.22,0,3.07a5.85,5.85,0,0,0,5.31,0C250.34,535.91,250.34,534.54,248.88,533.69Z" class="color6d6d91 svgShape"></path><path d="M244.16,469.15c10.11-5.84,2-10.59-18.12-10.61s-44.63,4.7-54.74,10.54-2,10.58,18.13,10.6S234.05,475,244.16,469.15Z" style="mix-blend-mode:multiply" fill="url(#w)"></path><path fill="url(#x)" d="M173.83,429.54c5.09-2.94,9.7-3.21,13-1.27L193.3,432c-3.33-1.94-7.94-1.66-13,1.27-10.11,5.84-18.27,20-18.24,31.6,0,5.77,2.05,9.83,5.34,11.74l-6.44-3.74c-3.29-1.91-5.33-6-5.34-11.74C155.55,449.53,163.72,435.38,173.83,429.54Z"></path><path fill="#bfd0e1" d="M180.27,433.28c10.11-5.83,18.34-1.15,18.37,10.46s-8.14,25.77-18.25,31.61S162.06,476.5,162,464.88,170.16,439.12,180.27,433.28Z" class="colorbfc4e1 svgShape"></path><path fill="#5e4e6c" d="M178.42,450.33a3.79,3.79,0,0,0-2.75.57,10.45,10.45,0,0,0-4.73,8.19,3.33,3.33,0,0,0,1.39,3.06l8.06,4.65,8.07-14a9.7,9.7,0,0,0,1.38-4.66c0-3-2.11-4.23-4.72-2.73a9.1,9.1,0,0,0-2.75,2.62l-2,2.94Z" class="color4f4e6c svgShape"></path><path fill="#c9d5e2" d="M328.27,187.79V136a11,11,0,0,0-5-8.59c-2.73-1.58-4.95-.3-5,2.85v58.89l-1.7,5.34Z" class="colorc9cee2 svgShape"></path><polygon fill="#ebf0f6" points="316.77 150.18 305.28 156.81 306.86 157.72 318.35 151.09 316.77 150.18" class="colorebeef6 svgShape"></polygon><polygon fill="#c9d5e2" points="416.96 86.6 329.85 136.9 329.85 289.7 416.96 239.4 416.96 86.6" class="colorc9cee2 svgShape"></polygon><polygon points="555.49 249.81 555.08 300.11 334.8 300.11 421.92 249.81 555.49 249.81" style="mix-blend-mode:multiply" fill="url(#y)"></polygon><path fill="url(#z)" d="M417,86.6a14.45,14.45,0,0,0-6.53-11.31c-2.06-1.19-3.89-1.15-5.08-.13h0L319.19,124.9a4.93,4.93,0,0,1,4.12.68,14.48,14.48,0,0,1,6.54,11.32Z"></path><path fill="url(#f)" d="M306.86,157.72v26a11,11,0,0,0,4.95,8.59c2.74,1.58,5,.3,5-2.85V152Z"></path><polygon fill="#bfd0e1" points="421.92 247.99 334.8 298.29 334.8 300.11 421.92 249.81 421.92 247.99" class="colorbfc4e1 svgShape"></polygon><polygon fill="#816d91" points="362.95 136.44 362.95 139.21 405.11 114.87 405.11 112.1 362.95 136.44" class="color6d6d91 svgShape"></polygon><polygon fill="#816d91" points="362.95 145.44 388.52 130.68 388.52 127.91 362.95 142.67 362.95 145.44" class="color6d6d91 svgShape"></polygon><polygon fill="#816d91" points="391.38 129.02 395.81 126.47 395.81 123.7 391.38 126.25 391.38 129.02" class="color6d6d91 svgShape"></polygon><polygon fill="#816d91" points="362.95 159.82 362.95 162.59 405.11 138.25 405.11 135.48 362.95 159.82" class="color6d6d91 svgShape"></polygon><polygon fill="#816d91" points="362.95 168.82 388.52 154.06 388.52 151.29 362.95 166.05 362.95 168.82" class="color6d6d91 svgShape"></polygon><polygon fill="#816d91" points="391.39 152.4 395.81 149.85 395.81 147.08 391.39 149.63 391.39 152.4" class="color6d6d91 svgShape"></polygon><polygon fill="#5e4e6c" points="345.16 157.36 346.01 155.89 354.56 141.09 352.87 140.11 345.16 153.44 341.59 151.38 339.89 154.32 344.31 156.87 345.16 157.36" class="color4f4e6c svgShape"></polygon><polygon fill="#ebf0f6" points="345.16 176.82 341.59 174.76 339.89 177.7 344.31 180.25 345.16 180.74 346.01 179.27 354.56 164.47 352.87 163.49 345.16 176.82" class="colorebeef6 svgShape"></polygon><polygon fill="#ebf0f6" points="345.16 200.2 341.59 198.14 339.89 201.07 344.31 203.63 345.16 204.12 346.01 202.65 354.56 187.84 352.87 186.87 345.16 200.2" class="colorebeef6 svgShape"></polygon><polygon fill="#816d91" points="362.95 183.2 362.95 185.97 405.11 161.63 405.11 158.86 362.95 183.2" class="color6d6d91 svgShape"></polygon><polygon fill="#816d91" points="362.95 192.2 388.52 177.44 388.52 174.67 362.95 189.43 362.95 192.2" class="color6d6d91 svgShape"></polygon><polygon fill="#816d91" points="391.38 175.78 395.81 173.22 395.81 170.46 391.38 173.01 391.38 175.78" class="color6d6d91 svgShape"></polygon><path fill="url(#A)" d="M417,239.4l-87.11,50.3a11,11,0,0,0,4.95,8.59L421.92,248A11,11,0,0,1,417,239.4Z"></path><path fill="#dae4ef" d="M329.85,289.7V136.9a14.48,14.48,0,0,0-6.54-11.32c-3.6-2.08-6.54-.39-6.54,3.77v60.13c0,3.15-2.22,4.44-5,2.86a11,11,0,0,1-4.95-8.59v-26l-1.58-.91v26a14.47,14.47,0,0,0,6.53,11.32c3.61,2.08,6.54.39,6.54-3.77V130.26c0-3.16,2.23-4.44,5-2.86a11,11,0,0,1,5,8.59v152.8h0a14.47,14.47,0,0,0,6.53,11.32v-1.82A11,11,0,0,1,329.85,289.7Z" class="colordadfef svgShape"></path><path d="M470.86,324.17l-194.18,2.16,30.94,17.86-91,52.55,194.17,2.16,94.76-54.71Z" style="mix-blend-mode:multiply" fill="url(#B)"></path><path fill="#a50b89" d="M249.91,246.07V222.6c0-5.74-2-10.06-5.65-12.16s-8.39-1.68-13.35,1.19c-9.72,5.61-17.63,19.3-17.63,30.52v23.47h0a1.39,1.39,0,0,0,2.77,0h0V242.15c0-10.34,7.28-23,16.24-28.13,4.07-2.35,7.83-2.77,10.58-1.18s4.27,5,4.27,9.76v23.47h0a1.39,1.39,0,0,0,2.77,0Z" class="colorc16256 svgShape"></path><path fill="#3d4a5b" d="M307.68,344.15,216.6,396.74Q214.8,342.86,213,289l91.08-52.58Q305.89,290.28,307.68,344.15Z" class="color3d3e5b svgShape"></path><polygon fill="#3d4a5b" points="191.08 276.32 187.5 379.94 209.23 374.24 209.23 278.51 191.08 276.32" class="color3d3e5b svgShape"></polygon><polygon fill="#5e4e6c" points="216.6 396.74 213.01 288.98 209.23 278.51 209.23 278.51 209.23 374.24 209.23 374.24 216.6 396.74" class="color4f4e6c svgShape"></polygon><path fill="#816d91" d="M286,234.21l-3.79-10.47-91.08,52.58,18.15,2.19L213,289l91.08-52.58Zm-74.58,43.06-15.17-1.83,84.44-48.75,3.16,8.76L299,237.28,214.54,286Z" class="color6d6d91 svgShape"></path><polygon fill="#70607d" points="216.6 396.74 187.5 379.94 209.23 374.24 216.6 396.74" class="color61607d svgShape"></polygon><polygon fill="#0c2340" points="280.64 226.69 280.64 247.87 214.53 286.03 211.37 277.27 196.2 275.44 280.64 226.69" class="color292a3f svgShape"></polygon><polygon fill="#3d4a5b" points="283.8 235.45 283.8 246.04 280.64 247.87 280.64 226.69 283.8 235.45" class="color3d3e5b svgShape"></polygon><polygon fill="#0c2340" points="283.8 235.45 298.98 237.28 283.8 246.04 283.8 235.45" class="color292a3f svgShape"></polygon><path fill="#6822a2" d="M221.25 268a3.6 3.6 0 011.64-2.83c.9-.52 1.63-.1 1.63.94a3.62 3.62 0 01-1.63 2.84C222 269.43 221.25 269 221.25 268zM255.11 248.41a3.6 3.6 0 011.64-2.83c.9-.52 1.63-.1 1.63.94a3.63 3.63 0 01-1.63 2.84C255.84 249.88 255.11 249.46 255.11 248.41z" class="color525793 svgShape"></path><path fill="#a50b89" d="M282.44,264.84V241.38c0-5.74-2-10.06-5.66-12.16s-8.38-1.68-13.35,1.18c-9.72,5.61-17.63,19.31-17.63,30.53V284.4h0a1.39,1.39,0,0,0,2.77,0h0V260.93c0-10.34,7.29-23,16.25-28.13,4.07-2.35,7.83-2.77,10.58-1.19s4.27,5.06,4.27,9.77v23.46h0a1.39,1.39,0,1,0,2.77,0Z" class="colorc16256 svgShape"></path><polygon fill="#e3eaf1" points="634.25 428.92 649.59 420.06 634.25 411.21 618.92 420.06 634.25 428.92" class="colore3e6f1 svgShape"></polygon><polygon fill="#78b5f3" points="612.21 441.64 627.54 432.79 612.21 423.93 596.87 432.79 612.21 441.64" class="colorf3b378 svgShape"></polygon><polygon fill="#bfd0e1" points="623.93 420.96 623.93 419.17 632.7 419.17 632.7 414.1 635.8 414.1 635.8 419.17 644.57 419.17 644.57 420.95 635.8 420.96 635.8 426.02 632.7 426.02 632.7 420.96 623.93 420.96" class="colorbfc4e1 svgShape"></polygon><polygon points="669.5 299.9 601.26 299.9 664.51 336.41 601.26 372.93 669.5 372.93 732.75 336.41 669.5 299.9" style="mix-blend-mode:multiply" fill="url(#k)"></polygon><path d="M707.2,313.35H427.81c-12.79,0-10.05,7.65-3.66,11.34L526,383.74c3.51,2,15,2.32,27.79,2.32H707.2Z" style="mix-blend-mode:multiply" fill="url(#C)"></path><polygon fill="#78b5f3" points="601.26 314.67 534.63 276.2 601.26 237.73 667.89 276.2 601.26 314.67" class="colorf3b378 svgShape"></polygon><polygon fill="#f2f5f9" points="629.59 254.09 639.57 259.85 572.94 298.31 562.96 292.56 629.59 254.09" class="colorf2f4f9 svgShape"></polygon><polygon fill="#f2f5f9" points="639.57 292.56 629.59 298.31 562.96 259.85 572.94 254.09 639.57 292.56" class="colorf2f4f9 svgShape"></polygon><polygon fill="#d647bc" points="601.26 372.93 664.51 336.41 664.51 297.02 601.26 333.53 601.26 372.93" class="colord67747 svgShape"></polygon><polygon fill="#bfd0e1" points="627.9 318.15 637.88 312.39 637.88 351.79 627.9 357.55 627.9 318.15" class="colorbfc4e1 svgShape"></polygon><polygon points="664.51 301.85 601.26 338.37 601.26 335.48 664.51 298.97 664.51 301.85" style="mix-blend-mode:multiply" fill="#ecedee" class="colorecedee svgShape"></polygon><polygon fill="#d647bc" points="601.26 335.48 667.89 297.02 667.89 276.2 601.26 314.67 601.26 335.48" class="colord67747 svgShape"></polygon><polygon fill="#bfd0e1" points="629.59 298.31 639.57 292.56 639.57 313.37 629.59 319.13 629.59 298.31" class="colorbfc4e1 svgShape"></polygon><polygon fill="#ed5ad2" points="601.26 372.93 538.01 336.41 538.01 297.02 601.26 333.53 601.26 372.93" class="colored995a svgShape"></polygon><polygon fill="#dae4ef" points="574.63 318.15 564.65 312.39 564.65 351.79 574.63 357.55 574.63 318.15" class="colordadfef svgShape"></polygon><polygon points="538.01 301.85 601.26 338.37 601.26 335.48 538.01 298.97 538.01 301.85" style="mix-blend-mode:multiply" fill="#ecedee" class="colorecedee svgShape"></polygon><polygon fill="#ed5ad2" points="601.26 335.48 534.63 297.02 534.63 276.2 601.26 314.67 601.26 335.48" class="colored995a svgShape"></polygon><polygon fill="#dae4ef" points="572.94 298.31 562.96 292.56 562.96 313.37 572.94 319.13 572.94 298.31" class="colordadfef svgShape"></polygon><path fill="url(#D)" d="M627.26,274.27l-.1-.12h0c-1.4-1.73-3-2.8-4.28-2.78-8.81.14-15.06.37-16.39.43h0l-12,6.92c1.33-.05,7.58-.28,16.4-.42,1.28,0,3,1.09,4.39,2.92a10.23,10.23,0,0,1,2.34,5.89c0,1.82-.59,2.93-1.43,3.5L628,283.77h0c.93-.53,1.59-1.66,1.59-3.6A10.24,10.24,0,0,0,627.26,274.27Z"></path><path fill="#dae4ef" d="M615.27,281.2c-1.42-1.83-3.11-2.94-4.39-2.92-8.82.14-15.07.37-16.4.42-1.32-1.59-7.57-9-16.39-19.35a5.32,5.32,0,0,0-4.39-2.16c-1.47.19-2.34,1.38-2.34,3.2a12.13,12.13,0,0,0,5.26,9.42l35.72,20.63c2.21,1.27,5.27.82,5.27-3.35A10.23,10.23,0,0,0,615.27,281.2Z" class="colordadfef svgShape"></path><path fill="url(#E)" d="M576.62,268.47a9.55,9.55,0,0,1-4.1-7.41,2.11,2.11,0,0,1,1.78-2.37,3.88,3.88,0,0,1,3.26,1.54c6.69,7.83,11.89,14,14.6,17.21Z"></path><path fill="url(#F)" d="M612.34,289.1l-15.53-9c2.7-.09,7.91-.25,14.6-.36.93,0,2.18.84,3.26,2.22a7.74,7.74,0,0,1,1.78,4.43C616.45,290,613.77,289.92,612.34,289.1Z"></path><path fill="url(#G)" d="M573.7,257.19a5.32,5.32,0,0,1,4.39,2.16c8.82,10.32,15.07,17.76,16.39,19.35l10.75-6.21,1.24-.71h0c-1.32-1.59-7.57-9-16.39-19.35a5.34,5.34,0,0,0-4.4-2.16,2.43,2.43,0,0,0-1.2.49h0l-11.74,6.75A2.76,2.76,0,0,1,573.7,257.19Z"></path><path fill="#e3eaf1" d="M409.16,303.2c0,7.38,5.24,16.45,11.63,20.14l102.67,59.28c6.4,3.69,11.63.67,11.63-6.72V135.07c0-7.39-5.23-16.45-11.63-20.14L420.79,55.65C414.4,52,409.16,55,409.16,62.36Z" class="colore3e6f1 svgShape"></path><path fill="url(#H)" d="M412.33,55h0c2.13-1.38,5.13-1.29,8.46.63l102.67,59.28c6.4,3.69,11.63,12.75,11.63,20.14V375.9c0,3.65-1.28,6.23-3.34,7.46L540,378h0c2.13-1.21,3.46-3.81,3.46-7.53V129.61c0-7.39-5.23-16.45-11.63-20.15L429.16,50.19c-3.33-1.93-6.35-2-8.47-.62h0ZM531.66,383.42h0Z"></path><path fill="#ffffff" d="M416.46,309.22a7.07,7.07,0,0,0,3.19,5.52l105,60.6c1.75,1,3.18.18,3.18-1.84V129a7.06,7.06,0,0,0-3.18-5.51l-105-60.6c-1.75-1-3.19-.18-3.19,1.84Z" class="colorffffff svgShape"></path><polygon fill="#d3e2f2" points="465.92 188.48 521.61 220.63 521.61 156.32 465.92 124.17 465.92 188.48" class="colord3d8f2 svgShape"></polygon><polygon fill="#d3e2f2" points="465.92 266.56 521.61 298.71 521.61 234.41 465.92 202.26 465.92 266.56" class="colord3d8f2 svgShape"></polygon><path fill="#f471dc" d="M516.66,118.94V134.1c0,3.55-2.5,5-5.57,3.22a12.33,12.33,0,0,1-5.56-9.64V112.51Z" class="colorf48a71 svgShape"></path><path fill="#816d91" d="M505.53,112.51v15.17c0,3.54-2.5,5-5.57,3.21a12.34,12.34,0,0,1-5.57-9.64V106.08Z" class="color6d6d91 svgShape"></path><path fill="#f471dc" d="M494.39,106.08v15.17c0,3.54-2.49,5-5.56,3.21a12.28,12.28,0,0,1-5.57-9.64V99.66Z" class="colorf48a71 svgShape"></path><path fill="#816d91" d="M483.26,99.66v15.16c0,3.55-2.49,5-5.57,3.21a12.3,12.3,0,0,1-5.56-9.64V93.23Z" class="color6d6d91 svgShape"></path><path fill="#f471dc" d="M472.13,93.23v15.16c0,3.55-2.5,5-5.57,3.22A12.34,12.34,0,0,1,461,102V86.8Z" class="colorf48a71 svgShape"></path><path fill="#816d91" d="M461,86.8V102c0,3.55-2.49,5-5.56,3.22a12.3,12.3,0,0,1-5.57-9.64V80.37Z" class="color6d6d91 svgShape"></path><path fill="#f471dc" d="M449.86,80.37V95.54c0,3.55-2.49,5-5.57,3.21a12.3,12.3,0,0,1-5.56-9.64V74Z" class="colorf48a71 svgShape"></path><path fill="#816d91" d="M438.73 74V89.11c0 3.55-2.5 5-5.57 3.21a12.3 12.3 0 01-5.56-9.64V67.52zM527.79 129v11.49c0 3.55-2.49 5-5.57 3.21a12.3 12.3 0 01-5.56-9.64V118.94l8 4.59A7.06 7.06 0 01527.79 129z" class="color6d6d91 svgShape"></path><path fill="#f471dc" d="M419.65,62.93l8,4.59V82.68c0,3.55-2.5,5-5.57,3.22a12.34,12.34,0,0,1-5.57-9.65V64.77C416.46,62.75,417.9,61.92,419.65,62.93Z" class="colorf48a71 svgShape"></path><path fill="#e3eaf1" d="M445.32,77.75v5.31a7,7,0,0,0,3.18,5.51l47.25,27.28c1.76,1,3.19.19,3.19-1.84v-5.3Z" class="colore3e6f1 svgShape"></path><polygon fill="#70607d" points="490.2 106.19 460.88 89.27 460.88 91.2 490.2 108.13 490.2 106.19" class="color61607d svgShape"></polygon><path fill="#70607d" d="M455.21,87a5,5,0,0,0-2.25-3.9c-1.24-.72-2.25-.14-2.25,1.3a5,5,0,0,0,2.25,3.9C454.2,89,455.21,88.39,455.21,87Z" class="color61607d svgShape"></path><polygon fill="#bfd0e1" points="498.23 296.59 493.76 302.93 489.3 291.43 498.23 296.59" class="colorbfc4e1 svgShape"></polygon><polygon fill="#bfd0e1" points="447.29 125.74 459.72 132.92 459.72 127.75 447.29 120.57 447.29 125.74" class="colorbfc4e1 svgShape"></polygon><polygon fill="#bfd0e1" points="443.18 138.41 459.72 147.96 459.72 153.13 443.18 143.58 443.18 138.41" class="colorbfc4e1 svgShape"></polygon><polygon fill="#bfd0e1" points="434.36 128.38 459.72 143.02 459.72 137.86 434.36 123.22 434.36 128.38" class="colorbfc4e1 svgShape"></polygon><path fill="#70607d" d="M455.87 160.92a2.84 2.84 0 001.28 2.23c.71.4 1.29.07 1.29-.75a2.85 2.85 0 00-1.29-2.22C456.44 159.77 455.87 160.1 455.87 160.92zM450.49 157.82a2.83 2.83 0 001.29 2.22c.71.41 1.28.08 1.28-.74a2.84 2.84 0 00-1.28-2.23C451.07 156.66 450.49 157 450.49 157.82zM445.11 154.71a2.83 2.83 0 001.29 2.22c.71.41 1.28.08 1.28-.74A2.82 2.82 0 00446.4 154C445.69 153.56 445.11 153.89 445.11 154.71z" class="color61607d svgShape"></path><polygon fill="#816d91" points="440.6 226.03 459.72 237.07 459.72 242.24 440.6 231.19 440.6 226.03" class="color6d6d91 svgShape"></polygon><polygon fill="#816d91" points="430.39 215.19 459.72 232.13 459.72 226.96 430.39 210.03 430.39 215.19" class="color6d6d91 svgShape"></polygon><polygon fill="#bdd0e4" points="439.93 210.1 459.72 221.53 459.72 198.68 439.93 187.25 439.93 210.1" class="colorbdc1e4 svgShape"></polygon><polygon fill="#ffffff" points="459.76 192.03 515.45 224.19 515.45 159.88 459.76 127.73 459.76 192.03" class="colorffffff svgShape"></polygon><polygon fill="#ed5ad2" points="481.36 162.36 493.85 169.57 493.85 160.36 481.36 153.15 481.36 162.36" class="colored995a svgShape"></polygon><path fill="#78b5f3" d="M475.71,149.89l5.65,3.26v2A13.8,13.8,0,0,0,487.6,166c3.45,2,6.25.37,6.25-3.61v-2l5.64,3.25c4.69,2.71,8.49,9.29,8.49,14.71v6.86l-8.47-4.89v22.45L475.69,189V166.54l-8.47-4.89v-6.86C467.23,149.37,471,147.18,475.71,149.89Z" class="colorf3b378 svgShape"></path><polygon fill="#ed5ad2" points="499.51 180.29 499.51 172.08 501.79 181.61 499.51 180.29" class="colored995a svgShape"></polygon><polygon fill="#ed5ad2" points="475.69 166.54 475.69 158.33 473.42 165.23 475.69 166.54" class="colored995a svgShape"></polygon><polygon fill="#ffffff" points="483.69 171.79 481.2 170.35 481.2 167.48 483.69 168.92 483.69 171.79" class="colorffffff svgShape"></polygon><polygon fill="#3d4a5b" points="515.45 224.19 517.5 223 517.5 158.7 515.45 159.88 515.45 224.19" class="color3d3e5b svgShape"></polygon><polygon fill="#816d91" points="515.45 159.88 517.5 158.7 461.81 126.54 459.76 127.73 515.45 159.88" class="color6d6d91 svgShape"></polygon><polygon fill="#ffffff" points="459.76 270.12 515.45 302.27 515.45 237.97 459.76 205.81 459.76 270.12" class="colorffffff svgShape"></polygon><path fill="#bfd0e1" d="M471.16,255c0-1.72,1-9.76,1.7-11.78a12,12,0,0,0,4.82,4.86c1.56.9,4.53,2,4.53-2.53,0-7.12,3.51,2.15,6.17,6.75s10.84,12.39,15.51,18.28c2.92,3.67,2.2,5.05.58,5.19l-32.81-18.94A3.82,3.82,0,0,1,471.16,255Z" class="colorbfc4e1 svgShape"></path><path fill="#6822a2" d="M504.47,275.76a6.31,6.31,0,0,1-3.34-.89l-26.57-15.34a7.58,7.58,0,0,1-2.9-2.71Z" class="color525793 svgShape"></path><path fill="#f7f9fc" d="M488.55,256.24c-.16.1-.15.39,0,.66s.41.41.56.31l1.8-1.13c.15-.09.15-.39,0-.65s-.41-.41-.56-.31Zm-3.21-4.49c.09.29.33.53.53.54l2.5.17c.2,0,.29-.21.2-.49a.71.71,0,0,0-.52-.54l-2.5-.17C485.34,251.25,485.25,251.47,485.34,251.75Zm6.6,7.95a.7.7,0,0,0,.17.72c.19.23.43.28.53.11l.95-1.54a.72.72,0,0,0-.17-.72c-.19-.23-.44-.28-.54-.11Zm3,2.8a.76.76,0,0,0,.22.72c.2.21.44.23.52,0l.57-1.33a.76.76,0,0,0-.22-.73c-.2-.21-.43-.23-.52,0Z" class="colorf7f7fc svgShape"></path><polygon fill="#3d4a5b" points="515.45 302.27 517.5 301.08 517.5 236.78 515.45 237.97 515.45 302.27" class="color3d3e5b svgShape"></polygon><polygon fill="#816d91" points="515.45 237.97 517.5 236.78 461.81 204.63 459.76 205.81 515.45 237.97" class="color6d6d91 svgShape"></polygon><rect width="43.25" height="7.95" x="428.29" y="393.59" style="mix-blend-mode:multiply" fill="url(#g)"></rect><rect width="43.25" height="7.95" x="408.58" y="382.12" style="mix-blend-mode:multiply" fill="url(#I)"></rect><path fill="url(#h)" d="M403.79,387.62c0-6.24,4-6.42,4-6.42a16.28,16.28,0,0,0,5.62-1.45c3.44-1.43,8.28-.87,5.58,4.12a1.62,1.62,0,0,1-.1.18,2.41,2.41,0,0,1-.87.77l-8.65,5.07C408,390.65,403.82,388.91,403.79,387.62Z"></path><path fill="#3d4a5b" d="M403.82,387.06c.07,1.28,4.2,3,5.51,2.24l8.65-5.07a7.51,7.51,0,0,0,1.21-.89c-.08.18-.14.34-.24.53a1.62,1.62,0,0,1-.1.18,2.41,2.41,0,0,1-.87.77l-8.65,5.07c-1.24.71-5-.77-5.48-2a1.41,1.41,0,0,1,0-.25A3.47,3.47,0,0,1,403.82,387.06Z" class="color3d3e5b svgShape"></path><path fill="#ffffff" d="M405.4,380.37a36,36,0,0,1,4.61.92,2,2,0,0,0,.32.93l.1.12c.71.49,1.43,1.27-.25,2.32a2.33,2.33,0,0,1-3-.21,2.8,2.8,0,0,0-1.91-1.51s0-.08,0-.08S405,380.37,405.4,380.37Z" class="colorffffff svgShape"></path><path fill="#3d4a5b" d="M405.34,319.31l17.59.32c-1.46,11.75-4.38,22.43-6.34,33.81-2.1,11.06-4.46,18.83-6.53,28-.75,1.72-4.21,1.07-4.91-.58-.55-8.48-1.18-18.81,1.33-28.59C406.06,341.76,405.09,330,405.34,319.31Z" class="color3d3e5b svgShape"></path><path fill="url(#J)" d="M423.5,399.1c0-6.25,4-6.43,4-6.43a16.4,16.4,0,0,0,5.63-1.44c3.43-1.43,8.27-.88,5.57,4.11l-.1.19a2.31,2.31,0,0,1-.87.76L429,401.37C427.72,402.12,423.54,400.38,423.5,399.1Z"></path><path fill="#3d4a5b" d="M423.53,398.54c.07,1.28,4.2,3,5.51,2.24l8.65-5.07a9,9,0,0,0,1.22-.89c-.08.17-.15.33-.25.52l-.1.19a2.31,2.31,0,0,1-.87.76L429,401.37c-1.23.7-5-.78-5.48-2a1.29,1.29,0,0,1,0-.25A3.35,3.35,0,0,1,423.53,398.54Z" class="color3d3e5b svgShape"></path><path fill="#ffffff" d="M425.11,391.85a36.35,36.35,0,0,1,4.61.91,2.08,2.08,0,0,0,.32.93l.1.12c.71.49,1.43,1.27-.25,2.33a2.33,2.33,0,0,1-3-.22,2.88,2.88,0,0,0-1-1.11,2.41,2.41,0,0,0-.93-.39.78.78,0,0,0,0-.09S424.69,391.85,425.11,391.85Z" class="colorffffff svgShape"></path><path fill="url(#K)" d="M417.74,347.26c-1.07-5.05-13.39-5.68-12.58-25.55,3.86-.57,23.38,8.59,27.25,8,.48,11.83-.66,22.84-.74,34.39-.26,11.26-1.32,19.31-1.86,28.73-.46,1.82-4,1.74-4.94.23-1.92-8.28-4.23-18.36-3.35-28.43C420.37,359.08,419,353.18,417.74,347.26Z"></path><path fill="#dae4ef" d="M414.08,283.14c-13.77,9.2-15.41,27.46-8,39.06C406.11,322.2,404.51,296.51,414.08,283.14Z" class="colordadfef svgShape"></path><path fill="url(#L)" d="M413.45,333c8.38,4.7,17.14,4.71,20.13-1.07-1.11-10.77-2.16-19.53,0-29.84-.64-5.7-1.93-9.16-1.2-12.49-4.61-.63-8.58-7.71-11.25-8.25-11.46-2.34-17,18.08-16.07,39.85A15.86,15.86,0,0,0,413.45,333Z"></path><path fill="#abd5ff" d="M414.77,282.63c2.49-1.8,2.12-3,1.75-5.42a12,12,0,0,1-.75-4.22c0-5.44,3.47-10.15,7.72-9.85,8.56.58,7,5.09,7,10.53,0,5.05-2.28,8.52-6.11,9.1,0,.83,1.59,2.6,2.63,3.65-4.19,3.26-8.25-.41-9.86-1.14S413.61,283.83,414.77,282.63Z" class="colorffd3ab svgShape"></path><path fill="url(#M)" d="M429.55,290.19c13.21-2.47,21.81-12.21,27.17-21.71l4.48,2c-2.73,12.2-12.2,29.05-29.53,32.19C422.9,302.65,423.59,291.31,429.55,290.19Z"></path><path fill="#abd5ff" d="M457.25,266.88l0,.05c0-2.21.47-3.5,1.32-3.88l.57-1.61c1.1-3.09,4.56-5.73,5.29-5,.45.44-1.31,1.8-2.24,3.27a5.19,5.19,0,0,0-.77,2.32s4.13.39,4.13,3.83c0,2.79-1.5,1.69-1.5,1.14-1.07,2.83-2.34,1.15-2.83,3.46l-4.48-2Z" class="colorffd3ab svgShape"></path><path fill="#6822a2" d="M419.72,261.76c1.11-.57,2.1-.28,2.72-.67,1.46-.9,2.84-1.47,3.62-1a7.79,7.79,0,0,1,1.09.86c.76.77,2.32-.86,2.69,1.11a7.12,7.12,0,0,1,.13,1.53c3.66.47,1.86,3.8-1.08,10.21,0-1-2.21-3.45-2.21,1.18,0,.5.37.6,0,1.26s-2.43,2.31-3.81,3.7c-1.94,1.93-3.07.2-6.27.55a5.18,5.18,0,0,0-.84-2.92,8.48,8.48,0,0,1-2.07-5.27C416.22,272.57,411.8,265.84,419.72,261.76Z" class="color525793 svgShape"></path><path fill="#f471dc" d="M507.82,413.44a6.94,6.94,0,0,1,3.48-3.92c4.87-2.81,12.77-2.81,17.64,0,2.44,1.41,3.66,3.25,3.65,5.09V432h-30.1a18,18,0,0,1-8.83-2.1c-4.86-2.82-4.87-7.38,0-10.19a16.84,16.84,0,0,1,6.8-2l6.59-.45Z" class="colorf48a71 svgShape"></path><path d="M569.53,398.1c-13.5-7.8-31.88-11.05-49.46-9.79,12.68.91,25,4.17,34.69,9.79,23.25,13.42,23.24,35.17,0,48.59-9.74,5.63-22,8.88-34.7,9.79,17.59,1.27,36-2,49.47-9.79C592.77,433.27,592.77,411.52,569.53,398.1Z" style="mix-blend-mode:multiply" fill="url(#i)"></path><path d="M489.06,398.1c9.73-5.62,22-8.88,34.7-9.79-17.59-1.26-36,2-49.47,9.79-23.24,13.42-23.24,35.17,0,48.59,13.5,7.8,31.88,11.06,49.46,9.79-12.68-.91-25-4.16-34.69-9.79C465.81,433.27,465.81,411.52,489.06,398.1Z" style="mix-blend-mode:multiply" fill="url(#N)"></path><path fill="#a09ba5" d="M558.24,398.16c-23.35-13.48-61.22-13.48-84.58,0s-23.36,35.35,0,48.83,61.23,13.49,84.58,0S581.6,411.65,558.24,398.16Zm-7,44.81c-19.5,11.26-51.12,11.26-70.62,0s-19.5-29.52,0-40.78,51.12-11.26,70.62,0S570.77,431.71,551.26,443Z" class="colora59ba5 svgShape"></path><path fill="#3d4a5b" d="M480.64,388.45c19.5-11.26,51.12-11.26,70.62,0,12.8,7.39,17.2,17.8,13.2,27.26-2.1-5-6.5-9.65-13.2-13.52-19.5-11.26-51.12-11.26-70.62,0-6.7,3.87-11.1,8.56-13.2,13.52C463.44,406.25,467.84,395.84,480.64,388.45Z" class="color3d3e5b svgShape"></path><path d="M551.37,392.74c-19.5-11.26-51.12-11.26-70.62,0s-19.5,29.51,0,40.77,51.12,11.25,70.62,0S570.87,404,551.37,392.74Z" style="mix-blend-mode:screen" fill="#6b686d" class="color686a6d svgShape"></path><path d="M485.77 394.75a17.46 17.46 0 0115.78-.68c4.47 2.32 4.64 6.4.4 9.11a17.48 17.48 0 01-15.79.68C481.7 401.53 481.52 397.45 485.77 394.75zM507.18 389.79a7.25 7.25 0 016.54-.28c1.85 1 1.92 2.65.16 3.77a7.2 7.2 0 01-6.53.28C505.5 392.6 505.42 390.91 507.18 389.79z" style="mix-blend-mode:screen" fill="#a09ba5" class="colora59ba5 svgShape"></path><path fill="#f7f9fc" d="M551.37,394.78c-19.5-11.26-51.12-11.26-70.62,0-9.3,5.37-14.15,12.33-14.58,19.36-.47-7.71,4.38-15.52,14.58-21.4,19.5-11.26,51.12-11.26,70.62,0,10.2,5.88,15,13.69,14.58,21.4C565.52,407.11,560.67,400.15,551.37,394.78Z" class="colorf7f7fc svgShape"></path><path fill="#816d91" d="M558.24,384.42c-23.35-13.48-61.22-13.48-84.58,0s-23.36,35.35,0,48.84,61.23,13.48,84.58,0S581.6,397.91,558.24,384.42Zm-7,44.81c-19.5,11.26-51.12,11.26-70.62,0s-19.5-29.52,0-40.78,51.12-11.26,70.62,0S570.77,418,551.26,429.23Z" class="color6d6d91 svgShape"></path><path fill="url(#O)" d="M473.66,433.26c23.36,13.48,61.23,13.48,84.58,0,11.53-6.66,17.36-15.35,17.5-24.08v13.06h0c.16,8.95-5.67,17.93-17.5,24.76-23.35,13.48-61.22,13.48-84.58,0-11.83-6.82-17.65-15.8-17.5-24.75h0v-13C456.33,418,462.16,426.62,473.66,433.26Z"></path><path fill="#f2f5f9" d="M558.24,435.09q2.21-1.27,4.14-2.64l10.06,5.81-8.72,5-10.06-5.81Q556,436.37,558.24,435.09Z" class="colorf2f4f9 svgShape"></path><polygon fill="#c9d5e2" points="563.72 453.35 553.66 447.55 553.66 437.48 563.72 443.29 563.72 453.35" class="colorc9cee2 svgShape"></polygon><path fill="url(#j)" d="M559.93,450.51c0-5.2,3.65-11.51,8.15-14.11,2.34-1.35,4.44-1.42,5.93-.46h0l58,33.48-11.09,20.12-58-33.48h0C561.1,455.39,559.93,453.45,559.93,450.51Z"></path><path d="M567.41,458.64h0l2.84,1.63c-1.23-.94-2-2.64-2-5,0-5.2,3.65-11.51,8.15-14.11,2.34-1.35,4.44-1.42,5.93-.45l-3.84-2.22h0c-1.48-1-3.59-.89-5.93.46-4.5,2.6-8.14,8.91-8.14,14.11C564.42,456,565.59,458,567.41,458.64Z" style="mix-blend-mode:multiply" fill="url(#P)"></path><path fill="url(#Q)" d="M619.57,488.77a11.5,11.5,0,1,0,12-19.57c-1.46-.71-3.39-.56-5.53.68-4.5,2.6-8.14,8.91-8.14,14.11a6.15,6.15,0,0,0,1.84,4.89Z"></path><polygon points="620.9 489.54 620.91 489.54 620.91 489.54 620.9 489.54" fill="#5046e4" class="color000000 svgShape"></polygon><path d="M449.93,445.65l-142.17,1.58,22.66,13.07-66.65,38.48,142.17,1.58,69.38-40.06Z" style="mix-blend-mode:multiply" fill="url(#R)"></path><path d="M479.48,485.68V434.76c-44.09-.36-95.3-.69-131.94-1.08,23.13,13.35,65.64,40,69.38,40.05l-22,12.7Z" style="mix-blend-mode:multiply" fill="url(#S)"></path><path fill="#dae4ef" d="M325.56,446.37l69.38,40.06c.91-27.36,1.82-76.13,2.73-103.49L328.3,342.88C327.38,370.24,326.47,419,325.56,446.37Z" class="colordadfef svgShape"></path><polygon fill="#dae4ef" points="414.38 373.29 417.11 473.63 400.56 469.29 400.56 374.96 414.38 373.29" class="colordadfef svgShape"></polygon><polygon fill="#bfd0e1" points="394.94 486.43 397.67 382.94 400.56 374.96 400.56 374.96 400.56 469.29 400.56 469.29 394.94 486.43" class="colorbfc4e1 svgShape"></polygon><path fill="#f2f5f9" d="M345,333.24l-2.89,8-13.81,1.66,69.37,40.06,2.89-8,13.82-1.67ZM398.92,374l-2.41,6.67-64.32-37.14,11.56-1.39,2.41-6.67,64.32,37.13Z" class="colorf2f4f9 svgShape"></path><polygon fill="#cedeef" points="394.94 486.43 417.11 473.63 400.56 469.29 394.94 486.43" class="colorced5ef svgShape"></polygon><polygon fill="#bfd0e1" points="346.16 335.49 346.16 351.62 396.51 380.69 398.92 374.02 410.48 372.62 346.16 335.49" class="colorbfc4e1 svgShape"></polygon><polygon fill="#aabcce" points="343.75 342.16 343.75 350.23 346.16 351.62 346.16 335.49 343.75 342.16" class="coloraab1ce svgShape"></polygon><polygon fill="#bfd0e1" points="343.75 342.16 332.19 343.55 343.75 350.23 343.75 342.16" class="colorbfc4e1 svgShape"></polygon><path fill="#816d91" d="M348.32 359.08l-1.15.67c-1.46.84-1.85 3.55-1.85 5v7.93c0 8.65 6.1 19.21 13.59 23.54 3.89 2.24 7.62 2.56 10.51.9s4.47-5.06 4.47-9.55v-7.93a5.47 5.47 0 01.57-2.71.43.43 0 01-.11.09l1.15-.67h0a1.38 1.38 0 10-1.39-2.39h0l-1.15.66c-1.45.84-1.84 3.55-1.84 5v7.93c0 3.46-1.1 6-3.09 7.15s-4.73.83-7.73-.9c-6.73-3.89-12.21-13.37-12.21-21.14v-7.93a5.39 5.39 0 01.58-2.71l-.12.09 1.15-.67h0a1.38 1.38 0 00-1.38-2.4zM391.4 366.93a2.74 2.74 0 00-1.25-2.16c-.69-.4-1.24-.08-1.24.72a2.76 2.76 0 001.24 2.16C390.84 368 391.4 367.72 391.4 366.93zM365.61 352a2.77 2.77 0 00-1.25-2.16c-.69-.39-1.25-.07-1.25.72a2.75 2.75 0 001.25 2.16C365.05 353.15 365.61 352.83 365.61 352z" class="color6d6d91 svgShape"></path><path fill="#d647bc" d="M333.15,458.72l-69.38,40.06L261,416.7l69.38-40.06Z" class="colord67747 svgShape"></path><polygon fill="#d647bc" points="244.34 407.06 241.6 485.98 258.15 481.64 258.15 408.72 244.34 407.06" class="colord67747 svgShape"></polygon><polygon fill="#ed5ad2" points="263.77 498.78 261.04 416.7 258.15 408.72 258.15 408.72 258.15 481.64 258.15 481.64 263.77 498.78" class="colored995a svgShape"></polygon><path fill="#78b5f3" d="M316.6,375l-2.89-8-69.38,40.06,13.82,1.66,2.89,8,69.38-40.06Zm-56.81,32.8-11.56-1.4,64.32-37.13c.82,2.25,2.41,6.67,2.41,6.67l11.56,1.39L262.2,414.45Z" class="colorf3b378 svgShape"></path><polygon fill="#78b5f3" points="263.77 498.78 241.6 485.98 258.15 481.64 263.77 498.78" class="colorf3b378 svgShape"></polygon><polygon fill="#ba38a2" points="312.55 369.25 312.55 385.38 262.2 414.45 259.79 407.78 248.23 406.38 312.55 369.25" class="colorba6038 svgShape"></polygon><polygon fill="#d647bc" points="314.96 375.92 314.96 383.99 312.55 385.38 312.55 369.25 314.96 375.92" class="colord67747 svgShape"></polygon><polygon fill="#ba38a2" points="314.96 375.92 326.52 377.31 314.96 383.99 314.96 375.92" class="colorba6038 svgShape"></polygon><path fill="#ecedee" d="M309,395.24h0l1.15.67a.73.73,0,0,1-.12-.09,5.39,5.39,0,0,1,.58,2.71v7.93c0,7.77-5.48,17.25-12.21,21.14-3,1.73-5.74,2-7.73.9s-3.09-3.69-3.09-7.15v-7.93c0-1.47-.39-4.18-1.84-5l-1.15-.66h0a1.38,1.38,0,1,0-1.39,2.39h0l1.15.67-.11-.09a5.43,5.43,0,0,1,.58,2.71v7.93c0,4.49,1.58,7.89,4.47,9.55s6.61,1.34,10.5-.9c7.49-4.33,13.59-14.89,13.59-23.54v-7.93c0-1.47-.39-4.18-1.85-5l-1.15-.67h0a1.38,1.38,0,0,0-1.38,2.4Z" class="colorecedee svgShape"></path><path fill="#d0e3f6" d="M267.31 400.69a2.74 2.74 0 011.25-2.16c.69-.4 1.25-.08 1.25.72a2.77 2.77 0 01-1.25 2.16C267.87 401.8 267.31 401.48 267.31 400.69zM293.11 385.79a2.72 2.72 0 011.24-2.15c.69-.4 1.25-.08 1.25.71a2.74 2.74 0 01-1.25 2.16C293.66 386.91 293.11 386.59 293.11 385.79z" class="colord0d4f6 svgShape"></path><polygon points="409.34 498.93 368.63 498.93 406.37 520.72 368.63 542.5 409.34 542.5 447.08 520.72 409.34 498.93" style="mix-blend-mode:multiply" fill="url(#T)"></polygon><polygon fill="#70607d" points="368.63 507.74 328.87 484.79 368.63 461.83 408.38 484.79 368.63 507.74" class="color61607d svgShape"></polygon><polygon fill="#f471dc" points="385.53 471.59 391.48 475.03 351.72 497.98 345.77 494.54 385.53 471.59" class="colorf48a71 svgShape"></polygon><polygon fill="#f471dc" points="391.48 494.54 385.53 497.98 345.77 475.03 351.72 471.59 391.48 494.54" class="colorf48a71 svgShape"></polygon><polygon fill="#3d4a5b" points="368.63 542.5 406.37 520.71 406.37 497.21 368.63 519 368.63 542.5" class="color3d3e5b svgShape"></polygon><polygon fill="#a50b89" points="384.52 509.82 390.47 506.38 390.47 529.89 384.52 533.33 384.52 509.82" class="colorc16256 svgShape"></polygon><polygon points="406.37 500.09 368.63 521.88 368.63 520.16 406.37 498.37 406.37 500.09" style="mix-blend-mode:multiply" fill="#ecedee" class="colorecedee svgShape"></polygon><polygon fill="#3d4a5b" points="368.63 520.16 408.38 497.21 408.38 484.79 368.63 507.74 368.63 520.16" class="color3d3e5b svgShape"></polygon><polygon fill="#a50b89" points="385.53 497.98 391.48 494.54 391.48 506.96 385.53 510.4 385.53 497.98" class="colorc16256 svgShape"></polygon><polygon fill="#5e4e6c" points="368.63 542.5 330.88 520.71 330.88 497.21 368.63 519 368.63 542.5" class="color4f4e6c svgShape"></polygon><polygon fill="#dd62c7" points="352.73 509.82 346.78 506.38 346.78 529.89 352.73 533.33 352.73 509.82" class="colordd7662 svgShape"></polygon><polygon points="330.88 500.09 368.63 521.88 368.63 520.16 330.88 498.37 330.88 500.09" style="mix-blend-mode:multiply" fill="#ecedee" class="colorecedee svgShape"></polygon><polygon fill="#5e4e6c" points="368.63 520.16 328.87 497.21 328.87 484.79 368.63 507.74 368.63 520.16" class="color4f4e6c svgShape"></polygon><polygon fill="#dd62c7" points="351.72 497.98 345.77 494.54 345.77 506.96 351.72 510.4 351.72 497.98" class="colordd7662 svgShape"></polygon></g></g></g></svg>