<svg xmlns="http://www.w3.org/2000/svg" viewBox="0 0 50 50" id="Certificate"><path fill="#f4f6f8" d="M30.8 2.793 27.721 1l7.771 4.422 4.051 2.354z" class="color9e9e9e svgShape"></path><path fill="#e0e1e2" d="m13.565 49-3.079-1.793-.103-36.197 3.079 1.793z" class="colore0e2e2 svgShape"></path><path fill="#f4f6f8" d="m13.462 12.803-3.079-1.793L27.721 1 30.8 2.793z" class="colorecf0f1 svgShape"></path><path fill="#d4d5d6" d="m30.8 2.793 8.743 4.983.074 26.183L13.565 49l-.103-36.197z" class="colord4d6d6 svgShape"></path><path fill="#a50b89" d="m25.375 8.881.005 1.686 1.504-.868.003.864-1.505.869.005 1.707-.697.403-.005-1.708-1.504.869-.003-.865 1.505-.868-.005-1.687z" class="colore74c3c svgShape"></path><path fill="#c4c5c6" d="m37.327 11.187.004 1.35-21.612 12.477-.004-1.349zM30.799 2.799l8.743 4.982-8.715 5.031z" class="colorc4c6c6 svgShape"></path><path fill="#6822a2" d="m37.372 27.39.014 5.102-4.458 2.574-.014-5.102z" class="color9b59b6 svgShape"></path><path fill="#c4c5c6" d="m37.35 19.59.004 1.349-21.613 12.478-.004-1.349zM37.327 23.781l.004 1.349-21.612 12.478-.004-1.349zM37.338 15.399l.004 1.328L15.73 29.205l-.004-1.328z" class="colorc4c6c6 svgShape"></path><path fill="#a50b89" d="m20.384 11.063 2.421 4.915-.99.571-.554-1.114-2.734 1.579-.546 1.75-.992.572 2.405-7.702.99-.571zm-1.492 4.746 1.999-1.154-1-2.018-.999 3.172" class="colore74c3c svgShape"></path><path fill="#0c2340" d="m20.218 37.294.014 5.102-4.44 2.563-.014-5.102z" class="color2ecc71 svgShape"></path><path fill="#5046e4" d="m28.786 32.347.014 5.102-4.44 2.563-.014-5.101z" class="color3498db svgShape"></path></svg>