<svg xmlns="http://www.w3.org/2000/svg" xmlns:xlink="http://www.w3.org/1999/xlink" viewBox="0 0 1614.417 1283.519" id="Champion"><defs><linearGradient id="v" x1="731.697" x2="843.408" y1="774.674" y2="774.674" gradientUnits="userSpaceOnUse"><stop offset="0" stop-color="#cfe0f1" class="stopColorcfd5f1 svgShape"></stop><stop offset=".589" stop-color="#eef4fa" class="stopColoreef0fa svgShape"></stop><stop offset="1" stop-color="#ffffff" class="stopColorffffff svgShape"></stop></linearGradient><linearGradient id="a" x1="917.91" x2="973.264" y1="768.119" y2="768.119" gradientUnits="userSpaceOnUse"><stop offset="0" stop-color="#cfe0f1" class="stopColorcfd5f1 svgShape"></stop><stop offset=".283" stop-color="#e1ebf6" class="stopColore1e5f6 svgShape"></stop><stop offset=".719" stop-color="#f7fafd" class="stopColorf7f8fd svgShape"></stop><stop offset="1" stop-color="#ffffff" class="stopColorffffff svgShape"></stop></linearGradient><linearGradient id="w" x1="994.757" x2="1052.075" y1="740.054" y2="740.054" xlink:href="#a"></linearGradient><linearGradient id="x" x1="853.373" x2="1030.231" y1="920.833" y2="920.833" xlink:href="#a"></linearGradient><linearGradient id="y" x1="1030.97" x2="1135.882" y1="784.412" y2="784.412" xlink:href="#a"></linearGradient><linearGradient id="z" x1="572.189" x2="668.193" y1="744.585" y2="744.585" gradientUnits="userSpaceOnUse"><stop offset="0" stop-color="#dae7f5" class="stopColordae0f5 svgShape"></stop><stop offset=".656" stop-color="#e2ecf6" class="stopColore2e7f6 svgShape"></stop><stop offset="1" stop-color="#e8eff7" class="stopColore8ecf7 svgShape"></stop></linearGradient><linearGradient id="A" x1="786.09" x2="853.567" y1="706.309" y2="706.309" gradientUnits="userSpaceOnUse"><stop offset="0" stop-color="#cfe0f1" class="stopColorcfd5f1 svgShape"></stop><stop offset=".553" stop-color="#e0eaf5" class="stopColore0e5f5 svgShape"></stop><stop offset="1" stop-color="#e8eff7" class="stopColore8ecf7 svgShape"></stop></linearGradient><linearGradient id="B" x1="970.099" x2="1015.195" y1="861.228" y2="861.228" xlink:href="#a"></linearGradient><linearGradient id="c" x1="705.333" x2="974.68" y1="827.734" y2="827.734" gradientUnits="userSpaceOnUse"><stop offset="0" stop-color="#cee3f8" class="stopColorced3f8 svgShape"></stop><stop offset="1" stop-color="#a5b8cc" class="stopColora5abcc svgShape"></stop></linearGradient><linearGradient id="b" x1="739.975" x2="786.09" y1="732.111" y2="732.111" gradientUnits="userSpaceOnUse"><stop offset="0" stop-color="#a5b8cc" class="stopColora5abcc svgShape"></stop><stop offset="1" stop-color="#cee3f8" class="stopColorced3f8 svgShape"></stop></linearGradient><linearGradient id="C" x1="662.366" x2="935.357" y1="682.847" y2="682.847" xlink:href="#b"></linearGradient><linearGradient id="D" x1="594.557" x2="972.913" y1="865.318" y2="865.318" xlink:href="#c"></linearGradient><linearGradient id="E" x1="795.026" x2="922.773" y1="778.407" y2="778.407" xlink:href="#b"></linearGradient><linearGradient id="F" x1="584.283" x2="1065.584" y1="686.203" y2="686.203" xlink:href="#b"></linearGradient><linearGradient id="q" x1="1026.576" x2="1122.316" y1="533.234" y2="533.234" gradientTransform="translate(-398.678)" gradientUnits="userSpaceOnUse"><stop offset="0" stop-color="#c2d6eb" class="stopColorc2c9eb svgShape"></stop><stop offset=".111" stop-color="#cedeef" class="stopColorced3ef svgShape"></stop><stop offset=".419" stop-color="#e9f0f8" class="stopColore9ebf8 svgShape"></stop><stop offset=".691" stop-color="#f9fbfd" class="stopColorf9fafd svgShape"></stop><stop offset=".899" stop-color="#ffffff" class="stopColorffffff svgShape"></stop></linearGradient><linearGradient id="d" x1="1314.911" x2="1337.765" y1="714.469" y2="702.223" gradientTransform="rotate(-9.265 -121.24 4935.66)" gradientUnits="userSpaceOnUse"><stop offset="0" stop-color="#7c3eaf" class="stopColor423eaf svgShape"></stop><stop offset=".488" stop-color="#612b8e" class="stopColor302b8e svgShape"></stop><stop offset="1" stop-color="#193f6f" class="stopColor20196f svgShape"></stop></linearGradient><linearGradient id="G" x1="1169.404" x2="1192.261" y1="445.342" y2="433.095" gradientTransform="rotate(64.486 820.048 -73.683)" xlink:href="#d"></linearGradient><linearGradient id="H" x1="-303.576" x2="-224.606" y1="361.867" y2="361.867" gradientTransform="matrix(-1 0 0 1 332.982 0)" gradientUnits="userSpaceOnUse"><stop offset="0" stop-color="#662e94" class="stopColor362e94 svgShape"></stop><stop offset="1" stop-color="#6f67e9" class="stopColor6b67e9 svgShape"></stop></linearGradient><linearGradient id="J" x1="779.021" x2="909.429" y1="787.505" y2="787.505" gradientUnits="userSpaceOnUse"><stop offset=".427" stop-color="#c2d4e7" class="stopColorc2c8e7 svgShape"></stop><stop offset=".559" stop-color="#c9d9ea" class="stopColorc9ceea svgShape"></stop><stop offset=".745" stop-color="#dbe6f1" class="stopColordbdef1 svgShape"></stop><stop offset=".961" stop-color="#f9fbfd" class="stopColorf9f9fd svgShape"></stop><stop offset="1" stop-color="#ffffff" class="stopColorffffff svgShape"></stop></linearGradient><linearGradient id="K" x1="824.848" x2="890.033" y1="775.85" y2="775.85" gradientUnits="userSpaceOnUse"><stop offset="0" stop-color="#c2d4e7" class="stopColorc2c8e7 svgShape"></stop><stop offset=".916" stop-color="#ffffff" class="stopColorffffff svgShape"></stop></linearGradient><linearGradient id="L" x1="759.637" x2="890.051" y1="799.976" y2="799.976" gradientUnits="userSpaceOnUse"><stop offset="0" stop-color="#857df9" class="stopColor807df9 svgShape"></stop><stop offset="1" stop-color="#652e92" class="stopColor362e92 svgShape"></stop></linearGradient><linearGradient id="M" x1="824.848" x2="857.206" y1="762.063" y2="762.063" gradientUnits="userSpaceOnUse"><stop offset="0" stop-color="#c2d4e7" class="stopColorc2c8e7 svgShape"></stop><stop offset="1" stop-color="#ffffff" class="stopColorffffff svgShape"></stop></linearGradient><linearGradient id="e" x1="792.449" x2="857.241" y1="777.801" y2="777.801" gradientUnits="userSpaceOnUse"><stop offset="0" stop-color="#fc06cf" class="stopColorfcba06 svgShape"></stop><stop offset=".537" stop-color="#e902bf" class="stopColore99e02 svgShape"></stop><stop offset="1" stop-color="#dc00b4" class="stopColordc8b00 svgShape"></stop></linearGradient><linearGradient id="N" x1="808.646" x2="841.04" y1="737.192" y2="737.192" gradientUnits="userSpaceOnUse"><stop offset="0" stop-color="#e100b8" class="stopColore19100 svgShape"></stop><stop offset=".491" stop-color="#ca03a6" class="stopColorca7f03 svgShape"></stop><stop offset="1" stop-color="#a50b89" class="stopColorb76f06 svgShape"></stop></linearGradient><linearGradient id="O" x1="808.646" x2="841.04" y1="713.957" y2="713.957" gradientUnits="userSpaceOnUse"><stop offset="0" stop-color="#ffffff" class="stopColorffffff svgShape"></stop><stop offset=".14" stop-color="#fbfcfe" class="stopColorfbfcfe svgShape"></stop><stop offset="1" stop-color="#e8eff7" class="stopColore8ecf7 svgShape"></stop></linearGradient><linearGradient id="P" x1="685.828" x2="963.858" y1="611.059" y2="611.059" xlink:href="#e"></linearGradient><linearGradient id="Q" x1="696.931" x2="952.76" y1="509.834" y2="509.834" gradientUnits="userSpaceOnUse"><stop offset="0" stop-color="#dc00b4" class="stopColordc8b00 svgShape"></stop><stop offset=".281" stop-color="#e101b8" class="stopColore19301 svgShape"></stop><stop offset=".706" stop-color="#ef04c4" class="stopColorefa804 svgShape"></stop><stop offset="1" stop-color="#fc06cf" class="stopColorfcba06 svgShape"></stop></linearGradient><linearGradient id="R" x1="1002.043" x2="1061.471" y1="508.457" y2="508.457" gradientUnits="userSpaceOnUse"><stop offset="0" stop-color="#c4d6e9" class="stopColorc4cae9 svgShape"></stop><stop offset=".255" stop-color="#d7e3f0" class="stopColord7dbf0 svgShape"></stop><stop offset=".73" stop-color="#f4f7fb" class="stopColorf4f5fb svgShape"></stop><stop offset="1" stop-color="#ffffff" class="stopColorffffff svgShape"></stop></linearGradient><linearGradient id="S" x1="1002.043" x2="1092.055" y1="373.787" y2="373.787" gradientUnits="userSpaceOnUse"><stop offset="0" stop-color="#e100b8" class="stopColore19100 svgShape"></stop><stop offset="1" stop-color="#3e9eff" class="stopColorffd03e svgShape"></stop></linearGradient><linearGradient id="T" x1="996.682" x2="1007.405" y1="442.636" y2="442.636" gradientUnits="userSpaceOnUse"><stop offset="0" stop-color="#6f67e9" class="stopColor6b67e9 svgShape"></stop><stop offset="1" stop-color="#193f6f" class="stopColor20196f svgShape"></stop></linearGradient><linearGradient id="f" x1="108.435" x2="383.4" y1="872.532" y2="872.532" gradientUnits="userSpaceOnUse"><stop offset="0" stop-color="#cfe0f1" class="stopColorcfd5f1 svgShape"></stop><stop offset=".342" stop-color="#d2e2f2" class="stopColord2d8f2 svgShape"></stop><stop offset=".594" stop-color="#dbe8f5" class="stopColordbe0f5 svgShape"></stop><stop offset=".816" stop-color="#ebf2f9" class="stopColorebeef9 svgShape"></stop><stop offset="1" stop-color="#ffffff" class="stopColorffffff svgShape"></stop></linearGradient><linearGradient id="U" x1="922.625" x2="1197.589" y1="1084.929" y2="1084.929" xlink:href="#f"></linearGradient><linearGradient id="V" x1="144.785" x2="178.085" y1="916.959" y2="916.959" gradientUnits="userSpaceOnUse"><stop offset="0" stop-color="#5a52cc" class="stopColor5652cc svgShape"></stop><stop offset="1" stop-color="#7c3eaf" class="stopColor423eaf svgShape"></stop></linearGradient><linearGradient id="t" x1="282.277" x2="315.566" y1="899.793" y2="899.793" gradientUnits="userSpaceOnUse"><stop offset="0" stop-color="#7c3eaf" class="stopColor423eaf svgShape"></stop><stop offset="1" stop-color="#5a52cc" class="stopColor5652cc svgShape"></stop></linearGradient><linearGradient id="W" x1="969.076" x2="1002.366" y1="1112.184" y2="1112.184" gradientUnits="userSpaceOnUse"><stop offset="0" stop-color="#e100b8" class="stopColore19100 svgShape"></stop><stop offset="1" stop-color="#fc06cf" class="stopColorfcba06 svgShape"></stop></linearGradient><linearGradient id="X" x1="1106.557" x2="1139.86" y1="1129.368" y2="1129.368" gradientUnits="userSpaceOnUse"><stop offset="0" stop-color="#fc06cf" class="stopColorfcba06 svgShape"></stop><stop offset="1" stop-color="#e100b8" class="stopColore19100 svgShape"></stop></linearGradient><linearGradient id="g" x1="571.498" x2="629.766" y1="595.915" y2="595.915" gradientUnits="userSpaceOnUse"><stop offset=".427" stop-color="#c4d4e4" class="stopColorc4c9e4 svgShape"></stop><stop offset=".577" stop-color="#d7e2ed" class="stopColord7daed svgShape"></stop><stop offset=".846" stop-color="#f4f7fa" class="stopColorf4f5fa svgShape"></stop><stop offset="1" stop-color="#ffffff" class="stopColorffffff svgShape"></stop></linearGradient><linearGradient id="h" x1="558.651" x2="616.95" y1="599.365" y2="599.365" gradientUnits="userSpaceOnUse"><stop offset="0" stop-color="#857dfb" class="stopColor807dfb svgShape"></stop><stop offset=".014" stop-color="#847cfa" class="stopColor7f7cfa svgShape"></stop><stop offset=".448" stop-color="#625ad1" class="stopColor5e5ad1 svgShape"></stop><stop offset=".792" stop-color="#4d46b8" class="stopColor4a46b8 svgShape"></stop><stop offset="1" stop-color="#7c3eaf" class="stopColor423eaf svgShape"></stop></linearGradient><linearGradient id="Y" x1="668.313" x2="726.581" y1="1032.193" y2="1032.193" xlink:href="#g"></linearGradient><linearGradient id="Z" x1="655.467" x2="713.765" y1="1035.643" y2="1035.643" xlink:href="#h"></linearGradient><linearGradient id="aa" x1="282.443" x2="366.752" y1="710.363" y2="710.363" gradientUnits="userSpaceOnUse"><stop offset="0" stop-color="#c2d6eb" class="stopColorc2c9eb svgShape"></stop><stop offset=".213" stop-color="#d2e1f0" class="stopColord2d7f0 svgShape"></stop><stop offset=".721" stop-color="#f3f7fb" class="stopColorf3f4fb svgShape"></stop><stop offset="1" stop-color="#ffffff" class="stopColorffffff svgShape"></stop></linearGradient><linearGradient id="ab" x1="1165.571" x2="1260.415" y1="848.742" y2="848.742" gradientUnits="userSpaceOnUse"><stop offset="0" stop-color="#c2d4e6" class="stopColorc2c8e6 svgShape"></stop><stop offset="1" stop-color="#ffffff" class="stopColorffffff svgShape"></stop></linearGradient><linearGradient id="i" x1="1146.606" x2="1232.683" y1="840.599" y2="840.599" gradientUnits="userSpaceOnUse"><stop offset="0" stop-color="#bbd0e6" class="stopColorbbc0e6 svgShape"></stop><stop offset="1" stop-color="#a3b9d0" class="stopColora3a9d0 svgShape"></stop></linearGradient><linearGradient id="ac" x1="1146.606" x2="1232.683" y1="848.816" y2="848.816" gradientUnits="userSpaceOnUse"><stop offset="0" stop-color="#d6e3f1" class="stopColord6ddf1 svgShape"></stop><stop offset=".551" stop-color="#c4d6e9" class="stopColorc4cbe9 svgShape"></stop><stop offset="1" stop-color="#bbd0e5" class="stopColorbbc2e5 svgShape"></stop></linearGradient><linearGradient id="ad" x1="1146.606" x2="1232.683" y1="857.032" y2="857.032" xlink:href="#i"></linearGradient><linearGradient id="ae" x1="170.732" x2="231.089" y1="221.151" y2="116.61" gradientTransform="matrix(-1 0 0 1 1383.738 0)" gradientUnits="userSpaceOnUse"><stop offset=".006" stop-color="#662e94" class="stopColor362e94 svgShape"></stop><stop offset=".176" stop-color="#6822a2" class="stopColor3e369e svgShape"></stop><stop offset=".472" stop-color="#534cbb" class="stopColor524cbb svgShape"></stop><stop offset=".854" stop-color="#766ee8" class="stopColor726ee8 svgShape"></stop><stop offset="1" stop-color="#857dfb" class="stopColor807dfb svgShape"></stop></linearGradient><linearGradient id="af" x1="234.885" x2="209.437" y1="194.735" y2="154.772" gradientTransform="matrix(-1 0 0 1 1383.738 0)" gradientUnits="userSpaceOnUse"><stop offset=".006" stop-color="#e100b8" class="stopColore19100 svgShape"></stop><stop offset="1" stop-color="#fc06cf" class="stopColorfcba06 svgShape"></stop></linearGradient><linearGradient id="ag" x1="367.116" x2="549.376" y1="787.034" y2="787.034" gradientUnits="userSpaceOnUse"><stop offset="0" stop-color="#d1e0f0" class="stopColord1d6f0 svgShape"></stop><stop offset=".29" stop-color="#d5e3f1" class="stopColord5daf1 svgShape"></stop><stop offset=".592" stop-color="#e2ebf5" class="stopColore2e5f5 svgShape"></stop><stop offset=".899" stop-color="#f6f9fc" class="stopColorf6f7fc svgShape"></stop><stop offset="1" stop-color="#ffffff" class="stopColorffffff svgShape"></stop></linearGradient><linearGradient id="j" x1="411.484" x2="476.241" y1="761.497" y2="761.497" gradientUnits="userSpaceOnUse"><stop offset="0" stop-color="#bbcee2" class="stopColorbbbfe2 svgShape"></stop><stop offset="1" stop-color="#cee1f4" class="stopColorced2f4 svgShape"></stop></linearGradient><linearGradient id="ah" x1="502.932" x2="521.054" y1="796.909" y2="796.909" gradientUnits="userSpaceOnUse"><stop offset="0" stop-color="#a5bcd4" class="stopColora5acd4 svgShape"></stop><stop offset=".635" stop-color="#bed2e7" class="stopColorbec3e7 svgShape"></stop><stop offset="1" stop-color="#cee1f4" class="stopColorced2f4 svgShape"></stop></linearGradient><linearGradient id="ai" x1="367.116" x2="385.327" y1="796.93" y2="796.93" xlink:href="#j"></linearGradient><linearGradient id="aj" x1="472.659" x2="495.928" y1="813.721" y2="813.721" gradientUnits="userSpaceOnUse"><stop offset="0" stop-color="#a5bcd4" class="stopColora5acd4 svgShape"></stop><stop offset=".516" stop-color="#bcd1e6" class="stopColorbcc2e6 svgShape"></stop><stop offset="1" stop-color="#cee1f4" class="stopColorced2f4 svgShape"></stop></linearGradient><linearGradient id="ak" x1="392.469" x2="415.78" y1="813.745" y2="813.745" xlink:href="#j"></linearGradient><linearGradient id="al" x1="431.626" x2="456.886" y1="820.537" y2="820.537" xlink:href="#j"></linearGradient><linearGradient id="am" x1="397.972" x2="489.755" y1="752.672" y2="752.672" xlink:href="#j"></linearGradient><linearGradient id="an" x1="166.153" x2="306.12" y1="825.287" y2="825.287" gradientUnits="userSpaceOnUse"><stop offset=".331" stop-color="#c6d6e7" class="stopColorc6cbe7 svgShape"></stop><stop offset=".592" stop-color="#d9e4ef" class="stopColord9ddef svgShape"></stop><stop offset="1" stop-color="#ffffff" class="stopColorffffff svgShape"></stop></linearGradient><linearGradient id="ao" x1="197.563" x2="239.849" y1="809.116" y2="809.116" gradientUnits="userSpaceOnUse"><stop offset="0" stop-color="#a3b9d0" class="stopColora3a9d0 svgShape"></stop><stop offset="1" stop-color="#deebf9" class="stopColordee2f9 svgShape"></stop></linearGradient><linearGradient id="ap" x1="185.622" x2="212.596" y1="840.271" y2="840.271" gradientUnits="userSpaceOnUse"><stop offset="0" stop-color="#a3b9d0" class="stopColora3a9d0 svgShape"></stop><stop offset="1" stop-color="#d0e3f6" class="stopColord0d4f6 svgShape"></stop></linearGradient><linearGradient id="aq" x1="615.937" x2="629.237" y1="898.725" y2="920.967" gradientTransform="rotate(120.001 450.003 763.796)" gradientUnits="userSpaceOnUse"><stop offset="0" stop-color="#d0e3f6" class="stopColord0d4f6 svgShape"></stop><stop offset=".57" stop-color="#b8cde2" class="stopColorb8bde2 svgShape"></stop><stop offset="1" stop-color="#a3b9d0" class="stopColora3a9d0 svgShape"></stop></linearGradient><linearGradient id="ar" x1="252.814" x2="271.211" y1="819.287" y2="819.287" gradientUnits="userSpaceOnUse"><stop offset=".404" stop-color="#a3b9d0" class="stopColora3a9d0 svgShape"></stop><stop offset=".689" stop-color="#b6cbe0" class="stopColorb6bbe0 svgShape"></stop><stop offset="1" stop-color="#d0e3f6" class="stopColord0d4f6 svgShape"></stop></linearGradient><linearGradient id="as" x1="1338.398" x2="1516.673" y1="767.211" y2="767.211" gradientUnits="userSpaceOnUse"><stop offset=".416" stop-color="#c6d6e7" class="stopColorc6cbe7 svgShape"></stop><stop offset=".587" stop-color="#d2dfec" class="stopColord2d6ec svgShape"></stop><stop offset=".897" stop-color="#f3f6fa" class="stopColorf3f4fa svgShape"></stop><stop offset="1" stop-color="#ffffff" class="stopColorffffff svgShape"></stop></linearGradient><linearGradient id="at" x1="1322.217" x2="1492.625" y1="786.053" y2="786.053" gradientUnits="userSpaceOnUse"><stop offset="0" stop-color="#cee3f8" class="stopColorced3f8 svgShape"></stop><stop offset="1" stop-color="#bbd0e6" class="stopColorbbc0e6 svgShape"></stop></linearGradient><linearGradient id="au" x1="1407.43" x2="1489.267" y1="742.427" y2="742.427" gradientUnits="userSpaceOnUse"><stop offset="0" stop-color="#c4d6e9" class="stopColorc4cae9 svgShape"></stop><stop offset=".564" stop-color="#d4e3f2" class="stopColord4daf2 svgShape"></stop><stop offset="1" stop-color="#dae7f5" class="stopColordae0f5 svgShape"></stop></linearGradient><linearGradient id="k" x1="366.654" x2="495.72" y1="619.063" y2="619.063" gradientUnits="userSpaceOnUse"><stop offset="0" stop-color="#c4d3e2" class="stopColorc4c8e2 svgShape"></stop><stop offset=".145" stop-color="#d7e1eb" class="stopColord7daeb svgShape"></stop><stop offset=".406" stop-color="#f4f7fa" class="stopColorf4f5fa svgShape"></stop><stop offset=".555" stop-color="#ffffff" class="stopColorffffff svgShape"></stop></linearGradient><linearGradient id="l" x1="278.206" x2="424.128" y1="547.636" y2="463.388" gradientUnits="userSpaceOnUse"><stop offset="0" stop-color="#6f67e9" class="stopColor6b67e9 svgShape"></stop><stop offset=".388" stop-color="#4c45b4" class="stopColor4b45b4 svgShape"></stop><stop offset=".797" stop-color="#582582" class="stopColor2c2582 svgShape"></stop><stop offset="1" stop-color="#193f6f" class="stopColor20196f svgShape"></stop></linearGradient><linearGradient id="m" x1="289.141" x2="417.025" y1="492.128" y2="418.294" gradientUnits="userSpaceOnUse"><stop offset="0" stop-color="#6f67e9" class="stopColor6b67e9 svgShape"></stop><stop offset=".684" stop-color="#652f92" class="stopColor362f92 svgShape"></stop><stop offset="1" stop-color="#193f6f" class="stopColor20196f svgShape"></stop></linearGradient><linearGradient id="n" x1="297.597" x2="435.709" y1="396.84" y2="396.84" gradientUnits="userSpaceOnUse"><stop offset="0" stop-color="#857dfb" class="stopColor807dfb svgShape"></stop><stop offset=".348" stop-color="#6861d6" class="stopColor6561d6 svgShape"></stop><stop offset="1" stop-color="#662e94" class="stopColor362e94 svgShape"></stop></linearGradient><linearGradient id="av" x1="1312.47" x2="1439.505" y1="1106.516" y2="1106.516" xlink:href="#k"></linearGradient><linearGradient id="aw" x1="1225.413" x2="1369.04" y1="1036.212" y2="953.289" xlink:href="#l"></linearGradient><linearGradient id="ax" x1="1236.175" x2="1362.048" y1="981.578" y2="908.905" xlink:href="#m"></linearGradient><linearGradient id="ay" x1="1244.498" x2="1380.439" y1="887.788" y2="887.788" xlink:href="#n"></linearGradient><linearGradient id="o" x1="774.421" x2="875.52" y1="1196.507" y2="1196.507" gradientTransform="translate(-228.072)" gradientUnits="userSpaceOnUse"><stop offset="0" stop-color="#c4d6e8" class="stopColorc4cae8 svgShape"></stop><stop offset=".095" stop-color="#ceddec" class="stopColorced3ec svgShape"></stop><stop offset=".409" stop-color="#e9eff6" class="stopColore9ebf6 svgShape"></stop><stop offset=".687" stop-color="#f9fbfd" class="stopColorf9fafd svgShape"></stop><stop offset=".899" stop-color="#ffffff" class="stopColorffffff svgShape"></stop></linearGradient><linearGradient id="az" x1="686.289" x2="787.377" y1="1169.694" y2="1169.694" gradientTransform="translate(-186.014)" xlink:href="#o"></linearGradient><linearGradient id="p" x1="-1460.804" x2="-1423.539" y1="1166.124" y2="1166.124" gradientTransform="matrix(-1 0 0 1 -933.934 0)" gradientUnits="userSpaceOnUse"><stop offset="0" stop-color="#7c3eaf" class="stopColor423eaf svgShape"></stop><stop offset=".304" stop-color="#7035a0" class="stopColor3a35a0 svgShape"></stop><stop offset=".891" stop-color="#1e4577" class="stopColor241e77 svgShape"></stop><stop offset="1" stop-color="#193f6f" class="stopColor1f196f svgShape"></stop></linearGradient><linearGradient id="aA" x1="-1506.881" x2="-1469.619" y1="1192.943" y2="1192.943" xlink:href="#p"></linearGradient><linearGradient id="aB" x1="-1490.697" x2="-1427.44" y1="1103.905" y2="1103.905" gradientTransform="matrix(-1 0 0 1 -933.934 0)" gradientUnits="userSpaceOnUse"><stop offset="0" stop-color="#7c3eaf" class="stopColor423eaf svgShape"></stop><stop offset=".301" stop-color="#683097" class="stopColor353097 svgShape"></stop><stop offset=".746" stop-color="#1f477a" class="stopColor251f7a svgShape"></stop><stop offset="1" stop-color="#193f6f" class="stopColor1f196f svgShape"></stop></linearGradient><linearGradient id="aC" x1="456.34" x2="565.816" y1="994.455" y2="994.455" gradientTransform="rotate(-6.414 286.288 707.589)" gradientUnits="userSpaceOnUse"><stop offset="0" stop-color="#857dfb" class="stopColor807dfb svgShape"></stop><stop offset=".393" stop-color="#776fec" class="stopColor726fec svgShape"></stop><stop offset="1" stop-color="#5a52cc" class="stopColor5652cc svgShape"></stop></linearGradient><linearGradient id="aD" x1="504.978" x2="538.801" y1="1057.617" y2="962.636" gradientTransform="rotate(-6.414 286.288 707.589)" gradientUnits="userSpaceOnUse"><stop offset="0" stop-color="#6f67e9" class="stopColor6b67e9 svgShape"></stop><stop offset=".266" stop-color="#6159d6" class="stopColor5d59d6 svgShape"></stop><stop offset=".731" stop-color="#4c45ba" class="stopColor4945ba svgShape"></stop><stop offset="1" stop-color="#7c3eaf" class="stopColor423eaf svgShape"></stop></linearGradient><linearGradient id="aE" x1="1691.675" x2="1786.79" y1="656.694" y2="656.694" xlink:href="#q"></linearGradient><linearGradient id="aF" x1="1713.495" x2="1793.224" y1="625.01" y2="625.01" gradientTransform="translate(-393.673)" xlink:href="#q"></linearGradient><linearGradient id="r" x1="393.538" x2="379.065" y1="632.213" y2="600.334" gradientTransform="matrix(-1 0 0 1 1712.621 0)" gradientUnits="userSpaceOnUse"><stop offset="0" stop-color="#7e3bb5" class="stopColor443bb5 svgShape"></stop><stop offset=".496" stop-color="#622793" class="stopColor332793 svgShape"></stop><stop offset="1" stop-color="#153f74" class="stopColor231574 svgShape"></stop></linearGradient><linearGradient id="aG" x1="395.071" x2="385.488" y1="631.178" y2="600.179" xlink:href="#r"></linearGradient><linearGradient id="aH" x1="155.914" x2="213.842" y1="550.818" y2="550.818" gradientTransform="rotate(-7.556 776.66 -7862.786)" gradientUnits="userSpaceOnUse"><stop offset="0" stop-color="#153f74" class="stopColor231574 svgShape"></stop><stop offset=".315" stop-color="#184379" class="stopColor261879 svgShape"></stop><stop offset=".711" stop-color="#5a2189" class="stopColor2f2189 svgShape"></stop><stop offset="1" stop-color="#672b99" class="stopColor392b99 svgShape"></stop></linearGradient><linearGradient id="s" x1="408.221" x2="420.054" y1="662.416" y2="648.334" gradientTransform="matrix(-1 0 0 1 1712.621 0)" gradientUnits="userSpaceOnUse"><stop offset="0" stop-color="#153f74" class="stopColor231574 svgShape"></stop><stop offset=".504" stop-color="#622793" class="stopColor332793 svgShape"></stop><stop offset="1" stop-color="#7e3bb5" class="stopColor443bb5 svgShape"></stop></linearGradient><linearGradient id="aI" x1="403.594" x2="416.306" y1="658.349" y2="645.539" xlink:href="#s"></linearGradient><linearGradient id="aJ" x1="152.409" x2="192.49" y1="568.242" y2="577.673" gradientTransform="translate(1134.97)" gradientUnits="userSpaceOnUse"><stop offset="0" stop-color="#5046e4" class="stopColor584fd3 svgShape"></stop><stop offset=".651" stop-color="#622792" class="stopColor342792 svgShape"></stop><stop offset="1" stop-color="#153f74" class="stopColor231574 svgShape"></stop></linearGradient><linearGradient id="aK" x1="200.023" x2="136.474" y1="462.405" y2="462.405" gradientTransform="translate(1134.97)" gradientUnits="userSpaceOnUse"><stop offset="0" stop-color="#cee3f8" class="stopColorced3f8 svgShape"></stop><stop offset=".111" stop-color="#d8e8f9" class="stopColord8dcf9 svgShape"></stop><stop offset=".418" stop-color="#edf4fc" class="stopColoredeffc svgShape"></stop><stop offset=".715" stop-color="#fbfcfe" class="stopColorfbfbfe svgShape"></stop><stop offset=".987" stop-color="#ffffff" class="stopColorffffff svgShape"></stop></linearGradient><linearGradient id="aL" x1="1253.819" x2="1237.12" y1="547.229" y2="530.531" xlink:href="#t"></linearGradient><linearGradient id="aM" x1="1159.479" x2="1141.356" y1="489.056" y2="470.932" xlink:href="#t"></linearGradient><linearGradient id="aN" x1="1076.324" x2="1183.954" y1="627.175" y2="627.175" gradientUnits="userSpaceOnUse"><stop offset=".365" stop-color="#c4d4e4" class="stopColorc4c9e4 svgShape"></stop><stop offset="1" stop-color="#ffffff" class="stopColorffffff svgShape"></stop></linearGradient><linearGradient id="u" x1="1055.112" x2="1160.536" y1="635.678" y2="635.678" gradientUnits="userSpaceOnUse"><stop offset="0" stop-color="#fb05ce" class="stopColorfbba05 svgShape"></stop><stop offset="1" stop-color="#e100b8" class="stopColore19100 svgShape"></stop></linearGradient><linearGradient id="aO" x1="1091.556" x2="1114.696" y1="623.654" y2="623.654" xlink:href="#u"></linearGradient><clipPath id="I"><path fill="none" d="M676.378 424.727V718.12h63.597v14.465h.028a31.08 31.08 0 0 0 4.055 14.086v59.49l-4.083.754v4.926a244.307 244.307 0 0 0 55.051 12.164V785.52l3.955-7.135c30.458 5.625 63.414 1.016 86.006-12.026 16.003-9.24 24.237-21.282 24.77-33.416V718.12h63.507V424.727Z"></path></clipPath></defs><g style="isolation:isolate" fill="#f4f6f8" class="color000000 svgShape"><g fill="#f4f6f8" class="color000000 svgShape"><g fill="#f4f6f8" class="color000000 svgShape"><path d="M709.829 724.722a148.802 148.802 0 0 0-5.293 3.22h22.668a36.28 36.28 0 0 1 4.678-13.874l-.016.027a173.38 173.38 0 0 0-22.037 10.627Z" style="mix-blend-mode:multiply" fill="#dae7f5" class="colordae0f5 svgShape"></path><path d="M786.09 740.903v6.661a98.49 98.49 0 0 0-21.202 8.947c-9.75 5.63-16.772 12.375-20.83 19.636v30.014l-12.361 2.283 57.318.001 6.011-1.11V785.52l3.955-7.135c.386.071.776.122 1.163.19 3.772-8.184 11.234-15.811 22.062-22.063a98.499 98.499 0 0 1 21.202-8.946l-5.938-6.663Z" style="mix-blend-mode:multiply" fill="url(#v)"></path><path d="m944.532 727.43-21.759 12.563-.011.006v50.175l-.005-.008a35.337 35.337 0 0 1-4.847 18.642 173.47 173.47 0 0 0 22.136-10.66c13.955-8.058 25.174-17.469 33.218-27.733a61.908 61.908 0 0 0-17.365-16.455l12.488-7.21a117.836 117.836 0 0 0-23.855-19.32Z" style="mix-blend-mode:multiply" fill="url(#a)"></path><path d="m1039.534 766.878 12.54-1.93c-7.923-17.155-23.667-32.897-45.536-45.523-3.796-2.191-7.737-4.247-11.781-6.196v43.276l.596.087v10.286Z" style="mix-blend-mode:multiply" fill="url(#w)"></path><path d="M972.913 904.055v6.08c-35.305 14.675-76.584 23.727-119.54 26.522q4.718.312 9.465.529c59.657 2.628 119.105-6.978 167.393-27.05l-7.582-6.081Z" style="mix-blend-mode:multiply" fill="url(#x)"></path><path d="M1135.145 779.97c-4.326-32.714-27.648-63.637-65.97-87.762a92.416 92.416 0 0 1 8.652 28.271 85.149 85.149 0 0 1 .722 11.217v-.048 57.946c.008.515 0 1.029 0 1.545v1.524l-.002.005c-.541 30.094-17.085 59.498-47.577 83.947h57.318c34.769-27.877 51.409-62.201 46.857-96.644Z" style="mix-blend-mode:multiply" fill="url(#y)"></path><path d="m594.557 793.025 11.783-3.137a137.425 137.425 0 0 0 12.43 13.52l10.737.001 12.934-.622a83.218 83.218 0 0 1 6.831-46.423v-23.78.006c-.247-16.072 6.06-32.17 18.921-46.828q-6.887 3.412-13.423 7.171c-40.6 23.44-64.962 54.142-69.647 86.659v23.195l-12.934.62 22.368.001Zm54.715-61.995.004.003-.004.405Z" style="mix-blend-mode:multiply" fill="url(#z)"></path><path d="M786.09 699.954v15.398c20.418-8.642 43.559-14.176 67.477-16.625a281.691 281.691 0 0 0-67.477 1.227Z" style="mix-blend-mode:multiply" fill="url(#A)"></path><path d="M719.684 794.925h-15.141a144.961 144.961 0 0 0 5.286 3.222c3.621 2.09 7.387 4.047 11.253 5.898a56.063 56.063 0 0 1-1.398-9.12Z" style="mix-blend-mode:multiply" fill="#dae7f5" class="colordae0f5 svgShape"></path><path d="M974.68 844.332a115.444 115.444 0 0 1-4.58 4.055l2.813 2.256v27.48a195.915 195.915 0 0 0 33.627-15.186 156.839 156.839 0 0 0 8.655-5.388Z" style="mix-blend-mode:multiply" fill="url(#B)"></path><path fill="#f6f8fb" d="M806.509 870.223c-55.061-2.428-107.032-15.772-147.082-37.679l45.906-26.504c68.837 36.945 176.895 36.083 243.89-2.595a137.979 137.979 0 0 0 25.457-18.605l56.544 18.448q-5.048 4.843-10.785 9.458l10.531 4.378c34.769-27.878 51.409-62.202 46.857-96.645-4.604-34.819-30.723-67.61-73.546-92.334-98.892-57.095-259.799-57.095-358.688 0-52.861 30.518-79.615 72.718-73.404 115.772l12.934-.622c-5.897-40.855 19.489-80.894 69.647-109.853 93.83-54.172 246.502-54.172 340.334.001 40.632 23.459 65.416 54.572 69.782 87.606 3.486 26.367-6.12 52.654-27.277 75.715l-56.547-18.446a81.699 81.699 0 0 0 14.291-21.726l-12.583-1.832c-7.15 16.375-21.925 31.378-42.724 43.388-63.47 36.642-166.748 36.642-230.217-.001-30.088-17.372-45.902-39.908-47.463-62.713h64.853a36.664 36.664 0 0 0 4.478 13.52l12.361-2.283c-9.742-17.584-1.76-36.609 20.83-49.65a98.49 98.49 0 0 1 21.202-8.947l-5.938-6.663a113.617 113.617 0 0 0-24.44 10.311c-17.145 9.899-26.986 22.786-28.508 36.22h-64.838c1.56-22.804 17.375-45.34 47.463-62.71 61.932-35.758 161.758-36.617 225.528-2.593l-45.944 26.526a117.946 117.946 0 0 0-19.694-7.754l-5.937 6.663a98.652 98.652 0 0 1 21.205 8.946c33.11 19.117 33.11 50.221 0 69.339-22.592 13.042-55.548 17.651-86.006 12.026l-3.955 7.135c35.107 6.485 73.095 1.173 99.138-13.864 36.627-21.147 38.084-55.012 4.417-77.187l45.95-26.53c17.922 11.204 30.907 24.765 37.685 39.447l12.54-1.93c-7.923-17.155-23.667-32.897-45.536-45.522-68.53-39.567-180.037-39.567-248.568 0C633.659 698.61 632.168 761 696.158 800.74l-45.908 26.507c-18.166-11.059-32.927-23.607-43.91-37.36l-11.783 3.137c12.522 15.683 29.695 29.885 51.039 42.208 42.821 24.724 99.619 39.805 159.924 42.46 59.657 2.63 119.105-6.976 167.393-27.05l-7.582-6.08c-45.81 19.042-102.213 28.155-158.822 25.66Z" class="colorf6f6fb svgShape"></path><path fill="#f6f8fb" d="M806.509 870.223c-55.061-2.428-107.032-15.772-147.082-37.679l45.906-26.504c68.837 36.945 176.895 36.083 243.89-2.595a137.979 137.979 0 0 0 25.457-18.605l56.544 18.448q-5.048 4.843-10.785 9.458l10.531 4.378c34.769-27.878 51.409-62.202 46.857-96.645-4.604-34.819-30.723-67.61-73.546-92.334-98.892-57.095-259.799-57.095-358.688 0-52.861 30.518-79.615 72.718-73.404 115.772l12.934-.622c-5.897-40.855 19.489-80.894 69.647-109.853 93.83-54.172 246.502-54.172 340.334.001 40.632 23.459 65.416 54.572 69.782 87.606 3.486 26.367-6.12 52.654-27.277 75.715l-56.547-18.446a81.699 81.699 0 0 0 14.291-21.726l-12.583-1.832c-7.15 16.375-21.925 31.378-42.724 43.388-63.47 36.642-166.748 36.642-230.217-.001-30.088-17.372-45.902-39.908-47.463-62.713h64.853a36.664 36.664 0 0 0 4.478 13.52l12.361-2.283c-9.742-17.584-1.76-36.609 20.83-49.65a98.49 98.49 0 0 1 21.202-8.947l-5.938-6.663a113.617 113.617 0 0 0-24.44 10.311c-17.145 9.899-26.986 22.786-28.508 36.22h-64.838c1.56-22.804 17.375-45.34 47.463-62.71 61.932-35.758 161.758-36.617 225.528-2.593l-45.944 26.526a117.946 117.946 0 0 0-19.694-7.754l-5.937 6.663a98.652 98.652 0 0 1 21.205 8.946c33.11 19.117 33.11 50.221 0 69.339-22.592 13.042-55.548 17.651-86.006 12.026l-3.955 7.135c35.107 6.485 73.095 1.173 99.138-13.864 36.627-21.147 38.084-55.012 4.417-77.187l45.95-26.53c17.922 11.204 30.907 24.765 37.685 39.447l12.54-1.93c-7.923-17.155-23.667-32.897-45.536-45.522-68.53-39.567-180.037-39.567-248.568 0C633.659 698.61 632.168 761 696.158 800.74l-45.908 26.507c-18.166-11.059-32.927-23.607-43.91-37.36l-11.783 3.137c12.522 15.683 29.695 29.885 51.039 42.208 42.821 24.724 99.619 39.805 159.924 42.46 59.657 2.63 119.105-6.976 167.393-27.05l-7.582-6.08c-45.81 19.042-102.213 28.155-158.822 25.66Z" class="colorf6f6fb svgShape"></path><path fill="#cee3f8" d="M649.272 790.89a63.886 63.886 0 0 0 8.71 31.893l38.176-22.042c-30.884-19.18-46.511-43.636-46.886-68.156Z" class="colorced3f8 svgShape"></path><path d="m649.272 731.438.004-.405-.004-.003Z" fill="#f4f6f8" class="color000000 svgShape"></path><path fill="url(#c)" d="M949.222 803.445c-66.994 38.678-175.052 39.54-243.889 2.595v46.181c30.794 10.193 65.32 16.422 101.176 18.002 56.609 2.495 113.013-6.618 158.822-25.66l4.77 3.824a115.444 115.444 0 0 0 4.579-4.055V784.84a137.979 137.979 0 0 1-25.458 18.605Z"></path><path fill="#bbd0e6" d="m995.353 791.587-20.673-6.747v59.492l45.759 14.928v-46.514q5.748-4.607 10.785-9.458Z" class="colorbbc0e6 svgShape"></path><path fill="#bbd0e6" d="M1020.439 812.746v59.49l10.531 4.379v-59.491l-10.531-4.378z" class="colorbbc0e6 svgShape"></path><path fill="#a5b8cc" d="M1030.97 817.124v59.491c30.492-24.45 47.036-53.853 47.577-83.947l.003-.005v-1.524c0-.516.007-1.03 0-1.545v-57.946c0 30.627-16.574 60.613-47.58 85.476Z" class="colora5abcc svgShape"></path><path fill="#bbd0e6" d="M884.987 697.02a98.652 98.652 0 0 0-21.205-8.946v59.49a98.651 98.651 0 0 1 21.205 8.947 71.846 71.846 0 0 1 7.44 4.92c25.426-19.207 22.962-46.858-7.44-64.41ZM662.366 735.434c1.466 21.42 15.51 42.603 42.143 59.491h22.71v-59.491Z" class="colorbbc0e6 svgShape"></path><path fill="#cee3f8" d="M727.219 735.434v59.491a36.66 36.66 0 0 0 4.478 13.519v-59.49a36.664 36.664 0 0 1-4.478-13.52Z" class="colorced3f8 svgShape"></path><path fill="#bbd0e6" d="M731.697 748.954v59.49l12.361-2.283V746.671l-12.361 2.283z" class="colorbbc0e6 svgShape"></path><path fill="url(#b)" d="M764.888 697.02c-22.59 13.042-30.572 32.067-20.83 49.651v29.476c4.058-7.26 11.08-14.006 20.83-19.636a98.49 98.49 0 0 1 21.202-8.947v-59.49a98.49 98.49 0 0 0-21.202 8.946Z"></path><path fill="url(#C)" d="M709.829 665.232c-30.088 17.37-45.903 39.906-47.463 62.71h42.17c1.72-1.09 3.47-2.167 5.293-3.22a173.38 173.38 0 0 1 22.037-10.627c4.698-8.27 12.725-15.952 23.846-22.373a113.617 113.617 0 0 1 24.44-10.31l5.938 6.662v11.88a281.33 281.33 0 0 1 77.692.01v-11.89l5.937-6.663a117.946 117.946 0 0 1 19.694 7.754l45.944-26.526c-63.77-34.024-163.596-33.165-225.528 2.593Z"></path><path fill="#a5b8cc" d="M995.353 756.592a81.699 81.699 0 0 1-14.291 21.726l14.291 4.663Z" class="colora5abcc svgShape"></path><path fill="url(#D)" d="M805.52 877.694c-60.305-2.656-117.103-17.737-159.924-42.461-21.344-12.323-38.517-26.525-51.04-42.208v59.491c12.523 15.684 29.696 29.886 51.04 42.208 42.821 24.723 99.619 39.803 159.924 42.462 59.657 2.627 119.105-6.979 167.393-27.05v-59.493c-48.288 20.074-107.736 29.68-167.393 27.05Z"></path><path fill="#a5b8cc" d="m944.532 667.94-45.951 26.529c15.926 10.49 23.98 23.594 24.182 36.732l.01.005v8.787l21.759-12.563Z" class="colora5abcc svgShape"></path><path fill="url(#E)" d="M922.763 731.2c.225 14.636-9.298 29.312-28.6 40.456-14.813 8.553-33.49 13.954-53.302 15.833l-1.782.402-1.855-.1a167.244 167.244 0 0 1-42.198-2.271v38.508c42.012 4.5 86.492-.579 122.88-15.212a35.338 35.338 0 0 0 4.851-18.65l.005.008v-50.175l.011-.006v-8.787Z"></path><path fill="#c2d3e5" d="M944.532 667.94v59.49c15.678 9.802 27.579 21.408 34.851 33.991a69.129 69.129 0 0 0 2.833-5.492v-48.543c-6.778-14.682-19.763-28.243-37.684-39.447Z" class="colorc2c7e5 svgShape"></path><path fill="#a5b8cc" d="M982.216 707.386v48.543c.18-.39.382-.777.554-1.169l11.987 1.746v-51.05Z" class="colora5abcc svgShape"></path><path fill="#cee3f8" d="M571.336 732.967v55.982l.021-.002a85.823 85.823 0 0 0 .832 14.46v-59.49a85.845 85.845 0 0 1-.853-10.95Z" class="colorced3f8 svgShape"></path><path fill="url(#F)" d="M1064.886 721.05c-4.366-33.035-29.15-64.148-69.782-87.607-93.832-54.173-246.504-54.173-340.334 0-50.158 28.958-75.544 68.997-69.647 109.852v36.297c4.685-32.517 29.047-63.219 69.647-86.659q6.525-3.767 13.425-7.172c8.175-9.317 18.99-18.052 32.457-25.827 68.531-39.567 180.038-39.567 248.568 0 13.161 7.597 24.085 16.33 32.44 25.815q6.9 3.419 13.444 7.185c32.69 18.874 55.105 42.706 64.896 68.504a82.497 82.497 0 0 0 4.886-40.389Z"></path><path fill="#bbd0e6" d="m577.865 743.644-.98.048-4.696.225v59.49l12.934-.62v-59.492l-7.258.349z" class="colorbbc0e6 svgShape"></path><path fill="#adc4db" d="M659.427 832.544a277.456 277.456 0 0 0 45.906 19.701V806.04Z" class="coloradb5db svgShape"></path><path d="m968.387 746.75-23.855-78.81v59.49a117.836 117.836 0 0 1 23.855 19.32ZM662.366 735.434c1.466 21.42 15.51 42.603 42.143 59.491h15.174ZM1015.195 857.549 974.68 784.84v59.492l40.515 13.217z" style="mix-blend-mode:multiply" fill="#e8eff7" class="colore8ecf7 svgShape"></path><path style="mix-blend-mode:multiply" fill="url(#q)" d="M723.638 525.318h-95.74l6.484 15.832h89.256v-15.832z"></path><path fill="url(#d)" d="M615.183 519.014c-4.599.75-5.932 8.166-3.63 12.818 1.427 1.595 5.034 3.098 5.034 3.098s14.527 5.962 17.795 6.22c3.274.27 10.528-.955 11.121-6.54-.557-3.409-3.421-4.342-6.944-6.439-4.581-2.718-8.511-6.666-12.204-8.482-3.038-1.493-11.172-.675-11.172-.675Z"></path><path fill="#a9d2fc" d="M624.01 514.289c-2.244.368-9.453 2.151-9.453 2.151s-2.673 7.476 1.542 8.799c8.183 2.569 15.154-2.92 11.937-4.77-2.162-1.228-4.291-2.63-4.027-6.18Z" class="colorfcd1a9 svgShape"></path><path fill="#0c2340" d="M634.283 539.659c-3.365-.27-18.322-6.395-18.322-6.395a19.442 19.442 0 0 1-5.021-3.052 10.275 10.275 0 0 0 .613 1.62c1.427 1.595 5.034 3.098 5.034 3.098s14.527 5.962 17.795 6.22c3.274.27 10.528-.955 11.121-6.54-.02-.115-.064-.219-.084-.336-1.541 4.596-8.056 5.637-11.136 5.385Z" class="color131147 svgShape"></path><path fill="#662e94" d="M629.425 521.576c-.606-.811-2.023-2.966-4.523-1.188-2.615 1.862-3.2 4.1-2.897 5.962.308 1.857 5.69.481 5.893.202.204-.278 1.527-4.976 1.527-4.976Z" class="color362e94 svgShape"></path><path fill="#ffffff" d="M631.894 523.896a10.978 10.978 0 0 0-4.88 4.746 1.472 1.472 0 1 1-2.661-1.262 13.85 13.85 0 0 1 6.39-6.19 1.47 1.47 0 1 1 1.151 2.706ZM636.43 526.798a10.919 10.919 0 0 0-4.869 4.744 1.476 1.476 0 0 1-2.666-1.267 13.777 13.777 0 0 1 6.385-6.191 1.474 1.474 0 1 1 1.15 2.714Z" class="colorffffff svgShape"></path><path fill="#a9d2fc" d="M617.538 367.52c7.361 27.362 12.548 48.747 12.548 70.706 0 25.116-5.83 56.227-6.097 77.276.234 6.455-7.095 11.517-10.19 5.817-.132-1.875.68-4.244.422-7.005-1.523-16.32-8.017-48.113-1.673-67.117-6.357-27.479-30.138-55.719-27.548-77.284 7.957-3.948 26.454-4.327 32.538-2.394Z" class="colorfcd1a9 svgShape"></path><path fill="#7c3eaf" d="M606.67 376.345v4.595l-3.978-2.298 3.978-2.297z" class="color423eaf svgShape"></path><path fill="url(#G)" d="M520.243 458.41c-2.008-4.205-9.501-3.406-13.326.106-1.131 1.816-1.563 5.7-1.563 5.7s-1.658 15.617-.994 18.822c.657 3.219 3.868 9.842 9.396 8.848 3.115-1.486 3.213-4.505 4.234-8.47 1.327-5.158 4.02-10.037 4.728-14.088.582-3.336-2.475-10.918-2.475-10.918Z"></path><path fill="#a9d2fc" d="M527.25 465.564c-.981-2.05-4.711-8.475-4.711-8.475s-7.927-.471-8.017 3.945c-.177 8.575 7.044 13.73 7.917 10.127.581-2.422 1.326-4.857 4.812-5.597Z" class="colorfcd1a9 svgShape"></path><path fill="#0c2340" d="M505.768 482.525c-.687-3.305 1.011-19.374 1.011-19.374a19.33 19.33 0 0 1 1.527-5.678 10.729 10.729 0 0 0-1.389 1.043c-1.131 1.816-1.563 5.7-1.563 5.7s-1.658 15.617-.994 18.822c.657 3.219 3.868 9.842 9.396 8.848.101-.053.191-.127.296-.176-4.843-.192-7.667-6.16-8.284-9.185Z" class="color131147 svgShape"></path><path fill="#662e94" d="M521.766 472.8c.61-.808 2.285-2.772-.124-4.674-2.517-1.987-4.832-1.924-6.535-1.11-1.697.815 1.131 5.597 1.456 5.712.326.12 5.203.073 5.203.073Z" class="color362e94 svgShape"></path><path fill="#ffffff" d="M520.231 475.823a10.97 10.97 0 0 0-5.924-3.354 1.474 1.474 0 0 1 .468-2.911 13.871 13.871 0 0 1 7.735 4.401 1.472 1.472 0 1 1-2.279 1.864ZM518.717 480.989a10.92 10.92 0 0 0-5.92-3.348 1.474 1.474 0 0 1 .468-2.91 13.835 13.835 0 0 1 7.735 4.393 1.474 1.474 0 0 1-2.283 1.865Z" class="colorffffff svgShape"></path><path fill="#a9d2fc" d="M571.525 437.702c-21.192 1.366-30.236 12.87-46.992 18.771-2.613.92-4.29.289-6.892 1.178-4.605 4.57 2.301 10.263 8.437 8.234 20.281-5.637 60.748-10.998 63.916-25.653ZM647.33 184.784c-.905-.905-3.134 8.21-3.085 7.386.456-7.586.22-12.516-.36-12.516-.809 0-1.87 9.707-1.87 12.268 0-2.556-.13-9.507-1.625-11.154-.513-.565-.936 8.868-.936 11.512 0-2.892-.551-11.142-1.929-10.99-1.378.154-.702 8.788-.165 11.62 0 0-4.218-5.273-4.218-3.233 0 1.29 2.543 3.76 2.543 8.969 0 3.632 1.088 3.958 1.112 5.332-1.142 19.395-3.372 39.417-6.71 47.08-1.575 3.613-11.119 17.002-25.346 25.393 0 0-.72 8.614 7.86 14.418 19.509-15.781 25.459-25.429 28.102-34.523 4.597-15.821 4.704-47.746 4.801-52.756.049-.025.099-.044.147-.07.534-4.531 2.37-18.045 1.68-18.736Z" class="colorfcd1a9 svgShape"></path><path fill="url(#H)" d="M580.079 345.359c2.08-18.95-6.863-36.828-8.5-48.666-1.036-7.468-1.784-16.215 4.985-18.322a106.57 106.57 0 0 1 15.776-3.891c11.474-2.07 14.902 1.47 19.318 8.901 5.04 8.483 9.964 17.698 12.268 26.974 1.033 4.16-10.416 13.197-9.085 31.142 10.141 15.333 14.853 49.975 17.949 77.188 1.183 8.2 7.702 17.057.25 21.302-15.277 8.703-58.669 13.494-68.032 6.48-3.975-2.978-7.308-8.781-7.42-11.363 19.65-18.31 7.105-71.284 22.491-89.745Z"></path><path fill="#a9d2fc" d="M587.252 257.565c.26-4.493 14.141 4.443 13.803 10.365-.283 4.818.569 9.673 2.372 10.294 2.096 1.514 8.33 17.51 4.587 21.247-13.047-5.34-19.602-15.928-28.751-21.873 4.748-.969 7.157-5.494 7.99-20.033Z" class="colorfcd1a9 svgShape"></path><path fill="#0e2849" d="M612.7 239.93c8.955 22.29 1.478 37.478-4.086 43.096.814-5.953-5.051-10.573-7.301-11.907 1.948-4.007 11.387-31.189 11.387-31.189Z" class="color0f0e49 svgShape"></path><path fill="#96c8fb" d="M596.569 277.252a11.128 11.128 0 0 0 5.736-.151c-1.02-1.827-1.465-5.503-1.25-9.171.338-5.922-13.543-14.857-13.803-10.365-.042.732-.09 1.42-.14 2.103l.446.098c-1.634 8.11 2.264 15.837 9.011 17.486Z" class="colorfbc096 svgShape"></path><path fill="#a9d2fc" d="m583.403 253.635 4.093-10.24h25.937v15.608c0 8.624-5.807 15.61-12.971 15.61-6.945 0-12.566-6.58-12.904-14.847l-1.808.045Z" class="colorfcd1a9 svgShape"></path><path fill="#0e2849" d="M598.761 232.514a1.732 1.732 0 0 1 .24-.004c14.151.36 15.213 10.932 14.432 12.683-4.49 1.602-7.317-1.434-10.138-1.206-1.357.112-3.422 1.822-5.706 4.745-2.455 3.147-5.13 7.218-7.45 7.096-1.006-.043-1.31-3.415-2.81-3.507-1.26-.07-2.527 1.104-2.38 3.035.193 2.6 2.65 4.176 2.29 5.429-.605 2.07-5.778-1.642-5.677-9.02.101-7.33 4.993-19.746 17.2-19.251Z" class="color0f0e49 svgShape"></path><path fill="#0e2849" d="M587.239 260.785c0 3.39 6.491 22.453 10.35 24.766-6.588 1.305-18.38-4.462-19.296-11.237-.508-6.547-3.287-32.42 13.27-40.351 1.242 1.631-8.788 15.869-8.16 18.351a27.754 27.754 0 0 0 3.836 8.471Z" class="color0f0e49 svgShape"></path><path fill="#a9d2fc" d="M577.238 281.118c-10.047-6.183-15.312-13.3-19.83-20.88-5.834-9.787-8.562-29.85-9.375-39.884-.019-.226-.005-.438-.01-.652h.002c1.35-4.359 5.48-15.766 4.927-16.57-.726-1.055-4.457 5.951-4.243 5.153 1.66-6.187 4.073-9.592 2.556-10.669-.658-.467-4.237 7.5-4.703 10.02.465-2.514 2.709-9.733 1.178-11.264-.4-.65-3.28 8.549-3.762 11.149.526-2.844 2.17-10.787.787-11.157-1.337-.359-2.96 8.248-2.96 11.395-.647 0 .399-3.286-.84-4.525-1.023-1.022-2.48 3.415-1.34 9.348.694 3.608 1.058 5.72.8 7.11.35 21.452 2.688 40.082 6.983 48.419 2.503 5.137 13.494 21.52 20.947 26.726 14.541 10.156 20.02-6.865 8.883-13.719Z" class="colorfcd1a9 svgShape"></path><g clip-path="url(#I)" fill="#f4f6f8" class="color000000 svgShape"><path fill="#fc06cf" d="M714.64 563.686v-12.269c-13.125-7.578-23.022-24.306-23.022-38.908v-49.92l31.214 18.019V468.34l-41.84-24.157v62.19c0 21.242 14.779 46.42 33.648 57.313Z" class="colorfcba06 svgShape"></path><path fill="#3e9eff" d="m680.991 444.183 10.627-6.135 41.841 24.157-10.627 6.135-41.841-24.157z" class="colorffd03e svgShape"></path><path fill="#dc00b4" d="M702.242 468.723v37.65c0 14.604 9.9 31.333 23.027 38.91l-10.629 6.134c-13.125-7.578-23.022-24.306-23.022-38.908v-49.92Z" class="colordc8b00 svgShape"></path><path d="M798.118 760.89c25.46-14.706 66.751-14.706 92.212 0 25.466 14.698 25.466 38.535 0 53.236-25.461 14.7-66.751 14.7-92.212 0-25.463-14.701-25.463-38.538 0-53.237Z" style="mix-blend-mode:multiply" fill="url(#J)"></path><path fill="#f4f6f8" d="M778.735 748.182c25.465-14.704 66.75-14.704 92.216 0 25.466 14.703 25.466 38.54 0 53.24-25.465 14.7-66.748 14.7-92.216 0-25.459-14.7-25.459-38.537 0-53.24Z" class="colorf5f5f9 svgShape"></path><path d="M824.848 793.51h56.586c10.786-10.867 11.424-24.167 1.92-35.32h-58.506Z" style="mix-blend-mode:multiply" fill="url(#K)"></path><path fill="url(#L)" d="M870.951 801.421c-25.465 14.7-66.748 14.7-92.216 0-12.73-7.352-19.098-16.986-19.098-26.62v12.704c0 9.634 6.368 19.274 19.098 26.62 25.468 14.7 66.75 14.7 92.216 0 12.734-7.346 19.1-16.986 19.1-26.62v-12.703c0 9.633-6.366 19.267-19.1 26.62Z"></path><path fill="#3e9eff" d="M801.935 748.87c12.652-7.303 33.169-7.303 45.818 0 12.652 7.304 12.652 19.153 0 26.452-12.649 7.304-33.166 7.304-45.818 0-12.651-7.305-12.651-19.148 0-26.452Z" class="colorffd03e svgShape"></path><path d="M824.848 771.446h28.02c5.807-5.797 5.784-12.988-.07-18.767h-27.95Z" style="mix-blend-mode:multiply" fill="url(#M)"></path><path fill="url(#e)" d="M847.753 775.322c-12.649 7.304-33.166 7.304-45.818 0-6.324-3.654-9.486-8.436-9.486-13.226v12.706c0 4.79 3.162 9.574 9.486 13.224 12.652 7.307 33.169 7.307 45.818 0 6.325-3.65 9.488-8.435 9.488-13.224v-12.706c0 4.79-3.163 9.572-9.488 13.226Z"></path><path fill="url(#N)" d="M808.646 702.939v59.157c0 2.391 1.582 4.784 4.748 6.612 6.322 3.651 16.58 3.651 22.903 0 3.163-1.828 4.743-4.22 4.743-6.612V702.94Z"></path><path d="M808.646 715.625c0 2.393 1.582 4.785 4.748 6.612 6.322 3.652 16.58 3.652 22.903 0 3.163-1.827 4.743-4.22 4.743-6.612v-12.686h-32.394Z" style="mix-blend-mode:multiply" fill="url(#O)"></path><path fill="url(#P)" d="M963.858 509.833h-278.03c0 98.072 68.349 202.452 139.02 202.452 70.666 0 139.01-104.38 139.01-202.452Z"></path><path fill="#50a7ff" d="M726.551 453.08c54.284-31.342 142.304-31.342 196.589.003 54.288 31.341 54.288 82.16.002 113.504-54.284 31.34-142.307 31.34-196.591 0-54.293-31.344-54.293-82.163 0-113.506Z" class="colorffe950 svgShape"></path><path fill="url(#Q)" d="M734.396 457.614c49.955-28.842 130.944-28.842 180.894 0 49.958 28.839 49.96 75.602.003 104.441-49.951 28.84-130.94 28.84-180.895 0-49.955-28.842-49.955-75.602-.002-104.44Z"></path><path fill="#dc00b4" d="m948.699 687.796 1.335-7.063s8.891-8.588 8.891-14.457v-62.19l10.631-6.136v62.191c0 9.962-3.268 17.013-8.665 20.592h.02Z" class="colordc8b00 svgShape"></path><path fill="#fc06cf" d="M925.277 684.736c18.869 10.893 33.648 2.785 33.648-18.46v-62.19l-41.84-24.159v12.269l31.218 18.025v49.92c0 14.604-9.901 19.904-23.026 12.324Z" class="colorfcba06 svgShape"></path><path fill="#3e9eff" d="m917.084 579.927 10.627-6.133 41.845 24.156-10.631 6.136-41.841-24.159zM946.306 669.728c-3.516 6.898-11.395 8.298-21.03 2.737l10.627-6.137a22.997 22.997 0 0 0 10.403 3.4Z" class="colorffd03e svgShape"></path></g><path d="M1002.043 511.54h58.983a10.964 10.964 0 0 0 .007-6.165h-58.99Z" style="mix-blend-mode:multiply" fill="url(#R)"></path><path fill="url(#S)" d="M1002.043 378.702c14.214-14.211 33.42-7.481 46.584-15.958 12.779-8.231 17.265-23.471 43.428-28.733-15.055 9.353-23.463 33.206-41.674 51.416-15.51 15.51-36.018 12.542-48.338 28.135Z"></path><path fill="url(#T)" d="M996.682 373.732v134.711a2.662 2.662 0 0 0 1.57 2.19 8.377 8.377 0 0 0 7.583 0 2.662 2.662 0 0 0 1.57-2.19V373.732Z"></path><path fill="#857dfb" d="M1005.835 371.543a8.384 8.384 0 0 0-7.583 0 2.312 2.312 0 0 0 0 4.379 8.384 8.384 0 0 0 7.583 0 2.312 2.312 0 0 0 0-4.38Z" class="color807dfb svgShape"></path><path d="m303.057 918.916-5.298-3.06c-6.406-3.7-6.408-9.696 0-13.395 6.406-3.7 16.794-3.7 23.2 0l5.3 3.059v.002l57.14-32.99-57.143-32.991h.002l5.3-3.061c6.406-3.698 6.406-9.695 0-13.394-6.407-3.699-16.794-3.699-23.2 0l-5.301 3.06v.001l-57.14-32.99-57.141 32.991-5.3-3.06c-6.406-3.699-16.795-3.699-23.201 0-6.405 3.7-6.405 9.696 0 13.395l5.301 3.06-57.141 32.988 57.143 32.993-5.3 3.057c-6.408 3.7-6.408 9.695-.002 13.396 6.409 3.7 16.794 3.698 23.202 0l5.298-3.06 46.45 32.99h10.691l57.142-32.99Z" style="mix-blend-mode:multiply" fill="url(#f)"></path><path d="m1145.749 1120.977-5.302-3.06 57.142-32.988-137.481-79.375-57.14 32.989 5.298 3.06c6.406 3.698 6.408 9.695 0 13.395-6.406 3.699-16.793 3.699-23.2 0l-5.3-3.06-57.14 32.99 46.45 32.99h10.69l5.3-3.06c6.407-3.698 16.794-3.698 23.2 0 6.408 3.7 6.406 9.697 0 13.394l-5.298 3.06 46.448 32.992h10.692l57.14-32.992 5.301 3.06c6.406 3.7 16.793 3.7 23.2 0 6.404-3.698 6.406-9.696 0-13.395Z" style="mix-blend-mode:multiply" fill="url(#U)"></path><path fill="#7c3eaf" d="M325.666 829.71h.005v-6.09c-.003 2.421-1.604 4.841-4.804 6.688l-5.3 3.06h-.001l5.343 3.086c3.205-1.864 4.79-4.306 4.757-6.743Z" class="color423eaf svgShape"></path><path fill="#5a52cc" d="M149.584 830.312c-3.196-1.846-4.796-4.264-4.803-6.683v6.082h.006c-.034 2.437 1.549 4.88 4.753 6.745l5.345-3.085ZM149.587 902.409l5.3-3.057-57.143-32.992v6.172l51.798 29.906.045-.029Z" class="color5652cc svgShape"></path><path fill="#857dfb" d="m292.366 912.745-5.298-3.061c-6.406-3.7-6.408-9.696 0-13.395 6.407-3.699 16.794-3.699 23.2 0l5.3 3.06v.001l57.141-32.99-57.143-32.991h.002l5.299-3.061c6.406-3.697 6.406-9.694 0-13.394-6.406-3.699-16.793-3.699-23.2 0l-5.301 3.06v.001l-57.14-32.99-57.141 32.991-5.3-3.059c-6.406-3.7-16.795-3.7-23.201 0-6.405 3.698-6.405 9.695 0 13.395l5.301 3.059-57.141 32.989 57.143 32.992-5.3 3.057c-6.408 3.701-6.408 9.695-.001 13.397 6.408 3.699 16.793 3.697 23.201 0l5.298-3.061 57.141 32.99 57.142-32.99Z" class="color807dfb svgShape"></path><path fill="url(#V)" d="M172.787 915.806c-6.408 3.697-16.793 3.699-23.201 0-3.178-1.836-4.775-4.236-4.8-6.64v6.055c-.026 2.443 1.57 4.891 4.8 6.757 6.408 3.7 16.793 3.697 23.201 0l5.298-3.061v-6.172Z"></path><path fill="#5a52cc" d="M178.085 912.745v6.172l57.141 32.99v-6.172l-57.141-32.99z" class="color5652cc svgShape"></path><path fill="#7c3eaf" d="M292.366 918.917v-6.171l-57.14 32.989v6.172l57.142-32.99h-.002z" class="color423eaf svgShape"></path><path fill="url(#t)" d="M310.268 896.29c-6.406-3.7-16.793-3.7-23.2 0-4.584 2.646-5.87 6.465-3.894 9.781a10.526 10.526 0 0 1 3.894-3.61c6.407-3.699 16.794-3.699 23.2 0l5.298 3.059v-6.173Z"></path><path fill="#7c3eaf" d="M315.568 899.35v-.002l-.002-.001v6.173l.002.001v.001l57.141-32.99v-6.172l-57.141 32.99z" class="color423eaf svgShape"></path><path fill="#3e9eff" d="m1135.058 1114.805-5.302-3.059 57.142-32.989-137.48-79.375-57.14 32.99 5.297 3.06c6.406 3.698 6.408 9.695 0 13.394-6.406 3.7-16.793 3.7-23.2 0l-5.299-3.06-57.142 32.99 57.142 32.99 5.3-3.059c6.406-3.7 16.793-3.7 23.199 0 6.408 3.7 6.406 9.696 0 13.394l-5.298 3.06 57.14 32.991 57.14-32.991 5.301 3.059c6.407 3.7 16.793 3.7 23.2 0 6.404-3.698 6.406-9.696 0-13.395Z" class="colorffd03e svgShape"></path><path fill="#fc06cf" d="M997.575 1041.604a10.545 10.545 0 0 1 3.894 3.611c1.977-3.316.69-7.137-3.894-9.783l-5.297-3.06v6.17h.003l-.003.001Z" class="colorfcba06 svgShape"></path><path fill="#e100b8" d="m1186.898 1078.757-57.142 32.989 5.302 3.06c.015.008.028.018.043.027l51.797-29.903-.003-.002h.003Z" class="colore19100 svgShape"></path><path fill="#fc06cf" d="M911.938 1078.757h-.004v6.171l57.142 32.99v-6.172l-57.138-32.989z" class="colorfcba06 svgShape"></path><path fill="url(#W)" d="M997.575 1108.687c-6.406-3.7-16.793-3.7-23.2 0l-5.299 3.059v6.172l5.3-3.059c6.406-3.699 16.793-3.699 23.199 0a10.605 10.605 0 0 1 3.902 3.597c1.965-3.312.677-7.126-3.902-9.769Z"></path><path fill="#fc06cf" d="M992.281 1125.143h-.003v6.17l57.138 32.991v-6.172l-57.135-32.989z" class="colorfcba06 svgShape"></path><path fill="#e100b8" d="M1049.417 1158.132h-.001v6.172h.001l57.14-32.991v-6.172l-57.14 32.991z" class="colore19100 svgShape"></path><path fill="url(#X)" d="M1139.855 1121.59c-.038 2.395-1.633 4.783-4.797 6.61-6.407 3.7-16.793 3.7-23.2 0l-5.301-3.06v6.173l5.301 3.059c6.407 3.7 16.793 3.7 23.2 0 3.165-1.827 4.76-4.216 4.797-6.612h.005V1121.589Z"></path><path d="M621.164 583.974c-6.091-3.516-14.189-5.135-22.141-4.898h-12.468v2.042a33.016 33.016 0 0 0-6.596 2.856c-11.337 6.595-11.272 17.278.138 23.871a33.032 33.032 0 0 0 6.458 2.799v2.134h14.954c7.192-.12 14.318-1.752 19.791-4.93 11.34-6.596 11.282-17.279-.136-23.874Z" style="mix-blend-mode:multiply" fill="url(#g)"></path><path fill="url(#h)" d="M567.254 607.856c-5.744-3.317-8.615-7.67-8.603-12.017l.026-9.91c-.011 4.35 2.855 8.702 8.6 12.021 11.418 6.589 29.864 6.589 41.203.003 5.635-3.278 8.456-7.56 8.47-11.854l-.027 9.908c-.011 4.292-2.831 8.574-8.465 11.852-11.34 6.592-29.789 6.592-41.204-.003Z"></path><path fill="#f6f8fb" d="M567.277 597.95c-11.413-6.59-11.476-17.278-.137-23.867 11.342-6.591 29.795-6.591 41.207 0 11.419 6.589 11.472 17.277.133 23.87-11.34 6.586-29.785 6.586-41.203-.003Z" class="colorf6f6fb svgShape"></path><path fill="#bbd0e6" d="m602.761 584.658-21.561 1.097.67-4.847h-5.957l-1.617 8.834 28.465-1.644v-3.44z" class="colorbbc0e6 svgShape"></path><path d="M717.98 1020.252c-6.092-3.516-14.19-5.136-22.142-4.899h-12.467v2.042a33.019 33.019 0 0 0-6.596 2.857c-11.338 6.595-11.272 17.278.137 23.87a33.014 33.014 0 0 0 6.459 2.8v2.133h14.954c7.191-.12 14.318-1.751 19.79-4.93 11.34-6.595 11.282-17.278-.136-23.873Z" style="mix-blend-mode:multiply" fill="url(#Y)"></path><path fill="url(#Z)" d="M664.07 1044.134c-5.745-3.318-8.616-7.67-8.603-12.017l.025-9.911c-.01 4.351 2.856 8.703 8.6 12.022 11.419 6.588 29.864 6.588 41.203.003 5.636-3.279 8.456-7.56 8.47-11.854l-.026 9.908c-.011 4.292-2.832 8.573-8.465 11.852-11.34 6.592-29.79 6.592-41.205-.003Z"></path><path fill="#f6f8fb" d="M664.093 1034.228c-11.413-6.59-11.477-17.278-.138-23.867 11.343-6.592 29.795-6.592 41.207 0 11.419 6.589 11.473 17.277.133 23.87-11.339 6.585-29.784 6.585-41.202-.003Z" class="colorf6f6fb svgShape"></path><path fill="#bbd0e6" d="m699.577 1020.936-21.561 1.097.67-4.847h-5.957l-1.618 8.834 28.466-1.644v-3.44z" class="colorbbc0e6 svgShape"></path><path style="mix-blend-mode:multiply" fill="url(#aa)" d="M366.744 720.871h.004l-23.049-13.31 14.801-16.772-.006.002.002-.002h-20.745l-7.274 8.242-1.034.304-23.051-13.311 5.099 18.593-29.048 8.545 32.201 2.948.18.658-15.826 17.933h20.746l14.803-16.773 32.205 2.947-.008-.004z"></path><path fill="#fc06cf" d="M285.647 673.231v12.793l5.1 18.595v-12.794l-5.1-18.594z" class="colorfcba06 svgShape"></path><path fill="#e100b8" d="M337.755 677.996v12.797l-14.803 16.77v-12.792l14.803-16.775z" class="colore19100 svgShape"></path><path fill="#fc06cf" d="M313.802 705.136v12.795l32.205 2.944v-12.793l-32.205-2.946z" class="colorfcba06 svgShape"></path><path fill="#e100b8" d="M261.699 700.369v12.793l32.201 2.948v-12.793l-32.201-2.948zM313.802 705.136v12.795l-14.803 16.77v-12.792l14.803-16.773z" class="colore19100 svgShape"></path><path fill="#fc06cf" d="M298.999 721.909v12.792L293.9 716.11v-12.793l5.099 18.592z" class="colorfcba06 svgShape"></path><path fill="#3e9eff" d="m337.755 677.996-14.803 16.775 23.055 13.311-32.205-2.946-14.803 16.773-5.099-18.592-32.201-2.948 29.048-8.544-5.1-18.594 23.052 13.312 29.056-8.547z" class="colorffd03e svgShape"></path><path d="M1247.713 831.11c-8.993-5.19-20.949-7.58-32.687-7.233h-27.222v3.018a48.732 48.732 0 0 0-9.738 4.216c-16.741 9.735-16.645 25.513.201 35.246a49.007 49.007 0 0 0 9.537 4.131v3.153h30.89c10.62-.18 21.142-2.59 29.22-7.282 16.742-9.735 16.66-25.513-.201-35.248Z" style="mix-blend-mode:multiply" fill="url(#ab)"></path><path fill="url(#i)" d="M1159.306 849.93c-8.478-4.898-12.722-11.326-12.7-17.744l.037-8.222c-.016 6.426 4.215 12.852 12.699 17.75 16.858 9.73 44.092 9.73 60.835.004 8.322-4.84 12.486-11.163 12.506-17.5l-.04 8.215c-.018 6.338-4.182 12.661-12.5 17.5-16.744 9.734-43.981 9.734-60.837-.003Z"></path><path fill="url(#ac)" d="M1159.306 858.147c-8.478-4.898-12.722-11.326-12.7-17.744l.037-8.221c-.016 6.424 4.215 12.85 12.699 17.748 16.858 9.731 44.092 9.731 60.835.006 8.322-4.842 12.486-11.165 12.506-17.503l-.04 8.218c-.018 6.337-4.182 12.659-12.5 17.498-16.744 9.734-43.981 9.734-60.837-.002Z"></path><path fill="url(#ad)" d="M1159.306 866.363c-8.478-4.898-12.722-11.326-12.7-17.744l.037-8.222c-.016 6.426 4.215 12.852 12.699 17.75 16.858 9.73 44.092 9.73 60.835.004 8.322-4.841 12.486-11.163 12.506-17.5l-.04 8.216c-.018 6.337-4.182 12.66-12.5 17.5-16.744 9.734-43.981 9.734-60.837-.004Z"></path><path fill="#f1f3f6" d="M1159.342 841.714c-16.853-9.73-16.945-25.513-.204-35.238 16.748-9.734 43.992-9.734 60.842 0 16.86 9.725 16.938 25.508.197 35.242-16.743 9.726-43.977 9.726-60.835-.004Z" class="colorf1f1f6 svgShape"></path><path fill="#b9d0e8" d="m1213.727 820.872-34.447 1.753 1.067-7.742h-9.516l-2.585 14.112 45.481-2.625v-5.498z" class="colorb9bfe8 svgShape"></path><path fill="#5a52cc" d="M1205.892 204.886c0-27.229-19.118-60.334-42.694-73.949-23.58-13.612-42.694-2.578-42.694 24.65 0 27.227 19.114 60.335 42.694 73.948 23.576 13.613 42.694 2.577 42.694-24.65Z" class="color5652cc svgShape"></path><path fill="url(#ae)" d="m1142.92 122.228-9.886 5.706c7.726-4.444 18.385-3.795 30.164 3.003 23.576 13.615 42.694 46.72 42.694 73.949 0 13.354-4.62 22.784-12.09 27.35l8.656-4.997-.026-.046c8.325-4.19 13.555-13.933 13.555-28.136 0-27.229-19.113-60.334-42.694-73.949-11.884-6.86-22.622-7.446-30.364-2.867Zm-10.098 5.83.007.013c.054-.032.098-.076.156-.108Zm60.105 104.685c-.194.105-.399.181-.595.279l.026.047Z"></path><path fill="#f6f8fb" d="M1132.009 159.9c0-9.993 3.339-17.136 8.762-20.829 5.911-2.854 13.767-2.175 22.427 2.822 18.336 10.588 33.205 36.34 33.205 57.514 0 9.994-3.341 17.137-8.765 20.83-5.908 2.854-13.767 2.174-22.424-2.824-18.339-10.588-33.205-36.338-33.205-57.514Z" class="colorf6f6fb svgShape"></path><path fill="#662e94" d="M1140.771 139.071c-5.423 3.693-8.762 10.836-8.762 20.828 0 21.176 14.866 46.926 33.205 57.514 8.657 4.998 16.516 5.678 22.424 2.824-6.069 4.132-14.757 3.933-24.44-1.658-18.343-10.588-33.206-36.338-33.206-57.514 0-11.179 4.17-18.803 10.78-21.994Z" class="color362e94 svgShape"></path><path fill="url(#af)" d="m1145.42 187.73 18.631-10.762v-23.212c0-1.474 1.037-2.07 2.311-1.333a5.095 5.095 0 0 1 2.304 3.997v24.316a2.262 2.262 0 0 1-.174.915 1.237 1.237 0 0 1-.501.578l-19.31 11.152c-.899.52-2.362-.322-3.262-1.885-.901-1.56-.901-3.248 0-3.767Z"></path><path d="M531.382 805.97a7.087 7.087 0 0 1 2.483-1.632h10.94l4.571-10.005-4.121-.639a11.419 11.419 0 0 1-3.852-1.274 3.924 3.924 0 0 1-2.291-3.391 25.905 25.905 0 0 0-.01-3.985c-.088-2.856 3.405-4.253 6.061-4.669l4.132-.64-4.687-9.998H533.68a8.578 8.578 0 0 1-1.04-.5 6.787 6.787 0 0 1-1.47-1.134 45.117 45.117 0 0 0-3.458-3.455c-2.544-2.458-.724-4.682 1.217-5.811l3.008-1.75-12.68-7.321-3.01 1.749a12.465 12.465 0 0 1-10.025.726 95.701 95.701 0 0 0-5.98-1.994 10.264 10.264 0 0 1-1.959-.847c-2.434-1.406-2.56-3.284-1.99-4.548l1.094-2.381-17.285-2.682-1.092 2.386c-.7 1.543-3.1 3.577-8.03 3.54a135.793 135.793 0 0 0-6.88-.008 11.442 11.442 0 0 1-5.872-1.309 5.348 5.348 0 0 1-2.214-2.219l-1.112-2.39-17.255 2.682 1.12 2.381c.72 1.545.404 3.998-3.885 5.395q-3.042.907-5.957 1.997a12.52 12.52 0 0 1-10.03-.727l-3.035-1.751-12.598 7.322 3.027 1.75c1.955 1.128 3.8 3.352 1.291 5.809a42.311 42.311 0 0 0-3.426 3.46c-2.391 2.486-6.621 2.68-9.285 2.269l-4.137-.639-4.574 9.998 4.128.643a11.44 11.44 0 0 1 3.85 1.275 3.932 3.932 0 0 1 2.293 3.39 25.07 25.07 0 0 0 .005 3.98 3.348 3.348 0 0 1-1.137 2.58h-28.181v12.735h34.744a7.843 7.843 0 0 1 1.028.495 6.75 6.75 0 0 1 1.472 1.132 44.092 44.092 0 0 0 3.471 3.456 4.448 4.448 0 0 1 1.004 1.372h-16.366v13.509h24.754v-.551l2.064-1.199a12.49 12.49 0 0 1 10.033-.725c.76.282 1.53.549 2.306.816v11.636h23.662v-.023l.145.023 1.094-2.386a3.338 3.338 0 0 1 .296-.523v2.91h23.812l17.253-2.677-1.117-2.386c-.646-1.38-.45-3.487 2.67-4.915h20.235l12.6-7.324-3.023-1.742c-1.96-1.13-3.805-3.36-1.294-5.815a42.439 42.439 0 0 0 3.423-3.451Zm-40.597-5.646c-12.684 7.376-33.34 7.382-46.118.006-12.773-7.377-12.835-19.342-.15-26.717 12.7-7.379 33.349-7.374 46.125 0 12.776 7.378 12.841 19.335.143 26.711Z" style="mix-blend-mode:multiply" fill="url(#ag)"></path><path fill="url(#j)" d="M466.686 752.218c-12.684-7.325-33.192-7.33-45.799 0-11.215 6.516-12.389 16.644-3.568 23.958a26.46 26.46 0 0 1 3.568-2.468c12.607-7.328 33.115-7.325 45.8 0a26.675 26.675 0 0 1 3.714 2.564c8.877-7.32 7.63-17.505-3.715-24.054Z"></path><path fill="#bbcee2" d="M472.546 723.296a3.141 3.141 0 0 0-.284 1.28l-.06 21.559a3.106 3.106 0 0 1 .283-1.283l1.09-2.381.062-21.559ZM415.017 723.296l-1.117-2.384-.062 21.559 1.12 2.381a3.187 3.187 0 0 1 .3 1.339l.06-21.56a3.094 3.094 0 0 0-.301-1.335ZM505.18 737.275c-1.256.732-2.462 1.924-2.469 3.341l-.06 21.559c.005-1.414 1.21-2.608 2.47-3.338l3.006-1.75.06-21.558Z" class="colorbbbfe2 svgShape"></path><path fill="#cee1f4" d="m382.538 737.278-3.025-1.749-.063 21.559 3.029 1.75c1.279.737 2.51 1.943 2.508 3.379l.06-21.559c.004-1.434-1.229-2.643-2.51-3.38Z" class="colorced2f4 svgShape"></path><path fill="#bbcee2" d="M521.412 758.816c-2.619.41-6.053 1.776-6.058 4.554l-.065 21.559c.01-2.78 3.442-4.145 6.066-4.554l4.129-.64.06-21.56Z" class="colorbbbfe2 svgShape"></path><path fill="#242f3c" d="m515.435 765.64-.06 21.56c0 .608-.027 1.22-.073 1.829l.063-21.559c.045-.61.068-1.217.07-1.83Z" class="color242d3c svgShape"></path><path fill="#cee1f4" d="m372.668 767.05.01-3.566a3.923 3.923 0 0 0-2.29-3.39 11.534 11.534 0 0 0-3.85-1.278l-4.128-.638-.06 21.557 4.126.643a11.417 11.417 0 0 1 3.85 1.275 4.207 4.207 0 0 1 2.225 2.727l-.008 2.518c0 .71.026 1.42.08 2.124l.063-21.558c-.013-.137-.008-.278-.018-.414Z" class="colorced2f4 svgShape"></path><path fill="#242f3c" d="m372.687 767.574-.063 21.558v-.11l.062-21.558.001.11Z" class="color242d3c svgShape"></path><path fill="#bbcee2" d="m525.628 772.774-.062 21.559-4.572 10.005.06-21.56 4.574-10.004z" class="colorbbbfe2 svgShape"></path><path fill="#cee1f4" d="m367.178 782.778-.062 21.56-4.679-10 .061-21.562 4.68 10.002z" class="colorced2f4 svgShape"></path><path fill="url(#ah)" d="M516.922 782.138c-2.66-.412-6.894-.22-9.29 2.275a41.92 41.92 0 0 1-3.424 3.448 3.434 3.434 0 0 0-1.216 2.428l-.06 21.56a3.425 3.425 0 0 1 1.215-2.428 42.229 42.229 0 0 0 3.427-3.451c2.39-2.494 6.627-2.684 9.287-2.274l4.133.642.06-21.56Z"></path><path fill="url(#ai)" d="M384.082 787.861a44.015 44.015 0 0 1-3.472-3.455 6.62 6.62 0 0 0-1.47-1.13 12.681 12.681 0 0 0-7.848-1.138l-4.114.64-.062 21.56 4.117-.642a12.712 12.712 0 0 1 7.845 1.137 6.914 6.914 0 0 1 1.475 1.132 43.479 43.479 0 0 0 3.467 3.456 3.459 3.459 0 0 1 1.247 2.47l.06-21.559a3.48 3.48 0 0 0-1.245-2.471Z"></path><path fill="#bbcee2" d="m508.526 795.421-.062 21.557-12.597 7.324.061-21.559 12.598-7.322z" class="colorbbbfe2 svgShape"></path><path fill="#cee1f4" d="m392.531 802.743-.062 21.559-12.681-7.324.063-21.557 12.68 7.322z" class="colorced2f4 svgShape"></path><path fill="url(#aj)" d="M492.893 800.99a12.518 12.518 0 0 0-10.03-.715 96.118 96.118 0 0 1-5.957 1.993c-3.19 1.038-4.183 2.66-4.186 4.057l-.061 21.56c.003-1.397 1-3.02 4.186-4.058q3.05-.912 5.96-1.996a12.505 12.505 0 0 1 10.026.72l3.036 1.75.06-21.558Z"></path><path fill="url(#ak)" d="M413.508 803.114a10.478 10.478 0 0 0-1.968-.849 93.718 93.718 0 0 1-5.97-1.997 12.485 12.485 0 0 0-10.031.724l-3.008 1.751-.062 21.559 3.01-1.75a12.483 12.483 0 0 1 10.03-.725q2.921 1.086 5.97 1.997a9.926 9.926 0 0 1 1.967.85c1.7.983 2.276 2.192 2.271 3.263l.063-21.558c.003-1.071-.571-2.282-2.272-3.265Z"></path><path fill="#bbcee2" d="m474.14 810.044-.062 21.559-17.255 2.676.063-21.558 17.254-2.677z" class="colorbbbfe2 svgShape"></path><path fill="url(#al)" d="M455.766 810.333a5.296 5.296 0 0 0-2.213-2.225 11.444 11.444 0 0 0-5.868-1.307c-2.283.056-4.584.056-6.877-.007-4.927-.032-7.321 2-8.032 3.539l-1.091 2.388-.06 21.558 1.09-2.386c.708-1.543 3.107-3.573 8.033-3.541 2.293.063 4.592.063 6.875.009a11.433 11.433 0 0 1 5.87 1.307 5.28 5.28 0 0 1 2.213 2.225l1.117 2.386.063-21.558Z"></path><path fill="#f0f2f5" d="m505.502 793.677 3.024 1.744-12.598 7.322-3.035-1.752a12.518 12.518 0 0 0-10.03-.716 96.118 96.118 0 0 1-5.957 1.993c-4.289 1.398-4.608 3.85-3.887 5.39l1.12 2.386-17.253 2.677-1.12-2.388a5.296 5.296 0 0 0-2.213-2.225 11.444 11.444 0 0 0-5.868-1.307c-2.283.056-4.584.056-6.877-.007-4.927-.032-7.321 2-8.032 3.539l-1.091 2.388-17.284-2.677 1.096-2.392c.575-1.26.44-3.132-1.989-4.538a10.478 10.478 0 0 0-1.968-.849 93.718 93.718 0 0 1-5.97-1.997 12.485 12.485 0 0 0-10.031.724l-3.008 1.751-12.68-7.322 3.008-1.75c1.94-1.127 3.763-3.35 1.221-5.81a44.26 44.26 0 0 1-3.47-3.455 6.782 6.782 0 0 0-1.47-1.135 12.71 12.71 0 0 0-7.848-1.133l-4.114.64-4.68-10.002 4.12-.639c2.658-.415 6.15-1.812 6.068-4.673a25.426 25.426 0 0 1-.008-3.98 3.923 3.923 0 0 0-2.29-3.39 11.534 11.534 0 0 0-3.85-1.278l-4.128-.638 4.573-10.001 4.138.64c2.658.41 6.89.214 9.283-2.268a43.584 43.584 0 0 1 3.425-3.461c2.51-2.456.664-4.683-1.291-5.81l-3.025-1.749 12.6-7.318 3.032 1.749a12.52 12.52 0 0 0 10.029.724q2.914-1.087 5.959-1.996c4.29-1.395 4.606-3.851 3.884-5.392l-1.117-2.384 17.253-2.682 1.112 2.39a5.344 5.344 0 0 0 2.215 2.22 11.444 11.444 0 0 0 5.874 1.308c2.28-.052 4.583-.052 6.88.007 4.927.035 7.33-1.998 8.028-3.539l1.092-2.388 17.283 2.684-1.091 2.384c-.572 1.262-.448 3.14 1.986 4.546a10.346 10.346 0 0 0 1.96.846q3.051.907 5.979 1.996a12.481 12.481 0 0 0 10.027-.727l3.011-1.751 12.679 7.323-3.008 1.746c-1.942 1.13-3.762 3.357-1.217 5.815a44.828 44.828 0 0 1 3.457 3.454 6.779 6.779 0 0 0 1.472 1.135 12.73 12.73 0 0 0 7.853 1.135l4.114-.637 4.685 9.998-4.132.641c-2.654.416-6.147 1.813-6.056 4.67a26.272 26.272 0 0 1 .01 3.984 3.908 3.908 0 0 0 2.288 3.39 11.438 11.438 0 0 0 3.853 1.277l4.121.637-4.574 10.004-4.132-.64c-2.66-.412-6.894-.22-9.29 2.275a41.92 41.92 0 0 1-3.424 3.448c-2.51 2.458-.664 4.683 1.294 5.816Zm-84.582-14.905c12.774 7.376 33.43 7.368 46.118-.003 12.698-7.382 12.628-19.338-.145-26.714-12.775-7.375-33.423-7.38-46.125 0-12.682 7.374-12.625 19.341.152 26.717Z" class="colorf0f0f5 svgShape"></path><path fill="#cee1f4" d="m431.685 812.721-.059 21.558-17.285-2.676.06-21.559 17.284 2.677z" class="colorced2f4 svgShape"></path><path fill="#e0e5eb" d="M476.218 748.408c-17.984-10.38-47.045-10.387-64.921 0-8.508 4.946-12.933 11.356-13.302 17.834.347 6.559 4.845 13.065 13.514 18.067 17.983 10.384 47.048 10.371 64.907-.006 8.52-4.95 12.947-11.358 13.313-17.836-.35-6.556-4.847-13.056-13.511-18.06Zm-9.386 30.36c-12.6 7.32-33.108 7.329-45.798.004-5.999-3.466-9.171-7.954-9.517-12.494.357-4.486 3.476-8.907 9.37-12.33 12.607-7.328 33.115-7.325 45.8 0 6.005 3.464 9.176 7.946 9.524 12.488-.358 4.484-3.482 8.905-9.379 12.333Z" class="colore0e0eb svgShape"></path><path fill="url(#am)" d="M411.297 748.408c17.876-10.387 46.937-10.38 64.92 0 8.659 5.002 13.161 11.495 13.512 18.045.414-7.125-4.089-14.333-13.511-19.774-17.984-10.38-47.045-10.387-64.921 0-9.261 5.382-13.683 12.499-13.302 19.55.375-6.476 4.799-12.878 13.302-17.821Z"></path><path d="m289.765 833.623 7.858.007 8.45-4.877c.008 0 .047-6.898.047-6.898-3.387.133-10.076-.343-13.52-2.017l-.234.135v.002l-43.451-25.087h-1.109c-.001 1.943-.794 6.286-4.083 8.183a6.701 6.701 0 0 1-2.41.826c-1.687.33-3.349.727-4.956 1.192a.801.801 0 0 1-.21-.036q-2.42-.692-4.947-1.188c-5.322-.801-6.415-6.661-6.402-9.008h-3.206l-10.61 6.126a6.907 6.907 0 0 1-2.187 2.056 6.805 6.805 0 0 1-2.409.824c-.229.045-.445.115-.674.162l-23.71 13.69c-.076.123-.166.243-.239.367a3.325 3.325 0 0 1-1.434 1.391c-3.287 1.898-10.788 2.345-14.156 2.345l-.02 6.9c4.053-.002 14.167.649 15.529 3.734a18.8 18.8 0 0 0 2.035 2.87c2.773 2.745-3.61 7.348-6.493 9.013l8.398 4.879c.291-.17.652-.363 1.043-.568l-.983.568 24.821.025a11.223 11.223 0 0 1 2.035 6.443l46.838.036 11.67-6.486 15.335.014 8.456-4.877c-2.87-1.664-9.195-6.267-6.398-9.011a21.269 21.269 0 0 0 1.326-1.735Z" style="mix-blend-mode:multiply" fill="url(#an)"></path><path fill="#f7f9fc" d="M184.529 793.496c-.007-2.679-4.729-6.055-7.091-7.427l.057 20.132c2.362 1.372 7.087 4.744 7.092 7.425Z" class="colorf7f7fc svgShape"></path><path fill="#bdd0e4" d="m260.179 806.2-.057-20.13c-2.389 1.377-7.184 4.779-7.175 7.463l.054 20.133c-.005-2.687 4.79-6.086 7.178-7.465Z" class="colorbdc1e4 svgShape"></path><path fill="url(#ao)" d="M203.849 816.625c8.279-4.78 21.638-4.78 29.859-.002 4.083 2.373 6.129 5.478 6.141 8.59l-.06-20.131c-.01-3.111-2.055-6.218-6.138-8.59-8.222-4.779-21.581-4.779-29.86 0-4.16 2.402-6.237 5.555-6.228 8.703l.055 20.13c-.006-3.146 2.072-6.299 6.231-8.7Z"></path><path fill="#d0e3f6" d="m185.622 829.084-8.398-4.881.058 20.132 8.4 4.879-.06-20.13z" class="colord0d4f6 svgShape"></path><path fill="#a3b9d0" d="m259.967 844.335-.057-20.132-8.456 4.881.06 20.13 8.453-4.879z" class="colora3a9d0 svgShape"></path><path fill="url(#ap)" d="M201.26 845.483a58.09 58.09 0 0 0 4.944 1.186c5.252.789 6.385 6.513 6.392 8.921l-.056-20.13c-.009-2.408-1.142-8.13-6.392-8.92a57.62 57.62 0 0 1-4.945-1.189c-4.735-1.613-12.7 2.065-15.581 3.733l.06 20.13c2.878-1.668 10.844-5.346 15.578-3.731Z"></path><path fill="url(#aq)" d="M228.622 847.484a6.76 6.76 0 0 1 2.395-.815c1.69-.329 3.33-.723 4.947-1.183 4.76-1.618 12.686 2.06 15.55 3.728l-.06-20.13c-2.861-1.666-10.786-5.346-15.545-3.728a60.643 60.643 0 0 1-4.95 1.183 6.806 6.806 0 0 0-2.395.816c-3.243 1.874-3.933 6.155-4.115 8.195l.059 20.129c.183-2.039.87-6.32 4.114-8.195Z"></path><path fill="#eaf1f9" d="M183.717 815.19c2.773 2.747-3.61 7.348-6.493 9.013l8.398 4.88c2.88-1.667 10.846-5.345 15.581-3.732a57.62 57.62 0 0 0 4.945 1.188c5.317.798 6.411 6.66 6.39 9.011h11.911c.182-2.04.872-6.321 4.115-8.195a6.806 6.806 0 0 1 2.396-.816 60.643 60.643 0 0 0 4.95-1.183c4.758-1.618 12.683 2.062 15.544 3.728l8.456-4.88c-2.866-1.664-9.199-6.267-6.396-9.013a20.036 20.036 0 0 0 2.07-2.87 3.319 3.319 0 0 1 1.435-1.39c3.284-1.901 10.786-2.345 14.135-2.343l.04-6.9c-4.352.172-14.168-.652-15.53-3.741a19.657 19.657 0 0 0-2.037-2.865c-2.769-2.748 3.613-7.349 6.495-9.013l-8.397-4.879c-2.884 1.663-10.85 5.344-15.579 3.731q-2.418-.692-4.946-1.188c-5.322-.8-6.415-6.661-6.402-9.007l-11.919-.006c-.003 1.944-.794 6.29-4.084 8.187a6.767 6.767 0 0 1-2.409.825c-1.687.33-3.347.725-4.956 1.19-5.489 1.182-12.677-2.07-15.54-3.732l-8.452 4.88c2.863 1.663 9.191 6.266 6.392 9.01a19.194 19.194 0 0 0-2.067 2.87 3.339 3.339 0 0 1-1.434 1.393c-3.287 1.896-10.788 2.343-14.157 2.343l-.019 6.902c4.053-.002 14.167.649 15.529 3.733a18.897 18.897 0 0 0 2.035 2.87Zm20.074-18.699c8.279-4.778 21.638-4.778 29.86 0 8.216 4.776 8.182 12.52-.097 17.297-8.267 4.777-21.637 4.771-29.852-.003-8.224-4.78-8.178-12.518.089-17.294Z" class="coloreaeef9 svgShape"></path><path fill="#cee3f8" d="M177.224 824.203c2.882-1.665 9.266-6.266 6.493-9.012a18.897 18.897 0 0 1-2.035-2.87c-1.362-3.084-11.476-3.735-15.529-3.733l.057 20.128a50.538 50.538 0 0 1 11.028 1.187Z" class="colorced3f8 svgShape"></path><path fill="#bdd0e4" d="m224.508 855.679-.059-20.129h-11.911l.058 20.132 11.912-.003z" class="colorbdc1e4 svgShape"></path><path fill="url(#ar)" d="m271.211 828.716-.057-20.128c-3.349-.002-10.851.442-14.135 2.343a3.319 3.319 0 0 0-1.436 1.39 20.036 20.036 0 0 1-2.069 2.87c-2.803 2.746 3.53 7.349 6.396 9.012l.018 5.783a49.655 49.655 0 0 1 11.283-1.27Z"></path><path d="M1516.673 746.858c-4.163-5.867-10.357-11.36-18.603-16.121-29.66-17.124-75.735-18.974-108.967-5.574l-14.2 3.362a91.77 91.77 0 0 0-11.547 5.574c-16.637 9.606-24.958 22.196-24.958 34.786 0 12.595 8.32 25.182 24.958 34.792 33.28 19.214 87.236 19.214 120.513 0 15.645-9.036 23.93-20.706 24.864-32.534.562-7.096-1.529-14.25-6.26-20.924Z" style="mix-blend-mode:multiply" fill="url(#as)"></path><path fill="#857dfb" d="m1358.721 696.085 48.709 40.36 60.258-34.786c-29.66-17.124-75.735-18.973-108.967-5.574Z" class="color807dfb svgShape"></path><path fill="#3e9eff" d="m1467.688 701.659-60.258 34.787 78.86-18.666c-4.162-5.867-10.357-11.36-18.602-16.121Z" class="colorffd03e svgShape"></path><path fill="#f6f8fb" d="m1407.43 751.761-48.709-40.36a91.742 91.742 0 0 0-11.546 5.574c-16.637 9.607-24.958 22.197-24.958 34.786 0 12.595 8.32 25.183 24.958 34.792 33.28 19.214 87.236 19.214 120.513 0 15.645-9.036 23.93-20.706 24.864-32.534.562-7.096-1.53-14.251-6.261-20.926Z" class="colorf6f6fb svgShape"></path><path fill="url(#at)" d="M1492.552 754.02c-.931 11.827-9.219 23.497-24.864 32.533-33.277 19.214-87.232 19.212-120.513 0-15.642-9.036-23.928-20.706-24.865-32.534h-.093v14.871c0 12.59 8.32 25.18 24.958 34.787 33.28 19.214 87.236 19.214 120.513 0 15.645-9.034 23.933-20.703 24.864-32.532a28.47 28.47 0 0 0 0-4.065Z"></path><path fill="#e100b8" d="m1486.291 733.093-78.861 18.668v-15.315l78.861-18.666v15.313z" class="colore19100 svgShape"></path><path fill="#5a52cc" d="m1407.43 751.761-48.709-40.36v-15.316l48.709 40.361v15.315z" class="color5652cc svgShape"></path><path d="M1489.267 738.04a37.967 37.967 0 0 0-2.976-4.947l-78.861 18.668h24.211Z" style="mix-blend-mode:multiply" fill="url(#au)"></path><path style="mix-blend-mode:multiply" fill="url(#k)" d="M366.654 614.186h129.065v9.754H366.654z"></path><path fill="#193f6f" d="m366.654 623.94-7.737-4.459v-87.165l7.737 4.463v87.161z" class="color20196f svgShape"></path><path fill="#0f2642" d="m366.654 623.94 7.735-4.459v-87.165l-7.735 4.463v87.161z" class="color110f42 svgShape"></path><path fill="url(#l)" d="m451.735 511.683-85.08-126.202s-86.388 128.048-86.962 128.98a33.913 33.913 0 0 0-5.32 17.855c0 13.636 9.013 27.264 27.027 37.672 36.04 20.804 94.468 20.804 130.503 0 18.02-10.408 27.027-24.036 27.027-37.672 0-7.027-2.412-14.049-7.195-20.633Z"></path><path fill="url(#m)" d="m441.222 460.62-74.568-110.6-74.565 110.6a30.637 30.637 0 0 0-6.309 18.082c0 11.947 7.9 23.894 23.687 33.015 31.583 18.236 82.788 18.236 114.369 0 15.79-9.12 23.692-21.068 23.692-33.015a30.708 30.708 0 0 0-6.306-18.082Z"></path><path fill="url(#n)" d="M431.73 418.493c-.43-.701-65.076-96.53-65.076-96.53s-64.649 95.829-65.078 96.53a25.342 25.342 0 0 0-3.98 13.353c0 10.206 6.744 20.409 20.228 28.192 26.97 15.574 70.69 15.574 97.66 0 13.485-7.783 20.225-17.986 20.225-28.192a25.341 25.341 0 0 0-3.98-13.353Z"></path><path style="mix-blend-mode:multiply" fill="url(#av)" d="M1312.47 1101.716h127.036v9.601H1312.47z"></path><path fill="#193f6f" d="m1312.47 1111.317-7.616-4.39v-85.793l7.616 4.392v85.791z" class="color20196f svgShape"></path><path fill="#0f2642" d="m1312.47 1111.317 7.612-4.39v-85.793l-7.612 4.392v85.791z" class="color110f42 svgShape"></path><path fill="url(#aw)" d="m1396.212 1000.825-83.742-124.217s-85.03 126.034-85.594 126.951a33.38 33.38 0 0 0-5.237 17.575c0 13.421 8.871 26.835 26.602 37.08 35.473 20.476 92.983 20.476 128.451 0 17.737-10.245 26.602-23.659 26.602-37.08 0-6.917-2.373-13.828-7.082-20.309Z"></path><path fill="url(#ax)" d="m1385.865 950.565-73.395-108.86-73.393 108.86a30.155 30.155 0 0 0-6.21 17.798c0 11.76 7.775 23.518 23.314 32.496 31.087 17.949 81.487 17.949 112.57 0 15.543-8.978 23.32-20.737 23.32-32.496a30.223 30.223 0 0 0-6.206-17.798Z"></path><path fill="url(#ay)" d="M1376.521 909.1c-.421-.69-64.051-95.012-64.051-95.012s-63.633 94.322-64.055 95.012a24.94 24.94 0 0 0-3.917 13.143c0 10.046 6.637 20.088 19.909 27.749 26.546 15.33 69.579 15.33 96.125 0 13.272-7.66 19.907-17.703 19.907-27.749a24.942 24.942 0 0 0-3.918-13.143Z"></path><path fill="#cee3f8" d="M780.387 131.845c1.166-2.334 8.752-9.724 8.752-9.724 4.086 3.112 11.088 18.284-1.945 30.539 1.945-6.809-2.237-16.241-6.807-20.815Z" class="colorced3f8 svgShape"></path><path fill="#ed00c2" d="M772.227 370.804c3.356 4.778 13.297 14.092 4.918 24.304 2.803.811 10.111 4.486 10.111 4.486 6.303-5.652 14.28-19.954-.015-37.309-5.772 3.052-15.014 8.519-15.014 8.519Z" class="colored9f00 svgShape"></path><path fill="#857dfb" d="M759.532 281.613c.875-5.398 1.022-20.28 15.903-21.3-.438-1.604-3.893-5.06-3.893-5.06-8.945.391-21.054 5.06-20.91 23.15a65.717 65.717 0 0 0 8.9 3.21ZM896.252 239.11c-2.043 2.043-7.44 10.357-22.904 13.86 1.898 4.375 8.754 15.463 8.754 15.463 4.377-1.897 18.38-17.506 20.423-22.903-2.043-2.447-6.273-6.42-6.273-6.42Z" class="color807dfb svgShape"></path><path fill="#5a52cc" d="M882.945 504.859c2.334-2.48 10.828-11.201 13.129-23.49 5.543 1.022 10.066 4.379 8.316 10.067-1.652 5.367-5.545 14.444-5.545 14.444-3.718-.365-7.73.876-15.9-1.021Z" class="color5652cc svgShape"></path><path fill="#3e9eff" d="m849.36 314.878 6.943-.778c.174 3.308-.215 10.698 12.137 15.269-3.791 3.21-13.174 7.295-13.174 7.295-3.652-4.085-5.906-13.618-5.906-21.786Z" class="colorffd03e svgShape"></path><path fill="#857dfb" d="m930.485 425.092-2.602-2.03a274.9 274.9 0 0 1 2.664-3.343c1.42-1.767 2.967-3.69 4.295-5.442l-.478-.088c-2.524-.455-5.979-1.08-4.494-5.1.836-2.269 2.963-4.804 5.87-8.136.024-.026.05-.055.071-.081-1.545-1.21-3.91-3.052-4.344-3.388a1.446 1.446 0 0 1-.404-1.417 4.22 4.22 0 0 1 .92-1.932c1.709-2.102 3.44-4.35 5.115-6.526.268-.35.54-.699.807-1.047l-.186-.132a22.419 22.419 0 0 1-3.119-2.516c-2.152-2.205.016-5.14 1.602-7.283l.183-.25a35.473 35.473 0 0 1 2.3-2.725c.413-.456.987-1.092 1.31-1.509a1.596 1.596 0 0 0-.198-.169 80.817 80.817 0 0 1-2.875-2.226c-.47-.376-.941-.752-1.416-1.123a1.42 1.42 0 0 1-.406-1.377 4.132 4.132 0 0 1 .862-1.893l7.761-9.945 2.604 2.032-6.01 7.7.14.113c.926.738 1.852 1.476 2.81 2.175a2.946 2.946 0 0 1 1.142 3.158c-.397 2.127-2.092 3.998-3.588 5.648-.602.665-1.225 1.353-1.674 1.96l-.187.255c-.248.336-.536.724-.743 1.022.028.03.057.066.094.102a20.653 20.653 0 0 0 2.858 2.292c.533.381 1.066.758 1.574 1.157.719.56.513 2.025-.455 3.27-.85 1.088-1.698 2.188-2.547 3.29-1.123 1.458-2.268 2.948-3.432 4.42l1.748 1.362 1.848 1.444c1 .785 2.033 1.596.47 3.763a4.982 4.982 0 0 1-.117.154c-.6.768-1.406 1.694-2.261 2.672a48.476 48.476 0 0 0-4.002 4.987 8.38 8.38 0 0 0 2.978.897 6.877 6.877 0 0 1 2.989.955c.636.528.515 1.805-.286 2.986-1.757 2.592-4.34 5.802-6.615 8.635a268.352 268.352 0 0 0-2.576 3.229Z" class="color807dfb svgShape"></path><path fill="#dae7f5" d="m735.49 473.988-2.806-1.742a147.32 147.32 0 0 1 1.838-2.848 60.9 60.9 0 0 0 3.191-5.22c.07-.14.116-.242.143-.31a4.148 4.148 0 0 0-1.371-.651 5.04 5.04 0 0 1-2.44-1.416c-2.015-2.513.758-6.854 2.09-8.94.176-.277.352-.55.52-.82.174-.281.406-.627.664-1.01.273-.407.785-1.165 1.057-1.662-.12-.074-.284-.155-.405-.217a6.01 6.01 0 0 1-.564-.304c-.26-.16-.559-.303-.863-.45a5.95 5.95 0 0 1-2.227-1.539 5.065 5.065 0 0 1-.898-4.536c.62-2.678 2.603-4.887 4.353-6.838a24.613 24.613 0 0 0 2.494-3.074l2.805 1.74a32.077 32.077 0 0 1-3.508 4.431 15.841 15.841 0 0 0-2.197 2.776c-.002.005-.067.412.48 1.106a4.567 4.567 0 0 0 1.531.978 10.568 10.568 0 0 1 1.043.548c.133.081.272.15.41.217a2.79 2.79 0 0 1 1.75 3.205c-.189 2.009-1.617 4.128-2.66 5.674-.177.264-.337.498-.46.695-.192.307-.387.617-.586.929a13.913 13.913 0 0 0-1.41 2.514.543.543 0 0 0 .097.165 3.698 3.698 0 0 0 1.55.785c1.378.478 4.6 1.596 1.798 7.054a67.926 67.926 0 0 1-3.717 6.124c-.586.887-1.162 1.768-1.701 2.636Zm150.06-354.701-2.807-1.742c.584-.936 1.207-1.888 1.838-2.848a60.9 60.9 0 0 0 3.191-5.22c.07-.14.116-.243.143-.311a4.147 4.147 0 0 0-1.371-.65 5.04 5.04 0 0 1-2.44-1.417c-2.015-2.512.758-6.853 2.09-8.939.176-.277.352-.55.52-.82.174-.282.406-.627.664-1.01.273-.407.785-1.165 1.057-1.662-.12-.075-.284-.156-.405-.217a6.01 6.01 0 0 1-.564-.305c-.26-.16-.559-.303-.863-.45a5.95 5.95 0 0 1-2.227-1.538 5.065 5.065 0 0 1-.898-4.536c.62-2.679 2.603-4.888 4.353-6.838a24.617 24.617 0 0 0 2.494-3.074l2.805 1.74a32.077 32.077 0 0 1-3.508 4.43 15.838 15.838 0 0 0-2.197 2.777c-.002.005-.067.412.48 1.105a4.567 4.567 0 0 0 1.531.979 10.56 10.56 0 0 1 1.043.548c.133.08.272.15.41.217a2.79 2.79 0 0 1 1.75 3.205c-.189 2.008-1.617 4.128-2.66 5.674-.177.263-.337.498-.46.695-.192.306-.387.617-.586.929a13.915 13.915 0 0 0-1.41 2.513.543.543 0 0 0 .097.165 3.698 3.698 0 0 0 1.55.785c1.378.479 4.6 1.596 1.798 7.055a67.926 67.926 0 0 1-3.717 6.123c-.586.888-1.162 1.769-1.701 2.637ZM738.532 449.04Z" class="colordae0f5 svgShape"></path><path fill="#857dfb" d="M820.416 566.879a67.695 67.695 0 0 1-3.684-6.142c-2.775-5.477.455-6.576 1.836-7.045a3.716 3.716 0 0 0 1.555-.778.625.625 0 0 0 .1-.163 13.937 13.937 0 0 0-1.397-2.524 77.346 77.346 0 0 1-.582-.93c-.12-.198-.282-.434-.455-.699-1.036-1.551-2.453-3.678-2.631-5.688a2.791 2.791 0 0 1 1.767-3.195c.139-.067.278-.133.41-.214a11.366 11.366 0 0 1 1.047-.543 4.546 4.546 0 0 0 1.538-.969c.55-.692.488-1.099.488-1.103a15.948 15.948 0 0 0-2.184-2.789 32.056 32.056 0 0 1-3.482-4.449l2.814-1.725a24.827 24.827 0 0 0 2.477 3.09c1.74 1.956 3.71 4.176 4.316 6.859a5.08 5.08 0 0 1-.924 4.533 5.961 5.961 0 0 1-2.236 1.524 9.633 9.633 0 0 0-.865.446 6.793 6.793 0 0 1-.565.302 4.524 4.524 0 0 0-.406.216c.268.496.774 1.256 1.047 1.665.258.385.486.733.66 1.017.164.268.338.543.512.821 1.322 2.093 4.07 6.448 2.04 8.95a5.025 5.025 0 0 1-2.444 1.403 4.15 4.15 0 0 0-1.377.643c.027.069.072.17.142.312a60.794 60.794 0 0 0 3.16 5.238c.627.964 1.246 1.919 1.823 2.857l-2.815 1.726c-.533-.871-1.107-1.754-1.685-2.646Zm-1.217-22.317Z" class="color807dfb svgShape"></path><path fill="#3e9eff" d="M874.648 410.918a14.693 14.693 0 0 1 6.644-11.51c3.67-2.12 6.645-.4 6.645 3.838a14.687 14.687 0 0 1-6.645 11.51c-3.668 2.119-6.644.4-6.644-3.838ZM833.361 200.176a14.687 14.687 0 0 1 6.647-11.51c3.67-2.119 6.644-.402 6.644 3.834a14.691 14.691 0 0 1-6.644 11.512c-3.67 2.119-6.647.4-6.647-3.836Z" class="colorffd03e svgShape"></path><path style="mix-blend-mode:multiply" fill="url(#o)" d="M546.348 1187.215h101.099v18.584H546.348z"></path><path style="mix-blend-mode:multiply" fill="url(#az)" d="M500.275 1160.405h101.089v18.578H500.275z"></path><path fill="url(#p)" d="M489.605 1173.252c0-14.593 9.252-15.02 9.252-15.02s5.005 0 13.147-3.377c8.029-3.334 19.345-2.045 13.019 9.62a2.905 2.905 0 0 1-.215.432 5.708 5.708 0 0 1-2.05 1.8l-20.214 11.859c-3.085 1.754-12.87-2.31-12.94-5.314Z"></path><path fill="#102847" d="M489.662 1171.945c.172 2.995 9.828 6.985 12.882 5.237l20.215-11.848a19.143 19.143 0 0 0 2.845-2.077c-.182.399-.345.785-.581 1.218a2.905 2.905 0 0 1-.215.432 5.708 5.708 0 0 1-2.05 1.8l-20.214 11.859c-2.885 1.646-11.654-1.817-12.811-4.737a3.254 3.254 0 0 1-.092-.59 9.04 9.04 0 0 1 .021-1.294Z" class="color121047 svgShape"></path><path fill="#ffffff" d="M493.367 1156.314c2.384 0 10.766 2.132 10.766 2.132a4.642 4.642 0 0 0 .753 2.173c.082.09.156.185.234.285 1.653 1.149 3.336 2.967-.59 5.43a5.447 5.447 0 0 1-7.068-.5 6.409 6.409 0 0 0-2.28-2.59 5.717 5.717 0 0 0-2.184-.92 1.441 1.441 0 0 0-.019-.201s-.61-5.809.388-5.809Z" class="colorffffff svgShape"></path><path fill="#0c2340" d="M494.313 1013.608c9.143.166 30.888.559 40.02.717-3.398 27.472-10.245 52.421-14.812 79.032-4.908 25.856-10.436 44.03-15.262 65.547-1.767 4.004-9.85 2.49-11.487-1.366-1.277-19.819-2.752-43.96 3.124-66.827-.98-24.644-4.282-48.429-1.583-77.103Z" class="color131147 svgShape"></path><path fill="url(#aA)" d="M535.685 1200.071c0-14.595 9.247-15.018 9.247-15.018s5.008 0 13.15-3.375c8.024-3.338 19.343-2.05 13.02 9.614a4.323 4.323 0 0 1-.218.436 5.663 5.663 0 0 1-2.056 1.796l-20.207 11.859c-3.084 1.754-12.867-2.305-12.936-5.312Z"></path><path fill="#102847" d="M535.734 1198.762c.176 2.993 9.834 6.987 12.887 5.237l20.207-11.844a19.344 19.344 0 0 0 2.854-2.081c-.191.4-.345.787-.58 1.218a4.323 4.323 0 0 1-.218.436 5.663 5.663 0 0 1-2.056 1.796l-20.207 11.859c-2.882 1.648-11.655-1.818-12.81-4.728a2.663 2.663 0 0 1-.09-.597 9.929 9.929 0 0 1 .013-1.296Z" class="color121047 svgShape"></path><path fill="#ffffff" d="M539.445 1183.129c2.377 0 10.766 2.134 10.766 2.134a4.759 4.759 0 0 0 .744 2.175c.087.094.158.187.234.282 1.66 1.15 3.346 2.967-.586 5.433a5.45 5.45 0 0 1-7.065-.496 6.51 6.51 0 0 0-2.277-2.592 5.815 5.815 0 0 0-2.189-.922 1.451 1.451 0 0 0-.021-.195s-.606-5.82.394-5.82Z" class="colorffffff svgShape"></path><path fill="url(#aB)" d="M522.214 1078.913c-2.498-11.807-33.82-13.631-27.986-59.71 9.043-1.332 53.22 20.067 62.257 18.736 1.13 27.651-1.54 53.395-1.71 80.383-.615 26.31-3.102 45.14-4.35 67.158-1.086 4.246-9.306 4.069-11.555.536-4.495-19.346-9.891-42.929-7.829-66.445-2.691-13.026-5.899-26.828-8.827-40.658Z"></path><path fill="#7c3eaf" d="M497.102 951.275c-2.804-9.308-5.454-42.912-4.726-51.542.728-8.63 12.722-48.19 12.722-48.19 3.157 1.6 8.928 4.114 8.928 4.114-1.253 5.428-8.77 39.29-8.945 46.008-.175 6.717 2.232 31.398 5.012 34.062 2.78 2.665-12.991 15.548-12.991 15.548Z" class="color423eaf svgShape"></path><path fill="url(#aC)" d="M577.842 882.722c-1.591 7.367-7.88 30.51-13.293 42.44-2.62 5.775-11.02 13.57-17.147 18.302a7.084 7.084 0 0 1-7.975.457c-2.225-1.326-4.76-3.044-7.462-5.005-6.494-4.712-11.046-9.38-14.145-9.66-25.582-2.292-24.315 38.916-25.294 90.896 3.354 12.42 11.628 19.657 21.201 23.697 19.433 8.206 38.572 6.079 43.678-7.27-5.08-23.217-9.098-41.519-6.917-64.554a88.213 88.213 0 0 0 27.647-38.965c5.93-17.581 9.07-42.937 9.429-47.451 0 0-4.113-1.275-9.722-2.887Z"></path><path fill="#a9d2fc" d="M503.148 935.7c4.07-5.361 4.226-13.068 3.443-18.443a26.543 26.543 0 0 1-1.584-9.275c.076-11.959 7.76-22.236 17.087-21.528 18.791 1.414 15.381 11.281 15.303 23.235-.073 11.076-5.145 18.666-13.555 19.898-.01 1.819 1.725 5.119 4.576 6.637-4.8 5.315-13.882 6.264-17.735 5.767-4.105-.532-9.215-3.009-7.535-6.291Z" class="colorfcd1a9 svgShape"></path><path fill="#112a49" d="M529.184 880.176c-.539-1.457-3.437-2.26-12.899 2.06-.058.033-2.294 1.062-2.434 1.136-17.45 8.84-11.86 29.244-8.847 34.574a11.082 11.082 0 0 1 1.803 6.418c7.032-.717 9.499 3.11 13.77-1.117 3.062-3.022 7.702-6.635 8.432-8.073a5.499 5.499 0 0 0 .45-3.46c-.581-9.91 4.365-4.134 4.347-1.854 1.82-1.022 1.456-4.999 1.057-9.415 14.522-12.283 5.881-19.612-5.679-20.269Z" class="color121149 svgShape"></path><path fill="#a9d2fc" d="M578.826 883.006c.415-1.374.564-3.995-.59-5.26-1.156-1.266-2.521-7.625 1.183-8.599-.134-1.194 2.615-4.046 6.824-1.635 4.21 2.41 5.524 6.387 4.415 8.93-1.11 2.544-3.678 6.732-4.058 8.871-1.395-.423-7.774-2.307-7.774-2.307ZM506.004 851.992c.54-1.944-1.195-7.454.122-10.083s3.383-5.217 6.91-3.629c3.527 1.588 4.758 3.708 4.473 5.588a3.933 3.933 0 0 1-.725 5.774c-2.493 2.016-3.262 3.04-3.874 5.524-1.322-.588-6.906-3.174-6.906-3.174Z" class="colorfcd1a9 svgShape"></path><path fill="url(#aD)" d="M575.609 939.365c-5.17 9.451-21.82 25.468-26.993 27.366-5.182 1.901-8.69 5.458-8.382 6.54.308 1.082 4.12 7.537 3.913 16.119-.207 8.57 1.899 44.762 12.576 48.635.235-.476.487-.937.682-1.446-5.08-23.217-9.098-41.519-6.917-64.554 10.638-8.382 19.614-20.637 25.121-32.66Z"></path><path style="mix-blend-mode:multiply" fill="url(#aE)" d="M1388.112 648.259h-82.295l-12.82 16.871h95.115v-16.871z"></path><path style="mix-blend-mode:multiply" fill="url(#aF)" d="M1399.55 618.627h-71.063l-8.665 12.766h79.728v-12.766z"></path><path fill="url(#r)" d="M1328.12 599.998c3.682-2.507 9.488 1.76 10.954 6.5.065 2.045-1.448 5.46-1.448 5.46s-6.151 13.7-8.246 16.03c-2.09 2.337-10.578 5.679-14.666 2.19-2.935-3.804 2.891-6.078 3.954-9.846 1.388-4.9.79-8.819 2.154-12.513 1.12-3.035 7.298-7.82 7.298-7.82Z"></path><path fill="#0f294a" d="M1338.723 605.559a.234.234 0 0 1 .017.055c.064 2.04-1.445 5.459-1.445 5.459s-6.153 13.696-8.244 16.03c-2.092 2.337-10.581 5.684-14.669 2.19a5.074 5.074 0 0 1-.408-.627 3.707 3.707 0 0 0 .74 1.512c4.088 3.489 12.576.147 14.666-2.19 2.095-2.33 8.246-16.03 8.246-16.03s1.513-3.415 1.448-5.46a9.056 9.056 0 0 0-.35-.94Z" class="color140f4a svgShape"></path><path fill="#ffffff" d="M1318.014 603.097c1.797-1.224 9.22-3.919 9.22-3.919a4.256 4.256 0 0 0 1.679 1.247c.106.027.21.069.324.105 1.834.014 5.157 1.738 3.103 5.427-3.98 7.17-13.182 6.917-12.17 3.516.686-2.283-1.203-4.978-2.156-6.376Z" class="colorffffff svgShape"></path><path fill="url(#aG)" d="M1320 611.339c-.284-1.132-.615-3.585 2.288-3.988 3.033-.431 6.464.972 6.183 2.755-.586 3.703-8.186 2.374-8.47 1.233Z"></path><path fill="url(#aH)" d="M1331.339 599.316c-3.44-4.64-28.958-35.356-40.98-41.475 4.042-16.951 14.53-38.977 11.198-57.136h-25.599s-15.18 53.771-5.462 66.583c7.357 9.713 39.92 34.526 52.05 42.35 4.16 0 10.3-6.72 8.793-10.322Z"></path><path fill="url(#s)" d="M1309.614 643.962c4.398.72 5.67 7.806 3.47 12.257-1.364 1.527-4.812 2.961-4.812 2.961s-13.892 5.703-17.013 5.95c-3.128.257-10.066-.917-10.633-6.252.537-3.264 3.273-4.158 6.64-6.157 4.38-2.598 8.135-6.375 11.667-8.108 2.904-1.426 10.68-.651 10.68-.651Z"></path><path fill="#0f294a" d="M1291.355 663.7c3.213-.252 17.511-6.11 17.511-6.11a18.41 18.41 0 0 0 4.802-2.92 10.17 10.17 0 0 1-.584 1.55c-1.364 1.526-4.812 2.96-4.812 2.96s-13.892 5.703-17.013 5.95c-3.128.257-10.066-.917-10.633-6.252.023-.11.062-.211.083-.326 1.474 4.396 7.704 5.39 10.646 5.148Z" class="color140f4a svgShape"></path><path fill="#ffffff" d="M1300.149 639.254c2.144.349 9.391 3.502 9.391 3.502a4.172 4.172 0 0 0 .355 2.059c.055.096.108.197.165.297 1.316 1.275 2.708 3.535-1.323 4.804-7.819 2.457-14.486-2.791-11.41-4.556 2.067-1.183 2.552-4.442 2.822-6.106Z" class="colorffffff svgShape"></path><path fill="url(#aI)" d="M1295.998 646.414c.581-.774 1.937-2.837 4.325-1.136 2.497 1.783 3.059 3.919 2.768 5.702-.295 1.778-5.438.463-5.634.192-.195-.266-1.459-4.758-1.459-4.758Z"></path><path fill="url(#aJ)" d="M1298.424 499.843c0 24.042-.255 50.93-.255 71.924 0 24.01-1.836 53.777-1.58 73.9 3.862 4.781 13.665 3.58 15.732-.115 2.55-18.266 8.241-46.085 6.834-66.02 6.078-26.27 13.685-57.494 11.21-78.108-5.816 1.846-26.121-3.428-31.94-1.581Z"></path><path fill="#dae7f5" d="M1291.847 402.937c-19.607 6.224-24.317 25.393-25.197 38.594-.579 8.693-1.503 40.445 10.78 32.976 12.281-7.468 14.417-71.57 14.417-71.57Z" class="colordae0f5 svgShape"></path><path fill="url(#aK)" d="M1329.183 416.72c-5.085-6.365-17.582-15.245-25.766-15.849-13.917-1.024-24.94 10.477-27.782 20.085-2.677 9.047-1.206 77.383-4.192 89.68 1.474 6.486 13.403 9.997 17.925 10.99 19.641 4.308 42.042 3.545 43.586-8.91 2.885-23.278 3.568-88.659-3.771-95.996Z"></path><path fill="#5a52cc" d="m1186.705 378.646-3.85 3.488c-2.867 2.595-3.834 7.052-2.086 11.605l1.988 5.179 3.85-3.488-1.987-5.179c-1.748-4.552-.781-9.009 2.085-11.605Z" class="color5652cc svgShape"></path><path fill="#7c3eaf" d="m1310.831 513.845-3.851 3.487-51.658 11.361 3.851-3.487 51.658-11.361z" class="color423eaf svgShape"></path><path fill="url(#aL)" d="M1255.032 544.021c-5.792 1.274-12.445-2.759-14.85-9.023l-1.987-5.179-3.851 3.488 1.988 5.179c2.404 6.263 9.057 10.296 14.85 9.023 1.595-.351-.05 1.657 1.038.671l6.861-6.213a8.777 8.777 0 0 1-4.049 2.054Z"></path><path fill="#5a52cc" d="m1156.406 462.627-3.851 3.488-21.435-55.841 3.85-3.487 21.436 55.84z" class="color5652cc svgShape"></path><path fill="url(#aM)" d="M1160.325 486.367c-5.792 1.274-12.445-2.76-14.85-9.023-1.743-4.54-.775-9.009 2.096-11.609l-3.85 3.487c-2.872 2.6-3.84 7.069-2.096 11.61 2.404 6.263 9.057 10.296 14.849 9.022l4.789-1.053 3.851-3.487Z"></path><path fill="#5a52cc" d="m1186.557 541.176-3.85 3.488-21.444-55.863 3.851-3.488 21.443 55.863z" class="color5652cc svgShape"></path><path fill="#7c3eaf" d="m1238.195 529.82-3.851 3.487-51.637 11.357 3.85-3.488 51.638-11.356z" class="color423eaf svgShape"></path><path fill="#857dfb" d="M1145.475 477.344c-2.404-6.263.35-12.39 6.141-13.663l4.79-1.054-21.436-55.84 51.638-11.357-1.988-5.179c-2.413-6.285.349-12.389 6.14-13.663 5.793-1.274 12.434 2.786 14.838 9.05l1.988 5.179 51.658-11.362 51.587 134.39-51.658 11.36 1.988 5.18c2.404 6.263-.337 12.362-6.129 13.636-5.792 1.274-12.445-2.759-14.85-9.023l-1.987-5.178-51.638 11.356-21.443-55.863-4.79 1.054c-5.791 1.274-12.444-2.76-14.849-9.023Z" class="color807dfb svgShape"></path><path fill="#672b99" d="M1283.914 482.4c-.698.696-3.727 9.12 2.642 11.651 3.256-1.712 4.347-10.277-2.642-11.65Z" class="color392b99 svgShape"></path><path fill="#a2d0ff" d="m1287.874 482.334-4.06 1.459c-2.282.667-8.033-.459-11.246-3.672-3.213-3.217-3.88 3.158-.124 4.978 3.764 1.82 3.805 3.398-2.266 4.489a15.21 15.21 0 0 0-6.784 3.087c-2.175 2.176-4.589 6.992-1.135 9.336 2.8 1.898 11.134-1.845 13.655-2.872 6.95-2.827 5.556-4.205 9.455-6.057 3.898-1.859 4.768-1.78 4.768-1.78Z" class="colorffcea2 svgShape"></path><path fill="#ffffff" d="M1320.139 413.755c4.375-.897 10.02-.14 13.843 12.842 3.228 10.969.631 33.519-1.309 39.766-4.982 16.05-24.704 21.52-46.117 27.688 2.73-3.124.914-10.036-2.642-11.65 14.503-6.345 28.085-15.508 32.925-20.346 0-5.495-2.68-26.311-3-33.414-.402-8.836 1.975-13.999 6.3-14.886Z" class="colorffffff svgShape"></path><path fill="#a2d0ff" d="M1305.168 382.395c.51-4.51-15.075 4.673-14.449 10.63.51 4.844 1.923 9.107-2.977 12.139-1.688 1.351-7.468 10.769 1.421 10.87 12.712.153 16.103-3.335 25.291-11.211-5.48-3.095-10.936-7.807-9.286-22.428Z" class="colorffcea2 svgShape"></path><path fill="#a2d0ff" d="m1308.84 379.727-6.33-8.908h-27.558v16.588c0 9.166 6.17 16.587 13.774 16.587 7.39 0 14.248-6.115 14.605-14.894l3.345-1.155Z" class="colorffcea2 svgShape"></path><path fill="#96c8fb" d="M1289.368 408.432c6.584 0 14.735-10.578 13.963-19.326a15.898 15.898 0 0 1-14.052 14.875 11.788 11.788 0 0 1-1.537 1.183 4.019 4.019 0 0 0-.459.464c0 1.339.886 2.804 2.085 2.804Z" class="colorfbc096 svgShape"></path><path fill="#153f74" d="M1276.56 363.33c-2.52-.44-2.75-2.536 7.467-6.07 5.933-2.913 14.348-3.805 19.794-.436 7.379 4.57 9.604 11.283 8.28 19.708-1.315 8.43-6.716 16.445-6.716 16.445-.817.824-.939-3.062-.274-5.939a5.52 5.52 0 0 0 .962-2.463c1.956-8.562-3.286-7.285-4.002-6.563-1.615.665 1.511 7.75-3.226 7.043-2.29-.337-1.98-6.735-1.97-8.984a9.35 9.35 0 0 0-1.031.271c-3.91 2.172-17.2 3.75-9.821-.865-5.14 0-12.144 2.373-14.509-.888-2.81-3.884 1.691-8.113 5.047-11.26Z" class="color231574 svgShape"></path><path d="M1168.062 605.12c-11.253-6.495-26.206-9.487-40.896-9.05h-23.028v3.773a61.313 61.313 0 0 0-12.186 5.277c-20.941 12.178-20.818 31.916.255 44.089a61.208 61.208 0 0 0 11.931 5.17v3.943h27.62c13.282-.221 26.452-3.234 36.557-9.107 20.945-12.179 20.843-31.917-.253-44.095Z" style="mix-blend-mode:multiply" fill="url(#aN)"></path><path fill="#4ca5ff" d="M1055.112 612.952c0-7.789 5.145-15.578 15.438-21.522 10.295-5.943 23.782-8.916 37.276-8.916 13.488 0 26.978 2.973 37.27 8.916 10.293 5.944 15.44 13.73 15.44 21.52.003 7.788-5.144 15.576-15.44 21.522-10.29 5.94-23.778 8.91-37.266 8.91-13.49 0-26.983-2.97-37.274-8.912-10.295-5.944-15.44-13.732-15.444-21.518Z" class="colorffe54c svgShape"></path><path fill="url(#u)" d="M1145.095 634.472c-10.289 5.94-23.777 8.91-37.265 8.91-13.49 0-26.983-2.97-37.274-8.912-10.295-5.944-15.44-13.732-15.444-21.518v15.025c.003 7.785 5.15 15.572 15.444 21.515 10.291 5.944 23.783 8.914 37.274 8.914 13.488 0 26.976-2.967 37.265-8.91 10.297-5.945 15.444-13.734 15.441-21.522V612.95c.003 7.787-5.144 15.575-15.44 21.521Z"></path><path fill="#3e9eff" d="M1077.557 630.424c8.36 4.828 19.317 7.243 30.273 7.243 10.953 0 21.908-2.415 30.266-7.24 7.711-4.451 11.857-10.182 12.453-16.01-.596-5.831-4.742-11.557-12.453-16.013-8.361-4.827-19.316-7.24-30.272-7.24-10.954 0-21.908 2.413-30.27 7.24-7.712 4.453-11.854 10.18-12.455 16.01.6 5.827 4.743 11.56 12.458 16.01Z" class="colorffd03e svgShape"></path><path fill="#e100b8" d="M1077.554 598.404c8.362-4.827 19.316-7.24 30.27-7.24 10.956 0 21.911 2.413 30.272 7.24 7.711 4.456 11.857 10.182 12.453 16.012a14.611 14.611 0 0 0 .083-1.465c0-6.328-4.178-12.65-12.536-17.475-8.361-4.827-19.316-7.243-30.272-7.243-10.954 0-21.908 2.416-30.27 7.243-8.36 4.824-12.537 11.15-12.537 17.476a14.544 14.544 0 0 0 .082 1.461c.6-5.829 4.743-11.556 12.455-16.01Z" class="colore19100 svgShape"></path><path fill="#e100b8" d="m1128.913 606.666 4.051-2.339v-2.929l-4.051 2.34v2.928z" class="colore19100 svgShape"></path><path fill="#4ca5ff" d="M1110.236 611.559a3.445 3.445 0 0 1 .001-6.528 12.512 12.512 0 0 1 11.307 0c3.116 1.799 3.116 4.73 0 6.528l5.131 2.962c5.06-2.924 5.797-7.4 2.238-10.783l4.051-2.34-5.13-2.962-4.05 2.339c-5.859-2.051-13.618-1.628-18.675 1.296-2.885 1.664-4.47 3.873-4.468 6.226-.001 2.349 1.586 4.561 4.468 6.222 3.116 1.801 3.116 4.728 0 6.53a12.524 12.524 0 0 1-11.308 0c-3.12-1.802-3.12-4.729 0-6.528l-5.127-2.962c-5.065 2.921-5.802 7.399-2.25 10.784l-3.73 2.157 5.129 2.961 3.733-2.157c5.863 2.055 13.62 1.63 18.681-1.293 5.945-3.432 5.945-9.019-.001-12.452Z" class="colorffe54c svgShape"></path><path fill="#fb05ce" d="m1082.694 627.428 5.129 2.965v-2.932l-5.129-2.961v2.928z" class="colorfbba05 svgShape"></path><path fill="#e100b8" d="m1087.823 630.393 3.733-2.159v-2.93l-3.733 2.157v2.932z" class="colore19100 svgShape"></path><path fill="#fb05ce" d="m1121.544 614.487 5.131 2.963v-2.929l-5.131-2.962v2.928z" class="colorfbba05 svgShape"></path><path fill="#e100b8" d="M1093.801 617.45v-2.93c-2.21 1.28-2.846 3.123-1.92 4.727a5.106 5.106 0 0 1 1.92-1.797Z" class="colore19100 svgShape"></path><path fill="#fb05ce" d="m1084.222 617.637.007 3.298.008-.006a5.63 5.63 0 0 0 .635 2.311l1.552-.897a6.293 6.293 0 0 1-2.193-4.696ZM1105.109 617.447a5.18 5.18 0 0 1 1.92 1.8c.923-1.604.289-3.449-1.92-4.728-2.882-1.66-4.47-3.873-4.468-6.222v2.928c-.001 2.352 1.586 4.561 4.468 6.222ZM1114.696 617.77v-.061h-.006c0 .02.006.038.006.06Z" class="colorfbba05 svgShape"></path><path fill="#e100b8" d="M1131.112 608.29c.008 2.255-1.462 4.516-4.437 6.23v2.93c3.051-1.76 4.515-4.085 4.433-6.399l.012.015v-2.775Z" class="colore19100 svgShape"></path><path fill="url(#aO)" d="M1110.237 624.011c-5.062 2.923-12.818 3.348-18.681 1.293v2.93c5.863 2.053 13.62 1.629 18.681-1.295 2.95-1.703 4.432-3.935 4.456-6.171l.003.007v-2.976c-.008 2.248-1.493 4.5-4.459 6.212Z"></path><path fill="#e100b8" d="M1121.544 605.031a12.512 12.512 0 0 0-11.307 0 3.98 3.98 0 0 0-2.343 3.266 2.942 2.942 0 0 0 .416 1.464 5.164 5.164 0 0 1 1.927-1.8 12.508 12.508 0 0 1 11.307-.001 5.086 5.086 0 0 1 1.918 1.802c.929-1.607.294-3.456-1.918-4.73Z" class="colore19100 svgShape"></path></g></g></g></svg>