<svg xmlns="http://www.w3.org/2000/svg" enable-background="new 0 0 131 131" viewBox="0 0 131 131" id="CloudServices"><path fill="#f4f6f8" d="M129.2236,96.8162l-4.2953-2.48l0.0358-15.1486l-13.5548-7.8258l-13.4535,7.8184l-0.0358,15.1157
			l-0.8071,0.469l-13.8403-7.9893l14.344-8.3368c0.334-0.1967,0.511-0.4521,0.511-0.7076l0.0197-9.233
			c0.0087-0.2648-0.1582-0.5313-0.507-0.7327l-7.7295-4.4626l11.5885-6.6896l9.1696,5.3293c0.3723,0.2129,0.968,0.2129,1.3405,0
			l17.2141-9.9368c0.1808-0.1064,0.2766-0.2449,0.2766-0.3831l-0.0214-7.8344c0.001-0.1405-0.0918-0.2814-0.2791-0.3903
			l-4.3992-2.5564l0.0356-15.0833l-13.5548-7.8259l-13.4535,7.8184l-0.0359,15.2031L93.559,43.398
			c-0.186,0.1074-0.2764,0.249-0.2745,0.3901l0.0106,7.8347c0,0.1382,0.0958,0.2766,0.2766,0.3831l7.4287,4.3176l-11.5902,6.6904
			l-7.8229-4.5166l-0.1138-36.5378v-3.0426c-0.0168-0.6629-0.2549-1.1388-0.6289-1.3598c-0.0168-0.017-0.0508-0.0341-0.085-0.051
			l-3.2295-1.8868c-0.3911-0.2209-0.9351-0.187-1.5298,0.153L53.376,28.8438c-1.1729,0.6628-2.1417,2.3287-2.1248,3.6885
			l0.0645,23.8862l-10.2816,5.9751l-10.7759-6.2205l7.1702-4.1672c0.1809-0.1064,0.2766-0.2449,0.2766-0.3831l0.0106-7.8347
			c0.0018-0.1411-0.0885-0.2827-0.2745-0.3901l-4.5627-2.6343l0.0354-15.0051L19.359,17.9327L5.9054,25.7511L5.8693,41.0337
			l-4.0688,2.3645c-0.1873,0.1089-0.28,0.2498-0.2791,0.3903L1.5,51.6228c0,0.1382,0.0958,0.2766,0.2766,0.3831l17.2141,9.9368
			c0.3724,0.2129,0.9681,0.2129,1.3405,0l9.4282-5.4796l10.7759,6.2203l-8.7457,5.0825c-0.3495,0.2031-0.521,0.4663-0.5159,0.7285
			l-0.0392,9.2368c0,0.2555,0.177,0.511,0.511,0.7076l15.4716,8.931l-13.0713,7.5454l-1.1395-0.6622l0.0355-15.0654l-13.5548-7.8258
			L6.0335,79.1802L5.9976,94.379l-4.2212,2.4371c-0.1862,0.1074-0.2762,0.249-0.2744,0.3904l0.0106,7.8342
			c0,0.1384,0.0957,0.2767,0.2766,0.3831l17.0972,9.937c0.3723,0.2128,0.968,0.2128,1.3405,0l17.214-9.937
			c0.1809-0.1063,0.2767-0.2446,0.2767-0.3831l-0.0214-7.8342c0.001-0.1405-0.0918-0.2813-0.2791-0.3901l-2.7725-1.6112
			l13.073-7.5464l15.833,9.1398c0.6881,0.3931,1.7889,0.3931,2.4768,0l16.7462-9.733l13.8403,7.9894l-3.0311,1.7615
			c-0.1873,0.1089-0.28,0.2496-0.2791,0.3901l-0.0214,7.8342c0,0.1384,0.0958,0.2767,0.2767,0.3831l17.214,9.937
			c0.3724,0.2128,0.9681,0.2128,1.3406,0l17.097-9.937c0.1809-0.1063,0.2766-0.2446,0.2766-0.3831l0.0107-7.8345
			C129.4999,97.0652,129.4095,96.9236,129.2236,96.8162z M97.6697,69.1704c-0.0052,0.0032-0.0084,0.0068-0.0138,0.01l-0.0012,0.0006
			C97.6604,69.1777,97.6642,69.1737,97.6697,69.1704z M111.9893,54.1087l17.2128-9.9377c0.0923-0.0533,0.1605-0.1145,0.2068-0.1792
			c-0.0466,0.0671-0.1155,0.129-0.2068,0.1827l-17.2141,9.9369c-0.2712,0.1597-0.6746,0.1995-1.0162,0.115
			C111.3125,54.3067,111.7149,54.2671,111.9893,54.1087z M93.5504,44.1638c-0.0203-0.012-0.0271-0.0276-0.0449-0.0402
			c0.0186,0.0131,0.0264,0.0292,0.0474,0.0416L93.5504,44.1638z M37.4979,44.1206c-0.019,0.0137-0.0266,0.0304-0.0483,0.0432
			l-0.0024,0.0015C37.4696,44.1521,37.4782,44.1348,37.4979,44.1206z M19.0121,54.1113L1.798,44.1745
			c-0.0913-0.0537-0.1602-0.1156-0.2068-0.1827c0.0463,0.0647,0.1145,0.1259,0.2068,0.1792l17.2129,9.9377
			c0.2743,0.1584,0.6766,0.198,1.0175,0.1177C19.6867,54.3108,19.2833,54.271,19.0121,54.1113z M1.7679,97.5819
			c-0.0217-0.0128-0.0293-0.0294-0.0483-0.0431c0.0198,0.0142,0.0283,0.0315,0.0508,0.0447L1.7679,97.5819z M37.4196,97.5889
			c0.0923-0.0532,0.1605-0.1144,0.2068-0.1792c-0.0466,0.0673-0.1155,0.1292-0.2068,0.1829l-17.2141,9.9369
			c-0.2712,0.1597-0.6744,0.1995-1.0161,0.1151c0.3407,0.0801,0.743,0.0405,1.0173-0.1179L37.4196,97.5889z M54.6188,54.499
			l-0.0037,0.0021l-0.0493-16.9884L54.6188,54.499z M55.2391,82.739L31.7849,69.2c-0.1683-0.099-0.2963-0.2129-0.3822-0.3369
			c0.0854,0.1195,0.2122,0.2321,0.3823,0.3303l23.4581,13.5435L55.2391,82.739z M63.5901,87.5597l-7.8503-4.5316l0.0039-0.0023
			l7.8441,4.5288c0.5071,0.2927,1.2505,0.3658,1.8803,0.2177C64.8366,87.9282,64.0916,87.8548,63.5901,87.5597z M79.5698,17.5741
			c-0.085,0.0339-0.1699,0.085-0.2549,0.1359L56.6906,30.7475l22.6244-13.0544C79.3999,17.642,79.4849,17.608,79.5698,17.5741
			c0.17-0.0851,0.323-0.119,0.476-0.153C79.8928,17.4551,79.7399,17.5061,79.5698,17.5741z M110.7946,107.5294l-17.2141-9.9369
			c-0.0913-0.0537-0.1602-0.1156-0.2068-0.1829c0.0463,0.0648,0.1145,0.126,0.2068,0.1792l17.2129,9.9377
			c0.2743,0.1584,0.6766,0.198,1.0173,0.1179C111.469,107.7289,111.0658,107.6891,110.7946,107.5294z M129.2321,97.5819
			l-0.0023,0.0013c0.0209-0.0122,0.0287-0.0283,0.0472-0.0415C129.2592,97.5545,129.2523,97.5701,129.2321,97.5819z" class="colore4e8f4 svgShape"></path><rect width=".5" height="109.942" x="62.259" y="23.86" fill="#6822a2" transform="rotate(60.033 62.51 78.832)" class="color5b5e71 svgShape"></rect><rect width="109.942" height=".5" x="10.156" y="76.34" fill="#6822a2" transform="rotate(29.991 65.128 76.6)" class="color5b5e71 svgShape"></rect><path fill="#5046e4" d="M98.1473,68.4727l-0.0197,9.2584c0,0.2555-0.177,0.5111-0.5111,0.7077l-31.589,18.3597
						c-0.688,0.3932-1.7887,0.3932-2.4768,0L31.7455,78.4389c-0.3341-0.1966-0.5111-0.4522-0.5111-0.7077l0.0394-9.2584
						c0,0.2752,0.177,0.5307,0.5111,0.7273l31.8052,18.3597c0.6683,0.3932,1.7692,0.3932,2.4571-0.0196l31.6087-18.3598
						C97.99,68.9838,98.1473,68.7283,98.1473,68.4727z" class="color576cfb svgShape"></path><path fill="#f4f6f8" d="M97.6402,67.7655c0.6777,0.3913,0.6813,1.0289,0.008,1.4202l-31.596,18.3616
						c-0.6858,0.3985-1.7866,0.3985-2.4643,0.0072L31.7851,69.1933c-0.6903-0.3985-0.6813-1.0289,0.0045-1.4275l31.596-18.3616
						c0.6734-0.3913,1.7616-0.3985,2.4519,0L97.6402,67.7655z" class="color748bfd svgShape"></path><path fill="#6822a2" d="M80.8447,17.5571c-0.0509-0.034-0.119-0.0681-0.187-0.085h-0.017
								c-0.0339-0.017-0.085-0.034-0.1359-0.034c-0.136-0.034-0.3061-0.034-0.459-0.017c-0.153,0.034-0.3059,0.068-0.476,0.153
								c-0.085,0.0339-0.1699,0.068-0.2549,0.119L56.6906,30.7476c-1.1729,0.6969-2.1418,2.3457-2.1418,3.7056l0.017,3.0596
								l0.119,41.0502c0,0.1699,0.0169,0.323,0.0509,0.4759c0.017,0.119,0.051,0.238,0.102,0.357
								c0.017,0.0339,0.017,0.0509,0.034,0.068c0.068,0.153,0.1699,0.272,0.2889,0.34c0,0.017,0.017,0.017,0.017,0.034
								c0.034,0.0339,0.068,0.068,0.119,0.085c-0.017,0-0.051-0.017-0.0681-0.034c-0.0169-0.017-0.0339-0.034-0.0509-0.034
								l-3.1786-1.8527c-0.3909-0.204-0.6289-0.68-0.6289-1.3598l-0.119-44.1098c-0.017-1.3598,0.9519-3.0257,2.1247-3.6885
								l22.6243-13.0715c0.5949-0.34,1.1388-0.374,1.5299-0.153l3.2296,1.8868C80.7937,17.5231,80.8278,17.5401,80.8447,17.5571z" class="color5b5e71 svgShape"></path><path fill="#f4f6f8" d="M81.5926,60.222v2.8047c0,1.3598-0.9519,3.0256-2.1418,3.7056L56.8265,79.7867
								c-0.6119,0.34-1.1388,0.374-1.5298,0.136c-0.017,0-0.051-0.017-0.0681-0.034c-0.0169-0.017-0.0339-0.034-0.0509-0.034
								c-0.119-0.102-0.221-0.2209-0.306-0.3909c-0.017-0.017-0.017-0.034-0.034-0.068c-0.0509-0.119-0.085-0.238-0.102-0.357
								c-0.034-0.1529-0.0509-0.3059-0.0509-0.4759v-2.8047l-0.119-38.2455l-0.017-3.0596c0-1.3598,0.9689-3.0087,2.1418-3.7056
								L79.3149,17.71c0.085-0.0509,0.1699-0.102,0.2549-0.1359c0.17-0.0681,0.323-0.119,0.476-0.153
								c0.1529-0.017,0.323-0.017,0.459,0.017c0.0509,0,0.085,0.017,0.1359,0.034h0.017c0.034,0,0.068,0.0169,0.102,0.0339
								c0.034,0.017,0.0681,0.034,0.085,0.051c0.374,0.221,0.612,0.6969,0.6289,1.3598v3.0426L81.5926,60.222z" class="colore4e8f4 svgShape"></path><path fill="#5d5266" d="M81.4736,18.9169v3.0426L54.5658,37.5127h-0.017v-3.0596c0-1.3598,0.9689-3.0087,2.1418-3.7056
								L79.3149,17.71c0.085-0.0509,0.1699-0.102,0.2549-0.1359c0.17-0.0681,0.323-0.119,0.476-0.153
								c0.221-0.034,0.442-0.017,0.6119,0.051c0.034,0,0.068,0.0169,0.102,0.0339c0.034,0.017,0.0681,0.034,0.085,0.051
								C81.2187,17.7781,81.4567,18.254,81.4736,18.9169z" class="color525566 svgShape"></path><path fill="#49335c" d="M64.9601,29.386c-0.1612,0-0.3172-0.0839-0.4031-0.2327c-0.1287-0.223-0.0533-0.5084,0.1703-0.6371
							l6.2227-3.5944c0.221-0.1281,0.5084-0.0514,0.6358,0.1703c0.1287,0.223,0.0533,0.5084-0.1703,0.6371l-6.2227,3.5944
							C65.12,29.3659,65.0394,29.386,64.9601,29.386z" class="color33475c svgShape"></path><path fill="#5d5266" d="M81.5926,60.222v2.8047c0,1.3598-0.9519,3.0256-2.1418,3.7056L56.8265,79.7867
							c-0.6119,0.34-1.1388,0.374-1.5298,0.136c-0.017,0-0.051-0.017-0.0681-0.034c-0.0169-0.017-0.0339-0.034-0.0509-0.034
							c-0.119-0.102-0.221-0.2209-0.306-0.3909c-0.017-0.017-0.017-0.034-0.034-0.068c-0.0509-0.119-0.085-0.238-0.102-0.357
							c-0.034-0.1529-0.0509-0.3059-0.0509-0.4759v-2.8047L81.5926,60.222z" class="color525566 svgShape"></path><path fill="#49335c" d="M69.0285,68.9101c0.4089-0.2361,0.7445-0.0448,0.7458,0.425c0.0013,0.4698-0.3321,1.0419-0.741,1.278
							l-1.589,0.9174c-0.4089,0.2361-0.7398,0.0475-0.7411-0.4223c-0.0013-0.4698,0.3275-1.0447,0.7363-1.2808L69.0285,68.9101z" class="color33475c svgShape"></path><path fill="#d4dee8" d="M129.4981,97.1989l-0.0107,7.8419c0,0.1383-0.0958,0.2766-0.2766,0.3831l-17.0971,9.9369
								c-0.3723,0.2128-0.9681,0.2128-1.3405,0l-17.2141-9.9369c-0.1808-0.1064-0.2766-0.2447-0.2766-0.3831l0.0213-7.8419
								c0,0.149,0.0958,0.2872,0.2766,0.3936l17.2141,9.9369c0.3617,0.2128,0.9575,0.2128,1.3299-0.0106l17.1077-9.937
								C129.4129,97.4756,129.4981,97.3372,129.4981,97.1989z" class="colord4dae8 svgShape"></path><path fill="#f4f6f8" d="M129.2236,96.8162c0.3668,0.2118,0.3687,0.5569,0.0043,0.7687l-17.1009,9.938
								c-0.3712,0.2157-0.967,0.2157-1.3338,0.0039L93.5805,97.589c-0.3736-0.2157-0.3688-0.5569,0.0024-0.7726l17.1009-9.9379
								c0.3644-0.2118,0.9535-0.2157,1.3271,0L129.2236,96.8162z" class="colore4e8f4 svgShape"></path><path fill="#bac4ce" d="M124.7881,96.9121c0.2755,0.1591,0.277,0.4183,0.0032,0.5774l-12.8449,7.4646
								c-0.2788,0.162-0.7263,0.162-1.0018,0.0029l-12.9289-7.4645c-0.2806-0.162-0.277-0.4183,0.0018-0.5803l12.8449-7.4646
								c0.2737-0.1591,0.7162-0.162,0.9968,0L124.7881,96.9121z" class="colorbac1ce svgShape"></path><path fill="#f4f6f8" d="M121.4564,96.9841c0.207,0.1195,0.2081,0.3142,0.0024,0.4337l-9.6481,5.6069
								c-0.2094,0.1217-0.5456,0.1217-0.7525,0.0022l-9.7112-5.6068c-0.2108-0.1217-0.208-0.3142,0.0014-0.4359l9.6481-5.6069
								c0.2056-0.1195,0.5379-0.1217,0.7487,0L121.4564,96.9841z" class="colore4e8f4 svgShape"></path><polygon fill="#7f7a83" points="108.236 108.045 108.232 109.648 97.797 103.579 97.802 101.975" class="color7a7c83 svgShape"></polygon><polygon fill="#7f7a83" points="96.917 104.046 96.912 105.649 95.224 104.675 95.228 103.071" class="color7a7c83 svgShape"></polygon><polygon fill="#7f7a83" points="96.923 101.468 96.919 103.071 95.231 102.097 95.235 100.493" class="color7a7c83 svgShape"></polygon><polygon fill="#7f7a83" points="108.23 110.623 108.225 112.226 97.791 106.157 97.795 104.553" class="color7a7c83 svgShape"></polygon><polygon fill="#7f7a83" points="114.55 108.045 114.555 109.648 124.989 103.579 124.984 101.975" class="color7a7c83 svgShape"></polygon><polygon fill="#7f7a83" points="125.87 104.046 125.874 105.649 127.563 104.675 127.558 103.071" class="color7a7c83 svgShape"></polygon><polygon fill="#7f7a83" points="125.863 101.468 125.868 103.071 127.556 102.097 127.551 100.493" class="color7a7c83 svgShape"></polygon><polygon fill="#7f7a83" points="114.557 110.623 114.561 112.226 124.996 106.157 124.991 104.553" class="color7a7c83 svgShape"></polygon><g fill="#010001" class="color000000 svgShape"><path fill="#664184" d="M37.7156,43.7808l-0.0106,7.8419c0,0.1383-0.0958,0.2766-0.2766,0.3831l-17.0971,9.9369
								c-0.3723,0.2128-0.9681,0.2128-1.3405,0L1.7766,52.0058C1.5958,51.8994,1.5,51.7611,1.5,51.6228l0.0213-7.8419
								c0,0.149,0.0958,0.2872,0.2766,0.3936l17.2141,9.9369c0.3617,0.2128,0.9575,0.2128,1.3299-0.0106l17.1077-9.937
								C37.6305,44.0575,37.7156,43.9191,37.7156,43.7808z" class="color416e84 svgShape"></path><path fill="#724c91" d="M37.4411,43.3981c0.3668,0.2118,0.3688,0.5569,0.0043,0.7687l-17.1009,9.9379
								c-0.3712,0.2157-0.967,0.2157-1.3338,0.0039L1.798,44.1708c-0.3736-0.2157-0.3688-0.5569,0.0024-0.7726l17.1009-9.9379
								c0.3644-0.2118,0.9535-0.2157,1.3271,0L37.4411,43.3981z" class="color4c7891 svgShape"></path><path fill="#5c377b" d="M33.0056,43.494c0.2755,0.1591,0.277,0.4183,0.0032,0.5774L20.1639,51.536
								c-0.2788,0.162-0.7263,0.162-1.0018,0.0029L6.2332,44.0744c-0.2806-0.162-0.277-0.4183,0.0018-0.5803l12.8449-7.4646
								c0.2737-0.1591,0.7162-0.162,0.9968,0L33.0056,43.494z" class="color37617b svgShape"></path><path fill="#724c91" d="M29.6739,43.566c0.207,0.1195,0.208,0.3142,0.0024,0.4337l-9.6481,5.6069
								c-0.2094,0.1217-0.5456,0.1217-0.7525,0.0022L9.5645,44.002c-0.2108-0.1217-0.208-0.3142,0.0014-0.4359l9.6481-5.6069
								c0.2056-0.1195,0.5379-0.1217,0.7487,0L29.6739,43.566z" class="color4c7891 svgShape"></path><polygon fill="#98b8d8" points="16.454 54.627 16.449 56.23 6.015 50.16 6.019 48.557" class="color9ad898 svgShape"></polygon><polygon fill="#98b8d8" points="5.134 50.628 5.13 52.231 3.441 51.257 3.446 49.653" class="color9ad898 svgShape"></polygon><polygon fill="#98b8d8" points="5.141 48.05 5.136 49.653 3.448 48.678 3.453 47.075" class="color9ad898 svgShape"></polygon><polygon fill="#98b8d8" points="16.447 57.205 16.442 58.808 6.008 52.739 6.013 51.135" class="color9ad898 svgShape"></polygon><polygon fill="#f4f6f8" points="22.768 54.627 22.772 56.23 33.206 50.16 33.202 48.557" class="colore4e8f4 svgShape"></polygon><polygon fill="#f4f6f8" points="34.087 50.628 34.092 52.231 35.78 51.257 35.776 49.653" class="colore4e8f4 svgShape"></polygon><polygon fill="#f4f6f8" points="34.081 48.05 34.085 49.653 35.773 48.678 35.769 47.075" class="colore4e8f4 svgShape"></polygon><polygon fill="#f4f6f8" points="22.774 57.205 22.779 58.808 33.213 52.739 33.209 51.135" class="colore4e8f4 svgShape"></polygon></g><g fill="#010001" class="color000000 svgShape"><polygon fill="#7abcfe" points="34.083 104.046 34.088 105.649 35.776 104.675 35.772 103.071" class="colorfed57a svgShape"></polygon></g><g fill="#010001" class="color000000 svgShape"><polygon fill="#7abcfe" points="34.077 101.468 34.081 103.071 35.769 102.097 35.765 100.493" class="colorfed57a svgShape"></polygon></g><g fill="#010001" class="color000000 svgShape"><path fill="#a375ca" d="M1.5019,97.1989l0.0106,7.8419c0,0.1383,0.0958,0.2766,0.2766,0.3831l17.0971,9.9369
							c0.3723,0.2128,0.9681,0.2128,1.3405,0l17.2141-9.9369c0.1808-0.1064,0.2766-0.2447,0.2766-0.3831l-0.0213-7.8419
							c0,0.149-0.0958,0.2872-0.2766,0.3936l-17.2141,9.9369c-0.3617,0.2128-0.9575,0.2128-1.3299-0.0106l-17.1077-9.937
							C1.587,97.4756,1.5019,97.3372,1.5019,97.1989z" class="color75ca75 svgShape"></path><path fill="#98b8d8" d="M1.7764,96.8162c-0.3668,0.2118-0.3688,0.5569-0.0043,0.7687l17.1009,9.938
							c0.3712,0.2157,0.967,0.2157,1.3338,0.0039l17.2127-9.9378c0.3736-0.2157,0.3688-0.5569-0.0024-0.7726l-17.1009-9.9379
							c-0.3644-0.2118-0.9535-0.2157-1.3271,0L1.7764,96.8162z" class="color9ad898 svgShape"></path><path fill="#986eba" d="M6.2119,96.9121c-0.2755,0.1591-0.277,0.4183-0.0032,0.5774l12.8449,7.4646
							c0.2788,0.162,0.7263,0.162,1.0018,0.0029l12.9289-7.4645c0.2806-0.162,0.277-0.4183-0.0018-0.5803l-12.8449-7.4646
							c-0.2737-0.1591-0.7162-0.162-0.9968,0L6.2119,96.9121z" class="color6eba6e svgShape"></path><path fill="#98b8d8" d="M9.5436,96.9841c-0.207,0.1195-0.208,0.3142-0.0024,0.4337l9.6481,5.6069
							c0.2094,0.1217,0.5456,0.1217,0.7525,0.0022l9.7112-5.6068c0.2108-0.1217,0.208-0.3142-0.0014-0.4359l-9.6481-5.6069
							c-0.2056-0.1195-0.5379-0.1217-0.7487,0L9.5436,96.9841z" class="color9ad898 svgShape"></path><polygon fill="#7abcfe" points="22.764 108.045 22.768 109.648 33.203 103.579 33.198 101.975" class="colorfed57a svgShape"></polygon><polygon fill="#7abcfe" points="22.77 110.623 22.775 112.226 33.209 106.157 33.205 104.553" class="colorfed57a svgShape"></polygon><polygon fill="#724c91" points="16.45 108.045 16.445 109.648 6.011 103.579 6.016 101.975" class="color4c7891 svgShape"></polygon><polygon fill="#724c91" points="5.13 104.046 5.126 105.649 3.438 104.675 3.442 103.071" class="color4c7891 svgShape"></polygon><polygon fill="#724c91" points="5.137 101.468 5.132 103.071 3.444 102.097 3.449 100.493" class="color4c7891 svgShape"></polygon><polygon fill="#724c91" points="16.443 110.623 16.439 112.226 6.004 106.157 6.009 104.553" class="color4c7891 svgShape"></polygon></g><g fill="#010001" class="color000000 svgShape"><path fill="#fa51db" d="M93.2844,43.7808l0.0106,7.8419c0,0.1383,0.0958,0.2766,0.2766,0.3831l17.0971,9.9369
							c0.3723,0.2128,0.9681,0.2128,1.3405,0l17.2141-9.9369c0.1808-0.1064,0.2766-0.2447,0.2766-0.3831l-0.0213-7.8419
							c0,0.149-0.0958,0.2872-0.2766,0.3936l-17.2141,9.9369c-0.3617,0.2128-0.9576,0.2128-1.3299-0.0106l-17.1077-9.937
							C93.3695,44.0575,93.2844,43.9191,93.2844,43.7808z" class="colorfa5168 svgShape"></path><path fill="#f960dd" d="M93.5589,43.3981c-0.3668,0.2118-0.3688,0.5569-0.0043,0.7687l17.1009,9.9379
							c0.3712,0.2157,0.967,0.2157,1.3338,0.0039l17.2127-9.9378c0.3736-0.2157,0.3688-0.5569-0.0024-0.7726l-17.1009-9.9379
							c-0.3644-0.2118-0.9535-0.2157-1.3271,0L93.5589,43.3981z" class="colorf9607f svgShape"></path><path fill="#a50b89" d="M97.9944,43.494c-0.2755,0.1591-0.277,0.4183-0.0032,0.5774l12.8449,7.4646
							c0.2788,0.162,0.7263,0.162,1.0018,0.0029l12.9289-7.4645c0.2806-0.162,0.277-0.4183-0.0018-0.5803l-12.8449-7.4646
							c-0.2737-0.1591-0.7162-0.162-0.9968,0L97.9944,43.494z" class="colore63044 svgShape"></path><path fill="#f960dd" d="M101.3261,43.566c-0.207,0.1195-0.208,0.3142-0.0024,0.4337l9.6481,5.6069
							c0.2094,0.1217,0.5456,0.1217,0.7525,0.0022l9.7112-5.6068c0.2108-0.1217,0.208-0.3142-0.0014-0.4359l-9.6481-5.6069
							c-0.2056-0.1195-0.5379-0.1217-0.7487,0L101.3261,43.566z" class="colorf9607f svgShape"></path><polygon fill="#7abcfe" points="114.546 54.627 114.551 56.23 124.985 50.16 124.981 48.557" class="colorfed57a svgShape"></polygon><polygon fill="#7abcfe" points="125.866 50.628 125.87 52.231 127.558 51.257 127.554 49.653" class="colorfed57a svgShape"></polygon><polygon fill="#7abcfe" points="125.859 48.05 125.864 49.653 127.552 48.678 127.547 47.075" class="colorfed57a svgShape"></polygon><polygon fill="#7abcfe" points="114.553 57.205 114.558 58.808 124.992 52.739 124.987 51.135" class="colorfed57a svgShape"></polygon><polygon fill="#f4f6f8" points="108.232 54.627 108.228 56.23 97.793 50.16 97.798 48.557" class="colore4e8f4 svgShape"></polygon><polygon fill="#f4f6f8" points="96.913 50.628 96.908 52.231 95.22 51.257 95.225 49.653" class="colore4e8f4 svgShape"></polygon><polygon fill="#f4f6f8" points="96.919 48.05 96.915 49.653 95.227 48.678 95.231 47.075" class="colore4e8f4 svgShape"></polygon><polygon fill="#f4f6f8" points="108.225 57.205 108.221 58.808 97.787 52.739 97.791 51.135" class="colore4e8f4 svgShape"></polygon></g><g fill="#010001" class="color000000 svgShape"><path fill="#bac4ce" d="M77.9551,38.3741c0.051,2.421-1.6055,5.4026-3.6697,6.6513l-12.2578,7.3649
								c-2.0642,1.2487-3.7971,0.3058-3.8481-2.1152c-0.0255-1.7329,0.8155-3.7461,2.0897-5.2242
								c-0.0764-0.2039-0.1019-0.4587-0.1019-0.739c-0.051-1.9623,1.2742-4.3833,2.9816-5.4026
								c0.4077-0.2294,0.79-0.3823,1.1468-0.4078c0.4077-2.0897,1.8348-4.3323,3.5423-5.3516
								c1.7584-1.0704,3.2619-0.5352,3.7206,1.0958c0.2294-0.2039,0.4587-0.3823,0.7136-0.5352
								c1.6819-0.9939,3.0835-0.2293,3.1345,1.7075v0.3567C76.8338,35.5454,77.9041,36.5138,77.9551,38.3741z" class="colorbac1ce svgShape"></path></g><g fill="#010001" class="color000000 svgShape"><polygon fill="#724c91" points="62.861 56.67 62.864 57.525 58.928 59.798 58.925 58.943" class="color4c7891 svgShape"></polygon><polygon fill="#724c91" points="62.855 54.342 62.857 55.207 58.921 57.48 58.919 56.614" class="color4c7891 svgShape"></polygon><polygon fill="#724c91" points="73.593 50.474 73.596 51.329 68.109 54.497 68.106 53.642" class="color4c7891 svgShape"></polygon><polygon fill="#724c91" points="73.6 52.792 73.602 53.658 68.115 56.825 68.113 55.96" class="color4c7891 svgShape"></polygon><polygon fill="#724c91" points="68.575 51.039 68.577 51.905 63.404 54.892 63.402 54.026" class="color4c7891 svgShape"></polygon><polygon fill="#724c91" points="79 47.353 79.002 48.208 74.143 51.014 74.14 50.158" class="color4c7891 svgShape"></polygon><polygon fill="#724c91" points="78.993 45.025 78.996 45.89 75.06 48.162 75.057 47.297" class="color4c7891 svgShape"></polygon><polygon fill="#724c91" points="79.006 49.671 79.009 50.536 74.149 53.342 74.147 52.477" class="color4c7891 svgShape"></polygon><polygon fill="#724c91" points="74.51 47.613 74.513 48.478 69.34 51.465 69.337 50.599" class="color4c7891 svgShape"></polygon><polygon fill="#724c91" points="67.351 56.4 67.353 57.266 63.417 59.538 63.415 58.673" class="color4c7891 svgShape"></polygon><polygon fill="#724c91" points="67.344 54.082 67.347 54.937 63.411 57.21 63.408 56.355" class="color4c7891 svgShape"></polygon><polygon fill="#724c91" points="62.868 58.988 62.87 59.854 58.935 62.126 58.932 61.261" class="color4c7891 svgShape"></polygon><polygon fill="#f960dd" points="62.885 62.34 62.887 63.195 58.951 65.468 58.949 64.613" class="colorf9607f svgShape"></polygon><polygon fill="#f960dd" points="67.381 64.388 67.383 65.253 63.447 67.526 63.445 66.66" class="colorf9607f svgShape"></polygon><polygon fill="#f960dd" points="67.374 62.07 67.376 62.935 63.441 65.208 63.438 64.342" class="colorf9607f svgShape"></polygon><polygon fill="#f960dd" points="79.029 55.341 79.032 56.206 74.172 59.012 74.17 58.146" class="colorf9607f svgShape"></polygon><polygon fill="#f960dd" points="79.036 57.659 79.038 58.524 74.179 61.33 74.177 60.464" class="colorf9607f svgShape"></polygon><g fill="#010001" class="color000000 svgShape"><polygon fill="#f960dd" points="73.623 58.462 73.626 59.328 68.139 62.495 68.136 61.63" class="colorf9607f svgShape"></polygon><polygon fill="#f960dd" points="74.54 55.611 74.543 56.466 69.369 59.453 69.367 58.598" class="colorf9607f svgShape"></polygon></g><polygon fill="#f960dd" points="73.63 60.78 73.632 61.645 68.145 64.813 68.143 63.948" class="colorf9607f svgShape"></polygon><polygon fill="#f960dd" points="68.605 59.038 68.607 59.893 63.434 62.88 63.432 62.024" class="colorf9607f svgShape"></polygon><polygon fill="#f960dd" points="79.023 53.023 79.025 53.878 75.089 56.15 75.087 55.295" class="colorf9607f svgShape"></polygon><polygon fill="#f960dd" points="62.891 64.658 62.894 65.524 58.958 67.796 58.955 66.931" class="colorf9607f svgShape"></polygon><polygon fill="#f960dd" points="62.898 66.976 62.9 67.842 58.964 70.114 58.962 69.249" class="colorf9607f svgShape"></polygon></g><g fill="#010001" class="color000000 svgShape"><polygon fill="#f4f6f8" points="124.964 79.188 124.921 97.452 111.467 105.27 111.511 87.006" opacity=".3" class="color748bfd svgShape"></polygon><polygon fill="#f4f6f8" points="111.511 87.006 111.467 105.27 97.913 97.445 97.956 79.18" opacity=".3" class="color748bfd svgShape"></polygon><polygon fill="#5046e4" points="124.964 79.188 111.511 87.006 97.956 79.18 111.409 71.362" opacity=".3" class="color576cfb svgShape"></polygon></g><g fill="#010001" class="color000000 svgShape"><polygon fill="#f4f6f8" points="124.836 25.759 124.793 44.023 111.339 51.841 111.382 33.577" opacity=".3" class="color748bfd svgShape"></polygon><polygon fill="#f4f6f8" points="111.382 33.577 111.339 51.841 97.785 44.016 97.828 25.751" opacity=".3" class="color748bfd svgShape"></polygon><polygon fill="#5046e4" points="124.836 25.759 111.382 33.577 97.828 25.751 111.281 17.933" opacity=".3" class="color576cfb svgShape"></polygon></g><g fill="#010001" class="color000000 svgShape"><polygon fill="#f4f6f8" points="33.042 79.188 32.999 97.452 19.545 105.27 19.588 87.006" opacity=".3" class="color748bfd svgShape"></polygon><polygon fill="#f4f6f8" points="19.588 87.006 19.545 105.27 5.99 97.445 6.034 79.18" opacity=".3" class="color748bfd svgShape"></polygon><polygon fill="#5046e4" points="33.042 79.188 19.588 87.006 6.034 79.18 19.487 71.362" opacity=".3" class="color576cfb svgShape"></polygon></g><g fill="#010001" class="color000000 svgShape"><polygon fill="#f4f6f8" points="32.914 25.759 32.871 44.023 19.417 51.841 19.46 33.577" opacity=".3" class="color748bfd svgShape"></polygon><polygon fill="#f4f6f8" points="19.46 33.577 19.417 51.841 5.862 44.016 5.905 25.751" opacity=".3" class="color748bfd svgShape"></polygon><polygon fill="#5046e4" points="32.914 25.759 19.46 33.577 5.905 25.751 19.359 17.933" opacity=".3" class="color576cfb svgShape"></polygon></g></svg>