<svg xmlns="http://www.w3.org/2000/svg" viewBox="0 0 350 350" id="WorkingTogether"><path fill="#f4f6f8" d="m303.099 219.304-.04 9.59c0 1.74-1.14 3.47-3.42 4.79l-115.83 67.32c-4.58 2.66-12.04 2.66-16.65 0l-116.59-67.32c-2.32-1.33-3.48-3.09-3.47-4.85l.03-9.57c0-1.74 1.14-3.48 3.42-4.81l115.83-67.31c4.58-2.66 12.04-2.66 16.65 0l116.6 67.31c2.32 1.34 3.47 3.1 3.47 4.85z" class="colore4f0ff svgShape"></path><path fill="#726cc6" d="m303.099 219.304-.04 9.59c0 1.74-1.14 3.47-3.42 4.79l-115.83 67.32c-4.58 2.66-12.04 2.66-16.65 0l-116.59-67.32c-2.32-1.33-3.48-3.09-3.47-4.85l.03-9.57c0-1.74 1.14-3.48 3.42-4.81l115.83-67.31c4.58-2.66 12.04-2.66 16.65 0l116.6 67.31c2.32 1.34 3.47 3.1 3.47 4.85z" class="color6c8ac6 svgShape"></path><path fill="#726cc6" d="m299.673 224.1-115.831 67.314c-4.58 2.662-12.037 2.665-16.647.004L50.6 224.102c-2.318-1.339-3.475-3.096-3.47-4.851l-.035 9.587c-.005 1.755 1.152 3.513 3.47 4.851l116.596 67.317c4.609 2.661 12.066 2.657 16.646-.004l115.831-67.314c2.277-1.323 3.417-3.056 3.422-4.79l.035-9.589c-.005 1.736-1.145 3.468-3.422 4.792z" class="color6c8ac6 svgShape"></path><path fill="#f4f6f8" d="M299.625 214.458c4.61 2.662 4.628 6.981.048 9.642l-115.831 67.314c-4.58 2.662-12.037 2.665-16.647.004L50.6 224.102c-4.61-2.662-4.628-6.981-.048-9.643l115.831-67.313c4.58-2.662 12.037-2.665 16.647-.004l116.595 67.316z" class="colore4f0ff svgShape"></path><path fill="#6bb2f9" d="M183.752 99.45c3.21 5.445 7.974 10.331 12.853 14.279 3.239 2.615 6.556 4.872 9.895 7.035l71.818 41.47c3.711 1.01 7.272 1.561 10.546 1.454 7.322-.222 13.076-4.048 14.086-11.543.566-4.27-.495-9.772-3.597-15.174-2.98-5.187-7.422-9.63-11.958-13.32-3.367-2.743-7.515-4.842-10.696-7.916-3.224-3.117-2.945-6.541-2.623-9.128.846-6.842 5.675-11.943 2.408-21.157-2.5-7.057-9.486-14.05-16.035-17.833-6.641-3.804-12.91-5.008-18.957-6.104-6.047-1.089-12.273-2.214-18.843-5.86-2.478-1.36-6.341-4.047-9.773-6.033-3.26-1.834-6.691-3.124-9.077-2.429-4.385 1.275-3.511 8.419-1.662 14.795 1.848 6.37 4.327 13.555 2.099 17.453-3.883 6.763-19.008-1.168-23.099 5.395-1.97 3.167-.587 9.17 2.615 14.616z" opacity=".17" class="colorf9cf6b svgShape"></path><path fill="#746bf9" d="M50.743 152.551c3.629 1.66 7.562 1.87 11.648 1.32 5.108-1.347 9.98-3.82 14.49-6.398 5.236-3.017 10.567-6.668 15.878-10.276 7.773-5.254 14.904-10.031 23.22-13.526 5.338-2.184 10.506-3.572 15.785-5.443 3.773-1.337 7.706-2.987 11.589-5.23 6.14-3.533 11.619-8.297 15.581-14.305 6.466-9.968 2.673-13.634.525-18.038-.55-1.117-1.007-2.31-1.193-3.699-.55-4.282 1.548-9.996 3.088-15.311 1.54-5.325 2.461-10.894-.237-13.366-2.732-2.488-8.518-1.066-14.017 1.863-4.367 2.32-8.605 5.422-12.917 8.447a71.41 71.41 0 0 0-2.791 2.048c-.136.11-.263.195-.39.305a55.953 55.953 0 0 1-5.38 3.58c-2.782 1.609-5.566 2.836-8.247 3.665-3.4 1.05-6.683 1.617-9.813 1.947-5.608.618-10.929.61-16.79 1.803-7.074 1.467-13.472 4.55-18.662 8.66-6.192 4.875-11.775 12.425-12.46 18.231a11.524 11.524 0 0 0 .042 2.971c.306 1.953.847 2.936 2.022 6.331.996 3.182 1.038 6.287-1.717 11.698l-5.482 9.074c-2.526 3.807-5.574 8.635-6.868 12.713-1.386 4.417-1.1 9.01 3.096 10.936z" opacity=".17" class="color6bb4f9 svgShape"></path><path fill="#c6ddf5" d="M186.538 124.068s-2.016-.166-3.562-1.378c-1.545-1.212-2.795-.897-2.75.235.047 1.132 4.528 5.535 6.529 5.625s2.805-2.515 2.308-3.654-1.738-3.64-2.748-3.3c-.789.266-.555 1.894.223 2.472z" class="colorf5c9c6 svgShape"></path><path fill="#5aa0e7" d="M156.606 204.073c-.5-.278-1.193-.25-1.97.194l-21.084 12.317-30.682-17.838 21.084-12.317c.777-.444 1.47-.472 1.97-.194l30.682 17.838z" class="color78e75a svgShape"></path><path fill="#6822a2" d="M153.691 193.775a4.25 4.25 0 0 0-5.243-2.94l-.817.235-12.95 3.65v6.72c1.162-.985 2.237-1.86 3.073-2.317l1.139 1.506 14.881-2.22.076-3.569a4.365 4.365 0 0 0-.159-1.065z" class="color4c5c75 svgShape"></path><path fill="#deecfb" d="m232.307 166.202-2.824 1.664c-.43.252-1.034.202-1.716-.176l-1.059-.606 2.85-1.639.63.353.43.252c.655.379 1.26.404 1.69.152z" class="colordedffb svgShape"></path><path fill="#ffffff" d="M189.58 125.594h.512a44.855 44.855 0 0 0-.777-.44 2.443 2.443 0 0 0-3.362.796 2.46 2.46 0 0 0 .796 3.369c.893.42 1.844.931 2.831 1.5v-5.225z" class="colorffffff svgShape"></path><path fill="#5046e4" d="M214.19 124.944c-.233.29-.523.563-.804.78l-14.225 10.751-.266.21c-.86.65-2.01.667-2.879.136-3.442-2.404-6.535-4.815-8.888-7.24-1.206-.747-1.584-2.331-.836-3.538s2.324-1.584 3.53-.836a72.494 72.494 0 0 1 7.457 6.564c2.42-4.181 5.613-8.781 9.577-12.826 1.657-2.026 4.64-2.324 6.667-.667s2.324 4.64.667 6.666z" class="color497bfe svgShape"></path><path fill="#6822a2" d="M206.432 174.976c0 .476-.18.82-.443.968l-1.184.7c.279-.165-.4-.38-.4-.856 0-.952.186-2.23-.65-2.706-.427-.246-.817-.26-1.096-.096l1.197-.702c.279-.164.656-.131 1.083.098.837.493 1.493 1.625 1.493 2.594z" class="color4c5c75 svgShape"></path><path fill="#431d43" d="M203.755 173.078c-.828-.478-1.512-.112-1.514.85-.003.952.676 2.128 1.504 2.606.838.484 1.5.082 1.503-.869.003-.963-.655-2.103-1.493-2.587z" class="color1d2943 svgShape"></path><path fill="#deecfb" d="M203.75 173.774c-.494-.285-.901-.067-.903.508-.002.568.404 1.27.898 1.555.5.289.895.049.897-.519.002-.575-.391-1.255-.892-1.544zM215.93 180.399l1.171-.68.008-2.826-1.171.68z" class="colordedffb svgShape"></path><path fill="#6822a2" d="m215.938 177.573 1.171-.68-13.211-7.628-1.171.681z" class="color4c5c75 svgShape"></path><path fill="#331133" d="m202.727 169.946-.008 2.826 13.211 7.627.008-2.826z" class="color111d33 svgShape"></path><path fill="#6822a2" d="M233.215 175.352c0 .476.18.82.443.968l1.185.7c-.28-.165.215-.411.215-.887 0-.952 1.081-1.38 1.918-1.857.427-.246-.279-1.097 0-.933l-1.184-.683c-.279-.164-.656-.131-1.083.098-.837.493-1.494 1.625-1.494 2.594z" class="color4c5c75 svgShape"></path><path fill="#431d43" d="M235.893 173.454c.828-.478 1.511-.112 1.514.85.003.952-.676 2.128-1.504 2.606-.838.484-1.5.082-1.504-.869-.002-.963.656-2.103 1.494-2.587z" class="color1d2943 svgShape"></path><path fill="#deecfb" d="M235.897 174.15c.494-.285.902-.067.904.508.001.568-.404 1.27-.898 1.555-.5.289-.896.049-.897-.519-.002-.575.39-1.255.891-1.544zM224.02 180.399l-1.171-.68-.008-2.826 1.171.68z" class="colordedffb svgShape"></path><path fill="#6822a2" d="m223.806 177.692-.965-.8 13.211-7.627 1.171.68c-3.716 3.19-8.447 5.738-13.417 7.747z" class="color4c5c75 svgShape"></path><path fill="#331133" d="m237.223 169.946.008 2.826-13.211 7.627-.214-2.707z" class="color111d33 svgShape"></path><path fill="#9eb3c9" d="M224.144 178.433v4.083c-.002.714-.593 1.492-1.527 2.035-1.878 1.091-4.942 1.099-6.845 0-.95-.549-1.305-1.338-1.303-2.061v-4.084c-.002.723.795.93 1.746 1.479 1.903 1.099 4.572.733 6.45-.358.934-.543 1.476-.38 1.479-1.094z" class="color9ea9c9 svgShape"></path><path fill="#c9d5e2" d="M222.715 176.438c1.903 1.099 1.9 2.873.022 3.964-1.877 1.091-4.941 1.1-6.844 0-1.89-1.09-1.9-2.873-.022-3.964 1.877-1.091 4.954-1.091 6.844 0z" class="colorc9cee2 svgShape"></path><path fill="#431d43" d="m221.741 156.663-.06 21.598c-.002.363-.24.725-.716 1.001-.955.555-2.513.559-3.48 0-.484-.28-.725-.647-.724-1.015l.061-21.598c0 .368.24.736.724 1.015.968.559 2.526.555 3.48 0 .475-.276.714-.638.715-1.001z" class="color1d2943 svgShape"></path><path fill="#c9d5e2" d="M221.015 155.648c.968.559.966 1.461.011 2.016-.954.555-2.512.559-3.48 0-.96-.555-.966-1.461-.011-2.016.954-.555 2.52-.555 3.48 0z" class="colorc9cee2 svgShape"></path><path fill="#6822a2" d="M237.454 192.922c0 .476-.18.821-.443.969l-1.185.7c.28-.165.443-.51.443-.986 0-.952-.656-2.1-1.493-2.576-.427-.246-.804-.28-1.083-.115l1.184-.683c.279-.164.657-.132 1.083.098.837.492 1.494 1.625 1.494 2.593z" class="color4c5c75 svgShape"></path><path fill="#431d43" d="M234.776 191.025c-.828-.478-1.511-.113-1.514.85-.003.952.676 2.128 1.504 2.606.838.484 1.5.082 1.504-.869.002-.963-.656-2.103-1.494-2.587z" class="color1d2943 svgShape"></path><path fill="#deecfb" d="M234.772 191.72c-.494-.284-.902-.066-.904.509-.001.567.404 1.27.898 1.554.5.29.896.05.897-.518.002-.575-.39-1.255-.891-1.544z" class="colordedffb svgShape"></path><path fill="#331133" d="m235.586 191.747 1.171-.68.008-2.826-1.171.68z" class="color111d33 svgShape"></path><path fill="#6822a2" d="m235.594 188.921 1.17-.68-13.21-7.628-1.171.68c4 3.403 8.421 5.909 13.21 7.628z" class="color4c5c75 svgShape"></path><path fill="#331133" d="m222.383 181.294-.008 2.826 13.211 7.627.008-2.826z" class="color111d33 svgShape"></path><path fill="#6822a2" d="M202.55 192.825c0 .475.18.82.443.968l1.185.7c-.28-.165.253-.502.253-.978 0-.952.14-1.39.978-1.865.426-.247.623-.998.902-.834l-1.184-.683c-.279-.164-.656-.132-1.083.098-.837.493-1.494 1.625-1.494 2.594z" class="color4c5c75 svgShape"></path><path fill="#431d43" d="M205.228 190.927c.828-.478 1.511-.112 1.514.85.003.952-.676 2.128-1.504 2.606-.838.484-1.5.082-1.503-.869-.003-.963.655-2.103 1.493-2.587z" class="color1d2943 svgShape"></path><path fill="#deecfb" d="M205.232 191.623c.494-.285.902-.067.904.508.001.568-.404 1.27-.898 1.555-.5.289-.896.049-.897-.519-.002-.575.39-1.255.891-1.544z" class="colordedffb svgShape"></path><path fill="#331133" d="m204.364 191.747-1.17-.68-.009-2.826 1.171.68c1.064.513.878 1.531.008 2.826z" class="color111d33 svgShape"></path><path fill="#6822a2" d="m204.356 188.921-1.17-.68 12.466-7.198 1.17.681c-3.704 4.025-7.924 6.192-12.466 7.197z" class="color4c5c75 svgShape"></path><path fill="#331133" d="m216.823 181.724.008 2.826-12.467 7.197-.008-2.826z" class="color111d33 svgShape"></path><path fill="#c4c5c6" d="m200.287 151.398 1.071.619 2.397-1.396.439-.256-.435-.252-.622-.359z" class="colorc4c6c6 svgShape"></path><path fill="#c4c5c6" d="m203.057 152.18 2.837-1.648c-.435.252-1.037.217-1.7-.166l-2.837 1.649c.663.383 1.265.418 1.7.165z" class="colorc4c6c6 svgShape"></path><path fill="#d4d5d6" d="m203.65 153.204 2.837-1.649c.58-.337.94-1.052.943-2.069l-2.837 1.649c-.003 1.016-.363 1.732-.942 2.069z" class="colord4d6d6 svgShape"></path><path fill="#deecfb" d="m204.593 151.135 2.837-1.649.052-15.473-2.837 1.649z" class="colordedffb svgShape"></path><path fill="#eceef1" d="m204.645 135.662 2.837-1.649-.839-.484-2.837 1.649z" class="colorecf0f1 svgShape"></path><path fill="#f4f6f8" d="m199.452 151.882 1.903 1.098c.905.525 1.727.567 2.317.21.004-.003.007-.003.014-.006.007-.007.018-.01.024-.017.042-.028.083-.056.121-.087.042-.03.083-.069.121-.103.007-.01.017-.017.028-.028.038-.038.076-.083.114-.128a1.713 1.713 0 0 0 .19-.29c.017-.027.027-.052.041-.08a2.422 2.422 0 0 0 .163-.445c.003-.007.003-.014.007-.024l.03-.142c.014-.069.028-.141.039-.214.007-.065.013-.134.017-.204a.587.587 0 0 0 .007-.134c.007-.049.007-.1.007-.152l.003-.577.042-12.95.003-.594.003-1.354-.839-.483-.007 2.324-.003.598-.038 12.013-.004.508v.028c-.003.735-.259 1.257-.67 1.516-.017.01-.034.017-.052.024a.362.362 0 0 1-.096.049.852.852 0 0 1-.187.065c-.045.01-.09.021-.135.024-.366.052-.797-.044-1.257-.31l-1.07-.619-.836.484z" class="colorf3f1fc svgShape"></path><path fill="#431d43" d="M199.43 138.724c-.002.28.183.562.555.777.737.423 1.926.423 2.657 0l7.658-4.451c.365-.213.546-.491.546-.77l.002-1.322c0 .278-.182.555-.544.766l-7.66 4.45c-.731.426-1.92.426-2.655 0-.372-.214-.557-.494-.557-.775l-.002 1.325z" class="color1d2943 svgShape"></path><path fill="#6822a2" d="M210.294 132.185c.368.212.552.491.554.77.002.278-.18.557-.545.769l-7.658 4.45c-.732.425-1.921.425-2.657 0-.737-.425-.74-1.114-.01-1.539l7.659-4.45c.73-.426 1.92-.426 2.657 0z" class="color4c5c75 svgShape"></path><path fill="#f451d6" d="M244.515 120.248c-.454-.278-1.135-.227-1.867.201-1.463.833-2.648 2.876-2.648 4.566l.076 28.248-26.61-15.461-.075-28.248c0-.58.126-1.186.353-1.766.681-1.715 2.346-2.8 4.187-3.001l26.584 15.46z" class="colorf45170 svgShape"></path><path fill="#e935c8" d="m240.076 153.263-18.891 10.92c-1.463.833-2.649 2.876-2.649 4.566 0 .832.303 1.412.782 1.69l-26.609-15.461c-.479-.277-.781-.858-.781-1.69 0-1.69 1.185-3.733 2.648-4.59l18.89-10.896 26.61 15.46z" class="colore93565 svgShape"></path><path fill="#a50b89" d="M242.641 120.44c-1.463.845-2.647 2.892-2.642 4.574l.066 28.252-18.89 10.906c-1.463.845-2.644 2.89-2.64 4.572.005 1.682 1.194 2.363 2.658 1.518l21.54-12.437c.698-.403 1.38-1.123 1.87-1.973.494-.854.773-1.8.77-2.603l-.074-31.295c-.005-1.682-1.194-2.36-2.658-1.514z" class="colorcc104a svgShape"></path><path fill="#eceef1" d="m231.066 151.34 2.836-1.648-.839-.485-2.836 1.649z" class="colorecf0f1 svgShape"></path><path fill="none" d="m225.209 167.944.663-.384.836-.483 2.85-1.644.335-.194"></path><path fill="#331133" d="m214.309 153.315-16.856 9.117-7.823 27.744c-2.488.808-4.864 1.032-7.094-.123l2.925-29.931c.033-2.31 1.378-4.867 3.63-6.426l25.106-13.547c2.118-1.144 4.841-.045 5.39 2.299.886 3.813-1.457 8.792-5.278 10.867z" class="color111d33 svgShape"></path><path fill="#431d43" d="M224.797 159.883 207.94 169l-7.823 27.745c-2.488.807-4.864 1.031-7.094-.124l2.925-29.93c.034-2.31 1.378-4.868 3.631-6.427l25.105-13.547c2.118-1.143 4.841-.044 5.39 2.3.886 3.812-1.456 8.791-5.278 10.866z" class="color1d2943 svgShape"></path><path fill="#6257fe" d="M230.24 152.132c-.683 3.539-7.422 2.839-7.422 2.839-7.35-.281-12.335-3.257-12.335-3.257-4.938-2.91-5.243-8.106-5.243-8.106-.611-8.541.648-18.652 1.289-23.016.34-2.314 2.558-3.966 4.836-3.436l.05.012.732 1.295c0 3.112 1.705 5.388 1.705 5.388 4.72-.097 7.117-3.82 7.117-3.82l1.166 1.447c4.028 2.236 6.167 4.737 6.167 4.737 2.3 2.798 1.938 25.917 1.938 25.917z" class="color57b3fe svgShape"></path><path fill="#ffffff" d="M209.831 137.673c.114 1.748.32 3.175.653 4.021.519-.956 1.046-1.918 1.58-2.885 3.114-5.633 6.49-11.422 10.068-17.328l-1.164-1.45s-2.393 3.723-7.12 3.821c0 0-1.704-2.28-1.704-5.39l-.725-1.293-1.02 2.429c-.034.337-.07.727-.107 1.162-.343 4.012-.793 11.82-.461 16.913z" class="colorffffff svgShape"></path><path fill="#f451d6" d="M209.831 137.673c.114 1.748.32 3.175.653 4.021.519-.956 1.385-2.448 1.92-3.414.766-3.303 1.057-7.292 1.651-12.144l.628.007.457-1.547-1.291-.744-1.877.188v.98l.792.615-2.933 12.038z" class="colorf45170 svgShape"></path><path fill="#5046e4" d="m222.132 121.481-3.356 11.888-2.038-.596-.223 2.773-6.031 6.148 1.58-2.885z" class="color497bfe svgShape"></path><path fill="#c6ddf5" d="M220.91 117.823v3.489l-5.158 3.029-1.903-.489s-1.987-2.513-2.048-2.54c-.062-.028.343-2.85.343-2.85l4.164-3.568 4.602 2.93z" class="colorf5c9c6 svgShape"></path><path fill="#deecfb" d="M213.849 123.852c.51.738.799 1.793.945 3.05 3.738-.89 6.11-2.75 7.338-5.421l-1.164-1.45s-2.393 3.723-7.12 3.821z" class="colordedffb svgShape"></path><path fill="#deecfb" d="M210.292 120.76c.006 1.162.174 2.238.5 3.23.196.598.45 1.164.76 1.7.515-1.037 1.304-1.608 2.297-1.838 0 0-1.643-2.334-1.643-5.445l-.787-1.238-1.063 2.531c-.027.342-.046.7-.064 1.06z" class="colordedffb svgShape"></path><path fill="#5046e4" d="M210.484 141.694c-.791-4.526-.312-10.954.308-17.703.207-2.258.43-4.552.627-6.822l-1.02 2.429-.043.102-2.58 6.143.448 3.131-.555 3.27c.78 3.9 1.346 7.277 2.815 9.45z" class="color497bfe svgShape"></path><path fill="#d4e4f4" d="M210.572 110.01c-.426 5.538.847 7.159.847 7.159 2.418 4.983 7.916 2.036 9.491.654 1.576-1.382 2.544-4.368 2.544-4.368.137-.33.25-.658.343-.982.473-1.664.388-3.214.087-4.513-1.199-5.163-7.447-7.275-11.448-3.797-.662.576-1.17 1.233-1.484 1.877-1.298 2.664-.396 3.946-.38 3.97z" class="colorf4d6d4 svgShape"></path><path fill="#3f263f" d="M210.572 110.01s1.16 1.389 3.563 1.6c0 0 2.112.341 3.087-.46 0 0 .904-.615 1.59.332 0 0 1.032.914 1.397 3.155 0 0 .012.707.512.678.5-.03.496-1.86.496-1.86s.66-2.246 2.58-.982c.473-1.664.388-3.214.087-4.513-1.199-5.163-7.447-7.275-11.448-3.797-.662.576-1.17 1.233-1.484 1.877-1.298 2.664-.396 3.946-.38 3.97z" class="color262e3f svgShape"></path><path fill="#6822a2" d="m227.769 213.344-.01 2.611-15.87 11.42-19.68 9.24.01-2.611-4.05-2.339 15.88-11.43 19.67-9.231z" class="color4c5c75 svgShape"></path><path fill="#431d43" d="m227.764 213.342-.007 2.612-15.872 11.424.008-2.613z" class="color1d2943 svgShape"></path><path fill="#331133" d="m211.893 224.765-.008 2.613-19.676 9.234.008-2.612z" class="color111d33 svgShape"></path><path fill="#6822a2" d="m227.764 213.342-15.871 11.423L192.217 234l-4.046-2.336 15.876-11.428 19.672-9.23z" class="color4c5c75 svgShape"></path><path fill="#431d43" d="m192.217 234-.008 2.612-4.045-2.335.007-2.613z" class="color1d2943 svgShape"></path><path fill="#b0bfcf" d="m212.989 202.544-.06 19.701-4.48 2.599-4.5-2.599.06-19.701 4.51 2.601z" class="colorb0b8cf svgShape"></path><path fill="#b0bfcf" d="m212.988 202.545-.062 19.702-4.472 2.599.062-19.702z" class="colorb0b8cf svgShape"></path><path fill="#9eb3c9" d="m208.516 205.144-.062 19.702-4.506-2.601.062-19.702z" class="color9ea9c9 svgShape"></path><path fill="#3a193a" d="m212.988 202.545-4.472 2.599-4.506-2.601 4.473-2.599z" class="color19233a svgShape"></path><path fill="#431d43" d="m153.751 170.61-.007 2.613-15.872 11.423.008-2.612z" class="color1d2943 svgShape"></path><path fill="#331133" d="m137.88 182.034-.008 2.612-19.676 9.235.008-2.613z" class="color111d33 svgShape"></path><path fill="#431d43" d="m118.204 191.268-.008 2.613-4.045-2.336.007-2.613z" class="color1d2943 svgShape"></path><path fill="#6822a2" d="m153.751 170.61-15.871 11.424-19.676 9.234-4.046-2.336 15.876-11.428 19.672-9.23z" class="color4c5c75 svgShape"></path><path fill="#b0bfcf" d="m138.975 159.814-.062 19.702-4.472 2.599.062-19.702z" class="colorb0b8cf svgShape"></path><path fill="#9eb3c9" d="m134.503 162.413-.062 19.702-4.506-2.602.062-19.701z" class="color9ea9c9 svgShape"></path><path fill="#3a193a" d="m138.975 159.814-4.472 2.599-4.506-2.601 4.472-2.6z" class="color19233a svgShape"></path><path fill="#aa569b" d="M146.958 158.994c5.438-3.16 14.317-3.162 19.79-.002l44.55 25.72c2.753 1.59 4.128 3.682 4.122 5.77l.014-4.89c.006-2.088-1.369-4.18-4.123-5.77l-44.548-25.72c-5.474-3.16-14.353-3.158-19.791.002-2.702 1.57-4.054 3.629-4.06 5.69l-.014 4.89c.006-2.061 1.359-4.12 4.06-5.69z" class="coloraa6256 svgShape"></path><path fill="#9eb3c9" d="M159.174 219.66s-1.665 1.327-4.39.652c-.467-.113-.83-.49-1.054-.909-.41-.885-.82-2.839.249-3.257l5.742-1.68s4.568-1.671 5.927-.393c1.367 1.287-.526 4.834-6.474 5.587z" class="color9ea9c9 svgShape"></path><path fill="#431d43" d="M159.406 215.208c.042 1.805-.753 2.554-2.559 2.595-1.646.028-3.009-.238-3.271-1.816l-.383-11.684-12.29 6.821a6.613 6.613 0 0 1-6.336-11.608c.436-.242.92-.428 1.376-.567l17.523-4.939.816-.235a4.25 4.25 0 0 1 5.402 4.005l-.278 17.428z" class="color1d2943 svgShape"></path><path fill="#431d43" d="m159.684 197.78-.076 3.57-7.844 3.839-10.86 5.935a6.613 6.613 0 0 1-6.336-11.608c.435-.242.919-.428 1.375-.567l17.523-4.939.816-.235a4.25 4.25 0 0 1 5.402 4.005z" class="color1d2943 svgShape"></path><path fill="#db60c5" d="M247.039 188.215c.27-6.47-3.87-12.99-12.42-17.93l-51.47-29.72c-16.51-9.53-43.21-9.53-59.62.01-8.15 4.73-12.22 10.93-12.25 17.14l-.01 5.65c-.02 6.29 4.13 12.59 12.44 17.39l51.47 29.71c16.52 9.54 43.21 9.54 59.62 0 8.15-4.74 12.23-10.93 12.25-17.14l.02-5.65c0 .18-.02.36-.03.54zm-35.66 3.07c-5.44 3.16-14.32 3.16-19.79 0l-44.55-25.72c-5.48-3.16-5.5-8.3-.07-11.46 5.44-3.16 14.32-3.16 19.79 0l44.55 25.72c5.48 3.16 5.5 8.3.07 11.46z" class="colordba660 svgShape"></path><path fill="#aa569b" d="M234.817 204.817c-16.413 9.538-43.105 9.538-59.622.002l-51.47-29.716c-8.31-4.798-12.462-11.097-12.444-17.387l-.016 5.65c-.018 6.29 4.133 12.588 12.444 17.387l51.47 29.716c16.517 9.536 43.209 9.536 59.622-.002 8.151-4.738 12.232-10.937 12.25-17.146l.016-5.65c-.018 6.21-4.098 12.409-12.25 17.146z" class="coloraa6256 svgShape"></path><path fill="#db60c5" d="M234.622 170.284c16.517 9.536 16.604 24.997.195 34.533-16.413 9.538-43.105 9.538-59.622.002l-51.47-29.716c-16.516-9.536-16.603-24.997-.194-34.532 16.413-9.539 43.105-9.539 59.621-.003l51.47 29.716zm-43.037 21.002c5.474 3.16 14.35 3.16 19.79-.002 5.436-3.159 5.41-8.302-.064-11.462l-44.548-25.72c-5.474-3.16-14.353-3.158-19.791.002-5.438 3.16-5.41 8.301.064 11.462l44.549 25.72z" class="colordba660 svgShape"></path><path fill="#746bf9" d="m211.311 179.819-4.374-2.525-11.805-6.811-7.744-4.471-20.626-11.91c-2.413-1.391-5.485-2.171-8.629-2.332-4.005-.217-8.122.563-11.161 2.332-5.436 3.16-5.412 8.307.064 11.467l11.097 6.41 29.255 16.886 4.197 2.42c1.07.62 2.268 1.11 3.547 1.488 3.683 1.086 8.025 1.166 11.805.242 1.616-.394 3.128-.973 4.438-1.73 5.436-3.16 5.412-8.306-.064-11.466z" opacity=".5" class="color6bb4f9 svgShape"></path><path fill="#6822a2" d="M108.507 233.084c0 .523-.199.902-.488 1.065l-1.302.77c.307-.181-.44-.418-.44-.942 0-1.047.205-2.453-.716-2.976-.469-.271-.898-.286-1.205-.105l1.317-.773c.306-.18.722-.144 1.191.108.92.542 1.643 1.787 1.643 2.853z" class="color4c5c75 svgShape"></path><path fill="#431d43" d="M105.561 230.997c-.91-.526-1.662-.124-1.665.935-.003 1.047.744 2.34 1.655 2.866.922.532 1.65.09 1.653-.956.003-1.06-.72-2.313-1.643-2.845z" class="color1d2943 svgShape"></path><path fill="#ffffff" d="M105.557 231.762c-.543-.314-.992-.074-.994.559-.002.624.444 1.396.988 1.71.55.318.985.054.986-.57.002-.633-.43-1.381-.98-1.699z" class="colorffffff svgShape"></path><path fill="#deecfb" d="m118.953 239.049 1.288-.749.009-3.108-1.288.749z" class="colordedffb svgShape"></path><path fill="#6822a2" d="m120.249 235.195-1.29.75-.01 3.099-14.53-8.389.01-3.101 1.29-.75z" class="color4c5c75 svgShape"></path><path fill="#6822a2" d="m118.962 235.941 1.288-.749-14.531-8.389-1.288.748z" class="color4c5c75 svgShape"></path><path fill="#331133" d="m104.431 227.551-.009 3.108 14.531 8.39.009-3.108z" class="color111d33 svgShape"></path><path fill="#6822a2" d="M137.966 233.497c0 .524.198.903.487 1.065l1.303.77c-.307-.18.237-.452.237-.976 0-1.047 1.189-1.518 2.11-2.042.469-.27-.307-1.207 0-1.026l-1.303-.751c-.307-.18-.722-.145-1.192.108-.92.541-1.642 1.787-1.642 2.852z" class="color4c5c75 svgShape"></path><path fill="#431d43" d="M140.91 231.41c.911-.525 1.663-.124 1.666.936.003 1.046-.744 2.34-1.654 2.865-.922.533-1.65.091-1.654-.955-.003-1.06.72-2.313 1.643-2.846z" class="color1d2943 svgShape"></path><path fill="#ffffff" d="M140.915 232.176c.544-.314.992-.074.994.558.002.625-.444 1.397-.987 1.71-.55.318-.985.055-.987-.57-.002-.632.43-1.38.98-1.698z" class="colorffffff svgShape"></path><path fill="#deecfb" d="m127.852 239.049-1.288-.749-.009-3.108 1.288.749z" class="colordedffb svgShape"></path><path fill="#6822a2" d="m127.617 236.071-1.062-.879 14.531-8.39 1.288.75c-4.087 3.508-9.29 6.31-14.757 8.52z" class="color4c5c75 svgShape"></path><path fill="#331133" d="m142.374 227.551.009 3.108-14.531 8.39-.235-2.978z" class="color111d33 svgShape"></path><path fill="#ffffff" d="M127.989 236.885v4.49c0 .79-.65 1.64-1.68 2.24-2.07 1.2-5.44 1.21-7.53 0-1.04-.6-1.43-1.47-1.43-2.27v-4.48c0-.79.51-1.57 1.54-2.17 2.06-1.2 5.45-1.2 7.53 0 1.05.61 1.57 1.4 1.57 2.19z" class="colorffffff svgShape"></path><path fill="#9eb3c9" d="M127.987 236.887v4.49c-.002.786-.651 1.642-1.679 2.239-2.065 1.2-5.435 1.208-7.528 0-1.046-.604-1.436-1.472-1.434-2.268v-4.49c-.002.794.875 1.022 1.921 1.625 2.093 1.209 5.029.807 7.094-.393 1.028-.597 1.624-.418 1.626-1.203z" class="color9ea9c9 svgShape"></path><path fill="#ffffff" d="M126.416 234.692c2.093 1.209 2.09 3.16.024 4.36s-5.434 1.21-7.527 0c-2.079-1.2-2.09-3.16-.025-4.36s5.45-1.2 7.528 0z" class="colorffffff svgShape"></path><path fill="#431d43" d="m125.345 212.941-.067 23.756c-.001.4-.264.798-.787 1.101-1.05.61-2.763.615-3.827 0-.532-.307-.798-.712-.797-1.116l.068-23.756c-.002.404.264.81.796 1.116 1.064.615 2.778.61 3.828 0 .522-.303.785-.702.786-1.101z" class="color1d2943 svgShape"></path><path fill="#c9d5e2" d="M124.546 211.825c1.065.615 1.063 1.607.013 2.217-1.05.61-2.764.615-3.828 0-1.057-.61-1.063-1.607-.013-2.217s2.771-.61 3.828 0z" class="colorc9cee2 svgShape"></path><path fill="#6822a2" d="M142.629 252.824c0 .52-.2.9-.49 1.06l-1.26.74c-.3.2-.73.19-1.21-.09-.91-.52-1.65-1.82-1.65-2.86 0-.56.2-.93.53-1.08-.02 0-.04.01-.06.02l1.3-.75c.31-.18.73-.15 1.2.11.92.54 1.64 1.78 1.64 2.85z" class="color4c5c75 svgShape"></path><path fill="#6822a2" d="M139.682 250.74c-.47-.27-.884-.306-1.191-.126l1.302-.751c.307-.18.722-.145 1.192.108.92.542 1.643 1.787 1.643 2.852 0 .524-.199.903-.488 1.065l-1.303.77c.307-.18.488-.56.488-1.083" class="color4c5c75 svgShape"></path><path fill="#431d43" d="M139.682 250.736c-.91-.525-1.662-.123-1.665.936-.003 1.046.744 2.34 1.654 2.866.923.532 1.651.09 1.654-.956.003-1.06-.72-2.313-1.643-2.846z" class="color1d2943 svgShape"></path><path fill="#ffffff" d="M139.678 251.502c-.544-.314-.992-.074-.994.558-.002.625.444 1.397.987 1.71.55.318.985.055.987-.57.002-.632-.43-1.38-.98-1.698z" class="colorffffff svgShape"></path><path fill="#331133" d="m140.573 251.531 1.288-.748.009-3.109-1.288.749z" class="color111d33 svgShape"></path><path fill="#6822a2" d="m140.582 248.423 1.288-.749-14.531-8.39-1.288.75c4.4 3.742 9.262 6.498 14.53 8.389z" class="color4c5c75 svgShape"></path><path fill="#331133" d="m126.051 240.033-.009 3.109 14.531 8.389.009-3.108z" class="color111d33 svgShape"></path><path fill="#6822a2" d="M104.237 252.716c0 .523.198.902.487 1.065l1.303.77c-.307-.181.278-.552.278-1.076 0-1.047.155-1.528 1.076-2.052.47-.27.686-1.097.993-.916l-1.303-.752c-.307-.18-.722-.144-1.191.109-.92.541-1.643 1.787-1.643 2.852z" class="color4c5c75 svgShape"></path><path fill="#431d43" d="M107.182 250.629c.91-.526 1.662-.124 1.665.936.003 1.046-.743 2.34-1.654 2.865-.922.532-1.65.09-1.654-.956-.003-1.06.721-2.313 1.643-2.845z" class="color1d2943 svgShape"></path><path fill="#ffffff" d="M107.187 251.394c.543-.313.992-.074.994.559.001.624-.444 1.396-.988 1.71-.55.318-.985.054-.987-.57-.002-.633.43-1.38.98-1.699z" class="colorffffff svgShape"></path><path fill="#331133" d="m106.232 251.531-1.288-.748-.009-3.109 1.288.749c1.17.563.966 1.684.01 3.108z" class="color111d33 svgShape"></path><path fill="#6822a2" d="m106.223 248.423-1.288-.749 13.712-7.916 1.288.748c-4.075 4.427-8.716 6.81-13.712 7.917z" class="color4c5c75 svgShape"></path><path fill="#331133" d="m119.935 240.506.009 3.109-13.712 7.916-.009-3.108z" class="color111d33 svgShape"></path><path fill="#431d43" d="m142.629 116.125-75.33 43.479-.01.011v-.011l-3.53-2.04-.17-60.899 75.33-43.49 3.53 2.05z" class="color1d2943 svgShape"></path><path fill="#331133" d="m63.762 157.56-.173-60.898 3.533 2.053.173 60.898" class="color111d33 svgShape"></path><path fill="#6822a2" d="m67.122 98.715-3.533-2.053 75.327-43.49 3.534 2.053z" class="color4c5c75 svgShape"></path><path fill="#431d43" d="m67.291 159.612-.173-60.893 75.334-43.498.173 60.901-75.334 43.49" class="color1d2943 svgShape"></path><path fill="#ffffff" d="m70.577 100.71 68.439-39.518.15 52.94-68.439 39.509z" class="colorffffff svgShape"></path><path fill="#7d74fd" d="m135.196 110.393-60.599 35.38-.053-24.216c.456-1.217 2.335-3.444 3.542-4.348a9.06 9.06 0 0 1 .662-.42c1.575-.913 3.15-.957 3.65 0 .045.09.08.197.108.295.34 1.082 1.35 1.843 2.46 1.637 1.234-.241 2.29-1.234 3.256-2.773.93-1.333.778-2.442.742-3.498-.035-1.073.475-2.702 1.807-3.614.054-.054.135-.08.188-.125 1.19-.69 2.004-.072 2.264.77.26.876.268 2.012 1.154 2.262.492.135 1.18-.053 1.842-.438.17-.09.358-.224.52-.349a2.45 2.45 0 0 0 .563-.528c.045-.071.08-.152.107-.205l1.154-3.713c.242-.546.537-1.136.841-1.69.51-.868 1.136-1.78 2.013-2.371.054-.054.143-.099.224-.143.885-.52 1.717-.448 2.182-.117.501.403.76 1.065 1.217 1.503.331.331.787.555 1.252.752.537.196 1.146.348 1.924.187.322-.062.707-.232 1.055-.42.501-.286.976-.671 1.333-1.136.841-1.118.716-2.12.922-3.167a6.72 6.72 0 0 1 .42-1.208l1.172-1.798c.77-.975 1.745-1.86 2.755-2.442 2.094-1.226 4.026-1.136 4.545.152.206.653.367 1.62 1.333 1.199a.61.61 0 0 0 .188-.09c.223-.116.456-.33.67-.51 1.799-1.628 2.47-3.784 3.856-5.68.01-.018.036-.027.045-.045l1.154-1.378c.84-.858 1.816-1.628 2.782-2.182.42-.242.805-.439 1.226-.59 1.422-.546 2.701-.546 3.498 0l.026 25.057z" class="color748bfd svgShape"></path><path fill="#e7f1fc" d="M84.532 105.474h1.007v23.328h-1.007zM96.811 94.731h1.007v26.902h-1.007zM109.09 91.136h1.007v23.328h-1.007zM121.369 82.092h1.007v25.202h-1.007z" class="colore9e7fc svgShape"></path><path fill="#eaecef" d="M86.4 128.012c.004.87-.607 1.923-1.36 2.36-.755.433-1.369.087-1.369-.784-.004-.867.607-1.919 1.357-2.356.758-.433 1.368-.087 1.372.78z" class="coloreaefef svgShape"></path><path fill="#968ffe" d="M86.4 104.684c.004.87-.607 1.923-1.36 2.36-.755.433-1.369.086-1.369-.784-.004-.867.607-1.919 1.357-2.356.758-.434 1.368-.087 1.372.78z" class="color8fabfe svgShape"></path><path fill="#bf5aad" d="M98.68 94.268c.003.87-.608 1.923-1.362 2.36-.754.433-1.368.087-1.368-.784-.004-.867.607-1.919 1.357-2.356.758-.433 1.368-.087 1.372.78z" class="colorbf7d5a svgShape"></path><path fill="#a061d5" d="M110.958 90.346c.004.87-.607 1.922-1.36 2.36-.754.433-1.369.086-1.369-.784-.004-.867.607-1.919 1.357-2.356.758-.434 1.368-.087 1.372.78z" class="color72d561 svgShape"></path><path fill="#f451d6" d="M123.235 80.957c.004.87-.607 1.922-1.36 2.36-.755.433-1.369.086-1.369-.785-.004-.867.607-1.918 1.357-2.356.758-.433 1.368-.086 1.372.78z" class="colorf45170 svgShape"></path><path fill="#eaecef" d="M98.895 120.69c.005 1.008-.703 2.227-1.576 2.733-.873.503-1.585.1-1.585-.908-.005-1.004.703-2.223 1.572-2.73.878-.502 1.585-.1 1.59.905zm12.152-7.067c.004.927-.646 2.047-1.45 2.513-.802.462-1.457.092-1.457-.835-.004-.924.647-2.044 1.446-2.51.807-.461 1.457-.092 1.461.832zm12.238-7.148c.006.905-.628 1.991-1.411 2.45-.776.446-1.418.088-1.418-.816 0-.898.628-1.985 1.411-2.444.783-.445 1.418-.088 1.418.81z" class="coloreaefef svgShape"></path><path fill="#deecfb" d="m233.896 149.681-.05 15.487c0 1.008-.353 1.74-.933 2.068l-2.85 1.64c.58-.329.958-1.035.958-2.07l.05-15.46 2.825-1.665z" class="colordedffb svgShape"></path><path fill="#f4f6f8" d="m225.872 167.56 1.903 1.099c.905.525 1.727.566 2.318.21l.014-.007c.007-.006.017-.01.024-.017a1.52 1.52 0 0 0 .121-.086c.041-.031.083-.07.12-.104.008-.01.018-.017.029-.027.038-.038.076-.083.114-.128.038-.049.076-.097.11-.152.028-.042.055-.09.08-.138.017-.028.027-.052.041-.08a2.42 2.42 0 0 0 .12-.304c.015-.045.029-.093.042-.141.004-.007.004-.014.007-.025l.031-.141c.014-.07.028-.142.038-.214.007-.066.014-.135.018-.204.006-.045.01-.09.006-.135.007-.048.007-.1.007-.152l.004-.577.041-12.95.004-.593.003-1.354-.84-.484-.006 2.325-.004.597-.037 12.014-.004.508v.027c-.003.736-.259 1.257-.67 1.517a.35.35 0 0 1-.052.024.362.362 0 0 1-.097.048.852.852 0 0 1-.186.066.92.92 0 0 1-.135.024c-.366.052-.798-.045-1.257-.311l-1.07-.618-.837.483z" class="colorf3f1fc svgShape"></path><path fill="#331133" d="M225.85 154.402c-.001.28.184.563.556.777.737.423 1.926.423 2.657 0l7.658-4.45c.364-.213.546-.492.546-.77l.001-1.323c0 .279-.18.555-.544.766l-7.66 4.451c-.73.425-1.92.425-2.654 0-.372-.214-.557-.495-.557-.775l-.002 1.324z" class="color111d33 svgShape"></path><path fill="#6822a2" d="M236.715 147.863c.367.213.552.492.554.77.001.278-.18.557-.545.77l-7.659 4.45c-.73.425-1.92.425-2.656 0-.737-.426-.741-1.115-.01-1.54l7.659-4.45c.73-.425 1.92-.425 2.657 0z" class="color4c5c75 svgShape"></path><path fill="#deecfb" d="m211.475 158.946-.003 1.106c0 .135-.09.271-.268.375l-12.06 7.01c-.36.208-.944.208-1.305 0l-19.331-11.162c-.182-.104-.272-.242-.272-.38l.003-1.105c0 .138.09.275.272.38l19.331 11.16c.361.209-1.794-3.89-1.435-4.099l6.496-4.638c.178-.104 8.572 1.488 8.572 1.353z" class="colordedffb svgShape"></path><path fill="#ffffff" d="M211.203 158.565c.361.209.363.547.004.756l-12.06 7.009c-.36.209-.944.209-1.305 0l-19.33-11.16c-.362-.21-.364-.547-.005-.756l12.061-7.009c.36-.209.943-.209 1.304 0l19.331 11.16z" class="colorffffff svgShape"></path><path fill="#e7f1fc" d="m178.985 154.137 1.332.769 7.476-4.345-1.332-.769z" class="colore9e7fc svgShape"></path><path fill="#f4f6f8" d="m198.293 165.283 1.332.769 7.476-4.345-1.332-.769z" class="colorf3f1fc svgShape"></path><path fill="#6822a2" d="M195.614 162.364c-.034-.02-.034-.051 0-.07l.793-.462a.133.133 0 0 1 .121 0l.8.462c.033.019.033.05 0 .07l-.794.461a.133.133 0 0 1-.121 0l-.8-.461zm-7.449-6.982c-.033-.02-.033-.05 0-.07l.794-.461a.133.133 0 0 1 .12 0l.8.461c.033.02.033.05 0 .07l-.794.462a.133.133 0 0 1-.12 0l-.8-.462zm2.44 1.41c-.033-.02-.033-.051 0-.07l.794-.462a.133.133 0 0 1 .121 0l.8.461c.033.02.033.051 0 .07l-.794.462a.133.133 0 0 1-.121 0l-.8-.462zm-4.944-4.196c-.033-.02-.033-.05 0-.07l.794-.461a.133.133 0 0 1 .12 0l2.02 1.166c.033.02.034.05 0 .07l-.794.461a.133.133 0 0 1-.12 0l-2.02-1.166zm8.543 4.932c-.034-.02-.034-.05 0-.07l.793-.461a.134.134 0 0 1 .121 0l.8.461c.033.02.033.05 0 .07l-.794.461a.134.134 0 0 1-.121 0l-.8-.46zm-1.22-.704c-.034-.02-.034-.051-.001-.07l.794-.462a.133.133 0 0 1 .12 0l.8.462c.033.019.033.05 0 .07l-.794.46a.133.133 0 0 1-.12 0l-.8-.46zm4.43 7.32c-.033-.019-.033-.05 0-.07l.18-.104a.133.133 0 0 1 .12 0l.8.462c.033.02.033.05 0 .07l-.18.104a.133.133 0 0 1-.12 0l-.8-.461zm-1.22-.704c-.033-.02-.033-.05 0-.07l.18-.104a.133.133 0 0 1 .12 0l.8.461c.032.02.033.05 0 .07l-.18.104a.133.133 0 0 1-.12 0l-.8-.461zm.64-.372c-.033-.02-.034-.05 0-.07l.793-.461a.133.133 0 0 1 .121 0l2.02 1.166c.033.02.034.05 0 .07l-.794.461a.133.133 0 0 1-.12 0l-2.02-1.166zm-3.08-1.037c-.034-.02-.034-.05 0-.07l.178-.104a.133.133 0 0 1 .121 0l.8.461c.033.02.033.05 0 .07l-.18.104a.133.133 0 0 1-.12 0l-.8-.461zm4.237.365c-.033-.02-.033-.05 0-.07l.794-.462a.133.133 0 0 1 .12 0l.8.462c.033.02.033.05 0 .07l-.794.461a.133.133 0 0 1-.12 0l-.8-.461z" class="color4c5c75 svgShape"></path><path fill="#6822a2" d="M199.212 163.1c-.034-.019-.034-.05 0-.07l1.096-.637-1.16-.67c-.033-.019-.033-.05 0-.07l.794-.461a.133.133 0 0 1 .12 0l2.02 1.166c.034.02.034.05 0 .07l-1.95 1.134a.133.133 0 0 1-.121 0l-.8-.462zm-2.441-1.409c-.034-.02-.034-.05 0-.07l.793-.461a.133.133 0 0 1 .121 0l.8.461c.033.02.033.05 0 .07l-.794.462a.133.133 0 0 1-.121 0l-.8-.462zm-2.378-.032c-.033-.02-.033-.05 0-.07l.794-.461a.133.133 0 0 1 .12 0l.8.461c.033.02.033.05 0 .07l-.794.461a.133.133 0 0 1-.12 0l-.8-.46zm8.29-.576c-.034-.02-.034-.05 0-.07l.793-.461a.133.133 0 0 1 .121 0l.8.461c.033.02.033.05 0 .07l-.794.461a.133.133 0 0 1-.121 0l-.8-.46zm-4.755-.064c-.034-.02-.034-.05 0-.07l.794-.462a.133.133 0 0 1 .12 0l.8.462c.033.02.033.05 0 .07l-.794.461a.133.133 0 0 1-.121 0l-.8-.461zm-2.378-.032c-.033-.02-.033-.051 0-.07l.794-.462a.133.133 0 0 1 .12 0l.8.462c.033.019.033.05 0 .07l-.794.46a.133.133 0 0 1-.12.001l-.8-.461zm5.912-.609c-.033-.019-.033-.05 0-.07l.794-.46a.133.133 0 0 1 .12-.001l.8.462c.033.019.033.05 0 .07l-.794.46a.133.133 0 0 1-.12 0l-.8-.46zm-4.754-.064c-.034-.02-.034-.05 0-.07l.793-.461a.133.133 0 0 1 .121 0l.8.461c.032.02.033.05 0 .07l-.795.462a.133.133 0 0 1-.12 0l-.8-.462zm-2.378-.032c-.033-.02-.033-.05 0-.07l.794-.461a.133.133 0 0 1 .12 0l.8.461c.033.02.033.05 0 .07l-.794.461a.133.133 0 0 1-.12 0l-.8-.461zm5.912-.608c-.033-.02-.033-.05 0-.07l.794-.461a.133.133 0 0 1 .12 0l.8.46c.033.02.033.052 0 .07l-.794.462a.133.133 0 0 1-.12 0l-.8-.461zm-2.377-.032c-.034-.02-.034-.05 0-.07l.793-.462a.133.133 0 0 1 .121 0l.8.462c.033.019.033.05 0 .07l-.794.461a.133.133 0 0 1-.121 0l-.8-.461zm-2.378-.032c-.033-.02-.033-.051 0-.07l.794-.462a.133.133 0 0 1 .12 0l.8.462c.033.019.033.05 0 .07l-.794.461a.133.133 0 0 1-.12 0l-.8-.461zm-4.755-.065c-.033-.019-.033-.05 0-.07l.794-.461a.134.134 0 0 1 .12 0l.8.461c.033.02.033.051 0 .07l-.794.462a.134.134 0 0 1-.12 0l-.8-.462zm5.912-.608c-.033-.02-.033-.05 0-.07l.794-.461a.133.133 0 0 1 .12 0l.8.461c.033.02.033.05 0 .07l-.794.462a.133.133 0 0 1-.12 0l-.8-.462zm-2.377-.032c-.034-.02-.034-.05 0-.07l.793-.461a.133.133 0 0 1 .121 0l.8.461c.033.02.033.05 0 .07l-.794.461a.133.133 0 0 1-.121 0l-.8-.46zm-2.378-.032c-.033-.02-.033-.05 0-.07l.794-.461a.134.134 0 0 1 .12 0l.8.46c.033.02.034.052 0 .071l-.794.461a.134.134 0 0 1-.12 0l-.8-.461zm-2.377-.032c-.034-.02-.034-.05 0-.07l.794-.462a.133.133 0 0 1 .12 0l.8.462c.033.02.033.05 0 .07l-.794.461a.133.133 0 0 1-.12 0l-.8-.461zm5.912-.608c-.033-.02-.034-.051 0-.07l.794-.462a.133.133 0 0 1 .12 0l.8.462c.033.019.033.05 0 .07l-.794.461a.133.133 0 0 1-.121 0l-.8-.461zm-2.377-.032c-.034-.02-.034-.051 0-.07l.793-.462a.134.134 0 0 1 .121 0l.799.461c.033.02.034.051 0 .07l-.793.462a.134.134 0 0 1-.121 0l-.8-.461zm-4.755-.065c-.034-.02-.034-.05 0-.07l.793-.461a.133.133 0 0 1 .121 0l.8.461c.033.02.033.05 0 .07l-.794.462a.133.133 0 0 1-.121 0l-.8-.462zm3.534-.64c-.033-.02-.033-.05 0-.07l.794-.461a.133.133 0 0 1 .12 0l.8.46c.033.02.033.052 0 .07l-.794.462a.133.133 0 0 1-.12 0l-.8-.461zm-7.835-1.102c-.034-.019-.034-.05 0-.07l.179-.104a.133.133 0 0 1 .12 0l.8.462c.033.019.033.05 0 .07l-.18.104a.133.133 0 0 1-.12 0l-.8-.462zm1.86.333c-.034-.02-.034-.05 0-.07l.794-.461a.133.133 0 0 1 .12 0l.8.461c.033.02.033.05 0 .07l-.794.461a.133.133 0 0 1-.12 0l-.8-.46zm5.912-.608c-.034-.02-.034-.05 0-.07l.794-.461a.133.133 0 0 1 .12 0l.8.461c.033.02.033.05 0 .07l-.794.461a.133.133 0 0 1-.12 0l-.8-.461zm-2.378-.032c-.033-.02-.033-.05 0-.07l.794-.462a.134.134 0 0 1 .12 0l.8.462c.033.02.034.05 0 .07l-.794.461a.134.134 0 0 1-.12 0l-.8-.461zm-6.615-.397c-.033-.02-.033-.05 0-.07l.18-.104a.133.133 0 0 1 .12 0l.8.461c.033.02.033.05 0 .07l-.18.104a.133.133 0 0 1-.12 0l-.8-.461zm4.238.365c-.033-.02-.033-.051 0-.07l.794-.462a.133.133 0 0 1 .12 0l.8.462c.033.019.033.05 0 .07l-.794.461a.133.133 0 0 1-.12 0l-.8-.461zm-2.377-.032c-.034-.02-.034-.051 0-.07l.793-.462a.133.133 0 0 1 .121 0l.8.462c.033.019.033.05 0 .07l-.794.46a.133.133 0 0 1-.121.001l-.8-.461zm5.912-.609c-.034-.019-.034-.05 0-.07l.793-.461a.134.134 0 0 1 .121 0l.8.461c.033.02.033.051 0 .07l-.794.462a.134.134 0 0 1-.121 0l-.8-.462zm-8.993-.429c-.033-.02-.034-.05 0-.07l.179-.104a.133.133 0 0 1 .12 0l.8.461c.033.02.033.051 0 .07l-.18.105a.133.133 0 0 1-.12 0l-.799-.462zm4.238.365c-.034-.02-.034-.05 0-.07l.793-.461a.133.133 0 0 1 .121 0l.8.461c.033.02.033.05 0 .07l-.794.461a.133.133 0 0 1-.121 0l-.8-.46zm-2.378-.032c-.033-.02-.033-.05 0-.07l.794-.461a.133.133 0 0 1 .12 0l.8.46c.033.02.033.052 0 .071l-.794.461a.133.133 0 0 1-.12 0l-.8-.461zm5.912-.608c-.033-.02-.033-.05 0-.07l.794-.462a.133.133 0 0 1 .12 0l.8.462c.033.02.033.05 0 .07l-.794.461a.133.133 0 0 1-.12 0l-.8-.461zm-7.132-.097c-.034-.019-.034-.05 0-.07l.793-.461a.133.133 0 0 1 .121 0l.8.461c.033.02.033.051 0 .07l-.794.462a.133.133 0 0 1-.121 0l-.8-.462zm8.29-.576c-.034-.019-.034-.05 0-.07l.793-.46a.133.133 0 0 1 .12-.001l9.342 5.393c.034.02.034.05 0 .07l-.793.462a.133.133 0 0 1-.121 0l-9.342-5.394zm-2.378-.032c-.034-.02-.034-.05 0-.07l.793-.461a.133.133 0 0 1 .121 0l.8.461c.033.02.033.05 0 .07l-.794.462a.133.133 0 0 1-.12 0l-.8-.462zm-4.755-.064c-.033-.02-.034-.05 0-.07l.794-.461a.133.133 0 0 1 .12 0l2.02 1.166c.033.019.034.05 0 .07l-.794.46a.133.133 0 0 1-.12 0l-2.02-1.165zm5.912-.608c-.034-.02-.034-.05 0-.07l.794-.462a.133.133 0 0 1 .12 0l.8.462c.033.02.033.05 0 .07l-.794.461a.133.133 0 0 1-.12 0l-.8-.461zm-4.755-.064c-.033-.02-.033-.051 0-.07l.794-.462a.133.133 0 0 1 .12 0l3.24 1.87c.034.02.034.051 0 .07l-.793.462a.133.133 0 0 1-.121 0l-3.24-1.87zm3.535-.64c-.034-.02-.034-.051 0-.07l.793-.462a.133.133 0 0 1 .121 0l.8.461c.033.02.033.051 0 .07l-.794.462a.133.133 0 0 1-.121 0l-.8-.462zm-1.22-.705c-.034-.02-.034-.051-.001-.07l.794-.462a.133.133 0 0 1 .12 0l.8.462c.033.019.033.05 0 .07l-.794.461a.133.133 0 0 1-.12 0l-.8-.461zm12.266 8.422c-.033-.019-.034-.05 0-.07l.793-.461a.133.133 0 0 1 .121 0l3.24 1.87c.034.02.034.051 0 .07l-.794.462a.133.133 0 0 1-.12 0l-3.24-1.87zm-5.975-.769c-.034-.019-.034-.05 0-.07l.793-.46a.133.133 0 0 1 .121 0l.8.46c.033.02.033.051 0 .07l-.794.462a.133.133 0 0 1-.121 0l-.8-.462zm-2.44-1.409c-.034-.019-.034-.05-.001-.07l.794-.461a.133.133 0 0 1 .12 0l.8.461c.033.02.033.051 0 .07l-.794.462a.133.133 0 0 1-.12 0l-.8-.462zm-1.221-.704c-.034-.02-.034-.05 0-.07l.793-.462a.133.133 0 0 1 .121 0l.8.462c.033.02.033.05 0 .07l-.794.461a.133.133 0 0 1-.121 0l-.8-.461zm-2.378-.032c-.033-.02-.033-.051 0-.07l.794-.462a.134.134 0 0 1 .12 0l.8.462c.033.019.033.05 0 .07l-.794.461a.134.134 0 0 1-.12 0l-.8-.461zm1.157-.673c-.033-.019-.033-.05 0-.07l.794-.461a.134.134 0 0 1 .12 0l.8.461c.033.02.033.051 0 .07l-.794.462a.134.134 0 0 1-.12 0l-.8-.462zm-3.017.34c-.033-.02-.034-.05 0-.07l.179-.104a.133.133 0 0 1 .12 0l.8.461c.033.02.034.05 0 .07l-.179.104a.133.133 0 0 1-.12 0l-.8-.461zm1.22.705c-.033-.02-.033-.051 0-.07l.18-.105a.133.133 0 0 1 .12 0l.8.462c.033.019.033.05 0 .07l-.18.104a.133.133 0 0 1-.12 0l-.8-.461zm1.22.704c-.033-.02-.033-.05 0-.07l.18-.104a.133.133 0 0 1 .12 0l.8.461c.033.02.033.05 0 .07l-.18.104a.133.133 0 0 1-.12 0l-.8-.46zm1.221.705c-.033-.02-.034-.051 0-.07l.179-.104a.133.133 0 0 1 .12 0l.8.46c.033.02.034.051 0 .07l-.179.105a.133.133 0 0 1-.12 0l-.8-.461zm1.22.704c-.033-.02-.033-.05 0-.07l.18-.104a.133.133 0 0 1 .12 0l.8.461c.033.02.033.051 0 .07l-.18.105a.133.133 0 0 1-.12 0l-.8-.462zm3.08 1.037c-.032-.019-.033-.05 0-.07l.795-.46a.133.133 0 0 1 .12 0l.8.46c.033.02.033.051 0 .07l-.794.462a.133.133 0 0 1-.12 0l-.8-.462zm-1.22-.704c-.033-.02-.033-.05 0-.07l.794-.461a.133.133 0 0 1 .121 0l.8.46c.033.02.033.052 0 .07l-.794.462a.133.133 0 0 1-.121 0l-.8-.461zm-.64.372c-.033-.02-.033-.05 0-.07l.18-.104a.133.133 0 0 1 .12 0l.8.461c.033.02.033.05 0 .07l-.18.104a.133.133 0 0 1-.12 0l-.8-.461zm1.221.704c-.033-.019-.034-.05 0-.07l.179-.104a.133.133 0 0 1 .12 0l.8.462c.033.019.034.05 0 .07l-.179.104a.133.133 0 0 1-.12 0l-.8-.462zm2.44 1.41c-.033-.02-.033-.051 0-.07l.18-.105a.133.133 0 0 1 .12 0l.8.462c.033.02.033.05 0 .07l-.18.104a.133.133 0 0 1-.12 0l-.8-.462z" class="color4c5c75 svgShape"></path><path fill="#deecfb" d="m199.805 157.851-4.743-2.739c-.174-.099-.275-.252-.277-.42v-.001c0-.168.1-.322.274-.422l3.26-1.896a1.082 1.082 0 0 1 1.01 0l4.743 2.74c.176.1.277.253.277.421 0 .168-.1.322-.274.422l-3.26 1.895c-.136.08-.316.124-.506.124a1.01 1.01 0 0 1-.504-.124zm-1.374-5.267-3.159 1.836c-.123.07-.193.174-.193.283.001.11.072.214.196.284l4.596 2.654c.22.13.612.129.832 0l3.159-1.837c.123-.07.193-.174.193-.283 0-.11-.071-.213-.196-.284l-4.595-2.653a.847.847 0 0 0-.417-.102c-.15 0-.3.034-.416.102z" class="colordedffb svgShape"></path><path fill="#5046e4" d="M228.378 126.33s-2.336-.898-4.242 3.927-1.561 9.419-1.561 9.419l-19.996 12.008c3.096.477 3.908 2.587 4.735 4.198 0 0 20.744-8.236 22.166-13.207 1.42-4.97 1.004-14.403-1.102-16.345z" class="color497bfe svgShape"></path><path fill="#ffffff" d="M203.554 155.336c1.531.984 3.367 1.105 4.091.273.731-.839.083-2.32-1.448-3.304-1.531-.985-3.368-1.105-4.098-.267-.73.832-.076 2.313 1.455 3.298z" class="colorffffff svgShape"></path><path fill="#d4e4f4" d="M206.87 154.566a.98.98 0 0 1-.142 1.058c-.774.911-2.352 2.037-3.604 2.764-1.808 1.055-2.825-2.373-2.825-2.373s-2.213 1.77-2.637 1.074c-.65-1.102 2.147-2.844 3.145-3.418.066-.047.048-.142-.028-.132-1.167.16-1.318-.386-1.102-.885.226-.547 2.187-.328 3.477-.479 1.668-.003 2.942.735 3.717 2.391z" class="colorf4d6d4 svgShape"></path><path fill="#6822a2" d="M151.395 157.329c.117-.069.095 1.588.274 1.692l6.793 12.606c.356.206 2.137 3.074 2.135 3.484l10.923 8.138c0 .203-.072.347-.188.414l.812-.473c.116-.067.188-.21.189-.414l.039-13.755c0-.41-.287-.908-.643-1.114l-19.062-11.006c-.18-.103-.342-.113-.46-.045l-.812.473z" class="color4c5c75 svgShape"></path><path fill="#431d43" d="M151.854 157.374c-.356-.206-.646-.041-.647.368l-.04 13.756c0 .41.288.908.644 1.114l19.062 11.006c.356.205.646.04.647-.37l.04-13.755c0-.41-.287-.908-.644-1.114l-19.062-11.005z" class="color1d2943 svgShape"></path><path fill="#ffffff" d="M152.139 172.044c-.154-.089-.316-.369-.316-.544l.039-13.387 18.726 10.834c.154.089.316.369.316.545l-.039 13.362-18.726-10.81z" class="colorffffff svgShape"></path><path fill="#deecfb" d="m171.133 183.982-.004 1.091c0 .134-.088.268-.264.37l-11.893 6.912c-.354.206-.93.206-1.287 0l-19.062-11.006c-.18-.103-.269-.239-.268-.375l.003-1.09c0 .136.09.271.268.375l19.062 11.005c.357.206-1.768-3.836-1.415-4.041l6.406-4.575c.176-.102 8.453 1.468 8.454 1.334z" class="colordedffb svgShape"></path><path fill="#ffffff" d="M170.864 183.607c.356.206.358.54.004.746l-11.893 6.911c-.354.206-.93.206-1.287 0l-19.062-11.005c-.356-.206-.358-.54-.004-.745l11.893-6.912c.355-.206.93-.206 1.287 0l19.062 11.005z" class="colorffffff svgShape"></path><path fill="#e7f1fc" d="m142.037 177.521 1.313.758 7.373-4.284-1.314-.759z" class="colore9e7fc svgShape"></path><path fill="#f4f6f8" d="m161.077 188.512 1.314.758 7.372-4.284-1.314-.758z" class="colorf3f1fc svgShape"></path><path fill="#6822a2" d="M154.565 176.047c.033.019.033.05 0 .069l-.783.455a.131.131 0 0 1-.12 0l-.787-.455c-.033-.019-.033-.05 0-.069l.782-.455a.131.131 0 0 1 .12 0l.788.455zm7.345 6.884c.033.02.033.05 0 .07l-.783.454a.131.131 0 0 1-.119 0l-.788-.455c-.033-.019-.033-.05 0-.069l.783-.454a.131.131 0 0 1 .119 0l.788.454zm-2.407-1.39c.033.02.033.05 0 .07l-.783.455a.131.131 0 0 1-.119 0l-.788-.455c-.033-.02-.033-.05 0-.07l.783-.454a.131.131 0 0 1 .119 0l.788.455zm4.876 4.138c.033.019.033.05 0 .069l-.783.455a.13.13 0 0 1-.119 0l-1.991-1.15c-.033-.019-.033-.05 0-.069l.782-.455a.131.131 0 0 1 .12 0l1.99 1.15zm-8.424-4.864c.033.02.033.05 0 .07l-.782.454a.132.132 0 0 1-.12 0l-.788-.455c-.033-.019-.033-.05 0-.069l.783-.455a.132.132 0 0 1 .12 0l.787.455zm1.203.695c.034.02.034.05 0 .07l-.782.454a.132.132 0 0 1-.12 0l-.787-.455c-.033-.019-.033-.05 0-.069l.782-.455a.131.131 0 0 1 .12 0l.787.455zm-4.37-7.22c.034.02.034.05.001.07l-.177.102a.131.131 0 0 1-.119 0l-.788-.454c-.033-.02-.033-.05 0-.07l.177-.102a.131.131 0 0 1 .119 0l.788.455zm1.204.696c.033.019.033.05 0 .069l-.176.102a.131.131 0 0 1-.12 0l-.787-.455c-.033-.019-.034-.05 0-.069l.176-.102a.131.131 0 0 1 .12 0l.787.455zm-.63.366c.032.02.032.05 0 .07l-.783.454a.131.131 0 0 1-.12 0l-1.99-1.15c-.034-.019-.034-.05-.001-.068l.783-.455a.13.13 0 0 1 .119 0l1.991 1.15zm3.037 1.023c.033.02.033.05 0 .07l-.176.102a.131.131 0 0 1-.12 0l-.788-.455c-.033-.02-.033-.05 0-.07l.177-.102a.131.131 0 0 1 .119 0l.788.455zm-4.179-.36c.033.02.033.05 0 .07l-.782.454a.131.131 0 0 1-.12 0l-.788-.455c-.033-.019-.033-.05 0-.069l.783-.455a.131.131 0 0 1 .12 0l.787.455z" class="color4c5c75 svgShape"></path><path fill="#6822a2" d="M151.017 175.32c.032.02.033.05 0 .07l-1.081.628 1.143.66c.033.02.033.05 0 .07l-.782.454a.131.131 0 0 1-.12 0l-1.99-1.15c-.034-.019-.034-.05-.001-.068l1.924-1.118a.13.13 0 0 1 .119 0l.788.455zm2.407 1.39c.033.02.033.05 0 .07l-.783.454a.131.131 0 0 1-.12 0l-.787-.455c-.033-.019-.033-.05 0-.069l.782-.455a.131.131 0 0 1 .12 0l.788.455zm2.344.032c.033.019.033.05 0 .069l-.783.455a.131.131 0 0 1-.119 0l-.788-.455c-.033-.02-.033-.05 0-.07l.783-.454a.131.131 0 0 1 .119 0l.788.455zm-8.174.568c.033.019.033.05 0 .069l-.783.455a.131.131 0 0 1-.12 0l-.787-.455c-.033-.02-.033-.05 0-.07l.783-.454a.131.131 0 0 1 .119 0l.788.455zm4.689.063c.032.02.033.05 0 .07l-.783.454a.131.131 0 0 1-.12 0l-.787-.455c-.033-.019-.033-.05 0-.069l.782-.455a.131.131 0 0 1 .12 0l.788.455zm2.344.032c.033.019.033.05 0 .069l-.783.455a.131.131 0 0 1-.119 0l-.788-.455c-.033-.02-.033-.05 0-.069l.783-.455a.131.131 0 0 1 .119 0l.788.455zm-5.83.6c.033.019.033.05 0 .069l-.783.455a.131.131 0 0 1-.119 0l-.788-.455c-.033-.02-.033-.05 0-.07l.783-.454a.131.131 0 0 1 .119 0l.788.455zm4.689.063c.033.02.033.05 0 .069l-.783.455a.132.132 0 0 1-.119 0l-.788-.455c-.033-.019-.033-.05 0-.069l.783-.455a.131.131 0 0 1 .119 0l.788.455zm2.344.032c.033.019.033.05 0 .069l-.782.455a.131.131 0 0 1-.12 0l-.787-.455c-.033-.02-.033-.05 0-.07l.782-.454a.131.131 0 0 1 .12 0l.787.455zm-5.83.6c.033.018.033.05 0 .068l-.782.455a.131.131 0 0 1-.12 0l-.787-.455c-.033-.019-.033-.05 0-.069l.782-.455a.131.131 0 0 1 .12 0l.788.455zm2.345.031c.033.02.033.05 0 .07l-.783.454a.131.131 0 0 1-.119 0l-.788-.455c-.033-.019-.033-.05 0-.069l.783-.455a.131.131 0 0 1 .119 0l.788.455zm2.344.032c.033.019.033.05 0 .069l-.782.455a.131.131 0 0 1-.12 0l-.787-.455c-.033-.02-.033-.05 0-.07l.782-.454a.131.131 0 0 1 .12 0l.787.455zm4.69.063c.032.02.032.05 0 .07l-.783.454a.132.132 0 0 1-.12 0l-.788-.455c-.032-.019-.033-.05 0-.069l.783-.455a.132.132 0 0 1 .12 0l.787.455zm-5.83.6c.032.019.032.05 0 .069l-.783.455a.131.131 0 0 1-.12 0l-.788-.455c-.032-.02-.032-.05 0-.07l.783-.454a.131.131 0 0 1 .12 0l.787.455zm2.344.032c.033.019.033.05 0 .069l-.783.454a.131.131 0 0 1-.119 0l-.788-.454c-.033-.02-.033-.05 0-.07l.783-.454a.131.131 0 0 1 .119 0l.788.455zm2.344.031c.033.02.033.05 0 .07l-.782.454a.132.132 0 0 1-.12 0l-.788-.455c-.033-.019-.033-.05 0-.069l.783-.455a.132.132 0 0 1 .12 0l.787.455zm2.345.032c.033.019.033.05 0 .069l-.783.455a.132.132 0 0 1-.12 0l-.787-.455c-.033-.02-.033-.05 0-.069l.782-.455a.131.131 0 0 1 .12 0l.788.455zm-5.83.6c.033.019.033.05 0 .069l-.783.455a.131.131 0 0 1-.119 0l-.788-.455c-.033-.02-.033-.05 0-.07l.782-.454a.132.132 0 0 1 .12 0l.788.455zm2.344.031c.033.02.033.05 0 .07l-.782.454a.132.132 0 0 1-.12 0l-.788-.455c-.033-.019-.033-.05 0-.069l.783-.455a.132.132 0 0 1 .12 0l.787.455zm4.689.064c.033.019.033.05 0 .069l-.783.455a.131.131 0 0 1-.119 0l-.788-.455c-.033-.02-.033-.05 0-.07l.783-.454a.131.131 0 0 1 .119 0l.788.455zm-3.486.631c.034.02.034.05 0 .07l-.782.454a.131.131 0 0 1-.12 0l-.787-.455c-.033-.019-.033-.05 0-.069l.782-.455a.131.131 0 0 1 .12 0l.787.455zm7.727 1.086c.033.02.033.05 0 .07l-.176.102a.131.131 0 0 1-.12 0l-.787-.455c-.033-.019-.034-.05 0-.069l.176-.103a.131.131 0 0 1 .12 0l.787.455zm-1.834-.328c.033.02.033.05 0 .07l-.783.454a.131.131 0 0 1-.119 0l-.788-.455c-.033-.019-.033-.05 0-.069l.783-.455a.131.131 0 0 1 .119 0l.788.455zm-5.83.6c.033.019.033.05 0 .069l-.783.455a.131.131 0 0 1-.119 0l-.788-.455c-.033-.02-.033-.05 0-.069l.783-.455a.131.131 0 0 1 .119 0l.788.455zm2.344.032c.033.019.033.05 0 .069l-.782.455a.132.132 0 0 1-.12 0l-.787-.455c-.033-.02-.034-.05 0-.07l.782-.454a.132.132 0 0 1 .12 0l.787.455zm6.524.391c.033.02.033.05 0 .07l-.177.102a.131.131 0 0 1-.119 0l-.788-.455c-.033-.02-.033-.05 0-.07l.176-.102a.131.131 0 0 1 .12 0l.788.455zm-4.18-.36c.034.02.034.05.001.07l-.783.454a.132.132 0 0 1-.119 0l-.788-.455c-.033-.019-.033-.05 0-.069l.783-.455a.131.131 0 0 1 .119 0l.788.455zm2.345.032c.033.02.033.05 0 .069l-.782.455a.131.131 0 0 1-.12 0l-.788-.455c-.033-.019-.033-.05 0-.069l.783-.455a.131.131 0 0 1 .12 0l.787.455zm-5.83.6c.033.019.033.05 0 .069l-.782.455a.132.132 0 0 1-.12 0l-.787-.455c-.033-.02-.034-.05 0-.07l.782-.454a.132.132 0 0 1 .12 0l.787.455zm8.868.423c.033.019.033.05 0 .069l-.176.103a.131.131 0 0 1-.12 0l-.788-.455c-.033-.02-.033-.05 0-.07l.177-.102a.131.131 0 0 1 .119 0l.788.455zm-4.179-.36c.033.02.033.05 0 .07l-.782.454a.131.131 0 0 1-.12 0l-.788-.455c-.033-.019-.033-.05 0-.069l.783-.455a.131.131 0 0 1 .12 0l.787.455zm2.345.032c.033.019.033.05 0 .069l-.783.455a.131.131 0 0 1-.12 0l-.787-.455c-.033-.02-.033-.05 0-.07l.782-.454a.131.131 0 0 1 .12 0l.788.455zm-5.83.6c.033.019.033.05 0 .069l-.783.454a.131.131 0 0 1-.12 0l-.787-.454c-.033-.02-.033-.05 0-.07l.783-.454a.131.131 0 0 1 .119 0l.788.454zm7.033.095c.033.019.033.05 0 .069l-.783.455a.131.131 0 0 1-.119 0l-.788-.455c-.033-.02-.033-.05 0-.07l.783-.454a.131.131 0 0 1 .119 0l.788.455zm-8.174.568c.033.019.033.05 0 .069l-.783.455a.13.13 0 0 1-.12 0l-9.21-5.319c-.034-.019-.034-.05-.001-.069l.783-.455a.131.131 0 0 1 .119 0l9.212 5.319zm2.344.031c.033.02.033.05 0 .07l-.782.454a.131.131 0 0 1-.12 0l-.788-.455c-.033-.019-.033-.05 0-.069l.783-.455a.131.131 0 0 1 .119 0l.788.455zm4.689.064c.033.019.033.05 0 .069l-.783.455a.13.13 0 0 1-.119 0l-1.991-1.15c-.033-.02-.033-.05 0-.07l.782-.454a.131.131 0 0 1 .12 0l1.99 1.15zm-5.83.6c.033.018.033.05 0 .068l-.782.455a.131.131 0 0 1-.12 0l-.788-.455c-.033-.019-.033-.05 0-.069l.783-.455a.131.131 0 0 1 .119 0l.788.455zm4.689.063c.033.019.033.05 0 .069l-.783.455a.13.13 0 0 1-.119 0l-3.194-1.845c-.033-.019-.034-.05 0-.069l.782-.455a.131.131 0 0 1 .12 0l3.194 1.845zm-3.485.631c.032.02.032.05 0 .07l-.783.454a.131.131 0 0 1-.12 0l-.787-.455c-.033-.019-.033-.05 0-.069l.782-.455a.131.131 0 0 1 .12 0l.788.455zm1.203.695c.033.019.033.05 0 .069l-.783.455a.131.131 0 0 1-.119 0l-.788-.455c-.033-.019-.033-.05 0-.069l.783-.455a.131.131 0 0 1 .119 0l.788.455zm-12.096-8.306c.032.02.033.05 0 .07l-.783.454a.131.131 0 0 1-.12 0l-3.194-1.844c-.033-.02-.033-.05 0-.07l.783-.454a.131.131 0 0 1 .119 0l3.195 1.844zm5.892.758c.033.02.033.05 0 .07l-.783.454a.131.131 0 0 1-.119 0l-.788-.454c-.033-.02-.033-.05 0-.07l.783-.454a.131.131 0 0 1 .119 0l.788.454zm2.407 1.39c.033.02.033.05 0 .069l-.783.455a.131.131 0 0 1-.12 0l-.787-.455c-.033-.019-.033-.05 0-.069l.782-.455a.131.131 0 0 1 .12 0l.788.455zm1.203.695c.033.019.033.05 0 .069l-.783.455a.131.131 0 0 1-.119 0l-.788-.455c-.033-.02-.033-.05 0-.07l.783-.454a.131.131 0 0 1 .119 0l.788.455zm2.344.031c.033.02.034.05 0 .07l-.782.454a.132.132 0 0 1-.12 0l-.787-.454c-.033-.02-.033-.05 0-.07l.782-.454a.132.132 0 0 1 .12 0l.787.454zm-1.14.664c.032.019.032.05 0 .069l-.783.455a.132.132 0 0 1-.12 0l-.787-.455c-.033-.02-.033-.05 0-.07l.782-.454a.132.132 0 0 1 .12 0l.787.455zm2.975-.335c.033.019.033.05 0 .069l-.177.102a.131.131 0 0 1-.119 0l-.788-.455c-.033-.019-.033-.05 0-.069l.177-.102a.131.131 0 0 1 .119 0l.788.455zm-1.204-.695c.033.019.034.05 0 .069l-.176.103a.132.132 0 0 1-.12 0l-.787-.455c-.033-.02-.033-.05 0-.07l.176-.102a.131.131 0 0 1 .12 0l.787.455zm-1.203-.695c.033.019.033.05 0 .069l-.176.103a.131.131 0 0 1-.12 0l-.788-.455c-.033-.02-.033-.05 0-.07l.177-.102a.131.131 0 0 1 .119 0l.788.455zm-1.204-.695c.034.02.034.05 0 .07l-.176.102a.131.131 0 0 1-.12 0l-.787-.455c-.033-.019-.033-.05 0-.069l.176-.103a.131.131 0 0 1 .12 0l.787.455zm-1.203-.695c.033.02.033.05 0 .07l-.176.102a.131.131 0 0 1-.12 0l-.787-.455c-.033-.019-.034-.05 0-.069l.176-.103a.131.131 0 0 1 .12 0l.787.455zm-3.038-1.022c.033.019.033.05 0 .069l-.782.455a.131.131 0 0 1-.12 0l-.787-.455c-.033-.02-.033-.05 0-.07l.782-.454a.131.131 0 0 1 .12 0l.787.455zm1.204.694c.033.02.033.05 0 .07l-.783.454a.131.131 0 0 1-.119 0l-.788-.455c-.033-.019-.033-.05 0-.069l.783-.455a.131.131 0 0 1 .119 0l.788.455zm.63-.366c.034.019.034.05.001.069l-.177.102a.131.131 0 0 1-.119 0l-.788-.455c-.033-.019-.033-.05 0-.069l.177-.102a.131.131 0 0 1 .119 0l.788.455zm-1.203-.695c.033.019.034.05 0 .069l-.176.103a.131.131 0 0 1-.12 0l-.787-.455c-.033-.02-.033-.05 0-.07l.176-.102a.131.131 0 0 1 .12 0l.787.455zm-2.406-1.39c.033.02.033.05 0 .07l-.177.102a.131.131 0 0 1-.119 0l-.788-.455c-.033-.019-.033-.05 0-.069l.176-.103a.131.131 0 0 1 .12 0l.788.455z" class="color4c5c75 svgShape"></path><path fill="#deecfb" d="m150.431 180.497 4.677 2.7c.172.099.272.25.274.416 0 .166-.099.318-.27.416l-3.216 1.87a1.067 1.067 0 0 1-.995 0l-4.677-2.701c-.174-.1-.273-.25-.273-.416 0-.166.098-.317.27-.416l3.215-1.869a1 1 0 0 1 .498-.122c.187 0 .364.043.497.122zm1.355 5.194 3.116-1.81c.12-.07.19-.172.19-.28-.001-.109-.071-.21-.193-.28l-4.532-2.617c-.217-.127-.604-.127-.82 0l-3.116 1.811c-.121.07-.19.172-.19.28 0 .108.07.21.193.28l4.531 2.616c.115.067.263.1.41.1a.834.834 0 0 0 .411-.1zM152.964 166.652l11.196 6.464-.003 1.069-11.193-6.462zM152.964 169.529l11.189 6.459-.003 1.066-11.186-6.458zM152.964 160.903l11.209 6.472-.003 1.069-11.206-6.47zM152.964 163.78l11.202 6.467-.003 1.069-11.199-6.466z" class="colordedffb svgShape"></path><path fill="#5aa0e7" d="M165.556 170.356c-.004 1.326.928 2.94 2.081 3.606l.007-2.4-2.088-1.206z" class="color78e75a svgShape"></path><path fill="#e935c8" d="M167.65 169.162c-1.152-.666-2.09-.132-2.094 1.193l2.088 1.207.007-2.4z" class="colore93565 svgShape"></path><path fill="#6cb5ff" d="m167.657 174.93-.007 2.416 1.49 2.579c.384-.206.621-.678.623-1.347.004-1.34-.939-2.973-2.106-3.647z" class="colorffd06c svgShape"></path><path fill="#e3e9f0" d="M167.657 174.917c-.583-.337-1.112-.369-1.496-.15l1.49 2.579.006-2.429z" class="colore3e7f0 svgShape"></path><path fill="#e935c8" d="m167.65 177.346-1.498.854c.381.661.908 1.238 1.492 1.574.58.336 1.108.37 1.49.155l-1.484-2.583z" class="colore93565 svgShape"></path><path fill="#a061d5" d="M166.161 174.767c-.384.219-.621.689-.623 1.36-.002.669.232 1.413.614 2.073l1.498-.854-1.489-2.58z" class="color72d561 svgShape"></path><path fill="#5b50ff" d="m167.644 171.562-.007 2.4c1.154.665 2.092.131 2.095-1.194l-2.088-1.206z" class="color5094ff svgShape"></path><path fill="#6cb5ff" d="m167.65 169.162-.006 2.4 2.088 1.206c.004-1.327-.928-2.94-2.081-3.606z" class="colorffd06c svgShape"></path><path fill="#431d43" d="M148.935 195.29v1.805l-10.598 5.472-3.542.477-.118-3.576a7.07 7.07 0 0 1 1.266-.519l12.992-3.66z" class="color1d2943 svgShape"></path><path fill="#df32c0" d="M137.375 172.19a2.185 2.185 0 0 0-2.87-1.149l-5.058 2.178v5.24l6.903-3.451c1.025-.516 1.49-1.755 1.025-2.819z" class="colordf3260 svgShape"></path><path fill="#f451d6" d="M141.054 182.335h-2.624l.674-8.751c-.648-.919-1.603-2.54-4.454-3.852l-11.717-5.2c-1.219-.544-2.579-.788-3.887-.549-1.943.372-3.338 1.624-3.933 4.202-1.346 2.799 1.596 32.031 2.133 33.792 8.221 5.301 15.626 9.984 23.523 6.235 1.593-1.092-.022-16.395.285-25.877z" class="colorf45170 svgShape"></path><path fill="#c6ddf5" d="M124.663 165.478c2.184 4.231 8.377 3.315 8.377 3.315-.549-2.049.741-3.587.741-3.587s-5.346 1.32-8.565-.283l-.553.555z" class="colorf5c9c6 svgShape"></path><path fill="#463851" d="M134.38 154.22c-3.611.9-9.754.187-12.445-.193 4.823.049 9.368.02 12.383-.443l.062.636z" class="color51383c svgShape"></path><path fill="#7067ee" d="m141.334 196.678.856.505-.856.247z" class="color678aee svgShape"></path><path fill="#c6ddf5" d="M159.098 184.529c-.358.246-.183.832-.384 1.448-.235.714-.39 1.565.8 2.039 1.044.424 2.596-.123 4.421-.947.253-.114.51-.24.77-.373 1.432-.712-1.66-1.837-1.883-1.82l.323-.145c.583-.28 1.36-.83.85-1.089-.709-.359-1.568.086-2.526.612a9.053 9.053 0 0 0-1.19.766c-.06.038-.148.026-.13-.014.28-.62-.295-.702-.858-.56a.598.598 0 0 0-.193.083z" class="colorf5c9c6 svgShape"></path><path fill="#e7f1fc" d="M161.062 186.12a2.137 2.137 0 0 0-2.807-1.123l-.612.264v4.794l2.416-1.179a2.138 2.138 0 0 0 1.003-2.756z" class="colore9e7fc svgShape"></path><path fill="#c6ddf5" d="M145.579 178.818c-.518.27-1.043.5-1.37.644-.055.032-.015.08.057.064 1.162-.151 1.4.175 1.265.477-.016.04-.056.072-.111.104-.374.19-1.544.111-2.659.278-1.273.2-2.506.454-3.82-.175-1.153-.541-.795-1.71 1.115-2.857.262-.159.557-.318.883-.47 1.719-.803 3.335 1.06 3.398 1.163.008-.008.12-.072.31-.176.582-.31 1.863-.883 2.277-.573.557.422-.382 1.027-1.345 1.52z" class="colorf5c9c6 svgShape"></path><path fill="#e935c8" d="m159.422 189.372-16.104 8.052a2.766 2.766 0 0 1-3.715-1.238l-3.604-7.492a42.289 42.289 0 0 1-2.352-5.984c-.81-2.649-1.55-5.485-1.21-7.443.629-3.694 5.7-4.337 7.131-1.203l.031.088c.169.48.318.967.448 1.46l3.72 14.092c.166.616.837.94 1.425.692l12.251-5.278a2.344 2.344 0 0 1 3.079 1.231c.498 1.142 0 2.47-1.1 3.023z" class="colore93565 svgShape"></path><path fill="#d4e4f4" d="M135.278 165.528c-1.242.215-2.648.451-2.648.451v1.755c-5.633 2.627-8.353-1.703-8.353-1.703l.503-.667.236-.308-1.437-8.528 8.559-6.547 5.562 1.703s-.954 4.187-.154 6.64c.81 2.442-1.016 6.988-2.268 7.204z" class="colorf4d6d4 svgShape"></path><path fill="#c6ddf5" d="m132.63 165.98.115 2.258c-5.634 2.627-8.483-2.252-8.483-2.252l.754-.93c2.278 2.36 7.614.923 7.614.923z" class="colorf5c9c6 svgShape"></path><path fill="#8a487e" d="M124.43 148.666s-2.958 3.025-2.173 9.37c.856 6.923 4.56 9.405 6.911 9.084s2.423-2.137 2.459-5.166c.032-2.743 2.872-3.41 3.935-1.657a.41.41 0 0 0 .707-.02c.368-.68.725-1.82-.01-3.039a5.074 5.074 0 0 1-.089-.152c-.604-1.087-.11-2.424 1.023-2.937 1.111-.502 2.722-1.665 1.663-3.96-1.541-3.34-10.56-5.68-14.426-1.523z" class="color8a4852 svgShape"></path><path fill="#e7f1fc" d="M134.477 169.657s-9.975 1.91-10.446-3.486c0-.422 0-.844.16-1.08l.587.256.007.007c.132.208 2.691 4.15 8.122 2.608.318.996.809 1.197 1.57 1.695z" class="colore9e7fc svgShape"></path><path fill="#db60c5" d="m225.696 165.131-2.708 5.755 9.623-1.763z" class="colordba660 svgShape"></path><path fill="#955ec3" d="m154.639 204.265-21.09 12.32-.06-35.29c-.01-.92-.35-1.55-.9-1.81.03.01.07.02.1.04l-30.71-17.84c-.5-.28-1.19-.25-1.94.19-1.52.89-2.74 3.03-2.74 4.77l.05 38.45c.03.84.31 1.47.83 1.78l30.66 17.84h.01c.52.29 1.23.22 1.96-.2l23.85-13.9c1.52-.88 2.75-3.02 2.75-4.77-.01-1.75-1.25-2.45-2.77-1.58zm-23.29-24.83c.29-.09.55-.12.79-.08-.24-.03-.51 0-.79.08z" class="color5ec363 svgShape"></path><path fill="#5aa0e7" d="M132.139 179.354c-.24-.03-.51 0-.79.08.29-.09.55-.12.79-.08z" class="color78e75a svgShape"></path><path fill="#955ec3" d="M132.139 179.354c-.24-.03-.51 0-.79.08.29-.09.55-.12.79-.08z" class="color5ec363 svgShape"></path><path fill="#5aa0e7" d="M132.692 179.521c-.527-.277-1.22-.25-1.97.194-1.525.888-2.746 2.997-2.746 4.744v.028l.056 38.45c0 .832.305 1.47.804 1.775l-30.654-17.837c-.527-.306-.805-.944-.832-1.776l-.056-38.45c0-1.748 1.22-3.884 2.747-4.771.749-.444 1.442-.472 1.942-.195l30.71 17.838z" class="color78e75a svgShape"></path><path fill="#955ec3" d="M130.718 179.715c1.519-.877 2.763-.167 2.768 1.578l.064 35.288 21.088-12.313c1.519-.876 2.764-.178 2.769 1.578.005 1.745-1.232 3.888-2.751 4.765l-23.848 13.906c-.724.418-1.44.489-1.958.194-.508-.301-.808-.94-.81-1.772l-.073-38.46c-.005-1.745 1.222-3.881 2.75-4.764z" class="color5ec363 svgShape"></path><path fill="#5aa0e7" d="M156.606 204.073c-.5-.278-1.193-.25-1.97.194l-21.084 12.317v-.15l19.661-12.994c.777-.444 1.47-.472 1.97-.195l1.423.828z" class="color78e75a svgShape"></path><path fill="#deecfb" d="m142.957 219.94-3.135 1.804c-.472.277-1.137.25-1.859-.166l-1.056-.613 3.11-1.818.582.322.471.278c.75.443 1.387.471 1.887.194z" class="colordedffb svgShape"></path><path fill="#deecfb" d="m144.705 201.77-.056 17.006c-.028 1.137-.416 1.914-1.054 2.274l-3.107 1.831c.638-.388 1.026-1.165 1.026-2.274l.056-17.034 3.135-1.803z" class="colordedffb svgShape"></path><path fill="#eceef1" d="m141.573 203.582 3.12-1.813-.923-.533-3.12 1.814z" class="colorecf0f1 svgShape"></path><path fill="#ffffff" d="m135.988 221.496 1.966 1.135c.995.578 1.9.623 2.55.232.003-.004.007-.004.015-.008.007-.007.019-.011.026-.019.046-.03.091-.06.133-.095.397-.297.781-.954.825-1.823.007-.05.01-.1.007-.148.008-.054.008-.11.008-.168l.004-.634.045-14.243.004-.654.004-1.49-.923-.531-.008 2.557-.004.657-.042 13.214-.003.558v.03c-.004.81-.285 1.384-.738 1.669-.019.01-.038.018-.057.026a.398.398 0 0 1-.106.053 1.15 1.15 0 0 1-.353.1c-.403.056-.878-.05-1.383-.343l-1.05-.606-.92.531z" class="colorffffff svgShape"></path><path fill="#6822a2" d="m148.399 200.604-.01 1.11c0 .31-.19.62-.6.85l-8.42 4.9c-.8.46-2.11.46-2.92 0-.41-.24-.61-.55-.61-.86v-1.11c0-.3.2-.61.6-.84l8.43-4.9c.8-.46 2.11-.46 2.92 0 .4.24.61.54.61.85z" class="color4c5c75 svgShape"></path><path fill="#331133" d="M135.837 206.605c-.002.308.202.619.61.855.811.465 2.12.465 2.923 0l8.423-4.896c.401-.234.6-.54.6-.846l.003-1.11c0 .306-.2.61-.599.843l-8.425 4.895c-.804.468-2.112.468-2.92 0-.41-.236-.613-.544-.613-.852l-.002 1.111z" class="color111d33 svgShape"></path><path fill="#6822a2" d="M147.787 199.758c.404.234.607.54.609.846s-.198.613-.6.847l-8.423 4.895c-.804.467-2.113.467-2.922 0-.81-.468-.815-1.226-.01-1.693l8.423-4.895c.804-.468 2.112-.468 2.923 0zM177.037 140.287c.12-.07.097 1.61.278 1.716l6.889 12.784c.361.208 2.166 3.117 2.165 3.532l11.077 8.253c0 .206-.074.352-.19.42l.823-.48c.118-.068.19-.213.19-.419l.04-13.95c.002-.415-.29-.92-.651-1.129l-19.331-11.16c-.182-.105-.347-.115-.466-.046l-.824.479z" class="color4c5c75 svgShape"></path><path fill="#431d43" d="M177.503 140.332c-.362-.208-.656-.041-.657.374l-.04 13.95c0 .415.292.92.653 1.13l19.33 11.16c.362.209.656.041.657-.374l.04-13.95c0-.415-.291-.92-.652-1.129l-19.331-11.16z" class="color1d2943 svgShape"></path><path fill="#6822a2" d="M185.487 152.682c-.003 1.052.737 2.335 1.653 2.864.915.527 1.66.103 1.663-.948.004-1.053-.737-2.335-1.653-2.864-.914-.528-1.66-.103-1.663.948z" class="color4c5c75 svgShape"></path><path fill="#bf5aad" d="m288.513 201.167-.49 3.215-1.806 11.908c-.083.772-.626 1.523-1.638 2.108-2.213 1.284-5.824 1.284-8.047 0-.98-.574-1.534-1.284-1.66-2.025l-1.742-11.918-.48-3.288h15.863z" class="colorbf7d5a svgShape"></path><path fill="#aa569b" d="m288.513 201.167-.49 3.215c-.292.24-.616.47-.981.678-3.58 2.087-9.414 2.087-13.015 0a6.413 6.413 0 0 1-.897-.605l-.48-3.288h15.863z" class="coloraa6256 svgShape"></path><path fill="#db60c5" d="M286.199 204.004c-3.1 1.803-8.158 1.803-11.281 0-3.127-1.804-3.14-4.733-.039-6.533 3.107-1.807 8.155-1.807 11.282 0 3.123 1.8 3.145 4.729.038 6.533z" class="colordba660 svgShape"></path><path fill="#bf5aad" d="M287.257 200.749c.003.519-.223 1.032-.65 1.503a4.728 4.728 0 0 1-1.148.897c-1.291.752-3.03 1.163-4.893 1.163-1.867 0-3.611-.411-4.914-1.166-.483-.28-.88-.59-1.178-.921-.426-.471-.65-.981-.653-1.5 0-.874.638-1.726 1.798-2.4 1.294-.752 3.033-1.166 4.896-1.166 1.864 0 3.608.414 4.911 1.166 1.181.683 1.831 1.541 1.831 2.424z" class="colorbf7d5a svgShape"></path><path fill="#6cb5ff" d="M286.607 202.252a4.728 4.728 0 0 1-1.148.897c-1.291.752-3.03 1.163-4.893 1.163-1.867 0-3.611-.411-4.914-1.166-.483-.28-.88-.59-1.178-.921a4.73 4.73 0 0 1 1.145-.9c1.294-.752 3.033-1.166 4.896-1.166 1.864 0 3.608.414 4.911 1.168.49.28.883.594 1.181.925z" class="colorffd06c svgShape"></path><path fill="#aa569b" d="M280.094 198.406c-.18 0-.36-.06-.51-.184-2.895-2.412-2.549-9.226-2.5-9.995a.797.797 0 0 1 1.59.101c-.117 1.866 0 7.062 1.93 8.67a.796.796 0 0 1-.51 1.408z" class="coloraa6256 svgShape"></path><path fill="#955ec3" d="M282.694 191.903s3.82-9.478-9.054-10.858c0 0 9.585 4.35 9.054 10.858z" class="color5ec363 svgShape"></path><path fill="#a061d5" d="M290.636 189.529c-3.303.075-8.146 5.189-8.146 5.189l.313-1.477c5.06-7.466 7.833-3.712 7.833-3.712z" class="color72d561 svgShape"></path><path fill="#5aa0e7" d="M288.1 188.63s3.487-.65 4.419 1.303c.931 1.954-.792 2.915-.792 2.915s.428-4.17-3.627-4.218z" class="color78e75a svgShape"></path><path fill="#955ec3" d="M287.579 171c.033 5.36-3.179 13.87-3.179 13.87l-1.176 2.465c-.563-11.404 4.355-16.335 4.355-16.335z" class="color5ec363 svgShape"></path><path fill="#a061d5" d="m278.431 181.45-.755 2.665s-4.188-6.616-9.873-6.566c0 0 7.583-2.41 10.628 3.9z" class="color72d561 svgShape"></path><path fill="#a061d5" d="m279.745 180.749-.638 2.765s-2.282-10.453-5.464-13.677c.2.075 6.94 2.807 6.102 10.912z" class="color72d561 svgShape"></path><path fill="#955ec3" d="M284.684 176.173s-5.635 7.02-6.136 12.105l-2.394-4.443s4.467-6.628 8.53-7.662z" class="color5ec363 svgShape"></path><path fill="#a061d5" d="M282.87 187.335s-.505-6.178-3.246-8.547c0 0 3.612-1.401 3.8 3.959.184 5.36-.555 4.588-.555 4.588z" class="color72d561 svgShape"></path><path fill="#955ec3" d="m279.816 180.607-1.268-1.84s-.267-6.657 5.335-9.502c-.133.2-4.743 7.066-4.067 11.342z" class="color5ec363 svgShape"></path><path fill="#a061d5" d="M277.353 187.769c.461 0 .852.107 1.178.286-.452-7.181-10.019-7.598-10.019-7.598 4.825 2.656 7.102 5.627 8.114 7.413.22-.064.462-.101.727-.101z" class="color72d561 svgShape"></path><path fill="#5aa0e7" d="M273.932 188.782s7.674-2.234 8.558 5.936c0 0 2.123-4.804-.918-7.138s-6.296-1.45-7.64 1.202z" class="color78e75a svgShape"></path><path fill="#a061d5" d="M288.642 182.726c-3.257 1.956-4.838 9.769-4.838 9.769l-1.314 2.223s-.718-4.35.842-8.814c1.565-4.459 5.31-3.178 5.31-3.178z" class="color72d561 svgShape"></path><path fill="#5aa0e7" d="M284.828 183.522s4.358-3.413 7.276-1.72c2.918 1.695.866 4.537.866 4.537s-3.655-6.105-8.142-2.817zM282.26 179.245s-2.429-2.336-4.94-1.103c0 0-1.628.927-.542 3.11 0 0 1.523-3.901 5.482-2.007z" class="color78e75a svgShape"></path><path fill="#aa569b" d="M280.893 197.974v4.678c0 .118-.08.236-.233.326-.309.178-.816.178-1.128 0-.137-.08-.213-.182-.233-.284v-5.083c0-.24.106-.469.29-.618.858-.705 3.018-2.89 2.735-4.545a.802.802 0 0 1 .653-.92.795.795 0 0 1 .918.653c.427 2.482-2.084 4.974-3.002 5.793z" class="coloraa6256 svgShape"></path><path fill="#bf5aad" d="m70.457 201.167-.49 3.215-1.806 11.908c-.083.772-.626 1.523-1.638 2.108-2.213 1.284-5.824 1.284-8.047 0-.981-.574-1.534-1.284-1.66-2.025l-1.742-11.918-.48-3.288h15.863z" class="colorbf7d5a svgShape"></path><path fill="#aa569b" d="m70.457 201.167-.49 3.215c-.293.24-.616.47-.981.678-3.58 2.087-9.414 2.087-13.015 0a6.413 6.413 0 0 1-.897-.605l-.48-3.288h15.863z" class="coloraa6256 svgShape"></path><path fill="#db60c5" d="M68.143 204.004c-3.101 1.803-8.159 1.803-11.282 0-3.126-1.804-3.139-4.733-.038-6.533 3.107-1.807 8.155-1.807 11.281 0 3.124 1.8 3.146 4.729.039 6.533z" class="colordba660 svgShape"></path><path fill="#bf5aad" d="M69.2 200.749c.004.519-.223 1.032-.65 1.503a4.728 4.728 0 0 1-1.147.897c-1.291.752-3.03 1.163-4.893 1.163-1.867 0-3.611-.411-4.914-1.166-.483-.28-.88-.59-1.178-.921-.426-.471-.65-.981-.653-1.5 0-.874.638-1.726 1.798-2.4 1.294-.752 3.032-1.166 4.896-1.166 1.864 0 3.608.414 4.911 1.166 1.18.683 1.83 1.541 1.83 2.424z" class="colorbf7d5a svgShape"></path><path fill="#6cb5ff" d="M68.55 202.252a4.728 4.728 0 0 1-1.147.897c-1.291.752-3.03 1.163-4.893 1.163-1.867 0-3.611-.411-4.914-1.166-.483-.28-.88-.59-1.178-.921.29-.322.674-.626 1.145-.9 1.294-.752 3.032-1.166 4.896-1.166 1.864 0 3.608.414 4.911 1.168.49.28.883.594 1.18.925z" class="colorffd06c svgShape"></path><path fill="#aa569b" d="M62.038 198.406c-.18 0-.36-.06-.51-.184-2.895-2.412-2.549-9.226-2.5-9.995a.797.797 0 0 1 1.59.101c-.117 1.866 0 7.062 1.93 8.67a.796.796 0 0 1-.51 1.408z" class="coloraa6256 svgShape"></path><path fill="#955ec3" d="M64.638 191.903s3.82-9.478-9.054-10.858c0 0 9.585 4.35 9.054 10.858z" class="color5ec363 svgShape"></path><path fill="#a061d5" d="M72.58 189.529c-3.304.075-8.146 5.189-8.146 5.189l.312-1.477c5.06-7.466 7.834-3.712 7.834-3.712z" class="color72d561 svgShape"></path><path fill="#5aa0e7" d="M70.043 188.63s3.488-.65 4.42 1.303c.93 1.954-.792 2.915-.792 2.915s.428-4.17-3.628-4.218z" class="color78e75a svgShape"></path><path fill="#955ec3" d="M69.523 171c.033 5.36-3.179 13.87-3.179 13.87l-1.176 2.465C64.605 175.93 69.523 171 69.523 171z" class="color5ec363 svgShape"></path><path fill="#a061d5" d="m60.375 181.45-.755 2.665s-4.188-6.616-9.873-6.566c0 0 7.583-2.41 10.628 3.9z" class="color72d561 svgShape"></path><path fill="#a061d5" d="m61.689 180.749-.638 2.765s-2.282-10.453-5.465-13.677c.2.075 6.941 2.807 6.103 10.912z" class="color72d561 svgShape"></path><path fill="#955ec3" d="M66.628 176.173s-5.636 7.02-6.136 12.105l-2.394-4.443s4.467-6.628 8.53-7.662z" class="color5ec363 svgShape"></path><path fill="#a061d5" d="M64.813 187.335s-.505-6.178-3.245-8.547c0 0 3.612-1.401 3.8 3.959.184 5.36-.555 4.588-.555 4.588z" class="color72d561 svgShape"></path><path fill="#955ec3" d="m61.76 180.607-1.268-1.84s-.267-6.657 5.335-9.502c-.134.2-4.743 7.066-4.067 11.342z" class="color5ec363 svgShape"></path><path fill="#a061d5" d="M59.297 187.769c.461 0 .852.107 1.178.286-.452-7.181-10.02-7.598-10.02-7.598 4.826 2.656 7.103 5.627 8.115 7.413.22-.064.462-.101.727-.101z" class="color72d561 svgShape"></path><path fill="#5aa0e7" d="M55.876 188.782s7.673-2.234 8.558 5.936c0 0 2.123-4.804-.918-7.138-3.042-2.335-6.296-1.45-7.64 1.202z" class="color78e75a svgShape"></path><path fill="#a061d5" d="M70.586 182.726c-3.258 1.956-4.838 9.769-4.838 9.769l-1.314 2.223s-.718-4.35.842-8.814c1.564-4.459 5.31-3.178 5.31-3.178z" class="color72d561 svgShape"></path><path fill="#5aa0e7" d="M66.771 183.522s4.359-3.413 7.277-1.72c2.917 1.695.865 4.537.865 4.537s-3.654-6.105-8.142-2.817zM64.204 179.245s-2.43-2.336-4.94-1.103c0 0-1.628.927-.543 3.11 0 0 1.523-3.901 5.483-2.007z" class="color78e75a svgShape"></path><path fill="#aa569b" d="M62.837 197.974v4.678c0 .118-.08.236-.233.326-.31.178-.816.178-1.128 0-.137-.08-.214-.182-.233-.284v-5.083c0-.24.105-.469.29-.618.857-.705 3.018-2.89 2.735-4.545a.802.802 0 0 1 .653-.92.795.795 0 0 1 .918.653c.427 2.482-2.085 4.974-3.002 5.793z" class="coloraa6256 svgShape"></path><path fill="#bf5aad" d="M294.394 79.169a.845.845 0 0 0 .793-1.13L284.19 47.556a.844.844 0 0 0-1.477-.208l-12.305 17.028a.844.844 0 1 0 1.368.988l11.37-15.733 10.455 28.98a.844.844 0 0 0 .794.557z" class="colorbf7d5a svgShape"></path><path fill="#f8fbfe" d="m265.749 112.673 33.539 19.362.148-51.185-33.539-19.368z" class="colorf8f9fe svgShape"></path><path fill="#6822a2" d="m298.122 130.843 2.028-1.179-33.094-19.107-2.028 1.179z" class="color4c5c75 svgShape"></path><path fill="#431d43" d="m265.028 111.736 2.028-1.179.142-50.15-2.028 1.178z" class="color1d2943 svgShape"></path><path fill="#331133" d="m264.417 55.59-2.028 1.178-.16 56.563 38.678 22.33 2.028-1.178.16-56.563-38.678-22.33zm33.705 75.253-33.094-19.107.143-50.151 33.094 19.107-.143 50.15z" class="color111d33 svgShape"></path><path fill="#431d43" d="m300.907 135.662 2.028-1.179.16-56.563-2.027 1.179z" class="color1d2943 svgShape"></path><path fill="#6822a2" d="m301.068 79.099 2.027-1.179-38.678-22.331-2.028 1.179z" class="color4c5c75 svgShape"></path><path fill="#331133" d="M300.907 135.662 262.23 113.33l.16-56.563 38.679 22.33-.16 56.564zm-35.879-23.926 33.094 19.107.143-50.151-33.095-19.107-.142 50.15" class="color111d33 svgShape"></path><path fill="#f451d6" d="m269.618 69.14-.009 5.358 26.782 15.463.009-5.358z" class="colorf45170 svgShape"></path><path fill="#c9d5e2" d="m269.597 78.063-.003.931 26.781 15.462.003-.931zM269.597 82.057l-.003.93 26.781 15.463.003-.931zM269.597 86.05l-.003.931 26.781 15.462.003-.931zM269.597 90.043l-.003.931 26.781 15.462.003-.93zM269.597 94.037l-.003.931 26.781 15.462.003-.931zM269.597 98.03l-.003.931 26.781 15.462.003-.93zM277.01 110.854l19.368 11.182-.003.931-19.365-11.181z" class="colorc9cee2 svgShape"></path><g fill="#6257fe" class="color57b3fe svgShape"><path d="M274.639 109.148c-.005 1.617-1.154 2.272-2.562 1.46-1.409-.814-2.55-2.792-2.546-4.409.005-1.617 1.154-2.272 2.563-1.458 1.407.812 2.55 2.79 2.545 4.407zm-2.56 1.116c1.241.717 2.256.14 2.26-1.289.004-1.429-1.004-3.174-2.246-3.89-1.243-.718-2.259-.142-2.263 1.287s1.005 3.174 2.248 3.892" fill="#010001" class="color000000 svgShape"></path><path d="M272.091 105.652c-.972-.562-1.762-.112-1.765 1.006s.781 2.477 1.754 3.039c.97.56 1.76.11 1.764-1.008s-.782-2.477-1.753-3.037z" fill="#010001" class="color000000 svgShape"></path></g><path fill="#c9d5e2" d="M281.9 50.92c.168-.084.39-.084.613.055.5.278.89.974.89 1.502 0 .278-.111.473-.278.556l3.307-2.01c.167-.083.25-.278.25-.556 0-.529-.389-1.224-.862-1.502-.25-.14-.473-.14-.612-.056l-3.307 2.01z" class="colorc9cee2 svgShape"></path><path fill="#431d43" d="M280.768 50.871c.248-.124.594-.058.965.159.712.402 1.349 1.338 1.349 2.143 0 .434-.155.712-.403.867l.629-.356c.248-.154.371-.433.371-.866.031-.806-.588-1.827-1.3-2.26-.372-.218-.681-.218-.929-.094l-.682.407z" class="color1d2943 svgShape"></path><path fill="#6822a2" d="M281.78 50.92c-.731-.422-1.326-.083-1.329.734-.002.84.589 1.865 1.32 2.287.712.411 1.307.072 1.31-.769.002-.817-.59-1.841-1.301-2.252z" class="color4c5c75 svgShape"></path><path fill="#bf5aad" d="m282.242 48 .47-.65a.846.846 0 0 1 1.477.207l2.786 7.72a3.43 3.43 0 0 0-1.698.267l-2.133-5.912-.337.467c.128-.843-.111-1.555-.565-2.1z" class="colorbf7d5a svgShape"></path><path fill="#f451d6" d="M293.365 119.9c.084.267.134.54.134.783 0 .17-.026.33-.083.463-.147.34-.446.414-.767.354-.32-.053-.674-.23-.992-.395-3.638-1.93-7.237-4.043-10.86-5.944a.374.374 0 0 1-.175-.285c-.003-.11.067-.16.16-.109 3.636 1.904 7.238 4.022 10.864 5.945.306.16.632.316.892.359.266.046.46-.006.567-.25a.844.844 0 0 0 .058-.332c0-.18-.038-.394-.107-.608-.162-.518-.451-1.008-.767-1.517-.228-.369-.469-.746-.675-1.15-.169.29-.363.559-.629.734-.351.229-.839.281-1.38-.028a2.7 2.7 0 0 1-.775-.73 2.817 2.817 0 0 1-.423-.84c-.315-.13-.629-.263-.942-.392-.275-.117-.553-.233-.84-.381a6.359 6.359 0 0 1-.557-.318c-.146.23-.371.374-.681.327a1.04 1.04 0 0 1-.357-.133 2.201 2.201 0 0 1-.74-.758c-.12-.205-.177-.401-.173-.552 0-.177.064-.304.17-.364.103-.059.252-.057.415.037.057.034.115.077.175.13.319.295.648.559.98.787.111-.321.122-.719.129-1.132.011-.807.025-1.612.04-2.418v-.16c.005-.57-.05-1.208-.288-1.72l-.043-.053-.051.016a20.657 20.657 0 0 1-1.478 3.514c-.329.61-.709 1.222-1.342 1.437-.406.138-.929.072-1.449-.228a3.085 3.085 0 0 1-.87-.766c-.08-.103-.104-.235-.059-.299.032-.043.089-.044.146-.011a.31.31 0 0 1 .084.075c.211.267.45.471.7.616.432.25.892.313 1.24.194.561-.19.923-.754 1.248-1.355a20.21 20.21 0 0 0 1.46-3.477c.052-.172.215-.192.373-.101.114.066.238.2.313.369.313.688.35 1.384.352 1.983v.167c-.015.805-.027 1.612-.04 2.418-.008.387-.015.802-.119 1.154a6.951 6.951 0 0 0 .405.225c.269.138.538.252.813.369.36.148.72.3 1.079.449a.378.378 0 0 1 .187.254c.045.241.165.495.334.728s.38.435.582.552c.417.24.832.213 1.135.009.272-.177.473-.48.655-.812a4.383 4.383 0 0 1-.33-1.654c.001-.386.06-.742.157-1.05.23-.71.645-1.2 1.05-1.673a.858.858 0 0 1 .318-.254.512.512 0 0 1 .48.041c.053.03.11.071.164.123a.7.7 0 0 1 .208.31c.036.108.045.2.044.294 0 .26-.077.554-.193.894-.119.334-.277.709-.457 1.085-.352.752-.771 1.528-1.057 2.075.196.423.463.842.736 1.283.32.519.65 1.072.852 1.695zm-1.793-3.507c.438-.829 1.088-2.044 1.4-2.939.112-.32.177-.61.177-.78l-.006-.08-.075-.068a.279.279 0 0 0-.26-.008.749.749 0 0 0-.258.21c-.404.472-.802.945-1.01 1.597-.088.28-.14.6-.142.944 0 .358.054.74.174 1.124m-6.299-1.235a.453.453 0 0 0 .422-.15 9.21 9.21 0 0 1-.916-.747l-.078-.06c-.067-.038-.13-.04-.176-.014-.048.028-.073.087-.073.15 0 .055.015.112.063.2l.01.012c.129.217.319.41.506.518a.722.722 0 0 0 .242.091" class="colorf45170 svgShape"></path></svg>