<svg xmlns="http://www.w3.org/2000/svg" enable-background="new 0 0 289.48 293.71" viewBox="0 0 289.48 293.71" id="Creativepeople"><g fill="#f4f6f8" class="color000000 svgShape"><g fill="#f4f6f8" class="color000000 svgShape"><g fill="#f4f6f8" class="color000000 svgShape"><g fill="#f4f6f8" class="color000000 svgShape"><g fill="#f4f6f8" class="color000000 svgShape"><g fill="#f4f6f8" class="color000000 svgShape"><g fill="#f4f6f8" class="color000000 svgShape"><g fill="#f4f6f8" class="color000000 svgShape"><g fill="#f4f6f8" class="color000000 svgShape"><g fill="#f4f6f8" class="color000000 svgShape"><polygon fill="#233f63" points="206.968 164.496 206.964 165.966 206.446 165.667 206.45 164.197" class="color233163 svgShape"></polygon></g><g fill="#f4f6f8" class="color000000 svgShape"><polygon fill="#395271" points="210.907 162.801 210.903 164.271 207.477 166.262 207.481 164.792" class="color394971 svgShape"></polygon></g><g fill="#f4f6f8" class="color000000 svgShape"><polygon fill="#0c2340" points="207.481 164.792 207.477 166.262 206.964 165.966 206.968 164.496" class="color28334f svgShape"></polygon></g><g fill="#f4f6f8" class="color000000 svgShape"><polygon fill="#0c2340" points="214.672 164.975 214.668 166.445 210.903 164.271 210.907 162.801" class="color28334f svgShape"></polygon></g><g fill="#f4f6f8" class="color000000 svgShape"><polygon fill="#a7adb3" points="214.672 164.975 214.668 166.445 211.242 168.436 211.246 166.966" class="colora7acb3 svgShape"></polygon></g><g fill="#f4f6f8" class="color000000 svgShape"><polygon fill="#0c2340" points="211.764 167.265 211.76 168.735 211.242 168.436 211.246 166.966" class="color28334f svgShape"></polygon></g><g fill="#f4f6f8" class="color000000 svgShape"><polygon fill="#2d4c74" points="216.721 164.978 216.717 166.448 212.273 169.031 212.277 167.561" class="color2d3a74 svgShape"></polygon></g><g fill="#f4f6f8" class="color000000 svgShape"><polygon fill="#233f63" points="212.277 167.561 212.273 169.031 211.76 168.735 211.764 167.265" class="color233163 svgShape"></polygon></g><g fill="#f4f6f8" class="color000000 svgShape"><polygon fill="#78747c" points="195.904 171.52 195.9 172.99 195.387 172.694 195.392 171.224" class="color74787c svgShape"></polygon></g><g fill="#f4f6f8" class="color000000 svgShape"><polygon fill="#395271" points="195.904 171.52 195.9 172.99 192.473 174.981 192.478 173.511" class="color394971 svgShape"></polygon></g><g fill="#f4f6f8" class="color000000 svgShape"><polygon fill="#78747c" points="200.185 173.994 200.18 175.464 199.665 175.164 199.669 173.693" class="color74777c svgShape"></polygon></g><g fill="#f4f6f8" class="color000000 svgShape"><polygon fill="#a5aeb7" points="211.764 167.265 211.76 168.735 200.18 175.464 200.185 173.994" class="colora5acb7 svgShape"></polygon></g><g fill="#f4f6f8" class="color000000 svgShape"><polygon fill="#a7adb3" points="199.669 173.693 199.665 175.164 196.239 177.155 196.243 175.685" class="colora7acb3 svgShape"></polygon></g><g fill="#f4f6f8" class="color000000 svgShape"><polygon fill="#f4f6f8" points="214.672 164.975 211.246 166.966 211.764 167.265 200.185 173.994 199.669 173.693 196.243 175.685 192.478 173.511 195.904 171.52 195.392 171.224 206.968 164.496 207.481 164.792 210.907 162.801" class="coloreaeffa svgShape"></polygon></g><g fill="#f4f6f8" class="color000000 svgShape"><polygon fill="#78747c" points="196.243 175.685 196.239 177.155 192.473 174.981 192.478 173.511" class="color74787c svgShape"></polygon></g><g fill="#f4f6f8" class="color000000 svgShape"><polygon fill="#233f63" points="196.25 176.875 196.246 178.345 190.419 174.981 190.423 173.511" class="color233163 svgShape"></polygon></g><g fill="#f4f6f8" class="color000000 svgShape"><polygon fill="#2d4c74" points="200.694 174.292 200.69 175.762 196.246 178.345 196.25 176.875" class="color2d3a74 svgShape"></polygon></g><g fill="#f4f6f8" class="color000000 svgShape"><polygon fill="#724a93" points="199.669 173.693 200.185 173.994 200.694 174.292 196.25 176.875 190.423 173.511 194.873 170.925 195.392 171.224 195.904 171.52 192.478 173.511 196.243 175.685" class="color4a5f93 svgShape"></polygon></g></g></g><g fill="#f4f6f8" class="color000000 svgShape"><polygon fill="#724a93" points="216.721 164.978 212.277 167.561 211.764 167.265 211.246 166.966 214.672 164.975 210.907 162.801 207.481 164.792 206.968 164.496 206.45 164.197 210.895 161.614" class="color4a5f93 svgShape"></polygon></g></g><g fill="#f4f6f8" class="color000000 svgShape"><g fill="#f4f6f8" class="color000000 svgShape"><g fill="#f4f6f8" class="color000000 svgShape"><polygon fill="#233f63" points="205.475 143.885 205.425 170.016 204.263 170.691 204.314 144.56" class="color233163 svgShape"></polygon></g><g fill="#f4f6f8" class="color000000 svgShape"><polygon fill="#6822a2" points="204.314 144.56 204.263 170.691 201.324 168.994 201.375 142.863" class="color3f528c svgShape"></polygon></g><g fill="#f4f6f8" class="color000000 svgShape"><polygon fill="#6822a2" points="205.07 144.12 204.314 144.56 201.375 142.863 202.131 142.423" class="color3f528c svgShape"></polygon></g></g></g></g><g fill="#f4f6f8" class="color000000 svgShape"><g fill="#f4f6f8" class="color000000 svgShape"><g fill="#f4f6f8" class="color000000 svgShape"><g fill="#f4f6f8" class="color000000 svgShape"><g fill="#f4f6f8" class="color000000 svgShape"><polygon fill="#233f63" points="164.234 139.82 164.229 141.29 163.711 140.991 163.715 139.521" class="color233163 svgShape"></polygon></g><g fill="#f4f6f8" class="color000000 svgShape"><polygon fill="#395271" points="168.172 138.125 168.168 139.595 164.742 141.586 164.746 140.116" class="color394971 svgShape"></polygon></g><g fill="#f4f6f8" class="color000000 svgShape"><polygon fill="#0c2340" points="164.746 140.116 164.742 141.586 164.229 141.29 164.234 139.82" class="color28334f svgShape"></polygon></g><g fill="#f4f6f8" class="color000000 svgShape"><polygon fill="#0c2340" points="171.938 140.299 171.933 141.769 168.168 139.595 168.172 138.125" class="color28334f svgShape"></polygon></g><g fill="#f4f6f8" class="color000000 svgShape"><polygon fill="#a7adb3" points="171.938 140.299 171.933 141.769 168.507 143.76 168.511 142.29" class="colora7acb3 svgShape"></polygon></g><g fill="#f4f6f8" class="color000000 svgShape"><polygon fill="#0c2340" points="169.03 142.589 169.025 144.059 168.507 143.76 168.511 142.29" class="color28334f svgShape"></polygon></g><g fill="#f4f6f8" class="color000000 svgShape"><polygon fill="#2d4c74" points="173.986 140.302 173.982 141.772 169.538 144.355 169.542 142.885" class="color2d3a74 svgShape"></polygon></g><g fill="#f4f6f8" class="color000000 svgShape"><polygon fill="#233f63" points="169.542 142.885 169.538 144.355 169.025 144.059 169.03 142.589" class="color233163 svgShape"></polygon></g><g fill="#f4f6f8" class="color000000 svgShape"><polygon fill="#78747c" points="153.169 146.844 153.165 148.314 152.652 148.018 152.657 146.548" class="color74787c svgShape"></polygon></g><g fill="#f4f6f8" class="color000000 svgShape"><polygon fill="#395271" points="153.169 146.844 153.165 148.314 149.739 150.305 149.743 148.835" class="color394971 svgShape"></polygon></g><g fill="#f4f6f8" class="color000000 svgShape"><polygon fill="#78747c" points="157.45 149.318 157.446 150.789 156.93 150.488 156.934 149.018" class="color74777c svgShape"></polygon></g><g fill="#f4f6f8" class="color000000 svgShape"><polygon fill="#a5aeb7" points="169.03 142.589 169.025 144.059 157.446 150.789 157.45 149.318" class="colora5acb7 svgShape"></polygon></g><g fill="#f4f6f8" class="color000000 svgShape"><polygon fill="#a7adb3" points="156.934 149.018 156.93 150.488 153.504 152.479 153.508 151.009" class="colora7acb3 svgShape"></polygon></g><g fill="#f4f6f8" class="color000000 svgShape"><polygon fill="#f4f6f8" points="171.938 140.299 168.511 142.29 169.03 142.589 157.45 149.318 156.934 149.018 153.508 151.009 149.743 148.835 153.169 146.844 152.657 146.548 164.234 139.82 164.746 140.116 168.172 138.125" class="coloreaeffa svgShape"></polygon></g><g fill="#f4f6f8" class="color000000 svgShape"><polygon fill="#78747c" points="153.508 151.009 153.504 152.479 149.739 150.305 149.743 148.835" class="color74787c svgShape"></polygon></g><g fill="#f4f6f8" class="color000000 svgShape"><polygon fill="#233f63" points="153.515 152.199 153.511 153.669 147.684 150.305 147.688 148.835" class="color233163 svgShape"></polygon></g><g fill="#f4f6f8" class="color000000 svgShape"><polygon fill="#2d4c74" points="157.959 149.616 157.955 151.086 153.511 153.669 153.515 152.199" class="color2d3a74 svgShape"></polygon></g><g fill="#f4f6f8" class="color000000 svgShape"><polygon fill="#724a93" points="156.934 149.018 157.45 149.318 157.959 149.616 153.515 152.199 147.688 148.835 152.139 146.249 152.657 146.548 153.169 146.844 149.743 148.835 153.508 151.009" class="color4a5f93 svgShape"></polygon></g></g></g><g fill="#f4f6f8" class="color000000 svgShape"><polygon fill="#724a93" points="173.986 140.302 169.542 142.885 169.03 142.589 168.511 142.29 171.938 140.299 168.172 138.125 164.746 140.116 164.234 139.82 163.715 139.521 168.16 136.938" class="color4a5f93 svgShape"></polygon></g></g><g fill="#f4f6f8" class="color000000 svgShape"><g fill="#f4f6f8" class="color000000 svgShape"><g fill="#f4f6f8" class="color000000 svgShape"><polygon fill="#233f63" points="162.741 119.209 162.69 145.34 161.529 146.015 161.579 119.884" class="color233163 svgShape"></polygon></g><g fill="#f4f6f8" class="color000000 svgShape"><polygon fill="#6822a2" points="161.579 119.884 161.529 146.015 158.589 144.318 158.64 118.187" class="color3f528c svgShape"></polygon></g><g fill="#f4f6f8" class="color000000 svgShape"><polygon fill="#6822a2" points="162.335 119.445 161.579 119.884 158.64 118.187 159.396 117.748" class="color3f528c svgShape"></polygon></g></g></g></g></g><g fill="#f4f6f8" class="color000000 svgShape"><g fill="#f4f6f8" class="color000000 svgShape"><g fill="#f4f6f8" class="color000000 svgShape"><g fill="#f4f6f8" class="color000000 svgShape"><polygon fill="#6822a2" points="217.204 151.244 152.885 113.866 151.969 114.395 216.289 151.773" class="color3f528c svgShape"></polygon></g><g fill="#f4f6f8" class="color000000 svgShape"><polygon fill="#6822a2" points="217.663 148.44 153.344 111.062 152.878 111.331 217.197 148.709" class="color3f528c svgShape"></polygon></g><g fill="#f4f6f8" class="color000000 svgShape"><polygon fill="#f4f6f8" points="216.282 149.238 151.962 111.86 151.969 114.395 216.289 151.773" class="coloreaeffa svgShape"></polygon></g><g fill="#f4f6f8" class="color000000 svgShape"><polygon fill="#233f63" points="215.824 149.502 151.504 112.124 151.513 115.185 215.833 152.563" class="color233163 svgShape"></polygon></g><g fill="#f4f6f8" class="color000000 svgShape"><polygon fill="#6822a2" points="216.282 149.238 151.962 111.86 151.504 112.124 215.824 149.502" class="color3f528c svgShape"></polygon></g><g fill="#f4f6f8" class="color000000 svgShape"><polygon fill="#6822a2" points="217.058 91.99 152.739 54.611 152.746 57.146 217.065 94.524" class="color3f528c svgShape"></polygon></g><g fill="#f4f6f8" class="color000000 svgShape"><polygon fill="#f4f6f8" points="217.298 94.389 152.979 57.011 152.746 57.146 217.065 94.524" class="coloreaeffa svgShape"></polygon></g><g fill="#f4f6f8" class="color000000 svgShape"><polygon fill="#f4f6f8" points="216.15 95.052 151.83 57.674 151.605 57.804 215.925 95.182" class="coloreaeffa svgShape"></polygon></g><g fill="#f4f6f8" class="color000000 svgShape"><polygon fill="#f4f6f8" points="216.142 92.518 151.823 55.14 151.83 57.674 216.15 95.052" class="coloreaeffa svgShape"></polygon></g><g fill="#f4f6f8" class="color000000 svgShape"><polygon fill="#f4f6f8" points="217.058 91.99 152.739 54.611 151.823 55.14 216.142 92.518" class="coloreaeffa svgShape"></polygon></g><g fill="#f4f6f8" class="color000000 svgShape"><polygon fill="#bcc4cc" points="216.142 92.518 216.15 95.052 215.925 95.182 216.057 149.368 216.282 149.238 216.289 151.773 217.204 151.244 217.197 148.709 217.43 148.575 217.298 94.389 217.065 94.524 217.058 91.99" class="colorbcc2cc svgShape"></polygon></g><g fill="#f4f6f8" class="color000000 svgShape"><polygon fill="#724a93" points="217.523 91.194 153.203 53.816 151.364 54.878 215.683 92.256" class="color4a5f93 svgShape"></polygon></g></g></g><g fill="#f4f6f8" class="color000000 svgShape"><g fill="#f4f6f8" class="color000000 svgShape"><polygon fill="#6822a2" points="215.824 149.502 215.833 152.563 217.672 151.501 217.663 148.44 217.197 148.709 217.204 151.244 216.289 151.773 216.282 149.238" class="color3f528c svgShape"></polygon></g></g><g fill="#f4f6f8" class="color000000 svgShape"><polygon fill="#f4f6f8" points="215.925 95.182 151.605 57.804 151.738 111.99 216.057 149.368" class="coloreaeffa svgShape"></polygon><g fill="#f4f6f8" class="color000000 svgShape"><polygon fill="#ffffff" points="214.146 146.049 153.629 110.884 153.527 61.117 214.019 96.281" class="colorffffff svgShape"></polygon></g></g><g fill="#f4f6f8" class="color000000 svgShape"><polygon fill="#233f63" points="215.683 92.256 151.364 54.878 151.372 57.938 215.692 95.317" class="color233163 svgShape"></polygon></g><g fill="#f4f6f8" class="color000000 svgShape"><polygon fill="#6822a2" points="215.683 92.256 215.692 95.317 215.925 95.182 216.15 95.052 216.142 92.518 217.058 91.99 217.065 94.524 217.298 94.389 217.531 94.255 217.523 91.194" class="color3f528c svgShape"></polygon></g></g></g><g fill="#f4f6f8" class="color000000 svgShape"><path fill="#83baf2" d="M156.758,92.261c1.84,4.029,1.832,6.991-0.025,8.886l12.031,7.01
					c1.297-2.218,1.306-5.18,0.025-8.885L156.758,92.261z" class="colorf283b5 svgShape"></path></g><g fill="#f4f6f8" class="color000000 svgShape"><path fill="#8cadcf" d="M177.753,104.57c1.84,4.029,1.832,6.991-0.025,8.885l12.031,7.011
					c1.297-2.218,1.306-5.18,0.025-8.886L177.753,104.57z" class="color8ccfb1 svgShape"></path></g><g fill="#f4f6f8" class="color000000 svgShape"><path fill="#724a93" d="M197.852,117.551c1.84,4.029,1.832,6.991-0.025,8.885l12.031,7.01
					c1.297-2.218,1.306-5.18,0.025-8.885L197.852,117.551z" class="color4a5f93 svgShape"></path></g><g fill="#f4f6f8" class="color000000 svgShape"><g fill="#f4f6f8" class="color000000 svgShape"><g fill="#f4f6f8" class="color000000 svgShape"><path fill="#724a93" d="M168.748,76.002c0.61,0.352,1.103,1.206,1.101,1.906l-0.017,5.988
							c-0.002,0.701,0.49,1.553,1.1,1.906c0.61,0.352,1.105,0.069,1.107-0.631l0.01-3.423c0.002-0.701,0.498-0.983,1.107-0.631
							l0.072,0.042c0.61,0.352,1.102,1.205,1.1,1.906l-0.023,8.053l-15.744-9.09l0.03-10.618c0.002-0.701,0.498-0.983,1.107-0.631
							l0.072,0.041c0.61,0.352,1.102,1.205,1.1,1.906l-0.017,5.988c-0.002,0.701,0.491,1.554,1.101,1.906
							c0.61,0.352,1.105,0.069,1.107-0.631l0.01-3.423c0.002-0.701,0.498-0.983,1.107-0.631l0.072,0.042
							c0.61,0.352,1.102,1.205,1.1,1.906l-0.01,3.423c-0.002,0.701,0.491,1.554,1.1,1.906c0.61,0.352,1.106,0.069,1.108-0.631
							l0.017-5.988c0.002-0.7,0.498-0.983,1.108-0.631L168.748,76.002z" class="color4a5f93 svgShape"></path></g><g fill="#f4f6f8" class="color000000 svgShape"><path fill="#8cadcf" d="M168.748,79.312c0.61,0.352,1.103,1.206,1.101,1.907l-0.017,5.987
							c-0.002,0.701,0.49,1.554,1.1,1.906c0.61,0.352,1.105,0.069,1.107-0.631l0.01-3.423c0.002-0.701,0.498-0.983,1.107-0.631
							l0.072,0.042c0.61,0.352,1.102,1.205,1.1,1.906l-0.023,8.053l-15.744-9.09l0.03-10.618c0.002-0.701,0.498-0.984,1.107-0.632
							l0.072,0.041c0.61,0.352,1.102,1.205,1.1,1.906l-0.017,5.987c-0.002,0.701,0.491,1.554,1.101,1.906
							c0.61,0.352,1.105,0.069,1.107-0.631l0.01-3.423c0.002-0.7,0.498-0.983,1.107-0.631l0.072,0.042
							c0.61,0.352,1.102,1.205,1.1,1.906l-0.01,3.423c-0.002,0.701,0.491,1.554,1.1,1.906c0.61,0.352,1.106,0.069,1.108-0.631
							l0.017-5.987c0.002-0.701,0.498-0.984,1.108-0.632L168.748,79.312z" class="color8ccfb1 svgShape"></path></g></g><g fill="#f4f6f8" class="color000000 svgShape"><path fill="#e576d1" d="M196.204,95.912l-0.029,10.161l-18.634-10.758l0.021-7.391c0.138,0.124,0.292,0.239,0.462,0.337
						c0.357,0.206,0.787,0.339,1.298,0.327c0.344-0.007,0.654-0.103,0.93-0.259c0.289-0.164,0.813-0.351,1.381-0.023
						c0.51,0.295,1.057,1.005,1.501,2.521c0.189,0.643,0.621,1.173,1.057,1.425c0.358,0.207,0.719,0.226,0.95-0.033l0.798-0.894
						c0.23-0.258,0.591-0.24,0.949-0.033c0.411,0.237,0.819,0.722,1.026,1.325l0.379,1.103c0.204,0.593,0.611,1.085,1.026,1.325
						c0.286,0.165,0.574,0.21,0.802,0.085l1.638-0.901c0.222-0.122,0.513-0.082,0.804,0.086c0.258,0.149,0.516,0.397,0.727,0.721
						c0.214,0.326,0.471,0.574,0.728,0.722c0.195,0.113,0.39,0.168,0.563,0.156C195.109,95.878,195.645,95.858,196.204,95.912z" class="colore576ad svgShape"></path><path fill="#b7dbff" d="M196.2,99.794l-0.021,7.262l-18.634-10.758l0.013-4.492c0.138,0.123,0.292,0.238,0.461,0.336
						c0.357,0.206,0.787,0.34,1.299,0.328c0.344-0.008,0.654-0.103,0.93-0.259c0.289-0.164,0.813-0.351,1.381-0.023
						c0.51,0.295,1.056,1.005,1.501,2.521c0.189,0.643,0.621,1.173,1.057,1.425c0.358,0.207,0.719,0.226,0.95-0.033l0.798-0.894
						c0.23-0.258,0.591-0.24,0.95-0.033c0.411,0.237,0.819,0.722,1.026,1.325l0.379,1.103c0.203,0.594,0.611,1.086,1.026,1.325
						c0.285,0.165,0.574,0.21,0.801,0.085l1.638-0.901c0.223-0.122,0.513-0.082,0.804,0.087c0.258,0.149,0.516,0.397,0.727,0.721
						c0.213,0.326,0.471,0.573,0.727,0.721c0.195,0.113,0.39,0.168,0.563,0.156C195.105,99.76,195.641,99.741,196.2,99.794z" class="colorb7ceff svgShape"></path></g><g fill="#f4f6f8" class="color000000 svgShape"><g fill="#f4f6f8" class="color000000 svgShape"><g fill="#f4f6f8" class="color000000 svgShape"><path fill="#b5cee7" d="M207.428,110.516l1.736,3.007c-1.029,0.587-2.448,0.497-4.013-0.406
								c-1.565-0.904-2.981-2.451-4.003-4.222l1.747-0.996c0.578,1.001,1.379,1.876,2.264,2.387
								C206.044,110.797,206.846,110.847,207.428,110.516z" class="colore7b8b5 svgShape"></path></g><g fill="#f4f6f8" class="color000000 svgShape"><path fill="#8cadcf" d="M201.174,99.684l1.736,3.008c-0.582,0.332-0.943,1.045-0.946,2.062
								c-0.003,1.017,0.353,2.145,0.931,3.146l-1.747,0.996c-1.023-1.771-1.653-3.765-1.648-5.564
								C199.505,101.532,200.145,100.27,201.174,99.684z" class="color8ccfb1 svgShape"></path></g><g fill="#f4f6f8" class="color000000 svgShape"><path fill="#938cf7" d="M209.19,104.312c1.022,1.771,1.652,3.766,1.647,5.564c-0.005,1.799-0.644,3.061-1.673,3.647
								l-1.736-3.007c0.581-0.332,0.943-1.045,0.946-2.062c0.003-1.017-0.353-2.145-0.931-3.146L209.19,104.312z" class="color8ca8f7 svgShape"></path></g><g fill="#f4f6f8" class="color000000 svgShape"><path fill="#83baf2" d="M205.188,100.09c1.565,0.903,2.98,2.451,4.002,4.222l-1.748,0.996
								c-0.578-1.002-1.378-1.876-2.263-2.387c-0.885-0.511-1.688-0.562-2.27-0.23l-1.736-3.008
								C202.203,99.097,203.622,99.186,205.188,100.09z" class="colorf283b5 svgShape"></path></g></g></g></g></g><g fill="#f4f6f8" class="color000000 svgShape"><g fill="#f4f6f8" class="color000000 svgShape"><path fill="#c3d8ed" d="M171.854,149.584c-0.015-0.022-0.028-0.046-0.043-0.067c-1.199-1.751-2.791-3.15-4.41-4.521
					c-2.237-1.891-0.914-4.808-0.81-5.083c0,0-1.587-0.891-1.435-1.187l-4.918,2.46c0.204,1.131,0.465,2.364,0.672,3.921
					c0.145,1.09,2.152,2.827,4.373,4.476H171.854z" class="coloredc3d2 svgShape"></path><path fill="#5046e4" d="M161.421,129.115c-1.855,0.959-3.21,3.264-2.907,6.351c0.098,1.012,0.859,3.843,1.536,5.902
					c1.268,0.093,5.739,0.365,6.711-1.205c0.155-2.465-0.086-5.665-0.197-6.812C166.262,130.261,163.273,128.152,161.421,129.115z" class="color8294ed svgShape"></path></g><g fill="#f4f6f8" class="color000000 svgShape"><g fill="#f4f6f8" class="color000000 svgShape"><g fill="#f4f6f8" class="color000000 svgShape"><path fill="#6822a2" d="M172.182,198.538c1.357,2.056-3.44,4.654-4.563,4.725c-1.123,0.071-1.521,0.96-1.521,0.96
							c-2.176,1.613-3.44-0.141-3.44-0.141l-0.141-2.911C171.151,197.069,172.182,198.538,172.182,198.538z" class="color3f528c svgShape"></path><path fill="#83baf2" d="M167.413,200.443c0,0-2.549,3.6-4.895,0.728c0,0-0.967-15.048,0.348-22.58
							c0.307-1.756,0.231-3.539-0.296-5.242c-0.785-2.537-4.291-8.415-2.412-13.517l11.383,0.901c0,0,0.968,7.313-1.829,15.293
							c-0.61,1.741-1.167,3.495-1.434,5.32C167.782,184.741,167.213,190.078,167.413,200.443z" class="colorf283b5 svgShape"></path><g fill="#f4f6f8" class="color000000 svgShape"><path fill="#e576d1" d="M163.343,200.667c0,0-0.967-15.048,0.348-22.58c0.306-1.755,0.231-3.538-0.296-5.241
								c-0.757-2.446-3.995-7.992-2.547-12.959l-0.69-0.054c-1.879,5.102,1.627,10.979,2.412,13.517
								c0.527,1.703,0.602,3.486,0.296,5.243c-1.314,7.532-0.348,22.58-0.348,22.58c1.388,1.699,2.842,1.132,3.802,0.386
								C165.444,201.941,164.374,201.93,163.343,200.667z" class="colore576ad svgShape"></path></g></g></g><g fill="#f4f6f8" class="color000000 svgShape"><path fill="#6822a2" d="M177.792,202.374c1.357,2.056-3.44,4.654-4.563,4.725c-1.123,0.071-1.521,0.96-1.521,0.96
						c-2.176,1.613-3.44-0.141-3.44-0.141l-0.141-2.91C176.761,200.906,177.792,202.374,177.792,202.374z" class="color3f528c svgShape"></path><path fill="#93c8fd" d="M177.164,162.346l-10.844-0.496c-2.67,3.704,1.075,12.799,1.86,15.337
						c0.527,1.702,0.602,3.486,0.296,5.241c-1.314,7.532-0.347,22.58-0.347,22.58c2.346,2.872,4.895-0.728,4.895-0.728
						c-0.2-10.365,0.369-15.702,0.865-19.096c0.266-1.826,0.824-3.58,1.434-5.321C178.119,171.883,177.164,162.346,177.164,162.346z
						" class="colorfd93bf svgShape"></path><g fill="#f4f6f8" class="color000000 svgShape"><g fill="#f4f6f8" class="color000000 svgShape"><g fill="#f4f6f8" class="color000000 svgShape"><path fill="#83baf2" d="M168.808,204.173c0,0-0.967-15.047,0.348-22.579c0.167-0.957-0.3-2.434-0.843-3.857
									c0.385,1.536,0.437,3.123,0.163,4.692c-1.314,7.531-0.348,22.58-0.348,22.58c2.346,2.872,4.895-0.729,4.895-0.729
									c-0.001-0.025,0-0.044-0.001-0.07C172.108,205.077,170.411,206.136,168.808,204.173z" class="colorf283b5 svgShape"></path></g></g></g></g></g><path fill="#938cf7" d="M177.312,138.727c-2.788-1.164,0.276-6.456-1.898-7.209c-2.175-0.753-5.335-1.736-5.335-1.736
				s-2.499,0.92-5.51-1.255c0,0-4.747-0.54-4.747,3.392c0,3.931-0.188,3.634,2.991,9.238c3.178,5.605-2.32,16.46-2.655,18.675
				c0,0,15.48,7.622,17.006,2.514c0,0,0.184-1.222-0.124-3.984c-0.283-2.535-0.151-9.229-0.151-9.229
				c0.053-1.639,1.023-2.761,1.956-4.111C179.921,143.463,180.213,139.938,177.312,138.727z" class="color8ca8f7 svgShape"></path><g fill="#f4f6f8" class="color000000 svgShape"><path fill="#d7e7f7" d="M171.654,139.297c0,0,0.242-4.097,3.99-2.962c2.898,0.866,2.331,9.778,1.928,13.713
					c-0.119,1.137,0.438,2.233,1.44,2.791l5.137,3.814c0.05,0.004,0.621,0.629,1.052,0.541c0.016-0.002,0.031-0.006,0.047-0.01
					c1.326-0.322,2.723-0.152,3.859,0.604c0.452,0.3,1.86,0.645,1.721,1.028c-0.124,0.339-1.884,0.065-1.917,0.143
					c-0.011,0.042,0.328,0.238,0.304,0.251c0.117,0.021,0.338,0.082,0.728,0.229c1.985,0.738,2.656,1.668,2.702,1.722
					c0,0-0.01,0.123-0.194,0.234c-0.211,0.131-0.663,0.169-1.599-0.283c0.046,0.054,1.663,1.012,1.142,1.267
					c-0.105,0.067-0.258,0.104-0.556,0.079c0,0-0.173-0.014-0.715-0.408c0.281,0.223,0.418,0.574,0.234,0.685
					c-0.103,0.04-1.878-0.422-1.996-0.508c0.155,0.238,0.508,0.791,0.248,0.92c-0.104,0.041-0.304,0.049-0.647-0.029
					c-1.219-0.352-3.489-1.563-4.323-3.23c-0.238-0.443-1.559-1.053-1.559-1.053l-8.667-3.815c-0.787-0.441-1.347-1.211-1.471-2.12
					C172.066,149.34,171.463,141.004,171.654,139.297z" class="colorf7d7e1 svgShape"></path><g fill="#f4f6f8" class="color000000 svgShape"><g fill="#f4f6f8" class="color000000 svgShape"><path fill="#5046e4" d="M178.076,143.542c0.36-2.342,0.661-6.365,0.652-7.475c-0.025-2.991-2.713-5.34-4.572-4.623
							c-1.862,0.712-3.359,2.768-3.333,5.756c0.008,0.98,0.229,5.26,0.702,7.305C174.773,145.326,178.06,143.531,178.076,143.542z" class="color8294ed svgShape"></path></g></g></g><path fill="#b3cae2" d="M170.658,128.878c0,0,0.229-1.047,0.813-2.859c0.585-1.812-3.288-1.023-3.288-1.023l-2.996,0.847
				l0.438,2.367l2.983,1.432L170.658,128.878z" class="colore2b3c7 svgShape"></path><path fill="#d7e7f7" d="M175.559,116.123l-6.787,2.146c0,0-2.102,13.398,2.324,8.965c4.426-4.433,3.787-6.09,3.817-7.258
				C174.944,118.793,175.559,116.123,175.559,116.123z" class="colorf7d7e1 svgShape"></path><g fill="#f4f6f8" class="color000000 svgShape"><path fill="#5046e4" d="M165.508,127.155c0.633,0.492,1.264,0.905,1.875,1.206c1.065,0.525,2.435,0.649,3.274,0.517
					c0.39,0.71,0.297,0.588,0.692,1.305c-1.065,0.165-2.418,0.173-3.767-0.493c-0.883-0.436-1.713-0.766-2.566-1.322
					C165.192,127.971,165.353,127.565,165.508,127.155z" class="color8294ed svgShape"></path></g><path fill="#6822a2" d="M174.727,113.215c0,0-5.364-5.95-11.481,0c0,0-3.115,3.793-0.631,9.01c0,0,0.778,1.54,0.175,5.602
				c-0.215,1.447,0.175,4.969,4.794,3.358c0,0,3.579-1.347,3.464-6.438c-0.019-0.843-0.743-2.461,0.302-3.355
				c1.045-0.894,1.038,0.171,1.03,0.833C172.381,122.225,177.535,118.244,174.727,113.215z" class="color3f528c svgShape"></path></g><g fill="#f4f6f8" class="color000000 svgShape"><g fill="#f4f6f8" class="color000000 svgShape"><g fill="#f4f6f8" class="color000000 svgShape"><g fill="#f4f6f8" class="color000000 svgShape"><g fill="#f4f6f8" class="color000000 svgShape"><g fill="#f4f6f8" class="color000000 svgShape"><g fill="#f4f6f8" class="color000000 svgShape"><g fill="#f4f6f8" class="color000000 svgShape"><g fill="#f4f6f8" class="color000000 svgShape"><g fill="#f4f6f8" class="color000000 svgShape"><path fill="#d7e7f7" d="M219.614,110.179c0,0,8.912,2.643,8.942,3.151c-0.007,0.182,0.354,9.386,0.191,11.473
													c-0.24,3.402-9.188,1.727-7.906-0.56c0.828-1.502,1.766-2.557,0.934-3.389c-0.544-0.544-0.887-0.076-1.535-0.582
													C217.185,117.837,219.614,110.179,219.614,110.179z" class="colorf7d7e1 svgShape"></path></g><path fill="#2d4c74" d="M225.336,108.437c-14.78-1.801-5.226,5.619-2.55,7.106
												c0.593,0.328,0.465,0.864,0.743,2.153l0.571,0.083c-0.029-0.625,0.014-2.128,1.184-1.525
												c1.459,0.75,1.275,3.883,3.737,3.245c0,0,0.962-0.123,1.09-1.673c0.128-1.547,0.779-2.827,0.733-3.648
												C230.797,113.357,231.341,109.17,225.336,108.437z" class="color2d3a74 svgShape"></path><path fill="#8cadcf" d="M228.584,121.442c1.118-0.308,0.795-0.121,0.993-0.671c0,0,7.644-2.585,4.658,8.578
												c-1.184,4.428-7.753,14.598-9.571,19.441L228.584,121.442z" class="color8ccfb1 svgShape"></path><path fill="#7873bc" d="M218.154,126.191c1.033-0.779,2.113-1.688,2.969-2.715c0.6-0.722,1.54-1.047,2.474-0.963
												c1.977,0.179,4.749,0.138,5.167-1.78c0,0,7.211-2.425,4.373,8.398c-2.327,8.873-2.804,18.186-1.921,21.46
												c0,0-9.52,13.234-15.601,2.202c0,0,0.013-16.255-0.555-18.837C214.565,131.702,214.463,128.976,218.154,126.191z" class="color73bc9c svgShape"></path><path fill="#6822a2" d="M225.094 195.891c0 0-1.481-2.869-7.136-1.459-3.39.846-4.509.347-5.697.924-.865.417-.96 1.628-.189 2.036 2.699 1.416 7.286 3.991 10.546 4.878C226.93 203.442 225.094 195.891 225.094 195.891zM233.176 190.189c0 0-1.481-2.869-7.136-1.459-3.39.846-4.509.347-5.698.924-.865.417-.96 1.627-.189 2.036 2.699 1.416 7.286 3.991 10.546 4.878C235.012 197.74 233.176 190.189 233.176 190.189z" class="color3f528c svgShape"></path><path fill="#5046e4" d="M215.616,152.793c2.683,4.983,15.601-2.202,15.601-2.202s0.417,0.972,0.912,1.779
												c1.199,1.955,3.263,4.66,0.646,15.675c-2.117,8.907,1.247,12.964,0.4,22.234c0,0-3.923,2.624-6.223-1.745
												c0,0,0.098-11.95-0.525-14.426c-0.137-0.545-0.85-4.516-1.686-7.37c-0.395,1.941-0.619,1.277-0.743,4.753
												c-0.109,3.066-0.057,5.048,0.161,8.108c0.428,5.993,0.933,16.241,0.933,16.241c-5.284,2.026-7.134-1.406-7.134-1.406
												l-0.211-12.406c-0.08-4.357-0.139-7.746-1.303-11.946C212.776,156.84,215.616,152.793,215.616,152.793z" class="color8294ed svgShape"></path></g></g></g></g></g></g><g fill="#f4f6f8" class="color000000 svgShape"><g fill="#f4f6f8" class="color000000 svgShape"><path fill="#d7e7f7" d="M216.033,138.748c-1.775,1.166-2.915,0.988-5.628,2.206c-1.851,0.811-4.006,0.431-5.451-0.989
								c-2.155-2.105-5.197-4.209-5.755-4.488c-0.38-0.152-0.761-0.28-1.166-0.329c-1.318-0.102-2.89-1.268-2.89-1.268
								c-0.38-0.483-0.685-3.068-0.076-2.738c0.583,0.329,1.775,1.014,2.535,1.445c-0.279-0.558-0.431-1.115-0.507-1.471
								c-0.051-0.228,0-0.431,0.152-0.608c0.152-0.152,0.406-0.128,0.507,0.076c0.152,0.38,0.431,0.863,0.735,1.166
								c0.507,0.532,0.837,1.42,0.837,1.42s0.025,0.077,0.025,0.178c2.003,0.659,6.439,2.18,7.479,3.016
								c1.876,1.497,4.234-1.445,4.386-1.648c0,0,0.608-0.38,1.217-1.343c0.862,1.04,1.927,0.431,3.195,1.089
								c0.355,0.203,0.583,0.304,0.735,0.381C216.971,135.427,216.769,135.884,216.033,138.748z" class="colorf7d7e1 svgShape"></path><g fill="#f4f6f8" class="color000000 svgShape"><g fill="#f4f6f8" class="color000000 svgShape"><g fill="#f4f6f8" class="color000000 svgShape"><path fill="#8cadcf" d="M211.215,134.719c1.049-2.014,2.767-4.425,3.402-5.279
											c1.714-2.297,5.123-2.591,6.153-0.983c1.036,1.605,1.028,4.042-0.685,6.336c-0.561,0.753-2.521,2.636-4.046,3.948
											C215.056,134.842,211.233,134.719,211.215,134.719z" class="color8ccfb1 svgShape"></path></g></g></g></g></g></g><path fill="#938cf7" d="M224.298,169.531c0.17-1.494,0.651-2.933,1.46-4.2c1.493-2.34,3.874-7.329,1.659-12.922
					c-4.034,1.731-10.058,3.621-11.801,0.385c0,0-2.839,4.046,0.829,17.285c1.164,4.203,1.223,7.59,1.303,11.946l0.21,12.407
					c0,0,1.85,3.433,7.135,1.406c0,0-0.514-10.408-0.944-16.382c-0.196-2.722-0.246-5.458-0.143-8.185
					C224.073,169.501,224.167,170.69,224.298,169.531z" class="color8ca8f7 svgShape"></path></g><path fill="#2d4c74" d="M220.823 124.714c-.283-.061-.711.089-.985.199-.738.3-1.08.821-1.685 1.278-.62.467-1.099.932-1.521 1.394 1.487-1.273 2.839-1.861 3.914-1.633 1.354.286 1.978 1.723 1.984 1.738l1.17-.488C223.667 127.119 222.83 125.147 220.823 124.714zM220.256 143.948c-.019.004-1.837.482-3.251-.608-.762-.587-1.295-3.034-1.558-4.309-.54 1.24-.612 3.049-.249 4.015.115.307.778 1.102 1.033 1.3 1.025.79 2.18.975 3.043.975.74 0 1.268-.137 1.313-.15L220.256 143.948z" class="color2d3a74 svgShape"></path><g fill="#f4f6f8" class="color000000 svgShape"><g fill="#f4f6f8" class="color000000 svgShape"><g fill="#f4f6f8" class="color000000 svgShape"><path fill="#2d4c74" d="M238.598,141.323c-0.228,1.989-0.773,2.979-1.485,3.285l-11.761,5.147
							c0.728-0.32,1.271-1.294,1.501-3.298c0.289-2.529-0.905-9.951-2.322-14.303c-0.511-1.57-1.473-2.976-2.574-3.793
							c-0.186-0.136-0.368-0.186-0.527-0.175l11.626-5.104c0.182-0.08,0.408-0.04,0.646,0.146c1.101,0.818,2.079,2.211,2.574,3.794
							C237.695,131.358,238.904,138.781,238.598,141.323z" class="color2d3a74 svgShape"></path></g><g fill="#f4f6f8" class="color000000 svgShape"><path fill="#6822a2" d="M221.957,128.367c1.102,0.816,2.07,2.214,2.576,3.789c1.415,4.344,2.616,11.771,2.318,14.303
							c-0.499,4.252-2.365,3.912-4.526,2.311c-2.161-1.601-3.802-3.859-3.303-8.111c0.325-2.772,1.293-9.215,1.971-12.009
							C221.116,128.163,221.525,128.047,221.957,128.367z" class="color3f528c svgShape"></path></g></g></g><g fill="#f4f6f8" class="color000000 svgShape"><path fill="#2d4c74" d="M232.565,127.065c-0.032-0.117-0.596-6.297-3.8-6.333l-0.033-1.175
					c4.129,0.572,4.075,5.869,4.429,7.177L232.565,127.065z" class="color2d3a74 svgShape"></path></g></g><g fill="#f4f6f8" class="color000000 svgShape"><g fill="#f4f6f8" class="color000000 svgShape"><path fill="#83baf2" d="M124.596,86.645c0.248,0.638-0.302,0.516,1.015,0.843l2.373,12.313l-6.832,0.633
					c-0.798-1.342-1.47-2.548-1.917-3.521C114.79,87.247,124.596,86.645,124.596,86.645z" class="colorf283b5 svgShape"></path><path fill="#2d4c74" d="M123.006,159.512l3.622-1.225c2.49,2.129,3.757,1.45,6.927,1.585
					c3.124,0.181,2.128,1.857,2.128,1.857c-0.923,1.077-3.015,1.693-4.263,1.978c-0.588,0.134-1.184,0.16-1.787,0.155
					c-3.051-0.019-6.073,1.349-6.989,0.264C121.647,162.952,123.006,159.512,123.006,159.512z" class="color2d3a74 svgShape"></path><g fill="#f4f6f8" class="color000000 svgShape"><path fill="#6560ad" d="M120.149,127.317c-2.009-5.933,0.48-9.873,1.027-10.877l10.043,3.195
						c0,0,0.836,8.979-2.475,20.272c-0.417,1.421-0.65,2.878-0.76,4.355c-0.316,4.244-0.891,12.54-0.723,14.536
						c-0.843,1.43-2.454,1.622-4.432,1.225c0,0-2.199-9.825-1.297-16.708c0.293-2.237,0.445-4.482,0.284-6.732
						C121.619,133.851,121.169,130.333,120.149,127.317z" class="color60ad88 svgShape"></path></g><g fill="#f4f6f8" class="color000000 svgShape"><path fill="#2d4c74" d="M129.839,163.368l3.622-1.225c2.49,2.129,3.758,1.451,6.927,1.585
						c3.124,0.181,2.128,1.857,2.128,1.857c-0.923,1.077-3.015,1.693-4.263,1.978c-0.588,0.134-1.184,0.16-1.787,0.155
						c-3.051-0.019-6.073,1.349-6.989,0.264C128.481,166.808,129.839,163.368,129.839,163.368z" class="color2d3a74 svgShape"></path><path fill="#7873bc" d="M126.456,130.388c-2.349-5.567-0.775-11.211-0.227-12.214l11.768,5.069
						c0,0,0.836,8.979-2.475,20.274c-0.416,1.42-0.65,2.877-0.76,4.354c-0.316,4.244-0.892,12.54-0.723,14.535
						c-0.844,1.43-2.454,1.623-4.432,1.225c0,0-2.147-9.592-1.328-16.462c0.291-2.443,0.461-4.896,0.239-7.346
						C128.256,136.941,127.687,133.305,126.456,130.388z" class="color73bc9c svgShape"></path></g><g fill="#f4f6f8" class="color000000 svgShape"><path fill="#d7e7f7" d="M124.859,90.491c1.146-2.164,0.487-4.526,0.487-4.526l0.659-5.02c0,0,6.953-6.012,8.516-5.549
						c1.659,0.491,1.292,7.806,1.292,7.806c0.219,1.62-0.346,2.325-0.346,2.325l-3.061,2.349l-0.353,2.827
						C132.051,90.703,123.714,92.655,124.859,90.491z" class="colorf7d7e1 svgShape"></path><path fill="#233f63" d="M135.79,85.331c0,0,0.711-1.04,0.023-2.128c0,0-0.038,1.203-0.21,1.702
						c0,0-1.587,0.497-1.855-1.263c-0.268-1.759-0.721-3.372-0.287-4.379c0.507-1.175,1.494-1.389,2.402-4.526
						c0.13-0.451,0.004-0.955-0.35-1.264c-0.321-0.278-0.82-0.578-1.575-0.745c-1.3-0.289-2.661,0.039-3.787,0.749
						c-0.84,0.53-2.362,0.575-3.485,0.753c-2.015,0.321-4.801,2.329-3.491,5.844c1.311,3.515-0.143,6.148,4.306,6.45
						c2.498,0.169,3.217-1.418,3.217-1.418s-1.058-3.187,0.156-3.311c1.214-0.124,1.61,0.265,1.808,1.646
						c0.198,1.381,0.607,2.039-0.258,4.437c0,0,2.644,1.433,3.484,0.469C135.889,88.345,136.605,86.74,135.79,85.331z" class="color233163 svgShape"></path></g><path fill="#93c8fd" d="M137.471,94.214c-1.119-1.025-2.277-2.197-3.156-3.502c-0.62-0.89-1.683-1.4-2.778-1.4
					c-2.312-0.013-5.805-0.445-6.075-2.75c0,0-7.67-1.183-5.783,9.385c1.541,8.679,1.508,13.744,1.536,17.633
					c0.009,1.908-0.162,0.966-0.038,2.859c0.261,3.981,15.907,10.566,16.82,6.802c0.763-3.143,1.367-17.064,2.182-19.634
					C141.01,101.038,141.442,97.868,137.471,94.214z" class="colorfd93bf svgShape"></path></g><path fill="#d7e7f7" d="M140.737,104.191c0.058,0.69,0.632,4.051,0.632,4.769c0.058,0.258,0.374,3.791,2.729,2.7
				c2.413-1.149,8.445-0.961,9.289-2.457c0.889-1.575,2.215-2.485,3.283-3.047l0.006,1.915l2.693-1.534
				c0.208-0.118,0.47,0.008,0.508,0.244l0.284,1.768c0.144,0.898-0.422,1.746-1.303,1.973c-3.335,0.861-9.129,3.075-9.561,3.348
				c-6.406,3.849-9.537,3.676-9.537,3.676c-3.217,0.115-4.137-6.234-5.889-9.279C136.255,107.091,138.726,106.087,140.737,104.191z" class="colorf7d7e1 svgShape"></path><g fill="#f4f6f8" class="color000000 svgShape"><path fill="#83baf2" d="M141.083,105.269c-0.032-2.555-0.531-5.69-0.736-6.803c-0.553-3-3.816-3.901-5.66-2.168
					c-1.848,1.731-3.073,4.617-2.518,7.61c0.18,0.983,1.19,3.531,2.052,5.333C138.443,107.446,141.72,106.643,141.083,105.269z" class="colorf283b5 svgShape"></path></g></g><g fill="#f4f6f8" class="color000000 svgShape"><path fill="#5046e4" d="M44.779,108.45c0.01,0.69,0.459,1.355,1.368,1.861l33.616,18.808
				c1.797,0.992,4.672,0.953,6.422-0.087l21.61-12.83c0.857-0.511,1.288-1.188,1.298-1.859l-0.052-4.328
				c0.01,0.69-0.423,1.367-1.278,1.877l-21.61,12.812c-1.749,1.059-4.626,1.099-6.422,0.107l-33.616-18.809
				c-0.907-0.506-1.358-1.171-1.368-1.86L44.779,108.45z" class="color8294ed svgShape"></path><path fill="#b7dbff" d="M46.04,102.274l21.594-12.815c1.749-1.048,4.641-1.096,6.442-0.088l33.617,18.802
				c1.789,1.001,1.809,2.676,0.06,3.724l-21.594,12.815c-1.761,1.056-4.641,1.096-6.43,0.095l-33.617-18.802
				C44.311,104.997,44.279,103.33,46.04,102.274z" class="colorb7ceff svgShape"></path><g fill="#f4f6f8" class="color000000 svgShape"><g fill="#f4f6f8" class="color000000 svgShape"><g fill="#f4f6f8" class="color000000 svgShape"><path fill="#724a93" d="M88.242,99.301c3.105,1.793,4.67,4.144,4.684,6.493l-15.856,0L88.242,99.301z" class="color4a5f93 svgShape"></path></g><g fill="#f4f6f8" class="color000000 svgShape"><path fill="#e576d1" d="M95.801,107.455c0.017,2.351-1.521,4.702-4.607,6.495l-11.245-6.493L95.801,107.455z" class="colore576ad svgShape"></path></g></g><g fill="#f4f6f8" class="color000000 svgShape"><path fill="#ffffff" d="M85.061,99.301l-11.172,6.493l11.246,6.493c-6.171,3.586-16.207,3.586-22.418,0
						c-6.211-3.586-6.243-9.4-0.073-12.985C68.813,95.716,78.85,95.716,85.061,99.301z" class="colorffffff svgShape"></path></g></g></g><g fill="#f4f6f8" class="color000000 svgShape"><path fill="#a5bcd3" d="M83.375,193.251c0.01,0.69,0.459,1.355,1.368,1.861l33.616,18.809
				c1.797,0.992,4.672,0.953,6.422-0.087l21.61-12.83c0.857-0.511,1.288-1.188,1.298-1.859l-0.052-4.328
				c0.01,0.69-0.423,1.367-1.278,1.877l-21.61,12.812c-1.749,1.059-4.626,1.099-6.422,0.107L84.71,190.802
				c-0.908-0.506-1.358-1.171-1.368-1.861L83.375,193.251z" class="colord3a5bb svgShape"></path><path fill="#d7e7f7" d="M84.637,187.075l21.594-12.815c1.749-1.048,4.641-1.096,6.442-0.088l33.617,18.802
				c1.789,1.001,1.809,2.676,0.06,3.724l-21.594,12.815c-1.761,1.056-4.641,1.096-6.43,0.095l-33.617-18.802
				C82.907,189.799,82.875,188.132,84.637,187.075z" class="colorf7d7e1 svgShape"></path><g fill="#f4f6f8" class="color000000 svgShape"><g fill="#f4f6f8" class="color000000 svgShape"><polygon fill="#5046e4" points="124.841 184.884 108.192 194.559 103.625 191.922 120.274 182.247" class="color8294ed svgShape"></polygon></g><g fill="#f4f6f8" class="color000000 svgShape"><g fill="#f4f6f8" class="color000000 svgShape"><polygon fill="#83baf2" points="123.265 194.556 115.751 198.923 111.183 196.286 118.698 191.919" class="colorf283b5 svgShape"></polygon></g><g fill="#f4f6f8" class="color000000 svgShape"><polygon fill="#7873bc" points="136.953 195.357 123.309 203.286 118.736 200.646 132.381 192.717" class="color73bc9c svgShape"></polygon></g><g fill="#f4f6f8" class="color000000 svgShape"><polygon fill="#724a93" points="125.057 204.296 123.865 204.988 93.127 187.242 94.319 186.549 96.067 187.558 100.64 190.198 103.625 191.922 108.192 194.559 111.183 196.286 115.751 198.923 118.736 200.646 123.309 203.286" class="color4a5f93 svgShape"></polygon></g></g><g fill="#f4f6f8" class="color000000 svgShape"><polygon fill="#724a93" points="111.826 183.698 100.64 190.198 96.067 187.558 107.253 181.058" class="color4a5f93 svgShape"></polygon></g></g></g></g><g fill="#f4f6f8" class="color000000 svgShape"><path fill="#b7dbff" d="M239.798,101.686c-0.45,1.868,1.19,3.507,3.057,3.057c0.878-0.212,1.598-0.932,1.809-1.809
			c0.45-1.867-1.19-3.507-3.057-3.057C240.73,100.089,240.01,100.808,239.798,101.686z" class="colorb7ceff svgShape"></path><path fill="#83baf2" d="M242.297,88.267c-0.323,1.008,0.593,1.923,1.601,1.601c0.362-0.116,0.66-0.414,0.776-0.776
			c0.323-1.008-0.593-1.923-1.601-1.601C242.712,87.606,242.413,87.905,242.297,88.267z" class="colorf283b5 svgShape"></path><path fill="#c3d8ed" d="M215.194,79.977c-0.429,1.778,1.133,3.34,2.911,2.911c0.836-0.201,1.521-0.887,1.723-1.723
			c0.429-1.778-1.133-3.34-2.911-2.911C216.081,78.455,215.395,79.141,215.194,79.977z" class="coloredc3d2 svgShape"></path><path fill="#938cf7" d="M207.164,67.737c-0.495,3.23,2.248,5.973,5.478,5.478c2.013-0.308,3.658-1.953,3.967-3.966
			c0.495-3.23-2.248-5.973-5.478-5.478C209.117,64.079,207.472,65.724,207.164,67.737z" class="color8ca8f7 svgShape"></path><path fill="#83baf2" d="M64.282,56.913c-0.495,3.23,2.248,5.973,5.478,5.478c2.013-0.308,3.658-1.953,3.966-3.966
			c0.495-3.23-2.248-5.973-5.478-5.478C66.236,53.255,64.591,54.9,64.282,56.913z" class="colorf283b5 svgShape"></path><path fill="#c3d8ed" d="M44.959,82.488c-0.397,2.096,1.406,3.899,3.502,3.502c1.164-0.221,2.117-1.173,2.337-2.337
			c0.397-2.096-1.406-3.899-3.502-3.502C46.132,80.371,45.18,81.324,44.959,82.488z" class="coloredc3d2 svgShape"></path><path fill="#938cf7" d="M96.139,234.594c-0.495,3.23,2.248,5.973,5.478,5.478c2.013-0.308,3.658-1.954,3.966-3.967
			c0.495-3.23-2.248-5.973-5.478-5.478C98.092,230.935,96.447,232.581,96.139,234.594z" class="color8ca8f7 svgShape"></path><ellipse cx="175.564" cy="235.349" fill="#83baf2" rx="5.424" ry="5.5" transform="rotate(-45.001 175.551 235.346)" class="colorf283b5 svgShape"></ellipse><g fill="#f4f6f8" class="color000000 svgShape"><path fill="#a50b89" d="M189.042,221.54c0.008,0.574,0.382,1.127,1.138,1.548l27.96,15.644
				c1.495,0.825,3.886,0.793,5.342-0.073l17.974-10.672c0.713-0.425,1.072-0.988,1.08-1.546l-0.043-3.6
				c0.008,0.574-0.352,1.137-1.063,1.561l-17.975,10.656c-1.455,0.881-3.847,0.914-5.342,0.089l-27.961-15.645
				c-0.755-0.421-1.13-0.974-1.138-1.548L189.042,221.54z" class="colord363a1 svgShape"></path><g fill="#f4f6f8" class="color000000 svgShape"><path fill="#93c8fd" d="M190.091,216.403l17.961-10.659c1.455-0.872,3.86-0.911,5.358-0.073l27.961,15.639
					c1.488,0.832,1.504,2.226,0.05,3.098l-17.961,10.659c-1.465,0.879-3.86,0.911-5.348,0.079l-27.962-15.639
					C188.653,218.669,188.626,217.282,190.091,216.403z" class="colorfd93bf svgShape"></path></g><g fill="#f4f6f8" class="color000000 svgShape"><g fill="#f4f6f8" class="color000000 svgShape"><path fill="#724a93" d="M214.399,216.42c0.249,0.023,0.505,0.013,0.746-0.032l1.262,7.562
						c-0.249-0.019-0.503-0.004-0.741,0.045L214.399,216.42z" class="color4a5f93 svgShape"></path></g><g fill="#f4f6f8" class="color000000 svgShape"><path fill="#724a93" d="M217.326,224.212c0.243,0.14,0.391,0.315,0.445,0.497c0.043,0.144,0.026,0.292-0.049,0.432
						c-0.074,0.137-0.203,0.265-0.389,0.373c-0.619,0.36-1.629,0.36-2.25,0.001c-0.623-0.36-0.626-0.945-0.007-1.305
						c0.172-0.1,0.373-0.172,0.589-0.216c0.238-0.049,0.493-0.064,0.741-0.045C216.742,223.975,217.068,224.063,217.326,224.212z" class="color4a5f93 svgShape"></path></g><g fill="#f4f6f8" class="color000000 svgShape"><path fill="#724a93" d="M200.48,214.486c0.219,0.126,0.361,0.281,0.427,0.443c0.004,0.009,0.007,0.018,0.01,0.028
						c0.05,0.143,0.041,0.292-0.027,0.432c-0.072,0.147-0.206,0.285-0.403,0.399c-0.401,0.233-0.966,0.316-1.483,0.247
						c-0.281-0.037-0.548-0.119-0.767-0.245c-0.623-0.36-0.626-0.945-0.007-1.305C198.849,214.125,199.857,214.126,200.48,214.486z" class="color4a5f93 svgShape"></path></g><g fill="#f4f6f8" class="color000000 svgShape"><g fill="#f4f6f8" class="color000000 svgShape"><path fill="#724a93" d="M213.128,215.241c-0.073,0.141-0.087,0.289-0.041,0.433l-12.197-0.285
							c0.068-0.141,0.077-0.289,0.028-0.432L213.128,215.241z" class="color4a5f93 svgShape"></path></g><g fill="#f4f6f8" class="color000000 svgShape"><path fill="#724a93" d="M215.773,214.859c0.623,0.36,0.624,0.944,0.005,1.303c-0.183,0.107-0.401,0.181-0.633,0.225
							c-0.241,0.045-0.497,0.056-0.746,0.032c-0.318-0.03-0.623-0.115-0.869-0.257c-0.239-0.138-0.387-0.309-0.443-0.488
							c-0.045-0.144-0.032-0.293,0.041-0.434c0.072-0.14,0.203-0.271,0.393-0.381C214.139,214.5,215.15,214.5,215.773,214.859z" class="color4a5f93 svgShape"></path></g><g fill="#f4f6f8" class="color000000 svgShape"><path fill="#ffffff" d="M234.93,223.432l-2.316,1.346c-0.518-0.069-1.085,0.013-1.486,0.246
							c-0.16,0.093-0.278,0.201-0.355,0.317l-13.001-0.632c-0.054-0.182-0.202-0.357-0.445-0.497
							c-0.259-0.149-0.584-0.237-0.92-0.262l-1.262-7.562c0.232-0.043,0.45-0.118,0.633-0.225c0.619-0.36,0.618-0.944-0.005-1.303
							s-1.633-0.36-2.252,0c-0.189,0.11-0.32,0.242-0.392,0.381l-12.211-0.284l9.605-5.616L234.93,223.432z" class="colorffffff svgShape"></path></g><g fill="#f4f6f8" class="color000000 svgShape"><path fill="#724a93" d="M230.773,225.341c-0.091,0.137-0.123,0.285-0.097,0.43l-12.953-0.63
							c0.075-0.14,0.092-0.288,0.049-0.432L230.773,225.341z" class="color4a5f93 svgShape"></path></g><g fill="#f4f6f8" class="color000000 svgShape"><path fill="#b7dbff" d="M230.676,225.771c0.007,0.038,0.018,0.076,0.033,0.114l-9.616,5.588l-24.407-14.091
							l2.317-1.347c0.517,0.069,1.082-0.014,1.483-0.247c0.197-0.115,0.331-0.252,0.402-0.398l12.197,0.284
							c0.056,0.179,0.204,0.35,0.443,0.488c0.245,0.142,0.551,0.227,0.869,0.257l1.266,7.575c-0.215,0.044-0.417,0.116-0.589,0.216
							c-0.619,0.36-0.616,0.945,0.007,1.305c0.621,0.358,1.631,0.358,2.25-0.001c0.186-0.108,0.316-0.236,0.389-0.373
							L230.676,225.771z" class="colorb7ceff svgShape"></path></g></g><g fill="#f4f6f8" class="color000000 svgShape"><path fill="#724a93" d="M233.377,225.023c0.623,0.36,0.626,0.945,0.007,1.305c-0.617,0.358-1.627,0.358-2.25-0.001
						c-0.218-0.126-0.359-0.279-0.425-0.441c-0.015-0.038-0.026-0.076-0.033-0.114c-0.027-0.145,0.006-0.293,0.097-0.43
						c0.077-0.116,0.195-0.224,0.355-0.317c0.402-0.233,0.968-0.315,1.486-0.246C232.893,224.816,233.159,224.897,233.377,225.023z" class="color4a5f93 svgShape"></path></g></g></g></g><path fill="#d7e7f7" d="M80.013,175.789c-0.382,1.584,1.009,2.976,2.594,2.594c0.745-0.18,1.355-0.79,1.535-1.535
		c0.382-1.584-1.009-2.975-2.593-2.594C80.803,174.434,80.193,175.044,80.013,175.789z" class="colorf7d7e1 svgShape"></path><path fill="#83baf2" d="M67.566,179.354c-0.421,2.75,1.913,5.084,4.663,4.663c1.714-0.262,3.114-1.663,3.376-3.376
		c0.421-2.75-1.913-5.084-4.663-4.663C69.228,176.24,67.828,177.64,67.566,179.354z" class="colorf283b5 svgShape"></path></g></svg>