<svg xmlns="http://www.w3.org/2000/svg" enable-background="new 0 0 296.68 293.71" viewBox="0 0 296.68 293.71" id="Customersupport"><g fill="#f4f6f8" class="color000000 svgShape"><g fill="#f4f6f8" class="color000000 svgShape"><g fill="#f4f6f8" class="color000000 svgShape"><g fill="#f4f6f8" class="color000000 svgShape"><g fill="#f4f6f8" class="color000000 svgShape"><g fill="#f4f6f8" class="color000000 svgShape"><g fill="#f4f6f8" class="color000000 svgShape"><path fill="#5046e4" d="M83.247,173.63v5.394c0,0.472,0.306,0.944,0.917,1.277l55.097,32.019
								c1.194,0.694,3.138,0.694,4.305,0l91.227-52.654c0.611-0.361,0.917-0.806,0.889-1.25v-5.421c0,0.445-0.306,0.917-0.889,1.249
								l-91.227,52.682c-1.194,0.667-3.138,0.667-4.332-0.027l-55.097-31.992C83.553,174.547,83.247,174.073,83.247,173.63z" class="color8294ed svgShape"></path></g></g><g fill="#f4f6f8" class="color000000 svgShape"><g fill="#f4f6f8" class="color000000 svgShape"><g fill="#f4f6f8" class="color000000 svgShape"><g fill="#f4f6f8" class="color000000 svgShape"><path fill="#b7dbff" d="M84.124,172.379c-1.188,0.686-1.177,1.822,0.021,2.518l55.084,32.011
										c1.197,0.696,3.142,0.696,4.33,0.01l91.225-52.669c1.188-0.686,1.194-1.812-0.003-2.508l-55.084-32.011
										c-1.197-0.696-3.159-0.706-4.347-0.02L84.124,172.379z" class="colorb7ceff svgShape"></path></g></g></g></g><g fill="#f4f6f8" class="color000000 svgShape"><g fill="#f4f6f8" class="color000000 svgShape"><g fill="#f4f6f8" class="color000000 svgShape"><path fill="#938cf7" d="M197.766,133.99c-0.319,0.184-0.321,0.491-0.004,0.675l11.274,6.552
									c0.316,0.184,0.847,0.184,1.166,0c0.319-0.184,0.32-0.492,0.004-0.675l-11.274-6.552
									C198.615,133.806,198.085,133.806,197.766,133.99z" class="color8ca8f7 svgShape"></path></g><g fill="#f4f6f8" class="color000000 svgShape"><path fill="#938cf7" d="M114.266,186.444c-1.401,0.809-1.408,2.139,0,2.958c1.41,0.819,3.707,0.819,5.108,0.01
									c1.419-0.819,1.426-2.15,0.017-2.969C117.982,185.625,115.684,185.625,114.266,186.444z" class="color8ca8f7 svgShape"></path></g><g fill="#f4f6f8" class="color000000 svgShape"><polygon fill="#f4f6f8" points="93.282 168.601 150.109 201.626 228.976 156.092 172.149 123.068" class="colorffffff svgShape"></polygon></g></g></g></g></g><g fill="#f4f6f8" class="color000000 svgShape"><g fill="#f4f6f8" class="color000000 svgShape"><g fill="#f4f6f8" class="color000000 svgShape"><path fill="#c3d8ed" d="M71.123,173.146c-0.013-0.019-0.024-0.039-0.037-0.057c-1.02-1.491-2.375-2.682-3.754-3.848
							c-1.904-1.609-0.778-4.093-0.689-4.327c0,0-1.351-0.759-1.222-1.01l-4.187,2.094c0.174,0.963,0.396,2.012,0.572,3.338
							c0.124,0.928,1.832,2.407,3.723,3.81H71.123z" class="coloredc3d2 svgShape"></path><path fill="#83baf2" d="M62.242,155.722c-1.579,0.817-2.733,2.778-2.475,5.406c0.084,0.862,0.731,3.272,1.308,5.024
							c1.08,0.079,4.885,0.311,5.713-1.026c0.132-2.099-0.073-4.822-0.168-5.799C66.364,156.697,63.819,154.902,62.242,155.722z" class="colorf283b5 svgShape"></path><path fill="#6560ad" d="M77.835,217.173c-2.905-0.153-4.088,0.467-6.313-1.535l-3.677,0.975
							c0,0-1.028,3.319-0.147,4.422c0.81,1.017,3.624-0.229,6.424-0.185c0.554,0.009,1.101-0.009,1.645-0.129
							c1.153-0.254,3.092-0.809,3.97-1.802C79.735,218.919,80.697,217.369,77.835,217.173z" class="color60ad88 svgShape"></path><path fill="#2d4c74" d="M72.072,178.33c-4.346-6.35-10.772,0.761-10.772,0.761s-1.999,4.363,1.957,8.747
							c0.604,0.67,1.034,1.444,1.281,2.249l3.29,6.408c0,0,1.396,3.022-0.3,6.912c0,0-1.274,3.507,0.358,9.141
							c0,0,0.672,2.702-0.042,4.064c0,0,2.28,1.153,4.955-0.037c0,0-0.831-8.214,0.813-10.571
							c1.644-2.357,0.662-13.213,0.662-13.213S76.418,184.68,72.072,178.33z" class="color2d3a74 svgShape"></path><path fill="#7873bc" d="M71.406,220.738c-2.761-0.796-4.067-0.475-5.677-2.866l-3.807,0.098
							c0,0-1.88,2.907-1.325,4.147c0.509,1.143,3.556,0.596,6.243,1.265c0.531,0.133,1.065,0.238,1.621,0.247
							c1.18,0.018,3.198-0.072,4.31-0.814C72.772,222.814,74.114,221.564,71.406,220.738z" class="color73bc9c svgShape"></path><path fill="#6822a2" d="M76.245,182.723c-1.108-7.326-10.276-1.753-10.276-1.753s-2.187,2.176,0.454,7.207
							c0.403,0.769,0.61,1.596,0.633,2.414l0.235,8.356c0,0,0.538,3.17-2.139,6.468c0,0-2.167,3.03-2.102,8.722
							c0,0-0.075,2.705-1.128,3.833c0,0,1.89,1.601,4.788,1.076c0,0,1.639-7.362,3.99-12.831c0.733-1.704,1.428-1.857,2.117-3.866
							C75.043,195.849,77.353,190.045,76.245,182.723z" class="color3f528c svgShape"></path><path fill="#93c8fd" d="M77.343,167.848c1.122-1.074,2.385-4.072-0.314-5.198c-2.372-0.991-1.023-4.242-2.874-4.883
							s-3.812-1.939-3.812-1.939s-2.858,1.246-5.42-0.605c0,0-4.042-0.46-4.042,2.883c0,3.349-0.159,3.098,2.544,7.867
							c2.708,4.771-1.975,11.586-2.257,13.472c0,0,8.516,6.21,15.141,3.737c0,0-0.512-2.636-0.772-4.987
							c-0.199-1.761-0.534-5.219-0.13-6.896C75.639,170.338,76.91,168.263,77.343,167.848z" class="colorfd93bf svgShape"></path></g><g fill="#f4f6f8" class="color000000 svgShape"><path fill="#b3cae2" d="M72.949,147.308c0,0-4.721-0.413-4.751-0.325c-0.029,0.089-3.354,6.732,0.157,7.942
							c1.266,0.436,2.622,1.932,3.267,0.941c1.145-1.759,1.6-5.738,1.651-6.669C73.354,147.742,72.949,147.308,72.949,147.308z" class="colore2b3c7 svgShape"></path><path fill="#6822a2" d="M61.654,155.226c2.02-1.802,1.706-4.866,1.706-4.866c-0.539-5.092,1.171-6.386,1.171-6.386
							c2.338-3.445,9.101-1.328,9.038,1.863c-0.032,1.678-0.714,2.555-1.491,3.104c-0.084,0.059-0.143,0.147-0.159,0.249
							c-0.163,1.036-0.15,2.013-0.15,2.013l-0.557,0.536c-0.039-0.987-0.134-1.523-0.255-1.863
							c-0.044-0.125-0.193-0.167-0.298-0.087c-0.476,0.365-0.819,0.891-0.951,1.488c-0.565,2.554,0.8,4.546,1.175,6.037
							c1.587,6.315-4.393,4.034-7.333,2.897C60.608,159.074,59.63,157.029,61.654,155.226z" class="color3f528c svgShape"></path><g fill="#f4f6f8" class="color000000 svgShape"><path fill="#2d4c74" d="M61.654,155.226c2.02-1.802,1.706-4.866,1.706-4.866c-0.539-5.092,1.171-6.386,1.171-6.386
								c1.939-2.858,6.911-1.884,8.519,0.35c-1.771-1.991-6.314-2.75-8.134-0.067c0,0-1.677,1.269-1.148,6.264
								c0,0,0.308,3.004-1.673,4.772c-1.985,1.769-1.025,3.774,1.859,4.889c1.557,0.602,3.977,1.521,5.636,1.273
								c-1.686,0.424-4.357-0.595-6.039-1.244C60.608,159.074,59.63,157.029,61.654,155.226z" class="color2d3a74 svgShape"></path></g></g></g><g fill="#f4f6f8" class="color000000 svgShape"><g fill="#f4f6f8" class="color000000 svgShape"><g fill="#f4f6f8" class="color000000 svgShape"><g fill="#f4f6f8" class="color000000 svgShape"><polygon fill="#0c2340" points="74.449 154.925 74.208 154.954 70.699 151.585 70.94 151.556" class="color233163 svgShape"></polygon></g><g fill="#f4f6f8" class="color000000 svgShape"><polygon fill="#b7dbff" points="70.94 151.556 70.699 151.585 71.657 149.134 71.898 149.105" class="colorb7ceff svgShape"></polygon></g><g fill="#f4f6f8" class="color000000 svgShape"><polygon fill="#5046e4" points="71.898 149.105 75.407 152.474 74.449 154.925 70.94 151.556" class="color8294ed svgShape"></polygon></g></g></g><path fill="#b3cae2" d="M74.357,155.114c0,0,1.17,0.39,2.053,1.451l0.619-0.117l-0.27-1.3l-1.305-1.428l-1.204,0.165
						L74.357,155.114z" class="colore2b3c7 svgShape"></path><path fill="#d7e7f7" d="M76.741,156.322c-0.586-1.325-1.402-1.339-1.402-1.339c-2.367,0.646-2.501-1.265-2.501-1.265
						l-0.085-0.359l0.777,0.746c0.406,0.28,0.74-0.312,0.788-1.555c0.049-1.244-0.967-1.786-1.4-2.077
						c-0.43-0.292-0.199-0.524-0.199-0.524c2.781,0.406,3.462,2.114,3.544,2.804c0.078,0.691,0.586,1.457,0.586,1.457
						C77.303,155.651,76.741,156.322,76.741,156.322z" class="colorf7d7e1 svgShape"></path></g><path fill="#93c8fd" d="M85.726,160.611c-0.761-0.978-1.703-1.801-2.746-2.47l-6.132-3.932
					c-0.073,1.429-0.437,2.356-0.437,2.356l4.823,3.855c0,0-2.917-0.664-4.347-1.652c-1.429-0.993-2.983-1.092-2.983-1.092
					l0.454,5.131c1.693,2.165,5.064,1.312,10.238,1.235C87.737,163.998,86.883,162.098,85.726,160.611z" class="colorfd93bf svgShape"></path></g><g fill="#f4f6f8" class="color000000 svgShape"><g fill="#f4f6f8" class="color000000 svgShape"><g fill="#f4f6f8" class="color000000 svgShape"><g fill="#f4f6f8" class="color000000 svgShape"><g fill="#f4f6f8" class="color000000 svgShape"><g fill="#f4f6f8" class="color000000 svgShape"><path fill="#6822a2" d="M191.231,130.818c0.977,0.564,0.983,1.477,0.015,2.04l-10.809,6.282
										c-0.971,0.564-2.548,0.564-3.525,0l-10.876-6.279c-0.978-0.564-0.983-1.477-0.012-2.042l10.809-6.282
										c0.967-0.562,2.544-0.562,3.521,0.002L191.231,130.818z" class="color3f528c svgShape"></path></g></g></g><g fill="#f4f6f8" class="color000000 svgShape"><path fill="#0c2340" d="M191.968,131.85l-0.013,4.058c0,0.367-0.243,0.728-0.722,1.008l-10.804,6.28
								c-0.977,0.566-2.552,0.566-3.529,0l-10.873-6.28c-0.492-0.28-0.741-0.654-0.741-1.027l0.013-4.058
								c0,0.373,0.243,0.747,0.734,1.027l10.879,6.28c0.977,0.566,2.552,0.566,3.523,0l10.811-6.28
								C191.725,132.578,191.968,132.211,191.968,131.85z" class="color233163 svgShape"></path></g><g fill="#f4f6f8" class="color000000 svgShape"><g fill="#f4f6f8" class="color000000 svgShape"><g fill="#f4f6f8" class="color000000 svgShape"><path fill="#6822a2" d="M194.204,113.112l-0.042,12.507c0,0.555-0.193,0.941-0.513,1.126l-2.959,1.723
										c0.311-0.185,0.513-0.58,0.513-1.135l0.034-12.499c0.008-1.118-0.782-2.488-1.757-3.051l-10.877-6.279
										c-0.496-0.286-0.933-0.311-1.252-0.126l2.959-1.723c0.32-0.185,0.765-0.16,1.253,0.126l10.877,6.279
										C193.422,110.624,194.204,111.994,194.204,113.112z" class="color3f528c svgShape"></path></g><g fill="#f4f6f8" class="color000000 svgShape"><path fill="#0c2340" d="M189.479,111.783c0.977,0.564,1.763,1.932,1.76,3.054l-0.036,12.5
										c-0.003,1.116-0.794,1.573-1.771,1.009l-10.878-6.281c-0.977-0.564-1.763-1.932-1.76-3.048l0.035-12.5
										c0.003-1.123,0.795-1.579,1.771-1.015L189.479,111.783z" class="color233163 svgShape"></path></g></g></g></g></g><g fill="#f4f6f8" class="color000000 svgShape"><g fill="#f4f6f8" class="color000000 svgShape"><g fill="#f4f6f8" class="color000000 svgShape"><path fill="#c3d8ed" d="M180.225,104.247c0,0-1.046-0.598-1.005-2.72c0.041-2.122-5.453-0.571-5.453-0.571
								l-1.042,6.226l1.773,5.241L180.225,104.247z" class="coloredc3d2 svgShape"></path><path fill="#0c2340" d="M185.673,130.527c-0.897-3.004-4.336-4.411-7.074-2.882
								c-5.619,3.136-13.598,7.561-13.598,7.561c-0.339,1.073-0.64,1.895-0.829,2.387c-0.021,0.061-0.184,0.42-0.215,0.531
								c-1.192,2.905,0.958,5.924,2.84,6.094c2.862,0.258,11.68-4.787,16.602-7.766
								C185.422,135.229,186.349,132.793,185.673,130.527z" class="color233163 svgShape"></path><path fill="#8cadcf" d="M184.499,121.167c0.306-5.86,1.912-12.611,1.912-12.611s-3.117-2.529-6.185-4.308
								c0,0-1.224-0.896-5.472,3.514c-0.887,0.92-1.686,0.808-0.427-5.094c0,0-3.994-0.279-4.741,4.86
								c-0.313,2.155-0.38,5.304,0.274,8.704c0.654,3.4,0.437,13.863,0.437,13.863s5.377,2.63,11.683,2.18
								c1.01-0.071,3.054-0.479,3.299-2.346C185.446,128.646,184.193,127.027,184.499,121.167z" class="color8ccfb1 svgShape"></path><path fill="#d7e7f7" d="M182.515,97.442l-4.307-3.318c0,0-5.331,0.053-5.541,1.132
								c-0.153,0.786-0.042,2.626,0.142,3.484c0.068,0.319,0.015,0.653-0.169,0.923c-1.625,2.395,0.434,1.226,0.777,2.622
								c0.216,0.879,0.423,1.005,0.522,1.444c0.232,1.024,1.377,1.56,2.387,1.276c1.671-0.469,3.342-1.517,3.532-1.707
								c0.131-0.132,0.223-0.458,0.286-0.785c0.092-0.481,0.398-0.903,0.842-1.108c1.09-0.506,0.904-1.028,0.904-1.028
								L182.515,97.442z" class="colorf7d7e1 svgShape"></path></g></g><path fill="#83baf2" d="M182.739,96.19c-0.027-0.486-0.15-0.948-0.369-1.365c-0.055-0.105-0.089-0.222-0.104-0.34
						c-0.109-0.841-0.582-1.423-1.319-1.82c-1.306-0.82-2.734-0.971-4.223-0.638c-0.334,0.09-1.636,0.182-2.152,0.455
						c-0.607,0.365-2.023,1.503-2.479,2.051c-0.213,0.242,0.055,1.174,0.541,1.508c2.855,1.884,5.062,1.12,5.123,1.12
						c0.577,0.699,0.547,2.673,0.547,2.794c0.061,0.275-0.274,0.578,0.091,0.82c0.213,0.153,0.334,0.182,0.456-0.09
						c0.182-0.455,0.516-0.973,0.881-1.307c0.942-0.426,1.215,0,1.094,0.971c-0.061,0.487,0.03,1.185-0.365,1.489
						c0.152-0.03,0.79-0.304,0.972-0.455c0.273-0.243,0.395-0.608,0.608-0.912C182.982,99.258,182.769,96.251,182.739,96.19z" class="colorf283b5 svgShape"></path></g><g fill="#f4f6f8" class="color000000 svgShape"><g fill="#f4f6f8" class="color000000 svgShape"><g fill="#f4f6f8" class="color000000 svgShape"><polygon fill="#9fb8d1" points="194.98 142.546 194.98 154.038 170.804 168.078 170.804 156.604" class="colord19f9f svgShape"></polygon></g><g fill="#f4f6f8" class="color000000 svgShape"><polygon fill="#c494bb" points="170.802 156.189 170.799 168.087 128.766 143.819 128.768 131.921" class="colorc49494 svgShape"></polygon></g></g></g><polyline fill="#c494bb" points="171.97 182.13 171.972 156.055 173.724 155.037 173.722 181.111 171.97 182.13" class="colorc49494 svgShape"></polyline><polyline fill="#9fb8d1" points="171.97 182.13 170.174 181.093 170.177 155.019 171.972 156.055 171.97 182.13" class="colord19f9f svgShape"></polyline><g fill="#f4f6f8" class="color000000 svgShape"><polygon fill="#c494bb" points="195.718 142.256 197.47 141.238 197.468 167.312 195.716 168.33" class="colorc49494 svgShape"></polygon></g><g fill="#f4f6f8" class="color000000 svgShape"><polygon fill="#9fb8d1" points="195.718 142.256 195.716 168.33 193.92 167.293 193.923 141.219" class="colord19f9f svgShape"></polygon></g><g fill="#f4f6f8" class="color000000 svgShape"><g fill="#f4f6f8" class="color000000 svgShape"><polygon fill="#c494bb" points="130.045 131.848 131.797 130.83 131.794 156.904 130.042 157.922" class="colorc49494 svgShape"></polygon></g><g fill="#f4f6f8" class="color000000 svgShape"><polygon fill="#9fb8d1" points="130.045 131.848 130.042 157.922 128.246 156.886 128.249 130.812" class="colord19f9f svgShape"></polygon></g></g><g fill="#f4f6f8" class="color000000 svgShape"><g fill="#f4f6f8" class="color000000 svgShape"><g fill="#f4f6f8" class="color000000 svgShape"><g fill="#f4f6f8" class="color000000 svgShape"><g fill="#f4f6f8" class="color000000 svgShape"><g fill="#f4f6f8" class="color000000 svgShape"><g fill="#f4f6f8" class="color000000 svgShape"><g fill="#f4f6f8" class="color000000 svgShape"><g fill="#f4f6f8" class="color000000 svgShape"><path fill="#9fb8d1" d="M199.688,141.672l-0.006,1.695c0,0.276-0.182,0.551-0.545,0.764l-25.052,14.561
														c-0.733,0.426-1.923,0.426-2.662,0l-45.806-26.447c-0.37-0.213-0.551-0.495-0.551-0.77v-1.695
														c0,0.276,0.182,0.558,0.551,0.77l45.812,26.447c0.733,0.426,1.929,0.426,2.656,0l25.058-14.561
														C199.507,142.223,199.688,141.948,199.688,141.672z" class="colord19f9f svgShape"></path></g><g fill="#f4f6f8" class="color000000 svgShape"><path fill="#b5cee7" d="M199.132,140.899c0.736,0.425,0.74,1.113,0.008,1.538l-25.054,14.56
														c-0.731,0.425-1.923,0.427-2.659,0.002l-45.809-26.448c-0.736-0.425-0.736-1.115-0.005-1.54l25.054-14.56
														c0.731-0.425,1.919-0.425,2.655,0L199.132,140.899z" class="colore7b8b5 svgShape"></path></g></g></g></g></g></g></g></g></g><g fill="#f4f6f8" class="color000000 svgShape"><g fill="#f4f6f8" class="color000000 svgShape"><g fill="#f4f6f8" class="color000000 svgShape"><g fill="#f4f6f8" class="color000000 svgShape"><g fill="#f4f6f8" class="color000000 svgShape"><path fill="#0c2340" d="M145.775,128.615l0.008,1.234c0,0.129,0.083,0.257,0.25,0.356l21.721,12.621
										c0.341,0.197,0.893,0.197,1.234,0l13.439-7.76c0.174-0.099,0.257-0.227,0.257-0.356v-1.234
										c0,0.129-0.083,0.257-0.257,0.356l-13.439,7.76c-0.341,0.197-0.901,0.197-1.234,0l-21.721-12.621
										C145.866,128.873,145.775,128.744,145.775,128.615z" class="color233163 svgShape"></path></g></g><g fill="#f4f6f8" class="color000000 svgShape"><g fill="#f4f6f8" class="color000000 svgShape"><path fill="#6822a2" d="M146.032,128.971l21.721,12.621c0.333,0.197,0.893,0.197,1.234,0l13.439-7.76
										c0.341-0.197,0.341-0.515,0-0.712l-21.721-12.621c-0.341-0.204-0.886-0.204-1.234,0l-13.431,7.753
										C145.692,128.456,145.692,128.775,146.032,128.971z" class="color3f528c svgShape"></path></g><g fill="#f4f6f8" class="color000000 svgShape"><path fill="#2d4c74" d="M160.827,126.598c-0.184,0.106-0.185,0.273-0.002,0.38l7.28,4.231
										c0.178,0.103,0.467,0.103,0.65-0.003l3.741-2.16c0.184-0.106,0.185-0.273,0.007-0.377l-7.28-4.231
										c-0.183-0.106-0.472-0.106-0.655,0L160.827,126.598z" class="color2d3a74 svgShape"></path></g></g></g><g fill="#f4f6f8" class="color000000 svgShape"><g fill="#f4f6f8" class="color000000 svgShape"><polygon fill="#938cf7" points="150.759 130.122 151.885 130.777 152.355 130.505 151.23 129.851" class="color8ca8f7 svgShape"></polygon></g><g fill="#f4f6f8" class="color000000 svgShape"><polygon fill="#938cf7" points="152.269 131 153.39 131.651 153.861 131.379 152.74 130.728" class="color8ca8f7 svgShape"></polygon></g><g fill="#f4f6f8" class="color000000 svgShape"><polygon fill="#938cf7" points="156.581 132.647 157.706 133.301 158.746 132.701 157.62 132.047" class="color8ca8f7 svgShape"></polygon></g><g fill="#f4f6f8" class="color000000 svgShape"><polygon fill="#938cf7" points="158.091 133.524 159.211 134.176 160.251 133.576 159.13 132.924" class="color8ca8f7 svgShape"></polygon></g><g fill="#f4f6f8" class="color000000 svgShape"><polygon fill="#938cf7" points="158.294 134.501 159.415 135.153 159.886 134.881 158.765 134.229" class="color8ca8f7 svgShape"></polygon></g><g fill="#f4f6f8" class="color000000 svgShape"><polygon fill="#938cf7" points="161.101 135.274 163.171 136.477 164.211 135.877 162.141 134.674" class="color8ca8f7 svgShape"></polygon></g><g fill="#f4f6f8" class="color000000 svgShape"><polygon fill="#938cf7" points="159.596 134.399 160.716 135.05 161.756 134.45 160.635 133.799" class="color8ca8f7 svgShape"></polygon></g><g fill="#f4f6f8" class="color000000 svgShape"><polygon fill="#938cf7" points="164.47 132.679 165.591 133.331 166.631 132.73 165.51 132.079" class="color8ca8f7 svgShape"></polygon></g><g fill="#f4f6f8" class="color000000 svgShape"><polygon fill="#938cf7" points="163.16 133.436 164.281 134.087 165.321 133.487 164.2 132.835" class="color8ca8f7 svgShape"></polygon></g><g fill="#f4f6f8" class="color000000 svgShape"><polygon fill="#938cf7" points="161.851 134.192 164.481 135.721 165.52 135.12 162.89 133.592" class="color8ca8f7 svgShape"></polygon></g><g fill="#f4f6f8" class="color000000 svgShape"><polygon fill="#938cf7" points="160.345 133.317 161.466 133.969 162.506 133.368 161.385 132.717" class="color8ca8f7 svgShape"></polygon></g><g fill="#f4f6f8" class="color000000 svgShape"><polygon fill="#938cf7" points="162.965 131.805 164.086 132.456 165.125 131.856 164.005 131.204" class="color8ca8f7 svgShape"></polygon></g><g fill="#f4f6f8" class="color000000 svgShape"><g fill="#f4f6f8" class="color000000 svgShape"><polygon fill="#938cf7" points="151.11 126.433 152.23 127.084 153.27 126.484 152.149 125.832" class="color8ca8f7 svgShape"></polygon></g><g fill="#f4f6f8" class="color000000 svgShape"><polygon fill="#938cf7" points="152.42 125.676 155.046 127.202 156.085 126.602 153.459 125.076" class="color8ca8f7 svgShape"></polygon></g><g fill="#f4f6f8" class="color000000 svgShape"><polygon fill="#938cf7" points="152.615 127.307 153.736 127.959 154.775 127.358 153.654 126.707" class="color8ca8f7 svgShape"></polygon></g><g fill="#f4f6f8" class="color000000 svgShape"><polygon fill="#938cf7" points="149.8 127.189 152.426 128.715 153.465 128.115 150.839 126.589" class="color8ca8f7 svgShape"></polygon></g><g fill="#f4f6f8" class="color000000 svgShape"><polygon fill="#938cf7" points="154.12 128.182 155.246 128.836 156.285 128.236 155.16 127.582" class="color8ca8f7 svgShape"></polygon></g><g fill="#f4f6f8" class="color000000 svgShape"><polygon fill="#938cf7" points="148.49 127.945 150.171 128.922 151.211 128.322 149.53 127.345" class="color8ca8f7 svgShape"></polygon></g><g fill="#f4f6f8" class="color000000 svgShape"><polygon fill="#938cf7" points="152.81 128.938 153.936 129.592 154.975 128.992 153.85 128.338" class="color8ca8f7 svgShape"></polygon></g><g fill="#f4f6f8" class="color000000 svgShape"><polygon fill="#938cf7" points="150.555 129.145 151.676 129.797 152.716 129.197 151.595 128.545" class="color8ca8f7 svgShape"></polygon></g><g fill="#f4f6f8" class="color000000 svgShape"><polygon fill="#938cf7" points="154.32 129.816 155.441 130.467 156.48 129.867 155.359 129.215" class="color8ca8f7 svgShape"></polygon></g><g fill="#f4f6f8" class="color000000 svgShape"><polygon fill="#938cf7" points="152.065 130.023 153.186 130.674 154.226 130.074 153.105 129.423" class="color8ca8f7 svgShape"></polygon></g><g fill="#f4f6f8" class="color000000 svgShape"><polygon fill="#938cf7" points="155.43 127.426 161.136 130.742 162.175 130.141 156.47 126.826" class="color8ca8f7 svgShape"></polygon></g><g fill="#f4f6f8" class="color000000 svgShape"><polygon fill="#938cf7" points="155.825 130.69 156.946 131.342 157.985 130.741 156.865 130.09" class="color8ca8f7 svgShape"></polygon></g><g fill="#f4f6f8" class="color000000 svgShape"><polygon fill="#938cf7" points="153.571 130.898 154.691 131.549 155.731 130.949 154.61 130.297" class="color8ca8f7 svgShape"></polygon></g><g fill="#f4f6f8" class="color000000 svgShape"><polygon fill="#938cf7" points="161.46 130.93 162.581 131.581 163.62 130.981 162.499 130.33" class="color8ca8f7 svgShape"></polygon></g><g fill="#f4f6f8" class="color000000 svgShape"><polygon fill="#938cf7" points="157.33 131.565 158.456 132.219 159.495 131.619 158.37 130.965" class="color8ca8f7 svgShape"></polygon></g><g fill="#f4f6f8" class="color000000 svgShape"><polygon fill="#938cf7" points="160.15 131.686 161.271 132.337 162.311 131.737 161.19 131.086" class="color8ca8f7 svgShape"></polygon></g><g fill="#f4f6f8" class="color000000 svgShape"><polygon fill="#938cf7" points="155.076 131.772 156.196 132.424 157.236 131.824 156.115 131.172" class="color8ca8f7 svgShape"></polygon></g><g fill="#f4f6f8" class="color000000 svgShape"><polygon fill="#938cf7" points="158.84 132.442 159.961 133.094 161.001 132.494 159.88 131.842" class="color8ca8f7 svgShape"></polygon></g></g><g fill="#f4f6f8" class="color000000 svgShape"><polygon fill="#938cf7" points="147.749 128.373 148.87 129.024 149.34 128.752 148.22 128.101" class="color8ca8f7 svgShape"></polygon></g><g fill="#f4f6f8" class="color000000 svgShape"><polygon fill="#938cf7" points="149.254 129.248 150.375 129.899 150.846 129.627 149.725 128.976" class="color8ca8f7 svgShape"></polygon></g><g fill="#f4f6f8" class="color000000 svgShape"><polygon fill="#938cf7" points="153.774 131.875 154.895 132.526 155.366 132.254 154.245 131.603" class="color8ca8f7 svgShape"></polygon></g><g fill="#f4f6f8" class="color000000 svgShape"><polygon fill="#938cf7" points="156.789 133.627 157.91 134.278 158.381 134.006 157.26 133.355" class="color8ca8f7 svgShape"></polygon></g><g fill="#f4f6f8" class="color000000 svgShape"><polygon fill="#938cf7" points="155.279 132.749 156.405 133.403 156.875 133.131 155.75 132.477" class="color8ca8f7 svgShape"></polygon></g><g fill="#f4f6f8" class="color000000 svgShape"><polygon fill="#938cf7" points="161.309 136.253 162.43 136.905 162.901 136.633 161.78 135.982" class="color8ca8f7 svgShape"></polygon></g><g fill="#f4f6f8" class="color000000 svgShape"><polygon fill="#938cf7" points="159.799 135.376 160.925 136.03 161.396 135.758 160.27 135.104" class="color8ca8f7 svgShape"></polygon></g><g fill="#f4f6f8" class="color000000 svgShape"><polygon fill="#938cf7" points="166.393 135.314 167.514 135.965 168.553 135.365 167.433 134.714" class="color8ca8f7 svgShape"></polygon></g><g fill="#f4f6f8" class="color000000 svgShape"><polygon fill="#938cf7" points="167.898 136.189 169.019 136.84 170.058 136.24 168.938 135.589" class="color8ca8f7 svgShape"></polygon></g><g fill="#f4f6f8" class="color000000 svgShape"><polygon fill="#938cf7" points="166.588 136.945 167.709 137.596 168.748 136.996 167.628 136.345" class="color8ca8f7 svgShape"></polygon></g><g fill="#f4f6f8" class="color000000 svgShape"><g fill="#f4f6f8" class="color000000 svgShape"><polygon fill="#938cf7" points="170.713 136.307 171.834 136.959 172.874 136.359 171.753 135.707" class="color8ca8f7 svgShape"></polygon></g><g fill="#f4f6f8" class="color000000 svgShape"><polygon fill="#938cf7" points="169.403 137.064 170.524 137.715 171.564 137.115 170.443 136.463" class="color8ca8f7 svgShape"></polygon></g><g fill="#f4f6f8" class="color000000 svgShape"><polygon fill="#938cf7" points="170.909 137.938 172.034 138.592 174.384 137.236 173.258 136.582" class="color8ca8f7 svgShape"></polygon></g></g><g fill="#f4f6f8" class="color000000 svgShape"><polygon fill="#938cf7" points="168.093 137.82 169.214 138.471 170.254 137.871 169.133 137.22" class="color8ca8f7 svgShape"></polygon></g><g fill="#f4f6f8" class="color000000 svgShape"><g fill="#f4f6f8" class="color000000 svgShape"><polygon fill="#938cf7" points="165.278 137.702 166.399 138.353 167.439 137.753 166.318 137.101" class="color8ca8f7 svgShape"></polygon></g><g fill="#f4f6f8" class="color000000 svgShape"><polygon fill="#938cf7" points="164.537 138.129 165.658 138.781 166.129 138.509 165.008 137.858" class="color8ca8f7 svgShape"></polygon></g><g fill="#f4f6f8" class="color000000 svgShape"><polygon fill="#938cf7" points="166.784 138.576 167.904 139.227 168.944 138.627 167.823 137.976" class="color8ca8f7 svgShape"></polygon></g><g fill="#f4f6f8" class="color000000 svgShape"><polygon fill="#938cf7" points="166.042 139.004 167.163 139.655 167.634 139.384 166.513 138.732" class="color8ca8f7 svgShape"></polygon></g><g fill="#f4f6f8" class="color000000 svgShape"><polygon fill="#938cf7" points="168.289 139.451 169.414 140.105 170.454 139.505 169.328 138.851" class="color8ca8f7 svgShape"></polygon></g><g fill="#f4f6f8" class="color000000 svgShape"><polygon fill="#938cf7" points="168.018 139.607 167.552 139.882 168.673 140.533 169.144 140.261" class="color8ca8f7 svgShape"></polygon></g></g><g fill="#f4f6f8" class="color000000 svgShape"><polygon fill="#938cf7" points="163.032 137.255 164.153 137.906 164.624 137.634 163.503 136.983" class="color8ca8f7 svgShape"></polygon></g><g fill="#f4f6f8" class="color000000 svgShape"><polygon fill="#938cf7" points="158.64 130.809 159.766 131.463 160.805 130.863 159.68 130.208" class="color8ca8f7 svgShape"></polygon></g><g fill="#f4f6f8" class="color000000 svgShape"><polygon fill="#938cf7" points="157.135 129.934 158.256 130.585 159.295 129.985 158.175 129.334" class="color8ca8f7 svgShape"></polygon></g><g fill="#f4f6f8" class="color000000 svgShape"><polygon fill="#938cf7" points="155.63 129.059 156.751 129.711 157.79 129.111 156.669 128.459" class="color8ca8f7 svgShape"></polygon></g><g fill="#f4f6f8" class="color000000 svgShape"><polygon fill="#938cf7" points="165.98 133.557 167.101 134.208 168.14 133.608 167.02 132.957" class="color8ca8f7 svgShape"></polygon></g><g fill="#f4f6f8" class="color000000 svgShape"><polygon fill="#938cf7" points="167.703 134.558 168.824 135.209 169.863 134.609 168.742 133.958" class="color8ca8f7 svgShape"></polygon></g><g fill="#f4f6f8" class="color000000 svgShape"><polygon fill="#938cf7" points="169.208 135.433 170.329 136.084 171.368 135.484 170.248 134.833" class="color8ca8f7 svgShape"></polygon></g><g fill="#f4f6f8" class="color000000 svgShape"><polygon fill="#938cf7" points="165.083 136.07 166.204 136.722 167.243 136.122 166.123 135.47" class="color8ca8f7 svgShape"></polygon></g><g fill="#f4f6f8" class="color000000 svgShape"><polygon fill="#938cf7" points="163.773 136.827 164.894 137.478 165.934 136.878 164.813 136.227" class="color8ca8f7 svgShape"></polygon></g><g fill="#f4f6f8" class="color000000 svgShape"><polygon fill="#938cf7" points="169.599 138.695 170.724 139.349 171.764 138.749 170.638 138.094" class="color8ca8f7 svgShape"></polygon></g></g></g></g><g fill="#f4f6f8" class="color000000 svgShape"><g fill="#f4f6f8" class="color000000 svgShape"><path fill="#6560ad" d="M169.585,107.528c0.254-1.748,0.892-2.836,1.612-3.554c-2.967,1.971-3.78,11.532-3.458,14.386
							c0.062,0.543-0.197,1.067-0.661,1.36l-3.117,1.962l-4.212,2.639c0,0-1.229-0.103-2.604-0.852
							c-1.379-0.721-4.496-0.325-3.509,2.286c0,0,0.942,2.008,2.445,1.91c0,0,0.113,0.153,0.348-0.516
							c0.205-0.645,0.601-0.397,1.077-0.325c0.503,0.076,1.351,0.367,2.382,0.17c1.061-0.219,5.611-1.507,6.516-2.131
							c0,0,2.575-1.158,3.9-1.799c-0.047-2.656-0.167-5.385-0.445-6.832C169.205,112.83,169.272,109.682,169.585,107.528z" class="color60ad88 svgShape"></path></g><g fill="#f4f6f8" class="color000000 svgShape"><path fill="#d7e7f7" d="M177.958,128.309c-0.044,0.022-0.6,0.444-0.956,0.444c-0.356,0-0.845-0.579-2.758,0.023
							c-1.305,0.394-2.01,0.695-2.326,0.847c-0.115,0.055-0.125,0.212-0.02,0.286c0.08,0.056,0.186,0.114,0.322,0.156
							c0.357,0.148,0.952,0.196,1.785-0.268c0.104-0.058,0.238-0.026,0.29,0.081c0.099,0.209,0.072,0.604-0.918,1.143
							c-1.49,0.845-1.935,1.668-1.957,1.713c0,0,0.022,0.111,0.178,0.178c0.178,0.066,0.556,0.044,1.268-0.423
							c-0.045,0.044-1.223,1-0.778,1.157c0.089,0.044,0.222,0.044,0.467,0c0,0,0.133-0.045,0.512-0.422
							c-0.2,0.222-0.489,0.599-0.311,0.667c0.089,0.022,0.222,0.022,0.467-0.089c0.89-0.333,1.201-0.556,1.29-0.645
							c-0.089,0.2-0.311,0.689-0.089,0.779c0.089,0.022,0.244,0,0.511-0.112c0.938-0.43,2.632-1.667,3.104-3.108
							c0.132-0.402,0.416-0.737,0.803-0.909l0.318-0.141L177.958,128.309z" class="colorf7d7e1 svgShape"></path><path fill="#6560ad" d="M187.143,110.072c0,0-0.794-3.69-4.053-2.166c-2.532,1.185-0.797,9.237,0.104,12.772
							c0.262,1.028-0.112,2.099-0.947,2.752l-4.846,4.849c0,0,0.819,0.267,1.672,1.951l8.048-5.487
							c0.662-0.509,1.055-1.295,1.043-2.131C188.115,119.303,187.546,111.595,187.143,110.072z" class="color60ad88 svgShape"></path></g></g><g fill="#f4f6f8" class="color000000 svgShape"><g fill="#f4f6f8" class="color000000 svgShape"><g fill="#f4f6f8" class="color000000 svgShape"><path fill="#d9e0e8" d="M144.812,112.67c0.114-0.068,0.265-0.061,0.439,0.038l21.858,12.621
								c0.341,0.197,0.613,0.682,0.613,1.075l-0.038,15.445c-0.008,0.197-0.076,0.333-0.182,0.394l0.931-0.545
								c0.114-0.061,0.182-0.197,0.182-0.394l0.045-15.445c0-0.394-0.273-0.871-0.621-1.075l-21.858-12.621
								c-0.174-0.098-0.326-0.106-0.439-0.038L144.812,112.67z" class="colord9dfe8 svgShape"></path></g><g fill="#f4f6f8" class="color000000 svgShape"><path fill="#a5aeb7" d="M145.252,112.71c-0.343-0.198-0.62-0.035-0.621,0.359l-0.044,15.441
								c-0.001,0.394,0.273,0.87,0.617,1.068l21.859,12.62c0.343,0.198,0.62,0.04,0.621-0.354l0.044-15.441
								c0.001-0.394-0.273-0.876-0.617-1.074L145.252,112.71z" class="colora5acb7 svgShape"></path></g><g fill="#f4f6f8" class="color000000 svgShape"><path fill="#d9e0e8" d="M157.66,128.703c-0.004,1.233-0.877,1.729-1.949,1.11c-1.073-0.62-1.941-2.121-1.937-3.354
								c0.004-1.233,0.877-1.729,1.95-1.109C156.796,125.969,157.663,127.47,157.66,128.703z" class="colord9dfe8 svgShape"></path></g></g></g><g fill="#f4f6f8" class="color000000 svgShape"><g fill="#f4f6f8" class="color000000 svgShape"><g fill="#f4f6f8" class="color000000 svgShape"><g fill="#f4f6f8" class="color000000 svgShape"><g fill="#f4f6f8" class="color000000 svgShape"><path fill="#6822a2" d="M178.142,101.038c0,0.46,0.163,0.785,0.425,0.937l0.635,0.367
										c-0.264-0.152-0.425-0.475-0.427-0.937c-0.003-0.928,0.649-2.057,1.457-2.522c0.405-0.235,0.774-0.258,1.041-0.102
										l-0.635-0.369c-0.265-0.154-0.634-0.133-1.041,0.102C178.791,98.98,178.139,100.11,178.142,101.038z" class="color3f528c svgShape"></path></g></g></g><g fill="#f4f6f8" class="color000000 svgShape"><path fill="#0c2340" d="M180.232,98.883c0.808-0.466,1.465-0.093,1.467,0.835c0.003,0.928-0.65,2.057-1.458,2.524
								c-0.807,0.466-1.464,0.092-1.466-0.836C178.772,100.478,179.425,99.349,180.232,98.883z" class="color233163 svgShape"></path></g></g><g fill="#f4f6f8" class="color000000 svgShape"><path fill="#0c2340" d="M174.326,92.106c0.595-0.345,1.422-0.295,2.33,0.228c1.807,1.046,3.274,3.582,3.269,5.658
							l-0.013,1.791l0.728-0.755l0.013-1.46c0.005-2.075-1.463-4.611-3.269-5.658c-0.908-0.523-1.735-0.572-2.33-0.224
							L174.326,92.106z" class="color233163 svgShape"></path><g fill="#f4f6f8" class="color000000 svgShape"><g fill="#f4f6f8" class="color000000 svgShape"><g fill="#f4f6f8" class="color000000 svgShape"><path fill="#6822a2" d="M179.185,101.25c0,0.353,0.125,0.602,0.326,0.719l0.463,0.268
										c-0.202-0.117-0.326-0.365-0.327-0.719c-0.002-0.712,0.498-1.578,1.118-1.935c0.311-0.18,0.594-0.198,0.799-0.078
										l-0.463-0.269c-0.203-0.118-0.486-0.102-0.798,0.078C179.684,99.672,179.183,100.538,179.185,101.25z" class="color3f528c svgShape"></path></g></g></g><g fill="#f4f6f8" class="color000000 svgShape"><path fill="#0c2340" d="M180.765,99.583c0.62-0.358,1.124-0.071,1.126,0.641c0.002,0.712-0.499,1.578-1.118,1.936
								c-0.619,0.357-1.123,0.071-1.125-0.641C179.645,100.807,180.146,99.94,180.765,99.583z" class="color233163 svgShape"></path></g></g></g><g fill="#f4f6f8" class="color000000 svgShape"><path fill="#6822a2" d="M176.657,92.335c-1.431-0.826-2.652-0.471-3.101,0.744c0.37-0.224,0.737-0.428,0.997-0.583
						c0.005-0.003,0.009-0.005,0.013-0.008c0.002-0.001,0.004-0.002,0.005-0.003l-0.002,0.002c0.537-0.302,1.275-0.255,2.087,0.214
						c1.633,0.943,2.957,3.235,2.951,5.109l-0.011,1.127l0.317,0.183l0.011-1.127C179.931,95.914,178.465,93.379,176.657,92.335z" class="color3f528c svgShape"></path></g></g><g fill="#f4f6f8" class="color000000 svgShape"><g fill="#f4f6f8" class="color000000 svgShape"><path fill="#938cf7" d="M230.662,159.338c0.4-0.231,0.725-0.046,0.726,0.414c0.001,0.46-0.321,1.019-0.722,1.25
						l-2.944,1.7c-0.4,0.231-0.725,0.046-0.727-0.414c-0.001-0.46,0.321-1.019,0.722-1.25L230.662,159.338z" class="color8ca8f7 svgShape"></path></g><g fill="#f4f6f8" class="color000000 svgShape"><path fill="#938cf7" d="M223.568,163.434c0.4-0.231,0.725-0.046,0.727,0.414c0.001,0.46-0.322,1.019-0.722,1.25
						l-2.944,1.7c-0.4,0.231-0.725,0.046-0.727-0.414s0.322-1.019,0.722-1.25L223.568,163.434z" class="color8ca8f7 svgShape"></path></g><g fill="#f4f6f8" class="color000000 svgShape"><g fill="#f4f6f8" class="color000000 svgShape"><path fill="#b7dbff" d="M230.787 159.061c-.132-.077-.314-.066-.515.05l-2.944 1.7c-.4.231-.723.79-.722 1.25.001.228.081.389.211.465l.39.227c-.13-.076-.21-.236-.211-.465-.001-.46.321-1.019.722-1.25l2.944-1.699c.201-.117.384-.127.515-.051L230.787 159.061zM223.178 163.207l-2.944 1.7c-.4.231-.723.79-.722 1.25.001.229.081.389.211.465l.39.227c-.13-.076-.21-.236-.211-.465-.001-.46.322-1.019.722-1.25l2.944-1.7c.202-.116.384-.127.515-.05l-.39-.227C223.562 163.08 223.379 163.091 223.178 163.207zM218.038 166.175l-2.944 1.699c-.4.232-.723.791-.722 1.25.001.228.081.389.211.465l.39.226c-.13-.076-.21-.236-.211-.465-.001-.46.321-1.019.722-1.25l2.944-1.7c.202-.116.384-.127.516-.051l-.39-.227C218.422 166.048 218.239 166.059 218.038 166.175z" class="colorb7ceff svgShape"></path></g><g fill="#f4f6f8" class="color000000 svgShape"><path fill="#938cf7" d="M218.428,166.401c0.4-0.231,0.725-0.046,0.727,0.414c0.001,0.46-0.321,1.019-0.722,1.25
							l-2.944,1.699c-0.4,0.231-0.725,0.046-0.727-0.414c-0.001-0.46,0.321-1.019,0.722-1.25L218.428,166.401z" class="color8ca8f7 svgShape"></path></g></g></g><g fill="#f4f6f8" class="color000000 svgShape"><g fill="#f4f6f8" class="color000000 svgShape"><g fill="#f4f6f8" class="color000000 svgShape"><path fill="#8cadcf" d="M214.907,83.239l-0.022,12.55c0,0.768-0.285,1.294-0.702,1.536l-1.558,0.899
							c0.439-0.241,0.702-0.768,0.702-1.535l0.044-12.55c0-1.514-1.075-3.379-2.391-4.147l-22.488-12.967
							c-0.658-0.394-1.251-0.416-1.689-0.175l1.558-0.9c0.439-0.241,1.031-0.22,1.689,0.176l22.466,12.965
							C213.832,79.86,214.907,81.725,214.907,83.239z" class="color8ccfb1 svgShape"></path></g><g fill="#f4f6f8" class="color000000 svgShape"><path fill="#6560ad" d="M210.98,79.998c1.317,0.76,2.392,2.622,2.387,4.135l-0.036,12.555
							c-0.004,1.529-1.086,2.13-2.403,1.37l-14.666-8.467l-6.714,2.604l0.018-6.47l-1.12-0.647
							c-1.303-0.752-2.378-2.598-2.374-4.127l0.036-12.555c0.004-1.513,1.086-2.13,2.389-1.378L210.98,79.998z" class="color60ad88 svgShape"></path></g></g><g fill="#f4f6f8" class="color000000 svgShape"><g fill="#f4f6f8" class="color000000 svgShape"><path fill="#f4f6f8" d="M206.619,84.045c1.177,0.679,2.14,2.348,2.136,3.716c-0.004,1.368-0.973,1.921-2.15,1.242
							c-1.191-0.688-2.154-2.356-2.15-3.725C204.459,83.911,205.428,83.358,206.619,84.045z" class="colorffffff svgShape"></path></g><g fill="#f4f6f8" class="color000000 svgShape"><path fill="#f4f6f8" d="M199.728,80.066c1.191,0.688,2.154,2.356,2.15,3.724c-0.004,1.368-0.973,1.921-2.164,1.234
							c-1.191-0.687-2.154-2.356-2.15-3.725C197.567,79.932,198.537,79.379,199.728,80.066z" class="colorffffff svgShape"></path></g><g fill="#f4f6f8" class="color000000 svgShape"><path fill="#f4f6f8" d="M192.836,76.087c1.191,0.687,2.154,2.356,2.15,3.724c-0.004,1.368-0.974,1.921-2.164,1.234
							c-1.191-0.687-2.14-2.348-2.136-3.716C190.689,75.961,191.645,75.4,192.836,76.087z" class="colorffffff svgShape"></path></g></g></g><g fill="#f4f6f8" class="color000000 svgShape"><g fill="#f4f6f8" class="color000000 svgShape"><g fill="#f4f6f8" class="color000000 svgShape"><g fill="#f4f6f8" class="color000000 svgShape"><polygon fill="#b7dbff" points="67.269 131.988 68.87 131.05 68.87 137.795 67.246 138.732" class="colorb7ceff svgShape"></polygon><path fill="#5046e4" d="M68.49,113.833c1.372,0.792,2.478,2.724,2.474,4.302l-0.037,13.085
								c-0.005,1.594-1.118,2.228-2.49,1.436l-1.168-0.674l-0.019,6.743l-6.945-10.764l-15.285-8.825
								c-1.372-0.792-2.493-2.716-2.488-4.31l0.037-13.085c0.005-1.577,1.132-2.22,2.505-1.427L68.49,113.833z" class="color8294ed svgShape"></path></g></g><path fill="#b7dbff" d="M72.574,117.193l-0.046,13.102c0,0.777-0.274,1.349-0.709,1.601l-1.623,0.937
						c0.457-0.274,0.732-0.823,0.732-1.623l0.046-13.08c0-1.576-1.12-3.498-2.493-4.299l-23.415-13.513
						c-0.686-0.412-1.303-0.434-1.761-0.183l1.601-0.938c0.457-0.251,1.097-0.229,1.784,0.183l23.415,13.514
						C71.477,113.695,72.574,115.615,72.574,117.193z" class="colorb7ceff svgShape"></path></g><g fill="#f4f6f8" class="color000000 svgShape"><g fill="#f4f6f8" class="color000000 svgShape"><path fill="#f4f6f8" d="M49.579,110.032c1.241,0.716,2.245,2.456,2.241,3.881c-0.004,1.426-1.015,2.002-2.256,1.286
							c-1.241-0.716-2.245-2.456-2.241-3.882C47.328,109.892,48.338,109.315,49.579,110.032z" class="colorffffff svgShape"></path></g><g fill="#f4f6f8" class="color000000 svgShape"><path fill="#f4f6f8" d="M56.762,114.179c1.241,0.716,2.245,2.456,2.241,3.881c-0.004,1.426-1.015,2.002-2.256,1.286
							c-1.241-0.716-2.245-2.456-2.241-3.882C54.511,114.038,55.521,113.462,56.762,114.179z" class="colorffffff svgShape"></path></g><g fill="#f4f6f8" class="color000000 svgShape"><path fill="#f4f6f8" d="M63.93,118.317c1.241,0.716,2.245,2.456,2.241,3.881c-0.004,1.426-1.015,2.002-2.255,1.286
							c-1.241-0.716-2.231-2.447-2.226-3.873C61.694,118.186,62.69,117.601,63.93,118.317z" class="colorffffff svgShape"></path></g></g></g><g fill="#f4f6f8" class="color000000 svgShape"><g fill="#f4f6f8" class="color000000 svgShape"><g fill="#f4f6f8" class="color000000 svgShape"><path fill="#6560ad" d="M197.713,214.631v2.015c0,0.374-0.249,0.747-0.722,1.021l-8.386,4.877
							c-0.97,0.572-2.563,0.572-3.533,0l-8.436-4.877c-0.498-0.273-0.747-0.646-0.747-1.021v-2.04c0,0.373,0.249,0.747,0.747,1.045
							l8.461,4.877c0.945,0.548,2.538,0.548,3.509,0l8.386-4.877C197.464,215.353,197.713,215.004,197.713,214.631z" class="color60ad88 svgShape"></path></g><g fill="#f4f6f8" class="color000000 svgShape"><path fill="#8cadcf" d="M196.986,213.604c0.969,0.559,0.974,1.477,0.012,2.036l-8.398,4.88
							c-0.963,0.56-2.547,0.56-3.516,0l-8.452-4.88c-0.969-0.559-0.975-1.477-0.011-2.036l8.398-4.88
							c0.963-0.559,2.547-0.56,3.516,0L196.986,213.604z" class="color8ccfb1 svgShape"></path></g></g></g><g fill="#f4f6f8" class="color000000 svgShape"><g fill="#f4f6f8" class="color000000 svgShape"><g fill="#f4f6f8" class="color000000 svgShape"><path fill="#0c2340" d="M230.423,202.731v2.015c0,0.374-0.249,0.747-0.722,1.021l-8.386,4.877
							c-0.97,0.572-2.563,0.572-3.534,0l-8.436-4.877c-0.498-0.273-0.746-0.646-0.746-1.021v-2.04c0,0.373,0.249,0.747,0.746,1.045
							l8.461,4.877c0.946,0.548,2.538,0.548,3.509,0l8.386-4.877C230.174,203.453,230.423,203.104,230.423,202.731z" class="color233163 svgShape"></path></g><g fill="#f4f6f8" class="color000000 svgShape"><path fill="#6822a2" d="M229.696,201.704c0.969,0.559,0.974,1.477,0.011,2.036l-8.398,4.88
							c-0.963,0.56-2.546,0.56-3.516,0l-8.452-4.88c-0.969-0.559-0.975-1.477-0.012-2.036l8.398-4.88
							c0.963-0.559,2.547-0.56,3.516,0L229.696,201.704z" class="color3f528c svgShape"></path></g></g></g><g fill="#f4f6f8" class="color000000 svgShape"><g fill="#f4f6f8" class="color000000 svgShape"><g fill="#f4f6f8" class="color000000 svgShape"><path fill="#e576d1" d="M245.907,181.122v2.015c0,0.374-0.249,0.747-0.722,1.021l-8.386,4.877
							c-0.971,0.572-2.563,0.572-3.534,0l-8.436-4.877c-0.498-0.273-0.747-0.646-0.747-1.021v-2.04c0,0.373,0.249,0.747,0.747,1.045
							l8.461,4.877c0.946,0.548,2.538,0.548,3.509,0l8.386-4.877C245.658,181.844,245.907,181.495,245.907,181.122z" class="colore576ad svgShape"></path></g><g fill="#f4f6f8" class="color000000 svgShape"><path fill="#93c8fd" d="M245.18,180.094c0.969,0.56,0.974,1.477,0.011,2.036l-8.398,4.88
							c-0.963,0.56-2.547,0.56-3.516,0l-8.452-4.88c-0.969-0.56-0.975-1.477-0.011-2.036l8.398-4.88c0.963-0.559,2.547-0.56,3.516,0
							L245.18,180.094z" class="colorfd93bf svgShape"></path></g></g></g><g fill="#f4f6f8" class="color000000 svgShape"><g fill="#f4f6f8" class="color000000 svgShape"><g fill="#f4f6f8" class="color000000 svgShape"><path fill="#5046e4" d="M129.142,104.253v2.015c0,0.374-0.249,0.747-0.722,1.021l-8.386,4.877
							c-0.97,0.572-2.563,0.572-3.534,0l-8.436-4.877c-0.498-0.273-0.747-0.646-0.747-1.021v-2.04c0,0.373,0.249,0.747,0.747,1.045
							l8.461,4.877c0.946,0.548,2.538,0.548,3.509,0l8.386-4.877C128.893,104.975,129.142,104.626,129.142,104.253z" class="color8294ed svgShape"></path></g><g fill="#f4f6f8" class="color000000 svgShape"><path fill="#b7dbff" d="M128.415,103.225c0.969,0.559,0.974,1.477,0.011,2.036l-8.398,4.88
							c-0.964,0.56-2.547,0.56-3.516,0l-8.452-4.88c-0.969-0.56-0.975-1.477-0.011-2.036l8.398-4.88c0.963-0.559,2.547-0.56,3.516,0
							L128.415,103.225z" class="colorb7ceff svgShape"></path></g></g></g><g fill="#f4f6f8" class="color000000 svgShape"><g fill="#f4f6f8" class="color000000 svgShape"><g fill="#f4f6f8" class="color000000 svgShape"><path fill="#e576d1" d="M106.237,122.06v2.015c0,0.374-0.249,0.747-0.722,1.021l-8.386,4.877
							c-0.97,0.572-2.563,0.572-3.534,0l-8.436-4.877c-0.498-0.273-0.747-0.646-0.747-1.021v-2.04c0,0.373,0.249,0.747,0.747,1.045
							l8.461,4.877c0.946,0.548,2.538,0.548,3.509,0l8.386-4.877C105.988,122.782,106.237,122.433,106.237,122.06z" class="colore576ad svgShape"></path></g><g fill="#f4f6f8" class="color000000 svgShape"><path fill="#93c8fd" d="M105.51,121.033c0.969,0.56,0.974,1.477,0.011,2.036l-8.398,4.88
							c-0.963,0.56-2.547,0.56-3.516,0l-8.452-4.88c-0.969-0.559-0.975-1.477-0.011-2.036l8.398-4.88
							c0.963-0.559,2.546-0.56,3.516,0L105.51,121.033z" class="colorfd93bf svgShape"></path></g></g></g></g><g fill="#f4f6f8" class="color000000 svgShape"><g fill="#f4f6f8" class="color000000 svgShape"><g fill="#f4f6f8" class="color000000 svgShape"><g fill="#f4f6f8" class="color000000 svgShape"><polygon fill="#93c8fd" points="210.645 116.316 211.875 115.601 215.395 113.569 214.166 114.284" class="colorfd93bf svgShape"></polygon></g><g fill="#f4f6f8" class="color000000 svgShape"><path fill="#93c8fd" d="M215.534,113.49l-1.23,0.715c-0.045,0.026-0.091,0.053-0.138,0.079l1.23-0.715
							C215.442,113.543,215.488,113.516,215.534,113.49z" class="colorfd93bf svgShape"></path></g></g><g fill="#f4f6f8" class="color000000 svgShape"><g fill="#f4f6f8" class="color000000 svgShape"><path fill="#93c8fd" d="M213.329,108.395l-1.221,0.716c0.157-0.192,0.332-0.349,0.506-0.453l1.239-0.716
							C213.66,108.047,213.503,108.204,213.329,108.395z" class="colorfd93bf svgShape"></path><polygon fill="#93c8fd" points="214.533 116.892 219.802 119.929 219.784 122.075 218.563 122.789 218.563 120.644 213.311 117.608" class="colorfd93bf svgShape"></polygon><path fill="#93c8fd" d="M214.602,106.86c-0.977-0.558-1.762-0.802-2.373-0.715c-0.297,0.052-0.593,0.157-0.872,0.313
							l1.239-0.715c0.262-0.158,0.558-0.262,0.855-0.314c0.611-0.088,1.413,0.157,2.373,0.716c0.96,0.541,1.814,1.378,2.547,2.512
							c0.715,1.116,1.082,2.303,1.082,3.524c0,0.681-0.157,1.256-0.471,1.692c-0.314,0.454-0.872,0.907-1.71,1.413l-1.239,0.716
							c0.837-0.506,1.413-0.959,1.71-1.413c0.314-0.436,0.471-1.012,0.471-1.693c0.017-1.221-0.349-2.407-1.082-3.523
							C216.399,108.239,215.562,107.401,214.602,106.86z" class="colorfd93bf svgShape"></path><polygon fill="#93c8fd" points="223.5 118.83 226.257 120.417 225.036 121.132 222.279 119.544 226.484 114.032 224.338 112.81 225.577 112.094 227.723 113.316" class="colorfd93bf svgShape"></polygon><polygon fill="#93c8fd" points="226.885 124.256 228.124 123.54 228.107 126.89 226.885 127.605" class="colorfd93bf svgShape"></polygon><polygon fill="#93c8fd" points="228.124 121.499 229.52 122.301 229.52 124.342 228.281 125.058 228.281 123.017 226.903 122.214 226.903 119.772 225.036 118.707 226.275 117.991 228.142 119.073" class="colorfd93bf svgShape"></polygon><polygon fill="#93c8fd" points="239.482 117.991 232.259 131.513 231.038 132.229 238.261 118.707 236.604 117.748 237.842 117.032" class="colorfd93bf svgShape"></polygon><polygon fill="#93c8fd" points="241.21 124.587 242.448 123.871 242.448 125.651 241.21 126.367" class="colorfd93bf svgShape"></polygon><polygon fill="#93c8fd" points="248.817 125.512 248.817 127.501 243.879 135.998 242.658 136.713 247.595 128.216 247.595 126.227 239.447 121.517 240.669 120.801" class="colorfd93bf svgShape"></polygon></g></g></g><g fill="#f4f6f8" class="color000000 svgShape"><path fill="#a50b89" d="M214.6,106.855c0.958,0.553,1.804,1.387,2.537,2.516c0.722,1.122,1.087,2.307,1.084,3.523
					c-0.002,0.678-0.16,1.254-0.473,1.688c-0.303,0.453-0.873,0.919-1.711,1.422l-2.727,1.605l5.258,3.036l-0.006,2.151l-7.92-4.573
					l0.005-1.908l3.521-2.032c0.794-0.452,1.352-0.847,1.677-1.185c0.336-0.319,0.504-0.761,0.506-1.285
					c0.002-0.537-0.175-1.089-0.531-1.679c-0.344-0.57-0.8-1.013-1.335-1.322c-0.947-0.547-1.739-0.453-2.378,0.294l-1.568-1.944
					c0.504-0.594,1.074-0.919,1.688-1.013C212.839,106.056,213.63,106.296,214.6,106.855z" class="colord363a1 svgShape"></path></g><g fill="#f4f6f8" class="color000000 svgShape"><g fill="#f4f6f8" class="color000000 svgShape"><polygon fill="#a50b89" points="226.484 114.037 222.274 119.543 225.036 121.137 225.043 118.705 226.903 119.78 226.897 122.212 228.289 123.016 228.283 125.051 226.891 124.247 226.881 127.601 225.021 126.526 225.03 123.173 220.062 120.304 220.068 118.333 224.346 112.802" class="colord363a1 svgShape"></polygon></g></g><g fill="#f4f6f8" class="color000000 svgShape"><g fill="#f4f6f8" class="color000000 svgShape"><polygon fill="#a50b89" points="238.254 118.704 231.03 132.227 229.37 131.268 236.605 117.752" class="colord363a1 svgShape"></polygon></g></g><g fill="#f4f6f8" class="color000000 svgShape"><polygon fill="#a50b89" points="247.594 126.225 247.588 128.222 242.655 136.708 240.505 135.466 245.316 126.948 241.216 124.581 241.211 126.374 239.429 125.345 239.44 121.517" class="colord363a1 svgShape"></polygon></g></g><g fill="#f4f6f8" class="color000000 svgShape"><g fill="#f4f6f8" class="color000000 svgShape"><path fill="#7873bc" d="M155.691,186.27c3.034,1.752,3.05,4.598,0.03,6.353c-3.021,1.755-7.928,1.752-10.962,0
					c-3.04-1.755-3.062-4.598-0.042-6.353C147.737,184.515,152.651,184.515,155.691,186.27z" class="color73bc9c svgShape"></path></g><g fill="#f4f6f8" class="color000000 svgShape"><path fill="#d9e0e8" d="M137.533,182.122c-3.027,1.76-7.937,1.76-10.964,0c-3.058-1.761-3.058-4.602-0.031-6.362
					c2.995-1.76,7.906-1.76,10.964,0C140.529,177.519,140.559,180.36,137.533,182.122z" class="colord9dfe8 svgShape"></path></g><g fill="#f4f6f8" class="color000000 svgShape"><path fill="#a50b89" d="M119.299,165.259c3.04,1.755,3.056,4.602,0.036,6.357c-3.021,1.755-7.928,1.752-10.968-0.004
					c-3.04-1.755-3.056-4.594-0.036-6.35C111.352,163.507,116.259,163.504,119.299,165.259z" class="colord363a1 svgShape"></path></g><g fill="#f4f6f8" class="color000000 svgShape"><path fill="#6822a2" d="M133.299,176.058c0.253,0.146,0.466,0.334,0.607,0.562c0.926,1.504,0.941,3.144,0.026,4.644
					c-0.497,0.815-1.913,1.133-2.791,0.773c-0.034-0.013-0.065-0.027-0.092-0.044c-0.206-0.119-0.246-0.317-0.098-0.477
					c0.24-0.259,0.438-0.521,0.593-0.794c0.12-0.196,0.457-0.315,0.783-0.266c0.332,0.052,0.682-0.087,0.759-0.322
					c0.267-0.787,0.263-1.598-0.019-2.388c-0.029-0.091-0.103-0.169-0.202-0.226c-0.15-0.087-0.358-0.126-0.555-0.092
					c-0.221,0.033-0.448-0.011-0.609-0.104c-0.076-0.044-0.138-0.099-0.177-0.162c-0.164-0.269-0.359-0.535-0.596-0.79
					c-0.176-0.186-0.105-0.416,0.178-0.525C131.731,175.59,132.647,175.681,133.299,176.058z" class="color3f528c svgShape"></path></g></g></g><g fill="#f4f6f8" class="color000000 svgShape"><g fill="#f4f6f8" class="color000000 svgShape"><path fill="#83baf2" d="M92.801,58.724l8.058,3.949c1.021,0.511,2.256,0.081,2.767-0.94l3.949-8.058
				c0.497-1.021,0.081-2.257-0.94-2.767l-8.058-3.949c-1.021-0.497-2.256-0.081-2.767,0.94l-3.949,8.058
				C91.35,56.979,91.78,58.214,92.801,58.724z" class="colorf283b5 svgShape"></path></g><g fill="#f4f6f8" class="color000000 svgShape"><path fill="#b5cee7" d="M83.742,59.109l3.694-7.525c0.47-0.957,1.631-1.353,2.588-0.883l7.525,3.695
				c0.957,0.47,1.353,1.631,0.883,2.587l-3.694,7.525c-0.47,0.957-1.631,1.353-2.587,0.883l-7.525-3.695
				C83.669,61.227,83.272,60.066,83.742,59.109z M89.294,52.189c-0.137-0.067-0.303-0.01-0.37,0.126l-3.695,7.525
				c-0.067,0.137-0.011,0.302,0.126,0.37l7.525,3.695c0.137,0.067,0.303,0.01,0.37-0.126l3.695-7.525
				c0.067-0.137,0.011-0.302-0.126-0.37L89.294,52.189z" class="colore7b8b5 svgShape"></path></g><g fill="#f4f6f8" class="color000000 svgShape"><path fill="#8cadcf" d="M232.134,232.378l-4.193-7.499c-0.533-0.954-0.191-2.163,0.762-2.696l7.498-4.193
				c0.953-0.533,2.163-0.191,2.696,0.762l4.193,7.499c0.533,0.954,0.191,2.163-0.762,2.696l-7.499,4.193
				C233.877,233.673,232.668,233.331,232.134,232.378z M229.532,223.665c-0.136,0.076-0.185,0.249-0.109,0.385l4.193,7.499
				c0.076,0.136,0.249,0.185,0.385,0.109l7.498-4.193c0.136-0.076,0.185-0.249,0.109-0.385l-4.193-7.499
				c-0.076-0.136-0.249-0.185-0.385-0.109L229.532,223.665z" class="color8ccfb1 svgShape"></path></g><path fill="#8cadcf" d="M231.919,109.904l3.875,2.17c0.493,0.276,1.126,0.09,1.412-0.413l2.247-3.961
			c0.286-0.504,0.117-1.138-0.375-1.414l-3.874-2.17c-0.493-0.276-1.126-0.09-1.412,0.413l-2.247,3.961
			C231.258,108.993,231.426,109.628,231.919,109.904z M232.309,108.919l2.247-3.961c0.041-0.072,0.131-0.098,0.202-0.059l3.874,2.17
			c0.07,0.039,0.094,0.13,0.053,0.202l-2.247,3.961c-0.041,0.072-0.131,0.098-0.202,0.059l-3.874-2.17
			C232.293,109.081,232.268,108.991,232.309,108.919z" class="color8ccfb1 svgShape"></path><g fill="#f4f6f8" class="color000000 svgShape"><path fill="#8cadcf" d="M36.293,140.809l5.247-6.007c0.667-0.764,1.832-0.842,2.595-0.175l6.007,5.247
				c0.764,0.667,0.842,1.831,0.175,2.595l-5.247,6.007c-0.667,0.764-1.832,0.842-2.595,0.175l-6.007-5.247
				C35.705,142.738,35.626,141.573,36.293,140.809z M43.099,135.814c-0.109-0.095-0.276-0.084-0.371,0.025l-5.247,6.007
				c-0.095,0.109-0.084,0.275,0.025,0.371l6.007,5.247c0.109,0.095,0.275,0.084,0.371-0.025l5.247-6.007
				c0.095-0.109,0.084-0.275-0.025-0.371L43.099,135.814z" class="color8ccfb1 svgShape"></path></g><path fill="#938cf7" d="M252.975 149.893c-.41 2.674 1.86 4.943 4.534 4.534 1.666-.255 3.028-1.617 3.283-3.283.409-2.674-1.861-4.943-4.534-4.534C254.592 146.866 253.23 148.227 252.975 149.893zM162.45 47.578c-.409 2.674 1.86 4.944 4.534 4.534 1.666-.255 3.028-1.617 3.283-3.283.41-2.674-1.86-4.943-4.534-4.534C164.067 44.551 162.705 45.912 162.45 47.578zM170.389 246.263c-.46 1.907 1.215 3.582 3.122 3.122.896-.216 1.632-.951 1.848-1.848.46-1.907-1.215-3.582-3.122-3.122C171.34 244.632 170.605 245.367 170.389 246.263z" class="color8ca8f7 svgShape"></path><path fill="#83baf2" d="M157.586,65.287c-0.443,1.837,1.17,3.45,3.008,3.007c0.863-0.208,1.572-0.916,1.78-1.78
			c0.443-1.837-1.17-3.45-3.007-3.007C158.503,63.715,157.795,64.424,157.586,65.287z" class="colorf283b5 svgShape"></path><path fill="#938cf7" d="M245.443,143.744c-0.375,1.555,0.991,2.921,2.546,2.546c0.731-0.176,1.33-0.776,1.507-1.507
			c0.375-1.555-0.991-2.921-2.546-2.546C246.219,142.413,245.62,143.013,245.443,143.744z" class="color8ca8f7 svgShape"></path></g></g></svg>