<svg xmlns="http://www.w3.org/2000/svg" xmlns:xlink="http://www.w3.org/1999/xlink" viewBox="0 0 1662.281 1289.441" id="Dashboarddevelopment"><defs><linearGradient id="d" x1="-138.442" x2="-352.997" y1="364.339" y2="298.368" gradientTransform="matrix(-1 0 0 1 923.063 0)" gradientUnits="userSpaceOnUse"><stop offset="0" stop-color="#64318f" class="stopColor34318f svgShape"></stop><stop offset="1" stop-color="#726ae2" class="stopColor6a6ae2 svgShape"></stop></linearGradient><linearGradient id="l" x1="-361.139" x2="-361.139" y1="63.309" y2="-78.674" gradientTransform="matrix(-.866 -.5 0 1.1547 854.915 173.408)" gradientUnits="userSpaceOnUse"><stop offset="0"></stop><stop offset=".096" stop-color="#0c2340" class="stopColor001415 svgShape"></stop><stop offset=".54" stop-color="#003270" class="stopColor006a70 svgShape"></stop><stop offset=".851" stop-color="#0b00a9" class="stopColor00a1a9 svgShape"></stop><stop offset="1" stop-color="#0c00bf" class="stopColor00b6bf svgShape"></stop></linearGradient><linearGradient id="m" x1="-377.952" x2="-197.078" y1="463.556" y2="150.274" gradientTransform="matrix(-1 0 0 1 923.063 0)" gradientUnits="userSpaceOnUse"><stop offset=".396" stop-color="#193f6f" class="stopColor20196f svgShape"></stop><stop offset=".509" stop-color="#662e94" class="stopColor362e94 svgShape"></stop></linearGradient><linearGradient id="a" x1="441.051" x2="1513.711" y1="695.849" y2="695.849" gradientUnits="userSpaceOnUse"><stop offset=".011" stop-color="#c4d6e9" class="stopColorc4cae9 svgShape"></stop><stop offset=".285" stop-color="#d0deed" class="stopColord0d4ed svgShape"></stop><stop offset=".774" stop-color="#eff4f9" class="stopColoreff0f9 svgShape"></stop><stop offset="1" stop-color="#ffffff" class="stopColorffffff svgShape"></stop></linearGradient><linearGradient id="b" x1="418.575" x2="1491.234" y1="819.318" y2="819.318" gradientUnits="userSpaceOnUse"><stop offset=".557" stop-color="#cee3f8" class="stopColorced3f8 svgShape"></stop><stop offset=".603" stop-color="#c4d6e9" class="stopColorc4cae9 svgShape"></stop></linearGradient><linearGradient id="n" x1="387.916" x2="1460.576" y1="616.068" y2="616.068" xlink:href="#a"></linearGradient><linearGradient id="o" x1="365.439" x2="1438.099" y1="739.537" y2="739.537" xlink:href="#b"></linearGradient><linearGradient id="p" x1="696.628" x2="1030.447" y1="783.575" y2="783.575" gradientUnits="userSpaceOnUse"><stop offset=".658" stop-color="#c4d6e9" class="stopColorc4cae9 svgShape"></stop><stop offset=".739" stop-color="#cadaeb" class="stopColorcacfeb svgShape"></stop><stop offset=".843" stop-color="#dae5f1" class="stopColordaddf1 svgShape"></stop><stop offset=".958" stop-color="#f4f7fb" class="stopColorf4f5fb svgShape"></stop><stop offset="1" stop-color="#ffffff" class="stopColorffffff svgShape"></stop></linearGradient><linearGradient id="q" x1="39.58" x2="206.473" y1="736.174" y2="447.106" gradientTransform="rotate(-120.001 542.89 481.134)" gradientUnits="userSpaceOnUse"><stop offset=".003" stop-color="#bbd0e6" class="stopColorbbc0e6 svgShape"></stop><stop offset=".008" stop-color="#bcd1e7" class="stopColorbcc1e7 svgShape"></stop><stop offset=".169" stop-color="#cee3f8" class="stopColorced3f8 svgShape"></stop></linearGradient><linearGradient id="r" x1="1132.075" x2="1508.907" y1="940.327" y2="940.327" gradientUnits="userSpaceOnUse"><stop offset="0" stop-color="#dae7f5" class="stopColordae0f5 svgShape"></stop><stop offset=".327" stop-color="#deeaf6" class="stopColordee3f6 svgShape"></stop><stop offset=".66" stop-color="#eaf1f9" class="stopColoreaeef9 svgShape"></stop><stop offset=".996" stop-color="#ffffff" class="stopColorffffff svgShape"></stop><stop offset="1" stop-color="#ffffff" class="stopColorffffff svgShape"></stop></linearGradient><linearGradient id="s" x1="1463.949" x2="1479.621" y1="823.318" y2="849.338" gradientUnits="userSpaceOnUse"><stop offset="0" stop-color="#6f67e9" class="stopColor6b67e9 svgShape"></stop><stop offset="1" stop-color="#652e93" class="stopColor362e93 svgShape"></stop></linearGradient><linearGradient id="t" x1="1150.103" x2="1135.373" y1="1036.655" y2="1010.814" gradientUnits="userSpaceOnUse"><stop offset="0" stop-color="#bbd0e6" class="stopColorbbc0e6 svgShape"></stop><stop offset="1" stop-color="#f6f8fb" class="stopColorf6f6fb svgShape"></stop></linearGradient><linearGradient id="u" x1="1125.422" x2="1119.219" y1="1041.05" y2="1033.038" gradientUnits="userSpaceOnUse"><stop offset="0" stop-color="#652e93" class="stopColor362e93 svgShape"></stop><stop offset="1" stop-color="#847cfb" class="stopColor807cfb svgShape"></stop></linearGradient><linearGradient id="v" x1="1455.998" x2="1438.8" y1="862.625" y2="833.707" gradientUnits="userSpaceOnUse"><stop offset=".074" stop-color="#a3b9d0" class="stopColora3a9d0 svgShape"></stop><stop offset=".137" stop-color="#cee3f8" class="stopColorced3f8 svgShape"></stop><stop offset=".559" stop-color="#cee3f8" class="stopColorced3f8 svgShape"></stop><stop offset=".69" stop-color="#f6f8fb" class="stopColorf6f6fb svgShape"></stop></linearGradient><linearGradient id="c" x1="1446.758" x2="1425.379" y1="869.191" y2="842.029" gradientUnits="userSpaceOnUse"><stop offset=".559" stop-color="#d1e2f3" class="stopColord1d7f3 svgShape"></stop><stop offset=".69" stop-color="#f1f3f6" class="stopColorf1f1f6 svgShape"></stop></linearGradient><linearGradient id="w" x1="1450.938" x2="1429.558" y1="866.775" y2="839.613" xlink:href="#c"></linearGradient><linearGradient id="x" x1="1455.125" x2="1433.744" y1="864.36" y2="837.196" xlink:href="#c"></linearGradient><linearGradient id="y" x1="784.161" x2="857.011" y1="1051.517" y2="1051.517" gradientUnits="userSpaceOnUse"><stop offset=".011" stop-color="#c4d6e9" class="stopColorc4cae9 svgShape"></stop><stop offset=".58" stop-color="#e3ebf4" class="stopColore3e6f4 svgShape"></stop><stop offset="1" stop-color="#f6f8fb" class="stopColorf6f6fb svgShape"></stop></linearGradient><linearGradient id="z" x1="263.244" x2="510.976" y1="927.166" y2="927.166" gradientUnits="userSpaceOnUse"><stop offset=".616" stop-color="#bbd0e6" class="stopColorbbc0e6 svgShape"></stop><stop offset=".651" stop-color="#b4c8dd" class="stopColorb4b9dd svgShape"></stop><stop offset=".736" stop-color="#a5b8cc" class="stopColora5abcc svgShape"></stop></linearGradient><linearGradient id="A" x1="577.438" x2="403.904" y1="824.681" y2="771.323" gradientTransform="matrix(-1 0 0 1 923.062 0)" xlink:href="#d"></linearGradient><linearGradient id="B" x1="383.723" x2="530.013" y1="904.927" y2="651.545" gradientTransform="matrix(-1 0 0 1 923.062 0)" gradientUnits="userSpaceOnUse"><stop offset=".396" stop-color="#193f6f" class="stopColor20196f svgShape"></stop><stop offset=".479" stop-color="#662e94" class="stopColor362e94 svgShape"></stop></linearGradient><linearGradient id="e" x1="1526.824" x2="1566.238" y1="1069.12" y2="1069.12" gradientTransform="matrix(-1 0 0 1 1922.93 0)" gradientUnits="userSpaceOnUse"><stop offset="0" stop-color="#5c55c2" class="stopColor5655c2 svgShape"></stop><stop offset=".655" stop-color="#6f3b9a" class="stopColor3e3b9a svgShape"></stop><stop offset="1" stop-color="#62318b" class="stopColor34318b svgShape"></stop></linearGradient><linearGradient id="f" x1="1541.56" x2="1694.044" y1="1018.009" y2="1018.009" gradientTransform="matrix(-1 0 0 1 1922.93 0)" gradientUnits="userSpaceOnUse"><stop offset=".287" stop-color="#62318b" class="stopColor34318b svgShape"></stop><stop offset="1" stop-color="#7841a6" class="stopColor4241a6 svgShape"></stop></linearGradient><linearGradient id="C" x1="1557.186" x2="1596.597" y1="1048.376" y2="1048.376" xlink:href="#e"></linearGradient><linearGradient id="D" x1="837.05" x2="1065.232" y1="1108.957" y2="1108.957" gradientTransform="translate(-581.915)" gradientUnits="userSpaceOnUse"><stop offset="0" stop-color="#d3e2f2" class="stopColord3d8f2 svgShape"></stop><stop offset=".32" stop-color="#e7eff8" class="stopColore7e9f8 svgShape"></stop><stop offset=".715" stop-color="#f9fbfd" class="stopColorf9f9fd svgShape"></stop><stop offset="1" stop-color="#ffffff" class="stopColorffffff svgShape"></stop></linearGradient><linearGradient id="E" x1="148.57" x2="361.689" y1="1101.22" y2="1101.22" gradientUnits="userSpaceOnUse"><stop offset=".436" stop-color="#cee3f8" class="stopColorced3f8 svgShape"></stop><stop offset=".498" stop-color="#bdd3e9" class="stopColorbdc3e9 svgShape"></stop><stop offset=".577" stop-color="#a3b9d0" class="stopColora3a9d0 svgShape"></stop></linearGradient><linearGradient id="F" x1="230.942" x2="361.689" y1="1021.132" y2="1021.132" gradientUnits="userSpaceOnUse"><stop offset="0" stop-color="#c0d2e5" class="stopColorc0c6e5 svgShape"></stop><stop offset=".494" stop-color="#dde7f1" class="stopColordde0f1 svgShape"></stop><stop offset="1" stop-color="#ffffff" class="stopColorffffff svgShape"></stop></linearGradient><linearGradient id="g" x1="300.787" x2="340.316" y1="900.674" y2="900.674" gradientUnits="userSpaceOnUse"><stop offset="0" stop-color="#c4d6e9" class="stopColorc4cae9 svgShape"></stop><stop offset="1" stop-color="#ffffff" class="stopColorffffff svgShape"></stop></linearGradient><linearGradient id="G" x1="218.301" x2="207.686" y1="917.369" y2="903.96" gradientTransform="translate(85.763)" gradientUnits="userSpaceOnUse"><stop offset="0" stop-color="#0b00aa" class="stopColor009aaa svgShape"></stop><stop offset=".741" stop-color="#0c00b9" class="stopColor00aeb9 svgShape"></stop><stop offset="1" stop-color="#0c00bf" class="stopColor00b6bf svgShape"></stop></linearGradient><linearGradient id="H" x1="1541.56" x2="1694.042" y1="1001.453" y2="1001.453" xlink:href="#f"></linearGradient><linearGradient id="I" x1="1624.937" x2="1694.393" y1="942.553" y2="942.553" gradientTransform="matrix(-1 0 0 1 1922.93 0)" gradientUnits="userSpaceOnUse"><stop offset="0" stop-color="#0c00bf" class="stopColor00b6bf svgShape"></stop><stop offset=".185" stop-color="#1206c2" class="stopColor06bac2 svgShape"></stop><stop offset=".428" stop-color="#2116ca" class="stopColor16c4ca svgShape"></stop><stop offset=".702" stop-color="#3b31d7" class="stopColor31d5d7 svgShape"></stop><stop offset=".999" stop-color="#57a1ec" class="stopColor57ecea svgShape"></stop><stop offset="1" stop-color="#57a1ec" class="stopColor57ecea svgShape"></stop></linearGradient><linearGradient id="J" x1="336.171" x2="389.25" y1="921.668" y2="921.668" xlink:href="#g"></linearGradient><linearGradient id="K" x1="644.224" x2="556.755" y1="908.717" y2="932.329" gradientTransform="matrix(-1 0 0 1 923.062 0)" gradientUnits="userSpaceOnUse"><stop offset="0" stop-color="#57a1ec" class="stopColor57ecea svgShape"></stop><stop offset=".353" stop-color="#3d33d8" class="stopColor33d6d8 svgShape"></stop><stop offset=".776" stop-color="#1a0ec6" class="stopColor0ebfc6 svgShape"></stop><stop offset="1" stop-color="#0c00bf" class="stopColor00b6bf svgShape"></stop></linearGradient><linearGradient id="h" x1="834.987" x2="1143.426" y1="655.709" y2="655.709" gradientUnits="userSpaceOnUse"><stop offset="0" stop-color="#c4d4e4" class="stopColorc4c9e4 svgShape"></stop><stop offset=".254" stop-color="#cedbe8" class="stopColorced2e8 svgShape"></stop><stop offset=".677" stop-color="#e7edf4" class="stopColore7e9f4 svgShape"></stop><stop offset="1" stop-color="#ffffff" class="stopColorffffff svgShape"></stop></linearGradient><linearGradient id="i" x1="172.925" x2="327.125" y1="1250.516" y2="983.433" gradientTransform="rotate(-120.001 454.81 705.743)" gradientUnits="userSpaceOnUse"><stop offset=".409" stop-color="#bbd0e6" class="stopColorbbc0e6 svgShape"></stop><stop offset=".413" stop-color="#bcd1e7" class="stopColorbcc1e7 svgShape"></stop><stop offset=".565" stop-color="#cee3f8" class="stopColorced3f8 svgShape"></stop></linearGradient><linearGradient id="L" x1="171.299" x2="325.499" y1="1249.577" y2="982.494" gradientTransform="rotate(-120.001 454.81 705.743)" gradientUnits="userSpaceOnUse"><stop offset=".409" stop-color="#5a52cc" class="stopColor5652cc svgShape"></stop><stop offset=".496" stop-color="#746ce9" class="stopColor706ce9 svgShape"></stop><stop offset=".565" stop-color="#857dfb" class="stopColor807dfb svgShape"></stop></linearGradient><linearGradient id="M" x1="525.718" x2="773.384" y1="561.322" y2="561.322" xlink:href="#h"></linearGradient><linearGradient id="N" x1="393.563" x2="547.763" y1="1020.782" y2="753.699" xlink:href="#i"></linearGradient><linearGradient id="O" x1="1009.196" x2="1091.711" y1="524.958" y2="524.958" gradientUnits="userSpaceOnUse"><stop offset=".427" stop-color="#c4d4e4" class="stopColorc4c9e4 svgShape"></stop><stop offset=".577" stop-color="#d7e2ed" class="stopColord7daed svgShape"></stop><stop offset=".846" stop-color="#f4f6f8" class="stopColorf4f5fa svgShape"></stop><stop offset="1" stop-color="#ffffff" class="stopColorffffff svgShape"></stop></linearGradient><linearGradient id="P" x1="991.007" x2="1073.563" y1="529.843" y2="529.843" gradientUnits="userSpaceOnUse"><stop offset="0" stop-color="#ff6ae4" class="stopColorff826a svgShape"></stop><stop offset=".413" stop-color="#f15ed6" class="stopColorf15e63 svgShape"></stop><stop offset=".778" stop-color="#e745ca" class="stopColore7455e svgShape"></stop><stop offset="1" stop-color="#e33cc5" class="stopColore33c5c svgShape"></stop></linearGradient><linearGradient id="j" x1="1200.385" x2="1312.063" y1="679.728" y2="679.728" gradientUnits="userSpaceOnUse"><stop offset="0" stop-color="#c6d6e7" class="stopColorc6cbe7 svgShape"></stop><stop offset=".258" stop-color="#cfddeb" class="stopColorcfd3eb svgShape"></stop><stop offset=".682" stop-color="#e8eef5" class="stopColore8eaf5 svgShape"></stop><stop offset="1" stop-color="#ffffff" class="stopColorffffff svgShape"></stop></linearGradient><linearGradient id="Q" x1="1094.876" x2="1206.553" y1="679.728" y2="679.728" xlink:href="#j"></linearGradient><linearGradient id="R" x1="1093.706" x2="1293.341" y1="697.673" y2="697.673" gradientUnits="userSpaceOnUse"><stop offset="0" stop-color="#867ff4" class="stopColor7f7ff4 svgShape"></stop><stop offset=".108" stop-color="#7b74e6" class="stopColor7574e6 svgShape"></stop><stop offset=".513" stop-color="#5650b7" class="stopColor5250b7 svgShape"></stop><stop offset=".823" stop-color="#6e399a" class="stopColor3c399a svgShape"></stop><stop offset="1" stop-color="#64318f" class="stopColor34318f svgShape"></stop></linearGradient><linearGradient id="k" x1="75.109" x2="94.333" y1="760.903" y2="727.607" gradientTransform="matrix(-1 0 0 1 1146.403 0)" gradientUnits="userSpaceOnUse"><stop offset="0" stop-color="#7a41aa" class="stopColor4141aa svgShape"></stop><stop offset=".212" stop-color="#5049b3" class="stopColor4949b3 svgShape"></stop><stop offset=".563" stop-color="#655ecc" class="stopColor5e5ecc svgShape"></stop><stop offset="1" stop-color="#867ff4" class="stopColor7f7ff4 svgShape"></stop></linearGradient><linearGradient id="S" x1="37.071" x2="56.297" y1="738.924" y2="705.622" gradientTransform="matrix(-1 0 0 1 1146.403 0)" xlink:href="#j"></linearGradient><linearGradient id="T" x1="123.642" x2="155.472" y1="785.898" y2="767.521" xlink:href="#k"></linearGradient><linearGradient id="U" x1="1108.377" x2="1178.486" y1="579.519" y2="579.519" gradientUnits="userSpaceOnUse"><stop offset="0" stop-color="#c4d4e4" class="stopColorc4c9e4 svgShape"></stop><stop offset=".188" stop-color="#d7e2ed" class="stopColord7daed svgShape"></stop><stop offset=".477" stop-color="#edf2f7" class="stopColoredeef7 svgShape"></stop><stop offset=".753" stop-color="#fafbfd" class="stopColorfafbfd svgShape"></stop><stop offset="1" stop-color="#ffffff" class="stopColorffffff svgShape"></stop></linearGradient></defs><g style="isolation:isolate" fill="#f4f6f8" class="color000000 svgShape"><g fill="#f4f6f8" class="color000000 svgShape"><g fill="#f4f6f8" class="color000000 svgShape"><path fill="#0e00dc" d="M358.725 493.439v-80.144l425.638-245.733.001 80.14-425.639 245.737z" class="color00d6dc svgShape"></path><path fill="#0c00bf" d="M622.692 294.646V307.3l-102.294 59.057.007-12.659 102.287-59.052zM352.935 409.952l-.003 80.142 5.793 3.345v-80.144l-5.79-3.343z" class="color00b6bf svgShape"></path><path fill="#57a1ec" d="M778.559 164.211 352.935 409.952l5.79 3.343 425.638-245.733-5.804-3.351z" class="color57ecea svgShape"></path><path fill="#e8eff7" d="m369.446 487.255.006-14.232-1.721.981.001 14.243 1.714-.992zM406.55 465.829l-.008-14.227-1.711.982.009 14.239 1.71-.994zM443.654 444.411l-.01-14.235-1.713.99.006 14.233 1.717-.988zM480.745 422.992l.005-14.23-1.717.979.007 14.24 1.705-.989zM517.854 401.575l-.002-14.25-1.709 1.001-.01 14.239 1.721-.99zM554.952 380.149l.001-14.235-1.718.979.008 14.251 1.709-.995zM592.049 358.73l.004-14.236-1.705.99-.005 14.246 1.706-1zM629.153 337.321l.003-14.246-1.712.982-.007 14.248 1.716-.984zM666.25 315.901l.007-14.252-1.717.995.001 14.238 1.709-.981zM703.358 294.468v-14.236l-1.713.992-.004 14.229 1.717-.985zM740.458 273.052l.001-14.242-1.713.99-.002 14.246 1.714-.994zM775.848 252.619l-.006-14.237 1.714-.988.008 14.234-1.716.991zM374.729 484.205l.004-7.124-1.722.981.005 7.132 1.713-.989zM380.047 481.134l.004-7.123-1.722.981.004 7.132 1.714-.99zM385.365 478.064l.003-7.123-1.721.981.004 7.132 1.714-.99zM390.683 474.994l.003-7.124-1.721.981.004 7.132 1.714-.989zM396.001 471.923l.003-7.123-1.721.981.004 7.132 1.714-.99zM401.318 468.853l.004-7.123-1.722.981.005 7.132 1.713-.99zM411.838 462.78l.003-7.123-1.721.981.004 7.132 1.714-.99zM417.155 459.71l.004-7.123-1.721.981.004 7.132 1.713-.99zM422.473 456.64l.003-7.123-1.721.981.004 7.131 1.714-.989zM427.791 453.57l.003-7.124-1.721.981.004 7.132 1.714-.989zM433.109 450.499l.003-7.123-1.721.981.004 7.132 1.714-.99zM438.427 447.429l.003-7.123-1.721.981.004 7.132 1.714-.99zM448.946 441.357l.003-7.124-1.721.981.004 7.132 1.714-.989zM454.264 438.286l.003-7.123-1.721.981.004 7.132 1.714-.99zM459.582 435.216l.003-7.124-1.721.982.004 7.131 1.714-.989zM464.899 432.146l.003-7.124-1.72.981.004 7.132 1.713-.989zM470.217 429.075l.003-7.123-1.721.981.004 7.132 1.714-.99zM475.535 426.005l.003-7.123-1.721.981.004 7.132 1.714-.99zM486.054 419.932l.003-7.123-1.721.981.004 7.132 1.714-.99zM491.372 416.862l.003-7.124-1.721.982.004 7.132 1.714-.99zM496.69 413.792l.003-7.124-1.721.981.004 7.132 1.714-.989zM502.008 410.722l.003-7.124-1.721.981.004 7.132 1.714-.989zM507.325 407.651l.004-7.123-1.722.981.005 7.132 1.713-.99zM512.643 404.581l.003-7.124-1.721.982.004 7.132 1.714-.99zM523.162 398.508l.004-7.123-1.722.981.004 7.132 1.714-.99zM528.48 395.438l.003-7.124-1.721.982.004 7.131 1.714-.989zM533.798 392.368l.003-7.124-1.721.981.004 7.132 1.714-.989zM539.116 389.297l.003-7.123-1.721.981.004 7.132 1.714-.99zM544.434 386.227l.003-7.123-1.721.981.004 7.132 1.714-.99zM549.751 383.157l.004-7.124-1.722.982.005 7.131 1.713-.989zM560.27 377.084l.004-7.123-1.721.981.004 7.132 1.713-.99zM565.588 374.014l.003-7.124-1.721.981.004 7.132 1.714-.989zM570.906 370.944l.003-7.124-1.721.981.004 7.132 1.714-.989zM576.224 367.873l.003-7.123-1.721.981.004 7.132 1.714-.99zM581.542 364.803l.003-7.123-1.721.981.004 7.132 1.714-.99zM586.86 361.733l.003-7.124-1.721.981.004 7.132 1.714-.989zM597.379 355.66l.003-7.124-1.721.981.004 7.132 1.714-.989zM602.697 352.59l.003-7.124-1.721.981.004 7.132 1.714-.989zM608.014 349.519l.004-7.123-1.722.981.005 7.132 1.713-.99zM613.332 346.449l.003-7.123-1.721.981.004 7.132 1.714-.99zM618.65 343.379l.003-7.123-1.721.981.004 7.131 1.714-.989zM623.968 340.309l.003-7.124-1.721.981.004 7.132 1.714-.989zM634.487 334.236l.003-7.124-1.721.982.004 7.131 1.714-.989zM639.805 331.165l.003-7.123-1.721.981.004 7.132 1.714-.99zM645.123 328.095l.003-7.123-1.721.981.004 7.132 1.714-.99zM650.44 325.025l.004-7.123-1.722.981.005 7.131 1.713-.989zM655.758 321.955l.003-7.124-1.721.982.004 7.131 1.714-.989zM661.076 318.885l.003-7.124-1.721.981.004 7.132 1.714-.989zM671.595 312.812l.003-7.124-1.721.981.004 7.132 1.714-.989zM676.913 309.741l.003-7.123-1.721.981.004 7.132 1.714-.99zM682.231 306.671l.003-7.123-1.721.981.004 7.132 1.714-.99zM687.549 303.601l.003-7.124-1.721.982.004 7.131 1.714-.989zM692.866 300.531l.004-7.124-1.722.981.005 7.132 1.713-.989zM698.184 297.461l.003-7.124-1.721.981.005 7.132 1.713-.989zM708.703 291.388l.003-7.124-1.721.981.005 7.132 1.713-.989zM714.021 288.317l.003-7.123-1.721.981.004 7.132 1.714-.99zM719.339 285.247l.003-7.123-1.721.981.004 7.132 1.714-.99zM724.657 282.177l.003-7.124-1.721.982.004 7.131 1.714-.989zM729.975 279.107l.003-7.124-1.721.981.004 7.132 1.714-.989zM735.293 276.036l.003-7.123-1.721.981.004 7.132 1.714-.99zM745.812 269.964l.003-7.124-1.721.981.004 7.132 1.714-.989zM751.13 266.893l.003-7.123-1.722.981.005 7.132 1.714-.99zM756.447 263.823l.003-7.124-1.721.982.004 7.131 1.714-.989zM761.765 260.753l.003-7.124-1.721.981.004 7.132 1.714-.989zM767.083 257.683l.003-7.124-1.721.981.004 7.132 1.714-.989zM772.401 254.612l.003-7.123-1.721.981.004 7.132 1.714-.99z" class="colore8ecf7 svgShape"></path><path fill="url(#d)" d="M1273.202 311.515c0-7.843-5.558-17.47-12.352-21.394l-186.375-107.604c-6.795-3.924-12.353-.714-12.353 7.13V351.88c0 7.846 5.558 17.474 12.353 21.397L1260.85 480.88c6.794 3.923 12.352.714 12.352-7.133Z"></path><path d="m1260.85 480.88-186.375-107.603c-6.795-3.923-12.353-13.551-12.353-21.397V202.197c16.69 9.637 9.485 52.779 22.181 60.111 8.921 5.148 10.98-18.156 24.02-10.627 13.726 7.925 19.216 73.103 34.658 82.017 12.351 7.133 14.067-13.301 26.362-6.2 16.47 9.51 16.187 54.222 32.314 63.532 16.816 9.707 29.853-53.655 45.67-44.523 8.89 5.13 19.185 38.03 25.875 56.043v71.197c0 7.847-5.558 11.056-12.352 7.133Z" style="mix-blend-mode:screen" fill="url(#l)"></path><path style="mix-blend-mode:screen" fill="#0e00dc" d="m1167.284 415.659 4.118 2.377v-89.354l-4.118-2.373v89.35z" class="color00d6dc svgShape"></path><path fill="#ffffff" d="M1175.122 330.832a12.776 12.776 0 0 0-5.78-10.01c-3.191-1.842-5.78-.35-5.78 3.337a12.775 12.775 0 0 0 5.78 10.01c3.192 1.842 5.78.35 5.78-3.337Z" class="colorffffff svgShape"></path><path fill="#7a41aa" d="m1230.482 293.516 23.161 13.373v-8.975l-23.161-13.372v8.974zM1232.659 306.396l20.984 12.116v-5.74l-20.984-12.116v5.74z" class="color4141aa svgShape"></path><path fill="url(#m)" d="M1273.202 473.747V311.515c0-7.843-5.558-17.47-12.352-21.394l-186.375-107.604c-3.357-1.939-6.41-2.13-8.643-.887l6.465-3.733.01.013c2.254-1.446 5.433-1.343 8.95.689L1267.634 286.2c6.797 3.924 12.355 13.552 12.355 21.398v162.232c0 4.105-1.531 6.926-3.955 8.136l-6.162 3.555c2.06-1.363 3.33-4.033 3.33-7.775Z"></path><path d="m1505.796 734.609-595.549-343.84c-10.552-6.093-27.662-6.093-38.215 0l-18.33 10.582-404.736 233.674c-10.553 6.093-10.553 15.972 0 22.064l595.549 343.84c10.553 6.093 27.663 6.093 38.215 0l404.737-233.674 18.33-10.583c10.552-6.092 10.552-15.97 0-22.063Z" style="mix-blend-mode:multiply" fill="url(#a)"></path><path fill="#f6f8fb" d="M426.49 622.104c-10.554 6.093-10.553 15.971 0 22.064l595.548 343.84c10.553 6.093 27.663 6.093 38.216 0l404.736-233.675L831.226 388.43Z" class="colorf6f6fb svgShape"></path><path fill="#0c00bf" d="m1483.32 721.687-595.55-343.84c-10.552-6.093-27.662-6.093-38.215 0l-18.33 10.582 633.765 365.904 18.33-10.582c10.553-6.093 10.553-15.971 0-22.064Z" class="color00b6bf svgShape"></path><path fill="#ffffff" d="M864.82 388.044c4.568-2.638 11.976-2.638 16.545 0s4.568 6.914 0 9.552-11.977 2.638-16.546 0c-4.568-2.638-4.568-6.914 0-9.552ZM894.486 405.171c4.568-2.637 11.976-2.637 16.545 0 4.569 2.638 4.569 6.915 0 9.553s-11.977 2.638-16.545 0-4.57-6.915 0-9.553Z" class="colorffffff svgShape"></path><ellipse cx="932.424" cy="427.075" fill="#ffffff" rx="11.699" ry="6.755" class="colorffffff svgShape"></ellipse><path fill="#0b00aa" d="m1410.733 698.498 41.663 24.054-8.192 4.729-41.663-24.054 8.192-4.729z" class="color009aaa svgShape"></path><path fill="#033c84" d="M1491.21 732.436c.129 4.087-2.49 8.196-7.89 11.315l-18.33 10.583v12.921l18.33-10.583c5.276-3.046 7.915-7.039 7.915-11.032v-13.204Z" class="color037284 svgShape"></path><path fill="url(#b)" d="M1060.254 988.008c-10.553 6.093-27.663 6.093-38.216 0L426.49 644.168c-5.277-3.047-7.915-7.04-7.915-11.032v13.18h.021c.111 3.906 2.73 7.793 7.894 10.773l595.548 343.84c10.553 6.093 27.663 6.093 38.216 0l404.736-233.674v-12.921Z"></path><g style="mix-blend-mode:multiply" fill="#f4f6f8" class="color000000 svgShape"><path fill="#e8eff7" d="M1393.684 762.23 1191.12 645.28l11.075-6.394 202.564 116.95-11.075 6.394zM1362.652 780.146l-202.563-116.95 11.074-6.394 202.564 116.95-11.075 6.394zM1331.62 798.063l-202.564-116.951 11.075-6.394 202.564 116.951-11.075 6.394zM1300.589 815.979l-202.564-116.95 11.075-6.394 202.563 116.95-11.074 6.394zM1269.557 833.895l-202.564-116.95 11.075-6.394 202.564 116.95-11.075 6.394zM1238.525 851.811l-202.564-116.95 11.075-6.394 202.564 116.95-11.075 6.394zM1207.493 869.728l-202.564-116.951 11.075-6.394 202.564 116.951-11.075 6.394zM1176.461 887.644 973.897 770.693l11.075-6.394 202.564 116.951-11.075 6.394zM1145.429 905.56 942.866 788.61l11.074-6.394 202.564 116.95-11.075 6.394zM1114.398 923.476l-202.564-116.95 11.075-6.394 202.563 116.95-11.074 6.394z" class="colore8ecf7 svgShape"></path></g><path d="m1452.66 654.828-595.548-343.84c-10.553-6.093-27.662-6.093-38.215 0l-18.33 10.582L395.83 555.245c-10.553 6.093-10.553 15.971 0 22.064l595.549 343.84c10.552 6.093 27.662 6.093 38.215 0l404.736-233.675 18.33-10.582c10.553-6.093 10.553-15.971 0-22.064Z" style="mix-blend-mode:multiply" fill="url(#n)"></path><path fill="#f6f8fb" d="M373.354 542.323c-10.553 6.093-10.553 15.971 0 22.064l595.549 343.84c10.553 6.093 27.663 6.093 38.216 0l404.736-233.674L778.09 308.649Z" class="colorf6f6fb svgShape"></path><path fill="#6f67e9" d="m1430.184 641.906-595.548-343.84c-10.553-6.092-27.663-6.092-38.216 0l-18.33 10.583 633.765 365.904 18.33-10.583c10.552-6.092 10.552-15.97 0-22.064Z" class="color6b67e9 svgShape"></path><path fill="#ffffff" d="M811.684 308.263c4.57-2.638 11.976-2.638 16.545 0 4.57 2.638 4.57 6.915 0 9.553s-11.976 2.637-16.545 0c-4.569-2.638-4.569-6.915 0-9.553ZM841.35 325.39c4.569-2.637 11.976-2.637 16.545 0s4.57 6.915 0 9.553-11.976 2.638-16.545 0c-4.569-2.638-4.569-6.914 0-9.552ZM871.016 342.518c4.569-2.637 11.976-2.637 16.545 0 4.57 2.638 4.57 6.915 0 9.553s-11.976 2.638-16.545 0-4.569-6.915 0-9.553Z" class="colorffffff svgShape"></path><path fill="#5046e4" d="m1357.598 618.717 41.663 24.054-8.192 4.73-41.663-24.054 8.192-4.73z" class="color5652cc svgShape"></path><path fill="#e8eff7" d="m848.621 572.462-230.726-133.21 160.195-92.489 230.727 133.21-160.196 92.489z" class="colore8ecf7 svgShape"></path><path fill="#c4d6e9" d="m833.454 467.742-14.081-8.129 14.082-8.13-6.017-3.473-14.081 8.129-14.083-8.13-6.016 3.474 14.082 8.13-14.081 8.13 6.017 3.474 14.081-8.13 14.08 8.129 6.017-3.474z" class="colorc4cae9 svgShape"></path><path fill="#6822a2" d="M1438.075 652.655c.128 4.087-2.49 8.197-7.89 11.315l-18.33 10.583v12.921l18.33-10.582c5.276-3.047 7.914-7.04 7.914-11.032v-13.205Z" class="color423eaf svgShape"></path><path fill="url(#o)" d="M1007.119 908.227c-10.553 6.093-27.663 6.093-38.216 0l-595.549-343.84c-5.276-3.046-7.915-7.039-7.915-11.032v13.18h.022c.111 3.906 2.73 7.793 7.893 10.774l595.55 343.84c10.552 6.093 27.662 6.093 38.215 0l404.736-233.675v-12.921Z"></path><path fill="#a4d1ff" d="m409.13 340.734-14.714 17.426c-1.884 2.232-4.086 1.656-3.726-.974l2.81-20.54a2.058 2.058 0 0 0-.739-2.198l-11.902-6.526c-1.525-.835-.684-4.31 1.423-5.88l16.45-12.256a5.904 5.904 0 0 0 1.933-2.739l7.356-21.459c.942-2.748 3.664-4.32 4.606-2.659l7.357 12.964a1.425 1.425 0 0 0 1.933.506l16.45-6.737c2.106-.863 2.947 1.64 1.423 4.236l-11.903 20.27a4.852 4.852 0 0 0-.738 3.051l2.81 17.295c.36 2.215-1.843 5.333-3.727 5.277l-14.713-.437a3.33 3.33 0 0 0-2.39 1.38ZM481.443 298.984l-14.712 17.426c-1.884 2.231-4.086 1.655-3.727-.975l2.81-20.54a2.059 2.059 0 0 0-.738-2.198l-11.903-6.525c-1.524-.836-.683-4.31 1.423-5.88l16.45-12.257a5.903 5.903 0 0 0 1.933-2.739l7.357-21.458c.942-2.748 3.663-4.32 4.605-2.66l7.357 12.965a1.425 1.425 0 0 0 1.934.505l16.45-6.737c2.105-.862 2.947 1.641 1.422 4.237l-11.903 20.27a4.854 4.854 0 0 0-.738 3.05l2.81 17.295c.36 2.215-1.842 5.334-3.727 5.278l-14.712-.437a3.33 3.33 0 0 0-2.39 1.38ZM553.758 257.233l-14.713 17.426c-1.884 2.232-4.086 1.656-3.726-.975l2.81-20.54a2.059 2.059 0 0 0-.739-2.198l-11.903-6.525c-1.524-.835-.683-4.31 1.423-5.88l16.45-12.257a5.902 5.902 0 0 0 1.933-2.738l7.357-21.46c.942-2.747 3.664-4.318 4.606-2.658l7.356 12.964a1.425 1.425 0 0 0 1.934.506l16.45-6.737c2.106-.863 2.947 1.64 1.423 4.236l-11.903 20.27a4.854 4.854 0 0 0-.739 3.05l2.81 17.296c.36 2.215-1.842 5.333-3.726 5.277l-14.713-.437a3.33 3.33 0 0 0-2.39 1.38ZM626.072 215.482l-14.713 17.426c-1.884 2.232-4.086 1.656-3.726-.974l2.81-20.54a2.059 2.059 0 0 0-.739-2.198l-11.903-6.525c-1.524-.836-.683-4.31 1.423-5.88l16.45-12.257a5.902 5.902 0 0 0 1.934-2.739l7.356-21.459c.942-2.748 3.664-4.32 4.606-2.659l7.356 12.964a1.425 1.425 0 0 0 1.934.506l16.45-6.737c2.106-.863 2.947 1.64 1.423 4.236l-11.903 20.27a4.854 4.854 0 0 0-.739 3.051l2.81 17.295c.36 2.215-1.842 5.334-3.726 5.278l-14.713-.438a3.33 3.33 0 0 0-2.39 1.38ZM698.386 173.732l-14.713 17.426c-1.884 2.231-4.086 1.655-3.726-.975l2.81-20.54a2.06 2.06 0 0 0-.739-2.198l-11.903-6.525c-1.524-.836-.683-4.31 1.424-5.88l16.45-12.257a5.902 5.902 0 0 0 1.933-2.739l7.356-21.458c.942-2.748 3.664-4.32 4.606-2.66l7.357 12.965a1.425 1.425 0 0 0 1.933.506l16.45-6.738c2.106-.862 2.947 1.641 1.423 4.237l-11.903 20.27a4.854 4.854 0 0 0-.739 3.05l2.81 17.296c.36 2.214-1.842 5.333-3.726 5.277l-14.713-.437a3.33 3.33 0 0 0-2.39 1.38Z" class="colorffaaa4 svgShape"></path><path d="M1011.263 876.122c-8.821 5.093-23.254 5.09-32.076-.002L703.241 716.804c-8.816-5.095-8.818-13.426.003-18.519l12.564-7.253c8.824-5.095 23.255-5.095 32.074-.002l275.946 159.316c8.823 5.092 8.827 13.425.008 18.517Z" style="mix-blend-mode:multiply" fill="url(#p)"></path><path fill="#ffffff" d="M996.251 867.514c-8.82 5.093-23.253 5.09-32.075-.002L688.23 708.196c-8.817-5.095-8.819-13.425.003-18.518l12.563-7.254c8.825-5.095 23.255-5.094 32.075-.001l275.946 159.316c8.822 5.091 8.826 13.425.007 18.516Z" class="colorffffff svgShape"></path><path fill="url(#q)" d="m681.628 707.185.017.002c-.16 3.477 2.017 6.98 6.588 9.616L964.178 876.12c8.82 5.093 23.253 5.092 32.075-.002l12.564-7.253c4.62-2.668 6.793-6.22 6.575-9.724l.004-7.679c-.194 3.2-2.367 6.365-6.571 8.793l-12.573 7.259c-8.822 5.093-23.254 5.09-32.076-.002L688.23 708.196c-4.355-2.517-6.553-5.823-6.604-9.138Z"></path><path fill="#857dfb" d="m725.688 709.22 7.803-8.91-3.352-1.936-15.434 4.505 7.804-8.91-3.353-1.936-10.057 11.948 3.699 2.135 14.162-3.97-6.879 8.175 3.7 2.136 20.693-5.807-3.353-1.935Zm26.358 15.217 7.803-8.91-3.353-1.936-15.433 4.506 7.803-8.91-3.352-1.936-10.058 11.947 3.7 2.136 14.161-3.971-6.878 8.176 3.7 2.136 20.692-5.807-3.352-1.936Zm26.357 15.218 7.804-8.91-3.352-1.936-15.434 4.505 7.804-8.91-3.353-1.936-10.057 11.948 3.698 2.136 14.161-3.972-6.877 8.177 3.699 2.135 20.693-5.806-3.352-1.936Zm12.124 7.35a1.511 1.511 0 0 0-.91-1.243 4.678 4.678 0 0 0-4.277 0 1.51 1.51 0 0 0-.911 1.244 1.438 1.438 0 0 0 .881 1.242 4.8 4.8 0 0 0 4.335 0 1.438 1.438 0 0 0 .882-1.243Z" class="color807dfb svgShape"></path><path d="M1494.712 826.623a13.516 13.516 0 0 0-7.04 1.775c-1.13.657-4.705 2.711-7.933 4.572l-1.477-.857a2.432 2.432 0 0 0-2.353.012c-.188.091-27.865 16.078-27.865 16.078a2.799 2.799 0 0 0-.937.767l-1.313 1.872-290.495 177.522-16.566 25.666 43.319-13.568 277.128-160.003a2.457 2.457 0 0 0 2.365-.025c.14-.067 27.872-16.085 27.872-16.085a2.924 2.924 0 0 0 .9-.747l2-2.851 10.382-5.994a15.375 15.375 0 0 0 7.21-12.949 15.189 15.189 0 0 0-15.197-15.185Z" style="mix-blend-mode:multiply" fill="url(#r)"></path><path fill="url(#s)" d="M1470.195 821.359a13.617 13.617 0 0 0-7.04 1.769c-1.38.796-6.346 3.666-9.926 5.732a12.98 12.98 0 0 1 2.74 1.192c6.78 3.921 12.268 13.429 12.268 21.252a11.791 11.791 0 0 1-.802 4.39l10.741-6.201a15.346 15.346 0 0 0 7.21-12.949 15.191 15.191 0 0 0-15.191-15.185Z"></path><path fill="url(#t)" d="M1127.524 1029.617a8.782 8.782 0 0 1 3.97 6.881c0 1.532-.67 2.505-1.666 2.748l27.696-4.049 5.926-8.425-5.926-15.258-11.83-6.833-21.289 24.923a2.57 2.57 0 0 1 3.12.013Z"></path><path fill="url(#u)" d="M1127.524 1029.617a2.57 2.57 0 0 0-3.119-.013l-.328.378-9.86 11.55 15.325-2.25.286-.036c.997-.243 1.666-1.216 1.666-2.748a8.782 8.782 0 0 0-3.97-6.881Z"></path><path fill="#cee3f8" d="M1424.998 869.62a7.278 7.278 0 0 1-2.693-3.131l-4.803-12.383a4.555 4.555 0 0 1 .475-3.824l4.613-6.577a2.457 2.457 0 0 1 3.156-.705l9.653 5.568a7.242 7.242 0 0 1 2.68 3.143l4.804 12.377a4.56 4.56 0 0 1-.469 3.836l-4.608 6.571a2.456 2.456 0 0 1-3.155.7Z" class="colorced3f8 svgShape"></path><path fill="#ff5ae1" d="m1442.037 865.93-278.587 160.842-5.926-15.258 278.593-160.836 5.92 15.252z" class="colorff5a72 svgShape"></path><path fill="#a50b89" d="m1436.117 874.355-278.593 160.842 5.926-8.425 278.587-160.842-5.92 8.425z" class="colore33c5c svgShape"></path><path fill="#a4d1ff" d="m1436.117 850.678-278.593 160.836-11.83-6.833 278.586-160.842 11.837 6.839z" class="colorffaaa4 svgShape"></path><path fill="url(#v)" d="m1470.876 847.924-4.797-12.37a7.264 7.264 0 0 0-2.692-3.144l-9.642-5.568a2.45 2.45 0 0 0-2.352.024c-.189.086-27.866 16.073-27.866 16.073a2.559 2.559 0 0 1 2.219.061l9.653 5.568a7.242 7.242 0 0 1 2.68 3.143l4.804 12.377a4.56 4.56 0 0 1-.469 3.836l-4.608 6.571a2.53 2.53 0 0 1-.638.608l27.738-16.012a2.781 2.781 0 0 0 .887-.76l4.62-6.565a4.618 4.618 0 0 0 .463-3.842Z"></path><path d="M1441.216 872.763a2.24 2.24 0 0 0 .633-.608l4.614-6.566a4.56 4.56 0 0 0 .462-3.835l-4.796-12.371a7.185 7.185 0 0 0-2.687-3.143l-9.648-5.562a2.38 2.38 0 0 0-2.188-.049c-.043-.024-2.018 1.119-2.018 1.119a2.538 2.538 0 0 1 2.219.072l9.653 5.563a7.297 7.297 0 0 1 2.686 3.143l4.797 12.377a4.587 4.587 0 0 1-.462 3.83l-4.62 6.576a2.41 2.41 0 0 1-.632.609Z" style="mix-blend-mode:multiply" fill="url(#c)"></path><path d="M1445.393 870.343a2.176 2.176 0 0 0 .644-.608l4.602-6.565a4.525 4.525 0 0 0 .468-3.83l-4.796-12.383a7.323 7.323 0 0 0-2.687-3.137l-9.648-5.562a2.408 2.408 0 0 0-2.194-.048c-.03-.024-2.018 1.124-2.018 1.124a2.537 2.537 0 0 1 2.219.068l9.653 5.567a7.29 7.29 0 0 1 2.693 3.137l4.803 12.377a4.58 4.58 0 0 1-.475 3.842l-4.614 6.566a2.178 2.178 0 0 1-.638.607Z" style="mix-blend-mode:multiply" fill="url(#w)"></path><path d="M1449.575 867.936a2.246 2.246 0 0 0 .638-.608l4.62-6.565a4.623 4.623 0 0 0 .468-3.842l-4.802-12.377a7.367 7.367 0 0 0-2.693-3.137l-9.647-5.568a2.397 2.397 0 0 0-2.189-.049c-.03-.018-2.024 1.13-2.024 1.13a2.563 2.563 0 0 1 2.23.068l9.642 5.574a7.191 7.191 0 0 1 2.693 3.125l4.803 12.389a4.571 4.571 0 0 1-.468 3.83l-4.614 6.571a2.314 2.314 0 0 1-.639.602Z" style="mix-blend-mode:multiply" fill="url(#x)"></path><path style="mix-blend-mode:multiply" fill="url(#y)" d="m857.011 1034.58-6.512-3.758h-7.669l6.512 3.758-6.512 3.76-58.669 33.873h7.667l58.671-33.873 6.512-3.759v-.001z"></path><path fill="#ff6ae4" d="M784.161 1067.784 655.89 993.727l65.183-37.631 128.269 74.057-65.181 37.631z" class="colorff826a svgShape"></path><path fill="#a4d1ff" d="m721.073 956.096-6.511 3.758 28.236 57.753 100.032 16.305 6.512-3.759-128.269-74.057z" class="colorffaaa4 svgShape"></path><path fill="#ff5ae1" d="M784.161 1072.213 655.89 998.156v-4.429l128.271 74.057v4.429z" class="colorff5a72 svgShape"></path><path fill="#a50b89" d="M784.161 1072.213v-4.429l58.669-33.872v4.426l-58.669 33.875z" class="colore33c5c svgShape"></path><path fill="#ff5ae1" d="M842.83 1038.338v-4.426l6.512-3.759v4.427l-6.512 3.758z" class="colorff5a72 svgShape"></path><path fill="#f7f9fc" d="M506.855 930.477c5.495-3.173 5.495-8.365 0-11.537l-150.74-87.03c-5.495-3.173-14.487-3.173-19.982 0l-68.768 39.703c-5.495 3.173-5.495 8.364 0 11.537l150.74 87.03c5.495 3.172 14.487 3.172 19.982 0Z" class="colorf7f7fc svgShape"></path><path fill="#d0e3f6" d="M292.646 878.19c-.002.033-.007.064-.007.098a.48.48 0 0 1 .007-.099ZM352.265 856.458l-6.447-3.72 6.447-3.723 6.447 3.723-6.447 3.72zM363.121 862.731l-6.448-3.724 6.448-3.723 6.447 3.723-6.447 3.724zM373.98 868.998l-6.447-3.722 6.447-3.723 6.448 3.723-6.448 3.722zM384.838 875.267l-6.447-3.72 6.447-3.725 6.446 3.725-6.446 3.72zM395.696 881.536l-6.447-3.722 6.447-3.722 6.446 3.722-6.446 3.722zM406.554 887.805l-6.447-3.722 6.447-3.721 6.446 3.721-6.446 3.722zM417.412 894.076l-6.447-3.723 6.447-3.724 6.446 3.724-6.446 3.723zM428.27 900.343l-6.447-3.722 6.447-3.721 6.446 3.721-6.446 3.722zM439.128 906.612l-6.447-3.722 6.447-3.723 6.446 3.723-6.446 3.722zM449.986 912.879l-6.447-3.72 6.447-3.723 6.446 3.723-6.446 3.72zM460.843 919.15l-6.446-3.722 6.446-3.723 6.447 3.723-6.447 3.722zM471.703 925.42l-6.448-3.724 6.448-3.722 6.445 3.722-6.445 3.724zM346.551 865.697l-11.592-6.69 6.446-3.723 11.593 6.693-6.447 3.72zM340.553 874.255l-16-9.24 6.447-3.723 16 9.24-6.447 3.723zM334.108 883.07l-20.413-11.784 6.447-3.726 20.411 11.788-6.445 3.722zM312.145 885.563l-11.589-6.691 8.728-5.041 11.591 6.694-8.73 5.038zM328.147 894.802l-11.589-6.693 8.726-5.039 11.591 6.692-8.728 5.04zM344.149 904.039l-11.591-6.691 8.728-5.04L352.877 899l-8.728 5.039zM399.322 935.894l-11.59-6.692 8.728-5.04 11.59 6.693-8.728 5.039zM426.439 951.549l-22.734-13.123 8.729-5.041 22.733 13.126-8.728 5.038zM383.347 926.67l-34.787-20.083 8.73-5.041 34.787 20.086-8.73 5.038zM360.446 873.723l-9.485-5.477 6.446-3.723 9.487 5.478-6.448 3.722zM354.45 882.278l-9.485-5.477 6.448-3.722 9.485 5.477-6.448 3.722zM348.3 890.922l-9.485-5.478 6.448-3.722 9.484 5.477-6.447 3.723zM362.198 898.945l-9.487-5.477 6.447-3.721 9.487 5.476-6.447 3.722zM376.093 906.967l-9.485-5.475 6.446-3.723 9.485 5.478-6.446 3.72zM389.989 914.991l-9.485-5.477 6.448-3.721 9.485 5.476-6.448 3.722zM403.885 923.013l-9.485-5.475 6.448-3.722 9.484 5.475-6.447 3.722zM417.782 931.037l-9.485-5.477 6.448-3.722 9.485 5.477-6.448 3.722zM439.877 943.792l-17.684-10.208 6.447-3.722 17.682 10.208-6.445 3.722zM368.346 890.302l-9.485-5.477 6.448-3.722 9.485 5.475-6.448 3.724zM382.244 898.324l-9.487-5.477 6.447-3.722 9.485 5.477-6.445 3.722zM396.139 906.347l-9.484-5.476 6.447-3.724 9.485 5.477-6.448 3.723zM410.035 914.369l-9.485-5.474 6.448-3.724 9.484 5.477-6.447 3.721zM423.933 922.393l-9.485-5.476 6.447-3.723 9.485 5.478-6.447 3.721zM450.436 937.694l-22.092-12.755 6.445-3.722 22.094 12.756-6.447 3.721zM374.344 881.747l-9.487-5.479 6.448-3.72 9.484 5.475-6.445 3.724zM388.238 889.769l-9.485-5.477 6.447-3.721 9.485 5.476-6.447 3.722zM402.135 897.792l-9.485-5.476 6.447-3.723 9.485 5.476-6.447 3.723zM416.031 905.816l-9.485-5.478 6.447-3.721 9.485 5.476-6.447 3.723zM429.928 913.837l-9.486-5.475 6.447-3.722 9.485 5.475-6.446 3.722zM443.824 921.861l-9.485-5.475 6.446-3.724 9.486 5.477-6.447 3.722zM460.844 931.687l-12.609-7.279 6.447-3.722 12.608 7.279-6.446 3.722z" class="colord0d4f6 svgShape"></path><path fill="url(#z)" d="m267.365 883.15 150.74 87.03c5.495 3.172 14.487 3.172 19.982 0l68.768-39.704c2.746-1.585 4.12-3.674 4.121-5.764v4.361h-.002c.012 2.1-1.36 4.202-4.12 5.795l-68.767 39.703c-5.495 3.172-14.487 3.173-19.982 0l-150.74-87.03c-2.8-1.616-4.165-3.758-4.111-5.889l-.01-.002v-4.269c0 2.092 1.374 4.183 4.121 5.769Z"></path><path fill="url(#A)" d="M516.846 781.957c0-6.345-4.496-14.132-9.991-17.305l-150.74-87.03c-5.496-3.173-9.992-.577-9.992 5.768v131.214c0 6.345 4.496 14.133 9.991 17.305l150.74 87.03c5.496 3.173 9.992.578 9.992-5.768Z"></path><path fill="url(#B)" d="M516.846 913.171V781.957c0-6.345-4.496-14.132-9.991-17.305l-150.74-87.03c-2.716-1.568-5.185-1.722-6.99-.716l5.229-3.02.007.01c1.824-1.17 4.395-1.085 7.24.558l150.741 87.03c5.495 3.173 9.991 10.96 9.991 17.305v131.214c0 3.32-1.238 5.601-3.2 6.579l-4.98 2.876c1.664-1.102 2.693-3.262 2.693-6.287Z"></path><path fill="url(#e)" d="M356.692 1076.659c0-15.439 9.785-15.884 9.785-15.884s5.297 0 13.904-3.571c8.491-3.53 20.46-2.165 13.772 10.173a3.167 3.167 0 0 1-.23.455 6.007 6.007 0 0 1-2.169 1.904l-21.378 12.54c-3.258 1.862-13.608-2.44-13.684-5.617Z"></path><path fill="#1c3f6b" d="M356.75 1075.276v-.009c.184 3.18 10.394 7.397 13.626 5.551l21.378-12.538a19.607 19.607 0 0 0 3.015-2.197c-.199.426-.369.833-.616 1.294a3.167 3.167 0 0 1-.23.455 6.007 6.007 0 0 1-2.169 1.904l-21.378 12.54c-3.049 1.743-12.325-1.918-13.548-5.004a3.346 3.346 0 0 1-.096-.626 10.065 10.065 0 0 1 .017-1.37Z" class="color1e1c6b svgShape"></path><path fill="#a7d0fa" d="M360.67 1058.746c2.517 0 11.388 2.253 11.388 2.253a4.995 4.995 0 0 0 .79 2.297c.09.098.166.198.247.3 0-.004.005-.004.007-.004 1.745 1.221 3.524 3.146-.627 5.752a5.76 5.76 0 0 1-7.475-.531 6.824 6.824 0 0 0-2.41-2.738 6.224 6.224 0 0 0-2.312-.976 1.24 1.24 0 0 0-.024-.211s.323-3.75.416-6.142Z" class="colorfacfa7 svgShape"></path><path fill="url(#f)" d="M357.576 999.831c-1.226 16.312 2.678 61.798 2.678 61.798h.017c.1.798.974 1.581 2.03 2.189a9.299 9.299 0 0 0 8.422.002 3.276 3.276 0 0 0 1.654-1.894h.01s11.868-70.431 8.32-88.448h-.002a4.73 4.73 0 0 0-.484-2.286c0 8.122-14.682 20.675-22.645 28.639Z"></path><path fill="url(#C)" d="M326.333 1055.914c0-15.44 9.783-15.879 9.783-15.879s5.297 0 13.906-3.578c8.49-3.526 20.459-2.165 13.767 10.175a2.658 2.658 0 0 1-.225.454 6.022 6.022 0 0 1-2.167 1.907l-21.38 12.54c-3.258 1.86-13.612-2.441-13.684-5.619Z"></path><path fill="#1c3f6b" d="M326.386 1054.532v-.009c.19 3.181 10.398 7.399 13.631 5.553l21.38-12.543a19.451 19.451 0 0 0 3.01-2.194c-.2.428-.366.835-.618 1.293a2.658 2.658 0 0 1-.225.454 6.022 6.022 0 0 1-2.167 1.907l-21.38 12.54c-3.052 1.744-12.325-1.921-13.55-5.003a3.372 3.372 0 0 1-.096-.626 11.378 11.378 0 0 1 .015-1.372Z" class="color1e1c6b svgShape"></path><path fill="#a7d0fa" d="M330.311 1038.004c2.515 0 11.387 2.252 11.387 2.252a4.916 4.916 0 0 0 .791 2.293c.092.1.164.2.245.303l.006-.004c1.748 1.223 3.527 3.147-.624 5.75-3.4 2.136-6.167.781-7.475-.53a6.832 6.832 0 0 0-2.412-2.734 6.336 6.336 0 0 0-2.31-.98 1.278 1.278 0 0 0-.028-.21s-.642-6.14.42-6.14Z" class="colorfacfa7 svgShape"></path><path fill="#193f6f" d="M351.145 962.588c-1.918 6.572-16.653 14.863-19.2 16.48-1.577 18.536-2.054 61.817-2.054 61.817h.021c.098.797.972 1.581 2.029 2.19a9.314 9.314 0 0 0 8.424.003 3.275 3.275 0 0 0 1.651-1.897h.013s9.61-60.87 9.116-78.593Z" class="color20196f svgShape"></path><path style="mix-blend-mode:multiply" fill="url(#D)" d="M370.336 1043.72H255.135l99.186 65.232-99.186 65.242h115.201l112.98-65.242-112.98-65.232z"></path><path fill="url(#E)" d="M361.69 1028.245H148.57v84.422c0 2.291 1.515 4.583 4.543 6.332l91.053 52.572c6.058 3.497 15.88 3.497 21.937 0l91.043-52.564c3.033-1.75 4.546-4.046 4.543-6.34Z"></path><path fill="#f6f8fb" d="m266.103 1087.142 91.043-52.564c6.058-3.497 6.058-9.168 0-12.665l-91.044-52.564c-6.057-3.498-15.878-3.498-21.936-.001l-91.051 52.556c-6.059 3.498-6.06 9.168-.002 12.666l91.053 52.572c6.058 3.497 15.88 3.497 21.937 0Z" class="colorf6f6fb svgShape"></path><path d="m357.146 1021.913-16.684-9.632c-26.438 14.716-49.073 16.29-61.852 15.964-23.432-.6-39.662-10.94-46.583-23.986-6.11 14.883 14.182 33.745 46.104 33.745 16.514 0 49.287-.012 73.102-.012l5.913-3.414c6.058-3.497 6.058-9.167 0-12.665Z" style="mix-blend-mode:multiply" fill="url(#F)"></path><path d="M311.144 912.817c2.304-1.683 4.656-3.478 7.218-5.454a4.91 4.91 0 0 0 .235-1.482 5.055 5.055 0 0 1 1.606-.485 13.321 13.321 0 0 0 4.76-.396v.001c4.22-1.078 9.199-4.447 10.63-5.63-2.102-1.9-4.43.205-6.008 1.047a7.988 7.988 0 0 1 1.147-1.52c2.56-2.57 3.148-3.473 6.013-3.473 2.866 0 5.054-2.284 2.318-4.002a40.904 40.904 0 0 0-4.426-2.247c-2.865-1.364-7.433-.272-8.7.61-1.269.88-9.142 5.715-10.64 8.835l-1.762.911a5.297 5.297 0 0 0-2.21-.378c-4.049 1.765-7.513 3.326-10.538 4.646.258 3.79 10.357 9.017 10.357 9.017Z" style="mix-blend-mode:multiply" fill="url(#g)"></path><path fill="#a9d2fc" d="M338.65 888.451a41.039 41.039 0 0 0-4.427-2.247c-2.865-1.364-7.433-.272-8.7.61-1.269.88-9.142 5.715-10.64 8.835 0 0-2.954 1.529-4.105 2.12l4.325 6.613s3.795-2.014 4.687-1.958a13.315 13.315 0 0 0 4.76-.396v.001c4.22-1.078 9.198-4.447 10.63-5.63-2.103-1.9-4.431.205-6.009 1.047a8.019 8.019 0 0 1 1.148-1.52c2.56-2.571 3.147-3.473 6.012-3.473 2.867 0 5.054-2.284 2.318-4.002Z" class="colorfcd1a9 svgShape"></path><path fill="url(#G)" d="M317.949 904.39c1.518-4.525-3.86-8.508-7.037-8.208-14.855 6.475-22.06 10.328-27.138 8.827-21.362-9.984-13.063 12.734-.406 13.843 14.812 1.299 22.735-5.323 34.58-14.461Z"></path><path fill="#193f6f" d="M351.145 962.588c-.482-17.28-82.418 7.888-91.692 9.731-3.883 16.849-8.525 28.607-12.493 42.955 15.356 5.12 59.544-16.47 84.985-36.206 2.547-1.617 17.282-9.908 19.2-16.48Z" class="color20196f svgShape"></path><path fill="url(#H)" d="M289.183 993.631c-9.047-14.484-32.793-30.754-60.297-17.13 0 6.654 1 22.012 3.14 27.758 5.92 15.881 18.91 30.162 46.193 30.86 14.46.37 53.428-12.88 79.357-35.288 7.963-7.964 22.645-20.517 22.645-28.64-7.302-14.246-81.762 20.596-91.038 22.44Z"></path><path fill="url(#I)" d="M251.765 1008.685c22.857 12.826 52.013 7.59 41.25-18.322-5.835-12.442-8.17-34.143-7.715-47.115 2.133-4.847 8.949-6.4 12.19-19.198.738-9.922.857-13.784-.997-33.284-8.225-9.728-12.066-14.199-21.304-17.835-5.564-2.19-12.788-5.01-18.094-1.737-22.99 14.182-30.334 57.062-28.21 105.308 2.415 15.787 11.625 25.871 22.88 32.183Z"></path><path fill="#a7d0fa" d="M262.137 873.253c3.76-3.807 5.074-12.304 5.484-19.04a32.945 32.945 0 0 1 .428-11.677c3.125-14.52 14.87-24.301 26.238-21.853 11.362 2.447 18.044 16.196 14.92 30.711a29.1 29.1 0 0 1-24.436 22.645c-1.093 2.1 1.637 5.542 3.147 7.197-8.526 2.59-17.086-2.416-21.403-4.57-2.233-1.113-3.825-2.206-4.378-3.413Z" class="colorfacfa7 svgShape"></path><path d="M387.996 909.557a40.918 40.918 0 0 0-4.426-2.246c-2.865-1.364-7.433-.272-8.7.61-1.268.88-4.133 2.642-6.333 4.402 1.831-1.849 4.073-3.451 2.77-5.427-6.339 1.865-8.685 9.302-8.717 9.97 0 0-.99.518-1.974 1.029a4.692 4.692 0 0 0-1.475-.144c-8.99 3.918-16.95 7.568-22.97 9.515l16.288 9.404c4.717-3.407 9.256-7.268 13.718-10.71a4.811 4.811 0 0 0 .189-1.187c8.476.541 10.74-5.17 13.3-7.741 2.56-2.57 3.147-3.473 6.013-3.473s5.053-2.284 2.317-4.002Z" style="mix-blend-mode:multiply" fill="url(#J)"></path><path fill="#a9d2fc" d="M359.147 915.47c1.151-.593 3.03-1.575 3.03-1.575.03-.669 2.377-8.106 8.715-9.971 1.304 1.976-.938 3.578-2.769 5.427 2.2-1.76 5.065-3.522 6.332-4.403 1.268-.881 5.837-1.973 8.701-.61a40.91 40.91 0 0 1 4.426 2.247c2.737 1.718.549 4.002-2.317 4.002s-3.453.903-6.013 3.473-4.823 8.282-13.301 7.741a3.548 3.548 0 0 0-1.915.716Z" class="colorfcd1a9 svgShape"></path><path fill="url(#K)" d="M365.764 922.988c1.518-4.526-3.86-8.51-7.037-8.21-14.855 6.476-26.933 12.247-32.01 10.748-21.363-9.985-27.411-28.968-32.712-33.873-11.92-8.483-26.27 10.287-10.637 27.2 16.495 15.448 30.692 22.96 43.349 24.07 14.812 1.298 27.2-10.797 39.047-19.935Z"></path><path fill="#1c3f6b" d="M242.818 882.974c-.71-7.625 5.63-10.401 11.976-16.143 10.008-9.055 5.22-7.568 9.947-24.515 4.73-16.948 18.606-29.273 36.474-23.174 9.054 3.09 20.417 17.187 7.264 22.915-20.848 9.078-2.25 18.566-7.424 27.646-2.34 4.105-4.94 2.284-6.606 7.658-1.633 5.267 12.39 14.772 1.087 21.777-11.302 7.005-8.118 20.176-24.98 16.623-16.861-3.551-17.494-9.258-13.351-13.119 4.142-3.86-8.653-5.595-3.947-10.885s-9.816-2.08-10.44-8.783Z" class="color1e1c6b svgShape"></path><path d="M397.92 750.846c0-19.443 13.65-27.324 30.488-17.602 16.838 9.722 30.489 33.365 30.489 52.808 0 19.443-13.65 27.324-30.489 17.602-16.839-9.721-30.489-33.364-30.489-52.808Z" style="mix-blend-mode:multiply" fill="#a5b8cc" class="colora5abcc svgShape"></path><path d="M411.499 761.105v-4.843a4.973 4.973 0 0 0 1.922.665 1.372 1.372 0 0 0 1.118-.575 3.674 3.674 0 0 0 .647-1.775 25.2 25.2 0 0 0 .14-3.29 28.331 28.331 0 0 1 .315-5.277 2.639 2.639 0 0 1 1.135-1.826 3.382 3.382 0 0 1 2.395-.101 14.699 14.699 0 0 1 3.355 1.574l.927.535v4.823a9.762 9.762 0 0 0-2.49-1.186.807.807 0 0 0-.814.298 3.178 3.178 0 0 0-.262 1.614q0 1.272-.157 4.732a10.772 10.772 0 0 1-.454 2.977 3.44 3.44 0 0 1-.935 1.508 3.592 3.592 0 0 1-1.74.672 14.736 14.736 0 0 1 1.687 2.577 12.382 12.382 0 0 1 1.005 2.81 21.61 21.61 0 0 1 .455 3.774q.121 3.42.122 4.349a5.6 5.6 0 0 0 .28 2.018 4.153 4.153 0 0 0 .847 1.286 12.248 12.248 0 0 0 2.456 1.69v4.844l-.927-.535a20.725 20.725 0 0 1-3.617-2.523 11.158 11.158 0 0 1-2.124-2.668 9.803 9.803 0 0 1-1.162-3.164 29.46 29.46 0 0 1-.297-4.843 28.25 28.25 0 0 0-.28-4.984 8.32 8.32 0 0 0-1.162-2.982 8.109 8.109 0 0 0-2.385-2.174ZM445.317 780.63a4.974 4.974 0 0 0-1.922-.666 1.346 1.346 0 0 0-1.11.58 3.897 3.897 0 0 0-.655 1.77 24.948 24.948 0 0 0-.14 3.27 29.456 29.456 0 0 1-.306 5.292 2.63 2.63 0 0 1-1.127 1.842 3.404 3.404 0 0 1-2.412.09 14.685 14.685 0 0 1-3.356-1.573l-.926-.535v-4.844a8.856 8.856 0 0 0 2.447 1.14.87.87 0 0 0 .848-.297 3.028 3.028 0 0 0 .28-1.584q.008-1.226.148-4.616a10.726 10.726 0 0 1 .472-3.088 3.46 3.46 0 0 1 1.022-1.549 2.99 2.99 0 0 1 1.634-.6 17.464 17.464 0 0 1-1.887-2.987 14.238 14.238 0 0 1-1.119-4.036q-.192-1.523-.28-6.376a7.638 7.638 0 0 0-.236-2.155 3.466 3.466 0 0 0-.786-1.23 12.887 12.887 0 0 0-2.543-1.741v-4.823l.926.534a21.122 21.122 0 0 1 3.618 2.513 10.771 10.771 0 0 1 2.115 2.664 10.147 10.147 0 0 1 1.162 3.173 28.769 28.769 0 0 1 .306 4.848 30.155 30.155 0 0 0 .262 4.975 7.089 7.089 0 0 0 3.565 5.166Z" style="mix-blend-mode:screen" fill="#ff6ae4" class="colorff826a svgShape"></path><path d="m457.23 833.962-79.65-45.987v3.86l79.65 45.986Zm7.395 4.269v3.86l18.678 10.783v-3.86Zm-47.546-15.486-39.499-22.804v3.86l39.5 22.804Zm7.394 8.129 58.83 33.965v-3.86l-58.83-33.965Zm10.362 14.088-57.255-33.056v3.86l57.255 33.055Zm7.394 8.128 41.074 23.715v-3.86L442.23 849.23Zm-64.649-25.36 17.52 10.116v-3.86l-17.52-10.115Zm24.914 14.385 80.81 46.655v-3.86l-80.81-46.655Z" style="mix-blend-mode:screen" fill="#5046e4" class="color5652cc svgShape"></path><path d="m1135.49 645.202-128.085-73.955c-10.573-6.106-27.873-6.105-38.452.002l-126.035 72.767c-10.576 6.106-10.573 16.092-.004 22.2l67.011 38.691v39.842h80.34c6.957-.005 13.91-1.53 19.188-4.577L1135.5 667.4c10.572-6.104 10.567-16.094-.01-22.197Z" style="mix-blend-mode:multiply" fill="url(#h)"></path><path fill="#ffffff" d="M933.58 695.139c-10.575 6.106-27.877 6.102-38.453-.002L767.04 621.183c-10.57-6.108-10.572-16.095.003-22.2l126.036-72.767c10.58-6.108 27.878-6.108 38.451-.002l128.087 73.954c10.576 6.104 10.58 16.094.01 22.198Z" class="colorffffff svgShape"></path><path fill="#f6f8fb" d="M914.359 690.454c-5.604 0-10.926-1.217-14.603-3.34L771.672 613.16c-2.612-1.51-3.273-2.836-3.296-3.082.023-.238.686-1.563 3.3-3.074l126.035-72.766c3.678-2.123 8.999-3.34 14.599-3.34 5.597 0 10.916 1.217 14.587 3.338l128.088 73.953c2.62 1.511 3.282 2.839 3.305 3.085-.023.238-.686 1.56-3.296 3.07l-126.046 72.774c-3.673 2.12-8.99 3.336-14.59 3.336Z" class="colorf6f6fb svgShape"></path><path fill="url(#i)" d="m759.126 654.685.021.002c-.19 4.169 2.418 8.367 7.897 11.529L895.13 740.17c10.573 6.106 27.876 6.104 38.452-.002l126.035-72.766c5.54-3.198 8.145-7.457 7.883-11.658l.005-43.92c-.232 3.837-2.837 7.632-7.877 10.541L933.58 695.14c-10.575 6.106-27.877 6.102-38.453-.002L767.04 621.183c-5.22-3.018-7.855-6.982-7.917-10.955Z"></path><path fill="url(#L)" d="m759.126 638.965.021.002c-.19 4.17 2.418 8.368 7.897 11.529l128.086 73.955c10.573 6.106 27.876 6.104 38.452-.002l126.035-72.767c5.54-3.198 8.145-7.457 7.883-11.658l.005-8.724c-.232 3.836-2.838 7.63-7.878 10.54L933.58 714.614c-10.575 6.105-27.877 6.102-38.453-.002L767.04 640.657c-5.22-3.017-7.855-6.981-7.917-10.955Z"></path><path fill="#57a1ec" d="M916.045 560.837c6.301-3.638 16.512-3.638 22.811 0 6.301 3.635 6.302 9.533 0 13.17-6.3 3.636-16.51 3.636-22.81-.001-6.3-3.636-6.3-9.534-.001-13.17Z" class="color57ecea svgShape"></path><path d="m925.503 674.697 42.022-68.847c2.91-4.765-5.037-9.353-13.292-7.674l-119.247 24.262Z" style="mix-blend-mode:multiply" fill="#dae7f5" class="colordae0f5 svgShape"></path><path d="m868.282 641.66 29.002-47.516c2.91-4.765-5.037-9.353-13.292-7.674l-82.3 16.745Z" style="mix-blend-mode:multiply" fill="#dfe9f4" class="colordfe4f4 svgShape"></path><path d="M765.449 550.815 637.363 476.86c-10.573-6.105-27.873-6.105-38.452.003l-65.262 72.766c-10.576 6.106-10.573 16.092-.004 22.2l67.011 38.691v39.842H620.224c6.956-.005 13.91-1.53 19.187-4.576l126.048-72.774c10.571-6.103 10.567-16.093-.01-22.197Z" style="mix-blend-mode:multiply" fill="url(#M)"></path><path fill="#ffffff" d="M624.311 637.165c-10.575 6.106-27.877 6.102-38.453-.002l-128.086-73.954c-10.57-6.108-10.572-16.095.003-22.2l126.036-72.767c10.58-6.108 27.879-6.108 38.451-.002l128.087 73.954c10.576 6.104 10.58 16.094.01 22.198Z" class="colorffffff svgShape"></path><path fill="#ff6ae4" d="M605.09 632.48c-5.605 0-10.926-1.217-14.603-3.34l-128.084-73.954c-2.613-1.51-3.273-2.836-3.296-3.082.023-.238.686-1.563 3.3-3.074l126.035-72.766c3.677-2.123 8.999-3.34 14.598-3.34 5.598 0 10.917 1.217 14.588 3.338l128.088 73.953c2.62 1.511 3.282 2.839 3.305 3.085-.023.238-.686 1.56-3.296 3.07L619.68 629.143c-3.673 2.12-8.99 3.336-14.59 3.336Z" class="colorff826a svgShape"></path><path fill="url(#N)" d="m449.857 560.248.021.003c-.19 4.169 2.418 8.367 7.897 11.529l128.086 73.954c10.573 6.106 27.876 6.104 38.452-.002l126.036-72.766c5.538-3.198 8.144-7.457 7.882-11.658l.005-7.457c-.232 3.836-2.837 7.63-7.877 10.54L624.31 637.165c-10.575 6.106-27.877 6.102-38.453-.002l-128.086-73.954c-5.22-3.018-7.855-6.982-7.917-10.955Z"></path><path fill="#ffffff" d="M581.585 544.009c12.415-7.168 32.543-7.168 44.958 0 12.415 7.167 12.415 18.788 0 25.956-12.415 7.167-32.543 7.167-44.958 0-12.414-7.168-12.414-18.789 0-25.956Z" class="colorffffff svgShape"></path><path fill="#ff6ae4" d="m605.658 548.696-15.953 9.211 22.556 3.812-6.603-13.023z" class="colorff826a svgShape"></path><path d="M1079.53 508.05c-8.624-4.983-20.09-7.278-31.354-6.94h-17.658V504a46.66 46.66 0 0 0-9.342 4.05c-16.052 9.337-15.96 24.466.199 33.803a47.009 47.009 0 0 0 9.143 3.961v3.023h21.18c10.184-.171 20.275-2.481 28.024-6.981 16.059-9.34 15.975-24.47-.192-33.806Z" style="mix-blend-mode:multiply" fill="url(#O)"></path><path fill="url(#P)" d="M1003.186 541.867c-8.132-4.697-12.204-10.862-12.18-17.018l.035-14.034c-.016 6.159 4.044 12.322 12.176 17.02 16.17 9.335 42.293 9.335 58.35.01 7.983-4.645 11.978-10.709 11.996-16.788l-.036 14.033c-.018 6.075-4.013 12.139-11.992 16.779-16.057 9.337-42.186 9.337-58.349-.002Z"></path><path fill="#ffffff" d="M1003.217 527.835c-16.16-9.327-16.248-24.466-.191-33.794 16.06-9.337 42.193-9.337 58.353 0 16.168 9.328 16.25 24.467.188 33.803-16.057 9.326-42.18 9.326-58.35-.009Z" class="colorffffff svgShape"></path><path fill="#bbd0e6" d="m1053.468 509.015-30.532 1.552.949-6.862h-8.437l-2.291 12.511 40.311-2.331v-4.87z" class="colorbbc0e6 svgShape"></path><path d="M1282.964 639.169c-22.54-13.015-53.212-18.452-82.572-16.344 21.174 1.52 41.666 6.957 57.925 16.344 38.798 22.4 38.794 58.718 0 81.117-16.26 9.388-36.754 14.826-57.932 16.345 29.36 2.108 60.037-3.331 82.58-16.345 38.796-22.399 38.8-58.717 0-81.117Z" style="mix-blend-mode:multiply" fill="url(#j)"></path><path d="M1148.626 639.169c16.257-9.387 36.75-14.825 57.927-16.344-29.36-2.108-60.037 3.33-82.578 16.344-38.8 22.4-38.8 58.718 0 81.117 22.541 13.015 53.215 18.453 82.574 16.345-21.175-1.519-41.666-6.957-57.923-16.345-38.801-22.399-38.801-58.717 0-81.117Z" style="mix-blend-mode:multiply" fill="url(#Q)"></path><path fill="#a09ba5" d="M1264.12 639.27c-38.988-22.509-102.207-22.509-141.196.002-38.992 22.512-38.988 59.008.002 81.52 38.99 22.511 102.206 22.511 141.192.001 38.992-22.513 38.996-59.009.003-81.523Zm-11.65 74.796c-32.557 18.796-85.34 18.796-117.894 0-32.557-18.794-32.56-49.272-.003-68.069 32.558-18.794 85.343-18.794 117.899 0 32.556 18.797 32.556 49.275-.001 68.069Z" class="colora59ba5 svgShape"></path><path fill="#64318f" d="M1134.572 623.065c32.559-18.798 85.344-18.798 117.9-.003 21.37 12.339 28.712 29.706 22.028 45.503-3.5-8.27-10.842-16.109-22.028-22.568-32.556-18.794-85.341-18.794-117.9 0-11.185 6.46-18.528 14.297-22.026 22.568-6.684-15.797.658-33.164 22.026-45.5Z" class="color34318f svgShape"></path><path d="M1252.647 630.214c-32.55-18.794-85.33-18.795-117.88 0-32.553 18.793-32.551 49.265 0 68.059 32.552 18.793 85.328 18.795 117.88 0 32.553-18.794 32.553-49.266 0-68.06Z" style="mix-blend-mode:screen" fill="#6b686d" class="color686a6d svgShape"></path><path d="M1143.141 633.577c7.093-4.516 18.887-5.027 26.345-1.14 7.456 3.885 7.75 10.695.657 15.21-7.094 4.513-18.886 5.024-26.344 1.139-7.455-3.885-7.75-10.696-.658-15.21ZM1178.889 625.3a12.07 12.07 0 0 1 10.906-.469c3.086 1.608 3.207 4.426.273 6.295a12.069 12.069 0 0 1-10.907.472c-3.088-1.608-3.21-4.427-.272-6.298Z" style="mix-blend-mode:screen" fill="#a09ba5" class="colora59ba5 svgShape"></path><path fill="#f7f9fc" d="M1252.647 633.62c-32.55-18.794-85.33-18.795-117.88 0-15.527 8.964-23.629 20.583-24.345 32.324-.783-12.876 7.318-25.9 24.344-35.73 32.551-18.795 85.33-18.794 117.88 0 17.029 9.83 25.132 22.854 24.347 35.73-.718-11.741-8.82-23.36-24.346-32.324Z" class="colorf7f7fc svgShape"></path><path fill="#d0e3f6" d="M1264.12 616.337c-38.988-22.51-102.207-22.51-141.196.002-38.992 22.511-38.988 59.008.002 81.518 38.99 22.513 102.206 22.513 141.192.001 38.992-22.511 38.996-59.008.003-81.52Zm-11.65 74.796c-32.557 18.797-85.34 18.797-117.894 0-32.557-18.797-32.56-49.273-.003-68.068 32.558-18.798 85.343-18.798 117.899-.003 32.556 18.798 32.556 49.274-.001 68.071Z" class="colord0d4f6 svgShape"></path><path fill="url(#R)" d="M1122.926 697.857c38.99 22.513 102.206 22.513 141.192.001 19.244-11.111 28.973-25.628 29.222-40.188v21.794h-.004c.256 14.94-9.471 29.927-29.218 41.33-38.986 22.509-102.202 22.509-141.192-.002-19.746-11.401-29.471-26.387-29.215-41.328V657.77c.29 14.526 10.016 29 29.215 40.086Z"></path><path fill="#f7f9fc" d="M1122.177 700.923q-3.69-2.13-6.907-4.417l-16.793 9.696 14.551 8.402 16.794-9.698q-3.956-1.856-7.645-3.983Z" class="colorf7f7fc svgShape"></path><path fill="#bbd0e6" d="m1113.028 731.407 16.794-9.696v-16.805l-16.794 9.698v16.803z" class="colorbbc0e6 svgShape"></path><path fill="url(#k)" d="M1119.35 726.656c0-8.673-6.086-19.217-13.596-23.553-3.907-2.255-7.415-2.37-9.895-.758l-.007-.015-96.799 55.89 18.505 33.6 96.797-55.888v-.001c3.047-1.12 4.995-4.371 4.995-9.275Z"></path><path d="M1106.866 740.238v.002l-4.732 2.732c2.053-1.565 3.308-4.404 3.308-8.318 0-8.674-6.088-19.217-13.598-23.553-3.905-2.254-7.416-2.37-9.896-.758l6.415-3.705.007.013c2.479-1.612 5.989-1.495 9.895.759 7.51 4.337 13.597 14.88 13.597 23.553 0 4.904-1.948 8.154-4.996 9.275Z" style="mix-blend-mode:multiply" fill="url(#S)"></path><path fill="url(#T)" d="M1019.801 790.525a19.193 19.193 0 1 1-20.066-32.666c2.427-1.19 5.656-.928 9.22 1.133 7.51 4.337 13.598 14.88 13.598 23.554 0 3.773-1.152 6.566-3.074 8.166Z"></path><path style="mix-blend-mode:multiply" fill="url(#U)" d="M1151.268 563.802h-42.891l27.225 15.717-27.225 15.717h42.891l27.218-15.717-27.218-15.717z"></path><path fill="#bbd0e6" d="m1108.377 595.236 27.225-15.717v-31.432l-27.225 15.715v31.434z" class="colorbbc0e6 svgShape"></path><path fill="#cee3f8" d="m1108.377 595.236-27.218-15.717v-31.432l27.218 15.715v31.434z" class="colorced3f8 svgShape"></path><path fill="#ffffff" d="m1108.377 563.802-27.218-15.715 27.218-15.712 27.225 15.712-27.225 15.715z" class="colorffffff svgShape"></path></g></g></g></svg>