<svg xmlns="http://www.w3.org/2000/svg" viewBox="0 0 52 52" id="UiDesign"><path fill="#010001" d="M31.113 37.713c0 .9-.63 2-1.42 2.45l-16.69 9.64c-.23.13-.44.19-.63.19-.15 0-.27-.03-.38-.1l-3.61-2.14c-.26-.16-.41-.47-.42-.92l-.09-32.54c0-.9.64-2 1.43-2.46l16.68-9.64c.39-.22.75-.24 1.01-.09l3.62 2.15a.142.142 0 0 0-.06-.02c.29.13.47.45.47.93l.09 32.55z" class="color1d2943 svgShape"></path><path fill="#010001" d="M30.612 4.25c-.266-.146-.617-.129-1.02.103l-16.684 9.631c-.789.454-1.423 1.551-1.414 2.46l.086 32.544c0 .446.154.763.411.909L8.382 47.75c-.257-.154-.411-.471-.42-.917l-.086-32.545c0-.9.635-1.996 1.423-2.45l16.684-9.641c.394-.223.754-.249 1.011-.094l3.618 2.147z" class="color1d2943 svgShape"></path><path fill="#6822a2" d="M29.595 4.353c.788-.455 1.425-.092 1.427.814l.089 32.542c.002.905-.63 2-1.418 2.456l-16.687 9.634c-.788.455-1.425.092-1.427-.813l-.089-32.543c-.002-.905.63-2 1.418-2.455l16.687-9.635z" class="color4c5c75 svgShape"></path><path fill="#f4f6f8" d="M30.137 37.71c0 .564-.437 1.33-.932 1.613l-15.576 8.992a.717.717 0 0 1-1.078-.622l-.088-31.249c0-.563.437-1.33.933-1.612l5.855-3.379c.308-.178.72-.114.914.184.22.339.648.407 1.135.127.63-.366 1.147-1.178 1.266-1.922a.678.678 0 0 1 .324-.485l6.082-3.527c.475-.272 1.077.078 1.087.632l.078 31.248z" class="colorffffff svgShape"></path><path fill="#010001" d="M21.19 10.015c-.332.192-.6.658-.598 1.037 0 .382.27.535.602.343.332-.192.6-.655.598-1.037 0-.378-.27-.535-.602-.343z" class="color1d2943 svgShape"></path><path fill="#9eb3c9" d="M10.553 26.823v2.37c-.01.24-.09.4-.22.47l-.49.28c-.14.11-.34.12-.57-.02-.41-.23-.74-.8-.74-1.27l.01-2.37c0-.25.09-.42.24-.49l.51-.3c.14-.08.32-.07.53.05.4.24.74.81.73 1.28zm.02-7.76-.01 3.95c0 .23-.08.39-.22.47l-.53.31c-.13.08-.32.07-.53-.05-.4-.23-.73-.81-.73-1.28l.01-3.95c0-.24.09-.41.24-.48l.51-.3c.13-.08.32-.06.53.05.4.24.73.81.73 1.28z" class="color9ea9c9 svgShape"></path><path fill="#9eb3c9" d="m10.574 19.06-.008 3.95c0 .229-.084.396-.221.473l-.534.312c.13-.076.214-.244.214-.48l.015-3.943c0-.465-.328-1.037-.732-1.273-.214-.122-.397-.13-.534-.053l.542-.313c.13-.076.32-.061.526.053.404.237.732.809.732 1.274z" class="color9ea9c9 svgShape"></path><path fill="#f4f6f8" d="M9.304 18.1c.404.233.734.805.733 1.269l-.011 3.95c-.002.47-.334.659-.738.426-.409-.237-.739-.808-.737-1.278l.01-3.95c.002-.464.334-.653.743-.417z" class="colorf3f1fc svgShape"></path><path fill="#9eb3c9" d="M10.55 26.82v2.372c-.007.236-.083.397-.22.473l-.534.313c.13-.077.213-.244.213-.473l.008-2.372c0-.465-.328-1.037-.732-1.273-.206-.122-.397-.13-.526-.054l.534-.312c.137-.076.32-.069.526.053.404.237.74.808.732 1.274z" class="color9ea9c9 svgShape"></path><path fill="#f4f6f8" d="M9.284 25.86c.404.233.734.804.733 1.274l-.007 2.372c-.002.465-.334.654-.738.42-.409-.235-.739-.807-.737-1.271l.006-2.372c.002-.47.334-.66.743-.423z" class="colorf3f1fc svgShape"></path><path fill="#010001" d="m9.299 11.837 16.684-9.64" class="color1d2943 svgShape"></path><path fill="#e3e9f0" d="m28.883 29.326.022 7.868-15.132 8.737-.022-7.869z" class="colore3e7f0 svgShape"></path><path fill="#6257fe" d="m20.255 24.37.022 7.869-6.532 3.771-.022-7.868z" class="color57b3fe svgShape"></path><path fill="#a50b89" d="m20.227 14.456.022 7.863-6.532 3.771-.022-7.863z" class="colorf45170 svgShape"></path><path fill="#5aa0e7" d="m28.827 9.491.022 7.862-6.526 3.768-.022-7.862z" class="color78e75a svgShape"></path><path fill="#deecfb" d="m28.855 19.405.022 7.869-6.526 3.768-.022-7.869z" class="colordedffb svgShape"></path><path fill="#f4f6f8" d="M16.59 33.14a.385.385 0 0 1-.165.286l-1.476.853a.263.263 0 0 1-.108.025c-.025 0-.05 0-.076-.006a.188.188 0 0 1-.09-.172l-.006-1.699a.34.34 0 0 1 .172-.286c.057-.038.134-.044.185-.013.031.02.076.064.076.16l.006 1.393 1.21-.694c.088-.05.152-.031.19-.006.038.02.083.07.083.16zm2.884-1.713a.372.372 0 0 1-.16.293l-1.495.852a.144.144 0 0 1-.095.032c-.02 0-.038-.006-.051-.006-.006-.007-.013-.007-.013-.007h-.013l-.006-.006a.199.199 0 0 1-.083-.16c0-.114.07-.24.172-.292l1.31-.757-.005-1.508c0-.114.076-.242.178-.292l.012-.007a.207.207 0 0 1 .083-.025c.026 0 .045.006.057.012.007.007.013.007.02.007a.187.187 0 0 1 .082.165l.007 1.699zm-4.814-.496v-1.699c0-.108.07-.229.16-.286l1.482-.853c.07-.032.127-.038.178-.019a.178.178 0 0 1 .095.166c0 .114-.07.235-.178.286l-1.304.763.006 1.508a.34.34 0 0 1-.172.287c-.019.019-.057.032-.102.032-.019 0-.05 0-.082-.026-.051-.025-.083-.083-.083-.159zm2.966-3.24a.182.182 0 0 1-.083-.16c0-.114.07-.24.172-.292l1.47-.852c.038-.02.12-.051.19-.007.032.02.077.064.077.153l.012 1.705c0 .115-.07.236-.178.286-.019.02-.057.032-.095.032-.02 0-.058 0-.083-.025-.076-.045-.076-.127-.076-.16l-.007-1.393-1.215.7c-.089.051-.146.038-.184.013zm9.949-13.972.489-.217.002.736-.489.345a4.19 4.19 0 0 1-.318 1.074l.308.265-.452.781-.384-.13c-.23.313-.49.59-.772.816l-.056.595-.64.37-.059-.53c-.282.1-.544.125-.772.077l-.384.573-.456-.257.307-.62a1.398 1.398 0 0 1-.324-.703l-.489.219-.002-.736.488-.348c.052-.354.164-.72.319-1.07l-.309-.269.453-.781.386.13c.227-.31.488-.59.77-.813l.056-.595.64-.37.059.53a1.43 1.43 0 0 1 .774-.078l.382-.575.455.257-.306.623c.157.171.27.407.324.7zm-2.017 2.797c.587-.34 1.065-1.165 1.063-1.842-.002-.678-.483-.947-1.07-.608-.59.34-1.064 1.161-1.062 1.838.002.678.48.952 1.069.612" class="colorffffff svgShape"></path><path fill="#b0bfcf" d="m28.229 30.558.002.642-13.832 7.986-.002-.642zM25.756 34.742l.002.651-11.352 6.553-.001-.65zM22.041 35.509l.001.65-7.64 4.411-.001-.65zM22.041 38.261l.001.651-7.64 4.411-.001-.651zM28.258 36.048l.002.65-13.858 8.001-.001-.65z" class="colorb0b8cf svgShape"></path><path fill="#f93dd7" d="M39.643 31.603c0 .55-.38 1.21-.85 1.48l-7.61 4.4c-.25.14-.46.15-.62.05l-.05-.03-.88-.56c-.16-.09-.25-.28-.25-.55l-.02-6.91-.01-.96c0-.54.38-1.2.86-1.48l7.82-4.51c.18-.11.35-.12.46-.05l.94.59c-.01-.01-.02-.01-.03-.01.13.06.21.2.22.43v1.2l.02 6.91z" class="colorf9a83d svgShape"></path><path fill="#6cb5ff" d="M39.64 31.599c0 .55-.38 1.21-.85 1.48l-7.61 4.4c-.48.27-.86.05-.87-.5l-.02-6.91v-.96c0-.54.38-1.2.85-1.48l7.83-4.51c.35-.21.64-.05.65.37v1.2l.02 6.91z" class="colorffd06c svgShape"></path><path fill="#f4f6f8" d="M38.97 23.5c.085-.049.158-.01.159.092l.026 8.254a.819.819 0 0 1-.369.638l-7.61 4.394c-.205.118-.37.021-.37-.212l-.027-8.01c0-.236.164-.521.37-.64l7.82-4.515z" class="colorffffff svgShape"></path><path fill="#f93dd7" d="M39.43 23.069c-.12-.07-.28-.06-.47.05l-7.81 4.51c-.48.28-.86.94-.86 1.48v.96l.02 6.91c0 .28.1.47.25.55l-.93-.59c-.16-.09-.25-.28-.25-.55l-.02-6.91-.01-.96c0-.54.38-1.2.86-1.48l7.82-4.51c.18-.11.35-.12.46-.05l.94.59z" class="colorf9a83d svgShape"></path><path fill="#a061d5" d="m36.205 28.265 2.521 3.239-4.211 2.431-.806.465.4-.984z" class="color72d561 svgShape"></path><path fill="#5aa0e7" d="m32.852 31.804 1.257 1.612-.4.984.806-.465-3.307 1.909z" class="color78e75a svgShape"></path><path fill="#6cb5ff" d="M34.05 29.581c.402-.23.731-.042.733.42.001.466-.326 1.027-.729 1.26-.405.233-.731.047-.733-.415 0-.463.324-1.03.729-1.265z" class="colorffd06c svgShape"></path><path fill="#6257fe" d="M38.367 26.356c.001.216-.15.478-.338.586l-1.18.682c-.41.236-.448-.41-.079-.726v-.01c0-.208.17-.47.36-.516h.002l.03-.083c.104-.248.353-.54.6-.524h.016c.18.017.241.227.209.423a.357.357 0 0 1 .04-.026c.185-.107.34-.024.34.194zm-5.131 2.872c0 .216-.15.478-.338.586l-1.18.682c-.105.06-.199.06-.261.01l-.013-.01-.002-.003a.115.115 0 0 1-.012-.014c-.145-.18.021-.548.209-.709v-.01c0-.208.17-.469.36-.516H32c.088-.281.364-.624.63-.607h.016c.182.017.24.23.209.423a.357.357 0 0 1 .04-.026c.184-.107.339-.024.34.194z" class="color57b3fe svgShape"></path><path fill="#5b50ff" d="M39.953 6.973v5.49c0 .53-.38 1.19-.85 1.46l-4.86 2.79-1.64 3.9-1.15-.65.08-1.7-.17.1c-.25.15-.48.15-.63.04-.01 0-.01-.01-.01-.01l-1.11-.62c-.16-.09-.26-.28-.26-.54v-5.5c0-.55.39-1.19.85-1.46l7.74-4.43c.24-.13.45-.15.61-.06l1.13.65c.16.08.27.27.27.54z" class="color5094ff svgShape"></path><path fill="#5046e4" d="m32.603 20.609-1.154-.65.159-3.042 1.155.65z" class="color497bfe svgShape"></path><path fill="#5b50ff" d="M39.699 6.438c-.156-.095-.359-.083-.598.048l-7.737 4.436c-.466.274-.848.92-.848 1.457v5.496c0 .275.095.454.25.55l-1.157-.657c-.156-.084-.251-.275-.251-.538v-5.496c0-.55.382-1.194.848-1.457l7.737-4.436c.24-.131.454-.143.61-.06l1.146.657z" class="color5094ff svgShape"></path><path fill="#6257fe" d="m31.36 10.922 7.741-4.43c.466-.27.848-.051.85.483v5.488c.002.534-.378 1.193-.844 1.461l-4.865 2.789-1.639 3.896.16-3.042-1.396.797c-.466.269-.848.05-.85-.484v-5.496c-.002-.543.379-1.193.844-1.462z" class="color57b3fe svgShape"></path><path fill="#f4f6f8" d="M31.046 12.384c-.002-.35.275-.828.58-1.004l7.07-4.045a.484.484 0 0 1 .725.423l.001 4.705c.001.344-.28.83-.58 1.003l-7.07 4.053a.484.484 0 0 1-.725-.422l-.001-4.713z" class="colorffffff svgShape"></path><path fill="#a50b89" d="M35.22 9.929c1.203-.695 2.184-.136 2.188 1.247.004 1.383-.97 3.053-2.174 3.748-1.204.695-2.17.145-2.174-1.238-.004-1.383.956-3.062 2.16-3.757z" class="colorf45170 svgShape"></path><path fill="#f4f6f8" d="m34.91 11.151 1.369.273c.18.038.18.347.002.592l-1.363 1.856c-.21.286-.487.27-.488-.015l-.006-2.135c0-.274.273-.62.486-.57zM15.826 21.789l-.989-.271 1.005-1.44c.091-.128.106-.284.033-.354-.092-.085-.228-.004-.305.106l-1.23 1.76c-.093.13-.117.34.022.385l1.236.338c.011.003.023.004.034.004.11 0 .21-.112.258-.212.055-.122.057-.28-.064-.316zm3.756-3.216-1.236-.338c-.114-.03-.236.091-.292.208-.057.122-.055.283.063.313l.99.27-1.006 1.441c-.09.131-.104.284-.032.357a.129.129 0 0 0 .09.035c.085 0 .166-.07.215-.14l1.23-1.762c.096-.143.114-.35-.022-.384zm-2.033-.53c-1.357 4.108-1.796 4.707-1.429 4.714.121 0 .233-.134.275-.252l1.542-4.437c.03-.09.028-.173-.01-.226-.082-.116-.297-.034-.378.2z" class="colorffffff svgShape"></path><path fill="#a50b89" d="M27.062 43.981c-.331.19.045.212.463.452.827.478 1.499 1.64 1.496 2.594-.002.472-.169.805.165.613l14.504-8.518c-.337.192-.168-.14-.168-.613.003-.953-.669-2.116-1.496-2.594-.418-.24-.795-.262-.463-.451l-14.5 8.517z" class="colorf45170 svgShape"></path><path fill="#f4f6f8" d="M39.33 36.762c.273-.158.647-.147 1.065.093.827.478 1.5 1.641 1.496 2.594-.002.472-.165.818-.436.974l1.63-.953c.268-.156.437-.489.437-.96.003-.954-.669-2.117-1.496-2.595-.418-.24-.795-.262-1.068-.103l-1.628.95z" class="colorf3f1fc svgShape"></path><path fill="#6cb5ff" d="m24.93 47.842 3.852-.101s.071-.003.088-.006c.45-.035.753-.417.756-1.056.003-.953-.669-2.116-1.496-2.594-.686-.396-1.267-.2-1.447.418l-1.753 3.339z" class="colorffd06c svgShape"></path><path fill="#6822a2" d="m24.93 47.842 1.635-.044c.014-.625-.286-1.146-.87-1.411l-.765 1.455zM39.995 36.376c.273-.158.673-.132 1.09.108.828.478 1.5 1.641 1.497 2.594-.003.472-.177.794-.447.95l1.555-.906c.267-.155.437-.488.437-.96.002-.954-.67-2.117-1.497-2.595-.417-.24-.794-.262-1.067-.103l-1.568.912z" class="color4c5c75 svgShape"></path></svg>