<svg xmlns="http://www.w3.org/2000/svg" xmlns:xlink="http://www.w3.org/1999/xlink" viewBox="0 0 1800 1400" id="Digitalbanking"><defs><linearGradient id="a" x1="458.866" x2="609.526" y1="582.506" y2="582.506" gradientUnits="userSpaceOnUse"><stop offset="0" stop-color="#c2d2e3" class="stopColorc2c7e3 svgShape"></stop><stop offset=".071" stop-color="#cddae8" class="stopColorcdd1e8 svgShape"></stop><stop offset=".255" stop-color="#e3eaf2" class="stopColore3e5f2 svgShape"></stop><stop offset=".456" stop-color="#f4f6f8" class="stopColorf3f4f9 svgShape"></stop><stop offset=".685" stop-color="#fcfdfe" class="stopColorfcfcfe svgShape"></stop><stop offset="1" stop-color="#ffffff" class="stopColorffffff svgShape"></stop></linearGradient><linearGradient id="o" x1="522.897" x2="639.484" y1="545.663" y2="545.663" gradientUnits="userSpaceOnUse"><stop offset="0" stop-color="#c2d2e3" class="stopColorc2c7e3 svgShape"></stop><stop offset=".231" stop-color="#dbe4ee" class="stopColordbdeee svgShape"></stop><stop offset=".488" stop-color="#eff3f8" class="stopColoreff0f8 svgShape"></stop><stop offset=".744" stop-color="#fbfcfd" class="stopColorfbfbfd svgShape"></stop><stop offset="1" stop-color="#ffffff" class="stopColorffffff svgShape"></stop></linearGradient><linearGradient id="p" x1="394.835" x2="525.407" y1="619.346" y2="619.346" xlink:href="#a"></linearGradient><linearGradient id="q" x1="330.809" x2="435.325" y1="656.189" y2="656.189" xlink:href="#a"></linearGradient><linearGradient id="r" x1="1452.665" x2="1577.906" y1="402.76" y2="402.76" gradientUnits="userSpaceOnUse"><stop offset=".453" stop-color="#c4d4e4" class="stopColorc4c9e4 svgShape"></stop><stop offset="1" stop-color="#ffffff" class="stopColorffffff svgShape"></stop></linearGradient><linearGradient id="b" x1="1402.282" x2="1532.908" y1="476.34" y2="476.34" gradientUnits="userSpaceOnUse"><stop offset=".03" stop-color="#c4d4e4" class="stopColorc4c9e4 svgShape"></stop><stop offset="1" stop-color="#ffffff" class="stopColorffffff svgShape"></stop></linearGradient><linearGradient id="s" x1="1302.638" x2="1455.511" y1="412.565" y2="412.565" xlink:href="#b"></linearGradient><linearGradient id="c" x1="1423.971" x2="1546.643" y1="412.558" y2="412.558" gradientUnits="userSpaceOnUse"><stop offset="0" stop-color="#ff5ae1" class="stopColorff5a72 svgShape"></stop><stop offset="1" stop-color="#e33cc5" class="stopColore33c5c svgShape"></stop></linearGradient><linearGradient id="t" x1="1435.493" x2="1535.121" y1="372.584" y2="372.584" xlink:href="#c"></linearGradient><linearGradient id="u" x1="1466.38" x2="1493.302" y1="398.567" y2="398.567" xlink:href="#c"></linearGradient><linearGradient id="d" x1="1273.898" x2="1396.767" y1="369.847" y2="369.847" gradientUnits="userSpaceOnUse"><stop offset="0" stop-color="#ff5ae1" class="stopColorff5a72 svgShape"></stop><stop offset="1" stop-color="#c62caa" class="stopColorc62c51 svgShape"></stop></linearGradient><linearGradient id="v" x1="1273.898" x2="1396.767" y1="387.358" y2="387.358" xlink:href="#c"></linearGradient><linearGradient id="w" x1="1273.898" x2="1396.767" y1="404.869" y2="404.869" xlink:href="#d"></linearGradient><linearGradient id="x" x1="1273.898" x2="1396.767" y1="422.38" y2="422.38" xlink:href="#c"></linearGradient><linearGradient id="y" x1="1285.439" x2="1385.23" y1="329.806" y2="329.806" xlink:href="#c"></linearGradient><linearGradient id="z" x1="1316.375" x2="1343.341" y1="355.832" y2="355.832" xlink:href="#c"></linearGradient><linearGradient id="A" x1="1373.261" x2="1496.13" y1="468.643" y2="468.643" xlink:href="#d"></linearGradient><linearGradient id="B" x1="1373.261" x2="1496.13" y1="486.154" y2="486.154" xlink:href="#c"></linearGradient><linearGradient id="C" x1="1384.801" x2="1484.593" y1="428.602" y2="428.602" xlink:href="#c"></linearGradient><linearGradient id="D" x1="1415.738" x2="1442.704" y1="454.629" y2="454.629" xlink:href="#c"></linearGradient><linearGradient id="E" x1="425.479" x2="1478.516" y1="674.059" y2="674.059" gradientUnits="userSpaceOnUse"><stop offset="0" stop-color="#c4d6e9" class="stopColorc4cae9 svgShape"></stop><stop offset=".247" stop-color="#c9daeb" class="stopColorc9ceeb svgShape"></stop><stop offset=".523" stop-color="#d6e3f0" class="stopColord6daf0 svgShape"></stop><stop offset=".812" stop-color="#ecf2f8" class="stopColoreceef8 svgShape"></stop><stop offset="1" stop-color="#ffffff" class="stopColorffffff svgShape"></stop></linearGradient><linearGradient id="F" x1="290.623" x2="1326.679" y1="763.393" y2="763.393" gradientTransform="translate(100.55)" gradientUnits="userSpaceOnUse"><stop offset=".309" stop-color="#857dfb" class="stopColor807dfb svgShape"></stop><stop offset=".325" stop-color="#8078f5" class="stopColor7b78f5 svgShape"></stop><stop offset=".346" stop-color="#726ae4" class="stopColor6d6ae4 svgShape"></stop><stop offset=".37" stop-color="#5952c8" class="stopColor5652c8 svgShape"></stop><stop offset=".388" stop-color="#7c3eaf" class="stopColor423eaf svgShape"></stop></linearGradient><linearGradient id="e" x1="545.961" x2="649.984" y1="710.909" y2="710.909" gradientUnits="userSpaceOnUse"><stop offset="0" stop-color="#c2d2e3" class="stopColorc2c7e3 svgShape"></stop><stop offset=".101" stop-color="#c9d7e6" class="stopColorc9cee6 svgShape"></stop><stop offset=".691" stop-color="#f0f4f8" class="stopColorf0f1f8 svgShape"></stop><stop offset="1" stop-color="#ffffff" class="stopColorffffff svgShape"></stop></linearGradient><linearGradient id="G" x1="1041.843" x2="1145.866" y1="424.61" y2="424.61" xlink:href="#e"></linearGradient><linearGradient id="I" x1="794.905" x2="898.928" y1="854.634" y2="854.634" xlink:href="#e"></linearGradient><linearGradient id="K" x1="1290.787" x2="1394.81" y1="568.336" y2="568.336" xlink:href="#e"></linearGradient><linearGradient id="f" x1="1250.719" x2="1333.084" y1="813.351" y2="956.012" gradientUnits="userSpaceOnUse"><stop offset="0" stop-color="#d1e2f3" class="stopColord1d7f3 svgShape"></stop><stop offset="1" stop-color="#ffffff" class="stopColorffffff svgShape"></stop></linearGradient><linearGradient id="M" x1="934.575" x2="1141.266" y1="641.755" y2="641.755" gradientTransform="translate(-57.286)" xlink:href="#f"></linearGradient><linearGradient id="g" x1="963.63" x2="1153.623" y1="673.243" y2="673.243" gradientTransform="translate(-57.286)" gradientUnits="userSpaceOnUse"><stop offset="0" stop-color="#dce8f4" class="stopColordce1f4 svgShape"></stop><stop offset="1" stop-color="#eaf1f9" class="stopColoreaeef9 svgShape"></stop></linearGradient><linearGradient id="N" x1="963.63" x2="1158.477" y1="678.701" y2="678.701" xlink:href="#g"></linearGradient><linearGradient id="O" x1="963.63" x2="1163.331" y1="684.158" y2="684.158" xlink:href="#g"></linearGradient><linearGradient id="P" x1="1051.784" x2="1091.483" y1="617.143" y2="617.143" xlink:href="#f"></linearGradient><linearGradient id="Q" x1="958.072" x2="998.665" y1="638.181" y2="638.181" gradientTransform="translate(57.276)" xlink:href="#f"></linearGradient><linearGradient id="R" x1="959.851" x2="1000.445" y1="659.219" y2="659.219" gradientTransform="translate(18.893)" xlink:href="#f"></linearGradient><linearGradient id="S" x1="961.788" x2="1002.382" y1="680.256" y2="680.256" gradientTransform="translate(-19.314)" xlink:href="#f"></linearGradient><linearGradient id="T" x1="1423.351" x2="1423.351" y1="836.487" y2="729.6" gradientTransform="matrix(0 -.5774 -1.7321 0 2355.224 1450.012)" xlink:href="#g"></linearGradient><linearGradient id="U" x1="969.126" x2="1009.719" y1="638.181" y2="638.181" gradientTransform="translate(-170.539)" xlink:href="#f"></linearGradient><linearGradient id="h" x1="1403.696" x2="1433.843" y1="638.198" y2="638.198" gradientTransform="matrix(-1 0 0 1 2217.357 0)" gradientUnits="userSpaceOnUse"><stop offset="0" stop-color="#a7bace" class="stopColora7adce svgShape"></stop><stop offset="1" stop-color="#eaf1f9" class="stopColoreaeef9 svgShape"></stop></linearGradient><linearGradient id="V" x1="1405.803" x2="1431.736" y1="590.489" y2="590.489" xlink:href="#h"></linearGradient><linearGradient id="W" x1="967.299" x2="1007.893" y1="659.219" y2="659.219" gradientTransform="translate(-132.895)" xlink:href="#f"></linearGradient><linearGradient id="X" x1="1367.879" x2="1398.026" y1="659.236" y2="659.236" xlink:href="#h"></linearGradient><linearGradient id="Y" x1="1369.986" x2="1395.919" y1="611.527" y2="611.527" xlink:href="#h"></linearGradient><linearGradient id="Z" x1="965.473" x2="1006.066" y1="680.256" y2="680.256" gradientTransform="translate(-95.252)" xlink:href="#f"></linearGradient><linearGradient id="aa" x1="1332.063" x2="1362.21" y1="680.274" y2="680.274" xlink:href="#h"></linearGradient><linearGradient id="ab" x1="1334.17" x2="1360.102" y1="632.565" y2="632.565" xlink:href="#h"></linearGradient><linearGradient id="ac" x1="963.646" x2="1004.24" y1="701.294" y2="701.294" gradientTransform="translate(-57.61)" xlink:href="#f"></linearGradient><linearGradient id="ad" x1="1296.246" x2="1326.393" y1="701.312" y2="701.312" xlink:href="#h"></linearGradient><linearGradient id="ae" x1="1298.353" x2="1324.286" y1="653.603" y2="653.603" xlink:href="#h"></linearGradient><linearGradient id="af" x1="1259.809" x2="1289.956" y1="680.274" y2="680.274" xlink:href="#h"></linearGradient><linearGradient id="ag" x1="1261.916" x2="1287.849" y1="632.565" y2="632.565" xlink:href="#h"></linearGradient><linearGradient id="ah" x1="1223.373" x2="1253.519" y1="659.236" y2="659.236" xlink:href="#h"></linearGradient><linearGradient id="ai" x1="1225.48" x2="1251.412" y1="611.527" y2="611.527" xlink:href="#h"></linearGradient><linearGradient id="aj" x1="1186.936" x2="1217.082" y1="638.198" y2="638.198" xlink:href="#h"></linearGradient><linearGradient id="ak" x1="1189.043" x2="1214.975" y1="590.489" y2="590.489" xlink:href="#h"></linearGradient><linearGradient id="al" x1="1150.499" x2="1180.646" y1="617.161" y2="617.161" xlink:href="#h"></linearGradient><linearGradient id="am" x1="1152.606" x2="1178.538" y1="569.452" y2="569.452" xlink:href="#h"></linearGradient><linearGradient id="an" x1="963.63" x2="1148.769" y1="557.843" y2="557.843" gradientTransform="translate(-57.286)" gradientUnits="userSpaceOnUse"><stop offset="0" stop-color="#d1e2f3" class="stopColord1d7f3 svgShape"></stop><stop offset="1" stop-color="#dae7f5" class="stopColordae0f5 svgShape"></stop></linearGradient><linearGradient id="ao" x1="898.265" x2="1217.551" y1="1156.119" y2="1156.119" gradientUnits="userSpaceOnUse"><stop offset="0" stop-color="#c4d6e8" class="stopColorc4cae8 svgShape"></stop><stop offset="1" stop-color="#ffffff" class="stopColorffffff svgShape"></stop></linearGradient><linearGradient id="ap" x1="720.8" x2="1203.843" y1="1159.817" y2="1159.817" gradientUnits="userSpaceOnUse"><stop offset=".27" stop-color="#847cfb" class="stopColor807cfb svgShape"></stop><stop offset=".297" stop-color="#8179f7" class="stopColor7d79f7 svgShape"></stop><stop offset=".324" stop-color="#776fec" class="stopColor736fec svgShape"></stop><stop offset=".351" stop-color="#6860d8" class="stopColor6460d8 svgShape"></stop><stop offset=".377" stop-color="#5049bd" class="stopColor4d49bd svgShape"></stop><stop offset=".388" stop-color="#7c3eaf" class="stopColor423eaf svgShape"></stop></linearGradient><linearGradient id="i" x1="735.545" x2="790.632" y1="337.606" y2="242.192" gradientUnits="userSpaceOnUse"><stop offset="0" stop-color="#cee3f8" class="stopColorced3f8 svgShape"></stop><stop offset=".722" stop-color="#eaf2fa" class="stopColoreaebfa svgShape"></stop><stop offset="1" stop-color="#f6f8fb" class="stopColorf6f6fb svgShape"></stop></linearGradient><linearGradient id="aq" x1="769.341" x2="796.404" y1="325.58" y2="278.707" xlink:href="#i"></linearGradient><linearGradient id="ar" x1="633.712" x2="688.799" y1="304.442" y2="209.029" xlink:href="#i"></linearGradient><linearGradient id="as" x1="667.509" x2="694.571" y1="292.417" y2="245.543" xlink:href="#i"></linearGradient><linearGradient id="l" x1="1021.226" x2="1297.489" y1="939.854" y2="939.854" gradientUnits="userSpaceOnUse"><stop offset="0" stop-color="#d1e2f3" class="stopColord1d7f3 svgShape"></stop><stop offset=".132" stop-color="#d7e6f5" class="stopColord7ddf5 svgShape"></stop><stop offset="1" stop-color="#ffffff" class="stopColorffffff svgShape"></stop></linearGradient><linearGradient id="m" x1="1130.519" x2="1146.989" y1="894.779" y2="923.306" gradientUnits="userSpaceOnUse"><stop offset="0"></stop><stop offset=".201" stop-color="#02060c" class="stopColor0c0205 svgShape"></stop><stop offset=".566" stop-color="#08182d" class="stopColor2d0813 svgShape"></stop><stop offset="1" stop-color="#10315b" class="stopColor5b1026 svgShape"></stop></linearGradient><linearGradient id="j" x1="1115.15" x2="1209.272" y1="923.306" y2="923.306" gradientUnits="userSpaceOnUse"><stop offset="0" stop-color="#dae7f5" class="stopColordae0f5 svgShape"></stop><stop offset="1" stop-color="#ffffff" class="stopColorffffff svgShape"></stop></linearGradient><linearGradient id="at" x1="1036.905" x2="1068.581" y1="881.738" y2="881.738" xlink:href="#j"></linearGradient><linearGradient id="k" x1="484.091" x2="688.402" y1="1023.848" y2="1023.848" gradientTransform="translate(32.395)" gradientUnits="userSpaceOnUse"><stop offset="0" stop-color="#d1e2f3" class="stopColord1d7f3 svgShape"></stop><stop offset=".308" stop-color="#dbe8f6" class="stopColordbdff6 svgShape"></stop><stop offset=".822" stop-color="#f4f8fc" class="stopColorf4f6fc svgShape"></stop><stop offset="1" stop-color="#ffffff" class="stopColorffffff svgShape"></stop></linearGradient><linearGradient id="au" x1="372.031" x2="576.342" y1="959.15" y2="959.15" xlink:href="#k"></linearGradient><linearGradient id="av" x1="259.972" x2="464.283" y1="894.452" y2="894.452" xlink:href="#k"></linearGradient><linearGradient id="aw" x1="1473.207" x2="1686.217" y1="227.611" y2="227.611" gradientTransform="matrix(-1 0 0 1 2852.223 0)" gradientUnits="userSpaceOnUse"><stop offset="0" stop-color="#f6f8fb" class="stopColorf6f6fb svgShape"></stop><stop offset=".334" stop-color="#eef3f9" class="stopColoreeeff9 svgShape"></stop><stop offset=".845" stop-color="#d9e7f5" class="stopColord9def5 svgShape"></stop><stop offset="1" stop-color="#d1e2f3" class="stopColord1d7f3 svgShape"></stop></linearGradient><linearGradient id="ax" x1="1586.031" x2="1642.034" y1="180.23" y2="180.23" gradientTransform="matrix(-1 0 0 1 2852.223 0)" gradientUnits="userSpaceOnUse"><stop offset="0" stop-color="#cee3f8" class="stopColorced3f8 svgShape"></stop><stop offset="1" stop-color="#bbd0e6" class="stopColorbbc0e6 svgShape"></stop></linearGradient><linearGradient id="ay" x1="1275.661" x2="1551.924" y1="807.351" y2="807.351" xlink:href="#l"></linearGradient><linearGradient id="az" x1="1385.584" x2="1402.054" y1="762.64" y2="791.167" xlink:href="#m"></linearGradient><linearGradient id="aA" x1="1291.97" x2="1323.646" y1="750.092" y2="750.092" xlink:href="#j"></linearGradient><linearGradient id="aB" x1="1370.215" x2="1463.344" y1="791.167" y2="791.167" xlink:href="#j"></linearGradient><radialGradient id="n" cx="520.163" cy="602.329" r="79.245" gradientUnits="userSpaceOnUse"><stop offset="0" stop-color="#857eef" class="stopColor7e7eef svgShape"></stop><stop offset="1" stop-color="#62318b" class="stopColor34318b svgShape"></stop></radialGradient><radialGradient id="H" cx="1016.045" cy="316.03" r="79.245" xlink:href="#n"></radialGradient><radialGradient id="J" cx="769.107" cy="746.054" r="79.245" xlink:href="#n"></radialGradient><radialGradient id="L" cx="1264.989" cy="459.755" r="79.245" xlink:href="#n"></radialGradient></defs><g style="isolation:isolate" fill="#f4f6f8" class="color000000 svgShape"><g fill="#f4f6f8" class="color000000 svgShape"><g data-name="Car rear" fill="#f4f6f8" class="color000000 svgShape"><path style="mix-blend-mode:multiply" fill="url(#a)" d="m522.897 566.255 7.52-4.343h-71.551l35.668 20.593-35.668 20.595h95.604l55.056-31.784-8.764-5.061h-77.865z"></path><path style="mix-blend-mode:multiply" fill="url(#o)" d="M589.088 525.07h-66.191l35.667 20.593-35.667 20.592h95.604l20.983-12.113-50.396-29.072z"></path><path style="mix-blend-mode:multiply" fill="url(#p)" d="m458.866 603.1 7.522-4.345h-71.553l35.668 20.59-35.668 20.592h75.632l54.94-31.719-8.863-5.118h-57.678z"></path><path style="mix-blend-mode:multiply" fill="url(#q)" d="m394.835 639.937 7.522-4.34h-71.548l35.663 20.592-35.663 20.593h49.678l54.838-31.657-8.977-5.188h-31.513z"></path><path fill="#cee1f4" d="m487.235 423.444 35.662 20.593v122.218l-35.662-20.592V423.444z" class="colorced2f4 svgShape"></path><path fill="#bbcee2" d="m558.564 423.444-35.667 20.593v122.218l35.667-20.592V423.444z" class="colorbbbfe2 svgShape"></path><path fill="#f6f8fb" d="m522.897 402.854-35.662 20.59 35.662 20.593 35.667-20.593-35.667-20.59z" class="colorf6f6fb svgShape"></path><path fill="#ff5ae1" d="m487.235 389.688 35.662 20.593v33.756l-35.662-20.593v-33.756z" class="colorff5a72 svgShape"></path><path fill="#e33cc5" d="m558.564 389.688-35.667 20.593v33.756l35.667-20.593v-33.756z" class="colore33c5c svgShape"></path><path fill="#ff6ae4" d="m522.897 369.099-35.662 20.589 35.662 20.593 35.667-20.593-35.667-20.589z" class="colorff826a svgShape"></path><path fill="#662e94" d="m423.202 488.226 35.664 20.597V603.1l-35.664-20.595v-94.279z" class="color362e94 svgShape"></path><path fill="#193f6f" d="m494.534 488.226-35.668 20.597V603.1l35.668-20.595v-94.279z" class="color20196f svgShape"></path><path fill="#5046e4" d="m458.866 467.64-35.664 20.586 35.664 20.597 35.668-20.597-35.668-20.586z" class="color5652cc svgShape"></path><path fill="#ff5ae1" d="m423.202 462.462 35.664 20.597v25.764l-35.664-20.595v-25.766z" class="colorff5a72 svgShape"></path><path fill="#e33cc5" d="m494.534 462.462-35.668 20.597v25.764l35.668-20.595v-25.766z" class="colore33c5c svgShape"></path><path fill="#ff6ae4" d="m458.866 441.877-35.664 20.585 35.664 20.597 35.668-20.597-35.668-20.585z" class="colorff826a svgShape"></path><path fill="#5046e4" d="m359.171 545.663 35.664 20.592v73.682l-35.664-20.592v-73.682z" class="color5652cc svgShape"></path><path fill="#6822a2" d="m430.503 545.663-35.668 20.592v73.682l35.668-20.592v-73.682z" class="color423eaf svgShape"></path><path fill="#857dfb" d="m394.835 525.072-35.664 20.591 35.664 20.592 35.668-20.592-35.668-20.591z" class="color807dfb svgShape"></path><path fill="#ff5ae1" d="m359.171 536.149 35.664 20.593v9.513l-35.664-20.592v-9.514z" class="colorff5a72 svgShape"></path><path fill="#e33cc5" d="m430.503 536.149-35.668 20.593v9.513l35.668-20.592v-9.514z" class="colore33c5c svgShape"></path><path fill="#ff6ae4" d="m394.835 515.559-35.664 20.59 35.664 20.593 35.668-20.593-35.668-20.59z" class="colorff826a svgShape"></path><path fill="#ff5ae1" d="m295.141 606.187 35.668 20.592v50.003l-35.668-20.593v-50.002z" class="colorff5a72 svgShape"></path><path fill="#e33cc5" d="m366.472 606.187-35.663 20.592v50.003l35.663-20.593v-50.002z" class="colore33c5c svgShape"></path><path fill="#ff6ae4" d="m330.809 585.594-35.668 20.593 35.668 20.592 35.663-20.592-35.663-20.593z" class="colorff826a svgShape"></path><path d="M1559.415 377.095c-13.09-7.558-30.495-11.04-47.591-10.531h-26.795v4.392a71.046 71.046 0 0 0-14.18 6.139c-24.365 14.17-24.225 37.137.3 51.301a71.311 71.311 0 0 0 13.88 6.017v4.592h32.14c15.455-.261 30.781-3.767 42.539-10.601 24.375-14.172 24.25-37.139-.293-51.31Z" style="mix-blend-mode:multiply" fill="url(#r)"></path><path d="M1514.388 450.636c-13.113-7.573-30.544-11.065-47.668-10.551h-32.02v4.399a70.87 70.87 0 0 0-14.206 6.152c-24.405 14.192-24.262 37.199.305 51.382a71.335 71.335 0 0 0 13.9 6.029v4.597h37.374c15.48-.264 30.83-3.773 42.606-10.617 24.416-14.192 24.292-37.199-.291-51.391Z" style="mix-blend-mode:multiply" fill="url(#b)"></path><path d="M1436.99 386.862c-13.112-7.573-30.543-11.065-47.667-10.552h-54.267v4.4a70.855 70.855 0 0 0-14.205 6.152c-24.405 14.192-24.263 37.198.305 51.382a71.342 71.342 0 0 0 13.9 6.028v4.597h59.62c15.48-.263 30.83-3.772 42.606-10.617 24.416-14.192 24.292-37.198-.292-51.39Z" style="mix-blend-mode:multiply" fill="url(#s)"></path><path fill="#92c8ff" d="M1423.971 386.11c-.002-9.06 5.985-18.125 17.963-25.041 11.978-6.912 27.674-10.372 43.372-10.372 15.696 0 31.392 3.46 43.368 10.372 11.976 6.916 17.967 15.976 17.969 25.04.003 9.06-5.985 18.127-17.969 25.042-11.974 6.915-27.668 10.373-43.364 10.373s-31.394-3.458-43.372-10.373c-11.978-6.915-17.965-15.981-17.967-25.041Z" class="colorffac92 svgShape"></path><path fill="url(#c)" d="M1528.674 411.151c-11.974 6.915-27.668 10.373-43.364 10.373s-31.394-3.458-43.372-10.373c-11.978-6.915-17.965-15.981-17.967-25.041v17.485c.002 9.06 5.99 18.122 17.967 25.035 11.978 6.917 27.676 10.375 43.372 10.375s31.39-3.456 43.364-10.369c11.984-6.917 17.972-15.981 17.969-25.047v-17.48c.003 9.06-5.985 18.127-17.969 25.042Z"></path><path fill="#ff6ae4" d="M1450.088 406.446c9.726 5.613 22.473 8.427 35.222 8.427s25.493-2.814 35.218-8.427c8.976-5.177 13.8-11.848 14.49-18.628-.69-6.783-5.514-13.45-14.49-18.633-9.727-5.617-22.473-8.423-35.224-8.423-12.747 0-25.494 2.806-35.224 8.423-8.97 5.183-13.795 11.846-14.489 18.627.694 6.784 5.52 13.453 14.497 18.634Z" class="colorff826a svgShape"></path><path fill="url(#t)" d="M1450.08 369.185c9.73-5.617 22.477-8.423 35.224-8.423 12.75 0 25.497 2.806 35.224 8.423 8.976 5.183 13.8 11.85 14.49 18.633a16.098 16.098 0 0 0 .103-1.708c0-7.36-4.864-14.72-14.593-20.334-9.727-5.614-22.473-8.426-35.224-8.426-12.747 0-25.494 2.812-35.224 8.426-9.725 5.615-14.587 12.974-14.587 20.334a15.904 15.904 0 0 0 .098 1.702c.694-6.781 5.52-13.444 14.489-18.627Z"></path><path fill="#e33cc5" d="m1509.846 378.797 4.713-2.721v-3.405l-4.713 2.717v3.409z" class="colore33c5c svgShape"></path><path fill="#92c8ff" d="M1488.114 384.493c-1.756-1.016-2.728-2.365-2.728-3.8 0-1.432.972-2.782 2.728-3.797a14.548 14.548 0 0 1 13.155 0c3.628 2.094 3.628 5.503 0 7.597l5.97 3.443c5.888-3.4 6.748-8.61 2.607-12.548l4.713-2.717-5.97-3.449-4.71 2.721c-6.821-2.389-15.846-1.891-21.735 1.512-3.356 1.931-5.198 4.503-5.198 7.238 0 2.737 1.844 5.31 5.198 7.243 3.628 2.096 3.63 5.503 0 7.597a14.563 14.563 0 0 1-13.16 0c-3.625-2.094-3.625-5.5.003-7.597l-5.964-3.443c-5.892 3.4-6.753 8.61-2.619 12.549l-4.343 2.508 5.971 3.447 4.347-2.51c6.823 2.386 15.846 1.897 21.735-1.503 6.917-3.997 6.917-10.495 0-14.49Z" class="colorffac92 svgShape"></path><path fill="#ff5ae1" d="m1456.061 402.96 5.971 3.446v-3.409l-5.971-3.447v3.41z" class="colorff5a72 svgShape"></path><path fill="#e33cc5" d="m1462.032 406.406 4.347-2.51v-3.41l-4.347 2.511v3.409z" class="colore33c5c svgShape"></path><path fill="#ff5ae1" d="m1501.269 387.901 5.97 3.445v-3.41l-5.97-3.443v3.408z" class="colorff5a72 svgShape"></path><path fill="#e33cc5" d="M1468.987 391.346v-3.41c-2.574 1.489-3.312 3.636-2.232 5.503a5.915 5.915 0 0 1 2.232-2.093Z" class="colore33c5c svgShape"></path><path fill="#ff5ae1" d="m1457.84 391.564.008 3.84.01-.008a6.557 6.557 0 0 0 .74 2.69l1.806-1.044a7.328 7.328 0 0 1-2.552-5.468ZM1482.144 391.344a5.91 5.91 0 0 1 2.234 2.095c1.077-1.867.336-4.014-2.234-5.503-3.354-1.933-5.198-4.506-5.198-7.243v3.411c0 2.735 1.844 5.305 5.198 7.24Z" class="colorff5a72 svgShape"></path><path fill="#fb05ce" d="M1493.302 391.72v-.07h-.008c0 .022.008.044.008.07Z" class="colorfbba05 svgShape"></path><path fill="#e33cc5" d="M1512.402 380.689c.008 2.627-1.701 5.252-5.163 7.247v3.41c3.55-2.05 5.257-4.753 5.16-7.442l.01.011v-3.226Z" class="colore33c5c svgShape"></path><path fill="url(#u)" d="M1488.114 398.984c-5.889 3.4-14.912 3.889-21.735 1.502v3.41c6.823 2.389 15.846 1.895 21.735-1.507 3.433-1.98 5.153-4.579 5.183-7.182l.005.008v-3.46c-.01 2.614-1.738 5.237-5.188 7.23Z"></path><path fill="#e33cc5" d="M1501.27 376.896a14.548 14.548 0 0 0-13.156 0c-1.756 1.015-2.728 2.365-2.728 3.797a3.387 3.387 0 0 0 .486 1.706 5.957 5.957 0 0 1 2.242-2.092 14.542 14.542 0 0 1 13.155-.001 5.906 5.906 0 0 1 2.234 2.093c1.08-1.871.342-4.018-2.234-5.503Z" class="colore33c5c svgShape"></path><path fill="#92c8ff" d="M1273.898 343.358c-.003-9.076 5.993-18.157 17.992-25.081 11.997-6.925 27.722-10.392 43.444-10.392 15.722 0 31.442 3.467 43.439 10.392 11.996 6.924 17.994 16 17.994 25.08.006 9.074-5.992 18.155-17.994 25.079-11.994 6.93-27.714 10.39-43.436 10.39-15.723 0-31.445-3.46-43.441-10.39-12-6.924-17.995-16.005-17.998-25.078Z" class="colorffac92 svgShape"></path><path fill="url(#d)" d="M1378.773 368.436c-11.994 6.93-27.714 10.39-43.436 10.39-15.723 0-31.445-3.46-43.441-10.39-12-6.924-17.995-16.005-17.998-25.078v17.508c.003 9.076 5.998 18.154 17.998 25.081 11.996 6.927 27.718 10.39 43.44 10.39 15.723 0 31.443-3.463 43.437-10.39 12.002-6.921 18-16.005 17.994-25.084v-17.505c.006 9.073-5.992 18.154-17.994 25.078Z"></path><path fill="url(#v)" d="M1378.773 385.947c-11.994 6.93-27.714 10.39-43.436 10.39-15.723 0-31.445-3.46-43.441-10.39-12-6.924-17.995-16.005-17.998-25.078v17.508c.003 9.076 5.998 18.154 17.998 25.081 11.996 6.927 27.718 10.39 43.44 10.39 15.723 0 31.443-3.463 43.437-10.39 12.002-6.921 18-16.005 17.994-25.084V360.87c.006 9.073-5.992 18.154-17.994 25.078Z"></path><path fill="url(#w)" d="M1378.773 403.458c-11.994 6.93-27.714 10.39-43.436 10.39-15.723 0-31.445-3.46-43.441-10.39-12-6.924-17.995-16.005-17.998-25.078v17.508c.003 9.076 5.998 18.154 17.998 25.081 11.996 6.927 27.718 10.39 43.44 10.39 15.723 0 31.443-3.463 43.437-10.39 12.002-6.921 18-16.005 17.994-25.084V378.38c.006 9.073-5.992 18.154-17.994 25.078Z"></path><path fill="url(#x)" d="M1378.773 420.969c-11.994 6.93-27.714 10.389-43.436 10.389-15.723 0-31.445-3.46-43.441-10.389-12-6.924-17.995-16.005-17.998-25.078v17.508c.003 9.076 5.998 18.154 17.998 25.081 11.996 6.927 27.718 10.39 43.44 10.39 15.723 0 31.443-3.463 43.437-10.39 12.002-6.921 18-16.005 17.994-25.084v-17.505c.006 9.073-5.992 18.154-17.994 25.078Z"></path><path fill="#ff6ae4" d="M1300.056 363.727c9.744 5.619 22.51 8.438 35.28 8.438s25.535-2.82 35.276-8.438c8.993-5.19 13.824-11.868 14.513-18.663-.69-6.792-5.52-13.466-14.513-18.662-9.743-5.628-22.512-8.436-35.28-8.436-12.77 0-25.535 2.808-35.281 8.436-8.988 5.196-13.815 11.867-14.514 18.66.699 6.794 5.526 13.471 14.52 18.665Z" class="colorff826a svgShape"></path><path fill="url(#y)" d="M1300.05 326.402c9.747-5.628 22.513-8.436 35.281-8.436 12.769 0 25.538 2.808 35.28 8.436 8.994 5.196 13.825 11.87 14.514 18.662a15.46 15.46 0 0 0 .105-1.706c0-7.375-4.872-14.744-14.618-20.369-9.743-5.627-22.512-8.44-35.28-8.44-12.77 0-25.535 2.813-35.281 8.44-9.744 5.625-14.612 12.994-14.612 20.369a16.11 16.11 0 0 0 .098 1.703c.699-6.792 5.526-13.463 14.514-18.66Z"></path><path fill="#e33cc5" d="m1359.912 336.027 4.721-2.723v-3.407l-4.721 2.717v3.413z" class="colore33c5c svgShape"></path><path fill="#92c8ff" d="M1338.145 341.734c-1.759-1.011-2.731-2.366-2.731-3.806 0-1.431.972-2.783 2.731-3.8a14.593 14.593 0 0 1 13.175-.002c3.636 2.096 3.636 5.514 0 7.608l5.982 3.45c5.897-3.4 6.76-8.624 2.61-12.57l4.72-2.717-5.978-3.46-4.72 2.729c-6.829-2.39-15.869-1.893-21.768 1.516-3.36 1.932-5.204 4.507-5.204 7.246 0 2.742 1.843 5.322 5.204 7.257 3.632 2.102 3.638 5.512 0 7.608a14.579 14.579 0 0 1-13.18 0c-3.633-2.096-3.633-5.506.002-7.608l-5.976-3.451c-5.902 3.407-6.76 8.625-2.622 12.57l-4.352 2.512 5.982 3.457 4.355-2.517c6.834 2.39 15.874 1.901 21.77-1.503 6.93-4.01 6.93-10.51 0-14.519Z" class="colorffac92 svgShape"></path><path fill="#ff5ae1" d="m1306.038 360.234 5.982 3.451v-3.412l-5.982-3.457v3.418z" class="colorff5a72 svgShape"></path><path fill="#e33cc5" d="m1312.02 363.685 4.355-2.517v-3.412l-4.355 2.517v3.412z" class="colore33c5c svgShape"></path><path fill="#ff5ae1" d="m1351.32 345.147 5.982 3.453v-3.415l-5.982-3.451v3.413z" class="colorff5a72 svgShape"></path><path fill="#e33cc5" d="M1318.988 348.6v-3.415c-2.577 1.492-3.317 3.64-2.236 5.512a5.891 5.891 0 0 1 2.236-2.097Z" class="colore33c5c svgShape"></path><path fill="#ff5ae1" d="m1307.821 348.818.011 3.846.009-.008a6.529 6.529 0 0 0 .741 2.695l1.808-1.046a7.34 7.34 0 0 1-2.555-5.476ZM1332.166 348.598a5.898 5.898 0 0 1 2.237 2.099c1.08-1.871.34-4.02-2.237-5.512-3.36-1.935-5.204-4.515-5.204-7.257v3.421c0 2.737 1.843 5.314 5.204 7.249Z" class="colorff5a72 svgShape"></path><path fill="#fb05ce" d="M1343.341 348.977v-.074h-.003c0 .024.003.044.003.074Z" class="colorfbba05 svgShape"></path><path fill="#e33cc5" d="M1362.473 337.928c.009 2.63-1.7 5.257-5.17 7.257v3.415c3.554-2.052 5.266-4.759 5.17-7.454l.009.011v-3.229Z" class="colore33c5c svgShape"></path><path fill="url(#z)" d="M1338.145 356.253c-5.896 3.404-14.936 3.893-21.77 1.503v3.412c6.834 2.394 15.874 1.902 21.77-1.508 3.438-1.981 5.16-4.586 5.193-7.19l.003.002v-3.462c-.008 2.619-1.736 5.245-5.196 7.243Z"></path><path fill="#e33cc5" d="M1351.32 334.126a14.593 14.593 0 0 0-13.175.002c-1.759 1.017-2.731 2.369-2.731 3.8a3.442 3.442 0 0 0 .483 1.712 5.98 5.98 0 0 1 2.248-2.09 14.544 14.544 0 0 1 13.175-.01 5.907 5.907 0 0 1 2.24 2.1c1.082-1.877.343-4.022-2.24-5.514Z" class="colore33c5c svgShape"></path><path fill="#92c8ff" d="M1373.261 442.154c-.003-9.076 5.993-18.157 17.992-25.08 11.997-6.925 27.722-10.393 43.444-10.393 15.722 0 31.442 3.468 43.438 10.392 11.997 6.924 17.995 16 17.995 25.081.006 9.073-5.992 18.154-17.995 25.078-11.993 6.93-27.713 10.39-43.435 10.39-15.723 0-31.445-3.46-43.441-10.39-12-6.924-17.995-16.005-17.998-25.078Z" class="colorffac92 svgShape"></path><path fill="url(#A)" d="M1478.135 467.232c-11.993 6.93-27.713 10.39-43.435 10.39-15.723 0-31.445-3.46-43.441-10.39-12-6.924-17.995-16.005-17.998-25.078v17.508c.003 9.076 5.998 18.155 17.998 25.081 11.996 6.928 27.718 10.39 43.44 10.39 15.723 0 31.443-3.462 43.436-10.39 12.003-6.92 18.001-16.005 17.995-25.083v-17.506c.006 9.073-5.992 18.154-17.995 25.078Z"></path><path fill="url(#B)" d="M1478.135 484.743c-11.993 6.93-27.713 10.39-43.435 10.39-15.723 0-31.445-3.46-43.441-10.39-12-6.924-17.995-16.005-17.998-25.078v17.508c.003 9.076 5.998 18.154 17.998 25.081 11.996 6.928 27.718 10.39 43.44 10.39 15.723 0 31.443-3.462 43.436-10.39 12.003-6.92 18.001-16.005 17.995-25.083v-17.506c.006 9.073-5.992 18.154-17.995 25.078Z"></path><path fill="#ff6ae4" d="M1399.42 462.523c9.743 5.619 22.509 8.438 35.28 8.438 12.768 0 25.534-2.819 35.275-8.438 8.993-5.19 13.824-11.868 14.513-18.663-.69-6.792-5.52-13.466-14.513-18.662-9.743-5.627-22.512-8.435-35.28-8.435s-25.535 2.808-35.281 8.435c-8.988 5.196-13.815 11.867-14.514 18.66.699 6.795 5.526 13.472 14.52 18.665Z" class="colorff826a svgShape"></path><path fill="url(#C)" d="M1399.414 425.198c9.746-5.627 22.512-8.435 35.28-8.435s25.538 2.808 35.28 8.435c8.994 5.196 13.825 11.87 14.514 18.662a15.502 15.502 0 0 0 .105-1.706c0-7.375-4.872-14.744-14.618-20.369-9.744-5.627-22.512-8.44-35.28-8.44s-25.535 2.813-35.281 8.44c-9.744 5.625-14.613 12.994-14.613 20.369a16.06 16.06 0 0 0 .1 1.704c.698-6.793 5.525-13.464 14.513-18.66Z"></path><path fill="#e33cc5" d="m1459.275 434.823 4.721-2.723v-3.407l-4.721 2.718v3.412z" class="colore33c5c svgShape"></path><path fill="#92c8ff" d="M1437.508 440.53c-1.759-1.01-2.731-2.365-2.731-3.806 0-1.43.972-2.783 2.731-3.8a14.593 14.593 0 0 1 13.175-.002c3.635 2.096 3.635 5.514 0 7.608l5.982 3.451c5.897-3.401 6.76-8.625 2.61-12.57l4.72-2.718-5.978-3.46-4.72 2.73c-6.829-2.391-15.869-1.894-21.768 1.516-3.36 1.932-5.204 4.506-5.204 7.245 0 2.743 1.843 5.323 5.204 7.257 3.633 2.102 3.638 5.512 0 7.609a14.58 14.58 0 0 1-13.18 0c-3.633-2.097-3.633-5.507.002-7.609l-5.976-3.45c-5.902 3.406-6.76 8.624-2.622 12.57l-4.352 2.511 5.982 3.457 4.355-2.517c6.833 2.39 15.874 1.902 21.77-1.503 6.93-4.009 6.93-10.51 0-14.519Z" class="colorffac92 svgShape"></path><path fill="#ff5ae1" d="m1405.401 459.031 5.982 3.451v-3.413l-5.982-3.457v3.419z" class="colorff5a72 svgShape"></path><path fill="#e33cc5" d="m1411.383 462.482 4.355-2.517v-3.413l-4.355 2.517v3.413z" class="colore33c5c svgShape"></path><path fill="#ff5ae1" d="m1450.683 443.943 5.982 3.454v-3.416l-5.982-3.451v3.413z" class="colorff5a72 svgShape"></path><path fill="#e33cc5" d="M1418.351 447.397v-3.416c-2.577 1.492-3.317 3.641-2.236 5.512a5.89 5.89 0 0 1 2.236-2.096Z" class="colore33c5c svgShape"></path><path fill="#ff5ae1" d="m1407.184 447.614.011 3.847.009-.009a6.527 6.527 0 0 0 .741 2.696l1.808-1.047a7.34 7.34 0 0 1-2.555-5.476ZM1431.529 447.394a5.896 5.896 0 0 1 2.236 2.1c1.08-1.872.341-4.02-2.236-5.513-3.36-1.934-5.204-4.514-5.204-7.257v3.422c0 2.736 1.843 5.313 5.204 7.248Z" class="colorff5a72 svgShape"></path><path fill="#fb05ce" d="M1442.704 447.773v-.074h-.003c0 .025.003.044.003.074Z" class="colorfbba05 svgShape"></path><path fill="#e33cc5" d="M1461.836 436.724c.008 2.63-1.7 5.257-5.17 7.257v3.416c3.554-2.053 5.266-4.76 5.17-7.455l.008.011v-3.229Z" class="colore33c5c svgShape"></path><path fill="url(#D)" d="M1437.508 455.049c-5.896 3.405-14.937 3.894-21.77 1.503v3.413c6.833 2.393 15.874 1.901 21.77-1.509 3.437-1.98 5.16-4.586 5.193-7.19l.003.002v-3.462c-.008 2.619-1.736 5.246-5.196 7.243Z"></path><path fill="#e33cc5" d="M1450.683 432.922a14.593 14.593 0 0 0-13.175.003c-1.759 1.016-2.731 2.368-2.731 3.8a3.442 3.442 0 0 0 .483 1.711 5.979 5.979 0 0 1 2.248-2.09 14.544 14.544 0 0 1 13.175-.009 5.91 5.91 0 0 1 2.24 2.1c1.082-1.877.343-4.023-2.24-5.515Z" class="colore33c5c svgShape"></path><path d="M1464.066 561.291 1154.988 382.85c-19.255-11.12-50.773-11.121-70.034 0L439.923 746.378c-19.258 11.12-19.258 29.316 0 40.44l309.08 178.441c.232.132.485.246.723.378v7.972l34.881-.028c12.5-.082 40.325-2.849 49.808-8.32l267.234-154.287 76.594 44.221 62.762-36.235-76.594-44.222 299.659-173.007c19.262-11.124 19.262-29.32-.004-40.44Z" style="mix-blend-mode:multiply" fill="url(#E)"></path><path fill="#f6f8fb" d="M784.728 936.226c-19.26 11.119-50.78 11.119-70.04-.001L405.614 757.778c-19.258-11.115-19.258-29.31 0-40.433l628.058-362.608c19.26-11.123 50.777-11.121 70.034 0l309.08 178.442c19.259 11.124 19.259 29.317 0 40.435Z" class="colorf6f6fb svgShape"></path><path fill="url(#F)" d="M391.174 737.06v.428a2.18 2.18 0 0 0 0-.427Zm1036.04-183.884c0 .074.015.147.015.213a1.018 1.018 0 0 0-.015-.213Zm-14.428 20.438L784.728 936.226c-19.26 11.119-50.78 11.119-70.04-.001L405.614 757.778c-9.598-5.542-14.406-12.838-14.44-20.143v28.695c-.105 7.42 4.687 14.861 14.44 20.492l309.074 178.445c19.26 11.122 50.78 11.124 70.04.005l628.058-362.61c9.63-5.565 14.445-12.895 14.443-20.228v-29.033c0 7.328-4.816 14.655-14.443 20.213Z"></path><path fill="#f6f8fb" d="M784.728 936.226c-19.26 11.119-50.78 11.119-70.04-.001L405.614 757.778c-19.258-11.115-19.258-29.31 0-40.433l628.058-362.608c19.26-11.123 50.777-11.121 70.034 0l309.08 178.442c19.259 11.124 19.259 29.317 0 40.435Z" class="colorf6f6fb svgShape"></path><path fill="#e8eff7" d="M794.904 910.128 450.813 711.469l591.03-341.231L1385.937 568.9 794.904 910.128z" class="colore8ecf7 svgShape"></path><path fill="#bbd0e6" d="m1195.618 431.777 83.726 48.34-5.387 3.106-83.725-48.338 5.386-3.108z" class="colorbbc0e6 svgShape"></path><path fill="#cee3f8" d="M617.435 813.924c-14.319-8.264-37.543-8.264-51.861 0-14.323 8.27-14.317 21.674-.002 29.944 14.32 8.268 37.544 8.273 51.865 0 14.32-8.27 14.318-21.674-.002-29.944Zm-7.272 25.748c-10.302 5.952-27.011 5.95-37.32 0-10.302-5.95-10.302-15.598 0-21.548 10.309-5.952 27.018-5.952 37.32 0 10.305 5.95 10.308 15.597 0 21.548Z" class="colorced3f8 svgShape"></path><path style="mix-blend-mode:multiply" fill="url(#e)" d="M545.961 707.404h104.023v7.009H545.961z"></path><path fill="#62318b" d="m540.86 649.714 5.101 2.946v61.753l-5.094-2.943-.007-61.756z" class="color34318b svgShape"></path><path fill="#1c3f6b" d="m551.048 649.714-5.087 2.946v61.753l5.091-2.943-.004-61.756z" class="color1e1c6b svgShape"></path><path fill="url(#n)" d="M497.29 620.97a48.667 48.667 0 1 1 48.671 48.668 48.671 48.671 0 0 1-48.67-48.667Z"></path><path style="mix-blend-mode:multiply" fill="url(#G)" d="M1041.843 421.106h104.023v7.009h-104.023z"></path><path fill="#62318b" d="m1036.742 363.415 5.101 2.947v61.753l-5.094-2.944-.007-61.756z" class="color34318b svgShape"></path><path fill="#1c3f6b" d="m1046.93 363.415-5.087 2.947v61.753l5.091-2.944-.004-61.756z" class="color1e1c6b svgShape"></path><path fill="url(#H)" d="M993.173 334.672a48.667 48.667 0 1 1 48.67 48.667 48.671 48.671 0 0 1-48.67-48.667Z"></path><path style="mix-blend-mode:multiply" fill="url(#I)" d="M794.905 851.13h104.023v7.009H794.905z"></path><path fill="#62318b" d="m789.804 793.439 5.101 2.947v61.752l-5.094-2.943-.007-61.756z" class="color34318b svgShape"></path><path fill="#1c3f6b" d="m799.992 793.439-5.087 2.947v61.752l5.09-2.943-.003-61.756z" class="color1e1c6b svgShape"></path><path fill="url(#J)" d="M746.234 764.696a48.667 48.667 0 1 1 48.671 48.667 48.671 48.671 0 0 1-48.67-48.667Z"></path><path style="mix-blend-mode:multiply" fill="url(#K)" d="M1290.787 564.831h104.023v7.009h-104.023z"></path><path fill="#62318b" d="m1285.686 507.141 5.101 2.946v61.753l-5.094-2.943-.007-61.756z" class="color34318b svgShape"></path><path fill="#1c3f6b" d="m1295.874 507.141-5.087 2.946v61.753l5.09-2.943-.003-61.756z" class="color1e1c6b svgShape"></path><path fill="url(#L)" d="M1242.116 478.397a48.667 48.667 0 1 1 48.671 48.668 48.671 48.671 0 0 1-48.67-48.668Z"></path><path fill="#cee3f8" d="m1037.62 672.793 101.693 58.712-62.762 36.236-101.693-58.712 62.762-36.236z" class="colorced3f8 svgShape"></path><path fill="url(#f)" d="m1241.005 818.959 164.555 95.208-62.762 36.236-164.555-95.208 62.762-36.236z"></path><path fill="#bbd0e6" d="m1139.313 731.505 101.692 87.454-62.762 36.236-101.692-87.454 62.762-36.236z" class="colorbbc0e6 svgShape"></path><path style="mix-blend-mode:multiply" fill="url(#M)" d="M884.28 534.845h-6.991l199.701 115.298-170.645 98.521h6.99l170.645-98.521-199.7-115.298z"></path><path fill="#f7f9fc" d="M735.701 646.087 935.402 530.79l170.643 98.521-199.7 115.297-170.644-98.521z" class="colorf7f7fc svgShape"></path><path fill="#f7f9fc" d="m740.555 642.031 194.847-112.494 165.789 95.718L906.345 737.75l-165.79-95.719z" class="colorf7f7fc svgShape"></path><path fill="#f7f9fc" d="m745.409 637.975 189.993-109.692 160.935 92.916-189.992 109.692-160.936-92.916z" class="colorf7f7fc svgShape"></path><path fill="#6822a2" d="m906.345 724.033 185.138-106.89v4.056l-185.138 106.89v-4.056z" class="color423eaf svgShape"></path><path fill="#6f67e9" d="m906.345 724.033-156.082-90.115v4.056l156.082 90.115v-4.056z" class="color6b67e9 svgShape"></path><path fill="#6822a2" d="m906.345 730.891 189.992-109.692v4.056L906.345 734.947v-4.056z" class="color423eaf svgShape"></path><path fill="#6f67e9" d="m906.345 730.891-160.937-92.917v4.056l160.937 92.917v-4.056z" class="color6b67e9 svgShape"></path><path fill="#6822a2" d="m906.345 737.75 194.846-112.495v4.056L906.345 741.806v-4.056zM906.345 744.608l199.7-115.297v4.056l-199.7 115.297v-4.056z" class="color423eaf svgShape"></path><path fill="#6f67e9" d="M906.345 744.608 735.7 646.087v4.056l170.645 98.521v-4.056zM906.345 737.75l-165.791-95.72v4.057l165.791 95.719v-4.056z" class="color6b67e9 svgShape"></path><path fill="#f7f9fc" d="M750.264 633.919 935.402 527.03l156.081 90.113-185.138 106.89-156.081-90.114z" class="colorf7f7fc svgShape"></path><path style="mix-blend-mode:multiply" fill="url(#g)" d="M906.345 728.089h4.854l185.138-106.89-4.854-2.801v2.801l-185.138 106.89z"></path><path style="mix-blend-mode:multiply" fill="url(#N)" d="M906.345 734.947h4.854l189.992-109.692-4.854-2.801v2.801L906.345 734.947z"></path><path style="mix-blend-mode:multiply" fill="url(#O)" d="M906.345 741.806h4.854l194.846-112.495-4.854-2.801v2.801L906.345 741.806z"></path><path d="M1076.92 608.735a25.313 25.313 0 0 0-3.771-.295h-21.365v17.406h21.365a25.305 25.305 0 0 0 3.77-.295l14.564-8.408Z" style="mix-blend-mode:multiply" fill="url(#P)"></path><path d="M1055.941 630.856h-11.12a23.694 23.694 0 0 0-8.109-1.378h-21.364v17.405h21.364a23.698 23.698 0 0 0 8.11-1.377h11.12Z" style="mix-blend-mode:multiply" fill="url(#Q)"></path><path d="M1019.338 651.894h-11.12a23.694 23.694 0 0 0-8.11-1.378h-21.364v17.405h21.365a23.697 23.697 0 0 0 8.11-1.377h11.119Z" style="mix-blend-mode:multiply" fill="url(#R)"></path><path d="M983.067 672.931h-11.12a23.696 23.696 0 0 0-8.109-1.377h-21.364v17.405h21.364a23.698 23.698 0 0 0 8.11-1.378h11.12Z" style="mix-blend-mode:multiply" fill="url(#S)"></path><path fill="#662e94" d="m1016.658 514.274-110.313 63.689v104.433l110.313-63.689V514.274z" class="color362e94 svgShape"></path><path fill="#6f67e9" d="m825.088 531.049 81.257 46.914v104.433l-81.257-46.914V531.049z" class="color6b67e9 svgShape"></path><path style="mix-blend-mode:multiply" fill="url(#T)" d="m1091.483 617.143-113.021 65.253h-72.118l110.315-63.69v-44.763l74.824 43.2z"></path><path d="M839.18 630.856h-11.12a23.7 23.7 0 0 0-8.109-1.378h-21.364v17.406h21.364a23.697 23.697 0 0 0 8.11-1.378h11.12Z" style="mix-blend-mode:multiply" fill="url(#U)"></path><path fill="#f7f9fc" d="M787.929 623.36a23.559 23.559 0 0 1 21.317 0c2.943 1.699 4.415 3.926 4.415 6.153 0 2.227-1.472 4.455-4.415 6.154a23.557 23.557 0 0 1-21.317 0c-2.944-1.7-4.415-3.927-4.415-6.154s1.471-4.454 4.415-6.153Z" class="colorf7f7fc svgShape"></path><path d="M798.587 637h7.58a17.14 17.14 0 0 0 3.079-1.333c2.943-1.7 4.414-3.927 4.414-6.154 0-1.953-1.133-3.906-3.397-5.503h-11.676Z" style="mix-blend-mode:multiply" fill="#d3e2f2" class="colord3d8f2 svgShape"></path><path fill="url(#h)" d="M787.929 635.667a23.557 23.557 0 0 0 21.317 0c2.943-1.7 4.415-3.927 4.415-6.154v8.668c0 2.227-1.472 4.454-4.415 6.154a23.56 23.56 0 0 1-21.317 0c-2.944-1.7-4.415-3.927-4.415-6.154v-8.668c0 2.227 1.471 4.455 4.415 6.154Z"></path><path fill="url(#V)" d="M811.554 543.98v85.533c0 1.916-1.267 3.832-3.798 5.294a20.264 20.264 0 0 1-18.337 0c-2.532-1.462-3.798-3.378-3.798-5.294V543.98Z"></path><path fill="#ffffff" d="M789.419 538.686a20.264 20.264 0 0 1 18.337 0c2.532 1.461 3.798 3.377 3.798 5.293 0 1.916-1.267 3.832-3.798 5.294a20.266 20.266 0 0 1-18.337 0c-2.532-1.462-3.798-3.378-3.798-5.294s1.266-3.831 3.798-5.293Z" class="colorffffff svgShape"></path><path fill="#f7f9fc" d="M787.929 529.158a23.56 23.56 0 0 1 21.317 0c2.943 1.7 4.415 3.926 4.415 6.153 0 2.228-1.472 4.455-4.415 6.154a23.559 23.559 0 0 1-21.317 0c-2.944-1.7-4.415-3.926-4.415-6.153s1.471-4.455 4.415-6.154Z" class="colorf7f7fc svgShape"></path><path d="M874.997 651.894h-11.12a23.698 23.698 0 0 0-8.109-1.378h-21.364v17.405h21.364a23.696 23.696 0 0 0 8.11-1.377h11.12Z" style="mix-blend-mode:multiply" fill="url(#W)"></path><path fill="#f7f9fc" d="M823.745 644.397a23.56 23.56 0 0 1 21.317 0c2.944 1.7 4.415 3.927 4.415 6.154s-1.471 4.454-4.415 6.154a23.556 23.556 0 0 1-21.317 0c-2.943-1.7-4.414-3.927-4.414-6.154s1.471-4.454 4.414-6.154Z" class="colorf7f7fc svgShape"></path><path d="M834.404 658.037h7.579a17.122 17.122 0 0 0 3.08-1.332c2.943-1.7 4.414-3.927 4.414-6.154 0-1.953-1.133-3.906-3.397-5.504h-11.676Z" style="mix-blend-mode:multiply" fill="#d3e2f2" class="colord3d8f2 svgShape"></path><path fill="url(#X)" d="M823.745 656.705a23.556 23.556 0 0 0 21.317 0c2.944-1.7 4.415-3.927 4.415-6.154v8.668c0 2.227-1.471 4.454-4.415 6.153a23.56 23.56 0 0 1-21.317 0c-2.943-1.699-4.415-3.926-4.415-6.153v-8.668c0 2.227 1.472 4.454 4.415 6.154Z"></path><path fill="url(#Y)" d="M847.37 565.017v85.534c0 1.916-1.266 3.832-3.798 5.293a20.264 20.264 0 0 1-18.337 0c-2.532-1.461-3.797-3.377-3.797-5.293v-85.534Z"></path><path fill="#ffffff" d="M825.235 559.724a20.264 20.264 0 0 1 18.337 0c2.532 1.461 3.798 3.377 3.798 5.293 0 1.916-1.266 3.832-3.798 5.293a20.265 20.265 0 0 1-18.337 0c-2.532-1.461-3.797-3.377-3.797-5.293 0-1.916 1.265-3.832 3.797-5.293Z" class="colorffffff svgShape"></path><path fill="#f7f9fc" d="M823.745 550.196a23.56 23.56 0 0 1 21.317 0c2.944 1.699 4.415 3.926 4.415 6.153s-1.471 4.455-4.415 6.154a23.56 23.56 0 0 1-21.317 0c-2.943-1.7-4.414-3.926-4.414-6.154 0-2.227 1.471-4.454 4.414-6.153Z" class="colorf7f7fc svgShape"></path><path d="M910.814 672.931h-11.12a23.694 23.694 0 0 0-8.109-1.377h-21.364v17.405h21.364a23.697 23.697 0 0 0 8.11-1.378h11.12Z" style="mix-blend-mode:multiply" fill="url(#Z)"></path><path fill="#f7f9fc" d="M859.562 665.435a23.56 23.56 0 0 1 21.317 0c2.943 1.7 4.415 3.927 4.415 6.154s-1.472 4.454-4.415 6.153a23.559 23.559 0 0 1-21.317 0c-2.943-1.699-4.415-3.926-4.415-6.153 0-2.227 1.472-4.455 4.415-6.154Z" class="colorf7f7fc svgShape"></path><path d="M870.22 679.075h7.58a17.114 17.114 0 0 0 3.079-1.333c2.943-1.699 4.415-3.926 4.415-6.153 0-1.954-1.133-3.907-3.397-5.504H870.22Z" style="mix-blend-mode:multiply" fill="#d3e2f2" class="colord3d8f2 svgShape"></path><path fill="url(#aa)" d="M859.562 677.742a23.559 23.559 0 0 0 21.317 0c2.943-1.699 4.415-3.926 4.415-6.153v8.667c0 2.228-1.472 4.455-4.415 6.154a23.56 23.56 0 0 1-21.317 0c-2.943-1.7-4.415-3.926-4.415-6.154v-8.667c0 2.227 1.472 4.454 4.415 6.153Z"></path><path fill="url(#ab)" d="M883.187 586.055v85.534c0 1.916-1.266 3.831-3.798 5.293a20.264 20.264 0 0 1-18.337 0c-2.532-1.462-3.798-3.377-3.798-5.293v-85.534Z"></path><path fill="#ffffff" d="M861.052 580.761a20.264 20.264 0 0 1 18.337 0c2.532 1.462 3.798 3.378 3.798 5.294 0 1.915-1.266 3.831-3.798 5.293a20.264 20.264 0 0 1-18.337 0c-2.532-1.461-3.798-3.377-3.798-5.293 0-1.916 1.266-3.832 3.798-5.294Z" class="colorffffff svgShape"></path><path fill="#f7f9fc" d="M859.562 571.233a23.558 23.558 0 0 1 21.317 0c2.943 1.7 4.415 3.927 4.415 6.154s-1.472 4.454-4.415 6.154a23.56 23.56 0 0 1-21.317 0c-2.943-1.7-4.415-3.927-4.415-6.154s1.472-4.454 4.415-6.154Z" class="colorf7f7fc svgShape"></path><path d="M946.63 693.97h-11.12a23.695 23.695 0 0 0-8.109-1.378h-21.364v17.405h21.364a23.695 23.695 0 0 0 8.11-1.378h11.12Z" style="mix-blend-mode:multiply" fill="url(#ac)"></path><path fill="#f7f9fc" d="M895.379 686.473a23.56 23.56 0 0 1 21.317 0c2.943 1.7 4.414 3.926 4.414 6.153 0 2.228-1.471 4.455-4.414 6.154a23.558 23.558 0 0 1-21.317 0c-2.944-1.699-4.415-3.926-4.415-6.153 0-2.227 1.471-4.455 4.415-6.154Z" class="colorf7f7fc svgShape"></path><path d="M906.037 700.113h7.58a17.125 17.125 0 0 0 3.078-1.333c2.944-1.699 4.415-3.926 4.415-6.153 0-1.954-1.133-3.907-3.397-5.504h-11.676Z" style="mix-blend-mode:multiply" fill="#d3e2f2" class="colord3d8f2 svgShape"></path><path fill="url(#ad)" d="M895.379 698.78a23.558 23.558 0 0 0 21.317 0c2.943-1.699 4.414-3.926 4.414-6.153v8.667c0 2.227-1.471 4.455-4.414 6.154a23.56 23.56 0 0 1-21.317 0c-2.944-1.7-4.415-3.927-4.415-6.154v-8.667c0 2.227 1.471 4.454 4.415 6.153Z"></path><path fill="url(#ae)" d="M919.003 607.092v85.535c0 1.916-1.266 3.831-3.797 5.293a20.263 20.263 0 0 1-18.337 0c-2.532-1.462-3.798-3.378-3.798-5.293v-85.535Z"></path><path fill="#ffffff" d="M896.869 601.799a20.266 20.266 0 0 1 18.337 0c2.532 1.462 3.797 3.378 3.797 5.293s-1.266 3.832-3.797 5.294a20.264 20.264 0 0 1-18.337 0c-2.532-1.462-3.798-3.378-3.798-5.294 0-1.915 1.266-3.831 3.798-5.293Z" class="colorffffff svgShape"></path><path fill="#f7f9fc" d="M895.379 592.271a23.558 23.558 0 0 1 21.317 0c2.943 1.7 4.414 3.927 4.414 6.154s-1.471 4.454-4.414 6.154a23.56 23.56 0 0 1-21.317 0c-2.944-1.7-4.415-3.927-4.415-6.154s1.471-4.455 4.415-6.154ZM931.815 665.435a23.56 23.56 0 0 1 21.318 0c2.943 1.7 4.414 3.927 4.414 6.154s-1.471 4.454-4.415 6.153a23.558 23.558 0 0 1-21.317 0c-2.943-1.699-4.414-3.926-4.414-6.153 0-2.227 1.471-4.455 4.414-6.154Z" class="colorf7f7fc svgShape"></path><path d="M942.474 679.075h7.58a17.12 17.12 0 0 0 3.078-1.333c2.944-1.699 4.415-3.926 4.415-6.153 0-1.954-1.133-3.907-3.397-5.504h-11.676Z" style="mix-blend-mode:multiply" fill="#d3e2f2" class="colord3d8f2 svgShape"></path><path fill="url(#af)" d="M931.815 677.742a23.558 23.558 0 0 0 21.317 0c2.944-1.699 4.415-3.926 4.415-6.153v8.667c0 2.228-1.471 4.455-4.415 6.154a23.56 23.56 0 0 1-21.317 0c-2.943-1.7-4.415-3.926-4.415-6.154v-8.667c0 2.227 1.472 4.454 4.415 6.153Z"></path><path fill="url(#ag)" d="M955.44 586.055v85.534c0 1.916-1.266 3.831-3.797 5.293a20.264 20.264 0 0 1-18.338 0c-2.531-1.462-3.797-3.377-3.797-5.293v-85.534Z"></path><path fill="#ffffff" d="M933.305 580.761a20.264 20.264 0 0 1 18.338 0c2.531 1.462 3.797 3.378 3.797 5.294 0 1.915-1.266 3.831-3.797 5.293a20.264 20.264 0 0 1-18.338 0c-2.531-1.461-3.797-3.377-3.797-5.293 0-1.916 1.266-3.832 3.797-5.294Z" class="colorffffff svgShape"></path><path fill="#f7f9fc" d="M931.815 571.233a23.559 23.559 0 0 1 21.318 0c2.943 1.7 4.414 3.927 4.414 6.154s-1.471 4.454-4.415 6.154a23.56 23.56 0 0 1-21.317 0c-2.943-1.7-4.414-3.927-4.414-6.154s1.471-4.454 4.414-6.154ZM968.252 644.397a23.56 23.56 0 0 1 21.317 0c2.944 1.7 4.415 3.927 4.415 6.154s-1.471 4.454-4.415 6.154a23.556 23.556 0 0 1-21.317 0c-2.943-1.7-4.415-3.927-4.415-6.154s1.472-4.454 4.415-6.154Z" class="colorf7f7fc svgShape"></path><path d="M978.91 658.037h7.58a17.134 17.134 0 0 0 3.08-1.332c2.943-1.7 4.414-3.927 4.414-6.154 0-1.953-1.133-3.906-3.397-5.504H978.91Z" style="mix-blend-mode:multiply" fill="#d3e2f2" class="colord3d8f2 svgShape"></path><path fill="url(#ah)" d="M968.252 656.705a23.557 23.557 0 0 0 21.317 0c2.943-1.7 4.415-3.927 4.415-6.154v8.668c0 2.227-1.472 4.454-4.415 6.153a23.56 23.56 0 0 1-21.317 0c-2.943-1.699-4.415-3.926-4.415-6.153v-8.668c0 2.227 1.472 4.454 4.415 6.154Z"></path><path fill="url(#ai)" d="M991.877 565.017v85.534c0 1.916-1.266 3.832-3.798 5.293a20.264 20.264 0 0 1-18.337 0c-2.532-1.461-3.797-3.377-3.797-5.293v-85.534Z"></path><path fill="#ffffff" d="M969.742 559.724a20.264 20.264 0 0 1 18.337 0c2.532 1.461 3.798 3.377 3.798 5.293 0 1.916-1.266 3.832-3.798 5.293a20.266 20.266 0 0 1-18.337 0c-2.532-1.461-3.797-3.377-3.797-5.293 0-1.916 1.265-3.832 3.797-5.293Z" class="colorffffff svgShape"></path><path fill="#f7f9fc" d="M968.252 550.196a23.56 23.56 0 0 1 21.317 0c2.944 1.699 4.415 3.926 4.415 6.153s-1.471 4.455-4.415 6.154a23.56 23.56 0 0 1-21.317 0c-2.943-1.7-4.415-3.926-4.415-6.154 0-2.227 1.472-4.454 4.415-6.153ZM1004.69 623.36a23.558 23.558 0 0 1 21.316 0c2.943 1.699 4.415 3.926 4.415 6.153 0 2.227-1.472 4.455-4.415 6.154a23.557 23.557 0 0 1-21.317 0c-2.943-1.7-4.415-3.927-4.415-6.154s1.472-4.454 4.415-6.153Z" class="colorf7f7fc svgShape"></path><path d="M1015.347 637h7.58a17.134 17.134 0 0 0 3.079-1.333c2.943-1.7 4.415-3.927 4.415-6.154 0-1.953-1.134-3.906-3.398-5.503h-11.676Z" style="mix-blend-mode:multiply" fill="#d3e2f2" class="colord3d8f2 svgShape"></path><path fill="url(#aj)" d="M1004.689 635.667a23.557 23.557 0 0 0 21.317 0c2.943-1.7 4.415-3.927 4.415-6.154v8.668c0 2.227-1.472 4.454-4.415 6.154a23.56 23.56 0 0 1-21.317 0c-2.943-1.7-4.415-3.927-4.415-6.154v-8.668c0 2.227 1.472 4.455 4.415 6.154Z"></path><path fill="url(#ak)" d="M1028.314 543.98v85.533c0 1.916-1.266 3.832-3.798 5.294a20.264 20.264 0 0 1-18.337 0c-2.532-1.462-3.798-3.378-3.798-5.294V543.98Z"></path><path fill="#ffffff" d="M1006.179 538.686a20.264 20.264 0 0 1 18.337 0c2.532 1.461 3.798 3.377 3.798 5.293 0 1.916-1.266 3.832-3.798 5.294a20.266 20.266 0 0 1-18.337 0c-2.532-1.462-3.798-3.378-3.798-5.294 0-1.916 1.266-3.831 3.798-5.293Z" class="colorffffff svgShape"></path><path fill="#f7f9fc" d="M1004.69 529.158a23.56 23.56 0 0 1 21.316 0c2.943 1.7 4.415 3.926 4.415 6.153 0 2.228-1.472 4.455-4.415 6.154a23.558 23.558 0 0 1-21.317 0c-2.943-1.7-4.415-3.926-4.415-6.153s1.472-4.455 4.415-6.154ZM1041.126 602.322a23.558 23.558 0 0 1 21.317 0c2.943 1.699 4.415 3.926 4.415 6.154 0 2.227-1.472 4.454-4.415 6.153a23.56 23.56 0 0 1-21.317 0c-2.943-1.699-4.415-3.926-4.415-6.153 0-2.228 1.472-4.455 4.415-6.154Z" class="colorf7f7fc svgShape"></path><path d="M1051.784 615.962h7.58a17.14 17.14 0 0 0 3.079-1.333c2.943-1.699 4.415-3.926 4.415-6.153 0-1.954-1.134-3.907-3.398-5.504h-11.676Z" style="mix-blend-mode:multiply" fill="#d3e2f2" class="colord3d8f2 svgShape"></path><path fill="url(#al)" d="M1041.126 614.63a23.558 23.558 0 0 0 21.317 0c2.943-1.7 4.415-3.927 4.415-6.154v8.667c0 2.227-1.472 4.455-4.415 6.154a23.558 23.558 0 0 1-21.317 0c-2.943-1.7-4.415-3.927-4.415-6.154v-8.667c0 2.227 1.472 4.454 4.415 6.153Z"></path><path fill="url(#am)" d="M1064.75 522.941v85.535c0 1.915-1.265 3.831-3.797 5.293a20.266 20.266 0 0 1-18.337 0c-2.532-1.462-3.798-3.378-3.798-5.293V522.94Z"></path><path fill="#ffffff" d="M1042.616 517.648a20.264 20.264 0 0 1 18.337 0c2.532 1.462 3.798 3.377 3.798 5.293 0 1.916-1.266 3.832-3.798 5.294a20.267 20.267 0 0 1-18.337 0c-2.532-1.462-3.798-3.378-3.798-5.294s1.266-3.831 3.798-5.293Z" class="colorffffff svgShape"></path><path fill="#f7f9fc" d="M1041.126 508.12a23.56 23.56 0 0 1 21.317 0c2.943 1.7 4.415 3.926 4.415 6.154 0 2.227-1.472 4.454-4.415 6.153a23.558 23.558 0 0 1-21.317 0c-2.943-1.699-4.415-3.926-4.415-6.153s1.472-4.455 4.415-6.154Z" class="colorf7f7fc svgShape"></path><path fill="#f7f9fc" d="M750.263 525.003 935.4 418.114l156.082 90.113-185.138 106.889-156.081-90.113z" class="colorf7f7fc svgShape"></path><path fill="#6822a2" d="m906.345 615.117 185.138-106.889v6.046L906.345 621.163v-6.046z" class="color423eaf svgShape"></path><path fill="#6f67e9" d="m906.345 615.117-156.082-90.114v6.046l156.082 90.114v-6.046z" class="color6b67e9 svgShape"></path><path fill="#a3b9d0" d="m1084.889 501.029-89.272-2.469-89.272 105.552v7.153l178.544-103.083v-7.153z" class="colora3a9d0 svgShape"></path><path fill="#cee3f8" d="m846.128 412.252-89.272 105.553 149.489 86.307 89.272-105.552-149.489-86.308z" class="colorced3f8 svgShape"></path><path fill="#bbd0e6" d="M756.856 517.805v7.152l149.489 86.308v-7.153l-149.489-86.307z" class="colorbbc0e6 svgShape"></path><path fill="#dae7f5" d="m935.4 414.722-89.272-2.47 149.489 86.308 89.272 2.469L935.4 414.722z" class="colordae0f5 svgShape"></path><path style="mix-blend-mode:multiply" fill="url(#an)" d="M906.345 611.265h6.672l178.466-103.037-6.594-3.807v3.761L906.345 611.265z"></path><path fill="#c62caa" d="M1010.216 522.62c0-9.309-6.536-13.082-14.599-8.428-8.062 4.655-14.598 15.976-14.598 25.285s6.536 13.084 14.598 8.429c8.063-4.655 14.599-15.976 14.599-25.285Z" class="colorc62c51 svgShape"></path><path fill="#ff5ae1" d="M995.619 530.249a1.559 1.559 0 0 1-2.56-1.477 5.67 5.67 0 0 1 2.559-4.433c1.411-.816 2.561-.152 2.56 1.478l2.322-1.343c.001-2.644-1.589-3.948-3.722-3.319l.003-2.116-2.325 1.34v2.118a10.959 10.959 0 0 0-3.716 7.617 2.973 2.973 0 0 0 4.878 2.817c1.413-.814 2.56-.154 2.56 1.477a5.663 5.663 0 0 1-2.56 4.434c-1.411.815-2.558.153-2.56-1.478l-2.321 1.34c0 2.647 1.589 3.949 3.72 3.323v1.952l2.324-1.34v-1.955a10.97 10.97 0 0 0 3.722-7.615c-.003-3.11-2.19-4.373-4.884-2.82Z" class="colorff5a72 svgShape"></path><path d="m1211.08 1066.62-11.203-6.47c6.005 4.984 5.19 11.933-2.5 16.371l-283.425 163.637a32.087 32.087 0 0 1-15.687 3.737v8.192h14.871l.025-.016a31.49 31.49 0 0 0 14.497-3.704l283.422-163.634c8.628-4.983 8.628-13.133 0-18.113Z" style="mix-blend-mode:multiply" fill="url(#ao)"></path><path fill="url(#ap)" d="m1197.377 1076.521-283.425 163.637c-8.628 4.983-22.748 4.983-31.374 0l-155.312-89.67c-4.248-2.453-6.39-5.673-6.458-8.905l-.008-.003v8.193l.008-1.06c.067 3.233 2.21 7.515 6.458 9.97l155.312 89.664c8.626 4.986 22.746 4.986 31.374 0l283.425-163.633c4.276-2.47 6.43-5.718 6.466-8.972v-8.195c-.037 3.254-2.19 6.505-6.466 8.974Z"></path><path fill="#f6f8fb" d="M1197.377 1058.408c8.63 4.977 8.63 13.13 0 18.113l-283.425 163.637c-8.628 4.983-22.748 4.983-31.374 0l-155.312-89.67c-8.625-4.98-8.625-13.134 0-18.114l283.425-163.636c8.628-4.98 22.75-4.98 31.379 0Z" class="colorf6f6fb svgShape"></path><path fill="#5046e4" d="M748.128 1150.521c-8.692-5.022-8.692-13.158 0-18.178 8.695-5.022 22.793-5.022 31.488-.003 8.692 5.023 8.692 13.16 0 18.181-8.692 5.02-22.793 5.02-31.488 0ZM779.619 1123.316l99.326-57.347 15.633 9.024-99.328 57.347-15.631-9.024z" class="color5652cc svgShape"></path><path fill="#dfe9f4" d="m843.094 1182.945 55.411-31.993 19.609 11.317-55.409 31.999-19.611-11.323zM909.684 1144.499l55.417-31.996 19.611 11.324-55.417 31.993-19.611-11.321zM976.279 1106.051l55.414-31.993 19.611 11.321-55.42 31.993-19.605-11.321zM1042.871 1067.6l55.412-31.987 19.611 11.32-55.414 31.991-19.609-11.324zM902.972 1232.61l101.451-58.57-11.505-6.642-101.449 58.57 11.503 6.642zM877.872 1218.116l168.382-97.214 11.508 6.643-168.385 97.216-11.505-6.645z" class="colordfe4f4 svgShape"></path><path fill="#ffffff" d="m1090.721 1095.23 71.101-41.048 25.1 14.493-71.101 41.049-25.1-14.494z" class="colorffffff svgShape"></path><path fill="#ff6ae4" d="M854.191 1130.343a13.938 13.938 0 0 0-12.555 0l-34.23 19.768c-3.453 1.991-3.453 5.254 0 7.245l26.275 15.17a13.919 13.919 0 0 0 12.55.003l34.236-19.768c3.45-1.994 3.45-5.25.003-7.242Z" class="colorff826a svgShape"></path><path fill="#e33cc5" d="m856.987 1131.96-2.198-1.27-46.786 27.013 2.198 1.271 14.313-8.269 5.025 2.906-14.31 8.265 2.198 1.265 14.307-8.262 6.335 3.659-14.309 8.262 2.198 1.268 14.307-8.265 4.927 2.844-14.307 8.267 2.198 1.266 46.783-27.01-2.195-1.268-14.312 8.259-4.93-2.843 14.315-8.263-2.198-1.268-14.313 8.262-6.332-3.656 14.31-8.262-2.196-1.268-16.511 9.53 15.656 9.039-13.77 7.952-20.684-11.943 30.281-17.481z" class="colore33c5c svgShape"></path><path fill="#847cfb" d="m1038.145 990.991-.64 2.623c21.799 1.793 38.125 11.754 41.09 23.753l4.56-.371c-3.243-13.137-21.15-24.041-45.01-26.005Zm-5.125 21.019c7.29.598 12.75 3.933 13.742 7.944l4.534-.369c-1.268-5.15-8.283-9.433-17.64-10.195Zm2.134-8.751-.64 2.62c7.117.583 13.413 2.734 17.734 6.05a13.221 13.221 0 0 1 5.14 7.161l4.538-.371c-.729-3.008-2.759-5.882-6.016-8.385-5.047-3.877-12.43-6.396-20.756-7.075Zm1.494-6.134-.637 2.62c16.96 1.396 29.664 9.15 31.971 18.485l4.536-.371c-2.586-10.472-16.845-19.17-35.87-20.734Z" class="color807cfb svgShape"></path><path fill="#bbd0e6" d="M807.413 253.444q-8.889-6.08-24.61 2.996a62.97 62.97 0 0 0-24.097 25.184q-8.889 16.406-8.889 39.779 0 23.494 8.889 29.575 8.887 6.08 24.61-2.997a62.965 62.965 0 0 0 24.097-25.184q8.887-16.402 8.888-39.779 0-23.492-8.888-29.574Zm-17.417 67.307a17.619 17.619 0 0 1-7.193 8.424q-4.523 2.611-7.09-.178-3.392-3.854-3.391-20.824 0-16.966 3.39-24.739a17.458 17.458 0 0 1 7.09-8.366q4.624-2.67 7.194.238 3.287 3.797 3.288 20.764 0 16.97-3.288 24.68Z" class="colorbbc0e6 svgShape"></path><path fill="url(#i)" d="M749.817 321.403q0-23.373 8.889-39.779a62.97 62.97 0 0 1 24.097-25.184q15.722-9.077 24.61-2.996l-15.61-10.529q-8.89-6.08-24.61 2.996a62.97 62.97 0 0 0-24.098 25.184q-8.888 16.405-8.888 39.778 0 23.495 8.888 29.575l15.611 10.53q-8.889-6.082-8.889-29.575Z"></path><path fill="url(#aq)" d="M789.996 320.75q3.287-7.71 3.288-24.68 0-16.966-3.288-20.764-2.57-2.905-7.193-.238a15.955 15.955 0 0 0-5.235 5.062c.067 1.677.105 3.467.105 5.411q0 16.97-3.288 24.68a21.513 21.513 0 0 1-1.948 3.42c.326 8.083 1.409 13.235 3.276 15.356q2.566 2.789 7.09.178a17.619 17.619 0 0 0 7.193-8.424Z"></path><path fill="#bbd0e6" d="m702.959 394.138-21.372 12.339 80.253-229.891 20.757-11.984-79.638 229.536z" class="colorbbc0e6 svgShape"></path><path fill="#f6f8fb" d="m761.84 176.586-15.611-10.529 20.757-11.984 15.611 10.529-20.757 11.984z" class="colorf6f6fb svgShape"></path><path fill="#cee3f8" d="m681.587 406.477-15.611-10.529 80.253-229.891 15.611 10.529-80.253 229.891z" class="colorced3f8 svgShape"></path><path fill="#bbd0e6" d="M705.58 220.28q-8.889-6.08-24.61 2.997a62.97 62.97 0 0 0-24.097 25.184q-8.889 16.405-8.888 39.778 0 23.494 8.888 29.575 8.887 6.082 24.611-2.996a62.965 62.965 0 0 0 24.096-25.184q8.887-16.403 8.889-39.78 0-23.492-8.889-29.573Zm-17.417 67.307a17.619 17.619 0 0 1-7.193 8.424q-4.523 2.612-7.09-.177-3.392-3.854-3.391-20.825 0-16.966 3.391-24.738a17.458 17.458 0 0 1 7.09-8.366q4.624-2.67 7.193.238 3.287 3.796 3.288 20.764 0 16.97-3.288 24.68Z" class="colorbbc0e6 svgShape"></path><path fill="url(#ar)" d="M647.985 288.24q0-23.374 8.888-39.779a62.97 62.97 0 0 1 24.097-25.184q15.722-9.078 24.61-2.996l-15.61-10.53q-8.89-6.08-24.61 2.996a62.968 62.968 0 0 0-24.097 25.185q-8.89 16.405-8.89 39.778 0 23.494 8.89 29.575l15.61 10.53q-8.889-6.082-8.888-29.576Z"></path><path fill="url(#as)" d="M688.163 287.587q3.287-7.71 3.288-24.68 0-16.966-3.288-20.764-2.57-2.905-7.193-.238a15.956 15.956 0 0 0-5.234 5.061c.066 1.678.105 3.467.105 5.412q0 16.969-3.289 24.68a21.514 21.514 0 0 1-1.947 3.42c.325 8.083 1.408 13.234 3.275 15.356q2.566 2.788 7.09.177a17.619 17.619 0 0 0 7.193-8.424Z"></path><path d="m1297.489 933.3-54.647-31.55-82.862-7.708-36.428-17.004-38.648-1.95-63.678 36.764 16.329 9.427-4.695 2.71a5.168 5.168 0 0 0-1.281.74c-1.328 1.103-.821 2.528 1.878 4.087 2.7 1.558 7.129 2.983 12.276 4.086l.877.506.418-.241a103.79 103.79 0 0 0 18.05 1.957l-1.771 1.022 15.032 8.678 44.942 25.946-5.201 3.003q-.17.09-.32.185h-.002c-1.808 1.137-1.476 2.677 1.468 4.376 5.846 3.375 19.772 6.125 31.624 6.309l-1.77 1.021 15.032 8.678 14.715 8.495 11.52 1.782 19.773-4.073 63.678-36.764-13.253-9.152Z" style="mix-blend-mode:multiply" fill="url(#l)"></path><path fill="#0c2340" d="m1038.091 886.809-21.579 12.459 4.251 12.316 21.579-12.459-4.251-12.316zM1123.858 936.323l-21.579 12.459 4.251 12.317 21.579-12.459-4.251-12.317z" class="color131147 svgShape"></path><path fill="#662e94" d="M1108.268 959.355c0-6.989 4.906-9.821 10.958-6.327 6.052 3.494 10.958 11.992 10.958 18.98 0 6.988-4.906 9.82-10.958 6.326-6.052-3.494-10.958-11.991-10.958-18.98Z" class="color362e94 svgShape"></path><path fill="#cee3f8" d="M1111.068 960.971c0-5.202 3.653-7.31 8.158-4.71 4.505 2.602 8.158 8.928 8.158 14.13s-3.653 7.31-8.158 4.71c-4.505-2.602-8.158-8.927-8.158-14.13Z" class="colorced3f8 svgShape"></path><path fill="#f6f8fb" d="M1115.74 963.669c0-2.223 1.561-3.124 3.486-2.012a7.704 7.704 0 0 1 3.485 6.036c0 2.223-1.56 3.124-3.485 2.013a7.704 7.704 0 0 1-3.485-6.037Z" class="colorf6f6fb svgShape"></path><path fill="#193f6f" d="M1140.819 965.868c0-6.988-4.906-15.486-10.958-18.98-3.012-1.739-5.739-1.909-7.72-.781v-.002l-.022.012-.012.008-10.602 6.12.001.002c1.981-1.128 4.708-.958 7.72.781 6.052 3.494 10.958 11.992 10.958 18.98 0 3.409-1.173 5.82-3.072 6.999l.004.007 10.438-6.026a5.6 5.6 0 0 0 .106-.061l.091-.053-.004-.008c1.899-1.179 3.072-3.59 3.072-6.998Z" class="color20196f svgShape"></path><path fill="#662e94" d="M1022.5 909.836c0-6.988 4.905-9.82 10.957-6.327s10.958 11.992 10.958 18.98c0 6.988-4.906 9.82-10.958 6.327-6.052-3.495-10.958-11.992-10.958-18.98Z" class="color362e94 svgShape"></path><path fill="#cee3f8" d="M1025.3 911.453c0-5.203 3.652-7.311 8.157-4.71 4.506 2.601 8.158 8.927 8.158 14.13s-3.652 7.31-8.158 4.709c-4.505-2.601-8.157-8.927-8.157-14.13Z" class="colorced3f8 svgShape"></path><path fill="#f6f8fb" d="M1029.972 914.15c0-2.223 1.56-3.123 3.485-2.012a7.704 7.704 0 0 1 3.486 6.037c0 2.223-1.56 3.123-3.486 2.012a7.704 7.704 0 0 1-3.485-6.037Z" class="colorf6f6fb svgShape"></path><path fill="#193f6f" d="M1055.05 916.349c0-6.988-4.906-15.486-10.958-18.98-3.012-1.739-5.739-1.908-7.72-.78v-.002l-.022.012-.012.007-10.602 6.12.001.002c1.981-1.127 4.708-.958 7.72.781 6.052 3.494 10.958 11.992 10.958 18.98 0 3.41-1.173 5.82-3.072 6.999l.004.007 10.438-6.026.106-.061.091-.053-.004-.007c1.899-1.18 3.072-3.59 3.072-6.999Z" class="color20196f svgShape"></path><path fill="#ff6ae4" d="m1036.904 896.513 63.678-36.765-29.451-12.975-63.677 36.764 29.45 12.976zM1157.698 970.28l63.678-36.764-42.548-28.592-63.678 36.764 42.548 28.592z" class="colorff826a svgShape"></path><path fill="#e33cc5" d="m1115.15 941.688 63.678-36.764-15.227-48.923-63.678 36.764 15.227 48.923z" class="colore33c5c svgShape"></path><path fill="#5046e4" d="m1115.15 941.688 63.678-36.764-13.878-44.589-63.678 36.765 13.878 44.588z" class="color5652cc svgShape"></path><path style="mix-blend-mode:screen" fill="url(#m)" d="m1115.15 941.688 63.678-36.764-29.452-21.032-44.261 25.554 10.035 32.242z"></path><path fill="#193f6f" d="m1117.106 938.329 17.257-9.963-.493-1.583-17.257 9.963.493 1.583zM1145.315 922.043l17.256-9.963-.493-1.583-17.256 9.963.493 1.583z" class="color20196f svgShape"></path><path fill="#7dbeff" d="m1099.923 892.765 63.678-36.764-49.667-28.676-63.678 36.765 49.667 28.675z" class="colorff997d svgShape"></path><path fill="#a50b89" d="m1161.666 992.93 63.678-36.765 3.087-3.086-63.678 36.764-3.087 3.087z" class="colora3284b svgShape"></path><path fill="#e33cc5" d="m1164.753 989.843 63.678-36.764-7.055-19.563-63.678 36.764 7.055 19.563z" class="colore33c5c svgShape"></path><path fill="#662e94" d="m1182.727 971.263 22.833-13.182-1.773-4.914-22.832 13.182 1.772 4.914z" class="color362e94 svgShape"></path><path fill="#c62caa" d="M1168.315 970.57c-1.839 1.061-2.416 3.815-1.285 6.133 1.137 2.331 3.557 3.355 5.396 2.294 1.85-1.068 2.415-3.816 1.278-6.147-1.13-2.318-3.54-3.348-5.39-2.28ZM1213.702 944.365c-1.838 1.061-2.415 3.816-1.285 6.134 1.138 2.33 3.558 3.355 5.396 2.293 1.85-1.067 2.416-3.815 1.279-6.147-1.131-2.318-3.54-3.348-5.39-2.28Z" class="colorc62c51 svgShape"></path><path fill="#ff5ae1" d="m1157.698 970.28-42.548-28.592-15.227-48.923-49.667-28.675-13.351 32.423-29.451-12.976-3.378 18.414 16.687 9.633a19.768 19.768 0 0 1-.229-2.883c0-8.242 5.787-11.583 12.925-7.461 7.137 4.12 12.924 14.143 12.924 22.385a14.856 14.856 0 0 1-.229 2.618l60.376 34.856a19.8 19.8 0 0 1-.228-2.88c0-8.242 5.786-11.583 12.924-7.462s12.924 14.144 12.924 22.386a14.865 14.865 0 0 1-.228 2.615l29.744 17.172 3.087-3.087Z" class="colorff5a72 svgShape"></path><path fill="#857dfb" d="m1101.272 897.1-52.199-30.137-12.168 29.55h-.001l78.246 45.175-13.878-44.588z" class="color807dfb svgShape"></path><path fill="#f6f8fb" d="m1049.769 908.371-5.827-3.364v-1.38l5.827 3.364v1.38zM1082.918 927.51l-5.827-3.364v-1.38l5.827 3.364v1.38z" class="colorf6f6fb svgShape"></path><path style="mix-blend-mode:multiply" fill="url(#j)" d="M1115.15 941.688h65.879l28.243-16.306-30.444-20.458-63.678 36.764z"></path><path style="mix-blend-mode:multiply" fill="url(#at)" d="m1049.073 866.963-12.168 29.55 31.676-18.288-19.508-11.262z"></path><path style="mix-blend-mode:multiply" fill="url(#k)" d="M516.486 1082.928h50.457l153.854-88.827-50.457-29.334-153.854 118.161z"></path><path style="mix-blend-mode:multiply" fill="url(#au)" d="M404.427 1018.231h50.456l153.855-88.828-50.457-29.334-153.854 118.162z"></path><path style="mix-blend-mode:multiply" fill="url(#av)" d="M292.367 953.533h50.457l153.854-88.828-50.456-29.334-153.855 118.162z"></path><path fill="#f6f8fb" d="m446.222 835.371-153.854 88.828-70.274-40.573 153.854-88.827 70.274 40.572z" class="colorf6f6fb svgShape"></path><path fill="#857dfb" d="m222.094 883.626 70.274 40.573 153.854-88.828-70.274-40.572Zm140.737-78.768c7.245 4.182 18.99 4.182 26.233 0l39.735 22.94c-7.244 4.183-7.244 10.964 0 15.146L305.484 914.14c-7.244-4.182-18.989-4.182-26.233 0l-39.735-22.94c7.245-4.183 7.245-10.964 0-15.147Z" class="color807dfb svgShape"></path><path fill="#857dfb" d="M307.732 874.756c-14.594-8.427-14.594-22.088 0-30.514 14.595-8.426 38.257-8.426 52.851 0 14.595 8.426 14.595 22.088 0 30.514-14.594 8.426-38.256 8.425-52.85 0Z" class="color807dfb svgShape"></path><path fill="#f6f8fb" d="M338.26 857.353c.397-1.563-.374-3.228-2.31-4.524a.577.577 0 0 0-.079-.052c-.14-.093-1.866-1.103-2.018-1.191-3.804-2.194-9.862-2.255-13.535-.134-3.675 2.122-3.567 5.62.235 7.815l2.126 1.229.026-.017a15.207 15.207 0 0 0 7.835 1.33c-2.33 1.55-7.865 8.483 2.287 12.063 2.694-1.554 23.638-13.647 26.328-15.2-6.861-5.732-18.242-2.66-20.896-1.32Z" class="colorf6f6fb svgShape"></path><path fill="#857dfb" d="M275.365 880.886c-6.005 3.467-6.005 9.089 0 12.556 6.006 3.468 15.744 3.468 21.75 0s6.005-9.089 0-12.556c-6.007-3.468-15.744-3.468-21.75 0Zm17.018 9.825a13.58 13.58 0 0 1-12.287 0c-3.393-1.959-3.393-5.135 0-7.094a13.578 13.578 0 0 1 12.287 0c3.393 1.959 3.393 5.135 0 7.094Z" class="color807dfb svgShape"></path><path fill="#bbd0e6" d="M392.95 825.555c-6.006-3.467-15.743-3.467-21.749 0s-6.006 9.09 0 12.557 15.743 3.467 21.749 0c6.006-3.468 6.006-9.09 0-12.557Z" class="colorbbc0e6 svgShape"></path><path fill="#cee3f8" d="m285.174 903.14 28.737-16.591 2.871 1.657-28.737 16.592-2.871-1.658z" class="colorced3f8 svgShape"></path><path fill="#857dfb" d="m249.571 879.809 23.93-13.815 1.123.648-23.93 13.816-1.123-.649zM251.893 881.149l23.929-13.815 1.123.648-23.93 13.816-1.122-.649zM243.194 876.127l119.765-69.146 2.871 1.657-119.765 69.147-2.871-1.658zM351.585 830.821l28.737-16.591 2.871 1.657-28.738 16.591-2.87-1.657z" class="color807dfb svgShape"></path><path fill="#dae7f5" d="m264.491 887.164-9.087 5.247-5.248-3.03 9.087-5.247 5.248 3.03zM419.751 833.159l-4.543 2.623-5.248-3.029 4.544-2.624 5.247 3.03z" class="colordae0f5 svgShape"></path><path fill="#6f67e9" d="m222.094 885.256 70.273 40.572v-1.629l-70.273-40.573v1.63z" class="color6b67e9 svgShape"></path><path fill="#5046e4" d="m292.367 925.828 153.855-88.827v-1.63l-153.855 88.828v1.629zM222.094 886.885l70.273 40.573v-1.63l-70.273-40.572v1.629z" class="color5652cc svgShape"></path><path fill="#6822a2" d="m292.367 927.458 153.855-88.828v-1.629l-153.855 88.827v1.63z" class="color423eaf svgShape"></path><path fill="#6f67e9" d="m222.094 888.514 70.273 40.573v-1.629l-70.273-40.573v1.629z" class="color6b67e9 svgShape"></path><path fill="#5046e4" d="m292.367 929.087 153.855-88.828v-1.629l-153.855 88.828v1.629zM222.094 890.144l70.273 40.572v-1.629l-70.273-40.573v1.63z" class="color5652cc svgShape"></path><path fill="#6822a2" d="m292.367 930.716 153.855-88.827v-1.63l-153.855 88.828v1.629z" class="color423eaf svgShape"></path><path fill="#6f67e9" d="m222.094 891.773 70.273 40.573v-1.63l-70.273-40.572v1.629z" class="color6b67e9 svgShape"></path><path fill="#5046e4" d="m292.367 932.346 153.855-88.828v-1.629l-153.855 88.827v1.63zM222.094 893.402l70.273 40.573v-1.629l-70.273-40.573v1.629z" class="color5652cc svgShape"></path><path fill="#6822a2" d="m292.367 933.975 153.855-88.828v-1.629l-153.855 88.828v1.629z" class="color423eaf svgShape"></path><path fill="#6f67e9" d="m222.094 895.031 70.273 40.573v-1.629l-70.273-40.573v1.629z" class="color6b67e9 svgShape"></path><path fill="#5046e4" d="m292.367 935.604 153.855-88.827v-1.63l-153.855 88.828v1.629zM222.094 896.661l70.273 40.572v-1.629l-70.273-40.572v1.629z" class="color5652cc svgShape"></path><path fill="#6822a2" d="m292.367 937.233 153.855-88.827v-1.629l-153.855 88.827v1.629z" class="color423eaf svgShape"></path><path fill="#6f67e9" d="m222.094 898.29 70.273 40.573v-1.63l-70.273-40.572v1.629z" class="color6b67e9 svgShape"></path><path fill="#5046e4" d="m292.367 938.863 153.855-88.828v-1.629l-153.855 88.827v1.63zM222.094 899.919l70.273 40.573v-1.629l-70.273-40.573v1.629z" class="color5652cc svgShape"></path><path fill="#6822a2" d="m292.367 940.492 153.855-88.827v-1.63l-153.855 88.828v1.629z" class="color423eaf svgShape"></path><path fill="#6f67e9" d="m222.094 901.549 70.273 40.572v-1.629l-70.273-40.572v1.629z" class="color6b67e9 svgShape"></path><path fill="#5046e4" d="m292.367 942.121 153.855-88.827v-1.629l-153.855 88.827v1.629zM222.094 903.178l70.273 40.573v-1.63l-70.273-40.572v1.629z" class="color5652cc svgShape"></path><path fill="#6822a2" d="m292.367 943.751 153.855-88.828v-1.629l-153.855 88.827v1.63z" class="color423eaf svgShape"></path><path fill="#6f67e9" d="m222.094 904.814 70.273 40.572v-1.629l-70.273-40.573v1.63z" class="color6b67e9 svgShape"></path><path fill="#5046e4" d="m292.367 945.386 153.855-88.827v-1.63l-153.855 88.828v1.629zM222.094 906.443l70.273 40.573v-1.63l-70.273-40.572v1.629z" class="color5652cc svgShape"></path><path fill="#6822a2" d="m292.367 947.016 153.855-88.828v-1.629l-153.855 88.827v1.63z" class="color423eaf svgShape"></path><path fill="#6f67e9" d="m222.094 908.072 70.273 40.573v-1.629l-70.273-40.573v1.629z" class="color6b67e9 svgShape"></path><path fill="#5046e4" d="m292.367 948.645 153.855-88.828v-1.629l-153.855 88.828v1.629zM222.094 909.702l70.273 40.572v-1.629l-70.273-40.573v1.63z" class="color5652cc svgShape"></path><path fill="#6822a2" d="m292.367 950.274 153.855-88.827v-1.63l-153.855 88.828v1.629z" class="color423eaf svgShape"></path><path fill="#6f67e9" d="m222.094 911.331 70.273 40.573v-1.63l-70.273-40.572v1.629z" class="color6b67e9 svgShape"></path><path fill="#5046e4" d="m292.367 951.904 153.855-88.828v-1.629l-153.855 88.827v1.63zM222.094 912.96l70.273 40.573v-1.629l-70.273-40.573v1.629z" class="color5652cc svgShape"></path><path fill="#6822a2" d="m292.367 953.533 153.855-88.828v-1.629l-153.855 88.828v1.629z" class="color423eaf svgShape"></path><path fill="#bbd0e6" d="m380.856 902.444-23.125 13.352v-29.334l23.125-13.352v29.334z" class="colorbbc0e6 svgShape"></path><path fill="#e8eff7" d="m310.58 832.536-23.126 13.352 70.277 40.574 23.125-13.352-70.276-40.574z" class="colore8ecf7 svgShape"></path><path fill="#f6f8fb" d="m670.34 964.767-153.854 88.828-70.274-40.573 153.855-88.828 70.273 40.573z" class="colorf6f6fb svgShape"></path><path fill="#857dfb" d="m446.212 1013.022 70.274 40.572 153.854-88.827-70.273-40.573Zm140.738-78.769c7.244 4.182 18.99 4.182 26.233 0l39.735 22.941c-7.244 4.182-7.244 10.963 0 15.146l-123.315 71.196c-7.244-4.183-18.99-4.183-26.233 0l-39.735-22.941c7.244-4.183 7.244-10.963 0-15.146Z" class="color807dfb svgShape"></path><path fill="#857dfb" d="M531.851 1004.151c-14.594-8.426-14.594-22.087 0-30.514 14.594-8.425 38.256-8.425 52.85 0 14.595 8.427 14.595 22.088.001 30.514-14.594 8.426-38.256 8.426-52.851 0Z" class="color807dfb svgShape"></path><path fill="#f6f8fb" d="M562.378 986.748c.397-1.562-.373-3.227-2.309-4.524a.592.592 0 0 0-.079-.052c-.14-.092-1.866-1.103-2.018-1.19-3.804-2.195-9.862-2.256-13.536-.135-3.674 2.122-3.566 5.62.236 7.816l2.126 1.228.026-.017a15.207 15.207 0 0 0 7.835 1.33c-2.331 1.55-7.865 8.483 2.286 12.064l26.328-15.2c-6.86-5.733-18.242-2.66-20.895-1.32Z" class="colorf6f6fb svgShape"></path><path fill="#857dfb" d="M499.484 1010.281c-6.005 3.468-6.005 9.09 0 12.557 6.006 3.467 15.743 3.467 21.749 0s6.006-9.09 0-12.557c-6.006-3.467-15.743-3.467-21.749 0Zm17.018 9.826a13.579 13.579 0 0 1-12.287 0c-3.393-1.96-3.393-5.135 0-7.094a13.578 13.578 0 0 1 12.287 0c3.393 1.959 3.393 5.135 0 7.094Z" class="color807dfb svgShape"></path><path fill="#bbd0e6" d="M617.068 954.95c-6.005-3.467-15.743-3.467-21.748 0-6.006 3.468-6.006 9.09 0 12.557 6.005 3.468 15.743 3.468 21.748 0 6.006-3.467 6.006-9.089 0-12.556Z" class="colorbbc0e6 svgShape"></path><path fill="#cee3f8" d="m509.293 1032.536 28.737-16.592 2.871 1.658-28.738 16.591-2.87-1.657z" class="colorced3f8 svgShape"></path><path fill="#857dfb" d="m473.69 1009.205 23.93-13.816 1.122.648-23.93 13.816-1.122-.648zM476.011 1010.545l23.93-13.816 1.123.648-23.93 13.816-1.123-.648zM467.312 1005.523l119.766-69.147 2.87 1.658-119.765 69.146-2.871-1.657zM575.704 960.217l28.737-16.592 2.87 1.658-28.737 16.591-2.87-1.657z" class="color807dfb svgShape"></path><path fill="#dae7f5" d="m488.61 1016.56-9.088 5.246-5.248-3.029 9.088-5.247 5.248 3.03zM643.87 962.554l-4.544 2.624-5.248-3.03 4.544-2.623 5.248 3.029z" class="colordae0f5 svgShape"></path><path fill="#6f67e9" d="m446.212 1014.651 70.274 40.573v-1.63l-70.274-40.572v1.629z" class="color6b67e9 svgShape"></path><path fill="#5046e4" d="m516.486 1055.224 153.854-88.828v-1.629l-153.854 88.827v1.63zM446.212 1016.281l70.274 40.572v-1.629l-70.274-40.573v1.63z" class="color5652cc svgShape"></path><path fill="#6822a2" d="m516.486 1056.853 153.854-88.827v-1.63l-153.854 88.828v1.629z" class="color423eaf svgShape"></path><path fill="#6f67e9" d="m446.212 1017.91 70.274 40.573v-1.63l-70.274-40.572v1.629z" class="color6b67e9 svgShape"></path><path fill="#5046e4" d="m516.486 1058.483 153.854-88.828v-1.629l-153.854 88.827v1.63zM446.212 1019.539l70.274 40.573v-1.629l-70.274-40.573v1.629z" class="color5652cc svgShape"></path><path fill="#6822a2" d="m516.486 1060.112 153.854-88.828v-1.629l-153.854 88.828v1.629z" class="color423eaf svgShape"></path><path fill="#6f67e9" d="m446.212 1021.168 70.274 40.573v-1.629l-70.274-40.573v1.629z" class="color6b67e9 svgShape"></path><path fill="#5046e4" d="m516.486 1061.741 153.854-88.828v-1.629l-153.854 88.828v1.629zM446.212 1022.798l70.274 40.572v-1.629l-70.274-40.572v1.629z" class="color5652cc svgShape"></path><path fill="#6822a2" d="m516.486 1063.37 153.854-88.827v-1.63l-153.854 88.828v1.629z" class="color423eaf svgShape"></path><path fill="#6f67e9" d="M446.212 1024.427 516.486 1065v-1.63l-70.274-40.572v1.629z" class="color6b67e9 svgShape"></path><path fill="#5046e4" d="m516.486 1065 153.854-88.828v-1.629l-153.854 88.827v1.63zM446.212 1026.056l70.274 40.573V1065l-70.274-40.573v1.629z" class="color5652cc svgShape"></path><path fill="#6822a2" d="m516.486 1066.629 153.854-88.827v-1.63L516.486 1065v1.629z" class="color423eaf svgShape"></path><path fill="#6f67e9" d="m446.212 1027.686 70.274 40.572v-1.629l-70.274-40.573v1.63z" class="color6b67e9 svgShape"></path><path fill="#5046e4" d="m516.486 1068.258 153.854-88.827v-1.629l-153.854 88.827v1.629zM446.212 1029.315l70.274 40.573v-1.63l-70.274-40.572v1.629z" class="color5652cc svgShape"></path><path fill="#6822a2" d="M516.486 1069.888 670.34 981.06v-1.629l-153.854 88.827v1.63z" class="color423eaf svgShape"></path><path fill="#6f67e9" d="m446.212 1030.944 70.274 40.573v-1.629l-70.274-40.573v1.629z" class="color6b67e9 svgShape"></path><path fill="#5046e4" d="m516.486 1071.517 153.854-88.828v-1.629l-153.854 88.828v1.629zM446.212 1032.574l70.274 40.572v-1.629l-70.274-40.573v1.63z" class="color5652cc svgShape"></path><path fill="#6822a2" d="m516.486 1073.146 153.854-88.827v-1.63l-153.854 88.828v1.629z" class="color423eaf svgShape"></path><path fill="#6f67e9" d="m446.212 1034.209 70.274 40.573v-1.629l-70.274-40.573v1.629z" class="color6b67e9 svgShape"></path><path fill="#5046e4" d="m516.486 1074.782 153.854-88.828v-1.629l-153.854 88.828v1.629zM446.212 1035.839l70.274 40.572v-1.629l-70.274-40.573v1.63z" class="color5652cc svgShape"></path><path fill="#6822a2" d="m516.486 1076.411 153.854-88.827v-1.63l-153.854 88.828v1.629z" class="color423eaf svgShape"></path><path fill="#6f67e9" d="m446.212 1037.468 70.274 40.573v-1.63l-70.274-40.572v1.629z" class="color6b67e9 svgShape"></path><path fill="#5046e4" d="m516.486 1078.041 153.854-88.828v-1.629l-153.854 88.827v1.63zM446.212 1039.097l70.274 40.573v-1.629l-70.274-40.573v1.629z" class="color5652cc svgShape"></path><path fill="#6822a2" d="m516.486 1079.67 153.854-88.828v-1.629l-153.854 88.828v1.629z" class="color423eaf svgShape"></path><path fill="#6f67e9" d="m446.212 1040.726 70.274 40.573v-1.629l-70.274-40.573v1.629z" class="color6b67e9 svgShape"></path><path fill="#5046e4" d="m516.486 1081.299 153.854-88.827v-1.63l-153.854 88.828v1.629zM446.212 1042.356l70.274 40.572v-1.629l-70.274-40.572v1.629z" class="color5652cc svgShape"></path><path fill="#6822a2" d="m516.486 1082.928 153.854-88.827v-1.629l-153.854 88.827v1.629z" class="color423eaf svgShape"></path><path fill="#bbd0e6" d="m604.975 1031.84-23.126 13.351v-29.334l23.126-13.351v29.334z" class="colorbbc0e6 svgShape"></path><path fill="#e8eff7" d="m534.698 961.932-23.125 13.351 70.276 40.574 23.126-13.351-70.277-40.574z" class="colore8ecf7 svgShape"></path><path fill="#f6f8fb" d="m558.281 900.069-153.854 88.828-70.274-40.573 153.854-88.828 70.274 40.573z" class="colorf6f6fb svgShape"></path><path fill="#ff6ae4" d="m334.153 948.324 70.274 40.573 153.854-88.828-70.274-40.573Zm140.738-78.769c7.244 4.183 18.989 4.183 26.233 0l39.734 22.941c-7.244 4.183-7.244 10.964 0 15.146l-123.314 71.196c-7.245-4.183-18.99-4.183-26.234 0l-39.734-22.941c7.244-4.182 7.244-10.963 0-15.146Z" class="colorff826a svgShape"></path><path fill="#ff6ae4" d="M419.792 939.453c-14.595-8.426-14.595-22.087 0-30.513 14.594-8.426 38.256-8.426 52.85 0 14.595 8.426 14.595 22.087 0 30.513s-38.256 8.426-52.85 0Z" class="colorff826a svgShape"></path><path fill="#f6f8fb" d="M450.318 922.05c.398-1.562-.373-3.227-2.308-4.523a.59.59 0 0 0-.08-.052c-.14-.093-1.866-1.103-2.018-1.192-3.803-2.194-9.861-2.255-13.535-.133-3.674 2.121-3.567 5.619.235 7.815l2.126 1.228.027-.016a15.207 15.207 0 0 0 7.834 1.33c-2.33 1.55-7.865 8.482 2.287 12.063l26.328-15.2c-6.861-5.732-18.242-2.66-20.896-1.32Z" class="colorf6f6fb svgShape"></path><path fill="#ff5ae1" d="M387.425 945.584c-6.006 3.467-6.006 9.089 0 12.556 6.006 3.468 15.743 3.468 21.749 0s6.006-9.089 0-12.556c-6.006-3.468-15.743-3.468-21.75 0Zm17.018 9.825a13.58 13.58 0 0 1-12.287 0c-3.393-1.96-3.393-5.135 0-7.094a13.579 13.579 0 0 1 12.287 0c3.393 1.959 3.393 5.135 0 7.094Z" class="colorff5a72 svgShape"></path><path fill="#bbd0e6" d="M505.01 890.253c-6.007-3.468-15.744-3.468-21.75 0-6.005 3.467-6.005 9.09 0 12.557s15.744 3.467 21.75 0c6.005-3.468 6.005-9.09 0-12.557Z" class="colorbbc0e6 svgShape"></path><path fill="#cee3f8" d="m397.233 967.838 28.738-16.591 2.87 1.657-28.737 16.591-2.871-1.657z" class="colorced3f8 svgShape"></path><path fill="#ff6ae4" d="m361.631 944.507 23.93-13.816 1.122.648-23.93 13.816-1.122-.648zM363.952 945.847l23.93-13.815 1.123.648-23.931 13.815-1.122-.648z" class="colorff826a svgShape"></path><path fill="#ff5ae1" d="m355.253 940.825 119.766-69.146 2.87 1.657-119.765 69.147-2.871-1.658z" class="colorff5a72 svgShape"></path><path fill="#ff6ae4" d="m463.644 895.519 28.737-16.591 2.871 1.657-28.737 16.591-2.871-1.657z" class="colorff826a svgShape"></path><path fill="#dae7f5" d="m376.55 951.862-9.087 5.247-5.248-3.03 9.088-5.247 5.247 3.03zM531.811 897.857l-4.544 2.623-5.248-3.03 4.544-2.623 5.248 3.03z" class="colordae0f5 svgShape"></path><path fill="#ff5ae1" d="m334.153 949.953 70.274 40.573v-1.629l-70.274-40.573v1.629z" class="colorff5a72 svgShape"></path><path fill="#e33cc5" d="m404.427 990.526 153.854-88.828v-1.629l-153.854 88.828v1.629zM334.153 951.583l70.274 40.572v-1.629l-70.274-40.573v1.63z" class="colore33c5c svgShape"></path><path fill="#c62caa" d="m404.427 992.155 153.854-88.827v-1.63l-153.854 88.828v1.629z" class="colorc62c51 svgShape"></path><path fill="#ff5ae1" d="m334.153 953.212 70.274 40.573v-1.63l-70.274-40.572v1.629z" class="colorff5a72 svgShape"></path><path fill="#e33cc5" d="m404.427 993.785 153.854-88.828v-1.629l-153.854 88.827v1.63zM334.153 954.841l70.274 40.573v-1.629l-70.274-40.573v1.629z" class="colore33c5c svgShape"></path><path fill="#c62caa" d="m404.427 995.414 153.854-88.828v-1.629l-153.854 88.828v1.629z" class="colorc62c51 svgShape"></path><path fill="#ff5ae1" d="m334.153 956.471 70.274 40.572v-1.629l-70.274-40.573v1.63z" class="colorff5a72 svgShape"></path><path fill="#e33cc5" d="m404.427 997.043 153.854-88.827v-1.63l-153.854 88.828v1.629zM334.153 958.1l70.274 40.573v-1.63l-70.274-40.572v1.629z" class="colore33c5c svgShape"></path><path fill="#c62caa" d="m404.427 998.673 153.854-88.828v-1.629l-153.854 88.827v1.63z" class="colorc62c51 svgShape"></path><path fill="#ff5ae1" d="m334.153 959.729 70.274 40.573v-1.629L334.153 958.1v1.629z" class="colorff5a72 svgShape"></path><path fill="#e33cc5" d="m404.427 1000.302 153.854-88.828v-1.629l-153.854 88.828v1.629zM334.153 961.359l70.274 40.572v-1.629l-70.274-40.573v1.63z" class="colore33c5c svgShape"></path><path fill="#c62caa" d="m404.427 1001.931 153.854-88.827v-1.63l-153.854 88.828v1.629z" class="colorc62c51 svgShape"></path><path fill="#ff5ae1" d="m334.153 962.988 70.274 40.573v-1.63l-70.274-40.572v1.629z" class="colorff5a72 svgShape"></path><path fill="#e33cc5" d="m404.427 1003.561 153.854-88.828v-1.629l-153.854 88.827v1.63zM334.153 964.617l70.274 40.573v-1.629l-70.274-40.573v1.629z" class="colore33c5c svgShape"></path><path fill="#c62caa" d="m404.427 1005.19 153.854-88.828v-1.629l-153.854 88.828v1.629z" class="colorc62c51 svgShape"></path><path fill="#ff5ae1" d="m334.153 966.247 70.274 40.572v-1.629l-70.274-40.573v1.63z" class="colorff5a72 svgShape"></path><path fill="#e33cc5" d="m404.427 1006.819 153.854-88.827v-1.63l-153.854 88.828v1.629zM334.153 967.876l70.274 40.572v-1.629l-70.274-40.572v1.629z" class="colore33c5c svgShape"></path><path fill="#c62caa" d="m404.427 1008.448 153.854-88.827v-1.629l-153.854 88.827v1.629z" class="colorc62c51 svgShape"></path><path fill="#ff5ae1" d="m334.153 969.511 70.274 40.573v-1.629l-70.274-40.573v1.629z" class="colorff5a72 svgShape"></path><path fill="#e33cc5" d="m404.427 1010.084 153.854-88.828v-1.629l-153.854 88.828v1.629zM334.153 971.141l70.274 40.572v-1.629l-70.274-40.572v1.629z" class="colore33c5c svgShape"></path><path fill="#c62caa" d="m404.427 1011.713 153.854-88.827v-1.63l-153.854 88.828v1.629z" class="colorc62c51 svgShape"></path><path fill="#ff5ae1" d="m334.153 972.77 70.274 40.573v-1.63l-70.274-40.572v1.629z" class="colorff5a72 svgShape"></path><path fill="#e33cc5" d="m404.427 1013.343 153.854-88.828v-1.629l-153.854 88.827v1.63zM334.153 974.399l70.274 40.573v-1.629l-70.274-40.573v1.629z" class="colore33c5c svgShape"></path><path fill="#c62caa" d="m404.427 1014.972 153.854-88.828v-1.629l-153.854 88.828v1.629z" class="colorc62c51 svgShape"></path><path fill="#ff5ae1" d="m334.153 976.029 70.274 40.572v-1.629l-70.274-40.573v1.63z" class="colorff5a72 svgShape"></path><path fill="#e33cc5" d="m404.427 1016.601 153.854-88.827v-1.63l-153.854 88.828v1.629zM334.153 977.658l70.274 40.573v-1.63l-70.274-40.572v1.629z" class="colore33c5c svgShape"></path><path fill="#c62caa" d="m404.427 1018.231 153.854-88.828v-1.629l-153.854 88.827v1.63z" class="colorc62c51 svgShape"></path><path fill="#bbd0e6" d="m492.915 967.142-23.125 13.352V951.16l23.125-13.352v29.334z" class="colorbbc0e6 svgShape"></path><path fill="#e8eff7" d="m422.639 897.234-23.125 13.352 70.276 40.574 23.125-13.352-70.276-40.574z" class="colore8ecf7 svgShape"></path><path d="M1319.964 200.213c-17.576.004-33.205-.81-45.422-7.866-11.494-6.634-13.632-15.348-13.628-26.228l-65.087 37.582c-37.307 21.539-34.243 62.512-19.751 79.586 29.575 8.37 100.546 10.137 137.853-11.401l65.087-37.579c-17.58 0-33.207-.817-45.428-7.87-11.49-6.634-13.624-15.343-13.624-26.224Z" style="mix-blend-mode:multiply" fill="url(#aw)"></path><path fill="#cee3f8" d="m1126.011 234.352-.01.004v18.062h.01c-.036 12.304 4.004 23.599 10.054 30.725v-18.062c-6.05-7.127-10.09-18.425-10.054-30.73Z" class="colorced3f8 svgShape"></path><path fill="#bbd0e6" d="M1273.918 253.68c-37.306 21.538-108.278 19.77-137.853 11.4v18.063c29.575 8.366 100.547 10.137 137.853-11.402l65.088-37.578v-18.062Z" class="colorbbc0e6 svgShape"></path><path fill="#f6f8fb" d="M1279.953 182.007c-17.575.003-33.204-.81-45.422-7.866-11.494-6.635-13.631-15.348-13.628-26.228l-65.087 37.581c-37.307 21.539-34.242 62.512-19.75 79.587 29.574 8.37 100.546 10.137 137.852-11.402l65.088-37.578c-17.58 0-33.207-.817-45.428-7.87-11.49-6.634-13.625-15.344-13.625-26.224Z" class="colorf6f6fb svgShape"></path><path fill="#bbd0e6" d="M1165.92 191.326c-20.053 11.576-26.334 29.701-25.613 45.278.666-14.408 7.55-30.148 25.613-40.577 0 0 25.012-14.442 44.27-25.559v-4.704l-44.27 25.562Z" class="colorbbc0e6 svgShape"></path><path fill="url(#ax)" d="M1224.428 179.973c-7.358-4.25-11.665-9.098-14.239-14.209v4.704c2.574 5.108 6.881 9.956 14.239 14.205 12.415 7.168 27.339 9.372 41.764 10.023v-4.701c-14.425-.65-29.35-2.855-41.764-10.022Z"></path><path fill="#bbd0e6" d="M1283.476 214.063c-11.977-6.915-16.034-15.4-17.284-24.068v4.7c1.25 8.673 5.307 17.153 17.284 24.073a67.64 67.64 0 0 0 18.471 7.063c2.049-1.183 4.07-2.352 6.036-3.483-8.643-1.465-17.03-3.969-24.507-8.285Z" class="colorbbc0e6 svgShape"></path><path fill="#6f67e9" d="M1224.428 184.673c-7.358-4.249-11.665-9.097-14.239-14.205l-44.27 25.559c-18.062 10.429-24.946 26.169-25.612 40.577.405 8.736 3.005 16.672 6.633 22.197 1.901.418 3.981.807 6.19 1.173l113.062-65.278c-14.425-.651-29.35-2.855-41.764-10.023Z" class="color6b67e9 svgShape"></path><path fill="#5046e4" d="M1283.476 218.768c-11.977-6.92-16.034-15.4-17.284-24.072l-113.061 65.278c28.733 4.74 81.62 4.652 110.683-12.127 0 0 20.086-11.594 38.133-22.016a67.64 67.64 0 0 1-18.471-7.063Z" class="color5652cc svgShape"></path><path fill="#0c2340" d="m1292.527 754.302-21.58 12.459 4.251 12.316 21.58-12.459-4.251-12.316z" class="color131147 svgShape"></path><path d="m1551.924 800.798-54.648-31.55-82.861-7.71-36.428-17.003-38.648-1.95-63.678 36.764 16.329 9.427-4.695 2.71a5.168 5.168 0 0 0-1.282.74c-1.327 1.103-.82 2.528 1.879 4.086 2.7 1.56 7.129 2.984 12.276 4.086l.877.507.418-.241a103.773 103.773 0 0 0 18.05 1.957l-1.771 1.022 15.032 8.678 44.942 25.946-5.201 3.002c-.114.061-.22.122-.32.185l-.002.001c-1.809 1.137-1.476 2.677 1.468 4.376 5.846 3.375 19.772 6.125 31.624 6.309l-1.77 1.021 15.032 8.678 14.715 8.495 11.52 1.782 19.773-4.073 63.677-36.764-13.252-9.152Z" style="mix-blend-mode:multiply" fill="url(#ay)"></path><path fill="#0c2340" d="m1378.295 803.823-21.58 12.459 4.251 12.317 21.58-12.459-4.251-12.317z" class="color131147 svgShape"></path><path fill="#662e94" d="M1362.703 826.851c0-6.988 4.906-9.82 10.958-6.326 6.052 3.494 10.958 11.992 10.958 18.98 0 6.988-4.906 9.82-10.958 6.326-6.052-3.494-10.958-11.991-10.958-18.98Z" class="color362e94 svgShape"></path><path fill="#cee3f8" d="M1365.503 828.468c0-5.202 3.653-7.31 8.158-4.71 4.505 2.602 8.157 8.928 8.157 14.13s-3.652 7.31-8.157 4.71c-4.505-2.602-8.158-8.927-8.158-14.13Z" class="colorced3f8 svgShape"></path><path fill="#f6f8fb" d="M1370.175 831.166c0-2.223 1.561-3.124 3.486-2.013a7.704 7.704 0 0 1 3.485 6.037c0 2.223-1.56 3.124-3.485 2.013a7.704 7.704 0 0 1-3.486-6.037Z" class="colorf6f6fb svgShape"></path><path fill="#193f6f" d="M1395.254 833.365c0-6.989-4.906-15.486-10.958-18.98-3.012-1.739-5.74-1.909-7.72-.781l-.001-.002-.021.012-.013.007-10.601 6.121.001.002c1.98-1.128 4.708-.958 7.72.781 6.052 3.494 10.958 11.991 10.958 18.98 0 3.409-1.173 5.82-3.072 6.999l.004.007 10.438-6.026.106-.061.091-.053-.004-.008c1.899-1.179 3.072-3.59 3.072-6.998Z" class="color20196f svgShape"></path><path fill="#662e94" d="M1276.799 777.256c0-6.989 4.906-9.821 10.958-6.327 6.051 3.494 10.957 11.992 10.957 18.98 0 6.988-4.906 9.82-10.957 6.326-6.052-3.494-10.958-11.991-10.958-18.98Z" class="color362e94 svgShape"></path><path fill="#cee3f8" d="M1279.599 778.872c0-5.202 3.652-7.31 8.158-4.71 4.505 2.602 8.157 8.928 8.157 14.13s-3.652 7.31-8.157 4.71c-4.506-2.602-8.158-8.927-8.158-14.13Z" class="colorced3f8 svgShape"></path><path fill="#f6f8fb" d="M1284.271 781.57c0-2.223 1.56-3.124 3.486-2.012a7.704 7.704 0 0 1 3.485 6.036c0 2.223-1.56 3.124-3.485 2.013a7.704 7.704 0 0 1-3.486-6.037Z" class="colorf6f6fb svgShape"></path><path fill="#193f6f" d="M1309.35 783.769c0-6.988-4.907-15.486-10.959-18.98-3.012-1.739-5.739-1.909-7.72-.781v-.002l-.021.012-.013.008-10.601 6.12v.002c1.981-1.128 4.708-.958 7.72.781 6.052 3.494 10.958 11.992 10.958 18.98 0 3.409-1.173 5.82-3.072 6.999l.005.007 10.437-6.026.106-.061.092-.053-.005-.008c1.9-1.179 3.072-3.59 3.072-6.998Z" class="color20196f svgShape"></path><path fill="#ff6ae4" d="m1291.97 764.374 63.678-36.764-42.548-20.538-63.678 36.764 42.548 20.538z" class="colorff826a svgShape"></path><path fill="#ff5ae1" d="m1249.422 743.836 42.548 20.538 15.227-31.34 49.667 28.675 13.351 47.84 29.452 21.031 3.377 22.314-16.686-9.634a14.866 14.866 0 0 0 .228-2.62c0-8.242-5.786-18.264-12.924-22.385-7.138-4.121-12.924-.78-12.924 7.462a19.783 19.783 0 0 0 .228 2.882l-60.375-34.86a14.853 14.853 0 0 0 .228-2.616c0-8.242-5.787-18.265-12.925-22.386-7.137-4.121-12.924-.78-12.924 7.462a19.764 19.764 0 0 0 .228 2.878l-29.744-17.174-3.087-6.65Z" class="colorff5a72 svgShape"></path><path fill="#857dfb" d="m1305.848 735.81 52.199 30.137 12.168 43.602h.001l-78.246-45.175 13.878-28.564z" class="color807dfb svgShape"></path><path fill="#f6f8fb" d="m1357.352 806.554 5.827 3.364v-1.38l-5.827-3.364v1.38zM1324.203 787.415l5.827 3.364v-1.38l-5.827-3.364v1.38z" class="colorf6f6fb svgShape"></path><path fill="#ff6ae4" d="m1399.667 830.58 63.677-36.764-29.451-21.032-63.678 36.765 29.452 21.031z" class="colorff826a svgShape"></path><path fill="#e33cc5" d="m1403.044 852.894 63.677-36.764-3.377-22.314-63.677 36.764 3.377 22.314z" class="colore33c5c svgShape"></path><path fill="#c62caa" d="m1405.474 843.3 12.465-7.196-1.097-7.249-12.465 7.197 1.097 7.248zM1449.939 817.628l12.465-7.196-1.097-7.249-12.465 7.197 1.097 7.248z" class="colorc62c51 svgShape"></path><path fill="#cee3f8" d="m1426.612 836.104 15.656-9.039-.831-5.486-15.656 9.039.831 5.486z" class="colorced3f8 svgShape"></path><path fill="#e33cc5" d="m1370.215 809.549 63.678-36.765-13.351-47.84-63.678 36.765 13.351 47.84z" class="colore33c5c svgShape"></path><path fill="#5046e4" d="m1370.215 809.549 63.678-36.765-12.168-43.601-63.678 36.764 12.168 43.602z" class="color5652cc svgShape"></path><path fill="#7dbeff" d="m1356.864 761.709 63.678-36.765-49.667-28.675-63.678 36.765 49.667 28.675z" class="colorff997d svgShape"></path><path style="mix-blend-mode:screen" fill="url(#az)" d="m1370.215 809.549 63.678-36.765-29.451-21.031-43.369 25.039 9.142 32.757z"></path><path style="mix-blend-mode:multiply" fill="url(#aA)" d="m1305.848 735.81-13.878 28.564 31.676-18.288-17.798-10.276z"></path><path style="mix-blend-mode:multiply" fill="url(#aB)" d="M1370.215 809.549h65.879l27.25-15.733-29.451-21.032-63.678 36.765z"></path></g></g></g></svg>