<svg xmlns="http://www.w3.org/2000/svg" enable-background="new 0 0 323.68 293.71" viewBox="0 0 323.68 293.71" id="Emergencymedicalservices"><g fill="#f4f6f8" class="color000000 svgShape"><g fill="#f4f6f8" class="color000000 svgShape"><g fill="#f4f6f8" class="color000000 svgShape"><g fill="#f4f6f8" class="color000000 svgShape"><g fill="#f4f6f8" class="color000000 svgShape"><g fill="#f4f6f8" class="color000000 svgShape"><g fill="#f4f6f8" class="color000000 svgShape"><g fill="#f4f6f8" class="color000000 svgShape"><path fill="#0c2340" d="M130.734,213.471c1.896-1.095,3.616-1.196,4.858-0.474l6.801,3.952
									c-1.242-0.722-2.961-0.621-4.858,0.474c-3.768,2.176-6.818,7.458-6.806,11.789c0.006,2.151,0.767,3.665,1.993,4.378
									l-6.801-3.952c-1.226-0.713-1.987-2.227-1.993-4.378C123.916,220.929,126.966,215.646,130.734,213.471z" class="color233163 svgShape"></path></g><g fill="#f4f6f8" class="color000000 svgShape"><path fill="#0c2340" d="M213.258,165.789c1.896-1.095,3.616-1.196,4.858-0.474l6.801,3.952
									c-1.242-0.722-2.961-0.621-4.858,0.474c-3.768,2.176-6.818,7.458-6.806,11.789c0.006,2.151,0.767,3.665,1.993,4.378
									l-6.801-3.952c-1.226-0.712-1.987-2.227-1.993-4.378C206.439,173.247,209.489,167.964,213.258,165.789z" class="color233163 svgShape"></path></g><g fill="#f4f6f8" class="color000000 svgShape"><g fill="#f4f6f8" class="color000000 svgShape"><path fill="#0c2340" d="M85.512,172.105c-0.405-0.234-0.737-0.048-0.739,0.421l-0.007,2.442
										c-0.001,0.47,0.329,1.039,0.734,1.272c0.008,0.005,0.016,0.009,0.024,0.013l4.042,2.179
										c0.397,0.214,0.713,0.022,0.714-0.435l0.006-2.135c0.001-0.457-0.313-1.014-0.709-1.258l-4.041-2.486
										C85.528,172.114,85.52,172.109,85.512,172.105z" class="color233163 svgShape"></path></g><g fill="#f4f6f8" class="color000000 svgShape"><path fill="#724a93" d="M86.11 171.401c.001-.001.003-.001.004-.002.012-.007.024-.013.037-.018.002-.001.005-.002.007-.003.004-.002.008-.003.013-.005.006-.002.013-.005.019-.007.007-.002.014-.003.021-.005.004-.001.009-.002.013-.003.002 0 .005-.001.007-.002.014-.003.029-.004.045-.005 0 0 .002 0 .003 0 .004 0 .007 0 .011 0 .012 0 .023-.001.035 0 .004 0 .008.001.012.001.007.001.015.001.022.002.007.001.014.001.021.002.006.001.012.003.018.004.01.002.02.004.03.007.006.001.011.002.016.004.005.001.011.004.017.006.017.005.034.011.052.018.006.002.012.004.018.006.004.001.007.004.01.005.03.013.061.028.092.046.008.005.016.009.024.014l4.041 2.486c.045.028.089.061.132.096.013.011.026.023.039.034.017.015.035.03.052.046.015.015.028.03.043.046.007.008.014.015.021.023.005.005.01.01.015.016.02.023.04.048.059.072.012.015.022.03.034.046.003.004.005.007.008.01.003.004.005.007.008.011.009.013.017.026.026.039l-1.127.649c-.01-.015-.019-.031-.03-.046-.002-.003-.005-.007-.008-.01-.034-.047-.07-.092-.108-.134-.007-.008-.014-.015-.022-.023-.03-.033-.062-.063-.094-.091-.013-.012-.025-.023-.039-.034-.043-.035-.086-.068-.132-.096l-4.041-2.486c-.008-.005-.016-.01-.024-.014-.031-.018-.062-.033-.092-.046-.01-.004-.019-.008-.029-.011-.018-.007-.035-.013-.052-.018-.011-.003-.022-.007-.033-.009-.01-.002-.02-.005-.03-.006-.013-.003-.026-.005-.039-.006-.007-.001-.015-.002-.022-.002-.016-.001-.032-.001-.047-.001-.004 0-.007 0-.011 0-.019.001-.037.003-.054.007-.005.001-.009.002-.013.003-.014.003-.027.007-.04.012-.004.002-.008.003-.013.004-.017.007-.033.014-.048.023L86.11 171.401zM91.152 174.417c.013.021.026.041.038.063.003.006.007.012.01.018.002.004.004.007.006.011.006.011.012.022.019.033.011.021.022.042.032.063.01.021.02.043.029.064.001.002.002.004.003.006.001.002.002.004.002.006.008.018.015.036.022.054.009.023.017.046.025.07.005.015.009.029.013.044.001.005.003.009.004.014.002.006.004.012.006.018.008.028.015.057.021.085.004.018.006.036.009.055.001.009.003.018.004.026.001.007.003.014.004.021.006.049.009.097.009.144l-.006 2.135c-.001.232-.082.396-.215.472l-1.122.652c.132-.077.214-.241.215-.472l.006-2.135c0-.054-.005-.109-.013-.165-.001-.009-.003-.018-.005-.027-.009-.052-.02-.105-.036-.157-.001-.005-.003-.009-.004-.014-.017-.056-.037-.112-.06-.167-.001-.002-.002-.004-.002-.006-.024-.057-.052-.112-.082-.166-.002-.004-.004-.007-.006-.011-.021-.038-.046-.073-.07-.109l1.127-.649C91.14 174.4 91.146 174.408 91.152 174.417z" class="color4a5f93 svgShape"></path></g><g fill="#f4f6f8" class="color000000 svgShape"><g fill="#f4f6f8" class="color000000 svgShape"><g fill="#f4f6f8" class="color000000 svgShape"><polygon fill="#737373" points="94.558 180.054 95.68 179.402 95.682 178.713 94.56 179.365" class="color737373 svgShape"></polygon></g><g fill="#f4f6f8" class="color000000 svgShape"><polygon fill="#724a93" points="94.56 179.365 95.682 178.713 91.41 176.246 90.288 176.898" class="color4a5f93 svgShape"></polygon></g><g fill="#f4f6f8" class="color000000 svgShape"><polygon fill="#0c2340" points="90.288 176.898 90.286 177.587 94.558 180.054 94.56 179.365" class="color233163 svgShape"></polygon></g></g></g></g><g fill="#f4f6f8" class="color000000 svgShape"><path fill="#f4f6f8" d="M238.186,107.691c-0.16-0.09-0.366-0.068-0.618,0.069l-79.531,45.913
									c-0.069,0.046-0.114,0.092-0.183,0.137c-0.046,0.046-0.114,0.092-0.16,0.138c-0.046,0.068-0.092,0.114-0.137,0.183
									c-0.046,0.068-0.092,0.138-0.137,0.182c0,0.023,0,0.023,0,0.023c-0.046,0.068-0.069,0.137-0.114,0.206
									c-0.023,0.069-0.046,0.137-0.069,0.207c-0.023,0.068-0.046,0.16-0.046,0.228c-0.023,0.069-0.023,0.137-0.023,0.207
									l0.023,18.362l-43.319-25.185l-0.046-18.362c0,0,0-0.023,0-0.046c0,0,0-0.024,0.023-0.024c0-0.022,0-0.046,0-0.046
									c0-0.022,0-0.022,0-0.046c0-0.022,0-0.022,0-0.046c0-0.022,0-0.022,0-0.045c0.023-0.023,0.023-0.023,0.023-0.047
									c0-0.022,0-0.022,0-0.045c0-0.023,0.023-0.023,0.023-0.047c0,0,0-0.022,0-0.045c0.023-0.023,0.023-0.023,0.023-0.046
									c0-0.023,0.023-0.023,0.023-0.046c0,0,0-0.023,0-0.046c0.023,0,0.023-0.023,0.023-0.046c0,0,0.023,0,0.023-0.023
									c0-0.022,0.023-0.046,0.023-0.046c0-0.022,0-0.046,0.023-0.046c0-0.022,0.023-0.046,0.023-0.068
									c0,0,0.023-0.022,0.023-0.046c0,0,0,0,0.023,0c0-0.023,0-0.023,0-0.023c0.023-0.022,0.046-0.068,0.069-0.092
									c0-0.045,0.023-0.068,0.046-0.091c0.023-0.023,0.023-0.023,0.046-0.046c0-0.023,0.023-0.023,0.023-0.046
									c0.023,0,0.023-0.023,0.046-0.046l0.023-0.023c0,0,0,0,0-0.022c0.023,0,0.023,0,0.023,0s0,0,0.023-0.023l0.023-0.022
									c0.023-0.023,0.046-0.046,0.046-0.046c0.023-0.023,0.023-0.023,0.046-0.023c0-0.022,0-0.022,0.023-0.022v-0.022
									c0.023,0,0.046-0.023,0.046-0.023c0.023-0.023,0.023-0.023,0.046-0.023c0-0.022,0.023-0.022,0.023-0.022
									c0.023-0.022,0.023-0.022,0.046-0.022c0,0,0,0,0-0.023l79.53-45.913c0.252-0.138,0.481-0.16,0.641-0.069L238.186,107.691z" class="coloreaeffa svgShape"></path><g fill="#f4f6f8" class="color000000 svgShape"><path fill="#d9e0e8" d="M114.009,129.312c0,0-0.023,0.023-0.023,0.046c0,0.023-0.023,0.023-0.023,0.023
										c0,0.022,0,0.046-0.023,0.046c0,0.022,0,0.046,0,0.046c0,0.022-0.023,0.022-0.023,0.046c0,0.022,0,0.022-0.023,0.046
										c0,0.022,0,0.045,0,0.045c0,0.023-0.023,0.023-0.023,0.047c0,0.022,0,0.022,0,0.045c0,0.023,0,0.023-0.023,0.047
										c0,0.022,0,0.022,0,0.045c0,0.023,0,0.023,0,0.046c0,0.023,0,0.023,0,0.046c0,0,0,0.023,0,0.046
										c-0.023,0-0.023,0.024-0.023,0.024c0,0.022,0,0.046,0,0.046l0.046,18.362l43.319,25.185l-0.023-18.362
										c0-0.069,0-0.137,0.023-0.207c0-0.068,0.023-0.16,0.046-0.228c0.023-0.069,0.046-0.138,0.069-0.207
										c0.016-0.023,0.027-0.046,0.039-0.069l-43.322-25.187C114.018,129.295,114.009,129.299,114.009,129.312z" class="colord9dfe8 svgShape"></path></g><g fill="#f4f6f8" class="color000000 svgShape"><polygon fill="#0c2340" points="142.569 182.607 99.239 157.426 92.271 180.054 135.602 205.235" class="color233163 svgShape"></polygon></g><path fill="#f4f6f8" d="M99.664,156.727L99.664,156.727c0.014-0.018,0.029-0.035,0.043-0.052
									c0.015-0.017,0.03-0.034,0.045-0.05c0.016-0.017,0.031-0.034,0.047-0.05c0.016-0.017,0.033-0.033,0.05-0.049
									c0.017-0.016,0.034-0.032,0.051-0.048c0.007-0.006,0.014-0.012,0.021-0.018c0.002-0.002,0.003-0.003,0.005-0.004
									c0.009-0.008,0.017-0.015,0.026-0.022c0.017-0.015,0.034-0.029,0.052-0.042c0.017-0.013,0.034-0.026,0.051-0.039
									c0.017-0.012,0.033-0.024,0.05-0.036c0.016-0.011,0.033-0.022,0.049-0.032c0.016-0.01,0.032-0.02,0.048-0.029
									c0.004-0.002,0.007-0.004,0.011-0.006l13.655-7.884l43.33,25.181l-13.655,7.883c-0.098,0.057-0.194,0.127-0.286,0.207
									c-0.002,0.001-0.003,0.003-0.005,0.004c-0.279,0.244-0.524,0.587-0.683,0.966l-43.33-25.181
									C99.347,157.17,99.494,156.932,99.664,156.727z" class="coloreaeffa svgShape"></path><g fill="#f4f6f8" class="color000000 svgShape"><path fill="#d0d6dd" d="M158.034,153.68c-0.481,0.278-0.87,0.954-0.869,1.504l0.033,18.362l-13.655,7.883
										c-0.395,0.228-0.761,0.671-0.974,1.177l-6.967,22.628l-10.162,10.102c-0.46,0.455-0.767,1.136-0.766,1.701l0.032,11.237
										l0.571,1.219l0.305,1.085l112.982-65.23l-0.125-57.088c-0.001-0.55-0.393-0.776-0.874-0.498L158.034,153.68z" class="colord0d5dd svgShape"></path></g><g fill="#f4f6f8" class="color000000 svgShape"><path fill="#e576d1" d="M238.439,108.261c-0.002-0.55-0.393-0.776-0.874-0.498l-79.531,45.916
										c-0.481,0.278-0.87,0.955-0.868,1.505l0.007,3.894l81.275-46.924L238.439,108.261z" class="colore576ad svgShape"></path></g><g fill="#f4f6f8" class="color000000 svgShape"><polygon fill="#6822a2" points="124.704 227.687 124.706 228.275 125.277 229.494 125.582 230.579 238.564 165.348 238.557 161.953" class="color3f528c svgShape"></polygon></g></g><g fill="#f4f6f8" class="color000000 svgShape"><path fill="#f4f6f8" d="M142.079,222.589c0.023,2.908-2.038,6.434-4.556,7.899c-2.519,1.464-4.579,0.274-4.579-2.61
									c-0.023-2.908,2.015-6.457,4.556-7.899C140.019,218.513,142.079,219.681,142.079,222.589z" class="coloreaeffa svgShape"></path></g><g fill="#f4f6f8" class="color000000 svgShape"><path fill="#6822a2" d="M137.487,217.348c3.767-2.175,6.835-0.446,6.878,3.857c0,0.022,0,0.044,0.001,0.066
									c0.012,4.351-3.047,9.653-6.834,11.84c-3.789,2.188-6.869,0.43-6.881-3.921c-0.001-0.495,0.037-1.003,0.112-1.517
									C131.344,223.671,134.129,219.286,137.487,217.348z M137.524,230.485c2.525-1.458,4.568-4.995,4.559-7.897
									c-0.008-2.902-2.064-4.073-4.589-2.615c-2.528,1.459-4.568,4.995-4.559,7.897
									C132.943,230.772,134.996,231.945,137.524,230.485" class="color3f528c svgShape"></path></g><g fill="#f4f6f8" class="color000000 svgShape"><path fill="#0c2340" d="M135.869,227.554c-0.114,0.066-0.229,0.182-0.316,0.334
									c-0.172,0.298-0.171,0.623,0.002,0.722c0.088,0.05,0.203,0.034,0.317-0.031c0.114-0.066,0.228-0.182,0.314-0.333
									c0.172-0.298,0.171-0.623-0.002-0.722C136.098,227.473,135.984,227.488,135.869,227.554z" class="color233163 svgShape"></path></g><g fill="#f4f6f8" class="color000000 svgShape"><path fill="#0c2340" d="M139.831,223.376c-0.246,0.142-0.444,0.485-0.443,0.768c0.001,0.283,0.2,0.396,0.446,0.254
									c0.246-0.142,0.444-0.485,0.443-0.768C140.277,223.348,140.078,223.234,139.831,223.376z" class="color233163 svgShape"></path></g><g fill="#f4f6f8" class="color000000 svgShape"><g fill="#f4f6f8" class="color000000 svgShape"><path fill="#f4f6f8" d="M224.635,174.923c0,2.908-2.038,6.434-4.556,7.899c-2.519,1.464-4.579,0.297-4.579-2.61
										c-0.023-2.908,2.015-6.434,4.556-7.899C222.574,170.848,224.635,172.015,224.635,174.923z" class="coloreaeffa svgShape"></path></g><g fill="#f4f6f8" class="color000000 svgShape"><path fill="#0c2340" d="M217.739,178.396c-0.246,0.142-0.444,0.485-0.443,0.768c0.001,0.283,0.2,0.396,0.446,0.254
										c0.246-0.142,0.444-0.486,0.444-0.768C218.184,178.368,217.985,178.254,217.739,178.396z" class="color233163 svgShape"></path></g><g fill="#f4f6f8" class="color000000 svgShape"><path fill="#6822a2" d="M220.041,169.685c3.767-2.175,6.837-0.447,6.881,3.855c0,0.022,0,0.044,0.001,0.066
										c0.012,4.351-3.05,9.655-6.836,11.841c-3.787,2.186-6.869,0.43-6.881-3.921c0-0.022,0-0.044,0-0.066
										C213.224,177.121,216.274,171.86,220.041,169.685z M220.079,182.822c2.525-1.458,4.567-4.995,4.559-7.897
										c-0.008-2.902-2.064-4.073-4.589-2.615c-2.525,1.458-4.568,4.995-4.559,7.897
										C215.498,183.109,217.553,184.28,220.079,182.822" class="color3f528c svgShape"></path></g><g fill="#f4f6f8" class="color000000 svgShape"><path fill="#0c2340" d="M221.711,177.994c-0.114,0.066-0.227,0.182-0.314,0.332c-0.175,0.3-0.174,0.624,0.002,0.722
										c0.087,0.051,0.201,0.035,0.314-0.03c0.114-0.066,0.228-0.182,0.314-0.332c0.175-0.3,0.174-0.624-0.002-0.722
										C221.939,177.913,221.825,177.928,221.711,177.994z" class="color233163 svgShape"></path></g><g fill="#f4f6f8" class="color000000 svgShape"><path fill="#0c2340" d="M220.07,179.725c-0.246,0.142-0.444,0.485-0.443,0.768c0.001,0.283,0.2,0.396,0.446,0.254
										c0.246-0.142,0.444-0.485,0.443-0.768C220.515,179.697,220.316,179.583,220.07,179.725z" class="color233163 svgShape"></path></g><g fill="#f4f6f8" class="color000000 svgShape"><path fill="#0c2340" d="M222.386,175.713c-0.246,0.142-0.444,0.485-0.443,0.768c0.001,0.283,0.2,0.396,0.446,0.254
										c0.246-0.142,0.444-0.485,0.443-0.768C222.832,175.685,222.632,175.571,222.386,175.713z" class="color233163 svgShape"></path></g><g fill="#f4f6f8" class="color000000 svgShape"><path fill="#0c2340" d="M218.424,179.891c-0.114,0.066-0.228,0.182-0.314,0.332c-0.175,0.3-0.174,0.624,0.002,0.722
										c0.087,0.051,0.201,0.035,0.314-0.03c0.114-0.066,0.227-0.182,0.314-0.332c0.175-0.3,0.174-0.624-0.002-0.722
										C218.652,179.81,218.538,179.826,218.424,179.891z" class="color233163 svgShape"></path></g><g fill="#f4f6f8" class="color000000 svgShape"><path fill="#0c2340" d="M221.699,174.219c-0.113,0.066-0.227,0.181-0.312,0.331c-0.175,0.3-0.174,0.624,0.002,0.725
										c0.086,0.049,0.2,0.033,0.313-0.032c0.114-0.066,0.229-0.183,0.315-0.334c0.175-0.3,0.174-0.624-0.002-0.722
										C221.928,174.137,221.813,174.153,221.699,174.219z" class="color233163 svgShape"></path></g><g fill="#f4f6f8" class="color000000 svgShape"><path fill="#0c2340" d="M221.223,176.892c0,0.733-0.527,1.627-1.145,1.992c-0.641,0.389-1.168,0.092-1.168-0.641
										c0-0.733,0.504-1.649,1.145-2.015C220.697,175.862,221.223,176.159,221.223,176.892z" class="color233163 svgShape"></path></g><g fill="#f4f6f8" class="color000000 svgShape"><path fill="#0c2340" d="M220.055,174.385c-0.246,0.142-0.444,0.485-0.443,0.768c0.001,0.283,0.2,0.396,0.446,0.254
										c0.246-0.142,0.444-0.485,0.443-0.768C220.5,174.356,220.301,174.243,220.055,174.385z" class="color233163 svgShape"></path></g><g fill="#f4f6f8" class="color000000 svgShape"><path fill="#0c2340" d="M218.414,176.115c-0.114,0.066-0.228,0.182-0.314,0.333c-0.175,0.3-0.174,0.624,0.002,0.725
										c0.087,0.049,0.201,0.033,0.314-0.033c0.114-0.066,0.227-0.181,0.314-0.33c0.175-0.303,0.174-0.627-0.002-0.725
										C218.641,176.033,218.527,176.049,218.414,176.115z" class="color233163 svgShape"></path></g><g fill="#f4f6f8" class="color000000 svgShape"><path fill="#0c2340" d="M139.156,225.657c-0.114,0.066-0.228,0.182-0.316,0.334
										c-0.172,0.298-0.171,0.623,0.002,0.722c0.088,0.05,0.203,0.034,0.317-0.032c0.114-0.066,0.228-0.182,0.314-0.333
										c0.172-0.298,0.171-0.623-0.002-0.722C139.384,225.576,139.27,225.591,139.156,225.657z" class="color233163 svgShape"></path></g><g fill="#f4f6f8" class="color000000 svgShape"><path fill="#0c2340" d="M137.515,227.388c-0.246,0.142-0.444,0.485-0.443,0.768c0.001,0.283,0.2,0.396,0.446,0.254
										c0.246-0.142,0.444-0.485,0.443-0.768C137.961,227.36,137.761,227.246,137.515,227.388z" class="color233163 svgShape"></path></g><g fill="#f4f6f8" class="color000000 svgShape"><path fill="#0c2340" d="M135.184,226.059c-0.246,0.142-0.444,0.485-0.444,0.768c0.001,0.283,0.2,0.396,0.446,0.254
										c0.246-0.142,0.444-0.485,0.443-0.768C135.629,226.031,135.427,225.919,135.184,226.059z" class="color233163 svgShape"></path></g><g fill="#f4f6f8" class="color000000 svgShape"><path fill="#0c2340" d="M137.505,223.9c-0.638,0.369-1.155,1.266-1.153,1.997c0.002,0.734,0.522,1.03,1.16,0.661
										c0.636-0.367,1.155-1.263,1.153-1.997C138.664,223.831,138.141,223.533,137.505,223.9z" class="color233163 svgShape"></path></g><g fill="#f4f6f8" class="color000000 svgShape"><path fill="#0c2340" d="M135.859,223.777c-0.114,0.066-0.229,0.183-0.316,0.334
										c-0.172,0.298-0.171,0.623,0.002,0.725c0.088,0.049,0.203,0.032,0.317-0.034c0.114-0.066,0.228-0.181,0.314-0.33
										c0.172-0.301,0.171-0.626-0.002-0.725C136.087,223.696,135.973,223.712,135.859,223.777z" class="color233163 svgShape"></path></g><g fill="#f4f6f8" class="color000000 svgShape"><path fill="#0c2340" d="M139.144,221.882c-0.114,0.066-0.227,0.181-0.315,0.332
										c-0.172,0.298-0.171,0.623,0.002,0.725c0.088,0.048,0.202,0.032,0.315-0.033c0.115-0.066,0.229-0.183,0.315-0.334
										c0.172-0.298,0.171-0.623-0.002-0.721C139.373,221.8,139.259,221.816,139.144,221.882z" class="color233163 svgShape"></path></g><g fill="#f4f6f8" class="color000000 svgShape"><path fill="#0c2340" d="M137.5,222.048c-0.246,0.142-0.444,0.485-0.443,0.768s0.2,0.396,0.446,0.254
										c0.246-0.142,0.444-0.485,0.443-0.768C137.946,222.019,137.746,221.906,137.5,222.048z" class="color233163 svgShape"></path></g></g><g fill="#f4f6f8" class="color000000 svgShape"><path fill="#0c2340" d="M137.731,203.795c0.129,0.2,0.368,0.224,0.64,0.067l15.374-8.876
									c0.4-0.231,0.727-0.793,0.725-1.253l-0.029-14.199c-0.001-0.46-0.329-0.647-0.73-0.416l-9.69,5.595
									c-0.249,0.143-0.476,0.419-0.609,0.734l-5.658,17.482C137.609,203.272,137.6,203.596,137.731,203.795" class="color233163 svgShape"></path><path fill="#938cf7" d="M144.501,185.799c0.011-0.011,0.076-0.082,0.098-0.1l8.7-5.022l0.027,13.058
									c-0.009,0.065-0.098,0.219-0.161,0.263l-13.921,8.037L144.501,185.799z" class="color8ca8f7 svgShape"></path></g><g fill="#f4f6f8" class="color000000 svgShape"><path fill="#0c2340" d="M145.706,218.96c-0.022-0.141-0.047-0.279-0.076-0.414c-0.021-0.101-0.044-0.199-0.068-0.295
									c-0.903-3.568-4.097-4.779-7.905-2.671c-0.058,0.031-0.116,0.065-0.175,0.098c-0.044,0.025-0.087,0.05-0.13,0.076
									c-3.911,2.329-7.163,7.4-7.964,12.101c-0.033,0.192-0.059,0.383-0.084,0.574l1.478-0.853
									c0.612-3.975,3.373-8.305,6.704-10.228c3.329-1.923,6.103-0.788,6.735,2.468L145.706,218.96L145.706,218.96z" class="color233163 svgShape"></path></g><g fill="#f4f6f8" class="color000000 svgShape"><path fill="#0c2340" d="M145.706,218.96c-0.022-0.141-0.047-0.279-0.076-0.414c-0.021-0.101-0.044-0.199-0.068-0.295
									c-0.903-3.568-4.097-4.779-7.905-2.671c-0.058,0.031-0.116,0.065-0.175,0.098c-0.044,0.025-0.087,0.05-0.13,0.076
									c-3.911,2.329-7.163,7.4-7.964,12.101c-0.033,0.192-0.059,0.383-0.084,0.574l1.478-0.853
									c0.612-3.975,3.373-8.305,6.704-10.228c3.329-1.923,6.103-0.788,6.735,2.468L145.706,218.96L145.706,218.96z" class="color233163 svgShape"></path></g><g fill="#f4f6f8" class="color000000 svgShape"><g fill="#f4f6f8" class="color000000 svgShape"><path fill="#2d4c74" d="M124.711,230.802L124.711,230.802c0.005,0.033,0.014,0.061,0.028,0.085
										c0,0.001,0.001,0.002,0.001,0.002c0.014,0.023,0.031,0.041,0.052,0.053l-45.607-26.504c-0.02-0.011-0.037-0.028-0.05-0.049
										c-0.001-0.001-0.002-0.003-0.002-0.004l-0.001-0.002c-0.002-0.004-0.005-0.008-0.007-0.013
										c-0.003-0.005-0.005-0.011-0.007-0.017c-0.002-0.005-0.004-0.01-0.005-0.016c-0.001-0.005-0.003-0.01-0.004-0.015
										c-0.001-0.005-0.002-0.009-0.003-0.014c-0.001-0.003-0.001-0.007-0.002-0.01l0,0l-0.612-4.294l45.608,26.504
										L124.711,230.802z" class="color2d3a74 svgShape"></path><path fill="#0c2340" d="M126.232,224.893l-1.846,1.067c-0.175,0.102-0.311,0.361-0.287,0.549l0.612,4.293
										c0.021,0.153,0.145,0.203,0.289,0.12l1.247-0.722L126.232,224.893z" class="color233163 svgShape"></path></g></g><path fill="#6822a2" d="M78.491,199.932v-0.029c0-0.004,0.004-0.008,0.004-0.012v-0.016
								c0.004-0.004,0.004-0.008,0.004-0.016v-0.004c0,0,0,0,0.004,0c0-0.004,0-0.008,0-0.008c0-0.008,0.004-0.012,0.004-0.016
								c0-0.004,0.004-0.012,0.004-0.016c0.004-0.004,0.004-0.012,0.004-0.016c0.004-0.004,0.004-0.008,0.008-0.013
								c0-0.008,0-0.012,0.004-0.016c0-0.004,0.004-0.008,0.004-0.012c0.004-0.008,0.004-0.012,0.008-0.016
								c0-0.004,0.004-0.008,0.004-0.012c0.004-0.008,0.008-0.012,0.008-0.016c0.004-0.004,0.004-0.008,0.008-0.012
								c0-0.004,0-0.004,0-0.004c0.004-0.008,0.012-0.016,0.016-0.025c0.008-0.012,0.012-0.025,0.021-0.037
								c0.008-0.012,0.012-0.021,0.02-0.029c0.004-0.004,0.008-0.008,0.012-0.016c0.004-0.004,0.008-0.008,0.012-0.012
								c0.004-0.004,0.004-0.008,0.008-0.012c0.004-0.004,0.004-0.004,0.004-0.004c0.004-0.004,0.008-0.008,0.008-0.008
								c0.004-0.004,0.008-0.008,0.012-0.012c0.004-0.004,0.008-0.008,0.012-0.012c0.004-0.004,0.008-0.008,0.013-0.012
								c0.004-0.004,0.008-0.008,0.012-0.012c0.004-0.004,0.008-0.008,0.012-0.008c0.004-0.004,0.008-0.008,0.012-0.012
								c0.004-0.004,0.008-0.004,0.012-0.008c0.004-0.004,0.008-0.004,0.012-0.008c0.004-0.004,0.008-0.004,0.012-0.008
								c0.004,0,0.004,0,0.004,0l2.582-1.421v0.781l44.872,26.076l-1.848,1.066c-0.041,0.029-0.082,0.061-0.119,0.102
								c-0.037,0.041-0.07,0.09-0.099,0.139c0,0,0,0,0,0.004c-0.025,0.049-0.045,0.103-0.057,0.152c0,0,0,0,0,0.004
								c-0.012,0.049-0.017,0.103-0.008,0.148l-45.609-26.502v-0.016c0-0.004,0-0.008-0.004-0.016v-0.024
								C78.487,199.944,78.491,199.936,78.491,199.932z" class="color3f528c svgShape"></path><polygon fill="#938cf7" points="141.107 183.179 99.959 159.267 93.734 179.482 134.882 203.394" class="color8ca8f7 svgShape"></polygon><path fill="#f4f6f8" d="M81.48,191.154l-0.003-0.002c0.007-0.019,0.014-0.038,0.022-0.057
								c0.007-0.019,0.015-0.038,0.023-0.056c0.008-0.018,0.016-0.037,0.024-0.055c0.008-0.019,0.017-0.038,0.026-0.057
								c0.009-0.02,0.019-0.039,0.028-0.059l0,0c0.011-0.023,0.023-0.046,0.035-0.068c0.008-0.015,0.016-0.029,0.024-0.044
								c0.004-0.007,0.008-0.014,0.012-0.021c0.006-0.01,0.011-0.021,0.017-0.031c0.031-0.054,0.064-0.106,0.099-0.158
								c0.002-0.003,0.004-0.006,0.006-0.009c0.003-0.004,0.006-0.008,0.009-0.012c0.018-0.026,0.035-0.051,0.054-0.076
								c0.016-0.021,0.032-0.042,0.048-0.063c0.013-0.016,0.026-0.033,0.04-0.049c0.001-0.001,0.002-0.002,0.003-0.003
								c0.001-0.001,0.002-0.002,0.002-0.003c0.015-0.018,0.03-0.035,0.045-0.052c0.015-0.017,0.03-0.034,0.045-0.05
								c0.016-0.017,0.032-0.034,0.048-0.05c0.008-0.008,0.016-0.016,0.024-0.024l10.162-10.102l43.331,25.181l-10.162,10.102
								c-0.057,0.056-0.112,0.117-0.164,0.18c-0.001,0.001-0.002,0.002-0.003,0.003c-0.05,0.06-0.097,0.123-0.141,0.188
								c-0.003,0.004-0.006,0.008-0.009,0.012c-0.044,0.064-0.084,0.13-0.122,0.197c-0.004,0.007-0.008,0.014-0.012,0.021
								c-0.198,0.357-0.316,0.751-0.315,1.1l-43.33-25.181C81.343,191.633,81.393,191.392,81.48,191.154z" class="coloreaeffa svgShape"></path><polygon fill="#bcc4cc" points="124.674 217.038 124.694 223.999 81.36 198.817 81.343 191.857" class="colorbcc2cc svgShape"></polygon><g fill="#f4f6f8" class="color000000 svgShape"><polygon fill="#ffffff" points="109.105 210.694 109.09 213.51 97.048 206.551 97.048 203.735" class="colorffffff svgShape"></polygon></g><g fill="#f4f6f8" class="color000000 svgShape"><polygon fill="#5046e4" points="133.396 174.126 139.761 170.426 139.784 164.474 133.419 168.173" class="color8294ed svgShape"></polygon><g fill="#f4f6f8" class="color000000 svgShape"><polygon fill="#93c8fd" points="119.647 152.848 129.716 158.661 123.351 162.36 113.282 156.546" class="colorfd93bf svgShape"></polygon><polygon fill="#b7dbff" points="139.784 164.474 133.419 168.173 123.351 162.36 129.716 158.661" class="colorb7ceff svgShape"></polygon></g><g fill="#f4f6f8" class="color000000 svgShape"><polygon fill="#938cf7" points="133.419 168.173 133.396 174.126 123.327 168.312 123.351 162.36" class="color8ca8f7 svgShape"></polygon><polygon fill="#e576d1" points="113.282 156.546 123.351 162.36 123.327 168.312 113.259 162.499" class="colore576ad svgShape"></polygon></g></g><g fill="#f4f6f8" class="color000000 svgShape"><polygon fill="#e576d1" points="235.028 162.047 238.561 160.007 238.541 152.452 235.028 154.481" class="colore576ad svgShape"></polygon></g><g fill="#f4f6f8" class="color000000 svgShape"><g fill="#f4f6f8" class="color000000 svgShape"><g fill="#f4f6f8" class="color000000 svgShape"><g fill="#f4f6f8" class="color000000 svgShape"><polygon fill="#737373" points="139.412 206.221 140.534 205.569 140.536 204.88 139.413 205.532" class="color737373 svgShape"></polygon></g><g fill="#f4f6f8" class="color000000 svgShape"><polygon fill="#724a93" points="139.413 205.532 140.536 204.88 137.631 203.213 136.509 203.865" class="color4a5f93 svgShape"></polygon></g><g fill="#f4f6f8" class="color000000 svgShape"><polygon fill="#0c2340" points="136.509 203.865 136.507 204.554 139.412 206.221 139.413 205.532" class="color233163 svgShape"></polygon></g></g></g><g fill="#f4f6f8" class="color000000 svgShape"><path fill="#0c2340" d="M144.198,206.597c-0.008-0.005-0.016-0.009-0.024-0.013l-4.041-2.179
										c-0.397-0.214-0.714-0.022-0.715,0.434l-0.006,2.135c-0.001,0.457,0.313,1.013,0.71,1.258l4.04,2.486
										c0.008,0.005,0.016,0.01,0.024,0.014c0.405,0.234,0.738,0.048,0.739-0.421l0.007-2.442
										C144.934,207.4,144.603,206.831,144.198,206.597z" class="color233163 svgShape"></path></g><g fill="#f4f6f8" class="color000000 svgShape"><path fill="#724a93" d="M146.063,207.226l-0.023,2.427c0,0.229-0.069,0.411-0.206,0.481l-1.122,0.641
										c0.137-0.068,0.206-0.229,0.206-0.458l0.023-2.449c0-0.046-0.023-0.114-0.023-0.16c0-0.023,0-0.023,0-0.023
										c-0.023-0.068-0.023-0.114-0.046-0.182c-0.023-0.069-0.046-0.115-0.069-0.183c-0.023-0.046-0.046-0.115-0.091-0.161v-0.022
										c0,0-0.023-0.023-0.023-0.046c-0.023-0.023-0.046-0.068-0.069-0.092c0-0.023-0.023-0.023-0.023-0.023
										c-0.023-0.045-0.069-0.092-0.092-0.136c-0.023,0-0.023-0.023-0.046-0.023c-0.023-0.022-0.046-0.046-0.092-0.092
										l-0.023-0.022c-0.046-0.046-0.092-0.069-0.137-0.092c-0.023-0.023-0.023-0.023-0.023-0.023l-4.053-2.174
										c-0.023-0.023-0.046-0.023-0.069-0.046c-0.023,0-0.023,0-0.023,0c-0.023,0-0.046-0.023-0.069-0.023h-0.023
										c-0.023,0-0.023-0.022-0.046-0.022h-0.023c-0.023,0-0.023,0-0.023,0h-0.069c-0.023,0-0.023,0-0.046,0c0,0,0,0-0.023,0
										l1.03-0.596c0.023-0.022,0.023-0.022,0.046-0.022c0,0,0.023,0,0.023-0.023c0,0,0,0,0.023,0c0.023,0,0.023,0,0.023,0
										c0.023,0,0.046,0,0.046,0c0.023-0.022,0.046-0.022,0.069-0.022c0,0.022,0,0.022,0,0.022s0,0,0.023,0h0.023
										c0.023,0,0.023,0,0.046,0c0,0,0,0,0.023,0c0.023,0.023,0.046,0.023,0.069,0.023c0,0.022,0,0.022,0.023,0.022
										c0.023,0,0.046,0.023,0.069,0.023l4.053,2.174c0,0.023,0,0.023,0.023,0.023c0.046,0.022,0.092,0.068,0.137,0.092
										c0,0.022,0.023,0.022,0.023,0.046c0.023,0.022,0.046,0.022,0.069,0.046c0.023,0.022,0.023,0.022,0.046,0.046
										c0,0,0,0,0.023,0.022c0,0,0,0.023,0.023,0.023c0.023,0.022,0.046,0.046,0.046,0.068c0.023,0.022,0.023,0.022,0.023,0.022
										c0,0.023,0.023,0.023,0.023,0.023s0,0.023,0.023,0.023c0,0.022,0.023,0.045,0.023,0.068
										c0.023,0.023,0.023,0.023,0.046,0.046c0,0,0,0,0,0.022c0.023,0.023,0.023,0.046,0.046,0.046
										c0,0.023,0.023,0.046,0.023,0.069c0,0.022,0.023,0.046,0.023,0.068c0.023,0.023,0.023,0.046,0.023,0.069
										c0.023,0.022,0.023,0.046,0.046,0.068v0.023c0,0.022,0,0.022,0,0.022s0,0.022,0.023,0.022v0.092
										c0.023,0.023,0.023,0.023,0.023,0.047v0.022c0,0.022,0,0.022,0,0.022C146.04,207.111,146.063,207.18,146.063,207.226z" class="color4a5f93 svgShape"></path></g></g></g><g fill="#f4f6f8" class="color000000 svgShape"><g fill="#f4f6f8" class="color000000 svgShape"><g fill="#f4f6f8" class="color000000 svgShape"><path fill="#0c2340" d="M182.626,164.712c0,0.508-0.365,1.143-0.809,1.397l-18.89,10.914
										c-0.444,0.254-0.809,0.047-0.809-0.46l-0.016-15.952c-0.016-0.508,0.349-1.127,0.794-1.397l18.89-10.913
										c0.445-0.253,0.81-0.047,0.81,0.477L182.626,164.712z" class="color233163 svgShape"></path><path fill="#938cf7" d="M181.495,149.133l-18.302,10.573c-0.274,0.167-0.525,0.598-0.517,0.904l0.024,15.216
										c0.001,0.295,0.321,0.479,0.576,0.331l18.258-10.549c0.283-0.164,0.516-0.565,0.517-0.892l0.02-15.248
										C182.072,149.171,181.751,148.985,181.495,149.133z" class="color8ca8f7 svgShape"></path></g></g><g fill="#f4f6f8" class="color000000 svgShape"><g fill="#f4f6f8" class="color000000 svgShape"><path fill="#0c2340" d="M208.757,149.625c0,0.508-0.365,1.143-0.809,1.397l-18.89,10.913
										c-0.444,0.254-0.809,0.047-0.809-0.46l-0.016-15.952c-0.016-0.508,0.349-1.127,0.794-1.396l18.89-10.913
										c0.444-0.253,0.809-0.047,0.809,0.477L208.757,149.625z" class="color233163 svgShape"></path><path fill="#938cf7" d="M207.626,134.046l-18.302,10.573c-0.274,0.167-0.525,0.598-0.517,0.904l0.024,15.216
										c0.001,0.295,0.321,0.479,0.576,0.331l18.258-10.549c0.283-0.164,0.516-0.565,0.517-0.892l0.02-15.248
										C208.203,134.084,207.882,133.898,207.626,134.046z" class="color8ca8f7 svgShape"></path></g></g><g fill="#f4f6f8" class="color000000 svgShape"><g fill="#f4f6f8" class="color000000 svgShape"><path fill="#0c2340" d="M234.888,134.539c0,0.508-0.365,1.143-0.81,1.397l-18.89,10.913
										c-0.444,0.254-0.809,0.047-0.809-0.46l-0.016-15.952c-0.016-0.508,0.349-1.127,0.794-1.397l18.89-10.913
										c0.445-0.253,0.809-0.047,0.809,0.477L234.888,134.539z" class="color233163 svgShape"></path><path fill="#938cf7" d="M233.757,118.96l-18.302,10.573c-0.274,0.167-0.525,0.598-0.517,0.904l0.024,15.216
										c0.001,0.295,0.321,0.479,0.576,0.331l18.258-10.549c0.283-0.164,0.516-0.565,0.517-0.892l0.02-15.248
										C234.333,118.997,234.013,118.812,233.757,118.96z" class="color8ca8f7 svgShape"></path></g></g></g></g><g fill="#f4f6f8" class="color000000 svgShape"><g fill="#f4f6f8" class="color000000 svgShape"><polygon fill="#6822a2" points="162.104 182.191 162.104 188.884 238.564 144.765 238.546 138.071" class="color3f528c svgShape"></polygon></g><g fill="#f4f6f8" class="color000000 svgShape"><g fill="#f4f6f8" class="color000000 svgShape"><polygon fill="#e576d1" points="231.292 142.842 225.476 151.712 223.378 152.924 229.194 144.053" class="colore576ad svgShape"></polygon></g><g fill="#f4f6f8" class="color000000 svgShape"><polygon fill="#e576d1" points="204.276 158.439 198.46 167.31 196.369 168.517 202.178 159.65" class="colore576ad svgShape"></polygon></g><g fill="#f4f6f8" class="color000000 svgShape"><polygon fill="#e576d1" points="177.26 174.037 171.452 182.903 169.354 184.114 175.162 175.248" class="colore576ad svgShape"></polygon></g><g fill="#f4f6f8" class="color000000 svgShape"><polygon fill="#e576d1" points="184.016 170.136 178.2 179.007 176.102 180.218 181.918 171.347" class="colore576ad svgShape"></polygon></g><g fill="#f4f6f8" class="color000000 svgShape"><polygon fill="#e576d1" points="190.772 166.236 184.956 175.107 182.858 176.318 188.674 167.447" class="colore576ad svgShape"></polygon></g><g fill="#f4f6f8" class="color000000 svgShape"><polygon fill="#e576d1" points="197.52 162.34 191.712 171.206 189.614 172.417 195.43 163.547" class="colore576ad svgShape"></polygon></g><g fill="#f4f6f8" class="color000000 svgShape"><polygon fill="#e576d1" points="170.504 177.937 164.696 186.804 162.613 188.006 168.414 179.144" class="colore576ad svgShape"></polygon></g><g fill="#f4f6f8" class="color000000 svgShape"><g fill="#f4f6f8" class="color000000 svgShape"><polygon fill="#f4f6f8" points="235.949 140.152 230.134 149.023 232.231 147.812 238.033 138.967 238.048 144.454 162.613 188.006 162.597 182.502 168.414 179.144 162.613 187.998 164.696 186.804 170.504 177.937 175.162 175.248 169.354 184.114 171.452 182.903 177.26 174.037 181.918 171.347 176.102 180.218 178.2 179.007 184.016 170.136 188.674 167.447 182.858 176.318 184.956 175.107 190.772 166.236 195.43 163.547 189.614 172.417 191.712 171.206 197.52 162.34 202.178 159.65 196.369 168.517 198.46 167.31 204.276 158.439 208.934 155.75 203.118 164.621 205.216 163.41 211.032 154.539 215.689 151.85 209.874 160.72 211.971 159.509 217.78 150.643 222.438 147.953 216.629 156.82 218.72 155.613 224.536 146.742 229.194 144.053 223.378 152.924 225.476 151.712 231.292 142.842" class="coloreaeffa svgShape"></polygon></g><g fill="#f4f6f8" class="color000000 svgShape"><polygon fill="#e576d1" points="238.033 138.95 232.231 147.812 230.134 149.023 235.949 140.152" class="colore576ad svgShape"></polygon></g><g fill="#f4f6f8" class="color000000 svgShape"><polygon fill="#e576d1" points="224.536 146.742 218.72 155.613 216.629 156.82 222.438 147.953" class="colore576ad svgShape"></polygon></g><g fill="#f4f6f8" class="color000000 svgShape"><polygon fill="#e576d1" points="217.78 150.643 211.971 159.509 209.874 160.72 215.689 151.85" class="colore576ad svgShape"></polygon></g><g fill="#f4f6f8" class="color000000 svgShape"><polygon fill="#e576d1" points="211.032 154.539 205.216 163.41 203.118 164.621 208.934 155.75" class="colore576ad svgShape"></polygon></g></g></g></g><g fill="#f4f6f8" class="color000000 svgShape"><path fill="#0c2340" d="M228.27,171.298c-0.022-0.141-0.047-0.279-0.076-0.414c-0.021-0.101-0.044-0.199-0.068-0.295
							c-0.903-3.568-4.097-4.779-7.906-2.671c-0.058,0.031-0.116,0.065-0.175,0.098c-0.044,0.025-0.087,0.05-0.13,0.076
							c-3.911,2.329-7.163,7.4-7.964,12.101c-0.033,0.192-0.059,0.383-0.084,0.574l1.478-0.853
							c0.612-3.976,3.373-8.305,6.704-10.228c3.329-1.923,6.103-0.788,6.735,2.469L228.27,171.298L228.27,171.298z" class="color233163 svgShape"></path></g><g fill="#f4f6f8" class="color000000 svgShape"><polygon fill="#e576d1" points="81.348 193.906 83.346 195.06 83.334 199.413 81.345 198.265" class="colore576ad svgShape"></polygon><g fill="#f4f6f8" class="color000000 svgShape"><path fill="#ffffff" d="M88.211,202.229l-4.877-2.816l0.012-4.353l4.877,2.816L88.211,202.229z" class="colorffffff svgShape"></path></g><g fill="#f4f6f8" class="color000000 svgShape"><path fill="#b5cee7" d="M85.142,196.453c-0.818-0.472-1.483-0.097-1.485,0.843s0.658,2.084,1.476,2.556
								c0.815,0.47,1.48,0.091,1.482-0.848C86.617,198.064,85.957,196.923,85.142,196.453z" class="colore7b8b5 svgShape"></path></g></g><g fill="#f4f6f8" class="color000000 svgShape"><polygon fill="#e576d1" points="124.691 222.933 122.692 221.779 122.705 217.425 124.694 218.574" class="colore576ad svgShape"></polygon><g fill="#f4f6f8" class="color000000 svgShape"><path fill="#ffffff" d="M117.828,214.609l4.877,2.816l-0.012,4.354l-4.877-2.816L117.828,214.609z" class="colorffffff svgShape"></path></g><g fill="#f4f6f8" class="color000000 svgShape"><path fill="#b5cee7" d="M120.897,220.385c0.818,0.472,1.483,0.097,1.486-0.843c0.003-0.94-0.658-2.085-1.476-2.557
								c-0.815-0.471-1.48-0.091-1.482,0.849C119.421,218.774,120.082,219.915,120.897,220.385z" class="colore7b8b5 svgShape"></path></g></g><g fill="#f4f6f8" class="color000000 svgShape"><polygon fill="#724a93" points="135.586 144.388 135.575 148.518 138.691 148.248 139.784 151.067 136.668 151.336 139.773 155.19 138.666 156.746 135.562 152.892 135.551 157.008 133.356 155.741 133.368 151.625 130.252 151.888 129.158 149.062 132.274 148.799 129.17 144.939 130.276 143.39 133.38 147.251 133.392 143.121" class="color4a5f93 svgShape"></polygon></g></g><g fill="#f4f6f8" class="color000000 svgShape"><g fill="#f4f6f8" class="color000000 svgShape"><g fill="#f4f6f8" class="color000000 svgShape"><polygon fill="#d0d6dd" points="175.305 101.699 175.309 103.114 200.336 117.658 200.332 116.243" class="colord0d5dd svgShape"></polygon></g><g fill="#f4f6f8" class="color000000 svgShape"><polygon fill="#bcc4cc" points="200.332 116.243 200.336 117.658 221.684 105.333 221.68 103.918" class="colorbcc2cc svgShape"></polygon></g><g fill="#f4f6f8" class="color000000 svgShape"><polygon fill="#ffffff" points="175.305 101.699 200.332 116.243 221.68 103.918 196.653 89.373" class="colorffffff svgShape"></polygon></g></g></g><g fill="#f4f6f8" class="color000000 svgShape"><g fill="#f4f6f8" class="color000000 svgShape"><g fill="#f4f6f8" class="color000000 svgShape"><polygon fill="#d0d6dd" points="141.2 121.389 141.204 122.804 166.232 137.349 166.228 135.933" class="colord0d5dd svgShape"></polygon></g><g fill="#f4f6f8" class="color000000 svgShape"><polygon fill="#bcc4cc" points="166.228 135.933 166.232 137.349 187.579 125.024 187.575 123.608" class="colorbcc2cc svgShape"></polygon></g><g fill="#f4f6f8" class="color000000 svgShape"><polygon fill="#ffffff" points="141.2 121.389 166.228 135.933 187.575 123.608 162.548 109.064" class="colorffffff svgShape"></polygon></g></g></g></g><g fill="#f4f6f8" class="color000000 svgShape"><g fill="#f4f6f8" class="color000000 svgShape"><g fill="#f4f6f8" class="color000000 svgShape"><path fill="#e576d1" d="M92.301,50.93c-7.893-4.557-14.297-0.941-14.323,8.129
							c-0.051,18.042,24.94,50.044,26.255,51.728c1.321-0.162,26.411-3.25,26.462-21.292c0.026-9.071-6.365-20.074-14.202-24.598
							c-5.129-2.961-9.612-2.434-12.133,0.735C101.839,59.552,97.402,53.875,92.301,50.93z" class="colore576ad svgShape"></path></g><g fill="#f4f6f8" class="color000000 svgShape"><path fill="#93c8fd" d="M130.696,89.496c0.026-9.07-6.365-20.074-14.202-24.597c-5.129-2.963-9.612-2.434-12.133,0.734
							c-2.523-6.081-6.96-11.758-12.06-14.703c-3.931-2.269-7.489-2.507-10.077-1.057l7.054-4.102
							c2.624-1.542,6.206-1.291,10.162,1.001c5.04,2.874,9.329,8.287,11.911,14.201l2.166-1.249
							c2.582-1.499,6.164-1.291,10.162,0.999c7.83,4.541,14.202,15.537,14.202,24.615c-0.041,7.829-4.789,12.828-10.245,16.035
							l-7.164,4.165c0.017-0.01,0.02-0.039,0.037-0.051C125.956,102.305,130.674,97.307,130.696,89.496z" class="colorfd93bf svgShape"></path></g><g fill="#f4f6f8" class="color000000 svgShape"><path fill="#ffffff" d="M105.448,67.78c-0.388-0.185-0.636-0.058-0.69,0.256l-3.806,22.848l-4.463-16.09
							c-0.098-0.346-0.328-0.678-0.6-0.854c-0.305-0.178-0.53-0.149-0.648,0.043l-2.701,4.18l-8.455-4.881
							c-0.379-0.219-0.689-0.042-0.69,0.393c-0.001,0.435,0.307,0.969,0.686,1.187l8.867,5.119c0.255,0.147,0.486,0.12,0.606-0.067
							l2.179-3.377l4.822,17.378c0.102,0.367,0.357,0.713,0.641,0.878c0.375,0.178,0.627,0.054,0.677-0.268l3.819-22.912
							l6.866,23.924c0.108,0.363,0.358,0.704,0.646,0.871c0.313,0.166,0.565,0.084,0.652-0.183l2.343-7.331l2.183,5.394
							c0.123,0.308,0.345,0.578,0.588,0.719l5.62,3.245c0.383,0.221,0.689,0.042,0.69-0.393c0.001-0.435-0.303-0.966-0.686-1.188
							l-5.237-3.023l-2.777-6.855c-0.125-0.31-0.346-0.58-0.586-0.718c-0.353-0.16-0.58-0.073-0.659,0.18l-2.214,6.931
							l-7.046-24.544C105.971,68.279,105.73,67.943,105.448,67.78z" class="colorffffff svgShape"></path></g></g></g><g fill="#f4f6f8" class="color000000 svgShape"><g fill="#f4f6f8" class="color000000 svgShape"><g fill="#f4f6f8" class="color000000 svgShape"><g fill="#f4f6f8" class="color000000 svgShape"><g fill="#f4f6f8" class="color000000 svgShape"><g fill="#f4f6f8" class="color000000 svgShape"><g fill="#f4f6f8" class="color000000 svgShape"><path fill="#d0d6dd" d="M74.766,122.153l-0.009,21.061c-0.004,1.558-1.029,3.113-3.074,4.302
											c-4.112,2.389-10.804,2.392-14.947,0c-2.084-1.203-3.124-2.782-3.12-4.359l0.008-21.061
											c-0.004,1.576,1.036,3.156,3.12,4.359c4.143,2.392,10.835,2.39,14.946,0C73.737,125.266,74.762,123.711,74.766,122.153z" class="colord0d5dd svgShape"></path></g></g><path fill="#d9e0e8" d="M68.372,112.634H60.01c-2.956,2.539-6.394,6.191-6.394,9.467
									c0,1.581,1.037,3.149,3.124,4.351c4.149,2.391,10.841,2.391,14.939,0c2.075-1.201,3.099-2.784,3.087-4.351
									C74.766,118.825,71.328,115.173,68.372,112.634z" class="colord9dfe8 svgShape"></path><g fill="#f4f6f8" class="color000000 svgShape"><g fill="#f4f6f8" class="color000000 svgShape"><path fill="#e576d1" d="M70.594,110.513l-0.005,3.456c-0.003,0.943-0.623,1.885-1.861,2.605
											c-2.49,1.447-6.542,1.448-9.05,0c-1.262-0.729-1.892-1.685-1.889-2.639l0.005-3.456c-0.003,0.954,0.627,1.911,1.889,2.639
											c2.508,1.448,6.56,1.447,9.05,0C69.971,112.398,70.591,111.456,70.594,110.513z" class="colore576ad svgShape"></path></g><g fill="#f4f6f8" class="color000000 svgShape"><path fill="#93c8fd" d="M68.732,113.118c-2.488,1.448-6.54,1.448-9.049,0c-2.51-1.448-2.521-3.798-0.028-5.241
											c2.487-1.448,6.54-1.448,9.049,0C71.214,109.32,71.225,111.669,68.732,113.118z" class="colorfd93bf svgShape"></path></g></g></g></g></g><g fill="#f4f6f8" class="color000000 svgShape"><g fill="#f4f6f8" class="color000000 svgShape"><path fill="#5046e4" d="M74.766,127.421l-0.009,12.102c-0.004,1.558-1.029,3.113-3.074,4.302
								c-4.112,2.39-10.804,2.392-14.947,0c-2.084-1.203-3.124-2.782-3.12-4.359l0.008-12.103c-0.004,1.576,1.036,3.155,3.12,4.359
								c4.143,2.392,10.835,2.389,14.946,0C73.737,130.534,74.762,128.978,74.766,127.421z" class="color8294ed svgShape"></path></g></g><polygon fill="#ffffff" points="65.33 138.544 65.33 135.702 63.057 135.702 63.057 138.544 60.324 138.544 60.324 140.768 63.057 140.768 63.057 143.636 65.33 143.636 65.33 140.768 68.063 140.768 68.063 138.544" class="colorffffff svgShape"></polygon></g><g fill="#f4f6f8" class="color000000 svgShape"><g fill="#f4f6f8" class="color000000 svgShape"><g fill="#f4f6f8" class="color000000 svgShape"><g fill="#f4f6f8" class="color000000 svgShape"><g fill="#f4f6f8" class="color000000 svgShape"><g fill="#f4f6f8" class="color000000 svgShape"><path fill="#d0d6dd" d="M92.923,133.343l-0.006,14.3c-0.003,1.058-0.699,2.114-2.087,2.921
											c-2.792,1.622-7.336,1.624-10.148,0c-1.415-0.817-2.121-1.889-2.118-2.96l0.006-14.3c-0.003,1.07,0.703,2.143,2.118,2.96
											c2.813,1.624,7.357,1.622,10.148,0C92.224,135.457,92.92,134.401,92.923,133.343z" class="colord0d5dd svgShape"></path></g></g><path fill="#d9e0e8" d="M88.582,126.88h-5.678c-2.007,1.724-4.342,4.203-4.342,6.428
									c0,1.074,0.704,2.139,2.122,2.954c2.817,1.624,7.361,1.624,10.143,0c1.409-0.816,2.104-1.89,2.096-2.954
									C92.923,131.083,90.589,128.604,88.582,126.88z" class="colord9dfe8 svgShape"></path><g fill="#f4f6f8" class="color000000 svgShape"><g fill="#f4f6f8" class="color000000 svgShape"><path fill="#e576d1" d="M90.09,125.44l-0.004,2.347c-0.002,0.64-0.423,1.28-1.264,1.768
											c-1.69,0.982-4.442,0.983-6.145,0c-0.857-0.495-1.284-1.144-1.283-1.792l0.004-2.347
											c-0.002,0.648,0.426,1.297,1.283,1.792c1.703,0.983,4.454,0.982,6.145,0C89.667,126.719,90.088,126.08,90.09,125.44z" class="colore576ad svgShape"></path></g><g fill="#f4f6f8" class="color000000 svgShape"><path fill="#93c8fd" d="M88.826,127.208c-1.689,0.983-4.44,0.983-6.144,0c-1.704-0.983-1.712-2.579-0.019-3.558
											c1.689-0.984,4.44-0.984,6.144,0C90.511,124.63,90.519,126.225,88.826,127.208z" class="colorfd93bf svgShape"></path></g></g></g></g></g><g fill="#f4f6f8" class="color000000 svgShape"><g fill="#f4f6f8" class="color000000 svgShape"><path fill="#6560ad" d="M92.923,136.92l-0.006,8.217c-0.003,1.058-0.699,2.114-2.087,2.921
								c-2.792,1.622-7.336,1.624-10.148,0c-1.415-0.817-2.121-1.889-2.118-2.96l0.006-8.217c-0.003,1.07,0.703,2.143,2.118,2.96
								c2.813,1.624,7.357,1.622,10.148,0C92.224,139.033,92.92,137.977,92.923,136.92z" class="color60ad88 svgShape"></path></g></g><polygon fill="#ffffff" points="86.516 144.473 86.516 142.543 84.973 142.543 84.973 144.473 83.117 144.473 83.117 145.983 84.973 145.983 84.973 147.929 86.516 147.929 86.516 145.983 88.372 145.983 88.372 144.473" class="colorffffff svgShape"></polygon></g></g><g fill="#f4f6f8" class="color000000 svgShape"><g fill="#f4f6f8" class="color000000 svgShape"><g fill="#f4f6f8" class="color000000 svgShape"><g fill="#f4f6f8" class="color000000 svgShape"><path fill="#724a93" d="M254.668,194.223l-0.007,20.626c-0.004,1.285-0.848,2.568-2.535,3.548
								c-3.391,1.971-8.91,1.972-12.327,0c-1.719-0.992-2.577-2.295-2.573-3.595l0.007-20.626c-0.004,1.3,0.854,2.602,2.573,3.595
								c3.416,1.973,8.936,1.971,12.327,0C253.819,196.791,254.664,195.508,254.668,194.223z" class="color4a5f93 svgShape"></path></g></g><g fill="#f4f6f8" class="color000000 svgShape"><g fill="#f4f6f8" class="color000000 svgShape"><path fill="#e576d1" d="M255.202,190.89l-0.007,5.232c-0.004,1.363-0.901,2.725-2.691,3.766
								c-3.599,2.092-9.457,2.093-13.083,0c-1.824-1.053-2.735-2.435-2.731-3.815l0.008-5.232c-0.004,1.38,0.907,2.762,2.731,3.815
								c3.626,2.094,9.484,2.091,13.083,0C254.302,193.615,255.199,192.254,255.202,190.89z" class="colore576ad svgShape"></path></g><g fill="#f4f6f8" class="color000000 svgShape"><path fill="#93c8fd" d="M252.511,194.656c-3.596,2.093-9.454,2.093-13.082,0c-3.628-2.094-3.644-5.49-0.04-7.576
								c3.596-2.094,9.454-2.094,13.082,0C256.099,189.165,256.115,192.562,252.511,194.656z" class="colorfd93bf svgShape"></path></g></g></g></g><g fill="#f4f6f8" class="color000000 svgShape"><g fill="#f4f6f8" class="color000000 svgShape"><g fill="#f4f6f8" class="color000000 svgShape"><g fill="#f4f6f8" class="color000000 svgShape"><path fill="#d9e0e8" d="M201.859,211.274l0.013,3.192c0.085,0.032,0.165,0.068,0.238,0.11l-0.013-3.192
								C202.024,211.342,201.944,211.306,201.859,211.274z" class="colord9dfe8 svgShape"></path></g><g fill="#f4f6f8" class="color000000 svgShape"><polygon fill="#d9e0e8" points="202.097 211.384 202.11 214.577 203.344 215.292 203.331 212.1" class="colord9dfe8 svgShape"></polygon></g><g fill="#f4f6f8" class="color000000 svgShape"><path fill="#d9e0e8" d="M203.331,212.1l0.013,3.192c0.022,0.013,0.042,0.026,0.063,0.039l-0.013-3.192
								C203.374,212.126,203.353,212.113,203.331,212.1z" class="colord9dfe8 svgShape"></path></g><g fill="#f4f6f8" class="color000000 svgShape"><path fill="#d9e0e8" d="M203.394,212.139l0.013,3.192c0.012,0.008,0.024,0.016,0.036,0.025l-0.013-3.192
								C203.418,212.155,203.406,212.147,203.394,212.139z" class="colord9dfe8 svgShape"></path></g><g fill="#f4f6f8" class="color000000 svgShape"><path fill="#d9e0e8" d="M203.442,215.356c0.096,0.069,0.17,0.144,0.223,0.222c-0.004-0.94-0.008-1.88-0.011-2.819
								l-0.002-0.373c-0.052-0.078-0.126-0.153-0.223-0.222C203.434,213.228,203.438,214.292,203.442,215.356z" class="colord9dfe8 svgShape"></path></g><g fill="#f4f6f8" class="color000000 svgShape"><polygon fill="#d9e0e8" points="219.013 218.118 219.026 221.31 220.91 220.219 220.897 217.027" class="colord9dfe8 svgShape"></polygon></g><g fill="#f4f6f8" class="color000000 svgShape"><path fill="#d9e0e8" d="M203.429,212.164c0.096,0.069,0.17,0.144,0.223,0.222c1.38-0.539,3.039-0.79,4.714-0.696
								c2.167,0.118,4.1,0.784,5.316,1.827l5.331,4.602l1.884-1.091l-5.044-4.355c-1.646-1.417-4.284-2.328-7.223-2.488
								c-2.437-0.132-4.826,0.264-6.771,1.091c0.085,0.032,0.165,0.068,0.238,0.11l1.234,0.715c0.022,0.013,0.042,0.026,0.063,0.039
								C203.406,212.147,203.418,212.155,203.429,212.164z" class="colord9dfe8 svgShape"></path></g><g fill="#f4f6f8" class="color000000 svgShape"><path fill="#a5aeb7" d="M203.655,212.387l0.004,3.185c1.383-0.537,3.04-0.787,4.724-0.685
								c2.167,0.115,4.099,0.778,5.314,1.821l5.331,4.601l-0.017-3.185l-5.331-4.614c-1.215-1.042-3.147-1.705-5.314-1.821
								C206.695,211.6,205.037,211.85,203.655,212.387z" class="colora5acb7 svgShape"></path></g><g fill="#f4f6f8" class="color000000 svgShape"><path fill="#6822a2" d="M189.061,217.201c-0.099,0.057-0.185,0.124-0.255,0.2l-1.11,1.209
								c-0.243,0.269-0.215,0.588,0.055,0.834c0.054,0.049,0.117,0.096,0.19,0.138l1.234,0.715c0.019,0.011,0.039,0.021,0.059,0.032
								c0.131,0.067,0.279,0.119,0.438,0.154c0.375,0.082,0.805,0.071,1.18-0.043l2.088-0.642c0.131-0.04,0.247-0.09,0.345-0.147
								c0.538-0.311,0.575-0.834,0.001-1.167l-2.212-1.282C190.5,216.868,189.598,216.89,189.061,217.201z" class="color3f528c svgShape"></path></g><g fill="#f4f6f8" class="color000000 svgShape"><path fill="#0c2340" d="M187.531,218.999l0.017,3.198c0,0.156,0.066,0.3,0.222,0.443
								c0.052,0.039,0.104,0.091,0.183,0.13l1.241,0.716c0.013,0.013,0.039,0.026,0.052,0.04c0.131,0.065,0.274,0.117,0.444,0.143
								c0.366,0.091,0.796,0.077,1.175-0.04l2.087-0.642c0.131-0.04,0.248-0.092,0.352-0.144c0.274-0.157,0.417-0.379,0.417-0.588
								l-0.017-3.198c0,0.222-0.143,0.43-0.417,0.587c-0.104,0.066-0.222,0.118-0.352,0.157l-2.087,0.642
								c-0.365,0.105-0.796,0.119-1.175,0.041c-0.157-0.039-0.313-0.091-0.444-0.156c-0.013-0.013-0.039-0.026-0.052-0.026
								l-1.241-0.716c-0.065-0.052-0.131-0.092-0.183-0.144C187.61,219.311,187.531,219.155,187.531,218.999z" class="color233163 svgShape"></path></g><g fill="#f4f6f8" class="color000000 svgShape"><path fill="#bcc4cc" d="M188.435,222.839l0.013,3.192c-0.003-0.843,0.429-1.662,1.238-2.357l-0.013-3.192
								C188.864,221.178,188.431,221.996,188.435,222.839z" class="colorbcc2cc svgShape"></path></g><g fill="#f4f6f8" class="color000000 svgShape"><path fill="#d9e0e8" d="M185.822,222.849l0.013,3.192c0.001,0.171,0.015,0.344,0.042,0.516l-0.013-3.192
								C185.837,223.193,185.823,223.021,185.822,222.849z" class="colord9dfe8 svgShape"></path></g><g fill="#f4f6f8" class="color000000 svgShape"><path fill="#a50b89" d="M219.01,218.124l0.017,3.185l4.325,3.74c0.823,0.691,1.216,1.499,1.217,2.309l-0.004-3.198
								c-0.014-0.796-0.406-1.604-1.23-2.308L219.01,218.124z" class="colord363a1 svgShape"></path></g><g fill="#f4f6f8" class="color000000 svgShape"><polygon fill="#d9e0e8" points="197.677 230.473 197.69 233.665 199.572 232.575 199.559 229.383" class="colord9dfe8 svgShape"></polygon></g><g fill="#f4f6f8" class="color000000 svgShape"><polygon fill="#e576d1" points="219.719 230.869 219.732 234.061 221.581 232.99 221.568 229.798" class="colore576ad svgShape"></polygon></g><g fill="#f4f6f8" class="color000000 svgShape"><polygon fill="#d9e0e8" points="199.559 229.383 199.572 232.575 206.015 235.083 206.002 231.891" class="colord9dfe8 svgShape"></polygon></g><g fill="#f4f6f8" class="color000000 svgShape"><g fill="#f4f6f8" class="color000000 svgShape"><path fill="#a5aeb7" d="M185.866,223.36l0.017,3.198c0.263,1.696,1.844,3.235,4.286,4.185l14.376,5.596l-0.017-3.198
									l-14.376-5.595C187.71,226.595,186.142,225.07,185.866,223.36z" class="colora5acb7 svgShape"></path></g><path fill="#a50b89" d="M197.673 230.473l.017 3.198 6.855 2.668c3.904 1.509 9.164 1.215 12.489-.72l2.7-1.557-.017-3.198-2.7 1.569c-3.326 1.923-8.585 2.23-12.489.708L197.673 230.473zM224.269 228.234l-2.7 1.57.017 3.185 2.687-1.556c1.93-1.112 2.907-2.588 2.906-4.076l-.017-3.171C227.164 225.659 226.173 227.135 224.269 228.234z" class="colord363a1 svgShape"></path></g><g fill="#f4f6f8" class="color000000 svgShape"><path fill="#d9e0e8" d="M185.865,223.366c0.275,1.703,1.846,3.231,4.292,4.186l14.378,5.593l-6.857-2.672l1.882-1.09
								l6.443,2.509l-14.378-5.602c-1.808-0.7-2.957-1.82-3.159-3.076c-0.153-0.973,0.28-1.933,1.208-2.731
								c-0.159-0.035-0.307-0.086-0.438-0.154c-0.02-0.01-0.04-0.021-0.059-0.032l-1.234-0.715c-0.073-0.042-0.136-0.089-0.19-0.138
								C186.323,220.57,185.639,221.954,185.865,223.366z" class="colord9dfe8 svgShape"></path></g><g fill="#f4f6f8" class="color000000 svgShape"><path fill="#83baf2" d="M197.677,230.473l6.857,2.672c3.897,1.516,9.156,1.216,12.486-0.713l2.698-1.562l1.849-1.07
								l2.698-1.562c3.339-1.934,3.851-4.975,1.236-7.233l-4.6-3.978l-1.888,1.094l4.326,3.734c1.928,1.658,1.536,3.891-0.92,5.313
								l-7.244,4.195c-2.448,1.418-6.303,1.644-9.172,0.531l-6.443-2.509L197.677,230.473z" class="colorf283b5 svgShape"></path></g><g fill="#f4f6f8" class="color000000 svgShape"><path fill="#a5aeb7" d="M157.75,231.654l0.017,3.159c-0.002-1.593,1.066-3.2,3.166-4.416
								c4.213-2.433,11.038-2.441,15.218-0.019l42.389,26.435c5.864,3.399,15.431,3.388,21.339-0.026
								c2.96-1.727,4.446-3.974,4.43-6.232l-0.017-3.159c0.003,2.245-1.482,4.492-4.43,6.192c-5.908,3.427-15.475,3.439-21.339,0.04
								l-42.389-26.448c-4.18-2.423-11.005-2.414-15.218,0.019C158.803,228.428,157.748,230.049,157.75,231.654z" class="colora5acb7 svgShape"></path><path fill="#bcc4cc" d="M241.698,250.571l-0.004-3.198c-0.015-1.841-1.218-3.666-3.635-5.073l-18.342-11.437
								l0.017,3.198l18.342,11.438C240.493,246.892,241.696,248.731,241.698,250.571z" class="colorbcc2cc svgShape"></path></g><g fill="#f4f6f8" class="color000000 svgShape"><path fill="#bcc4cc" d="M155.146,231.662l0.013,3.192c0.008,1.971,1.301,3.936,3.881,5.431l-0.013-3.192
								C156.447,235.598,155.154,233.632,155.146,231.662z" class="colorbcc2cc svgShape"></path></g><g fill="#f4f6f8" class="color000000 svgShape"><polygon fill="#d9e0e8" points="159.027 237.093 159.04 240.285 160.889 239.214 160.876 236.022" class="colord9dfe8 svgShape"></polygon></g><g fill="#f4f6f8" class="color000000 svgShape"><path fill="#6822a2" d="M165.94,240.299l0.013,3.192c0.325-0.188,0.691-0.333,1.065-0.453l-0.013-3.192
								C166.631,239.967,166.265,240.111,165.94,240.299z" class="color3f528c svgShape"></path></g><g fill="#f4f6f8" class="color000000 svgShape"><polygon fill="#0c2340" points="159.027 237.093 159.04 240.285 165.154 244.099 165.141 240.907" class="color233163 svgShape"></polygon></g><g fill="#f4f6f8" class="color000000 svgShape"><polygon fill="#6822a2" points="165.141 240.907 165.154 244.099 165.17 244.109 165.157 240.917" class="color3f528c svgShape"></polygon></g><g fill="#f4f6f8" class="color000000 svgShape"><path fill="#6822a2" d="M165.157,240.917l0.013,3.192c0.217-0.222,0.458-0.429,0.783-0.617l-0.013-3.192
								C165.616,240.488,165.374,240.695,165.157,240.917z" class="color3f528c svgShape"></path></g><g fill="#f4f6f8" class="color000000 svgShape"><path fill="#6822a2" d="M159.027,237.093l6.114,3.814l0.016,0.009c0.217-0.222,0.458-0.429,0.783-0.617
								c0.325-0.188,0.691-0.333,1.065-0.453l-0.017-0.01l-6.113-3.814L159.027,237.093z" class="color3f528c svgShape"></path></g><g fill="#f4f6f8" class="color000000 svgShape"><path fill="#6822a2" d="M171.148,244.467c0.478,0.277,0.717,0.642,0.719,1.007l-0.013-3.192
								c-0.002-0.366-0.241-0.731-0.719-1.008c-0.961-0.557-2.531-0.55-3.496,0.009c0.004,1.064,0.009,2.128,0.013,3.192
								c-0.004-1.064-0.009-2.128-0.013-3.192c-0.486,0.282-0.729,0.65-0.727,1.018l0.013,3.192
								c-0.001-0.368,0.241-0.737,0.727-1.019C168.618,243.917,170.187,243.91,171.148,244.467z" class="color3f528c svgShape"></path></g><g fill="#f4f6f8" class="color000000 svgShape"><path fill="#f4f6f8" d="M166.912,242.302l0.013,3.192c0.001,0.363,0.241,0.726,0.718,1.002
								c0.961,0.557,2.531,0.56,3.497,0.001c0.486-0.282,0.729-0.653,0.727-1.023l-0.013-3.192c0.001,0.37-0.241,0.742-0.727,1.023
								c-0.966,0.559-2.536,0.557-3.497-0.001C167.152,243.028,166.913,242.666,166.912,242.302z" class="coloreaeffa svgShape"></path></g><g fill="#f4f6f8" class="color000000 svgShape"><path fill="#0c2340" d="M164.509,242.322l0.013,3.192c0.003,0.714,0.475,1.427,1.414,1.971
								c1.906,1.104,4.995,1.101,6.902-0.004c0.964-0.558,1.444-1.289,1.442-2.017l-0.013-3.192
								c0.003,0.729-0.478,1.459-1.442,2.017c-1.907,1.104-4.996,1.108-6.902,0.003
								C164.984,243.749,164.512,243.036,164.509,242.322z" class="color233163 svgShape"></path></g><g fill="#f4f6f8" class="color000000 svgShape"><path fill="#6822a2" d="M165.94,240.299c0.325-0.188,0.691-0.333,1.048-0.463c1.867-0.616,4.274-0.466,5.854,0.45
								c1.906,1.105,1.898,2.894-0.017,4.003c-1.907,1.104-4.996,1.108-6.902,0.003c-1.579-0.915-1.838-2.308-0.766-3.376
								C165.374,240.695,165.616,240.488,165.94,240.299z M171.127,243.305c0.966-0.559,0.97-1.474,0.008-2.031
								c-0.961-0.557-2.531-0.55-3.496,0.009c-0.966,0.559-0.97,1.464-0.009,2.021C168.591,243.862,170.161,243.865,171.127,243.305
								" class="color3f528c svgShape"></path></g><g fill="#f4f6f8" class="color000000 svgShape"><path fill="#f4f6f8" d="M167.639,241.284c-0.966,0.559-0.97,1.464-0.009,2.021c0.961,0.557,2.531,0.56,3.497,0.001
								s0.97-1.473,0.008-2.031C170.174,240.718,168.605,240.725,167.639,241.284z" class="coloreaeffa svgShape"></path></g></g></g><g fill="#f4f6f8" class="color000000 svgShape"><path fill="#6822a2" d="M197.992,212.029c-0.543,0.314-0.581,0.837-0.006,1.169l2.212,1.282
						c0.574,0.333,1.476,0.311,2.019-0.003c0.099-0.057,0.186-0.125,0.258-0.202l1.11-1.209c0.197-0.217,0.212-0.464,0.068-0.681
						c-0.052-0.078-0.126-0.153-0.22-0.22c-0.014-0.01-0.026-0.019-0.038-0.027c-0.02-0.013-0.04-0.027-0.063-0.039l-1.234-0.715
						c-0.073-0.042-0.153-0.079-0.238-0.11c-0.423-0.158-0.967-0.178-1.431-0.037l-2.088,0.642
						C198.208,211.921,198.092,211.972,197.992,212.029z" class="color3f528c svgShape"></path></g><g fill="#f4f6f8" class="color000000 svgShape"><path fill="#0c2340" d="M197.573,212.617l0.004,3.197c0.013,0.209,0.144,0.418,0.418,0.574l2.22,1.289
						c0.575,0.326,1.475,0.311,2.01-0.003c0.104-0.065,0.196-0.131,0.261-0.209l1.108-1.202c0.117-0.131,0.169-0.261,0.169-0.391
						l-0.017-3.185c0,0.13-0.052,0.261-0.156,0.379l-1.121,1.215c-0.065,0.066-0.156,0.144-0.248,0.197
						c-0.548,0.314-1.448,0.341-2.023,0.003l-2.207-1.277C197.704,213.034,197.573,212.825,197.573,212.617z" class="color233163 svgShape"></path></g><g fill="#f4f6f8" class="color000000 svgShape"><path fill="#d9e0e8" d="M159.083,226.137c-5.229,3.028-5.251,7.946-0.056,10.956l1.849-1.07
						c-4.184-2.425-4.167-6.38,0.047-8.82c4.205-2.435,11.033-2.443,15.216-0.018l42.384,26.438
						c5.866,3.399,15.434,3.388,21.338-0.031c5.895-3.414,5.92-8.957,0.054-12.356l-18.347-11.436l-1.849,1.07l18.347,11.436
						c4.855,2.814,4.827,7.399-0.045,10.22c-4.88,2.826-12.795,2.84-17.65,0.026l-42.384-26.438
						C172.793,223.103,164.312,223.108,159.083,226.137z" class="colord9dfe8 svgShape"></path></g></g></g><g fill="#f4f6f8" class="color000000 svgShape"><g fill="#f4f6f8" class="color000000 svgShape"><path fill="#e576d1" d="M254.228,188.687l-0.007,1.409c-0.003,1.22-0.806,2.438-2.408,3.369
					c-3.22,1.871-8.461,1.873-11.705,0c-1.632-0.942-2.447-2.179-2.443-3.413l0.007-1.408c-0.004,1.235,0.811,2.471,2.443,3.413
					c3.244,1.873,8.485,1.871,11.705,0C253.422,191.125,254.224,189.907,254.228,188.687z" class="colore576ad svgShape"></path></g><g fill="#f4f6f8" class="color000000 svgShape"><path fill="#93c8fd" d="M251.82,192.056c-3.217,1.873-8.458,1.873-11.704,0c-3.246-1.873-3.26-4.912-0.036-6.778
					c3.217-1.873,8.458-1.873,11.704,0C255.03,187.144,255.044,190.182,251.82,192.056z" class="colorfd93bf svgShape"></path></g></g><g fill="#f4f6f8" class="color000000 svgShape"><g fill="#f4f6f8" class="color000000 svgShape"><g fill="#f4f6f8" class="color000000 svgShape"><g fill="#f4f6f8" class="color000000 svgShape"><path fill="#938cf7" d="M269.528,200.945l-0.007,20.626c-0.004,1.285-0.848,2.567-2.536,3.548
							c-3.391,1.971-8.91,1.972-12.327,0c-1.719-0.992-2.577-2.295-2.573-3.595l0.007-20.625c-0.004,1.3,0.854,2.602,2.573,3.595
							c3.416,1.973,8.936,1.971,12.327,0C268.68,203.512,269.525,202.229,269.528,200.945z" class="color8ca8f7 svgShape"></path></g></g><g fill="#f4f6f8" class="color000000 svgShape"><g fill="#f4f6f8" class="color000000 svgShape"><path fill="#6560ad" d="M270.063,197.611l-0.007,5.232c-0.004,1.363-0.901,2.725-2.691,3.766
							c-3.599,2.092-9.457,2.094-13.083,0c-1.824-1.053-2.735-2.435-2.731-3.815l0.007-5.232c-0.004,1.38,0.907,2.762,2.731,3.815
							c3.626,2.093,9.484,2.091,13.083,0C269.163,200.336,270.059,198.975,270.063,197.611z" class="color60ad88 svgShape"></path></g><g fill="#f4f6f8" class="color000000 svgShape"><path fill="#8cadcf" d="M267.372,201.377c-3.596,2.094-9.454,2.094-13.082,0c-3.628-2.094-3.644-5.49-0.04-7.576
							c3.596-2.094,9.454-2.094,13.082,0C270.96,195.887,270.976,199.283,267.372,201.377z" class="color8ccfb1 svgShape"></path></g></g></g></g><g fill="#f4f6f8" class="color000000 svgShape"><g fill="#f4f6f8" class="color000000 svgShape"><path fill="#6560ad" d="M269.088,195.408l-0.007,1.408c-0.003,1.22-0.806,2.438-2.408,3.369
					c-3.22,1.871-8.461,1.873-11.705,0c-1.632-0.942-2.447-2.179-2.443-3.413l0.007-1.409c-0.004,1.235,0.811,2.471,2.443,3.413
					c3.244,1.873,8.485,1.871,11.705,0C268.283,197.846,269.085,196.628,269.088,195.408z" class="color60ad88 svgShape"></path></g><g fill="#f4f6f8" class="color000000 svgShape"><path fill="#8cadcf" d="M266.68,198.777c-3.217,1.873-8.458,1.873-11.704,0c-3.246-1.873-3.26-4.912-0.036-6.778
					c3.217-1.873,8.458-1.873,11.704,0C269.891,193.865,269.905,196.904,266.68,198.777z" class="color8ccfb1 svgShape"></path></g></g></g><g fill="#f4f6f8" class="color000000 svgShape"><g fill="#f4f6f8" class="color000000 svgShape"><path fill="#83baf2" d="M255.43,107.296c-2.171,3.506,1.513,7.19,5.019,5.019c0.287-0.178,0.535-0.426,0.713-0.713
				c2.171-3.506-1.513-7.19-5.019-5.019C255.856,106.76,255.607,107.009,255.43,107.296z" class="colorf283b5 svgShape"></path><path fill="#c3d8ed" d="M255.43,167.983c-2.171,3.507,1.513,7.19,5.019,5.019c0.287-0.178,0.535-0.426,0.713-0.713
				c2.171-3.506-1.513-7.19-5.019-5.019C255.856,167.448,255.607,167.696,255.43,167.983z" class="coloredc3d2 svgShape"></path><path fill="#938cf7" d="M241.796,58.397c-2.999,5.236,2.374,10.609,7.611,7.611c0.601-0.344,1.107-0.851,1.451-1.451
				c2.999-5.237-2.374-10.609-7.61-7.611C242.647,57.289,242.14,57.796,241.796,58.397z" class="color8ca8f7 svgShape"></path><path fill="#83baf2" d="M136.119,36.669c-2.999,5.236,2.374,10.609,7.611,7.61c0.601-0.344,1.107-0.851,1.451-1.451
				c2.999-5.236-2.374-10.609-7.611-7.611C136.97,35.562,136.463,36.069,136.119,36.669z" class="colorf283b5 svgShape"></path><g fill="#f4f6f8" class="color000000 svgShape"><path fill="#938cf7" d="M167.853,70.958l-7.872,3.857c-0.997,0.499-2.204,0.079-2.703-0.918l-3.857-7.871
					c-0.485-0.997-0.079-2.204,0.918-2.703l7.872-3.857c0.997-0.485,2.204-0.079,2.702,0.918l3.857,7.872
					C169.27,69.253,168.85,70.46,167.853,70.958z" class="color8ca8f7 svgShape"></path></g><g fill="#f4f6f8" class="color000000 svgShape"><path fill="#83baf2" d="M173.107,72.659l-5.948,2.92c-0.756,0.371-1.674,0.058-2.045-0.698l-2.92-5.948
					c-0.371-0.756-0.058-1.674,0.698-2.045l5.948-2.92c0.756-0.371,1.674-0.058,2.045,0.698l2.92,5.948
					C174.177,71.371,173.864,72.288,173.107,72.659z M163.469,68.064c-0.108,0.053-0.153,0.184-0.1,0.292l2.92,5.948
					c0.053,0.108,0.184,0.153,0.292,0.1l5.948-2.92c0.108-0.053,0.153-0.184,0.1-0.292l-2.92-5.948
					c-0.053-0.108-0.184-0.153-0.292-0.1L163.469,68.064z" class="colorf283b5 svgShape"></path></g><path fill="#c3d8ed" d="M73.464,37.693c-2.073,3.348,1.444,6.865,4.792,4.792c0.274-0.17,0.511-0.407,0.681-0.681
				c2.073-3.348-1.444-6.865-4.792-4.792C73.871,37.182,73.634,37.419,73.464,37.693z" class="coloredc3d2 svgShape"></path><path fill="#7873bc" d="M76.821 98.279c-2.073 3.348 1.444 6.865 4.792 4.792.274-.17.511-.407.681-.681 2.073-3.348-1.444-6.865-4.792-4.792C77.227 97.768 76.99 98.005 76.821 98.279zM220.443 198.533c-2.403 3.819 1.63 7.852 5.449 5.449.289-.182.537-.43.719-.719 2.402-3.819-1.63-7.852-5.449-5.449C220.873 197.995 220.625 198.244 220.443 198.533z" class="color73bc9c svgShape"></path></g><path fill="#83baf2" d="M105.654,227.714c1.47,3.853,6.633,3.16,7.035-0.945c0.033-0.336-0.014-0.684-0.134-0.999
			c-1.47-3.853-6.633-3.16-7.035,0.945C105.487,227.05,105.534,227.398,105.654,227.714z" class="colorf283b5 svgShape"></path><path fill="#c3d8ed" d="M67.143,181.375c1.47,3.853,6.633,3.16,7.035-0.945c0.033-0.336-0.014-0.684-0.134-0.999
			c-1.47-3.853-6.633-3.16-7.035,0.945C66.976,180.712,67.023,181.06,67.143,181.375z" class="coloredc3d2 svgShape"></path></g></g></svg>