<svg xmlns="http://www.w3.org/2000/svg" enable-background="new 0 0 50 50" viewBox="0 0 50 50" id="FactoryBuilding"><path fill="#f4f6f8" d="M48.2469864,33.9749756v0.9400024L24.1269913,48.9349976L1.7469865,35.914978v-0.9499512
			l0.0100098,0.0099487l4.7000122-2.7399902l0.0200195-6.0199585l13.1099854-7.6300049l3.5,2L23.1170425,20.125l0.3199463-4.039978
			v-0.0100098l0.1000366-1.4199829v-0.0100098l0.3200073-4.0900269l0.0999756-1.4500122l0.3200073-3.8200073
			c-0.0300293-0.2599487,0.1400146-0.5299683,0.4899902-0.7199707c0.25-0.1500244,0.5599976-0.25,0.8800049-0.289978
			c-0.0299683-0.0800171-0.039978-0.1600342-0.039978-0.25c0-0.4300537,0.289978-0.8000488,0.6799927-0.9300537
			c-0.0100098-0.0499878-0.0200195-0.1099854-0.0200195-0.1699829c0-0.539978,0.4500122-0.9899902,0.9899902-0.9899902
			c0.2000122,0,0.3900146,0.0599976,0.5500488,0.1699829V2.0549927c0-0.539978,0.4399414-0.9899902,0.9799805-0.9899902
			c0.4899902,0,0.8999634,0.3699951,0.9699707,0.8400269c0.0599976-0.0100098,0.1100464-0.0200195,0.1799927-0.0200195
			c0.5400391,0,0.9800415,0.4500122,0.9800415,0.9899902s-0.4400024,0.9899902-0.9800415,0.9899902
			c-0.2799683,0-0.539978-0.1300049-0.7299805-0.3200073c-0.0899658,0.4500122-0.4899902,0.7900391-0.9699707,0.7900391
			c-0.25,0-0.4800415-0.1000366-0.6600342-0.2600098c-0.0100098,0.2099609-0.0899658,0.4099731-0.2199707,0.5700073
			c0.25,0.1699829,0.3800049,0.3999634,0.3699951,0.6199951l0.2699585,3.8200073v0.0099487l0.1100464,1.4300537L28.3970108,14.625
			l0.0999756,1.4299927L28.7870255,20.125l0.0999756,1.4000244l0.0900269,1.2399902l2.1400146,1.2399902l0.2699585-3.4199829
			v-0.0100098l0.1000366-1.4199829v-0.0100098l0.3200073-4.0900269l0.0999756-1.4500122l0.3099976-3.8800049
			c0-0.25,0.1699829-0.4899902,0.4899902-0.6699829c0.25-0.1499634,0.5599976-0.2399902,0.8800049-0.2799683
			c-0.0299683-0.0900269-0.039978-0.1800537-0.039978-0.2700195c0-0.4199829,0.289978-0.7999878,0.6799927-0.9299927
			c-0.0100098-0.0499878-0.0200195-0.1099854-0.0200195-0.1699829c0-0.5400391,0.4500122-0.9900513,0.9899902-0.9900513
			c0.2000122,0,0.3900146,0.0700073,0.5499878,0.1700439V6.5349731c0-0.539978,0.4400024-0.9899902,0.9800415-0.9899902
			c0.4899902,0,0.9099731,0.3699951,0.9699707,0.8400269C37.7569962,6.375,37.807045,6.3649902,37.8769913,6.3649902
			c0.5400391,0,0.9800415,0.4500122,0.9800415,0.9899902c0,0.5400391-0.4400024,0.9899902-0.9800415,0.9899902
			c-0.2799683,0-0.539978-0.1199951-0.7299805-0.3199463c-0.0899658,0.4499512-0.4899902,0.789978-0.9699707,0.789978
			c-0.25,0-0.4800415-0.0999756-0.6600342-0.2600098c-0.0100098,0.2200317-0.0899658,0.4199829-0.2199707,0.5800171
			c0.25,0.1699829,0.3800049,0.3900146,0.3800049,0.6099854l0.2699585,3.8400269v0.0099487l0.1000366,1.4200439L36.3370132,19.125
			l0.1099854,1.4299927L36.7370377,24.625l0.0999756,1.4000244l0.0999756,1.3699951L48.2469864,33.9749756z" class="colord1bfbd svgShape"></path><polygon fill="#2f5687" points="48.249 33.973 48.242 34.919 24.129 48.932 24.136 47.987" class="color2f873b svgShape"></polygon><polygon fill="#2f5a91" points="24.136 47.987 24.129 48.932 1.744 35.915 1.751 34.969" class="color2f9138 svgShape"></polygon><polygon fill="#36649d" points="25.866 20.954 1.746 34.974 24.146 47.994 48.256 33.974" class="color369d44 svgShape"></polygon><path fill="#2f5687" d="M37.7199593 30.0782013c-.0093155.7259045-.4560814 1.3867111-1.275032 1.8520527-.6980133.4001865-1.6101227.6235447-2.5780144.6142826-.9678917 0-1.8800011-.2234116-2.5686989-.6329136-.800375-.4746017-1.2471409-1.1260929-1.2378254-1.8520527 0-.716589.4467678-1.3680801 1.2471428-1.8241062.6421738-.3722973 1.4704952-.5956516 2.3546009-.6142826l4.0485115 2.3546581C37.7199593 30.0037308 37.7199593 30.0409946 37.7199593 30.0782013zM29.5392075 25.899437c-.0093155.6793823-.4280796 1.2936649-1.1912479 1.73106-.6514893.3722954-1.5077038.5770187-2.4104977.5770187-.9027367 0-1.7590065-.2140388-2.4104404-.5956516-.7538528-.4373932-1.1633549-1.0516777-1.1540966-1.7310581 0-.6793823.4095039-1.2843494 1.1633549-1.712429.6608067-.3816128 1.5263367-.5863361 2.438446-.5863361.2977695 0 .5955963.0278912.8748455.0744152l2.4755974 1.442606C29.4647942 25.3503075 29.5392075 25.6202431 29.5392075 25.899437z" class="color2f873b svgShape"></path><path fill="#9a98ba" d="M31.603056,28.7487087c-1.2589207,0.7204552-1.2700996,1.9060555-0.0032234,2.6487579
				c1.2452335,0.7300129,3.2921085,0.737833,4.5510273,0.0173779c1.2808189-0.7329845,1.2919998-1.9185886,0.0467682-2.6486015
				C34.9307518,28.0235405,32.883873,28.0157242,31.603056,28.7487087z" class="color98a7ba svgShape"></path><path fill="#f4f6f8" d="M31.603056,28.7487087c-1.2589207,0.7204552-1.2700996,1.9060555-0.0032234,2.6487579
				c1.2452335,0.7300129,3.2921085,0.737833,4.5510273,0.0173779c1.2808189-0.7329845,1.2919998-1.9185886,0.0467682-2.6486015
				C34.9307518,28.0235405,32.883873,28.0157242,31.603056,28.7487087z" class="colord1bfbd svgShape"></path><path fill="#f4f6f8" d="M30.6531982,30.0576878l6.4726791,0.0187244l-0.289959-4.050127l-0.1028748-1.4030399
				l-0.289959-4.0687962l-0.1028786-1.4311295l-0.289959-4.1061897l-0.102932-1.4217663v-0.0093622l-0.2712326-3.8712463
				c0,0.2618713-0.1870842,0.5237999-0.5237999,0.7108259c-0.6734352,0.3928928-1.7678452,0.3928928-2.4412804-0.009305
				c-0.3367157-0.1870842-0.4978485-0.4490118-0.4978485-0.7108831l-0.3065472,3.899334l-0.102932,1.4497976l-0.3179913,4.0875216
				v0.0093613l-0.102932,1.4217663v0.009306l-0.3179913,4.0407658l-0.1028767,1.4124031L30.6531982,30.0576878z" class="colord1bfbd svgShape"></path><path fill="#a89ab4" d="M32.2339592,9.8726473c0.0280342,0.2244768,0.1870842,0.4302292,0.4770432,0.598587
				c0.6640701,0.3928928,1.7584839,0.3928928,2.4412804,0.0093632c0.289959-0.1683588,0.4583168-0.3741102,0.5050735-0.589282
				c0.0748444-0.2993221-0.0841522-0.6079502-0.4769859-0.8417902c-0.6828537-0.3928928-1.7865715-0.3928928-2.469368,0.0093622
				C32.3181114,9.2740021,32.1497536,9.5826874,32.2339592,9.8726473z" class="colorb49c9a svgShape"></path><path fill="#867198" d="M32.5613136,9.8445587c0.0093613,0.0654821,0.0374527,0.1309643,0.0842094,0.1964464
				c0.0654793,0.0841503,0.1589928,0.1589956,0.2993202,0.23384c0.542469,0.2899599,1.421711,0.2899599,1.9735985,0.0093632
				c0.1403275-0.0748453,0.2432022-0.1496897,0.3086853-0.2432032c0.056118-0.0561199,0.0841484-0.1216011,0.1028748-0.1870832
				c0.056118-0.2151146-0.0654831-0.4396496-0.3834724-0.6080074c-0.5518875-0.2899599-1.4498558-0.2899599-2.0016861,0.0093622
				C32.6267967,9.4049664,32.4958305,9.6294441,32.5613136,9.8445587z" class="color987571 svgShape"></path><path fill="#635272" d="M32.6455231,10.0410051c0.0654793,0.0841503,0.1589928,0.1589956,0.2993202,0.23384
				c0.542469,0.2899599,1.421711,0.2899599,1.9735985,0.0093632c0.1403275-0.0748453,0.2432022-0.1496897,0.3086853-0.2432032
				c-0.0654831-0.0842075-0.1590538-0.1590528-0.2805977-0.2244778c-0.5518875-0.289959-1.4498558-0.289959-2.0016861,0
				C32.8138809,9.8819523,32.7110023,9.9567976,32.6455231,10.0410051z" class="color725652 svgShape"></path><path fill="#a50b89" d="M30.9618835 26.0356483c.0841503.0748444.177721.1309643.2712345.1870842 1.4404354.8418465 3.8162861.8511524 5.284811.0187244.112236-.0654812.2244759-.1403275.3179893-.2151718l-.1028748-1.4030399c-.0654831.056118-.1403275.0935688-.2151146.1403255-1.4685249.8324852-3.8443756.823122-5.284811-.0280876-.0561199-.0373936-.1122379-.0654812-.1683578-.1122379L30.9618835 26.0356483zM31.3827515 20.5731735v.009306c1.4217644.7483349 3.6385651.7389717 5.0603333-.0280304l-.1028786-1.4311295c-1.3843727.7015209-3.4608459.7108841-4.8545227.0280876L31.3827515 20.5731735zM31.8036747 15.0545244c1.2721348.4957113 2.9838009.4864054 4.2465725-.0373945l-.102932-1.4217663c-1.2253189.4583178-2.8153877.4676809-4.0407085.0093632L31.8036747 15.0545244z" class="colordb4545 svgShape"></path><path fill="#9a98ba" d="M23.6570873,24.2520618c-1.2589188,0.7204552-1.2700977,1.9060555-0.0032215,2.6487579
				c1.2452316,0.7300129,3.2921085,0.737833,4.5510273,0.0173779c1.280817-0.7329845,1.2919998-1.9185886,0.0467682-2.6486015
				C26.9847851,23.5268936,24.9379044,23.5190773,23.6570873,24.2520618z" class="color98a7ba svgShape"></path><path fill="#f4f6f8" d="M23.6570873,24.2520618c-1.2589188,0.7204552-1.2700977,1.9060555-0.0032215,2.6487579
				c1.2452316,0.7300129,3.2921085,0.737833,4.5510273,0.0173779c1.280817-0.7329845,1.2919998-1.9185886,0.0467682-2.6486015
				C26.9847851,23.5268936,24.9379044,23.5190773,23.6570873,24.2520618z" class="colord1bfbd svgShape"></path><path fill="#f4f6f8" d="M22.7072315,25.5610409l6.4726791,0.0187244l-0.289959-4.050127l-0.1028767-1.4030399
				l-0.289959-4.0687962l-0.1028767-1.4311295l-0.289959-4.1061888l-0.1029339-1.4217663V9.0893545l-0.2712326-3.825593
				c0,0.2618713-0.1870842,0.5237999-0.5237999,0.7108264c-0.6734333,0.3928924-1.7678452,0.3928924-2.4412785-0.009306
				c-0.3367157-0.1870832-0.483284-0.4490118-0.483284-0.7108831L23.96064,9.1080799l-0.1029339,1.4497976l-0.3179893,4.0875216
				v0.0093622l-0.1029339,1.4217672v0.009304l-0.3179913,4.0407658l-0.1028748,1.4124031L22.7072315,25.5610409z" class="colord1bfbd svgShape"></path><path fill="#a89ab4" d="M24.2879925,5.3760004c0.0280323,0.2244773,0.1870842,0.4302292,0.4770432,0.5985875
				c0.6640701,0.3928924,1.7584839,0.3928924,2.4412785,0.0093627c0.289959-0.1683583,0.4583168-0.3741102,0.5050735-0.5892816
				c0.0748444-0.2993226-0.0841503-0.6079502-0.4769859-0.8417907c-0.6828518-0.3928924-1.7865696-0.3928924-2.4693661,0.0093627
				C24.3721428,4.7773561,24.2037849,5.086041,24.2879925,5.3760004z" class="colorb49c9a svgShape"></path><path fill="#867198" d="M24.6153469,5.3479123c0.0093632,0.0654821,0.0374508,0.1309643,0.0842075,0.1964459
				c0.0654812,0.0841508,0.1589947,0.1589956,0.2993221,0.2338405c0.5424671,0.2899594,1.4217091,0.2899594,1.9735966,0.0093627
				c0.1403275-0.0748448,0.2432041-0.1496897,0.3086853-0.2432032c0.0561199-0.056119,0.0841503-0.1216011,0.1028767-0.1870832
				c0.056118-0.2151146-0.0654831-0.4396491-0.3834724-0.6080074c-0.5518894-0.2899594-1.4498558-0.2899594-2.0016861,0.0093627
				C24.6808281,4.90832,24.5498638,5.1327977,24.6153469,5.3479123z" class="color987571 svgShape"></path><path fill="#635272" d="M24.6995544,5.5443583c0.0654812,0.0841508,0.1589947,0.1589956,0.2993221,0.2338405
				c0.5424671,0.2899594,1.4217091,0.2899594,1.9735966,0.0093627c0.1403275-0.0748448,0.2432041-0.1496897,0.3086853-0.2432032
				c-0.0654812-0.0842075-0.1590519-0.1590524-0.2805958-0.2244773c-0.5518894-0.2899594-1.4498558-0.2899594-2.0016861,0
				C24.8679123,5.3853059,24.7650356,5.4601507,24.6995544,5.5443583z" class="color725652 svgShape"></path><path fill="#a50b89" d="M23.0159168 21.5390015c.0841503.0748444.177721.1309643.2712345.1870842 1.4404335.8418465 3.8162861.8511524 5.2848091.0187244.1122398-.0654812.2244778-.1403255.3179913-.2151718l-.1028767-1.4030399c-.0654812.056118-.1403275.0935707-.2151146.1403275-1.468523.8324833-3.8443756.8231201-5.2848091-.0280895-.0561199-.0373936-.1122398-.0654812-.1683598-.1122379L23.0159168 21.5390015zM23.4367828 16.0765285v.009304c1.4217663.7483349 3.638567.7389717 5.0603333-.0280304l-.1028767-1.4311295c-1.3843727.7015209-3.4608459.7108831-4.8545227.0280886L23.4367828 16.0765285zM23.8577061 10.5578775c1.2721348.4957113 2.9838028.4864054 4.2465744-.0373936l-.1029339-1.4217663c-1.2253189.4583168-2.8153858.46768-4.0407066.0093622L23.8577061 10.5578775z" class="colordb4545 svgShape"></path><polygon fill="#0c2340" points="25.606 22.029 25.579 32.368 12.464 39.989 12.491 29.651" class="color0b5077 svgShape"></polygon><polygon fill="#004398" points="12.491 29.651 12.464 39.989 6.449 36.545 6.475 26.211" class="color006498 svgShape"></polygon><polygon fill="#5046e4" points="25.606 22.029 12.491 29.651 6.475 26.211 19.59 18.59" class="color0097d3 svgShape"></polygon><polygon fill="#0c2340" points="7.773 26.209 8.489 26.622 19.592 20.17 19.592 19.341" class="color0b5077 svgShape"></polygon><polygon fill="#004398" points="19.592 19.341 19.592 20.17 23.593 22.447 24.308 22.031" class="color006498 svgShape"></polygon><polygon fill="#c0cad5" points="23.593 22.447 19.592 20.17 8.489 26.622 12.489 28.899" class="colorc0c8d5 svgShape"></polygon><polygon fill="#0c2340" points="31.621 29.754 31.595 35.811 18.48 43.433 18.506 37.376" class="color0b5077 svgShape"></polygon><polygon fill="#004398" points="18.506 37.376 18.48 43.433 12.464 39.989 12.49 33.936" class="color006498 svgShape"></polygon><polygon fill="#5046e4" points="31.621 29.754 18.506 37.376 12.49 33.936 25.605 26.314" class="color0097d3 svgShape"></polygon><polygon fill="#0c2340" points="13.789 33.934 14.504 34.347 25.607 27.895 25.607 27.066" class="color0b5077 svgShape"></polygon><polygon fill="#004398" points="25.607 27.066 25.607 27.895 29.608 30.171 30.323 29.756" class="color006498 svgShape"></polygon><polygon fill="#c0cad5" points="29.608 30.171 25.607 27.895 14.504 34.347 18.505 36.624" class="colorc0c8d5 svgShape"></polygon><polygon fill="#9a98ba" points="29.661 33.963 29.539 33.893 29.535 32.216 29.656 32.287" class="color98a7ba svgShape"></polygon><polygon fill="#d9dfe6" points="29.656 32.287 29.535 32.216 30.993 31.374 31.115 31.445" class="colord9e0e6 svgShape"></polygon><polygon fill="#c0cad5" points="31.115 31.445 31.119 33.121 29.661 33.963 29.656 32.287" class="colorc0c8d5 svgShape"></polygon><polygon fill="#9a98ba" points="30.874 32.988 30.868 31.695 31.021 31.607 31.024 33.066 30.874 32.988" class="color98a7ba svgShape"></polygon><polygon fill="#d9dfe6" points="30.874 32.988 31.024 33.066 31.024 33.066 29.754 33.801 29.754 33.632" class="colord9e0e6 svgShape"></polygon><polygon fill="#3e4c5e" points="30.868 31.695 30.874 32.988 29.754 33.632 29.751 32.34" class="color3e535e svgShape"></polygon><polygon fill="#9a98ba" points="28.202 34.805 28.081 34.735 28.076 33.059 28.197 33.129" class="color98a7ba svgShape"></polygon><polygon fill="#d9dfe6" points="28.197 33.129 28.076 33.059 29.535 32.216 29.656 32.287" class="colord9e0e6 svgShape"></polygon><polygon fill="#c0cad5" points="29.656 32.287 29.661 33.963 28.202 34.805 28.197 33.129" class="colorc0c8d5 svgShape"></polygon><polygon fill="#9a98ba" points="29.416 33.83 29.409 32.537 29.563 32.45 29.566 33.908 29.416 33.83" class="color98a7ba svgShape"></polygon><polygon fill="#d9dfe6" points="29.416 33.83 29.566 33.908 29.566 33.908 28.295 34.644 28.295 34.475" class="colord9e0e6 svgShape"></polygon><polygon fill="#3e4c5e" points="29.409 32.537 29.416 33.83 28.295 34.475 28.292 33.182" class="color3e535e svgShape"></polygon><polygon fill="#9a98ba" points="26.743 35.647 26.622 35.577 26.617 33.901 26.739 33.971" class="color98a7ba svgShape"></polygon><polygon fill="#d9dfe6" points="26.739 33.971 26.617 33.901 28.076 33.059 28.197 33.129" class="colord9e0e6 svgShape"></polygon><polygon fill="#c0cad5" points="28.197 33.129 28.202 34.805 26.743 35.647 26.739 33.971" class="colorc0c8d5 svgShape"></polygon><polygon fill="#9a98ba" points="27.957 34.672 27.951 33.379 28.104 33.292 28.107 34.75 27.957 34.672" class="color98a7ba svgShape"></polygon><polygon fill="#d9dfe6" points="27.957 34.672 28.107 34.75 28.107 34.75 26.836 35.486 26.836 35.317" class="colord9e0e6 svgShape"></polygon><polygon fill="#3e4c5e" points="27.951 33.379 27.957 34.672 26.836 35.317 26.833 34.024" class="color3e535e svgShape"></polygon><polygon fill="#9a98ba" points="25.285 36.49 25.163 36.419 25.159 34.743 25.28 34.814" class="color98a7ba svgShape"></polygon><polygon fill="#d9dfe6" points="25.28 34.814 25.159 34.743 26.617 33.901 26.739 33.971" class="colord9e0e6 svgShape"></polygon><polygon fill="#c0cad5" points="26.739 33.971 26.743 35.647 25.285 36.49 25.28 34.814" class="colorc0c8d5 svgShape"></polygon><polygon fill="#9a98ba" points="26.498 35.514 26.492 34.222 26.645 34.134 26.648 35.592 26.498 35.514" class="color98a7ba svgShape"></polygon><polygon fill="#d9dfe6" points="26.498 35.514 26.648 35.592 26.648 35.592 25.378 36.328 25.378 36.159" class="colord9e0e6 svgShape"></polygon><polygon fill="#3e4c5e" points="26.492 34.222 26.498 35.514 25.378 36.159 25.375 34.866" class="color3e535e svgShape"></polygon><polygon fill="#9a98ba" points="23.826 37.332 23.705 37.261 23.7 35.585 23.821 35.656" class="color98a7ba svgShape"></polygon><polygon fill="#d9dfe6" points="23.821 35.656 23.7 35.585 25.159 34.743 25.28 34.814" class="colord9e0e6 svgShape"></polygon><polygon fill="#c0cad5" points="25.28 34.814 25.285 36.49 23.826 37.332 23.821 35.656" class="colorc0c8d5 svgShape"></polygon><polygon fill="#9a98ba" points="25.04 36.356 25.033 35.064 25.187 34.976 25.19 36.435 25.04 36.356" class="color98a7ba svgShape"></polygon><polygon fill="#d9dfe6" points="25.04 36.356 25.19 36.435 25.19 36.435 23.919 37.17 23.919 37.001" class="colord9e0e6 svgShape"></polygon><polygon fill="#3e4c5e" points="25.033 35.064 25.04 36.356 23.919 37.001 23.916 35.708" class="color3e535e svgShape"></polygon><g fill="#000000" class="color000000 svgShape"><polygon fill="#9a98ba" points="22.367 38.174 22.246 38.103 22.241 36.427 22.363 36.498" class="color98a7ba svgShape"></polygon><polygon fill="#d9dfe6" points="22.363 36.498 22.241 36.427 23.7 35.585 23.821 35.656" class="colord9e0e6 svgShape"></polygon><polygon fill="#c0cad5" points="23.821 35.656 23.826 37.332 22.367 38.174 22.363 36.498" class="colorc0c8d5 svgShape"></polygon><polygon fill="#9a98ba" points="23.581 37.198 23.575 35.906 23.728 35.818 23.731 37.277 23.581 37.198" class="color98a7ba svgShape"></polygon><polygon fill="#d9dfe6" points="23.581 37.198 23.731 37.277 23.731 37.277 22.461 38.012 22.461 37.843" class="colord9e0e6 svgShape"></polygon><polygon fill="#3e4c5e" points="23.575 35.906 23.581 37.198 22.461 37.843 22.457 36.551" class="color3e535e svgShape"></polygon></g><g fill="#000000" class="color000000 svgShape"><polygon fill="#9a98ba" points="20.909 39.016 20.787 38.946 20.783 37.269 20.904 37.34" class="color98a7ba svgShape"></polygon><polygon fill="#d9dfe6" points="20.904 37.34 20.783 37.269 22.241 36.427 22.363 36.498" class="colord9e0e6 svgShape"></polygon><polygon fill="#c0cad5" points="22.363 36.498 22.367 38.174 20.909 39.016 20.904 37.34" class="colorc0c8d5 svgShape"></polygon><polygon fill="#9a98ba" points="22.122 38.041 22.116 36.748 22.269 36.66 22.272 38.119 22.122 38.041" class="color98a7ba svgShape"></polygon><polygon fill="#d9dfe6" points="22.122 38.041 22.272 38.119 22.272 38.119 21.002 38.854 21.002 38.685" class="colord9e0e6 svgShape"></polygon><polygon fill="#3e4c5e" points="22.116 36.748 22.122 38.041 21.002 38.685 20.999 37.393" class="color3e535e svgShape"></polygon></g><g fill="#000000" class="color000000 svgShape"><polygon fill="#9a98ba" points="19.45 39.858 19.329 39.788 19.324 38.112 19.445 38.182" class="color98a7ba svgShape"></polygon></g><g fill="#000000" class="color000000 svgShape"><polygon fill="#d9dfe6" points="19.445 38.182 19.324 38.112 20.783 37.269 20.904 37.34" class="colord9e0e6 svgShape"></polygon></g><g fill="#000000" class="color000000 svgShape"><polygon fill="#c0cad5" points="20.904 37.34 20.909 39.016 19.45 39.858 19.445 38.182" class="colorc0c8d5 svgShape"></polygon></g><g fill="#000000" class="color000000 svgShape"><polygon fill="#9a98ba" points="20.664 38.883 20.657 37.59 20.811 37.503 20.814 38.961 20.664 38.883" class="color98a7ba svgShape"></polygon></g><g fill="#000000" class="color000000 svgShape"><polygon fill="#d9dfe6" points="20.664 38.883 20.814 38.961 20.814 38.961 19.543 39.696 19.543 39.527" class="colord9e0e6 svgShape"></polygon></g><g fill="#000000" class="color000000 svgShape"><polygon fill="#3e4c5e" points="20.657 37.59 20.664 38.883 19.543 39.527 19.54 38.235" class="color3e535e svgShape"></polygon></g><path fill="#9a98ba" d="M33.265255,33.2470932l0.0129395,3.4742012c0.0013847,0.4902229,0.3236122,0.9799042,0.9662323,1.3533554
			c1.2913589,0.7504578,3.3972054,0.7530289,4.6969948,0.002594c0.6557693-0.3786087,0.9824409-0.8752174,0.9810371-1.3708382
			l-0.0129356-3.4741859c0.0014038,0.4956169-0.3252678,0.9922256-0.9810333,1.3708344
			c-1.2997932,0.7504349-3.4056358,0.74786-4.6969948-0.002594C33.588871,34.2270088,33.2666435,33.7373238,33.265255,33.2470932z" class="color98a7ba svgShape"></path><path fill="#d9dfe6" d="M34.2423706,31.8797779c-1.2997932,0.7504368-1.3022194,1.9702358-0.0108757,2.7206821
			c1.2913589,0.7504539,3.3972015,0.7530289,4.6969948,0.002594c1.3042564-0.7530174,1.3067017-1.9728088,0.0153427-2.7232628
			C37.6524887,31.1293449,35.5466309,31.1267643,34.2423706,31.8797779z" class="colord9e0e6 svgShape"></path><path fill="#a8b5c2" d="M27.1241531,36.7939224l0.0129452,3.4742012c0.001379,0.4901199,0.3236046,0.9792824,0.9656754,1.3524132
			c1.2913589,0.7504578,3.3972015,0.7530289,4.7014637,0.0000153c0.6529655-0.3769913,0.9785233-0.8724327,0.9771194-1.3673172
			l-0.012928-3.4741859c0.0013962,0.4948769-0.3241615,0.9903183-0.9771271,1.3673096
			c-1.3042603,0.7530136-3.4101028,0.7504425-4.7014618-0.0000114C27.4477692,37.7732162,27.1255436,37.28405,27.1241531,36.7939224
			z" class="colora8b4c2 svgShape"></path><path fill="#d9dfe6" d="M28.1051826,35.4230843c-1.3042583,0.7530136-1.3066864,1.9728165-0.0153427,2.7232628
			c1.2913589,0.7504539,3.3972015,0.7530251,4.7014618,0.0000114c1.2997894-0.7504349,1.3022346-1.9702263,0.0108757-2.7206802
			C31.5108337,34.6752319,29.404974,34.6726494,28.1051826,35.4230843z" class="colord9e0e6 svgShape"></path><g fill="#000000" class="color000000 svgShape"><path fill="#c0cad5" d="M20.984169,40.3401413l0.0129433,3.4741974c0.001379,0.4900131,0.3225002,0.9792824,0.9640083,1.3520851
				c1.2913589,0.7504539,3.4016685,0.7504463,4.7014599,0.0000114c0.6529675-0.3769913,0.9785252-0.8724289,0.9771214-1.3673134
				l-0.0129242-3.4741898c0.0013943,0.4948807-0.3241634,0.9903221-0.9771309,1.3673134
				c-1.2997913,0.7504349-3.4101028,0.7504425-4.7014599-0.0000153
				C21.3066788,41.3194275,20.9855576,40.8301582,20.984169,40.3401413z" class="colorc0c8d5 svgShape"></path></g><g fill="#000000" class="color000000 svgShape"><path fill="#d9dfe6" d="M21.9635296,38.9689713c-1.2997913,0.7504349-1.3066864,1.9728127-0.0153427,2.723259
				c1.291357,0.7504578,3.4016685,0.7504501,4.7014599,0.0000153s1.3022346-1.9702263,0.0108757-2.7206841
				C25.3691788,38.2211151,23.2633209,38.2185364,21.9635296,38.9689713z" class="colord9e0e6 svgShape"></path></g><g fill="#000000" class="color000000 svgShape"><path fill="#a8b5c2" d="M35.7415886,32.9321442l0.0032883,0.4208107c0.000351,0.1245422,0.0819702,0.2488976,0.245018,0.3436508
					c0.3282166,0.1907387,0.8645859,0.1907387,1.1949463,0.0000038c0.1659622-0.0958176,0.2487068-0.2217407,0.2483482-0.3475227
					l-0.0032845-0.4208069c0.0003548,0.125782-0.0823898,0.2517052-0.2483521,0.3475227
					c-0.3303604,0.1907349-0.8667297,0.1907349-1.1949463-0.0000038
					C35.8235588,33.1810455,35.7419395,33.0566902,35.7415886,32.9321442z" class="colora8b4c2 svgShape"></path><path fill="#c0cad5" d="M35.9905052,32.5836411c-0.3303604,0.1907349-0.3321114,0.5014191-0.0038986,0.6921577
					c0.3282166,0.1907387,0.8645859,0.1907387,1.1949463,0.0000038s0.3309822-0.5007629,0.0027657-0.6915016
					S36.3208694,32.3929062,35.9905052,32.5836411z" class="colorc0c8d5 svgShape"></path></g><g fill="#000000" class="color000000 svgShape"><path fill="#a8b5c2" d="M29.6671886,36.4398956l0.0032902,0.4208069
					c0.000351,0.1245461,0.0819683,0.2489014,0.2450161,0.3436546c0.3282185,0.1907387,0.8645859,0.1907387,1.1949463,0.0000038
					c0.1659622-0.0958176,0.2487068-0.2217407,0.2483501-0.3475227l-0.0032845-0.4208069
					c0.0003548,0.125782-0.0823917,0.2517052-0.2483521,0.3475227c-0.3303623,0.1907349-0.8667278,0.1907349-1.1949463-0.0000038
					C29.7491589,36.688797,29.6675415,36.5644417,29.6671886,36.4398956z" class="colora8b4c2 svgShape"></path><path fill="#c0cad5" d="M29.9161072,36.0913925c-0.3303604,0.1907349-0.3321133,0.5014191-0.0038986,0.6921577
					c0.3282185,0.1907387,0.864584,0.1907387,1.1949463,0.0000038c0.3303604-0.1907349,0.3309822-0.5007629,0.0027637-0.6915016
					C30.7817039,35.9013138,30.2464695,35.9006577,29.9161072,36.0913925z" class="colorc0c8d5 svgShape"></path></g><g fill="#000000" class="color000000 svgShape"><polygon fill="#9a98ba" points="15.133 39.581 15.302 39.482 15.309 37.14 15.139 37.239" class="color98a7ba svgShape"></polygon><polygon fill="#d9dfe6" points="15.139 37.239 15.309 37.14 13.271 35.963 13.101 36.062" class="colord9e0e6 svgShape"></polygon><polygon fill="#c0cad5" points="13.101 36.062 13.094 38.404 15.133 39.581 15.139 37.239" class="colorc0c8d5 svgShape"></polygon><polygon fill="#a8b5c2" points="13.437 38.218 13.446 36.411 13.231 36.289 13.227 38.327 13.437 38.218" class="colora8b4c2 svgShape"></polygon><polygon fill="#d9dfe6" points="13.437 38.218 13.227 38.327 13.227 38.327 15.003 39.355 15.003 39.119" class="colord9e0e6 svgShape"></polygon><polygon fill="#3e4c5e" points="13.446 36.411 13.437 38.218 15.003 39.119 15.007 37.312" class="color3e535e svgShape"></polygon></g><g fill="#000000" class="color000000 svgShape"><polygon fill="#9a98ba" points="17.171 40.758 17.341 40.659 17.347 38.317 17.178 38.415" class="color98a7ba svgShape"></polygon><polygon fill="#d9dfe6" points="17.178 38.415 17.347 38.317 15.309 37.14 15.139 37.239" class="colord9e0e6 svgShape"></polygon><polygon fill="#c0cad5" points="15.139 37.239 15.133 39.581 17.171 40.758 17.178 38.415" class="colorc0c8d5 svgShape"></polygon><polygon fill="#a8b5c2" points="15.475 39.394 15.484 37.588 15.27 37.466 15.265 39.504 15.475 39.394" class="colora8b4c2 svgShape"></polygon><polygon fill="#d9dfe6" points="15.475 39.394 15.265 39.504 15.265 39.504 17.041 40.532 17.041 40.295" class="colord9e0e6 svgShape"></polygon><polygon fill="#3e4c5e" points="15.484 37.588 15.475 39.394 17.041 40.295 17.045 38.489" class="color3e535e svgShape"></polygon></g><g fill="#000000" class="color000000 svgShape"><polygon fill="#9a98ba" points="9.377 31.94 9.556 31.836 9.563 29.371 9.384 29.475" class="color98a7ba svgShape"></polygon><polygon fill="#d9dfe6" points="9.384 29.475 9.563 29.371 7.418 28.132 7.239 28.236" class="colord9e0e6 svgShape"></polygon><polygon fill="#c0cad5" points="7.239 28.236 7.232 30.701 9.377 31.94 9.384 29.475" class="colorc0c8d5 svgShape"></polygon><polygon fill="#a8b5c2" points="7.592 30.505 7.602 28.604 7.376 28.475 7.372 30.62 7.592 30.505" class="colora8b4c2 svgShape"></polygon><polygon fill="#d9dfe6" points="7.592 30.505 7.372 30.62 7.372 30.62 9.24 31.702 9.24 31.453" class="colord9e0e6 svgShape"></polygon><polygon fill="#3e4c5e" points="7.602 28.604 7.592 30.505 9.24 31.453 9.245 29.552" class="color3e535e svgShape"></polygon></g><g fill="#000000" class="color000000 svgShape"><polygon fill="#9a98ba" points="11.522 33.178 11.701 33.074 11.708 30.609 11.529 30.713" class="color98a7ba svgShape"></polygon><polygon fill="#d9dfe6" points="11.529 30.713 11.708 30.609 9.563 29.371 9.384 29.475" class="colord9e0e6 svgShape"></polygon><polygon fill="#c0cad5" points="9.384 29.475 9.377 31.94 11.522 33.178 11.529 30.713" class="colorc0c8d5 svgShape"></polygon><polygon fill="#a8b5c2" points="9.738 31.744 9.747 29.843 9.521 29.714 9.517 31.859 9.738 31.744" class="colora8b4c2 svgShape"></polygon><polygon fill="#d9dfe6" points="9.738 31.744 9.517 31.859 9.517 31.859 11.385 32.94 11.385 32.692" class="colord9e0e6 svgShape"></polygon><polygon fill="#3e4c5e" points="9.747 29.843 9.738 31.744 11.385 32.692 11.39 30.791" class="color3e535e svgShape"></polygon></g><g fill="#000000" class="color000000 svgShape"><polygon fill="#a89ab4" points="10.869 35.599 7.843 33.851 7.833 37.329 7.888 37.361 10.869 35.628" class="colorb49c9a svgShape"></polygon></g><g fill="#000000" class="color000000 svgShape"><polygon fill="#d9dfe6" points="10.869 35.628 7.888 37.361 10.859 39.076" class="colord9e0e6 svgShape"></polygon></g><path fill="#a8b5c2" d="M19.0633545 35.0907021c0 .0854111-.0427704.149437-.1495647.2135925-.2137203.1281776-.5554905.1281776-.7692089 0-.1067963-.0641556-.149435-.1281815-.149435-.2135925 0-.0641518.0426388-.1495628.149435-.2137184.2137184-.1281776.5554886-.1281776.7692089 0C19.0205841 34.9411392 19.0633545 35.0265503 19.0633545 35.0907021zM25.2847767 31.830761c0 .0854092-.0427685.149435-.1495647.2135887-.2137184.1281815-.5554886.1281815-.769207 0-.1067963-.0641537-.149435-.1281796-.149435-.2135887 0-.0641556.0426388-.1495647.149435-.2137203.2137184-.1281796.5554886-.1281796.769207 0C25.2420082 31.6811962 25.2847767 31.7666054 25.2847767 31.830761zM23.4663563 39.7739716l.0032883.4208107c.000351.1245422.0819683.2488976.245018.3436508.3282185.1907425.864584.1907387 1.1949463.0000038.1659603-.0958176.2487068-.2217407.2483501-.3475227l-.0032845-.4208069c.0003529.125782-.0823917.2517052-.248354.3475227-.3303604.1907349-.8667278.1907349-1.1949463-.0000038C23.5483265 40.0228729 23.4667091 39.8985176 23.4663563 39.7739716z" class="colora8b4c2 svgShape"></path><path fill="#c0cad5" d="M23.7152748,39.4254684c-0.3303623,0.1907349-0.3321133,0.5014229-0.0039005,0.6921577
			c0.3282185,0.1907387,0.8645859,0.1907387,1.1949463,0.0000038c0.3303623-0.1907349,0.3309822-0.5007629,0.0027657-0.6915016
			C24.5808716,39.2353897,24.0456352,39.2347374,23.7152748,39.4254684z" class="colorc0c8d5 svgShape"></path><path fill="#a8b5c2" d="M23.9739037 39.5759125c-.186821.1078606-.1878128.2835541-.0022068.3914185.1856098.1078644.4889278.1078606.6757488 0s.1871719-.2831841.001564-.3910484C24.4634018 39.4684219 24.1607246 39.4680519 23.9739037 39.5759125zM30.1763802 36.2199821c-.186821.1078606-.1878128.2835541-.0022049.3914185s.4889278.1078606.6757488 0 .1871719-.2831841.0015621-.3910484C30.6658802 36.1124916 30.3632011 36.1121178 30.1763802 36.2199821zM36.2572479 32.7324753c-.186821.1078606-.1878128.2835579-.0022049.3914185.1856079.1078644.4889259.1078644.6757469.0000038s.1871719-.2831841.001564-.3910484S36.4440689 32.6246147 36.2572479 32.7324753z" class="colora8b4c2 svgShape"></path><g fill="#000000" class="color000000 svgShape"><path fill="#3e4c5e" d="M24.5414352,36.0585594l-0.0093155,3.6296921c0,0.0372047-0.0185757,0.0650978-0.065155,0.0930443
				c-0.0930462,0.0558395-0.24193,0.0558395-0.3350334,0c-0.0465221-0.0279465-0.0651531-0.0558395-0.0651531-0.0930443
				l0.0093155-3.4900665l-5.3049145-3.0713043l-0.0092583,1.9637871c0,0.0372047-0.018631,0.0650978-0.065155,0.0930443
				c-0.0931015,0.0558395-0.2419872,0.0558395-0.3350887,0c-0.046524-0.0279465-0.0650978-0.0558395-0.0650978-0.0930443
				l0.0092583-2.3639755c0-0.0837288,0.0465794-0.1581993,0.1209946-0.1954079c0.0651531-0.0465813,0.1582565-0.0465813,0.2326698,0
				l5.770256,3.33181C24.5042286,35.9003563,24.5414352,35.9747734,24.5414352,36.0585594z" class="color3e535e svgShape"></path></g><g fill="#000000" class="color000000 svgShape"><path fill="#3e4c5e" d="M30.7492008,32.7513466l-0.0093155,3.6296959c0,0.0372047-0.0185757,0.0650978-0.065155,0.0930443
				c-0.0930462,0.0558395-0.24193,0.0558395-0.3350334,0c-0.0465221-0.0279465-0.0651531-0.0558395-0.0651531-0.0930443
				l0.0093155-3.4900703l-5.3049145-3.0713024l-0.0092583,1.9637871c0,0.0372066-0.0186329,0.0650978-0.065155,0.0930462
				c-0.0931015,0.0558376-0.2419872,0.0558376-0.3350887,0c-0.046524-0.0279484-0.0650978-0.0558395-0.0650978-0.0930462
				l0.0092583-2.3639755c0-0.0837288,0.0465794-0.1581993,0.1209927-0.1954079c0.065155-0.0465794,0.1582584-0.0465794,0.2326717,0
				l5.770256,3.3318119C30.7119942,32.5931473,30.7492008,32.6675606,30.7492008,32.7513466z" class="color3e535e svgShape"></path></g><g fill="#000000" class="color000000 svgShape"><path fill="#3e4c5e" d="M36.8358002,32.9354095c0,0.0372086-0.0186348,0.065155-0.065155,0.0930443
				c-0.0930481,0.0558395-0.2419891,0.0558395-0.3350334,0c-0.046524-0.0278893-0.065155-0.0558357-0.065155-0.0930443
				l-0.0093155-1.9637299l-5.6183434,3.2535706l-0.3536644-0.3350334l6.0836868-3.5141888
				c0.0744705-0.046524,0.1675148-0.046524,0.2326698,0c0.0744705,0.0372066,0.1209946,0.1116772,0.1209946,0.195406
				L36.8358002,32.9354095z" class="color3e535e svgShape"></path></g><path fill="#3e4c5e" d="M24.5321198,39.6882515c0,0.0372047-0.0185757,0.0650978-0.065155,0.0930443
			c-0.0930462,0.0558395-0.24193,0.0558395-0.3350334,0c-0.0465221-0.0279465-0.0651531-0.0558395-0.0651531-0.0930443
			c0-0.0279465,0.018631-0.065155,0.0651531-0.0931015c0.0931034-0.0558395,0.2419872-0.0558395,0.3350334,0
			C24.5135441,39.6230965,24.5321198,39.660305,24.5321198,39.6882515z" class="color3e535e svgShape"></path><g fill="#000000" class="color000000 svgShape"><polygon fill="#a8b5c2" points="14.084 23.987 14.084 24.392 16.023 25.518 16.022 25.113" class="colora8b4c2 svgShape"></polygon><polygon fill="#d9dfe6" points="16.022 25.113 16.023 25.518 17.973 24.392 17.973 23.987" class="colord9e0e6 svgShape"></polygon><polygon fill="#f4f6f8" points="14.084 23.985 16.022 25.112 17.973 23.985 16.034 22.859" class="colorffffff svgShape"></polygon><path fill="#6822a2" d="M15.9301128 23.0172787c-.0440617.0254383-.0442867.066143-.000514.0915794.0437727.0254383.1140432.0254402.1581049.0000019.0440598-.0254383.0442867-.0661411.0005131-.0915794C16.044445 22.9918423 15.9741735 22.9918404 15.9301128 23.0172787zM14.3571405 23.9254341c-.0440598.0254383-.0442867.066143-.000514.0915794.0437727.0254383.1140442.0254402.1581049.0000019s.0442877-.0661411.000515-.0915794S14.4012022 23.8999958 14.3571405 23.9254341zM15.2811909 23.551302c-.4176798.241148-.4198256.6270084-.0048733.8681526.4149532.2411442 1.0811062.2411633 1.4987869.0000153.4176846-.2411518.4198303-.6270123.0048771-.8681564C16.3650303 23.3101692 15.6988764 23.3101501 15.2811909 23.551302zM17.5410137 23.9534321c-.0440598.0254383-.0431957.0667763.0005779.0922146.0437756.0254402.1129494.0248032.1570091-.0006351.0440617-.0254383.0453854-.0655041.0016098-.0909443C17.6564369 23.9286308 17.5850754 23.9279938 17.5410137 23.9534321zM15.9680433 24.8615875c-.0440607.0254383-.0431957.0667763.000577.0922146.0437756.0254402.1129494.0248032.1570091-.0006351.0440617-.0254383.0453854-.0655041.0016098-.0909443C16.0834656 24.8367863 16.012104 24.8361492 15.9680433 24.8615875z" class="color485e6d svgShape"></path><path fill="#d9dfe6" d="M15.6724319,23.6075974c-0.0131149,0.0075722-0.0241785,0.0166225-0.0324001,0.0270252
				c-0.0379791,0.0475693-0.0005875,0.1043625,0.0835218,0.1240215c0.0560732,0.0131073,0.1129446,0.0334949,0.1525755,0.0643177
				c0.0354948,0.0216007,0.0604801,0.0492706,0.0783424,0.0766964c-0.0155287,0.0046101-0.0302277,0.0106792-0.0432596,0.0182018
				c-0.013032,0.0075245-0.0235548,0.0160179-0.0319872,0.0252419c-0.0887861-0.0077667-0.1960573-0.0067978-0.282505,0.0165024
				c-0.064187,0.0113411-0.1192913,0.033287-0.1641769,0.0591984c-0.0319586,0.0184517-0.058733,0.0389118-0.0799322,0.0589981
				c-0.0505514,0.0480556-0.0186396,0.1104298,0.0688047,0.1334877c0.0622673,0.0165863,0.1338568,0.0079842,0.1796885-0.0184765
				c0.0145254-0.0083866,0.0264645-0.0185661,0.0346985-0.0303059c0.0174789-0.0254879,0.0439787-0.051897,0.080946-0.0732403
				c0.0094976-0.0054836,0.0196867-0.0106335,0.0305901-0.0153465c0.0369883-0.0203876,0.0844193-0.0351925,0.1322441-0.0453854
				c0.0074902,0.009222,0.0179176,0.0177174,0.0304461,0.0249977c0.0133657,0.0077667,0.0288343,0.0138359,0.0451498,0.018446
				c-0.0141153,0.0512123-0.0127897,0.1133442,0.027154,0.1633415c0.0327415,0.0638313,0.1200466,0.1116447,0.2032642,0.1410122
				c0.0658188,0.0231533,0.1469097,0.0163956,0.1979523-0.0130749c0.0131683-0.0076027,0.024334-0.0167103,0.0327282-0.0272121
				c0.0379791-0.0475712,0.0005875-0.1043644-0.0835228-0.1240234c-0.0560722-0.0131054-0.1129436-0.033493-0.1525764-0.0643177
				c-0.0354958-0.0211143-0.0604782-0.0492687-0.0783405-0.0766945c0.0155258-0.0041256,0.0302258-0.0101948,0.0428371-0.0174751
				c0.0138721-0.008009,0.0239773-0.0167465,0.0315704-0.0259686c0.0892048,0.008009,0.196476,0.0070381,0.2833443-0.0165043
				c0.0641479-0.0111485,0.1188602-0.0328884,0.1635246-0.0586758c0.0321407-0.0185547,0.0590782-0.0392075,0.0805836-0.0595207
				c0.0501308-0.0478115,0.019474-0.1099453-0.0688038-0.1334877c-0.0622673-0.0165863-0.1338577-0.0079842-0.1796875,0.0184765
				c-0.0145264,0.0083866-0.0264664,0.0185661-0.0347004,0.0303059c-0.0181465,0.0258751-0.0442524,0.0520573-0.0810299,0.0732899
				c-0.0094471,0.005455-0.0196018,0.0105858-0.0305061,0.0152988c-0.0369892,0.0208721-0.0852566,0.0351906-0.1326637,0.0456276
				c-0.0074921-0.0087376-0.0179195-0.0172329-0.0308666-0.0247574c-0.0133648-0.0077667-0.0279961-0.013834-0.0434742-0.018446
				c0.0141182-0.0516949,0.0127907-0.1133423-0.0279884-0.163826c-0.0331631-0.0635891-0.1200466-0.1116447-0.2032633-0.1410122
				C15.8048935,23.5711803,15.7232714,23.5782452,15.6724319,23.6075974z" class="colord9e0e6 svgShape"></path></g><g fill="#000000" class="color000000 svgShape"><polygon fill="#a8b5c2" points="11.077 25.843 11.078 26.249 13.016 27.375 13.015 26.97" class="colora8b4c2 svgShape"></polygon><polygon fill="#d9dfe6" points="13.015 26.97 13.016 27.375 14.967 26.249 14.966 25.843" class="colord9e0e6 svgShape"></polygon><polygon fill="#f4f6f8" points="11.077 25.842 13.015 26.969 14.966 25.842 13.028 24.716" class="colorffffff svgShape"></polygon><path fill="#6822a2" d="M12.9232235 24.8741112c-.0440607.0254383-.0442867.066143-.000514.0915813.0437727.0254364.1140442.0254402.1581049 0 .0440607-.0254383.0442867-.0661411.000514-.0915794S12.9672842 24.8486729 12.9232235 24.8741112zM11.3502522 25.7822666c-.0440607.0254383-.0442867.066143-.000514.0915813.0437727.0254364.1140442.0254383.1581049 0s.0442867-.0661411.000514-.0915794S11.3943129 25.7568283 11.3502522 25.7822666zM12.2743025 25.4081345c-.4176807.241148-.4198265.6270084-.0048733.8681526.4149523.2411442 1.0811062.2411633 1.4987869.0000153.4176846-.2411499.4198303-.6270123.0048771-.8681564C13.3581409 25.1670017 12.691987 25.1669846 12.2743025 25.4081345zM14.5341253 25.8102665c-.0440607.0254383-.0431957.0667744.000577.0922127.0437765.0254402.1129494.0248051.1570101-.0006332.0440607-.0254402.0453854-.0655041.0016088-.0909443C14.6495485 25.7854633 14.578187 25.7848263 14.5341253 25.8102665zM12.961154 26.7184219c-.0440607.0254383-.0431957.0667763.000577.0922127.0437765.0254402.1129494.0248051.1570101-.0006332.0440607-.0254402.0453854-.0655041.0016088-.0909443C13.0765772 26.6936188 13.0052147 26.6929817 12.961154 26.7184219z" class="color485e6d svgShape"></path><path fill="#d9dfe6" d="M12.6655436,25.4644299c-0.0131159,0.0075722-0.0241795,0.0166225-0.0324011,0.0270252
				c-0.0379791,0.0475693-0.0005875,0.1043625,0.0835228,0.1240215c0.0560732,0.0131073,0.1129436,0.0334949,0.1525755,0.0643177
				c0.0354948,0.0216026,0.0604792,0.0492706,0.0783424,0.0766964c-0.0155287,0.004612-0.0302286,0.0106792-0.0432606,0.0182018
				c-0.013031,0.0075245-0.0235538,0.0160198-0.0319862,0.0252419c-0.0887861-0.0077667-0.1960583-0.0067959-0.282506,0.0165024
				c-0.064187,0.0113411-0.1192913,0.033287-0.1641769,0.0592003c-0.0319586,0.0184498-0.058733,0.0389099-0.0799313,0.0589962
				c-0.0505524,0.0480556-0.0186396,0.1104317,0.0688038,0.1334877c0.0622683,0.0165882,0.1338577,0.0079842,0.1796885-0.0184765
				c0.0145254-0.0083866,0.0264654-0.0185661,0.0346994-0.0303059c0.017478-0.0254879,0.0439787-0.051897,0.080946-0.0732403
				c0.0094976-0.0054836,0.0196857-0.0106335,0.0305901-0.0153465c0.0369873-0.0203876,0.0844183-0.0351925,0.1322432-0.0453854
				c0.0074902,0.0092239,0.0179176,0.0177174,0.030447,0.0249996c0.0133648,0.0077667,0.0288334,0.013834,0.0451488,0.018446
				c-0.0141153,0.0512104-0.0127888,0.1133423,0.0271549,0.1633396c0.0327415,0.0638313,0.1200457,0.1116447,0.2032633,0.1410141
				c0.0658188,0.0231514,0.1469097,0.0163937,0.1979532-0.0130749c0.0131683-0.0076027,0.024334-0.0167122,0.0327282-0.0272141
				c0.0379791-0.0475693,0.0005875-0.1043625-0.0835228-0.1240234c-0.0560732-0.0131054-0.1129436-0.033493-0.1525764-0.0643177
				c-0.0354958-0.0211143-0.0604782-0.0492687-0.0783415-0.0766945c0.0155268-0.0041256,0.0302258-0.0101929,0.0428371-0.0174751
				c0.0138721-0.008009,0.0239773-0.0167465,0.0315714-0.0259686c0.0892038,0.008009,0.196476,0.0070381,0.2833433-0.0165024
				c0.0641479-0.0111504,0.1188602-0.0328903,0.1635256-0.0586777c0.0321398-0.0185547,0.0590782-0.0392075,0.0805836-0.0595188
				c0.0501308-0.0478134,0.019474-0.1099453-0.0688047-0.1334896c-0.0622673-0.0165863-0.1338568-0.0079823-0.1796875,0.0184784
				c-0.0145264,0.0083866-0.0264654,0.0185642-0.0347004,0.0303059c-0.0181465,0.0258732-0.0442514,0.0520554-0.0810289,0.073288
				c-0.0094481,0.005455-0.0196028,0.0105858-0.0305061,0.0152988c-0.0369902,0.0208721-0.0852566,0.0351906-0.1326637,0.0456276
				c-0.007493-0.0087376-0.0179205-0.0172329-0.0308676-0.0247555c-0.0133648-0.0077667-0.0279961-0.0138359-0.0434732-0.018446
				c0.0141182-0.0516968,0.0127897-0.1133442-0.0279894-0.163826c-0.0331621-0.0635891-0.1200457-0.1116447-0.2032633-0.1410141
				C12.7980042,25.4280148,12.716383,25.4350777,12.6655436,25.4644299z" class="colord9e0e6 svgShape"></path></g><path fill="#c0cad5" d="M38.8613663 7.3551626c0 .5397563-.4467125.9865236-.9865227.9865236-.2791939 0-.539814-.1209936-.7259064-.3164577-.0931015.4467096-.4932899.7911158-.9679489.7911158-.2512436 0-.4839172-.1024189-.6607475-.2606192-.0279503.5211811-.4653435.9400005-.9865227.9400005-.539814 0-.9865265-.4467106-.9865265-.9865236 0-.4281349.2885132-.800375.6793823-.9306841-.0093155-.0558391-.018631-.1116776-.018631-.1768327 0-.5398126.4467659-.9865232.9865227-.9865232.2047806 0 .3909302.0651546.5491295.1675162V6.5361557c0-.539813.4467087-.9865236.9865227-.9865236.4839745 0 .9027367.3629241.9678917.8375821.0558395-.009316.1116791-.0185752.1768341-.0185752C38.4146538 6.368639 38.8613663 6.8153496 38.8613663 7.3551626zM30.920042 2.873543c0 .5397563-.4467106.9865234-.9865227.9865234-.2791939 0-.539814-.1209934-.7259045-.3164577-.0931034.4467106-.4932899.7911162-.9679489.7911162-.2512455 0-.4839172-.1024189-.6607494-.2606192-.0279484.5211811-.4653416.9400005-.9865227.9400005-.539814 0-.9865246-.4467106-.9865246-.9865236 0-.4281352.2885113-.8003747.6793823-.9306843-.0093155-.0558388-.0186329-.1116776-.0186329-.1768324 0-.5398128.4467678-.9865233.9865246-.9865233.2047787 0 .3909283.0651548.5491276.1675164V2.0545361c0-.5398129.4467106-.9865233.9865246-.9865233.4839745 0 .9027367.3629237.9678917.837582.0558376-.009316.1116772-.0185751.1768322-.0185751C30.4733315 1.8870198 30.920042 2.3337302 30.920042 2.873543z" class="colorc0c8d5 svgShape"></path></svg>