<svg xmlns="http://www.w3.org/2000/svg" enable-background="new 0 0 32 32" viewBox="0 0 32 32" id="CreditCard"><path fill="#f4f6f8" d="M5.7,3.9L7,3.2c0.2-0.1,0.5,0,0.7,0.1L6.5,4C6.2,3.8,6,3.8,5.7,3.9z" class="color81d4fa svgShape"></path><path fill="#f4f6f8" d="M24.3,14.3c0.6,0.4,1,1,1,1.7v12.1c0,0.6-0.5,0.9-1,0.6L6.4,18.4c-0.6-0.4-1-1-1-1.7V4.6c0-0.6,0.4-0.9,1-0.6
		L24.3,14.3z" class="color29b6f6 svgShape"></path><polygon fill="#f4f6f8" points="5.4 11.4 12.4 7.4 10.2 6.1 5.5 8.8" class="color81d4fa svgShape"></polygon><polygon fill="#6822a2" points="8.6 15.6 8.6 16.3 6.4 15.1 6.4 14.4" class="color37474f svgShape"></polygon><polygon fill="#010001" points="14.1 20.4 14.1 21 6.4 16.6 6.4 15.9" class="color039be5 svgShape"></polygon><polygon fill="#6822a2" points="14.2 18.9 14.2 19.5 12 18.3 12 17.6" class="color37474f svgShape"></polygon><polygon fill="#6822a2" points="17 20.5 17 21.1 14.8 19.9 14.8 19.2" class="color37474f svgShape"></polygon><path fill="#82c0ff" d="M20.6,21.3c0.2,0.1,0.4,0.2,0.5,0.4c0.6,0.6,0.9,1.3,1,2.2c0,0.7-0.4,1.1-1,1c-0.2,0-0.4-0.1-0.5-0.2
		c-0.9-0.6-1.4-1.5-1.5-2.6C19.1,21.2,19.8,20.8,20.6,21.3z" class="colorffe082 svgShape"></path><path fill="#2893ff" d="M21.6,21.9c0.2,0.1,0.4,0.2,0.5,0.4c0.6,0.6,1,1.3,1,2.2c0,0.7-0.4,1.1-1,1c-0.2,0-0.4-0.1-0.5-0.2
		c-0.2-0.1-0.4-0.2-0.5-0.4c0.6,0.1,1-0.3,1-1c-0.1-0.8-0.4-1.6-1-2.2C21.3,21.7,21.5,21.8,21.6,21.9z" class="colorffca28 svgShape"></path><path fill="#a50b89" d="M22.7,22.4c0.9,0.6,1.4,1.5,1.5,2.6c0,0.9-0.7,1.3-1.5,0.9c-0.2-0.1-0.4-0.2-0.5-0.4c0.6,0.1,1-0.3,1-1
		c0-0.8-0.4-1.6-1-2.2C22.3,22.3,22.5,22.4,22.7,22.4z" class="colorffa000 svgShape"></path><polygon fill="#6822a2" points="11.4 17.2 11.4 17.9 9.2 16.7 9.2 16" class="color37474f svgShape"></polygon><path fill="#2893ff" d="M10.5,8.3c0.2,0.1,0.4,0.4,0.4,0.7v2.3c0,0.3-0.2,0.4-0.4,0.2L7.8,10C7.6,9.8,7.4,9.6,7.4,9.3V7
		c0-0.2,0.2-0.3,0.4-0.2L10.5,8.3z" class="colorffca28 svgShape"></path><path fill="#5046e4" d="M25.3,16v12.1c0,0.2-0.1,0.5-0.3,0.6l1.2-0.7c0.2-0.1,0.3-0.4,0.3-0.6V15.3L25.3,16z" class="color0277bd svgShape"></path><polygon fill="#010001" points="6.5 4 7.7 3.3 25.5 13.6 24.3 14.3" class="color039be5 svgShape"></polygon><path fill="#0f02d1" d="M24.3,14.3l1.2-0.7c0.6,0.4,0.9,1,1,1.7L25.3,16C25.3,15.3,24.9,14.7,24.3,14.3z" class="color0288d1 svgShape"></path><polygon fill="#a50b89" points="8.6 8.5 7.4 7.9 7.4 7.5 8.3 8.1 8.3 7.1 8.6 7.3" class="colorffa000 svgShape"></polygon><polygon fill="#a50b89" points="8.6 10.5 8.3 10.3 8.3 9.3 7.4 8.8 7.4 8.5 8.6 9.1" class="colorffa000 svgShape"></polygon><polygon fill="#a50b89" points="10.9 9.9 9.5 9.1 9.5 7.8 9.8 7.9 9.8 8.9 10.9 9.5" class="colorffa000 svgShape"></polygon><polygon fill="#a50b89" points="9.8 11.2 9.5 11 9.5 9.6 10.9 10.4 10.9 10.8 9.8 10.1" class="colorffa000 svgShape"></polygon><polygon fill="#f4f6f8" points="5.4 7.9 9.3 5.6 7.9 4.8 5.4 6.3" class="color81d4fa svgShape"></polygon></svg>