<svg xmlns="http://www.w3.org/2000/svg" viewBox="0 0 50 50" id="FlyingAirplane"><path fill="#f4f6f8" d="M48.685 19.836v.28l-.89.51-5.82-1.12h-.01c-.21.2-.42.37-.6.53-.59.5-1.21 1.02-1.78 1.48-.53.42-1.08.81-1.66 1.16l-11.08 6.79 20.87 6.16-.01.52-2.16 1.25-9.29-.65-2.11 1.21v.01c0 .07-.01.13-.02.18-.01.08-.04.14-.07.2-.02.05-.05.08-.08.11-.04.04-.08.07-.12.1l-2.18 1.27c-.03.02-.07.03-.11.04-.05.02-.11.03-.17.03-.14 0-.29-.04-.46-.14-.57-.33-1.03-1.14-1.03-1.8 0-.24.06-.43.17-.55a.17.17 0 0 1 .06-.06c.03-.03.07-.06.11-.07l1.45-.85-1.67-.12-2.32-.17-1.53.89c0 .07-.01.14-.03.2-.01.06-.03.12-.06.17-.05.1-.11.17-.2.22l-2.12 1.23c-.02.02-.04.03-.06.04-.04.02-.08.04-.13.05s-.09.02-.14.02c-.14 0-.3-.04-.47-.14-.57-.33-1.03-1.14-1.03-1.79 0-.18.03-.32.09-.44.03-.05.06-.1.1-.14.04-.05.1-.08.16-.11-.02 0-.03.01-.05.02l.91-.54-5.98-.42h-.01l-1.49.92s-7.23 4.47-10.67 5.11c0 0-4.08.62-3.65-1.12.23-.92.74-1.96 1.24-2.81.01-.02.03-.04.04-.06.1-.18.21-.35.31-.5.05-.09.11-.17.17-.25.37-.51.81-.98 1.3-1.38.68-.55 1.79-1.42 2.87-2.11.7-.45 1.91-1.19 3.12-1.92l-.51-2.35-1.51.88-.06.04a.59.59 0 0 1-.27.07c-.14 0-.29-.04-.46-.14-.58-.33-1.04-1.14-1.04-1.8 0-.24.06-.43.17-.55a.17.17 0 0 1 .06-.06c.04-.03.07-.06.11-.07l2.14-1.25a.21.21 0 0 1 .11-.04c.03-.02.07-.02.12-.02l-.72-3.32-1.11.64c-.04.02-.09.05-.14.06-.05.02-.11.03-.17.03h-.02c-.13 0-.28-.04-.44-.14-.58-.33-1.04-1.14-1.04-1.79 0-.09.01-.17.03-.24.03-.13.08-.24.15-.32.02-.02.04-.04.06-.05 0 0 0-.02.01-.02a.18.18 0 0 1 .07-.05c.01 0 .02 0 .02-.01l1.93-1.13-.84-3.9.01-1.09 1.82-1.05.34-.2 3.58 4.02c.04.02.09.04.13.06.08.04.15.1.21.16.07.06.14.13.19.21.12.15.22.32.29.5l6.38 7.18c12.378-7.337 14.01-8.155 13.91-8.1.29-.16.59-.33.88-.49.29-.16.58-.32.86-.48l-1.68-3.82v-.28l.69-.39.2-.12 3.12 2.4 1.73-5.06 1.25-.73.3.18.01 5.13c1.023-.362 3.728-1.223 4.78-.98.08.02.16.05.22.08.03.02.05.04.08.06.05.04.08.09.1.14.04.1.05.22.05.34 0 .11-.01.22-.04.34-.19.93-1.1 2.2-2.16 3.4-.16.19-.33.37-.5.56l4.89 2.12z" class="colorbac1ce svgShape"></path><path fill="#f4f6f8" d="M48.685 19.836v.28l-.89.51-5.83-1.12c-.21.2-.42.37-.6.53-.59.5-1.21 1.02-1.78 1.48-.53.42-1.08.81-1.66 1.16l-11.08 6.79 20.87 6.16-.01.52-2.16 1.25-9.29-.65-2.11 1.21c-.01.29-.11.5-.29.6l-2.18 1.27c.02-.01.04-.02.05-.04-.19.15-.47.15-.79-.03-.57-.33-1.03-1.14-1.03-1.8 0-.35.13-.59.34-.68l1.46-.85-4-.29-1.53.89c-.01.29-.12.49-.29.59l-2.12 1.23-.06.04c-.19.11-.45.1-.74-.07-.57-.33-1.03-1.14-1.03-1.79 0-.35.13-.59.35-.69-.02 0-.03.01-.05.02l.92-.54-5.99-.42-1.5.92s-7.23 4.47-10.67 5.11c0 0-4.08.62-3.65-1.12.23-.92.74-1.96 1.24-2.81.01-.02.03-.04.04-.06.1-.18.21-.35.31-.5.05-.09.11-.17.17-.25.37-.51.81-.98 1.3-1.38.68-.55 1.79-1.42 2.87-2.11.7-.44 1.91-1.19 3.12-1.92l-.51-2.35-1.51.88-.06.04c-.18.11-.44.1-.73-.07-.58-.33-1.04-1.14-1.04-1.8 0-.35.13-.59.34-.68l2.14-1.25c.07-.04.14-.06.23-.06l-.72-3.32-1.14.66c.01-.01.03-.02.04-.04-.19.15-.47.15-.78-.03-.58-.33-1.04-1.14-1.04-1.79.01-.35.14-.59.34-.69l1.93-1.13-.84-3.9.01-1.09 1.82-1.05.34-.2 3.58 4.02c.04.02.09.04.13.06.3.18.55.51.69.87l6.38 7.18c6.038-3.537 6.944-4.236 15.65-9.07l-1.68-3.82v-.28l.69-.39.2-.12 3.12 2.4 1.73-5.06 1.25-.73.3.18.01 5.13c2.38-.84 4.93-1.41 5.18-.7.35 1.02-1.09 2.96-2.66 4.64l4.9 2.12z" class="colorbac1ce svgShape"></path><path fill="#cad3dd" d="m33.968 12.646 2.275 5.177.001-.277-2.275-5.177z" class="colorcad0dd svgShape"></path><path fill="#d4dee8" d="m34.653 11.972-.684.397 2.275 5.177 3.217-1.87z" class="colord4dae8 svgShape"></path><path fill="#f960dd" d="m39.667 15.556-4.808-3.704-.206.12 4.808 3.704z" class="colorf9607f svgShape"></path><path fill="#d4dee8" d="M30.03 34.415c0 .25-.087.425-.231.509l-5.27 3.058c.143-.08.23-.256.233-.505 0-.506-.355-1.117-.79-1.37-.221-.128-.423-.138-.567-.054l5.27-3.062c.144-.084.346-.07.564.057.438.253.793.864.79 1.367z" class="colord4dae8 svgShape"></path><path fill="#664184" d="M23.97 36.108c.438.252.792.863.79 1.368 0 .5-.357.706-.795.454s-.791-.869-.79-1.37c.002-.504.358-.705.796-.453z" class="color416e84 svgShape"></path><path fill="#f960dd" d="M26.186 36.95c0 .327-.114.556-.301.667l-2.18 1.27c.186-.107.3-.336.304-.664 0-.663-.465-1.464-1.033-1.796-.29-.168-.553-.179-.743-.068l2.18-1.274c.187-.11.45-.091.736.076.576.328 1.041 1.129 1.037 1.789z" class="colorf9607f svgShape"></path><path fill="#fa51db" d="M24.01 38.223c-.005.656-.47.923-1.042.59-.575-.327-1.037-1.135-1.037-1.791.004-.66.47-.923 1.041-.591.576.328 1.037 1.129 1.037 1.792z" class="colorfa5168 svgShape"></path><path fill="#f960dd" d="M22.559 36.799c0-.107.015-.202.05-.282-.294-.02-.5.205-.504.606 0 .545.385 1.22.862 1.49.381.221.705.122.82-.206a.725.725 0 0 1-.363-.114c-.48-.274-.865-.945-.865-1.494z" class="colorf9607f svgShape"></path><path fill="#474f59" d="M22.97 36.63a.812.812 0 0 0-.361-.114.717.717 0 0 0-.05.283c0 .549.385 1.22.865 1.494.13.076.252.114.363.114a.8.8 0 0 0 .05-.285c0-.553-.386-1.217-.866-1.491z" class="color474b59 svgShape"></path><path fill="#d4dee8" d="M37.998 35.353c0 .25-.086.425-.23.509l-5.27 3.058c.143-.08.23-.256.233-.505 0-.506-.356-1.117-.79-1.37-.222-.128-.423-.138-.567-.055l5.27-3.062c.144-.083.346-.07.563.058.439.253.794.864.791 1.367z" class="colord4dae8 svgShape"></path><path fill="#664184" d="M31.94 37.046c.437.252.791.864.79 1.368-.002.5-.359.706-.796.454-.437-.253-.792-.869-.79-1.37.001-.504.358-.705.795-.452z" class="color416e84 svgShape"></path><path fill="#f960dd" d="M34.155 37.888c0 .328-.114.556-.301.667l-2.181 1.27c.187-.107.301-.336.305-.664 0-.663-.465-1.464-1.033-1.796-.29-.168-.553-.179-.744-.068l2.181-1.274c.187-.11.45-.091.736.076.576.328 1.04 1.129 1.037 1.789z" class="colorf9607f svgShape"></path><path fill="#fa51db" d="M31.978 39.161c-.004.656-.469.923-1.04.59-.576-.327-1.038-1.135-1.038-1.791.004-.66.47-.923 1.041-.59.576.327 1.037 1.128 1.037 1.791z" class="colorfa5168 svgShape"></path><path fill="#f960dd" d="M30.528 37.737c0-.107.015-.202.05-.282-.294-.02-.5.206-.504.606 0 .545.385 1.22.862 1.49.381.222.705.122.82-.205a.725.725 0 0 1-.363-.115c-.48-.274-.865-.945-.865-1.494z" class="colorf9607f svgShape"></path><path fill="#474f59" d="M30.94 37.569a.812.812 0 0 0-.363-.115.718.718 0 0 0-.05.283c0 .549.386 1.22.866 1.494.13.076.252.114.362.114a.8.8 0 0 0 .05-.285c0-.553-.385-1.217-.865-1.491z" class="color474b59 svgShape"></path><path fill="#d4dee8" d="M14.64 25.373c0 .25-.086.425-.23.508l-5.27 3.06c.143-.08.23-.257.233-.506 0-.506-.355-1.117-.79-1.37-.221-.128-.423-.138-.567-.055l5.27-3.062c.145-.083.346-.07.564.058.438.253.794.864.79 1.367z" class="colord4dae8 svgShape"></path><path fill="#664184" d="M8.582 27.065c.437.253.791.864.79 1.37-.001.5-.358.705-.795.453s-.792-.87-.79-1.37c0-.504.357-.705.795-.453z" class="color416e84 svgShape"></path><path fill="#f960dd" d="M10.797 27.907c0 .328-.114.557-.3.668l-2.182 1.27c.187-.107.302-.336.305-.664 0-.664-.465-1.464-1.033-1.796-.29-.168-.553-.18-.743-.069l2.18-1.273c.187-.11.45-.091.736.076.576.328 1.041 1.129 1.037 1.788z" class="colorf9607f svgShape"></path><path fill="#fa51db" d="M8.62 29.18c-.003.657-.468.923-1.04.592-.576-.328-1.037-1.136-1.037-1.792.003-.66.469-.923 1.04-.591.576.328 1.037 1.128 1.037 1.792z" class="colorfa5168 svgShape"></path><path fill="#f960dd" d="M7.17 27.756c0-.106.016-.202.05-.282-.294-.019-.5.206-.503.607 0 .545.385 1.22.861 1.49.381.221.705.122.82-.206a.725.725 0 0 1-.362-.114c-.48-.274-.866-.946-.866-1.495z" class="colorf9607f svgShape"></path><path fill="#474f59" d="M7.582 27.589a.812.812 0 0 0-.362-.115.717.717 0 0 0-.05.282c0 .55.385 1.22.866 1.495.13.076.251.114.362.114a.8.8 0 0 0 .05-.286c0-.552-.386-1.216-.866-1.49z" class="color474b59 svgShape"></path><path fill="#d4dee8" d="M13.715 18.856c0 .25-.087.426-.23.51l-5.271 3.058c.144-.08.23-.256.233-.506 0-.505-.355-1.117-.79-1.37-.221-.127-.423-.137-.567-.054l5.27-3.062c.145-.083.347-.07.564.058.439.253.794.864.79 1.366z" class="colord4dae8 svgShape"></path><path fill="#664184" d="M7.656 20.55c.437.252.792.863.79 1.368-.001.5-.358.706-.795.453-.438-.252-.792-.868-.79-1.369.001-.504.358-.705.795-.453z" class="color416e84 svgShape"></path><path fill="#f960dd" d="M9.872 21.391c0 .328-.115.557-.301.667l-2.181 1.27c.187-.107.3-.336.305-.663 0-.664-.465-1.464-1.033-1.796-.29-.168-.553-.18-.744-.069l2.18-1.273c.188-.11.45-.092.737.076.575.328 1.04 1.129 1.037 1.788z" class="colorf9607f svgShape"></path><path fill="#fa51db" d="M7.695 22.665c-.004.655-.47.922-1.041.59-.576-.327-1.037-1.136-1.037-1.791.004-.66.469-.923 1.04-.591.576.328 1.038 1.128 1.038 1.791z" class="colorfa5168 svgShape"></path><path fill="#f960dd" d="M6.245 21.24c0-.107.015-.202.05-.282-.294-.019-.5.206-.504.606 0 .546.385 1.22.861 1.491.382.221.706.122.82-.206a.725.725 0 0 1-.362-.114c-.48-.275-.865-.946-.865-1.495z" class="colorf9607f svgShape"></path><path fill="#474f59" d="M6.656 21.073a.811.811 0 0 0-.362-.115.717.717 0 0 0-.05.282c0 .55.386 1.22.866 1.495.13.076.252.114.362.114a.8.8 0 0 0 .05-.286c0-.553-.385-1.216-.866-1.49z" class="color474b59 svgShape"></path><path fill="#00367a" d="m21.666 24.687-.003 1.082-11.072 6.434.004-1.082z" class="color00717a svgShape"></path><path fill="#f4f6f8" d="m10.595 31.121-.004 1.082L7.05 15.742l.003-1.081z" class="colorbac1ce svgShape"></path><path fill="#d4dee8" d="m9.216 13.403 10.848 12.216-9.469 5.502-3.542-16.46z" class="colord4dae8 svgShape"></path><path fill="#f960dd" d="M20.064 25.619 9.216 13.403l-.344.201 10.634 12.339z" class="colorf9607f svgShape"></path><path fill="#f4f6f8" d="M46.443 13.079c.539 1.581-3.195 5.36-5.08 6.96a99.06 99.06 0 0 1-1.78 1.477 15.56 15.56 0 0 1-1.655 1.164L15.667 36.318s-7.231 4.465-10.668 5.109c0 0-4.08.617-3.655-1.122.232-.922.736-1.957 1.24-2.806.12-.199.24-.391.352-.564.053-.086.113-.166.172-.245.365-.511.803-.982 1.294-1.38.683-.557 1.791-1.42 2.873-2.116 1.731-1.108 6.68-4.067 6.68-4.067 3.59-2.104 19.32-11.607 24.56-14.21 2.534-1.26 7.583-2.85 7.928-1.838z" class="colore4e8f4 svgShape"></path><path fill="#0c2340" d="M5.999 38.663a.54.54 0 0 1-.265.08c-.584.026-2.747.086-2.953-.358-.121-.34-.15-.714-.158-.948l-.039.062c.007.233.033.624.16.976.205.444 2.368.384 2.952.358a.538.538 0 0 0 .265-.08c.18-.12.491-.338.544-.478.008-.016.01-.035.013-.053-.084.139-.354.331-.519.441z" class="color363a44 svgShape"></path><path fill="#3f464f" d="M5.981 37.652c-.756.02-2.223.046-2.488-.013-.232-.047-.338-.544-.385-.95-.06.08-.12.16-.172.246-.1.154-.206.326-.313.501.008.235.036.609.158.949.206.444 2.369.384 2.953.358a.539.539 0 0 0 .265-.08c.165-.11.435-.302.519-.441.001-.011.005-.02.007-.033a.528.528 0 0 0-.544-.537z" class="color3f434f svgShape"></path><path fill="#6822a2" d="m11.319 37.313.017.732-.63.38-.016-.732zM12.714 36.471l.016.732-.629.38-.017-.732zM14.112 35.626l.016.732-.629.38-.017-.731zM15.506 34.784l.017.732-.63.38-.016-.732zM16.904 33.939l.017.732-.63.38-.016-.732zM18.299 33.097l.017.732-.63.38-.017-.732zM19.697 32.252l.017.732-.63.38-.016-.731zM21.092 31.41l.016.732-.629.38-.017-.732zM22.49 30.565l.016.732-.629.38-.017-.731zM23.884 29.723l.017.732-.63.38-.016-.732zM25.283 28.878l.016.732-.629.38-.017-.731zM26.677 28.036l.017.732-.63.38-.016-.732zM28.075 27.192l.017.731-.63.38-.016-.731zM29.47 26.349l.016.732-.629.38-.017-.732zM30.868 25.505l.017.731-.63.38-.016-.731zM32.263 24.662l.016.732-.629.38-.017-.732z" class="color5b5e71 svgShape"></path><path fill="#f4f6f8" d="m47.71 35.628-.003.514-2.164 1.258.003-.515zM45.546 36.885l-.003.515-28.433-2 .003-.515z" class="colorbac1ce svgShape"></path><path fill="#d4dee8" d="m47.71 35.628-2.164 1.257-28.433-2 9.469-5.503z" class="colord4dae8 svgShape"></path><path fill="#5046e4" d="M33.716 20.28c-.253.572-2.597 4.432-7.885 7.71L11.58 36.536s-2.074 1.37-3.599 1.733c-1.528.363-2.2.55-2.2.55l.52-.469-.2-.687s1.955.145 4.348-1.192c2.453-1.37 2.491-1.32 16.27-9.49 0 0 4.755-3.17 6.886-7.012.04-.073.363-.26.112.311z" class="color576cfb svgShape"></path><path fill="#f960dd" d="m40.005 9.371-.304-.176 1.253-.724.304.177z" class="colorf9607f svgShape"></path><path fill="#f348d4" d="m36.978 18.232-.304-.177 3.027-8.86.304.176z" class="colorf34858 svgShape"></path><path fill="#a50b89" d="m41.258 8.648.015 7.104-4.295 2.48 3.027-8.861z" class="colore63044 svgShape"></path><path fill="#f4f6f8" d="M40.574 14.133c0 .492-.348 1.104-.785 1.355-.432.252-.786.048-.786-.45-.006-.497.348-1.109.78-1.36.437-.246.791-.049.791.455z" class="colore4e8f4 svgShape"></path><path fill="#f4f6f8" d="M48.687 19.835v.277l-.891.518.001-.277z" class="colorbac1ce svgShape"></path><path fill="#cad3dd" d="m47.797 20.353-.001.277-8.406-1.614.001-.277z" class="colorcad0dd svgShape"></path><path fill="#f960dd" d="m48.687 19.835-6.411-2.773-.233.136 6.411 2.773z" class="colorf9607f svgShape"></path><path fill="#d4dee8" d="m42.043 17.198-2.652 1.541 8.406 1.614.657-.382z" class="colord4dae8 svgShape"></path><path fill="#f960dd" d="m47.71 35.628-21.128-6.246-.602.35 21.128 6.246z" class="colorf9607f svgShape"></path></svg>