<svg xmlns="http://www.w3.org/2000/svg" viewBox="0 0 132 132" id="OnlineTeamCommunication"><path fill="#f4f6f8" d="M110.5 61.4c.3-.2.7-.1 1.1.1l11.6 6.7c.9.5 1.5 1.7 1.5 2.6v13.4c0 .5-.2.8-.4 1l4.5-2.6c.3-.2.5-.5.5-1V68.2c0-1-.7-2.1-1.5-2.6l-11.6-6.7c-.4-.2-.8-.3-1.1-.1l-4.6 2.6z" class="color9ad898 svgShape"></path><path fill="#a375ca" d="M111.6 61.5c-.8-.5-1.5-.1-1.5.9v13.4c0 1 .7 2.1 1.5 2.6l11.6 6.7c.8.5 1.5.1 1.5-.9V70.8c0-1-.7-2.1-1.5-2.6l-11.6-6.7z" class="color75ca75 svgShape"></path><path fill="#cad3dd" d="M87.9 48.4c.3-.2.7-.2 1.1.1l11.6 6.7c.8.5 1.5 1.7 1.5 2.6v13.4c0 .5-.2.8-.5 1l4.5-2.6c.3-.2.4-.5.4-1V55.2c0-1-.7-2.1-1.5-2.6l-11.6-6.7c-.4-.2-.8-.3-1.1-.1l-4.4 2.6z" class="colorcad0dd svgShape"></path><path fill="#d4dee8" d="M89 48.4c-.8-.5-1.5-.1-1.5.9v13.4c0 1 .7 2.2 1.5 2.6l11.6 6.7c.8.5 1.5.1 1.5-.9V57.7c0-1-.7-2.1-1.5-2.6L89 48.4z" class="colord4dae8 svgShape"></path><path fill="#f4f6f8" d="M65.3 35.3c.3-.2.7-.1 1.1.1L78 42.1c.9.5 1.5 1.7 1.5 2.6v13.4c0 .5-.2.8-.5 1l4.5-2.6c.3-.2.4-.5.5-1V42.1c0-1-.7-2.1-1.5-2.6l-11.6-6.7c-.4-.2-.8-.3-1.1-.1l-4.5 2.6z" class="color9ad898 svgShape"></path><path fill="#a375ca" d="M66.3 35.4c-.8-.5-1.5-.1-1.5.9v13.4c0 1 .7 2.1 1.5 2.6L77.9 59c.8.5 1.5.1 1.5-.9V44.7c0-1-.7-2.1-1.5-2.6l-11.6-6.7z" class="color75ca75 svgShape"></path><path fill="#6822a2" d="M4.9 72.5c-2.8 1.6-2.8 4.2 0 5.8l73.9 43c2.8 1.6 7.3 1.6 10 0l38.3-22.1c2.8-1.6 2.8-4.2 0-5.8l-73.9-43c-2.8-1.6-7.3-1.6-10 0L4.9 72.5z" class="color5b5e71 svgShape"></path><path fill="#514759" d="M2.8 75.5V83c0 1 .7 2.1 2 2.9l74 43c2.8 1.6 7.3 1.6 10 0l38.3-22.1c1.4-.8 2.1-1.9 2.1-2.9v-7.5c0 1.1-.7 2.1-2.1 2.9l-38.3 22.1c-2.8 1.6-7.2 1.6-10 0l-73.9-43c-1.4-.9-2.1-1.9-2.1-2.9z" class="color474b59 svgShape"></path><path fill="#f4f6f8" d="m120.8 94.4-40.3 23.2-67.9-39.5 40.2-23.3z" class="colorffffff svgShape"></path><path fill="#514759" d="M101.8 106.7c-1 .6-1 1.6 0 2.1 1 .6 2.7.6 3.7 0s1-1.6 0-2.1c-1-.6-2.6-.6-3.7 0zM22.3 68.2l1.5.9 13.4-7.8-1.5-.9z" class="color474b59 svgShape"></path><path fill="#bac4ce" d="M11 84.9c.2-.1.5-.1.8.1l8.1 4.7c.6.3 1.1 1.2 1.1 1.8 0 .3-.1.6-.3.7l.4-.3c.2-.1.3-.3.3-.7 0-.7-.5-1.5-1-1.9l-8.1-4.7c-.3-.2-.6-.2-.8-.1l-.5.4z" class="colorbac1ce svgShape"></path><path fill="#d4dee8" d="M11.8 84.9c-.6-.3-1.1-.1-1.1.6s.5 1.5 1.1 1.9l8.1 4.7c.6.3 1.1.1 1.1-.6s-.5-1.5-1.1-1.8l-8.1-4.8z" class="colord4dae8 svgShape"></path><path fill="#bac4ce" d="M23 92.1c.2-.1.5-.1.8.1l8.1 4.7c.6.3 1.1 1.2 1.1 1.8 0 .3-.1.6-.3.7l.4-.3c.2-.1.3-.3.3-.7 0-.7-.5-1.5-1-1.9l-8.1-4.7c-.3-.2-.6-.2-.8-.1l-.5.4z" class="colorbac1ce svgShape"></path><path fill="#d4dee8" d="M23.8 92.2c-.6-.3-1.1-.1-1.1.6s.5 1.5 1.1 1.9l8.1 4.7c.6.3 1.1.1 1.1-.6s-.5-1.5-1.1-1.8l-8.1-4.8z" class="colord4dae8 svgShape"></path><path fill="#bac4ce" d="m74.4 23.9 1.3-.8v14.7l-1.3.8zM97.6 37.2l1.2-.7v14.7l-1.3.7z" class="colorbac1ce svgShape"></path><path fill="#d4dee8" d="m72.7 20.9 1.3-.8 23.1 13.4-1.2.7z" class="colord4dae8 svgShape"></path><path fill="#bac4ce" d="m97.6 22.7 1.3-.7-.1 12.5-1.2.7z" class="colorbac1ce svgShape"></path><path fill="#4a3f53" d="m95.9 21.7 1.3-.7 1.7 1-1.3.7z" class="color3f4f53 svgShape"></path><path fill="#bac4ce" d="m120.7 48.6 1.3-.8-.1 16.7-1.3.7z" class="colorbac1ce svgShape"></path><path fill="#d4dee8" d="m97.6 35.2 1.2-.7L122 47.8l-1.3.8z" class="colord4dae8 svgShape"></path><path fill="#e4ecf4" d="M97.6 22.7v12.5l23.1 13.4-.1 16.6-1.7-.9.1-14.8-21.4-12.3-.1 14.7-1.7-1V36.2L74.4 23.9v14.7l-1.7-1V20.9l23.2 13.3V21.7z" class="colore4e8f4 svgShape"></path><path fill="#7d74fd" d="M88 4.7c.3-.2.7-.1 1.1.1l11.6 6.7c.8.5 1.5 1.6 1.5 2.6v13.4c0 .5-.2.8-.5 1l4.5-2.6c.3-.2.4-.5.4-1V11.5c0-1-.7-2.1-1.5-2.6L93.5 2.2c-.4-.2-.8-.3-1.1-.1L88 4.7z" class="color748bfd svgShape"></path><path fill="#6157fb" d="M89 4.8c-.8-.5-1.5-.1-1.5.9v13.4c0 1 .7 2.1 1.5 2.6l11.6 6.7c.8.5 1.5.1 1.5-.9V14.1c0-1-.7-2.1-1.5-2.6L89 4.8z" class="color576cfb svgShape"></path><path fill="#443644" d="M114.9 74c.2.5.5.9.8 1.3v.5l-.8-.5V74z" class="color363a44 svgShape"></path><path fill="#5046e4" d="M118.6 78.3c0 .2.1.4.1.5 0 1-.8 1.3-1.8.7-1-.6-1.8-1.8-1.8-2.8 0-.2 0-.3.1-.4l.4.3c0 .8.6 1.8 1.2 2.2h.1c.7.4 1.2 0 1.2-.8l.5.3z" class="color4562ef svgShape"></path><path fill="#4aa1f9" d="M118.2 76.7V78c0 .8-.6 1.1-1.2.8h-.1c-.7-.4-1.2-1.3-1.2-2.2V75.3c.4.5.8.9 1.3 1.1.4.3.8.4 1.2.3z" class="colorf9bb4a svgShape"></path><path fill="#7d74fd" d="m119.7 78.9.2.1c1.2.8 2.2 2.5 2.3 3.9l.1 1.7-10.8-6.2.1-1.6c.1-1.3 1.2-1.8 2.4-1.2l.1.1 1.1.6c0 .1-.1.3-.1.4 0 1 .8 2.2 1.8 2.8 1 .6 1.8.2 1.8-.7 0-.2 0-.3-.1-.5l1.1.6z" class="color748bfd svgShape"></path><path fill="#443644" d="M118.2 76.7c.4 0 .7-.2 1-.5v1.5l-1-.6v-.4z" class="color363a44 svgShape"></path><path fill="#7abcfe" d="M115.9 69.2s.1 0 .1.1c.4.3.7.7.8 1.2 0 .2.1.3.1.4.1.6.6 1.4 1 1.8.2.1.3.2.5.3.2.1.5.2.7.3v2.9c-.3.3-.6.5-1 .5s-.8-.1-1.3-.3c-.5-.3-.9-.7-1.3-1.1-.3-.4-.6-.8-.8-1.3V70.4c0-.5 0-1 .2-1.2.4-.2.7-.2 1 0z" class="colorfed57a svgShape"></path><path fill="#514759" d="M117 67.1c1.5.9 2.9 3.1 3.3 4.9.2.8.2 1.5.2 2.3v3.4c0 .5-.3.6-.7.4l-.5-.3v-4.4c-.2-.1-.5-.2-.7-.3-.2-.1-.3-.2-.5-.3-.5-.4-.9-1.2-1-1.8 0-.1 0-.2-.1-.4-.1-.5-.4-.9-.8-1.2l-.1-.1c-.3-.2-.6-.2-.8 0-.2.2-.2.7-.2 1.2v4.8l-.6-.4c-.4-.2-.7-.8-.7-1.2v-3.2c0-.8 0-1.7.2-2.3.1-1.4 1.5-1.9 3-1.1z" class="color474b59 svgShape"></path><path fill="#5c377b" d="M98.1 66.2c.5.3.9.9 1.1 1.5l1 4.1-11.5-6.7 1-2.9c.2-.4.6-.6 1.1-.3l2 1.2c-.2.2-.3.4-.2.8l.1.9c0 .1.1.3.2.3h.1l1.5-.1 1.4 1.8.1.1c.1.1.2 0 .2-.1l.1-.8c0-.3-.1-.7-.2-1l2 1.2z" class="color37617b svgShape"></path><path fill="#724c91" d="M95.6 64.4c.2.2.3.4.4.7.2.3.2.7.2 1l-.1.8c0 .1-.1.2-.2.1l-.1-.1-1.4-1.8-1.5.1h-.1c-.1-.1-.2-.2-.2-.3l-.1-.9c0-.3.1-.6.2-.8.2-.2.3-.2.5-.2 0 .8.5 1.7 1.2 2.1h.1c.5.4 1.1 0 1.1-.7z" class="color4c7891 svgShape"></path><path fill="#4aa1f9" d="M95.6 63.2V64.4c0 .8-.5 1.1-1.2.7h-.1c-.6-.4-1.1-1.3-1.2-2.1v-1.1c.4.4.8.8 1.2 1 .5.3.9.4 1.3.3z" class="colorf9bb4a svgShape"></path><path fill="#5d5266" d="M94.8 54.3c1.5.9 2.8 3 2.8 4.8v.2c0 .5-.1 1-.2 1.3-.1.3-.2.5-.2.5s0 .2-.1.2v-.1c-.1-.2-.1-.5-.2-.8-.1-.5-.2-1-.5-1.4-.5-.7-1-1.3-1.7-1.7l-.5-.3c-.6-.3-1.1-.8-1.5-1.5l-.2.2c-.5.5-.8.8-.8 1.8v.4c0-.2-.1-.5-.2-.8 0-.1 0-.2-.1-.4-.1-.8-.2-1.5 0-2.2 0-.2.1-.4.2-.6.1-.1.2-.1.3-.1.1.1.2.2.3.4.5-.6 1.6-.5 2.6.1z" class="color525566 svgShape"></path><path fill="#7abcfe" d="M92.6 55.4c.4.6 1 1.2 1.5 1.5l.5.3c.6.4 1.2 1 1.7 1.7.3.5.4 1 .5 1.4 0 .3.1.6.2.8v.1c.1 0 .1-.2.1-.2s.1-.2.2-.5c.1.2.2.6.2.8 0 .5-.3.7-.6.5-.3.7-.7 1.2-1.3 1.3-.4.1-.8 0-1.2-.3-.4-.2-.8-.6-1.2-1-.6-.8-1.1-1.8-1.4-2.9-.3-.2-.6-.7-.6-1.2 0-.4.1-.6.3-.7.1.3.1.6.2.8v-.4c0-1 .3-1.3.8-1.8.1-.1.1-.2.1-.2z" class="colorfed57a svgShape"></path><path fill="#f960dd" d="m94.8 23 .1.2.2 2-1-.6.2-1.8h.1zM94.9 22.3l.1.2-.1.4h-.1l-.4-.2-.1-.2-.2-.5.1-.1z" class="colorf9607f svgShape"></path><path fill="#443644" d="M95.8 20.8c.1.2.3.4.4.6 0 0 0 .1.1.1.4.6.7 1.3 1.2 2.2h-.8l.9 1.1-1.2 1.2-.4-.3-.8-.4.5-2.2.2-.9c.1-.3.1-.6 0-.9 0-.1 0-.2-.1-.2V20.8z" class="color363a44 svgShape"></path><path fill="#e4ecf4" d="M93.4 19.6c.1.7.6 1.4 1.1 1.8h.1c.5.3 1 .1 1.1-.5l.1.1c0 .1.1.2.1.2.1.3.1.6 0 .9l-.2.9-1.1-1.4-1.1.2-.2-1.1c-.1-.3-.1-.6 0-.9 0-.1.1-.1.1-.2z" class="colore4e8f4 svgShape"></path><path fill="#89497d" d="M97.5 18.3c-.2.7-.5 1.2-1 1.5.5-.2.8-.7 1-1.5z" class="color896349 svgShape"></path><path fill="#443644" d="M93.4 19.4v.1c0 .1-.1.1-.1.2-.1.2-.1.5 0 .9l.2 1.1.5 2.8-.8-.4-.5-.3-1.1-2.4.9-.1-.8-1c.5-.3.9-.6 1.2-.8h.1c.1 0 .3 0 .4-.1z" class="color363a44 svgShape"></path><path fill="#89497d" d="M91.7 15c.2.9.5 1.8 1 2.6-.5-.7-.8-1.7-1-2.6z" class="color896349 svgShape"></path><path fill="#4aa1f9" d="M95.8 20.1v1c-.1.6-.6.8-1.1.5h-.1c-.5-.3-1-1-1.1-1.8v-1l.1.1.1.1.1.1.1.1.1.1.1.1.1.1.1.1.1.1.1.1.1.1s.1 0 .1.1c0 0 .1 0 .1.1h1c-.1 0 0 0 0 0z" class="colorf9bb4a svgShape"></path><path fill="#7abcfe" d="M93.1 12.3c.2.1.5.4.7.5.5.4 1 .8 1.6 1.1.1.1.2.1.3.2.2.1.3.2.5.3.3.2.5.5.7.8.1.3.2.6.2.9.1.8.1 1.6.2 2.3.3-.4.5-.9.6-1.5.2.3.3.6.3.9 0 .5-.3.7-.6.6-.2.7-.5 1.2-1 1.5H94.9c-.1 0-.1 0-.1-.1 0 0-.1 0-.1-.1 0 0-.1 0-.1-.1l-.1-.1c-.1 0-.1-.1-.1-.1l-.1-.1-.1-.1-.1-.1-.1-.1-.1-.1-.1-.1-.1-.1-.1-.1-.1-.1-.1-.1v-.1s0-.1-.1-.1v-.1s0-.1-.1-.1c0 0 0-.1-.1-.1 0 0 0-.1-.1-.1l-.1-.1-.1-.1c-.5-.8-.8-1.7-1-2.6-.3-.2-.6-.8-.6-1.2 0-.3.1-.5.2-.6.1.7.3 1.4.5 2.2.2-.9.3-1.8.5-2.6 0-.2.1-.4.2-.5.2-.2.3-.1.5 0z" class="colorfed57a svgShape"></path><path fill="#5d5266" d="M93.7 10.1c.1.1.3.2.4.2.4.3.9.6 1.3 1s.9.7 1.3 1.2.7 1 1 1.6c.3.7.3 1.4.3 2 0 .3 0 .5-.1.7-.1.6-.3 1.1-.6 1.5-.1-.8-.1-1.6-.2-2.3 0-.3-.1-.6-.2-.9-.1-.3-.4-.6-.7-.8-.2-.1-.3-.2-.5-.3-.1-.1-.2-.1-.3-.2-.5-.3-1.1-.7-1.6-1.1-.2-.2-.5-.4-.7-.5-.2-.1-.3-.1-.5-.1-.1.1-.2.3-.2.5-.2.9-.3 1.8-.5 2.6-.2-.7-.4-1.5-.5-2.2-.1-.5-.1-1.1-.1-1.6 0-.3.1-.7.2-.9.2-.2.5-.2.8 0h.1c-.1-.3 0-.6.1-.8.2-.1.4-.1.7 0 .2.3.3.3.5.4z" class="color525566 svgShape"></path><path fill="#cad3dd" d="m94.6 21.6 1.1 1.4-.5 2.2h-.1l-.2-2-.1-.2-.4-.3h-.1l-.2 1.8H94l-.5-2.8 1.1-.1zm.3 1.3.1-.4-.1-.2-.7-.4-.1.1.1.5.1.1.6.3" class="colorcad0dd svgShape"></path><path fill="#010001" d="M98.3 22.6c.5.3.9.9 1.1 1.5l1 4.1-11.6-6.7 1-2.9c.2-.5.6-.6 1.1-.3l2.1 1.2h-.1c-.4.2-.7.5-1.2.8l.8 1-.9.1 1.1 2.4.5.3 2.7 1.6.5.3 1.1-1.1-.9-1.1h.8c-.5-.9-.8-1.6-1.2-2.2 0 0 0-.1-.1-.1l2.2 1.1z" class="color243039 svgShape"></path><path fill="#7abcfe" d="M73.4 45c.1.1 1.2 1.5 1.1 3.4 0 .1.1 2.4-1.2 2.6-.5 0-.9-.2-1.4-.4-.5-.3-.9-.6-1.3-1.2-.2-.2-1.7-2.9-.7-4 0 0 .4-.3 1.3 0 .6.2 1.2.3 1.7.1.2-.1.4-.2.5-.5z" class="colorfed57a svgShape"></path><path fill="#f348d4" d="M73.3 51.8c2.2 1.3 4 4.3 4 6.9l-10.6-6.1c0-1.3.5-2.1 1.2-2.5.7-.4 1.7-.4 2.7.2v.6c0 .9.6 1.9 1.4 2.4.4.2.7.2 1 .1.2-.1.4-.5.4-.9l-.1-.7z" class="colorf34858 svgShape"></path><path fill="#4aa1f9" d="M73.3 51v1.4c0 .4-.2.7-.4.9-.3.1-.6.1-1-.1-.8-.4-1.4-1.5-1.4-2.4v-1.4c.4.5.9.9 1.3 1.2.5.2 1 .4 1.5.4z" class="colorf9bb4a svgShape"></path><path fill="#514759" d="M71.6 41.1c1.2.7 1.9 2.1 1.9 2.1 3 1.9 2 6.2 1.9 6.4-.3 1.4.9 2.9.9 3-.7.1-1.3-.1-1.8-.4-.7-.4-1.2-1-1.3-1.1 1.3-.2 1.2-2.5 1.2-2.7.1-1.9-1-3.3-1.1-3.4 0 .3-.3.4-.5.5-.5.2-1.1.1-1.7-.1-.9-.3-1.3 0-1.3 0-1 1.1.5 3.7.7 4-.7-.1-1.2-.4-1.6-.6-1-.6-1.2-1.2-1.2-1.2 1.4-.3 1.2-1.7 1.2-1.8-.9-4.1.5-4.7.5-4.7.8-.5 1.6-.4 2.2 0z" class="color474b59 svgShape"></path><path fill="#a50b89" d="m12.8 64.1-2.9-1.6v-7.4l2.9 1.7z" class="colore63044 svgShape"></path><path fill="#f960dd" d="M52.9 12.4c-.1 0-.3 0-.5.1L9.9 37c-.5.3-.9 1-.9 1.5l.1 19.4c0 .3.1.5.3.6l-2.9-1.6c-.1-.1-.2-.3-.2-.6l-.2-19.4c0-.5.4-1.2.9-1.5l42.6-24.6c.2-.1.5-.1.6-.1l2.7 1.7z" class="colorf9607f svgShape"></path><path fill="#f348d4" d="M52.4 12.5c.5-.3.9-.1.9.5l.1 19.4c0 .6-.4 1.2-.9 1.5L19.2 53.1l-6.4 11.1v-7.4l-2.9 1.6c-.5.3-.9.1-.9-.5V38.5c0-.5.4-1.2.9-1.5l42.5-24.5z" class="colorf34858 svgShape"></path><path fill="#f4f6f8" d="M51.1 23.6v1.1L23.3 40.8v-1.2zM51.1 20.1v1.2l-27.8 16v-1.1zM51.1 16.7v1.2l-27.8 16v-1.1zM51.1 27v1.1L23.3 44.2V43zM40.9 36.3v1.1L23.3 47.6v-1.1zM15.9 38.1c3.1-1.8 5.5-.3 5.6 3.2 0 3.5-2.5 7.8-5.5 9.6-3.1 1.8-5.5.3-5.6-3.2 0-3.6 2.5-7.9 5.5-9.6z" class="colorffffff svgShape"></path><path fill="#724c91" d="M15.9 39.7c.9-.5 1.7-.1 1.7 1s-.7 2.4-1.7 2.9c-.9.5-1.7.1-1.7-1s.8-2.4 1.7-2.9zM15.9 44.3c1.7-1 3.1-.2 3.1 1.8l-6.2 3.6c0-2 1.4-4.4 3.1-5.4z" class="color4c7891 svgShape"></path><path fill="#d4dee8" d="m18.4 79 1.8 1 19.5-11.3-1.8-1z" class="colord4dae8 svgShape"></path><path fill="#7d74fd" d="M47.4 89.4c-1.6.9-1.6 2.4 0 3.3 1.6.9 4.1.9 5.7 0 1.6-.9 1.6-2.4 0-3.3-1.5-.9-4.1-.9-5.7 0z" class="color748bfd svgShape"></path><path fill="#d4dee8" d="m51.1 98 1.8 1 19.5-11.3-1.8-1z" class="colord4dae8 svgShape"></path><path fill="#7d74fd" d="M57.2 83.7c-1.6.9-1.6 2.4 0 3.3 1.6.9 4.1.9 5.7 0 1.6-.9 1.6-2.4 0-3.3-1.6-.9-4.1-.9-5.7 0z" class="color748bfd svgShape"></path><path fill="#d4dee8" d="m61.5 104 1.8 1.1 19.6-11.3-1.8-1.1z" class="colord4dae8 svgShape"></path><path fill="#7d74fd" d="m73.3 83.9 12.6 7.3 12.7-7.3-12.7-7.3z" class="color748bfd svgShape"></path><path fill="#d4dee8" d="m56.3 101 1.8 1 19.6-11.3-1.8-1z" class="colord4dae8 svgShape"></path><path fill="#f960dd" d="m89 93.1 12.7 7.3 12.6-7.3-12.6-7.3z" class="colorf9607f svgShape"></path><path fill="#d4dee8" d="m66.8 107.1 1.8 1 19.5-11.3-1.8-1zM72 110.1l1.8 1 19.5-11.3-1.8-1zM77.2 113.1l1.8 1.1 19.6-11.3-1.8-1.1z" class="colord4dae8 svgShape"></path><path fill="#f960dd" d="M48.9 62.4c-1.4.8-1.4 2.1 0 2.9 1.4.8 3.6.8 4.9 0s1.4-2.1 0-2.9c-1.4-.8-3.6-.8-4.9 0zM54.2 65.5c-2.3 1.3-2.3 3.5 0 4.9l8.4-4.9c-2.3-1.4-6.1-1.4-8.4 0z" class="colorf9607f svgShape"></path><path fill="#d4dee8" d="M60.9 61.5c3.7 2.2 3.7 5.7 0 7.9s-9.8 2.2-13.6 0c-3.7-2.2-3.7-5.7.1-7.8 3.7-2.3 9.8-2.3 13.5-.1zm1.7 4c-2.3-1.3-6.1-1.3-8.4 0-2.3 1.3-2.3 3.5 0 4.9l8.4-4.9m-13.7-3.1c-1.4.8-1.4 2.1 0 2.9 1.4.8 3.6.8 4.9 0 1.4-.8 1.4-2.1 0-2.9-1.4-.8-3.6-.8-4.9 0M23.6 82l1.8 1L45 71.7l-1.8-1z" class="colord4dae8 svgShape"></path><path fill="#f4f6f8" d="M57.5 74.7 70.1 82l12.7-7.3-12.6-7.3z" class="color9ad898 svgShape"></path><path fill="#7d74fd" d="M49 79c-1.6.9-1.6 2.4 0 3.3 1.6.9 4.1.9 5.7 0 1.6-.9 1.6-2.4 0-3.3-1.5-.9-4.1-.9-5.7 0z" class="color748bfd svgShape"></path><path fill="#d4dee8" d="m28.8 85 1.8 1.1 19.6-11.3-1.8-1.1z" class="colord4dae8 svgShape"></path><path fill="#7d74fd" d="M39.3 84.6c-1.6.9-1.6 2.4 0 3.3 1.6.9 4.1.9 5.7 0 1.6-.9 1.6-2.4 0-3.3-1.6-.9-4.1-.9-5.7 0z" class="color748bfd svgShape"></path></svg>