<svg xmlns="http://www.w3.org/2000/svg" enable-background="new 0 0 110 110" viewBox="0 0 110 110" id="IntelligentRobot"><path fill="#f4f6f8" d="M41.2776413,87.5149689c7.3378868,4.2365341,19.2477989,4.2393875,26.5379944,0.0027924
				c7.2952423-4.2395325,7.2514038-11.1381989-0.0864792-15.3747253c-7.342968-4.2394714-19.2478714-4.2394104-26.5431137,0.0001221
				C33.8958473,76.3797531,33.9346733,83.2755051,41.2776413,87.5149689" class="colorffde9b svgShape"></path><path fill="#dbe0e6" d="M71.2585526 96.1982117l-10.5230064-6.0754166v.8091431l9.6065941 5.546463-3.046875 5.3356857c-.0989456.1731644.097229.3212128.3153992.3629227.2600861.0506439.5403824-.030983.6262283-.1811295l3.142601-5.5037079C71.4389038 96.3885574 71.3919296 96.275177 71.2585526 96.1982117zM90.7546997 86.0436172c-.1290283-.074707-.3242188-.1051025-.5084229-.0693359l-9.2010498 1.7819824-7.425293-4.2869873v.8092041l6.9447021 4.0095215c.1334229.0770264.3292236.1038818.5076904.0690918l9.491333-1.8381348C90.9189529 86.4499741 91.0106735 86.1908112 90.7546997 86.0436172zM89.9775467 98.7392349L69.8073044 87.0939178v.8092499L89.2789078 99.145134c.1946793.1123886.5080719.1123886.7009735.0003357C90.1726685 99.0333023 90.172226 98.8516159 89.9775467 98.7392349z" class="colordbdfe6 svgShape"></path><path fill="#ff61e2" d="M66.4771957,102.7339783c0.6152725,0.3546982,1.60746,0.3546982,2.2227631,0
							c0.609726-0.3547592,0.6041718-0.9312592-0.0110931-1.286026c-0.6152725-0.3546906-1.6074982-0.3546906-2.2172165,0
							C65.8619232,101.8027191,65.8619232,102.3792191,66.4771957,102.7339783z" class="colorff6161 svgShape"></path><path fill="#5a4fff" d="M88.3121948,99.4267349c0.6152725,0.3546982,1.60746,0.3546982,2.2227631,0
							c0.609726-0.3547592,0.6041718-0.9312592-0.0110931-1.286026c-0.6152725-0.3546906-1.6074982-0.3546906-2.2172165,0
							C87.6969223,98.4954758,87.6969223,99.0719757,88.3121948,99.4267349z" class="color4f91ff svgShape"></path><path fill="#6822a2" d="M89.6206131,86.8196945c0.6152725,0.3546982,1.60746,0.3546982,2.2227631,0
							c0.609726-0.3547592,0.6041794-0.9312592-0.0110931-1.286026c-0.6152725-0.3546906-1.6074982-0.3546906-2.2172165,0
							C89.0053482,85.8884354,89.0053482,86.4649353,89.6206131,86.8196945z" class="color4f575f svgShape"></path><path fill="#dbe0e6" d="M37.1315231 96.4784012l8.2571793-4.7673111v-.8092499l-9.1735954 5.2963715c-.1333733.0769653-.1803513.1903458-.1209373.2939606l3.142601 5.5037079c.0858421.1501465.3661423.2317734.6262321.1811295.2160492-.0412979.4149742-.188652.3153915-.3629227L37.1315231 96.4784012zM71.4965363 78.1699982l8.5858383-4.956955 9.2010803 1.7820053c.213089.0415192.5273895-.0067825.6283417-.1812363.0879593-.1503677-.0519714-.3130569-.3109512-.3633652l-9.4913712-1.8382034c-.1785812-.034874-.3742523-.0079956-.5077438.0690689l-8.1051941 4.6795502V78.1699982z" class="colordbdfe6 svgShape"></path><path fill="#766ef2" d="M88.6577606,74.149704c0.6152802-0.3546906,1.6074753-0.3546829,2.2227783,0.0000153
									c0.609726,0.3547668,0.6041794,0.9312592-0.0110931,1.2860184
									c-0.6152725,0.3546982-1.6075058,0.3546906-2.2172318-0.0000076
									C88.0424881,75.0809631,88.0424881,74.5044708,88.6577606,74.149704z" class="colora46ef2 svgShape"></path><path fill="#dbe0e6" d="M37.0266724,75.4802628l-4.8479004-2.7989502
									c-0.1334229-0.0771484-0.3291016-0.1040039-0.5075684-0.0690918l-9.4914551,1.8381348
									c-0.2590332,0.050415-0.3989258,0.2131348-0.3110352,0.3635254c0.1006889,0.1733017,0.4127445,0.2231979,0.628418,0.1811523
									l9.2011719-1.7819824l4.9492188,2.8574219C36.7590942,75.864418,36.8864136,75.6680069,37.0266724,75.4802628z" class="colordbdfe6 svgShape"></path><path fill="#766ef2" d="M23.1228256,74.149704c-0.6152744-0.3546906-1.6074715-0.3546829-2.2227783,0.0000153
									c-0.609726,0.3547668-0.6041775,0.9312592,0.011097,1.2860184c0.6152725,0.3546982,1.6075058,0.3546906,2.2172298-0.0000076
									C23.7380981,75.0809631,23.7380981,74.5044708,23.1228256,74.149704z" class="colora46ef2 svgShape"></path><path fill="#dbe0e6" d="M33.7632446 82.4300919l-5.6362305 3.2541504-9.2009277-1.7819824c-.184082-.0358887-.3793945-.0053711-.5084229.0690918-.2611885.150795-.1571217.4078598.19104.4754639l9.4912109 1.8382568c.1787109.03479.3742676.0079346.5078125-.0690918l5.4389648-3.1403809C33.9382935 82.8673477 33.8425903 82.6522598 33.7632446 82.4300919zM38.8155441 86.2371368L18.5996571 98.102005c-.1946774.1123886-.1951218.2942963-.0023327.4062347.1928997.1121674.5062943.1121674.7009716-.0002213l19.5172482-11.460968V86.2371368z" class="colordbdfe6 svgShape"></path><path fill="#ff61e2" d="M40.9964676,102.7339783c-0.6152687,0.3546982-1.6074638,0.3546982-2.2227669,0
							c-0.6097183-0.3547592-0.6041718-0.9312592,0.011097-1.286026c0.6152725-0.3546906,1.6074982-0.3546906,2.2172165,0
							C41.6117363,101.8027191,41.6117363,102.3792191,40.9964676,102.7339783z" class="colorff6161 svgShape"></path><path fill="#5a4fff" d="M20.2650013,98.7896042c-0.6152706,0.3546982-1.6074619,0.3546982-2.222765,0
							c-0.6097221-0.3547592-0.6041737-0.9312592,0.011097-1.2860184c0.6152687-0.3546982,1.6074944-0.3546982,2.2172165,0
							C20.88027,97.858345,20.88027,98.434845,20.2650013,98.7896042z" class="color4f91ff svgShape"></path><path fill="#6822a2" d="M19.5517273,84.7475739c-0.6152687,0.3546982-1.6074619,0.3546982-2.222765,0
							c-0.6097221-0.3547592-0.6041737-0.9312592,0.011097-1.286026c0.6152687-0.3546906,1.6074963-0.3546906,2.2172165,0
							C20.166996,83.8163147,20.166996,84.3928146,19.5517273,84.7475739z" class="color4f575f svgShape"></path><path fill="#71b4f8" d="M39.2286301,12.4136286V23.059927c11.7361145-2.9516335,25.488472-2.4245262,36.538765,1.6021214
			V14.0042562C64.7143021,9.9818058,50.9621925,9.4582253,39.2286301,12.4136286z" opacity=".4" class="color71d8f8 svgShape"></path><path fill="#95c9fe" d="M39.2286301,12.4136286c11.7335625-2.9554033,25.485672-2.4318228,36.538765,1.5906277v-0.3345814
			c-11.0825195-3.9644976-24.7942581-4.4717808-36.538765-1.5532284V12.4136286z" class="color95e2fe svgShape"></path><path fill="#3c9dff" d="M62.492733,85.9447784c-4.3850441,2.5556488-11.5006866,2.528801-15.9124947-0.0269241
				c-4.411972-2.5557251-4.4389-6.6448059-0.0538559-9.1870728c4.3850441-2.5556412,11.4602928-2.5556412,15.8721008,0
				C66.8104553,79.2730484,66.891243,83.3890533,62.492733,85.9447784z" opacity=".4" class="colorffb63c svgShape"></path><path fill="#ff0dd3" d="M59.3878403,84.1520538c-2.68116,1.5625992-7.0318947,1.5461884-9.7294197-0.0164642
				c-2.6976242-1.5626602-2.7140884-4.062851-0.0329285-5.6172791c2.6811562-1.5625992,7.0071945-1.5625992,9.7047195,0
				C62.0278358,80.0727386,62.0772324,82.5893936,59.3878403,84.1520538z" opacity=".4" class="colorffa20d svgShape"></path><path fill="#4239c9" d="M73.259903,79.8844833l-0.0110397,3.8900986
								c0.0079575-2.8025589-1.8375397-5.6091843-5.5307388-7.7414551
								c-7.3429642-4.2394638-19.2478676-4.2394104-26.5431099,0.0001221
								c-3.6209908,2.1042862-5.4338799,4.8646011-5.4417191,7.6296082l0.0110168-3.8900833
								c0.0078506-2.7650146,1.8207397-5.5253296,5.4417305-7.6296158
								c7.2952423-4.2395325,19.2001457-4.2395935,26.5431137-0.0001221
								C71.422348,74.2752991,73.2678452,77.0819321,73.259903,79.8844833z" class="color39c988 svgShape"></path><path fill="#4239c9" d="M76.985817,79.8946457l-0.0098801,3.4819794
								c-0.0093918,3.3152618-2.1834641,6.625473-6.5266113,9.149437
								c-8.7381401,5.0780487-23.0094833,5.0780716-31.8092842-0.0024948
								c-4.4276962-2.5563278-6.6382027-5.9185486-6.6286888-9.2753601l0.0098724-3.4819717
								c-0.0095177,3.3568039,2.2009926,6.7190247,6.6286888,9.2753525
								c8.7998009,5.0805664,23.0711441,5.0805435,31.8092842,0.0024948
								C74.8023376,86.5201187,76.9764175,83.2099152,76.985817,79.8946457z" class="color39c988 svgShape"></path><path fill="#2864af" d="M70.459198,89.044075c-5.3494034,3.1087952-12.7705307,4.3045349-19.7425308,3.6064987v3.4827881
								c6.9691048,0.6960297,14.385704-0.4999695,19.7327118-3.6072464c4.3430481-2.5240097,6.5170822-5.8342667,6.5266495-9.149437
								l0.0098114-3.4820404C76.9764023,83.2098083,74.8023682,86.520195,70.459198,89.044075z" class="color28af6e svgShape"></path><path fill="#5349e4" d="M70.3554611,70.6163406c8.7997971,5.0805664,8.8463287,13.3470993,0.1037369,18.427742
								c-8.7381401,5.0780487-23.0094833,5.0780716-31.8092842-0.0024948
								c-8.7998524-5.0805969-8.841856-13.3444366-0.1037178-18.4224854
								C47.2887917,65.5384598,61.5556107,65.5357437,70.3554611,70.6163406z M41.2776413,87.5149689
								c7.3378868,4.2365341,19.2477989,4.2393875,26.5379944,0.0027924
								c7.2952423-4.2395325,7.2514038-11.1381989-0.0864792-15.3747253
								c-7.342968-4.2394714-19.2478714-4.2394104-26.5431137,0.0001221
								C33.8958473,76.3797531,33.9346733,83.2755051,41.2776413,87.5149689" class="color49e4a3 svgShape"></path><g fill="#0c2340" class="color000000 svgShape"><path fill="#bbd5ef" d="M74.2197723,40.027256c2.530632,1.0531349,3.7298431,3.9620018,2.6767044,6.4926338
							c-1.0612259,2.5500526-3.9936523,3.716629-6.4925842,2.6766853c-2.5306396-1.0531387-3.7231674-3.9591255-2.6700287-6.4897575
							C68.7787781,40.1959534,71.6742859,38.9679375,74.2197723,40.027256z" class="colorbbcfef svgShape"></path><path fill="#cbdff4" d="M72.190094,41.4506073c3.1419373,1.3075333,4.0379868,5.3069077,1.8618774,7.8071785
							c-1.1401672,0.4311638-2.4365921,0.4429588-3.6448364-0.0598602c-2.530632-1.0531387-3.7231293-3.9592094-2.6699905-6.4898415
							c0.2039185-0.4899979,0.4760742-0.9358368,0.814827-1.3146439
							C69.6854553,40.9594994,70.9751282,40.9449921,72.190094,41.4506073z" class="colorcbdbf4 svgShape"></path><path fill="#6822a2" d="M76.4108047,44.0197716c0.2736588,0.5578384,0.2059402,1.4271088-0.1509399,1.9413376
										c-0.3537598,0.5126076-0.8610077,0.4853821-1.13797-0.0731125
										c-0.4189911-0.8540573,0.0012054-2.3038559,0.7181854-2.3075676
										C76.0578003,43.5788612,76.2657547,43.7260437,76.4108047,44.0197716z" class="color4f575f svgShape"></path><path fill="#5349e4" d="M76.0603943,44.0058212l9.9875946,1.1951981
								c0.5282211,0.0617447,0.8864059,0.5493813,0.8118286,1.0353394
								c-0.0576706,0.5029755-0.5233536,0.8673172-1.0353394,0.8119507l-9.9876175-1.1953049
								C75.1467361,45.7695313,75.3702774,43.9223518,76.0603943,44.0058212z" class="color49e4a3 svgShape"></path><path fill="#cbdff4" d="M92.8704605,45.9681206c0.1252136,2.5819664-8.4715652,2.7252388-10.1607895,2.5438499
							c-0.4495392-0.0479469-1.7492142-0.2672653-2.597908-1.1941528c-0.5139923-0.5616646-0.8515091-1.3801384-0.7364731-2.5755997
							c0,0,0.5135422-2.9680557,3.0204163-2.6203308C84.94104,42.4805222,92.7434082,43.3918152,92.8704605,45.9681206z" class="colorcbdbf4 svgShape"></path><path fill="#dbeafa" d="M90.5178375,43.8502617c0.3458481,0.3177567,0.5436554,0.6783295,0.5604858,1.0764999
							c0.1220779,2.5892563-8.4641037,2.7282372-10.1533661,2.5469398
							c-0.1741638-0.0203705-0.4686661-0.0647163-0.8131943-0.1558838
							c-0.5139923-0.5616646-0.8515091-1.3801384-0.7364731-2.5755997c0,0,0.5135422-2.9680557,3.0204163-2.6203308
							C84.0381165,42.353302,87.9742432,42.8178406,90.5178375,43.8502617z" class="colordbe6fa svgShape"></path><path fill="#6822a2" d="M60.8827171,74.92556l-0.0038071,4.1853256
								c-0.0026207,0.924469-0.6100388,1.8475342-1.8234787,2.5527115
								c-2.4438248,1.4201965-6.4186592,1.4202118-8.8772125,0.0007629
								c-1.2378044-0.7146454-1.8560066-1.6526794-1.8533516-2.5892868l0.0038071-4.185318
								c-0.002655,0.9366074,0.615551,1.8746414,1.8533516,2.5892868c2.4585533,1.4194489,6.4333916,1.419426,8.8772125-0.0007706
								C60.2726784,76.7731018,60.8800964,75.850029,60.8827171,74.92556z" class="color4f575f svgShape"></path><path fill="#f4f6f8" d="M59.0303001,72.3369827c2.4585533,1.4194489,2.4715157,3.7218246,0.0289383,5.1412888
								c-2.443821,1.4201965-6.4186592,1.4202194-8.8772125,0.0007706
								c-2.4598083-1.4201736-2.4727516-3.7225342-0.0289268-5.1427307
								C52.5956726,70.9168396,56.5704918,70.9168167,59.0303001,72.3369827z" class="colorebf2ff svgShape"></path><path fill="#dbeafa" d="M71.4969101,48.8440742c0,6.0101852-4.5101242,30.0605202-16.8974457,30.0605202
					c-2.8877602,0-5.4080734-1.4796295-7.5406342-3.7959137c-0.0102158-0.0102158-0.0204277-0.0102158-0.0204277-0.0102158
					c-6.2243004-6.7547913-9.3263016-20.642292-9.3263016-26.2543907c0-5.9997215,7.5610619-10.8669624,16.8873634-10.8669624
					c4.2549095,0,8.1426201,1.01017,11.1118393,2.6834831C69.2622147,42.6504135,71.4969101,45.5789032,71.4969101,48.8440742z" class="colordbe6fa svgShape"></path><path fill="#f4f6f8" d="M67.9154892,46.027813c0,5.9999695-4.5102539,30.0605202-16.8873596,30.0605202
					c-1.4082565,0-2.7346764-0.3468933-3.9692993-0.9796524c-0.0102158-0.0102158-0.0204277-0.0102158-0.0204277-0.0102158
					c-6.2243004-6.7547913-9.3263016-20.642292-9.3263016-26.2543907c0-5.9997215,7.5610619-10.8669624,16.8873634-10.8669624
					c4.2549095,0,8.1426201,1.01017,11.1118393,2.6834831C67.1195602,42.2422371,67.9154892,44.0789719,67.9154892,46.027813z" class="colorebf2ff svgShape"></path><path fill="#bbd5ef" d="M44.2817764,56.1907578c0,2.7410164-2.2248306,4.9658012-4.9658432,4.9658012
						c-2.7620506,0-4.9657593-2.2591248-4.9657593-4.9658012c0-2.7410126,2.2247429-4.9585228,4.9657593-4.9585228
						C42.0355339,51.232235,44.2817764,53.4336662,44.2817764,56.1907578z" class="colorbbcfef svgShape"></path><path fill="#cbdff4" d="M42.1878548,54.8637505c0,3.4031372-3.348114,5.7670212-6.4925575,4.7185822
						c-0.836132-0.8869858-1.3451233-2.0793686-1.3451233-3.3880577c0-2.7410126,2.2248344-4.9585228,4.965847-4.9585228
						c0.530735,0,1.046917,0.0799637,1.5267982,0.2471733C41.6789513,52.3626785,42.1878548,53.5477829,42.1878548,54.8637505z" class="colorcbdbf4 svgShape"></path><path fill="#6822a2" d="M41.437542,59.7475891c-0.409874,0.4669838-1.2384377,0.7384453-1.8503151,0.6065331
									c-0.6091805-0.1296577-0.7789345-0.6084251-0.3697205-1.0787086
									c0.6275177-0.7149696,2.1274757-0.8840637,2.4063759-0.2235413
									C41.7089806,59.2522774,41.6529961,59.5008163,41.437542,59.7475891z" class="color4f575f svgShape"></path><path fill="#5349e4" d="M41.3157921,59.4187202l2.7338982,9.6801567c0.1090393,0.3820953-0.036869,0.7792435-0.3360405,1.0005035
							c-0.5226326,0.386528-1.2705765,0.1296997-1.4553299-0.4971008l-2.7338104-9.6802292
							C39.336422,59.2528343,41.1277046,58.7495003,41.3157921,59.4187202z" class="color49e4a3 svgShape"></path><ellipse cx="54.635" cy="44.721" fill="#6822a2" rx="8.06" ry="13.916" transform="rotate(-89.838 54.635 44.72)" class="color4f575f svgShape"></ellipse><path fill="#dbeafa" d="M72.5364685,33.2889824c0,9.9407959-8.0682373,18.0082207-18.017643,18.0082207
						c-9.9528503,0-18.0174141-8.0553665-18.0174141-18.0082207c0-8.4367714,5.785675-15.5060387,13.5990715-17.4780121
						C61.3371429,12.9278107,72.5364685,21.4421272,72.5364685,33.2889824z" class="colordbe6fa svgShape"></path><path fill="#f4f6f8" d="M72.5364685,33.2889824c0,6.8833351-3.86026,12.8644257-9.5436249,15.8875008
						c-11.2376137,2.8825035-22.4266777-5.6330261-22.4266777-17.4687557c0-6.8833351,3.8603745-12.8737354,9.534317-15.8967562
						C61.3371429,12.9278107,72.5364685,21.4421272,72.5364685,33.2889824z" class="colorebf2ff svgShape"></path><path fill="#cbdff4" d="M57.7926865,16.7102699l-0.0019836,1.013485
									c-0.0013657,0.4818573-0.3179703,0.9629879-0.9504471,1.3305435
									c-1.2737885,0.7402439-3.3455772,0.7402534-4.6270447,0.0003986
									c-0.6451759-0.3724918-0.9673996-0.8614216-0.9660149-1.3496056l0.0019836-1.013483
									c-0.0048065,1.6958847,3.5501938,2.5363903,5.5930595,1.349205
									C57.4747162,17.6732578,57.7913208,17.1921272,57.7926865,16.7102699z" class="colorcbdbf4 svgShape"></path><path fill="#bbd5ef" d="M57.7881546,16.7096748v1.0190964c0,0.4808254-0.3206406,0.9619293-0.9503288,1.3282795
									c-1.2711105,0.7328396-3.3435478,0.7328396-4.6259804,0v-1.0190964c1.2824326,0.7441597,3.3548698,0.7441597,4.6259804,0
									C57.4789734,17.6714649,57.7881546,17.1906395,57.7881546,16.7096748z" class="colorbbcfef svgShape"></path><path fill="#ffffff" d="M56.8271561,15.3610344c1.2814674,0.7398529,1.2882195,1.9399128,0.0150833,2.6797791
									c-1.2737846,0.7402439-3.3455772,0.7402534-4.6270409,0.0003986
									c-1.2821198-0.7402325-1.288868-1.9402866-0.0150795-2.6805296
									C53.4732552,14.6208162,55.5450363,14.6208019,56.8271561,15.3610344z" class="colorffffff svgShape"></path><path fill="#6822a2" d="M55.5463829,10.5458698l-0.0006218,6.0232811
									c-0.0004272,0.1511269-0.0997276,0.3020267-0.2980919,0.417305
									c-0.6259918,0.3637848-1.7557144,0.1188602-1.7541771-0.4231586l0.0006218-6.0232811
									C53.4919281,11.3118715,55.5441437,11.3354855,55.5463829,10.5458698z" class="color4f575f svgShape"></path><path fill="#a50b89" d="M58.1285172,10.7500811c0,2.0723362-1.677681,3.7500153-3.7389717,3.7500153
						c-2.1361809,0-3.7500839-1.731535-3.7500839-3.7500153C50.6394615,8.6886539,52.3171425,7,54.3895454,7
						C56.4372826,7,58.1285172,8.6861343,58.1285172,10.7500811z" class="colorf04343 svgShape"></path><path fill="#ff61e2" d="M56.2864685,9.8619184c0,2.2335644-1.9659958,4.0770226-4.3860016,3.6952028
						c-0.7784729-0.6908007-1.2610054-1.6886549-1.2610054-2.8070402c0-2.2095366,1.9517288-4.0790939,4.3860054-3.6952696
						C55.8040733,7.7456126,56.2864685,8.7434664,56.2864685,9.8619184z" class="colorff6161 svgShape"></path><path fill="#5a4fff" d="M69.7349243,35.9719582c-4.2800293,4.6099854-9.7700195,6.3199463-12.9899902,7.1400146
						c-1.9499512,0.5-2.8000488-0.4000244-3.1599121-1.1800537c-0.25-0.5098877-0.2800293-0.9699707-0.2800293-0.9699707
						s-0.7700195-3.8099365,0-6.1700439c0.7600098-2.3499756,1.9299316-2.6499023,4.1398926-3.3898926
						c2.210083-0.7399902,4.960083-2.2900391,4.960083-2.2900391c1.0799561-0.5800781,4.5699463-3.7299805,5.7600098-4.4599609
						c0.0999756-0.0600586,0.1900635-0.1000977,0.289917-0.1201172c1.0500488-0.289917,1.7900391,1.4300537,1.7900391,1.4300537
						S74.0149536,31.3619728,69.7349243,35.9719582z" class="color4f91ff svgShape"></path><path fill="#5046e4" d="M69.7349243,35.9719582c-4.2800293,4.6099854-9.7700195,6.3199463-12.9899902,7.1400146
						c-1.9499512,0.5-2.8000488-0.4000244-3.1599121-1.1800537c1.4899902,0.0699463,2.9899902-0.1400146,4.1999512-0.9699707
						c2.1172104-1.447628,2.1771507-3.4850159,6.4199219-3.7800293c0.6000977-0.039917,1.210083-0.0499268,1.7900391-0.2299805
						c0.7800293-0.25,1.4300537-0.7999268,1.9599609-1.4200439c1.9700928-2.3099365,2.3601074-5.8499756,0.9300537-8.5300293
						c-0.2698975-0.5-0.5999756-1-0.6400146-1.5699463c-0.0200195-0.3199463,0.0600586-0.6300049,0.2099609-0.9000244
						c1.0500488-0.289917,1.7900391,1.4300537,1.7900391,1.4300537S74.0149536,31.3619728,69.7349243,35.9719582z" class="color457aef svgShape"></path><g fill="#0c2340" class="color000000 svgShape"><path fill="#ffffff" d="M67.8390274 31.4006958c0 1.6310463-1.6778107 3.4965172-2.827774 2.8836403-.3440475-.1954155-.5394592-.5954399-.5394592-1.134903 0-1.0045509.725563-2.25107 1.5999908-2.762598C66.9746628 29.8708382 67.8390274 30.2541733 67.8390274 31.4006958zM58.6768036 38.5445061c-1.010891.5926666-1.7766685.0322037-1.7766685-1.0231705-.0148506-1.6024323 1.7436485-3.523632 2.8370857-2.8557091C60.8316803 35.2866974 60.121994 37.7249756 58.6768036 38.5445061z" class="colorffffff svgShape"></path></g><g fill="#0c2340" class="color000000 svgShape"><path fill="#cbdff4" d="M45.9627457,75.6923828c-2.3356705,1.1076279-5.7709312-6.7742081-6.2524872-8.4034653
						c-0.1284485-0.4334488-0.4253197-1.7176285,0.1043434-2.8572998c0.3210716-0.6903419,0.9470444-1.3164139,2.0949402-1.6695213
						c0,0,2.937542-0.6662445,3.5796814,1.7818031C46.1360626,67.0316467,48.2924805,74.5852432,45.9627457,75.6923828z" class="colorcbdbf4 svgShape"></path><path fill="#dbeafa" d="M47.0141335,72.7066422c-0.1604843,0.4413834-0.4173813,0.7625504-0.7785225,0.931076
						c-2.343605,1.1075287-5.7708359-6.7661819-6.2524872-8.3954391c-0.0481071-0.1686172-0.1203156-0.45755-0.1685219-0.8106613
						c0.3210716-0.6903419,0.9470444-1.3164139,2.0949402-1.6695213c0,0,2.937542-0.6662445,3.5796814,1.7818031
						C45.9066048,66.1491547,46.9900322,69.9616241,47.0141335,72.7066422z" class="colordbe6fa svgShape"></path></g></g><g fill="#0c2340" class="color000000 svgShape"><path fill="#71b4f8" d="M27.204895 17.1498756c-7.5654297 4.3963623-11.3521729 10.1626587-11.3684082 15.9376831l-.0059814 3.2277832c.4835205.7172852.7687988 1.5639648.8588867 2.4362793.0150146.0655518.0355225.1293945.0483398.1955566 1.5274658-4.086792 4.9893799-7.9743652 10.4473877-11.1462402 2.2143555-1.2867432 4.6442871-2.3696289 7.2058105-3.2814941V13.8756447C31.836731 14.7861061 29.413269 15.8664284 27.204895 17.1498756zM94.1790161 36.4761086l.0058594-3.1616211c.0148926-5.2641602-3.1142578-10.5321045-9.3601074-14.7810669v10.6643677c4.2072754 2.866333 6.991333 6.1964111 8.355957 9.6749268.0620117-.1516113.1496582-.2895508.225708-.43396.111084-.4766846.3033447-.9249268.5369873-1.3496094C94.0099487 36.8797951 94.0874634 36.6747169 94.1790161 36.4761086z" opacity=".4" class="color71d8f8 svgShape"></path><path fill="#71b4f8" d="M22.6574516 46.4261284c-4.8668079-3.982132-7.3060493-8.6609154-7.2927923-13.3372612l-.0195808 10.6512222c-.0133781 4.6825523 2.4324312 9.3677788 7.3123732 13.3534393V46.4261284zM57.5494576 56.1091499c-9.7604942.3406601-19.709259-1.3801613-27.6871452-5.1898346v10.6609535c7.9798317 3.8055344 17.9283562 5.5228348 27.6871452 5.1792526V56.1091499zM86.5617905 47.1745872c-1.0413208.7892036-2.1724014 1.5511627-3.4151306 2.2733498-5.0645676 2.9432411-11.1902771 4.8964844-17.6718521 5.9052124v10.6480637c7.4090652-1.1553268 15.1403046-3.6748199 21.0869827-8.1901169V47.1745872zM90.3811951 43.6564407v10.6281166c2.8204041-3.2317276 4.2441025-10.507103 4.2542038-14.0526161l.019577-6.9161301C94.6450043 36.8698387 93.2149734 40.4185104 90.3811951 43.6564407z" opacity=".4" class="color71d8f8 svgShape"></path><path fill="#95c9fe" d="M22.6574516 45.9468193c-10.4015608-8.8291168-8.9074402-20.9780159 4.54743-28.7969437 2.2084045-1.283411 4.6318359-2.3637753 7.1861324-3.2742338v-.3255816c-2.6783504.9390402-5.2134304 2.0662289-7.5203476 3.4069233-13.7814245 8.0089016-15.1637754 20.5089207-4.2132149 29.4689007V45.9468193zM57.5494576 55.8267441c-9.7765465.3415146-19.7457428-1.4093513-27.6871452-5.2822685v.3748398c7.9778862 3.8095512 17.926651 5.5304947 27.6871452 5.1898346V55.8267441zM90.3811951 43.0448074v.608593c7.1558456-8.1812401 5.2978363-18.3553677-5.5564041-25.5371189v.4170399C95.0259247 25.4729252 96.887825 35.1377029 90.3811951 43.0448074zM86.5617905 46.7296944c-5.8612518 4.5899315-13.6712799 7.1701775-21.0869827 8.3371582v.2861748c6.481575-1.008606 12.6072845-2.9618492 17.6718521-5.9050903 1.2419968-.7217026 2.3745346-1.4826889 3.4151306-2.2714043V46.7296944z" class="color95e2fe svgShape"></path></g><g fill="#0c2340" class="color000000 svgShape"><path fill="#5a4fff" d="M68.1751251,40.8510399c0.0048599,1.7125015-1.1994705,3.7984886-2.6898041,4.6589279
			c-1.4938431,0.8624725-2.7060013,0.1716461-2.7108536-1.5408554
			C65.0010681,44.6269836,66.8543091,42.7721062,68.1751251,40.8510399z" class="color4f91ff svgShape"></path></g></svg>