<svg xmlns="http://www.w3.org/2000/svg" enable-background="new 0 0 52 52" viewBox="0 0 52 52" id="MediaPromotion"><g fill="#010001" class="color000000 svgShape"><path fill="#f4f6f8" d="M14.4,40.4c-2.2,0.7-4.6-1.8-5.5-3.3c-0.9-1.6-1.1-8.7-1.1-8.7l0.7-0.1l5.4-1.1
								c0.1,3.7,2.4,9.1,2.9,10.3c0,0.1,0.1,0.1,0.1,0.2C17.2,38.5,16.6,39.7,14.4,40.4z" class="colore9e7fc svgShape"></path><path fill="#f1f6fc" d="M16.8,37.6c-0.4,0.3-1,0.6-1.8,0.9c-2.2,0.7-4.7-1.8-5.5-3.3c-0.6-1.1-0.9-4.6-1-6.9l5.4-1.1
								C14,31,16.3,36.3,16.8,37.6z" class="colorf3f1fc svgShape"></path><path fill="#431d43" d="M12,13.6c-0.7-0.4-0.1,2.8-1.2,3.4c-2.2,1.3-4.2,1.3-4.2,3.8c0,1.2-0.8,2-0.1,2.4L4,21.9
											c-0.7-0.4-1.1-1.3-1.1-2.5c0-2.5,1.7-5.6,3.9-6.8c1.1-0.6,2.1-0.7,2.8-0.3L12,13.6z" class="color1d2943 svgShape"></path><path fill="#331133" d="M9.2,13.9c2.2-1.3,3.9-0.2,4,2.3c0,2.5-1.8,5.6-3.9,6.8c-2.2,1.3-3.9,0.3-4-2.3
											C5.3,18.2,7,15.2,9.2,13.9z" class="color111d33 svgShape"></path><path fill="#fc7ee5" d="M12.4,14.1l7.2,4.2c-0.7-0.4-1.6-0.3-2.7,0.3l-7.2-4.2C10.7,13.8,11.7,13.7,12.4,14.1z" class="colorfc7e7e svgShape"></path><path fill="#e86dd2" d="M14.2,27.4L7,23.3c-0.7-0.4-1.1-1.2-1.1-2.4c0-2.4,1.7-5.3,3.7-6.5l7.2,4.2
											c-2.1,1.2-3.7,4.1-3.7,6.5C13.1,26.2,13.5,27,14.2,27.4z" class="colore86d6d svgShape"></path><path fill="#cc5cb8" d="M16.9,18.6c2.1-1.2,3.8-0.2,3.8,2.1c0,2.4-1.7,5.3-3.7,6.5c-2.1,1.2-3.8,0.2-3.8-2.1
											C13.1,22.6,14.8,19.7,16.9,18.6z" class="colorcc5c5c svgShape"></path><polygon fill="#ffffff" points="10.6 25.3 7 23.2 15.2 18.5 18.8 20.6" class="colorffffff svgShape"></polygon><path fill="#c9d5e2" d="M18.8,26.5c0,0.3-0.2,0.8-0.5,0.9l-7.1,4.1c-0.2,0.1-0.3,0.1-0.4,0c0,0,0,0,0.1,0.1l-3.6-2.1
											C7.1,29.4,7,29.3,7,29.2l0-5.9l3.6,2.1c3.3,2.2,5.9,0.2,8.2-4.7L18.8,26.5z" class="colorc9cee2 svgShape"></path><path fill="#e3e9f0" d="M10.8,31.6l-3.6-2.1C7.1,29.4,7,29.3,7,29.2l0-5.9l3.6,2.1l0,5.9C10.6,31.4,10.7,31.5,10.8,31.6z" class="colore3e7f0 svgShape"></path><path fill="#c9d5e2" d="M18.8,20.6l0,5.9c0,0.3-0.2,0.7-0.5,0.9l-7.1,4.1c-0.3,0.2-0.5,0-0.5-0.3l0-5.9
											C13.9,27.6,16.5,25.6,18.8,20.6z" class="colorc9cee2 svgShape"></path><g fill="#010001" class="color000000 svgShape"><path fill="#918afd" d="M19.5,18.3c-0.7-0.4-1.5,0-2.5,0.6c-2.1,1.2-3.8,3.8-3.8,6.2c0,1.2,0.3,2,1,2.4L7,23.3
											c-0.7-0.4-1.1-1.2-1.1-2.4c0-2.4,1.7-5.3,3.7-6.5c1-0.6,2-0.7,2.7-0.3L19.5,18.3z" class="colorb28afd svgShape"></path><path fill="#5046e4" d="M16.9,18.6c2.1-1.2,3.8-0.2,3.8,2.1c0,2.4-1.7,5.3-3.7,6.5c-2.1,1.2-3.8,0.2-3.8-2.1
											C13.1,22.6,14.8,19.7,16.9,18.6z" class="color7e5af2 svgShape"></path></g><g fill="#010001" class="color000000 svgShape"><path fill="#e6e7e9" d="M14.1,26.7C14.1,26.7,14.1,26.7,14.1,26.7L14.1,26.7C14.1,26.7,14.1,26.7,14.1,26.7z" class="colore9e8e6 svgShape"></path></g><g fill="#010001" class="color000000 svgShape"><path fill="#e3e9f0" d="M30.6,17.3l-2.2,7.6c-0.1,0.1-1.9,1.8-1.8,1.7l-2.1-0.4l-0.9,1.6l0.5,0.2c-1.2,2-4.1,7-5.3,9
										c-0.6-3.4-2.6-6.8-4.6-10.2c0,0,0,0,0,0h0c-0.2-0.4-0.4-0.8-0.4-1.4c0-0.1,0-0.2,0-0.2c0-2.2,1.6-5,3.5-6.1
										c0,0,0.1,0,0.1-0.1c0.7-0.4,1.4-0.5,2-0.3C22.7,18.9,27.3,18.6,30.6,17.3z" class="colore3e7f0 svgShape"></path></g><g fill="#010001" class="color000000 svgShape"><path fill="#786ff9" d="M39.8,24c0,6.7-4.7,14.8-10.5,18.1c-5.8,3.4-10.5,0.7-10.5-6c0-6.7,4.7-14.8,10.5-18.1
									C35.1,14.6,39.8,17.3,39.8,24z" class="color986ff9 svgShape"></path><path fill="#c9d5e2" d="M38.5,24.1c0,6.2-4.3,13.7-9.7,16.8c-1.4,0.8-2.8,1.3-4.1,1.3c-1.8,0-3.1-0.9-3.9-2.5
									c-0.5-1-0.7-2.2-0.7-3.7c0-6.2,4.3-13.7,9.7-16.8c1-0.6,1.9-0.9,2.8-1.1c0.4-0.1,0.9-0.1,1.3-0.1
									C36.7,17.9,38.5,20.2,38.5,24.1z" class="colorc9cee2 svgShape"></path><path fill="#ffffff" d="M33.3,21.8c0,6.2-4.3,13.7-9.7,16.8c-1,0.6-1.9,0.9-2.8,1.1c-0.5-1-0.7-2.2-0.7-3.7
									c0-6.2,4.3-13.7,9.7-16.8c1-0.6,1.9-0.9,2.8-1.1C33,19,33.3,20.3,33.3,21.8z" class="colorffffff svgShape"></path></g><g fill="#010001" class="color000000 svgShape"><path fill="#431d43" d="M25.1,31.7L21,30.6c0.5-1.4,1.1-2.9,1.9-4.3c0.8-1.4,1.9-2.8,2.9-3.9l3.2,2.6L25.1,31.7z" class="color1d2943 svgShape"></path><path fill="#6822a2" d="M27.1,25.2c1.5-0.9,2.8-0.2,2.8,1.6c0,1.8-1.2,3.9-2.8,4.8c-1.5,0.9-2.8,0.2-2.8-1.6
													C24.3,28.2,25.6,26.1,27.1,25.2z" class="color4c5c75 svgShape"></path></g><g fill="#010001" class="color000000 svgShape"><path fill="#9eb3c9" d="M28.7,27.4c0,1-0.7,2.2-1.6,2.7c-0.9,0.5-1.6,0.1-1.6-0.9c0-1,0.7-2.2,1.6-2.7
								C28,26,28.7,26.4,28.7,27.4z" class="color9ea9c9 svgShape"></path></g><g fill="#010001" class="color000000 svgShape"><polygon fill="#fc7ee5" points="14.2 35 13 35.7 11.8 35.1 11.8 31.8 13 31.1 13.5 31.4 13.5 33.2" class="colorfc7e7e svgShape"></polygon></g><g fill="#010001" class="color000000 svgShape"><polygon fill="#e935c8" points="12.3 33.9 13.5 33.2 14.2 35 13 35.7" class="colore93565 svgShape"></polygon><polygon fill="#f451d6" points="12.3 32 13.5 31.4 13.5 33.2 12.3 33.9" class="colorf45170 svgShape"></polygon><polygon fill="#e935c8" points="11.8 31.8 13.1 31.1 13.5 31.4 12.3 32" class="colore93565 svgShape"></polygon><polygon fill="#a50b89" points="12.3 32 12.3 33.9 13 35.7 11.8 35.1 11.8 31.8" class="colordf3260 svgShape"></polygon></g><g fill="#010001" class="color000000 svgShape"><path fill="#fe1fd5" d="M49.1,34.7v0.1c0,0.1,0,0.3-0.1,0.4C49.1,35.1,49.1,34.9,49.1,34.7z" class="colorfebc1f svgShape"></path><path fill="#fe1fd5" d="M49.1 35.7c0 .7-.5 1.4-1.4 2-1.9 1.1-4.9 1.1-6.8 0-.9-.5-1.4-1.2-1.4-2v-1c0-.7.5-1.4 1.4-2 1.9-1.1 4.9-1.1 6.8 0 .9.6 1.4 1.3 1.4 2 0 .2 0 .3-.1.5.1-.1.1-.3.1-.4L49.1 35.7zM49.1 34.8C49.1 34.8 49.1 34.8 49.1 34.8c0-.1 0-.1 0-.1V34.8z" class="colorfebc1f svgShape"></path><path fill="#fe1fd5" d="M49.1,34.7v0.1c0,0.1,0,0.3-0.1,0.4C49.1,35.1,49.1,34.9,49.1,34.7z" class="colorfebc1f svgShape"></path><g fill="#010001" class="color000000 svgShape"><path fill="#fe1fd5" d="M39.5,34.7l0,1c0,0.7,0.5,1.4,1.4,2c1.9,1.1,4.9,1.1,6.8,0c0.9-0.5,1.4-1.3,1.4-2l0-1
									c0,0.7-0.5,1.4-1.4,2c-1.9,1.1-4.9,1.1-6.8,0C40,36.1,39.5,35.4,39.5,34.7z" class="colorfebc1f svgShape"></path><path fill="#6cb5ff" d="M40.9,32.7c-1.9,1.1-1.9,2.8,0,3.9c1.9,1.1,4.9,1.1,6.8,0c1.9-1.1,1.9-2.9,0-3.9
									C45.8,31.6,42.8,31.6,40.9,32.7z" class="colorffd06c svgShape"></path></g><g fill="#010001" class="color000000 svgShape"><path fill="#e935c8" d="M45.8,33.4c0.3,0.2,0.5,0.4,0.5,0.7l0,1.8l-3.1,0c-0.5,0-0.9-0.1-1.2-0.3s-0.5-0.4-0.5-0.7
						c0-0.5,0.6-0.9,1.5-0.9c0.1-0.5,0.8-0.9,1.6-0.9C45.1,33.1,45.5,33.2,45.8,33.4z" class="colore93565 svgShape"></path></g></g><g fill="#010001" class="color000000 svgShape"><path fill="#f4f6f8" d="M40.4,2.9c1.2-0.7,2.1-0.1,2.1,1.2c0,1.4-0.9,3-2.1,3.7l-16,9.2c-1.2,0.7-2.1,0.1-2.1-1.2
						c0-1.4,0.9-3,2.1-3.7L40.4,2.9z" class="colorf1f6fa svgShape"></path><polygon fill="#e935c8" points="24.1 14 25.5 14 24.1 15.7" class="colore93565 svgShape"></polygon><path fill="#e935c8" d="M24.6,12.8c0.8-0.5,1.5-0.1,1.5,0.9c0,1-0.7,2.1-1.5,2.6c-0.8,0.5-1.5,0.1-1.5-0.9
								C23.1,14.5,23.7,13.3,24.6,12.8z M24.6,16c0.7-0.4,1.3-1.4,1.3-2.2c0-0.8-0.6-1.1-1.3-0.7c-0.7,0.4-1.3,1.4-1.3,2.2
								C23.3,16.1,23.9,16.4,24.6,16" class="colore93565 svgShape"></path><polygon fill="#9eb3c9" points="26.9 13 26.9 13.4 26.7 13.5 26.7 13.1" class="color9ea9c9 svgShape"></polygon><polygon fill="#9eb3c9" points="27.2 12.7 27.2 13.3 27.1 13.4 27.1 12.7" class="color9ea9c9 svgShape"></polygon><polygon fill="#9eb3c9" points="27.6 12.3 27.6 13.2 27.5 13.3 27.5 12.4" class="color9ea9c9 svgShape"></polygon><polygon fill="#9eb3c9" points="28 12.3 28 12.9 27.9 12.9 27.9 12.3" class="color9ea9c9 svgShape"></polygon><polygon fill="#9eb3c9" points="28.4 12.2 28.4 12.5 28.3 12.6 28.3 12.2" class="color9ea9c9 svgShape"></polygon><polygon fill="#9eb3c9" points="28.7 11.7 28.7 12.6 28.6 12.7 28.6 11.8" class="color9ea9c9 svgShape"></polygon><polygon fill="#9eb3c9" points="29.1 11.3 29.1 12.6 29 12.7 29 11.3" class="color9ea9c9 svgShape"></polygon><polygon fill="#9eb3c9" points="29.5 10.7 29.5 12.7 29.3 12.8 29.3 10.8" class="color9ea9c9 svgShape"></polygon><polygon fill="#9eb3c9" points="31 10.4 31 11.3 30.8 11.4 30.8 10.5" class="color9ea9c9 svgShape"></polygon><polygon fill="#9eb3c9" points="33.9 8.7 33.9 9.6 33.8 9.7 33.8 8.8" class="color9ea9c9 svgShape"></polygon><polygon fill="#9eb3c9" points="30.6 10.4 30.6 11.8 30.5 11.8 30.5 10.5" class="color9ea9c9 svgShape"></polygon><polygon fill="#9eb3c9" points="30.2 10.3 30.2 12.3 30.1 12.3 30.1 10.4" class="color9ea9c9 svgShape"></polygon><polygon fill="#9eb3c9" points="29.8 10.3 29.8 12.7 29.7 12.8 29.7 10.3" class="color9ea9c9 svgShape"></polygon><polygon fill="#9eb3c9" points="31.3 10 31.3 11.3 31.2 11.4 31.2 10" class="color9ea9c9 svgShape"></polygon><polygon fill="#9eb3c9" points="31.7 9.4 31.7 11.5 31.6 11.5 31.6 9.5" class="color9ea9c9 svgShape"></polygon><polygon fill="#9eb3c9" points="32 8.7 32 11.7 31.9 11.8 31.9 8.8" class="color9ea9c9 svgShape"></polygon><polygon fill="#9eb3c9" points="33.5 8.7 33.5 10 33.4 10.1 33.4 8.7" class="color9ea9c9 svgShape"></polygon><polygon fill="#9eb3c9" points="33.2 8.6 33.2 10.6 33 10.7 33 8.6" class="color9ea9c9 svgShape"></polygon><polygon fill="#9eb3c9" points="32.8 8.3 32.8 11.3 32.7 11.4 32.7 8.4" class="color9ea9c9 svgShape"></polygon><polygon fill="#9eb3c9" points="32.4 8.2 32.4 11.9 32.3 11.9 32.3 8.2" class="color9ea9c9 svgShape"></polygon><polygon fill="#9eb3c9" points="41 4.9 41 5.3 40.9 5.3 40.9 4.9" class="color9ea9c9 svgShape"></polygon><polygon fill="#9eb3c9" points="40.6 5 40.6 5.6 40.5 5.7 40.5 5" class="color9ea9c9 svgShape"></polygon><polygon fill="#9eb3c9" points="40.2 5 40.2 6 40.1 6 40.1 5.1" class="color9ea9c9 svgShape"></polygon><polygon fill="#9eb3c9" points="39.9 5.4 39.9 6 39.7 6.1 39.7 5.5" class="color9ea9c9 svgShape"></polygon><polygon fill="#9eb3c9" points="39.5 5.8 39.5 6.1 39.4 6.2 39.4 5.8" class="color9ea9c9 svgShape"></polygon><polygon fill="#9eb3c9" points="39.1 5.7 39.1 6.6 39 6.7 39 5.7" class="color9ea9c9 svgShape"></polygon><polygon fill="#9eb3c9" points="38.8 5.7 38.8 7 38.6 7.1 38.6 5.7" class="color9ea9c9 svgShape"></polygon><polygon fill="#9eb3c9" points="38.4 5.6 38.4 7.6 38.3 7.6 38.3 5.6" class="color9ea9c9 svgShape"></polygon><polygon fill="#9eb3c9" points="36.9 7 36.9 7.9 36.8 8 36.8 7" class="color9ea9c9 svgShape"></polygon><polygon fill="#9eb3c9" points="37.3 6.5 37.3 7.9 37.2 7.9 37.2 6.6" class="color9ea9c9 svgShape"></polygon><polygon fill="#9eb3c9" points="37.6 6 37.6 8 37.5 8 37.5 6.1" class="color9ea9c9 svgShape"></polygon><polygon fill="#9eb3c9" points="38 5.6 38 8 37.9 8.1 37.9 5.6" class="color9ea9c9 svgShape"></polygon><polygon fill="#9eb3c9" points="36.6 6.9 36.6 8.3 36.4 8.4 36.4 7" class="color9ea9c9 svgShape"></polygon><polygon fill="#9eb3c9" points="36.2 6.8 36.2 8.9 36.1 8.9 36.1 6.9" class="color9ea9c9 svgShape"></polygon><polygon fill="#9eb3c9" points="35.8 6.6 35.8 9.5 35.7 9.6 35.7 6.6" class="color9ea9c9 svgShape"></polygon><polygon fill="#9eb3c9" points="34.3 8.2 34.3 9.6 34.2 9.7 34.2 8.3" class="color9ea9c9 svgShape"></polygon><polygon fill="#9eb3c9" points="34.7 7.7 34.7 9.7 34.6 9.8 34.6 7.8" class="color9ea9c9 svgShape"></polygon><polygon fill="#9eb3c9" points="35.1 7 35.1 10 34.9 10 34.9 7.1" class="color9ea9c9 svgShape"></polygon><g fill="#010001" class="color000000 svgShape"><polygon fill="#9eb3c9" points="35.4 6.4 35.4 10.1 35.3 10.2 35.3 6.5" class="color9ea9c9 svgShape"></polygon></g></g><g fill="#010001" class="color000000 svgShape"><path fill="#955ec3" d="M15.8,44.2v1.1c0,0.1-0.1,0.3-0.3,0.4l-1.7,1l0.4,0.7v1.1L11.4,48l-2.1,1.2c-0.4,0.2-1,0.2-1.4,0l-4-2.3
					c-0.2-0.1-0.3-0.3-0.3-0.4v-1.1c0-0.2,0.1-0.3,0.3-0.4l6.2-3.6c0.4-0.2,1-0.2,1.4,0l4,2.4C15.7,43.9,15.8,44,15.8,44.2z" class="color5ec363 svgShape"></path><path fill="#a061d5" d="M11.4,47l2.7,0.5v1.1L11.4,48l-2.1,1.2c-0.4,0.2-1,0.2-1.4,0l-4-2.4c-0.2-0.1-0.3-0.3-0.3-0.4l0-1.1
					c0,0.1,0.1,0.3,0.3,0.4l4,2.4c0.4,0.2,1,0.2,1.4,0L11.4,47z" class="color72d561 svgShape"></path><path fill="#955ec3" d="M15.8,44.2v1.1c0,0.2-0.1,0.3-0.3,0.4l-2.1,1.2l0-1.1l2.1-1.2C15.7,44.5,15.8,44.3,15.8,44.2z" class="color5ec363 svgShape"></path><path fill="#5aa0e7" d="M3.8,45c-0.4,0.2-0.4,0.6,0,0.8l4,2.4c0.4,0.2,1,0.2,1.4,0l2.1-1.2l2.7,0.5l-0.8-1.6l2.1-1.2
					c0.4-0.2,0.4-0.6,0-0.8l-4-2.4c-0.4-0.2-1-0.2-1.4,0L3.8,45z" class="color78e75a svgShape"></path><path fill="#ffffff" d="M9.3,42.7L7,44.5l2.4,1.4c0,0,0,0-0.1,0C9.3,46,9.1,46.1,9,46.3C8.9,46.6,9,47,9.4,47
						c0.4,0.1,0.8-0.2,1-0.5c0.2-0.3,0.1-0.6-0.2-0.7l-1.8-1l1.5-1.3l1.7,1c0,0,0,0,0,0c-0.2,0.1-0.3,0.2-0.4,0.4
						c-0.2,0.3,0,0.7,0.3,0.7c0.4,0.1,0.8-0.2,1-0.5c0.1-0.3,0.1-0.6-0.2-0.7L9.3,42.7z" class="colorffffff svgShape"></path></g><g fill="#010001" class="color000000 svgShape"><path fill="#d4dfea" d="M37.6,45.7v1c0,0.7-0.5,1.4-1.4,1.9c-1.8,1-4.7,1-6.5,0c-0.9-0.5-1.3-1.2-1.3-1.9v-1
										c0-0.7,0.5-1.4,1.3-1.9c1.8-1,4.7-1,6.5,0C37.2,44.3,37.6,45,37.6,45.7z" class="colord4daea svgShape"></path><path fill="#d4dfea" d="M28.5,45.7l0,1c0,0.7,0.4,1.3,1.3,1.9c1.8,1,4.7,1,6.5,0c0.9-0.5,1.4-1.2,1.3-1.9l0-1
										c0,0.7-0.4,1.4-1.3,1.9c-1.8,1-4.7,1-6.5,0C28.9,47,28.5,46.4,28.5,45.7z" class="colord4daea svgShape"></path><path fill="#f4f6f8" d="M29.8,43.8c-1.8,1-1.8,2.7,0,3.7c1.8,1,4.7,1,6.5,0c1.8-1,1.8-2.7,0-3.7
										C34.5,42.8,31.6,42.8,29.8,43.8z" class="colorf1f6fa svgShape"></path><g fill="#010001" class="color000000 svgShape"><path fill="#6822a2" d="M33.3 46.2c.4.3.5.6.2.8l-.8-.5L31.9 47l-1.4-.8 1.4-.8L33.3 46.2zM35.3 45.1c.4.3.5.6.2.8l-.8-.5-.8.5-1.4-.8 1.4-.8L35.3 45.1z" class="color4c5c75 svgShape"></path></g></g></g></svg>