<svg xmlns="http://www.w3.org/2000/svg" enable-background="new 0 0 367.44 293" viewBox="0 0 367.44 293" id="Marketingstrategy"><g fill="#f4f6f8" class="color000000 svgShape"><g fill="#f4f6f8" class="color000000 svgShape"><g fill="#f4f6f8" class="color000000 svgShape"><g fill="#f4f6f8" class="color000000 svgShape"><g fill="#f4f6f8" class="color000000 svgShape"><g fill="#f4f6f8" class="color000000 svgShape"><g fill="#f4f6f8" class="color000000 svgShape"><g fill="#f4f6f8" class="color000000 svgShape"><path fill="#c3d8ed" d="M294.901,103.451c0,0-0.176-1.44-0.213-2.986l-3.204,1.272l-0.791,1.432l-3.052,3.655
									l-0.452,4.861l0.657,0.716c0,0,3.262-2.035,3.375-2.073c0.113-0.038,2.864-3.957,2.864-3.957
									S295.982,105.579,294.901,103.451z" class="coloredc3d2 svgShape"></path></g><g fill="#f4f6f8" class="color000000 svgShape"><path fill="#c5e2ff" d="M279.062,108.618c-0.249-0.532-1.161-2.421-1.297-1.902c0.043,0.406-0.019,0.729-0.258,0.912
									c0,0-0.702-0.852-1.244-1.322c-0.502-0.437-0.657,1.156-0.399,2.493c0,0-0.003,1.036,1.274,1.301
									c1.276,0.264,1.917,0.661,1.917,0.661l0.91-1.289C279.964,109.472,279.406,109.353,279.062,108.618z" class="colorffcfc5 svgShape"></path></g><g fill="#f4f6f8" class="color000000 svgShape"><path fill="#8982ed" d="M287.582,103.253c-2.351,0.621-2.797,5.061-2.909,7.12c-0.026,0.471-0.522,0.76-0.945,0.55
									c-1.333-0.662-3.725-1.912-4.396-2.675c0,0-0.99,1.394-0.777,2.669c0,0,3.703,3.313,6.397,4.299
									c0.906,0.331,1.888-0.256,2.073-1.202l1.934-5.637C288.959,108.378,291.399,102.245,287.582,103.253z" class="color8294ed svgShape"></path></g><g fill="#f4f6f8" class="color000000 svgShape"><path fill="#938cf7" d="M285.272,107.498c0.618-2.705,2.203-4.328,3.671-4.521c1.101-0.155,1.913-0.213,2.416-0.233
									c0,0.368-0.116,0.851-0.464,1.72c-0.715,1.72-0.529,2.803-0.529,2.803c0.097-0.636,2.017-2.32,2.944-2.454
									c0.908-0.136,1.585-1.354,1.585-1.354c1.623,0.928,2.493,2.706,2.493,2.706s-0.019,3.381-1.662,7.227
									c-1.643,3.845,1.237,9.274,1.237,9.274c0.386,4.02-1.333,5.875-6.57,6.531c-5.237,0.657-4.519-6.441-4.519-6.441
									c0.584-3.478,0.925-5.848,0.944-7.838c0-0.734-0.583-1.173-1.237-1.526C281.919,111.413,284.962,108.909,285.272,107.498z" class="color8ca8f7 svgShape"></path></g><g fill="#f4f6f8" class="color000000 svgShape"><g fill="#f4f6f8" class="color000000 svgShape"><path fill="#8982ed" d="M290.895,104.464c-0.715,1.72-0.529,2.803-0.529,2.803c0.097-0.637,2.017-2.32,2.944-2.455
										c0.908-0.136,1.585-1.354,1.585-1.354c1.623,0.928,2.923,2.702,2.923,2.702s-0.45,3.385-2.092,7.231
										c-1.643,3.845,1.237,9.274,1.237,9.274c0.175,1.826-0.113,3.186-0.939,4.209c0.318-0.852,0.427-1.859,0.309-3.092
										c0,0-2.879-5.429-1.237-9.274c1.642-3.845,1.662-7.227,1.662-7.227s-0.52-2.125-2.143-3.053c0,0-1.026,1.564-1.934,1.7
										c-0.928,0.135-2.512,1.758-2.609,2.395c0,0-0.522-1.024,0.193-2.744c0.324-0.81,0.635-2.305,0.678-2.81
										c0.134-0.008,0.31-0.023,0.417-0.028C291.359,103.112,291.243,103.595,290.895,104.464z" class="color8294ed svgShape"></path></g></g><g fill="#f4f6f8" class="color000000 svgShape"><path fill="#8cadcf" d="M285.831,123.612l0.051-0.847c0.86,1.091,3.971,1.436,5.577,1.714
									c4.951,0.858,5.511-1.804,5.511-1.804c4.534,5.326,0.198,11.381-0.219,19.125c-0.105,1.947-12.452-0.654-11.92-3.315
									C284.992,137.685,285.872,129.527,285.831,123.612z" class="color8ccfb1 svgShape"></path></g><g fill="#f4f6f8" class="color000000 svgShape"><path fill="#6560ad" d="M296.049,141.479c1.088-7.349,4.21-13.403,0.922-18.805
									c4.534,5.325,0.198,11.381-0.219,19.125c-0.095,1.765-10.474-0.241-11.759-2.579
									C288.221,141.812,295.885,142.582,296.049,141.479z" class="color60ad88 svgShape"></path></g><g fill="#f4f6f8" class="color000000 svgShape"><g fill="#f4f6f8" class="color000000 svgShape"><g fill="#f4f6f8" class="color000000 svgShape"><g fill="#f4f6f8" class="color000000 svgShape"><g fill="#f4f6f8" class="color000000 svgShape"><g fill="#f4f6f8" class="color000000 svgShape"><path fill="#8982ed" d="M288.092,112.809c0,0,3.67,5.33,6.687-2.915c0.352,0.226,0.704,0.502,1.056,0.729
														c-4.5,8.648-7.722,2.466-7.722,2.44c-0.39,0.847-0.852,1.337-1.348,1.581c-0.001-0.003-0.003-0.004-0.004-0.006h0
														c-0.053-0.227-0.148-0.432-0.302-0.605l-0.001-0.001C287.508,113.896,288.105,112.822,288.092,112.809z" class="color8294ed svgShape"></path></g></g></g></g></g></g></g></g><g fill="#f4f6f8" class="color000000 svgShape"><g fill="#f4f6f8" class="color000000 svgShape"><path fill="#c5e2ff" d="M288.581,112.666c-0.055-0.78-1.595-3.476-1.161-1.211c0,0-0.696-0.519-1.007-1.165
								c-0.236-0.489-0.793,1.234-0.833,2.036c0,0-0.189,1.019,1.02,1.507c1.209,0.489,1.769,0.995,1.769,0.995l1.176-1.153
								C289.545,113.675,288.637,113.445,288.581,112.666z" class="colorffcfc5 svgShape"></path></g><g fill="#f4f6f8" class="color000000 svgShape"><path fill="#8982ed" d="M296.646,105.968c0,0-3.583,0.807-2.243,8.523l0.177,1.553c0,0-4.248-1.874-5.369-2.912
								c0,0-1.047,0.389-1.313,1.617c0,0,4.256,3.75,7.208,4.575c0.985,0.275,1.956-0.494,2.033-1.515
								c0.047-0.62,0.082-1.357,0.064-2.05C297.159,114.115,300.062,104.922,296.646,105.968z" class="color8294ed svgShape"></path></g></g><g fill="#f4f6f8" class="color000000 svgShape"><path fill="#6822a2" d="M288.124,97.565c0.365,1.21,0.616,4.746,0.844,6.115c0,0,1.141,0.365,0.913-2.624
							c-0.365-0.16-0.548-0.57-0.274-1.027c0.114-0.205,0.137-0.501,0.137-0.821c0,0,0-0.114,0-0.183
							c-0.091-0.593-0.16-1.163-0.16-1.642c0-1.073,0.274-1.872,0.821-2.282c0.342-0.069,0.707,0,1.05,0.41
							c0,0,2.305-1.141,3.263,2.168c0.068,0.183,0.091,0.388,0.091,0.593c0.205-0.046,0.388-0.046,0.548,0.069
							c0.342,0.228,0.365,0.799,0.046,1.254c-0.205,0.297-0.502,0.479-0.776,0.502c-0.206,1.072-1.072,3.765-1.62,4.746
							c-0.593,1.095-0.456,1.255-0.456,1.255l0.73-1.21c-0.068,0.252-0.342,1.393-0.274,1.484c0.068,0.114,0.319-0.89,0.319-1.027
							c0.023,0,0.251,1.735,0.251,1.735l0.479-1.461l0.616,1.119v-1.393l0.205,1.21l0.502-1.643l0.388,2.168l0.434-1.803v1.803
							l0.274-1.985c1.004-4.152,2.168-1.666,2.168-8.944c0.023-0.365,0.023-0.707-0.046-1.049c-0.023-0.091-0.023-0.16-0.023-0.16
							c-0.319-1.779-1.643-3.308-4.951-3.308C288.124,91.611,287.577,95.695,288.124,97.565z" class="color3f528c svgShape"></path></g><g fill="#f4f6f8" class="color000000 svgShape"><g fill="#f4f6f8" class="color000000 svgShape"><path fill="#c5e2ff" d="M289.608,100.03c0.114-0.205,0.137-0.501,0.137-0.821c0,0,0-0.114,0-0.183
								c-0.091-0.593-0.16-1.163-0.16-1.642c0-1.073,0.274-1.872,0.821-2.282c0.342-0.069,0.707,0,1.05,0.41
								c0,0,2.305-1.141,3.263,2.168c0.068,0.183,0.091,0.388,0.091,0.593c0.205-0.046,0.388-0.046,0.548,0.069
								c0.342,0.228,0.365,0.799,0.046,1.254c-0.205,0.297-0.502,0.479-0.776,0.502c-0.12,0.627-0.468,1.805-0.844,2.874
								c-1.096,0.363-2.469,0.35-3.194,0.296c-1.072-0.114,0-2.053-0.502-2.145c-0.069-0.022-0.16-0.068-0.228-0.09
								c-0.125-0.059-0.249-0.223-0.356-0.413C289.457,100.448,289.478,100.245,289.608,100.03z" class="colorffcfc5 svgShape"></path></g></g></g><g fill="#f4f6f8" class="color000000 svgShape"><g fill="#f4f6f8" class="color000000 svgShape"><g fill="#f4f6f8" class="color000000 svgShape"><path fill="#ed71d6" d="M150.006,80.889c-0.494,1.086-0.955,4.113,1.053,4.345c0,0,0.568,0.952-0.257,1.182
								c-0.821,0.232-3.33-0.458-3.562-2.235c0,0,0.527-1.744,0.363-3.259c-0.166-1.515,0.098-5.363,1.152-7.833
								c0,0-1.656,2.179-3.84,3.381c-1.788,0.983-1.422-5.228-1.422-5.228l1.575-0.852c0,0,8.327-3.321,7.767,0.363
								C152.277,74.439,150.5,79.802,150.006,80.889z" class="colored9871 svgShape"></path></g><g fill="#f4f6f8" class="color000000 svgShape"><g fill="#f4f6f8" class="color000000 svgShape"><path fill="#153359" d="M203.359,131.233c0.008,1.963-1.372,4.354-3.081,5.341l-54.599,31.524
									c-1.709,0.987-3.101,0.194-3.105-1.769l-0.218-82.836c-0.004-1.963,1.376-4.358,3.085-5.345l54.599-31.52
									c1.709-0.987,3.097-0.194,3.101,1.773L203.359,131.233z" class="color592515 svgShape"></path></g></g><g fill="#f4f6f8" class="color000000 svgShape"><g fill="#f4f6f8" class="color000000 svgShape"><path fill="#7c326f" d="M202.241,46.415c-0.563-0.329-1.344-0.281-2.201,0.214l-54.599,31.52
									c-1.709,0.987-3.089,3.382-3.085,5.345l0.218,82.836c0.004,0.975,0.345,1.661,0.9,1.983l-1.532-0.889
									c-0.555-0.325-0.9-1.011-0.904-1.987l-0.218-82.832c-0.004-1.967,1.376-4.358,3.085-5.345l54.599-31.524
									c0.861-0.496,1.638-0.539,2.201-0.214L202.241,46.415z" class="color7c4732 svgShape"></path></g></g><g fill="#f4f6f8" class="color000000 svgShape"><g fill="#f4f6f8" class="color000000 svgShape"><polygon fill="#f4f6f8" points="199.919 51.316 200.13 132.799 145.804 164.164 145.593 82.681" class="colorffffff svgShape"></polygon></g></g></g><g fill="#f4f6f8" class="color000000 svgShape"><g fill="#f4f6f8" class="color000000 svgShape"><g fill="#f4f6f8" class="color000000 svgShape"><g fill="#f4f6f8" class="color000000 svgShape"><g fill="#f4f6f8" class="color000000 svgShape"><path fill="#d0e7ff" d="M182.701,53.977l-1.759,1.014l0.785,0.456l1.758-1.014
											c0.433-0.251,0.825-0.274,1.109-0.109l-0.785-0.456C183.525,53.704,183.134,53.726,182.701,53.977z" class="colord0ddff svgShape"></path></g><g fill="#f4f6f8" class="color000000 svgShape"><path fill="#d0e7ff" d="M180.148,52.552l-4.857,0.875l0.785,0.456l4.857-0.875
											c0.173-0.031,0.326-0.007,0.449,0.065l-0.785-0.456C180.474,52.546,180.322,52.521,180.148,52.552z" class="colord0ddff svgShape"></path></g><g fill="#f4f6f8" class="color000000 svgShape"><path fill="#d0e7ff" d="M170.656,57.435l0.785,0.456c0.299,0.174,0.713,0.149,1.169-0.114
											c0.907-0.525,1.642-1.795,1.639-2.839c-0.001-0.519-0.185-0.884-0.48-1.055l-0.785-0.456
											c0.295,0.171,0.479,0.537,0.48,1.056c0.003,1.044-0.732,2.314-1.638,2.837C171.369,57.584,170.955,57.609,170.656,57.435z
											" class="colord0ddff svgShape"></path></g><g fill="#f4f6f8" class="color000000 svgShape"><path fill="#d0e7ff" d="M159.414,69.214l0.014,7.439l0.785,0.456l-0.014-7.44
											c-0.003-0.988,0.693-2.192,1.553-2.688l1.759-1.016l-0.004-1.624c-0.003-0.573,0.312-1.265,0.782-1.723l4.844-4.726
											c-0.006-2.203,1.543-4.886,3.461-5.993c0.966-0.557,1.84-0.61,2.471-0.242l-0.785-0.457
											c-0.632-0.366-1.506-0.314-2.47,0.242c-1.919,1.108-3.468,3.791-3.461,5.993l-4.845,4.726
											c-0.47,0.459-0.783,1.151-0.782,1.723l0.004,1.625l-1.759,1.014C160.107,67.021,159.411,68.225,159.414,69.214z" class="colord0ddff svgShape"></path></g></g></g></g><g fill="#f4f6f8" class="color000000 svgShape"><g fill="#f4f6f8" class="color000000 svgShape"><path fill="#aed1f4" d="M163.51,65.965l-0.005-1.624c-0.002-0.573,0.312-1.264,0.783-1.723l4.845-4.726
									c-0.006-2.203,1.543-4.886,3.461-5.993c1.918-1.107,3.476-0.218,3.482,1.985l4.856-0.875
									c0.472-0.085,0.788,0.242,0.79,0.815l0.005,1.624l1.758-1.015c0.86-0.497,1.56-0.098,1.563,0.89l0.014,7.44l-24.849,14.347
									l-0.014-7.44c-0.003-0.988,0.693-2.193,1.553-2.689L163.51,65.965z M172.611,57.776c0.907-0.524,1.641-1.794,1.638-2.838
									c-0.003-1.044-0.742-1.465-1.649-0.942c-0.907,0.524-1.641,1.795-1.638,2.84C170.964,57.88,171.703,58.3,172.611,57.776" class="coloraec7f4 svgShape"></path></g></g></g></g><g fill="#f4f6f8" class="color000000 svgShape"><g fill="#f4f6f8" class="color000000 svgShape"><g fill="#f4f6f8" class="color000000 svgShape"><g fill="#f4f6f8" class="color000000 svgShape"><path fill="#8ec6fe" d="M180.107,128.55l5.595,3.189c-2.937,4.632-6.773,8.622-10.976,11.049
									c-4.202,2.426-8.049,2.871-11.002,1.64l5.559-9.629c1.506,0.446,3.384,0.145,5.418-1.029
									C176.736,132.596,178.608,130.731,180.107,128.55z" class="color8ec2fe svgShape"></path></g></g><g fill="#f4f6f8" class="color000000 svgShape"><g fill="#f4f6f8" class="color000000 svgShape"><path fill="#57aafe" d="M187.338,103.526c2.56,1.913,4.116,5.435,4.13,10.265c0.014,4.874-1.547,10.234-4.132,15.128
									l-5.59-3.186c1.179-2.428,1.88-5.028,1.874-7.411c-0.007-2.338-0.692-4.1-1.84-5.168L187.338,103.526z" class="colorfebd57 svgShape"></path></g></g><g fill="#f4f6f8" class="color000000 svgShape"><g fill="#f4f6f8" class="color000000 svgShape"><path fill="#ff65e3" d="M174.653,116.945c3.145-1.816,5.702-0.359,5.712,3.257c0.01,3.614-2.53,8.014-5.675,9.83
									c-3.145,1.816-5.702,0.358-5.712-3.255C168.968,123.161,171.508,118.76,174.653,116.945z" class="colorff65a7 svgShape"></path></g></g><g fill="#f4f6f8" class="color000000 svgShape"><g fill="#f4f6f8" class="color000000 svgShape"><path fill="#0e00dd" d="M173.461,104.902l0.026,9.059c-4.393,3.19-7.778,9.465-7.763,14.693
									c0.007,2.382,0.72,4.166,1.909,5.227l-5.554,9.62c-2.603-1.899-4.189-5.442-4.203-10.316
									C157.848,122.973,164.727,110.629,173.461,104.902z" class="color00ddc4 svgShape"></path></g></g></g><g fill="#f4f6f8" class="color000000 svgShape"><g fill="#f4f6f8" class="color000000 svgShape"><path fill="#643889" d="M175.773,103.568c3.789-1.891,7.237-2.14,9.93-0.984l-5.555,9.621
								c-1.234-0.393-2.724-0.275-4.349,0.422L175.773,103.568z" class="color385089 svgShape"></path></g></g></g><g fill="#f4f6f8" class="color000000 svgShape"><g fill="#f4f6f8" class="color000000 svgShape"><g fill="#f4f6f8" class="color000000 svgShape"><g fill="#f4f6f8" class="color000000 svgShape"><polygon fill="#ee42cf" points="192.44 75.549 192.476 88.185 189.258 90.042 189.222 77.407" class="coloree428c svgShape"></polygon></g></g><g fill="#f4f6f8" class="color000000 svgShape"><g fill="#f4f6f8" class="color000000 svgShape"><polygon fill="#ff65e3" points="186.661 83.992 186.682 91.53 183.464 93.388 183.442 85.85" class="colorff65a7 svgShape"></polygon></g></g><g fill="#f4f6f8" class="color000000 svgShape"><g fill="#f4f6f8" class="color000000 svgShape"><polygon fill="#0c00bf" points="180.823 72.044 180.888 94.875 177.67 96.732 177.605 73.901" class="color00bfad svgShape"></polygon></g></g><g fill="#f4f6f8" class="color000000 svgShape"><g fill="#f4f6f8" class="color000000 svgShape"><polygon fill="#643889" points="194.51 87.327 194.513 88.35 152.464 112.627 152.462 111.604" class="color385089 svgShape"></polygon></g></g></g><g fill="#f4f6f8" class="color000000 svgShape"><g fill="#f4f6f8" class="color000000 svgShape"><polygon fill="#8ec6fe" points="157.676 95.62 157.712 108.255 154.494 110.113 154.458 97.478" class="color8ec2fe svgShape"></polygon></g></g><g fill="#f4f6f8" class="color000000 svgShape"><g fill="#f4f6f8" class="color000000 svgShape"><polygon fill="#756edb" points="163.448 84.628 163.506 104.91 160.288 106.768 160.231 86.486" class="color6e6fdb svgShape"></polygon></g></g><g fill="#f4f6f8" class="color000000 svgShape"><g fill="#f4f6f8" class="color000000 svgShape"><polygon fill="#fd3dda" points="169.264 88.929 169.3 101.565 166.082 103.423 166.047 90.787" class="colorfd9c3d svgShape"></polygon></g></g><g fill="#f4f6f8" class="color000000 svgShape"><g fill="#f4f6f8" class="color000000 svgShape"><polygon fill="#0e00dd" points="175.043 80.487 175.094 98.22 171.876 100.078 171.826 82.345" class="color00ddc4 svgShape"></polygon></g></g></g><g fill="#f4f6f8" class="color000000 svgShape"><g fill="#f4f6f8" class="color000000 svgShape"><g fill="#f4f6f8" class="color000000 svgShape"><g fill="#f4f6f8" class="color000000 svgShape"><g fill="#f4f6f8" class="color000000 svgShape"><g fill="#f4f6f8" class="color000000 svgShape"><path fill="#58abff" d="M265.165,126.627l-0.087,31.046c-0.003,0.488-0.174,0.83-0.451,0.991l-1.753,1.016
											c0.276-0.159,0.447-0.503,0.451-0.988l0.087-31.046c0.003-0.982-0.687-2.172-1.538-2.667l-24.923-14.388
											c-0.27-0.159-0.538-0.395-0.774-0.687l-6.852-8.54c-0.233-0.292-0.5-0.528-0.771-0.684l-11.11-6.414
											c-0.429-0.249-0.817-0.27-1.097-0.109l1.753-1.019c0.28-0.162,0.668-0.14,1.097,0.109l11.107,6.414
											c0.273,0.155,0.541,0.395,0.774,0.687l6.852,8.54c0.233,0.292,0.5,0.528,0.774,0.684l24.923,14.391
											C264.478,124.455,265.168,125.648,265.165,126.627z" class="colorffda58 svgShape"></path></g></g><g fill="#f4f6f8" class="color000000 svgShape"><g fill="#f4f6f8" class="color000000 svgShape"><path fill="#57aafe" d="M228.553,100.68c0.272,0.157,0.539,0.394,0.773,0.686l6.852,8.54
											c0.234,0.292,0.501,0.529,0.773,0.686l24.922,14.389c0.853,0.493,1.542,1.685,1.539,2.665l-0.088,31.046
											c-0.003,0.978-0.597,1.432-1.451,0.939l-44.543-25.717c-0.851-0.492-1.54-1.686-1.537-2.664l0.102-36.101
											c0.003-0.98,0.695-1.375,1.547-0.884L228.553,100.68z" class="colorfebd57 svgShape"></path></g></g></g></g><g fill="#f4f6f8" class="color000000 svgShape"><g fill="#f4f6f8" class="color000000 svgShape"><g fill="#f4f6f8" class="color000000 svgShape"><g fill="#f4f6f8" class="color000000 svgShape"><path fill="#c2ddf9" d="M260.996,123.672l-36.723-21.339l-0.048-11.136c-0.002-0.876-0.311-1.491-0.811-1.782
											l36.723,21.341c0.5,0.289,0.809,0.907,0.811,1.783L260.996,123.672z" class="colorc2d3f9 svgShape"></path></g></g><g fill="#f4f6f8" class="color000000 svgShape"><g fill="#f4f6f8" class="color000000 svgShape"><path fill="#dcedff" d="M260.496,110.136c-0.598-0.347-1.426-0.299-2.337,0.227
											c-1.814,1.046-3.285,3.594-3.278,5.677l0.134,33.292l-36.723-21.339l-0.134-33.295c-0.007-2.081,1.464-4.629,3.278-5.677
											c0.911-0.526,1.739-0.574,2.337-0.227L260.496,110.136z" class="colordce7ff svgShape"></path></g></g><g fill="#f4f6f8" class="color000000 svgShape"><g fill="#f4f6f8" class="color000000 svgShape"><path fill="#aed1f4" d="M258.158,110.363c1.813-1.047,3.293-0.203,3.299,1.88l0.047,11.136l-0.509,0.294
											l-0.047-11.136c-0.005-1.762-1.257-2.474-2.789-1.59c-1.532,0.884-2.774,3.036-2.769,4.799l0.136,33.293l-0.51,0.294
											l-0.136-33.293C254.874,113.957,256.344,111.41,258.158,110.363z" class="coloraec7f4 svgShape"></path></g></g></g></g><g fill="#f4f6f8" class="color000000 svgShape"><g fill="#f4f6f8" class="color000000 svgShape"><g fill="#f4f6f8" class="color000000 svgShape"><path fill="#643889" d="M226.74,122.868c0.355,0.839,0.562,1.713,0.56,2.522l-3.53-2.038L226.74,122.868z" class="color385089 svgShape"></path></g></g><g fill="#f4f6f8" class="color000000 svgShape"><g fill="#f4f6f8" class="color000000 svgShape"><path fill="#ff65e3" d="M223.782,119.296c1.242,0.717,2.333,2.091,2.959,3.572l-2.97,0.484l3.53,2.038
										c-0.006,2.237-1.595,3.142-3.542,2.018s-3.525-3.858-3.518-6.094C220.247,119.077,221.835,118.172,223.782,119.296z" class="colorff65a7 svgShape"></path></g></g><g fill="#f4f6f8" class="color000000 svgShape"><g fill="#f4f6f8" class="color000000 svgShape"><path fill="#58abff" d="M240.967,129.221l0.047,4.086l3.53,2.038c-0.006,2.237-1.595,3.142-3.541,2.019
										c-1.947-1.124-3.525-3.858-3.519-6.094C237.49,129.055,239.048,128.149,240.967,129.221z" class="colorffda58 svgShape"></path></g></g><g fill="#f4f6f8" class="color000000 svgShape"><g fill="#f4f6f8" class="color000000 svgShape"><path fill="#643889" d="M249.647,134.229c1.946,1.124,3.525,3.857,3.519,6.094l-3.53-2.038l-1.62-4.535
										C248.505,133.738,249.059,133.89,249.647,134.229z" class="color385089 svgShape"></path></g></g><g fill="#f4f6f8" class="color000000 svgShape"><g fill="#f4f6f8" class="color000000 svgShape"><path fill="#6b62f0" d="M232.404,124.273c0.53,0.306,1.032,0.735,1.483,1.238l-1.494,2.818l3.53,2.038
										c-0.006,2.237-1.595,3.142-3.542,2.018c-1.947-1.124-3.525-3.858-3.519-6.095
										C228.868,124.055,230.457,123.15,232.404,124.273z" class="color62a1f0 svgShape"></path></g></g><g fill="#f4f6f8" class="color000000 svgShape"><g fill="#f4f6f8" class="color000000 svgShape"><path fill="#0c00bf" d="M248.016,133.75l1.62,4.535l3.53,2.038c-0.006,2.237-1.595,3.142-3.542,2.018
										c-1.946-1.124-3.525-3.858-3.518-6.094C246.11,134.686,246.887,133.777,248.016,133.75z" class="color00bfad svgShape"></path></g></g><g fill="#f4f6f8" class="color000000 svgShape"><g fill="#f4f6f8" class="color000000 svgShape"><path fill="#643889" d="M233.887,125.511c1.204,1.342,2.04,3.23,2.036,4.856l-3.53-2.038L233.887,125.511z" class="color385089 svgShape"></path></g></g><g fill="#f4f6f8" class="color000000 svgShape"><g fill="#f4f6f8" class="color000000 svgShape"><path fill="#643889" d="M241.026,129.251c1.946,1.124,3.525,3.857,3.518,6.094l-3.53-2.038l-0.047-4.086
										C240.987,129.232,241.006,129.24,241.026,129.251z" class="color385089 svgShape"></path></g></g></g></g><g fill="#f4f6f8" class="color000000 svgShape"><g fill="#f4f6f8" class="color000000 svgShape"><g fill="#f4f6f8" class="color000000 svgShape"><polygon fill="#c2ddf9" points="242.675 116.046 242.668 118.404 232.388 112.468 232.395 110.111" class="colorc2d3f9 svgShape"></polygon></g></g><g fill="#f4f6f8" class="color000000 svgShape"><g fill="#f4f6f8" class="color000000 svgShape"><polygon fill="#c2ddf9" points="238.098 108.119 238.092 110.479 227.341 104.271 227.348 101.912" class="colorc2d3f9 svgShape"></polygon></g></g><g fill="#f4f6f8" class="color000000 svgShape"><g fill="#f4f6f8" class="color000000 svgShape"><polygon fill="#c2ddf9" points="225.882 111.633 225.875 113.993 221.653 111.555 221.66 109.196" class="colorc2d3f9 svgShape"></polygon></g></g><g fill="#f4f6f8" class="color000000 svgShape"><g fill="#f4f6f8" class="color000000 svgShape"><polygon fill="#c2ddf9" points="230.573 109.059 230.566 111.417 221.668 106.279 221.675 103.921" class="colorc2d3f9 svgShape"></polygon></g></g><g fill="#f4f6f8" class="color000000 svgShape"><g fill="#f4f6f8" class="color000000 svgShape"><polygon fill="#c2ddf9" points="225.764 100.998 225.757 103.357 221.683 101.005 221.69 98.646" class="colorc2d3f9 svgShape"></polygon></g></g><g fill="#f4f6f8" class="color000000 svgShape"><g fill="#f4f6f8" class="color000000 svgShape"><polygon fill="#c2ddf9" points="241.904 120.884 241.898 123.243 228.145 115.303 228.152 112.944" class="colorc2d3f9 svgShape"></polygon></g></g><g fill="#f4f6f8" class="color000000 svgShape"><g fill="#f4f6f8" class="color000000 svgShape"><polygon fill="#c2ddf9" points="247.529 113.564 247.522 115.923 240.242 111.72 240.248 109.36" class="colorc2d3f9 svgShape"></polygon></g></g><g fill="#f4f6f8" class="color000000 svgShape"><g fill="#f4f6f8" class="color000000 svgShape"><polygon fill="#c2ddf9" points="252.32 116.33 252.313 118.689 248.54 116.511 248.547 114.152" class="colorc2d3f9 svgShape"></polygon></g></g><g fill="#f4f6f8" class="color000000 svgShape"><g fill="#f4f6f8" class="color000000 svgShape"><polygon fill="#c2ddf9" points="252.305 121.606 252.298 123.964 243.974 119.158 243.981 116.8" class="colorc2d3f9 svgShape"></polygon></g></g><g fill="#f4f6f8" class="color000000 svgShape"><g fill="#f4f6f8" class="color000000 svgShape"><polygon fill="#c2ddf9" points="252.29 126.88 252.283 129.239 245.92 125.565 245.926 123.206" class="colorc2d3f9 svgShape"></polygon></g></g></g></g><g fill="#f4f6f8" class="color000000 svgShape"><g fill="#f4f6f8" class="color000000 svgShape"><g fill="#f4f6f8" class="color000000 svgShape"><g fill="#f4f6f8" class="color000000 svgShape"><g fill="#f4f6f8" class="color000000 svgShape"><g fill="#f4f6f8" class="color000000 svgShape"><g fill="#f4f6f8" class="color000000 svgShape"><path fill="#aed1f4" d="M306.846,145.485l-0.075,26.997c-0.002,0.626-0.223,1.068-0.58,1.276l-0.868,0.505
												c0.357-0.208,0.579-0.649,0.58-1.277l0.076-26.995c0.003-1.264-0.886-2.803-1.985-3.438l-32.389-18.7
												c-0.554-0.32-1.056-0.349-1.418-0.138l0.868-0.505c0.362-0.209,0.863-0.18,1.418,0.138l32.389,18.701
												C305.959,142.682,306.849,144.222,306.846,145.485z" class="coloraec7f4 svgShape"></path></g></g><g fill="#f4f6f8" class="color000000 svgShape"><g fill="#f4f6f8" class="color000000 svgShape"><path fill="#dcedff" d="M303.992,142.552c1.1,0.635,1.989,2.174,1.985,3.438l-0.074,26.996
												c-0.004,1.264-0.899,1.772-1.998,1.138l-32.39-18.7c-1.1-0.635-1.988-2.173-1.984-3.437l0.074-26.996
												c0.004-1.264,0.898-1.773,1.997-1.138L303.992,142.552z" class="colordce7ff svgShape"></path></g></g></g></g></g></g><g fill="#f4f6f8" class="color000000 svgShape"><g fill="#f4f6f8" class="color000000 svgShape"><g fill="#f4f6f8" class="color000000 svgShape"><path fill="#ee42cf" d="M300.5,145.176l-0.043,15.796c-0.003,1.172-0.833,1.644-1.853,1.056l-21.135-12.203
									c-1.019-0.588-1.846-2.019-1.843-3.191l0.046-15.792c0.003-1.169,0.834-1.64,1.853-1.053l21.138,12.203
									C299.68,142.58,300.503,144.008,300.5,145.176z" class="coloree428c svgShape"></path></g></g></g><g fill="#f4f6f8" class="color000000 svgShape"><g fill="#f4f6f8" class="color000000 svgShape"><path fill="#f4f6f8" d="M294.111,149.4c-0.013,3.832-2.726,5.386-6.067,3.457c-3.337-1.929-6.037-6.605-6.027-10.44
								c0.01-3.839,2.729-5.383,6.066-3.457C291.425,140.89,294.121,145.562,294.111,149.4z" class="colorffffff svgShape"></path></g></g><g fill="#f4f6f8" class="color000000 svgShape"><g fill="#f4f6f8" class="color000000 svgShape"><polygon fill="#5046e4" points="286.068 140.693 291.594 147.946 286.045 148.805" class="color4c4dc3 svgShape"></polygon></g></g><g fill="#f4f6f8" class="color000000 svgShape"><g fill="#f4f6f8" class="color000000 svgShape"><polygon fill="#f4f6f8" points="303.212 169.626 303.21 170.358 271.201 151.878 271.203 151.146" class="colorffffff svgShape"></polygon></g></g><g fill="#f4f6f8" class="color000000 svgShape"><g fill="#f4f6f8" class="color000000 svgShape"><polygon fill="#7c326f" points="279.242 155.788 271.203 151.146 271.201 151.878 279.242 156.52" class="color7c4732 svgShape"></polygon></g></g><g fill="#f4f6f8" class="color000000 svgShape"><g fill="#f4f6f8" class="color000000 svgShape"><path fill="#aed1f4" d="M280.239,156.931c-0.003,0.869-0.618,1.222-1.376,0.784c-0.757-0.438-1.369-1.498-1.367-2.368
								c0.002-0.871,0.619-1.221,1.376-0.784C279.63,155.001,280.241,156.061,280.239,156.931z" class="coloraec7f4 svgShape"></path></g></g></g><g fill="#f4f6f8" class="color000000 svgShape"><g fill="#f4f6f8" class="color000000 svgShape"><g fill="#f4f6f8" class="color000000 svgShape"><g fill="#f4f6f8" class="color000000 svgShape"><g fill="#f4f6f8" class="color000000 svgShape"><g fill="#f4f6f8" class="color000000 svgShape"><path fill="#0c2340" d="M75.273,135.539l0.11,53.883c0.002,0.913,0.325,1.557,0.846,1.86l1.266,0.736
											c-0.521-0.303-0.844-0.947-0.846-1.862l-0.11-53.881c-0.005-1.842,1.292-4.086,2.895-5.013l47.222-27.263
											c0.808-0.467,1.539-0.509,2.067-0.202l-1.266-0.736c-0.527-0.305-1.259-0.262-2.067,0.202l-47.222,27.265
											C76.565,131.453,75.268,133.697,75.273,135.539z" class="color1e3063 svgShape"></path></g></g><g fill="#f4f6f8" class="color000000 svgShape"><g fill="#f4f6f8" class="color000000 svgShape"><path fill="#643889" d="M79.433,131.263c-1.603,0.926-2.9,3.17-2.894,5.012l0.108,53.881
											c0.005,1.842,1.31,2.584,2.913,1.659l47.222-27.264c1.603-0.925,2.898-3.169,2.893-5.011l-0.108-53.882
											c-0.005-1.842-1.309-2.585-2.912-1.659L79.433,131.263z" class="color385089 svgShape"></path></g><g fill="#f4f6f8" class="color000000 svgShape"><polygon fill="#f4f6f8" points="126.425 107.767 79.683 134.753 79.789 188.049 126.532 161.063" class="colorffffff svgShape"></polygon></g></g></g></g></g><g fill="#f4f6f8" class="color000000 svgShape"><g fill="#f4f6f8" class="color000000 svgShape"><g fill="#f4f6f8" class="color000000 svgShape"><path fill="#643889" d="M100.367,167.334c0.757-1.789,1.199-3.652,1.194-5.378l-7.527,4.346L100.367,167.334z" class="color385089 svgShape"></path></g></g><g fill="#f4f6f8" class="color000000 svgShape"><g fill="#f4f6f8" class="color000000 svgShape"><path fill="#0e00dd" d="M94.063,176.592c3.04-1.755,5.874-5.173,7.512-9.059l-1.209-0.198
									c-1.336,3.159-3.66,6.087-6.309,7.617c-4.149,2.395-7.537,0.465-7.55-4.304c-0.013-4.769,3.352-10.598,7.501-12.994
									c4.151-2.397,7.539-0.466,7.552,4.303l1.428-0.825c-0.016-5.645-4.071-7.956-8.984-5.119
									c-4.912,2.836-8.941,9.815-8.925,15.46C85.095,177.117,89.151,179.428,94.063,176.592z" class="color00ddc4 svgShape"></path></g></g><g fill="#f4f6f8" class="color000000 svgShape"><g fill="#f4f6f8" class="color000000 svgShape"><path fill="#8ec6fe" d="M115.303,164.329c1.302-0.752,2.587-1.821,3.766-3.132l-0.608-1.148
									c-0.962,1.073-2.031,1.986-3.162,2.64c-4.15,2.396-7.538,0.466-7.551-4.303c-0.013-4.769,3.352-10.598,7.502-12.994
									c4.151-2.397,7.539-0.466,7.552,4.303l1.427-0.824c-0.016-5.645-4.071-7.956-8.984-5.12
									c-4.913,2.836-8.942,9.815-8.926,15.46C106.335,164.854,110.39,167.165,115.303,164.329z" class="color8ec2fe svgShape"></path></g></g><g fill="#f4f6f8" class="color000000 svgShape"><g fill="#f4f6f8" class="color000000 svgShape"><path fill="#643889" d="M90.965,150.424c4.15-2.396,7.516-8.225,7.502-12.994l-7.527,4.346l-0.1,8.713
									C90.883,150.467,90.923,150.449,90.965,150.424z" class="color385089 svgShape"></path></g></g><g fill="#f4f6f8" class="color000000 svgShape"><g fill="#f4f6f8" class="color000000 svgShape"><path fill="#58abff" d="M90.823,152.149l0.019-1.66c-4.093,2.286-7.415,0.354-7.428-4.367
									c-0.013-4.769,3.352-10.598,7.503-12.995c4.15-2.396,7.538-0.466,7.551,4.303l1.428-0.824
									c-0.016-5.645-4.072-7.955-8.984-5.12c-4.913,2.836-8.942,9.815-8.925,15.46C82.002,152.527,85.967,154.861,90.823,152.149z
									" class="colorffda58 svgShape"></path></g></g><g fill="#f4f6f8" class="color000000 svgShape"><g fill="#f4f6f8" class="color000000 svgShape"><path fill="#643889" d="M112.205,138.162c4.15-2.396,7.516-8.225,7.502-12.994l-7.527,4.346l-3.455,9.671
									C109.769,139.208,110.95,138.886,112.205,138.162z" class="color385089 svgShape"></path></g></g><g fill="#f4f6f8" class="color000000 svgShape"><g fill="#f4f6f8" class="color000000 svgShape"><path fill="#ff65e3" d="M108.067,141.028l0.659-1.844c-2.408-0.058-4.063-1.997-4.072-5.325
									c-0.014-4.769,3.352-10.598,7.502-12.994c4.15-2.396,7.538-0.466,7.551,4.303l1.428-0.825
									c-0.016-5.645-4.071-7.956-8.984-5.119c-4.913,2.836-8.942,9.815-8.926,15.46
									C103.237,138.513,105.107,140.963,108.067,141.028z" class="colorff65a7 svgShape"></path></g></g><g fill="#f4f6f8" class="color000000 svgShape"><g fill="#f4f6f8" class="color000000 svgShape"><path fill="#643889" d="M118.461,160.048c2.568-2.861,4.351-6.885,4.341-10.355l-7.528,4.346L118.461,160.048z" class="color385089 svgShape"></path></g></g></g></g><g fill="#f4f6f8" class="color000000 svgShape"><g fill="#f4f6f8" class="color000000 svgShape"><g fill="#f4f6f8" class="color000000 svgShape"><path fill="#254771" d="M151.527,86.656c1.342-0.15,1.855,1.689,3.821,1.053c0,0,0.942,0.055,1.523-0.277
								c0.581-0.333,1.329-0.581,1.052,0.277c-0.277,0.886-1.501,3.068-4.09,2.238c0,0-0.756-0.466-1.337-0.299l-0.242,1.814h-0.692
								c0,0,0.076-1.897-0.561-2.506C150.336,88.346,150.721,86.746,151.527,86.656z" class="color713d25 svgShape"></path></g></g><g fill="#f4f6f8" class="color000000 svgShape"><path fill="#83c1ff" d="M157.223,72.937c0.559-3.685-7.767-0.363-7.767-0.363l-1.575,0.852
							c0,0-0.366,6.212,1.422,5.228c2.184-1.201,3.84-3.381,3.84-3.381c-1.053,2.47-1.318,6.318-1.152,7.833
							c0.164,1.515-0.391,3.545-0.391,3.545c0.328,1.432,2.556,1.998,3.377,1.766c0.824-0.229,0.853-0.717,0.853-0.717
							c-2.009-0.232-1.932-3.54-1.438-4.627C154.887,81.987,156.663,76.624,157.223,72.937z" class="colorffaa83 svgShape"></path></g></g><g fill="#f4f6f8" class="color000000 svgShape"><g fill="#f4f6f8" class="color000000 svgShape"><g fill="#f4f6f8" class="color000000 svgShape"><g fill="#f4f6f8" class="color000000 svgShape"><path fill="#0c2340" d="M161.448,61.624l-0.02,6.513c-0.001,0.261-0.186,0.366-0.412,0.235l-9.847-5.685
									c-0.227-0.131-0.41-0.449-0.409-0.709l0.02-6.513c0-0.26,0.185-0.365,0.412-0.235l9.846,5.685
									C161.266,61.046,161.449,61.363,161.448,61.624z" class="color1e3063 svgShape"></path></g></g><g fill="#f4f6f8" class="color000000 svgShape"><polygon fill="#58abff" points="151.098 55.54 151.077 62.269 161.111 68.062 161.132 61.333" class="colorffda58 svgShape"></polygon></g><g fill="#f4f6f8" class="color000000 svgShape"><g fill="#f4f6f8" class="color000000 svgShape"><path fill="#643889" d="M161.654,61.505l-0.02,6.512c0,0.13-0.046,0.221-0.12,0.263l-0.206,0.12
									c0.074-0.043,0.12-0.134,0.12-0.264l0.02-6.512c0.001-0.261-0.182-0.578-0.409-0.709l-9.846-5.685
									c-0.114-0.066-0.218-0.072-0.293-0.028l0.206-0.12c0.075-0.043,0.178-0.037,0.292,0.029l9.847,5.685
									C161.472,60.926,161.655,61.244,161.654,61.505z" class="color385089 svgShape"></path></g></g></g><g fill="#f4f6f8" class="color000000 svgShape"><g fill="#f4f6f8" class="color000000 svgShape"><g fill="#f4f6f8" class="color000000 svgShape"><g fill="#f4f6f8" class="color000000 svgShape"><g fill="#f4f6f8" class="color000000 svgShape"><path fill="#0c2340" d="M161.236,68.638l-0.002,0.422c0,0.085-0.056,0.17-0.168,0.235l-6.115,3.554
											c-0.225,0.131-0.592,0.131-0.819,0l-9.846-5.685c-0.114-0.066-0.171-0.153-0.171-0.239l0.002-0.421
											c0,0.086,0.057,0.173,0.171,0.238l9.846,5.685c0.227,0.131,0.594,0.131,0.819,0l6.115-3.554
											C161.18,68.809,161.236,68.724,161.236,68.638z" class="color1e3063 svgShape"></path></g></g><g fill="#f4f6f8" class="color000000 svgShape"><g fill="#f4f6f8" class="color000000 svgShape"><path fill="#643889" d="M161.065,68.399c0.227,0.131,0.228,0.343,0.003,0.474l-6.115,3.554
											c-0.225,0.131-0.592,0.131-0.819,0l-9.846-5.685c-0.227-0.131-0.228-0.343-0.003-0.474l6.115-3.554
											c0.225-0.131,0.592-0.131,0.819,0L161.065,68.399z" class="color385089 svgShape"></path></g></g><g fill="#f4f6f8" class="color000000 svgShape"><path fill="#294972" d="M153.166,68.996l-1.895,1.101c-0.1,0.058-0.224,0.058-0.324,0.001l-3.284-1.896
										c-0.077-0.045-0.077-0.156,0-0.2l1.895-1.101c0.1-0.058,0.224-0.058,0.324,0l3.284,1.895
										C153.243,68.84,153.243,68.951,153.166,68.996z" class="color293a72 svgShape"></path></g></g></g><g fill="#f4f6f8" class="color000000 svgShape"><polygon fill="#294972" points="160.547 68.618 157.088 70.625 147.283 64.964 150.737 62.954" class="color293a72 svgShape"></polygon></g></g></g><g fill="#f4f6f8" class="color000000 svgShape"><g fill="#f4f6f8" class="color000000 svgShape"><path fill="#83c1ff" d="M152.249,64.107c-0.002-0.002-0.047-0.02-0.289,0.035c0.102-0.025,0.204-0.095,0.231-0.157
							c0.01-0.018,0.012-0.03,0.009-0.044c-0.023-0.031-0.591-0.13-0.644-0.118c0.086-0.051,0.263-0.156,0.303-0.237
							c0.007-0.016,0.011-0.032,0.005-0.045c-0.015-0.03-0.063-0.062-0.175-0.085c-0.403-0.058-1.304,0.028-1.962,0.485
							c-0.178,0.12-0.593,0.13-0.848,0.249c-0.721,0.335-1.45,0.65-2.169,0.988l0.905,0.85c0.013-0.015,0.022-0.026,0.022-0.026
							c0.178-0.192,0.374-0.363,0.588-0.517c0.267-0.187,0.612-0.435,0.616-0.435c0.016,0.005,0.328-0.127,0.413-0.032
							c0.263,0.314,0.554,0.593,1.047,0.498c0.173-0.034,0.761-0.025,0.844-0.198c0.011-0.022,0.013-0.044,0.008-0.071l-0.341-0.228
							c-0.002-0.002-0.012-0.046-0.002-0.074l0.007-0.037c0.034,0.009,0.109,0.021,0.247,0.027c0.705,0.034,1.122-0.19,1.148-0.203
							c0.013-0.024,0.027-0.062,0.014-0.11c-0.019-0.076-0.125-0.153-0.486-0.136c0.025-0.008,0.565-0.088,0.63-0.222
							c0.007-0.016,0.008-0.03,0.001-0.049C152.361,64.177,152.33,64.142,152.249,64.107z" class="colorffaa83 svgShape"></path></g><g fill="#f4f6f8" class="color000000 svgShape"><g fill="#f4f6f8" class="color000000 svgShape"><g fill="#f4f6f8" class="color000000 svgShape"><g fill="#f4f6f8" class="color000000 svgShape"><g fill="#f4f6f8" class="color000000 svgShape"><g fill="#f4f6f8" class="color000000 svgShape"><g fill="#f4f6f8" class="color000000 svgShape"><g fill="#f4f6f8" class="color000000 svgShape"><path fill="#756edb" d="M148.675,78.916c0,0,3.272-1.254,4.303-3.438c0.082-0.173-0.033-0.57-0.115-0.745
														c-0.516-1.098-2.523-4.02-5.717-3.6c-3.699,0.487-2.152,5.384-2.152,5.384L148.675,78.916z" class="color6e6fdb svgShape"></path></g><g fill="#f4f6f8" class="color000000 svgShape"><path fill="#756edb" d="M150.875,74.965c-0.195-0.643-0.43-1.461-0.62-2.238c-0.3-1.222-0.852-3.628-0.72-4.845
														c0.076-0.699-0.619-1.625-0.318-1.926c2.437-2.436-1.034-5.25-1.266-6.158c-0.028-0.109-0.063-0.189-0.108-0.223
														c-1.288-0.977-3.284-2.129-3.284-2.129s-1.665,0.543-3.639-0.527c0,0-3.123,0.639-2.818,2.994
														c0.229,1.769,0.445,3.654,1.526,5.8c1.084,2.153,1.389,4.622,0.742,6.945c-0.084,0.301-0.178,0.599-0.285,0.888
														c-0.504,1.371,0.047,2.908,1.315,3.633c2.491,1.422,6.641,3.178,8.871,0.715
														C150.985,77.105,151.183,75.98,150.875,74.965z" class="color6e6fdb svgShape"></path></g><g fill="#f4f6f8" class="color000000 svgShape"><path fill="#83c1ff" d="M146.85,52.377c-0.106-0.9-0.677-1.132-0.677-1.132s-3.5,0.668-3.51,0.724
														c-0.01,0.057-1.535,4.427,0.982,4.861c0.907,0.156,1.992,0.956,2.321,0.291
														C146.548,55.942,146.918,52.953,146.85,52.377z" class="colorffaa83 svgShape"></path></g></g></g></g><g fill="#f4f6f8" class="color000000 svgShape"><path fill="#ee42cf" d="M140.932,50.921c0,0-1.04,1.699-0.525,4.255c0,0,0.075,0.187-0.323,1.714
											c-0.098,0.377-0.015,0.787,0.24,1.081c0.688,0.791,2.295,1.588,3.605,1.95c0.919,0.254,1.764-0.612,1.504-1.53
											c-0.426-1.504-0.811-2.364-0.681-3.176c0.067-0.397,0.275-0.771,0.585-1.049c0.067-0.061,0.17-0.048,0.205,0.032
											c0.096,0.208,0.182,0.55,0.253,1.187l0.355-0.397c0,0-0.051-0.633,0.016-1.321c0.007-0.068,0.042-0.13,0.094-0.174
											c0.505-0.426,0.933-1.056,0.885-2.152C147.052,49.26,142.372,48.476,140.932,50.921z" class="coloree428c svgShape"></path></g></g></g></g></g><g fill="#f4f6f8" class="color000000 svgShape"><path fill="#83c1ff" d="M157.544,67.386c0.017,0.01,0.03,0.023,0.033,0.04c0.007,0.04-0.013,0.106-0.093,0.209
							c-0.305,0.349-1.129,0.92-1.986,0.956c-0.229,0.013-0.589,0.304-0.883,0.375c-1.497,0.36-2.975,0.807-4.503,0.996
							l-1.225,0.153c-0.398,0.027-0.74-0.156-0.91-0.518c-0.667-1.424-2.009-4.901-2.148-5.701c0,0-0.428-1.86,1.341-2.401
							c1.361-0.425,2.275,3.629,2.61,5.462c0.096,0.531,0.478,0.784,0.983,0.82c0.412,0.03,1.617,0.339,1.617,0.339
							c0.276,0.056,0.554,0.08,0.837,0.073c0.349-0.013,0.803-0.023,0.807-0.027c0.01-0.017,0.362-0.116,0.372-0.269
							c0.02-0.495,0.086-0.976,0.568-1.242c0.169-0.093,0.664-0.528,0.847-0.422c0.023,0.013,0.04,0.033,0.053,0.063l-0.143,0.468
							c0,0.003,0.02,0.053,0.047,0.073l0.03,0.03c0.023-0.033,0.08-0.1,0.193-0.206c0.578-0.545,1.079-0.631,1.109-0.638
							c0.027,0.013,0.063,0.04,0.083,0.096c0.033,0.086-0.007,0.239-0.325,0.485c0.027-0.01,0.538-0.325,0.681-0.242
							c0.017,0.01,0.027,0.023,0.033,0.047c0.017,0.043,0.013,0.1-0.033,0.193c0,0.003-0.027,0.053-0.269,0.176
							c0.103-0.05,0.236-0.057,0.299-0.017c0.02,0.01,0.03,0.02,0.037,0.037c0,0.047-0.418,0.554-0.472,0.581
							C157.239,67.363,157.458,67.336,157.544,67.386z" class="colorffaa83 svgShape"></path></g><g fill="#f4f6f8" class="color000000 svgShape"><g fill="#f4f6f8" class="color000000 svgShape"><g fill="#f4f6f8" class="color000000 svgShape"><path fill="#5046e4" d="M149.341,64.081c-0.148-1.124-0.726-3.076-0.874-3.559c-0.399-1.301-1.865-1.584-2.576-0.755
									c-0.712,0.828-1.093,2.141-0.694,3.441c0.13,0.426,0.477,1.63,0.947,2.393C147.489,65.722,149.243,64.439,149.341,64.081z" class="color4c4dc3 svgShape"></path></g></g></g></g><g fill="#f4f6f8" class="color000000 svgShape"><g fill="#f4f6f8" class="color000000 svgShape"><g fill="#f4f6f8" class="color000000 svgShape"><g fill="#f4f6f8" class="color000000 svgShape"><g fill="#f4f6f8" class="color000000 svgShape"><g fill="#f4f6f8" class="color000000 svgShape"><path fill="#ce56b8" d="M159.789,196.18l0.009,2.553c0,0.84,0.555,1.682,1.657,2.322l46.161,26.824
											c2.224,1.294,5.84,1.294,8.08,0l65.933-38.065c1.128-0.652,1.689-1.504,1.686-2.356l-0.006-2.547
											c0,0.852-0.564,1.701-1.685,2.35l-65.933,38.065c-2.24,1.294-5.859,1.294-8.083,0l-46.158-26.824
											C160.347,197.86,159.792,197.02,159.789,196.18z" class="colorce7c56 svgShape"></path></g></g><g fill="#f4f6f8" class="color000000 svgShape"><g fill="#f4f6f8" class="color000000 svgShape"><path fill="#83c1ff" d="M161.478,193.822c-2.24,1.293-2.252,3.388-0.028,4.681l46.159,26.824
											c2.224,1.292,5.84,1.292,8.081-0.001l65.933-38.067c2.238-1.292,2.25-3.387,0.026-4.68l-46.159-26.825
											c-2.224-1.292-5.841-1.292-8.079,0L161.478,193.822z" class="colorffaa83 svgShape"></path></g><g fill="#f4f6f8" class="color000000 svgShape"><polygon fill="#f4f6f8" points="231.459 156.869 163.386 196.171 211.639 224.214 279.713 184.911" class="colorffffff svgShape"></polygon></g></g></g></g><g fill="#f4f6f8" class="color000000 svgShape"><g fill="#f4f6f8" class="color000000 svgShape"><g fill="#f4f6f8" class="color000000 svgShape"><polygon fill="#6b62f0" points="248.766 196.529 241.667 200.655 226.892 192.124 233.991 187.999" class="color62a1f0 svgShape"></polygon></g></g><g fill="#f4f6f8" class="color000000 svgShape"><g fill="#f4f6f8" class="color000000 svgShape"><polygon fill="#58abff" points="236.663 203.562 229.564 207.688 209.838 196.299 216.937 192.174" class="colorffda58 svgShape"></polygon></g></g><g fill="#f4f6f8" class="color000000 svgShape"><g fill="#f4f6f8" class="color000000 svgShape"><polygon fill="#0e00dd" points="224.56 210.596 217.46 214.722 208.171 209.359 215.271 205.233" class="color00ddc4 svgShape"></polygon></g></g><g fill="#f4f6f8" class="color000000 svgShape"><g fill="#f4f6f8" class="color000000 svgShape"><polygon fill="#643889" points="221.433 165.488 226.552 170.819 222.423 170.82 224.025 185.419 205.33 190.095 202.388 203.309 200.038 203.13 203.154 189.144 221.557 184.541 220.051 170.82 215.935 170.819" class="color385089 svgShape"></polygon></g></g><g fill="#f4f6f8" class="color000000 svgShape"><g fill="#f4f6f8" class="color000000 svgShape"><g fill="#f4f6f8" class="color000000 svgShape"><polygon fill="#ff65e3" points="260.869 189.495 253.77 193.621 229.315 179.502 236.414 175.376" class="colorff65a7 svgShape"></polygon></g></g><g fill="#f4f6f8" class="color000000 svgShape"><g fill="#f4f6f8" class="color000000 svgShape"><polygon fill="#643889" points="266.109 188.549 216.913 217.138 215.762 216.474 264.958 187.885" class="color385089 svgShape"></polygon></g></g></g></g></g><g fill="#f4f6f8" class="color000000 svgShape"><g fill="#f4f6f8" class="color000000 svgShape"><g fill="#f4f6f8" class="color000000 svgShape"><g fill="#f4f6f8" class="color000000 svgShape"><g fill="#f4f6f8" class="color000000 svgShape"><g fill="#f4f6f8" class="color000000 svgShape"><path fill="#a50b89" d="M210.103,130.908c-0.104,0.444,0.324,0.71-0.515,1.05l-0.413,8.349l4.219,0.172
												c0.401-0.96,1.09-2.211,1.286-2.897C216.733,130.415,210.103,130.908,210.103,130.908z" class="colorce296e svgShape"></path></g><g fill="#f4f6f8" class="color000000 svgShape"><g fill="#f4f6f8" class="color000000 svgShape"><path fill="#294972" d="M211.878,179.823l-2.22-1.118c-1.527,1.212-2.304,0.654-4.247,0.481
													c-1.915-0.139-1.305,1.061-1.305,1.061c0.421,0.591,1.238,1.066,1.944,1.392c0.554,0.256,1.148,0.453,1.784,0.537
													c1.864,0.246,3.706,1.4,4.266,0.756C212.711,182.229,211.878,179.823,211.878,179.823z" class="color293a72 svgShape"></path></g><g fill="#f4f6f8" class="color000000 svgShape"><path fill="#8982ed" d="M213.781,158.253c1.339-3.956-0.32-6.583-0.685-7.252l-6.696,2.13
													c0,0-0.558,5.986,1.65,13.516c0.278,0.947,0.434,1.919,0.507,2.903c0.211,2.829,0.594,8.361,0.482,9.692
													c0.562,0.954,1.636,1.082,2.955,0.817c0,0,1.466-6.55,0.865-11.139c-0.195-1.491-0.297-2.988-0.189-4.488
													C212.801,162.609,213.101,160.263,213.781,158.253z" class="color8294ed svgShape"></path></g></g><g fill="#f4f6f8" class="color000000 svgShape"><g fill="#f4f6f8" class="color000000 svgShape"><path fill="#294972" d="M207.32,182.289l-2.415-0.816c-1.66,1.419-2.505,0.967-4.618,1.057
													c-2.083,0.121-1.419,1.238-1.419,1.238c0.615,0.718,2.01,1.129,2.842,1.319c0.392,0.09,0.789,0.106,1.191,0.104
													c2.034-0.013,4.049,0.899,4.66,0.176C208.226,184.582,207.32,182.289,207.32,182.289z" class="color293a72 svgShape"></path></g><g fill="#f4f6f8" class="color000000 svgShape"><path fill="#938cf7" d="M209.576,160.3c1.566-3.712,0.517-7.475,0.151-8.144l-7.846,3.38
													c0,0-0.557,5.986,1.65,13.517c0.278,0.947,0.434,1.918,0.507,2.903c0.211,2.829,0.594,8.361,0.482,9.691
													c0.563,0.954,1.637,1.082,2.955,0.817c0,0,1.431-6.396,0.886-10.976c-0.194-1.628-0.307-3.264-0.159-4.898
													C208.376,164.669,208.755,162.245,209.576,160.3z" class="color8ca8f7 svgShape"></path></g></g><g fill="#f4f6f8" class="color000000 svgShape"><g fill="#f4f6f8" class="color000000 svgShape"><path fill="#83c1ff" d="M210.538,133.184c-0.764-1.443-0.314-3.115-0.314-3.115l-0.862-3.264
													c0,0-5.108-3.385-6.103-2.947c-1.055,0.465-0.191,5.272-0.191,5.272c-0.007,1.09,0.426,1.508,0.426,1.508l2.224,1.294
													l0.024,1.393C205.743,133.326,211.302,134.627,210.538,133.184z" class="colorffaa83 svgShape"></path></g></g><g fill="#f4f6f8" class="color000000 svgShape"><path fill="#ee42cf" d="M214.095,137.337c1.258-7.046-3.992-6.429-3.992-6.429
												c-0.18,1.537-2.373,1.997-3.914,2.005c-0.568,0-1.123,0.206-1.536,0.577c-0.3,0.269-0.594,0.544-0.926,0.774
												c-0.684,0.474-1.763,1.24-2.252,1.688c-2.648,2.436-1.603,4.78-1.048,6.492c0.47,1.484,1.005,9.986,1.282,13.632
												c0.054,0.712,0.711,1.22,1.413,1.092c2.996-0.546,10.105-2.255,9.973-6.168c-0.042-1.265-0.031-0.635-0.025-1.907
												C213.09,146.501,213.068,143.124,214.095,137.337z" class="coloree428c svgShape"></path></g></g><g fill="#f4f6f8" class="color000000 svgShape"><g fill="#f4f6f8" class="color000000 svgShape"><g fill="#f4f6f8" class="color000000 svgShape"><g fill="#f4f6f8" class="color000000 svgShape"><g fill="#f4f6f8" class="color000000 svgShape"><g fill="#f4f6f8" class="color000000 svgShape"><g fill="#f4f6f8" class="color000000 svgShape"><g fill="#f4f6f8" class="color000000 svgShape"><path fill="#ee42cf" d="M197.47,138.533c1.202-0.972,2.93-2.011,3.559-2.371
																		c1.694-0.968,3.902-0.225,4.109,1.059c0.21,1.284-0.457,2.803-2.15,3.769c-0.555,0.318-2.29,0.96-3.599,1.365
																		C199.835,139.653,197.482,138.538,197.47,138.533z" class="coloree428c svgShape"></path></g></g></g></g></g></g></g></g></g></g><g fill="#f4f6f8" class="color000000 svgShape"><path fill="#2d4c74" d="M211.158,125.988c0.568-2.435-1.444-3.527-2.802-3.567c-0.76-0.025-2.078-0.473-2.843-0.589
									c-3.074-0.468-3.255,2.023-3.129,2.309c0.865,1.997,1.907,2.184,1.907,2.184s0.136,0.654,0.176,1.716l0.745,0.493
									c0.01-0.151,0.015-0.292,0.015-0.423c0.015-0.931,0.242-1.223,1.057-1.243c0.815-0.02,0.282,2.178,0.282,2.178
									s0.064,0.659,0.189,1.48c0.122,0.796,0.937,1.277,1.699,1.015c0.427-0.147,0.857-0.287,1.282-0.423
									c0.978-0.313,1.598-1.278,1.469-2.297C211.087,127.903,210.935,126.942,211.158,125.988z" class="color2d3a74 svgShape"></path></g></g></g><g fill="#f4f6f8" class="color000000 svgShape"><g fill="#f4f6f8" class="color000000 svgShape"><g fill="#f4f6f8" class="color000000 svgShape"><g fill="#f4f6f8" class="color000000 svgShape"><path fill="#643889" d="M175.413,123.042c-0.113-0.066-0.27-0.057-0.443,0.043c-0.344,0.199-0.621,0.679-0.62,1.074
										c0.001,0.196,0.07,0.334,0.182,0.399l28.219,16.399c-0.112-0.065-0.181-0.203-0.181-0.399
										c-0.001-0.395,0.276-0.876,0.62-1.074c0.173-0.1,0.33-0.109,0.443-0.044L175.413,123.042z" class="color385089 svgShape"></path></g></g></g><g fill="#f4f6f8" class="color000000 svgShape"><g fill="#f4f6f8" class="color000000 svgShape"><g fill="#f4f6f8" class="color000000 svgShape"><g fill="#f4f6f8" class="color000000 svgShape"><polygon fill="#0c2340" points="201.595 139.088 201.594 139.705 201.651 143.208 208.951 147.423 208.953 146.806 201.653 142.591" class="color1e3063 svgShape"></polygon></g><g fill="#f4f6f8" class="color000000 svgShape"><rect width=".616" height="6.507" x="211.836" y="140.104" fill="#0c2340" transform="rotate(-89.84 212.15 143.355)" class="color1e3063 svgShape"></rect></g></g><g fill="#f4f6f8" class="color000000 svgShape"><g fill="#f4f6f8" class="color000000 svgShape"><path fill="#643889" d="M215.399,143.061l-6.507-0.023l0.061,3.769l-7.301-4.215l-0.057-3.503
											c-0.002-0.146,0.202-0.265,0.455-0.264l6.048,0.022L215.399,143.061z" class="color385089 svgShape"></path></g></g></g></g></g><g fill="#f4f6f8" class="color000000 svgShape"><path fill="#83c1ff" d="M197.47,138.533l0.002-0.001h0c-0.15,0.085-2.422,1.281-3.186-0.163
							c-0.377-0.718-2.294-2.512-3.463-3.569c-0.229-0.207-0.405-0.463-0.517-0.751c-0.052-0.133-0.107-0.275-0.141-0.387
							l-0.659-0.383c-0.154-0.207-0.169-0.217-0.281-0.507c-0.126-0.325-0.304-0.615-0.458-0.819
							c-0.116-0.148-1.725-0.914-1.859-0.616c-0.35,0.782,0.971,2.392,1.443,3.107c0.205,0.31,0.466,0.612,0.772,0.774
							c0.24,0.141,0.443,0.324,0.639,0.523c0.273,0.326,1.6,2.466,2.373,4.366c0.516,1.279,1.758,2.102,3.134,2.099
							c2.024-0.023,2.688,0.398,4.113,0.152c0.002-0.002,0.004-0.004,0.007-0.007C199.833,139.652,197.482,138.538,197.47,138.533z" class="colorffaa83 svgShape"></path></g></g><g fill="#f4f6f8" class="color000000 svgShape"><g fill="#f4f6f8" class="color000000 svgShape"><g fill="#f4f6f8" class="color000000 svgShape"><g fill="#f4f6f8" class="color000000 svgShape"><polygon fill="#0c2340" points="178.321 226.479 178.29 234.745 170.742 239.131 170.773 230.865" class="color1e3063 svgShape"></polygon></g></g><g fill="#f4f6f8" class="color000000 svgShape"><g fill="#f4f6f8" class="color000000 svgShape"><path fill="#294972" d="M170.773,230.865l-0.031,8.266c-4.892-2.824-12.796-2.824-17.656,0l0.031-8.266
									C157.976,228.041,165.881,228.041,170.773,230.865z" class="color293a72 svgShape"></path></g></g><g fill="#f4f6f8" class="color000000 svgShape"><g fill="#f4f6f8" class="color000000 svgShape"><polygon fill="#5d2e84" points="153.116 230.865 153.085 239.131 145.488 234.745 145.519 226.479" class="color2e4384 svgShape"></polygon></g></g><g fill="#f4f6f8" class="color000000 svgShape"><g fill="#f4f6f8" class="color000000 svgShape"><path fill="#643889" d="M178.321,226.479l-7.548,4.386c-4.892-2.824-12.796-2.824-17.656,0l-7.597-4.386
									C154.547,221.233,169.232,221.232,178.321,226.479z" class="color385089 svgShape"></path></g></g></g><g fill="#f4f6f8" class="color000000 svgShape"><g fill="#f4f6f8" class="color000000 svgShape"><path fill="#ee42cf" d="M185.023,234.057l-0.031,10.953c0.005-1.863-1.224-3.728-3.686-5.149l0.031-10.953
								C183.799,230.329,185.028,232.194,185.023,234.057z" class="coloree428c svgShape"></path></g></g><g fill="#f4f6f8" class="color000000 svgShape"><g fill="#f4f6f8" class="color000000 svgShape"><polygon fill="#ee42cf" points="188.992 243.521 188.961 254.474 181.363 250.088 181.395 239.135" class="coloree428c svgShape"></polygon></g></g><g fill="#f4f6f8" class="color000000 svgShape"><g fill="#f4f6f8" class="color000000 svgShape"><path fill="#a50b89" d="M195.731,234.088l-0.031,10.953c-0.01,3.416-2.255,6.827-6.739,9.434l0.031-10.953
								C193.477,240.915,195.722,237.504,195.731,234.088z" class="colorce296e svgShape"></path></g></g><g fill="#f4f6f8" class="color000000 svgShape"><g fill="#f4f6f8" class="color000000 svgShape"><path fill="#ff65e3" d="M188.885,224.521c9.087,5.246,9.135,13.754,0.107,19l-7.598-4.386
								c4.86-2.824,4.834-7.403-0.058-10.227L188.885,224.521z" class="colorff65a7 svgShape"></path></g></g><g fill="#f4f6f8" class="color000000 svgShape"><g fill="#f4f6f8" class="color000000 svgShape"><g fill="#f4f6f8" class="color000000 svgShape"><g fill="#f4f6f8" class="color000000 svgShape"><path fill="#fd3dda" d="M149.457,244.209l0.031-8.266c0.005-1.839,1.214-3.675,3.628-5.078l-0.031,8.266
										C150.671,240.534,149.462,242.37,149.457,244.209z" class="colorfd9c3d svgShape"></path></g></g><g fill="#f4f6f8" class="color000000 svgShape"><g fill="#f4f6f8" class="color000000 svgShape"><path fill="#57aafe" d="M138.747,244.178l0.031-8.266c-0.01,3.46,2.274,6.926,6.848,9.566l-0.031,8.266
										C141.021,251.104,138.737,247.639,138.747,244.178z" class="colorfebd57 svgShape"></path></g></g><g fill="#f4f6f8" class="color000000 svgShape"><g fill="#f4f6f8" class="color000000 svgShape"><path fill="#58abff" d="M153.116,230.865c-4.86,2.824-4.834,7.403,0.058,10.227l-7.548,4.386
										c-9.088-5.247-9.136-13.753-0.107-19L153.116,230.865z" class="colorffda58 svgShape"></path></g></g></g><g fill="#f4f6f8" class="color000000 svgShape"><g fill="#f4f6f8" class="color000000 svgShape"><polygon fill="#ef2ecc" points="153.174 241.092 153.143 249.358 145.595 253.745 145.626 245.479" class="coloref852e svgShape"></polygon></g><g fill="#f4f6f8" class="color000000 svgShape"><g fill="#f4f6f8" class="color000000 svgShape"><g fill="#f4f6f8" class="color000000 svgShape"><path fill="#00459b" d="M178.428,245.479l-0.031,8.266c-9.029,5.247-23.715,5.246-32.802,0l0.031-8.266
											C154.713,250.725,169.398,250.726,178.428,245.479z" class="color009b85 svgShape"></path></g></g><g fill="#f4f6f8" class="color000000 svgShape"><g fill="#f4f6f8" class="color000000 svgShape"><path fill="#0e00dd" d="M170.83,241.092l7.598,4.386c-9.029,5.247-23.715,5.246-32.802,0l7.548-4.386
											C158.066,243.917,165.97,243.917,170.83,241.092z" class="color00ddc4 svgShape"></path></g></g></g></g></g></g><g fill="#f4f6f8" class="color000000 svgShape"><g fill="#f4f6f8" class="color000000 svgShape"><g fill="#f4f6f8" class="color000000 svgShape"><g fill="#f4f6f8" class="color000000 svgShape"><g fill="#f4f6f8" class="color000000 svgShape"><g fill="#f4f6f8" class="color000000 svgShape"><g fill="#f4f6f8" class="color000000 svgShape"><g fill="#f4f6f8" class="color000000 svgShape"><path fill="#5046e4" d="M74.465,213.125l0.007,1.843c0,0.606,0.4,1.214,1.196,1.675l33.313,19.359
													c1.605,0.934,4.214,0.934,5.831,0l47.582-27.471c0.814-0.47,1.219-1.085,1.216-1.7l-0.004-1.838
													c0,0.615-0.407,1.228-1.216,1.696l-47.582,27.471c-1.617,0.934-4.228,0.934-5.833,0l-33.311-19.358
													C74.867,214.337,74.467,213.731,74.465,213.125z" class="color4c4dc3 svgShape"></path></g></g><g fill="#f4f6f8" class="color000000 svgShape"><g fill="#f4f6f8" class="color000000 svgShape"><path fill="#9e99ef" d="M75.684,211.423c-1.617,0.933-1.625,2.445-0.02,3.378l33.312,19.359
													c1.605,0.933,4.215,0.933,5.832-0.001l47.583-27.472c1.615-0.933,1.624-2.445,0.019-3.377l-33.312-19.359
													c-1.605-0.933-4.215-0.933-5.83,0L75.684,211.423z" class="color9999ef svgShape"></path></g><g fill="#f4f6f8" class="color000000 svgShape"><polygon fill="#f4f6f8" points="126.187 184.755 77.061 213.119 111.884 233.356 161.011 204.993" class="colorffffff svgShape"></polygon></g></g></g></g></g></g></g><g fill="#f4f6f8" class="color000000 svgShape"><g fill="#f4f6f8" class="color000000 svgShape"><g fill="#f4f6f8" class="color000000 svgShape"><polygon fill="#ee42cf" points="151.537 203.76 116.894 223.893 107.094 218.235 110.147 211.515 119.403 208.119 121.237 201.519 131.227 199.171 128.569 190.499" class="coloree428c svgShape"></polygon></g></g><g fill="#f4f6f8" class="color000000 svgShape"><g fill="#f4f6f8" class="color000000 svgShape"><polygon fill="#58abff" points="151.537 203.76 116.894 223.893 110.919 220.443 113.972 213.723 123.228 210.327 125.062 203.728 135.052 201.38 132.394 192.708" class="colorffda58 svgShape"></polygon></g></g><g fill="#f4f6f8" class="color000000 svgShape"><g fill="#f4f6f8" class="color000000 svgShape"><polygon fill="#635be0" points="153.796 205.065 119.153 225.197 116.337 223.571 119.39 216.851 128.646 213.455 130.48 206.856 140.47 204.508 137.812 195.836" class="color5b93e0 svgShape"></polygon></g></g></g><g fill="#f4f6f8" class="color000000 svgShape"><g fill="#f4f6f8" class="color000000 svgShape"><g fill="#f4f6f8" class="color000000 svgShape"><polygon fill="#c2ddf9" points="99.142 211.991 91.202 216.606 89.723 215.752 97.663 211.137" class="colorc2d3f9 svgShape"></polygon></g></g><g fill="#f4f6f8" class="color000000 svgShape"><g fill="#f4f6f8" class="color000000 svgShape"><polygon fill="#c2ddf9" points="99.436 208.383 88.234 214.892 86.755 214.038 97.957 207.529" class="colorc2d3f9 svgShape"></polygon></g></g><g fill="#f4f6f8" class="color000000 svgShape"><g fill="#f4f6f8" class="color000000 svgShape"><polygon fill="#c2ddf9" points="96.469 206.669 85.267 213.179 83.788 212.325 94.99 205.815" class="colorc2d3f9 svgShape"></polygon></g></g></g></g><g fill="#f4f6f8" class="color000000 svgShape"><g fill="#f4f6f8" class="color000000 svgShape"><path fill="#57aafe" d="M151.077,62.269l10.034,5.793l0.021-6.729C161.132,61.333,158.596,65.893,151.077,62.269z" class="colorfebd57 svgShape"></path></g></g></g><g fill="#f4f6f8" class="color000000 svgShape"><g fill="#f4f6f8" class="color000000 svgShape"><g fill="#f4f6f8" class="color000000 svgShape"><g fill="#f4f6f8" class="color000000 svgShape"><g fill="#f4f6f8" class="color000000 svgShape"><g fill="#f4f6f8" class="color000000 svgShape"><g fill="#f4f6f8" class="color000000 svgShape"><path fill="#9e99ef" d="M260.862,72.298l-0.075,26.997c-0.001,0.626-0.223,1.068-0.58,1.276l-0.868,0.505
											c0.357-0.208,0.579-0.649,0.58-1.277l0.075-26.995c0.003-1.264-0.887-2.803-1.985-3.438l-32.389-18.699
											c-0.554-0.32-1.056-0.349-1.417-0.139l0.868-0.505c0.362-0.209,0.863-0.18,1.417,0.139l32.389,18.701
											C259.976,69.496,260.865,71.035,260.862,72.298z" class="color9999ef svgShape"></path></g></g><g fill="#f4f6f8" class="color000000 svgShape"><g fill="#f4f6f8" class="color000000 svgShape"><path fill="#5046e4" d="M258.009,69.366c1.099,0.635,1.989,2.174,1.985,3.438l-0.074,26.996
											c-0.004,1.264-0.899,1.773-1.998,1.138l-32.39-18.7c-1.1-0.635-1.988-2.174-1.984-3.437l0.074-26.996
											c0.004-1.264,0.898-1.773,1.997-1.138L258.009,69.366z" class="color4c4dc3 svgShape"></path></g><g fill="#f4f6f8" class="color000000 svgShape"><polygon fill="#f4f6f8" points="225.118 52.105 225.041 80.224 258.424 99.497 258.5 71.379" class="colorffffff svgShape"></polygon></g></g></g></g></g></g><g fill="#f4f6f8" class="color000000 svgShape"><g fill="#f4f6f8" class="color000000 svgShape"><g fill="#f4f6f8" class="color000000 svgShape"><path fill="#ff65e3" d="M254.49,70.505c0.671,0.388,1.214,1.327,1.211,2.099c-0.002,0.771-0.548,1.083-1.219,0.695
								c-0.25-0.145-0.483-0.366-0.676-0.627c-0.125-0.169-0.234-0.355-0.32-0.547c-0.137-0.306-0.217-0.628-0.216-0.925
								C253.273,70.429,253.819,70.118,254.49,70.505z" class="colorff65a7 svgShape"></path></g></g><g fill="#f4f6f8" class="color000000 svgShape"><g fill="#f4f6f8" class="color000000 svgShape"><path fill="#0c00bf" d="M254.462,80.552c0.671,0.388,1.214,1.327,1.211,2.098c-0.002,0.772-0.548,1.083-1.219,0.695
								c-0.25-0.145-0.483-0.366-0.676-0.626c-0.125-0.169-0.234-0.354-0.32-0.546c-0.137-0.306-0.217-0.628-0.216-0.925
								C253.245,80.476,253.791,80.165,254.462,80.552z" class="color00bfad svgShape"></path></g></g><g fill="#f4f6f8" class="color000000 svgShape"><g fill="#f4f6f8" class="color000000 svgShape"><g fill="#f4f6f8" class="color000000 svgShape"><path fill="#643889" d="M237.687,77.8c0.072-0.108,0.122-0.246,0.142-0.411l7.588,8.107
									c-0.089,0.087-0.157,0.205-0.197,0.352L237.687,77.8z" class="color385089 svgShape"></path></g></g><g fill="#f4f6f8" class="color000000 svgShape"><g fill="#f4f6f8" class="color000000 svgShape"><path fill="#0c00bf" d="M246.396,85.494c0.213,0.123,0.412,0.301,0.585,0.511c0.133,0.161,0.251,0.342,0.347,0.531
									c0.175,0.344,0.28,0.716,0.279,1.056c-0.002,0.772-0.548,1.083-1.219,0.695c-0.671-0.387-1.214-1.327-1.211-2.099
									c0-0.126,0.015-0.24,0.043-0.341c0.04-0.147,0.108-0.265,0.197-0.352C245.64,85.281,245.996,85.263,246.396,85.494z" class="color00bfad svgShape"></path></g></g><g fill="#f4f6f8" class="color000000 svgShape"><g fill="#f4f6f8" class="color000000 svgShape"><path fill="#ff65e3" d="M246.425,75.447c0.213,0.123,0.412,0.301,0.586,0.511c0.133,0.161,0.25,0.341,0.347,0.53
									c0.175,0.344,0.28,0.717,0.279,1.057c-0.002,0.771-0.548,1.083-1.219,0.695c-0.671-0.387-1.214-1.327-1.211-2.098
									c0-0.127,0.015-0.241,0.043-0.341c0.041-0.147,0.108-0.265,0.197-0.352C245.668,75.233,246.024,75.216,246.425,75.447z" class="colorff65a7 svgShape"></path></g></g><g fill="#f4f6f8" class="color000000 svgShape"><g fill="#f4f6f8" class="color000000 svgShape"><path fill="#643889" d="M253.459,82.173c0.086,0.192,0.195,0.377,0.32,0.546l-6.45,3.817
									c-0.096-0.189-0.214-0.369-0.347-0.531L253.459,82.173z" class="color385089 svgShape"></path></g></g></g><g fill="#f4f6f8" class="color000000 svgShape"><g fill="#f4f6f8" class="color000000 svgShape"><path fill="#643889" d="M253.487,72.126c0.086,0.192,0.195,0.378,0.32,0.547l-6.45,3.817
								c-0.096-0.189-0.214-0.369-0.347-0.53L253.487,72.126z" class="color385089 svgShape"></path></g></g><g fill="#f4f6f8" class="color000000 svgShape"><g fill="#f4f6f8" class="color000000 svgShape"><path fill="#ff65e3" d="M236.658,65.067c0.672,0.388,1.214,1.326,1.211,2.098c0,0.062-0.004,0.122-0.011,0.178
								c-0.021,0.165-0.07,0.303-0.142,0.41c-0.208,0.31-0.608,0.371-1.066,0.107c-0.296-0.171-0.566-0.449-0.777-0.772
								c-0.115-0.177-0.212-0.369-0.285-0.563c-0.096-0.256-0.15-0.518-0.149-0.762C235.441,64.99,235.987,64.68,236.658,65.067z" class="colorff65a7 svgShape"></path></g></g><g fill="#f4f6f8" class="color000000 svgShape"><g fill="#f4f6f8" class="color000000 svgShape"><g fill="#f4f6f8" class="color000000 svgShape"><path fill="#643889" d="M235.559,76.571c0.073,0.195,0.17,0.386,0.285,0.563l-4.8,2.146
									c-0.085-0.193-0.193-0.379-0.318-0.549L235.559,76.571z" class="color385089 svgShape"></path></g></g><g fill="#f4f6f8" class="color000000 svgShape"><g fill="#f4f6f8" class="color000000 svgShape"><path fill="#0c00bf" d="M230.045,78.098c0.253,0.146,0.487,0.37,0.681,0.634c0.125,0.17,0.233,0.356,0.318,0.549
									c0.134,0.303,0.213,0.622,0.212,0.916c-0.002,0.771-0.548,1.082-1.219,0.695c-0.671-0.387-1.214-1.327-1.211-2.098
									C228.828,78.021,229.374,77.71,230.045,78.098z" class="color00bfad svgShape"></path></g></g><g fill="#f4f6f8" class="color000000 svgShape"><g fill="#f4f6f8" class="color000000 svgShape"><path fill="#0c00bf" d="M236.629,75.114c0.671,0.388,1.214,1.327,1.211,2.099c0,0.062-0.004,0.121-0.011,0.177
									c-0.021,0.165-0.07,0.303-0.142,0.411c-0.208,0.31-0.608,0.371-1.066,0.107c-0.296-0.171-0.567-0.449-0.777-0.773
									c-0.115-0.177-0.212-0.369-0.285-0.563c-0.096-0.256-0.15-0.517-0.149-0.762C235.412,75.038,235.958,74.726,236.629,75.114z
									" class="color00bfad svgShape"></path></g></g></g><g fill="#f4f6f8" class="color000000 svgShape"><g fill="#f4f6f8" class="color000000 svgShape"><path fill="#643889" d="M237.716,67.754c0.072-0.108,0.122-0.246,0.142-0.41l7.587,8.106
								c-0.089,0.087-0.157,0.205-0.197,0.352L237.716,67.754z" class="color385089 svgShape"></path></g></g><g fill="#f4f6f8" class="color000000 svgShape"><g fill="#f4f6f8" class="color000000 svgShape"><g fill="#f4f6f8" class="color000000 svgShape"><path fill="#ff65e3" d="M230.074,68.05c0.253,0.146,0.487,0.37,0.681,0.634c0.125,0.17,0.233,0.356,0.318,0.549
									c0.134,0.303,0.213,0.621,0.212,0.916c-0.002,0.772-0.548,1.083-1.219,0.695c-0.671-0.387-1.214-1.326-1.211-2.098
									C228.857,67.974,229.403,67.663,230.074,68.05z" class="colorff65a7 svgShape"></path></g></g><g fill="#f4f6f8" class="color000000 svgShape"><g fill="#f4f6f8" class="color000000 svgShape"><path fill="#643889" d="M235.588,66.524c0.073,0.195,0.17,0.386,0.285,0.563l-4.8,2.145
									c-0.085-0.193-0.193-0.379-0.318-0.549L235.588,66.524z" class="color385089 svgShape"></path></g></g></g></g></g></g><g fill="#f4f6f8" class="color000000 svgShape"><g fill="#f4f6f8" class="color000000 svgShape"><circle cx="87.539" cy="84.354" r="7.857" fill="#dcedff" transform="rotate(-45.001 87.539 84.356)" class="colordce7ff svgShape"></circle></g><g fill="#f4f6f8" class="color000000 svgShape"><path fill="#dcedff" d="M202.039,75.287c0,2.406-1.95,4.356-4.356,4.356c-2.406,0-4.356-1.95-4.356-4.356
					s1.95-4.356,4.356-4.356C200.088,70.931,202.039,72.881,202.039,75.287z" class="colordce7ff svgShape"></path></g><g fill="#f4f6f8" class="color000000 svgShape"><circle cx="297.388" cy="197.282" r="3.29" fill="#8ec6fe" class="color8ec2fe svgShape"></circle></g><g fill="#f4f6f8" class="color000000 svgShape"><circle cx="294.111" cy="43.863" r="3.29" fill="#ee42cf" class="coloree428c svgShape"></circle></g><g fill="#f4f6f8" class="color000000 svgShape"><path fill="#ff65e3" d="M213.141,43.385l7.551-6.416c0.962-0.815,1.079-2.26,0.264-3.221l-6.417-7.553
					c-0.816-0.96-2.261-1.078-3.221-0.262l-7.551,6.415c-0.96,0.816-1.079,2.26-0.262,3.221l6.415,7.552
					C210.735,44.083,212.181,44.2,213.141,43.385z M204.998,34.302c-0.117-0.137-0.099-0.344,0.037-0.46l7.551-6.415
					c0.137-0.117,0.344-0.1,0.46,0.037l6.417,7.553c0.116,0.137,0.099,0.344-0.037,0.46l-7.553,6.415
					c-0.137,0.117-0.344,0.1-0.46-0.037L204.998,34.302z" class="colorff65a7 svgShape"></path></g><g fill="#f4f6f8" class="color000000 svgShape"><path fill="#83c1ff" d="M229.728,36.91l-7.557,6.41c-0.958,0.813-2.405,0.701-3.217-0.257l-6.41-7.557
					c-0.822-0.964-0.701-2.405,0.257-3.217l7.548-6.417c0.964-0.822,2.414-0.694,3.227,0.264l6.417,7.548
					C230.805,34.642,230.693,36.088,229.728,36.91z" class="colorffaa83 svgShape"></path></g><g fill="#f4f6f8" class="color000000 svgShape"><path fill="#8ec6fe" d="M130.264,257.008l-7.133-3.988c-0.907-0.509-2.058-0.183-2.565,0.724l-3.989,7.135
					c-0.507,0.907-0.182,2.058,0.725,2.565l7.133,3.988c0.907,0.507,2.058,0.183,2.565-0.725l3.989-7.133
					C131.496,258.667,131.171,257.516,130.264,257.008z M125.59,265.918c-0.072,0.13-0.237,0.176-0.367,0.104l-7.133-3.988
					c-0.129-0.072-0.176-0.237-0.104-0.366l3.989-7.135c0.073-0.13,0.237-0.176,0.367-0.104l7.133,3.99
					c0.13,0.072,0.176,0.237,0.104,0.366L125.59,265.918z" class="color8ec2fe svgShape"></path></g><g fill="#f4f6f8" class="color000000 svgShape"><path fill="#0e00dd" d="M267.88,236.798l-6.355-3.553c-0.808-0.453-1.833-0.163-2.285,0.645l-3.554,6.356
					c-0.452,0.808-0.162,1.834,0.646,2.285l6.355,3.553c0.808,0.452,1.833,0.163,2.285-0.646l3.554-6.355
					C268.978,238.275,268.688,237.249,267.88,236.798z M263.716,244.735c-0.065,0.115-0.211,0.157-0.326,0.092l-6.355-3.553
					c-0.116-0.064-0.157-0.211-0.092-0.326l3.554-6.356c0.065-0.115,0.211-0.157,0.327-0.092l6.355,3.555
					c0.116,0.064,0.157,0.211,0.092,0.327L263.716,244.735z" class="color00ddc4 svgShape"></path></g></g></g><g fill="#f4f6f8" class="color000000 svgShape"><path fill="#0c00bf" d="M66.763,185.645c0,1.703-1.381,3.084-3.084,3.084c-1.703,0-3.084-1.381-3.084-3.084
			c0-1.703,1.381-3.084,3.084-3.084C65.382,182.561,66.763,183.942,66.763,185.645z" class="color00bfad svgShape"></path></g></g></svg>