<svg xmlns="http://www.w3.org/2000/svg" enable-background="new 0 0 50 50" viewBox="0 0 50 50" id="Megaphone"><path fill="#5046e4" d="M32.25249,43.95242c-3.30364,0-5.36611-2.74562-5.37954-7.16531
		c-0.01848-6.99441,4.91935-15.5449,11.00765-19.06038c1.6409-0.94705,3.25661-1.44755,4.67246-1.44755
		c3.30532,0,5.36443,2.74562,5.37786,7.16551c0.02015,6.99399-4.91767,15.54407-11.00597,19.05996
		C35.28404,43.45171,33.66833,43.95242,32.25249,43.95242z" class="colord4dbe9 svgShape"></path><path fill="#f4f6f8" d="M40.79408,19.77335c-0.00357-1.17287-0.15504-2.22303-0.43163-3.14016
			c-0.8053,0.24357-1.63964,0.60752-2.48182,1.09372c-6.08833,3.51535-11.02615,12.066-11.00771,19.06016
			c0.00357,1.17241,0.15533,2.22303,0.43228,3.13969c0.80565-0.24357,1.64034-0.60752,2.48293-1.09372
			C35.8764,35.31722,40.81422,26.76704,40.79408,19.77335z" class="colorb4bed7 svgShape"></path><g fill="#000000" class="color000000 svgShape"><path fill="#384352" d="M9.14933,33.08824l3.02489-1.75786c-0.86465,0.50247-3.45209,2.6868,0.78094,9.56735l-3.02489,1.75789
						C5.69724,35.77505,8.28469,33.59072,9.14933,33.08824z" class="color384052 svgShape"></path><path fill="#384352" d="M11.53486,25.27915l3.02487-1.75786c-0.16129,0.10029-3.22611,2.00613-2.14435,7.6875l-3.02491,1.75789
						C8.30873,27.2853,11.37356,25.37945,11.53486,25.27915z" class="color384052 svgShape"></path><polygon fill="#0c2340" points="11.545 21.585 14.57 19.827 14.56 23.521 11.535 25.279" class="color282e3a svgShape"></polygon><polygon fill="#6822a2" points="4.412 17.466 7.437 15.708 14.57 19.827 11.545 21.585" class="color4d5772 svgShape"></polygon><path fill="#6822a2" d="M4.41163,17.46601c1.87603,3.07011,1.23065,5.08698,0.6946,6.53082
					c-1.46329,3.94131-1.99535,7.66653-1.52531,12.4886c0.2107,2.1613,2.51911,4.4656,4.50246,5.34856
					c1.85088,0.82428,1.82764,0.8139,1.84685,0.82159c-4.84485-7.8754-0.75504-9.59802-0.53971-9.68883
					c-1.08179-5.68127,1.983-7.5869,2.14436-7.6875l0.01048-3.69461L4.41163,17.46601z" class="color4d5772 svgShape"></path></g><path fill="#6822a2" d="M15.10241,9.26339c-0.7571-0.44174-1.79174-0.37828-2.93989,0.29018
							c-2.29639,1.31227-4.13857,4.51716-4.13857,7.14169c0.01263,1.31227,0.46692,2.23332,1.21131,2.66212L2.09886,15.206
							c-0.74447-0.42941-1.19868-1.35046-1.19868-2.64979C0.88756,9.93167,2.72974,6.72678,5.02613,5.40219
							c1.14816-0.65613,2.1828-0.71959,2.93982-0.29018L15.10241,9.26339z" enable-background="new" class="color4d5772 svgShape"></path><path fill="#ed5ed3" d="M22.64266,11.39302c-1.04422-0.60926-2.47125-0.52174-4.05484,0.40023
							c-3.16729,1.80994-5.70811,6.23028-5.70811,9.85016c0.01742,1.80994,0.64399,3.0803,1.67069,3.67172l-9.84284-5.72578
							c-1.0268-0.59227-1.65327-1.86263-1.65327-3.65472c-0.01742-3.61988,2.5234-8.04022,5.69069-9.86715
							c1.58359-0.90497,3.01062-0.99249,4.05474-0.40023L22.64266,11.39302z" enable-background="new" class="colored5e72 svgShape"></path><path fill="#a50b89" d="M22.64266,11.39302l-9.84294-5.72578c-0.91421-0.51834-2.13072-0.4784-3.4801,0.13766l9.83838,5.72323
					C20.50918,10.89847,21.72739,10.85854,22.64266,11.39302z" class="colore44555 svgShape"></path><g fill="#000000" class="color000000 svgShape"><path fill="#ed5ed3" d="M41.23409,27.70256c0.26842,1.90775-0.73757,4.40235-2.24712,5.57167
							c-1.50957,1.16932-2.95082,0.57037-3.21924-1.33738c-0.26842-1.90774,0.73763-4.40196,2.24719-5.57129
							C39.52447,25.19625,40.96567,25.79482,41.23409,27.70256z" class="colored5e72 svgShape"></path><path fill="#f4f6f8" d="M35.7677,31.93686c-0.26844-1.90772,0.73763-4.40195,2.2473-5.57138
								c0.93728-0.72601,1.84789-0.76941,2.46804-0.24183l0.00055-0.00099L29.11888,13.60015l-9.07225,15.3439l16.76097,4.76679
								l0.00203-0.00415C36.28049,33.43572,35.89384,32.83284,35.7677,31.93686z" class="colore3e6f0 svgShape"></path><path fill="#91c2f4" d="M40.23221,25.84571c-0.66082-0.72827-1.75898-0.85197-2.56317-0.28605
							c-0.05867,0.0411-0.11754,0.08466-0.17657,0.13028c-1.75096,1.35626-2.87896,4.15097-2.56764,6.36208
							c0.00062,0.00452,0.00129,0.00945,0.00195,0.01397c0.10429,0.72621,0.67232,1.30119,1.37824,1.50175l0.50259,0.14302
							l0.002-0.00411c-0.52914-0.27084-0.91578-0.87376-1.0419-1.76971c-0.26842-1.9078,0.73762-4.40208,2.24728-5.57134
							c0.93731-0.72621,1.8479-0.76937,2.46808-0.24207l0.00051-0.00082L40.23221,25.84571z" class="colorf491ab svgShape"></path><path fill="#91c2f4" d="M45.68171,15.86132c-2.12318-1.23552-5.06422-1.06132-8.31851,0.8183
							c-6.45641,3.72355-11.6772,12.77326-11.65978,20.18637c0.01742,3.68956,1.3052,6.28296,3.41095,7.50148l-1.83957-1.05917
							c-2.10565-1.21767-3.39353-3.81107-3.41085-7.50063c-0.01742-7.43011,5.20337-16.46282,11.65968-20.20421
							c3.25439-1.87962,6.19533-2.05382,8.3185-0.8183L45.68171,15.86132z" class="colorf491ab svgShape"></path><g fill="#000000" class="color000000 svgShape"><path fill="#f4f6f8" d="M35.52364,15.60367c2.02594-1.17021,3.9299-1.67807,5.59121-1.59783
							c0.00093,0,0.00249-0.001,0.00336-0.001l-18.53505-2.64743l-0.00361,0.00598
							c-1.03347-0.56617-2.44328-0.47347-4.00005,0.42562c-3.15429,1.8211-5.70353,6.23631-5.69319,9.86057
							c0.00542,1.89636,0.7211,3.1812,1.84447,3.73291l10.36319,15.69418c-0.00243-0.00598,0.002-0.02392,0.0005-0.03189
							c-0.77368-1.34664-1.22049-3.10146-1.23052-5.23705C23.84651,28.37781,29.0673,19.34505,35.52364,15.60367z" class="colore3e6f0 svgShape"></path></g><g fill="#000000" class="color000000 svgShape"><path fill="#ed5ed3" d="M37.36491,16.67535c-6.46018,3.72941-11.68097,12.77094-11.65995,20.19415
								c0.02108,7.42321,5.276,10.41629,11.73619,6.68642c6.46018-3.7294,11.67969-12.77,11.65867-20.19369
								C49.07874,15.93902,43.8251,12.94547,37.36491,16.67535z M47.44443,27.49962
								c-0.10656,0.45903-0.22969,0.91947-0.36852,1.37944c-1.66569,5.5201-5.58474,10.98868-10.151,13.62577
								c-0.66396,0.38315-1.31966,0.67262-1.96383,0.90589c-0.94775,0.34334-1.86564,0.54147-2.70858,0.54147
								c-0.16652,0-0.32753-0.01171-0.4876-0.02529c-0.0349-0.00328-0.07178-0.00187-0.10633-0.00562
								c-2.95491-0.31289-4.773-2.98558-4.78565-7.13421c-0.01844-6.99416,4.91938-15.54481,11.00771-19.06016
								c1.64087-0.94711,3.25661-1.44783,4.67241-1.44783c2.61315,0,4.44231,1.72137,5.10264,4.62405
								c0.00521,0.02248,0.01106,0.0445,0.01616,0.06745c0.07641,0.34755,0.13589,0.71197,0.17828,1.09231
								c0.00703,0.0623,0.01194,0.12647,0.01803,0.18923c0.03654,0.38409,0.06148,0.77848,0.06277,1.19255l0,0l0,0l0,0
								C47.93473,24.7562,47.76417,26.12205,47.44443,27.49962z" class="colored5e72 svgShape"></path></g></g></svg>