<svg xmlns="http://www.w3.org/2000/svg" enable-background="new 0 0 67 67" viewBox="0 0 67 67" id="MobileApps"><g fill="#010001" class="color000000 svgShape"><path fill="#f4f6f8" d="M15.002346,65.3032837l-4.2888327-2.4923935
											c-0.2210722-0.1284752-0.3583012-0.4016762-0.3594027-0.79002l4.2888317,2.4923973
											C14.6440439,64.9016113,14.7812729,65.1748123,15.002346,65.3032837z" class="color8d9799 svgShape"></path><path fill="#a0a5aa" d="M34.3277245,1.6967165l4.2888298,2.4923971
											c-0.2236862-0.1299944-0.5332146-0.1118188-0.8744202,0.085175l-4.2888298-2.4923968
											C33.7945061,1.5848981,34.1040344,1.5667226,34.3277245,1.6967165z" class="colora0a8aa svgShape"></path><polygon fill="#a0a5aa" points="14.643 64.513 10.354 62.021 10.237 16.603 14.526 19.095" class="colora0a8aa svgShape"></polygon><polygon fill="#867e8c" points="14.643 64.513 10.354 62.021 10.267 27.252 14.556 29.744" class="color7e8a8c svgShape"></polygon><polygon fill="#6822a2" points="14.643 64.513 10.354 62.021 10.298 41.043 14.587 43.535" class="color6d797a svgShape"></polygon><polygon fill="#a0a5aa" points="15.752 16.97 11.463 14.478 33.453 1.782 37.742 4.274" class="colora0a8aa svgShape"></polygon><polygon fill="#f4f6f8" points="15.752 16.97 11.463 14.478 28.646 4.557 32.935 7.05" class="color8d9799 svgShape"></polygon><polygon fill="#a0a5aa" points="15.752 16.97 11.463 14.478 19.032 10.108 23.321 12.6" class="colora0a8aa svgShape"></polygon><path fill="#f4f6f8" d="M14.5260983,19.0952492l-4.2888317-2.4923954
											c-0.0022144-0.7812634,0.5473852-1.7332096,1.2258015-2.1248932l4.2888308,2.4923973
											C15.0734835,17.3620415,14.5238829,18.3139877,14.5260983,19.0952492z" class="color8d9799 svgShape"></path><path fill="#424043" d="M37.7421341,4.2742887c0.6784172-0.3916836,1.2316093-0.0764356,1.2338257,0.7048273
											l0.1168442,45.4180183c0.0022125,0.7812881-0.5473862,1.733223-1.2258034,2.1249046L15.8767662,65.2181091
											c-0.6784153,0.3916779-1.2316084,0.0764465-1.2338238-0.7048416l-0.1168442-45.4180183
											c-0.0022154-0.7812614,0.5473852-1.7332077,1.2258005-2.1248913L37.7421341,4.2742887z" class="color434240 svgShape"></path></g><path fill="#f4f6f8" d="M36.3815613,9.2519426c0.246563-0.142354,0.4489479-0.0287361,0.4497604,0.2580128
									l0.0905609,36.1475334c0.0008087,0.285038-0.2002678,0.6316071-0.4468307,0.7739601L17.2373352,57.5383492
									c-0.2465591,0.1423531-0.4489479,0.0287247-0.4497547-0.2563133l-0.0905628-36.1475334
									c-0.0008144-0.2867489,0.2002697-0.6333084,0.4468288-0.7756596L36.3815613,9.2519426z" class="colorffffff svgShape"></path><path fill="#c0c2c4" d="M28.4816818,53.2417564l0.8502731,0.4941254
										c-0.2632751-0.1529999-0.6279125-0.1313705-1.0304661,0.1010437l-0.8502731-0.4941216
										C27.8537693,53.1103859,28.2184067,53.0887566,28.4816818,53.2417564z" class="colorc4c2c0 svgShape"></path><path fill="#e6e7e9" d="M27.2814693,57.2653809l-0.8502731-0.4941254
										c-0.2600327-0.1511154-0.4213047-0.4724388-0.4225998-0.9288864
										c-0.0026054-0.9192162,0.6433983-2.0381355,1.4426193-2.4995651l0.8502731,0.4941216
										c-0.799221,0.4614334-1.4452248,1.5803528-1.4426193,2.4995689
										C26.8601627,56.7929382,27.0214367,57.1142654,27.2814693,57.2653809z" class="colore9e8e6 svgShape"></path><path fill="#c0c2c4" d="M27.2874432,57.2608452l-0.8547211-0.483757
										c-0.2579727-0.1612206-0.4192905-0.483757-0.4192905-0.9353333l0.8385792,0.4999008
										C26.8681526,56.7932281,27.0293732,57.1157684,27.2874432,57.2608452z" class="colorc4c2c0 svgShape"></path><path fill="#afb0b2" d="M28.3014889,53.8369255c0.7999668-0.4618607,1.4501934-0.09132,1.4527988,0.8278999
										c0.0026035,0.9183731-0.6433964,2.0381355-1.4433651,2.4999962
										c-0.799221,0.4614296-1.4494495,0.0900459-1.4520531-0.8283272
										C26.8562641,55.4172783,27.5022678,54.2983589,28.3014889,53.8369255z" class="colorb2b0af svgShape"></path><g fill="#010001" class="color000000 svgShape"><path fill="#f4f6f8" d="M30.4798794,10.2555943c0.0181713,0.050312,0.0301285,0.107481,0.0301285,0.1750917
									c0.002327,0.1638355-0.0561848,0.3440561-0.1497936,0.5078917
									c-0.0912819,0.1614923-0.2223473,0.3019152-0.3627701,0.3838253l-6.7522526,3.8992243
									c-0.1111813,0.063797-0.2139473,0.0813112-0.2987289,0.0610399
									c0.0698814,0.1945343,0.2624454,0.2549028,0.4898205,0.1244373l6.7522526-3.8992243
									c0.1404228-0.0819101,0.2714882-0.222333,0.3627701-0.3838253c0.0936089-0.1638355,0.1521206-0.3440561,0.1497936-0.5078917
									C30.7010994,10.4150581,30.6133308,10.287221,30.4798794,10.2555943z" class="colorffffff svgShape"></path><path fill="#afb0b2" d="M23.2451916,15.2216272l6.7522526-3.8992243
									c0.1404228-0.0819101,0.2714882-0.222333,0.3627701-0.3838253c0.0936089-0.1638355,0.1521206-0.3440561,0.1497936-0.5078917
									c0-0.0676107-0.0119572-0.1247797-0.0301285-0.1750917c-0.0839672-0.0198994-0.1857491-0.002286-0.2960281,0.060997
									l-6.7499104,3.89921c-0.142765,0.0819254-0.2714882,0.2223473-0.3651123,0.3838396
									c-0.095953,0.1638355-0.1521225,0.346385-0.1521225,0.5102205c0,0.0667248,0.0118847,0.1230516,0.0297565,0.1728058
									C23.0312443,15.3029385,23.1340103,15.2854242,23.2451916,15.2216272z" class="colorb2b0af svgShape"></path></g><g fill="#010001" class="color000000 svgShape"><path fill="#f4f6f8" d="M34.1535606,3.7259336c-0.6358452-0.3609288-1.6842308-0.3609288-2.320076,0
								c-0.5670395,0.3265247-0.6358471,0.8248601-0.2062149,1.1857891
								c0.0516052-0.0516062,0.1203098-0.1031079,0.2062149-0.1547141c0.6358452-0.3608236,1.6842308-0.3608236,2.320076,0
								c0.0687027,0.0516062,0.1374054,0.1031079,0.2062149,0.1547141
								C34.7722054,4.5507936,34.7035027,4.0524583,34.1535606,3.7259336z" class="colorffffff svgShape"></path><path fill="#424043" d="M31.8334846,4.7570086c-0.0859051,0.0516062-0.1546097,0.1031079-0.2062149,0.1547141
								c0.0516052,0.0515013,0.1203098,0.1031075,0.2062149,0.1546087c0.6530495,0.3781309,1.6842308,0.3781309,2.320076,0
								c0.0687027-0.0342994,0.1374054-0.0859056,0.2062149-0.1374068V4.9117227
								c-0.0688095-0.0516062-0.1375122-0.1031079-0.2062149-0.1547141
								C33.5177155,4.3961849,32.4693298,4.3961849,31.8334846,4.7570086z" class="color434240 svgShape"></path></g><g fill="#010001" class="color000000 svgShape"><g fill="#010001" class="color000000 svgShape"><path fill="#9cbee1" d="M18.9796772,42.5901184l-0.7585258-0.4408035
								c-0.0718555-0.0417595-0.1162758-0.1307907-0.1166344-0.2576218l0.7585239,0.4408073
								C18.8634014,42.4593277,18.9078217,42.5483589,18.9796772,42.5901184z" class="colore19cbd svgShape"></path><path fill="#b5d1ed" d="M22.3864326,34.9372673l0.7585182,0.4408112
								c-0.0726871-0.0422478-0.1731491-0.036438-0.2843742,0.0277748l-0.7585239-0.4408073
								C22.2132759,34.9008331,22.3137398,34.8950233,22.3864326,34.9372673z" class="coloredb5cf svgShape"></path><polygon fill="#9cbee1" points="18.863 42.333 18.105 41.892 18.093 37.744 18.851 38.185" class="colore19cbd svgShape"></polygon><polygon fill="#9cbee1" points="19.251 37.49 18.492 37.049 22.102 34.965 22.861 35.406" class="colore19cbd svgShape"></polygon><path fill="#b5d1ed" d="M18.8512821,38.1845932l-0.7585258-0.4408073
								c-0.0007229-0.255291,0.177351-0.5663643,0.3995209-0.6946335l0.7585258,0.4408073
								C19.0286312,37.6182289,18.8505592,37.9293022,18.8512821,38.1845932z" class="coloredb5cf svgShape"></path><path fill="#92b7dd" d="M22.8605766,35.4058533c0.2221718-0.1282692,0.4014091-0.0234909,0.402132,0.2318001
								l0.0117588,4.1479073c0.0007248,0.255291-0.1773415,0.5637321-0.3995113,0.6920013l-3.6097755,2.0841064
								c-0.2221699,0.1282692-0.4014149,0.026123-0.4021397-0.2291679l-0.0117588-4.1479073
								c-0.0007229-0.255291,0.1773491-0.5663643,0.3995209-0.6946335L22.8605766,35.4058533z" class="colordd92b6 svgShape"></path></g><g fill="#010001" class="color000000 svgShape"><path fill="#dd40c0" d="M18.9602299,35.338501l-0.7585278-0.4407997
								c-0.0725098-0.0421448-0.1173878-0.1320915-0.1177502-0.2595749l0.7585258,0.4408073
								C18.8428383,35.2064133,18.8877182,35.2963638,18.9602299,35.338501z" class="colorddb040 svgShape"></path><path fill="#51a8ff" d="M22.3658752,27.6863441l0.758522,0.4408112
								c-0.0726891-0.0422497-0.1731529-0.0364418-0.2843761,0.0277729l-0.7585258-0.4408054
								C22.1927185,27.6499081,22.2931824,27.6441002,22.3658752,27.6863441z" class="colorffd651 svgShape"></path><polygon fill="#dd40c0" points="18.842 35.079 18.084 34.638 18.072 30.493 18.831 30.934" class="colorddb040 svgShape"></polygon><polygon fill="#51a8ff" points="19.23 30.239 18.472 29.798 22.081 27.714 22.84 28.155" class="colorffd651 svgShape"></polygon><path fill="#489bef" d="M18.8307266,30.9336681l-0.7585258-0.4408073
								c-0.0007248-0.255291,0.1773491-0.5663643,0.3995209-0.6946335l0.7585258,0.4408054
								C19.0080757,30.3673038,18.8300018,30.6783752,18.8307266,30.9336681z" class="colorefc348 svgShape"></path><path fill="#ce3ab3" d="M22.8400211,28.1549282c0.2221718-0.1282692,0.4014072-0.0234909,0.402132,0.2318001
								l0.0117512,4.1452656c0.0007229,0.255291-0.1773338,0.5663567-0.3995056,0.6946259l-3.6097736,2.0841026
								c-0.2221718,0.128273-0.4014244,0.0235023-0.4021473-0.2317886l-0.0117512-4.1452656
								c-0.0007248-0.2552929,0.1773491-0.5663643,0.3995209-0.6946354L22.8400211,28.1549282z" class="colorcea03a svgShape"></path></g><g fill="#010001" class="color000000 svgShape"><path fill="#dd4ac2" d="M18.9396725,28.0875778l-0.7585258-0.4408054
								c-0.0725098-0.042141-0.1173897-0.1320896-0.1177502-0.2595711l0.7585239,0.4408054
								C18.8222828,27.9554901,18.8671627,28.0454388,18.9396725,28.0875778z" class="colordd4a4a svgShape"></path><path fill="#f25ad6" d="M22.346426,20.4347267l0.758522,0.4408092c-0.072773-0.0422955-0.1736927-0.0360928-0.2854843,0.02845
								l-0.7585239-0.4408073C22.1727314,20.3986359,22.2736511,20.3924351,22.346426,20.4347267z" class="colorf25a5a svgShape"></path><polygon fill="#dd4ac2" points="18.822 27.828 18.063 27.387 18.052 23.239 18.81 23.68" class="colordd4a4a svgShape"></polygon><polygon fill="#dd4ac2" points="19.21 22.988 18.451 22.547 22.061 20.463 22.819 20.904" class="colordd4a4a svgShape"></polygon><path fill="#f25ad6" d="M18.8101616,23.6801014l-0.7585258-0.4408073
								c-0.0007229-0.255291,0.1773586-0.5637398,0.3995285-0.6920109l0.7585258,0.4408073
								C18.9875183,23.1163616,18.8094387,23.4248085,18.8101616,23.6801014z" class="colorf25a5a svgShape"></path><path fill="#a50b89" d="M22.8194637,20.903986c0.2221718-0.1282711,0.4014015-0.0261154,0.4021244,0.2291756
								l0.0117588,4.1479073c0.0007248,0.2552929-0.1773338,0.5663548-0.3995037,0.6946259l-3.6097755,2.0841045
								c-0.2221699,0.1282692-0.4014225,0.0235004-0.4021473-0.2317924l-0.0117588-4.1479053
								c-0.0007229-0.2552929,0.1773567-0.5637398,0.3995285-0.6920109L22.8194637,20.903986z" class="colorcc4848 svgShape"></path></g><g fill="#010001" class="color000000 svgShape"><path fill="#d2d4d6" d="M25.3689537,31.6371174l-0.7585278-0.4408054
								c-0.0724163-0.0420856-0.1173992-0.1314373-0.1177578-0.2582607l0.7585258,0.4408073
								C25.2515526,31.505682,25.2965355,31.5950336,25.3689537,31.6371174z" class="colord6d4d2 svgShape"></path><path fill="#e6e7e9" d="M28.7768841,23.9862652l0.7585201,0.4408092
								c-0.0733547-0.042635-0.1748714-0.0367641-0.286684,0.0277901l-0.7585239-0.4408073
								C28.6020069,23.9495029,28.7035236,23.9436321,28.7768841,23.9862652z" class="colore9e8e6 svgShape"></path><polygon fill="#d2d4d6" points="25.251 31.379 24.493 30.938 24.481 26.793 25.239 27.234" class="colord6d4d2 svgShape"></polygon><polygon fill="#d2d4d6" points="25.641 26.538 24.883 26.097 28.49 24.014 29.249 24.455" class="colord6d4d2 svgShape"></polygon><path fill="#e6e7e9" d="M25.2394409,27.233593l-0.7585239-0.4408054
								c-0.0007248-0.2552929,0.1796322-0.5676823,0.401804-0.6959534l0.7585239,0.4408073
								C25.419075,26.6659126,25.238718,26.978302,25.2394409,27.233593z" class="colore9e8e6 svgShape"></path><path fill="#c0c2c4" d="M29.2487202,24.4548645c0.222187-0.1282806,0.4037228-0.024828,0.4044476,0.230463l0.0117512,4.1452656
								c0.0007229,0.255291-0.1796322,0.5676823-0.4018192,0.695961l-3.6074753,2.082777
								c-0.2221718,0.1282711-0.4037075,0.0248203-0.4044304-0.2304726l-0.0117531-4.1452656
								c-0.0007229-0.255291,0.1796341-0.5676804,0.401804-0.6959515L29.2487202,24.4548645z" class="colorc4c2c0 svgShape"></path></g><g fill="#010001" class="color000000 svgShape"><path fill="#7f3db5" d="M25.3483963,24.3861923l-0.7585258-0.4408035
								c-0.0724182-0.0420876-0.1173992-0.1314392-0.1177597-0.2582626l0.7585258,0.4408073
								C25.2309971,24.2547569,25.2759781,24.3441086,25.3483963,24.3861923z" class="color3db542 svgShape"></path><path fill="#72a4d6" d="M28.7574387,16.7346401l0.758522,0.4408112
								c-0.0734386-0.0426846-0.1754169-0.0364113-0.287796,0.0284691l-0.7585258-0.4408054
								C28.5820179,16.6982327,28.6839962,16.6919613,28.7574387,16.7346401z" class="color81d672 svgShape"></path><polygon fill="#7f3db5" points="25.231 24.128 24.472 23.687 24.46 19.539 25.219 19.98" class="color3db542 svgShape"></polygon><polygon fill="#7f3db5" points="25.621 19.287 24.862 18.846 28.47 16.763 29.228 17.204" class="color3db542 svgShape"></polygon><path fill="#72a4d6" d="M25.2188778,19.9800262l-0.7585258-0.4408054
								c-0.0007229-0.2552929,0.1796398-0.5650597,0.4018116-0.6933289l0.7585258,0.4408054
								C25.3985176,19.4149685,25.218153,19.7247353,25.2188778,19.9800262z" class="color81d672 svgShape"></path><path fill="#9a60cb" d="M29.2281647,17.2039204c0.222187-0.1282787,0.4037151-0.0274506,0.404438,0.2278404
								l0.0117588,4.1479073c0.0007248,0.255291-0.1796322,0.5676823-0.4018192,0.695961l-3.6074753,2.082777
								c-0.2221699,0.1282711-0.4037056,0.0248184-0.4044304-0.2304726l-0.0117588-4.1479073
								c-0.0007248-0.255291,0.1796398-0.5650578,0.4018116-0.6933289L29.2281647,17.2039204z" class="color6dcb60 svgShape"></path></g><g fill="#010001" class="color000000 svgShape"><path fill="#0d00d1" d="M31.7593937,20.6847973l-0.7585258-0.4408016
								c-0.0724182-0.0420895-0.1173973-0.1314392-0.1177578-0.2582607l0.7585258,0.4408073
								C31.6419945,20.5533619,31.6869755,20.6427135,31.7593937,20.6847973z" class="color0074d1 svgShape"></path><path fill="#5046e4" d="M35.168438,13.033246l0.7585182,0.4408112
								c-0.0734367-0.0426836-0.1754074-0.0364132-0.2877769,0.0284634l-0.7585258-0.4408073
								C34.9930229,12.9968367,35.0949936,12.9905663,35.168438,13.033246z" class="color3f9ae0 svgShape"></path><polygon fill="#0d00d1" points="31.642 20.427 30.883 19.986 30.871 15.838 31.63 16.279" class="color0074d1 svgShape"></polygon><polygon fill="#0d00d1" points="32.032 15.585 31.273 15.144 34.881 13.062 35.639 13.503" class="color0074d1 svgShape"></polygon><path fill="#5046e4" d="M31.6298771,16.278635l-0.7585258-0.4408073
								c-0.0007229-0.255291,0.1796398-0.5650578,0.4018269-0.6933374l0.7585258,0.4408064
								C31.8095169,15.7135763,31.6291523,16.023344,31.6298771,16.278635z" class="color3f9ae0 svgShape"></path><path fill="#0b00b5" d="M35.6391792,13.5025206c0.2221718-0.1282711,0.403698-0.0274429,0.4044228,0.227849
								l0.0117607,4.1479053c0.000721,0.2552929-0.1796341,0.5676823-0.4018059,0.6959534l-3.6074753,2.082777
								c-0.222187,0.1282787-0.4037228,0.024828-0.4044456-0.230463l-0.0117588-4.1479073
								c-0.0007248-0.255291,0.1796398-0.5650587,0.4018269-0.6933384L35.6391792,13.5025206z" class="color006cb5 svgShape"></path></g></g><g fill="#010001" class="color000000 svgShape"><g fill="#010001" class="color000000 svgShape"><path fill="#489bef" d="M35.5892601 40.0992889l-2.1255531-1.2352295c1.3974419-1.7617874 2.2666626-3.3054237 2.7681084-4.6529999l2.1255493 1.2352371C37.8559265 36.7938652 36.986702 38.3375015 35.5892601 40.0992889zM52.4878693 13.7496586c-1.8739052-1.0890541-4.8028374-.7958908-8.0898743 1.1018982-2.5831718 1.491415-4.9333496 3.7184677-6.727932 6.1780663l2.1255722 1.23522c1.7945824-2.4596004 4.1446686-4.6866512 6.7278442-6.1780663 3.2870369-1.897789 6.2159653-2.1909533 8.089962-1.1018534L52.4878693 13.7496586z" class="colorefc348 svgShape"></path><path fill="#dd40c0" d="M36.3382416,31.1534443c-0.0077515-2.7444706,1.3348961-5.9797249,3.4573936-8.8886013
										l-2.1255722-1.23522c-2.122406,2.9088764-3.4651451,6.1441307-3.4573936,8.8886013
										c0.0058594,2.0422287,0.7560539,3.4973679,2.0192032,4.2928505l2.1254807,1.2352219
										C37.0942955,34.6508102,36.344101,33.1957169,36.3382416,31.1534443z" class="colorddb040 svgShape"></path><g fill="#010001" class="color000000 svgShape"><path fill="#51a8ff" d="M56.7627029,19.3631325c0.0146942,5.0579147-4.5484734,11.8067608-10.1897392,15.063015
										c-1.7499695,1.0041924-3.3891602,1.5653725-4.8289757,1.6982765
										c-1.2257423,1.2626534-2.5179138,2.1708527-3.6034088,2.7985077
										c-0.9155884,0.5316124-1.6613655,0.8491135-2.1116791,1.0189743h-0.0073929
										c-0.2585068,0.1033401-0.4135361,0.1476402-0.4357109,0.1550293
										c1.4029503-1.7573586,2.2668915-3.3005562,2.7689438-4.6518135
										c-1.2626114-0.7974663-2.0083847-2.2520638-2.0157776-4.2900105
										c-0.014782-5.0653076,4.5484734-11.8141518,10.182354-15.0704079
										c2.9831009-1.7204485,5.670742-2.1191607,7.5388756-1.3734303
										C55.7363396,15.3832283,56.7553139,16.9781189,56.7627029,19.3631325z" class="colorffd651 svgShape"></path></g></g><polygon fill="#51a8ff" points="38.614 35.537 37.771 38.406 36.029 39.942 35.586 40.097 38.355 35.445" class="colorffd651 svgShape"></polygon></g><g fill="#010001" class="color000000 svgShape"><path fill="#f4f6f8" d="M46.7949257 18.3151112c1.2867737-.742918 2.3310204-.147831 2.3352127 1.3307896.0041924 1.4785976-1.0332642 3.2788391-2.3200378 4.0217571-1.2867775.7429237-2.3338966.1462135-2.338089-1.332386C44.4678192 20.8566513 45.5081482 19.0580349 46.7949257 18.3151112zM46.8121796 24.4003944c2.4992027-1.442915 4.558445-.4695168 4.8465614 2.1517487.0352936.3251972-.206913.7678223-.5100136.9428177l-8.644268 4.9907722c-.3031082.1749992-.54702.0130348-.5136909-.3517838C42.2631149 29.1891022 44.3158264 25.8416634 46.8121796 24.4003944z" class="colorffffff svgShape"></path></g></svg>