<svg xmlns="http://www.w3.org/2000/svg" enable-background="new 0 0 350.68 293.71" viewBox="0 0 350.68 293.71" id="Newbusiness"><g fill="#f4f6f8" class="color000000 svgShape"><g fill="#f4f6f8" class="color000000 svgShape"><g fill="#f4f6f8" class="color000000 svgShape"><g fill="#f4f6f8" class="color000000 svgShape"><g fill="#f4f6f8" class="color000000 svgShape"><g fill="#f4f6f8" class="color000000 svgShape"><g fill="#f4f6f8" class="color000000 svgShape"><path fill="#2d4c74" d="M89.062,161.22v7.238c0,0.475,0.326,0.949,0.949,1.305l96.798,56.276
								c1.276,0.742,3.352,0.711,4.658-0.031l59.212-34.174c0.653-0.385,0.979-0.889,0.979-1.365l-0.03-7.269
								c0,0.504-0.326,0.979-0.979,1.365l-59.212,34.205c-1.276,0.742-3.382,0.742-4.657,0l-96.798-56.245
								C89.359,162.169,89.062,161.694,89.062,161.22z" class="color2d3a74 svgShape"></path></g><g fill="#f4f6f8" class="color000000 svgShape"><path fill="#724a93" d="M90.031,159.83c-1.288,0.744-1.313,1.957-0.053,2.69l96.796,56.252
								c1.28,0.744,3.375,0.733,4.663-0.011l59.226-34.194c1.288-0.744,1.296-1.946,0.015-2.69l-96.796-56.251
								c-1.261-0.733-3.338-0.733-4.626,0.011L90.031,159.83z" class="color4a5f93 svgShape"></path></g></g></g><g fill="#f4f6f8" class="color000000 svgShape"><g fill="#f4f6f8" class="color000000 svgShape"><polygon fill="#938cf7" points="96.367 164.598 178.937 212.583 240.038 177.306 157.468 129.321" class="color8ca8f7 svgShape"></polygon></g><g fill="#f4f6f8" class="color000000 svgShape"><path fill="#6822a2" d="M116.032,148.862c-0.341,0.197-0.342,0.525-0.003,0.722c0.357,0.208,0.905,0.197,1.246,0
							l16.327-9.426c0.341-0.197,0.362-0.514,0.004-0.722c-0.339-0.197-0.906-0.197-1.247-0.001L116.032,148.862z" class="color3f528c svgShape"></path></g><g fill="#f4f6f8" class="color000000 svgShape"><path fill="#6822a2" d="M212.893,196.923c-1.61,0.93-1.6,2.449,0,3.379c1.6,0.93,4.204,0.929,5.814,0
							c1.61-0.93,1.619-2.438,0.02-3.368C217.127,196.005,214.503,195.994,212.893,196.923z" class="color3f528c svgShape"></path></g><g fill="#f4f6f8" class="color000000 svgShape"><path fill="#6822a2" d="M108.949,152.843c-0.398,0.23-0.399,0.602-0.004,0.831c0.413,0.24,1.055,0.24,1.453,0.01
							c0.398-0.23,0.419-0.612,0.006-0.852C110.009,152.603,109.347,152.613,108.949,152.843z" class="color3f528c svgShape"></path></g><g fill="#f4f6f8" class="color000000 svgShape"><path fill="#6822a2" d="M112.039,150.689c-0.587,0.339-0.59,0.886-0.025,1.214c0.583,0.339,1.527,0.339,2.114,0
							c0.568-0.328,0.571-0.875-0.012-1.214C113.551,150.361,112.607,150.361,112.039,150.689z" class="color3f528c svgShape"></path></g></g><g fill="#f4f6f8" class="color000000 svgShape"><g fill="#f4f6f8" class="color000000 svgShape"><polygon fill="#6822a2" points="215.107 206.847 216.395 209.844 225.45 204.616 226.717 200.144" class="color3f528c svgShape"></polygon></g><g fill="#f4f6f8" class="color000000 svgShape"><path fill="#6822a2" d="M206.893,212.359c-0.543,0.313-0.99,1.077-0.989,1.712c0.002,0.624,0.452,0.881,0.995,0.568
							c0.553-0.319,0.99-1.089,0.989-1.713C207.886,212.291,207.446,212.04,206.893,212.359z" class="color3f528c svgShape"></path></g><g fill="#f4f6f8" class="color000000 svgShape"><path fill="#6822a2" d="M202.957,214.632c-0.553,0.319-0.991,1.077-0.989,1.712c0.002,0.624,0.442,0.887,0.995,0.568
							c0.543-0.313,0.99-1.089,0.989-1.713C203.95,214.564,203.5,214.318,202.957,214.632z" class="color3f528c svgShape"></path></g><g fill="#f4f6f8" class="color000000 svgShape"><path fill="#6822a2" d="M199.01,216.911c-0.543,0.313-0.99,1.077-0.989,1.712c0.002,0.624,0.452,0.881,0.995,0.568
							c0.553-0.32,1.001-1.095,0.999-1.719C200.014,216.836,199.563,216.591,199.01,216.911z" class="color3f528c svgShape"></path></g><g fill="#f4f6f8" class="color000000 svgShape"><path fill="#6822a2" d="M242.809,191.623c-0.543,0.313-0.99,1.077-0.989,1.712c0.002,0.624,0.452,0.881,0.995,0.568
							c0.553-0.32,1.001-1.095,0.999-1.719C243.812,191.549,243.362,191.304,242.809,191.623z" class="color3f528c svgShape"></path></g><g fill="#f4f6f8" class="color000000 svgShape"><path fill="#6822a2" d="M238.873,193.896c-0.553,0.319-0.99,1.077-0.989,1.712c0.002,0.624,0.442,0.887,0.995,0.568
							c0.553-0.319,0.99-1.089,0.989-1.713C239.866,193.828,239.426,193.576,238.873,193.896z" class="color3f528c svgShape"></path></g><g fill="#f4f6f8" class="color000000 svgShape"><path fill="#6822a2" d="M234.936,196.168c-0.553,0.32-1.001,1.083-0.999,1.718c0.002,0.624,0.452,0.881,1.005,0.562
							c0.543-0.314,0.99-1.089,0.989-1.713C235.93,196.1,235.479,195.855,234.936,196.168z" class="color3f528c svgShape"></path></g></g></g><g fill="#f4f6f8" class="color000000 svgShape"><g fill="#f4f6f8" class="color000000 svgShape"><g fill="#f4f6f8" class="color000000 svgShape"><path fill="#0c2340" d="M118.31,182.437l-0.006,1.972l6.238,3.63c0.472,0.275,0.849,0.05,0.851-0.497
							c0.002-0.547-0.373-1.201-0.845-1.476L118.31,182.437z" class="color233163 svgShape"></path></g></g><g fill="#f4f6f8" class="color000000 svgShape"><g fill="#f4f6f8" class="color000000 svgShape"><path fill="#0c2340" d="M109.787,177.478c-0.472-0.275-0.856-0.062-0.858,0.484c-0.002,0.547,0.38,1.213,0.852,1.488
							l6.238,3.63l0.005-1.972L109.787,177.478z" class="color233163 svgShape"></path></g></g><g fill="#f4f6f8" class="color000000 svgShape"><g fill="#f4f6f8" class="color000000 svgShape"><path fill="#724a93" d="M109.775 177.057l-.6.356c.161-.086.375-.075.611.065l6.235 3.628v1.976l.6-.356.011-1.976-6.235-3.628C110.15 176.982 109.936 176.971 109.775 177.057zM118.913 182.078l-.6.356 6.235 3.628c.471.281.846.928.846 1.479 0 .27-.096.464-.246.561l.6-.356c.15-.087.246-.281.246-.561 0-.54-.375-1.198-.846-1.468L118.913 182.078zM95.13 169.24c.161-.087.375-.076.611.064l5.389 3.132c.471.281.846.928.846 1.479 0 .27-.096.464-.257.55l.611-.346c.15-.097.246-.291.246-.561 0-.54-.375-1.199-.846-1.469l-5.389-3.142c-.236-.141-.45-.151-.6-.065L95.13 169.24z" class="color4a5f93 svgShape"></path></g><g fill="#f4f6f8" class="color000000 svgShape"><path fill="#0c2340" d="M95.738,169.303c-0.472-0.275-0.849-0.058-0.851,0.489c-0.002,0.547,0.373,1.209,0.845,1.484
							l5.39,3.136c0.472,0.275,0.849,0.042,0.851-0.497c0.002-0.547-0.373-1.201-0.845-1.476L95.738,169.303z" class="color233163 svgShape"></path></g></g></g></g><g fill="#f4f6f8" class="color000000 svgShape"><g fill="#f4f6f8" class="color000000 svgShape"><g fill="#f4f6f8" class="color000000 svgShape"><g fill="#f4f6f8" class="color000000 svgShape"><g fill="#f4f6f8" class="color000000 svgShape"><g fill="#f4f6f8" class="color000000 svgShape"><path fill="#93c8fd" d="M159.087 103.381l-1.298.755c-3.065-1.767-5.937-1.933-8.137-.654l1.298-.755C153.15 101.448 156.022 101.614 159.087 103.381zM148.916 111.638l1.298-.755c-.46.267-.801.782-1.104 1.537l-1.105 2.301-1.298.755 1.105-2.301C148.115 112.42 148.456 111.905 148.916 111.638z" class="colorfd93bf svgShape"></path></g><g fill="#f4f6f8" class="color000000 svgShape"><path fill="#a50b89" d="M157.788,104.137l-0.031,10.974l-2.762-1.595c-4.825-2.671-6.185-2.82-7.187-0.341
									l-1.101,2.3c-0.117,0.059-0.261,0.031-0.401-0.05c-0.339-0.196-0.658-0.7-0.532-1.029l0.431-4.486
									c0.267-2.728,1.274-4.967,3.084-6.201C151.53,102.188,154.556,102.271,157.788,104.137z" class="colord363a1 svgShape"></path></g></g><g fill="#f4f6f8" class="color000000 svgShape"><g fill="#f4f6f8" class="color000000 svgShape"><path fill="#93c8fd" d="M176.45 103.381l1.298.755c3.065-1.767 5.937-1.933 8.137-.654l-1.298-.755C182.387 101.448 179.516 101.614 176.45 103.381zM186.622 111.638l-1.298-.755c.46.267.801.782 1.105 1.537l1.104 2.301 1.298.755-1.104-2.301C187.422 112.42 187.082 111.905 186.622 111.638z" class="colorfd93bf svgShape"></path></g><g fill="#f4f6f8" class="color000000 svgShape"><path fill="#a50b89" d="M177.749,104.137l0.031,10.974l2.762-1.595c4.825-2.671,6.185-2.82,7.187-0.341l1.101,2.3
									c0.117,0.059,0.261,0.031,0.401-0.05c0.339-0.196,0.657-0.7,0.532-1.029l-0.431-4.486c-0.267-2.728-1.274-4.967-3.084-6.201
									C184.007,102.188,180.982,102.271,177.749,104.137z" class="colord363a1 svgShape"></path></g></g></g><g fill="#f4f6f8" class="color000000 svgShape"><g fill="#f4f6f8" class="color000000 svgShape"><path fill="#d7e7f7" d="M174.116,125.854c12.647-18.71,10.532-44.126-6.347-60.594h0
								c-16.879,16.468-18.994,41.884-6.348,60.594C165.653,129.245,169.884,129.245,174.116,125.854z" class="colorf7d7e1 svgShape"></path><path fill="#f4f6f8" d="M185.886,156.54h-35.96c11.25-13.617,11.633-26.165,11.633-26.165l6.2-3.923v-0.179
								l0.158,0.09l0.135-0.09v0.179l6.2,3.923C174.253,130.374,174.636,142.922,185.886,156.54z" class="coloreaeffa svgShape"></path><path fill="#ffffff" d="M179.964,154.244h-24.115c7.545-12.033,7.801-22.051,7.801-22.051l4.158-3.467v-0.159
								l0.106,0.08l0.091-0.08v0.159l4.158,3.467C172.163,132.193,172.42,142.211,179.964,154.244z" class="colorffffff svgShape"></path><path fill="#b5cee7" d="M160.823,124.295c-0.37,8.579,2.018,6.213,2.386,12.47c0.889-0.435,1.558-1.358,2.059-2.554
								c0.689,1.39,1.518,4.593,1.899,9.232c1.631-1.116,2.38-5.339,2.708-9.197c0.575,0.789,1.203,1.464,1.37,4.426
								c1.317-0.642,2.146-4.254,2.674-6.347c0.491-1.977,0.715-5.754,0.834-8.03H160.823z" class="colore7b8b5 svgShape"></path><path fill="#d7e7f7" d="M161.954,125.129c0.441,2.892,1.676,2.709,1.915,6.776c0.76-0.372,1.332-1.161,1.761-2.185
								c0.589,1.188,1.298,3.929,1.624,7.896c1.395-0.955,2.036-4.568,2.316-7.866c0.492,0.675,1.029,1.252,1.172,3.785
								c1.126-0.548,1.835-3.638,2.287-5.428c0.189-0.763,0.327-1.849,0.436-2.979H161.954z" class="colorf7d7e1 svgShape"></path><g fill="#f4f6f8" class="color000000 svgShape"><path fill="#724a93" d="M158.254,120.429c0.926,1.859,1.982,3.671,3.167,5.425c4.232,3.391,8.463,3.391,12.695,0
									c1.186-1.754,2.241-3.567,3.167-5.425C170.94,125.119,164.597,125.119,158.254,120.429z" class="color4a5f93 svgShape"></path></g></g><g fill="#f4f6f8" class="color000000 svgShape"><path fill="#e576d1" d="M163.644,75.425c1.063,0.742,2.528,1.201,4.144,1.201c3.231-0.001,5.844-1.836,5.835-4.098
								c-0.001-0.151-0.017-0.299-0.041-0.446c-1.692-2.401-3.626-4.688-5.814-6.823h0c-2.19,2.137-4.126,4.427-5.819,6.83
								c-0.022,0.145-0.037,0.29-0.036,0.439C161.92,73.66,162.581,74.684,163.644,75.425z" class="colore576ad svgShape"></path></g><g fill="#f4f6f8" class="color000000 svgShape"><ellipse cx="167.769" cy="98.22" fill="#e576d1" rx="6.024" ry="5.941" transform="rotate(-45.001 167.754 98.22)" class="colore576ad svgShape"></ellipse><ellipse cx="167.769" cy="98.22" fill="#2d4c74" rx="6.024" ry="5.941" transform="rotate(-45.001 167.754 98.22)" class="color2d3a74 svgShape"></ellipse><ellipse cx="167.769" cy="98.22" fill="#724a93" rx="4.733" ry="4.7" transform="rotate(-45.001 167.768 98.222)" class="color4a5f93 svgShape"></ellipse><g fill="#f4f6f8" class="color000000 svgShape"><path fill="#938cf7" d="M167.769,102.34c2.505,0,4.549-1.954,4.704-4.42c-0.155-2.466-2.199-4.419-4.704-4.419
									s-4.549,1.953-4.704,4.419C163.22,100.386,165.263,102.34,167.769,102.34z" class="color8ca8f7 svgShape"></path></g></g><g fill="#f4f6f8" class="color000000 svgShape"><path fill="#e576d1" d="M172.352,84.548c0.48,3.135-2.182,5.797-5.317,5.317c-1.954-0.299-3.551-1.896-3.85-3.85
								c-0.48-3.135,2.182-5.797,5.317-5.317C170.456,80.998,172.053,82.594,172.352,84.548z" class="colore576ad svgShape"></path><path fill="#2d4c74" d="M172.352,84.548c0.48,3.135-2.182,5.797-5.317,5.317c-1.954-0.299-3.551-1.896-3.85-3.85
								c-0.48-3.135,2.182-5.797,5.317-5.317C170.456,80.998,172.053,82.594,172.352,84.548z" class="color2d3a74 svgShape"></path><ellipse cx="167.769" cy="85.282" fill="#724a93" rx="3.667" ry="3.63" transform="rotate(-45.001 167.768 85.284)" class="color4a5f93 svgShape"></ellipse><g fill="#f4f6f8" class="color000000 svgShape"><path fill="#938cf7" d="M167.769,88.471c1.939,0,3.521-1.512,3.641-3.421c-0.12-1.909-1.702-3.421-3.641-3.421
									s-3.521,1.512-3.641,3.421C164.248,86.958,165.83,88.471,167.769,88.471z" class="color8ca8f7 svgShape"></path></g></g></g><g fill="#f4f6f8" class="color000000 svgShape"><g fill="#f4f6f8" class="color000000 svgShape"><g fill="#f4f6f8" class="color000000 svgShape"><g fill="#f4f6f8" class="color000000 svgShape"><g fill="#f4f6f8" class="color000000 svgShape"><path fill="#a50b89" d="M176.544,108.134c3.232,1.866,6.248,5.271,8.474,9.37c1.798,3.317,2.789,6.71,3.039,9.736
											l0.41,4.972c0.12,0.471-0.202,0.606-0.541,0.41c-0.14-0.081-0.284-0.219-0.4-0.413l-1.085-3.562
											c-0.979-3.622-2.34-5.044-7.165-7.945l-2.762-1.595L176.544,108.134z" class="colord363a1 svgShape"></path></g></g></g><g fill="#f4f6f8" class="color000000 svgShape"><path fill="#93c8fd" d="M189.654,131.919l-1.298,0.755c0.12-0.064,0.175-0.221,0.111-0.46l-0.405-4.97
									c-0.258-3.028-1.243-6.425-3.047-9.739c-2.218-4.096-5.237-7.502-8.468-9.371l1.298-0.755
									c3.231,1.868,6.25,5.274,8.468,9.371c1.804,3.313,2.789,6.71,3.038,9.739l0.414,4.97
									C189.829,131.698,189.773,131.855,189.654,131.919z" class="colorfd93bf svgShape"></path></g></g><g fill="#f4f6f8" class="color000000 svgShape"><g fill="#f4f6f8" class="color000000 svgShape"><g fill="#f4f6f8" class="color000000 svgShape"><g fill="#f4f6f8" class="color000000 svgShape"><path fill="#a50b89" d="M158.993,108.134c-3.232,1.866-6.248,5.271-8.474,9.37
											c-1.798,3.317-2.789,6.71-3.039,9.736l-0.41,4.972c-0.119,0.471,0.202,0.606,0.541,0.41c0.14-0.081,0.284-0.219,0.4-0.413
											l1.085-3.562c0.979-3.622,2.34-5.044,7.165-7.945l2.762-1.595L158.993,108.134z" class="colord363a1 svgShape"></path></g></g></g><g fill="#f4f6f8" class="color000000 svgShape"><path fill="#93c8fd" d="M145.884,131.919l1.298,0.755c-0.12-0.064-0.175-0.221-0.11-0.46l0.405-4.97
									c0.258-3.028,1.243-6.425,3.047-9.739c2.218-4.096,5.238-7.502,8.468-9.371l-1.298-0.755
									c-3.231,1.868-6.25,5.274-8.468,9.371c-1.804,3.313-2.789,6.71-3.038,9.739l-0.414,4.97
									C145.709,131.698,145.764,131.855,145.884,131.919z" class="colorfd93bf svgShape"></path></g></g></g></g></g><path fill="#f4f6f8" d="M200.546,170.373c0.89,2.537-1.315,4.312-3.936,3.083c-0.589-0.241-0.076,0.609-0.892,2.091
				c-2.136,3.728-8.077,3.078-10.62-1.105c-0.224-0.362-0.55,0.079-0.45,0.017c-1.743,4.973-8.728,4.987-10.799-0.294
				c-0.159-0.415-0.439,0.121-2.233-0.055c-2.512-0.275-3.313-1.833-3.589-1.275c-2.113,4.02-7.439,4.403-9.957,0.7
				c-0.537-0.813-0.669,2.244-4.232,3.387c-2.316,0.73-4.742,0.035-6.212-1.759c-0.103-0.126-0.312-0.104-0.41,0.057
				c-3.42,5.456-11.184,4.189-11.08-1.219c0.013-0.551-1.808,0.47-2.845-1.247c-0.84-1.384,0.244-2.674-0.309-2.668
				c-2.943-0.103-3.054-3.935,0.094-6.031c1.639-1.094,3.466-1.106,4.378-0.229c0.366,0.356,0.477-0.455,2.098-1.138
				c-0.007-0.022-0.007-0.022-0.007-0.017c-1.307-3.018,4.15-6.606,6.7-4.326c0.104,0.09,0.298,0.081,0.441-0.032
				c0.658-0.474,1.351-0.749,1.517-0.782c-0.3-0.52-0.363-1.111-0.312-2.385c0.018-0.464,2.301-2.364,4.634-2.402
				c0.199,0.003,0.378-0.133,0.393-0.283c0.266-2.836,5.273-4.38,7.496-2.224c0.289,0.258,0.496-0.116,1.705-0.202
				c0.18-0.019,0.336-0.019,0.49-0.017c0-0.008,0,0.002-0.001-0.019c-0.099-1.566,1.564-2.992,3.826-3.137
				c0.484-0.034,0.968-0.009,1.312,0.041c3.483,0.56,3.296,3.015,3.343,3.115c0.154,0.014,0.31-0.008,0.49,0.017
				c1.162,0.082,1.47,0.463,1.702,0.201c2.224-2.144,7.235-0.626,7.499,2.225c0.043,0.411,0.541,0.183,1.624,0.465
				c2.066,0.537,4.021,2.346,3.091,4.605c0.862,0.116,1.566,1.107,1.957,0.814c2.536-2.269,8.002,1.278,6.7,4.326
				c0,0.006,0-0.006-0.007,0.017c1.06,0.332,1.741,1.459,2.096,1.139c2.495-2.45,8.242,2.246,6.4,5.218
				C201.789,170.439,200.325,169.781,200.546,170.373z" class="coloreaeffa svgShape"></path><path fill="#ffffff" d="M200.546,166.973c0.89,2.537-1.315,4.312-3.936,3.083c-0.166-0.068-0.326-0.017-0.335,0.152
				c-0.307,5.265-8.006,6.048-11.177,0.834c-0.224-0.362-0.55,0.079-0.45,0.017c-1.009,2.878-3.983,4.259-6.715,3.499
				c-3.446-0.964-3.896-4.069-4.364-3.949c-1.7,0.381-3.644-0.01-5.177-1.25c-0.641-0.553-1.028,2.966-5.1,3.317
				c-2.104,0.177-4.056-0.828-5.221-2.541c-0.537-0.813-0.669,2.244-4.232,3.387c-2.316,0.73-4.742,0.035-6.212-1.759
				c-0.103-0.126-0.312-0.104-0.41,0.057c-3.42,5.456-11.184,4.189-11.08-1.219c0.013-0.551-1.808,0.471-2.845-1.247
				c-0.84-1.384,0.244-2.674-0.309-2.668c-2.943-0.103-3.054-3.935,0.094-6.031c1.639-1.094,3.466-1.106,4.378-0.229
				c0.333,0.324,0.583-0.5,2.098-1.138c-0.007-0.022-0.007-0.022-0.007-0.017c-0.644-1.487,0.525-3.633,2.653-4.572
				c1.579-0.71,3.168-0.539,4.047,0.246c0.317,0.276,1.092-0.64,1.957-0.814c-0.3-0.52-0.363-1.111-0.312-2.385
				c0.018-0.464,2.301-2.364,4.634-2.402c0.199,0.003,0.378-0.133,0.393-0.283c0.266-2.836,5.273-4.379,7.496-2.224
				c0.312,0.278,0.691-0.235,2.195-0.22c0-0.008,0,0.002-0.001-0.019c-0.138-2.185,2.729-3.446,5.137-3.096
				c3.483,0.56,3.296,3.015,3.343,3.115c0.154,0.014,0.31-0.008,0.49,0.017c1.162,0.082,1.47,0.463,1.702,0.201
				c2.224-2.144,7.235-0.626,7.499,2.225c0.015,0.144,0.193,0.292,0.391,0.284c2.731,0.109,5.376,2.227,4.323,4.785
				c0.862,0.116,1.566,1.107,1.957,0.814c2.536-2.269,8.002,1.278,6.7,4.326c0,0.006,0-0.006-0.007,0.017
				c1.06,0.332,1.741,1.459,2.096,1.139c0.909-0.893,2.719-0.89,4.379,0.228c1.984,1.313,2.868,3.624,2.021,4.991
				C201.789,167.038,200.325,166.38,200.546,166.973z" class="colorffffff svgShape"></path></g><g fill="#f4f6f8" class="color000000 svgShape"><g fill="#f4f6f8" class="color000000 svgShape"><g fill="#f4f6f8" class="color000000 svgShape"><polygon fill="#7d53a0" points="271.636 208.028 271.619 214.027 253.942 224.3 253.959 218.301" class="color53a07a svgShape"></polygon></g><g fill="#f4f6f8" class="color000000 svgShape"><polygon fill="#6560ad" points="253.959 218.301 253.942 224.3 236.15 214.028 236.167 208.029" class="color60ad88 svgShape"></polygon></g><g fill="#f4f6f8" class="color000000 svgShape"><path fill="#8cadcf" d="M271.636,208.028l-17.677,10.273l-17.792-10.272
						C246.191,202.729,261.552,202.73,271.636,208.028z" class="color8ccfb1 svgShape"></path></g></g><g fill="#f4f6f8" class="color000000 svgShape"><g fill="#f4f6f8" class="color000000 svgShape"><polygon fill="#e576d1" points="281.045 228.666 281.028 234.665 264.457 225.098 264.474 219.099" class="colore576ad svgShape"></polygon></g><g fill="#f4f6f8" class="color000000 svgShape"><path fill="#a50b89" d="M287.829,219.099l-0.017,5.999c-0.261,3.454-2.521,6.836-6.784,9.567l0.017-5.999
						C285.308,225.935,287.567,222.553,287.829,219.099z" class="colord363a1 svgShape"></path></g><g fill="#f4f6f8" class="color000000 svgShape"><path fill="#93c8fd" d="M287.84,219.09c-0.27,3.459-2.527,6.844-6.795,9.568l-16.558-9.568l16.46-9.567
						C285.24,212.246,287.521,215.656,287.84,219.09z" class="colorfd93bf svgShape"></path></g></g><g fill="#f4f6f8" class="color000000 svgShape"><g fill="#f4f6f8" class="color000000 svgShape"><polygon fill="#c494bb" points="252.232 219.305 252.215 225.304 234.523 235.585 234.54 229.586" class="colorc49494 svgShape"></polygon></g><g fill="#f4f6f8" class="color000000 svgShape"><path fill="#abc4dd" d="M227.606,225.241l0.017-5.999c-0.01,3.705,2.297,7.414,6.917,10.344l-0.017,5.999
						C229.903,232.655,227.595,228.946,227.606,225.241z" class="colorddacab svgShape"></path></g><g fill="#f4f6f8" class="color000000 svgShape"><path fill="#b5cee7" d="M252.232,219.305l-17.692,10.281c-9.181-5.824-9.231-14.721-0.1-20.554L252.232,219.305z" class="colore7b8b5 svgShape"></path></g></g><g fill="#f4f6f8" class="color000000 svgShape"><g fill="#f4f6f8" class="color000000 svgShape"><path fill="#5046e4" d="M271.778,230.59l-0.017,5.999c-10.039,5.308-25.4,5.308-35.484,0.009l0.017-5.999
						C246.378,235.898,261.739,235.898,271.778,230.59z" class="color8294ed svgShape"></path></g><g fill="#f4f6f8" class="color000000 svgShape"><path fill="#b7dbff" d="M271.778,230.59c-10.039,5.308-25.4,5.308-35.484,0.009l17.692-10.281L271.778,230.59z" class="colorb7ceff svgShape"></path></g></g></g><g fill="#f4f6f8" class="color000000 svgShape"><g fill="#f4f6f8" class="color000000 svgShape"><g fill="#f4f6f8" class="color000000 svgShape"><path fill="#c494bb" d="M105.459,141.195l-0.009,1.448c-0.005,1.687-1.114,3.372-3.33,4.659
						c-4.453,2.588-11.701,2.59-16.188,0c-2.257-1.303-3.384-3.014-3.379-4.721l0.009-1.448c-0.005,1.707,1.122,3.418,3.379,4.721
						c4.487,2.59,11.735,2.588,16.188,0C104.345,144.567,105.455,142.882,105.459,141.195z" class="colorc49494 svgShape"></path><path fill="#b5cee7" d="M102.129,145.854c-4.45,2.59-11.698,2.59-16.187,0c-4.489-2.591-4.509-6.793-0.049-9.374
						c4.45-2.591,11.698-2.591,16.187,0C106.569,139.061,106.589,143.264,102.129,145.854z" class="colore7b8b5 svgShape"></path></g><path fill="#abc4dd" d="M109.973,126.687c0,7.947-5.488,14.907-5.488,14.907s-1.402,1.781-2.658,2.512
					c-4.292,2.498-11.282,2.498-15.614,0c-1.262-0.731-2.678-2.512-2.678-2.512s-5.495-6.96-5.495-14.907
					c0-4.259,0.76-9.431,1.843-12.993h28.243C109.209,117.256,109.973,122.428,109.973,126.687z" class="colorddacab svgShape"></path><path fill="#abc4dd" d="M103.072,119.924c-4.967,2.799-13.057,2.799-18.068,0c-5.011-2.799-5.033-7.34-0.055-10.128
					c4.967-2.799,13.057-2.799,18.068,0C108.027,112.585,108.05,117.125,103.072,119.924z" class="colorddacab svgShape"></path><g fill="#f4f6f8" class="color000000 svgShape"><path fill="#b5cee7" d="M104.061,109.022c-5.592-3.227-14.621-3.227-20.164,0c-5.555,3.215-5.531,8.45,0.062,11.677
						c5.592,3.227,14.621,3.227,20.164,0C109.678,117.472,109.654,112.237,104.061,109.022z M103.072,119.924
						c-4.967,2.799-13.057,2.799-18.068,0c-5.011-2.798-5.033-7.339-0.055-10.127c4.967-2.799,13.057-2.799,18.068,0
						C108.028,112.585,108.05,117.126,103.072,119.924z" class="colore7b8b5 svgShape"></path></g><g fill="#f4f6f8" class="color000000 svgShape"><path fill="#c494bb" d="M103.072,119.924c0.903-0.508,1.636-1.074,2.21-1.675c-0.585-0.614-1.339-1.189-2.265-1.705
						c-5.011-2.799-13.101-2.799-18.068,0c-0.903,0.506-1.636,1.07-2.21,1.671c0.585,0.615,1.339,1.192,2.265,1.71
						C90.015,122.723,98.105,122.723,103.072,119.924z" class="colorc49494 svgShape"></path></g></g><g fill="#f4f6f8" class="color000000 svgShape"><g fill="#f4f6f8" class="color000000 svgShape"><path fill="#7873bc" d="M95.784,72.586c-7.561-5.64-6.991-7.824-6.961-7.938c-11.863,7.164-6.454,12.628-1.505,15.485
						c1.337,0.772,2.639,1.354,3.56,1.727c0.074,0.03,0.149,0.059,0.225,0.085l1.425,0.295c0.264,0.014,0.515,0.002,0.74-0.038
						C98.803,81.172,100.604,76.189,95.784,72.586z" class="color73bc9c svgShape"></path><g fill="#f4f6f8" class="color000000 svgShape"><g fill="#f4f6f8" class="color000000 svgShape"><path fill="#6560ad" d="M88.401,66.315c-0.854,5.005,1.394,10.995,4.127,15.924c0.547,0.987,1.114,1.932,1.678,2.817
								c-0.445,0.074-0.997,0.035-1.543-0.096c-0.538-0.946-1.065-1.958-1.561-3.015C88.758,76.945,87.122,70.953,88.401,66.315z" class="color60ad88 svgShape"></path></g></g></g></g><g fill="#f4f6f8" class="color000000 svgShape"><path fill="#6560ad" d="M95.574,122.484l0.001-42.576c-0.001,0.231-0.153,0.462-0.456,0.639
					c-0.61,0.354-1.603,0.354-2.217,0c-0.309-0.179-0.464-0.413-0.463-0.647l-0.001,42.584H95.574z" class="color60ad88 svgShape"></path><path fill="#8cadcf" d="M95.119,80.546c-0.61,0.355-1.602,0.355-2.217,0c-0.615-0.355-0.618-0.931-0.007-1.284
					c0.61-0.355,1.602-0.355,2.217,0C95.728,79.616,95.73,80.191,95.119,80.546z" class="color8ccfb1 svgShape"></path></g><g fill="#f4f6f8" class="color000000 svgShape"><path fill="#7873bc" d="M91.969,100.247c7.561,5.64,6.992,7.824,6.961,7.939c11.863-7.164,6.454-12.628,1.505-15.485
					c-1.336-0.772-2.639-1.354-3.56-1.727c-0.074-0.03-0.149-0.059-0.225-0.085l-1.425-0.295c-0.264-0.014-0.515-0.002-0.74,0.038
					C88.95,91.66,87.149,96.643,91.969,100.247z" class="color73bc9c svgShape"></path><g fill="#f4f6f8" class="color000000 svgShape"><g fill="#f4f6f8" class="color000000 svgShape"><path fill="#6560ad" d="M99.352,106.517c0.854-5.005-1.394-10.995-4.126-15.924c-0.547-0.987-1.114-1.932-1.679-2.817
							c0.445-0.074,0.998-0.035,1.543,0.096c0.538,0.946,1.065,1.958,1.561,3.015C98.995,95.887,100.631,101.88,99.352,106.517z" class="color60ad88 svgShape"></path></g></g></g><g fill="#f4f6f8" class="color000000 svgShape"><g fill="#f4f6f8" class="color000000 svgShape"><path fill="#7873bc" d="M115.236,84.479c-0.465-0.257-0.947-0.535-1.448-0.836c-0.091-0.055-0.183-0.107-0.276-0.158
						c-4.555-2.516-11.699-1.277-13.876,1.952c-0.09,0.133-0.141,0.28-0.156,0.435l0.236,0.832c0.029,0.043,0.059,0.086,0.092,0.129
						c0.668,0.858,1.984,2.288,4.036,3.421c3.917,2.163,10.518,3.25,20.425-2.768C124.123,87.504,121.343,87.852,115.236,84.479z" class="color73bc9c svgShape"></path></g><g fill="#f4f6f8" class="color000000 svgShape"><path fill="#6560ad" d="M121.811,87.786c-6.839,0.906-15.227,0.135-22.095-1.083c-1.452-0.258-2.837-0.535-4.125-0.821
						c-0.116-0.317-0.105-0.643,0.066-0.907c1.197,0.303,2.478,0.606,3.823,0.896C106.199,87.32,114.503,88.455,121.811,87.786z" class="color60ad88 svgShape"></path></g></g><g fill="#f4f6f8" class="color000000 svgShape"><g fill="#f4f6f8" class="color000000 svgShape"><path fill="#7873bc" d="M72.786,85.739c0.464-0.257,0.947-0.535,1.448-0.836c0.091-0.055,0.183-0.107,0.276-0.158
						c4.555-2.517,11.699-1.277,13.876,1.952c0.09,0.133,0.141,0.28,0.156,0.435l-0.236,0.832c-0.029,0.043-0.059,0.086-0.092,0.129
						c-0.668,0.858-1.983,2.288-4.036,3.421c-3.917,2.164-10.518,3.25-20.425-2.768C63.898,88.764,66.679,89.112,72.786,85.739z" class="color73bc9c svgShape"></path></g><g fill="#f4f6f8" class="color000000 svgShape"><path fill="#6560ad" d="M66.21,89.046c6.839,0.905,15.227,0.135,22.095-1.083c1.452-0.258,2.837-0.535,4.125-0.821
						c0.116-0.317,0.105-0.643-0.066-0.906c-1.197,0.303-2.478,0.605-3.823,0.895C81.822,88.58,73.519,89.715,66.21,89.046z" class="color60ad88 svgShape"></path></g></g><g fill="#f4f6f8" class="color000000 svgShape"><path fill="#b5cee7" d="M106.178,116.961c-0.588,1.082-1.584,2.108-3.106,2.963c-4.967,2.799-13.057,2.799-18.068,0
					c-1.532-0.855-2.54-1.882-3.139-2.963H80.29c0.629,1.367,1.813,2.667,3.669,3.738c5.592,3.227,14.621,3.227,20.164,0
					c1.844-1.071,3.014-2.372,3.629-3.738H106.178z" class="colore7b8b5 svgShape"></path></g><g fill="#f4f6f8" class="color000000 svgShape"><g fill="#f4f6f8" class="color000000 svgShape"><g fill="#f4f6f8" class="color000000 svgShape"><g fill="#f4f6f8" class="color000000 svgShape"><g fill="#f4f6f8" class="color000000 svgShape"><g fill="#f4f6f8" class="color000000 svgShape"><g fill="#f4f6f8" class="color000000 svgShape"><path fill="#a5bcd3" d="M113.344,84.96c1.625,0.938,1.633,2.459,0.019,3.397c-1.614,0.938-4.239,0.938-5.864,0
											c-1.625-0.938-1.633-2.459-0.019-3.397C109.094,84.022,111.719,84.022,113.344,84.96z" class="colord3a5bb svgShape"></path></g><g fill="#f4f6f8" class="color000000 svgShape"><path fill="#a5bcd3" d="M115.453,86.673l-0.002,0.798c-0.002,0.741-0.489,1.481-1.462,2.046
											c-1.959,1.138-5.144,1.138-7.116,0c-0.992-0.573-1.487-1.325-1.485-2.075l0.002-0.798
											c-0.002,0.751,0.493,1.502,1.485,2.075c1.971,1.138,5.157,1.138,7.116,0C114.964,88.154,115.451,87.414,115.453,86.673z" class="colord3a5bb svgShape"></path></g><g fill="#f4f6f8" class="color000000 svgShape"><path fill="#d7e7f7" d="M113.968,84.598c1.971,1.138,1.982,2.983,0.023,4.122c-1.959,1.138-5.144,1.138-7.116,0
											c-1.971-1.138-1.982-2.984-0.023-4.122S111.997,83.46,113.968,84.598z M107.499,88.357c1.625,0.938,4.25,0.938,5.864,0
											c1.614-0.938,1.605-2.459-0.019-3.397c-1.625-0.938-4.25-0.938-5.864,0C105.866,85.898,105.875,87.419,107.499,88.357
											L107.499,88.357z" class="colorf7d7e1 svgShape"></path></g></g></g><g fill="#f4f6f8" class="color000000 svgShape"><g fill="#f4f6f8" class="color000000 svgShape"><path fill="#d7e7f7" d="M112.536,85.748l-0.4,0.233c0.323,0.307,0.298,0.683-0.098,0.913l-0.567-0.327
										c0.168-0.097,0.103-0.3-0.146-0.444c-0.247-0.143-0.601-0.181-0.768-0.084c-0.169,0.098-0.101,0.303,0.146,0.446
										c0.564,0.326,0.632,0.818,0.149,1.099c-0.397,0.231-1.046,0.246-1.577,0.06l-0.399,0.232l-0.567-0.327l0.399-0.232
										c-0.324-0.307-0.301-0.684,0.096-0.915l0.567,0.327c-0.166,0.096-0.098,0.301,0.149,0.444
										c0.248,0.143,0.599,0.18,0.765,0.084c0.169-0.098,0.103-0.3-0.146-0.444c-0.565-0.326-0.632-0.82-0.149-1.1
										c0.396-0.23,1.047-0.244,1.578-0.058l0.4-0.233L112.536,85.748z" class="colorf7d7e1 svgShape"></path></g></g></g></g></g></g><g fill="#f4f6f8" class="color000000 svgShape"><g fill="#f4f6f8" class="color000000 svgShape"><g fill="#f4f6f8" class="color000000 svgShape"><g fill="#f4f6f8" class="color000000 svgShape"><g fill="#f4f6f8" class="color000000 svgShape"><g fill="#f4f6f8" class="color000000 svgShape"><g fill="#f4f6f8" class="color000000 svgShape"><path fill="#a5bcd3" d="M93.052,72.452c1.625,0.938,1.633,2.459,0.019,3.397c-1.614,0.938-4.239,0.938-5.864,0
											c-1.625-0.938-1.633-2.459-0.019-3.397C88.803,71.514,91.428,71.514,93.052,72.452z" class="colord3a5bb svgShape"></path></g><g fill="#f4f6f8" class="color000000 svgShape"><path fill="#a5bcd3" d="M95.162,74.164l-0.002,0.798c-0.002,0.741-0.489,1.481-1.462,2.047
											c-1.959,1.138-5.144,1.138-7.116,0c-0.992-0.573-1.488-1.325-1.485-2.075l0.002-0.798
											c-0.002,0.751,0.493,1.503,1.485,2.075c1.972,1.138,5.157,1.138,7.116,0C94.673,75.646,95.16,74.906,95.162,74.164z" class="colord3a5bb svgShape"></path></g><g fill="#f4f6f8" class="color000000 svgShape"><path fill="#d7e7f7" d="M93.676,72.089c1.971,1.138,1.982,2.984,0.023,4.122c-1.959,1.138-5.144,1.138-7.116,0
											c-1.971-1.138-1.982-2.983-0.023-4.122C88.519,70.951,91.705,70.951,93.676,72.089z M87.208,75.848
											c1.625,0.938,4.25,0.938,5.864,0c1.614-0.938,1.605-2.459-0.019-3.397c-1.625-0.938-4.25-0.938-5.864,0
											C85.575,73.39,85.583,74.91,87.208,75.848L87.208,75.848z" class="colorf7d7e1 svgShape"></path></g></g></g><g fill="#f4f6f8" class="color000000 svgShape"><g fill="#f4f6f8" class="color000000 svgShape"><path fill="#d7e7f7" d="M92.244,73.24l-0.4,0.233c0.322,0.307,0.298,0.683-0.098,0.913l-0.567-0.327
										c0.168-0.097,0.103-0.3-0.146-0.444c-0.247-0.143-0.601-0.181-0.768-0.084c-0.169,0.098-0.101,0.303,0.146,0.446
										c0.564,0.326,0.632,0.818,0.149,1.098c-0.397,0.231-1.047,0.246-1.577,0.061l-0.399,0.232l-0.567-0.327l0.399-0.232
										c-0.324-0.308-0.301-0.685,0.096-0.915l0.567,0.327c-0.166,0.096-0.098,0.301,0.149,0.444
										c0.248,0.143,0.599,0.18,0.765,0.084c0.169-0.098,0.103-0.3-0.146-0.444c-0.565-0.326-0.632-0.82-0.149-1.1
										c0.396-0.23,1.046-0.244,1.579-0.058l0.4-0.233L92.244,73.24z" class="colorf7d7e1 svgShape"></path></g></g></g></g></g></g><g fill="#f4f6f8" class="color000000 svgShape"><g fill="#f4f6f8" class="color000000 svgShape"><g fill="#f4f6f8" class="color000000 svgShape"><g fill="#f4f6f8" class="color000000 svgShape"><g fill="#f4f6f8" class="color000000 svgShape"><g fill="#f4f6f8" class="color000000 svgShape"><g fill="#f4f6f8" class="color000000 svgShape"><path fill="#a5bcd3" d="M81.345,85.778c1.625,0.938,1.633,2.459,0.019,3.397c-1.614,0.938-4.239,0.938-5.864,0
											c-1.625-0.938-1.633-2.459-0.019-3.397C77.095,84.84,79.72,84.84,81.345,85.778z" class="colord3a5bb svgShape"></path></g><g fill="#f4f6f8" class="color000000 svgShape"><path fill="#a5bcd3" d="M83.454,87.49l-0.002,0.798c-0.002,0.741-0.489,1.481-1.462,2.047
											c-1.959,1.138-5.144,1.138-7.116,0c-0.992-0.573-1.487-1.325-1.485-2.075l0.002-0.798
											c-0.002,0.751,0.493,1.502,1.485,2.075c1.971,1.138,5.157,1.138,7.116,0C82.965,88.971,83.452,88.231,83.454,87.49z" class="colord3a5bb svgShape"></path></g><g fill="#f4f6f8" class="color000000 svgShape"><path fill="#d7e7f7" d="M81.969,85.415c1.972,1.138,1.982,2.984,0.023,4.122c-1.959,1.138-5.144,1.138-7.116,0
											c-1.971-1.138-1.982-2.983-0.023-4.122C76.812,84.277,79.997,84.277,81.969,85.415z M75.5,89.174
											c1.625,0.938,4.25,0.938,5.864,0c1.614-0.938,1.605-2.459-0.019-3.397c-1.625-0.938-4.25-0.938-5.864,0
											C73.867,86.716,73.875,88.236,75.5,89.174L75.5,89.174z" class="colorf7d7e1 svgShape"></path></g></g></g><g fill="#f4f6f8" class="color000000 svgShape"><g fill="#f4f6f8" class="color000000 svgShape"><path fill="#d7e7f7" d="M80.536,86.565l-0.4,0.233c0.323,0.307,0.298,0.683-0.098,0.913l-0.567-0.327
										c0.168-0.097,0.103-0.3-0.146-0.444c-0.247-0.142-0.601-0.181-0.768-0.084c-0.169,0.098-0.101,0.303,0.146,0.445
										c0.564,0.326,0.632,0.818,0.149,1.099c-0.397,0.231-1.047,0.246-1.577,0.061l-0.399,0.232l-0.567-0.327l0.399-0.232
										c-0.324-0.308-0.301-0.685,0.096-0.916l0.567,0.327c-0.166,0.097-0.098,0.301,0.149,0.444
										c0.248,0.143,0.599,0.18,0.765,0.084c0.169-0.098,0.103-0.3-0.146-0.444c-0.566-0.326-0.632-0.82-0.15-1.1
										c0.396-0.23,1.047-0.245,1.579-0.058l0.4-0.233L80.536,86.565z" class="colorf7d7e1 svgShape"></path></g></g></g></g></g></g><g fill="#f4f6f8" class="color000000 svgShape"><g fill="#f4f6f8" class="color000000 svgShape"><g fill="#f4f6f8" class="color000000 svgShape"><g fill="#f4f6f8" class="color000000 svgShape"><g fill="#f4f6f8" class="color000000 svgShape"><g fill="#f4f6f8" class="color000000 svgShape"><g fill="#f4f6f8" class="color000000 svgShape"><path fill="#a5bcd3" d="M99.597,94.611c1.625,0.938,1.633,2.459,0.019,3.397c-1.614,0.938-4.239,0.938-5.864,0
											c-1.625-0.938-1.633-2.459-0.019-3.397C95.347,93.673,97.972,93.673,99.597,94.611z" class="colord3a5bb svgShape"></path></g><g fill="#f4f6f8" class="color000000 svgShape"><path fill="#a5bcd3" d="M101.706,96.323l-0.002,0.798c-0.002,0.741-0.489,1.481-1.462,2.047
											c-1.959,1.138-5.144,1.138-7.116,0c-0.992-0.573-1.488-1.325-1.485-2.075l0.002-0.798
											c-0.002,0.751,0.493,1.502,1.485,2.075c1.971,1.138,5.157,1.138,7.116,0C101.217,97.804,101.704,97.064,101.706,96.323z" class="colord3a5bb svgShape"></path></g><g fill="#f4f6f8" class="color000000 svgShape"><path fill="#d7e7f7" d="M100.221,94.248c1.971,1.138,1.982,2.984,0.023,4.122c-1.959,1.138-5.144,1.138-7.116,0
											c-1.971-1.138-1.982-2.983-0.023-4.122C95.064,93.11,98.25,93.11,100.221,94.248z M93.752,98.007
											c1.625,0.938,4.25,0.938,5.864,0c1.614-0.938,1.605-2.459-0.019-3.397c-1.625-0.938-4.25-0.938-5.864,0
											C92.119,95.549,92.128,97.069,93.752,98.007L93.752,98.007z" class="colorf7d7e1 svgShape"></path></g></g></g><g fill="#f4f6f8" class="color000000 svgShape"><g fill="#f4f6f8" class="color000000 svgShape"><path fill="#d7e7f7" d="M98.788,95.398l-0.4,0.233c0.322,0.307,0.298,0.683-0.098,0.913l-0.567-0.327
										c0.168-0.097,0.103-0.3-0.146-0.444c-0.247-0.142-0.601-0.181-0.768-0.084c-0.169,0.098-0.101,0.303,0.146,0.445
										c0.564,0.326,0.632,0.818,0.15,1.099c-0.397,0.231-1.047,0.246-1.577,0.061l-0.399,0.232l-0.567-0.327l0.399-0.232
										c-0.324-0.308-0.301-0.685,0.096-0.916l0.567,0.327c-0.166,0.097-0.098,0.301,0.149,0.444
										c0.248,0.143,0.599,0.18,0.765,0.084c0.169-0.098,0.103-0.3-0.146-0.444c-0.566-0.326-0.632-0.82-0.15-1.1
										c0.396-0.23,1.047-0.245,1.579-0.058l0.4-0.233L98.788,95.398z" class="colorf7d7e1 svgShape"></path></g></g></g></g></g></g></g><g fill="#f4f6f8" class="color000000 svgShape"><g fill="#f4f6f8" class="color000000 svgShape"><g fill="#f4f6f8" class="color000000 svgShape"><g fill="#f4f6f8" class="color000000 svgShape"><path fill="#c3d8ed" d="M229.923,123.332l-0.052,17.079c-0.002,0.2-0.134,0.401-0.399,0.556l-7.571,4.399
							c-0.533,0.31-1.398,0.31-1.933,0.002l-7.621-4.401c-0.269-0.155-0.403-0.36-0.403-0.562l0.052-17.079
							c0,0.205,0.134,0.408,0.403,0.562l7.621,4.401c0.535,0.31,1.4,0.307,1.933,0l7.571-4.401
							C229.789,123.735,229.921,123.532,229.923,123.332z" class="coloredc3d2 svgShape"></path></g><g fill="#f4f6f8" class="color000000 svgShape"><path fill="#a5bcd3" d="M229.525,123.887l-7.571,4.401c-0.291,0.168-0.679,0.237-1.06,0.221v17.084
							c0.364,0.006,0.731-0.067,1.008-0.228l7.571-4.399c0.264-0.155,0.396-0.355,0.399-0.555l0.052-17.079
							C229.921,123.532,229.789,123.734,229.525,123.887z" class="colord3a5bb svgShape"></path></g><g fill="#f4f6f8" class="color000000 svgShape"><path fill="#d7e7f7" d="M229.52,122.769c0.535,0.309,0.538,0.809,0.005,1.119l-7.571,4.4
							c-0.532,0.309-1.396,0.31-1.932,0.001l-7.622-4.4c-0.535-0.309-0.536-0.81-0.005-1.119l7.571-4.4
							c0.533-0.31,1.396-0.31,1.932-0.001L229.52,122.769z" class="colorf7d7e1 svgShape"></path></g></g></g><g fill="#f4f6f8" class="color000000 svgShape"><g fill="#f4f6f8" class="color000000 svgShape"><g fill="#f4f6f8" class="color000000 svgShape"><path fill="#7873bc" d="M247.457,117.664l-0.052,32.883c-0.002,0.2-0.134,0.401-0.398,0.556l-7.571,4.399
							c-0.533,0.31-1.398,0.31-1.933,0.002l-7.621-4.401c-0.269-0.155-0.403-0.36-0.403-0.562l0.052-32.883
							c0,0.205,0.134,0.408,0.403,0.562l7.621,4.401c0.535,0.31,1.4,0.307,1.933,0l7.571-4.401
							C247.323,118.067,247.455,117.865,247.457,117.664z" class="color73bc9c svgShape"></path></g><g fill="#f4f6f8" class="color000000 svgShape"><path fill="#7d53a0" d="M247.059,118.22l-7.571,4.401c-0.291,0.168-0.679,0.237-1.06,0.221v32.888
							c0.364,0.006,0.731-0.067,1.008-0.228l7.57-4.399c0.264-0.155,0.396-0.355,0.399-0.555l0.052-32.883
							C247.455,117.865,247.323,118.067,247.059,118.22z" class="color53a07a svgShape"></path></g><g fill="#f4f6f8" class="color000000 svgShape"><path fill="#8cadcf" d="M247.054,117.102c0.535,0.309,0.538,0.809,0.005,1.119l-7.571,4.4
							c-0.531,0.309-1.396,0.31-1.931,0.001l-7.622-4.401c-0.535-0.309-0.536-0.81-0.005-1.119l7.571-4.4
							c0.533-0.31,1.397-0.31,1.931-0.001L247.054,117.102z" class="color8ccfb1 svgShape"></path></g></g></g><g fill="#f4f6f8" class="color000000 svgShape"><g fill="#f4f6f8" class="color000000 svgShape"><g fill="#f4f6f8" class="color000000 svgShape"><path fill="#abc4dd" d="M264.992,140.705l-0.052,19.953c-0.002,0.2-0.134,0.401-0.398,0.556l-7.571,4.399
							c-0.533,0.31-1.398,0.31-1.933,0.002l-7.621-4.401c-0.269-0.155-0.403-0.36-0.403-0.562l0.052-19.953
							c0,0.205,0.134,0.408,0.403,0.562l7.621,4.401c0.535,0.31,1.4,0.307,1.933,0l7.571-4.401
							C264.857,141.108,264.989,140.906,264.992,140.705z" class="colorddacab svgShape"></path></g><g fill="#f4f6f8" class="color000000 svgShape"><path fill="#c494bb" d="M264.593,141.26l-7.571,4.401c-0.291,0.168-0.679,0.236-1.06,0.221v19.958
							c0.364,0.006,0.731-0.067,1.008-0.228l7.571-4.399c0.264-0.155,0.396-0.355,0.398-0.555l0.052-19.953
							C264.989,140.905,264.857,141.108,264.593,141.26z" class="colorc49494 svgShape"></path></g><g fill="#f4f6f8" class="color000000 svgShape"><path fill="#b5cee7" d="M264.588,140.143c0.535,0.309,0.538,0.809,0.005,1.119l-7.571,4.4
							c-0.531,0.309-1.396,0.31-1.932,0.001l-7.622-4.4c-0.535-0.309-0.536-0.81-0.005-1.119l7.571-4.4
							c0.533-0.31,1.396-0.31,1.931-0.001L264.588,140.143z" class="colore7b8b5 svgShape"></path></g></g></g><g fill="#f4f6f8" class="color000000 svgShape"><g fill="#f4f6f8" class="color000000 svgShape"><g fill="#f4f6f8" class="color000000 svgShape"><path fill="#938cf7" d="M282.459,136.345l-0.052,34.32c-0.002,0.2-0.134,0.401-0.398,0.555l-7.571,4.399
							c-0.533,0.31-1.398,0.31-1.933,0.002l-7.621-4.401c-0.269-0.155-0.403-0.36-0.403-0.562l0.052-34.32
							c0,0.205,0.134,0.408,0.403,0.562l7.621,4.401c0.535,0.31,1.4,0.307,1.933,0l7.571-4.401
							C282.325,136.748,282.457,136.545,282.459,136.345z" class="color8ca8f7 svgShape"></path></g><g fill="#f4f6f8" class="color000000 svgShape"><path fill="#5046e4" d="M282.061,136.9l-7.571,4.401c-0.291,0.168-0.679,0.236-1.06,0.221v34.324
							c0.364,0.006,0.731-0.067,1.008-0.228l7.571-4.399c0.264-0.155,0.396-0.355,0.398-0.555l0.052-34.32
							C282.457,136.545,282.325,136.748,282.061,136.9z" class="color8294ed svgShape"></path></g><g fill="#f4f6f8" class="color000000 svgShape"><path fill="#b7dbff" d="M282.056,135.782c0.535,0.309,0.538,0.809,0.005,1.119l-7.571,4.4
							c-0.532,0.309-1.397,0.31-1.932,0.001l-7.622-4.401c-0.535-0.309-0.536-0.81-0.005-1.119l7.571-4.4
							c0.533-0.31,1.396-0.31,1.931-0.001L282.056,135.782z" class="colorb7ceff svgShape"></path></g></g></g><g fill="#f4f6f8" class="color000000 svgShape"><g fill="#f4f6f8" class="color000000 svgShape"><g fill="#f4f6f8" class="color000000 svgShape"><polygon fill="#a50b89" points="217.832 103.391 219.019 102.701 242.187 98.948 241 99.638" class="colord363a1 svgShape"></polygon></g><g fill="#f4f6f8" class="color000000 svgShape"><polygon fill="#93c8fd" points="241 99.638 242.187 98.948 261.622 120.28 260.435 120.97" class="colorfd93bf svgShape"></polygon></g><g fill="#f4f6f8" class="color000000 svgShape"><polygon fill="#a50b89" points="286.266 108.742 287.453 108.052 284.451 118.336 283.264 119.026" class="colord363a1 svgShape"></polygon></g><g fill="#f4f6f8" class="color000000 svgShape"><polygon fill="#93c8fd" points="275.815 106.124 277.002 105.434 287.453 108.052 286.266 108.742" class="colorfd93bf svgShape"></polygon></g><g fill="#f4f6f8" class="color000000 svgShape"><polygon fill="#e576d1" points="275.815 106.124 286.266 108.742 283.264 119.026 280.981 115.072 261.206 126.341 241.288 104.482 219.758 107.968 217.832 103.391 241 99.638 260.435 120.97 278.451 110.703" class="colore576ad svgShape"></polygon></g></g></g></g><g fill="#f4f6f8" class="color000000 svgShape"><g fill="#f4f6f8" class="color000000 svgShape"><g fill="#f4f6f8" class="color000000 svgShape"><g fill="#f4f6f8" class="color000000 svgShape"><polygon fill="#7d53a0" points="159.168 216.872 159.163 218.729 136.912 231.659 136.917 229.803" class="color53a07a svgShape"></polygon></g><g fill="#f4f6f8" class="color000000 svgShape"><polygon fill="#7873bc" points="136.917 229.803 136.912 231.659 84.455 201.373 84.46 199.517" class="color73bc9c svgShape"></polygon></g><g fill="#f4f6f8" class="color000000 svgShape"><polygon fill="#8cadcf" points="159.168 216.872 136.917 229.803 84.46 199.517 106.71 186.586" class="color8ccfb1 svgShape"></polygon></g></g></g><g fill="#f4f6f8" class="color000000 svgShape"><g fill="#f4f6f8" class="color000000 svgShape"><path fill="#7d53a0" d="M129.564,204.805l-1.502,0.873c1.335,1.178,1.352,2.621-0.13,3.483l-1.924-1.111
						c0.674-0.392,0.336-1.267-0.721-1.877c-1.056-0.61-2.564-0.8-3.238-0.408c-0.669,0.389-0.336,1.262,0.72,1.872
						c2.151,1.242,2.481,3.083,0.733,4.098c-1.478,0.859-3.975,0.856-6.013,0.087l-1.507,0.876l-1.924-1.111l1.507-0.876
						c-1.34-1.181-1.348-2.624,0.13-3.483l1.924,1.111c-0.669,0.389-0.341,1.264,0.716,1.874c1.056,0.61,2.574,0.8,3.243,0.411
						c0.669-0.389,0.336-1.267-0.721-1.877c-2.151-1.242-2.481-3.077-0.733-4.093c1.483-0.862,3.97-0.859,6.013-0.087l1.502-0.873
						L129.564,204.805z" class="color53a07a svgShape"></path></g><g fill="#f4f6f8" class="color000000 svgShape"><path fill="#7d53a0" d="M108.871,190.806c1.187,0.685,1.193,1.793,0.014,2.479c-1.179,0.686-3.092,0.685-4.279,0
						c-1.182-0.683-1.194-1.793-0.014-2.479C105.772,190.121,107.689,190.124,108.871,190.806z" class="color53a07a svgShape"></path></g><g fill="#f4f6f8" class="color000000 svgShape"><path fill="#7d53a0" d="M151.87,215.632c1.187,0.685,1.193,1.793,0.014,2.479c-1.18,0.686-3.092,0.685-4.279,0
						c-1.187-0.685-1.193-1.793-0.014-2.479C148.771,214.947,150.683,214.946,151.87,215.632z" class="color53a07a svgShape"></path></g><g fill="#f4f6f8" class="color000000 svgShape"><path fill="#7d53a0" d="M139.017,223.102c1.187,0.685,1.189,1.796,0.014,2.479c-1.18,0.685-3.092,0.686-4.279,0
						c-1.187-0.685-1.193-1.793-0.014-2.479C135.912,222.419,137.83,222.416,139.017,223.102z" class="color53a07a svgShape"></path></g><g fill="#f4f6f8" class="color000000 svgShape"><path fill="#7d53a0" d="M140.153,215.593l-0.611,0.355c0.539,0.478,0.547,1.063-0.055,1.413l-0.78-0.45
						c0.274-0.159,0.137-0.518-0.289-0.764c-0.426-0.246-1.04-0.322-1.314-0.162c-0.27,0.157-0.137,0.512,0.289,0.758
						c0.872,0.503,1.012,1.248,0.299,1.662c-0.597,0.347-1.611,0.347-2.434,0.034l-0.611,0.355l-0.78-0.451l0.611-0.355
						c-0.548-0.478-0.547-1.063,0.05-1.41l0.78,0.45c-0.27,0.157-0.137,0.512,0.289,0.758c0.426,0.246,1.045,0.325,1.315,0.168
						c0.274-0.159,0.137-0.518-0.289-0.764c-0.872-0.504-1.007-1.245-0.299-1.656c0.602-0.35,1.606-0.35,2.439-0.036l0.611-0.355
						L140.153,215.593z" class="color53a07a svgShape"></path></g><g fill="#f4f6f8" class="color000000 svgShape"><path fill="#7d53a0" d="M109.762,198.046l-0.611,0.355c0.539,0.478,0.547,1.063-0.055,1.413l-0.78-0.45
						c0.274-0.159,0.137-0.518-0.289-0.764s-1.045-0.324-1.319-0.165c-0.27,0.157-0.132,0.515,0.294,0.761
						c0.872,0.504,1.012,1.248,0.299,1.662c-0.597,0.347-1.611,0.347-2.434,0.034l-0.611,0.355l-0.78-0.45l0.611-0.355
						c-0.548-0.479-0.552-1.066,0.045-1.413l0.78,0.45c-0.27,0.157-0.132,0.515,0.294,0.761c0.426,0.246,1.045,0.325,1.315,0.168
						c0.274-0.159,0.137-0.517-0.289-0.764c-0.872-0.504-1.012-1.248-0.304-1.659c0.602-0.35,1.611-0.347,2.444-0.034l0.611-0.355
						L109.762,198.046z" class="color53a07a svgShape"></path></g><g fill="#f4f6f8" class="color000000 svgShape"><path fill="#7d53a0" d="M96.018,198.276c1.187,0.685,1.189,1.796,0.014,2.479c-1.179,0.685-3.092,0.686-4.279,0
						c-1.182-0.683-1.193-1.793-0.014-2.479C92.913,197.593,94.836,197.593,96.018,198.276z" class="color53a07a svgShape"></path></g><g fill="#f4f6f8" class="color000000 svgShape"><path fill="#7d53a0" d="M106.719,188.616l48.944,28.258l-18.755,10.899l-20.162-11.641l-28.782-16.617L106.719,188.616z
						 M112.487,213.612c5.175,2.988,13.569,2.982,18.705-0.003c5.142-2.988,5.114-7.845-0.061-10.832
						c-5.175-2.988-13.564-2.991-18.706-0.003C107.289,205.759,107.312,210.624,112.487,213.612 M96.671,201.124l10.616,6.079
						c0.347-1.83,1.718-3.603,4.135-5.007c2.417-1.405,5.474-2.205,8.637-2.415l-10.573-6.104c1.564-0.909,1.556-2.347,0.02-3.234
						c-1.536-0.887-4.028-0.892-5.554-0.006c-1.526,0.887-1.508,2.33,0.028,3.217l-7.288,4.28c-1.575-0.909-4.067-0.915-5.593-0.028
						c-1.531,0.89-1.513,2.333,0.023,3.22C92.658,202.014,95.14,202.014,96.671,201.124 M139.648,222.735l7.288-4.28
						c1.575,0.909,4.057,0.909,5.583,0.022c1.526-0.887,1.518-2.325-0.018-3.212c-1.536-0.887-4.019-0.887-5.545,0l-10.616-6.085
						c-0.362,1.827-1.723,3.606-4.14,5.011c-2.417,1.404-5.479,2.202-8.632,2.411l10.578,6.107c-1.574,0.915-1.566,2.353-0.03,3.24
						c1.536,0.887,4.018,0.887,5.549-0.003C141.192,225.06,141.184,223.622,139.648,222.735 M141.404,209.684l-1.391,0.809
						l5.664,3.27l1.391-0.809L141.404,209.684 M113.514,193.582l-1.391,0.809l5.664,3.27l1.391-0.809L113.514,193.582
						 M130.114,222.808l1.386-0.806l-5.664-3.27l-1.386,0.806L130.114,222.808 M102.223,206.705l1.386-0.806l-5.664-3.27
						l-1.386,0.806L102.223,206.705" class="color53a07a svgShape"></path></g></g></g><g fill="#f4f6f8" class="color000000 svgShape"><g fill="#f4f6f8" class="color000000 svgShape"><g fill="#f4f6f8" class="color000000 svgShape"><g fill="#f4f6f8" class="color000000 svgShape"><g fill="#f4f6f8" class="color000000 svgShape"><g fill="#f4f6f8" class="color000000 svgShape"><g fill="#f4f6f8" class="color000000 svgShape"><path fill="#a5bcd3" d="M98.934,214.381c2.249,1.298,2.261,3.403,0.027,4.702c-2.234,1.298-5.868,1.298-8.117,0
										c-2.249-1.298-2.261-3.403-0.026-4.702C93.051,213.083,96.685,213.083,98.934,214.381z" class="colord3a5bb svgShape"></path></g><g fill="#f4f6f8" class="color000000 svgShape"><path fill="#a5bcd3" d="M101.854,216.752l-0.003,1.104c-0.003,1.026-0.677,2.05-2.024,2.833
										c-2.711,1.576-7.121,1.576-9.85,0c-1.373-0.793-2.059-1.833-2.056-2.873l0.003-1.104c-0.003,1.039,0.683,2.08,2.056,2.873
										c2.729,1.576,7.139,1.576,9.85,0C101.176,218.802,101.851,217.777,101.854,216.752z" class="colord3a5bb svgShape"></path></g><g fill="#f4f6f8" class="color000000 svgShape"><path fill="#d7e7f7" d="M99.797,213.879c2.729,1.576,2.743,4.13,0.032,5.705c-2.711,1.576-7.121,1.576-9.85,0
										c-2.729-1.576-2.743-4.13-0.032-5.706C92.659,212.303,97.069,212.303,99.797,213.879z M90.843,219.083
										c2.249,1.298,5.883,1.298,8.117,0c2.234-1.298,2.222-3.403-0.027-4.702c-2.249-1.298-5.883-1.298-8.117,0
										C88.583,215.679,88.594,217.784,90.843,219.083L90.843,219.083z" class="colorf7d7e1 svgShape"></path></g></g></g><g fill="#f4f6f8" class="color000000 svgShape"><g fill="#f4f6f8" class="color000000 svgShape"><path fill="#d7e7f7" d="M97.815,215.471l-0.554,0.322c0.446,0.424,0.413,0.945-0.135,1.264l-0.785-0.453
									c0.232-0.135,0.142-0.416-0.202-0.614c-0.342-0.197-0.831-0.251-1.063-0.116c-0.234,0.136-0.14,0.419,0.202,0.617
									c0.781,0.451,0.875,1.132,0.207,1.521c-0.55,0.32-1.449,0.341-2.183,0.084l-0.552,0.321l-0.785-0.453l0.552-0.321
									c-0.449-0.426-0.417-0.948,0.133-1.267l0.785,0.453c-0.23,0.134-0.136,0.417,0.206,0.614
									c0.344,0.199,0.829,0.25,1.059,0.116c0.234-0.136,0.142-0.416-0.202-0.614c-0.783-0.452-0.875-1.135-0.207-1.523
									c0.548-0.318,1.449-0.338,2.185-0.08l0.554-0.322L97.815,215.471z" class="colorf7d7e1 svgShape"></path></g></g></g></g></g></g><g fill="#f4f6f8" class="color000000 svgShape"><g fill="#f4f6f8" class="color000000 svgShape"><g fill="#f4f6f8" class="color000000 svgShape"><g fill="#f4f6f8" class="color000000 svgShape"><g fill="#f4f6f8" class="color000000 svgShape"><g fill="#f4f6f8" class="color000000 svgShape"><g fill="#f4f6f8" class="color000000 svgShape"><path fill="#a5bcd3" d="M113.809,222.021c2.249,1.298,2.261,3.403,0.026,4.702c-2.234,1.298-5.868,1.298-8.117,0
										c-2.249-1.298-2.261-3.403-0.026-4.702C107.926,220.723,111.56,220.723,113.809,222.021z" class="colord3a5bb svgShape"></path></g><g fill="#f4f6f8" class="color000000 svgShape"><path fill="#a5bcd3" d="M116.729,224.392l-0.003,1.104c-0.003,1.026-0.677,2.05-2.024,2.833
										c-2.711,1.576-7.121,1.576-9.85,0c-1.373-0.793-2.059-1.834-2.056-2.873l0.003-1.104c-0.003,1.039,0.683,2.08,2.056,2.873
										c2.729,1.576,7.139,1.576,9.85,0C116.052,226.442,116.726,225.418,116.729,224.392z" class="colord3a5bb svgShape"></path></g><g fill="#f4f6f8" class="color000000 svgShape"><path fill="#d7e7f7" d="M114.673,221.52c2.729,1.575,2.743,4.13,0.032,5.705c-2.711,1.576-7.121,1.576-9.85,0
										c-2.729-1.576-2.743-4.13-0.032-5.705C107.534,219.944,111.944,219.944,114.673,221.52z M105.718,226.723
										c2.249,1.298,5.883,1.298,8.117,0c2.234-1.298,2.222-3.403-0.027-4.702c-2.249-1.298-5.883-1.298-8.117,0
										C103.458,223.32,103.47,225.425,105.718,226.723L105.718,226.723z" class="colorf7d7e1 svgShape"></path></g></g></g><g fill="#f4f6f8" class="color000000 svgShape"><g fill="#f4f6f8" class="color000000 svgShape"><path fill="#d7e7f7" d="M112.69,223.112l-0.554,0.322c0.446,0.424,0.413,0.945-0.135,1.263l-0.785-0.453
									c0.232-0.135,0.142-0.416-0.202-0.614c-0.342-0.197-0.831-0.251-1.063-0.116c-0.234,0.136-0.14,0.419,0.202,0.617
									c0.781,0.451,0.875,1.132,0.207,1.521c-0.55,0.32-1.449,0.341-2.183,0.084l-0.552,0.321l-0.785-0.453l0.552-0.321
									c-0.449-0.426-0.417-0.948,0.133-1.267l0.785,0.453c-0.23,0.134-0.136,0.417,0.206,0.614
									c0.344,0.198,0.829,0.25,1.059,0.116c0.234-0.136,0.142-0.416-0.202-0.614c-0.783-0.452-0.875-1.135-0.207-1.523
									c0.548-0.318,1.449-0.338,2.185-0.08l0.554-0.322L112.69,223.112z" class="colorf7d7e1 svgShape"></path></g></g></g></g></g></g></g><g fill="#f4f6f8" class="color000000 svgShape"><g fill="#f4f6f8" class="color000000 svgShape"><g fill="#f4f6f8" class="color000000 svgShape"><path fill="#6560ad" d="M251.678,89.038l-6.297,3.086c-0.798,0.399-1.763,0.063-2.162-0.734l-3.086-6.297
					c-0.388-0.798-0.063-1.763,0.735-2.162l6.297-3.086c0.798-0.388,1.763-0.063,2.162,0.734l3.086,6.297
					C252.812,87.674,252.476,88.639,251.678,89.038z" class="color60ad88 svgShape"></path></g><g fill="#f4f6f8" class="color000000 svgShape"><path fill="#b7dbff" d="M258.067,91.361l-5.88,2.887c-0.748,0.367-1.655,0.057-2.022-0.69l-2.887-5.88
					c-0.367-0.748-0.057-1.655,0.69-2.022l5.88-2.887c0.748-0.367,1.655-0.058,2.022,0.69l2.887,5.88
					C259.124,90.086,258.814,90.993,258.067,91.361z M248.539,86.818c-0.107,0.052-0.151,0.182-0.099,0.289l2.887,5.88
					c0.052,0.107,0.182,0.151,0.289,0.099l5.88-2.887c0.107-0.052,0.151-0.182,0.099-0.289l-2.887-5.88
					c-0.052-0.107-0.182-0.151-0.289-0.099L248.539,86.818z" class="colorb7ceff svgShape"></path></g><path fill="#8cadcf" d="M97.545,232.048l-6.143-3.435c-0.781-0.438-1.772-0.158-2.209,0.623l-3.435,6.144
				c-0.437,0.781-0.157,1.772,0.625,2.209l6.143,3.435c0.781,0.437,1.772,0.158,2.209-0.625l3.435-6.143
				C98.607,233.477,98.326,232.485,97.545,232.048z M93.52,239.721c-0.062,0.112-0.204,0.152-0.316,0.089l-6.143-3.435
				c-0.112-0.062-0.152-0.204-0.089-0.316l3.435-6.144c0.063-0.111,0.204-0.151,0.316-0.089l6.143,3.436
				c0.112,0.062,0.152,0.204,0.089,0.316L93.52,239.721z" class="color8ccfb1 svgShape"></path><path fill="#9fb8d1" d="M73.529,179.921c0.875,3.949-2.565,7.39-6.514,6.514c-1.99-0.441-3.596-2.047-4.037-4.037
				c-0.875-3.949,2.565-7.39,6.514-6.514C71.482,176.325,73.088,177.931,73.529,179.921z" class="colord19f9f svgShape"></path><path fill="#938cf7" d="M160.567,56.653c0.875,3.949-2.565,7.39-6.514,6.514c-1.99-0.441-3.596-2.047-4.037-4.037
				c-0.875-3.949,2.565-7.39,6.514-6.514C158.52,53.057,160.126,54.663,160.567,56.653z" class="color8ca8f7 svgShape"></path><path fill="#e576d1" d="M219.943,236.663c0.441,1.828-1.164,3.432-2.992,2.992c-0.859-0.207-1.563-0.911-1.771-1.771
				c-0.441-1.828,1.164-3.432,2.992-2.992C219.032,235.1,219.736,235.804,219.943,236.663z" class="colore576ad svgShape"></path><ellipse cx="193.168" cy="86.238" fill="#83baf2" rx="3.389" ry="3.355" transform="rotate(-45.001 193.167 86.24)" class="colorf283b5 svgShape"></ellipse><path fill="#83baf2" d="M77.526,169.3c0.382,2.013-1.351,3.746-3.364,3.364c-1.118-0.212-2.033-1.127-2.245-2.245
				c-0.382-2.013,1.351-3.746,3.364-3.364C76.399,167.266,77.314,168.181,77.526,169.3z" class="colorf283b5 svgShape"></path></g></g></g></svg>