<svg xmlns="http://www.w3.org/2000/svg" xmlns:xlink="http://www.w3.org/1999/xlink" viewBox="0 0 1280 800" id="OnlineGiftShopping"><defs><linearGradient id="i" x1="263.95" x2="523.91" y1="475.55" y2="475.55" gradientUnits="userSpaceOnUse"><stop offset="0" stop-color="#d1e2f3" class="stopColord1d7f3 svgShape"></stop><stop offset=".18" stop-color="#dfebf7" class="stopColordfe3f7 svgShape"></stop><stop offset=".56" stop-color="#f6f9fd" class="stopColorf6f7fd svgShape"></stop><stop offset=".79" stop-color="#ffffff" class="stopColorffffff svgShape"></stop></linearGradient><linearGradient id="j" x1="217.83" x2="313.12" y1="452.58" y2="452.58" gradientUnits="userSpaceOnUse"><stop offset="0" stop-color="#7c3eaf" class="stopColor423eaf svgShape"></stop><stop offset="1" stop-color="#193f6f" class="stopColor20196f svgShape"></stop></linearGradient><linearGradient id="k" x1="214.98" x2="316.04" y1="452.7" y2="452.7" gradientUnits="userSpaceOnUse"><stop offset="0" stop-color="#5a52cc" class="stopColor5652cc svgShape"></stop><stop offset="1" stop-color="#662e94" class="stopColor362e94 svgShape"></stop></linearGradient><linearGradient id="m" x1="214.59" x2="316.36" y1="420.27" y2="420.27" gradientUnits="userSpaceOnUse"><stop offset="0" stop-color="#ffffff" class="stopColorffffff svgShape"></stop><stop offset=".32" stop-color="#ecf2f9" class="stopColoreceff9 svgShape"></stop><stop offset=".66" stop-color="#e0eaf5" class="stopColore0e4f5 svgShape"></stop><stop offset="1" stop-color="#dce8f4" class="stopColordce1f4 svgShape"></stop></linearGradient><linearGradient id="n" x1="284.56" x2="251.67" y1="402.36" y2="345.4" gradientUnits="userSpaceOnUse"><stop offset="0"></stop><stop offset=".12" stop-color="#0e2139" class="stopColor392f0e svgShape"></stop><stop offset=".24" stop-color="#1b3f6d" class="stopColor6d591b svgShape"></stop><stop offset=".37" stop-color="#a50b89" class="stopColor9a7e25 svgShape"></stop><stop offset=".5" stop-color="#be2ea4" class="stopColorbe9b2e svgShape"></stop><stop offset=".62" stop-color="#db35bd" class="stopColordbb235 svgShape"></stop><stop offset=".75" stop-color="#3a94ef" class="stopColorefc33a svgShape"></stop><stop offset=".88" stop-color="#3d9cfb" class="stopColorfbcd3d svgShape"></stop><stop offset="1" stop-color="#3e9eff" class="stopColorffd03e svgShape"></stop></linearGradient><linearGradient id="o" x1="129.82" x2="183.24" y1="533.74" y2="533.74" gradientUnits="userSpaceOnUse"><stop offset=".43" stop-color="#c4d4e4" class="stopColorc4c9e4 svgShape"></stop><stop offset=".58" stop-color="#d7e2ed" class="stopColord7daed svgShape"></stop><stop offset=".85" stop-color="#f4f6f8" class="stopColorf4f5fa svgShape"></stop><stop offset="1" stop-color="#ffffff" class="stopColorffffff svgShape"></stop></linearGradient><linearGradient id="p" x1="118.05" x2="171.5" y1="536.91" y2="536.91" gradientUnits="userSpaceOnUse"><stop offset="0" stop-color="#cee3f8" class="stopColorced3f8 svgShape"></stop><stop offset=".42" stop-color="#c4d9ef" class="stopColorc4c9ef svgShape"></stop><stop offset="1" stop-color="#bbd0e6" class="stopColorbbc0e6 svgShape"></stop></linearGradient><linearGradient id="a" x1="458.59" x2="1161.95" y1="438.78" y2="438.78" gradientUnits="userSpaceOnUse"><stop offset="0" stop-color="#dae7f5" class="stopColordae0f5 svgShape"></stop><stop offset=".36" stop-color="#e3edf8" class="stopColore3e8f8 svgShape"></stop><stop offset=".94" stop-color="#fcfdfe" class="stopColorfcfdfe svgShape"></stop><stop offset="1" stop-color="#ffffff" class="stopColorffffff svgShape"></stop></linearGradient><linearGradient id="q" x1="885.1" x2="1157.85" y1="381.85" y2="381.85" xlink:href="#a"></linearGradient><linearGradient id="r" x1="731.03" x2="779.15" y1="213.48" y2="241.66" gradientUnits="userSpaceOnUse"><stop offset="0" stop-color="#d1e2f3" class="stopColord1d7f3 svgShape"></stop><stop offset=".28" stop-color="#e4eef8" class="stopColore4e8f8 svgShape"></stop><stop offset=".66" stop-color="#f8fafd" class="stopColorf8f9fd svgShape"></stop><stop offset=".92" stop-color="#ffffff" class="stopColorffffff svgShape"></stop></linearGradient><linearGradient id="b" x1="687.49" x2="718.77" y1="276.93" y2="276.93" gradientUnits="userSpaceOnUse"><stop offset=".43" stop-color="#c2d2e3" class="stopColorc2c8e3 svgShape"></stop><stop offset=".59" stop-color="#d7e2ed" class="stopColord7dbed svgShape"></stop><stop offset=".85" stop-color="#f4f6f8" class="stopColorf4f5fa svgShape"></stop><stop offset="1" stop-color="#ffffff" class="stopColorffffff svgShape"></stop></linearGradient><linearGradient id="c" x1="680.78" x2="709.9" y1="277.53" y2="277.53" gradientUnits="userSpaceOnUse"><stop offset="0" stop-color="#6f67e9" class="stopColor6b67e9 svgShape"></stop><stop offset=".33" stop-color="#5046e4" class="stopColor5a56d1 svgShape"></stop><stop offset=".75" stop-color="#4c45b8" class="stopColor4945b8 svgShape"></stop><stop offset="1" stop-color="#7c3eaf" class="stopColor423eaf svgShape"></stop></linearGradient><linearGradient id="s" x1="654.13" x2="678.1" y1="238.69" y2="238.69" xlink:href="#b"></linearGradient><linearGradient id="t" x1="648.98" x2="671.3" y1="239.15" y2="239.15" xlink:href="#c"></linearGradient><linearGradient id="u" x1="708.32" x2="757.57" y1="242.99" y2="192.46" gradientUnits="userSpaceOnUse"><stop offset="0" stop-color="#7c3eaf" class="stopColor423eaf svgShape"></stop><stop offset=".21" stop-color="#4d46b8" class="stopColor4a46b8 svgShape"></stop><stop offset=".55" stop-color="#625ad1" class="stopColor5e5ad1 svgShape"></stop><stop offset=".99" stop-color="#847cfa" class="stopColor7f7cfa svgShape"></stop><stop offset="1" stop-color="#857dfb" class="stopColor807dfb svgShape"></stop></linearGradient><linearGradient id="v" x1="456.19" x2="793.97" y1="680.43" y2="680.43" gradientUnits="userSpaceOnUse"><stop offset="0" stop-color="#dfe9f4" class="stopColordfe4f4 svgShape"></stop><stop offset=".41" stop-color="#e4ecf5" class="stopColore4e8f5 svgShape"></stop><stop offset=".88" stop-color="#f1f5fa" class="stopColorf1f2fa svgShape"></stop><stop offset="1" stop-color="#f6f8fb" class="stopColorf6f6fb svgShape"></stop></linearGradient><linearGradient id="w" x1="29.63" x2="367.39" y1="-8.27" y2="-8.27" gradientTransform="translate(416.67 721.69)" gradientUnits="userSpaceOnUse"><stop offset=".31" stop-color="#fc06cf" class="stopColorfcba06 svgShape"></stop><stop offset=".34" stop-color="#f104c6" class="stopColorf1aa04 svgShape"></stop><stop offset=".39" stop-color="#dc00b4" class="stopColordc8b00 svgShape"></stop></linearGradient><linearGradient id="x" x1="674.58" x2="894.7" y1="210.36" y2="210.36" gradientTransform="matrix(1.5 -.29 .87 .5 -743.96 796.05)" gradientUnits="userSpaceOnUse"><stop offset="0" stop-color="#6f67e9" class="stopColor6b67e9 svgShape"></stop><stop offset=".54" stop-color="#7870f1" class="stopColor7470f1 svgShape"></stop><stop offset="1" stop-color="#847cfb" class="stopColor807cfb svgShape"></stop></linearGradient><linearGradient id="d" x1="1223.83" x2="1413.12" y1="487.51" y2="487.51" gradientTransform="translate(-308.24)" gradientUnits="userSpaceOnUse"><stop offset="0" stop-color="#c4d4e5" class="stopColorc4c9e5 svgShape"></stop><stop offset=".64" stop-color="#edf2f7" class="stopColoredeff7 svgShape"></stop><stop offset="1" stop-color="#ffffff" class="stopColorffffff svgShape"></stop></linearGradient><linearGradient id="y" x1="1373.77" x2="1466.09" y1="578.34" y2="578.34" xlink:href="#d"></linearGradient><linearGradient id="z" x1="447.02" x2="506.86" y1="489.29" y2="489.29" gradientUnits="userSpaceOnUse"><stop offset="0" stop-color="#c4d6e9" class="stopColorc4cae9 svgShape"></stop><stop offset=".19" stop-color="#d2e0ee" class="stopColord2d6ee svgShape"></stop><stop offset=".71" stop-color="#f3f6fa" class="stopColorf3f4fa svgShape"></stop><stop offset="1" stop-color="#ffffff" class="stopColorffffff svgShape"></stop></linearGradient><linearGradient id="A" x1="592.4" x2="633.16" y1="301.42" y2="230.83" gradientUnits="userSpaceOnUse"><stop offset="0" stop-color="#fc06cf" class="stopColorfcba06 svgShape"></stop><stop offset=".1" stop-color="#f705cb" class="stopColorf7b305 svgShape"></stop><stop offset=".53" stop-color="#e701bd" class="stopColore79a01 svgShape"></stop><stop offset=".8" stop-color="#e100b8" class="stopColore19100 svgShape"></stop></linearGradient><linearGradient id="B" x1="557.56" x2="609.58" y1="294.31" y2="204.21" gradientUnits="userSpaceOnUse"><stop offset="0" stop-color="#e100b8" class="stopColore19100 svgShape"></stop><stop offset=".57" stop-color="#ef03c4" class="stopColorefa603 svgShape"></stop><stop offset="1" stop-color="#fc06cf" class="stopColorfcba06 svgShape"></stop></linearGradient><linearGradient id="C" x1="590.8" x2="601.98" y1="261.48" y2="242.12" gradientUnits="userSpaceOnUse"><stop offset="0" stop-color="#e100b8" class="stopColore19100 svgShape"></stop><stop offset=".13" stop-color="#e601bc" class="stopColore69801 svgShape"></stop><stop offset=".67" stop-color="#f605ca" class="stopColorf6b105 svgShape"></stop><stop offset="1" stop-color="#fc06cf" class="stopColorfcba06 svgShape"></stop></linearGradient><linearGradient id="e" x1="884.81" x2="943.34" y1="376.88" y2="376.88" gradientTransform="translate(-308.01)" gradientUnits="userSpaceOnUse"><stop offset="0" stop-color="#c4d6e8" class="stopColorc4cae8 svgShape"></stop><stop offset=".09" stop-color="#ceddec" class="stopColorced3ec svgShape"></stop><stop offset=".41" stop-color="#e9eff6" class="stopColore9ebf6 svgShape"></stop><stop offset=".69" stop-color="#f9fbfd" class="stopColorf9fafd svgShape"></stop><stop offset=".9" stop-color="#ffffff" class="stopColorffffff svgShape"></stop></linearGradient><linearGradient id="D" x1="812.18" x2="862.45" y1="368.19" y2="368.19" gradientTransform="translate(-271.99)" xlink:href="#e"></linearGradient><linearGradient id="f" x1="-1464.62" x2="-1443.03" y1="366.76" y2="366.76" gradientTransform="matrix(-1 0 0 1 -909.65 0)" gradientUnits="userSpaceOnUse"><stop offset="0" stop-color="#7c3eaf" class="stopColor423eaf svgShape"></stop><stop offset=".3" stop-color="#7035a0" class="stopColor3a35a0 svgShape"></stop><stop offset=".89" stop-color="#1e4577" class="stopColor241e77 svgShape"></stop><stop offset="1" stop-color="#193f6f" class="stopColor1f196f svgShape"></stop></linearGradient><linearGradient id="E" x1="-1501.85" x2="-1480.28" y1="374.82" y2="374.82" xlink:href="#f"></linearGradient><linearGradient id="F" x1="-1491.33" x2="-1449.84" y1="324.9" y2="324.9" gradientTransform="matrix(-1 0 0 1 -909.65 0)" gradientUnits="userSpaceOnUse"><stop offset="0" stop-color="#7c3eaf" class="stopColor423eaf svgShape"></stop><stop offset=".3" stop-color="#683097" class="stopColor353097 svgShape"></stop><stop offset=".75" stop-color="#1f477a" class="stopColor251f7a svgShape"></stop><stop offset="1" stop-color="#193f6f" class="stopColor1f196f svgShape"></stop></linearGradient><linearGradient id="G" x1="-1488.36" x2="-1449.62" y1="259.96" y2="259.96" gradientTransform="matrix(-1 0 0 1 -909.65 0)" gradientUnits="userSpaceOnUse"><stop offset="0" stop-color="#857dfb" class="stopColor807dfb svgShape"></stop><stop offset=".97" stop-color="#5a52cc" class="stopColor5652cc svgShape"></stop></linearGradient><linearGradient id="H" x1="1090.59" x2="1138.37" y1="257.7" y2="257.7" gradientTransform="matrix(-1 0 0 1 1706.26 0)" gradientUnits="userSpaceOnUse"><stop offset="0" stop-color="#857dfb" class="stopColor807dfb svgShape"></stop><stop offset=".27" stop-color="#8078f5" class="stopColor7b78f5 svgShape"></stop><stop offset=".63" stop-color="#7169e5" class="stopColor6c69e5 svgShape"></stop><stop offset="1" stop-color="#5a52cc" class="stopColor5652cc svgShape"></stop></linearGradient><linearGradient id="I" x1="1103.77" x2="1172.75" y1="82.22" y2="201.69" gradientTransform="matrix(-1 0 0 1 1676.26 0)" gradientUnits="userSpaceOnUse"><stop offset=".61" stop-color="#857dfb" class="stopColor807dfb svgShape"></stop><stop offset=".66" stop-color="#746ce9" class="stopColor706ce9 svgShape"></stop><stop offset=".73" stop-color="#5a52cc" class="stopColor5652cc svgShape"></stop></linearGradient><linearGradient id="J" x1="796.06" x2="908.04" y1="130" y2="130" gradientUnits="userSpaceOnUse"><stop offset="0" stop-color="#c4d4e4" class="stopColorc4c9e4 svgShape"></stop><stop offset=".16" stop-color="#cedbe9" class="stopColorced2e9 svgShape"></stop><stop offset=".69" stop-color="#ebf0f6" class="stopColorebecf6 svgShape"></stop><stop offset="1" stop-color="#f6f8fb" class="stopColorf6f6fb svgShape"></stop></linearGradient><linearGradient id="K" x1="832.3" x2="919.89" y1="617.93" y2="617.93" gradientUnits="userSpaceOnUse"><stop offset="0" stop-color="#c2d2e2" class="stopColorc2c7e2 svgShape"></stop><stop offset="1" stop-color="#ffffff" class="stopColorffffff svgShape"></stop></linearGradient><linearGradient id="g" x1="814.78" x2="894.28" y1="610.41" y2="610.41" gradientUnits="userSpaceOnUse"><stop offset="0" stop-color="#d6e2ee" class="stopColord6dcee svgShape"></stop><stop offset=".55" stop-color="#c4d4e5" class="stopColorc4cae5 svgShape"></stop><stop offset="1" stop-color="#bbcee1" class="stopColorbbc1e1 svgShape"></stop></linearGradient><linearGradient id="L" x1="814.78" x2="894.28" y1="618" y2="618" gradientUnits="userSpaceOnUse"><stop offset="0" stop-color="#857df9" class="stopColor807df9 svgShape"></stop><stop offset=".01" stop-color="#847cf8" class="stopColor7f7cf8 svgShape"></stop><stop offset=".45" stop-color="#615acf" class="stopColor5e5acf svgShape"></stop><stop offset=".79" stop-color="#4d46b6" class="stopColor4a46b6 svgShape"></stop><stop offset="1" stop-color="#6822a2" class="stopColor423ead svgShape"></stop></linearGradient><linearGradient id="M" x1="814.78" x2="894.28" y1="625.59" y2="625.59" xlink:href="#g"></linearGradient><linearGradient id="N" x1="967.15" x2="1064.98" y1="700.39" y2="700.39" gradientUnits="userSpaceOnUse"><stop offset=".45" stop-color="#c4d4e4" class="stopColorc4c9e4 svgShape"></stop><stop offset="1" stop-color="#ffffff" class="stopColorffffff svgShape"></stop></linearGradient><linearGradient id="h" x1="944.73" x2="1040.56" y1="708.04" y2="708.04" gradientUnits="userSpaceOnUse"><stop offset="0" stop-color="#fc06cf" class="stopColorfcba06 svgShape"></stop><stop offset="1" stop-color="#e100b8" class="stopColore19100 svgShape"></stop></linearGradient><linearGradient id="O" x1="977.86" x2="998.89" y1="697.11" y2="697.11" xlink:href="#h"></linearGradient><linearGradient id="P" x1="314.54" x2="351.45" y1="731.28" y2="731.28" gradientUnits="userSpaceOnUse"><stop offset=".42" stop-color="#c4d6e9" class="stopColorc4cae9 svgShape"></stop><stop offset=".71" stop-color="#e4ecf5" class="stopColore4e6f5 svgShape"></stop><stop offset="1" stop-color="#ffffff" class="stopColorffffff svgShape"></stop></linearGradient><linearGradient id="Q" x1="1661.87" x2="1675.34" y1="899.4" y2="922.74" gradientTransform="rotate(120 1050.076 434.382)" gradientUnits="userSpaceOnUse"><stop offset="0" stop-color="#e100b8" class="stopColore19100 svgShape"></stop><stop offset="1" stop-color="#fc06cf" class="stopColorfcba06 svgShape"></stop></linearGradient><radialGradient id="l" cx="223.99" cy="314.26" r="160.27" gradientUnits="userSpaceOnUse"><stop offset="0" stop-color="#3e9eff" class="stopColorffd03e svgShape"></stop><stop offset=".25" stop-color="#3b9cfd" class="stopColorfdcc3b svgShape"></stop><stop offset=".49" stop-color="#3194f7" class="stopColorf7c131 svgShape"></stop><stop offset=".71" stop-color="#ee20c9" class="stopColoreeae20 svgShape"></stop><stop offset=".93" stop-color="#e108ba" class="stopColore19408 svgShape"></stop><stop offset="1" stop-color="#dc00b4" class="stopColordc8b00 svgShape"></stop></radialGradient></defs><g style="isolation:isolate" fill="#f4f6f8" class="color000000 svgShape"><polygon points="523.91 458.88 285.61 458.88 263.95 475.55 265.48 492.23 466.14 492.23 523.91 458.88" style="mix-blend-mode:multiply" fill="url(#i)"></polygon><path fill="#193f6f" d="M223.21,468.94c11.55,11.55,36.42,21.83,42.27,23.29,5.85-1.46,30.72-11.74,42.26-23.29A754.32,754.32,0,0,0,223.21,468.94Z" class="color20196f svgShape"></path><path fill="url(#j)" d="M217.83,421.42v34.82c0,7,4.66,14.08,14,19.45,18.6,10.74,48.77,10.74,67.37,0,9.31-5.37,14-12.41,14-19.45V421.42Z"></path><path fill="url(#k)" d="M316,439.15a3,3,0,0,0-1.5-2.4,19,19,0,0,0,1.57-7.5,3.11,3.11,0,0,0-2.84-2.76c-1.43,0,0,2.76,0,2.76h-.66c0,6.88-4.76,13.41-13.41,18.4-18.53,10.7-48.69,10.7-67.22,0-8.65-5-13.41-11.52-13.41-18.4h-.73s1.42-2.76,0-2.76a3,3,0,0,0-2.77,2.76,19,19,0,0,0,1.56,7.47,3,3,0,0,0-1.56,2.43,19,19,0,0,0,1.56,7.45A3,3,0,0,0,215,449c0,8.17,5.38,15.79,15.16,21.43,19.51,11.26,51.24,11.26,70.74,0C310.66,464.82,316,457.2,316,449a3.24,3.24,0,0,0-1.57-2.39A17.76,17.76,0,0,0,316,439.15Zm-16.85,28.27c-18.53,10.7-48.69,10.7-67.22,0-8.12-4.68-12.81-10.73-13.35-17.14a34.38,34.38,0,0,0,11.59,10.3c19.51,11.26,51.24,11.26,70.74,0a34.33,34.33,0,0,0,11.6-10.3C311.94,456.69,307.25,462.74,299.12,467.42Zm0-9.88c-18.53,10.7-48.69,10.7-67.22,0-8.12-4.69-12.81-10.74-13.35-17.15a34.51,34.51,0,0,0,11.59,10.31c19.51,11.25,51.24,11.25,70.74,0a34.45,34.45,0,0,0,11.6-10.31C311.94,446.8,307.25,452.85,299.12,457.54Z"></path><path fill="url(#l)" d="M349.88,338.49a84.41,84.41,0,1,0-143.29,60.44c6.41,6.44,8,18.07,8,21.34,0,7.52,5,15,14.91,20.77,19.87,11.48,52.09,11.47,72,0,9.93-5.73,14.9-13.25,14.9-20.77,0-3.27,1.59-14.9,8.06-21.37A84.18,84.18,0,0,0,349.88,338.49Z"></path><path d="M229.5,399.5c19.87-11.48,52.08-11.48,72,0s19.87,30.07,0,41.54-52.09,11.48-72,0S209.63,411,229.5,399.5Z" style="mix-blend-mode:multiply" fill="url(#m)"></path><path fill="none" stroke="#ffffff" stroke-linecap="round" stroke-width="5.02" d="M198.11,338.49a67.37,67.37,0,0,1,67.37-67.37" class="colorStrokeffffff svgStroke"></path><path d="M284.34,328.48a3.28,3.28,0,0,0-3.39,0c-2.33,1.35-4.06,5.74-5.18,11.33-.75-2.24-1.74-3.92-3-4.66a3.28,3.28,0,0,0-3.39,0c-2.33,1.35-4.06,5.74-5.18,11.33-.75-2.23-1.74-3.92-3-4.66a3.28,3.28,0,0,0-3.39,0c-2.33,1.34-4.06,5.73-5.18,11.32-.75-2.23-1.74-3.92-3-4.66a3.28,3.28,0,0,0-3.39,0c-4.38,2.53-6.67,15.8-6.67,27.61,0,12,2.86,15.58,5.63,19,2.93,3.63,6,7.38,6,23.43a1.76,1.76,0,1,0,3.52,0c0-17.28-3.58-21.72-6.73-25.63-2.61-3.23-4.86-6-4.86-16.81,0-13.38,2.83-23.25,4.88-24.54,1.13.75,3.2,6.67,3.19,17.85a1.76,1.76,0,0,0,3.52,0c0-13.38,2.82-23.25,4.87-24.54,1.14.75,3.21,6.67,3.21,17.85a1.76,1.76,0,1,0,3.51,0c0-13.38,2.82-23.25,4.87-24.54,1.14.75,3.2,6.67,3.2,17.85a1.76,1.76,0,0,0,3.52,0c0-13.38,2.82-23.25,4.87-24.54,1.13.75,3.2,6.67,3.2,17.85s-2.49,17.15-5.15,23.56c-3,7.3-6.44,15.58-6.44,32.26a1.76,1.76,0,0,0,3.52,0c0-16,3.14-23.58,6.17-30.92,2.78-6.74,5.42-13.1,5.42-24.9C289.38,340.71,288.05,330.63,284.34,328.48Z" style="mix-blend-mode:screen" fill="url(#n)"></path><path d="M175.36,522.8c-5.59-3.23-13-4.71-20.3-4.5H143.63v1.88a29.47,29.47,0,0,0-6,2.62c-10.39,6-10.33,15.84.13,21.88a30.41,30.41,0,0,0,5.92,2.57v2h13.71c6.59-.11,13.13-1.6,18.14-4.52C185.88,538.64,185.83,528.84,175.36,522.8Z" style="mix-blend-mode:multiply" fill="url(#o)"></path><path fill="url(#p)" d="M125.93,544.69c-5.26-3-7.9-7-7.88-11l0-9.08c0,4,2.62,8,7.88,11,10.47,6,27.38,6,37.78,0,5.17-3,7.75-6.93,7.77-10.86l0,9.08c0,3.93-2.59,7.86-7.76,10.86C153.31,550.74,136.4,550.74,125.93,544.69Z"></path><path fill="#f6f8fb" d="M126,535.61c-10.46-6-10.52-15.84-.12-21.88s27.32-6.05,37.78,0,10.52,15.84.12,21.88S136.42,541.65,126,535.61Z" class="colorf6f6fb svgShape"></path><polygon fill="#bdcdde" points="158.49 523.42 138.72 524.43 139.34 519.99 133.87 519.99 132.39 528.08 158.49 526.58 158.49 523.42" class="colorbdc2de svgShape"></polygon><polygon points="1161.95 276.6 908.04 276.6 908.04 341.47 458.59 600.96 550.16 600.96 662.52 536.09 754.09 536.09 866.45 471.22 958.02 471.22 1070.38 406.35 1161.95 406.35 1161.95 341.47 1161.95 276.6" style="mix-blend-mode:multiply" fill="url(#a)"></polygon><polygon fill="#bbd0e6" points="795.68 194.88 795.68 247.74 683.32 312.62 683.32 365.48 570.95 430.36 570.95 483.22 458.59 548.1 458.59 600.96 908.04 341.47 908.04 130 795.68 194.88" class="colorbbc0e6 svgShape"></polygon><polygon fill="#f1f3f6" points="458.59 548.1 346.23 483.22 458.59 418.35 570.95 483.22 458.59 548.1" class="colorf1f1f6 svgShape"></polygon><polygon fill="#cee3f8" points="458.59 600.96 346.23 536.09 346.23 483.22 458.59 548.1 458.59 600.96" class="colorced3f8 svgShape"></polygon><polygon fill="#cee3f8" points="570.95 483.22 458.59 418.35 458.59 365.48 570.95 430.36 570.95 483.22" class="colorced3f8 svgShape"></polygon><polygon fill="#cee3f8" points="683.32 365.48 570.95 300.61 570.95 247.74 683.32 312.62 683.32 365.48" class="colorced3f8 svgShape"></polygon><polygon fill="#cee3f8" points="795.68 247.74 683.32 182.87 683.32 130 795.68 194.88 795.68 247.74" class="colorced3f8 svgShape"></polygon><polygon fill="#f1f3f6" points="570.95 430.36 458.59 365.48 570.95 300.61 683.32 365.48 570.95 430.36" class="colorf1f1f6 svgShape"></polygon><polygon fill="#f1f3f6" points="683.32 312.62 570.95 247.74 683.32 182.87 795.68 247.74 683.32 312.62" class="colorf1f1f6 svgShape"></polygon><polygon fill="#f1f3f6" points="795.68 194.88 683.32 130 795.68 65.13 908.04 130 795.68 194.88" class="colorf1f1f6 svgShape"></polygon><rect width="272.75" height="113.4" x="885.1" y="325.15" style="mix-blend-mode:multiply" fill="url(#q)"></rect><path fill="#1c3f6b" d="M933.53,219.5V185.38c0-8.34-2.92-14.62-8.22-17.68s-12.2-2.44-19.42,1.73c-14.12,8.15-25.62,28.06-25.62,44.37v34.12h0a2,2,0,0,0,4,0h0V213.8c0-15,10.59-33.37,23.61-40.89,5.92-3.42,11.39-4,15.39-1.72s6.2,7.35,6.2,14.19V219.5h0a2,2,0,0,0,4,0Z" class="color1e1c6b svgShape"></path><path fill="#662e94" d="M1017.51,362.1,885.1,438.55l-5.22-156.66q66.21-38.22,132.41-76.45Z" class="color362e94 svgShape"></path><path fill="#7c3eaf" d="M1014.5,271.81,927.82,413.88l9.29-5.36,77.71-127.37Zm-.88-26.68L901.33,429.18l9.28-5.36,103.32-169.34Zm-.89-26.67-128,209.75c.11,3.12.21,6.23.32,9.35l128-209.75C1012.93,224.69,1012.83,221.58,1012.73,218.46Zm4.44,133.37L1007.31,368l9.28-5.36.89-1.46C1017.38,358.06,1017.27,354.94,1017.17,351.83Zm-1.78-53.35-61.07,100.1,9.28-5.35,52.1-85.4C1015.6,304.71,1015.5,301.6,1015.39,298.48Zm.89,26.67-35.47,58.14,9.29-5.36,26.49-43.43Q1016.44,329.84,1016.28,325.15ZM892.75,274.47l-12.44,20.37c.11,3.12.21,6.23.31,9.35L902,269.11Q897.38,271.78,892.75,274.47Zm26.49-15.3-38,62.35c.1,3.11.21,6.23.31,9.34l47-77.05Zm26.5-15.3L882.09,348.19c.1,3.12.21,6.23.31,9.34l72.62-119Zm53-30.6L883.87,401.54c.1,3.11.2,6.23.31,9.34l123.83-203Zm-26.5,15.3L883,374.87q.15,4.67.31,9.34l98.22-161Q976.88,225.9,972.23,228.57Z" class="color423eaf svgShape"></path><polygon fill="#662e94" points="848 263.49 842.78 414.12 874.38 405.84 874.38 266.66 848 263.49" class="color362e94 svgShape"></polygon><polygon fill="#5a52cc" points="885.1 438.55 879.88 281.89 874.38 266.66 874.38 266.66 874.38 405.84 874.38 405.84 885.1 438.55" class="color5652cc svgShape"></polygon><path fill="#857dfb" d="M985.92,202.27,980.41,187,848,263.49l26.38,3.17,5.5,15.23,132.41-76.45ZM877.49,264.86l-22-2.65L978.2,191.33l4.6,12.74,22.06,2.65L882.1,277.6C880.54,273.3,877.49,264.86,877.49,264.86Z" class="color807dfb svgShape"></path><polygon fill="#7c3eaf" points="885.1 438.55 842.78 414.12 874.38 405.84 885.1 438.55" class="color423eaf svgShape"></polygon><polygon fill="#7c3eaf" points="978.2 191.33 978.2 222.12 882.1 277.6 877.49 264.86 855.44 262.21 978.2 191.33" class="color423eaf svgShape"></polygon><polygon fill="#6f67e9" points="982.8 204.07 982.8 219.46 978.2 222.12 978.2 191.33 982.8 204.07" class="color6b67e9 svgShape"></polygon><polygon fill="#7c3eaf" points="982.8 204.07 1004.86 206.72 982.8 219.46 982.8 204.07" class="color423eaf svgShape"></polygon><path fill="#1c3f6b" d="M891.85 251.33a5.27 5.27 0 012.38-4.12c1.32-.76 2.39-.14 2.39 1.37a5.24 5.24 0 01-2.39 4.12C892.92 253.46 891.85 252.85 891.85 251.33zM941.08 222.91a5.27 5.27 0 012.38-4.12c1.32-.76 2.38-.15 2.38 1.37a5.24 5.24 0 01-2.38 4.12C942.15 225 941.08 224.43 941.08 222.91z" class="color1e1c6b svgShape"></path><path fill="#1c3f6b" d="M980.81,246.8V212.68c0-8.34-2.92-14.62-8.22-17.68s-12.19-2.44-19.41,1.73c-14.13,8.15-25.63,28.06-25.63,44.37v34.12h0a2,2,0,0,0,4,0h0V241.1c0-15,10.59-33.37,23.61-40.89,5.93-3.42,11.39-4,15.39-1.72s6.21,7.35,6.21,14.19V246.8h0a2,2,0,0,0,4,0Z" class="color1e1c6b svgShape"></path><path d="M713.28,242c12.74,2.64,48.62,5.16,63.59-5.08,1.76-14-13.18-41.38-27.62-51.6C742.72,205.21,713.28,242,713.28,242Z" style="mix-blend-mode:multiply" fill="url(#r)"></path><path fill="#ffffff" d="M740.1,177.26c14,7.74,16.57,26.72,5.82,42.38s-30.8,22.07-44.76,14.33-16.59-26.72-5.84-42.38S726.14,169.51,740.1,177.26Z" class="colorffffff svgShape"></path><path d="M714.48,271a21.36,21.36,0,0,0-11.06-2.45H695v1a16.36,16.36,0,0,0-3.3,1.43c-5.66,3.29-5.63,8.63.07,11.92a16.49,16.49,0,0,0,3.23,1.4v1.06h9.65a20.78,20.78,0,0,0,9.89-2.46C720.21,279.6,720.18,274.26,714.48,271Z" style="mix-blend-mode:multiply" fill="url(#b)"></path><path fill="url(#c)" d="M685.08,282.89c-2.87-1.66-4.31-3.83-4.3-6v-7.2c0,2.17,1.43,4.35,4.3,6,5.7,3.29,14.92,3.29,20.58,0,2.81-1.64,4.22-3.78,4.23-5.92V277c0,2.14-1.42,4.28-4.23,5.92C700,286.18,690.78,286.18,685.08,282.89Z"></path><path fill="#ffffff" d="M685.09,275.74c-5.7-3.29-5.73-8.63-.07-11.92s14.88-3.3,20.58,0,5.73,8.63.07,11.92S690.79,279,685.09,275.74Z" class="colorffffff svgShape"></path><path fill="#bbd0e6" d="M691.42,265.57c.05-.4.37-.76,1-1.11a4.14,4.14,0,0,1,1.91-.55,3.24,3.24,0,0,1,1.8.41c.52.29.75.64.71,1s-.36.77-1,1.11a4.11,4.11,0,0,1-1.92.56,3.42,3.42,0,0,1-1.8-.41C691.61,266.31,691.37,266,691.42,265.57Zm10.65,2.34,1.87,1.08-16.21,1.76-1.88-1.08Zm-9,5.35c0-.41.38-.79,1-1.14a4.17,4.17,0,0,1,2-.58A3.33,3.33,0,0,1,698,272c.53.31.78.67.73,1.08s-.37.79-1,1.14a4.28,4.28,0,0,1-2,.57,3.33,3.33,0,0,1-1.86-.42C693.32,274,693.07,273.66,693.12,273.26Z" class="colorbbc0e6 svgShape"></path><path d="M674.81,234.12a16.47,16.47,0,0,0-8.48-1.87h-6.44V233a13.13,13.13,0,0,0-2.53,1.09c-4.34,2.53-4.31,6.62.06,9.14a12,12,0,0,0,2.47,1.07v.82h7.4a15.89,15.89,0,0,0,7.57-1.89C679.2,240.74,679.18,236.65,674.81,234.12Z" style="mix-blend-mode:multiply" fill="url(#s)"></path><path fill="url(#t)" d="M652.28,243.26c-2.2-1.27-3.3-2.94-3.3-4.6v-5.51c0,1.66,1.1,3.33,3.3,4.6,4.37,2.52,11.43,2.52,15.77,0,2.16-1.26,3.24-2.89,3.24-4.54v5.51c0,1.65-1.08,3.29-3.24,4.54C663.71,245.78,656.65,245.78,652.28,243.26Z"></path><path fill="#ffffff" d="M652.29,237.78c-4.37-2.52-4.4-6.61-.06-9.14s11.41-2.52,15.78,0,4.39,6.62,0,9.14S656.66,240.3,652.29,237.78Z" class="colorffffff svgShape"></path><path fill="#bbd0e6" d="M657.14 230c0-.31.28-.59.74-.85a3.12 3.12 0 011.46-.42 2.43 2.43 0 011.38.31c.39.22.58.49.54.79s-.27.59-.73.85a3.1 3.1 0 01-1.48.43 2.55 2.55 0 01-1.37-.32C657.28 230.55 657.1 230.29 657.14 230zm8.16 1.79l1.43.83L654.31 234l-1.44-.83zm-6.86 4.1c0-.31.3-.6.76-.88a3.25 3.25 0 011.52-.43 2.47 2.47 0 011.42.32c.41.23.6.51.56.82s-.29.61-.75.88a3.25 3.25 0 01-1.52.43 2.59 2.59 0 01-1.43-.32C658.59 236.46 658.41 236.19 658.44 235.88zM717.2 201.21a6.78 6.78 0 01-6-.31 5.36 5.36 0 01-2.94-4.65 10.78 10.78 0 012.27-6.67 12.52 12.52 0 015.65-4.8 6.71 6.71 0 016 .27 5.46 5.46 0 013 4.64 10.71 10.71 0 01-2.28 6.71A12.41 12.41 0 01717.2 201.21zm-5.34-5.81a2.66 2.66 0 001.37 2.62 3.35 3.35 0 003.25 0 9.53 9.53 0 003.39-3.26 8.53 8.53 0 001.74-4.18 2.62 2.62 0 00-1.42-2.6l0 0A3.3 3.3 0 00717 188a9.1 9.1 0 00-3.42 3.21 8.21 8.21 0 00-1.69 4.17" class="colorbbc0e6 svgShape"></path><polygon fill="#bbd0e6" points="737.42 193.9 741.02 195.89 703.5 215.05 699.9 213.05 737.42 193.9" class="colorbbc0e6 svgShape"></polygon><path fill="#bbd0e6" d="M732.6,212.68a10.66,10.66,0,0,1-2.25,6.69,12.34,12.34,0,0,1-5.67,4.78,6.69,6.69,0,0,1-6-.28,5.36,5.36,0,0,1-2.93-4.65,10.76,10.76,0,0,1,2.27-6.68,12.6,12.6,0,0,1,5.65-4.8,6.7,6.7,0,0,1,5.95.28A5.41,5.41,0,0,1,732.6,212.68Zm-8.66,8.24a9.42,9.42,0,0,0,3.4-3.22,8.4,8.4,0,0,0,1.7-4.17,2.63,2.63,0,0,0-1.39-2.62,3.34,3.34,0,0,0-3.23,0,9.47,9.47,0,0,0-3.4,3.24,8.37,8.37,0,0,0-1.73,4.19,2.65,2.65,0,0,0,1.4,2.61,3.33,3.33,0,0,0,3.25-.07" class="colorbbc0e6 svgShape"></path><path fill="url(#u)" d="M745.83,181.68l5.08,5.36c8.73,9.2,9.16,24.75.1,38-10.76,15.66-30.8,22.08-44.77,14.34a23.85,23.85,0,0,1-5.73-4.42l-5.09-5.36a23.65,23.65,0,0,0,5.74,4.42c14,7.74,34,1.33,44.76-14.33C755,206.43,754.56,190.88,745.83,181.68Z"></path><path d="M680.84,585.54c-6-3.48-15.9-3.48-21.93,0L460.72,700c-6,3.49-6,9.19,0,12.67l108.6,62.7c6,3.48,15.91,3.48,21.94,0L789.45,660.91c6-3.49,6-9.19,0-12.67Z" style="mix-blend-mode:multiply" fill="url(#v)"></path><path fill="url(#w)" d="M779.54,655.18,581.36,769.6c-6,3.49-15.91,3.49-21.94,0l-108.6-62.7c-3-1.71-4.47-4-4.52-6.22h0v5a8.81,8.81,0,0,0,4.52,7l108.6,62.7c6,3.49,15.9,3.49,21.94,0L779.54,660.91c3-1.73,4.5-4,4.52-6.27v-5.73h0C784,651.18,782.53,653.45,779.54,655.18Z"></path><path fill="#857dfb" d="M670.94,579.81c-6-3.48-15.9-3.48-21.94,0L450.82,694.24c-6,3.48-6,9.18,0,12.66l108.6,62.7c6,3.48,15.9,3.48,21.94,0L779.54,655.18c6-3.48,6-9.18,0-12.67Z" class="color807dfb svgShape"></path><path fill="url(#x)" d="M779.54,642.51l-108.6-62.7c-6-3.48-15.9-3.48-21.94,0l-18.44,10.65h0c-58.92,34-56.14,50-28.59,83.84,21.56,26.5-74.84,14.82-74.84,76.66h0l32.29,18.64c6,3.48,15.9,3.48,21.94,0L779.54,655.18C785.57,651.7,785.57,646,779.54,642.51Z"></path><path fill="#5a52cc" d="M619.77,619a27.61,27.61,0,0,1,13.45,3.47q5.71,3.3,6,7.82T634,638a25,25,0,0,1-13.33,3.05,27.79,27.79,0,0,1-13.46-3.47q-5.7-3.3-6-7.82t5.28-7.75A25.08,25.08,0,0,1,619.77,619Zm32.66-21.81,16.19,60.5-11.17,6.45-16.18-60.51Zm-24.18,33.4c-.26-1.22-1.26-2.32-3-3.32a12.94,12.94,0,0,0-5.84-1.68,9.69,9.69,0,0,0-5.37,1c-1.41.82-2,1.83-1.73,3.05s1.26,2.32,3,3.32a12.94,12.94,0,0,0,5.84,1.68,9.69,9.69,0,0,0,5.37-1.05C627.93,632.83,628.51,631.81,628.25,630.6Zm60.92-11.19a27.68,27.68,0,0,1,13.46,3.47q5.72,3.3,6,7.82t-5.28,7.74a25,25,0,0,1-13.32,3A27.76,27.76,0,0,1,676.58,638q-5.72-3.3-6-7.82t5.28-7.75A25.11,25.11,0,0,1,689.17,619.41ZM698,631q-.39-1.83-3-3.32a12.94,12.94,0,0,0-5.84-1.68,9.61,9.61,0,0,0-5.37,1c-1.41.82-2,1.83-1.73,3.05s1.26,2.32,3,3.32a12.94,12.94,0,0,0,5.84,1.68,9.69,9.69,0,0,0,5.37-1.05C697.68,633.23,698.26,632.21,698,631Z" class="color5652cc svgShape"></path><polygon fill="#662e94" points="559.42 769.6 779.54 642.51 747.25 623.87 527.13 750.96 559.42 769.6" class="color362e94 svgShape"></polygon><polygon fill="#5a52cc" points="490.78 716.47 561.72 675.51 553.68 670.87 482.74 711.82 490.78 716.47" class="color5652cc svgShape"></polygon><polygon fill="#5a52cc" points="477.51 708.8 595.25 640.82 587.21 636.18 469.46 704.16 477.51 708.8" class="color5652cc svgShape"></polygon><polygon fill="#193f6f" points="527.13 750.96 527.13 752.5 559.42 771.15 559.42 769.6 527.13 750.96" class="color20196f svgShape"></polygon><polygon points="1104.88 486.93 1104.88 486.93 1104.88 486.93 1017.51 438.78 915.59 438.78 1000.98 488.07 1002.96 486.93 917.58 536.23 1019.5 536.23 1104.88 486.93 1104.88 486.93" style="mix-blend-mode:multiply" fill="url(#d)"></polygon><polygon fill="#bbd0e6" points="917.58 472.71 1002.97 423.42 1002.96 486.93 917.58 536.23 917.58 472.71" class="colorbbc0e6 svgShape"></polygon><polygon fill="#f1f3f6" points="919.57 375.27 1002.97 423.42 917.58 472.71 834.19 424.56 919.57 375.27" class="colorf1f1f6 svgShape"></polygon><polygon fill="#cee3f8" points="834.19 424.56 917.58 472.71 917.58 536.23 834.19 488.07 834.19 424.56" class="colorced3f8 svgShape"></polygon><polygon points="890.67 498.62 855.15 478.11 855.15 464.91 890.67 485.42 890.67 498.62" style="mix-blend-mode:multiply" fill="#fc06cf" class="colorfcba06 svgShape"></polygon><polygon fill="#ffffff" points="952.42 394.23 968.8 403.69 883.41 452.99 867.04 443.53 952.42 394.23" class="colorffffff svgShape"></polygon><polygon fill="#dfe9f4" points="867.04 443.53 883.42 452.99 883.41 471.46 867.04 462.01 867.04 443.53" class="colordfe4f4 svgShape"></polygon><polygon points="894.24 389.89 939.93 387.02 919.57 375.27 894.24 389.89" style="mix-blend-mode:multiply" fill="#dfe9f4" class="colordfe4f4 svgShape"></polygon><polygon points="1157.85 577.96 1157.85 577.96 1157.85 577.96 1100.07 546.11 1065.53 546.11 1122 578.72 1123.31 577.96 1066.84 610.57 1101.38 610.57 1157.85 577.96 1157.85 577.96" style="mix-blend-mode:multiply" fill="url(#y)"></polygon><polygon fill="#bbd0e6" points="1066.84 591.57 1123.32 558.97 1123.31 577.96 1066.84 610.57 1066.84 591.57" class="colorbbc0e6 svgShape"></polygon><polygon fill="#f1f3f6" points="1068.16 527.12 1123.32 558.97 1066.84 591.57 1011.68 559.72 1068.16 527.12" class="colorf1f1f6 svgShape"></polygon><polygon fill="#cee3f8" points="1011.68 559.72 1066.84 591.57 1066.84 610.57 1011.68 578.72 1011.68 559.72" class="colorced3f8 svgShape"></polygon><polygon fill="#ffffff" points="1089.88 539.66 1100.71 545.92 1044.24 578.52 1033.42 572.27 1089.88 539.66" class="colorffffff svgShape"></polygon><polygon fill="#dfe9f4" points="1033.42 572.27 1044.25 578.52 1044.24 590.75 1033.42 584.49 1033.42 572.27" class="colordfe4f4 svgShape"></polygon><polygon points="506.86 496.47 486.5 484.71 499.57 469.9 499.57 469.9 499.57 469.9 499.57 469.9 481.25 469.9 447.02 508.69 465.34 508.69 478.42 493.87 506.86 496.47" style="mix-blend-mode:multiply" fill="url(#z)"></polygon><polygon fill="#fc06cf" points="435.23 454.39 435.23 465.69 439.73 482.12 439.73 470.81 435.23 454.39" class="colorfcba06 svgShape"></polygon><polygon fill="#e100b8" points="481.25 458.6 481.25 469.9 468.18 484.72 468.18 473.42 481.25 458.6" class="colore19100 svgShape"></polygon><polygon fill="#fc06cf" points="460.1 482.57 460.1 493.87 488.54 496.47 488.54 485.17 460.1 482.57" class="colorfcba06 svgShape"></polygon><polygon fill="#e100b8" points="414.07 478.36 414.07 489.66 442.51 492.27 442.51 480.96 414.07 478.36" class="colore19100 svgShape"></polygon><polygon fill="#e100b8" points="460.1 482.57 460.1 493.87 447.02 508.69 447.02 497.39 460.1 482.57" class="colore19100 svgShape"></polygon><polygon fill="#fc06cf" points="447.02 497.39 447.02 508.69 442.51 492.27 442.51 480.96 447.02 497.39" class="colorfcba06 svgShape"></polygon><polygon fill="#3e9eff" points="481.25 458.6 468.18 473.42 488.54 485.17 460.1 482.57 447.02 497.39 442.51 480.96 414.07 478.36 439.73 470.81 435.23 454.39 455.59 466.15 481.25 458.6" class="colorffd03e svgShape"></polygon><path fill="#3e9eff" d="M571.92,275.82c0-18.38,12.91-40.73,28.82-49.92s28.83-1.74,28.83,16.64-12.91,40.73-28.82,49.92S571.92,294.2,571.92,275.82Z" class="colorffd03e svgShape"></path><path fill="#50a7ff" d="M603.21,218.12c-20.32,11.73-36.8,40.26-36.8,63.72s16.48,33,36.8,21.24S640,262.82,640,239.36,623.53,206.38,603.21,218.12Zm0,75.76c-15.92,9.19-28.82,1.74-28.82-16.64s12.9-40.73,28.82-49.92S632,225.58,632,244,619.13,284.69,603.21,293.88Z" class="colorffe950 svgShape"></path><path fill="url(#A)" d="M622.31,224.66c4.52,3.27,7.26,9.41,7.26,17.88,0,18.38-12.91,40.73-28.82,49.92-7.34,4.24-14,4.93-19.11,2.66,5.28,3.83,13,3.72,21.57-1.24C619.13,284.69,632,262.34,632,244,632,234,628.27,227.32,622.31,224.66Z"></path><path fill="url(#B)" d="M617,208.49c-6.7-4.22-16.13-3.82-26.59,2.21-20.32,11.74-36.79,40.27-36.79,63.73,0,11.9,4.25,20.2,11.07,24h0l11.72,6.73c-6.17-4-10-12.06-10-23.29,0-23.46,16.48-52,36.8-63.72,9.94-5.74,18.95-6.39,25.58-2.81L617,208.48Z"></path><path fill="#50a7ff" d="M603.21,257.91a3.33,3.33,0,0,1-5.48-3.13,12.12,12.12,0,0,1,5.48-9.47c3-1.74,5.47-.33,5.47,3.14l5-2.87c0-5.64-3.4-8.41-8-7.05V234l-5,2.86v4.52c-4.56,3.91-8,10.61-8,16.25,0,3.21,1.08,5.59,3.05,6.73s4.6.86,7.39-.75c3-1.75,5.47-.34,5.47,3.13a12.08,12.08,0,0,1-5.47,9.47c-3,1.74-5.48.33-5.48-3.14l-5,2.86c0,5.65,3.4,8.42,8,7.07v4.16l5-2.87v-4.16c4.57-3.92,8-10.61,8-16.26C613.66,257.27,609,254.59,603.21,257.91Z" class="colorffe950 svgShape"></path><path fill="#e100b8" d="M605.65,244.57a4.94,4.94,0,0,1,.58,2.46l2.45,1.42C608.68,246,607.45,244.57,605.65,244.57Z" class="colore19100 svgShape"></path><path fill="#fc06cf" d="M608.6,256.07c-1.91-1.4-4.72-1.38-7.85.42a5,5,0,0,1-2.43.73,2.87,2.87,0,0,0,1,1.09,3.87,3.87,0,0,0,3.88-.4c2.79-1.61,5.32-1.8,7.2-.82l-1.8-1Z" class="colorfcba06 svgShape"></path><path fill="#e100b8" d="M605.66 262.89a4.9 4.9 0 01.57 2.45 12.12 12.12 0 01-5.48 9.47 5 5 0 01-2.44.74c.89 1.56 2.75 1.92 4.9.68a12.08 12.08 0 005.47-9.47C608.68 264.3 607.45 262.89 605.66 262.89zM598.26 283.35v2.41l2.46 1.42V283A7.77 7.77 0 01598.26 283.35z" class="colore19100 svgShape"></path><path fill="#fc06cf" d="M605.69,236.78v1.75a6.3,6.3,0,0,1,4.52.15l-1.81-1.06h0A5.35,5.35,0,0,0,605.69,236.78Z" class="colorfcba06 svgShape"></path><polygon fill="#fc06cf" points="603.23 232.6 598.26 235.47 600.72 236.88 605.69 234.02 603.23 232.6" class="colorfcba06 svgShape"></polygon><path fill="url(#C)" d="M590.3,256.23c0,3.21,1.09,5.59,3.06,6.72l2.24,1.27c-1.83-1.18-2.84-3.49-2.83-6.57,0-5.64,3.39-12.34,8-16.25L598.26,240C593.7,243.89,590.31,250.59,590.3,256.23Z"></path><polygon fill="#e100b8" points="598.26 235.47 598.26 239.98 600.72 241.4 600.72 236.88 598.26 235.47" class="colore19100 svgShape"></polygon><path fill="#e100b8" d="M592.77,276l-2.46-1.41c0,3,1,5.21,2.58,6.39h0l0,0a4.75,4.75,0,0,0,.93.53l1.47.84C593.74,281.14,592.77,279,592.77,276Z" class="colore19100 svgShape"></path><polygon fill="#fb4bdb" points="597.73 273.09 595.27 271.67 590.3 274.54 592.77 275.95 597.73 273.09" class="colorfb934b svgShape"></polygon><rect width="58.53" height="10.76" x="576.8" y="371.5" style="mix-blend-mode:multiply" fill="url(#e)"></rect><rect width="50.27" height="9.12" x="540.18" y="363.62" style="mix-blend-mode:multiply" fill="url(#D)"></rect><path fill="url(#f)" d="M533.38,369.45c0-8.45,5.35-8.7,5.35-8.7s4.15,3,7.72,2.53c4.65-2.23,11.1-1.67,7.43,5.09a1.87,1.87,0,0,1-.12.25,3.39,3.39,0,0,1-1.19,1l-3.58,1.6-8.12,1.27C539.08,373.54,533.42,371.19,533.38,369.45Z"></path><path fill="#102847" d="M533.41,368.69c.1,1.74,4,3.12,7.46,3,0,0,7-.09,8.17-.8l3.53-2.07a10.29,10.29,0,0,0,1.65-1.2c-.11.23-.2.46-.34.71a1.87,1.87,0,0,1-.12.25,3.39,3.39,0,0,1-1.19,1s-2.41,1.44-3.53,2.07-8.17,1-8.17,1c-2.61.23-6.75-1.29-7.42-3a1.47,1.47,0,0,1-.05-.34A6.23,6.23,0,0,1,533.41,368.69Z" class="color121047 svgShape"></path><path fill="#ffffff" d="M535.55,359.64a48.57,48.57,0,0,1,6.24,1.24,2.72,2.72,0,0,0,.43,1.26l.14.16c1,.67,1.93,1.72-.34,3.15a3.17,3.17,0,0,1-4.09-.29,3.72,3.72,0,0,0-1.32-1.5,3.42,3.42,0,0,0-1.27-.54s0-.11,0-.11S535,359.64,535.55,359.64Z" class="colorffffff svgShape"></path><path fill="#0c2340" d="M540.48,274.24l23.81.42c-2,15.91-5.94,30.35-8.58,45.76-2.84,15-11.05,28.43-13.84,40.89-1,2.32-5.71,1.44-6.65-.79-.74-11.48,2.19-27.33,5.59-40.57C540.25,305.69,540.15,288.65,540.48,274.24Z" class="color131147 svgShape"></path><path fill="url(#E)" d="M570.62,379c0-8.45,5.36-8.7,5.36-8.7a22.16,22.16,0,0,0,7.61-1.95c4.64-1.94,11.2-1.19,7.54,5.56a2,2,0,0,1-.13.25,3.21,3.21,0,0,1-1.19,1L578.11,382C576.33,383,570.66,380.69,570.62,379Z"></path><path fill="#102847" d="M570.65,378.19c.1,1.73,5.69,4,7.46,3l11.7-6.86a10.29,10.29,0,0,0,1.65-1.2c-.11.23-.2.45-.33.7a2,2,0,0,1-.13.25,3.21,3.21,0,0,1-1.19,1L578.11,382c-1.67,1-6.75-1-7.42-2.74a1.55,1.55,0,0,1-.05-.34A6.23,6.23,0,0,1,570.65,378.19Z" class="color121047 svgShape"></path><path fill="#ffffff" d="M572.8,369.14a49.06,49.06,0,0,1,6.23,1.23,2.86,2.86,0,0,0,.43,1.26l.14.16c1,.67,1.94,1.72-.34,3.15a3.15,3.15,0,0,1-4.09-.29,3.78,3.78,0,0,0-1.32-1.5,3.29,3.29,0,0,0-1.27-.53s0-.12,0-.12S572.22,369.14,572.8,369.14Z" class="colorffffff svgShape"></path><path fill="url(#F)" d="M557.27,312.06c-1.45-6.84-18.13-7.69-17-34.57,5.24-.77,31.65,11.62,36.88,10.85a177,177,0,0,1,4.56,43.27c-.35,15.24-1.79,26.14-2.51,38.89-.63,2.46-5.39,2.35-6.69.31-2.61-11.2-5.73-24.86-4.54-38.47C566.38,324.8,559,320.07,557.27,312.06Z"></path><path fill="#7c3eaf" d="M552.31,225.28c-18.63,12.45-13.91,26.29.45,39.86C552.76,265.14,560,237.9,552.31,225.28Z" class="color423eaf svgShape"></path><path fill="url(#G)" d="M551.46,292.73c11.34,6.37,23.2,6.37,27.25-1.45-1.52-14.56-2.94-26.42,0-40.38-.85-7.71-1.46-8.87-.48-13.36-.35-1.51-5-4.73-8.36-7.82-3.65-3.33-6.12-6.5-8-6.88-15.51-3.17-23,24.46-21.74,53.92C541.3,284.59,545.87,289.6,551.46,292.73Z"></path><path fill="#a9d2fc" d="M553.25,224.6c3.36-2.44,3.09-7.46,2.81-10.8a16.21,16.21,0,0,1-.63-5.76c.5-7.35,5.61-13.39,11.32-12.6,11.51,1.57,9,7.52,8.54,14.87-.46,6.8-3.86,11.28-9.08,11.72-.08,1.12.38,4.52,1.79,5.94-3.78,2.26-9.31,1.2-11.49.21S551.67,226.23,553.25,224.6Z" class="colorfcd1a9 svgShape"></path><path fill="#193f6f" d="M571.35,191.85c-.28-.93-2-1.53-8,.78l-1.55.6c-11.06,4.79-8.39,17.55-6.73,20.94a7,7,0,0,1,.87,4c4.35-.18,5.72,2.26,8.51-.18,2-1.74,5-3.79,5.49-4.65a3.39,3.39,0,0,0,.4-2.11c0-6.11,2.84-2.38,2.75-1,1.16-.57,1.08-3,1-5.76h0C583.48,197.52,578.43,192.68,571.35,191.85Z" class="color20196f svgShape"></path><path fill="#a9d2fc" d="M612.57,272.79c1.15-.16,1.34-3.07,3.13-3.72s5.56-2.17,5.74-1c.15,1-3.22,1.57-2.65,2,1.63,1.1,4.44-1,4.92-2.4s1.55-1.73,1.72-.49.74,6.9-3.39,9.15a27.77,27.77,0,0,1-9.45,2.72Z" class="colorfcd1a9 svgShape"></path><path fill="url(#H)" d="M614.7,279s3.25-4.26-2.12-6.65c-8.58-.7-17-4.15-21.16-7.2-2.85-3.63-7.52-19.54-12.21-27.39-4.44-5.76-14,3-10.58,11.13,3,6.94,10.61,20.41,14.65,25.12C586.8,278.09,603.8,280.64,614.7,279Z"></path><path fill="#f1f3f6" d="M498.73,160.91a15.19,15.19,0,0,1,6.84-11.84L594.11,98c3.76-2.17,6.83-.4,6.83,3.94v34.78a15.16,15.16,0,0,1-6.83,11.84l-88.54,51.12c-3.76,2.17-6.84.39-6.84-3.95Z" class="colorf1f1f6 svgShape"></path><path fill="url(#I)" d="M498.73,195.69V160.91a15.19,15.19,0,0,1,6.84-11.84L594.11,98c1.85-1.07,3.54-1.18,4.78-.49l-3.58-2.07h0c-1.25-.8-3-.74-5,.38l-88.54,51.12A15.16,15.16,0,0,0,495,158.75v34.77c0,2.28.85,3.84,2.19,4.5l3.41,2C499.44,199.24,498.73,197.76,498.73,195.69Z"></path><path fill="#cee3f8" d="M516.85 177.33v-5.81l-4.9 2.83v-4l4.9-2.82v-5.82l3.86-2.22v5.81l4.89-2.83v4l-4.89 2.82v5.82zM536.78 155.57a7 7 0 00.74-2.77 1.6 1.6 0 00-.64-1.51 1.58 1.58 0 00-1.65.19q-1.85 1.07-3.5 5.05l-3.5-.37a26.77 26.77 0 013-5.45 13.44 13.44 0 014.17-3.66 5 5 0 014.45-.71c1.27.5 1.91 1.81 1.91 3.94a10.85 10.85 0 01-.77 3.79 45.69 45.69 0 01-2.84 5.73l-3.52 6.26 7.72-4.46v4.53l-13.79 8v-3.75l5.73-10.09C535.46 158.22 536.28 156.67 536.78 155.57zM553.52 159.94q-4.07 2.34-6.07.32c-1.34-1.34-2-3.78-2-7.33a22.68 22.68 0 012-9.65 14.56 14.56 0 016.07-6.69c2.7-1.56 4.73-1.67 6.07-.32s2 3.79 2 7.33a22.76 22.76 0 01-2 9.66A14.64 14.64 0 01553.52 159.94zm-2.88-15.45a17.73 17.73 0 00-.93 6 9.85 9.85 0 00.93 4.92c.61 1 1.57 1.16 2.88.41a6.69 6.69 0 002.88-3.73 18 18 0 00.92-6 10 10 0 00-.92-4.93c-.61-1-1.58-1.16-2.88-.4A6.58 6.58 0 00550.64 144.49z" class="colorced3f8 svgShape"></path><polygon fill="#cee3f8" points="577.03 141.76 569.74 150.4 571.13 140.22 565.23 136.98 573.39 130.9 577.03 120.26 580.68 126.69 588.84 123.35 582.94 133.4 584.33 141.98 577.03 141.76" class="colorced3f8 svgShape"></polygon><polygon points="844.76 93.47 796.06 93.47 859.34 130 796.06 166.54 844.77 166.54 908.04 130 844.76 93.47" style="mix-blend-mode:multiply" fill="url(#J)"></polygon><polygon fill="#5a52cc" points="796.06 99.03 862.72 60.54 796.06 22.06 729.4 60.54 796.06 99.03" class="color5652cc svgShape"></polygon><path fill="#7c3eaf" d="M794.25,27.8a4,4,0,0,0,3.61,0,1.1,1.1,0,0,0,0-2.08,4,4,0,0,0-3.62,0A1.1,1.1,0,0,0,794.25,27.8ZM806,34.56a4,4,0,0,0,3.61,0,1.1,1.1,0,0,0,0-2.09,4,4,0,0,0-3.61,0A1.1,1.1,0,0,0,806,34.56Zm15.31,4.67a4,4,0,0,0-3.61,0,1.1,1.1,0,0,0,0,2.08,4,4,0,0,0,3.61,0A1.1,1.1,0,0,0,821.27,39.23ZM833,46a4,4,0,0,0-3.61,0,1.1,1.1,0,0,0,0,2.08,4,4,0,0,0,3.61,0A1.1,1.1,0,0,0,833,46Zm8.09,8.84a4,4,0,0,0,3.61,0,1.1,1.1,0,0,0,0-2.09,4,4,0,0,0-3.61,0A1.11,1.11,0,0,0,841.06,54.83Zm15.32,4.67a4,4,0,0,0-3.62,0,1.1,1.1,0,0,0,0,2.08,4,4,0,0,0,3.62,0A1.1,1.1,0,0,0,856.38,59.5ZM794.25,34.56a4,4,0,0,0,3.61,0,1.1,1.1,0,0,0,0-2.09,4,4,0,0,0-3.61,0A1.11,1.11,0,0,0,794.25,34.56ZM806,41.31a4,4,0,0,0,3.61,0,1.1,1.1,0,0,0,0-2.08,4,4,0,0,0-3.61,0A1.1,1.1,0,0,0,806,41.31ZM821.27,46a4,4,0,0,0-3.61,0,1.1,1.1,0,0,0,0,2.08,4,4,0,0,0,3.61,0A1.1,1.1,0,0,0,821.27,46ZM833,52.74a4,4,0,0,0-3.61,0,1.1,1.1,0,0,0,0,2.09,4,4,0,0,0,3.61,0A1.1,1.1,0,0,0,833,52.74Zm8.09,8.84a4,4,0,0,0,3.61,0,1.1,1.1,0,0,0,0-2.08,4,4,0,0,0-3.61,0A1.1,1.1,0,0,0,841.06,61.58Zm-58.51-27a4,4,0,0,0,3.61,0,1.1,1.1,0,0,0,0-2.09,4,4,0,0,0-3.61,0A1.1,1.1,0,0,0,782.55,34.56Zm15.31,4.67a4,4,0,0,0-3.61,0,1.1,1.1,0,0,0,0,2.08,4,4,0,0,0,3.62,0A1.1,1.1,0,0,0,797.86,39.23ZM809.57,46A4,4,0,0,0,806,46a1.1,1.1,0,0,0,0,2.08,4,4,0,0,0,3.61,0A1.1,1.1,0,0,0,809.57,46Zm11.7,6.75a4,4,0,0,0-3.61,0,1.1,1.1,0,0,0,0,2.09,4,4,0,0,0,3.61,0A1.1,1.1,0,0,0,821.27,52.74ZM833,59.5a4,4,0,0,0-3.61,0,1.1,1.1,0,0,0,0,2.08,4,4,0,0,0,3.61,0A1.1,1.1,0,0,0,833,59.5Zm11.7,6.75a4,4,0,0,0-3.61,0,1.11,1.11,0,0,0,0,2.09,4,4,0,0,0,3.61,0A1.1,1.1,0,0,0,844.67,66.25ZM782.55,41.31a4,4,0,0,0,3.61,0,1.1,1.1,0,0,0,0-2.08,4,4,0,0,0-3.61,0A1.1,1.1,0,0,0,782.55,41.31Zm11.7,6.76a4,4,0,0,0,3.62,0,1.1,1.1,0,0,0,0-2.08,4,4,0,0,0-3.61,0A1.1,1.1,0,0,0,794.25,48.07Zm15.32,4.67a4,4,0,0,0-3.61,0,1.1,1.1,0,0,0,0,2.09,4,4,0,0,0,3.61,0A1.1,1.1,0,0,0,809.57,52.74Zm11.7,6.76a4,4,0,0,0-3.61,0,1.1,1.1,0,0,0,0,2.08,4,4,0,0,0,3.61,0A1.1,1.1,0,0,0,821.27,59.5Zm8.09,8.84a4,4,0,0,0,3.61,0,1.1,1.1,0,0,0,0-2.09,4,4,0,0,0-3.61,0A1.1,1.1,0,0,0,829.36,68.34Zm-58.51-27a4,4,0,0,0,3.61,0,1.1,1.1,0,0,0,0-2.08,4,4,0,0,0-3.61,0A1.1,1.1,0,0,0,770.85,41.31ZM786.16,46a4,4,0,0,0-3.61,0,1.1,1.1,0,0,0,0,2.08,4,4,0,0,0,3.61,0A1.1,1.1,0,0,0,786.16,46Zm11.71,6.75a4,4,0,0,0-3.62,0,1.11,1.11,0,0,0,0,2.09,4,4,0,0,0,3.62,0A1.11,1.11,0,0,0,797.87,52.74Zm11.7,6.76a4,4,0,0,0-3.61,0,1.1,1.1,0,0,0,0,2.08,4,4,0,0,0,3.61,0A1.1,1.1,0,0,0,809.57,59.5Zm11.7,6.75a4,4,0,0,0-3.61,0,1.1,1.1,0,0,0,0,2.09,4,4,0,0,0,3.61,0A1.1,1.1,0,0,0,821.27,66.25ZM833,73a4,4,0,0,0-3.61,0,1.1,1.1,0,0,0,0,2.08,4,4,0,0,0,3.61,0A1.1,1.1,0,0,0,833,73ZM770.85,48.07a4,4,0,0,0,3.61,0,1.1,1.1,0,0,0,0-2.08,4,4,0,0,0-3.61,0A1.1,1.1,0,0,0,770.85,48.07Zm15.31,6.76a1.1,1.1,0,0,0,0-2.09,4,4,0,0,0-3.61,0,1.1,1.1,0,0,0,0,2.09A4,4,0,0,0,786.16,54.83Zm8.09,6.75a4,4,0,0,0,3.62,0,1.1,1.1,0,0,0,0-2.08,4,4,0,0,0-3.62,0A1.1,1.1,0,0,0,794.25,61.58Zm15.32,4.67a4,4,0,0,0-3.61,0,1.1,1.1,0,0,0,0,2.09,4,4,0,0,0,3.61,0A1.1,1.1,0,0,0,809.57,66.25Zm8.09,8.84a4,4,0,0,0,3.61,0,1.1,1.1,0,0,0,0-2.08,4,4,0,0,0-3.61,0A1.1,1.1,0,0,0,817.66,75.09Zm-58.51-27a4,4,0,0,0,3.61,0c1-.58,1-1.51,0-2.08a4,4,0,0,0-3.61,0A1.1,1.1,0,0,0,759.15,48.07Zm15.31,4.67a4,4,0,0,0-3.61,0,1.1,1.1,0,0,0,0,2.09,4,4,0,0,0,3.61,0A1.1,1.1,0,0,0,774.46,52.74Zm8.09,8.84a4,4,0,0,0,3.61,0,1.1,1.1,0,0,0,0-2.08,4,4,0,0,0-3.61,0A1.1,1.1,0,0,0,782.55,61.58Zm15.32,4.67a4,4,0,0,0-3.62,0,1.11,1.11,0,0,0,0,2.09,4,4,0,0,0,3.62,0A1.11,1.11,0,0,0,797.87,66.25ZM809.57,73A4,4,0,0,0,806,73a1.1,1.1,0,0,0,0,2.08,4,4,0,0,0,3.61,0A1.1,1.1,0,0,0,809.57,73Zm11.7,6.76a4,4,0,0,0-3.61,0,1.1,1.1,0,0,0,0,2.08,4,4,0,0,0,3.61,0A1.1,1.1,0,0,0,821.27,79.77ZM759.15,54.83a4,4,0,0,0,3.61,0,1.1,1.1,0,0,0,0-2.09,4,4,0,0,0-3.61,0A1.1,1.1,0,0,0,759.15,54.83Zm11.7,6.75a4,4,0,0,0,3.61,0,1.1,1.1,0,0,0,0-2.08,4,4,0,0,0-3.61,0A1.1,1.1,0,0,0,770.85,61.58Zm11.7,6.76a4,4,0,0,0,3.61,0,1.1,1.1,0,0,0,0-2.09,4,4,0,0,0-3.61,0A1.1,1.1,0,0,0,782.55,68.34ZM797.87,73a4,4,0,0,0-3.62,0,1.1,1.1,0,0,0,0,2.08,4,4,0,0,0,3.62,0A1.1,1.1,0,0,0,797.87,73ZM806,81.85a4,4,0,0,0,3.61,0,1.1,1.1,0,0,0,0-2.08,4,4,0,0,0-3.61,0A1.1,1.1,0,0,0,806,81.85Zm-58.52-27a4,4,0,0,0,3.62,0,1.11,1.11,0,0,0,0-2.09,4,4,0,0,0-3.62,0A1.11,1.11,0,0,0,747.44,54.83Zm15.32,4.67a4,4,0,0,0-3.61,0,1.1,1.1,0,0,0,0,2.08,4,4,0,0,0,3.61,0A1.1,1.1,0,0,0,762.76,59.5Zm11.7,6.75a4,4,0,0,0-3.61,0,1.1,1.1,0,0,0,0,2.09,4,4,0,0,0,3.61,0A1.1,1.1,0,0,0,774.46,66.25ZM786.16,73a4,4,0,0,0-3.61,0c-1,.58-1,1.51,0,2.08a4,4,0,0,0,3.61,0A1.1,1.1,0,0,0,786.16,73Zm11.71,6.76a4,4,0,0,0-3.62,0,1.1,1.1,0,0,0,0,2.08,4,4,0,0,0,3.62,0A1.1,1.1,0,0,0,797.87,79.77Zm11.7,6.75a4,4,0,0,0-3.61,0,1.1,1.1,0,0,0,0,2.09,4,4,0,0,0,3.61,0A1.1,1.1,0,0,0,809.57,86.52ZM747.44,61.58a4,4,0,0,0,3.62,0,1.1,1.1,0,0,0,0-2.08,4,4,0,0,0-3.62,0A1.1,1.1,0,0,0,747.44,61.58Zm11.71,6.76a4,4,0,0,0,3.61,0,1.1,1.1,0,0,0,0-2.09,4,4,0,0,0-3.61,0A1.1,1.1,0,0,0,759.15,68.34Zm11.7,6.75a4,4,0,0,0,3.61,0,1.1,1.1,0,0,0,0-2.08,4,4,0,0,0-3.61,0A1.1,1.1,0,0,0,770.85,75.09Zm15.31,6.76a1.1,1.1,0,0,0,0-2.08,4,4,0,0,0-3.61,0,1.1,1.1,0,0,0,0,2.08A4,4,0,0,0,786.16,81.85Zm8.09,6.76a4,4,0,0,0,3.62,0,1.11,1.11,0,0,0,0-2.09,4,4,0,0,0-3.62,0A1.11,1.11,0,0,0,794.25,88.61ZM739.36,59.5a4,4,0,0,0-3.62,0,1.1,1.1,0,0,0,0,2.08,4,4,0,0,0,3.61,0A1.1,1.1,0,0,0,739.36,59.5Zm11.7,6.75a4,4,0,0,0-3.62,0,1.11,1.11,0,0,0,0,2.09,4,4,0,0,0,3.62,0A1.11,1.11,0,0,0,751.06,66.25ZM762.76,73a4,4,0,0,0-3.61,0,1.1,1.1,0,0,0,0,2.08,4,4,0,0,0,3.61,0A1.1,1.1,0,0,0,762.76,73Zm11.7,6.76a4,4,0,0,0-3.61,0,1.1,1.1,0,0,0,0,2.08,4,4,0,0,0,3.61,0A1.1,1.1,0,0,0,774.46,79.77Zm11.7,6.75a4,4,0,0,0-3.61,0,1.1,1.1,0,0,0,0,2.09,4,4,0,0,0,3.61,0A1.1,1.1,0,0,0,786.16,86.52Zm11.71,6.76a4,4,0,0,0-3.62,0,1.1,1.1,0,0,0,0,2.08,4,4,0,0,0,3.62,0A1.1,1.1,0,0,0,797.87,93.28Z" class="color423eaf svgShape"></path><polygon fill="#3e9eff" points="767.72 38.42 757.74 44.18 824.4 82.66 834.38 76.9 767.72 38.42" class="colorffd03e svgShape"></polygon><polygon fill="#3e9eff" points="757.74 76.9 767.72 82.66 834.38 44.18 824.4 38.42 757.74 76.9" class="colorffd03e svgShape"></polygon><polygon fill="#7c3eaf" points="796.06 166.54 732.78 130 732.78 81.37 796.06 117.9 796.06 166.54" class="color423eaf svgShape"></polygon><path fill="#662e94" d="M778.51,146.68c-1-.58-1.81-.11-1.81,1a4,4,0,0,0,1.81,3.13c1,.57,1.8.11,1.8-1A4,4,0,0,0,778.51,146.68Zm0-27c-1-.57-1.81-.11-1.81,1a4,4,0,0,0,1.81,3.12c1,.58,1.8.11,1.8-1A4,4,0,0,0,778.51,119.65Zm5.85.8c1,.57,1.8.1,1.8-1a4,4,0,0,0-1.8-3.12c-1-.58-1.81-.11-1.81,1A4,4,0,0,0,784.36,120.45ZM772.65,123c-1-.57-1.8-.11-1.8,1a4,4,0,0,0,1.8,3.13c1,.58,1.81.11,1.81-1A4,4,0,0,0,772.65,123Zm5.86,10.13c-1-.57-1.81-.1-1.81,1.05a4,4,0,0,0,1.81,3.13c1,.57,1.8.1,1.8-1.05A4,4,0,0,0,778.51,133.16Zm-11.71-6.75c-1-.58-1.8-.11-1.8,1a4,4,0,0,0,1.8,3.13c1,.58,1.81.11,1.81-1A4,4,0,0,0,766.8,126.41Zm0,13.51c-1-.57-1.8-.11-1.8,1.05a4,4,0,0,0,1.8,3.12c1,.58,1.81.11,1.81-1A4,4,0,0,0,766.8,139.92Zm5.85-3.38c-1-.57-1.8-.1-1.8,1.05a4,4,0,0,0,1.8,3.12c1,.58,1.81.11,1.81-1A4,4,0,0,0,772.65,136.54Zm0-27c-1-.58-1.8-.11-1.8,1a4,4,0,0,0,1.8,3.13c1,.58,1.81.11,1.81-1A4,4,0,0,0,772.65,109.52Zm21.6,28.07a4,4,0,0,0,1.81,3.12h0v-4.17h0C795.06,136,794.25,136.43,794.25,137.59ZM766.8,112.9c-1-.58-1.8-.11-1.8,1a4,4,0,0,0,1.8,3.13c1,.57,1.81.11,1.81-1A4,4,0,0,0,766.8,112.9ZM796.06,123c-1-.57-1.81-.11-1.81,1a4,4,0,0,0,1.81,3.13h0V123Zm-58.51,6.76c-1-.58-1.81-.11-1.81,1a3.24,3.24,0,0,0,.18,1l3.26,1.88a1.67,1.67,0,0,0,.17-.78A4,4,0,0,0,737.55,129.79Zm56.7,21.31a4,4,0,0,0,1.81,3.13h0v-4.17h0C795.06,149.48,794.25,150,794.25,151.1Zm-4-24.69c-1-.58-1.81-.11-1.81,1a4,4,0,0,0,1.81,3.13c1,.58,1.8.11,1.8-1A4,4,0,0,0,790.21,126.41Zm-5.85,16.89c-1-.58-1.81-.11-1.81,1a4,4,0,0,0,1.81,3.13c1,.58,1.8.11,1.8-1A4,4,0,0,0,784.36,143.3Zm0-13.51c-1-.58-1.81-.11-1.81,1a4,4,0,0,0,1.81,3.13c1,.57,1.8.11,1.8-1A4,4,0,0,0,784.36,129.79Zm5.85,10.13c-1-.57-1.81-.11-1.81,1.05a4,4,0,0,0,1.81,3.12c1,.58,1.8.11,1.8-1A4,4,0,0,0,790.21,139.92Zm0,13.52c-1-.58-1.81-.11-1.81,1a4,4,0,0,0,1.81,3.12c1,.58,1.8.11,1.8-1A4,4,0,0,0,790.21,153.44ZM761,102.76c-1-.57-1.8-.11-1.8,1a4,4,0,0,0,1.8,3.13c1,.58,1.81.11,1.81-1A4,4,0,0,0,761,102.76Zm-11.7,33.78c-1-.57-1.81-.11-1.81,1.05a3.18,3.18,0,0,0,.18,1l3.26,1.88a1.61,1.61,0,0,0,.18-.78A4,4,0,0,0,749.25,136.54Zm-11.7-20.26c-1-.58-1.81-.11-1.81,1a4,4,0,0,0,1.81,3.13c1,.57,1.8.1,1.8-1A4,4,0,0,0,737.55,116.28Zm0-27c-1-.58-1.81-.11-1.81,1a4,4,0,0,0,1.81,3.13c1,.58,1.8.11,1.8-1A4,4,0,0,0,737.55,89.25Zm0,13.51c-1-.57-1.81-.11-1.81,1a4,4,0,0,0,1.81,3.13c1,.58,1.8.11,1.8-1A4,4,0,0,0,737.55,102.76Zm5.85-3.38c-1-.57-1.81-.1-1.81,1.05a4,4,0,0,0,1.81,3.12c1,.58,1.8.11,1.8-1A4,4,0,0,0,743.4,99.38Zm41,57.43c-1-.57-1.81-.11-1.81,1a3.19,3.19,0,0,0,.18,1l3.26,1.88a1.61,1.61,0,0,0,.17-.78A4,4,0,0,0,784.36,156.81ZM761,143.3c-1-.58-1.8-.11-1.8,1a3.17,3.17,0,0,0,.17,1l3.26,1.88a1.63,1.63,0,0,0,.18-.78A4,4,0,0,0,761,143.3Zm33.3,21.31a3.24,3.24,0,0,0,.18,1l1.63.94v-3h0C795.06,163,794.25,163.46,794.25,164.61Zm-21.6-14.55c-1-.58-1.8-.11-1.8,1a3.13,3.13,0,0,0,.18,1l3.25,1.89a1.66,1.66,0,0,0,.18-.78A4,4,0,0,0,772.65,150.06ZM761,129.79c-1-.58-1.8-.11-1.8,1A4,4,0,0,0,761,134c1,.57,1.81.11,1.81-1A4,4,0,0,0,761,129.79Zm-5.85-10.14c-1-.57-1.8-.11-1.8,1a4,4,0,0,0,1.8,3.12c1,.58,1.81.11,1.81-1A4,4,0,0,0,755.1,119.65Zm0-13.51c-1-.57-1.8-.11-1.8,1a4,4,0,0,0,1.8,3.13c1,.58,1.81.11,1.81-1A4,4,0,0,0,755.1,106.14Zm0,27c-1-.58-1.8-.11-1.8,1a4,4,0,0,0,1.8,3.13c1,.57,1.81.1,1.81-1.05A4,4,0,0,0,755.1,133.17ZM761,116.28c-1-.58-1.8-.11-1.8,1a4,4,0,0,0,1.8,3.13c1,.57,1.81.1,1.81-1A4,4,0,0,0,761,116.28Zm-11.7-16.1c1,.57,1.81.11,1.81-1.05A4,4,0,0,0,749.25,96c-1-.58-1.81-.11-1.81,1A4,4,0,0,0,749.25,100.18Zm0,9.34c-1-.58-1.81-.11-1.81,1a4,4,0,0,0,1.81,3.13c1,.57,1.81.11,1.81-1A4,4,0,0,0,749.25,109.52Zm-5.85,3.38c-1-.58-1.81-.11-1.81,1a4,4,0,0,0,1.81,3.13c1,.57,1.8.11,1.8-1A4,4,0,0,0,743.4,112.9Zm0,13.51c-1-.58-1.81-.11-1.81,1a4,4,0,0,0,1.81,3.13c1,.58,1.8.11,1.8-1A4,4,0,0,0,743.4,126.41Zm5.85-3.38c-1-.57-1.81-.11-1.81,1a4,4,0,0,0,1.81,3.13c1,.58,1.81.11,1.81-1A4,4,0,0,0,749.25,123Z" class="color362e94 svgShape"></path><polygon fill="#e100b8" points="769.41 102.52 759.43 96.75 759.43 145.39 769.41 151.15 769.41 102.52" class="colore19100 svgShape"></polygon><polygon points="732.78 86.2 796.06 122.73 796.06 119.85 732.78 83.32 732.78 86.2" style="mix-blend-mode:multiply" fill="#c4d6e9" class="colorc4cae9 svgShape"></polygon><polygon fill="#7c3eaf" points="796.06 119.85 729.4 81.37 729.4 60.54 796.06 99.03 796.06 119.85" class="color423eaf svgShape"></polygon><path fill="#662e94" d="M733.48,64.67c-1-.58-1.8-.11-1.8,1a4,4,0,0,0,1.8,3.13c1,.58,1.81.11,1.81-1A4,4,0,0,0,733.48,64.67Zm11.7,10.93c1,.57,1.81.11,1.81-1a4,4,0,0,0-1.81-3.13c-1-.58-1.8-.11-1.8,1A4,4,0,0,0,745.18,75.6Zm11.71,2.58c-1-.57-1.81-.11-1.81,1a4,4,0,0,0,1.81,3.12c1,.58,1.8.11,1.8-1A4,4,0,0,0,756.89,78.18Zm11.7,6.76c-1-.58-1.81-.11-1.81,1a4,4,0,0,0,1.81,3.13c1,.58,1.81.11,1.81-1A4,4,0,0,0,768.59,84.94Zm11.7,10.93c1,.57,1.81.11,1.81-1.05a4,4,0,0,0-1.81-3.12c-1-.58-1.8-.11-1.8,1A4,4,0,0,0,780.29,95.87Zm11.7,6.75c1,.58,1.81.11,1.81-1A4,4,0,0,0,792,98.45c-1-.57-1.8-.11-1.8,1A4,4,0,0,0,792,102.62ZM739.33,74.81c-1-.58-1.8-.11-1.8,1a4,4,0,0,0,1.8,3.12c1,.58,1.81.11,1.81-1A4,4,0,0,0,739.33,74.81ZM751,81.56c-1-.57-1.81-.11-1.81,1A4,4,0,0,0,751,85.73c1,.58,1.8.11,1.8-1A4,4,0,0,0,751,81.56Zm11.7,6.76c-1-.58-1.81-.11-1.81,1a4,4,0,0,0,1.81,3.13c1,.57,1.8.11,1.8-1A4,4,0,0,0,762.74,88.32Zm11.7,6.75c-1-.57-1.8-.11-1.8,1.05a4,4,0,0,0,1.8,3.12c1,.58,1.81.11,1.81-1A4,4,0,0,0,774.44,95.07Zm11.7,6.76c-1-.57-1.8-.11-1.8,1a4,4,0,0,0,1.8,3.13c1,.58,1.81.11,1.81-1A4,4,0,0,0,786.14,101.83ZM733.48,78.18c-1-.57-1.8-.11-1.8,1a4,4,0,0,0,1.8,3.12c1,.58,1.81.11,1.81-1A4,4,0,0,0,733.48,78.18Zm11.7,6.76c-1-.58-1.8-.11-1.8,1a4,4,0,0,0,1.8,3.13c1,.58,1.81.11,1.81-1A4,4,0,0,0,745.18,84.94Zm11.71,6.76c-1-.58-1.81-.11-1.81,1a4,4,0,0,0,1.81,3.13c1,.57,1.8.11,1.8-1.05A4,4,0,0,0,756.89,91.7Zm11.7,6.75c-1-.57-1.81-.11-1.81,1a4,4,0,0,0,1.81,3.13c1,.58,1.81.11,1.81-1A4,4,0,0,0,768.59,98.45Zm11.7,6.76c-1-.58-1.8-.11-1.8,1a4,4,0,0,0,1.8,3.13c1,.57,1.81.11,1.81-1A4,4,0,0,0,780.29,105.21ZM792,112c-1-.57-1.8-.11-1.8,1.05a4,4,0,0,0,1.8,3.12c1,.58,1.81.11,1.81-1A4,4,0,0,0,792,112Z" class="color362e94 svgShape"></path><polygon fill="#fc06cf" points="767.72 82.66 757.74 76.9 757.74 97.72 767.72 103.49 767.72 82.66" class="colorfcba06 svgShape"></polygon><polygon fill="#662e94" points="796.06 166.54 859.34 130 859.34 81.37 796.06 117.9 796.06 166.54" class="color362e94 svgShape"></polygon><path fill="#193f6f" d="M811.81,149.81c0,1.15.81,1.61,1.8,1a4,4,0,0,0,1.81-3.13c0-1.15-.81-1.62-1.81-1A4,4,0,0,0,811.81,149.81Zm0-27c0,1.15.81,1.62,1.8,1a4,4,0,0,0,1.81-3.12c0-1.16-.81-1.62-1.81-1A4,4,0,0,0,811.81,122.78Zm-2.24-5.46c0-1.15-.81-1.62-1.81-1a4,4,0,0,0-1.8,3.12c0,1.15.81,1.62,1.8,1A4,4,0,0,0,809.57,117.32Zm8.09,8.84c0,1.15.81,1.62,1.8,1a4,4,0,0,0,1.81-3.13c0-1.15-.81-1.61-1.81-1A4,4,0,0,0,817.66,126.16Zm-5.85,10.13c0,1.15.81,1.62,1.8,1.05a4,4,0,0,0,1.81-3.13c0-1.15-.81-1.62-1.81-1.05A4,4,0,0,0,811.81,136.29Zm11.7-6.75c0,1.15.81,1.62,1.81,1a4,4,0,0,0,1.8-3.13c0-1.15-.81-1.62-1.8-1A4,4,0,0,0,823.51,129.54Zm0,13.51c0,1.15.81,1.62,1.81,1a4,4,0,0,0,1.8-3.12c0-1.16-.81-1.62-1.8-1.05A4,4,0,0,0,823.51,143.05Zm-5.85-3.38c0,1.15.81,1.62,1.8,1a4,4,0,0,0,1.81-3.12c0-1.15-.81-1.62-1.81-1.05A4,4,0,0,0,817.66,139.67Zm0-27c0,1.15.81,1.62,1.8,1a4,4,0,0,0,1.81-3.13c0-1.15-.81-1.62-1.81-1A4,4,0,0,0,817.66,112.65Zm-21.6,23.89h0v4.17h0a4,4,0,0,0,1.81-3.12C797.87,136.43,797.06,136,796.06,136.54ZM823.51,116c0,1.15.81,1.61,1.81,1a4,4,0,0,0,1.8-3.13c0-1.15-.81-1.62-1.8-1A4,4,0,0,0,823.51,116Zm-27.45,7v4.17h0a4,4,0,0,0,1.81-3.13c0-1.15-.81-1.61-1.81-1Zm56.71,9.89a1.67,1.67,0,0,0,.17.78l3.26-1.88a3.24,3.24,0,0,0,.18-1c0-1.15-.81-1.62-1.81-1A4,4,0,0,0,852.77,132.92Zm-56.71,17.14h0v4.17h0a4,4,0,0,0,1.81-3.13C797.87,150,797.06,149.48,796.06,150.06Zm4.05-20.52c0,1.15.8,1.62,1.8,1a4,4,0,0,0,1.81-3.13c0-1.15-.81-1.62-1.81-1A4,4,0,0,0,800.11,129.54ZM806,146.43c0,1.15.81,1.62,1.8,1a4,4,0,0,0,1.81-3.13c0-1.15-.81-1.62-1.81-1A4,4,0,0,0,806,146.43Zm0-13.51c0,1.15.81,1.61,1.8,1a4,4,0,0,0,1.81-3.13c0-1.15-.81-1.62-1.81-1A4,4,0,0,0,806,132.92Zm-5.85,10.13c0,1.15.8,1.62,1.8,1a4,4,0,0,0,1.81-3.12c0-1.16-.81-1.62-1.81-1.05A4,4,0,0,0,800.11,143.05Zm0,13.51c0,1.15.8,1.62,1.8,1a4,4,0,0,0,1.81-3.12c0-1.15-.81-1.62-1.81-1A4,4,0,0,0,800.11,156.56Zm29.25-50.67c0,1.15.81,1.62,1.81,1a4,4,0,0,0,1.8-3.13c0-1.15-.81-1.61-1.8-1A4,4,0,0,0,829.36,105.89Zm11.7,33.78a1.61,1.61,0,0,0,.18.78l3.26-1.88a3.16,3.16,0,0,0,.17-1c0-1.16-.8-1.62-1.8-1.05A4,4,0,0,0,841.06,139.67Zm11.71-20.27c0,1.15.8,1.62,1.8,1a4,4,0,0,0,1.81-3.13c0-1.15-.81-1.62-1.81-1A4,4,0,0,0,852.77,119.4Zm0-27c0,1.15.8,1.62,1.8,1a4,4,0,0,0,1.81-3.13c0-1.15-.81-1.62-1.81-1A4,4,0,0,0,852.77,92.38Zm0,13.51c0,1.15.8,1.62,1.8,1a4,4,0,0,0,1.81-3.13c0-1.15-.81-1.61-1.81-1A4,4,0,0,0,852.77,105.89Zm-5.85-3.38c0,1.15.8,1.62,1.8,1a4,4,0,0,0,1.81-3.12c0-1.15-.81-1.62-1.81-1.05A4,4,0,0,0,846.92,102.51Zm-41,57.43a1.61,1.61,0,0,0,.17.78l3.26-1.88a3.19,3.19,0,0,0,.18-1c0-1.15-.81-1.61-1.81-1A4,4,0,0,0,806,159.94Zm23.4-13.51a1.63,1.63,0,0,0,.18.78l3.26-1.88a3.17,3.17,0,0,0,.17-1c0-1.15-.81-1.62-1.8-1A4,4,0,0,0,829.36,146.43Zm-33.3,17.14h0v3l1.63-.94a3.24,3.24,0,0,0,.18-1C797.87,163.46,797.06,163,796.06,163.57Zm21.6-10.38a1.66,1.66,0,0,0,.18.78l3.25-1.89a2.87,2.87,0,0,0,.18-1c0-1.15-.81-1.62-1.81-1A4,4,0,0,0,817.66,153.19Zm11.7-20.27c0,1.15.81,1.61,1.81,1a4,4,0,0,0,1.8-3.13c0-1.15-.81-1.62-1.8-1A4,4,0,0,0,829.36,132.92Zm5.85-10.14c0,1.15.81,1.62,1.81,1a4,4,0,0,0,1.8-3.12c0-1.16-.8-1.62-1.8-1A4,4,0,0,0,835.21,122.78Zm0-13.51c0,1.15.81,1.62,1.81,1a4,4,0,0,0,1.8-3.13c0-1.15-.8-1.61-1.8-1A4,4,0,0,0,835.21,109.27Zm0,27c0,1.15.81,1.62,1.81,1.05a4,4,0,0,0,1.8-3.13c0-1.15-.8-1.62-1.8-1A4,4,0,0,0,835.21,136.29Zm-5.85-16.89c0,1.15.81,1.62,1.81,1a4,4,0,0,0,1.8-3.13c0-1.15-.81-1.62-1.8-1A4,4,0,0,0,829.36,119.4Zm15.31-22.35c0-1.15-.8-1.62-1.8-1a4,4,0,0,0-1.81,3.12c0,1.16.81,1.62,1.81,1.05A4,4,0,0,0,844.67,97.05Zm-3.61,15.6c0,1.15.81,1.61,1.81,1a4,4,0,0,0,1.8-3.13c0-1.15-.8-1.62-1.8-1A4,4,0,0,0,841.06,112.65Zm5.86,3.38c0,1.15.8,1.61,1.8,1a4,4,0,0,0,1.81-3.13c0-1.15-.81-1.62-1.81-1A4,4,0,0,0,846.92,116Zm0,13.51c0,1.15.8,1.62,1.8,1a4,4,0,0,0,1.81-3.13c0-1.15-.81-1.62-1.81-1A4,4,0,0,0,846.92,129.54Zm-5.86-3.38c0,1.15.81,1.62,1.81,1a4,4,0,0,0,1.8-3.13c0-1.15-.8-1.61-1.8-1A4,4,0,0,0,841.06,126.16Z" class="color20196f svgShape"></path><polygon fill="#d100ab" points="822.71 102.52 832.69 96.75 832.69 145.39 822.71 151.15 822.71 102.52" class="colord18000 svgShape"></polygon><polygon points="859.34 86.2 796.06 122.73 796.06 119.85 859.34 83.32 859.34 86.2" style="mix-blend-mode:multiply" fill="#c4d6e9" class="colorc4cae9 svgShape"></polygon><polygon fill="#662e94" points="796.06 119.85 862.72 81.37 862.72 60.54 796.06 99.03 796.06 119.85" class="color362e94 svgShape"></polygon><path fill="#193f6f" d="M856.83,67.8c0,1.15.81,1.62,1.81,1a4,4,0,0,0,1.8-3.13c0-1.15-.81-1.62-1.8-1A4,4,0,0,0,856.83,67.8Zm-8.09,4.67c0-1.15-.81-1.62-1.81-1a4,4,0,0,0-1.8,3.13c0,1.15.81,1.61,1.8,1A4,4,0,0,0,848.74,72.47Zm-15.31,8.84c0,1.15.81,1.62,1.8,1A4,4,0,0,0,837,79.23c0-1.16-.81-1.62-1.81-1A4,4,0,0,0,833.43,81.31Zm-11.71,6.76c0,1.15.81,1.62,1.81,1A4,4,0,0,0,825.34,86c0-1.15-.81-1.62-1.81-1A4,4,0,0,0,821.72,88.07Zm-8.09,4.67c0-1.15-.81-1.62-1.8-1A4,4,0,0,0,810,94.82c0,1.16.81,1.62,1.81,1.05A4,4,0,0,0,813.63,92.74Zm-11.7,6.75c0-1.15-.81-1.61-1.8-1a4,4,0,0,0-1.81,3.13c0,1.15.81,1.62,1.81,1A4,4,0,0,0,801.93,99.49ZM851,77.93c0,1.15.81,1.62,1.81,1a4,4,0,0,0,1.8-3.12c0-1.15-.81-1.62-1.8-1A4,4,0,0,0,851,77.93Zm-11.7,6.76c0,1.15.81,1.62,1.8,1a4,4,0,0,0,1.81-3.13c0-1.15-.81-1.61-1.81-1A4,4,0,0,0,839.28,84.69Zm-11.7,6.76c0,1.15.8,1.61,1.8,1a4,4,0,0,0,1.81-3.13c0-1.15-.81-1.62-1.81-1A4,4,0,0,0,827.58,91.45ZM815.87,98.2c0,1.15.81,1.62,1.81,1a4,4,0,0,0,1.8-3.12c0-1.16-.8-1.62-1.8-1.05A4,4,0,0,0,815.87,98.2ZM804.17,105c0,1.15.81,1.62,1.81,1a4,4,0,0,0,1.8-3.13c0-1.15-.81-1.61-1.8-1A4,4,0,0,0,804.17,105Zm52.66-23.65c0,1.15.81,1.62,1.81,1a4,4,0,0,0,1.8-3.12c0-1.16-.81-1.62-1.8-1A4,4,0,0,0,856.83,81.31Zm-11.7,6.76c0,1.15.81,1.62,1.8,1A4,4,0,0,0,848.74,86c0-1.15-.81-1.62-1.81-1A4,4,0,0,0,845.13,88.07Zm-11.7,6.75c0,1.16.81,1.62,1.8,1.05A4,4,0,0,0,837,92.74c0-1.15-.81-1.62-1.81-1A4,4,0,0,0,833.43,94.82Zm-11.71,6.76c0,1.15.81,1.62,1.81,1a4,4,0,0,0,1.81-3.13c0-1.15-.81-1.61-1.81-1A4,4,0,0,0,821.72,101.58ZM810,108.34c0,1.15.81,1.61,1.81,1a4,4,0,0,0,1.8-3.13c0-1.15-.81-1.62-1.8-1A4,4,0,0,0,810,108.34Zm-11.7,6.75c0,1.15.81,1.62,1.81,1a4,4,0,0,0,1.8-3.12c0-1.16-.81-1.62-1.8-1.05A4,4,0,0,0,798.32,115.09Z" class="color20196f svgShape"></path><polygon fill="#e100b8" points="824.4 82.66 834.38 76.9 834.38 97.72 824.4 103.49 824.4 82.66" class="colore19100 svgShape"></polygon><path d="M908.17,601.65c-8.31-4.8-19.35-7-30.19-6.68H852.83v2.79a44.44,44.44,0,0,0-9,3.89c-15.46,9-15.37,23.56.19,32.55a45.33,45.33,0,0,0,8.8,3.82v2.91h28.53c9.81-.16,19.53-2.39,27-6.72C923.81,625.21,923.74,610.64,908.17,601.65Z" style="mix-blend-mode:multiply" fill="url(#K)"></path><path fill="url(#g)" d="M826.51,619c-7.83-4.52-11.74-10.46-11.73-16.39l0-7.59c0,5.93,3.89,11.87,11.73,16.39,15.56,9,40.72,9,56.18,0,7.69-4.48,11.53-10.31,11.55-16.17l0,7.59c0,5.85-3.87,11.7-11.55,16.16C867.24,628,842.08,628,826.51,619Z"></path><path fill="url(#L)" d="M826.51,626.62c-7.83-4.52-11.74-10.46-11.73-16.39l0-7.59c0,5.93,3.89,11.87,11.73,16.39,15.56,9,40.72,9,56.18,0,7.69-4.46,11.53-10.31,11.55-16.16l0,7.59c0,5.85-3.87,11.69-11.55,16.16C867.24,635.61,842.08,635.61,826.51,626.62Z"></path><path fill="url(#M)" d="M826.51,634.21c-7.83-4.53-11.74-10.46-11.73-16.39l0-7.59c0,5.93,3.89,11.87,11.73,16.39,15.56,9,40.72,9,56.18,0,7.69-4.47,11.53-10.31,11.55-16.16l0,7.59c0,5.85-3.87,11.69-11.55,16.16C867.24,643.2,842.08,643.2,826.51,634.21Z"></path><path fill="#f1f3f6" d="M826.55,611.44c-15.57-9-15.65-23.56-.19-32.54s40.63-9,56.19,0,15.64,23.56.18,32.55S842.11,620.43,826.55,611.44Z" class="colorf1f1f6 svgShape"></path><polygon fill="#d1e2f3" points="848.85 599.3 836.42 597.07 847.04 592.73 846.88 585.22 857.31 589.71 869.63 587.3 865.45 594.41 873.24 600.44 860.22 600.34 852.71 606.48 848.85 599.3" class="colord1d7f3 svgShape"></polygon><path d="M1050.53,680.34c-10.22-5.91-23.82-8.63-37.17-8.23H992.43v3.43a56.24,56.24,0,0,0-11.08,4.8c-19,11.07-18.92,29,.24,40.07a55.18,55.18,0,0,0,10.84,4.7v3.59h25.1c12.08-.21,24-2.94,33.23-8.28C1069.8,709.35,1069.71,691.41,1050.53,680.34Z" style="mix-blend-mode:multiply" fill="url(#N)"></path><path fill="#4ca5ff" d="M944.73,687.38c0-7.08,4.68-14.15,14-19.56s21.61-8.1,33.88-8.1,24.52,2.7,33.87,8.1,14,12.48,14,19.56-4.68,14.16-14,19.56-21.61,8.1-33.87,8.1-24.52-2.7-33.88-8.1S944.74,694.46,944.73,687.38Z" class="colorffe54c svgShape"></path><path fill="url(#h)" d="M1026.52,706.94c-9.35,5.4-21.61,8.1-33.87,8.1s-24.52-2.7-33.88-8.1-14-12.48-14-19.56V701c0,7.07,4.68,14.16,14,19.55s21.62,8.11,33.88,8.11,24.52-2.7,33.87-8.1,14-12.49,14-19.56V687.38C1040.56,694.46,1035.88,701.54,1026.52,706.94Z"></path><path fill="#3e9eff" d="M965.13,703.26c7.6,4.39,17.56,6.59,27.52,6.59s19.91-2.2,27.51-6.58c7-4,10.78-9.26,11.32-14.55-.54-5.3-4.31-10.51-11.32-14.56-7.6-4.39-17.56-6.58-27.52-6.58s-19.91,2.19-27.51,6.58c-7,4.05-10.78,9.25-11.32,14.55C954.35,694,958.12,699.22,965.13,703.26Z" class="colorffd03e svgShape"></path><path fill="#e100b8" d="M965.13,674.16c7.6-4.39,17.56-6.58,27.51-6.58s19.92,2.19,27.52,6.58c7,4.05,10.78,9.26,11.32,14.56,0-.45.08-.89.08-1.34,0-5.75-3.8-11.5-11.4-15.88s-17.56-6.58-27.52-6.58-19.91,2.19-27.51,6.58-11.4,10.13-11.39,15.88c0,.45,0,.89.07,1.33C954.35,683.41,958.12,678.21,965.13,674.16Z" class="colore19100 svgShape"></path><polygon fill="#e100b8" points="1011.81 681.67 1015.5 679.54 1015.5 676.88 1011.81 679.01 1011.81 681.67" class="colore19100 svgShape"></polygon><path fill="#4ca5ff" d="M994.84,686.12a3.14,3.14,0,0,1,0-5.94,11.4,11.4,0,0,1,10.27,0c2.84,1.64,2.84,4.3,0,5.94l4.67,2.69c4.6-2.66,5.27-6.73,2-9.8l3.68-2.13-4.66-2.69-3.68,2.13c-5.32-1.87-12.37-1.48-17,1.17-2.63,1.52-4.07,3.52-4.06,5.66s1.44,4.15,4.06,5.66c2.83,1.63,2.83,4.29,0,5.93a11.35,11.35,0,0,1-10.28,0c-2.84-1.64-2.84-4.29,0-5.93l-4.66-2.69c-4.6,2.66-5.27,6.72-2,9.8l-3.39,2,4.67,2.69,3.39-2c5.33,1.87,12.38,1.48,17-1.17C1000.24,694.32,1000.24,689.24,994.84,686.12Z" class="colorffe54c svgShape"></path><polygon fill="#fc06cf" points="969.8 700.54 974.47 703.24 974.47 700.57 969.8 697.88 969.8 700.54" class="colorfcba06 svgShape"></polygon><polygon fill="#e100b8" points="974.47 703.24 977.86 701.27 977.86 698.61 974.47 700.57 974.47 703.24" class="colore19100 svgShape"></polygon><polygon fill="#fc06cf" points="1005.12 688.78 1009.78 691.47 1009.78 688.81 1005.12 686.12 1005.12 688.78" class="colorfcba06 svgShape"></polygon><path fill="#e100b8" d="M979.9,691.47v-2.66c-2,1.16-2.59,2.84-1.75,4.29A4.72,4.72,0,0,1,979.9,691.47Z" class="colore19100 svgShape"></path><path fill="#fc06cf" d="M971.19 691.64v3h0a5.3 5.3 0 00.58 2.1l1.41-.82a5.71 5.71 0 01-2-4.27zM990.18 691.47a4.68 4.68 0 011.74 1.63c.84-1.45.27-3.13-1.74-4.29-2.62-1.51-4.07-3.52-4.06-5.66v2.66C986.11 688 987.56 690 990.18 691.47zM998.89 691.76v0h0z" class="colorfcba06 svgShape"></path><path fill="#e100b8" d="M1013.81,683.15c0,2.05-1.33,4.1-4,5.66v2.66c2.77-1.6,4.1-3.71,4-5.81h0v-2.52Z" class="colore19100 svgShape"></path><path fill="url(#O)" d="M994.84,697.44c-4.6,2.65-11.65,3-17,1.17v2.66c5.33,1.87,12.38,1.49,17-1.17,2.68-1.55,4-3.58,4-5.61h0v-2.7C998.88,693.83,997.53,695.88,994.84,697.44Z"></path><path fill="#e100b8" d="M1005.11,680.18a11.4,11.4,0,0,0-10.27,0,3.63,3.63,0,0,0-2.13,3,2.58,2.58,0,0,0,.38,1.33,4.64,4.64,0,0,1,1.75-1.63,11.36,11.36,0,0,1,10.27,0,4.66,4.66,0,0,1,1.75,1.64C1007.7,683,1007.12,681.34,1005.11,680.18Z" class="colore19100 svgShape"></path><path d="M347.54,725.76a19.52,19.52,0,0,0-9.69-2.28h-9.74a19.51,19.51,0,0,0-9.59,2.28c-5.28,3-5.31,8-.06,11a19.48,19.48,0,0,0,9.65,2.28h9.74a19.63,19.63,0,0,0,9.62-2.28C352.75,733.75,352.78,728.81,347.54,725.76Z" style="mix-blend-mode:multiply" fill="url(#P)"></path><path fill="url(#Q)" d="M337.5,736.8c2.66-1.54,4-3.55,4-5.56v-7c0,2-1.32,4-4,5.55-5.27,3.05-13.8,3.05-19,0-2.61-1.52-3.91-3.5-3.92-5.48v7c0,2,1.31,4,3.92,5.48C323.7,739.84,332.23,739.84,337.5,736.8Z"></path><path fill="#3e9eff" d="M337.49,729.78c5.28-3,5.31-8,.07-11s-13.77-3-19.05,0-5.31,8-.06,11S332.22,732.83,337.49,729.78Z" class="colorffd03e svgShape"></path></g></svg>