<svg xmlns="http://www.w3.org/2000/svg" viewBox="0 0 2000 2000" id="OnlineEducation"><path fill="#f4f6f8" d="m1479.748 657.749-1.19 434.704c-.066 2.909-1.058 4.959-2.711 5.95l-9.322 5.423c1.653-.994 2.645-3.044 2.711-5.953l1.19-434.704c0-5.817-4.1-12.958-9.191-15.867L900.583 323.605c-2.512-1.456-4.893-1.653-6.545-.662l9.322-5.42c1.653-.927 4.032-.794 6.545.662l560.652 323.698c5.092 2.908 9.191 10.049 9.191 15.866z" class="colorcfdee8 svgShape"></path><path fill="#474e56" d="M1461.269 647.295c5.065 2.924 9.189 10.068 9.172 15.889l-1.232 434.699c-.016 5.821-4.124 8.21-9.19 5.285L899.316 779.446c-5.065-2.924-9.189-10.066-9.172-15.887l1.233-434.749c.016-5.821 4.167-8.138 9.232-5.213l560.66 323.698z" class="color474756 svgShape"></path><path fill="#b0d7ff" d="m903.356 747.946 1.207-406.794 552.665 319.077-1.207 406.798z" class="colorb0e3ff svgShape"></path><path fill="#c5d1dd" d="m1462.276 1097.181-.066 26.975c0 1.918-1.256 3.771-3.768 5.223l-375.862 218.443c-5.025 2.909-13.157 2.909-18.248 0l-560.653-323.698c-2.579-1.521-3.9-3.438-3.9-5.356l.132-26.972c0 1.914 1.257 3.9 3.835 5.352l560.653 323.698c5.091 2.976 13.289 2.976 18.314.068l375.796-218.443c2.512-1.455 3.767-3.373 3.767-5.29z" class="colorc5d4dd svgShape"></path><path fill="#f4f6f8" d="M1458.473 1091.839c5.066 2.925 5.134 7.677.058 10.627l-375.844 218.417c-5.033 2.925-13.196 2.925-18.303-.024l-560.66-323.697c-5.065-2.924-5.134-7.677-.101-10.602L879.51 768.117c5.033-2.925 13.238-2.9 18.303.024l560.66 323.698z" class="colore7f1f7 svgShape"></path><path fill="#c5d1dd" d="M1402.641 1089.181 901.888 800.065c-3.9-2.182-10.116-2.182-13.95 0L680.602 920.588c-3.835 2.25-3.835 5.821 0 8.067l207.336-120.462c3.834-2.247 10.05-2.247 13.95 0l500.753 289.055c3.835-2.247 3.835-5.817 0-8.067z" class="colorc5d4dd svgShape"></path><path fill="#c5d1dd" d="M887.938 808.193 680.602 928.656l500.753 289.12c3.901 2.182 10.116 2.182 13.95 0l207.336-120.527-500.753-289.056c-3.901-2.247-10.116-2.247-13.95 0zm-101.264 209.329-103.298 60.016c-1.235.718-1.232 2.502.004 3.216l143.98 83.143c1.996 1.116 5.175 1.116 7.137 0l103.298-60.049c1.235-.718 1.232-2.502-.005-3.216l-143.98-83.111c-1.995-1.148-5.175-1.148-7.136.001z" class="colorc5d4dd svgShape"></path><path fill="#5e5466" d="M897.142 845.141c2.053 1.186 2.065 3.068.054 4.236l-21.18 12.308c-2.01 1.168-5.231 1.151-7.284-.035l-21.288-12.29c-2.023-1.168-2.094-3.051-.084-4.219l21.18-12.308c2.01-1.168 5.29-1.15 7.313.018l21.289 12.29zm-18.44 28.591c2.054 1.186 2.035 3.085.025 4.253l-21.15 12.291c-2.01 1.168-5.26 1.168-7.313-.018l-36.718-21.199c-2.023-1.168-2.065-3.068-.054-4.236l21.15-12.291c2.01-1.168 5.32-1.167 7.343.001l36.717 21.199zm-26.47 23.954c2.023 1.168 1.973 3.051-.037 4.219l-21.15 12.291c-2.039 1.185-5.23 1.185-7.253.017l-44.116-25.47c-2.023-1.168-2.094-3.051-.054-4.236l21.15-12.291c2.01-1.168 5.321-1.168 7.344 0l44.116 25.47zm-19.858 27.806c2.023 1.168 2.033 3.052.023 4.22l-21.18 12.308c-2.01 1.168-5.26 1.168-7.283 0l-56.949-32.88c-2.023-1.168-2.034-3.05-.024-4.219l21.18-12.308c2.01-1.168 5.262-1.169 7.285-.001l56.948 32.88zm88.257-94.001c2.054 1.186 2.065 3.068.054 4.236l-9.899 5.753c-2.041 1.186-5.291 1.186-7.344 0l-21.288-12.29c-2.023-1.168-2.065-3.068-.024-4.254l9.899-5.753c2.01-1.168 5.29-1.15 7.313.018l21.289 12.29zm35.178 20.31c2.023 1.168 2.065 3.068.054 4.236l-9.899 5.753c-2.041 1.186-5.321 1.168-7.344 0l-21.318-12.308c-2.023-1.168-2.035-3.051.006-4.237l9.899-5.753c2.01-1.168 5.26-1.168 7.284.001l21.318 12.308zm175.83 101.515c2.023 1.168 2.064 3.068.054 4.236l-9.899 5.753c-2.041 1.186-5.321 1.168-7.344 0l-21.288-12.291c-2.023-1.168-2.034-3.051.007-4.237l9.899-5.753c2.01-1.168 5.26-1.168 7.283 0l21.288 12.292zm140.681 81.222c2.023 1.168 2.034 3.05.024 4.219l-9.899 5.753c-2.041 1.186-5.291 1.186-7.314.018l-21.318-12.308c-1.993-1.151-2.034-3.05.007-4.237l9.899-5.753c2.01-1.168 5.29-1.15 7.283 0l21.318 12.308zm-70.325-40.602c2.023 1.168 2.034 3.05.024 4.219l-9.899 5.753c-2.041 1.186-5.291 1.186-7.314.018l-21.318-12.308c-2.023-1.168-2.034-3.051.007-4.237l9.899-5.753c2.01-1.168 5.26-1.168 7.283 0l21.318 12.308zm14.597 74.877c2.023 1.168 2.005 3.068-.005 4.236l-21.15 12.291c-2.01 1.168-5.26 1.168-7.283 0l-21.288-12.291c-2.023-1.168-2.064-3.068-.054-4.236l21.15-12.291c2.01-1.168 5.319-1.167 7.343.001l21.287 12.29zm126.084 6.345c2.023 1.168 2.034 3.051.024 4.219l-9.899 5.753c-2.041 1.186-5.291 1.186-7.314.018l-21.318-12.308c-2.023-1.168-2.064-3.068-.023-4.254l9.899-5.753c2.01-1.168 5.29-1.15 7.313.018l21.318 12.307zm-35.178-20.31c2.023 1.168 2.034 3.051.024 4.219l-9.899 5.753c-2.041 1.186-5.291 1.186-7.314.018l-21.318-12.308c-2.023-1.168-2.034-3.051.007-4.237l9.899-5.753c2.01-1.168 5.26-1.168 7.283 0l21.318 12.308zm-37.53 5.544c2.023 1.168 2.034 3.051.024 4.219l-21.18 12.308c-2.01 1.168-5.231 1.151-7.254-.017l-21.288-12.291c-2.023-1.168-2.094-3.051-.083-4.219l21.179-12.308c2.01-1.168 5.29-1.15 7.313.018l21.289 12.29zm-135.005-77.945c2.023 1.168 2.034 3.051.024 4.219l-21.18 12.308c-2.01 1.168-5.231 1.151-7.254-.017l-21.288-12.291c-2.023-1.168-2.094-3.051-.084-4.219l21.18-12.308c2.01-1.168 5.29-1.15 7.313.018l21.289 12.29zm33.759 19.491c2.023 1.168 2.034 3.05.024 4.219l-21.179 12.308c-2.01 1.168-5.231 1.151-7.254-.017l-21.318-12.308c-2.023-1.168-2.063-3.034-.054-4.202l21.18-12.308c2.01-1.168 5.26-1.168 7.283 0l21.318 12.308zm68.42 12.29c2.023 1.168 2.064 3.068.054 4.236l-9.899 5.753c-2.041 1.186-5.321 1.168-7.344 0l-21.288-12.291c-2.023-1.168-2.034-3.051.007-4.237l9.899-5.753c2.01-1.168 5.26-1.168 7.283 0l21.288 12.292zm-121.796-3.869c2.023 1.168 2.035 3.085.025 4.253l-21.15 12.291c-2.01 1.168-5.291 1.15-7.313-.018l-21.318-12.308c-2.023-1.168-2.034-3.05-.024-4.219l21.15-12.291c2.01-1.168 5.289-1.185 7.312-.017l21.318 12.309zm87.104 11.052c2.023 1.168 2.065 3.068.054 4.236l-21.18 12.308c-2.01 1.168-5.261 1.133-7.284-.035l-21.288-12.291c-2.023-1.168-2.063-3.034-.053-4.202l21.18-12.308c2.01-1.168 5.26-1.168 7.283 0l21.288 12.292zm-53.345 8.438c2.023 1.168 2.005 3.068-.005 4.236l-21.15 12.291c-2.01 1.168-5.26 1.168-7.283 0l-21.318-12.308c-2.023-1.168-2.034-3.051-.024-4.219l21.15-12.291c2.01-1.168 5.289-1.185 7.312-.017l21.318 12.308zm87.104 11.052c2.023 1.168 2.064 3.068.054 4.236l-21.18 12.308c-2.01 1.168-5.261 1.133-7.284-.035l-21.288-12.291c-2.053-1.186-2.094-3.051-.084-4.219l21.18-12.308c2.01-1.168 5.26-1.168 7.313.018l21.289 12.291zm-53.346 8.439c2.023 1.168 2.005 3.068-.005 4.236l-21.15 12.291c-2.01 1.168-5.26 1.168-7.283 0l-21.318-12.308c-2.023-1.168-2.064-3.068-.054-4.236l21.15-12.291c2.01-1.168 5.32-1.167 7.343.001l21.317 12.307zM990.987 872.111c2.023 1.168 2.034 3.05.024 4.219l-9.899 5.753c-2.041 1.186-5.291 1.186-7.314.018l-21.318-12.308c-2.023-1.168-2.034-3.051.007-4.237l9.899-5.753c2.01-1.168 5.26-1.168 7.283 0l21.318 12.308zm-58.546-6.59c2.023 1.168 2.064 3.068.054 4.236l-21.18 12.308c-2.01 1.168-5.261 1.133-7.284-.035l-21.288-12.291c-2.023-1.168-2.063-3.034-.053-4.202l21.18-12.308c2.01-1.168 5.26-1.168 7.283 0l21.288 12.292zm33.759 19.49c2.023 1.168 2.065 3.068.055 4.236l-21.18 12.308c-2.01 1.168-5.261 1.133-7.284-.035l-21.318-12.308c-2.023-1.168-2.064-3.034-.053-4.202l21.18-12.308c2.01-1.168 5.26-1.168 7.283 0l21.317 12.309zm59.965 7.41c1.993 1.151 2.034 3.051.024 4.219l-9.899 5.753c-2.041 1.186-5.321 1.168-7.314.018l-21.318-12.308c-2.023-1.168-2.034-3.051.007-4.237l9.899-5.753c2.01-1.168 5.26-1.168 7.283 0l21.318 12.308zm-112.707 1.378c2.023 1.168 2.005 3.068-.005 4.236l-21.15 12.291c-2.01 1.168-5.26 1.168-7.283 0l-21.288-12.291c-2.023-1.168-2.065-3.068-.055-4.236l21.15-12.291c2.01-1.168 5.32-1.168 7.343.001l21.288 12.29zm86.5 10.703c2.023 1.168 2.034 3.051.024 4.219l-21.18 12.308c-2.01 1.168-5.231 1.151-7.254-.017l-21.288-12.291c-2.053-1.186-2.094-3.051-.084-4.219l21.18-12.308c2.01-1.168 5.26-1.168 7.313.018l21.289 12.29zm61.355 8.211c2.023 1.168 2.034 3.05.024 4.219l-9.899 5.753c-2.041 1.186-5.291 1.186-7.314.018l-21.288-12.29c-2.023-1.168-2.065-3.068-.023-4.254l9.899-5.753c2.01-1.168 5.29-1.15 7.314.018l21.287 12.289zm-114.731.21c2.023 1.168 2.005 3.068-.005 4.236l-21.15 12.291c-2.01 1.168-5.26 1.168-7.283 0l-21.288-12.291c-2.023-1.168-2.065-3.068-.055-4.236l21.15-12.291c2.01-1.168 5.32-1.167 7.343.001l21.288 12.29zm-59.383 4.951c2.023 1.168 2.034 3.086.023 4.254l-21.15 12.291c-2.039 1.185-5.29 1.15-7.313-.018l-21.288-12.291c-2.023-1.168-2.064-3.034-.025-4.219l21.15-12.291c2.01-1.168 5.291-1.186 7.315-.018l21.288 12.292zm146.518 6.119c2.023 1.168 2.034 3.051.024 4.219l-21.18 12.308c-2.01 1.168-5.231 1.151-7.254-.017l-21.318-12.308c-2.023-1.168-2.064-3.033-.054-4.202l21.18-12.308c2.01-1.168 5.26-1.168 7.283 0l21.319 12.308zm62.774 9.03c2.023 1.168 2.034 3.051.024 4.219l-9.899 5.753c-2.041 1.186-5.291 1.186-7.314.018l-21.318-12.308c-2.023-1.168-2.034-3.051.007-4.237l9.899-5.753c2.01-1.168 5.26-1.168 7.283 0l21.318 12.308zm-116.15-.609c2.023 1.168 2.005 3.068-.005 4.236l-21.15 12.291c-2.01 1.168-5.26 1.168-7.283 0l-21.318-12.308c-2.023-1.168-2.034-3.051-.024-4.219l21.15-12.291c2.01-1.168 5.289-1.185 7.312-.017l21.318 12.308zm-60.018 4.584c2.023 1.168 2.034 3.086.023 4.254l-21.15 12.291c-2.039 1.185-5.29 1.15-7.313-.018l-21.288-12.291c-2.023-1.168-2.063-3.034-.024-4.219l21.15-12.291c2.01-1.168 5.291-1.186 7.314-.018l21.288 12.292zm147.123 6.468c2.023 1.168 2.065 3.068.054 4.236l-21.18 12.308c-2.01 1.168-5.261 1.133-7.284-.035l-21.288-12.291c-2.023-1.168-2.063-3.034-.053-4.202l21.18-12.308c2.01-1.168 5.26-1.168 7.283 0l21.288 12.292zm-195.07 4.011c2.023 1.168 2.005 3.068-.005 4.236l-21.18 12.308c-1.981 1.151-5.231 1.151-7.254-.017l-21.318-12.308c-2.023-1.168-2.034-3.05-.053-4.202l21.18-12.308c2.01-1.168 5.289-1.185 7.312-.017l21.318 12.308zm141.694 4.41c2.054 1.185 2.035 3.085.025 4.253l-21.15 12.291c-2.01 1.168-5.26 1.168-7.313-.018l-21.288-12.291c-2.023-1.168-2.034-3.05-.024-4.219l21.15-12.291c2.01-1.168 5.289-1.185 7.312-.017l21.288 12.292zm-59.988 4.602c2.023 1.168 2.034 3.086.024 4.254l-21.15 12.291c-2.039 1.185-5.29 1.15-7.313-.018l-21.288-12.291c-2.023-1.168-2.094-3.051-.054-4.236l21.15-12.291c2.01-1.168 5.321-1.168 7.344 0l21.287 12.291zm147.122 6.467c2.023 1.168 2.065 3.068.055 4.236l-21.18 12.308c-2.01 1.168-5.261 1.133-7.284-.035l-21.318-12.308c-2.023-1.168-2.064-3.034-.053-4.202l21.18-12.308c2.01-1.168 5.26-1.168 7.283 0l21.317 12.309zm-195.07 4.011c2.023 1.168 2.005 3.068-.005 4.236l-21.18 12.308c-1.981 1.151-5.231 1.151-7.254-.018l-21.318-12.308c-2.023-1.168-2.035-3.051-.054-4.202l21.18-12.308c2.01-1.168 5.29-1.185 7.313-.017l21.318 12.309zm141.725 4.428c2.023 1.168 2.005 3.068-.005 4.236l-21.15 12.291c-2.01 1.168-5.26 1.168-7.283 0l-21.318-12.308c-2.023-1.168-2.065-3.068-.054-4.236l21.15-12.291c2.01-1.168 5.32-1.167 7.343.001l21.317 12.307zm-60.018 4.584c2.023 1.168 2.003 3.068-.007 4.237l-21.15 12.291c-2.039 1.185-5.26 1.168-7.283 0l-21.288-12.29c-2.023-1.168-2.094-3.051-.055-4.236l21.15-12.291c2.01-1.168 5.321-1.168 7.344 0l21.289 12.289zm-47.978 10.462c2.023 1.168 2.035 3.085.025 4.253l-21.18 12.308c-1.981 1.151-5.261 1.133-7.284-.034l-21.288-12.291c-2.023-1.168-2.034-3.051-.053-4.202l21.18-12.308c2.01-1.168 5.29-1.185 7.312-.017l21.288 12.291zm141.724 4.427c2.023 1.168 2.005 3.068-.005 4.236l-21.15 12.291c-2.01 1.168-5.26 1.168-7.283 0l-21.288-12.29c-2.023-1.168-2.065-3.068-.055-4.236l21.15-12.291c2.01-1.168 5.32-1.167 7.343.001l21.288 12.289zm-208.463-1.569c2.023 1.168 2.034 3.05.024 4.219l-23.819 13.842c-2.01 1.168-5.262 1.169-7.285.001l-28.052-16.196c-2.023-1.168-2.033-3.051-.023-4.22l23.82-13.842c2.01-1.168 5.26-1.168 7.283 0l28.052 16.196zm148.476 6.171c2.023 1.168 2.003 3.068-.007 4.237l-21.15 12.291c-2.039 1.185-5.26 1.168-7.283 0l-21.318-12.308c-2.023-1.168-2.063-3.034-.024-4.219l21.15-12.291c2.01-1.168 5.291-1.186 7.314-.018l21.318 12.308zm-47.978 10.461c2.023 1.168 2.035 3.085.025 4.253l-21.18 12.308c-1.981 1.151-5.261 1.133-7.284-.034l-21.318-12.308c-2.023-1.168-2.004-3.033-.024-4.184l21.18-12.308c2.01-1.168 5.259-1.202 7.282-.034l21.319 12.307zm81.706 9.012c2.023 1.168 2.033 3.086.023 4.254l-21.15 12.291c-2.039 1.185-5.29 1.15-7.313-.018l-21.288-12.291c-2.023-1.168-2.063-3.034-.024-4.219l21.15-12.291c2.01-1.168 5.291-1.186 7.314-.018l21.288 12.292zm-47.948 10.479c2.023 1.168 2.005 3.068-.005 4.236l-21.18 12.308c-1.981 1.151-5.231 1.151-7.254-.017l-21.288-12.291c-2.053-1.185-2.065-3.068-.084-4.219l21.18-12.308c2.01-1.168 5.29-1.185 7.343.001l21.288 12.29zm67.488 38.964c2.023 1.168 2.035 3.085.025 4.253l-21.18 12.308c-1.981 1.151-5.261 1.133-7.284-.035l-21.288-12.291c-2.023-1.168-2.034-3.051-.054-4.202l21.18-12.308c2.01-1.168 5.29-1.185 7.312-.017l21.289 12.292zm-41.405 17.485c2.023 1.168 2.064 3.068.054 4.236l-23.82 13.842c-2.01 1.168-5.292 1.151-7.315-.016l-145.03-83.733c-2.023-1.168-2.033-3.052-.022-4.22l23.819-13.842c2.01-1.168 5.26-1.168 7.283 0l145.031 83.733zM760.917 924.517c2.023 1.168 2.065 3.068.055 4.236l-23.82 13.842c-2.01 1.168-5.292 1.151-7.315-.017l-21.288-12.291c-2.023-1.168-2.033-3.052-.023-4.22l23.82-13.842c2.01-1.168 5.26-1.168 7.284 0l21.287 12.292zM797.212 945.472c2.023 1.168 2.034 3.05.024 4.219l-23.819 13.842c-2.01 1.168-5.262 1.169-7.285.001l-21.318-12.308c-2.023-1.168-2.033-3.051-.023-4.22l23.82-13.842c2.01-1.168 5.26-1.168 7.283 0l21.318 12.308zM833.477 966.409c2.023 1.168 2.034 3.05.024 4.219l-23.819 13.842c-2.01 1.168-5.262 1.169-7.285.001l-21.288-12.291c-2.023-1.168-2.063-3.069-.053-4.237l23.82-13.842c2.01-1.168 5.29-1.15 7.313.018l21.288 12.29zM1079.42 1108.405c2.023 1.168 2.034 3.051.024 4.219l-23.819 13.842c-2.01 1.168-5.262 1.169-7.285.001l-28.022-16.178c-2.023-1.168-2.033-3.052-.023-4.22l23.82-13.842c2.01-1.168 5.26-1.168 7.283 0l28.022 16.178zm35.329 20.397c2.023 1.168 2.064 3.068.054 4.236l-23.819 13.842c-2.01 1.168-5.292 1.151-7.315-.017l-21.862-12.622c-2.023-1.168-2.063-3.069-.053-4.237l23.82-13.842c2.01-1.168 5.29-1.15 7.313.018l21.862 12.622zM1205.395 1196.915c2.023 1.168 2.063 3.069.053 4.237l-10.198 5.927c-2.01 1.168-5.292 1.151-7.315-.017l-21.892-12.639c-2.023-1.168-2.033-3.052-.022-4.22l10.198-5.927c2.01-1.168 5.262-1.169 7.285-.001l21.891 12.64zM1122.846 1053.925c2.023 1.168 2.003 3.068-.007 4.237l-21.15 12.291c-2.039 1.185-5.26 1.168-7.283 0l-21.288-12.291c-2.023-1.168-2.094-3.051-.054-4.236l21.15-12.291c2.01-1.168 5.321-1.168 7.344 0l21.288 12.29zM1156.604 1073.415c2.023 1.168 2.003 3.068-.007 4.237l-21.15 12.291c-2.039 1.185-5.26 1.168-7.283 0l-21.318-12.308c-2.023-1.168-2.063-3.033-.024-4.219l21.15-12.291c2.01-1.168 5.291-1.186 7.314-.018l21.318 12.308zM1144.982 1104.866c2.023 1.168 2.035 3.085.025 4.253l-21.18 12.308c-1.981 1.151-5.261 1.133-7.284-.035l-21.288-12.291c-2.023-1.168-2.034-3.05-.053-4.202l21.18-12.308c2.01-1.168 5.289-1.185 7.312-.017l21.288 12.292zM1192.96 1094.405c2.023 1.168 2.003 3.068-.007 4.237l-21.15 12.291c-2.039 1.185-5.26 1.168-7.283 0l-21.288-12.291c-2.023-1.168-2.094-3.051-.054-4.236l21.15-12.291c2.01-1.168 5.321-1.168 7.344 0l21.288 12.29zm36.386 21.007c2.023 1.168 2.004 3.069-.007 4.237l-21.15 12.291c-2.039 1.185-5.26 1.168-7.283 0l-21.318-12.308c-2.023-1.168-2.063-3.034-.024-4.219l21.15-12.291c2.01-1.168 5.291-1.186 7.314-.018l21.318 12.308zm-48.008 10.444c2.023 1.168 2.035 3.085.025 4.253l-21.18 12.308c-1.981 1.151-5.261 1.133-7.284-.035l-21.288-12.291c-2.023-1.168-2.034-3.051-.053-4.202l21.18-12.308c2.01-1.168 5.289-1.185 7.312-.017l21.288 12.292zm-43.822 31.868c2.023 1.168 2.063 3.069.053 4.237l-10.198 5.927c-2.01 1.168-5.292 1.151-7.315-.017l-21.892-12.639c-2.023-1.168-2.063-3.069-.053-4.237l10.198-5.927c2.01-1.168 5.292-1.151 7.315.017l21.892 12.639zm114.729 10.181c2.023 1.168 2.033 3.052.022 4.22l-21.18 12.308c-2.01 1.168-5.26 1.168-7.283 0l-59.395-34.292c-2.023-1.168-2.064-3.068-.054-4.236l21.18-12.308c2.01-1.168 5.292-1.151 7.315.017l59.395 34.291zm-67.351 1.395c2.023 1.168 2.034 3.05.024 4.219l-23.819 13.842c-2.01 1.168-5.262 1.169-7.285.001l-21.892-12.639c-2.023-1.168-2.063-3.069-.053-4.237l23.82-13.842c2.01-1.168 5.29-1.15 7.313.018l21.892 12.638zM1305.72 1081.033c2.023 1.168 2.034 3.051.024 4.219l-21.18 12.308c-2.01 1.168-5.231 1.151-7.254-.017l-21.318-12.308c-2.023-1.168-2.063-3.033-.053-4.202l21.18-12.308c2.01-1.168 5.26-1.168 7.283 0l21.318 12.308zm-52.742 8.788c2.023 1.168 2.005 3.067-.005 4.236l-21.15 12.291c-2.01 1.168-5.26 1.168-7.283 0l-21.318-12.308c-2.023-1.168-2.034-3.05-.024-4.219l21.15-12.291c2.01-1.168 5.289-1.185 7.313-.017l21.317 12.308zm33.728 19.473c2.023 1.168 2.035 3.085.025 4.253l-21.15 12.291c-2.01 1.168-5.29 1.15-7.314-.018l-21.288-12.291c-2.023-1.168-2.034-3.05-.024-4.219l21.15-12.291c2.01-1.168 5.289-1.185 7.313-.017l21.288 12.292zM1166.817 973.626c2.023 1.168 2.034 3.05.024 4.219l-9.899 5.753c-2.041 1.186-5.291 1.186-7.314.018l-21.288-12.291c-2.023-1.168-2.064-3.068-.023-4.254l9.899-5.753c2.01-1.168 5.29-1.15 7.313.018l21.288 12.29zM1354.335 1109.101c2.023 1.168 2.064 3.068.055 4.236l-21.18 12.308c-2.01 1.168-5.261 1.133-7.284-.035l-36.748-21.216c-2.023-1.168-2.063-3.034-.053-4.202l21.18-12.308c2.01-1.168 5.26-1.168 7.283 0l36.747 21.217zM1320.465 1128.784c2.023 1.168 2.035 3.085.025 4.253l-21.15 12.291c-2.01 1.168-5.29 1.15-7.313-.018l-21.288-12.291c-2.053-1.185-2.065-3.068-.055-4.236l21.15-12.291c2.01-1.168 5.289-1.185 7.343.001l21.288 12.291zM1286.144 1148.205c2.023 1.168 2.003 3.068-.007 4.237l-21.15 12.291c-2.039 1.185-5.26 1.168-7.283 0l-44.116-25.47c-2.023-1.168-2.063-3.033-.024-4.219l21.15-12.291c2.01-1.168 5.291-1.186 7.314-.018l44.116 25.47zM1377.824 1095.451c2.023 1.168 2.065 3.068.054 4.236l-9.899 5.753c-2.041 1.186-5.321 1.168-7.344 0l-21.288-12.291c-2.053-1.186-2.064-3.068-.023-4.254l9.899-5.753c2.01-1.168 5.26-1.168 7.313.018l21.288 12.291zM1089.087 1034.434c2.023 1.168 2.034 3.086.024 4.254l-21.15 12.291c-2.039 1.185-5.29 1.15-7.313-.018l-21.288-12.291c-2.023-1.168-2.094-3.051-.054-4.236l21.15-12.291c2.01-1.168 5.321-1.168 7.344 0l21.287 12.291zM1041.139 1044.912c2.023 1.168 2.005 3.068-.005 4.236l-21.18 12.308c-1.981 1.151-5.231 1.151-7.254-.017l-21.318-12.308c-2.023-1.168-2.034-3.051-.053-4.202l21.18-12.308c2.01-1.168 5.29-1.185 7.313-.017l21.317 12.308zM1108.627 1083.876c2.023 1.168 2.035 3.085.025 4.253l-21.18 12.308c-1.981 1.151-5.261 1.133-7.284-.035l-21.318-12.308c-2.023-1.168-2.004-3.033-.023-4.184l21.18-12.308c2.01-1.168 5.259-1.202 7.282-.034l21.318 12.308z" class="color545466 svgShape"></path><path fill="#ea3dcb" d="M1355.594 640.902c3.568 2.06 6.478 7.098 6.466 11.199-.012 4.174-2.941 5.768-6.509 3.708-3.568-2.06-6.478-7.026-6.466-11.199.012-4.101 2.941-5.768 6.509-3.708z" class="colorea3d5b svgShape"></path><path fill="#ffffff" d="m1402.303 690.717-1.011 318.591-420.255-242.634 1.012-318.591z" class="colorffffff svgShape"></path><path fill="#7caddf" d="M1334.899 628.954c3.568 2.06 6.477 7.098 6.466 11.199-.012 4.174-2.94 5.769-6.508 3.709-3.569-2.061-6.478-7.026-6.467-11.199.012-4.102 2.94-5.77 6.509-3.709z" class="color7cdf82 svgShape"></path><path fill="#50a7ff" d="M1376.223 652.812c3.633 2.098 6.478 7.098 6.467 11.199-.012 4.174-2.876 5.806-6.509 3.708-3.568-2.06-6.478-7.026-6.467-11.199.012-4.101 2.941-5.768 6.509-3.708z" class="colorffc950 svgShape"></path><path fill="#4c545e" d="m982.136 417.444 420.255 242.634-.087 30.64-420.255-242.635.087-30.639zm373.415 238.366c3.568 2.06 6.497.466 6.509-3.708.012-4.101-2.899-9.139-6.467-11.2-3.568-2.06-6.497-.393-6.509 3.708-.011 4.174 2.9 9.14 6.467 11.2m20.63 11.91c3.633 2.097 6.497.465 6.509-3.708.012-4.101-2.834-9.102-6.466-11.199-3.568-2.06-6.498-.393-6.509 3.708-.012 4.173 2.898 9.139 6.466 11.199m-41.324-23.858c3.568 2.06 6.496.465 6.508-3.709.012-4.101-2.897-9.139-6.466-11.199-3.569-2.061-6.497-.393-6.509 3.708-.011 4.174 2.898 9.139 6.467 11.2" class="color4c4c5e svgShape"></path><g fill="#f4f6f8" class="colore7f1f7 svgShape"><path d="m1366.969 693.958-360.151-207.934v9.767l360.151 207.934zM1006.818 536.018v9.717l174.431 100.708.028-9.701zM1366.969 718.93l-360.151-207.934v9.765l360.151 207.934z" fill="#000000" class="color000000 svgShape"></path></g><g fill="#f4f6f8" class="colore7f1f7 svgShape"><path d="M1006.818 751.209v9.717l174.431 100.707.028-9.701zM1366.969 934.121l-360.151-207.934v9.766l360.151 207.933z" fill="#000000" class="color000000 svgShape"></path></g><path fill="#fd54de" d="M1074.544 611.961c4.509 2.604 8.144 8.918 8.13 14.081l-.154 54.23c-.015 5.163-3.673 7.267-8.183 4.663l-47.195-27.248c-4.493-2.594-8.144-8.918-8.13-14.081l.154-54.23c.015-5.163 3.69-7.257 8.183-4.663l47.195 27.248zm4.362 66.226.154-54.231c.008-2.881-2.02-6.394-4.527-7.841l-47.195-27.248c-2.507-1.447-4.549-.284-4.557 2.597l-.154 54.231c-.008 2.881 2.02 6.394 4.527 7.842l47.195 27.248c2.507 1.446 4.548.282 4.557-2.598m86.349-13.853c4.493 2.594 8.144 8.918 8.13 14.081l-.154 54.231c-.015 5.163-3.69 7.257-8.183 4.663l-47.211-27.258c-4.493-2.594-8.128-8.908-8.113-14.072l.154-54.23c.015-5.163 3.673-7.267 8.167-4.673l47.21 27.258zm4.345 66.215.154-54.231c.008-2.881-2.02-6.394-4.511-7.832l-47.211-27.257c-2.491-1.438-4.532-.275-4.541 2.606l-.154 54.23c-.008 2.881 2.02 6.394 4.511 7.832l47.211 27.258c2.492 1.439 4.533.275 4.541-2.606m86.35-13.853c4.493 2.594 8.144 8.918 8.13 14.081l-.154 54.23c-.015 5.163-3.689 7.257-8.183 4.663l-47.195-27.248c-4.493-2.594-8.144-8.918-8.13-14.081l.154-54.23c.015-5.163 3.689-7.257 8.183-4.663l47.195 27.248zm4.362 66.225.154-54.231c.008-2.881-2.02-6.394-4.527-7.841l-47.195-27.248c-2.507-1.447-4.549-.284-4.557 2.597l-.154 54.231c-.008 2.881 2.02 6.394 4.527 7.841l47.195 27.248c2.507 1.448 4.548.284 4.557-2.597m86.333-13.862c4.51 2.604 8.144 8.918 8.13 14.081l-.154 54.231c-.015 5.163-3.673 7.267-8.183 4.663l-47.195-27.248c-4.493-2.594-8.144-8.918-8.13-14.081l.154-54.23c.015-5.163 3.689-7.257 8.182-4.663l47.196 27.247zm4.361 66.225.154-54.231c.008-2.881-2.02-6.394-4.527-7.842l-47.195-27.248c-2.507-1.447-4.549-.284-4.557 2.597l-.154 54.231c-.008 2.881 2.02 6.394 4.527 7.841l47.195 27.248c2.508 1.448 4.549.285 4.557-2.596" class="colorfd546b svgShape"></path><path fill="#474e56" d="m1046.964 683.209 11.067 40.715-6.805-3.929-2.237-8.907-11.164-6.446-2.342 6.263-6.648-3.839 11.418-27.733 6.711 3.876zm-7.398 16.808 7.715 4.454-3.696-14.731-.094-.054-3.925 10.331m102.939 56.978c3.666 3.343 5.444 7.583 5.432 11.871-.02 6.955-5.171 6.94-10.565 3.826l-14.457-8.347.097-34.269 14.05 8.111c5.676 3.277 9.528 7.63 9.509 14.009-.009 3.387-1.427 4.842-4.066 4.799zm-5.994 9.352c2.572 1.485 4.864 1.834 4.874-1.698.01-3.531-1.868-5.987-4.721-7.634l-7.119-4.11-.027 9.405 6.993 4.037m-6.93-26.595-.023 7.999 6.648 3.839c2.321 1.34 3.986 1.111 3.994-1.772.009-3.207-2.153-5.177-4.473-6.517l-6.146-3.549m98.679 45.502c6.492 3.748 12.061 11.403 12.823 19.783l-6.366-3.675c-.429-3.677-3.276-7.919-6.475-9.766-5.896-3.404-8.139 1.076-8.156 7.094-.016 5.694 2.194 12.745 8.09 16.149 3.983 2.299 6.25.504 6.764-3.783l6.366 3.676c-.683 8.233-5.81 10.686-13.149 6.449-9.22-5.323-14.654-16.401-14.626-26.276.03-10.196 5.509-14.974 14.729-9.651zm90.911 54.153c7.715 4.454 13.501 13.425 13.469 24.74-.028 9.945-4.471 14.78-13.566 9.529l-12.889-7.442.097-34.269 12.889 7.442zm-.55 27.692c3.795 2.191 7.44 1.588 7.462-6.015.02-6.919-2.1-12.546-8.561-16.276l-4.704-2.716-.061 21.621 5.864 3.386" class="color474756 svgShape"></path><path fill="#7b75d1" d="M1223.177 751.476a2.23 2.23 0 0 1-.611-.085 2.308 2.308 0 0 1-1.408-1.171l-4.991-9.743c-.591-1.153-.165-2.582.95-3.19 1.12-.613 2.501-.168 3.088.982l3.864 7.544a926.25 926.25 0 0 1 24.762-14.756c1.109-.636 2.496-.221 3.108.915.614 1.139.216 2.577-.886 3.211a920.449 920.449 0 0 0-26.701 15.956 2.222 2.222 0 0 1-1.175.337z" class="color75d178 svgShape"></path><path fill="#399cff" d="M682.914 624.122c0-.886-.597-1.792-1.771-2.471l-27.282-15.854c-2.368-1.38-6.177-1.38-8.545 0l-222.83 128.648-.885-313.879 222.829-128.65c2.348-1.358 6.177-1.358 8.525 0l27.303 15.875c1.174.68 1.771 1.565 1.771 2.451l.885 313.88z" class="colorffb839 svgShape"></path><path fill="#50a7ff" d="m418.679 418.877.89 313.871 2.913 1.692-.89-313.87z" class="colorffc950 svgShape"></path><path fill="#ffffff" d="m425.79 423.584 36.562 21.247 216.962-125.058c3.498-2.02 3.516-5.298.041-7.318l-23.97-13.93c-3.475-2.02-9.136-2.02-12.634 0L425.79 423.584z" class="colorffffff svgShape"></path><path fill="#f4f6f8" d="m425.79 423.57.89 303.847 34.087 19.81-.89-303.848z" class="colorcfdee8 svgShape"></path><path fill="#399cff" d="M687.032 624.101c0 1.524-.989 3.027-2.985 4.2L461.217 756.95l-.906-313.88L683.14 314.421c2.018-1.153 3.007-2.676 3.007-4.201l.885 313.881z" class="colorffb839 svgShape"></path><path fill="#88c3ff" d="m418.679 418.877 2.912 1.692L644.42 291.918c2.366-1.366 6.192-1.366 8.543 0l27.297 15.863c2.351 1.366 2.351 3.59-.015 4.956L457.418 441.39l2.9 1.685 222.829-128.651c3.983-2.3 4.004-6.034.047-8.334l-27.297-15.863c-3.958-2.3-10.404-2.3-14.388 0l-222.83 128.65z" class="colorffe088 svgShape"></path><path fill="#50a7ff" d="m457.418 441.39.889 313.87 2.9 1.685-.89-313.87z" class="colorffc950 svgShape"></path><path fill="#ea3dcb" d="M734.658 654.184c0-.886-.577-1.771-1.75-2.451l-27.303-15.875c-2.347-1.358-6.177-1.358-8.545 0L474.23 764.507l-.885-313.859 222.829-128.649c2.368-1.379 6.177-1.379 8.545 0l27.303 15.854c1.174.68 1.75 1.585 1.75 2.471l.886 313.86z" class="colorea3d5b svgShape"></path><path fill="#ffffff" d="m480.058 453.965 36.562 21.247 216.962-125.058c3.498-2.02 3.516-5.298.041-7.318l-23.97-13.93c-3.475-2.019-9.136-2.02-12.634 0L480.058 453.965z" class="colorffffff svgShape"></path><path fill="#f4f6f8" d="m480.058 453.952.89 303.847 34.087 19.809-.89-303.847z" class="colorcfdee8 svgShape"></path><path fill="#a50b89" d="m470.44 448.957.889 313.871 2.9 1.685-.89-313.871z" class="colore22951 svgShape"></path><path fill="#ea3dcb" d="M738.797 654.163c0 1.523-1.009 3.047-3.006 4.201l-222.83 128.648-.906-313.86 222.83-128.649c1.997-1.152 3.006-2.676 3.006-4.159l.906 313.819z" class="colorea3d5b svgShape"></path><path fill="#ff6ce4" d="m470.44 448.957 2.899 1.685 222.83-128.651c2.366-1.366 6.192-1.366 8.543 0l27.31 15.871c2.351 1.366 2.339 3.583-.028 4.949L509.165 471.462l2.9 1.685 222.829-128.651c3.983-2.3 4.004-6.034.06-8.326l-27.31-15.871c-3.945-2.293-10.391-2.293-14.375.007L470.44 448.957z" class="colorff6c85 svgShape"></path><path fill="#a50b89" d="m509.165 471.462.89 313.871 2.899 1.685-.889-313.871z" class="colore22951 svgShape"></path><path fill="#4c545e" d="M844.775 739.654c-.103-.535-.659-.967-1.626-1.236l-26.356-7.166c-2.265-.597-6.033 0-8.401 1.359l-222.829 128.65-71.099-343.984 222.829-128.649c2.368-1.379 6.136-1.977 8.401-1.359l26.355 7.145c.968.267 1.524.721 1.627 1.256l71.099 343.984z" class="color4c4c5e svgShape"></path><path fill="#ffffff" d="M775.777 405.555 558.77 530.841l-40.193-10.913 217.007-125.287c3.994-2.306 10.316-3.315 14.146-2.285l26.335 7.144c3.83 1.051 3.686 3.749-.288 6.055z" class="colorffffff svgShape"></path><path fill="#5e5466" d="m511.668 516.515 71.097 343.993 2.798.76-71.096-343.993z" class="color545466 svgShape"></path><path fill="#dce6f1" d="m518.577 519.925 69.288 335.24 34.122 9.263-69.288-335.24z" class="colordce8f1 svgShape"></path><path fill="#4c545e" d="m845.784 742.763-222.829 128.65-71.099-343.984 222.83-128.649c2.265-1.318 3.274-2.76 3.047-3.953l71.078 344.004c.247 1.194-.762 2.635-3.027 3.932z" class="color4c4c5e svgShape"></path><path fill="#6822a2" d="m511.668 516.515 2.798.76 222.829-128.651c2.366-1.366 6.139-1.971 8.408-1.355l26.344 7.151c2.268.616 2.189 2.224-.177 3.59L549.041 526.661l2.811.763 222.829-128.651c3.983-2.3 4.116-5.009.297-6.045l-26.344-7.151c-3.819-1.037-10.154-.012-14.138 2.288l-222.828 128.65z" class="color616173 svgShape"></path><path fill="#5e5466" d="m549.041 526.661 71.097 343.993 2.811.763-71.096-343.993z" class="color545466 svgShape"></path><path fill="#6822a2" d="m642.869 703.134 16.215 78.452 131.923-76.166-16.215-78.452z" class="color616173 svgShape"></path><path fill="#b5d9fe" d="m1459.938 1012.387 1.974-12.509-14.254-1.503s-6.689-8.332-8.259-8.893c-1.57-.561-5.672-5.251-6.556-6.346-.884-1.095-1.643-3.036-2.571-2.297-.928.739-1.593 3.561-.312 5.217 1.281 1.656 4.461 4.317 4.773 4.7s.999 2.074.441 2.235c-.558.16-3.674.989-4.756.962-1.081-.026-20.018-5.918-20.452-5.793s-2.239.846-1.278 2.324c.962 1.478 15.644 7.04 15.644 7.04l-.307 1.033-17.202-3.354s-1.835-.08-1.873 1.888c-.038 1.968 18.598 5.179 18.598 5.179l-.059.962s-15.584-1.93-16.372-1.636c-.788.294-1.338 2.814 1.135 3.249 2.474.436 16.922 1.68 16.922 1.68l.464 1.148s-12.293 1.585-13.039 1.791c-1.489.412-1.122 2.6.309 2.475.633-.055 25.67-.564 27.451-.671 1.781-.107 5.269-1.042 5.269-1.042l14.31 2.161z" class="colorfed0b5 svgShape"></path><path fill="#7b75d1" d="M1535.339 965.478c-6.877 19.923-13.882 38.962-22.448 47.024-14.909 4.836-40.017 2.643-66.085-.211-.293-5.702-1.181-9.579 2.18-14.783l49.177-5.722s-3.438-50.843 21.448-54.453c9.125-1.325 15.728 28.145 15.728 28.145z" class="color75d178 svgShape"></path><path fill="#a50b89" d="M1581.532 1281.09s-1.16 36.433-11.487 41.075-20.885 2.901-21.465-2.901c-.58-5.802 8.934-30.748 14.04-38.986 5.104-8.238 21.58-7.194 18.912.812zm-39.54-58.541s-1.182 20.813-2.673 23.304c-1.492 2.49-39.637 13.917-46.063 11.603-6.426-2.314-9.503-6.86-5.338-13.589s20.598-12.099 31.454-21.74 22.181-3.306 22.62.422z" class="colore22951 svgShape"></path><path fill="#474e56" d="M1517.107 1157.955a31.525 31.525 0 0 1 .8 11.569c-1.798 15.188.59 56.83 2.802 58.302 2.515 1.679 18.144 10.454 20.008 2.812 1.956-7.546 4.791-39.236 4.418-57.217-.28-18.072-.186-83.565-5.961-86.822 0 0-32.885-18.354-33.351-24.222-4.271 35.623.519 53.707 11.284 95.578z" class="color474756 svgShape"></path><path fill="#4c545e" d="M1571.745 1077.384s7.241.258 6.611 22.926c-.63 22.668-1.574 70.837 3.463 80.911 5.037 10.075 6.744 98.125-.812 103.162-7.556 5.037-19.967-2.598-19.967-2.598s-8.5-85.137-11.649-97.101c-3.148-11.964-26.446-33.945-21.409-92.818.001 0 41.746-20.793 43.763-14.482z" class="color4c4c5e svgShape"></path><path fill="#94c0ed" d="M1593.02 969.63c2.549-.033-2.274 35.742-7.527 43.907-17.993 24.522-5.846 52.345-6.787 75.867-.941 23.522-71.619 7.372-72.246-18.345-.627-25.717-2.509-105.819 0-117.737 2.509-11.918 9.722-16.936 20.385-16.936s61.471 19.759 66.175 33.244z" class="color94ed96 svgShape"></path><path fill="#a7ccf2" d="M1563.831 927.329s-.394 20.301-1.084 21.582c-.69 1.281-30.846 25.031-30.944 14.979-.099-10.052 1.971-18.33 2.759-24.341.788-6.011 28.48-13.698 28.579-12.22" class="colorf2c0a7 svgShape"></path><path fill="#b5d9fe" d="M1534.028 893.771c-1.512.68-9.262 36.914-3.44 50.41 5.822 13.496 46.97-8.732 46.573-20.243-.397-11.512.132-49.617-43.133-30.167z" class="colorfed0b5 svgShape"></path><path fill="#4c545e" d="M1562.423 878.633s-16.271-1.966-22.133 0c-5.861 1.966-10.848 6.769-11.985 13.426-1.137 6.657 2.624 12.808 10.148 13.819 7.523 1.011 21.695-4.045 22.57-2.107.875 1.938-1.312 6.741-2.187 9.606-.875 2.865 2.537 16.684 2.275 18.706 0 0 2.712-9.437 4.636-10.87 1.925-1.432 7.436-.758 7.961.421.525 1.18-.982 9.874-4.044 12.823 0 0 11.13-10.463 12.704-17.541 1.575-7.078 6.387-32.582-19.945-38.283z" class="color4c4c5e svgShape"></path><path fill="#f46cdb" d="M1648.841 1134.331c.336-3.408-.506-5.612-2.24-6.843l-27.208-19.638c1.733 1.231 2.812 3.731 2.502 6.869-.646 6.559-5.855 13.73-11.963 16.582-2.78 1.317-5.428 1.315-7.161.084l26.972 19.343c1.732 1.231 4.356 1.49 7.396.211 5.846-2.878 11.081-10.305 11.702-16.608z" class="colorf46cb4 svgShape"></path><path fill="#f4f6f8" d="M1632.414 1120.117c.382-3.88-.577-6.39-2.55-7.792l-30.979-22.359c1.974 1.402 3.201 4.248 2.849 7.822-.735 7.469-6.667 15.633-13.622 18.881-3.165 1.5-6.181 1.497-8.154.095l30.71 22.024c1.972 1.402 4.96 1.696 8.421.24 6.658-3.278 12.618-11.734 13.325-18.911z" class="colore7f1f7 svgShape"></path><path fill="#f4f6f8" d="M1612.684 1105.9c.382-3.88-.577-6.39-2.55-7.792l-3.623-2.741c1.974 1.402 3.201 4.248 2.849 7.821-.735 7.469-6.667 15.633-13.622 18.881-3.165 1.5-6.181 1.498-8.154.096l3.354 2.405c1.972 1.402 4.96 1.696 8.421.24 6.658-3.277 12.618-11.733 13.325-18.91z" class="colorcfdee8 svgShape"></path><path fill="#f4f6f8" d="M1620.404 1111.56c.382-3.88-.577-6.39-2.55-7.792l-3.623-2.741c1.974 1.402 3.201 4.248 2.849 7.822-.735 7.468-6.667 15.633-13.622 18.88-3.165 1.5-6.181 1.498-8.154.095l3.354 2.405c1.972 1.402 4.96 1.696 8.421.24 6.658-3.276 12.618-11.732 13.325-18.909z" class="colorcfdee8 svgShape"></path><path fill="#0c2340" d="M1601.734 1097.787c.735-7.469-4.349-10.974-11.003-7.711-6.927 2.941-12.887 11.397-13.622 18.866-.382 3.88.845 6.726 2.849 7.821 1.974 1.402 4.989 1.405 8.154-.095 6.955-3.248 12.886-11.412 13.622-18.881z" class="color353535 svgShape"></path><path fill="#1d13ab" d="M1603.894 1098.474c.055-3.652-1.215-6.215-3.237-7.321l-208.308-151.112 5.501 9.075 195.511 141.928 10.533 7.43z" class="color1352ab svgShape"></path><path fill="#2e25b8" d="m1603.834 1099.078.059-.604-10.533-7.43-195.511-141.928-7.575 15.087 191.285 138.464 14.76 10.894c4.034-3.87 7.011-9.359 7.515-14.483z" class="color255bb8 svgShape"></path><path fill="#5046e4" d="m1596.318 1113.561-14.76-10.894-191.285-138.464-.302-.03-12.443 5.777 202.634 146.896c.546.648 1.392 1.341 2.265 1.74 2.023 1.106 4.766 1.079 7.657-.465 2.23-1 4.52-2.603 6.234-4.56z" class="color3765c7 svgShape"></path><path fill="#7a7280" d="m1390.175 964.133 7.552-14.949-5.248-9.148-12.783 5.792-7.552 14.948 5.248 9.149z" class="color727480 svgShape"></path><path fill="#c5e2ff" d="m1397.729 949.169-5.246-9.21-37.189-12.365-22.389-7.51 15.679 17.459 28.857 32.339 12.662-5.757z" class="colorffdcc5 svgShape"></path><path fill="#474e56" d="m1355.294 927.594-22.389-7.51 15.68 17.459c3.021-2.676 5.475-6.04 6.709-9.949z" class="color474756 svgShape"></path><path fill="#b5d9fe" d="m1535.113 1068.695 2.617-11.895-15.855-1.384s-8.478-7.635-10.234-7.957-6.885-4.562-8.004-5.565-2.248-2.918-3.107-1.98-1.089 4.027.545 5.553 5.447 3.785 5.841 4.135c.394.35 1.405 2.015.842 2.28-.564.265-3.724 1.673-4.873 1.83-1.149.158-22.183-2.803-22.621-2.597-.438.206-2.229 1.276-.963 2.669s17.741 4.736 17.741 4.736l-.152 1.141-18.771-.584s-1.955.231-1.666 2.311c.29 2.08 20.556 2.268 20.556 2.268l.099 1.024s-16.82.64-17.605 1.085c-.785.445-.945 3.195 1.747 3.23 2.692.035 18.194-1.133 18.194-1.133l.684 1.131s-12.747 3.78-13.501 4.126c-1.507.69-.751 2.933.742 2.556.661-.167 27.078-5 28.945-5.418s5.403-2.003 5.403-2.003l13.396.441z" class="colorfed0b5 svgShape"></path><path fill="#7b75d1" d="M1594.581 970.19s12.611 75.02 2.938 91.414c-9.674 16.394-74.28 7.194-74.28 7.194s1.537-11.09.031-13.26 53.396-9.618 53.396-9.618-5.557-40.281-6.367-49.005c-1.73-18.65 17.541-36.842 24.282-26.725z" class="color75d178 svgShape"></path><path fill="#a50b89" d="m1354.053 1399.31-19.507-1.13 2.943 10.756-36.668-21.171 16.564-9.626z" class="colore22951 svgShape"></path><path fill="#f4f6f8" d="M1179.157 1469.373c92.857-65.495 184.013-122.083 271.541-159.646-2.825 1.64-6.235 2.264-9.969 1.75-3.156-.44-6.505-1.684-9.844-3.612-3.77-2.177-7.526-5.225-10.98-8.973-3.022-3.26-5.741-6.95-8.083-10.963-4.59-7.864-7.502-16.77-7.97-24.418-.468-7.69 1.509-14.207 5.416-17.835a12.327 12.327 0 0 1 2.205-1.634c-89.926 56.193-180.42 109.51-271.541 159.647a12.368 12.368 0 0 0-2.205 1.635c-3.907 3.628-5.884 10.145-5.416 17.835.468 7.648 3.38 16.554 7.97 24.418 2.342 4.013 5.061 7.703 8.083 10.962 3.454 3.749 7.21 6.797 10.98 8.973 3.339 1.928 6.688 3.171 9.844 3.612 3.734.514 7.144-.108 9.969-1.751z" class="colorcfdee8 svgShape"></path><path fill="#f4f6f8" d="M1446.179 1311.376c-1.71.319-3.535.365-5.45.1-3.155-.441-6.505-1.685-9.844-3.612-3.77-2.177-7.527-5.225-10.98-8.974-3.022-3.259-5.741-6.949-8.083-10.963-4.59-7.863-7.502-16.769-7.97-24.416-.149-2.451.035-4.716.365-6.874-82.652 51.267-165.776 100.146-249.459 146.189-.772.449-1.496.986-2.164 1.605-3.834 3.56-5.774 9.956-5.315 17.501.459 7.505 3.316 16.245 7.82 23.96 2.298 3.938 4.967 7.56 7.932 10.757 3.39 3.68 7.076 6.67 10.775 8.807 2.325 1.342 4.631 2.208 6.895 2.834 90.903-64.033 180.159-119.44 265.97-156.787-.164-.049-.325-.074-.492-.127z" class="colorcfdee8 svgShape"></path><path fill="#ffffff" d="m1156.857 1404.491 271.541-159.648-.054-1.025-271.541 159.648z" class="colorffffff svgShape"></path><path fill="#f4f6f8" d="M1410.813 1242.995c-88.23 57.103-178.692 110.408-271.541 159.646 4.65-2.703 10.984-2.457 17.53.824l271.541-159.648c-6.545-3.28-12.879-3.524-17.53-.822z" class="colore7f1f7 svgShape"></path><path fill="#f4f6f8" d="M1137.956 1398.897c5.534-3.209 13.248-2.533 21.078 2.001.53.295 1.089.647 1.619 1 9.685 6.213 18.723 17.81 23.64 30.234 4.887 12.424 5.299 24.877 1.06 32.501-1.413 2.531-3.297 4.476-5.564 5.802 92.852-67.378 183.927-124.007 271.535-159.642 2.267-1.327 4.181-3.267 5.564-5.829 4.239-7.595 3.827-20.048-1.06-32.471-4.887-12.424-13.954-24.052-23.61-30.264a45.876 45.876 0 0 0-1.649-1c-7.831-4.505-15.544-5.213-21.049-2.004-86.291 67.053-176.309 121.927-271.564 159.672z" class="colore7f1f7 svgShape"></path><path fill="#c5d1dd" d="M1159.033 1400.89c-9.088-5.247-18.013-5.343-23.552-.152l.694 1.006c5.306-4.982 14.155-4.877 22.958.204.499.288.997.592 1.495.911 9.377 6.042 18.156 17.276 22.904 29.341 4.673 11.892 5.09 24.269 1.04 31.536-3.122 5.617-8.74 8.302-15.383 7.387-3.155-.44-6.505-1.684-9.844-3.612-3.77-2.177-7.527-5.224-10.98-8.973-3.022-3.26-5.741-6.95-8.083-10.962-4.59-7.864-7.502-16.77-7.97-24.418-.468-7.69 1.509-14.207 5.416-17.835 4.568-4.243 11.704-4.557 19.13-.833l-.054-1.025c-7.67-3.845-15.051-3.52-19.77.829-4.04 3.768-6.073 10.491-5.587 18.43.486 7.917 3.472 17.104 8.231 25.216a65.082 65.082 0 0 0 8.346 11.33c3.566 3.855 7.436 6.997 11.326 9.243 3.44 1.986 6.9 3.27 10.156 3.722 6.85.948 12.638-1.81 15.855-7.611 4.239-7.612 3.822-20.054-1.075-32.487-4.897-12.432-13.939-24.034-23.617-30.249a41.968 41.968 0 0 0-1.636-.998z" class="colorc5d4dd svgShape"></path><path fill="#ea3dcb" d="M1266.691 1330.999c4.474-2.594 10.711-2.047 17.042 1.619.428.238.881.523 1.309.809 7.831 5.023 15.138 14.399 19.112 24.444 3.951 10.045 4.284 20.112.857 26.277-1.143 2.047-2.666 3.618-4.499 4.689l15.215-8.936c1.833-1.072 3.38-2.642 4.499-4.713 3.427-6.141 3.094-16.209-.857-26.252-3.951-10.045-11.282-19.445-19.088-24.468a39.504 39.504 0 0 0-1.333-.809c-6.331-3.642-12.567-4.213-17.018-1.619l-15.239 8.959z" class="colorea3d5b svgShape"></path><path fill="#f4f6f8" d="m765.435 1213.445 76.184 18.07-12.948 18.439zM523.31 1340.676l12.936-18.416 63.165 36.468zM587.368 1249.484l47.131-67.094 48.52 11.508z" class="colorcfdee8 svgShape"></path><path fill="#f4f6f8" d="m865.831 1271.409-88.232 51.275-95.697 55.613-24.219 14.075-58.272-33.644-63.164-36.468-37.176-21.463 88.297-51.313 95.651-55.586 24.2-14.064 58.216 33.611 63.236 36.509z" class="colore7f1f7 svgShape"></path><path fill="#f4f6f8" d="m777.599 1322.684-47.141 67.132-48.556-11.519z" class="colorcfdee8 svgShape"></path><g fill="#f4f6f8" class="colorcfdee8 svgShape"><path d="m817.355 1284.001-2.946 1.712-132.754-76.645 2.947-1.713zM798.688 1294.849l-2.967 1.724-132.754-76.645 2.968-1.725zM780.021 1305.697l-2.967 1.724-132.754-76.645 2.968-1.724zM705.331 1349.102l-2.967 1.724-132.754-76.645 2.968-1.724zM723.999 1338.253l-2.968 1.725-132.753-76.645 2.967-1.725zM686.664 1359.95l-2.968 1.725-132.753-76.646 2.967-1.724zM604.001 1333.851l-2.967 1.724-68.759-39.697 2.968-1.725zM742.666 1327.405l-2.947 1.713-132.753-76.646 2.946-1.712zM761.354 1316.545l-2.968 1.725-132.753-76.646 2.967-1.724zM836.043 1273.14l-2.967 1.725-132.753-76.646 2.967-1.724z" fill="#000000" class="color000000 svgShape"></path></g><path fill="#474e56" d="m436.719 980.48-44.561-25.896-44.807 25.869 44.56 25.896zM487.962 951.067l-44.56-25.896-44.808 25.869 44.561 25.896zM539.206 921.654l-44.561-25.896-44.807 25.869 44.561 25.896z" class="color474756 svgShape"></path><path fill="#7caddf" d="m460.29 879.233.116 41.087 35.239 20.479-.116-41.088z" class="color7cdf82 svgShape"></path><path fill="#7b75d1" d="m495.529 899.711.116 41.088 35.47-20.479-.117-41.087z" class="color75d178 svgShape"></path><path fill="#94c0ed" d="m460.29 879.233 35.239 20.478 35.469-20.478-35.239-20.478z" class="color94ed96 svgShape"></path><path fill="#399cff" d="m408.485 909.143.116 41.087 35.239 20.478-.116-41.087z" class="colorffb839 svgShape"></path><path fill="#50a7ff" d="m443.724 929.621.116 41.087 35.469-20.478-.116-41.087z" class="colorffc950 svgShape"></path><path fill="#88c3ff" d="m408.485 909.143 35.239 20.478 35.469-20.478-35.239-20.479z" class="colorffe088 svgShape"></path><path fill="#a50b89" d="m356.68 939.052.116 41.088 35.239 20.478-.116-41.087z" class="colore22951 svgShape"></path><path fill="#ea3dcb" d="m391.919 959.531.116 41.087 35.469-20.478-.116-41.088z" class="colorea3d5b svgShape"></path><path fill="#fd54de" d="m356.68 939.052 35.239 20.479 35.469-20.479-35.239-20.478z" class="colorfd546b svgShape"></path></svg>