<svg xmlns="http://www.w3.org/2000/svg" enable-background="new 0 0 361.48 293.71" viewBox="0 0 361.48 293.71" id="Onlinebanking"><g fill="#f4f6f8" class="color000000 svgShape"><path fill="#6560ad" d="M54.217 179.637c.907.524.905 1.37.011 1.889-.902.524-2.354.524-3.262 0-.9-.52-.912-1.365-.011-1.889C51.85 179.117 53.317 179.117 54.217 179.637zM44.428 185.326c.907.524.905 1.369.011 1.889-.894.52-2.354.524-3.262 0-.9-.52-.905-1.37-.011-1.889C42.061 184.806 43.528 184.806 44.428 185.326zM53.116 185.252c.629.363.632.949.015 1.308-.625.363-1.636.363-2.264 0-.622-.359-.625-.945 0-1.307C51.483 184.893 52.494 184.893 53.116 185.252z" class="color60ad88 svgShape"></path><g fill="#f4f6f8" class="color000000 svgShape"><g fill="#f4f6f8" class="color000000 svgShape"><g fill="#f4f6f8" class="color000000 svgShape"><g fill="#f4f6f8" class="color000000 svgShape"><g fill="#f4f6f8" class="color000000 svgShape"><path fill="#b7dbff" d="M106.019,121.282l0.116,42.687c0,0.714,0.251,1.216,0.666,1.458l1.846,1.077
							c-0.415-0.241-0.666-0.743-0.666-1.468l-0.116-42.687c-0.01-1.439,1.014-3.205,2.269-3.93l60.373-34.855
							c0.628-0.367,1.197-0.396,1.612-0.164l-1.847-1.067c-0.415-0.241-0.985-0.213-1.612,0.154l-60.373,34.855
							C107.032,118.066,106.009,119.833,106.019,121.282z" class="colorb7ceff svgShape"></path></g></g></g></g><g fill="#f4f6f8" class="color000000 svgShape"><path fill="#0c2340" d="M110.136,118.415c-1.257,0.726-2.278,2.493-2.273,3.938l0.116,42.688
				c0.004,1.445,1.031,2.03,2.288,1.304l60.369-34.854c1.257-0.726,2.271-2.489,2.267-3.934l-0.116-42.687
				c-0.004-1.445-1.025-2.034-2.282-1.308L110.136,118.415z" class="color233163 svgShape"></path></g><g fill="#f4f6f8" class="color000000 svgShape"><polygon fill="#ffffff" points="110.141 121.033 110.257 163.727 170.626 128.874 170.509 86.179" class="colorffffff svgShape"></polygon></g><g fill="#f4f6f8" class="color000000 svgShape"><g fill="#f4f6f8" class="color000000 svgShape"><g fill="#f4f6f8" class="color000000 svgShape"><path fill="#bcc4cc" d="M109.327,167.671v3.147c0.01,0.473,0.319,0.937,0.937,1.304l37.806,21.969
						c1.255,0.724,3.292,0.724,4.548,0l60.364-34.845c0.637-0.367,0.956-0.85,0.956-1.333l-0.01-3.147
						c0,0.483-0.319,0.965-0.956,1.332l-60.364,34.845c-1.255,0.724-3.292,0.724-4.548,0l-37.806-21.969
						C109.636,168.607,109.327,168.144,109.327,167.671z" class="colorbcc2cc svgShape"></path></g><g fill="#f4f6f8" class="color000000 svgShape"><path fill="#f4f6f8" d="M110.274,166.341c-1.257,0.726-1.27,1.904-0.021,2.63l37.812,21.974
						c1.249,0.726,3.289,0.726,4.547,0l60.362-34.85c1.264-0.73,1.264-1.908,0.015-2.634l-37.812-21.974
						c-1.249-0.726-3.277-0.726-4.541,0.004L110.274,166.341z" class="coloreaeffa svgShape"></path></g></g></g><g fill="#f4f6f8" class="color000000 svgShape"><g fill="#f4f6f8" class="color000000 svgShape"><path fill="#d9e0e8" d="M186.513,166.064c0.433,0.25,0.43,0.653,0.005,0.9l-20.39,11.849
					c-0.424,0.247-1.115,0.247-1.548-0.003l-10.06-5.808c-0.427-0.247-0.43-0.647-0.005-0.894l20.39-11.849
					c0.425-0.247,1.121-0.25,1.548-0.003L186.513,166.064z" class="colord9dfe8 svgShape"></path></g></g><g fill="#f4f6f8" class="color000000 svgShape"><g fill="#f4f6f8" class="color000000 svgShape"><polygon fill="#d0d6dd" points="153.733 148.285 150.62 150.094 149.159 149.251 152.273 147.441" class="colord0d5dd svgShape"></polygon></g><g fill="#f4f6f8" class="color000000 svgShape"><g fill="#f4f6f8" class="color000000 svgShape"><polygon fill="#d0d6dd" points="149.554 150.72 146.441 152.529 144.974 151.682 148.087 149.873" class="colord0d5dd svgShape"></polygon></g><g fill="#f4f6f8" class="color000000 svgShape"><polygon fill="#d0d6dd" points="145.375 153.149 142.262 154.958 140.795 154.111 143.909 152.302" class="colord0d5dd svgShape"></polygon></g></g><g fill="#f4f6f8" class="color000000 svgShape"><polygon fill="#d0d6dd" points="139.103 168.899 135.99 170.708 133.226 169.112 136.339 167.303" class="colord0d5dd svgShape"></polygon></g><g fill="#f4f6f8" class="color000000 svgShape"><g fill="#f4f6f8" class="color000000 svgShape"><polygon fill="#d0d6dd" points="129.507 166.4 126.394 168.21 123.63 166.614 126.743 164.805" class="colord0d5dd svgShape"></polygon></g><g fill="#f4f6f8" class="color000000 svgShape"><polygon fill="#d0d6dd" points="125.328 168.829 120.662 171.548 117.892 169.949 122.565 167.233" class="colord0d5dd svgShape"></polygon></g><g fill="#f4f6f8" class="color000000 svgShape"><polygon fill="#d0d6dd" points="134.918 171.331 131.811 173.137 129.047 171.541 132.154 169.735" class="colord0d5dd svgShape"></polygon></g><g fill="#f4f6f8" class="color000000 svgShape"><polygon fill="#d0d6dd" points="131.433 169.319 124.141 173.557 121.377 171.961 128.669 167.723" class="colord0d5dd svgShape"></polygon></g><g fill="#f4f6f8" class="color000000 svgShape"><polygon fill="#d0d6dd" points="130.739 173.76 127.626 175.569 124.862 173.973 127.975 172.164" class="colord0d5dd svgShape"></polygon></g></g><g fill="#f4f6f8" class="color000000 svgShape"><polygon fill="#d0d6dd" points="157.912 145.856 154.799 147.665 153.338 146.822 156.452 145.013" class="colord0d5dd svgShape"></polygon></g><g fill="#f4f6f8" class="color000000 svgShape"><polygon fill="#d0d6dd" points="163.488 158.765 160.375 160.574 157.605 158.975 160.718 157.166" class="colord0d5dd svgShape"></polygon></g><g fill="#f4f6f8" class="color000000 svgShape"><polygon fill="#d0d6dd" points="171.852 153.904 168.739 155.714 165.969 154.114 169.082 152.305" class="colord0d5dd svgShape"></polygon></g><g fill="#f4f6f8" class="color000000 svgShape"><polygon fill="#d0d6dd" points="167.673 156.333 164.56 158.142 161.79 156.543 164.903 154.734" class="colord0d5dd svgShape"></polygon></g><g fill="#f4f6f8" class="color000000 svgShape"><polygon fill="#d0d6dd" points="164.882 149.88 157.59 154.118 154.826 152.522 162.119 148.285" class="colord0d5dd svgShape"></polygon></g><g fill="#f4f6f8" class="color000000 svgShape"><polygon fill="#d0d6dd" points="164.188 154.321 161.075 156.13 158.311 154.534 161.425 152.725" class="colord0d5dd svgShape"></polygon></g><g fill="#f4f6f8" class="color000000 svgShape"><polygon fill="#d0d6dd" points="147.461 164.042 144.353 165.848 141.59 164.252 144.697 162.446" class="colord0d5dd svgShape"></polygon></g><g fill="#f4f6f8" class="color000000 svgShape"><polygon fill="#d0d6dd" points="138.403 173.343 131.111 177.581 128.347 175.985 135.639 171.747" class="colord0d5dd svgShape"></polygon></g><g fill="#f4f6f8" class="color000000 svgShape"><g fill="#f4f6f8" class="color000000 svgShape"><polygon fill="#d0d6dd" points="161.397 147.868 151.48 153.632 148.716 152.036 158.633 146.272" class="colord0d5dd svgShape"></polygon></g><g fill="#f4f6f8" class="color000000 svgShape"><polygon fill="#d0d6dd" points="150.408 154.254 147.301 156.06 144.537 154.464 147.644 152.659" class="colord0d5dd svgShape"></polygon></g><g fill="#f4f6f8" class="color000000 svgShape"><polygon fill="#d0d6dd" points="156.518 154.741 153.405 156.55 150.641 154.954 153.754 153.145" class="colord0d5dd svgShape"></polygon></g><g fill="#f4f6f8" class="color000000 svgShape"><polygon fill="#d0d6dd" points="141.196 155.577 138.083 157.386 136.617 156.539 139.73 154.73" class="colord0d5dd svgShape"></polygon></g><g fill="#f4f6f8" class="color000000 svgShape"><polygon fill="#d0d6dd" points="146.229 156.683 143.116 158.492 140.352 156.896 143.465 155.087" class="colord0d5dd svgShape"></polygon></g><g fill="#f4f6f8" class="color000000 svgShape"><polygon fill="#d0d6dd" points="152.339 157.169 149.226 158.979 146.462 157.383 149.576 155.574" class="colord0d5dd svgShape"></polygon></g><g fill="#f4f6f8" class="color000000 svgShape"><polygon fill="#d0d6dd" points="137.012 158.009 133.904 159.815 132.438 158.968 135.545 157.162" class="colord0d5dd svgShape"></polygon></g><g fill="#f4f6f8" class="color000000 svgShape"><polygon fill="#d0d6dd" points="142.05 159.111 138.937 160.921 136.173 159.325 139.286 157.516" class="colord0d5dd svgShape"></polygon></g><g fill="#f4f6f8" class="color000000 svgShape"><polygon fill="#d0d6dd" points="155.824 159.181 152.711 160.991 149.947 159.395 153.061 157.586" class="colord0d5dd svgShape"></polygon></g><g fill="#f4f6f8" class="color000000 svgShape"><polygon fill="#d0d6dd" points="148.16 159.598 145.047 161.407 142.284 159.811 145.397 158.002" class="colord0d5dd svgShape"></polygon></g><g fill="#f4f6f8" class="color000000 svgShape"><polygon fill="#d0d6dd" points="132.833 160.438 129.719 162.247 128.252 161.4 131.366 159.591" class="colord0d5dd svgShape"></polygon></g><g fill="#f4f6f8" class="color000000 svgShape"><polygon fill="#d0d6dd" points="159.309 161.193 156.196 163.003 153.432 161.407 156.54 159.594" class="colord0d5dd svgShape"></polygon></g><g fill="#f4f6f8" class="color000000 svgShape"><polygon fill="#d0d6dd" points="137.871 161.54 134.758 163.349 131.994 161.753 135.107 159.944" class="colord0d5dd svgShape"></polygon></g><g fill="#f4f6f8" class="color000000 svgShape"><polygon fill="#d0d6dd" points="143.976 162.03 140.868 163.835 138.105 162.24 141.212 160.434" class="colord0d5dd svgShape"></polygon></g><g fill="#f4f6f8" class="color000000 svgShape"><polygon fill="#d0d6dd" points="128.654 162.866 125.541 164.675 124.08 163.832 127.187 162.019" class="colord0d5dd svgShape"></polygon></g><g fill="#f4f6f8" class="color000000 svgShape"><polygon fill="#d0d6dd" points="133.686 163.972 130.573 165.781 127.809 164.186 130.922 162.376" class="colord0d5dd svgShape"></polygon></g><g fill="#f4f6f8" class="color000000 svgShape"><polygon fill="#d0d6dd" points="139.797 164.458 136.683 166.268 133.919 164.672 137.033 162.863" class="colord0d5dd svgShape"></polygon></g><g fill="#f4f6f8" class="color000000 svgShape"><polygon fill="#d0d6dd" points="143.282 166.47 140.168 168.28 137.404 166.684 140.518 164.875" class="colord0d5dd svgShape"></polygon></g><g fill="#f4f6f8" class="color000000 svgShape"><polygon fill="#d0d6dd" points="135.618 166.887 132.505 168.696 129.741 167.1 132.854 165.291" class="colord0d5dd svgShape"></polygon></g><g fill="#f4f6f8" class="color000000 svgShape"><polygon fill="#d0d6dd" points="155.305 163.521 139.475 172.72 136.711 171.124 152.541 161.925" class="colord0d5dd svgShape"></polygon></g></g><g fill="#f4f6f8" class="color000000 svgShape"><polygon fill="#d0d6dd" points="151.645 161.61 148.532 163.419 145.769 161.823 148.882 160.014" class="colord0d5dd svgShape"></polygon></g><g fill="#f4f6f8" class="color000000 svgShape"><polygon fill="#d0d6dd" points="120.29 167.727 117.177 169.536 115.716 168.693 118.829 166.883" class="colord0d5dd svgShape"></polygon></g><g fill="#f4f6f8" class="color000000 svgShape"><polygon fill="#d0d6dd" points="123.014 164.452 124.469 165.298 121.362 167.104 119.901 166.261" class="colord0d5dd svgShape"></polygon></g><g fill="#f4f6f8" class="color000000 svgShape"><polygon fill="#d0d6dd" points="168.004 139.991 164.891 141.8 163.43 140.957 166.544 139.148" class="colord0d5dd svgShape"></polygon></g><g fill="#f4f6f8" class="color000000 svgShape"><polygon fill="#d0d6dd" points="163.825 142.42 160.712 144.229 159.251 143.386 162.365 141.576" class="colord0d5dd svgShape"></polygon></g><g fill="#f4f6f8" class="color000000 svgShape"><polygon fill="#d0d6dd" points="174.28 148.456 171.167 150.265 168.403 148.669 171.511 146.857" class="colord0d5dd svgShape"></polygon></g><g fill="#f4f6f8" class="color000000 svgShape"><polygon fill="#d0d6dd" points="181.944 148.039 174.652 152.277 171.882 150.678 179.175 146.44" class="colord0d5dd svgShape"></polygon></g><g fill="#f4f6f8" class="color000000 svgShape"><g fill="#f4f6f8" class="color000000 svgShape"><polygon fill="#d0d6dd" points="190.308 143.179 187.195 144.988 180.94 141.377 184.053 139.568" class="colord0d5dd svgShape"></polygon></g><g fill="#f4f6f8" class="color000000 svgShape"><polygon fill="#d0d6dd" points="182.638 143.599 179.525 145.408 176.755 143.809 179.868 142" class="colord0d5dd svgShape"></polygon></g><g fill="#f4f6f8" class="color000000 svgShape"><polygon fill="#d0d6dd" points="186.123 145.611 183.01 147.42 180.24 145.821 183.353 144.012" class="colord0d5dd svgShape"></polygon></g></g><g fill="#f4f6f8" class="color000000 svgShape"><polygon fill="#d0d6dd" points="179.153 141.587 176.04 143.396 173.276 141.8 176.389 139.991" class="colord0d5dd svgShape"></polygon></g><g fill="#f4f6f8" class="color000000 svgShape"><polygon fill="#d0d6dd" points="175.668 139.575 172.555 141.384 169.791 139.788 172.904 137.979" class="colord0d5dd svgShape"></polygon></g><g fill="#f4f6f8" class="color000000 svgShape"><polygon fill="#d0d6dd" points="172.183 137.563 169.07 139.372 167.609 138.529 170.722 136.719" class="colord0d5dd svgShape"></polygon></g><g fill="#f4f6f8" class="color000000 svgShape"><polygon fill="#d0d6dd" points="183.338 139.155 180.225 140.964 177.461 139.368 180.574 137.559" class="colord0d5dd svgShape"></polygon></g><g fill="#f4f6f8" class="color000000 svgShape"><polygon fill="#d0d6dd" points="179.853 137.143 176.74 138.952 173.976 137.356 177.089 135.547" class="colord0d5dd svgShape"></polygon></g><g fill="#f4f6f8" class="color000000 svgShape"><polygon fill="#d0d6dd" points="176.368 135.131 173.255 136.94 171.794 136.096 174.907 134.287" class="colord0d5dd svgShape"></polygon></g><g fill="#f4f6f8" class="color000000 svgShape"><polygon fill="#d0d6dd" points="170.795 146.444 167.682 148.253 164.918 146.657 168.032 144.848" class="colord0d5dd svgShape"></polygon></g><g fill="#f4f6f8" class="color000000 svgShape"><polygon fill="#d0d6dd" points="167.31 144.432 164.197 146.241 161.433 144.645 164.547 142.836" class="colord0d5dd svgShape"></polygon></g><g fill="#f4f6f8" class="color000000 svgShape"><polygon fill="#d0d6dd" points="178.459 146.027 175.346 147.837 172.576 146.238 175.69 144.428" class="colord0d5dd svgShape"></polygon></g><g fill="#f4f6f8" class="color000000 svgShape"><polygon fill="#d0d6dd" points="174.974 144.015 171.861 145.824 169.097 144.229 172.211 142.42" class="colord0d5dd svgShape"></polygon></g><g fill="#f4f6f8" class="color000000 svgShape"><polygon fill="#d0d6dd" points="171.489 142.003 168.376 143.813 165.612 142.217 168.726 140.408" class="colord0d5dd svgShape"></polygon></g></g><g fill="#f4f6f8" class="color000000 svgShape"><g fill="#f4f6f8" class="color000000 svgShape"><g fill="#f4f6f8" class="color000000 svgShape"><polygon fill="#938cf7" points="144.47 163.2 122.168 150.24 122.165 149.154 144.467 162.114" class="color8ca8f7 svgShape"></polygon></g><g fill="#f4f6f8" class="color000000 svgShape"><polygon fill="#b7dbff" points="144.467 162.114 122.165 149.154 153.024 131.338 175.325 144.298" class="colorb7ceff svgShape"></polygon></g><g fill="#f4f6f8" class="color000000 svgShape"><polygon fill="#5046e4" points="175.325 144.298 175.328 145.384 144.47 163.2 144.467 162.114" class="color8294ed svgShape"></polygon></g></g></g><g fill="#f4f6f8" class="color000000 svgShape"><g fill="#f4f6f8" class="color000000 svgShape"><g fill="#f4f6f8" class="color000000 svgShape"><polygon fill="#938cf7" points="144.125 160.521 123.337 148.441 123.334 147.364 144.122 159.444" class="color8ca8f7 svgShape"></polygon></g><g fill="#f4f6f8" class="color000000 svgShape"><polygon fill="#b7dbff" points="144.122 159.444 123.334 147.364 151.468 131.12 172.256 143.201" class="colorb7ceff svgShape"></polygon></g><g fill="#f4f6f8" class="color000000 svgShape"><polygon fill="#5046e4" points="172.256 143.201 172.259 144.278 144.125 160.521 144.122 159.444" class="color8294ed svgShape"></polygon></g></g></g><g fill="#f4f6f8" class="color000000 svgShape"><g fill="#f4f6f8" class="color000000 svgShape"><g fill="#f4f6f8" class="color000000 svgShape"><path fill="#5046e4" d="M166.681,143.74c-0.156-0.078-0.364-0.065-0.598,0.065l-0.117,0.065l-18.316-10.64l0.13-0.065
						c0.234-0.143,0.442-0.156,0.585-0.065L166.681,143.74z" class="color8294ed svgShape"></path></g><g fill="#f4f6f8" class="color000000 svgShape"><polygon fill="#5046e4" points="165.359 144.225 147.048 133.584 147.297 133.44 165.608 144.081" class="color8294ed svgShape"></polygon></g><g fill="#f4f6f8" class="color000000 svgShape"><polygon fill="#5046e4" points="164.762 144.57 146.451 133.929 146.699 133.785 165.01 144.426" class="color8294ed svgShape"></polygon></g><g fill="#f4f6f8" class="color000000 svgShape"><polygon fill="#5046e4" points="164.156 144.919 145.845 134.278 146.094 134.135 164.405 144.776" class="color8294ed svgShape"></polygon></g><g fill="#f4f6f8" class="color000000 svgShape"><path fill="#5046e4" d="M163.81,145.117l-0.13,0.077c-0.455,0.26-0.831,0.897-0.818,1.429l-18.316-10.639
						c0-0.533,0.377-1.169,0.831-1.429l0.117-0.078L163.81,145.117z" class="color8294ed svgShape"></path></g><g fill="#f4f6f8" class="color000000 svgShape"><polygon fill="#6822a2" points="165.608 144.081 147.297 133.44 161.337 126.081 165.564 128.537" class="color3f528c svgShape"></polygon></g><g fill="#f4f6f8" class="color000000 svgShape"><polygon fill="#6822a2" points="165.01 144.426 146.699 133.785 160.74 126.426 164.966 128.882" class="color3f528c svgShape"></polygon></g><g fill="#f4f6f8" class="color000000 svgShape"><polygon fill="#6822a2" points="164.405 144.776 146.094 134.135 160.135 126.775 164.361 129.232" class="color3f528c svgShape"></polygon></g><g fill="#f4f6f8" class="color000000 svgShape"><polygon fill="#6822a2" points="163.808 145.12 145.497 134.479 159.537 127.12 163.764 129.576" class="color3f528c svgShape"></polygon><g fill="#f4f6f8" class="color000000 svgShape"><path fill="#0c2340" d="M166.089,143.804c0.456-0.263,0.831-0.059,0.832,0.474l-4.064,2.346
							c-0.002-0.534,0.37-1.168,0.827-1.432l0.124-0.072l-0.044-15.544l-0.124,0.072c-0.456,0.263-0.831,0.05-0.832-0.474
							l4.064-2.346c0.001,0.524-0.37,1.168-0.827,1.432l-0.124,0.072l0.044,15.544L166.089,143.804z M165.01,144.426l-0.044-15.544
							l-0.249,0.144l0.044,15.544L165.01,144.426 M165.608,144.081l-0.044-15.544l-0.249,0.144l0.044,15.544L165.608,144.081
							 M164.405,144.776l-0.044-15.544l-0.249,0.144l0.044,15.544L164.405,144.776" class="color233163 svgShape"></path></g></g><g fill="#f4f6f8" class="color000000 svgShape"><path fill="#0c2340" d="M163.05,129.705l-4.226-2.456c-0.149-0.087-0.242-0.27-0.243-0.531l4.226,2.456
						C162.808,129.435,162.901,129.618,163.05,129.705z" class="color233163 svgShape"></path></g><g fill="#f4f6f8" class="color000000 svgShape"><polygon fill="#d9e0e8" points="162.807 129.174 158.581 126.718 162.645 124.372 166.871 126.828" class="colord9dfe8 svgShape"></polygon></g></g><g fill="#f4f6f8" class="color000000 svgShape"><g fill="#f4f6f8" class="color000000 svgShape"><path fill="#5046e4" d="M160.898,147.056c-0.156-0.078-0.364-0.065-0.598,0.065l-0.117,0.065l-18.316-10.64l0.13-0.065
						c0.234-0.143,0.442-0.156,0.584-0.065L160.898,147.056z" class="color8294ed svgShape"></path></g><g fill="#f4f6f8" class="color000000 svgShape"><polygon fill="#5046e4" points="159.576 147.54 141.265 136.899 141.514 136.756 159.825 147.397" class="color8294ed svgShape"></polygon></g><g fill="#f4f6f8" class="color000000 svgShape"><polygon fill="#5046e4" points="158.979 147.885 154.752 145.429 140.916 137.1 159.227 147.742" class="color8294ed svgShape"></polygon></g><g fill="#f4f6f8" class="color000000 svgShape"><polygon fill="#5046e4" points="158.373 148.235 154.147 145.779 154.396 145.635 158.622 148.091" class="color8294ed svgShape"></polygon></g><g fill="#f4f6f8" class="color000000 svgShape"><path fill="#5046e4" d="M158.027,148.433l-0.13,0.077c-0.455,0.26-0.831,0.897-0.818,1.429l-4.232-2.454
						c0-0.533,0.377-1.169,0.831-1.429l0.117-0.078L158.027,148.433z" class="color8294ed svgShape"></path></g><g fill="#f4f6f8" class="color000000 svgShape"><polygon fill="#6822a2" points="159.825 147.397 141.514 136.756 141.469 121.212 159.781 131.853" class="color3f528c svgShape"></polygon></g><g fill="#f4f6f8" class="color000000 svgShape"><polygon fill="#6822a2" points="159.227 147.742 140.916 137.1 154.957 129.741 159.183 132.197" class="color3f528c svgShape"></polygon></g><g fill="#f4f6f8" class="color000000 svgShape"><polygon fill="#6822a2" points="158.622 148.091 154.396 145.635 154.352 130.091 158.578 132.547" class="color3f528c svgShape"></polygon></g><g fill="#f4f6f8" class="color000000 svgShape"><polygon fill="#6822a2" points="158.025 148.436 153.798 145.98 153.754 130.436 157.981 132.892" class="color3f528c svgShape"></polygon></g><g fill="#f4f6f8" class="color000000 svgShape"><path fill="#0c2340" d="M157.267,133.02l-4.226-2.456c-0.149-0.087-0.242-0.27-0.242-0.531l4.226,2.456
						C157.025,132.75,157.118,132.934,157.267,133.02z" class="color233163 svgShape"></path></g><g fill="#f4f6f8" class="color000000 svgShape"><polygon fill="#d9e0e8" points="157.024 132.49 152.798 130.033 156.862 127.687 161.088 130.143" class="colord9dfe8 svgShape"></polygon></g><g fill="#f4f6f8" class="color000000 svgShape"><path fill="#0c2340" d="M160.306,147.119c0.456-0.263,0.831-0.059,0.832,0.474l-4.064,2.346
						c-0.002-0.534,0.371-1.169,0.827-1.432l0.124-0.072l-0.044-15.544l-0.124,0.072c-0.456,0.263-0.831,0.05-0.832-0.474
						l4.064-2.346c0.002,0.524-0.37,1.168-0.827,1.432l-0.124,0.072l0.044,15.544L160.306,147.119z M159.227,147.742l-0.044-15.544
						l-0.249,0.144l0.044,15.544L159.227,147.742 M159.825,147.397l-0.044-15.544l-0.249,0.144l0.044,15.544L159.825,147.397
						 M158.622,148.091l-0.044-15.544l-0.249,0.144l0.044,15.544L158.622,148.091" class="color233163 svgShape"></path></g></g><g fill="#f4f6f8" class="color000000 svgShape"><g fill="#f4f6f8" class="color000000 svgShape"><path fill="#5046e4" d="M155.115,150.371c-0.156-0.078-0.364-0.065-0.598,0.065l-0.117,0.065l-4.232-2.454l0.13-0.065
						c0.234-0.143,0.442-0.156,0.585-0.065L155.115,150.371z" class="color8294ed svgShape"></path></g><g fill="#f4f6f8" class="color000000 svgShape"><polygon fill="#5046e4" points="153.793 150.856 149.566 148.4 149.815 148.256 154.042 150.712" class="color8294ed svgShape"></polygon></g><g fill="#f4f6f8" class="color000000 svgShape"><polygon fill="#5046e4" points="153.196 151.201 148.969 148.745 149.218 148.601 153.444 151.057" class="color8294ed svgShape"></polygon></g><g fill="#f4f6f8" class="color000000 svgShape"><polygon fill="#5046e4" points="152.59 151.55 148.364 149.094 148.613 148.951 152.839 151.407" class="color8294ed svgShape"></polygon></g><g fill="#f4f6f8" class="color000000 svgShape"><path fill="#5046e4" d="M152.244,151.748l-0.13,0.077c-0.455,0.26-0.831,0.897-0.818,1.429l-19.005-11.039
						c0-0.533,15.15,7.416,15.604,7.156l0.117-0.078L152.244,151.748z" class="color8294ed svgShape"></path></g><g fill="#f4f6f8" class="color000000 svgShape"><polygon fill="#6822a2" points="154.042 150.712 149.815 148.256 149.771 132.712 153.998 135.168" class="color3f528c svgShape"></polygon></g><g fill="#f4f6f8" class="color000000 svgShape"><polygon fill="#6822a2" points="153.444 151.057 149.218 148.601 149.174 133.057 153.4 135.513" class="color3f528c svgShape"></polygon></g><g fill="#f4f6f8" class="color000000 svgShape"><polygon fill="#6822a2" points="152.839 151.407 148.613 148.951 148.569 133.406 152.795 135.863" class="color3f528c svgShape"></polygon></g><g fill="#f4f6f8" class="color000000 svgShape"><polygon fill="#6822a2" points="152.242 151.751 148.015 149.295 147.971 133.751 152.198 136.207" class="color3f528c svgShape"></polygon><g fill="#f4f6f8" class="color000000 svgShape"><path fill="#0c2340" d="M154.523,150.435c0.456-0.263,0.831-0.06,0.832,0.474l-4.064,2.346
							c-0.001-0.534,0.371-1.168,0.827-1.432l0.124-0.072l-0.044-15.544l-0.124,0.072c-0.456,0.263-0.831,0.05-0.832-0.474
							l4.064-2.346c0.001,0.524-0.37,1.168-0.827,1.432l-0.124,0.072l0.044,15.544L154.523,150.435z M153.444,151.057l-0.044-15.544
							l-0.249,0.144l0.044,15.544L153.444,151.057 M154.042,150.712l-0.044-15.544l-0.249,0.144l0.044,15.544L154.042,150.712
							 M152.839,151.407l-0.044-15.544l-0.249,0.144l0.044,15.544L152.839,151.407" class="color233163 svgShape"></path></g></g><g fill="#f4f6f8" class="color000000 svgShape"><path fill="#0c2340" d="M151.484,136.336l-4.226-2.456c-0.149-0.087-15.015-8.855-15.016-9.116l18.999,11.041
						C151.242,136.065,151.335,136.249,151.484,136.336z" class="color233163 svgShape"></path></g><g fill="#f4f6f8" class="color000000 svgShape"><polygon fill="#d9e0e8" points="151.241 135.805 132.242 124.764 151.079 131.003 155.305 133.459" class="colord9dfe8 svgShape"></polygon></g></g><g fill="#f4f6f8" class="color000000 svgShape"><g fill="#f4f6f8" class="color000000 svgShape"><path fill="#5046e4" d="M149.332,153.687c-0.156-0.078-0.364-0.065-0.598,0.065l-0.117,0.065l-19.005-11.04l0.13-0.065
						c0.234-0.143,0.442-0.156,0.585-0.065L149.332,153.687z" class="color8294ed svgShape"></path></g><g fill="#f4f6f8" class="color000000 svgShape"><polygon fill="#5046e4" points="148.01 154.171 129.01 143.13 129.259 142.986 148.259 154.028" class="color8294ed svgShape"></polygon></g><g fill="#f4f6f8" class="color000000 svgShape"><polygon fill="#5046e4" points="147.413 154.516 128.413 143.475 128.662 143.331 147.661 154.372" class="color8294ed svgShape"></polygon></g><g fill="#f4f6f8" class="color000000 svgShape"><polygon fill="#5046e4" points="146.807 154.866 127.808 143.824 128.057 143.681 147.056 154.722" class="color8294ed svgShape"></polygon></g><g fill="#f4f6f8" class="color000000 svgShape"><path fill="#5046e4" d="M146.461,155.064l-0.13,0.077c-0.455,0.26-0.831,0.897-0.818,1.429l-19.005-11.039
						c0-0.533,0.377-1.169,0.831-1.429l0.117-0.078L146.461,155.064z" class="color8294ed svgShape"></path></g><g fill="#f4f6f8" class="color000000 svgShape"><polygon fill="#6822a2" points="148.259 154.028 129.259 142.986 129.215 127.442 148.215 138.484" class="color3f528c svgShape"></polygon></g><g fill="#f4f6f8" class="color000000 svgShape"><polygon fill="#6822a2" points="147.661 154.372 128.662 143.331 128.618 127.787 147.617 138.828" class="color3f528c svgShape"></polygon></g><g fill="#f4f6f8" class="color000000 svgShape"><polygon fill="#6822a2" points="147.056 154.722 128.057 143.681 128.013 128.137 147.012 139.178" class="color3f528c svgShape"></polygon></g><g fill="#f4f6f8" class="color000000 svgShape"><polygon fill="#6822a2" points="146.459 155.067 127.459 144.026 127.415 128.482 146.415 139.523" class="color3f528c svgShape"></polygon></g><g fill="#f4f6f8" class="color000000 svgShape"><path fill="#0c2340" d="M145.701,139.651l-18.999-11.041c-0.149-0.087-0.242-0.27-0.243-0.531l18.999,11.041
						C145.459,139.381,145.552,139.564,145.701,139.651z" class="color233163 svgShape"></path></g><g fill="#f4f6f8" class="color000000 svgShape"><polygon fill="#d9e0e8" points="145.458 139.12 126.459 128.079 130.523 125.733 149.522 136.774" class="colord9dfe8 svgShape"></polygon></g><g fill="#f4f6f8" class="color000000 svgShape"><path fill="#0c2340" d="M148.74,153.75c0.456-0.263,0.83-0.059,0.832,0.474l-4.064,2.346
						c-0.001-0.534,0.371-1.169,0.827-1.432l0.124-0.072l-0.044-15.544l-0.124,0.072c-0.456,0.263-0.831,0.05-0.832-0.474
						l4.064-2.346c0.001,0.524-0.37,1.168-0.827,1.432l-0.124,0.072l0.044,15.544L148.74,153.75z M147.661,154.372l-0.044-15.544
						l-0.249,0.144l0.044,15.544L147.661,154.372 M148.259,154.028l-0.044-15.544l-0.249,0.144l0.044,15.544L148.259,154.028
						 M147.056,154.722l-0.044-15.544l-0.249,0.144l0.044,15.544L147.056,154.722" class="color233163 svgShape"></path></g></g></g><polygon fill="#0c2340" points="144.31 139.923 170.517 124.796 157.38 121.81" class="color233163 svgShape"></polygon><polygon fill="#6822a2" points="157.393 123.377 166.961 125.556 147.86 136.584" class="color3f528c svgShape"></polygon><path fill="#b7dbff" d="M158.525,127.112c0.136,0.107,0.203,0.305,0.204,0.595c0.001,0.324-0.083,0.645-0.252,0.966
			c-0.171,0.32-0.407,0.592-0.71,0.818l0.001,0.294l-0.338,0.195l-0.001-0.281c-0.269,0.117-0.488,0.129-0.658,0.033
			c-0.169-0.096-0.277-0.307-0.324-0.633l0.609-0.426c0.025,0.129,0.072,0.225,0.141,0.289c0.068,0.065,0.145,0.096,0.229,0.094
			l-0.003-1.124c-0.305,0.076-0.53,0.053-0.672-0.067c-0.143-0.12-0.215-0.326-0.216-0.616c-0.001-0.293,0.079-0.586,0.239-0.879
			c0.16-0.292,0.374-0.531,0.642-0.715l-0.001-0.267l0.338-0.195l0.001,0.267c0.248-0.11,0.445-0.126,0.592-0.051
			c0.147,0.075,0.24,0.236,0.282,0.481l-0.59,0.429c-0.037-0.19-0.131-0.279-0.282-0.267l0.003,1.048
			C158.133,127.001,158.389,127.006,158.525,127.112z M158.049,128.548c0.073-0.142,0.11-0.279,0.109-0.414
			c0-0.12-0.032-0.205-0.094-0.256c-0.061-0.051-0.162-0.061-0.303-0.026l0.003,1.046
			C157.881,128.806,157.976,128.689,158.049,128.548 M157.421,127.168l-0.003-0.929c-0.092,0.089-0.165,0.192-0.219,0.309
			c-0.054,0.118-0.081,0.228-0.081,0.331c0,0.095,0.025,0.168,0.075,0.221C157.244,127.154,157.32,127.175,157.421,127.168" class="colorb7ceff svgShape"></path><polygon fill="#83baf2" points="157.391 119.751 138.391 108.709 152.839 111.995 171.838 123.036" class="colorf283b5 svgShape"></polygon><polygon fill="#e576d1" points="142.99 141.753 123.99 130.712 123.985 128.654 142.984 139.695" class="colore576ad svgShape"></polygon><polygon fill="#a50b89" points="157.391 119.751 171.838 123.036 171.844 125.094 157.397 121.8 142.99 141.753 142.984 139.695" class="colord363a1 svgShape"></polygon><polygon fill="#93c8fd" points="142.984 139.695 123.985 128.654 138.391 108.709 157.391 119.751" class="colorfd93bf svgShape"></polygon><g fill="#f4f6f8" class="color000000 svgShape"><path fill="#5046e4" d="M202.625,103.412c0.738,0.426,1.428,1.159,1.944,2.052c0.122,0.212,0.122,0.451-0.002,0.528
				c-0.064,0.034-0.147,0.022-0.229-0.025c-0.083-0.048-0.165-0.131-0.23-0.24c-0.396-0.687-0.941-1.23-1.486-1.545
				c-0.545-0.315-1.091-0.401-1.49-0.173c-0.065,0.031-0.149,0.02-0.227-0.025c-0.084-0.048-0.167-0.134-0.232-0.24
				c-0.122-0.218-0.122-0.458,0.001-0.528C201.201,102.924,201.886,102.985,202.625,103.412z" class="color8294ed svgShape"></path></g><g fill="#f4f6f8" class="color000000 svgShape"><path fill="#5046e4" d="M202.629,101.406c1.035,0.598,2.07,1.649,2.857,3.011c0.129,0.224,0.129,0.455-0.002,0.529
				c-0.062,0.035-0.144,0.023-0.227-0.025c-0.083-0.048-0.165-0.131-0.227-0.237c-0.661-1.145-1.532-2.029-2.403-2.532
				c-0.871-0.503-1.742-0.624-2.405-0.243c-0.064,0.038-0.149,0.024-0.233-0.024c-0.084-0.048-0.162-0.129-0.227-0.241
				c-0.128-0.223-0.127-0.454,0.001-0.529C200.557,100.664,201.594,100.808,202.629,101.406z" class="color8294ed svgShape"></path></g><g fill="#f4f6f8" class="color000000 svgShape"><path fill="#b7dbff" d="M203.073,103.152c-0.739-0.427-1.425-0.488-1.951-0.196l-0.447,0.26
				c0.526-0.292,1.212-0.23,1.951,0.196c0.738,0.426,1.428,1.159,1.944,2.052c0.122,0.212,0.122,0.451-0.002,0.528l0.447-0.26
				c0.123-0.076,0.124-0.316,0.001-0.528C204.501,104.311,203.81,103.578,203.073,103.152z" class="colorb7ceff svgShape"></path><path fill="#b7dbff" d="M203.077,101.146c-1.035-0.598-2.072-0.742-2.864-0.292l-0.447,0.26
				c0.792-0.451,1.829-0.306,2.864,0.292c1.035,0.598,2.07,1.649,2.857,3.011c0.129,0.224,0.129,0.455-0.002,0.529l0.447-0.26
				c0.13-0.074,0.131-0.306,0.001-0.529C205.146,102.795,204.112,101.744,203.077,101.146z" class="colorb7ceff svgShape"></path><path fill="#b7dbff" d="M206.856,103.121c-1.039-1.799-2.405-3.187-3.774-3.977c-1.368-0.79-2.738-0.982-3.784-0.387
				l-0.447,0.26c1.046-0.595,2.416-0.403,3.784,0.387c1.368,0.79,2.735,2.178,3.774,3.977c0.122,0.212,0.122,0.45-0.001,0.52
				l0.447-0.26C206.977,103.571,206.978,103.333,206.856,103.121z" class="colorb7ceff svgShape"></path></g><g fill="#f4f6f8" class="color000000 svgShape"><path fill="#5046e4" d="M202.634,99.404c1.368,0.79,2.735,2.178,3.774,3.977c0.122,0.212,0.122,0.45-0.001,0.52
				c-0.065,0.037-0.149,0.026-0.233-0.022c-0.083-0.048-0.165-0.133-0.227-0.243c-0.913-1.576-2.113-2.794-3.315-3.488
				c-1.202-0.694-2.405-0.864-3.324-0.345c-0.065,0.037-0.142,0.03-0.226-0.018c-0.085-0.049-0.169-0.135-0.233-0.247
				c-0.123-0.212-0.122-0.45,0.001-0.52C199.896,98.423,201.266,98.614,202.634,99.404z" class="color8294ed svgShape"></path></g><path fill="#0c2340" d="M214.035,112.932l-22.289-12.871c-0.194-0.111-0.373-0.123-0.499-0.048l-1.118,0.646
			c0.127-0.071,0.305-0.063,0.5,0.051l22.289,12.867c0.388,0.226,0.702,0.765,0.698,1.209l-0.044,15.019
			c0,0.222-0.075,0.377-0.202,0.452l1.118-0.65c0.127-0.075,0.202-0.23,0.202-0.452l0.044-15.019
			C214.733,113.693,214.424,113.154,214.035,112.932z" class="color233163 svgShape"></path><g fill="#f4f6f8" class="color000000 svgShape"><path fill="#6822a2" d="M212.917,113.58c0.387,0.224,0.7,0.762,0.699,1.207l-0.043,15.021
				c-0.001,0.445-0.316,0.624-0.703,0.401l-22.289-12.869c-0.387-0.223-0.7-0.765-0.699-1.21l0.043-15.021
				c0.001-0.445,0.316-0.622,0.703-0.398L212.917,113.58z" class="color3f528c svgShape"></path></g><path fill="#2d4c74" d="M207.872,110.666c0.364,0.373,0.723,0.761,1.072,1.166c1.688,1.962,2.927,4.026,3.704,5.987
			c-0.145,0.013-0.261,0.062-0.302,0.149c-0.025,0.061-0.094,0.088-0.142,0.131l-0.061-0.047c-0.083-0.292-0.072-0.583-0.418-0.885
			c-0.105,0.085-0.178,0.113-0.264,0.064c-0.081-0.047-0.174-0.164-0.319-0.368c-0.098-0.141-0.258-0.274-0.399-0.385
			c-0.041-0.03-0.081-0.055-0.122-0.079c-0.033-0.019-0.067-0.037-0.101-0.056c-0.034-0.018-0.068-0.036-0.102-0.055
			c-0.025-0.014-0.049-0.029-0.073-0.045c-0.245-0.159-0.291-0.261-0.202-0.413c0.018-0.031,0.023-0.083,0.005-0.134
			c-0.008-0.02-0.053-0.053-0.093-0.076c-0.297-0.12-0.557-0.221-0.816-0.309c-0.043-0.016-0.076,0.017-0.147,0.04
			c-0.061-0.064-0.238-0.207-0.243-0.259c-0.007-0.124,0.066-0.209,0.113-0.323c0.086,0.099,0.126,0.143,0.164,0.191
			c0.066,0.077,0.132,0.14,0.197,0.178c0.061,0.035,0.122,0.048,0.182,0.029c0.122-0.035,0.006-0.177-0.03-0.291
			c-0.11-0.373-0.419-0.772-0.476-1.134c-0.01-0.055-0.083-0.147-0.141-0.207c-0.177-0.184-0.361-0.363-0.541-0.545
			c-0.149-0.15-0.297-0.296-0.447-0.382c-0.111-0.064-0.224-0.096-0.34-0.072c-0.061,0.014-0.17-0.049-0.256-0.069
			c-0.084-0.019-0.165-0.031-0.246-0.043c-0.084-0.01-0.157,0.014-0.243-0.021c-0.256-0.11-0.511-0.246-0.767-0.361
			c-0.094-0.042-0.205-0.095-0.271-0.084c-0.152,0.029-0.289,0.08-0.414,0.151c-0.043,0.025-0.056,0.125-0.026,0.192
			c0.025,0.055,0.147,0.114,0.225,0.174c0.094,0.071,0.253,0.163,0.266,0.211c0.05,0.186,0.06,0.364,0.08,0.541
			c0.007,0.065-0.013,0.158,0.017,0.188c0.04,0.04,0.096,0.083,0.146,0.112c0.038,0.022,0.074,0.036,0.097,0.035
			c0.14-0.016,0.279-0.049,0.378-0.12c0.17-0.126,0.401-0.136,0.674-0.068c0.175,0.043,0.365,0.117,0.55,0.189
			c0.097,0.052,0.15,0.094,0.202,0.129c-0.023,0.054-0.026,0.145-0.079,0.15c-0.091,0.011-0.213-0.03-0.324-0.056
			c-0.291-0.072-0.444,0.026-0.399,0.198c0.266,0.267,0.495,0.499,0.728,0.729c-0.082,0.111-0.231,0.11-0.385,0.021
			c-0.062-0.036-0.124-0.085-0.183-0.148c-0.032-0.034-0.085-0.081-0.12-0.101c-0.217,0.018-0.44-0.137-0.658-0.237
			c-0.04-0.018-0.081-0.039-0.121-0.062c-0.443-0.256-0.88-0.82-0.91-1.226c-0.005-0.076-0.01-0.151-0.015-0.227
			c-0.132,0.035-0.221,0.094-0.305,0.159c-0.057,0.042-0.118,0.047-0.185,0.008c-0.05-0.029-0.104-0.082-0.162-0.162
			c-0.072-0.099-0.145-0.177-0.235-0.229c-0.033-0.019-0.068-0.035-0.107-0.047c-0.241-0.075-0.486-0.161-0.732-0.262
			c-0.018-0.007-0.037-0.017-0.056-0.028c-0.072-0.042-0.151-0.107-0.215-0.169c-0.043-0.043-0.084-0.076-0.121-0.098
			c-0.084-0.048-0.143-0.035-0.127,0.065c0.022,0.153-0.039,0.202-0.122,0.256c-0.124,0.074-0.194,0.099-0.297,0.039
			c-0.068-0.039-0.151-0.116-0.273-0.24c-0.061-0.061-0.124-0.127-0.179-0.197c-0.059-0.073-0.109-0.123-0.151-0.147
			c-0.06-0.035-0.102-0.014-0.128,0.074c-0.013,0.048-0.076,0.058-0.122,0.078c-0.099,0.042-0.203,0.081-0.294,0.118
			c0.068,0.15,0.121,0.268,0.186,0.413c0.182,0.105,0.311,0.265,0.331,0.471c0.053,0.013,0.101,0.035,0.114,0.025
			c0.109-0.112,0.302-0.056,0.499,0.006c0.213,0.062,0.421,0.112,0.633,0.179c0.074,0.04,0.13,0.092,0.169,0.136
			c0.212,0.236,0.402,0.532,0.538,0.811c0.025,0.052,0.071,0.105,0.088,0.153c0.035,0.102,0.093,0.226,0.083,0.301
			c-0.016,0.134-0.077,0.241-0.125,0.373c0.023,0.024,0.045,0.041,0.066,0.053c0.087,0.05,0.164,0.021,0.238-0.012
			c0.096-0.04,0.163-0.104,0.082-0.285c-0.098-0.22-0.143-0.418-0.006-0.519c0.053,0.083,0.113,0.194,0.088,0.217
			c-0.13,0.117-0.021,0.299,0.141,0.5c0.142,0.178,0.161,0.297,0.098,0.412c-0.074,0.129-0.115,0.292-0.176,0.446
			c0.035,0.023,0.067,0.043,0.098,0.061c0.16,0.092,0.273,0.115,0.35,0.023c0.028-0.033,0.117-0.008,0.177-0.008
			c0.035,0.076,0.101,0.169,0.098,0.22c0,0.087-0.033,0.161-0.074,0.216c-0.076,0.107-0.067,0.241,0.09,0.425
			c0.144,0.171,0.296,0.331,0.45,0.493c0.172,0.178,0.202,0.291,0.067,0.336c-0.109,0.033-0.233,0.043-0.358,0.053
			c-0.07,0.007-0.14-0.012-0.213-0.054c-0.07-0.04-0.142-0.102-0.218-0.18c-0.359-0.371-0.652-0.758-0.871-1.191
			c-0.09-0.176-0.148-0.268-0.211-0.305c-0.06-0.035-0.126-0.02-0.231,0.02c-0.04,0.015-0.074,0.012-0.104-0.005
			c-0.041-0.023-0.071-0.074-0.096-0.142c-0.03-0.087-0.03-0.166-0.07-0.253c-0.108-0.24-0.209-0.488-0.353-0.728
			c-0.116-0.198-0.128-0.249,0.031-0.25c0.104-0.001,0.195-0.024,0.327-0.044c-0.354-0.373-0.657-0.694-0.963-1.013
			c-0.033-0.036-0.083-0.057-0.121-0.087c-0.172-0.14-0.352-0.273-0.511-0.429c-0.097-0.094-0.18-0.163-0.256-0.207
			c-0.116-0.067-0.217-0.076-0.334-0.032c-0.09-0.132-0.182-0.237-0.273-0.289c-0.084-0.049-0.167-0.053-0.248,0.006
			c-0.015,0.009-0.048-0.004-0.076-0.012c-0.17-0.051-0.362-0.151-0.454-0.029c-0.008,0.011-0.053,0-0.086-0.02
			c-0.059-0.049-0.09-0.072-0.12-0.089c-0.108-0.062-0.193-0.048-0.29-0.058c-0.106-0.012-0.233-0.07-0.347-0.101
			c-0.086-0.021-0.233-0.082-0.246-0.046c-0.072,0.25-0.34,0.249-0.541,0.334c-0.201,0.088-0.297,0.257-0.232,0.565
			c0.015,0.078,0.032,0.17,0.007,0.22c-0.133,0.27,0.067,0.656,0.253,1.032c0.222,0.443,0.601,0.746,0.978,1.054
			c0.159,0.127,0.367,0.287,0.364,0.461c-0.003,0.135,0.081,0.218,0.169,0.336c0.05,0.067,0.113,0.203,0.093,0.226
			c-0.079,0.074-0.165,0.173-0.292,0.155c-0.218-0.033-0.244,0.084-0.277,0.248c-0.049,0.248,0.003,0.573-0.218,0.702
			c-0.259,0.148-0.518,0.304-0.719,0.517c-0.216,0.225-0.359,0.527-0.545,0.787c-0.115,0.158-0.133,0.378-0.166,0.597
			c-0.036,0.215-0.168,0.366-0.258,0.539c0.121,0.117,0.215,0.2,0.298,0.289c0.23,0.244,0.455,0.43,0.675,0.557
			c0.296,0.171,0.582,0.235,0.854,0.192c0.091-0.011,0.203,0.006,0.299,0.001c0.21-0.012,0.476,0.033,0.611-0.069
			c0.176-0.135,0.368-0.121,0.661,0.048c0.021,0.012,0.042,0.025,0.064,0.038c0.424,0.245,0.827,0.194,0.956-0.057
			c0.079-0.155,0.168-0.305,0.267-0.44c0.162-0.217,0.372-0.22,0.724-0.017c0.035,0.02,0.07,0.042,0.108,0.066
			c0.041,0.026,0.081,0.051,0.121,0.074c0.344,0.199,0.658,0.281,0.955,0.288c0.152,0,0.317,0.031,0.471,0.036
			c0.071,0,0.129-0.027,0.193-0.04c-0.066-0.085-0.124-0.176-0.197-0.248c-0.276-0.264-0.561-0.583-0.535-0.836
			c0.029-0.248,0.027-0.518,0.073-0.753c0.049-0.251,0.181-0.446,0.273-0.67c0.061-0.154,0.112-0.316,0.181-0.463
			c0.018-0.036,0.084-0.036,0.129-0.05c0.043,0.066,0.119,0.147,0.129,0.203c0.015,0.087,0.007,0.176-0.024,0.234
			c-0.041,0.073-0.127,0.107-0.168,0.18c-0.028,0.051-0.016,0.137-0.016,0.212c0.002,0.1,0.025,0.212,0.009,0.3
			c-0.039,0.214-0.092,0.416-0.141,0.62c-0.015,0.058-0.018,0.129-0.051,0.166c-0.086,0.101-0.059,0.237,0.027,0.356
			c0.202,0.134,0.352,0.229,0.499,0.334c0.217,0.161,0.435,0.336,0.655,0.498c0.059,0.042,0.116,0.081,0.171,0.112
			c0.187,0.108,0.348,0.141,0.45,0.013c0.023-0.028,0.091-0.026,0.147-0.003c0.195,0.08,0.248-0.002,0.234-0.162
			c-0.01-0.108-0.037-0.223-0.057-0.339c-0.111-0.036-0.204-0.076-0.279-0.119c-0.162-0.093-0.239-0.207-0.237-0.357
			c0.003-0.252,0.085-0.458,0.134-0.683c0.028,0.007,0.056,0.018,0.084,0.025c0.065,0.125,0.197,0.291,0.186,0.364
			c-0.041,0.261,0.095,0.527,0.327,0.821c0.053,0.066,0.134,0.182,0.121,0.207c-0.066,0.119,0.075,0.25,0.169,0.368
			c0.162,0.21,0.341,0.41,0.5,0.618c0.048,0.065,0.088,0.176,0.078,0.226c-0.062,0.244-0.181,0.455,0.043,0.849
			c0.02,0.038,0.012,0.08,0.012,0.115c-0.004,0.411-0.195,0.665-0.423,0.883c-0.145,0.144-0.133,0.25,0.148,0.47
			c0.02,0.016,0.042,0.03,0.065,0.043c0.094,0.054,0.203,0.085,0.274,0.08c0.117-0.006,0.198-0.078,0.287-0.129
			c0.111-0.065,0.208-0.155,0.406-0.041c0.034,0.02,0.07,0.045,0.111,0.078c0.06,0.036,0.113,0.04,0.16,0.054
			c0.17,0.06,0.339,0.117,0.509,0.174c0.051,0.018,0.127,0.056,0.152,0.038c0.052-0.037,0.103-0.034,0.156-0.004
			c0.054,0.031,0.11,0.091,0.171,0.169c0.053,0.066,0.126,0.123,0.192,0.184c0.202,0.19,0.235,0.27,0.111,0.349
			c-0.193,0.127-0.262,0.332-0.121,0.687c0.018,0.045,0.015,0.096,0.002,0.126c-0.079,0.158-0.145,0.33-0.257,0.455
			c-0.102,0.113-0.251,0.175-0.176,0.437c0.015,0.047-0.028,0.089-0.061,0.113c-0.076,0.067-0.109,0.129-0.102,0.221
			c-0.647,0.102-1.351,0.091-2.089-0.012l-9.587-5.535c-0.369-0.376-0.733-0.764-1.084-1.174c-2.095-2.436-3.514-5.032-4.192-7.39
			c0.013-0.019,0.02-0.043,0.013-0.089c-0.015-0.099,0.016-0.174,0.024-0.263l0.071,0.044l0.038,0.072
			c0.091,0.167,0.163,0.263,0.255,0.316c0.066,0.038,0.143,0.054,0.243,0.059c0.048,0.002,0.109,0.019,0.165,0.051
			c0.318,0.184,0.524,0.184,0.672,0.05c0.025-0.023,0.086-0.038,0.124-0.016c0.09,0.053,0.15,0.076,0.208,0.097
			c0.06,0.022,0.12,0.044,0.181,0.079c0.055,0.032,0.111,0.075,0.166,0.138c0.064,0.044,0.104,0.056,0.137,0.07
			c0.238,0.117,0.36,0.021,0.515-0.02c0.119-0.033,0.223-0.106,0.407,0c0.032,0.019,0.067,0.043,0.105,0.074
			c0.054,0.032,0.116,0.024,0.165,0.028c0.089,0.002,0.17-0.01,0.261-0.001c0.185,0.022,0.302-0.079,0.257-0.263
			c-0.08-0.34-0.148-0.679-0.357-1.054c-0.038-0.068-0.088-0.144-0.146-0.201c-0.273-0.263-0.338-0.458-0.199-0.619
			c0.107-0.116-0.019-0.457-0.236-0.632c-0.157-0.128-0.182-0.213-0.133-0.316c0.117-0.241-0.039-0.637-0.342-0.963
			c-0.088-0.095-0.151-0.233-0.192-0.344c-0.055-0.155-0.167-0.308-0.31-0.391c-0.206-0.102-0.373-0.184-0.537-0.247
			c-0.058-0.025-0.147-0.027-0.152,0.008c-0.031,0.238-0.246,0.175-0.469,0.14c-0.532-0.077-0.689-0.115-0.67,0.405
			c0.005,0.102-0.061,0.18-0.127,0.229c-0.178,0.136-0.196,0.431-0.028,0.765c0.098,0.191,0.098,0.351-0.014,0.417
			c-0.168,0.096-0.335,0.194-0.503,0.289c-0.168-1.719,0.159-3.203,0.996-4.272c0.04,0.046,0.081,0.102,0.088,0.138
			c0.032,0.173,0.08,0.346,0.199,0.54c0.033,0.054,0.045,0.122,0.04,0.169c-0.024,0.263,0.107,0.575,0.261,0.893
			c0.101,0.064,0.205,0.13,0.349,0.225c-0.114-0.133-0.19-0.211-0.255-0.299c-0.227-0.309-0.225-0.31-0.067-0.464
			c0.056-0.055,0.109-0.118,0.148-0.192c0.036-0.07,0.033-0.152-0.111-0.268c-0.04-0.032-0.098-0.167-0.081-0.18
			c0.064-0.057,0.14-0.112,0.241-0.114c0.205-0.004,0.215-0.021,0.031-0.264c-0.149-0.06-0.281-0.098-0.415-0.164
			c-0.128-0.073-0.206-0.155-0.253-0.239c0.193-0.215,0.402-0.415,0.64-0.586c0.028-0.019,0.058-0.03,0.084-0.048
			c0.03,0.011,0.06,0.026,0.09,0.043c0.147,0.085,0.287,0.238,0.35,0.412c0.025,0.071,0.055,0.133,0.102,0.16
			c0.023,0.014,0.051,0.019,0.085,0.012c0.037-0.008,0.067-0.002,0.094,0.013c0.043,0.025,0.076,0.077,0.111,0.143
			c0.03,0.061,0.086,0.122,0.106,0.178c0.028,0.074,0.065,0.18,0.037,0.208c-0.124,0.112-0.003,0.348,0.016,0.537
			c0.043-0.001,0.071-0.017,0.091-0.037c0.092-0.09,0.163-0.203,0.277-0.265c0.076-0.038,0.208-0.046,0.322,0.011
			c0.319,0.158,0.58,0.198,0.793,0.117c0.105-0.042,0.22-0.026,0.343,0.045c0.076,0.044,0.155,0.108,0.237,0.194
			c0.039,0.04,0.071,0.068,0.1,0.084c0.053,0.031,0.091,0.021,0.121-0.018c0.048-0.065,0.11-0.069,0.187-0.025
			c0.046,0.027,0.097,0.071,0.153,0.131c0.046,0.047,0.091,0.096,0.137,0.143c0.03,0.032,0.057,0.055,0.081,0.069
			c0.039,0.023,0.072,0.021,0.104-0.009c0.136-0.134,0.348-0.095,0.606,0.054c0.021,0.012,0.043,0.025,0.065,0.039
			c0.235,0.148,0.471,0.292,0.706,0.44c0.063,0.04,0.124,0.086,0.185,0.13c-0.229-0.593-0.243-1-0.072-1.315l-0.048-0.074
			c-0.137-0.026-0.274-0.053-0.41-0.08c-0.013-0.036-0.028-0.077-0.043-0.115c0.081-0.038,0.16-0.077,0.236-0.111
			c-0.058-0.156-0.144-0.327-0.169-0.473c-0.033-0.188-0.151-0.338-0.305-0.494c-0.031-0.032-0.058-0.056-0.083-0.069
			c-0.042-0.024-0.074-0.019-0.105,0.022c-0.048,0.071-0.14,0.103-0.213,0.154c-0.038,0.025-0.086,0.046-0.107,0.09
			c-0.041,0.102-0.147,0.084-0.277,0.044c-0.063-0.019-0.127-0.018-0.172-0.003c-0.117,0.04-0.223,0.098-0.348,0.155
			c-0.081-0.204-0.202-0.39-0.07-0.463c0.127-0.069,0.119-0.094-0.045-0.297c-0.061-0.073-0.144-0.208-0.129-0.24
			c0.043-0.103-0.025-0.189-0.126-0.3l-0.053-0.063c0.35,0.001,0.715,0.037,1.085,0.087l4.244,2.45c0,0.02-0.005,0.044-0.025,0.061
			c-0.12,0.123-0.234,0.252-0.348,0.381l-0.028,0.054c-0.077,0.253-0.308,0.347-0.506,0.46c-0.241,0.134-0.353,0.335-0.24,0.755
			c0.074-0.013,0.132-0.02,0.188-0.028c0.241-0.053,0.477-0.118,0.811,0.02c0.143,0.06,0.278,0.033,0.425,0.118
			c0.062,0.036,0.125,0.091,0.192,0.18c0.061,0.044,0.093,0.056,0.119,0.069c0.205,0.104,0.294,0.013,0.418-0.029
			c0.145-0.054,0.302-0.1,0.482-0.086c0.086,0.006,0.167,0.032,0.205-0.036c0.071-0.128,0.274-0.11,0.32-0.267
			c0.205-0.007,0.302-0.082,0.313-0.251c0.048,0.013,0.091,0.018,0.132,0.018L207.872,110.666z" class="color2d3a74 svgShape"></path><g fill="#f4f6f8" class="color000000 svgShape"><path fill="#d7e7f7" d="M197.783,110.356l-0.002,0.686c-0.001,0.393-0.278,0.55-0.62,0.353l-2.014-1.163l0.004-1.396
				L197.783,110.356z" class="colorf7d7e1 svgShape"></path></g><g fill="#f4f6f8" class="color000000 svgShape"><polygon fill="#d7e7f7" points="196.608 108.006 196.604 109.402 195.151 108.563 195.155 107.167" class="colorf7d7e1 svgShape"></polygon></g><g fill="#f4f6f8" class="color000000 svgShape"><polygon fill="#d7e7f7" points="197.787 108.687 197.783 110.083 196.855 109.547 196.859 108.151" class="colorf7d7e1 svgShape"></polygon></g><g fill="#f4f6f8" class="color000000 svgShape"><path fill="#d7e7f7" d="M197.175,106.661c0.342,0.197,0.617,0.674,0.616,1.063l-0.002,0.689l-2.632-1.52l0.004-1.396
				L197.175,106.661z" class="colorf7d7e1 svgShape"></path></g><path fill="#d7e7f7" d="M193.631,104.616l-0.004,1.396l-1.341-0.774l0.002-0.689c0.001-0.389,0.278-0.547,0.617-0.352
			L193.631,104.616z" class="colorf7d7e1 svgShape"></path><polygon fill="#d7e7f7" points="194.922 105.361 194.918 106.757 193.848 106.139 193.852 104.743" class="colorf7d7e1 svgShape"></polygon><polygon fill="#d7e7f7" points="194.917 107.03 194.913 108.426 192.281 106.906 192.285 105.51" class="colorf7d7e1 svgShape"></polygon><path fill="#d7e7f7" d="M194.913,108.699l-0.004,1.396l-2.017-1.164c-0.339-0.196-0.614-0.672-0.613-1.065l0.002-0.686
			L194.913,108.699z" class="colorf7d7e1 svgShape"></path><polygon fill="#b7dbff" points="199.577 118.718 199.575 119.259 192.417 115.127 192.419 114.585" class="colorb7ceff svgShape"></polygon><polygon fill="#b7dbff" points="197.192 116.013 197.191 116.554 192.421 113.8 192.422 113.259" class="colorb7ceff svgShape"></polygon><polygon fill="#b7dbff" points="200.86 118.13 200.858 118.672 197.891 116.959 197.892 116.417" class="colorb7ceff svgShape"></polygon><polygon fill="#b7dbff" points="205.081 121.896 205.08 122.437 200.623 119.864 200.625 119.323" class="colorb7ceff svgShape"></polygon><polygon fill="#7873bc" points="109.393 197.903 109.375 202.719 76.257 183.597 76.274 178.782" class="color73bc9c svgShape"></polygon><path fill="#8cadcf" d="M90.324,170.617l33.119,19.121l-14.05,8.165l-33.119-19.121L90.324,170.617z" class="color8ccfb1 svgShape"></path><polygon fill="#6560ad" points="123.443 189.738 123.426 194.553 109.375 202.719 109.393 197.903" class="color60ad88 svgShape"></polygon><path fill="#6560ad" d="M110.533 193.514c.74.427.738 1.117.009 1.54-.729.424-1.92.427-2.659 0-.734-.424-.732-1.113-.003-1.537C108.609 193.094 109.799 193.09 110.533 193.514zM110.614 189.411c.513.296.516.773.012 1.066-.509.296-1.334.296-1.846 0-.507-.293-.51-.77 0-1.066C109.283 189.118 110.107 189.118 110.614 189.411zM118.514 188.876c.74.427.738 1.117.009 1.54-.735.427-1.919.427-2.659 0-.734-.424-.738-1.11-.003-1.537C116.589 188.456 117.78 188.452 118.514 188.876z" class="color60ad88 svgShape"></path><path fill="#6560ad" d="M90.491,172.107l30.379,17.539l-11.644,6.767l-30.379-17.539L90.491,172.107z M94.068,187.628
			c3.21,1.853,8.418,1.85,11.607-0.003c3.194-1.856,3.178-4.87-0.032-6.723c-3.221-1.86-8.418-1.856-11.613,0
			C90.841,182.755,90.846,185.768,94.068,187.628 M84.252,179.869l6.588,3.777c0.215-1.137,1.067-2.24,2.561-3.108
			c1.499-0.871,3.4-1.369,5.368-1.5l-6.565-3.79c0.972-0.565,0.962-1.456,0.012-2.005c-0.961-0.555-2.494-0.555-3.449,0
			c-0.943,0.548-0.938,1.436,0.023,1.991l-4.526,2.657c-0.984-0.568-2.523-0.565-3.466-0.017c-0.955,0.555-0.956,1.446,0.005,2.001
			C81.753,180.424,83.297,180.424,84.252,179.869 M110.932,193.289l4.52-2.66c0.979,0.565,2.517,0.568,3.461,0.02
			c0.955-0.555,0.944-1.446-0.005-1.995c-0.961-0.555-2.494-0.555-3.449,0l-6.582-3.78c-0.232,1.133-1.079,2.24-2.578,3.111
			c-1.493,0.868-3.395,1.366-5.351,1.497l6.565,3.79c-0.978,0.568-0.979,1.46-0.017,2.015c0.95,0.548,2.494,0.548,3.449-0.007
			C111.887,194.731,111.882,193.837,110.932,193.289 M98.015,177.054c-0.25-0.145-0.657-0.145-0.906,0
			c-0.249,0.145-0.247,0.38,0.003,0.524c0.25,0.145,0.657,0.145,0.906,0C98.267,177.434,98.265,177.199,98.015,177.054
			 M103.047,192.249c0.251,0.145,0.657,0.145,0.906,0c0.249-0.145,0.247-0.38-0.003-0.525c-0.251-0.145-0.657-0.145-0.906,0
			C102.795,191.869,102.797,192.105,103.047,192.249 M104.393,193.026c0.25,0.145,0.657,0.145,0.906,0
			c0.249-0.145,0.247-0.38-0.003-0.525c-0.25-0.145-0.657-0.145-0.906,0C104.141,192.646,104.142,192.882,104.393,193.026
			 M101.696,191.469c0.251,0.145,0.657,0.145,0.906,0c0.249-0.145,0.247-0.38-0.003-0.525c-0.25-0.145-0.657-0.145-0.906,0
			C101.444,191.089,101.445,191.324,101.696,191.469 M95.312,175.494c-0.251-0.145-0.657-0.145-0.906,0
			c-0.249,0.145-0.247,0.38,0.003,0.525c0.251,0.145,0.657,0.145,0.906,0C95.564,175.874,95.562,175.638,95.312,175.494
			 M96.663,176.274c-0.25-0.145-0.657-0.145-0.906,0c-0.249,0.145-0.247,0.38,0.003,0.524c0.25,0.145,0.657,0.145,0.905,0
			C96.915,176.654,96.914,176.419,96.663,176.274" class="color60ad88 svgShape"></path><path fill="#6560ad" d="M104.669,182.156l-0.938,0.545c0.834,0.73,0.839,1.625-0.081,2.159l-1.194-0.689
			c0.417-0.242,0.21-0.784-0.448-1.164c-0.652-0.377-1.594-0.498-2.01-0.256c-0.417,0.242-0.205,0.787,0.448,1.164
			c1.34,0.773,1.544,1.91,0.456,2.543c-0.92,0.535-2.465,0.535-3.733,0.057l-0.932,0.542l-1.194-0.689l0.932-0.541
			c-0.829-0.733-0.839-1.631,0.081-2.166l1.194,0.689c-0.417,0.242-0.204,0.787,0.448,1.164c0.658,0.38,1.594,0.498,2.01,0.256
			c0.417-0.242,0.211-0.784-0.448-1.164c-1.334-0.77-1.538-1.914-0.455-2.543c0.92-0.535,2.47-0.531,3.733-0.05l0.938-0.545
			L104.669,182.156z" class="color60ad88 svgShape"></path><g fill="#f4f6f8" class="color000000 svgShape"><g fill="#f4f6f8" class="color000000 svgShape"><path fill="#6822a2" d="M209.524,206.35l-0.012,2.097c0,0.345-0.226,0.701-0.689,0.963l-34.354,19.97
					c-0.927,0.535-2.425,0.535-3.352,0l-21.635-12.493c-0.464-0.273-0.701-0.63-0.701-0.975l0.012-2.097
					c0,0.345,0.238,0.701,0.701,0.975l21.635,12.494c0.927,0.535,2.425,0.535,3.352,0l34.354-19.971
					C209.299,207.052,209.524,206.695,209.524,206.35z" class="color3f528c svgShape"></path></g><g fill="#f4f6f8" class="color000000 svgShape"><path fill="#bcc4cc" d="M208.827,205.369c0.926,0.535,0.931,1.411,0.011,1.945l-34.354,19.964
					c-0.927,0.539-2.433,0.535-3.359,0l-21.63-12.488c-0.934-0.539-0.938-1.407-0.011-1.946l34.354-19.964
					c0.92-0.534,2.425-0.539,3.358,0L208.827,205.369z" class="colorbcc2cc svgShape"></path></g></g><g fill="#f4f6f8" class="color000000 svgShape"><g fill="#f4f6f8" class="color000000 svgShape"><path fill="#d0d6dd" d="M193.865,197.842c0.182,0.105,0.176,0.267-0.005,0.372c-0.174,0.101-0.453,0.105-0.635,0
					c-0.175-0.101-0.176-0.267-0.002-0.368C193.403,197.742,193.691,197.742,193.865,197.842z" class="colord0d5dd svgShape"></path></g><g fill="#f4f6f8" class="color000000 svgShape"><path fill="#d0d6dd" d="M200.233,201.554c0.159,0.092,0.16,0.241-0.006,0.337c-0.158,0.092-0.423,0.096-0.582,0.004
					l-4.819-2.782c-0.159-0.092-0.16-0.25-0.002-0.342c0.166-0.096,0.431-0.092,0.59,0L200.233,201.554z" class="colord0d5dd svgShape"></path></g><g fill="#f4f6f8" class="color000000 svgShape"><path fill="#d0d6dd" d="M163.702,219.064c0.66,0.381,0.671,0.999,0.015,1.38c-0.656,0.381-1.73,0.381-2.39,0
					c-0.66-0.381-0.664-1.003-0.008-1.385C161.975,218.678,163.042,218.682,163.702,219.064z" class="colord0d5dd svgShape"></path></g><g fill="#f4f6f8" class="color000000 svgShape"><path fill="#ffffff" d="M208.045,206.404l-32.024,18.61l-22.64-13.071l32.023-18.61l7.187,4.15
					c-0.52,0.302-0.518,0.793,0.006,1.095c0.349,0.202,0.834,0.254,1.272,0.193c-0.09,0.245-0.005,0.513,0.329,0.706l4.819,2.783
					c0.508,0.294,1.341,0.294,1.846,0L208.045,206.404z" class="colorffffff svgShape"></path></g></g><g fill="#f4f6f8" class="color000000 svgShape"><path fill="#b7dbff" d="M191.056,202.981l2.49,9.719l-19.288-11.136L191.056,202.981z" class="colorb7ceff svgShape"></path></g><g fill="#f4f6f8" class="color000000 svgShape"><path fill="#938cf7" d="M172.43,212.494c0.403,0.233,0.459,0.577,0.13,0.768l-3.574-2.063
				c0.328-0.191,0.928-0.156,1.326,0.073l0.114,0.066l9.748-5.665l-0.114-0.066c-0.397-0.229-0.459-0.577-0.13-0.768l3.574,2.063
				c-0.329,0.191-0.923,0.16-1.326-0.073l-0.108-0.063l-9.748,5.665L172.43,212.494z M171.48,211.946l9.748-5.665l-0.217-0.125
				l-9.748,5.665L171.48,211.946 M172.009,212.251l9.748-5.665l-0.217-0.125l-9.748,5.665L172.009,212.251 M170.95,211.64
				l9.748-5.665l-0.217-0.125l-9.748,5.665L170.95,211.64" class="color8ca8f7 svgShape"></path></g><g fill="#f4f6f8" class="color000000 svgShape"><path fill="#938cf7" d="M181.16,217.534c0.403,0.233,0.459,0.577,0.13,0.768l-3.568-2.06
				c0.328-0.191,0.923-0.16,1.326,0.073l0.108,0.063l9.748-5.665l-0.108-0.063c-0.403-0.233-0.459-0.577-0.13-0.768l3.568,2.06
				c-0.329,0.191-0.923,0.16-1.326-0.073l-0.108-0.063l-9.748,5.665L181.16,217.534z M180.745,217.295l9.748-5.665l-0.223-0.128
				l-9.748,5.665L180.745,217.295 M180.215,216.989l9.748-5.665l-0.223-0.128l-9.748,5.665L180.215,216.989 M179.686,216.683
				l9.748-5.665l-0.217-0.125l-9.748,5.665L179.686,216.683" class="color8ca8f7 svgShape"></path></g><g fill="#f4f6f8" class="color000000 svgShape"><polygon fill="#b7dbff" points="182.602 219.059 181.52 219.688 162.232 208.552 163.314 207.923 164.625 208.68 168.193 210.74 168.987 211.199 172.561 213.262 173.355 213.721 176.928 215.784 177.723 216.242 181.29 218.302" class="colorb7ceff svgShape"></polygon></g><g fill="#f4f6f8" class="color000000 svgShape"><path fill="#938cf7" d="M168.063,209.973c0.403,0.233,0.459,0.577,0.13,0.768l-3.568-2.06
				c0.328-0.191,0.923-0.16,1.326,0.073l0.108,0.063l9.748-5.665l-0.108-0.063c-0.403-0.233-0.459-0.577-0.13-0.768l3.568,2.06
				c-0.329,0.191-0.923,0.16-1.326-0.073l-0.108-0.063l-9.748,5.665L168.063,209.973z M167.118,209.427l9.748-5.665l-0.223-0.129
				l-9.748,5.665L167.118,209.427 M166.589,209.122l9.748-5.665l-0.217-0.125l-9.748,5.665L166.589,209.122 M167.642,209.73
				l9.748-5.665l-0.217-0.125l-9.748,5.665L167.642,209.73" class="color8ca8f7 svgShape"></path></g><g fill="#f4f6f8" class="color000000 svgShape"><path fill="#938cf7" d="M176.798,215.016c0.397,0.229,0.459,0.577,0.13,0.768l-3.574-2.063
				c0.329-0.191,0.923-0.16,1.326,0.073l0.108,0.063l9.748-5.665l-0.108-0.063c-0.403-0.233-0.459-0.577-0.13-0.768l3.574,2.063
				c-0.329,0.191-0.929,0.156-1.326-0.073l-0.108-0.063l-9.748,5.665L176.798,215.016z M175.318,214.162l9.748-5.665l-0.217-0.125
				l-9.748,5.665L175.318,214.162 M176.377,214.773l9.748-5.665l-0.217-0.125l-9.748,5.665L176.377,214.773 M175.848,214.467
				l9.748-5.665l-0.217-0.125l-9.748,5.665L175.848,214.467" class="color8ca8f7 svgShape"></path></g><polygon fill="#5046e4" points="189.813 203.703 191.524 210.376 178.276 202.734" class="color8294ed svgShape"></polygon><g fill="#f4f6f8" class="color000000 svgShape"><g fill="#f4f6f8" class="color000000 svgShape"><g fill="#f4f6f8" class="color000000 svgShape"><g fill="#f4f6f8" class="color000000 svgShape"><path fill="#b7dbff" d="M188.811,204.665l-0.302,0.175c0.243,0.231,0.225,0.515-0.074,0.688l-0.427-0.247
							c0.126-0.074,0.077-0.226-0.11-0.335c-0.186-0.107-0.453-0.137-0.579-0.063c-0.127,0.074-0.076,0.228,0.11,0.336
							c0.425,0.245,0.477,0.617,0.113,0.828c-0.299,0.174-0.789,0.186-1.189,0.046l-0.301,0.175l-0.427-0.247l0.301-0.175
							c-0.244-0.232-0.227-0.516,0.072-0.69l0.428,0.247c-0.125,0.073-0.074,0.227,0.112,0.334c0.187,0.108,0.452,0.136,0.577,0.063
							c0.128-0.074,0.077-0.226-0.11-0.334c-0.426-0.246-0.477-0.618-0.113-0.829c0.298-0.173,0.789-0.184,1.19-0.044l0.302-0.175
							L188.811,204.665z" class="colorb7ceff svgShape"></path></g></g></g></g><g fill="#f4f6f8" class="color000000 svgShape"><g fill="#f4f6f8" class="color000000 svgShape"><polygon fill="#83baf2" points="264.734 192.124 234.31 174.443 234.303 171.985 264.727 189.666" class="colorf283b5 svgShape"></polygon></g><g fill="#f4f6f8" class="color000000 svgShape"><polygon fill="#93c8fd" points="264.727 189.666 234.303 171.985 254.829 160.134 285.254 177.815" class="colorfd93bf svgShape"></polygon><polygon fill="#a50b89" points="240.009 171.993 254.825 163.44 279.547 177.807 264.732 186.36" class="colord363a1 svgShape"></polygon></g><g fill="#f4f6f8" class="color000000 svgShape"><polygon fill="#83baf2" points="285.254 177.815 254.829 160.134 254.721 115.632 285.145 133.313" class="colorf283b5 svgShape"></polygon><polygon fill="#e576d1" points="258.402 158.696 258.316 139.109 281.572 152.625 281.658 172.211" class="colore576ad svgShape"></polygon><polygon fill="#6822a2" points="256.809 123.399 256.786 121.709 263.101 125.38 263.125 127.07" class="color3f528c svgShape"></polygon><polygon fill="#6822a2" points="273.652 134.072 273.621 132.678 282.147 137.633 282.179 139.027" class="color3f528c svgShape"></polygon></g><g fill="#f4f6f8" class="color000000 svgShape"><polygon fill="#e576d1" points="285.145 133.313 254.721 115.632 260.001 86.42 290.426 104.101" class="colore576ad svgShape"></polygon><polygon fill="#ffffff" points="258.14 114.053 262.254 91.295 287.007 105.68 282.892 128.438" class="colorffffff svgShape"></polygon><polygon fill="#b7dbff" points="259.279 113.526 263.005 92.92 285.868 106.207 282.141 126.813" class="colorb7ceff svgShape"></polygon><polygon fill="#5046e4" points="261.558 112.473 264.084 98.505 283.166 109.594 280.64 123.563" class="color8294ed svgShape"></polygon></g><g fill="#f4f6f8" class="color000000 svgShape"><polygon fill="#93c8fd" points="290.426 104.101 260.001 86.42 261.839 85.359 292.263 103.04" class="colorfd93bf svgShape"></polygon></g><g fill="#f4f6f8" class="color000000 svgShape"><polygon fill="#a50b89" points="292.263 103.04 292.453 176.166 264.734 192.124 264.727 189.666 285.254 177.815 285.145 133.313 290.426 104.101" class="colord363a1 svgShape"></polygon></g></g><g fill="#f4f6f8" class="color000000 svgShape"><g fill="#f4f6f8" class="color000000 svgShape"><path fill="#ffffff" d="M277.339,147.648l-7.509-4.364c-0.519-0.995-0.551-2.17-0.1-3.485
					c1.045-3.047,4.283-5.781,4.419-5.895l7.509,4.364c-0.136,0.115-3.374,2.848-4.419,5.895
					C276.788,145.477,276.82,146.653,277.339,147.648z" class="colorffffff svgShape"></path></g><g fill="#f4f6f8" class="color000000 svgShape"><path fill="#bcc4cc" d="M281.658,138.267v0.239c-0.034,0.028-3.235,2.733-4.237,5.654
					c-0.425,1.235-0.39,2.339,0.102,3.283l-0.184,0.204c-0.519-0.995-0.551-2.17-0.1-3.485
					C278.284,141.116,281.522,138.382,281.658,138.267z" class="colorbcc2cc svgShape"></path></g></g><path fill="#ffffff" d="M275.838,113.201l-6.644-3.861c-1.319-0.767-2.999,0.01-3.271,1.511
			c-0.218,1.203,0.342,2.414,1.399,3.028l6.645,3.861c1.319,0.767,2.999-0.009,3.271-1.511
			C277.455,115.025,276.896,113.815,275.838,113.201z" class="colorffffff svgShape"></path><g fill="#f4f6f8" class="color000000 svgShape"><path fill="#6822a2" d="M272.069,112.523l0.289,3.185l-0.496-0.286l-0.065-0.692l-0.879-0.507l-0.327,0.465l-0.5-0.289
				l1.522-2.139L272.069,112.523z M271.215,113.805l0.527,0.304l-0.081-0.928L271.215,113.805" class="color3f528c svgShape"></path></g><g fill="#f4f6f8" class="color000000 svgShape"><path fill="#6822a2" d="M270.464,111.862c0.107,0.243,0.127,0.533,0.052,0.859c-0.077,0.331-0.209,0.527-0.398,0.593
				c-0.183,0.063-0.436,0.008-0.742-0.169l-0.279-0.161l-0.172,0.743l-0.469-0.271l0.617-2.662l0.739,0.427
				C270.135,111.407,270.351,111.622,270.464,111.862z M269.874,112.713c0.077-0.046,0.132-0.151,0.168-0.305
				c0.034-0.148,0.025-0.284-0.033-0.388c-0.062-0.107-0.167-0.206-0.32-0.295l-0.266-0.154l-0.208,0.897l0.315,0.182
				C269.684,112.739,269.801,112.762,269.874,112.713" class="color3f528c svgShape"></path></g><g fill="#f4f6f8" class="color000000 svgShape"><polygon fill="#6822a2" points="274.705 114.045 273.602 115.235 273.358 116.286 272.89 116.015 273.133 114.964 272.781 112.934 273.29 113.228 273.512 114.477 274.196 113.751" class="color3f528c svgShape"></polygon></g><path fill="#c3d8ed" d="M255.796,128.288c0,0-0.13-0.652-0.949,0.14c-0.82,0.79-3.48,2.475-4.246,1.285
			c0,0-0.048-0.587,1.171-1.18c1.218-0.593,1.23-1.896-0.575-1.074c-1.162,0.548-2.352,1.987-3.063,2.959
			c-0.465,0.635-1.111,1.095-1.858,1.345c-0.767,0.254-1.529,0.525-2.282,0.821c-2.221,0.842-4.132,2.244-6.043,3.645
			c-0.062,0.047-0.13,0.05-0.193,0.091v6.297c0.939-0.288,1.843-0.712,2.603-1.406c2.149-1.951,6.073-5.335,7.899-6.905
			c0.613-0.527,1.358-0.86,2.155-0.997C252.577,132.938,256.879,131.757,255.796,128.288z" class="coloredc3d2 svgShape"></path><g fill="#f4f6f8" class="color000000 svgShape"><g fill="#f4f6f8" class="color000000 svgShape"><g fill="#f4f6f8" class="color000000 svgShape"><g fill="#f4f6f8" class="color000000 svgShape"><g fill="#f4f6f8" class="color000000 svgShape"><path fill="#c3d8ed" d="M244.6,112.29c0,0-8.592,1.024-8.806,1.555c-0.057,0.197-3.727,9.878-4.298,12.162
								c-0.959,3.712,9.177,5.12,8.627,2.224c-0.347-1.897-0.97-3.356,0.214-3.945c0.774-0.385,0.972,0.236,1.844-0.073
								C246.306,122.707,244.6,112.29,244.6,112.29z" class="coloredc3d2 svgShape"></path></g><path fill="#2d4c74" d="M233.461,124.197c-1.231-0.429-1.695-0.827-1.876-1.458c0,0-8.45,0.269-5.055,9.906
							c1.712,4.859,8.174,15.657,9.851,21.225L233.461,124.197z" class="color2d3a74 svgShape"></path><path fill="#6822a2" d="M244.617,128.667c-1.161-0.876-2.376-1.897-3.337-3.052c-0.674-0.811-1.731-1.177-2.781-1.083
							c-2.222,0.201-5.725,0.159-6.196-1.997c0,0-7.315-0.49-4.528,9.436c2.786,9.927,3.152,17.592,2.159,21.273
							c0,0,10.701,14.876,17.536,2.476c0,0-0.015-15.421,0.624-18.324C248.651,134.862,248.766,131.798,244.617,128.667z" class="color3f528c svgShape"></path><g fill="#f4f6f8" class="color000000 svgShape"><g fill="#f4f6f8" class="color000000 svgShape"><path fill="#2d4c74" d="M238.297,125.697c-2.313,0-5.855-0.419-6.398-2.918c-0.084-0.387,0.161-0.77,0.55-0.854
									c0.371-0.087,0.764,0.163,0.852,0.549c0.42,1.943,5.151,1.874,6.787,1.698c0.375-0.041,0.746,0.243,0.792,0.635
									c0.042,0.394-0.242,0.748-0.638,0.791C240.014,125.624,239.264,125.697,238.297,125.697z" class="color2d3a74 svgShape"></path></g></g><path fill="#2d4c74" d="M251.243 204.543c-1.335-.48-4.273-1.547-7.448-.002-6.159 3.001-6.977 2.414-6.977 2.414s-2.064 8.75 2.784 6.823c3.665-1.456 8.82-4.999 11.854-6.974C252.322 206.24 252.216 204.893 251.243 204.543zM242.158 198.292c-1.335-.48-4.273-1.547-7.448-.002-6.159 3.001-6.977 2.414-6.977 2.414s-2.064 8.75 2.784 6.823c3.665-1.456 8.82-4.999 11.854-6.974C243.237 199.989 243.131 198.642 242.158 198.292z" class="color2d3a74 svgShape"></path><path fill="#938cf7" d="M247.47,155.72c-3.016,5.601-17.536-2.476-17.536-2.476s0.07,0.65-0.486,1.558
							c-1.347,2.197-4.207,5.68-1.265,18.061c2.379,10.011-1.401,17.422-0.45,27.842c0,0,4.568,2.67,7.154-2.241
							c0,0-0.269-13.152,0.431-15.935c0.154-0.613,0.956-7.926,1.895-11.134c0.443,2.182,0.696,4.285,0.835,8.193
							c0.123,3.446,0.064,5.674-0.181,9.114c-0.481,6.736-1.049,18.255-1.049,18.255c5.94,2.277,8.019-1.581,8.019-1.581
							l0.237-13.945c0.09-4.898,0.156-8.707,1.464-13.428C250.662,163.118,247.47,155.72,247.47,155.72z" class="color8ca8f7 svgShape"></path><path fill="#5046e4" d="M236.455,156.195c-0.602,1.223-1.319,2.37-1.57,3.66c-0.272,1.277-0.276,2.6-0.059,3.898
							c0.371,2.621,1.398,5.119,2.389,7.64c-0.735-1.141-1.404-2.328-1.943-3.586c-0.505-1.267-0.946-2.575-1.155-3.949
							c-0.168-1.37-0.175-2.8,0.238-4.145C234.73,158.339,235.647,157.256,236.455,156.195z" class="color8294ed svgShape"></path></g></g></g></g><path fill="#d9e0e8" d="M245.485,158.311c1.007-0.294,1.739-0.876,2.313-1.612c-0.174-0.606-0.319-1.423-0.318-2.101
			c-0.407,0.66-1.717,1.762-2.496,1.99c-4.615,1.34-14.205-3.905-14.618-4.129l-0.251-0.138c-0.058,0.308-0.107,0.643-0.181,0.909
			c0,0,0.037,0.377-0.177,0.937c1.249,0.68,8.363,4.425,13.541,4.425C244.111,158.593,244.847,158.499,245.485,158.311z" class="colord9dfe8 svgShape"></path><path fill="#bcc4cc" d="M280.145 138.539l-6.251-3.634c-.116.105-.258.241-.427.406l6.252 3.632C279.887 138.778 280.029 138.643 280.145 138.539zM272.207 136.689l6.252 3.634c.123-.151.246-.302.367-.441l-6.252-3.632C272.453 136.386 272.33 136.539 272.207 136.689zM271.159 138.19l6.252 3.634c.096-.163.185-.329.289-.486l-6.252-3.633C271.345 137.861 271.255 138.027 271.159 138.19zM270.501 139.558c-.037.107-.052.208-.081.313l6.252 3.632c.029-.105.044-.206.081-.313.027-.079.07-.156.101-.235l-6.252-3.632C270.572 139.403 270.529 139.478 270.501 139.558zM270.396 141.967l6.252 3.634c-.074-.236-.122-.479-.139-.735l-6.252-3.632C270.274 141.487 270.322 141.732 270.396 141.967z" class="colorbcc2cc svgShape"></path><path fill="#c3d8ed" d="M275.03,143.958c-0.991,0.562-3.987,1.531-4.432,0.187c0,0,0.1-0.58,1.428-0.852
			c1.328-0.272,1.664-1.531-0.289-1.183c-1.261,0.24-2.773,1.339-3.703,2.103c-0.609,0.499-1.348,0.783-2.134,0.839
			c-0.806,0.056-1.611,0.129-2.415,0.227c-2.361,0.264-4.561,1.145-6.761,2.027c-3.032,1.259-5.464-3.636-5.573-3.943
			c0,0-0.133-0.622-0.56-2.109c-1.531,1.004-2.709-0.171-4.605,0.172c-0.536,0.125-0.876,0.18-1.13,0.227
			c-0.993,0.534-0.376,3.786-1.471,4.097c1.798,2.561,3.851,3.555,6.915,6.165c2.085,1.795,5.063,2.117,7.518,0.814
			c2.567-1.354,7.21-3.656,9.369-4.721c0.725-0.357,1.53-0.495,2.335-0.43c2.186,0.181,6.647,0.107,6.462-3.523
			C275.984,144.058,276.021,143.395,275.03,143.958z" class="coloredc3d2 svgShape"></path><g fill="#f4f6f8" class="color000000 svgShape"><g fill="#f4f6f8" class="color000000 svgShape"><g fill="#f4f6f8" class="color000000 svgShape"><path fill="#2d4c74" d="M251.647,143.478c-0.593-3.035-1.904-6.847-2.405-8.206c-1.351-3.661-5.689-5.36-7.655-3.658
						c-1.972,1.697-2.902,4.882-1.55,8.539c0.442,1.199,2.275,4.415,3.759,6.717C246.584,142.156,251.623,143.472,251.647,143.478z" class="color2d3a74 svgShape"></path></g></g></g><g fill="#f4f6f8" class="color000000 svgShape"><g fill="#f4f6f8" class="color000000 svgShape"><path fill="#5046e4" d="M262.764,125.974l-6.379,3.706c-0.143,0.086-0.381,0.086-0.528,0l-4.936-2.85
					c-0.077-0.042-0.11-0.099-0.11-0.153l-0.003,0.545c0,0.054,0.037,0.109,0.11,0.153l4.94,2.849c0.144,0.087,0.381,0.087,0.528,0
					l6.379-3.704V125.974z" class="color8294ed svgShape"></path></g><path fill="#938cf7" d="M257.297,122.818l-6.379,3.706c-0.144,0.084-0.146,0.22,0.002,0.306l4.939,2.852
				c0.145,0.082,0.383,0.082,0.527,0l6.379-3.708L257.297,122.818z" class="color8ca8f7 svgShape"></path></g><path fill="#b7dbff" d="M261.568,125.283c-0.019,0.032-0.023,0.064-0.022,0.099c0.003,0.039,0.009,0.079-0.01,0.116
			c-0.015,0.032-0.059,0.069-0.104,0.087c-0.074,0.03-0.117,0.037-0.144,0.022c-0.018-0.01-0.029-0.032-0.037-0.062
			c-0.03-0.116-0.08-0.225-0.212-0.304l-0.043-0.017c-0.075,0-0.126-0.015-0.165-0.039c-0.051-0.03-0.083-0.071-0.122-0.108
			l-0.089-0.017c-0.098,0.012-0.197,0.034-0.293,0.047c-0.048,0.005-0.103,0.022-0.135,0.003c-0.007-0.005-0.013-0.01-0.018-0.019
			l-0.092,0.002c-0.124,0.017-0.226,0.013-0.301-0.03c-0.01-0.005-0.019-0.012-0.031-0.02c-0.025-0.015-0.101-0.007-0.152-0.007
			l-0.026,0.022c0.064,0.059,0.118,0.124,0.204,0.175c0.07,0.039,0.147,0.01,0.249-0.081c0.043,0.015,0.085,0.029,0.139,0.055
			c0.041,0.024,0.049,0.054-0.007,0.098l-0.027,0.049c0.03,0.074-0.046,0.129-0.156,0.18c-0.093,0.04-0.191,0.077-0.284,0.119
			c-0.064,0.029-0.121,0.059-0.203,0.099c-0.031,0.003-0.061,0-0.085-0.013c-0.017-0.01-0.03-0.025-0.037-0.044
			c-0.007-0.02-0.03-0.034-0.045-0.049c-0.06-0.054-0.115-0.111-0.195-0.175c-0.026-0.015-0.057-0.027-0.082-0.042
			c-0.011-0.007-0.024-0.012-0.035-0.019c-0.014-0.008-0.026-0.017-0.031-0.027c-0.017-0.027-0.013-0.062-0.03-0.089
			c-0.008-0.013-0.022-0.027-0.04-0.037c-0.01-0.005-0.021-0.01-0.032-0.013l-0.091,0.003l-0.006,0.052
			c0.035,0.049,0.079,0.097,0.118,0.146c0.056,0.072,0.096,0.151,0.169,0.215c0.07,0.061,0.16,0.111,0.248,0.175
			c0.08,0.045,0.229,0.012,0.363-0.025c0.036-0.012,0.077-0.012,0.117-0.018c-0.006,0.024-0.006,0.049-0.021,0.071
			c-0.03,0.05-0.072,0.099-0.101,0.148c-0.063,0.106-0.162,0.203-0.317,0.284c-0.165,0.086-0.216,0.16-0.171,0.262
			c0.026,0.059,0.06,0.116,0.096,0.17c0.058,0.092-0.003,0.239-0.158,0.325c-0.131,0.069-0.176,0.131-0.163,0.22
			c0.007,0.064-0.056,0.141-0.092,0.215c-0.017,0.03-0.042,0.064-0.055,0.096c-0.063,0.17-0.243,0.291-0.529,0.358
			c-0.045,0.012-0.091,0.027-0.151,0.044c-0.043-0.061-0.067-0.134-0.131-0.185c-0.066-0.054-0.134-0.101-0.167-0.168
			c-0.05-0.109-0.122-0.214-0.157-0.326c-0.032-0.108-0.037-0.22-0.038-0.333c-0.001-0.097-0.116-0.141-0.19-0.203
			c-0.047-0.042-0.081-0.072-0.031-0.138c0.03-0.04,0.014-0.086,0.004-0.126l-0.091-0.012c-0.055,0.008-0.098,0.019-0.142-0.008
			c-0.058-0.034-0.147,0.003-0.219,0.032c-0.17,0.066-0.341,0.133-0.529,0.121c-0.122-0.008-0.248-0.013-0.328-0.061
			c-0.024-0.013-0.043-0.03-0.057-0.052c-0.004-0.005-0.011-0.01-0.02-0.015c-0.016-0.01-0.037-0.017-0.055-0.022
			c-0.023-0.008-0.043-0.017-0.06-0.027c-0.066-0.039-0.088-0.091-0.084-0.156c0.008-0.082,0.059-0.17-0.008-0.24
			c-0.01-0.012,0.036-0.049,0.059-0.071c0.03-0.034,0.074-0.064,0.097-0.098c0.027-0.035,0.038-0.076,0.114-0.101l0.034-0.029
			c-0.026-0.052,0.042-0.096,0.093-0.143l0.017-0.022c-0.007-0.079,0.076-0.109,0.19-0.119c0.012-0.076,0.065-0.111,0.188-0.146
			c0.081-0.022,0.157-0.055,0.236-0.084l0.051-0.025c0.161-0.039,0.325-0.077,0.514-0.123c-0.019,0.045-0.029,0.081-0.046,0.116
			c-0.015,0.027-0.017,0.04-0.004,0.049c0.012,0.007,0.039,0.008,0.081,0.007c0.104,0,0.204,0.014,0.306,0.022
			c0.032,0.005,0.059,0.02,0.094,0.025c0.047,0.01,0.079,0.002,0.085-0.037c0.014-0.087,0.029-0.097,0.178-0.091
			c0.183,0.01,0.363-0.014,0.554-0.061c0.079-0.02,0.134-0.049,0.155-0.098c0.021-0.042,0.04-0.084,0.048-0.126
			c0.004-0.022-0.001-0.037-0.014-0.045c-0.019-0.01-0.055-0.008-0.107,0.005c-0.081,0.019-0.163,0.037-0.246,0.054
			c-0.056,0.01-0.094,0.005-0.12-0.01c-0.016-0.008-0.028-0.024-0.035-0.04c-0.013-0.025-0.03-0.049-0.058-0.066l-0.091-0.012
			c-0.01,0.022-0.036,0.047-0.031,0.06c0.019,0.051-0.023,0.087-0.11,0.131c-0.04-0.049-0.083-0.092-0.113-0.141
			c-0.009-0.015-0.02-0.027-0.034-0.034c-0.027-0.017-0.066-0.02-0.122-0.012c-0.066,0.01-0.125,0.013-0.159-0.005
			c-0.016-0.01-0.026-0.024-0.03-0.044l-0.087-0.014c0.003,0.03,0.02,0.05,0.045,0.066c0.031,0.018,0.076,0.027,0.126,0.03
			c0.023,0.003,0.039,0.008,0.051,0.015c0.027,0.015,0.03,0.04,0.028,0.067c-0.004,0.037-0.01,0.076-0.072,0.091
			c-0.034-0.04-0.056-0.081-0.1-0.114c-0.026-0.015-0.075-0.02-0.111-0.027h-0.068c-0.117-0.008-0.251-0.002-0.366,0.022
			l-0.078,0.032c-0.059,0.055-0.116,0.114-0.176,0.173c-0.055,0.052-0.11,0.103-0.095,0.161l-0.029,0.032
			c-0.072-0.032-0.149-0.02-0.217,0.02c-0.057-0.007-0.108-0.012-0.17-0.019c0.004-0.037,0.01-0.077,0.016-0.118l-0.002-0.056
			c-0.043-0.042-0.011-0.062,0.076-0.076c0.032-0.007,0.066-0.014,0.098-0.022c0.159-0.042,0.174-0.057,0.169-0.148
			c-0.002-0.034-0.004-0.059-0.07-0.094c-0.036-0.02,0-0.054,0.067-0.071c0.04-0.01,0.087-0.03,0.114-0.05
			c0.081-0.062,0.155-0.124,0.224-0.19c0.04-0.039,0.091-0.054,0.153-0.059c0.087-0.01,0.121-0.039,0.116-0.086
			c-0.009-0.039-0.011-0.079,0.001-0.129c0.026,0.013,0.051,0.025,0.079,0.039c0.151,0.072,0.455,0.022,0.616-0.094
			c0.072-0.054,0.163-0.096,0.19-0.165l0.064-0.027c0.11-0.025,0.176-0.094,0.148-0.16c-0.121,0.03-0.24,0.062-0.395,0.091
			c-0.044-0.025-0.04-0.088,0.027-0.158c0.03-0.032,0.065-0.066,0.08-0.097c0.006-0.017-0.024-0.035-0.035-0.054
			c-0.027,0.013-0.061,0.027-0.08,0.042c-0.059,0.047-0.116,0.096-0.165,0.146c-0.072,0.076-0.112,0.153-0.103,0.232
			c0.007,0.045-0.01,0.097-0.031,0.146c-0.006,0.018-0.055,0.042-0.091,0.05l-0.066-0.029c-0.064-0.027-0.122-0.057-0.194-0.077
			c-0.017-0.005-0.079,0.03-0.117,0.049c-0.036,0.014-0.078,0.042-0.1,0.04l-0.058-0.045c-0.002-0.054,0.008-0.109,0.025-0.163
			c0.008-0.025,0.046-0.052,0.078-0.072c0.087-0.062,0.178-0.121,0.26-0.183c0.027-0.022,0.036-0.05,0.053-0.076
			c0.019-0.025,0.038-0.049,0.061-0.072c0.021-0.025,0.061-0.049,0.067-0.071c0.033-0.099,0.163-0.135,0.297-0.17
			c0.069-0.02,0.137-0.039,0.206-0.057l-0.59-0.34c-0.157,0.03-0.313,0.062-0.463,0.103l-1.091,0.634l-0.029,0.04
			c0.051,0.034,0.06,0.081,0.024,0.148c0.041,0.047-0.002,0.108,0.026,0.156c0.017,0.024-0.008,0.045-0.025,0.072
			c-0.038,0.057-0.053,0.118-0.061,0.175c-0.008,0.049,0.005,0.096-0.069,0.143l-0.044,0.027c-0.14,0.017-0.146,0.094-0.212,0.145
			c-0.108,0.082-0.131,0.173-0.156,0.261c-0.008,0.02-0.015,0.042-0.027,0.069c-0.042-0.012-0.076-0.025-0.104-0.042
			c-0.076-0.044-0.1-0.104-0.099-0.182c0-0.086,0.01-0.178-0.057-0.251l-0.013-0.02c-0.022-0.062-0.043-0.123-0.063-0.187
			l-0.013-0.019l-1.593,0.925c-0.089,0.111-0.167,0.224-0.232,0.338l0.03-0.005c0.044-0.01,0.081-0.015,0.106-0.002
			c0.007,0.005,0.012,0.01,0.02,0.02c0.015,0.008,0.068,0.005,0.101,0c0.051-0.008,0.078-0.01,0.092-0.003
			c0.011,0.007,0.014,0.022,0.013,0.047c0,0.017,0.008,0.029,0.022,0.037c0.03,0.017,0.087,0.017,0.144,0.027
			c0.004-0.052,0.006-0.097,0.014-0.145c0.004-0.017,0.015-0.039,0.031-0.055c0.038-0.034,0.064-0.065,0.038-0.098l-0.011-0.054
			c-0.003-0.034,0.004-0.069-0.009-0.099c-0.013-0.027,0.002-0.04,0.049-0.052c0.081-0.02,0.151-0.03,0.219-0.007
			c0.055,0.02,0.126,0.024,0.187,0.035c-0.002,0.03-0.006,0.065-0.008,0.098l0.047,0.008c0.034-0.039,0.068-0.079,0.101-0.118
			l0.034-0.003c0.032,0.05,0.077,0.092,0.137,0.128c0.076,0.044,0.178,0.076,0.311,0.096c-0.025,0.013-0.053,0.023-0.076,0.037
			c-0.093,0.05-0.186,0.099-0.278,0.148c-0.112,0.059-0.176,0.126-0.154,0.202c0.007,0.027-0.012,0.04-0.055,0.05l-0.072,0.017
			c-0.079,0.019-0.119,0.047-0.097,0.091c0.013,0.027-0.004,0.047-0.061,0.06c-0.115,0.027-0.178,0.076-0.188,0.145
			c-0.01,0.084-0.074,0.163-0.184,0.237c-0.042,0.027-0.063,0.071-0.063,0.103c-0.002,0.049,0.022,0.094,0.035,0.141l-0.004,0.037
			c-0.044-0.02-0.103-0.029-0.141-0.05c-0.019-0.012-0.033-0.025-0.038-0.045l-0.077-0.029l-0.079,0.002
			c-0.045-0.002-0.077,0.003-0.089,0.037c-0.01,0.039-0.048,0.039-0.089,0.03c-0.085-0.015-0.178,0.012-0.233,0.056l0,0.037
			c0.013,0.111,0.039,0.217,0.074,0.321c0.04,0.002,0.085-0.01,0.125-0.035c0.047-0.034,0.085-0.071,0.131-0.106
			c0.054-0.008,0.084-0.01,0.096-0.003c0.013,0.008,0.006,0.027-0.013,0.062c-0.019,0.034-0.017,0.071-0.008,0.101l0.072,0.008
			c0.044-0.018,0.072-0.017,0.091-0.007c0.009,0.005,0.015,0.014,0.02,0.022c0.015,0.025,0.028,0.055,0.035,0.084
			c0.011,0.035,0.016,0.055,0.033,0.066c0.02,0.012,0.056,0.008,0.135-0.002c0.038-0.005,0.081-0.013,0.142-0.025
			c-0.057,0.029-0.097,0.049-0.138,0.071c-0.124-0.008-0.24-0.022-0.343-0.082l-0.062-0.019c-0.087,0-0.153-0.015-0.217-0.037
			l-0.059,0.002c0.161,0.394,0.48,0.725,0.923,0.98c0.094,0.054,0.194,0.106,0.299,0.153c-0.002-0.074-0.003-0.148-0.005-0.22
			c0-0.025-0.014-0.045-0.039-0.059c-0.023-0.014-0.055-0.022-0.093-0.024c-0.066-0.003-0.122-0.02-0.164-0.044
			c-0.047-0.027-0.077-0.066-0.083-0.109c-0.005-0.032-0.014-0.066-0.052-0.086c-0.01-0.007-0.02-0.012-0.029-0.017
			c-0.14-0.081-0.096-0.129,0.021-0.277c0.051-0.067,0.114-0.126,0.039-0.182c-0.008-0.008,0.008-0.037,0.025-0.052
			c0.053-0.04,0.11-0.081,0.167-0.119c0.055-0.039,0.134-0.047,0.2-0.037c0.045,0.008,0.102,0.012,0.149,0.003
			c0.126-0.03,0.252-0.022,0.328,0.022c0.022,0.013,0.04,0.029,0.053,0.047c0.007,0.01,0.015,0.019,0.025,0.024
			c0.023,0.013,0.054,0.012,0.105-0.007c0.073-0.03,0.168-0.024,0.218,0.005c0.017,0.01,0.028,0.022,0.033,0.037
			c0.009,0.025,0.024,0.044,0.045,0.057c0.041,0.023,0.107,0.022,0.198-0.005c0.027-0.01,0.064-0.01,0.093-0.01
			c0.162,0.002,0.285,0.044,0.411,0.082c0.01,0.002,0.019,0.007,0.027,0.01c0.044,0.025,0.048,0.074,0.012,0.123
			c-0.019,0.029-0.029,0.057-0.048,0.084l-0.04,0.05c-0.114,0.042-0.104,0.101-0.118,0.153c-0.014,0.059-0.006,0.118-0.088,0.173
			l-0.049,0.03c-0.106,0.02-0.131,0.084-0.206,0.121l-0.019,0.044c0.02,0.077-0.022,0.146-0.139,0.212l-0.049,0.044
			c-0.049,0.077-0.093,0.096-0.216,0.092l-0.03-0.002l-0.028,0.015c0.023,0.015,0.042,0.035,0.081,0.057l0.028,0.022
			c0.902,0.224,2.018,0.249,3.21,0.023c0.166-0.03,0.328-0.071,0.49-0.111l3.727-2.166c0.073-0.098,0.113-0.202,0.169-0.301
			L261.568,125.283z" class="colorb7ceff svgShape"></path><polygon fill="#6822a2" points="262.107 125.375 255.275 129.346 254.076 128.654 260.908 124.683" class="color3f528c svgShape"></polygon><path fill="#6822a2" d="M233.263 120.731c0 0-.002-.039-.007-.096C233.19 120.644 233.211 120.683 233.263 120.731zM246.326 108.642c-1.307-1.687-4.954-.654-4.954-.654-11.977-.327-10.507 7.949-9.364 9.146 1.013 1.061 1.215 3.057 1.249 3.5.854.666 2.25 1.346 4.502 1.274 2.428-2.599.946-3.085 1.926-4.065.98-.98 1.688.817 1.688.817 2.069-1.253.387-3.565.387-3.565C246.604 113.516 247.632 110.329 246.326 108.642z" class="color3f528c svgShape"></path><path fill="#83baf2" d="M135.725,67.612l8.477,4.154c1.074,0.537,2.373,0.085,2.91-0.989l4.154-8.477
			c0.523-1.074,0.085-2.374-0.989-2.91l-8.477-4.154c-1.074-0.523-2.374-0.085-2.911,0.989l-4.154,8.477
			C134.199,65.776,134.651,67.075,135.725,67.612z" class="colorf283b5 svgShape"></path><path fill="#b5cee7" d="M126.195,68.017l3.886-7.916c0.494-1.007,1.715-1.423,2.722-0.929l7.915,3.886
			c1.006,0.494,1.423,1.715,0.929,2.722l-3.886,7.916c-0.494,1.007-1.715,1.423-2.722,0.929l-7.915-3.886
			C126.118,70.244,125.701,69.023,126.195,68.017z M132.035,60.737c-0.144-0.071-0.318-0.011-0.389,0.133l-3.886,7.916
			c-0.071,0.144-0.011,0.318,0.133,0.389l7.915,3.887c0.144,0.071,0.318,0.011,0.389-0.133l3.886-7.916
			c0.071-0.144,0.011-0.318-0.133-0.389L132.035,60.737z" class="colore7b8b5 svgShape"></path><path fill="#8cadcf" d="M290.615,86.854l5.374,3.01c0.683,0.383,1.562,0.125,1.958-0.573l3.117-5.494
			c0.396-0.699,0.163-1.578-0.52-1.961l-5.374-3.01c-0.683-0.383-1.562-0.125-1.958,0.573l-3.117,5.494
			C289.698,85.591,289.932,86.471,290.615,86.854z M291.157,85.488l3.117-5.494c0.057-0.1,0.182-0.136,0.28-0.082l5.374,3.01
			c0.098,0.055,0.131,0.18,0.074,0.28l-3.117,5.494c-0.057,0.1-0.182,0.136-0.28,0.082l-5.374-3.01
			C291.134,85.713,291.1,85.588,291.157,85.488z" class="color8ccfb1 svgShape"></path><path fill="#b5cee7" d="M116.624,225.678l5.021-5.748c0.638-0.731,1.753-0.806,2.483-0.168l5.748,5.021
			c0.731,0.638,0.806,1.753,0.168,2.483l-5.021,5.748c-0.638,0.731-1.753,0.806-2.483,0.168l-5.748-5.021
			C116.061,227.523,115.986,226.409,116.624,225.678z M123.136,220.899c-0.104-0.091-0.264-0.08-0.355,0.024l-5.021,5.748
			c-0.091,0.104-0.08,0.264,0.024,0.355l5.748,5.021c0.104,0.091,0.264,0.08,0.355-0.024l5.021-5.748
			c0.091-0.104,0.08-0.264-0.024-0.355L123.136,220.899z" class="colore7b8b5 svgShape"></path><path fill="#7873bc" d="M242.845,230.704c-0.887,4.003,2.601,7.491,6.604,6.604c2.017-0.447,3.645-2.075,4.092-4.092
			c0.887-4.003-2.601-7.491-6.604-6.604C244.92,227.059,243.292,228.687,242.845,230.704z" class="color73bc9c svgShape"></path><path fill="#d0d6dd" d="M247.788,70.012c-0.366,1.933,1.297,3.596,3.23,3.23c1.074-0.203,1.952-1.082,2.156-2.156
			c0.366-1.933-1.297-3.596-3.23-3.23C248.87,68.06,247.992,68.938,247.788,70.012z" class="colord0d5dd svgShape"></path><path fill="#938cf7" d="M232.292,225.906c-0.387,2.041,1.37,3.798,3.411,3.411c1.134-0.215,2.061-1.142,2.276-2.276
			c0.387-2.041-1.369-3.798-3.411-3.411C233.435,223.844,232.507,224.772,232.292,225.906z" class="color8ca8f7 svgShape"></path></g></g></svg>