<svg xmlns="http://www.w3.org/2000/svg" xmlns:xlink="http://www.w3.org/1999/xlink" viewBox="0 0 1696.769 1387.96" id="Overcomingbusinesschallenges"><defs><linearGradient id="l" x1="536.45" x2="630.995" y1="299.211" y2="299.211" gradientUnits="userSpaceOnUse"><stop offset="0" stop-color="#d1e0f0" class="stopColord1d6f0 svgShape"></stop><stop offset=".169" stop-color="#e2ecf6" class="stopColore2e5f6 svgShape"></stop><stop offset=".398" stop-color="#f2f6fb" class="stopColorf2f4fb svgShape"></stop><stop offset=".656" stop-color="#fcfdfe" class="stopColorfcfcfe svgShape"></stop><stop offset="1" stop-color="#ffffff" class="stopColorffffff svgShape"></stop></linearGradient><linearGradient id="m" x1="621.283" x2="657.126" y1="219.86" y2="281.942" gradientTransform="matrix(-1 0 0 1 1168.726 0)" gradientUnits="userSpaceOnUse"><stop offset=".323" stop-color="#f6f8fb" class="stopColorf6f6fb svgShape"></stop><stop offset=".548" stop-color="#edf3fa" class="stopColoredeefa svgShape"></stop><stop offset=".913" stop-color="#d5e7f9" class="stopColord5d9f9 svgShape"></stop><stop offset="1" stop-color="#cee3f8" class="stopColorced3f8 svgShape"></stop></linearGradient><linearGradient id="n" x1="101.963" x2="231.708" y1="755.111" y2="755.111" gradientUnits="userSpaceOnUse"><stop offset="0" stop-color="#d1e0f0" class="stopColord1d6f0 svgShape"></stop><stop offset=".29" stop-color="#d5e3f1" class="stopColord5daf1 svgShape"></stop><stop offset=".592" stop-color="#e2ebf5" class="stopColore2e5f5 svgShape"></stop><stop offset=".899" stop-color="#f6f9fc" class="stopColorf6f7fc svgShape"></stop><stop offset="1" stop-color="#ffffff" class="stopColorffffff svgShape"></stop></linearGradient><linearGradient id="a" x1="133.546" x2="179.645" y1="736.934" y2="736.934" gradientUnits="userSpaceOnUse"><stop offset="0" stop-color="#bbcee2" class="stopColorbbbfe2 svgShape"></stop><stop offset="1" stop-color="#cee1f4" class="stopColorced2f4 svgShape"></stop></linearGradient><linearGradient id="o" x1="198.645" x2="211.546" y1="762.142" y2="762.142" gradientUnits="userSpaceOnUse"><stop offset="0" stop-color="#a5bcd4" class="stopColora5acd4 svgShape"></stop><stop offset=".635" stop-color="#bed2e7" class="stopColorbec3e7 svgShape"></stop><stop offset="1" stop-color="#cee1f4" class="stopColorced2f4 svgShape"></stop></linearGradient><linearGradient id="p" x1="101.963" x2="114.925" y1="762.156" y2="762.156" xlink:href="#a"></linearGradient><linearGradient id="q" x1="177.096" x2="193.658" y1="774.11" y2="774.11" gradientUnits="userSpaceOnUse"><stop offset="0" stop-color="#a5bcd4" class="stopColora5acd4 svgShape"></stop><stop offset=".516" stop-color="#bcd1e6" class="stopColorbcc2e6 svgShape"></stop><stop offset="1" stop-color="#cee1f4" class="stopColorced2f4 svgShape"></stop></linearGradient><linearGradient id="r" x1="120.011" x2="136.603" y1="774.127" y2="774.127" xlink:href="#a"></linearGradient><linearGradient id="s" x1="147.884" x2="165.866" y1="778.963" y2="778.963" xlink:href="#a"></linearGradient><linearGradient id="t" x1="123.928" x2="189.267" y1="730.651" y2="730.651" xlink:href="#a"></linearGradient><linearGradient id="u" x1="286.61" x2="759.126" y1="462.384" y2="462.384" gradientUnits="userSpaceOnUse"><stop offset="0" stop-color="#d1e2f3" class="stopColord1d7f3 svgShape"></stop><stop offset=".337" stop-color="#e9f1f9" class="stopColore9ecf9 svgShape"></stop><stop offset=".672" stop-color="#f9fbfd" class="stopColorf9fafd svgShape"></stop><stop offset=".928" stop-color="#ffffff" class="stopColorffffff svgShape"></stop></linearGradient><linearGradient id="f" x1="403.979" x2="622.005" y1="703.522" y2="703.522" gradientUnits="userSpaceOnUse"><stop offset="0" stop-color="#d1e2f3" class="stopColord1d7f3 svgShape"></stop><stop offset=".327" stop-color="#e9f1f9" class="stopColore9ecf9 svgShape"></stop><stop offset=".651" stop-color="#f9fbfd" class="stopColorf9fafd svgShape"></stop><stop offset=".899" stop-color="#ffffff" class="stopColorffffff svgShape"></stop></linearGradient><linearGradient id="d" x1="429.595" x2="503.835" y1="680.674" y2="680.674" gradientUnits="userSpaceOnUse"><stop offset="0" stop-color="#cfe0f1" class="stopColorcfd5f1 svgShape"></stop><stop offset=".283" stop-color="#e1ebf6" class="stopColore1e5f6 svgShape"></stop><stop offset=".719" stop-color="#f7fafd" class="stopColorf7f8fd svgShape"></stop><stop offset="1" stop-color="#ffffff" class="stopColorffffff svgShape"></stop></linearGradient><linearGradient id="b" x1="849.33" x2="1598.2" y1="533.401" y2="533.401" gradientUnits="userSpaceOnUse"><stop offset="0" stop-color="#d1e2f3" class="stopColord1d7f3 svgShape"></stop><stop offset="1" stop-color="#ffffff" class="stopColorffffff svgShape"></stop></linearGradient><linearGradient id="v" x1="563.526" x2="1182.978" y1="449.484" y2="449.484" xlink:href="#b"></linearGradient><linearGradient id="w" x1="1168.777" x2="1279.319" y1="589.714" y2="589.714" gradientUnits="userSpaceOnUse"><stop offset=".365" stop-color="#c4d4e4" class="stopColorc4c9e4 svgShape"></stop><stop offset="1" stop-color="#ffffff" class="stopColorffffff svgShape"></stop></linearGradient><linearGradient id="c" x1="1145.663" x2="1253.938" y1="598.362" y2="598.362" gradientUnits="userSpaceOnUse"><stop offset="0" stop-color="#fc06cf" class="stopColorfcba06 svgShape"></stop><stop offset="1" stop-color="#e100b8" class="stopColore19100 svgShape"></stop></linearGradient><linearGradient id="x" x1="1183.093" x2="1206.856" y1="586.011" y2="586.011" xlink:href="#c"></linearGradient><linearGradient id="e" x1="854.886" x2="996.63" y1="311.582" y2="311.582" gradientUnits="userSpaceOnUse"><stop offset="0" stop-color="#d1e2f3" class="stopColord1d7f3 svgShape"></stop><stop offset=".279" stop-color="#e9f1f9" class="stopColore9ecf9 svgShape"></stop><stop offset=".557" stop-color="#f9fbfd" class="stopColorf9fafd svgShape"></stop><stop offset=".769" stop-color="#ffffff" class="stopColorffffff svgShape"></stop></linearGradient><linearGradient id="y" x1="806.739" x2="849.331" y1="421.107" y2="421.107" gradientUnits="userSpaceOnUse"><stop offset="0" stop-color="#cfe0f1" class="stopColorcfd5f1 svgShape"></stop><stop offset=".083" stop-color="#d3e2f2" class="stopColord3d8f2 svgShape"></stop><stop offset=".641" stop-color="#e9eff5" class="stopColore9eaf5 svgShape"></stop><stop offset="1" stop-color="#f1f3f6" class="stopColorf1f1f6 svgShape"></stop></linearGradient><linearGradient id="z" x1="798.571" x2="841.741" y1="376.85" y2="376.85" xlink:href="#d"></linearGradient><linearGradient id="A" x1="860.429" x2="1289.147" y1="834.838" y2="834.838" xlink:href="#e"></linearGradient><linearGradient id="B" x1="1151.788" x2="1555.761" y1="836.438" y2="836.438" xlink:href="#e"></linearGradient><linearGradient id="C" x1="1311.337" x2="1598.2" y1="701.595" y2="701.595" gradientUnits="userSpaceOnUse"><stop offset=".315" stop-color="#d1e2f3" class="stopColord1d7f3 svgShape"></stop><stop offset=".564" stop-color="#e9f1f9" class="stopColore9ecf9 svgShape"></stop><stop offset=".811" stop-color="#f9fbfd" class="stopColorf9fafd svgShape"></stop><stop offset="1" stop-color="#ffffff" class="stopColorffffff svgShape"></stop></linearGradient><linearGradient id="D" x1="1003.333" x2="1145.078" y1="740.125" y2="740.125" xlink:href="#e"></linearGradient><linearGradient id="E" x1="1300.241" x2="1426.696" y1="735.711" y2="735.711" xlink:href="#e"></linearGradient><linearGradient id="F" x1="409.528" x2="1040.076" y1="872.356" y2="872.356" xlink:href="#e"></linearGradient><linearGradient id="G" x1="700.886" x2="918.911" y1="1046.357" y2="1046.357" xlink:href="#f"></linearGradient><linearGradient id="H" x1="1071.171" x2="1147.659" y1="868.092" y2="868.092" xlink:href="#d"></linearGradient><linearGradient id="I" x1="684.352" x2="779.475" y1="1156.588" y2="1156.588" xlink:href="#d"></linearGradient><linearGradient id="J" x1="1447.384" x2="1542.507" y1="399.889" y2="399.889" xlink:href="#d"></linearGradient><linearGradient id="K" x1="502.446" x2="559.46" y1="1058.355" y2="1058.355" xlink:href="#d"></linearGradient><linearGradient id="L" x1="1436.2" x2="1493.214" y1="446.027" y2="446.027" xlink:href="#d"></linearGradient><linearGradient id="M" x1="363.536" x2="412.362" y1="1130.633" y2="1130.633" xlink:href="#d"></linearGradient><linearGradient id="N" x1="1085.7" x2="1135.718" y1="899.459" y2="899.459" xlink:href="#d"></linearGradient><linearGradient id="O" x1="1119.817" x2="1207.909" y1="1097.611" y2="1097.611" xlink:href="#d"></linearGradient><linearGradient id="g" x1="807.514" x2="865.087" y1="941.967" y2="941.967" gradientUnits="userSpaceOnUse"><stop offset=".427" stop-color="#c4d4e4" class="stopColorc4c9e4 svgShape"></stop><stop offset=".577" stop-color="#d7e2ed" class="stopColord7daed svgShape"></stop><stop offset=".846" stop-color="#f4f7fa" class="stopColorf4f5fa svgShape"></stop><stop offset="1" stop-color="#ffffff" class="stopColorffffff svgShape"></stop></linearGradient><linearGradient id="h" x1="794.821" x2="852.425" y1="945.377" y2="945.377" gradientUnits="userSpaceOnUse"><stop offset="0" stop-color="#857dfb" class="stopColor807dfb svgShape"></stop><stop offset=".014" stop-color="#847cfa" class="stopColor7f7cfa svgShape"></stop><stop offset=".448" stop-color="#625ad1" class="stopColor5e5ad1 svgShape"></stop><stop offset=".792" stop-color="#4d46b8" class="stopColor4a46b8 svgShape"></stop><stop offset="1" stop-color="#7c3eaf" class="stopColor423eaf svgShape"></stop></linearGradient><linearGradient id="P" x1="609.997" x2="667.571" y1="568.162" y2="568.162" xlink:href="#g"></linearGradient><linearGradient id="Q" x1="597.304" x2="654.909" y1="571.571" y2="571.571" xlink:href="#h"></linearGradient><linearGradient id="R" x1="592.23" x2="632.368" y1="399.907" y2="330.385" gradientUnits="userSpaceOnUse"><stop offset=".006" stop-color="#cee3f8" class="stopColorced3f8 svgShape"></stop><stop offset="1" stop-color="#ffffff" class="stopColorffffff svgShape"></stop></linearGradient><linearGradient id="S" x1="634.892" x2="617.969" y1="382.34" y2="355.764" gradientUnits="userSpaceOnUse"><stop offset=".006" stop-color="#7c3eaf" class="stopColor423eaf svgShape"></stop><stop offset="1" stop-color="#6f67e9" class="stopColor6b67e9 svgShape"></stop></linearGradient><linearGradient id="j" x1="962.376" x2="1044.098" y1="1061.207" y2="1061.207" gradientUnits="userSpaceOnUse"><stop offset="0" stop-color="#c4d6e8" class="stopColorc4cae8 svgShape"></stop><stop offset=".095" stop-color="#ceddec" class="stopColorced3ec svgShape"></stop><stop offset=".409" stop-color="#e9eff6" class="stopColore9ebf6 svgShape"></stop><stop offset=".687" stop-color="#f9fbfd" class="stopColorf9fafd svgShape"></stop><stop offset=".899" stop-color="#ffffff" class="stopColorffffff svgShape"></stop></linearGradient><linearGradient id="i" x1="75.541" x2="90.983" y1="1036.341" y2="1028.066" gradientTransform="scale(-1 1) rotate(-9.265 -287.741 7540.503)" gradientUnits="userSpaceOnUse"><stop offset="0" stop-color="#193f6f" class="stopColor1f196f svgShape"></stop><stop offset=".512" stop-color="#612b8e" class="stopColor302b8e svgShape"></stop><stop offset="1" stop-color="#7c3eaf" class="stopColor423eaf svgShape"></stop></linearGradient><linearGradient id="T" x1="61.551" x2="76.991" y1="1041.61" y2="1033.337" xlink:href="#i"></linearGradient><linearGradient id="U" x1="957.664" x2="1007.345" y1="945.851" y2="945.851" gradientUnits="userSpaceOnUse"><stop offset="0" stop-color="#6f67e9" class="stopColor6b67e9 svgShape"></stop><stop offset="1" stop-color="#652e93" class="stopColor362e93 svgShape"></stop></linearGradient><linearGradient id="V" x1="1119.55" x2="1190.659" y1="1109.939" y2="1109.939" gradientTransform="translate(-228.072)" xlink:href="#j"></linearGradient><linearGradient id="W" x1="1109.821" x2="1180.927" y1="1091.064" y2="1091.064" gradientTransform="translate(-186.014)" xlink:href="#j"></linearGradient><linearGradient id="k" x1="-279.311" x2="-253.099" y1="1088.564" y2="1088.564" gradientTransform="translate(1184.201)" gradientUnits="userSpaceOnUse"><stop offset="0" stop-color="#7c3eaf" class="stopColor423eaf svgShape"></stop><stop offset=".304" stop-color="#7035a0" class="stopColor3a35a0 svgShape"></stop><stop offset=".891" stop-color="#1e4577" class="stopColor241e77 svgShape"></stop><stop offset="1" stop-color="#193f6f" class="stopColor1f196f svgShape"></stop></linearGradient><linearGradient id="X" x1="-311.722" x2="-285.511" y1="1107.431" y2="1107.431" xlink:href="#k"></linearGradient><linearGradient id="Y" x1="-300.337" x2="-255.276" y1="1044.803" y2="1044.803" gradientTransform="translate(1184.201)" gradientUnits="userSpaceOnUse"><stop offset="0" stop-color="#7c3eaf" class="stopColor423eaf svgShape"></stop><stop offset=".301" stop-color="#683097" class="stopColor353097 svgShape"></stop><stop offset=".746" stop-color="#1f477a" class="stopColor251f7a svgShape"></stop><stop offset="1" stop-color="#193f6f" class="stopColor1f196f svgShape"></stop></linearGradient><linearGradient id="Z" x1="-302.077" x2="-255.009" y1="963.93" y2="963.93" gradientTransform="translate(1184.201)" gradientUnits="userSpaceOnUse"><stop offset="0" stop-color="#fc06cf" class="stopColorfcba06 svgShape"></stop><stop offset=".061" stop-color="#f905cd" class="stopColorf9b505 svgShape"></stop><stop offset=".375" stop-color="#ec02c1" class="stopColoreca102 svgShape"></stop><stop offset=".688" stop-color="#e401bb" class="stopColore49501 svgShape"></stop><stop offset="1" stop-color="#e100b8" class="stopColore19100 svgShape"></stop></linearGradient><linearGradient id="aa" x1="1361.603" x2="1319.806" y1="980.615" y2="965.914" gradientTransform="matrix(-1 0 0 1 2223.316 0)" gradientUnits="userSpaceOnUse"><stop offset="0" stop-color="#3e9eff" class="stopColorffd03e svgShape"></stop><stop offset="1" stop-color="#fc06cf" class="stopColorfcba06 svgShape"></stop></linearGradient><linearGradient id="ab" x1="1529.307" x2="1529.307" y1="1615.235" y2="1034.071" gradientUnits="userSpaceOnUse"><stop offset=".247" stop-color="#ffffff" class="stopColorffffff svgShape"></stop><stop offset=".516" stop-color="#f8fafd" class="stopColorf8f9fd svgShape"></stop><stop offset=".905" stop-color="#e5edf6" class="stopColore5e9f6 svgShape"></stop><stop offset="1" stop-color="#dfe9f4" class="stopColordfe4f4 svgShape"></stop></linearGradient><linearGradient id="ac" x1="1371.205" x2="1371.205" y1="1615.234" y2="1034.07" gradientUnits="userSpaceOnUse"><stop offset=".247" stop-color="#ffffff" class="stopColorffffff svgShape"></stop><stop offset=".641" stop-color="#f6f9fc" class="stopColorf6f7fc svgShape"></stop><stop offset="1" stop-color="#e9f0f7" class="stopColore9edf7 svgShape"></stop></linearGradient></defs><g style="isolation:isolate" fill="#f4f6f8" class="color000000 svgShape"><g fill="#f4f6f8" class="color000000 svgShape"><g data-name="Front blocks" fill="#f4f6f8" class="color000000 svgShape"><path d="M630.995 296.842c-7.131 3.553-22.258 6.35-34.826 6.35-2.053 0-3.89-.084-5.551-.224a8.19 8.19 0 0 1 2.195-1.714c6.606-3.813 22.666-6.903 35.871-6.903.813 0 1.565.022 2.311.046v-2.444l-16.305-9.413a244.21 244.21 0 0 0-24.476 3.401l-53.764 10.347 17.918 10.349.045.022 8.555 4.942c8.845 5.107 35.433 5.642 62.191 1.618l5.836-3.37Z" style="mix-blend-mode:multiply" fill="url(#l)"></path><path fill="#cee3f8" d="M547.136 247.267a11.545 11.545 0 0 0-.875-4.667c4.384-.483 7.48 2.683 7.48 8.482 0 7.622-5.353 16.895-11.957 20.71-5.021 2.896-9.309 1.798-11.078-2.24a11.605 11.605 0 0 0 4.476-1.576c6.602-3.81 11.954-13.084 11.954-20.71Z" class="colorced3f8 svgShape"></path><path fill="url(#m)" d="M517.259 243.821c9.896-17.138 25.943-26.412 35.843-20.693l6.604 3.813c-9.899-5.717-25.945 3.556-35.844 20.695-9.887 17.131-9.892 35.643-.017 41.373l-6.586-3.8c-9.9-5.714-9.895-24.241 0-41.388Z"></path><path fill="#bbd0e6" d="m523.862 289.023 17.924 10.345 17.92-31.04c9.9-17.144 9.9-35.675 0-41.387-9.899-5.717-25.945 3.556-35.844 20.695-9.892 17.146-9.896 35.674 0 41.387Zm5.969-24.134c0-7.628 5.35-16.902 11.953-20.714 6.604-3.812 11.957-.722 11.957 6.907 0 7.622-5.353 16.895-11.957 20.71-6.604 3.81-11.953.718-11.953-6.903Z" class="colorbbc0e6 svgShape"></path><path d="M218.897 768.592a5.105 5.105 0 0 1 1.767-1.16h7.79l3.254-7.125-2.935-.45a8.213 8.213 0 0 1-2.741-.91 2.793 2.793 0 0 1-1.63-2.414 18.59 18.59 0 0 0-.009-2.836c-.064-2.035 2.424-3.027 4.317-3.328l2.94-.453-3.336-7.117h-7.778a5.608 5.608 0 0 1-.742-.356 4.742 4.742 0 0 1-1.047-.808 31.628 31.628 0 0 0-2.463-2.457c-1.81-1.75-.514-3.336.868-4.137l2.142-1.246-9.027-5.211-2.142 1.242a8.87 8.87 0 0 1-7.139.52q-2.083-.774-4.255-1.422a7.322 7.322 0 0 1-1.396-.602c-1.733-1.004-1.823-2.34-1.413-3.238l.774-1.695-12.303-1.914-.776 1.703c-.496 1.097-2.207 2.547-5.719 2.52a97.401 97.401 0 0 0-4.894-.005 8.158 8.158 0 0 1-4.182-.933 3.782 3.782 0 0 1-1.574-1.578l-.794-1.707-12.282 1.914.796 1.695c.512 1.101.288 2.848-2.765 3.84q-2.168.65-4.241 1.422a8.931 8.931 0 0 1-7.143-.516l-2.158-1.246-8.968 5.21 2.154 1.247c1.39.805 2.707 2.387.918 4.133a31.92 31.92 0 0 0-2.438 2.46c-1.703 1.77-4.714 1.91-6.61 1.622l-2.945-.457-3.254 7.117 2.939.453a8.276 8.276 0 0 1 2.74.914 2.799 2.799 0 0 1 1.631 2.414 18.364 18.364 0 0 0 .002 2.828 2.373 2.373 0 0 1-.808 1.84h-20.06v9.067h24.735a5.845 5.845 0 0 1 .732.351 4.89 4.89 0 0 1 1.045.805 31.003 31.003 0 0 0 2.473 2.46 3.194 3.194 0 0 1 .712.977h-11.648v9.617h17.62v-.39l1.471-.852a8.845 8.845 0 0 1 7.14-.515c.542.195 1.09.386 1.642.578v8.285h16.844v-.02l.106.02.775-1.703a3.248 3.248 0 0 1 .214-.371v2.074h16.95l12.281-1.906-.797-1.703c-.457-.98-.318-2.48 1.906-3.497h14.403l8.968-5.21-2.152-1.243c-1.393-.808-2.708-2.394-.921-4.14a29.435 29.435 0 0 0 2.436-2.457Zm-28.896-4.016c-9.032 5.246-23.738 5.254-32.833 0-9.092-5.25-9.137-13.77-.106-19.016 9.041-5.253 23.739-5.253 32.834 0 9.095 5.25 9.144 13.762.105 19.016Z" style="mix-blend-mode:multiply" fill="url(#n)"></path><path fill="url(#a)" d="M172.846 730.326c-9.033-5.21-23.63-5.215-32.605 0-7.985 4.637-8.821 11.852-2.541 17.055a19.177 19.177 0 0 1 2.541-1.754c8.975-5.219 23.572-5.215 32.605 0a19.213 19.213 0 0 1 2.642 1.824c6.317-5.21 5.433-12.465-2.642-17.125Z"></path><path fill="#bbcee2" d="M177.015 709.736a2.246 2.246 0 0 0-.205.918l-.042 15.344a2.206 2.206 0 0 1 .203-.914l.777-1.695.043-15.348ZM136.061 709.736l-.795-1.695-.044 15.348.796 1.695a2.275 2.275 0 0 1 .214.953l.044-15.352a2.24 2.24 0 0 0-.215-.949ZM200.245 719.693a3.068 3.068 0 0 0-1.755 2.375l-.045 15.348a3.075 3.075 0 0 1 1.756-2.375l2.143-1.246.044-15.348Z" class="colorbbbfe2 svgShape"></path><path fill="#cee1f4" d="m112.942 719.693-2.156-1.246-.043 15.348 2.155 1.246a3.096 3.096 0 0 1 1.785 2.406l.043-15.351a3.103 3.103 0 0 0-1.784-2.403Z" class="colorced2f4 svgShape"></path><path fill="#bbcee2" d="M211.803 735.021c-1.868.293-4.311 1.266-4.316 3.246l-.045 15.348c.007-1.976 2.45-2.949 4.319-3.246l2.939-.453.043-15.348Z" class="colorbbbfe2 svgShape"></path><path fill="#242f3c" d="m207.546 739.885-.043 15.347q-.003.65-.05 1.301l.042-15.348c.035-.433.049-.867.05-1.3Z" class="color242d3c svgShape"></path><path fill="#cee1f4" d="m105.917 740.885.006-2.535a2.798 2.798 0 0 0-1.633-2.415 8.068 8.068 0 0 0-2.738-.91l-2.942-.457-.04 15.348 2.937.453a8.23 8.23 0 0 1 2.738.914 2.993 2.993 0 0 1 1.586 1.942l-.008 1.792c0 .504.02 1.008.059 1.508l.045-15.343c-.008-.102-.006-.196-.01-.297Z" class="colorced2f4 svgShape"></path><path fill="#242f3c" d="m105.927 741.26-.043 15.347c0-.027 0-.054-.002-.082l.045-15.343Z" class="color242d3c svgShape"></path><path fill="#bbcee2" d="m214.803 744.963-.044 15.344-3.254 7.125.041-15.344 3.257-7.125z" class="colorbbbfe2 svgShape"></path><path fill="#cee1f4" d="m102.007 752.088-.044 15.344-3.331-7.122.043-15.347 3.332 7.125z" class="colorced2f4 svgShape"></path><path fill="url(#o)" d="M208.605 751.623c-1.896-.289-4.909-.152-6.613 1.621a29.128 29.128 0 0 1-2.438 2.457 2.464 2.464 0 0 0-.868 1.727l-.04 15.351a2.445 2.445 0 0 1 .866-1.73 29.429 29.429 0 0 0 2.436-2.457c1.705-1.778 4.72-1.91 6.612-1.617l2.945.457.04-15.344Z"></path><path fill="url(#p)" d="M114.04 755.701a30.544 30.544 0 0 1-2.469-2.457 4.751 4.751 0 0 0-1.05-.809 9.09 9.09 0 0 0-5.588-.812l-2.926.465-.044 15.344 2.927-.457a9.06 9.06 0 0 1 5.587.808 4.828 4.828 0 0 1 1.047.805 30.687 30.687 0 0 0 2.474 2.46 2.459 2.459 0 0 1 .884 1.759l.043-15.344a2.462 2.462 0 0 0-.885-1.762Z"></path><path fill="#bbcee2" d="m202.626 761.08-.042 15.352-8.968 5.21.042-15.347 8.968-5.215z" class="colorbbbfe2 svgShape"></path><path fill="#cee1f4" d="m120.054 766.295-.043 15.347-9.029-5.21.043-15.352 9.029 5.215z" class="colorced2f4 svgShape"></path><path fill="url(#q)" d="M191.5 765.049a8.915 8.915 0 0 0-7.14-.512 66.502 66.502 0 0 1-4.241 1.418c-2.269.742-2.978 1.895-2.981 2.89l-.042 15.348c.001-.996.708-2.152 2.979-2.89q2.17-.645 4.24-1.418a8.9 8.9 0 0 1 7.14.511l2.161 1.246.042-15.347Z"></path><path fill="url(#r)" d="M134.985 766.56a7.406 7.406 0 0 0-1.4-.605 67.988 67.988 0 0 1-4.247-1.418 8.884 8.884 0 0 0-7.143.512l-2.14 1.246-.044 15.347 2.14-1.242a8.855 8.855 0 0 1 7.143-.515 68.26 68.26 0 0 0 4.25 1.418 7.403 7.403 0 0 1 1.398.601 2.726 2.726 0 0 1 1.618 2.324l.043-15.343a2.722 2.722 0 0 0-1.618-2.325Z"></path><path fill="#bbcee2" d="m178.149 771.494-.044 15.348-12.282 1.906.043-15.348 12.283-1.906z" class="colorbbbfe2 svgShape"></path><path fill="url(#s)" d="M165.071 771.697a3.767 3.767 0 0 0-1.577-1.582 8.125 8.125 0 0 0-4.177-.93c-1.627.036-3.264.036-4.896-.007-3.509-.02-5.213 1.425-5.718 2.52l-.776 1.702-.043 15.348.776-1.703c.505-1.098 2.209-2.543 5.717-2.516 1.635.043 3.272.04 4.895 0a8.204 8.204 0 0 1 4.178.93 3.796 3.796 0 0 1 1.577 1.586l.796 1.703.043-15.348Z"></path><path fill="#f0f2f5" d="m200.478 759.842 2.148 1.238-8.968 5.215-2.158-1.246a8.915 8.915 0 0 0-7.14-.512 66.502 66.502 0 0 1-4.241 1.418c-3.055.996-3.281 2.742-2.766 3.84l.796 1.699-12.283 1.906-.795-1.703a3.767 3.767 0 0 0-1.577-1.582 8.125 8.125 0 0 0-4.177-.93c-1.627.036-3.264.036-4.896-.007-3.509-.02-5.213 1.425-5.718 2.52l-.776 1.702-12.305-1.906.783-1.703c.404-.899.312-2.23-1.42-3.23a7.406 7.406 0 0 0-1.4-.606 67.988 67.988 0 0 1-4.247-1.418 8.884 8.884 0 0 0-7.143.512l-2.14 1.246-9.03-5.215 2.144-1.242c1.38-.801 2.677-2.387.87-4.137a30.544 30.544 0 0 1-2.468-2.457 4.751 4.751 0 0 0-1.05-.809 9.09 9.09 0 0 0-5.588-.812l-2.926.465-3.332-7.125 2.932-.453c1.894-.301 4.378-1.29 4.32-3.328a18.043 18.043 0 0 1-.004-2.832 2.798 2.798 0 0 0-1.633-2.415 8.068 8.068 0 0 0-2.738-.91l-2.942-.457 3.257-7.117 2.946.457c1.896.293 4.906.152 6.608-1.617a30.386 30.386 0 0 1 2.438-2.461c1.788-1.75.475-3.336-.917-4.137l-2.156-1.246 8.969-5.215 2.162 1.25a8.9 8.9 0 0 0 7.137.516q2.075-.773 4.24-1.422c3.054-.992 3.281-2.738 2.767-3.84l-.795-1.695 12.283-1.91.79 1.703a3.764 3.764 0 0 0 1.578 1.578 8.107 8.107 0 0 0 4.181.934 93.184 93.184 0 0 1 4.897.007c3.51.024 5.218-1.421 5.715-2.523l.779-1.7 12.302 1.911-.776 1.695c-.408.903-.32 2.239 1.414 3.239a7.09 7.09 0 0 0 1.395.601q2.172.65 4.257 1.422a8.87 8.87 0 0 0 7.138-.52l2.143-1.246 9.026 5.215-2.143 1.246c-1.38.801-2.678 2.383-.866 4.141a30.565 30.565 0 0 1 2.462 2.457 5.014 5.014 0 0 0 1.047.805 9.048 9.048 0 0 0 5.591.808l2.931-.457 3.333 7.121-2.94.453c-1.892.301-4.376 1.293-4.315 3.329a18.692 18.692 0 0 1 .007 2.835 2.8 2.8 0 0 0 1.63 2.415 8.32 8.32 0 0 0 2.743.91l2.935.453-3.257 7.125-2.94-.465c-1.897-.289-4.91-.152-6.614 1.621a29.128 29.128 0 0 1-2.438 2.457c-1.789 1.75-.472 3.336.924 4.14Zm-60.213-10.61c9.093 5.25 23.796 5.243 32.829-.004 9.039-5.253 8.99-13.765-.104-19.015-9.093-5.25-23.794-5.254-32.833 0-9.032 5.25-8.988 13.77.108 19.02Z" class="colorf0f0f5 svgShape"></path><path fill="#cee1f4" d="m147.927 773.4-.043 15.348-12.303-1.906.041-15.348 12.305 1.906z" class="colorced2f4 svgShape"></path><path fill="#e0e5eb" d="M179.629 727.615c-12.802-7.39-33.491-7.394-46.216 0-6.057 3.52-9.208 8.082-9.469 12.695.248 4.668 3.45 9.305 9.62 12.864 12.8 7.386 33.491 7.383 46.206-.008 6.063-3.524 9.215-8.082 9.479-12.695-.25-4.668-3.453-9.293-9.62-12.856Zm-6.681 21.617c-8.97 5.207-23.571 5.211-32.6 0-4.275-2.468-6.535-5.664-6.78-8.894.256-3.196 2.477-6.344 6.673-8.778 8.975-5.218 23.572-5.214 32.605-.003 4.272 2.468 6.53 5.664 6.776 8.894-.256 3.191-2.477 6.336-6.674 8.781Z" class="colore0e0eb svgShape"></path><path fill="url(#t)" d="M133.413 727.615c12.725-7.394 33.414-7.39 46.216 0 6.167 3.559 9.367 8.184 9.62 12.848.29-5.07-2.913-10.203-9.62-14.074-12.802-7.395-33.491-7.403-46.216 0-6.591 3.828-9.74 8.89-9.469 13.914.266-4.61 3.418-9.168 9.469-12.688Z"></path><path fill="#3e9eff" d="m780.856 920.127-18.366-10.603q-1.285-.742-2.508-1.508l7.207-3.833q1.086.681 2.23 1.34l18.365 10.604Zm41.57 24-20.785-12 6.929-4 20.784 12Zm-79.138-51.16a34.017 34.017 0 0 1-6.671-17.449l9.79-.238a30.24 30.24 0 0 0 5.932 15.52Zm-2.584-35.154a50.311 50.311 0 0 1 14.412-15.816l7.735 3.472a44.746 44.746 0 0 0-12.81 14.057Zm42.045-24.333-6.928-4 16.738-9.664a72.509 72.509 0 0 0 3.682-2.273l7.376 3.723a81.393 81.393 0 0 1-4.13 2.55Zm27.69-29.548a29.418 29.418 0 0 0 5.193-15.61l9.797.085a33.062 33.062 0 0 1-5.839 17.546Zm.812-31.299a46.884 46.884 0 0 0-13.478-13.847l7.568-3.594a52.757 52.757 0 0 1 15.163 15.58Zm-199.926-121.8-20.785-12 6.928-4 20.785 12Zm-41.57-24-20.784-12 6.928-4 20.785 12Zm-41.569-24-20.784-12 6.928-4 20.784 12Zm-41.569-24-20.785-12 6.929-4 20.784 12Zm290.985 168-20.784-12 6.928-4 20.785 12Zm-41.569-24-20.784-12 6.928-4 20.784 12Zm-41.569-24-20.785-12 6.928-4 20.785 12Zm-41.57-24-20.784-12 6.928-4 20.785 12Zm-204.899-122.59a35.86 35.86 0 0 1-8.025-17.26l9.761-.491a31.893 31.893 0 0 0 7.136 15.349Zm-5.317-35.054a46.629 46.629 0 0 1 13.158-16.176l8 3.266a41.453 41.453 0 0 0-11.696 14.379Zm40.504-25.005-6.928-4 20.784-12 6.929 4Zm41.569-24-6.928-4 20.784-12 6.928 4Zm41.569-24-6.928-4 20.784-12 6.928 4Zm41.568-24-6.928-4 20.784-12 6.929 4Zm41.569-24-6.928-4 20.784-12 6.929 4Zm41.569-24-6.928-4 19.201-11.086 6.928 4Z" class="colorffd03e svgShape"></path><path fill="#f6f8fb" d="M286.61 332.626 493.305 213.29l-5.546-3.204-5.549-3.204-206.697 119.337 5.548 3.203 5.549 3.204z" class="colorf6f6fb svgShape"></path><path fill="#e100b8" d="M493.305 402.716 286.61 522.052V332.626L493.305 213.29v189.426z" class="colore19100 svgShape"></path><path fill="#cee3f8" d="m286.61 522.052-11.097-6.409V326.219l11.097 6.407v189.426z" class="colorced3f8 svgShape"></path><path style="mix-blend-mode:multiply" fill="url(#u)" d="M493.305 402.716 286.61 522.051h265.82l206.696-119.335H493.305z"></path><path fill="#bbd0e6" d="m1305.788 276.465-148.455 85.709V172.748l148.455-85.709v189.426z" class="colorbbc0e6 svgShape"></path><path fill="#cee3f8" d="m1157.333 362.174-11.094-6.407V166.341l11.094 6.407v189.426z" class="colorced3f8 svgShape"></path><path fill="#f6f8fb" d="m1305.788 87.039-11.1-6.407-148.449 85.709 11.094 6.407 148.455-85.709z" class="colorf6f6fb svgShape"></path><path style="mix-blend-mode:multiply" fill="url(#f)" d="M403.979 616.327h218.026v174.39H403.979z"></path><path style="mix-blend-mode:multiply" fill="url(#d)" d="M475.009 664.025h-45.414l28.388 16.899-28.388 16.398h45.414l28.826-16.644-28.826-16.653z"></path><path fill="#bbd0e6" d="m429.595 697.322 28.388-16.398v-33.285l-28.388 16.386v33.297z" class="colorbbc0e6 svgShape"></path><path fill="#cee3f8" d="m429.595 697.322-28.391-16.398v-33.285l28.391 16.386v33.297z" class="colorced3f8 svgShape"></path><path fill="#f6f8fb" d="m429.595 664.025-28.391-16.386 28.391-16.387 28.388 16.387-28.388 16.386z" class="colorf6f6fb svgShape"></path><path fill="#5046e4" d="m415.075 619.299-142.902 82.504V512.379l142.902-82.506v189.426z" class="color5652cc svgShape"></path><path fill="#cee3f8" d="m403.979 790.717-154.001-88.91V512.381l154.001 88.91v189.426z" class="colorced3f8 svgShape"></path><path fill="#bbd0e6" d="m415.073 784.31-11.094 6.407V601.291l11.094-6.406V784.31z" class="colorbbc0e6 svgShape"></path><path fill="#f6f8fb" d="m415.073 594.885-142.9-82.506 142.902-82.506-5.549-3.204-5.547-3.203-154.001 88.915 154.001 88.91 11.094-6.406z" class="colorf6f6fb svgShape"></path><path style="mix-blend-mode:multiply" fill="url(#b)" d="m1598.2 361.791-143.961.38-296.905 171.419H849.33l296.909 171.42h328.096l-179.778-103.795L1598.2 425.906v-64.115z"></path><path style="mix-blend-mode:multiply" fill="url(#v)" d="M854.883 365.375 563.526 533.592h328.095l291.357-168.217H854.883z"></path><path d="M1263 567.061c-11.558-6.671-26.92-9.744-42.005-9.296h-23.65v3.877a62.897 62.897 0 0 0-12.518 5.42c-21.508 12.505-21.379 32.78.262 45.284a63.16 63.16 0 0 0 12.256 5.308v4.051h28.365c13.642-.23 27.168-3.324 37.549-9.355 21.51-12.508 21.404-32.783-.258-45.289Z" style="mix-blend-mode:multiply" fill="url(#w)"></path><path fill="#4ca5ff" d="M1145.663 575.02c0-8 5.281-15.998 15.853-22.103 10.575-6.106 24.428-9.156 38.286-9.156 13.853 0 27.707 3.05 38.277 9.156 10.57 6.105 15.86 14.101 15.86 22.101.003 7.999-5.282 15.996-15.86 22.105-10.566 6.102-24.422 9.152-38.274 9.152-13.855 0-27.712-3.05-38.28-9.156-10.575-6.105-15.86-14.102-15.862-22.099Z" class="colorffe54c svgShape"></path><path fill="url(#c)" d="M1238.079 597.123c-10.566 6.102-24.422 9.152-38.274 9.152-13.855 0-27.712-3.05-38.28-9.156-10.575-6.105-15.86-14.102-15.862-22.099v15.431c.002 7.996 5.287 15.992 15.861 22.098 10.569 6.105 24.426 9.156 38.281 9.156 13.852 0 27.708-3.05 38.274-9.152 10.578-6.106 15.863-14.106 15.86-22.106v-15.429c.003 7.999-5.282 15.996-15.86 22.105Z"></path><path fill="#3e9eff" d="M1168.716 592.963c8.582 4.96 19.836 7.441 31.09 7.441 11.251 0 22.501-2.48 31.083-7.437 7.924-4.57 12.182-10.458 12.791-16.443-.609-5.986-4.867-11.869-12.79-16.445-8.586-4.957-19.836-7.436-31.088-7.436s-22.504 2.479-31.092 7.436c-7.922 4.574-12.178 10.455-12.79 16.443.612 5.987 4.868 11.873 12.796 16.44Z" class="colorffd03e svgShape"></path><path fill="#e100b8" d="M1168.71 560.079c8.588-4.957 19.84-7.436 31.092-7.436s22.502 2.479 31.087 7.436c7.924 4.576 12.182 10.459 12.791 16.445a14.398 14.398 0 0 0 .086-1.506c0-6.498-4.29-12.99-12.877-17.947-8.585-4.957-19.835-7.44-31.087-7.44s-22.504 2.481-31.092 7.44c-8.586 4.957-12.875 11.451-12.875 17.95a14.919 14.919 0 0 0 .086 1.501c.611-5.988 4.867-11.869 12.789-16.443Z" class="colore19100 svgShape"></path><path fill="#e100b8" d="m1221.462 568.563 4.158-2.4v-3.008l-4.158 2.399v3.009z" class="colore19100 svgShape"></path><path fill="#4ca5ff" d="M1202.278 573.589c-1.55-.895-2.406-2.086-2.406-3.35 0-1.265.855-2.457 2.408-3.353a12.85 12.85 0 0 1 11.61 0c3.2 1.847 3.2 4.855 0 6.703l5.273 3.045c5.195-3.004 5.951-7.602 2.299-11.08l4.158-2.399-5.268-3.045-4.16 2.403c-6.017-2.106-13.984-1.67-19.183 1.332-2.96 1.709-4.588 3.978-4.586 6.394-.002 2.412 1.629 4.684 4.586 6.389 3.203 1.851 3.203 4.86 0 6.709a12.855 12.855 0 0 1-11.612 0c-3.201-1.85-3.201-4.858 0-6.703l-5.267-3.045c-5.2 3.004-5.957 7.601-2.309 11.076l-3.832 2.213 5.27 3.046 3.834-2.22c6.021 2.11 13.988 1.677 19.187-1.324 6.104-3.526 6.104-9.262-.002-12.791Z" class="colorffe54c svgShape"></path><path fill="#fc06cf" d="m1173.989 589.889 5.27 3.043v-3.008l-5.27-3.046v3.011z" class="colorfcba06 svgShape"></path><path fill="#e100b8" d="m1179.259 592.932 3.834-2.215v-3.013l-3.834 2.22v3.008z" class="colore19100 svgShape"></path><path fill="#fc06cf" d="m1213.889 576.597 5.274 3.045v-3.008l-5.274-3.045v3.008z" class="colorfcba06 svgShape"></path><path fill="#e100b8" d="M1185.397 579.642v-3.008c-2.271 1.31-2.922 3.203-1.97 4.853a5.227 5.227 0 0 1 1.97-1.845Z" class="colore19100 svgShape"></path><path fill="#fc06cf" d="m1175.56 579.835.007 3.387.006-.008a5.788 5.788 0 0 0 .654 2.373l1.594-.922a6.458 6.458 0 0 1-2.252-4.822ZM1197.009 579.638a5.317 5.317 0 0 1 1.972 1.85c.951-1.651.299-3.544-1.972-4.86-2.957-1.705-4.588-3.977-4.586-6.389v3.008c-.002 2.414 1.629 4.686 4.586 6.39ZM1206.856 579.968v-.06h-.004c0 .019.004.038.004.06Z" class="colorfcba06 svgShape"></path><path fill="#e100b8" d="M1223.718 570.233c.007 2.317-1.5 4.635-4.555 6.4v3.009c3.133-1.809 4.637-4.198 4.55-6.575l.012.016v-2.85Z" class="colore19100 svgShape"></path><path fill="url(#x)" d="M1202.28 586.38c-5.2 3-13.166 3.434-19.187 1.324v3.013c6.021 2.105 13.988 1.672 19.187-1.332 3.027-1.747 4.55-4.04 4.576-6.34V580c-.004 2.31-1.531 4.621-4.576 6.38Z"></path><path fill="#e100b8" d="M1213.89 566.886a12.85 12.85 0 0 0-11.61 0c-1.553.896-2.408 2.088-2.408 3.353a2.995 2.995 0 0 0 .428 1.502 5.287 5.287 0 0 1 1.98-1.846 12.845 12.845 0 0 1 11.61-.002 5.195 5.195 0 0 1 1.97 1.852c.955-1.652.301-3.549-1.97-4.86Z" class="colore19100 svgShape"></path><path fill="#fc06cf" d="m769.559 401.824-142.904-82.505V129.893l142.904 82.505v189.426z" class="colorfcba06 svgShape"></path><path fill="#5046e4" d="m854.886 365.377-291.36 168.215V344.166l291.36-168.215v189.426z" class="color5652cc svgShape"></path><path fill="#bbd0e6" d="m1008.888 276.463-142.905 82.506V169.543l142.905-82.505v189.425z" class="colorbbc0e6 svgShape"></path><path fill="#857dfb" d="M1140.688 530.385 854.886 365.377V175.951l285.802 165.008v189.426z" class="color807dfb svgShape"></path><path style="mix-blend-mode:multiply" fill="url(#e)" d="M996.63 447.214 854.886 175.951v189.426l141.744 81.837z"></path><path fill="#bbd0e6" d="M1454.239 362.171 1014.43 616.096V426.667l439.809-253.922v189.426z" class="colorbbc0e6 svgShape"></path><path fill="#cee3f8" d="M1146.239 705.01 849.331 533.59V344.164l296.908 171.419V705.01z" class="colorced3f8 svgShape"></path><path fill="#bbd0e6" d="m1157.333 698.6-11.094 6.41V515.583l11.094-6.408V698.6z" class="colorbbc0e6 svgShape"></path><path fill="#f6f8fb" d="m552.43 337.759 5.547 3.203 5.549 3.204 148.453-85.709 142.907-82.506 142.906 82.505 142.896 82.503-137.357 79.305-142.902-82.507-11.098 6.407 148.455 85.709 148.453 85.71 11.094-6.408-142.903-82.508 142.903-82.503 148.453-85.709-11.1-6.409-142.9 82.508-142.9-82.506-142.903-82.505 142.905-82.505-11.096-6.408-148.453 85.709h-.002l-68.68 39.653-142.904-82.507-11.098 6.408 142.904 82.505-68.673 39.65h-.002L552.43 337.759zM1443.141 166.337l-148.451 85.709 11.096 6.409 148.453-85.71-11.098-6.408z" class="colorf6f6fb svgShape"></path><path fill="#cee3f8" d="m563.526 533.592-11.096-6.408V337.759l11.096 6.407v189.426z" class="colorced3f8 svgShape"></path><path style="mix-blend-mode:multiply" fill="url(#y)" d="M849.331 438.934v-35.655h-42.592l30.4 18.097-30.4 17.558h42.592z"></path><path fill="#e100b8" d="m806.739 438.934 30.4-17.558v-35.648l-30.4 17.551v35.655z" class="colore19100 svgShape"></path><path fill="#fc06cf" d="m806.739 438.934-30.404-17.558v-35.648l30.404 17.551v35.655z" class="colorfcba06 svgShape"></path><path fill="#3e9eff" d="m806.739 403.279-30.404-17.551 30.404-17.547 30.4 17.547-30.4 17.551z" class="colorffd03e svgShape"></path><path style="mix-blend-mode:multiply" fill="url(#z)" d="M824.979 367.169h-26.408l16.508 9.827-16.508 9.534h26.408l16.762-9.679-16.762-9.682z"></path><path fill="#bbd0e6" d="m798.571 386.53 16.508-9.534v-19.357l-16.508 9.53v19.361z" class="colorbbc0e6 svgShape"></path><path fill="#cee3f8" d="m798.571 386.53-16.51-9.534v-19.357l16.51 9.53v19.361z" class="colorced3f8 svgShape"></path><path fill="#ffffff" d="m798.571 367.169-16.51-9.53 16.51-9.529 16.508 9.529-16.508 9.53z" class="colorffffff svgShape"></path><path style="mix-blend-mode:multiply" fill="url(#A)" d="m1003.336 793.923-142.907 82.505 285.81-.674 142.908-82.505-285.811.674z"></path><path style="mix-blend-mode:multiply" fill="url(#B)" d="m1300.241 793.92-148.453 85.711 255.519-.674 148.454-85.711-255.52.674z"></path><path style="mix-blend-mode:multiply" fill="url(#C)" d="m1598.2 616.353-286.863-.673 148.453 86.119-148.453 85.711 286.863-.674V616.353z"></path><path fill="#857dfb" d="M992.237 787.514 700.88 619.299V429.873l291.357 168.215v189.426z" class="color807dfb svgShape"></path><path fill="#cee3f8" d="m1443.141 705.006-148.453-85.707V429.873l148.453 85.709v189.424z" class="colorced3f8 svgShape"></path><path fill="#bbd0e6" d="m1003.331 793.92-142.902 82.508V687.002l142.902-82.508V793.92zM1300.241 793.92l-148.453 85.711V690.205l148.453-85.711V793.92zM1459.79 701.799l-148.451 85.715v-189.43l148.451-85.708v189.423z" class="colorbbc0e6 svgShape"></path><path fill="#cee3f8" d="m1426.696 866.928-126.455-73.008V604.494l126.455 73.008v189.426z" class="colorced3f8 svgShape"></path><path fill="#bbd0e6" d="m1437.792 860.521-11.096 6.407V677.502l11.096-6.406v189.425z" class="colorbbc0e6 svgShape"></path><path fill="#cee3f8" d="m1151.788 879.631-148.455-85.711V604.494l148.455 85.711v189.426zM860.429 876.428l-11.094-6.411V680.592l11.094 6.41v189.426z" class="colorced3f8 svgShape"></path><path fill="#f6f8fb" d="m1459.788 512.379-154-88.913-11.1 6.407 142.905 82.506-142.903 82.506h-.004l-142.902 82.507-142.902-82.507-148.452-85.71-.001.002v-.002l-148.452-85.709-11.097 6.407 148.453 85.71 142.904 82.505-142.902 82.504 11.094 6.41 142.904-82.508 148.455 85.711 148.453-85.711 126.455 73.008 11.096-6.406-126.453-73.012 148.449-85.705z" class="colorf6f6fb svgShape"></path><path style="mix-blend-mode:multiply" fill="url(#D)" d="m1145.078 875.757-141.745-271.263V793.92l141.745 81.837z"></path><path style="mix-blend-mode:multiply" fill="url(#E)" d="M1426.696 866.928v-20.432l-126.455-242.002V793.92l126.455 73.008z"></path><path style="mix-blend-mode:multiply" fill="url(#F)" d="M1018.929 779.373H690.834l21.147 11.346-302.453 174.619h328.095l302.453-174.619-21.147-11.346z"></path><path fill="#f6f8fb" d="M700.884 594.885 552.43 680.592 409.53 763.1l-115.59-66.739-11.097 6.406 126.685 73.145 153.998-88.91 148.451-85.711-5.547-3.203-5.546-3.203z" class="colorf6f6fb svgShape"></path><path fill="#cee3f8" d="m409.528 965.338-126.685-73.145V702.767l126.685 73.145v189.426z" class="colorced3f8 svgShape"></path><path fill="#bbd0e6" d="M711.977 790.717 409.528 965.338V775.912l302.449-174.621v189.426z" class="colorbbc0e6 svgShape"></path><path style="mix-blend-mode:multiply" fill="url(#G)" d="M700.886 959.162h218.026v174.39H700.886z"></path><path fill="#bbd0e6" d="m711.977 962.135-142.902 82.504V855.213l142.902-82.508v189.43z" class="colorbbc0e6 svgShape"></path><path fill="#f6f8fb" d="m706.43 769.506-5.546-3.207-154.002 88.914 154.002 88.914 11.093-6.41-142.902-82.504 142.902-82.508-5.547-3.199z" class="colorf6f6fb svgShape"></path><path fill="#cee3f8" d="m700.886 1133.553-154.004-88.914V855.213l154.004 88.914v189.426z" class="colorced3f8 svgShape"></path><path fill="#bbd0e6" d="m711.977 1127.142-11.091 6.411V944.127l11.091-6.41v189.425z" class="colorbbc0e6 svgShape"></path><path style="mix-blend-mode:multiply" fill="url(#H)" d="M1117.96 850.939h-46.789l29.248 17.411-29.248 16.894h46.789l29.699-17.148-29.699-17.157z"></path><path fill="#bbd0e6" d="m1071.171 885.244 29.248-16.894v-34.293l-29.248 16.882v34.305z" class="colorbbc0e6 svgShape"></path><path fill="#cee3f8" d="m1071.171 885.244-29.25-16.894v-34.293l29.25 16.882v34.305z" class="colorced3f8 svgShape"></path><path fill="#f6f8fb" d="m1071.171 850.939-29.25-16.882 29.25-16.883 29.248 16.883-29.248 16.882z" class="colorf6f6fb svgShape"></path><path style="mix-blend-mode:multiply" fill="url(#I)" d="M742.542 1135.26h-58.19l36.373 21.652-36.373 21.004h58.19l36.933-21.324-36.933-21.332z"></path><path fill="#bbd0e6" d="m684.352 1177.916 36.373-21.004v-42.648l-36.373 20.996v42.656z" class="colorbbc0e6 svgShape"></path><path fill="#cee3f8" d="m684.352 1177.916-36.375-21.004v-42.648l36.375 20.996v42.656z" class="colorced3f8 svgShape"></path><path fill="#f6f8fb" d="m684.352 1135.26-36.375-20.996 36.375-20.997 36.373 20.997-36.373 20.996z" class="colorf6f6fb svgShape"></path><path style="mix-blend-mode:multiply" fill="url(#J)" d="M1505.573 378.559h-58.189l36.373 21.653-36.373 21.006h58.189l36.934-21.326-36.934-21.333z"></path><path fill="#bbd0e6" d="m1447.384 421.218 36.373-21.006v-42.649l-36.373 20.996v42.659z" class="colorbbc0e6 svgShape"></path><path fill="#cee3f8" d="m1447.384 421.218-36.375-21.006v-42.649l36.375 20.996v42.659z" class="colorced3f8 svgShape"></path><path fill="#f6f8fb" d="m1447.384 378.559-36.375-20.996 36.375-20.996 36.373 20.996-36.373 20.996z" class="colorf6f6fb svgShape"></path><path style="mix-blend-mode:multiply" fill="url(#K)" d="M537.323 1045.572h-34.877l21.801 12.977-21.801 12.59h34.877l22.137-12.782-22.137-12.785z"></path><path fill="#6822a2" d="m502.446 1071.139 21.801-12.59v-25.563l-21.801 12.586v25.567z" class="color423eaf svgShape"></path><path fill="#5046e4" d="m502.446 1071.139-21.803-12.59v-25.563l21.803 12.586v25.567z" class="color5652cc svgShape"></path><path fill="#857dfb" d="m502.446 1045.572-21.803-12.586 21.803-12.582 21.801 12.582-21.801 12.586z" class="color807dfb svgShape"></path><path style="mix-blend-mode:multiply" fill="url(#L)" d="M1471.077 433.243H1436.2l21.801 12.977-21.801 12.591h34.877l22.137-12.783-22.137-12.785z"></path><path fill="#6822a2" d="m1436.2 458.811 21.801-12.591v-25.561l-21.801 12.584v25.568z" class="color423eaf svgShape"></path><path fill="#5046e4" d="m1436.2 458.811-21.803-12.591v-25.561l21.803 12.584v25.568z" class="color5652cc svgShape"></path><path fill="#857dfb" d="m1436.2 433.243-21.803-12.584 21.803-12.584 21.801 12.584-21.801 12.584z" class="color807dfb svgShape"></path><path style="mix-blend-mode:multiply" fill="url(#M)" d="M393.405 1119.685h-29.869l18.67 11.114-18.67 10.781h29.869l18.957-10.945-18.957-10.95z"></path><path fill="#bbd0e6" d="m363.536 1141.58 18.67-10.781v-21.891l-18.67 10.777v21.895z" class="colorbbc0e6 svgShape"></path><path fill="#cee3f8" d="m363.536 1141.58-18.672-10.781v-21.891l18.672 10.777v21.895z" class="colorced3f8 svgShape"></path><path fill="#f6f8fb" d="m363.536 1119.685-18.672-10.777 18.672-10.777 18.67 10.777-18.67 10.777z" class="colorf6f6fb svgShape"></path><path style="mix-blend-mode:multiply" fill="url(#N)" d="M1116.296 888.244H1085.7l19.125 11.383-19.125 11.047h30.596l19.422-11.211-19.422-11.219z"></path><path fill="#bbd0e6" d="m1085.7 910.674 19.125-11.047v-22.426l-19.125 11.043v22.43z" class="colorbbc0e6 svgShape"></path><path fill="#cee3f8" d="m1085.7 910.674-19.127-11.047v-22.426l19.127 11.043v22.43z" class="colorced3f8 svgShape"></path><path fill="#f6f8fb" d="m1085.7 888.244-19.127-11.043 19.127-11.039 19.125 11.039-19.125 11.043z" class="colorf6f6fb svgShape"></path><path style="mix-blend-mode:multiply" fill="url(#O)" d="M1173.706 1077.861h-53.889l33.694 20.051-33.694 19.449h53.889l34.203-19.742-34.203-19.758z"></path><path fill="#b9cee4" d="m1119.817 1117.361 33.694-19.449v-39.496l-33.694 19.445v39.5z" class="colorb9bee4 svgShape"></path><path fill="#cce1f6" d="m1119.817 1117.361-33.695-19.449v-39.496l33.695 19.445v39.5z" class="colorccd1f6 svgShape"></path><path fill="#f4f6f8" d="m1119.817 1077.861-33.695-19.445 33.695-19.445 33.694 19.445-33.694 19.445z" class="colorf4f4f9 svgShape"></path><path fill="#dfe9f4" d="m1132.665 1058.416-12.848-7.414-12.851 7.414 12.851 7.414 12.848-7.414z" class="colordfe4f4 svgShape"></path><path d="M856.587 930.17c-6.018-3.477-14.018-5.078-21.875-4.84h-12.32v2.016a32.745 32.745 0 0 0-6.518 2.824c-11.201 6.515-11.137 17.07.137 23.586a32.447 32.447 0 0 0 6.38 2.761v2.11h14.776c7.107-.117 14.148-1.727 19.556-4.867 11.204-6.52 11.145-17.075-.136-23.59Z" style="mix-blend-mode:multiply" fill="url(#g)"></path><path fill="url(#h)" d="M803.32 953.767c-5.675-3.277-8.515-7.582-8.499-11.875l.024-9.792c-.01 4.3 2.822 8.597 8.5 11.878 11.28 6.512 29.507 6.512 40.709 0 5.568-3.234 8.357-7.464 8.37-11.707l-.029 9.79c-.01 4.238-2.795 8.472-8.361 11.706-11.205 6.516-29.434 6.516-40.715 0Z"></path><path fill="#f6f8fb" d="M803.345 943.978c-11.278-6.511-11.34-17.07-.137-23.582 11.207-6.511 29.441-6.511 40.715 0 11.283 6.512 11.336 17.07.13 23.582-11.2 6.512-29.427 6.512-40.708 0Z" class="colorf6f6fb svgShape"></path><path fill="#cee3f8" d="m839.925 938.572-17.176-9.918 3.781-2.183-17.316-2.606 4.517 9.996 3.78-2.183 17.175 9.914 5.239-3.02z" class="colorced3f8 svgShape"></path><path d="M659.071 556.364c-6.017-3.472-14.02-5.076-21.875-4.84h-12.322v2.018a32.71 32.71 0 0 0-6.518 2.822c-11.201 6.516-11.135 17.072.139 23.586a32.498 32.498 0 0 0 6.379 2.764v2.11h14.777c7.106-.118 14.149-1.73 19.557-4.87 11.201-6.518 11.144-17.074-.137-23.59Z" style="mix-blend-mode:multiply" fill="url(#P)"></path><path fill="url(#Q)" d="M605.804 579.962c-5.674-3.28-8.514-7.58-8.5-11.875l.025-9.793c-.01 4.3 2.82 8.6 8.498 11.879 11.283 6.51 29.51 6.51 40.71.002 5.57-3.239 8.356-7.467 8.372-11.71l-.03 9.79c-.009 4.24-2.794 8.472-8.363 11.709-11.205 6.512-29.433 6.512-40.712-.002Z"></path><path fill="#f6f8fb" d="M605.827 570.173c-11.275-6.512-11.338-17.07-.135-23.58 11.207-6.514 29.442-6.514 40.715 0 11.283 6.51 11.336 17.068.13 23.582-11.2 6.508-29.427 6.508-40.71-.002Z" class="colorf6f6fb svgShape"></path><path fill="#cee3f8" d="M640.1 560.622v-3.582h-10.045v-5.797l-6.197-.002v5.799h-10.049v3.582h10.049v5.801l6.197-.002v-5.799H640.1z" class="colorced3f8 svgShape"></path><path d="M927.893 664.717v111.578l-18.22 10.52-.002-89.262-1.657.957-13.527 35.863-19.049 11 24.848-64.715ZM752.337 476.249c18.773 10.838 34.926 34.191 34.926 57.143 0 21.996-11.458 25.582-31.75 19.767-13.528-3.828-20.706-4.621-20.706 5.74l-.002 1.907 51.903 29.965v19.13l-70.123-40.484v-19.131c0-20.243 12.562-22.871 30.369-18.17 13.805 3.666 22.086 3.186 22.086-9.883 0-10.997-6.486-21.276-16.426-27.016-9.937-5.738-18.36-4.065-18.36 10.441v3.505l-18.22-10.52v-3.824c0-26.141 16.703-29.888 36.303-18.57ZM481.524 236.76l-.002 18.492-26.779 40.645.002 1.912 3.588-2.073c13.39-7.73 25.4-3.983 25.4 16.26 0 22.634-14.91 45.905-36.443 58.339-23.053 13.308-36.994 5.576-36.992-16.58l-.002-4.461 18.22-10.52-.002 3.826c.002 10.838 6.489 16.019 18.774 8.924 11.459-6.614 18.225-18.329 18.225-29.008 0-10.68-6.49-12.196-15.739-6.856l-16.842 9.724v-18.807l23.881-36.422-43.758 25.264V276.29Z" style="mix-blend-mode:multiply" fill="#d1e2f3" class="colord1d7f3 svgShape"></path><path fill="#bbd0e6" d="M596.962 389.09c0-18.107 12.713-40.122 28.39-49.176 15.68-9.053 28.393-1.714 28.393 16.393s-12.713 40.124-28.393 49.174c-15.677 9.055-28.39 1.715-28.39-16.39Z" class="colorbbc0e6 svgShape"></path><path fill="url(#R)" d="M638.83 334.132c-5.148-3.046-12.288-2.656-20.19 1.906-15.682 9.054-28.393 31.07-28.393 49.175 0 9.446 3.478 15.924 9.014 18.712l-.016.031 5.756 3.321c-4.969-3.035-8.04-9.306-8.04-18.186 0-18.108 12.714-40.123 28.391-49.177 7.836-4.52 14.924-4.952 20.06-1.997l-6.575-3.794Zm6.612 3.804c.04.022.07.05.106.073l.006-.009Zm-39.482 69.896.017-.031c-.129-.066-.265-.116-.394-.185Z"></path><path fill="#f6f8fb" d="M646.093 359.174c0-6.645-2.221-11.396-5.827-13.85-3.931-1.9-9.154-1.447-14.914 1.876-12.191 7.041-22.082 24.165-22.082 38.247 0 6.646 2.223 11.396 5.83 13.853 3.928 1.898 9.155 1.444 14.91-1.878 12.198-7.042 22.083-24.165 22.083-38.248Z" class="colorf6f6fb svgShape"></path><path fill="#cee3f8" d="M640.266 345.323c3.606 2.455 5.827 7.206 5.827 13.85 0 14.084-9.885 31.207-22.082 38.249-5.756 3.322-10.983 3.776-14.91 1.878 4.035 2.747 9.812 2.614 16.251-1.104 12.2-7.04 22.082-24.165 22.082-38.247 0-7.433-2.773-12.505-7.168-14.626Z" class="colorced3f8 svgShape"></path><path fill="url(#S)" d="m637.177 377.682-12.391-7.158V355.09c0-.98-.691-1.375-1.537-.888a3.395 3.395 0 0 0-1.533 2.66v16.17a1.533 1.533 0 0 0 .117.608.837.837 0 0 0 .334.385l12.838 7.416c.6.344 1.572-.215 2.172-1.254.6-1.038.6-2.16 0-2.504Z"></path><path d="m968.823 504.276 8.074-4.662-15.283-26.47 72.83 42.048v-13.183l-72.83-42.049 15.283-8.822-8.074-13.985-29.062 16.781 29.062 50.342zM1228.091 327.312l8.074 4.663-15.283 26.469 72.83-42.048v13.184l-72.83 42.049 15.283 8.822-8.074 13.984-29.063-16.781 29.063-50.342zM569.6 774.615l-8.074-4.66 15.283-26.473-72.83 42.051V772.35l72.83-42.051-15.283-8.821 8.074-13.984 29.063 16.781-29.063 50.34z" style="mix-blend-mode:multiply" fill="#f1f3f6" class="colorf1f1f6 svgShape"></path><path style="mix-blend-mode:multiply" fill="url(#j)" d="m1044.098 1050.373-73.312.043-8.41 14.176h19.289l-4.422 7.449 66.855-.031v-21.637z"></path><path fill="#a9d2fc" d="M968.848 923.9c0 1.332-4.568 18.223-5.55 19.914-1.412 2.434-3.864 4.977-4.455 6.543a25.06 25.06 0 0 0-1.178 5.5c0 .813 1.047 3.672 2.066 3.266 1.02-.406-.467-1.89.028-2.39.205.464 1.367 1.636 2.39 1.429 1.022-.203.65-.574.65-.574.54.199 1.262.203 1.462-.211.457.152 1.226.543 1.42-.61.195-1.164.33-3.093.81-3.828 1.527-2.379 1.352-8.074 1.658-8.789.305-.71 5.918-14.765 6.395-17.734.478-2.973.418-17.887-2.203-18-2.616-.117-3.493 11.223-3.493 15.484Z" class="colorfcd1a9 svgShape"></path><path fill="url(#i)" d="M977.257 1049.63c3.107.509 4.006 5.524 2.453 8.665a11.988 11.988 0 0 1-3.4 2.094s-9.819 4.027-12.024 4.203c-2.213.18-7.12-.649-7.518-4.418.377-2.305 2.315-2.938 4.696-4.356 3.093-1.836 5.752-4.5 8.244-5.726 2.055-1.008 7.549-.461 7.549-.461Z"></path><path fill="#a9d2fc" d="M971.296 1046.443c1.513.25 6.386 1.453 6.386 1.453s1.803 5.047-1.043 5.95c-5.53 1.73-10.24-1.98-8.068-3.227 1.461-.832 2.9-1.777 2.725-4.176Z" class="colorfcd1a9 svgShape"></path><path fill="#0c2340" d="M964.352 1063.584c2.274-.18 12.377-4.324 12.377-4.324a13 13 0 0 0 3.393-2.059 6.811 6.811 0 0 1-.412 1.094 11.988 11.988 0 0 1-3.4 2.094s-9.819 4.027-12.024 4.203c-2.213.18-7.12-.649-7.518-4.418.018-.082.043-.149.057-.227 1.047 3.102 5.445 3.809 7.527 3.637Z" class="color121047 svgShape"></path><path fill="#652e93" d="M967.636 1051.365c.41-.547 1.365-2.004 3.056-.797a4.025 4.025 0 0 1 1.955 4.024c-.207 1.258-3.845.32-3.982.14-.139-.195-1.03-3.367-1.03-3.367Z" class="color362e93 svgShape"></path><path fill="#ffffff" d="M965.968 1052.932a7.425 7.425 0 0 1 3.295 3.21.992.992 0 0 0 1.322.473 1.003 1.003 0 0 0 .478-1.332 9.418 9.418 0 0 0-4.318-4.18.993.993 0 1 0-.777 1.829ZM962.9 1054.896a7.334 7.334 0 0 1 3.29 3.204.997.997 0 0 0 1.801-.856 9.317 9.317 0 0 0-4.31-4.18.996.996 0 1 0-.782 1.832Z" class="colorffffff svgShape"></path><path fill="#a9d2fc" d="M972.147 947.275c-1.494 18.485-3.968 36.082-3.968 50.914 0 16.973 2.95 34.848 3.126 49.075-.154 4.359 4.795 7.777 6.891 3.93.086-1.266-.504-2.876-.285-4.735 1.264-10.836 4.97-27.477 1.85-41.48 4.293-18.57 16.125-41.516 14.375-56.087-5.373-2.667-17.873-2.925-21.989-1.617ZM974.526 888.752c-4.85 2.39-6.619 6.02-6.619 13.246 3.309-2.027 6.62-13.246 6.62-13.246Z" class="colorfcd1a9 svgShape"></path><path fill="#6822a2" d="M977.122 954.322v3.102l2.685-1.551-2.685-1.551z" class="color423eaf svgShape"></path><path fill="url(#T)" d="M990.218 1057.088c3.111.504 4.005 5.52 2.447 8.664a11.855 11.855 0 0 1-3.395 2.09s-9.822 4.031-12.027 4.199c-2.209.184-7.113-.637-7.512-4.418.375-2.297 2.31-2.934 4.692-4.344 3.097-1.84 5.748-4.508 8.246-5.734 2.052-1.008 7.549-.457 7.549-.457Z"></path><path fill="#a9d2fc" d="M984.25 1053.896c1.516.25 6.391 1.454 6.391 1.454s1.807 5.054-1.043 5.945c-5.527 1.734-10.238-1.977-8.064-3.223 1.457-.832 2.895-1.773 2.717-4.176Z" class="colorfcd1a9 svgShape"></path><path fill="#0c2340" d="M977.313 1071.041c2.272-.184 12.377-4.32 12.377-4.32a13 13 0 0 0 3.389-2.067 6.643 6.643 0 0 1-.414 1.098 11.855 11.855 0 0 1-3.395 2.09s-9.822 4.031-12.027 4.199c-2.209.184-7.113-.637-7.512-4.418.01-.07.041-.145.055-.227 1.043 3.11 5.445 3.813 7.527 3.645Z" class="color121047 svgShape"></path><path fill="#652e93" d="M980.595 1058.814c.41-.539 1.367-2 3.052-.797a4.04 4.04 0 0 1 1.963 4.028c-.21 1.258-3.846.324-3.982.137-.14-.188-1.033-3.368-1.033-3.368Z" class="color362e93 svgShape"></path><path fill="#ffffff" d="M978.93 1060.389a7.423 7.423 0 0 1 3.293 3.207.99.99 0 0 0 1.32.476 1.003 1.003 0 0 0 .475-1.332 9.373 9.373 0 0 0-4.312-4.183.995.995 0 1 0-.776 1.832ZM975.862 1062.35a7.407 7.407 0 0 1 3.29 3.203.995.995 0 1 0 1.798-.852 9.294 9.294 0 0 0-4.31-4.187.997.997 0 1 0-.778 1.836Z" class="colorffffff svgShape"></path><path fill="#a9d2fc" d="M982.305 955.228c0 16.997-.177 35.993-.177 50.832 0 16.973 1.959 34.43 2.138 48.657-.158 4.363 4.793 7.781 6.889 3.93.086-1.27-.508-2.876-.287-4.735 1.266-10.828 4.973-27.477 1.853-41.48 4.293-18.567 10.917-38.137 6.979-57.067-5.373-2.672-13.281-1.441-17.395-.137Z" class="colorfcd1a9 svgShape"></path><path fill="url(#U)" d="M995.09 933.385c-1.408-12.805 4.635-24.883 5.745-32.883.699-5.047 1.201-10.957-3.367-12.379-4.727-1.473-6.635-2.16-10.727-2.055-9.86.242-14.484 2.27-16.492 9.059-1.89 6.39-3.229 8.336-4.787 14.61-.698 2.804 7.037 8.913 6.136 21.038-6.85 10.36-11.763 33.77-13.859 52.149-.799 5.543 4.84 12.664 14.805 17.656 12.57 6.285 27.22 6.789 32.724 1.121a7.07 7.07 0 0 0 2.077-4.742c.011-6.52-3.696-52.942-12.254-63.574Z"></path><path fill="#a9d2fc" d="M990.243 874.06c-.178-3.035-10.555 3.004-10.326 7.008.191 3.262.617 6.532-.606 6.957-1.414 1.02-5.625 11.832-3.101 14.356 8.818-3.61 13.416-11.246 21.258-14.258-3.211-.656-6.664-4.234-7.225-14.063Z" class="colorfcd1a9 svgShape"></path><path fill="#a9d2fc" d="m992.741 869.865-3.123-7.812h-19.795v11.91c0 6.578 4.432 11.914 9.898 11.914 5.3 0 9.596-5.027 9.852-11.336l1.377.043Z" class="colorfcd1a9 svgShape"></path><path fill="#9dc7f2" d="M987.86 880.646a9.56 9.56 0 0 1-7.73 5.196 3.214 3.214 0 0 1-.5 1.968 7.29 7.29 0 0 0 1.566-.144 9.501 9.501 0 0 0 6.664-7.02Z" class="colorf2c29d svgShape"></path><path fill="#193f6f" d="M981.022 853.748a.735.735 0 0 0-.185-.008c-10.801.274-11.612 8.344-11.014 9.68 3.426 1.226 5.586-1.098 7.734-.914 1.041.082 5.256.656 6.998 2.89 1.877 2.399 1.278 6.235 3.047 6.141.77-.031 1-2.61 2.145-2.672a1.928 1.928 0 0 1 1.818 2.313c-.15 1.984-2.027 3.191-1.752 4.144.461 1.574 4.41-1.254 4.342-6.887-.084-5.597-3.816-15.066-13.133-14.687Z" class="color1f196f svgShape"></path><path fill="#a9d2fc" d="M1000.155 939.47s2.12 5.29 2.127 5.29c7.398-3.856 11.736-13.934 12.162-22.067.57-10.953-10.777-29.468-11.369-30.347-2.871-4.278-9.687-.485-7.434 5.004.49 1.105 12.108 20.214 10.87 26.68-.86 4.46-2.32 12.648-6.356 15.44Z" class="colorfcd1a9 svgShape"></path><path fill="#193f6f" d="M982.386 853.764c11.476.82 12.851 12.132 17.418 15.195 2.722 1.824 8.802-1.621 12.36 4.547 4.099 7.082-2.526 9.656 1.811 12.656 4.334 3 7.672 12.156.444 17.789-7.233 5.613-16.287.676-15.266-7.562.736-5.922-1.021-8.98-6-7.063-3.728 1.43-5.152-1.512-3.478-5.305-8.287.829.404-14.984-12.118-21.515.475-3.23 4.829-8.742 4.829-8.742Z" class="color1f196f svgShape"></path><path fill="#a9d2fc" d="M1000.155 939.47c-.867.563-5.619-.558-6.744-.558a23.63 23.63 0 0 0-6.818.84c-2.586.828-4.356 1.777-2.586 2.187-.952.211-3.203 1.125-1.434 1.637.172.613.82 1.43 2.762 1.36a17.007 17.007 0 0 0 6.58 1.226c1.463.445 9.174.285 10.367-1.402a9.202 9.202 0 0 0-2.127-5.29Z" class="colorfcd1a9 svgShape"></path><path style="mix-blend-mode:multiply" fill="url(#V)" d="M891.477 1103.404h71.109v13.07h-71.109z"></path><path style="mix-blend-mode:multiply" fill="url(#W)" d="M923.807 1084.529h71.105v13.07h-71.105z"></path><path fill="url(#k)" d="M931.102 1093.58c0-10.266-6.506-10.566-6.506-10.566s-3.521 0-9.25-2.375c-5.644-2.348-13.607-1.442-9.158 6.765a2.51 2.51 0 0 0 .153.309 4.014 4.014 0 0 0 1.443 1.258l14.219 8.347c2.168 1.23 9.049-1.625 9.1-3.738Z"></path><path fill="#0c2340" d="M931.063 1092.658c-.12 2.106-6.914 4.914-9.06 3.688l-14.219-8.336a13.045 13.045 0 0 1-2.002-1.465c.127.285.24.555.406.86a2.51 2.51 0 0 0 .153.308 4.014 4.014 0 0 0 1.443 1.258l14.219 8.347c2.029 1.157 8.195-1.281 9.011-3.332a2.397 2.397 0 0 0 .063-.418 6.69 6.69 0 0 0-.014-.91Z" class="color121047 svgShape"></path><path fill="#ffffff" d="M928.456 1081.666a59.624 59.624 0 0 0-7.574 1.496 3.265 3.265 0 0 1-.528 1.531c-.056.063-.107.13-.166.2-1.162.804-2.345 2.085.416 3.82a3.832 3.832 0 0 0 4.971-.352 4.476 4.476 0 0 1 1.605-1.824 4.118 4.118 0 0 1 1.536-.645 1.113 1.113 0 0 1 .013-.144s.43-4.082-.273-4.082Z" class="colorffffff svgShape"></path><path fill="#193f6f" d="M928.561 981.271c-6.427.118-22.496.41-28.922.52 2.391 19.324 7.21 36.875 10.42 55.59 3.455 18.191 7.342 30.969 10.735 46.105 1.246 2.817 6.93 1.75 8.082-.96.898-13.938 1.933-30.923-2.197-47.009.689-17.332 2.289-36.738 1.882-54.246Z" class="color1f196f svgShape"></path><path fill="url(#X)" d="M898.69 1112.44c0-10.262-6.504-10.56-6.504-10.56s-3.525 0-9.25-2.374c-5.646-2.348-13.605-1.438-9.16 6.761a3.269 3.269 0 0 0 .156.309 3.952 3.952 0 0 0 1.444 1.262l14.215 8.344c2.17 1.234 9.048-1.622 9.1-3.743Z"></path><path fill="#0c2340" d="M898.655 1111.521c-.121 2.106-6.916 4.914-9.064 3.684l-14.215-8.328a13.898 13.898 0 0 1-2.004-1.465c.133.281.24.55.404.855a3.269 3.269 0 0 0 .156.309 3.952 3.952 0 0 0 1.444 1.262l14.215 8.344c2.027 1.156 8.199-1.278 9.011-3.329a2.077 2.077 0 0 0 .063-.421 7.046 7.046 0 0 0-.01-.91Z" class="color121047 svgShape"></path><path fill="#ffffff" d="M896.044 1100.525a59.548 59.548 0 0 0-7.57 1.504 3.346 3.346 0 0 1-.524 1.528c-.062.066-.113.132-.168.199-1.164.808-2.352 2.09.414 3.82a3.833 3.833 0 0 0 4.97-.351 4.61 4.61 0 0 1 1.6-1.82 4.133 4.133 0 0 1 1.543-.65.77.77 0 0 1 .014-.136s.426-4.094-.28-4.094Z" class="colorffffff svgShape"></path><path fill="url(#Y)" d="M908.165 1027.22c1.758-8.304 22.027-9.335 20.697-41.995-6.361-.942-38.447 14.113-44.803 13.175-.795 19.453 1.084 37.559 1.202 56.54.435 18.507 2.183 31.753 3.058 47.245.768 2.981 6.549 2.86 8.131.372 3.164-13.61 6.955-30.192 5.508-46.739 1.89-9.16 4.146-18.87 6.207-28.597Z"></path><path fill="#a50b89" d="M914.194 921.795c22.635 15.125 25.332 45.164 13.094 64.222 0 0 2.63-42.234-13.094-64.222Z" class="colorce7c05 svgShape"></path><path fill="url(#Z)" d="M915.227 1003.736c-13.775 7.735-28.195 7.746-33.103-1.754 1.838-17.699 3.56-32.101.014-49.062 1.042-9.367 1.785-10.77.583-16.238.422-1.832 6.061-5.743 10.165-9.497 4.437-4.043 7.431-7.894 9.716-8.363 18.838-3.844 27.993 29.727 26.416 65.516-1.455 9.515-7.007 15.594-13.79 19.398Z"></path><path fill="#a9d2fc" d="M913.052 920.963c-4.088-2.957-3.76-9.059-3.418-13.117a19.835 19.835 0 0 0 .765-7.004c-.601-8.926-6.816-16.262-13.752-15.309-13.978 1.91-10.982 9.137-10.38 18.067.562 8.273 4.699 13.714 11.035 14.246.095 1.367-.465 5.492-2.176 7.21 4.601 2.754 11.31 1.458 13.969.262 2.82-1.281 5.873-2.375 3.957-4.355Z" class="colorfcd1a9 svgShape"></path><path fill="#652e93" d="M891.061 881.174c.332-1.117 2.471-1.848 9.733.949.045.02 1.761.691 1.873.73 13.443 5.825 10.197 21.325 8.187 25.442a8.34 8.34 0 0 0-1.054 4.879c-5.287-.219-6.96 2.754-10.342-.207-2.432-2.121-6.063-4.61-6.67-5.653a4.132 4.132 0 0 1-.496-2.562c-.016-7.43-3.446-2.895-3.334-1.184-1.406-.683-1.31-3.672-1.219-6.992-11.412-8.516-5.287-14.39 3.322-15.402Z" class="color362e93 svgShape"></path><path fill="#a9d2fc" d="M883.757 1008.525a4.66 4.66 0 0 0 6.826.227c2.226-2.348.94-4.953 2.168-5.738 3.34-2.141 4.11-4.157 3.543-6.18-2.666 1.691-5.418 4.414-7.752 2.762-2.33-1.649-5.362-3.926-5.528-6.282-3.47.793-3.648 8.313-1.841 11.336a31.624 31.624 0 0 0 2.584 3.875Z" class="colorfcd1a9 svgShape"></path><path fill="url(#aa)" d="M888.45 1002.615c1.719 4.2.512 6.781-3.701 7.258-10.52-5.383-16.633-20.488-16.813-28.781-.3-13.836 6.416-31.203 14.95-44.825 1.984-2.93 8.377-1.82 11.525 2.34 4.262 5.614 2.437 13.793.027 17.118-6.18 9.878-13.07 17.238-13.742 25.148-.617 7.328 2.37 16.98 7.754 21.742Z"></path><path fill="url(#ab)" d="M1460.415 1137.082v170.248H1598.2v-249.793l-137.785 79.545z"></path><path fill="url(#ac)" d="m1460.415 1137.082-178.42-103.012v273.26h178.42v-170.248z"></path><path fill="#f1f5f9" d="m1460.413 931.059-178.418 103.011 178.42 103.012 137.785-79.545v-46.932l-137.787-79.546z" class="colorf1f3f9 svgShape"></path></g></g></g></svg>