<svg xmlns="http://www.w3.org/2000/svg" enable-background="new 0 0 52 52" viewBox="0 0 52 52" id="PoliceStation"><g fill="#6822a2" class="color000000 svgShape"><polygon fill="#f4f6f8" points="45.983 14.286 45.928 38.426 26.012 50 26.067 25.86" class="colore9e8e6 svgShape"></polygon><polygon fill="#d2d4d6" points="26.067 25.86 26.012 50 5.961 38.424 6.017 14.284" class="colord6d4d2 svgShape"></polygon><polygon fill="#dcdcdc" points="45.983 14.286 26.067 25.86 6.017 14.284 25.933 2.71" class="colordcdcdc svgShape"></polygon></g><g fill="#6822a2" class="color000000 svgShape"><polygon fill="#dd40c0" points="47.758 14.602 47.75 17.277 26.069 29.877 26.077 27.202" class="colorddb040 svgShape"></polygon><polygon fill="#489bef" points="26.077 27.202 26.069 29.877 4.242 17.275 4.25 14.6" class="colorefc348 svgShape"></polygon><polygon fill="#51a8ff" points="47.758 14.602 26.077 27.202 4.25 14.6 25.931 2" class="colorffd651 svgShape"></polygon><polygon fill="#dd40c0" points="7.568 14.595 9.334 15.615 25.933 5.968 25.933 3.922" class="colorddb040 svgShape"></polygon><polygon fill="#489bef" points="25.933 3.922 25.933 5.968 42.673 15.633 44.44 14.607" class="colorefc348 svgShape"></polygon><polygon fill="#404143" points="42.746 15.642 26.006 5.978 9.407 15.624 26.147 25.289" class="color434240 svgShape"></polygon></g><polygon fill="#d2d4d6" points="44.645 21.02 44.098 21.336 44.109 27.061 44.658 27.376" class="colord6d4d2 svgShape"></polygon><polygon fill="#f4f6f8" points="44.109 27.061 44.109 27.061 39.598 29.667 39.6 30.299 44.658 27.378 44.658 27.376" class="colorffffff svgShape"></polygon><polygon fill="#5046e4" points="44.098 21.336 39.586 23.94 39.598 29.667 44.109 27.061" class="color3f9ae0 svgShape"></polygon><polygon fill="#d2d4d6" points="38.521 24.558 37.974 24.874 37.985 30.599 38.533 30.914" class="colord6d4d2 svgShape"></polygon><polygon fill="#f4f6f8" points="37.985 30.599 37.985 30.599 33.474 33.204 33.476 33.837 38.533 30.915 38.533 30.914" class="colorffffff svgShape"></polygon><polygon fill="#5046e4" points="37.974 24.874 33.462 27.478 33.474 33.204 37.985 30.599" class="color3f9ae0 svgShape"></polygon><polygon fill="#d2d4d6" points="32.397 28.096 31.85 28.412 31.86 34.136 32.409 34.452" class="colord6d4d2 svgShape"></polygon><polygon fill="#f4f6f8" points="31.86 34.136 31.86 34.136 27.35 36.742 27.351 37.375 32.409 34.453 32.409 34.452" class="colorffffff svgShape"></polygon><polygon fill="#5046e4" points="31.85 28.412 27.338 31.016 27.35 36.742 31.86 34.136" class="color3f9ae0 svgShape"></polygon><g fill="#6822a2" class="color000000 svgShape"><polygon fill="#f4f6f8" points="34.712 37.268 39.088 34.723 39.1 42.396 34.726 44.95" class="colorffffff svgShape"></polygon><polygon fill="#c0c2c4" points="39.089 35.137 38.621 35.407 38.63 42.102 39.1 42.396" class="colorc4c2c0 svgShape"></polygon></g><g fill="#6822a2" class="color000000 svgShape"><g fill="#6822a2" class="color000000 svgShape"><polygon fill="#f4f6f8" points="41.718 39.578 41.473 39.436 44.956 37.425 45.2 37.567" class="colore9e8e6 svgShape"></polygon><polygon fill="#0c2340" points="41.472 40.003 41.228 39.861 41.211 34.166 41.456 34.309" class="color2d2c2b svgShape"></polygon><polygon fill="#363738" points="41.456 34.309 41.211 34.166 45.187 31.871 45.431 32.013" class="color383736 svgShape"></polygon><polygon fill="#d2d4d6" points="45.2 37.567 44.955 37.425 44.942 32.579 44.941 32.296 45.186 32.438" class="colord6d4d2 svgShape"></polygon><path fill="#404143" d="M41.45601,34.30851l3.97548-2.29525l0.01614,5.69426l-3.97548,2.29525L41.45601,34.30851z
											 M45.20031,37.56721l-0.01454-5.12896l-3.48243,2.01058l0.01454,5.12896L45.20031,37.56721" class="color434240 svgShape"></path></g><polygon fill="#f4f6f8" points="45.2 37.567 41.718 39.578 41.717 39.295 44.955 37.425" enable-background="new" class="colore9e8e6 svgShape"></polygon><polygon fill="#82b1e0" points="45.2 37.567 41.718 39.578 41.703 34.449 45.186 32.438" class="color82c6e0 svgShape"></polygon></g><g fill="#6822a2" class="color000000 svgShape"><g fill="#6822a2" class="color000000 svgShape"><polygon fill="#f4f6f8" points="28.895 46.981 28.65 46.839 32.132 44.829 32.377 44.971" class="colore9e8e6 svgShape"></polygon><polygon fill="#0c2340" points="28.649 47.406 28.404 47.264 28.388 41.57 28.633 41.712" class="color2d2c2b svgShape"></polygon><polygon fill="#363738" points="28.633 41.712 28.388 41.57 32.364 39.275 32.608 39.417" class="color383736 svgShape"></polygon><polygon fill="#d2d4d6" points="32.377 44.971 32.132 44.828 32.119 39.982 32.118 39.699 32.363 39.842" class="colord6d4d2 svgShape"></polygon><path fill="#404143" d="M28.63275,41.71202l3.97548-2.29525l0.01614,5.69426l-3.97548,2.29525L28.63275,41.71202z
											 M32.37704,44.97072l-0.01454-5.12896l-3.48242,2.01058l0.01454,5.12896L32.37704,44.97072" class="color434240 svgShape"></path></g><polygon fill="#f4f6f8" points="32.377 44.971 28.895 46.981 28.894 46.698 32.132 44.828" enable-background="new" class="colore9e8e6 svgShape"></polygon><polygon fill="#82b1e0" points="32.377 44.971 28.895 46.981 28.88 41.852 32.363 39.842" class="color82c6e0 svgShape"></polygon></g><g fill="#6822a2" class="color000000 svgShape"><g fill="#6822a2" class="color000000 svgShape"><polygon fill="#afb0b2" points="40.965 36.08 40.958 43.267 40.39 43.598 40.396 36.411" class="colorb2b0af svgShape"></polygon><polygon fill="#d2d4d6" points="40.396 36.411 40.39 43.598 39.818 43.267 39.824 36.08" class="colord6d4d2 svgShape"></polygon><polygon fill="#f4f6f8" points="40.965 36.08 40.396 36.411 39.824 36.08 40.393 35.75" class="colore9e8e6 svgShape"></polygon></g><g fill="#6822a2" class="color000000 svgShape"><polygon fill="#afb0b2" points="34.411 39.889 34.404 47.076 33.836 47.406 33.842 40.219" class="colorb2b0af svgShape"></polygon><polygon fill="#d2d4d6" points="33.842 40.219 33.836 47.406 33.264 47.076 33.271 39.889" class="colord6d4d2 svgShape"></polygon><polygon fill="#f4f6f8" points="34.411 39.889 33.842 40.219 33.271 39.889 33.839 39.559" class="colore9e8e6 svgShape"></polygon></g></g><g fill="#6822a2" class="color000000 svgShape"><g fill="#6822a2" class="color000000 svgShape"><polygon fill="#3d72b5" points="38.623 35.405 35.092 37.468 35.096 40.049 38.631 42.09" class="color3db542 svgShape"></polygon><polygon fill="#a50b89" points="32.642 38.175 34.405 39.21 40.944 35.434 39.181 34.399" class="colorcc4848 svgShape"></polygon><polygon fill="#72a4d6" points="35.096 40.049 35.103 44.195 38.631 42.102 38.631 42.09" class="color81d672 svgShape"></polygon><polygon fill="#a50b89" points="34.399 40.104 34.402 40.664 42.49 35.994 42.488 35.434" class="colorcc4848 svgShape"></polygon><polygon fill="#dd4ac2" points="31.097 38.175 31.1 38.735 34.402 40.664 34.399 40.104" class="colordd4a4a svgShape"></polygon><path fill="#f25ad6" d="M42.48783,35.43441l-8.08834,4.66981l-3.30209-1.92949l8.08834-4.6698L42.48783,35.43441z
									 M34.40452,39.20981l6.53922-3.77542l-1.76303-1.03508l-6.53922,3.77542L34.40452,39.20981" class="colorf25a5a svgShape"></path></g></g><g fill="#6822a2" class="color000000 svgShape"><polygon fill="#5046e4" points="24.709 31.915 24.696 37.531 24.376 37.717 7.32 27.87 7.333 22.254 7.653 22.069" class="color3f9ae0 svgShape"></polygon><g fill="#6822a2" class="color000000 svgShape"><polygon fill="#f4f6f8" points="7.172 27.563 7.509 27.367 7.521 22.215 7.184 22.411" class="colore9e8e6 svgShape"></polygon><polygon fill="#f4f6f8" points="24.507 37.571 24.844 37.375 7.509 27.367 7.172 27.563" class="colorffffff svgShape"></polygon><polygon fill="#f4f6f8" points="24.845 38.156 25.182 37.96 25.196 32.029 24.859 32.225" class="colore9e8e6 svgShape"></polygon><polygon fill="#f4f6f8" points="24.859 32.225 25.196 32.029 7.183 21.629 6.846 21.825" class="colorffffff svgShape"></polygon><path fill="#c0c2c4" d="M24.84471,38.15622L6.8317,27.7564l0.01414-5.93108l18.01302,10.39982L24.84471,38.15622z
									 M7.17183,27.56256l17.33494,10.00833l0.01193-5.15192L7.18376,22.41063L7.17183,27.56256" class="colorc4c2c0 svgShape"></path></g></g><g fill="#6822a2" class="color000000 svgShape"><polygon fill="#5046e4" points="16.928 35.964 16.914 42.462 16.597 42.646 14.102 41.207 14.115 34.709 14.432 34.525" class="color3f9ae0 svgShape"></polygon><g fill="#6822a2" class="color000000 svgShape"><polygon fill="#f4f6f8" points="13.786 40.994 14.152 40.781 14.165 34.4 13.799 34.613" class="colore9e8e6 svgShape"></polygon><polygon fill="#f4f6f8" points="16.863 42.771 17.229 42.558 14.152 40.781 13.786 40.994" class="colorffffff svgShape"></polygon><polygon fill="#f4f6f8" points="17.23 43.407 17.597 43.194 17.612 35.966 17.246 36.179" class="colore9e8e6 svgShape"></polygon><polygon fill="#f4f6f8" points="17.246 36.179 17.612 35.966 13.798 33.764 13.432 33.977" class="colorffffff svgShape"></polygon><path fill="#c0c2c4" d="M17.23016,43.4069l-3.81402-2.20214l0.01537-7.22766l3.81402,2.20214L17.23016,43.4069z
									 M13.78581,40.99409l3.07708,1.77667l0.01297-6.38087l-3.07708-1.77667L13.78581,40.99409" class="colorc4c2c0 svgShape"></path></g></g><g fill="#6822a2" class="color000000 svgShape"><polygon fill="#5046e4" points="22.736 39.3 22.723 45.798 22.405 45.982 19.91 44.542 19.924 38.045 20.241 37.861" class="color3f9ae0 svgShape"></polygon><g fill="#6822a2" class="color000000 svgShape"><polygon fill="#f4f6f8" points="19.594 44.33 19.961 44.117 19.974 37.736 19.607 37.949" class="colore9e8e6 svgShape"></polygon><polygon fill="#f4f6f8" points="22.671 46.107 23.038 45.894 19.961 44.117 19.594 44.33" class="colorffffff svgShape"></polygon><polygon fill="#f4f6f8" points="23.039 46.743 23.405 46.53 23.42 39.302 23.054 39.515" class="colore9e8e6 svgShape"></polygon><polygon fill="#f4f6f8" points="23.054 39.515 23.42 39.302 19.606 37.1 19.24 37.313" class="colorffffff svgShape"></polygon><path fill="#c0c2c4" d="M23.03851,46.7428l-3.81402-2.20214l0.01537-7.22766l3.81402,2.20214L23.03851,46.7428z
									 M19.59416,44.32999l3.07708,1.77667l0.01297-6.38087l-3.07708-1.77667L19.59416,44.32999" class="colorc4c2c0 svgShape"></path></g></g><g fill="#6822a2" class="color000000 svgShape"><polygon fill="#c0c2c4" points="8.422 33.063 7.621 32.6 7.607 39.372 11.18 41.434 11.18 41.433 8.408 39.834" class="colorc4c2c0 svgShape"></polygon><polygon fill="#003c87" points="8.422 33.063 8.408 39.834 11.18 41.433 11.193 34.663" class="color005e87 svgShape"></polygon></g><g fill="#6822a2" class="color000000 svgShape"><g fill="#6822a2" class="color000000 svgShape"><polygon fill="#c0c2c4" points="28.459 25.82 27.189 25.082 27.177 18.926 28.447 19.665" class="colorc4c2c0 svgShape"></polygon><polygon fill="#f4f6f8" points="28.447 19.665 27.177 18.926 41.476 10.671 42.746 11.409" class="colore9e8e6 svgShape"></polygon><polygon fill="#d2d4d6" points="42.721 11.409 42.733 17.564 28.459 25.82 28.421 19.665" class="colord6d4d2 svgShape"></polygon></g></g><g fill="#6822a2" class="color000000 svgShape"><path fill="#363738" d="M31.46346 20.15135c.07685.09036.11633.22923.11686.41573.00052.18292-.03805.36504-.11413.54728-.07608.18045-.18503.34933-.32685.50305-.14181.15552-.3087.2878-.50222.39953l-.43854.25319.00196.69042-.50409.29104-.0071-2.50345.94263-.54423c.19352-.11173.36062-.17049.50284-.17896C31.27706 20.01648 31.3866 20.05921 31.46346 20.15135zM30.95228 21.2494c.07938-.12127.1181-.2496.1177-.38768-.0004-.14167-.03972-.22674-.11953-.25611-.07825-.03027-.19384-.00125-.34522.08616l-.41045.23697.00246.86975.41045-.23697C30.75908 21.47411 30.87446 21.36977 30.95228 21.2494M34.05928 18.81431c.10357.13781.15725.32775.15795.57342.0007.24569-.05174.4969-.15418.75363-.104.25763-.24559.49385-.42475.70865-.18071.2175-.38344.39023-.60974.52088-.22629.13065-.42933.19219-.61225.18464-.18135-.00666-.32381-.07889-.42737-.21668-.10356-.13779-.15413-.32953-.15483-.57522-.0007-.24567.04862-.49509.15107-.75183.10245-.25493.24403-.49116.42475-.70865.18228-.21661.385-.39113.61129-.52178.2263-.13065.42934-.19041.61069-.18374C33.8117 18.60698 33.95416 18.67922 34.05928 18.81431zM33.61911 20.14798c.05896-.15438.08822-.31139.08778-.46561-.00043-.15422-.03048-.27518-.09013-.36289s-.14108-.13589-.24583-.14368c-.1032-.00867-.22034.02483-.34832.09871-.12797.07388-.24492.17554-.34773.30315-.10437.12853-.18526.27042-.24421.42661-.05896.15618-.08822.31139-.08778.46561.00044.15422.03049.27699.09013.36289.05965.08771.14108.13591.24583.14368.1032.00867.22034-.02483.34831-.09871.12798-.07389.24493-.17554.34774-.30315C33.47927 20.44608 33.56015 20.30417 33.61911 20.14798" class="color383736 svgShape"></path><polygon fill="#363738" points="35.097 17.626 35.103 19.658 36.194 19.028 36.195 19.5 34.6 20.421 34.593 17.917" class="color383736 svgShape"></polygon><polygon fill="#363738" points="36.976 16.541 36.983 19.045 36.479 19.336 36.472 16.832" class="color383736 svgShape"></polygon><path fill="#363738" d="M38.53655,15.59709c0.18884-0.10903,0.36062-0.16869,0.51222-0.18077
						c0.15316-0.01119,0.28145,0.02432,0.38486,0.10831l-0.32209,0.52904c-0.14725-0.11077-0.33013-0.10399-0.54862,0.02216
						c-0.13422,0.07749-0.25429,0.18095-0.36022,0.31036c-0.10593,0.12943-0.18837,0.27222-0.24577,0.42751
						c-0.05896,0.15619-0.08822,0.31139-0.08778,0.46561c0.00043,0.15422,0.03048,0.27699,0.09013,0.36289
						c0.05809,0.08861,0.14108,0.13591,0.24739,0.14278c0.10632,0.00687,0.22658-0.02843,0.3608-0.10592
						c0.21849-0.12615,0.40081-0.3302,0.54694-0.61396l0.32403,0.1578c-0.10259,0.20473-0.23025,0.3898-0.38454,0.55431
						c-0.15274,0.16362-0.32429,0.30219-0.51313,0.41121c-0.22161,0.12795-0.42309,0.18859-0.60132,0.18013
						c-0.17979-0.00756-0.32224-0.078-0.4258-0.21579c-0.102-0.13869-0.15413-0.33134-0.15483-0.57881
						c-0.0007-0.24748,0.05017-0.49957,0.15105-0.75541c0.10245-0.25493,0.24403-0.49115,0.42319-0.70596
						C38.11065,15.89867,38.31338,15.72594,38.53655,15.59709z" class="color383736 svgShape"></path><polygon fill="#363738" points="41.418 13.977 41.419 14.441 40.275 15.102 40.277 15.647 41.286 15.064 41.288 15.514 40.278 16.097 40.279 16.676 41.464 15.992 41.465 16.457 39.78 17.43 39.773 14.927" class="color383736 svgShape"></polygon></g><path fill="#f4f6f8" d="M19.27568,22.52769c-0.36503,0.11906-0.69044,0.32541-0.9523,0.59521
			c-0.26985,0.2778-0.4762,0.60316-0.59521,0.9603c-0.04762,0.11901-0.1984,0.11901-0.24602,0
			c-0.23812-0.73806-0.80951-1.31744-1.54757-1.55551c-0.11906-0.03173-0.11906-0.19046,0-0.23013
			c0.36503-0.12701,0.69044-0.32541,0.96819-0.59521c0.25396-0.26191,0.46031-0.59521,0.57938-0.95235
			c0.04762-0.1349,0.1984-0.1349,0.24602,0c0.11901,0.35714,0.32536,0.69044,0.59521,0.95235
			c0.26186,0.2698,0.58727,0.46821,0.9523,0.59521C19.39474,22.33722,19.39474,22.49596,19.27568,22.52769z" class="colorffffff svgShape"></path></svg>