<svg xmlns="http://www.w3.org/2000/svg" xmlns:xlink="http://www.w3.org/1999/xlink" viewBox="0 0 1259.292 1466.293" id="ProblemSolution"><defs><linearGradient id="k" x1="639.138" x2="793.85" y1="693.499" y2="693.499" gradientUnits="userSpaceOnUse"><stop offset="0" stop-color="#dae7f5" class="stopColordae0f5 svgShape"></stop><stop offset="1" stop-color="#ffffff" class="stopColorffffff svgShape"></stop></linearGradient><linearGradient id="a" x1="734.678" x2="764.351" y1="815.094" y2="815.094" gradientUnits="userSpaceOnUse"><stop offset="0" stop-color="#e8eff7" class="stopColore8ecf7 svgShape"></stop><stop offset="1" stop-color="#ffffff" class="stopColorffffff svgShape"></stop></linearGradient><linearGradient id="l" x1="734.678" x2="788.343" y1="895.21" y2="895.21" xlink:href="#a"></linearGradient><linearGradient id="m" x1="457.621" x2="639.138" y1="910.834" y2="910.834" gradientUnits="userSpaceOnUse"><stop offset="0" stop-color="#dae7f5" class="stopColordae0f5 svgShape"></stop><stop offset=".453" stop-color="#e8f0f9" class="stopColore8ecf9 svgShape"></stop><stop offset="1" stop-color="#ffffff" class="stopColorffffff svgShape"></stop></linearGradient><linearGradient id="b" x1="238.613" x2="188.743" y1="1195.666" y2="1195.666" gradientUnits="userSpaceOnUse"><stop offset="0" stop-color="#ffffff" class="stopColorffffff svgShape"></stop><stop offset="1" stop-color="#d1e2f3" class="stopColord1d7f3 svgShape"></stop></linearGradient><linearGradient id="c" x1="168.014" x2="209.468" y1="1188.692" y2="1188.692" gradientUnits="userSpaceOnUse"><stop offset=".396" stop-color="#857dfb" class="stopColor807dfb svgShape"></stop><stop offset=".468" stop-color="#766eeb" class="stopColor716eeb svgShape"></stop><stop offset=".574" stop-color="#5a52cc" class="stopColor5652cc svgShape"></stop></linearGradient><linearGradient id="n" x1="986.62" x2="862.096" y1="1264.347" y2="1264.347" xlink:href="#b"></linearGradient><linearGradient id="o" x1="810.337" x2="913.846" y1="1246.931" y2="1246.931" xlink:href="#c"></linearGradient><linearGradient id="p" x1="576.888" x2="506.428" y1="1382.299" y2="1382.299" xlink:href="#b"></linearGradient><linearGradient id="d" x1="477.141" x2="535.71" y1="1372.445" y2="1372.445" gradientUnits="userSpaceOnUse"><stop offset=".396" stop-color="#cee3f8" class="stopColorced3f8 svgShape"></stop><stop offset=".552" stop-color="#bed3e9" class="stopColorbec3e9 svgShape"></stop><stop offset=".574" stop-color="#bbd0e6" class="stopColorbbc0e6 svgShape"></stop></linearGradient><linearGradient id="q" x1="310.174" x2="263.537" y1="891.901" y2="891.901" xlink:href="#b"></linearGradient><linearGradient id="r" x1="244.152" x2="282.918" y1="885.378" y2="885.378" xlink:href="#d"></linearGradient><linearGradient id="e" x1="591.006" x2="701.665" y1="1121.432" y2="1121.432" gradientTransform="translate(-218.782)" gradientUnits="userSpaceOnUse"><stop offset="0" stop-color="#c4d6e8" class="stopColorc4cae8 svgShape"></stop><stop offset=".095" stop-color="#ceddec" class="stopColorced3ec svgShape"></stop><stop offset=".409" stop-color="#e9eff6" class="stopColore9ebf6 svgShape"></stop><stop offset=".687" stop-color="#f9fbfd" class="stopColorf9fafd svgShape"></stop><stop offset=".899" stop-color="#ffffff" class="stopColorffffff svgShape"></stop></linearGradient><linearGradient id="s" x1="477.763" x2="588.41" y1="1092.084" y2="1092.084" gradientTransform="translate(-155.067)" xlink:href="#e"></linearGradient><linearGradient id="f" x1="-444.954" x2="-404.164" y1="1088.176" y2="1088.176" gradientTransform="matrix(-1 0 0 1 -94.171 0)" gradientUnits="userSpaceOnUse"><stop offset="0" stop-color="#7c3eaf" class="stopColor423eaf svgShape"></stop><stop offset=".304" stop-color="#7035a0" class="stopColor3a35a0 svgShape"></stop><stop offset=".891" stop-color="#1e4577" class="stopColor241e77 svgShape"></stop><stop offset="1" stop-color="#193f6f" class="stopColor1f196f svgShape"></stop></linearGradient><linearGradient id="t" x1="-495.387" x2="-454.602" y1="1117.531" y2="1117.531" xlink:href="#f"></linearGradient><linearGradient id="u" x1="-477.672" x2="-407.555" y1="1020.075" y2="1020.075" gradientTransform="matrix(-1 0 0 1 -94.171 0)" gradientUnits="userSpaceOnUse"><stop offset="0" stop-color="#7c3eaf" class="stopColor423eaf svgShape"></stop><stop offset=".301" stop-color="#683097" class="stopColor353097 svgShape"></stop><stop offset=".746" stop-color="#1f477a" class="stopColor251f7a svgShape"></stop><stop offset="1" stop-color="#193f6f" class="stopColor1f196f svgShape"></stop></linearGradient><linearGradient id="v" x1="1794.441" x2="1837.295" y1="861.519" y2="861.519" gradientTransform="matrix(-1 0 0 1 2207.08 0)" gradientUnits="userSpaceOnUse"><stop offset="0" stop-color="#7c3eaf" class="stopColor423eaf svgShape"></stop><stop offset=".976" stop-color="#837bf9" class="stopColor7e7bf9 svgShape"></stop><stop offset="1" stop-color="#857dfb" class="stopColor807dfb svgShape"></stop></linearGradient><linearGradient id="g" x1="-480.385" x2="-407.14" y1="894.235" y2="894.235" gradientTransform="matrix(-1 0 0 1 -94.171 0)" gradientUnits="userSpaceOnUse"><stop offset="0" stop-color="#5a52cc" class="stopColor5652cc svgShape"></stop><stop offset="1" stop-color="#857dfb" class="stopColor807dfb svgShape"></stop></linearGradient><linearGradient id="w" x1="1480.693" x2="1420.712" y1="889.204" y2="868.107" gradientTransform="translate(-1057.642)" xlink:href="#g"></linearGradient><linearGradient id="x" x1="691.911" x2="732.551" y1="1088.572" y2="1088.572" gradientUnits="userSpaceOnUse"><stop offset="0" stop-color="#c4d6e9" class="stopColorc4cae9 svgShape"></stop><stop offset="1" stop-color="#dae7f5" class="stopColordae0f5 svgShape"></stop></linearGradient><linearGradient id="h" x1="594.04" x2="718.106" y1="1139.902" y2="1139.902" gradientUnits="userSpaceOnUse"><stop offset="0" stop-color="#c4d6e9" class="stopColorc4cae9 svgShape"></stop><stop offset=".247" stop-color="#cddcec" class="stopColorcdd2ec svgShape"></stop><stop offset=".646" stop-color="#e4ecf5" class="stopColore4e7f5 svgShape"></stop><stop offset="1" stop-color="#ffffff" class="stopColorffffff svgShape"></stop></linearGradient><linearGradient id="y" x1="718.34" x2="788.936" y1="1088.573" y2="1088.573" xlink:href="#h"></linearGradient><linearGradient id="z" x1="610.073" x2="610.078" y1="1166.182" y2="1166.182" gradientUnits="userSpaceOnUse"><stop offset="0" stop-color="#c4d6e9" class="stopColorc4cae9 svgShape"></stop><stop offset="1" stop-color="#ffffff" class="stopColorffffff svgShape"></stop></linearGradient><linearGradient id="A" x1="691.923" x2="742.304" y1="1067.961" y2="1067.961" gradientUnits="userSpaceOnUse"><stop offset="0" stop-color="#7c3eaf" class="stopColor423eaf svgShape"></stop><stop offset="1" stop-color="#5a52cc" class="stopColor5652cc svgShape"></stop></linearGradient><linearGradient id="B" x1="694.222" x2="758.14" y1="1091.524" y2="1091.524" gradientUnits="userSpaceOnUse"><stop offset="0" stop-color="#5a52cc" class="stopColor5652cc svgShape"></stop><stop offset="1" stop-color="#7c3eaf" class="stopColor423eaf svgShape"></stop></linearGradient><linearGradient id="C" x1="1003.313" x2="1060.152" y1="1090.535" y2="1090.535" gradientUnits="userSpaceOnUse"><stop offset="0" stop-color="#d1e2f3" class="stopColord1d7f3 svgShape"></stop><stop offset=".281" stop-color="#e2edf8" class="stopColore2e6f8 svgShape"></stop><stop offset=".715" stop-color="#f7fafd" class="stopColorf7f8fd svgShape"></stop><stop offset="1" stop-color="#ffffff" class="stopColorffffff svgShape"></stop></linearGradient><linearGradient id="D" x1="237.246" x2="394.246" y1="674.099" y2="739.099" gradientUnits="userSpaceOnUse"><stop offset="0" stop-color="#857dfb" class="stopColor807dfb svgShape"></stop><stop offset=".3" stop-color="#756de8" class="stopColor716de8 svgShape"></stop><stop offset=".904" stop-color="#4c45b7" class="stopColor4945b7 svgShape"></stop><stop offset="1" stop-color="#7c3eaf" class="stopColor423eaf svgShape"></stop></linearGradient><linearGradient id="i" x1="-393.743" x2="-281.597" y1="1013.85" y2="1013.85" gradientTransform="translate(475.166)" gradientUnits="userSpaceOnUse"><stop offset=".427" stop-color="#d1e2f3" class="stopColord1d7f3 svgShape"></stop><stop offset=".486" stop-color="#d7e6f5" class="stopColord7dcf5 svgShape"></stop><stop offset=".813" stop-color="#f4f8fc" class="stopColorf4f6fc svgShape"></stop><stop offset="1" stop-color="#ffffff" class="stopColorffffff svgShape"></stop></linearGradient><linearGradient id="j" x1="-416.671" x2="-310.87" y1="1019.525" y2="1019.525" gradientTransform="translate(475.166)" gradientUnits="userSpaceOnUse"><stop offset="0" stop-color="#6db6ff" class="stopColorffaf6d svgShape"></stop><stop offset=".359" stop-color="#f356d6" class="stopColorf39356 svgShape"></stop><stop offset=".758" stop-color="#e941ca" class="stopColore97a41 svgShape"></stop><stop offset="1" stop-color="#e539c6" class="stopColore57139 svgShape"></stop></linearGradient><linearGradient id="E" x1="51.848" x2="118.81" y1="1002.225" y2="1002.225" xlink:href="#i"></linearGradient><linearGradient id="F" x1="38.159" x2="101.331" y1="1005.614" y2="1005.614" xlink:href="#j"></linearGradient></defs><g style="isolation:isolate" fill="#f4f6f8" class="color000000 svgShape"><g fill="#f4f6f8" class="color000000 svgShape"><g data-name="Layer 24" fill="#f4f6f8" class="color000000 svgShape"><path fill="#e8eff7" d="m647.007 928.961 9.238 5.334-236.863 136.752c-35.22-18.256-89.43-17.61-123.3 1.944-35.032 20.225-35.032 53.018 0 73.244 35.032 20.225 91.83 20.225 126.863 0 33.869-19.555 34.987-50.853 3.365-71.188l236.863-136.752 9.237 5.333 25.62-29.458Z" class="colore8ecf7 svgShape"></path><path fill="#e539c6" d="m666.09 873.997-59.172-34.164v-31.159l59.172 34.163v31.16z" class="colore57139 svgShape"></path><path fill="#a50b89" d="m666.09 873.997 16.487-9.519v-31.159l-16.487 9.518v31.16z" class="colorc85a2b svgShape"></path><path fill="#fb4bdb" d="m666.09 842.837 16.487-9.518-59.173-34.163-16.486 9.518 59.172 34.163z" class="colorfb944b svgShape"></path><path fill="#e539c6" d="m729.97 910.878-59.172-34.164v-31.159l59.172 34.163v31.16z" class="colore57139 svgShape"></path><path fill="#a50b89" d="m729.97 910.878 16.487-9.519V870.2l-16.487 9.518v31.16z" class="colorc85a2b svgShape"></path><path fill="#fb4bdb" d="m729.97 879.718 16.487-9.518-59.173-34.163-16.486 9.518 59.172 34.163z" class="colorfb944b svgShape"></path><path fill="#e539c6" d="m793.85 947.759-59.172-34.164v-31.159l59.172 34.163v31.16z" class="colore57139 svgShape"></path><path fill="#a50b89" d="m793.85 947.759 16.487-9.519v-31.159l-16.487 9.518v31.16z" class="colorc85a2b svgShape"></path><path fill="#fb4bdb" d="m793.85 916.599 16.487-9.518-59.173-34.163-16.486 9.518 59.172 34.163z" class="colorfb944b svgShape"></path><path fill="#e539c6" d="m634.151 818.961-27.233-15.723v-31.159l27.233 15.723v31.159z" class="colore57139 svgShape"></path><path fill="#a50b89" d="m634.151 818.961 16.486-9.518v-31.16l-16.486 9.519v31.159z" class="colorc85a2b svgShape"></path><path fill="#fb4bdb" d="m634.151 787.802 16.486-9.519-27.233-15.722-16.486 9.518 27.233 15.723z" class="colorfb944b svgShape"></path><path fill="#e539c6" d="m698.03 855.842-59.172-34.163V790.52l59.172 34.163v31.159z" class="colore57139 svgShape"></path><path fill="#a50b89" d="m698.03 855.842 16.487-9.518v-31.16l-16.487 9.519v31.159z" class="colorc85a2b svgShape"></path><path fill="#fb4bdb" d="m698.03 824.683 16.487-9.519-59.173-34.163-16.486 9.519 59.172 34.163z" class="colorfb944b svgShape"></path><path fill="#e539c6" d="m761.91 892.723-59.172-34.163v-31.159l59.172 34.163v31.159z" class="colore57139 svgShape"></path><path fill="#a50b89" d="m761.91 892.723 16.487-9.518v-31.16l-16.487 9.519v31.159z" class="colorc85a2b svgShape"></path><path fill="#fb4bdb" d="m761.91 861.564 16.487-9.519-59.173-34.163-16.486 9.519 59.172 34.163z" class="colorfb944b svgShape"></path><path fill="#e539c6" d="m793.85 911.164-27.232-15.723v-31.159l27.232 15.722v31.16z" class="colore57139 svgShape"></path><path fill="#a50b89" d="m793.85 911.164 16.487-9.519v-31.159l-16.487 9.518v31.16z" class="colorc85a2b svgShape"></path><path fill="#fb4bdb" d="m793.85 880.004 16.487-9.518-27.233-15.723-16.486 9.519 27.232 15.722z" class="colorfb944b svgShape"></path><path fill="#e539c6" d="m666.09 800.807-59.172-34.164v-31.159l59.172 34.163v31.16z" class="colore57139 svgShape"></path><path fill="#a50b89" d="m666.09 800.807 16.487-9.519v-31.159l-16.487 9.518v31.16z" class="colorc85a2b svgShape"></path><path fill="#fb4bdb" d="m666.09 769.647 16.487-9.518-59.173-34.163-16.486 9.518 59.172 34.163z" class="colorfb944b svgShape"></path><path fill="#e539c6" d="m729.97 837.688-59.172-34.164v-31.159l59.172 34.163v31.16z" class="colore57139 svgShape"></path><path fill="#a50b89" d="m729.97 837.688 16.487-9.519V797.01l-16.487 9.518v31.16z" class="colorc85a2b svgShape"></path><path fill="#fb4bdb" d="m729.97 806.528 16.487-9.518-59.173-34.163-16.486 9.518 59.172 34.163z" class="colorfb944b svgShape"></path><path fill="#e539c6" d="m793.85 874.569-59.172-34.164v-31.159l59.172 34.163v31.16z" class="colore57139 svgShape"></path><path fill="#a50b89" d="m793.85 874.569 16.487-9.519v-31.159l-16.487 9.518v31.16z" class="colorc85a2b svgShape"></path><path fill="#fb4bdb" d="m793.85 843.409 16.487-9.518-59.173-34.163-16.486 9.518 59.172 34.163z" class="colorfb944b svgShape"></path><path fill="#e539c6" d="m634.151 745.771-27.233-15.723v-31.159l27.233 15.723v31.159z" class="colore57139 svgShape"></path><path fill="#a50b89" d="m634.151 745.771 16.486-9.518v-31.16l-16.486 9.519v31.159z" class="colorc85a2b svgShape"></path><path fill="#fb4bdb" d="m634.151 714.612 16.486-9.519-27.233-15.722-16.486 9.518 27.233 15.723z" class="colorfb944b svgShape"></path><path fill="#e539c6" d="m698.03 782.652-59.172-34.163V717.33l59.172 34.163v31.159z" class="colore57139 svgShape"></path><path fill="#a50b89" d="m698.03 782.652 16.487-9.518v-31.16l-16.487 9.519v31.159z" class="colorc85a2b svgShape"></path><path fill="#fb4bdb" d="m698.03 751.493 16.487-9.519-59.173-34.163-16.486 9.519 59.172 34.163z" class="colorfb944b svgShape"></path><path fill="#e539c6" d="m761.91 819.533-59.172-34.163v-31.159l59.172 34.163v31.159z" class="colore57139 svgShape"></path><path fill="#a50b89" d="m761.91 819.533 16.487-9.518v-31.16l-16.487 9.519v31.159z" class="colorc85a2b svgShape"></path><path fill="#fb4bdb" d="m761.91 788.374 16.487-9.519-59.173-34.163-16.486 9.519 59.172 34.163z" class="colorfb944b svgShape"></path><path fill="#e539c6" d="m793.85 837.974-27.232-15.723v-31.159l27.232 15.722v31.16z" class="colore57139 svgShape"></path><path fill="#a50b89" d="m793.85 837.974 16.487-9.519v-31.159l-16.487 9.518v31.16z" class="colorc85a2b svgShape"></path><path fill="#fb4bdb" d="m793.85 806.814 16.487-9.518-27.233-15.723-16.486 9.519 27.232 15.722z" class="colorfb944b svgShape"></path><path fill="#e539c6" d="m666.09 727.634-59.172-34.163v-31.159l59.172 34.163v31.159z" class="colore57139 svgShape"></path><path fill="#a50b89" d="m666.09 727.634 16.487-9.518v-31.16l-16.487 9.519v31.159z" class="colorc85a2b svgShape"></path><path fill="#fb4bdb" d="m666.09 696.475 16.487-9.519-59.173-34.163-16.486 9.519 59.172 34.163z" class="colorfb944b svgShape"></path><path fill="#e539c6" d="m729.97 764.515-59.172-34.163v-31.159l59.172 34.163v31.159z" class="colore57139 svgShape"></path><path fill="#a50b89" d="m729.97 764.515 16.487-9.518v-31.16l-16.487 9.519v31.159z" class="colorc85a2b svgShape"></path><path fill="#fb4bdb" d="m729.97 733.356 16.487-9.519-59.173-34.163-16.486 9.519 59.172 34.163z" class="colorfb944b svgShape"></path><path fill="#e539c6" d="m793.85 801.396-59.172-34.163v-31.159l59.172 34.163v31.159z" class="colore57139 svgShape"></path><path fill="#a50b89" d="m793.85 801.396 16.487-9.518v-31.16l-16.487 9.519v31.159z" class="colorc85a2b svgShape"></path><path fill="#fb4bdb" d="m793.85 770.237 16.487-9.519-59.173-34.163-16.486 9.519 59.172 34.163z" class="colorfb944b svgShape"></path><path fill="#e539c6" d="m634.151 672.599-27.233-15.723v-31.159l27.233 15.722v31.16z" class="colore57139 svgShape"></path><path fill="#a50b89" d="m634.151 672.599 16.486-9.519v-31.159l-16.486 9.518v31.16z" class="colorc85a2b svgShape"></path><path fill="#fb4bdb" d="m634.151 641.439 16.486-9.518-27.233-15.723-16.486 9.519 27.233 15.722z" class="colorfb944b svgShape"></path><path fill="#e539c6" d="m698.03 709.48-59.172-34.164v-31.159l59.172 34.163v31.16z" class="colore57139 svgShape"></path><path fill="#a50b89" d="m698.03 709.48 16.487-9.519v-31.159l-16.487 9.518v31.16z" class="colorc85a2b svgShape"></path><path fill="#fb4bdb" d="m698.03 678.32 16.487-9.518-59.173-34.163-16.486 9.518 59.172 34.163z" class="colorfb944b svgShape"></path><path fill="#e539c6" d="m761.91 746.361-59.172-34.164v-31.159l59.172 34.163v31.16z" class="colore57139 svgShape"></path><path fill="#a50b89" d="m761.91 746.361 16.487-9.519v-31.159l-16.487 9.518v31.16z" class="colorc85a2b svgShape"></path><path fill="#fb4bdb" d="m761.91 715.201 16.487-9.518-59.173-34.163-16.486 9.518 59.172 34.163z" class="colorfb944b svgShape"></path><path fill="#e539c6" d="m793.85 764.801-27.232-15.723v-31.159l27.232 15.723v31.159z" class="colore57139 svgShape"></path><path fill="#a50b89" d="m793.85 764.801 16.487-9.518v-31.16l-16.487 9.519v31.159z" class="colorc85a2b svgShape"></path><path fill="#fb4bdb" d="m793.85 733.642 16.487-9.519-27.233-15.722-16.486 9.518 27.232 15.723z" class="colorfb944b svgShape"></path><path fill="#e539c6" d="m666.09 654.444-59.172-34.163v-31.159l59.172 34.163v31.159z" class="colore57139 svgShape"></path><path fill="#a50b89" d="m666.09 654.444 16.487-9.518v-31.16l-16.487 9.519v31.159z" class="colorc85a2b svgShape"></path><path fill="#fb4bdb" d="m666.09 623.285 16.487-9.519-59.173-34.163-16.486 9.519 59.172 34.163z" class="colorfb944b svgShape"></path><path fill="#e539c6" d="m729.97 691.325-59.172-34.163v-31.159l59.172 34.163v31.159z" class="colore57139 svgShape"></path><path fill="#a50b89" d="m729.97 691.325 16.487-9.518v-31.16l-16.487 9.519v31.159z" class="colorc85a2b svgShape"></path><path fill="#fb4bdb" d="m729.97 660.166 16.487-9.519-59.173-34.163-16.486 9.519 59.172 34.163z" class="colorfb944b svgShape"></path><path fill="#e539c6" d="m793.85 728.206-59.172-34.163v-31.159l59.172 34.163v31.159z" class="colore57139 svgShape"></path><path fill="#a50b89" d="m793.85 728.206 16.487-9.518v-31.16l-16.487 9.519v31.159z" class="colorc85a2b svgShape"></path><path fill="#fb4bdb" d="m793.85 697.047 16.487-9.519-59.173-34.163-16.486 9.519 59.172 34.163z" class="colorfb944b svgShape"></path><path fill="#e539c6" d="m634.151 599.408-27.233-15.722v-31.159l27.233 15.722v31.159z" class="colore57139 svgShape"></path><path fill="#a50b89" d="m634.151 599.408 16.486-9.518v-31.159l-16.486 9.518v31.159z" class="colorc85a2b svgShape"></path><path fill="#fb4bdb" d="m634.151 568.249 16.486-9.518-27.233-15.723-16.486 9.519 27.233 15.722z" class="colorfb944b svgShape"></path><path fill="#e539c6" d="m698.03 636.29-59.172-34.164v-31.159l59.172 34.163v31.16z" class="colore57139 svgShape"></path><path fill="#a50b89" d="m698.03 636.29 16.487-9.519v-31.159l-16.487 9.518v31.16z" class="colorc85a2b svgShape"></path><path fill="#fb4bdb" d="m698.03 605.13 16.487-9.518-59.173-34.163-16.486 9.518 59.172 34.163z" class="colorfb944b svgShape"></path><path fill="#e539c6" d="m761.91 673.171-59.172-34.164v-31.159l59.172 34.163v31.16z" class="colore57139 svgShape"></path><path fill="#a50b89" d="m761.91 673.171 16.487-9.519v-31.159l-16.487 9.518v31.16z" class="colorc85a2b svgShape"></path><path fill="#fb4bdb" d="m761.91 642.011 16.487-9.518-59.173-34.163-16.486 9.518 59.172 34.163z" class="colorfb944b svgShape"></path><path fill="#e539c6" d="m793.85 691.611-27.232-15.723v-31.159l27.232 15.723v31.159z" class="colore57139 svgShape"></path><path fill="#a50b89" d="m793.85 691.611 16.487-9.518v-31.16l-16.487 9.519v31.159z" class="colorc85a2b svgShape"></path><path fill="#fb4bdb" d="m793.85 660.452 16.487-9.519-27.233-15.722-16.486 9.518 27.232 15.723z" class="colorfb944b svgShape"></path><path fill="#e539c6" d="m666.09 581.248-59.172-34.163v-31.159l59.172 34.163v31.159z" class="colore57139 svgShape"></path><path fill="#a50b89" d="m666.09 581.248 16.487-9.518v-31.159l-16.487 9.518v31.159z" class="colorc85a2b svgShape"></path><path fill="#fb4bdb" d="m666.09 550.089 16.487-9.518-59.173-34.164-16.486 9.519 59.172 34.163z" class="colorfb944b svgShape"></path><path fill="#e539c6" d="m729.97 618.129-59.172-34.163v-31.159l59.172 34.163v31.159z" class="colore57139 svgShape"></path><path fill="#a50b89" d="m729.97 618.129 16.487-9.518v-31.159l-16.487 9.518v31.159z" class="colorc85a2b svgShape"></path><path fill="#fb4bdb" d="m729.97 586.97 16.487-9.518-59.173-34.164-16.486 9.519 59.172 34.163z" class="colorfb944b svgShape"></path><path fill="#e539c6" d="m793.85 655.01-59.172-34.163v-31.159l59.172 34.163v31.159z" class="colore57139 svgShape"></path><path fill="#a50b89" d="m793.85 655.01 16.487-9.518v-31.159l-16.487 9.518v31.159z" class="colorc85a2b svgShape"></path><path fill="#fb4bdb" d="m793.85 623.851 16.487-9.518-59.173-34.164-16.486 9.519 59.172 34.163z" class="colorfb944b svgShape"></path><path fill="#e539c6" d="m634.151 526.213-27.233-15.723v-31.159l27.233 15.722v31.16z" class="colore57139 svgShape"></path><path fill="#a50b89" d="m634.151 526.213 16.486-9.519v-31.159l-16.486 9.518v31.16z" class="colorc85a2b svgShape"></path><path fill="#fb4bdb" d="m634.151 495.053 16.486-9.518-27.233-15.723-16.486 9.519 27.233 15.722z" class="colorfb944b svgShape"></path><path fill="#e539c6" d="m698.03 563.094-59.172-34.163v-31.16l59.172 34.163v31.16z" class="colore57139 svgShape"></path><path fill="#a50b89" d="m698.03 563.094 16.487-9.519v-31.159l-16.487 9.518v31.16z" class="colorc85a2b svgShape"></path><path fill="#fb4bdb" d="m698.03 531.934 16.487-9.518-59.173-34.163-16.486 9.518 59.172 34.163z" class="colorfb944b svgShape"></path><path fill="#e539c6" d="m761.91 599.975-59.172-34.163v-31.16l59.172 34.163v31.16z" class="colore57139 svgShape"></path><path fill="#a50b89" d="m761.91 599.975 16.487-9.519v-31.159l-16.487 9.518v31.16z" class="colorc85a2b svgShape"></path><path fill="#fb4bdb" d="m761.91 568.815 16.487-9.518-59.173-34.163-16.486 9.518 59.172 34.163z" class="colorfb944b svgShape"></path><path fill="#e539c6" d="m793.85 618.415-27.232-15.722v-31.16l27.232 15.723v31.159z" class="colore57139 svgShape"></path><path fill="#a50b89" d="m793.85 618.415 16.487-9.518v-31.159l-16.487 9.518v31.159z" class="colorc85a2b svgShape"></path><path fill="#fb4bdb" d="m793.85 587.256 16.487-9.518-27.233-15.723-16.486 9.518 27.232 15.723z" class="colorfb944b svgShape"></path><path fill="#e539c6" d="m666.09 508.058-59.172-34.163v-31.159l59.172 34.163v31.159z" class="colore57139 svgShape"></path><path fill="#a50b89" d="m666.09 508.058 16.487-9.518v-31.159l-16.487 9.518v31.159z" class="colorc85a2b svgShape"></path><path fill="#fb4bdb" d="m666.09 476.899 16.487-9.518-59.173-34.164-16.486 9.519 59.172 34.163z" class="colorfb944b svgShape"></path><path fill="#e539c6" d="m729.97 544.939-59.172-34.163v-31.159l59.172 34.163v31.159z" class="colore57139 svgShape"></path><path fill="#a50b89" d="m729.97 544.939 16.487-9.518v-31.159l-16.487 9.518v31.159z" class="colorc85a2b svgShape"></path><path fill="#fb4bdb" d="m729.97 513.78 16.487-9.518-59.173-34.164-16.486 9.519 59.172 34.163z" class="colorfb944b svgShape"></path><path fill="#e539c6" d="m793.85 581.82-59.172-34.163v-31.159l59.172 34.163v31.159z" class="colore57139 svgShape"></path><path fill="#a50b89" d="m793.85 581.82 16.487-9.518v-31.159l-16.487 9.518v31.159z" class="colorc85a2b svgShape"></path><path fill="#fb4bdb" d="m793.85 550.661 16.487-9.518-59.173-34.164-16.486 9.519 59.172 34.163z" class="colorfb944b svgShape"></path><path fill="#e539c6" d="M634.151 453.023 606.918 437.3v-31.159l27.233 15.722v31.16z" class="colore57139 svgShape"></path><path fill="#a50b89" d="m634.151 453.023 16.486-9.519v-31.159l-16.486 9.518v31.16z" class="colorc85a2b svgShape"></path><path fill="#fb4bdb" d="m634.151 421.863 16.486-9.518-27.233-15.723-16.486 9.519 27.233 15.722z" class="colorfb944b svgShape"></path><path fill="#e539c6" d="m698.03 489.904-59.172-34.163v-31.16l59.172 34.163v31.16z" class="colore57139 svgShape"></path><path fill="#a50b89" d="m698.03 489.904 16.487-9.519v-31.159l-16.487 9.518v31.16z" class="colorc85a2b svgShape"></path><path fill="#fb4bdb" d="m698.03 458.744 16.487-9.518-59.173-34.163-16.486 9.518 59.172 34.163z" class="colorfb944b svgShape"></path><path fill="#e539c6" d="m761.91 526.785-59.172-34.163v-31.16l59.172 34.163v31.16z" class="colore57139 svgShape"></path><path fill="#a50b89" d="m761.91 526.785 16.487-9.519v-31.159l-16.487 9.518v31.16z" class="colorc85a2b svgShape"></path><path fill="#fb4bdb" d="m761.91 495.625 16.487-9.518-59.173-34.163-16.486 9.518 59.172 34.163z" class="colorfb944b svgShape"></path><path fill="#e539c6" d="m793.85 545.225-27.232-15.722v-31.16l27.232 15.723v31.159z" class="colore57139 svgShape"></path><path fill="#a50b89" d="m793.85 545.225 16.487-9.518v-31.159l-16.487 9.518v31.159z" class="colorc85a2b svgShape"></path><path fill="#fb4bdb" d="m793.85 514.066 16.487-9.518-27.233-15.723-16.486 9.518 27.232 15.723z" class="colorfb944b svgShape"></path><path d="m698.03 751.493-58.892-34.002v31.16l58.892 34.001Zm0-73.173-58.892-34.001v31.159l58.892 34.001Zm0-73.19-58.892-34.001v31.159l58.892 34.002Zm-22.355-86.102-36.537-21.095v31.159l46.752 26.992Zm-4.877-17.695v9.443l3.095 1.787Zm0 82.633 27.088 15.64-10.215-37.057-16.873-9.742Zm95.82 311.475 15.236 8.797-10.214-37.057-5.022-2.9Zm-95.82-18.727 59.172 34.163v-31.159l-59.172-34.163Zm63.88-36.309 35.18 20.312-10.214-37.057-24.966-14.414Zm-4.708-33.877-59.172-34.163v31.16l59.172 34.163Zm-31.94 18.155-58.892-34.002v31.16l58.892 34Zm4.708-39.313 55.124 31.826-10.214-37.057-44.91-25.928Zm27.232-52.014-59.172-34.163v31.159l59.172 34.163Zm31.94 128.208L702.738 827.4v31.159l59.172 34.163Zm-122.772-3.13 26.952 15.562v-31.159l-26.952-15.561Zm31.66-201.272 51.082 29.492-10.214-37.057-40.868-23.594Zm112.838 253.54-48.958-28.266v31.16l59.172 34.163ZM666.09 696.475l-26.952-15.562v31.16l26.952 15.56Zm69.568 40.164-.98-.565v31.159l11.194 6.463Zm-69.568 33.008-26.952-15.561v31.16l26.952 15.56Zm36.648-152.438v21.798l7.146 4.126Zm-46.303-167.983-17.297-9.987v16.663l22.76 13.14Zm46.303 262.971 31.138 17.978-10.214-37.057-20.924-12.08ZM666.09 550.09l-26.952-15.561v31.159l26.952 15.561Zm0-65.835-2.41-8.747-24.542-14.17v31.16l26.952 15.561Zm0 139.03-26.952-15.56v31.159l26.952 15.56Z" style="mix-blend-mode:multiply" fill="url(#k)"></path><path d="m663.679 475.507-24.541-14.169v-5.436l29.306 16.854-4.765 2.751zM675.675 519.028l-36.817-21.257 4.765-2.751 22.467 13.038 4.708-2.718v5.436l9.585 5.534-4.708 2.718zM666.09 550.089l-26.952-15.561v-5.436l31.66 18.279-4.708 2.718zM687.671 562.549l-16.873-9.742 4.707-2.718 16.874 9.742-4.708 2.718zM698.03 605.13l-58.892-34.001v-.323l4.427-2.557 22.525 12.999 4.708-2.718v5.436l31.94 18.446-4.708 2.718zM666.09 623.285l-26.952-15.561v-5.436l31.66 18.279-4.708 2.718zM698.03 678.32l-58.892-34.001v-.323l4.427-2.557 22.525 13.005 4.708-2.718v5.436l31.94 18.44-4.708 2.718zM698.03 824.683l-58.892-34.002v-.323l4.427-2.556 22.525 13.005 4.708-2.718v5.435l31.94 18.441-4.708 2.718zM698.03 751.493l-58.892-34.002v-.323l4.427-2.556 22.525 13.004 4.708-2.717v5.435l31.94 18.441-4.708 2.718zM723.662 693.118l-20.924-12.08 4.707-2.718 20.924 12.08-4.707 2.718z" style="mix-blend-mode:multiply" fill="#e8eff7" class="colore8ecf7 svgShape"></path><path style="mix-blend-mode:multiply" fill="url(#a)" d="m759.644 823.66-24.966-14.414 4.707-2.718 24.966 14.414-4.707 2.718z"></path><path d="m666.09 696.475-26.952-15.562v-5.435l31.66 18.279-4.708 2.718zM666.09 769.647l-26.952-15.561v-5.436l31.66 18.279-4.708 2.718zM666.09 842.837l-26.952-15.561v-5.436l31.66 18.279-4.708 2.718zM735.658 736.639l-.98-.565 4.707-2.718.98.565-4.707 2.718zM729.97 733.356l-59.172-34.163 4.707-2.718 22.525 13.005 4.708-2.718v5.435l31.94 18.441-4.708 2.718zM747.648 780.139l-44.91-25.928 4.708-2.718 22.524 13.004 4.708-2.717v5.435l17.677 10.206-4.707 2.718zM729.97 806.528l-59.172-34.163 4.707-2.718 22.525 13.005 4.708-2.718v5.436l31.94 18.44-4.708 2.718zM761.91 861.564l-59.172-34.163 4.707-2.718 22.525 13.005 4.708-2.718v5.435l31.94 18.441-4.708 2.718zM729.97 879.718l-59.172-34.163 4.707-2.718 22.525 13.005 4.708-2.718v5.436l31.94 18.44-4.708 2.718z" style="mix-blend-mode:multiply" fill="#e8eff7" class="colore8ecf7 svgShape"></path><path style="mix-blend-mode:multiply" fill="url(#l)" d="m783.636 910.702-48.958-28.266 4.707-2.718 22.525 13.005 4.708-2.718v5.436l21.725 12.543-4.707 2.718z"></path><path d="m711.666 649.597-40.868-23.594 4.707-2.718 22.525 13.005 4.708-2.718v5.435l13.635 7.873-4.707 2.717z" style="mix-blend-mode:multiply" fill="#e8eff7" class="colore8ecf7 svgShape"></path><path d="M846.57 978.197V529.066l-12.963-22.463-.001 464.11 12.964 7.484z" style="mix-blend-mode:multiply" fill="#dae7f5" class="colordae0f5 svgShape"></path><path fill="#bbd0e6" d="M613.207 424.268v434.165l12.966-7.484V431.754l-12.966-7.486z" class="colorbbc0e6 svgShape"></path><path fill="#e3f1ff" d="M820.642 514.089v464.108l-25.919-14.964V529.067L613.207 424.268v434.165l-25.916-14.963V379.362l233.351 134.727z" class="colore3e8ff svgShape"></path><path fill="#ffffff" d="m820.642 514.089-233.38-134.742 12.967-7.486 233.378 134.742-12.965 7.486z" class="colorffffff svgShape"></path><path fill="#bbd0e6" d="M820.642 514.089v464.108l12.965-7.485V506.603l-12.965 7.486z" class="colorbbc0e6 svgShape"></path><path d="M846.569 978.197h-25.927l12.965-7.485 12.962 7.485z" style="mix-blend-mode:multiply" fill="#dae7f5" class="colordae0f5 svgShape"></path><path fill="#cee3f8" d="m457.621 529.066 168.552-97.312 12.965 7.485v419.196L457.621 963.234V529.066z" class="colorced3f8 svgShape"></path><path fill="#bbd0e6" d="m482.883 754.814-17.243 9.958v19.911l17.243-9.955v-19.914z" class="colorbbc0e6 svgShape"></path><path fill="#e8eff7" d="m485.952 770.364-9.186-5.305-5.008 2.891 14.194 8.195 23.36-13.488-5-2.89-18.36 10.597z" class="colore8ecf7 svgShape"></path><path fill="#bbd0e6" d="M509.314 768.437v-5.781l-23.362 13.489v5.783l23.362-13.491z" class="colorbbc0e6 svgShape"></path><path fill="#d9ecff" d="M485.952 781.927v-5.782l-14.194-8.195v5.783l14.194 8.194zM457.621 529.066v434.168l-12.966-7.484V521.58l12.966 7.486z" class="colord9dfff svgShape"></path><path fill="#f4f6f8" d="m626.173 431.754-168.552 97.312-12.966-7.485 168.552-97.313 12.966 7.486z" class="colorf6f6fb svgShape"></path><path style="mix-blend-mode:multiply" fill="url(#m)" d="M457.621 963.234h181.517V858.435L457.621 963.234z"></path><path style="mix-blend-mode:multiply" fill="url(#b)" d="M188.743 1184.425h49.87v22.482h-49.87z"></path><path fill="#f4f6f8" d="m185.523 1181.674-16.173-9.34a1.96 1.96 0 0 1 0-3.716l16.173-9.338a7.118 7.118 0 0 1 6.437 0l16.175 9.338a1.962 1.962 0 0 1 0 3.717l-16.175 9.339a7.124 7.124 0 0 1-6.437 0Z" class="colorf6f6fb svgShape"></path><path fill="url(#c)" d="m208.135 1172.335-16.175 9.339a7.124 7.124 0 0 1-6.437 0l-16.173-9.34a2.262 2.262 0 0 1-1.336-1.858v24.464a2.26 2.26 0 0 0 1.336 1.859l16.173 9.337a7.103 7.103 0 0 0 6.437 0l16.175-9.337a2.261 2.261 0 0 0 1.333-1.859v-24.464a2.264 2.264 0 0 1-1.333 1.859Z"></path><path style="mix-blend-mode:multiply" fill="url(#n)" d="M862.096 1236.278h124.525v56.137H862.096z"></path><path fill="#f4f6f8" d="m854.055 1229.408-40.384-23.32c-2.224-1.283-3.334-2.962-3.334-4.641 0-1.681 1.11-3.358 3.334-4.64l40.384-23.317a17.772 17.772 0 0 1 16.075 0l40.387 23.318c2.218 1.28 3.329 2.958 3.329 4.643 0 1.675-1.11 3.354-3.329 4.637l-40.387 23.32a17.788 17.788 0 0 1-16.075 0Z" class="colorf6f6fb svgShape"></path><path fill="url(#o)" d="m910.517 1206.088-40.387 23.32a17.788 17.788 0 0 1-16.075 0l-40.384-23.32c-2.224-1.283-3.334-2.962-3.334-4.641v61.086c0 1.683 1.11 3.36 3.334 4.641l40.384 23.316a17.739 17.739 0 0 0 16.075 0l40.387-23.316c2.218-1.28 3.329-2.958 3.329-4.64v-61.087c0 1.679-1.11 3.358-3.329 4.64Z"></path><path style="mix-blend-mode:multiply" fill="url(#p)" d="M506.428 1366.417h70.46v31.764h-70.46z"></path><path fill="#f4f6f8" d="m501.878 1362.53-22.85-13.195a2.77 2.77 0 0 1 0-5.251l22.85-13.194a10.057 10.057 0 0 1 9.096 0l22.853 13.194a2.772 2.772 0 0 1 0 5.25l-22.853 13.196a10.066 10.066 0 0 1-9.096 0Z" class="colorf6f6fb svgShape"></path><path fill="url(#d)" d="m533.827 1349.335-22.853 13.195a10.066 10.066 0 0 1-9.096 0l-22.85-13.195a3.197 3.197 0 0 1-1.887-2.626v34.564a3.192 3.192 0 0 0 1.887 2.626l22.85 13.193a10.036 10.036 0 0 0 9.096 0l22.853-13.193a3.194 3.194 0 0 0 1.883-2.626v-34.564a3.199 3.199 0 0 1-1.883 2.626Z"></path><path style="mix-blend-mode:multiply" fill="url(#q)" d="M263.537 881.388h46.637v21.025h-46.637z"></path><path fill="#f4f6f8" d="m260.525 878.815-15.125-8.734a1.834 1.834 0 0 1 0-3.475l15.125-8.733a6.658 6.658 0 0 1 6.02 0l15.126 8.733a1.835 1.835 0 0 1 0 3.475l-15.126 8.734a6.662 6.662 0 0 1-6.02 0Z" class="colorf6f6fb svgShape"></path><path fill="url(#r)" d="m281.671 870.081-15.126 8.734a6.662 6.662 0 0 1-6.02 0l-15.125-8.734a2.116 2.116 0 0 1-1.248-1.738v22.878a2.113 2.113 0 0 0 1.248 1.739l15.125 8.732a6.643 6.643 0 0 0 6.02 0l15.126-8.732a2.114 2.114 0 0 0 1.247-1.739v-22.878a2.117 2.117 0 0 1-1.247 1.738Z"></path><path style="mix-blend-mode:multiply" fill="url(#e)" d="M372.224 1111.261h110.659v20.342H372.224z"></path><path style="mix-blend-mode:multiply" fill="url(#s)" d="M322.696 1081.918h110.647v20.332H322.696z"></path><path fill="url(#f)" d="M309.993 1095.978c0-15.971 10.13-16.439 10.13-16.439s5.477 0 14.388-3.699c8.79-3.646 21.175-2.237 14.251 10.533a3.162 3.162 0 0 1-.236.47 6.252 6.252 0 0 1-2.244 1.973l-22.127 12.98c-3.375 1.918-14.082-2.526-14.162-5.818Z"></path><path fill="#102847" d="M310.056 1094.552c.194 3.273 10.758 7.643 14.1 5.73l22.126-12.97a21.03 21.03 0 0 0 3.117-2.272c-.199.433-.38.858-.637 1.333a3.162 3.162 0 0 1-.236.47 6.252 6.252 0 0 1-2.244 1.973l-22.127 12.98c-3.154 1.801-12.752-1.992-14.018-5.186a3.378 3.378 0 0 1-.104-.642 9.518 9.518 0 0 1 .023-1.417Z" class="color121047 svgShape"></path><path fill="#ffffff" d="M314.115 1077.44c2.608 0 11.785 2.336 11.785 2.336a5.049 5.049 0 0 0 .823 2.376 3.516 3.516 0 0 1 .254.31c1.812 1.259 3.654 3.247-.646 5.947-3.525 2.208-6.38.805-7.734-.552a7.033 7.033 0 0 0-2.498-2.834 6.19 6.19 0 0 0-2.39-1.004c0-.072-.017-.224-.017-.224s-.668-6.356.423-6.356Z" class="colorffffff svgShape"></path><path fill="#0c2340" d="M313.943 921.217c10.01.183 35.01.636 45.012.807-3.722 30.07-11.214 57.38-16.215 86.507-5.373 28.3-11.423 48.19-16.705 71.742-1.934 4.382-10.779 2.727-12.574-1.494-1.397-21.692-3.013-48.116 3.42-73.144-1.073-26.973-3.564-57.171-2.938-84.418Z" class="color131147 svgShape"></path><path fill="url(#t)" d="M360.43 1125.336c0-15.976 10.126-16.442 10.126-16.442s5.479 0 14.39-3.693c8.783-3.652 21.17-2.243 14.252 10.522a3.738 3.738 0 0 1-.244.48 6.142 6.142 0 0 1-2.242 1.966l-22.117 12.976c-3.375 1.924-14.087-2.52-14.164-5.809Z"></path><path fill="#102847" d="M360.483 1123.9c.194 3.278 10.767 7.648 14.112 5.734l22.117-12.964a21.41 21.41 0 0 0 3.122-2.28c-.211.438-.38.863-.636 1.333a3.738 3.738 0 0 1-.244.48 6.142 6.142 0 0 1-2.242 1.966l-22.117 12.976c-3.16 1.81-12.762-1.986-14.025-5.17a2.798 2.798 0 0 1-.096-.656 10.765 10.765 0 0 1 .01-1.42Z" class="color121047 svgShape"></path><path fill="#ffffff" d="M364.55 1106.79c2.6 0 11.778 2.333 11.778 2.333a5.253 5.253 0 0 0 .813 2.382c.1.106.176.206.263.31 1.815 1.258 3.66 3.247-.644 5.947-3.515 2.207-6.37.805-7.733-.545a7.094 7.094 0 0 0-2.493-2.836 6.426 6.426 0 0 0-2.392-1.01 1.977 1.977 0 0 0-.024-.214s-.667-6.368.432-6.368Z" class="colorffffff svgShape"></path><path fill="url(#u)" d="M345.69 992.72c-2.737-12.925-34.28-14.528-32.209-65.356 9.896-1.457 59.824 21.967 69.715 20.51 1.238 30.263-1.683 58.442-1.871 87.98-.67 28.798-3.396 49.408-4.76 73.51-1.192 4.65-10.185 4.453-12.646.585-4.925-21.172-10.829-46.988-8.572-72.729-2.94-14.253-6.455-29.36-9.657-44.5Z"></path><path fill="#5046e4" d="M336.311 828.671c-35.227 23.531-39.425 70.277-20.384 99.93 0 0-4.092-65.72 20.384-99.93Z" class="color5652cc svgShape"></path><path fill="#9dc7f2" d="M379.903 827.043c-.23-2.732.795-6.751-1.017-8.723a27.664 27.664 0 0 0-5.837-4.1c-2.046 1.102-8.588 5.992-8.588 5.992.865 2.364 2.4 7.256 6.562 10.29 2.354-1.008 8.88-3.459 8.88-3.459Z" class="colorf2c39d svgShape"></path><path fill="url(#v)" d="M412.639 896.303c-3.379-26.608-23.444-52.816-31.817-69.568a103.133 103.133 0 0 0-11.037 4.325c3.07 10.893 25.343 64.468 25.343 64.468Z"></path><path fill="url(#g)" d="M334.698 956.175c21.435 12.039 43.872 12.056 51.516-2.732-2.863-27.536-5.546-49.943-.02-76.343-1.625-14.574-2.779-16.762-.91-25.27-.66-2.852-9.433-8.94-15.82-14.772-6.9-6.291-11.559-12.29-15.12-13.013-29.316-5.988-43.557 46.25-41.104 101.944 2.262 14.808 10.903 24.27 21.458 30.186Z"></path><path fill="#a9d2fc" d="M338.088 827.371c6.354-4.601 5.85-14.102 5.312-20.409a30.898 30.898 0 0 1-1.185-10.897c.937-13.894 10.602-25.306 21.393-23.825 21.76 2.973 17.093 14.222 16.153 28.115-.868 12.874-7.308 21.34-17.17 22.169-.146 2.12.721 8.546 3.386 11.22-7.157 4.279-17.6 2.266-21.731.406-4.393-1.994-9.143-3.694-6.158-6.779Z" class="colorfcd1a9 svgShape"></path><path fill="#193f6f" d="M372.3 765.452c-.516-1.74-3.84-2.877-15.14 1.476-.07.032-2.745 1.076-2.916 1.141-20.921 9.06-15.865 33.183-12.743 39.59a13.036 13.036 0 0 1 1.65 7.591c8.217-.338 10.824 4.289 16.087-.323 3.779-3.298 9.429-7.171 10.38-8.795a6.454 6.454 0 0 0 .772-3.99c.017-11.554 5.354-4.5 5.185-1.839 2.19-1.067 2.043-5.715 1.899-10.883 17.759-13.247 8.223-22.39-5.173-23.968Z" class="color20196f svgShape"></path><path fill="url(#w)" d="M411.13 891.429c-7.493-14.746-12.827-20.86-26.109-40.246-3.08-4.557-13.03-2.829-17.93 3.64-6.635 8.742-3.799 21.472-.048 26.645 9.63 9.96 16.462 14.06 24.956 20.97 13.933 11.34 24.982.498 19.13-11.01Z"></path><path d="M699.28 1098.853c4.76 2.748 11.087 4.262 17.817 4.262a38.212 38.212 0 0 0 15.267-2.99c-.562-.28-1.27-.681-2.287-1.27-9.826-5.671-9.826-14.904.002-20.577a26.767 26.767 0 0 1 2.472-1.194c-9.877-4.435-24.195-4.046-33.268 1.191-9.828 5.674-9.828 14.906-.002 20.578Z" style="mix-blend-mode:multiply" fill="url(#x)"></path><path d="M594.04 1166.078h15.857l-7.928-4.577Zm104.022-16.007-14.645-8.455 11.105-6.41-8.106-4.68 31.69-18.297c-.336.005-.667.029-1.005.029a63.656 63.656 0 0 1-22.879-4.022l-37.69 21.76-.7.65 7.894 4.557-11.104 6.41 14.646 8.457-11.195 6.465-22.752-13.137-8.961 5.174 8.105 4.68-11.196 6.465 9.33 5.384-1.873 1.082h.006l-9.33 5.386h30.796l11.197-6.465h-.001l-9.33-5.385 5.514-3.184h29.287l.003.002 11.196-6.465Z" style="mix-blend-mode:multiply" fill="url(#h)"></path><path d="M776.915 1071.813c-11.985-6.92-29.598-8.654-44.408-5.208a50.002 50.002 0 0 1 13.612 5.205c7.752 4.475 12.02 10.426 12.021 16.754-.002 6.328-4.271 12.278-12.021 16.752-7.442 4.296-17.243 6.714-27.711 6.905l-.068.04h30.794l.064-.038c10.47-.19 20.274-2.609 27.717-6.904 7.75-4.475 12.02-10.424 12.02-16.753 0-6.328-4.268-12.279-12.02-16.753Z" style="mix-blend-mode:multiply" fill="url(#y)"></path><path fill="url(#z)" d="M610.073 1166.183h.005l-.003-.001-.002.001z"></path><path fill="#5046e4" d="m589.862 1143.067 11.196 6.462v-17.777l-11.196-6.465v17.78z" class="color5652cc svgShape"></path><path fill="#5046e4" d="m583.013 1150.559 11.196 6.465v-17.78l-11.196-6.463v17.778zM676.164 1069.787h-.07v18.211l6.944-4.01c-4.96-4.263-7.229-9.258-6.874-14.2Z" class="color5652cc svgShape"></path><path fill="url(#A)" d="M697.177 1079.678a21.166 21.166 0 0 1 2.106-1.403c9.826-5.672 25.814-5.672 35.639 0a21.517 21.517 0 0 1 2.105 1.399c3.408-2.533 5.277-5.625 5.277-8.889 0-3.885-2.62-7.537-7.382-10.287-9.825-5.672-25.813-5.672-35.64 0-9.06 5.23-9.745 13.479-2.105 19.18Z"></path><path fill="url(#B)" d="M746.119 1087.54c-7.752 4.474-18.057 6.938-29.018 6.94a63.656 63.656 0 0 1-22.879-4.02v17.778a63.695 63.695 0 0 0 22.88 4.022c10.96-.002 21.265-2.467 29.017-6.944 7.75-4.474 12.02-10.423 12.021-16.75v-17.779c-.002 6.328-4.271 12.277-12.021 16.752Z"></path><path fill="#6822a2" d="m655.621 1130.525 38.601-22.287v-17.779l-38.601 22.287v17.779z" class="color423eaf svgShape"></path><path fill="#6822a2" d="m652.622 1141.615 11.104-6.41v-17.779l-11.104 6.41v17.779z" class="color423eaf svgShape"></path><path fill="#6822a2" d="m656.073 1156.535 11.195-6.465v-17.777l-11.195 6.465v17.777zM624.36 1148.574l8.961-5.174v-17.779l-8.961 5.174v17.779z" class="color423eaf svgShape"></path><path fill="#6822a2" d="m621.269 1159.717 11.196-6.465v-17.777l-11.196 6.465v17.777z" class="color423eaf svgShape"></path><path fill="#6822a2" d="m619.403 1171.569 11.196-6.465v-17.78l-11.196 6.465v17.78zM594.04 1166.078l7.927-4.576v-17.779l-7.927 4.578v17.777z" class="color423eaf svgShape"></path><path fill="#5046e4" d="m601.967 1161.502 17.435 10.067v-17.78l-17.435-10.066v17.779zM633.321 1143.4l22.752 13.135v-17.777l-22.752-13.137v17.779zM582.843 1159.613l11.197 6.465v-17.777l-11.197-6.465v17.777z" class="color5652cc svgShape"></path><path fill="#857dfb" d="m683.038 1083.988-71.156 41.082-10.823-6.248-11.197 6.465 3.065 1.77-9.914 5.724 7.758 4.479-7.928 4.576 11.197 6.465 7.927-4.578 17.435 10.066 11.197-6.465-9.33-5.385 11.196-6.464-8.105-4.68 8.96-5.174 22.753 13.137 11.195-6.465-14.646-8.457 11.104-6.41-8.105-4.68 38.601-22.287a63.656 63.656 0 0 0 22.88 4.021c10.96-.002 21.265-2.466 29.017-6.94 7.75-4.476 12.02-10.425 12.021-16.753-.002-6.328-4.27-12.28-12.021-16.754-16-9.238-42.033-9.236-58.034 0-14.083 8.131-15.757 20.748-5.047 29.955Zm51.884-23.49c4.761 2.75 7.382 6.402 7.382 10.287 0 3.889-2.62 7.541-7.382 10.29-4.758 2.747-11.09 4.263-17.825 4.263-6.73 0-13.056-1.514-17.816-4.262-9.826-5.672-9.826-14.904.002-20.578 9.826-5.672 25.814-5.672 35.639 0Z" class="color807dfb svgShape"></path><path d="M1003.313 1110.76c8 .713 40.01-4.217 56.839-9.252l-54.157-31.267Z" style="mix-blend-mode:multiply" fill="url(#C)"></path><path fill="#e539c6" d="m1004.578 1100.687-53.298-137.36c-2.76-7.121-6.981-10.47-10.236-8.682l-.006-.015 11.396-6.579.005.015c3.254-1.79 7.475 1.563 10.235 8.68l53.298 137.362c1.957 5.043 1.803 8.437-.002 9.606l.002.008-.166.094c-.066.038-.123.08-.193.114l-11.035 6.371-.001-.004c1.804-1.169 1.956-4.567.001-9.61Z" class="colore57139 svgShape"></path><path fill="#fb4bdb" d="M951.28 963.326c-3.32-8.558-8.754-11.699-12.075-6.973l-53.295 75.822c-3.32 4.726-.603 11.725 6.038 15.562l106.59 61.542c6.644 3.833 9.36-.034 6.04-8.592Z" class="colorfb944b svgShape"></path><path fill="#f4f6f8" d="m941.354 1048.123 7.78 4.491v8.982l-7.78-4.491v-8.982zM939.844 989.856l10.796 6.236-1.506 47.419-7.78-4.492-1.51-49.163z" class="colorf6f6fb svgShape"></path><path d="M258.71 774.176c0 5.355 3.794 7.546 8.435 4.87l74.553-43.047 18.115 17.21v-27.668l7.123-4.114c4.64-2.676 8.434-9.252 8.434-14.607v-66.726c0-5.358-3.795-7.548-8.434-4.87l-99.791 57.614c-4.64 2.681-8.435 9.252-8.435 14.61Z" style="mix-blend-mode:multiply" fill="url(#D)"></path><path d="m277.829 712.193-.001 7.76 6.72-3.879v-7.761l-6.719 3.88zM277.829 727.708l-.001 7.764 6.719-3.879.003-7.765-6.721 3.88zM277.83 743.226l-.003 7.765 6.721-3.88.001-7.764-6.719 3.879z" style="mix-blend-mode:multiply" fill="#cee3f8" class="colorced3f8 svgShape"></path><path d="M299.813 704.668c.07-11.967 8.794-22.322 18.634-28.003 9.84-5.682 18.914-6.005 18.704 6.205 0 11.685-9.282 18.253-13.33 23.733-1.884 2.538-2.652 5.238-2.652 9.025v.403l-9.212 5.319v-.484c.07-11.08 3.978-15.835 7.677-20.227 3.699-4.392 7.956-7.495 7.956-12.33 0-6.205-4.955-4.794-9.282-2.296-4.467 2.579-9.073 8.139-9.143 13.256Zm22.264 20.59c0 8.462-11.167 14.909-11.167 6.447 0-8.542 11.167-14.988 11.167-6.447Z" style="mix-blend-mode:screen" fill="#fb4bdb" class="colorfb944b svgShape"></path><path d="M177.955 992.18c-11.05-6.385-25.748-9.321-40.181-8.892h-29.017v3.705a59.762 59.762 0 0 0-11.98 5.187c-20.572 11.97-20.456 31.356.252 43.328a59.93 59.93 0 0 0 11.728 5.073v3.872h33.529c13.05-.21 25.979-3.176 35.92-8.934 20.573-11.983 20.478-31.369-.251-43.339Z" style="mix-blend-mode:multiply" fill="url(#i)"></path><path fill="url(#j)" d="M74.107 1035.478c-10.427-6.021-15.629-13.916-15.611-21.811l.045-19.073c-.02 7.893 5.182 15.79 15.61 21.815 20.72 11.958 54.197 11.958 74.78.014 10.229-5.956 15.345-13.727 15.365-21.512l-.041 19.061c-.028 7.79-5.139 15.57-15.369 21.518-20.574 11.956-54.055 11.956-74.78-.012Z"></path><path fill="#f4f6f8" d="M74.152 1016.41c-20.718-11.962-20.828-31.348-.25-43.312 20.59-11.964 54.075-11.964 74.785 0 20.724 11.964 20.824 31.35.244 43.325-20.583 11.944-54.06 11.944-74.78-.014Z" class="colorf6f6fb svgShape"></path><path fill="#bbd0e6" d="m102.78 1000.734-1.548-.894a59.291 59.291 0 0 0 8.09-6.539l5.837-5.481a50.457 50.457 0 0 1 8.23-6.66 11.896 11.896 0 0 1 5.979-1.584 11.383 11.383 0 0 1 5.873 1.481q2.532 1.462 2.533 3.392-.002 1.93-2.568 3.412a87.624 87.624 0 0 1-11.747 4.75l-9.53 3.35a104.806 104.806 0 0 0-11.15 4.773Zm-5.769 2.477q2.356 1.36 2.357 3.29 0 1.928-2.392 3.31a12.61 12.61 0 0 1-11.394 0q-2.357-1.361-2.357-3.29-.001-1.93 2.356-3.29a11.362 11.362 0 0 1 5.698-1.38 11.137 11.137 0 0 1 5.732 1.36Z" class="colorbbc0e6 svgShape"></path><path d="M584.653 989.287c-6.598-3.813-15.374-5.566-23.992-5.31h-17.326v2.212a35.699 35.699 0 0 0-7.152 3.098c-12.284 7.147-12.214 18.722.15 25.87a35.778 35.778 0 0 0 7.002 3.03v2.31h20.02c7.792-.125 15.512-1.895 21.448-5.333 12.284-7.155 12.227-18.73-.15-25.877Z" style="mix-blend-mode:multiply" fill="url(#E)"></path><path fill="url(#F)" d="M522.646 1015.14c-6.226-3.596-9.331-8.31-9.32-13.024l.026-11.388c-.011 4.713 3.094 9.428 9.321 13.026 12.372 7.14 32.36 7.14 44.65.008 6.107-3.557 9.162-8.196 9.174-12.845l-.025 11.381c-.016 4.652-3.068 9.297-9.176 12.848-12.284 7.14-32.276 7.14-44.65-.007Z"></path><path fill="#f4f6f8" d="M522.673 1003.754c-12.37-7.143-12.436-18.718-.15-25.861 12.295-7.144 32.289-7.144 44.654 0 12.374 7.143 12.434 18.718.146 25.869-12.29 7.132-32.278 7.132-44.65-.008Z" class="colorf6f6fb svgShape"></path><path fill="#6bb5ff" d="M565.25 992.411v-2.542h-18.148l-.001-10.478h-4.402v10.478h-18.148v2.542h18.148v10.478l4.403-.001v-10.477h18.148z" class="colorffc16b svgShape"></path></g></g></g></svg>