<svg xmlns="http://www.w3.org/2000/svg" enable-background="new 0 0 67 67" viewBox="0 0 67 67" id="Productivity"><g fill="#010001" class="color000000 svgShape"><path fill="#f4f6f8" d="M36.7832451,10.2086849l6.2741356,3.6461334
										c-3.7597008-2.1849041-8.9661942-1.8775444-14.7127953,1.440258l-6.2741375-3.6461306
										C27.817049,8.3311434,33.0235405,8.0237846,36.7832451,10.2086849z" class="colora0a8aa svgShape"></path><path fill="#948d99" d="M13.7682228,64.2588196L7.4940829,60.61269
										c-3.7123208-2.1573677-6.0140009-6.7453728-6.0324864-13.2658157
										c-0.0371933-13.1193085,9.1881704-29.1041946,20.6088524-35.6979294l6.2741375,3.6461306
										C16.9239063,21.8888092,7.6985416,37.8736954,7.7357349,50.9930038
										C7.7542205,57.5134468,10.0559006,62.1014519,13.7682228,64.2588196z" class="color8d9799 svgShape"></path><path fill="#948d99" d="M28.3445873,15.2950659l-6.2741432-3.6461267
										C13.8715019,16.3826008,6.8045425,25.9563789,3.4833479,35.8352165l6.2741108,3.6461258
										C13.078702,29.6025047,20.1456451,20.0287266,28.3445873,15.2950659z" class="color8d9799 svgShape"></path><path fill="#867e8c" d="M3.4833479,35.8352165c-1.3050811,3.8818474-2.0322485,7.8107491-2.0217528,11.5116615
										c0.0185142,6.5204353,2.320195,11.1084442,6.0324674,13.2658081l6.2741594,3.6461258
										c-3.7123213-2.1573639-6.0140023-6.7453728-6.0324836-13.2658081
										c-0.0104957-3.7009125,0.7166715-7.6298141,2.0217204-11.5116615L3.4833479,35.8352165z" class="color7e8a8c svgShape"></path><path fill="#f4f6f8" d="M13.7682705,64.2593842l-6.2737517-3.6454582
										c-3.7115879-2.1575279-6.0133014-6.7476082-6.032011-13.2682381l6.2737846,3.6481323
										C7.755002,57.5144501,10.0566826,62.1018715,13.7682705,64.2593842z" class="colora0a8aa svgShape"></path><g fill="#010001" class="color000000 svgShape"><path fill="#6822a2" d="M28.3445854,15.2950764c11.4206696-6.5937262,20.7080803-1.2971954,20.7452736,11.822113
										c0.0372047,13.1232357-9.1898766,29.1071491-20.6105461,35.7008743
										c-11.4206791,6.5937347-20.7063732,1.2981796-20.743578-11.825058
										C7.6985416,37.8736954,16.9239063,21.8888092,28.3445854,15.2950764z" class="color6d797a svgShape"></path></g></g><path fill="#d2d4d6" d="M39.5369797,16.9504147c3.3823433,1.7448559,5.5047531,5.7321835,5.5212784,11.4961491
								c0.0293655,11.1748085-7.8477287,24.816864-17.5672741,30.4296341
								c-4.2356224,2.4459457-8.1308193,2.9661827-11.1813278,1.8514595
								c3.1735401,1.6370964,7.4558048,1.300827,12.1607494-1.4161491
								c9.7195435-5.6127739,17.5966415-19.2548294,17.5672722-30.429636
								C46.0196037,22.5784245,43.4864807,18.3936844,39.5369797,16.9504147z" class="colord6d4d2 svgShape"></path><path fill="#f4f6f8" d="M45.0577011,28.4466286c0.0026741,0.667551-0.0240211,1.3431187-0.080101,2.0266914
								c-0.8384476,10.7502365-8.3497124,23.1266212-17.487154,28.4029427
								c-4.2349377,2.4459-8.1307697,2.9665909-11.1801376,1.8504486
								c-3.3831415-1.7436485-5.5059557-5.7302589-5.5219765-11.4952202
								c-0.0320415-10.9932175,7.6020584-24.3869629,17.1079903-30.1572666
								c0.1522026-0.0934677,0.3070641-0.1842461,0.4592667-0.2723675c2.2963848-1.3270817,4.4912815-2.0881004,6.5072842-2.3257351
								c0.0293846-0.0053463,0.0560799-0.0080185,0.0827751-0.0106907c0.1228333-0.0133476,0.2456703-0.0266972,0.3658142-0.0347157
								c0.0106926,0,0.0213661,0,0.0293846-0.0026722c0.8678169-0.0694103,1.7009201-0.0400429,2.4939613,0.0854492
								c0.0534058,0.0106907,0.1068153,0.018692,0.1602211,0.0267105c0.5340424,0.0934505,1.0493889,0.2323074,1.5406952,0.4112053
								C42.9188843,18.6950588,45.0416832,22.6816692,45.0577011,28.4466286z" class="colorffffff svgShape"></path><g fill="#010001" class="color000000 svgShape"><path fill="#4a4a4a" d="M27.8719368 20.4253025c.3136902-.1811104.5685444-.0339203.5695667.3265343l.0086308 3.04426c.0010223.3604527-.2521725.7990017-.5658627.9801102-.3136902.1811104-.5702381.0368614-.5712605-.3235931l-.0086288-3.04426C27.30336 21.0479012 27.5582466 20.606411 27.8719368 20.4253025zM27.9640064 52.9013329c.3136902-.1811104.5685387-.035881.569561.3245735l.0086365 3.0462189c.0010223.3604546-.2521725.7990036-.5658627.980114-.3136902.1811066-.5702381.0368576-.5712605-.323597l-.0086346-3.0462151C27.3954239 53.5219727 27.6503162 53.0824432 27.9640064 52.9013329zM15.1155748 45.5794144c.3136902-.1811104.5685444-.0339279.5695658.3265266.0010223.3604546-.2521706.7990036-.5658617.9801102l-2.6493034 1.5295792c-.3136902.1811066-.5702496.0368652-.5712719-.3235893-.0010214-.3604546.2538776-.8019447.5675678-.9830513L15.1155748 45.5794144zM43.3783035 29.2619171c.3136902-.1811085.5685425-.033926.5695648.3265285s-.2521706.7990036-.5658607.9801121l-2.6510162 1.5305634c-.3136902.1811104-.5685387.035881-.5695572-.3245735-.0010223-.3604546.2521629-.8009567.5658531-.9820652L43.3783035 29.2619171zM16.9576416 31.9372711c.1455479-.0840321.2910595-.104269.4022388-.0409184l1.8797188 1.0731525c.2223473.1267128.2235184.5400581.002615.9226837-.110445.1913071-.2556057.3388863-.4009476.422802-.1453304.0839043-.2908516.1041489-.4020309.0407982l-1.8814125-1.0702133c-.2223473-.1267128-.2235203-.5400581-.0026226-.9246407C16.666502 32.1691322 16.8120918 32.0213051 16.9576416 31.9372711zM37.0070038 43.3630486c.14534-.0839119.290863-.103672.4020348-.0393257l1.8797112 1.0711937c.2223587.1267014.2235298.5400429.0026169.9226837-.1104469.1912994-.2556076.3388901-.4009476.422802-.1453285.0839081-.2908516.1041412-.4020195.0407906l-1.8797264-1.0711975c-.2240448-.1257286-.2252159-.5390701-.0026131-.9226723C36.7165146 43.5950203 36.8616714 43.4469528 37.0070038 43.3630486zM18.8965607 53.8191185c.1453419-.0839157.2908649-.103672.4020348-.0393257.2223473.126709.2235203.5400505.0026169.9226723l-1.867506 3.2346611c-.1104584.1913071-.2556076.3388901-.4011574.422924s-.2914982.1045151-.4035225.0416603c-.2223473-.1267242-.2235184-.5400658-.002615-.9226875l1.8692055-3.23563C18.6060715 54.0510902 18.7512321 53.9030228 18.8965607 53.8191185zM38.8155098 19.317625c.14534-.0839138.290863-.1041565.4020309-.0408001.2223625.1286697.2235374.5420113.0026207.9246445l-1.8675041 3.2346497c-.1104469.1913071-.2556076.3388901-.4009476.422802-.1453323.0839062-.2908554.1041508-.4020348.0407982-.2240448-.1257343-.2252159-.5390759-.0026131-.9226837l1.8675117-3.2366161C38.5250206 19.5491123 38.6701813 19.4015312 38.8155098 19.317625z" class="color4a4a4a svgShape"></path></g><g fill="#010001" class="color000000 svgShape"><g fill="#010001" class="color000000 svgShape"><path fill="#d2d4d6" d="M30.0044765,9.2443466l-0.0053329,3.3036947
									c-0.0017414,0.6154423-0.4063148,1.2300806-1.2146893,1.6998568
									c-1.6268673,0.9454317-4.2720032,0.9454441-5.9081821,0.0007954
									c-0.8231754-0.4752598-1.2343845-1.0992327-1.2326183-1.7223797L21.648983,9.222621
									c-0.0017643,0.623147,0.4094448,1.2471189,1.2326202,1.7223787c1.636179,0.9446487,4.2813148,0.9446363,5.9081821-0.0007954
									C29.5981598,10.4744282,30.0027332,9.8597898,30.0044765,9.2443466z" class="colord6d4d2 svgShape"></path><path fill="#c0c2c4" d="M28.7897873,10.9442024c-1.5828838,0.9198809-4.1270313,0.9420385-5.7705975,0.0726156v3.3064604
									c1.6437492,0.8665648,4.1840839,0.8434944,5.7652702-0.075387c0.8083744-0.4697733,1.2129421-1.0844126,1.2146835-1.6998568
									l0.0053368-3.303689C30.0027294,9.8597898,29.5981617,10.4744291,28.7897873,10.9442024z" class="colorc4c2c0 svgShape"></path><path fill="#afb0b2" d="M28.7897873,10.9442024c-0.1943798,0.112957-0.4035473,0.2120256-0.6234684,0.2979269v3.3014126
									c0.2179222-0.0854073,0.4253731-0.1836281,0.6181412-0.2956505
									c0.8083744-0.4697733,1.2129421-1.0844126,1.2146835-1.6998568l0.0053368-3.303689
									C30.0027294,9.8597898,29.5981617,10.4744291,28.7897873,10.9442024z" class="colorb2b0af svgShape"></path><ellipse cx="25.827" cy="9.233" fill="#e6e7e9" rx="2.42" ry="4.178" transform="rotate(-89.86 25.827 9.233)" class="colore9e8e6 svgShape"></ellipse></g></g><g fill="#010001" class="color000000 svgShape"><g fill="#010001" class="color000000 svgShape"><path fill="#d2d4d6" d="M32.5639038,5.2648692l-0.0086021,3.5991225
									c-0.0028076,0.9922419-0.655077,1.9831877-1.9583721,2.7405806
									c-2.6229038,1.5242653-6.8875046,1.5242853-9.525423,0.0012827
									c-1.3271561-0.7662344-1.9901257-1.7722292-1.9872761-2.7768936l0.0085907-3.5991192
									c-0.0028458,1.0046635,0.6601238,2.0106583,1.9872799,2.7768927
									c2.6379185,1.5230017,6.9025192,1.5229826,9.525423-0.0012827
									C31.9088192,7.2480593,32.5610886,6.257113,32.5639038,5.2648692z" class="colord6d4d2 svgShape"></path><path fill="#c0c2c4" d="M30.6055279,8.0054483c-2.5519924,1.4830713-6.6537743,1.5187941-9.3036022,0.117074v3.6035814
									c2.6501236,1.3971128,6.7457581,1.3599176,9.2950134-0.121542c1.3032951-0.7573881,1.9555588-1.7483358,1.9583626-2.7405815
									l0.008606-3.5991135C32.5610847,6.257113,31.908823,7.2480607,30.6055279,8.0054483z" class="colorc4c2c0 svgShape"></path><path fill="#afb0b2" d="M30.6055279,8.0054483c-0.3133869,0.1821136-0.6506176,0.3418369-1.0051804,0.4803314v3.5954418
									c0.3513432-0.1376972,0.6858025-0.2960529,0.9965916-0.4766598
									c1.3032951-0.7573881,1.9555588-1.7483358,1.9583626-2.7405815l0.008606-3.5991135
									C32.5610847,6.257113,31.908823,7.2480607,30.6055279,8.0054483z" class="colorb2b0af svgShape"></path><ellipse cx="25.828" cy="5.247" fill="#e6e7e9" rx="3.901" ry="6.736" transform="rotate(-89.86 25.828 5.247)" class="colore9e8e6 svgShape"></ellipse></g></g><g fill="#010001" class="color000000 svgShape"><path fill="#4a4a4a" d="M28.1006012,28.9889698c0.3172531-0.1831646,0.5739136-0.036871,0.574913,0.3159218l0.0235386,8.3025036
					l8.9344769-5.1583214c0.3173218-0.1832047,0.5739822-0.036911,0.575016,0.3276443
					c0.0009995,0.3527908-0.253994,0.7945023-0.5713158,0.9777069l-9.5075569,5.4891891
					c-0.143322,0.0827484-0.2969761,0.1007843-0.399683,0.0422859c-0.1026363-0.0585289-0.1645603-0.1994705-0.1650276-0.364109
					l-0.025404-8.9610538C27.538559,29.6079445,27.7935524,29.1662464,28.1006012,28.9889698z" class="color4a4a4a svgShape"></path></g><g fill="#010001" class="color000000 svgShape"><path fill="#4a4a4a" d="M28.4070282,36.3960381c0.9657516-0.5575752,1.7511101-0.1096916,1.7542553,0.9996986
					c0.0031471,1.1097221-0.7771111,2.4613495-1.7428627,3.0189247c-0.9657516,0.557579-1.7509651,0.1097794-1.7541122-0.9999466
					C26.6611633,38.3053246,27.4412766,36.9536171,28.4070282,36.3960381z" class="color4a4a4a svgShape"></path></g><g fill="#010001" class="color000000 svgShape"><g fill="#010001" class="color000000 svgShape"><polygon fill="#82b1e0" points="57.098 32.542 57.13 51.046 61.321 53.482 61.288 34.977" class="color82c6e0 svgShape"></polygon><polygon fill="#5046e4" points="61.288 34.977 61.321 53.482 65.539 51.046 65.506 32.542" class="color3f9ae0 svgShape"></polygon><polygon fill="#b5d4f4" points="57.098 32.542 61.288 34.977 65.506 32.542 61.316 30.107" class="colorb5e5f4 svgShape"></polygon></g><g fill="#010001" class="color000000 svgShape"><polygon fill="#dd4ac2" points="49.902 38.4 49.934 55.163 54.087 57.576 54.055 40.814" class="colordd4a4a svgShape"></polygon><polygon fill="#a50b89" points="54.055 40.814 54.087 57.576 58.268 55.162 58.236 38.4" class="colorcc4848 svgShape"></polygon><polygon fill="#f25ad6" points="49.902 38.4 54.055 40.814 58.236 38.4 54.083 35.986" class="colorf25a5a svgShape"></polygon></g><g fill="#010001" class="color000000 svgShape"><polygon fill="#489bef" points="42.73 44.284 42.761 59.252 46.854 61.631 46.823 46.663" class="colorefc348 svgShape"></polygon><polygon fill="#dd40c0" points="46.823 46.663 46.854 61.631 50.975 59.252 50.944 44.283" class="colorddb040 svgShape"></polygon><polygon fill="#51a8ff" points="42.73 44.284 46.823 46.663 50.944 44.283 46.85 41.905" class="colorffd651 svgShape"></polygon></g><g fill="#010001" class="color000000 svgShape"><polygon fill="#9a60cb" points="35.652 50.299 35.682 63.211 39.621 65.5 39.591 52.588" class="color6dcb60 svgShape"></polygon><polygon fill="#7f3db5" points="39.591 52.588 39.621 65.5 43.588 63.21 43.557 50.298" class="color3db542 svgShape"></polygon><polygon fill="#72a4d6" points="35.652 50.299 39.591 52.588 43.557 50.298 39.618 48.009" class="color81d672 svgShape"></polygon></g></g></svg>