<svg xmlns="http://www.w3.org/2000/svg" viewBox="0 0 2000 2000" id="Recruitment"><path fill="#f4f6f8" d="m1497.678 597.193-1.34 468.803c0 7.626-2.681 13.072-7.039 15.588l-11.814 6.869c4.357-2.516 7.038-7.962 7.122-15.584l1.257-468.803c.083-15.416-10.809-34.268-24.215-41.977l-588.202-339.6c-6.787-3.936-12.903-4.271-17.344-1.759l11.815-6.787c4.441-2.598 10.557-2.262 17.344 1.677l588.202 339.597c13.406 7.707 24.298 26.56 24.214 41.976z" class="colorc5d4dd svgShape"></path><path fill="#474e56" d="M1461.633 562.048c13.428 7.752 24.305 26.596 24.262 42.024l-1.329 468.782c-.044 15.431-10.993 21.67-24.42 13.918L871.95 747.178c-13.428-7.752-24.305-26.593-24.262-42.024l1.329-468.782c.044-15.428 10.993-21.67 24.42-13.918l588.196 339.594z" class="color474756 svgShape"></path><path fill="#5046e4" d="m1460.765 590.635-1.317 466.73-586.629-338.734 1.316-466.73z" class="color5576db svgShape"></path><path fill="#6822a2" d="m1473.496 1101.1-.084 27.313c0 5.114-3.351 10.138-9.971 13.996l-405.289 235.531c-13.406 7.79-35.108 7.79-48.598 0l-588.118-339.6c-6.787-3.854-10.138-9.046-10.138-14.16l.083-27.313c0 5.11 3.352 10.306 10.055 14.16l588.202 339.601c13.49 7.79 35.192 7.79 48.598 0l405.289-235.535c6.62-3.855 9.971-8.883 9.971-13.993z" class="color616173 svgShape"></path><path fill="#dce6f1" d="M1463.353 1086.978c13.428 7.753 13.496 20.356.157 28.108l-405.313 235.542c-13.342 7.753-35.098 7.753-48.525.001l-588.196-339.595c-13.428-7.753-13.499-20.354-.157-28.107l405.313-235.542c13.339-7.752 35.097-7.753 48.525-.001l588.196 339.594z" class="colordce8f1 svgShape"></path><path fill="#ffffff" d="M889.397 1116.442c2.427 1.401 2.487 3.584.122 4.958l-105.326 62.941c-2.368 1.376-6.181 1.375-8.609-.026l-170.569-98.478c-2.381-1.375-2.442-3.61-.074-4.986l105.326-62.941c2.365-1.374 6.18-1.32 8.561.054l170.569 98.478z" class="colorffffff svgShape"></path><path fill="#4c545e" d="m920.378 798.307 21.552-12.525 445.234 257.055-21.552 12.525zM854.473 807.368c2.381 1.374 2.442 3.61.076 4.985l-11.687 6.792c-2.365 1.374-6.228 1.348-8.609-.027l-25.067-14.472c-2.381-1.375-2.392-3.585-.027-4.959l11.687-6.792c2.365-1.374 6.179-1.373 8.559.001l25.068 14.472zm-27.64 16.062c2.381 1.374 2.439 3.612.074 4.986l-24.904 14.473c-2.365 1.375-6.228 1.348-8.609-.026l-25.067-14.473c-2.381-1.374-2.392-3.585-.027-4.959l24.904-14.473c2.365-1.374 6.181-1.375 8.562 0l25.067 14.472zm-21.679 33.635c2.381 1.375 2.392 3.585.027 4.959l-24.904 14.473c-2.365 1.374-6.181 1.375-8.562 0l-43.226-24.956c-2.381-1.375-2.392-3.585-.027-4.959l24.904-14.473c2.365-1.374 6.181-1.375 8.562 0l43.226 24.956zm-53.22 109.017c2.381 1.375 2.44 3.557.075 4.932l-28.057 16.305c-2.368 1.376-6.181 1.375-8.562 0l-25.067-14.472c-2.381-1.375-2.395-3.583-.027-4.959l28.057-16.305c2.365-1.374 6.133-1.347 8.514.027l25.067 14.472zm45.706-22.29c2.381 1.374 2.439 3.612.074 4.986l-24.904 14.473c-2.365 1.374-6.228 1.348-8.609-.027l-25.021-14.446c-2.381-1.375-2.392-3.585-.027-4.959l24.904-14.473c2.365-1.375 6.181-1.375 8.562 0l25.021 14.446zm17.485-34.82c2.381 1.374 2.394 3.638.029 5.013l-24.904 14.473c-2.365 1.375-6.228 1.348-8.609-.027l-25.02-14.445c-2.381-1.375-2.439-3.612-.074-4.986l24.904-14.473c2.365-1.375 6.273-1.374 8.654 0l25.02 14.445zM774 885.228c2.381 1.374 2.347 3.611-.018 4.986l-24.904 14.473c-2.365 1.375-6.181 1.375-8.562 0l-51.908-29.969c-2.381-1.375-2.392-3.585-.027-4.959l24.904-14.473c2.365-1.375 6.227-1.401 8.607-.027L774 885.228zm121.831-53.982c2.381 1.375 2.441 3.61.076 4.985l-11.687 6.792c-2.365 1.375-6.228 1.348-8.608-.026l-25.067-14.473c-2.381-1.375-2.392-3.585-.027-4.959l11.687-6.792c2.365-1.374 6.179-1.373 8.559.001l25.067 14.472zm41.405 23.905c2.381 1.375 2.395 3.583.03 4.958l-11.687 6.792c-2.365 1.374-6.181 1.375-8.562 0l-25.067-14.473c-2.381-1.374-2.439-3.612-.074-4.986l11.687-6.792c2.365-1.374 6.225-1.346 8.606.028l25.067 14.473zm-68.904-7.762c2.381 1.375 2.439 3.612.074 4.986l-24.904 14.473c-2.365 1.374-6.228 1.348-8.609-.027l-25.021-14.446c-2.381-1.374-2.392-3.585-.027-4.959l24.904-14.473c2.365-1.375 6.181-1.375 8.562 0l25.021 14.446zm39.725 22.935c2.381 1.375 2.439 3.612.074 4.986l-24.904 14.473c-2.365 1.375-6.228 1.348-8.609-.026l-25.067-14.472c-2.381-1.375-2.392-3.585-.027-4.959l24.904-14.473c2.365-1.375 6.181-1.375 8.562 0l25.067 14.471zm-241.454 46.492c2.381 1.375 2.44 3.557.075 4.932l-28.057 16.305c-2.368 1.376-6.181 1.375-8.562 0l-25.067-14.473c-2.381-1.375-2.395-3.583-.027-4.959l28.057-16.305c2.365-1.375 6.133-1.347 8.514.027l25.067 14.473zm42.665 24.633c2.381 1.375 2.44 3.557.075 4.932l-28.057 16.305c-2.368 1.376-6.181 1.375-8.562 0l-25.067-14.473c-2.381-1.375-2.442-3.61-.074-4.986l28.057-16.305c2.365-1.375 6.18-1.32 8.561.054l25.067 14.473zm41.371-23.501c2.381 1.375 2.392 3.585.027 4.959l-24.904 14.473c-2.365 1.375-6.179 1.373-8.559-.001l-66.986-38.674c-2.381-1.374-2.395-3.583-.03-4.958l24.904-14.473c2.365-1.374 6.181-1.375 8.562 0l66.986 38.674zm103.463 13.528c2.381 1.375 2.347 3.611-.018 4.986l-24.904 14.473c-2.365 1.375-6.181 1.375-8.562 0l-25.021-14.446c-2.381-1.374-2.439-3.612-.074-4.986l24.904-14.473c2.365-1.374 6.273-1.374 8.654 0l25.021 14.446zm30.875-28.326c2.381 1.374 2.439 3.612.074 4.986l-24.904 14.473c-2.365 1.374-6.228 1.348-8.609-.027l-25.02-14.445c-2.381-1.375-2.439-3.612-.074-4.986l24.904-14.473c2.365-1.374 6.228-1.348 8.609.027l25.02 14.445zM846 880.646c2.381 1.374 2.439 3.612.074 4.986l-24.904 14.473c-2.365 1.374-6.228 1.348-8.609-.027l-25.021-14.446c-2.381-1.375-2.439-3.612-.074-4.986l24.904-14.473c2.365-1.375 6.228-1.348 8.609.026L846 880.646zm132.595-1.616c2.381 1.375 2.395 3.583.03 4.958l-11.687 6.792c-2.365 1.375-6.181 1.375-8.562 0l-25.067-14.473c-2.381-1.375-2.393-3.585-.027-4.959l11.687-6.792c2.365-1.374 6.179-1.373 8.559.001l25.067 14.473zm-53.893 47.055c2.381 1.374 2.392 3.585.027 4.959l-24.904 14.473c-2.365 1.375-6.181 1.375-8.562 0l-25.067-14.472c-2.381-1.375-2.439-3.612-.074-4.986l24.904-14.473c2.365-1.375 6.228-1.348 8.609.026l25.067 14.473zm-30.875 28.326c2.381 1.374 2.347 3.611-.018 4.986l-24.904 14.473c-2.365 1.374-6.181 1.375-8.562 0l-25.067-14.472c-2.381-1.375-2.439-3.612-.074-4.986l24.904-14.473c2.365-1.375 6.273-1.374 8.654 0l25.067 14.472zm250.202 20.132c2.381 1.374 2.442 3.61.076 4.985l-11.687 6.792c-2.365 1.375-6.228 1.348-8.609-.026l-25.021-14.446c-2.38-1.375-2.439-3.612-.074-4.986l11.687-6.792c2.365-1.375 6.225-1.346 8.606.028l25.022 14.445zm-345.462 18.463c2.381 1.375 2.44 3.557.075 4.932l-28.057 16.305c-2.368 1.376-6.181 1.375-8.562 0l-33.003-19.054c-2.381-1.374-2.395-3.583-.027-4.959l28.057-16.305c2.365-1.375 6.133-1.347 8.514.027l33.003 19.054zm284.235 164.103c2.381 1.375 2.44 3.557.075 4.932l-28.057 16.305c-2.368 1.376-6.181 1.375-8.562 0l-25.767-14.877c-2.381-1.375-2.395-3.583-.027-4.959l28.057-16.305c2.365-1.375 6.133-1.347 8.514.027l25.767 14.877zm-41.545-23.986c2.334 1.348 2.44 3.557.075 4.932l-28.057 16.305c-2.368 1.376-6.228 1.348-8.562 0l-33.003-19.054c-2.381-1.375-2.395-3.583-.027-4.959l28.057-16.305c2.365-1.375 6.133-1.347 8.514.027l33.003 19.054zm34.316-28.866c2.381 1.375 2.393 3.585.027 4.959l-24.904 14.473c-2.365 1.375-6.181 1.375-8.562 0l-25.067-14.473c-2.381-1.374-2.392-3.585-.027-4.959l24.904-14.473c2.365-1.375 6.181-1.375 8.562 0l25.067 14.473zm151.22-81.93c2.381 1.374 2.395 3.583.03 4.958l-11.687 6.792c-2.365 1.375-6.181 1.375-8.562 0l-25.067-14.473c-2.381-1.375-2.392-3.585-.027-4.959l11.687-6.792c2.365-1.374 6.179-1.373 8.559.001l25.067 14.473zm-41.359-23.879c2.381 1.375 2.395 3.583.03 4.958l-11.687 6.792c-2.365 1.374-6.181 1.375-8.562 0l-25.067-14.473c-2.381-1.375-2.392-3.585-.027-4.959l11.687-6.792c2.365-1.374 6.179-1.373 8.559.001l25.067 14.473zm-22.524 65.167c2.381 1.375 2.393 3.585.027 4.959l-24.904 14.473c-2.365 1.375-6.181 1.375-8.562 0l-25.067-14.473c-2.381-1.375-2.439-3.612-.074-4.986l24.904-14.473c2.365-1.374 6.228-1.348 8.609.027l25.067 14.473zm-30.874 28.325c2.381 1.375 2.347 3.611-.018 4.986l-24.904 14.473c-2.365 1.375-6.181 1.375-8.562 0l-25.067-14.473c-2.381-1.375-2.439-3.612-.074-4.986l24.904-14.473c2.365-1.375 6.273-1.374 8.654 0l25.067 14.473zm152.363 87.968c2.381 1.374 2.347 3.611-.018 4.986l-24.904 14.473c-2.365 1.374-6.181 1.375-8.562 0l-51.861-29.942c-2.381-1.375-2.439-3.612-.074-4.986l24.904-14.473c2.365-1.375 6.273-1.374 8.654 0l51.861 29.942zm25.111-109.825c2.381 1.375 2.395 3.583.03 4.958l-11.687 6.792c-2.365 1.374-6.181 1.375-8.562 0l-25.067-14.473c-2.381-1.375-2.392-3.585-.027-4.959l11.687-6.792c2.365-1.374 6.179-1.373 8.559.001l25.067 14.473zm-148.419 83.548c2.381 1.374 2.439 3.612.074 4.986l-24.904 14.473c-2.365 1.375-6.228 1.348-8.608-.026l-25.021-14.446c-2.381-1.375-2.392-3.585-.027-4.959l24.904-14.473c2.365-1.374 6.181-1.375 8.562 0l25.02 14.445zm13.704-37.004c2.381 1.375 2.347 3.611-.018 4.986l-24.904 14.473c-2.365 1.375-6.181 1.375-8.562 0l-25.067-14.473c-2.381-1.374-2.392-3.585-.027-4.959l24.904-14.473c2.365-1.374 6.226-1.401 8.607-.027l25.067 14.473zm50.873-62.93c2.381 1.375 2.439 3.612.074 4.986l-24.904 14.473c-2.365 1.374-6.228 1.348-8.608-.027l-25.067-14.473c-2.381-1.375-2.392-3.585-.027-4.959l24.904-14.473c2.365-1.374 6.181-1.375 8.562 0l25.066 14.473zm39.678 22.908c2.381 1.375 2.439 3.612.074 4.986l-24.904 14.473c-2.365 1.375-6.228 1.348-8.609-.026l-25.02-14.446c-2.381-1.375-2.439-3.612-.074-4.986l24.904-14.473c2.365-1.375 6.228-1.348 8.609.026l25.02 14.446zm85.522 17.357c2.381 1.375 2.442 3.61.077 4.985l-11.687 6.792c-2.365 1.374-6.228 1.348-8.609-.027l-25.067-14.473c-2.38-1.374-2.392-3.585-.027-4.959l11.687-6.792c2.365-1.375 6.179-1.373 8.559.001l25.067 14.473zm-148.28-7.439c2.381 1.375 2.392 3.585.027 4.959l-24.904 14.473c-2.365 1.374-6.181 1.375-8.562 0l-25.021-14.446c-2.381-1.375-2.439-3.612-.074-4.986l24.904-14.473c2.365-1.375 6.228-1.348 8.609.026l25.021 14.447zm104.816 14.365c2.381 1.375 2.392 3.585.027 4.959l-24.904 14.473c-2.365 1.375-6.181 1.375-8.562 0l-25.021-14.446c-2.381-1.375-2.439-3.612-.074-4.986l24.904-14.473c2.365-1.375 6.228-1.348 8.609.026l25.021 14.447zm84.869 16.979c2.381 1.375 2.395 3.583.03 4.958l-11.687 6.792c-2.365 1.375-6.181 1.375-8.562 0l-25.067-14.473c-2.381-1.375-2.439-3.612-.074-4.986l11.687-6.792c2.365-1.375 6.225-1.346 8.606.028l25.067 14.473zm-146.879-6.63c2.381 1.375 2.392 3.585.027 4.959l-24.904 14.473c-2.365 1.375-6.181 1.375-8.562 0l-25.067-14.473c-2.381-1.375-2.439-3.612-.074-4.986l24.904-14.473c2.365-1.375 6.228-1.348 8.609.026l25.067 14.474zm119.24 22.692c2.38 1.375 2.392 3.585.027 4.959l-24.904 14.473c-2.365 1.374-6.181 1.375-8.562 0l-43.226-24.956c-2.381-1.375-2.439-3.612-.074-4.986l24.904-14.473c2.365-1.374 6.228-1.348 8.608.026l43.227 24.957zm-79.562.216c2.381 1.374 2.392 3.585.027 4.959l-24.904 14.473c-2.365 1.374-6.181 1.375-8.562 0l-25.067-14.473c-2.381-1.375-2.393-3.585-.027-4.959l24.904-14.473c2.365-1.374 6.181-1.375 8.562 0l25.067 14.473zm39.725 22.935c2.381 1.374 2.392 3.585.027 4.959l-24.904 14.473c-2.365 1.375-6.181 1.375-8.562 0l-25.067-14.473c-2.38-1.375-2.439-3.612-.074-4.986l24.904-14.473c2.365-1.375 6.228-1.348 8.609.026l25.067 14.474zm-257.935-195.07c2.381 1.375 2.392 3.585.027 4.959l-24.904 14.473c-2.365 1.374-6.181 1.375-8.562 0l-25.067-14.472c-2.381-1.375-2.392-3.585-.027-4.959l24.904-14.473c2.365-1.375 6.181-1.375 8.562 0l25.067 14.472zm-62.757 9.919c2.381 1.375 2.392 3.585.027 4.959l-24.904 14.473c-2.365 1.375-6.181 1.375-8.562 0l-25.067-14.472c-2.381-1.375-2.439-3.612-.074-4.986l24.904-14.473c2.365-1.375 6.228-1.348 8.609.026l25.067 14.473zm102.435 12.99c2.381 1.375 2.439 3.612.074 4.986l-24.904 14.473c-2.365 1.375-6.228 1.348-8.609-.026l-25.021-14.446c-2.381-1.374-2.439-3.612-.074-4.986l24.904-14.473c2.365-1.374 6.228-1.348 8.609.027l25.021 14.445zm-62.757 9.918c2.381 1.375 2.392 3.585.027 4.959l-24.904 14.473c-2.365 1.375-6.181 1.375-8.562 0l-25.02-14.445c-2.381-1.375-2.439-3.612-.074-4.986l24.904-14.473c2.365-1.375 6.228-1.348 8.609.026l25.02 14.446zm-70.553 5.417c2.381 1.374 2.347 3.611-.018 4.986l-24.904 14.473c-2.365 1.374-6.181 1.375-8.562 0l-25.067-14.472c-2.381-1.375-2.439-3.612-.074-4.986l24.904-14.473c2.365-1.375 6.273-1.374 8.654 0l25.067 14.472zm173.035 7.6c2.381 1.374 2.392 3.585.027 4.959l-24.904 14.473c-2.365 1.375-6.181 1.375-8.562 0l-25.067-14.473c-2.381-1.375-2.392-3.585-.027-4.959l24.904-14.473c2.365-1.374 6.181-1.375 8.562 0l25.067 14.473zm-229.497 4.717c2.381 1.375 2.439 3.612.074 4.986l-24.904 14.473c-2.365 1.374-6.228 1.348-8.609-.027l-25.067-14.472c-2.381-1.375-2.392-3.585-.027-4.959l24.904-14.473c2.365-1.374 6.181-1.375 8.562 0l25.067 14.472zm166.74 5.201c2.381 1.375 2.392 3.585.027 4.959l-24.904 14.473c-2.365 1.375-6.181 1.375-8.562 0l-25.067-14.473c-2.381-1.375-2.439-3.612-.074-4.986l24.904-14.473c2.365-1.375 6.228-1.348 8.609.026l25.067 14.474zm-70.6 5.39c2.381 1.375 2.347 3.611-.018 4.986l-24.904 14.473c-2.365 1.375-6.181 1.375-8.562 0l-25.021-14.446c-2.381-1.375-2.439-3.612-.074-4.986l24.904-14.473c2.365-1.374 6.273-1.374 8.654 0l25.021 14.446zm173.035 7.6c2.381 1.375 2.439 3.612.074 4.986l-24.904 14.473c-2.365 1.374-6.228 1.348-8.609-.026l-25.021-14.446c-2.381-1.375-2.439-3.612-.074-4.986l24.904-14.473c2.365-1.374 6.228-1.348 8.609.027l25.021 14.445zm-229.497 4.717c2.381 1.375 2.439 3.612.074 4.986l-24.904 14.473c-2.365 1.375-6.228 1.348-8.609-.027l-25.02-14.445c-2.381-1.375-2.439-3.612-.074-4.986l24.904-14.473c2.365-1.375 6.228-1.348 8.609.026l25.02 14.446zm166.74 5.201c2.381 1.375 2.392 3.585.027 4.959l-24.904 14.473c-2.365 1.374-6.181 1.375-8.562 0l-25.021-14.446c-2.381-1.375-2.439-3.612-.074-4.986l24.904-14.473c2.365-1.375 6.228-1.348 8.608.026l25.022 14.447zm-70.553 5.417c2.381 1.374 2.347 3.611-.018 4.986l-24.904 14.473c-2.365 1.375-6.181 1.375-8.562 0l-25.067-14.473c-2.381-1.375-2.439-3.612-.074-4.986l24.904-14.473c2.365-1.375 6.273-1.374 8.654 0l25.067 14.473zm-56.462 12.317c2.381 1.375 2.392 3.585.027 4.959l-24.904 14.473c-2.365 1.375-6.181 1.375-8.562.001l-25.067-14.473c-2.381-1.375-2.392-3.585-.027-4.959l24.904-14.473c2.365-1.374 6.181-1.375 8.562 0l25.067 14.472zm96.14 10.591c2.381 1.375 2.347 3.611-.018 4.986l-24.904 14.473c-2.365 1.375-6.181 1.375-8.562.001l-25.021-14.446c-2.381-1.375-2.439-3.612-.074-4.986l24.904-14.473c2.365-1.375 6.273-1.374 8.654 0l25.021 14.445zm-56.462 12.317c2.381 1.375 2.439 3.612.074 4.986l-24.904 14.473c-2.365 1.375-6.228 1.348-8.609-.026l-25.021-14.446c-2.381-1.375-2.392-3.585-.027-4.959l24.904-14.473c2.365-1.375 6.181-1.375 8.562 0l25.021 14.445zm-48.694 20.565c2.427 1.401 2.487 3.584.122 4.958l-28.057 16.305c-2.368 1.376-6.181 1.375-8.609-.026l-170.569-98.478c-2.381-1.375-2.441-3.61-.074-4.986l28.057-16.305c2.365-1.374 6.18-1.32 8.561.054l170.569 98.478zM1102.67 950.665c2.381 1.375 2.442 3.61.076 4.985l-11.687 6.792c-2.365 1.375-6.228 1.348-8.608-.026l-25.021-14.446c-2.381-1.374-2.439-3.612-.074-4.986l11.687-6.792c2.365-1.375 6.225-1.347 8.606.028l25.021 14.445zM1061.312 926.786c2.381 1.375 2.395 3.583.03 4.958l-11.687 6.792c-2.365 1.374-6.181 1.375-8.562 0l-25.067-14.473c-2.381-1.375-2.392-3.585-.027-4.959l11.687-6.792c2.365-1.375 6.179-1.373 8.559.001l25.067 14.473zM1019.953 902.908c2.381 1.375 2.395 3.583.03 4.958l-11.687 6.792c-2.365 1.374-6.181 1.375-8.562 0l-25.067-14.472c-2.381-1.375-2.392-3.585-.027-4.959l11.687-6.792c2.365-1.375 6.179-1.373 8.559.001l25.067 14.472zM947.735 893.232c2.381 1.375 2.439 3.612.074 4.986l-24.904 14.473c-2.365 1.374-6.228 1.348-8.608-.027l-25.021-14.446c-2.381-1.375-2.439-3.612-.074-4.986l24.904-14.473c2.365-1.374 6.228-1.348 8.609.027l25.02 14.446zM987.459 916.167c2.381 1.375 2.439 3.612.074 4.986l-24.904 14.473c-2.365 1.374-6.228 1.348-8.609-.027l-25.067-14.472c-2.381-1.375-2.392-3.585-.027-4.959l24.904-14.473c2.365-1.374 6.181-1.375 8.562 0l25.067 14.472zM877.043 989.636c2.381 1.374 2.439 3.612.074 4.986l-24.904 14.473c-2.365 1.374-6.228 1.348-8.609-.027l-25.021-14.446c-2.381-1.374-2.439-3.612-.074-4.986l24.904-14.473c2.365-1.374 6.228-1.348 8.609.027l25.021 14.446zM1027.137 939.075c2.381 1.374 2.439 3.612.074 4.986l-24.904 14.473c-2.365 1.374-6.228 1.348-8.609-.027l-25.02-14.445c-2.381-1.374-2.439-3.612-.074-4.986l24.904-14.473c2.365-1.374 6.228-1.348 8.609.027l25.02 14.445zM964.38 948.994c2.381 1.374 2.392 3.585.027 4.959l-24.904 14.473c-2.365 1.374-6.181 1.375-8.562 0L905.92 953.98c-2.381-1.374-2.439-3.612-.074-4.986l24.904-14.473c2.365-1.375 6.228-1.348 8.609.026l25.021 14.447zM933.505 977.319c2.381 1.374 2.347 3.611-.018 4.986l-24.904 14.473c-2.365 1.375-6.181 1.375-8.562 0L875 982.332c-2.381-1.375-2.439-3.612-.074-4.986l24.904-14.473c2.365-1.375 6.273-1.374 8.654 0l25.021 14.446zM837.365 966.727c2.381 1.375 2.439 3.612.074 4.986l-24.904 14.473c-2.365 1.374-6.228 1.348-8.609-.027l-25.067-14.472c-2.381-1.375-2.392-3.585-.027-4.959l24.904-14.473c2.365-1.374 6.181-1.375 8.562 0l25.067 14.472zM1217.6 1141.341c2.381 1.375 2.347 3.611-.018 4.986l-24.904 14.473c-2.365 1.374-6.181 1.375-8.562 0l-25.067-14.473c-2.381-1.375-2.439-3.612-.074-4.986l24.904-14.473c2.365-1.374 6.273-1.374 8.654 0l25.067 14.473zM1244.514 1203.086c2.381 1.374 2.392 3.585.027 4.959l-24.904 14.473c-2.365 1.374-6.179 1.373-8.559-.001l-69.88-40.345c-2.381-1.375-2.395-3.583-.03-4.958l24.904-14.473c2.365-1.375 6.181-1.375 8.562 0l69.88 40.345zM1165.286 1204.731c2.381 1.375 2.44 3.557.075 4.932l-28.057 16.305c-2.368 1.376-6.181 1.375-8.562 0l-25.767-14.877c-2.381-1.374-2.395-3.583-.027-4.959l28.057-16.305c2.365-1.375 6.133-1.347 8.514.027l25.767 14.877zM1109.561 1191.094c2.381 1.374 2.439 3.612.074 4.986l-12.009 6.979c-2.368 1.376-6.228 1.348-8.609-.027l-25.721-14.85c-2.381-1.375-2.442-3.61-.074-4.986l12.009-6.979c2.365-1.375 6.228-1.348 8.609.026l25.721 14.851zM1189.431 1237.207c2.381 1.374 2.439 3.612.074 4.986l-12.009 6.979c-2.368 1.376-6.228 1.348-8.608-.026l-25.768-14.877c-2.381-1.375-2.395-3.583-.027-4.959l12.009-6.979c2.365-1.374 6.181-1.375 8.562 0l25.767 14.876zM1268.151 1046.205c2.381 1.375 2.395 3.583.03 4.958l-11.687 6.792c-2.365 1.375-6.181 1.375-8.562 0l-25.067-14.473c-2.381-1.374-2.392-3.585-.027-4.959l11.687-6.792c2.365-1.374 6.179-1.373 8.559.001l25.067 14.473zM1118.332 1128.944c2.381 1.375 2.439 3.612.074 4.986l-24.904 14.473c-2.365 1.374-6.228 1.348-8.609-.027l-25.021-14.446c-2.381-1.375-2.439-3.612-.074-4.986l24.904-14.473c2.365-1.374 6.228-1.348 8.609.027l25.021 14.446z" class="color4c4c5e svgShape"></path><path fill="#cfdbe8" d="M1608.278 765.252c4.936 2.85 8.911 9.752 8.895 15.424l-.076 26.966-194.594-112.349.076-26.966c.016-5.672 4.032-7.961 8.968-5.111l176.731 102.036z" class="colorcfdee8 svgShape"></path><path fill="#98bde2" d="M1595.478 744.593c4.936 2.85 8.911 9.752 8.895 15.424l-.077 26.966-194.594-112.349.076-26.966c.016-5.672 4.032-7.961 8.968-5.111l176.732 102.036z" class="colore2af98 svgShape"></path><path fill="#ffffff" d="M1553.006 734.705c2.889 1.668 5.215 5.709 5.206 9.029s-2.351 4.666-5.24 2.998c-2.889-1.668-5.226-5.715-5.216-9.035.01-3.319 2.362-4.66 5.25-2.992zm17.835 10.297c2.889 1.668 5.226 5.715 5.216 9.035-.009 3.319-2.361 4.66-5.25 2.992-2.889-1.668-5.225-5.715-5.216-9.035.009-3.319 2.361-4.66 5.25-2.992zm17.845 10.303c2.889 1.668 5.226 5.715 5.216 9.035-.009 3.319-2.361 4.66-5.25 2.992-2.889-1.668-5.225-5.715-5.216-9.035s2.362-4.66 5.25-2.992z" class="colorffffff svgShape"></path><path fill="#f4f6f8" d="m1617.096 807.642-.866 305.58-194.594-112.349.866-305.58z" class="colore7f1f7 svgShape"></path><path fill="#f4f6f8" d="m1503.332 934.508-4.883 1.269 1.855 7.666-4.883-6.934-4.883 1.271 1.855-5.47-4.883-6.934 6.055 3.515 1.856-5.566 1.856 7.666zM1535.416 957.118l1.856 7.666-4.883-6.934-4.884 1.319 1.905-5.518-4.884-6.934 6.056 3.515 1.856-5.568 1.807 7.716 6.055 3.467zM1521.84 945.153l-4.932 1.271 1.856 7.666-4.884-6.887-4.883 1.271 1.904-5.52-4.883-6.884 6.055 3.467 1.856-5.518 1.856 7.667zM1558.808 966.492l-4.932 1.271 1.855 7.666-4.883-6.887-4.884 1.271 1.905-5.52-4.883-6.884 6.055 3.467 1.856-5.518 1.856 7.666z" class="colorc5d4dd svgShape"></path><path fill="#69b4ff" d="m1484.873 923.812-4.932 1.271 1.855 7.666-4.883-6.887-4.884 1.271 1.905-5.518-4.884-6.934 6.007 3.515 1.905-5.518 1.855 7.666z" class="colorffd469 svgShape"></path><path fill="#f4f6f8" d="M1435.207 921.642v5.488l168.318 97.179v-5.489zM1435.207 983.494v5.494l60.311 34.821.016-5.486zM1435.207 968.033v5.494l168.318 97.178v-5.494zM1435.207 952.566v5.493l168.318 97.18v-5.495zM1435.207 937.103v5.495l168.318 97.178v-5.494z" class="colorc5d4dd svgShape"></path><path fill="#cfdbe8" d="M1370.807 628.693c4.936 2.85 8.911 9.752 8.895 15.424l-.076 26.966-194.594-112.349.076-26.966c.016-5.672 4.032-7.961 8.968-5.111l176.731 102.036z" class="colorcfdee8 svgShape"></path><path fill="#ea3dcb" d="M1358.007 608.034c4.937 2.85 8.911 9.752 8.895 15.424l-.076 26.966-194.594-112.349.076-26.966c.016-5.672 4.032-7.961 8.968-5.111l176.731 102.036z" class="colorea3d5b svgShape"></path><path fill="#ffffff" d="M1315.536 598.147c2.889 1.668 5.215 5.709 5.206 9.029s-2.351 4.666-5.24 2.998c-2.889-1.668-5.225-5.715-5.216-9.035.009-3.32 2.361-4.66 5.25-2.992zm17.835 10.297c2.889 1.668 5.226 5.715 5.216 9.035-.009 3.319-2.361 4.66-5.25 2.992-2.889-1.668-5.226-5.715-5.216-9.035.009-3.32 2.361-4.66 5.25-2.992zm17.845 10.303c2.889 1.668 5.225 5.715 5.216 9.035-.009 3.319-2.361 4.66-5.25 2.992s-5.226-5.715-5.216-9.035 2.361-4.66 5.25-2.992z" class="colorffffff svgShape"></path><path fill="#f4f6f8" d="m1379.626 671.083-.866 305.58-194.594-112.349.866-305.58z" class="colore7f1f7 svgShape"></path><path fill="#f4f6f8" d="M1329.83 738.488c-.05 17.322-5.992 29.508-15.761 35.399-7.553 4.736-17.423 5.54-28.501 1.763-3.777-1.207-7.705-2.97-11.683-5.286-3.726-2.166-7.453-4.684-11.028-7.605-11.028-8.911-20.847-20.897-28.451-34.192-9.971-17.371-16.064-36.759-16.013-54.383.101-35.399 25.077-49.65 55.845-31.876 30.767 17.725 55.693 60.83 55.592 96.18z" class="colorc5d4dd svgShape"></path><path fill="#b5d8fc" d="M1285.146 687.503c3.311 3.098 5.145 22.035 6.015 22.537.295-.181.749-1.304 1.229-3.059.345.572.711 1.569.871 3.302.31 3.381.616 7.842-1.42 6.666a3.962 3.962 0 0 1-.755-.596c-.091.261-1.827 5.225-5.403 8.77-2.803 2.78-6.681 4.526-11.599 1.916-4.622-2.883-8.306-8.568-11.037-14.236-3.86-8.013-5.718-15.596-5.816-15.995a2.372 2.372 0 0 1-.756-.276c-2.037-1.176-1.709-5.271-1.41-8.3.245-2.224.92-2.422 1.336-2.314.23 1.006.396 1.586.405 1.617-.305-3.674 1.064-7.958 1.913-10.198.243-.466.512-.899.804-1.302 3.055 4.249 6.317 7.04 9.458 8.853 8.54 4.928 15.784 2.731 16.165 2.615z" class="colorfcccb5 svgShape"></path><path fill="#f4f6f8" d="m1262.991 721.484.019 4.562c-.014 4.913 3.447 10.908 7.723 13.377l7.17 4.139c4.276 2.469 7.728.464 7.741-4.448l.013-4.554-.084 41.109c-3.764-1.212-7.688-2.995-11.675-5.297a83.372 83.372 0 0 1-11.024-7.624l.117-41.264z" class="colore7f1f7 svgShape"></path><path fill="#b0d2f4" d="m1285.683 725.122-.027 9.438-.013 4.554c-.014 4.912-3.465 6.917-7.741 4.448l-7.17-4.139c-4.276-2.469-7.737-8.464-7.723-13.377l.013-4.554.025-8.691c2.731 5.668 6.415 11.353 11.037 14.236 4.918 2.612 8.796.866 11.599-1.915z" class="colorf4c3b0 svgShape"></path><path fill="#ededed" d="M1259.524 676.033c-.292.404-.561.837-.804 1.302.363-.958.618-1.513.632-1.542l.172.24z" class="colorededed svgShape"></path><path fill="#0c2340" d="M1274.46 663.677c2.687 1.551 5.409 3.766 7.771 6.749 2.24 2.833 3.045 3.822 3.105 3.857.128.074-2.943-3.942-3.105-4.153.394.246 7.876 4.919 10.744 15.566 2.099 7.747.669 16.69-.587 21.285-.48 1.755-.934 2.878-1.157 3.056-.942-.5-2.776-19.436-6.087-22.534-.381.116-7.625 2.313-16.164-2.617-3.141-1.813-6.403-4.604-9.458-8.853l-.172-.24c-.013.029-.268.584-.632 1.542-.849 2.24-2.219 6.525-1.913 10.198a32.838 32.838 0 0 1-.405-1.617c-.794-3.472-2.254-11.664.454-15.895-.151-.185-3.017-3.703-1.516-10.532.044.046.875.912 2.125 1.634 1.33.768 3.085 1.319 4.665.324 2.006-1.287 7.099-.791 12.332 2.23z" class="color414143 svgShape"></path><path fill="#fd54de" d="M1262.932 721.448v41.313c-11.129-8.95-20.977-20.847-28.523-34.15.895-5.371 2.174-9.974 3.837-10.23 2.942-.511 14.197.126 24.686 3.067zm51.162 52.443c-7.547 4.734-17.396 5.502-28.523 1.792l.128-41.057c10.488 9.081 21.744 21.484 24.686 25.45 1.534 2.049 2.813 7.676 3.709 13.815z" class="colorfd546b svgShape"></path><path fill="#69b4ff" d="m1265.862 797.95-4.884 1.268 1.856 7.667-4.884-6.934-4.883 1.27 1.856-5.47-4.884-6.934 6.056 3.515 1.855-5.565 1.856 7.666zM1297.946 820.56l1.856 7.666-4.884-6.934-4.883 1.318 1.904-5.517-4.883-6.934 6.055 3.514 1.856-5.568 1.807 7.717 6.055 3.467zM1284.37 808.594l-4.932 1.271 1.855 7.666-4.883-6.886-4.884 1.271 1.905-5.52-4.884-6.884 6.056 3.467 1.856-5.518 1.855 7.666z" class="colorffd469 svgShape"></path><path fill="#f4f6f8" d="m1321.338 829.933-4.933 1.271 1.856 7.666-4.884-6.886-4.883 1.271 1.905-5.52-4.884-6.884 6.056 3.467 1.855-5.518 1.856 7.666z" class="colorc5d4dd svgShape"></path><path fill="#69b4ff" d="m1247.402 787.253-4.932 1.271 1.855 7.666-4.883-6.886-4.883 1.271 1.904-5.518-4.883-6.934 6.007 3.515 1.904-5.518 1.856 7.666z" class="colorffd469 svgShape"></path><path fill="#f4f6f8" d="M1197.737 785.083v5.489l168.318 97.179v-5.49zM1197.737 846.935v5.495l60.311 34.821.015-5.486zM1197.737 831.474v5.495l168.318 97.178v-5.495zM1197.737 816.007v5.494l168.318 97.179v-5.495zM1197.737 800.545v5.495l168.318 97.178v-5.495z" class="colorc5d4dd svgShape"></path><path fill="#cfdbe8" d="M1133.337 492.135c4.936 2.85 8.911 9.752 8.895 15.424l-.076 26.966-194.595-112.349.077-26.966c.016-5.672 4.032-7.961 8.968-5.111l176.731 102.036z" class="colorcfdee8 svgShape"></path><path fill="#6f66f1" d="M1120.536 471.476c4.936 2.85 8.911 9.752 8.895 15.424l-.076 26.966-194.594-112.349.076-26.966c.016-5.672 4.032-7.961 8.968-5.111l176.731 102.036z" class="colorbf66f1 svgShape"></path><path fill="#ffffff" d="M1078.065 461.588c2.889 1.668 5.215 5.709 5.206 9.029-.01 3.319-2.351 4.666-5.24 2.998-2.889-1.668-5.226-5.715-5.216-9.035.009-3.319 2.362-4.659 5.25-2.992zm17.835 10.297c2.889 1.668 5.225 5.715 5.216 9.035-.009 3.319-2.361 4.66-5.25 2.992-2.889-1.668-5.226-5.715-5.216-9.035s2.361-4.66 5.25-2.992zm17.845 10.303c2.889 1.668 5.226 5.715 5.216 9.035s-2.362 4.66-5.25 2.992c-2.889-1.668-5.225-5.715-5.216-9.035.009-3.319 2.361-4.66 5.25-2.992z" class="colorffffff svgShape"></path><path fill="#f4f6f8" d="m1142.155 534.525-.866 305.58-194.594-112.349.866-305.58z" class="colore7f1f7 svgShape"></path><path fill="#f4f6f8" d="M1092.36 601.93c-.05 17.322-5.992 29.508-15.761 35.399-7.553 4.736-17.423 5.54-28.501 1.763-3.777-1.207-7.705-2.97-11.683-5.286-3.726-2.166-7.453-4.684-11.028-7.605-11.028-8.911-20.848-20.897-28.451-34.192-9.971-17.371-16.063-36.759-16.013-54.383.101-35.399 25.077-49.65 55.845-31.876 30.766 17.725 55.692 60.83 55.592 96.18z" class="colorc5d4dd svgShape"></path><path fill="#b5d8fc" d="M1047.676 550.945c3.311 3.098 5.145 22.035 6.015 22.537.295-.181.749-1.304 1.229-3.059.345.572.711 1.569.871 3.302.31 3.381.616 7.842-1.42 6.666a4.003 4.003 0 0 1-.755-.596c-.091.261-1.827 5.225-5.403 8.77-2.803 2.78-6.681 4.526-11.599 1.916-4.622-2.883-8.306-8.568-11.037-14.236-3.86-8.013-5.718-15.596-5.816-15.995a2.348 2.348 0 0 1-.756-.276c-2.037-1.176-1.709-5.271-1.41-8.3.245-2.224.92-2.422 1.336-2.314.23 1.006.396 1.586.405 1.617-.305-3.674 1.064-7.958 1.913-10.198.243-.466.512-.899.804-1.302 3.055 4.249 6.317 7.04 9.458 8.853 8.539 4.928 15.783 2.73 16.165 2.615z" class="colorfcccb5 svgShape"></path><path fill="#f4f6f8" d="m1025.52 584.926.019 4.562c-.014 4.913 3.447 10.908 7.723 13.377l7.17 4.139c4.276 2.469 7.728.464 7.741-4.448l.013-4.554-.084 41.109c-3.764-1.212-7.688-2.995-11.675-5.297a83.524 83.524 0 0 1-11.024-7.623l.117-41.265z" class="colore7f1f7 svgShape"></path><path fill="#b0d2f4" d="m1048.213 588.564-.027 9.438-.013 4.554c-.014 4.913-3.465 6.917-7.741 4.448l-7.17-4.139c-4.276-2.469-7.737-8.464-7.723-13.377l.013-4.554.025-8.691c2.731 5.668 6.415 11.353 11.037 14.236 4.918 2.611 8.796.865 11.599-1.915z" class="colorf4c3b0 svgShape"></path><path fill="#ededed" d="M1022.054 539.474c-.292.404-.561.837-.804 1.303a24.9 24.9 0 0 1 .632-1.542c.057.081.115.16.172.239z" class="colorededed svgShape"></path><path fill="#0c2340" d="M1036.99 527.118c2.687 1.551 5.409 3.766 7.771 6.749 2.24 2.833 3.045 3.822 3.105 3.857.128.074-2.943-3.942-3.105-4.153.394.246 7.876 4.919 10.744 15.566 2.099 7.746.669 16.69-.587 21.285-.48 1.755-.934 2.878-1.157 3.056-.942-.5-2.776-19.436-6.087-22.534-.381.116-7.625 2.313-16.164-2.617-3.141-1.813-6.403-4.604-9.458-8.853l-.172-.24c-.013.029-.268.584-.632 1.542-.849 2.24-2.218 6.525-1.913 10.198a34.312 34.312 0 0 1-.405-1.617c-.794-3.472-2.254-11.664.454-15.895-.151-.185-3.017-3.703-1.516-10.532.044.046.874.912 2.124 1.634 1.33.768 3.085 1.319 4.665.324 2.006-1.286 7.1-.791 12.333 2.23z" class="color414143 svgShape"></path><path fill="#7bbdff" d="M1025.461 584.89v41.313c-11.128-8.95-20.977-20.847-28.523-34.15.895-5.371 2.174-9.974 3.837-10.23 2.942-.511 14.198.125 24.686 3.067zm51.162 52.442c-7.547 4.734-17.396 5.502-28.523 1.792l.128-41.057c10.488 9.081 21.744 21.484 24.686 25.45 1.534 2.049 2.814 7.676 3.709 13.815z" class="colorff7bba svgShape"></path><path fill="#69b4ff" d="m1028.391 661.391-4.883 1.269 1.855 7.666-4.883-6.934-4.884 1.271 1.856-5.47-4.883-6.934 6.055 3.514 1.856-5.565 1.856 7.666z" class="colorffd469 svgShape"></path><path fill="#f4f6f8" d="m1060.475 684.001 1.856 7.666-4.883-6.934-4.884 1.319 1.905-5.518-4.884-6.934 6.056 3.515 1.855-5.568 1.807 7.716 6.056 3.467z" class="colorc5d4dd svgShape"></path><path fill="#69b4ff" d="m1046.899 672.036-4.932 1.271 1.856 7.666-4.884-6.887-4.883 1.271 1.904-5.52-4.883-6.884 6.055 3.467 1.856-5.517 1.856 7.666z" class="colorffd469 svgShape"></path><path fill="#f4f6f8" d="m1083.867 693.375-4.932 1.271 1.855 7.666-4.883-6.887-4.883 1.271 1.904-5.52-4.883-6.884 6.055 3.467 1.856-5.518 1.856 7.666z" class="colorc5d4dd svgShape"></path><path fill="#69b4ff" d="m1009.932 650.695-4.932 1.271 1.855 7.666-4.884-6.887-4.883 1.271 1.905-5.518-4.884-6.934 6.007 3.515 1.904-5.518 1.856 7.666z" class="colorffd469 svgShape"></path><path fill="#f4f6f8" d="M960.266 648.525v5.488l168.318 97.179v-5.489zM960.266 710.377v5.494l60.311 34.821.016-5.486zM960.266 694.916v5.494l168.318 97.178v-5.494zM960.266 679.449v5.494l168.318 97.179v-5.495zM960.266 663.986v5.495l168.318 97.178v-5.494z" class="colorc5d4dd svgShape"></path><path fill="#cfdbe8" d="M895.866 355.576c4.937 2.85 8.911 9.752 8.895 15.424l-.076 26.966-194.594-112.349.076-26.966c.016-5.672 4.032-7.961 8.968-5.111l176.731 102.036z" class="colorcfdee8 svgShape"></path><path fill="#399cff" d="M883.066 334.917c4.936 2.85 8.911 9.752 8.895 15.424l-.077 26.966-194.593-112.349.076-26.966c.016-5.672 4.032-7.961 8.968-5.111l176.731 102.036z" class="colorffb839 svgShape"></path><path fill="#ffffff" d="M840.595 325.03c2.889 1.668 5.215 5.709 5.206 9.029s-2.351 4.666-5.24 2.998c-2.889-1.668-5.226-5.715-5.216-9.035s2.361-4.66 5.25-2.992zm17.835 10.297c2.889 1.668 5.226 5.715 5.216 9.035-.009 3.319-2.362 4.66-5.25 2.992-2.889-1.668-5.225-5.715-5.216-9.035s2.361-4.66 5.25-2.992zm17.845 10.303c2.889 1.668 5.226 5.715 5.216 9.035-.01 3.319-2.362 4.66-5.25 2.992-2.889-1.668-5.226-5.715-5.216-9.035.009-3.32 2.361-4.66 5.25-2.992z" class="colorffffff svgShape"></path><path fill="#f4f6f8" d="m904.685 397.966-.867 305.58-194.594-112.349.867-305.58z" class="colore7f1f7 svgShape"></path><path fill="#f4f6f8" d="M854.889 465.371c-.05 17.322-5.992 29.508-15.761 35.399-7.553 4.736-17.423 5.54-28.501 1.763-3.777-1.207-7.705-2.97-11.683-5.286-3.726-2.166-7.453-4.684-11.028-7.605-11.028-8.911-20.847-20.897-28.451-34.192-9.971-17.371-16.064-36.759-16.013-54.384.101-35.399 25.078-49.65 55.845-31.876 30.767 17.726 55.693 60.831 55.592 96.181z" class="colorc5d4dd svgShape"></path><path fill="#b5d8fc" d="M810.205 414.386c3.311 3.098 5.145 22.035 6.015 22.537.295-.181.749-1.304 1.229-3.059.345.572.711 1.569.871 3.302.31 3.381.616 7.842-1.42 6.666a3.962 3.962 0 0 1-.755-.596c-.091.261-1.827 5.225-5.403 8.77-2.803 2.78-6.681 4.526-11.599 1.916-4.622-2.883-8.306-8.568-11.037-14.236-3.86-8.013-5.718-15.596-5.816-15.996a2.348 2.348 0 0 1-.756-.276c-2.037-1.176-1.709-5.271-1.41-8.3.245-2.224.92-2.422 1.336-2.314.23 1.006.396 1.586.405 1.617-.305-3.673 1.064-7.958 1.913-10.198.243-.466.512-.899.804-1.303 3.055 4.249 6.317 7.04 9.458 8.853 8.54 4.93 15.784 2.733 16.165 2.617z" class="colorfcccb5 svgShape"></path><path fill="#f4f6f8" d="m788.049 448.367.019 4.562c-.014 4.912 3.447 10.908 7.723 13.376l7.17 4.139c4.276 2.469 7.727.464 7.741-4.448l.013-4.554-.084 41.109c-3.764-1.212-7.688-2.995-11.675-5.297a83.459 83.459 0 0 1-11.024-7.623l.117-41.264z" class="colore7f1f7 svgShape"></path><path fill="#b0d2f4" d="m810.742 452.005-.027 9.438-.013 4.554c-.014 4.913-3.465 6.917-7.741 4.448l-7.17-4.139c-4.276-2.469-7.737-8.464-7.723-13.376l.013-4.554.025-8.691c2.731 5.668 6.415 11.353 11.037 14.236 4.918 2.611 8.796.864 11.599-1.916z" class="colorf4c3b0 svgShape"></path><path fill="#ededed" d="M784.583 402.916c-.292.404-.561.837-.804 1.303.364-.959.619-1.513.632-1.542l.172.239z" class="colorededed svgShape"></path><path fill="#0c2340" d="M799.519 390.56c2.687 1.551 5.409 3.766 7.771 6.749 2.24 2.833 3.045 3.822 3.106 3.857.128.074-2.943-3.942-3.105-4.153.394.246 7.876 4.919 10.744 15.566 2.099 7.746.669 16.69-.587 21.285-.48 1.755-.934 2.878-1.157 3.056-.942-.5-2.776-19.436-6.087-22.534-.381.116-7.625 2.313-16.164-2.617-3.141-1.813-6.403-4.604-9.458-8.853l-.172-.24c-.013.029-.268.584-.632 1.542-.849 2.24-2.219 6.525-1.913 10.198a34.312 34.312 0 0 1-.405-1.617c-.794-3.472-2.254-11.664.454-15.895-.151-.185-3.017-3.703-1.516-10.532.044.046.875.912 2.125 1.634 1.33.768 3.085 1.319 4.665.324 2.005-1.287 7.098-.791 12.331 2.23z" class="color414143 svgShape"></path><path fill="#2e25b8" d="M787.99 448.332v41.313c-11.128-8.95-20.977-20.847-28.523-34.15.896-5.371 2.174-9.974 3.837-10.23 2.943-.512 14.198.125 24.686 3.067zm51.163 52.442c-7.547 4.734-17.396 5.502-28.523 1.793l.128-41.057c10.488 9.081 21.744 21.484 24.686 25.45 1.534 2.048 2.813 7.675 3.709 13.814z" class="color255bb8 svgShape"></path><path fill="#69b4ff" d="m790.921 524.833-4.884 1.268 1.856 7.667-4.884-6.935-4.883 1.271 1.856-5.47-4.884-6.934 6.056 3.515 1.855-5.565 1.856 7.666z" class="colorffd469 svgShape"></path><path fill="#f4f6f8" d="m823.005 547.443 1.856 7.666-4.884-6.934-4.883 1.318 1.904-5.517-4.883-6.934 6.055 3.514 1.856-5.568 1.807 7.717 6.055 3.467zM809.429 535.477l-4.933 1.271 1.856 7.666-4.883-6.886-4.884 1.271 1.905-5.52-4.884-6.884 6.056 3.467 1.856-5.518 1.855 7.666zM846.396 556.816l-4.932 1.271 1.856 7.666-4.884-6.886-4.883 1.271 1.905-5.52-4.884-6.884 6.056 3.467 1.855-5.518 1.856 7.666z" class="colorc5d4dd svgShape"></path><path fill="#69b4ff" d="m772.461 514.136-4.932 1.271 1.855 7.666-4.883-6.886-4.883 1.271 1.904-5.518-4.883-6.934 6.007 3.515 1.904-5.518 1.856 7.666z" class="colorffd469 svgShape"></path><path fill="#f4f6f8" d="M722.796 511.966v5.489l168.318 97.179v-5.489zM722.796 573.818v5.495l60.311 34.821.015-5.486zM722.796 558.357v5.495l168.318 97.178v-5.495zM722.796 542.89v5.494l168.318 97.179v-5.495zM722.796 527.428v5.495l168.318 97.178v-5.495zM1580.345 886.681c-.058 19.568-7.654 32.687-19.738 37.464-9.783 3.97-22.443 2.417-36.311-5.583-13.753-7.941-26.356-20.945-36.081-36.197-11.97-18.643-19.566-40.568-19.508-60.193.115-35.39 25.147-49.717 55.992-31.937 30.844 17.838 55.761 60.997 55.646 96.446z" class="colorc5d4dd svgShape"></path><path fill="#0c2340" d="M1524.686 803.35c14.072 8.124 25.398 37.032 25.32 64.559-.023 8.143-1.042 15.256-2.83 21.026-3.591-4.524-7.698-8.414-12.139-11.232l-.081-10.341c2.547-1.287 4.767-3.917 5.693-8.914.717.416 3.84 2.013 4.017-2.079.192-4.425.2-6.221-1.601-8.133.207-2.26.327-4.572.355-6.923.046-3.229-.055-6.543-.708-10.049-.652-3.506-1.893-7.267-3.907-10.715-3.076-5.286-7.555-9.223-11.851-12.424-1.444-1.07-2.912-2.115-4.371-2.957-1.138-.657-2.27-1.191-3.382-1.519-4.375-1.299-7.841.759-9.911 4.131-2.07 3.414-2.967 8.097-3.827 12.676-.261 1.329-.486 2.764.061 4.433-.263.784-.54 1.177-.813 1.137-1.95-.279-1.955 1.494-1.784 6.245.154 4.283 3.276 6.292 3.889 6.645 1.245 7.622 4.402 13.827 7.686 18.485l-.481 8.082c-4.575-2.293-8.675-3.143-12.267-2.779-1.753-7.812-2.731-16.076-2.708-24.219.079-27.524 11.569-43.26 25.64-35.135z" class="color414143 svgShape"></path><path fill="#9ec3e8" d="m1534.956 867.362-.029 10.193-9.791 26.657-1.506-.87-9.583-37.758.456-8.182a50.105 50.105 0 0 0 4.678 5.692c1.468 1.545 3.01 2.784 4.553 3.675 1.543.891 3.087 1.434 4.559 1.586 2.055.23 4.479.111 6.663-.993z" class="colore8b09e svgShape"></path><path fill="#f4f6f8" d="m1514.022 865.485.025.099 9.583 37.758-14.437-22.206 4.133-3.831-9.688-9.863 10.269-1.934zM1534.927 877.555l.11.148 10.229 13.772-9.712-1.337 4.134 8.604-14.552 5.469 9.766-26.586z" class="colore7f1f7 svgShape"></path><path fill="#9fcfff" d="M1535.037 877.703c4.441 2.819 8.548 6.709 12.139 11.232 8.041 10.103 13.45 23.29 13.417 34.816l-.001.38c-9.764 4.003-22.419 2.448-36.27-5.549-13.778-7.955-26.4-20.994-36.109-36.199l.001-.422c.033-11.526 5.499-18.435 13.524-19.255 3.609-.367 7.709.484 12.169 2.8l-10.269 1.933 9.688 9.863-4.133 3.831 14.437 22.206-9.583-37.758 9.583 37.758 1.506.87 9.765-26.587-9.765 26.587 14.552-5.469-4.134-8.604 9.712 1.337-10.229-13.77z" class="colorff9fd1 svgShape"></path><path fill="#5b426f" d="M1542.561 852.488c-.012.135-.03.265-.056.392.02-.131.036-.261.056-.392z" class="color6f4d42 svgShape"></path><path fill="#0c2340" d="M1542.713 831.265c.652 3.506.753 6.82.708 10.049a87.355 87.355 0 0 1-.355 6.923c-.132 1.44-.3 2.86-.505 4.251.196-2.181-1.4-5.236-3.162-7.448-1.87-2.349-4.073-4.256-5.832-6.708-2.346-3.259-3.806-7.399-3.724-10.65-1.847 2.613-4.722 3.998-8.07 3.841 1.18-.842 1.737-2.677 1.449-4.874-2.652.669-5.303 1.336-7.955 2.006.997-1.2 1.444-3.098 1.193-5.359a8.697 8.697 0 0 1-1.92 2.36c-1.292 1.156-2.912 1.826-4.68 2.075-.7.08-1.434.406-2.262-.072a1.846 1.846 0 0 1-.129-.082c-.781-.534-1.526-1.56-1.904-2.581-.586-1.774-.361-3.209-.1-4.538.859-4.579 1.756-9.262 3.826-12.676 2.071-3.372 5.536-5.43 9.911-4.131 1.112.328 2.244.862 3.382 1.519 1.459.842 2.926 1.887 4.371 2.957 4.297 3.201 8.775 7.138 11.852 12.424 2.013 3.447 3.254 7.208 3.906 10.714z" class="color414143 svgShape"></path><path fill="#b5d8fc" d="M1529.843 827.682c-.083 3.251 1.377 7.391 3.724 10.65 1.759 2.452 3.962 4.359 5.832 6.708 1.762 2.213 3.358 5.268 3.162 7.448-.019.131-.036.261-.056.392.026-.127.044-.257.056-.392.204-1.391.373-2.811.505-4.251 1.801 1.912 1.793 3.708 1.601 8.133-.178 4.091-3.301 2.495-3.913 2.141-1.029 4.935-3.25 7.565-5.797 8.852-2.184 1.104-4.609 1.223-6.664.993-1.472-.152-3.016-.695-4.559-1.586-1.543-.891-3.085-2.13-4.553-3.675a50.212 50.212 0 0 1-4.678-5.692c-3.284-4.659-6.441-10.863-7.582-18.428-.716-.411-3.838-2.42-3.992-6.703-.17-4.751-.166-6.524 1.784-6.245.273.04.55-.352.852-1.032.378 1.022 1.123 2.048 1.904 2.581.043.03.086.057.129.082.828.478 1.562.152 2.262.072 1.767-.248 3.388-.918 4.68-2.075a8.676 8.676 0 0 0 1.92-2.36c.251 2.26-.196 4.159-1.193 5.359l7.955-2.005c.288 2.197-.269 4.032-1.449 4.874 3.348.157 6.223-1.228 8.07-3.841z" class="colorfcccb5 svgShape"></path><path fill="#5b426f" d="M1542.561 852.488c-.012.135-.03.265-.056.392.02-.131.036-.261.056-.392z" class="color6f4d42 svgShape"></path><path fill="#474e56" d="m1399.605 1348.727 39.995 23.243 151.637-87.548-39.995-23.243z" class="color474756 svgShape"></path><path fill="#fd54de" d="m1554.214 1298.046-27.738-16.12-.356-125.594 27.738 16.119z" class="colorfd546b svgShape"></path><path fill="#ff6ce4" d="m1553.858 1172.451-27.738-16.119 25.579-14.769 27.738 16.12z" class="colorff6c85 svgShape"></path><path fill="#ea3dcb" d="m1579.437 1157.683.356 125.594-25.579 14.769-.356-125.595z" class="colorea3d5b svgShape"></path><path fill="#93c9ff" d="m1515.92 1320.154-27.737-16.119-.265-93.489 27.737 16.119z" class="color93d4ff svgShape"></path><path fill="#b0d7ff" d="m1515.655 1226.665-27.737-16.119 25.529-14.739 27.737 16.119z" class="colorb0e3ff svgShape"></path><path fill="#85c1fd" d="m1541.184 1211.926.265 93.489-25.529 14.739-.265-93.489z" class="color85cdfd svgShape"></path><path fill="#69b4ff" d="m1477.627 1342.263-27.738-16.119-.174-61.44 27.737 16.12z" class="colorffd469 svgShape"></path><path fill="#88c3ff" d="m1477.452 1280.824-27.737-16.12 25.529-14.739 27.737 16.12z" class="colorffe088 svgShape"></path><path fill="#69b4ff" d="m1502.981 1266.085.175 61.439-25.529 14.739-.175-61.439z" class="colorffd469 svgShape"></path><path fill="#7caddf" d="m1439.283 1364.401-27.737-16.12-.084-29.333 27.738 16.119z" class="color7cdf82 svgShape"></path><path fill="#94c0ed" d="m1439.2 1335.067-27.738-16.119 25.58-14.768 27.737 16.119z" class="color94ed96 svgShape"></path><path fill="#7b75d1" d="m1464.779 1320.299.083 29.334-25.579 14.768-.083-29.334z" class="color75d178 svgShape"></path><path fill="#7bbdff" d="m465.6 1261.385-.058 12.861v6.025l-12.57-7.241-6.777-3.94-1.217-.696c-2.027-1.157-3.07-2.721-3.07-4.285l.058-18.942c0 1.216.579 2.373 1.738 3.36.348.348.811.693 1.332.984l20.564 11.874z" class="colorff7bba svgShape"></path><path fill="#ff65e3" d="m492.472 1276.902-.054 18.888-52.854-5.232.053-18.888z" class="colorff65a7 svgShape"></path><path fill="#7bbdff" d="m637.014 1267.69-.056 18.888c0 1.579-.997 3.074-3.018 4.293l-67.325 39.104c-4.099 2.382-10.801 2.41-14.983 0l-59.211-34.174.055-18.888 59.21 34.174c4.182 2.41 10.828 2.382 14.927.028 0-.028.028-.028.028-.028l67.352-39.104c1.968-1.219 3.021-2.715 3.021-4.293z" class="colorff7bba svgShape"></path><path fill="#9fcfff" d="m633.993 1271.986-67.369 39.101c-4.113 2.376-10.774 2.432-14.945 0l-59.201-34.176-26.936-2.664-12.57-1.216-13.381-1.332 6.604-2.608 19.405-7.705-20.564-11.874a6.14 6.14 0 0 1-1.332-.984c-1.159-.987-1.738-2.144-1.738-3.36 0-1.508.985-3.128 3.07-4.288l67.311-39.101c4.113-2.373 10.774-2.432 14.887 0l106.643 61.519c4.171 2.431 4.171 6.315.116 8.688z" class="colorff9fd1 svgShape"></path><path fill="#f4f6f8" d="M519.917 1232.066c5.925 3.421 5.957 9.054-.016 12.526-5.889 3.422-15.615 3.422-21.54.001-6.012-3.471-6.044-9.104-.155-12.527 5.973-3.471 15.699-3.471 21.711 0zm31.359 18.122c5.925 3.421 5.957 9.054-.016 12.526-5.889 3.422-15.615 3.422-21.54.001-6.012-3.471-6.044-9.104-.155-12.527 5.974-3.471 15.699-3.471 21.711 0zm31.36 18.122c5.925 3.421 5.957 9.054-.016 12.526-5.889 3.422-15.615 3.422-21.54.001-6.012-3.471-6.044-9.104-.155-12.527 5.973-3.472 15.699-3.471 21.711 0z" class="colore7f1f7 svgShape"></path><path fill="#1d13ab" d="m889.56 1408.503-.058 18.886c-.058 2.492-1.68 4.981-4.982 6.893l-70.613 41.069c-6.604 3.824-17.378 3.824-24.04 0l-71.076-41.069c-3.359-1.912-5.04-4.46-4.982-7.009v-18.883c0 2.546 1.68 5.097 5.04 7.009l71.076 41.069c6.661 3.824 17.436 3.824 24.039 0l70.613-41.069c3.302-1.912 4.925-4.404 4.983-6.896z" class="color1352ab svgShape"></path><path fill="#c2e0ff" d="m884.582 1415.399-60.65 35.279-9.963 5.793c-6.604 3.821-17.378 3.821-24.04 0l-71.076-41.072c-5.272-3.012-6.43-7.589-3.302-11.238.753-.984 1.854-1.853 3.244-2.664l70.613-41.069c6.604-3.824 17.378-3.824 24.039 0l71.076 41.069c6.663 3.824 6.663 10.081.059 13.902z" class="colorc2ecff svgShape"></path><path fill="#5046e4" d="m832.39 1427.389-8.457 23.29-9.963 5.793c-6.604 3.821-17.378 3.821-24.04 0l-71.076-41.072c-5.272-3.012-6.43-7.589-3.302-11.238l78.838-9.73-14.25 39.446 52.25-6.489z" class="color5576db svgShape"></path><path fill="#399cff" d="M831.481 1396.682c5.12 2.956 5.149 7.825-.014 10.825-5.09 2.958-13.495 2.957-18.616.001-5.196-3-5.224-7.869-.134-10.826 5.163-3.001 13.569-3 18.764 0z" class="colorffb839 svgShape"></path><path fill="#2e25b8" d="m377.347 536.901.63 252.679 163.388-88.215-.63-252.679z" class="color255bb8 svgShape"></path><path fill="#dce6f1" d="m538.292 681.47-.464-226.091-156.457 90.335V681.47z" class="colordce8f1 svgShape"></path><path fill="#cfdbe8" d="m540.861 681.47-.46-224.588-159.03 91.819V681.47z" class="colorcfdee8 svgShape"></path><path fill="#dce6f1" d="m543.43 681.47-.457-223.084-161.602 93.303V681.47z" class="colordce8f1 svgShape"></path><path fill="#cfdbe8" d="m545.999 681.47-.453-221.58-164.175 94.787V681.47z" class="colorcfdee8 svgShape"></path><path fill="#dce6f1" d="m548.567 681.47-.449-220.076-166.747 96.27V681.47z" class="colordce8f1 svgShape"></path><path fill="#cfdbe8" d="m551.136 681.47-.446-218.573-169.319 97.755V681.47z" class="colorcfdee8 svgShape"></path><path fill="#dce6f1" d="m553.705 681.47-.443-217.069-169.698 97.974.21 119.095z" class="colordce8f1 svgShape"></path><path fill="#cfdbe8" d="m556.274 681.47-.439-215.57-169.698 97.978.206 117.592z" class="colorcfdee8 svgShape"></path><path fill="#dce6f1" d="m558.842 681.47-.435-214.066-169.698 97.978.203 116.088z" class="colordce8f1 svgShape"></path><path fill="#dce6f1" d="m561.411 681.47-.431-212.562-169.698 97.978.199 114.584z" class="colordce8f1 svgShape"></path><path fill="#2e25b8" d="m413.445 560.531.63 252.679 154.939-95.777-.63-252.679z" class="color255bb8 svgShape"></path><path fill="#4037c7" d="m372.695 536.849.629 252.679 40.751 23.682-.63-252.679z" class="color3765c7 svgShape"></path><path fill="#f4f6f8" d="m378.418 689.959-.608-144.236 30.544 17.747.607 144.236z" class="colore7f1f7 svgShape"></path><path fill="#5046e4" d="m372.695 536.849 40.75 23.682 154.939-95.777-2.275-1.322-152.832 94.349-35.93-20.88 163.388-88.215-2.274-1.322z" class="color5576db svgShape"></path><path fill="#69b4ff" d="m427.558 566.08.629 252.679 163.472-88.166-.629-252.679z" class="colorffd469 svgShape"></path><path fill="#dce6f1" d="m587.695 710.544-.464-226.092-156.456 90.335v135.757z" class="colordce8f1 svgShape"></path><path fill="#cfdbe8" d="m590.264 710.544-.46-224.588-159.029 91.819v132.769z" class="colorcfdee8 svgShape"></path><path fill="#dce6f1" d="m592.833 710.544-.457-223.084-161.601 93.303v129.781z" class="colordce8f1 svgShape"></path><path fill="#cfdbe8" d="m595.402 710.544-.453-221.58-164.174 94.786v126.794z" class="colorcfdee8 svgShape"></path><path fill="#dce6f1" d="m597.97 710.544-.449-220.077-166.746 96.271v123.806z" class="colordce8f1 svgShape"></path><path fill="#cfdbe8" d="m600.539 710.544-.445-218.573-169.319 97.754v120.819z" class="colorcfdee8 svgShape"></path><path fill="#dce6f1" d="m603.108 710.544-.443-217.069-169.698 97.973.21 119.096z" class="colordce8f1 svgShape"></path><path fill="#cfdbe8" d="m605.677 710.544-.439-215.57-169.698 97.978.206 117.592z" class="colorcfdee8 svgShape"></path><path fill="#dce6f1" d="m608.245 710.544-.435-214.067-169.698 97.979.203 116.088z" class="colordce8f1 svgShape"></path><path fill="#dce6f1" d="m610.814 710.544-.431-212.563-169.698 97.978.199 114.585z" class="colordce8f1 svgShape"></path><path fill="#50a7ff" d="m463.651 589.707.629 252.679 155.033-95.722-.63-252.68z" class="colorffc950 svgShape"></path><path fill="#69b4ff" d="m422.905 566.028.63 252.679 40.745 23.679-.629-252.679z" class="colorffd469 svgShape"></path><path fill="#f4f6f8" d="m428.62 719.138-.598-144.236 30.543 17.741.598 144.239z" class="colore7f1f7 svgShape"></path><path fill="#88c3ff" d="m422.905 566.028 40.746 23.679 155.032-95.723-2.274-1.322-152.833 94.35-36.018-20.932 163.472-88.166-2.27-1.319z" class="colorffe088 svgShape"></path><path fill="#ea3dcb" d="m477.857 595.311.629 252.679 163.472-88.167-.63-252.679z" class="colorea3d5b svgShape"></path><path fill="#dce6f1" d="m637.994 739.908-.464-226.091-156.457 90.335v135.756z" class="colordce8f1 svgShape"></path><path fill="#cfdbe8" d="m640.563 739.908-.46-224.588-159.03 91.819v132.769z" class="colorcfdee8 svgShape"></path><path fill="#dce6f1" d="m643.132 739.908-.457-223.084-161.602 93.303v129.781z" class="colordce8f1 svgShape"></path><path fill="#cfdbe8" d="m645.701 739.908-.453-221.58-164.175 94.786v126.794z" class="colorcfdee8 svgShape"></path><path fill="#dce6f1" d="m648.269 739.908-.449-220.076-166.747 96.27v123.806z" class="colordce8f1 svgShape"></path><path fill="#cfdbe8" d="m650.838 739.908-.445-218.573-169.32 97.755v120.818z" class="colorcfdee8 svgShape"></path><path fill="#dce6f1" d="m653.407 739.908-.443-217.069-169.698 97.974.21 119.095z" class="colordce8f1 svgShape"></path><path fill="#cfdbe8" d="m655.976 739.908-.439-215.57-169.698 97.978.206 117.592z" class="colorcfdee8 svgShape"></path><path fill="#dce6f1" d="m658.544 739.908-.435-214.066-169.698 97.978.203 116.088z" class="colordce8f1 svgShape"></path><path fill="#dce6f1" d="m661.113 739.908-.431-212.563-169.698 97.979.199 114.584z" class="colordce8f1 svgShape"></path><path fill="#ea3dcb" d="m513.95 618.937.629 252.679 155.033-95.722-.63-252.679z" class="colorea3d5b svgShape"></path><path fill="#fd54de" d="m473.204 595.259.63 252.679 40.745 23.678-.629-252.679z" class="colorfd546b svgShape"></path><path fill="#f4f6f8" d="m478.921 748.369-.598-144.238 30.533 17.744.608 144.236z" class="colore7f1f7 svgShape"></path><path fill="#ff6ce4" d="m473.204 595.259 40.746 23.678 155.032-95.722-2.274-1.322-152.833 94.349-36.018-20.931 163.471-88.167-2.269-1.319z" class="colorff6c85 svgShape"></path><path fill="#898989" d="M493.859 791.462c7.539 4.353 13.652 14.939 13.627 23.602-.025 8.696-6.178 12.204-13.716 7.851-7.569-4.37-13.682-14.958-13.657-23.655.025-8.663 6.177-12.168 13.746-7.798z" class="color898989 svgShape"></path><path fill="#474e56" d="M493.859 791.462c7.539 4.353 13.652 14.939 13.627 23.602-.025 8.696-6.178 12.204-13.716 7.851-7.569-4.37-13.682-14.958-13.657-23.655.025-8.663 6.177-12.168 13.746-7.798z" class="color474756 svgShape"></path><path fill="#ff6ce4" d="M499.887 822.441c-1.473 0-3.185-.538-4.946-1.556-6.79-3.92-12.506-13.82-12.483-21.618.014-4.599 1.972-7.344 5.248-7.344 1.483 0 3.208.542 4.983 1.568 6.772 3.911 12.474 13.787 12.455 21.567-.013 4.623-1.981 7.383-5.257 7.383z" class="colorff6c85 svgShape"></path><path fill="#898989" d="M443.652 762.764c7.539 4.352 13.652 14.939 13.627 23.602-.025 8.696-6.177 12.204-13.716 7.851-7.569-4.37-13.682-14.958-13.657-23.655.025-8.662 6.177-12.167 13.746-7.798z" class="color898989 svgShape"></path><path fill="#474e56" d="M443.652 762.764c7.539 4.352 13.652 14.939 13.627 23.602-.025 8.696-6.177 12.204-13.716 7.851-7.569-4.37-13.682-14.958-13.657-23.655.025-8.662 6.177-12.167 13.746-7.798z" class="color474756 svgShape"></path><path fill="#88c3ff" d="M449.68 793.744c-1.473 0-3.185-.538-4.946-1.556-6.79-3.92-12.506-13.82-12.483-21.618.014-4.599 1.972-7.344 5.249-7.344 1.482 0 3.208.542 4.983 1.568 6.772 3.911 12.474 13.787 12.455 21.567-.014 4.623-1.982 7.383-5.258 7.383z" class="colorffe088 svgShape"></path><path fill="#898989" d="M393.445 734.067c7.539 4.352 13.652 14.939 13.627 23.602-.025 8.697-6.177 12.204-13.716 7.851-7.569-4.37-13.682-14.959-13.657-23.655.025-8.662 6.177-12.168 13.746-7.798z" class="color898989 svgShape"></path><path fill="#474e56" d="M393.445 734.067c7.539 4.352 13.652 14.939 13.627 23.602-.025 8.697-6.177 12.204-13.716 7.851-7.569-4.37-13.682-14.959-13.657-23.655.025-8.662 6.177-12.168 13.746-7.798z" class="color474756 svgShape"></path><path fill="#5046e4" d="M399.473 765.047c-1.474 0-3.185-.538-4.947-1.556-6.79-3.92-12.506-13.82-12.483-21.618.014-4.599 1.972-7.344 5.249-7.344 1.483 0 3.208.542 4.983 1.568 6.772 3.911 12.474 13.787 12.455 21.567-.013 4.622-1.981 7.383-5.257 7.383z" class="color5576db svgShape"></path><path fill="#f4f6f8" d="M532.081 708.846c-1.46.843-2.623 2.88-2.619 4.578.005 1.656 1.176 2.345 2.636 1.502l24.887-14.369c1.46-.843 2.642-2.89 2.637-4.546-.005-1.698-1.195-2.376-2.654-1.533l-24.887 14.368z" class="colorc5d4dd svgShape"></path><path fill="#474e56" d="M556.965 693.324c2.007-1.159 3.654-.22 3.661 2.108.007 2.307-1.63 5.142-3.637 6.301l-24.887 14.369c-2.025 1.169-3.655.22-3.661-2.087-.007-2.327 1.612-5.152 3.637-6.321l24.887-14.37zm-24.866 21.602 24.887-14.369c1.46-.843 2.642-2.89 2.637-4.546-.005-1.698-1.195-2.376-2.654-1.533l-24.887 14.368c-1.46.843-2.623 2.88-2.619 4.578.004 1.656 1.176 2.344 2.636 1.502" class="color474756 svgShape"></path><path fill="#f4f6f8" d="M532.273 776.502c-1.46.843-2.623 2.88-2.619 4.578.005 1.656 1.176 2.345 2.636 1.502l24.887-14.369c1.46-.843 2.642-2.89 2.637-4.546-.005-1.698-1.195-2.376-2.654-1.533l-24.887 14.368z" class="colorc5d4dd svgShape"></path><path fill="#474e56" d="M557.157 760.98c2.007-1.159 3.654-.22 3.661 2.107.007 2.307-1.63 5.142-3.637 6.301l-24.887 14.369c-2.025 1.169-3.654.22-3.661-2.087-.007-2.327 1.612-5.152 3.637-6.321l24.887-14.369zm-24.867 21.602 24.887-14.369c1.46-.843 2.642-2.89 2.637-4.546-.005-1.698-1.195-2.376-2.654-1.533l-24.887 14.369c-1.46.843-2.623 2.88-2.619 4.578.005 1.655 1.177 2.344 2.636 1.501" class="color474756 svgShape"></path><path fill="#2e25b8" d="m467.467 914.477-.046 15.083c-.046 1.99-1.342 3.978-3.979 5.505l-56.395 32.8c-5.274 3.054-13.879 3.054-19.199 0l-79.762-46.422c-2.683-1.527-4.025-3.562-3.979-5.598v-15.081c0 2.033 1.342 4.071 4.025 5.598l79.762 46.422c5.32 3.054 13.925 3.054 19.199 0l56.395-32.8c2.637-1.527 3.932-3.517 3.979-5.507z" class="color255bb8 svgShape"></path><path fill="#4037c7" d="M463.439 908.873c5.317 3.07 5.345 8.049.062 11.119L407.1 952.769c-5.283 3.07-13.879 3.07-19.196 0l-79.768-46.399c-5.317-3.07-5.345-8.049-.062-11.119l56.402-32.777c5.283-3.07 13.879-3.07 19.196 0l79.767 46.399z" class="color3765c7 svgShape"></path><path fill="#f4f6f8" d="M444.221 907.091 386.545 873.8c-7.542-4.361-19.781-4.361-27.281-.008l-30.135 17.52c-7.5 4.353-7.45 11.443.092 15.796l57.676 33.3c7.542 4.361 19.781 4.361 27.281 0l30.135-17.512c7.501-4.354 7.45-11.444-.092-15.805zm-109.149-12.347 30.135-17.52c1.322-.77 2.913-1.297 4.596-1.582l5.14 23.832-42.558-2.143c.502-.955 1.398-1.842 2.687-2.587zm57.726 42.239-57.676-33.3c-.762-.444-1.39-.929-1.875-1.448l43.035 2.168c1.046 2.118 3.005 4.001 5.617 5.508 3.39 1.951 7.877 3.273 12.908 3.625l.301.025.628 24.636a13.151 13.151 0 0 1-2.938-1.214zm2.997-28.26c-3.114-.218-5.902-1.03-8.003-2.244-2.093-1.214-3.516-2.821-3.901-4.629l-5.533-25.64c.82.276 1.59.611 2.294 1.013l57.668 33.3c.703.402 1.289.845 1.758 1.323l-44.283-3.123zm42.583 10.748-30.144 17.512c-1.197.695-2.612 1.197-4.118 1.498l-.611-24.334 37.594 2.654c-.494.979-1.398 1.9-2.721 2.67z" class="colore7f1f7 svgShape"></path><path fill="#f4f6f8" d="m1178.047 1429.396.11 38.673c-.042-14.777 9.693-29.575 29.177-40.824 38.714-22.352 101.494-22.362 139.976.001 19.103 11.101 28.663 25.659 28.704 40.24l-.11-38.673c-.041-14.581-9.601-29.138-28.704-40.24-38.482-22.363-101.261-22.352-139.976-.001-19.484 11.249-29.218 26.047-29.177 40.824z" class="colorc5d4dd svgShape"></path><path fill="#85c1fd" d="M1207.248 1407.67c38.705-22.359 101.46-22.359 139.94 0 38.48 22.359 38.254 58.697-.451 81.056-38.705 22.359-101.498 22.359-139.978 0-38.48-22.359-38.254-58.697.489-81.056z" opacity=".5" class="color85cdfd svgShape"></path><path fill="#f4f6f8" d="m1164.1 1429.422.09 31.758c.047 16.646 10.963 33.267 32.771 45.941 43.88 25.5 115.534 25.501 159.701.001 22.232-12.836 33.332-29.719 33.285-46.575l-.09-31.758c.048 16.856-11.053 33.739-33.285 46.575-44.168 25.5-115.821 25.5-159.701-.001-21.808-12.674-32.724-29.296-32.771-45.941z" class="colorc5d4dd svgShape"></path><path fill="#f4f6f8" d="M1357.094 1382.859c43.88 25.5 43.662 66.996-.521 92.505-44.168 25.5-115.821 25.5-159.701-.001-43.896-25.51-43.662-67.014.505-92.514 44.183-25.509 115.821-25.5 159.717.01zm-10.369 86.782c38.714-22.352 38.938-58.716.475-81.068-38.482-22.363-101.261-22.352-139.976-.001-38.714 22.352-38.938 58.716-.456 81.079 38.463 22.352 101.242 22.341 139.957-.01" class="colore7f1f7 svgShape"></path><path fill="#6822a2" d="M1153.507 1491.527c1.439-.842 3.422-.719 5.615.544 4.334 2.509 7.844 8.563 7.826 13.564-.018 2.474-.877 4.211-2.299 5.036l25.97-15.091c1.421-.825 2.281-2.562 2.299-5.036.018-5.001-3.492-11.055-7.826-13.564-2.193-1.264-4.176-1.386-5.615-.544l-25.97 15.091z" class="color616173 svgShape"></path><path fill="#f4f6f8" d="M1159.116 1492.077c-4.347-2.51-7.876-.511-7.891 4.484-.014 4.982 3.492 11.056 7.839 13.565 4.336 2.503 7.865.492 7.879-4.49.016-4.995-3.491-11.055-7.827-13.559z" class="colorc5d4dd svgShape"></path><path fill="#fd54de" d="M1024.202 1555.794c2.53-1.481 6.018-1.265 9.875.957 7.622 4.413 13.794 15.059 13.763 23.854-.031 4.351-1.543 7.406-4.042 8.857l125.373-72.163c2.5-1.45 4.012-4.505 4.043-8.857.031-8.795-6.141-19.441-13.763-23.854-3.857-2.222-7.344-2.438-9.875-.957l-125.374 72.163z" class="colorfd546b svgShape"></path><path fill="#a50b89" d="M1034.067 1556.761c-7.645-4.414-13.851-.899-13.876 7.885-.025 8.762 6.142 19.442 13.786 23.856 7.625 4.402 13.832.865 13.857-7.896.025-8.784-6.142-19.442-13.767-23.845z" class="colore22951 svgShape"></path></svg>