<svg xmlns="http://www.w3.org/2000/svg" enable-background="new 0 0 50 50" viewBox="0 0 50 50" id="RoadBanner"><g fill="#010001" class="color000000 svgShape"><polygon fill="#5046e4" points="38.435 44.451 38.434 45.664 32.694 49 32.696 47.786" class="color3f535c svgShape"></polygon><polygon fill="#a50b89" points="32.696 47.786 32.694 49 26.917 45.664 26.918 44.451" class="color475e68 svgShape"></polygon><polygon fill="#f4f6f8" points="38.435 44.451 32.696 47.786 26.918 44.451 32.658 41.115" class="colordde4e7 svgShape"></polygon></g><g fill="#010001" class="color000000 svgShape"><path fill="#6822a2" d="M34.0999,29.6005l-0.0142,15.079c-0.0006,0.1991-0.1313,0.3979-0.3923,0.5497
						c-0.5256,0.3054-1.3812,0.3049-1.9102-0.0006c-0.2662-0.1537-0.3992-0.3554-0.3986-0.5568l0.0142-15.079
						c-0.0006,0.2014,0.1324,0.4031,0.3986,0.5568c0.529,0.3054,1.3847,0.306,1.9102,0.0006
						C33.9686,29.9985,34.0993,29.7996,34.0999,29.6005z" class="color546f7a svgShape"></path><path fill="#4fa6fd" d="M32.3119,28.8203c0.4861,0.2807,0.4887,0.7367,0.0057,1.0173
						c-0.483,0.2807-1.2693,0.2802-1.7555-0.0005s-0.4887-0.7356-0.0057-1.0163C31.0394,28.5401,31.8258,28.5396,32.3119,28.8203z" class="colorfdd24f svgShape"></path></g><g fill="#010001" class="color000000 svgShape"><polygon fill="#5046e4" points="20.463 34.075 20.462 35.288 14.722 38.624 14.724 37.41" class="color3f535c svgShape"></polygon><polygon fill="#a50b89" points="14.724 37.41 14.722 38.624 8.945 35.288 8.946 34.075" class="color475e68 svgShape"></polygon><polygon fill="#f4f6f8" points="20.463 34.075 14.724 37.41 8.946 34.075 14.686 30.739" class="colordde4e7 svgShape"></polygon></g><g fill="#010001" class="color000000 svgShape"><path fill="#6822a2" d="M16.1279,19.2244l-0.0142,15.079c-0.0006,0.1991-0.1313,0.3979-0.3924,0.5497
						c-0.5255,0.3054-1.3812,0.3049-1.9102-0.0006c-0.2662-0.1537-0.3992-0.3554-0.3986-0.5568l0.0142-15.079
						c-0.0006,0.2014,0.1324,0.4031,0.3986,0.5568c0.529,0.3054,1.3847,0.306,1.9102,0.0006
						C15.9967,19.6224,16.1274,19.4235,16.1279,19.2244z" class="color546f7a svgShape"></path><path fill="#4fa6fd" d="M15.7959,19.2847c0.4861,0.2807,0.4887,0.7367,0.0057,1.0173
						c-0.483,0.2807-1.2693,0.2802-1.7555-0.0005c-0.4861-0.2807-0.4887-0.7356-0.0057-1.0163
						C14.5234,19.0046,15.3098,19.0041,15.7959,19.2847z" class="colorfdd24f svgShape"></path></g><g fill="#010001" class="color000000 svgShape"><path fill="none" d="M37.9504 38.2232c0 .0046-.0012.0087-.0012.0128.0001-.0046.0025-.0075.0025-.0128l.0004-.1607-.0012.0006L37.9504 38.2232zM37.843 38.7772c-.0028.0058-.0038.0139-.0067.0203C37.8392 38.7911 37.8401 38.783 37.843 38.7772zM11.0611 2.8501c-.1218-.0696-.2379-.1137-.3502-.1456.1117.0331.227.0777.3478.1474l.1189.069.003-.0017L11.0611 2.8501zM40.4786 36.8831c.0001-.0052.0025-.0081.0025-.0133l.007-2.914-.0083 2.9146C40.4798 36.8749 40.4787 36.8784 40.4786 36.8831zM40.4191 18.0009c-.0714-.2402-.1761-.4798-.3065-.7049l-.0014.0006C40.2412 17.5217 40.3465 17.7607 40.4191 18.0009zM40.3724 37.4237c-.0028.0064-.0038.0145-.0067.0203C40.3687 37.4382 40.3696 37.4301 40.3724 37.4237zM39.094 16.2216L13.5905 1.4967c-.1241-.0708-.242-.1149-.3562-.1462.1136.0325.2307.0772.3538.1485l25.5087 14.7273c.3961.2286.7546.6213 1.0143 1.0703l.0014-.0006C39.8524 16.8458 39.4913 16.4525 39.094 16.2216z"></path><polygon fill="#756284" points="12.565 1.396 12.565 1.396 12.565 1.396" class="color627a84 svgShape"></polygon><path fill="#f4f6f8" d="M13.2343,1.3505c0.1142,0.0313,0.2321,0.0754,0.3562,0.1462L39.094,16.2216
			c0.3972,0.2309,0.7584,0.6242,1.0185,1.0744l0.5238-0.3052c-0.2582-0.4484-0.6151-0.8412-1.0118-1.0721L14.1066,1.195
			c-0.4046-0.2315-0.7658-0.246-1.026-0.1009L12.5679,1.394C12.7482,1.2913,12.978,1.2762,13.2343,1.3505z" class="colordde4e7 svgShape"></path><path fill="#f4f6f8" d="M40.1125,17.296c0.1304,0.2251,0.2352,0.4647,0.3065,0.7049c0.0727,0.2402,0.1129,0.4815,0.1123,0.7101
			l-0.0432,15.2447l-0.007,2.914c0,0.0052-0.0025,0.0081-0.0025,0.0133c-0.0021,0.2118-0.0403,0.3922-0.1062,0.5407
			c-0.0028,0.0064-0.0038,0.0145-0.0067,0.0203c-0.0687,0.1474-0.1682,0.257-0.2881,0.3324
			c-0.0065,0.0041-0.0089,0.0139-0.0155,0.018l0.5161-0.3028c0.2601-0.1439,0.419-0.4763,0.419-0.9242l0.0579-18.164
			c0-0.4554-0.1597-0.9619-0.4188-1.4126L40.1125,17.296z" class="colordde4e7 svgShape"></path><path fill="#b0b6bc" d="M40.3724,37.4237c0.0667-0.1491,0.1045-0.3301,0.1062-0.5407c0.0001-0.0046,0.0012-0.0081,0.0012-0.0128
			l0.0083-2.9146l0.0364-15.2494c0.0036-0.2268-0.0344-0.4664-0.1054-0.7054c-0.0726-0.2402-0.1778-0.4792-0.308-0.7043
			l-0.549,0.3191c0.1371,0.2657,0.2271,0.5523,0.2207,0.8116l-0.0434,18.1628c0,0.2895-0.1012,0.4914-0.2745,0.5929l-0.654,0.3806
			l0.2252,0.13c0.4097,0.2361,0.7784,0.2483,1.0417,0.083c0.1196-0.0783,0.2197-0.1874,0.2881-0.3324
			C40.3686,37.4382,40.3697,37.4301,40.3724,37.4237z" class="colorb0b8bc svgShape"></path><path fill="#68537a" d="M12.5646,1.3957l0.0033-0.0017C12.5668,1.3946,12.5658,1.3952,12.5646,1.3957z" class="color536f7a svgShape"></path><path fill="#b0b6bc" d="M13.3544,2.1139l25.518,14.7238c0.2784,0.1595,0.5216,0.4525,0.6896,0.778l0.549-0.3191
			c-0.2597-0.449-0.6182-0.8418-1.0143-1.0703L13.5881,1.499c-0.1231-0.0714-0.2402-0.116-0.3538-0.1485
			c-0.2583-0.0719-0.4893-0.0551-0.6697,0.0453c-0.2592,0.1503-0.4191,0.4711-0.4204,0.9259l-0.0001,0.0371l0.5456-0.3179
			C12.8632,1.955,13.0943,1.9689,13.3544,2.1139z" class="colorb0b8bc svgShape"></path><rect width=".001" height=".994" x="37.952" y="37.069" fill="#b0b6bc" class="colorb0b8bc svgShape"></rect><polygon fill="#b0b6bc" points="38.468 37.763 38.811 37.564 38.469 37.366" class="colorb0b8bc svgShape"></polygon><rect width="1.109" height=".004" x="11.105" y="3.196" fill="#b0b6bc" transform="rotate(30.006 11.66 3.198)" class="colorb0b8bc svgShape"></rect><path fill="#6822a2" d="M39.5854,17.6454l-1.4139,0.8191c-0.2614-0.4867-0.6297-0.9265-1.0574-1.1637L12.1638,2.9008
			l-0.4396-0.2616l0.4396-0.2611l0.5466-0.3092c0.1782-0.0951,0.4039-0.0714,0.6653,0.0714l25.5206,14.7209
			C39.1695,17.027,39.4191,17.3124,39.5854,17.6454z" class="color546f7a svgShape"></path><path fill="#b0b6bc" d="M37.8896,19.3543c-0.0619-0.2083-0.1585-0.4131-0.2656-0.6115l-0.0009,0.0006
			C37.73,18.9413,37.8267,19.1461,37.8896,19.3543z" class="colorb0b8bc svgShape"></path><polygon fill="#b0b6bc" points="37.954 37.068 37.954 37.069 37.959 35.309" class="colorb0b8bc svgShape"></polygon><path fill="#b0b6bc" d="M36.5673,17.5797c0.4225,0.2437,0.793,0.677,1.0557,1.1637l0.0009-0.0006
			c-0.2627-0.4873-0.6356-0.9218-1.0594-1.1684L12.141,3.4738v0.0035L36.5673,17.5797z" class="colorb0b8bc svgShape"></path><path fill="#6822a2" d="M39.7639,36.6146l0.0434-18.1628c0.0065-0.2593-0.0835-0.5459-0.2207-0.8116l-1.4139,0.822
			c0.2292,0.427,0.3775,0.8934,0.3775,1.3192L38.494,37.3908l0.3413,0.1972l0.654-0.3806
			C39.6627,37.106,39.7639,36.9041,39.7639,36.6146z" class="color546f7a svgShape"></path><polygon fill="#b0b6bc" points="10.035 2.749 10.035 2.749 10.035 2.749" class="colorb0b8bc svgShape"></polygon><path fill="#f4f6f8" d="M38.147 18.44l-.5228.297c-.2614-.4867-.6416-.9143-1.0574-1.1637L12.1392 3.4703l-.9624-.5465L11.058 2.8524c-.1188-.0714-.2376-.1189-.3445-.1427-.2613-.083-.499-.0714-.6772.0354l.5109-.297c.2614-.1421.6297-.1305 1.0337.0951l.1189.0714.4396.2616 24.9504 14.4001C37.5173 17.5136 37.8856 17.9533 38.147 18.44zM38.5215 19.7575l-.05 17.6104v.5498c0 .4502-.16.7798-.42.9297l-.52.3003c.01 0 .01-.0103.02-.02.12-.0703.22-.1802.28-.3301.01-.0098.01-.0098.01-.02.07-.1499.11-.3301.11-.54 0-.0098 0-.0098 0-.0098v-1.1602l.01-1.7603.04-15.2397c0-.23-.04-.4702-.11-.71-.06-.21-.16-.4199-.27-.6099l.53-.3101C38.3815 18.8679 38.5215 19.3279 38.5215 19.7575z" class="colordde4e7 svgShape"></path><path fill="#a8b2bc" d="M37.7003 37.7759c-.0007.2408-.0843.4049-.2036.5146.1226-.112.2054-.2756.2054-.5146l.002-.8516-.0014-.0006L37.7003 37.7759zM10.0354 2.7486l.0027-.0012C10.0381 2.7474 10.0364 2.7486 10.0354 2.7486z" class="colora8b7bc svgShape"></path><polygon fill="#a8b2bc" points="37.703 36.924 37.704 36.924 37.711 33.925" class="colora8b7bc svgShape"></polygon><path fill="#a8b2bc" d="M37.4275 38.3676h.0003c.029-.0168.0439-.054.0689-.0772C37.4713 38.3137 37.4571 38.3502 37.4275 38.3676zM12.1401 3.7731V3.7679l-.8166-.4716c-.0785-.0453-.1482-.0551-.2209-.0766.0707.0226.138.0319.2144.0789L12.1401 3.7731z" class="colora8b7bc svgShape"></path><polygon fill="#a8b2bc" points="12.14 3.768 12.14 3.773 27.593 12.69" class="colora8b7bc svgShape"></polygon><path fill="#a8b2bc" d="M10.7109 2.7045c-.259-.076-.4909-.0609-.6727.0429l-.0027.0012-.0001.0006C10.217 2.6477 10.4501 2.6308 10.7109 2.7045zM37.8363 38.7975c-.0685.145-.1687.2541-.2883.3324C37.6679 39.0545 37.7675 38.9443 37.8363 38.7975zM37.9491 38.2359c-.0017.2112-.0394.3916-.1062.5413C37.9088 38.6287 37.947 38.4477 37.9491 38.2359zM37.9586 35.3092l.0432-15.2453c.0007-.228-.0395-.4693-.1123-.7095.071.239.1091.4786.1054.7054L37.9586 35.3092z" class="colora8b7bc svgShape"></path><path fill="#b0b6bc" d="M37.9925,20.0563l-0.0357,15.2552v1.7584l-0.0119,0.9984v0.1659c0,0.2141-0.0356,0.3922-0.1069,0.5465
			v0.0122c-0.0713,0.1543-0.1664,0.2611-0.2851,0.3324c-0.2733,0.1665-0.6416,0.1543-1.0455-0.083L10.9986,24.3214
			c-0.8079-0.4629-1.4376-1.5803-1.4376-2.483L9.6204,3.6722c0-0.4513,0.1545-0.7722,0.4158-0.9271
			c0.1782-0.0946,0.4159-0.1183,0.6772-0.0354c0.107,0.0238,0.2257,0.0714,0.3445,0.1427l0.1189,0.0714l0.9624,0.5581
			l24.4276,14.103c0.4277,0.2379,0.796,0.677,1.0574,1.1643c0.1069,0.1903,0.202,0.3922,0.2613,0.6062
			C37.9568,19.5928,38.0044,19.8306,37.9925,20.0563z" class="colorb0b8bc svgShape"></path><path fill="#72ace6" d="M37.1417,38.6433c-0.0905,0-0.21-0.0403-0.3342-0.1136L11.2956,23.8069
			c-0.608-0.3487-1.1405-1.268-1.1405-1.9684l0.0592-18.1644c0-0.2542,0.0673-0.3835,0.1241-0.4174
			c0.0174-0.0006,0.0325-0.0009,0.0453-0.0009c0.0719,0,0.1102,0.0074,0.1497,0.0202c0.0731,0.0187,0.1358,0.036,0.2181,0.0853
			l1.0895,0.6345l24.4294,14.1036c0.304,0.1693,0.6033,0.5067,0.8308,0.9304c0.1067,0.1914,0.1729,0.342,0.2123,0.484
			c0.0661,0.2202,0.0928,0.382,0.0859,0.5091l-0.036,17.0471l-0.0128,1.1643c0,0.125-0.0162,0.2218-0.0511,0.2954l-0.0093,0.0206
			L37.1417,38.6433z" class="color72d4e6 svgShape"></path><path fill="#f4f6f8" d="M22.0556 17.9026l2.3063 7.3839-.9538-.5507-.5098-1.6733-2.6414-1.525-.5175 1.0802-.9538-.5507 2.3406-4.701L22.0556 17.9026zM20.6265 20.8208l1.9076 1.1014-.9468-3.0512L20.6265 20.8208M16.4553 14.5287c.3423.1977.6846.4518 1.0022.7756.3421.3105.635.6767.8545 1.0279l-.4668.491c-.1463-.254-.3661-.4939-.6348-.7605-.2687-.2682-.5131-.4658-.7822-.6211-.2446-.1412-.465-.1845-.6365-.1705l-.2461.3925.243.7038c.1708.2391.5128.5771 1.0505 1.028.5376.4799.9528.9167 1.2211 1.3525.2683.4084.4138.9155.4124 1.4202-.0015.5352-.1739.8572-.5173.9964-.3434.1408-.8085.0402-1.3711-.2845-.8316-.4801-1.5398-1.2265-2.1739-2.2402l.5403-.4761c.5366.8443 1.0983 1.4496 1.6608 1.7744.2935.1695.5138.2127.6855.1713l.2462-.4214L17.3 19.0132c-.1464-.225-.4151-.4932-.8061-.8304-.391-.3387-.6842-.5936-.8796-.7904l-.537-.6751c-.3172-.4367-.4628-.9438-.4612-1.5049.0016-.5626.174-.8861.5417-.9823C15.501 14.1183 15.9416 14.2322 16.4553 14.5287z" class="colorffffff svgShape"></path><polygon fill="#f4f6f8" points="25.993 20.176 25.979 25.262 28.376 26.646 28.373 27.602 25.096 25.71 25.113 19.668" class="colorffffff svgShape"></polygon><polygon fill="#f4f6f8" points="33.062 24.257 33.059 25.213 30.246 23.589 30.242 25.19 32.761 26.644 32.758 27.544 30.239 26.09 30.235 27.72 33.145 29.4 33.142 30.356 29.351 28.167 29.369 22.125" class="colorffffff svgShape"></polygon></g><g fill="#010001" class="color000000 svgShape"><path fill="#f4f6f8" d="M12.6192 5.4111c.4835.2791.873.9586.8714 1.5142S13.097 7.7042 12.6135 7.425c-.4835-.2791-.877-.9559-.8755-1.5115S12.1358 5.132 12.6192 5.4111zM12.5959 21.4457c.4835.2791.873.9539.8715 1.5092-.0016.5556-.3937.7791-.8771.4999-.4835-.2791-.877-.9562-.8755-1.5118C11.7163 21.3877 12.1125 21.1665 12.5959 21.4457z" class="colorffffff svgShape"></path><g fill="#010001" class="color000000 svgShape"><path fill="#f4f6f8" d="M35.1121 18.4438c.4835.2791.873.9587.8714 1.5142-.0016.5556-.3937.7788-.8771.4997-.4835-.2791-.877-.9559-.8755-1.5115S34.6286 18.1647 35.1121 18.4438zM35.0888 34.4783c.4835.2791.873.9539.8715 1.5092-.0016.5556-.3937.7791-.8771.4999-.4835-.2791-.877-.9562-.8755-1.5118C34.2092 34.4203 34.6053 34.1992 35.0888 34.4783z" class="colorffffff svgShape"></path></g></g></svg>