<svg xmlns="http://www.w3.org/2000/svg" xmlns:xlink="http://www.w3.org/1999/xlink" viewBox="0 0 1625.131 1275.874" id="Schedulemanagement"><defs><linearGradient id="q" x1="-80.839" x2="34.321" y1="459.156" y2="259.694" gradientTransform="matrix(-1 0 0 1 1231.793 0)" gradientUnits="userSpaceOnUse"><stop offset="0" stop-color="#c82eac" class="stopColorc82e52 svgShape"></stop><stop offset=".032" stop-color="#c62caa" class="stopColorc62c51 svgShape"></stop><stop offset="1" stop-color="#ff6ae4" class="stopColorff826a svgShape"></stop></linearGradient><linearGradient id="r" x1="41.563" x2="-6.991" y1="408.756" y2="332.506" gradientTransform="matrix(-1 0 0 1 1231.793 0)" gradientUnits="userSpaceOnUse"><stop offset=".006" stop-color="#7c3eaf" class="stopColor423eaf svgShape"></stop><stop offset="1" stop-color="#6f67e9" class="stopColor6b67e9 svgShape"></stop></linearGradient><linearGradient id="s" x1="654.209" x2="1445.713" y1="733.775" y2="733.775" gradientUnits="userSpaceOnUse"><stop offset="0" stop-color="#c4d6e9" class="stopColorc4cae9 svgShape"></stop><stop offset=".277" stop-color="#d0deed" class="stopColord0d4ed svgShape"></stop><stop offset=".77" stop-color="#eef3f9" class="stopColoreef0f9 svgShape"></stop><stop offset="1" stop-color="#ffffff" class="stopColorffffff svgShape"></stop></linearGradient><linearGradient id="t" x1="788.384" x2="1251.486" y1="46.415" y2="848.532" gradientUnits="userSpaceOnUse"><stop offset=".567" stop-color="#cee3f8" class="stopColorced3f8 svgShape"></stop><stop offset=".609" stop-color="#a5b8cc" class="stopColora5abcc svgShape"></stop></linearGradient><linearGradient id="u" x1="1406.139" x2="1471.881" y1="1077.577" y2="1077.577" gradientUnits="userSpaceOnUse"><stop offset="0" stop-color="#c4d4e4" class="stopColorc4c9e4 svgShape"></stop><stop offset=".188" stop-color="#d7e2ed" class="stopColord7daed svgShape"></stop><stop offset=".477" stop-color="#edf2f7" class="stopColoredeef7 svgShape"></stop><stop offset=".753" stop-color="#fafbfd" class="stopColorfafbfd svgShape"></stop><stop offset="1" stop-color="#ffffff" class="stopColorffffff svgShape"></stop></linearGradient><linearGradient id="v" x1="1041.896" x2="1353.24" y1="1032.534" y2="1032.534" gradientUnits="userSpaceOnUse"><stop offset="0" stop-color="#d1e2f3" class="stopColord1d7f3 svgShape"></stop><stop offset="1" stop-color="#ffffff" class="stopColorffffff svgShape"></stop></linearGradient><linearGradient id="w" x1="739.776" x2="1019.38" y1="822.264" y2="822.264" gradientUnits="userSpaceOnUse"><stop offset=".438" stop-color="#c2d6eb" class="stopColorc2c9eb svgShape"></stop><stop offset=".569" stop-color="#c7daed" class="stopColorc7ceed svgShape"></stop><stop offset=".734" stop-color="#d7e4f2" class="stopColord7dcf2 svgShape"></stop><stop offset=".917" stop-color="#f1f5fa" class="stopColorf1f2fa svgShape"></stop><stop offset="1" stop-color="#ffffff" class="stopColorffffff svgShape"></stop></linearGradient><linearGradient id="x" x1="677.582" x2="664.31" y1="755.037" y2="722.425" gradientTransform="matrix(-1 0 0 1 1401.807 0)" gradientUnits="userSpaceOnUse"><stop offset="0" stop-color="#b9d0e8" class="stopColorb9bfe8 svgShape"></stop><stop offset=".247" stop-color="#c2d6eb" class="stopColorc2c7eb svgShape"></stop><stop offset=".65" stop-color="#dbe6f2" class="stopColordbddf2 svgShape"></stop><stop offset="1" stop-color="#f4f6f8" class="stopColorf5f5fa svgShape"></stop></linearGradient><linearGradient id="y" x1="692.27" x2="686.957" y1="730.979" y2="720.569" gradientTransform="matrix(-1 0 0 1 1401.807 0)" gradientUnits="userSpaceOnUse"><stop offset="0" stop-color="#153f74" class="stopColor231574 svgShape"></stop><stop offset=".212" stop-color="#551e83" class="stopColor2b1e83 svgShape"></stop><stop offset=".616" stop-color="#6822a2" class="stopColor4135a9 svgShape"></stop><stop offset="1" stop-color="#5046e4" class="stopColor584fd3 svgShape"></stop></linearGradient><linearGradient id="a" x1="1735.204" x2="1812.742" y1="1111.852" y2="1111.852" gradientTransform="translate(-864.922)" gradientUnits="userSpaceOnUse"><stop offset="0" stop-color="#c2d6eb" class="stopColorc2c9eb svgShape"></stop><stop offset=".111" stop-color="#cedeef" class="stopColorced3ef svgShape"></stop><stop offset=".419" stop-color="#e9f0f8" class="stopColore9ebf8 svgShape"></stop><stop offset=".691" stop-color="#f9fbfd" class="stopColorf9fafd svgShape"></stop><stop offset=".899" stop-color="#ffffff" class="stopColorffffff svgShape"></stop></linearGradient><linearGradient id="z" x1="1727.607" x2="1805.145" y1="1097.798" y2="1097.798" xlink:href="#a"></linearGradient><linearGradient id="A" x1="923.819" x2="1020.879" y1="1036.857" y2="1036.857" gradientUnits="userSpaceOnUse"><stop offset="0" stop-color="#d1e2f3" class="stopColord1d7f3 svgShape"></stop><stop offset=".206" stop-color="#dbe8f6" class="stopColordbe0f6 svgShape"></stop><stop offset="1" stop-color="#ffffff" class="stopColorffffff svgShape"></stop></linearGradient><linearGradient id="B" x1="938.818" x2="938.818" y1="1090.421" y2="1026.527" gradientUnits="userSpaceOnUse"><stop offset="0" stop-color="#ffffff" class="stopColorffffff svgShape"></stop><stop offset=".794" stop-color="#dbe8f6" class="stopColordbe0f6 svgShape"></stop><stop offset="1" stop-color="#d1e2f3" class="stopColord1d7f3 svgShape"></stop></linearGradient><linearGradient id="C" x1="835.326" x2="869.306" y1="1094.769" y2="1094.769" gradientUnits="userSpaceOnUse"><stop offset="0" stop-color="#5a52cc" class="stopColor5652cc svgShape"></stop><stop offset=".635" stop-color="#622c8e" class="stopColor322c8e svgShape"></stop><stop offset="1" stop-color="#193f6f" class="stopColor20196f svgShape"></stop></linearGradient><linearGradient id="D" x1="881.748" x2="870.243" y1="1114.123" y2="1105.312" gradientUnits="userSpaceOnUse"><stop offset="0" stop-color="#193f6f" class="stopColor20196f svgShape"></stop><stop offset=".365" stop-color="#622c8e" class="stopColor322c8e svgShape"></stop><stop offset="1" stop-color="#5a52cc" class="stopColor5652cc svgShape"></stop></linearGradient><linearGradient id="E" x1="949.44" x2="863.861" y1="1003.437" y2="1090.293" gradientUnits="userSpaceOnUse"><stop offset="0" stop-color="#193f6f" class="stopColor20196f svgShape"></stop><stop offset="1" stop-color="#7c3eaf" class="stopColor423eaf svgShape"></stop></linearGradient><linearGradient id="F" x1="-20.719" x2="58.636" y1="1037.209" y2="1037.209" gradientTransform="translate(910.326)" gradientUnits="userSpaceOnUse"><stop offset=".562" stop-color="#a3b6ca" class="stopColora3a9ca svgShape"></stop><stop offset=".612" stop-color="#ccdff2" class="stopColorccd0f2 svgShape"></stop></linearGradient><linearGradient id="G" x1="-383.841" x2="-325.897" y1="1026.317" y2="1026.317" gradientTransform="matrix(-1 0 0 1 552.135 0)" gradientUnits="userSpaceOnUse"><stop offset=".175" stop-color="#7b3ead" class="stopColor423ead svgShape"></stop><stop offset=".198" stop-color="#5a52c9" class="stopColor5652c9 svgShape"></stop><stop offset=".227" stop-color="#6f67e7" class="stopColor6b67e7 svgShape"></stop></linearGradient><linearGradient id="H" x1="-395.755" x2="-353.958" y1="985.24" y2="985.24" gradientTransform="translate(1336.057)" gradientUnits="userSpaceOnUse"><stop offset="0" stop-color="#ff6ae4" class="stopColorff826a svgShape"></stop><stop offset=".281" stop-color="#f967de" class="stopColorf97367 svgShape"></stop><stop offset=".821" stop-color="#e94bcc" class="stopColore94b5f svgShape"></stop><stop offset="1" stop-color="#e33cc5" class="stopColore33c5c svgShape"></stop></linearGradient><linearGradient id="I" x1="633.587" x2="670.706" y1="940.604" y2="940.604" gradientTransform="matrix(-1 0 0 1 1615.686 0)" gradientUnits="userSpaceOnUse"><stop offset="0" stop-color="#193f6f" class="stopColor20196f svgShape"></stop><stop offset=".201" stop-color="#21497c" class="stopColor27217c svgShape"></stop><stop offset=".572" stop-color="#6f369e" class="stopColor3b369e svgShape"></stop><stop offset="1" stop-color="#5a52cc" class="stopColor5652cc svgShape"></stop></linearGradient><linearGradient id="J" x1="510.843" x2="588.551" y1="1124.753" y2="1124.753" gradientUnits="userSpaceOnUse"><stop offset="0" stop-color="#dae7f5" class="stopColordae0f5 svgShape"></stop><stop offset=".327" stop-color="#deeaf6" class="stopColordee3f6 svgShape"></stop><stop offset=".66" stop-color="#eaf1f9" class="stopColoreaeef9 svgShape"></stop><stop offset=".996" stop-color="#ffffff" class="stopColorffffff svgShape"></stop><stop offset="1" stop-color="#ffffff" class="stopColorffffff svgShape"></stop></linearGradient><linearGradient id="K" x1="860.681" x2="911.562" y1="933.863" y2="933.863" gradientUnits="userSpaceOnUse"><stop offset="0" stop-color="#dae7f5" class="stopColordae0f5 svgShape"></stop><stop offset=".571" stop-color="#f2f6fb" class="stopColorf2f4fb svgShape"></stop><stop offset="1" stop-color="#ffffff" class="stopColorffffff svgShape"></stop></linearGradient><linearGradient id="L" x1="503.679" x2="810.442" y1="1030.497" y2="1030.497" gradientUnits="userSpaceOnUse"><stop offset=".083" stop-color="#5a52cc" class="stopColor5652cc svgShape"></stop><stop offset=".108" stop-color="#554dc5" class="stopColor514dc5 svgShape"></stop><stop offset=".143" stop-color="#7f41b3" class="stopColor4541b3 svgShape"></stop><stop offset=".149" stop-color="#7c3eaf" class="stopColor423eaf svgShape"></stop></linearGradient><linearGradient id="b" x1="662.57" x2="783.613" y1="963.437" y2="963.437" gradientUnits="userSpaceOnUse"><stop offset="0" stop-color="#d1e2f3" class="stopColord1d7f3 svgShape"></stop><stop offset=".5" stop-color="#e6eff8" class="stopColore6e9f8 svgShape"></stop><stop offset="1" stop-color="#ffffff" class="stopColorffffff svgShape"></stop></linearGradient><linearGradient id="M" x1="498.915" x2="623.186" y1="1061.883" y2="1061.883" xlink:href="#b"></linearGradient><linearGradient id="N" x1="591.015" x2="686.648" y1="1058.347" y2="1058.347" xlink:href="#b"></linearGradient><linearGradient id="O" x1="753.421" x2="863.92" y1="963.474" y2="963.474" xlink:href="#b"></linearGradient><linearGradient id="P" x1="574.173" x2="638.295" y1="1009.078" y2="1009.078" xlink:href="#b"></linearGradient><linearGradient id="g" x1="460.545" x2="452.612" y1="833.829" y2="820.752" gradientTransform="rotate(-120.001 659.693 767.114)" gradientUnits="userSpaceOnUse"><stop offset="0" stop-color="#f6f8fb" class="stopColorf6f6fb svgShape"></stop><stop offset="1" stop-color="#cee3f8" class="stopColorced3f8 svgShape"></stop></linearGradient><linearGradient id="c" x1="662.586" x2="841.447" y1="941.581" y2="941.581" gradientUnits="userSpaceOnUse"><stop offset=".529" stop-color="#bbd0e6" class="stopColorbbc0e6 svgShape"></stop><stop offset=".7" stop-color="#c7dcf2" class="stopColorc7ccf2 svgShape"></stop><stop offset=".869" stop-color="#cee3f8" class="stopColorced3f8 svgShape"></stop></linearGradient><linearGradient id="Q" x1="498.919" x2="664.105" y1="1035.121" y2="1035.121" xlink:href="#c"></linearGradient><linearGradient id="d" x1="671.188" x2="846.903" y1="984.325" y2="984.325" gradientUnits="userSpaceOnUse"><stop offset="0" stop-color="#cee3f8" class="stopColorced3f8 svgShape"></stop><stop offset=".497" stop-color="#c7dcf2" class="stopColorc7ccf2 svgShape"></stop><stop offset="1" stop-color="#bbd0e6" class="stopColorbbc0e6 svgShape"></stop></linearGradient><linearGradient id="R" x1="644.912" x2="671.188" y1="998.55" y2="998.55" xlink:href="#d"></linearGradient><linearGradient id="S" x1="493.51" x2="669.626" y1="1082.249" y2="1082.249" xlink:href="#d"></linearGradient><linearGradient id="e" x1="-514.563" x2="-587.638" y1="1158.132" y2="1085.057" gradientTransform="matrix(-.7217 .9167 .75 .433 -487 977.998)" gradientUnits="userSpaceOnUse"><stop offset="0" stop-color="#e8eff7" class="stopColore8ecf7 svgShape"></stop><stop offset=".438" stop-color="#eff4f9" class="stopColoreff1f9 svgShape"></stop><stop offset="1" stop-color="#ffffff" class="stopColorffffff svgShape"></stop></linearGradient><linearGradient id="f" x1="-592.328" x2="-495.701" y1="1129.867" y2="1129.867" gradientTransform="matrix(-.7217 .9167 .75 .433 -487 977.998)" gradientUnits="userSpaceOnUse"><stop offset="0" stop-color="#cee3f8" class="stopColorced3f8 svgShape"></stop><stop offset=".123" stop-color="#d9e9fa" class="stopColord9ddfa svgShape"></stop><stop offset=".426" stop-color="#eef5fd" class="stopColoreef0fd svgShape"></stop><stop offset=".721" stop-color="#fbfcfe" class="stopColorfbfbfe svgShape"></stop><stop offset="1" stop-color="#ffffff" class="stopColorffffff svgShape"></stop></linearGradient><linearGradient id="T" x1="-364.719" x2="-440.842" y1="1075.219" y2="999.095" xlink:href="#e"></linearGradient><linearGradient id="U" x1="-443.928" x2="-353.791" y1="1041.921" y2="1041.921" xlink:href="#f"></linearGradient><linearGradient id="V" x1="460.689" x2="452.755" y1="472.372" y2="459.295" xlink:href="#g"></linearGradient><linearGradient id="h" x1="820.743" x2="820.743" y1="545.779" y2="488.935" gradientUnits="userSpaceOnUse"><stop offset=".101" stop-color="#ffffff" class="stopColorffffff svgShape"></stop><stop offset=".313" stop-color="#f9fbfd" class="stopColorf9fafd svgShape"></stop><stop offset=".591" stop-color="#e9f0f7" class="stopColore9ebf7 svgShape"></stop><stop offset=".905" stop-color="#cedded" class="stopColorced3ed svgShape"></stop><stop offset="1" stop-color="#c4d6e9" class="stopColorc4cae9 svgShape"></stop></linearGradient><linearGradient id="W" x1="773.634" x2="773.634" y1="518.58" y2="461.736" xlink:href="#h"></linearGradient><linearGradient id="i" x1="724.867" x2="774.198" y1="672.678" y2="672.678" gradientUnits="userSpaceOnUse"><stop offset="0" stop-color="#c4d6e9" class="stopColorc4cae9 svgShape"></stop><stop offset=".095" stop-color="#cedded" class="stopColorced3ed svgShape"></stop><stop offset=".409" stop-color="#e9f0f7" class="stopColore9ebf7 svgShape"></stop><stop offset=".687" stop-color="#f9fbfd" class="stopColorf9fafd svgShape"></stop><stop offset=".899" stop-color="#ffffff" class="stopColorffffff svgShape"></stop></linearGradient><linearGradient id="X" x1="771.991" x2="821.322" y1="699.885" y2="699.885" xlink:href="#i"></linearGradient><linearGradient id="k" x1="718.406" x2="767.573" y1="537.134" y2="537.134" gradientUnits="userSpaceOnUse"><stop offset="0" stop-color="#0e00dc" class="stopColor00d6dc svgShape"></stop><stop offset=".334" stop-color="#0d00ce" class="stopColor00c6ce svgShape"></stop><stop offset=".987" stop-color="#0b00ab" class="stopColor009bab svgShape"></stop><stop offset="1" stop-color="#0b00aa" class="stopColor009aaa svgShape"></stop></linearGradient><linearGradient id="Y" x1="708.381" x2="761.138" y1="688.959" y2="688.959" xlink:href="#i"></linearGradient><linearGradient id="j" x1="658.772" x2="684.547" y1="685.899" y2="685.899" gradientTransform="matrix(-1 0 0 1 1385.254 0)" gradientUnits="userSpaceOnUse"><stop offset="0" stop-color="#7c3eaf" class="stopColor423eaf svgShape"></stop><stop offset=".109" stop-color="#7539a7" class="stopColor3e39a7 svgShape"></stop><stop offset=".696" stop-color="#224b7e" class="stopColor28227e svgShape"></stop><stop offset="1" stop-color="#193f6f" class="stopColor20196f svgShape"></stop></linearGradient><linearGradient id="Z" x1="702.095" x2="731.647" y1="631.476" y2="631.476" gradientUnits="userSpaceOnUse"><stop offset="0" stop-color="#7c3eaf" class="stopColor423eaf svgShape"></stop><stop offset=".135" stop-color="#7136a2" class="stopColor3b36a2 svgShape"></stop><stop offset=".477" stop-color="#5a2686" class="stopColor2c2686 svgShape"></stop><stop offset=".777" stop-color="#1c4375" class="stopColor231c75 svgShape"></stop><stop offset="1" stop-color="#193f6f" class="stopColor20196f svgShape"></stop></linearGradient><linearGradient id="aa" x1="600.318" x2="626.094" y1="665.672" y2="665.672" xlink:href="#j"></linearGradient><linearGradient id="ab" x1="704.01" x2="774.463" y1="623.478" y2="623.478" gradientUnits="userSpaceOnUse"><stop offset="0" stop-color="#7c3eaf" class="stopColor423eaf svgShape"></stop><stop offset=".564" stop-color="#5c2888" class="stopColor2d2888 svgShape"></stop><stop offset="1" stop-color="#193f6f" class="stopColor20196f svgShape"></stop></linearGradient><linearGradient id="ac" x1="640.518" x2="686.791" y1="538.273" y2="538.273" gradientTransform="scale(-1 1) rotate(-3.228 401.87 25249.16)" gradientUnits="userSpaceOnUse"><stop offset="0" stop-color="#0b00aa" class="stopColor009aaa svgShape"></stop><stop offset=".013" stop-color="#0b00ab" class="stopColor009bab svgShape"></stop><stop offset=".666" stop-color="#0d00ce" class="stopColor00c6ce svgShape"></stop><stop offset="1" stop-color="#0e00dc" class="stopColor00d6dc svgShape"></stop></linearGradient><linearGradient id="ad" x1="738.381" x2="816.978" y1="552.932" y2="552.932" xlink:href="#k"></linearGradient><linearGradient id="l" x1="540.115" x2="678.126" y1="896.096" y2="896.096" gradientTransform="translate(42.41)" gradientUnits="userSpaceOnUse"><stop offset="0" stop-color="#c4d4e5" class="stopColorc4c9e5 svgShape"></stop><stop offset=".241" stop-color="#dde6f0" class="stopColordde0f0 svgShape"></stop><stop offset=".539" stop-color="#f6f8fb" class="stopColorf6f7fb svgShape"></stop><stop offset=".719" stop-color="#ffffff" class="stopColorffffff svgShape"></stop></linearGradient><linearGradient id="ae" x1="426.954" x2="559.047" y1="936.574" y2="936.574" gradientTransform="translate(97.637)" xlink:href="#l"></linearGradient><linearGradient id="af" x1="313.795" x2="435.372" y1="977.055" y2="977.055" gradientTransform="translate(152.864)" xlink:href="#l"></linearGradient><linearGradient id="ag" x1="438.55" x2="575.465" y1="759.325" y2="759.325" gradientUnits="userSpaceOnUse"><stop offset="0" stop-color="#dae7f5" class="stopColordae0f5 svgShape"></stop><stop offset=".326" stop-color="#deeaf6" class="stopColordee3f6 svgShape"></stop><stop offset=".661" stop-color="#eaf1f9" class="stopColoreaeef9 svgShape"></stop><stop offset=".998" stop-color="#ffffff" class="stopColorffffff svgShape"></stop><stop offset="1" stop-color="#ffffff" class="stopColorffffff svgShape"></stop></linearGradient><linearGradient id="ah" x1="453.703" x2="507.364" y1="738.946" y2="738.946" gradientUnits="userSpaceOnUse"><stop offset="0" stop-color="#a3b9d0" class="stopColora3a9d0 svgShape"></stop><stop offset="1" stop-color="#deebf9" class="stopColordee2f9 svgShape"></stop></linearGradient><linearGradient id="ai" x1="438.55" x2="472.781" y1="778.481" y2="778.481" gradientUnits="userSpaceOnUse"><stop offset="0" stop-color="#a3b9d0" class="stopColora3a9d0 svgShape"></stop><stop offset="1" stop-color="#d0e3f6" class="stopColord0d4f6 svgShape"></stop></linearGradient><linearGradient id="aj" x1="412.391" x2="429.268" y1="628.821" y2="657.046" gradientTransform="rotate(120.001 423.327 734.705)" gradientUnits="userSpaceOnUse"><stop offset="0" stop-color="#d0e3f6" class="stopColord0d4f6 svgShape"></stop><stop offset=".57" stop-color="#b8cde2" class="stopColorb8bde2 svgShape"></stop><stop offset="1" stop-color="#a3b9d0" class="stopColora3a9d0 svgShape"></stop></linearGradient><linearGradient id="ak" x1="523.817" x2="547.162" y1="751.853" y2="751.853" gradientUnits="userSpaceOnUse"><stop offset=".404" stop-color="#a3b9d0" class="stopColora3a9d0 svgShape"></stop><stop offset=".689" stop-color="#b6cbe0" class="stopColorb6bbe0 svgShape"></stop><stop offset="1" stop-color="#d0e3f6" class="stopColord0d4f6 svgShape"></stop></linearGradient><linearGradient id="al" x1="-421.913" x2="-354.087" y1="356.932" y2="356.932" gradientTransform="rotate(120.001 -75.24 682.666)" gradientUnits="userSpaceOnUse"><stop offset="0" stop-color="#0e00dc" class="stopColor00d6dc svgShape"></stop><stop offset=".343" stop-color="#0d00c6" class="stopColor00bcc6 svgShape"></stop><stop offset=".752" stop-color="#0b00b2" class="stopColor00a3b2 svgShape"></stop><stop offset="1" stop-color="#0b00aa" class="stopColor009aaa svgShape"></stop></linearGradient><linearGradient id="m" x1="1266.546" x2="1445.713" y1="872.488" y2="872.488" gradientUnits="userSpaceOnUse"><stop offset=".366" stop-color="#c4d6e8" class="stopColorc4cae8 svgShape"></stop><stop offset=".524" stop-color="#cddcec" class="stopColorcdd2ec svgShape"></stop><stop offset=".781" stop-color="#e5edf5" class="stopColore5e8f5 svgShape"></stop><stop offset="1" stop-color="#ffffff" class="stopColorffffff svgShape"></stop></linearGradient><linearGradient id="n" x1="1250.577" x2="1414.499" y1="885.283" y2="885.283" gradientUnits="userSpaceOnUse"><stop offset=".458" stop-color="#6f67e9" class="stopColor6b67e9 svgShape"></stop><stop offset=".503" stop-color="#5e56d0" class="stopColor5b56d0 svgShape"></stop><stop offset=".59" stop-color="#7439a5" class="stopColor4039a5 svgShape"></stop><stop offset=".635" stop-color="#662e94" class="stopColor362e94 svgShape"></stop></linearGradient><linearGradient id="o" x1="1274.319" x2="1438.24" y1="863.759" y2="863.759" gradientUnits="userSpaceOnUse"><stop offset=".458" stop-color="#0e00dc" class="stopColor00d6dc svgShape"></stop><stop offset=".575" stop-color="#0c00b8" class="stopColor00abb8 svgShape"></stop><stop offset=".635" stop-color="#0b00aa" class="stopColor009aaa svgShape"></stop></linearGradient><linearGradient id="am" x1="1288.338" x2="1438.255" y1="822.004" y2="822.004" xlink:href="#m"></linearGradient><linearGradient id="an" x1="1271.69" x2="1435.611" y1="827.391" y2="827.391" gradientUnits="userSpaceOnUse"><stop offset=".458" stop-color="#ff6ae4" class="stopColorff826a svgShape"></stop><stop offset=".48" stop-color="#fb68e0" class="stopColorfb7868 svgShape"></stop><stop offset=".582" stop-color="#ea4dcd" class="stopColorea4d5f svgShape"></stop><stop offset=".635" stop-color="#e33cc5" class="stopColore33c5c svgShape"></stop></linearGradient><linearGradient id="ao" x1="169.219" x2="348.386" y1="918.629" y2="918.629" xlink:href="#m"></linearGradient><linearGradient id="ap" x1="153.251" x2="317.172" y1="931.424" y2="931.424" xlink:href="#n"></linearGradient><linearGradient id="aq" x1="176.992" x2="340.913" y1="909.899" y2="909.899" xlink:href="#o"></linearGradient><linearGradient id="ar" x1="399.689" x2="495.253" y1="1029.022" y2="863.499" gradientTransform="translate(-134.089 -490.381)" gradientUnits="userSpaceOnUse"><stop offset=".298" stop-color="#ff5ae1" class="stopColorff5a72 svgShape"></stop><stop offset=".323" stop-color="#ff6de4" class="stopColorff6d71 svgShape"></stop><stop offset=".389" stop-color="#6eb6ff" class="stopColorff9d6e svgShape"></stop><stop offset=".421" stop-color="#6db6ff" class="stopColorffaf6d svgShape"></stop></linearGradient><linearGradient id="p" x1="670.122" x2="810.08" y1="769.07" y2="526.655" gradientTransform="matrix(-1 .5773 0 1 1225.575 -597.343)" gradientUnits="userSpaceOnUse"><stop offset=".409" stop-color="#bbd0e6" class="stopColorbbc0e6 svgShape"></stop><stop offset=".565" stop-color="#c4d6e9" class="stopColorc4cae9 svgShape"></stop></linearGradient><linearGradient id="as" x1="726.742" x2="824.858" y1="729.117" y2="559.175" xlink:href="#p"></linearGradient><linearGradient id="at" x1="-356.958" x2="-224.783" y1="366.768" y2="595.702" gradientTransform="matrix(-1 0 0 1 189.38 0)" gradientUnits="userSpaceOnUse"><stop offset=".455" stop-color="#cee3f8" class="stopColorced3f8 svgShape"></stop><stop offset=".629" stop-color="#bcd1e7" class="stopColorbcc1e7 svgShape"></stop><stop offset=".635" stop-color="#bbd0e6" class="stopColorbbc0e6 svgShape"></stop></linearGradient><linearGradient id="au" x1="-351.912" x2="-219.737" y1="363.854" y2="592.788" gradientTransform="matrix(-1 0 0 1 189.38 0)" gradientUnits="userSpaceOnUse"><stop offset=".416" stop-color="#857dfb" class="stopColor807dfb svgShape"></stop><stop offset=".45" stop-color="#766ee9" class="stopColor716ee9 svgShape"></stop><stop offset=".517" stop-color="#4d46b9" class="stopColor4a46b9 svgShape"></stop><stop offset=".53" stop-color="#7c3eaf" class="stopColor423eaf svgShape"></stop></linearGradient></defs><g style="isolation:isolate" fill="#f4f6f8" class="color000000 svgShape"><g fill="#f4f6f8" class="color000000 svgShape"><g fill="#f4f6f8" class="color000000 svgShape"><path fill="#ff5ae1" d="M1299.0556,428.12349c0-51.9516-36.476-115.1164-81.453-141.0912-44.9916-25.9706-81.4618-4.9182-81.4618,47.0332,0,51.9456,36.4702,115.1176,81.4618,141.087C1262.5796,501.12889,1299.0556,480.07029,1299.0556,428.12349Z" class="colorff5a72 svgShape"></path><path fill="url(#q)" d="M1178.9106,270.41909l-18.866,10.8838c14.7412-8.4784,35.0788-7.2406,57.558,5.7294,44.977,25.9748,81.453,89.1396,81.453,141.0912,0,25.4786-8.811,43.4714-23.0676,52.179l16.517-9.5306-.0502-.087c15.8816-7.9986,25.8626-26.5852,25.8626-53.6846,0-51.9486-36.4672-115.1134-81.4558-141.0882-22.6774-13.0896-43.1628-14.2078-57.9334-5.4694Zm-19.2678,11.12.0148.0252c.1004-.062.186-.1446.3014-.2052Zm114.676,199.737c-.3664.1964-.7594.3414-1.1318.5288l.0504.0872Z"></path><path fill="#ffffff" d="M1158.0946,342.28989c0-19.0622,6.3702-32.6924,16.7178-39.7378,11.275-5.4472,26.2614-4.15,42.7902,5.3846,34.9782,20.2016,63.3494,69.3314,63.3494,109.7328,0,19.0686-6.3732,32.6972-16.7266,39.7454-11.2694,5.4444-26.2588,4.1444-42.7758-5.3906C1186.4538,431.82409,1158.0946,382.69309,1158.0946,342.28989Z" class="colorffffff svgShape"></path><path fill="#a50b89" d="M1174.8124,302.55209c-10.3476,7.0454-16.7178,20.6756-16.7178,39.7378,0,40.4032,28.3592,89.5342,63.355,109.7344,16.517,9.535,31.5064,10.835,42.7758,5.3906-11.5768,7.8804-28.1498,7.4994-46.6228-3.1672-35.0046-20.2016-63.3582-69.3298-63.3582-109.7312C1154.2444,323.18629,1162.1986,308.63709,1174.8124,302.55209Z" class="colorc62c51 svgShape"></path><path fill="url(#r)" d="M1183.6764,395.39089l35.5512-20.534v-44.2854c0-2.8128,1.977-3.9474,4.4118-2.547a9.737,9.737,0,0,1,4.3934,7.6292v46.3922a4.36186,4.36186,0,0,1-.3366,1.7462,2.364,2.364,0,0,1-.9516,1.1036l-36.8424,21.2754c-1.7168.9916-4.506-.6144-6.2258-3.5944C1181.9568,399.59969,1181.9568,396.37929,1183.6764,395.39089Z"></path><path d="M1246.838,440.39929l-101.935-58.8522c13.4326,38.3832,40.932,75.269,72.6996,93.6054,16.515,9.5382,31.8736,12.7124,44.7114,10.3668v-18.3198C1262.314,457.37389,1255.3482,445.31289,1246.838,440.39929Z" style="mix-blend-mode:multiply" fill="#dae7f5" class="colordae0f5 svgShape"></path><path d="M1445.713,584.02609l-.508-.2932c-8.5192-4.9158-29.3972-8.933-46.418-8.933H673.31738c-17.0216,0-23.99038,4.0172-15.4728,8.933L1177.6048,883.81608c8.5128,4.9132,29.4034,8.935,46.4252,8.935h221.683Z" style="mix-blend-mode:multiply" fill="url(#s)"></path><path fill="url(#t)" d="M1189.2862,422.49149,669.523,122.4075c-4.31162-2.4872-8.21622-2.6774-11.03082-.9908v-.0088l-11.1168,6.4474.0314.0048c2.75522-1.3356,6.4168-1.0302,10.4386,1.2906l519.75942,300.083c8.51,4.9136,15.4758,16.9746,15.4758,26.8V874.88248c0,4.8766-1.7208,8.3222-4.4882,9.9568v.004l11.1092-6.4484-.0314-.0038c3.1126-1.474,5.0882-5.0336,5.0882-10.251V449.29129C1204.7584,439.46409,1197.7928,427.40529,1189.2862,422.49149Z"></path><path fill="#6f67e9" d="M1193.0806,456.03289c0-9.8254-6.9658-21.8864-15.476-26.8L657.84538,129.1497c-8.51438-4.9128-15.47238-.8934-15.47238,8.9336v40.4016l550.7076,317.95139Z" class="color6b67e9 svgShape"></path><path fill="#f6f8fb" d="M642.373,178.4849V556.93429c0,9.8272,6.958,21.8852,15.47238,26.799L1177.6046,883.81608c8.5102,4.9116,15.476.894,15.476-8.9336V496.43629Z" class="colorf6f6fb svgShape"></path><path fill="#ffffff" d="M684.78288 179.9708c0 5.5098-2.7656 6.9141-7.2734 4.3106a15.05708 15.05708 0 01-7.73048-12.9727v-2.5078l4.34178 2.5059v2.5078a6.5762 6.5762 0 003.2578 5.832c1.9415 1.1211 3.0606.3242 3.0606-2.1836V158.8458l4.3437 2.5079zM692.68138 165.91418V183.3146a9.09471 9.09471 0 004.6719 7.9414c2.9961 1.7285 4.6738.6836 4.6738-2.5469V171.3087l4.3418 2.5078v17.1739c0 6.0781-3.25588 8.07219-9.0156 4.748a17.495 17.495 0 01-9.0157-15.15822V163.4064zM714.40208 178.4533v22.03709l10.66009 6.1562v4.55859l-15.00389-8.664V175.9474zM1088.1306 393.69149c4.4746 2.584 8.3242 8.1504 8.3242 13.6231 0 5.2422-2.7304 6.09759-7.5683 4.7109-3.2246-.9121-4.9356-1.1015-4.9356 1.3672v.457l12.3711 7.1426v4.5586l-16.7148-9.6504v-4.5586c0-4.8261 2.9961-5.4531 7.2402-4.332 3.2891.875 5.2637.7598 5.2637-2.3555a7.57625 7.57625 0 00-3.916-6.4394c-2.3692-1.3692-4.375-.96881-4.375 2.4883v.83589l-4.3438-2.50779v-.9121C1079.4763 391.88879 1083.4568 390.99429 1088.1306 393.69149zM1107.0525 404.61729a18.22138 18.22138 0 018.8183 15.8067v6.2304c0 6.9922-3.5527 8.6621-8.8183 5.6231a17.94325 17.94325 0 01-8.8184-15.8047v-6.2324C1098.2341 403.47869 1101.7869 401.57629 1107.0525 404.61729zm-4.4746 14.58989c0 3.76171 1.4804 6.85931 4.4746 8.58791 3.0937 1.78509 4.4746.1894 4.4746-3.42v-6.6855a9.823 9.823 0 00-4.4746-8.5879c-2.8301-1.6348-4.4746-.1152-4.4746 3.4199zM1126.4353 415.80679c4.4766 2.584 8.3242 8.15039 8.3242 13.623 0 5.2422-2.7305 6.0977-7.5664 4.711-3.2246-.9121-4.9375-1.10161-4.9375 1.3671v.4571l12.373 7.1426v4.55859l-16.7148-9.65039v-4.55861c0-4.82619 2.9941-5.45319 7.2383-4.33209 3.291.875 5.2656.7598 5.2656-2.3554a7.57645 7.57645 0 00-3.916-6.43951c-2.3691-1.36719-4.377-.96869-4.377 2.48831v.8359l-4.3418-2.5078v-.9121C1117.7829 414.004 1121.7634 413.10949 1126.4353 415.80679zM1145.3572 426.73259a18.22291 18.22291 0 018.8203 15.80659v6.23241c0 6.9903-3.5547 8.6602-8.8203 5.6211a17.943 17.943 0 01-8.8164-15.8047v-6.2324C1136.5408 425.59389 1140.0935 423.69349 1145.3572 426.73259zm-4.4727 14.5898c0 3.7617 1.4805 6.8594 4.4727 8.5879 3.0937 1.7851 4.4765.1894 4.4765-3.4199v-6.6856a9.82011 9.82011 0 00-4.4765-8.5879c-2.8282-1.6328-4.4727-.1152-4.4727 3.42z" class="colorffffff svgShape"></path><path d="M1098.6438,493.77209l-3.4642-2-68.2096-39.3808-3.4642-2-68.2096-39.381-3.464-2-68.2098-39.3808-3.464-2-68.2096-39.3808-3.4642-2-68.2096-39.381-3.4642-2-71.67542-41.3818v319.1386l71.67542,41.38179,3.4642,2,68.2096,39.381,3.4642,2,68.2096,39.3808,3.464,2,68.2098,39.3808,3.464,2,68.2096,39.381,3.4642,2,68.2096,39.3808,3.4642,2,71.6736,41.3808V535.15289Zm-71.6738-37.381,68.2096,39.381v59.0278l-68.2096-39.3808Zm68.2096,161.43679L1026.97,578.44709v-59.028l68.2096,39.3808Zm0,63.028-68.2096-39.381V582.44709l68.2096,39.38079Zm0,63.0268-68.2096-39.3808v-59.027l68.2096,39.381ZM740.275,479.95149l68.2096,39.3808v59.027l-68.2096-39.3808Zm0-63.028,68.2096,39.381v59.028l-68.2096-39.381Zm0-63.0278,68.2096,39.3808v59.028l-68.2096-39.3808Zm283.2308,222.5514-68.2096-39.381v-59.0278l68.2096,39.3808Zm0,63.02779-68.2096-39.3808v-59.028l68.2096,39.381ZM811.9488,458.30449l68.2096,39.3808v59.028l-68.2096-39.3808Zm71.6736,41.3808,68.2098,39.3808v59.028l-68.2098-39.38079Zm68.2098,35.3808-68.2098-39.3808v-59.028l68.2098,39.381Zm-71.6738-41.3808-68.2096-39.3808v-59.028l68.2096,39.3808Zm-68.2096,27.647,68.2096,39.381v59.027l-68.2096-39.381Zm71.6736,41.381,68.2098,39.38079v59.027l-68.2098-39.3808Zm71.6738,41.38079,68.2096,39.3808v59.027l-68.2096-39.3808Zm0-189.08379,68.2096,39.3808v59.028l-68.2096-39.3808Zm-71.6738-41.3808,68.2098,39.3808v59.028l-68.2098-39.3808Zm-71.6736-41.381,68.2096,39.381v59.028l-68.2096-39.381Zm-143.34922-19.7346,68.21122,39.3818v59.028l-68.21122-39.382Zm0,63.0278,68.21122,39.3818v59.028l-68.21122-39.3818Zm0,63.028,68.21122,39.3818v59.027l-68.21122-39.3818ZM736.8108,600.00648l-68.21122-39.382v-59.0278l68.21122,39.3818Zm71.6738,41.3808-68.2096-39.3808v-59.028l68.2096,39.3808Zm71.6738,41.3808-68.2096-39.3808v-59.028l68.2096,39.38079Zm71.6738,41.3808-68.2098-39.3808v-59.028l68.2098,39.381Zm71.6736,41.381-68.2096-39.381v-59.0278l68.2096,39.3808Zm143.3476,19.7338-68.2096-39.381v-59.0268l68.2096,39.3808Zm0-63.027-68.2096-39.3808v-59.028l68.2096,39.3808Zm0-63.028-68.2096-39.3808v-59.028l68.2096,39.381Zm-68.2096-102.40879v-59.0278l68.2096,39.3808v59.028Z" style="mix-blend-mode:multiply" fill="#e8eff7" class="colore8ecf7 svgShape"></path><polygon fill="#cee3f8" points="675.814 227.568 729.596 258.619 729.596 269.03 675.814 237.978 675.814 227.568" class="colorced3f8 svgShape"></polygon><polygon fill="#cee3f8" points="747.488 268.949 801.27 300 801.27 310.41 747.488 279.359 747.488 268.949" class="colorced3f8 svgShape"></polygon><polygon fill="#cee3f8" points="819.162 310.33 872.944 341.381 872.944 351.791 819.162 320.74 819.162 310.33" class="colorced3f8 svgShape"></polygon><polygon fill="#cee3f8" points="890.836 351.711 944.618 382.762 944.618 393.172 890.836 362.121 890.836 351.711" class="colorced3f8 svgShape"></polygon><polygon fill="#cee3f8" points="962.51 393.092 1016.292 424.143 1016.292 434.553 962.51 403.502 962.51 393.092" class="colorced3f8 svgShape"></polygon><polygon fill="#857dfb" points="1034.184 434.473 1087.966 465.524 1087.966 475.934 1034.184 444.883 1034.184 434.473" class="color807dfb svgShape"></polygon><path fill="#857dfb" d="M1050.8136,571.07769l10.261,17.7726,10.2614-5.9244c5.6674-3.272,5.6682-13.8836-.0002-23.6972-5.6664-9.8166-14.8544-15.1188-20.522-11.8486C1045.1458,550.65209,1045.1448,561.26049,1050.8136,571.07769Zm5.0114-8.9542c-.0006-3.3506,2.3498-4.7074,5.2498-3.0328a11.604,11.604,0,0,1,5.2496,9.0946c-.0004,3.3464-2.3502,4.7046-5.2504,3.0298A11.60391,11.60391,0,0,1,1055.825,562.12349Z" class="color807dfb svgShape"></path><path fill="#ff5ae1" d="M719.15737,434.25029l-16.45259,9.4952-16.45-28.4934a19.74578,19.74578,0,0,1-2.8284-9.506c.0014-6.146,4.3174-8.638,9.63962-5.5646a18.47643,18.47643,0,0,1,5.61978,5.332l4.0196,5.9956,4.0222-1.3524a7.63871,7.63871,0,0,1,5.6186,1.1562c5.3224,3.0748,9.63682,10.55,9.63759,16.6978C721.983,431.08309,720.90337,433.24329,719.15737,434.25029Z" class="colorff5a72 svgShape"></path><path fill="#0e00dc" d="M1012.9362,646.42808c0-2.14,1.5024-3.0074,3.3556-1.9374a7.41735,7.41735,0,0,1,3.3556,5.8122c0,2.14-1.5024,3.0074-3.3556,1.9374A7.41735,7.41735,0,0,1,1012.9362,646.42808Z" class="color00d6dc svgShape"></path><path fill="#e33cc5" d="M1002.417,640.35488c0-2.14,1.5024-3.0074,3.3556-1.9374a7.417,7.417,0,0,1,3.3558,5.8122c0,2.14-1.5024,3.0074-3.3558,1.9374A7.41735,7.41735,0,0,1,1002.417,640.35488Z" class="colore33c5c svgShape"></path><path fill="#857dfb" d="M991.8978,634.28168c0-2.14,1.5024-3.0074,3.3558-1.9374a7.41756,7.41756,0,0,1,3.3558,5.8122c0,2.14-1.5026,3.0074-3.3558,1.9374A7.417,7.417,0,0,1,991.8978,634.28168Z" class="color807dfb svgShape"></path><path fill="#e33cc5" d="M859.0694,431.53729c0-2.14,1.5024-3.0074,3.356-1.9374a7.41767,7.41767,0,0,1,3.3554,5.8122c0,2.14-1.5024,3.0074-3.3554,1.9374A7.41669,7.41669,0,0,1,859.0694,431.53729Z" class="colore33c5c svgShape"></path><path fill="#857dfb" d="M848.5504,425.46409c0-2.14,1.5024-3.0074,3.3556-1.9374a7.41681,7.41681,0,0,1,3.3556,5.8122c0,2.14-1.5022,3.0074-3.3556,1.9374A7.41735,7.41735,0,0,1,848.5504,425.46409Z" class="color807dfb svgShape"></path><path d="M824.8122,558.31449c-.0008-13.5476,9.5084-19.038,21.2416-12.2644,11.7328,6.7754,21.2424,23.2448,21.2412,36.792.0004,13.54839-9.5088,19.03859-21.2416,12.26419C834.3204,588.33189,824.8128,571.86209,824.8122,558.31449Z" style="mix-blend-mode:multiply" fill="#e8eff7" class="colore8ecf7 svgShape"></path><path fill="#ffffff" d="M849.3954,571.94949c1.327-.3724,2.2296-1.6544,2.362-3.6402l.0034.0028.0012-.0842c.0086-.1438.0194-1.8526.0194-2.0026a12.79016,12.79016,0,0,0-5.6848-10.0756c-3.1392-1.8112-5.6828-.2388-5.6832,3.5126l-.0012,2.0982.0232.0126a12.99568,12.99568,0,0,0,2.3634,6.3676c-2.1432-1.063-9.6388-2.1964-7.9526,6.845,2.3018,1.3302,11.2504,6.4954,11.2504,6.4954s8.95,5.1692,11.25,6.4978C858.658,580.45109,851.5216,573.34169,849.3954,571.94949Z" class="colorffffff svgShape"></path><polygon fill="#857dfb" points="1105.857 475.854 1159.64 506.905 1159.64 517.315 1105.857 486.264 1105.857 475.854" class="color807dfb svgShape"></polygon><ellipse cx="1065.917" cy="276.898" fill="#dae7f5" rx="17.005" ry="29.453" transform="rotate(-30 1065.917 276.898)" class="colordae0f5 svgShape"></ellipse><path fill="#ffffff" d="M1065.9197,286.69449a2.00026,2.00026,0,0,1-1.7344-1l-9.7324-16.8555a2.0003,2.0003,0,1,1,3.4648-2l8.7324,15.1231,23.0489-13.3077a2.00035,2.00035,0,0,1,2,3.4649l-24.7813,14.3076A1.98915,1.98915,0,0,1,1065.9197,286.69449Z" class="colorffffff svgShape"></path><ellipse cx="1301.778" cy="554.357" fill="#dae7f5" rx="17.005" ry="29.453" transform="rotate(-30 1301.778 554.357)" class="colordae0f5 svgShape"></ellipse><path fill="#ffffff" d="M1301.781,564.15349a2.00026,2.00026,0,0,1-1.7344-1l-9.7324-16.8545a2.0003,2.0003,0,1,1,3.4648-2l8.7325,15.122,23.0488-13.3076a2.00035,2.00035,0,0,1,2,3.4649l-24.7813,14.3076A1.98915,1.98915,0,0,1,1301.781,564.15349Z" class="colorffffff svgShape"></path><path fill="#dae7f5" d="M1216.3768,175.0935c0-13.2814,9.3246-18.6646,20.8266-12.024,11.502,6.6408,20.8264,22.791,20.8264,36.07239s-9.3244,18.6648-20.8264,12.024S1216.3768,188.3751,1216.3768,175.0935Z" class="colordae0f5 svgShape"></path><path fill="#ffffff" d="M1237.2048,196.91418a2.00022,2.00022,0,0,1-1.7344-1L1225.74,179.0597a2.0003,2.0003,0,0,1,3.4648-2l8.7305,15.1221,23.0508-13.30762a2.00031,2.00031,0,0,1,2,3.46482l-24.7832,14.3076A1.98846,1.98846,0,0,1,1237.2048,196.91418Z" class="colorffffff svgShape"></path><polygon points="1446.357 1062.839 1406.139 1062.839 1431.668 1077.577 1406.139 1092.315 1446.357 1092.315 1471.881 1077.577 1446.357 1062.839" style="mix-blend-mode:multiply" fill="url(#u)"></polygon><polygon fill="#bbd0e6" points="1406.139 1092.315 1431.668 1077.577 1431.668 1048.103 1406.139 1062.839 1406.139 1092.315" class="colorbbc0e6 svgShape"></polygon><polygon fill="#cee3f8" points="1406.139 1092.315 1380.616 1077.577 1380.616 1048.103 1406.139 1062.839 1406.139 1092.315" class="colorced3f8 svgShape"></polygon><polygon fill="#f6f8fb" points="1406.139 1062.839 1380.616 1048.103 1406.139 1033.37 1431.668 1048.103 1406.139 1062.839" class="colorf6f6fb svgShape"></polygon><polygon points="1156.717 909.51 1075.015 909.51 1271.536 1022.975 1041.896 1155.558 1123.598 1155.558 1353.24 1022.976 1156.717 909.51" style="mix-blend-mode:multiply" fill="url(#v)"></polygon><polygon fill="#f6f8fb" points="1041.896 1108.388 870.072 1009.183 1099.714 876.599 1271.538 975.802 1041.896 1108.388" class="colorf6f6fb svgShape"></polygon><polygon fill="#bbd0e6" points="1041.896 1155.558 1041.896 1108.388 1271.535 975.804 1271.538 1022.975 1041.896 1155.558" class="colorbbc0e6 svgShape"></polygon><polygon fill="#cee3f8" points="870.072 1056.356 870.072 1009.183 1041.896 1108.388 1041.898 1155.556 870.072 1056.356" class="colorced3f8 svgShape"></polygon><path fill="#0e00dc" d="M1073.3242,925.83028c5.6606-3.2632,14.8424-3.2632,20.5032,0,5.6586,3.2702,5.6586,8.571-.0024,11.8388-5.6584,3.268-14.8402,3.2702-20.5008,0C1067.6632,934.40128,1067.6632,929.10048,1073.3242,925.83028Z" class="color00d6dc svgShape"></path><polygon fill="#857dfb" points="1114.021 939.283 1192.303 984.48 1186.505 987.827 1108.218 942.632 1114.021 939.283" class="color807dfb svgShape"></polygon><polygon fill="#857dfb" points="1102.66 945.841 1149.293 972.764 1143.496 976.112 1096.865 949.187 1102.66 945.841" class="color807dfb svgShape"></polygon><path fill="#0e00dc" d="M1034.8562,948.04468c5.661-3.2676,14.8428-3.2676,20.5034,0,5.661,3.266,5.661,8.5664-.0022,11.8368-5.6584,3.2656-14.8402,3.2678-20.5012,0C1029.1958,956.61108,1029.1958,951.31068,1034.8562,948.04468Z" class="color00d6dc svgShape"></path><polygon fill="#857dfb" points="1075.551 961.495 1153.835 1006.69 1148.035 1010.04 1069.751 964.843 1075.551 961.495" class="color807dfb svgShape"></polygon><polygon fill="#857dfb" points="1064.195 968.051 1110.826 994.974 1105.03 998.324 1058.397 971.399 1064.195 968.051" class="color807dfb svgShape"></polygon><path fill="#0e00dc" d="M996.3866,970.25487c5.663-3.26559,14.8422-3.26559,20.503,0,5.6608,3.268,5.6608,8.56859-.002,11.83679-5.6588,3.26781-14.838,3.27021-20.501,0C990.7256,978.82346,990.7256,973.52287,996.3866,970.25487Z" class="color00d6dc svgShape"></path><polygon fill="#857dfb" points="1037.083 983.705 1115.365 1028.902 1109.568 1032.252 1031.283 987.055 1037.083 983.705" class="color807dfb svgShape"></polygon><polygon fill="#857dfb" points="1025.725 990.263 1072.358 1017.186 1066.56 1020.536 1019.93 993.609 1025.725 990.263" class="color807dfb svgShape"></polygon><path fill="#0e00dc" d="M957.9186,992.46748c5.661-3.26821,14.8428-3.26821,20.5036,0,5.6604,3.2654,5.6604,8.5664-.0024,11.8362-5.6584,3.2682-14.8402,3.2682-20.5012,0C952.258,1001.03388,952.258,995.73288,957.9186,992.46748Z" class="color00d6dc svgShape"></path><polygon fill="#857dfb" points="998.615 1005.92 1076.898 1051.115 1071.098 1054.462 992.813 1009.265 998.615 1005.92" class="color807dfb svgShape"></polygon><polygon fill="#857dfb" points="987.257 1012.474 1033.89 1039.399 1028.093 1042.746 981.46 1015.821 987.257 1012.474" class="color807dfb svgShape"></polygon><polygon fill="#cee3f8" points="1147.192 917.469 1200.714 948.373 1189.885 954.624 1136.363 923.725 1147.192 917.469" class="colorced3f8 svgShape"></polygon><path fill="#dae7f5" d="M1085.7054,1083.09428s-8.728,4.9658-16.98,6.269c-8.2542,1.3038-36.9636,11.0506-63.499-2.1466,17.4312,10.0636,36.6698,21.171,36.6698,21.171Z" class="colordae0f5 svgShape"></path><path fill="#abc2da" d="M1085.7054,1083.09428c-17.9806,10.3804-50.8534,21.2278-80.479,4.1224,16.8024,8.2268,40.6894,8.6668,53.8704-4.5146C1063.1284,1086.73608,1072.1276,1090.42548,1085.7054,1083.09428Z" class="colorabb2da svgShape"></path><polygon fill="#f6f8fb" points="987.428 1093.691 870.072 1025.933 870.072 1017.606 858.475 1025.62 987.428 1093.691" class="colorf6f6fb svgShape"></polygon><polygon fill="#cee3f8" points="1154.179 1080.507 1271.538 1012.749 1271.538 1004.422 1283.135 1012.437 1154.179 1080.507" class="colorced3f8 svgShape"></polygon><polygon points="797.488 754.478 781.56 750.743 752.704 754.476 739.776 761.937 961.669 890.049 977.59 893.784 1006.453 890.051 1019.38 882.589 797.488 754.478" style="mix-blend-mode:multiply" fill="url(#w)"></polygon><path fill="url(#x)" d="M716.48118,734.57128c-.0468.024,23.29462,27.3662,23.29462,27.3662l12.9286-33.3246-29.9444-4.3534-.94683-.135a4.07326,4.07326,0,0,0-1.749.5756,9.55578,9.55578,0,0,0-4.32539,7.4938A3.52744,3.52744,0,0,0,716.48118,734.57128Z"></path><path fill="url(#y)" d="M721.81317,724.12448a4.07326,4.07326,0,0,0-1.749.5756,9.55578,9.55578,0,0,0-4.32539,7.4938,3.50873,3.50873,0,0,0,.7424,2.3774c-.0468.024-11.0108-12.8238-11.0108-12.8238Z"></path><polygon fill="#6f67e9" points="733.308 752.74 955.201 880.852 961.669 864.186 739.776 736.078 733.308 752.74" class="color6b67e9 svgShape"></polygon><polygon fill="#7c3eaf" points="739.776 761.937 961.669 890.049 955.201 880.852 733.308 752.74 739.776 761.937" class="color423eaf svgShape"></polygon><polygon fill="#857dfb" points="739.776 736.078 961.669 864.186 974.596 856.723 752.704 728.613 739.776 736.078" class="color807dfb svgShape"></polygon><polygon fill="#b9d0e8" points="974.596 882.582 981.063 865.922 974.596 856.723 961.669 864.186 955.201 880.852 961.669 890.049 974.596 882.582" class="colorb9bfe8 svgShape"></polygon><path fill="#153f74" d="M972.4026,870.91108c0-2.724-1.9104-3.832-4.2726-2.467a9.45294,9.45294,0,0,0-4.2784,7.4092c0,2.7314,1.9142,3.832,4.2784,2.471A9.445,9.445,0,0,0,972.4026,870.91108Z" class="color231574 svgShape"></path><g style="mix-blend-mode:multiply" fill="#f4f6f8" class="color000000 svgShape"><polygon fill="url(#a)" points="947.82 1104.726 877.984 1104.726 870.282 1118.977 947.82 1118.977 947.82 1104.726"></polygon><polygon fill="url(#z)" points="940.224 1093.006 866.151 1093.006 862.686 1102.589 940.224 1102.589 940.224 1093.006"></polygon><path fill="url(#A)" d="M1020.8786,1022.54788c-17.3546,2.4904-40.0706-5.7564-49.5772-6.3508-5.6694-.3544-29.3152,5.5256-47.482,10.3304a201.456,201.456,0,0,0,29.9954,31.0054c6.8764-.9872,18.1438-7.295,24.682-6.8668,6.5428.4284,42.3818,3.0212,42.3818,3.0212Z"></path><path fill="url(#B)" d="M923.8374,1026.52748h-.018v33.0148a202.13977,202.13977,0,0,0,29.9954,30.8788v-32.8882l.0024-.007A201.43668,201.43668,0,0,1,923.8374,1026.52748Z"></path></g><path fill="url(#C)" d="M869.3064,1092.09788c-3.5792,3.6974-.8718,10.6516-7.2432,10.5012-8.8548-.209-27.2232-.1382-26.7272-4.52.4208-3.7152,13.1608-4.6474,19.2528-6.2404,8.4978-2.2222,9.7632-4.9022,9.7632-4.9022Z"></path><path fill="#a2d0ff" d="M864.352,1086.93648s-1.2654,2.6802-9.7632,4.9022c-1.5528.406-3.5386.7694-5.6412,1.1466-.0042.0008-1.125.2052-1.0912,2.0056.0678,3.5894,15.382,4.7894,19.0484,3.0798.5492-1.8088.8042-4.323,2.4016-5.973Z" class="colorffcea2 svgShape"></path><path fill="url(#D)" d="M876.3742,1098.42948c-.2964,1.3512-3.001,5.5052-4.7886,7.5782-1.5236,1.7664-7.0742,7.291-7.7484,7.8588-2.5022,2.107-1.029,4.506,2.4482,4.8608,3.477.3548,5.8906.4268,7.7356-.4258,2.4522-1.1332,11.1396-6.0098,10.9802-9.5982-.0838-1.8838-.5394-1.9506-.7448-6.2646-.0564-1.183-.0286-4.0092-.0286-4.0092Z"></path><path fill="#a2d0ff" d="M876.8584,1110.93928c2.6966-1.1354,6.305-3.5138,7.6586-5.4202-.0992-.7146-.1934-1.6674-.2608-3.0804-.0562-1.183-.0286-4.0092-.0286-4.0092h-7.8534c-.2964,1.3512-3.001,5.5052-4.7886,7.5782-.5448.6314-1.6066,1.7452-2.774,2.9392C868.083,1111.31328,874.2512,1112.03708,876.8584,1110.93928Z" class="colorffcea2 svgShape"></path><path fill="#193f6f" d="M975.1246,1013.07108c2.0466,4.0226,9.1718,18.9892-1.1144,27.654s-43.41,16.0206-59.2926,17.7606c-4.9196,9.6834-45.2036,34.057-45.2036,34.057-2.9692-1.202-3.9382-2.7674-6.1844-5.0136,3.5246-4.7506,37.899-41.3104,42.578-43.8238,4.679-2.5138,45.8938-28.5306,45.8938-28.5306Z" class="color20196f svgShape"></path><path fill="url(#E)" d="M947.229,1006.45208c-4.7164,1.897-47.177,16.7488-55.3642,24.7562-8.1872,8.0072-15.9184,66.8338-15.9184,66.8338a6.82833,6.82833,0,0,0,8.4692,1.2434c4.0004-12.1064,19.026-44.5452,18.3414-57.2998,14.1126-1.616,55.0868-16.8306,60.8812-22.298C969.4326,1014.22048,947.229,1006.45208,947.229,1006.45208Z"></path><path fill="#ffffff" d="M920.793,1004.83068a2.96635,2.96635,0,0,1,2.676,0l44.9426,25.9478a.81668.81668,0,0,1,0,1.545l-30.6336,17.686a2.96968,2.96968,0,0,1-2.6758,0l-44.9426-25.9478a.8164.8164,0,0,1,0-1.5446Z" class="colorffffff svgShape"></path><g style="mix-blend-mode:multiply" fill="#f4f6f8" class="color000000 svgShape"><polygon fill="#e6edf5" points="935.055 1046.33 937.253 1047.599 936.154 1048.233 933.956 1046.964 935.055 1046.33" class="colore6eaf5 svgShape"></polygon><polygon fill="#e6edf5" points="931.354 1044.192 933.552 1045.462 932.453 1046.096 930.255 1044.827 931.354 1044.192" class="colore6eaf5 svgShape"></polygon><polygon fill="#e6edf5" points="927.652 1042.055 929.849 1043.324 928.751 1043.959 926.553 1042.689 927.652 1042.055" class="colore6eaf5 svgShape"></polygon><polygon fill="#e6edf5" points="923.951 1039.918 926.148 1041.187 925.049 1041.822 922.851 1040.552 923.951 1039.918" class="colore6eaf5 svgShape"></polygon><polygon fill="#e6edf5" points="920.248 1037.781 922.446 1039.05 921.347 1039.684 919.149 1038.415 920.248 1037.781" class="colore6eaf5 svgShape"></polygon><polygon fill="#e6edf5" points="916.547 1035.644 918.744 1036.912 917.646 1037.547 915.447 1036.278 916.547 1035.644" class="colore6eaf5 svgShape"></polygon><polygon fill="#e6edf5" points="912.844 1033.506 915.042 1034.775 913.943 1035.41 911.745 1034.14 912.844 1033.506" class="colore6eaf5 svgShape"></polygon><polygon fill="#e6edf5" points="909.143 1031.369 911.341 1032.638 910.242 1033.273 908.044 1032.003 909.143 1031.369" class="colore6eaf5 svgShape"></polygon><polygon fill="#e6edf5" points="905.441 1029.232 907.639 1030.5 906.54 1031.135 904.342 1029.866 905.441 1029.232" class="colore6eaf5 svgShape"></polygon><polygon fill="#e6edf5" points="901.739 1027.094 903.937 1028.364 902.838 1028.998 900.64 1027.729 901.739 1027.094" class="colore6eaf5 svgShape"></polygon><polygon fill="#e6edf5" points="898.037 1024.957 900.235 1026.226 899.136 1026.861 896.938 1025.592 898.037 1024.957" class="colore6eaf5 svgShape"></polygon><polygon fill="#e6edf5" points="894.335 1022.82 896.534 1024.089 895.434 1024.724 893.236 1023.454 894.335 1022.82" class="colore6eaf5 svgShape"></polygon><polygon fill="#e6edf5" points="937.003 1043.18 940.955 1045.462 938.758 1046.73 934.806 1044.449 937.003 1043.18" class="colore6eaf5 svgShape"></polygon><polygon fill="#e6edf5" points="939.048 1040.263 944.503 1043.413 942.305 1044.682 936.849 1041.532 939.048 1040.263" class="colore6eaf5 svgShape"></polygon><polygon fill="#e6edf5" points="941.246 1037.258 948.205 1041.276 946.007 1042.544 939.048 1038.526 941.246 1037.258" class="colore6eaf5 svgShape"></polygon><polygon fill="#e6edf5" points="948.733 1036.408 952.684 1038.689 949.709 1040.407 945.757 1038.126 948.733 1036.408" class="colore6eaf5 svgShape"></polygon><polygon fill="#e6edf5" points="943.277 1033.258 947.229 1035.539 944.254 1037.258 940.302 1034.976 943.277 1033.258" class="colore6eaf5 svgShape"></polygon><polygon fill="#e6edf5" points="937.822 1030.109 941.774 1032.39 938.798 1034.108 934.846 1031.826 937.822 1030.109" class="colore6eaf5 svgShape"></polygon><polygon fill="#e6edf5" points="919.012 1019.248 922.963 1021.53 919.988 1023.248 916.036 1020.966 919.012 1019.248" class="colore6eaf5 svgShape"></polygon><polygon fill="#e6edf5" points="909.766 1013.91 917.517 1018.385 914.542 1020.103 906.791 1015.628 909.766 1013.91" class="colore6eaf5 svgShape"></polygon><polygon fill="#e6edf5" points="924.459 1022.393 936.318 1029.24 933.342 1030.958 921.483 1024.111 924.459 1022.393" class="colore6eaf5 svgShape"></polygon><polygon fill="#e6edf5" points="932.266 1040.445 935.5 1042.312 933.302 1043.58 930.068 1041.714 932.266 1040.445" class="colore6eaf5 svgShape"></polygon><polygon fill="#e6edf5" points="934.31 1037.528 937.544 1039.395 935.346 1040.664 932.112 1038.797 934.31 1037.528" class="colore6eaf5 svgShape"></polygon><polygon fill="#e6edf5" points="936.406 1034.581 939.641 1036.448 937.443 1037.717 934.209 1035.849 936.406 1034.581" class="colore6eaf5 svgShape"></polygon><polygon fill="#e6edf5" points="931.669 1031.846 934.903 1033.713 932.705 1034.981 929.471 1033.114 931.669 1031.846" class="colore6eaf5 svgShape"></polygon><polygon fill="#e6edf5" points="926.931 1029.11 930.165 1030.977 927.968 1032.246 924.733 1030.379 926.931 1029.11" class="colore6eaf5 svgShape"></polygon><polygon fill="#e6edf5" points="922.193 1026.374 925.427 1028.242 923.23 1029.511 919.996 1027.644 922.193 1026.374" class="colore6eaf5 svgShape"></polygon><polygon fill="#e6edf5" points="917.456 1023.639 920.689 1025.507 918.491 1026.776 915.258 1024.908 917.456 1023.639" class="colore6eaf5 svgShape"></polygon><polygon fill="#e6edf5" points="912.718 1020.904 915.952 1022.771 913.754 1024.041 910.52 1022.173 912.718 1020.904" class="colore6eaf5 svgShape"></polygon><polygon fill="#e6edf5" points="905.186 1016.555 911.214 1020.037 909.017 1021.305 902.988 1017.824 905.186 1016.555" class="colore6eaf5 svgShape"></polygon><polygon fill="#e6edf5" points="929.572 1034.793 932.806 1036.66 930.608 1037.929 927.374 1036.061 929.572 1034.793" class="colore6eaf5 svgShape"></polygon><polygon fill="#e6edf5" points="924.834 1032.057 928.069 1033.924 925.87 1035.193 922.636 1033.326 924.834 1032.057" class="colore6eaf5 svgShape"></polygon><polygon fill="#e6edf5" points="920.097 1029.322 923.331 1031.188 921.133 1032.458 917.899 1030.591 920.097 1029.322" class="colore6eaf5 svgShape"></polygon><polygon fill="#e6edf5" points="915.359 1026.587 918.593 1028.453 916.395 1029.723 913.161 1027.856 915.359 1026.587" class="colore6eaf5 svgShape"></polygon><polygon fill="#e6edf5" points="910.621 1023.851 913.855 1025.718 911.657 1026.988 908.423 1025.12 910.621 1023.851" class="colore6eaf5 svgShape"></polygon><polygon fill="#e6edf5" points="901.585 1018.634 909.118 1022.983 906.92 1024.252 899.387 1019.903 901.585 1018.634" class="colore6eaf5 svgShape"></polygon><polygon fill="#e6edf5" points="927.528 1037.709 930.762 1039.576 928.564 1040.845 925.33 1038.978 927.528 1037.709" class="colore6eaf5 svgShape"></polygon><polygon fill="#e6edf5" points="922.79 1034.974 926.024 1036.841 923.827 1038.11 920.592 1036.243 922.79 1034.974" class="colore6eaf5 svgShape"></polygon><polygon fill="#e6edf5" points="918.053 1032.239 921.286 1034.106 919.088 1035.374 915.855 1033.507 918.053 1032.239" class="colore6eaf5 svgShape"></polygon><polygon fill="#e6edf5" points="913.315 1029.503 916.549 1031.371 914.351 1032.64 911.117 1030.772 913.315 1029.503" class="colore6eaf5 svgShape"></polygon><polygon fill="#e6edf5" points="908.577 1026.768 911.811 1028.635 909.613 1029.904 906.379 1028.037 908.577 1026.768" class="colore6eaf5 svgShape"></polygon><polygon fill="#e6edf5" points="903.84 1024.033 907.073 1025.9 904.876 1027.168 901.642 1025.302 903.84 1024.033" class="colore6eaf5 svgShape"></polygon><polygon fill="#e6edf5" points="898.037 1020.683 902.335 1023.165 900.138 1024.433 895.839 1021.952 898.037 1020.683" class="colore6eaf5 svgShape"></polygon></g><polygon fill="#7b3ead" points="895.94 1026.168 931.455 1046.672 930.388 1047.288 894.874 1026.784 895.94 1026.168" class="color423ead svgShape"></polygon><polygon points="924.459 1019.743 942.582 1030.207 953.843 1023.705 935.721 1013.242 924.459 1019.743" style="mix-blend-mode:multiply" fill="#e6edf5" class="colore6eaf5 svgShape"></polygon><path fill="url(#F)" d="M968.4116,1032.32308l-30.6338,17.6864a3.00233,3.00233,0,0,1-2.1694.2076c-.0052-.0016-.439-.1684-.5062-.2076l-44.943-25.9474a1.65148,1.65148,0,0,1-.1424-.0928l-.0066-.0052h0l-.0332-.0266c-.026-.0206-.051-.0412-.0744-.0624l-.0338-.033a.93328.93328,0,0,1-.077-.0838l-.009-.0106-.0058-.0066a.88116.88116,0,0,1-.0692-.1036.68613.68613,0,0,1-.098-.3212h-.0022v.6478h.0048a.92722.92722,0,0,0,.5468.7802l44.943,25.948a5.582,5.582,0,0,0,3.0608.3282c.456-.1004.8652-.2142,1.344-.3186l28.9046-16.6876a.93225.93225,0,0,0,.5508-.7824v-1.6726A.94247.94247,0,0,1,968.4116,1032.32308Z"></path><path fill="#193f6f" d="M946.6718,919.20548c-5.982,8.6572-7.031,27.939-1.6424,40.5056,4.007,0,10.3744-5.5054,16.3256-3.5836C962.7258,956.57008,953.9874,919.20548,946.6718,919.20548Z" class="color20196f svgShape"></path><path fill="#a7d0fa" d="M921.528,1007.54448c-3.0846,1.6478-9.699,2.6508-11.6306,4.3442-1.9316,1.6932-2.35,6.6874-.9064,8.2856,1.4438,1.5986,3.1026,1.5376,2.271,0-.831-1.5376-.6092-4.5224,1.6844-4.7612,4.4402-.462-1.162,4.4502.9356,4.494,1.9504.0408,2.7946-2.4728,5.168-4.2874,2.3736-1.8144,4.0386-2.376,6.2664-4.3328C927.2852,1009.55748,921.528,1007.54448,921.528,1007.54448Z" class="colorfacfa7 svgShape"></path><path fill="#a2d0ff" d="M920.689,1007.94288c3.7702-2.5404,15.3742-13.6588,17.4588-17.3488,1.934-3.42361,5.0916-22.5486,5.3426-24.9998.2508-2.451,1.7806-12.7728,11.8476-12.2656.9398,6.6796-7.5836,38.6484-10.8542,42.7788-4.0036,5.056-15.7522,12.7528-19.1674,15.1794C921.4926,1009.73168,920.689,1007.94288,920.689,1007.94288Z" class="colorffcea2 svgShape"></path><path fill="#652e92" d="M879.1156,1003.70028l43.3294,24.9356a4.694,4.694,0,0,1,1.7042,1.6864l11.1734,18.9566a.3966.3966,0,0,1-.5394.5452l-45.2234-26.0252a2.39518,2.39518,0,0,1-.8686-.86l-10.455-17.7374C877.4602,1003.88548,878.0118,1003.06528,879.1156,1003.70028Z" class="color362e92 svgShape"></path><path fill="url(#G)" d="M935.3226,1049.27888l-11.1734-18.9566a4.69559,4.69559,0,0,0-1.7042-1.6864l-43.3294-24.9356c-.4972-.2858-.8718-.2654-1.0744-.0486l-.0094-.0058a6.444,6.444,0,0,1,.6202-.6186l.008.0068c.2068-.198.573-.2104,1.0552.0666l43.3296,24.9358a4.69915,4.69915,0,0,1,1.704,1.6862l11.1736,18.9562a.37693.37693,0,0,1-.039.44l.0052.005-.0148.0142a.36484.36484,0,0,1-.0372.0352c-.1568.1478-.4992.5046-.5662.5718A.38372.38372,0,0,0,935.3226,1049.27888Z"></path><path fill="url(#H)" d="M975.1914,1011.28688c-1.64-14.9186,5.0888-32.995,6.379-42.3156.8142-5.8826,1.4026-12.7668-3.9236-14.425-5.5032-1.7134-7.7272-2.5124-12.4988-2.3928-11.4876.2848-16.8702,2.6414-19.2116,10.5538-2.2022,7.45019-3.7648,9.71519-5.5784,17.01838-.8126,3.275,7.474,13.356,6.4284,27.48162C943.5182,1020.21768,979.2428,1022.14108,975.1914,1011.28688Z"></path><path fill="#a2d0ff" d="M969.2298,938.16468c-.2038-3.5356-12.294,3.4986-12.0264,8.16.2204,3.7954.7132,7.6156-.707,8.1054-1.6498,1.1914-4.4562,9.142-1.5104,12.0868,10.2712-4.2028,13.5274-8.4618,22.6608-11.9706C973.9066,953.78108,969.8862,949.61208,969.2298,938.16468Z" class="colorffcea2 svgShape"></path><path fill="#a7d0fa" d="M942.5126,1021.57808c-4.6044,3.2128-5.863,1.2294-8.3286,2.338a36.76664,36.76664,0,0,0-5.6558,3.3948c-.8474.5814,2.03.471,3.2558,0-2.8012,2.3382-3.041,5.4074-2.5176,6.7814.6,1.5756,4.5658,3.066,5.4814,2.1838,3.819-3.6816,3.1538-5.1378,8.377-6.5034,1.87-.4886,4.548-3.2364,4.548-3.2364Z" class="colorfacfa7 svgShape"></path><path fill="#a2d0ff" d="M942.5126 1021.57808c7.1514-4.1826 20.474-19.6984 21.5116-25.4052s7.2772-40.6786 15.3164-40.0368c7.994.6382-1.6938 33.7796-7.197 45.958-2.6894 5.9512-16.4258 19.8274-24.4708 24.4422C944.5548 1026.53628 942.5126 1021.57808 942.5126 1021.57808zM972.1436 933.27308l-3.6378-9.1062-18.558-2.9228a7.71506 7.71506 0 00-3.2064-.729c-2.8252 5.7672-1.302 17.533-1.302 17.533 0 7.6674 5.1632 13.8812 11.533 13.8812 6.1784 0 11.1784-5.8554 11.4782-13.2046l1.6072.0428z" class="colorffcea2 svgShape"></path><path fill="#96c8fb" d="M966.4662,945.85688a11.1573,11.1573,0,0,1-9.0096,6.0604,3.70076,3.70076,0,0,1-.6126,2.293,8.66545,8.66545,0,0,0,1.8584-.1718C962.5512,953.09568,965.3336,949.91248,966.4662,945.85688Z" class="colorfbc096 svgShape"></path><path fill="url(#I)" d="M957.9222,914.13908c17.7842,0,21.1416,21.8292,24.1768,40.6692-2.716,5.9608-9.3372,10.3248-17.4268,12.2408-9.6592.9652,3.2504-32.0654-10.219-40.696-3.745-2.3996-10.6806-1.3912-9.293-4.4316C948.1738,915.31888,951.9006,914.13908,957.9222,914.13908Z"></path><path d="M510.84338,1139.28528c8.8382,2.1372,40.341,8.8938,47.2328,3.5982,6.8922-5.2956,17.3536-24.6054,30.475-36.4982-26.13918-.3886-46.26818-4.406-55.3776,1.2548C524.06438,1113.30088,510.84338,1139.28528,510.84338,1139.28528Z" style="mix-blend-mode:multiply" fill="url(#J)"></path><path d="M871.158,948.88788c11.5458-1.4106,40.7652-15.6244,40.4002-23.3008-.3654-7.6762-34.1366-8.472-42.0858-4.6042C861.5232,924.84988,853.767,951.01308,871.158,948.88788Z" style="mix-blend-mode:multiply" fill="url(#K)"></path><path fill="#7c3eaf" d="M876.8496,934.92208c.1852,2.6742-3.2304,4.9902-7.8438,5.2972-83.1812,5.5382-126.4884,20.0494-176.35462,49.34559-5.3964,3.171-10.884,6.395-16.5286,9.654l-167.0168,96.4268-5.79478-3.3454-3.69382,2.1326,9.4886,5.4782,167.0168-96.427c5.6446-3.2588,11.1322-6.4824,16.5286-9.654,49.86622-29.2962,94.68522-40.484,176.53722-44.6932,4.6436-.2386,8.632-2.6484,8.4044-5.3416Z" class="color423eaf svgShape"></path><path fill="#6f67e9" d="M876.853,934.87808c.2274,2.6928-3.2078,5.0322-7.8472,5.3412-83.1812,5.5382-126.4884,20.0494-176.35462,49.34559-5.3964,3.17141-10.884,6.395-16.5288,9.654L509.106,1095.64568l-9.48862-5.4782,167.0164-96.427c5.61722-3.2428,11.077-6.45041,16.4454-9.606,49.43622-29.02539,92.30482-56.41219,182.49142-65.196,5.2392-.5104,10.0844,1.7534,10.3432,4.8176Z" class="color6b67e9 svgShape"></path><path fill="url(#L)" d="M643.42478,1015.27708q-8.4669,4.8885-16.7216,9.5426c-50.7418,28.7904-75.876,53.7936-85.46818,101.8184-.53522,2.6784-4.58742,4.6618-9.25162,4.5306l-19.2638-.5422c-5.3074-.1496-9.2284-2.9468-8.34458-5.9718-.87922,3.1238-1.00922,7.7272.09558,10.7042a3.26231,3.26231,0,0,0,.1382.3936c.00722.0166.0118.037.019.0536l.01222-.0078c1.046,2.0096,4.17918,3.5544,8.07958,3.6642l22.292.5422c4.6646.1314,8.724-1.8504,9.2518-4.5304,10.4792-53.2254,31.698-77.599,82.4398-106.3892q8.2398-4.6737,16.7216-9.5428l167.01682-96.427-3.694-2.1324Z"></path><path fill="#857dfb" d="M531.98338,1131.16868c4.6642.1312,8.7168-1.8522,9.25162-4.5306,9.59218-48.0248,34.72638-73.028,85.46838-101.8184q8.2395-4.6731,16.7214-9.5426l167.01682-96.427-9.4886-5.4782-167.01662,96.4268q-8.4255,4.8645-16.6382,9.4948c-50.2738,28.542-97.7088,53.292-112.92318,105.3612-.88382,3.025,3.03718,5.8222,8.34458,5.9716Z" class="color807dfb svgShape"></path><g style="mix-blend-mode:multiply" fill="#f4f6f8" class="color000000 svgShape"><path fill="url(#b)" d="M743.3944,921.74468c-36.21862,12.1482-106.13722,54.51279-71.417,74.5586,14.9434,8.6274,47.40539,16.0826,81.37022,14.6358-27.417-1.1194-51.93782-7.4674-64.35382-14.6358-34.7202-20.04581,35.19822-62.4104,71.417-74.5586a115.04585,115.04585,0,0,1,23.202-5.4618C772.6754,914.85948,759.9642,916.18708,743.3944,921.74468Z"></path><path fill="url(#M)" d="M536.124,1097.26408c-18.98242-10.9596-29.10862-21.186-9.80982-40.367,15.7206-15.6248,60.667-42.1072,96.87182-46.1348-37.61382-4.9908-95.57582,27.934-113.888,46.1348-19.299,19.181-9.17282,29.4074,9.80978,40.367,12.68522,7.3238,40.90822,18.186,71.93,15.9508C567.02718,1111.51928,546.43858,1103.21908,536.124,1097.26408Z"></path><path fill="url(#N)" d="M662.03178,1015.21448c-.657-4.0932,1.8354-8.1448,6.9526-11.1032a27.90644,27.90644,0,0,1,5.6672-2.412c-1.2102-.5286-2.38158-1.0616-3.4632-1.6016-7.0896-.3778-14.10338,1.0598-19.22038,4.0136-5.11722,2.9584-7.60982,7.01-6.95262,11.1032,23.7128,15.8366,42.2298,56.296-3.3228,85.057-1.1574.7332-2.324,1.4284-3.48658,2.1056a107.80726,107.80726,0,0,1-47.19062,13.9896c20.5072,1.3524,43.1288-1.8206,64.2068-13.9896,1.16282-.6772,2.3294-1.3724,3.487-2.1056C704.26158,1071.51048,685.74458,1031.05108,662.03178,1015.21448Z"></path><path fill="url(#O)" d="M834.1174,925.21428c-15.5234-8.9622-30.4198-14.237-50.5426-12.1062,12.1906,1.4076,22.7066,5.8598,33.5264,12.1062,22.1302,12.7772,51.6662,44.0492,5.0622,70.9576q-1.7508,1.005-3.652,2.0096c-19.8112,10.4614-42.8256,15.0568-65.09,15.9526,27.1888,1.1044,57.1836-2.7922,82.1062-15.9526q1.9053-1.0038,3.6524-2.0096C885.7836,969.26348,856.2476,937.99148,834.1174,925.21428Z"></path><path fill="url(#P)" d="M634.86118,1010.14888a15.67729,15.67729,0,0,1,3.4336-5.6574c-18.5222-4.5136-41.7964,1.2006-64.1214,10.7432C595.91678,1007.63588,618.00158,1004.32888,634.86118,1010.14888Z"></path></g><path fill="#ffffff" d="M671.97738 986.16487c24.2838 14.02061 94.82522 24.983 142.91122-.409 50.179-26.48919 17.397-57.52659-1.5838-68.48519-18.9804-10.9584-36.6972-16.8038-69.9104-5.6642C707.17578 923.75468 637.25718 966.11948 671.97738 986.16487zM638.43978 1005.52928c24.2858 14.0218 43.267 54.7496-.70478 82.5086-45.88862 28.973-99.64682 10.0466-118.62722-.9118-18.9826-10.9596-29.10878-21.1862-9.80978-40.3672C530.33578 1025.84908 603.71718 985.48227 638.43978 1005.52928z" opacity=".5" class="colorffffff svgShape"></path><path fill="url(#g)" d="M803.7476,913.02448a3.642,3.642,0,0,0,1.5256,3.3614l12.7064,7.3294a3.64247,3.64247,0,0,1-1.5254-3.3616,11.341,11.341,0,0,1,5.1452-8.913,3.61536,3.61536,0,0,1,3.621-.3518l-12.7066-7.3292a3.61525,3.61525,0,0,0-3.6212.3518A11.34025,11.34025,0,0,0,803.7476,913.02448Z"></path><path fill="#bbd0e6" d="M816.4542,920.35368c0,3.2914,2.3038,4.6406,5.1454,3.011a11.34547,11.34547,0,0,0,5.1464-8.9138c.0002-3.293-2.3044-4.6404-5.1466-3.0102A11.341,11.341,0,0,0,816.4542,920.35368Z" class="colorbbc0e6 svgShape"></path><path fill="#6f67e9" d="M819.2634,918.74248c0,1.4948,1.046,2.1074,2.3362,1.3672a5.15137,5.15137,0,0,0,2.337-4.0478c0-1.495-1.0462-2.107-2.337-1.3668A5.15018,5.15018,0,0,0,819.2634,918.74248Z" class="color6b67e9 svgShape"></path><path fill="url(#c)" d="M743.3944,921.74468c33.2132-11.1396,50.9302-5.294,69.9104,5.6642,10.2916,5.9418,24.595,17.7946,27.577,31.617,4.0804-17.9984-14.838-34.4002-27.577-41.755-18.9802-10.9586-36.6972-16.804-69.9104-5.6642-31.61722,10.6046-88.89962,44.233-79.85162,65.94259C670.656,956.66808,716.38238,930.80488,743.3944,921.74468Z"></path><path fill="url(#Q)" d="M509.298,1046.75888c-9.71062,9.6514-11.96682,17.0344-9.398,23.3856,1.41038-3.9312,4.40578-8.2858,9.398-13.2474,21.03778-20.9098,94.41918-61.2764,129.14178-41.2296,12.3716,7.1426,23.336,21.222,25.3338,36.9808,2.5846-19.6594-10.354-38.4704-25.3338-47.1188C603.71718,985.48227,530.33578,1025.84908,509.298,1046.75888Z"></path><path fill="#cee3f8" d="M657.29478,973.05087h-.011v10.0596h.01322a15.131,15.131,0,0,0,.18078,1.76419c1.6166-.32279,3.273-.577,4.95522-.763A15.31374,15.31374,0,0,1,657.29478,973.05087Z" class="colorced3f8 svgShape"></path><path fill="url(#d)" d="M846.8736,954.33588c-.1444,10.3446-6.776,21.343-24.7102,31.698q-1.7508,1.0044-3.652,2.01c-49.8154,26.30421-119.89862,15.60741-147.323,1.91561v10.1382c27.4244,13.6918,97.50762,24.3882,147.323-1.9162q1.905-1.0038,3.652-2.0096c17.9798-10.381,24.5978-21.40881,24.7098-31.7764h.0302v-10.0596Z"></path><path fill="url(#R)" d="M651.968,993.97288c-5.11722,2.9584-7.60982,7.01-6.95262,11.1038.9892.6604,1.9642,1.3792,2.9312,2.1226a18.18187,18.18187,0,0,1,4.02142-3.088c5.117-2.9538,12.13078-4.3914,19.22038-4.0136v-10.1382C664.09878,989.58166,657.085,991.01928,651.968,993.97288Z"></path><path fill="url(#S)" d="M641.69258,1090.13348c-1.1572.7328-2.32358,1.4282-3.48658,2.1056-46.606,26.9066-100.76622,9.8522-122.897-2.9248-13.18322-7.6112-21.75622-14.9618-21.78442-24.1194h-.015v10.06h.03942c-.01762,9.1914,8.54178,16.566,21.76,24.1978,22.13078,12.7766,76.291,29.8314,122.897,2.9244,1.163-.6774,2.32938-1.3724,3.48658-2.1058,20.38142-12.8684,27.906-28.075,27.9086-42.374h.02482v-10.0598h-.01662C669.57878,1062.11368,662.03658,1077.28868,641.69258,1090.13348Z"></path><path fill="#f6f8fb" d="M817.1012,915.07628c-21.4932-12.409-41.7728-17.7656-76.4062-6.1542a224.92865,224.92865,0,0,0-38.51962,17.852c-31.0628,17.9358-56.076,41.5888-39.74238,57.33739a46.767,46.767,0,0,0-18.05242,5.4808c-5.0268,2.90341-8.2434,6.53641-9.5194,10.41861-27.2776-9.4164-68.234,5.0238-99.2896,22.9552-12.952,7.47-24.2158,15.5784-30.9184,22.2362-20.1178,19.9956-10.83718,31.7028,10.65582,44.112,22.13078,12.7768,76.291,29.8314,122.897,2.9246,1.16258-.6772,2.32918-1.3726,3.48658-2.1054,45.5526-28.7612,27.0356-69.2204,3.3228-85.057-.6572-4.0936,1.8354-8.1452,6.95262-11.1036,5.117-2.9536,12.13078-4.39141,19.22038-4.0134,27.4244,13.6918,97.50762,24.3884,147.323-1.91582q1.905-1.00439,3.652-2.00979C868.7674,959.12528,839.2314,927.85328,817.1012,915.07628Zm-179.366,172.9616c-45.8888,28.973-99.647,10.0464-118.6274-.9118-18.9826-10.9596-29.109-21.1862-9.80978-40.3672,21.03778-20.9098,94.41918-61.27661,129.14178-41.2296C662.72558,1019.55088,681.70678,1060.27888,637.73518,1088.03788Zm177.15342-102.282c-48.086,25.392-118.62722,14.42961-142.91122.409-34.7202-20.04539,35.1984-62.41019,71.417-74.55839,33.213-11.1396,50.9302-5.2942,69.9104,5.6644C832.2854,928.22928,865.0676,959.26668,814.8886,985.75587Z" class="colorf6f6fb svgShape"></path><path d="M671.97738,986.16487c24.2838,14.02061,94.82522,24.983,142.91122-.409,50.179-26.48919,17.397-57.52659-1.5838-68.48519-18.9804-10.9584-36.6972-16.8038-69.9104-5.6642C707.17578,923.75468,637.25718,966.11948,671.97738,986.16487Z" style="mix-blend-mode:multiply" fill="url(#e)"></path><path d="M841.444,955.16548c-.5118,9.9608-7.6258,20.596-26.5554,30.59039-48.086,25.392-118.62742,14.42961-142.91122.409-4.9066-2.8328-7.66538-6.121-8.7818-9.6986C736.8476,981.81907,779.1154,975.43387,841.444,955.16548Z" style="mix-blend-mode:multiply" fill="url(#f)"></path><path d="M683.26678 958.61908c-4.097-2.3652-4.0936-6.2024-.00378-8.5664a16.36659 16.36659 0 0114.82438.0042c4.09262 2.3624 4.0918 6.195-.0016 8.5598A16.364 16.364 0 01683.26678 958.61908zM509.24178 1062.63048c-4.0966-2.3654-4.0934-6.2022-.00378-8.5662a16.366 16.366 0 0114.82438.0038c4.0924 2.3628 4.092 6.195-.0016 8.56A16.36461 16.36461 0 01509.24178 1062.63048z" style="mix-blend-mode:screen" fill="#a5b8cc" class="colora5abcc svgShape"></path><path d="M638.43978,1005.52928c24.2858,14.0218,43.267,54.7496-.70478,82.5086-45.88862,28.973-99.64682,10.0466-118.62722-.9118-18.9826-10.9596-29.10878-21.1862-9.80978-40.3672C530.33578,1025.84908,603.71718,985.48227,638.43978,1005.52928Z" style="mix-blend-mode:multiply" fill="url(#T)"></path><path d="M664.00418,1050.59328c-.9976,12.8552-8.4756,26.2062-26.26918,37.4446-45.88862,28.973-99.64682,10.0466-118.62722-.9118-10.7696-6.2182-18.6834-12.2008-19.9922-19.7132C546.95278,1078.02108,611.75918,1071.69548,664.00418,1050.59328Z" style="mix-blend-mode:multiply" fill="url(#U)"></path><path fill="#f6f8fb" d="M817.1012,915.07628c-21.4932-12.409-41.7728-17.7656-76.4062-6.1542a224.92865,224.92865,0,0,0-38.51962,17.852c-31.0628,17.9358-56.076,41.5888-39.74238,57.33739a46.767,46.767,0,0,0-18.05242,5.4808c-5.0268,2.90341-8.2434,6.53641-9.5194,10.41861-27.2776-9.4164-68.234,5.0238-99.2896,22.9552-12.952,7.47-24.2158,15.5784-30.9184,22.2362-20.1178,19.9956-10.83718,31.7028,10.65582,44.112,22.13078,12.7768,76.291,29.8314,122.897,2.9246,1.16258-.6772,2.32918-1.3726,3.48658-2.1054,45.5526-28.7612,27.0356-69.2204,3.3228-85.057-.6572-4.0936,1.8354-8.1452,6.95262-11.1036,5.117-2.9536,12.13078-4.39141,19.22038-4.0134,27.4244,13.6918,97.50762,24.3884,147.323-1.91582q1.905-1.00439,3.652-2.00979C868.7674,959.12528,839.2314,927.85328,817.1012,915.07628Zm-179.366,172.9616c-45.8888,28.973-99.647,10.0464-118.6274-.9118-18.9826-10.9596-29.109-21.1862-9.80978-40.3672,21.03778-20.9098,94.41918-61.27661,129.14178-41.2296C662.72558,1019.55088,681.70678,1060.27888,637.73518,1088.03788Zm177.15342-102.282c-48.086,25.392-118.62722,14.42961-142.91122.409-34.7202-20.04539,35.1984-62.41019,71.417-74.55839,33.213-11.1396,50.9302-5.2942,69.9104,5.6644C832.2854,928.22928,865.0676,959.26668,814.8886,985.75587Z" class="colorf6f6fb svgShape"></path><path fill="url(#V)" d="M490.654,1093.62868a3.64208,3.64208,0,0,0,1.52578,3.3614l12.7068,7.3294a3.64236,3.64236,0,0,1-1.52558-3.3616,11.34065,11.34065,0,0,1,5.145-8.913,3.61441,3.61441,0,0,1,3.621-.3518l-12.70642-7.3292a3.61436,3.61436,0,0,0-3.621.3518A11.34069,11.34069,0,0,0,490.654,1093.62868Z"></path><path fill="#bbd0e6" d="M503.361,1100.95788c0,3.2918,2.30378,4.6404,5.14538,3.0108a11.34366,11.34366,0,0,0,5.146-8.914c0-3.2926-2.304-4.6402-5.14638-3.0098A11.34065,11.34065,0,0,0,503.361,1100.95788Z" class="colorbbc0e6 svgShape"></path><path fill="#6f67e9" d="M506.17,1099.34648c0,1.4948,1.04638,2.1074,2.33658,1.3674a5.15164,5.15164,0,0,0,2.3368-4.0476c0-1.4954-1.0462-2.1072-2.3368-1.367A5.14991,5.14991,0,0,0,506.17,1099.34648Z" class="color6b67e9 svgShape"></path><polygon points="813.295 545.779 817.367 489.171 826.78 488.935 828.192 545.407 813.295 545.779" style="mix-blend-mode:multiply" fill="url(#h)"></polygon><polygon points="766.185 518.58 770.257 461.972 779.67 461.736 781.082 518.208 766.185 518.58" style="mix-blend-mode:multiply" fill="url(#W)"></polygon><polygon points="729.579 669.958 724.867 672.678 729.579 675.398 774.198 675.398 774.198 669.958 729.579 669.958" style="mix-blend-mode:multiply" fill="url(#i)"></polygon><polygon points="776.702 697.165 771.991 699.885 776.702 702.605 821.322 702.605 821.322 697.165 776.702 697.165" style="mix-blend-mode:multiply" fill="url(#X)"></polygon><polygon fill="#662e94" points="781.4 699.877 776.859 701.387 822.24 490.445 826.78 488.935 781.4 699.877" class="color362e94 svgShape"></polygon><polygon fill="#662e94" points="734.29 672.678 729.75 674.188 775.13 463.246 779.67 461.736 734.29 672.678" class="color362e94 svgShape"></polygon><polygon fill="#857dfb" points="779.67 461.736 775.13 463.246 770.248 460.427 774.788 458.917 779.67 461.736" class="color807dfb svgShape"></polygon><polygon fill="#857dfb" points="818.25 503.146 813.709 504.656 771.468 480.268 776.009 478.758 818.25 503.146" class="color807dfb svgShape"></polygon><polygon fill="#857dfb" points="813.084 527.155 808.544 528.665 766.303 504.277 770.843 502.767 813.084 527.155" class="color807dfb svgShape"></polygon><polygon fill="#857dfb" points="807.919 551.164 803.379 552.674 761.138 528.286 765.678 526.777 807.919 551.164" class="color807dfb svgShape"></polygon><polygon fill="#857dfb" points="802.754 575.174 798.214 576.684 755.973 552.296 760.513 550.786 802.754 575.174" class="color807dfb svgShape"></polygon><polygon fill="#857dfb" points="797.589 599.183 793.049 600.693 750.808 576.305 755.348 574.795 797.589 599.183" class="color807dfb svgShape"></polygon><polygon fill="#857dfb" points="792.424 623.193 787.883 624.702 745.642 600.315 750.183 598.805 792.424 623.193" class="color807dfb svgShape"></polygon><polygon fill="#857dfb" points="787.258 647.202 782.718 648.712 740.477 624.324 745.018 622.814 787.258 647.202" class="color807dfb svgShape"></polygon><polygon fill="#857dfb" points="782.093 671.211 777.553 672.721 735.312 648.333 739.852 646.823 782.093 671.211" class="color807dfb svgShape"></polygon><polygon fill="#857dfb" points="826.78 488.935 822.24 490.445 817.357 487.626 821.897 486.116 826.78 488.935" class="color807dfb svgShape"></polygon><path fill="#5a52cc" d="M735.312,648.33348l3.8432-17.8638,42.241,24.3878-3.8432,17.8636-42.241-24.3876Zm5.1654-24.0096,3.843-17.8636,42.2408,24.3878-3.8428,17.8638-42.241-24.388Zm5.165-24.0092,3.8432-17.86379,42.241,24.388-3.8432,17.8636-42.241-24.3878Zm5.1652-24.00939,3.8394-17.8458,42.241,24.3878-3.8394,17.84579-42.241-24.38779Zm5.1654-24.0094,3.839-17.8458,42.241,24.3878-3.8392,17.8458-42.2408-24.3878Zm5.165-24.0094,3.8394-17.8458,42.241,24.388-3.8394,17.8458-42.241-24.388Zm5.1654-24.0092,3.839-17.8458,42.241,24.3878-3.8392,17.8456-42.2408-24.3876Zm55.9364-13.8324-4.8684-2.8108-3.662,17.0216-42.241-24.388,3.662-17.0214-4.8828-2.8192L724.86717,671.36928l4.88263,2.8188,4.24-19.709,42.241,24.3878-4.2398,19.7092,4.8684,2.8108,45.3804-210.942Z" class="color5652cc svgShape"></path><path fill="#a9d2fc" d="M762.4338,535.31909c2.3802-1.4646,2.537-3.6092,4.3638-4.6622,1.3258-.764,3.5102-2.1212,4.946-1.8758s5.417,3.0246,5.7096,3.3358a2.26337,2.26337,0,0,1,.5514,1.7764,2.014,2.014,0,0,0-1.9074.0888c1.2274,1.1812-2.7524,3.3492-5.419,3.3682a19.211,19.211,0,0,0-4.3748,2.3752Z" class="colorfcd1a9 svgShape"></path><path fill="url(#k)" d="M731.0358,522.89249c-2.09-3.0906-20.33622,5.4212-8.87743,16.2438,5.021,4.742,11.13643,9.6586,16.754,12.5816,4.7428,2.468,28.134-11.2054,28.134-11.2054,2.0464-2.6252-2.2976-7.5156-5.64-5.4204-3.5816,2.2452-14.7988,6.0202-18.94,4.6334C739.2966,538.66409,733.9356,527.18109,731.0358,522.89249Z"></path><polygon points="761.138 683.123 712.283 683.123 708.381 694.794 761.138 694.794 761.138 683.123" style="mix-blend-mode:multiply" fill="url(#Y)"></polygon><path fill="url(#j)" d="M700.70758,690.82908c0-10.0996,6.396-10.3862,6.396-10.3862s3.467,0,9.0942-2.3402c5.55359-2.3004,13.38222-1.4144,9.00779,6.6606a2.77632,2.77632,0,0,1-.15.2952,3.95,3.95,0,0,1-1.4198,1.2418l-13.98159,8.2022C707.52238,695.71828,700.75318,692.90868,700.70758,690.82908Z"></path><path fill="#0c2340" d="M700.74458,689.92168c.12142,2.0754,6.7976,4.8326,8.9096,3.6256l13.98159-8.1978a13.06563,13.06563,0,0,0,1.9694-1.433c-.1264.2736-.23917.5384-.3996.8468a2.77632,2.77632,0,0,1-.15.2952,3.95,3.95,0,0,1-1.4198,1.2418l-13.98159,8.2022c-1.9928,1.1332-8.0608-1.2594-8.8596-3.2738a2.19689,2.19689,0,0,1-.063-.4084A6.85332,6.85332,0,0,1,700.74458,689.92168Z" class="color131147 svgShape"></path><path fill="#ffffff" d="M703.30858,679.10988a58.52685,58.52685,0,0,1,7.4486,1.4764,3.23172,3.23172,0,0,0,.5146,1.5024,1.796,1.796,0,0,1,.1626.204c1.14662.7902,2.308,2.0538-.4056,3.7516a3.77307,3.77307,0,0,1-4.8892-.3474,4.46025,4.46025,0,0,0-1.5762-1.789,4.0138,4.0138,0,0,0-1.5132-.6384,1.10049,1.10049,0,0,0-.0108-.1388S702.61818,679.10988,703.30858,679.10988Z" class="colorffffff svgShape"></path><path fill="url(#Z)" d="M704.162,580.41389c6.32418.115,21.16517.3804,27.4848.4954-2.3554,19.003-7.08843,36.256-10.25163,54.65779-3.39317,17.8804-7.214,30.4506-10.55339,45.3362-1.2222,2.7744-6.8104,1.7236-7.9436-.9424-.8878-13.7068-1.904-30.4082,2.1602-46.22C704.37878,616.69228,703.76238,597.62348,704.162,580.41389Z"></path><path fill="url(#aa)" d="M759.1602,670.59768c0-10.0908,6.4026-10.3816,6.4026-10.3816s3.4604,0,9.092-2.3362c5.5516-2.3056,13.378-1.4198,9.0054,6.6522a2.00482,2.00482,0,0,1-.1562.2994,3.8905,3.8905,0,0,1-1.4156,1.2462l-13.9768,8.1978C765.9796,675.49128,759.2126,672.67748,759.1602,670.59768Z"></path><path fill="#0c2340" d="M759.1996,669.69448c.1192,2.0754,6.7974,4.8328,8.912,3.6258l13.9768-8.1978a12.71723,12.71723,0,0,0,1.9714-1.4416c-.1304.2822-.2388.5558-.3996.8512a2.00482,2.00482,0,0,1-.1562.2994,3.8905,3.8905,0,0,1-1.4156,1.2462l-13.9768,8.1978c-1.993,1.1376-8.0612-1.255-8.8602-3.2696a2.08537,2.08537,0,0,1-.0628-.4126A6.1713,6.1713,0,0,1,759.1996,669.69448Z" class="color131147 svgShape"></path><path fill="#ffffff" d="M761.7612,658.88728a58.85006,58.85006,0,0,1,7.4488,1.4718,3.28327,3.28327,0,0,0,.5166,1.5026c.0588.065.1066.1302.1608.1952,1.1462.7946,2.3122,2.0582-.4036,3.7602a3.76776,3.76776,0,0,1-4.8892-.3472,4.49786,4.49786,0,0,0-1.5762-1.789,4.02149,4.02149,0,0,0-1.5132-.6382.55541.55541,0,0,0-.0132-.1346S761.075,658.88728,761.7612,658.88728Z" class="colorffffff svgShape"></path><path fill="url(#ab)" d="M746.9656,597.23988c-6.2546.916-36.65782-13.87739-42.91242-12.957-1.307,36.71339,27.58482,35.17239,53.62462,33.08319l.2182-.0432a150.82892,150.82892,0,0,0,3.4702,43.5574c1.5588,2.4444,7.2424,2.566,7.9914-.365.8642-15.236,4.6814-28.2566,5.1048-46.4544C774.582,595.38808,761.3664,597.66948,746.9656,597.23988Z"></path><path fill="url(#ac)" d="M716.32978,602.55228c9.19939,4.5624,22.43062,6.5402,24.85862-3.7476.9804,7.6556,7.0862,3.2016,7.7396,0-.8264-17.477-1.7202-27.85959,2.7014-44.31039-.5088-9.2572-1.159-10.6832.3242-15.975-.3146-1.8246-5.6296-5.9762-9.4542-9.8806-4.1328-4.221-6.861-8.1694-9.0764-8.7552-18.28542-4.8174-29.12542,27.6354-29.56022,62.8566C704.76678,592.16749,709.87958,598.43988,716.32978,602.55228Z"></path><path fill="#a9d2fc" d="M723.04757,521.40349c4.17343-2.6718,6.27123-9.7206,7.09423-13.635a19.54045,19.54045,0,0,1,1.258-6.81c3.087-8.2468,11.0056-13.3986,17.2722-10.5438,12.6274,5.7466,7.7668,11.6994,4.68,19.9416-2.8616,7.6352-8.2924,11.5942-14.4174,10.3108a6.56943,6.56943,0,0,0,1.4788,5.748c-4.6658,2.455-11.1834.807-13.7204-.5134C723.99157,524.49129,721.05457,523.24529,723.04757,521.40349Z" class="colorfcd1a9 svgShape"></path><path fill="#662e94" d="M755.1648,487.87549c-.003-1.144-1.8026-2.4336-9.4374-1.8484-.048.007-1.8546.1508-1.9708.166-14.3028,1.6826-15.6166,17.2016-14.8866,21.6492a8.16213,8.16213,0,0,1-.3826,4.8938c5.042,1.2878,5.7752,4.5594,9.7992,2.7236,2.8834-1.3138,7.0066-2.633,7.8764-3.4418a4.04432,4.04432,0,0,0,1.1894-2.277c2.112-6.9948,4.065-1.7496,3.474-.1782,1.5164-.245,2.2744-3.0844,3.1198-6.2388h0C767.0984,498.52009,762.9866,491.26309,755.1648,487.87549Z" class="color362e94 svgShape"></path><path fill="#a9d2fc" d="M800.645,545.12569c-1.598-.7642-4.3258-2.8208-6.4926-1.9094a4.70556,4.70556,0,0,0-1.1264.662c.2444-.6576.434-1.3554.1854-1.4622-.4864-.2082-1.841,1.0422-2.4646,1.6048l.0028.0018a2.7059,2.7059,0,0,0-1.1508,1.103c-1.2158,1.7368-1.5538,4.1052-3.3598,5.4442,2.1786,1.3388,6.2398,3.3094,6.2398,3.3094a18.8043,18.8043,0,0,0,5.1612-3.1264c1.4944-1.4944,3.82-3.3178,3.82-3.3178.4276.2468,1.3452.7768,1.3452.7768A3.8875,3.8875,0,0,0,800.645,545.12569Z" class="colorfcd1a9 svgShape"></path><path fill="url(#ad)" d="M751.377,537.38489c-3.6116-4.0642-21.0054,7.8076-8.5906,17.519,11.9238,9.3276,16.6038,11.9112,22.4968,14.2298,4.975,1.9572,26.8054-14.0908,26.8054-14.0908,1.76-2.8254-3.0722-7.2338-6.1766-4.8-3.327,2.608-14.0746,7.5052-18.3386,6.5598C764.31,556.07929,754.816,541.25469,751.377,537.38489Z"></path><polygon fill="#5a52cc" points="781.396 654.857 786.239 657.788 782.45 675.398 777.553 672.721 781.396 654.857" class="color5652cc svgShape"></polygon><polygon points="685.472 875.855 582.525 875.855 617.585 896.092 582.525 916.336 685.472 916.336 720.536 896.092 685.472 875.855" style="mix-blend-mode:multiply" fill="url(#l)"></polygon><polygon points="621.627 916.332 524.591 916.332 559.648 936.576 524.591 956.815 621.627 956.815 656.684 936.576 621.627 916.332" style="mix-blend-mode:multiply" fill="url(#ae)"></polygon><polygon points="553.179 956.813 466.659 956.813 501.716 977.055 466.659 997.297 553.179 997.297 588.236 977.055 553.179 956.813" style="mix-blend-mode:multiply" fill="url(#af)"></polygon><polygon fill="#cee3f8" points="547.461 822.378 582.52 842.622 582.52 916.332 547.461 896.09 547.461 822.378" class="colorced3f8 svgShape"></polygon><polygon fill="#bbd0e6" points="617.58 822.378 582.52 842.622 582.52 916.332 617.58 896.09 617.58 822.378" class="colorbbc0e6 svgShape"></polygon><polygon fill="#f1f3f6" points="582.52 802.141 547.461 822.378 582.52 842.622 617.58 822.378 582.52 802.141" class="colorf1f1f6 svgShape"></polygon><polygon fill="#5a52cc" points="489.529 882.807 524.588 903.049 524.588 956.815 489.529 936.573 489.529 882.807" class="color5652cc svgShape"></polygon><polygon fill="#7c3eaf" points="559.648 882.807 524.588 903.049 524.588 956.815 559.648 936.573 559.648 882.807" class="color423eaf svgShape"></polygon><polygon fill="#6f67e9" points="524.588 862.566 489.529 882.807 524.588 903.049 559.648 882.807 524.588 862.566" class="color6b67e9 svgShape"></polygon><polygon fill="#ff5ae1" points="431.597 934.885 466.659 955.127 466.659 997.297 431.597 977.055 431.597 934.885" class="colorff5a72 svgShape"></polygon><polygon fill="#a50b89" points="501.716 934.885 466.659 955.127 466.659 997.297 501.716 977.055 501.716 934.885" class="colorc62c51 svgShape"></polygon><polygon fill="#6db6ff" points="466.659 914.644 431.597 934.885 466.659 955.127 501.716 934.885 466.659 914.644" class="colorffaf6d svgShape"></polygon><path fill="url(#ag)" d="M555.656,768.44308a4.21439,4.21439,0,0,1,1.82218-1.764c4.167-2.4122,13.6884-2.9754,17.938-2.973l.0492-8.7554c-5.5226.2176-17.97838-.8284-19.7058-4.7482a24.92545,24.92545,0,0,0-2.5854-3.6354c-3.5138-3.4872,4.5842-9.3256,8.2422-11.437l-10.6568-6.1914H528.749v4.1962c-1.33662-.339-2.66142-.7006-4.034-.969-6.75442-1.0166-8.14122-8.4532-8.12542-11.4312l-15.1238-.006c-.0052,2.4656-1.00778,7.981-5.184,10.389a8.584,8.584,0,0,1-3.05578,1.046c-2.14082.4194-4.24782.92-6.28962,1.5096-6.96538,1.501-16.0866-2.6252-19.7198-4.7346l-10.7258,6.1914c3.6328,2.1114,11.6636,7.9524,8.112,11.4348a24.33119,24.33119,0,0,0-2.6234,3.6418,4.23639,4.23639,0,0,1-1.8198,1.7682c-4.1718,2.4054-13.6902,2.9732-17.9648,2.9732l-.02478,8.758c5.143-.0024,17.978.824,19.70618,4.737.11782.2038.26282.4034.388.6062h-23.714v20.666h28.3252c2.8238-1.6344,9.492-4.7782,15.1522-5.1872v13.3934h34.12c.231-2.5894,1.10642-8.0222,5.2216-10.4006.2222-.1276.48082-.2184.72182-.3274v2.5218h28.32538l10.7308-6.1932c-3.6376-2.1114-11.6734-7.9522-8.1164-11.4372A25.39589,25.39589,0,0,0,555.656,768.44308Zm-65.83642,1.8578c-10.4368-6.0648-10.378-15.8848.1122-21.9454,10.506-6.0628,32.15922,20.6938,32.15922,20.6938v3.7224C511.83378,776.18628,498.543,775.37048,489.81958,770.30088Z"></path><path fill="#f7f9fc" d="M437.16338,719.12408c-.009-3.3996-6.00038-7.6832-8.99838-9.4246l.07178,25.547c2.998,1.7414,8.9936,6.0206,9.0006,9.4222Z" class="colorf7f7fc svgShape"></path><path fill="#bdd0e4" d="M533.16218,735.24648l-.0716-25.547c-3.0314,1.748-9.117,6.0652-9.1058,9.4718l.0698,25.549C524.04818,741.30948,530.13278,736.99708,533.16218,735.24648Z" class="colorbdc1e4 svgShape"></path><path fill="url(#ah)" d="M461.68058,748.47448c10.5056-6.0654,27.45842-6.0654,37.89042-.0026,5.181,3.0116,7.77738,6.952,7.79318,10.9012l-.0766-25.5468c-.0134-3.9474-2.60758-7.8898-7.7882-10.9008-10.4342-6.0634-27.3872-6.0634-37.8932,0-5.2778,3.0492-7.91418,7.05-7.9028,11.0444l.06962,25.5448C453.766,755.52268,456.40258,751.52208,461.68058,748.47448Z"></path><polygon fill="#d0e3f6" points="438.55 764.285 427.894 758.092 427.968 783.639 438.626 789.83 438.55 764.285" class="colord0d4f6 svgShape"></polygon><polygon fill="#a3b9d0" points="532.893 783.639 532.821 758.092 522.091 764.285 522.167 789.83 532.893 783.639" class="colora3a9d0 svgShape"></polygon><path fill="url(#ai)" d="M458.39538,785.09488c2.03462.5858,4.1328,1.0882,6.2738,1.5056,6.6644,1.001,8.1024,8.2646,8.1114,11.321l-.0714-25.545c-.0116-3.0564-1.4496-10.3172-8.112-11.3204-2.1384-.4178-4.2388-.9202-6.274-1.5082-6.009-2.0466-16.118,2.6208-19.773,4.7372l.076,25.5446C442.27938,787.71368,452.388,783.04648,458.39538,785.09488Z"></path><path fill="url(#aj)" d="M493.11758,787.63488a8.57379,8.57379,0,0,1,3.03842-1.0344c2.145-.4174,4.22518-.9174,6.27858-1.5008,6.0402-2.0532,16.09742,2.614,19.7326,4.73l-.07618-25.5446c-3.63062-2.1138-13.68762-6.7838-19.72642-4.7302-2.0532.581-4.1354,1.0834-6.281,1.5012a8.63257,8.63257,0,0,0-3.0402,1.0344c-4.1152,2.3786-4.9906,7.8108-5.2216,10.4002l.074,25.5428C488.12938,795.44628,489,790.01348,493.11758,787.63488Z"></path><path fill="#f0f2f5" d="M436.13358,746.65468c3.5182,3.4846-4.5824,9.3234-8.2398,11.437l10.6564,6.1934c3.655-2.1164,13.764-6.7838,19.773-4.7372,2.0352.588,4.1356,1.0904,6.274,1.5082,6.7476,1.0118,8.13682,8.4506,8.10982,11.4346h15.11478c.231-2.5894,1.1064-8.0216,5.2216-10.4002a8.63257,8.63257,0,0,1,3.0402-1.0344c2.1456-.4178,4.2278-.9202,6.281-1.5012,6.0388-2.0536,16.0958,2.6164,19.72642,4.7302l10.73018-6.1934c-3.6374-2.1116-11.6726-7.9524-8.11618-11.437a25.47644,25.47644,0,0,0,2.62558-3.6418,4.21068,4.21068,0,0,1,1.822-1.764c4.1668-2.4118,13.6878-2.9752,17.9378-2.973l.04962-8.756c-5.52242.2178-17.97882-.828-19.70642-4.7478a24.8913,24.8913,0,0,0-2.5848-3.6352c-3.514-3.487,4.5844-9.326,8.2418-11.4374l-10.6564-6.191c-3.6598,2.1092-13.7686,6.781-19.7688,4.7348q-3.06957-.8784-6.27638-1.5078c-6.754-1.0166-8.14082-8.4528-8.12482-11.4306l-15.1244-.0068c-.0044,2.4662-1.0072,7.9816-5.1836,10.389a8.5788,8.5788,0,0,1-3.056,1.0464c-2.1406.4194-4.2476.9196-6.29,1.5098-6.9644,1.501-16.0866-2.6256-19.719-4.7348l-10.72618,6.191c3.633,2.1114,11.66418,7.9524,8.112,11.435a24.338,24.338,0,0,0-2.62342,3.642,4.23453,4.23453,0,0,1-1.81958,1.768c-4.17142,2.4056-13.69,2.9732-17.96462,2.9732l-.025,8.7582c5.1432-.0022,17.978.8232,19.7064,4.737A23.97911,23.97911,0,0,0,436.13358,746.65468Zm25.4726-23.7292c10.506-6.0634,27.459-6.0634,37.8932,0,10.425,6.0602,10.3822,15.8866-.1236,21.9498-10.4904,6.0608-27.45678,6.054-37.88178-.0048C451.05738,738.80548,451.116,728.98568,461.60618,722.92548Z" class="colorf0f0f5 svgShape"></path><path fill="#cee3f8" d="M427.89378,758.09168c3.6574-2.1136,11.758-7.9524,8.2398-11.437a23.97911,23.97911,0,0,1-2.5828-3.6418c-1.7284-3.9138-14.5632-4.7392-19.7064-4.737l.072,25.5426a64.13728,64.13728,0,0,1,13.9952,1.5052Z" class="colorced3f8 svgShape"></path><polygon fill="#bdd0e4" points="487.896 798.033 487.822 772.491 472.707 772.491 472.781 798.038 487.896 798.033" class="colorbdc1e4 svgShape"></polygon><path fill="url(#ak)" d="M547.16238,763.81848l-.072-25.5426c-4.25-.0022-13.771.5612-17.9378,2.973a4.21068,4.21068,0,0,0-1.822,1.764,25.47644,25.47644,0,0,1-2.62558,3.6418c-3.55642,3.4846,4.47878,9.3254,8.11618,11.437l.0226,7.3378A63.01659,63.01659,0,0,1,547.16238,763.81848Z"></path><path fill="url(#al)" d="M365.81578,548.57889c6.685-3.8582,12.738-4.22,17.11222-1.677l11.61078,6.7348c-4.3774-2.541-10.429-2.1826-17.1162,1.6764-13.28,7.6684-24.01,26.2536-23.9724,41.50939.0272,7.5854,2.7002,12.9186,7.0176,15.4292l-11.607-6.737c-4.3172-2.508-6.9896-7.841-7.018-15.42459C341.79958,574.83109,352.53178,556.24269,365.81578,548.57889Z"></path><path fill="#f6f8fb" d="M377.42258,555.31309c13.2802-7.6686,24.08442-1.5148,24.12842,13.7426.043,15.2632-10.69122,33.85539-23.97122,41.51919-13.281,7.67-24.0814,1.5094-24.1296-13.7524C353.41258,581.56669,364.14258,562.98149,377.42258,555.31309Z" class="colorf6f6fb svgShape"></path><polygon fill="#bbd0e6" points="365.695 591.801 375.91 585.903 375.909 597.698 379.27 595.758 379.271 583.964 389.483 578.067 389.484 574.186 379.27 580.082 379.269 568.289 375.909 570.23 375.91 582.023 365.696 587.921 365.695 591.801" class="colorbbc0e6 svgShape"></polygon><path d="M1440.8338,865.66168l-65.2627-37.4992c-6.5054-3.7576-32.3775-3.7576-38.8787,0l-65.2692,37.4968c-6.5034,3.756-6.5034,9.8992,0,13.655l61.114,35.1158v5.2026h31.2055a24.208,24.208,0,0,0,11.8262-2.8152l65.2649-37.4988C1447.3392,875.56288,1447.3392,869.41528,1440.8338,865.66168Z" style="mix-blend-mode:multiply" fill="url(#m)"></path><path fill="#f6f8fb" d="M1344.3722,895.26388c-6.5058,3.756-17.1488,3.756-23.6502,0l-65.267-37.5032c-6.5032-3.7558-6.5032-9.899,0-13.6528l65.2694-37.499c6.5012-3.7558,17.1444-3.7558,23.6498,0l65.2648,37.499c6.5034,3.756,6.5034,9.9014,0,13.6572Z" class="colorf6f6fb svgShape"></path><path fill="url(#n)" d="M1255.455,857.76068l65.267,37.5012c6.5014,3.756,17.1444,3.756,23.6502,0l65.2686-37.4988c2.9684-1.7154,4.5658-3.9262,4.8212-6.1848h.002v20.3074a5.27116,5.27116,0,0,1,0,1.2068v.048h-.002c-.2578,2.2522-1.8572,4.4628-4.8212,6.1782l-65.2686,37.4988c-6.5058,3.7558-17.1488,3.7558-23.6502,0l-65.267-37.501c-3.3082-1.9074-4.9232-4.4366-4.8666-6.9552l-.011-16.0322v-5.3968C1250.5774,853.40688,1252.2054,855.88168,1255.455,857.76068Z"></path><path fill="#f6f8fb" d="M1368.1135,873.73968c-6.5058,3.7558-17.1487,3.7558-23.6501,0l-65.267-37.5032c-6.5032-3.756-6.5032-9.8992,0-13.6528l65.2694-37.499c6.5012-3.756,17.1443-3.756,23.6497,0l65.2649,37.499c6.5034,3.7558,6.5034,9.9012,0,13.6572Z" class="colorf6f6fb svgShape"></path><path fill="url(#o)" d="M1279.1964,836.23648l65.267,37.5012c6.5014,3.7558,17.1443,3.7558,23.6501,0l65.2689-37.4988c2.9682-1.7154,4.5656-3.9262,4.821-6.1848h.002v20.3074a5.26942,5.26942,0,0,1,0,1.2066v.0482h-.002c-.2578,2.2522-1.857,4.4628-4.821,6.178l-65.2689,37.499c-6.5058,3.7558-17.1487,3.7558-23.6501,0l-65.267-37.5012c-3.3082-1.9074-4.9232-4.4366-4.8666-6.955l-.011-16.0324v-5.3968C1274.3188,831.88268,1275.9468,834.35728,1279.1964,836.23648Z"></path><path d="M1433.3806,822.58368l-65.2651-37.499c-6.5054-3.756-17.1485-3.756-23.6497,0l-56.1282,32.2472a10.32767,10.32767,0,0,0,4.1982,4.0904l61.114,35.1158v5.2026h25.4549a24.20866,24.20866,0,0,0,11.8263-2.8152l46.6622-26.8104C1439.2302,828.83928,1437.8288,825.15268,1433.3806,822.58368Z" style="mix-blend-mode:multiply" fill="url(#am)"></path><path fill="#ffffff" d="M1365.4846,837.37188c-6.5056,3.756-17.1486,3.756-23.6502,0l-65.2668-37.5032c-6.5034-3.7558-6.5034-9.899,0-13.6528l65.2692-37.499c6.5014-3.7558,17.1446-3.7558,23.6498,0l65.265,37.499c6.5032,3.756,6.5032,9.9014,0,13.6572Z" class="colorffffff svgShape"></path><path fill="url(#an)" d="M1276.5676,799.86868l65.2668,37.5012c6.5016,3.756,17.1446,3.756,23.6502,0l65.2688-37.4988c2.9682-1.7154,4.5658-3.9262,4.8212-6.1848h.0018v20.3074a5.24859,5.24859,0,0,1,0,1.2068v.048h-.0018c-.2578,2.2522-1.8572,4.4628-4.8212,6.1782l-65.2688,37.499c-6.5056,3.7556-17.1486,3.7556-23.6502,0l-65.2668-37.5012c-3.3084-1.9074-4.9232-4.4366-4.8666-6.9552l-.011-16.0322v-5.3968C1271.69,795.51488,1273.3178,797.98968,1276.5676,799.86868Z"></path><path d="M1377.4559,809.85988l5.9363-3.4232c-2.0251-1.168-6.5035-4.404-4.5403-6.3342a13.411,13.411,0,0,0,1.4452-2.0146c.975-2.1662,8.1045-2.6228,10.9611-2.6228l.0024-4.8456c-2.8612,0-9.9885-.4594-10.9635-2.6254a13.35689,13.35689,0,0,0-1.4474-2.0146c-1.961-1.93,2.5174-5.1638,4.5399-6.3314l-5.931-3.426c-2.0249,1.1702-7.6277,3.7544-10.974,2.62-1.132-.326-2.2969-.6056-3.4827-.8314-3.7547-.5646-4.5477-4.681-4.5477-6.3312h-8.392c0,1.6526-.7934,5.7666-4.5478,6.3312-1.1882.2258-2.3508.5054-3.4876.8314-3.3416,1.1344-8.9418-1.4526-10.964-2.62l-5.936,3.426c2.0248,1.1676,6.5006,4.404,4.54,6.3342a13.3104,13.3104,0,0,0-1.4476,2.0118c-.9728,2.166-8.1024,2.6254-10.9636,2.6254v4.8456c2.8612,0,9.9884.4566,10.966,2.6254a13.14321,13.14321,0,0,0,1.4452,2.0144c1.9632,1.9278-2.5152,5.1638-4.5374,6.3318l5.931,3.4258c2.0246-1.1678,7.627-3.7546,10.9714-2.6204,1.1318.3234,2.2968.6032,3.4852.8318,3.7494.5642,4.5452,4.6812,4.5474,6.3314h8.3898c0-1.6502.7956-5.7672,4.5504-6.3314,1.1831-.2286,2.3505-.5058,3.4849-.8342C1369.8337,806.10788,1375.4361,808.69248,1377.4559,809.85988Zm-33.7175-10.743c-5.8104-3.3544-5.8128-8.7952,0-12.1492,5.8104-3.3546,15.2316-3.3546,21.0395,0,5.813,3.354,5.8102,8.7948,0,12.1492C1358.9674,802.47128,1349.5488,802.47128,1343.7384,799.11688Z" style="mix-blend-mode:multiply" fill="#dae7f5" class="colordae0f5 svgShape"></path><path d="M343.50678,911.80208l-65.26259-37.4992c-6.5054-3.7578-32.3774-3.7578-38.8788,0l-65.269,37.4968c-6.5036,3.7558-6.5036,9.899,0,13.6548l61.114,35.1158v5.2028h31.2054a24.20878,24.20878,0,0,0,11.8264-2.8152l65.26459-37.499C350.01238,921.70308,350.01238,915.55548,343.50678,911.80208Z" style="mix-blend-mode:multiply" fill="url(#ao)"></path><path fill="#f6f8fb" d="M247.04519,941.40428c-6.5056,3.7558-17.1488,3.7558-23.65019,0l-65.26681-37.5032c-6.5034-3.756-6.5034-9.8992,0-13.6528l65.2692-37.499c6.5012-3.756,17.1444-3.756,23.6498,0l65.265,37.499c6.5032,3.7558,6.5032,9.9012,0,13.6572Z" class="colorf6f6fb svgShape"></path><path fill="url(#ap)" d="M158.12819,903.90108l65.26681,37.5012c6.50139,3.7558,17.14459,3.7558,23.65019,0l65.26881-37.4988c2.96819-1.7154,4.56559-3.9262,4.82119-6.1848h.00181v20.3074a5.27055,5.27055,0,0,1,0,1.2066v.0482h-.00181c-.258,2.2522-1.85719,4.4628-4.82119,6.178l-65.26881,37.499c-6.5056,3.7558-17.1488,3.7558-23.65019,0l-65.26681-37.5012c-3.3084-1.9074-4.9234-4.4366-4.8668-6.955l-.0108-16.0324v-5.3968C153.25059,899.54728,154.87839,902.02188,158.12819,903.90108Z"></path><path fill="#f6f8fb" d="M270.78659,919.87988c-6.50559,3.756-17.1488,3.756-23.6502,0l-65.2668-37.5032c-6.5034-3.7558-6.5034-9.899,0-13.6528l65.2692-37.499c6.50121-3.7558,17.1446-3.7558,23.6498,0l65.265,37.499c6.5032,3.756,6.5032,9.9014,0,13.6572Z" class="colorf6f6fb svgShape"></path><path fill="url(#aq)" d="M181.86959,882.37668l65.2668,37.5012c6.5014,3.756,17.14461,3.756,23.6502,0l65.26879-37.4988c2.9682-1.7154,4.56562-3.9262,4.8212-6.1848h.0018v20.3074a5.24859,5.24859,0,0,1,0,1.2068v.048h-.0018c-.2578,2.2522-1.8572,4.4628-4.8212,6.1782l-65.26879,37.4988c-6.50559,3.7558-17.1488,3.7558-23.6502,0l-65.2668-37.501c-3.3084-1.9074-4.9232-4.4368-4.86659-6.9552l-.011-16.0322v-5.3968C176.992,878.02288,178.61979,880.49768,181.86959,882.37668Z"></path><path fill="#dae7f5" d="M257.63759,873.34788l6.4196-6.056q6.1626-5.7588,9.106-7.4634a13.79433,13.79433,0,0,1,12.99081-.026q2.86678,1.6542,2.82839,3.74-.04259,2.0802-3.027,3.806a89.29349,89.29349,0,0,1-12.7288,5.234l-10.48759,3.711a105.2367,105.2367,0,0,0-12.50381,5.145l-1.73719-1.004A76.24837,76.24837,0,0,0,257.63759,873.34788Zm-11.1708,14.4308c-.017,1.4232-.89679,2.6352-2.6284,3.635a13.93031,13.93031,0,0,1-12.6-.0108c-1.7408-1.0048-2.60939-2.2186-2.6168-3.6386q-.0042-2.1336,2.59641-3.635a13.94479,13.94479,0,0,1,12.64-.0124C245.61759,885.13768,246.49239,886.35868,246.46679,887.77868Z" class="colordae0f5 svgShape"></path><path fill="#e8eff7" d="M503.62618,428.93209c4.882-2.8178,8.8754-9.7346,8.8754-15.374v-67.1892c0-5.6376-3.9934-7.942-8.8754-5.1264L359.792,424.28589v87.6892Z" class="colore8ecf7 svgShape"></path><path fill="#e33cc5" d="M293.25119,550.39249l66.54081-38.4174v-87.6892l-66.54081,38.417c-4.8816,2.8196-8.87719,9.7366-8.87719,15.3742l.00019,67.195C284.37379,550.90809,288.36959,553.21209,293.25119,550.39249Z" class="colore33c5c svgShape"></path><path d="M319.67839,495.12869c-2.4676-.4574-4.1336-2.9038-4.1328-6.822-.002-5.9514,3.8106-12.9718,8.51479-15.6892,4.6972-2.7114,8.51362-.0842,8.5112,5.8642a20.41092,20.41092,0,0,1-4.1338,11.5846c7.1958-1.3548,11.774,3.1594,11.7704,9.0006-1.2276.6986-16.1504,9.3194-16.1504,9.3194s-14.918,8.6174-16.154,9.3312C307.90239,511.88009,312.48179,502.07689,319.67839,495.12869Z" style="mix-blend-mode:multiply" fill="#d1e2f3" class="colord1d7f3 svgShape"></path><path fill="#dae7f5" d="M503.62618,341.24249c2.4116-1.3902,4.6046-1.5288,6.2076-.6362l-6.9636-4.018-.0058.0078c-1.6226-1.039-3.90338-.9648-6.4322.496L352.601,420.13329l7.191,4.1526Z" class="colordae0f5 svgShape"></path><path fill="url(#ar)" d="M284.374,545.27229v-67.1952c0-5.6376,3.99559-12.5546,8.87719-15.3742l66.54081-38.417-7.191-4.1526-66.544,38.4188c-4.882,2.8178-8.87541,9.7366-8.87541,15.3742v67.1892c0,2.9528,1.10141,4.9778,2.84141,5.8428l6.747,3.8968C285.28979,549.87669,284.374,547.95929,284.374,545.27229Z"></path><polygon fill="url(#p)" points="374.099 454.048 489.841 387.225 489.841 377.946 374.099 444.769 374.099 454.048"></polygon><polygon fill="url(#as)" points="374.099 478.036 450.434 433.963 450.434 424.684 374.099 468.757 374.099 478.036"></polygon><path fill="#f6f8fb" d="M442.33078,475.81249c0-9.4082,6.66722-20.9508,14.81422-25.6568l110.71618-63.9186c8.147-4.6994,14.811-.8542,14.811,8.5538v129.1216c0,9.4114-6.664,20.9542-14.811,25.6568L457.145,613.48888c-8.147,4.7056-14.81422.86-14.81422-8.545Z" class="colorf6f6fb svgShape"></path><path fill="#5a52cc" d="M457.145,450.15569l110.71618-63.9186c8.147-4.6994,14.811-.8542,14.811,8.5538v15.603l-140.3414,81.0262v-15.6076C442.33078,466.40429,448.998,454.86169,457.145,450.15569Z" class="color5652cc svgShape"></path><path fill="#662e94" d="M555.20438,404.05169a6.83318,6.83318,0,0,0-.0928-1.0084c3.0958-1.492,5.537.0596,5.537,3.7104a13.333,13.333,0,0,1-6.0318,10.4474c-3.0164,1.7414-5.4934.6074-5.9392-2.4742.1658-.08.3256-.1304.495-.2282A13.332,13.332,0,0,0,555.20438,404.05169Z" class="color362e94 svgShape"></path><path fill="#ffffff" d="M554.61678,403.27149c.1694-.098.3288-.1484.4948-.2282a6.83318,6.83318,0,0,1,.0928,1.0084,13.332,13.332,0,0,1-6.0318,10.447c-.1694.0978-.3292.1482-.495.2282a6.80985,6.80985,0,0,1-.09258-1.0084A13.33146,13.33146,0,0,1,554.61678,403.27149Z" class="colorffffff svgShape"></path><path fill="#662e94" d="M470.97378,452.68209a6.83868,6.83868,0,0,0-.09278-1.0084c3.09578-1.492,5.53678.0598,5.53678,3.7106a13.33132,13.33132,0,0,1-6.0316,10.4472c-3.0164,1.7414-5.4934.6074-5.939-2.4738.166-.0802.3254-.1306.49482-.2282A13.33193,13.33193,0,0,0,470.97378,452.68209Z" class="color362e94 svgShape"></path><path fill="#ffffff" d="M470.38618,451.90189c.1694-.0976.32882-.148.49482-.2282a6.83868,6.83868,0,0,1,.09278,1.0084,13.33193,13.33193,0,0,1-6.03178,10.4474c-.16942.0976-.32882.148-.49482.2282a6.83589,6.83589,0,0,1-.0928-1.0084A13.33159,13.33159,0,0,1,470.38618,451.90189Z" class="colorffffff svgShape"></path><path fill="#ff6ae4" d="M501.60918 476.88129v66.3152l-10.8294 6.2524v-53.0532l-.986.569-8.03978 21.3168-11.32162 6.5364 14.769-38.4636zM546.24558 451.11049v41.8736l9.3542-5.4008v11.3688l-9.3542 5.401v13.0724l-10.8294 6.2524v-13.0724l-28.5514 16.484v-10.9906l22.4808-55.2312zM518.186 509.18429l17.23018-9.948v-31.0724l-.9836.5678z" class="colorff826a svgShape"></path><path fill="#d1e2f3" d="M527.05278 535.47349c4.4958-2.596 7.232-.9576 7.232 4.2336v4.2902a14.32633 14.32633 0 01-7.232 12.5848c-4.4934 2.5944-7.23178 1.1036-7.23178-4.2342v-4.29A14.50364 14.50364 0 01527.05278 535.47349zm-3.9162 15.1364c0 2.9274 1.25642 4.0872 3.9162 2.5514a7.84416 7.84416 0 003.9186-7.0752v-4.639c0-2.8718-1.4572-3.9742-3.9186-2.553a8.20191 8.20191 0 00-3.9162 7.0764zM542.15858 532.66849c3.4658-2.001 5.625-1.0162 6.27842 1.8836l-3.11262 2.725c-.22638-1.608-1.2052-2.493-3.1148-1.3906a7.524 7.524 0 00-3.3644 6.2912c0 2.6104 1.33 3.5808 3.3644 2.4062a6.504 6.504 0 003.1148-4.9578l3.11262-.8984a13.0499 13.0499 0 01-6.27842 9.1332c-3.616 2.0876-6.477.6092-6.477-3.8566A13.96026 13.96026 0 01542.15858 532.66849zM552.12218 527.32129v-4.4662l3.1634-1.826v4.4658l3.4152-1.9718v3.0742l-3.4152 1.9718v7.3642c0 .5786.2516.724.70442.4624l2.00878-1.1596v3.074l-3.4174 1.9732c-1.4038.8102-2.4592.2598-2.4592-1.364v-8.5238l-3.1656 1.8276v-3.0744z" class="colord1d7f3 svgShape"></path><path fill="url(#at)" d="M442.33078,491.42009V604.94328c0,4.4842,1.52822,7.6844,3.9986,9.3174l-7.3882-4.2694c-2.9034-1.4436-4.7416-4.8226-4.7416-9.7506V486.72549Z"></path><path fill="url(#au)" d="M434.19958,471.11969c0-9.4082,6.6648-20.9542,14.812-25.6564l110.7158-63.9192c4.22-2.4376,8.0264-2.5614,10.73462-.8278l.00978-.0134,7.749,4.4718c-2.6754-1.4896-6.3344-1.2582-10.3596,1.0624L457.145,450.15569c-8.147,4.7062-14.81422,16.2482-14.81422,25.6572v15.6072l-8.1312-4.6946Z"></path></g></g></g></svg>