<svg xmlns="http://www.w3.org/2000/svg" xmlns:xlink="http://www.w3.org/1999/xlink" viewBox="0 0 1600 1200" id="Searchfornewideas,technologies,technologicalinnovations"><defs><linearGradient id="a" x1="506.42" x2="852.2" y1="419.9" y2="419.9" gradientUnits="userSpaceOnUse"><stop offset="0" stop-color="#cfe0f1" class="stopColorcfd5f1 svgShape"></stop><stop offset=".28" stop-color="#e1ebf6" class="stopColore1e5f6 svgShape"></stop><stop offset=".72" stop-color="#f7fafd" class="stopColorf7f8fd svgShape"></stop><stop offset="1" stop-color="#ffffff" class="stopColorffffff svgShape"></stop></linearGradient><linearGradient id="m" x1="357.73" x2="493.31" y1="452.24" y2="452.24" gradientUnits="userSpaceOnUse"><stop offset="0" stop-color="#cfe0f1" class="stopColorcfd5f1 svgShape"></stop><stop offset=".01" stop-color="#d0e0f1" class="stopColord0d5f1 svgShape"></stop><stop offset=".39" stop-color="#eaf1f9" class="stopColoreaecf9 svgShape"></stop><stop offset=".73" stop-color="#f9fbfd" class="stopColorf9fafd svgShape"></stop><stop offset="1" stop-color="#ffffff" class="stopColorffffff svgShape"></stop></linearGradient><linearGradient id="n" x1="1243.84" x2="1515.55" y1="398.73" y2="398.73" xlink:href="#a"></linearGradient><linearGradient id="o" x1="1364.63" x2="1474.54" y1="427.6" y2="427.6" xlink:href="#a"></linearGradient><linearGradient id="p" x1="409.2" x2="462.05" y1="594.44" y2="594.44" xlink:href="#a"></linearGradient><linearGradient id="q" x1="561.98" x2="718.34" y1="1008.35" y2="1008.35" xlink:href="#a"></linearGradient><linearGradient id="r" x1="912.39" x2="912.39" y1="1082.97" y2="764.93" gradientUnits="userSpaceOnUse"><stop offset="0" stop-color="#ffffff" class="stopColorffffff svgShape"></stop><stop offset=".02" stop-color="#f8fbff" class="stopColorfff9f8 svgShape"></stop><stop offset=".17" stop-color="#c6e2ff" class="stopColorffcfc6 svgShape"></stop><stop offset=".31" stop-color="#9eceff" class="stopColorffae9e svgShape"></stop><stop offset=".44" stop-color="#81c0ff" class="stopColorff9681 svgShape"></stop><stop offset=".55" stop-color="#ff70e5" class="stopColorff8770 svgShape"></stop><stop offset=".63" stop-color="#ff6ae4" class="stopColorff826a svgShape"></stop></linearGradient><linearGradient id="b" x1="1226.54" x2="1226.54" y1="1302.62" y2="749.52" gradientUnits="userSpaceOnUse"><stop offset=".47" stop-color="#ffffff" class="stopColorffffff svgShape"></stop><stop offset=".83" stop-color="#dfe9f4" class="stopColordfe4f4 svgShape"></stop></linearGradient><linearGradient id="c" x1="1084.49" x2="1084.49" y1="1302.62" y2="749.52" gradientUnits="userSpaceOnUse"><stop offset=".47" stop-color="#ffffff" class="stopColorffffff svgShape"></stop><stop offset=".89" stop-color="#e9f0f7" class="stopColore9edf7 svgShape"></stop></linearGradient><linearGradient id="s" x1="315.3" x2="315.3" y1="1269.6" y2="670.39" xlink:href="#b"></linearGradient><linearGradient id="t" x1="161.4" x2="161.4" y1="1269.6" y2="670.39" xlink:href="#c"></linearGradient><linearGradient id="u" x1="469.93" x2="469.93" y1="1264.24" y2="874.13" xlink:href="#b"></linearGradient><linearGradient id="v" x1="368.74" x2="368.74" y1="1264.24" y2="874.13" xlink:href="#c"></linearGradient><linearGradient id="w" x1="216.78" x2="308.79" y1="668.06" y2="668.06" gradientUnits="userSpaceOnUse"><stop offset=".32" stop-color="#c4d4e4" class="stopColorc4c9e4 svgShape"></stop><stop offset="1" stop-color="#ffffff" class="stopColorffffff svgShape"></stop></linearGradient><linearGradient id="d" x1="198.38" x2="281.89" y1="660.16" y2="660.16" gradientUnits="userSpaceOnUse"><stop offset="0" stop-color="#847cfb" class="stopColor807cfb svgShape"></stop><stop offset=".01" stop-color="#837bfa" class="stopColor7f7bfa svgShape"></stop><stop offset=".45" stop-color="#625ad1" class="stopColor5e5ad1 svgShape"></stop><stop offset=".79" stop-color="#4d46b8" class="stopColor4a46b8 svgShape"></stop><stop offset="1" stop-color="#7c3eaf" class="stopColor423eaf svgShape"></stop></linearGradient><linearGradient id="x" x1="198.38" x2="281.89" y1="668.13" y2="668.13" gradientUnits="userSpaceOnUse"><stop offset="0" stop-color="#d8e4f0" class="stopColord8def0 svgShape"></stop><stop offset=".55" stop-color="#c6d6e7" class="stopColorc6cce7 svgShape"></stop><stop offset="1" stop-color="#bdd0e3" class="stopColorbdc3e3 svgShape"></stop></linearGradient><linearGradient id="y" x1="198.38" x2="281.89" y1="676.1" y2="676.1" xlink:href="#d"></linearGradient><linearGradient id="e" x1="983.53" x2="1271.06" y1="521.8" y2="521.8" gradientUnits="userSpaceOnUse"><stop offset="0" stop-color="#c6d6e7" class="stopColorc6cbe7 svgShape"></stop><stop offset=".18" stop-color="#dfe8f1" class="stopColordfe1f1 svgShape"></stop><stop offset=".37" stop-color="#f1f5f9" class="stopColorf1f2f9 svgShape"></stop><stop offset=".57" stop-color="#fbfcfe" class="stopColorfbfcfe svgShape"></stop><stop offset=".79" stop-color="#ffffff" class="stopColorffffff svgShape"></stop></linearGradient><linearGradient id="f" x1="932.52" x2="1037.91" y1="496.39" y2="496.39" gradientUnits="userSpaceOnUse"><stop offset="0" stop-color="#5c55c6" class="stopColor5555c6 svgShape"></stop><stop offset="1" stop-color="#64318f" class="stopColor34318f svgShape"></stop></linearGradient><linearGradient id="g" x1="929.36" x2="1041.14" y1="496.52" y2="496.52" gradientUnits="userSpaceOnUse"><stop offset=".03" stop-color="#867ff4" class="stopColor7f7ff4 svgShape"></stop><stop offset="1" stop-color="#7a41aa" class="stopColor4141aa svgShape"></stop></linearGradient><linearGradient id="i" x1="928.93" x2="1041.5" y1="460.66" y2="460.66" gradientUnits="userSpaceOnUse"><stop offset="0" stop-color="#ffffff" class="stopColorffffff svgShape"></stop><stop offset=".32" stop-color="#ecf2f9" class="stopColoreceff9 svgShape"></stop><stop offset=".66" stop-color="#e0eaf5" class="stopColore0e4f5 svgShape"></stop><stop offset="1" stop-color="#dce8f4" class="stopColordce1f4 svgShape"></stop></linearGradient><linearGradient id="j" x1="1006.32" x2="969.95" y1="440.84" y2="377.85" gradientUnits="userSpaceOnUse"><stop offset="0"></stop><stop offset=".07" stop-color="#1a1d20" class="stopColor1a1b20 svgShape"></stop><stop offset=".2" stop-color="#444b54" class="stopColor444654 svgShape"></stop><stop offset=".34" stop-color="#766981" class="stopColor696c81 svgShape"></stop><stop offset=".47" stop-color="#8886a5" class="stopColor868aa5 svgShape"></stop><stop offset=".6" stop-color="#9f9dc2" class="stopColor9da2c2 svgShape"></stop><stop offset=".74" stop-color="#aec2d6" class="stopColoraeb3d6 svgShape"></stop><stop offset=".87" stop-color="#b8cde2" class="stopColorb8bde2 svgShape"></stop><stop offset="1" stop-color="#bbd0e6" class="stopColorbbc0e6 svgShape"></stop></linearGradient><linearGradient id="z" x1="572.98" x2="860.5" y1="758.84" y2="758.84" xlink:href="#e"></linearGradient><linearGradient id="A" x1="521.97" x2="627.36" y1="733.43" y2="733.43" xlink:href="#f"></linearGradient><linearGradient id="B" x1="518.81" x2="630.59" y1="733.56" y2="733.56" xlink:href="#g"></linearGradient><linearGradient id="D" x1="518.38" x2="630.94" y1="697.69" y2="697.69" xlink:href="#i"></linearGradient><linearGradient id="E" x1="595.77" x2="559.4" y1="677.87" y2="614.88" xlink:href="#j"></linearGradient><linearGradient id="F" x1="777.92" x2="1122.51" y1="636.66" y2="636.66" xlink:href="#e"></linearGradient><linearGradient id="G" x1="716.79" x2="843.09" y1="606.21" y2="606.21" xlink:href="#f"></linearGradient><linearGradient id="H" x1="713" x2="846.97" y1="606.36" y2="606.36" xlink:href="#g"></linearGradient><linearGradient id="J" x1="668.05" x2="852.2" y1="424.91" y2="424.91" gradientUnits="userSpaceOnUse"><stop offset="0" stop-color="#e8eff7" class="stopColore8ecf7 svgShape"></stop><stop offset=".05" stop-color="#eaf1f8" class="stopColoreaeef8 svgShape"></stop><stop offset=".58" stop-color="#fafbfd" class="stopColorfafbfd svgShape"></stop><stop offset="1" stop-color="#ffffff" class="stopColorffffff svgShape"></stop></linearGradient><linearGradient id="K" x1="712.49" x2="847.39" y1="563.37" y2="563.37" xlink:href="#i"></linearGradient><linearGradient id="L" x1="805.23" x2="761.64" y1="539.63" y2="464.13" gradientUnits="userSpaceOnUse"><stop offset="0"></stop><stop offset=".12" stop-color="#192739" class="stopColor392719 svgShape"></stop><stop offset=".24" stop-color="#2f4a6d" class="stopColor6d4b2f svgShape"></stop><stop offset=".37" stop-color="#9a428a" class="stopColor9a6a42 svgShape"></stop><stop offset=".5" stop-color="#be51aa" class="stopColorbe8351 svgShape"></stop><stop offset=".62" stop-color="#db5dc4" class="stopColordb965d svgShape"></stop><stop offset=".75" stop-color="#66aaef" class="stopColorefa466 svgShape"></stop><stop offset=".88" stop-color="#6bb3fb" class="stopColorfbac6b svgShape"></stop><stop offset="1" stop-color="#6db6ff" class="stopColorffaf6d svgShape"></stop></linearGradient><linearGradient id="k" x1="1148.28" x2="1209.91" y1="767.11" y2="767.11" gradientTransform="translate(-228.07)" gradientUnits="userSpaceOnUse"><stop offset="0" stop-color="#c4d6e8" class="stopColorc4cae8 svgShape"></stop><stop offset=".09" stop-color="#ceddec" class="stopColorced3ec svgShape"></stop><stop offset=".41" stop-color="#e9eff6" class="stopColore9ebf6 svgShape"></stop><stop offset=".69" stop-color="#f9fbfd" class="stopColorf9fafd svgShape"></stop><stop offset=".9" stop-color="#ffffff" class="stopColorffffff svgShape"></stop></linearGradient><linearGradient id="M" x1="1134.24" x2="1195.86" y1="750.75" y2="750.75" gradientTransform="translate(-186.01)" xlink:href="#k"></linearGradient><linearGradient id="l" x1="-252.37" x2="-229.65" y1="748.58" y2="748.58" gradientTransform="translate(1184.2)" gradientUnits="userSpaceOnUse"><stop offset="0" stop-color="#7c3eaf" class="stopColor423eaf svgShape"></stop><stop offset=".3" stop-color="#7035a0" class="stopColor3a35a0 svgShape"></stop><stop offset=".89" stop-color="#1e4577" class="stopColor241e77 svgShape"></stop><stop offset="1" stop-color="#193f6f" class="stopColor1f196f svgShape"></stop></linearGradient><linearGradient id="N" x1="-280.46" x2="-257.74" y1="764.93" y2="764.93" xlink:href="#l"></linearGradient><linearGradient id="O" x1="-270.59" x2="-231.54" y1="710.66" y2="710.66" gradientTransform="translate(1184.2)" gradientUnits="userSpaceOnUse"><stop offset="0" stop-color="#7c3eaf" class="stopColor423eaf svgShape"></stop><stop offset=".3" stop-color="#683097" class="stopColor353097 svgShape"></stop><stop offset=".75" stop-color="#1f477a" class="stopColor251f7a svgShape"></stop><stop offset="1" stop-color="#193f6f" class="stopColor1f196f svgShape"></stop></linearGradient><linearGradient id="P" x1="-272.1" x2="-231.31" y1="640.57" y2="640.57" gradientTransform="translate(1184.2)" gradientUnits="userSpaceOnUse"><stop offset="0" stop-color="#6db6ff" class="stopColorffaf6d svgShape"></stop><stop offset=".42" stop-color="#ff6fe5" class="stopColorff8e6f svgShape"></stop><stop offset="1" stop-color="#ff5ae1" class="stopColorff5a72 svgShape"></stop></linearGradient><linearGradient id="Q" x1="2329.64" x2="2293.42" y1="655.03" y2="642.29" gradientTransform="matrix(-1 0 0 1 3224.05 0)" gradientUnits="userSpaceOnUse"><stop offset="0" stop-color="#6db6ff" class="stopColorffaf6d svgShape"></stop><stop offset="1" stop-color="#ff6ae4" class="stopColorff826a svgShape"></stop></linearGradient><radialGradient id="h" cx="939.33" cy="343.4" r="177.27" gradientUnits="userSpaceOnUse"><stop offset="0" stop-color="#e8eff7" class="stopColore8ecf7 svgShape"></stop><stop offset=".39" stop-color="#e5edf6" class="stopColore5e9f6 svgShape"></stop><stop offset=".63" stop-color="#dde8f3" class="stopColordde1f3 svgShape"></stop><stop offset=".83" stop-color="#cfdeed" class="stopColorcfd3ed svgShape"></stop><stop offset="1" stop-color="#bbd0e6" class="stopColorbbc0e6 svgShape"></stop></radialGradient><radialGradient id="C" cx="528.78" cy="580.43" r="177.27" xlink:href="#h"></radialGradient><radialGradient id="I" cx="724.95" cy="422.85" r="212.45" gradientUnits="userSpaceOnUse"><stop offset="0" stop-color="#6db6ff" class="stopColorffaf6d svgShape"></stop><stop offset=".32" stop-color="#6db6ff" class="stopColorffac6d svgShape"></stop><stop offset=".51" stop-color="#6eb6ff" class="stopColorffa46e svgShape"></stop><stop offset=".67" stop-color="#ff6ee5" class="stopColorff966e svgShape"></stop><stop offset=".82" stop-color="#ff70e5" class="stopColorff8170 svgShape"></stop><stop offset=".95" stop-color="#ff67e3" class="stopColorff6771 svgShape"></stop><stop offset="1" stop-color="#ff5ae1" class="stopColorff5a72 svgShape"></stop></radialGradient></defs><g style="isolation:isolate" fill="#f4f6f8" class="color000000 svgShape"><g fill="#f4f6f8" class="color000000 svgShape"><g fill="#f4f6f8" class="color000000 svgShape"><polygon points="717.95 342.37 506.42 342.37 638.65 421.07 506.42 497.44 717.95 497.44 852.2 419.93 717.95 342.37" style="mix-blend-mode:multiply" fill="url(#a)"></polygon><polygon points="453.13 429.04 357.73 429.04 397.3 452.59 357.73 475.45 453.13 475.45 493.31 452.25 453.13 429.04" style="mix-blend-mode:multiply" fill="url(#m)"></polygon><polygon points="1410.06 331.51 1243.84 331.51 1347.75 399.75 1243.84 465.95 1410.06 465.95 1515.55 398.75 1410.06 331.51" style="mix-blend-mode:multiply" fill="url(#n)"></polygon><polygon fill="#b9cee4" points="506.42 497.44 638.65 421.07 638.65 183.9 506.42 260.25 506.42 497.44" class="colorb9bee4 svgShape"></polygon><polygon fill="#cce1f6" points="506.42 497.44 374.16 421.07 374.16 183.9 506.42 260.25 506.42 497.44" class="colorccd1f6 svgShape"></polygon><polygon fill="#f4f6f8" points="506.42 260.25 374.16 183.9 506.42 107.58 638.65 183.9 506.42 260.25" class="colorf4f4f9 svgShape"></polygon><polygon fill="#b9cee4" points="1243.84 465.95 1344.9 407.58 1344.9 226.33 1243.84 284.67 1243.84 465.95" class="colorb9bee4 svgShape"></polygon><polygon fill="#cce1f6" points="1243.84 465.95 1142.77 407.58 1142.77 226.33 1243.84 284.67 1243.84 465.95" class="colorccd1f6 svgShape"></polygon><polygon fill="#f4f6f8" points="1243.84 284.67 1142.77 226.33 1243.84 168 1344.9 226.33 1243.84 284.67" class="colorf4f4f9 svgShape"></polygon><polygon fill="#b9cee4" points="357.73 475.45 397.3 452.59 397.3 387.2 357.73 410.04 357.73 475.45" class="colorb9bee4 svgShape"></polygon><polygon fill="#cce1f6" points="357.73 475.45 318.15 452.59 318.15 387.2 357.73 410.04 357.73 475.45" class="colorccd1f6 svgShape"></polygon><polygon fill="#f4f6f8" points="357.73 410.04 318.15 387.2 357.73 364.36 397.3 387.2 357.73 410.04" class="colorf4f4f9 svgShape"></polygon><polygon points="1431.87 402.95 1364.63 402.95 1406.66 427.97 1364.63 452.24 1431.87 452.24 1474.54 427.6 1431.87 402.95" style="mix-blend-mode:multiply" fill="url(#o)"></polygon><polygon fill="#6822a2" points="1364.63 452.24 1406.66 427.97 1406.66 378.69 1364.63 402.95 1364.63 452.24" class="color423eaf svgShape"></polygon><polygon fill="#5046e4" points="1364.63 452.24 1322.6 427.97 1322.6 378.69 1364.63 402.95 1364.63 452.24" class="color5652cc svgShape"></polygon><polygon fill="#857dfb" points="1364.63 402.95 1322.6 378.69 1364.63 354.43 1406.66 378.69 1364.63 402.95" class="color807dfb svgShape"></polygon><polygon points="441.53 582.59 409.2 582.59 429.41 594.62 409.2 606.29 441.53 606.29 462.05 594.44 441.53 582.59" style="mix-blend-mode:multiply" fill="url(#p)"></polygon><polygon fill="#a50b89" points="409.2 606.29 429.41 594.62 429.41 570.92 409.2 582.59 409.2 606.29" class="colore33c5c svgShape"></polygon><polygon fill="#ff5ae1" points="409.2 606.29 388.98 594.62 388.98 570.92 409.2 582.59 409.2 606.29" class="colorff5a72 svgShape"></polygon><polygon fill="#6db6ff" points="409.2 582.59 388.98 570.92 409.2 559.25 429.41 570.92 409.2 582.59" class="colorffaf6d svgShape"></polygon><polygon points="657.62 973.29 561.98 973.29 621.77 1008.88 561.98 1043.41 657.62 1043.41 718.34 1008.36 657.62 973.29" style="mix-blend-mode:multiply" fill="url(#q)"></polygon><polygon fill="#bbd0e6" points="561.98 1043.41 621.77 1008.88 621.77 938.77 561.98 973.29 561.98 1043.41" class="colorbbc0e6 svgShape"></polygon><polygon fill="#cee3f8" points="561.98 1043.41 502.19 1008.88 502.19 938.77 561.98 973.29 561.98 1043.41" class="colorced3f8 svgShape"></polygon><polygon fill="#f4f6f8" points="561.98 973.29 502.19 938.77 561.98 904.26 621.77 938.77 561.98 973.29" class="colorf4f4f9 svgShape"></polygon><path fill="url(#r)" d="M917.61,1083l-15.65-9q-.08,0,0-.09l3-1.71a.18.18,0,0,1,.16,0l15.65,9s0,.06,0,.09l-3,1.72A.2.2,0,0,1,917.61,1083Zm-31.3-18.07-15.64-9s0-.06,0-.09l3-1.71a.14.14,0,0,1,.15,0l15.65,9s0,.06,0,.09l-3,1.72A.22.22,0,0,1,886.31,1064.88ZM855,1046.81l-15.65-9s0-.07,0-.09l3-1.72a.15.15,0,0,1,.16,0l15.65,9c.05,0,0,.07,0,.09l-3,1.72A.14.14,0,0,1,855,1046.81Zm-31.3-18.07-15.64-9q-.08,0,0-.09l3-1.72a.15.15,0,0,1,.16,0l15.64,9s0,.06,0,.09l-3,1.71A.15.15,0,0,1,823.72,1028.74Zm-31.29-18.07-15.65-9s0-.06,0-.09l3-1.72a.22.22,0,0,1,.16,0l15.65,9c.05,0,0,.06,0,.09l-3,1.71A.15.15,0,0,1,792.43,1010.67ZM775,992.61l-3-1.72a.05.05,0,0,1,0-.09l15.64-9a.18.18,0,0,1,.16,0l3,1.71s0,.07,0,.09l-15.64,9A.29.29,0,0,1,775,992.61Zm31.29-18.07-3-1.72a.06.06,0,0,1,0-.09l15.65-9a.16.16,0,0,1,.15,0l3,1.72s0,.06,0,.09l-15.65,9A.18.18,0,0,1,806.32,974.54Zm31.3-18.07-3-1.72s0-.07,0-.09l15.65-9a.18.18,0,0,1,.16,0l3,1.72c.05,0,.05.06,0,.09l-15.65,9A.16.16,0,0,1,837.62,956.47Zm31.29-18.07-3-1.71s0-.08,0-.09l15.65-9a.19.19,0,0,1,.15,0l3,1.72s0,.06,0,.09l-15.65,9A.18.18,0,0,1,868.91,938.4Zm31.3-18.06-3-1.72a.06.06,0,0,1,0-.09l15.65-9a.18.18,0,0,1,.16,0l3,1.71s0,.06,0,.09l-15.65,9A.26.26,0,0,1,900.21,920.34Zm31.29-18.07-3-1.72a.05.05,0,0,1,0-.09l15.64-9a.18.18,0,0,1,.16,0l3,1.71c.05,0,.05.07,0,.09l-15.64,9A.22.22,0,0,1,931.5,902.27Zm31.29-18.07-3-1.72s0-.07,0-.09l15.65-9a.16.16,0,0,1,.15,0l3,1.72s0,.06,0,.09l-15.65,9A.18.18,0,0,1,962.79,884.2Zm31.3-18.07-3-1.71a.05.05,0,0,1,0-.09l15.64-9a.18.18,0,0,1,.16,0l3,1.72q.08,0,0,.09l-15.65,9A.16.16,0,0,1,994.09,866.13Zm31.29-18.06-3-1.72a.06.06,0,0,1,0-.09l15.65-9a.26.26,0,0,1,.15,0l3,1.72s0,.06,0,.09l-15.65,9A.29.29,0,0,1,1025.38,848.07ZM1049.57,830l-15.64-9s0-.06,0-.09l3-1.71a.15.15,0,0,1,.16,0l15.64,9s0,.06,0,.09l-3,1.72A.22.22,0,0,1,1049.57,830Zm-31.29-18.07-15.65-9s0-.06,0-.09l3-1.71a.15.15,0,0,1,.16,0l15.65,9c.05,0,0,.07,0,.09l-3,1.72A.15.15,0,0,1,1018.28,811.93ZM987,793.86l-15.64-9c-.05,0-.05-.07,0-.09l3-1.72a.15.15,0,0,1,.16,0l15.64,9s0,.07,0,.09l-3,1.72A.15.15,0,0,1,987,793.86Zm-31.29-18.07-15.65-9s0-.06,0-.09l3-1.72a.2.2,0,0,1,.15,0l15.65,9s0,.06,0,.09l-3,1.71A.15.15,0,0,1,955.69,775.79Z"></path><polygon fill="url(#b)" points="1297.58 749.52 1155.51 831.54 1155.51 1059 1297.58 1059 1297.58 749.52"></polygon><polygon fill="#f1f5f9" points="1155.51 831.54 1013.46 749.52 1155.51 667.51 1297.58 749.52 1155.51 831.54" class="colorf1f3f9 svgShape"></polygon><polygon fill="url(#c)" points="1155.51 831.54 1013.46 749.52 1013.46 1059 1155.51 1059 1155.51 831.54"></polygon><polygon fill="url(#s)" points="392.25 670.38 238.34 759.24 238.34 1005.67 392.25 1005.67 392.25 670.38"></polygon><polygon fill="#f1f5f9" points="238.34 759.24 84.45 670.38 238.34 581.53 392.25 670.38 238.34 759.24" class="colorf1f3f9 svgShape"></polygon><polygon fill="url(#t)" points="238.34 759.24 84.45 670.38 84.45 1005.67 238.34 1005.67 238.34 759.24"></polygon><polygon fill="url(#u)" points="520.52 874.13 419.33 932.54 419.33 1092.41 520.52 1092.41 520.52 874.13"></polygon><polygon fill="#ffffff" points="419.33 932.54 318.15 874.13 419.33 815.71 520.52 874.13 419.33 932.54" class="colorffffff svgShape"></polygon><polygon fill="url(#v)" points="419.33 932.54 318.15 874.13 318.15 1092.41 419.33 1092.41 419.33 932.54"></polygon><path d="M296.47,651c-8.73-5-20.33-7.36-31.71-7H238.35v2.93A47.13,47.13,0,0,0,228.9,651c-16.24,9.45-16.15,24.75.19,34.2a47.39,47.39,0,0,0,9.26,4v3.06h30c10.31-.17,20.52-2.51,28.35-7.06C312.91,675.7,312.83,660.4,296.47,651Z" style="mix-blend-mode:multiply" fill="url(#w)"></path><path fill="url(#d)" d="M210.7,669.21c-8.23-4.75-12.35-11-12.32-17.22l0-8c0,6.23,4.09,12.47,12.32,17.22,16.36,9.44,42.78,9.44,59,0,8.08-4.69,12.12-10.83,12.14-17l0,8c0,6.15-4.06,12.29-12.13,17C253.48,678.66,227.05,678.66,210.7,669.21Z"></path><path fill="url(#x)" d="M210.7,677.18c-8.23-4.75-12.35-11-12.32-17.21l0-8c0,6.23,4.09,12.47,12.32,17.22,16.36,9.44,42.78,9.44,59,0,8.08-4.69,12.12-10.83,12.14-17l0,8c0,6.14-4.06,12.28-12.13,17C253.48,686.63,227.05,686.63,210.7,677.18Z"></path><path fill="url(#y)" d="M210.7,685.15c-8.23-4.75-12.35-11-12.32-17.21l0-8c0,6.23,4.09,12.47,12.32,17.22,16.36,9.44,42.78,9.44,59,0,8.08-4.7,12.12-10.84,12.14-17l0,8c0,6.15-4.06,12.28-12.13,17C253.48,694.6,227.05,694.6,210.7,685.15Z"></path><path fill="#ffffff" d="M210.73,661.24c-16.35-9.44-16.44-24.75-.2-34.19s42.68-9.44,59,0,16.44,24.75.19,34.19S227.09,670.68,210.73,661.24Z" class="colorffffff svgShape"></path><polygon fill="#bbd0e6" points="263.5 641.02 230.07 642.72 231.11 635.21 221.88 635.21 219.37 648.9 263.5 646.35 263.5 641.02" class="colorbbc0e6 svgShape"></polygon><path d="M535.09 204.71l7.34-4.24c-2.51-1.44-8-5.44-5.62-7.83h0a17.52 17.52 0 001.79-2.5h0c1.21-2.68 10-3.25 13.55-3.25v-6c-3.53 0-12.34-.57-13.55-3.25h0a17.23 17.23 0 00-1.79-2.49h0c-2.42-2.39 3.11-6.39 5.61-7.83l-7.33-4.24c-2.5 1.45-9.43 4.64-13.57 3.24h0c-1.41-.4-2.85-.75-4.31-1-4.64-.7-5.62-5.79-5.62-7.83H501.22c0 2.05-1 7.13-5.62 7.83-1.47.28-2.91.63-4.31 1h0c-4.13 1.4-11.06-1.8-13.56-3.24l-7.34 4.24c2.51 1.44 8 5.44 5.62 7.83h0a15.94 15.94 0 00-1.79 2.48h0c-1.21 2.68-10 3.25-13.56 3.25v6c3.54 0 12.35.57 13.56 3.25h0a16.5 16.5 0 001.79 2.49h0c2.43 2.39-3.1 6.39-5.6 7.83l7.33 4.24c2.5-1.44 9.43-4.64 13.56-3.24h0c1.4.4 2.84.75 4.31 1h0c4.64.7 5.62 5.79 5.62 7.83H511.6c0-2 1-7.13 5.62-7.83h0c1.47-.28 2.92-.63 4.32-1h0C525.66 200.07 532.59 203.26 535.09 204.71zM493.4 191.43c-7.18-4.15-7.18-10.88 0-15s18.83-4.15 26 0 7.19 10.87 0 15S500.59 195.57 493.4 191.43zM1281.26 313.73q4.89-8.31 14.83-14t15.53-3.35q5.6 2.4 5.59 11.14a28.38 28.38 0 01-1.13 8 47.41 47.41 0 01-7.78 14.78c-1.51 2-2.54 3.34-3.09 4.08s-1.66 2.17-3.32 4.32a23.49 23.49 0 00-3.56 6.1q-1 2.86-1.36 10.13l-3.14 1.81-.11-5.11q0-5.24 3.89-15.63a55.65 55.65 0 003.89-19.5q0-7.37-2.21-10.14t-7.11.06a12 12 0 00-4.56 4.21 8.62 8.62 0 00-1.37 4.15 2.33 2.33 0 00.21 1.13 3.27 3.27 0 00.77.8l.72.6a5.93 5.93 0 011.68 2.06 8 8 0 01.49 3.17 12.18 12.18 0 01-2 6.54 13.44 13.44 0 01-4.69 4.73c-1.92 1.11-3.59 1.27-5 .48s-2.12-2.72-2.12-5.77Q1276.36 322 1281.26 313.73zm8 57.94a17.47 17.47 0 016.31-6.64q3.66-2.11 6.28-.63t2.63 5.77a19.75 19.75 0 01-8.91 15.44c-2.48 1.42-4.58 1.64-6.31.64s-2.6-2.93-2.6-5.79A17.51 17.51 0 011289.22 371.67zM1070.17 825.56c2.38-1.16 5.17-.81 8.4 1.05a24.54 24.54 0 018.33 8.56q3.63 5.85 3.63 14.47a34.85 34.85 0 01-1.14 7.52q-1.14 4.82-4.12 15.54a91.3 91.3 0 00-2.45 11.08q-.66 4.61-2.11 18.85l-4.08-2.35q-2-20.16-2.69-25t-2.76-14.13q-2.64-11.8-3.39-15.68a51.54 51.54 0 01-1.18-9.06Q1066.61 827.29 1070.17 825.56zm-.07 87.82q3.5-2 8.47.86a26.31 26.31 0 0112 20.71c0 3.83-1.17 6.42-3.49 7.76s-5.15 1.06-8.47-.85a26.31 26.31 0 01-12-20.72C1066.61 917.31 1067.78 914.73 1070.1 913.38z" style="mix-blend-mode:multiply" fill="#e8eff7" class="colore8ecf7 svgShape"></path><polygon points="1271.06 503.36 1007.48 503.36 983.53 521.8 985.22 540.25 1207.16 540.25 1271.06 503.36" style="mix-blend-mode:multiply" fill="url(#e)"></polygon><path fill="#7a41aa" d="M938.47,514.49c12.77,12.77,40.27,24.14,46.75,25.76,6.47-1.62,34-13,46.74-25.76A833.07,833.07,0,0,0,938.47,514.49Z" class="color4141aa svgShape"></path><path fill="url(#f)" d="M932.52,461.93v38.51c0,7.78,5.15,15.57,15.43,21.51,20.58,11.88,53.95,11.88,74.52,0,10.3-5.94,15.44-13.73,15.44-21.51V461.93Z"></path><path fill="url(#g)" d="M1041.07,481.53a3.31,3.31,0,0,0-1.67-2.64,20.83,20.83,0,0,0,1.74-8.29,3.42,3.42,0,0,0-3.14-3.06c-1.58,0,0,3.06,0,3.06h-.73c0,7.59-5.26,14.82-14.83,20.34-20.5,11.83-53.85,11.83-74.35,0-9.57-5.52-14.84-12.74-14.84-20.34h-.8s1.57-3.06,0-3.06a3.29,3.29,0,0,0-3.07,3.06,20.86,20.86,0,0,0,1.74,8.26,3.29,3.29,0,0,0-1.74,2.67,20.94,20.94,0,0,0,1.73,8.25,3.33,3.33,0,0,0-1.73,2.69c0,9,6,17.46,16.77,23.7,21.58,12.46,56.67,12.46,78.25,0,10.81-6.24,16.76-14.66,16.76-23.7a3.56,3.56,0,0,0-1.74-2.64A19.69,19.69,0,0,0,1041.07,481.53Zm-18.64,31.28c-20.5,11.83-53.85,11.83-74.35,0-9-5.18-14.17-11.87-14.77-19a38,38,0,0,0,12.82,11.39c21.58,12.45,56.67,12.45,78.25,0a38.07,38.07,0,0,0,12.82-11.39C1036.6,500.94,1031.41,507.63,1022.43,512.81Zm0-10.93c-20.5,11.83-53.85,11.83-74.35,0-9-5.19-14.17-11.88-14.77-19a37.89,37.89,0,0,0,12.82,11.4c21.58,12.45,56.67,12.45,78.25,0a38.09,38.09,0,0,0,12.82-11.4C1036.6,490,1031.42,496.69,1022.43,501.88Z"></path><path fill="url(#h)" d="M1078.57,370.2a93.36,93.36,0,1,0-158.48,66.86c7.09,7.11,8.84,20,8.84,23.59,0,8.32,5.5,16.64,16.49,23,22,12.69,57.61,12.69,79.59,0,11-6.34,16.48-14.66,16.48-23,0-3.61,1.76-16.48,8.92-23.63A93.11,93.11,0,0,0,1078.57,370.2Z"></path><path d="M945.42,437.68c22-12.69,57.61-12.69,79.59,0s22,33.26,0,45.95-57.61,12.69-79.59,0S923.44,450.37,945.42,437.68Z" style="mix-blend-mode:multiply" fill="url(#i)"></path><path fill="#ffffff" d="M910.71,374.73a4.53,4.53,0,0,1-4.53-4.53,79.13,79.13,0,0,1,79-79,4.54,4.54,0,0,1,0,9.07,70,70,0,0,0-70,70A4.53,4.53,0,0,1,910.71,374.73Z" class="colorffffff svgShape"></path><path d="M1006.08,359.13a3.61,3.61,0,0,0-3.75,0c-2.58,1.49-4.49,6.35-5.73,12.53-.83-2.48-1.93-4.34-3.34-5.16a3.61,3.61,0,0,0-3.75,0c-2.58,1.49-4.49,6.35-5.73,12.52-.83-2.46-1.93-4.33-3.34-5.15a3.61,3.61,0,0,0-3.75,0c-2.57,1.49-4.49,6.35-5.73,12.53-.83-2.47-1.92-4.34-3.34-5.16a3.61,3.61,0,0,0-3.75,0c-4.84,2.8-7.38,17.48-7.38,30.54,0,13.3,3.17,17.23,6.23,21,3.24,4,6.59,8.17,6.59,25.91a1.94,1.94,0,1,0,3.88,0c0-19.11-4-24-7.44-28.35-2.88-3.57-5.38-6.66-5.38-18.59,0-14.8,3.14-25.71,5.4-27.14,1.25.83,3.54,7.38,3.54,19.74a1.94,1.94,0,0,0,3.88,0c0-14.8,3.13-25.71,5.4-27.14,1.25.83,3.54,7.38,3.54,19.74a1.94,1.94,0,1,0,3.88,0c0-14.8,3.13-25.72,5.39-27.14,1.26.83,3.55,7.37,3.55,19.74a1.94,1.94,0,0,0,3.88,0c0-14.8,3.12-25.72,5.39-27.14,1.26.83,3.54,7.38,3.54,19.74s-2.76,19-5.69,26.06c-3.34,8.08-7.12,17.24-7.12,35.69a1.94,1.94,0,0,0,3.88,0c0-17.68,3.47-26.08,6.83-34.21,3.08-7.44,6-14.49,6-27.54C1011.65,372.65,1010.18,361.5,1006.08,359.13Z" style="mix-blend-mode:screen" fill="url(#j)"></path><polygon points="860.5 740.39 596.92 740.39 572.98 758.84 574.67 777.28 796.61 777.28 860.5 740.39" style="mix-blend-mode:multiply" fill="url(#z)"></polygon><path fill="#7a41aa" d="M527.91,751.52c12.78,12.77,40.28,24.14,46.76,25.76,6.47-1.62,34-13,46.74-25.76A838,838,0,0,0,527.91,751.52Z" class="color4141aa svgShape"></path><path fill="url(#A)" d="M522,699v38.51c0,7.79,5.15,15.57,15.43,21.51,20.58,11.88,54,11.88,74.52,0,10.3-5.94,15.44-13.72,15.44-21.51V699Z"></path><path fill="url(#B)" d="M630.51,718.57a3.3,3.3,0,0,0-1.66-2.65,20.83,20.83,0,0,0,1.74-8.29,3.44,3.44,0,0,0-3.14-3.06c-1.58,0,0,3.06,0,3.06h-.73c0,7.6-5.26,14.82-14.83,20.34-20.5,11.84-53.86,11.84-74.35,0-9.57-5.52-14.84-12.74-14.84-20.34h-.8s1.57-3.06,0-3.06a3.3,3.3,0,0,0-3.07,3.06,20.85,20.85,0,0,0,1.73,8.26,3.3,3.3,0,0,0-1.73,2.68,20.72,20.72,0,0,0,1.73,8.24,3.35,3.35,0,0,0-1.73,2.69c0,9,6,17.46,16.77,23.7,21.57,12.46,56.67,12.46,78.24,0,10.82-6.24,16.77-14.66,16.77-23.7a3.58,3.58,0,0,0-1.74-2.64A19.46,19.46,0,0,0,630.51,718.57Zm-18.63,31.27c-20.5,11.83-53.86,11.83-74.35,0-9-5.18-14.18-11.87-14.78-19a38,38,0,0,0,12.83,11.39c21.57,12.45,56.67,12.45,78.24,0a37.91,37.91,0,0,0,12.83-11.39C626.05,738,620.86,744.66,611.88,749.84Zm0-10.93c-20.5,11.83-53.86,11.83-74.35,0-9-5.19-14.18-11.88-14.78-19a38.11,38.11,0,0,0,12.83,11.39c21.57,12.45,56.67,12.45,78.24,0A38.12,38.12,0,0,0,626.65,720C626.05,727,620.86,733.72,611.88,738.91Z"></path><path fill="url(#C)" d="M668,607.23a93.36,93.36,0,1,0-158.48,66.86c7.09,7.12,8.84,20,8.84,23.6,0,8.31,5.5,16.63,16.49,23,22,12.7,57.61,12.69,79.59,0,11-6.34,16.48-14.66,16.48-23,0-3.62,1.76-16.48,8.92-23.64A93.11,93.11,0,0,0,668,607.23Z"></path><path d="M534.87,674.71c22-12.69,57.61-12.69,79.59,0s22,33.26,0,45.95-57.61,12.7-79.59,0S512.89,687.4,534.87,674.71Z" style="mix-blend-mode:multiply" fill="url(#D)"></path><path fill="#ffffff" d="M500.16,611.77a4.53,4.53,0,0,1-4.53-4.54,79.13,79.13,0,0,1,79-79,4.54,4.54,0,0,1,0,9.07,70.05,70.05,0,0,0-70,70A4.53,4.53,0,0,1,500.16,611.77Z" class="colorffffff svgShape"></path><path d="M595.53,596.16a3.63,3.63,0,0,0-3.76,0c-2.57,1.49-4.49,6.35-5.72,12.53-.84-2.47-1.93-4.34-3.34-5.16a3.61,3.61,0,0,0-3.75,0c-2.58,1.49-4.49,6.35-5.73,12.53-.84-2.47-1.93-4.34-3.34-5.15a3.61,3.61,0,0,0-3.75,0c-2.58,1.49-4.49,6.35-5.73,12.53-.83-2.47-1.92-4.34-3.34-5.16a3.63,3.63,0,0,0-3.75,0c-4.84,2.8-7.38,17.49-7.38,30.54,0,13.3,3.17,17.23,6.23,21,3.24,4,6.59,8.17,6.59,25.92a1.94,1.94,0,1,0,3.88,0c0-19.12-3.95-24-7.44-28.35-2.88-3.58-5.38-6.67-5.38-18.6,0-14.79,3.13-25.71,5.4-27.14,1.25.84,3.54,7.38,3.54,19.75a1.94,1.94,0,0,0,3.88,0c0-14.8,3.13-25.72,5.4-27.15,1.25.83,3.54,7.38,3.54,19.75a1.94,1.94,0,0,0,3.88,0c0-14.81,3.13-25.72,5.39-27.15,1.26.83,3.55,7.38,3.55,19.75a1.94,1.94,0,0,0,3.88,0c0-14.81,3.12-25.72,5.39-27.15,1.26.84,3.54,7.38,3.54,19.74s-2.76,19-5.69,26.06c-3.34,8.08-7.12,17.24-7.12,35.69a1.94,1.94,0,1,0,3.88,0c0-17.68,3.47-26.08,6.83-34.21,3.08-7.44,6-14.48,6-27.54C601.1,609.69,599.63,598.54,595.53,596.16Z" style="mix-blend-mode:screen" fill="url(#E)"></path><polygon points="1122.51 614.56 806.62 614.56 777.92 636.66 779.94 658.76 1045.93 658.76 1122.51 614.56" style="mix-blend-mode:multiply" fill="url(#F)"></polygon><path fill="#7a41aa" d="M723.91,627.9c15.31,15.3,48.27,28.92,56,30.86,7.76-1.94,40.72-15.56,56-30.86A997.41,997.41,0,0,0,723.91,627.9Z" class="color4141aa svgShape"></path><path fill="url(#G)" d="M716.79,564.9v46.16c0,9.32,6.16,18.66,18.49,25.78,24.67,14.23,64.65,14.23,89.31,0,12.34-7.12,18.5-16.46,18.5-25.78V564.9Z"></path><path fill="url(#H)" d="M846.87,588.4a4,4,0,0,0-2-3.17,25.11,25.11,0,0,0,2.09-9.94,4.13,4.13,0,0,0-3.77-3.67c-1.9,0,0,3.67,0,3.67h-.87c0,9.1-6.31,17.76-17.78,24.38-24.56,14.18-64.54,14.18-89.11,0-11.46-6.61-17.78-15.27-17.78-24.38h-1s1.88-3.67,0-3.67a4,4,0,0,0-3.68,3.67,24.94,24.94,0,0,0,2.08,9.9A4,4,0,0,0,713,588.4a25,25,0,0,0,2.07,9.88A4,4,0,0,0,713,601.5c0,10.84,7.14,20.93,20.1,28.41,25.85,14.92,67.92,14.92,93.77,0,13-7.48,20.1-17.58,20.1-28.41a4.3,4.3,0,0,0-2.09-3.16A23.44,23.44,0,0,0,846.87,588.4Zm-22.33,37.48c-24.56,14.18-64.54,14.18-89.11,0-10.76-6.21-17-14.23-17.7-22.72,3.41,5.08,8.58,9.73,15.37,13.65,25.85,14.92,67.92,14.92,93.77,0,6.79-3.92,12-8.57,15.37-13.65C841.53,611.65,835.31,619.67,824.54,625.88Zm0-13.1C800,627,760,627,735.43,612.78c-10.76-6.22-17-14.23-17.7-22.73,3.41,5.09,8.58,9.73,15.37,13.66,25.85,14.92,67.92,14.92,93.77,0,6.79-3.93,12-8.57,15.37-13.66C841.53,598.55,835.31,606.56,824.54,612.78Z"></path><path fill="url(#I)" d="M891.82,455a111.89,111.89,0,1,0-189.94,80.12c8.5,8.53,10.61,24,10.61,28.28,0,10,6.58,19.94,19.76,27.54,26.34,15.21,69,15.2,95.38,0,13.17-7.6,19.76-17.57,19.76-27.54,0-4.32,2.1-19.75,10.68-28.32A111.6,111.6,0,0,0,891.82,455Z"></path><path d="M852.2,419.93,735.28,352.38a111.84,111.84,0,0,0-58.84,145.06H718Z" style="mix-blend-mode:multiply" fill="url(#J)"></path><path d="M732.25,535.84c26.34-15.21,69-15.21,95.38,0s26.35,39.86,0,55.07-69,15.21-95.38,0S705.9,551,732.25,535.84Z" style="mix-blend-mode:multiply" fill="url(#K)"></path><path fill="#ffffff" d="M690.65,459.5a4.53,4.53,0,0,1-4.53-4.53,93.93,93.93,0,0,1,93.82-93.83,4.54,4.54,0,0,1,0,9.07A84.85,84.85,0,0,0,695.18,455,4.53,4.53,0,0,1,690.65,459.5Z" class="colorffffff svgShape"></path><path d="M804.94,441.7a4.38,4.38,0,0,0-4.5,0c-3.08,1.79-5.38,7.61-6.86,15-1-3-2.31-5.2-4-6.18a4.36,4.36,0,0,0-4.49,0c-3.09,1.79-5.39,7.61-6.87,15-1-2.95-2.31-5.19-4-6.17a4.33,4.33,0,0,0-4.5,0c-3.08,1.78-5.38,7.6-6.86,15-1-3-2.31-5.2-4-6.18a4.36,4.36,0,0,0-4.5,0c-5.81,3.36-8.85,21-8.85,36.61,0,15.94,3.8,20.64,7.47,25.2,3.88,4.81,7.9,9.78,7.9,31.05a2.33,2.33,0,1,0,4.65,0c0-22.9-4.74-28.79-8.92-34-3.46-4.29-6.44-8-6.44-22.28,0-17.74,3.75-30.82,6.47-32.53,1.5,1,4.24,8.84,4.24,23.66a2.33,2.33,0,0,0,4.65,0c0-17.74,3.75-30.82,6.47-32.53,1.5,1,4.24,8.84,4.24,23.66a2.33,2.33,0,1,0,4.66,0c0-17.74,3.74-30.82,6.45-32.53,1.51,1,4.25,8.84,4.25,23.66a2.33,2.33,0,0,0,4.66,0c0-17.74,3.74-30.82,6.46-32.53,1.5,1,4.24,8.85,4.24,23.66s-3.31,22.74-6.82,31.23c-4,9.68-8.54,20.66-8.54,42.77a2.33,2.33,0,1,0,4.66,0c0-21.19,4.16-31.26,8.18-41,3.69-8.93,7.18-17.37,7.18-33C811.62,457.91,809.86,444.55,804.94,441.7Z" style="mix-blend-mode:screen" fill="url(#L)"></path><path fill="#6bb5ff" d="M778.56 323.53a2.27 2.27 0 01-2.26-2.27V264.18a2.27 2.27 0 114.53 0v57.08A2.27 2.27 0 01778.56 323.53zM842.63 339.87a2.27 2.27 0 01-2-3.35l19.15-35.09a2.27 2.27 0 014 2.17l-19.15 35.09A2.27 2.27 0 01842.63 339.87zM714.51 339.87a2.26 2.26 0 01-2-1.18L693.36 303.6a2.27 2.27 0 014-2.17l19.15 35.09a2.26 2.26 0 01-.9 3.07A2.23 2.23 0 01714.51 339.87z" class="colorffc16b svgShape"></path><path fill="#6bb5ff" d="M778.56 323.53a2.27 2.27 0 01-2.26-2.27V264.18a2.27 2.27 0 114.53 0v57.08A2.27 2.27 0 01778.56 323.53zM842.63 339.87a2.27 2.27 0 01-2-3.35l19.15-35.09a2.27 2.27 0 014 2.17l-19.15 35.09A2.27 2.27 0 01842.63 339.87zM714.51 339.87a2.26 2.26 0 01-2-1.18L693.36 303.6a2.27 2.27 0 014-2.17l19.15 35.09a2.26 2.26 0 01-.9 3.07A2.23 2.23 0 01714.51 339.87z" class="colorffc16b svgShape"></path><rect width="61.63" height="11.33" x="920.21" y="761.44" style="mix-blend-mode:multiply" fill="url(#k)"></rect><rect width="61.62" height="11.33" x="948.23" y="745.09" style="mix-blend-mode:multiply" fill="url(#M)"></rect><path fill="url(#l)" d="M954.55,752.93c0-8.9-5.64-9.16-5.64-9.16a23.27,23.27,0,0,1-8-2.06c-4.9-2-11.8-1.25-7.94,5.87a2.1,2.1,0,0,0,.13.26,3.36,3.36,0,0,0,1.25,1.09l12.32,7.24C948.54,757.24,954.51,754.76,954.55,752.93Z"></path><path fill="#0c2340" d="M954.52,752.13c-.11,1.82-6,4.26-7.86,3.2l-12.32-7.23a11.33,11.33,0,0,1-1.73-1.27,8.21,8.21,0,0,0,.35.75,2.1,2.1,0,0,0,.13.26,3.36,3.36,0,0,0,1.25,1.09l12.32,7.24c1.76,1,7.11-1.11,7.81-2.89a1.8,1.8,0,0,0,.06-.36A6.91,6.91,0,0,0,954.52,752.13Z" class="color121047 svgShape"></path><path fill="#ffffff" d="M952.26,742.6a51.46,51.46,0,0,0-6.57,1.3,2.86,2.86,0,0,1-.45,1.33l-.15.17c-1,.7-2,1.81.36,3.31a3.33,3.33,0,0,0,4.31-.3,3.9,3.9,0,0,1,1.39-1.58,3.5,3.5,0,0,1,1.33-.56s0-.13,0-.13S952.87,742.6,952.26,742.6Z" class="colorffffff svgShape"></path><path fill="#193f6f" d="M952.35,655.6l-25.07.45c2.07,16.75,6.25,32,9,48.18,3,15.76,6.37,26.83,9.31,39.95,1.08,2.44,6,1.52,7-.83.78-12.08,1.68-26.8-1.9-40.74C951.31,687.59,952.7,670.77,952.35,655.6Z" class="color1f196f svgShape"></path><path fill="url(#N)" d="M926.46,769.27c0-8.89-5.64-9.15-5.64-9.15a23.27,23.27,0,0,1-8-2.06c-4.9-2-11.79-1.24-7.94,5.86,0,.09.08.18.13.27a3.52,3.52,0,0,0,1.26,1.1l12.31,7.23C920.46,773.59,926.42,771.11,926.46,769.27Z"></path><path fill="#0c2340" d="M926.43,768.48c-.1,1.82-6,4.26-7.86,3.19l-12.31-7.22a11.84,11.84,0,0,1-1.74-1.27c.11.25.21.48.35.74,0,.09.08.18.13.27a3.52,3.52,0,0,0,1.26,1.1l12.31,7.23c1.76,1,7.11-1.11,7.81-2.89a1.34,1.34,0,0,0,.06-.36A6.91,6.91,0,0,0,926.43,768.48Z" class="color121047 svgShape"></path><path fill="#ffffff" d="M924.17,759a51.6,51.6,0,0,0-6.56,1.3,2.89,2.89,0,0,1-.46,1.32l-.14.18c-1,.7-2,1.81.36,3.31a3.3,3.3,0,0,0,4.3-.31,3.94,3.94,0,0,1,1.39-1.57,3.53,3.53,0,0,1,1.34-.57.31.31,0,0,1,0-.11S924.78,759,924.17,759Z" class="colorffffff svgShape"></path><path fill="url(#O)" d="M934.67,695.42c1.52-7.2,19.09-8.09,17.94-36.39-5.51-.82-33.32,12.23-38.83,11.41-.69,16.86.94,32.55,1,49,.38,16,1.89,27.52,2.65,40.95.67,2.58,5.68,2.47,7,.32,2.74-11.8,6-26.17,4.77-40.51C930.93,712.27,932.89,703.85,934.67,695.42Z"></path><path fill="#a50b89" d="M939.9,604.06c19.61,13.1,22,39.14,11.34,55.65C951.24,659.71,953.52,623.11,939.9,604.06Z" class="colore33c5c svgShape"></path><path fill="url(#P)" d="M940.79,675.07c-11.94,6.7-24.43,6.71-28.69-1.52,1.6-15.34,3.09-27.82,0-42.52.9-8.12,1.54-9.33.5-14.07.37-1.59,5.25-5,8.81-8.23,3.85-3.51,6.44-6.84,8.42-7.25,16.33-3.33,24.26,25.76,22.89,56.78C951.48,666.5,946.67,671.77,940.79,675.07Z"></path><path fill="#a9d2fc" d="M938.91,603.33c-3.55-2.56-3.26-7.85-3-11.36a17.24,17.24,0,0,0,.67-6.07c-.52-7.74-5.91-14.1-11.92-13.27-12.11,1.66-9.52,7.92-9,15.66.49,7.17,4.08,11.88,9.57,12.34.08,1.19-.41,4.76-1.89,6.25,4,2.39,9.8,1.26,12.11.23S940.57,605.05,938.91,603.33Z" class="colorfcd1a9 svgShape"></path><path fill="#652e93" d="M919.85,568.85c.29-1,2.14-1.6,8.43.82l1.63.64c11.65,5.05,8.83,18.48,7.09,22.05a7.26,7.26,0,0,0-.91,4.22c-4.58-.19-6,2.39-9-.18-2.11-1.83-5.26-4-5.78-4.89a3.58,3.58,0,0,1-.43-2.22c0-6.44-3-2.51-2.89-1-1.22-.59-1.14-3.18-1.06-6.06h0C907.08,574.82,912.39,569.73,919.85,568.85Z" class="color362e93 svgShape"></path><path fill="#a9d2fc" d="M913.52,679.22a4,4,0,0,0,5.91.19c1.93-2,.82-4.29,1.88-5,2.9-1.85,3.56-3.6,3.07-5.35-2.31,1.46-4.69,3.82-6.71,2.39s-4.65-3.4-4.79-5.44c-3,.68-3.17,7.2-1.6,9.82A27.62,27.62,0,0,0,913.52,679.22Z" class="colorfcd1a9 svgShape"></path><path fill="url(#Q)" d="M917.59,674.1c1.49,3.64.44,5.87-3.21,6.29-9.12-4.67-14.42-17.76-14.57-24.95-.26-12,5.56-27,13-38.84,1.72-2.54,7.26-1.58,10,2,3.7,4.86,2.11,12,0,14.83-5.36,8.56-11.33,14.94-11.91,21.79C910.33,661.6,912.92,670,917.59,674.1Z"></path></g></g></g></svg>