<svg xmlns="http://www.w3.org/2000/svg" viewBox="0 0 132 132" id="CustomerAttraction"><path fill="#f4f6f8" d="M129.2 32.1V37c0 1.1-.7 2.1-2.1 2.9L51 84.1c-2.8 1.6-7.3 1.6-10.1 0L4.1 62.8C2.6 62 1.9 61 1.9 59.9v-4.8l127.3-23z" class="colore3e7f0 svgShape"></path><path fill="#431d43" d="M127.1 29.1c2.8 1.6 2.8 4.2 0 5.8L51 79.2c-2.8 1.6-7.3 1.6-10.1 0L4.1 58c-2.8-1.6-2.8-4.2 0-5.8L80.2 7.8c2.8-1.6 7.3-1.6 10.1 0l36.8 21.3z" class="color1d2943 svgShape"></path><path fill="#ffffff" d="m9.2 55.2 36 20.8c2.2 1.2 5.6 1.2 7.8 0l72.3-42c2.1-1.2 2.1-3.3 0-4.5l-36-20.8c-2.2-1.2-5.6-1.2-7.8 0l-72.3 42c-2.1 1.3-2.1 3.3 0 4.5z" class="colorffffff svgShape"></path><path fill="#431d43" d="M34.8 77c-.6-.3-1.1-.1-1.1.6s.5 1.5 1.1 1.9c.6.3 1.1.1 1.1-.6-.1-.7-.5-1.5-1.1-1.9zm-3.9-2.2c-.6-.3-1.1-.1-1.1.6s.5 1.5 1.1 1.9c.6.3 1.1.1 1.1-.6s-.5-1.6-1.1-1.9zM27 72.5c-.6-.3-1.1-.1-1.1.6s.5 1.5 1.1 1.9c.6.3 1.1.1 1.1-.6s-.5-1.5-1.1-1.9zM17.7 67.2c-.6-.3-1.1-.1-1.1.6s.5 1.5 1.1 1.9c.6.3 1.1.1 1.1-.6 0-.8-.5-1.6-1.1-1.9zm-3.9-2.3c-.6-.3-1.1-.1-1.1.6s.5 1.5 1.1 1.9c.6.3 1.1.1 1.1-.6s-.5-1.5-1.1-1.9zm-3.9-2.2c-.6-.3-1.1-.1-1.1.6s.5 1.5 1.1 1.9c.6.3 1.1.1 1.1-.6s-.5-1.6-1.1-1.9zM23.5 70.3l1.1.6-.7 2.8-3.1-1.8z" class="color1d2943 svgShape"></path><path fill="#010001" d="m20.8 71.9-.8-3.6 3.5 2-2.7 1.6z" class="color111d33 svgShape"></path><path fill="#431d43" d="M103.4 19.4c.4.2.4.6 0 .9-.4.2-1.1.2-1.5 0-.4-.2-.4-.6 0-.9s1.1-.3 1.5 0z" class="color1d2943 svgShape"></path><path fill="#6822a2" d="M104 19c.8.4.8 1.2 0 1.6-.8.4-2 .5-2.8 0-.8-.4-.8-1.2 0-1.6.8-.4 2.1-.4 2.8 0zm-2.1 1.3c.4.2 1.1.2 1.5 0 .4-.2.4-.6 0-.9-.4-.2-1.1-.2-1.5 0-.4.2-.4.6 0 .9" class="color4c5c75 svgShape"></path><path fill="#431d43" d="m125.7 38.1-5 4.5-.7-.4c-.2-.1-.3-.3-.3-.7 0-.6.4-1.4 1-1.8l3.5-2c.3-.2.5-.2.7-.1l.8.5z" class="color1d2943 svgShape"></path><path fill="#6822a2" d="M121.4 40.2c-.6.3-1 1.1-1 1.8 0 .6.5.9 1 .6l3.5-2c.6-.3 1-1.1 1-1.7 0-.6-.5-.9-1-.6l-3.5 1.9z" class="color4c5c75 svgShape"></path><path fill="#431d43" d="m117.6 42.7-4.1 4-.7-.4c-.2-.1-.3-.3-.3-.6 0-.6.5-1.4 1-1.8l2.7-1.6c.3-.2.5-.2.7-.1l.7.5z" class="color1d2943 svgShape"></path><path fill="#6822a2" d="M114.2 44.3c-.6.3-1 1.1-1 1.7 0 .6.5.9 1 .6l2.7-1.6c.6-.3 1-1.1 1-1.7 0-.6-.5-.9-1-.6l-2.7 1.6z" class="color4c5c75 svgShape"></path><path fill="#f451d6" d="M89.7 25.7V30l8-4.6v-4.3zM53.3 30.6V35l8 4.6-.1-4.3z" class="colorf45170 svgShape"></path><path fill="#f451d6" d="M89.7 25.7V30c-3.6-2-9-1.7-12 0l-11.4 6.6v-4.3l-7.9-4.6 10.3-5.9c3.9-2.2 10-4 15.1-4 4.6 0 9.8 1 13.9 3.3l-8 4.6z" class="colorf45170 svgShape"></path><path fill="#a50b89" d="M66.3 32.3v4.3L77.7 30c3.1-1.8 8.5-2 12 0v-4.3c-3.4-1.9-8.7-1.8-12 0l-11.4 6.6z" class="colordf3260 svgShape"></path><path fill="#f451d6" d="m58.4 27.7 7.9 4.6 11.4-6.6c3.2-1.9 8.6-2 12 0l8-4.6c-4.1-2.3-9.3-3.3-13.9-3.3-5.1 0-11.2 1.7-15.1 4l-10.3 5.9z" class="colorf45170 svgShape"></path><path fill="#7067ee" d="M78.4 39.3v4.4l7.9 4.6v-4.4z" class="color678aee svgShape"></path><path fill="#968ffe" d="M103.6 33.5c0 3-1.9 5.9-5.8 8.2l-11.4 6.6V44l-7.9-4.6 11.4-6.6c.7-.4 1.3-.9 1.7-1.3-.4-.5-.9-.9-1.6-1.3l-.3-.2v-4.3l8-4.6.1.1c3.8 2.2 5.8 5.2 5.8 8.1v4.2z" class="color8fabfe svgShape"></path><path fill="#7d74fd" d="M89.8 25.7c1.7 1 2.5 2.2 2.5 3.5v4.3c0-1.3-.8-2.5-2.5-3.5h-.1v-4.3h.1z" class="color748bfd svgShape"></path><path fill="#968ffe" d="m89.7 25.7.1.1c3.3 1.9 3.3 5.1 0 7l-11.4 6.6 7.9 4.6 11.4-6.6c7.8-4.5 7.8-11.7.1-16.2l-.1-.1-8 4.6z" class="color8fabfe svgShape"></path><path fill="#7d74fd" d="M86.3 43.9v4.3l11.4-6.6c3.9-2.3 5.9-5.2 5.8-8.2v-4.3c0 3-1.9 5.9-5.8 8.2l-11.4 6.6z" class="color748bfd svgShape"></path><path fill="#f4f6f8" d="m86.3 48.3-5.7 3.3-7.9-4.6v-4.4l5.7-3.3 7.9 4.6z" class="colorf3f1fc svgShape"></path><path fill="#e7f1fc" d="M72.7 42.6V47l7.9 4.6v-4.4z" class="colore9e7fc svgShape"></path><path fill="#deecfb" d="M80.6 47.2v4.4l5.7-3.3v-4.4z" class="colordedffb svgShape"></path><path fill="#f4f6f8" d="m72.7 42.6 7.9 4.6 5.7-3.3-7.9-4.6z" class="colorf3f1fc svgShape"></path><path fill="#e7f1fc" d="M66.3 36.7 60.6 40l-7.9-4.7V31l5.7-3.3 7.9 4.6z" class="colore9e7fc svgShape"></path><path fill="#e7f1fc" d="M52.7 31v4.3l7.9 4.7v-4.4z" class="colore9e7fc svgShape"></path><path fill="#deecfb" d="M60.6 35.6V40l5.7-3.3v-4.4z" class="colordedffb svgShape"></path><path fill="#f4f6f8" d="m52.7 31 7.9 4.6 5.7-3.3-7.9-4.6z" class="colorf3f1fc svgShape"></path><path fill="#6cb5ff" d="m55.5 39.2-10.1 2.2 2.8 1.9-5.3 2.7 10.3-1.9-3.4-2.1zM75.3 50.8 65.2 53l2.8 1.8-5.3 2.7 10.4-1.9-3.4-2z" class="colorffd06c svgShape"></path><path fill="#aa569b" d="M39.1 51.7v1.6c0 1.3-.9 2.6-2.6 3.7-3.5 2-9.2 2-12.7 0-1.8-1-2.7-2.4-2.7-3.7v-1.6h18z" class="coloraa6256 svgShape"></path><path fill="#db60c5" d="M36.4 48c3.5 2 3.5 5.3 0 7.3s-9.2 2-12.7 0-3.5-5.3 0-7.3 9.2-2 12.7 0z" class="colordba660 svgShape"></path><path fill="#ffffff" d="m34.1 49.3-1.9 2.1 2.9 1.6-4-.3-1.9 2.1-.6-2.4-4-.3 3.6-1.1-.7-2.3 2.9 1.6z" class="colorffffff svgShape"></path><path fill="#955ec3" d="M57.8 62.5v1.6c0 1.3-.9 2.6-2.6 3.7-3.5 2-9.2 2-12.7 0-1.8-1-2.7-2.4-2.7-3.7v-1.6h18z" class="color5ec363 svgShape"></path><path fill="#5aa0e7" d="M55.2 58.9c3.5 2 3.5 5.3 0 7.3s-9.2 2-12.7 0-3.5-5.3 0-7.3c3.5-2.1 9.2-2.1 12.7 0z" class="color78e75a svgShape"></path><ellipse cx="51.5" cy="60.7" fill="#ffffff" rx="1.2" ry="2.1" transform="rotate(-89.898 51.53 60.73)" class="colorffffff svgShape"></ellipse><path fill="#ffffff" d="M49.4 62c2 1.1 2.2 2.9.8 4.2l-8-4.6c2.2-.9 5.2-.8 7.2.4z" class="colorffffff svgShape"></path><path fill="#f4f6f8" d="M130.1 66.7 130 83l-16.2 9.4L97.5 83l.1-16.3 16.1-9.4z" class="colore3e7f0 svgShape"></path><path fill="#c9d5e2" d="M130 66.7V83l-16.2 9.4.1-16.3z" class="colorc9cee2 svgShape"></path><path fill="#b0bfcf" d="m113.9 76.1-.1 16.3L97.5 83l.1-16.3z" class="colorb0b8cf svgShape"></path><path fill="#f4f6f8" d="m130 66.7-16.1 9.4-16.3-9.4 16.1-9.4z" class="colore3e7f0 svgShape"></path><path fill="#5046e4" d="M53 113.3s-2.2 2.5-8.3 3.4c-.5.1-.8.4-.8.9 0 .7.2 1.8 1.5 2.9 1.7 1.4 7.3 1.6 9.8 1.7.7 0 1.4-.5 1.4-1.3l.5-4.3-4.1-3.3z" class="color7e5af2 svgShape"></path><path fill="#c9d5e2" d="M54.4 115.4c1.2.9 2.7 1.4 3.1.8l13.7-19.4c.2-.3.7-.4 1-.2l12.4 8.9 12-3.9.4-.1s-1.3-9.1-1.5-9.1c-.2 0-7.1-1.3-7.1-1.3-.8 0-14.2-5.3-18.6-3.4-7.1 3-16.9 25.6-16.9 25.6-.2.5.5 1.4 1.5 2.1z" class="colorc9cee2 svgShape"></path><path fill="#b0bfcf" d="M54.4 115.4c1.2.9 2.7 1.4 3.1.8l13.7-19.4c.2-.3.7-.4 1-.2l12.4 8.9 12-3.9c-.3-2.3-.7-4.6-.8-4.6-.2 0-7.1-1.3-7.1-1.3-.8 0-14.2-5.3-18.6-3.4-5.5 2.4-12.9 17.1-15.7 23.1z" class="colorb0b8cf svgShape"></path><path fill="#918afd" d="M51.8 115.9s-4.7 2.4-10.1 1.9c-.6-.1-1.2.3-1.4.9-.3.9-.1 2.3 2.7 3.2l3 .9c1 .3 1.9.7 2.7 1.3.6.4 1.2.8 1.9 1.1 1.1.5 2.3-.2 2.4-1.3v-.1c.2-1 .9-1.7 1.8-2.3l-.8-4-2.2-1.6z" class="colorb28afd svgShape"></path><path fill="#c9d5e2" d="M53.1 119.7c.7 1.1 1.4 1.9 1.7 1.7 9-3.6 15.8-8.4 19.7-14.4.6-1 1.8-1.5 3-1.2 3.5.9 10.6 3 14.7 2.7 6.6-.6 8.6-9.3 8.6-9.3l-1.7-.5-6.9-2.1-17.3 1.2c-1.5.1-2.9.7-4 1.7-7.6 7-13 13-19.3 16.4-.3.3.6 2.3 1.5 3.8z" class="colorc9cee2 svgShape"></path><path fill="#f4f6f8" d="M53.1 119.7c8.5-3.9 17.5-10.2 21.1-15.9.6-1 1.8-1.5 2.9-1.2 3.5.8 10.7 2.8 14.8 2.3 3.9-.4 6.1-3.6 7.3-6.2l-6.9-2.1L75 97.8c-1.5.1-2.9.7-4 1.7-7.6 7-13 13-19.3 16.4-.4.3.5 2.3 1.4 3.8z" class="colore3e7f0 svgShape"></path><path fill="#955ec3" d="M95.5 65.8s-3.3 13.1-5 17.2c-1.2 2.7-8.2 9.3-8.2 9.3l-2.9-1.6-2.9-1.6s7.6-6.2 8.8-9c3.2-7.2 4.2-14.4 8.8-16.2l.7 1 .7.9z" class="color5ec363 svgShape"></path><path fill="#a061d5" d="M95 65.1c-1.6 4.2-5.4 14-7 17.2-1.2 2.4-7.3 7.5-8.6 8.6l-2.9-1.6s7.6-6.2 8.8-9c3.2-7.2 4.2-14.4 8.8-16.2l.9 1z" class="color72d561 svgShape"></path><path fill="#5aa0e7" d="M95.2 64.3c2.6.3 12.6 2 14.5 7.7l-3 9.6c-1.7 2.1-3.1 6.1-4.3 10.7L101 99c-1 2.9-17.6-2.7-16.6-5.6l4.2-5.7c.2-.4.4-.9.5-1.3.4-1.8-.4-3.5-1.3-5-2.2-3.6 0-6.8 2.7-8.4.4-.2.5-.8.5-1.2-.2-3.6.5-6.2 2.4-7.3.5-.2 1.2-.3 1.8-.2z" class="color78e75a svgShape"></path><path fill="#aa569b" d="M92.5 56.7s1.1 8.2-.8 11.1c-.1.2.1.4.3.3.3-.1.5-.3.7-.6 0-.1.1 0 .2 0l.1 1.1c0 .2.2.3.3.4 2 .1 3.5-.1 5-.5l.1-7.2-3.1-5.1-2.6.2-.2.3z" class="coloraa6256 svgShape"></path><path fill="#c6ddf5" d="M96.4 64.5v-1.9l5.9-.3 1.3 4.2c.2 2.4-3.1 4-5.4 2.8-.3-.1-.4-.4-.4-.7.1-1.3-.3-2.6-.9-3.9-.2-.1-.4-.2-.5-.2z" class="colorf5c9c6 svgShape"></path><path fill="#d4e4f4" d="m93.8 57.3.3 5.8c0 .8.2 1.6.6 2.3.5 1 1.4 1.8 3 1.8 3-.3 4.5-1.4 6.5-3l.4-8.9s-8.8-.8-8.9-.8-1.9 2.8-1.9 2.8z" class="colorf4d6d4 svgShape"></path><path fill="#bf5aad" d="M92.5 56.7c.9 1 4.7 1.1 9.5.9-.4 2.8-.3 5.4.6 7.9.2 1.8-.1 3.7-.2 4.4 0 .1.1.2.2.2 1.1-.2 2.1-.4 3-.9.8-.4 1.6-.9 2.1-1.6.2-.2.3-.5.3-.8l.2-11.7c-.3-2.8-1.7-4.5-4.2-5.1-.7-1-1.7-1.7-2.9-2.1-1.9-.5-3.7-.4-5.5.8-.4.3-.8.6-1.1.9-1.7 2.1-2.8 4.4-2 7.1z" class="colorbf7d5a svgShape"></path><path fill="#e7f1fc" d="M97.6 92.8c0 .1-.1.2-.2.3l-10.1 6.3c-.2.2-.6.2-.9 0l-16.5-8.8c-.1-.1-.2-.2-.2-.3v-1.6l27.9 2.4v1.7z" class="colore9e7fc svgShape"></path><path fill="#f4f6f8" d="M97.3 90.9c.3.1.3.4 0 .5l-10.1 6.3c-.2.2-.6.2-.9 0L69.8 89c-.3-.1-.3-.4 0-.5l10.1-6.3c.2-.2.6-.2.9 0l16.5 8.7z" class="colorf3f1fc svgShape"></path><path fill="#6822a2" d="M85.8 92.9c-.1 0-.1-.1 0-.1l.7-.4h.2l.8.4c.1 0 .1.1 0 .1l-.7.4h-.2l-.8-.4z" class="color4c5c75 svgShape"></path><path fill="#deecfb" d="M81.9 87.1c-.1 0-.1-.1 0-.1l3-1.9h.2l6.2 3.3c.1 0 .1.1 0 .1l-3 1.9h-.2l-6.2-3.3z" class="colordedffb svgShape"></path><path fill="#6822a2" d="M78.4 92.1c-.1 0-.1-.1 0-.1l.7-.4h.2l.8.4c.1 0 .1.1 0 .1l-.7.4h-.2l-.8-.4zm-2-5.9c-.1 0-.1-.1 0-.1l.7-.4h.2l.8.4c.1 0 .1.1 0 .1l-.7.4h-.2l-.8-.4zm10.9 7.4c-.1 0-.1-.1 0-.1l.7-.5h.2l.8.4c.1 0 .1.1 0 .1l-.7.5h-.2l-.8-.4zm2.9 0c-.1 0-.1-.1 0-.1l.7-.4h.2l.8.4c.1 0 .1.1 0 .1l-.7.4H91l-.8-.4zm-1.5-.9c-.1 0-.1-.1 0-.1l.7-.4h.2l.8.4c.1 0 .1.1 0 .1l-.7.4h-.2l-.8-.4zM86 96.2c-.1 0-.1-.1 0-.1l.7-.4h.2l.8.4c.1 0 .1.1 0 .1l-.7.4h-.2l-.8-.4zm-1.5-.8c-.1 0-.1-.1 0-.1l.7-.4h.2l.8.4c.1 0 .1.1 0 .1l-.7.4h-.2l-.8-.4z" class="color4c5c75 svgShape"></path><path fill="#6822a2" d="M85.9 94.5c-.1 0-.1-.1 0-.1l.7-.4h.2l1.4.8 1.3-.8h.2l.8.4c.1 0 .1.1 0 .1l-2.1 1.3h-.2l-2.3-1.3zm-2.9 0c-.1 0-.1-.1 0-.1l.7-.4h.2l.8.4c.1 0 .1.1 0 .1l-.7.5h-.2l-.8-.5zm1.4-.8c-.1 0-.1-.1 0-.1l.7-.4h.2l.8.4c.1 0 .1.1 0 .1l-.7.4h-.2l-.8-.4zm-3 0c-.1 0-.1-.1 0-.1l.7-.4h.2l.8.4c.1 0 .1.1 0 .1l-.7.4h-.2l-.8-.4zm1.4-.9c-.1 0-.1-.1 0-.1l.7-.4h.2l.8.4c.1 0 .1.1 0 .1l-.7.4h-.2l-.8-.4zm-2.9.1c-.1 0-.1-.1 0-.1l.7-.4h.2l.8.4c.1 0 .1.1 0 .1l-.7.4h-.2l-.8-.4zm4.3-.9c-.1 0-.1-.1 0-.1l.7-.4h.2l.8.4c.1 0 .1.1 0 .1l-.7.4H85l-.8-.4zm-2.9 0c-.1 0-.1-.1 0-.1l.7-.4h.2l.8.4c.1 0 .1.1 0 .1l-.7.4h-.2l-.8-.4zm1.4-.8c-.1 0-.1-.1 0-.1l.7-.4h.2l.8.4c.1 0 .1.1 0 .1l-.7.4h-.2l-.8-.4zm-2.9 0c-.1 0-.1-.1 0-.1l.7-.4h.2l.8.4c.1 0 .1.1 0 .1l-.7.4h-.2l-.8-.4zm1.3-.9c-.1 0-.1-.1 0-.1l.7-.4h.2l.8.4c.1 0 .1.1 0 .1l-.7.4h-.2l-.8-.4zm-2.9.1c-.1 0-.1-.1 0-.1l.7-.4h.2l.8.4c.1 0 .1.1 0 .1l-.7.4H79l-.8-.4zm1.4-.9c-.1 0-.1-.1 0-.1l.7-.4h.2l.8.4c.1 0 .1.1 0 .1l-.7.4h-.2l-.8-.4zm-5.8.1c-.1 0-.1-.1 0-.1l.7-.4h.2l.8.4c.1 0 .1.1 0 .1l-.7.4h-.2l-.8-.4zm-1.6-.8c-.1 0-.1-.1 0-.1l.7-.4h.2l.8.4c.1 0 .1.1 0 .1l-.7.4H73l-.8-.4zm7.3-1c-.1 0-.1-.1 0-.1l.7-.4h.2l8.5 4.5c.1 0 .1.1 0 .1l-.7.4H88l-8.5-4.5zm-5.9.1c-.1 0-.1-.1 0-.1l.7-.4h.2l2.3 1.2c.1 0 .1.1 0 .1l-.7.4h-.2l-2.3-1.2zm1.4-.8c-.1 0-.1-.1 0-.1l.7-.4h.2l3.9 2.1c.1 0 .1.1 0 .1l-.7.4h-.2L75 87.1zm1.8 4.2c-.1 0-.1-.1 0-.1l.7-.4h.2l.8.4c.1 0 .1.1 0 .1l-.7.4h-.2l-.8-.4zm-.1-1.7c-.1 0-.1-.1 0-.1l.7-.4h.2l.8.4c.1 0 .1.1 0 .1l-.7.4h-.2l-.8-.4zm-1.4.8c-.1 0-.1-.1 0-.1l.7-.4h.2l.8.4c.1 0 .1.1 0 .1l-.7.4h-.2l-.8-.4zm2.6-3.4c-.1 0-.1-.1 0-.1l.7-.4h.2l.8.4c.1 0 .1.1 0 .1l-.7.4h-.2l-.8-.4z" class="color4c5c75 svgShape"></path><path fill="#431d43" d="M87.1 97.6c0 .1 0 .2-.1.3l-1.3.8L68 77l1.3-.8c.1-.1.2-.1.3 0L86.2 85c.3.1.5.5.5.8l.4 11.8z" class="color1d2943 svgShape"></path><path fill="#6822a2" d="M68.4 77c-.3-.1-.4 0-.4.3l.4 11.9c0 .3.2.6.5.8l16.5 8.8c.3.1.5 0 .4-.3l-.4-11.9c0-.3-.2-.6-.5-.8L68.4 77z" class="color4c5c75 svgShape"></path><path fill="#431d43" d="M76.8 86.2c-.8-.4-1.5 0-1.5.9s.7 2.1 1.6 2.5c.8.4 1.5 0 1.5-.9-.1-.9-.8-2.1-1.6-2.5z" class="color1d2943 svgShape"></path><path fill="#f8fbfe" d="M89.7 96.7v.8l1.4-.8-.1-.8z" class="colorf8f9fe svgShape"></path><path fill="#6822a2" d="m90.9 96 .1.7-.6-.3z" class="color4c5c75 svgShape"></path><path fill="#431d43" d="m91 96.7-1.2.7v-.7l.6-.3z" class="color1d2943 svgShape"></path><path fill="#f8fbfe" d="M87.9 97.8v.8l1.3-.8V97z" class="colorf8f9fe svgShape"></path><path fill="#6822a2" d="m89.1 97.1.1.7h-.1l-.5-.3z" class="color4c5c75 svgShape"></path><path fill="#431d43" d="m89.1 97.8-1.1.7v-.7l.6-.3z" class="color1d2943 svgShape"></path><path fill="#c6ddf5" d="M69.8 90.5s1.8 2.9 5.4 2.9c0 0 1.3-2.6-1.6-4.1s-3.8 1.2-3.8 1.2zM95.8 92.8S91 90 90.5 91.2c-.5 1.2 2 1.6 2 1.6s-3.8-.5-4 .6c-.3 1.3-.1 3.4 3.6 3.3 3.8-.1 4.5-1.7 4.5-1.7l-.8-2.2z" class="colorf5c9c6 svgShape"></path><path fill="#ffffff" d="m98.1 91.3-2.5 1.1c-.8.3.5 3.7 1.3 3.4 0 0 .5-.1 1.2-.2v-4.3z" class="colorffffff svgShape"></path><path fill="#955ec3" d="M109.5 91.1c-2.1 3.1-12.1 4.7-12.1 4.7-.4.1-.9-.6-1.2-1.5-.4-1-.6-2.2-.1-2.3l8.1-3.6c.2-.1.4-.3.4-.6l-.7-13.6c-.1-1.7 1.2-3.2 2.9-3.5h.8c1.5.2 2.8 1.4 3 3 .4 5.2.8 14.5-1.1 17.4z" class="color5ec363 svgShape"></path><path fill="#a061d5" d="M107.4 89.5c-1.7 2.6-8.9 4.4-11.3 4.9-.4-1-.6-2.2-.1-2.3l8.1-3.6c.2-.1.4-.3.4-.6l-.7-13.6c-.1-1.7 1.2-3.2 2.9-3.5h.8c.3.4.4.9.5 1.4.6 5.1 1.2 14.4-.6 17.3z" class="color72d561 svgShape"></path><path fill="#8450b0" d="M88 81.7s4 2.8 6.7 1.9c-2.5 1.5-5.4.6-6.7-1.9z" class="color50b069 svgShape"></path></svg>