<svg xmlns="http://www.w3.org/2000/svg" enable-background="new 0 0 50 50" viewBox="0 0 50 50" id="ShoppingBag"><path fill="#0c2340" d="M36.1,21l0,1.6c0,0.3,0.2,0.7,0.5,0.8s0.5,0,0.5-0.3l0-1.6c0.6,0.6,1,1.4,1,2.2c0,0.9-0.7,1.3-1.5,0.8
				c-0.8-0.5-1.5-1.6-1.5-2.6C35.1,21.3,35.5,20.9,36.1,21z" class="color5f6a4e svgShape"></path><path fill="#f4f6f8" d="M32.6,7c2.4,1.4,4.4,4.8,4.4,7.6l0,7l0,1.6c0,0.3-0.2,0.4-0.5,0.3s-0.5-0.5-0.5-0.8l0-1.6l0-7
					c0-2.2-1.5-4.9-3.4-6c-1.9-1.1-3.5-0.2-3.5,2c0,0.1,0,9.2,0,8.6c0,0.7-1,0.2-1-0.5c0-0.1,0-9.2,0-8.6C28.2,6.7,30.2,5.6,32.6,7z
					" class="colora7a8b4 svgShape"></path><path fill="#0c2340" d="M26.8,16.7c1.6,1.5,1.2,4-0.5,3c-1.7-1-2-3.9-0.5-3.6l0,1.6c0,0.3,0.2,0.7,0.5,0.8c0.3,0.2,0.5,0,0.5-0.3
				L26.8,16.7z" class="color5f6a4e svgShape"></path><polygon fill="#5046e4" points="10.1 13.6 30.8 25.5 34 22.9 41.8 22.8 18.6 10.4 17.5 13.6" class="color0096d1 svgShape"></polygon><polygon fill="#6baced" points="34.3 23.1 42.6 23 42.2 44.7 30.9 40.3 31 25.9" class="color6bd5ed svgShape"></polygon><polygon fill="#d5eaff" points="18.4 10 17.4 13.4 17.8 13.8 17.8 13.8 18.8 10.8 41.1 22.6 33.8 22.7 34.3 23.1 42.6 23" class="colord5ecff svgShape"></polygon><polygon fill="#635ccc" points="26.4 13.4 19.1 9.2 25.5 5.5 32.8 9.7" class="color5cb7cc svgShape"></polygon><polygon fill="#6822a2" points="32.8 9.7 25.5 5.5 22.3 3.4 29.6 7.6" class="color366b77 svgShape"></polygon><polygon fill="#0a0099" points="26.4 13.4 19.1 9.2 22.3 3.4 29.6 7.6" class="color006e99 svgShape"></polygon><polygon fill="#479df4" points="33.3 23.6 26 27.8 25.9 13.3 29.1 7.7 29 5.9 30.1 5.3 30.1 7 33.3 9.1" class="colorf4bb47 svgShape"></polygon><polygon fill="#e51cc0" points="26 27.8 18.6 23.6 18.6 9.1 25.9 13.3" class="colore59c1c svgShape"></polygon><polygon fill="#68b1fa" points="25.9 13.3 18.6 9.1 21.7 3.4 29.1 7.7" class="colorfacf68 svgShape"></polygon><polygon fill="#68b1fa" points="29 5.9 21.7 1.6 22.8 1 30.1 5.3" class="colorfacf68 svgShape"></polygon><polygon fill="#e51cc0" points="29.1 7.7 21.7 3.4 21.7 1.6 29 5.9" class="colore59c1c svgShape"></polygon><polygon fill="#e51cc0" points="29.8 7.3 26.7 12.9 32.9 9.3" class="colore59c1c svgShape"></polygon><path fill="#e64dca" d="M26,27.8l0-7.1c-0.7-0.1-1.3-0.5-1.6-1.3c0,0,0,0,0-0.1c-0.5-1.5-1.7-2.7-3-2.3
					c-0.3,0.1-0.5,0.2-0.7,0.4c-0.3,0.2-1,0.7-2.1,0.4l0,5.7L26,27.8z" class="colore64d56 svgShape"></path><path fill="#a50b89" d="M33.3,23.6l0-2.5c-0.3,0.1-0.9,0-1.5-1.2c-0.7-1.7-2.4-1.8-3.6-0.5c-0.3,0.3-0.6,0.6-0.8,0.8
					c-0.4,0.5-1,0.6-1.5,0.6l0,7.1L33.3,23.6z" class="colord32939 svgShape"></path><path fill="#f4f6f8" d="M29.2 13.2c.3-.1.2.3.2 1.8 0 .1-.1.2-.1.2-.2.1-.1-.3-.1-1.7-.9 3.1-.7 2.6-1.5.9l0 1.6c0 .2-.2.3-.2.1 0-2-.1-1.8.2-2.1.2-.1.1.1.7 1.3C28.9 13.5 28.9 13.4 29.2 13.2L29.2 13.2zM29.9 13.1L29.9 13.1c-.2.1-.2-.2 0-.3l0 0C30.1 12.7 30.1 13 29.9 13.1zM30 13.4c.1 0 0 1.4 0 1.4-.1.1-.2.1-.2 0 0-1.3 0-1.2 0-1.3C29.8 13.4 29.9 13.3 30 13.4zM30.6 12.4c0 1.7.1 1.9-.1 2.1-.2.1-.1-.2-.1-1.9 0 0 0-.1 0-.1C30.5 12.3 30.6 12.3 30.6 12.4zM31.3 13.2c.4-.7.6-1 .7-1.1.4-.2-.2.6-.3.8.3.3.5.4.5.5 0 .1-.1.3-.2.2l-.4-.4-.2.4c0 .3 0 .4 0 .5 0 .1-.1.1-.2.1-.1 0-.1-2 0-2.1C31.1 12 31.3 12.8 31.3 13.2zM21.7 12.9c0 .1 0 .1 0 .2-.1.6.2 2.3-.2 1.7-.1-.1 0 0 0-1.8l-.6 1.3c0 .1-.1.1-.2 0-.1 0-.1-.1-.2-.2l-.6-2c0 1.2.1 1.7 0 1.7-.1 0-.1 0-.2-.1-.1-.1 0 0 0-1.8 0-.2.2-.1.3 0 .1.1 0 0 .6 2.1.6-1.2.5-1.4.7-1.3C21.5 12.7 21.6 12.8 21.7 12.9zM22.4 13.3L22.4 13.3c0 .1-.1.1-.1.1-.1-.1-.1-.1-.1-.2l0 0c0 0 0-.1 0-.1 0 0 .1 0 .1 0l0 0C22.4 13.2 22.4 13.3 22.4 13.3zM22.4 15.1c0 .2-.2 0-.2-.1 0-.8-.1-1.2 0-1.3C22.5 13.5 22.4 15.2 22.4 15.1zM23.1 15.5c0 .1-.1.1-.1.1-.1 0-.1-.1-.1-.2 0-1.4-.1-1.9 0-1.9C23.2 13.3 23 14.3 23.1 15.5zM23.7 15.2l.6-.3c.1 0 .3.2.1.3l-.4.2c.2.4.7 1.3.4 1.1-.1-.1-.1-.1-.5-1l-.2.1 0 .4c0 .1-.1.1-.2 0 0-.1 0-2 0-2.1C23.6 13.8 23.7 14.7 23.7 15.2z" class="colorffffff svgShape"></path><polygon fill="#6baced" points="31 25.9 29 49 7.4 36.6 9.3 13.4" class="color6bd5ed svgShape"></polygon><polygon fill="#4439ea" points="31 25.9 29 49 35.6 44.6 42.2 44.7 34.8 41 34.3 23.1" class="color39bcea svgShape"></polygon><polygon fill="#5046e4" points="29 49 34.8 41 42.2 44.7 35.6 44.6" class="color0096d1 svgShape"></polygon><polygon fill="#4439ea" points="17.8 13.8 15.4 16.4 10.8 13.7" class="color39bcea svgShape"></polygon><path fill="#5046e4" d="M22.3 24l0 1.6c0 .3.2.7.5.8s.5 0 .5-.3l0-1.6c.6.6 1 1.4 1 2.2 0 .9-.7 1.3-1.5.8C22 27.1 21.3 26 21.3 25 21.3 24.3 21.7 23.9 22.3 24zM15.4 20c.6.6 1 1.4 1 2.2 0 .9-.7 1.3-1.5.9-.8-.5-1.5-1.6-1.5-2.6 0-.7.4-1.1 1-1l0 1.6c0 .3.2.7.5.8.3.2.5 0 .5-.3L15.4 20z" class="color0096d1 svgShape"></path><polygon fill="#d5eaff" points="30.6 25.2 10.8 13.7 17.8 13.8 17.4 13.4 17.4 13.4 9.3 13.4 31 25.9 34.3 23.1 33.8 22.7" class="colord5ecff svgShape"></polygon><path fill="#d7dce1" d="M18.9,9.9c2.4,1.4,4.4,4.8,4.4,7.6l0,7l0,1.6c0,0.3-0.2,0.4-0.5,0.3s-0.5-0.5-0.5-0.8l0-1.6l0-7
			c0-5.3-6.9-9.2-6.9-4l0,7l0,1.6c0,0.3-0.2,0.4-0.5,0.3c-0.3-0.2-0.5-0.5-0.5-0.8l0-1.6l0-7C14.4,9.7,16.4,8.5,18.9,9.9z" class="colord7d9e1 svgShape"></path></svg>