<svg xmlns="http://www.w3.org/2000/svg" xmlns:xlink="http://www.w3.org/1999/xlink" viewBox="0 0 1289.15 1105.919" id="Socialmediamarketinganalysis"><defs><linearGradient id="a" x1="389.274" x2="475.518" y1="556.336" y2="556.336" gradientUnits="userSpaceOnUse"><stop offset="0" stop-color="#c2d2e3" class="stopColorc2c7e3 svgShape"></stop><stop offset=".253" stop-color="#dde6ef" class="stopColordde0ef svgShape"></stop><stop offset=".543" stop-color="#f6f8fb" class="stopColorf6f7fb svgShape"></stop><stop offset=".719" stop-color="#ffffff" class="stopColorffffff svgShape"></stop></linearGradient><linearGradient id="e" x1="519.453" x2="709.487" y1="481.178" y2="481.178" xlink:href="#a"></linearGradient><linearGradient id="f" x1="454.364" x2="584.377" y1="518.757" y2="518.757" xlink:href="#a"></linearGradient><linearGradient id="g" x1="342.871" x2="1289.15" y1="696.065" y2="696.065" gradientUnits="userSpaceOnUse"><stop offset="0" stop-color="#c4d4e4" class="stopColorc4c9e4 svgShape"></stop><stop offset=".236" stop-color="#cad8e7" class="stopColorcacee7 svgShape"></stop><stop offset=".541" stop-color="#dae4ee" class="stopColordaddee svgShape"></stop><stop offset=".881" stop-color="#f4f6f8" class="stopColorf4f5fa svgShape"></stop><stop offset="1" stop-color="#ffffff" class="stopColorffffff svgShape"></stop></linearGradient><linearGradient id="h" x1="389.676" x2="643.413" y1="942.266" y2="942.266" gradientUnits="userSpaceOnUse"><stop offset="0" stop-color="#d1e0f0" class="stopColord1d6f0 svgShape"></stop><stop offset=".29" stop-color="#d5e3f1" class="stopColord5daf1 svgShape"></stop><stop offset=".592" stop-color="#e2ebf5" class="stopColore2e5f5 svgShape"></stop><stop offset=".899" stop-color="#f6f9fc" class="stopColorf6f7fc svgShape"></stop><stop offset="1" stop-color="#ffffff" class="stopColorffffff svgShape"></stop></linearGradient><linearGradient id="b" x1="451.444" x2="541.597" y1="906.715" y2="906.715" gradientUnits="userSpaceOnUse"><stop offset="0" stop-color="#bbcee2" class="stopColorbbbfe2 svgShape"></stop><stop offset="1" stop-color="#cee1f4" class="stopColorced2f4 svgShape"></stop></linearGradient><linearGradient id="i" x1="578.753" x2="603.986" y1="956.013" y2="956.013" gradientUnits="userSpaceOnUse"><stop offset="0" stop-color="#a5bcd4" class="stopColora5acd4 svgShape"></stop><stop offset=".635" stop-color="#bed2e7" class="stopColorbec3e7 svgShape"></stop><stop offset="1" stop-color="#cee1f4" class="stopColorced2f4 svgShape"></stop></linearGradient><linearGradient id="j" x1="389.676" x2="415.028" y1="956.044" y2="956.044" xlink:href="#b"></linearGradient><linearGradient id="k" x1="536.609" x2="569.003" y1="979.417" y2="979.417" gradientUnits="userSpaceOnUse"><stop offset="0" stop-color="#a5bcd4" class="stopColora5acd4 svgShape"></stop><stop offset=".516" stop-color="#bcd1e6" class="stopColorbcc2e6 svgShape"></stop><stop offset="1" stop-color="#cee1f4" class="stopColorced2f4 svgShape"></stop></linearGradient><linearGradient id="l" x1="424.972" x2="457.425" y1="979.453" y2="979.453" xlink:href="#b"></linearGradient><linearGradient id="m" x1="479.481" x2="514.65" y1="988.908" y2="988.908" xlink:href="#b"></linearGradient><linearGradient id="n" x1="432.633" x2="560.412" y1="894.429" y2="894.429" xlink:href="#b"></linearGradient><linearGradient id="o" x1="1107.54" x2="1258.419" y1="208.064" y2="469.395" gradientUnits="userSpaceOnUse"><stop offset=".573" stop-color="#50a7ff" class="stopColorffe950 svgShape"></stop><stop offset=".605" stop-color="#3c9af8" class="stopColorf8d33c svgShape"></stop><stop offset=".703" stop-color="#e100b8" class="stopColore19100 svgShape"></stop></linearGradient><linearGradient id="p" x1="756.614" x2="1133.405" y1="49.799" y2="702.42" gradientUnits="userSpaceOnUse"><stop offset=".576" stop-color="#857dfb" class="stopColor807dfb svgShape"></stop><stop offset=".612" stop-color="#193f6f" class="stopColor20196f svgShape"></stop></linearGradient><linearGradient id="q" x1="322.38" x2="1088.276" y1="778.212" y2="778.212" gradientUnits="userSpaceOnUse"><stop offset=".562" stop-color="#5a52cc" class="stopColor5652cc svgShape"></stop><stop offset=".612" stop-color="#193f6f" class="stopColor20196f svgShape"></stop></linearGradient><linearGradient id="r" x1="501.414" x2="716.488" y1="39.126" y2="411.645" gradientUnits="userSpaceOnUse"><stop offset=".551" stop-color="#5a52cc" class="stopColor5652cc svgShape"></stop><stop offset=".596" stop-color="#6a3199" class="stopColor393199 svgShape"></stop><stop offset=".6" stop-color="#662e94" class="stopColor362e94 svgShape"></stop></linearGradient><linearGradient id="s" x1="491.724" x2="544.135" y1="432.63" y2="432.63" gradientUnits="userSpaceOnUse"><stop offset="0" stop-color="#fc06cf" class="stopColorfcba06 svgShape"></stop><stop offset="1" stop-color="#dc00b4" class="stopColordc8b00 svgShape"></stop></linearGradient><linearGradient id="t" x1="426.635" x2="479.045" y1="491.227" y2="491.227" gradientUnits="userSpaceOnUse"><stop offset="0" stop-color="#cce1f6" class="stopColorccd1f6 svgShape"></stop><stop offset="1" stop-color="#a1b7ce" class="stopColora1a7ce svgShape"></stop></linearGradient><linearGradient id="u" x1="361.546" x2="413.956" y1="545.723" y2="545.723" gradientUnits="userSpaceOnUse"><stop offset="0" stop-color="#5a52cc" class="stopColor5652cc svgShape"></stop><stop offset="1" stop-color="#7c3eaf" class="stopColor423eaf svgShape"></stop></linearGradient><linearGradient id="v" x1="992.797" x2="1153.436" y1="920.448" y2="920.448" gradientTransform="translate(42.41)" xlink:href="#a"></linearGradient><linearGradient id="w" x1="884.709" x2="1038.46" y1="950.818" y2="950.818" gradientTransform="translate(97.637)" xlink:href="#a"></linearGradient><linearGradient id="x" x1="776.618" x2="918.131" y1="981.191" y2="981.191" gradientTransform="translate(152.864)" xlink:href="#a"></linearGradient><linearGradient id="y" x1="1045.659" x2="1206.298" y1="890.074" y2="890.074" gradientTransform="translate(42.41)" xlink:href="#a"></linearGradient><linearGradient id="z" x1="719.737" x2="951.741" y1="1038.945" y2="1038.945" gradientUnits="userSpaceOnUse"><stop offset=".471" stop-color="#c2d2e3" class="stopColorc2c7e3 svgShape"></stop><stop offset=".657" stop-color="#dde6ef" class="stopColordde0ef svgShape"></stop><stop offset=".87" stop-color="#f6f8fb" class="stopColorf6f7fb svgShape"></stop><stop offset="1" stop-color="#ffffff" class="stopColorffffff svgShape"></stop></linearGradient><linearGradient id="c" x1="945.442" x2="945.452" y1="1048.937" y2="1048.937" gradientUnits="userSpaceOnUse"><stop offset=".561" stop-color="#5a52cc" class="stopColor5652cc svgShape"></stop><stop offset=".661" stop-color="#662e94" class="stopColor362e94 svgShape"></stop></linearGradient><linearGradient id="A" x1="713.448" x2="945.452" y1="1062.844" y2="1062.844" xlink:href="#c"></linearGradient><linearGradient id="B" x1="681.979" x2="768.76" y1="-13.054" y2="137.255" gradientUnits="userSpaceOnUse"><stop offset=".55" stop-color="#f6f8fb" class="stopColorf6f6fb svgShape"></stop><stop offset=".597" stop-color="#dde7f2" class="stopColordddff2 svgShape"></stop><stop offset=".655" stop-color="#c4d6e9" class="stopColorc4c8e9 svgShape"></stop><stop offset=".69" stop-color="#bbd0e6" class="stopColorbbc0e6 svgShape"></stop></linearGradient><linearGradient id="C" x1="925.732" x2="998.5" y1="999.677" y2="999.677" gradientTransform="translate(-779.578)" gradientUnits="userSpaceOnUse"><stop offset="0" stop-color="#c4d4e5" class="stopColorc4c9e5 svgShape"></stop><stop offset=".286" stop-color="#d0ddea" class="stopColord0d4ea svgShape"></stop><stop offset=".807" stop-color="#f1f5f9" class="stopColorf1f2f9 svgShape"></stop><stop offset="1" stop-color="#ffffff" class="stopColorffffff svgShape"></stop></linearGradient><linearGradient id="D" x1="169.852" x2="242.62" y1="1009.012" y2="1009.012" gradientTransform="matrix(-1 0 0 1 374.59 0)" gradientUnits="userSpaceOnUse"><stop offset="0" stop-color="#7c3eaf" class="stopColor423eaf svgShape"></stop><stop offset=".128" stop-color="#4a43b6" class="stopColor4743b6 svgShape"></stop><stop offset=".318" stop-color="#5951ca" class="stopColor5551ca svgShape"></stop><stop offset=".333" stop-color="#5a52cc" class="stopColor5652cc svgShape"></stop></linearGradient><linearGradient id="E" x1="765.235" x2="813.083" y1="418.626" y2="335.751" gradientTransform="translate(-707.417)" gradientUnits="userSpaceOnUse"><stop offset="0" stop-color="#cee3f8" class="stopColorced3f8 svgShape"></stop><stop offset=".765" stop-color="#ecf3fa" class="stopColorecedfa svgShape"></stop><stop offset="1" stop-color="#f6f8fb" class="stopColorf6f6fb svgShape"></stop></linearGradient><linearGradient id="F" x1="324.516" x2="427.351" y1="261.472" y2="440.775" gradientTransform="matrix(-1 0 0 1 627.636 0)" gradientUnits="userSpaceOnUse"><stop offset="0" stop-color="#3e9eff" class="stopColorffd03e svgShape"></stop><stop offset=".147" stop-color="#3097fe" class="stopColorfecb30 svgShape"></stop><stop offset=".458" stop-color="#198bfd" class="stopColorfdc119 svgShape"></stop><stop offset=".75" stop-color="#fc0bd0" class="stopColorfcbc0b svgShape"></stop><stop offset="1" stop-color="#fc06cf" class="stopColorfcba06 svgShape"></stop></linearGradient><linearGradient id="G" x1="260.141" x2="449.277" y1="785.375" y2="785.375" gradientUnits="userSpaceOnUse"><stop offset=".011" stop-color="#c0d4e9" class="stopColorc0c9e9 svgShape"></stop><stop offset=".547" stop-color="#e5edf6" class="stopColore5e8f6 svgShape"></stop><stop offset="1" stop-color="#ffffff" class="stopColorffffff svgShape"></stop></linearGradient><linearGradient id="H" x1="326.573" x2="358.616" y1="594.172" y2="649.671" gradientUnits="userSpaceOnUse"><stop offset=".006" stop-color="#5951ce" class="stopColor5651ce svgShape"></stop><stop offset="1" stop-color="#123c72" class="stopColor1d1272 svgShape"></stop></linearGradient><linearGradient id="I" x1="344.075" x2="376.116" y1="584.069" y2="639.567" gradientUnits="userSpaceOnUse"><stop offset=".006" stop-color="#3e9eff" class="stopColorffd03e svgShape"></stop><stop offset="1" stop-color="#dc00b4" class="stopColordc8b00 svgShape"></stop></linearGradient><linearGradient id="J" x1="254.763" x2="318.73" y1="598.779" y2="709.573" gradientUnits="userSpaceOnUse"><stop offset=".421" stop-color="#867efd" class="stopColor807efd svgShape"></stop><stop offset=".452" stop-color="#8078f6" class="stopColor7a78f6 svgShape"></stop><stop offset=".496" stop-color="#6f67e3" class="stopColor6b67e3 svgShape"></stop><stop offset=".547" stop-color="#544cc4" class="stopColor514cc4 svgShape"></stop><stop offset=".573" stop-color="#7d3cb2" class="stopColor423cb2 svgShape"></stop></linearGradient><linearGradient id="d" x1="275.667" x2="322.048" y1="604.708" y2="604.708" gradientUnits="userSpaceOnUse"><stop offset=".006" stop-color="#123c72" class="stopColor1d1272 svgShape"></stop><stop offset=".242" stop-color="#7d3cb2" class="stopColor423cb2 svgShape"></stop></linearGradient><linearGradient id="K" x1="261.033" x2="307.414" y1="613.157" y2="613.157" xlink:href="#d"></linearGradient><linearGradient id="L" x1="246.399" x2="292.781" y1="621.607" y2="621.607" xlink:href="#d"></linearGradient><linearGradient id="M" x1="231.766" x2="278.147" y1="630.057" y2="630.057" xlink:href="#d"></linearGradient><linearGradient id="N" x1="84.187" x2="221.469" y1="612.111" y2="849.891" gradientUnits="userSpaceOnUse"><stop offset="0" stop-color="#3e9eff" class="stopColorffd03e svgShape"></stop><stop offset=".758" stop-color="#dc00b4" class="stopColordc8b00 svgShape"></stop></linearGradient><linearGradient id="O" x1="146.55" x2="262.814" y1="601.427" y2="802.803" gradientUnits="userSpaceOnUse"><stop offset="0" stop-color="#f4f6f9" class="stopColorf4f4f9 svgShape"></stop><stop offset=".192" stop-color="#e3ebf4" class="stopColore3e5f4 svgShape"></stop><stop offset=".702" stop-color="#b9cfe6" class="stopColorb9c0e6 svgShape"></stop></linearGradient><linearGradient id="P" x1="-65.829" x2="138.372" y1="531.548" y2="885.234" gradientUnits="userSpaceOnUse"><stop offset=".697" stop-color="#dc00b4" class="stopColordc8b00 svgShape"></stop><stop offset="1" stop-color="#3e9eff" class="stopColorffd03e svgShape"></stop></linearGradient><linearGradient id="Q" x1="162.511" x2="36.593" y1="725.896" y2="798.603" gradientUnits="userSpaceOnUse"><stop offset="0" stop-color="#7d3cb2" class="stopColor423cb2 svgShape"></stop><stop offset=".42" stop-color="#6159d3" class="stopColor5d59d3 svgShape"></stop><stop offset="1" stop-color="#867efd" class="stopColor807efd svgShape"></stop></linearGradient><linearGradient id="R" x1="15.783" x2="175.454" y1="583.271" y2="859.829" gradientUnits="userSpaceOnUse"><stop offset=".416" stop-color="#a0b8d0" class="stopColora0a9d0 svgShape"></stop><stop offset="1" stop-color="#cbe1f7" class="stopColorcbd2f7 svgShape"></stop></linearGradient><linearGradient id="S" x1="120.953" x2="159.824" y1="704.959" y2="772.286" gradientUnits="userSpaceOnUse"><stop offset="0" stop-color="#eff1f4" class="stopColorefeff4 svgShape"></stop><stop offset=".25" stop-color="#e8edf2" class="stopColore8e9f2 svgShape"></stop><stop offset=".609" stop-color="#d5e1ed" class="stopColord5d9ed svgShape"></stop><stop offset="1" stop-color="#b9cfe6" class="stopColorb9c0e6 svgShape"></stop></linearGradient><linearGradient id="T" x1="91.746" x2="130.653" y1="721.822" y2="789.212" gradientUnits="userSpaceOnUse"><stop offset="0" stop-color="#f4f6f9" class="stopColorf4f4f9 svgShape"></stop><stop offset=".301" stop-color="#edf3f9" class="stopColoredeef9 svgShape"></stop><stop offset=".731" stop-color="#dae9f8" class="stopColordadff8 svgShape"></stop><stop offset="1" stop-color="#cbe1f7" class="stopColorcbd2f7 svgShape"></stop></linearGradient><linearGradient id="U" x1="129.874" x2="168.745" y1="699.808" y2="767.136" gradientUnits="userSpaceOnUse"><stop offset="0" stop-color="#d6e5f4" class="stopColord6dff4 svgShape"></stop><stop offset="1" stop-color="#ffffff" class="stopColorffffff svgShape"></stop></linearGradient></defs><g style="isolation:isolate" fill="#f4f6f8" class="color000000 svgShape"><g fill="#f4f6f8" class="color000000 svgShape"><g data-name="Shadows from columns" fill="#f4f6f8" class="color000000 svgShape"><path d="M467.837 545.636c-5.114-2.953-11.82-4.428-18.526-4.428h-60.037v30.256h60.037c6.706 0 13.412-1.478 18.53-4.431 5.118-2.957 7.677-6.827 7.677-10.697 0-3.873-2.56-7.743-7.681-10.7Z" style="mix-blend-mode:multiply" fill="url(#a)"></path><path d="M701.806 470.478c-5.114-2.953-11.82-4.428-18.526-4.428H519.453v30.256H683.28c6.706 0 13.412-1.478 18.53-4.43 5.118-2.958 7.677-6.828 7.677-10.698 0-3.873-2.559-7.743-7.68-10.7Z" style="mix-blend-mode:multiply" fill="url(#e)"></path><path d="M576.696 508.057c-5.114-2.953-11.82-4.428-18.526-4.428H454.364v30.256H558.17c6.706 0 13.412-1.478 18.53-4.43 5.118-2.958 7.677-6.828 7.677-10.698 0-3.873-2.559-7.743-7.681-10.7Z" style="mix-blend-mode:multiply" fill="url(#f)"></path></g><path d="m1289.15 489.993-23.82-13.752c-7.102-4.1-24.529-7.453-38.736-7.453H659.915c-14.204 0-311.72 186.134-311.72 186.134-7.099 4.102-7.099 10.809 0 14.911l433.767 250.434a26.467 26.467 0 0 0 12.994 3.075h11.28l305.37-176.307 12.605-7.279h164.939Z" style="mix-blend-mode:multiply" fill="url(#g)" data-name="Shadow from laptop"></path><g data-name="Middle size gear" fill="#f4f6f8" class="color000000 svgShape"><path d="M618.363 968.627a9.913 9.913 0 0 1 3.455-2.271h15.23l6.365-13.93-5.738-.886a15.98 15.98 0 0 1-5.363-1.778c-1.847-1.066-3.213-2.608-3.186-4.719a36.496 36.496 0 0 0-.016-5.547c-.124-3.976 4.739-5.922 8.438-6.5l5.75-.892-6.521-13.92h-15.216a11.463 11.463 0 0 1-1.449-.696 9.413 9.413 0 0 1-2.046-1.575 61.866 61.866 0 0 0-4.815-4.81c-3.542-3.424-1.005-6.523 1.696-8.093l4.189-2.434-17.655-10.193-4.188 2.434a17.38 17.38 0 0 1-13.96 1.014q-4.073-1.514-8.325-2.778a14.236 14.236 0 0 1-2.727-1.18c-3.39-1.957-3.564-4.572-2.767-6.33l1.52-3.316-24.062-3.737-1.52 3.325c-.972 2.145-4.314 4.977-11.18 4.927a188.011 188.011 0 0 0-9.575-.01 15.937 15.937 0 0 1-8.175-1.823 7.43 7.43 0 0 1-3.084-3.09l-1.55-3.329-24.02 3.737 1.558 3.316c1.004 2.15.562 5.565-5.41 7.51q-4.234 1.262-8.294 2.778a17.438 17.438 0 0 1-13.963-1.009l-4.224-2.438-17.54 10.193 4.216 2.433c2.72 1.57 5.29 4.67 1.795 8.09a60.477 60.477 0 0 0-4.768 4.813c-3.331 3.461-9.219 3.733-12.924 3.163l-5.761-.892-6.366 13.921 5.746.891a15.994 15.994 0 0 1 5.358 1.778c1.844 1.065 3.21 2.605 3.192 4.719a35.498 35.498 0 0 0 .008 5.542 4.654 4.654 0 0 1-1.584 3.591h-39.23v17.73h33.147v.001h15.224a11.51 11.51 0 0 1 1.43.688 9.43 9.43 0 0 1 2.049 1.578 61.497 61.497 0 0 0 4.83 4.81 6.159 6.159 0 0 1 1.397 1.91h-22.782v18.805h34.46v-.763l2.876-1.67a17.38 17.38 0 0 1 13.967-1.01c1.056.392 2.13.763 3.206 1.132v16.204h32.944v-.031l.203.031 1.52-3.325a5.255 5.255 0 0 1 .417-.727v4.052h33.148l24.02-3.727-1.558-3.326c-.899-1.915-.626-4.85 3.722-6.84h28.168l17.54-10.193-4.208-2.43c-2.727-1.574-5.298-4.673-1.803-8.093a58.251 58.251 0 0 0 4.769-4.805Zm-56.517-7.855c-17.663 10.264-46.418 10.273-64.203.005-17.786-10.269-17.872-26.93-.21-37.194 17.679-10.273 46.426-10.269 64.211 0s17.88 26.915.202 37.189Z" style="mix-blend-mode:multiply" fill="url(#h)"></path><path fill="url(#b)" d="M528.298 893.795c-17.662-10.197-46.21-10.202-63.765 0-15.612 9.073-17.247 23.174-4.965 33.356a36.937 36.937 0 0 1 4.965-3.438c17.556-10.202 46.103-10.198 63.765 0a37.366 37.366 0 0 1 5.167 3.573c12.36-10.194 10.626-24.373-5.167-33.491Z"></path><path fill="#bbcee2" d="M536.452 853.53a4.37 4.37 0 0 0-.395 1.784l-.085 30.014a4.363 4.363 0 0 1 .395-1.785l1.52-3.316.085-30.014ZM456.363 853.53l-1.557-3.316-.085 30.013 1.557 3.316a4.378 4.378 0 0 1 .419 1.86l.085-30.014a4.374 4.374 0 0 0-.419-1.86ZM581.885 872.996c-1.75 1.017-3.429 2.674-3.435 4.646l-.085 30.014c.006-1.972 1.686-3.63 3.435-4.646l4.188-2.434.085-30.014Z" class="colorbbbfe2 svgShape"></path><path fill="#cee1f4" d="m411.149 872.997-4.216-2.434-.085 30.014 4.216 2.433c1.78 1.028 3.495 2.71 3.49 4.708l.085-30.013c.005-1.999-1.71-3.68-3.49-4.708Z" class="colorced2f4 svgShape"></path><path fill="#bbcee2" d="M604.485 902.982c-3.648.571-8.429 2.472-8.44 6.34l-.085 30.013c.011-3.868 4.792-5.769 8.44-6.34l5.752-.891.085-30.013Z" class="colorbbbfe2 svgShape"></path><path fill="#0c2340" d="m596.161 912.486-.085 30.013q-.004 1.272-.098 2.544l.085-30.013q.095-1.272.098-2.544Z" class="color242d3c svgShape"></path><path fill="#cee1f4" d="m397.406 914.442.015-4.963c.018-2.113-1.348-3.654-3.192-4.719a15.997 15.997 0 0 0-5.358-1.777l-5.746-.891-.085 30.013 5.746.891a15.991 15.991 0 0 1 5.357 1.778 5.86 5.86 0 0 1 3.098 3.797l-.01 3.507q-.004 1.481.112 2.957l.085-30.014c-.014-.192-.01-.386-.022-.58Z" class="colorced2f4 svgShape"></path><path fill="#0c2340" d="m397.43 915.174-.085 30.014c0-.05 0-.102-.002-.153l.085-30.014q.003.077.002.153Z" class="color242d3c svgShape"></path><path fill="#bbcee2" d="m610.351 922.413-.085 30.013-6.365 13.93.085-30.013 6.365-13.93z" class="colorbbbfe2 svgShape"></path><path fill="#cee1f4" d="m389.762 936.343-.086 30.014-6.514-13.925.085-30.014 6.515 13.925z" class="colorced2f4 svgShape"></path><path fill="url(#i)" d="M598.232 935.447c-3.705-.57-9.6-.303-12.932 3.167a58.282 58.282 0 0 1-4.768 4.804 4.79 4.79 0 0 0-1.694 3.38l-.085 30.014a4.79 4.79 0 0 1 1.694-3.38 58.28 58.28 0 0 0 4.768-4.805c3.331-3.47 9.227-3.737 12.932-3.167l5.754.896.085-30.013Z"></path><path fill="url(#j)" d="M413.295 943.419a61.499 61.499 0 0 1-4.83-4.809 9.43 9.43 0 0 0-2.05-1.579c-3.387-1.955-7.895-2.05-10.926-1.583l-5.728.895-.085 30.014 5.728-.896c3.03-.467 7.539-.372 10.926 1.584a9.43 9.43 0 0 1 2.05 1.578 61.497 61.497 0 0 0 4.83 4.81 4.813 4.813 0 0 1 1.733 3.44l.085-30.014a4.815 4.815 0 0 0-1.733-3.44Z"></path><path fill="#bbcee2" d="m586.543 953.941-.085 30.014-17.54 10.193.085-30.014 17.54-10.193z" class="colorbbbfe2 svgShape"></path><path fill="#cee1f4" d="m425.057 964.135-.085 30.013-17.654-10.192.085-30.014 17.654 10.193z" class="colorced2f4 svgShape"></path><path fill="url(#k)" d="M564.78 961.696a17.43 17.43 0 0 0-13.963-1q-4.045 1.507-8.295 2.778c-4.439 1.446-5.822 3.704-5.828 5.647l-.085 30.013c.006-1.943 1.39-4.2 5.828-5.647q4.246-1.269 8.295-2.778a17.43 17.43 0 0 1 13.963 1l4.223 2.439.085-30.014Z"></path><path fill="url(#l)" d="M454.26 964.654a14.305 14.305 0 0 0-2.737-1.184q-4.249-1.263-8.31-2.778a17.38 17.38 0 0 0-13.968 1.009l-4.188 2.434-.085 30.013 4.188-2.434a17.38 17.38 0 0 1 13.967-1.009q4.062 1.507 8.31 2.778a14.299 14.299 0 0 1 2.738 1.184c2.367 1.367 3.169 3.052 3.164 4.543l.086-30.014c.004-1.49-.798-3.176-3.165-4.542Z"></path><path fill="#bbcee2" d="m538.67 974.3-.085 30.014-24.02 3.727.086-30.013 24.019-3.728z" class="colorbbbfe2 svgShape"></path><path fill="url(#m)" d="M513.093 974.703a7.393 7.393 0 0 0-3.082-3.1 15.927 15.927 0 0 0-8.169-1.818c-3.178.077-6.38.077-9.576-.009-6.857-.045-10.192 2.782-11.18 4.927l-1.52 3.325-.085 30.013 1.52-3.325c.988-2.144 4.322-4.972 11.18-4.927 3.195.087 6.397.086 9.576.01a15.926 15.926 0 0 1 8.168 1.818 7.393 7.393 0 0 1 3.083 3.1l1.557 3.324.085-30.013Z"></path><path fill="#f0f2f5" d="m582.335 951.512 4.208 2.43-17.54 10.192-4.223-2.438a17.43 17.43 0 0 0-13.963-1q-4.045 1.507-8.295 2.778c-5.972 1.945-6.413 5.36-5.41 7.5l1.558 3.326-24.02 3.728-1.557-3.325a7.393 7.393 0 0 0-3.082-3.1 15.928 15.928 0 0 0-8.169-1.818c-3.178.077-6.38.077-9.576-.009-6.857-.045-10.192 2.782-11.18 4.927l-1.52 3.325-24.061-3.728 1.527-3.33c.796-1.756.613-4.362-2.772-6.316a14.305 14.305 0 0 0-2.737-1.184q-4.249-1.263-8.31-2.778a17.38 17.38 0 0 0-13.968 1.009l-4.188 2.434-17.654-10.193 4.188-2.434c2.701-1.57 5.238-4.669 1.704-8.089a61.53 61.53 0 0 1-4.83-4.809 9.437 9.437 0 0 0-2.05-1.579c-3.387-1.955-7.895-2.05-10.926-1.583l-5.727.895-6.515-13.925 5.736-.89c3.699-.58 8.562-2.525 8.445-6.507a35.503 35.503 0 0 1-.007-5.542c.018-2.113-1.348-3.654-3.192-4.719a15.999 15.999 0 0 0-5.358-1.777l-5.746-.891 6.365-13.921 5.762.891c3.705.57 9.592.299 12.924-3.162a60.48 60.48 0 0 1 4.768-4.814c3.496-3.42.924-6.52-1.795-8.089l-4.215-2.434 17.539-10.193 4.224 2.439a17.438 17.438 0 0 0 13.962 1.009q4.057-1.514 8.295-2.778c5.972-1.946 6.413-5.361 5.41-7.51l-1.558-3.316 24.02-3.737 1.55 3.33a7.429 7.429 0 0 0 3.084 3.089 15.939 15.939 0 0 0 8.174 1.823 188.02 188.02 0 0 1 9.576.01c6.866.05 10.208-2.783 11.18-4.927l1.52-3.326 24.062 3.737-1.52 3.316c-.797 1.758-.624 4.373 2.767 6.33a14.253 14.253 0 0 0 2.726 1.18q4.249 1.263 8.327 2.778a17.38 17.38 0 0 0 13.959-1.013l4.188-2.435 17.654 10.193-4.188 2.434c-2.701 1.57-5.238 4.67-1.696 8.094a61.864 61.864 0 0 1 4.815 4.809 9.409 9.409 0 0 0 2.046 1.576c3.391 1.958 7.911 2.053 10.937 1.582l5.728-.887 6.522 13.92-5.752.892c-3.699.579-8.561 2.524-8.437 6.501a36.54 36.54 0 0 1 .015 5.547c-.026 2.11 1.34 3.652 3.187 4.719a15.974 15.974 0 0 0 5.363 1.777l5.738.887-6.365 13.93-5.754-.896c-3.705-.57-9.6-.303-12.932 3.167a58.31 58.31 0 0 1-4.768 4.804c-3.496 3.42-.924 6.52 1.803 8.094ZM464.58 930.763c17.785 10.269 46.54 10.26 64.203-.005 17.678-10.273 17.584-26.92-.202-37.189-17.786-10.268-46.533-10.273-64.21 0-17.663 10.265-17.577 26.925.209 37.194Z" class="colorf0f0f5 svgShape"></path><path fill="#cee1f4" d="m479.566 978.028-.085 30.013-24.062-3.727.086-30.014 24.061 3.728z" class="colorced2f4 svgShape"></path><path fill="#e0e5eb" d="M541.563 888.494c-25.035-14.454-65.493-14.463-90.382 0-11.843 6.883-18.004 15.807-18.517 24.828.485 9.13 6.747 18.184 18.812 25.15 25.035 14.455 65.501 14.44 90.366-.01 11.856-6.889 18.021-15.812 18.534-24.831-.486-9.124-6.75-18.172-18.813-25.137Zm-13.065 42.264c-17.54 10.193-46.094 10.202-63.757.005-8.357-4.825-12.773-11.071-13.254-17.393.5-6.246 4.845-12.4 13.046-17.167 17.556-10.202 46.103-10.197 63.765 0 8.357 4.825 12.774 11.068 13.256 17.388-.5 6.243-4.848 12.397-13.056 17.167Z" class="colore0e0eb svgShape"></path><path fill="url(#n)" d="M451.181 888.494c24.889-14.463 65.347-14.454 90.382 0 12.057 6.961 18.32 16.003 18.813 25.123.573-9.92-5.694-19.957-18.813-27.531-25.035-14.455-65.493-14.464-90.382 0-12.888 7.49-19.045 17.397-18.517 27.217.521-9.015 6.682-17.931 18.517-24.809Z"></path></g><g data-name="Speech bubble" fill="#f4f6f8" class="color000000 svgShape"><path fill="#fc06cf" d="m1066.698 239.023 168.689 97.392c8.522 4.921 15.496 17 15.496 26.843v103.11c0 9.842-6.974 13.87-15.496 8.947l-92.976-53.678-22.583 13.039v-26.077l-53.13-30.675c-8.524-4.922-15.5-17-15.5-26.844V247.97c0-9.842 6.976-13.869 15.5-8.947Z" class="colorfcba06 svgShape"></path><path fill="#a50b89" d="M1246.236 476.422v.007l.057-.033c-.018.01-.039.016-.057.026Z" class="coloreb975a svgShape"></path><path fill="url(#o)" d="m1243.535 331.71-168.689-97.393c-4.532-2.616-8.614-2.681-11.453-.71l.005-.031-7.51 4.31.012.004c2.798-1.533 6.606-1.286 10.798 1.133l168.689 97.392c8.522 4.921 15.496 17 15.496 26.843v103.11c0 4.9-1.731 8.355-4.519 9.987l8.072-4.66c.028-.018.056-.033.084-.05l.118-.068-.016-.002c2.722-1.656 4.41-5.077 4.41-9.912V358.552c0-9.842-6.972-21.922-15.497-26.843Z"></path><path fill="#5c55c4" d="M1147.261 319.402c0-2.41 1.693-3.389 3.78-2.183a8.354 8.354 0 0 1 3.78 6.549c0 2.41-1.69 3.389-3.78 2.182a8.36 8.36 0 0 1-3.78-6.548ZM1126.89 307.64c0-2.411 1.693-3.388 3.78-2.182a8.36 8.36 0 0 1 3.78 6.548c0 2.411-1.693 3.39-3.78 2.183a8.36 8.36 0 0 1-3.78-6.549ZM1175.193 335.53a8.353 8.353 0 0 0-3.78-6.55c-2.087-1.205-3.78-.227-3.78 2.183a8.358 8.358 0 0 0 3.78 6.549c2.09 1.206 3.78.23 3.78-2.183ZM1074.878 301.918l152.329 87.948v6.811l-152.329-87.948v-6.811zM1074.878 321.064l152.329 87.948v6.811l-152.329-87.948v-6.811zM1097.968 353.542l106.147 61.284v6.811l-106.147-61.284v-6.811z" class="color5655c4 svgShape"></path><path d="m1106.929 358.925-55.73-32.175v24.33c0 9.844 6.975 21.922 15.5 26.844l53.129 30.675v26.077l.016-.01v-53.375c0-8.2-5.813-18.265-12.915-22.366Z" style="mix-blend-mode:multiply" fill="#dae7f5" class="colordae0f5 svgShape"></path></g><g fill="#f4f6f8" class="color000000 svgShape"><path fill="#7c3eaf" d="M1094.353 718.816c0 8.202-5.813 11.555-12.915 7.456L647.674 475.838c-7.106-4.1-12.913-14.164-12.913-22.365V126.301c0-8.201 5.807-11.556 12.913-7.456l433.764 250.434c7.102 4.1 12.915 14.166 12.915 22.366Z" class="color423eaf svgShape"></path><path fill="url(#p)" d="M1091.186 363.652 657.42 113.218c-3.598-2.076-6.857-2.235-9.206-.827v-.007l-9.277 5.38.026.004c2.3-1.114 5.355-.86 8.712 1.077l433.764 250.434c7.102 4.1 12.915 14.166 12.915 22.366v327.171c0 4.07-1.436 6.945-3.746 8.31v.003l9.271-5.382-.026-.003c2.598-1.23 4.247-4.2 4.247-8.555V386.02c0-8.202-5.814-18.266-12.913-22.367Z"></path><path fill="#ffffff" d="M1081.438 706.228 647.674 455.794V133.756l433.764 250.434v322.038z" class="colorffffff svgShape"></path><path fill="#f1f3f6" d="M787.298 901.76c-7.1 4.103-18.723 4.103-25.825 0L327.706 651.327c-7.099-4.1-7.099-10.809 0-14.911l295.661-170.699c7.099-4.099 18.722-4.099 25.825 0l433.767 250.436c7.102 4.1 7.102 10.806 0 14.908Z" class="colorf1f1f6 svgShape"></path><path fill="#dae7f5" d="m649.646 501.233-21.212-12.248 10.606-6.122 21.212 12.245-10.606 6.125zM685.373 521.863l-21.215-12.251 10.606-6.124 21.215 12.247-10.606 6.128zM721.101 542.487l-21.212-12.248 10.606-6.125 21.215 12.252-10.609 6.121zM756.824 563.116l-21.208-12.245 10.609-6.127 21.209 12.248-10.61 6.124zM792.555 583.742l-21.212-12.248 10.609-6.121 21.212 12.249-10.609 6.12zM828.285 604.372l-21.212-12.248L817.676 586l21.219 12.245-10.61 6.127zM864.013 625.002l-21.209-12.249 10.606-6.127 21.208 12.248-10.605 6.128zM899.743 645.625l-21.215-12.245 10.609-6.128 21.212 12.252-10.606 6.121zM935.47 666.254l-21.212-12.245 10.606-6.127 21.215 12.248-10.609 6.124zM971.197 686.88l-21.212-12.248 10.61-6.121 21.212 12.245-10.61 6.124zM1006.928 707.51l-21.212-12.248 10.606-6.124 21.215 12.248-10.609 6.124zM1042.658 728.14l-21.218-12.252 10.609-6.124 21.215 12.252-10.606 6.124zM630.842 531.632l-38.138-22.02 21.212-12.247 38.138 22.021-21.212 12.246zM611.112 559.783l-52.653-30.402 21.218-12.245 52.65 30.402-21.215 12.245zM589.897 588.79l-67.165-38.779 21.211-12.245 67.163 38.779-21.209 12.245zM517.635 596.992l-38.138-22.017 28.719-16.583 38.139 22.017-28.72 16.583zM570.288 627.393l-38.138-22.02 28.717-16.583 38.141 22.02-28.72 16.583zM622.942 657.791l-38.138-22.017 28.719-16.582 38.139 22.02-28.72 16.579zM804.486 762.611l-38.135-22.027 28.716-16.576 38.145 22.02-28.726 16.583zM893.72 814.129l-74.804-43.193 28.72-16.579 74.804 43.189-28.72 16.583zM751.921 732.258 637.46 666.172l28.717-16.579 114.467 66.086-28.723 16.579zM676.57 558.032l-31.213-18.019 21.209-12.248 31.216 18.019-21.212 12.248zM656.84 586.183l-31.216-18.019 21.215-12.251 31.213 18.019-21.212 12.251zM636.603 614.628l-31.212-18.019 21.215-12.248 31.212 18.022-21.215 12.245zM682.331 641.025l-31.213-18.019 21.212-12.248 31.213 18.022-21.212 12.245zM728.052 667.425l-31.209-18.019 21.212-12.245 31.212 18.019-21.215 12.245zM773.783 693.829l-31.212-18.019 21.212-12.251 31.209 18.022-21.209 12.248zM819.508 720.229l-31.209-18.022 21.212-12.248 31.209 18.022-21.212 12.248zM865.233 746.626l-31.21-18.019 21.212-12.251 31.213 18.022-21.215 12.248zM937.933 788.602l-58.185-33.597 21.212-12.245 58.185 33.594-21.212 12.248zM702.568 612.58l-31.213-18.016 21.216-12.248 31.209 18.019-21.212 12.245zM748.293 638.984l-31.213-18.023 21.215-12.248 31.213 18.022-21.215 12.249zM794.014 665.384l-31.209-18.019 21.215-12.251 31.212 18.022-21.218 12.248zM839.745 691.784l-31.213-18.019 21.216-12.251 31.209 18.019-21.212 12.251zM885.473 718.185l-31.216-18.023 21.218-12.248 31.213 18.023-21.215 12.248zM972.682 768.538l-72.697-41.975 21.215-12.248 72.701 41.972-21.219 12.251zM722.295 584.433l-31.213-18.019 21.215-12.248 31.21 18.022-21.212 12.245zM768.023 610.83l-31.213-18.019 21.212-12.245 31.213 18.016-21.212 12.248zM813.744 637.23l-31.206-18.019 21.208-12.241 31.213 18.015-21.215 12.245zM859.472 663.634l-31.213-18.022 21.212-12.249 31.213 18.023-21.212 12.248zM905.2 690.031l-31.213-18.019 21.212-12.245 31.216 18.016-21.215 12.248zM950.924 716.431l-31.209-18.019 21.212-12.245 31.212 18.019-21.215 12.245zM1006.928 748.763l-41.485-23.95 21.212-12.249 41.485 23.954-21.212 12.245z" class="colordae0f5 svgShape"></path><path fill="#6f67e9" d="m1027.165 695.828-342.77-197.901 10.299-5.943 342.766 197.9-10.295 5.944z" class="color6b67e9 svgShape"></path><path fill="#dae7f5" d="m751.914 757.831-174.91-100.989-108.689 62.753 174.91 100.985 108.689-62.749z" class="colordae0f5 svgShape"></path><path fill="url(#q)" d="m1082.959 731.061-295.661 170.7c-5.64 3.258-14.12 3.918-20.937 2.001-.05-.013-4.237-1.625-4.888-2.002L327.706 651.327a15.05 15.05 0 0 1-1.37-.897c-.024-.016-.043-.032-.066-.049-.114-.085-.213-.173-.32-.258a10.93 10.93 0 0 1-.717-.602c-.115-.101-.222-.21-.33-.314a9.985 9.985 0 0 1-.743-.812c-.03-.032-.062-.068-.088-.1-.017-.024-.036-.047-.053-.066a9.167 9.167 0 0 1-.67-.998 6.698 6.698 0 0 1-.946-3.101h-.023v6.251h.05c-.04 2.729 1.694 5.46 5.276 7.531l433.767 250.434c10.351 5.133 25.138 4.131 29.541 3.17 4.4-.965 8.355-2.068 12.971-3.076L1082.96 747.38c3.592-2.078 5.362-4.816 5.316-7.55v-16.142c-.03 2.673-1.803 5.343-5.316 7.374Z"></path></g><g data-name="Shapes on screen" fill="#f4f6f8" class="color000000 svgShape"><path fill="#f1f3f6" d="m804.605 466.41-132.636-76.578c-4.678-2.7-8.47-9.269-8.47-14.67V170.68c0-5.402 3.792-7.59 8.47-4.89l132.636 76.577c4.678 2.701 8.47 9.27 8.47 14.67V461.52c0 5.401-3.792 7.59-8.47 4.89Z" class="colorf1f1f6 svgShape"></path><path fill="#a5cef8" d="M722.836 323.123v-23.026l30.107 17.382v23.022l5.856 10.418-20.894-.979-19.164-22.147 4.095-4.67z" class="colorf8cda5 svgShape"></path><path fill="#97c4f2" d="M722.836 317.297a51.694 51.694 0 0 0 15.055 13.922c5.567 3.214 10.728 4.26 15.052 3.46v-17.2l-30.107-17.382Z" class="colorf2c097 svgShape"></path><path fill="#a7d0fa" d="M765.197 308.23v-3.188c.04-.664.091-1.314.091-2.01 0-17.474-12.265-38.721-27.397-47.46-15.135-8.737-27.404-1.654-27.404 15.82v9.771l.109.063c1.089 16.954 12.88 36.616 27.292 44.942 14.417 8.32 26.203 2.269 27.292-13.43l.017.011v-.393c.046-.662.091-1.312.091-2.005 0-.7-.045-1.411-.09-2.12Z" class="colorfacfa7 svgShape"></path><path fill="#662e94" d="M710.487 271.392c.655 4.897 1.386-11.745 8.557-7.607 7.167 4.14 8.296 7.579 15.315 11.63 7.013 4.049 7.467-.74 13.577 2.786 6.107 3.53 8.079 15.014 15.73 13.135 7.355-1.81 10.625-12.958.957-24.834-6.83-8.384-11.62-9.762-30.645-13.344-18.79-3.54-25.477 3.322-23.49 18.234Z" class="color362e94 svgShape"></path><path fill="#857dfb" d="M752.943 340.501c0 9.585-6.542 9.637-15.052 4.726-8.514-4.917-15.052-13.57-15.055-22.104-9.034-5.217-47.548-12.82-39.172 30.69 11.088 6.404 54.227 31.308 54.227 31.308l54.227 31.31c6.51-35.963-30.145-70.711-39.175-75.93Z" class="color807dfb svgShape"></path><path fill="#f1f3f6" d="M804.605 511.519 671.969 434.94c-4.678-2.7-8.47-9.269-8.47-14.67v-12.1c0-5.401 3.792-7.59 8.47-4.89l132.636 76.578c4.678 2.7 8.47 9.268 8.47 14.67v12.1c0 5.401-3.792 7.59-8.47 4.89Z" class="colorf1f1f6 svgShape"></path><path fill="#857dfb" d="m679.127 425.6 91.245 52.681v-4.713l-91.245-52.681v4.713zM779.377 483.479l20.824 12.023v-4.712l-20.824-12.023v4.712z" class="color807dfb svgShape"></path><path fill="#cee3f8" d="m699.889 465.137-20.762-11.987v4.713l20.762 11.987v-4.713zM709.127 470.471v4.713l91.074 52.581v-4.712l-91.074-52.582zM902.805 327.146l-67.327-38.872v-28.542l67.327 38.872v28.542z" class="colorced3f8 svgShape"></path><path fill="#f1f3f6" d="m980.383 371.935-67.327-38.871v-28.542l67.327 38.871v28.542zM1057.96 416.725l-67.327-38.872v-28.541l67.327 38.871v28.542z" class="colorf1f1f6 svgShape"></path><path fill="#cee3f8" d="M1057.96 508.292 835.478 379.843v-67.445l21.371 12.338 6.664-8.636 6.665 16.332 187.782 108.415v67.445z" class="colorced3f8 svgShape"></path><ellipse cx="863.338" cy="362.222" fill="#5a52cc" rx="14.992" ry="25.967" transform="rotate(-30 863.338 362.222)" class="color5652cc svgShape"></ellipse><path fill="#ffffff" d="M866.081 363.248c1.543-.288 2.587-1.815 2.587-4.267 0-3.727-2.386-8.123-5.33-9.822-2.941-1.699-5.329-.057-5.329 3.67a12.78 12.78 0 0 0 2.589 7.25c-4.506-.846-7.37 1.978-7.37 5.635.768.44 10.11 5.836 10.11 5.836s9.341 5.392 10.111 5.838c.002-3.654-2.864-9.79-7.368-14.14Z" class="colorffffff svgShape"></path><path fill="#857dfb" d="m894.493 382.565 65.913 38.055v-4.713l-65.913-38.054v4.712zM969.169 425.679l20.824 12.023v-4.713l-20.824-12.023v4.713zM999.661 443.284l39.722 22.933v-4.712l-39.722-22.934v4.713z" class="color807dfb svgShape"></path><path fill="#f1f3f6" d="m937.573 588.442-102.095-58.944V405.317l102.095 58.944v124.181z" class="colorf1f1f6 svgShape"></path><path fill="#3e9eff" d="M845.207 439.059c0-9.328 6.55-13.11 14.628-8.445 8.078 4.664 14.627 16.007 14.627 25.335 0 9.329-6.549 13.11-14.627 8.445-8.079-4.664-14.628-16.007-14.628-25.335Z" class="colorffd03e svgShape"></path><path d="m908.669 486.63-46.21 58.445 75.114 43.367v-31.881l-28.904-69.931z" style="mix-blend-mode:multiply" fill="#dfe9f4" class="colordfe4f4 svgShape"></path><path d="m864.827 481.193-29.349 37.118v11.187l64.77 37.395-35.421-85.7z" style="mix-blend-mode:multiply" fill="#dfe9f4" class="colordfe4f4 svgShape"></path><path fill="#f1f3f6" d="m1057.96 657.947-102.094-58.944V474.822l102.094 58.944v124.181z" class="colorf1f1f6 svgShape"></path><ellipse cx="980.222" cy="517.009" fill="#3e9eff" rx="11.943" ry="20.686" transform="rotate(-30.001 980.222 517.01)" class="colorffd03e svgShape"></ellipse><path d="m1029.057 556.135-46.211 58.445 75.114 43.367v-31.881l-28.903-69.931z" style="mix-blend-mode:multiply" fill="#dfe9f4" class="colordfe4f4 svgShape"></path><path d="m985.214 550.698-29.348 37.118v11.187l64.77 37.395-35.422-85.7z" style="mix-blend-mode:multiply" fill="#dfe9f4" class="colordfe4f4 svgShape"></path></g><g data-name="Front window" fill="#f4f6f8" class="color000000 svgShape"><path d="m708.088 247.366-73.327-42.336V418l73.327 42.335c5.716 3.3 10.393.6 10.393-6v-188.97c0-6.6-4.677-14.7-10.393-18Z" style="mix-blend-mode:multiply" fill="#dae7f5" class="colordae0f5 svgShape"></path><path fill="#ffffff" d="M688.985 422.592c0 6.6-4.676 9.3-10.392 6L441.438 291.67c-5.716-3.3-10.393-11.4-10.393-18V84.7c0-6.6 4.677-9.3 10.393-6l237.155 136.922c5.716 3.3 10.392 11.4 10.392 18Z" class="colorffffff svgShape"></path><path fill="#fc06cf" d="M678.593 215.622 441.438 78.7c-5.716-3.3-10.393-.6-10.393 6v11.5l257.94 148.922v-11.5c0-6.6-4.676-14.7-10.392-18Z" class="colorfcba06 svgShape"></path><path fill="#ffffff" d="m441.761 85.914 8.181 4.723v9.446l-8.181-4.723v-9.446zM457.783 95.164l8.181 4.723v9.446l-8.181-4.723v-9.446zM473.804 104.414l8.181 4.723v9.446l-8.181-4.723v-9.446z" class="colorffffff svgShape"></path><path fill="url(#r)" d="M687.253 210.622 450.098 73.7c-2.832-1.635-5.406-1.793-7.285-.738l-.002-.002-.022.013-.059.034-8.579 4.953.001.002c1.88-1.055 4.454-.897 7.286.738l237.155 136.922c5.716 3.3 10.392 11.4 10.392 18v188.97c0 3.157-1.078 5.408-2.82 6.551l8.03-4.636-.007-.011c2.115-.98 3.458-3.378 3.458-6.904v-188.97c0-6.6-4.677-14.7-10.393-18Z"></path><path fill="#f1f3f6" d="m441.438 291.67 237.155 136.922c5.716 3.3 10.392.6 10.392-6V268.043c-23.147-12.75-48.524 45.266-67.644 33.188-19.119-12.08-28.171-67.665-54.043-81.375s-36.477 43.262-56.727 30.278c-20.25-12.984-18.655-29.367-40.462-38.341-20.167-8.299-25.726 22.079-39.063 33.329v28.548c0 6.6 4.676 14.7 10.392 18Z" class="colorf1f1f6 svgShape"></path><path fill="#fc06cf" d="M621.338 303.231a1.987 1.987 0 0 1-1.066-.31c-9.191-5.806-15.947-20.6-23.1-36.263-8.503-18.62-17.295-37.872-30.81-45.034-12.05-6.384-20.34 4.409-29.12 15.837-8.136 10.587-16.546 21.538-27.751 14.356-9.615-6.166-14.385-12.942-18.996-19.496-5.301-7.535-9.88-14.042-21.149-18.679a2 2 0 0 1 1.524-3.699c12.345 5.081 17.47 12.364 22.896 20.075 4.389 6.24 8.928 12.69 17.885 18.432 7.568 4.853 13.518-1.839 22.42-13.427 8.969-11.67 19.135-24.897 34.162-16.934 14.719 7.798 23.797 27.68 32.578 46.907 6.899 15.105 13.414 29.374 21.598 34.545a2 2 0 0 1-1.07 3.69Z" class="colorfcba06 svgShape"></path><path fill="#5a52cc" d="M474.931 214.577a10.66 10.66 0 0 0-4.822-8.352c-2.664-1.538-4.823-.292-4.823 2.784a10.659 10.659 0 0 0 4.823 8.352c2.663 1.538 4.822.292 4.822-2.784Z" class="color5652cc svgShape"></path><ellipse cx="621.341" cy="301.231" fill="#5a52cc" rx="3.937" ry="6.82" transform="rotate(-30 621.341 301.23)" class="color5652cc svgShape"></ellipse></g><g data-name="Cylinder graph" fill="#f4f6f8" class="color000000 svgShape"><path fill="url(#s)" d="M491.724 368.953v112.225c0 3.87 2.56 7.74 7.674 10.697 10.232 5.91 26.823 5.91 37.063 0 5.115-2.957 7.674-6.827 7.674-10.697V368.953Z"></path><path fill="#3e9eff" d="M499.398 358.253c10.232-5.91 26.823-5.91 37.063 0 5.115 2.952 7.674 6.826 7.674 10.7 0 3.87-2.56 7.74-7.674 10.697-10.24 5.91-26.831 5.91-37.063 0-5.115-2.957-7.674-6.827-7.674-10.697 0-3.874 2.56-7.748 7.674-10.7Z" class="colorffd03e svgShape"></path><path fill="url(#t)" d="M426.635 448.567v70.19c0 3.87 2.559 7.74 7.673 10.697 10.233 5.91 26.824 5.91 37.064 0 5.114-2.957 7.673-6.827 7.673-10.697v-70.19Z"></path><path fill="#e8eff7" d="M434.308 437.867c10.233-5.91 26.824-5.91 37.064 0 5.114 2.953 7.673 6.827 7.673 10.7 0 3.87-2.559 7.74-7.673 10.697-10.24 5.91-26.831 5.91-37.064 0-5.114-2.957-7.673-6.827-7.673-10.697 0-3.873 2.559-7.747 7.673-10.7Z" class="colore8ecf7 svgShape"></path><path fill="url(#u)" d="M361.546 519.98v36.356c0 3.87 2.559 7.74 7.673 10.697 10.233 5.91 26.824 5.91 37.064 0 5.114-2.957 7.673-6.827 7.673-10.697V519.98Z"></path><path fill="#857dfb" d="M369.219 509.279c10.233-5.91 26.824-5.91 37.064 0 5.114 2.953 7.673 6.827 7.673 10.7 0 3.87-2.559 7.74-7.673 10.697-10.24 5.91-26.831 5.91-37.064 0-5.114-2.957-7.673-6.827-7.673-10.696 0-3.874 2.559-7.748 7.673-10.701Z" class="color807dfb svgShape"></path></g><g data-name="Bar graph" fill="#f4f6f8" class="color000000 svgShape"><path style="mix-blend-mode:multiply" fill="url(#v)" d="M1155.038 896.887h-119.83l40.808 23.559-40.808 23.563h119.83l40.808-23.563-40.808-23.559z"></path><path style="mix-blend-mode:multiply" fill="url(#w)" d="M1095.291 927.259H982.346l40.805 23.56-40.805 23.559h112.945l40.806-23.559-40.806-23.56z"></path><path style="mix-blend-mode:multiply" fill="url(#x)" d="M1030.189 957.63H929.482l40.807 23.561-40.807 23.561h100.707l40.806-23.561-40.806-23.561z"></path><path style="mix-blend-mode:multiply" fill="url(#y)" d="M1207.9 866.513h-119.83l40.808 23.559-40.808 23.563h119.83l40.808-23.563-40.808-23.559z"></path><path fill="#cee1f4" d="m1047.259 776.623 40.808 23.558V913.63l-40.808-23.561V776.623z" class="colorced2f4 svgShape"></path><path fill="#bbcee2" d="m1128.873 776.623-40.806 23.558V913.63l40.806-23.561V776.623z" class="colorbbbfe2 svgShape"></path><path fill="#f5f7fa" d="m1088.067 753.064-40.808 23.559 40.808 23.558 40.806-23.558-40.806-23.559z" class="colorf5f5fa svgShape"></path><path fill="#fc06cf" d="m1047.259 776.623 40.806 23.56v45.841l-40.806-23.561v-45.84z" class="colorfcba06 svgShape"></path><path fill="#e100b8" d="m1128.873 776.623-40.808 23.56v45.841l40.808-23.561v-45.84z" class="colore19100 svgShape"></path><path fill="#3e9eff" d="m1088.065 753.062-40.806 23.561 40.806 23.56 40.808-23.56-40.808-23.561z" class="colorffd03e svgShape"></path><path fill="#cee1f4" d="m994.397 827.64 40.808 23.558v92.806l-40.808-23.561V827.64z" class="colorced2f4 svgShape"></path><path fill="#bbcee2" d="m1076.011 827.64-40.806 23.558v92.806l40.806-23.561V827.64z" class="colorbbbfe2 svgShape"></path><path fill="#f5f7fa" d="m1035.205 804.082-40.808 23.558 40.808 23.558 40.806-23.558-40.806-23.558z" class="colorf5f5fa svgShape"></path><path fill="#fc06cf" d="m994.4 827.638 40.805 23.56v25.522L994.4 853.159v-25.521z" class="colorfcba06 svgShape"></path><path fill="#e100b8" d="m1076.013 827.638-40.808 23.56v25.522l40.808-23.561v-25.521z" class="colore19100 svgShape"></path><path fill="#3e9eff" d="M1035.205 804.077 994.4 827.638l40.805 23.56 40.808-23.56-40.808-23.561z" class="colorffd03e svgShape"></path><path fill="#5a52ca" d="m941.535 803.808 40.808 23.559v147.011l-40.808-23.561V803.808z" class="color5652ca svgShape"></path><path fill="#6822a2" d="m1023.151 804.042-40.808 23.559v146.777l40.808-23.561V804.042z" class="color423ead svgShape"></path><path fill="#6f67e7" d="m982.343 780.715-40.808 23.561 40.808 23.559 40.808-23.559-40.808-23.561z" class="color6b67e7 svgShape"></path><path fill="#cee1f4" d="m888.676 932.109 40.806 23.561v49.082l-40.806-23.561v-49.082z" class="colorced2f4 svgShape"></path><path fill="#bbcee2" d="m970.289 932.109-40.807 23.561v49.082l40.807-23.561v-49.082z" class="colorbbbfe2 svgShape"></path><path fill="#f5f7fa" d="m929.482 908.548-40.806 23.561 40.806 23.561 40.807-23.561-40.807-23.561z" class="colorf5f5fa svgShape"></path></g><g data-name="Speech bubbles" fill="#f4f6f8" class="color000000 svgShape"><path d="m947.824 1048.066-50.886-29.379v-15.075h-26.111l-50.886-29.38c-5.223-3.015-13.69-3.015-18.913 0l-77.374 44.673c-5.223 3.015-5.222 7.903 0 10.919l127.884 73.833a16.455 16.455 0 0 0 4.607 1.728l-1.779.534h7v-.021a19.143 19.143 0 0 0 9.084-2.24l77.374-44.673c5.223-3.015 5.223-7.903 0-10.919Z" style="mix-blend-mode:multiply" fill="url(#z)"></path><path fill="#857dfb" d="M890.65 1014.16v-15.075h-26.112l-50.886-29.38c-5.223-3.015-13.69-3.015-18.912 0l-77.375 44.673c-5.222 3.015-5.222 7.903 0 10.918l127.884 73.834c5.222 3.015 13.69 3.015 18.912 0l77.374-44.672c5.223-3.015 5.223-7.904 0-10.919Z" class="color807dfb svgShape"></path><path d="m863.387 1012.76-5.359 3.093-16.262-.96-.554.32 1.2.693c4.483 2.588 5.409 6.695-.458 10.082-6.563 3.787-15.801 3.361-23.008-.8-7.715-4.454-7.809-9.788-1.387-13.495l1.293-.748 6.098 3.521-1.108.641c-3.142 1.813-3.556 4.56.555 6.934a11.753 11.753 0 0 0 11.459.427c3.094-1.787 2.447-3.921-.648-5.709l-5.637-3.254 5.451-3.146 14.553.826-14.645-8.455 5.543-3.201ZM863.106 1033.455l-4.248 14.029-6.744-3.893 3.418-10.51-6.422-.347-7.898 4.563-5.82-3.362 32.337-18.67 5.82 3.36-17.277 9.976.555.32 17.183.854 8.131 4.693ZM819.032 1035.516a8.078 8.078 0 0 0-4.011-4.51c-5.593-3.227-14.67-3.227-20.266 0-2.799 1.622-4.197 3.74-4.197 5.857v19.976l34.59-.006a20.645 20.645 0 0 0 10.144-2.42c5.596-3.23 5.596-8.477 0-11.704a19.444 19.444 0 0 0-7.805-2.31l-7.574-.509Z" style="mix-blend-mode:multiply" fill="#bbd0e6" class="colorbbc0e6 svgShape"></path><path fill="url(#c)" d="M945.452 1048.997v-.119h-.01c.001.039.01.079.01.119Z"></path><path fill="url(#A)" d="m941.535 1054.458-77.374 44.672c-5.222 3.015-13.69 3.015-18.912 0l-127.884-73.834c-2.64-1.524-3.941-3.528-3.911-5.526h-.006v4.756l.014.002c.07 1.921 1.364 3.83 3.903 5.296l127.884 73.833c5.222 3.015 13.69 3.016 18.912 0l77.374-44.672c2.564-1.48 3.861-3.411 3.908-5.35h.01V1049c-.001 1.975-1.307 3.95-3.918 5.458Z"></path><path fill="#cee3f8" d="m695.566 109.624 9.768 16.918 9.768-5.639 38.071 21.98c3.908 2.257 7.075.428 7.075-4.084V71.954a15.637 15.637 0 0 0-7.075-12.254L657.494 4.46c-3.907-2.256-7.075-.427-7.075 4.084V75.39a15.638 15.638 0 0 0 7.075 12.254Z" class="colorced3f8 svgShape"></path><path fill="url(#B)" d="M759.235 56.2 663.556.96c-1.92-1.109-3.656-1.22-4.93-.523l-.004-.005-.033.019-.065.037-5.964 3.444.004.005c1.274-.698 3.01-.586 4.93.523l95.68 55.24a15.637 15.637 0 0 1 7.074 12.254v66.845c0 2.174-.748 3.706-1.947 4.478l.008.01 5.854-3.38c.046-.025.092-.051.137-.079l.07-.04-.007-.011c1.2-.771 1.947-2.303 1.947-4.478V68.454a15.638 15.638 0 0 0-7.075-12.254Z"></path><path fill="#f6f8fb" d="M667.992 51.474v-6.276l4.22 2.436v6.276l5.364 3.097v4.707l-5.364-3.097v6.277l-4.22-2.437V56.18l-5.364-3.097v-4.707ZM694.783 54.842v28.904l-4.721-2.725V57.898l-.43-.248-3.504 5.244-4.933-2.848 6.435-9.333ZM709.269 79.351l7.76 17.238-5.221-3.013-5.723-12.966-2.716 1.033v7.06l-4.506-2.6V57.198l4.506 2.601v15.444l.427.246 7.225-2.848 6.293 3.633Z" class="colorf6f6fb svgShape"></path><path fill="#a3b9d0" d="M738.527 95.43c1.992-.371 3.34-2.342 3.34-5.508 0-4.81-3.08-10.486-6.882-12.679-3.796-2.193-6.878-.073-6.878 4.737a16.498 16.498 0 0 0 3.342 9.36c-5.817-1.093-9.515 2.554-9.515 7.274.992.569 13.051 7.535 13.051 7.535s12.06 6.96 13.054 7.535c.002-4.717-3.698-12.637-9.512-18.253Z" class="colora3a9d0 svgShape"></path></g><g data-name="Little heart" fill="#f4f6f8" class="color000000 svgShape"><path d="M188.494 988.98c-.694-2.456-2.679-4.812-5.955-6.704-8.322-4.808-21.818-4.803-30.143.004-4.16 2.397-6.244 5.549-6.237 8.7l-.005 29.702 51.447-.004a30.8 30.8 0 0 0 15.078-3.595c8.324-4.808 8.324-12.6.002-17.404a28.838 28.838 0 0 0-11.612-3.443l-11.26-.754Z" style="mix-blend-mode:multiply" fill="url(#C)"></path><path fill="url(#D)" d="M198.495 1006.019a30.75 30.75 0 0 1-15.085 3.6l-51.44.004v11.06h51.44a30.87 30.87 0 0 0 15.085-3.6c4.171-2.412 6.251-5.572 6.242-8.737v-11.004c-.014 3.147-2.094 6.28-6.242 8.677Z"></path><path fill="#857dfb" d="M174.312 977.917c-.698-2.448-2.68-4.813-5.96-6.7-8.32-4.804-21.817-4.804-30.14 0-4.162 2.401-6.244 5.552-6.242 8.703v29.703l51.44-.005a30.75 30.75 0 0 0 15.085-3.6c8.32-4.803 8.324-12.6 0-17.403a28.87 28.87 0 0 0-11.61-3.438l-11.26-.759Z" class="color807dfb svgShape"></path></g><g data-name="Share symbol" fill="#f4f6f8" class="color000000 svgShape"><path fill="url(#E)" d="M89.34 342.63c9.429-5.446 17.975-5.948 24.15-2.362l8.46 4.916c-6.172-3.585-14.718-3.08-24.153 2.366-18.74 10.819-33.882 37.047-33.82 58.578.03 10.698 3.808 18.23 9.898 21.77l-8.462-4.919c-6.092-3.539-9.87-11.069-9.9-21.769-.063-21.526 15.078-47.76 33.827-58.58Z"></path><path fill="#bbd0e6" d="M97.797 347.55c18.743-10.82 33.99-2.137 34.051 19.392.063 21.538-15.088 47.77-33.823 58.592-18.742 10.82-33.987 2.132-34.048-19.406-.062-21.53 15.08-47.76 33.82-58.578Z" class="colorbbc0e6 svgShape"></path><path fill="#5a52cc" d="M109.95 368.691a3.293 3.293 0 0 1-3.398.303l-17.415 21.5a6.781 6.781 0 0 1 .388 2.354 11.874 11.874 0 0 1-.676 3.765l13.568 3.559a9.42 9.42 0 0 1 2.996-2.992c2.619-1.508 4.742-.29 4.742 2.72a10.47 10.47 0 0 1-4.742 8.2c-2.623 1.517-4.747.299-4.745-2.723a7.988 7.988 0 0 1 .34-2.203l-13.558-3.55a13.636 13.636 0 0 1-4.633 4.817c-3.71 2.15-6.712.424-6.709-3.847A14.8 14.8 0 0 1 82.816 389c2.072-1.197 3.918-1.187 5.149-.2l17.427-21.513a4.782 4.782 0 0 1-.186-1.317 10.462 10.462 0 0 1 4.745-8.198c2.62-1.516 4.74-.295 4.738 2.724a10.452 10.452 0 0 1-4.738 8.195Z" class="color5652cc svgShape"></path></g><g data-name="Pie chart" fill="#f4f6f8" class="color000000 svgShape"><path fill="#857df9" d="M284.243 284.87v84.681l-73.336 42.342c0-46.768 32.833-103.639 73.336-127.023Z" class="color807df9 svgShape"></path><path fill="url(#F)" d="m270.397 276.876 50.135 28.945-71.843 127.885-51.628-29.807c0-46.77 32.833-103.64 73.336-127.023Z"></path><path fill="#e100b8" d="M284.243 284.87v84.681l-73.336 42.342c0-46.768 32.833-103.639 73.336-127.023Z" class="colore19100 svgShape"></path><path fill="#6f67e9" d="m210.907 411.893 73.336-42.342-64.935 76.842c-5.356-8.67-8.401-20.291-8.401-34.5Z" class="color6b67e9 svgShape"></path><path fill="#dae6f2" d="M284.243 369.551V284.87c40.503-23.384 73.336-4.428 73.336 42.34s-32.833 103.638-73.336 127.023c-28.198 16.279-52.663 12.019-64.935-7.84Z" class="colordadff2 svgShape"></path><path fill="#f5f7fa" d="M270.397 276.876c20.37-11.761 38.797-12.803 52.086-4.992l12.924 7.461-.01.02c-13.214-7.231-31.252-5.986-51.154 5.505l-13.846-7.994Z" class="colorf5f5fa svgShape"></path><path fill="#a1b7ce" d="M217.23 450.546a37.792 37.792 0 0 1-11.768-12.147l13.846 7.994a37.783 37.783 0 0 0 11.77 12.147Z" class="colora1a7ce svgShape"></path><path fill="#857dfb" d="M205.462 438.399c-5.356-8.668-8.401-20.291-8.401-34.5l13.846 7.994h-.002c0 14.209 3.047 25.83 8.403 34.5Z" class="color807dfb svgShape"></path></g><g fill="#f4f6f8" class="color000000 svgShape"><path style="mix-blend-mode:multiply" fill="url(#G)" d="M449.277 796.493v-29.092l-169.283 16.148-19.853 11.463 30.982-1.216-16.544 9.552 174.698-6.855z"></path><path fill="url(#H)" d="M364.025 609.546c-4.101-7.1-9.765-13.298-16.02-16.912-6.257-3.612-11.92-3.953-16.021-1.586l-26.841 15.497 32.04 55.498 26.843-15.496c4.099-2.371 6.636-7.446 6.636-14.67 0-7.226-2.537-15.233-6.637-22.331Z"></path><path fill="#5046e4" d="M305.143 643.543c-4.101-7.1-6.636-15.107-6.636-22.331 0-7.223 2.535-12.301 6.636-14.667 4.1-2.366 9.763-2.025 16.02 1.585 6.256 3.614 11.92 9.812 16.02 16.911 4.101 7.1 6.637 15.106 6.637 22.332s-2.536 12.301-6.636 14.67c-4.1 2.365-9.765 2.023-16.022-1.588-6.255-3.614-11.92-9.809-16.02-16.912Z" class="color5651ce svgShape"></path><path fill="url(#I)" d="M372.184 604.836c-4.101-7.099-9.765-13.298-16.02-16.911-6.257-3.613-11.92-3.952-16.021-1.585l-8.158 4.71c4.1-2.365 9.763-2.025 16.02 1.585 6.255 3.613 11.92 9.812 16.02 16.91 4.101 7.099 6.637 15.106 6.637 22.331s-2.536 12.3-6.636 14.67l8.16-4.71c4.098-2.368 6.636-7.444 6.636-14.67 0-7.225-2.538-15.23-6.638-22.33Z"></path><path fill="#5046e4" d="m294.433 791.886-19.854 11.462 12.634-107.331 41.513-23.966-34.293 119.835z" class="color5651ce svgShape"></path><path fill="#6f67eb" d="m274.579 803.348-14.438-8.336 12.633-107.331 14.439 8.336-12.634 107.331z" class="color6c67eb svgShape"></path><path fill="url(#J)" d="M346.834 619.473a19.413 19.413 0 0 0-6.693-7.075l-50.572-29.197c-2.609-1.506-4.979-1.642-6.698-.65l-88.201 50.923 63.969 110.792 88.2-50.921c1.719-.992 2.784-3.114 2.784-6.126V628.82a19.421 19.421 0 0 0-2.789-9.348Z"></path><path fill="#5046e4" d="M191.886 639.596c0-3.012 1.067-5.133 2.784-6.122 1.72-.994 4.09-.859 6.698.647l50.572 29.198a21.039 21.039 0 0 1 9.484 16.425v58.398c0 3.01-1.065 5.133-2.785 6.124-1.72.99-4.091.856-6.699-.65l-50.572-29.2a21.031 21.031 0 0 1-9.482-16.422Z" class="color5651ce svgShape"></path><path fill="url(#d)" d="m276.87 596.316 36.52 21.087a7.732 7.732 0 0 0 6.955-.29c2.059-1.185 2.282-2.984.5-4.015l-36.523-21.085a7.723 7.723 0 0 0-6.954.29c-2.056 1.188-2.281 2.985-.497 4.013Z"></path><path fill="url(#K)" d="m262.237 604.766 36.52 21.085a7.725 7.725 0 0 0 6.954-.289c2.06-1.186 2.282-2.984.5-4.013l-36.522-21.086a7.727 7.727 0 0 0-6.954.289c-2.057 1.188-2.282 2.985-.498 4.014Z"></path><path fill="url(#L)" d="m247.603 613.216 36.52 21.086a7.73 7.73 0 0 0 6.955-.289c2.059-1.189 2.282-2.984.5-4.014l-36.522-21.087a7.73 7.73 0 0 0-6.955.289c-2.057 1.188-2.281 2.986-.498 4.015Z"></path><path fill="url(#M)" d="m232.97 621.665 36.52 21.087a7.729 7.729 0 0 0 6.955-.288c2.058-1.19 2.281-2.985.499-4.014l-36.522-21.09a7.734 7.734 0 0 0-6.955.289c-2.056 1.189-2.281 2.988-.497 4.016Z"></path><path fill="#5046e4" d="m339.764 673.235-20.719 11.962v-22.863l20.721-11.961-.002 22.862z" class="color5651ce svgShape"></path><path fill="url(#N)" d="M191.856 708.95c-15.826-27.407-37.686-51.328-61.835-65.27-12.882-7.438-25.11-11.271-36.122-11.855l-48.532 2.699 139.14 236.707 24.289-37.24c5.548-10.062 8.68-23.12 8.68-38.837 0-27.89-9.791-58.791-25.62-86.204Z"></path><path fill="url(#O)" d="M266.826 745.015c4.082-6.06 6.418-14.405 6.418-24.738 0-16.108-5.654-33.951-14.795-49.784-9.14-15.828-21.764-29.64-35.71-37.691-9.518-5.495-18.42-7.59-26.02-6.692L93.9 631.825c11.012.584 23.24 4.417 36.122 11.855 24.149 13.942 46.009 37.863 61.835 65.27 15.829 27.413 25.62 58.314 25.62 86.204 0 15.718-3.132 28.775-8.68 38.836l58.03-88.973Z"></path><path fill="#fc06cf" d="M29.156 802.884C11.142 771.685 0 736.514 0 704.772c0-31.741 11.142-54.047 29.158-64.446 18.014-10.406 42.9-8.9 70.39 6.971 27.486 15.87 52.37 43.1 70.386 74.296 18.016 31.204 29.162 66.381 29.162 98.126 0 31.744-11.142 54.047-29.156 64.445-18.014 10.4-42.902 8.901-70.392-6.97-27.489-15.872-52.376-43.108-70.392-74.31Z" class="colorfcba06 svgShape"></path><path fill="url(#P)" d="M128.9 848.124c-24.588-14.196-46.849-38.556-62.962-66.466-16.113-27.905-26.08-59.364-26.08-87.755 0-19.716 4.816-35.351 13.148-46.185a44.164 44.164 0 0 0-16.42 5.473c-16.112 9.304-26.079 29.255-26.079 57.647 0 28.391 9.966 59.852 26.079 87.755 16.114 27.91 38.374 52.27 62.962 66.467 24.589 14.196 46.848 15.538 62.963 6.235a44.178 44.178 0 0 0 12.935-11.46c-13.546 1.79-29.482-1.86-46.545-11.71Z"></path><path fill="url(#Q)" d="M162.505 725.885c-16.115-27.906-38.372-52.263-62.957-66.457-17.061-9.851-32.997-13.5-46.542-11.71-8.332 10.834-13.147 26.469-13.147 46.185 0 28.39 9.966 59.85 26.08 87.755 16.112 27.91 38.373 52.27 62.962 66.466 17.063 9.851 32.999 13.501 46.545 11.71 8.33-10.835 13.143-26.469 13.143-46.18 0-28.397-9.968-59.855-26.084-87.769Z"></path><path fill="url(#R)" d="M162.505 725.885c-16.115-27.906-38.372-52.263-62.957-66.457-17.061-9.851-32.997-13.5-46.542-11.71-8.332 10.834-13.147 26.469-13.147 46.185 0 28.39 9.966 59.85 26.08 87.755 16.112 27.91 38.373 52.27 62.962 66.466 17.063 9.851 32.999 13.501 46.545 11.71 8.33-10.835 13.143-26.469 13.143-46.18 0-28.397-9.968-59.855-26.084-87.769Z"></path><path fill="url(#S)" d="m137.722 785.046 41.13-23.746a212.5 212.5 0 0 0-16.347-35.415 212.49 212.49 0 0 0-22.536-31.905l-41.12 23.74Z"></path><path fill="url(#T)" d="M137.756 740.179c-4.979-8.621-11.857-16.146-19.452-20.532-7.598-4.386-14.475-4.802-19.454-1.927a38.846 38.846 0 0 0 36.936 68.317 13.206 13.206 0 0 0 1.973-.928c4.977-2.871 8.058-9.036 8.058-17.81s-3.082-18.494-8.06-27.12Z"></path><path d="m156.32 774.309 22.532-13.009a212.5 212.5 0 0 0-16.347-35.415 212.49 212.49 0 0 0-22.536-31.905l-23.276 13.439c4.979-2.871 11.853-2.454 19.448 1.93 7.596 4.386 14.474 11.91 19.452 20.532 4.98 8.624 8.06 18.346 8.06 27.119 0 8.326-2.796 14.265-7.332 17.309Z" style="mix-blend-mode:multiply" fill="url(#U)"></path></g></g></g></svg>