<svg xmlns="http://www.w3.org/2000/svg" xmlns:xlink="http://www.w3.org/1999/xlink" viewBox="0 0 1600 1200" id="Startup"><defs><linearGradient id="l" x1="338.53" x2="464.88" y1="579.56" y2="579.56" gradientUnits="userSpaceOnUse"><stop offset="0" stop-color="#c2d6eb" class="stopColorc2c9eb svgShape"></stop><stop offset=".23" stop-color="#c7daed" class="stopColorc7ceed svgShape"></stop><stop offset=".52" stop-color="#d7e4f2" class="stopColord7dbf2 svgShape"></stop><stop offset=".84" stop-color="#f0f5fa" class="stopColorf0f2fa svgShape"></stop><stop offset="1" stop-color="#ffffff" class="stopColorffffff svgShape"></stop></linearGradient><linearGradient id="m" x1="378.2" x2="450.72" y1="571.13" y2="571.13" gradientUnits="userSpaceOnUse"><stop offset="0" stop-color="#cfe2f5" class="stopColorcfd6f5 svgShape"></stop><stop offset="1" stop-color="#ffffff" class="stopColorffffff svgShape"></stop></linearGradient><linearGradient id="n" x1="324.37" x2="450.72" y1="593.7" y2="593.7" gradientUnits="userSpaceOnUse"><stop offset="0" stop-color="#6d64f0" class="stopColor6d64f0 svgShape"></stop><stop offset=".39" stop-color="#524ac8" class="stopColor554ac8 svgShape"></stop><stop offset=".79" stop-color="#6822a2" class="stopColor4133a6 svgShape"></stop><stop offset="1" stop-color="#672b99" class="stopColor392b99 svgShape"></stop></linearGradient><linearGradient id="a" x1="397.16" x2="384.36" y1="574.71" y2="552.54" gradientUnits="userSpaceOnUse"><stop offset=".3" stop-color="#b9d0e8" class="stopColorb9bfe8 svgShape"></stop><stop offset=".54" stop-color="#cadbed" class="stopColorcaceed svgShape"></stop><stop offset="1" stop-color="#f5f7fa" class="stopColorf5f5fa svgShape"></stop></linearGradient><linearGradient id="o" x1="344.15" x2="331.35" y1="386.31" y2="364.14" xlink:href="#a"></linearGradient><linearGradient id="p" x1="452.28" x2="439.48" y1="345.86" y2="323.69" xlink:href="#a"></linearGradient><linearGradient id="q" x1="439.92" x2="506.4" y1="361.45" y2="329.99" gradientUnits="userSpaceOnUse"><stop offset="0" stop-color="#6d64f0" class="stopColor6d64f0 svgShape"></stop><stop offset=".18" stop-color="#6960ea" class="stopColor6960ea svgShape"></stop><stop offset=".43" stop-color="#5d55d9" class="stopColor5f55d9 svgShape"></stop><stop offset=".71" stop-color="#4a42bd" class="stopColor4e42bd svgShape"></stop><stop offset="1" stop-color="#672b99" class="stopColor392b99 svgShape"></stop></linearGradient><linearGradient id="r" x1="427.27" x2="465.2" y1="290.03" y2="290.03" gradientUnits="userSpaceOnUse"><stop offset="0" stop-color="#574fd3" class="stopColor584fd3 svgShape"></stop><stop offset=".35" stop-color="#4c44c2" class="stopColor4f44c2 svgShape"></stop><stop offset="1" stop-color="#672b99" class="stopColor392b99 svgShape"></stop></linearGradient><linearGradient id="s" x1="754.09" x2="1112.87" y1="915.42" y2="533.62" gradientUnits="userSpaceOnUse"><stop offset="0" stop-color="#c2d4e6" class="stopColorc2c8e6 svgShape"></stop><stop offset=".54" stop-color="#e5edf5" class="stopColore5e8f5 svgShape"></stop><stop offset="1" stop-color="#ffffff" class="stopColorffffff svgShape"></stop></linearGradient><linearGradient id="t" x1="423.31" x2="1193.08" y1="823.88" y2="823.88" gradientUnits="userSpaceOnUse"><stop offset="0" stop-color="#cee3f8" class="stopColorced3f8 svgShape"></stop><stop offset="1" stop-color="#bbd0e6" class="stopColorbbc0e6 svgShape"></stop></linearGradient><linearGradient id="u" x1="666.92" x2="728.66" y1="819.67" y2="819.67" gradientUnits="userSpaceOnUse"><stop offset=".43" stop-color="#c4d4e4" class="stopColorc4c9e4 svgShape"></stop><stop offset=".58" stop-color="#d7e2ed" class="stopColord7daed svgShape"></stop><stop offset=".85" stop-color="#f4f6f8" class="stopColorf4f5fa svgShape"></stop><stop offset="1" stop-color="#ffffff" class="stopColorffffff svgShape"></stop></linearGradient><linearGradient id="v" x1="653.31" x2="715.08" y1="823.33" y2="823.33" gradientUnits="userSpaceOnUse"><stop offset="0" stop-color="#857dfb" class="stopColor807dfb svgShape"></stop><stop offset=".01" stop-color="#847cfa" class="stopColor7f7cfa svgShape"></stop><stop offset=".45" stop-color="#625ad1" class="stopColor5e5ad1 svgShape"></stop><stop offset=".79" stop-color="#4d46b8" class="stopColor4a46b8 svgShape"></stop><stop offset="1" stop-color="#7c3eaf" class="stopColor423eaf svgShape"></stop></linearGradient><linearGradient id="w" x1="1177.47" x2="1055.49" y1="238.49" y2="200.98" gradientTransform="matrix(-1 0 0 1 2053.03 0)" gradientUnits="userSpaceOnUse"><stop offset="0" stop-color="#662e94" class="stopColor362e94 svgShape"></stop><stop offset="1" stop-color="#6f67e9" class="stopColor6b67e9 svgShape"></stop></linearGradient><linearGradient id="x" x1="917.05" x2="947.44" y1="240.25" y2="187.61" gradientUnits="userSpaceOnUse"><stop offset="0"></stop><stop offset=".42" stop-color="#00295d" class="stopColor5d3c00 svgShape"></stop><stop offset="1" stop-color="#e100b8" class="stopColore19100 svgShape"></stop></linearGradient><linearGradient id="y" x1="1041.31" x2="1144.14" y1="294.89" y2="116.79" gradientTransform="matrix(-1 0 0 1 2053.03 0)" gradientUnits="userSpaceOnUse"><stop offset=".4" stop-color="#662e94" class="stopColor362e94 svgShape"></stop><stop offset=".48" stop-color="#7c3eaf" class="stopColor423eaf svgShape"></stop></linearGradient><linearGradient id="b" x1="684.21" x2="873.51" y1="613.34" y2="613.34" gradientUnits="userSpaceOnUse"><stop offset="0" stop-color="#c2d4e6" class="stopColorc2c8e6 svgShape"></stop><stop offset=".28" stop-color="#d7e3ef" class="stopColord7dbef svgShape"></stop><stop offset=".74" stop-color="#f4f7fb" class="stopColorf4f5fb svgShape"></stop><stop offset="1" stop-color="#ffffff" class="stopColorffffff svgShape"></stop></linearGradient><linearGradient id="z" x1="703.86" x2="873.51" y1="747.62" y2="747.62" xlink:href="#b"></linearGradient><linearGradient id="A" x1="879.07" x2="1099.51" y1="746" y2="746" xlink:href="#b"></linearGradient><linearGradient id="B" x1="897.65" x2="1099.51" y1="614.97" y2="614.97" xlink:href="#b"></linearGradient><linearGradient id="C" x1="911.07" x2="911.07" y1="625.47" y2="399.13" gradientUnits="userSpaceOnUse"><stop offset=".25" stop-color="#a50b89" class="stopColorbc3153 svgShape"></stop><stop offset=".71" stop-color="#e44ac8" class="stopColore44a66 svgShape"></stop><stop offset="1" stop-color="#ff5ae1" class="stopColorff5a72 svgShape"></stop></linearGradient><linearGradient id="D" x1="1407.76" x2="1407.76" y1="625.47" y2="399.13" gradientTransform="matrix(-1 0 0 1 2079.01 0)" gradientUnits="userSpaceOnUse"><stop offset=".25" stop-color="#a50b89" class="stopColorbc3153 svgShape"></stop><stop offset=".53" stop-color="#da55c2" class="stopColorda555d svgShape"></stop><stop offset=".83" stop-color="#f566db" class="stopColorf57666 svgShape"></stop><stop offset="1" stop-color="#ff6ae4" class="stopColorff826a svgShape"></stop></linearGradient><linearGradient id="E" x1="719.36" x2="862.96" y1="626.62" y2="626.62" gradientUnits="userSpaceOnUse"><stop offset="0" stop-color="#ff5ae1" class="stopColorff5a72 svgShape"></stop><stop offset=".4" stop-color="#e74bcb" class="stopColore74b67 svgShape"></stop><stop offset="1" stop-color="#a50b89" class="stopColorbc3153 svgShape"></stop></linearGradient><linearGradient id="F" x1="725.69" x2="862.96" y1="625.26" y2="625.26" gradientUnits="userSpaceOnUse"><stop offset="0" stop-color="#c2d6eb" class="stopColorc2c9eb svgShape"></stop><stop offset=".24" stop-color="#cadcee" class="stopColorcad0ee svgShape"></stop><stop offset=".61" stop-color="#e1ebf5" class="stopColore1e4f5 svgShape"></stop><stop offset="1" stop-color="#ffffff" class="stopColorffffff svgShape"></stop></linearGradient><linearGradient id="G" x1="661.65" x2="920.67" y1="405.49" y2="405.49" gradientUnits="userSpaceOnUse"><stop offset="0" stop-color="#f0f2f5" class="stopColorf0f0f5 svgShape"></stop><stop offset=".28" stop-color="#e5ebf2" class="stopColore5e6f2 svgShape"></stop><stop offset=".78" stop-color="#c8daec" class="stopColorc8ccec svgShape"></stop><stop offset="1" stop-color="#b9d0e8" class="stopColorb9bfe8 svgShape"></stop></linearGradient><linearGradient id="H" x1="730.23" x2="852.09" y1="233.37" y2="233.37" gradientUnits="userSpaceOnUse"><stop offset="0" stop-color="#ff5ae1" class="stopColorff5a72 svgShape"></stop><stop offset=".29" stop-color="#ef50d2" class="stopColoref506b svgShape"></stop><stop offset=".87" stop-color="#c737ad" class="stopColorc73758 svgShape"></stop><stop offset="1" stop-color="#a50b89" class="stopColorbc3153 svgShape"></stop></linearGradient><linearGradient id="I" x1="702.57" x2="778.79" y1="525.16" y2="638.73" gradientUnits="userSpaceOnUse"><stop offset="0" stop-color="#d1e2f3" class="stopColord1d7f3 svgShape"></stop><stop offset=".1" stop-color="#d7e6f5" class="stopColord7dcf5 svgShape"></stop><stop offset=".67" stop-color="#f4f8fc" class="stopColorf4f6fc svgShape"></stop><stop offset="1" stop-color="#ffffff" class="stopColorffffff svgShape"></stop></linearGradient><linearGradient id="J" x1="898.12" x2="898.12" y1="735.36" y2="511.59" gradientUnits="userSpaceOnUse"><stop offset="0" stop-color="#a50b89" class="stopColorbc3153 svgShape"></stop><stop offset="1" stop-color="#ff5ae1" class="stopColorff5a72 svgShape"></stop></linearGradient><linearGradient id="K" x1="868.97" x2="907.27" y1="536.13" y2="620.73" gradientUnits="userSpaceOnUse"><stop offset="0" stop-color="#dae7f5" class="stopColordae0f5 svgShape"></stop><stop offset=".51" stop-color="#eaf1f8" class="stopColoreaedf8 svgShape"></stop><stop offset="1" stop-color="#f5f7fa" class="stopColorf5f5fa svgShape"></stop></linearGradient><linearGradient id="L" x1="908.37" x2="908.56" y1="542.1" y2="542.1" gradientUnits="userSpaceOnUse"><stop offset="0" stop-color="#b9d0e8" class="stopColorb9bfe8 svgShape"></stop><stop offset=".22" stop-color="#c8daec" class="stopColorc8ccec svgShape"></stop><stop offset=".72" stop-color="#e5ebf2" class="stopColore5e6f2 svgShape"></stop><stop offset="1" stop-color="#f0f2f5" class="stopColorf0f0f5 svgShape"></stop></linearGradient><linearGradient id="M" x1="684.2" x2="684.2" y1="735.36" y2="511.59" gradientUnits="userSpaceOnUse"><stop offset="0" stop-color="#e33cc5" class="stopColore33c5c svgShape"></stop><stop offset="1" stop-color="#ff6ae4" class="stopColorff826a svgShape"></stop></linearGradient><linearGradient id="N" x1="725.43" x2="725.43" y1="472.13" y2="356.39" gradientTransform="rotate(88.2 725.419 414.222)" gradientUnits="userSpaceOnUse"><stop offset="0" stop-color="#d1e2f3" class="stopColord1d7f3 svgShape"></stop><stop offset="1" stop-color="#ffffff" class="stopColorffffff svgShape"></stop></linearGradient><linearGradient id="O" x1="720.57" x2="747.44" y1="468.57" y2="358.81" gradientUnits="userSpaceOnUse"><stop offset="0" stop-color="#a3b9d0" class="stopColora3a9d0 svgShape"></stop><stop offset=".67" stop-color="#bbd0e6" class="stopColorbbc0e6 svgShape"></stop><stop offset="1" stop-color="#f6f8fb" class="stopColorf6f6fb svgShape"></stop></linearGradient><linearGradient id="P" x1="691.91" x2="709.06" y1="447.26" y2="362.47" gradientUnits="userSpaceOnUse"><stop offset="0" stop-color="#cee3f8" class="stopColorced3f8 svgShape"></stop><stop offset=".34" stop-color="#c3d8ee" class="stopColorc3c8ee svgShape"></stop><stop offset=".94" stop-color="#a6bcd3" class="stopColora6acd3 svgShape"></stop><stop offset="1" stop-color="#a3b9d0" class="stopColora3a9d0 svgShape"></stop></linearGradient><linearGradient id="Q" x1="694.46" x2="711.52" y1="447.2" y2="362.86" gradientUnits="userSpaceOnUse"><stop offset="0" stop-color="#ffffff" class="stopColorffffff svgShape"></stop><stop offset="1" stop-color="#cfe2f5" class="stopColorcfd6f5 svgShape"></stop></linearGradient><linearGradient id="R" x1="695.73" x2="750.32" y1="442.39" y2="392.95" gradientUnits="userSpaceOnUse"><stop offset="0" stop-color="#5a52cc" class="stopColor5652cc svgShape"></stop><stop offset="1" stop-color="#857dfb" class="stopColor807dfb svgShape"></stop></linearGradient><linearGradient id="S" x1="251.69" x2="317.44" y1="795.58" y2="909.47" gradientTransform="matrix(.87 .5 0 1.15 942.36 -690.4)" gradientUnits="userSpaceOnUse"><stop offset="0" stop-color="#50a7ff" class="stopColorffe950 svgShape"></stop><stop offset=".08" stop-color="#4aa4ff" class="stopColorffe54a svgShape"></stop><stop offset=".69" stop-color="#198bfd" class="stopColorfdc619 svgShape"></stop><stop offset="1" stop-color="#fc06cf" class="stopColorfcba06 svgShape"></stop></linearGradient><linearGradient id="c" x1="971.08" x2="1044.25" y1="703.24" y2="703.24" gradientUnits="userSpaceOnUse"><stop offset="0" stop-color="#c2d6eb" class="stopColorc2c9eb svgShape"></stop><stop offset=".21" stop-color="#d2e1f0" class="stopColord2d7f0 svgShape"></stop><stop offset=".72" stop-color="#f3f7fb" class="stopColorf3f4fb svgShape"></stop><stop offset="1" stop-color="#ffffff" class="stopColorffffff svgShape"></stop></linearGradient><linearGradient id="T" x1="564.4" x2="628.14" y1="580.8" y2="580.8" xlink:href="#c"></linearGradient><linearGradient id="d" x1="1472.54" x2="1562.43" y1="663.74" y2="663.74" gradientTransform="translate(-398.68)" gradientUnits="userSpaceOnUse"><stop offset="0" stop-color="#c2d6eb" class="stopColorc2c9eb svgShape"></stop><stop offset=".11" stop-color="#cedeef" class="stopColorced3ef svgShape"></stop><stop offset=".42" stop-color="#e9f0f8" class="stopColore9ebf8 svgShape"></stop><stop offset=".69" stop-color="#f9fbfd" class="stopColorf9fafd svgShape"></stop><stop offset=".9" stop-color="#ffffff" class="stopColorffffff svgShape"></stop></linearGradient><linearGradient id="U" x1="1492.88" x2="1568.24" y1="633.79" y2="633.79" gradientTransform="translate(-393.67)" xlink:href="#d"></linearGradient><linearGradient id="e" x1="1704.5" x2="1690.82" y1="640.6" y2="610.47" gradientTransform="matrix(-1 0 0 1 2803.01 0)" gradientUnits="userSpaceOnUse"><stop offset="0" stop-color="#7e3bb5" class="stopColor443bb5 svgShape"></stop><stop offset=".5" stop-color="#622793" class="stopColor332793 svgShape"></stop><stop offset="1" stop-color="#153f74" class="stopColor231574 svgShape"></stop></linearGradient><linearGradient id="V" x1="1705.94" x2="1696.89" y1="639.62" y2="610.33" xlink:href="#e"></linearGradient><linearGradient id="W" x1="-44.98" x2="9.76" y1="463.55" y2="463.55" gradientTransform="rotate(-7.56 1321.48 -7768.846)" gradientUnits="userSpaceOnUse"><stop offset="0" stop-color="#153f74" class="stopColor231574 svgShape"></stop><stop offset=".31" stop-color="#184379" class="stopColor261879 svgShape"></stop><stop offset=".71" stop-color="#5a2189" class="stopColor2f2189 svgShape"></stop><stop offset="1" stop-color="#672b99" class="stopColor392b99 svgShape"></stop></linearGradient><linearGradient id="f" x1="1718.37" x2="1729.56" y1="669.15" y2="655.84" gradientTransform="matrix(-1 0 0 1 2803.01 0)" gradientUnits="userSpaceOnUse"><stop offset="0" stop-color="#153f74" class="stopColor231574 svgShape"></stop><stop offset=".5" stop-color="#622793" class="stopColor332793 svgShape"></stop><stop offset="1" stop-color="#7e3bb5" class="stopColor443bb5 svgShape"></stop></linearGradient><linearGradient id="X" x1="1714" x2="1726.01" y1="665.3" y2="653.2" xlink:href="#f"></linearGradient><linearGradient id="Y" x1="-66.42" x2="-28.54" y1="580.14" y2="589.06" gradientTransform="translate(1134.97)" gradientUnits="userSpaceOnUse"><stop offset="0" stop-color="#574fd3" class="stopColor584fd3 svgShape"></stop><stop offset=".65" stop-color="#622792" class="stopColor342792 svgShape"></stop><stop offset="1" stop-color="#153f74" class="stopColor231574 svgShape"></stop></linearGradient><linearGradient id="Z" x1="1730.24" x2="1754.32" y1="458.26" y2="458.26" gradientTransform="matrix(-1 0 0 1 2803.01 0)" gradientUnits="userSpaceOnUse"><stop offset="0" stop-color="#6d64f0" class="stopColor6d64f0 svgShape"></stop><stop offset="1" stop-color="#827aff" class="stopColor817aff svgShape"></stop></linearGradient><linearGradient id="aa" x1="-21.42" x2="-81.48" y1="480.11" y2="480.11" gradientTransform="translate(1134.97)" gradientUnits="userSpaceOnUse"><stop offset="0" stop-color="#7e3bb5" class="stopColor443bb5 svgShape"></stop><stop offset="1" stop-color="#6d64f0" class="stopColor6d64f0 svgShape"></stop></linearGradient><linearGradient id="ab" x1="1039.21" x2="1039.21" y1="442.66" y2="461.72" gradientUnits="userSpaceOnUse"><stop offset="0" stop-color="#e6eff9" class="stopColore6ecf9 svgShape"></stop><stop offset=".52" stop-color="#f6f9fd" class="stopColorf6f8fd svgShape"></stop><stop offset="1" stop-color="#ffffff" class="stopColorffffff svgShape"></stop></linearGradient><linearGradient id="ac" x1="989.59" x2="1024.85" y1="464.56" y2="464.56" gradientUnits="userSpaceOnUse"><stop offset="0" stop-color="#e6eff9" class="stopColore6ecf9 svgShape"></stop><stop offset=".14" stop-color="#bcc3cb" class="stopColorbcc0cb svgShape"></stop><stop offset=".38" stop-color="#7f7a84" class="stopColor7a7d84 svgShape"></stop><stop offset=".59" stop-color="#45484b" class="stopColor45474b svgShape"></stop><stop offset=".77" stop-color="#202122" class="stopColor202022 svgShape"></stop><stop offset=".91" stop-color="#090909" class="stopColor090909 svgShape"></stop><stop offset="1"></stop></linearGradient><linearGradient id="ad" x1="879.77" x2="914.73" y1="484.5" y2="484.5" gradientTransform="matrix(-1 0 0 1 1968.6 0)" gradientUnits="userSpaceOnUse"><stop offset="0" stop-color="#e6eff9" class="stopColore6ecf9 svgShape"></stop><stop offset=".03" stop-color="#dce6ef" class="stopColordce2ef svgShape"></stop><stop offset=".23" stop-color="#a09fae" class="stopColor9fa4ae svgShape"></stop><stop offset=".43" stop-color="#726b78" class="stopColor6b7178 svgShape"></stop><stop offset=".61" stop-color="#43474d" class="stopColor43494d svgShape"></stop><stop offset=".77" stop-color="#272b2f" class="stopColor272c2f svgShape"></stop><stop offset=".9" stop-color="#15191d" class="stopColor151a1d svgShape"></stop><stop offset="1" stop-color="#0f1216" class="stopColor0f1416 svgShape"></stop></linearGradient><linearGradient id="ae" x1="1688.97" x2="1737.73" y1="471.95" y2="471.95" gradientTransform="matrix(-1 0 0 1 2803.01 0)" gradientUnits="userSpaceOnUse"><stop offset="0" stop-color="#574fd3" class="stopColor584fd3 svgShape"></stop><stop offset=".04" stop-color="#5a52d6" class="stopColor5b52d6 svgShape"></stop><stop offset=".39" stop-color="#726aea" class="stopColor6f6aea svgShape"></stop><stop offset=".72" stop-color="#8078f7" class="stopColor7c78f7 svgShape"></stop><stop offset="1" stop-color="#857dfb" class="stopColor807dfb svgShape"></stop></linearGradient><linearGradient id="af" x1="1415.42" x2="1520.19" y1="1005.99" y2="1005.99" gradientTransform="translate(-482.11)" xlink:href="#d"></linearGradient><linearGradient id="g" x1="2439.3" x2="2459.57" y1="1282.71" y2="1271.85" gradientTransform="matrix(-.99 -.16 -.16 .99 3563.04 133.83)" gradientUnits="userSpaceOnUse"><stop offset="0" stop-color="#662e94" class="stopColor362e94 svgShape"></stop><stop offset=".58" stop-color="#8042b3" class="stopColor4842b3 svgShape"></stop><stop offset="1" stop-color="#5a52cc" class="stopColor5652cc svgShape"></stop></linearGradient><linearGradient id="ag" x1="2420.93" x2="2441.2" y1="1289.63" y2="1278.77" xlink:href="#g"></linearGradient><linearGradient id="ah" x1="-411.43" x2="-346.23" y1="853.7" y2="853.7" gradientTransform="translate(1336.06)" gradientUnits="userSpaceOnUse"><stop offset=".25" stop-color="#ffffff" class="stopColorffffff svgShape"></stop><stop offset=".61" stop-color="#eaf3fc" class="stopColoreaecfc svgShape"></stop><stop offset="1" stop-color="#cee3f8" class="stopColorced3f8 svgShape"></stop></linearGradient><linearGradient id="k" x1="1754.76" x2="1819.04" y1="767.32" y2="767.32" gradientTransform="matrix(-1 0 0 1 2759.43 0)" gradientUnits="userSpaceOnUse"><stop offset="0" stop-color="#193f6f" class="stopColor20196f svgShape"></stop><stop offset=".2" stop-color="#21497c" class="stopColor27217c svgShape"></stop><stop offset=".57" stop-color="#6f369e" class="stopColor3b369e svgShape"></stop><stop offset="1" stop-color="#5a52cc" class="stopColor5652cc svgShape"></stop></linearGradient><linearGradient id="ai" x1="1746.13" x2="1834.67" y1="1061.93" y2="1061.93" gradientTransform="translate(-865.02)" xlink:href="#d"></linearGradient><linearGradient id="aj" x1="1705.78" x2="1794.31" y1="1038.43" y2="1038.43" gradientTransform="translate(-864.92)" xlink:href="#d"></linearGradient><linearGradient id="h" x1="710.81" x2="743.44" y1="1035.32" y2="1035.32" gradientTransform="matrix(-1 0 0 1 1575.22 0)" gradientUnits="userSpaceOnUse"><stop offset="0" stop-color="#193f6f" class="stopColor20196f svgShape"></stop><stop offset=".35" stop-color="#673094" class="stopColor363094 svgShape"></stop><stop offset=".78" stop-color="#5049bd" class="stopColor4d49bd svgShape"></stop><stop offset="1" stop-color="#5a52cc" class="stopColor5652cc svgShape"></stop></linearGradient><linearGradient id="ak" x1="670.46" x2="703.09" y1="1058.81" y2="1058.81" xlink:href="#h"></linearGradient><linearGradient id="al" x1="684.63" x2="740.73" y1="980.83" y2="980.83" gradientTransform="matrix(-1 0 0 1 1575.22 0)" gradientUnits="userSpaceOnUse"><stop offset="0" stop-color="#193f6f" class="stopColor20196f svgShape"></stop><stop offset=".25" stop-color="#1f477a" class="stopColor261f7a svgShape"></stop><stop offset=".7" stop-color="#683097" class="stopColor353097 svgShape"></stop><stop offset="1" stop-color="#7c3eaf" class="stopColor423eaf svgShape"></stop></linearGradient><linearGradient id="am" x1="834.16" x2="892.76" y1="880.15" y2="880.15" gradientUnits="userSpaceOnUse"><stop offset="0" stop-color="#3e9eff" class="stopColorffd03e svgShape"></stop><stop offset=".52" stop-color="#f020ca" class="stopColorf0b120 svgShape"></stop><stop offset="1" stop-color="#e100b8" class="stopColore19100 svgShape"></stop></linearGradient><linearGradient id="an" x1="874.43" x2="917.57" y1="870.17" y2="870.17" gradientUnits="userSpaceOnUse"><stop offset="0" stop-color="#fc06cf" class="stopColorfcba06 svgShape"></stop><stop offset=".77" stop-color="#e801be" class="stopColore89b01 svgShape"></stop><stop offset="1" stop-color="#e100b8" class="stopColore19100 svgShape"></stop></linearGradient><linearGradient id="ao" x1="1161.72" x2="1161.72" y1="948.85" y2="802.07" gradientUnits="userSpaceOnUse"><stop offset="0" stop-color="#d8e7f6" class="stopColord8dff6 svgShape"></stop><stop offset=".13" stop-color="#e8f1fa" class="stopColore8ecfa svgShape"></stop><stop offset=".31" stop-color="#f9fbfe" class="stopColorf9fafe svgShape"></stop><stop offset=".45" stop-color="#ffffff" class="stopColorffffff svgShape"></stop></linearGradient><linearGradient id="ap" x1="1162.24" x2="1037.84" y1="948.67" y2="829.77" gradientUnits="userSpaceOnUse"><stop offset="0" stop-color="#a50b89" class="stopColorbc3153 svgShape"></stop><stop offset="1" stop-color="#e33cc5" class="stopColore33c5c svgShape"></stop></linearGradient><linearGradient id="aq" x1="548.04" x2="753.37" y1="999.75" y2="999.75" gradientUnits="userSpaceOnUse"><stop offset=".44" stop-color="#c2d6eb" class="stopColorc2c9eb svgShape"></stop><stop offset=".57" stop-color="#c7daed" class="stopColorc7ceed svgShape"></stop><stop offset=".73" stop-color="#d7e4f2" class="stopColord7dcf2 svgShape"></stop><stop offset=".92" stop-color="#f1f5fa" class="stopColorf1f2fa svgShape"></stop><stop offset="1" stop-color="#ffffff" class="stopColorffffff svgShape"></stop></linearGradient><linearGradient id="ar" x1="2007.01" x2="1998.9" y1="948.72" y2="928.79" gradientTransform="matrix(-1 0 0 1 2545.55 0)" gradientUnits="userSpaceOnUse"><stop offset="0" stop-color="#b9d0e8" class="stopColorb9bfe8 svgShape"></stop><stop offset=".25" stop-color="#c2d6eb" class="stopColorc2c7eb svgShape"></stop><stop offset=".65" stop-color="#dbe6f2" class="stopColordbddf2 svgShape"></stop><stop offset="1" stop-color="#f5f7fa" class="stopColorf5f5fa svgShape"></stop></linearGradient><linearGradient id="as" x1="2015.99" x2="2012.74" y1="934.01" y2="927.65" gradientTransform="matrix(-1 0 0 1 2545.55 0)" gradientUnits="userSpaceOnUse"><stop offset="0" stop-color="#153f74" class="stopColor231574 svgShape"></stop><stop offset=".21" stop-color="#551e83" class="stopColor2b1e83 svgShape"></stop><stop offset=".62" stop-color="#7435a9" class="stopColor4135a9 svgShape"></stop><stop offset="1" stop-color="#574fd3" class="stopColor584fd3 svgShape"></stop></linearGradient><linearGradient id="i" x1="1058.56" x2="1126.64" y1="1028.26" y2="1028.26" gradientUnits="userSpaceOnUse"><stop offset=".43" stop-color="#c2d4e6" class="stopColorc2c8e6 svgShape"></stop><stop offset=".59" stop-color="#d7e3ef" class="stopColord7dbef svgShape"></stop><stop offset=".85" stop-color="#f4f7fb" class="stopColorf4f5fb svgShape"></stop><stop offset="1" stop-color="#ffffff" class="stopColorffffff svgShape"></stop></linearGradient><linearGradient id="at" x1="1043.55" x2="1111.66" y1="1032.29" y2="1032.29" gradientUnits="userSpaceOnUse"><stop offset="0" stop-color="#3e9eff" class="stopColorffd03e svgShape"></stop><stop offset="1" stop-color="#e100b8" class="stopColore19100 svgShape"></stop></linearGradient><linearGradient id="au" x1="207.62" x2="301.35" y1="700.16" y2="700.16" xlink:href="#i"></linearGradient><linearGradient id="av" x1="184.83" x2="288.24" y1="709.46" y2="709.46" gradientUnits="userSpaceOnUse"><stop offset="0" stop-color="#ff5ae1" class="stopColorff5a72 svgShape"></stop><stop offset=".67" stop-color="#d33fb8" class="stopColord33f5e svgShape"></stop><stop offset="1" stop-color="#a50b89" class="stopColorbc3153 svgShape"></stop></linearGradient><linearGradient id="aw" x1="387.23" x2="548.19" y1="1080.06" y2="1080.06" gradientUnits="userSpaceOnUse"><stop offset=".33" stop-color="#c2d6eb" class="stopColorc2c9eb svgShape"></stop><stop offset=".58" stop-color="#d5e3f1" class="stopColord5daf1 svgShape"></stop><stop offset="1" stop-color="#ffffff" class="stopColorffffff svgShape"></stop></linearGradient><linearGradient id="ax" x1="423.35" x2="471.98" y1="1061.46" y2="1061.46" gradientUnits="userSpaceOnUse"><stop offset="0" stop-color="#b9d0e8" class="stopColorb9bfe8 svgShape"></stop><stop offset="1" stop-color="#d8e7f6" class="stopColord8dff6 svgShape"></stop></linearGradient><linearGradient id="ay" x1="409.62" x2="440.64" y1="1097.29" y2="1097.29" gradientUnits="userSpaceOnUse"><stop offset="0" stop-color="#b9d0e8" class="stopColorb9bfe8 svgShape"></stop><stop offset="1" stop-color="#cce3fa" class="stopColorccd2fa svgShape"></stop></linearGradient><linearGradient id="az" x1="1461.29" x2="1476.59" y1="1175.38" y2="1200.96" gradientTransform="rotate(120 995.189 854.06)" gradientUnits="userSpaceOnUse"><stop offset="0" stop-color="#cce3fa" class="stopColorccd2fa svgShape"></stop><stop offset="1" stop-color="#b9d0e8" class="stopColorb9bfe8 svgShape"></stop></linearGradient><linearGradient id="aA" x1="486.89" x2="508.05" y1="1073.16" y2="1073.16" gradientUnits="userSpaceOnUse"><stop offset=".4" stop-color="#b9d0e8" class="stopColorb9bfe8 svgShape"></stop><stop offset="1" stop-color="#cce3fa" class="stopColorccd2fa svgShape"></stop></linearGradient><linearGradient id="aB" x1="1314.67" x2="1415.17" y1="821.36" y2="821.36" gradientUnits="userSpaceOnUse"><stop offset="0" stop-color="#c2d4e6" class="stopColorc2c8e6 svgShape"></stop><stop offset="1" stop-color="#ffffff" class="stopColorffffff svgShape"></stop></linearGradient><linearGradient id="j" x1="1294.58" x2="1385.78" y1="812.73" y2="812.73" gradientUnits="userSpaceOnUse"><stop offset="0" stop-color="#857dfb" class="stopColor807dfb svgShape"></stop><stop offset="1" stop-color="#7c3eaf" class="stopColor423eaf svgShape"></stop></linearGradient><linearGradient id="aC" x1="1294.58" x2="1385.78" y1="821.43" y2="821.43" gradientUnits="userSpaceOnUse"><stop offset="0" stop-color="#d6e3f1" class="stopColord6ddf1 svgShape"></stop><stop offset=".55" stop-color="#c4d6e9" class="stopColorc4cbe9 svgShape"></stop><stop offset="1" stop-color="#bbd0e5" class="stopColorbbc2e5 svgShape"></stop></linearGradient><linearGradient id="aD" x1="1294.58" x2="1385.78" y1="830.14" y2="830.14" xlink:href="#j"></linearGradient><linearGradient id="aE" x1="564.27" x2="628.23" y1="192.88" y2="82.11" gradientUnits="userSpaceOnUse"><stop offset=".01" stop-color="#fc06cf" class="stopColorfcba06 svgShape"></stop><stop offset="1" stop-color="#3e9eff" class="stopColorffd03e svgShape"></stop></linearGradient><linearGradient id="aF" x1="632.25" x2="605.28" y1="164.89" y2="122.54" gradientUnits="userSpaceOnUse"><stop offset=".01" stop-color="#7c3eaf" class="stopColor423eaf svgShape"></stop><stop offset="1" stop-color="#6f67e9" class="stopColor6b67e9 svgShape"></stop></linearGradient><linearGradient id="aG" x1="1260.81" x2="1349.34" y1="882.02" y2="882.02" gradientTransform="translate(-864.92)" xlink:href="#d"></linearGradient><linearGradient id="aH" x1="1252.13" x2="1340.66" y1="865.98" y2="865.98" gradientTransform="translate(-864.92)" xlink:href="#d"></linearGradient><linearGradient id="aI" x1="457.01" x2="567.83" y1="796.4" y2="796.4" gradientUnits="userSpaceOnUse"><stop offset="0" stop-color="#d1e2f3" class="stopColord1d7f3 svgShape"></stop><stop offset=".21" stop-color="#dbe8f6" class="stopColordbe0f6 svgShape"></stop><stop offset="1" stop-color="#ffffff" class="stopColorffffff svgShape"></stop></linearGradient><linearGradient id="aJ" x1="474.14" x2="474.14" y1="857.56" y2="784.61" gradientUnits="userSpaceOnUse"><stop offset="0" stop-color="#ffffff" class="stopColorffffff svgShape"></stop><stop offset=".79" stop-color="#dbe8f6" class="stopColordbe0f6 svgShape"></stop><stop offset="1" stop-color="#d1e2f3" class="stopColord1d7f3 svgShape"></stop></linearGradient><linearGradient id="aK" x1="355.97" x2="394.77" y1="862.52" y2="862.52" gradientUnits="userSpaceOnUse"><stop offset="0" stop-color="#5a52cc" class="stopColor5652cc svgShape"></stop><stop offset=".63" stop-color="#622c8e" class="stopColor322c8e svgShape"></stop><stop offset="1" stop-color="#193f6f" class="stopColor20196f svgShape"></stop></linearGradient><linearGradient id="aL" x1="408.98" x2="395.84" y1="884.62" y2="874.56" gradientUnits="userSpaceOnUse"><stop offset="0" stop-color="#193f6f" class="stopColor20196f svgShape"></stop><stop offset=".37" stop-color="#622c8e" class="stopColor322c8e svgShape"></stop><stop offset="1" stop-color="#5a52cc" class="stopColor5652cc svgShape"></stop></linearGradient><linearGradient id="aM" x1="486.26" x2="388.55" y1="758.24" y2="857.41" gradientUnits="userSpaceOnUse"><stop offset="0" stop-color="#193f6f" class="stopColor20196f svgShape"></stop><stop offset="1" stop-color="#7c3eaf" class="stopColor423eaf svgShape"></stop></linearGradient><linearGradient id="aN" x1="-492.38" x2="-401.77" y1="796.8" y2="796.8" gradientTransform="translate(910.33)" gradientUnits="userSpaceOnUse"><stop offset=".56" stop-color="#a3b6ca" class="stopColora3a9ca svgShape"></stop><stop offset=".61" stop-color="#ccdff2" class="stopColorccd0f2 svgShape"></stop></linearGradient><linearGradient id="aO" x1="1224.98" x2="1291.14" y1="784.36" y2="784.36" gradientTransform="matrix(-1 0 0 1 1695.87 0)" gradientUnits="userSpaceOnUse"><stop offset=".17" stop-color="#7b3ead" class="stopColor423ead svgShape"></stop><stop offset=".2" stop-color="#5a52c9" class="stopColor5652c9 svgShape"></stop><stop offset=".23" stop-color="#6f67e7" class="stopColor6b67e7 svgShape"></stop></linearGradient><linearGradient id="aP" x1="-860.23" x2="-812.5" y1="737.46" y2="737.46" gradientTransform="translate(1336.06)" gradientUnits="userSpaceOnUse"><stop offset="0" stop-color="#fc06cf" class="stopColorfcba06 svgShape"></stop><stop offset=".44" stop-color="#f204c7" class="stopColorf2ab04 svgShape"></stop><stop offset="1" stop-color="#e100b8" class="stopColore19100 svgShape"></stop></linearGradient><linearGradient id="aQ" x1="2235.87" x2="2278.25" y1="686.5" y2="686.5" xlink:href="#k"></linearGradient></defs><g style="isolation:isolate" fill="#f4f6f8" class="color000000 svgShape"><g fill="#f4f6f8" class="color000000 svgShape"><g data-name="Woman with laptop" fill="#f4f6f8" class="color000000 svgShape"><path d="M357,553.76c24.67-14.24,64.67-14.24,89.34,0,12.33,7.13,18.5,16.46,18.5,25.79s-6.17,18.67-18.5,25.8c-24.67,14.24-64.67,14.24-89.34,0S332.37,568,357,553.76Z" style="mix-blend-mode:multiply" fill="url(#l)"></path><path fill="#f6f8fb" d="M342.87,545.59c24.67-14.24,64.68-14.24,89.35,0,12.33,7.12,18.5,16.45,18.5,25.78s-6.17,18.68-18.5,25.8c-24.67,14.24-64.68,14.24-89.35,0S318.2,559.83,342.87,545.59Z" class="colorf6f6fb svgShape"></path><path d="M420.46,557.17H409.25a16.51,16.51,0,0,1,1.09,5.61c0,2.91-1,5-2.71,5.88l-27.38,15.81a4.52,4.52,0,0,1-2.05.62h35.66l14.7-8.48h21.51a21.79,21.79,0,0,0,.65-5.24,22.41,22.41,0,0,0-2.21-9.53H428.56Z" style="mix-blend-mode:multiply" fill="url(#m)"></path><path fill="url(#n)" d="M432.22,597.17c-24.67,14.24-64.68,14.24-89.35,0-12.32-7.12-18.49-16.44-18.5-25.76v8.17c0,9.32,6.18,18.65,18.5,25.77,24.67,14.24,64.68,14.24,89.35,0,12.32-7.12,18.49-16.45,18.5-25.77v-8.21C450.72,580.71,444.55,590.05,432.22,597.17Z"></path><path fill="#cce3fa" d="M364.75,568.19c0-5.78,4.05-8.12,9.05-5.23s9.05,9.91,9.05,15.68-4.05,8.12-9.05,5.23S364.75,574,364.75,568.19Z" class="colorccd2fa svgShape"></path><path fill="url(#a)" d="M410.34,562.78c0-5.78-4-12.8-9.06-15.68-2.6-1.51-4.92-1.57-6.57-.49,0,0-27.28,15.71-27.28,15.71,1.64-.93,3.89-.79,6.37.64,5,2.89,9.05,9.91,9.05,15.68,0,2.86-1,4.87-2.6,5.83l27.38-15.8C409.3,567.73,410.34,565.69,410.34,562.78Z"></path><path fill="#672b99" d="M379.12,559.89c3.57,2.07,6.64,6.25,8.11,10.57l-51.18-182-11.93-1.54L372.66,559.3C374.3,558.32,376.59,558.43,379.12,559.89Z" class="color392b99 svgShape"></path><polygon fill="#153f74" points="387.23 570.46 400.02 563.07 348.84 381.07 336.05 388.46 387.23 570.46" class="color231574 svgShape"></polygon><path fill="#cce3fa" d="M311.74,379.78c0-5.77,4.05-8.11,9.05-5.22s9,9.9,9,15.68-4,8.11-9,5.22S311.74,385.56,311.74,379.78Z" class="colorccd2fa svgShape"></path><path fill="url(#o)" d="M357.33,374.37c0-5.77-4.06-12.79-9.06-15.68-2.6-1.5-4.92-1.56-6.57-.49,0,0-27.28,15.71-27.28,15.71,1.63-.93,3.89-.79,6.37.65,5,2.89,9,9.9,9,15.68,0,2.86-1,4.86-2.6,5.82l27.38-15.8C356.29,379.32,357.33,377.29,357.33,374.37Z"></path><path fill="#672b99" d="M337.19,386c0,.36-.06.67-.09,1l103.55-38.23-8.11-16.1L329,370.91C333.58,374.06,337.19,380.56,337.19,386Z" class="color392b99 svgShape"></path><polygon fill="#5046e4" points="328.99 370.91 341.78 363.52 445.33 325.29 432.54 332.68 328.99 370.91" class="color584fd3 svgShape"></polygon><path fill="#cce3fa" d="M419.87,339.34c0-5.78,4.05-8.12,9.05-5.23S438,344,438,349.79s-4.05,8.11-9.05,5.23S419.87,345.11,419.87,339.34Z" class="colorccd2fa svgShape"></path><path fill="url(#p)" d="M465.46,333.92c0-5.77-4.06-12.79-9.06-15.68-2.6-1.5-4.92-1.56-6.57-.49,0,0-27.28,15.71-27.28,15.71,1.64-.92,3.89-.79,6.37.65,5,2.89,9.05,9.91,9.05,15.68,0,2.86-1,4.87-2.6,5.83l27.38-15.81C464.42,338.87,465.46,336.84,465.46,333.92Z"></path><path fill="url(#q)" d="M541.52,370.07c0-.09-66.56-88.75-66.56-88.75l-53.49,25.6L448,414.21c0,1.44,3.41,1.35,10.35-.67,16.23-4.69,45.73-18,65.87-29.7C536.63,376.6,542.58,371.68,541.52,370.07Z"></path><path fill="#827aff" d="M469.15,282c9.3-2.69,7.48.57-4.07,7.28s-28.45,14.34-37.75,17-7.48-.57,4.07-7.28S459.85,284.69,469.15,282Z" class="color817aff svgShape"></path><path fill="url(#r)" d="M465.12,286l-4-8.4-33.86,16.06,4,8.52c.23.37,1.45.28,3.71-.38,5.88-1.7,16.57-6.52,23.87-10.76C463.53,288.37,465.67,286.56,465.12,286Z"></path><path fill="#6d64f0" d="M457.4,277.9c5.88-1.7,4.72.36-2.58,4.6s-18,9.06-23.87,10.77-4.72-.36,2.58-4.6S451.52,279.6,457.4,277.9Z" class="color6d64f0 svgShape"></path><path d="M1147.17,574c-80.43-46.43-187.35-67.82-292.35-64.69H791.75v27C760.51,546.16,731,558.7,704.66,574,555,661.07,555.83,802.13,706.48,889.18c25.94,15,54.77,27.22,85.27,37v28.17h95.9c95-1.57,189.06-23.13,261.32-65.09C1298.69,802.13,1297.93,661.07,1147.17,574Z" style="mix-blend-mode:multiply" fill="url(#s)"></path><path fill="url(#t)" d="M536.9,889.24C461.06,845.43,423.14,788,423.31,730.57l.34-37.35C423.5,750.67,461.35,808.13,537.2,852c150.77,87,394.32,87,544.05,0,74.4-43.29,111.65-99.82,111.83-156.51l-.35,37.31c-.15,56.66-37.39,113.2-111.77,156.49C931.22,976.32,687.63,976.32,536.9,889.24Z"></path><path fill="#f5f7fa" d="M537.2,852c-150.69-87-151.52-228.13-1.81-315.13s393.41-87,544.1,0S1231,764.94,1081.25,852,688,939,537.2,852Z" class="colorf5f5fa svgShape"></path><path d="M719.54,807c-6.45-3.73-15-5.44-23.46-5.19H682.87V804a34.72,34.72,0,0,0-7,3c-12,7-11.94,18.3.15,25.29a35.5,35.5,0,0,0,6.84,3v2.26h15.85c7.62-.13,15.17-1.86,21-5.23C731.7,825.32,731.64,814,719.54,807Z" style="mix-blend-mode:multiply" fill="url(#u)"></path><path fill="url(#v)" d="M662.42,832.32c-6.09-3.51-9.13-8.12-9.11-12.73l0-10.5c0,4.61,3,9.22,9.11,12.74,12.1,7,31.65,7,43.66,0,6-3.47,9-8,9-12.56l0,10.5c0,4.54-3,9.08-9,12.55C694.06,839.31,674.52,839.31,662.42,832.32Z"></path><path fill="#ffffff" d="M662.44,821.83c-12.09-7-12.16-18.31-.14-25.29s31.57-7,43.66,0,12.16,18.3.14,25.29S674.54,828.81,662.44,821.83Z" class="colorffffff svgShape"></path><polygon fill="#bbd0e6" points="700.04 807.74 677.2 808.9 677.91 803.77 671.6 803.77 669.88 813.13 700.04 811.39 700.04 807.74" class="colorbbc0e6 svgShape"></polygon><path fill="url(#w)" d="M995.91,208.46a15.58,15.58,0,0,0-7-12.16L882.94,135.12c-3.86-2.23-7-.4-7,4.06v92.23a15.59,15.59,0,0,0,7,12.16l105.95,61.17c3.86,2.23,7,.41,7-4.05Z"></path><path d="M981.2,228.35c-9-5.19-16.4,30.83-26,25.31-9.17-5.29-9-30.71-18.37-36.12-7-4-8,7.58-15,3.53C913.1,216,910,179,902.18,174.44c-7.41-4.28-8.58,9-13.66,6-7.21-4.16-3.12-28.69-12.61-34.17V155c9.49,5.47,5.4,30,12.61,34.17,5.08,2.93,6.25-10.32,13.66-6,7.8,4.5,10.92,41.55,19.7,46.62,7,4.06,8-7.56,15-3.52,9.36,5.4,9.2,30.82,18.37,36.12,9.56,5.52,17-30.51,26-25.32,5.06,2.92,10.91,21.62,14.71,31.87v-8.64C992.11,250,986.26,231.27,981.2,228.35Z" style="mix-blend-mode:screen" fill="url(#x)"></path><polygon points="935.7 267.66 938.04 269.01 938.04 218.22 935.7 216.87 935.7 267.66" style="mix-blend-mode:screen" fill="#3e9eff" class="colorffd03e svgShape"></polygon><path fill="#ffffff" d="M940.16,219.44a7.29,7.29,0,0,0-3.29-5.69c-1.81-1.05-3.29-.2-3.29,1.9a7.29,7.29,0,0,0,3.29,5.69C938.68,222.39,940.16,221.54,940.16,219.44Z" class="colorffffff svgShape"></path><polygon fill="#7c3eaf" points="971.63 198.23 984.79 205.83 984.79 200.73 971.63 193.12 971.63 198.23" class="color423eaf svgShape"></polygon><polygon fill="#7c3eaf" points="972.87 205.55 984.79 212.44 984.79 209.17 972.87 202.28 972.87 205.55" class="color423eaf svgShape"></polygon><path fill="url(#y)" d="M995.91,300.69V208.46a15.58,15.58,0,0,0-7-12.16L882.94,135.12c-1.91-1.1-3.65-1.21-4.92-.5l3.68-2.12h0c1.28-.82,3.08-.76,5.08.4l106,61.17a15.58,15.58,0,0,1,7,12.16v92.23c0,2.33-.87,3.94-2.25,4.63l-3.5,2C995.19,304.33,995.91,302.81,995.91,300.69Z"></path><g style="mix-blend-mode:multiply" fill="#f4f6f8" class="color000000 svgShape"><path fill="url(#b)" d="M873.51,601.72c-93,6.71-194.09,20.37-189.12,23.25H873.51Z"></path><path fill="url(#z)" d="M873.51,736.75H704c-4.62,2.67,82.42,14.67,169.47,21.73Z"></path><path fill="url(#A)" d="M1099.51,735.12c-5.21,1-13.84,1.63-27.27,1.63H879.07c4.29,2.48,115.35,13,220.44,20.13Z"></path><path fill="url(#B)" d="M1099.51,605.51c-99.2,7.06-197.82,16.51-201.86,18.84h193.17c3.16,0,6,0,8.69.09Z"></path></g><path fill="url(#C)" d="M880,413.12V497.3c9.32-4.91,17.8-5.6,17.8,17.15v111c5.27-3,31.57-99.28,42.13-167.44C949.29,397.88,927.84,385.52,880,413.12Z"></path><path fill="url(#D)" d="M702.28,413.12V497.3c-9.32-4.91-17.8-5.6-17.8,17.15v111c-5.27-3-31.57-99.28-42.13-167.44C633,397.88,654.48,385.52,702.28,413.12Z"></path><path fill="url(#E)" d="M740.39,597.31c14-8.1,32.4-12.14,50.77-12.14s36.75,4,50.77,12.14,21,18.7,21,29.31-7,21.22-21,29.31-32.39,12.14-50.77,12.14-36.75-4-50.77-12.14-21-18.7-21-29.31S726.37,605.4,740.39,597.31Z"></path><path d="M841.93,597.31c-14-8.1-32.39-12.14-50.77-12.14s-36.75,4-50.77,12.14a50.26,50.26,0,0,0-14.7,12.29c3.57,4.55,9.33,7.68,18,8.71,57.71,6.85,73.72,32,73,47a88.74,88.74,0,0,0,25.27-9.42c14-8.09,21-18.7,21-29.31S856,605.4,841.93,597.31Z" style="mix-blend-mode:multiply" fill="url(#F)"></path><path fill="url(#G)" d="M919.57,439.41C909,323,831.65,217,791.16,171.41,750.67,217,673.28,323,662.75,439.41c-5.17,57.32,8.81,109.51,23.74,151h0c4.09,11.38,13.76,22.23,29,31.06,20.88,12,48.24,18.08,75.6,18.08s54.72-6,75.6-18.08c15.3-8.83,25-19.68,29-31.06h0C910.77,548.92,924.75,496.73,919.57,439.41Z"></path><path fill="url(#H)" d="M791.16,171.41a604.67,604.67,0,0,0-57.6,77.24v0a22.25,22.25,0,0,0-3.33,11.49c0,9,5.95,18,17.84,24.88s27.5,10.3,43.09,10.3,31.19-3.43,43.09-10.3,17.84-15.88,17.84-24.88a22.24,22.24,0,0,0-3.32-11.49v0A605.55,605.55,0,0,0,791.16,171.41Z"></path><path d="M775.92,607.31c0-35.53-19.57-66.09-66.44-95.72-7.23,23.94-1.73,46.36,5.71,73.58,10.24,4,16.56,15.22,20.77,37.58.39,2.07.94,5,1.59,8.44a163.35,163.35,0,0,0,37.16,7.59C775.47,628.21,775.92,617.55,775.92,607.31Z" style="mix-blend-mode:multiply" fill="url(#I)"></path><path fill="#ff5ae1" d="M872.84,511.59c-11.54,22.19-15.29,48-13,76.15,9.31,5.85,18.46,15.24,18.46,38v111c5.27,3,31.57-62.82,42.13-118.8C929.72,568.56,919.11,541,872.84,511.59Z" class="colorff5a72 svgShape"></path><path fill="url(#J)" d="M888.31,533.78c12,11.88,30.66,29.45,27.71,65.59-3.27,40.18-21.79,109.57-35.31,136,8.37-9.8,30.29-67.51,39.7-117.41,9.31-49.39-1.3-77-47.57-106.36C872.28,512.66,874,519.57,888.31,533.78Z"></path><g style="mix-blend-mode:multiply" fill="#f4f6f8" class="color000000 svgShape"><path fill="url(#K)" d="M882.26,639.58c15.21-23.56,25.72-31.68,19.79-91-.54-5.33,1.93-11.5,5.67-7.4-8.08-10.24-19.5-19.81-34.88-29.58-11.54,22.19-15.29,48-13,76.15,9.31,5.85,18.46,15.24,18.46,38v11.55Z"></path><path fill="url(#L)" d="M908.37,542c.06.09.12.15.19.24h0Z"></path></g><path fill="#e33cc5" d="M709.48,511.59c11.54,22.19,15.3,48,13,76.15-9.31,5.85-18.46,15.24-18.46,38v111c-5.27,3-31.57-62.82-42.13-118.8C652.6,568.56,663.22,541,709.48,511.59Z" class="colore33c5c svgShape"></path><path fill="url(#M)" d="M694,533.78c-12,11.88-30.65,29.45-27.71,65.59,3.27,40.18,21.79,109.57,35.32,136-8.38-9.8-30.29-67.51-39.71-117.41-9.31-49.39,1.31-77,47.57-106.36C710,512.66,708.37,519.57,694,533.78Z"></path><ellipse cx="725.43" cy="414.26" rx="57.86" ry="46.87" transform="rotate(-88.2 725.39 414.27)" style="mix-blend-mode:multiply" fill="url(#N)"></ellipse><ellipse cx="713.51" cy="409.37" fill="#ffffff" rx="57.86" ry="46.87" transform="rotate(-88.2 713.465 409.376)" class="colorffffff svgShape"></ellipse><path fill="#857dfb" d="M746.58,427c8.12-22.66-.11-48.92-18.38-58.64a30.24,30.24,0,0,0-11.63-3.45c-13.75.38-26.82,10.42-32.77,27-8.11,22.66.12,48.92,18.38,58.64A30.29,30.29,0,0,0,713.81,454C727.56,453.6,740.64,443.56,746.58,427Z" class="color807dfb svgShape"></path><path fill="url(#O)" d="M739.12,356.39a39.12,39.12,0,0,0-17.19-4.66l-6.58-.21a39,39,0,0,1,17.19,4.67c23.66,12.58,34.33,46.6,23.81,76-8,22.41-26.07,35.65-44.69,35.06l6.58.21c18.62.59,36.67-12.65,44.69-35.06C773.44,403,762.78,369,739.12,356.39Z"></path><path fill="url(#P)" d="M683.8,391.89c6-16.61,19-26.65,32.77-27-14.94-1.32-29.71,9-36.14,26.92-8.12,22.67.12,48.93,18.38,58.64a29.87,29.87,0,0,0,15,3.56,30.29,30.29,0,0,1-11.63-3.45C683.92,440.81,675.69,414.55,683.8,391.89Z"></path><path d="M705.27,451.94a29.85,29.85,0,0,0,5.59,1.64h0a29.24,29.24,0,0,0,2.92.4c.57,0,1.14-.07,1.71-.12a30.1,30.1,0,0,1-10-3.23c-18.27-9.71-26.5-36-18.39-58.64,5.7-15.92,18-25.77,31.07-26.91-.51-.07-1-.16-1.53-.21s-1.14.05-1.71.1l-.77,0c-.72.08-1.44.2-2.15.33l-.52.08c-.89.18-1.77.39-2.65.65l-.27.1q-1.15.35-2.28.78c-.31.12-.6.26-.9.39-.54.23-1.08.46-1.61.72-.34.17-.67.36-1,.54s-1,.51-1.42.78l-1,.67c-.44.28-.88.57-1.31.88s-.69.51-1,.77-.83.64-1.23,1-.68.58-1,.88-.78.71-1.16,1.09-.64.63-1,1-.74.79-1.11,1.21-.6.68-.89,1-.71.89-1,1.34l-.82,1.1c-.34.49-.67,1-1,1.49s-.5.75-.73,1.14c-.34.54-.65,1.11-1,1.67-.21.38-.43.75-.63,1.14-.33.64-.64,1.31-1,2-.16.34-.32.66-.47,1-.45,1-.87,2.07-1.26,3.16a53.39,53.39,0,0,0-2.88,13c-.14,1.46-.22,2.91-.24,4.36a54.93,54.93,0,0,0,.7,9.37,53.45,53.45,0,0,0,1.72,7.45,49.61,49.61,0,0,0,2.18,5.6,41.71,41.71,0,0,0,10.54,14.49,34.72,34.72,0,0,0,6.36,4.38c.86.45,1.74.85,2.61,1.22Z" style="mix-blend-mode:multiply" fill="url(#Q)"></path><path fill="url(#R)" d="M729.42,386.67c-17.49.49-34.12,13.26-41.68,34.38A68.16,68.16,0,0,0,685,431.12c3.67,8.37,9.52,15.35,17.15,19.41A30.29,30.29,0,0,0,713.81,454c13.75-.38,26.83-10.42,32.77-27a54.15,54.15,0,0,0,.76-34c-1-.66-2.05-1.33-3.13-1.9A38.57,38.57,0,0,0,729.42,386.67Z"></path><path d="M1245.18,508.09c0,5.18-3.67,7.29-8.15,4.71l-79.77-46.06-9.81,7.45V461.07l-6.89-4c-4.49-2.59-8.15-9-8.15-14.12V364.5c0-5.18,3.66-7.3,8.15-4.71L1237,415.48c4.48,2.6,8.15,8.95,8.15,14.13Z" style="mix-blend-mode:multiply" fill="url(#S)"></path><g style="mix-blend-mode:screen" fill="#f4f6f8" class="color000000 svgShape"><polygon fill="#3e9eff" points="1223.94 445.29 1153.64 404.7 1153.64 399.77 1223.94 440.36 1223.94 445.29" class="colorffd03e svgShape"></polygon><polygon fill="#3e9eff" points="1223.94 459.05 1153.64 418.46 1153.64 413.53 1223.94 454.12 1223.94 459.05" class="colorffd03e svgShape"></polygon><polygon fill="#3e9eff" points="1223.94 472.81 1153.64 432.22 1153.64 427.3 1223.94 467.89 1223.94 472.81" class="colorffd03e svgShape"></polygon><polygon fill="#3e9eff" points="1206.59 476.56 1153.64 445.99 1153.64 441.06 1206.59 471.63 1206.59 476.56" class="colorffd03e svgShape"></polygon><polygon fill="#3e9eff" points="1199.51 416.05 1195.22 413.57 1195.22 408.63 1199.51 411.1 1199.51 416.05" class="colorffd03e svgShape"></polygon><polygon fill="#3e9eff" points="1190.94 411.1 1186.65 408.63 1186.65 403.68 1190.94 406.15 1190.94 411.1" class="colorffd03e svgShape"></polygon><polygon fill="#3e9eff" points="1182.37 406.15 1178.08 403.68 1178.08 398.73 1182.37 401.2 1182.37 406.15" class="colorffd03e svgShape"></polygon></g><polygon points="1044.24 712.36 1044.25 712.36 1024.24 700.81 1037.09 686.25 1037.08 686.25 1037.09 686.25 1019.08 686.25 1012.77 693.41 1011.87 693.67 991.86 682.12 996.29 698.25 971.08 705.67 999.02 708.23 999.18 708.8 985.45 724.37 1003.45 724.37 1016.3 709.81 1044.25 712.37 1044.24 712.36" style="mix-blend-mode:multiply" fill="url(#c)"></polygon><polygon fill="#fc06cf" points="973.86 671.01 973.86 682.12 978.28 698.26 978.28 687.15 973.86 671.01" class="colorfcba06 svgShape"></polygon><polygon fill="#e100b8" points="1019.08 675.15 1019.08 686.26 1006.24 700.81 1006.24 689.71 1019.08 675.15" class="colore19100 svgShape"></polygon><polygon fill="#fc06cf" points="998.29 698.71 998.29 709.81 1026.25 712.37 1026.25 701.26 998.29 698.71" class="colorfcba06 svgShape"></polygon><polygon fill="#e100b8" points="953.07 694.57 953.07 705.67 981.02 708.23 981.02 697.13 953.07 694.57" class="colore19100 svgShape"></polygon><polygon fill="#e100b8" points="998.29 698.71 998.29 709.81 985.45 724.37 985.45 713.26 998.29 698.71" class="colore19100 svgShape"></polygon><polygon fill="#fc06cf" points="985.45 713.26 985.45 724.37 981.02 708.23 981.02 697.13 985.45 713.26" class="colorfcba06 svgShape"></polygon><polygon fill="#3e9eff" points="1019.08 675.15 1006.24 689.71 1026.25 701.26 998.29 698.71 985.45 713.26 981.02 697.13 953.07 694.57 978.28 687.15 973.86 671.01 993.86 682.57 1019.08 675.15" class="colorffd03e svgShape"></polygon><polygon points="628.13 588.74 628.13 588.74 610.71 578.68 621.9 566 621.89 566 621.89 566 606.21 566 600.71 572.23 599.93 572.46 582.5 562.4 586.36 576.46 564.4 582.91 588.74 585.14 588.88 585.64 576.91 599.2 592.6 599.2 603.79 586.52 628.14 588.75 628.13 588.74" style="mix-blend-mode:multiply" fill="url(#T)"></polygon><polygon fill="#fc06cf" points="566.82 552.73 566.82 562.4 570.68 576.46 570.68 566.78 566.82 552.73" class="colorfcba06 svgShape"></polygon><polygon fill="#e100b8" points="606.22 556.33 606.22 566 595.02 578.68 595.02 569.01 606.22 556.33" class="colore19100 svgShape"></polygon><polygon fill="#fc06cf" points="588.11 576.85 588.11 586.52 612.45 588.75 612.45 579.08 588.11 576.85" class="colorfcba06 svgShape"></polygon><polygon fill="#e100b8" points="548.72 573.25 548.72 582.91 573.06 585.14 573.06 575.47 548.72 573.25" class="colore19100 svgShape"></polygon><polygon fill="#e100b8" points="588.11 576.85 588.11 586.52 576.92 599.2 576.92 589.53 588.11 576.85" class="colore19100 svgShape"></polygon><polygon fill="#fc06cf" points="576.92 589.53 576.92 599.2 573.06 585.14 573.06 575.47 576.92 589.53" class="colorfcba06 svgShape"></polygon><polygon fill="#3e9eff" points="606.22 556.33 595.02 569.01 612.45 579.08 588.11 576.85 576.92 589.53 573.06 575.47 548.72 573.25 570.68 566.78 566.82 552.73 584.25 562.79 606.22 556.33" class="colorffd03e svgShape"></polygon><polygon points="1163.75 655.77 1085.97 655.77 1073.86 671.71 1163.75 671.71 1163.75 655.77" style="mix-blend-mode:multiply" fill="url(#d)"></polygon><polygon points="1174.56 627.76 1107.4 627.76 1099.21 639.83 1174.56 639.83 1174.56 627.76" style="mix-blend-mode:multiply" fill="url(#U)"></polygon><path fill="url(#e)" d="M1107.05,610.16c3.48-2.37,9,1.66,10.36,6.14.06,1.93-1.37,5.16-1.37,5.16s-5.82,12.95-7.8,15.15-10,5.37-13.86,2.07c-2.77-3.6,2.74-5.75,3.74-9.31,1.31-4.63.75-8.33,2-11.82C1101.21,614.68,1107.05,610.16,1107.05,610.16Z"></path><path fill="#0f294a" d="M1117.07,615.41s0,0,0,.05c.06,1.93-1.36,5.16-1.36,5.16s-5.82,13-7.8,15.15-10,5.37-13.86,2.07a4.61,4.61,0,0,1-.39-.59,3.56,3.56,0,0,0,.7,1.43c3.87,3.3,11.89.14,13.86-2.07s7.8-15.15,7.8-15.15,1.43-3.23,1.37-5.16C1117.31,616,1117.2,615.71,1117.07,615.41Z" class="color140f4a svgShape"></path><path fill="#ffffff" d="M1097.5,613.08c1.7-1.15,8.72-3.7,8.72-3.7a4,4,0,0,0,1.58,1.18,2.22,2.22,0,0,1,.31.1c1.73,0,4.87,1.64,2.93,5.13-3.76,6.77-12.46,6.53-11.5,3.32C1100.19,617,1098.4,614.41,1097.5,613.08Z" class="colorffffff svgShape"></path><path fill="url(#V)" d="M1099.38,620.87c-.27-1.07-.58-3.38,2.16-3.77s6.11.92,5.85,2.61C1106.83,623.21,1099.65,622,1099.38,620.87Z"></path><path fill="url(#W)" d="M1110.1,609.51c-3.25-4.38-27.37-33.41-38.73-39.2,3.82-16,13.73-36.84,10.58-54h-24.2s-14.34,50.82-5.16,62.93c7,9.18,37.73,32.63,49.2,40C1105.72,619.27,1111.52,612.92,1110.1,609.51Z"></path><path fill="url(#f)" d="M1089.56,651.71c4.16.68,5.36,7.37,3.28,11.58-1.29,1.44-4.55,2.8-4.55,2.8s-13.12,5.39-16.07,5.62-9.52-.86-10-5.91c.5-3.08,3.09-3.93,6.27-5.81,4.14-2.46,7.69-6,11-7.67C1082.21,651,1089.56,651.71,1089.56,651.71Z"></path><path fill="#0f294a" d="M1072.31,670.36c3-.24,16.55-5.77,16.55-5.77a17.37,17.37,0,0,0,4.53-2.76,8.27,8.27,0,0,1-.55,1.46c-1.29,1.44-4.55,2.8-4.55,2.8s-13.12,5.39-16.07,5.62-9.52-.86-10-5.91c0-.1.06-.2.07-.3C1063.64,669.65,1069.53,670.59,1072.31,670.36Z" class="color140f4a svgShape"></path><path fill="#ffffff" d="M1080.62,647.26c2,.33,8.87,3.31,8.87,3.31a4,4,0,0,0,.34,1.94c.05.09.1.19.16.28,1.24,1.21,2.55,3.34-1.26,4.54-7.39,2.33-13.69-2.63-10.78-4.3C1079.9,651.91,1080.36,648.83,1080.62,647.26Z" class="colorffffff svgShape"></path><path fill="url(#X)" d="M1076.69,654c.55-.73,1.84-2.68,4.09-1.07s2.89,3.7,2.62,5.39-5.14.44-5.33.18S1076.69,654,1076.69,654Z"></path><path fill="url(#Y)" d="M1079,515.5c0,22.72-.24,48.13-.24,68,0,22.7-1.74,50.83-1.5,69.85,3.65,4.52,12.92,3.38,14.87-.11,2.41-17.26,7.79-43.56,6.46-62.4,5.74-24.83,12.93-54.34,10.59-73.82C1103.68,518.74,1084.49,513.75,1079,515.5Z"></path><path fill="url(#Z)" d="M1072.77,423.91c-18.53,5.88-23,24-23.81,36.48-.55,8.21-1.42,38.22,10.19,31.16S1072.77,423.91,1072.77,423.91Z"></path><path fill="url(#aa)" d="M1108.06,436.94c-4.81-6-16.62-14.41-24.35-15-13.16-1-23.58,9.9-26.26,19-2.53,8.55-1.14,73.14-4,84.76,1.39,6.13,12.66,9.45,16.94,10.38,18.56,4.08,39.73,3.35,41.19-8.42C1114.35,505.66,1115,443.87,1108.06,436.94Z"></path><polygon fill="#d6e3f1" points="1064.02 496.91 1039.21 534.05 1088.83 472.1 1064.02 496.91" class="colord6ddf1 svgShape"></polygon><polygon fill="#d6e3f1" points="989.59 472.1 1039.21 534.05 1014.4 496.91 989.59 472.1" class="colord6ddf1 svgShape"></polygon><polygon fill="#bbd0e5" points="1014.4 496.91 1039.21 534.05 1064.02 496.91 1014.4 496.91" class="colorbbc2e5 svgShape"></polygon><polygon fill="#b9d0e8" points="1014.4 496.91 989.59 472.1 1014.4 447.29 1064.02 447.29 1088.83 472.1 1064.02 496.91 1014.4 496.91" class="colorb9bfe8 svgShape"></polygon><polygon fill="#ffffff" points="1024.85 471.38 1010.49 457.02 1024.85 442.66 1053.57 442.66 1067.93 457.02 1053.57 471.38 1024.85 471.38" class="colorffffff svgShape"></polygon><polygon fill="#d6e3f1" points="1014.4 496.91 1024.85 471.38 1053.57 471.38 1064.02 496.91 1014.4 496.91" class="colord6ddf1 svgShape"></polygon><polygon points="1014.4 461.72 1024.85 442.66 1053.57 442.66 1064.02 461.72 1014.4 461.72" style="mix-blend-mode:multiply" fill="url(#ab)"></polygon><polygon fill="#e7eef6" points="1010.49 457.02 989.59 472.1 1014.4 496.91 1024.85 471.38 1010.49 457.02" class="colore7ecf6 svgShape"></polygon><polygon fill="#e7eef6" points="989.59 472.1 1010.49 457.02 1024.85 442.66 1014.4 447.29 989.59 472.1" class="colore7ecf6 svgShape"></polygon><polygon fill="#e7eef6" points="1067.93 457.02 1088.83 472.1 1064.02 496.91 1053.57 471.38 1067.93 457.02" class="colore7ecf6 svgShape"></polygon><polygon fill="#d6e3f1" points="1088.83 472.1 1067.93 457.02 1053.57 442.66 1064.02 447.29 1088.83 472.1" class="colord6ddf1 svgShape"></polygon><polygon points="989.59 472.1 1024.55 472.1 1024.85 471.38 1010.49 457.02 989.59 472.1" style="mix-blend-mode:screen" fill="url(#ac)"></polygon><polygon points="1088.83 472.1 1053.87 472.1 1064.02 496.91 1088.83 472.1" style="mix-blend-mode:screen" fill="url(#ad)"></polygon><path fill="#672b99" d="M1065.27,499c-.66.66-3.52,8.62,2.5,11C1070.85,508.4,1071.88,500.31,1065.27,499Z" class="color392b99 svgShape"></path><path fill="#a2d0ff" d="M1069,499l-3.84,1.38c-2.16.63-7.59-.44-10.63-3.47s-3.67,3-.12,4.7,3.6,3.21-2.14,4.24a14.47,14.47,0,0,0-6.41,2.92c-2.06,2.06-4.34,6.61-1.07,8.83,2.64,1.79,10.52-1.75,12.9-2.72,6.57-2.67,5.25-4,8.94-5.72s4.5-1.69,4.5-1.69Z" class="colorffcea2 svgShape"></path><path fill="url(#ae)" d="M1099.51,434.13c4.14-.84,9.47-.13,13.08,12.14,3.06,10.37.6,31.68-1.23,37.58C1106.65,499,1088,504.19,1067.77,510c2.58-2.95.86-9.48-2.5-11,13.71-6,26.55-14.65,31.12-19.23,0-5.19-2.53-24.86-2.83-31.58C1093.18,439.85,1095.42,435,1099.51,434.13Z"></path><path fill="#a2d0ff" d="M1085.36,404.49c.48-4.26-14.25,4.42-13.65,10.05.48,4.58,1.81,8.61-2.82,11.47-1.59,1.28-7.06,10.18,1.34,10.28,12,.14,15.22-3.15,23.91-10.6C1089,422.77,1083.8,418.31,1085.36,404.49Z" class="colorffcea2 svgShape"></path><path fill="#a2d0ff" d="M1088.83,402l-6-8.42h-26v15.68c0,8.66,5.83,15.68,13,15.68,7,0,13.47-5.78,13.81-14.08l3.16-1.09Z" class="colorffcea2 svgShape"></path><path fill="#96c8fb" d="M1070.43,429.1c6.22,0,13.92-10,13.2-18.26a15,15,0,0,1-13.29,14.06,9.81,9.81,0,0,1-1.45,1.11,4.58,4.58,0,0,0-.43.44C1068.46,427.72,1069.3,429.1,1070.43,429.1Z" class="colorfbc096 svgShape"></path><path fill="#153f74" d="M1058.32,386.48c-2.38-.42-2.6-2.4,7.06-5.74,5.61-2.75,13.56-3.6,18.71-.41,7,4.32,9.08,10.66,7.82,18.62s-6.34,15.55-6.34,15.55c-.78.77-.89-2.9-.26-5.62a5.26,5.26,0,0,0,.91-2.33c1.85-8.09-3.11-6.88-3.79-6.2-1.52.63,1.43,7.33-3,6.66-2.17-.32-1.88-6.37-1.87-8.49a7.71,7.71,0,0,0-1,.25c-3.7,2.06-16.26,3.55-9.28-.81-4.86,0-11.48,2.24-13.72-.84C1050.9,393.45,1055.15,389.45,1058.32,386.48Z" class="color231574 svgShape"></path><polygon points="1038.08 992.64 950.16 992.69 933.31 1009.56 956.13 1009.56 950.32 1019.34 1038.08 1019.29 1038.08 992.64" style="mix-blend-mode:multiply" fill="url(#af)"></polygon><path fill="url(#g)" d="M950.34,989.92c4.08.67,5.26,7.25,3.22,11.37a15.85,15.85,0,0,1-4.47,2.75s-12.88,5.29-15.78,5.52-9.34-.85-9.86-5.8c.49-3,3-3.86,6.16-5.71,4.06-2.41,7.54-5.91,10.82-7.53C943.12,989.2,950.34,989.92,950.34,989.92Z"></path><path fill="#a2d0ff" d="M942.51,985.73c2,.33,8.39,1.91,8.39,1.91s2.36,6.63-1.38,7.81c-7.25,2.27-13.43-2.59-10.58-4.23C940.86,990.12,942.74,988.88,942.51,985.73Z" class="colorffcea2 svgShape"></path><path fill="#0c2340" d="M933.4,1008.24c3-.24,16.25-5.68,16.25-5.68a17.29,17.29,0,0,0,4.45-2.7,9.38,9.38,0,0,1-.54,1.43,15.85,15.85,0,0,1-4.47,2.75s-12.88,5.29-15.78,5.52-9.34-.85-9.86-5.8c0-.1,0-.2.07-.3C924.89,1007.54,930.67,1008.46,933.4,1008.24Z" class="color131147 svgShape"></path><path fill="#7c3eaf" d="M937.71,992.2c.54-.72,1.79-2.63,4-1.05s2.84,3.63,2.57,5.28-5,.43-5.23.18S937.71,992.2,937.71,992.2Z" class="color423eaf svgShape"></path><path fill="#ffffff" d="M935.52 994.26a9.68 9.68 0 014.32 4.21 1.31 1.31 0 002.36-1.12 12.26 12.26 0 00-5.66-5.5 1.31 1.31 0 10-1 2.41zM931.49 996.83a9.63 9.63 0 014.32 4.21 1.31 1.31 0 002.37-1.13 12.29 12.29 0 00-5.67-5.49 1.31 1.31 0 00-1 2.41z" class="colorffffff svgShape"></path><path fill="#a2d0ff" d="M943.63,855.57c-2,24.26-5.21,47.36-5.21,66.83,0,22.28,3.87,45.74,4.11,64.41-.21,5.73,6.29,10.21,9,5.16.11-1.66-.67-3.77-.38-6.21,1.66-14.22,6.53-36.07,2.43-54.45,5.64-24.38,21.17-54.5,18.87-73.62C965.44,854.19,949,853.85,943.63,855.57Z" class="colorffcea2 svgShape"></path><polygon fill="#7e3bb5" points="950.16 864.82 950.16 868.89 953.69 866.85 950.16 864.82" class="color443bb5 svgShape"></polygon><path fill="url(#ag)" d="M967.35,999.71c4.08.66,5.26,7.24,3.22,11.37a15.85,15.85,0,0,1-4.47,2.75s-12.88,5.28-15.78,5.51-9.34-.84-9.86-5.8c.49-3,3-3.85,6.16-5.71,4.06-2.41,7.54-5.91,10.82-7.52C960.14,999,967.35,999.71,967.35,999.71Z"></path><path fill="#a2d0ff" d="M959.52,995.52c2,.32,8.39,1.91,8.39,1.91s2.36,6.63-1.37,7.8c-7.26,2.28-13.44-2.59-10.59-4.23C957.87,999.91,959.75,998.67,959.52,995.52Z" class="colorffcea2 svgShape"></path><path fill="#0c2340" d="M950.41,1018c3-.24,16.25-5.67,16.25-5.67a17.13,17.13,0,0,0,4.45-2.71,9.5,9.5,0,0,1-.54,1.44,15.85,15.85,0,0,1-4.47,2.75s-12.88,5.28-15.78,5.51-9.34-.84-9.86-5.8c0-.1,0-.19.07-.3C941.9,1017.32,947.68,1018.24,950.41,1018Z" class="color131147 svgShape"></path><path fill="#7c3eaf" d="M954.72,1002c.54-.72,1.79-2.63,4-1.05s2.84,3.63,2.57,5.29-5,.42-5.23.18S954.72,1002,954.72,1002Z" class="color423eaf svgShape"></path><path fill="#ffffff" d="M952.53 1004a9.74 9.74 0 014.32 4.21 1.31 1.31 0 002.36-1.12 12.23 12.23 0 00-5.66-5.49 1.3 1.3 0 10-1 2.4zM948.5 1006.61a9.63 9.63 0 014.32 4.21 1.31 1.31 0 002.37-1.12 12.22 12.22 0 00-5.66-5.49 1.31 1.31 0 10-1 2.4z" class="colorffffff svgShape"></path><path fill="#a2d0ff" d="M957 866c0 22.3-.24 47.25-.24 66.72 0 22.28 2.57 45.2 2.81 63.86-.21 5.73 6.29 10.22 9 5.16.11-1.66-.66-3.77-.38-6.21 1.66-14.22 6.53-36.06 2.43-54.45 5.64-24.37 14.34-50.05 9.17-74.91C972.74 862.68 962.36 864.3 957 866zM945.67 780c-1.77 1.44-18.2 40.24-21 46.22-3.61 7.57-6.68 29.21-6.68 29.21l5.67 1.36c2-4.47 7.32-21.21 9.44-25.88 2-4.49 13.42-28.83 13.42-28.83z" class="colorffcea2 svgShape"></path><path fill="url(#ah)" d="M973.74,837.33c-1.84-16.8,6.09-32.66,7.54-43.16.92-6.62,1.58-14.38-4.42-16.25-6.2-1.93-8.7-2.83-14.08-2.69-12.94.32-19,3-21.64,11.89-2.48,8.39-4.24,10.94-6.29,19.17-.91,3.69,9.24,11.7,8.06,27.62-9,13.6-15.44,44.32-18.19,68.46-1.05,7.27,6.35,16.61,19.43,23.16,16.5,8.26,35.73,8.92,43,1.48a9.33,9.33,0,0,0,2.72-6.22C989.84,912.22,985,851.29,973.74,837.33Z"></path><path fill="#a2d0ff" d="M967.38,759.47c-.23-4-13.85,3.94-13.55,9.19.25,4.28.81,8.58-.79,9.13-1.86,1.34-7.39,15.53-4.07,18.85,11.57-4.74,17.6-14.76,27.89-18.72C972.65,777.06,968.12,772.36,967.38,759.47Z" class="colorffcea2 svgShape"></path><path fill="#a2d0ff" d="M970.66,754l-4.1-10.26h-26v15.64c0,8.63,5.82,15.63,13,15.63,7,0,12.6-6.59,12.93-14.87l1.81,0Z" class="colorffcea2 svgShape"></path><path fill="#96c8fb" d="M964.26,768.11c-2.23,4-5.92,6.61-10.15,6.83a4.14,4.14,0,0,1-.66,2.57,9.51,9.51,0,0,0,2.06-.18C959.85,776.26,963,772.68,964.26,768.11Z" class="colorfbc096 svgShape"></path><path fill="#a2d0ff" d="M980.39,845.32l2.79,6.95c9.72-5.07,15.41-18.3,16-29,.75-14.38-14.15-38.68-14.92-39.83-3.77-5.62-12.72-.63-9.76,6.56.64,1.46,15.89,26.54,14.26,35C987.61,830.91,985.69,841.66,980.39,845.32Z" class="colorffcea2 svgShape"></path><path fill="url(#k)" d="M955,732.8c1.47,0,2.76.09,3.09.13,14.08,1.69,16,15.92,21.8,19.84,3.58,2.4,11.56-2.13,16.23,6,5.38,9.31-3.32,12.68,2.37,16.62s10.07,16,.58,23.34-21.37.9-20-9.91c1-7.78-1.34-11.79-7.88-9.28-4.89,1.88-6.76-2-4.56-7-10.89,1.09.53-19.67-15.91-28.24-2.82-.24-5.65,2.81-10.15,1.2C939.8,743.75,940.86,732.8,955,732.8Z"></path><path fill="#a2d0ff" d="M980.39,845.32c-1.13.74-7.37-.74-8.85-.74a31.25,31.25,0,0,0-8.94,1.11c-3.4,1.09-5.72,2.34-3.4,2.87-1.26.27-4.21,1.48-1.88,2.15.22.81,1.07,1.88,3.62,1.79.85.67,6.8,1.92,8.63,1.61,1.93.58,12,.37,13.61-1.84C983.18,848.52,980.39,845.32,980.39,845.32Z" class="colorffcea2 svgShape"></path><rect width="88.54" height="16.28" x="881.12" y="1053.8" style="mix-blend-mode:multiply" fill="url(#ai)"></rect><rect width="88.53" height="16.27" x="840.86" y="1030.3" style="mix-blend-mode:multiply" fill="url(#aj)"></rect><path fill="url(#h)" d="M831.78,1041.56c0-12.78,8.1-13.15,8.1-13.15s4.39,0,11.52-3,16.94-1.79,11.4,8.43c0,.12-.12.25-.19.38a5,5,0,0,1-1.8,1.57l-17.7,10.39C840.41,1047.75,831.84,1044.2,831.78,1041.56Z"></path><path fill="#0c2340" d="M831.83,1040.42c.15,2.62,8.61,6.12,11.28,4.59l17.7-10.38a16.59,16.59,0,0,0,2.5-1.82c-.16.35-.31.69-.51,1.07,0,.12-.12.25-.19.38a5,5,0,0,1-1.8,1.57l-17.7,10.39c-2.53,1.44-10.2-1.59-11.22-4.15a2.75,2.75,0,0,1-.08-.52A8.5,8.5,0,0,1,831.83,1040.42Z" class="color131147 svgShape"></path><path fill="#ffffff" d="M835.08,1026.73c2.08,0,9.42,1.87,9.42,1.87a4.07,4.07,0,0,0,.66,1.9l.21.25c1.44,1,2.92,2.6-.52,4.76a4.78,4.78,0,0,1-6.19-.44,5.57,5.57,0,0,0-2-2.27,5.12,5.12,0,0,0-1.91-.81s0-.17,0-.17S834.2,1026.73,835.08,1026.73Z" class="colorffffff svgShape"></path><path fill="#193f6f" d="M834.94,901.74l36,.64c-3,24.06-9,45.91-13,69.22-4.3,22.64-9.14,38.55-13.37,57.4-1.55,3.51-8.62,2.18-10.06-1.2-1.11-17.35-2.41-38.49,2.74-58.52C836.43,947.7,834.44,923.54,834.94,901.74Z" class="color20196f svgShape"></path><path fill="url(#ak)" d="M872.13,1065.05c0-12.78,8.1-13.15,8.1-13.15s4.39,0,11.52-3,16.94-1.79,11.4,8.42a2.69,2.69,0,0,1-.19.38,5,5,0,0,1-1.8,1.58l-17.7,10.38C880.76,1071.24,872.2,1067.68,872.13,1065.05Z"></path><path fill="#0c2340" d="M872.18,1063.9c.15,2.63,8.61,6.12,11.28,4.59l17.7-10.37a16.57,16.57,0,0,0,2.5-1.83c-.17.36-.3.69-.51,1.07a2.69,2.69,0,0,1-.19.38,5,5,0,0,1-1.8,1.58l-17.7,10.38c-2.52,1.45-10.2-1.59-11.22-4.14a2.77,2.77,0,0,1-.07-.52A7.22,7.22,0,0,1,872.18,1063.9Z" class="color131147 svgShape"></path><path fill="#ffffff" d="M875.43,1050.21c2.08,0,9.43,1.87,9.43,1.87a4.18,4.18,0,0,0,.65,1.91,2.43,2.43,0,0,1,.2.25c1.46,1,2.93,2.59-.51,4.75a4.78,4.78,0,0,1-6.19-.43,5.62,5.62,0,0,0-2-2.27,5.21,5.21,0,0,0-1.92-.81,1.59,1.59,0,0,0,0-.17S874.55,1050.21,875.43,1050.21Z" class="colorffffff svgShape"></path><path fill="url(#al)" d="M860.34,959c-2.19-10.34-27.43-11.63-25.77-52.3,7.92-1.16,47.87,17.58,55.78,16.41,1,24.22-1.35,46.76-1.5,70.4-.54,23-2.71,39.53-3.81,58.81-.95,3.72-8.15,3.57-10.12.47-3.93-16.94-8.66-37.59-6.85-58.19C865.71,983.15,862.9,971.06,860.34,959Z"></path><path fill="#e100b8" d="M852.83,827.69c-28.18,18.83-31.54,56.23-16.3,80C836.53,907.65,833.25,855.06,852.83,827.69Z" class="colore19100 svgShape"></path><path fill="url(#am)" d="M851.55,929.71c17.15,9.63,35.1,9.64,41.21-2.19-2.29-22-4.43-40,0-61.08-1.3-11.66-2.23-13.41-.73-20.22-.53-2.28-7.55-7.15-12.66-11.82-5.52-5-9.25-9.83-12.1-10.41-23.45-4.79-34.85,37-32.88,81.57C836.19,917.4,843.1,925,851.55,929.71Z"></path><path fill="#a2d0ff" d="M854.26,826.65c5.08-3.68,4.67-11.28,4.25-16.33a24.62,24.62,0,0,1-1-8.72c.75-11.11,8.48-20.24,17.12-19.06,17.4,2.38,13.67,11.38,12.92,22.5-.7,10.29-5.85,17.07-13.74,17.73-.11,1.7.58,6.84,2.71,9-5.73,3.42-14.08,1.81-17.39.32C855.67,830.48,851.87,829.12,854.26,826.65Z" class="colorffcea2 svgShape"></path><path fill="#193f6f" d="M881.63,777.11c-.41-1.39-5.36-4.77-9.38-3.47-3.63,1.17-5,3.34-5.07,5.56,0,.11-3-1-4.83,1.09-1.43,1.59-1.58,3.43-1.48,5.61-1.18-.52-3-1.32-4.53,3.18-2.86,8.67-.44,19.56.65,21.8a10.42,10.42,0,0,1,1.32,6.07c6.58-.27,8.66,3.43,12.87-.26,3-2.64,7.54-5.74,8.3-7a5.14,5.14,0,0,0,.62-3.19c0-9.25,4.29-3.6,4.15-1.48,1.75-.85,1.63-4.57,1.52-8.7h0C900,785.69,892.35,771.79,881.63,777.11Z" class="color20196f svgShape"></path><path fill="#a2d0ff" d="M911.77,868.79a2.44,2.44,0,0,0,1-1.41c0-.35-.57-4.44-.22-5.76s.75-3.39,1.54-3.43a2.76,2.76,0,0,1,1.63.75c.57-1.1,3.47-6.07,3.47-6.07,1.43.64,3.89,1.23,4.46,3.91a17.39,17.39,0,0,0-.81,4.05c.57.48.84,2.5.44,2.77.26.31.35,2.24-.09,2.5s-.44,1.76-.61,2.11a5.25,5.25,0,0,1-1.32,4,2.48,2.48,0,0,1-2.42.53c-.48.26-3.43,2.64-3.43,2.64Z" class="colorffcea2 svgShape"></path><path fill="url(#an)" d="M912.19,867.67s-7.8,6.92-11.74,10c-2.29-9.24-3.75-15.09-8.64-31.95-2.47-3.64-10.43-2.26-14.35,2.92-5.3,7-2.55,13.79,0,21.31,3.69,12.3,12.75,22.43,19.16,26.51.92.58,2.14,0,3.06-.6h0c4-2.56,14.06-15.55,16.94-19.55S915.45,867.67,912.19,867.67Z"></path><path d="M1208.49,823.49c-18.13-15.3-42.25-22.35-65.93-21.32h-8.39v8.89a86.33,86.33,0,0,0-19.64,12.43c-33.77,28.7-33.57,75.19.41,103.88a86.78,86.78,0,0,0,19.23,12.18v9.3H1150c21.41-.53,42.65-7.63,59-21.46C1242.68,898.68,1242.51,852.19,1208.49,823.49Z" style="mix-blend-mode:multiply" fill="url(#ao)"></path><path fill="#ff5ae1" d="M1189.88,823.07c28.15,37.35,24.38,84.35-8.44,105s-82.25,7-110.39-30.35-24.38-84.36,8.43-104.95S1161.72,785.7,1189.88,823.07Z" class="colorff5a72 svgShape"></path><path fill="url(#ap)" d="M1192.81,918.68l-12.27,13.1c-3.29,3.51-5.19,4.76-9.48,7.46-32.81,20.6-82.24,7-110.39-30.36-24.48-32.48-24.82-72.24-2.93-95.61l10.37-11.2c-21.88,23.37-21.54,63.12,2.94,95.61,28.14,37.35,77.58,51,110.39,30.35A57.11,57.11,0,0,0,1192.81,918.68Z"></path><path fill="#fdfdfd" d="M1177.25,830.62c21.59,29.68,17.85,66.21-8.34,81.61s-64.9,3.84-86.49-25.84-17.88-66.21,8.31-81.61S1155.66,801,1177.25,830.62Z" class="colorfdfdfd svgShape"></path><path fill="#ff5ae1" d="M1164.35,838.21c15.71,21.6,13,48.2-6.07,59.41s-47.24,2.79-63-18.81-13-48.21,6-59.42S1148.63,816.61,1164.35,838.21Z" class="colorff5a72 svgShape"></path><path fill="#fdfdfd" d="M1151.45,845.8c9.84,13.52,8.14,30.17-3.81,37.2s-29.58,1.74-39.42-11.78S1100.07,841,1112,834,1141.6,832.26,1151.45,845.8Z" class="colorfdfdfd svgShape"></path><path fill="#ff5ae1" d="M1138.55,853.38c4,5.44,3.28,12.17-1.54,15s-11.93.7-15.89-4.74-3.29-12.19,1.51-15S1134.58,847.92,1138.55,853.38Z" class="colorff5a72 svgShape"></path><polygon points="583.3 948.38 573.57 946.09 555.94 948.37 548.04 952.93 718.1 1051.12 727.83 1053.4 745.47 1051.12 753.37 1046.56 583.3 948.38" style="mix-blend-mode:multiply" fill="url(#aq)"></polygon><path fill="url(#ar)" d="M533.8,936.21S548,952.93,548,952.93l7.9-20.36-18.3-2.66-.58-.08a2.44,2.44,0,0,0-1.07.35,5.83,5.83,0,0,0-2.64,4.58A2.15,2.15,0,0,0,533.8,936.21Z"></path><path fill="url(#as)" d="M537.06,929.83a2.44,2.44,0,0,0-1.07.35,5.83,5.83,0,0,0-2.64,4.58,2.13,2.13,0,0,0,.45,1.45s-6.73-7.84-6.73-7.84Z"></path><polygon fill="#6f67e9" points="544.09 947.31 714.15 1045.5 718.1 1035.32 548.04 937.13 544.09 947.31" class="color6b67e9 svgShape"></polygon><polygon fill="#7c3eaf" points="548.04 952.93 718.1 1051.12 714.15 1045.5 544.09 947.31 548.04 952.93" class="color423eaf svgShape"></polygon><polygon fill="#857dfb" points="548.04 937.13 718.1 1035.32 726 1030.76 555.94 932.57 548.04 937.13" class="color807dfb svgShape"></polygon><polygon fill="#b9d0e8" points="726 1046.56 729.95 1036.38 726 1030.76 718.1 1035.32 714.15 1045.5 718.1 1051.12 726 1046.56" class="colorb9bfe8 svgShape"></polygon><path fill="#153f74" d="M724.66,1039.43c0-1.67-1.16-2.34-2.61-1.51a5.78,5.78,0,0,0-2.61,4.53c0,1.67,1.17,2.34,2.61,1.51A5.77,5.77,0,0,0,724.66,1039.43Z" class="color231574 svgShape"></path><path d="M1116.59,1014.31c-7.12-4.11-16.58-6-25.87-5.72h-14.57V1011a38.48,38.48,0,0,0-7.7,3.33c-13.25,7.71-13.17,20.19.16,27.89a38,38,0,0,0,7.54,3.27V1048h17.48c8.4-.13,16.72-2,23.12-5.75C1130,1034.5,1129.93,1022,1116.59,1014.31Z" style="mix-blend-mode:multiply" fill="url(#i)"></path><path fill="url(#at)" d="M1053.6,1042.21c-6.71-3.87-10.06-9-10-14l0-11.57c0,5.08,3.34,10.16,10.05,14,13.34,7.7,34.89,7.7,48.14,0,6.58-3.83,9.88-8.83,9.89-13.84l0,11.57c0,5-3.3,10-9.89,13.85C1088.49,1049.92,1066.94,1049.92,1053.6,1042.21Z"></path><path fill="#eff2f5" d="M1053.63,1030.64c-13.33-7.7-13.41-20.19-.16-27.88s34.81-7.7,48.14,0,13.41,20.18.16,27.88S1067,1038.34,1053.63,1030.64Z" class="coloreff1f5 svgShape"></path><polygon fill="#b9d0e8" points="1092.24 1007.89 1085.48 1015.54 1096 1021.61 1081.31 1020.27 1074.56 1027.92 1072.23 1019.44 1057.55 1018.1 1070.8 1014.2 1068.47 1005.72 1078.98 1011.79 1092.24 1007.89" class="colorb9bfe8 svgShape"></polygon><path d="M286.09,679c-10.81-6.24-25.17-9.11-39.28-8.69H234.33v3.62a58.87,58.87,0,0,0-11.7,5.07c-20.11,11.7-20,30.65.24,42.34a58.32,58.32,0,0,0,11.46,5v3.78h16.89c12.76-.21,25.4-3.1,35.11-8.74C306.44,709.63,306.34,690.68,286.09,679Z" style="mix-blend-mode:multiply" fill="url(#au)"></path><path fill="url(#av)" d="M200.09,721.33c-10.19-5.88-15.28-13.6-15.26-21.32l0-11.2c0,7.72,5.06,15.44,15.25,21.33,20.26,11.68,53,11.68,73.09,0,10-5.81,15-13.41,15-21l0,11.2c0,7.61-5,15.21-15,21C253.07,733,220.34,733,200.09,721.33Z"></path><path fill="#eff2f5" d="M200.13,710.14c-20.24-11.69-20.35-30.65-.24-42.34s52.85-11.69,73.09,0,20.35,30.65.24,42.34S220.39,721.82,200.13,710.14Z" class="coloreff1f5 svgShape"></path><path fill="#bbd0e6" d="M256.39,690.21c4.44-2.57-.77-8.39,4.33-11.33l5.2-3c-5.13-3-17.92,1.93-19.91,5.59l-13.45-7.76a7.9,7.9,0,0,0-7.15,0c-2,1.14-2,3,0,4.13h0l-1.21-.7a7.9,7.9,0,0,0-7.15,0c-2,1.14-2,3,0,4.13l.85.52a8,8,0,0,0-6.81.16c-2,1.14-2,3,0,4.13h0l1.19.69a7.11,7.11,0,0,0-7.15,0c-2.22,1.28-2.23,2.84,0,4.12l14.29,8.26c3,1.71,8.33,4.13,12.51,4.13l7.75.68,4,2.3,20.25-11.69Z" class="colorbbc0e6 svgShape"></path><path d="M530.33,1071.81a21.86,21.86,0,0,0-2.34-3.29c-3.18-3.17,4.16-8.46,7.47-10.37.06,0-9.66-5.61-9.66-5.61l-28.56,0a12.92,12.92,0,0,1-2.4-7.46H481.13c0,2.24-.91,7.23-4.7,9.41a7.69,7.69,0,0,1-2.77,1c-1.93.38-3.85.84-5.7,1.37l-.24,0c-1.85-.53-3.75-1-5.68-1.37-6.12-.92-7.38-7.66-7.37-10.36H441c0,2.23-.92,7.23-4.7,9.42a7.75,7.75,0,0,1-2.77.94c-1.94.38-3.85.84-5.7,1.37-6.31,1.36-14.58-2.38-17.87-4.29l-9.72,5.61c3.29,1.91,10.57,7.21,7.35,10.36a22.8,22.8,0,0,0-2.38,3.3,3.83,3.83,0,0,1-1.65,1.61c-3.78,2.18-12.4,2.69-16.28,2.69l0,7.94c4.66,0,16.29.74,17.86,4.29a21.24,21.24,0,0,0,2.34,3.3c3.19,3.16-4.16,8.45-7.47,10.36l9.66,5.62c.34-.2.75-.42,1.2-.66l-1.13.66,28.54,0a12.86,12.86,0,0,1,2.34,7.41l53.87,0,13.42-7.46h17.63l9.73-5.61c-3.3-1.91-10.58-7.2-7.36-10.36a21.53,21.53,0,0,0,1.52-2l9,0,9.72-5.62s.05-7.93.05-7.93C543.19,1076.31,531.9,1075.36,530.33,1071.81Z" style="mix-blend-mode:multiply" fill="url(#aw)"></path><path fill="#f5f7fa" d="M408.36,1043.5c0-3.08-5.44-7-8.15-8.54l.06,23.15c2.72,1.58,8.15,5.46,8.16,8.54Z" class="colorf5f5fa svgShape"></path><path fill="#b9d0e8" d="M495.36,1058.11l-.07-23.15c-2.74,1.58-8.26,5.5-8.25,8.58l.07,23.15C487.1,1063.61,492.61,1059.7,495.36,1058.11Z" class="colorb9bfe8 svgShape"></path><path fill="url(#ax)" d="M430.58,1070.1c9.52-5.5,24.88-5.5,34.34,0,4.7,2.73,7.05,6.3,7.06,9.88l-.07-23.16c0-3.57-2.36-7.15-7.06-9.87-9.45-5.5-24.82-5.5-34.34,0-4.78,2.76-7.17,6.38-7.16,10l.07,23.15C423.41,1076.48,425.8,1072.86,430.58,1070.1Z"></path><polygon fill="#cce3fa" points="409.62 1084.43 399.96 1078.81 400.03 1101.96 409.69 1107.58 409.62 1084.43" class="colorccd2fa svgShape"></polygon><polygon fill="#b9d0e8" points="495.12 1101.96 495.05 1078.81 485.33 1084.43 485.39 1107.58 495.12 1101.96" class="colorb9bfe8 svgShape"></polygon><path fill="url(#ay)" d="M427.6,1103.28c1.85.54,3.75,1,5.69,1.37,6,.91,7.34,7.49,7.35,10.26l-.06-23.15c0-2.77-1.32-9.35-7.36-10.26-1.93-.38-3.84-.83-5.68-1.37-5.45-1.85-14.61,2.38-17.92,4.3l.07,23.15C413,1105.66,422.16,1101.43,427.6,1103.28Z"></path><path fill="url(#az)" d="M459.07,1105.59a7.77,7.77,0,0,1,2.75-.94c1.95-.38,3.83-.83,5.69-1.36,5.48-1.86,14.59,2.37,17.88,4.29l-.06-23.15c-3.29-1.92-12.41-6.15-17.88-4.29-1.86.53-3.75,1-5.69,1.36a7.82,7.82,0,0,0-2.76.94c-3.73,2.15-4.52,7.08-4.73,9.42l.07,23.15C454.55,1112.67,455.34,1107.74,459.07,1105.59Z"></path><path fill="#f6f8fb" d="M407.43,1068.45c3.19,3.16-4.16,8.45-7.47,10.36l9.66,5.62c3.31-1.92,12.47-6.15,17.92-4.3,1.84.54,3.75,1,5.68,1.37,6.12.92,7.38,7.66,7.35,10.36h13.7c.21-2.34,1-7.27,4.73-9.42a7.82,7.82,0,0,1,2.76-.94c1.94-.38,3.83-.83,5.69-1.36,5.47-1.86,14.59,2.37,17.88,4.29l9.72-5.62c-3.3-1.91-10.58-7.2-7.36-10.36a23.68,23.68,0,0,0,2.39-3.3,3.76,3.76,0,0,1,1.65-1.6c3.77-2.19,12.4-2.7,16.25-2.69l0-7.94c-5,.2-16.3-.75-17.86-4.3a22.59,22.59,0,0,0-2.34-3.29c-3.19-3.17,4.15-8.46,7.46-10.37l-9.65-5.61c-3.32,1.91-12.48,6.15-17.92,4.29-1.85-.53-3.75-1-5.68-1.37-6.12-.92-7.38-7.66-7.37-10.35H441c0,2.23-.92,7.23-4.7,9.41a7.75,7.75,0,0,1-2.77,1c-1.94.38-3.85.83-5.7,1.37-6.31,1.36-14.58-2.38-17.87-4.29l-9.72,5.61c3.29,1.91,10.57,7.21,7.35,10.36a22.27,22.27,0,0,0-2.38,3.3,3.88,3.88,0,0,1-1.65,1.61c-3.78,2.17-12.4,2.69-16.28,2.69l0,7.94c4.66,0,16.29.74,17.86,4.29A21.72,21.72,0,0,0,407.43,1068.45Zm23.08-21.5c9.52-5.5,24.89-5.5,34.34,0s9.41,14.39-.11,19.89-24.88,5.48-34.33,0S421,1052.44,430.51,1047Z" class="colorf6f6fb svgShape"></path><path fill="#cce3fa" d="M400,1078.81c3.31-1.91,10.66-7.2,7.47-10.36a21.72,21.72,0,0,1-2.34-3.3c-1.57-3.55-13.2-4.3-17.86-4.29l.06,23.14a57.79,57.79,0,0,1,12.69,1.37Z" class="colorccd2fa svgShape"></path><polygon fill="#b9d0e8" points="454.34 1115.01 454.27 1091.86 440.57 1091.86 440.64 1115.02 454.34 1115.01" class="colorb9bfe8 svgShape"></polygon><path fill="url(#aA)" d="M508.05,1084l-.07-23.14c-3.85,0-12.48.5-16.25,2.69a3.76,3.76,0,0,0-1.65,1.6,23.68,23.68,0,0,1-2.39,3.3c-3.22,3.16,4.06,8.45,7.36,10.36l0,6.65A57.16,57.16,0,0,1,508.05,1084Z"></path><path d="M1401.71,802.67c-9.53-5.49-22.2-8-34.64-7.66h-28.84v3.2a51.92,51.92,0,0,0-10.32,4.46c-17.74,10.32-17.64,27,.21,37.35a52.38,52.38,0,0,0,10.11,4.38v3.34H1371c11.25-.19,22.4-2.74,31-7.72C1419.66,829.71,1419.57,813,1401.71,802.67Z" style="mix-blend-mode:multiply" fill="url(#aB)"></path><path fill="url(#j)" d="M1308,822.61c-9-5.19-13.48-12-13.45-18.8l0-8.71c0,6.81,4.47,13.62,13.46,18.81,17.86,10.31,46.72,10.31,64.46,0,8.82-5.12,13.23-11.82,13.25-18.54l0,8.71c0,6.71-4.43,13.41-13.25,18.54C1354.75,832.93,1325.89,832.93,1308,822.61Z"></path><path fill="url(#aC)" d="M1308,831.32c-9-5.19-13.48-12-13.45-18.8l0-8.71c0,6.81,4.47,13.61,13.46,18.8,17.86,10.32,46.72,10.32,64.46,0,8.82-5.13,13.23-11.83,13.25-18.54l0,8.7c0,6.72-4.43,13.42-13.25,18.54C1354.75,841.64,1325.89,841.64,1308,831.32Z"></path><path fill="url(#aD)" d="M1308,840c-9-5.19-13.48-12-13.45-18.8l0-8.72c0,6.81,4.47,13.62,13.46,18.81,17.86,10.31,46.72,10.31,64.46,0,8.82-5.13,13.23-11.83,13.25-18.55l0,8.71c0,6.71-4.43,13.41-13.25,18.54C1354.75,850.35,1325.89,850.35,1308,840Z"></path><path fill="#f1f3f6" d="M1308.07,813.91c-17.86-10.31-18-27-.22-37.34s46.62-10.31,64.47,0,18,27,.21,37.34S1325.93,824.22,1308.07,813.91Z" class="colorf1f1f6 svgShape"></path><polygon fill="#b9d0e8" points="1365.7 791.83 1329.2 793.68 1330.33 785.48 1320.24 785.48 1317.51 800.43 1365.7 797.65 1365.7 791.83" class="colorb9bfe8 svgShape"></polygon><path fill="#e100b8" d="M571.81,175.64c0-28.85,20.26-63.93,45.24-78.35s45.24-2.73,45.24,26.12S642,187.34,617.05,201.76,571.81,204.49,571.81,175.64Z" class="colore19100 svgShape"></path><path fill="url(#aE)" d="M638.52,88.07c-8.2-4.85-19.58-4.23-32.17,3-25,14.43-45.24,49.51-45.24,78.36,0,15.05,5.54,25.37,14.37,29.81l0,.05,9.17,5.29c-7.92-4.83-12.81-14.83-12.81-29,0-28.85,20.26-63.93,45.24-78.35,12.48-7.2,23.77-7.89,32-3.18l-10.48-6Zm10.54,6.07.17.11h0ZM586.15,205.51l0,0c-.21-.11-.43-.19-.63-.3Z"></path><path fill="#ffffff" d="M650.1,128c0-10.59-3.54-18.16-9.29-22.07-6.26-3-14.59-2.31-23.76,3-19.43,11.22-35.19,38.5-35.19,60.94,0,10.59,3.54,18.16,9.29,22.07,6.26,3,14.59,2.3,23.76-3C634.34,177.7,650.1,150.41,650.1,128Z" class="colorffffff svgShape"></path><path fill="#fc06cf" d="M640.81,105.91c5.75,3.91,9.29,11.48,9.29,22.07,0,22.43-15.76,49.72-35.19,60.94-9.17,5.29-17.5,6-23.76,3,6.43,4.38,15.64,4.17,25.9-1.76,19.43-11.22,35.18-38.5,35.18-60.94C652.23,117.37,647.81,109.29,640.81,105.91Z" class="colorfcba06 svgShape"></path><path fill="url(#aF)" d="M635.89,157.46l-19.75-11.4V121.47c0-1.56-1.09-2.2-2.45-1.42a5.41,5.41,0,0,0-2.44,4.24v25.76a2.4,2.4,0,0,0,.19,1,1.26,1.26,0,0,0,.53.62l20.46,11.81c1,.55,2.5-.34,3.46-2S636.84,158,635.89,157.46Z"></path><g style="mix-blend-mode:multiply" fill="#f4f6f8" class="color000000 svgShape"><polygon fill="url(#aG)" points="484.42 873.89 404.68 873.89 395.89 890.16 484.42 890.16 484.42 873.89"></polygon><polygon fill="url(#aH)" points="475.74 860.51 391.17 860.51 387.21 871.45 475.74 871.45 475.74 860.51"></polygon><path fill="url(#aI)" d="M567.83,780.06c-19.82,2.85-45.75-6.57-56.61-7.25-6.47-.4-33.47,6.31-54.21,11.8A230.56,230.56,0,0,0,491.26,820c7.85-1.13,20.72-8.33,28.18-7.84s48.39,3.45,48.39,3.45Z"></path><path fill="url(#aJ)" d="M457,784.61h0V822.3a231.3,231.3,0,0,0,34.25,35.26V820h0A230.36,230.36,0,0,1,457,784.61Z"></path></g><path fill="url(#aK)" d="M394.77,859.47c-4.09,4.22-1,12.16-8.27,12-10.11-.24-31.08-.16-30.51-5.16.48-4.24,15-5.31,22-7.13,9.7-2.53,11.14-5.59,11.14-5.59Z"></path><path fill="#a2d0ff" d="M389.11,853.58s-1.44,3.06-11.14,5.59c-1.78.47-4,.88-6.44,1.31,0,0-1.29.24-1.25,2.29.08,4.1,17.56,5.47,21.75,3.52.63-2.06.92-4.94,2.74-6.82Z" class="colorffcea2 svgShape"></path><path fill="url(#aL)" d="M402.84,866.7c-.34,1.54-3.43,6.29-5.47,8.65-1.74,2-8.07,8.33-8.84,9-2.86,2.4-1.18,5.14,2.79,5.54s6.73.49,8.83-.48c2.8-1.3,12.72-6.86,12.54-11-.09-2.15-.61-2.23-.85-7.15-.06-1.35,0-4.58,0-4.58Z"></path><path fill="#a2d0ff" d="M403.39,881c3.08-1.29,7.2-4,8.75-6.19-.11-.81-.22-1.9-.3-3.51-.06-1.35,0-4.58,0-4.58h-9c-.34,1.54-3.43,6.29-5.47,8.65-.62.72-1.83,2-3.16,3.36C393.37,881.41,400.42,882.24,403.39,881Z" class="colorffcea2 svgShape"></path><path fill="#193f6f" d="M515.59,769.24c2.34,4.59,10.47,21.68-1.27,31.58s-49.57,18.29-67.7,20.27C441,832.15,395,860,395,860c-3.39-1.37-4.5-3.16-7.06-5.73,4-5.42,43.27-47.16,48.61-50S489,771.64,489,771.64Z" class="color20196f svgShape"></path><path fill="url(#aM)" d="M483.74,761.68c-5.39,2.17-53.86,19.13-63.21,28.27s-18.18,76.31-18.18,76.31a7.8,7.8,0,0,0,9.67,1.42c4.57-13.83,21.73-50.86,20.94-65.43,16.12-1.84,62.9-19.21,69.52-25.45S483.74,761.68,483.74,761.68Z"></path><path fill="#ffffff" d="M453.56,759.83a3.41,3.41,0,0,1,3.05,0l51.32,29.63a.93.93,0,0,1,0,1.76l-35,20.2a3.43,3.43,0,0,1-3.06,0l-51.31-29.63a.93.93,0,0,1,0-1.76Z" class="colorffffff svgShape"></path><g style="mix-blend-mode:multiply" fill="#f4f6f8" class="color000000 svgShape"><polygon fill="#e6edf5" points="469.84 807.22 472.35 808.66 471.1 809.39 468.59 807.94 469.84 807.22" class="colore6eaf5 svgShape"></polygon><polygon fill="#e6edf5" points="465.61 804.77 468.12 806.22 466.87 806.95 464.36 805.5 465.61 804.77" class="colore6eaf5 svgShape"></polygon><polygon fill="#e6edf5" points="461.39 802.34 463.9 803.78 462.64 804.51 460.13 803.06 461.39 802.34" class="colore6eaf5 svgShape"></polygon><polygon fill="#e6edf5" points="457.16 799.89 459.67 801.34 458.42 802.07 455.91 800.62 457.16 799.89" class="colore6eaf5 svgShape"></polygon><polygon fill="#e6edf5" points="452.94 797.45 455.44 798.9 454.19 799.63 451.68 798.18 452.94 797.45" class="colore6eaf5 svgShape"></polygon><polygon fill="#e6edf5" points="448.71 795.01 451.22 796.46 449.96 797.19 447.45 795.74 448.71 795.01" class="colore6eaf5 svgShape"></polygon><polygon fill="#e6edf5" points="444.48 792.57 446.99 794.02 445.74 794.75 443.23 793.3 444.48 792.57" class="colore6eaf5 svgShape"></polygon><polygon fill="#e6edf5" points="440.25 790.13 442.76 791.58 441.51 792.31 439 790.86 440.25 790.13" class="colore6eaf5 svgShape"></polygon><polygon fill="#e6edf5" points="436.03 787.69 438.54 789.14 437.28 789.87 434.77 788.42 436.03 787.69" class="colore6eaf5 svgShape"></polygon><polygon fill="#e6edf5" points="431.8 785.25 434.31 786.7 433.06 787.43 430.55 785.98 431.8 785.25" class="colore6eaf5 svgShape"></polygon><polygon fill="#e6edf5" points="427.57 782.81 430.08 784.26 428.83 784.99 426.32 783.54 427.57 782.81" class="colore6eaf5 svgShape"></polygon><polygon fill="#e6edf5" points="423.35 780.37 425.86 781.82 424.6 782.55 422.09 781.1 423.35 780.37" class="colore6eaf5 svgShape"></polygon><polygon fill="#e6edf5" points="472.06 803.62 476.58 806.22 474.07 807.67 469.56 805.07 472.06 803.62" class="colore6eaf5 svgShape"></polygon><polygon fill="#e6edf5" points="474.4 800.29 480.63 803.88 478.12 805.33 471.89 801.74 474.4 800.29" class="colore6eaf5 svgShape"></polygon><polygon fill="#e6edf5" points="476.91 796.86 484.86 801.45 482.35 802.89 474.4 798.3 476.91 796.86" class="colore6eaf5 svgShape"></polygon><polygon fill="#e6edf5" points="485.46 795.89 489.97 798.49 486.57 800.45 482.06 797.85 485.46 795.89" class="colore6eaf5 svgShape"></polygon><polygon fill="#e6edf5" points="479.23 792.29 483.74 794.89 480.34 796.86 475.83 794.25 479.23 792.29" class="colore6eaf5 svgShape"></polygon><polygon fill="#e6edf5" points="473 788.69 477.51 791.3 474.11 793.26 469.6 790.66 473 788.69" class="colore6eaf5 svgShape"></polygon><polygon fill="#e6edf5" points="451.52 776.29 456.04 778.9 452.64 780.86 448.13 778.26 451.52 776.29" class="colore6eaf5 svgShape"></polygon><polygon fill="#e6edf5" points="440.97 770.2 449.82 775.31 446.42 777.27 437.57 772.16 440.97 770.2" class="colore6eaf5 svgShape"></polygon><polygon fill="#e6edf5" points="457.74 779.88 471.28 787.7 467.88 789.66 454.34 781.85 457.74 779.88" class="colore6eaf5 svgShape"></polygon><polygon fill="#e6edf5" points="466.65 800.5 470.35 802.63 467.84 804.08 464.15 801.95 466.65 800.5" class="colore6eaf5 svgShape"></polygon><polygon fill="#e6edf5" points="468.99 797.16 472.68 799.3 470.17 800.75 466.48 798.62 468.99 797.16" class="colore6eaf5 svgShape"></polygon><polygon fill="#e6edf5" points="471.38 793.8 475.08 795.93 472.57 797.38 468.87 795.25 471.38 793.8" class="colore6eaf5 svgShape"></polygon><polygon fill="#e6edf5" points="465.97 790.68 469.67 792.81 467.16 794.26 463.46 792.13 465.97 790.68" class="colore6eaf5 svgShape"></polygon><polygon fill="#e6edf5" points="460.56 787.55 464.26 789.69 461.75 791.13 458.06 789 460.56 787.55" class="colore6eaf5 svgShape"></polygon><polygon fill="#e6edf5" points="455.15 784.43 458.85 786.56 456.34 788.01 452.65 785.88 455.15 784.43" class="colore6eaf5 svgShape"></polygon><polygon fill="#e6edf5" points="449.75 781.31 453.44 783.44 450.93 784.89 447.24 782.76 449.75 781.31" class="colore6eaf5 svgShape"></polygon><polygon fill="#e6edf5" points="444.34 778.18 448.03 780.32 445.52 781.77 441.83 779.63 444.34 778.18" class="colore6eaf5 svgShape"></polygon><polygon fill="#e6edf5" points="435.74 773.22 442.62 777.2 440.11 778.64 433.23 774.67 435.74 773.22" class="colore6eaf5 svgShape"></polygon><polygon fill="#e6edf5" points="463.58 794.04 467.27 796.17 464.76 797.62 461.07 795.49 463.58 794.04" class="colore6eaf5 svgShape"></polygon><polygon fill="#e6edf5" points="458.17 790.92 461.86 793.05 459.35 794.5 455.66 792.37 458.17 790.92" class="colore6eaf5 svgShape"></polygon><polygon fill="#e6edf5" points="452.76 787.8 456.45 789.93 453.94 791.38 450.25 789.25 452.76 787.8" class="colore6eaf5 svgShape"></polygon><polygon fill="#e6edf5" points="447.35 784.67 451.05 786.8 448.54 788.25 444.84 786.12 447.35 784.67" class="colore6eaf5 svgShape"></polygon><polygon fill="#e6edf5" points="441.94 781.55 445.63 783.68 443.13 785.13 439.43 783 441.94 781.55" class="colore6eaf5 svgShape"></polygon><polygon fill="#e6edf5" points="431.63 775.59 440.23 780.56 437.72 782.01 429.12 777.04 431.63 775.59" class="colore6eaf5 svgShape"></polygon><polygon fill="#e6edf5" points="461.25 797.37 464.94 799.5 462.43 800.95 458.74 798.82 461.25 797.37" class="colore6eaf5 svgShape"></polygon><polygon fill="#e6edf5" points="455.84 794.25 459.53 796.38 457.02 797.83 453.33 795.7 455.84 794.25" class="colore6eaf5 svgShape"></polygon><polygon fill="#e6edf5" points="450.43 791.13 454.12 793.26 451.61 794.71 447.92 792.58 450.43 791.13" class="colore6eaf5 svgShape"></polygon><polygon fill="#e6edf5" points="445.02 788 448.71 790.13 446.2 791.58 442.51 789.45 445.02 788" class="colore6eaf5 svgShape"></polygon><polygon fill="#e6edf5" points="439.61 784.88 443.3 787.01 440.79 788.46 437.1 786.33 439.61 784.88" class="colore6eaf5 svgShape"></polygon><polygon fill="#e6edf5" points="434.2 781.76 437.89 783.89 435.38 785.34 431.69 783.21 434.2 781.76" class="colore6eaf5 svgShape"></polygon><polygon fill="#e6edf5" points="427.57 777.93 432.48 780.77 429.97 782.21 425.07 779.38 427.57 777.93" class="colore6eaf5 svgShape"></polygon></g><polygon fill="#7b3ead" points="425.18 784.2 465.73 807.61 464.51 808.31 423.96 784.9 425.18 784.2" class="color423ead svgShape"></polygon><polygon points="457.74 776.86 478.43 788.81 491.29 781.38 470.6 769.44 457.74 776.86" style="mix-blend-mode:multiply" fill="#e6edf5" class="colore6eaf5 svgShape"></polygon><path fill="url(#aN)" d="M507.93,791.22l-35,20.2a3.45,3.45,0,0,1-2.48.23l-.58-.23-51.31-29.63a.91.91,0,0,1-.16-.11h0l0,0-.08-.07,0,0-.09-.1h0a.77.77,0,0,1-.19-.48h0v.74h0a1.06,1.06,0,0,0,.62.89l51.31,29.63a6.48,6.48,0,0,0,3.5.37c.52-.11,1-.24,1.53-.36l33-19.06a1,1,0,0,0,.62-.89v-1.91A1.06,1.06,0,0,1,507.93,791.22Z"></path><path fill="#193f6f" d="M483.1,662.07c-6.83,9.88-8,31.9-1.87,46.25,4.57,0,11.84-6.29,18.64-4.09C501.43,704.73,491.46,662.07,483.1,662.07Z" class="color20196f svgShape"></path><path fill="#a7d0fa" d="M454.4,762.93c-3.53,1.88-11.08,3-13.28,5s-2.69,7.64-1,9.46,3.54,1.76,2.59,0-.69-5.16,1.93-5.43c5.07-.53-1.33,5.08,1.07,5.13,2.22,0,3.19-2.83,5.9-4.9s4.61-2.71,7.15-4.95C461,765.23,454.4,762.93,454.4,762.93Z" class="colorfacfa7 svgShape"></path><path fill="#a2d0ff" d="M453.44,763.39c4.3-2.9,17.55-15.6,19.93-19.81,2.21-3.91,5.81-25.75,6.1-28.55s2-14.58,13.53-14c1.07,7.63-8.66,44.13-12.39,48.84-4.58,5.78-18,14.56-21.89,17.33C454.36,765.43,453.44,763.39,453.44,763.39Z" class="colorffcea2 svgShape"></path><path fill="#652e92" d="M406,758.54,455.44,787a5.39,5.39,0,0,1,1.95,1.93l12.76,21.64a.45.45,0,0,1-.62.62L417.9,781.49a2.76,2.76,0,0,1-1-1L405,760.26C404.08,758.75,404.71,757.82,406,758.54Z" class="color362e92 svgShape"></path><path fill="url(#aO)" d="M470.15,810.58l-12.76-21.64a5.39,5.39,0,0,0-1.95-1.93L406,758.54c-.57-.32-1-.3-1.23,0h0a8.46,8.46,0,0,1,.71-.71h0c.24-.22.66-.24,1.21.08l49.47,28.47a5.33,5.33,0,0,1,1.94,1.92l12.76,21.65a.43.43,0,0,1,0,.5h0v0l0,0c-.18.17-.57.58-.64.65A.44.44,0,0,0,470.15,810.58Z"></path><path fill="url(#aP)" d="M515.67,767.2c-1.88-17,5.81-37.67,7.28-48.31.93-6.72,1.6-14.58-4.48-16.47-6.28-2-8.82-2.87-14.27-2.73-13.12.32-19.26,3-21.94,12-2.51,8.5-4.29,11.09-6.37,19.43-.92,3.74,8.54,15.25,7.34,31.38C479.5,777.4,520.29,779.6,515.67,767.2Z"></path><path fill="#a2d0ff" d="M508.86,683.72c-.23-4-14,4-13.73,9.31.25,4.34.81,8.7-.81,9.26-1.88,1.36-5.09,10.44-1.72,13.8,11.72-4.8,15.44-9.66,25.87-13.67C514.2,701.55,509.61,696.79,508.86,683.72Z" class="colorffcea2 svgShape"></path><path fill="#a7d0fa" d="M478.35,779c-5.25,3.67-6.69,1.41-9.5,2.67a42.57,42.57,0,0,0-6.46,3.88c-1,.66,2.32.54,3.72,0-3.2,2.67-3.48,6.17-2.88,7.74.69,1.8,5.21,3.5,6.26,2.5,4.36-4.21,3.6-5.87,9.56-7.43,2.14-.56,5.2-3.69,5.2-3.69Z" class="colorfacfa7 svgShape"></path><path fill="#a2d0ff" d="M478.35 779c8.17-4.77 23.38-22.49 24.57-29s8.3-46.45 17.48-45.71-1.93 38.56-8.21 52.47c-3.07 6.79-18.76 22.64-27.94 27.91C480.69 784.62 478.35 779 478.35 779zM512.19 678.13L508 667.74l-21.19-3.34a8.74 8.74 0 00-3.66-.83c-3.22 6.58-1.48 20-1.48 20 0 8.76 5.89 15.85 13.16 15.85 7.06 0 12.77-6.68 13.11-15.07l1.83 0z" class="colorffcea2 svgShape"></path><path fill="#96c8fb" d="M505.7,692.5c-2.26,4-6,6.7-10.28,6.92a4.26,4.26,0,0,1-.7,2.62,9.52,9.52,0,0,0,2.12-.2C501.23,700.76,504.41,697.13,505.7,692.5Z" class="colorfbc096 svgShape"></path><path fill="url(#aQ)" d="M496,656.29c20.3,0,24.14,24.92,27.6,46.43-3.1,6.81-10.66,11.79-19.89,14-11,1.1,3.71-36.61-11.67-46.47-4.28-2.74-12.2-1.59-10.61-5.06C484.82,657.63,489.07,656.29,496,656.29Z"></path></g></g></g></svg>