<svg xmlns="http://www.w3.org/2000/svg" xmlns:xlink="http://www.w3.org/1999/xlink" viewBox="0 0 1751.624 1439.52" id="SuccessPath"><defs><linearGradient id="q" x1="1360.519" x2="1450.574" y1="610.635" y2="610.635" gradientUnits="userSpaceOnUse"><stop offset=".365" stop-color="#c4d4e4" class="stopColorc4c9e4 svgShape"></stop><stop offset="1" stop-color="#ffffff" class="stopColorffffff svgShape"></stop></linearGradient><linearGradient id="a" x1="1341.689" x2="1429.897" y1="617.681" y2="617.681" gradientUnits="userSpaceOnUse"><stop offset="0" stop-color="#fb4bdb" class="stopColorfb944b svgShape"></stop><stop offset="1" stop-color="#c82bab" class="stopColorc85a2b svgShape"></stop></linearGradient><linearGradient id="r" x1="1349.976" x2="1421.61" y1="588.937" y2="588.937" gradientUnits="userSpaceOnUse"><stop offset="0" stop-color="#c82bab" class="stopColorc85a2b svgShape"></stop><stop offset="1" stop-color="#fb4bdb" class="stopColorfb944b svgShape"></stop></linearGradient><linearGradient id="s" x1="1372.182" x2="1391.541" y1="607.62" y2="607.62" xlink:href="#a"></linearGradient><linearGradient id="t" x1="1048.33" x2="1048.33" y1="1212.358" y2="1155.692" gradientUnits="userSpaceOnUse"><stop offset="0" stop-color="#e539c6" class="stopColore57139 svgShape"></stop><stop offset="1" stop-color="#6db6ff" class="stopColorffaf6d svgShape"></stop></linearGradient><linearGradient id="u" x1="988.659" x2="1030.147" y1="1184.025" y2="1184.025" gradientUnits="userSpaceOnUse"><stop offset="0" stop-color="#6db6ff" class="stopColorffaf6d svgShape"></stop><stop offset="1" stop-color="#e539c6" class="stopColore57139 svgShape"></stop></linearGradient><linearGradient id="v" x1="1015.673" x2="1015.673" y1="1212.358" y2="1184.041" gradientUnits="userSpaceOnUse"><stop offset="0" stop-color="#fb4bdb" class="stopColorfb944b svgShape"></stop><stop offset="1" stop-color="#6bb5ff" class="stopColorffc16b svgShape"></stop></linearGradient><linearGradient id="b" x1="227.365" x2="227.365" y1="891.424" y2="840.712" gradientUnits="userSpaceOnUse"><stop offset="0" stop-color="#e539c6" class="stopColore57139 svgShape"></stop><stop offset=".329" stop-color="#ec47ce" class="stopColorec8847 svgShape"></stop><stop offset="1" stop-color="#6bb5ff" class="stopColorffc16b svgShape"></stop></linearGradient><linearGradient id="c" x1="198.14" x2="198.14" y1="891.424" y2="866.081" gradientUnits="userSpaceOnUse"><stop offset="0" stop-color="#6db6ff" class="stopColorffaf6d svgShape"></stop><stop offset="1" stop-color="#6bb5ff" class="stopColorffc16b svgShape"></stop></linearGradient><linearGradient id="w" x1="1150.046" x2="1150.046" y1="779.467" y2="728.755" xlink:href="#b"></linearGradient><linearGradient id="x" x1="1120.821" x2="1120.821" y1="779.467" y2="754.124" xlink:href="#c"></linearGradient><linearGradient id="k" x1="1433.679" x2="1433.679" y1="772.156" y2="180.547" gradientUnits="userSpaceOnUse"><stop offset=".465" stop-color="#ffffff" class="stopColorffffff svgShape"></stop><stop offset=".829" stop-color="#dfe9f4" class="stopColordfe4f4 svgShape"></stop></linearGradient><linearGradient id="l" x1="1321.637" x2="1321.637" y1="772.156" y2="180.547" gradientUnits="userSpaceOnUse"><stop offset=".474" stop-color="#ffffff" class="stopColorffffff svgShape"></stop><stop offset=".891" stop-color="#e9f0f7" class="stopColore9edf7 svgShape"></stop></linearGradient><linearGradient id="m" x1="328.491" x2="328.491" y1="536.232" y2="101.947" gradientTransform="matrix(.8824 0 0 1 93.6 0)" gradientUnits="userSpaceOnUse"><stop offset=".239" stop-color="#ffffff" class="stopColorffffff svgShape"></stop><stop offset=".891" stop-color="#e9f0f7" class="stopColore9edf7 svgShape"></stop></linearGradient><linearGradient id="n" x1="1020.203" x2="1020.203" y1="536.232" y2="101.947" gradientTransform="matrix(-.8824 0 0 1 1501.369 0)" gradientUnits="userSpaceOnUse"><stop offset=".228" stop-color="#ffffff" class="stopColorffffff svgShape"></stop><stop offset=".829" stop-color="#dfe9f4" class="stopColordfe4f4 svgShape"></stop></linearGradient><linearGradient id="g" x1="621.094" x2="709.84" y1="668.396" y2="668.396" gradientUnits="userSpaceOnUse"><stop offset="0" stop-color="#c4d3e2" class="stopColorc4c8e2 svgShape"></stop><stop offset=".145" stop-color="#d7e1eb" class="stopColord7daeb svgShape"></stop><stop offset=".406" stop-color="#f4f7fa" class="stopColorf4f5fa svgShape"></stop><stop offset=".555" stop-color="#ffffff" class="stopColorffffff svgShape"></stop></linearGradient><linearGradient id="h" x1="560.277" x2="660.613" y1="619.282" y2="561.352" gradientUnits="userSpaceOnUse"><stop offset="0" stop-color="#6f67e9" class="stopColor6b67e9 svgShape"></stop><stop offset=".388" stop-color="#4c45b4" class="stopColor4b45b4 svgShape"></stop><stop offset=".797" stop-color="#582582" class="stopColor2c2582 svgShape"></stop><stop offset="1" stop-color="#193f6f" class="stopColor20196f svgShape"></stop></linearGradient><linearGradient id="i" x1="567.795" x2="655.729" y1="581.114" y2="530.346" gradientUnits="userSpaceOnUse"><stop offset="0" stop-color="#6f67e9" class="stopColor6b67e9 svgShape"></stop><stop offset=".684" stop-color="#652f92" class="stopColor362f92 svgShape"></stop><stop offset="1" stop-color="#193f6f" class="stopColor20196f svgShape"></stop></linearGradient><linearGradient id="j" x1="573.61" x2="668.576" y1="515.594" y2="515.594" gradientUnits="userSpaceOnUse"><stop offset="0" stop-color="#857dfb" class="stopColor807dfb svgShape"></stop><stop offset=".348" stop-color="#6861d6" class="stopColor6561d6 svgShape"></stop><stop offset="1" stop-color="#662e94" class="stopColor362e94 svgShape"></stop></linearGradient><linearGradient id="d" x1="313.443" x2="398.244" y1="944.856" y2="944.856" gradientUnits="userSpaceOnUse"><stop offset="0" stop-color="#cfe0f1" class="stopColorcfd5f1 svgShape"></stop><stop offset=".283" stop-color="#e1ebf6" class="stopColore1e5f6 svgShape"></stop><stop offset=".719" stop-color="#f7fafd" class="stopColorf7f8fd svgShape"></stop><stop offset="1" stop-color="#ffffff" class="stopColorffffff svgShape"></stop></linearGradient><linearGradient id="y" x1="1481.512" x2="1540.022" y1="880.035" y2="880.035" xlink:href="#d"></linearGradient><linearGradient id="e" x1="379.581" x2="860.504" y1="978.409" y2="978.409" gradientUnits="userSpaceOnUse"><stop offset="0" stop-color="#cfe0f1" class="stopColorcfd5f1 svgShape"></stop><stop offset=".254" stop-color="#e0ebf6" class="stopColore0e4f6 svgShape"></stop><stop offset=".782" stop-color="#ffffff" class="stopColorffffff svgShape"></stop></linearGradient><linearGradient id="z" x1="689.76" x2="924.087" y1="803.926" y2="803.926" gradientUnits="userSpaceOnUse"><stop offset="0" stop-color="#cfe0f1" class="stopColorcfd5f1 svgShape"></stop><stop offset=".114" stop-color="#d5e4f3" class="stopColord5dbf3 svgShape"></stop><stop offset=".875" stop-color="#fdfeff" class="stopColorfdfeff svgShape"></stop></linearGradient><linearGradient id="A" x1="613.811" x2="860.504" y1="888.701" y2="888.701" gradientUnits="userSpaceOnUse"><stop offset="0" stop-color="#cfe0f1" class="stopColorcfd5f1 svgShape"></stop><stop offset=".172" stop-color="#e0ebf6" class="stopColore0e4f6 svgShape"></stop><stop offset=".418" stop-color="#f1f6fb" class="stopColorf1f3fb svgShape"></stop><stop offset=".683" stop-color="#fcfdfe" class="stopColorfcfcfe svgShape"></stop><stop offset="1" stop-color="#ffffff" class="stopColorffffff svgShape"></stop></linearGradient><linearGradient id="B" x1="716.217" x2="848.039" y1="729.613" y2="729.613" xlink:href="#e"></linearGradient><linearGradient id="C" x1="1137.881" x2="1249.312" y1="579.256" y2="579.256" gradientUnits="userSpaceOnUse"><stop offset=".427" stop-color="#c2d4e7" class="stopColorc2c8e7 svgShape"></stop><stop offset=".559" stop-color="#c9d9ea" class="stopColorc9ceea svgShape"></stop><stop offset=".745" stop-color="#dbe6f1" class="stopColordbdef1 svgShape"></stop><stop offset=".961" stop-color="#f9fbfd" class="stopColorf9f9fd svgShape"></stop><stop offset="1" stop-color="#ffffff" class="stopColorffffff svgShape"></stop></linearGradient><linearGradient id="D" x1="1177.039" x2="1232.739" y1="569.297" y2="569.297" gradientUnits="userSpaceOnUse"><stop offset="0" stop-color="#c2d4e7" class="stopColorc2c8e7 svgShape"></stop><stop offset=".916" stop-color="#ffffff" class="stopColorffffff svgShape"></stop></linearGradient><linearGradient id="E" x1="1121.319" x2="1232.754" y1="589.912" y2="589.912" gradientUnits="userSpaceOnUse"><stop offset="0" stop-color="#652e92" class="stopColor362e92 svgShape"></stop><stop offset="1" stop-color="#857df9" class="stopColor807df9 svgShape"></stop></linearGradient><linearGradient id="F" x1="1177.039" x2="1204.688" y1="557.516" y2="557.516" gradientUnits="userSpaceOnUse"><stop offset="0" stop-color="#c2d4e7" class="stopColorc2c8e7 svgShape"></stop><stop offset="1" stop-color="#ffffff" class="stopColorffffff svgShape"></stop></linearGradient><linearGradient id="f" x1="1149.356" x2="1204.719" y1="570.965" y2="570.965" gradientUnits="userSpaceOnUse"><stop offset="0" stop-color="#fb4bdb" class="stopColorfb944b svgShape"></stop><stop offset=".614" stop-color="#d936bb" class="stopColord96d36 svgShape"></stop><stop offset="1" stop-color="#c82bab" class="stopColorc85a2b svgShape"></stop></linearGradient><linearGradient id="G" x1="1163.195" x2="1190.875" y1="536.265" y2="536.265" xlink:href="#f"></linearGradient><linearGradient id="H" x1="1163.195" x2="1190.875" y1="516.411" y2="516.411" gradientUnits="userSpaceOnUse"><stop offset="0" stop-color="#ffffff" class="stopColorffffff svgShape"></stop><stop offset=".14" stop-color="#fbfcfe" class="stopColorfbfcfe svgShape"></stop><stop offset="1" stop-color="#e8eff7" class="stopColore8ecf7 svgShape"></stop></linearGradient><linearGradient id="I" x1="1058.25" x2="1295.82" y1="428.487" y2="428.487" xlink:href="#f"></linearGradient><linearGradient id="J" x1="1067.738" x2="1286.337" y1="341.992" y2="341.992" gradientUnits="userSpaceOnUse"><stop offset="0" stop-color="#c82bab" class="stopColorc85a2b svgShape"></stop><stop offset=".242" stop-color="#cf2fb2" class="stopColorcf622f svgShape"></stop><stop offset=".611" stop-color="#e13bc3" class="stopColore1773b svgShape"></stop><stop offset="1" stop-color="#fb4bdb" class="stopColorfb944b svgShape"></stop></linearGradient><linearGradient id="K" x1="1244.19" x2="1402.639" y1="688.079" y2="688.079" xlink:href="#d"></linearGradient><linearGradient id="L" x1="962.795" x2="1230.244" y1="998.892" y2="998.892" xlink:href="#d"></linearGradient><linearGradient id="M" x1="1189.654" x2="1339.735" y1="985.154" y2="985.154" gradientUnits="userSpaceOnUse"><stop offset="0" stop-color="#cfe0f1" class="stopColorcfd5f1 svgShape"></stop><stop offset=".007" stop-color="#d0e0f1" class="stopColord0d5f1 svgShape"></stop><stop offset=".389" stop-color="#eaf1f9" class="stopColoreaecf9 svgShape"></stop><stop offset=".732" stop-color="#f9fbfd" class="stopColorf9fafd svgShape"></stop><stop offset="1" stop-color="#ffffff" class="stopColorffffff svgShape"></stop></linearGradient><linearGradient id="N" x1="843.672" x2="1068.719" y1="590.2" y2="590.2" xlink:href="#d"></linearGradient><linearGradient id="O" x1="831.785" x2="918.809" y1="1120.535" y2="1120.535" gradientUnits="userSpaceOnUse"><stop offset="0" stop-color="#c4d4e5" class="stopColorc4c9e5 svgShape"></stop><stop offset=".076" stop-color="#c9d8e7" class="stopColorc9cee7 svgShape"></stop><stop offset=".683" stop-color="#f0f4f8" class="stopColorf0f1f8 svgShape"></stop><stop offset="1" stop-color="#ffffff" class="stopColorffffff svgShape"></stop></linearGradient><linearGradient id="Q" x1="1310.289" x2="1389.918" y1="841.291" y2="841.291" xlink:href="#g"></linearGradient><linearGradient id="R" x1="1255.721" x2="1345.749" y1="797.224" y2="745.246" xlink:href="#h"></linearGradient><linearGradient id="S" x1="1262.467" x2="1341.366" y1="762.978" y2="717.426" xlink:href="#i"></linearGradient><linearGradient id="T" x1="1267.684" x2="1352.893" y1="704.19" y2="704.19" xlink:href="#j"></linearGradient><linearGradient id="U" x1="589.327" x2="589.327" y1="1579.005" y2="1030.863" xlink:href="#k"></linearGradient><linearGradient id="V" x1="448.541" x2="448.541" y1="1579.005" y2="1030.863" xlink:href="#l"></linearGradient><linearGradient id="W" x1="1368.372" x2="1368.372" y1="1337.573" y2="903.288" xlink:href="#m"></linearGradient><linearGradient id="X" x1="-19.679" x2="-19.679" y1="1337.573" y2="903.288" xlink:href="#n"></linearGradient><linearGradient id="o" x1="829.501" x2="884.339" y1="452.795" y2="452.795" gradientUnits="userSpaceOnUse"><stop offset=".427" stop-color="#c4d4e4" class="stopColorc4c9e4 svgShape"></stop><stop offset=".577" stop-color="#d7e2ed" class="stopColord7daed svgShape"></stop><stop offset=".846" stop-color="#f4f7fa" class="stopColorf4f5fa svgShape"></stop><stop offset="1" stop-color="#ffffff" class="stopColorffffff svgShape"></stop></linearGradient><linearGradient id="Y" x1="817.411" x2="872.278" y1="456.041" y2="456.041" gradientUnits="userSpaceOnUse"><stop offset="0" stop-color="#6bb5ff" class="stopColorffc16b svgShape"></stop><stop offset=".051" stop-color="#68b2fd" class="stopColorfdbc68 svgShape"></stop><stop offset=".469" stop-color="#f04ed3" class="stopColorf0934e svgShape"></stop><stop offset=".799" stop-color="#e83fc9" class="stopColore87a3f svgShape"></stop><stop offset="1" stop-color="#e539c6" class="stopColore57139 svgShape"></stop></linearGradient><linearGradient id="Z" x1="948.617" x2="1003.456" y1="816.978" y2="816.978" xlink:href="#o"></linearGradient><linearGradient id="aa" x1="936.527" x2="991.394" y1="820.225" y2="820.225" gradientUnits="userSpaceOnUse"><stop offset="0" stop-color="#857dfb" class="stopColor807dfb svgShape"></stop><stop offset=".014" stop-color="#847cfa" class="stopColor7f7cfa svgShape"></stop><stop offset=".448" stop-color="#625ad1" class="stopColor5e5ad1 svgShape"></stop><stop offset=".792" stop-color="#4d46b8" class="stopColor4a46b8 svgShape"></stop><stop offset="1" stop-color="#7c3eaf" class="stopColor423eaf svgShape"></stop></linearGradient><linearGradient id="ab" x1="158.017" x2="259.875" y1="1072.097" y2="1072.097" gradientUnits="userSpaceOnUse"><stop offset="0" stop-color="#c4d4e4" class="stopColorc4c9e4 svgShape"></stop><stop offset="1" stop-color="#ffffff" class="stopColorffffff svgShape"></stop></linearGradient><linearGradient id="p" x1="137.65" x2="230.092" y1="1063.351" y2="1063.351" gradientUnits="userSpaceOnUse"><stop offset="0" stop-color="#847cfb" class="stopColor807cfb svgShape"></stop><stop offset=".014" stop-color="#837bfa" class="stopColor7f7bfa svgShape"></stop><stop offset=".448" stop-color="#625ad1" class="stopColor5e5ad1 svgShape"></stop><stop offset=".792" stop-color="#4d46b8" class="stopColor4a46b8 svgShape"></stop><stop offset="1" stop-color="#7c3eaf" class="stopColor423eaf svgShape"></stop></linearGradient><linearGradient id="ac" x1="137.65" x2="230.092" y1="1072.175" y2="1072.175" gradientUnits="userSpaceOnUse"><stop offset="0" stop-color="#d8e4f0" class="stopColord8def0 svgShape"></stop><stop offset=".551" stop-color="#c6d6e7" class="stopColorc6cce7 svgShape"></stop><stop offset="1" stop-color="#bdd0e3" class="stopColorbdc3e3 svgShape"></stop></linearGradient><linearGradient id="ad" x1="137.65" x2="230.092" y1="1080.999" y2="1080.999" xlink:href="#p"></linearGradient><linearGradient id="ae" x1="1371.728" x2="1409.282" y1="104.106" y2="169.15" gradientUnits="userSpaceOnUse"><stop offset=".337" stop-color="#857dfb" class="stopColor807dfb svgShape"></stop><stop offset=".447" stop-color="#7e76f2" class="stopColor7a76f2 svgShape"></stop><stop offset=".625" stop-color="#6b63da" class="stopColor6863da svgShape"></stop><stop offset=".85" stop-color="#6822a2" class="stopColor4c45b2 svgShape"></stop><stop offset="1" stop-color="#662e94" class="stopColor362e94 svgShape"></stop></linearGradient><linearGradient id="af" x1="1377.656" x2="1425.575" y1="184.274" y2="184.274" gradientUnits="userSpaceOnUse"><stop offset="0" stop-color="#c2d2e2" class="stopColorc2c7e2 svgShape"></stop><stop offset=".216" stop-color="#d6e0eb" class="stopColord6d9eb svgShape"></stop><stop offset=".701" stop-color="#ffffff" class="stopColorffffff svgShape"></stop></linearGradient><linearGradient id="ag" x1="1034.369" x2="1081.159" y1="660.821" y2="660.821" gradientUnits="userSpaceOnUse"><stop offset="0" stop-color="#c4d6e9" class="stopColorc4cae9 svgShape"></stop><stop offset=".095" stop-color="#cedded" class="stopColorced3ed svgShape"></stop><stop offset=".409" stop-color="#e9f0f7" class="stopColore9ebf7 svgShape"></stop><stop offset=".687" stop-color="#f9fbfd" class="stopColorf9fafd svgShape"></stop><stop offset=".899" stop-color="#ffffff" class="stopColorffffff svgShape"></stop></linearGradient><linearGradient id="ah" x1="434.869" x2="458.222" y1="744.941" y2="744.941" gradientTransform="matrix(-.7274 -.4192 -.4993 .8664 1670.014 206.185)" gradientUnits="userSpaceOnUse"><stop offset="0" stop-color="#193f6f" class="stopColor20196f svgShape"></stop><stop offset=".304" stop-color="#224b7e" class="stopColor28227e svgShape"></stop><stop offset=".891" stop-color="#7539a7" class="stopColor3e39a7 svgShape"></stop><stop offset="1" stop-color="#7c3eaf" class="stopColor423eaf svgShape"></stop></linearGradient><linearGradient id="ai" x1="966.879" x2="1028.275" y1="607.504" y2="607.504" gradientUnits="userSpaceOnUse"><stop offset="0" stop-color="#193f6f" class="stopColor20196f svgShape"></stop><stop offset=".112" stop-color="#183c69" class="stopColor1e1869 svgShape"></stop><stop offset=".664" stop-color="#132e50" class="stopColor161350 svgShape"></stop><stop offset="1" stop-color="#112947" class="stopColor131147 svgShape"></stop></linearGradient><linearGradient id="aj" x1="484.324" x2="509.514" y1="657.853" y2="657.853" gradientTransform="matrix(-1 0 0 1 1536.043 0)" gradientUnits="userSpaceOnUse"><stop offset="0" stop-color="#193f6f" class="stopColor20196f svgShape"></stop><stop offset=".481" stop-color="#224b7e" class="stopColor29227e svgShape"></stop><stop offset="1" stop-color="#662e94" class="stopColor362e94 svgShape"></stop></linearGradient><linearGradient id="ak" x1="978.892" x2="1041.485" y1="606.951" y2="606.951" gradientUnits="userSpaceOnUse"><stop offset="0" stop-color="#662e94" class="stopColor362e94 svgShape"></stop><stop offset=".631" stop-color="#1b3a60" class="stopColor1f1b60 svgShape"></stop><stop offset="1" stop-color="#112947" class="stopColor131147 svgShape"></stop></linearGradient><linearGradient id="al" x1="978.741" x2="1057.498" y1="524.435" y2="524.435" gradientUnits="userSpaceOnUse"><stop offset="0" stop-color="#857dfb" class="stopColor807dfb svgShape"></stop><stop offset=".393" stop-color="#776fec" class="stopColor726fec svgShape"></stop><stop offset="1" stop-color="#5a52cc" class="stopColor5652cc svgShape"></stop></linearGradient><linearGradient id="am" x1="1013.734" x2="1038.067" y1="569.877" y2="501.544" gradientUnits="userSpaceOnUse"><stop offset="0" stop-color="#6f67e9" class="stopColor6b67e9 svgShape"></stop><stop offset=".266" stop-color="#5046e4" class="stopColor5d59d6 svgShape"></stop><stop offset=".731" stop-color="#4c45ba" class="stopColor4945ba svgShape"></stop><stop offset="1" stop-color="#7c3eaf" class="stopColor423eaf svgShape"></stop></linearGradient><radialGradient id="P" cx="802.707" cy="993.323" r="89.331" gradientUnits="userSpaceOnUse"><stop offset="0" stop-color="#857dfb" class="stopColor807dfb svgShape"></stop><stop offset="1" stop-color="#662e94" class="stopColor362e94 svgShape"></stop></radialGradient></defs><g style="isolation:isolate" fill="#f4f6f8" class="color000000 svgShape"><g fill="#f4f6f8" class="color000000 svgShape"><g fill="#f4f6f8" class="color000000 svgShape"><path fill="#857dfb" d="m1026.828 301.113-27.43-15.837v-31.674l27.43 15.837v31.674z" class="color807dfb svgShape"></path><path fill="#ffffff" d="m1022.225 271.869-10.368 8.301-5.202-9.824-3.142 1.814 7.218 14.471 13.509-11.272-2.015-3.49z" class="colorffffff svgShape"></path><path fill="#857dfb" d="m1097.959 320.663-63.672-36.761v-4.309l63.672 36.761v4.309zM1074.849 319.31l-40.562-23.419v-4.308l40.562 23.418v4.309z" class="color807dfb svgShape"></path><path fill="#6db6ff" d="m1026.828 257.86-27.43-15.838v-31.674l27.43 15.838v31.674z" class="colorffaf6d svgShape"></path><path fill="#ffffff" d="m1022.225 228.616-10.368 8.301-5.202-9.825-3.142 1.814 7.218 14.472 13.509-11.272-2.015-3.49z" class="colorffffff svgShape"></path><path fill="#5a52cc" d="m1097.959 277.41-63.672-36.761v-4.309l63.672 36.761v4.309zM1074.849 276.057l-40.562-23.419v-4.309l40.562 23.419v4.309z" class="color5652cc svgShape"></path><path fill="#857dfb" d="m1026.828 214.606-27.43-15.837v-31.674l27.43 15.837v31.674z" class="color807dfb svgShape"></path><path fill="#7c3eaf" d="m1022.225 185.363-10.368 8.301-5.202-9.825-3.142 1.814 7.218 14.472 13.509-11.272-2.015-3.49z" class="color423eaf svgShape"></path><path fill="#5a52cc" d="m1097.959 234.157-63.672-36.762v-4.308l63.672 36.761v4.309zM1074.849 232.803l-40.562-23.418v-4.309l40.562 23.419v4.308z" class="color5652cc svgShape"></path><path d="M1437.28 592.182c-9.416-5.435-21.93-7.938-34.22-7.574h-19.268v3.159a51.236 51.236 0 0 0-10.197 4.415c-17.522 10.188-17.417 26.704.213 36.89a51.343 51.343 0 0 0 9.984 4.325v3.3h23.108c11.114-.187 22.133-2.706 30.59-7.621 17.523-10.19 17.438-26.706-.21-36.894Z" style="mix-blend-mode:multiply" fill="url(#q)"></path><path fill="#6eb6ff" d="M1341.689 598.666c0-6.518 4.302-13.033 12.915-18.007 8.615-4.974 19.9-7.46 31.19-7.46 11.286 0 22.572 2.486 31.183 7.46s12.92 11.488 12.92 18.005c.003 6.516-4.302 13.032-12.92 18.007-8.608 4.971-19.895 7.456-31.18 7.456-11.288 0-22.577-2.485-31.186-7.457-8.615-4.974-12.92-11.49-12.922-18.004Z" class="colorffd26e svgShape"></path><path fill="url(#a)" d="M1416.977 616.671c-8.608 4.971-19.895 7.456-31.18 7.456-11.288 0-22.577-2.485-31.186-7.457-8.615-4.974-12.92-11.49-12.922-18.004v12.57c.002 6.514 4.307 13.03 12.922 18.004 8.61 4.972 19.898 7.457 31.186 7.457 11.285 0 22.572-2.483 31.18-7.456 8.618-4.972 12.923-11.491 12.92-18.007v-12.57c.003 6.516-4.302 13.032-12.92 18.007Z"></path><path fill="#6db6ff" d="M1360.47 613.284c6.99 4.04 16.159 6.062 25.327 6.062 9.167 0 18.332-2.022 25.323-6.06 6.455-3.722 9.924-8.52 10.42-13.395-.496-4.877-3.965-9.67-10.42-13.397-6.994-4.039-16.16-6.058-25.326-6.058s-18.333 2.02-25.33 6.058c-6.453 3.726-9.92 8.517-10.418 13.395.498 4.877 3.965 9.673 10.423 13.395Z" class="colorffaf6d svgShape"></path><path fill="url(#r)" d="M1360.464 586.494c6.997-4.039 16.163-6.058 25.33-6.058s18.332 2.02 25.326 6.058c6.455 3.728 9.924 8.52 10.42 13.397a11.787 11.787 0 0 0 .07-1.227c0-5.294-3.495-10.583-10.49-14.62-6.994-4.04-16.16-6.061-25.326-6.061s-18.333 2.02-25.33 6.06c-6.994 4.038-10.488 9.329-10.488 14.623a12.148 12.148 0 0 0 .07 1.223c.498-4.878 3.965-9.669 10.418-13.395Z"></path><path fill="#a50b89" d="m1403.44 593.405 3.387-1.955V589l-3.387 1.953v2.452z" class="colorc85a2b svgShape"></path><path fill="#6eb6ff" d="M1387.811 597.5a2.881 2.881 0 0 1 .002-5.461 10.47 10.47 0 0 1 9.458 0c2.608 1.505 2.608 3.955 0 5.46l4.296 2.481c4.232-2.447 4.848-6.193 1.873-9.027l3.387-1.953-4.291-2.481-3.39 1.957c-4.902-1.715-11.392-1.36-15.628 1.085-2.41 1.392-3.737 3.241-3.735 5.21-.002 1.965 1.327 3.815 3.735 5.204 2.61 1.509 2.61 3.959 0 5.466a10.47 10.47 0 0 1-9.459 0c-2.608-1.507-2.608-3.957 0-5.46l-4.291-2.481c-4.236 2.447-4.853 6.192-1.88 9.023l-3.123 1.803 4.293 2.48 3.124-1.807c4.905 1.72 11.395 1.365 15.631-1.079 4.972-2.872 4.972-7.545-.002-10.42Z" class="colorffd26e svgShape"></path><path fill="#fb4bdb" d="m1364.765 610.778 4.293 2.48v-2.452l-4.293-2.48v2.452z" class="colorfb944b svgShape"></path><path fill="#a50b89" d="m1369.058 613.258 3.124-1.804v-2.455l-3.124 1.807v2.452z" class="colorc85a2b svgShape"></path><path fill="#fb4bdb" d="m1397.271 599.95 4.296 2.481v-2.451l-4.296-2.48v2.45z" class="colorfb944b svgShape"></path><path fill="#a50b89" d="M1374.06 602.43v-2.45c-1.851 1.068-2.381 2.61-1.606 3.954a4.261 4.261 0 0 1 1.605-1.503Z" class="colorc85a2b svgShape"></path><path fill="#fb4bdb" d="m1366.045 602.588.006 2.759.005-.006a4.714 4.714 0 0 0 .533 1.933l1.298-.751a5.261 5.261 0 0 1-1.834-3.929ZM1383.518 602.427a4.332 4.332 0 0 1 1.608 1.507c.775-1.344.243-2.886-1.608-3.959-2.408-1.389-3.737-3.24-3.735-5.204v2.45c-.002 1.967 1.327 3.817 3.735 5.206Z" class="colorfb944b svgShape"></path><path fill="#fc06cf" d="M1391.541 602.696v-.05h-.003c0 .017.003.033.003.05Z" class="colorfcba06 svgShape"></path><path fill="#a50b89" d="M1405.278 594.766c.006 1.887-1.222 3.776-3.711 5.214v2.45c2.552-1.473 3.777-3.419 3.707-5.355l.01.012v-2.321Z" class="colorc85a2b svgShape"></path><path fill="url(#s)" d="M1387.813 607.92c-4.236 2.444-10.726 2.799-15.631 1.079v2.455c4.905 1.715 11.395 1.36 15.631-1.085 2.467-1.424 3.707-3.292 3.728-5.165v-2.482c-.003 1.882-1.247 3.764-3.728 5.198Z"></path><path fill="#a50b89" d="M1397.271 592.039a10.47 10.47 0 0 0-9.458 0 3.328 3.328 0 0 0-1.962 2.732 2.44 2.44 0 0 0 .349 1.223 4.305 4.305 0 0 1 1.613-1.503 10.464 10.464 0 0 1 9.458-.002 4.23 4.23 0 0 1 1.605 1.508c.778-1.346.245-2.89-1.605-3.958Z" class="colorc85a2b svgShape"></path><path fill="#e7eef5" d="M1020.062 1207.276c4.861-2.806 12.746-2.806 17.605 0 4.863 2.81 4.863 7.358 0 10.164-4.86 2.811-12.742 2.811-17.601 0-4.864-2.806-4.868-7.353-.004-10.164Z" class="colore7ebf5 svgShape"></path><path fill="url(#t)" d="M1068.972 1159.446c-.654-6.578-17.51-5.043-29.19 8.854-11.664 13.46-14.1 34.127-10.914 44.058 2.594-10.277 11.403-25.351 21.381-34.052 9.799-8.918 19.953-11.743 18.723-18.86Z"></path><path fill="url(#u)" d="M988.76 1159.446c.655-6.578 17.51-5.043 29.19 8.854 11.664 13.46 14.1 34.127 10.918 44.058-2.6-10.277-11.408-25.351-21.388-34.052-9.795-8.918-19.95-11.743-18.72-18.86Z"></path><path fill="url(#v)" d="M1001.091 1194.03c3.045 6.381 9.13 4.514 13.89 5.133 4.83-.975 11.292 6.748 13.887 13.195 2.994-4.511 4.852-21.431-9.83-27.095-13.058-4.203-21.119 3.363-17.947 8.767Z"></path><path fill="#e8eff7" d="M202.066 886.876a17.419 17.419 0 0 1 15.759 0c4.351 2.514 4.351 6.584 0 9.097a17.408 17.408 0 0 1-15.753 0c-4.354-2.513-4.356-6.583-.006-9.097Z" class="colore8ecf7 svgShape"></path><path fill="url(#b)" d="M245.838 844.071c-.586-5.885-15.67-4.513-26.124 7.925-10.435 12.046-12.616 30.54-9.766 39.428 2.323-9.199 10.205-22.687 19.136-30.475 8.767-7.982 17.855-10.508 16.754-16.878Z"></path><path fill="url(#c)" d="M185.09 875.022c2.723 5.71 8.171 4.04 12.433 4.595 4.322-.874 10.105 6.037 12.425 11.807 2.683-4.037 4.344-19.178-8.793-24.249-11.69-3.764-18.906 3.01-16.064 7.847Z"></path><path fill="#e8eff7" d="M1124.746 774.919a17.419 17.419 0 0 1 15.76 0c4.35 2.514 4.35 6.584 0 9.096a17.406 17.406 0 0 1-15.754 0c-4.353-2.512-4.355-6.582-.006-9.096Z" class="colore8ecf7 svgShape"></path><path fill="url(#w)" d="M1168.519 732.114c-.586-5.885-15.67-4.513-26.124 7.925-10.436 12.046-12.617 30.54-9.766 39.428 2.322-9.199 10.205-22.687 19.136-30.475 8.767-7.982 17.854-10.508 16.754-16.878Z"></path><path fill="url(#x)" d="M1107.771 763.065c2.723 5.71 8.17 4.04 12.433 4.595 4.321-.874 10.104 6.037 12.425 11.807 2.683-4.037 4.344-19.178-8.794-24.25-11.69-3.763-18.905 3.011-16.064 7.848Z"></path><path fill="url(#k)" d="m1489.701 180.546-112.045 64.686v266.347h112.045V180.546z"></path><path fill="#f1f5f9" d="m1377.656 245.232-112.039-64.686 112.039-64.683 112.045 64.683-112.045 64.686z" class="colorf1f3f9 svgShape"></path><path fill="url(#l)" d="m1377.656 245.232-112.039-64.686v331.033h112.039V245.232z"></path><path fill="url(#m)" d="M492.301 101.947v434.285H274.619l217.682-434.285z"></path><path fill="url(#n)" d="M492.301 101.947v434.285h217.682L492.301 101.947z"></path><path style="mix-blend-mode:multiply" fill="url(#g)" d="M621.094 665.042h88.746v6.707h-88.746z"></path><path fill="#193f6f" d="m621.094 671.749-5.32-3.066v-59.935l5.32 3.068v59.933z" class="color20196f svgShape"></path><path fill="#0f2642" d="m621.094 671.749 5.318-3.066v-59.935l-5.318 3.068v59.933z" class="color110f42 svgShape"></path><path fill="url(#h)" d="m679.596 594.56-58.502-86.777s-59.4 88.047-59.795 88.688a23.319 23.319 0 0 0-3.658 12.277c0 9.376 6.197 18.747 18.584 25.903 24.781 14.305 64.957 14.305 89.734 0 12.39-7.156 18.584-16.527 18.584-25.903a24.038 24.038 0 0 0-4.947-14.187Z"></path><path fill="url(#i)" d="m672.367 559.45-51.273-76.05-51.272 76.05a21.066 21.066 0 0 0-4.337 12.433c0 8.215 5.431 16.43 16.287 22.701 21.716 12.539 56.925 12.539 78.64 0 10.858-6.272 16.291-14.486 16.291-22.701a21.113 21.113 0 0 0-4.336-12.434Z"></path><path fill="url(#j)" d="M665.84 530.482c-.295-.482-44.746-66.375-44.746-66.375S576.641 530 576.346 530.482a17.424 17.424 0 0 0-2.736 9.182c0 7.018 4.636 14.033 13.908 19.385 18.545 10.709 48.607 10.709 67.152 0 9.272-5.352 13.906-12.367 13.906-19.385a17.424 17.424 0 0 0-2.736-9.182Z"></path><path style="mix-blend-mode:multiply" fill="url(#d)" d="M365.319 925.84h-51.876l32.429 19.304-32.429 18.728h51.876l32.925-19.012-32.925-19.02z"></path><path fill="#7c3eaf" d="m313.443 963.872 32.429-18.728v-38.025l-32.429 18.721v38.032z" class="color423eaf svgShape"></path><path fill="#5a52cc" d="m313.443 963.872-32.435-18.728v-38.025l32.435 18.721v38.032z" class="color5652cc svgShape"></path><path fill="#857dfb" d="m313.443 925.84-32.435-18.721 32.435-18.715 32.429 18.715-32.429 18.721z" class="color807dfb svgShape"></path><path style="mix-blend-mode:multiply" fill="url(#y)" d="M1517.302 866.916h-35.79l22.374 13.317-22.374 12.922h35.79l22.72-13.117-22.72-13.122z"></path><path fill="#e539c6" d="m1481.512 893.155 22.374-12.922v-26.234l-22.374 12.917v26.239z" class="colore57139 svgShape"></path><path fill="#fb4bdb" d="m1481.512 893.155-22.376-12.922v-26.234l22.376 12.917v26.239z" class="colorfb944b svgShape"></path><path fill="#6db6ff" d="m1481.512 866.916-22.376-12.917 22.376-12.914 22.374 12.914-22.374 12.917z" class="colorffaf6d svgShape"></path><path fill="#b9cee4" d="m716.217 790.52 62.084-35.853V631.071l-62.084 35.844V790.52z" class="colorb9bee4 svgShape"></path><path fill="#cce1f6" d="m716.217 790.52-62.094-35.853V631.071l62.094 35.844V790.52z" class="colorccd1f6 svgShape"></path><path fill="#f4f6f9" d="m716.217 666.915-62.094-35.844 62.094-35.83 62.084 35.83-62.084 35.844z" class="colorf4f4f9 svgShape"></path><path style="mix-blend-mode:multiply" fill="url(#e)" d="m860.504 928.033-480.923 56.902 75.95 43.849 404.973-47.915v-52.836z"></path><path style="mix-blend-mode:multiply" fill="url(#z)" d="m689.76 893.495 234.327-67.616-.097-67.673-75.951-43.85v67.7l-82.391 23.775-75.888 87.664z"></path><path fill="#6db6ff" d="m1104.559 610.1-176.313 23.891 29.494 17.031-109.701 63.334 75.951 43.85 109.7-63.336 29.496 17.029 41.373-101.799z" class="colorffaf6d svgShape"></path><path fill="#fb4bdb" d="m806.875 758.206-75.947-43.852 117.111.002 75.951 43.85H806.875z" class="colorfb944b svgShape"></path><path fill="#6db6ff" d="m689.76 893.495-75.947-43.851 117.113-135.288 75.949 43.85L689.76 893.495z" class="colorffaf6d svgShape"></path><path style="mix-blend-mode:multiply" fill="url(#A)" d="M860.504 927.756v-28.609l-149.643-30.028 9.38-10.835-106.43-8.639 75.949 43.85 170.744 34.261z"></path><path fill="#e539c6" d="m572.647 698.839-75.95-43.852 117.114 194.658 75.949 43.85-117.113-194.656z" class="colore57139 svgShape"></path><path fill="#fb4bdb" d="m455.531 1028.784-75.948-43.851 117.114-329.944 75.95 43.85-117.116 329.945z" class="colorfb944b svgShape"></path><path fill="#6db6ff" d="m199.998 1176.2-75.948-43.851 255.531-147.414 75.95 43.849L199.998 1176.2z" class="colorffaf6d svgShape"></path><path style="mix-blend-mode:multiply" fill="url(#B)" d="m716.217 731.348 27.357-9.775 104.465 23.297v-30.514H730.926l-14.709 16.992z"></path><path fill="#fb4bdb" d="M1082.87 388.008v-10.484c-11.216-6.475-19.673-20.77-19.673-33.246v-42.656l26.672 15.397v-10.482l-35.752-20.642v53.14c0 18.15 12.63 39.665 28.752 48.973Z" class="colorfb944b svgShape"></path><path fill="#6db6ff" d="m1054.117 285.895 9.08-5.242 35.752 20.642-9.08 5.242-35.752-20.642z" class="colorffaf6d svgShape"></path><path fill="#a50b89" d="M1072.276 306.864v32.171c0 12.479 8.459 26.774 19.675 33.248l-9.082 5.241c-11.215-6.475-19.672-20.77-19.672-33.246v-42.656Z" class="colorc85a2b svgShape"></path><path d="M1154.2 556.514c21.755-12.566 57.037-12.566 78.792 0 21.76 12.56 21.76 32.927 0 45.489-21.755 12.56-57.037 12.56-78.793 0-21.757-12.562-21.757-32.93 0-45.49Z" style="mix-blend-mode:multiply" fill="url(#C)"></path><path fill="#f4f6f8" d="M1137.637 545.655c21.76-12.564 57.037-12.564 78.797 0 21.76 12.564 21.76 32.932 0 45.492s-57.035 12.561-78.797 0c-21.754-12.56-21.754-32.928 0-45.492Z" class="colorf5f5f9 svgShape"></path><path d="M1177.04 584.388h48.35c9.218-9.286 9.763-20.65 1.641-30.181h-49.992Z" style="mix-blend-mode:multiply" fill="url(#D)"></path><path fill="url(#E)" d="M1216.434 591.147c-21.76 12.561-57.035 12.561-78.797 0-10.877-6.282-16.318-14.514-16.318-22.746v10.855c0 8.232 5.441 16.47 16.318 22.747 21.762 12.56 57.037 12.56 78.797 0 10.88-6.277 16.32-14.515 16.32-22.747V568.4c0 8.232-5.44 16.464-16.32 22.746Z"></path><path fill="#6db6ff" d="M1157.461 546.243c10.81-6.24 28.342-6.24 39.15 0 10.811 6.241 10.811 16.366 0 22.603-10.808 6.24-28.34 6.24-39.15 0-10.81-6.242-10.81-16.362 0-22.603Z" class="colorffaf6d svgShape"></path><path d="M1177.04 565.534h23.943c4.96-4.953 4.941-11.098-.061-16.036h-23.883Z" style="mix-blend-mode:multiply" fill="url(#F)"></path><path fill="url(#f)" d="M1196.612 568.846c-10.809 6.24-28.34 6.24-39.15 0-5.405-3.122-8.106-7.208-8.106-11.301V568.4c0 4.093 2.7 8.181 8.105 11.3 10.81 6.244 28.342 6.244 39.15 0 5.405-3.119 8.108-7.207 8.108-11.3v-10.856c0 4.093-2.703 8.179-8.107 11.3Z"></path><path fill="url(#G)" d="M1163.195 506.996v50.549c0 2.043 1.352 4.088 4.057 5.65 5.402 3.12 14.168 3.12 19.57 0 2.704-1.562 4.053-3.607 4.053-5.65v-50.549Z"></path><path d="M1163.195 517.836c0 2.045 1.352 4.089 4.057 5.65 5.402 3.12 14.168 3.12 19.57 0 2.704-1.561 4.053-3.605 4.053-5.65v-10.84h-27.68Z" style="mix-blend-mode:multiply" fill="url(#H)"></path><path fill="url(#I)" d="M1295.82 341.991h-237.57c0 83.801 58.403 172.991 118.79 172.991 60.382 0 118.78-89.19 118.78-172.99Z"></path><path fill="#6db6ff" d="M1093.047 293.498c46.385-26.781 121.596-26.781 167.98.002 46.39 26.78 46.39 70.204.002 96.986-46.384 26.78-121.597 26.78-167.982 0-46.393-26.782-46.393-70.206 0-96.988Z" class="colorffaf6d svgShape"></path><path fill="url(#J)" d="M1099.75 297.372c42.686-24.645 111.889-24.645 154.57 0 42.688 24.642 42.69 64.6.002 89.242-42.681 24.644-111.884 24.644-154.57 0-42.685-24.645-42.685-64.6-.002-89.242Z"></path><path fill="#a50b89" d="m1282.867 494.057 1.141-6.036s7.598-7.337 7.598-12.352v-53.14l9.084-5.244v53.142c0 8.511-2.793 14.537-7.405 17.594h.018Z" class="colorc85a2b svgShape"></path><path fill="#fb4bdb" d="M1262.854 491.442c16.123 9.308 28.752 2.38 28.752-15.773v-53.14l-35.752-20.643v10.483l26.675 15.401v42.657c0 12.478-8.46 17.007-19.675 10.53Z" class="colorfb944b svgShape"></path><path fill="#6db6ff" d="m1255.854 401.886 9.08-5.242 35.756 20.641-9.084 5.243-35.752-20.642zM1280.822 478.618c-3.003 5.895-9.736 7.091-17.968 2.339l9.08-5.244a19.652 19.652 0 0 0 8.888 2.905Z" class="colorffaf6d svgShape"></path><path style="mix-blend-mode:multiply" fill="url(#K)" d="M1341.119 652.548h-96.929l60.593 36.066-60.593 34.996h96.929l61.52-35.523-61.52-35.539z"></path><path fill="#b9cee4" d="m1244.19 723.61 60.593-34.996V552.899l-60.593 34.985V723.61z" class="colorb9bee4 svgShape"></path><path fill="#cce1f6" d="m1244.19 723.61-60.604-34.996V552.899l60.604 34.985V723.61z" class="colorccd1f6 svgShape"></path><path fill="#f4f6f9" d="m1244.19 587.884-60.604-34.985 60.604-34.972 60.593 34.972-60.593 34.985z" class="colorf4f4f9 svgShape"></path><path style="mix-blend-mode:multiply" fill="url(#L)" d="M1126.403 938.919H962.795l102.277 60.877-102.277 59.068h163.608l103.841-59.955-103.841-59.99z"></path><path fill="#b9cee4" d="m962.795 1058.864 102.277-59.068v-183.44l-102.277 59.047v183.461z" class="colorb9bee4 svgShape"></path><path fill="#cce1f6" d="m962.795 1058.864-102.291-59.068v-183.44l102.291 59.047v183.461z" class="colorccd1f6 svgShape"></path><path fill="#f4f6f9" d="m962.795 875.403-102.291-59.047 102.291-59.029 102.277 59.029-102.277 59.047z" class="colorf4f4f9 svgShape"></path><path style="mix-blend-mode:multiply" fill="url(#M)" d="M1295.266 959.47h-105.612l43.803 26.072-43.803 25.297h105.612l44.469-25.676-44.469-25.693z"></path><path fill="#b9cee4" d="m1189.654 1010.839 43.803-25.297V869.28l-43.803 25.287v116.272z" class="colorb9bee4 svgShape"></path><path fill="#cce1f6" d="m1189.654 1010.839-43.804-25.297V869.28l43.804 25.287v116.272z" class="colorccd1f6 svgShape"></path><path fill="#f4f6f9" d="m1189.654 894.567-43.804-25.287 43.804-25.279 43.803 25.279-43.803 25.287z" class="colorf4f4f9 svgShape"></path><path style="mix-blend-mode:multiply" fill="url(#N)" d="M981.342 539.737h-137.67l86.063 51.225-86.063 49.701h137.67l87.377-50.449-87.377-50.477z"></path><path fill="#b9cee4" d="m843.672 640.663 86.063-49.701V452.723l-86.063 49.687v138.253z" class="colorb9bee4 svgShape"></path><path fill="#cce1f6" d="M843.672 640.663 757.6 590.962V452.723l86.072 49.687v138.253z" class="colorccd1f6 svgShape"></path><path fill="#f4f6f9" d="M843.672 502.41 757.6 452.723l86.072-49.668 86.063 49.668-86.063 49.687z" class="colorf4f4f9 svgShape"></path><path style="mix-blend-mode:multiply" fill="url(#O)" d="M831.785 1117.602h87.023v5.865h-87.023z"></path><path fill="#63318d" d="m827.524 1042.757 4.261 2.459v78.252l-4.259-2.461-.002-78.25z" class="color34318d svgShape"></path><path fill="#1c3f6b" d="m836.049 1042.757-4.264 2.459v78.252l4.264-2.461v-78.25z" class="color1e1c6b svgShape"></path><path fill="url(#P)" d="M776.922 1014.329a54.863 54.863 0 1 1 54.863 54.867 54.862 54.862 0 0 1-54.863-54.867Z"></path><path style="mix-blend-mode:multiply" fill="url(#Q)" d="M1310.289 838.282h79.629v6.018h-79.629z"></path><path fill="#193f6f" d="m1310.289 844.3-4.773-2.752v-53.776l4.773 2.754V844.3z" class="color20196f svgShape"></path><path fill="#0f2642" d="m1310.289 844.3 4.772-2.752v-53.776l-4.772 2.754V844.3z" class="color110f42 svgShape"></path><path fill="url(#R)" d="m1362.781 775.044-52.492-77.863s-53.297 79.002-53.65 79.576a20.924 20.924 0 0 0-3.283 11.015c0 8.413 5.56 16.82 16.673 23.243 22.237 12.834 58.284 12.834 80.516 0 11.117-6.422 16.674-14.83 16.674-23.243a21.558 21.558 0 0 0-4.438-12.728Z"></path><path fill="url(#S)" d="m1356.295 743.54-46.006-68.236-46.004 68.236a18.901 18.901 0 0 0-3.892 11.154c0 7.371 4.875 14.742 14.615 20.37 19.484 11.251 51.076 11.251 70.56 0 9.743-5.628 14.618-12.999 14.618-20.37a18.947 18.947 0 0 0-3.89-11.154Z"></path><path fill="url(#T)" d="M1350.438 717.548c-.264-.432-40.149-59.555-40.149-59.555s-39.885 59.123-40.15 59.555a15.636 15.636 0 0 0-2.455 8.238c0 6.297 4.16 12.592 12.478 17.395 16.64 9.607 43.613 9.607 60.254 0 8.318-4.803 12.477-11.098 12.477-17.395a15.638 15.638 0 0 0-2.455-8.238Z"></path><path fill="url(#U)" d="m659.723 1030.862-140.791 81.282v225.429h140.791v-306.711z"></path><path fill="#f1f5f9" d="m518.932 1112.144-140.782-81.282 140.782-81.279 140.791 81.279-140.791 81.282z" class="colorf1f3f9 svgShape"></path><path fill="url(#V)" d="m518.932 1112.144-140.782-81.282v306.711h140.782v-225.429z"></path><path fill="url(#W)" d="M1409.893 903.288v434.285h-217.682l217.682-434.285z"></path><path fill="url(#X)" d="M1409.893 903.288v434.285h217.681l-217.681-434.285z"></path><path fill="#f6f8fb" d="m655.09 176.622-9.051 5.225c-5.284 3.054-12.567-13.613-18.484-10.196l-15.865 9.16c-11.83 6.83-7.559-13.057-25.254-2.842-20.792 12.007-19.09 36.105-30.92 42.934l-15.865 9.16c-5.913 3.416-7.53 17.555-12.817 20.606l-9.052 5.229c-1.973 1.136-5.736 4.279-5.736 8.4 2.69-1.55 74.39-42.95 74.39-42.95l74.392-42.95c0-4.12-3.765-2.916-5.737-1.776Z" class="colorf6f6fb svgShape"></path><path d="M876.243 441.558c-5.731-3.31-13.354-4.835-20.837-4.612h-11.734v1.923a30.942 30.942 0 0 0-6.207 2.689c-10.67 6.205-10.61 16.26.128 22.465a31.175 31.175 0 0 0 6.079 2.633v2.009h14.073c6.77-.113 13.475-1.65 18.627-4.639 10.672-6.208 10.617-16.263-.129-22.468Z" style="mix-blend-mode:multiply" fill="url(#o)"></path><path fill="url(#Y)" d="M825.507 464.034c-5.406-3.124-8.109-7.219-8.096-11.31l.023-9.329c-.01 4.097 2.689 8.19 8.094 11.316 10.748 6.2 28.106 6.2 38.779.003 5.304-3.087 7.959-7.117 7.971-11.157l-.027 9.325c-.008 4.038-2.663 8.068-7.966 11.155-10.672 6.202-28.034 6.202-38.778-.003Z"></path><path fill="#ffffff" d="M825.528 454.71c-10.742-6.201-10.8-16.261-.13-22.463 10.676-6.203 28.044-6.203 38.784 0 10.746 6.202 10.797 16.262.125 22.467-10.673 6.196-28.031 6.196-38.779-.003Z" class="colorffffff svgShape"></path><path fill="#bdcdde" d="m858.924 442.201-20.291 1.032.63-4.562h-5.606l-1.523 8.316 26.79-1.55v-3.236z" class="colorbdc2de svgShape"></path><path d="M995.36 805.741c-5.732-3.31-13.354-4.834-20.838-4.611h-11.734v1.923a30.953 30.953 0 0 0-6.207 2.688c-10.67 6.206-10.61 16.26.129 22.466a31.174 31.174 0 0 0 6.078 2.633v2.008h14.074c6.77-.112 13.475-1.648 18.626-4.638 10.672-6.209 10.617-16.263-.128-22.469Z" style="mix-blend-mode:multiply" fill="url(#Z)"></path><path fill="url(#aa)" d="M944.623 828.217c-5.406-3.123-8.108-7.218-8.096-11.31l.023-9.328c-.01 4.097 2.689 8.19 8.095 11.315 10.747 6.2 28.105 6.2 38.778.004 5.304-3.088 7.96-7.117 7.971-11.157l-.026 9.325c-.01 4.038-2.664 8.067-7.966 11.155-10.673 6.201-28.035 6.201-38.779-.004Z"></path><path fill="#ffffff" d="M944.645 818.894c-10.742-6.201-10.801-16.261-.13-22.463 10.676-6.203 28.043-6.203 38.783 0 10.746 6.202 10.797 16.262.125 22.467-10.673 6.196-28.031 6.196-38.778-.004Z" class="colorffffff svgShape"></path><path fill="#bdcdde" d="m978.04 806.384-20.291 1.033.631-4.562h-5.607l-1.523 8.315 26.79-1.549v-3.237z" class="colorbdc2de svgShape"></path><path d="M246.234 1053.161c-9.658-5.574-22.498-8.142-35.105-7.768h-29.235v3.24a52.344 52.344 0 0 0-10.458 4.528c-17.979 10.456-17.875 27.4.217 37.853a52.61 52.61 0 0 0 10.241 4.436v3.386h33.174c11.407-.192 22.706-2.78 31.382-7.82 17.98-10.455 17.891-27.4-.216-37.855Z" style="mix-blend-mode:multiply" fill="url(#ab)"></path><path fill="url(#p)" d="M151.288 1073.372c-9.104-5.26-13.661-12.164-13.638-19.056l.04-8.83c-.018 6.901 4.526 13.802 13.637 19.062 18.105 10.45 47.353 10.45 65.335.005 8.938-5.198 13.409-11.989 13.43-18.795l-.043 8.824c-.02 6.806-4.49 13.597-13.424 18.794-17.982 10.453-47.234 10.453-65.337-.004Z"></path><path fill="url(#ac)" d="M151.288 1082.197c-9.104-5.26-13.661-12.163-13.638-19.056l.04-8.83c-.018 6.9 4.526 13.8 13.637 19.06 18.105 10.452 47.353 10.452 65.335.007 8.938-5.2 13.409-11.99 13.43-18.796l-.043 8.825c-.02 6.806-4.49 13.595-13.424 18.792-17.982 10.454-47.234 10.454-65.337-.002Z"></path><path fill="url(#ad)" d="M151.288 1091.02c-9.104-5.26-13.661-12.163-13.638-19.056l.04-8.83c-.018 6.902 4.526 13.803 13.637 19.063 18.105 10.45 47.353 10.45 65.335.005 8.938-5.2 13.409-11.989 13.43-18.795l-.043 8.823c-.02 6.806-4.49 13.597-13.424 18.795-17.982 10.453-47.234 10.453-65.337-.005Z"></path><path fill="#eff2f6" d="M151.327 1064.548c-18.098-10.449-18.198-27.399-.218-37.844 17.986-10.453 47.245-10.453 65.34 0 18.108 10.445 18.192 27.395.213 37.849-17.982 10.445-47.23 10.445-65.335-.005Z" class="coloreff2f6 svgShape"></path><path fill="#bbd0e6" d="m209.735 1042.165-36.995 1.883 1.146-8.315h-10.22l-2.776 15.156 48.845-2.819v-5.905z" class="colorbbc0e6 svgShape"></path><path fill="#7c3eaf" d="M1372.053 132.82a12.104 12.104 0 0 1 .916-4.89c-4.594-.505-7.837 2.81-7.837 8.887 0 7.989 5.61 17.703 12.526 21.698 5.26 3.035 9.754 1.884 11.608-2.347a12.152 12.152 0 0 1-4.692-1.65c-6.916-3.994-12.52-13.708-12.52-21.698Z" class="color423eaf svgShape"></path><path fill="url(#ae)" d="M1403.352 129.21c-10.369-17.956-27.176-27.673-37.553-21.681l-6.918 3.995c10.372-5.99 27.184 3.726 37.553 21.686 10.36 17.945 10.366 37.34.02 43.343l6.898-3.98c10.374-5.987 10.367-25.4 0-43.364Z"></path><path fill="#5a52cc" d="M1396.434 133.21c-10.369-17.96-27.181-27.676-37.553-21.686-10.374 5.985-10.374 25.4 0 43.363l18.775 32.52 18.778-10.838c10.369-5.985 10.366-25.398 0-43.36Zm-18.776 25.305c-6.916-3.995-12.526-13.71-12.526-21.698 0-7.993 5.61-11.23 12.526-7.237 6.916 3.994 12.524 13.71 12.524 21.702 0 7.986-5.608 11.225-12.524 7.233Z" class="color5652cc svgShape"></path><path d="M1425.575 172.078c-13.951 0-20.997.582-29.122 4.475l-18.797 10.853 47.082 9.064Z" style="mix-blend-mode:multiply" fill="url(#af)"></path><path style="mix-blend-mode:multiply" fill="url(#ag)" d="M1061.401 655.117h-23.219l-3.813 11.407h46.79l-19.758-11.407z"></path><path fill="url(#ah)" d="M962.788 664.2c2.646-9.67 7.29-5.959 7.29-5.959a35.118 35.118 0 0 0 7.652 1.127c5.07.326 10.203 4.283 3.153 9.33a3.058 3.058 0 0 1-.25.188 3.514 3.514 0 0 1-1.616.47l-10.945.428c-2.11.158-6.266-3.806-5.284-5.584Z"></path><path fill="#0c2340" d="M963.257 663.447c-.927 1.807 3.19 5.687 5.28 5.53l10.944-.426a10.998 10.998 0 0 0 2.099-.407c-.223.18-.431.356-.697.553a3.058 3.058 0 0 1-.25.19 3.514 3.514 0 0 1-1.616.469l-10.945.428c-1.97.145-5.832-3.179-5.417-5.21a2.539 2.539 0 0 1 .154-.371 8.001 8.001 0 0 1 .448-.756Z" class="color131147 svgShape"></path><path fill="#ffffff" d="M967.498 655.192a57.21 57.21 0 0 1 6.576 3.44 3.16 3.16 0 0 0 .068 1.55 1.61 1.61 0 0 1 .097.236c.856 1.057 1.597 2.562-1.416 3.405a3.687 3.687 0 0 1-4.488-1.674 4.36 4.36 0 0 0-.984-2.112 3.909 3.909 0 0 0-1.242-1.016 1.04 1.04 0 0 0 .028-.134s.714-3.885 1.361-3.695Z" class="colorffffff svgShape"></path><path fill="url(#ai)" d="M979.18 555.181c-.39 16.819 1.814 41.297 2.478 57.96-8.173 13.701-11.83 29.64-14.78 42.736.328 2.81 5.277 5.339 7.188 3.075 7.238-13.035 19.647-28.2 23.558-44.027 3.091-17.984 7.05-40.674 9.353-59.245-6.177-.112-21.616-.386-27.797-.499Z"></path><path fill="url(#aj)" d="M1026.53 662.666c0-9.861 6.256-10.146 6.256-10.146s3.382 0 8.886-2.282c5.425-2.254 13.074-1.388 8.8 6.5a1.954 1.954 0 0 1-.152.293 3.803 3.803 0 0 1-1.384 1.218l-13.659 8.011c-2.084 1.189-8.697-1.561-8.748-3.594Z"></path><path fill="#0c2340" d="M1026.567 661.784c.117 2.028 6.644 4.723 8.71 3.543l13.66-8.012a12.425 12.425 0 0 0 1.926-1.408c-.127.275-.234.543-.39.831a1.954 1.954 0 0 1-.153.293 3.803 3.803 0 0 1-1.384 1.218l-13.659 8.011c-1.948 1.112-7.878-1.226-8.658-3.195a2.028 2.028 0 0 1-.062-.403 6.06 6.06 0 0 1 .01-.878Z" class="color131147 svgShape"></path><path fill="#ffffff" d="M1029.071 651.222a57.518 57.518 0 0 1 7.28 1.438 3.204 3.204 0 0 0 .505 1.469c.057.063.103.127.157.19 1.12.777 2.26 2.012-.395 3.675a3.682 3.682 0 0 1-4.778-.34 4.39 4.39 0 0 0-1.54-1.747 3.929 3.929 0 0 0-1.48-.624.528.528 0 0 0-.012-.132s-.407-3.929.263-3.929Z" class="colorffffff svgShape"></path><path fill="url(#ak)" d="M1022.47 572.955c-6.113.895-37.466-14.878-43.578-13.978 1.362 29.188 20.933 38.292 46.23 51.774 0 0 .677 29.988 3.563 42.419 1.523 2.389 7.078 2.508 7.81-.357.844-14.89 4.988-27.61 4.99-45.4.001-11.767-8.05-21.553-19.015-34.458Z"></path><path fill="#7c3eaf" d="M987.546 509.246c-1.257-6.88-.452-31.118.761-37.23 1.214-6.112 12.968-33.432 12.968-33.432 2.128 1.396 6.052 3.658 6.052 3.658-1.332 3.78-9.426 27.387-10.091 32.175-.665 4.789-.926 22.628.847 24.757 1.774 2.128-10.537 10.072-10.537 10.072Z" class="color423eaf svgShape"></path><path fill="url(#al)" d="M1050.78 466.719c-1.73 5.139-8.085 21.18-12.913 29.275-2.338 3.92-8.97 8.817-13.73 11.708a5.097 5.097 0 0 1-5.74-.313c-1.483-1.127-3.159-2.56-4.932-4.178-4.265-3.891-7.144-7.594-9.338-8.043-18.106-3.694-19.7 26.885-25.386 62.956 1.4 9.149 6.734 14.988 13.254 18.646 13.235 7.428 27.09 7.444 31.813-1.69-1.767-17.007-3.422-30.849-.013-47.143 9.724-6.035 18.602-15.472 23.15-25.204 5.653-12.094 9.934-29.97 10.553-33.169 0 0-2.837-1.242-6.718-2.845Z"></path><path fill="#a9d2fc" d="M993.12 498.596c3.34-3.506 4.071-9.004 3.943-12.91a19.097 19.097 0 0 1-.388-6.758c1.015-8.544 7.335-15.275 13.947-14.02 13.321 2.521 10.09 9.302 9.074 17.842-.942 7.914-5.178 12.933-11.29 13.138a6.419 6.419 0 0 0 2.74 5.113c-3.86 3.414-10.43 3.364-13.145 2.698-2.892-.71-6.346-2.89-4.882-5.103Z" class="colorfcd1a9 svgShape"></path><path fill="#112a49" d="M1016.195 460.99c-.268-1.085-2.276-1.893-9.388.436-.044.02-1.725.576-1.832.617-13.186 4.919-10.828 19.956-9.102 24.009a7.973 7.973 0 0 1 .774 4.733c5.085.053 6.54 2.987 9.934.308 2.432-1.915 6.04-4.126 6.678-5.094a3.958 3.958 0 0 0 .6-2.438c.38-7.132 3.452-2.605 3.256-.976 1.383-.585 1.442-3.458 1.512-6.648 11.37-7.615 5.78-13.549-2.432-14.947Z" class="color121149 svgShape"></path><path fill="#a9d2fc" d="M1051.46 467.001c.407-.949.725-2.811 0-3.809-.723-.997-1.189-5.653 1.538-6.052 0-.865 2.195-2.683 5.01-.621s3.437 5.01 2.439 6.74c-.998 1.729-3.17 4.517-3.614 6.016-.963-.414-5.372-2.274-5.372-2.274ZM1001.886 438.977c.543-1.347-.256-5.426.897-7.2s2.838-3.458 5.232-2.039c2.395 1.419 3.104 3.033 2.75 4.354a2.83 2.83 0 0 1-.982 4.07c-1.945 1.242-2.577 1.913-3.215 3.639a758.392 758.392 0 0 1-4.682-2.824Z" class="colorfcd1a9 svgShape"></path><path fill="url(#am)" d="M1044.633 507.038c-4.456 6.342-17.647 16.456-21.498 17.397-3.857.943-6.65 3.205-6.518 4.003.133.798 2.34 5.72 1.503 11.839-.837 6.11-2.238 32.156 5.084 35.782.206-.321.424-.63.604-.978-1.767-17.008-3.422-30.85-.013-47.144a65.077 65.077 0 0 0 20.838-20.9Z"></path></g></g></g></svg>