<svg xmlns="http://www.w3.org/2000/svg" xmlns:xlink="http://www.w3.org/1999/xlink" viewBox="0 0 2009.976 1490.282" id="Successpath"><defs><linearGradient id="e" x1="626.225" x2="626.225" y1="662.219" y2="201.429" gradientUnits="userSpaceOnUse"><stop offset=".247" stop-color="#ffffff" class="stopColorffffff svgShape"></stop><stop offset=".516" stop-color="#f8fafd" class="stopColorf8f9fd svgShape"></stop><stop offset=".905" stop-color="#e5edf6" class="stopColore5e9f6 svgShape"></stop><stop offset="1" stop-color="#dfe9f4" class="stopColordfe4f4 svgShape"></stop></linearGradient><linearGradient id="f" x1="469.836" x2="469.836" y1="662.219" y2="201.429" gradientUnits="userSpaceOnUse"><stop offset=".247" stop-color="#ffffff" class="stopColorffffff svgShape"></stop><stop offset=".641" stop-color="#f6f9fc" class="stopColorf6f7fc svgShape"></stop><stop offset="1" stop-color="#e9f0f7" class="stopColore9edf7 svgShape"></stop></linearGradient><linearGradient id="l" x1="768.767" x2="837.884" y1="466.62" y2="466.62" gradientUnits="userSpaceOnUse"><stop offset="0" stop-color="#48196f" class="stopColor20196f svgShape"></stop><stop offset=".049" stop-color="#502078" class="stopColor262078 svgShape"></stop><stop offset=".372" stop-color="#6822a2" class="stopColor4d47b0 svgShape"></stop><stop offset=".649" stop-color="#6c65d9" class="stopColor6965d9 svgShape"></stop><stop offset=".868" stop-color="#7e76f2" class="stopColor7a76f2 svgShape"></stop><stop offset="1" stop-color="#857dfb" class="stopColor807dfb svgShape"></stop></linearGradient><linearGradient id="m" x1="767.156" x2="801.716" y1="471.879" y2="531.737" gradientUnits="userSpaceOnUse"><stop offset="0" stop-color="#7c3eaf" class="stopColor423eaf svgShape"></stop><stop offset=".249" stop-color="#7873c5" class="stopColor7573c5 svgShape"></stop><stop offset=".609" stop-color="#b9cde2" class="stopColorbab9e2 svgShape"></stop><stop offset=".869" stop-color="#e5ecf4" class="stopColore5e5f4 svgShape"></stop><stop offset="1" stop-color="#f6f8fb" class="stopColorf6f6fb svgShape"></stop></linearGradient><linearGradient id="n" x1="752.86" x2="790.605" y1="320.592" y2="320.592" gradientUnits="userSpaceOnUse"><stop offset="0" stop-color="#dae7f5" class="stopColordae0f5 svgShape"></stop><stop offset=".611" stop-color="#f4f8fc" class="stopColorf4f6fc svgShape"></stop><stop offset="1" stop-color="#ffffff" class="stopColorffffff svgShape"></stop></linearGradient><linearGradient id="o" x1="752.86" x2="810.031" y1="235.056" y2="235.056" gradientUnits="userSpaceOnUse"><stop offset="0" stop-color="#e33cc5" class="stopColore33c5c svgShape"></stop><stop offset=".009" stop-color="#e33dc5" class="stopColore33d5c svgShape"></stop><stop offset=".438" stop-color="#f262d8" class="stopColorf26264 svgShape"></stop><stop offset=".783" stop-color="#fc68e1" class="stopColorfc7a68 svgShape"></stop><stop offset="1" stop-color="#ff6ae4" class="stopColorff826a svgShape"></stop></linearGradient><linearGradient id="p" x1="749.455" x2="756.265" y1="278.785" y2="278.785" gradientUnits="userSpaceOnUse"><stop offset="0" stop-color="#6f67e9" class="stopColor6b67e9 svgShape"></stop><stop offset="1" stop-color="#48196f" class="stopColor20196f svgShape"></stop></linearGradient><linearGradient id="a" x1="1205.957" x2="1315.926" y1="1092.393" y2="1282.866" gradientUnits="userSpaceOnUse"><stop offset=".438" stop-color="#5a52cc" class="stopColor5652cc svgShape"></stop><stop offset=".501" stop-color="#5f58ce" class="stopColor5c58ce svgShape"></stop><stop offset=".589" stop-color="#726bd3" class="stopColor6e6bd3 svgShape"></stop><stop offset=".691" stop-color="#8e89dc" class="stopColor8b89dc svgShape"></stop><stop offset=".805" stop-color="#b2cde8" class="stopColorb4b2e8 svgShape"></stop><stop offset=".927" stop-color="#e7eff8" class="stopColore7e7f8 svgShape"></stop><stop offset=".977" stop-color="#ffffff" class="stopColorffffff svgShape"></stop></linearGradient><linearGradient id="q" x1="852.183" x2="936.296" y1="938.702" y2="1084.389" xlink:href="#a"></linearGradient><linearGradient id="r" x1="952.77" x2="1062.743" y1="1178.452" y2="987.974" gradientUnits="userSpaceOnUse"><stop offset=".023" stop-color="#ffffff" class="stopColorffffff svgShape"></stop><stop offset=".121" stop-color="#ddedfe" class="stopColordeddfe svgShape"></stop><stop offset=".257" stop-color="#b4d8fd" class="stopColorb5b4fd svgShape"></stop><stop offset=".38" stop-color="#9c96fc" class="stopColor9896fc svgShape"></stop><stop offset=".486" stop-color="#8b83fb" class="stopColor8683fb svgShape"></stop><stop offset=".562" stop-color="#857dfb" class="stopColor807dfb svgShape"></stop></linearGradient><linearGradient id="s" x1="1170.747" x2="1286.156" y1="695.071" y2="894.964" xlink:href="#a"></linearGradient><linearGradient id="b" x1="825.851" x2="884.119" y1="555.07" y2="555.07" gradientUnits="userSpaceOnUse"><stop offset=".427" stop-color="#c4d4e4" class="stopColorc4c9e4 svgShape"></stop><stop offset=".577" stop-color="#d7e2ed" class="stopColord7daed svgShape"></stop><stop offset=".846" stop-color="#f4f6f8" class="stopColorf4f5fa svgShape"></stop><stop offset="1" stop-color="#ffffff" class="stopColorffffff svgShape"></stop></linearGradient><linearGradient id="c" x1="813.005" x2="871.303" y1="558.52" y2="558.52" gradientUnits="userSpaceOnUse"><stop offset="0" stop-color="#ff6ae4" class="stopColorff826a svgShape"></stop><stop offset=".413" stop-color="#f15ed6" class="stopColorf15e63 svgShape"></stop><stop offset=".778" stop-color="#e745ca" class="stopColore7455e svgShape"></stop><stop offset="1" stop-color="#e33cc5" class="stopColore33c5c svgShape"></stop></linearGradient><linearGradient id="t" x1="1347.353" x2="1405.621" y1="855.439" y2="855.439" xlink:href="#b"></linearGradient><linearGradient id="u" x1="1334.507" x2="1392.805" y1="858.89" y2="858.89" xlink:href="#c"></linearGradient><linearGradient id="v" x1="851.544" x2="909.813" y1="819.095" y2="819.095" xlink:href="#b"></linearGradient><linearGradient id="w" x1="838.698" x2="896.997" y1="822.545" y2="822.545" xlink:href="#c"></linearGradient><linearGradient id="x" x1="1442.861" x2="1509.423" y1="429.842" y2="429.842" gradientUnits="userSpaceOnUse"><stop offset=".427" stop-color="#c2d4e7" class="stopColorc2c8e7 svgShape"></stop><stop offset=".559" stop-color="#c9d9ea" class="stopColorc9ceea svgShape"></stop><stop offset=".745" stop-color="#dbe6f1" class="stopColordbdef1 svgShape"></stop><stop offset=".961" stop-color="#f9fbfd" class="stopColorf9f9fd svgShape"></stop><stop offset="1" stop-color="#ffffff" class="stopColorffffff svgShape"></stop></linearGradient><linearGradient id="y" x1="1466.252" x2="1499.523" y1="423.893" y2="423.893" gradientUnits="userSpaceOnUse"><stop offset="0" stop-color="#c2d4e7" class="stopColorc2c8e7 svgShape"></stop><stop offset=".916" stop-color="#ffffff" class="stopColorffffff svgShape"></stop></linearGradient><linearGradient id="z" x1="1432.967" x2="1499.532" y1="436.207" y2="436.207" gradientUnits="userSpaceOnUse"><stop offset="0" stop-color="#857df9" class="stopColor807df9 svgShape"></stop><stop offset="1" stop-color="#652e92" class="stopColor362e92 svgShape"></stop></linearGradient><linearGradient id="A" x1="1466.252" x2="1482.767" y1="416.856" y2="416.856" gradientUnits="userSpaceOnUse"><stop offset="0" stop-color="#c2d4e7" class="stopColorc2c8e7 svgShape"></stop><stop offset="1" stop-color="#ffffff" class="stopColorffffff svgShape"></stop></linearGradient><linearGradient id="d" x1="1449.715" x2="1482.786" y1="424.889" y2="424.889" gradientUnits="userSpaceOnUse"><stop offset="0" stop-color="#ff6ae4" class="stopColorff826a svgShape"></stop><stop offset=".116" stop-color="#f567db" class="stopColorf57767 svgShape"></stop><stop offset=".708" stop-color="#c845b0" class="stopColorc84557 svgShape"></stop><stop offset="1" stop-color="#a50b89" class="stopColorb73251 svgShape"></stop></linearGradient><linearGradient id="B" x1="1457.982" x2="1474.516" y1="404.162" y2="404.162" xlink:href="#d"></linearGradient><linearGradient id="C" x1="1457.982" x2="1474.516" y1="392.303" y2="392.303" gradientUnits="userSpaceOnUse"><stop offset="0" stop-color="#ffffff" class="stopColorffffff svgShape"></stop><stop offset=".14" stop-color="#fbfcfe" class="stopColorfbfcfe svgShape"></stop><stop offset="1" stop-color="#e8eff7" class="stopColore8ecf7 svgShape"></stop></linearGradient><linearGradient id="D" x1="1395.295" x2="1537.204" y1="339.782" y2="339.782" gradientUnits="userSpaceOnUse"><stop offset="0" stop-color="#ff6ae4" class="stopColorff826a svgShape"></stop><stop offset=".007" stop-color="#ff6ae4" class="stopColorff816a svgShape"></stop><stop offset=".672" stop-color="#eb4fcf" class="stopColoreb4f60 svgShape"></stop><stop offset="1" stop-color="#e33cc5" class="stopColore33c5c svgShape"></stop></linearGradient><linearGradient id="E" x1="1400.962" x2="1531.539" y1="288.116" y2="288.116" gradientUnits="userSpaceOnUse"><stop offset="0" stop-color="#e33cc5" class="stopColore33c5c svgShape"></stop><stop offset=".213" stop-color="#e644c9" class="stopColore6445e svgShape"></stop><stop offset=".536" stop-color="#ee59d3" class="stopColoree5962 svgShape"></stop><stop offset=".927" stop-color="#fc69e1" class="stopColorfc7b69 svgShape"></stop><stop offset="1" stop-color="#ff6ae4" class="stopColorff826a svgShape"></stop></linearGradient><linearGradient id="F" x1="1791.189" x2="1791.189" y1="1687.049" y2="1105.885" xlink:href="#e"></linearGradient><linearGradient id="G" x1="1633.086" x2="1633.086" y1="1687.048" y2="1105.884" xlink:href="#f"></linearGradient><linearGradient id="H" x1="324.729" x2="324.729" y1="1546.361" y2="1166.715" xlink:href="#e"></linearGradient><linearGradient id="I" x1="208.172" x2="208.172" y1="1546.361" y2="1166.715" xlink:href="#f"></linearGradient><linearGradient id="g" x1="662.868" x2="715.831" y1="947.703" y2="947.703" gradientUnits="userSpaceOnUse"><stop offset="0" stop-color="#c4d3e2" class="stopColorc4c8e2 svgShape"></stop><stop offset=".145" stop-color="#d7e1eb" class="stopColord7daeb svgShape"></stop><stop offset=".406" stop-color="#f4f6f8" class="stopColorf4f5fa svgShape"></stop><stop offset=".555" stop-color="#ffffff" class="stopColorffffff svgShape"></stop></linearGradient><linearGradient id="h" x1="626.573" x2="686.453" y1="918.393" y2="883.821" gradientUnits="userSpaceOnUse"><stop offset="0" stop-color="#6f67e9" class="stopColor6b67e9 svgShape"></stop><stop offset=".388" stop-color="#4c45b4" class="stopColor4b45b4 svgShape"></stop><stop offset=".797" stop-color="#582582" class="stopColor2c2582 svgShape"></stop><stop offset="1" stop-color="#48196f" class="stopColor20196f svgShape"></stop></linearGradient><linearGradient id="i" x1="631.06" x2="683.538" y1="895.615" y2="865.316" gradientUnits="userSpaceOnUse"><stop offset="0" stop-color="#6f67e9" class="stopColor6b67e9 svgShape"></stop><stop offset=".684" stop-color="#652f92" class="stopColor362f92 svgShape"></stop><stop offset="1" stop-color="#48196f" class="stopColor20196f svgShape"></stop></linearGradient><linearGradient id="j" x1="634.53" x2="691.206" y1="856.513" y2="856.513" gradientUnits="userSpaceOnUse"><stop offset="0" stop-color="#857dfb" class="stopColor807dfb svgShape"></stop><stop offset=".348" stop-color="#6861d6" class="stopColor6561d6 svgShape"></stop><stop offset="1" stop-color="#662e94" class="stopColor362e94 svgShape"></stop></linearGradient><linearGradient id="J" x1="725.855" x2="778.818" y1="984.068" y2="984.068" xlink:href="#g"></linearGradient><linearGradient id="K" x1="689.559" x2="749.44" y1="954.757" y2="920.185" xlink:href="#h"></linearGradient><linearGradient id="L" x1="694.047" x2="746.525" y1="931.979" y2="901.681" xlink:href="#i"></linearGradient><linearGradient id="M" x1="697.516" x2="754.192" y1="892.877" y2="892.877" xlink:href="#j"></linearGradient><linearGradient id="N" x1="672.505" x2="672.505" y1="978.427" y2="954.993" gradientUnits="userSpaceOnUse"><stop offset="0" stop-color="#ff5ae1" class="stopColorff5a72 svgShape"></stop><stop offset="1" stop-color="#6db6ff" class="stopColorffaf6d svgShape"></stop></linearGradient><linearGradient id="O" x1="647.828" x2="664.985" y1="966.71" y2="966.71" gradientUnits="userSpaceOnUse"><stop offset="0" stop-color="#6db6ff" class="stopColorffaf6d svgShape"></stop><stop offset="1" stop-color="#e33cc5" class="stopColore33c5c svgShape"></stop></linearGradient><linearGradient id="k" x1="658.999" x2="658.999" y1="978.427" y2="966.716" gradientUnits="userSpaceOnUse"><stop offset="0" stop-color="#ff6ae4" class="stopColorff826a svgShape"></stop><stop offset="1" stop-color="#6db6ff" class="stopColorffaf6d svgShape"></stop></linearGradient><linearGradient id="P" x1="783.059" x2="783.059" y1="973.801" y2="952.828" gradientUnits="userSpaceOnUse"><stop offset="0" stop-color="#e33cc5" class="stopColore33c5c svgShape"></stop><stop offset="1" stop-color="#6db6ff" class="stopColorffaf6d svgShape"></stop></linearGradient><linearGradient id="Q" x1="770.973" x2="770.973" y1="973.801" y2="963.32" xlink:href="#k"></linearGradient><linearGradient id="R" x1="1320.688" x2="1354.055" y1="565.258" y2="565.258" gradientUnits="userSpaceOnUse"><stop offset="0" stop-color="#c4d6e9" class="stopColorc4cae9 svgShape"></stop><stop offset=".095" stop-color="#cedded" class="stopColorced3ed svgShape"></stop><stop offset=".409" stop-color="#e9f0f7" class="stopColore9ebf7 svgShape"></stop><stop offset=".687" stop-color="#f9fbfd" class="stopColorf9fafd svgShape"></stop><stop offset=".899" stop-color="#ffffff" class="stopColorffffff svgShape"></stop></linearGradient><linearGradient id="S" x1="621.284" x2="637.937" y1="617.043" y2="617.043" gradientTransform="matrix(-.7274 -.4192 -.4993 .8664 2043.17 297.144)" gradientUnits="userSpaceOnUse"><stop offset="0" stop-color="#48196f" class="stopColor20196f svgShape"></stop><stop offset=".304" stop-color="#54227e" class="stopColor28227e svgShape"></stop><stop offset=".891" stop-color="#7539a7" class="stopColor3e39a7 svgShape"></stop><stop offset="1" stop-color="#7c3eaf" class="stopColor423eaf svgShape"></stop></linearGradient><linearGradient id="T" x1="1272.559" x2="1316.342" y1="527.236" y2="527.236" gradientUnits="userSpaceOnUse"><stop offset="0" stop-color="#48196f" class="stopColor20196f svgShape"></stop><stop offset=".112" stop-color="#441869" class="stopColor1e1869 svgShape"></stop><stop offset=".664" stop-color="#501350" class="stopColor161350 svgShape"></stop><stop offset="1" stop-color="#471147" class="stopColor131147 svgShape"></stop></linearGradient><linearGradient id="U" x1="616.307" x2="634.27" y1="563.141" y2="563.141" gradientTransform="matrix(-1 0 0 1 1949.367 0)" gradientUnits="userSpaceOnUse"><stop offset="0" stop-color="#48196f" class="stopColor20196f svgShape"></stop><stop offset=".481" stop-color="#54227e" class="stopColor29227e svgShape"></stop><stop offset="1" stop-color="#662e94" class="stopColor362e94 svgShape"></stop></linearGradient><linearGradient id="V" x1="1281.125" x2="1325.762" y1="526.842" y2="526.842" gradientUnits="userSpaceOnUse"><stop offset="0" stop-color="#662e94" class="stopColor362e94 svgShape"></stop><stop offset=".631" stop-color="#411b60" class="stopColor1f1b60 svgShape"></stop><stop offset="1" stop-color="#471147" class="stopColor131147 svgShape"></stop></linearGradient><linearGradient id="W" x1="1281.018" x2="1337.182" y1="467.998" y2="467.998" gradientUnits="userSpaceOnUse"><stop offset="0" stop-color="#857dfb" class="stopColor807dfb svgShape"></stop><stop offset=".393" stop-color="#776fec" class="stopColor726fec svgShape"></stop><stop offset="1" stop-color="#5a52cc" class="stopColor5652cc svgShape"></stop></linearGradient><linearGradient id="X" x1="1305.972" x2="1323.325" y1="500.404" y2="451.674" gradientUnits="userSpaceOnUse"><stop offset="0" stop-color="#6f67e9" class="stopColor6b67e9 svgShape"></stop><stop offset=".266" stop-color="#5046e4" class="stopColor5d59d6 svgShape"></stop><stop offset=".731" stop-color="#4c45ba" class="stopColor4945ba svgShape"></stop><stop offset="1" stop-color="#7c3eaf" class="stopColor423eaf svgShape"></stop></linearGradient></defs><g style="isolation:isolate" fill="#010001" class="color000000 svgShape"><g fill="#010001" class="color000000 svgShape"><g fill="#010001" class="color000000 svgShape"><path fill="url(#e)" d="m548.029 662.219 156.393-90.291V201.429L548.029 291.72v370.499z"></path><path fill="url(#f)" d="m548.029 662.219-156.387-90.291V201.429l156.387 90.291v370.499z"></path><path fill="#f4f6f8" d="m548.029 291.72-156.387-90.291 156.384-90.291 156.396 90.291-156.393 90.291z" class="colorf1f3f9 svgShape"></path><path fill="#5a52cc" d="m850.571 376.131-97.711 56.413v127.4l12.686 5.873 72.338-41.765 12.687-20.521v-127.4z" class="color5652cc svgShape"></path><path fill="#857dfb" d="m752.86 432.544-97.71-56.413v127.4l97.71 56.413v-127.4z" class="color807dfb svgShape"></path><path fill="url(#l)" d="M801.715 427.326c-14.671 8.47-27.274 25.852-32.948 43.623l69.117 39.905v-62.647c0-23.065-16.193-32.414-36.169-20.881Z"></path><path fill="url(#m)" d="M765.546 489.972v62.647l72.338-41.765-69.117-39.905a63.247 63.247 0 0 0-3.22 19.023Z"></path><path fill="#f6f8fb" d="m850.571 376.131-97.711-56.413-97.71 56.412 97.711 56.414 97.71-56.413z" class="colorf6f6fb svgShape"></path><path fill="#6db6ff" d="m794.753 319.718-41.893-24.187-41.892 24.187 41.893 24.186 41.892-24.186z" class="colorffaf6d svgShape"></path><path fill="#ff6ae4" d="m655.15 376.13 55.818-56.412 41.893 24.186v88.64L655.15 376.13z" class="colorff826a svgShape"></path><path fill="#e33cc5" d="m850.571 376.13-55.818-56.412-41.892 24.186-.001 88.64 97.711-56.414z" class="colore33c5c svgShape"></path><path style="mix-blend-mode:multiply" fill="#d1e2f3" d="m728.831 461.561-3.939-8.698-37.835-15.421v54.468l41.774 24.118v-54.467z" class="colord1d7f3 svgShape"></path><path fill="#cee3f8" d="m720.895 455.171-41.775-24.119v54.468l41.775 24.118v-54.467z" class="colorced3f8 svgShape"></path><path fill="#857dfb" d="m709.205 463.663-18.396-10.621v23.986l18.396 10.621v-23.986z" class="color807dfb svgShape"></path><path fill="#bbd0e6" d="m720.895 455.171 3.997-2.308v54.467l-3.997 2.308v-54.467z" class="colorbbc0e6 svgShape"></path><path fill="#f6f8fb" d="m679.12 431.052 3.998-2.308 41.774 24.119-3.997 2.308-41.775-24.119z" class="colorf6f6fb svgShape"></path><path d="M752.86 322.55h37.462a6.964 6.964 0 0 0 .005-3.916H752.86Z" style="mix-blend-mode:multiply" fill="url(#n)"></path><path fill="url(#o)" d="M752.86 238.179c9.028-9.027 21.227-4.752 29.587-10.136 8.117-5.228 10.966-14.908 27.584-18.25-9.562 5.94-14.903 21.09-26.47 32.657-9.85 9.85-22.876 7.966-30.7 17.87Z"></path><path fill="url(#p)" d="M749.455 235.022v85.56a1.69 1.69 0 0 0 .997 1.391 5.321 5.321 0 0 0 4.816 0 1.69 1.69 0 0 0 .997-1.39v-85.561Z"></path><path fill="#857dfb" d="M755.268 233.631a5.325 5.325 0 0 0-4.816 0 1.468 1.468 0 0 0 0 2.782 5.325 5.325 0 0 0 4.816 0 1.468 1.468 0 0 0 0-2.782Z" class="color807dfb svgShape"></path><path fill="#bbd0e6" d="m1441.79 872.723-72.34 41.761v-13.197l72.342-41.762-.002 13.198z" class="colorbbc0e6 svgShape"></path><path fill="#cee3f8" d="m765.548 565.817 531.563 306.9v-13.196L765.546 552.619l.002 13.198z" class="colorced3f8 svgShape"></path><path fill="#f6f8fb" d="M1369.45 901.287 765.546 552.619l72.338-41.765 603.908 348.671-72.342 41.762z" class="colorf6f6fb svgShape"></path><path fill="#cee3f8" d="m1297.116 1026.577-72.342-41.768-.001-9.28 72.343 41.764v9.284z" class="colorced3f8 svgShape"></path><path fill="#f6f8fb" d="m1297.116 1017.293-72.342-41.764 8.037-4.641 72.34 41.765-8.035 4.64z" class="colorf6f6fb svgShape"></path><path fill="#cee3f8" d="m1305.151 1012.653-72.338-41.765-.002-9.28 72.34 41.766v9.279z" class="colorced3f8 svgShape"></path><path fill="#f6f8fb" d="m1305.151 1003.374-72.338-41.766 8.035-4.642 72.342 41.768-8.039 4.64z" class="colorf6f6fb svgShape"></path><path fill="#cee3f8" d="m1313.19 998.734-72.34-41.768-.002-9.28 72.342 41.768v9.28z" class="colorced3f8 svgShape"></path><path fill="#f6f8fb" d="m1313.19 989.454-72.34-41.768 8.035-4.64 72.342 41.764-8.037 4.644z" class="colorf6f6fb svgShape"></path><path fill="#cee3f8" d="m1321.227 984.81-72.34-41.764-.002-9.281 72.342 41.767v9.278z" class="colorced3f8 svgShape"></path><path fill="#f6f8fb" d="m1321.227 975.532-72.34-41.767 8.035-4.638 72.343 41.764-8.038 4.641z" class="colorf6f6fb svgShape"></path><path fill="#cee3f8" d="m1329.265 970.891-72.341-41.764-.002-9.28 72.343 41.764v9.28z" class="colorced3f8 svgShape"></path><path fill="#f6f8fb" d="m1329.265 961.611-72.341-41.764 8.037-4.644 72.34 41.767-8.036 4.641z" class="colorf6f6fb svgShape"></path><path fill="#cee3f8" d="m1337.301 956.97-72.338-41.767-.002-9.279 72.34 41.765v9.281z" class="colorced3f8 svgShape"></path><path fill="#f6f8fb" d="m1337.301 947.689-72.338-41.765 8.035-4.64 72.341 41.765-8.038 4.64z" class="colorf6f6fb svgShape"></path><path fill="#cee3f8" d="M1345.339 943.049 1273 901.284l-.002-9.28 72.341 41.765v9.28z" class="colorced3f8 svgShape"></path><path fill="#f6f8fb" d="M1345.339 933.769 1273 892.004l8.035-4.64 72.342 41.766-8.038 4.639z" class="colorf6f6fb svgShape"></path><path fill="#cee3f8" d="m1353.377 929.13-72.34-41.766-.002-9.282 72.342 41.765v9.283z" class="colorced3f8 svgShape"></path><path fill="#f6f8fb" d="m1353.377 919.847-72.34-41.765 8.035-4.637 72.341 41.765-8.036 4.637z" class="colorf6f6fb svgShape"></path><path fill="#cee3f8" d="m1361.413 915.21-72.339-41.765-.002-9.284 72.341 41.767v9.282z" class="colorced3f8 svgShape"></path><path fill="#f6f8fb" d="m1361.413 905.928-72.339-41.767 8.037-4.64 72.339 41.766-8.037 4.641z" class="colorf6f6fb svgShape"></path><path fill="#bbd0e6" d="M1369.45 914.484v-13.203l-8.037 4.64v9.279l-8.036 4.643v9.281l-8.038 4.64v9.282l-8.038 4.64v9.28l-8.036 4.64v9.285l-8.038 4.638v9.281l-8.039 4.641v9.28l-8.037 4.64v9.282l-8.035 4.64v9.284l11.443-6.618 60.891-105.475z" class="colorbbc0e6 svgShape"></path><path fill="#cee3f8" d="m1354.474 468.37-39.477-22.793v-13.199l39.477 22.793v13.199z" class="colorced3f8 svgShape"></path><path fill="#f6f8fb" d="m1466.294 519.728-151.3-87.352 151.296-87.353 151.308 87.359-151.304 87.346z" class="colorf6f6fb svgShape"></path><path fill="#cee3f8" d="m1466.294 532.928-39.477-22.793v-13.2l39.477 22.793v13.2z" class="colorced3f8 svgShape"></path><path fill="#bbd0e6" d="m1617.598 445.581-151.304 87.347v-13.2l151.304-87.346v13.199z" class="colorbbc0e6 svgShape"></path><path fill="#cee3f8" d="m1394.667 552.621-72.341-41.768-.002-9.281 72.343 41.765v9.284z" class="colorced3f8 svgShape"></path><path fill="#f6f8fb" d="m1394.667 543.337-72.341-41.765 8.037-4.64 72.339 41.765-8.035 4.64z" class="colorf6f6fb svgShape"></path><path fill="#cee3f8" d="m1402.702 538.697-72.338-41.765-.001-9.28 72.339 41.766v9.279z" class="colorced3f8 svgShape"></path><path fill="#f6f8fb" d="m1402.702 529.418-72.338-41.766 8.036-4.642 72.341 41.768-8.039 4.64z" class="colorf6f6fb svgShape"></path><path fill="#cee3f8" d="m1410.741 524.778-72.34-41.768-.001-9.28 72.341 41.768v9.28z" class="colorced3f8 svgShape"></path><path fill="#f6f8fb" d="m1410.741 515.498-72.34-41.768 8.036-4.64 72.341 41.764-8.037 4.644z" class="colorf6f6fb svgShape"></path><path fill="#cee3f8" d="m1418.778 510.854-72.34-41.764-.001-9.281 72.341 41.767v9.278z" class="colorced3f8 svgShape"></path><path fill="#f6f8fb" d="m1418.778 501.576-72.34-41.767 8.036-4.638 72.343 41.764-8.039 4.641z" class="colorf6f6fb svgShape"></path><path fill="#bbd0e6" d="m1426.817 496.935-8.039 4.637v9.282l-8.039 4.64v9.281l-8.037 4.64v9.282l-8.035 4.64v9.284l11.443-6.619 20.707-35.867v-13.2z" class="colorbbc0e6 svgShape"></path><path fill="url(#a)" d="m1297.107 1293.725-72.333 41.767v-253.957l72.335-41.769-.002 253.959z"></path><path fill="#bbd0e6" d="m1297.109 1039.766-72.333 41.767v-13.196l83.784-48.38-11.451 19.809z" class="colorbbc0e6 svgShape"></path><path fill="#cee3f8" d="M1224.773 1081.535 790.736 830.946V817.75l434.038 250.589-.001 13.196z" class="colorced3f8 svgShape"></path><path fill="#f6f8fb" d="M1224.774 1068.339 790.74 817.753l72.338-41.765 434.038 250.589-72.342 41.762z" class="colorf6f6fb svgShape"></path><path fill="url(#q)" d="M863.082 932.41v68.65l-.007-.007v125.607l72.34-41.762v-71.064c.002-28.902 6.361-52.417 17.549-69.67Z"></path><path fill="url(#r)" d="m790.74 830.933.002 253.96 72.333 41.767v-71.064c.003-92.26 64.778-129.655 144.681-83.523 79.906 46.133 144.682 158.328 144.682 250.595l.002 71.058 72.333 41.767v-253.958Z"></path><path fill="#857dfb" d="m1249.99 748.788 72.342 41.766v-54.618l-.008.007v-68.65l-89.881 11.755c11.188 17.252 17.547 40.768 17.548 69.67Z" class="color807dfb svgShape"></path><path fill="#f6f8fb" d="m935.417 817.753-72.339-41.765 459.246-265.135 72.343 41.768-459.25 265.132z" class="colorf6f6fb svgShape"></path><path fill="#bbd0e6" d="m946.847 824.351 447.82-258.534 11.443-19.815-470.693 271.751 11.43 6.598z" class="colorbbc0e6 svgShape"></path><path fill="url(#s)" d="m1177.65 691.118-97.551 56.288-133.259 76.942 44.295 25.573c24.54-36.293 55.417-67.308 88.964-86.676l97.551-56.288c79.904-46.133 144.678-8.663 144.682 83.597l72.333 41.762.002-266.5Z"></path><path d="m1045.276 710.291 3.464 2 10.262-5.925-3.464-2Zm-20.525 11.85 3.464 2 10.262-5.924-3.464-2Zm-20.526 11.851 3.464 2 10.262-5.925-3.464-2Zm82.103-47.402 3.464 2 10.262-5.925-3.464-2Zm-20.526 11.85 3.464 2 10.262-5.924-3.464-2Zm41.051-23.7 3.464 2 10.262-5.925-3.464-2ZM901.597 793.245l3.463 2 10.263-5.925-3.465-2Zm82.102-47.402 3.464 2 10.262-5.925-3.464-2Zm-61.577 35.551 3.464 2 10.262-5.925-3.464-2Zm41.052-23.7 3.464 2 10.262-5.926-3.465-2Zm-20.526 11.85 3.464 2 10.262-5.925-3.464-2Zm225.782-130.355 3.464 2 10.263-5.926-3.465-2Zm123.153-71.103 3.464 2 10.263-5.925-3.464-2Zm-20.526 11.85 3.464 2 10.263-5.925-3.464-2Zm61.577-35.551 3.464 2 10.263-5.925-3.464-2Zm-20.525 11.85 3.464 2 10.263-5.925-3.465-2Zm-61.578 35.552 3.465 2 10.262-5.925-3.464-2Zm-102.627 59.252 3.464 2 10.263-5.925-3.464-2Zm-20.526 11.85 3.464 2 10.263-5.925-3.464-2Zm61.577-35.551 3.464 2 10.263-5.925-3.464-2Zm41.052-23.701 3.464 2 10.262-5.925-3.464-2Zm-20.526 11.85 3.464 2 10.263-5.925-3.464-2ZM1184.279 1000.681l-3.464 2 10.261 5.925 3.465-2Zm20.525 11.85-3.464 2 10.262 5.926 3.464-2Zm-61.577-35.55-3.464 2 10.262 5.924 3.464-2Zm20.526 11.85-3.464 2 10.262 5.925 3.464-2Zm-41.051-23.701-3.465 2 10.262 5.925 3.465-2Zm-61.578-35.552-3.464 2 10.263 5.926 3.464-2Zm-123.153-71.102-3.464 2 10.263 5.925 3.464-2Zm20.526 11.85-3.464 2 10.263 5.926 3.464-2Zm-61.577-35.551-3.464 2 10.263 5.925 3.464-2Zm20.526 11.85-3.465 2 10.263 5.926 3.464-2Zm61.577 35.552-3.464 2 10.262 5.925 3.464-2Zm102.627 59.252-3.464 2 10.263 5.925 3.464-2Zm20.526 11.85-3.464 2 10.263 5.926 3.464-2Zm-61.577-35.551-3.464 2 10.263 5.925 3.464-2Zm-41.05-23.7-3.465 2 10.262 5.924 3.464-2Zm20.524 11.85-3.464 2 10.263 5.925 3.464-2ZM1162.402 738.177l-3.464 2 10.262 5.924 3.464-2Zm20.525 11.85-3.464 2 10.262 5.925 3.464-2Zm20.526 11.85-3.464 2 10.262 5.925 3.464-2Zm102.629 59.253-3.465 2 10.263 5.925 3.463-2Zm-82.103-47.402-3.464 2 10.262 5.925 3.464-2Zm61.577 35.552-3.464 2 10.262 5.925 3.464-2Zm-41.051-23.701-3.465 2 10.262 5.924 3.464-2Zm20.525 11.85-3.464 2 10.262 5.925 3.464-2ZM916.094 595.971l-3.464 2 10.263 5.925 3.464-2Zm20.526 11.85-3.464 2 10.263 5.926 3.464-2Zm-61.577-35.551-3.464 2 10.263 5.925 3.464-2Zm20.526 11.85-3.465 2 10.263 5.926 3.464-2Zm61.577 35.552-3.464 2 10.262 5.925 3.465-2Zm61.576 35.55-3.464 2 10.263 5.926 3.464-2Zm-41.05-23.7-3.465 2 10.262 5.925 3.464-2Zm20.524 11.85-3.464 2 10.263 5.926 3.464-2Z" style="mix-blend-mode:multiply" fill="#e8eff7" class="colore8ecf7 svgShape"></path><path d="M875.517 543.13c-6.091-3.517-14.189-5.136-22.141-4.9h-12.468v2.043a33.027 33.027 0 0 0-6.595 2.856c-11.338 6.595-11.272 17.278.137 23.87a33.032 33.032 0 0 0 6.458 2.8v2.134h14.954c7.192-.12 14.318-1.752 19.791-4.93 11.34-6.596 11.282-17.28-.136-23.874Z" style="mix-blend-mode:multiply" fill="url(#b)"></path><path fill="url(#c)" d="M821.607 567.011c-5.744-3.317-8.615-7.67-8.602-12.017l.025-9.91c-.011 4.35 2.855 8.702 8.6 12.021 11.419 6.589 29.864 6.589 41.203.003 5.635-3.278 8.456-7.56 8.47-11.854l-.027 9.908c-.01 4.292-2.831 8.574-8.465 11.852-11.34 6.592-29.789 6.592-41.204-.003Z"></path><path fill="#ffffff" d="M821.63 557.105c-11.413-6.59-11.476-17.278-.137-23.867 11.343-6.591 29.795-6.591 41.207 0 11.419 6.589 11.472 17.277.133 23.87-11.339 6.586-29.784 6.586-41.203-.003Z" class="colorffffff svgShape"></path><path d="M1397.019 843.499c-6.091-3.517-14.189-5.136-22.141-4.9h-12.468v2.043a33.016 33.016 0 0 0-6.595 2.857c-11.338 6.594-11.272 17.278.137 23.87a33.031 33.031 0 0 0 6.458 2.8v2.133h14.954c7.192-.12 14.318-1.752 19.791-4.93 11.34-6.595 11.282-17.279-.136-23.873Z" style="mix-blend-mode:multiply" fill="url(#t)"></path><path fill="url(#u)" d="M1343.109 867.38c-5.744-3.317-8.615-7.67-8.602-12.017l.025-9.91c-.011 4.35 2.855 8.702 8.6 12.021 11.419 6.589 29.864 6.589 41.203.003 5.635-3.278 8.456-7.56 8.47-11.853l-.027 9.907c-.01 4.292-2.831 8.574-8.465 11.852-11.34 6.592-29.789 6.592-41.204-.003Z"></path><path fill="#ffffff" d="M1343.132 857.474c-11.413-6.59-11.476-17.278-.137-23.866 11.343-6.592 29.795-6.592 41.207 0 11.419 6.588 11.472 17.277.133 23.87-11.339 6.585-29.784 6.585-41.203-.004Z" class="colorffffff svgShape"></path><path d="M901.21 807.154c-6.09-3.516-14.188-5.136-22.14-4.9h-12.468v2.043a33.017 33.017 0 0 0-6.596 2.857c-11.338 6.594-11.272 17.278.137 23.87a33.031 33.031 0 0 0 6.459 2.8v2.133h14.954c7.192-.12 14.318-1.752 19.791-4.93 11.339-6.595 11.281-17.279-.136-23.873Z" style="mix-blend-mode:multiply" fill="url(#v)"></path><path fill="url(#w)" d="M847.3 831.036c-5.743-3.318-8.615-7.67-8.602-12.017l.026-9.911c-.012 4.35 2.855 8.702 8.6 12.022 11.418 6.588 29.864 6.588 41.203.003 5.635-3.279 8.456-7.56 8.47-11.854l-.027 9.908c-.011 4.291-2.832 8.573-8.465 11.851-11.34 6.592-29.789 6.592-41.205-.002Z"></path><path fill="#ffffff" d="M847.324 821.13c-11.413-6.59-11.476-17.279-.137-23.867 11.342-6.592 29.795-6.592 41.207 0 11.418 6.588 11.472 17.277.133 23.87-11.34 6.585-29.785 6.585-41.203-.003Z" class="colorffffff svgShape"></path><path fill="#6db6ff" d="m854.985 539.672-12.87 13.585-3.095-1.787 3.017-3.152-6.786-3.918-5.46 1.741-3.12-1.801 23.53-7.43Zm-10.946 6.65 6.162-6.47-.312-.18-11.18 3.572ZM1374.9 840.394c3.12 1.8 3.614 4.128.52 5.914a9.05 9.05 0 0 1-7.176.54l-.312.18c1.274 1.246 1.3 2.853-.962 4.159a10.658 10.658 0 0 1-10.296-.3l-8.035-4.64 18.2-10.507Zm-12.74 1.53 4.758 2.748a5.238 5.238 0 0 0 5.278.165c1.612-.93 1.352-2.072-.312-3.032l-4.758-2.748Zm-7.775 4.489 4.759 2.747a5.251 5.251 0 0 0 5.304.15c1.612-.93 1.456-2.071-.286-3.077l-4.733-2.732ZM877.34 803.629c4.525 2.612 4.473 5.524.442 7.85l-.572.331-2.99-1.726.599-.345c2.34-1.351 2.495-3.032-.157-4.564a9.296 9.296 0 0 0-9.074.135l-4.264 2.462c-2.834 1.636-3.094 3.588-.234 5.239a7.451 7.451 0 0 0 7.879.105l.623-.36 2.99 1.726-.572.33a13.284 13.284 0 0 1-13.598-.255c-4.472-2.581-4.836-5.794.026-8.601l4.004-2.312a14.993 14.993 0 0 1 14.899-.015Z" class="colorffaf6d svgShape"></path><g style="mix-blend-mode:multiply" fill="#010001" class="color000000 svgShape"><path fill="#e8eff7" d="M1259.592 1131.537a2.791 2.791 0 0 1 1.258-2.18l13.838-7.989c.692-.4 1.258-.073 1.258.726v5.522a2.791 2.791 0 0 1-1.258 2.179l-13.838 7.99c-.692.399-1.258.072-1.258-.727ZM1250.47 1147.244a2.791 2.791 0 0 1 1.259-2.18l13.838-7.99c.692-.399 1.258-.072 1.258.727v5.522a2.791 2.791 0 0 1-1.258 2.179l-13.838 7.99c-.692.399-1.258.072-1.258-.727ZM1241.035 1142.25a2.79 2.79 0 0 1 1.259-2.179l13.838-7.99c.692-.4 1.258-.072 1.258.727v5.521a2.79 2.79 0 0 1-1.258 2.18l-13.838 7.989c-.692.4-1.259.073-1.259-.726Z" class="colore8ecf7 svgShape"></path></g><g style="mix-blend-mode:multiply" fill="#010001" class="color000000 svgShape"><path fill="#e8eff7" d="M888.114 1059.813a2.79 2.79 0 0 1-1.258 2.18l-13.839 7.989c-.692.4-1.258.073-1.258-.726v-5.522a2.79 2.79 0 0 1 1.258-2.18l13.839-7.989c.692-.4 1.258-.072 1.258.727ZM897.235 1044.106a2.79 2.79 0 0 1-1.258 2.18l-13.839 7.989c-.692.4-1.258.073-1.258-.726v-5.522a2.79 2.79 0 0 1 1.258-2.179l13.839-7.99c.692-.4 1.258-.072 1.258.727ZM906.67 1049.1a2.791 2.791 0 0 1-1.258 2.179l-13.839 7.99c-.691.399-1.258.072-1.258-.727v-5.522a2.792 2.792 0 0 1 1.258-2.179l13.839-7.99c.692-.399 1.258-.072 1.258.727ZM924.374 1066.378a2.79 2.79 0 0 1-1.258 2.18l-13.839 7.989c-.692.4-1.258.073-1.258-.726v-5.522a2.79 2.79 0 0 1 1.258-2.179l13.839-7.99c.692-.4 1.258-.072 1.258.727ZM924.374 1014.41a2.79 2.79 0 0 1-1.258 2.178l-13.839 7.99c-.692.4-1.258.073-1.258-.726v-5.522a2.79 2.79 0 0 1 1.258-2.18l13.839-7.989c.692-.4 1.258-.072 1.258.727Z" class="colore8ecf7 svgShape"></path></g><g style="mix-blend-mode:multiply" fill="#010001" class="color000000 svgShape"><path fill="#e8eff7" d="M1338.437 698.35a2.79 2.79 0 0 1-1.258 2.18l-13.838 7.989c-.692.4-1.258.073-1.258-.726v-5.522a2.79 2.79 0 0 1 1.258-2.179l13.838-7.99c.692-.4 1.258-.072 1.258.727ZM1347.558 682.644a2.791 2.791 0 0 1-1.258 2.179l-13.838 7.99c-.692.399-1.258.072-1.258-.727v-5.522a2.79 2.79 0 0 1 1.258-2.179l13.838-7.99c.692-.399 1.258-.072 1.258.727ZM1356.993 687.637a2.791 2.791 0 0 1-1.258 2.179l-13.838 7.99c-.692.4-1.258.072-1.258-.727v-5.521a2.79 2.79 0 0 1 1.258-2.18l13.838-7.989c.692-.4 1.258-.073 1.258.726Z" class="colore8ecf7 svgShape"></path></g><g style="mix-blend-mode:multiply" fill="#010001" class="color000000 svgShape"><path fill="#e8eff7" d="M1152.208 1092.255c0 .8-.567 1.126-1.259.727l-13.838-7.99a2.791 2.791 0 0 1-1.258-2.179v-5.521c0-.8.566-1.126 1.258-.727l13.838 7.99a2.791 2.791 0 0 1 1.259 2.179ZM1161.328 1087.08c0 .8-.566 1.126-1.258.727l-13.838-7.99a2.791 2.791 0 0 1-1.258-2.179v-5.522c0-.798.566-1.125 1.258-.726l13.838 7.99a2.79 2.79 0 0 1 1.258 2.179ZM1170.764 1102.969c0 .799-.566 1.126-1.258.726l-13.839-7.99a2.79 2.79 0 0 1-1.258-2.178v-5.522c0-.799.566-1.126 1.258-.726l13.839 7.99a2.79 2.79 0 0 1 1.258 2.178ZM1194.037 1235.966c0 .799-.566 1.126-1.258.726l-13.838-7.99a2.79 2.79 0 0 1-1.258-2.179v-5.521c0-.8.566-1.126 1.258-.726l13.838 7.99a2.791 2.791 0 0 1 1.258 2.178ZM1213.956 1102.969c0 .799-.566 1.126-1.258.726l-13.838-7.99a2.79 2.79 0 0 1-1.258-2.178v-5.522c0-.799.566-1.126 1.258-.726l13.838 7.99a2.791 2.791 0 0 1 1.258 2.178ZM1128.872 1048.36c0 .8-.566 1.127-1.258.727l-13.838-7.99a2.79 2.79 0 0 1-1.258-2.178v-5.522c0-.799.566-1.126 1.258-.726l13.838 7.99a2.79 2.79 0 0 1 1.258 2.178Z" class="colore8ecf7 svgShape"></path></g><g style="mix-blend-mode:multiply" fill="#010001" class="color000000 svgShape"><path fill="#e8eff7" d="M1360.663 746.056a2.79 2.79 0 0 1-1.258 2.178l-13.839 7.99c-.692.4-1.258.073-1.258-.726v-5.522a2.791 2.791 0 0 1 1.258-2.179l13.839-7.99c.692-.399 1.258-.072 1.258.727ZM1379.219 735.342a2.792 2.792 0 0 1-1.258 2.18l-13.839 7.989c-.692.4-1.258.072-1.258-.727v-5.521a2.79 2.79 0 0 1 1.258-2.18l13.839-7.989c.692-.4 1.258-.072 1.258.727ZM1351.123 741.229a2.79 2.79 0 0 1-1.259 2.179l-13.838 7.99c-.692.399-1.258.072-1.258-.727v-5.522a2.791 2.791 0 0 1 1.258-2.179l13.838-7.99c.692-.399 1.259-.072 1.259.727Z" class="colore8ecf7 svgShape"></path></g><g style="mix-blend-mode:multiply" fill="#010001" class="color000000 svgShape"><path fill="#e8eff7" d="M991.697 822.904a2.791 2.791 0 0 1-1.258 2.179l-13.838 7.99c-.692.399-1.258.072-1.258-.727v-5.522a2.791 2.791 0 0 1 1.258-2.179l13.838-7.99c.692-.399 1.258-.072 1.258.727ZM1010.253 812.19a2.791 2.791 0 0 1-1.258 2.18l-13.838 7.989c-.692.4-1.258.072-1.258-.727v-5.521a2.79 2.79 0 0 1 1.258-2.18l13.838-7.989c.692-.4 1.258-.072 1.258.727ZM982.157 818.077a2.791 2.791 0 0 1-1.258 2.179l-13.838 7.99c-.692.399-1.259.072-1.259-.727v-5.522a2.79 2.79 0 0 1 1.259-2.178l13.838-7.99c.692-.4 1.258-.073 1.258.726Z" class="colore8ecf7 svgShape"></path></g><g style="mix-blend-mode:multiply" fill="#010001" class="color000000 svgShape"><path fill="#e8eff7" d="M1187.223 1176.995c0 .8-.566 1.126-1.258.727l-13.838-7.99a2.79 2.79 0 0 1-1.259-2.179v-5.521c0-.8.567-1.126 1.259-.727l13.838 7.99a2.79 2.79 0 0 1 1.258 2.179ZM1205.78 1187.709c0 .799-.567 1.126-1.259.726l-13.838-7.99a2.791 2.791 0 0 1-1.258-2.178v-5.522c0-.799.566-1.126 1.258-.726l13.838 7.99a2.791 2.791 0 0 1 1.258 2.178ZM1177.683 1161.153c0 .799-.566 1.126-1.258.726l-13.839-7.99a2.79 2.79 0 0 1-1.258-2.179v-5.521c0-.8.566-1.126 1.258-.727l13.839 7.99a2.79 2.79 0 0 1 1.258 2.18Z" class="colore8ecf7 svgShape"></path></g><g style="mix-blend-mode:multiply" fill="#010001" class="color000000 svgShape"><path fill="#e8eff7" d="M845.865 962.684a2.791 2.791 0 0 0 1.258 2.18l13.838 7.989c.692.4 1.258.072 1.258-.727v-5.521a2.791 2.791 0 0 0-1.258-2.18l-13.838-7.989c-.692-.4-1.258-.072-1.258.727ZM827.309 951.97a2.79 2.79 0 0 0 1.258 2.18l13.838 7.99c.692.399 1.258.072 1.258-.727v-5.522a2.79 2.79 0 0 0-1.258-2.179l-13.838-7.99c-.692-.399-1.258-.072-1.258.727ZM855.405 957.857a2.79 2.79 0 0 0 1.258 2.18l13.838 7.989c.692.4 1.258.073 1.258-.726v-5.522a2.791 2.791 0 0 0-1.258-2.179l-13.838-7.99c-.692-.399-1.258-.072-1.258.727ZM908.02 922.526a2.79 2.79 0 0 0 1.257 2.18l13.839 7.989c.692.4 1.258.072 1.258-.727v-5.52a2.79 2.79 0 0 0-1.258-2.18l-13.839-7.99c-.692-.4-1.258-.072-1.258.727ZM810.01 996.774a2.791 2.791 0 0 0 1.258 2.179l13.839 7.99c.692.399 1.258.072 1.258-.727v-5.522a2.791 2.791 0 0 0-1.258-2.179l-13.839-7.99c-.691-.399-1.258-.072-1.258.727ZM827.309 1033.123a2.791 2.791 0 0 0 1.258 2.179l13.838 7.99c.692.399 1.258.072 1.258-.727v-5.521a2.79 2.79 0 0 0-1.258-2.18l-13.838-7.99c-.692-.398-1.258-.072-1.258.727Z" class="colore8ecf7 svgShape"></path></g><g style="mix-blend-mode:multiply" fill="#010001" class="color000000 svgShape"><path fill="#e8eff7" d="M1255.28 1197.359a2.79 2.79 0 0 1-1.258 2.179l-13.838 7.99c-.692.399-1.258.072-1.258-.727v-5.521a2.79 2.79 0 0 1 1.258-2.18l13.838-7.99c.692-.399 1.259-.072 1.259.727ZM1273.837 1186.645a2.79 2.79 0 0 1-1.258 2.18l-13.839 7.989c-.692.4-1.258.073-1.258-.726v-5.522a2.79 2.79 0 0 1 1.258-2.179l13.839-7.99c.692-.4 1.258-.072 1.258.727ZM1264.716 1202.156a2.79 2.79 0 0 1-1.258 2.179l-13.839 7.99c-.692.399-1.258.072-1.258-.727v-5.522a2.791 2.791 0 0 1 1.258-2.179l13.839-7.99c.692-.399 1.258-.072 1.258.727ZM1282.957 1191.624a2.79 2.79 0 0 1-1.258 2.179l-13.838 7.99c-.692.399-1.258.072-1.258-.727v-5.522a2.791 2.791 0 0 1 1.258-2.179l13.838-7.99c.692-.399 1.258-.072 1.258.727ZM1266.603 1175.056a2.79 2.79 0 0 1 1.258-2.18l13.838-7.989c.692-.4 1.258-.073 1.258.726v5.522a2.791 2.791 0 0 1-1.258 2.18l-13.838 7.989c-.692.4-1.258.072-1.258-.727ZM1258.49 1241.95a2.791 2.791 0 0 1 1.259-2.178l13.838-7.99c.692-.4 1.258-.073 1.258.726v5.522a2.791 2.791 0 0 1-1.258 2.179l-13.838 7.99c-.692.399-1.258.072-1.258-.727ZM1264.82 1095.113a2.79 2.79 0 0 1 1.259-2.18l13.838-7.989c.692-.4 1.258-.073 1.258.726v5.522a2.79 2.79 0 0 1-1.258 2.179l-13.838 7.99c-.692.4-1.258.072-1.258-.727Z" class="colore8ecf7 svgShape"></path></g><g style="mix-blend-mode:multiply" fill="#010001" class="color000000 svgShape"><path fill="#e8eff7" d="M1347.715 636.602a2.792 2.792 0 0 1-1.258 2.179l-13.838 7.99c-.692.399-1.258.072-1.258-.727v-5.522a2.792 2.792 0 0 1 1.258-2.179l13.838-7.99c.692-.399 1.258-.072 1.258.727ZM1366.271 625.888a2.791 2.791 0 0 1-1.258 2.18l-13.838 7.989c-.692.4-1.258.072-1.258-.727v-5.521a2.79 2.79 0 0 1 1.258-2.18l13.838-7.989c.692-.4 1.258-.072 1.258.727ZM1357.15 641.398a2.79 2.79 0 0 1-1.257 2.18l-13.839 7.989c-.692.4-1.258.073-1.258-.726v-5.522a2.79 2.79 0 0 1 1.258-2.179l13.839-7.99c.692-.4 1.258-.072 1.258.727ZM1375.392 630.867a2.79 2.79 0 0 1-1.258 2.179l-13.838 7.99c-.692.399-1.258.072-1.258-.727v-5.522a2.79 2.79 0 0 1 1.258-2.179l13.838-7.99c.692-.399 1.258-.072 1.258.727ZM1359.038 614.299a2.79 2.79 0 0 1 1.258-2.18l13.838-7.99c.692-.398 1.258-.072 1.258.727v5.522a2.79 2.79 0 0 1-1.258 2.179l-13.838 7.99c-.692.399-1.258.072-1.258-.727ZM1276.007 662.236a2.79 2.79 0 0 1 1.258-2.179l13.838-7.99c.692-.399 1.259-.072 1.259.727v5.522a2.79 2.79 0 0 1-1.259 2.179l-13.838 7.99c-.692.399-1.258.072-1.258-.727ZM1356.993 782.486a2.791 2.791 0 0 1 1.258-2.179l13.839-7.99c.692-.399 1.258-.072 1.258.727v5.522a2.791 2.791 0 0 1-1.258 2.179l-13.839 7.99c-.691.399-1.258.072-1.258-.727Z" class="colore8ecf7 svgShape"></path></g><g style="mix-blend-mode:multiply" fill="#010001" class="color000000 svgShape"><path fill="#e8eff7" d="M825.107 886.374c0 .799-.566 1.126-1.258.726l-13.839-7.99a2.791 2.791 0 0 1-1.258-2.179v-5.52c0-.8.567-1.127 1.258-.727l13.839 7.99a2.791 2.791 0 0 1 1.258 2.178ZM843.663 897.087c0 .8-.566 1.126-1.258.727l-13.838-7.99a2.79 2.79 0 0 1-1.258-2.18v-5.52c0-.8.566-1.126 1.258-.727l13.838 7.99a2.79 2.79 0 0 1 1.258 2.179ZM834.542 902.066c0 .799-.566 1.125-1.258.726l-13.838-7.99a2.791 2.791 0 0 1-1.258-2.179v-5.521c0-.8.566-1.126 1.258-.726l13.838 7.99a2.79 2.79 0 0 1 1.258 2.178ZM852.784 912.597c0 .8-.566 1.126-1.258.727l-13.839-7.99a2.791 2.791 0 0 1-1.258-2.179v-5.521c0-.8.566-1.126 1.258-.727l13.839 7.99a2.79 2.79 0 0 1 1.258 2.179ZM836.43 877.145c0-.8.565-1.126 1.257-.726l13.839 7.99a2.79 2.79 0 0 1 1.258 2.178v5.522c0 .799-.566 1.125-1.258.726l-13.839-7.99a2.79 2.79 0 0 1-1.258-2.179Z" class="colore8ecf7 svgShape"></path></g><path d="M1267.83 752.1a2.79 2.79 0 0 0 1.258 2.179l13.838 7.99c.692.399 1.258.072 1.258-.727v-5.522a2.79 2.79 0 0 0-1.258-2.179l-13.838-7.99c-.692-.399-1.258-.072-1.258.727ZM1284.917 746.056a2.791 2.791 0 0 0 1.258 2.178l13.838 7.99c.692.4 1.258.073 1.258-.726v-5.522a2.792 2.792 0 0 0-1.258-2.179l-13.838-7.99c-.692-.399-1.258-.072-1.258.727Z" style="mix-blend-mode:multiply" fill="#e8eff7" class="colore8ecf7 svgShape"></path><path fill="#ff6ae4" d="M1410 315.603v-6.262c-6.699-3.868-11.75-12.407-11.75-19.86v-25.48l15.932 9.198v-6.262l-21.356-12.33v31.743c0 10.842 7.543 23.693 17.175 29.253Z" class="colorff826a svgShape"></path><path fill="#6db6ff" d="m1392.826 254.607 5.424-3.131 21.356 12.33-5.424 3.131-21.356-12.33z" class="colorffaf6d svgShape"></path><path fill="#e33cc5" d="M1403.672 267.133v19.217c0 7.453 5.053 15.992 11.753 19.86l-5.424 3.13c-6.7-3.867-11.751-12.406-11.751-19.859v-25.48Z" class="colore33c5c svgShape"></path><path d="M1452.609 416.257c12.995-7.505 34.07-7.505 47.065 0 12.998 7.502 12.998 19.67 0 27.172-12.995 7.504-34.07 7.504-47.065 0-12.997-7.503-12.997-19.67 0-27.172Z" style="mix-blend-mode:multiply" fill="url(#x)"></path><path fill="#ffffff" d="M1442.715 409.77c12.998-7.504 34.07-7.504 47.068 0 12.998 7.506 12.998 19.673 0 27.175-12.998 7.503-34.069 7.503-47.068 0-12.994-7.502-12.994-19.67 0-27.174Z" class="colorffffff svgShape"></path><path d="M1466.252 432.907h28.882c5.505-5.546 5.83-12.335.98-18.027h-29.862Z" style="mix-blend-mode:multiply" fill="url(#y)"></path><path fill="url(#z)" d="M1489.783 436.945c-12.998 7.503-34.069 7.503-47.068 0-6.497-3.752-9.748-8.67-9.748-13.587v6.484c0 4.918 3.25 9.838 9.748 13.587 12.999 7.504 34.07 7.504 47.068 0 6.5-3.749 9.75-8.67 9.75-13.587v-6.484c0 4.917-3.25 9.835-9.75 13.587Z"></path><path fill="#6db6ff" d="M1454.557 410.122c6.457-3.727 16.93-3.727 23.386 0 6.457 3.728 6.457 9.777 0 13.502-6.457 3.728-16.929 3.728-23.386 0-6.458-3.729-6.458-9.774 0-13.502Z" class="colorffaf6d svgShape"></path><path d="M1466.252 421.646h14.302c2.963-2.96 2.951-6.63-.037-9.58h-14.265Z" style="mix-blend-mode:multiply" fill="url(#A)"></path><path fill="url(#d)" d="M1477.943 423.624c-6.457 3.728-16.929 3.728-23.386 0-3.228-1.865-4.842-4.306-4.842-6.75v6.484c0 2.445 1.614 4.887 4.842 6.75 6.457 3.73 16.93 3.73 23.386 0 3.228-1.863 4.843-4.305 4.843-6.75v-6.485c0 2.445-1.615 4.886-4.843 6.75Z"></path><path fill="url(#B)" d="M1457.982 386.679v30.194c0 1.22.808 2.442 2.423 3.375a12.92 12.92 0 0 0 11.69 0c1.615-.933 2.421-2.154 2.421-3.375V386.68Z"></path><path d="M1457.982 393.154c0 1.22.808 2.442 2.423 3.375a12.92 12.92 0 0 0 11.69 0c1.615-.933 2.421-2.154 2.421-3.375v-6.475h-16.534Z" style="mix-blend-mode:multiply" fill="url(#C)"></path><path fill="url(#D)" d="M1537.204 288.115h-141.91c0 50.057 34.886 103.334 70.958 103.334 36.068 0 70.952-53.277 70.952-103.334Z"></path><path fill="#6db6ff" d="M1416.08 259.148c27.707-15.997 72.633-15.997 100.34.002 27.71 15.996 27.71 41.935.002 57.933-27.707 15.997-72.635 15.997-100.342 0-27.712-15.998-27.712-41.937 0-57.935Z" class="colorffaf6d svgShape"></path><path fill="url(#E)" d="M1420.084 261.463c25.498-14.722 66.835-14.722 92.33 0 25.499 14.719 25.5 38.587.001 53.307-25.495 14.72-66.832 14.72-92.33 0-25.498-14.721-25.498-38.588-.001-53.307Z"></path><path fill="#e33cc5" d="m1529.466 378.95.682-3.606s4.538-4.383 4.538-7.378v-31.743l5.426-3.132v31.744c0 5.084-1.668 8.683-4.422 10.51h.01Z" class="colore33c5c svgShape"></path><path fill="#ff6ae4" d="M1517.511 377.388c9.631 5.56 17.175 1.421 17.175-9.422v-31.743l-21.356-12.33v6.261l15.935 9.2v25.48c0 7.454-5.054 10.16-11.754 6.29Z" class="colorff826a svgShape"></path><path fill="#6db6ff" d="m1513.33 323.893 5.424-3.131 21.358 12.329-5.426 3.132-21.356-12.33zM1528.245 369.727c-1.794 3.522-5.816 4.236-10.734 1.398l5.424-3.133a11.733 11.733 0 0 0 5.31 1.735Z" class="colorffaf6d svgShape"></path><path fill="#cee3f8" d="M1480.966 126.144c.667-1.336 5.01-5.567 5.01-5.567 2.339 1.782 6.347 10.467-1.114 17.482 1.113-3.897-1.28-9.297-3.896-11.915Z" class="colorced3f8 svgShape"></path><path fill="#ff6ae4" d="M1343.33 264.083c1.92 2.735 7.611 8.067 2.815 13.913a56.866 56.866 0 0 1 5.788 2.568c3.608-3.236 8.174-11.423-.009-21.357-3.304 1.747-8.595 4.876-8.595 4.876Z" class="colorff826a svgShape"></path><path fill="#6db6ff" d="M1507.419 217.338c.5-3.09.585-11.609 9.103-12.194a11.985 11.985 0 0 0-2.228-2.895c-5.12.223-12.053 2.895-11.97 13.252a37.614 37.614 0 0 0 5.095 1.837Z" class="colorffaf6d svgShape"></path><path fill="#857dfb" d="M1573.267 296.496c-1.17 1.17-4.259 5.928-13.112 7.934 1.087 2.505 5.011 8.852 5.011 8.852 2.506-1.086 10.522-10.021 11.692-13.111-1.17-1.401-3.591-3.675-3.591-3.675Z" class="color807dfb svgShape"></path><path fill="#5a52cc" d="M1440.308 372.254c1.336-1.42 6.199-6.413 7.516-13.447 3.173.585 5.762 2.506 4.76 5.763-.946 3.072-3.174 8.268-3.174 8.268-2.129-.209-4.425.501-9.102-.584Z" class="color5652cc svgShape"></path><path fill="#ff6ae4" d="m1452.52 197.322 3.976-.445c.099 1.894-.123 6.124 6.947 8.74-2.17 1.838-7.541 4.176-7.541 4.176-2.09-2.338-3.381-7.795-3.381-12.47Z" class="colorff826a svgShape"></path><path fill="#857dfb" d="m1475.999 279.15-1.49-1.162c.449-.575.973-1.228 1.525-1.914.813-1.011 1.699-2.112 2.46-3.115l-.275-.05c-1.444-.26-3.422-.619-2.572-2.92a17.835 17.835 0 0 1 3.36-4.657c.014-.015.028-.031.04-.047a942.91 942.91 0 0 0-2.486-1.939.828.828 0 0 1-.231-.811 2.416 2.416 0 0 1 .526-1.106c.979-1.203 1.97-2.49 2.928-3.736l.462-.6-.106-.075a12.841 12.841 0 0 1-1.786-1.44c-1.232-1.262.01-2.942.917-4.17l.105-.143a20.296 20.296 0 0 1 1.316-1.56c.237-.26.566-.624.75-.863a.918.918 0 0 0-.112-.097c-.56-.408-1.104-.84-1.646-1.274-.27-.215-.539-.43-.81-.643a.813.813 0 0 1-.233-.788 2.366 2.366 0 0 1 .493-1.084l4.443-5.693 1.49 1.163-3.44 4.408c.027.02.054.043.08.065.53.422 1.06.845 1.608 1.245a1.686 1.686 0 0 1 .654 1.808 7.341 7.341 0 0 1-2.054 3.233c-.344.38-.7.774-.958 1.122l-.107.146c-.142.192-.306.414-.425.585.016.017.033.038.054.058a11.82 11.82 0 0 0 1.636 1.312c.305.218.61.434.9.663.412.32.295 1.159-.26 1.871-.486.623-.971 1.253-1.458 1.884-.643.834-1.298 1.688-1.964 2.53l1 .78 1.058.827c.573.449 1.164.913.27 2.154l-.067.088c-.344.44-.805.97-1.295 1.53a27.705 27.705 0 0 0-2.291 2.854 4.795 4.795 0 0 0 1.705.514 3.94 3.94 0 0 1 1.71.546c.365.303.296 1.034-.163 1.71-1.006 1.484-2.484 3.321-3.787 4.943-.534.662-1.04 1.292-1.474 1.848Z" class="color807dfb svgShape"></path><path fill="#6db6ff" d="m1412.815 194.496-1.606-.997c.334-.535.69-1.08 1.052-1.63a34.828 34.828 0 0 0 1.827-2.988c.04-.08.066-.14.081-.178a2.373 2.373 0 0 0-.785-.373 2.886 2.886 0 0 1-1.396-.81c-1.154-1.439.434-3.924 1.196-5.118.1-.158.202-.314.298-.47.1-.16.232-.358.38-.577.156-.233.45-.667.605-.952-.068-.042-.162-.089-.232-.124a3.462 3.462 0 0 1-.323-.174c-.149-.092-.32-.174-.494-.258a3.407 3.407 0 0 1-1.275-.88 2.9 2.9 0 0 1-.514-2.597 9.475 9.475 0 0 1 2.492-3.915 14.068 14.068 0 0 0 1.428-1.76l1.606.997a18.37 18.37 0 0 1-2.008 2.536 9.065 9.065 0 0 0-1.258 1.59c-.001.002-.038.235.275.632a2.614 2.614 0 0 0 .876.56 6.065 6.065 0 0 1 .597.314c.076.046.156.086.235.124a1.597 1.597 0 0 1 1.002 1.835 7.833 7.833 0 0 1-1.523 3.248c-.102.15-.193.285-.264.398-.11.175-.221.353-.335.532a7.972 7.972 0 0 0-.807 1.438.311.311 0 0 0 .055.095 2.116 2.116 0 0 0 .888.45c.788.273 2.633.913 1.029 4.038a38.879 38.879 0 0 1-2.128 3.505 65.385 65.385 0 0 0-.974 1.51ZM1543.507 182.596l-1.607-.997a84.66 84.66 0 0 1 1.052-1.63 34.883 34.883 0 0 0 1.827-2.989c.04-.08.066-.139.082-.178a2.373 2.373 0 0 0-.785-.372 2.886 2.886 0 0 1-1.396-.81c-1.154-1.44.433-3.924 1.196-5.118.1-.159.201-.315.297-.47.1-.16.233-.359.38-.578.157-.233.45-.667.605-.951-.068-.043-.162-.09-.231-.124a3.44 3.44 0 0 1-.323-.175c-.149-.091-.32-.173-.494-.257a3.409 3.409 0 0 1-1.275-.88 2.9 2.9 0 0 1-.514-2.598 9.477 9.477 0 0 1 2.492-3.914 14.068 14.068 0 0 0 1.428-1.76l1.605.996a18.37 18.37 0 0 1-2.008 2.537 9.075 9.075 0 0 0-1.258 1.589c0 .003-.038.236.275.633a2.615 2.615 0 0 0 .877.56 6.061 6.061 0 0 1 .597.314c.076.046.155.085.235.124a1.597 1.597 0 0 1 1.002 1.834 7.835 7.835 0 0 1-1.523 3.249c-.102.15-.194.285-.264.397-.11.176-.221.354-.335.532a7.956 7.956 0 0 0-.808 1.44.313.313 0 0 0 .056.094 2.114 2.114 0 0 0 .888.449c.788.274 2.633.914 1.029 4.038a38.833 38.833 0 0 1-2.128 3.506 65.385 65.385 0 0 0-.974 1.509Z" class="colorffaf6d svgShape"></path><path fill="#857dfb" d="M1395.843 347.815a38.797 38.797 0 0 1-2.109-3.516c-1.589-3.135.26-3.765 1.051-4.033a2.128 2.128 0 0 0 .89-.445.367.367 0 0 0 .057-.094 7.98 7.98 0 0 0-.8-1.444 43.133 43.133 0 0 1-.332-.533c-.069-.113-.161-.248-.261-.4a7.827 7.827 0 0 1-1.506-3.256 1.598 1.598 0 0 1 1.012-1.829c.08-.038.159-.076.235-.123a6.406 6.406 0 0 1 .599-.31 2.605 2.605 0 0 0 .88-.555c.315-.397.28-.63.28-.631a9.139 9.139 0 0 0-1.25-1.597 18.353 18.353 0 0 1-1.994-2.547l1.611-.987a14.214 14.214 0 0 0 1.418 1.768 9.452 9.452 0 0 1 2.47 3.927 2.908 2.908 0 0 1-.528 2.595 3.411 3.411 0 0 1-1.28.872 5.516 5.516 0 0 0-.496.255c-.104.064-.213.12-.323.174-.07.034-.163.08-.232.123.153.284.442.719.599.953.147.22.278.42.378.582.094.154.193.31.293.47.757 1.198 2.33 3.692 1.168 5.124a2.875 2.875 0 0 1-1.4.803 2.377 2.377 0 0 0-.788.368c.016.04.041.097.082.178a34.745 34.745 0 0 0 1.809 2.999c.359.552.713 1.099 1.043 1.636l-1.611.988c-.305-.5-.634-1.004-.965-1.515Zm-.588-.331Z" class="color807dfb svgShape"></path><path fill="#6db6ff" d="M1442.86 298.692a8.41 8.41 0 0 1 3.804-6.59c2.101-1.212 3.804-.228 3.804 2.198a8.408 8.408 0 0 1-3.804 6.589c-2.1 1.213-3.803.229-3.803-2.197Z" class="colorffaf6d svgShape"></path><path fill="#ff6ae4" d="M1541.069 249.347a8.407 8.407 0 0 1 3.805-6.589c2.1-1.213 3.804-.23 3.804 2.195a8.41 8.41 0 0 1-3.804 6.59c-2.101 1.213-3.805.23-3.805-2.196Z" class="colorff826a svgShape"></path><path fill="#7c3eaf" d="m1636.865 961.681-60.723 35.059.001-3.808 60.725-35.059-.003 3.808z" class="color423eaf svgShape"></path><path fill="#6f67e9" d="m1576.142 996.74-60.72-35.058v-3.808l60.721 35.058-.001 3.808z" class="color6b67e9 svgShape"></path><path fill="#bbd0e6" d="m1641.56 955.164-65.417 37.768.002-92.518 65.417-37.768-.002 92.518z" class="colorbbc0e6 svgShape"></path><path fill="#cee3f8" d="m1576.143 992.932-65.412-37.767v-92.518l65.414 37.767-.002 92.518z" class="colorced3f8 svgShape"></path><path fill="#f6f8fb" d="m1576.145 900.414-65.414-37.767 65.414-37.769 65.417 37.768-65.417 37.768z" class="colorf6f6fb svgShape"></path><path d="m1611.928 920.509-6.148 3.551v-19.234l6.148-3.549v19.232zM1540.36 920.509l6.148 3.551v-19.234l-6.148-3.549v19.232z" style="mix-blend-mode:multiply" fill="#dae7f5" class="colordae0f5 svgShape"></path><path fill="#cee3f8" d="M1576.145 790.53v38.164l70.15 40.502v-38.165l-10.792-6.231v12.462l-10.792-6.231v-12.462l-10.793-6.231V824.8l-10.792-6.231v-12.462l-10.793-6.231v12.462l-10.792-6.231v-12.462l-5.396-3.115z" class="colorced3f8 svgShape"></path><path fill="#bbd0e6" d="m1581.541 793.645 5.396-3.115v12.461l-5.396 3.116v-12.462z" class="colorbbc0e6 svgShape"></path><path fill="#f6f8fb" d="m1581.541 806.107 5.396-3.116 5.396 3.116v6.231l-10.792-6.231zM1592.333 799.876l5.396-3.116 10.793 6.231-5.396 3.116-10.793-6.231z" class="colorf6f6fb svgShape"></path><path fill="#bbd0e6" d="m1603.126 806.107 5.396-3.116v12.462l-5.396 3.116v-12.462z" class="colorbbc0e6 svgShape"></path><path fill="#f6f8fb" d="m1603.126 818.569 5.396-3.116 5.396 3.116v6.231l-10.792-6.231zM1613.918 812.338l5.396-3.115 10.793 6.231-5.396 3.115-10.793-6.231z" class="colorf6f6fb svgShape"></path><path fill="#bbd0e6" d="m1624.711 818.569 5.396-3.115v12.461l-5.396 3.116v-12.462z" class="colorbbc0e6 svgShape"></path><path fill="#f6f8fb" d="m1624.711 831.031 5.396-3.116 5.396 3.116v6.231l-10.792-6.231zM1635.503 824.8l5.396-3.116 10.793 6.232-5.397 3.115-10.792-6.231z" class="colorf6f6fb svgShape"></path><path fill="#bbd0e6" d="M1576.145 790.53v38.164l-70.151 40.502v-38.165l10.792-6.231v12.462l10.792-6.231v-12.462l10.793-6.231V824.8l10.792-6.231v-12.462l10.793-6.231v12.462l10.792-6.231v-12.462l5.397-3.115z" class="colorbbc0e6 svgShape"></path><path fill="#f6f8fb" d="m1586.937 790.53-5.396-3.116-5.396-3.116-5.397 3.116-5.396 3.116 5.396 3.115 5.397-3.115 5.396 3.115 5.396-3.115z" class="colorf6f6fb svgShape"></path><path fill="#cee3f8" d="m1570.748 793.645-5.396-3.115v12.461l5.396 3.116v-12.462z" class="colorced3f8 svgShape"></path><path fill="#f6f8fb" d="m1570.748 806.107-5.396-3.116-5.396 3.116v6.231l10.792-6.231zM1559.956 799.876l-5.396-3.116-10.793 6.231 5.396 3.116 10.793-6.231z" class="colorf6f6fb svgShape"></path><path fill="#cee3f8" d="m1549.163 806.107-5.396-3.116v12.462l5.396 3.116v-12.462z" class="colorced3f8 svgShape"></path><path fill="#f6f8fb" d="m1549.163 818.569-5.396-3.116-5.396 3.116v6.231l10.792-6.231zM1538.371 812.338l-5.396-3.115-10.793 6.231 5.396 3.115 10.793-6.231z" class="colorf6f6fb svgShape"></path><path fill="#cee3f8" d="m1527.578 818.569-5.396-3.115v12.461l5.396 3.116v-12.462z" class="colorced3f8 svgShape"></path><path fill="#f6f8fb" d="m1527.578 831.031-5.396-3.116-5.396 3.116v6.231l10.792-6.231zM1516.786 824.8l-5.396-3.116-10.793 6.232 5.397 3.115 10.792-6.231z" class="colorf6f6fb svgShape"></path><path fill="#ff6ae4" d="M1576.145 877.764V755.757l-64.753 84.621 64.753 37.386z" class="colorff826a svgShape"></path><path fill="#e33cc5" d="M1576.145 877.764V755.757l64.754 84.621-64.754 37.386z" class="colore33c5c svgShape"></path><path fill="#d7e8f9" d="M1500.597 827.916v38.164l75.548 43.617v-38.164l-10.793-6.231v12.462l-10.792-6.231v-12.462l-10.793-6.232v12.463l-10.792-6.231v-12.462l-10.793-6.232v12.462l-10.792-6.23v-12.462l-10.793-6.231z" class="colord7ddf9 svgShape"></path><path fill="#f6f8fb" d="m1500.597 827.916 5.397-3.116 10.792 6.231-5.396 3.116-10.793-6.231z" class="colorf6f6fb svgShape"></path><path fill="#bbd0e6" d="m1511.39 834.147 5.396-3.116v12.462l-5.396 3.116v-12.462z" class="colorbbc0e6 svgShape"></path><path fill="#f6f8fb" d="m1511.39 846.609 5.396-3.116 5.396 3.116v6.23l-10.792-6.23zM1522.182 840.377l5.396-3.115 10.793 6.231-5.396 3.116-10.793-6.232z" class="colorf6f6fb svgShape"></path><path fill="#bbd0e6" d="m1532.975 846.609 5.396-3.116v12.462l-5.396 3.116v-12.462z" class="colorbbc0e6 svgShape"></path><path fill="#f6f8fb" d="m1532.975 859.071 5.396-3.116 5.396 3.116v6.231l-10.792-6.231zM1543.767 852.839l5.396-3.115 10.793 6.231-5.396 3.116-10.793-6.232z" class="colorf6f6fb svgShape"></path><path fill="#bbd0e6" d="m1554.56 859.071 5.396-3.116v12.462l-5.396 3.116v-12.462z" class="colorbbc0e6 svgShape"></path><path fill="#f6f8fb" d="m1554.56 871.533 5.396-3.116 5.396 3.116v6.231l-10.792-6.231z" class="colorf6f6fb svgShape"></path><path fill="#c5d9ed" d="M1651.692 827.916v38.164l-75.547 43.617v-38.164l10.792-6.231v12.462l10.792-6.231v-12.462l10.793-6.232v12.463l10.792-6.231v-12.462l10.793-6.232v12.462l10.792-6.23v-12.462l10.793-6.231z" class="colorc5cbed svgShape"></path><path fill="#f6f8fb" d="m1651.692 827.916-5.397-3.116-10.792 6.231 5.396 3.116 10.793-6.231z" class="colorf6f6fb svgShape"></path><path fill="#cee3f8" d="m1640.899 834.147-5.396-3.116v12.462l5.396 3.116v-12.462z" class="colorced3f8 svgShape"></path><path fill="#f6f8fb" d="m1640.899 846.609-5.396-3.116-5.396 3.116v6.23l10.792-6.23zM1630.107 840.377l-5.396-3.115-10.793 6.231 5.396 3.116 10.793-6.232z" class="colorf6f6fb svgShape"></path><path fill="#cee3f8" d="m1619.314 846.609-5.396-3.116v12.462l5.396 3.116v-12.462z" class="colorced3f8 svgShape"></path><path fill="#f6f8fb" d="m1619.314 859.071-5.396-3.116-5.396 3.116v6.231l10.792-6.231zM1608.522 852.839l-5.396-3.115-10.793 6.231 5.396 3.116 10.793-6.232z" class="colorf6f6fb svgShape"></path><path fill="#cee3f8" d="m1597.729 859.071-5.396-3.116v12.462l5.396 3.116v-12.462z" class="colorced3f8 svgShape"></path><path fill="#f6f8fb" d="m1597.729 871.533-5.396-3.116-5.396 3.116v6.231l10.792-6.231zM1581.541 862.186l-5.396 3.116-5.397-3.116-5.396 3.116 5.396 3.115 5.397 3.116 5.396-3.116 5.396-3.115-5.396-3.116z" class="colorf6f6fb svgShape"></path><path d="M1511.39 846.609h10.792l-5.396-3.116-5.396 3.116zM1532.975 859.071h10.792l-5.396-3.116-5.396 3.116zM1554.559 871.533h10.793l-5.396-3.116-5.397 3.116z" style="mix-blend-mode:multiply" fill="#dce8f4" class="colordce1f4 svgShape"></path><path d="m1576.145 918.573-54.683-31.571-12.863-16.303 67.546 38.998v8.876z" style="mix-blend-mode:multiply" fill="#e8eff7" class="colore8ecf7 svgShape"></path><path fill="#7c3eaf" d="m1167.398 468.972-46.707 26.966.001-2.929 46.708-26.966-.002 2.929z" class="color423eaf svgShape"></path><path fill="#6f67e9" d="m1120.691 495.938-46.704-26.966v-2.928l46.705 26.965-.001 2.929z" class="color6b67e9 svgShape"></path><path fill="#bbd0e6" d="m1171.009 463.959-50.317 29.05.001-71.162 50.318-29.05-.002 71.162z" class="colorbbc0e6 svgShape"></path><path fill="#cee3f8" d="m1120.692 493.009-50.313-29.05v-71.162l50.314 29.05-.001 71.162z" class="colorced3f8 svgShape"></path><path fill="#f6f8fb" d="m1120.693 421.847-50.314-29.05 50.314-29.05 50.318 29.05-50.318 29.05z" class="colorf6f6fb svgShape"></path><path d="m1148.217 437.303-4.729 2.732v-14.794l4.729-2.731v14.793zM1093.169 437.303l4.729 2.732v-14.794l-4.729-2.731v14.793z" style="mix-blend-mode:multiply" fill="#dae7f5" class="colordae0f5 svgShape"></path><path fill="#7c3eaf" d="m958.31 1283.653-42.117 24.316.001-2.641 42.118-24.316-.002 2.641z" class="color423eaf svgShape"></path><path fill="#6f67e9" d="m916.193 1307.969-42.114-24.315v-2.641l42.115 24.315-.001 2.641z" class="color6b67e9 svgShape"></path><path fill="#bbd0e6" d="m961.566 1279.133-45.372 26.195.001-64.169 45.373-26.195-.002 64.169z" class="colorbbc0e6 svgShape"></path><path fill="#cee3f8" d="m916.194 1305.328-45.369-26.195v-64.169l45.37 26.195-.001 64.169z" class="colorced3f8 svgShape"></path><path fill="#f6f8fb" d="m916.195 1241.159-45.37-26.195 45.37-26.195 45.373 26.195-45.373 26.195z" class="colorf6f6fb svgShape"></path><path d="m941.014 1255.097-4.265 2.463v-13.34l4.265-2.463v13.34zM891.376 1255.097l4.264 2.463v-13.34l-4.264-2.463v13.34z" style="mix-blend-mode:multiply" fill="#dae7f5" class="colordae0f5 svgShape"></path><path fill="#7c3eaf" d="m1527.219 1130.012 22.573-13.036v-26.467l-22.573 13.031v26.472z" class="color423eaf svgShape"></path><path fill="#5a52cc" d="m1527.219 1130.012-22.576-13.036v-26.467l22.576 13.031v26.472z" class="color5652cc svgShape"></path><path fill="#857dfb" d="m1527.219 1103.54-22.576-13.031 22.576-13.028 22.573 13.028-22.573 13.031z" class="color807dfb svgShape"></path><path fill="#7c3eaf" d="m1352.226 1074.627 10.427-6.021v-12.226l-10.427 6.019v12.228z" class="color423eaf svgShape"></path><path fill="#5a52cc" d="m1352.226 1074.627-10.429-6.021v-12.226l10.429 6.019v12.228z" class="color5652cc svgShape"></path><path fill="#857dfb" d="m1352.226 1062.399-10.429-6.019 10.429-6.017 10.427 6.017-10.427 6.019z" class="color807dfb svgShape"></path><path fill="#5a52cc" d="m713.402 805.113 23.236-13.419V764.45l-23.236 13.413v27.25z" class="color5652cc svgShape"></path><path fill="#857dfb" d="m713.402 805.113-23.239-13.419V764.45l23.239 13.413v27.25z" class="color807dfb svgShape"></path><path fill="#f6f8fb" d="m713.402 777.863-23.239-13.413 23.239-13.41 23.236 13.41-23.236 13.413z" class="colorf6f6fb svgShape"></path><path fill="#7c3eaf" d="m1017.952 517.78 14.26-8.235v-16.72l-14.26 8.232v16.723z" class="color423eaf svgShape"></path><path fill="#5a52cc" d="m1017.952 517.78-14.262-8.235v-16.72l14.262 8.232v16.723z" class="color5652cc svgShape"></path><path fill="#857dfb" d="m1017.952 501.057-14.262-8.232 14.262-8.229 14.26 8.229-14.26 8.232z" class="color807dfb svgShape"></path><path fill="#ff6ae4" d="m1165.802 860.777 12.072-6.972V839.65l-12.072 6.969v14.158z" class="colorff826a svgShape"></path><path fill="#6db6ff" d="m1165.802 860.777-12.075-6.972V839.65l12.075 6.969v14.158z" class="colorffaf6d svgShape"></path><path fill="#f6f8fb" d="m1165.802 846.619-12.075-6.969 12.075-6.968 12.072 6.968-12.072 6.969z" class="colorf6f6fb svgShape"></path><path fill="#bbd0e6" d="m585.686 1111.035 17.279-9.978v-20.259l-17.279 9.974v20.263z" class="colorbbc0e6 svgShape"></path><path fill="#cee3f8" d="m585.686 1111.035-17.281-9.978v-20.259l17.281 9.974v20.263z" class="colorced3f8 svgShape"></path><path fill="#f6f8fb" d="m585.686 1090.772-17.281-9.974 17.281-9.972 17.279 9.972-17.279 9.974z" class="colorf6f6fb svgShape"></path><path fill="#7c3eaf" d="m1701.98 465.122 17.278-9.978v-20.26l-17.278 9.975v20.263z" class="color423eaf svgShape"></path><path fill="#5a52cc" d="m1701.98 465.122-17.281-9.978v-20.26l17.281 9.975v20.263z" class="color5652cc svgShape"></path><path fill="#857dfb" d="m1701.98 444.859-17.281-9.975 17.281-9.972 17.278 9.972-17.278 9.975z" class="color807dfb svgShape"></path><path fill="#e33cc5" d="m1388.224 1161.406 5.425-3.133v-6.36l-5.425 3.131v6.362z" class="colore33c5c svgShape"></path><path fill="#ff6ae4" d="m1388.224 1161.406-5.425-3.133v-6.36l5.425 3.131v6.362z" class="colorff826a svgShape"></path><path fill="#6db6ff" d="m1388.224 1155.044-5.425-3.131 5.425-3.131 5.425 3.131-5.425 3.131z" class="colorffaf6d svgShape"></path><path fill="#ff6ae4" d="m544.35 727.935 10.134-5.852V710.2l-10.134 5.85v11.885z" class="colorff826a svgShape"></path><path fill="#6db6ff" d="m544.35 727.935-10.135-5.852V710.2l10.135 5.85v11.885z" class="colorffaf6d svgShape"></path><path fill="#f6f8fb" d="m544.35 716.05-10.135-5.85 10.135-5.848 10.134 5.848-10.134 5.85z" class="colorf6f6fb svgShape"></path><path fill="#ff6ae4" d="m1515.693 578.844 10.133-5.852v-11.883l-10.133 5.85v11.885z" class="colorff826a svgShape"></path><path fill="#6db6ff" d="m1515.693 578.844-10.136-5.852v-11.883l10.136 5.85v11.885z" class="colorffaf6d svgShape"></path><path fill="#f6f8fb" d="m1515.693 566.959-10.136-5.85 10.136-5.848 10.133 5.848-10.133 5.85z" class="colorf6f6fb svgShape"></path><path fill="#bbd0e6" d="m1052.14 327.394 10.134-5.852V309.66l-10.134 5.85v11.884z" class="colorbbc0e6 svgShape"></path><path fill="#cee3f8" d="m1052.14 327.394-10.135-5.852V309.66l10.135 5.85v11.884z" class="colorced3f8 svgShape"></path><path fill="#f6f8fb" d="m1052.14 315.51-10.135-5.85 10.135-5.849 10.134 5.849-10.134 5.85z" class="colorf6f6fb svgShape"></path><path fill="#7c3eaf" d="m1004.226 1184.833 10.134-5.853v-11.882l-10.134 5.85v11.885z" class="color423eaf svgShape"></path><path fill="#5a52cc" d="m1004.226 1184.833-10.136-5.853v-11.882l10.136 5.85v11.885z" class="color5652cc svgShape"></path><path fill="#857dfb" d="m1004.226 1172.948-10.136-5.85 10.136-5.848 10.134 5.848-10.134 5.85z" class="color807dfb svgShape"></path><path fill="#e33cc5" d="m666.043 1246.072 8.877-5.127v-10.408l-8.877 5.125v10.41z" class="colore33c5c svgShape"></path><path fill="#ff6ae4" d="m666.043 1246.072-8.878-5.127v-10.408l8.878 5.125v10.41z" class="colorff826a svgShape"></path><path fill="#6db6ff" d="m666.043 1235.662-8.878-5.125 8.878-5.123 8.877 5.123-8.877 5.125z" class="colorffaf6d svgShape"></path><path fill="#dae7f5" d="M1736.571 685.449a.996.996 0 0 1-.5-.135l-63.238-36.508a1 1 0 0 1 0-1.732l63.238-36.512a1.004 1.004 0 0 1 1 0l63.239 36.512a1 1 0 0 1 0 1.732l-63.239 36.508a.995.995 0 0 1-.5.135Zm-61.238-37.51 61.238 35.355 61.239-35.354-61.239-35.358Z" class="colordae0f5 svgShape"></path><path fill="#dae7f5" d="M1736.571 758.468a.996.996 0 0 1-.5-.135l-63.238-36.507a.999.999 0 0 1-.5-.866v-73.02a1 1 0 1 1 2 0v72.442l62.238 35.932 62.239-35.932V647.94a1 1 0 0 1 2 0v73.02a.999.999 0 0 1-.5.866l-63.239 36.507a.996.996 0 0 1-.5.135Z" class="colordae0f5 svgShape"></path><path fill="#dae7f5" d="M1736.571 758.468a1 1 0 0 1-1-1v-73.02a1 1 0 1 1 2 0v73.02a1 1 0 0 1-1 1ZM1731.755 611.428a4.816 4.816 0 1 1 4.816 4.817 4.815 4.815 0 0 1-4.816-4.817ZM1668.52 647.94a4.814 4.814 0 1 1 4.813 4.816 4.815 4.815 0 0 1-4.813-4.816ZM1668.52 720.96a4.814 4.814 0 1 1 4.813 4.816 4.815 4.815 0 0 1-4.813-4.816Z" class="colordae0f5 svgShape"></path><path fill="#dae7f5" d="M1731.755 757.467a4.816 4.816 0 1 1 4.816 4.817 4.815 4.815 0 0 1-4.816-4.817ZM1731.755 684.448a4.816 4.816 0 1 1 4.816 4.816 4.815 4.815 0 0 1-4.816-4.816Z" class="colordae0f5 svgShape"></path><circle cx="1799.809" cy="647.94" r="4.816" fill="#dae7f5" class="colordae0f5 svgShape"></circle><circle cx="1799.809" cy="720.96" r="4.816" fill="#dae7f5" class="colordae0f5 svgShape"></circle><path fill="#dae7f5" d="M462.143 600.934a1.002 1.002 0 0 1-.5-.134l-53.225-30.731a1 1 0 0 1 0-1.733l53.225-30.728a1.004 1.004 0 0 1 1 0l53.224 30.728a1 1 0 0 1 0 1.733L462.643 600.8a1.002 1.002 0 0 1-.5.134Zm-51.225-31.731 51.225 29.577 51.224-29.577-51.224-29.575Z" class="colordae0f5 svgShape"></path><path fill="#dae7f5" d="M462.143 662.394a.993.993 0 0 1-.5-.135l-53.225-30.73a1 1 0 0 1-.5-.866v-61.46a1 1 0 0 1 2 0v60.882l52.225 30.155 52.224-30.155v-60.882a1 1 0 0 1 2 0v61.46a1 1 0 0 1-.5.866l-53.224 30.73a.993.993 0 0 1-.5.135Z" class="colordae0f5 svgShape"></path><path fill="#dae7f5" d="M462.143 662.394a1 1 0 0 1-1-1v-61.46a1 1 0 0 1 2 0v61.46a1 1 0 0 1-1 1ZM457.326 538.474a4.815 4.815 0 1 1 4.817 4.815 4.816 4.816 0 0 1-4.817-4.815ZM404.102 569.203a4.815 4.815 0 1 1 4.816 4.816 4.816 4.816 0 0 1-4.816-4.816ZM404.102 630.663a4.815 4.815 0 1 1 4.816 4.816 4.815 4.815 0 0 1-4.816-4.816Z" class="colordae0f5 svgShape"></path><path fill="#dae7f5" d="M457.328 661.394a4.814 4.814 0 1 1 4.815 4.815 4.816 4.816 0 0 1-4.815-4.815Z" class="colordae0f5 svgShape"></path><circle cx="462.143" cy="599.934" r="4.815" fill="#dae7f5" class="colordae0f5 svgShape"></circle><path fill="#dae7f5" d="M510.553 569.203a4.815 4.815 0 1 1 4.814 4.816 4.816 4.816 0 0 1-4.814-4.816ZM510.553 630.663a4.815 4.815 0 1 1 4.814 4.816 4.815 4.815 0 0 1-4.814-4.816Z" class="colordae0f5 svgShape"></path><path fill="url(#F)" d="M1722.296 1208.896v170.248h137.785v-249.793l-137.785 79.545z"></path><path fill="url(#G)" d="m1722.296 1208.896-178.42-103.012v273.26h178.42v-170.248z"></path><path fill="#f4f6f8" d="m1722.294 1002.873-178.418 103.011 178.42 103.012 137.785-79.545v-46.932l-137.787-79.546z" class="colorf1f3f9 svgShape"></path><path fill="url(#H)" d="m383.009 1166.714-116.56 67.295v145.135h116.56v-212.43z"></path><path fill="#f4f6f8" d="m266.449 1234.009-116.554-67.295 116.553-67.291 116.561 67.291-116.56 67.295z" class="colorf1f3f9 svgShape"></path><path fill="url(#I)" d="m266.449 1234.009-116.554-67.295v212.43h116.554v-145.135z"></path><path fill="#f6f8fb" d="M712.461 1038.965 556.37 948.847l112.639-65.036 156.098 90.124-112.646 65.03z" class="colorf6f6fb svgShape"></path><path fill="#857dfb" d="m581.129 948.848 87.88-50.741 131.339 75.829-87.887 50.735-131.332-75.823z" class="color807dfb svgShape"></path><path fill="#cee3f8" d="M712.461 1052.582 556.37 962.464v-13.617l156.091 90.118v13.617z" class="colorced3f8 svgShape"></path><path fill="#bbd0e6" d="m825.107 987.553-112.646 65.029v-13.617l112.646-65.03v13.618z" class="colorbbc0e6 svgShape"></path><path style="mix-blend-mode:multiply" fill="url(#g)" d="M662.868 945.702h52.963v4.003h-52.963z"></path><path fill="#48196f" d="m662.868 949.705-3.175-1.83v-35.769l3.175 1.832v35.767z" class="color20196f svgShape"></path><path fill="#420f42" d="m662.868 949.705 3.174-1.83v-35.769l-3.174 1.832v35.767z" class="color110f42 svgShape"></path><path fill="url(#h)" d="m697.782 903.64-34.914-51.789s-35.45 52.546-35.685 52.928a13.917 13.917 0 0 0-2.183 7.327c0 5.596 3.699 11.188 11.091 15.46 14.789 8.536 38.766 8.536 53.553 0 7.394-4.272 11.09-9.864 11.09-15.46a14.345 14.345 0 0 0-2.952-8.467Z"></path><path fill="url(#i)" d="m693.468 882.685-30.6-45.385-30.598 45.385a12.571 12.571 0 0 0-2.589 7.42c0 4.903 3.242 9.806 9.72 13.548 12.96 7.484 33.973 7.484 46.932 0 6.48-3.742 9.723-8.645 9.723-13.548a12.602 12.602 0 0 0-2.588-7.42Z"></path><path fill="url(#j)" d="M689.573 865.398c-.176-.288-26.705-39.612-26.705-39.612s-26.529 39.324-26.705 39.612a10.4 10.4 0 0 0-1.633 5.48c0 4.188 2.767 8.374 8.3 11.568 11.068 6.391 29.009 6.391 40.076 0 5.534-3.194 8.3-7.38 8.3-11.569a10.398 10.398 0 0 0-1.633-5.48Z"></path><path style="mix-blend-mode:multiply" fill="url(#J)" d="M725.855 982.067h52.963v4.003h-52.963z"></path><path fill="#48196f" d="m725.855 986.069-3.175-1.83v-35.768l3.175 1.831v35.767z" class="color20196f svgShape"></path><path fill="#420f42" d="m725.855 986.069 3.173-1.83v-35.768l-3.173 1.831v35.767z" class="color110f42 svgShape"></path><path fill="url(#K)" d="m760.768 940.004-34.913-51.788s-35.45 52.546-35.685 52.928a13.917 13.917 0 0 0-2.184 7.327c0 5.595 3.699 11.188 11.091 15.459 14.79 8.537 38.766 8.537 53.553 0 7.394-4.271 11.09-9.864 11.09-15.46a14.345 14.345 0 0 0-2.952-8.466Z"></path><path fill="url(#L)" d="m756.454 919.05-30.6-45.386-30.598 45.386a12.571 12.571 0 0 0-2.588 7.42c0 4.903 3.241 9.805 9.72 13.548 12.96 7.483 33.972 7.483 46.932 0 6.48-3.743 9.722-8.645 9.722-13.548a12.602 12.602 0 0 0-2.588-7.42Z"></path><path fill="url(#M)" d="M752.559 901.763c-.176-.288-26.704-39.612-26.704-39.612s-26.53 39.324-26.706 39.612a10.4 10.4 0 0 0-1.633 5.48c0 4.187 2.767 8.374 8.3 11.568 11.068 6.39 29.01 6.39 40.077 0 5.533-3.194 8.299-7.38 8.299-11.569a10.397 10.397 0 0 0-1.633-5.48Z"></path><path d="M660.814 976.325a8.048 8.048 0 0 1 7.281 0c2.011 1.162 2.011 3.043 0 4.204a8.033 8.033 0 0 1-7.28 0c-2.01-1.16-2.012-3.042 0-4.204Z" style="mix-blend-mode:multiply" fill="#dae7f5" class="colordae0f5 svgShape"></path><path fill="url(#N)" d="M681.041 956.545c-.27-2.72-7.241-2.085-12.071 3.662-4.824 5.566-5.831 14.113-4.514 18.22a31.903 31.903 0 0 1 8.842-14.083c4.053-3.688 8.252-4.856 7.743-7.799Z"></path><path fill="url(#O)" d="M647.87 956.545c.27-2.72 7.241-2.085 12.071 3.662 4.824 5.566 5.831 14.113 4.515 18.22a31.926 31.926 0 0 0-8.845-14.083c-4.05-3.688-8.25-4.856-7.741-7.799Z"></path><path fill="url(#k)" d="M652.969 970.847c1.259 2.64 3.776 1.867 5.744 2.123 1.998-.403 4.67 2.79 5.743 5.457 1.238-1.866 2.007-8.863-4.065-11.206-5.4-1.738-8.734 1.391-7.422 3.626Z"></path><path d="M772.597 971.92a7.203 7.203 0 0 1 6.517 0c1.8 1.04 1.8 2.723 0 3.762a7.198 7.198 0 0 1-6.515 0c-1.8-1.04-1.8-2.723-.002-3.762Z" style="mix-blend-mode:multiply" fill="#dae7f5" class="colordae0f5 svgShape"></path><path fill="url(#P)" d="M790.699 954.217c-.242-2.433-6.48-1.866-10.804 3.278-4.315 4.981-5.217 12.63-4.038 16.305a28.551 28.551 0 0 1 7.913-12.602c3.626-3.302 7.384-4.346 6.929-6.98Z"></path><path fill="url(#Q)" d="M765.577 967.017c1.125 2.362 3.379 1.671 5.141 1.9 1.787-.36 4.179 2.497 5.139 4.883 1.11-1.669 1.796-7.93-3.637-10.028-4.835-1.556-7.818 1.245-6.643 3.245Z"></path><path style="mix-blend-mode:multiply" fill="url(#R)" d="M1354.055 561.191h-30.648l-2.719 8.134h33.367v-8.134z"></path><path fill="url(#S)" d="M1269.641 567.668c1.887-6.897 5.2-4.25 5.2-4.25a25.045 25.045 0 0 0 5.456.804c3.616.232 7.276 3.054 2.248 6.653a2.14 2.14 0 0 1-.178.135 2.508 2.508 0 0 1-1.152.335l-7.805.305c-1.505.112-4.469-2.714-3.769-3.982Z"></path><path fill="#471147" d="M1269.976 567.13c-.66 1.29 2.275 4.056 3.765 3.944l7.805-.304a7.85 7.85 0 0 0 1.496-.29c-.159.129-.307.254-.497.395a2.14 2.14 0 0 1-.178.135 2.508 2.508 0 0 1-1.152.335l-7.805.305c-1.406.103-4.159-2.267-3.864-3.716a1.792 1.792 0 0 1 .11-.264 5.728 5.728 0 0 1 .32-.54Z" class="color131147 svgShape"></path><path fill="#ffffff" d="M1273 561.244a40.802 40.802 0 0 1 4.69 2.453 2.255 2.255 0 0 0 .048 1.105 1.16 1.16 0 0 1 .07.169c.61.754 1.138 1.827-1.01 2.428a2.63 2.63 0 0 1-3.2-1.194 3.11 3.11 0 0 0-.703-1.506 2.785 2.785 0 0 0-.886-.725.735.735 0 0 0 .02-.095s.51-2.771.972-2.635Z" class="colorffffff svgShape"></path><path fill="url(#T)" d="M1281.331 489.924c-.278 11.994 1.293 29.45 1.767 41.332-5.828 9.77-8.436 21.137-10.54 30.476.234 2.004 3.763 3.808 5.126 2.193 5.162-9.296 14.01-20.11 16.8-31.397 2.204-12.824 5.028-29.005 6.67-42.249-4.405-.08-15.415-.275-19.823-.355Z"></path><path fill="url(#U)" d="M1315.097 566.574c0-7.033 4.462-7.235 4.462-7.235a18.427 18.427 0 0 0 6.336-1.628c3.87-1.607 9.324-.99 6.276 4.636a1.405 1.405 0 0 1-.108.208 2.713 2.713 0 0 1-.987.869l-9.74 5.713c-1.487.847-6.203-1.114-6.239-2.563Z"></path><path fill="#471147" d="M1315.124 565.944c.084 1.447 4.738 3.369 6.211 2.527l9.74-5.713a8.86 8.86 0 0 0 1.375-1.004c-.091.196-.167.387-.279.593a1.405 1.405 0 0 1-.108.208 2.713 2.713 0 0 1-.987.869l-9.74 5.713c-1.39.793-5.619-.875-6.175-2.279a1.451 1.451 0 0 1-.044-.287 4.359 4.359 0 0 1 .007-.627Z" class="color131147 svgShape"></path><path fill="#ffffff" d="M1316.91 558.413a41.02 41.02 0 0 1 5.19 1.026 2.285 2.285 0 0 0 .36 1.047c.042.045.075.09.113.136.799.554 1.611 1.434-.282 2.62a2.626 2.626 0 0 1-3.407-.242 3.13 3.13 0 0 0-1.098-1.246 2.8 2.8 0 0 0-1.055-.445.376.376 0 0 0-.009-.094s-.29-2.802.188-2.802Z" class="colorffffff svgShape"></path><path fill="url(#V)" d="M1312.202 502.599c-4.359.638-26.717-10.61-31.077-9.968.972 20.814 14.928 27.307 32.968 36.92 0 0 .483 21.386 2.541 30.25 1.087 1.704 5.048 1.79 5.57-.254.602-10.618 3.557-19.69 3.558-32.375.001-8.392-5.74-15.37-13.56-24.573Z"></path><path fill="#7c3eaf" d="M1287.297 457.166c-.896-4.906-.323-22.191.543-26.55.865-4.358 9.247-23.84 9.247-23.84 1.518.995 4.316 2.608 4.316 2.608-.95 2.696-6.722 19.53-7.196 22.945-.474 3.415-.66 16.137.604 17.654s-7.514 7.183-7.514 7.183Z" class="color423eaf svgShape"></path><path fill="url(#W)" d="M1332.39 426.84c-1.233 3.664-5.765 15.103-9.208 20.876-1.667 2.795-6.396 6.288-9.792 8.35a3.635 3.635 0 0 1-4.092-.224c-1.058-.804-2.253-1.825-3.518-2.98-3.041-2.774-5.094-5.415-6.659-5.735-12.912-2.635-14.049 19.172-18.103 44.895a17.862 17.862 0 0 0 9.452 13.297c9.438 5.297 19.318 5.309 22.686-1.205-1.26-12.128-2.44-21.999-.009-33.619 6.935-4.304 13.265-11.034 16.51-17.974 4.03-8.624 7.083-21.372 7.525-23.653 0 0-2.024-.885-4.791-2.029Z"></path><path fill="#a9d2fc" d="M1291.272 449.572c2.382-2.5 2.903-6.421 2.812-9.207a13.619 13.619 0 0 1-.277-4.82c.724-6.092 5.23-10.892 9.946-9.997 9.5 1.798 7.196 6.633 6.471 12.723-.672 5.644-3.692 9.223-8.051 9.37a4.577 4.577 0 0 0 1.953 3.645c-2.752 2.435-7.437 2.4-9.373 1.925-2.062-.506-4.526-2.062-3.481-3.64Z" class="colorfcd1a9 svgShape"></path><path fill="#491149" d="M1307.728 422.754c-.192-.774-1.624-1.35-6.695.31-.032.014-1.23.41-1.307.44-9.403 3.508-7.722 14.231-6.49 17.122a5.686 5.686 0 0 1 .55 3.375c3.627.038 4.666 2.13 7.085.22 1.735-1.366 4.307-2.942 4.762-3.633a2.822 2.822 0 0 0 .428-1.739c.271-5.085 2.462-1.857 2.323-.696.985-.417 1.028-2.465 1.078-4.74 8.107-5.43 4.122-9.662-1.734-10.66Z" class="color121149 svgShape"></path><path fill="#a9d2fc" d="M1332.876 427.04a3.2 3.2 0 0 0 0-2.716c-.516-.711-.848-4.031 1.096-4.316 0-.617 1.565-1.913 3.573-.443s2.45 3.573 1.74 4.806c-.712 1.234-2.262 3.222-2.578 4.29-.686-.294-3.831-1.62-3.831-1.62ZM1297.523 407.056c.387-.96-.182-3.87.64-5.134s2.024-2.467 3.731-1.455c1.708 1.012 2.213 2.163 1.96 3.105a2.018 2.018 0 0 1-.7 2.903 4.457 4.457 0 0 0-2.292 2.595 536.31 536.31 0 0 1-3.339-2.014Z" class="colorfcd1a9 svgShape"></path><path fill="url(#X)" d="M1328.007 455.591c-3.177 4.523-12.584 11.736-15.33 12.407-2.751.673-4.743 2.285-4.649 2.855a18.825 18.825 0 0 1 1.072 8.442c-.597 4.358-1.596 22.932 3.626 25.517.147-.229.302-.45.43-.698-1.26-12.128-2.44-21.999-.009-33.619a46.41 46.41 0 0 0 14.86-14.904Z"></path></g></g></g></svg>