<svg xmlns="http://www.w3.org/2000/svg" xmlns:xlink="http://www.w3.org/1999/xlink" viewBox="0 0 1775.588 1424.709" id="SuccessPath"><defs><linearGradient id="o" x1="1034.408" x2="1034.408" y1="649.674" y2="162.167" gradientUnits="userSpaceOnUse"><stop offset=".465" stop-color="#ffffff" class="stopColorffffff svgShape"></stop><stop offset=".829" stop-color="#dfe9f4" class="stopColordfe4f4 svgShape"></stop></linearGradient><linearGradient id="p" x1="909.543" x2="909.543" y1="649.674" y2="162.167" gradientUnits="userSpaceOnUse"><stop offset=".474" stop-color="#ffffff" class="stopColorffffff svgShape"></stop><stop offset=".891" stop-color="#e9f0f7" class="stopColore9edf7 svgShape"></stop></linearGradient><linearGradient id="a" x1="1339.348" x2="1556.634" y1="769.08" y2="769.08" gradientUnits="userSpaceOnUse"><stop offset="0" stop-color="#cfe0f1" class="stopColorcfd5f1 svgShape"></stop><stop offset=".283" stop-color="#e1ebf6" class="stopColore1e5f6 svgShape"></stop><stop offset=".719" stop-color="#f7fafd" class="stopColorf7f8fd svgShape"></stop><stop offset="1" stop-color="#ffffff" class="stopColorffffff svgShape"></stop></linearGradient><linearGradient id="r" x1="1264.975" x2="1348.636" y1="375.323" y2="375.323" xlink:href="#a"></linearGradient><linearGradient id="s" x1="1424.622" x2="1508.425" y1="462.026" y2="462.026" gradientUnits="userSpaceOnUse"><stop offset="0" stop-color="#d1e2f3" class="stopColord1d7f3 svgShape"></stop><stop offset=".347" stop-color="#dde9f6" class="stopColordde2f6 svgShape"></stop><stop offset=".979" stop-color="#fefeff" class="stopColorfefeff svgShape"></stop><stop offset="1" stop-color="#ffffff" class="stopColorffffff svgShape"></stop></linearGradient><linearGradient id="b" x1="1412.83" x2="1436.408" y1="461.666" y2="461.666" gradientUnits="userSpaceOnUse"><stop offset="0" stop-color="#857dfb" class="stopColor807dfb svgShape"></stop><stop offset=".213" stop-color="#7971ee" class="stopColor7471ee svgShape"></stop><stop offset=".702" stop-color="#625ad5" class="stopColor5e5ad5 svgShape"></stop><stop offset="1" stop-color="#5a52cc" class="stopColor5652cc svgShape"></stop></linearGradient><linearGradient id="t" x1="1420.884" x2="1428.354" y1="355.399" y2="355.399" xlink:href="#b"></linearGradient><linearGradient id="v" x1="1426.341" x2="1464.259" y1="297.561" y2="297.561" gradientUnits="userSpaceOnUse"><stop offset=".028" stop-color="#ff6ae4" class="stopColorff826a svgShape"></stop><stop offset="1" stop-color="#e33cc5" class="stopColore33c5c svgShape"></stop></linearGradient><linearGradient id="w" x1="1512.48" x2="1460.025" y1="322.861" y2="311.729" gradientUnits="userSpaceOnUse"><stop offset="0" stop-color="#e33cc5" class="stopColore33c5c svgShape"></stop><stop offset=".972" stop-color="#ff6ae4" class="stopColorff826a svgShape"></stop></linearGradient><linearGradient id="c" x1="817.993" x2="1022.938" y1="657.543" y2="657.543" gradientUnits="userSpaceOnUse"><stop offset="0" stop-color="#dae7f5" class="stopColordae0f5 svgShape"></stop><stop offset=".138" stop-color="#e1ecf7" class="stopColore1e6f7 svgShape"></stop><stop offset=".662" stop-color="#f7fafd" class="stopColorf7f8fd svgShape"></stop><stop offset="1" stop-color="#ffffff" class="stopColorffffff svgShape"></stop></linearGradient><linearGradient id="x" x1="403.575" x2="1042.897" y1="938.602" y2="938.602" gradientUnits="userSpaceOnUse"><stop offset="0" stop-color="#d1e2f3" class="stopColord1d7f3 svgShape"></stop><stop offset=".261" stop-color="#d5e4f4" class="stopColord5daf4 svgShape"></stop><stop offset=".498" stop-color="#e0ebf7" class="stopColore0e4f7 svgShape"></stop><stop offset=".725" stop-color="#f2f7fc" class="stopColorf2f4fc svgShape"></stop><stop offset=".844" stop-color="#ffffff" class="stopColorffffff svgShape"></stop></linearGradient><linearGradient id="y" x1="1170.448" x2="1450.74" y1="566.41" y2="566.41" gradientUnits="userSpaceOnUse"><stop offset="0" stop-color="#d1e2f3" class="stopColord1d7f3 svgShape"></stop><stop offset=".143" stop-color="#dbe8f6" class="stopColordbe0f6 svgShape"></stop><stop offset=".583" stop-color="#f5f8fc" class="stopColorf5f7fc svgShape"></stop><stop offset=".844" stop-color="#ffffff" class="stopColorffffff svgShape"></stop></linearGradient><linearGradient id="z" x1="717.508" x2="674.236" y1="745.985" y2="849.655" gradientUnits="userSpaceOnUse"><stop offset="0" stop-color="#ff5ae1" class="stopColorff5a72 svgShape"></stop><stop offset=".287" stop-color="#ff70e5" class="stopColorff7e70 svgShape"></stop><stop offset=".566" stop-color="#6eb6ff" class="stopColorff996e svgShape"></stop><stop offset=".812" stop-color="#6db6ff" class="stopColorffa96d svgShape"></stop><stop offset="1" stop-color="#6db6ff" class="stopColorffaf6d svgShape"></stop></linearGradient><linearGradient id="A" x1="762.779" x2="805.599" y1="766.757" y2="717.175" gradientUnits="userSpaceOnUse"><stop offset="0" stop-color="#a5238d" class="stopColora52348 svgShape"></stop><stop offset=".073" stop-color="#a50b89" class="stopColorac264a svgShape"></stop><stop offset=".45" stop-color="#ca32ae" class="stopColorca3254 svgShape"></stop><stop offset=".772" stop-color="#dc39be" class="stopColordc395a svgShape"></stop><stop offset="1" stop-color="#e33cc5" class="stopColore33c5c svgShape"></stop></linearGradient><linearGradient id="B" x1="403.575" x2="779.597" y1="934.896" y2="934.896" gradientUnits="userSpaceOnUse"><stop offset=".939" stop-color="#c62caa" class="stopColorc62c51 svgShape"></stop><stop offset=".949" stop-color="#cd31b1" class="stopColorcd3155 svgShape"></stop><stop offset=".963" stop-color="#df40c2" class="stopColordf4060 svgShape"></stop><stop offset=".978" stop-color="#fd59df" class="stopColorfd5971 svgShape"></stop><stop offset=".979" stop-color="#ff5ae1" class="stopColorff5a72 svgShape"></stop></linearGradient><linearGradient id="C" x1="823.443" x2="1080.666" y1="803.706" y2="358.183" gradientUnits="userSpaceOnUse"><stop offset="0" stop-color="#ff5ae1" class="stopColorff5a72 svgShape"></stop><stop offset=".086" stop-color="#ff61e2" class="stopColorff6172 svgShape"></stop><stop offset=".208" stop-color="#ff71e5" class="stopColorff7371 svgShape"></stop><stop offset=".35" stop-color="#ff6fe5" class="stopColorff916f svgShape"></stop><stop offset=".465" stop-color="#6db6ff" class="stopColorffaf6d svgShape"></stop></linearGradient><linearGradient id="D" x1="1231.371" x2="1436.316" y1="879.427" y2="879.427" xlink:href="#c"></linearGradient><linearGradient id="d" x1="672.606" x2="764.137" y1="1023.741" y2="1023.741" gradientTransform="translate(95.135)" gradientUnits="userSpaceOnUse"><stop offset="0" stop-color="#c4d4e5" class="stopColorc4c9e5 svgShape"></stop><stop offset=".251" stop-color="#cddbe9" class="stopColorcdd1e9 svgShape"></stop><stop offset=".665" stop-color="#e6edf4" class="stopColore6e8f4 svgShape"></stop><stop offset="1" stop-color="#ffffff" class="stopColorffffff svgShape"></stop></linearGradient><linearGradient id="E" x1="586.132" x2="677.662" y1="1023.741" y2="1023.741" xlink:href="#d"></linearGradient><linearGradient id="F" x1="47.557" x2="211.177" y1="1038.448" y2="1038.448" gradientTransform="matrix(-1 0 0 1 891.482 0)" gradientUnits="userSpaceOnUse"><stop offset="0" stop-color="#63318d" class="stopColor34318d svgShape"></stop><stop offset=".255" stop-color="#6c3798" class="stopColor3a3798 svgShape"></stop><stop offset=".702" stop-color="#4d46b5" class="stopColor4a46b5 svgShape"></stop><stop offset="1" stop-color="#5a52cc" class="stopColor5652cc svgShape"></stop></linearGradient><linearGradient id="e" x1="228.93" x2="244.686" y1="1090.272" y2="1062.982" gradientTransform="matrix(-1 0 0 1 891.482 0)" gradientUnits="userSpaceOnUse"><stop offset="0" stop-color="#662e94" class="stopColor362e94 svgShape"></stop><stop offset=".179" stop-color="#6e369d" class="stopColor3d369d svgShape"></stop><stop offset=".475" stop-color="#524bb6" class="stopColor514bb6 svgShape"></stop><stop offset=".849" stop-color="#756edf" class="stopColor716edf svgShape"></stop><stop offset="1" stop-color="#857ef1" class="stopColor807ef1 svgShape"></stop></linearGradient><linearGradient id="G" x1="197.753" x2="213.512" y1="1072.258" y2="1044.963" gradientTransform="matrix(-1 0 0 1 891.482 0)" xlink:href="#d"></linearGradient><linearGradient id="H" x1="268.707" x2="294.795" y1="1110.758" y2="1095.696" xlink:href="#e"></linearGradient><linearGradient id="I" x1="134.584" x2="241.314" y1="941.735" y2="941.735" gradientUnits="userSpaceOnUse"><stop offset=".365" stop-color="#c4d4e4" class="stopColorc4c9e4 svgShape"></stop><stop offset="1" stop-color="#ffffff" class="stopColorffffff svgShape"></stop></linearGradient><linearGradient id="f" x1="112.267" x2="216.808" y1="950.085" y2="950.085" gradientUnits="userSpaceOnUse"><stop offset="0" stop-color="#cee3f8" class="stopColorced3f8 svgShape"></stop><stop offset="1" stop-color="#bbd0e6" class="stopColorbbc0e6 svgShape"></stop></linearGradient><linearGradient id="J" x1="148.406" x2="171.35" y1="938.161" y2="938.161" xlink:href="#f"></linearGradient><linearGradient id="g" x1="340.396" x2="458.334" y1="575.731" y2="575.731" gradientUnits="userSpaceOnUse"><stop offset="0" stop-color="#c4d3e2" class="stopColorc4c8e2 svgShape"></stop><stop offset=".145" stop-color="#d7e1eb" class="stopColord7daeb svgShape"></stop><stop offset=".406" stop-color="#f4f7fa" class="stopColorf4f5fa svgShape"></stop><stop offset=".555" stop-color="#ffffff" class="stopColorffffff svgShape"></stop></linearGradient><linearGradient id="h" x1="259.574" x2="392.915" y1="510.463" y2="433.478" gradientUnits="userSpaceOnUse"><stop offset="0" stop-color="#6f67e9" class="stopColor6b67e9 svgShape"></stop><stop offset=".388" stop-color="#4c45b4" class="stopColor4b45b4 svgShape"></stop><stop offset=".797" stop-color="#582582" class="stopColor2c2582 svgShape"></stop><stop offset="1" stop-color="#193f6f" class="stopColor20196f svgShape"></stop></linearGradient><linearGradient id="i" x1="269.565" x2="386.423" y1="459.741" y2="392.273" gradientUnits="userSpaceOnUse"><stop offset="0" stop-color="#6f67e9" class="stopColor6b67e9 svgShape"></stop><stop offset=".684" stop-color="#652f92" class="stopColor362f92 svgShape"></stop><stop offset="1" stop-color="#193f6f" class="stopColor20196f svgShape"></stop></linearGradient><linearGradient id="j" x1="277.292" x2="403.496" y1="372.669" y2="372.669" gradientUnits="userSpaceOnUse"><stop offset="0" stop-color="#857dfb" class="stopColor807dfb svgShape"></stop><stop offset=".348" stop-color="#6861d6" class="stopColor6561d6 svgShape"></stop><stop offset="1" stop-color="#662e94" class="stopColor362e94 svgShape"></stop></linearGradient><linearGradient id="K" x1="1556.34" x2="1663.321" y1="678.852" y2="678.852" xlink:href="#g"></linearGradient><linearGradient id="L" x1="1483.028" x2="1603.98" y1="619.648" y2="549.816" xlink:href="#h"></linearGradient><linearGradient id="M" x1="1492.091" x2="1598.091" y1="573.639" y2="512.44" xlink:href="#i"></linearGradient><linearGradient id="N" x1="1499.1" x2="1613.578" y1="494.657" y2="494.657" xlink:href="#j"></linearGradient><linearGradient id="O" x1="458.735" x2="611.56" y1="772.545" y2="772.545" gradientUnits="userSpaceOnUse"><stop offset="0" stop-color="#d1e0f0" class="stopColord1d6f0 svgShape"></stop><stop offset=".29" stop-color="#d5e3f1" class="stopColord5daf1 svgShape"></stop><stop offset=".592" stop-color="#e2ebf5" class="stopColore2e5f5 svgShape"></stop><stop offset=".899" stop-color="#f6f9fc" class="stopColorf6f7fc svgShape"></stop><stop offset="1" stop-color="#ffffff" class="stopColorffffff svgShape"></stop></linearGradient><linearGradient id="k" x1="495.936" x2="550.236" y1="751.133" y2="751.133" gradientUnits="userSpaceOnUse"><stop offset="0" stop-color="#bbcee2" class="stopColorbbbfe2 svgShape"></stop><stop offset="1" stop-color="#cee1f4" class="stopColorced2f4 svgShape"></stop></linearGradient><linearGradient id="P" x1="572.616" x2="587.812" y1="780.826" y2="780.826" gradientUnits="userSpaceOnUse"><stop offset="0" stop-color="#a5bcd4" class="stopColora5acd4 svgShape"></stop><stop offset=".635" stop-color="#bed2e7" class="stopColorbec3e7 svgShape"></stop><stop offset="1" stop-color="#cee1f4" class="stopColorced2f4 svgShape"></stop></linearGradient><linearGradient id="Q" x1="458.735" x2="474.002" y1="780.843" y2="780.843" xlink:href="#k"></linearGradient><linearGradient id="R" x1="547.233" x2="566.742" y1="794.923" y2="794.923" gradientUnits="userSpaceOnUse"><stop offset="0" stop-color="#a5bcd4" class="stopColora5acd4 svgShape"></stop><stop offset=".516" stop-color="#bcd1e6" class="stopColorbcc2e6 svgShape"></stop><stop offset="1" stop-color="#cee1f4" class="stopColorced2f4 svgShape"></stop></linearGradient><linearGradient id="S" x1="479.993" x2="499.538" y1="794.943" y2="794.943" xlink:href="#k"></linearGradient><linearGradient id="T" x1="512.825" x2="534.006" y1="800.639" y2="800.639" xlink:href="#k"></linearGradient><linearGradient id="U" x1="484.608" x2="561.57" y1="743.733" y2="743.733" xlink:href="#k"></linearGradient><linearGradient id="V" x1="994.858" x2="1093.202" y1="950.937" y2="950.937" gradientUnits="userSpaceOnUse"><stop offset="0" stop-color="#c4d4e4" class="stopColorc4c9e4 svgShape"></stop><stop offset="1" stop-color="#ffffff" class="stopColorffffff svgShape"></stop></linearGradient><linearGradient id="l" x1="975.193" x2="1064.447" y1="942.493" y2="942.493" gradientUnits="userSpaceOnUse"><stop offset="0" stop-color="#847cfb" class="stopColor807cfb svgShape"></stop><stop offset=".014" stop-color="#837bfa" class="stopColor7f7bfa svgShape"></stop><stop offset=".448" stop-color="#625ad1" class="stopColor5e5ad1 svgShape"></stop><stop offset=".792" stop-color="#4d46b8" class="stopColor4a46b8 svgShape"></stop><stop offset="1" stop-color="#7c3eaf" class="stopColor423eaf svgShape"></stop></linearGradient><linearGradient id="W" x1="975.193" x2="1064.447" y1="951.013" y2="951.013" gradientUnits="userSpaceOnUse"><stop offset="0" stop-color="#d8e4f0" class="stopColord8def0 svgShape"></stop><stop offset=".551" stop-color="#c6d6e7" class="stopColorc6cce7 svgShape"></stop><stop offset="1" stop-color="#bdd0e3" class="stopColorbdc3e3 svgShape"></stop></linearGradient><linearGradient id="X" x1="975.193" x2="1064.447" y1="959.533" y2="959.533" xlink:href="#l"></linearGradient><linearGradient id="Y" x1="1370.813" x2="1486.182" y1="851.447" y2="851.447" xlink:href="#a"></linearGradient><linearGradient id="Z" x1="248.937" x2="303.984" y1="721.797" y2="721.797" xlink:href="#a"></linearGradient><linearGradient id="aa" x1="824.883" x2="896.883" y1="918.929" y2="918.929" xlink:href="#a"></linearGradient><linearGradient id="m" x1="658.555" x2="721.503" y1="1031.41" y2="1031.41" gradientTransform="translate(-274.347)" gradientUnits="userSpaceOnUse"><stop offset="0" stop-color="#c4d6e8" class="stopColorc4cae8 svgShape"></stop><stop offset=".095" stop-color="#ceddec" class="stopColorced3ec svgShape"></stop><stop offset=".409" stop-color="#e9eff6" class="stopColore9ebf6 svgShape"></stop><stop offset=".687" stop-color="#f9fbfd" class="stopColorf9fafd svgShape"></stop><stop offset=".899" stop-color="#ffffff" class="stopColorffffff svgShape"></stop></linearGradient><linearGradient id="ab" x1="630.781" x2="693.722" y1="1014.715" y2="1014.715" gradientTransform="translate(-275.617)" xlink:href="#m"></linearGradient><linearGradient id="n" x1="-2947.349" x2="-2924.146" y1="1012.493" y2="1012.493" gradientTransform="matrix(-1 0 0 1 -2575.371 0)" gradientUnits="userSpaceOnUse"><stop offset="0" stop-color="#7c3eaf" class="stopColor423eaf svgShape"></stop><stop offset=".304" stop-color="#7035a0" class="stopColor3a35a0 svgShape"></stop><stop offset=".891" stop-color="#1e4577" class="stopColor241e77 svgShape"></stop><stop offset="1" stop-color="#193f6f" class="stopColor1f196f svgShape"></stop></linearGradient><linearGradient id="ac" x1="-2976.038" x2="-2952.838" y1="1029.191" y2="1029.191" xlink:href="#n"></linearGradient><linearGradient id="ad" x1="-2965.962" x2="-2926.575" y1="973.753" y2="973.753" gradientTransform="matrix(-1 0 0 1 -2575.371 0)" gradientUnits="userSpaceOnUse"><stop offset="0" stop-color="#7c3eaf" class="stopColor423eaf svgShape"></stop><stop offset=".301" stop-color="#683097" class="stopColor353097 svgShape"></stop><stop offset=".746" stop-color="#1f477a" class="stopColor251f7a svgShape"></stop><stop offset="1" stop-color="#193f6f" class="stopColor1f196f svgShape"></stop></linearGradient><linearGradient id="ae" x1="2291.745" x2="2359.908" y1="1100.423" y2="1100.423" gradientTransform="rotate(-6.414 -534.42 18347.863)" gradientUnits="userSpaceOnUse"><stop offset="0" stop-color="#857dfb" class="stopColor807dfb svgShape"></stop><stop offset=".607" stop-color="#6860db" class="stopColor6460db svgShape"></stop><stop offset="1" stop-color="#5a52cc" class="stopColor5652cc svgShape"></stop></linearGradient><linearGradient id="af" x1="1556.682" x2="1556.682" y1="1537.372" y2="952.41" xlink:href="#o"></linearGradient><linearGradient id="ag" x1="1406.439" x2="1406.439" y1="1537.372" y2="952.41" xlink:href="#p"></linearGradient><linearGradient id="ah" x1="654.916" x2="654.916" y1="1433.122" y2="1209.503" xlink:href="#o"></linearGradient><linearGradient id="ai" x1="588.175" x2="588.175" y1="1433.122" y2="1209.503" xlink:href="#p"></linearGradient><linearGradient id="aj" x1="476.601" x2="641.434" y1="656.49" y2="656.49" xlink:href="#a"></linearGradient><linearGradient id="ak" x1="962.304" x2="1094.388" y1="1154.263" y2="1154.263" gradientUnits="userSpaceOnUse"><stop offset="0" stop-color="#cfe0f1" class="stopColorcfd5f1 svgShape"></stop><stop offset=".007" stop-color="#d0e0f1" class="stopColord0d5f1 svgShape"></stop><stop offset=".389" stop-color="#eaf1f9" class="stopColoreaecf9 svgShape"></stop><stop offset=".732" stop-color="#f9fbfd" class="stopColorf9fafd svgShape"></stop><stop offset="1" stop-color="#ffffff" class="stopColorffffff svgShape"></stop></linearGradient><linearGradient id="q" x1="1325.665" x2="1378.612" y1="636.413" y2="636.413" gradientUnits="userSpaceOnUse"><stop offset=".427" stop-color="#c4d4e4" class="stopColorc4c9e4 svgShape"></stop><stop offset=".577" stop-color="#d7e2ed" class="stopColord7daed svgShape"></stop><stop offset=".846" stop-color="#f4f7fa" class="stopColorf4f5fa svgShape"></stop><stop offset="1" stop-color="#ffffff" class="stopColorffffff svgShape"></stop></linearGradient><linearGradient id="al" x1="1313.992" x2="1366.967" y1="639.548" y2="639.548" gradientUnits="userSpaceOnUse"><stop offset="0" stop-color="#6bb5ff" class="stopColorffc16b svgShape"></stop><stop offset=".051" stop-color="#68b2fd" class="stopColorfdbc68 svgShape"></stop><stop offset=".469" stop-color="#f04ed3" class="stopColorf0934e svgShape"></stop><stop offset=".799" stop-color="#e83fc9" class="stopColore87a3f svgShape"></stop><stop offset="1" stop-color="#e539c6" class="stopColore57139 svgShape"></stop></linearGradient><linearGradient id="am" x1="462.914" x2="515.861" y1="543.552" y2="543.552" xlink:href="#q"></linearGradient><linearGradient id="an" x1="451.241" x2="504.216" y1="546.687" y2="546.687" gradientUnits="userSpaceOnUse"><stop offset="0" stop-color="#857dfb" class="stopColor807dfb svgShape"></stop><stop offset=".014" stop-color="#847cfa" class="stopColor7f7cfa svgShape"></stop><stop offset=".448" stop-color="#625ad1" class="stopColor5e5ad1 svgShape"></stop><stop offset=".792" stop-color="#4d46b8" class="stopColor4a46b8 svgShape"></stop><stop offset="1" stop-color="#7c3eaf" class="stopColor423eaf svgShape"></stop></linearGradient><radialGradient id="u" cx="1422.399" cy="247.242" r="13.909" gradientUnits="userSpaceOnUse"><stop offset=".001" stop-color="#857dfb" class="stopColor807dfb svgShape"></stop><stop offset=".271" stop-color="#6962d8" class="stopColor6762d8 svgShape"></stop><stop offset=".68" stop-color="#6822a2" class="stopColor443ca7 svgShape"></stop><stop offset=".884" stop-color="#662e94" class="stopColor362e94 svgShape"></stop><stop offset=".994" stop-color="#dae7f5" class="stopColordae0f5 svgShape"></stop></radialGradient></defs><g style="isolation:isolate" fill="#f4f6f8" class="color000000 svgShape"><g fill="#f4f6f8" class="color000000 svgShape"><g data-name="Speech bubble" fill="#f4f6f8" class="color000000 svgShape"><path fill="url(#o)" d="m1096.842 162.167-124.868 72.089v200.693h124.868V162.167z"></path><path fill="#f1f5f9" d="m971.974 234.256-124.861-72.089 124.861-72.086 124.868 72.086-124.868 72.089z" class="colorf1f3f9 svgShape"></path><path fill="url(#p)" d="m971.974 234.256-124.861-72.089v272.782h124.861V234.256z"></path><path style="mix-blend-mode:multiply" fill="url(#a)" d="M1472.27 720.358h-132.922l83.094 49.458-83.094 47.987h132.922l84.364-48.71-84.364-48.735z"></path><path fill="#b9cee4" d="m1339.348 817.803 83.094-47.987V636.345l-83.094 47.973v133.485z" class="colorb9bee4 svgShape"></path><path fill="#cce1f6" d="m1339.348 817.803-83.104-47.987V636.345l83.104 47.973v133.485z" class="colorccd1f6 svgShape"></path><path fill="#f4f6f8" d="m1339.348 684.318-83.104-47.973 83.104-47.956 83.094 47.956-83.094 47.973z" class="colorf4f4f9 svgShape"></path><path style="mix-blend-mode:multiply" fill="url(#r)" d="M1316.154 356.562h-51.179l31.994 19.043-31.994 18.478h51.179l32.482-18.756-32.482-18.765z"></path><path fill="#b9cee4" d="m1264.975 394.083 31.994-18.478v-87.068l-31.994 18.472v87.074z" class="colorb9bee4 svgShape"></path><path fill="#cce1f6" d="m1264.975 394.083-31.999-18.478v-87.068l31.999 18.472v87.074z" class="colorccd1f6 svgShape"></path><path fill="#f4f6f8" d="m1264.975 307.009-31.999-18.472 31.999-18.465 31.994 18.465-31.994 18.472z" class="colorf4f4f9 svgShape"></path><path d="M1447.362 459.558a7.919 7.919 0 0 0-2.661-2.354c-4.615-2.666-12.078-2.666-16.665 0-2.354 1.367-3.484 3.172-3.41 4.966h-.003v6.677h12.275a16.705 16.705 0 0 0 7.857-1.989 7.803 7.803 0 0 0 2.635-2.357h61.035v-4.943Z" style="mix-blend-mode:multiply" fill="url(#s)"></path><path fill="url(#b)" d="M1416.308 466.855c-2.323-1.34-3.485-3.102-3.478-4.858l.009-7.521c-.005 1.757 1.156 3.518 3.478 4.86 4.619 2.665 12.079 2.665 16.664.003 2.279-1.326 3.421-3.06 3.427-4.795l-.01 7.52c-.006 1.735-1.147 3.466-3.425 4.792-4.587 2.667-12.05 2.667-16.665 0Z"></path><path fill="#f6f8fb" d="M1416.317 459.336c-4.615-2.665-4.64-6.988-.055-9.652 4.588-2.666 12.05-2.666 16.665 0 4.619 2.664 4.64 6.987.054 9.655-4.585 2.662-12.045 2.662-16.664-.003Z" class="colorf6f6fb svgShape"></path><path d="M1424.623 456.661h11.184a4.33 4.33 0 0 0-.715-5.26h-10.47Z" style="mix-blend-mode:multiply" fill="#dfe9f4" class="colordfe4f4 svgShape"></path><path fill="url(#t)" d="M1421.986 456.027a1.866 1.866 0 0 1-1.102-1.539l.003-200.35a1.869 1.869 0 0 0 1.102 1.54 5.82 5.82 0 0 0 5.28 0 1.856 1.856 0 0 0 1.085-1.519l-.003 200.35a1.855 1.855 0 0 1-1.086 1.519 5.813 5.813 0 0 1-5.279 0Z"></path><path fill="#f6f8fb" d="M1421.989 255.666c-1.462-.844-1.47-2.213-.018-3.057a5.816 5.816 0 0 1 5.28 0c1.463.844 1.47 2.213.017 3.058a5.82 5.82 0 0 1-5.28 0Z" class="colorf6f6fb svgShape"></path><path fill="url(#u)" d="M1415.505 250.814a9.114 9.114 0 1 1 9.114 9.114 9.114 9.114 0 0 1-9.114-9.114Z"></path><path fill="#a5238d" d="M1464.167 301.547c-.269 1.583-1.794 7.48-1.794 7.48l-1.249-1.094 1.046-6.386Z" class="colora52348 svgShape"></path><path fill="url(#v)" d="m1461.526 306.002.002-.01a3.655 3.655 0 0 1 1.15-1.896c8.844-8.844-21.653-21.348-36.292-26.838 0 0-.101 28.871 0 33.14 5.94-.487 28.34 1.049 32.672 7.467l2.467-11.86Z"></path><path fill="url(#w)" d="M1467.193 309.815c-3.723-.838-5.934-2.088-5.668-3.81l-4.024 19.35c-1.58 7.486 42.477-6.338 57.937-17.6-12.563 3.37-37.14 4.557-48.245 2.06Z"></path><path fill="url(#c)" d="m1022.938 621.01-156.757-42.835-48.188 158.736h204.945V621.01z"></path><path fill="#f6f8fb" d="M817.993 544.924 510.395 367.332l48.187-27.821 307.599 177.592-48.188 27.821z" class="colorf6f6fb svgShape"></path><path fill="#bbd0e6" d="M817.993 736.911V544.924l48.188-27.821V709.09l-48.188 27.821z" class="colorbbc0e6 svgShape"></path><path fill="#cee3f8" d="M817.993 736.911 510.395 559.319V367.332l307.598 177.592v191.987z" class="colorced3f8 svgShape"></path><g style="mix-blend-mode:multiply" fill="#f4f6f8" class="color000000 svgShape"><path fill="#dae7f5" d="M817.993 566.351v-7.212l48.188-27.821v7.212l-48.188 27.821zM817.993 583.589v-7.212l48.188-27.821v7.212l-48.188 27.821zM817.993 600.826v-7.212l48.188-27.821v7.212l-48.188 27.821zM817.993 618.064v-7.212l48.188-27.821v7.211l-48.188 27.822zM817.993 635.301v-7.212l48.188-27.821v7.212l-48.188 27.821zM817.993 652.538v-7.211l48.188-27.822v7.212l-48.188 27.821zM817.993 669.776v-7.212l48.188-27.821v7.212l-48.188 27.821zM817.993 687.013v-7.211l48.188-27.822v7.212l-48.188 27.821zM817.993 704.251v-7.212l48.188-27.821v7.212l-48.188 27.821zM817.993 721.488v-7.212l48.188-27.821v7.212l-48.188 27.821zM817.993 736.911v-5.397l48.188-27.821v5.397l-48.188 27.821z" class="colordae0f5 svgShape"></path></g><path d="m817.993 593.615-17.46-27.853v7.212l17.46 27.852Zm0 17.237-17.46-27.853v7.212l17.46 27.853Zm-17.46-76.01v3.657l17.46 27.853v-7.212l-13.968-22.28Zm5.827 195.352-5.828-9.296v5.932Zm11.633-153.817-17.46-27.853v7.212l17.46 27.853Zm0 51.712-17.46-27.852v7.211l17.46 27.853Zm0 86.187-17.46-27.852v7.211l17.46 27.853Zm0 17.238-17.46-27.853v7.212l15.677 25.008 1.783 1.03Zm0-34.475-17.46-27.853v7.212l17.46 27.853Zm0-34.475-17.46-27.853v7.212l17.46 27.853Zm0-17.237-17.46-27.853v7.212l17.46 27.853Zm0 34.475-17.46-27.853v7.212l17.46 27.852Z" style="mix-blend-mode:multiply" fill="#dae7f5" class="colordae0f5 svgShape"></path><path fill="url(#x)" d="M905.263 796.145c-61.521 33.18-280.557 4.616-322.769 28.987 52.788 36.274 130.108 67.02 155.27 76.57l-.017-.006-334.172 193.222h13.085L746.008 904.77c43.645-24.962 222.138-71.075 296.889-79.981-15.253-28.643-76.113-61.822-137.634-28.643Z"></path><path style="mix-blend-mode:multiply" fill="url(#y)" d="m1450.74 526.825-280.292 79.171h280.292v-79.171z"></path><path fill="url(#z)" d="M732.922 897.214c32.444-18.73 40.282-67.93 46.186-123.33-63.96 12.97-143.047 20.32-183.825 43.864l137.64 79.466Z"></path><path fill="#6db6ff" d="m403.574 1087.363 329.348-190.149-137.639-79.466-329.348 190.149 137.639 79.466z" class="colorffaf6d svgShape"></path><path fill="#ff5ae1" d="M403.575 1094.918v-7.555l-137.64-79.466v7.555l137.64 79.466z" class="colorff5a72 svgShape"></path><path fill="#6db6ff" d="m841.1 600.168 329.348-190.149v158.933L841.1 759.101V600.168z" class="colorffaf6d svgShape"></path><path fill="url(#A)" d="M778.871 782.405a211.265 211.265 0 0 0 62.23-23.304V600.168c-49.968 28.849-55.955 99.794-62.23 182.237Z"></path><path fill="#e33cc5" d="M841.1 600.168v158.933l329.348-190.149V410.019L841.1 600.168z" class="colore33c5c svgShape"></path><path fill="url(#B)" d="m779.597 775.203-6.09-.328c-.204 2.327-.401 4.45-.598 6.317-3.673 34.804-3.526 94.971-39.987 116.022l-329.347 190.15v7.554L732.922 904.77c40.032-23.112 41.71-79.785 46.187-124.787v-.003l.03-.294c.15-1.51.304-2.997.458-4.482Z"></path><path fill="url(#C)" d="M1163.905 406.242 834.557 596.39c-51.596 28.77-57.457 137.413-61.05 178.484l6.09.328q.357-3.452.722-6.839c6.84-66.578 13.196-137.173 57.264-165.993a63.224 63.224 0 0 1 3.517-2.203l329.348-190.149Z"></path><path fill="#e33cc5" d="M1170.448 372.975v233.021l193.295-228.109-193.295-4.912z" class="colore33c5c svgShape"></path><path fill="#ff5ae1" d="m1163.905 369.198 6.543 3.777v37.044l-6.543-3.777v-37.044zM1163.905 565.174l6.543 3.778v37.044l-6.543-3.778v-37.044z" class="colorff5a72 svgShape"></path><path fill="#ff6ae4" d="m1357.2 374.109 6.543 3.778-193.295-4.912-6.543-3.777 193.295 4.911z" class="colorff826a svgShape"></path><path style="mix-blend-mode:multiply" fill="url(#D)" d="m1436.316 859.674-63.168-41.871h-33.8l-59.789-34.524-48.188 192.295h204.945v-115.9z"></path><path fill="#f6f8fb" d="M1231.371 783.588 923.773 605.996l48.188-27.821 307.598 177.592-48.188 27.821z" class="colorf6f6fb svgShape"></path><path fill="#bbd0e6" d="M1231.371 975.574V783.588l48.188-27.821v191.986l-48.188 27.821z" class="colorbbc0e6 svgShape"></path><path fill="#cee3f8" d="M1231.371 975.574 923.773 797.983V605.996l307.598 177.592v191.986z" class="colorced3f8 svgShape"></path><path d="m923.773 661.899 17.46-7.69v-7.213l-17.46 7.691Zm0 17.237 17.46-7.69v-7.212l-17.46 7.69Zm13.967-65.076-13.967 6.152v7.212l17.46-7.69v-3.657Zm3.494 194.004v-5.931l-5.828 2.567Zm-17.461-163.402 17.46-7.691v-7.212l-17.46 7.69Zm0 51.712 17.46-7.691v-7.212l-17.46 7.69Zm0 86.187 17.46-7.691v-7.212l-17.46 7.69Zm0 15.422 1.783 1.03 15.678-6.906v-7.212l-17.461 7.69Zm0-32.66 17.46-7.69v-7.212l-17.46 7.69Zm0-34.475 17.46-7.69v-7.212l-17.46 7.69Zm0-17.237 17.46-7.69v-7.212l-17.46 7.69Zm0 34.475 17.46-7.691v-7.212l-17.46 7.69Z" style="mix-blend-mode:multiply" fill="#dae7f5" class="colordae0f5 svgShape"></path><path d="M835.423 990.5c-18.473-10.669-43.613-15.125-67.677-13.396 17.355 1.244 34.15 5.7 47.475 13.395 31.8 18.36 31.797 48.124 0 66.483-13.325 7.694-30.123 12.15-47.48 13.395 24.063 1.729 49.206-2.728 67.682-13.395 31.797-18.359 31.8-48.124 0-66.483Z" style="mix-blend-mode:multiply" fill="url(#d)"></path><path d="M725.32 990.5c13.324-7.695 30.12-12.152 47.477-13.396-24.065-1.729-49.206 2.728-67.68 13.395-31.8 18.36-31.8 48.124 0 66.483 18.474 10.667 43.613 15.124 67.676 13.395-17.355-1.244-34.149-5.7-47.474-13.395-31.8-18.359-31.8-48.124 0-66.483Z" style="mix-blend-mode:multiply" fill="url(#E)"></path><path fill="#9e99a3" d="M704.255 1057.397c31.954 18.45 83.765 18.45 115.72-.002 31.957-18.45 31.96-48.36.002-66.813-31.954-18.448-83.769-18.448-115.724 0-31.958 18.453-31.954 48.363.002 66.815Zm9.546-61.302c26.683-15.403 69.946-15.403 96.63 0 26.682 15.406 26.681 40.384-.002 55.789-26.682 15.407-69.944 15.407-96.627 0-26.683-15.405-26.684-40.383-.001-55.789Z" class="colora399a3 svgShape"></path><path fill="#63318d" d="M810.431 977.3c-26.684-15.407-69.947-15.407-96.63-.002-17.514 10.112-23.533 24.346-18.054 37.293 2.868-6.779 8.886-13.202 18.054-18.496 26.683-15.403 69.946-15.403 96.63 0 9.168 5.294 15.185 11.717 18.053 18.496 5.477-12.947-.54-27.181-18.053-37.292Z" class="color34318d svgShape"></path><path d="M713.658 983.159c26.678-15.404 69.934-15.405 96.614 0 26.68 15.403 26.678 40.378 0 55.781-26.68 15.402-69.935 15.405-96.614 0-26.68-15.404-26.68-40.378 0-55.781Z" style="mix-blend-mode:screen" fill="#6b686d" class="color686a6d svgShape"></path><path d="M720.824 985.914c5.814-3.7 15.48-4.118 21.592-.933s6.353 8.766.54 12.466c-5.814 3.699-15.48 4.118-21.593.934-6.11-3.184-6.352-8.766-.54-12.467ZM750.123 979.131a9.898 9.898 0 0 1 8.938-.384c2.53 1.317 2.63 3.628.224 5.16a9.888 9.888 0 0 1-8.939.387c-2.53-1.318-2.63-3.63-.223-5.163Z" style="mix-blend-mode:screen" fill="#9e99a3" class="colora399a3 svgShape"></path><path fill="#f5f7fa" d="M713.658 985.95c26.678-15.402 69.934-15.404 96.614 0 12.726 7.347 19.365 16.87 19.953 26.494.64-10.554-5.999-21.228-19.953-29.285-26.68-15.405-69.936-15.404-96.614 0-13.957 8.057-20.599 18.73-19.953 29.285.586-9.624 7.227-19.147 19.953-26.494Z" class="colorf5f5fa svgShape"></path><path fill="#857dfb" d="M704.255 1038.6c31.954 18.45 83.765 18.45 115.72-.002 31.957-18.449 31.96-48.36.002-66.811-31.954-18.45-83.769-18.45-115.724-.002-31.958 18.453-31.954 48.364.002 66.815Zm9.546-61.302c26.683-15.404 69.946-15.404 96.63.001 26.682 15.406 26.681 40.384-.002 55.79-26.682 15.404-69.944 15.404-96.627 0-26.683-15.406-26.684-40.384-.001-55.791Z" class="color807dfb svgShape"></path><path fill="url(#F)" d="M819.976 1038.598c-31.956 18.453-83.767 18.453-115.721.002-15.772-9.106-23.745-21.003-23.95-32.938v17.862h.004c-.21 12.245 7.763 24.528 23.946 33.873 31.954 18.45 83.765 18.45 115.72-.002 16.185-9.343 24.156-21.626 23.946-33.871v-17.78c-.238 11.906-8.21 23.77-23.945 32.854Z"></path><path fill="#f5f7fa" d="M704.255 1041.111q-3.022-1.746-5.66-3.62l-13.763 7.947 11.926 6.886 13.764-7.948q-3.243-1.52-6.267-3.265Z" class="colorf5f5fa svgShape"></path><path fill="#cee1f4" d="m696.758 1066.097 13.764-7.948v-13.773l-13.764 7.948v13.773z" class="colorced2f4 svgShape"></path><path fill="url(#e)" d="M701.939 1062.204c0-7.11-4.989-15.752-11.143-19.304-3.202-1.85-6.077-1.944-8.11-.624l-.006-.011-79.335 45.807 15.166 27.54 79.335-45.808c2.497-.918 4.093-3.582 4.093-7.6Z"></path><path d="m691.708 1073.334.001.002-3.88 2.24c1.683-1.283 2.711-3.61 2.711-6.817 0-7.11-4.99-15.752-11.145-19.304-3.2-1.848-6.078-1.943-8.11-.624l5.258-3.034.006.009c2.03-1.32 4.908-1.224 8.11.623 6.154 3.555 11.143 12.195 11.143 19.304 0 4.019-1.596 6.683-4.094 7.6Z" style="mix-blend-mode:multiply" fill="url(#G)"></path><path fill="url(#H)" d="M620.349 1114.55a15.73 15.73 0 1 1-16.446-26.772c1.989-.975 4.635-.76 7.558.928 6.155 3.555 11.144 12.197 11.144 19.305 0 3.093-.944 5.381-2.52 6.694Z"></path><path d="m618.518 1115.609-.007.002.007-.002z" fill="#f4f6f8" class="color000000 svgShape"></path><path d="M225.558 919.865c-11.16-6.442-25.992-9.408-40.557-8.977h-22.835v3.744a60.736 60.736 0 0 0-12.086 5.233c-20.766 12.074-20.641 31.65.253 43.722a60.972 60.972 0 0 0 11.833 5.126v3.91h27.387c13.172-.222 26.231-3.209 36.254-9.032 20.768-12.077 20.666-31.652-.249-43.726Z" style="mix-blend-mode:multiply" fill="url(#I)"></path><path fill="#f6f8fb" d="M112.267 927.549c0-7.724 5.099-15.446 15.307-21.341 10.209-5.895 23.585-8.84 36.964-8.84 13.376 0 26.752 2.945 36.958 8.84 10.205 5.895 15.312 13.615 15.312 21.339.004 7.723-5.099 15.444-15.312 21.342-10.202 5.892-23.58 8.837-36.954 8.837-13.377 0-26.757-2.945-36.961-8.84-10.21-5.895-15.312-13.616-15.314-21.337Z" class="colorf6f6fb svgShape"></path><path fill="url(#f)" d="M201.496 948.89c-10.202 5.89-23.58 8.836-36.954 8.836-13.377 0-26.757-2.945-36.961-8.84-10.21-5.895-15.312-13.616-15.314-21.337v14.899c.002 7.72 5.105 15.44 15.314 21.335 10.204 5.895 23.584 8.84 36.961 8.84 13.374 0 26.752-2.945 36.954-8.836 10.213-5.895 15.316-13.62 15.312-21.343v-14.897c.004 7.722-5.099 15.444-15.312 21.342Z"></path><path fill="#dae7f5" d="M134.524 944.873c8.286 4.79 19.152 7.184 30.018 7.184 10.864 0 21.726-2.394 30.012-7.18 7.65-4.412 11.762-10.098 12.35-15.876-.588-5.78-4.7-11.46-12.35-15.878-8.29-4.786-19.152-7.18-30.016-7.18s-21.728 2.394-30.02 7.18c-7.648 4.416-11.757 10.095-12.347 15.876.59 5.78 4.699 11.464 12.353 15.874Z" class="colordae0f5 svgShape"></path><path fill="#bbd0e6" d="M134.519 913.123c8.291-4.786 19.155-7.18 30.02-7.18s21.725 2.394 30.015 7.18c7.65 4.418 11.762 10.098 12.35 15.878a13.895 13.895 0 0 0 .083-1.454c0-6.274-4.143-12.542-12.433-17.328s-19.152-7.183-30.016-7.183-21.728 2.395-30.02 7.183c-8.289 4.786-12.43 11.056-12.43 17.33a14.476 14.476 0 0 0 .083 1.45c.59-5.782 4.699-11.46 12.348-15.876Z" class="colorbbc0e6 svgShape"></path><path fill="#bbd0e6" d="m185.452 921.315 4.015-2.318v-2.904l-4.015 2.316v2.906z" class="colorbbc0e6 svgShape"></path><path fill="#f6f8fb" d="M166.93 926.167a3.415 3.415 0 0 1 .002-6.472 12.408 12.408 0 0 1 11.208 0c3.091 1.784 3.091 4.688 0 6.472l5.092 2.94c5.016-2.9 5.746-7.34 2.22-10.698l4.015-2.316-5.087-2.94-4.016 2.32c-5.81-2.033-13.502-1.613-18.522 1.286-2.857 1.65-4.43 3.84-4.428 6.174-.002 2.329 1.573 4.522 4.428 6.168 3.092 1.788 3.092 4.692 0 6.478a12.412 12.412 0 0 1-11.211 0c-3.09-1.786-3.09-4.69 0-6.472l-5.086-2.94c-5.02 2.9-5.752 7.34-2.23 10.694l-3.699 2.137 5.088 2.94 3.702-2.143c5.814 2.038 13.505 1.62 18.526-1.278 5.892-3.404 5.892-8.943-.002-12.35Z" class="colorf6f6fb svgShape"></path><path fill="#cee3f8" d="m139.616 941.905 5.088 2.938v-2.904l-5.088-2.941v2.907z" class="colorced3f8 svgShape"></path><path fill="#bbd0e6" d="m144.704 944.843 3.702-2.139v-2.909l-3.702 2.144v2.904z" class="colorbbc0e6 svgShape"></path><path fill="#cee3f8" d="m178.14 929.071 5.092 2.94v-2.904l-5.092-2.94v2.904z" class="colorced3f8 svgShape"></path><path fill="#bbd0e6" d="M150.63 932.01v-2.903c-2.192 1.265-2.82 3.092-1.902 4.686a5.045 5.045 0 0 1 1.903-1.782Z" class="colorbbc0e6 svgShape"></path><path fill="#cee3f8" d="m141.132 932.197.008 3.27.005-.007a5.587 5.587 0 0 0 .632 2.29l1.539-.89a6.235 6.235 0 0 1-2.174-4.655ZM161.842 932.007a5.134 5.134 0 0 1 1.904 1.786c.919-1.594.289-3.421-1.904-4.692-2.855-1.646-4.43-3.84-4.428-6.168v2.904c-.002 2.33 1.573 4.524 4.428 6.17Z" class="colorced3f8 svgShape"></path><path fill="#fc06cf" d="M171.35 932.326v-.059h-.004c0 .019.004.038.004.058Z" class="colorfcba06 svgShape"></path><path fill="#bbd0e6" d="M187.63 922.927c.007 2.236-1.449 4.475-4.398 6.18v2.904c3.025-1.746 4.477-4.053 4.394-6.348l.011.015v-2.75Z" class="colorbbc0e6 svgShape"></path><path fill="url(#J)" d="M166.932 938.517c-5.02 2.897-12.712 3.315-18.526 1.278v2.91c5.814 2.032 13.505 1.613 18.526-1.287 2.922-1.687 4.393-3.9 4.418-6.12v-2.942c-.004 2.23-1.479 4.462-4.418 6.16Z"></path><path fill="#bbd0e6" d="M178.14 919.695a12.408 12.408 0 0 0-11.208 0 3.944 3.944 0 0 0-2.326 3.238 2.894 2.894 0 0 0 .413 1.45 5.107 5.107 0 0 1 1.913-1.782 12.401 12.401 0 0 1 11.208-.002 5.018 5.018 0 0 1 1.903 1.788c.922-1.596.29-3.427-1.903-4.692Z" class="colorbbc0e6 svgShape"></path><path style="mix-blend-mode:multiply" fill="url(#g)" d="M340.396 571.275h117.939v8.913H340.396z"></path><path fill="#193f6f" d="m340.396 580.188-7.071-4.076v-79.648l7.071 4.08v79.644z" class="color20196f svgShape"></path><path fill="#0f2642" d="m340.396 580.188 7.067-4.076v-79.648l-7.067 4.08v79.644z" class="color110f42 svgShape"></path><path fill="url(#h)" d="m418.142 477.612-77.746-115.324s-78.939 117.01-79.462 117.861a30.992 30.992 0 0 0-4.863 16.315c0 12.46 8.235 24.913 24.696 34.425 32.934 19.008 86.323 19.008 119.252 0 16.466-9.512 24.696-21.965 24.696-34.425a31.93 31.93 0 0 0-6.573-18.852Z"></path><path fill="url(#i)" d="m408.536 430.952-68.14-101.066-68.137 101.066a27.995 27.995 0 0 0-5.766 16.52c0 10.918 7.22 21.835 21.647 30.17 28.859 16.665 75.65 16.665 104.508 0 14.43-8.335 21.65-19.252 21.65-30.17a28.065 28.065 0 0 0-5.762-16.52Z"></path><path fill="url(#j)" d="M399.86 392.454c-.391-.639-59.464-88.206-59.464-88.206s-59.074 87.567-59.467 88.206a23.158 23.158 0 0 0-3.637 12.202c0 9.327 6.162 18.65 18.482 25.763 24.647 14.23 64.596 14.23 89.243 0 12.32-7.113 18.479-16.436 18.479-25.763a23.163 23.163 0 0 0-3.636-12.202Z"></path><path style="mix-blend-mode:multiply" fill="url(#K)" d="M1556.34 674.81h106.981v8.085H1556.34z"></path><path fill="#193f6f" d="m1556.34 682.894-6.413-3.697V606.95l6.413 3.7v72.244z" class="color20196f svgShape"></path><path fill="#0f2642" d="m1556.34 682.894 6.411-3.697V606.95l-6.411 3.7v72.244z" class="color110f42 svgShape"></path><path fill="url(#L)" d="m1626.863 589.85-70.523-104.61s-71.604 106.14-72.078 106.91a28.111 28.111 0 0 0-4.411 14.8c0 11.302 7.47 22.598 22.4 31.226 29.875 17.242 78.304 17.242 108.173 0 14.936-8.628 22.401-19.924 22.401-31.226a28.963 28.963 0 0 0-5.962-17.1Z"></path><path fill="url(#M)" d="m1618.15 547.524-61.81-91.675-61.806 91.675a25.393 25.393 0 0 0-5.23 14.986c0 9.903 6.55 19.806 19.636 27.366 26.177 15.117 68.62 15.117 94.798 0 13.088-7.56 19.638-17.463 19.638-27.366a25.455 25.455 0 0 0-5.227-14.986Z"></path><path fill="url(#N)" d="M1610.28 512.604c-.355-.58-53.94-80.011-53.94-80.011s-53.585 79.43-53.941 80.01a21.007 21.007 0 0 0-3.299 11.069c0 8.46 5.59 16.917 16.765 23.37 22.357 12.907 58.594 12.907 80.95 0 11.176-6.453 16.763-14.91 16.763-23.37a21.01 21.01 0 0 0-3.298-11.068Z"></path><path d="M596.47 788.423a6.016 6.016 0 0 1 2.082-1.366h9.176l3.832-8.393-3.456-.53a9.68 9.68 0 0 1-3.23-1.071 3.29 3.29 0 0 1-1.919-2.844 21.908 21.908 0 0 0-.01-3.34c-.076-2.397 2.855-3.566 5.084-3.92l3.462-.534-3.928-8.383h-9.162a6.6 6.6 0 0 1-.874-.42 5.587 5.587 0 0 1-1.233-.951 37.31 37.31 0 0 0-2.901-2.895c-2.132-2.061-.605-3.929 1.022-4.872l2.523-1.468-10.632-6.138-2.524 1.463a10.45 10.45 0 0 1-8.408.612q-2.454-.91-5.012-1.674a8.614 8.614 0 0 1-1.645-.71c-2.04-1.182-2.148-2.755-1.665-3.813l.913-1.997-14.492-2.255-.914 2.006c-.585 1.293-2.6 3-6.736 2.968-1.922-.05-3.853-.05-5.765-.005a9.608 9.608 0 0 1-4.926-1.1 4.456 4.456 0 0 1-1.854-1.858l-.935-2.01-14.468 2.254.938 1.997c.604 1.297.34 3.354-3.256 4.523q-2.554.766-4.996 1.674a10.52 10.52 0 0 1-8.413-.607l-2.542-1.468-10.564 6.138 2.538 1.468c1.637.948 3.187 2.81 1.081 4.868a37.642 37.642 0 0 0-2.872 2.899c-2.006 2.084-5.553 2.25-7.785 1.91l-3.47-.54-3.832 8.384 3.461.534a9.75 9.75 0 0 1 3.228 1.076 3.297 3.297 0 0 1 1.92 2.844 21.64 21.64 0 0 0 .003 3.331 2.796 2.796 0 0 1-.951 2.167h-23.628v10.68h29.134a6.855 6.855 0 0 1 .862.414 5.753 5.753 0 0 1 1.232.948 36.617 36.617 0 0 0 2.912 2.898 3.763 3.763 0 0 1 .839 1.15h-13.72v11.328h20.755v-.46l1.732-1.003a10.418 10.418 0 0 1 8.41-.607c.638.23 1.284.455 1.934.68v9.76h19.84v-.023l.125.023.913-2.006a3.793 3.793 0 0 1 .252-.437v2.443h19.965l14.467-2.245-.94-2.006c-.538-1.155-.374-2.922 2.245-4.119h16.966l10.563-6.137-2.535-1.464c-1.64-.952-3.19-2.82-1.085-4.877a34.65 34.65 0 0 0 2.87-2.894Zm-34.036-4.73c-10.639 6.18-27.96 6.189-38.674 0-10.709-6.184-10.762-16.219-.124-22.398 10.65-6.189 27.961-6.189 38.675 0 10.712 6.184 10.77 16.21.123 22.398Z" style="mix-blend-mode:multiply" fill="url(#O)"></path><path fill="url(#k)" d="M542.228 743.35c-10.64-6.137-27.835-6.142-38.406 0-9.406 5.462-10.39 13.96-2.993 20.089a22.6 22.6 0 0 1 2.993-2.066c10.571-6.147 27.766-6.143 38.406 0a22.649 22.649 0 0 1 3.112 2.149c7.44-6.138 6.399-14.683-3.112-20.172Z"></path><path fill="#bbcee2" d="M547.139 719.098a2.644 2.644 0 0 0-.242 1.081l-.05 18.073a2.596 2.596 0 0 1 .24-1.076l.914-1.997.051-18.078ZM498.9 719.098l-.937-1.997-.052 18.078.938 1.997a2.68 2.68 0 0 1 .251 1.122l.052-18.082a2.638 2.638 0 0 0-.253-1.118ZM574.5 730.826a3.614 3.614 0 0 0-2.067 2.798l-.052 18.077a3.622 3.622 0 0 1 2.068-2.797l2.524-1.468.051-18.078Z" class="colorbbbfe2 svgShape"></path><path fill="#cee1f4" d="m471.667 730.826-2.54-1.468-.05 18.078 2.539 1.468a3.646 3.646 0 0 1 2.102 2.834l.051-18.082a3.655 3.655 0 0 0-2.102-2.83Z" class="colorced2f4 svgShape"></path><path fill="#bbcee2" d="M588.114 748.88c-2.2.346-5.077 1.492-5.083 3.824l-.053 18.078c.008-2.328 2.885-3.474 5.087-3.823l3.462-.534.05-18.078Z" class="colorbbbfe2 svgShape"></path><path fill="#242f3c" d="m583.1 754.61-.05 18.077q-.004.766-.06 1.532l.05-18.078c.041-.51.058-1.021.06-1.532Z" class="color242d3c svgShape"></path><path fill="#cee1f4" d="m463.392 755.787.007-2.986a3.295 3.295 0 0 0-1.923-2.843 9.506 9.506 0 0 0-3.225-1.072l-3.465-.54-.048 18.08 3.46.533a9.699 9.699 0 0 1 3.225 1.076 3.524 3.524 0 0 1 1.868 2.287l-.01 2.112c0 .594.025 1.187.07 1.776l.053-18.073c-.01-.12-.007-.23-.012-.35Z" class="colorced2f4 svgShape"></path><path fill="#242f3c" d="m463.404 756.229-.05 18.078c0-.032 0-.065-.003-.097l.053-18.073Z" class="color242d3c svgShape"></path><path fill="#bbcee2" d="m591.648 760.591-.052 18.073-3.833 8.393.049-18.074 3.836-8.392z" class="colorbbbfe2 svgShape"></path><path fill="#cee1f4" d="m458.786 768.983-.051 18.074-3.924-8.388.051-18.078 3.924 8.392z" class="colorced2f4 svgShape"></path><path fill="url(#P)" d="M584.348 768.436c-2.234-.34-5.783-.18-7.79 1.91a34.319 34.319 0 0 1-2.872 2.893 2.902 2.902 0 0 0-1.021 2.034l-.049 18.082a2.879 2.879 0 0 1 1.02-2.038 34.678 34.678 0 0 0 2.87-2.894c2.009-2.093 5.56-2.25 7.79-1.905l3.467.539.049-18.074Z"></path><path fill="url(#Q)" d="M472.96 773.24a35.972 35.972 0 0 1-2.908-2.895 5.595 5.595 0 0 0-1.237-.952 10.707 10.707 0 0 0-6.581-.957l-3.448.547-.051 18.074 3.448-.539a10.67 10.67 0 0 1 6.581.953 5.682 5.682 0 0 1 1.233.948 36.201 36.201 0 0 0 2.914 2.898 2.897 2.897 0 0 1 1.041 2.07l.05-18.073a2.9 2.9 0 0 0-1.042-2.075Z"></path><path fill="#bbcee2" d="m577.305 779.575-.05 18.083-10.563 6.137.05-18.077 10.563-6.143z" class="colorbbbfe2 svgShape"></path><path fill="#cee1f4" d="m480.045 785.718-.052 18.077-10.634-6.137.05-18.083 10.636 6.143z" class="colorced2f4 svgShape"></path><path fill="url(#R)" d="M564.2 784.25a10.5 10.5 0 0 0-8.411-.603 78.321 78.321 0 0 1-4.995 1.67c-2.672.875-3.507 2.232-3.511 3.405l-.05 18.078c.002-1.173.835-2.535 3.51-3.405q2.557-.759 4.994-1.67a10.483 10.483 0 0 1 8.411.603l2.544 1.467.05-18.077Z"></path><path fill="url(#S)" d="M497.632 786.03a8.725 8.725 0 0 0-1.649-.713 80.15 80.15 0 0 1-5.004-1.67 10.464 10.464 0 0 0-8.413.603l-2.521 1.468-.052 18.077 2.52-1.463a10.43 10.43 0 0 1 8.415-.607 80.27 80.27 0 0 0 5.006 1.67 8.722 8.722 0 0 1 1.647.709 3.212 3.212 0 0 1 1.906 2.737l.05-18.073a3.206 3.206 0 0 0-1.905-2.738Z"></path><path fill="#bbcee2" d="m548.474 791.842-.052 18.078-14.467 2.245.051-18.078 14.468-2.245z" class="colorbbbfe2 svgShape"></path><path fill="url(#T)" d="M533.07 792.08a4.436 4.436 0 0 0-1.858-1.862 9.57 9.57 0 0 0-4.92-1.096c-1.916.042-3.845.042-5.767-.009-4.133-.023-6.14 1.68-6.735 2.968l-.915 2.006-.05 18.078.914-2.006c.595-1.293 2.602-2.996 6.734-2.963 1.925.05 3.854.046 5.766 0a9.665 9.665 0 0 1 4.921 1.095 4.47 4.47 0 0 1 1.858 1.868l.937 2.006.051-18.078Z"></path><path fill="#f0f2f5" d="m574.776 778.117 2.529 1.458-10.563 6.143-2.542-1.468a10.5 10.5 0 0 0-8.411-.603 78.321 78.321 0 0 1-4.995 1.67c-3.598 1.173-3.865 3.23-3.257 4.523l.937 2.002-14.468 2.245-.937-2.006a4.436 4.436 0 0 0-1.857-1.863 9.57 9.57 0 0 0-4.92-1.096c-1.916.042-3.845.042-5.767-.009-4.133-.023-6.14 1.68-6.735 2.968l-.915 2.006-14.494-2.245.923-2.006c.476-1.059.367-2.628-1.672-3.806a8.725 8.725 0 0 0-1.649-.713 80.15 80.15 0 0 1-5.004-1.67 10.464 10.464 0 0 0-8.413.603l-2.521 1.468-10.636-6.143 2.525-1.463c1.627-.943 3.154-2.811 1.026-4.873a35.972 35.972 0 0 1-2.908-2.894 5.595 5.595 0 0 0-1.237-.952 10.707 10.707 0 0 0-6.581-.957l-3.448.547-3.924-8.392 3.454-.534c2.23-.354 5.157-1.518 5.088-3.92a21.302 21.302 0 0 1-.005-3.336 3.295 3.295 0 0 0-1.923-2.843 9.506 9.506 0 0 0-3.225-1.072l-3.465-.54 3.836-8.382 3.47.538c2.233.345 5.778.18 7.783-1.905a35.804 35.804 0 0 1 2.873-2.898c2.106-2.062.559-3.93-1.08-4.873l-2.54-1.468 10.564-6.142 2.546 1.472a10.483 10.483 0 0 0 8.407.608q2.445-.912 4.996-1.675c3.596-1.17 3.863-3.226 3.258-4.523l-.936-1.997 14.467-2.25.932 2.006a4.433 4.433 0 0 0 1.857 1.859 9.549 9.549 0 0 0 4.926 1.1c1.913-.046 3.842-.046 5.768.009 4.133.027 6.145-1.675 6.731-2.973l.918-2.001 14.49 2.25-.913 1.997c-.481 1.063-.379 2.636 1.665 3.814a8.337 8.337 0 0 0 1.643.709q2.559.766 5.014 1.675a10.449 10.449 0 0 0 8.407-.612l2.525-1.468 10.631 6.142-2.523 1.468c-1.626.943-3.155 2.807-1.02 4.877a36.007 36.007 0 0 1 2.899 2.894 5.892 5.892 0 0 0 1.234.948 10.657 10.657 0 0 0 6.586.953l3.452-.539 3.926 8.388-3.464.534c-2.228.354-5.154 1.523-5.082 3.92a22.04 22.04 0 0 1 .008 3.34 3.298 3.298 0 0 0 1.921 2.844 9.803 9.803 0 0 0 3.23 1.072l3.457.534-3.836 8.392-3.464-.547c-2.234-.34-5.783-.18-7.79 1.91a34.319 34.319 0 0 1-2.872 2.893c-2.106 2.062-.555 3.93 1.09 4.878ZM503.85 765.62c10.71 6.184 28.03 6.175 38.668-.005 10.647-6.188 10.59-16.214-.122-22.398-10.71-6.184-28.027-6.188-38.674 0-10.638 6.184-10.587 16.219.128 22.403Z" class="colorf0f0f5 svgShape"></path><path fill="#cee1f4" d="m512.875 794.087-.05 18.078-14.492-2.245.048-18.078 14.494 2.245z" class="colorced2f4 svgShape"></path><path fill="#e0e5eb" d="M550.217 740.157c-15.08-8.705-39.449-8.71-54.437 0-7.135 4.146-10.846 9.52-11.153 14.954.292 5.498 4.063 10.96 11.33 15.151 15.078 8.7 39.45 8.697 54.427-.009 7.14-4.15 10.854-9.52 11.164-14.954-.293-5.498-4.067-10.946-11.331-15.142Zm-7.87 25.463c-10.564 6.133-27.764 6.138-38.4 0-5.034-2.908-7.696-6.672-7.984-10.477.301-3.764 2.917-7.472 7.86-10.339 10.57-6.147 27.765-6.142 38.405-.004 5.031 2.908 7.69 6.671 7.98 10.476-.3 3.76-2.916 7.463-7.86 10.344Z" class="colore0e0eb svgShape"></path><path fill="url(#U)" d="M495.78 740.157c14.988-8.71 39.358-8.705 54.437 0 7.264 4.192 11.033 9.64 11.331 15.133.343-5.972-3.431-12.018-11.331-16.578-15.08-8.71-39.449-8.719-54.437 0-7.764 4.51-11.472 10.473-11.153 16.39.312-5.43 4.026-10.8 11.153-14.945Z"></path><path d="M1080.032 932.654c-9.325-5.38-21.722-7.86-33.894-7.5h-28.227v3.13a50.533 50.533 0 0 0-10.097 4.37c-17.36 10.095-17.26 26.455.208 36.548a50.81 50.81 0 0 0 9.889 4.283v3.27h32.03c11.013-.186 21.922-2.685 30.3-7.551 17.36-10.095 17.273-26.454-.21-36.55Z" style="mix-blend-mode:multiply" fill="url(#V)"></path><path fill="url(#l)" d="M988.36 952.168c-8.79-5.079-13.19-11.744-13.167-18.399l.037-8.525c-.016 6.663 4.371 13.327 13.168 18.405 17.48 10.089 45.72 10.089 63.081.004 8.63-5.018 12.947-11.575 12.968-18.146l-.042 8.52c-.019 6.57-4.336 13.127-12.961 18.145-17.362 10.093-45.605 10.093-63.083-.004Z"></path><path fill="url(#W)" d="M988.36 960.69c-8.79-5.08-13.19-11.745-13.167-18.4l.037-8.525c-.016 6.661 4.371 13.324 13.168 18.403 17.48 10.091 45.72 10.091 63.081.007 8.63-5.02 12.947-11.578 12.968-18.149l-.042 8.52c-.019 6.572-4.336 13.127-12.961 18.145-17.362 10.093-45.605 10.093-63.083-.002Z"></path><path fill="url(#X)" d="M988.36 969.208c-8.79-5.078-13.19-11.744-13.167-18.399l.037-8.525c-.016 6.663 4.371 13.326 13.168 18.405 17.48 10.089 45.72 10.089 63.081.005 8.63-5.021 12.947-11.576 12.968-18.147l-.042 8.52c-.019 6.57-4.336 13.127-12.961 18.145-17.362 10.093-45.605 10.093-63.083-.004Z"></path><path fill="#eff2f6" d="M988.398 943.65c-17.474-10.09-17.57-26.455-.21-36.54 17.365-10.093 45.615-10.093 63.087 0 17.482 10.085 17.564 26.45.204 36.543-17.361 10.085-45.6 10.085-63.081-.004Z" class="coloreff2f6 svgShape"></path><path fill="#bbd0e6" d="m1044.791 922.038-35.719 1.818 1.107-8.029h-9.868l-2.68 14.634 47.16-2.722v-5.701z" class="colorbbc0e6 svgShape"></path><path style="mix-blend-mode:multiply" fill="url(#Y)" d="M1441.387 825.579h-70.574l44.114 26.261-44.114 25.476h70.574l44.795-25.865-44.795-25.872z"></path><path fill="#bbd0e6" d="m1370.813 877.316 44.114-25.476v-51.726l-44.114 25.465v51.737z" class="colorbbc0e6 svgShape"></path><path fill="#cee3f8" d="m1370.813 877.316-44.118-25.476v-51.726l44.118 25.465v51.737z" class="colorced3f8 svgShape"></path><path fill="#f6f8fb" d="m1370.813 825.579-44.118-25.465 44.118-25.465 44.114 25.465-44.114 25.465z" class="colorf6f6fb svgShape"></path><path style="mix-blend-mode:multiply" fill="url(#Z)" d="M282.611 709.454h-33.674l21.049 12.529-21.049 12.157h33.674l21.373-12.342-21.373-12.344z"></path><path fill="#7c3eaf" d="m248.937 734.14 21.049-12.157v-24.679l-21.049 12.15v24.686z" class="color423eaf svgShape"></path><path fill="#5046e4" d="m248.937 734.14-21.051-12.157v-24.679l21.051 12.15v24.686z" class="color5652cc svgShape"></path><path fill="#857dfb" d="m248.937 709.454-21.051-12.15 21.051-12.15 21.049 12.15-21.049 12.15z" class="color807dfb svgShape"></path><path style="mix-blend-mode:multiply" fill="url(#aa)" d="M868.927 902.787h-44.044l27.538 16.388-27.538 15.896h44.044l27.956-16.135-27.956-16.149z"></path><path fill="#b9cee4" d="m824.883 935.071 27.538-15.896v-32.281l-27.538 15.893v32.284z" class="colorb9bee4 svgShape"></path><path fill="#cce1f6" d="m824.883 935.071-27.541-15.896v-32.281l27.541 15.893v32.284z" class="colorccd1f6 svgShape"></path><path fill="#f4f6f8" d="m824.883 902.787-27.541-15.893 27.541-15.893 27.538 15.893-27.538 15.893z" class="colorf4f4f9 svgShape"></path><path fill="#dfe9f4" d="m835.384 886.894-10.501-6.06-10.504 6.06 10.504 6.059 10.501-6.059z" class="colordfe4f4 svgShape"></path><path style="mix-blend-mode:multiply" fill="url(#m)" d="M384.209 1025.625h62.948v11.571h-62.948z"></path><path style="mix-blend-mode:multiply" fill="url(#ab)" d="M355.164 1008.932h62.941v11.567h-62.941z"></path><path fill="url(#n)" d="M348.775 1016.931c0-9.086 5.76-9.352 5.76-9.352a23.806 23.806 0 0 0 8.187-2.103c4.999-2.075 12.045-1.273 8.106 5.99a1.803 1.803 0 0 1-.134.27 3.556 3.556 0 0 1-1.276 1.12l-12.587 7.384c-1.92 1.092-8.012-1.438-8.056-3.309Z"></path><path fill="#102847" d="M348.811 1016.117c.107 1.865 6.12 4.35 8.02 3.261l12.587-7.377a11.916 11.916 0 0 0 1.772-1.293c-.114.248-.215.489-.362.759a1.803 1.803 0 0 1-.134.268 3.556 3.556 0 0 1-1.276 1.121l-12.587 7.384c-1.795 1.025-7.256-1.132-7.976-2.95a2.022 2.022 0 0 1-.057-.367 5.623 5.623 0 0 1 .013-.806Z" class="color121047 svgShape"></path><path fill="#ffffff" d="M351.118 1006.385a52.664 52.664 0 0 1 6.703 1.327 2.89 2.89 0 0 0 .469 1.354c.051.055.097.114.146.176 1.029.716 2.076 1.848-.368 3.382a3.392 3.392 0 0 1-4.4-.312 3.99 3.99 0 0 0-1.42-1.613 3.559 3.559 0 0 0-1.36-.572.897.897 0 0 0-.012-.125s-.38-3.617.242-3.617Z" class="colorffffff svgShape"></path><path fill="#0c2340" d="M351.707 917.531c5.692.104 19.231.348 24.918.447-2.116 17.105-6.38 32.64-9.223 49.208-3.056 16.099-6.498 27.415-9.502 40.811-1.1 2.493-6.134 1.55-7.153-.85-.795-12.34-1.713-27.37 1.946-41.608-.61-15.345-2.666-30.154-.986-48.008Z" class="color131147 svgShape"></path><path fill="url(#ac)" d="M377.466 1033.63c0-9.088 5.758-9.352 5.758-9.352a23.821 23.821 0 0 0 8.187-2.1c4.996-2.079 12.044-1.277 8.108 5.985a2.71 2.71 0 0 1-.137.272 3.527 3.527 0 0 1-1.28 1.118l-12.581 7.384c-1.92 1.092-8.012-1.435-8.055-3.307Z"></path><path fill="#102847" d="M377.497 1032.814c.11 1.864 6.123 4.35 8.024 3.261l12.581-7.374a12.05 12.05 0 0 0 1.777-1.296c-.119.25-.215.49-.36.759a2.71 2.71 0 0 1-.137.27 3.527 3.527 0 0 1-1.28 1.12l-12.581 7.383c-1.795 1.026-7.257-1.132-7.977-2.944a1.656 1.656 0 0 1-.055-.371 6.204 6.204 0 0 1 .008-.808Z" class="color121047 svgShape"></path><path fill="#ffffff" d="M379.808 1023.08a52.78 52.78 0 0 1 6.703 1.33 2.962 2.962 0 0 0 .463 1.354c.054.058.098.116.146.176 1.033.715 2.083 1.847-.365 3.382a3.393 3.393 0 0 1-4.4-.309 4.054 4.054 0 0 0-1.417-1.614 3.619 3.619 0 0 0-1.363-.574.885.885 0 0 0-.013-.121s-.377-3.623.246-3.623Z" class="colorffffff svgShape"></path><path fill="url(#ad)" d="M369.079 958.193c-1.556-7.352-21.057-8.488-17.425-37.178 5.63-.83 33.136 12.495 38.763 11.665.704 17.217-.958 33.246-1.065 50.05-.382 16.38-1.931 28.106-2.708 41.814-.676 2.644-5.794 2.534-7.194.334-2.8-12.045-6.16-26.729-4.875-41.37-1.676-8.11-3.673-16.704-5.496-25.315Z"></path><path fill="#5046e4" d="M353.443 878.721c-1.745-5.795-3.395-26.718-2.942-32.091.453-5.373 7.921-30.005 7.921-30.005 1.965.996 5.559 2.562 5.559 2.562-.78 3.379-5.46 24.463-5.57 28.645s1.39 19.55 3.121 21.209c1.731 1.658-8.089 9.68-8.089 9.68Z" class="color5652cc svgShape"></path><path fill="url(#ae)" d="M403.715 836.038c-.991 4.587-4.906 18.996-8.277 26.424-1.631 3.596-6.861 8.45-10.676 11.396a4.41 4.41 0 0 1-4.966.284c-1.385-.825-2.964-1.895-4.646-3.116-4.043-2.934-6.877-5.84-8.807-6.015-15.928-1.427-15.139 24.23-15.749 56.596 2.089 7.732 7.24 12.238 13.2 14.754 12.1 5.109 24.017 3.785 27.196-4.527-3.163-14.455-5.665-25.85-4.307-40.193a54.926 54.926 0 0 0 17.214-24.261c3.693-10.947 5.647-26.734 5.87-29.545 0 0-2.56-.793-6.052-1.797Z"></path><path fill="#a9d2fc" d="M357.207 869.024c2.535-3.338 2.632-8.137 2.145-11.484a16.525 16.525 0 0 1-.987-5.774c.047-7.446 4.832-13.846 10.64-13.405 11.7.88 9.576 7.025 9.527 14.467-.045 6.897-3.203 11.622-8.44 12.39a5.555 5.555 0 0 0 2.85 4.132c-2.989 3.309-8.643 3.9-11.043 3.59-2.556-.33-5.737-1.873-4.692-3.917Z" class="colorfcd1a9 svgShape"></path><path fill="#112a49" d="M373.419 834.453c-.336-.908-2.14-1.408-8.032 1.282-.036.02-1.428.662-1.515.708-10.865 5.504-7.385 18.208-5.508 21.527a6.9 6.9 0 0 1 1.122 3.995c4.379-.446 5.914 1.937 8.573-.695 1.907-1.882 4.796-4.131 5.25-5.026a3.422 3.422 0 0 0 .281-2.155c-.362-6.17 2.717-2.574 2.707-1.154 1.132-.636.906-3.113.658-5.862 9.041-7.648 3.661-12.211-3.536-12.62Z" class="color121149 svgShape"></path><path fill="#a9d2fc" d="M404.327 836.215c.258-.856.352-2.488-.368-3.276-.719-.788-1.569-4.747.738-5.353-.084-.744 1.628-2.52 4.249-1.018 2.62 1.5 3.439 3.977 2.748 5.56-.691 1.584-2.29 4.191-2.526 5.523-.869-.263-4.84-1.436-4.84-1.436ZM358.986 816.905c.336-1.211-.744-4.642.076-6.279s2.106-3.248 4.302-2.26c2.196.99 2.963 2.31 2.785 3.48a2.449 2.449 0 0 1-.45 3.595c-1.553 1.256-2.032 1.894-2.413 3.44a656.8 656.8 0 0 1-4.3-1.976Z" class="colorfcd1a9 svgShape"></path><path fill="#5046e4" d="M402.324 871.305c-3.219 5.885-13.586 15.858-16.806 17.04-3.227 1.183-5.41 3.398-5.219 4.072a22.847 22.847 0 0 1 2.436 10.036c-.129 5.336 1.182 27.87 7.83 30.281.146-.296.304-.583.425-.9-3.163-14.456-5.665-25.85-4.307-40.193a56.776 56.776 0 0 0 15.641-20.336Z" class="color5652cc svgShape"></path><path fill="url(#af)" d="m1631.806 952.409-150.248 86.742v240.572h150.248V952.409z"></path><path fill="#f6f8fb" d="m1481.558 1039.151-150.239-86.742 150.239-86.738 150.248 86.738-150.248 86.742z" class="colorf6f6fb svgShape"></path><path fill="url(#ag)" d="m1481.558 1039.151-150.239-86.742v327.314h150.239v-240.572z"></path><path fill="url(#ah)" d="m688.288 1209.502-66.744 38.533v86.593h66.744v-125.126z"></path><path fill="#f1f5f9" d="m621.544 1248.035-66.739-38.533 66.739-38.531 66.744 38.531-66.744 38.533z" class="colorf1f3f9 svgShape"></path><path fill="url(#ai)" d="m621.544 1248.035-66.739-38.533v125.126h66.739v-86.593z"></path><path style="mix-blend-mode:multiply" fill="url(#aj)" d="M577.434 619.528H476.601l63.035 37.52-63.035 36.404h100.833l64-36.951-64-36.973z"></path><path fill="#b9cee4" d="m476.601 693.452 63.035-36.404V543.991l-63.035 36.392v113.069z" class="colorb9bee4 svgShape"></path><path fill="#cce1f6" d="m476.601 693.452-63.044-36.404V543.991l63.044 36.392v113.069z" class="colorccd1f6 svgShape"></path><path fill="#f4f6f8" d="m476.601 580.383-63.044-36.392 63.044-36.38 63.035 36.38-63.035 36.392z" class="colorf4f4f9 svgShape"></path><path style="mix-blend-mode:multiply" fill="url(#ak)" d="M1048.559 1127.793h-86.255l45.143 26.87-45.143 26.07h86.255l45.829-26.461-45.829-26.479z"></path><path fill="#b9cee4" d="m962.304 1180.733 45.143-26.07v-101.059l-45.143 26.061v101.068z" class="colorb9bee4 svgShape"></path><path fill="#cce1f6" d="m962.304 1180.733-45.144-26.07v-101.059l45.144 26.061v101.068z" class="colorccd1f6 svgShape"></path><path fill="#f4f6f8" d="m962.304 1079.665-45.144-26.061 45.144-26.052 45.143 26.052-45.143 26.061z" class="colorf4f4f9 svgShape"></path><path d="M1370.796 625.564c-5.534-3.196-12.894-4.667-20.12-4.453h-11.328v1.857a29.87 29.87 0 0 0-5.993 2.596c-10.303 5.991-10.245 15.7.124 21.69a30.085 30.085 0 0 0 5.869 2.543v1.94h13.588c6.536-.11 13.01-1.593 17.984-4.48 10.304-5.994 10.25-15.702-.124-21.693Z" style="mix-blend-mode:multiply" fill="url(#q)"></path><path fill="url(#al)" d="M1321.809 647.265c-5.22-3.016-7.829-6.97-7.817-10.92l.022-9.007c-.01 3.956 2.596 7.908 7.816 10.925 10.376 5.986 27.136 5.986 37.44.004 5.122-2.981 7.685-6.872 7.697-10.773l-.026 9.004c-.008 3.899-2.572 7.79-7.69 10.77-10.305 5.988-27.069 5.988-37.442-.003Z"></path><path fill="#ffffff" d="M1321.83 638.263c-10.372-5.987-10.429-15.7-.126-21.688 10.308-5.99 27.077-5.99 37.446 0 10.375 5.987 10.425 15.7.12 21.692-10.304 5.982-27.064 5.982-37.44-.004Z" class="colorffffff svgShape"></path><path fill="#bdcdde" d="m1354.074 626.185-19.591.997.608-4.405h-5.413l-1.47 8.029 25.866-1.496v-3.125z" class="colorbdc2de svgShape"></path><path d="M508.044 532.702c-5.533-3.195-12.893-4.667-20.119-4.452h-11.329v1.857a29.874 29.874 0 0 0-5.992 2.595c-10.303 5.992-10.245 15.7.123 21.69a30.096 30.096 0 0 0 5.87 2.543v1.94h13.587c6.537-.109 13.01-1.592 17.984-4.479 10.305-5.994 10.251-15.702-.124-21.694Z" style="mix-blend-mode:multiply" fill="url(#am)"></path><path fill="url(#an)" d="M459.058 554.403c-5.22-3.015-7.83-6.97-7.817-10.92l.022-9.006c-.01 3.955 2.596 7.908 7.815 10.925 10.377 5.986 27.137 5.986 37.441.003 5.122-2.98 7.685-6.871 7.697-10.772l-.026 9.003c-.008 3.9-2.572 7.79-7.691 10.77-10.305 5.988-27.068 5.988-37.441-.003Z"></path><path fill="#ffffff" d="M459.078 545.402c-10.371-5.988-10.428-15.701-.125-21.689 10.308-5.99 27.076-5.99 37.446 0 10.375 5.988 10.425 15.7.12 21.692-10.304 5.983-27.064 5.983-37.44-.003Z" class="colorffffff svgShape"></path><path fill="#bdcdde" d="m491.323 533.323-19.592.997.609-4.404h-5.414l-1.47 8.028 25.867-1.496v-3.125z" class="colorbdc2de svgShape"></path><path fill="#ff6ae4" d="m353.479 732.186 53.405 30.834a14.554 14.554 0 0 1 6.584 11.405v34.57c0 4.2-2.948 5.903-6.584 3.803l-23.652-13.656-5.331 9.734s-3.885-9.759-6.845-16.763l-17.577-10.149a14.555 14.555 0 0 1-6.585-11.405v-34.57c0-4.2 2.948-5.902 6.585-3.803Z" class="colorff826a svgShape"></path><path fill="#ffffff" d="M381.488 786.104a6.48 6.48 0 0 0-2.932-5.078c-1.62-.935-2.932-.177-2.932 1.693a6.48 6.48 0 0 0 2.932 5.078c1.619.935 2.932.177 2.932-1.693ZM380.883 778.344l-4.655-2.688V754.33l4.655 2.687v21.327z" class="colorffffff svgShape"></path></g></g></g></svg>