<svg xmlns="http://www.w3.org/2000/svg" xmlns:xlink="http://www.w3.org/1999/xlink" viewBox="0 0 1730.015 1208.699" id="Targetingaudienceformarketing"><defs><linearGradient id="r" x1="1262.877" x2="1579.521" y1="-49.602" y2="498.842" gradientUnits="userSpaceOnUse"><stop offset=".551" stop-color="#5a52cc" class="stopColor5652cc svgShape"></stop><stop offset=".595" stop-color="#6a3299" class="stopColor393299 svgShape"></stop><stop offset=".6" stop-color="#652e93" class="stopColor362e93 svgShape"></stop></linearGradient><linearGradient id="a" x1="222.152" x2="475.09" y1="860.901" y2="860.901" gradientUnits="userSpaceOnUse"><stop offset=".011" stop-color="#c4d6e9" class="stopColorc4cae9 svgShape"></stop><stop offset=".448" stop-color="#e5edf5" class="stopColore5e7f5 svgShape"></stop><stop offset=".861" stop-color="#ffffff" class="stopColorffffff svgShape"></stop></linearGradient><linearGradient id="s" x1="289.016" x2="452.413" y1="1022.259" y2="1022.259" xlink:href="#a"></linearGradient><linearGradient id="b" x1="293.536" x2="330.018" y1="822.481" y2="885.669" gradientUnits="userSpaceOnUse"><stop offset=".006" stop-color="#abc2da" class="stopColorabb2da svgShape"></stop><stop offset="1" stop-color="#bbd0e6" class="stopColorbbc0e6 svgShape"></stop></linearGradient><linearGradient id="c" x1="270.536" x2="306.69" y1="753.089" y2="815.709" gradientUnits="userSpaceOnUse"><stop offset=".006" stop-color="#f6f8fb" class="stopColorf6f6fb svgShape"></stop><stop offset=".266" stop-color="#ecf1f7" class="stopColorecedf7 svgShape"></stop><stop offset=".713" stop-color="#d0dfee" class="stopColord0d3ee svgShape"></stop><stop offset="1" stop-color="#bbd0e6" class="stopColorbbc0e6 svgShape"></stop></linearGradient><linearGradient id="t" x1="334.96" x2="358.819" y1="996.862" y2="1038.188" xlink:href="#b"></linearGradient><linearGradient id="u" x1="319.917" x2="343.562" y1="951.477" y2="992.432" xlink:href="#c"></linearGradient><linearGradient id="v" x1="387.776" x2="845.817" y1="855.646" y2="855.646" gradientUnits="userSpaceOnUse"><stop offset=".514" stop-color="#c6d8ea" class="stopColorc6ccea svgShape"></stop><stop offset=".632" stop-color="#cddded" class="stopColorcdd2ed svgShape"></stop><stop offset=".805" stop-color="#e1eaf4" class="stopColore1e4f4 svgShape"></stop><stop offset="1" stop-color="#ffffff" class="stopColorffffff svgShape"></stop></linearGradient><linearGradient id="w" x1="649.1" x2="856.879" y1="385.928" y2="745.812" gradientTransform="rotate(120.001 577.716 687.626)" gradientUnits="userSpaceOnUse"><stop offset=".006" stop-color="#a50b89" class="stopColorbc3153 svgShape"></stop><stop offset="1" stop-color="#e33cc5" class="stopColore33c5c svgShape"></stop></linearGradient><linearGradient id="x" x1="1133.469" x2="1290.431" y1="1026.087" y2="1026.087" gradientUnits="userSpaceOnUse"><stop offset=".453" stop-color="#c4d4e4" class="stopColorc4c9e4 svgShape"></stop><stop offset="1" stop-color="#ffffff" class="stopColorffffff svgShape"></stop></linearGradient><linearGradient id="y" x1="1097.507" x2="1251.245" y1="1038.367" y2="1038.367" gradientUnits="userSpaceOnUse"><stop offset="0" stop-color="#fc06cf" class="stopColorfcba06 svgShape"></stop><stop offset="1" stop-color="#dc00b4" class="stopColordc8b00 svgShape"></stop></linearGradient><linearGradient id="d" x1="1111.948" x2="1236.808" y1="988.266" y2="988.266" gradientUnits="userSpaceOnUse"><stop offset="0" stop-color="#fc06cf" class="stopColorfcba06 svgShape"></stop><stop offset="1" stop-color="#e100b8" class="stopColore19100 svgShape"></stop></linearGradient><linearGradient id="z" x1="1150.657" x2="1184.395" y1="1020.832" y2="1020.832" xlink:href="#d"></linearGradient><linearGradient id="A" x1="300.466" x2="489.981" y1="56.894" y2="385.144" gradientTransform="matrix(-1 0 0 1 1075.4 0)" gradientUnits="userSpaceOnUse"><stop offset=".573" stop-color="#fc06cf" class="stopColorfcba06 svgShape"></stop><stop offset=".641" stop-color="#ec02c1" class="stopColoreca202 svgShape"></stop><stop offset=".7" stop-color="#e100b8" class="stopColore19100 svgShape"></stop></linearGradient><linearGradient id="B" x1="1354.804" x2="1462.471" y1="855.705" y2="855.705" gradientUnits="userSpaceOnUse"><stop offset=".421" stop-color="#c4d6e9" class="stopColorc4cae9 svgShape"></stop><stop offset=".712" stop-color="#e4ecf5" class="stopColore4e6f5 svgShape"></stop><stop offset="1" stop-color="#ffffff" class="stopColorffffff svgShape"></stop></linearGradient><linearGradient id="f" x1="978.512" x2="1015.597" y1="-56.089" y2="8.144" gradientTransform="rotate(120.001 940.09 530.565)" gradientUnits="userSpaceOnUse"><stop offset="0" stop-color="#7c3eaf" class="stopColor423eaf svgShape"></stop><stop offset=".218" stop-color="#534cc0" class="stopColor504cc0 svgShape"></stop><stop offset="1" stop-color="#857dfb" class="stopColor807dfb svgShape"></stop></linearGradient><linearGradient id="e" x1="596.145" x2="633.224" y1="603.651" y2="667.873" gradientTransform="matrix(-1 0 0 1 1588.96 -503.869)" gradientUnits="userSpaceOnUse"><stop offset="0" stop-color="#857dfb" class="stopColor807dfb svgShape"></stop><stop offset="1" stop-color="#5a52cc" class="stopColor5652cc svgShape"></stop></linearGradient><linearGradient id="C" x1="1040.163" x2="1077.241" y1="916.61" y2="980.83" xlink:href="#e"></linearGradient><linearGradient id="D" x1="975.692" x2="1098.08" y1="911.709" y2="911.709" gradientUnits="userSpaceOnUse"><stop offset=".348" stop-color="#c4d6e9" class="stopColorc4cae9 svgShape"></stop><stop offset=".427" stop-color="#cddcec" class="stopColorcdd2ec svgShape"></stop><stop offset=".801" stop-color="#f1f5fa" class="stopColorf1f3fa svgShape"></stop><stop offset="1" stop-color="#ffffff" class="stopColorffffff svgShape"></stop></linearGradient><linearGradient id="E" x1="1200.587" x2="1237.672" y1="253.466" y2="317.699" gradientTransform="rotate(120.001 940.09 530.565)" gradientUnits="userSpaceOnUse"><stop offset="0" stop-color="#e100b8" class="stopColore19100 svgShape"></stop><stop offset=".065" stop-color="#e304ba" class="stopColore39504 svgShape"></stop><stop offset="1" stop-color="#3e9eff" class="stopColorffd03e svgShape"></stop></linearGradient><linearGradient id="F" x1="1216.577" x2="1253.662" y1="244.233" y2="308.467" xlink:href="#f"></linearGradient><linearGradient id="g" x1="1391.892" x2="1532.661" y1="664.709" y2="664.709" gradientUnits="userSpaceOnUse"><stop offset="0" stop-color="#c6d6e7" class="stopColorc6cbe7 svgShape"></stop><stop offset=".258" stop-color="#cfddeb" class="stopColorcfd3eb svgShape"></stop><stop offset=".682" stop-color="#e8eef5" class="stopColore8eaf5 svgShape"></stop><stop offset="1" stop-color="#ffffff" class="stopColorffffff svgShape"></stop></linearGradient><linearGradient id="G" x1="1258.898" x2="1399.665" y1="664.71" y2="664.71" xlink:href="#g"></linearGradient><linearGradient id="H" x1="1257.424" x2="1509.06" y1="687.328" y2="687.328" gradientUnits="userSpaceOnUse"><stop offset="0" stop-color="#867ff4" class="stopColor7f7ff4 svgShape"></stop><stop offset=".108" stop-color="#7b74e6" class="stopColor7574e6 svgShape"></stop><stop offset=".513" stop-color="#5650b7" class="stopColor5250b7 svgShape"></stop><stop offset=".823" stop-color="#6e399a" class="stopColor3c399a svgShape"></stop><stop offset="1" stop-color="#64318f" class="stopColor34318f svgShape"></stop></linearGradient><linearGradient id="h" x1="1536.364" x2="1560.594" y1="767.03" y2="725.061" gradientUnits="userSpaceOnUse"><stop offset="0" stop-color="#7a41aa" class="stopColor4141aa svgShape"></stop><stop offset=".212" stop-color="#5049b3" class="stopColor4949b3 svgShape"></stop><stop offset=".563" stop-color="#655ecc" class="stopColor5e5ecc svgShape"></stop><stop offset="1" stop-color="#867ff4" class="stopColor7f7ff4 svgShape"></stop></linearGradient><linearGradient id="I" x1="1488.416" x2="1512.651" y1="739.326" y2="697.349" xlink:href="#g"></linearGradient><linearGradient id="J" x1="1597.539" x2="1637.659" y1="798.535" y2="775.372" xlink:href="#h"></linearGradient><linearGradient id="K" x1="1202.868" x2="1303.243" y1="826.735" y2="826.735" gradientUnits="userSpaceOnUse"><stop offset=".011" stop-color="#c4d6e9" class="stopColorc4cae9 svgShape"></stop><stop offset=".58" stop-color="#e3ebf4" class="stopColore3e6f4 svgShape"></stop><stop offset="1" stop-color="#f6f8fb" class="stopColorf6f6fb svgShape"></stop></linearGradient><linearGradient id="L" x1="1099.229" x2="1352.581" y1="547.456" y2="547.456" gradientUnits="userSpaceOnUse"><stop offset=".011" stop-color="#c4d6e9" class="stopColorc4cae9 svgShape"></stop><stop offset=".52" stop-color="#e5edf5" class="stopColore5e7f5 svgShape"></stop><stop offset="1" stop-color="#ffffff" class="stopColorffffff svgShape"></stop></linearGradient><linearGradient id="M" x1="1188.217" x2="1231.137" y1="291.338" y2="365.679" gradientUnits="userSpaceOnUse"><stop offset=".006" stop-color="#5a52cc" class="stopColor5652cc svgShape"></stop><stop offset="1" stop-color="#193f6f" class="stopColor20196f svgShape"></stop></linearGradient><linearGradient id="N" x1="1211.66" x2="1254.581" y1="277.805" y2="352.146" gradientUnits="userSpaceOnUse"><stop offset=".006" stop-color="#6db6ff" class="stopColorffaf6d svgShape"></stop><stop offset="1" stop-color="#e33cc5" class="stopColore33c5c svgShape"></stop></linearGradient><linearGradient id="O" x1="1092.026" x2="1177.711" y1="297.509" y2="445.92" gradientUnits="userSpaceOnUse"><stop offset=".421" stop-color="#857dfb" class="stopColor807dfb svgShape"></stop><stop offset=".452" stop-color="#7f77f4" class="stopColor7a77f4 svgShape"></stop><stop offset=".495" stop-color="#7068e1" class="stopColor6b68e1 svgShape"></stop><stop offset=".546" stop-color="#554ec2" class="stopColor524ec2 svgShape"></stop><stop offset=".573" stop-color="#7c3eaf" class="stopColor423eaf svgShape"></stop></linearGradient><linearGradient id="i" x1="1120.027" x2="1182.155" y1="305.451" y2="305.451" gradientUnits="userSpaceOnUse"><stop offset=".006" stop-color="#193f6f" class="stopColor20196f svgShape"></stop><stop offset=".242" stop-color="#7c3eaf" class="stopColor423eaf svgShape"></stop></linearGradient><linearGradient id="P" x1="1100.423" x2="1162.553" y1="316.769" y2="316.769" xlink:href="#i"></linearGradient><linearGradient id="Q" x1="1080.824" x2="1142.951" y1="328.088" y2="328.088" xlink:href="#i"></linearGradient><linearGradient id="R" x1="1061.22" x2="1123.35" y1="339.406" y2="339.406" xlink:href="#i"></linearGradient><linearGradient id="S" x1="863.538" x2="1047.429" y1="315.368" y2="633.877" gradientUnits="userSpaceOnUse"><stop offset="0" stop-color="#6db6ff" class="stopColorffaf6d svgShape"></stop><stop offset=".758" stop-color="#e33cc5" class="stopColore33c5c svgShape"></stop></linearGradient><linearGradient id="T" x1="947.073" x2="1102.81" y1="301.056" y2="570.8" gradientUnits="userSpaceOnUse"><stop offset="0" stop-color="#f6f8fb" class="stopColorf6f6fb svgShape"></stop><stop offset=".192" stop-color="#e5edf5" class="stopColore5e6f5 svgShape"></stop><stop offset=".702" stop-color="#bbd0e6" class="stopColorbbc0e6 svgShape"></stop></linearGradient><linearGradient id="U" x1="662.591" x2="936.119" y1="207.454" y2="681.219" gradientUnits="userSpaceOnUse"><stop offset=".697" stop-color="#a50b89" class="stopColorbc3153 svgShape"></stop><stop offset="1" stop-color="#6db6ff" class="stopColorffaf6d svgShape"></stop></linearGradient><linearGradient id="V" x1="968.454" x2="799.784" y1="467.783" y2="565.177" gradientUnits="userSpaceOnUse"><stop offset="0" stop-color="#7c3eaf" class="stopColor423eaf svgShape"></stop><stop offset=".427" stop-color="#625ad1" class="stopColor5e5ad1 svgShape"></stop><stop offset="1" stop-color="#857dfb" class="stopColor807dfb svgShape"></stop></linearGradient><linearGradient id="W" x1="771.909" x2="985.791" y1="276.735" y2="647.189" gradientUnits="userSpaceOnUse"><stop offset=".416" stop-color="#a3b9d0" class="stopColora3a9d0 svgShape"></stop><stop offset="1" stop-color="#cee3f8" class="stopColorced3f8 svgShape"></stop></linearGradient><linearGradient id="X" x1="912.786" x2="964.855" y1="439.738" y2="529.924" gradientUnits="userSpaceOnUse"><stop offset="0" stop-color="#f1f3f6" class="stopColorf1f1f6 svgShape"></stop><stop offset=".25" stop-color="#eaeff4" class="stopColoreaebf4 svgShape"></stop><stop offset=".609" stop-color="#d7e2ee" class="stopColord7daee svgShape"></stop><stop offset="1" stop-color="#bbd0e6" class="stopColorbbc0e6 svgShape"></stop></linearGradient><linearGradient id="Y" x1="873.663" x2="925.78" y1="462.326" y2="552.596" gradientUnits="userSpaceOnUse"><stop offset="0" stop-color="#f6f8fb" class="stopColorf6f6fb svgShape"></stop><stop offset=".306" stop-color="#eff4fa" class="stopColoreff0fa svgShape"></stop><stop offset=".743" stop-color="#dceaf9" class="stopColordce0f9 svgShape"></stop><stop offset="1" stop-color="#cee3f8" class="stopColorced3f8 svgShape"></stop></linearGradient><linearGradient id="Z" x1="924.737" x2="976.806" y1="432.839" y2="523.026" gradientUnits="userSpaceOnUse"><stop offset="0" stop-color="#dae7f5" class="stopColordae0f5 svgShape"></stop><stop offset="1" stop-color="#ffffff" class="stopColorffffff svgShape"></stop></linearGradient><linearGradient id="k" x1="756.644" x2="885.666" y1="889.198" y2="889.198" gradientTransform="translate(-37.651)" gradientUnits="userSpaceOnUse"><stop offset="0" stop-color="#c4d6e9" class="stopColorc4cae9 svgShape"></stop><stop offset=".095" stop-color="#cedded" class="stopColorced3ed svgShape"></stop><stop offset=".409" stop-color="#e9f0f7" class="stopColore9ebf7 svgShape"></stop><stop offset=".687" stop-color="#f9fbfd" class="stopColorf9fafd svgShape"></stop><stop offset=".899" stop-color="#ffffff" class="stopColorffffff svgShape"></stop></linearGradient><linearGradient id="j" x1="1171.95" x2="1203.872" y1="878.137" y2="878.137" gradientTransform="translate(-450.573)" gradientUnits="userSpaceOnUse"><stop offset="0" stop-color="#3e9eff" class="stopColorffd03e svgShape"></stop><stop offset=".308" stop-color="#2f93f8" class="stopColorf8c12f svgShape"></stop><stop offset=".903" stop-color="#e407bc" class="stopColore49807 svgShape"></stop><stop offset="1" stop-color="#e100b8" class="stopColore19100 svgShape"></stop></linearGradient><linearGradient id="aa" x1="804.082" x2="808.019" y1="750.315" y2="882.4" gradientTransform="matrix(-1 0 0 1 1538.45 0)" gradientUnits="userSpaceOnUse"><stop offset="0" stop-color="#193f6f" class="stopColor20196f svgShape"></stop><stop offset=".224" stop-color="#1c4375" class="stopColor231c75 svgShape"></stop><stop offset=".518" stop-color="#5a2685" class="stopColor2c2685 svgShape"></stop><stop offset=".849" stop-color="#7035a0" class="stopColor3a35a0 svgShape"></stop><stop offset="1" stop-color="#7c3eaf" class="stopColor423eaf svgShape"></stop></linearGradient><linearGradient id="ab" x1="1146.765" x2="1178.687" y1="892.678" y2="892.678" xlink:href="#j"></linearGradient><linearGradient id="ac" x1="786.519" x2="869.352" y1="707.141" y2="707.141" gradientTransform="matrix(-1 0 0 1 1538.45 0)" gradientUnits="userSpaceOnUse"><stop offset="0" stop-color="#e100b8" class="stopColore19100 svgShape"></stop><stop offset=".46" stop-color="#ec02c1" class="stopColoreca102 svgShape"></stop><stop offset="1" stop-color="#fc06cf" class="stopColorfcba06 svgShape"></stop></linearGradient><linearGradient id="ad" x1="380.05" x2="417.271" y1="695.088" y2="695.088" gradientTransform="translate(302.867)" gradientUnits="userSpaceOnUse"><stop offset="0" stop-color="#3e9eff" class="stopColorffd03e svgShape"></stop><stop offset=".37" stop-color="#ef22ca" class="stopColorefb122 svgShape"></stop><stop offset=".768" stop-color="#e109ba" class="stopColore19509 svgShape"></stop><stop offset="1" stop-color="#dc00b4" class="stopColordc8b00 svgShape"></stop></linearGradient><linearGradient id="ae" x1="472.349" x2="566.332" y1="762.422" y2="762.422" gradientTransform="translate(50.3)" xlink:href="#k"></linearGradient><linearGradient id="l" x1="1195.9" x2="1215.854" y1="879.344" y2="868.653" gradientTransform="rotate(-9.265 153.972 4922.012)" gradientUnits="userSpaceOnUse"><stop offset="0" stop-color="#7c3eaf" class="stopColor423eaf svgShape"></stop><stop offset=".488" stop-color="#612b8e" class="stopColor302b8e svgShape"></stop><stop offset="1" stop-color="#193f6f" class="stopColor20196f svgShape"></stop></linearGradient><linearGradient id="af" x1="1177.821" x2="1197.776" y1="886.154" y2="875.462" xlink:href="#l"></linearGradient><linearGradient id="ag" x1="327.854" x2="392.046" y1="613.365" y2="613.365" gradientTransform="matrix(-1 0 0 1 883.398 0)" gradientUnits="userSpaceOnUse"><stop offset="0" stop-color="#662e94" class="stopColor362e94 svgShape"></stop><stop offset="1" stop-color="#6f67e9" class="stopColor6b67e9 svgShape"></stop></linearGradient><linearGradient id="m" x1="691.529" x2="779.938" y1="888.849" y2="888.849" gradientTransform="translate(-228.072)" gradientUnits="userSpaceOnUse"><stop offset="0" stop-color="#c4d6e8" class="stopColorc4cae8 svgShape"></stop><stop offset=".095" stop-color="#ceddec" class="stopColorced3ec svgShape"></stop><stop offset=".409" stop-color="#e9eff6" class="stopColore9ebf6 svgShape"></stop><stop offset=".687" stop-color="#f9fbfd" class="stopColorf9fafd svgShape"></stop><stop offset=".899" stop-color="#ffffff" class="stopColorffffff svgShape"></stop></linearGradient><linearGradient id="ah" x1="609.179" x2="697.58" y1="865.401" y2="865.401" gradientTransform="translate(-186.014)" xlink:href="#m"></linearGradient><linearGradient id="n" x1="-829.94" x2="-797.352" y1="862.28" y2="862.28" gradientTransform="matrix(-1 0 0 1 -383.518 0)" gradientUnits="userSpaceOnUse"><stop offset="0" stop-color="#7c3eaf" class="stopColor423eaf svgShape"></stop><stop offset=".304" stop-color="#7035a0" class="stopColor3a35a0 svgShape"></stop><stop offset=".891" stop-color="#1e4577" class="stopColor241e77 svgShape"></stop><stop offset="1" stop-color="#193f6f" class="stopColor1f196f svgShape"></stop></linearGradient><linearGradient id="ai" x1="-870.234" x2="-837.649" y1="885.732" y2="885.732" xlink:href="#n"></linearGradient><linearGradient id="o" x1="-856.082" x2="-800.06" y1="807.87" y2="807.87" gradientTransform="matrix(-1 0 0 1 -383.518 0)" gradientUnits="userSpaceOnUse"><stop offset="0" stop-color="#7c3eaf" class="stopColor423eaf svgShape"></stop><stop offset=".301" stop-color="#683097" class="stopColor353097 svgShape"></stop><stop offset=".746" stop-color="#1f477a" class="stopColor251f7a svgShape"></stop><stop offset="1" stop-color="#193f6f" class="stopColor1f196f svgShape"></stop></linearGradient><linearGradient id="aj" x1="-858.247" x2="-799.729" y1="707.331" y2="707.331" gradientTransform="matrix(-1 0 0 1 -383.518 0)" gradientUnits="userSpaceOnUse"><stop offset="0" stop-color="#e100b8" class="stopColore19100 svgShape"></stop><stop offset=".652" stop-color="#f204c7" class="stopColorf2aa04 svgShape"></stop><stop offset="1" stop-color="#fc06cf" class="stopColorfcba06 svgShape"></stop></linearGradient><linearGradient id="ak" x1="2383.503" x2="2331.539" y1="728.071" y2="709.794" gradientTransform="translate(-1883.4)" gradientUnits="userSpaceOnUse"><stop offset="0" stop-color="#e100b8" class="stopColore19100 svgShape"></stop><stop offset="1" stop-color="#fc06cf" class="stopColorfcba06 svgShape"></stop></linearGradient><linearGradient id="al" x1="832.988" x2="921.788" y1="883.734" y2="883.734" xlink:href="#m"></linearGradient><linearGradient id="am" x1="746.244" x2="837.571" y1="868.475" y2="868.475" gradientTransform="translate(-186.014)" xlink:href="#m"></linearGradient><linearGradient id="an" x1="-967.775" x2="-934.109" y1="865.252" y2="865.252" xlink:href="#n"></linearGradient><linearGradient id="ao" x1="-1008.989" x2="-975.325" y1="879.945" y2="879.945" xlink:href="#n"></linearGradient><linearGradient id="ap" x1="-994.369" x2="-936.493" y1="799.504" y2="799.504" xlink:href="#o"></linearGradient><linearGradient id="p" x1="540.484" x2="569.653" y1="685.81" y2="685.81" gradientUnits="userSpaceOnUse"><stop offset="0" stop-color="#cee3f8" class="stopColorced3f8 svgShape"></stop><stop offset="1" stop-color="#bbd0e6" class="stopColorbbc0e6 svgShape"></stop></linearGradient><linearGradient id="aq" x1="552.247" x2="666.087" y1="687.981" y2="687.981" gradientUnits="userSpaceOnUse"><stop offset="0" stop-color="#f6f8fb" class="stopColorf6f6fb svgShape"></stop><stop offset=".289" stop-color="#e1eaf3" class="stopColore1e3f3 svgShape"></stop><stop offset=".738" stop-color="#c5d7ea" class="stopColorc5c9ea svgShape"></stop><stop offset="1" stop-color="#bbd0e6" class="stopColorbbc0e6 svgShape"></stop></linearGradient><linearGradient id="ar" x1="570.616" x2="596.699" y1="648.411" y2="648.411" xlink:href="#p"></linearGradient><radialGradient id="q" cx="-30.371" cy="744.144" r="655.072" gradientTransform="matrix(.866 .5 -1 .5774 1635.45 294.806)" gradientUnits="userSpaceOnUse"><stop offset="0" stop-color="#f1f3f6" class="stopColorf1f1f6 svgShape"></stop><stop offset=".534" stop-color="#f4f6f8" class="stopColorf5f5f8 svgShape"></stop><stop offset="1" stop-color="#ffffff" class="stopColorffffff svgShape"></stop></radialGradient></defs><g style="isolation:isolate" fill="#f4f6f8" class="color000000 svgShape"><g fill="#f4f6f8" class="color000000 svgShape"><path fill="url(#q)" d="M1728.612 679.101c.15-1.05.282-2.103.424-3.154l-3.998-2.306 4.615-2.667c.121-1.05.25-2.101.362-3.152l-7.528 4.346-196.383-113.383 152.225-87.886c-.48-.704-.967-1.405-1.453-2.106l-153.322 88.52L1327.17 443.93l194.181-112.113c-.425-.246-.837-.494-1.265-.74-.426-.246-.858-.486-1.285-.732L1324.62 442.459l-196.383-113.383 153.323-88.52q-1.823-.42-3.647-.838l-152.227 87.886-196.382-113.382 7.525-4.345c-1.816.064-3.639.138-5.459.207l-4.613 2.666-3.998-2.308c-1.823.08-3.645.158-5.467.244l6.518 3.763-226.762 130.923-131.83-76.11q-1.951.57-3.897 1.149l132.78 76.661-226.764 130.923-168.166-97.093c-.493.285-.99.564-1.48.847-.493.282-.973.57-1.464.855l168.166 97.09-226.765 130.923-132.78-76.662c-.665.75-1.332 1.5-1.994 2.248l131.83 76.113L7.92 743.24l-6.518-3.764c-.15 1.051-.284 2.104-.424 3.155l3.998 2.306-4.617 2.664c-.12 1.053-.249 2.106-.359 3.155l7.526-4.344 196.383 113.38L51.685 947.68c.479.705.966 1.404 1.452 2.105l153.321-88.52 196.385 113.381-194.184 112.112c.427.248.841.496 1.267.744.426.244.858.482 1.284.728L405.393 976.12l196.383 113.38-153.323 88.524q1.824.42 3.65.838l152.224-87.887 196.383 113.381-7.525 4.344c1.816-.062 3.64-.137 5.46-.205l4.616-2.666 3.996 2.309c1.82-.082 3.644-.159 5.465-.246l-6.518-3.764 226.764-130.92 131.83 76.111q1.951-.574 3.894-1.152l-132.779-76.66 226.764-130.922 168.168 97.09c.488-.282.988-.559 1.478-.846.49-.283.973-.57 1.465-.852l-168.166-97.091 226.764-130.924 132.779 76.662q1.002-1.125 1.996-2.25l-131.832-76.11 226.766-130.925ZM206.852 858.094 10.47 744.71l226.764-130.92 196.383 113.38Zm229.71-132.623L240.178 612.088l226.764-130.922 196.382 113.383ZM666.27 592.848 469.888 479.467 696.65 348.544l196.383 113.383Zm229.71-132.62L699.596 346.843 926.36 215.92l196.383 113.383ZM405.785 972.948 209.403 859.564l226.765-130.92 196.384 113.381Zm229.709-132.623L439.112 726.941l226.764-130.92 196.383 113.381Zm229.709-132.623L668.821 594.32l226.762-130.922 196.385 113.383Zm229.707-132.621L898.528 461.699l226.766-130.924 196.383 113.383Zm-490.191 512.72L408.337 974.42l226.762-130.922 196.386 113.383ZM834.43 955.18 638.047 841.797 864.81 710.875l196.382 113.383Zm229.708-132.623L867.755 709.176l226.762-130.924L1290.9 691.637Zm229.71-132.622-196.386-113.38 226.765-130.925 196.385 113.384Zm-490.195 512.721L607.27 1089.273l226.764-130.92 196.385 113.381Zm229.711-132.623L836.98 956.65l226.764-130.92 196.383 113.381Zm229.707-132.623-196.383-113.38 226.764-130.923 196.383 113.383Zm229.711-132.619-196.387-113.383 226.766-130.924 196.383 113.383Z" data-name="Linear elements"></path><g data-name="Web page" fill="#f4f6f8" class="color000000 svgShape"><path fill="#f1f3f6" d="M1536.007 518.002c0 7.982-5.65 11.244-12.565 7.256l-346.52-200.064c-6.911-3.991-12.564-13.784-12.564-21.763V13.259c0-7.98 5.653-11.245 12.565-7.256l346.52 200.065c6.913 3.99 12.564 13.781 12.564 21.762Z" class="colorf1f1f6 svgShape"></path><path fill="url(#r)" d="M1530.897 201.765 1184.382 1.7c-3.424-1.977-6.537-2.168-8.81-.892l-.003-.002-.025.016c-.027.013-.047.027-.072.041l-7.358 4.246.004.002c2.27-1.276 5.383-1.085 8.805.892l346.52 200.065c6.913 3.99 12.564 13.781 12.564 21.762v290.172c0 3.816-1.303 6.54-3.41 7.922l6.693-3.866-.008-.013c2.56-1.18 4.18-4.082 4.18-8.344V223.527c0-7.98-5.652-17.773-12.565-21.762Z"></path><path fill="#847cfb" d="M1523.442 206.068 1176.922 6.003c-6.911-3.99-12.564-.724-12.564 7.256v13.903l371.649 214.573V227.83c0-7.98-5.65-17.772-12.565-21.762Z" class="color807cfb svgShape"></path><path fill="#ffffff" d="m1177.313 14.725 9.891 5.712v11.421l-9.891-5.711V14.725zM1196.685 25.91l9.89 5.71v11.422l-9.89-5.712V25.91zM1216.056 37.093l9.892 5.711v11.421l-9.892-5.711V37.093zM1184.535 54.638l176.306 101.79a16.515 16.515 0 0 1 8.258 14.303v242.298a5.412 5.412 0 0 1-8.118 4.687l-176.306-101.79a16.515 16.515 0 0 1-8.258-14.303V59.325a5.412 5.412 0 0 1 8.118-4.687Z" class="colorffffff svgShape"></path><path fill="#3e9eff" d="M1176.417 208.195c6.598 2.667 18.932-22.666 29.924-17.632 14.178 6.494 22.34 50.966 41.674 60.966s51.625-114.792 121.084-45.334V413.03a5.412 5.412 0 0 1-8.118 4.687l-176.306-101.79a16.515 16.515 0 0 1-8.258-14.303Z" class="colorffd03e svgShape"></path><path fill="#5046e4" d="m1405.149 228.447-19.39-11.195v-22.391l19.39 11.196v22.39z" class="color5652cc svgShape"></path><path fill="#bbd0e6" d="m1497.769 266.651-80.096-46.244v-7.12l80.096 46.244v7.12zM1461.458 260.003l-43.785-25.28v-7.121l43.785 25.281v7.12zM1497.769 312.651l-80.096-46.244v-7.12l80.096 46.244v7.12zM1461.458 306.003l-43.785-25.28v-7.121l43.785 25.281v7.12zM1497.769 358.651l-80.096-46.244v-7.12l80.096 46.244v7.12zM1461.458 352.003l-43.785-25.28v-7.121l43.785 25.281v7.12z" class="colorbbc0e6 svgShape"></path><path fill="#857dfb" d="m1405.149 274.447-19.39-11.195v-22.391l19.39 11.196v22.39z" class="color807dfb svgShape"></path><path fill="#662e94" d="m1405.149 320.447-19.39-11.195v-22.391l19.39 11.196v22.39z" class="color362e94 svgShape"></path><path fill="#cee3f8" d="M1389.226 331.136c-2.471-1.427-4.473-.27-4.473 2.583a9.885 9.885 0 0 0 4.473 7.748c2.47 1.425 4.472.27 4.472-2.584a9.88 9.88 0 0 0-4.472-7.747ZM1407.15 341.483c-2.471-1.426-4.473-.27-4.473 2.583a9.881 9.881 0 0 0 4.472 7.748c2.471 1.427 4.473.27 4.473-2.583a9.883 9.883 0 0 0-4.473-7.748ZM1425.075 351.832c-2.473-1.427-4.474-.27-4.474 2.583a9.881 9.881 0 0 0 4.472 7.748c2.47 1.427 4.473.27 4.473-2.583a9.89 9.89 0 0 0-4.47-7.748ZM1442.997 362.18c-2.47-1.426-4.475-.269-4.473 2.584a9.88 9.88 0 0 0 4.473 7.747c2.47 1.426 4.473.27 4.473-2.583a9.885 9.885 0 0 0-4.473-7.747Z" class="colorced3f8 svgShape"></path><path fill="#a3b9d0" d="M1460.92 372.528c-2.47-1.427-4.474-.27-4.474 2.583a9.893 9.893 0 0 0 4.475 7.748c2.47 1.427 4.473.27 4.473-2.583a9.893 9.893 0 0 0-4.473-7.748Z" class="colora3a9d0 svgShape"></path><path fill="#cee3f8" d="M1478.845 382.877c-2.471-1.427-4.475-.27-4.475 2.583a9.885 9.885 0 0 0 4.475 7.747c2.468 1.428 4.472.27 4.472-2.582a9.886 9.886 0 0 0-4.472-7.748ZM1496.769 393.224c-2.471-1.425-4.473-.269-4.473 2.584a9.889 9.889 0 0 0 4.47 7.748c2.471 1.426 4.475.27 4.475-2.583a9.888 9.888 0 0 0-4.472-7.749ZM1389.226 351.833c-2.471-1.427-4.473-.27-4.473 2.583a9.893 9.893 0 0 0 4.473 7.747c2.47 1.427 4.474.27 4.472-2.583a9.88 9.88 0 0 0-4.472-7.747ZM1407.15 362.18c-2.471-1.426-4.473-.269-4.473 2.584a9.885 9.885 0 0 0 4.472 7.747c2.471 1.426 4.473.27 4.473-2.582a9.88 9.88 0 0 0-4.473-7.748ZM1425.075 372.53c-2.473-1.428-4.474-.271-4.474 2.582a9.882 9.882 0 0 0 4.472 7.747c2.47 1.427 4.473.27 4.473-2.582a9.89 9.89 0 0 0-4.47-7.748ZM1442.997 382.878c-2.473-1.427-4.475-.27-4.473 2.583a9.879 9.879 0 0 0 4.473 7.746c2.47 1.428 4.473.27 4.473-2.582a9.889 9.889 0 0 0-4.473-7.747ZM1460.92 393.225c-2.47-1.426-4.474-.27-4.474 2.583a9.895 9.895 0 0 0 4.475 7.748c2.47 1.426 4.473.269 4.47-2.582a9.884 9.884 0 0 0-4.47-7.749ZM1478.845 403.574c-2.471-1.427-4.475-.27-4.475 2.583a9.895 9.895 0 0 0 4.475 7.747c2.47 1.427 4.472.27 4.472-2.582a9.885 9.885 0 0 0-4.472-7.748Z" class="colorced3f8 svgShape"></path><path fill="#ff5ae1" d="M1496.769 413.922c-2.471-1.426-4.473-.27-4.473 2.584a9.884 9.884 0 0 0 4.473 7.746c2.468 1.427 4.472.27 4.472-2.582a9.886 9.886 0 0 0-4.472-7.748Z" class="colorff5a72 svgShape"></path><path fill="#cee3f8" d="M1389.226 372.528c-2.471-1.427-4.473-.27-4.473 2.583a9.887 9.887 0 0 0 4.473 7.748c2.47 1.427 4.472.27 4.472-2.583a9.883 9.883 0 0 0-4.472-7.748Z" class="colorced3f8 svgShape"></path><path fill="#a3b9d0" d="M1407.15 382.877c-2.471-1.427-4.473-.27-4.473 2.583a9.884 9.884 0 0 0 4.472 7.747c2.471 1.428 4.473.27 4.473-2.582a9.88 9.88 0 0 0-4.473-7.748Z" class="colora3a9d0 svgShape"></path><path fill="#cee3f8" d="M1425.075 393.224c-2.473-1.425-4.474-.269-4.474 2.584a9.882 9.882 0 0 0 4.472 7.748c2.47 1.426 4.473.269 4.473-2.583a9.886 9.886 0 0 0-4.47-7.749ZM1442.999 403.573c-2.473-1.427-4.475-.27-4.475 2.583a9.882 9.882 0 0 0 4.473 7.748c2.47 1.427 4.473.27 4.473-2.583a9.89 9.89 0 0 0-4.471-7.748ZM1460.92 413.922c-2.47-1.427-4.474-.27-4.472 2.583a9.884 9.884 0 0 0 4.473 7.747c2.47 1.427 4.473.27 4.473-2.583a9.89 9.89 0 0 0-4.473-7.747ZM1478.845 424.27c-2.471-1.427-4.475-.27-4.475 2.582a9.895 9.895 0 0 0 4.475 7.748c2.47 1.427 4.472.27 4.472-2.583a9.887 9.887 0 0 0-4.472-7.748Z" class="colorced3f8 svgShape"></path><path fill="#a3b9d0" d="M1496.769 434.618c-2.471-1.427-4.473-.27-4.473 2.583a9.89 9.89 0 0 0 4.47 7.748c2.471 1.426 4.475.27 4.475-2.584a9.888 9.888 0 0 0-4.472-7.747Z" class="colora3a9d0 svgShape"></path><path fill="#cee3f8" d="M1389.226 393.225c-2.471-1.426-4.473-.27-4.473 2.583a9.89 9.89 0 0 0 4.473 7.747c2.472 1.426 4.474.27 4.472-2.582a9.88 9.88 0 0 0-4.472-7.748ZM1407.15 403.574c-2.471-1.427-4.473-.27-4.473 2.582a9.885 9.885 0 0 0 4.472 7.747c2.471 1.427 4.473.27 4.473-2.582a9.88 9.88 0 0 0-4.473-7.747ZM1425.075 413.922c-2.473-1.426-4.474-.27-4.474 2.583a9.885 9.885 0 0 0 4.472 7.747c2.47 1.426 4.473.27 4.473-2.583a9.889 9.889 0 0 0-4.47-7.747ZM1442.997 424.27c-2.47-1.426-4.475-.27-4.473 2.582a9.88 9.88 0 0 0 4.473 7.747c2.47 1.427 4.473.271 4.473-2.582a9.885 9.885 0 0 0-4.473-7.747ZM1460.92 434.619c-2.47-1.427-4.474-.27-4.474 2.582a9.893 9.893 0 0 0 4.475 7.747c2.47 1.427 4.473.27 4.473-2.583a9.89 9.89 0 0 0-4.473-7.746Z" class="colorced3f8 svgShape"></path><path fill="#a3b9d0" d="M1478.845 444.967c-2.471-1.427-4.475-.27-4.475 2.582a9.892 9.892 0 0 0 4.475 7.747c2.47 1.427 4.472.27 4.472-2.582a9.886 9.886 0 0 0-4.472-7.747ZM1496.769 455.315c-2.471-1.426-4.473-.27-4.473 2.582a9.884 9.884 0 0 0 4.473 7.746c2.47 1.427 4.472.272 4.472-2.58a9.885 9.885 0 0 0-4.472-7.748Z" class="colora3a9d0 svgShape"></path><path fill="#cee3f8" d="M1389.226 413.922c-2.471-1.427-4.473-.27-4.473 2.583a9.89 9.89 0 0 0 4.473 7.747c2.47 1.427 4.474.27 4.472-2.583a9.878 9.878 0 0 0-4.472-7.747Z" class="colorced3f8 svgShape"></path><path fill="#ff5ae1" d="M1407.15 424.27c-2.471-1.427-4.473-.27-4.473 2.582a9.887 9.887 0 0 0 4.472 7.748c2.471 1.427 4.473.27 4.473-2.583a9.88 9.88 0 0 0-4.473-7.748Z" class="colorff5a72 svgShape"></path><path fill="#cee3f8" d="M1425.075 434.618c-2.473-1.427-4.474-.27-4.474 2.583a9.882 9.882 0 0 0 4.472 7.748c2.47 1.426 4.473.27 4.473-2.584a9.884 9.884 0 0 0-4.47-7.747Z" class="colorced3f8 svgShape"></path><path fill="#a3b9d0" d="M1442.999 444.966c-2.473-1.427-4.475-.27-4.475 2.583a9.881 9.881 0 0 0 4.473 7.748c2.47 1.427 4.473.27 4.473-2.583a9.888 9.888 0 0 0-4.471-7.748Z" class="colora3a9d0 svgShape"></path><path fill="#cee3f8" d="M1460.92 455.314c-2.47-1.426-4.474-.27-4.472 2.583a9.888 9.888 0 0 0 4.473 7.748c2.47 1.427 4.473.27 4.473-2.583a9.887 9.887 0 0 0-4.473-7.748ZM1478.845 465.663c-2.471-1.427-4.475-.27-4.475 2.584a9.893 9.893 0 0 0 4.475 7.746c2.47 1.427 4.472.27 4.472-2.582a9.886 9.886 0 0 0-4.472-7.748ZM1496.769 476.01c-2.471-1.426-4.473-.269-4.473 2.585a9.887 9.887 0 0 0 4.473 7.747c2.468 1.426 4.472.27 4.472-2.582a9.888 9.888 0 0 0-4.472-7.75Z" class="colorced3f8 svgShape"></path></g><g data-name="Big person symbols" fill="#f4f6f8" class="color000000 svgShape"><path d="M469.781 854.057c-13.478-7.775-48.387-14.093-77.938-14.09-19.428 0-31.538 2.759-33.799 6.845-34.555-11.915-83.216-19.491-112.195-19.485 2.304 1.314-8.34 13.676-23.697 13.68 3.561 2.031 46.312 26.73 46.312 26.73s42.769 24.695 46.3 26.737c20.837.003 38.283-3.912 43.94-10.537l8.011-6.072q1.356-.331 2.628-.697a259.518 259.518 0 0 0 47.63 4.658c16.852.004 28.313-2.045 32.573-5.248l22.464-12.892h-.003c4.59-2.52 4.22-5.905-2.226-9.629Z" style="mix-blend-mode:multiply" fill="url(#a)"></path><path d="M448.983 1017.838c-8.706-5.023-31.257-9.104-50.347-9.102-12.55 0-20.373 1.782-21.834 4.422-22.323-7.698-53.758-12.591-72.478-12.588 1.489.85-5.388 8.835-15.308 8.837 2.3 1.313 29.918 17.268 29.918 17.268s27.628 15.953 29.909 17.272c13.46.002 24.73-2.527 28.385-6.807l5.175-3.922q.876-.214 1.698-.45a167.64 167.64 0 0 0 30.768 3.009c10.887.002 18.29-1.322 21.043-3.39l14.51-8.329h-.001c2.966-1.628 2.726-3.815-1.438-6.22Z" style="mix-blend-mode:multiply" fill="url(#s)"></path><path fill="#cee3f8" d="M281.01 829.713c7.076-1.31 11.859-8.315 11.846-19.545.013-17.063-10.923-37.2-24.403-44.986-13.468-7.77-24.41-.25-24.404 16.818 0 11.217 4.777 23.724 11.855 33.203-20.638-3.88-33.76 9.063-33.75 25.805 3.52 2.008 46.299 26.722 46.299 26.722s42.773 24.698 46.31 26.744c.007-16.73-13.123-44.84-33.752-64.761Z" class="colorced3f8 svgShape"></path><path fill="#f1f3f6" d="m236.459 817.107.01.01c5.279-2.476 11.841-3.342 19.435-1.914a60.257 60.257 0 0 1-4.365-6.803Z" class="colorf1f1f6 svgShape"></path><path fill="url(#b)" d="m305.226 816.553-20.166 11.644-.027-.058a12.208 12.208 0 0 1-4.022 1.574c20.629 19.922 33.76 48.031 33.753 64.761l23.697-13.68c.007-16.591-12.91-44.35-33.235-64.241Z"></path><path fill="url(#c)" d="m305.226 816.553 3.246-1.873-.035-.063c4.957-2.77 8.126-9.031 8.117-18.133.013-17.058-10.923-37.195-24.404-44.982-6.45-3.725-12.305-3.903-16.673-1.242l-.01-.018-23.694 13.68.01.017c4.364-2.66 10.219-2.478 16.67 1.243 13.48 7.787 24.416 27.923 24.403 44.986.01 8.924-3.038 15.119-7.823 17.97l.027.06Z"></path><path fill="#cee3f8" d="M326.768 1001.592c4.626-.858 7.755-5.44 7.747-12.784.008-11.16-7.145-24.328-15.96-29.421-8.809-5.082-15.965-.164-15.961 10.998 0 7.338 3.124 15.515 7.755 21.716-13.498-2.539-22.081 5.926-22.075 16.877 2.302 1.313 30.28 17.477 30.28 17.477s27.975 16.152 30.289 17.492c.004-10.943-8.583-29.328-22.075-42.355Z" class="colorced3f8 svgShape"></path><path fill="#f6f8fb" d="m297.63 993.348.007.005a20.625 20.625 0 0 1 12.712-1.252 39.598 39.598 0 0 1-2.857-4.449Z" class="colorf6f6fb svgShape"></path><path fill="url(#t)" d="m342.604 992.984-13.188 7.615-.019-.037a8.025 8.025 0 0 1-2.63 1.03c13.493 13.027 22.08 31.412 22.076 42.355l15.499-8.947c.004-10.852-8.445-29.008-21.738-42.016Z"></path><path fill="url(#u)" d="m342.604 992.984 2.123-1.226-.021-.04c3.241-1.81 5.313-5.906 5.308-11.859.007-11.156-7.145-24.326-15.961-29.42-4.219-2.437-8.048-2.552-10.905-.812l-.006-.012-15.497 8.947.006.012c2.856-1.74 6.684-1.623 10.904.813 8.815 5.093 15.968 18.261 15.96 29.421.006 5.834-1.987 9.89-5.118 11.754l.019.037Z"></path></g><g fill="#f4f6f8" class="color000000 svgShape"><path d="M784.97 770.82c-45.985-26.544-108.163-38.032-168.182-34.49-60.014-3.542-122.186 7.943-168.166 34.49-81.135 46.842-81.126 122.803.014 169.649 45.979 26.549 108.15 38.036 168.163 34.494 60.013 3.542 122.184-7.945 168.163-34.494 81.139-46.846 81.139-122.8.008-169.649Z" style="mix-blend-mode:multiply" fill="url(#v)"></path><path fill="#ff5ae1" d="M742.458 740.402c81.13 46.85 81.13 122.803-.008 169.649-81.135 46.847-212.694 46.847-293.828 0-81.14-46.846-81.148-122.807-.014-169.649 81.14-46.847 212.707-46.838 293.85 0Z" class="colorff5a72 svgShape"></path><path fill="url(#w)" d="M448.63 940.463c81.137 46.847 212.693 46.847 293.834.006 40.545-23.414 60.826-54.092 60.85-84.774v-.092l-.01-30.324c-.026 30.686-20.307 61.363-60.854 84.772-81.135 46.847-212.694 46.847-293.828 0-40.509-23.391-60.79-54.035-60.852-84.692l.008 30.028h.002c-.107 30.785 20.173 61.587 60.85 85.076Zm-60.864-115.489.004.114c-.002-.035.004-.078.002-.115Z"></path><path fill="#ffffff" d="M711.347 758.363c63.953 36.93 63.953 96.799-.008 133.725-63.953 36.926-167.656 36.933-231.612.002-63.958-36.924-63.96-96.803-.003-133.727s167.662-36.924 231.623 0Z" class="colorffffff svgShape"></path><path fill="#ff5ae1" d="M682.27 775.152c47.899 27.653 47.895 72.492-.005 100.15-47.903 27.657-125.559 27.653-173.455-.001-47.9-27.657-47.912-72.496-.011-100.149 47.901-27.658 125.57-27.654 173.471 0Z" class="colorff5a72 svgShape"></path><path fill="#ffffff" d="M650.97 793.223c30.611 17.68 30.605 46.337-.006 64.011-30.613 17.672-80.248 17.67-110.86 0-30.623-17.677-30.619-46.338-.005-64.011 30.615-17.674 80.248-17.678 110.87 0Z" class="colorffffff svgShape"></path><path fill="#ff5ae1" d="M618.731 811.834c12.809 7.394 12.805 19.39-.004 26.787-12.81 7.393-33.58 7.395-46.392-.002-12.813-7.398-12.809-19.387 0-26.785 12.812-7.395 33.582-7.395 46.396 0Z" class="colorff5a72 svgShape"></path></g><g fill="#f4f6f8" class="color000000 svgShape"><path d="M1267.259 993.926c-16.407-9.475-38.217-13.844-59.647-13.202h-33.58v5.502a88.576 88.576 0 0 0-17.775 7.7c-30.535 17.757-30.358 46.54.38 64.29a89.336 89.336 0 0 0 17.395 7.544v5.752h40.28c19.37-.33 38.576-4.723 53.308-13.284 30.55-17.761 30.397-46.545-.361-64.302Z" style="mix-blend-mode:multiply" fill="url(#x)"></path><path fill="#50a7ff" d="M1097.507 1005.223c-.004-11.356 7.498-22.717 22.512-31.381 15.011-8.666 34.687-13.004 54.359-13.004 19.672 0 39.342 4.338 54.351 13.004 15.012 8.664 22.516 20.017 22.516 31.38.008 11.354-7.498 22.715-22.516 31.377-15.007 8.672-34.675 13.002-54.347 13.002-19.67 0-39.344-4.33-54.356-13.002-15.011-8.662-22.515-20.023-22.52-31.376Z" class="colorffe950 svgShape"></path><path fill="url(#y)" d="M1228.73 1036.6c-15.008 8.671-34.676 13.001-54.348 13.001-19.67 0-39.344-4.33-54.356-13.002-15.011-8.662-22.515-20.023-22.52-31.376v21.908c.005 11.355 7.509 22.713 22.52 31.38 15.012 8.669 34.686 13 54.356 13 19.672 0 39.34-4.331 54.347-13 15.018-8.66 22.524-20.025 22.516-31.384v-21.904c.008 11.353-7.498 22.714-22.516 31.376Z"></path><path fill="#3e9eff" d="M1130.237 1030.709c12.194 7.03 28.164 10.558 44.145 10.558 15.976 0 31.951-3.529 44.137-10.558 11.251-6.494 17.298-14.85 18.16-23.352-.862-8.498-6.909-16.85-18.16-23.35-12.19-7.042-28.168-10.556-44.145-10.556-15.975 0-31.947 3.514-44.143 10.557-11.246 6.5-17.287 14.85-18.162 23.345.875 8.502 6.916 16.858 18.168 23.356Z" class="colorffd03e svgShape"></path><path fill="url(#d)" d="M1130.231 984.008c12.196-7.043 28.168-10.557 44.143-10.557 15.977 0 31.955 3.514 44.145 10.557 11.251 6.5 17.298 14.851 18.16 23.35a19.52 19.52 0 0 0 .129-2.135c0-9.227-6.094-18.45-18.29-25.487-12.189-7.04-28.167-10.56-44.144-10.56-15.975 0-31.947 3.52-44.143 10.56-12.191 7.037-18.283 16.26-18.283 25.487a20.481 20.481 0 0 0 .121 2.13c.875-8.496 6.916-16.845 18.162-23.345Z"></path><path fill="#e100b8" d="m1205.134 996.051 5.902-3.409v-4.261l-5.902 3.4v4.27z" class="colore19100 svgShape"></path><path fill="#50a7ff" d="M1177.895 1003.191c-2.2-1.267-3.416-2.96-3.416-4.763 0-1.791 1.215-3.483 3.416-4.752 4.547-2.625 11.946-2.625 16.487-.006 4.549 2.625 4.549 6.9 0 9.521l7.484 4.317c7.377-4.254 8.455-10.793 3.268-15.727l5.902-3.4-7.48-4.33-5.905 3.414c-8.543-2.992-19.853-2.367-27.238 1.896-4.205 2.42-6.51 5.639-6.51 9.067 0 3.431 2.305 6.662 6.51 9.08 4.547 2.63 4.555 6.898 0 9.521-4.541 2.625-11.947 2.625-16.49 0-4.545-2.623-4.545-6.89.002-9.521l-7.477-4.317c-7.387 4.262-8.457 10.791-3.281 15.729l-5.445 3.142 7.486 4.325 5.45-3.149c8.548 2.99 19.86 2.379 27.237-1.88 8.67-5.018 8.67-13.151 0-18.167Z" class="colorffe950 svgShape"></path><path fill="#fc06cf" d="m1137.722 1026.34 7.486 4.316v-4.269l-7.486-4.325v4.278z" class="colorfcba06 svgShape"></path><path fill="#e100b8" d="m1145.208 1030.656 5.449-3.148v-4.27l-5.449 3.149v4.269z" class="colore19100 svgShape"></path><path fill="#fc06cf" d="m1194.382 1007.459 7.484 4.326v-4.277l-7.484-4.317v4.268z" class="colorfcba06 svgShape"></path><path fill="#e100b8" d="M1153.925 1011.785v-4.277c-3.223 1.867-4.149 4.556-2.799 6.898a7.362 7.362 0 0 1 2.799-2.621Z" class="colore19100 svgShape"></path><path fill="#fc06cf" d="m1139.954 1012.055.014 4.812.01-.01a8.205 8.205 0 0 0 .927 3.371l2.262-1.308a9.19 9.19 0 0 1-3.197-6.854ZM1170.413 1011.78a7.378 7.378 0 0 1 2.8 2.626c1.352-2.342.429-5.031-2.8-6.898-4.205-2.418-6.51-5.649-6.51-9.08v4.283c0 3.422 2.305 6.648 6.51 9.068Z" class="colorfcba06 svgShape"></path><path fill="#fb05ce" d="M1184.395 1012.254v-.094h-.001l.001.094Z" class="colorfbba05 svgShape"></path><path fill="#e100b8" d="M1208.335 998.428c.012 3.29-2.127 6.578-6.469 9.08v4.277c4.447-2.572 6.59-5.959 6.469-9.332l.012.016v-4.041Z" class="colore19100 svgShape"></path><path fill="url(#z)" d="M1177.895 1021.357c-7.376 4.26-18.689 4.871-27.238 1.881v4.27c8.549 2.996 19.862 2.379 27.238-1.885 4.303-2.482 6.456-5.742 6.499-8.998l.001.002v-4.332c-.01 3.275-2.17 6.562-6.5 9.062Z"></path><path fill="#e100b8" d="M1194.382 993.67c-4.541-2.62-11.94-2.62-16.487.006-2.2 1.27-3.416 2.96-3.416 4.752a4.294 4.294 0 0 0 .604 2.142 7.499 7.499 0 0 1 2.812-2.617c4.547-2.633 11.946-2.633 16.487-.01a7.432 7.432 0 0 1 2.803 2.627c1.355-2.347.43-5.033-2.803-6.9Z" class="colore19100 svgShape"></path></g><g data-name="Speech bubble" fill="#f4f6f8" class="color000000 svgShape"><path fill="#3e9eff" d="M614.665 216.482 824.626 95.26c11.185-6.454 20.332-1.21 20.332 11.653v129.086c0 12.868-9.147 28.678-20.324 35.129l-17.248 9.959v37.334l-31.746-19.004-160.975 92.934c-11.176 6.455-20.326 1.208-20.326-11.654l-.004-129.083c.004-12.87 9.152-28.679 20.33-35.132Z" class="colorffd03e svgShape"></path><path fill="url(#A)" d="M606.21 211.599 816.17 90.376c5.878-3.397 11.182-3.527 14.901-1.042l.018-.02 7.603 4.391c-3.658-1.94-8.615-1.59-14.066 1.555L614.665 216.482c-11.178 6.453-20.326 22.262-20.33 35.132l.004 129.083c0 6.203 2.144 10.615 5.605 12.817l-7.715-4.45c-3.898-2.017-6.35-6.609-6.35-13.25V246.727c0-12.867 9.15-28.673 20.331-35.13Z"></path><path fill="#ffffff" d="m748.886 188.974 76.009-43.886v-10.706l-76.009 43.884v10.708zM748.886 216.149l76.009-43.886v-10.705l-76.009 43.883v10.708zM748.886 243.324l76.009-43.885v-10.707l-76.009 43.885v10.707zM748.886 270.498l32.66-18.857v-10.706l-32.66 18.854v10.709z" class="colorffffff svgShape"></path><path fill="#6f67e9" d="m636.913 262.188-28.148 48.756c-1.645 2.847-1.645 5.926 0 6.873l28.148 16.252 5.95-10.31-25.173-14.534 25.176-43.6Zm95.135-22.422-28.149-16.251-5.953 10.308 25.174 14.534-25.174 43.602 5.95 3.436 28.152-48.755c1.642-2.846 1.642-5.925 0-6.874Z" class="color6b67e9 svgShape"></path><path fill="#ffffff" d="m674.616 226.24-8.42 4.86v60.147l8.42-4.86Zm-4.21 76.464a16.443 16.443 0 0 0-7.44 12.887c0 4.746 3.33 6.669 7.44 4.297a16.448 16.448 0 0 0 7.44-12.89c0-4.744-3.331-6.667-7.44-4.294Z" class="colorffffff svgShape"></path></g><g data-name="Person symbols" fill="#f4f6f8" class="color000000 svgShape"><path d="M1451.704 840.523c-7.34-4.265-17.018-6.35-26.67-6.275v-.012h-32.89c-9.538-.021-19.1 2.069-26.399 6.281-14.52 8.387-14.6 21.985-.166 30.374 7.313 4.248 16.943 6.333 26.56 6.277v.006h32.895v-.004c9.567.039 19.168-2.055 26.488-6.281 14.528-8.385 14.608-21.985.182-30.366Z" style="mix-blend-mode:multiply" fill="url(#B)"></path><path fill="url(#f)" d="M1417.995 870.887c7.313-4.217 10.961-9.76 10.945-15.29l-.033-18.464c.02 5.529-3.63 11.068-10.943 15.289-14.516 8.386-37.988 8.386-52.416.002-7.17-4.166-10.762-9.617-10.776-15.075l.034 18.463c.011 5.457 3.6 10.91 10.773 15.079 14.424 8.38 37.89 8.382 52.416-.004Z"></path><path fill="#f1f3f6" d="M1417.964 852.422c14.527-8.383 14.607-21.983.181-30.364-14.43-8.386-37.908-8.388-52.431-.003-14.52 8.384-14.598 21.982-.166 30.369 14.428 8.384 37.9 8.384 52.416-.002Z" class="colorf1f1f6 svgShape"></path><path fill="#bbd0e6" d="M1388.905 833.223c-.68-1.92.362-4.082 3.115-5.67 4.18-2.416 10.659-2.586 14.475-.383 3.81 2.201 3.514 5.947-.666 8.36a16.561 16.561 0 0 1-9.816 1.792c3.87 4.506 2.556 9.553-1.55 11.92a12067 12067 0 0 0-13.097-7.564l-13.105-7.565c4.1-2.369 12.843-3.127 20.644-.89Z" class="colorbbc0e6 svgShape"></path><path fill="url(#e)" d="M977.96 103.846c7.309-4.226 13.932-4.615 18.713-1.837l10.96 6.354c-4.779-2.781-11.4-2.39-18.712 1.832-14.522 8.38-26.258 28.707-26.21 45.395.022 8.292 2.948 14.128 7.667 16.867l-10.96-6.352c-4.72-2.74-7.648-8.573-7.669-16.868-.047-16.682 11.686-37.007 26.211-45.391Z"></path><path fill="#f1f3f6" d="M988.92 110.195c14.526-8.388 26.34-1.657 26.388 15.027.046 16.689-11.69 37.023-26.211 45.408-14.524 8.383-26.338 1.652-26.385-15.04-.049-16.688 11.687-37.015 26.209-45.395Z" class="colorf1f1f6 svgShape"></path><path fill="#bbd0e6" d="M986.774 142.055c-2.002-.372-3.355-2.355-3.351-5.533-.004-4.827 3.09-10.523 6.904-12.727 3.813-2.2 6.908-.07 6.906 4.758a16.544 16.544 0 0 1-3.355 9.395c5.84-1.098 9.553 2.563 9.55 7.302-.995.567-13.1 7.561-13.1 7.561l-13.104 7.567c-.002-4.735 3.714-12.687 9.55-18.323Z" class="colorbbc0e6 svgShape"></path><path fill="url(#C)" d="M533.94 416.805c7.309-4.225 13.934-4.614 18.715-1.836l10.961 6.354c-4.781-2.781-11.4-2.39-18.713 1.832-14.521 8.38-26.258 28.707-26.21 45.394.023 8.29 2.948 14.129 7.667 16.865l-10.96-6.348c-4.72-2.74-7.647-8.574-7.67-16.869-.046-16.682 11.686-37.007 26.21-45.392Z"></path><path fill="#f1f3f6" d="M544.903 423.155c14.524-8.389 26.34-1.657 26.387 15.027.047 16.689-11.69 37.023-26.213 45.408-14.522 8.383-26.337 1.65-26.384-15.041-.048-16.687 11.689-37.014 26.21-45.394Z" class="colorf1f1f6 svgShape"></path><path fill="#cee3f8" d="m561.903 441.413-12.002 6.929v-13.859l-6.705 3.873v13.859l-12.003 6.928v7.744l12.003-6.928v13.857l6.705-3.873v-13.856l12.002-6.93v-7.744z" class="colorced3f8 svgShape"></path><path d="M1087.313 896.53c-7.341-4.268-17.017-6.352-26.671-6.28l-14.72-.008h-32.89c-9.537-.023-19.1 2.068-26.398 6.281-14.522 8.387-14.6 21.983-.168 30.371 7.312 4.248 16.945 6.336 26.56 6.276v.006h47.616l-14.72-.002c9.565.037 33.888-2.053 41.21-6.282 14.527-8.384 14.607-21.982.181-30.363Z" style="mix-blend-mode:multiply" fill="url(#D)"></path><path fill="url(#E)" d="M1038.884 908.426c7.312-4.217 10.96-9.758 10.945-15.287l-.033-18.467c.017 5.533-3.631 11.07-10.944 15.29-14.519 8.387-37.988 8.387-52.416.005-7.171-4.17-10.761-9.621-10.775-15.076l.031 18.46c.012 5.461 3.6 10.913 10.774 15.079 14.426 8.38 37.89 8.384 52.418-.004Z"></path><path fill="url(#F)" d="M1038.884 926.889c7.312-4.215 10.96-9.758 10.945-15.288l-.033-18.466c.017 5.533-3.631 11.068-10.944 15.29-14.519 8.385-37.988 8.385-52.416.003-7.171-4.168-10.761-9.62-10.775-15.077l.031 18.465c.012 5.46 3.6 10.91 10.774 15.078 14.426 8.381 37.89 8.383 52.418-.005Z"></path><path fill="#f1f3f6" d="M1038.852 889.963c14.526-8.385 14.608-21.985.18-30.365-14.43-8.385-37.906-8.387-52.43-.004-14.519 8.384-14.6 21.984-.166 30.373 14.428 8.382 37.897 8.382 52.416-.004Z" class="colorf1f1f6 svgShape"></path><path fill="#bbd0e6" d="M1009.794 870.762c-.68-1.918.361-4.08 3.113-5.668 4.182-2.416 10.66-2.586 14.477-.383 3.81 2.199 3.513 5.945-.666 8.357a16.55 16.55 0 0 1-9.819 1.793c3.873 4.508 2.559 9.553-1.547 11.922-.99-.578-13.1-7.562-13.1-7.562l-13.103-7.567c4.1-2.369 12.842-3.127 20.645-.892Z" class="colorbbc0e6 svgShape"></path></g><path fill="#ff6ae4" d="M1372.042 649.025c-2.242-6.342 1.197-13.49 10.295-18.736 13.814-7.984 35.23-8.543 47.842-1.264 12.593 7.272 11.615 19.65-2.202 27.625-9.09 5.246-21.458 7.221-32.445 5.924 12.797 14.895 8.455 31.574-5.111 39.399-3.272-1.909-43.301-24.995-43.301-24.995s-40-23.1-43.307-25.007c13.55-7.832 42.446-10.334 68.229-2.946Z" data-name="Person symbol under magnifier" class="colorff826a svgShape"></path><g fill="#f4f6f8" class="color000000 svgShape"><path d="M1495.981 613.584c-28.408-16.404-67.072-23.258-104.08-20.6 26.69 1.914 52.522 8.768 73.012 20.6 48.904 28.236 48.9 74.015 0 102.248-20.49 11.834-46.324 18.69-73.021 20.603 37.005 2.657 75.675-4.2 104.09-20.603 48.904-28.233 48.908-74.012 0-102.248Z" style="mix-blend-mode:multiply" fill="url(#g)"></path><path d="M1326.651 613.584c20.49-11.832 46.319-18.686 73.014-20.6-37.006-2.658-75.672 4.2-104.086 20.6-48.908 28.236-48.908 74.015 0 102.248 28.414 16.406 67.074 23.26 104.082 20.603-26.691-1.914-52.52-8.769-73.01-20.603-48.906-28.233-48.906-74.012 0-102.248Z" style="mix-blend-mode:multiply" fill="url(#G)"></path><path fill="#a09ba5" d="M1472.23 613.713c-49.145-28.371-128.835-28.371-177.973.004-49.153 28.375-49.149 74.377 0 102.752 49.144 28.377 128.828 28.377 177.97.005 49.147-28.38 49.153-74.382.002-102.761Zm-14.684 94.279c-41.041 23.691-107.57 23.691-148.604 0-41.037-23.691-41.043-62.107-.006-85.8 41.04-23.69 107.573-23.69 148.612 0 41.035 23.693 41.033 62.109-.002 85.8Z" class="colora59ba5 svgShape"></path><path fill="#64318f" d="M1308.936 593.287c41.04-23.693 107.573-23.693 148.612-.004 26.937 15.553 36.19 37.445 27.765 57.356-4.412-10.426-13.668-20.305-27.765-28.448-41.04-23.69-107.572-23.69-148.612 0-14.097 8.143-23.355 18.022-27.763 28.448-8.428-19.91.832-41.803 27.763-57.352Z" class="color34318f svgShape"></path><path d="M1457.765 602.295c-41.024-23.686-107.555-23.692-148.584 0-41.032 23.69-41.03 62.101 0 85.787 41.03 23.691 107.554 23.691 148.584 0 41.037-23.686 41.037-62.098 0-85.787Z" style="mix-blend-mode:screen" fill="#6b686d" class="color686a6d svgShape"></path><path d="M1319.737 606.535c8.942-5.691 23.807-6.334 33.207-1.436 9.399 4.899 9.77 13.481.828 19.172s-23.806 6.334-33.207 1.434c-9.392-4.897-9.767-13.479-.828-19.17ZM1364.796 596.107a15.204 15.204 0 0 1 13.748-.593c3.892 2.025 4.041 5.578.344 7.933a15.218 15.218 0 0 1-13.748.596c-3.891-2.03-4.045-5.58-.344-7.936Z" style="mix-blend-mode:screen" fill="#a09ba5" class="colora59ba5 svgShape"></path><path fill="#f7f9fc" d="M1457.765 606.59c-41.024-23.688-107.555-23.692-148.584 0-19.57 11.3-29.782 25.945-30.684 40.746-.988-16.23 9.22-32.647 30.684-45.041 41.029-23.692 107.56-23.686 148.584 0 21.466 12.394 31.68 28.81 30.691 45.04-.906-14.8-11.117-29.444-30.691-40.745Z" class="colorf7f7fc svgShape"></path><path fill="#d0e3f6" d="M1472.23 584.807c-49.145-28.374-128.835-28.374-177.973 0-49.153 28.378-49.149 74.38 0 102.751 49.144 28.381 128.828 28.381 177.97.002 49.147-28.373 49.153-74.375.002-102.753Zm-14.684 94.277c-41.041 23.695-107.57 23.695-148.604 0-41.037-23.692-41.043-62.106-.006-85.797 41.04-23.693 107.573-23.693 148.612-.004 41.035 23.695 41.033 62.11-.002 85.8Z" class="colord0d4f6 svgShape"></path><path fill="url(#H)" d="M1294.257 687.558c49.144 28.381 128.828 28.381 177.97.002 24.256-14.003 36.52-32.302 36.833-50.656v27.475h-.006c.324 18.828-11.938 37.719-36.827 52.095-49.142 28.372-128.826 28.372-177.97-.005-24.89-14.371-37.149-33.262-36.826-52.09v-27.346c.365 18.309 12.625 36.555 36.826 50.525Z"></path><path fill="#f7f9fc" d="M1472.227 691.426c3.098-1.787 6-3.65 8.706-5.567l21.168 12.223-18.344 10.59-21.166-12.225q4.986-2.34 9.636-5.021Z" class="colorf7f7fc svgShape"></path><path fill="#d0e3f6" d="m1483.757 729.849-21.166-12.22v-21.182l21.166 12.225v21.177z" class="colord0d4f6 svgShape"></path><path fill="url(#h)" d="M1475.788 723.863c0-10.931 7.672-24.224 17.139-29.691 4.925-2.842 9.347-2.987 12.47-.955l.01-.018 122.016 70.447-23.324 42.352-122.014-70.443h.002c-3.844-1.416-6.299-5.512-6.299-11.692Z"></path><path d="m1491.524 740.982 5.967 3.448c-2.588-1.975-4.172-5.553-4.172-10.49 0-10.932 7.676-24.22 17.143-29.688 4.918-2.838 9.347-2.986 12.47-.953l-8.081-4.668-.01.013c-3.13-2.03-7.553-1.882-12.475.955-9.465 5.47-17.137 18.756-17.137 29.692 0 6.182 2.456 10.277 6.295 11.691Z" style="mix-blend-mode:multiply" fill="url(#I)"></path><path fill="url(#J)" d="M1601.269 804.367a24.191 24.191 0 1 0 25.292-41.174c-3.058-1.502-7.126-1.168-11.62 1.428-9.467 5.469-17.14 18.756-17.14 29.691 0 4.752 1.452 8.274 3.874 10.291Z"></path><path d="m1604.087 805.996.012.002Z" fill="#f4f6f8" class="color000000 svgShape"></path></g><g fill="#f4f6f8" class="color000000 svgShape"><path style="mix-blend-mode:multiply" fill="url(#K)" d="m1303.243 803.398-8.973-5.177h-10.566l8.973 5.177-8.973 5.182-80.836 46.67h10.565l80.837-46.67 8.973-5.18v-.002z"></path><path fill="#3e9eff" d="m1202.868 849.148-176.734-102.037 89.81-51.849 176.733 102.037-89.809 51.849z" class="colorffd03e svgShape"></path><path fill="#50a7ff" d="m1115.944 695.262-8.97 5.177 38.904 79.575 137.826 22.464 8.973-5.179-176.733-102.037z" class="colorffe950 svgShape"></path><path fill="#fc06cf" d="m1202.868 855.25-176.734-102.037v-6.102l176.734 102.037v6.102z" class="colorfcba06 svgShape"></path><path fill="#e100b8" d="M1202.868 855.25v-6.102l80.836-46.67v6.098l-80.836 46.674z" class="colore19100 svgShape"></path><path fill="#fc06cf" d="M1283.704 808.576v-6.098l8.973-5.179v6.099l-8.973 5.178z" class="colorfcba06 svgShape"></path></g><g fill="#f4f6f8" class="color000000 svgShape"><path style="mix-blend-mode:multiply" fill="url(#L)" d="M1352.581 562.349v-38.968l-226.76 21.631-26.592 15.353 41.5-1.629-22.16 12.795 234.012-9.182z"></path><path fill="url(#M)" d="M1238.384 311.932c-5.494-9.511-13.08-17.813-21.46-22.654-8.38-4.838-15.968-5.294-21.46-2.124l-35.955 20.758 42.92 74.34 35.957-20.758c5.488-3.175 8.886-9.973 8.886-19.65 0-9.679-3.398-20.404-8.888-29.912Z"></path><path fill="#5046e4" d="M1159.509 357.472c-5.494-9.511-8.885-20.237-8.885-29.914 0-9.673 3.39-16.476 8.885-19.646 5.494-3.168 13.078-2.712 21.459 2.123 8.383 4.84 15.967 13.144 21.46 22.653 5.495 9.51 8.891 20.234 8.891 29.913 0 9.678-3.396 16.478-8.89 19.65-5.49 3.17-13.078 2.712-21.461-2.127-8.38-4.84-15.965-13.138-21.46-22.652Z" class="color5652cc svgShape"></path><path fill="url(#N)" d="M1249.313 305.623c-5.494-9.509-13.08-17.814-21.46-22.652-8.38-4.84-15.965-5.294-21.46-2.123l-10.927 6.307c5.49-3.167 13.078-2.712 21.459 2.124 8.379 4.84 15.969 13.144 21.459 22.653s8.888 20.233 8.888 29.913c0 9.676-3.398 16.474-8.886 19.649l10.93-6.308c5.49-3.173 8.888-9.973 8.888-19.651 0-9.679-3.398-20.402-8.89-29.912Z"></path><path fill="#5046e4" d="m1145.165 556.178-26.596 15.353 16.924-143.769 55.608-32.104-45.936 160.52z" class="color5652cc svgShape"></path><path fill="#6f67e9" d="m1118.569 571.531-19.34-11.166 16.922-143.77 19.342 11.167-16.924 143.769z" class="color6b67e9 svgShape"></path><path fill="url(#O)" d="M1215.356 325.228a26.023 26.023 0 0 0-8.964-9.475l-67.743-39.11c-3.494-2.018-6.67-2.2-8.972-.87l-118.147 68.21 85.688 148.41 118.144-68.211c2.305-1.329 3.73-4.172 3.73-8.207V337.75a26.028 26.028 0 0 0-3.736-12.522Z"></path><path fill="#5046e4" d="M1007.802 352.184c0-4.034 1.43-6.876 3.728-8.2 2.305-1.33 5.477-1.15 8.975.866l67.74 39.112a28.189 28.189 0 0 1 12.705 22v78.225c0 4.033-1.428 6.875-3.732 8.205-2.305 1.325-5.479 1.147-8.973-.873l-67.742-39.112a28.173 28.173 0 0 1-12.701-21.998Z" class="color5652cc svgShape"></path><path fill="url(#i)" d="m1121.638 294.21 48.92 28.247c2.388 1.377 6.56 1.204 9.316-.388 2.758-1.589 3.057-3.999.67-5.379l-48.924-28.243c-2.387-1.379-6.553-1.207-9.312.388-2.756 1.592-3.057 3.999-.67 5.376Z"></path><path fill="url(#P)" d="m1102.038 305.53 48.918 28.243c2.387 1.38 6.56 1.205 9.316-.387 2.758-1.588 3.057-3.996.668-5.376l-48.92-28.245c-2.388-1.378-6.556-1.206-9.316.387-2.756 1.592-3.059 3.998-.666 5.378Z"></path><path fill="url(#Q)" d="m1082.435 316.849 48.92 28.244c2.388 1.38 6.558 1.206 9.316-.387 2.756-1.592 3.056-3.996.668-5.377l-48.922-28.246c-2.385-1.378-6.553-1.207-9.316.387-2.752 1.591-3.053 4-.666 5.379Z"></path><path fill="url(#R)" d="m1062.833 328.166 48.918 28.246c2.389 1.38 6.562 1.205 9.318-.386 2.756-1.593 3.057-3.998.668-5.377l-48.92-28.25c-2.386-1.377-6.556-1.205-9.318.387-2.754 1.593-3.055 4.003-.666 5.38Z"></path><path fill="#5046e4" d="m1205.888 397.244-27.756 16.023v-30.625l27.758-16.021-.002 30.623z" class="color5652cc svgShape"></path><path fill="url(#S)" d="M1007.763 445.085c-21.202-36.712-50.483-68.755-82.828-87.43-17.258-9.964-33.637-15.097-48.39-15.88l-65.007 3.616 186.379 317.072 32.535-49.887c7.434-13.477 11.627-30.967 11.627-52.021 0-37.358-13.113-78.75-34.316-115.47Z"></path><path fill="url(#T)" d="M1108.185 493.394c5.466-8.116 8.6-19.296 8.6-33.137 0-21.576-7.579-45.478-19.821-66.686-12.244-21.202-29.154-39.702-47.834-50.487-12.752-7.361-24.674-10.166-34.856-8.964l-137.728 7.655c14.752.783 31.13 5.916 48.389 15.88 32.345 18.675 61.626 50.718 82.828 87.43 21.203 36.72 34.316 78.112 34.316 115.47 0 21.054-4.193 38.544-11.627 52.021l77.734-119.18Z"></path><path fill="#ff5ae1" d="M789.823 570.91c-24.129-41.791-39.054-88.903-39.054-131.422 0-42.517 14.925-72.396 39.058-86.326 24.129-13.938 57.465-11.921 94.285 9.338 36.82 21.259 70.153 57.732 94.285 99.521 24.133 41.797 39.063 88.916 39.063 131.44.002 42.521-14.926 72.396-39.057 86.324-24.129 13.932-57.467 11.924-94.289-9.336-36.822-21.26-70.158-57.744-94.29-99.539Z" class="colorff5a72 svgShape"></path><path fill="url(#U)" d="M923.433 631.51c-32.938-19.016-62.756-51.647-84.34-89.032-21.584-37.379-34.934-79.52-34.934-117.548 0-26.412 6.451-47.354 17.611-61.867a59.135 59.135 0 0 0-21.994 7.332c-21.582 12.463-34.933 39.187-34.933 77.22 0 38.03 13.351 80.17 34.933 117.549 21.584 37.385 51.405 70.016 84.338 89.031 32.936 19.016 62.754 20.813 84.338 8.354a59.235 59.235 0 0 0 17.328-15.352c-18.144 2.397-39.49-2.492-62.347-15.687Z"></path><path fill="url(#V)" d="M968.446 467.77c-21.586-37.381-51.4-70.007-84.332-89.02-22.855-13.195-44.199-18.083-62.344-15.687-11.16 14.513-17.61 35.455-17.61 61.867 0 38.028 13.349 80.17 34.933 117.548 21.584 37.385 51.402 70.016 84.34 89.032 22.857 13.195 44.203 18.084 62.347 15.687 11.156-14.515 17.608-35.457 17.608-61.861 0-38.037-13.354-80.176-34.942-117.567Z"></path><path fill="url(#W)" d="M968.446 467.77c-21.586-37.381-51.4-70.007-84.332-89.02-22.855-13.195-44.199-18.083-62.344-15.687-11.16 14.513-17.61 35.455-17.61 61.867 0 38.028 13.349 80.17 34.933 117.548 21.584 37.385 51.402 70.016 84.34 89.032 22.857 13.195 44.203 18.084 62.347 15.687 11.156-14.515 17.608-35.457 17.608-61.861 0-38.037-13.354-80.176-34.942-117.567Z"></path><path fill="url(#X)" d="m935.249 547.016 55.094-31.807a286.834 286.834 0 0 0-52.084-90.177l-55.08 31.8Z"></path><path fill="url(#Y)" d="M935.294 486.916c-6.67-11.548-15.883-21.628-26.057-27.502-10.176-5.876-19.388-6.433-26.058-2.582a52.035 52.035 0 0 0 49.476 91.512 17.831 17.831 0 0 0 2.643-1.243c6.666-3.847 10.795-12.105 10.795-23.855 0-11.756-4.13-24.775-10.8-36.33Z"></path><path d="m960.163 532.635 30.18-17.426a286.834 286.834 0 0 0-52.084-90.177l-31.178 18.002c6.668-3.847 15.877-3.287 26.05 2.585 10.175 5.875 19.388 15.953 26.055 27.503 6.672 11.55 10.797 24.573 10.797 36.327 0 11.152-3.744 19.108-9.82 23.186Z" style="mix-blend-mode:multiply" fill="url(#Z)"></path></g><g data-name="Group of people" fill="#f4f6f8" class="color000000 svgShape"><g fill="#f4f6f8" class="color000000 svgShape"><path style="mix-blend-mode:multiply" fill="url(#k)" d="M848.015 903.696V874.7h-99.389l-4.832 14.455h-20.033l-4.768 14.541h129.022z"></path><path fill="url(#j)" d="M753.3 884.245c0-12.51-7.922-12.865-7.922-12.865s-4.293 0-11.264-2.898c-6.88-2.85-16.573-1.752-11.156 8.25a3.435 3.435 0 0 0 .186.365 4.911 4.911 0 0 0 1.759 1.54l17.315 10.155c2.64 1.51 11.024-1.974 11.081-4.547Z"></path><path fill="#0c2340" d="M753.255 883.12c-.15 2.573-8.42 5.987-11.037 4.493l-17.315-10.156a15.98 15.98 0 0 1-2.44-1.776c.156.342.296.667.495 1.05a3.435 3.435 0 0 0 .186.366 4.911 4.911 0 0 0 1.759 1.54l17.315 10.155c2.469 1.408 9.983-1.559 10.973-4.052a2.747 2.747 0 0 0 .079-.507 8.676 8.676 0 0 0-.015-1.113Z" class="color131147 svgShape"></path><path fill="#a7d0fa" d="M748.103 868.632c-2.23 0-8.4 1.997-8.4 1.997a4.392 4.392 0 0 1-.697 2.034 2.255 2.255 0 0 0-.22.276c-1.551 1.068-3.122 2.778.55 5.073a5.098 5.098 0 0 0 6.614-.468 6.054 6.054 0 0 1 2.133-2.42 5.425 5.425 0 0 1 2.048-.864 1.782 1.782 0 0 1 .013-.188s-1.106-5.44-2.041-5.44Z" class="colorfacfa7 svgShape"></path><path fill="url(#aa)" d="M748.595 738.488c-8.556.155-23.837 1.794-32.39 1.949 3.188 25.712 4.826 44.383 9.105 69.28 4.59 24.193 9.76 41.2 14.28 61.34 1.651 3.756 8.126 2.727 9.663-.877-1.711-23.428 2.14-41.54-3.358-62.931.483-12.14-1.405-26.892.544-32.388 4.505-12.68 4.505-24.574 2.156-36.373Z"></path><path fill="url(#ab)" d="M728.115 898.784c0-12.507-7.92-12.863-7.92-12.863s-4.295 0-11.266-2.898c-6.88-2.849-16.574-1.754-11.155 8.25a3.307 3.307 0 0 0 .183.365 4.886 4.886 0 0 0 1.76 1.538l17.317 10.155c2.64 1.51 11.024-1.973 11.08-4.547Z"></path><path fill="#0c2340" d="M728.068 897.661c-.15 2.571-8.42 5.988-11.034 4.49l-17.318-10.152a16.253 16.253 0 0 1-2.439-1.773c.157.336.295.661.497 1.047a3.307 3.307 0 0 0 .183.365 4.886 4.886 0 0 0 1.76 1.538l17.317 10.155c2.467 1.408 9.983-1.559 10.972-4.053a2.65 2.65 0 0 0 .08-.503 8.294 8.294 0 0 0-.018-1.114Z" class="color131147 svgShape"></path><path fill="#a7d0fa" d="M723.64 883.174c-2.229 0-9.123 1.997-9.123 1.997a4.385 4.385 0 0 1-.694 2.031 2.705 2.705 0 0 0-.223.276c-1.55 1.072-3.122 2.78.55 5.08a5.111 5.111 0 0 0 6.617-.473 5.979 5.979 0 0 1 2.132-2.42 5.37 5.37 0 0 1 2.045-.864 1.781 1.781 0 0 1 .017-.188s-.386-5.44-1.321-5.44Z" class="colorfacfa7 svgShape"></path><path fill="#662e94" d="M737.084 751.07c-8.555.154-28.754 2.184-37.305 2.341-5.426 30.258-3.935 45.951.346 70.848 4.592 24.193 9.76 41.197 14.277 61.342 1.655 3.754 8.687 2.329 10.22-1.276-1.131-20.877 1.584-41.143-3.914-62.537.994-12.603 2.885-31.45 4.463-35.703 3-8.086 13.479-17.65 11.913-35.014Z" class="color362e94 svgShape"></path><path fill="#c902a5" d="M745.602 663.07c4.91 4.733 11.089 19.328 12.667 35.135 1.228 12.31-.338 25.36-7.476 35.058-9.248-12.175-5.191-70.193-5.191-70.193Z" class="colorc97802 svgShape"></path><path fill="url(#ac)" d="M718.031 660.922c6.312-4.975 9.734-7.796 12.771-8.419 25.067-5.113 21.822 39.04 19.727 86.649-1.937 12.665-4.634 14.002-9.254 16.72-11.193 5.975-36.445 11.167-42.985-1.48 4.585-11.315 8.51-28.139 8.816-40.463.194-7.82-5.257-14.048-7.088-22.805.23-2.091 6.877-16.544 7.439-18.248 1.938-4.33 8.454-10.284 10.574-11.954Z"></path><path fill="#193f6f" d="M707.664 633.237c2.014-7.564 9.615-19.8 23.283-16.857 13.203 2.844 16.326 11.389 16.025 24.708-.19 8.485 3.416 7.57 4.959 13.482.939 3.59-1.777 8.5 1.009 13.588a13.33 13.33 0 0 0 7.182 6.339c9.978 4.174 3.447 9.065-2.441 10.359-14.298 3.143-8.402-3.612-14.53-4.848-3.604-.73-10.204 2.705-13.576.973-6.636-3.414-4.217-7.085-7.332-10.5-3.284-3.6-6.925-2.833-11.386-8.248-3.491-4.236-4.757-8.826-2.09-14.981 1.753-4.043-2.667-8.133-1.103-14.015Z" class="color20196f svgShape"></path><path fill="#fc06cf" d="M711.515 718.528c-3.45 6.709-7.172 32.726-6.844 41.66a12.797 12.797 0 0 1-6.38-5.795c4.584-11.316 8.51-28.14 8.815-40.464.194-7.82-5.257-14.048-7.088-22.805a27.6 27.6 0 0 1 1.244-5.653c3.927 3.93 7.352 7.377 8.514 10.826 1.164 3.452 5.188 15.524 1.74 22.231Z" class="colorfcba06 svgShape"></path><path fill="#a7d0fa" d="M696.759 667.179c-1.621 2.314-3.693.497-1.486-2.151 2.21-2.647 4.223-1.76 1.486 2.15Z" class="colorfacfa7 svgShape"></path><path fill="#a7d0fa" d="M696.945 670.465c-2.236 1.73-3.675-.624-.778-2.493 2.897-1.871 4.554-.424.778 2.493Z" class="colorfacfa7 svgShape"></path><path fill="#a7d0fa" d="M697.778 672.068c-2.052.672-2.484-1.387.077-1.991 2.56-.603 3.381.862-.077 1.991ZM691.749 682.603c0-2.157 1.959-4.196 2.525-5.427a45.905 45.905 0 0 1 4.756-3.422c1.092-.75-6.408-.029-7.612-1.872 0 0-6.525-1.106-7.833 1.755-1.441 3.694-.069 5.82-.069 8.022 0 0 8.233 3.105 8.233.944Z" class="colorfacfa7 svgShape"></path><path fill="#6f67e9" d="m689.256 677.659 10.41-4.335-8.615-19.23-10.409 4.335 8.614 19.23z" class="color6b67e9 svgShape"></path><path fill="#6822a2" d="m698.747 673.036-8.082-18.033-9.076 3.78 8.082 18.033 9.076-3.78z" class="color423eaf svgShape"></path><path fill="#652e93" d="m688.881 678.407.375-.748-8.614-19.23-.379.75 8.618 19.228z" class="color362e93 svgShape"></path><path fill="#5046e4" d="m699.289 674.071.377-.747-10.41 4.335-.375.748 10.408-4.336z" class="color5652cc svgShape"></path><path fill="#a7d0fa" d="M682.436 673.075a2.773 2.773 0 0 1 1.253-2.025c-.014-2.53-.173-5.811-.173-5.811 1.35-.309 2.229 1.051 2.373 1.807.209 1.117-.136 3.563.853 4.626 1.577 1.697 3.23 4.051 3.155 6.735l-1.954 1.38L684.18 677l-1.204.914s-.458-4.06-.54-4.84Z" class="colorfacfa7 svgShape"></path><path fill="url(#ad)" d="M706.519 673.918c-5.11 9.406-7.794 17.693-11.8 26.088-1.04-4.505-1.225-11.056-2.306-17.91l-9.496-.644c.487 11.709 1.508 40.33 11.371 39.43 10.283-5.167 23.521-26.834 25.446-37.09 2.825-15.015-9.995-18.523-13.215-9.874Z"></path></g><g data-name="Woman" fill="#f4f6f8" class="color000000 svgShape"><path style="mix-blend-mode:multiply" fill="url(#ae)" d="m616.631 748.417-83.113.051-10.87 18.326h13.312l-5.714 9.633 86.385-.053v-27.957z"></path><path fill="#a9d2fc" d="M541.097 585.001c0 1.719 5.903 23.549 7.17 25.73 1.823 3.145 4.995 6.43 5.758 8.461a32.236 32.236 0 0 1 1.524 7.106c0 1.055-1.355 4.74-2.672 4.215-1.318-.528.601-2.448-.04-3.086-.261.601-1.767 2.105-3.083 1.844-1.318-.264-.843-.739-.843-.739-.696.254-1.632.26-1.886-.277-.594.197-1.581.705-1.835-.791-.254-1.494-.43-3.986-1.045-4.941-1.974-3.077-1.75-10.428-2.144-11.352-.396-.924-7.646-19.084-8.264-22.922-.62-3.84-.543-23.107 2.845-23.258 3.385-.15 4.515 14.506 4.515 20.01Z" class="colorfcd1a9 svgShape"></path><path fill="url(#l)" d="M530.23 747.466c-4.016.656-5.178 7.13-3.169 11.193a15.648 15.648 0 0 0 4.396 2.705s12.684 5.205 15.535 5.43c2.858.234 9.193-.834 9.712-5.711-.488-2.975-2.99-3.791-6.066-5.619-3.999-2.375-7.43-5.822-10.654-7.408-2.653-1.303-9.754-.59-9.754-.59Z"></path><path fill="#a9d2fc" d="M537.938 743.34c-1.96.323-8.255 1.88-8.255 1.88s-2.333 6.527 1.347 7.683c7.143 2.243 13.23-2.552 10.422-4.164-1.888-1.076-3.744-2.297-3.514-5.398Z" class="colorfcd1a9 svgShape"></path><path fill="#0c2340" d="M546.906 765.491c-2.938-.234-15.995-5.584-15.995-5.584a16.9 16.9 0 0 1-4.383-2.664 9.162 9.162 0 0 0 .533 1.416 15.648 15.648 0 0 0 4.396 2.705s12.684 5.205 15.535 5.43c2.858.234 9.193-.834 9.712-5.711-.02-.1-.058-.19-.074-.293-1.347 4.014-7.035 4.922-9.724 4.701Z" class="color131147 svgShape"></path><path fill="#662e94" d="M542.664 749.704c-.529-.707-1.767-2.59-3.948-1.037-2.28 1.623-2.795 3.58-2.528 5.205.267 1.623 4.966.42 5.143.176.18-.242 1.333-4.344 1.333-4.344Z" class="color362e94 svgShape"></path><path fill="#ffffff" d="M544.821 751.73a9.57 9.57 0 0 0-4.26 4.144 1.286 1.286 0 1 1-2.325-1.101 12.117 12.117 0 0 1 5.579-5.409 1.285 1.285 0 1 1 1.006 2.366ZM548.781 754.263a9.546 9.546 0 0 0-4.251 4.14 1.288 1.288 0 0 1-2.328-1.103 12.05 12.05 0 0 1 5.575-5.406 1.287 1.287 0 1 1 1.004 2.369Z" class="colorffffff svgShape"></path><path fill="#a9d2fc" d="M536.829 615.204c1.93 23.887 5.13 46.621 5.13 65.793 0 21.928-3.806 45.027-4.04 63.404.204 5.637-6.192 10.055-8.897 5.079-.116-1.637.65-3.713.37-6.116-1.636-13.998-6.427-35.502-2.395-53.6-5.552-23.991-20.837-53.642-18.574-72.47 6.945-3.447 23.094-3.777 28.406-2.09ZM533.76 539.593c6.264 3.076 8.55 7.773 8.55 17.105-4.274-2.619-8.55-17.105-8.55-17.105Z" class="colorfcd1a9 svgShape"></path><path fill="#6822a2" d="M530.408 624.31v4.009l-3.474-2.004 3.474-2.005z" class="color423eaf svgShape"></path><path fill="url(#af)" d="M513.483 757.097c-4.015.656-5.174 7.13-3.167 11.193a15.587 15.587 0 0 0 4.397 2.705s12.684 5.205 15.533 5.432c2.858.236 9.196-.836 9.713-5.715-.488-2.973-2.993-3.791-6.067-5.617-3.999-2.373-7.43-5.82-10.652-7.406-2.654-1.305-9.757-.592-9.757-.592Z"></path><path fill="#a9d2fc" d="M521.191 752.972c-1.958.322-8.255 1.879-8.255 1.879s-2.33 6.529 1.349 7.681c7.143 2.244 13.23-2.55 10.422-4.16-1.888-1.078-3.745-2.299-3.516-5.4Z" class="colorfcd1a9 svgShape"></path><path fill="#0c2340" d="M530.16 775.122c-2.937-.232-15.992-5.584-15.992-5.584a16.843 16.843 0 0 1-4.385-2.664 9.086 9.086 0 0 0 .533 1.416 15.587 15.587 0 0 0 4.397 2.705s12.684 5.205 15.533 5.432c2.858.236 9.196-.836 9.713-5.715-.022-.098-.059-.19-.076-.289-1.345 4.012-7.035 4.92-9.722 4.7Z" class="color131147 svgShape"></path><path fill="#662e94" d="M525.919 759.335c-.53-.707-1.767-2.59-3.949-1.035-2.28 1.623-2.794 3.578-2.528 5.205.268 1.621 4.968.42 5.144.176.178-.244 1.333-4.346 1.333-4.346Z" class="color362e94 svgShape"></path><path fill="#ffffff" d="M528.076 761.36a9.584 9.584 0 0 0-4.259 4.147 1.287 1.287 0 0 1-2.325-1.104 12.115 12.115 0 0 1 5.577-5.408 1.285 1.285 0 1 1 1.007 2.365ZM532.037 763.894a9.548 9.548 0 0 0-4.254 4.142 1.286 1.286 0 0 1-2.324-1.103 12.07 12.07 0 0 1 5.571-5.409 1.287 1.287 0 1 1 1.007 2.37Z" class="colorffffff svgShape"></path><path fill="#a9d2fc" d="M523.703 625.483c0 21.957.233 46.512.233 65.68 0 21.93-2.53 44.492-2.76 62.87.2 5.638-6.194 10.056-8.9 5.08-.115-1.637.651-3.714.371-6.118-1.636-13.998-6.429-35.502-2.396-53.6-5.551-23.992-14.109-49.271-9.019-73.74 6.942-3.449 17.16-1.857 22.47-.172Z" class="colorfcd1a9 svgShape"></path><path fill="url(#ag)" d="M507.191 597.255c1.817-16.543-5.992-32.15-7.423-42.486-.903-6.522-1.555-14.159 4.352-15.998 6.102-1.9 8.57-2.784 13.86-2.653 12.74.317 18.71 2.93 21.306 11.705 2.442 8.262 4.175 10.774 6.185 18.873.902 3.631-9.091 11.522-7.931 27.188 8.853 13.387 15.204 43.63 17.907 67.39 1.033 7.157-6.25 16.36-19.127 22.801-16.24 8.13-35.172 8.78-42.287 1.453a9.157 9.157 0 0 1-2.68-6.12c-.012-8.434 4.78-68.41 15.838-82.153Z"></path><path fill="#a9d2fc" d="M513.454 520.607c.225-3.922 13.634 3.878 13.338 9.048-.246 4.207-.793 8.446.783 8.987 1.829 1.322 7.271 15.289 4.003 18.552-11.39-4.662-17.328-14.529-27.458-18.423 4.147-.848 8.606-5.471 9.334-18.164Z" class="colorfcd1a9 svgShape"></path><path fill="#a9d2fc" d="m510.222 515.18 4.034-10.097h25.582v15.393c0 8.502-5.728 15.394-12.791 15.394-6.851 0-12.397-6.494-12.729-14.644l-1.782.048Z" class="colorfcd1a9 svgShape"></path><path fill="#9dc7f2" d="M516.527 529.112c2.197 3.905 5.825 6.508 9.992 6.72a4.111 4.111 0 0 0 .647 2.536 9.232 9.232 0 0 1-2.028-.183c-4.27-1.047-7.355-4.577-8.611-9.073Z" class="colorf2c39d svgShape"></path><path fill="#193f6f" d="M525.367 494.353a1.397 1.397 0 0 1 .24-.004c13.952.351 15 10.779 14.23 12.506-4.426 1.582-7.215-1.418-9.996-1.186-1.34.107-6.79.848-9.04 3.73-2.422 3.102-1.652 8.063-3.936 7.944-.992-.041-1.293-3.367-2.773-3.457-1.24-.07-2.492 1.088-2.345 2.992.19 2.564 2.616 4.117 2.259 5.357-.596 2.04-5.7-1.623-5.602-8.9.102-7.228 4.924-19.473 16.963-18.982Z" class="color20196f svgShape"></path><path fill="#a9d2fc" d="M500.643 605.118s-2.74 6.832-2.746 6.84c-9.561-4.984-15.168-18.01-15.716-28.518-.736-14.152 13.926-38.072 14.689-39.208 3.71-5.53 12.52-.625 9.604 6.457-.632 1.433-15.646 26.126-14.04 34.474 1.109 5.768 2.998 16.348 8.21 19.955Z" class="colorfcd1a9 svgShape"></path><path fill="#193f6f" d="M523.604 494.378c-14.828 1.059-16.607 15.68-22.504 19.635-3.521 2.357-11.376-2.094-15.978 5.87-5.29 9.157 3.27 12.48-2.335 16.358-5.606 3.875-9.912 15.71-.57 22.975 9.341 7.266 21.042.883 19.72-9.756-.949-7.658 1.322-11.611 7.752-9.135 4.82 1.852 6.662-1.951 4.497-6.851 10.713 1.07-.522-19.362 15.655-27.805-.61-4.164-6.237-11.291-6.237-11.291Z" class="color20196f svgShape"></path><path fill="#a9d2fc" d="M500.643 605.118c1.12.727 7.262-.726 8.715-.726a30.618 30.618 0 0 1 8.806 1.091c3.347 1.075 5.63 2.301 3.347 2.827 1.233.265 4.138 1.453 1.848 2.115-.22.79-1.056 1.85-3.566 1.76-.836.662-6.692 1.894-8.498 1.586-1.892.572-11.858.365-13.398-1.813 0-3.691 2.746-6.84 2.746-6.84Z" class="colorfcd1a9 svgShape"></path></g><g fill="#f4f6f8" class="color000000 svgShape"><path style="mix-blend-mode:multiply" fill="url(#m)" d="M463.457 880.723h88.409v16.252h-88.409z"></path><path style="mix-blend-mode:multiply" fill="url(#ah)" d="M423.166 857.278h88.4v16.246h-88.4z"></path><path fill="url(#n)" d="M413.835 868.514c0-12.762 8.09-13.137 8.09-13.137s4.378 0 11.497-2.951c7.022-2.916 16.917-1.789 11.385 8.412a2.51 2.51 0 0 1-.187.377 4.984 4.984 0 0 1-1.792 1.574L425.15 873.16c-2.697 1.534-11.255-2.02-11.315-4.646Z"></path><path fill="#102847" d="M413.885 867.37c.15 2.619 8.594 6.109 11.265 4.58l17.678-10.36a16.744 16.744 0 0 0 2.488-1.818c-.16.35-.302.687-.509 1.066a2.51 2.51 0 0 1-.187.377 4.984 4.984 0 0 1-1.792 1.574L425.15 873.16c-2.523 1.44-10.191-1.59-11.203-4.142a2.842 2.842 0 0 1-.08-.516 7.811 7.811 0 0 1 .018-1.133Z" class="color121047 svgShape"></path><path fill="#ffffff" d="M417.125 853.701c2.085 0 9.415 1.864 9.415 1.864a4.07 4.07 0 0 0 .658 1.902c.072.076.137.16.205.248 1.445 1.004 2.917 2.594-.516 4.748a4.766 4.766 0 0 1-6.181-.437 5.59 5.59 0 0 0-1.995-2.266 4.996 4.996 0 0 0-1.909-.803 1.182 1.182 0 0 0-.016-.176s-.534-5.08.339-5.08Z" class="colorffffff svgShape"></path><path fill="#0c2340" d="M416.992 728.889c7.995.146 27.97.506 35.958.644-2.973 24.024-8.96 45.842-12.954 69.114-4.292 22.609-9.126 38.504-13.346 57.318-1.546 3.502-8.614 2.178-10.045-1.193-1.117-17.332-2.407-38.442 2.731-58.44-.857-21.55-2.847-45.676-2.344-67.443Z" class="color131147 svgShape"></path><path fill="url(#ai)" d="M454.131 891.967c0-12.764 8.086-13.135 8.086-13.135s4.38 0 11.5-2.951c7.017-2.918 16.915-1.791 11.387 8.408a4.042 4.042 0 0 1-.191.381 4.936 4.936 0 0 1-1.8 1.57l-17.67 10.372c-2.695 1.533-11.251-2.016-11.312-4.645Z"></path><path fill="#102847" d="M454.174 890.82c.154 2.618 8.599 6.112 11.27 4.58l17.67-10.357a16.752 16.752 0 0 0 2.496-1.82c-.167.351-.302.69-.506 1.066a4.042 4.042 0 0 1-.191.381 4.936 4.936 0 0 1-1.8 1.57l-17.67 10.372c-2.52 1.441-10.191-1.59-11.202-4.135a2.348 2.348 0 0 1-.077-.522 8.787 8.787 0 0 1 .01-1.134Z" class="color121047 svgShape"></path><path fill="#ffffff" d="M457.42 877.15c2.078 0 9.415 1.866 9.415 1.866a4.152 4.152 0 0 0 .65 1.902c.075.082.138.164.204.248 1.451 1.004 2.927 2.594-.512 4.75a4.766 4.766 0 0 1-6.178-.433 5.696 5.696 0 0 0-1.992-2.268 5.043 5.043 0 0 0-1.914-.805 1.265 1.265 0 0 0-.018-.171s-.53-5.088.344-5.088Z" class="colorffffff svgShape"></path><path fill="url(#o)" d="M442.351 786.016c-2.184-10.326-27.384-11.608-25.731-52.217 7.908-1.164 47.798 17.549 55.7 16.385.99 24.181-1.346 46.693-1.495 70.293-.537 23.008-2.712 39.476-3.803 58.728-.95 3.715-8.139 3.559-10.105.469-3.932-16.916-8.65-37.539-6.847-58.103-2.354-11.391-5.158-23.461-7.719-35.555Z"></path><path fill="#e100b8" d="M434.856 654.95c-28.139 18.8-31.494 56.148-16.281 79.84 0 0-3.269-52.507 16.281-79.84Z" class="colore19100 svgShape"></path><path fill="url(#aj)" d="M433.572 756.817c17.126 9.619 35.049 9.632 41.157-2.182-2.287-22-4.43-39.904-.017-60.992-1.297-11.645-2.218-13.395-.726-20.19-.527-2.279-7.54-7.138-12.639-11.802-5.514-5.028-9.238-9.819-12.08-10.397-23.422-4.783-34.8 36.95-32.839 81.447 1.808 11.832 8.71 19.389 17.144 24.116Z"></path><path fill="#a9d2fc" d="M436.279 653.91c5.078-3.675 4.67-11.263 4.244-16.302a24.796 24.796 0 0 1-.948-8.707c.749-11.1 8.473-20.22 17.095-19.036 17.382 2.374 13.654 11.36 12.905 22.463-.697 10.282-5.84 17.045-13.72 17.71-.114 1.693.576 6.83 2.706 8.964-5.718 3.42-14.06 1.809-17.363.324-3.508-1.593-7.301-2.953-4.92-5.416Z" class="colorfcd1a9 svgShape"></path><path fill="#193f6f" d="M463.614 604.442c-.414-1.391-3.067-2.297-12.097 1.177-.057.028-2.192.86-2.331.912-16.712 7.239-12.676 26.512-10.179 31.63a10.398 10.398 0 0 1 1.315 6.066c6.57-.272 8.65 3.426 12.856-.258 3.02-2.635 7.532-5.732 8.292-7.025a5.141 5.141 0 0 0 .615-3.188c.017-9.234 4.283-3.596 4.144-1.47 1.751-.854 1.633-4.567 1.518-8.696 14.187-10.582 6.571-17.887-4.133-19.148Z" class="color20196f svgShape"></path><path fill="#a9d2fc" d="M472.694 762.772a5.788 5.788 0 0 1-8.483.281c-2.771-2.918-1.168-6.158-2.693-7.137-4.153-2.662-5.11-5.168-4.408-7.68 3.315 2.102 6.737 5.493 9.637 3.434 2.896-2.049 6.668-4.88 6.873-7.806 4.312.984 4.535 10.335 2.29 14.087a39.853 39.853 0 0 1-3.216 4.82Z" class="colorfcd1a9 svgShape"></path><path fill="url(#ak)" d="M466.863 755.422c-2.138 5.223-.636 8.436 4.602 9.024 13.076-6.696 20.68-25.471 20.899-35.782.377-17.199-7.976-38.793-18.585-55.73-2.463-3.639-10.415-2.258-14.328 2.91-5.3 6.984-3.032 17.154-.034 21.287 7.682 12.28 16.25 21.424 17.084 31.26.77 9.115-2.944 21.113-9.638 27.031Z"></path></g><g data-name="Man" fill="#f4f6f8" class="color000000 svgShape"><path style="mix-blend-mode:multiply" fill="url(#al)" d="M604.915 875.573h88.8v16.323h-88.8z"></path><path style="mix-blend-mode:multiply" fill="url(#am)" d="M560.231 860.082h91.327v16.785h-91.327z"></path><path fill="url(#an)" d="M550.591 871.691c0-13.183 8.358-13.57 8.358-13.57s4.522 0 11.878-3.05c7.253-3.012 17.477-1.848 11.762 8.69a2.762 2.762 0 0 1-.194.39 5.159 5.159 0 0 1-1.852 1.626l-18.264 10.715c-2.786 1.586-11.626-2.088-11.688-4.8Z"></path><path fill="#102847" d="M550.642 870.508c.155 2.707 8.88 6.312 11.637 4.732l18.264-10.701a17.433 17.433 0 0 0 2.571-1.879c-.165.362-.312.71-.525 1.102a2.762 2.762 0 0 1-.194.388 5.159 5.159 0 0 1-1.852 1.627l-18.264 10.715c-2.605 1.487-10.528-1.642-11.574-4.281a2.937 2.937 0 0 1-.08-.531 8.337 8.337 0 0 1 .017-1.172Z" class="color121047 svgShape"></path><path fill="#ffffff" d="M553.99 856.389c2.154 0 9.726 1.925 9.726 1.925a4.194 4.194 0 0 0 .68 1.965c.075.078.14.164.213.256 1.492 1.04 3.012 2.68-.535 4.904a4.92 4.92 0 0 1-6.384-.45 5.774 5.774 0 0 0-2.061-2.339 5.137 5.137 0 0 0-1.974-.832 1.306 1.306 0 0 0-.015-.181s-.552-5.248.35-5.248Z" class="colorffffff svgShape"></path><path fill="#0c2340" d="M553.852 727.443c8.26.153 28.897.524 37.148.666-3.07 24.82-9.256 47.36-13.382 71.403-4.434 23.36-9.428 39.777-13.788 59.217-1.596 3.617-8.9 2.248-10.378-1.235-1.154-17.906-2.486-39.715 2.823-60.375-.886-22.264-2.942-47.187-2.423-69.676Z" class="color131147 svgShape"></path><path fill="url(#ao)" d="M591.808 886.385c0-13.186 8.354-13.569 8.354-13.569s4.525 0 11.88-3.048c7.25-3.016 17.476-1.852 11.763 8.685a3.866 3.866 0 0 1-.196.393 5.155 5.155 0 0 1-1.858 1.625l-18.255 10.713c-2.787 1.586-11.626-2.082-11.688-4.8Z"></path><path fill="#102847" d="M591.854 885.2c.158 2.706 8.881 6.314 11.642 4.734l18.255-10.7a17.687 17.687 0 0 0 2.578-1.88c-.173.36-.31.709-.524 1.1a3.866 3.866 0 0 1-.196.392 5.155 5.155 0 0 1-1.858 1.625l-18.255 10.713c-2.605 1.488-10.53-1.643-11.574-4.272a2.387 2.387 0 0 1-.081-.54 8.859 8.859 0 0 1 .013-1.173Z" class="color121047 svgShape"></path><path fill="#ffffff" d="M595.206 871.078c2.147 0 9.727 1.928 9.727 1.928a4.304 4.304 0 0 0 .672 1.967c.077.084.141.166.21.254 1.499 1.039 3.024 2.68-.53 4.906a4.922 4.922 0 0 1-6.383-.447 5.876 5.876 0 0 0-2.056-2.34 5.243 5.243 0 0 0-1.977-.834 1.399 1.399 0 0 0-.02-.176s-.547-5.258.357-5.258Z" class="colorffffff svgShape"></path><path fill="url(#ap)" d="M579.639 776.926c-2.257-10.666-28.291-11.992-26.583-53.946 8.169-1.203 49.379 18.13 57.545 16.928 1.02 24.983-1.393 48.239-1.546 72.621-.555 23.768-2.803 40.782-3.929 60.674-.982 3.836-8.408 3.676-10.44.485-4.062-17.48-8.937-38.786-7.073-60.03-2.431-11.767-5.329-24.238-7.974-36.732Z"></path><path fill="url(#p)" d="M569.653 645.693c-18.959 13.092-27.996 29.918-28.939 38.032-1.49 12.816 4.4 21.4 13.235 42.2 0 0 .325-13.788.427-18.954-.952-3.17-3.745-12.998-2.968-18.073.684-4.468 13.795-14.29 15.434-19.095 4.02-11.783-3.384-15.448 2.811-24.11Z"></path><path fill="#a9d2fc" d="m663.009 622.479-.053.05c1.408-2.816 2.821-4.162 4.147-4.1.573-.558 1.17-1.136 1.745-1.687 3.37-3.23 9.458-4.4 9.926-2.996.282.848-2.824 1.457-4.942 2.738a7.436 7.436 0 0 0-2.456 2.457s5.02 3.125 2.831 7.502c-1.78 3.559-2.998 1.194-2.647.493-3.16 2.923-3.708-.014-5.803 2.61l-4.44-5.368s.674-.682 1.692-1.7Z" class="colorfcd1a9 svgShape"></path><path fill="url(#aq)" d="M660.646 624.203c-1.776.867-20.162 17.299-26.895 22.162-6.976 2.2-17.14 5.52-22.436 6.826-3.953.35-6.136.307-13.298-3.502-6.968-3.703-14.809-4.878-17.745-5.474-24.196-4.942-29.664 40.027-27.638 86 3.408 11.307 8.604 13.42 18.878 17.49 8.59 3.402 34.785 8.525 41.577-3.2-2.339-22.495-6.693-47.519-2.361-69.15 10.337-5.222 22.946-7.93 32.073-15.529 13.95-11.62 20.432-25.63 23.032-29.33 1.009-1.437-1.043-6.863-5.187-6.293Z"></path><path fill="#bbd0e6" d="M642.8 659.826c-2.326 1.778-24.8 9.625-34.247 11.406-9.445 1.782-4.817 4.229-4.034 9.512 1.071 7.238 2.22 37.436 7.083 50.62-2.2-18.8-4.377-38.512-.874-56.009 10.337-5.222 22.946-7.93 32.073-15.529Z" class="colorbbc0e6 svgShape"></path><path fill="#a9d2fc" d="M571.706 644.857c5.41-3.912 4.607-6.468 3.798-11.793a26.46 26.46 0 0 1-1.634-9.19c0-11.858 7.548-22.102 16.805-21.466 18.648 1.28 15.333 11.092 15.333 22.95 0 10.982-4.983 18.54-13.316 19.816 0 1.805 1.738 2.918 4.007 3.851-6.09 3.647-15.224 4.243-19.293 2.659-3.827-1.49-8.24-4.202-5.7-6.827Z" class="colorfcd1a9 svgShape"></path><path fill="#0c2340" d="M576.324 601.639c3.248-3.131 7.028-.13 8.915-1.11.326-.156.665-.316 1.02-.49.005.004.005-.002.006-.004 2.473-1.476 1.289-2.56 3.576-3.924 2.262-1.35 4.454.526 5.924.036l-.006.007c3.48-1.09 6.619-1.543 7.991-.267a9.725 9.725 0 0 1 1.79 2.351l-.002-.002c1.172 1.96 5.224-.56 4.97 3.678-.234 3.977-1.724 5.303-2.35 11.387-.027.351-.053.705-.093 1.05-.004.073-.015.135-.019.202-.004 0-.004-.004-.006-.016-.473 3.94-1.74 4.986-3.741 6.99-1.945 1.946-1.881.104-1.978-.666-.183-1.445-.594-2.736-1.457-2.681-.875.058-2.612.5-3.505 4.316-.642 2.758 1.217 2.152 1.048 2.91-2.498 11.219-6.684 10.367-11.45 11.715a14.54 14.54 0 0 1-11.224-1.119c-1.15-4.297-1.604-6.818-2.159-8.83a34.81 34.81 0 0 1 .036-12.188c0-.013-.01-.005-.008-.017 1.325-5.238-.452-10.264 2.722-13.328Z" class="color131147 svgShape"></path><path fill="url(#ar)" d="M596.7 649.025c0-.638-1.133-2.755-3.112-1.853-6.138 2.795-13.915 2.754-18.852.014-1.217-.676-2.268-1.84-1.883-3.247a1.92 1.92 0 0 0-2.069 1.481c-.198.588-.677 2.54 1.896 4.367 2.744 1.95 11.512 6.281 24.02-.762Z"></path></g></g></g></g></svg>