<svg xmlns="http://www.w3.org/2000/svg" xmlns:xlink="http://www.w3.org/1999/xlink" viewBox="0 0 1535.739 1207.117" id="TimeisMoneyConcept"><defs><linearGradient id="e" x1="584.931" x2="978.014" y1="483.94" y2="483.94" gradientUnits="userSpaceOnUse"><stop offset="0" stop-color="#51a7fd" class="stopColorfde751 svgShape"></stop><stop offset="1" stop-color="#fa0ace" class="stopColorfab80a svgShape"></stop></linearGradient><linearGradient id="r" x1="153.75" x2="209.8" y1="179.838" y2="82.755" gradientUnits="userSpaceOnUse"><stop offset=".32" stop-color="#a3b9d0" class="stopColora3a9d0 svgShape"></stop><stop offset=".635" stop-color="#cee3f8" class="stopColorced3f8 svgShape"></stop></linearGradient><linearGradient id="s" x1="246.11" x2="337.035" y1="287.258" y2="129.772" gradientUnits="userSpaceOnUse"><stop offset=".342" stop-color="#7c3eaf" class="stopColor423eaf svgShape"></stop><stop offset=".606" stop-color="#857dfb" class="stopColor807dfb svgShape"></stop></linearGradient><linearGradient id="m" x1="148.389" x2="225.567" y1="483.43" y2="349.754" gradientUnits="userSpaceOnUse"><stop offset=".006" stop-color="#5a52ca" class="stopColor5652ca svgShape"></stop><stop offset="1" stop-color="#857df9" class="stopColor807df9 svgShape"></stop></linearGradient><linearGradient id="a" x1="228.913" x2="197.956" y1="447.286" y2="398.671" gradientUnits="userSpaceOnUse"><stop offset=".006" stop-color="#652e92" class="stopColor362e92 svgShape"></stop><stop offset="1" stop-color="#6e66e7" class="stopColor6b66e7 svgShape"></stop></linearGradient><linearGradient id="t" x1="446.545" x2="513.397" y1="265.721" y2="149.93" gradientUnits="userSpaceOnUse"><stop offset=".006" stop-color="#e100b8" class="stopColore19100 svgShape"></stop><stop offset="1" stop-color="#3e9eff" class="stopColorffd03e svgShape"></stop></linearGradient><linearGradient id="u" x1="510.556" x2="468.766" y1="239.331" y2="212.316" xlink:href="#a"></linearGradient><linearGradient id="v" x1="791.625" x2="1460.81" y1="732.534" y2="732.534" gradientUnits="userSpaceOnUse"><stop offset="0" stop-color="#cfe0f1" class="stopColorcfd5f1 svgShape"></stop><stop offset="1" stop-color="#ffffff" class="stopColorffffff svgShape"></stop></linearGradient><linearGradient id="d" x1="988.805" x2="1226.377" y1="634.822" y2="634.822" gradientUnits="userSpaceOnUse"><stop offset="0" stop-color="#c2d4e7" class="stopColorc2c8e7 svgShape"></stop><stop offset="1" stop-color="#ffffff" class="stopColorffffff svgShape"></stop></linearGradient><linearGradient id="b" x1="1107.446" x2="1201.873" y1="455.819" y2="619.372" gradientUnits="userSpaceOnUse"><stop offset=".006" stop-color="#f4f6f8" class="stopColorf4f4f8 svgShape"></stop><stop offset="1" stop-color="#eff1f3" class="stopColorefeff3 svgShape"></stop></linearGradient><linearGradient id="w" x1="785.346" x2="1108.637" y1="599.835" y2="599.835" gradientUnits="userSpaceOnUse"><stop offset="0" stop-color="#c2d4e7" class="stopColorc2c8e7 svgShape"></stop><stop offset=".529" stop-color="#d8e2ed" class="stopColord8dbed svgShape"></stop><stop offset="1" stop-color="#eff1f3" class="stopColorefeff3 svgShape"></stop></linearGradient><linearGradient id="x" x1="455.596" x2="1108.629" y1="767.55" y2="767.55" gradientUnits="userSpaceOnUse"><stop offset=".427" stop-color="#cce1f6" class="stopColorccd1f6 svgShape"></stop><stop offset=".579" stop-color="#b9cee4" class="stopColorb9bee4 svgShape"></stop></linearGradient><linearGradient id="y" x1="579.201" x2="639.292" y1="858.202" y2="754.12" gradientUnits="userSpaceOnUse"><stop offset=".006" stop-color="#3f9efd" class="stopColorfdce3f svgShape"></stop><stop offset="1" stop-color="#df00b6" class="stopColordf8f00 svgShape"></stop></linearGradient><linearGradient id="z" x1="391.117" x2="487.425" y1="869.392" y2="1036.203" xlink:href="#b"></linearGradient><linearGradient id="c" x1="321.291" x2="321.57" y1="1143.631" y2="1143.631" gradientUnits="userSpaceOnUse"><stop offset="0" stop-color="#cfe0f1" class="stopColorcfd5f1 svgShape"></stop><stop offset="1" stop-color="#eff1f3" class="stopColorefeff3 svgShape"></stop></linearGradient><linearGradient id="A" x1="322.196" x2="717.256" y1="1028.536" y2="1028.536" xlink:href="#c"></linearGradient><linearGradient id="B" x1="576.934" x2="648.049" y1="882.35" y2="759.176" gradientUnits="userSpaceOnUse"><stop offset=".006" stop-color="#ffffff" class="stopColorffffff svgShape"></stop><stop offset=".019" stop-color="#fbfdff" class="stopColorfffefb svgShape"></stop><stop offset=".212" stop-color="#c2e0fe" class="stopColorfeefc2 svgShape"></stop><stop offset=".398" stop-color="#93c8fe" class="stopColorfee393 svgShape"></stop><stop offset=".575" stop-color="#6fb6fd" class="stopColorfdda6f svgShape"></stop><stop offset=".739" stop-color="#54a8fd" class="stopColorfdd354 svgShape"></stop><stop offset=".885" stop-color="#45a1fd" class="stopColorfdcf45 svgShape"></stop><stop offset="1" stop-color="#3f9efd" class="stopColorfdce3f svgShape"></stop></linearGradient><linearGradient id="C" x1="955.551" x2="978.786" y1="772.834" y2="741.224" gradientUnits="userSpaceOnUse"><stop offset="0" stop-color="#193f6e" class="stopColor1f196e svgShape"></stop><stop offset=".025" stop-color="#572b7b" class="stopColor302b7b svgShape"></stop><stop offset=".087" stop-color="#785298" class="stopColor545298 svgShape"></stop><stop offset=".156" stop-color="#7874b1" class="stopColor7574b1 svgShape"></stop><stop offset=".231" stop-color="#9390c7" class="stopColor9091c7 svgShape"></stop><stop offset=".314" stop-color="#a6bfd8" class="stopColora6a9d8 svgShape"></stop><stop offset=".409" stop-color="#b7cee6" class="stopColorb7bbe6 svgShape"></stop><stop offset=".521" stop-color="#c3d9ef" class="stopColorc3c8ef svgShape"></stop><stop offset=".671" stop-color="#cadff4" class="stopColorcacff4 svgShape"></stop><stop offset="1" stop-color="#cce1f6" class="stopColorccd1f6 svgShape"></stop></linearGradient><linearGradient id="D" x1="958.413" x2="981.066" y1="773.835" y2="742.494" gradientUnits="userSpaceOnUse"><stop offset="0" stop-color="#193f6e" class="stopColor1f196e svgShape"></stop><stop offset=".133" stop-color="#653b87" class="stopColor3f3b87 svgShape"></stop><stop offset=".336" stop-color="#8c6aa8" class="stopColor6a6aa8 svgShape"></stop><stop offset=".531" stop-color="#908dc2" class="stopColor8d8ec2 svgShape"></stop><stop offset=".712" stop-color="#a5bdd5" class="stopColora5a9d5 svgShape"></stop><stop offset=".873" stop-color="#b4cae0" class="stopColorb4b8e0 svgShape"></stop><stop offset="1" stop-color="#b9cee4" class="stopColorb9bee4 svgShape"></stop></linearGradient><linearGradient id="F" x1="546.683" x2="1016.365" y1="600.394" y2="600.394" gradientUnits="userSpaceOnUse"><stop offset=".455" stop-color="#cce1f6" class="stopColorccd1f6 svgShape"></stop><stop offset=".539" stop-color="#a9c0d8" class="stopColora9b0d8 svgShape"></stop></linearGradient><linearGradient id="G" x1="526.687" x2="1036.365" y1="561.121" y2="561.121" gradientUnits="userSpaceOnUse"><stop offset=".442" stop-color="#d8e5f3" class="stopColord8def3 svgShape"></stop><stop offset=".548" stop-color="#b9cee4" class="stopColorb9bee4 svgShape"></stop></linearGradient><linearGradient id="H" x1="585.124" x2="977.822" y1="425.049" y2="425.049" gradientUnits="userSpaceOnUse"><stop offset=".427" stop-color="#ffffff" class="stopColorffffff svgShape"></stop><stop offset=".579" stop-color="#dde7f2" class="stopColordde2f2 svgShape"></stop></linearGradient><linearGradient id="K" x1="537.045" x2="570.711" y1="602.145" y2="602.145" xlink:href="#d"></linearGradient><linearGradient id="L" x1="523.418" x2="550.672" y1="599.454" y2="599.454" xlink:href="#e"></linearGradient><linearGradient id="M" x1="733.939" x2="767.605" y1="715.82" y2="715.82" xlink:href="#d"></linearGradient><linearGradient id="N" x1="720.31" x2="747.566" y1="713.131" y2="713.131" xlink:href="#e"></linearGradient><linearGradient id="f" x1="1335.582" x2="1416.947" y1="492.105" y2="492.105" gradientUnits="userSpaceOnUse"><stop offset="0" stop-color="#c4d4e4" class="stopColorc4c9e4 svgShape"></stop><stop offset=".188" stop-color="#d7e2ed" class="stopColord7daed svgShape"></stop><stop offset=".477" stop-color="#edf2f7" class="stopColoredeef7 svgShape"></stop><stop offset=".753" stop-color="#fafbfd" class="stopColorfafbfd svgShape"></stop><stop offset="1" stop-color="#ffffff" class="stopColorffffff svgShape"></stop></linearGradient><linearGradient id="O" x1="1096.615" x2="1144.068" y1="507.187" y2="507.187" xlink:href="#f"></linearGradient><linearGradient id="P" x1="1149.33" x2="1196.785" y1="617.756" y2="617.756" xlink:href="#f"></linearGradient><linearGradient id="h" x1="481.522" x2="613.126" y1="907.601" y2="907.601" gradientUnits="userSpaceOnUse"><stop offset=".453" stop-color="#c4d4e4" class="stopColorc4c9e4 svgShape"></stop><stop offset="1" stop-color="#ffffff" class="stopColorffffff svgShape"></stop></linearGradient><linearGradient id="g" x1="451.369" x2="580.273" y1="917.897" y2="917.897" gradientUnits="userSpaceOnUse"><stop offset="0" stop-color="#fc06cf" class="stopColorfcba06 svgShape"></stop><stop offset="1" stop-color="#e100b8" class="stopColore19100 svgShape"></stop></linearGradient><linearGradient id="Q" x1="495.932" x2="524.223" y1="903.197" y2="903.197" xlink:href="#g"></linearGradient><linearGradient id="R" x1="323.891" x2="455.496" y1="998.609" y2="998.609" xlink:href="#h"></linearGradient><linearGradient id="S" x1="293.738" x2="422.642" y1="1008.904" y2="1008.904" xlink:href="#g"></linearGradient><linearGradient id="T" x1="338.301" x2="366.592" y1="994.205" y2="994.205" xlink:href="#g"></linearGradient><linearGradient id="U" x1="153.337" x2="284.942" y1="1108.088" y2="1108.088" xlink:href="#h"></linearGradient><linearGradient id="V" x1="174.779" x2="204.218" y1="1095.602" y2="1095.602" xlink:href="#g"></linearGradient><linearGradient id="W" x1="135.105" x2="262.722" y1="1102.052" y2="1102.052" xlink:href="#g"></linearGradient><linearGradient id="i" x1="1032.896" x2="1115.558" y1="944.317" y2="944.317" gradientUnits="userSpaceOnUse"><stop offset="0" stop-color="#c4d6e9" class="stopColorc4cae9 svgShape"></stop><stop offset=".095" stop-color="#cedded" class="stopColorced3ed svgShape"></stop><stop offset=".409" stop-color="#e9f0f7" class="stopColore9ebf7 svgShape"></stop><stop offset=".687" stop-color="#f9fbfd" class="stopColorf9fafd svgShape"></stop><stop offset=".899" stop-color="#ffffff" class="stopColorffffff svgShape"></stop></linearGradient><linearGradient id="X" x1="1070.156" x2="1152.82" y1="922.379" y2="922.379" xlink:href="#i"></linearGradient><linearGradient id="Y" x1="623.612" x2="636.916" y1="699.068" y2="698.884" gradientTransform="rotate(9.55 389.642 3470.06)" gradientUnits="userSpaceOnUse"><stop offset="0" stop-color="#7c3eaf" class="stopColor423eaf svgShape"></stop><stop offset="1" stop-color="#7c3eaf" class="stopColor423eaf svgShape"></stop></linearGradient><linearGradient id="j" x1="1710.356" x2="1740.826" y1="919.471" y2="919.471" gradientTransform="translate(-661.516)" gradientUnits="userSpaceOnUse"><stop offset="0" stop-color="#7c3eaf" class="stopColor423eaf svgShape"></stop><stop offset=".109" stop-color="#6822a2" class="stopColor3e39a7 svgShape"></stop><stop offset=".696" stop-color="#224b7e" class="stopColor28227e svgShape"></stop><stop offset="1" stop-color="#193f6f" class="stopColor20196f svgShape"></stop></linearGradient><linearGradient id="Z" x1="1672.679" x2="1703.15" y1="941.4" y2="941.4" xlink:href="#j"></linearGradient><linearGradient id="aa" x1="1685.912" x2="1738.295" y1="868.597" y2="868.597" gradientTransform="translate(-661.516)" gradientUnits="userSpaceOnUse"><stop offset="0" stop-color="#7c3eaf" class="stopColor423eaf svgShape"></stop><stop offset=".301" stop-color="#683097" class="stopColor353097 svgShape"></stop><stop offset=".746" stop-color="#1f477a" class="stopColor261f7a svgShape"></stop><stop offset="1" stop-color="#193f6f" class="stopColor20196f svgShape"></stop></linearGradient><linearGradient id="k" x1="1682.295" x2="1742.649" y1="780.412" y2="780.412" gradientTransform="translate(-661.516)" gradientUnits="userSpaceOnUse"><stop offset="0" stop-color="#857dfb" class="stopColor807dfb svgShape"></stop><stop offset=".312" stop-color="#7c74f1" class="stopColor7774f1 svgShape"></stop><stop offset=".847" stop-color="#625ad5" class="stopColor5e5ad5 svgShape"></stop><stop offset="1" stop-color="#5a52cc" class="stopColor5652cc svgShape"></stop></linearGradient><linearGradient id="ab" x1="972.646" x2="1030.24" y1="766.487" y2="766.487" xlink:href="#k"></linearGradient><linearGradient id="o" x1="369.643" x2="453.309" y1="637.442" y2="637.442" gradientTransform="translate(-2.264)" gradientUnits="userSpaceOnUse"><stop offset="0" stop-color="#c2d4e7" class="stopColorc2c8e7 svgShape"></stop><stop offset=".111" stop-color="#ceddec" class="stopColorced3ec svgShape"></stop><stop offset=".419" stop-color="#e9eff6" class="stopColore9ebf6 svgShape"></stop><stop offset=".691" stop-color="#f9fbfd" class="stopColorf9fafd svgShape"></stop><stop offset=".899" stop-color="#ffffff" class="stopColorffffff svgShape"></stop></linearGradient><linearGradient id="l" x1="1281.343" x2="1295.012" y1="633.122" y2="619.452" gradientTransform="translate(-902.746)" gradientUnits="userSpaceOnUse"><stop offset="0" stop-color="#102847" class="stopColor121047 svgShape"></stop><stop offset=".194" stop-color="#122d4f" class="stopColor15124f svgShape"></stop><stop offset="1" stop-color="#193f6e" class="stopColor1e196e svgShape"></stop></linearGradient><linearGradient id="ac" x1="196.255" x2="199.802" y1="512.353" y2="631.372" gradientTransform="matrix(-1 0 0 1 580.482 0)" gradientUnits="userSpaceOnUse"><stop offset="0" stop-color="#193f6e" class="stopColor1f196e svgShape"></stop><stop offset=".229" stop-color="#1c4374" class="stopColor221c74 svgShape"></stop><stop offset=".528" stop-color="#592684" class="stopColor2c2684 svgShape"></stop><stop offset=".866" stop-color="#6f369f" class="stopColor3b369f svgShape"></stop><stop offset="1" stop-color="#7a3eac" class="stopColor423eac svgShape"></stop></linearGradient><linearGradient id="ad" x1="1258.645" x2="1272.315" y1="646.227" y2="632.557" xlink:href="#l"></linearGradient><linearGradient id="ae" x1="178.761" x2="253.036" y1="517.282" y2="517.282" gradientTransform="matrix(-1 0 0 1 580.482 0)" gradientUnits="userSpaceOnUse"><stop offset="0" stop-color="#cce1f6" class="stopColorccd1f6 svgShape"></stop><stop offset="1" stop-color="#f4f6f8" class="stopColorf4f4f8 svgShape"></stop></linearGradient><linearGradient id="af" x1="1334.178" x2="1294.81" y1="483.304" y2="469.457" gradientTransform="matrix(-1 0 0 1 1674.78 0)" gradientUnits="userSpaceOnUse"><stop offset="0" stop-color="#cce1f6" class="stopColorccd1f6 svgShape"></stop><stop offset="1" stop-color="#b9cee4" class="stopColorb9bee4 svgShape"></stop></linearGradient><linearGradient id="ag" x1="1178.748" x2="1340.746" y1="520.616" y2="520.616" xlink:href="#f"></linearGradient><linearGradient id="ah" x1="1143.641" x2="1220.819" y1="514.907" y2="381.231" xlink:href="#m"></linearGradient><linearGradient id="ai" x1="1225.673" x2="1193.133" y1="481.129" y2="430.027" xlink:href="#a"></linearGradient><linearGradient id="aj" x1="818.252" x2="1014.32" y1="1079.055" y2="1079.055" gradientUnits="userSpaceOnUse"><stop offset="0" stop-color="#d1e0f0" class="stopColord1d6f0 svgShape"></stop><stop offset=".29" stop-color="#d5e3f1" class="stopColord5daf1 svgShape"></stop><stop offset=".592" stop-color="#e2ebf5" class="stopColore2e5f5 svgShape"></stop><stop offset=".899" stop-color="#f6f9fc" class="stopColorf6f7fc svgShape"></stop><stop offset="1" stop-color="#ffffff" class="stopColorffffff svgShape"></stop></linearGradient><linearGradient id="n" x1="865.982" x2="935.645" y1="1051.584" y2="1051.584" gradientUnits="userSpaceOnUse"><stop offset="0" stop-color="#bbcee2" class="stopColorbbbfe2 svgShape"></stop><stop offset="1" stop-color="#cee1f4" class="stopColorced2f4 svgShape"></stop></linearGradient><linearGradient id="ak" x1="964.355" x2="983.853" y1="1089.677" y2="1089.677" gradientUnits="userSpaceOnUse"><stop offset="0" stop-color="#a5bcd4" class="stopColora5acd4 svgShape"></stop><stop offset=".635" stop-color="#bed2e7" class="stopColorbec3e7 svgShape"></stop><stop offset="1" stop-color="#cee1f4" class="stopColorced2f4 svgShape"></stop></linearGradient><linearGradient id="al" x1="818.252" x2="837.842" y1="1089.7" y2="1089.7" xlink:href="#n"></linearGradient><linearGradient id="am" x1="931.791" x2="956.82" y1="1107.763" y2="1107.763" gradientUnits="userSpaceOnUse"><stop offset="0" stop-color="#a5bcd4" class="stopColora5acd4 svgShape"></stop><stop offset=".516" stop-color="#bcd1e6" class="stopColorbcc2e6 svgShape"></stop><stop offset="1" stop-color="#cee1f4" class="stopColorced2f4 svgShape"></stop></linearGradient><linearGradient id="an" x1="845.527" x2="870.601" y1="1107.79" y2="1107.79" xlink:href="#n"></linearGradient><linearGradient id="ao" x1="887.646" x2="914.822" y1="1115.097" y2="1115.097" xlink:href="#n"></linearGradient><linearGradient id="ap" x1="851.446" x2="950.184" y1="1042.09" y2="1042.09" xlink:href="#n"></linearGradient><linearGradient id="aq" x1="-964.127" x2="-1094.769" y1="867.45" y2="867.45" gradientTransform="matrix(1.1093 0 0 -1 2527.617 1734.9)" gradientUnits="userSpaceOnUse"><stop offset="0" stop-color="#a3b9d0" class="stopColora3a9d0 svgShape"></stop><stop offset="1" stop-color="#ffffff" class="stopColorffffff svgShape"></stop></linearGradient><linearGradient id="ar" x1="1249.189" x2="1377.191" y1="848.565" y2="848.565" gradientUnits="userSpaceOnUse"><stop offset=".396" stop-color="#cee3f8" class="stopColorced3f8 svgShape"></stop><stop offset=".552" stop-color="#bed3e9" class="stopColorbec3e9 svgShape"></stop><stop offset=".574" stop-color="#bbd0e6" class="stopColorbbc0e6 svgShape"></stop></linearGradient><linearGradient id="as" x1="294.993" x2="146.086" y1="774.534" y2="774.534" gradientUnits="userSpaceOnUse"><stop offset="0" stop-color="#ffffff" class="stopColorffffff svgShape"></stop><stop offset="1" stop-color="#c2d4e7" class="stopColorc2c8e7 svgShape"></stop></linearGradient><linearGradient id="at" x1="1086.605" x2="1185.51" y1="422.571" y2="422.571" gradientTransform="translate(-43.44)" xlink:href="#o"></linearGradient><linearGradient id="au" x1="1086.859" x2="1170.748" y1="393.576" y2="393.576" gradientTransform="translate(-64.863)" xlink:href="#o"></linearGradient><linearGradient id="p" x1="890.786" x2="877.942" y1="399.314" y2="367.993" gradientTransform="translate(134.693)" gradientUnits="userSpaceOnUse"><stop offset="0" stop-color="#193f6e" class="stopColor1f196e svgShape"></stop><stop offset=".527" stop-color="#612b8d" class="stopColor302b8d svgShape"></stop><stop offset="1" stop-color="#7a3eac" class="stopColor423eac svgShape"></stop></linearGradient><linearGradient id="av" x1="894.998" x2="882.154" y1="397.589" y2="366.268" xlink:href="#p"></linearGradient><linearGradient id="aw" x1="880.192" x2="941.644" y1="327.074" y2="327.074" gradientTransform="translate(134.693)" gradientUnits="userSpaceOnUse"><stop offset="0" stop-color="#193f6e" class="stopColor1f196e svgShape"></stop><stop offset=".806" stop-color="#132e4f" class="stopColor16134f svgShape"></stop><stop offset="1" stop-color="#112947" class="stopColor131147 svgShape"></stop></linearGradient><linearGradient id="q" x1="923.842" x2="896.238" y1="430.525" y2="412.498" gradientTransform="translate(134.693)" gradientUnits="userSpaceOnUse"><stop offset="0" stop-color="#193f6e" class="stopColor1f196e svgShape"></stop><stop offset=".867" stop-color="#612b8d" class="stopColor332b8d svgShape"></stop><stop offset="1" stop-color="#652e92" class="stopColor362e92 svgShape"></stop></linearGradient><linearGradient id="ax" x1="926.533" x2="898.927" y1="426.409" y2="408.381" xlink:href="#q"></linearGradient><linearGradient id="ay" x1="-299.031" x2="-261.93" y1="339.563" y2="348.293" gradientTransform="matrix(-1 0 0 1 756.966 0)" gradientUnits="userSpaceOnUse"><stop offset="0" stop-color="#193f6e" class="stopColor1f196e svgShape"></stop><stop offset=".628" stop-color="#662f94" class="stopColor342f94 svgShape"></stop><stop offset="1" stop-color="#7a3eac" class="stopColor423eac svgShape"></stop></linearGradient><linearGradient id="az" x1="947.71" x2="991.38" y1="329.67" y2="370.83" gradientTransform="rotate(-13.308 642.112 -207.655)" gradientUnits="userSpaceOnUse"><stop offset="0" stop-color="#cce1f6" class="stopColorccd1f6 svgShape"></stop><stop offset=".314" stop-color="#d4e5f6" class="stopColord4d8f6 svgShape"></stop><stop offset=".792" stop-color="#e9f0f7" class="stopColore9eaf7 svgShape"></stop><stop offset="1" stop-color="#f4f6f8" class="stopColorf4f4f8 svgShape"></stop></linearGradient><linearGradient id="aA" x1="-258.504" x2="-313.628" y1="257.691" y2="257.691" gradientTransform="matrix(-1 0 0 1 756.966 0)" gradientUnits="userSpaceOnUse"><stop offset="0" stop-color="#6e66e7" class="stopColor6b66e7 svgShape"></stop><stop offset=".048" stop-color="#6b63e3" class="stopColor6863e3 svgShape"></stop><stop offset=".434" stop-color="#564fc5" class="stopColor534fc5 svgShape"></stop><stop offset=".765" stop-color="#8042b3" class="stopColor4742b3 svgShape"></stop><stop offset="1" stop-color="#7a3eac" class="stopColor423eac svgShape"></stop></linearGradient><linearGradient id="aB" x1="1021.238" x2="998.672" y1="306.902" y2="299.286" gradientTransform="rotate(-21.752 939.235 239.536)" gradientUnits="userSpaceOnUse"><stop offset="0" stop-color="#dde7f2" class="stopColordde2f2 svgShape"></stop><stop offset=".563" stop-color="#edf1f6" class="stopColoredeff6 svgShape"></stop><stop offset="1" stop-color="#f4f6f8" class="stopColorf4f4f8 svgShape"></stop></linearGradient><clipPath id="I"><path fill="url(#e)" d="m590.828 487.529 176.629 101.979c7.621 4.4 20.092 4.4 27.713 0l176.949-102.16a13.365 13.365 0 0 0 4.094-3.498 13.382 13.382 0 0 0-4.094-3.498L795.49 378.372c-7.621-4.4-20.094-4.4-27.713 0l-176.949 102.16a13.38 13.38 0 0 0-4.096 3.498 13.35 13.35 0 0 0 4.096 3.499Z"></path></clipPath><clipPath id="J"><path fill="none" d="M977.814 69.988H585.127v409.36h.021a7.431 7.431 0 0 0 1.584 4.682 13.35 13.35 0 0 0 4.096 3.499l176.629 101.979c7.621 4.4 20.092 4.4 27.713 0l176.949-102.16a13.365 13.365 0 0 0 4.094-3.498 7.454 7.454 0 0 0 1.572-4.502h.03Z"></path></clipPath><radialGradient id="E" cx="978.793" cy="735.832" r="10.83" gradientUnits="userSpaceOnUse"><stop offset="0" stop-color="#857df9" class="stopColor807df9 svgShape"></stop><stop offset="1" stop-color="#193f6e" class="stopColor1f196e svgShape"></stop></radialGradient></defs><g style="isolation:isolate" fill="#f4f6f8" class="color000000 svgShape"><g fill="#f4f6f8" class="color000000 svgShape"><g data-name="Man with clock" fill="#f4f6f8" class="color000000 svgShape"><g data-name="Front hand" fill="#f4f6f8" class="color000000 svgShape"><path fill="#f1f3f6" d="M235.449 144.115c0 9.995-7.081 22.26-15.736 27.257l-33.833 19.533c-8.656 4.998-15.738.909-15.738-9.085l.001-39.067c0-9.993 7.081-22.259 15.737-27.256l33.833-19.533c8.655-4.997 15.736-.91 15.736 9.085Z" class="colorf1f1f6 svgShape"></path><path fill="#6f67e9" d="M205.943 137.984v-22.865l-6.295 3.634v26.5c0 2.006 1.41 2.818 3.148 1.816l20.589-11.887v-7.269Z" class="color6b67e9 svgShape"></path><path fill="url(#r)" d="m174.92 192.06.002-.001c-.008-.005-.018-.008-.027-.013Zm42.673-104.71a7.545 7.545 0 0 0-1.95-1.124l-.005-.003c-2.738-1.073-6.257-.648-10.088 1.564l-33.833 19.534c-8.656 4.997-15.737 17.262-15.737 27.255v39.067c0 5.085 1.838 8.63 4.779 10.239l-.001.002 13.89 8.018c-2.781-1.676-4.506-5.158-4.506-10.082l.001-39.067c0-9.993 7.081-22.259 15.737-27.256l33.833-19.533c3.83-2.212 7.35-2.637 10.087-1.564Z"></path><path fill="#f1f3f6" d="M373.912 226.576c0 16.212-11.484 36.109-25.525 44.214l-54.885 31.689c-14.04 8.105-25.528 1.472-25.528-14.739v-63.373c0-16.212 11.488-36.109 25.528-44.214l54.885-31.688c14.04-8.105 25.525-1.474 25.525 14.738Z" class="colorf1f1f6 svgShape"></path><path fill="#cee3f8" d="M353.867 161.41c1.479 3.017 1.73 7.655 1.73 12.675v48.729c0 12.465-8.831 27.763-19.627 33.996l-42.202 24.366c-4.893 2.815-8.604 4.012-11.424 3.997 2.496 4.348 7.61 5.201 17.5-.49l42.2-24.365c10.797-6.233 19.63-21.532 19.63-33.997v-48.728c0-8.895-.787-16.588-7.807-16.183Z" class="colorced3f8 svgShape"></path><path fill="#ffffff" d="M335.97 256.81c10.796-6.233 19.628-21.531 19.628-33.996v-48.729c0-5.02-.252-9.658-1.731-12.675-2.818.163-6.639 1.626-11.822 4.85l-42.201 24.365c-10.796 6.233-19.63 21.532-19.63 33.997v48.729c0 4.857.535 9.046 2.13 11.822 2.82.015 6.53-1.182 11.424-3.997Z" class="colorffffff svgShape"></path><path fill="url(#s)" d="m275.725 304.352.002-.003c-.013-.008-.029-.014-.044-.02Zm78.68-164.393a12.168 12.168 0 0 0-3.164-1.826l-.007-.005c-4.44-1.74-10.15-1.05-16.364 2.537l-54.884 31.688c-14.04 8.106-25.527 28.003-25.527 44.215l-.002 63.373c0 8.247 2.984 13.999 7.754 16.608l-.002.003 13.071 7.543c-4.509-2.72-7.306-8.367-7.306-16.355v-63.373c0-16.212 11.488-36.109 25.528-44.214l54.885-31.688c6.214-3.588 11.923-4.277 16.361-2.537Z"></path><path fill="#bbd0e6" d="m332.222 235.31-14.997-16.996.001-31.64c0-2.209-1.551-3.104-3.464-2a7.657 7.657 0 0 0-3.464 6v32.864a2.828 2.828 0 0 0 .593 1.896l15.587 17.668c1.072 1.212 3.225.451 4.811-1.7 1.585-2.153 2.004-4.88.933-6.092Z" class="colorbbc0e6 svgShape"></path><path fill="#652e92" d="M157.483 462.632c0-34.818 24.446-77.15 54.592-94.558 30.152-17.405 54.592-3.296 54.592 31.519s-24.44 77.15-54.592 94.558c-30.146 17.406-54.592 3.293-54.592-31.519Z" class="color362e92 svgShape"></path><path fill="url(#m)" d="M237.993 356.955c-9.898-5.856-23.629-5.108-38.824 3.665-30.154 17.409-54.592 59.74-54.592 94.557 0 18.162 6.686 30.62 17.33 35.978l-.033.058 11.07 6.389c-9.553-5.838-15.46-17.896-15.46-34.97 0-34.818 24.445-77.15 54.591-94.558 15.065-8.694 28.691-9.522 38.57-3.84l-12.638-7.296Zm12.715 7.316c.076.04.13.096.201.136l.01-.014Zm-75.916 134.397.031-.06c-.252-.125-.514-.223-.762-.356Z"></path><path fill="#ffffff" d="M251.958 405.108c0-12.779-4.27-21.912-11.205-26.633-7.559-3.65-17.604-2.781-28.678 3.608-23.445 13.54-42.457 46.467-42.457 73.542 0 12.78 4.272 21.914 11.207 26.635 7.555 3.648 17.604 2.78 28.674-3.61 23.45-13.538 42.459-46.465 42.459-73.542Z" class="colorffffff svgShape"></path><path fill="#857dfb" d="M237.453 443.722c-.95-.549-2.491.34-3.441 1.986-.95 1.647-.952 3.425 0 3.974s2.49-.34 3.441-1.987c.95-1.646.95-3.424 0-3.973Zm-3.443-58.01c.95.55 2.49-.34 3.442-1.986.95-1.648.95-3.426 0-3.975-.951-.548-2.49.34-3.442 1.987-.95 1.647-.95 3.425 0 3.974Zm-25.979 2.575a5.38 5.38 0 0 0 2.434-4.215 2.363 2.363 0 0 0-.168-.91q-2.34 1.462-4.612 3.164a4.09 4.09 0 0 0-.087.556c0 1.553 1.088 2.182 2.433 1.405Zm39.175 16.995a5.376 5.376 0 0 0-2.435 4.215c0 1.553 1.09 2.182 2.435 1.406a5.386 5.386 0 0 0 2.434-4.217c-.001-1.551-1.09-2.18-2.434-1.404Zm-77.339 44.914q-.237 2.691-.247 5.325a5.401 5.401 0 0 0 1.67-3.596c0-1.135-.584-1.769-1.423-1.729Zm38.165 22.939a5.376 5.376 0 0 0-2.433 4.214c0 1.553 1.088 2.181 2.433 1.405a5.382 5.382 0 0 0 2.435-4.214c-.002-1.552-1.09-2.181-2.435-1.405Zm-25.981-57.422a4.375 4.375 0 0 0 .64-3.003q-1.467 2.473-2.796 5.022a4.525 4.525 0 0 0 2.156-2.019Zm0 59.997c-.95-.55-2.49.34-3.44 1.986a5.098 5.098 0 0 0-.69 2.122 21.017 21.017 0 0 0 2.122 1.817 4.647 4.647 0 0 0 2.009-1.951c.95-1.648.95-3.426 0-3.974Z" class="color807dfb svgShape"></path><path fill="#6e66e7" d="M240.753 378.475c6.935 4.721 11.205 13.854 11.205 26.633 0 27.077-19.01 60.004-42.459 73.543-11.07 6.388-21.12 7.257-28.674 3.609 7.76 5.285 18.87 5.03 31.25-2.12 23.455-13.537 42.461-46.465 42.461-73.541 0-14.295-5.332-24.045-13.783-28.124Z" class="color6b66e7 svgShape"></path><path fill="url(#a)" d="m232.089 439.121-21.104-12.188V397.25c0-1.884-1.326-2.645-2.955-1.704a6.516 6.516 0 0 0-2.947 5.11v31.094a2.887 2.887 0 0 0 .224 1.17 1.592 1.592 0 0 0 .641.74l21.969 12.689c1.152.664 3.023-.413 4.172-2.41 1.152-1.997 1.152-4.154 0-4.819Z"></path><path fill="#f6f8fb" d="M454.695 247.816c0-30.15 21.168-66.813 47.28-81.888 26.11-15.075 47.277-2.856 47.277 27.295s-21.166 66.813-47.278 81.889c-26.11 15.076-47.279 2.855-47.279-27.296Z" class="colorf6f6fb svgShape"></path><path fill="url(#t)" d="M525.48 156.925c-8.607-5.41-20.716-4.89-34.142 2.862-26.114 15.076-47.281 51.738-47.281 81.888 0 15.117 5.324 25.725 13.923 30.646l-2.89-1.666 13.41 7.742c-8.531-4.951-13.805-15.532-13.805-30.581 0-30.15 21.168-66.813 47.28-81.888 12.685-7.324 24.195-8.19 32.685-3.702Zm-56.865 121.538c-.008-.007-.02-.01-.027-.016Z"></path><path fill="url(#u)" d="M513.19 205.666c-.45-.515-1.36-.2-2.028.706l-6.264 8.455v-27.231c0-1.865-1.308-2.621-2.924-1.69a6.462 6.462 0 0 0-2.925 5.066v31.754l-27.905 37.679c-.671.905-.851 2.058-.402 2.574.447.515 1.357.199 2.027-.706l26.28-35.485v3.018c0 1.864 1.308 2.62 2.925 1.687a6.461 6.461 0 0 0 2.924-5.064v-7.538l7.889-10.652c.672-.905.852-2.057.402-2.573Z"></path><path fill="#cee3f8" d="m504.166 167.053-4.385 2.533-.002 8.161 4.387-2.533Zm-47.399 82.1 7.067-4.08v-5.066l-7.067 4.08Zm43.014 24.832 4.387-2.533v-8.16l-4.387 2.532Zm40.332-78.019v5.065l7.067-4.08v-5.065Z" class="colorced3f8 svgShape"></path><path d="M1450.441 504.904c-9.254 0-20.523 2.166-25.152 4.84l-198.912 114.842-53.742-31.03c-23.98-13.843-63.22-13.843-87.198 0L820.502 746.519c-23.979 13.842-28.877 213.617-28.877 213.617h334.865c16.647.393 33.518-3.018 46.15-10.31l264.93-152.962c23.985-13.843 23.985-36.5 0-50.343l-194.424-112.252 215.682-124.525c4.63-2.673.871-4.84-8.387-4.84Z" style="mix-blend-mode:multiply" fill="url(#v)"></path><path fill="#f4f6f8" d="m1431.154 489.763-188.846-109.03-5.867.616-372.683 215.165 188.85 109.035 372.681-215.169c2.285-1.318 4.353-1.455 5.865-.617Z" class="colorf4f4f8 svgShape"></path><path d="m1069.377 696.01 157-90.647-36.973-21.347c-23.98-13.844-63.219-13.842-87.197 0L988.805 649.49Z" style="mix-blend-mode:multiply" fill="url(#d)"></path><path fill="#b9cee4" d="M1425.289 490.38c4.63-2.674 8.383-.504 8.383 4.842 0 5.343-3.752 11.849-8.383 14.521l-372.678 215.165v-19.363Z" class="colorb9bee4 svgShape"></path><path fill="#a1b7ce" d="M1429.736 497.494c0-2.837-1.992-3.984-4.447-2.567a9.823 9.823 0 0 0-4.447 7.701c0 2.838 1.99 3.984 4.447 2.568a9.832 9.832 0 0 0 4.447-7.702ZM1407.553 510.301c0-2.836-1.99-3.983-4.448-2.566a9.827 9.827 0 0 0-4.447 7.702c0 2.835 1.992 3.983 4.447 2.564a9.821 9.821 0 0 0 4.448-7.7ZM1385.369 523.11c.002-2.837-1.988-3.986-4.445-2.567a9.823 9.823 0 0 0-4.448 7.7c0 2.836 1.993 3.985 4.448 2.567a9.82 9.82 0 0 0 4.445-7.7ZM1363.183 535.917c0-2.838-1.986-3.984-4.443-2.566a9.823 9.823 0 0 0-4.447 7.699c0 2.836 1.99 3.984 4.445 2.566a9.814 9.814 0 0 0 4.445-7.699ZM1341.002 548.724c0-2.834-1.986-3.985-4.445-2.567a9.823 9.823 0 0 0-4.448 7.7c0 2.838 1.992 3.984 4.446 2.568a9.82 9.82 0 0 0 4.447-7.701ZM1318.82 561.529c0-2.833-1.99-3.981-4.447-2.565a9.82 9.82 0 0 0-4.445 7.702c0 2.836 1.99 3.98 4.445 2.567a9.828 9.828 0 0 0 4.447-7.704ZM1296.637 574.338c0-2.836-1.989-3.984-4.448-2.566a9.839 9.839 0 0 0-4.447 7.703c0 2.836 1.994 3.98 4.447 2.566a9.823 9.823 0 0 0 4.448-7.703ZM1274.455 587.147c0-2.836-1.99-3.985-4.45-2.563a9.813 9.813 0 0 0-4.447 7.696c0 2.835 1.993 3.984 4.448 2.566a9.812 9.812 0 0 0 4.449-7.7ZM1252.27 599.955c0-2.84-1.99-3.988-4.448-2.566a9.817 9.817 0 0 0-4.445 7.695c0 2.84 1.988 3.988 4.445 2.57a9.827 9.827 0 0 0 4.447-7.699ZM1230.086 612.76c0-2.836-1.988-3.98-4.445-2.566a9.827 9.827 0 0 0-4.448 7.703c0 2.836 1.99 3.984 4.446 2.566a9.828 9.828 0 0 0 4.447-7.703ZM1207.904 625.569c0-2.836-1.99-3.985-4.447-2.563a9.813 9.813 0 0 0-4.445 7.7c0 2.835 1.988 3.984 4.445 2.562a9.82 9.82 0 0 0 4.447-7.7ZM1185.72 638.373c0-2.836-1.992-3.98-4.447-2.562a9.839 9.839 0 0 0-4.449 7.699c0 2.836 1.994 3.984 4.45 2.566a9.828 9.828 0 0 0 4.447-7.703ZM1163.535 651.186c0-2.84-1.988-3.985-4.445-2.57a9.83 9.83 0 0 0-4.45 7.703c0 2.836 1.995 3.984 4.45 2.566a9.82 9.82 0 0 0 4.445-7.7ZM1141.353 663.994c0-2.84-1.99-3.984-4.445-2.57a9.825 9.825 0 0 0-4.45 7.703c0 2.836 1.993 3.985 4.45 2.563a9.817 9.817 0 0 0 4.445-7.696ZM1119.168 676.799c0-2.836-1.986-3.984-4.444-2.566a9.832 9.832 0 0 0-4.447 7.699c0 2.836 1.99 3.984 4.447 2.566a9.817 9.817 0 0 0 4.444-7.699ZM1096.986 689.608c0-2.836-1.986-3.989-4.443-2.567a9.817 9.817 0 0 0-4.45 7.7c0 2.835 1.993 3.984 4.446 2.57a9.83 9.83 0 0 0 4.447-7.703ZM1074.805 702.416c0-2.84-1.99-3.984-4.45-2.57a9.828 9.828 0 0 0-4.443 7.703c0 2.836 1.988 3.984 4.443 2.566a9.824 9.824 0 0 0 4.45-7.699Z" class="colora1a7ce svgShape"></path><path d="m1220.385 390.618-5.03 2.903 188.85 109.032 5.027-2.903Zm-57.578 33.239 188.85 109.033 5.03-2.904-188.845-109.032Zm-52.543 30.338 188.847 109.03 5.033-2.905-188.85-109.03Zm-52.545 30.336 188.851 109.03 5.03-2.903-188.85-109.032Zm-52.541 30.337 188.847 109.033 5.028-2.907-188.848-109.03Zm-52.547 30.338 188.85 109.03 5.03-2.902L957.665 542.3Zm-52.545 30.335 188.85 109.035 5.033-2.906-188.852-109.035Z" style="mix-blend-mode:multiply" fill="url(#b)"></path><path fill="#f4f6f8" d="M1090.648 549.368c23.985 13.845 23.985 36.501 0 50.345l-264.93 152.961c-23.972 13.84-63.22 13.84-87.2 0L473.58 599.713c-23.979-13.844-23.979-36.504 0-50.347l264.936-152.96c23.978-13.843 63.216-13.844 87.197 0Z" class="colorf4f4f8 svgShape"></path><path fill="url(#w)" d="m908.476 704.893 182.172-105.18c23.985-13.844 23.985-36.5 0-50.345l-94.552-54.59-9.07 7.1-201.68 203.015Z"></path><path fill="url(#x)" d="m1090.648 599.713-264.93 152.961c-23.972 13.84-63.22 13.84-87.2 0L473.58 599.713c-11.99-6.922-17.984-16.047-17.984-25.176v197.508c0 9.129 5.994 18.254 17.984 25.176l264.937 152.96c23.981 13.84 63.229 13.84 87.202 0l264.93-152.96c11.908-6.871 17.896-15.918 17.978-24.977h.002V574.733h-.002c-.084 9.062-6.07 18.109-17.979 24.98Z"></path><path fill="url(#y)" d="m683.701 779.76-155.312-89.668c-9.262-5.348-16.768-1.012-16.768 9.68v119.41l188.85 109.035V808.803c0-10.688-7.506-23.7-16.77-29.043Z"></path><path fill="#f4f6f8" d="M700.47 808.803c0-10.688-7.505-23.7-16.769-29.043l-68.666-39.645-476.087 274.872c-4.63 2.671-8.385 9.175-8.385 14.523.001 3.027 1.212 5.039 3.104 5.723l187.624 108.324 6.506-19.535L700.47 908.85Z" class="colorf4f4f8 svgShape"></path><path fill="#b9cee4" d="M327.797 1124.022c-4.63 2.664-8.386 9.172-8.386 14.515 0 5.348 3.758 7.516 8.386 4.844L700.47 928.217V908.85Z" class="colorb9bee4 svgShape"></path><path fill="#a1b7ce" d="M323.349 1136.268a9.831 9.831 0 0 1 4.448-7.703c2.453-1.414 4.445-.27 4.445 2.57a9.816 9.816 0 0 1-4.445 7.695c-2.456 1.422-4.448.274-4.448-2.562ZM345.53 1123.455a9.83 9.83 0 0 1 4.45-7.699c2.453-1.414 4.444-.27 4.444 2.566a9.829 9.829 0 0 1-4.444 7.704c-2.457 1.418-4.45.27-4.45-2.57ZM367.713 1110.65a9.825 9.825 0 0 1 4.451-7.699c2.451-1.421 4.445-.273 4.445 2.563a9.844 9.844 0 0 1-4.445 7.707c-2.457 1.414-4.451.266-4.451-2.57ZM389.898 1097.846a9.806 9.806 0 0 1 4.45-7.7c2.453-1.421 4.445-.273 4.445 2.563a9.83 9.83 0 0 1-4.445 7.7c-2.46 1.417-4.448.273-4.45-2.563ZM412.08 1085.037a9.832 9.832 0 0 1 4.447-7.703c2.455-1.414 4.45-.27 4.45 2.57a9.834 9.834 0 0 1-4.45 7.7c-2.453 1.414-4.447.27-4.447-2.567ZM434.264 1072.225a9.83 9.83 0 0 1 4.447-7.695c2.457-1.422 4.447-.274 4.447 2.562a9.823 9.823 0 0 1-4.447 7.703c-2.457 1.414-4.444.266-4.447-2.57ZM456.447 1059.42a9.818 9.818 0 0 1 4.447-7.695c2.457-1.422 4.45-.274 4.45 2.562a9.823 9.823 0 0 1-4.45 7.7c-2.453 1.418-4.445.269-4.447-2.567ZM478.633 1046.615a9.846 9.846 0 0 1 4.447-7.707c2.455-1.41 4.445-.261 4.445 2.575a9.818 9.818 0 0 1-4.445 7.695c-2.455 1.422-4.447.27-4.447-2.563ZM500.816 1033.803a9.83 9.83 0 0 1 4.446-7.7c2.455-1.417 4.447-.269 4.447 2.567a9.825 9.825 0 0 1-4.445 7.703c-2.457 1.414-4.448.27-4.448-2.57ZM522.998 1020.998a9.827 9.827 0 0 1 4.447-7.699c2.457-1.418 4.447-.273 4.447 2.566a9.808 9.808 0 0 1-4.447 7.696c-2.453 1.422-4.447.273-4.447-2.563ZM545.182 1008.194a9.823 9.823 0 0 1 4.447-7.704c2.453-1.418 4.443-.27 4.443 2.567a9.811 9.811 0 0 1-4.443 7.699c-2.46 1.422-4.447.27-4.447-2.562ZM567.365 995.385a9.829 9.829 0 0 1 4.447-7.703c2.454-1.418 4.448-.27 4.448 2.57a9.824 9.824 0 0 1-4.448 7.695c-2.457 1.418-4.447.274-4.447-2.562ZM589.547 982.576a9.814 9.814 0 0 1 4.447-7.699c2.455-1.422 4.447-.273 4.447 2.563a9.84 9.84 0 0 1-4.447 7.703c-2.455 1.414-4.447.27-4.447-2.567ZM611.732 969.768a9.816 9.816 0 0 1 4.448-7.7c2.45-1.417 4.447-.269 4.445 2.567a9.834 9.834 0 0 1-4.445 7.7c-2.46 1.417-4.448.269-4.448-2.567ZM633.912 956.963a9.827 9.827 0 0 1 4.451-7.703c2.453-1.414 4.447-.273 4.447 2.57a9.825 9.825 0 0 1-4.447 7.696c-2.459 1.421-4.451.27-4.451-2.563ZM656.098 944.155a9.818 9.818 0 0 1 4.449-7.7c2.455-1.422 4.445-.273 4.445 2.563a9.832 9.832 0 0 1-4.445 7.703c-2.46 1.418-4.45.27-4.45-2.566ZM678.281 931.35a9.822 9.822 0 0 1 4.447-7.703c2.457-1.422 4.448-.27 4.448 2.562a9.82 9.82 0 0 1-4.448 7.7c-2.457 1.421-4.447.277-4.447-2.56Z" class="colora1a7ce svgShape"></path><path d="M232.683 960.87 421.53 1069.9l5.031-2.906-188.847-109.031ZM180.138 991.2l188.848 109.036 5.028-2.907L185.169 988.3Zm-48.18 32.172 188.848 109.028a20.323 20.323 0 0 1 2.945-4.801l-188.846-109.031a20.31 20.31 0 0 0-2.947 4.804Zm415.99-244.523 152.523 88.058V861.1l-147.489-85.153Zm150.855 20.613-93.278-53.855-5.031 2.902 99.816 57.629a31.982 31.982 0 0 0-1.507-6.676Zm-308.485 70.395 188.846 109.035 5.03-2.91L395.345 866.95Zm52.543-30.336 188.846 109.031 5.033-2.902-188.848-109.036Zm52.543-30.336 188.848 109.031 5.031-2.906-188.848-109.028ZM285.227 930.533l188.849 109.028 5.03-2.906-188.848-109.028Zm52.544-30.34 188.848 109.032 5.027-2.903-188.843-109.03Z" style="mix-blend-mode:multiply" fill="url(#z)"></path><path fill="#917ea1" d="M1085.98 623.01v26.789l3.073 1.773v-30.335l-3.073 1.773z" class="color7e82a1 svgShape"></path><path fill="#a1b7ce" d="m1085.98 653.346 3.073-1.774-3.073-1.773v3.547z" class="colora1a7ce svgShape"></path><path fill="#917ea1" d="M1077.316 628.01v26.789l3.073 1.773v-30.335l-3.073 1.773z" class="color7e82a1 svgShape"></path><path fill="#a1b7ce" d="m1077.316 658.346 3.073-1.774-3.073-1.773v3.547z" class="colora1a7ce svgShape"></path><path fill="#917ea1" d="M1068.652 633.01v26.789l3.072 1.773v-30.335l-3.072 1.773z" class="color7e82a1 svgShape"></path><path fill="#a1b7ce" d="m1068.652 663.346 3.072-1.774-3.072-1.773v3.547z" class="colora1a7ce svgShape"></path><path fill="#917ea1" d="M1059.988 638.01v26.789l3.072 1.773v-30.335l-3.072 1.773z" class="color7e82a1 svgShape"></path><path fill="#a1b7ce" d="m1059.988 668.346 3.072-1.774-3.072-1.773v3.547z" class="colora1a7ce svgShape"></path><path fill="#917ea1" d="M1051.324 643.01v26.789l3.072 1.773v-30.335l-3.072 1.773z" class="color7e82a1 svgShape"></path><path fill="#a1b7ce" d="m1051.324 673.346 3.072-1.774-3.072-1.773v3.547z" class="colora1a7ce svgShape"></path><path d="m321.351 1143.541-.06.016.28.164c-.078-.055-.147-.12-.22-.18Z" style="mix-blend-mode:multiply" fill="url(#c)"></path><path d="m700.47 908.85.003 19.367-368.048 212.492-4.628 2.672c-2.161 1.248-4.114 1.402-5.6.709l4.33 2.547.011-.006c1.38.975 4.727 1.592 9.648 1.592 9.255 0 20.527-2.168 25.142-4.842l355.928-205.475Z" style="mix-blend-mode:multiply" fill="url(#A)"></path><path d="m661.652 931.262 38.819-22.412V808.803c0-10.688-7.506-23.7-16.77-29.043l-68.666-39.645-142.228 82.118Z" style="mix-blend-mode:multiply" fill="url(#B)"></path><path fill="#b9cee4" d="M1065.273 881.967 972.5 935.53V819.697l92.773-53.558v115.828z" class="colorb9bee4 svgShape"></path><path fill="#cce1f6" d="m911.803 752.822 60.697 66.875V935.53l-60.697-35.047V752.822z" class="colorccd1f6 svgShape"></path><path fill="#f4f6f8" d="M911.803 752.822q46.382-26.771 92.77-53.558 30.35 33.44 60.7 66.875-46.386 26.783-92.773 53.558-30.346-33.433-60.697-66.875Z" class="colorf4f4f8 svgShape"></path><path fill="#193f6e" d="M936.254 752.572c4.928-2.828 7.39-4.242 12.318-7.074q21.92 24.147 43.834 48.297l-12.338 7.051q-21.91-24.135-43.814-48.274Z" class="color1f196e svgShape"></path><path fill="url(#C)" d="m977.465 739.776 2.607 2.867-23.611 32.199-2.606-2.875 23.61-32.191z"></path><path fill="url(#D)" d="m979.392 743.576 3.631-2.097-25.396 34.644-1.166-1.281 22.931-31.266z"></path><path fill="url(#E)" d="M974.31 738.842a6.54 6.54 0 1 1 6.54 6.539 6.537 6.537 0 0 1-6.54-6.539Z"></path><path fill="#a1b7ce" d="m664.172 697.264 5.254 3.033 33.408-19.287v-6.068l-38.662 22.322z" class="colora1a7ce svgShape"></path><path fill="#cce1f6" d="M702.834 674.942v6.068l5.254-3.035-5.254-3.033z" class="colorccd1f6 svgShape"></path><path fill="#a1b7ce" d="m651.539 689.969 5.256 3.035 33.406-19.289v-6.066l-38.662 22.32z" class="colora1a7ce svgShape"></path><path fill="#cce1f6" d="M690.201 667.649v6.066l5.254-3.033-5.254-3.033z" class="colorccd1f6 svgShape"></path><path fill="#a1b7ce" d="m638.906 682.676 5.256 3.033 33.406-19.287v-6.066l-38.662 22.32z" class="colora1a7ce svgShape"></path><path fill="#cce1f6" d="M677.568 660.356v6.066l5.254-3.033-5.254-3.033z" class="colorccd1f6 svgShape"></path><path fill="#a1b7ce" d="m626.273 675.383 5.256 3.033 33.406-19.287v-6.066l-38.662 22.32z" class="colora1a7ce svgShape"></path><path fill="#cce1f6" d="M664.935 653.063v6.066l5.254-3.033-5.254-3.033z" class="colorccd1f6 svgShape"></path><path fill="#a1b7ce" d="m613.641 668.09 5.255 3.033 33.407-19.287v-6.068l-38.662 22.322z" class="colora1a7ce svgShape"></path><path fill="#cce1f6" d="M652.303 645.768v6.068l5.254-3.035-5.254-3.033z" class="colorccd1f6 svgShape"></path><path fill="#a1b7ce" d="m601.01 660.795 5.254 3.035 33.406-19.289v-6.066l-38.66 22.32z" class="colora1a7ce svgShape"></path><path fill="#cce1f6" d="M639.67 638.475v6.066l5.254-3.033-5.254-3.033z" class="colorccd1f6 svgShape"></path><path fill="#a1b7ce" d="m588.377 653.502 5.254 3.033 33.406-19.287v-6.066l-38.66 22.32z" class="colora1a7ce svgShape"></path><path fill="#cce1f6" d="M627.037 631.182v6.066l5.254-3.033-5.254-3.033z" class="colorccd1f6 svgShape"></path><path fill="#a1b7ce" d="m575.744 646.209 5.254 3.033 33.406-19.287v-6.066l-38.66 22.32z" class="colora1a7ce svgShape"></path><path fill="#cce1f6" d="M614.404 623.889v6.066l5.254-3.033-5.254-3.033z" class="colorccd1f6 svgShape"></path><path fill="#a1b7ce" d="m563.111 638.916 5.254 3.033 33.406-19.287v-6.068l-38.66 22.322z" class="colora1a7ce svgShape"></path><path fill="#cce1f6" d="M601.771 616.594v6.068l5.254-3.035-5.254-3.033z" class="colorccd1f6 svgShape"></path><path fill="url(#F)" d="M1009.22 505.7 798.737 627.222c-9.527 5.5-25.115 5.5-34.64 0l-210.268-121.4c-4.764-2.75-7.145-6.375-7.145-10v73.45l.024.003c-.129 3.72 2.232 7.464 7.121 10.287l210.268 121.4c9.525 5.5 25.113 5.5 34.64 0l210.485-121.523c4.85-2.801 7.216-6.506 7.128-10.198l.016.002V495.7c0 3.625-2.38 7.25-7.144 10Z"></path><path fill="#f4f6f8" d="M798.734 622.418c-9.525 5.5-25.113 5.5-34.64 0L533.828 489.471c-9.525-5.5-9.525-14.5 0-20l230.484-133.07c9.528-5.5 25.116-5.5 34.643 0l230.266 132.947c9.525 5.5 9.525 14.5 0 20Z" class="colorf4f4f8 svgShape"></path><path fill="url(#G)" d="m1029.22 489.348-230.486 133.07c-9.525 5.5-25.113 5.5-34.64 0L533.828 489.471c-4.738-2.735-7.115-6.337-7.14-9.942v16.236c-.026 3.644 2.351 7.293 7.14 10.057L764.094 638.77c9.527 5.5 25.115 5.5 34.64 0l230.487-133.07c4.752-2.744 7.132-6.359 7.142-9.976h.002v-16.376c0 3.625-2.38 7.25-7.144 10Z"></path><path d="M950.156 582.184a8.174 8.174 0 0 1 3.7-6.406c2.042-1.178 3.699-.223 3.699 2.134a8.175 8.175 0 0 1-3.7 6.407c-2.043 1.18-3.699.224-3.699-2.135ZM965.545 573.299a8.177 8.177 0 0 1 3.699-6.406c2.043-1.178 3.697-.223 3.697 2.137a8.169 8.169 0 0 1-3.697 6.404c-2.043 1.18-3.7.224-3.7-2.135ZM980.933 564.414a8.179 8.179 0 0 1 3.698-6.405c2.043-1.179 3.699-.223 3.699 2.136a8.177 8.177 0 0 1-3.7 6.406c-2.04 1.178-3.697.223-3.697-2.137Z" style="mix-blend-mode:multiply" fill="#a1b7ce" class="colora1a7ce svgShape"></path><path fill="url(#H)" d="m590.828 480.532 176.95-102.16c7.618-4.4 20.091-4.4 27.712 0l176.629 101.98a13.382 13.382 0 0 1 4.094 3.498c3.09-4.136 1.734-9.137-4.094-12.502L795.49 369.368c-7.621-4.4-20.094-4.4-27.713 0l-176.949 102.16c-5.83 3.367-7.184 8.367-4.096 12.502a13.38 13.38 0 0 1 4.096-3.498Z"></path><path fill="url(#e)" d="m590.828 487.529 176.629 101.979c7.621 4.4 20.092 4.4 27.713 0l176.949-102.16a13.365 13.365 0 0 0 4.094-3.498 13.382 13.382 0 0 0-4.094-3.498L795.49 378.372c-7.621-4.4-20.094-4.4-27.713 0l-176.949 102.16a13.38 13.38 0 0 0-4.096 3.498 13.35 13.35 0 0 0 4.096 3.499Z"></path><path d="M630.717 403.562a11.58 11.58 0 1 1 11.58 11.58 11.58 11.58 0 0 1-11.58-11.58ZM855.449 472.18a15.732 15.732 0 1 1 15.733 15.73 15.735 15.735 0 0 1-15.733-15.73ZM752.389 407.886a15.731 15.731 0 1 1 15.73 15.73 15.729 15.729 0 0 1-15.73-15.73Z" style="mix-blend-mode:screen" fill="#a50b89" class="colorc55a2b svgShape"></path><path d="M857.207 297.32a9.241 9.241 0 1 1 9.24 9.243 9.242 9.242 0 0 1-9.24-9.243Z" style="mix-blend-mode:multiply" fill="#51a7fd" class="colorfde751 svgShape"></path><path d="M915.232 428.206a9.242 9.242 0 1 1 9.24 9.243 9.243 9.243 0 0 1-9.24-9.243Z" style="mix-blend-mode:screen" fill="#a50b89" class="colorc55a2b svgShape"></path><path d="M714.176 310.498a9.243 9.243 0 1 1 9.244 9.246 9.244 9.244 0 0 1-9.244-9.246ZM748.787 256.334a14.908 14.908 0 1 1 14.908 14.913 14.907 14.907 0 0 1-14.908-14.913Z" style="mix-blend-mode:multiply" fill="#51a7fd" class="colorfde751 svgShape"></path><path d="M692.578 401.394a9.242 9.242 0 1 1 9.242 9.243 9.242 9.242 0 0 1-9.242-9.243ZM763.195 491.83a9.241 9.241 0 1 1 9.238 9.242 9.241 9.241 0 0 1-9.238-9.242ZM691.068 519.935a9.242 9.242 0 1 1 9.24 9.243 9.242 9.242 0 0 1-9.24-9.243Z" style="mix-blend-mode:screen" fill="#a50b89" class="colorc55a2b svgShape"></path><path d="M838.777 208.805a6.207 6.207 0 1 1 6.207 6.207 6.206 6.206 0 0 1-6.207-6.207ZM918.31 327.137a4.59 4.59 0 1 1 4.59 4.59 4.591 4.591 0 0 1-4.59-4.59ZM906.81 238.413A4.59 4.59 0 1 1 911.4 243a4.59 4.59 0 0 1-4.59-4.587Z" style="mix-blend-mode:multiply" fill="#51a7fd" class="colorfde751 svgShape"></path><path d="M882.322 478.557a4.59 4.59 0 1 1 4.588 4.592 4.588 4.588 0 0 1-4.588-4.592ZM832.162 384.512a4.59 4.59 0 1 1 4.592 4.59 4.591 4.591 0 0 1-4.592-4.59Z" style="mix-blend-mode:screen" fill="#a50b89" class="colorc55a2b svgShape"></path><path d="M619.234 289.402a7.803 7.803 0 1 1 7.803 7.801 7.801 7.801 0 0 1-7.803-7.801ZM882.32 362.856a4.592 4.592 0 1 1 4.594 4.588 4.594 4.594 0 0 1-4.594-4.588ZM682.584 340.609a4.592 4.592 0 1 1 4.592 4.587 4.593 4.593 0 0 1-4.592-4.587ZM652.693 178.205a4.59 4.59 0 1 1 4.592 4.587 4.593 4.593 0 0 1-4.592-4.587Z" style="mix-blend-mode:multiply" fill="#51a7fd" class="colorfde751 svgShape"></path><path d="M818.455 451.176a4.59 4.59 0 1 1 4.59 4.59 4.59 4.59 0 0 1-4.59-4.59ZM730.424 436.38a4.59 4.59 0 1 1 4.592 4.591 4.59 4.59 0 0 1-4.592-4.592Z" style="mix-blend-mode:screen" fill="#a50b89" class="colorc55a2b svgShape"></path><path d="M815.902 63.485a4.59 4.59 0 1 1 4.59 4.59 4.59 4.59 0 0 1-4.59-4.59ZM776.853 163.776a7.145 7.145 0 1 1 7.147 7.142 7.142 7.142 0 0 1-7.147-7.142Z" style="mix-blend-mode:multiply" fill="#51a7fd" class="colorfde751 svgShape"></path><path d="M664.935 457.599a4.59 4.59 0 1 1 4.592 4.59 4.59 4.59 0 0 1-4.592-4.59ZM806.176 521.93a4.592 4.592 0 1 1 4.593 4.587 4.592 4.592 0 0 1-4.593-4.587ZM703.496 510.695a4.592 4.592 0 1 1 4.594 4.586 4.592 4.592 0 0 1-4.594-4.586ZM791.627 419.824a3.396 3.396 0 1 1 3.398 3.393 3.396 3.396 0 0 1-3.398-3.393ZM720.023 460.866a3.396 3.396 0 1 1 3.399 3.393 3.396 3.396 0 0 1-3.399-3.393ZM760.299 548.198a3.396 3.396 0 1 1 3.398 3.393 3.396 3.396 0 0 1-3.398-3.393ZM628.896 478.56a3.396 3.396 0 1 1 3.397 3.393 3.395 3.395 0 0 1-3.397-3.392Z" style="mix-blend-mode:screen" fill="#a50b89" class="colorc55a2b svgShape"></path><path d="M866.592 131.232a4.589 4.589 0 1 1 4.591 4.59 4.591 4.591 0 0 1-4.591-4.59ZM730.5 126.642a4.59 4.59 0 1 1 4.594 4.589 4.592 4.592 0 0 1-4.594-4.59Z" style="mix-blend-mode:multiply" fill="#51a7fd" class="colorfde751 svgShape"></path><path style="mix-blend-mode:multiply" fill="url(#K)" d="M537.045 593.901h33.666v16.488h-33.666z"></path><path fill="url(#L)" d="M523.418 588.52v14c0 2.013 1.33 4.027 3.99 5.564 5.322 3.072 13.951 3.072 19.274 0 2.66-1.537 3.99-3.55 3.99-5.564v-14Z"></path><path fill="#51a7fd" d="M527.408 582.957c5.322-3.072 13.951-3.072 19.274 0 2.66 1.535 3.99 3.549 3.99 5.563 0 2.013-1.33 4.027-3.99 5.564-5.323 3.072-13.952 3.072-19.274 0-2.66-1.537-3.99-3.55-3.99-5.564 0-2.014 1.33-4.028 3.99-5.563Z" class="colorfde751 svgShape"></path><path style="mix-blend-mode:multiply" fill="url(#M)" d="M733.939 707.576h33.666v16.488h-33.666z"></path><path fill="url(#N)" d="M720.31 702.197v14c0 2.014 1.33 4.028 3.993 5.563 5.322 3.072 13.949 3.072 19.271 0 2.662-1.535 3.992-3.549 3.992-5.563v-14Z"></path><path fill="#51a7fd" d="M724.303 696.633c5.322-3.072 13.949-3.072 19.271 0 2.662 1.537 3.992 3.55 3.992 5.564 0 2.014-1.33 4.028-3.992 5.563-5.322 3.074-13.95 3.072-19.271 0-2.662-1.535-3.993-3.549-3.993-5.563 0-2.013 1.33-4.027 3.993-5.564Z" class="colorfde751 svgShape"></path><path style="mix-blend-mode:multiply" fill="url(#f)" d="M1385.357 473.864h-49.775l31.592 18.239-31.592 18.242h49.775l31.59-18.242-31.59-18.239z"></path><path fill="#7c3eaf" d="m1335.582 510.345 31.592-18.242v-36.477l-31.592 18.238v36.481z" class="color423eaf svgShape"></path><path fill="#6f67e9" d="m1335.582 510.345-31.592-18.242v-36.477l31.592 18.238v36.481z" class="color6b67e9 svgShape"></path><path fill="#3e9eff" d="m1335.582 473.864-31.592-18.238 31.592-18.238 31.592 18.238-31.592 18.238z" class="colorffd03e svgShape"></path><path style="mix-blend-mode:multiply" fill="url(#O)" d="M1125.644 496.548h-29.029l18.426 10.638-18.426 10.639h29.029l18.424-10.639-18.424-10.638z"></path><path fill="#7c3eaf" d="m1096.615 517.825 18.426-10.639v-21.275l-18.426 10.637v21.277z" class="color423eaf svgShape"></path><path fill="#5046e4" d="m1096.615 517.825-18.426-10.639v-21.275l18.426 10.637v21.277z" class="color5652cc svgShape"></path><path fill="#857dfb" d="m1096.615 496.548-18.426-10.637 18.426-10.635 18.426 10.635-18.426 10.637z" class="color807dfb svgShape"></path><path style="mix-blend-mode:multiply" fill="url(#P)" d="M1178.359 607.119h-29.029l18.426 10.637-18.426 10.637h29.029l18.426-10.637-18.426-10.637z"></path><path fill="#7c3eaf" d="m1149.33 628.393 18.426-10.637v-21.273l-18.426 10.636v21.274z" class="color423eaf svgShape"></path><path fill="#5046e4" d="m1149.33 628.393-18.426-10.637v-21.273l18.426 10.636v21.274z" class="color5652cc svgShape"></path><path fill="#857dfb" d="m1149.33 607.119-18.426-10.636 18.426-10.641 18.426 10.641-18.426 10.636z" class="color807dfb svgShape"></path><path d="M593.695 880.633c-13.758-7.941-32.047-11.602-50.008-11.062h-28.156v4.613a74.832 74.832 0 0 0-14.902 6.449c-25.602 14.89-25.455 39.023.316 53.91a75.166 75.166 0 0 0 14.586 6.324v4.817h33.774c16.238-.27 32.34-3.953 44.699-11.133 25.613-14.895 25.482-39.027-.309-53.918Z" style="mix-blend-mode:multiply" fill="url(#h)"></path><path fill="#4ca5ff" d="M451.369 890.11c-.002-9.524 6.291-19.043 18.877-26.317 12.586-7.262 29.082-10.898 45.578-10.898 16.49 0 32.984 3.636 45.57 10.898 12.584 7.274 18.877 16.79 18.88 26.313.003 9.523-6.294 19.05-18.88 26.316-12.582 7.266-29.074 10.899-45.566 10.899-16.496 0-32.992-3.637-45.578-10.899-12.586-7.266-18.877-16.793-18.881-26.312Z" class="colorffe54c svgShape"></path><path fill="url(#g)" d="M561.394 916.422c-12.582 7.266-29.074 10.899-45.566 10.899-16.496 0-32.992-3.637-45.578-10.899-12.586-7.266-18.877-16.793-18.881-26.312v18.37c.004 9.516 6.295 19.044 18.88 26.305 12.587 7.274 29.083 10.903 45.579 10.903 16.492 0 32.984-3.63 45.566-10.895 12.586-7.27 18.883-16.797 18.88-26.316v-18.371c.003 9.523-6.294 19.05-18.88 26.316Z"></path><path fill="#3e9eff" d="M478.812 911.473c10.221 5.906 23.618 8.855 37.016 8.855 13.39 0 26.787-2.949 37.006-8.851 9.428-5.446 14.502-12.453 15.224-19.574-.722-7.13-5.796-14.133-15.224-19.579-10.223-5.906-23.617-8.855-37.014-8.851-13.392-.004-26.789 2.945-37.013 8.851-9.428 5.446-14.497 12.446-15.227 19.575.73 7.125 5.799 14.132 15.232 19.574Z" class="colorffd03e svgShape"></path><path fill="#e100b8" d="M478.807 872.324c10.224-5.906 23.62-8.855 37.013-8.851 13.397-.004 26.791 2.945 37.014 8.851 9.428 5.446 14.502 12.45 15.224 19.579a17.235 17.235 0 0 0 .106-1.797c0-7.735-5.11-15.465-15.33-21.368-10.223-5.898-23.617-8.851-37.014-8.851-13.392 0-26.789 2.953-37.013 8.851-10.221 5.903-15.33 13.637-15.329 21.372a17.639 17.639 0 0 0 .102 1.789c.73-7.13 5.799-14.13 15.227-19.575Z" class="colore19100 svgShape"></path><path fill="#e100b8" d="m541.607 882.422 4.951-2.859v-3.578l-4.951 2.859v3.578z" class="colore19100 svgShape"></path><path fill="#4ca5ff" d="M518.77 888.406c-1.844-1.066-2.864-2.484-2.864-3.992 0-1.504 1.02-2.922 2.867-3.988a15.304 15.304 0 0 1 13.823 0c3.81 2.2 3.81 5.781 0 7.984l6.273 3.618c6.188-3.57 7.092-9.047 2.738-13.184l4.951-2.86-6.271-3.624-4.951 2.863c-7.164-2.508-16.649-1.992-22.836 1.582-3.527 2.035-5.465 4.738-5.461 7.61-.004 2.878 1.937 5.577 5.46 7.613 3.81 2.199 3.811 5.777 0 7.984a15.316 15.316 0 0 1-13.827 0c-3.809-2.207-3.809-5.781.004-7.984l-6.27-3.618c-6.193 3.575-7.094 9.043-2.75 13.184l-4.566 2.633 6.275 3.625 4.567-2.64c7.17 2.51 16.652 1.995 22.841-1.579 7.268-4.195 7.268-11.027-.004-15.227Z" class="colorffe54c svgShape"></path><path fill="#fc06cf" d="m485.09 907.809 6.275 3.625v-3.582l-6.275-3.625v3.582z" class="colorfcba06 svgShape"></path><path fill="#e100b8" d="m491.365 911.434 4.567-2.637v-3.586l-4.567 2.641v3.582z" class="colore19100 svgShape"></path><path fill="#fc06cf" d="m532.596 891.988 6.273 3.618v-3.578l-6.273-3.618v3.578z" class="colorfcba06 svgShape"></path><path fill="#e100b8" d="M498.676 895.606v-3.578c-2.707 1.562-3.48 3.816-2.348 5.777a6.266 6.266 0 0 1 2.348-2.2Z" class="colore19100 svgShape"></path><path fill="#fc06cf" d="m486.963 895.836.008 4.04.01-.009a6.831 6.831 0 0 0 .777 2.825l1.898-1.098a7.705 7.705 0 0 1-2.683-5.746ZM512.5 895.606a6.32 6.32 0 0 1 2.346 2.199c1.132-1.961.357-4.215-2.346-5.777-3.524-2.036-5.465-4.735-5.461-7.614V888c-.004 2.871 1.937 5.574 5.46 7.606ZM524.223 896v-.07h-.006c0 .02.006.047.006.07Z" class="colorfcba06 svgShape"></path><path fill="#e100b8" d="M544.297 884.41c.008 2.758-1.793 5.52-5.428 7.618v3.578c3.73-2.149 5.525-4.993 5.422-7.82l.014.019v-3.395Z" class="colore19100 svgShape"></path><path fill="url(#Q)" d="M518.773 903.633c-6.19 3.574-15.672 4.09-22.841 1.578v3.586c7.17 2.508 16.652 1.992 22.841-1.582 3.604-2.086 5.418-4.812 5.446-7.547l.004.008v-3.637c-.012 2.75-1.825 5.5-5.45 7.594Z"></path><path fill="#e100b8" d="M532.596 880.426a15.304 15.304 0 0 0-13.823 0c-1.847 1.066-2.867 2.484-2.867 3.988a3.568 3.568 0 0 0 .51 1.793 6.308 6.308 0 0 1 2.357-2.199 15.315 15.315 0 0 1 13.823-.004 6.261 6.261 0 0 1 2.347 2.207c1.133-1.969.358-4.226-2.347-5.785Z" class="colore19100 svgShape"></path><path d="M436.064 971.64c-13.757-7.94-32.047-11.6-50.007-11.062H357.9v4.614a74.835 74.835 0 0 0-14.902 6.449c-25.602 14.89-25.455 39.023.316 53.91a75.165 75.165 0 0 0 14.586 6.324v4.817h33.774c16.238-.27 32.34-3.954 44.699-11.133 25.613-14.895 25.482-39.028-.309-53.918Z" style="mix-blend-mode:multiply" fill="url(#R)"></path><path fill="#4ca5ff" d="M293.738 981.117c-.002-9.523 6.291-19.043 18.877-26.316 12.586-7.262 29.082-10.898 45.578-10.898 16.49 0 32.985 3.636 45.57 10.898 12.585 7.273 18.878 16.789 18.88 26.312.003 9.524-6.294 19.051-18.88 26.317-12.581 7.266-29.074 10.898-45.566 10.898-16.496 0-32.992-3.636-45.578-10.898-12.586-7.266-18.877-16.793-18.88-26.313Z" class="colorffe54c svgShape"></path><path fill="url(#S)" d="M403.764 1007.43c-12.582 7.266-29.075 10.898-45.567 10.898-16.496 0-32.992-3.636-45.578-10.898-12.586-7.266-18.877-16.793-18.88-26.313v18.371c.003 9.516 6.294 19.043 18.88 26.305 12.586 7.274 29.082 10.903 45.578 10.903 16.492 0 32.985-3.63 45.567-10.895 12.585-7.27 18.882-16.797 18.878-26.316v-18.372c.004 9.524-6.293 19.051-18.878 26.317Z"></path><path fill="#3e9eff" d="M321.182 1002.48c10.22 5.907 23.617 8.856 37.015 8.856 13.39 0 26.787-2.95 37.006-8.851 9.428-5.446 14.502-12.454 15.225-19.575-.723-7.129-5.797-14.132-15.225-19.578-10.223-5.906-23.617-8.855-37.014-8.851-13.392-.004-26.789 2.945-37.013 8.851-9.428 5.446-14.496 12.446-15.227 19.574.73 7.125 5.799 14.133 15.233 19.575Z" class="colorffd03e svgShape"></path><path fill="#e100b8" d="M321.176 963.332c10.224-5.906 23.62-8.855 37.013-8.851 13.397-.004 26.791 2.945 37.014 8.851 9.428 5.446 14.502 12.45 15.225 19.578a17.231 17.231 0 0 0 .105-1.797c0-7.734-5.11-15.464-15.33-21.367-10.223-5.898-23.617-8.851-37.014-8.851-13.392 0-26.789 2.953-37.013 8.851-10.221 5.903-15.33 13.637-15.328 21.371a17.693 17.693 0 0 0 .101 1.79c.73-7.13 5.799-14.13 15.227-19.575Z" class="colore19100 svgShape"></path><path fill="#e100b8" d="m383.976 973.43 4.952-2.859v-3.579l-4.952 2.86v3.578z" class="colore19100 svgShape"></path><path fill="#4ca5ff" d="M361.139 979.414c-1.844-1.066-2.864-2.484-2.864-3.992 0-1.504 1.02-2.922 2.867-3.988a15.304 15.304 0 0 1 13.823 0c3.81 2.199 3.81 5.781 0 7.984l6.273 3.617c6.188-3.57 7.092-9.047 2.738-13.183l4.952-2.86-6.272-3.625-4.951 2.864c-7.164-2.508-16.648-1.993-22.836 1.582-3.527 2.035-5.465 4.738-5.461 7.609-.004 2.879 1.938 5.578 5.461 7.613 3.809 2.2 3.81 5.778 0 7.985a15.316 15.316 0 0 1-13.828 0c-3.809-2.207-3.809-5.782.004-7.985l-6.27-3.617c-6.193 3.574-7.093 9.043-2.75 13.184l-4.566 2.633 6.275 3.625 4.567-2.641c7.17 2.512 16.652 1.996 22.841-1.578 7.268-4.195 7.268-11.028-.003-15.227Z" class="colorffe54c svgShape"></path><path fill="#fc06cf" d="m327.459 998.817 6.275 3.625v-3.582l-6.275-3.625v3.582z" class="colorfcba06 svgShape"></path><path fill="#e100b8" d="m333.734 1002.442 4.567-2.637v-3.586l-4.567 2.641v3.582z" class="colore19100 svgShape"></path><path fill="#fc06cf" d="m374.965 982.996 6.273 3.617v-3.578l-6.273-3.617v3.578z" class="colorfcba06 svgShape"></path><path fill="#e100b8" d="M341.045 986.613v-3.578c-2.707 1.563-3.48 3.817-2.348 5.778a6.264 6.264 0 0 1 2.348-2.2Z" class="colore19100 svgShape"></path><path fill="#fc06cf" d="m329.332 986.844.008 4.039.01-.008a6.831 6.831 0 0 0 .777 2.824l1.898-1.097a7.706 7.706 0 0 1-2.683-5.746ZM354.869 986.613a6.319 6.319 0 0 1 2.346 2.2c1.133-1.961.357-4.215-2.346-5.778-3.523-2.035-5.465-4.734-5.461-7.613v3.586c-.004 2.871 1.938 5.574 5.461 7.605ZM366.592 987.008v-.07h-.006c0 .02.006.047.006.07Z" class="colorfcba06 svgShape"></path><path fill="#e100b8" d="M386.666 975.418c.008 2.758-1.793 5.52-5.428 7.617v3.578c3.73-2.148 5.526-4.992 5.422-7.82l.014.02v-3.395Z" class="colore19100 svgShape"></path><path fill="url(#T)" d="M361.142 994.64c-6.189 3.575-15.671 4.09-22.841 1.579v3.586c7.17 2.508 16.652 1.992 22.841-1.582 3.604-2.086 5.418-4.813 5.446-7.547l.004.008v-3.637c-.012 2.75-1.825 5.5-5.45 7.594Z"></path><path fill="#e100b8" d="M374.965 971.434a15.304 15.304 0 0 0-13.823 0c-1.847 1.066-2.867 2.484-2.867 3.988a3.568 3.568 0 0 0 .51 1.793 6.31 6.31 0 0 1 2.357-2.2 15.316 15.316 0 0 1 13.823-.003 6.261 6.261 0 0 1 2.347 2.207c1.133-1.969.358-4.227-2.347-5.785Z" class="colore19100 svgShape"></path><path d="M265.511 1081.12c-13.758-7.942-32.047-11.602-50.008-11.063h-28.156v4.613a74.835 74.835 0 0 0-14.902 6.45c-25.602 14.89-25.456 39.023.316 53.91a75.164 75.164 0 0 0 14.586 6.324v4.816h33.773c16.239-.27 32.34-3.953 44.7-11.132 25.613-14.895 25.482-39.028-.309-53.918Z" style="mix-blend-mode:multiply" fill="url(#U)"></path><path fill="#3e9eff" d="M258.44 1077.173c-.57 12.653-7.195 26.052-19.724 37.191a82.921 82.921 0 0 1-44.457 19.874c-15.855 1.95-31.492-.93-43.166-9.08-11.673-8.173-17.142-20.095-16.571-32.749.57-12.653 7.18-26.038 19.724-37.191a83.04 83.04 0 0 1 44.473-19.887c15.84-1.937 31.477.943 43.15 9.093 11.658 8.187 17.143 20.072 16.572 32.749Z" class="colorffd03e svgShape"></path><path fill="#e100b8" d="m225.205 1057.882 1.682 4.501-4.937 4.39-1.682-4.502 4.937-4.389zM213.669 1068.16l1.683 4.501a5.79 5.79 0 0 0-2.158-2.718c-3.54-2.478-9.504-1.744-13.293 1.624a8.207 8.207 0 0 0-2.996 5.65 5.648 5.648 0 0 0 .342 2.245l-1.683-4.501a5.652 5.652 0 0 1-.342-2.246 8.207 8.207 0 0 1 2.997-5.65c3.788-3.367 9.752-4.101 13.292-1.623a5.79 5.79 0 0 1 2.158 2.718Z" class="colore19100 svgShape"></path><path fill="#e100b8" d="m245.321 1061.38 1.683 4.501a32.49 32.49 0 0 0-12.12-15.245c-9.868-6.91-23.11-9.347-36.508-7.699a70.216 70.216 0 0 0-37.643 16.823c-10.62 9.441-16.212 20.774-16.696 31.49a31.487 31.487 0 0 0 1.922 12.45l-1.683-4.5a31.488 31.488 0 0 1-1.921-12.451c.483-10.716 6.076-22.049 16.695-31.49a70.216 70.216 0 0 1 37.643-16.823c13.397-1.649 26.64.79 36.508 7.698a32.49 32.49 0 0 1 12.12 15.246Z" class="colore19100 svgShape"></path><path fill="#fc06cf" d="m193.657 1085.953 1.683 4.501a5.79 5.79 0 0 0-2.158-2.718 11.115 11.115 0 0 1-4.153-5.207l-1.682-4.501a11.116 11.116 0 0 0 4.152 5.207 5.79 5.79 0 0 1 2.158 2.718Z" class="colorfcba06 svgShape"></path><path fill="#e100b8" d="m177.24 1097.247-1.683-4.501c-.922-2.464-.023-5.511 2.634-7.874l1.683 4.502c-2.657 2.362-3.556 5.409-2.635 7.873Z" class="colore19100 svgShape"></path><path fill="#fc06cf" d="m216.841 1080.105 1.682 4.501-5.823-4.053-1.682-4.501 5.823 4.053z" class="colorfcba06 svgShape"></path><path fill="#e100b8" d="m221.868 1065.1 1.683 4.502c1.753 4.69.038 10.5-5.028 15.004l-1.682-4.501c5.065-4.504 6.78-10.315 5.027-15.004Z" class="colore19100 svgShape"></path><path fill="#fc06cf" d="m169.035 1100.304-1.683-4.501a10.485 10.485 0 0 0 1.605 2.837l1.682 4.5a10.475 10.475 0 0 1-1.604-2.836Z" class="colorfcba06 svgShape"></path><path fill="#e100b8" d="m174.779 1102.716 1.682 4.501-4.548 4.045-1.683-4.501 4.549-4.045z" class="colore19100 svgShape"></path><path fill="#fc06cf" d="m170.23 1106.761 1.683 4.501-5.822-4.077-1.683-4.501 5.822 4.077z" class="colorfcba06 svgShape"></path><path fill="url(#V)" d="m201.867 1082.888 1.683 4.501c1.756 4.699.04 10.51-5.054 15.024-6.15 5.49-15.306 7.295-22.035 4.804l-1.682-4.5c6.728 2.49 15.885.685 22.034-4.805 5.095-4.514 6.81-10.326 5.054-15.024Z"></path><path fill="#4ca5ff" d="m225.205 1057.882-4.937 4.39c3.933 4.974 2.72 12.367-3.427 17.833l-5.823-4.053c3.803-3.382 4.018-8.142.493-10.61-3.54-2.478-9.504-1.744-13.292 1.624a8.207 8.207 0 0 0-2.997 5.649 5.593 5.593 0 0 0 2.504 4.96c6.746 4.725 6.352 13.8-.913 20.237-6.149 5.49-15.306 7.295-22.034 4.804l-4.549 4.045-5.822-4.077 4.549-4.044c-3.934-4.976-2.737-12.354 3.427-17.834l5.807 4.066c-3.788 3.369-4.002 8.129-.463 10.607 3.525 2.468 9.49 1.734 13.278-1.634 3.803-3.382 4.018-8.142.493-10.61a10.693 10.693 0 0 1-4.803-9.483c.171-3.803 2.191-7.62 5.715-10.753 6.164-5.48 15.291-7.281 22.035-4.804l4.937-4.39Z" class="colorffe54c svgShape"></path><path fill="url(#W)" d="m260.419 1073.78-5.924-15.846a37.13 37.13 0 0 1 2.263 14.738c-.57 12.653-7.196 26.051-19.724 37.191a82.923 82.923 0 0 1-44.457 19.873c-15.856 1.951-31.493-.93-43.167-9.08a38.357 38.357 0 0 1-14.305-17.997l5.924 15.847a38.359 38.359 0 0 0 14.305 17.998c11.674 8.15 27.311 11.03 43.166 9.08a82.923 82.923 0 0 0 44.457-19.874c12.53-11.14 19.154-24.538 19.725-37.191a37.132 37.132 0 0 0-2.263-14.738Z"></path><path fill="#4ca5ff" d="M256.758 1072.672c-.57 12.653-7.196 26.052-19.724 37.191a82.923 82.923 0 0 1-44.457 19.873c-15.856 1.951-31.493-.93-43.167-9.08-11.673-8.173-17.141-20.095-16.57-32.748.57-12.654 7.179-26.038 19.723-37.192a83.041 83.041 0 0 1 44.473-19.887c15.84-1.937 31.477.944 43.151 9.094 11.657 8.187 17.142 20.071 16.57 32.749Zm-63.838 49.458a70.1 70.1 0 0 0 37.627-16.809c10.604-9.428 16.212-20.774 16.695-31.49.468-10.702-4.16-20.778-14.041-27.697-9.867-6.909-23.11-9.347-36.508-7.698a70.216 70.216 0 0 0-37.643 16.822c-10.62 9.442-16.212 20.775-16.695 31.49-.468 10.703 4.16 20.778 14.041 27.697 9.867 6.91 23.096 9.337 36.524 7.685Z" class="colorffe54c svgShape"></path><path style="mix-blend-mode:multiply" fill="url(#i)" d="M1032.896 936.721h82.662v15.191h-82.662z"></path><path style="mix-blend-mode:multiply" fill="url(#X)" d="M1070.156 914.783h82.664v15.191h-82.664z"></path><path fill="#a9d2fc" d="M1076.365 808.881c-2.271 2.738-5.867 5.395-6.935 7.234a19.463 19.463 0 0 0-1.895 5.532c-.17 1.02.1 4.14 1.457 3.851 1.357-.297 1.613 1.078 2.926 1.04 1.314-.044.933-.579.933-.579.631.36 1.536.516 1.866.035.54.293.7.918 1.83-.043.926-.789 1.443-2.46 2.187-3.285 2.41-2.648 3.08-11.515 3.608-12.347.535-.829-4.397-3.34-5.977-1.438Z" class="colorfcd1a9 svgShape"></path><path fill="url(#Y)" d="M1073.752 737.041c17.09 17.09 17.639 50.348 8.974 75.485-3.677 3.804-9.685.625-8.289-3.239 7.547-29.031 8.67-56.703-.685-72.246Z"></path><path fill="url(#j)" d="M1079.31 925.299c0-11.934-7.564-12.281-7.564-12.281s-4.096 0-10.748-2.762c-6.566-2.723-15.818-1.672-10.649 7.867.047.117.108.23.172.356a4.712 4.712 0 0 0 1.682 1.468l16.53 9.696c2.519 1.437 10.52-1.89 10.577-4.344Z"></path><path fill="#0c2340" d="M1079.264 924.229c-.143 2.453-8.036 5.715-10.532 4.281l-16.529-9.691a15.31 15.31 0 0 1-2.33-1.696c.148.328.287.645.476 1 .047.117.108.23.172.356a4.712 4.712 0 0 0 1.682 1.468l16.53 9.696c2.357 1.347 9.529-1.485 10.472-3.867a2.603 2.603 0 0 0 .076-.485 7.419 7.419 0 0 0-.017-1.062Z" class="color131147 svgShape"></path><path fill="#ffffff" d="M1076.234 911.447c-1.947 0-8.804 1.747-8.804 1.747a3.832 3.832 0 0 1-.608 1.773 3.62 3.62 0 0 0-.195.234c-1.352.938-2.729 2.426.48 4.442a4.462 4.462 0 0 0 5.782-.406 5.278 5.278 0 0 1 1.86-2.125 4.722 4.722 0 0 1 1.788-.747 1.129 1.129 0 0 1 .014-.171s.5-4.747-.317-4.747Z" class="colorffffff svgShape"></path><path fill="#193f6f" d="m1076.357 794.752-33.625.598c2.784 22.46 8.381 42.867 12.117 64.621 4.012 21.14 8.532 35.992 12.481 53.598 1.443 3.273 8.05 2.03 9.39-1.122 1.046-16.203 2.247-35.941-2.556-54.636.807-20.156 2.664-42.715 2.193-63.059Z" class="color20196f svgShape"></path><path fill="url(#Z)" d="M1041.635 947.229c0-11.93-7.567-12.274-7.567-12.274s-4.092 0-10.75-2.765c-6.558-2.73-15.818-1.68-10.644 7.863a2.156 2.156 0 0 0 .181.352 4.622 4.622 0 0 0 1.672 1.472l16.53 9.695c2.517 1.438 10.519-1.886 10.578-4.343Z"></path><path fill="#0c2340" d="M1041.592 946.158c-.141 2.457-8.037 5.715-10.535 4.286l-16.53-9.692a15.472 15.472 0 0 1-2.328-1.703c.156.332.283.648.475 1.004a2.156 2.156 0 0 0 .181.352 4.622 4.622 0 0 0 1.672 1.472l16.53 9.695c2.355 1.348 9.527-1.484 10.474-3.867a2.264 2.264 0 0 0 .07-.488 7.932 7.932 0 0 0-.01-1.059Z" class="color131147 svgShape"></path><path fill="#ffffff" d="M1038.56 933.377c-1.945 0-8.804 1.746-8.804 1.746a3.872 3.872 0 0 1-.612 1.778c-.068.07-.125.152-.189.226-1.356.942-2.734 2.438.478 4.445a4.45 4.45 0 0 0 5.778-.41 5.28 5.28 0 0 1 1.865-2.117 4.917 4.917 0 0 1 1.785-.754 1.476 1.476 0 0 1 .018-.16s.496-4.754-.319-4.754Z" class="colorffffff svgShape"></path><path fill="url(#aa)" d="M1052.646 848.162c2.043-9.656 25.604-10.855 24.061-48.82-7.397-1.094-44.693 16.402-52.084 15.316-.922 22.614 1.26 43.657 1.4 65.727.502 21.512 2.535 36.91 3.553 54.918.889 3.46 7.613 3.32 9.451.434 3.678-15.817 8.086-35.106 6.403-54.332 2.2-10.649 4.82-21.938 7.216-33.243Z"></path><path fill="url(#k)" d="M1060.857 820.862c-16.013 8.988-32.773 9.007-38.484-2.043 2.137-20.575-4.486-67.692.006-72.797a32.796 32.796 0 0 1 26.14-12.399c11.166 0 26.014-2.328 29.655 10.098 3.73 10.777 4.586 31.027-1.287 54.59-1.69 11.062-8.143 18.129-16.03 22.55Z"></path><path fill="#a9d2fc" d="M1042.994 735.334c4.748-3.43 3.994-10.375 3.715-15.097a23.16 23.16 0 0 1-.686-8.16c.961-10.364 8.393-18.704 16.426-17.395 16.188 2.625 12.498 10.93 11.54 21.293-.89 9.601-5.858 15.8-13.24 16.242-.146 1.574 1.405 1.637 3.079 2.191 1.547 8.446-13.148 7.38-16.236 5.989-3.28-1.485-6.828-2.754-4.598-5.063Z" class="colorfcd1a9 svgShape"></path><path fill="#662e94" d="M1069.066 689.768c-.361-1.309-2.812-2.215-11.34.824-.052.02-2.066.75-2.199.8-15.785 6.368-12.465 24.477-10.246 29.325a9.686 9.686 0 0 1 1.086 5.7c6.147-.098 8.004 3.402 12.025.062 2.883-2.395 7.174-5.18 7.913-6.375a4.795 4.795 0 0 0 .648-2.969c.23-8.629 4.088-3.262 3.908-1.277 1.653-.754 1.633-4.23 1.62-8.098 13.505-9.559 6.564-16.566-3.415-17.992Z" class="color362e94 svgShape"></path><path fill="#a9d2fc" d="M977.992 748.338c-1.074 1.469-3.9-1.703-4.603-3.004l.574-.785a4.842 4.842 0 0 0-3.711.898l.004.004c-2.069 1.09-2.43 2.489-3.852 5.797-1.828 4.25 4.979 6.114 6.176 7.918l6.953-4.543a16.63 16.63 0 0 0 .756-4.199c0-1.86-1.22-3.55-2.297-2.086Z" class="colorfcd1a9 svgShape"></path><path fill="url(#ab)" d="M1024.666 743.498c-8.442 9.45-18.74 21.797-26.871 28.512-6.305-5.566-14.291-13.988-16.7-17.594-5.558-3.418-9.882 3.211-8.003 6.711 2.699 5.016 13.322 22.25 20.761 27.574 7.016 5.028 20.133-.55 29.059-12.3 7.432-12.024 11.1-39.77 1.754-32.903Z"></path><path style="mix-blend-mode:multiply" fill="url(#o)" d="M451.045 650.51v-26.137h-79.311l-4.355 13.032h4.951l-4.301 13.105h83.016z"></path><path fill="url(#l)" d="M399.295 632.979c0-11.274-7.14-11.594-7.14-11.594s-3.87 0-10.155-2.613c-6.197-2.57-14.936-1.578-10.053 7.433a2.863 2.863 0 0 0 .166.328 4.346 4.346 0 0 0 1.588 1.391l15.607 9.152c2.38 1.36 9.934-1.78 9.987-4.097Z"></path><path fill="#0c2340" d="M399.254 631.963c-.135 2.32-7.588 5.399-9.946 4.047l-15.607-9.152a13.832 13.832 0 0 1-2.2-1.598c.141.309.266.602.446.945a2.863 2.863 0 0 0 .166.328 4.346 4.346 0 0 0 1.588 1.391l15.607 9.152c2.223 1.27 8.999-1.402 9.89-3.652a2.264 2.264 0 0 0 .07-.453 7.51 7.51 0 0 0-.014-1.008Z" class="color131147 svgShape"></path><path fill="#a5cef8" d="M394.611 618.908c-2.01 0-7.572 1.793-7.572 1.793a3.96 3.96 0 0 1-.629 1.84 2.788 2.788 0 0 0-.197.246c-1.397.965-2.815 2.504.496 4.575a4.59 4.59 0 0 0 5.96-.426 5.468 5.468 0 0 1 1.92-2.18 5.003 5.003 0 0 1 1.85-.777 1.543 1.543 0 0 1 .012-.168s-.996-4.903-1.84-4.903Z" class="colorf8cda5 svgShape"></path><path fill="url(#ac)" d="M397.4 531.562c.776-12.655.21-19.799-3.406-29.957-7.711.14-17.186 1.615-24.89 1.756 2.869 23.177 6.37 40.003 10.226 62.442 4.137 21.809 3.533 37.137 7.607 55.285 1.49 3.39 7.325 2.461 8.711-.789-1.545-21.113 4.121-37.437 1.184-56.719.23-5.83.148-19.682.568-32.018Z"></path><path fill="url(#ad)" d="M376.596 646.084c0-11.277-7.139-11.594-7.139-11.594s-3.873 0-10.154-2.613c-6.2-2.57-14.938-1.578-10.053 7.434a2.609 2.609 0 0 0 .164.332A4.458 4.458 0 0 0 351 641.03l15.607 9.152c2.381 1.36 9.936-1.777 9.989-4.098Z"></path><path fill="#0c2340" d="M376.555 645.072c-.137 2.317-7.588 5.395-9.948 4.047L351 639.967a14.47 14.47 0 0 1-2.2-1.598c.141.305.266.594.45.942a2.609 2.609 0 0 0 .164.332A4.458 4.458 0 0 0 351 641.03l15.607 9.152c2.227 1.265 9-1.406 9.893-3.656a2.53 2.53 0 0 0 .07-.454 7.422 7.422 0 0 0-.015-1Z" class="color131147 svgShape"></path><path fill="#a5cef8" d="M372.562 632.014c-2.007 0-8.222 1.797-8.222 1.797a3.915 3.915 0 0 1-.627 1.832 3.312 3.312 0 0 0-.201.25c-1.395.965-2.813 2.508.496 4.578a4.61 4.61 0 0 0 5.965-.426 5.413 5.413 0 0 1 1.921-2.183 4.89 4.89 0 0 1 1.842-.778c0-.054.014-.168.014-.168s-.344-4.902-1.188-4.902Z" class="colorf8cda5 svgShape"></path><path fill="#652e92" d="M387.918 512.946c-7.71.141-21.02 1.754-28.729 1.897-2.15 30.416-4.49 41.627-.63 64.07 4.136 21.804 1.607 37.132 5.68 55.284 1.487 3.387 7.827 2.102 9.21-1.148-1.021-18.816 8.615-37.078 3.662-56.363.893-11.36 1.737-28.349 3.16-32.179 2.698-7.291 9.059-15.91 7.647-31.56Z" class="color362e92 svgShape"></path><path fill="#bbd0e6" d="M394.705 433.63c4.424 4.264 8.725 17.42 10.146 31.665 1.11 11.099-1.343 22.859-7.775 31.6-8.334-10.973-2.371-63.265-2.371-63.265Z" class="colorbbc0e6 svgShape"></path><path fill="url(#ae)" d="M369.857 431.694c5.69-4.483 8.774-7.024 11.508-7.59 14.904-3.038 21.527 25.65 19.022 36.988-2.502 11.338-4.45 31.272-1.69 40.513 5.506 18.472 1.89 84.116 1.473 93.632-1.186 5.668-3.143 7.308-7.307 9.757-10.088 5.387-31.705 10.067-37.6-1.332.278-19.37-2.027-46.899-.808-71.249 1.27-25.361 7.719-23.084 5.55-52.943-.507-7.033-4.734-12.662-6.384-20.553.207-1.89 6.197-14.913 6.707-16.45 1.744-3.905 7.62-9.27 9.53-10.773Z"></path><path fill="#193f6e" d="M360.512 406.74c1.816-6.817 8.666-17.846 20.986-15.193 11.9 2.565 14.715 10.267 14.443 22.27-.172 7.648 3.076 6.823 4.467 12.15.848 3.235-1.6 7.663.912 12.248a12.025 12.025 0 0 0 6.473 5.715c8.994 3.758 3.107 8.168-2.201 9.336-12.885 2.833-7.573-3.255-13.098-4.368-3.248-.66-9.195 2.437-12.232.875-5.983-3.077-3.801-6.386-6.608-9.462-2.96-3.247-6.244-2.555-10.262-7.437-3.148-3.818-4.289-7.953-1.884-13.5 1.576-3.646-2.405-7.332-.996-12.635Z" class="color1f196e svgShape"></path><path fill="#a7d0fa" d="M361.03 509.46a4.377 4.377 0 0 0 6.405.213c2.092-2.205.883-4.644 2.03-5.385 3.134-2.011 3.857-3.908 3.328-5.8-2.502 1.59-5.082 4.14-7.274 2.591-2.187-1.55-5.033-3.683-5.187-5.894-3.258.745-3.422 7.803-1.73 10.633a30.254 30.254 0 0 0 2.427 3.642Z" class="colorfacfa7 svgShape"></path><path fill="url(#af)" d="M365.432 503.911c1.615 3.946.484 6.364-3.471 6.81-9.873-5.052-16.754-23.295-16.754-31.076 0-8.586 7.476-25.122 15.484-37.908 1.86-2.744 7.86-1.707 10.819 2.194 3.996 5.274 1.013 10.597-1.248 13.712-6.297 9.27-12.496 20.94-13.127 24.111-1.344 6.77 3.24 17.692 8.297 22.157Z"></path><path d="M1340.746 489.235c-57.066 2.013-121.346 15.228-149.084 31.244-30.15 17.405-5.707 31.519 54.59 31.519 30.597 0 64.535-3.638 94.494-9.49Z" style="mix-blend-mode:multiply" fill="url(#ag)"></path><path fill="#652e92" d="M1152.736 494.109c0-34.819 24.446-77.15 54.592-94.558 30.152-17.405 54.592-3.297 54.592 31.519s-24.44 77.15-54.592 94.556c-30.146 17.407-54.592 3.295-54.592-31.517Z" class="color362e92 svgShape"></path><path fill="url(#ah)" d="M1233.246 388.432c-9.898-5.857-23.629-5.109-38.824 3.665-30.155 17.408-54.592 59.74-54.592 94.557 0 18.162 6.686 30.62 17.33 35.977l-.033.06 11.07 6.387c-9.553-5.837-15.46-17.895-15.46-34.97 0-34.818 24.445-77.15 54.591-94.557 15.064-8.694 28.691-9.522 38.57-3.84l-12.638-7.297Zm12.715 7.315c.076.041.13.097.201.137l.01-.015Zm-75.916 134.398.031-.06c-.252-.125-.514-.222-.762-.355Z"></path><path fill="#ffffff" d="M1247.21 436.584c0-12.778-4.269-21.911-11.204-26.633-7.559-3.65-17.604-2.78-28.678 3.609-23.445 13.539-42.457 46.467-42.457 73.542 0 12.779 4.271 21.914 11.207 26.636 7.555 3.648 17.604 2.778 28.674-3.61 23.449-13.54 42.459-46.467 42.459-73.544Z" class="colorffffff svgShape"></path><path fill="#6e66e7" d="M1236.006 409.951c6.935 4.722 11.205 13.855 11.205 26.633 0 27.077-19.01 60.004-42.46 73.543-11.07 6.389-21.118 7.259-28.673 3.61 7.76 5.284 18.87 5.029 31.25-2.12 23.455-13.538 42.461-46.465 42.461-73.542 0-14.295-5.332-24.045-13.783-28.124Z" class="color6b66e7 svgShape"></path><path fill="url(#ai)" d="m1230.062 472.17-23.824-13.76v-29.682c0-1.884-1.326-2.646-2.955-1.704a6.516 6.516 0 0 0-2.947 5.11v31.094a2.885 2.885 0 0 0 .224 1.169 1.593 1.593 0 0 0 .641.74l24.69 14.26c1.152.665 3.023-.412 4.171-2.41 1.153-1.997 1.153-4.153 0-4.818Z"></path><path d="M994.963 1099.426a7.645 7.645 0 0 1 2.67-1.756h11.77l4.917-10.764-4.433-.685a12.3 12.3 0 0 1-4.145-1.373 4.217 4.217 0 0 1-2.463-3.647 28.04 28.04 0 0 0-.012-4.287c-.095-3.072 3.66-4.576 6.522-5.023l4.441-.688-5.037-10.757h-11.76a8.816 8.816 0 0 1-1.119-.538 7.318 7.318 0 0 1-1.58-1.218 48.415 48.415 0 0 0-3.72-3.715c-2.737-2.647-.778-5.041 1.31-6.256l3.236-1.879-13.642-7.875-3.236 1.879a13.416 13.416 0 0 1-10.786.783q-3.149-1.169-6.433-2.146a11.048 11.048 0 0 1-2.108-.91c-2.619-1.514-2.754-3.534-2.14-4.893l1.176-2.563-18.592-2.886-1.176 2.568c-.75 1.658-3.334 3.848-8.639 3.809a146.08 146.08 0 0 0-7.4-.008 12.3 12.3 0 0 1-6.315-1.41 5.75 5.75 0 0 1-2.384-2.385l-1.198-2.574-18.56 2.886 1.205 2.563c.773 1.662.432 4.3-4.182 5.803q-3.272.975-6.408 2.148a13.476 13.476 0 0 1-10.791-.781l-3.262-1.883-13.554 7.875 3.257 1.881c2.102 1.213 4.09 3.61 1.39 6.252a45.85 45.85 0 0 0-3.686 3.719c-2.575 2.675-7.125 2.884-9.989 2.443l-4.449-.688-4.922 10.756 4.442.69a12.315 12.315 0 0 1 4.14 1.373 4.229 4.229 0 0 1 2.465 3.646 27.736 27.736 0 0 0 .006 4.282 3.597 3.597 0 0 1-1.22 2.775h-30.317v13.701h37.377a8.576 8.576 0 0 1 1.105.533 7.349 7.349 0 0 1 1.584 1.219 46.913 46.913 0 0 0 3.733 3.715 4.768 4.768 0 0 1 1.08 1.476h-17.604v14.532h26.627v-.59l2.22-1.29a13.43 13.43 0 0 1 10.796-.78c.814.302 1.644.59 2.476.875v12.521h25.455v-.025l.16.025 1.174-2.57a3.966 3.966 0 0 1 .32-.56v3.13h25.614l18.56-2.88-1.2-2.57c-.696-1.48-.485-3.75 2.872-5.286h21.77l13.55-7.875-3.25-1.877c-2.107-1.217-4.093-3.613-1.392-6.256a45.43 45.43 0 0 0 3.684-3.711Zm-43.672-6.072c-13.649 7.933-35.867 7.94-49.611.004-13.743-7.934-13.809-20.809-.16-28.74 13.66-7.938 35.872-7.936 49.617 0 13.744 7.937 13.814 20.798.154 28.736Z" style="mix-blend-mode:multiply" fill="url(#aj)"></path><path fill="url(#n)" d="M925.367 1041.6c-13.648-7.879-35.707-7.883-49.271 0-12.065 7.012-13.327 17.908-3.836 25.775a28.63 28.63 0 0 1 3.836-2.656c13.564-7.883 35.623-7.879 49.271 0a28.818 28.818 0 0 1 3.994 2.76c9.551-7.875 8.211-18.832-3.994-25.88Z"></path><path fill="#bbcee2" d="M931.668 1010.487a3.414 3.414 0 0 0-.305 1.378l-.064 23.192a3.324 3.324 0 0 1 .304-1.379l1.174-2.563.067-23.191ZM869.781 1010.487l-1.201-2.563-.066 23.191 1.203 2.563a3.382 3.382 0 0 1 .324 1.437l.064-23.193a3.35 3.35 0 0 0-.324-1.435ZM966.775 1025.528c-1.35.787-2.648 2.066-2.654 3.591l-.064 23.192c.003-1.524 1.3-2.805 2.654-3.592l3.236-1.879.065-23.191Z" class="colorbbbfe2 svgShape"></path><path fill="#cee1f4" d="m834.844 1025.53-3.256-1.881-.067 23.191 3.258 1.881c1.375.795 2.701 2.094 2.697 3.637l.065-23.192c.004-1.543-1.322-2.844-2.697-3.636Z" class="colorced2f4 svgShape"></path><path fill="#bbcee2" d="M984.24 1048.7c-2.82.44-6.514 1.91-6.521 4.898l-.069 23.193c.012-2.99 3.705-4.459 6.524-4.9l4.445-.688.064-23.193Z" class="colorbbbfe2 svgShape"></path><path fill="#242f3c" d="m977.808 1056.041-.068 23.196q0 .98-.074 1.964l.066-23.193c.05-.654.075-1.309.076-1.967Z" class="color242d3c svgShape"></path><path fill="#cee1f4" d="m824.224 1057.555.012-3.836a4.225 4.225 0 0 0-2.467-3.645 12.37 12.37 0 0 0-4.138-1.375l-4.442-.687-.064 23.191 4.437.69a12.312 12.312 0 0 1 4.143 1.373 4.528 4.528 0 0 1 2.393 2.933l-.008 2.711c-.002.764.029 1.526.086 2.284l.066-23.192c-.012-.148-.008-.299-.018-.447Z" class="colorced2f4 svgShape"></path><path fill="#242f3c" d="m824.244 1058.121-.066 23.192c0-.04 0-.078-.002-.12l.066-23.19.002.118Z" class="color242d3c svgShape"></path><path fill="#bbcee2" d="m988.771 1063.715-.064 23.191-4.92 10.764.066-23.191 4.918-10.764z" class="colorbbbfe2 svgShape"></path><path fill="#cee1f4" d="m818.318 1074.479-.066 23.191-5.033-10.76.064-23.191 5.035 10.76z" class="colorced2f4 svgShape"></path><path fill="url(#ak)" d="M979.408 1073.787c-2.863-.441-7.42-.236-9.992 2.446a45.477 45.477 0 0 1-3.686 3.713 3.7 3.7 0 0 0-1.308 2.61l-.067 23.192a3.7 3.7 0 0 1 1.309-2.611 45.172 45.172 0 0 0 3.685-3.711c2.575-2.682 7.131-2.889 9.993-2.447l4.445.691.066-23.191Z"></path><path fill="url(#al)" d="M836.504 1079.946a47.3 47.3 0 0 1-3.735-3.717 7.205 7.205 0 0 0-1.582-1.217 13.66 13.66 0 0 0-8.443-1.225l-4.426.692-.066 23.191 4.426-.691a13.677 13.677 0 0 1 8.441 1.224 7.36 7.36 0 0 1 1.586 1.219 46.846 46.846 0 0 0 3.732 3.715 3.725 3.725 0 0 1 1.34 2.658l.065-23.191a3.73 3.73 0 0 0-1.338-2.658Z"></path><path fill="#bbcee2" d="m970.375 1088.078-.067 23.192-13.552 7.875.064-23.192 13.555-7.875z" class="colorbbbfe2 svgShape"></path><path fill="#cee1f4" d="m845.592 1095.953-.065 23.192-13.642-7.875.064-23.192 13.643 7.875z" class="colorced2f4 svgShape"></path><path fill="url(#am)" d="M953.558 1094.069a13.478 13.478 0 0 0-10.79-.772q-3.124 1.163-6.409 2.147c-3.43 1.115-4.5 2.86-4.504 4.36l-.064 23.196c.004-1.504 1.074-3.25 4.504-4.365q3.278-.982 6.408-2.147a13.468 13.468 0 0 1 10.791.774l3.262 1.883.064-23.192Z"></path><path fill="url(#an)" d="M868.156 1096.354a10.962 10.962 0 0 0-2.115-.914q-3.281-.976-6.42-2.147a13.433 13.433 0 0 0-10.793.78l-3.236 1.88-.065 23.192 3.237-1.88a13.419 13.419 0 0 1 10.79-.78q3.141 1.166 6.422 2.148a10.777 10.777 0 0 1 2.116.914c1.828 1.057 2.449 2.358 2.445 3.51l.064-23.192c.004-1.152-.613-2.455-2.445-3.511Z"></path><path fill="#bbcee2" d="m933.383 1103.809-.067 23.191-18.56 2.881.066-23.193 18.561-2.879z" class="colorbbbfe2 svgShape"></path><path fill="url(#ao)" d="M913.619 1104.12a5.71 5.71 0 0 0-2.383-2.395 12.3 12.3 0 0 0-6.31-1.404c-2.457.058-4.93.058-7.4-.008-5.3-.035-7.876 2.148-8.64 3.806l-1.175 2.569-.065 23.193 1.174-2.57c.764-1.656 3.34-3.842 8.64-3.807 2.468.067 4.944.067 7.4.008a12.287 12.287 0 0 1 6.312 1.406 5.719 5.719 0 0 1 2.383 2.393l1.2 2.57.067-23.193Z"></path><path fill="#f0f2f5" d="m967.123 1086.2 3.252 1.878-13.555 7.875-3.262-1.884a13.478 13.478 0 0 0-10.79-.772q-3.124 1.163-6.409 2.147c-4.613 1.502-4.955 4.142-4.18 5.796l1.204 2.569-18.56 2.879-1.204-2.569a5.71 5.71 0 0 0-2.383-2.394 12.3 12.3 0 0 0-6.31-1.404c-2.457.058-4.93.058-7.4-.008-5.3-.035-7.876 2.148-8.64 3.806l-1.175 2.569-18.592-2.88 1.18-2.573c.617-1.356.474-3.37-2.143-4.881a10.962 10.962 0 0 0-2.115-.914q-3.281-.976-6.42-2.147a13.433 13.433 0 0 0-10.793.78l-3.236 1.88-13.643-7.875 3.236-1.882c2.088-1.211 4.047-3.606 1.317-6.25a47.61 47.61 0 0 1-3.733-3.717 7.275 7.275 0 0 0-1.582-1.219 13.673 13.673 0 0 0-8.443-1.223l-4.426.692-5.035-10.76 4.432-.69c2.861-.447 6.617-1.95 6.527-5.027a27.293 27.293 0 0 1-.006-4.283 4.225 4.225 0 0 0-2.467-3.645 12.37 12.37 0 0 0-4.138-1.375l-4.442-.687 4.918-10.758 4.453.69c2.862.439 7.413.23 9.987-2.444a46.433 46.433 0 0 1 3.683-3.72c2.702-2.643.715-5.038-1.386-6.25l-3.256-1.881 13.553-7.875 3.263 1.882a13.464 13.464 0 0 0 10.79.78q3.134-1.17 6.407-2.147c4.616-1.502 4.957-4.142 4.18-5.802l-1.201-2.563 18.56-2.887 1.196 2.57a5.756 5.756 0 0 0 2.385 2.39 12.316 12.316 0 0 0 6.316 1.41c2.455-.061 4.932-.061 7.4.005 5.305.04 7.889-2.15 8.639-3.806l1.174-2.57 18.594 2.888-1.176 2.563c-.615 1.359-.48 3.378 2.139 4.892a11.099 11.099 0 0 0 2.107.91q3.281.976 6.434 2.147a13.414 13.414 0 0 0 10.785-.783l3.238-1.881 13.64 7.877-3.236 1.879c-2.086 1.214-4.047 3.609-1.31 6.255a47.362 47.362 0 0 1 3.72 3.715 7.314 7.314 0 0 0 1.58 1.219 13.69 13.69 0 0 0 8.452 1.223l4.425-.686 5.041 10.756-4.443.69c-2.86.447-6.615 1.95-6.52 5.023a28.534 28.534 0 0 1 .012 4.285 4.212 4.212 0 0 0 2.461 3.648 12.434 12.434 0 0 0 4.147 1.374l4.431.685-4.918 10.764-4.445-.692c-2.863-.441-7.42-.236-9.992 2.446a45.477 45.477 0 0 1-3.686 3.713c-2.7 2.642-.714 5.039 1.393 6.253Zm-90.99-16.034c13.744 7.934 35.963 7.928 49.611-.004 13.66-7.94 13.586-20.802-.156-28.736-13.742-7.936-35.955-7.94-49.62 0-13.644 7.932-13.58 20.805.165 28.74Z" class="colorf0f0f5 svgShape"></path><path fill="#cee1f4" d="m887.711 1106.688-.065 23.193-18.591-2.881.064-23.191 18.592 2.879z" class="colorced2f4 svgShape"></path><path fill="#e0e5eb" d="M935.619 1037.504c-19.346-11.168-50.61-11.178-69.84 0-9.152 5.318-13.912 12.215-14.308 19.186.373 7.054 5.212 14.052 14.537 19.433 19.343 11.17 50.613 11.158 69.826-.008 9.162-5.322 13.926-12.218 14.322-19.187-.377-7.05-5.215-14.041-14.537-19.424Zm-10.098 32.658c-13.552 7.877-35.617 7.883-49.265.004-6.457-3.728-9.87-8.554-10.24-13.441.384-4.824 3.742-9.582 10.08-13.264 13.564-7.883 35.623-7.879 49.271 0 6.459 3.729 9.871 8.551 10.244 13.436-.385 4.824-3.746 9.58-10.09 13.265Z" class="colore0e0eb svgShape"></path><path fill="url(#ap)" d="M865.78 1037.504c19.23-11.178 50.493-11.168 69.839 0 9.314 5.381 14.156 12.367 14.537 19.412.443-7.666-4.4-15.422-14.537-21.273-19.346-11.168-50.61-11.174-69.84 0-9.96 5.789-14.719 13.445-14.308 21.031.402-6.967 5.164-13.855 14.308-19.17Z"></path><path transform="rotate(180 1385.65 867.45)" style="mix-blend-mode:multiply" fill="url(#aq)" d="M1313.189 830.088h144.922v74.725h-144.922z"></path><path fill="#ffffff" d="m1303.252 826.89-49.945-28.833c-2.745-1.586-4.118-3.662-4.118-5.74 0-2.077 1.371-4.155 4.118-5.739l49.945-28.834a21.949 21.949 0 0 1 19.877 0l49.943 28.834c2.746 1.584 4.12 3.662 4.12 5.739 0 2.078-1.374 4.154-4.12 5.74l-49.943 28.834a21.949 21.949 0 0 1-19.877 0Z" class="colorffffff svgShape"></path><path fill="url(#ar)" d="m1373.072 798.057-49.943 28.834a21.949 21.949 0 0 1-19.877 0l-49.945-28.834c-2.745-1.586-4.118-3.662-4.118-5.74v75.546c0 2.075 1.373 4.153 4.118 5.737l49.945 28.838a21.982 21.982 0 0 0 19.877 0l49.943-28.838c2.746-1.584 4.12-3.662 4.12-5.737v-75.546c0 2.078-1.374 4.154-4.12 5.74Z"></path><path style="mix-blend-mode:multiply" fill="url(#as)" d="M146.086 733.45h148.908v82.167H146.086z"></path><path fill="#f4f6f8" d="m146.086 733.45-71.158-41.086 71.158-41.081 71.157 41.081-71.157 41.086z" class="colorf4f4f8 svgShape"></path><path fill="#cce1f6" d="m146.086 815.617-71.158-41.086v-82.167l71.158 41.086v82.167z" class="colorccd1f6 svgShape"></path><path fill="#b9cee4" d="m146.086 815.617 71.157-41.086v-82.167l-71.157 41.086v82.167z" class="colorb9bee4 svgShape"></path><g style="mix-blend-mode:multiply" fill="#f4f6f8" class="color000000 svgShape"><path fill="#d8e5f3" d="m146.086 665.045-5.692-3.282 5.692-3.287 5.69 3.287-5.69 3.282zM159.338 672.697l-5.689-3.284 5.689-3.284 5.687 3.284-5.687 3.284zM172.591 680.349l-5.69-3.284 5.69-3.282 5.689 3.282-5.689 3.284zM185.846 687.999l-5.692-3.284 5.692-3.284 5.687 3.284-5.687 3.284zM199.098 695.654l-5.69-3.29 5.69-3.284 5.69 3.284-5.69 3.29zM132.834 672.697l-5.693-3.284 5.693-3.284 5.687 3.284-5.687 3.284zM146.086 680.349l-5.692-3.284 5.692-3.282 5.69 3.282-5.69 3.284zM159.338 687.999l-5.689-3.284 5.689-3.284 5.687 3.284-5.687 3.284zM172.591 695.654l-5.69-3.29 5.69-3.284 5.689 3.284-5.689 3.29zM185.846 703.303l-5.692-3.287 5.692-3.281 5.687 3.281-5.687 3.287zM119.58 680.349l-5.69-3.284 5.69-3.282 5.688 3.282-5.688 3.284zM132.834 687.999l-5.693-3.284 5.693-3.284 5.687 3.284-5.687 3.284zM146.086 695.654l-5.692-3.29 5.692-3.284 5.69 3.284-5.69 3.29zM159.338 703.303l-5.689-3.287 5.689-3.281 5.687 3.281-5.687 3.287zM172.591 710.955l-5.69-3.281 5.69-3.287 5.689 3.287-5.689 3.281zM106.328 687.999l-5.693-3.284 5.693-3.284 5.689 3.284-5.689 3.284zM119.58 695.654l-5.69-3.29 5.69-3.284 5.688 3.284-5.688 3.29zM132.834 703.303l-5.693-3.287 5.693-3.281 5.687 3.281-5.687 3.287zM146.086 710.955l-5.692-3.281 5.692-3.287 5.69 3.287-5.69 3.281zM159.338 718.608l-5.689-3.287 5.689-3.287 5.687 3.287-5.687 3.287zM93.078 695.654l-5.695-3.29 5.695-3.284 5.684 3.284-5.684 3.29zM106.328 703.303l-5.693-3.287 5.693-3.281 5.689 3.281-5.689 3.287zM119.58 710.955l-5.69-3.286 5.69-3.282 5.688 3.282-5.688 3.286zM132.834 718.608l-5.693-3.287 5.693-3.287 5.687 3.287-5.687 3.287zM146.086 726.26l-5.692-3.284 5.692-3.287 5.69 3.287-5.69 3.284zM86.845 713.013l-5.689-3.289v-6.566l5.689 3.284v6.571zM100.099 720.662l-5.691-3.284v-6.573l5.691 3.289v6.568zM113.351 728.315l-5.691-3.29v-6.565l5.691 3.284v6.571zM126.606 735.964l-5.691-3.287v-6.568l5.691 3.284v6.571zM139.86 743.619l-5.69-3.287v-6.573l5.69 3.292v6.568zM86.845 728.315l-5.689-3.29v-6.565l5.689 3.284v6.571zM100.099 735.964l-5.691-3.287v-6.568l5.691 3.284v6.571zM113.351 743.619l-5.691-3.287v-6.573l5.691 3.292v6.568zM126.606 751.269l-5.691-3.287v-6.571l5.691 3.284v6.574zM139.86 758.923l-5.69-3.291v-6.569l5.69 3.284v6.576zM86.845 743.619l-5.689-3.287v-6.573l5.689 3.292v6.568zM100.099 751.269l-5.691-3.287v-6.571l5.691 3.284v6.574zM113.351 758.923l-5.691-3.291v-6.569l5.691 3.284v6.576zM126.606 766.57l-5.691-3.284v-6.571l5.691 3.285v6.57zM139.86 774.225l-5.69-3.289v-6.566l5.69 3.284v6.571zM86.845 758.923l-5.689-3.291v-6.569l5.689 3.284v6.576zM100.099 766.57l-5.691-3.284v-6.571l5.691 3.285v6.57zM113.351 774.225l-5.691-3.289v-6.566l5.691 3.282v6.573zM126.606 781.872l-5.691-3.284v-6.568l5.691 3.284v6.568zM139.86 789.527l-5.69-3.284v-6.574l5.69 3.285v6.573zM86.845 774.225l-5.689-3.289v-6.566l5.689 3.282v6.573zM100.099 781.872l-5.691-3.284v-6.568l5.691 3.284v6.568zM113.351 789.527l-5.691-3.284v-6.574l5.691 3.285v6.573zM126.606 797.179l-5.691-3.286v-6.569l5.691 3.284v6.571zM139.86 804.826l-5.69-3.284v-6.568l5.69 3.287v6.565zM205.326 713.013l5.689-3.289v-6.566l-5.689 3.284v6.571zM192.073 720.662l5.687-3.284v-6.573l-5.687 3.289v6.568zM178.821 728.315l5.689-3.29v-6.565l-5.689 3.284v6.571zM165.567 735.964l5.691-3.287v-6.568l-5.691 3.284v6.571zM152.313 743.619l5.69-3.287v-6.573l-5.69 3.292v6.568zM205.326 728.315l5.689-3.29v-6.565l-5.689 3.284v6.571zM192.073 735.964l5.687-3.287v-6.568l-5.687 3.284v6.571zM178.821 743.619l5.689-3.287v-6.573l-5.689 3.292v6.568zM165.567 751.269l5.691-3.287v-6.571l-5.691 3.284v6.574zM152.313 758.923l5.69-3.291v-6.569l-5.69 3.284v6.576zM205.326 743.619l5.689-3.287v-6.573l-5.689 3.292v6.568zM192.073 751.269l5.687-3.287v-6.571l-5.687 3.284v6.574zM178.821 758.923l5.689-3.291v-6.569l-5.689 3.284v6.576zM165.567 766.57l5.691-3.284v-6.571L165.567 760v6.57zM152.313 774.225l5.69-3.289v-6.566l-5.69 3.284v6.571zM205.326 758.923l5.689-3.291v-6.569l-5.689 3.284v6.576zM192.073 766.57l5.687-3.284v-6.571L192.073 760v6.57zM178.821 774.225l5.689-3.289v-6.566l-5.689 3.282v6.573zM165.567 781.872l5.691-3.284v-6.568l-5.691 3.284v6.568zM152.313 789.527l5.69-3.284v-6.574l-5.69 3.285v6.573zM205.326 774.225l5.689-3.289v-6.566l-5.689 3.282v6.573zM192.073 781.872l5.687-3.284v-6.568l-5.687 3.284v6.568zM178.821 789.527l5.689-3.284v-6.574l-5.689 3.285v6.573zM165.567 797.179l5.691-3.286v-6.569l-5.691 3.284v6.571zM152.313 804.826l5.69-3.284v-6.568l-5.69 3.287v6.565z" class="colord8def3 svgShape"></path></g><path style="mix-blend-mode:multiply" fill="url(#at)" d="M1142.07 412.9h-98.904l8.894 19.343h90.01V412.9z"></path><path style="mix-blend-mode:multiply" fill="url(#au)" d="M1105.885 387.425h-83.889l4.215 12.303h79.674v-12.303z"></path><path fill="url(#p)" d="M1018.215 369.472c-3.55-2.418-9.145 1.693-10.559 6.264-.06 1.972 1.397 5.26 1.397 5.26s5.93 13.206 7.945 15.449c2.016 2.253 10.197 5.472 14.135 2.11 2.828-3.665-2.785-5.857-3.809-9.485-1.34-4.725-.764-8.502-2.074-12.061-1.082-2.926-7.035-7.537-7.035-7.537Z"></path><path fill="#0c2340" d="m1007.994 374.83-.018.05c-.058 1.965 1.393 5.264 1.393 5.264s5.932 13.201 7.947 15.449c2.016 2.252 10.198 5.477 14.139 2.111a5.173 5.173 0 0 0 .393-.603 3.563 3.563 0 0 1-.715 1.455c-3.938 3.361-12.12.142-14.135-2.111-2.016-2.243-7.945-15.45-7.945-15.45s-1.457-3.287-1.397-5.26a8.588 8.588 0 0 1 .338-.906Z" class="color131147 svgShape"></path><path fill="#ffffff" d="M1027.949 372.454c-1.73-1.177-8.883-3.775-8.883-3.775a4.067 4.067 0 0 1-1.613 1.203c-.107.025-.205.066-.316.102-1.768.013-4.971 1.673-2.995 5.228 3.84 6.912 12.71 6.666 11.735 3.39-.662-2.2 1.158-4.798 2.072-6.148Z" class="colorffffff svgShape"></path><path fill="url(#av)" d="M1026.037 380.402c.277-1.094.594-3.456-2.201-3.844-2.926-.414-6.23.935-5.963 2.652.566 3.57 7.893 2.291 8.164 1.192Z"></path><path fill="url(#aw)" d="M1015.11 368.812c3.32-4.469 27.91-34.073 39.495-39.969-3.894-16.34-18.449-35.951-15.24-53.455h24.674s19.078 50.205 9.71 62.558c-7.087 9.364-38.474 33.274-50.163 40.815-4.01 0-9.926-6.477-8.477-9.95Z"></path><path fill="url(#q)" d="M1036.049 411.841c-4.239.693-5.465 7.523-3.344 11.814 1.314 1.47 4.64 2.854 4.64 2.854s13.381 5.492 16.393 5.734c3.014.246 9.7-.884 10.25-6.027-.517-3.146-3.154-4.006-6.404-5.932-4.217-2.505-7.838-6.144-11.24-7.81-2.8-1.377-10.295-.633-10.295-.633Z"></path><path fill="#0c2340" d="M1053.646 430.863c-3.1-.245-16.877-5.891-16.877-5.891a17.6 17.6 0 0 1-4.628-2.813 9.643 9.643 0 0 0 .564 1.496c1.314 1.47 4.64 2.854 4.64 2.854s13.381 5.492 16.393 5.734c3.014.246 9.7-.884 10.25-6.027-.021-.103-.062-.203-.082-.314-1.422 4.236-7.428 5.197-10.26 4.96Z" class="color131147 svgShape"></path><path fill="#ffffff" d="M1045.172 407.304c-2.067.34-9.053 3.373-9.053 3.373a4.041 4.041 0 0 1-.344 1.986c-.052.094-.101.19-.158.285-1.266 1.229-2.61 3.407 1.275 4.63 7.538 2.37 13.961-2.688 10.999-4.385-1.993-1.145-2.458-4.286-2.72-5.889Z" class="colorffffff svgShape"></path><path fill="url(#ax)" d="M1049.172 414.204c-.563-.748-1.865-2.734-4.168-1.091-2.408 1.714-2.95 3.773-2.666 5.492.279 1.713 5.238.447 5.428.185.185-.254 1.406-4.586 1.406-4.586Z"></path><path fill="url(#ay)" d="M1046.842 280.794c0 23.174.238 41.233.238 61.469 0 23.139 1.766 51.83 1.523 71.22-3.722 4.61-13.173 3.454-15.166-.109-2.455-17.601-7.939-44.416-6.584-63.627-5.855-25.322-11.51-55.107-9.123-74.974 5.606 1.781 23.5 4.242 29.112 6.021Z"></path><path fill="#a1b7ce" d="M1106.637 285.63c.712.632 4.086 8.57-1.907 11.357-3.224-1.47-4.742-9.656 1.907-11.357Z" class="colora1a7ce svgShape"></path><path fill="#a7d0fa" d="m1102.978 285.756 3.967 1.238c2.225.55 6.078-1.898 12.77-.355 4.27.985 2.459 3.137-1.283 2.932-3.528-.19-4.006 1.64 1.882 2.439a19.96 19.96 0 0 1 6.807 2.275c2.539 1.536 4.994 4.676 1.768 7.07-2.618 1.946-11.231.974-13.696.088-6.808-2.434-5.525-3.819-9.361-5.44-3.828-1.63-4.662-1.516-4.662-1.516Z" class="colorfacfa7 svgShape"></path><path fill="url(#az)" d="M1055.945 212.927c-4.289.389-6.578.51-4.66 13.412 1.086 7.32 7.666 23.056 13.584 34.401 8.094 15.52 22.48 30.149 39.861 36.247-2.757-2.897-1.449-9.658 1.907-11.357-13.196-9.36-23.9-23.07-25.922-30.579-3.242-12.063-6.998-23.534-7.989-27.465-2.078-8.267-12.546-15.037-16.78-14.659Z"></path><path fill="url(#aA)" d="M1022.44 230.347c3.24-7.152 12.802-18.414 20.302-20.924 6.998-2.338 10.33.975 16.197.611 4.08 2.68 9.405 8.362 10.555 12.211 3.363 11.213-2.334 60.28.541 72.131-1.416 6.254-11.81 9.639-16.166 10.592-18.93 4.156-38.07 1.502-38.281-10.592-.701-40.096 1.74-55.433 6.851-64.03Z"></path><path fill="#a7d0fa" d="M1036.719 192.581c-1.551-4.09 15.189.785 16.017 6.498.676 4.649-1.224 10.358 4.072 12.024 2.038 1.443 6.874 16.728 2.678 18.453-4.344 1.79-13.351-10.955-26.115-13.818 4.385-4.194 8.361-9.891 3.348-23.157Z" class="colorfacfa7 svgShape"></path><path fill="#a7d0fa" d="m1034.103 190.113 5.46-9.006 26.488-1.944 1.168 15.944c.646 8.808-4.76 16.377-12.069 16.916-7.103.52-14.129-4.873-15.092-13.287l-3.294-.875Z" class="colorfacfa7 svgShape"></path><path fill="#9bc5f0" d="M1054.846 216.331c-6.227 1.227-14.914-9.127-14.786-17.588.903 7.899 8.149 15.143 17.454 12.842.591.428.775 4.069-2.668 4.746Z" class="colorf0c19b svgShape"></path><path fill="#193f6e" d="M1063.973 172.077c2.396-.6 2.466-2.632-7.602-5.306-5.912-2.383-14.06-2.645-19.059.976-6.77 4.91-8.437 11.522-6.57 19.528 1.857 8.01 7.615 15.33 7.615 15.33.846.736.686-3.01-.154-5.725a5.34 5.34 0 0 1-1.102-2.3c-2.478-8.092 2.647-7.235 3.387-6.59 1.602.525-.906 7.556 3.598 6.539 2.18-.485 1.426-6.614 1.258-8.774.338.057.648.092 1.013.188 3.909 1.814 16.791 2.394 9.377-1.522 4.942-.363 11.842 1.422 13.885-1.877 2.426-3.931-2.195-7.68-5.646-10.467Z" class="color1f196e svgShape"></path><path fill="#f4f6f8" d="M1033.371 215.738c0-1.82 2.805-6.776 3.375-6.208 1.164 1.166 18.05 11.776 20.309 10.438 2.255-1.34.775-6.537.459-8.383a8.191 8.191 0 0 0 .85-.289c.374 1.145 6.378 17.14 1.122 18.701-4.865 1.446-17.418-12.109-26.115-14.26Z" class="colorf4f4f8 svgShape"></path><path fill="#fc06cf" d="M1061.535 223.66c-1.139-1.374-2.762-2.825-4.129-2.14-2.396 1.196-2.68 3.874-3.39 6.839 2.24 1.306 4.142 2.035 5.47 1.638 1.977-.588 2.36-3.218 2.049-6.338Z" class="colorfcba06 svgShape"></path><path fill="#5046e4" d="m1036.473 291.74-3.561 2.056.002 30.969 3.557 6.161 26.822 15.486 3.56-2.055v-30.962l-3.56-6.17-26.82-15.485z" class="color5652cc svgShape"></path><path fill="#662e94" d="m1134.912 305.064-68.059 39.293v-30.962l68.059-39.293v30.962z" class="color362e94 svgShape"></path><path fill="#193f6f" d="M1069.158 314.726v25.638c6.12-3.533 61.338-35.412 63.45-36.63v-25.64c-6.12 3.533-61.339 35.412-63.45 36.632Z" class="color20196f svgShape"></path><path fill="#7c3eaf" d="M1059.809 287.101h78.587v7.124h-78.587z" transform="rotate(-30 1099.102 290.663)" class="color423eaf svgShape"></path><path fill="#857dfb" d="m1131.351 267.931-68.058 39.294-26.82-15.485 68.058-39.293 26.82 15.484z" class="color807dfb svgShape"></path><path d="M1061.965 295.26a5.135 5.135 0 0 1 4.646 0c1.283.742 1.283 1.942 0 2.684a5.133 5.133 0 0 1-4.646 0c-1.283-.742-1.283-1.942 0-2.684ZM1069.115 291.132a5.132 5.132 0 0 1 4.647 0c1.283.741 1.283 1.941 0 2.684a5.139 5.139 0 0 1-4.647 0c-1.283-.743-1.283-1.943 0-2.684ZM1076.267 287.003a5.136 5.136 0 0 1 4.647 0c1.283.742 1.283 1.942 0 2.684a5.139 5.139 0 0 1-4.647 0c-1.283-.742-1.283-1.942 0-2.684Z" style="mix-blend-mode:screen" fill="#fc06cf" class="colorfcba06 svgShape"></path><path fill="#6f67e9" d="m1080.348 271.596 18.459 10.657-6.643 3.834-18.461-10.657 6.645-3.834zM1088.894 272.226l13.641 7.875-1.863 1.076-13.645-7.877 1.867-1.074z" class="color6b67e9 svgShape"></path><path d="m1090.43 306.398-6.905 3.987a1.765 1.765 0 0 0-.799 1.382v16.108c.002.507.356.713.8.46l6.904-3.989a1.76 1.76 0 0 0 .798-1.38v-16.108c0-.51-.357-.715-.798-.46Zm-.797 16.567-5.313 3.067v-14.267l5.313-3.067Zm16.341-25.542-6.906 3.987a1.756 1.756 0 0 0-.797 1.381V318.9c0 .507.356.713.797.459l6.906-3.988a1.754 1.754 0 0 0 .797-1.38v-16.108c0-.51-.355-.715-.797-.46Zm-.796 16.567-5.313 3.068V302.79l5.313-3.067Zm10.859-22.377-6.906 3.988a1.756 1.756 0 0 0-.797 1.38v16.109c0 .508.355.714.797.459l6.906-3.987a1.753 1.753 0 0 0 .797-1.38v-16.109c.002-.51-.356-.714-.797-.46Zm-.797 16.569-5.31 3.066-.002-14.268 5.312-3.067Zm-36.236 4.812-3.32 1.917a1.761 1.761 0 0 0-.797 1.381c0 .508.357.713.796.46l2.524-1.458v15.189c0 .507.357.713.797.459a1.755 1.755 0 0 0 .797-1.378v-16.11c0-.51-.356-.715-.797-.46Zm15.662-4.453a2.34 2.34 0 0 0-1.059 1.833c0 .673.475.947 1.059.609a2.338 2.338 0 0 0 1.055-1.83c0-.673-.473-.949-1.055-.612Zm0 7.346a2.33 2.33 0 0 0-1.059 1.831c0 .673.473.945 1.059.61a2.337 2.337 0 0 0 1.055-1.83c0-.676-.473-.949-1.055-.611Z" style="mix-blend-mode:screen" fill="#dc00b4" class="colordc8b00 svgShape"></path><path fill="#662e94" d="m1130.148 290.446-8.666 5.003v-6.338l8.666-5.003v6.338z" class="color362e94 svgShape"></path><path d="m1128.976 301.706-2.488-5.327c-.066-.145-.224-.176-.398-.074a.96.96 0 0 0-.399.536l-2.486 8.198c-.096.308.01.542.228.524a.82.82 0 0 0 .57-.594l.68-2.238 2.813-1.624.682 1.453c.091.2.345.173.568-.064a.824.824 0 0 0 .23-.79Zm-3.925-.19 1.039-3.426 1.04 2.227Z" style="mix-blend-mode:screen" fill="#dc00b4" class="colordc8b00 svgShape"></path><path fill="#a1b7ce" d="M1046.252 311.798c.361.879-.084 9.496-6.69 9.371-2.255-2.734-.033-10.754 6.69-9.371Z" class="colora1a7ce svgShape"></path><path fill="#a7d0fa" d="m1042.906 310.308 3.027 2.853c1.756 1.467 6.291.955 11.631 5.276 3.409 2.758.832 3.894-2.44 2.07-3.083-1.715-4.316-.28.626 3.02a19.936 19.936 0 0 1 5.119 5.029c1.611 2.494 2.441 6.387-1.51 7.125-3.205.603-10.517-4.043-12.35-5.922-5.052-5.174-3.29-5.854-6.029-8.99-2.724-3.143-3.525-3.406-3.525-3.406Z" class="colorfacfa7 svgShape"></path><path fill="url(#aB)" d="M1034.982 223.46c-5.293-1.422-8.302-1.564-12.502 10.785-3.043 8.951-3.213 24.088-2.867 36.877.477 17.496 6.996 36.951 19.95 50.047-1.212-3.81 2.927-9.312 6.689-9.371-7.762-14.195-10.276-34.36-8.832-41.338 2.611-12.584 3.07-27.18 3.904-31.146 1.752-8.344-2.23-14.752-6.342-15.854Z"></path></g></g></g></g></svg>