<svg xmlns="http://www.w3.org/2000/svg" xmlns:xlink="http://www.w3.org/1999/xlink" viewBox="0 0 807 800" id="Toolsfordataanalysis,statisticalorfinancialanalytics"><defs><linearGradient id="h" x1="601.907" x2="732.854" y1="202.988" y2="429.794" gradientUnits="userSpaceOnUse"><stop offset=".551" stop-color="#5046e4" class="stopColor5555c6 svgShape"></stop><stop offset=".597" stop-color="#683493" class="stopColor363493 svgShape"></stop><stop offset=".6" stop-color="#64318f" class="stopColor34318f svgShape"></stop></linearGradient><linearGradient id="a" x1="255.787" x2="298.909" y1="430.38" y2="430.38" gradientUnits="userSpaceOnUse"><stop offset="0" stop-color="#c4d3e2" class="stopColorc4c8e2 svgShape"></stop><stop offset=".241" stop-color="#dde6ee" class="stopColordddfee svgShape"></stop><stop offset=".539" stop-color="#f4f6f8" class="stopColorf6f6fa svgShape"></stop><stop offset=".719" stop-color="#ffffff" class="stopColorffffff svgShape"></stop></linearGradient><linearGradient id="m" x1="320.877" x2="415.894" y1="392.801" y2="392.801" xlink:href="#a"></linearGradient><linearGradient id="n" x1="288.332" x2="353.339" y1="411.591" y2="411.591" xlink:href="#a"></linearGradient><linearGradient id="o" x1="232.585" x2="705.725" y1="500.245" y2="500.245" gradientUnits="userSpaceOnUse"><stop offset="0" stop-color="#c6d4e3" class="stopColorc6cae3 svgShape"></stop><stop offset=".242" stop-color="#ccd9e6" class="stopColorcccfe6 svgShape"></stop><stop offset=".552" stop-color="#dce5ee" class="stopColordcdeee svgShape"></stop><stop offset=".9" stop-color="#f6f8fb" class="stopColorf6f7fb svgShape"></stop><stop offset="1" stop-color="#ffffff" class="stopColorffffff svgShape"></stop></linearGradient><linearGradient id="p" x1="606.632" x2="739.6" y1="493.442" y2="493.442" gradientUnits="userSpaceOnUse"><stop offset="0" stop-color="#c4d2e1" class="stopColorc4c8e1 svgShape"></stop><stop offset=".088" stop-color="#ccd8e5" class="stopColorcccfe5 svgShape"></stop><stop offset=".448" stop-color="#e8edf3" class="stopColore8e9f3 svgShape"></stop><stop offset=".765" stop-color="#f9fafc" class="stopColorf9f9fc svgShape"></stop><stop offset="1" stop-color="#ffffff" class="stopColorffffff svgShape"></stop></linearGradient><linearGradient id="d" x1="642.732" x2="746.573" y1="539.328" y2="539.328" gradientUnits="userSpaceOnUse"><stop offset="0" stop-color="#d3e1ef" class="stopColord3d7ef svgShape"></stop><stop offset=".297" stop-color="#d7e4f1" class="stopColord7dbf1 svgShape"></stop><stop offset=".606" stop-color="#e4ecf5" class="stopColore4e6f5 svgShape"></stop><stop offset=".92" stop-color="#f8fafd" class="stopColorf8f9fd svgShape"></stop><stop offset="1" stop-color="#ffffff" class="stopColorffffff svgShape"></stop></linearGradient><linearGradient id="e" x1="720.111" x2="730.438" y1="544.954" y2="544.954" gradientUnits="userSpaceOnUse"><stop offset="0" stop-color="#a7bcd2" class="stopColora7add2 svgShape"></stop><stop offset=".635" stop-color="#c0d2e5" class="stopColorc0c4e5 svgShape"></stop><stop offset="1" stop-color="#d0e1f2" class="stopColord0d3f2 svgShape"></stop></linearGradient><linearGradient id="b" x1="642.732" x2="653.107" y1="544.966" y2="544.966" gradientUnits="userSpaceOnUse"><stop offset="0" stop-color="#bdcee0" class="stopColorbdc0e0 svgShape"></stop><stop offset="1" stop-color="#d0e1f2" class="stopColord0d3f2 svgShape"></stop></linearGradient><linearGradient id="f" x1="702.864" x2="716.121" y1="554.532" y2="554.532" gradientUnits="userSpaceOnUse"><stop offset="0" stop-color="#a7bcd2" class="stopColora7add2 svgShape"></stop><stop offset=".516" stop-color="#bed1e4" class="stopColorbec3e4 svgShape"></stop><stop offset="1" stop-color="#d0e1f2" class="stopColord0d3f2 svgShape"></stop></linearGradient><linearGradient id="q" x1="657.176" x2="670.457" y1="554.547" y2="554.547" xlink:href="#b"></linearGradient><linearGradient id="r" x1="679.484" x2="693.877" y1="558.416" y2="558.416" xlink:href="#b"></linearGradient><linearGradient id="c" x1="686.385" x2="721.53" y1="526.755" y2="526.755" gradientUnits="userSpaceOnUse"><stop offset="0" stop-color="#d3e1ef" class="stopColord3d7ef svgShape"></stop><stop offset=".571" stop-color="#eff4f9" class="stopColoreff0f9 svgShape"></stop><stop offset="1" stop-color="#ffffff" class="stopColorffffff svgShape"></stop></linearGradient><linearGradient id="s" x1="660.305" x2="712.605" y1="534.254" y2="534.254" gradientUnits="userSpaceOnUse"><stop offset="0" stop-color="#d0e1f2" class="stopColord0d3f2 svgShape"></stop><stop offset="1" stop-color="#bdcee0" class="stopColorbdc0e0 svgShape"></stop></linearGradient><linearGradient id="t" x1="686.385" x2="712.61" y1="525.44" y2="525.44" xlink:href="#c"></linearGradient><linearGradient id="u" x1="668.011" x2="704.903" y1="519.39" y2="519.39" gradientUnits="userSpaceOnUse"><stop offset="0" stop-color="#5c55be" class="stopColor5557be svgShape"></stop><stop offset=".012" stop-color="#655eca" class="stopColor5e60ca svgShape"></stop><stop offset=".031" stop-color="#716ada" class="stopColor6a6cda svgShape"></stop><stop offset="1" stop-color="#5c55be" class="stopColor5557be svgShape"></stop></linearGradient><linearGradient id="v" x1="668.011" x2="704.903" y1="526.238" y2="526.238" gradientUnits="userSpaceOnUse"><stop offset="0" stop-color="#5c55be" class="stopColor5557be svgShape"></stop><stop offset=".633" stop-color="#6f3d99" class="stopColor3d3e99 svgShape"></stop><stop offset="1" stop-color="#623389" class="stopColor333389 svgShape"></stop></linearGradient><linearGradient id="w" x1="117.856" x2="244.724" y1="448.735" y2="448.735" xlink:href="#d"></linearGradient><linearGradient id="x" x1="148.74" x2="193.816" y1="430.96" y2="430.96" xlink:href="#b"></linearGradient><linearGradient id="y" x1="212.394" x2="225.011" y1="455.608" y2="455.608" xlink:href="#e"></linearGradient><linearGradient id="z" x1="117.856" x2="130.532" y1="455.624" y2="455.624" xlink:href="#b"></linearGradient><linearGradient id="A" x1="191.322" x2="207.519" y1="467.31" y2="467.31" xlink:href="#f"></linearGradient><linearGradient id="B" x1="135.503" x2="151.73" y1="467.328" y2="467.328" xlink:href="#b"></linearGradient><linearGradient id="C" x1="162.758" x2="180.343" y1="472.056" y2="472.056" xlink:href="#b"></linearGradient><linearGradient id="D" x1="139.334" x2="203.224" y1="424.816" y2="424.816" xlink:href="#b"></linearGradient><linearGradient id="E" x1="618.992" x2="618.992" y1="477.886" y2="393.823" gradientUnits="userSpaceOnUse"><stop offset="0" stop-color="#bdcee0" class="stopColorbdc0e0 svgShape"></stop><stop offset="1" stop-color="#a7bcd2" class="stopColora7add2 svgShape"></stop></linearGradient><linearGradient id="F" x1="439.457" x2="627.853" y1="177.111" y2="503.422" gradientUnits="userSpaceOnUse"><stop offset=".576" stop-color="#867ff4" class="stopColor7f7ff4 svgShape"></stop><stop offset=".612" stop-color="#1c3f6b" class="stopColor1e1c6b svgShape"></stop></linearGradient><linearGradient id="G" x1="222.34" x2="605.288" y1="541.318" y2="541.318" gradientUnits="userSpaceOnUse"><stop offset=".562" stop-color="#5046e4" class="stopColor5555c6 svgShape"></stop><stop offset=".612" stop-color="#1c3f6b" class="stopColor1e1c6b svgShape"></stop></linearGradient><linearGradient id="H" x1="474.918" x2="520.878" y1="417.23" y2="337.626" gradientUnits="userSpaceOnUse"><stop offset="0" stop-color="#6cb5ff" class="stopColorffea6c svgShape"></stop><stop offset="1" stop-color="#d62db7" class="stopColord6952d svgShape"></stop></linearGradient><linearGradient id="g" x1="458.294" x2="458.294" y1="408.127" y2="341.974" gradientUnits="userSpaceOnUse"><stop offset="0" stop-color="#6cb5ff" class="stopColorffea6c svgShape"></stop><stop offset="1" stop-color="#a50b89" class="stopColorc6842c svgShape"></stop></linearGradient><linearGradient id="I" x1="554.904" x2="554.904" y1="463.662" y2="402.555" xlink:href="#g"></linearGradient><linearGradient id="J" x1="378.531" x2="447.785" y1="334.294" y2="334.294" gradientUnits="userSpaceOnUse"><stop offset="0" stop-color="#d3e2f2" class="stopColord3d8f2 svgShape"></stop><stop offset=".036" stop-color="#d6e4f2" class="stopColord6daf2 svgShape"></stop><stop offset=".297" stop-color="#e6edf5" class="stopColore6e8f5 svgShape"></stop><stop offset=".594" stop-color="#eff3f7" class="stopColoreff0f7 svgShape"></stop><stop offset="1" stop-color="#f2f4f7" class="stopColorf2f2f7 svgShape"></stop></linearGradient><linearGradient id="K" x1="314.723" x2="445.669" y1="180.34" y2="407.146" xlink:href="#h"></linearGradient><linearGradient id="L" x1="307.012" x2="333.217" y1="368.527" y2="368.527" gradientUnits="userSpaceOnUse"><stop offset="0" stop-color="#429af2" class="stopColorf2bd42 svgShape"></stop><stop offset="1" stop-color="#d12fb4" class="stopColord18f2f svgShape"></stop></linearGradient><linearGradient id="M" x1="274.468" x2="300.673" y1="397.826" y2="397.826" gradientUnits="userSpaceOnUse"><stop offset="0" stop-color="#cee1f4" class="stopColorced2f4 svgShape"></stop><stop offset="1" stop-color="#a3b7cc" class="stopColora3a8cc svgShape"></stop></linearGradient><linearGradient id="N" x1="241.923" x2="268.128" y1="425.073" y2="425.073" gradientUnits="userSpaceOnUse"><stop offset="0" stop-color="#5046e4" class="stopColor5555c6 svgShape"></stop><stop offset="1" stop-color="#7a41aa" class="stopColor4141aa svgShape"></stop></linearGradient><linearGradient id="O" x1="536.344" x2="616.663" y1="612.436" y2="612.436" gradientTransform="translate(42.41)" xlink:href="#a"></linearGradient><linearGradient id="P" x1="454.686" x2="531.561" y1="627.621" y2="627.621" gradientTransform="translate(97.637)" xlink:href="#a"></linearGradient><linearGradient id="Q" x1="373.027" x2="443.784" y1="642.808" y2="642.808" gradientTransform="translate(152.864)" xlink:href="#a"></linearGradient><linearGradient id="R" x1="562.775" x2="643.094" y1="597.249" y2="597.249" gradientTransform="translate(42.41)" xlink:href="#a"></linearGradient><linearGradient id="i" x1="-98.944" x2="-75.491" y1="224.548" y2="183.926" gradientTransform="matrix(-1 0 0 1 402.04 0)" gradientUnits="userSpaceOnUse"><stop offset="0" stop-color="#429af2" class="stopColorf2bd42 svgShape"></stop><stop offset=".41" stop-color="#e93bc9" class="stopColore9b03b svgShape"></stop><stop offset="1" stop-color="#d62db7" class="stopColord6952d svgShape"></stop></linearGradient><linearGradient id="S" x1="480.046" x2="523.324" y1="198.068" y2="198.068" xlink:href="#i"></linearGradient><linearGradient id="T" x1="496.906" x2="496.906" y1="213.871" y2="191.856" gradientUnits="userSpaceOnUse"><stop offset="0" stop-color="#d62db7" class="stopColord6952d svgShape"></stop><stop offset=".171" stop-color="#e337c4" class="stopColore3a837 svgShape"></stop><stop offset=".378" stop-color="#3f96ee" class="stopColoreeb73f svgShape"></stop><stop offset=".539" stop-color="#429af2" class="stopColorf2bd42 svgShape"></stop><stop offset="1" stop-color="#d62db7" class="stopColord6952d svgShape"></stop></linearGradient><linearGradient id="U" x1="499.188" x2="499.188" y1="199.354" y2="189.184" gradientUnits="userSpaceOnUse"><stop offset="0" stop-color="#d62db7" class="stopColord6952d svgShape"></stop><stop offset=".318" stop-color="#e337c4" class="stopColore3a837 svgShape"></stop><stop offset=".7" stop-color="#3f96ee" class="stopColoreeb73f svgShape"></stop><stop offset="1" stop-color="#429af2" class="stopColorf2bd42 svgShape"></stop></linearGradient><linearGradient id="V" x1="494.603" x2="494.603" y1="210.491" y2="203.808" gradientUnits="userSpaceOnUse"><stop offset="0" stop-color="#429af2" class="stopColorf2bd42 svgShape"></stop><stop offset=".318" stop-color="#e538c6" class="stopColore5aa38 svgShape"></stop><stop offset=".7" stop-color="#da30bb" class="stopColorda9b30 svgShape"></stop><stop offset="1" stop-color="#d62db7" class="stopColord6952d svgShape"></stop></linearGradient><linearGradient id="j" x1="246.605" x2="324.904" y1="576.803" y2="576.803" gradientUnits="userSpaceOnUse"><stop offset="0" stop-color="#c6d5e4" class="stopColorc6cae4 svgShape"></stop><stop offset=".258" stop-color="#cfdbe8" class="stopColorcfd3e8 svgShape"></stop><stop offset=".682" stop-color="#e8eef4" class="stopColore8eaf4 svgShape"></stop><stop offset="1" stop-color="#ffffff" class="stopColorffffff svgShape"></stop></linearGradient><linearGradient id="W" x1="172.63" x2="250.93" y1="576.803" y2="576.803" xlink:href="#j"></linearGradient><linearGradient id="X" x1="171.81" x2="311.778" y1="589.384" y2="589.384" gradientUnits="userSpaceOnUse"><stop offset="0" stop-color="#867feb" class="stopColor7f80eb svgShape"></stop><stop offset=".087" stop-color="#7e77e0" class="stopColor7777e0 svgShape"></stop><stop offset=".501" stop-color="#5852b1" class="stopColor5253b1 svgShape"></stop><stop offset=".819" stop-color="#6c3b94" class="stopColor3b3c94 svgShape"></stop><stop offset="1" stop-color="#623389" class="stopColor333389 svgShape"></stop></linearGradient><linearGradient id="k" x1="326.965" x2="340.443" y1="633.716" y2="610.372" gradientUnits="userSpaceOnUse"><stop offset="0" stop-color="#7741a3" class="stopColor4143a3 svgShape"></stop><stop offset=".217" stop-color="#7f49ac" class="stopColor494bac svgShape"></stop><stop offset=".575" stop-color="#645ec5" class="stopColor5e60c5 svgShape"></stop><stop offset="1" stop-color="#867feb" class="stopColor7f80eb svgShape"></stop></linearGradient><linearGradient id="Y" x1="300.294" x2="313.775" y1="618.307" y2="594.957" xlink:href="#j"></linearGradient><linearGradient id="Z" x1="360.992" x2="383.308" y1="651.24" y2="638.356" xlink:href="#k"></linearGradient><linearGradient id="aa" x1="421.019" x2="537.021" y1="671.685" y2="671.685" gradientUnits="userSpaceOnUse"><stop offset=".471" stop-color="#c4d3e2" class="stopColorc4c8e2 svgShape"></stop><stop offset=".648" stop-color="#dde6ee" class="stopColordddfee svgShape"></stop><stop offset=".867" stop-color="#f4f6f8" class="stopColorf6f6fa svgShape"></stop><stop offset="1" stop-color="#ffffff" class="stopColorffffff svgShape"></stop></linearGradient><linearGradient id="l" x1="533.871" x2="533.876" y1="676.681" y2="676.681" gradientUnits="userSpaceOnUse"><stop offset=".561" stop-color="#5046e4" class="stopColor5555c6 svgShape"></stop><stop offset=".661" stop-color="#64318f" class="stopColor34318f svgShape"></stop></linearGradient><linearGradient id="ab" x1="417.874" x2="533.876" y1="683.634" y2="683.634" xlink:href="#l"></linearGradient><linearGradient id="ac" x1="402.14" x2="445.53" y1="145.685" y2="220.839" gradientUnits="userSpaceOnUse"><stop offset=".55" stop-color="#f7f9fc" class="stopColorf7f7fc svgShape"></stop><stop offset=".596" stop-color="#dfe8f2" class="stopColordfe1f2 svgShape"></stop><stop offset=".655" stop-color="#c6d7e8" class="stopColorc6cae8 svgShape"></stop><stop offset=".69" stop-color="#bdd0e4" class="stopColorbdc1e4 svgShape"></stop></linearGradient><linearGradient id="ad" x1="135.988" x2="149.396" y1="388.912" y2="365.688" gradientUnits="userSpaceOnUse"><stop offset="0" stop-color="#867feb" class="stopColor7f80eb svgShape"></stop><stop offset=".279" stop-color="#8079e5" class="stopColor797ae5 svgShape"></stop><stop offset=".654" stop-color="#7069d4" class="stopColor696bd4 svgShape"></stop><stop offset="1" stop-color="#5c55be" class="stopColor5557be svgShape"></stop></linearGradient><linearGradient id="ae" x1="728.522" x2="736.957" y1="350.193" y2="364.301" gradientTransform="matrix(-1 0 0 1 864.224 0)" gradientUnits="userSpaceOnUse"><stop offset="0" stop-color="#5c55be" class="stopColor5557be svgShape"></stop><stop offset="1" stop-color="#867feb" class="stopColor7f80eb svgShape"></stop></linearGradient><linearGradient id="af" x1="312.808" x2="364.225" y1="244.361" y2="334.012" gradientTransform="matrix(-1 0 0 1 538.236 0)" gradientUnits="userSpaceOnUse"><stop offset="0" stop-color="#5ca9f7" class="stopColorf7d25c svgShape"></stop><stop offset=".164" stop-color="#55a5f6" class="stopColorf6cc55 svgShape"></stop><stop offset=".614" stop-color="#479df3" class="stopColorf3c147 svgShape"></stop><stop offset="1" stop-color="#429af2" class="stopColorf2bd42 svgShape"></stop></linearGradient></defs><g style="isolation:isolate" fill="#f4f6f8" class="color000000 svgShape"><g fill="#f4f6f8" class="color000000 svgShape"><g data-name="Back window" fill="#f4f6f8" class="color000000 svgShape"><path fill="#f7f9fc" d="M714.235 438.078c0 3.3-2.338 4.65-5.196 3l-143.301-82.735a11.528 11.528 0 0 1-5.196-9v-120c0-3.3 2.338-4.65 5.196-3l143.301 82.735a11.528 11.528 0 0 1 5.196 9Z" class="colorf7f7fc svgShape"></path><path fill="#d0e3f6" d="m712.506 441.53.004.005.071-.04-.075.035Z" class="colord0d4f6 svgShape"></path><path fill="url(#h)" d="m713.37 306.579-143.302-82.736a3.659 3.659 0 0 0-3.643-.369l-.011.006-.03.017-4.29 2.476.001.001a3.659 3.659 0 0 1 3.643.37l143.301 82.735a11.528 11.528 0 0 1 5.196 9v119.999a3.716 3.716 0 0 1-1.41 3.275l4.015-2.318-.004-.005c1.058-.49 1.73-1.69 1.73-3.452v-120a11.527 11.527 0 0 0-5.197-9Z"></path><path fill="#867ff4" d="m709.04 309.078-143.302-82.735c-2.858-1.65-5.196-.3-5.196 3v5.75l153.693 88.735v-5.75a11.528 11.528 0 0 0-5.196-9Z" class="color7f7ff4 svgShape"></path><path fill="#ffffff" d="m565.9 229.95 4.09 2.362v4.723l-4.09-2.362v-4.723zM573.91 234.575l4.091 2.362v4.723l-4.091-2.362v-4.723zM581.921 239.2l4.091 2.362v4.723l-4.091-2.362V239.2z" class="colorffffff svgShape"></path><path fill="#867ff4" d="m602.751 271.38-31.177-18.001v-5.729l31.177 18v5.73zM708.316 348.597l-126.395-72.974v-2.864l126.395 72.973v2.865zM708.316 355.347l-141.855-81.899v-2.865l141.855 81.899v2.865zM708.316 362.097l-141.855-81.899v-2.865l141.855 81.899v2.865zM708.316 368.847l-141.855-81.899v-2.865l141.855 81.899v2.865zM708.316 375.597l-141.855-81.899v-2.865l141.855 81.899v2.865zM708.316 382.347l-141.855-81.899v-2.865l141.855 81.899v2.865zM708.316 389.097l-141.855-81.899v-2.865l141.855 81.899v2.865zM708.316 395.847l-141.855-81.9v-2.864l141.855 81.899v2.865zM708.316 402.597l-141.855-81.9v-2.864l141.855 81.899v2.865zM640.116 369.972l-73.655-42.525v-2.864l73.655 42.524v2.865z" class="color7f7ff4 svgShape"></path><path d="M702.541 431.862a5.92 5.92 0 0 1-2.89-3.375l-1.557-5.025c-.787-2.505 1.299-3.35 2.565-3.46l-2.445-6.311a5.517 5.517 0 0 1-3.08-.702 4.611 4.611 0 0 1-1.907-2.098l-2.438-4.926a3.454 3.454 0 0 1 1.371-4.736l-3.464-6.002a3.602 3.602 0 0 1-3.502.054 3.941 3.941 0 0 1-1.3-1.266l-3.147-4.488a4.99 4.99 0 0 1 .08-5.694l-4.25-5.284c-.622.868-1.998 1.982-3.483 1.125a3.442 3.442 0 0 1-.806-.665l-3.644-3.75c-1.82-1.851-1.598-4.864-1.214-6.263l-4.748-4.21c-.356 1.324-1.433 3.315-3.487 2.1l-3.889-2.74c-1.941-1.36-2.432-4.738-2.427-6.415l-4.919-2.84c-.005 1.678-.507 4.476-2.444 3.595 0 .007-2.886-1.269-4.363-1.824-1.637-1.104-2.642-4.17-2.982-5.848l-4.756-1.278c.335 1.642.528 4.405-.733 4.801a37.902 37.902 0 0 0-4.92-.506c-1.482-.855-2.844-3.54-3.46-5.126l-.353.03v-8.844a14.326 14.326 0 0 0-6.458-11.183l-56.95-32.88v53.515a11.528 11.528 0 0 0 5.197 9l58.21 33.608v-7.345c5.976-5.878 15.584-6.389 26.406-.14 13.453 7.766 24.975 23.777 29.947 40.02l24.682 14.25a6.157 6.157 0 0 1 .756.144l-1.26-6.197a8.345 8.345 0 0 1-1.938-.821Z" style="mix-blend-mode:multiply" fill="#dce8f4" class="colordce1f4 svgShape"></path></g><g data-name="Shadows from columns" fill="#f4f6f8" class="color000000 svgShape"><path d="M295.069 425.03a18.936 18.936 0 0 0-9.263-2.214h-30.019v15.128h30.019a18.949 18.949 0 0 0 9.264-2.215c2.56-1.479 3.839-3.414 3.839-5.349 0-1.937-1.28-3.871-3.84-5.35Z" style="mix-blend-mode:multiply" fill="url(#a)"></path><path d="M412.053 387.45a18.936 18.936 0 0 0-9.263-2.213h-81.913v15.128h81.913a18.95 18.95 0 0 0 9.265-2.215c2.56-1.479 3.839-3.414 3.839-5.349 0-1.937-1.28-3.871-3.84-5.35Z" style="mix-blend-mode:multiply" fill="url(#m)"></path><path d="M349.498 406.24a18.936 18.936 0 0 0-9.263-2.213h-51.903v15.128h51.903a18.95 18.95 0 0 0 9.265-2.216c2.56-1.478 3.839-3.413 3.839-5.348 0-1.937-1.28-3.872-3.84-5.35Z" style="mix-blend-mode:multiply" fill="url(#n)"></path></g><path d="m705.725 397.209-11.91-6.876c-3.55-2.05-12.264-3.727-19.368-3.727h-283.34c-7.102 0-155.86 93.067-155.86 93.067-3.549 2.051-3.549 5.404 0 7.456l216.884 125.217a13.233 13.233 0 0 0 6.497 1.537h5.64l152.685-88.153 6.303-3.64h82.469Z" style="mix-blend-mode:multiply" fill="url(#o)" data-name="Shadow from laptop"></path><path d="M739.6 484.384v-25.425l-10.06-.698c.467.58.641 1.462-.774 1.861a438.46 438.46 0 0 0-14.44-.527 21.092 21.092 0 0 1-5.593-2.052l-9.81-.01c1 .578 2.104 1.487 1.526 2.04-4.6.08-8.965.252-13.066.51a38.383 38.383 0 0 1-6.642-1.778l-8.207.724a17.645 17.645 0 0 1 2.42 1.108 2.582 2.582 0 0 1 1.103.946c-3.791.443-7.306.973-10.505 1.586a54.201 54.201 0 0 1-7.335-1.431l-6.054 1.412a23.584 23.584 0 0 1 5.191 1.939 50.337 50.337 0 0 0-7.037 2.57 62.978 62.978 0 0 1-7.632-1.014l-3.465 2a39.462 39.462 0 0 1 6.487 1.728 12.73 12.73 0 0 0-2.046 1.958c-2.115.305-4.14.636-6.041 1a54.22 54.22 0 0 1-7.335-1.431l-6.054 1.412a23.585 23.585 0 0 1 5.191 1.939 50.337 50.337 0 0 0-7.037 2.57 62.978 62.978 0 0 1-7.632-1.014l-3.465 2a39.433 39.433 0 0 1 6.487 1.728 10.884 10.884 0 0 0-3.014 3.353 58.112 58.112 0 0 1-7.476-.54l-.653 2.453c2.09.273 3.784 5.425 1.753 5.284l2.199 2.737a61.73 61.73 0 0 1 7.833 1.018 38.888 38.888 0 0 0 5.415 4.132 25.529 25.529 0 0 1-5.86.51l4.917 2.84a55.582 55.582 0 0 1 7.924.568 119.48 119.48 0 0 0 7.487 3.42l-2.89 1.668 7.294 2.742a41.769 41.769 0 0 1 7.491.053 259.14 259.14 0 0 0 11.747 3.648.452.452 0 0 1 .041.122l-2.491 1.439 9.168 2.463a25.185 25.185 0 0 1 6.738-.48q6.467 1.57 13.312 2.989c1.275.75.64 1.567-.115 2.004l10.417 2.013a11.42 11.42 0 0 1 5.504-1.028c4.517.776 9.108 1.496 13.733 2.162a6.995 6.995 0 0 1 1.253.55c1.102.637 1.328 1.335 1.215 1.768l10.96 1.427c.16-.589 1.15-1.486 3.84-1.56 1.36.15 2.721.283 4.083.42V503.92c-19.077-3.463-35.914-8.442-45.486-13.968-5.15-2.974-7.638-5.784-7.731-8.282q5.675-.365 12.377-.365a297.021 297.021 0 0 1 40.84 3.08Z" style="mix-blend-mode:multiply" fill="url(#p)" data-name="Shadow from vertical gear"></path><g data-name="Middle size gear" fill="#f4f6f8" class="color000000 svgShape"><path d="M736.321 550.116a4.056 4.056 0 0 1 1.414-.93h6.233l2.605-5.7-2.348-.363a6.536 6.536 0 0 1-2.195-.727 2.232 2.232 0 0 1-1.304-1.932 14.93 14.93 0 0 0-.006-2.27c-.051-1.627 1.939-2.423 3.453-2.66l2.353-.365-2.669-5.697h-6.227a4.714 4.714 0 0 1-.593-.284 3.855 3.855 0 0 1-.837-.645 25.326 25.326 0 0 0-1.97-1.968c-1.45-1.402-.412-2.67.694-3.313l1.714-.996-7.225-4.171-1.714.996a7.113 7.113 0 0 1-5.713.415q-1.667-.62-3.408-1.137a5.829 5.829 0 0 1-1.116-.483c-1.387-.801-1.458-1.871-1.132-2.59l.622-1.358-9.847-1.529-.622 1.36c-.398.879-1.766 2.038-4.576 2.017a76.744 76.744 0 0 0-3.918-.003 6.523 6.523 0 0 1-3.346-.747 3.042 3.042 0 0 1-1.262-1.264l-.634-1.363-9.83 1.53.637 1.357c.41.879.23 2.277-2.214 3.073q-1.733.517-3.394 1.137a7.137 7.137 0 0 1-5.715-.413l-1.728-.998-7.178 4.172 1.725.996c1.113.642 2.165 1.91.735 3.31a24.754 24.754 0 0 0-1.952 1.97c-1.363 1.417-3.773 1.528-5.29 1.294l-2.357-.364-2.605 5.697 2.352.364a6.543 6.543 0 0 1 2.192.728 2.24 2.24 0 0 1 1.307 1.93 14.533 14.533 0 0 0 .003 2.269 1.905 1.905 0 0 1-.648 1.47h-16.055v7.256h19.796a4.702 4.702 0 0 1 .585.282 3.86 3.86 0 0 1 .838.646 25.17 25.17 0 0 0 1.977 1.968 2.52 2.52 0 0 1 .572.781h-9.324v7.697h14.103v-.313l1.177-.683a7.113 7.113 0 0 1 5.716-.413c.432.16.872.312 1.312.463v6.631h13.482v-.012l.084.012.622-1.36a2.142 2.142 0 0 1 .17-.298v1.658h13.566l9.83-1.525-.637-1.361c-.368-.784-.257-1.985 1.523-2.8h11.528l7.178-4.171-1.722-.994c-1.116-.645-2.169-1.913-.738-3.313a23.856 23.856 0 0 0 1.951-1.966Zm-23.13-3.215c-7.228 4.2-18.996 4.205-26.274.002-7.28-4.202-7.314-11.02-.086-15.221 7.235-4.204 19-4.203 26.278 0s7.317 11.015.083 15.22Z" style="mix-blend-mode:multiply" fill="url(#d)"></path><path fill="#bdcee0" d="M702.8 503.012a1.788 1.788 0 0 0-.162.731l-.035 12.283a1.787 1.787 0 0 1 .162-.73l.622-1.358.034-12.283Z" class="colorbdc0e0 svgShape"></path><path fill="#d0e1f2" d="m670.023 503.013-.637-1.358-.035 12.284.637 1.357a1.79 1.79 0 0 1 .172.76l.034-12.282a1.79 1.79 0 0 0-.17-.761Z" class="colord0d3f2 svgShape"></path><path fill="#bdcee0" d="M721.393 510.98a2.46 2.46 0 0 0-1.406 1.9l-.035 12.284a2.46 2.46 0 0 1 1.406-1.902l1.714-.996.035-12.283Z" class="colorbdc0e0 svgShape"></path><path fill="#d0e1f2" d="m651.52 510.98-1.726-.996-.035 12.283 1.725.996a2.48 2.48 0 0 1 1.429 1.926l.034-12.283a2.48 2.48 0 0 0-1.428-1.926Z" class="colord0d3f2 svgShape"></path><path fill="#bdcee0" d="M730.642 523.25c-1.493.235-3.45 1.012-3.454 2.595l-.035 12.283c.004-1.583 1.961-2.36 3.454-2.594l2.354-.365.035-12.283Z" class="colorbdc0e0 svgShape"></path><path fill="#bdcee0" d="m727.235 527.14-.035 12.283q-.001.52-.04 1.041l.035-12.283q.039-.52.04-1.04Z" class="colorbdc0e0 svgShape"></path><path fill="#d0e1f2" d="m645.895 527.94.006-2.03a2.24 2.24 0 0 0-1.306-1.931 6.548 6.548 0 0 0-2.193-.728l-2.352-.364-.034 12.283 2.351.364a6.548 6.548 0 0 1 2.193.728 2.398 2.398 0 0 1 1.267 1.554l-.004 1.435q-.001.606.046 1.21l.035-12.283c-.006-.079-.004-.158-.009-.237Z" class="colord0d3f2 svgShape"></path><path fill="#0c2340" d="m645.905 528.24-.035 12.284v-.063l.034-12.283v.063Z" class="color262d3b svgShape"></path><path fill="#bdcee0" d="m733.042 531.203-.034 12.283-2.605 5.701.035-12.283 2.604-5.701z" class="colorbdc0e0 svgShape"></path><path fill="#d0e1f2" d="m642.766 536.904-.034 12.283-2.666-5.699.034-12.283 2.666 5.699z" class="colord0d3f2 svgShape"></path><path fill="url(#e)" d="M728.083 536.537c-1.516-.233-3.93-.124-5.292 1.296a23.872 23.872 0 0 1-1.952 1.966 1.96 1.96 0 0 0-.693 1.384l-.035 12.283a1.96 1.96 0 0 1 .693-1.384 23.839 23.839 0 0 0 1.952-1.966c1.363-1.42 3.776-1.53 5.292-1.296l2.355.367.035-12.283Z"></path><path fill="url(#b)" d="M652.397 539.8a25.153 25.153 0 0 1-1.976-1.968 3.862 3.862 0 0 0-.839-.646 7.25 7.25 0 0 0-4.472-.648l-2.344.366-.034 12.283 2.344-.367a7.25 7.25 0 0 1 4.471.649 3.857 3.857 0 0 1 .839.646 25.172 25.172 0 0 0 1.977 1.968 1.97 1.97 0 0 1 .709 1.408l.035-12.283a1.97 1.97 0 0 0-.71-1.408Z"></path><path fill="#bdcee0" d="m723.299 544.106-.035 12.283-7.178 4.171.035-12.283 7.178-4.171z" class="colorbdc0e0 svgShape"></path><path fill="#d0e1f2" d="m657.211 548.278-.035 12.283-7.225-4.172.035-12.283 7.225 4.172z" class="colord0d3f2 svgShape"></path><path fill="url(#f)" d="M714.392 547.28a7.133 7.133 0 0 0-5.714-.41q-1.655.617-3.394 1.137c-1.817.592-2.383 1.516-2.385 2.311l-.035 12.283c.002-.795.568-1.72 2.385-2.311q1.737-.52 3.394-1.137a7.133 7.133 0 0 1 5.715.41l1.728.997.035-12.283Z"></path><path fill="url(#q)" d="M669.162 548.49a5.846 5.846 0 0 0-1.12-.485q-1.738-.516-3.4-1.136a7.113 7.113 0 0 0-5.717.413l-1.714.996-.035 12.283 1.714-.996a7.113 7.113 0 0 1 5.716-.413q1.663.616 3.401 1.136a5.858 5.858 0 0 1 1.12.485 2.177 2.177 0 0 1 1.296 1.859l.034-12.283a2.176 2.176 0 0 0-1.295-1.859Z"></path><path fill="#bdcee0" d="m703.707 552.438-.035 12.283-9.83 1.525.035-12.283 9.83-1.525z" class="colorbdc0e0 svgShape"></path><path fill="url(#r)" d="M693.24 552.603a3.025 3.025 0 0 0-1.262-1.269 6.52 6.52 0 0 0-3.343-.744c-1.3.032-2.611.032-3.919-.004-2.806-.018-4.17 1.139-4.575 2.017l-.622 1.36-.035 12.283.622-1.36c.404-.878 1.77-2.035 4.576-2.017a76.87 76.87 0 0 0 3.918.004 6.519 6.519 0 0 1 3.343.744 3.025 3.025 0 0 1 1.262 1.269l.637 1.36.035-12.283Z"></path><path fill="#f1f3f6" d="m721.577 543.112 1.722.994-7.178 4.171-1.729-.998a7.133 7.133 0 0 0-5.714-.409q-1.655.617-3.394 1.137c-2.444.796-2.625 2.194-2.214 3.07l.637 1.36-9.83 1.526-.637-1.36a3.025 3.025 0 0 0-1.262-1.269 6.52 6.52 0 0 0-3.343-.744c-1.3.031-2.611.032-3.919-.004-2.806-.018-4.17 1.139-4.575 2.017l-.622 1.36-9.847-1.525.625-1.363c.326-.719.25-1.785-1.135-2.585a5.852 5.852 0 0 0-1.12-.485q-1.739-.516-3.4-1.136a7.113 7.113 0 0 0-5.717.413l-1.714.996-7.225-4.172 1.714-.996c1.106-.642 2.144-1.91.697-3.31a25.153 25.153 0 0 1-1.976-1.968 3.862 3.862 0 0 0-.839-.646 7.25 7.25 0 0 0-4.471-.648l-2.344.366-2.667-5.699 2.348-.364c1.513-.238 3.504-1.034 3.456-2.663a14.529 14.529 0 0 1-.003-2.268 2.24 2.24 0 0 0-1.306-1.931 6.546 6.546 0 0 0-2.193-.728l-2.352-.364 2.605-5.697 2.358.364c1.517.234 3.926.123 5.29-1.294a24.753 24.753 0 0 1 1.95-1.97c1.432-1.4.38-2.668-.734-3.31l-1.725-.996 7.178-4.172 1.729.998a7.137 7.137 0 0 0 5.714.413q1.66-.62 3.394-1.137c2.445-.796 2.625-2.194 2.214-3.073l-.637-1.358 9.83-1.529.634 1.363a3.04 3.04 0 0 0 1.263 1.264 6.522 6.522 0 0 0 3.345.747c1.3-.032 2.611-.032 3.919.003 2.81.02 4.177-1.138 4.575-2.016l.622-1.361 9.847 1.53-.622 1.356c-.326.72-.255 1.79 1.133 2.591a5.824 5.824 0 0 0 1.116.483q1.738.517 3.407 1.137a7.113 7.113 0 0 0 5.713-.415l1.714-.996 7.225 4.171-1.714.996c-1.106.643-2.144 1.911-.694 3.313a25.306 25.306 0 0 1 1.97 1.968 3.855 3.855 0 0 0 .838.645 7.249 7.249 0 0 0 4.476.647l2.344-.363 2.669 5.697-2.354.365c-1.514.237-3.504 1.033-3.453 2.66a14.954 14.954 0 0 1 .006 2.27 2.232 2.232 0 0 0 1.304 1.932 6.543 6.543 0 0 0 2.195.727l2.349.363-2.605 5.7-2.355-.366c-1.516-.233-3.93-.124-5.292 1.296a23.872 23.872 0 0 1-1.952 1.966c-1.43 1.4-.378 2.668.738 3.313Zm-48.19-8.492c7.278 4.203 19.046 4.199 26.274-.002 7.235-4.204 7.196-11.017-.082-15.22-7.28-4.202-19.044-4.203-26.279.001-7.228 4.2-7.193 11.019.086 15.221Z" class="colorf1f1f6 svgShape"></path><path fill="#d0e1f2" d="m679.519 553.963-.035 12.283-9.847-1.525.035-12.283 9.847 1.525z" class="colord0d3f2 svgShape"></path><path style="mix-blend-mode:multiply" fill="url(#c)" d="M686.385 515.753h35.144v22.005h-35.144z"></path><path fill="url(#s)" d="M705.005 536.442c-10.176 5.914-26.736 5.92-36.982.004-4.868-2.81-7.43-6.452-7.692-10.134-.32 4.119 2.244 8.305 7.692 11.45 10.246 5.915 26.806 5.91 36.982-.004 5.348-3.108 7.868-7.226 7.578-11.293-.283 3.628-2.807 7.205-7.578 9.977Z"></path><path fill="#867feb" d="M699.462 517.586c-7.228-4.173-18.91-4.188-26.095-.013-6.39 3.713-8.505 10.24-2.032 15.57a15.105 15.105 0 0 1 2.032-1.408c7.184-4.175 18.867-4.173 26.095 0a15.288 15.288 0 0 1 2.115 1.462c6.16-5.274 4.349-11.879-2.115-15.61Z" class="color7f80eb svgShape"></path><path fill="#e1e6eb" d="M704.891 515.02c-10.246-5.915-26.803-5.919-36.989 0-5.341 3.105-7.86 7.223-7.57 11.292.261 3.682 2.823 7.323 7.69 10.134 10.247 5.915 26.807 5.91 36.983-.004 4.771-2.772 7.295-6.35 7.578-9.977.321-4.117-2.245-8.3-7.692-11.445Zm-31.524 3.155c7.184-4.175 18.867-4.173 26.095 0 3.917 2.262 5.718 5.284 5.407 8.243-.263 2.502-2.034 4.958-5.325 6.87-7.178 4.172-18.864 4.176-26.092.003-3.337-1.927-5.137-4.407-5.406-6.93-.314-2.941 1.457-5.94 5.32-8.186Z" class="colore1e1eb svgShape"></path><path d="M712.583 526.465c.321-4.117-2.245-8.3-7.692-11.445-.35-.201-.707-.395-1.07-.583h-17.436v.608a26.71 26.71 0 0 1 13.077 3.13c3.917 2.262 5.718 5.284 5.407 8.243-.263 2.502-2.034 4.958-5.325 6.87a26.568 26.568 0 0 1-13.159 3.127v.027h18.62c4.771-2.772 7.295-6.35 7.578-9.977Z" style="mix-blend-mode:multiply" fill="url(#t)"></path><path fill="#867feb" d="M673.815 507.952c6.938-4.032 18.221-4.03 25.202 0 3.783 2.184 5.522 5.103 5.221 7.961-.253 2.416-1.964 4.788-5.142 6.635-6.932 4.029-18.218 4.033-25.199.002-3.222-1.86-4.961-4.256-5.22-6.692-.303-2.84 1.406-5.737 5.138-7.906Z" class="color7f80eb svgShape"></path><path fill="url(#u)" d="M703.29 511.903a6.445 6.445 0 0 1 .949 4.01c-.255 2.416-1.965 4.788-5.143 6.635-6.932 4.029-18.218 4.033-25.199.002-3.223-1.86-4.961-4.256-5.22-6.692a6.431 6.431 0 0 1 .943-4.012 6.942 6.942 0 0 0-1.574 5.03c.269 2.522 2.069 5.003 5.406 6.93 7.228 4.173 18.914 4.169 26.092-.003 3.291-1.912 5.062-4.369 5.325-6.87a6.963 6.963 0 0 0-1.579-5.03Z"></path><path fill="url(#v)" d="M704.893 516.057a6.257 6.257 0 0 1-.024.876c-.263 2.501-2.034 4.958-5.325 6.87-7.178 4.172-18.864 4.176-26.092.002-3.337-1.926-5.137-4.407-5.406-6.93a6.262 6.262 0 0 1-.027-.818h-.008v9.762h.001q.005.271.034.542c.269 2.523 2.069 5.003 5.406 6.93 7.228 4.173 18.914 4.17 26.092-.002 3.291-1.913 5.062-4.37 5.325-6.87.021-.2.03-.4.032-.6h.002v-9.762Z"></path><path d="M232.199 461.915a4.956 4.956 0 0 1 1.727-1.135h7.616l3.182-6.965-2.869-.443a7.99 7.99 0 0 1-2.682-.889 2.728 2.728 0 0 1-1.593-2.36 18.246 18.246 0 0 0-.008-2.773c-.061-1.988 2.37-2.96 4.22-3.25l2.875-.446-3.26-6.96h-7.609a5.733 5.733 0 0 1-.724-.348 4.706 4.706 0 0 1-1.023-.788 30.933 30.933 0 0 0-2.408-2.404c-1.77-1.713-.503-3.262.848-4.047l2.094-1.217-8.827-5.097-2.094 1.217a8.69 8.69 0 0 1-6.98.507q-2.037-.757-4.163-1.389a7.119 7.119 0 0 1-1.363-.59c-1.695-.978-1.782-2.286-1.384-3.165l.76-1.658-12.03-1.868-.76 1.662c-.486 1.073-2.158 2.489-5.59 2.464a94.006 94.006 0 0 0-4.788-.005 7.969 7.969 0 0 1-4.087-.911 3.715 3.715 0 0 1-1.543-1.545l-.775-1.665-12.01 1.868.78 1.659c.501 1.074.28 2.782-2.705 3.755q-2.117.63-4.148 1.388a8.719 8.719 0 0 1-6.981-.504l-2.112-1.22-8.77 5.097 2.108 1.217c1.36.785 2.645 2.335.898 4.045a30.238 30.238 0 0 0-2.384 2.407c-1.666 1.73-4.61 1.866-6.463 1.58l-2.88-.445-3.183 6.96 2.873.446a7.997 7.997 0 0 1 2.679.889 2.737 2.737 0 0 1 1.596 2.36 17.75 17.75 0 0 0 .004 2.77 2.327 2.327 0 0 1-.792 1.796h-19.615v8.865h24.186a5.755 5.755 0 0 1 .714.344 4.715 4.715 0 0 1 1.025.79 30.748 30.748 0 0 0 2.415 2.404 3.08 3.08 0 0 1 .698.955h-11.39v9.403h17.23v-.381l1.437-.836a8.69 8.69 0 0 1 6.984-.504c.528.196 1.065.38 1.603.565v8.103h16.472v-.016l.102.016.76-1.663a2.627 2.627 0 0 1 .208-.363v2.026h16.574l12.01-1.864-.779-1.663c-.45-.958-.313-2.425 1.86-3.42h14.085l8.77-5.097-2.104-1.214c-1.363-.788-2.649-2.337-.901-4.047a29.126 29.126 0 0 0 2.384-2.403Zm-28.259-3.927c-8.83 5.132-23.208 5.137-32.101.002s-8.936-13.464-.105-18.596c8.84-5.137 23.213-5.135 32.106 0s8.94 13.457.1 18.594Z" style="mix-blend-mode:multiply" fill="url(#w)"></path><path fill="url(#x)" d="M187.166 424.5c-8.83-5.1-23.104-5.101-31.882 0-7.806 4.536-8.623 11.587-2.482 16.678a18.468 18.468 0 0 1 2.482-1.72c8.778-5.1 23.051-5.099 31.882 0a18.682 18.682 0 0 1 2.584 1.787c6.18-5.097 5.313-12.187-2.584-16.746Z"></path><path fill="#bdcee0" d="M191.243 404.367a2.185 2.185 0 0 0-.197.892l-.042 15.007a2.181 2.181 0 0 1 .197-.893l.76-1.658.042-15.006ZM151.2 404.367l-.78-1.658-.042 15.006.779 1.659a2.189 2.189 0 0 1 .209.93l.042-15.008a2.187 2.187 0 0 0-.209-.93ZM213.96 414.1a3.006 3.006 0 0 0-1.717 2.323l-.043 15.007a3.006 3.006 0 0 1 1.718-2.323l2.094-1.217.042-15.007Z" class="colorbdc0e0 svgShape"></path><path fill="#d0e1f2" d="m128.592 414.1-2.108-1.216-.042 15.006 2.108 1.217a3.03 3.03 0 0 1 1.744 2.354l.043-15.007a3.03 3.03 0 0 0-1.745-2.354Z" class="colord0d3f2 svgShape"></path><path fill="#bdcee0" d="M225.26 429.093c-1.824.285-4.214 1.236-4.22 3.17l-.042 15.006c.005-1.933 2.395-2.884 4.22-3.17l2.875-.445.043-15.007Z" class="colorbdc0e0 svgShape"></path><path fill="#0c2340" d="m221.098 433.845-.042 15.006q-.002.636-.05 1.272l.043-15.006q.048-.636.05-1.272Z" class="color262d3b svgShape"></path><path fill="#d0e1f2" d="m121.72 434.823.008-2.481a2.737 2.737 0 0 0-1.596-2.36 7.999 7.999 0 0 0-2.679-.889l-2.873-.445-.043 15.006 2.873.446a7.996 7.996 0 0 1 2.68.889 2.93 2.93 0 0 1 1.548 1.898l-.005 1.754q-.002.74.056 1.478l.043-15.006c-.008-.097-.005-.194-.011-.29Z" class="colord0d3f2 svgShape"></path><path fill="#0c2340" d="m121.733 435.189-.043 15.007v-.077l.042-15.006v.076Z" class="color262d3b svgShape"></path><path fill="#bdcee0" d="m228.193 438.808-.042 15.007-3.183 6.965.043-15.007 3.182-6.965z" class="colorbdc0e0 svgShape"></path><path fill="#d0e1f2" d="m117.898 445.774-.042 15.006-3.257-6.962.042-15.007 3.257 6.963z" class="colord0d3f2 svgShape"></path><path fill="url(#y)" d="M222.134 445.325c-1.853-.285-4.8-.151-6.466 1.584a29.14 29.14 0 0 1-2.385 2.402 2.395 2.395 0 0 0-.847 1.69l-.042 15.007a2.395 2.395 0 0 1 .847-1.69 29.143 29.143 0 0 0 2.384-2.403c1.666-1.734 4.614-1.868 6.466-1.583l2.877.448.043-15.007Z"></path><path fill="url(#z)" d="M129.665 449.311a30.75 30.75 0 0 1-2.415-2.404 4.715 4.715 0 0 0-1.025-.79 8.858 8.858 0 0 0-5.463-.791l-2.864.448-.042 15.006 2.864-.447a8.857 8.857 0 0 1 5.463.791 4.715 4.715 0 0 1 1.024.79 30.749 30.749 0 0 0 2.416 2.404 2.406 2.406 0 0 1 .866 1.72l.043-15.006a2.407 2.407 0 0 0-.867-1.72Z"></path><path fill="#bdcee0" d="m216.289 454.573-.043 15.006-8.769 5.097.042-15.007 8.77-5.096z" class="colorbdc0e0 svgShape"></path><path fill="#d0e1f2" d="m135.546 459.669-.043 15.007-8.827-5.096.043-15.007 8.827 5.096z" class="colord0d3f2 svgShape"></path><path fill="url(#A)" d="M205.407 458.45a8.715 8.715 0 0 0-6.981-.5q-2.022.753-4.147 1.389c-2.22.723-2.912 1.852-2.914 2.823l-.043 15.007c.003-.971.695-2.1 2.914-2.823q2.123-.635 4.147-1.39a8.715 8.715 0 0 1 6.982.5l2.112 1.22.042-15.007Z"></path><path fill="url(#B)" d="M150.148 459.929a7.152 7.152 0 0 0-1.369-.592q-2.124-.631-4.155-1.39a8.69 8.69 0 0 0-6.984.505l-2.094 1.217-.043 15.007 2.095-1.217a8.69 8.69 0 0 1 6.983-.504q2.031.753 4.155 1.389a7.15 7.15 0 0 1 1.37.592 2.66 2.66 0 0 1 1.581 2.27l.043-15.006a2.66 2.66 0 0 0-1.582-2.271Z"></path><path fill="#bdcee0" d="m192.353 464.752-.043 15.007-12.01 1.864.043-15.007 12.01-1.864z" class="colorbdc0e0 svgShape"></path><path fill="url(#C)" d="M179.564 464.953a3.696 3.696 0 0 0-1.541-1.55 7.963 7.963 0 0 0-4.084-.908c-1.59.038-3.19.038-4.788-.005-3.43-.023-5.097 1.391-5.59 2.463l-.76 1.663-.043 15.007.76-1.663c.494-1.072 2.161-2.486 5.59-2.463a93.78 93.78 0 0 0 4.788.004 7.963 7.963 0 0 1 4.084.91 3.696 3.696 0 0 1 1.542 1.549l.778 1.663.043-15.007Z"></path><path fill="#f1f3f6" d="m214.185 453.358 2.104 1.215-8.77 5.096-2.112-1.22a8.715 8.715 0 0 0-6.981-.5q-2.023.754-4.147 1.39c-2.986.973-3.207 2.68-2.705 3.75l.779 1.663-12.01 1.864-.779-1.663a3.696 3.696 0 0 0-1.541-1.55 7.964 7.964 0 0 0-4.084-.909c-1.59.039-3.19.039-4.788-.004-3.43-.023-5.097 1.391-5.59 2.463l-.76 1.663-12.031-1.864.764-1.665c.398-.878.306-2.181-1.386-3.158a7.152 7.152 0 0 0-1.369-.592q-2.124-.631-4.155-1.39a8.69 8.69 0 0 0-6.984.505l-2.094 1.217-8.827-5.096 2.094-1.217c1.35-.785 2.62-2.334.852-4.045a30.765 30.765 0 0 1-2.415-2.404 4.718 4.718 0 0 0-1.025-.79 8.858 8.858 0 0 0-5.463-.791l-2.864.448-3.257-6.963 2.868-.445c1.85-.29 4.28-1.263 4.223-3.253a17.752 17.752 0 0 1-.004-2.771 2.737 2.737 0 0 0-1.596-2.36 8 8 0 0 0-2.679-.889l-2.873-.445 3.183-6.96 2.88.445c1.853.285 4.797.15 6.462-1.581a30.239 30.239 0 0 1 2.385-2.407c1.747-1.71.462-3.26-.898-4.045l-2.108-1.216 8.77-5.097 2.112 1.22a8.72 8.72 0 0 0 6.981.504q2.029-.757 4.148-1.39c2.986-.972 3.206-2.68 2.704-3.754l-.778-1.658 12.01-1.869.774 1.665a3.714 3.714 0 0 0 1.543 1.545 7.97 7.97 0 0 0 4.087.912 94.01 94.01 0 0 1 4.787.004c3.433.025 5.105-1.391 5.59-2.463l.76-1.663 12.031 1.869-.76 1.658c-.398.879-.311 2.186 1.384 3.165a7.127 7.127 0 0 0 1.363.59q2.124.63 4.163 1.388a8.69 8.69 0 0 0 6.98-.506l2.094-1.217 8.827 5.096-2.094 1.217c-1.35.785-2.619 2.335-.848 4.047a30.934 30.934 0 0 1 2.407 2.404 4.705 4.705 0 0 0 1.024.788 8.855 8.855 0 0 0 5.468.791l2.864-.443 3.26 6.96-2.875.446c-1.85.29-4.28 1.262-4.219 3.25a18.27 18.27 0 0 1 .008 2.774 2.727 2.727 0 0 0 1.593 2.36 7.987 7.987 0 0 0 2.682.888l2.87.443-3.183 6.965-2.877-.448c-1.853-.285-4.8-.151-6.466 1.584a29.154 29.154 0 0 1-2.385 2.402c-1.747 1.71-.461 3.26.902 4.047Zm-58.877-10.374c8.893 5.134 23.27 5.13 32.101-.003 8.84-5.137 8.793-13.46-.1-18.594s-23.267-5.137-32.106 0c-8.831 5.132-8.788 13.462.105 18.597Z" class="colorf1f1f6 svgShape"></path><path fill="#d0e1f2" d="m162.801 466.616-.043 15.007-12.031-1.864.043-15.007 12.031 1.864z" class="colord0d3f2 svgShape"></path><path fill="#e1e6eb" d="M193.8 421.849c-12.519-7.227-32.748-7.232-45.192 0-5.921 3.441-9.002 7.903-9.259 12.414.243 4.565 3.374 9.092 9.406 12.575 12.518 7.227 32.751 7.22 45.184-.005 5.928-3.445 9.01-7.906 9.267-12.416-.243-4.562-3.375-9.086-9.407-12.568Zm-6.534 21.132c-8.77 5.097-23.047 5.101-31.878.003-4.178-2.413-6.386-5.536-6.627-8.697.25-3.123 2.423-6.2 6.523-8.583 8.778-5.101 23.051-5.1 31.882 0 4.179 2.412 6.388 5.533 6.629 8.693-.25 3.122-2.424 6.199-6.529 8.584Z" class="colore1e1eb svgShape"></path><path fill="url(#D)" d="M148.608 421.85c12.444-7.233 32.673-7.228 45.191-.001 6.029 3.48 9.16 8.001 9.406 12.561.287-4.96-2.847-9.978-9.406-13.765-12.518-7.227-32.747-7.232-45.19 0-6.445 3.745-9.524 8.699-9.26 13.608.261-4.507 3.342-8.965 9.26-12.404Z"></path></g><g fill="#f4f6f8" class="color000000 svgShape"><path fill="#655ec9" d="m597.745 444.419-19.028 11.057-.022.013 19.028-11.058Z" class="color5ec1c9 svgShape"></path><path fill="#a7bcd2" d="m595.436 477.093 19.028-11.057a3.9 3.9 0 0 0-1.163 1.072l-19.028 11.057a3.901 3.901 0 0 1 1.163-1.072Z" class="colora7add2 svgShape"></path><path fill="#f1f3f6" d="m590.8 425.17-19.029 11.057a3.893 3.893 0 0 1-1.575.48l19.028-11.057a3.893 3.893 0 0 0 1.575-.48Z" class="colorf1f1f6 svgShape"></path><path fill="#a7bcd2" d="m609.683 489.557 19.028-11.058a4.081 4.081 0 0 0-1.516 2.37l-19.028 11.058a4.081 4.081 0 0 1 1.516-2.37Z" class="colora7add2 svgShape"></path><path fill="#f1f3f6" d="m586.993 406.664-19.028 11.058a4.105 4.105 0 0 1-2.849.116l19.028-11.058a4.105 4.105 0 0 0 2.849-.116Z" class="colorf1f1f6 svgShape"></path><path fill="#a7bcd2" d="m623.872 498.382 19.028-11.058c-.745.675-.98 2.312-.983 3.44l-19.028 11.058c.004-1.129.238-2.765.983-3.44Z" class="colora7add2 svgShape"></path><path fill="#f1f3f6" d="m563.797 400.153 19.027-11.058c1.006.58 2.598 1.222 3.555.875l-19.028 11.058c-.957.347-2.549-.295-3.554-.875Z" class="colorf1f1f6 svgShape"></path><path fill="#a7bcd2" d="m637.527 502.96 19.028-11.058c-.527.992-.348 2.947-.093 4.218l-19.027 11.058c-.256-1.272-.434-3.226.092-4.219Z" class="colora7add2 svgShape"></path><path fill="#f1f3f6" d="m566.332 384.86 19.028-11.058a12.445 12.445 0 0 0 1.925 1.404 4.006 4.006 0 0 0 1.908.65l-19.028 11.057a4.007 4.007 0 0 1-1.908-.65 12.428 12.428 0 0 1-1.925-1.404Z" class="colorf1f1f6 svgShape"></path><path fill="#a7bcd2" d="m649.982 502.79 19.028-11.058c-.315 1.267.306 3.484.832 4.852l-19.028 11.058c-.526-1.369-1.147-3.586-.832-4.852Z" class="colora7add2 svgShape"></path><path fill="#f1f3f6" d="m572.54 373.002 19.029-11.057a12.887 12.887 0 0 0 3.07 2.842 3.13 3.13 0 0 0 .857.358l-19.028 11.057a3.125 3.125 0 0 1-.857-.357 12.885 12.885 0 0 1-3.07-2.843Z" class="colorf1f1f6 svgShape"></path><path fill="#e3ecf6" d="m582.012 365.39 19.028-11.058a12.495 12.495 0 0 0 3.488 4.087L585.5 369.477a12.494 12.494 0 0 1-3.488-4.087Z" class="colore3e5f6 svgShape"></path><path fill="#bdcee0" d="m660.337 497.936 19.028-11.057c-.102 1.488.99 3.865 1.781 5.234l-19.028 11.057c-.79-1.368-1.883-3.745-1.78-5.234Z" class="colorbdc0e0 svgShape"></path><path fill="#f1f3f6" d="m585.5 369.477 19.028-11.058c1.814-.424 3.346-.902 4.952-1.23l-19.027 11.057c-1.607.33-3.14.807-4.953 1.23Z" class="colorf1f1f6 svgShape"></path><path fill="#a7bcd2" d="m664.083 494.332 19.028-11.058a27.051 27.051 0 0 1-3.746 3.605l-19.028 11.057a27.04 27.04 0 0 0 3.746-3.604Z" class="colora7add2 svgShape"></path><path fill="#f6f8fb" d="m589.823 362.903 19.028-11.057 4.266-.368-19.028 11.058-4.266.367z" class="colorf6f6fb svgShape"></path><path fill="#a7bcd2" d="m670.569 494.07 19.028-11.058-2.473 3.472-19.028 11.058 2.473-3.472z" class="colora7add2 svgShape"></path><path fill="#bdcee0" d="m667.868 488.734 19.028-11.058c.128 1.7 1.68 4.066 2.701 5.336L670.57 494.07c-1.02-1.27-2.573-3.635-2.7-5.336Z" class="colorbdc0e0 svgShape"></path><path fill="#e3ecf6" d="m594.089 362.536 19.028-11.058c.617 1.586 1.979 4.27 3.461 5.126l-19.028 11.058c-1.482-.856-2.844-3.54-3.461-5.126Z" class="colore3e5f6 svgShape"></path><path fill="#f1f3f6" d="m597.55 367.662 19.028-11.058a37.898 37.898 0 0 1 4.92.506l-19.029 11.058a37.868 37.868 0 0 0-4.919-.506Z" class="colorf1f1f6 svgShape"></path><path fill="#655ec9" d="m621.69 357.025-19.027 11.058a.952.952 0 0 1-.194.085l19.028-11.058a.942.942 0 0 0 .194-.085Z" class="color5ec1c9 svgShape"></path><path fill="#a7bcd2" d="m670.052 483.706 19.028-11.058a37.33 37.33 0 0 1-2.184 5.028l-19.028 11.058a37.329 37.329 0 0 0 2.184-5.028Z" class="colora7add2 svgShape"></path><path fill="#f1f3f6" d="m603.202 363.367 19.028-11.058 4.756 1.278-19.028 11.057-4.756-1.277z" class="colorf1f1f6 svgShape"></path><path fill="#e3ecf6" d="m607.958 364.644 19.028-11.057c.34 1.678 1.345 4.744 2.982 5.848l-19.028 11.057c-1.637-1.103-2.641-4.17-2.982-5.848Z" class="colore3e5f6 svgShape"></path><path fill="#a7bcd2" d="m675.596 480.962 19.028-11.058-1.285 4.727-19.028 11.058 1.285-4.727z" class="colora7add2 svgShape"></path><path fill="#d9e5f1" d="m672.054 475.743 19.028-11.058c.311 1.906 2.325 4.14 3.542 5.219l-19.028 11.058c-1.217-1.08-3.23-3.314-3.542-5.22Z" class="colord9dcf1 svgShape"></path><path fill="#f1f3f6" d="m610.94 370.492 19.028-11.057c1.477.555 4.363 1.83 4.363 1.824l-19.028 11.058c0 .007-2.885-1.27-4.363-1.825Z" class="colorf1f1f6 svgShape"></path><path fill="#bdcee0" d="m672.686 470.01 19.028-11.057a56.806 56.806 0 0 1-.632 5.732l-19.028 11.058a56.744 56.744 0 0 0 .632-5.733Z" class="colorbdc0e0 svgShape"></path><path fill="#f1f3f6" d="m635.58 361.277-19.028 11.058a1.303 1.303 0 0 1-1.249-.018l19.028-11.058a1.304 1.304 0 0 0 1.25.018Z" class="colorf1f1f6 svgShape"></path><path fill="#a7bcd2" d="m673.085 469.612 19.028-11.058a1.094 1.094 0 0 0-.399.399l-19.028 11.057a1.096 1.096 0 0 1 .4-.398Z" class="colora7add2 svgShape"></path><path fill="#f1f3f6" d="m617.748 368.722 19.027-11.057 4.919 2.839-19.028 11.058-4.918-2.84z" class="colorf1f1f6 svgShape"></path><path fill="#e3ecf6" d="m622.666 371.562 19.028-11.058c-.005 1.677.486 5.056 2.428 6.415l-19.028 11.057c-1.942-1.359-2.433-4.737-2.428-6.414Z" class="colore3e5f6 svgShape"></path><path fill="#a7bcd2" d="m676.862 464.75 19.028-11.058-.016 5.645-19.028 11.058.016-5.645z" class="colora7add2 svgShape"></path><path fill="#d9e5f1" d="m672.583 459.872 19.028-11.057c.465 2.166 2.912 4.088 4.28 4.877l-19.029 11.058c-1.367-.79-3.813-2.71-4.28-4.878Z" class="colord9dcf1 svgShape"></path><path fill="#f1f3f6" d="m625.094 377.976 19.028-11.057 3.888 2.74-19.028 11.058-3.888-2.741z" class="colorf1f1f6 svgShape"></path><path fill="#a7bcd2" d="m671.92 454.16 19.028-11.058c.288 1.919.512 3.827.663 5.713l-19.028 11.057a82.781 82.781 0 0 0-.663-5.713Z" class="colora7add2 svgShape"></path><path fill="#a7bcd2" d="m672.676 452.822 19.027-11.058a1.519 1.519 0 0 0-.755 1.338l-19.028 11.057a1.518 1.518 0 0 1 .756-1.337Z" class="colora7add2 svgShape"></path><path fill="#f1f3f6" d="m650.053 369.81-19.028 11.057a1.914 1.914 0 0 1-2.043-.15l19.028-11.058a1.915 1.915 0 0 0 2.043.15Z" class="colorf1f1f6 svgShape"></path><path fill="#bdcee0" d="m667.882 437.293 19.027-11.058 1.557 5.025-19.028 11.058-1.556-5.025z" class="colorbdc0e0 svgShape"></path><path fill="#f1f3f6" d="m638.431 389.089 19.028-11.058 3.644 3.751-19.028 11.057-3.644-3.75z" class="colorf1f1f6 svgShape"></path><path fill="#bdcee0" d="m637.217 382.827 19.028-11.058c-.384 1.399-.605 4.412 1.214 6.262l-19.028 11.058c-1.819-1.85-1.597-4.864-1.214-6.262Z" class="colorbdc0e0 svgShape"></path><path fill="#f1f3f6" d="m632.47 378.618 19.028-11.058 4.747 4.209-19.028 11.058-4.747-4.209z" class="colorf1f1f6 svgShape"></path><path fill="#e3ecf6" d="m669.438 442.318 19.028-11.058a5.92 5.92 0 0 0 2.89 3.374 8.348 8.348 0 0 0 1.938.822l-19.027 11.058a8.352 8.352 0 0 1-1.939-.822 5.92 5.92 0 0 1-2.89-3.374Z" class="colore3e5f6 svgShape"></path><path fill="#bdcee0" d="m674.267 446.514 19.027-11.058 1.261 6.197-19.028 11.058-1.26-6.197z" class="colorbdc0e0 svgShape"></path><path fill="#a7bcd2" d="m668.87 434.316 19.029-11.058a2.307 2.307 0 0 0-.99 2.977l-19.027 11.058a2.307 2.307 0 0 1 .989-2.977Z" class="colora7add2 svgShape"></path><path fill="#e3ecf6" d="m664.221 382.402-19.027 11.058a2.2 2.2 0 0 1-2.313.044 3.443 3.443 0 0 1-.806-.665l19.028-11.057a3.443 3.443 0 0 0 .806.664 2.2 2.2 0 0 0 2.312-.044Z" class="colore3e5f6 svgShape"></path><path fill="#f1f3f6" d="m660.576 419.796 19.028-11.058 2.438 4.925-19.028 11.058-2.438-4.925zM650.534 403.358l19.028-11.058 3.147 4.488-19.028 11.058-3.147-4.488zM646.364 392.379l19.028-11.057 4.249 5.283-19.027 11.058-4.25-5.284z" class="colorf1f1f6 svgShape"></path><path fill="#bdcee0" d="m650.614 397.663 19.027-11.058a4.99 4.99 0 0 0-.08 5.695l-19.027 11.058a4.99 4.99 0 0 1 .08-5.695ZM668.001 427.521l19.028-11.057 2.445 6.312-19.027 11.057-2.446-6.312z" class="colorbdc0e0 svgShape"></path><path fill="#e3ecf6" d="m663.014 424.721 19.028-11.058a4.612 4.612 0 0 0 1.907 2.099 5.517 5.517 0 0 0 3.08.702l-19.028 11.057a5.518 5.518 0 0 1-3.08-.702 4.613 4.613 0 0 1-1.907-2.098Z" class="colore3e5f6 svgShape"></path><path fill="#bdcee0" d="m661.913 415.079 19.028-11.058a3.452 3.452 0 0 0-1.337 4.717l-19.028 11.058a3.452 3.452 0 0 1 1.337-4.717Z" class="colorbdc0e0 svgShape"></path><path fill="#e3ecf6" d="m653.68 407.846 19.029-11.058a3.94 3.94 0 0 0 1.3 1.266 3.602 3.602 0 0 0 3.502-.054l-19.028 11.058a3.602 3.602 0 0 1-3.502.054 3.94 3.94 0 0 1-1.3-1.266Z" class="colore3e5f6 svgShape"></path><path fill="#f1f3f6" d="M658.483 409.058 677.511 398l3.465 6.001-19.028 11.058-3.465-6.001z" class="colorf1f1f6 svgShape"></path><path fill="#d0e1f2" d="m676.846 470.395.016-5.645c-1.367-.79-3.813-2.71-4.28-4.878a82.843 82.843 0 0 0-.662-5.713c.086-1.888 2.301-1.799 3.607-1.448l-1.26-6.197a8.347 8.347 0 0 1-1.939-.822 5.92 5.92 0 0 1-2.89-3.374l-1.556-5.025c-.787-2.505 1.298-3.35 2.565-3.46L668 427.522a5.518 5.518 0 0 1-3.08-.702 4.613 4.613 0 0 1-1.907-2.098l-2.438-4.925a3.454 3.454 0 0 1 1.372-4.737l-3.465-6.001a3.602 3.602 0 0 1-3.502.054 3.941 3.941 0 0 1-1.3-1.266l-3.147-4.488a4.99 4.99 0 0 1 .08-5.695l-4.25-5.284c-.622.869-1.998 1.982-3.483 1.125a3.445 3.445 0 0 1-.806-.665l-3.644-3.75c-1.819-1.85-1.597-4.864-1.214-6.262l-4.747-4.21c-.357 1.324-1.433 3.315-3.488 2.1l-3.888-2.74c-1.942-1.36-2.433-4.738-2.428-6.415l-4.918-2.84c-.005 1.677-.508 4.475-2.445 3.595 0 .007-2.885-1.27-4.363-1.825-1.637-1.103-2.641-4.17-2.982-5.848l-4.756-1.277c.335 1.641.529 4.405-.733 4.8a37.885 37.885 0 0 0-4.919-.505c-1.482-.856-2.844-3.54-3.461-5.126l-4.266.367c.612 1.57 1.335 4.269.63 5.343-1.607.33-3.14.807-4.953 1.23a12.493 12.493 0 0 1-3.488-4.086l-3.487 1.988c.813 1.408 1.951 3.897 1.769 5.379a26.396 26.396 0 0 0-3.826 3.445 3.125 3.125 0 0 1-.857-.357 12.883 12.883 0 0 1-3.07-2.843l-2.468 3.476a13.489 13.489 0 0 1 2.645 4.92 36.458 36.458 0 0 0-2.553 5.515 4.006 4.006 0 0 1-1.908-.65 12.448 12.448 0 0 1-1.925-1.404l-1.291 4.717a13.478 13.478 0 0 1 3.222 4.169 57.536 57.536 0 0 0-.912 7.283c-.957.347-2.549-.295-3.554-.875l-.016 5.645a11.37 11.37 0 0 1 3.53 3.195 83.361 83.361 0 0 0 .885 8.566 3.706 3.706 0 0 1-3.08.279l1.255 6.186a8.45 8.45 0 0 1 1.92.82 7.559 7.559 0 0 1 1.636 1.253 109.793 109.793 0 0 0 2.748 9.238 3.135 3.135 0 0 1-2.479 1.373l2.445 6.319a5.732 5.732 0 0 1 3.359.88 128.22 128.22 0 0 0 4.451 9.203 3.691 3.691 0 0 1-1.756 2.379l3.465 6.001a3.67 3.67 0 0 1 2.993-.288 127.11 127.11 0 0 0 5.806 8.444 5.33 5.33 0 0 1-.935 3.235l4.25 5.284a3.16 3.16 0 0 1 2.432-1.426q3.261 3.728 6.765 7.06a8.195 8.195 0 0 1-.046 3.922l4.742 4.206a3.712 3.712 0 0 1 1.763-2.487 84.432 84.432 0 0 0 7.156 5.137 11.433 11.433 0 0 1 .885 4.406l4.918 2.84c.004-1.13.238-2.766.983-3.441a55.614 55.614 0 0 0 6.996 2.895 13.875 13.875 0 0 1 1.817 4.627l4.75 1.274c-.256-1.272-.434-3.226.092-4.219a35.53 35.53 0 0 0 6.318.513 14.399 14.399 0 0 1 2.703 4.537l4.266-.367c-.526-1.369-1.147-3.586-.832-4.852a25.803 25.803 0 0 0 5.178-1.706 12.581 12.581 0 0 1 3.47 4.074l3.488-1.988c-.79-1.368-1.883-3.745-1.78-5.234a27.035 27.035 0 0 0 3.745-3.604 2.969 2.969 0 0 1 .953.378 12.81 12.81 0 0 1 3.06 2.832l2.473-3.472c-1.02-1.27-2.573-3.635-2.7-5.336a37.33 37.33 0 0 0 2.183-5.028 3.04 3.04 0 0 1 2.326.57 12.369 12.369 0 0 1 1.933 1.413l1.285-4.727c-1.217-1.08-3.23-3.314-3.542-5.22a56.802 56.802 0 0 0 .632-5.732c.694-1.18 2.89-.348 4.16.385Zm-56.918 3.013c-18.047-10.42-32.636-35.694-32.577-56.426.059-20.748 14.743-29.106 32.79-18.686s32.627 35.672 32.568 56.42c-.059 20.732-14.734 29.112-32.78 18.692Z" class="colord0d3f2 svgShape"></path><path fill="url(#E)" d="M587.35 416.982c-.058 20.732 14.531 46.007 32.578 56.426 14.046 8.11 26.046 4.828 30.706-6.797a32.404 32.404 0 0 1-11.678-4.26c-18.047-10.42-32.636-35.695-32.577-56.427a32.224 32.224 0 0 1 2.073-11.893c-12.293-1.686-21.056 6.936-21.101 22.951Z"></path><path d="M625.572 476.096a38.292 38.292 0 0 1-5.644-2.688c-18.047-10.42-32.636-35.694-32.577-56.426.059-20.748 14.743-29.106 32.79-18.686a49.5 49.5 0 0 1 5.431 3.663v-23.645l-.478-.338c-1.942-1.359-2.433-4.737-2.428-6.414l-4.918-2.84c-.005 1.677-.508 4.475-2.445 3.595 0 .007-2.885-1.27-4.363-1.825-1.637-1.103-2.641-4.17-2.982-5.848l-4.756-1.277c.335 1.641.529 4.405-.733 4.8a37.885 37.885 0 0 0-4.919-.505c-1.482-.856-2.844-3.54-3.461-5.126l-4.266.367c.612 1.57 1.335 4.269.63 5.343-1.607.33-3.14.807-4.953 1.23a12.494 12.494 0 0 1-3.488-4.086l-3.487 1.988c.813 1.408 1.951 3.897 1.769 5.379a26.402 26.402 0 0 0-3.826 3.445 3.125 3.125 0 0 1-.857-.357 12.883 12.883 0 0 1-3.07-2.843l-2.468 3.476a13.487 13.487 0 0 1 2.645 4.92 36.478 36.478 0 0 0-2.553 5.515 4.005 4.005 0 0 1-1.908-.65 12.444 12.444 0 0 1-1.925-1.404l-1.291 4.717a13.478 13.478 0 0 1 3.222 4.169 57.518 57.518 0 0 0-.912 7.283c-.957.347-2.549-.295-3.554-.875l-.016 5.645a11.37 11.37 0 0 1 3.53 3.195 83.361 83.361 0 0 0 .885 8.566 3.706 3.706 0 0 1-3.08.279l1.255 6.186a8.453 8.453 0 0 1 1.92.82 7.56 7.56 0 0 1 1.636 1.253 109.794 109.794 0 0 0 2.748 9.238 3.135 3.135 0 0 1-2.479 1.373l2.445 6.319a5.731 5.731 0 0 1 3.359.88 128.24 128.24 0 0 0 4.451 9.203 3.692 3.692 0 0 1-1.756 2.379l3.465 6.001a3.67 3.67 0 0 1 2.993-.288c1.828 2.9 3.771 5.728 5.806 8.444a5.33 5.33 0 0 1-.935 3.235l4.25 5.284a3.16 3.16 0 0 1 2.432-1.426q3.261 3.728 6.765 7.06a8.197 8.197 0 0 1-.046 3.922l4.742 4.206a3.712 3.712 0 0 1 1.763-2.487 84.409 84.409 0 0 0 7.156 5.137 11.434 11.434 0 0 1 .885 4.406l4.918 2.84c.004-1.13.238-2.766.983-3.441q.853.42 1.7.803Z" style="mix-blend-mode:multiply" fill="#f2f4f7" class="colorf2f2f7 svgShape"></path></g><g fill="#f4f6f8" class="color000000 svgShape"><path fill="#7a41aa" d="M608.327 511.62c0 4.1-2.907 5.777-6.458 3.728L384.987 390.13a14.318 14.318 0 0 1-6.456-11.182V215.363c0-4.101 2.903-5.778 6.456-3.728l216.882 125.217a14.326 14.326 0 0 1 6.458 11.183Z" class="color4141aa svgShape"></path><path fill="url(#F)" d="M606.743 334.038 389.86 208.821c-1.8-1.038-3.429-1.117-4.603-.413v-.004l-4.64 2.69.014.002a4.644 4.644 0 0 1 4.356.539l216.882 125.217a14.326 14.326 0 0 1 6.458 11.183V511.62c0 2.035-.719 3.473-1.873 4.155v.002l4.635-2.691-.013-.002c1.299-.615 2.123-2.1 2.123-4.277V345.22a14.328 14.328 0 0 0-6.456-11.183Z"></path><path fill="#ffffff" d="M601.869 505.326 384.987 380.109V219.09l216.882 125.217v161.019z" class="colorffffff svgShape"></path><path fill="#f2f4f7" d="M454.799 603.092a14.317 14.317 0 0 1-12.912 0L225.003 477.875c-3.55-2.05-3.55-5.404 0-7.455l147.83-85.35a14.326 14.326 0 0 1 12.913 0L602.629 510.29c3.552 2.05 3.552 5.402 0 7.454Z" class="colorf2f2f7 svgShape"></path><path fill="#dce8f4" d="m385.973 402.829-10.606-6.124 5.303-3.062 10.606 6.123-5.303 3.063zM403.837 413.144l-10.608-6.126 5.303-3.062 10.608 6.124-5.303 3.064zM421.7 423.455l-10.606-6.124 5.303-3.062 10.608 6.126-5.305 3.06zM439.562 433.77l-10.604-6.122 5.305-3.064 10.604 6.124-5.305 3.062zM457.428 444.083l-10.606-6.124 5.304-3.06 10.606 6.124-5.304 3.06zM475.293 454.398l-10.606-6.124 5.301-3.062 10.609 6.122-5.304 3.064zM493.156 464.713l-10.604-6.124 5.303-3.064 10.604 6.124-5.303 3.064zM511.022 475.024l-10.608-6.122 5.305-3.064 10.605 6.126-5.302 3.06zM528.885 485.339l-10.606-6.122 5.303-3.064 10.608 6.124-5.305 3.062zM546.749 495.652l-10.606-6.124 5.304-3.06 10.606 6.122-5.304 3.062zM564.614 505.967l-10.606-6.124 5.303-3.062 10.607 6.124-5.304 3.062zM582.479 516.282l-10.609-6.126 5.305-3.062 10.607 6.126-5.303 3.062zM376.571 418.028l-19.069-11.01 10.606-6.123 19.069 11.01-10.606 6.123zM366.706 432.103l-26.327-15.2 10.61-6.123 26.325 15.201-10.608 6.122zM356.099 446.607l-33.583-19.389 10.606-6.123 33.581 19.39-10.604 6.122zM319.967 450.708 300.898 439.7l14.36-8.292 19.069 11.009-14.36 8.291zM346.294 465.909l-19.069-11.01 14.358-8.292 19.071 11.01-14.36 8.292zM372.621 481.108l-19.069-11.009 14.36-8.291 19.069 11.01-14.36 8.29zM463.393 533.517l-19.068-11.013 14.359-8.288 19.072 11.01-14.363 8.291zM508.01 559.277l-37.402-21.597 14.36-8.289 37.402 21.594-14.36 8.292zM437.11 518.341l-57.23-33.043 14.358-8.289 57.234 33.043-14.362 8.289zM399.435 431.228l-15.606-9.009 10.604-6.124 15.608 9.009-10.606 6.124zM389.57 445.304l-15.608-9.01 10.608-6.126 15.606 9.01-10.606 6.126zM379.452 459.526l-15.607-9.009 10.608-6.124 15.606 9.011-10.607 6.122zM402.316 472.725l-15.607-9.01 10.606-6.124 15.607 9.011-10.606 6.123zM425.176 485.925l-15.604-9.01 10.606-6.122 15.606 9.009-10.608 6.123zM448.042 499.127l-15.606-9.01 10.605-6.126 15.605 9.012-10.604 6.124zM470.904 512.327l-15.605-9.011 10.606-6.124 15.605 9.011-10.606 6.124zM493.766 525.525l-15.604-9.009 10.606-6.126 15.606 9.011-10.608 6.124zM530.117 546.513l-29.093-16.799 10.606-6.122 29.093 16.797-10.606 6.124zM412.434 458.502l-15.606-9.008 10.607-6.124 15.605 9.01-10.606 6.122zM435.296 471.704l-15.606-9.011 10.608-6.124 15.606 9.011-10.608 6.124zM458.157 484.904l-15.605-9.009 10.608-6.126 15.606 9.011-10.609 6.124zM481.023 498.104l-15.607-9.009 10.608-6.126 15.605 9.01-10.606 6.125zM503.887 511.305l-15.608-9.012 10.609-6.124 15.606 9.011-10.607 6.125zM547.491 536.481l-36.348-20.987 10.607-6.125 36.351 20.987-10.61 6.125zM422.297 444.429l-15.606-9.01 10.608-6.124 15.604 9.011-10.606 6.123zM445.161 457.627l-15.606-9.009 10.606-6.123 15.606 9.008-10.606 6.124zM468.022 470.827l-15.603-9.009 10.604-6.121 15.607 9.008-10.608 6.122zM490.886 484.029l-15.606-9.011 10.606-6.124 15.606 9.011-10.606 6.124zM513.75 497.228l-15.606-9.01 10.605-6.122 15.608 9.008-10.607 6.124zM536.612 510.428l-15.605-9.01 10.606-6.122 15.607 9.009-10.608 6.123zM564.614 526.593l-20.743-11.975 10.606-6.124 20.743 11.977-10.606 6.122z" class="colordce1f4 svgShape"></path><path fill="#726ae2" d="m574.732 500.126-171.384-98.95 5.149-2.972 171.383 98.95-5.148 2.972z" class="color6a6ae2 svgShape"></path><path fill="#dce8f4" d="m437.107 531.128-87.455-50.495-54.345 31.376 87.455 50.493 54.345-31.374z" class="colordce1f4 svgShape"></path><path fill="url(#G)" d="m602.63 517.743-147.831 85.35a14.493 14.493 0 0 1-10.469 1c-.024-.006-2.118-.813-2.443-1L225.003 477.874a7.525 7.525 0 0 1-.685-.448l-.033-.024c-.057-.043-.106-.087-.16-.13a5.468 5.468 0 0 1-.358-.3c-.058-.051-.112-.105-.166-.157a4.994 4.994 0 0 1-.371-.406l-.044-.05-.026-.034a4.585 4.585 0 0 1-.336-.498 3.349 3.349 0 0 1-.472-1.551h-.012v3.126h.025c-.02 1.364.847 2.73 2.638 3.765l216.884 125.217c5.175 2.566 12.568 2.066 14.77 1.585 2.2-.483 4.178-1.034 6.486-1.538l139.486-80.53c1.796-1.04 2.681-2.408 2.658-3.776v-8.07c-.014 1.336-.9 2.67-2.658 3.687Z"></path></g><g data-name="Graph on screen" fill="#f4f6f8" class="color000000 svgShape"><path fill="url(#H)" d="M554.903 403.286c-10.317-5.185-12.143-28.094-22.764-33.378-10.07-5.01-17.772 33.4-28.127 27.422-9.932-5.736-9.757-33.273-19.901-39.13-7.573-4.372-8.629 8.212-16.237 3.819-9.51-5.49-12.89-45.633-21.345-50.513-8.03-4.638-9.298 9.716-14.793 6.544-7.82-4.514-3.382-31.085-13.661-37.02-10.552-5.957-9.36 19.52-14.837 16.186s-5.35-16.3-13.873-14.871v85.491L597.49 487.997V381.858c-11.04-6.071-32.27 26.614-42.587 21.428Z"></path><path fill="url(#g)" d="m457.026 406.664 2.536 1.463v-64.689l-2.536-1.464v64.69z"></path><path fill="#7a41aa" d="M461.987 344.638a7.869 7.869 0 0 0-3.559-6.166c-1.967-1.134-3.56-.215-3.56 2.055a7.866 7.866 0 0 0 3.56 6.166c1.966 1.135 3.559.215 3.559-2.055Z" class="color4141aa svgShape"></path><path fill="url(#I)" d="m553.635 462.198 2.537 1.464v-59.644l-2.537-1.463v59.643z"></path><path fill="#7a41aa" d="M558.462 404.867a7.869 7.869 0 0 0-3.558-6.166c-1.967-1.134-3.56-.215-3.56 2.055a7.866 7.866 0 0 0 3.56 6.166c1.965 1.136 3.558.215 3.558-2.055Z" class="color4141aa svgShape"></path><path fill="#d0e3f6" d="m395.602 377.395-4.885-2.821v-1.959l4.885 2.821v1.959zM403.88 382.174l-4.885-2.821v-1.958l4.885 2.82v1.959zM412.158 386.953l-4.885-2.82v-1.959l4.885 2.821v1.958zM420.436 391.732l-4.885-2.82v-1.959l4.885 2.821v1.958zM428.714 396.512l-4.885-2.821v-1.959l4.885 2.821v1.959zM436.992 401.291l-4.885-2.821v-1.958l4.885 2.82v1.959zM445.27 406.07l-4.885-2.82v-1.959l4.885 2.821v1.958zM453.548 410.85l-4.885-2.821v-1.959l4.885 2.821v1.959zM461.826 415.629l-4.885-2.821v-1.958l4.885 2.82v1.959zM470.104 420.408l-4.885-2.82v-1.959l4.885 2.82v1.959zM478.382 425.187l-4.886-2.82v-1.959l4.886 2.821v1.958zM486.66 429.967l-4.886-2.821v-1.959l4.886 2.821v1.959zM494.938 434.746l-4.886-2.821v-1.958l4.886 2.82v1.959zM503.216 439.525l-4.886-2.82v-1.959l4.886 2.821v1.958zM511.494 444.304l-4.886-2.82v-1.959l4.886 2.821v1.958zM519.772 449.084l-4.886-2.821v-1.959l4.886 2.821v1.959zM528.05 453.863l-4.886-2.821v-1.958l4.886 2.82v1.959zM536.327 458.642l-4.885-2.82v-1.959l4.885 2.821v1.958zM544.605 463.422l-4.885-2.821v-1.959l4.885 2.821v1.959zM552.883 468.201l-4.885-2.821v-1.958l4.885 2.82v1.959zM561.161 472.98l-4.885-2.82v-1.959l4.885 2.82v1.959zM569.439 477.759l-4.885-2.82v-1.959l4.885 2.821v1.958zM577.717 482.539l-4.885-2.821v-1.959l4.885 2.821v1.959zM585.995 487.318l-4.885-2.821v-1.958l4.885 2.82v1.959zM594.273 492.097l-4.885-2.82v-1.959l4.885 2.821v1.958z" class="colord0d4f6 svgShape"></path></g><g data-name="Front window" fill="#f4f6f8" class="color000000 svgShape"><path d="m442.59 286.438-64.06-36.984v132.068l52.517 30.32-6.547 7.292h20.367c1.723.015 2.918-1.34 2.918-3.696v-120a11.528 11.528 0 0 0-5.196-9Z" style="mix-blend-mode:multiply" fill="url(#J)"></path><path fill="#ffffff" d="M427.051 415.43c0 3.3-2.338 4.65-5.196 3l-143.301-82.735a11.528 11.528 0 0 1-5.196-9v-120c0-3.3 2.338-4.65 5.196-3l143.301 82.736a11.528 11.528 0 0 1 5.196 9Z" class="colorffffff svgShape"></path><path fill="#429af2" d="m421.855 286.43-143.301-82.734c-2.858-1.65-5.196-.3-5.196 3v5.75L427.05 301.18v-5.75a11.528 11.528 0 0 0-5.196-9Z" class="colorf2bd42 svgShape"></path><path fill="#ffffff" d="m278.716 207.302 4.09 2.362v4.723l-4.09-2.361v-4.724zM286.726 211.927l4.091 2.362v4.723l-4.091-2.361v-4.724zM294.737 216.552l4.09 2.362v4.723l-4.09-2.361v-4.724z" class="colorffffff svgShape"></path><path fill="#d0e3f6" d="m304.592 336.728-.866-.5V255.3l.866.5v80.928zM363.864 370.949l-.866-.5v-49.666l.866.5v49.666z" class="colord0d4f6 svgShape"></path><path fill="#726ae2" d="M362.275 333.47c-5.873-3.392-8.71-8.386-11.713-13.67-3.748-6.598-7.997-14.076-19.64-20.799-8.538-4.929-11.57-12.155-14.501-19.145-2.697-6.43-5.246-12.505-12.262-16.556-7.194-4.153-9.814 1.557-12.588 7.602-2.675 5.828-5.44 11.854-12.721 7.651v-2c6.128 3.538 8.555-1.749 11.123-7.347 2.738-5.964 5.84-12.724 14.186-7.906 7.965 4.599 10.892 11.576 13.721 18.322 2.804 6.684 5.453 12.998 13.041 17.38 12.373 7.143 17.09 15.445 20.88 22.116 3.005 5.288 5.348 9.423 10.625 12.437 9.421 5.339 15.06-.398 21.59-7.041 8.306-8.452 17.722-18.032 37.618-6.545v2c-19.012-10.976-28.152-1.677-36.216 6.528-6.52 6.635-12.68 12.902-22.976 7.068a32.441 32.441 0 0 1-.167-.095Z" class="color6a6ae2 svgShape"></path><path fill="#867ff4" d="M295.697 235.451v9.918l6.082 3.511 2.38 4.123 2.381-1.374 6.082 3.511v-9.917l-16.925-9.772zM354.969 300.933v9.917l6.081 3.512 2.381 4.123 2.381-1.374 6.081 3.511v-9.918l-16.924-9.771z" class="color7f7ff4 svgShape"></path><path fill="#7a41aa" d="m300.824 243.178 6.671 3.852v1.39l-6.671-3.851v-1.391z" class="color4141aa svgShape"></path><path fill="#ffffff" d="m360.095 308.374 6.672 3.852v1.39l-6.672-3.851v-1.391z" class="colorffffff svgShape"></path><path fill="#e1eaf4" d="m287.596 333.165-5.51-3.181v-1.75l5.51 3.181v1.75zM297.652 338.971l-5.51-3.181v-1.75l5.51 3.181v1.75zM307.707 344.777l-5.509-3.181v-1.75l5.509 3.181v1.75zM317.763 350.582l-5.509-3.18v-1.75l5.509 3.18v1.75zM327.819 356.388l-5.509-3.181v-1.75l5.509 3.181v1.75zM337.875 362.194l-5.509-3.181v-1.75l5.509 3.181v1.75zM347.931 368l-5.509-3.181v-1.75l5.509 3.181V368zM357.987 373.806l-5.509-3.181v-1.75l5.509 3.181v1.75zM368.043 379.611l-5.509-3.18v-1.75l5.509 3.18v1.75zM378.099 385.417l-5.509-3.181v-1.75l5.509 3.181v1.75zM388.155 391.223l-5.51-3.181v-1.75l5.51 3.181v1.75zM398.211 397.029l-5.51-3.181v-1.75l5.51 3.181v1.75zM408.267 402.835l-5.51-3.181v-1.75l5.51 3.181v1.75zM418.323 408.64l-5.51-3.18v-1.75l5.51 3.18v1.75z" class="colore1e5f4 svgShape"></path><path fill="url(#K)" d="m426.185 283.93-143.301-82.734a3.659 3.659 0 0 0-3.643-.37l-.011.006-.03.017-4.29 2.477h.001a3.659 3.659 0 0 1 3.643.37l143.3 82.735a11.528 11.528 0 0 1 5.197 9V415.43a3.717 3.717 0 0 1-1.41 3.275l4.015-2.318-.004-.005c1.058-.49 1.73-1.69 1.73-3.452v-120a11.528 11.528 0 0 0-5.197-9Z"></path></g><g data-name="Cylinder graph" fill="#f4f6f8" class="color000000 svgShape"><path fill="url(#L)" d="M307.012 336.689V392.8c0 1.935 1.28 3.87 3.837 5.349 5.116 2.955 13.412 2.955 18.532 0 2.557-1.479 3.836-3.414 3.836-5.349V336.69Z"></path><path fill="#5ca9f7" d="M310.849 331.338c5.116-2.955 13.412-2.955 18.532 0 2.557 1.477 3.836 3.414 3.836 5.35 0 1.936-1.279 3.87-3.836 5.349-5.12 2.955-13.416 2.955-18.532 0-2.557-1.478-3.837-3.413-3.837-5.348 0-1.937 1.28-3.874 3.837-5.35Z" class="colorf7d25c svgShape"></path><path fill="url(#M)" d="M274.468 376.496v35.095c0 1.935 1.28 3.87 3.836 5.348 5.116 2.955 13.412 2.955 18.532 0 2.557-1.478 3.837-3.413 3.837-5.348v-35.095Z"></path><path fill="#eaf0f7" d="M278.304 371.146c5.116-2.956 13.412-2.956 18.532 0 2.557 1.476 3.837 3.413 3.837 5.35 0 1.935-1.28 3.87-3.837 5.348-5.12 2.955-13.416 2.955-18.532 0-2.557-1.478-3.836-3.413-3.836-5.348 0-1.937 1.28-3.874 3.836-5.35Z" class="coloreaedf7 svgShape"></path><path fill="url(#N)" d="M241.923 412.202v18.178c0 1.935 1.28 3.87 3.837 5.349 5.116 2.955 13.411 2.955 18.531 0 2.558-1.479 3.837-3.414 3.837-5.349v-18.178Z"></path><path fill="#867ff4" d="M245.76 406.852c5.116-2.955 13.411-2.955 18.531 0 2.558 1.476 3.837 3.413 3.837 5.35 0 1.935-1.28 3.87-3.837 5.348-5.12 2.955-13.415 2.955-18.531 0-2.558-1.478-3.837-3.413-3.837-5.348 0-1.937 1.28-3.874 3.837-5.35Z" class="color7f7ff4 svgShape"></path></g><g data-name="Bar graph" fill="#f4f6f8" class="color000000 svgShape"><path style="mix-blend-mode:multiply" fill="url(#O)" d="M638.669 600.656h-59.915l20.404 11.779-20.404 11.782h59.915l20.404-11.782-20.404-11.779z"></path><path style="mix-blend-mode:multiply" fill="url(#P)" d="M608.796 615.842h-56.473l20.403 11.78-20.403 11.779h56.473l20.402-11.779-20.402-11.78z"></path><path style="mix-blend-mode:multiply" fill="url(#Q)" d="M576.245 631.027h-50.354l20.404 11.781-20.404 11.78h50.354l20.402-11.78-20.402-11.781z"></path><path style="mix-blend-mode:multiply" fill="url(#R)" d="M665.1 585.469h-59.915l20.404 11.779-20.404 11.782H665.1l20.404-11.782-20.404-11.779z"></path><path fill="#d0e1f2" d="m584.78 540.524 20.404 11.779v56.724l-20.404-11.78v-56.723z" class="colord0d3f2 svgShape"></path><path fill="#bdcee0" d="m625.586 540.524-20.402 11.779v56.724l20.402-11.78v-56.723z" class="colorbdc0e0 svgShape"></path><path fill="#f6f8fb" d="m605.184 528.744-20.404 11.78 20.404 11.779 20.402-11.779-20.402-11.78z" class="colorf6f6fb svgShape"></path><path fill="#429af2" d="m584.78 540.524 20.403 11.78v22.92l-20.403-11.78v-22.92z" class="colorf2bd42 svgShape"></path><path fill="#d62db7" d="m625.586 540.524-20.403 11.78v22.92l20.403-11.78v-22.92z" class="colord6952d svgShape"></path><path fill="#5ca9f7" d="m605.183 528.743-20.403 11.781 20.403 11.78 20.403-11.78-20.403-11.781z" class="colorf7d25c svgShape"></path><path fill="#d0e1f2" d="m558.349 566.032 20.404 11.779v46.403l-20.404-11.78v-46.402z" class="colord0d3f2 svgShape"></path><path fill="#bdcee0" d="m599.155 566.032-20.402 11.779v46.403l20.402-11.78v-46.402z" class="colorbdc0e0 svgShape"></path><path fill="#f6f8fb" d="m578.753 554.253-20.404 11.779 20.404 11.779 20.402-11.779-20.402-11.779z" class="colorf6f6fb svgShape"></path><path fill="#429af2" d="m558.35 566.031 20.403 11.78v12.761l-20.403-11.78v-12.761z" class="colorf2bd42 svgShape"></path><path fill="#d62db7" d="m599.157 566.031-20.404 11.78v12.761l20.404-11.78v-12.761z" class="colord6952d svgShape"></path><path fill="#5ca9f7" d="m578.753 554.251-20.403 11.78 20.403 11.78 20.404-11.78-20.404-11.78z" class="colorf7d25c svgShape"></path><path fill="#5c55c4" d="m531.918 554.116 20.404 11.78v73.505l-20.404-11.78v-73.505z" class="color5555c4 svgShape"></path><path fill="#6822a2" d="m572.726 554.233-20.404 11.779v73.389l20.404-11.78v-73.388z" class="color4141a8 svgShape"></path><path fill="#716ae0" d="m552.322 542.57-20.404 11.78 20.404 11.78 20.404-11.78-20.404-11.78z" class="color6a6ae0 svgShape"></path><path fill="#d0e1f2" d="m505.488 618.267 20.403 11.78v24.541l-20.403-11.78v-24.541z" class="colord0d3f2 svgShape"></path><path fill="#bdcee0" d="m546.295 618.267-20.404 11.78v24.541l20.404-11.78v-24.541z" class="colorbdc0e0 svgShape"></path><path fill="#f6f8fb" d="m525.891 606.486-20.403 11.781 20.403 11.78 20.404-11.78-20.404-11.781z" class="colorf6f6fb svgShape"></path></g><g fill="#f4f6f8" class="color000000 svgShape"><path fill="#5ca9f7" d="M512.77 209.814c0-10.575-7.427-23.44-16.586-28.73-9.162-5.288-16.59-1-16.59 9.578 0 10.58 7.428 23.442 16.588 28.732 9.16 5.288 16.587 1 16.587-9.58Z" class="colorf7d25c svgShape"></path><path fill="#69b4ff" d="M473.594 188.831c0 13.501 9.48 29.922 21.176 36.673 11.69 6.75 21.17 1.279 21.17-12.223 0-13.503-9.48-29.923-21.17-36.674-11.696-6.752-21.176-1.277-21.176 12.224Zm4.586 2.649c0-10.58 7.425-14.867 16.59-9.58 9.158 5.29 16.583 18.154 16.583 28.733 0 10.577-7.426 14.867-16.583 9.575-9.165-5.286-16.59-18.151-16.59-28.728Z" class="colorffe669 svgShape"></path><path fill="url(#i)" d="M483.771 180.372c-2.599 1.882-4.178 5.416-4.178 10.29 0 10.58 7.43 23.442 16.589 28.732 4.22 2.435 8.07 2.835 10.995 1.529-3.039 2.202-7.47 2.139-12.407-.715-9.165-5.286-16.59-18.151-16.59-28.728 0-5.708 2.163-9.58 5.591-11.108Z"></path><path fill="url(#S)" d="M486.85 171.067c3.857-2.43 9.285-2.2 15.303 1.275 11.693 6.751 21.171 23.17 21.171 36.673 0 6.85-2.441 11.628-6.37 13.798h.003l-6.746 3.87c3.552-2.321 5.729-6.94 5.729-13.402 0-13.503-9.48-29.923-21.17-36.674-5.723-3.305-10.91-3.672-14.724-1.616l6.805-3.928Z"></path><path fill="#d62db7" d="M493.346 188.357v-.977a3.068 3.068 0 0 0-1.593.526l.015-.04-1.364.78.02.02a3.442 3.442 0 0 1 2.922-.31Z" class="colord6952d svgShape"></path><path fill="url(#T)" d="M496.187 198.704a6.948 6.948 0 0 1-3.141-5.44 2.807 2.807 0 0 1 .336-1.408c-1.034-.004-1.753.803-1.752 2.226a6.935 6.935 0 0 0 3.143 5.44 13.265 13.265 0 0 1 5.99 10.378c0 2.022-.756 3.404-1.96 3.971l1.548-.884v-.02c1.12-.609 1.83-1.944 1.83-3.885a13.266 13.266 0 0 0-5.994-10.378Z"></path><path fill="#d62db7" d="m496.195 216.37 1.417-.818v-1.418a4.111 4.111 0 0 1-1.417-.16Z" class="colord6952d svgShape"></path><path fill="#429af2" d="m494.761 184.945-1.415.819 2.849 1.644 1.417-.818-2.851-1.645z" class="colorf2bd42 svgShape"></path><path fill="#d62db7" d="m497.612 186.59-1.417.818-.001 2.595 1.417-.819.001-2.594z" class="colord6952d svgShape"></path><path fill="url(#U)" d="m497.61 189.184-1.416.82a13.466 13.466 0 0 1 4.57 9.35l1.417-.818a13.484 13.484 0 0 0-4.57-9.352Z"></path><path fill="#429af2" d="m490.196 202.163-1.416.819 2.85 1.644 1.416-.818-2.85-1.645z" class="colorf2bd42 svgShape"></path><path fill="url(#V)" d="M496.187 209.25a6.947 6.947 0 0 1-3.141-5.442l-1.416.818a6.953 6.953 0 0 0 3.143 5.443c1.23.71 2.29.491 2.802-.407a2.768 2.768 0 0 1-1.388-.413Z"></path><path fill="#69b4ff" d="M494.773 199.521a6.935 6.935 0 0 1-3.143-5.44c0-2.002 1.41-2.813 3.143-1.815a6.955 6.955 0 0 1 3.14 5.443l2.85 1.645a13.466 13.466 0 0 0-4.569-9.35l.001-2.596-2.849-1.644v2.593c-2.616-.768-4.566.83-4.566 4.08a13.237 13.237 0 0 0 5.993 10.376 6.95 6.95 0 0 1 3.14 5.44c0 2-1.408 2.815-3.14 1.816a6.953 6.953 0 0 1-3.143-5.443l-2.85-1.644a13.467 13.467 0 0 0 4.566 9.347v2.396l2.85 1.645v-2.396c2.617.77 4.567-.827 4.567-4.074a13.265 13.265 0 0 0-5.99-10.379Z" class="colorffe669 svgShape"></path></g><g data-name="Flat bar graph" fill="#f4f6f8" class="color000000 svgShape"><path fill="#dce8f4" d="m304.531 683.207 77.438-44.709-7.582-4.377-77.437 44.709 7.581 4.377zM292.799 676.433l111.24-64.224-7.582-4.377-111.239 64.224 7.581 4.377zM281.067 669.66l122.972-70.997-7.582-4.377-122.971 70.997 7.581 4.377zM269.336 662.887l109.059-62.966-7.582-4.377-109.059 62.966 7.582 4.377zM257.604 656.113l65.705-37.935-7.581-4.377-65.706 37.935 7.582 4.377zM245.872 649.34l47.16-27.228-7.581-4.377-47.161 27.228 7.582 4.377zM234.14 642.566l58.892-34.001-7.581-4.377-58.892 34.001 7.581 4.377zM222.408 635.793l65.135-37.606-7.581-4.377-65.135 37.606 7.581 4.377zM210.676 629.019l86.556-49.973-7.581-4.377-86.556 49.973 7.581 4.377z" class="colordce1f4 svgShape"></path><path fill="#5ca9f7" d="m198.944 622.246 102.976-59.453-7.581-4.377-102.976 59.453 7.581 4.377zM187.212 615.473l91.245-52.68-7.582-4.377-91.244 52.68 7.581 4.377zM175.48 608.699l56.869-32.833-7.582-4.377-56.868 32.833 7.581 4.377z" class="colorf7d25c svgShape"></path><path fill="#dce8f4" d="m163.748 601.926 75.848-43.791-7.582-4.377-75.847 43.791 7.581 4.377zM152.016 595.152l65.706-37.935-7.582-4.377-65.705 37.935 7.581 4.377z" class="colordce1f4 svgShape"></path></g><g fill="#f4f6f8" class="color000000 svgShape"><path d="M304.503 548.366c-15.803-9.126-37.309-12.937-57.893-11.46 14.845 1.066 29.213 4.878 40.612 11.46 27.202 15.705 27.2 41.168 0 56.873-11.4 6.582-25.769 10.394-40.617 11.46 20.584 1.477 42.093-2.336 57.898-11.46 27.201-15.705 27.203-41.168 0-56.873Z" style="mix-blend-mode:multiply" fill="url(#j)"></path><path d="M210.316 548.366c11.398-6.582 25.766-10.394 40.614-11.46-20.586-1.477-42.093 2.335-57.897 11.46-27.204 15.705-27.204 41.168 0 56.873 15.804 9.125 37.31 12.937 57.894 11.46-14.847-1.066-29.213-4.878-40.611-11.46-27.205-15.705-27.205-41.168 0-56.873Z" style="mix-blend-mode:multiply" fill="url(#W)"></path><path fill="#9f9aa3" d="M291.292 548.437c-27.336-15.782-71.66-15.782-98.996 0-27.338 15.785-27.336 41.373 0 57.156 27.337 15.784 71.66 15.784 98.994.001 27.337-15.784 27.34-41.372.002-57.157Zm-8.169 52.44c-22.826 13.18-59.834 13.18-82.659 0-22.826-13.177-22.827-34.545-.002-47.724 22.827-13.176 59.836-13.176 82.662 0 22.826 13.179 22.825 34.547 0 47.725Z" class="colora29aa3 svgShape"></path><path fill="#623389" d="M200.462 537.074c22.827-13.178 59.836-13.178 82.662 0 14.983 8.65 20.13 20.827 15.444 31.902-2.453-5.799-7.601-11.294-15.444-15.823-22.826-13.176-59.835-13.176-82.662 0-7.843 4.529-12.99 10.024-15.443 15.823-4.686-11.075.462-23.252 15.443-31.902Z" class="color333389 svgShape"></path><path d="M283.246 542.087c-22.82-13.176-59.825-13.177-82.648 0-22.823 13.177-22.822 34.541 0 47.718 22.824 13.176 59.826 13.177 82.648 0 22.824-13.177 22.824-34.541 0-47.718Z" style="mix-blend-mode:screen" fill="#6b686d" class="color686a6d svgShape"></path><path d="M206.47 544.445c4.973-3.166 13.242-3.524 18.47-.8 5.229 2.725 5.434 7.5.462 10.664-4.974 3.165-13.242 3.523-18.471.8-5.227-2.724-5.434-7.5-.461-10.664ZM231.534 538.642a8.463 8.463 0 0 1 7.646-.329c2.164 1.127 2.248 3.103.191 4.414a8.46 8.46 0 0 1-7.647.33c-2.165-1.126-2.25-3.104-.19-4.415Z" style="mix-blend-mode:screen" fill="#9f9aa3" class="colora29aa3 svgShape"></path><path fill="#f6f8fb" d="M283.246 544.475c-22.82-13.176-59.825-13.177-82.648 0-10.886 6.285-16.566 14.432-17.068 22.664-.549-9.028 5.13-18.16 17.068-25.052 22.823-13.177 59.827-13.176 82.648 0 11.94 6.893 17.62 16.024 17.07 25.052-.503-8.232-6.183-16.379-17.07-22.664Z" class="colorf6f6fb svgShape"></path><path fill="#d0e1f2" d="M291.292 532.358c-27.336-15.783-71.66-15.783-98.996 0-27.338 15.784-27.336 41.373 0 57.155 27.337 15.784 71.66 15.784 98.994.001 27.337-15.783 27.34-41.372.002-57.156Zm-8.169 52.44c-22.826 13.18-59.834 13.18-82.659 0-22.826-13.178-22.827-34.545-.002-47.724 22.827-13.178 59.836-13.178 82.662 0 22.826 13.179 22.825 34.546 0 47.725Z" class="colord0d3f2 svgShape"></path><path fill="url(#X)" d="M192.297 589.513c27.336 15.784 71.658 15.784 98.993.001 13.492-7.79 20.313-17.967 20.487-28.177v15.28h-.003c.18 10.476-6.64 20.983-20.484 28.977-27.335 15.783-71.657 15.783-98.993-.001-13.845-7.993-20.664-18.5-20.484-28.976v-15.21c.204 10.186 7.023 20.334 20.484 28.106Z"></path><path fill="#f6f8fb" d="M291.29 591.663q2.586-1.494 4.842-3.097l11.773 6.798-10.202 5.891-11.774-6.8q2.773-1.301 5.36-2.792Z" class="colorf6f6fb svgShape"></path><path fill="#d0e1f2" d="m297.703 613.036-11.774-6.798v-11.783l11.774 6.8v11.781z" class="colord0d3f2 svgShape"></path><path fill="url(#k)" d="M293.271 609.705c0-6.081 4.268-13.474 9.533-16.514 2.739-1.58 5.198-1.661 6.938-.531l.005-.01 67.867 39.184-12.974 23.559-67.867-39.185c-2.136-.786-3.502-3.065-3.502-6.503Z"></path><path d="M302.024 619.228h-.001l3.319 1.917c-1.44-1.098-2.32-3.089-2.32-5.833 0-6.081 4.27-13.473 9.534-16.513 2.738-1.58 5.2-1.662 6.938-.532l-4.497-2.597-.005.01c-1.738-1.13-4.2-1.05-6.938.53-5.265 3.042-9.533 10.433-9.533 16.515 0 3.438 1.366 5.717 3.503 6.503Z" style="mix-blend-mode:multiply" fill="url(#Y)"></path><path fill="url(#Z)" d="M363.067 654.485a13.456 13.456 0 1 0 14.069-22.903c-1.701-.835-3.965-.65-6.465.794-5.265 3.04-9.534 10.433-9.534 16.515 0 2.645.808 4.603 2.156 5.725Z"></path><path d="m364.634 655.39.006.002v.001l-.006-.003z" fill="#f4f6f8" class="color000000 svgShape"></path></g><g data-name="Speech bubbles" fill="#f4f6f8" class="color000000 svgShape"><path d="m535.062 676.245-25.443-14.69v-7.537h-13.056l-25.443-14.69a10.45 10.45 0 0 0-9.456 0l-38.687 22.337c-2.611 1.507-2.611 3.951 0 5.459l63.942 36.917a8.227 8.227 0 0 0 2.304.863l-.89.267h3.5v-.01a9.572 9.572 0 0 0 4.542-1.12l38.687-22.336c2.611-1.508 2.611-3.952 0-5.46Z" style="mix-blend-mode:multiply" fill="url(#aa)"></path><path fill="#867ff4" d="M506.475 659.292v-7.538h-13.056l-25.443-14.69a10.45 10.45 0 0 0-9.456 0l-38.687 22.337c-2.612 1.507-2.612 3.952 0 5.46l63.942 36.916a10.45 10.45 0 0 0 9.456 0l38.687-22.336c2.611-1.507 2.611-3.952 0-5.46Z" class="color7f7ff4 svgShape"></path><path fill="#ffffff" d="m457.344 658.453 3.889 2.245-2.272 1.312-3.889-2.245-4.43 2.558-2.415-1.394 4.43-2.558-3.907-2.257 2.271-1.311 3.908 2.256 4.144-2.392 2.414 1.394ZM461.651 670.404l-2.475-1.43 11.968-6.909-4.898-1.39 2.087-1.205 7.95 2.12.317.183ZM474.881 669.512l8.319-3.87 8.001 4.62-2.149 1.241-5.934-3.426-3.97 1.82a8.375 8.375 0 0 1 2.926 1.003q2.129 1.229 1.95 2.697-.18 1.468-2.482 2.797a9.841 9.841 0 0 1-4.926 1.332 9.552 9.552 0 0 1-4.938-1.297 3.86 3.86 0 0 1-2.23-2.628q-.185-1.447 1.607-2.611l2.404 1.388q-.94.709-.885 1.408.056.7 1.08 1.291a4.46 4.46 0 0 0 2.603.559 6.64 6.64 0 0 0 2.87-.919q1.36-.786 1.448-1.65.087-.866-1.15-1.581a5.35 5.35 0 0 0-1.326-.558 7.604 7.604 0 0 0-1.724-.186ZM490.67 673.263a6.034 6.034 0 0 1 3.084-.777 6.205 6.205 0 0 1 3.146.819q1.433.827 1.433 1.825 0 .999-1.402 1.808l-.737.425a5.99 5.99 0 0 1-3.064.77 6.178 6.178 0 0 1-3.136-.817q-1.381-.798-1.432-1.802-.052-1.004 1.381-1.831Zm.955 1.457q-.708.409-.75.888-.041.479.603.851a2.687 2.687 0 0 0 1.458.34 3.332 3.332 0 0 0 1.574-.46l.75-.433c.472-.272.722-.569.754-.89q.047-.483-.597-.855a2.658 2.658 0 0 0-1.475-.336 3.371 3.371 0 0 0-1.559.457Zm-8.19 6.973-.541-1.164 18.918-2.522.543 1.164Zm6.016.543a5.937 5.937 0 0 1 3.11-.767 6.304 6.304 0 0 1 3.122.82q1.392.804 1.427 1.806.036 1-1.407 1.834l-.727.42a6.035 6.035 0 0 1-3.048.773 6.15 6.15 0 0 1-3.152-.821q-1.432-.827-1.453-1.825-.02-1 1.382-1.808Zm.953 1.46q-.697.402-.737.892-.04.49.593.856a2.656 2.656 0 0 0 1.453.349 3.358 3.358 0 0 0 1.566-.473l.767-.442c.478-.276.726-.574.747-.893q.03-.479-.594-.838a2.718 2.718 0 0 0-1.458-.346 3.282 3.282 0 0 0-1.58.457Z" class="colorffffff svgShape"></path><path fill="url(#l)" d="M533.876 676.71v-.059h-.005c0 .02.005.04.005.06Z"></path><path fill="url(#ab)" d="m531.918 679.441-38.687 22.336a10.45 10.45 0 0 1-9.456 0l-63.942-36.917a3.3 3.3 0 0 1-1.956-2.763h-.003v2.378l.007.001a3.364 3.364 0 0 0 1.952 2.648l63.942 36.917a10.45 10.45 0 0 0 9.456 0l38.687-22.336a3.35 3.35 0 0 0 1.954-2.676l.004.001v-2.318a3.323 3.323 0 0 1-1.958 2.73Z"></path><path fill="#d0e3f6" d="m408.933 207.024 4.884 8.46 4.884-2.82 19.036 10.99c1.953 1.128 3.537.214 3.537-2.042v-33.423a7.819 7.819 0 0 0-3.537-6.127l-47.84-27.62c-1.954-1.128-3.537-.214-3.537 2.042v33.423a7.819 7.819 0 0 0 3.537 6.127Z" class="colord0d4f6 svgShape"></path><path fill="#ffffff" d="m397.993 186.945-1.852-1.07v-10.339l-2.733-.502v-1.803l4.348.662.237.137ZM402.25 192.301l-1.004-1.268a3.407 3.407 0 0 0 .61-1.05 3.727 3.727 0 0 0 .171-1.116v-1.67l1.676.967-.007 1.543a3.335 3.335 0 0 1-.41 1.642 2.037 2.037 0 0 1-1.037.952ZM412.806 195.497l-7.494-4.327v-1.476l3.712-2.532a4.62 4.62 0 0 0 1.145-1.068 2.062 2.062 0 0 0 .34-1.195 3.606 3.606 0 0 0-.447-1.744 3.162 3.162 0 0 0-1.206-1.262q-.904-.522-1.401-.172a1.693 1.693 0 0 0-.497 1.454l-1.86-1.074a3.226 3.226 0 0 1 .463-1.85 1.57 1.57 0 0 1 1.324-.698 3.873 3.873 0 0 1 1.986.625 7.262 7.262 0 0 1 2.56 2.42 5.787 5.787 0 0 1 .939 3.144 3.332 3.332 0 0 1-.471 1.749 5.038 5.038 0 0 1-1.543 1.51l-2.725 1.793 5.175 2.988ZM417.032 193.835l-.827.504v3.12l-1.86-1.074v-13.577l1.86 1.074v7.832l.582-.504 2.288-1.657 2.236 1.29-3.078 2.21 3.407 7.544-2.151-1.242ZM431.744 203.072a2.969 2.969 0 0 0-.413-1.48 8.153 8.153 0 0 0-1.378-1.68q-.964-.95-1.5-1.595a6.708 6.708 0 0 1-1.784-4.3 1.815 1.815 0 0 1 2.871-1.88v-1.926l1.225.707v1.944a6.697 6.697 0 0 1 2.059 2.493 7.332 7.332 0 0 1 .728 3.236l-1.853-1.07a4.527 4.527 0 0 0-.433-2.004 2.958 2.958 0 0 0-1.175-1.32q-.735-.423-1.148-.202-.414.22-.414 1.077a2.87 2.87 0 0 0 .41 1.47 8.993 8.993 0 0 0 1.39 1.682q.98.981 1.538 1.657a9.425 9.425 0 0 1 .942 1.352 6.527 6.527 0 0 1 .59 1.389 5.393 5.393 0 0 1 .206 1.506 2.104 2.104 0 0 1-.793 1.965 2.384 2.384 0 0 1-2.208-.178v1.723l-1.217-.703v-1.715a7.454 7.454 0 0 1-2.331-2.6 6.88 6.88 0 0 1-.815-3.283l1.86 1.074a4.117 4.117 0 0 0 .486 2.005 3.566 3.566 0 0 0 1.374 1.403q.873.504 1.328.281.455-.223.455-1.028Z" class="colorffffff svgShape"></path><path fill="url(#ac)" d="m440.768 180.312-47.84-27.62a2.5 2.5 0 0 0-2.465-.261l-.002-.003-.016.01-.033.018-2.982 1.722.002.003a2.5 2.5 0 0 1 2.465.26l47.84 27.621a7.819 7.819 0 0 1 3.537 6.127v33.423a2.517 2.517 0 0 1-.974 2.238l.004.006 2.927-1.69.07-.04.034-.02-.004-.005a2.517 2.517 0 0 0 .974-2.24V186.44a7.819 7.819 0 0 0-3.537-6.127Z"></path></g><g data-name="Little gear" fill="#f4f6f8" class="color000000 svgShape"><path fill="#5c55be" d="M140.435 401.024c1.47.854 1.825 4.517 1.83 6.25l-11.039-6.415c-.004-1.733-.36-5.396-1.83-6.25Z" class="color5557be svgShape"></path><path fill="#867feb" d="m157.446 355.445 11.038 6.415c-1.515.875-4.902 2.43-6.374 1.574l-11.04-6.414c1.474.856 4.86-.7 6.376-1.575Z" class="color7f80eb svgShape"></path><path fill="url(#ad)" d="M133.858 383.08c5.25-3.032 9.486-10.37 9.47-16.402-.01-2.994-1.067-5.102-2.772-6.093L151.595 367c1.705.99 2.762 3.099 2.771 6.094.017 6.032-4.22 13.37-9.469 16.4-2.638 1.523-5.029 1.665-6.754.662l-11.04-6.415c1.727 1.003 4.117.862 6.755-.662Z"></path><path fill="#5c55be" d="m121.235 389.139.018 6.16-11.038-6.415-.018-6.16 11.038 6.415z" class="color5557be svgShape"></path><path fill="#867feb" d="m136.434 343.471 11.039 6.415-5.362 3.095-11.038-6.415 5.361-3.095zM117.187 375.35c.253-1.028.562-2.063.915-3.091 1.233-3.136-1.551-5.573-2.872-6.34l11.038 6.414c1.321.768 4.105 3.205 2.873 6.34a36.08 36.08 0 0 0-.915 3.093c-.615 3.11-5.163 6.318-6.99 7.373l-11.04-6.415c1.829-1.055 6.377-4.263 6.991-7.373Z" class="color7f80eb svgShape"></path><path fill="url(#ae)" d="M124.762 359.686a4.287 4.287 0 0 0 1.209-1.057 38.16 38.16 0 0 1 2.219-2.342c2.398-2.1 2.889-7.62 2.883-9.72l11.038 6.414c.006 2.1-.485 7.62-2.883 9.72a38.238 38.238 0 0 0-2.219 2.344 4.28 4.28 0 0 1-1.208 1.056c-2.058 1.188-4.628.208-5.806-.338l-11.039-6.415c1.179.546 3.748 1.526 5.806.338Z"></path><path fill="#eaf0f7" d="M129.191 396.618c1.263 1.726-1.587 7.489-2.87 9.714l3.795 2.176c1.067-1.848 3.69-5.827 5.776-7.031a2.102 2.102 0 0 1 1.22-.346 12.194 12.194 0 0 0 2.23-.226c2.397-.668 2.918 4.269 2.924 6.368l5.36-3.094c-.006-2.1.487-7.078 2.877-9.718a36.406 36.406 0 0 0 2.225-2.346 4.312 4.312 0 0 1 1.218-1.062c2.085-1.203 4.723-.262 5.791.353l3.776-6.548c-1.292-.737-4.165-3.196-2.917-6.372q.53-1.543.916-3.092c.614-3.11 5.162-6.318 6.99-7.374l-.018-6.16c-1.827 1.055-6.378 3.101-7.009.709a12.536 12.536 0 0 0-.929-2.027c-1.263-1.727 1.398-7.38 2.871-9.714l-3.8-2.167c-1.063 1.84-3.686 5.818-5.77 7.021a2.102 2.102 0 0 1-1.221.346 12.774 12.774 0 0 0-2.231.227c-2.397.667-2.917-4.269-2.922-6.37l-5.362 3.096c.006 2.1-.485 7.62-2.883 9.72a38.238 38.238 0 0 0-2.219 2.344 4.28 4.28 0 0 1-1.208 1.056c-2.058 1.188-4.628.208-5.806-.338l-3.777 6.542c1.299.733 4.171 3.192 2.923 6.368a36.08 36.08 0 0 0-.915 3.093c-.615 3.11-5.163 6.318-6.99 7.373l.017 6.16c1.828-1.055 6.38-3.1 7.01-.709a11.82 11.82 0 0 0 .928 2.028Zm6.18-12.558c-.017-6.026 4.22-13.37 9.464-16.398 5.25-3.03 9.514-.595 9.531 5.432.017 6.032-4.22 13.37-9.469 16.4-5.244 3.028-9.509.598-9.526-5.434Z" class="coloreaedf7 svgShape"></path><path fill="#867feb" d="M121.253 395.3c1.828-1.056 6.38-3.102 7.01-.71a11.82 11.82 0 0 0 .928 2.028c1.263 1.726-1.587 7.489-2.87 9.714l-11.04-6.415a32.132 32.132 0 0 0 2.846-6.434Z" class="color7f80eb svgShape"></path><path fill="#5c55be" d="m118.956 359.348 11.039 6.415-3.777 6.542-11.039-6.416 3.777-6.541zM148.578 342.246l11.038 6.415c-1.062 1.84-3.685 5.818-5.77 7.021a2.102 2.102 0 0 1-1.22.346 12.727 12.727 0 0 0-2.231.227c-2.397.667-2.917-4.269-2.922-6.37l-3.172-1.842a31.556 31.556 0 0 0 4.277-5.797Z" class="color5557be svgShape"></path></g><g data-name="Pie chart" fill="#f4f6f8" class="color000000 svgShape"><path fill="#867ff2" d="M215.99 256.06v42.34l-36.668 21.172c0-23.384 16.417-51.82 36.668-63.512Z" class="color7f7ff2 svgShape"></path><path fill="url(#af)" d="m209.067 252.063 25.068 14.473-35.922 63.942-25.814-14.903c0-23.385 16.417-51.82 36.668-63.512Z"></path><path fill="#d62db7" d="M215.99 256.06v42.34l-36.668 21.172c0-23.384 16.417-51.82 36.668-63.512Z" class="colord6952d svgShape"></path><path fill="#726ae2" d="M179.322 319.572 215.99 298.4l-32.467 38.42c-2.678-4.334-4.2-10.145-4.2-17.25Z" class="color6a6ae2 svgShape"></path><path fill="#dce6f1" d="M215.99 298.4v-42.34c20.252-11.692 36.668-2.214 36.668 21.17s-16.416 51.82-36.668 63.512c-14.099 8.14-26.331 6.009-32.467-3.92Z" class="colordce0f1 svgShape"></path><path fill="#f6f8fb" d="M209.067 252.063c10.185-5.88 19.399-6.401 26.043-2.496l6.462 3.73-.005.01c-6.607-3.615-15.626-2.992-25.577 2.753l-6.923-3.997Z" class="colorf6f6fb svgShape"></path><path fill="#a3b7cc" d="M182.484 338.898a18.896 18.896 0 0 1-5.884-6.073l6.923 3.997a18.891 18.891 0 0 0 5.885 6.073Z" class="colora3a8cc svgShape"></path><path fill="#867ff4" d="M176.6 332.825c-2.678-4.334-4.201-10.146-4.201-17.25l6.923 3.997c0 7.104 1.523 12.915 4.2 17.25Z" class="color7f7ff4 svgShape"></path></g></g></g></svg>