<svg xmlns="http://www.w3.org/2000/svg" enable-background="new 0 0 200 200" viewBox="0 0 200 200" id="VideoMarketingAnalysis"><g fill="#f4f6f8" class="color000000 svgShape"><g fill="#f4f6f8" class="color000000 svgShape"><g fill="#f4f6f8" class="color000000 svgShape"><g fill="#f4f6f8" class="color000000 svgShape"><g fill="#f4f6f8" class="color000000 svgShape"><g fill="#f4f6f8" class="color000000 svgShape"><g fill="#f4f6f8" class="color000000 svgShape"><g fill="#f4f6f8" class="color000000 svgShape"><g fill="#f4f6f8" class="color000000 svgShape"><g fill="#f4f6f8" class="color000000 svgShape"><polygon fill="#c5d1dd" points="146.438 129.365 146.397 132.518 132.949 140.333 132.99 137.181" class="colorc5d4dd svgShape"></polygon></g><g fill="#f4f6f8" class="color000000 svgShape"><polygon fill="#cfdbe8" points="132.99 137.181 132.949 140.333 94.917 118.375 94.957 115.223" class="colorcfdee8 svgShape"></polygon></g><g fill="#f4f6f8" class="color000000 svgShape"><polygon fill="#e7eff7" points="146.438 129.365 132.99 137.181 94.957 115.223 108.405 107.407" class="colore7f1f7 svgShape"></polygon></g></g></g><g fill="#f4f6f8" class="color000000 svgShape"><g fill="#f4f6f8" class="color000000 svgShape"><g fill="#f4f6f8" class="color000000 svgShape"><polygon fill="#c5d1dd" points="138.843 117.976 138.809 129.738 135.549 131.633 135.582 119.871" class="colorc5d4dd svgShape"></polygon></g><g fill="#f4f6f8" class="color000000 svgShape"><polygon fill="#dce6f1" points="135.582 119.871 135.549 131.633 104.208 113.538 104.241 101.776" class="colordce8f1 svgShape"></polygon></g><g fill="#f4f6f8" class="color000000 svgShape"><polygon fill="#c5d1dd" points="138.843 117.976 135.582 119.871 104.241 101.776 107.502 99.881" class="colorc5d4dd svgShape"></polygon></g></g></g></g><g fill="#f4f6f8" class="color000000 svgShape"><g fill="#f4f6f8" class="color000000 svgShape"><g fill="#f4f6f8" class="color000000 svgShape"><g fill="#f4f6f8" class="color000000 svgShape"><polygon fill="#dce6f1" points="77.64 8.639 81.476 6.41 81.294 75.99 77.458 78.219" class="colordce8f1 svgShape"></polygon></g><g fill="#f4f6f8" class="color000000 svgShape"><path fill="#cfdbe8" d="M182.8989716,133.7091064l-0.0125122,11.1347351
											c0,0.7610779-0.2832489,1.3009186-0.7169037,1.5576019l-4.6738739,2.7117767
											c0.4425049-0.2566376,0.7080536-0.796463,0.7169037-1.5575562l0.0285187-11.1363678L182.8989716,133.7091064z" class="colorcfdee8 svgShape"></path></g><g fill="#f4f6f8" class="color000000 svgShape"><polygon fill="#dce6f1" points="77.458 78.219 81.294 75.99 179.187 132.508 175.351 134.737" class="colordce8f1 svgShape"></polygon></g><g fill="#f4f6f8" class="color000000 svgShape"><polygon fill="#e7eff7" points="175.533 65.158 179.369 62.928 179.187 132.508 175.351 134.737" class="colore7f1f7 svgShape"></polygon></g><g fill="#f4f6f8" class="color000000 svgShape"><polygon fill="#e7eff7" points="77.64 8.639 81.477 6.41 179.369 62.928 175.533 65.158" class="colore7f1f7 svgShape"></polygon></g><g fill="#f4f6f8" class="color000000 svgShape"><path fill="#6822a2" d="M183.072876,63.5923843c0-1.5507545-1.0885468-3.4283638-2.4493256-4.2177048
											L81.8085709,2.3336992c-0.6531677-0.3813558-1.2788925-0.4358584-1.7144775-0.1634536l-4.7288895,2.7759671
											c0.4353714-0.2724047,1.1202087-0.2798839,1.8003845,0.1001754l98.7879791,57.0409813
											c1.3607788,0.789341,2.4490967,2.6669502,2.4490967,4.2190056l-0.1615601,70.1129227l4.6578674-2.7101898
											L183.072876,63.5923843z" class="color616173 svgShape"></path></g></g></g><g fill="#f4f6f8" class="color000000 svgShape"><path fill="#cfdbe8" d="M124.0066223,109.144783c1.4292984,0.8252029,2.5782013,2.8150406,2.5735397,4.4577255
									c-0.0046158,1.6290359-1.161026,2.2879028-2.5903244,1.4626999
									c-1.4177856-0.8185577-2.5666885-2.8083954-2.5620651-4.4374313
									C121.4324265,108.9850922,122.5888367,108.3262177,124.0066223,109.144783z" class="colorcfdee8 svgShape"></path></g><g fill="#f4f6f8" class="color000000 svgShape"><g fill="#f4f6f8" class="color000000 svgShape"><polygon fill="none" points="77.64 8.639 77.458 78.219 175.351 134.737 175.533 65.158"></polygon><rect width="113.037" height="0" x="69.886" y="106.478" fill="none" transform="rotate(-150 126.405 106.478)"></rect><path fill="#e7eff7" d="M175.3511505,134.7374115L175.3511505,134.7374115L77.4581146,78.2189331l0,0l-2.8862-1.6664658
										l-0.0296021,11.1419601c-0.0043259,1.5370941,1.0865936,3.4266968,2.424469,4.1991272l98.796402,57.0401154
										c1.3553772,0.782486,2.4536438,0.1569214,2.457962-1.3802185l0.0199585-11.1341553L175.3511505,134.7374115z" class="colore7f1f7 svgShape"></path><g fill="#f4f6f8" class="color000000 svgShape"><path fill="#c5d1dd" d="M122.3792267,107.8685684c1.6216965,0.9362869,2.9305496,3.2032776,2.9252777,5.0629501
											c-0.0052795,1.8634186-1.3226929,2.6141357-2.9443893,1.6778488
											c-1.6184006-0.9343796-2.9271698-3.2013245-2.9218826-5.0647507
											C119.4435043,107.6849518,120.7608261,106.9341888,122.3792267,107.8685684z" class="colorc5d4dd svgShape"></path></g><path fill="#474e56" d="M175.3511505,134.7374115l2.8899536,1.6818848l0.1954651-70.125885
										c0.0043182-1.5370407-1.0868225-3.426693-2.4421997-4.2091751L77.1979752,5.0441198
										c-1.337883-0.7724342-2.4359283-0.1467628-2.4402466,1.3902736l-0.1858139,70.1180725l2.8862,1.6664658
										L175.3511505,134.7374115z" class="color474756 svgShape"></path></g></g><polygon fill="#5046e4" points="175.451 65.158 175.269 129.32 77.376 72.802 77.558 8.639" class="color3765c7 svgShape"></polygon><path fill="#1d13ab" d="M113.2668533,58.3663101c-0.7720337,0-1.5803986-0.2409286-2.4030991-0.7156219
								L85.7346878,43.1422081c-2.6655502-1.5388069-4.7464523-5.1384392-4.7378464-8.1945419l0.082222-16.1644058
								c0.006218-2.3801537,1.3490295-3.9811068,3.3414917-3.9811068c0.7720337,0,1.5803986,0.2409315,2.4030991,0.7156239
								l25.1285934,14.5084791c2.6655426,1.5388069,4.7464447,5.1384392,4.7378387,8.1945419l-0.0817413,16.1644058
								C116.6016541,56.7658386,115.2588425,58.3663101,113.2668533,58.3663101z" class="color1352ab svgShape"></path></g></g><g fill="#f4f6f8" class="color000000 svgShape"><g fill="#f4f6f8" class="color000000 svgShape"><path fill="#a50b89" d="M115.7222443,37.9856834l-0.0819855,16.1665649c0,1.3308563-0.4709549,2.2727547-1.2286224,2.7037048
								l-3.9440613,2.2932129c0.7576752-0.4499512,1.2287445-1.3718529,1.2287445-2.7227058l0.081871-16.1465683
								c0.0204926-2.7037048-1.8839264-6.0003471-4.2389221-7.3522034L82.4129944,18.4092617
								c-1.1876221-0.6759262-2.2730103-0.7369194-3.0511703-0.2869682l3.9440613-2.2932119
								c0.7781601-0.4509506,1.8634186-0.388958,3.0511627,0.3069677l25.1262817,14.4984303
								C113.8382034,31.9853325,115.7427444,35.2829742,115.7222443,37.9856834z" class="colore22951 svgShape"></path></g><g fill="#f4f6f8" class="color000000 svgShape"><path fill="#fd54de" d="M107.5349274,32.927372c2.3533783,1.3587265,4.256012,4.6541634,4.2483902,7.3439102
								l-0.0819016,16.162178c-0.0076294,2.689743-1.922699,3.7810326-4.2760773,2.4223099L82.296402,44.3475723
								c-2.3533783-1.3587265-4.2560043-4.6541634-4.2483826-7.3439102L78.129921,20.841486
								c0.0076294-2.6897449,1.922699-3.7810345,4.2760773-2.4223099L107.5349274,32.927372z" class="colorfd546b svgShape"></path></g></g><g fill="#f4f6f8" class="color000000 svgShape"><path fill="#ffffff" d="M91.9168549,30.0324841c0.1196213,0.0690651,0.2420731,0.1817589,0.3516769,0.3381042
							l7.4635086,10.6609173c0.3235092,0.4626236,0.3219376,1.0167542-0.0031357,1.1049194l-7.4994583,2.022049
							c-0.1101532,0.0294647-0.2328033,0.0006523-0.3524628-0.0684319c-0.310257-0.1791267-0.6002808-0.6291122-0.5991287-1.0360069
							l0.0359497-12.6797104C91.3149567,29.9674282,91.6065598,29.8533363,91.9168549,30.0324841z" class="colorffffff svgShape"></path></g><g fill="#f4f6f8" class="color000000 svgShape"><g fill="#f4f6f8" class="color000000 svgShape"><polygon fill="#ffffff" points="89.919 54.454 89.917 55.111 80.133 49.462 80.135 48.805" class="colorffffff svgShape"></polygon></g><g fill="#f4f6f8" class="color000000 svgShape"><polygon fill="#ffffff" points="86.581 49.95 86.579 50.607 80.141 46.89 80.143 46.233" class="colorffffff svgShape"></polygon></g><g fill="#f4f6f8" class="color000000 svgShape"><polygon fill="#ffffff" points="113.304 85.294 113.303 85.951 102.794 79.884 102.796 79.227" class="colorffffff svgShape"></polygon></g><g fill="#f4f6f8" class="color000000 svgShape"><g fill="#f4f6f8" class="color000000 svgShape"><polygon fill="#ffffff" points="86.524 69.832 86.522 70.489 80.084 66.772 80.086 66.115" class="colorffffff svgShape"></polygon></g><g fill="#f4f6f8" class="color000000 svgShape"><polygon fill="#ffffff" points="89.863 74.336 89.861 74.993 80.077 69.344 80.079 68.687" class="colorffffff svgShape"></polygon></g><g fill="#f4f6f8" class="color000000 svgShape"><polygon fill="#ffffff" points="86.552 59.89 86.55 60.547 80.113 56.83 80.114 56.173" class="colorffffff svgShape"></polygon></g><g fill="#f4f6f8" class="color000000 svgShape"><polygon fill="#ffffff" points="89.891 64.396 89.889 65.053 80.105 59.404 80.107 58.748" class="colorffffff svgShape"></polygon></g><g fill="#f4f6f8" class="color000000 svgShape"><polygon fill="#ffffff" points="101.617 83.701 101.615 84.358 80.07 71.919 80.072 71.262" class="colorffffff svgShape"></polygon></g><g fill="#f4f6f8" class="color000000 svgShape"><polygon fill="#ffffff" points="101.074 78.233 101.072 78.889 87.79 71.221 87.792 70.564" class="colorffffff svgShape"></polygon></g><g fill="#f4f6f8" class="color000000 svgShape"><polygon fill="#ffffff" points="106.388 83.877 106.386 84.534 92.092 76.281 92.094 75.624" class="colorffffff svgShape"></polygon></g><g fill="#f4f6f8" class="color000000 svgShape"><polygon fill="#ffffff" points="101.645 73.759 101.643 74.419 80.098 61.979 80.1 61.32" class="colorffffff svgShape"></polygon></g><g fill="#f4f6f8" class="color000000 svgShape"><polygon fill="#ffffff" points="101.102 68.29 101.101 68.947 87.818 61.278 87.82 60.622" class="colorffffff svgShape"></polygon></g><g fill="#f4f6f8" class="color000000 svgShape"><polygon fill="#ffffff" points="106.416 73.937 106.414 74.594 92.12 66.341 92.122 65.685" class="colorffffff svgShape"></polygon></g><g fill="#f4f6f8" class="color000000 svgShape"><polygon fill="#ffffff" points="101.673 63.819 101.671 64.476 80.126 52.037 80.128 51.38" class="colorffffff svgShape"></polygon></g><g fill="#f4f6f8" class="color000000 svgShape"><polygon fill="#ffffff" points="106.444 63.995 106.443 64.652 92.148 56.399 92.15 55.742" class="colorffffff svgShape"></polygon></g><g fill="#f4f6f8" class="color000000 svgShape"><polygon fill="#ffffff" points="113.333 75.351 113.331 76.008 102.822 69.941 102.824 69.284" class="colorffffff svgShape"></polygon></g></g><g fill="#f4f6f8" class="color000000 svgShape"><polygon fill="#ffffff" points="113.325 77.926 113.323 78.583 107.632 75.297 107.634 74.64" class="colorffffff svgShape"></polygon></g><g fill="#f4f6f8" class="color000000 svgShape"><polygon fill="#ffffff" points="113.312 82.719 113.31 83.376 80.092 64.197 80.093 63.54" class="colorffffff svgShape"></polygon></g><g fill="#f4f6f8" class="color000000 svgShape"><polygon fill="#ffffff" points="113.34 72.779 113.338 73.436 80.12 54.257 80.122 53.601" class="colorffffff svgShape"></polygon></g><g fill="#f4f6f8" class="color000000 svgShape"><polygon fill="#ffffff" points="101.131 58.351 101.129 59.007 87.846 51.339 87.848 50.682" class="colorffffff svgShape"></polygon></g><g fill="#f4f6f8" class="color000000 svgShape"><polygon fill="#ffffff" points="113.354 67.984 113.352 68.641 107.66 65.354 107.662 64.698" class="colorffffff svgShape"></polygon></g><g fill="#f4f6f8" class="color000000 svgShape"><polygon fill="#ffffff" points="113.297 87.866 113.295 88.523 107.603 85.237 107.605 84.58" class="colorffffff svgShape"></polygon></g></g><g fill="#f4f6f8" class="color000000 svgShape"><g fill="#f4f6f8" class="color000000 svgShape"><polygon fill="#ffffff" points="152.874 58.07 152.873 58.592 145.1 54.105 145.102 53.583" class="colorffffff svgShape"></polygon></g><g fill="#f4f6f8" class="color000000 svgShape"><polygon fill="#ffffff" points="150.222 54.492 150.221 55.014 145.106 52.061 145.108 51.539" class="colorffffff svgShape"></polygon></g><g fill="#f4f6f8" class="color000000 svgShape"><polygon fill="#ffffff" points="171.453 82.571 171.452 83.093 163.103 78.273 163.105 77.751" class="colorffffff svgShape"></polygon></g><g fill="#f4f6f8" class="color000000 svgShape"><g fill="#f4f6f8" class="color000000 svgShape"><polygon fill="#ffffff" points="150.177 70.288 150.176 70.809 145.061 67.856 145.063 67.335" class="colorffffff svgShape"></polygon></g><g fill="#f4f6f8" class="color000000 svgShape"><polygon fill="#ffffff" points="152.83 73.866 152.828 74.388 145.055 69.9 145.057 69.378" class="colorffffff svgShape"></polygon></g><g fill="#f4f6f8" class="color000000 svgShape"><polygon fill="#ffffff" points="150.2 62.389 150.198 62.911 145.084 59.958 145.085 59.436" class="colorffffff svgShape"></polygon></g><g fill="#f4f6f8" class="color000000 svgShape"><polygon fill="#ffffff" points="152.852 65.969 152.851 66.491 145.078 62.003 145.079 61.482" class="colorffffff svgShape"></polygon></g><g fill="#f4f6f8" class="color000000 svgShape"><polygon fill="#ffffff" points="162.168 81.306 162.166 81.828 145.05 71.946 145.051 71.424" class="colorffffff svgShape"></polygon></g><g fill="#f4f6f8" class="color000000 svgShape"><polygon fill="#ffffff" points="161.737 76.961 161.735 77.483 151.183 71.391 151.184 70.869" class="colorffffff svgShape"></polygon></g><g fill="#f4f6f8" class="color000000 svgShape"><polygon fill="#ffffff" points="165.958 81.446 165.957 81.967 154.601 75.411 154.602 74.889" class="colorffffff svgShape"></polygon></g><g fill="#f4f6f8" class="color000000 svgShape"><polygon fill="#ffffff" points="162.19 73.407 162.189 73.931 145.072 64.049 145.074 63.525" class="colorffffff svgShape"></polygon></g><g fill="#f4f6f8" class="color000000 svgShape"><polygon fill="#ffffff" points="161.759 69.063 161.758 69.584 151.205 63.492 151.207 62.97" class="colorffffff svgShape"></polygon></g><g fill="#f4f6f8" class="color000000 svgShape"><polygon fill="#ffffff" points="165.981 73.549 165.979 74.071 154.623 67.514 154.625 66.993" class="colorffffff svgShape"></polygon></g><g fill="#f4f6f8" class="color000000 svgShape"><polygon fill="#ffffff" points="162.213 65.511 162.211 66.032 145.094 56.15 145.096 55.628" class="colorffffff svgShape"></polygon></g><g fill="#f4f6f8" class="color000000 svgShape"><polygon fill="#ffffff" points="166.003 65.65 166.002 66.172 154.646 59.616 154.647 59.094" class="colorffffff svgShape"></polygon></g><g fill="#f4f6f8" class="color000000 svgShape"><polygon fill="#ffffff" points="171.476 74.672 171.474 75.194 163.126 70.374 163.127 69.852" class="colorffffff svgShape"></polygon></g></g><g fill="#f4f6f8" class="color000000 svgShape"><polygon fill="#ffffff" points="171.47 76.718 171.468 77.24 166.946 74.629 166.948 74.107" class="colorffffff svgShape"></polygon></g><g fill="#f4f6f8" class="color000000 svgShape"><polygon fill="#ffffff" points="171.459 80.526 171.458 81.047 145.067 65.811 145.069 65.289" class="colorffffff svgShape"></polygon></g><g fill="#f4f6f8" class="color000000 svgShape"><polygon fill="#ffffff" points="171.481 72.629 171.48 73.151 145.089 57.914 145.091 57.392" class="colorffffff svgShape"></polygon></g><g fill="#f4f6f8" class="color000000 svgShape"><polygon fill="#ffffff" points="161.782 61.166 161.78 61.688 151.228 55.595 151.229 55.074" class="colorffffff svgShape"></polygon></g><g fill="#f4f6f8" class="color000000 svgShape"><polygon fill="#ffffff" points="171.492 68.819 171.491 69.341 166.969 66.73 166.97 66.208" class="colorffffff svgShape"></polygon></g><g fill="#f4f6f8" class="color000000 svgShape"><polygon fill="#ffffff" points="171.447 84.615 171.446 85.136 166.924 82.526 166.925 82.004" class="colorffffff svgShape"></polygon></g></g><g fill="#f4f6f8" class="color000000 svgShape"><g fill="#f4f6f8" class="color000000 svgShape"><path fill="#85c1fd" d="M171.1733704,87.418602c0.4045868,0.2335815,0.8071747,0.5143967,1.1999207,0.8431931
								l-0.0991211,34.9661179l-56.1872406-32.4397202l0.0374756-13.2196426
								c0.6155853,0.1282272,1.2561417,0.3728409,1.9097137,0.7502136c0.1659088,0.095787,0.332695,0.200119,0.5000763,0.3133011
								c2.7724533,1.8754959,4.969368,5.5284729,7.1063156,8.8061905c1.772522,2.7199326,3.9508286,5.585495,6.1716385,6.867691
								c0.4565887,0.2636108,0.9150085,0.4603271,1.3720245,0.5750504c2.0849609,0.5238419,3.5176392-0.8618546,4.4442902-2.5826111
								c0.9253998-1.7215118,1.5218201-3.8333511,2.7563171-5.1731491c1.0727081-1.1642075,2.8270874-1.6117325,4.6546478-0.5565109
								c0.2756042,0.1591187,0.5529785,0.3524551,0.8298187,0.5826492c1.8155975,1.5105515,3.0911865,4.1306458,4.7975006,5.9617157
								c0.6805267,0.7300491,1.3904877,1.2920685,2.1056366,1.7049561c2.3085632,1.3328476,4.6700897,1.110611,6.2615662-0.0359726
								c2.0844727-1.5017548,3.2992401-4.2327576,5.0847626-6.176178c1.0245972-1.1160431,2.2714386-1.9820862,3.8536224-2.0619659
								C168.9489441,86.4949112,170.0686951,86.7808151,171.1733704,87.418602z" class="color85cdfd svgShape"></path></g></g><g fill="#f4f6f8" class="color000000 svgShape"><g fill="#f4f6f8" class="color000000 svgShape"><g fill="#f4f6f8" class="color000000 svgShape"><path fill="#1d13ab" d="M123.0327377,49.2251854c0.4446793,0.2567368,0.8053894,0.8794289,0.8039322,1.3924637
									l-0.0069733,2.4597359c-0.0014572,0.513092-0.364502,0.7178688-0.8091888,0.461132l-2.1424408-1.2369385
									c-0.4446945-0.2567444-0.8053818-0.8793716-0.8039322-1.3924675l0.0069733-2.4597321
									c0.0014572-0.5130386,0.3644943-0.7178764,0.8091888-0.461132L123.0327377,49.2251854z" class="color1352ab svgShape"></path></g><g fill="#f4f6f8" class="color000000 svgShape"><path fill="#fd54de" d="M123.0477371,43.9353867c0.4446793,0.2567368,0.8053818,0.8794289,0.8039322,1.3924675
									l-0.0069733,2.4597321c-0.0014572,0.5130386-0.3645096,0.7178726-0.8091888,0.461132l-2.1424408-1.2369347
									c-0.4446945-0.2567482-0.8053894-0.8794327-0.8039322-1.3924675l0.0069733-2.4597359
									c0.0014572-0.5130386,0.3644943-0.7178764,0.8091888-0.461132L123.0477371,43.9353867z" class="colorfd546b svgShape"></path></g></g><g fill="#f4f6f8" class="color000000 svgShape"><path fill="#1d13ab" d="M123.0627289,38.6455307c0.4446869,0.2567406,0.8053894,0.8794327,0.8039322,1.3925247
								l-0.0069733,2.4597359c-0.0014496,0.5130348-0.364502,0.7178688-0.8091888,0.461132l-2.1424332-1.2369385
								c-0.4446945-0.2567444-0.8053894-0.8794327-0.8039322-1.3924675l0.0069733-2.4597359
								c0.0014496-0.513092,0.3644867-0.7179337,0.8091812-0.4611855L123.0627289,38.6455307z" class="color1352ab svgShape"></path></g><g fill="#f4f6f8" class="color000000 svgShape"><path fill="#1d13ab" d="M128.0209198,41.5081482c0.4447021,0.2567444,0.8054047,0.8794365,0.8039551,1.3925285
								l-0.0069733,2.4597359c-0.0014648,0.5130348-0.3645172,0.7178688-0.8092041,0.4611244l-2.1424255-1.2369308
								c-0.4446945-0.2567444-0.805397-0.8794365-0.8039474-1.3924751l0.0069733-2.4597321
								c0.0014572-0.5130959,0.3645096-0.717926,0.8092041-0.4611816L128.0209198,41.5081482z" class="color1352ab svgShape"></path></g><g fill="#f4f6f8" class="color000000 svgShape"><path fill="#1d13ab" d="M132.9641418,49.6606216c0.4446869,0.2567444,0.8053741,0.8794327,0.8039246,1.3924675
								l-0.0069733,2.4597359c-0.0014496,0.5130386-0.3644867,0.7178764-0.8091888,0.461132l-2.1424255-1.2369308
								c-0.4446869-0.2567444-0.8053894-0.8794365-0.8039398-1.3924751l0.0069733-2.4597321
								c0.0014496-0.5130386,0.364502-0.7178726,0.8092041-0.4611244L132.9641418,49.6606216z" class="color1352ab svgShape"></path></g><g fill="#f4f6f8" class="color000000 svgShape"><path fill="#1d13ab" d="M132.979126,44.3707695c0.4447021,0.2567444,0.8053894,0.8794289,0.8039398,1.3925247
								l-0.0069733,2.4597321c-0.0014496,0.5130386-0.3644867,0.7178764-0.8091888,0.461132l-2.1424255-1.2369308
								c-0.4447021-0.2567444-0.8054047-0.8794365-0.8039398-1.3924713l0.0069733-2.4597359
								c0.0014496-0.513092,0.364502-0.717926,0.8091888-0.4611816L132.979126,44.3707695z" class="color1352ab svgShape"></path></g><g fill="#f4f6f8" class="color000000 svgShape"><path fill="#acd2f9" d="M137.8773499,68.3926392c0.4446869,0.2567444,0.8053894,0.8794327,0.8039398,1.3925247
								l-0.0069733,2.4618149c-0.0014496,0.5109558-0.364502,0.7157898-0.8091888,0.459053l-2.1424408-1.2369385
								c-0.4446869-0.2567368-0.8053894-0.8794327-0.8039398-1.3903961l0.0069733-2.4618073
								c0.0014648-0.513092,0.3645172-0.717926,0.8091888-0.4611893L137.8773499,68.3926392z" class="coloracf9ac svgShape"></path></g><g fill="#f4f6f8" class="color000000 svgShape"><path fill="#1d13ab" d="M137.8923492,63.1028404c0.4446869,0.2567406,0.8053894,0.8794327,0.8039398,1.3924675
								l-0.0069733,2.4597931c-0.0014496,0.5130386-0.364502,0.7178726-0.8091888,0.4611282l-2.1424408-1.2369385
								c-0.4446869-0.2567368-0.8053894-0.879425-0.8039398-1.3924637l0.0069733-2.4597931
								c0.0014648-0.5130348,0.364502-0.7178688,0.8091888-0.461132L137.8923492,63.1028404z" class="color1352ab svgShape"></path></g><g fill="#f4f6f8" class="color000000 svgShape"><path fill="#fd54de" d="M137.9073486,57.8130417c0.4446869,0.2567444,0.8053894,0.8794365,0.8039398,1.3924713
								l-0.0069733,2.4597359c-0.0014648,0.513092-0.364502,0.7178688-0.8092041,0.4611282l-2.1424255-1.2369385
								c-0.4446869-0.2567368-0.8053894-0.8793716-0.8039398-1.3924675l0.0069733-2.4597321
								c0.0014496-0.5130386,0.364502-0.7178726,0.8091888-0.461132L137.9073486,57.8130417z" class="colorfd546b svgShape"></path></g><g fill="#f4f6f8" class="color000000 svgShape"><path fill="#1d13ab" d="M137.922348,52.5232468c0.4446869,0.2567406,0.8053894,0.8794327,0.8039398,1.3924675
								l-0.0069733,2.4597359c-0.0014648,0.5130386-0.3645172,0.7178688-0.8092041,0.4611282l-2.1424408-1.2369385
								c-0.4446716-0.2567368-0.8053741-0.8794289-0.8039246-1.3924637l0.0069733-2.4597359
								c0.0014496-0.5130386,0.364502-0.7178688,0.8091888-0.461132L137.922348,52.5232468z" class="color1352ab svgShape"></path></g><g fill="#f4f6f8" class="color000000 svgShape"><path fill="#88c3ff" d="M137.9373322,47.2333908c0.4447021,0.2567406,0.8054047,0.8794365,0.8039398,1.3925285
								l-0.0069733,2.4597359c-0.0014496,0.5130348-0.364502,0.7178688-0.8091888,0.4611282l-2.1424408-1.2369385
								c-0.4446716-0.2567368-0.8053894-0.8794327-0.8039246-1.3924675l0.0069733-2.4597359
								c0.0014496-0.513092,0.364502-0.717926,0.8091888-0.4611893L137.9373322,47.2333908z" class="colorffe088 svgShape"></path></g><g fill="#f4f6f8" class="color000000 svgShape"><path fill="#85c1fd" d="M128.0059357,46.7980003c0.4446869,0.2567444,0.8053894,0.8794365,0.8039398,1.3924751
								l-0.0069733,2.4597359c-0.0014496,0.5130348-0.364502,0.7178688-0.8092041,0.4611244l-2.1424255-1.2369308
								c-0.4446945-0.2567444-0.805397-0.8794365-0.8039398-1.3924751l0.0069733-2.4597359
								c0.0014496-0.5130348,0.364502-0.7178688,0.8091965-0.4611244L128.0059357,46.7980003z" class="color85cdfd svgShape"></path></g><g fill="#f4f6f8" class="color000000 svgShape"><path fill="#1d13ab" d="M127.9909286,52.0877991c0.4446945,0.2567444,0.805397,0.8794365,0.8039474,1.3924751
								l-0.0069733,2.4597321c-0.0014496,0.5130959-0.364502,0.7178726-0.8091965,0.4611244l-2.1424255-1.236927
								c-0.4446945-0.2567444-0.8054047-0.8793831-0.8039474-1.3924751l0.0069733-2.4597359
								c0.0014572-0.5130348,0.364502-0.7178688,0.8091965-0.4611244L127.9909286,52.0877991z" class="color1352ab svgShape"></path></g><g fill="#f4f6f8" class="color000000 svgShape"><path fill="#1d13ab" d="M132.9491425,54.9504204c0.4446869,0.2567444,0.8053894,0.8794327,0.8039246,1.3924675
								l-0.0069733,2.4597359c-0.0014496,0.513092-0.3644867,0.7178764-0.8091888,0.461132l-2.1424255-1.2369308
								c-0.4446869-0.2567444-0.8053894-0.8793831-0.8039398-1.3924751l0.0069733-2.4597359
								c0.0014496-0.5130348,0.364502-0.7178688,0.8092041-0.4611244L132.9491425,54.9504204z" class="color1352ab svgShape"></path></g><g fill="#f4f6f8" class="color000000 svgShape"><path fill="#fd54de" d="M122.9877472,65.094635c0.4446793,0.2567368,0.8053894,0.8793716,0.8039322,1.3924637
								l-0.0069809,2.4618149c-0.0014496,0.5109558-0.3644943,0.7157898-0.8091812,0.459053l-2.1424408-1.2369385
								c-0.4446945-0.2567444-0.8053818-0.8794327-0.8039322-1.3903885l0.0069733-2.4618149
								c0.0014572-0.513092,0.3644943-0.7178726,0.8091888-0.4611282L122.9877472,65.094635z" class="colorfd546b svgShape"></path></g><g fill="#f4f6f8" class="color000000 svgShape"><path fill="#1d13ab" d="M123.0027466,59.8047791c0.4446793,0.2567368,0.8053818,0.8794289,0.8039322,1.3925247
								l-0.0069809,2.4618111c-0.0014496,0.5109596-0.364502,0.7157936-0.8091812,0.4590569l-2.1424408-1.2369423
								c-0.4446945-0.2567444-0.8053894-0.8794289-0.8039398-1.3903885l0.0069809-2.4618111
								c0.0014572-0.513092,0.3644943-0.7179337,0.8091888-0.4611893L123.0027466,59.8047791z" class="color1352ab svgShape"></path></g><g fill="#f4f6f8" class="color000000 svgShape"><path fill="#88c3ff" d="M123.0177383,54.5149803c0.4446869,0.2567368,0.8053894,0.8794327,0.8039322,1.3924675
								l-0.0069733,2.4597931c-0.0014496,0.5130348-0.364502,0.7178688-0.8091888,0.461132l-2.1424332-1.2369385
								c-0.4446945-0.2567444-0.8053894-0.8794327-0.8039322-1.3924675l0.0069733-2.4597931
								c0.0014496-0.5130348,0.3644943-0.7178764,0.8091888-0.461132L123.0177383,54.5149803z" class="colorffe088 svgShape"></path></g><g fill="#f4f6f8" class="color000000 svgShape"><path fill="#1d13ab" d="M127.9759369,57.3775978c0.4446869,0.2567444,0.8054047,0.8794365,0.8039398,1.3924713
								l-0.0069733,2.4597931c-0.0014496,0.5130348-0.364502,0.7178688-0.8091965,0.4611244l-2.1424255-1.2369308
								c-0.4446945-0.2567444-0.805397-0.8794365-0.8039474-1.3924751l0.0069733-2.4597893
								c0.0014572-0.5130386,0.3645096-0.7178688,0.8092041-0.4611244L127.9759369,57.3775978z" class="color1352ab svgShape"></path></g><g fill="#f4f6f8" class="color000000 svgShape"><path fill="#1d13ab" d="M132.9341431,60.2402191c0.4446869,0.2567444,0.8053894,0.8794289,0.8039246,1.3924675
								l-0.0069733,2.4597893c-0.0014496,0.5130386-0.3644867,0.7178802-0.8091736,0.4611359l-2.1424408-1.2369347
								c-0.4446869-0.2567444-0.8053894-0.8794365-0.8039398-1.3924713l0.0069733-2.4597931
								c0.0014648-0.5130348,0.364502-0.7178688,0.8092041-0.4611244L132.9341431,60.2402191z" class="color1352ab svgShape"></path></g><g fill="#f4f6f8" class="color000000 svgShape"><path fill="#85c1fd" d="M127.9609375,62.6673927c0.4447021,0.2567444,0.8054047,0.8794403,0.8039398,1.3925285
								l-0.0069733,2.4618149c-0.0014496,0.5109634-0.364502,0.7157898-0.8091965,0.4590454l-2.1424255-1.2369308
								c-0.4446945-0.2567444-0.805397-0.8794327-0.8039474-1.3903961l0.0069809-2.4618111
								c0.0014496-0.513092,0.364502-0.717926,0.8091965-0.4611816L127.9609375,62.6673927z" class="color85cdfd svgShape"></path></g><g fill="#f4f6f8" class="color000000 svgShape"><path fill="#88c3ff" d="M132.9041443,70.81987c0.4447021,0.2567444,0.8053894,0.8793716,0.8039398,1.3924637
								l-0.0069885,2.4618149c-0.0014343,0.5109634-0.3644867,0.7157974-0.8091736,0.459053l-2.1424255-1.2369308
								c-0.4447021-0.2567444-0.8054047-0.8794327-0.8039551-1.3903961l0.0069885-2.4618073
								c0.0014496-0.513092,0.364502-0.7178726,0.8091888-0.4611282L132.9041443,70.81987z" class="colorffe088 svgShape"></path></g><g fill="#f4f6f8" class="color000000 svgShape"><path fill="#acd2f9" d="M132.9191437,65.530014c0.4447021,0.2567444,0.8053894,0.8794327,0.8039398,1.3925247
								l-0.0069885,2.4618149c-0.0014496,0.5109558-0.3644867,0.7157974-0.8091736,0.459053l-2.1424255-1.2369308
								c-0.4447021-0.2567444-0.8054047-0.8794403-0.8039551-1.3903961l0.0069733-2.4618149
								c0.0014648-0.513092,0.3645172-0.717926,0.8092041-0.4611816L132.9191437,65.530014z" class="coloracf9ac svgShape"></path></g><g fill="#f4f6f8" class="color000000 svgShape"><path fill="#1d13ab" d="M127.9459457,67.9572449c0.4446945,0.2567444,0.805397,0.8793869,0.8039474,1.3924789
								l-0.0069885,2.4618073c-0.0014496,0.5109634-0.364502,0.7157974-0.8091888,0.459053l-2.1424255-1.2369308
								c-0.4446945-0.2567444-0.8054047-0.8794403-0.8039551-1.3903961l0.0069809-2.4618149
								c0.0014572-0.513092,0.364502-0.7178726,0.8091965-0.4611282L127.9459457,67.9572449z" class="color1352ab svgShape"></path></g><g fill="#f4f6f8" class="color000000 svgShape"><path fill="#1d13ab" d="M137.8623505,73.6824951c0.4446869,0.2567368,0.8054047,0.8793716,0.8039398,1.3924713
								l-0.0069733,2.4618073c-0.0014496,0.5109634-0.364502,0.7157974-0.8091888,0.459053l-2.1424408-1.2369385
								c-0.4446869-0.2567368-0.8053894-0.8794327-0.8039398-1.3903885l0.0069885-2.4618149
								c0.0014496-0.513092,0.364502-0.717865,0.8091888-0.4611282L137.8623505,73.6824951z" class="color1352ab svgShape"></path></g></g></g><g fill="#f4f6f8" class="color000000 svgShape"><g fill="#f4f6f8" class="color000000 svgShape"><g fill="#f4f6f8" class="color000000 svgShape"><g fill="#f4f6f8" class="color000000 svgShape"><path fill="#c5d1dd" d="M79.3455353,137.627594l-1.4071732,0.8177643
									c0.348175-0.2023468,0.5643005-0.6326141,0.56604-1.245697l1.4071655-0.8177643
									C79.9098282,136.9949951,79.6937103,137.4252625,79.3455353,137.627594z" class="colorc5d4dd svgShape"></path></g><g fill="#f4f6f8" class="color000000 svgShape"><polygon fill="#c5d1dd" points="78.603 102.548 80.01 101.73 79.912 136.382 78.504 137.2" class="colorc5d4dd svgShape"></polygon></g><g fill="#f4f6f8" class="color000000 svgShape"><polygon fill="#cfdbe8" points="29.619 74.267 31.026 73.45 80.01 101.73 78.603 102.548" class="colorcfdee8 svgShape"></polygon></g><g fill="#f4f6f8" class="color000000 svgShape"><path fill="#e7eff7" d="M78.6026382,102.5481644l-0.0982361,34.6514969
									c-0.0035095,1.2353363-0.8774033,1.7284393-1.9481812,1.1102142l-45.0959587-26.0361633
									c-1.0750294-0.6206665-1.9432774-2.1195908-1.9397736-3.3549347l0.0982361-34.6514893L78.6026382,102.5481644z" class="colore7f1f7 svgShape"></path></g></g><g fill="#f4f6f8" class="color000000 svgShape"><g fill="#f4f6f8" class="color000000 svgShape"><path fill="#4c545e" d="M80.0193787,98.6658249l-0.0066605,3.0614624l-1.4109039,0.818573l0.0066681-3.0614624
									c0.0066147-1.2311172-0.8652115-2.735199-1.9300308-3.354248L31.5827351,70.095047
									c-0.5457325-0.3127747-1.0315495-0.3460846-1.3909168-0.1397324l1.410902-0.8185806
									c0.352705-0.1996841,0.8451862-0.1730423,1.3842564,0.1397324L78.082695,95.3115692
									C79.1541672,95.9306183,80.0193787,97.4347076,80.0193787,98.6658249z" class="color4c4c5e svgShape"></path></g><g fill="#f4f6f8" class="color000000 svgShape"><path fill="#6822a2" d="M76.6758041,96.1293716c1.0707779,0.6182175,1.9390106,2.1220398,1.9355087,3.3573837
									l-0.0086746,3.061409L29.6187248,74.2672882l0.0086803-3.0614014
									c0.0035019-1.2353439,0.8774109-1.733345,1.9524384-1.1126785L76.6758041,96.1293716z" class="color616173 svgShape"></path></g><g fill="#f4f6f8" class="color000000 svgShape"><g fill="#f4f6f8" class="color000000 svgShape"><path fill="#ffffff" d="M68.1060333,92.5653152c0.6240692,0.3603134,1.1284409,1.2339554,1.1264267,1.946228
										c-0.002037,0.7171402-0.5097046,1.0063477-1.1337814,0.6460419
										c-0.6198654-0.3578796-1.1242371-1.2313919-1.1222076-1.9485321
										C66.9784927,92.4967804,67.4861603,92.2074356,68.1060333,92.5653152z" class="colorffffff svgShape"></path></g><g fill="#f4f6f8" class="color000000 svgShape"><path fill="#ffffff" d="M71.985466,94.8051147c0.6240997,0.360321,1.1242447,1.2315216,1.1222229,1.9438019
										c-0.0020294,0.7171326-0.5054703,1.0087891-1.12957,0.6484604
										c-0.6240768-0.3603058-1.1284485-1.2338181-1.1264114-1.9509583
										C70.8537216,94.7341461,71.3613968,94.4448013,71.985466,94.8051147z" class="colorffffff svgShape"></path></g><g fill="#f4f6f8" class="color000000 svgShape"><path fill="#ffffff" d="M75.8606949,97.0424805c0.6240997,0.360321,1.1284485,1.2339478,1.1264267,1.946228
										c-0.0020294,0.7171402-0.5096741,1.0063629-1.1337738,0.6460342
										c-0.6240692-0.3603058-1.1242447-1.2313919-1.1222076-1.9485321
										C74.7331619,96.973938,75.2366257,96.6821671,75.8606949,97.0424805z" class="colorffffff svgShape"></path></g></g></g></g><g fill="#f4f6f8" class="color000000 svgShape"><g fill="#f4f6f8" class="color000000 svgShape"><path fill="#7caddf" d="M33.4630432,104.1541138c0.074749,0.0431519,0.1480522,0.0925598,0.2194214,0.1471786
								c0.6407814,0.4902802,1.1268616,1.4097137,1.1246758,2.1808624l-0.0087967,3.1033325l-2.6969833-1.557106
								l0.0087967-3.1033325c0.0021858-0.7709198,0.4931946-1.1261673,1.1333466-0.8771286
								C33.3149986,104.0757217,33.3882904,104.1109543,33.4630432,104.1541138z" class="color7cdf82 svgShape"></path></g><g fill="#f4f6f8" class="color000000 svgShape"><path fill="#b4c0cc" d="M33.7296677,87.6507797l-0.0472031,16.6505127
								c-0.0713692-0.0546188-0.1446724-0.1040268-0.2194214-0.1471786
								c-0.0747528-0.0431595-0.1480446-0.078392-0.2195396-0.1061935l0.0472031-16.6505737L33.7296677,87.6507797z" class="colorb4c4cc svgShape"></path></g><g fill="#f4f6f8" class="color000000 svgShape"><path fill="#b4c0cc" d="M39.873188,91.1977463l-0.0168648,8.7181702
								c-0.0714188-0.0547104-0.1446724-0.1040878-0.2194214-0.1472397
								c-0.0747528-0.0431595-0.1480827-0.0784149-0.2195396-0.1062546l0.0168648-8.7181168L39.873188,91.1977463z" class="colorb4c4cc svgShape"></path></g><g fill="#f4f6f8" class="color000000 svgShape"><path fill="#b4c0cc" d="M46.0167084,94.7447052L46.0056,98.6636581
								c-0.0714188-0.0547104-0.1446724-0.1041412-0.2194252-0.1473007c-0.074749-0.0431519-0.1480522-0.078392-0.2195244-0.1061859
								l0.0111084-3.9188919L46.0167084,94.7447052z" class="colorb4c4cc svgShape"></path></g><g fill="#f4f6f8" class="color000000 svgShape"><path fill="#2e25b8" d="M51.9067879,109.489212c0.074749,0.0431595,0.1480522,0.0926208,0.2194214,0.1472397
								c0.6407814,0.4906311,1.1268578,1.4116287,1.1246758,2.1808624l-0.0238342,8.4079971l-2.6969872-1.557106l0.023838-8.4079971
								c0.002182-0.7690582,0.4931946-1.1257553,1.1333466-0.8770676
								C51.7587433,109.410881,51.8320389,109.4460602,51.9067879,109.489212z" class="color255bb8 svgShape"></path></g><g fill="#f4f6f8" class="color000000 svgShape"><path fill="#b4c0cc" d="M52.1583748,98.290596l-0.0321655,11.3458557
								c-0.0713692-0.0546188-0.1446724-0.1040802-0.2194214-0.1472397c-0.074749-0.0431519-0.1480446-0.078331-0.2195396-0.1060715
								l0.0321655-11.3459778L52.1583748,98.290596z" class="colorb4c4cc svgShape"></path></g><g fill="#f4f6f8" class="color000000 svgShape"><path fill="#f46cdb" d="M58.060585,109.4113998c0.074749,0.0431595,0.1480522,0.0925674,0.2194214,0.1471863
								c0.6407814,0.4902802,1.1268616,1.4097061,1.1246758,2.1808624l-0.034111,12.0328217l-2.6969795-1.5570984
								l0.034111-12.0328293c0.0021858-0.7709198,0.4931908-1.1261139,1.1333466-0.8770752
								C57.9125481,109.3330765,57.9858398,109.368248,58.060585,109.4113998z" class="colorf46cb4 svgShape"></path></g><g fill="#f4f6f8" class="color000000 svgShape"><path fill="#b4c0cc" d="M58.3018951,101.8375626l-0.0218887,7.7210236
								c-0.0713692-0.0546188-0.1446724-0.1040268-0.2194214-0.1471863
								c-0.0747452-0.0431519-0.148037-0.0783234-0.2195358-0.1061325l0.0218925-7.721138L58.3018951,101.8375626z" class="colorb4c4cc svgShape"></path></g><g fill="#f4f6f8" class="color000000 svgShape"><path fill="#399cff" d="M45.7861748,98.5163574c0.0747528,0.0431595,0.1480064,0.0925903,0.2194252,0.1473007
								c0.6394653,0.4901047,1.1268578,1.4117355,1.1246758,2.180748l-0.0448914,15.8350067l-2.6988411-1.5581741
								l0.0448952-15.8350143c0.0021782-0.7692337,0.4934464-1.1259613,1.1352119-0.8760529
								C45.6381226,98.4379654,45.7114258,98.4732056,45.7861748,98.5163574z" class="colorffb839 svgShape"></path></g><g fill="#f4f6f8" class="color000000 svgShape"><path fill="#ea3dcb" d="M39.6369019,99.7686768c0.074749,0.0431519,0.1480026,0.0925293,0.2194214,0.1472397
								c0.6394691,0.4897537,1.1268616,1.4098816,1.1246758,2.1808014l-0.039135,11.0357361l-2.6969719-1.5570984
								l0.039135-11.0357361c0.0021858-0.7711487,0.4918709-1.1272202,1.1333351-0.8771973
								C39.4888191,99.6902618,39.562149,99.7255173,39.6369019,99.7686768z" class="colorea3d5b svgShape"></path></g></g><g fill="#f4f6f8" class="color000000 svgShape"><g fill="#f4f6f8" class="color000000 svgShape"><polygon fill="#4c545e" points="66.225 99.85 66.224 100.141 61.893 97.64 61.894 97.349" class="color4c4c5e svgShape"></polygon></g><g fill="#f4f6f8" class="color000000 svgShape"><polygon fill="#4c545e" points="64.747 97.856 64.747 98.147 61.896 96.501 61.897 96.21" class="color4c4c5e svgShape"></polygon></g><g fill="#f4f6f8" class="color000000 svgShape"><polygon fill="#4c545e" points="76.578 113.503 76.577 113.794 71.925 111.108 71.926 110.817" class="color4c4c5e svgShape"></polygon></g><g fill="#f4f6f8" class="color000000 svgShape"><g fill="#f4f6f8" class="color000000 svgShape"><polygon fill="#4c545e" points="64.722 106.658 64.722 106.949 61.871 105.303 61.872 105.012" class="color4c4c5e svgShape"></polygon></g><g fill="#f4f6f8" class="color000000 svgShape"><polygon fill="#4c545e" points="66.2 108.652 66.2 108.943 61.868 106.442 61.869 106.151" class="color4c4c5e svgShape"></polygon></g><g fill="#f4f6f8" class="color000000 svgShape"><polygon fill="#4c545e" points="64.735 102.256 64.734 102.547 61.884 100.901 61.885 100.611" class="color4c4c5e svgShape"></polygon></g><g fill="#f4f6f8" class="color000000 svgShape"><polygon fill="#4c545e" points="66.213 104.251 66.212 104.542 61.881 102.041 61.881 101.751" class="color4c4c5e svgShape"></polygon></g><g fill="#f4f6f8" class="color000000 svgShape"><polygon fill="#4c545e" points="71.404 112.798 71.403 113.089 61.865 107.582 61.866 107.291" class="color4c4c5e svgShape"></polygon></g><g fill="#f4f6f8" class="color000000 svgShape"><polygon fill="#4c545e" points="71.164 110.377 71.163 110.668 65.283 107.273 65.284 106.982" class="color4c4c5e svgShape"></polygon></g><g fill="#f4f6f8" class="color000000 svgShape"><polygon fill="#4c545e" points="73.516 112.876 73.515 113.166 67.187 109.513 67.188 109.222" class="color4c4c5e svgShape"></polygon></g><g fill="#f4f6f8" class="color000000 svgShape"><polygon fill="#4c545e" points="71.417 108.396 71.416 108.688 61.877 103.181 61.878 102.889" class="color4c4c5e svgShape"></polygon></g><g fill="#f4f6f8" class="color000000 svgShape"><polygon fill="#4c545e" points="71.176 105.975 71.175 106.266 65.295 102.871 65.296 102.58" class="color4c4c5e svgShape"></polygon></g><g fill="#f4f6f8" class="color000000 svgShape"><polygon fill="#4c545e" points="73.529 108.475 73.528 108.766 67.2 105.112 67.201 104.822" class="color4c4c5e svgShape"></polygon></g><g fill="#f4f6f8" class="color000000 svgShape"><polygon fill="#4c545e" points="71.429 103.996 71.428 104.287 61.89 98.78 61.891 98.489" class="color4c4c5e svgShape"></polygon></g><g fill="#f4f6f8" class="color000000 svgShape"><polygon fill="#4c545e" points="73.541 104.074 73.54 104.364 67.212 100.711 67.213 100.42" class="color4c4c5e svgShape"></polygon></g><g fill="#f4f6f8" class="color000000 svgShape"><polygon fill="#4c545e" points="76.591 109.101 76.59 109.392 71.938 106.706 71.939 106.415" class="color4c4c5e svgShape"></polygon></g></g><g fill="#f4f6f8" class="color000000 svgShape"><polygon fill="#4c545e" points="76.588 110.241 76.587 110.532 74.067 109.077 74.068 108.786" class="color4c4c5e svgShape"></polygon></g><g fill="#f4f6f8" class="color000000 svgShape"><polygon fill="#4c545e" points="76.581 112.363 76.581 112.654 61.875 104.163 61.875 103.872" class="color4c4c5e svgShape"></polygon></g><g fill="#f4f6f8" class="color000000 svgShape"><polygon fill="#4c545e" points="76.594 107.963 76.593 108.253 61.887 99.763 61.888 99.472" class="color4c4c5e svgShape"></polygon></g><g fill="#f4f6f8" class="color000000 svgShape"><polygon fill="#4c545e" points="71.189 101.575 71.188 101.866 65.308 98.471 65.308 98.18" class="color4c4c5e svgShape"></polygon></g><g fill="#f4f6f8" class="color000000 svgShape"><polygon fill="#4c545e" points="76.6 105.84 76.599 106.13 74.079 104.676 74.08 104.385" class="color4c4c5e svgShape"></polygon></g><g fill="#f4f6f8" class="color000000 svgShape"><polygon fill="#4c545e" points="76.575 114.642 76.574 114.932 74.054 113.478 74.055 113.187" class="color4c4c5e svgShape"></polygon></g></g><g fill="#f4f6f8" class="color000000 svgShape"><g fill="#f4f6f8" class="color000000 svgShape"><polygon fill="#4c545e" points="66.225 114.504 66.224 114.794 61.893 112.294 61.894 112.003" class="color4c4c5e svgShape"></polygon></g><g fill="#f4f6f8" class="color000000 svgShape"><polygon fill="#4c545e" points="64.747 112.51 64.747 112.801 61.896 111.155 61.897 110.864" class="color4c4c5e svgShape"></polygon></g><g fill="#f4f6f8" class="color000000 svgShape"><polygon fill="#4c545e" points="76.578 128.157 76.577 128.448 71.925 125.762 71.926 125.471" class="color4c4c5e svgShape"></polygon></g><g fill="#f4f6f8" class="color000000 svgShape"><g fill="#f4f6f8" class="color000000 svgShape"><polygon fill="#4c545e" points="64.722 121.312 64.722 121.603 61.871 119.957 61.872 119.666" class="color4c4c5e svgShape"></polygon></g><g fill="#f4f6f8" class="color000000 svgShape"><polygon fill="#4c545e" points="66.2 123.306 66.2 123.596 61.868 121.096 61.869 120.805" class="color4c4c5e svgShape"></polygon></g><g fill="#f4f6f8" class="color000000 svgShape"><polygon fill="#4c545e" points="64.735 116.91 64.734 117.201 61.884 115.555 61.885 115.265" class="color4c4c5e svgShape"></polygon></g><g fill="#f4f6f8" class="color000000 svgShape"><polygon fill="#4c545e" points="66.213 118.905 66.212 119.196 61.881 116.695 61.881 116.405" class="color4c4c5e svgShape"></polygon></g><g fill="#f4f6f8" class="color000000 svgShape"><polygon fill="#4c545e" points="71.404 127.452 71.403 127.743 61.865 122.236 61.866 121.945" class="color4c4c5e svgShape"></polygon></g><g fill="#f4f6f8" class="color000000 svgShape"><polygon fill="#4c545e" points="71.164 125.031 71.163 125.322 65.283 121.927 65.284 121.636" class="color4c4c5e svgShape"></polygon></g><g fill="#f4f6f8" class="color000000 svgShape"><polygon fill="#4c545e" points="73.516 127.53 73.515 127.82 67.187 124.167 67.188 123.876" class="color4c4c5e svgShape"></polygon></g><g fill="#f4f6f8" class="color000000 svgShape"><polygon fill="#4c545e" points="71.417 123.05 71.416 123.342 61.877 117.835 61.878 117.543" class="color4c4c5e svgShape"></polygon></g><g fill="#f4f6f8" class="color000000 svgShape"><polygon fill="#4c545e" points="71.176 120.629 71.175 120.92 65.295 117.525 65.296 117.234" class="color4c4c5e svgShape"></polygon></g><g fill="#f4f6f8" class="color000000 svgShape"><polygon fill="#4c545e" points="73.529 123.129 73.528 123.42 67.2 119.766 67.201 119.476" class="color4c4c5e svgShape"></polygon></g><g fill="#f4f6f8" class="color000000 svgShape"><polygon fill="#4c545e" points="71.429 118.65 71.428 118.941 61.89 113.434 61.891 113.143" class="color4c4c5e svgShape"></polygon></g><g fill="#f4f6f8" class="color000000 svgShape"><polygon fill="#4c545e" points="73.541 118.728 73.54 119.018 67.212 115.365 67.213 115.074" class="color4c4c5e svgShape"></polygon></g><g fill="#f4f6f8" class="color000000 svgShape"><polygon fill="#4c545e" points="76.591 123.755 76.59 124.046 71.938 121.36 71.939 121.069" class="color4c4c5e svgShape"></polygon></g></g><g fill="#f4f6f8" class="color000000 svgShape"><polygon fill="#4c545e" points="76.588 124.895 76.587 125.186 74.067 123.731 74.068 123.44" class="color4c4c5e svgShape"></polygon></g><g fill="#f4f6f8" class="color000000 svgShape"><polygon fill="#4c545e" points="76.581 127.017 76.581 127.308 61.875 118.817 61.875 118.526" class="color4c4c5e svgShape"></polygon></g><g fill="#f4f6f8" class="color000000 svgShape"><polygon fill="#4c545e" points="76.594 122.616 76.593 122.907 61.887 114.417 61.888 114.126" class="color4c4c5e svgShape"></polygon></g><g fill="#f4f6f8" class="color000000 svgShape"><polygon fill="#4c545e" points="71.189 116.229 71.188 116.52 65.308 113.125 65.308 112.834" class="color4c4c5e svgShape"></polygon></g><g fill="#f4f6f8" class="color000000 svgShape"><polygon fill="#4c545e" points="76.6 120.494 76.599 120.784 74.079 119.329 74.08 119.039" class="color4c4c5e svgShape"></polygon></g><g fill="#f4f6f8" class="color000000 svgShape"><polygon fill="#4c545e" points="76.575 129.296 76.574 129.586 74.054 128.131 74.055 127.841" class="color4c4c5e svgShape"></polygon></g></g></g><g fill="#f4f6f8" class="color000000 svgShape"><g fill="#f4f6f8" class="color000000 svgShape"><g fill="#f4f6f8" class="color000000 svgShape"><g fill="#f4f6f8" class="color000000 svgShape"><g fill="#f4f6f8" class="color000000 svgShape"><g fill="#f4f6f8" class="color000000 svgShape"><path fill="#cfdbe8" d="M183.7500305,164.4427338l-0.0093536,4.4220581
											c0,0.6733704-0.4490662,1.3563232-1.3378906,1.87117l-45.5723724,26.4860535
											c-1.7963715,1.0388336-4.7060242,1.0388336-6.5117035-0.00914l-19.7595825-11.4047394
											c-0.907547-0.5239868-1.3566132-1.2069397-1.3566132-1.8899078l0.0093689-4.4220581
											c0,0.6829681,0.4490662,1.365921,1.3566132,1.8899078l19.7595825,11.4047394
											c1.8056641,1.0479736,4.715332,1.0479736,6.5116425,0.0095978l45.5724335-26.4865112
											C183.3009796,165.799057,183.7406769,165.1165619,183.7500305,164.4427338z" class="colorcfdee8 svgShape"></path></g></g><g fill="#f4f6f8" class="color000000 svgShape"><g fill="#f4f6f8" class="color000000 svgShape"><g fill="#f4f6f8" class="color000000 svgShape"><path fill="#5e5466" d="M114.0859146,184.9220581c0.1950302,0.1126099,0.3518372,0.3841858,0.3512115,0.6067657
												c-0.0003204,0.1105499-0.0396118,0.1911316-0.1035309,0.2275543
												c-0.0652161,0.0356598-0.1524582,0.0301819-0.2499695-0.026123l-0.0091019-0.005249
												c-0.1937256-0.1118469-0.3505325-0.3834229-0.3498993-0.6075439
												c0.0003204-0.1120148,0.0396118-0.1910553,0.1035233-0.2260132
												c0.0639191-0.0364075,0.1524582-0.0301819,0.2486649,0.0253601L114.0859146,184.9220581z" class="color545466 svgShape"></path></g><g fill="#f4f6f8" class="color000000 svgShape"><path fill="#5e5466" d="M115.2495422,185.5846405c0.1950226,0.1125946,0.3518372,0.3841705,0.3512039,0.6067505
												c-0.0003128,0.1105652-0.0396118,0.1911469-0.1035309,0.2275543
												c-0.0652161,0.0356598-0.1524506,0.0301819-0.2499695-0.0261078l-0.0091019-0.0052643
												c-0.193718-0.1118469-0.3505325-0.3834229-0.3498917-0.6075439
												c0.0003128-0.1120148,0.0396042-0.1910553,0.1035156-0.2259979
												c0.0639191-0.0364227,0.1524582-0.0301971,0.2486725,0.0253448L115.2495422,185.5846405z" class="color545466 svgShape"></path></g><g fill="#f4f6f8" class="color000000 svgShape"><path fill="#5e5466" d="M116.4131622,186.2472076c0.1950302,0.1125946,0.3518372,0.3841858,0.3512039,0.6067657
												c-0.0003128,0.1105499-0.0396118,0.1911316-0.1035309,0.2275391
												c-0.0652161,0.0356598-0.1524506,0.0301971-0.2499619-0.0261078l-0.0091019-0.005249
												c-0.1937256-0.1118469-0.3505325-0.3834381-0.3498993-0.6075439
												c0.0003128-0.1120148,0.0396118-0.1910706,0.1035233-0.2260132
												c0.0639114-0.0364075,0.1524506-0.0301971,0.2486649,0.0253601L116.4131622,186.2472076z" class="color545466 svgShape"></path></g><g fill="#f4f6f8" class="color000000 svgShape"><path fill="#5e5466" d="M117.5767822,186.90979c0.1950302,0.1125946,0.3518372,0.3841705,0.3512039,0.6067505
												c-0.0003128,0.1105499-0.0396118,0.1911316-0.1035233,0.2275543
												c-0.0652161,0.0356598-0.1524582,0.0301819-0.2499695-0.026123l-0.0091019-0.005249
												c-0.1937256-0.1118469-0.3505325-0.3834229-0.3498993-0.6075439
												c0.0003204-0.1120148,0.0396118-0.1910553,0.1035233-0.2260132
												c0.0639191-0.0364075,0.1524506-0.0301819,0.2486649,0.0253601L117.5767822,186.90979z" class="color545466 svgShape"></path></g></g><g fill="#f4f6f8" class="color000000 svgShape"><g fill="#f4f6f8" class="color000000 svgShape"><g fill="#f4f6f8" class="color000000 svgShape"><g fill="#f4f6f8" class="color000000 svgShape"><g fill="#f4f6f8" class="color000000 svgShape"><g fill="#f4f6f8" class="color000000 svgShape"><path fill="#e7eff7" d="M182.3873444,162.5409241c1.8039703,1.0415192,1.8134308,2.7314453,0.0271301,3.7695313
																l-45.577301,26.4866333c-1.7924194,1.0416412-4.7038116,1.0381165-6.5077667-0.0034027l-19.7600174-11.4084473
																c-1.8039551-1.0415039-1.8075943-2.720993-0.0151825-3.7626343l45.5773087-26.4866333
																c1.7863007-1.0380707,4.691864-1.0450134,6.4958191-0.0034943L182.3873444,162.5409241z" class="colore7f1f7 svgShape"></path></g></g></g><g fill="#f4f6f8" class="color000000 svgShape"><g fill="#f4f6f8" class="color000000 svgShape"><path fill="#cfdbe8" d="M121.1395721,186.0432892c1.0852432,0.6255493,2.8415146,0.6201935,3.9107742,0
															c1.0772781-0.6255341,1.069252-1.6386719-0.013382-2.2641449c-1.0825729-0.6282043-2.8334885-0.6282043-3.9080963,0
															C120.0569305,184.3992767,120.0569305,185.4177551,121.1395721,186.0432892z" class="colorcfdee8 svgShape"></path></g></g><g fill="#f4f6f8" class="color000000 svgShape"><g fill="#f4f6f8" class="color000000 svgShape"><path fill="#474e56" d="M171.1611328,159.8021088c0.0955811,0.0551758,0.0899811,0.1414795,0.0011139,0.1931152
															c-0.0949707,0.055191-0.2378082,0.0551605-0.3333893-0.0000153l-4.6174316-2.6658783
															c-0.0955811-0.055191-0.0961151-0.1379242-0.0011292-0.1931152
															c0.0888672-0.051651,0.2378235-0.0551605,0.3334045,0.0000153L171.1611328,159.8021088z" class="color474756 svgShape"></path></g><g fill="#f4f6f8" class="color000000 svgShape"><path fill="#474e56" d="M164.5591278,155.7498474c0.2329559,0.1345062,0.2281799,0.3518066-0.003006,0.4861603
															c-0.2314911,0.1345367-0.6066284,0.1380157-0.8395996,0.0035095
															c-0.2329559-0.134491-0.2341461-0.3552551-0.0026398-0.4897919
															C163.9450531,155.615387,164.3261719,155.6153564,164.5591278,155.7498474z" class="color474756 svgShape"></path></g><g fill="#f4f6f8" class="color000000 svgShape"><path fill="#474e56" d="M170.4163208,157.5637817c0.1373901,0.0793304,0.1378632,0.2105255-0.0044403,0.2932281
															c-0.1423187,0.0827026-0.3684998,0.0826721-0.5058899,0.0033417
															c-0.1433563-0.0827637-0.144165-0.2137756-0.0018616-0.2964783
															C170.0464478,157.4811707,170.2729492,157.4810181,170.4163208,157.5637817z" class="color474756 svgShape"></path></g></g><g fill="#f4f6f8" class="color000000 svgShape"><g fill="#f4f6f8" class="color000000 svgShape"><path fill="#5e5466" d="M125.0373077,183.7778473c1.08358,0.6255951,1.0893021,1.6388702,0.0125427,2.2646179
															c-1.0699463,0.6217804-2.8256989,0.6255188-3.9092789-0.0000916
															c-1.0835876-0.6255951-1.08284-1.6426086-0.0128937-2.264389
															C122.2044373,183.1522369,123.9537277,183.1522369,125.0373077,183.7778473z M121.3254547,185.9349365
															c0.9772339,0.564209,2.5675659,0.5641632,3.5382614,0.000061
															c0.9710464-0.5643158,0.9659195-1.4854889-0.0113144-2.0496979
															c-0.9838638-0.5680389-2.5675507-0.5641632-3.5385895,0.0001526
															C120.3431168,184.4495544,120.3415909,185.3668976,121.3254547,185.9349365" class="color545466 svgShape"></path></g></g></g><g fill="#f4f6f8" class="color000000 svgShape"><g fill="#f4f6f8" class="color000000 svgShape"><path fill="#5e5466" d="M121.4590759,189.1472473c0.3148346,0.1817627,0.5679779,0.6201935,0.5669632,0.9795074
														c-0.0005112,0.1784821-0.0639496,0.3085632-0.1650314,0.3685455
														c-0.105278,0.0575714-0.2461166,0.0487366-0.405632-0.0433502l-2.0800323-1.2009125
														c-0.3127365-0.1805573-0.5658798-0.618988-0.5648575-0.9807892
														c0.0005112-0.1808319,0.0639496-0.3084259,0.1671219-0.3648529
														c0.1031799-0.0587769,0.2461166-0.0487366,0.4014359,0.0409393L121.4590759,189.1472473z" class="color545466 svgShape"></path></g></g></g><g fill="#f4f6f8" class="color000000 svgShape"><g fill="#f4f6f8" class="color000000 svgShape"><path fill="#5e5466" d="M123.0768814,190.4685364c0.1974716,0.1140137,0.3562469,0.3889923,0.3556061,0.6143646
													c-0.0003128,0.1119537-0.0401077,0.1935425-0.1048279,0.2304077
													c-0.0660324,0.0361023-0.1543655,0.0305634-0.2531052-0.0264435l-0.0092087-0.0053101
													c-0.1961594-0.1132507-0.3549347-0.3882446-0.3542938-0.6151733
													c0.0003281-0.1134186,0.0401077-0.1934509,0.1048279-0.2288513
													c0.0647125-0.0368652,0.1543655-0.0305634,0.2517853,0.0256805L123.0768814,190.4685364z" class="color545466 svgShape"></path></g><g fill="#f4f6f8" class="color000000 svgShape"><path fill="#5e5466" d="M124.2550964,191.1394196c0.1974716,0.1140137,0.3562469,0.3889923,0.3556061,0.6143646
													c-0.0003128,0.1119537-0.0401077,0.1935425-0.1048203,0.2304077
													c-0.06604,0.0361023-0.1543732,0.0305634-0.2531052-0.0264435l-0.0092163-0.0053101
													c-0.1961517-0.1132507-0.3549347-0.3882446-0.3542862-0.6151733
													c0.0003204-0.1134186,0.0401077-0.1934509,0.1048203-0.2288513
													c0.0647125-0.0368652,0.1543655-0.0305634,0.2517853,0.0256805L124.2550964,191.1394196z" class="color545466 svgShape"></path></g><g fill="#f4f6f8" class="color000000 svgShape"><path fill="#5e5466" d="M125.4333115,191.8103027c0.1974716,0.1140137,0.3562546,0.3889923,0.3556137,0.6143646
													c-0.0003204,0.1119537-0.0401077,0.1935425-0.1048279,0.2304077
													c-0.0660324,0.0361023-0.1543655,0.0305634-0.2531052-0.0264435l-0.0092163-0.0053101
													c-0.1961517-0.1132507-0.3549271-0.3882446-0.3542862-0.6151733
													c0.0003204-0.1134186,0.0401077-0.1934509,0.1048203-0.2288513
													c0.0647202-0.0368652,0.1543655-0.0305634,0.2517853,0.0256805L125.4333115,191.8103027z" class="color545466 svgShape"></path></g><g fill="#f4f6f8" class="color000000 svgShape"><path fill="#5e5466" d="M126.6115341,192.4811859c0.1974716,0.1140137,0.3562469,0.3889923,0.3556061,0.6143646
													c-0.0003128,0.1119537-0.0401077,0.1935425-0.1048279,0.2304077
													c-0.0660324,0.0361023-0.1543655,0.0305634-0.2530975-0.0264435l-0.0092163-0.0053101
													c-0.1961594-0.1132507-0.3549347-0.3882446-0.3542862-0.6151733
													c0.0003204-0.1134186,0.0401077-0.1934509,0.1048203-0.2288513
													c0.0647125-0.0368652,0.1543655-0.0305634,0.2517853,0.0256805L126.6115341,192.4811859z" class="color545466 svgShape"></path></g></g></g><g fill="#f4f6f8" class="color000000 svgShape"><g fill="#f4f6f8" class="color000000 svgShape"><g fill="#f4f6f8" class="color000000 svgShape"><path fill="#5e5466" d="M174.5931396,172.904541c0.0058289,0.3608704,0.1339722,0.6173859,0.3377991,0.7396545
													l0.4950409,0.2852325c-0.2038269-0.1222839-0.3319855-0.372818-0.3377686-0.7336884
													c0-0.7339783,0.5125122-1.6192322,1.1473083-1.986084c0.3144836-0.1805725,0.6056824-0.1979218,0.8153839-0.0756378
													l-0.4950714-0.2911987c-0.2096558-0.1166077-0.4950256-0.0989685-0.8153381,0.081604
													C175.1056519,171.291275,174.5931396,172.1765442,174.5931396,172.904541z" class="color545466 svgShape"></path></g><g fill="#f4f6f8" class="color000000 svgShape"><path fill="#474e56" d="M176.2345581,171.2122345c-0.6343536,0.3662415-1.1459808,1.2524414-1.1439209,1.981308
													c0.0020599,0.7263641,0.5170441,1.0223694,1.1513977,0.6561279
													c0.6320953-0.3649445,1.1459656-1.2549591,1.1439056-1.9813232
													C177.3838806,171.1394806,176.8666534,170.84729,176.2345581,171.2122345z" class="color474756 svgShape"></path></g></g><g fill="#f4f6f8" class="color000000 svgShape"><g fill="#f4f6f8" class="color000000 svgShape"><path fill="#5e5466" d="M170.1585083,175.4728699c0,0.3611603,0.1281128,0.6170959,0.3319702,0.7336884
													l0.4950409,0.2911987c-0.2038269-0.1222687-0.3319855-0.3784943-0.3319855-0.7396545
													c-0.0058289-0.7279968,0.5066986-1.613266,1.1415253-1.9801178
													c0.3203125-0.1805725,0.6115112-0.1979218,0.8153381-0.0756378l-0.4950256-0.2911987
													c-0.2038269-0.1222839-0.4950256-0.1049347-0.8153687,0.0813293
													C170.6651917,173.8596039,170.1526794,174.744873,170.1585083,175.4728699z" class="color545466 svgShape"></path></g><g fill="#f4f6f8" class="color000000 svgShape"><path fill="#474e56" d="M171.7960815,173.7791443c-0.6343536,0.3662415-1.1459808,1.2524261-1.1439209,1.981308
													c0.0020599,0.7263641,0.5170441,1.0223541,1.1513977,0.6561127
													c0.6321106-0.3649445,1.1459656-1.2549438,1.1439056-1.981308
													C172.9454041,173.7063751,172.4281921,173.4141998,171.7960815,173.7791443z" class="color474756 svgShape"></path></g></g></g></g></g></g><polygon fill="#474e56" points="155.601 153.029 114.511 176.744 137.732 190.238 178.809 166.517" class="color474756 svgShape"></polygon><g fill="#f4f6f8" class="color000000 svgShape"><g fill="#f4f6f8" class="color000000 svgShape"><polygon fill="#ffffff" points="149.999 175.763 149.534 176.032 134.636 167.431 135.1 167.161" class="colorffffff svgShape"></polygon></g><g fill="#f4f6f8" class="color000000 svgShape"><polygon fill="#ffffff" points="148.757 177.73 148.293 178 141.648 174.164 142.112 173.894" class="colorffffff svgShape"></polygon></g><g fill="#f4f6f8" class="color000000 svgShape"><polygon fill="#ffffff" points="142.275 176.673 141.812 176.942 134.886 172.943 135.349 172.674" class="colorffffff svgShape"></polygon></g><g fill="#f4f6f8" class="color000000 svgShape"><polygon fill="#ffffff" points="140.948 186.587 140.484 186.856 133.669 182.921 134.133 182.652" class="colorffffff svgShape"></polygon></g><g fill="#f4f6f8" class="color000000 svgShape"><g fill="#f4f6f8" class="color000000 svgShape"><polygon fill="#ffffff" points="125.335 177.572 124.871 177.842 120.782 175.481 121.246 175.212" class="colorffffff svgShape"></polygon></g><g fill="#f4f6f8" class="color000000 svgShape"><polygon fill="#ffffff" points="132.145 178.819 131.681 179.089 123.099 174.135 123.564 173.865" class="colorffffff svgShape"></polygon></g><g fill="#f4f6f8" class="color000000 svgShape"><polygon fill="#ffffff" points="140.779 181.121 140.316 181.39 125.417 172.788 125.88 172.519" class="colorffffff svgShape"></polygon></g><g fill="#f4f6f8" class="color000000 svgShape"><polygon fill="#ffffff" points="133.056 182.03 132.592 182.3 125.666 178.301 126.13 178.031" class="colorffffff svgShape"></polygon></g><g fill="#f4f6f8" class="color000000 svgShape"><polygon fill="#ffffff" points="139.538 183.088 139.074 183.358 132.429 179.521 132.893 179.251" class="colorffffff svgShape"></polygon></g><g fill="#f4f6f8" class="color000000 svgShape"><polygon fill="#ffffff" points="131.207 183.647 130.743 183.917 118.465 176.828 118.929 176.558" class="colorffffff svgShape"></polygon></g></g><g fill="#f4f6f8" class="color000000 svgShape"><polygon fill="#ffffff" points="140.426 178.29 139.963 178.559 127.685 171.47 128.148 171.201" class="colorffffff svgShape"></polygon></g><g fill="#f4f6f8" class="color000000 svgShape"><polygon fill="#ffffff" points="134.554 172.215 134.091 172.484 130.002 170.123 130.465 169.854" class="colorffffff svgShape"></polygon></g><g fill="#f4f6f8" class="color000000 svgShape"><polygon fill="#ffffff" points="141.364 173.462 140.9 173.732 132.318 168.777 132.782 168.508" class="colorffffff svgShape"></polygon></g><g fill="#f4f6f8" class="color000000 svgShape"><polygon fill="#ffffff" points="150.167 181.229 149.704 181.498 142.889 177.563 143.352 177.294" class="colorffffff svgShape"></polygon></g><g fill="#f4f6f8" class="color000000 svgShape"><polygon fill="#ffffff" points="152.485 179.883 152.02 180.152 149.229 178.541 149.693 178.271" class="colorffffff svgShape"></polygon></g><g fill="#f4f6f8" class="color000000 svgShape"><polygon fill="#ffffff" points="143.266 185.24 142.802 185.51 140.01 183.898 140.474 183.628" class="colorffffff svgShape"></polygon></g></g></g><g fill="#f4f6f8" class="color000000 svgShape"><g fill="#f4f6f8" class="color000000 svgShape"><g fill="#f4f6f8" class="color000000 svgShape"><path fill="#7caddf" d="M161.8708038,162.3421021c-2.2294006-1.2871552-5.2416687-1.842514-8.1411896-1.6678772
									l-0.6061401-1.6172333c3.8125458-0.2846985,7.8115692,0.4226379,10.7518616,2.1202087
									c2.383667,1.3762207,3.6480713,3.164566,3.7789154,4.977417l-2.8431244,0.0402222
									C164.7037506,164.7888947,163.7190552,163.4091797,161.8708038,162.3421021z" class="color7cdf82 svgShape"></path></g><g fill="#f4f6f8" class="color000000 svgShape"><path fill="#2e25b8" d="M167.6407623,166.9824829c-0.2013397,1.7290344-1.4430237,3.4248352-3.7090759,4.7417297
									c-1.7250519,1.0024872-3.8348999,1.6608887-6.0583496,1.9717865l-0.4946289-1.625946
									c1.6629639-0.2515106,3.240097-0.7545166,4.5383606-1.5089874c1.7040253-0.9902802,2.6557159-2.2477417,2.8625183-3.5418854
									L167.6407623,166.9824829z" class="color255bb8 svgShape"></path></g><g fill="#f4f6f8" class="color000000 svgShape"><path fill="#ea3dcb" d="M147.7277832,170.5611267c2.2566223,1.3028717,5.3231812,1.8582153,8.2588196,1.6591034
									l0.4915161,1.6207428c-3.815567,0.2864532-7.8176117-0.4191284-10.7548523-2.1149445
									c-5.0396118-2.9096222-5.0662079-7.6391144-0.0593872-10.5487518
									c1.7250519-1.0025024,3.8349609-1.660965,6.0584259-1.9718475l0.6090698,1.6085205
									c-1.7052155,0.2445068-3.3245239,0.7545166-4.6528778,1.526474
									C143.7776337,164.6073456,143.8013611,168.2942047,147.7277832,170.5611267z" class="colorea3d5b svgShape"></path></g></g></g></g><g fill="#f4f6f8" class="color000000 svgShape"><g fill="#f4f6f8" class="color000000 svgShape"><g fill="#f4f6f8" class="color000000 svgShape"><path fill="#ea3dcb" d="M48.2030449,27.8993778c4.6211166,2.6680031,8.3735428,9.156004,8.3584557,14.4775677
								c-0.0150528,5.3103676-3.7919769,7.462513-8.4130936,4.7945099
								c-4.6211166-2.6680069-8.3735123-9.1672058-8.3584595-14.4775696
								C39.8050346,27.3723202,43.5819244,25.2313728,48.2030449,27.8993778z M48.1556396,44.6196365
								c3.3961487,1.9607658,6.1738319,0.3772583,6.1848946-3.5249672c0.011097-3.9140129-2.7485466-8.6939087-6.1446953-10.6546745
								c-3.406105-1.9665165-6.1838455-0.3836327-6.1949425,3.5303802
								C41.9898338,37.8726006,44.7495346,42.6531219,48.1556396,44.6196365" class="colorea3d5b svgShape"></path></g><g fill="#f4f6f8" class="color000000 svgShape"><path fill="#f4f6f8" d="M48.2102432,25.3593521c5.8461227,3.3752575,10.5812492,11.5767937,10.5622063,18.2940865
								c-0.0190125,6.7061272-4.7851257,9.4339256-10.6312447,6.0586662S37.5599899,38.1235199,37.5790024,31.4173946
								C37.5980453,24.7001019,42.3641243,21.9840927,48.2102432,25.3593521z M48.148407,47.1714554
								c4.6211166,2.6680031,8.3980408,0.5158577,8.4130936-4.7945099
								c0.0150871-5.3215637-3.737339-11.8095646-8.3584557-14.4775677s-8.3980103-0.5270576-8.4130974,4.794508
								C39.7748947,38.0042496,43.5272903,44.5034485,48.148407,47.1714554" class="colore8f1fa svgShape"></path></g><g fill="#f4f6f8" class="color000000 svgShape"><g fill="#f4f6f8" class="color000000 svgShape"><path fill="#ff6ce4" d="M63.1800385,43.6598091c-0.0156136,4.0246277-1.4351654,6.8633499-3.7281532,8.2046394
									l-2.1994934,1.2795944c2.2930832-1.3412895,3.7125397-4.1807709,3.7281532-8.2206345
									c0.0312271-8.1269493-5.6935272-18.0323811-12.759861-22.1194668
									c-3.5564919-2.0587769-6.7854691-2.2461452-9.109684-0.8888626l2.199398-1.2795944
									c2.3242149-1.3565216,5.5375786-1.1699142,9.1097794,0.8896236
									C57.4864159,25.6121941,63.2111702,35.5168648,63.1800385,43.6598091z" class="colorff6c85 svgShape"></path></g></g><g fill="#f4f6f8" class="color000000 svgShape"><g fill="#f4f6f8" class="color000000 svgShape"><path fill="#ea3dcb" d="M48.2174797,22.8069096c7.0711212,4.0825138,12.7890434,13.9864216,12.7659798,22.1230526
									c-0.023037,8.1254349-5.7783356,11.4053116-12.8494568,7.3227959
									c-7.0811119-4.0882797-12.7890472-13.9864578-12.7660103-22.1118908
									C35.3910599,22.0042343,41.1363716,18.7186279,48.2174797,22.8069096z M48.1412048,49.7121048
									c5.8461189,3.3752594,10.6122322,0.6474609,10.6312447-6.0586662
									c0.019043-6.7172928-4.7160835-14.918829-10.5622063-18.2940865s-10.6121979-0.6592503-10.6312408,6.0580425
									C37.5599899,38.1235199,42.2950859,46.3368454,48.1412048,49.7121048" class="colorea3d5b svgShape"></path></g></g><g fill="#f4f6f8" class="color000000 svgShape"><path fill="#ea3dcb" d="M48.1886139,32.9806519c-2.1811104-1.2592602-3.9696045-0.2396164-3.9767303,2.2662735
								c-0.0070801,2.506485,1.7698517,5.5728378,3.9509621,6.8320961s3.9596176,0.2456741,3.9667435-2.2608109
								C52.136673,37.3123245,50.3697243,34.2399101,48.1886139,32.9806519z" class="colorea3d5b svgShape"></path></g><g fill="#f4f6f8" class="color000000 svgShape"><path fill="#f4f6f8" d="M48.1958389,30.4399948c3.3961487,1.9607658,6.1557922,6.7406616,6.1446953,10.6546745
								c-0.0110626,3.9022255-2.7887459,5.485733-6.1848946,3.5249672c-3.406105-1.9665146-6.1658058-6.747036-6.1547432-10.6492615
								C42.0119934,30.0563622,44.7897339,28.4734783,48.1958389,30.4399948z M48.1628456,42.0790215
								c2.1811028,1.2592583,3.9596367,0.2456551,3.9667435-2.2608414c0.007103-2.5058708-1.7598495-5.5782738-3.9409523-6.837532
								c-2.1811028-1.2592621-3.9696274-0.2396164-3.9767342,2.2662544
								C44.2047997,37.7533989,45.981739,40.8197594,48.1628456,42.0790215" class="colore8f1fa svgShape"></path></g></g><g fill="#f4f6f8" class="color000000 svgShape"><g fill="#f4f6f8" class="color000000 svgShape"><path fill="#5e5466" d="M28.7169075,45.7360306l1.6618042,1.5003052l17.2035637-9.9324837
								c0.3246765-0.1874504,0.5874138-0.0258675,0.5884361,0.3352089c0.0010567,0.3728333-0.2599716,0.8132668-0.5846481,1.0007172
								l-17.2035637,9.9324837l-1.6478138,3.4346581l-6.4936848,3.7491302l2.0858231-4.3507118l-2.1036015-1.9201775
								L28.7169075,45.7360306z" class="color545466 svgShape"></path></g></g></g><g fill="#f4f6f8" class="color000000 svgShape"><polygon fill="#1d13ab" points="94.911 141.332 122.217 157.096 128.452 153.473 101.145 137.709" class="color1352ab svgShape"></polygon><g fill="#f4f6f8" class="color000000 svgShape"><polygon fill="#c5d1dd" points="101.145 135.625 101.145 137.709 128.452 153.473 130.25 152.428" class="colorc5d4dd svgShape"></polygon><polygon fill="#dce6f1" points="93.113 140.293 94.911 141.332 101.145 137.709 101.145 135.625" class="colordce8f1 svgShape"></polygon></g></g><g fill="#f4f6f8" class="color000000 svgShape"><g fill="#f4f6f8" class="color000000 svgShape"><g fill="#f4f6f8" class="color000000 svgShape"><g fill="#f4f6f8" class="color000000 svgShape"><path fill="#7b75d1" d="M108.7314758,115.3182755l-0.0477524,22.4524918
									c-0.0021362,0.7551422-0.4987869,1.50914-1.4909363,2.0857086c-1.9945755,1.1591339-5.239418,1.1591339-7.2496414-0.0014648
									c-1.0102463-0.5832672-1.514801-1.3489685-1.5126343-2.1135101l0.0477371-22.4524765
									c-0.0021591,0.7645264,0.5023956,1.5302277,1.5126419,2.1134949
									c2.0102234,1.1605988,5.2550583,1.1605988,7.2496414,0.0014725
									C108.2326813,116.8274155,108.729332,116.0734177,108.7314758,115.3182755z" class="color75d178 svgShape"></path></g><g fill="#f4f6f8" class="color000000 svgShape"><path fill="#94c0ed" d="M107.2168503,113.2032547c2.0102234,1.1605988,2.0208206,3.0401306,0.0236816,4.200737
									c-1.9945831,1.1591263-5.239418,1.1591263-7.2496414-0.0014725
									c-2.0075912-1.1590805-2.0181885-3.0386124-0.0236053-4.1977386
									C101.9644241,112.0441742,105.209259,112.0441666,107.2168503,113.2032547z" class="color94ed96 svgShape"></path></g></g></g><g fill="#f4f6f8" class="color000000 svgShape"><g fill="#f4f6f8" class="color000000 svgShape"><g fill="#f4f6f8" class="color000000 svgShape"><path fill="#a50b89" d="M117.5615845,124.1704483l-0.0477524,18.7034683
									c-0.0021362,0.7551422-0.4987793,1.50914-1.4909363,2.0857239c-1.9945755,1.1591187-5.239418,1.1591187-7.2496338-0.0014801
									c-1.0102463-0.5832672-1.5148087-1.3489685-1.5126419-2.1134949l0.0477448-18.7034683
									c-0.0021667,0.7645264,0.5023956,1.5302277,1.5126419,2.1134949
									c2.0102158,1.1605988,5.2550583,1.1605988,7.2496338,0.0014725
									C117.0627975,125.6795883,117.5594406,124.9255905,117.5615845,124.1704483z" class="colore22951 svgShape"></path></g><g fill="#f4f6f8" class="color000000 svgShape"><path fill="#fd54de" d="M116.0469666,122.0554199c2.0102158,1.1606064,2.020813,3.0401382,0.023674,4.2007446
									c-1.9945755,1.1591263-5.239418,1.1591263-7.2496338-0.0014725c-2.0075912-1.1590881-2.0181885-3.03862-0.023613-4.1977386
									C110.7945328,120.8963394,114.0393677,120.8963394,116.0469666,122.0554199z" class="colorfd546b svgShape"></path></g></g></g><g fill="#f4f6f8" class="color000000 svgShape"><g fill="#f4f6f8" class="color000000 svgShape"><g fill="#f4f6f8" class="color000000 svgShape"><path fill="#50a7ff" d="M126.3916931,133.0226135l-0.0477448,14.9544678
									c-0.0021362,0.7551422-0.4987869,1.50914-1.4909363,2.0857086c-1.9945831,1.1591339-5.239418,1.1591339-7.2496414-0.0014648
									c-1.0102463-0.5832672-1.5148087-1.3489685-1.5126419-2.1135101l0.0477448-14.9544525
									c-0.0021667,0.7645264,0.5023956,1.5302277,1.5126419,2.1134949
									c2.0102234,1.1605988,5.2550583,1.1605988,7.2496414,0.0014801
									C125.8929062,134.5317535,126.3895569,133.7777557,126.3916931,133.0226135z" class="colorffc950 svgShape"></path></g><g fill="#f4f6f8" class="color000000 svgShape"><path fill="#88c3ff" d="M124.8770752,130.9075928c2.0102234,1.1605988,2.0208206,3.0401306,0.0236816,4.2007446
									c-1.9945831,1.1591187-5.239418,1.1591187-7.2496414-0.0014801
									c-2.0075912-1.1590729-2.0181885-3.0386047-0.0236053-4.1977386
									C119.6246414,129.7485199,122.8694839,129.7485046,124.8770752,130.9075928z" class="colorffe088 svgShape"></path></g></g></g></g></g><g fill="#f4f6f8" class="color000000 svgShape"><path fill="#0c2340" d="M26.5641251,171.9902496c0,0-0.3019962,2.9650574,0.4667206,3.0474243
					c0.7687187,0.0823669,2.1414299,0.1098175,2.5806961-1.5237122c0.4392681-1.6335297,3.4043236-3.4729614,3.5141411-4.159317
					s0-2.1139679-1.0432625-2.1414185C31.0391617,167.1857605,26.3719444,171.2489929,26.5641251,171.9902496z" class="color2a2a38 svgShape"></path><g fill="#f4f6f8" class="color000000 svgShape"><g fill="#f4f6f8" class="color000000 svgShape"><g fill="#f4f6f8" class="color000000 svgShape"><path fill="#a7ccf2" d="M20.1313915,138.8102875c-0.2252159,0.2023163-0.7058697-0.2870483-0.7674103-0.6040344
								c-0.059185-0.3177795-0.4705276-1.1730652-0.5647926-1.1214142
								c-0.0119896,0.0078125-0.0336285,0.0266724-0.0609226,0.0527039
								c-0.4534016,0.4610596-0.5455875,1.1647186-0.2677994,1.7500305
								c0.2435246,0.5118713,0.5410748,1.0194397,0.4449139,1.2777863c-0.1539955,0.4144592-1.4048271-0.103241-1.8265953-0.6843262
								c-0.4225025-0.5834351-0.8032188-1.9282532-0.6343212-2.4069519
								c0.1720505-0.4771271,0.5968533-1.2962646,0.7379436-1.6893921c0.0805206-0.217514,0.0595474-0.5518951,0.0242443-0.8092957
								c-0.0288525-0.2103882-0.037466-0.4227142-0.0416565-0.635025c-0.025692-1.3014069-1.1366615-6.4699478-0.888916-7.7689972
								c0.2760677-1.4302979,1.101017-8.4645233,2.7633247-12.5007324c1.6638947-4.0354004,3.5666313-3.062561,3.5666313-3.062561
								s0.6693153,0.1984558,1.260004,1.4449387c0.5930862,1.2457199-2.9475269,10.3498611-3.2864742,11.3486938
								c-0.3381767,0.9972305-0.8547859,1.1805801-0.76367,2.4551697c0.081295,1.1297989-0.3461628,6.9014053-0.6263485,8.3515854
								c-0.0016212,0.0031586-0.0008469,0.0055542-0.0016575,0.0071411
								c-0.0739479,0.7069855,0.0373116,1.4188232,0.3671703,2.0507507c0.1821175,0.350708,0.3354473,0.7186279,0.3614674,1.0114594
								C19.9921665,138.0242462,20.3582478,138.6087799,20.1313915,138.8102875z" class="colorf2c0a7 svgShape"></path></g><g fill="#f4f6f8" class="color000000 svgShape"><path fill="#474e56" d="M20.6733036,133.9771118c0,0-1.3992882,1.6231842,1.2033882,7.8080292
								c2.6026764,6.1848602,3.0784359,13.6010895,3.1064205,14.3567047
								c0.0279865,0.7556152,1.3153324,15.3921814,1.7631035,15.6720276
								c0.447773,0.2798615,2.9327755-0.1851807,3.2965908-2.3680573c0.3638153-2.1828918,0.0617027-15.2070007-0.721899-17.8376617
								s0.7556152-19.3941345-1.8750458-20.8493958S20.6733036,133.9771118,20.6733036,133.9771118z" class="color474756 svgShape"></path><path fill="#4c545e" d="M18.3117371,174.3241882c-0.0203743,0.073349-0.0321159,0.1443024-0.0358963,0.2129669
								c-0.0890255,1.6167908,4.23703,1.9542847,4.23703,1.9542847s6.9617176-16.6741486,8.1925964-20.3175507
								c1.2308769-3.6434021,5.7112732-12.2595367,5.5635681-15.7059937
								c-0.1477051-3.4464722-0.1477051-3.4464722-0.1477051-3.4464722s-8.3207359-0.9846954-9.5023785,0
								c-1.1816425,0.9847107-1.4770527,2.8556519-0.5908222,5.5635834
								c0.8862324,2.7079315-0.7385254,11.3733063-1.1816425,12.3087769
								c-0.4431152,0.9354553-5.807972,16.5429993-6.5720024,19.2016907" class="color4c4c5e svgShape"></path><path fill="#7bbdff" d="M36.5695724,139.0453949c-0.0213127,0.0213623-0.0426216,0.0391541-0.0675392,0.05513
								c0,0-8.2476082,1.4401093-11.8602295-0.5102234c-3.6144447-1.9503326-4.9247189-3.4544067-4.9247189-3.4544067
								s0.8991623-4.222229,2.1908588-6.411499c0.5878239-0.9962921,0.9879093-2.0956192,1.0993099-3.2470169
								c0.0867538-0.8966599,0.0530186-1.6609802-0.1646862-2.3492966
								c-0.3840065-1.2160873-3.6055031-6.4519348-2.2614574-10.3206024c0,0,0.7342873-2.3023529,1.6303444-2.3023529
								c0.8942356,0,13.1402988,2.5583572,13.3002872,3.7086334c0,0-2.0463409-0.3840027-2.2383232,3.1646423
								c-0.1920242,3.550415,2.8463898,8.8378296,2.5583534,9.5418625
								C35.5526314,127.5994339,37.158062,136.7092896,36.5695724,139.0453949z" class="colorff7bba svgShape"></path></g><g fill="#f4f6f8" class="color000000 svgShape"><path fill="#a7ccf2" d="M45.5656624,140.2437286c-0.1084251,0.2826538-0.7591553,0.0657654-0.9582558-0.1884613
								c-0.1973648-0.2559967-0.9529648-0.8302612-1.013382-0.7413635c-0.007122,0.0124207-0.0177994,0.0390625-0.0302544,0.0746613
								c-0.1938057,0.6169128,0.044445,1.2854004,0.5582352,1.6800842c0.449852,0.3448944,0.9458427,0.6613617,0.9778328,0.9351654
								c0.0515671,0.4391327-1.2978172,0.5476074-1.93787,0.2222443c-0.6417923-0.3271484-1.5929756-1.3512115-1.6605148-1.8543243
								c-0.0640221-0.5031586-0.0586815-1.4258575-0.1120262-1.8401184
								c-0.0273285-0.2303314-0.1982269-0.5185089-0.3468399-0.7316284c-0.12146-0.1741791-0.2257919-0.359314-0.3261719-0.5464325
								c-0.6153221-1.1470337-3.6453247-5.943924-4.0161133-7.2133484
								c-0.4053192-1.3991699-3.1851158-7.3370667-3.542469-11.6875305
								c-0.3555756-4.3504715,1.7814369-4.3504715,1.7814369-4.3504715s0.6862831-0.1279984,1.7796593,0.7129364
								c1.0951614,0.8391495,2.0872307,10.5570297,2.2401466,11.6006622
								c0.152874,1.0418625,0.1777878,0.4569321,0.8391571,1.5503082c0.5867081,0.9689407,2.4321251,7.2857437,2.8428268,8.7044907
								c0,0.0035706,0.0017815,0.0053406,0.0017815,0.0071259c0.2560043,0.663147,0.6791191,1.2462921,1.2604866,1.6587677
								c0.3218079,0.2293549,0.6258202,0.4871368,0.7822952,0.7360229
								C45.0838661,139.6072388,45.6759148,139.9610291,45.5656624,140.2437286z" class="colorf2c0a7 svgShape"></path></g><path fill="#a7ccf2" d="M31.7403164,112.6064911c0,0-1.0310879-0.131485-1.0111523-1.7989044
							c-0.2215614-2.1491547,0-3.4342117,0-3.4342117h-5.6719875c0,0-1.4844646,4.6528015-1.4623089,4.7192688
							s-1.2185917,2.9467773,1.3515282,3.5671463C27.5165157,116.2801666,29.7019444,115.3981705,31.7403164,112.6064911z" class="colorf2c0a7 svgShape"></path><path fill="#b5d9fe" d="M31.7539177,105.3952637c-0.0924759,0.8983688-0.2004223,1.8399963-0.7167034,2.5809937
							c-0.5554543,0.7972183-1.7058754,1.2388687-2.5428009,0.7452698
							c-0.8086548-0.4769363-1.0056763-1.5598755-0.9609776-2.4976273c0.0601501-1.2619095,0.408308-2.5092316,1.0103912-3.619873
							c0.5411377-0.9982147,1.8962879-2.0057526,2.9419155-0.9864273
							C32.3866463,102.4958344,31.8632774,104.332901,31.7539177,105.3952637z" class="colorfed0b5 svgShape"></path></g><path fill="#0c2340" d="M33.1405869,99.4051132c-0.000824-0.0213089,0.0014343-0.0406265,0.0051651-0.0588531
						c-0.1460152-0.4231567-0.3717232-0.8384171-0.6704369-1.1177292c-1.5218754-1.4258652-3.7975712-1.9360962-5.8670044-1.6978836
						c-0.8516121,0.0977936-1.7121201,0.3626938-2.3575134,0.928093c-0.5013313,0.4426422-0.8444939,1.045372-1.0684643,1.6765289
						c-0.1920261,0.5369186-0.3146896,1.1076126-0.3964634,1.6711884c-0.0064678,0.0470963-0.0145855,0.0543823-0.0235691,0.0353699
						c-0.0441875,0.3472061-0.0930176,0.6937103-0.1522675,1.0388641c-0.0296879,1.9122238-0.0157547,3.874794-0.2224503,4.4691849
						c-0.3804474,1.109436-2.6756763,9.3338699-1.9485512,11.0939941c0.7253895,1.7583084,4.2438221,3.7868958,6.0803852,2.945961
						c1.8383007-0.8427582,2.4498806-1.6854248,2.6027985-2.6792755c0.1510925-0.9938507,0.0764351-4.4002533-0.3449001-5.9665756
						c-0.4195976-1.5698853-0.3431187-3.9397659-0.0391064-4.4375839c0.3075695-0.497818,1.2249393,0.2293549,1.6836472-0.9938507
						c0.458662-1.2249374,0.3431187-2.4890366,0.7662334-2.9868011c0.4195976-0.4960403,1.7992344-0.6880646,1.9521084-2.0641403
						c0.0184021-0.1681976,0.0403214-0.2569199,0.0628052-0.3007126c0.0007401-0.006813,0.0009117-0.0138474,0.0016518-0.0206604
						C33.190506,100.4281769,33.1599884,99.9193802,33.1405869,99.4051132z" class="color2a2a38 svgShape"></path></g><path fill="#0c2340" d="M18.2543201,173.88591c0,0-2.1688824,2.7179718-1.427618,4.1181335
					s2.8826923,0.2470856,5.4633884,1.2628937s3.8710442,0.3569031,4.0632248-0.1647186
					c0.1921787-0.521637,0.7412624-1.8668976-0.8510818-2.6081543c-1.5923443-0.741272-2.1688824-0.1921844-3.4592304-1.3452606
					S18.3366833,173.3642731,18.2543201,173.88591z" class="color2a2a38 svgShape"></path></g></g></g></g></svg>