<svg xmlns="http://www.w3.org/2000/svg" xmlns:xlink="http://www.w3.org/1999/xlink" viewBox="0 0 900 800" id="WebService"><defs><linearGradient id="b" x1="213.98" x2="213.98" y1="524.77" y2="275.23" gradientUnits="userSpaceOnUse"><stop offset=".21"></stop><stop offset=".28" stop-color="#040404" class="stopColor040404 svgShape"></stop><stop offset=".35" stop-color="#111111" class="stopColor111111 svgShape"></stop><stop offset=".42" stop-color="#252525" class="stopColor252525 svgShape"></stop><stop offset=".49" stop-color="#424242" class="stopColor424242 svgShape"></stop><stop offset=".56" stop-color="#686868" class="stopColor686868 svgShape"></stop><stop offset=".64" stop-color="#969696" class="stopColor969696 svgShape"></stop><stop offset=".71" stop-color="#cbcbcb" class="stopColorcbcbcb svgShape"></stop><stop offset=".77" stop-color="#ffffff" class="stopColorffffff svgShape"></stop></linearGradient><linearGradient id="a" x1="561.34" x2="561.34" y1="526.3" y2="203.89" gradientUnits="userSpaceOnUse"><stop offset="0"></stop><stop offset=".38" stop-color="#7f7f7f" class="stopColor7f7f7f svgShape"></stop><stop offset=".78" stop-color="#ffffff" class="stopColorffffff svgShape"></stop></linearGradient><linearGradient id="k" x1="352.56" x2="352.56" y1="559.65" y2="287.86" xlink:href="#a"></linearGradient><linearGradient id="l" x1="296.18" x2="296.18" y1="746.52" y2="444.78" gradientUnits="userSpaceOnUse"><stop offset=".1"></stop><stop offset=".14" stop-color="#151515" class="stopColor151515 svgShape"></stop><stop offset=".26" stop-color="#525252" class="stopColor525252 svgShape"></stop><stop offset=".37" stop-color="#878787" class="stopColor878787 svgShape"></stop><stop offset=".48" stop-color="#b2b2b2" class="stopColorb2b2b2 svgShape"></stop><stop offset=".59" stop-color="#d3d3d3" class="stopColord3d3d3 svgShape"></stop><stop offset=".69" stop-color="#ececec" class="stopColorececec svgShape"></stop><stop offset=".78" stop-color="#fafafa" class="stopColorfafafa svgShape"></stop><stop offset=".86" stop-color="#ffffff" class="stopColorffffff svgShape"></stop></linearGradient><linearGradient id="m" x1="710.45" x2="710.45" y1="703.16" y2="453.62" xlink:href="#b"></linearGradient><linearGradient id="n" x1="524.52" x2="524.52" y1="767.43" y2="453.63" xlink:href="#a"></linearGradient><linearGradient id="c" x1="165.92" x2="262.03" y1="413.87" y2="413.87" gradientUnits="userSpaceOnUse"><stop offset=".42" stop-color="#cce1f6" class="stopColorccd1f6 svgShape"></stop><stop offset=".56" stop-color="#b9cee4" class="stopColorb9bee4 svgShape"></stop></linearGradient><linearGradient id="q" x1="440.43" x2="682.25" y1="434.9" y2="434.9" xlink:href="#c"></linearGradient><linearGradient id="s" x1="250.63" x2="454.48" y1="482.6" y2="482.6" xlink:href="#c"></linearGradient><linearGradient id="u" x1="213.98" x2="378.38" y1="619.38" y2="619.38" xlink:href="#c"></linearGradient><linearGradient id="w" x1="662.4" x2="758.5" y1="592.26" y2="592.26" xlink:href="#c"></linearGradient><linearGradient id="z" x1="406.84" x2="642.2" y1="678.47" y2="678.47" xlink:href="#c"></linearGradient><linearGradient id="A" x1="442.42" x2="500.56" y1="398" y2="398" gradientUnits="userSpaceOnUse"><stop offset=".39" stop-color="#7b3ead" class="stopColor423ead svgShape"></stop><stop offset=".58" stop-color="#6f67e7" class="stopColor6b67e7 svgShape"></stop></linearGradient><linearGradient id="B" x1="436.45" x2="506.53" y1="428.79" y2="428.79" gradientUnits="userSpaceOnUse"><stop offset=".4" stop-color="#cce1f6" class="stopColorccd1f6 svgShape"></stop><stop offset=".55" stop-color="#bcd1e7" class="stopColorbcc1e7 svgShape"></stop><stop offset=".57" stop-color="#b9cee4" class="stopColorb9bee4 svgShape"></stop></linearGradient><linearGradient id="d" x1="1147.13" x2="1201.66" y1="-79.13" y2="-79.13" gradientTransform="rotate(-120 874.814 547.872)" gradientUnits="userSpaceOnUse"><stop offset=".42" stop-color="#5a52ca" class="stopColor5652ca svgShape"></stop><stop offset=".61" stop-color="#652e92" class="stopColor362e92 svgShape"></stop></linearGradient><linearGradient id="D" x1="1141.53" x2="1207.26" y1="-50.26" y2="-50.26" gradientTransform="rotate(-120 874.814 547.872)" gradientUnits="userSpaceOnUse"><stop offset=".4" stop-color="#b9cee4" class="stopColorb9bee4 svgShape"></stop><stop offset=".46" stop-color="#c9d9ea" class="stopColorc9cdea svgShape"></stop><stop offset=".57" stop-color="#f4f6f9" class="stopColorf4f4f9 svgShape"></stop><stop offset=".57" stop-color="#f4f6f9" class="stopColorf4f4f9 svgShape"></stop></linearGradient><linearGradient id="F" x1="879.69" x2="922.42" y1="753.44" y2="753.44" gradientTransform="matrix(.5 -.87 -.87 -.5 911.96 1579.42)" xlink:href="#d"></linearGradient><linearGradient id="G" x1="875.3" x2="926.81" y1="776.08" y2="776.08" gradientTransform="matrix(.5 -.87 -.87 -.5 911.96 1579.42)" gradientUnits="userSpaceOnUse"><stop offset=".4" stop-color="#cce1f6" class="stopColorccd1f6 svgShape"></stop><stop offset=".48" stop-color="#dce9f7" class="stopColordcdff7 svgShape"></stop><stop offset=".57" stop-color="#f4f6f9" class="stopColorf4f4f9 svgShape"></stop></linearGradient><linearGradient id="H" x1="218.75" x2="254.78" y1="489.79" y2="489.79" gradientTransform="translate(50.3)" gradientUnits="userSpaceOnUse"><stop offset="0" stop-color="#c2d4e7" class="stopColorc2c8e7 svgShape"></stop><stop offset=".11" stop-color="#ceddec" class="stopColorced3ec svgShape"></stop><stop offset=".42" stop-color="#e9eff6" class="stopColore9ebf6 svgShape"></stop><stop offset=".69" stop-color="#f9fbfd" class="stopColorf9fafd svgShape"></stop><stop offset=".9" stop-color="#ffffff" class="stopColorffffff svgShape"></stop></linearGradient><linearGradient id="e" x1="967.84" x2="975.49" y1="579.05" y2="574.95" gradientTransform="matrix(.99 -.16 .16 .99 -776 74.86)" gradientUnits="userSpaceOnUse"><stop offset="0" stop-color="#7b3ead" class="stopColor423ead svgShape"></stop><stop offset=".47" stop-color="#612b8e" class="stopColor312b8e svgShape"></stop><stop offset="1" stop-color="#193f6f" class="stopColor20196f svgShape"></stop></linearGradient><linearGradient id="I" x1="960.91" x2="968.56" y1="581.66" y2="577.56" xlink:href="#e"></linearGradient><linearGradient id="J" x1="441.71" x2="466.31" y1="432.66" y2="432.66" gradientTransform="matrix(-1 0 0 1 723.37 0)" gradientUnits="userSpaceOnUse"><stop offset="0" stop-color="#652e92" class="stopColor362e92 svgShape"></stop><stop offset="1" stop-color="#6f67e7" class="stopColor6b67e7 svgShape"></stop></linearGradient><linearGradient id="f" x1="535.09" x2="568.97" y1="509.36" y2="509.36" gradientTransform="translate(-228.07)" gradientUnits="userSpaceOnUse"><stop offset="0" stop-color="#c2d4e6" class="stopColorc2c8e6 svgShape"></stop><stop offset=".11" stop-color="#cedceb" class="stopColorced3eb svgShape"></stop><stop offset=".42" stop-color="#e9eff6" class="stopColore9ebf6 svgShape"></stop><stop offset=".69" stop-color="#f9fbfd" class="stopColorf9fafd svgShape"></stop><stop offset=".9" stop-color="#ffffff" class="stopColorffffff svgShape"></stop></linearGradient><linearGradient id="K" x1="477.58" x2="511.47" y1="500.37" y2="500.37" gradientTransform="translate(-186.01)" xlink:href="#f"></linearGradient><linearGradient id="g" x1="-844.03" x2="-831.54" y1="499.17" y2="499.17" gradientTransform="matrix(-1 0 0 1 -543.55 0)" gradientUnits="userSpaceOnUse"><stop offset="0" stop-color="#7b3ead" class="stopColor423ead svgShape"></stop><stop offset=".31" stop-color="#6e359e" class="stopColor3a359e svgShape"></stop><stop offset=".91" stop-color="#1d4475" class="stopColor231d75 svgShape"></stop><stop offset="1" stop-color="#193f6f" class="stopColor20196f svgShape"></stop></linearGradient><linearGradient id="L" x1="-859.48" x2="-846.99" y1="508.16" y2="508.16" xlink:href="#g"></linearGradient><linearGradient id="M" x1="-854.05" x2="-832.58" y1="478.32" y2="478.32" gradientTransform="matrix(-1 0 0 1 -543.55 0)" gradientUnits="userSpaceOnUse"><stop offset="0" stop-color="#7b3ead" class="stopColor423ead svgShape"></stop><stop offset=".28" stop-color="#693197" class="stopColor363197 svgShape"></stop><stop offset=".74" stop-color="#20487a" class="stopColor26207a svgShape"></stop><stop offset="1" stop-color="#193f6f" class="stopColor20196f svgShape"></stop></linearGradient><linearGradient id="N" x1="-854.88" x2="-832.45" y1="439.78" y2="439.78" gradientTransform="matrix(-1 0 0 1 -543.55 0)" gradientUnits="userSpaceOnUse"><stop offset="0" stop-color="#e339c4" class="stopColore37139 svgShape"></stop><stop offset=".21" stop-color="#e640c8" class="stopColore67b40 svgShape"></stop><stop offset=".58" stop-color="#f052d3" class="stopColorf09752 svgShape"></stop><stop offset="1" stop-color="#6cb4fd" class="stopColorfdbf6c svgShape"></stop></linearGradient><linearGradient id="O" x1="2204.46" x2="2184.54" y1="447.73" y2="440.73" gradientTransform="translate(-1883.4)" gradientUnits="userSpaceOnUse"><stop offset="0" stop-color="#f94bd9" class="stopColorf9924b svgShape"></stop><stop offset="1" stop-color="#6cb4fd" class="stopColorfdbf6c svgShape"></stop></linearGradient><linearGradient id="P" x1="333.43" x2="446.12" y1="349.86" y2="349.86" gradientUnits="userSpaceOnUse"><stop offset="0" stop-color="#c0d2e4" class="stopColorc0c6e4 svgShape"></stop><stop offset=".42" stop-color="#e2eaf3" class="stopColore2e5f3 svgShape"></stop><stop offset=".77" stop-color="#f7f9fc" class="stopColorf7f8fc svgShape"></stop><stop offset="1" stop-color="#ffffff" class="stopColorffffff svgShape"></stop></linearGradient><linearGradient id="Q" x1="1085.14" x2="1165.11" y1="357.33" y2="357.33" gradientTransform="matrix(-1 0 0 1 1469.34 0)" gradientUnits="userSpaceOnUse"><stop offset=".24" stop-color="#793faa" class="stopColor423faa svgShape"></stop><stop offset=".3" stop-color="#7c41ac" class="stopColor4441ac svgShape"></stop><stop offset=".34" stop-color="#4d46b4" class="stopColor4946b4 svgShape"></stop><stop offset=".36" stop-color="#564fc2" class="stopColor524fc2 svgShape"></stop><stop offset=".38" stop-color="#635bd5" class="stopColor605bd5 svgShape"></stop><stop offset=".4" stop-color="#6e66e5" class="stopColor6b66e5 svgShape"></stop></linearGradient><linearGradient id="R" x1="332.64" x2="383.14" y1="348.18" y2="348.18" gradientUnits="userSpaceOnUse"><stop offset="0" stop-color="#d8e5f3" class="stopColord8def3 svgShape"></stop><stop offset=".31" stop-color="#dee9f5" class="stopColordee3f5 svgShape"></stop><stop offset=".74" stop-color="#f1f6fb" class="stopColorf1f3fb svgShape"></stop><stop offset="1" stop-color="#ffffff" class="stopColorffffff svgShape"></stop></linearGradient><linearGradient id="S" x1="1164.01" x2="1064.4" y1="171.36" y2="343.88" gradientTransform="matrix(-1 0 0 1 1469.34 0)" gradientUnits="userSpaceOnUse"><stop offset=".63" stop-color="#6f67e7" class="stopColor6b67e7 svgShape"></stop><stop offset=".7" stop-color="#193f6f" class="stopColor20196f svgShape"></stop></linearGradient><linearGradient id="T" x1="484.99" x2="587.54" y1="529.82" y2="529.82" gradientUnits="userSpaceOnUse"><stop offset="0" stop-color="#c2d2e3" class="stopColorc2c7e3 svgShape"></stop><stop offset=".41" stop-color="#d8e2ed" class="stopColord8dced svgShape"></stop><stop offset="1" stop-color="#ffffff" class="stopColorffffff svgShape"></stop></linearGradient><linearGradient id="U" x1="561.16" x2="638.58" y1="521.8" y2="521.8" gradientUnits="userSpaceOnUse"><stop offset="0" stop-color="#c2d2e2" class="stopColorc2c7e2 svgShape"></stop><stop offset=".2" stop-color="#d7e1ec" class="stopColord7daec svgShape"></stop><stop offset=".49" stop-color="#edf1f6" class="stopColoredeef6 svgShape"></stop><stop offset=".76" stop-color="#fafbfd" class="stopColorfafbfd svgShape"></stop><stop offset="1" stop-color="#ffffff" class="stopColorffffff svgShape"></stop></linearGradient><linearGradient id="i" x1="511.6" x2="678.51" y1="281.34" y2="281.34" gradientUnits="userSpaceOnUse"><stop offset="0" stop-color="#cfe0f1" class="stopColorcfd5f1 svgShape"></stop><stop offset="1" stop-color="#ffffff" class="stopColorffffff svgShape"></stop></linearGradient><linearGradient id="h" x1="650.92" x2="678.85" y1="246.87" y2="198.49" gradientTransform="matrix(-1 0 0 1 1241.6 0)" gradientUnits="userSpaceOnUse"><stop offset="0" stop-color="#7c3eaf" class="stopColor423eaf svgShape"></stop><stop offset=".21" stop-color="#5049bd" class="stopColor4d49bd svgShape"></stop><stop offset=".59" stop-color="#6f67e1" class="stopColor6a67e1 svgShape"></stop><stop offset=".84" stop-color="#857dfb" class="stopColor807dfb svgShape"></stop></linearGradient><linearGradient id="V" x1="616.33" x2="646.18" y1="295.83" y2="244.13" xlink:href="#h"></linearGradient><linearGradient id="W" x1="687.65" x2="748.93" y1="481.12" y2="481.12" gradientUnits="userSpaceOnUse"><stop offset=".33" stop-color="#c4d4e5" class="stopColorc4c9e5 svgShape"></stop><stop offset=".58" stop-color="#d7e2ed" class="stopColord7dbed svgShape"></stop><stop offset="1" stop-color="#ffffff" class="stopColorffffff svgShape"></stop></linearGradient><linearGradient id="X" x1="701.4" x2="719.91" y1="474.04" y2="474.04" gradientUnits="userSpaceOnUse"><stop offset="0" stop-color="#bbcee2" class="stopColorbbbfe2 svgShape"></stop><stop offset="1" stop-color="#dce9f7" class="stopColordce0f7 svgShape"></stop></linearGradient><linearGradient id="Y" x1="696.17" x2="707.98" y1="487.68" y2="487.68" gradientUnits="userSpaceOnUse"><stop offset="0" stop-color="#bbcee2" class="stopColorbbbfe2 svgShape"></stop><stop offset="1" stop-color="#cee1f4" class="stopColorced2f4 svgShape"></stop></linearGradient><linearGradient id="Z" x1="461.41" x2="467.23" y1="668.66" y2="678.4" gradientTransform="rotate(120 645.194 654.056)" gradientUnits="userSpaceOnUse"><stop offset="0" stop-color="#cee1f4" class="stopColorced2f4 svgShape"></stop><stop offset="1" stop-color="#bbcee2" class="stopColorbbbfe2 svgShape"></stop></linearGradient><linearGradient id="aa" x1="725.59" x2="733.65" y1="478.49" y2="478.49" gradientUnits="userSpaceOnUse"><stop offset=".4" stop-color="#bbcee2" class="stopColorbbbfe2 svgShape"></stop><stop offset="1" stop-color="#cee1f4" class="stopColorced2f4 svgShape"></stop></linearGradient><linearGradient id="ac" x1="420.64" x2="436.63" y1="602.62" y2="630.32" gradientUnits="userSpaceOnUse"><stop offset=".16" stop-color="#edeff1" class="stopColorededf1 svgShape"></stop><stop offset=".85" stop-color="#b9cee4" class="stopColorb9bee4 svgShape"></stop></linearGradient><linearGradient id="ad" x1="382.32" x2="397.61" y1="556.46" y2="582.96" gradientUnits="userSpaceOnUse"><stop offset=".23" stop-color="#edeff1" class="stopColorededf1 svgShape"></stop><stop offset=".43" stop-color="#e8ecf0" class="stopColore8e8f0 svgShape"></stop><stop offset=".68" stop-color="#d8e2ec" class="stopColord8daec svgShape"></stop><stop offset=".95" stop-color="#bed1e5" class="stopColorbec3e5 svgShape"></stop><stop offset="1" stop-color="#b9cee4" class="stopColorb9bee4 svgShape"></stop></linearGradient><linearGradient id="ae" x1="405.07" x2="419.35" y1="578.65" y2="603.37" gradientUnits="userSpaceOnUse"><stop offset=".16" stop-color="#edeff1" class="stopColorededf1 svgShape"></stop><stop offset=".39" stop-color="#e4e9ef" class="stopColore4e5ef svgShape"></stop><stop offset=".77" stop-color="#ccdae9" class="stopColorcccfe9 svgShape"></stop><stop offset="1" stop-color="#b9cee4" class="stopColorb9bee4 svgShape"></stop></linearGradient><linearGradient id="af" x1="194.09" x2="262.03" y1="305.16" y2="305.16" xlink:href="#i"></linearGradient><linearGradient id="j" x1="225.43" x2="236.57" y1="295.17" y2="314.48" gradientUnits="userSpaceOnUse"><stop offset=".16" stop-color="#857df9" class="stopColor807df9 svgShape"></stop><stop offset=".41" stop-color="#6f67df" class="stopColor6a67df svgShape"></stop><stop offset=".79" stop-color="#5049bb" class="stopColor4d49bb svgShape"></stop><stop offset="1" stop-color="#7b3ead" class="stopColor423ead svgShape"></stop></linearGradient><linearGradient id="ag" x1="210.78" x2="222.57" y1="276.41" y2="296.82" xlink:href="#j"></linearGradient><linearGradient id="ah" x1="454.48" x2="515.21" y1="521.18" y2="521.18" gradientUnits="userSpaceOnUse"><stop offset="0" stop-color="#cddeef" class="stopColorcdd3ef svgShape"></stop><stop offset=".3" stop-color="#e1ebf5" class="stopColore1e4f5 svgShape"></stop><stop offset=".73" stop-color="#f7f9fc" class="stopColorf7f8fc svgShape"></stop><stop offset="1" stop-color="#ffffff" class="stopColorffffff svgShape"></stop></linearGradient><linearGradient id="ai" x1="485.99" x2="560.35" y1="400.67" y2="529.47" gradientUnits="userSpaceOnUse"><stop offset=".3" stop-color="#716ade" class="stopColor6b6ade svgShape"></stop><stop offset=".37" stop-color="#6d3899" class="stopColor3d3899 svgShape"></stop><stop offset=".41" stop-color="#193f6f" class="stopColor20196f svgShape"></stop></linearGradient><linearGradient id="aj" x1="568.36" x2="578.74" y1="244.62" y2="267.74" gradientUnits="userSpaceOnUse"><stop offset="0" stop-color="#dae7f5" class="stopColordae0f5 svgShape"></stop><stop offset=".2" stop-color="#e7f0f9" class="stopColore7ebf9 svgShape"></stop><stop offset=".55" stop-color="#f9fbfd" class="stopColorf9fafd svgShape"></stop><stop offset=".8" stop-color="#ffffff" class="stopColorffffff svgShape"></stop></linearGradient><linearGradient id="ak" x1="559.58" x2="601.5" y1="284.82" y2="284.82" gradientUnits="userSpaceOnUse"><stop offset="0" stop-color="#dae7f5" class="stopColordae0f5 svgShape"></stop><stop offset="1" stop-color="#ffffff" class="stopColorffffff svgShape"></stop></linearGradient><linearGradient id="al" x1="538.62" x2="573.69" y1="239.05" y2="299.79" gradientUnits="userSpaceOnUse"><stop offset=".51" stop-color="#6db6ff" class="stopColorffaf6d svgShape"></stop><stop offset=".62" stop-color="#e539c6" class="stopColore57139 svgShape"></stop></linearGradient><mask id="o" width="96.11" height="249.54" x="165.92" y="275.23" maskUnits="userSpaceOnUse"><path fill="url(#b)" d="M259.48,299.41,220.16,276.7a13.73,13.73,0,0,0-12.36,0l-39.33,22.71c-1.7,1-2.55,2.27-2.55,3.57V497c0,1.3.85,2.59,2.55,3.57L207.8,523.3a13.73,13.73,0,0,0,12.36,0l39.32-22.71c1.7-1,2.55-2.27,2.55-3.57V303C262,301.68,261.18,300.39,259.48,299.41Z"></path></mask><mask id="p" width="241.82" height="392.22" x="440.43" y="203.89" maskUnits="userSpaceOnUse"><path fill="url(#a)" d="M682.25,526.3V273.7c0-3.26-2.13-6.51-6.41-9l-99-57.13c-8.55-4.94-22.55-4.94-31.1,0l-98.94,57.13c-4.28,2.47-6.42,5.72-6.42,9V526.3Z"></path></mask><mask id="r" width="203.85" height="330.64" x="250.63" y="287.86" maskUnits="userSpaceOnUse"><path fill="url(#k)" d="M454.48,559.65V346.71c0-2.75-1.8-5.49-5.41-7.57L365.67,291c-7.21-4.16-19-4.16-26.22,0L256,339.14c-3.61,2.08-5.41,4.82-5.41,7.57V559.65Z"></path></mask><mask id="t" width="164.41" height="301.74" x="213.98" y="444.78" maskUnits="userSpaceOnUse"><path fill="url(#l)" d="M374,486.14,306.75,447.3c-5.81-3.36-15.33-3.36-21.14,0l-67.27,38.84c-2.91,1.68-4.36,3.89-4.36,6.1V699.06c0,2.22,1.45,4.43,4.36,6.11L285.61,744c5.81,3.35,15.33,3.35,21.14,0L374,705.17c2.91-1.68,4.36-3.89,4.36-6.11V492.24C378.38,490,376.93,487.82,374,486.14Z"></path></mask><mask id="v" width="96.11" height="249.54" x="662.4" y="453.62" maskUnits="userSpaceOnUse"><path fill="url(#m)" d="M756,477.8l-39.32-22.7a13.66,13.66,0,0,0-12.36,0L665,477.8c-1.7,1-2.55,2.27-2.55,3.57v194c0,1.29.85,2.58,2.55,3.57l39.32,22.7a13.73,13.73,0,0,0,12.36,0L756,679c1.7-1,2.55-2.28,2.55-3.57v-194C758.5,480.07,757.65,478.78,756,477.8Z"></path></mask><mask id="y" width="235.37" height="381.75" x="406.84" y="453.62" maskUnits="userSpaceOnUse"><path fill="url(#n)" d="M642.2,767.43V521.57c0-3.17-2.08-6.34-6.24-8.74l-96.31-55.6c-8.32-4.81-21.94-4.81-30.27,0l-96.3,55.6c-4.16,2.4-6.24,5.57-6.24,8.74V767.43Z"></path></mask><clipPath id="x"><rect width="700.6" height="720" x="105.27" y="40" fill="none"></rect></clipPath><clipPath id="C"><rect width="53.86" height="86" x="160.12" y="550" fill="none"></rect></clipPath><clipPath id="E"><rect width="62.11" height="83.68" x="682.25" y="373.82" fill="none"></rect></clipPath><clipPath id="ab"><rect width="82.48" height="126.04" x="378.38" y="539.7" fill="none"></rect></clipPath><clipPath id="am"><polygon fill="none" points="524.73 227.41 534.22 232.89 536.75 241.08 570.58 260.62 579.87 232.89 536.75 209 524.73 227.41"></polygon></clipPath></defs><g style="isolation:isolate" fill="#f4f6f8" class="color000000 svgShape"><circle cx="744.03" cy="105.5" r="3.5" fill="#ffffff" class="colorffffff svgShape"></circle><polygon fill="none" stroke="#dae7f5" stroke-linecap="round" stroke-linejoin="round" points="692.5 249.95 650.36 225.62 692.5 201.29 734.63 225.62 692.5 249.95" class="colorStrokedae0f5 svgStroke"></polygon><polyline fill="none" stroke="#dae0f5" stroke-linecap="round" stroke-linejoin="round" points="650.36 225.62 650.36 274.27 692.5 298.6 734.63 274.27 734.63 225.62"></polyline><line x1="692.5" x2="692.5" y1="249.95" y2="298.6" fill="none" stroke="#dae7f5" stroke-linecap="round" stroke-linejoin="round" class="colorStrokedae0f5 svgStroke"></line><path fill="#dae7f5" d="M689.29 201.29a3.21 3.21 0 113.21 3.21A3.2 3.2 0 01689.29 201.29zM647.15 225.62a3.21 3.21 0 113.21 3.21A3.21 3.21 0 01647.15 225.62zM647.15 274.27a3.21 3.21 0 113.21 3.21A3.21 3.21 0 01647.15 274.27zM689.29 298.6a3.21 3.21 0 113.21 3.21A3.21 3.21 0 01689.29 298.6zM689.29 250a3.21 3.21 0 113.21 3.21A3.21 3.21 0 01689.29 250zM731.42 225.62a3.21 3.21 0 113.21 3.21A3.21 3.21 0 01731.42 225.62zM731.42 274.27a3.21 3.21 0 113.21 3.21A3.21 3.21 0 01731.42 274.27z" class="colordae0f5 svgShape"></path><g mask="url(#o)" fill="#f4f6f8" class="color000000 svgShape"><path fill="url(#c)" d="M165.92,303V497c0,1.3.85,2.59,2.55,3.57L207.8,523.3a13.73,13.73,0,0,0,12.36,0l39.32-22.71c1.7-1,2.55-2.27,2.55-3.57V303Z"></path><path fill="#f6f8fb" d="M168.47,306.54c-1.7-1-2.55-2.27-2.55-3.56s.85-2.59,2.55-3.57L207.8,276.7a13.73,13.73,0,0,1,12.36,0l39.32,22.71c1.7,1,2.55,2.27,2.55,3.57s-.85,2.58-2.55,3.56l-39.32,22.71a13.73,13.73,0,0,1-12.36,0Z" class="colorf6f6fb svgShape"></path></g><g mask="url(#p)" fill="#f4f6f8" class="color000000 svgShape"><path fill="url(#q)" d="M440.43,273.7V526.3c0,3.26,2.14,6.51,6.42,9l98.94,57.13c8.55,4.94,22.55,4.94,31.1,0l99-57.13c4.28-2.47,6.41-5.72,6.41-9V273.7Z"></path><path fill="#f6f8fb" d="M446.85,282.67c-4.28-2.46-6.42-5.72-6.42-9s2.14-6.51,6.42-9l98.94-57.13c8.55-4.94,22.55-4.94,31.1,0l99,57.13c4.28,2.47,6.41,5.72,6.41,9s-2.13,6.51-6.41,9l-99,57.12c-8.55,4.94-22.55,4.94-31.1,0Z" class="colorf6f6fb svgShape"></path></g><g mask="url(#r)" fill="#f4f6f8" class="color000000 svgShape"><path fill="url(#s)" d="M250.63,346.71V559.65c0,2.75,1.8,5.49,5.41,7.57l83.41,48.16c7.21,4.16,19,4.16,26.22,0l83.4-48.16c3.61-2.08,5.41-4.82,5.41-7.57V346.71Z"></path><path fill="#f6f8fb" d="M256,354.28c-3.61-2.08-5.41-4.83-5.41-7.57s1.8-5.49,5.41-7.57L339.45,291c7.21-4.16,19-4.16,26.22,0l83.4,48.16c3.61,2.08,5.41,4.82,5.41,7.57s-1.8,5.49-5.4,7.57l-83.41,48.15c-7.21,4.17-19,4.17-26.22,0Z" class="colorf6f6fb svgShape"></path></g><g mask="url(#t)" fill="#f4f6f8" class="color000000 svgShape"><path fill="url(#u)" d="M214,492.24V699.06c0,2.22,1.45,4.43,4.36,6.11L285.61,744c5.81,3.35,15.33,3.35,21.14,0L374,705.17c2.91-1.68,4.36-3.89,4.36-6.11V492.24Z"></path><path fill="#f4f6f8" d="M218.34,498.35c-2.91-1.68-4.36-3.89-4.36-6.11s1.45-4.42,4.36-6.1l67.27-38.84c5.81-3.36,15.33-3.36,21.14,0L374,486.14c2.91,1.68,4.36,3.89,4.36,6.1s-1.45,4.43-4.36,6.11l-67.27,38.84c-5.81,3.35-15.33,3.35-21.14,0Z" class="colorf4f4f9 svgShape"></path></g><g mask="url(#v)" fill="#f4f6f8" class="color000000 svgShape"><path fill="url(#w)" d="M662.4,481.37v194c0,1.29.85,2.58,2.55,3.57l39.32,22.7a13.73,13.73,0,0,0,12.36,0L756,679c1.7-1,2.55-2.28,2.55-3.57v-194Z"></path><path fill="#f6f8fb" d="M665,484.94c-1.7-1-2.55-2.28-2.55-3.57s.85-2.59,2.55-3.57l39.32-22.7a13.66,13.66,0,0,1,12.36,0L756,477.8c1.7,1,2.55,2.27,2.55,3.57s-.85,2.59-2.55,3.57l-39.32,22.7a13.73,13.73,0,0,1-12.36,0Z" class="colorf6f6fb svgShape"></path></g><g clip-path="url(#x)" mask="url(#y)" fill="#f4f6f8" class="color000000 svgShape"><path fill="url(#z)" d="M406.84,521.57V767.43c0,3.17,2.08,6.34,6.24,8.74l96.3,55.6c8.33,4.81,22,4.81,30.28,0l96.3-55.6c4.16-2.4,6.24-5.57,6.24-8.74V521.57Z"></path><path fill="#f6f8fb" d="M413.08,530.31c-4.16-2.41-6.24-5.57-6.24-8.74s2.08-6.34,6.24-8.74l96.3-55.6c8.33-4.81,22-4.81,30.27,0L636,512.83c4.16,2.4,6.24,5.57,6.24,8.74s-2.08,6.33-6.24,8.74l-96.3,55.6c-8.33,4.8-21.95,4.8-30.28,0Z" class="colorf6f6fb svgShape"></path></g><path fill="#f4f6f8" d="M466.05,416.93,438.7,401.14a3.32,3.32,0,0,1,0-6.28l27.35-15.79a12,12,0,0,1,10.88,0l27.35,15.79a3.32,3.32,0,0,1,0,6.28l-27.35,15.79a12,12,0,0,1-10.88,0Z" class="colorf4f4f9 svgShape"></path><path fill="url(#A)" d="M467,413.71l-22.69-13.1a2.76,2.76,0,0,1,0-5.22L467,382.29a10,10,0,0,1,9,0l22.69,13.1a2.76,2.76,0,0,1,0,5.22L476,413.71a10,10,0,0,1-9,0Z"></path><path fill="url(#B)" d="M504.28,401.14l-27.35,15.79a12,12,0,0,1-10.88,0L438.7,401.14a3.82,3.82,0,0,1-2.25-3.14v41.36a3.82,3.82,0,0,0,2.25,3.14l27.35,15.79a12,12,0,0,0,10.88,0l27.35-15.79a3.82,3.82,0,0,0,2.25-3.14V398A3.82,3.82,0,0,1,504.28,401.14Z"></path><g clip-path="url(#C)" fill="#f4f6f8" class="color000000 svgShape"><path fill="#cce1f6" d="M200,597.5v29.61a3.11,3.11,0,0,1-5.11,2.95l-25.64-14.8a11.26,11.26,0,0,1-5.1-8.84V576.81a3.11,3.11,0,0,1,5.1-2.95l25.64,14.81A11.26,11.26,0,0,1,200,597.5Z" class="colorccd1f6 svgShape"></path><path fill="url(#d)" d="M196.89,598.26v24.57a2.58,2.58,0,0,1-4.23,2.44L171.38,613a9.37,9.37,0,0,1-4.23-7.33V581.09a2.58,2.58,0,0,1,4.23-2.44l21.28,12.28a9.37,9.37,0,0,1,4.23,7.33Z"></path><path fill="url(#D)" d="M169.2,573.86l25.64,14.81A11.26,11.26,0,0,1,200,597.5v29.61a3.58,3.58,0,0,1-1.5,3.31L232,611a3.59,3.59,0,0,0,1.5-3.31V578.11a11.3,11.3,0,0,0-5.11-8.84l-25.64-14.8a3.58,3.58,0,0,0-3.61-.36L165.59,573.5A3.61,3.61,0,0,1,169.2,573.86Z"></path></g><g clip-path="url(#E)" fill="#f4f6f8" class="color000000 svgShape"><path fill="#b9cee4" d="M696,418.89V442.1a2.44,2.44,0,0,0,4,2.31l20.1-11.61a8.11,8.11,0,0,0,2.82-3,8.23,8.23,0,0,0,1.18-3.94V402.67a2.44,2.44,0,0,0-4-2.31L700,412a8.85,8.85,0,0,0-4,6.93Z" class="colorb9bee4 svgShape"></path><path fill="url(#F)" d="M698.35,419.49v19.25a2,2,0,0,0,3.32,1.92L718.34,431a7.33,7.33,0,0,0,3.32-5.75V406a2,2,0,0,0-3.32-1.92l-16.67,9.63a6.7,6.7,0,0,0-2.35,2.48A6.78,6.78,0,0,0,698.35,419.49Z"></path><path fill="url(#G)" d="M720.06,400.36,700,412a8.85,8.85,0,0,0-4,6.93V442.1a2.8,2.8,0,0,0,1.17,2.59l-26.33-15.2a2.82,2.82,0,0,1-1.17-2.59V403.69a8.18,8.18,0,0,1,1.17-3.94,8.09,8.09,0,0,1,2.83-3l20.1-11.6a2.8,2.8,0,0,1,2.83-.28l26.32,15.2A2.79,2.79,0,0,0,720.06,400.36Z"></path></g><polygon points="305.07 484.42 273.22 484.44 269.05 491.46 274.15 491.46 271.96 495.16 305.07 495.14 305.07 484.42" style="mix-blend-mode:multiply" fill="url(#H)"></polygon><path fill="#a7d0fa" d="M276.61,422.39c.36.55,8.95-1.68,9.74-2.22,1.16-.79,2.32-2.09,3.08-2.44a12.22,12.22,0,0,1,2.67-.78c.41,0,1.85.39,1.69.91s-1-.17-1.18.1c.24.08.85.61.79,1.12s-.26.35-.26.35c.12.26.15.61-.05.73.09.22.31.58-.25.72a6.62,6.62,0,0,0-1.86.54c-1.13.84-3.94.95-4.28,1.13s-7.11,3.38-8.54,3.79c-5.58,1.6-5.54-8.23-4.24-8.23C276.32,418.11,275.84,421.2,276.61,422.39Z" class="colorfacfa7 svgShape"></path><path fill="url(#e)" d="M272,484.06c-1.54.25-2,2.73-1.22,4.29a6,6,0,0,0,1.69,1,45.92,45.92,0,0,0,5.95,2.08c1.1.09,3.53-.32,3.73-2.19-.19-1.14-1.15-1.45-2.33-2.15-1.53-.91-2.85-2.23-4.08-2.84C274.68,483.78,272,484.06,272,484.06Z"></path><path fill="#a7d0fa" d="M274.91,482.47c-.75.13-3.16.72-3.16.72s-.9,2.51.51,2.95c2.74.86,5.08-1,4-1.6A2,2,0,0,1,274.91,482.47Z" class="colorfacfa7 svgShape"></path><path fill="#0c2340" d="M278.35,491a48.15,48.15,0,0,1-6.13-2.14,6.54,6.54,0,0,1-1.68-1,3.62,3.62,0,0,0,.2.55,6,6,0,0,0,1.69,1,45.92,45.92,0,0,0,5.95,2.08c1.1.09,3.53-.32,3.73-2.19a.35.35,0,0,1,0-.11C281.56,490.7,279.38,491.05,278.35,491Z" class="color131147 svgShape"></path><path fill="#652e92" d="M276.72,484.91c-.2-.27-.67-1-1.51-.39a2,2,0,0,0-1,2c.1.62,1.91.16,2,.07S276.72,484.91,276.72,484.91Z" class="color362e92 svgShape"></path><path fill="#ffffff" d="M277.55 485.69a3.64 3.64 0 00-1.63 1.59.5.5 0 01-.66.23.49.49 0 01-.23-.65 4.66 4.66 0 012.14-2.08.49.49 0 01.64.26A.5.5 0 01277.55 485.69zM279.07 486.66a3.64 3.64 0 00-1.63 1.59.5.5 0 01-.66.23.49.49 0 01-.23-.66 4.62 4.62 0 012.13-2.07.5.5 0 01.65.26A.5.5 0 01279.07 486.66z" class="colorffffff svgShape"></path><path fill="#a7d0fa" d="M274.49 433.36c.74 9.16 2 17.87 2 25.22 0 8.4-1.46 17.26-1.54 24.3.07 2.16-2.38 3.85-3.41 1.95-.05-.63.24-1.43.14-2.35-.63-5.36-2.47-13.6-.92-20.54-2.13-9.2-8-20.56-7.12-27.78C266.26 432.84 272.45 432.71 274.49 433.36zM273.31 404.38c2.4 1.18 3.28 3 3.28 6.56C275 409.93 273.31 404.38 273.31 404.38z" class="colorfacfa7 svgShape"></path><polygon fill="#6822a2" points="272.03 436.85 272.03 438.39 270.69 437.62 272.03 436.85" class="color423ead svgShape"></polygon><path fill="url(#I)" d="M265.54,487.75c-1.54.25-2,2.73-1.22,4.29a6,6,0,0,0,1.69,1,47.27,47.27,0,0,0,5.95,2.09c1.1.09,3.53-.32,3.73-2.19-.19-1.14-1.15-1.46-2.33-2.16-1.53-.91-2.85-2.23-4.08-2.84C268.26,487.47,265.54,487.75,265.54,487.75Z"></path><path fill="#a7d0fa" d="M268.49,486.17c-.75.12-3.16.72-3.16.72s-.89,2.5.52,2.94c2.73.86,5.07-1,4-1.59A2.07,2.07,0,0,1,268.49,486.17Z" class="colorfacfa7 svgShape"></path><path fill="#0c2340" d="M271.93,494.66a48.72,48.72,0,0,1-6.13-2.14,6.69,6.69,0,0,1-1.68-1,4.46,4.46,0,0,0,.2.55,6,6,0,0,0,1.69,1,47.27,47.27,0,0,0,5.95,2.09c1.1.09,3.53-.32,3.73-2.19l0-.12C275.14,494.39,273,494.74,271.93,494.66Z" class="color131147 svgShape"></path><path fill="#652e92" d="M270.31,488.6c-.21-.27-.68-1-1.52-.39a2,2,0,0,0-1,2c.11.62,1.91.16,2,.07S270.31,488.6,270.31,488.6Z" class="color362e92 svgShape"></path><path fill="#ffffff" d="M271.13 489.38A3.64 3.64 0 00269.5 491a.49.49 0 01-.89-.42 4.66 4.66 0 012.14-2.08.49.49 0 01.38.91zM272.65 490.35a3.64 3.64 0 00-1.63 1.59.49.49 0 01-.89-.42 4.69 4.69 0 012.13-2.08.5.5 0 01.65.27A.48.48 0 01272.65 490.35z" class="colorffffff svgShape"></path><path fill="#a7d0fa" d="M269.46,437.3c0,8.42.09,17.83.09,25.17,0,8.41-1,17.06-1.06,24.1.08,2.16-2.38,3.86-3.41,1.95-.05-.63.25-1.42.14-2.35-.63-5.36-2.47-13.6-.92-20.54-2.13-9.2-5.41-18.89-3.46-28.26C263.5,436,267.42,436.65,269.46,437.3Z" class="colorfacfa7 svgShape"></path><path fill="url(#J)" d="M263.13,426.48c.69-6.34-2.3-12.32-2.85-16.28-.34-2.5-.59-5.43,1.67-6.14a14.05,14.05,0,0,1,5.31-1c4.89.12,7.17,1.12,8.17,4.48.94,3.17,1.6,4.13,2.37,7.24.35,1.39-3.48,4.41-3,10.42,3.39,5.13,5.83,16.72,6.86,25.83.4,2.74-2.39,6.27-7.33,8.74-6.22,3.11-13.48,3.36-16.21.56a3.51,3.51,0,0,1-1-2.35C257.05,454.74,258.89,431.75,263.13,426.48Z"></path><path fill="#a7d0fa" d="M265.53,397.1c.08-1.5,5.22,1.49,5.11,3.47-.09,1.61-.3,3.24.3,3.44.7.51,2.79,5.86,1.53,7.12-4.36-1.79-6.64-5.57-10.52-7.07C263.54,403.74,265.25,402,265.53,397.1Z" class="colorfacfa7 svgShape"></path><path fill="#a7d0fa" d="M264.29,395l1.55-3.87h9.8v5.9c0,3.26-2.19,5.9-4.9,5.9s-4.75-2.49-4.88-5.61l-.68,0Z" class="colorfacfa7 svgShape"></path><path fill="#9bc5f0" d="M266.71,400.36a4.73,4.73,0,0,0,3.83,2.58,1.56,1.56,0,0,0,.24,1,3.35,3.35,0,0,1-.77-.07A4.71,4.71,0,0,1,266.71,400.36Z" class="colorf0c19b svgShape"></path><path fill="#193f6f" d="M270.09,387a.33.33,0,0,1,.1,0c5.34.13,5.75,4.13,5.45,4.79-1.7.61-2.77-.54-3.83-.45-.51,0-2.6.32-3.47,1.43s-.63,3.09-1.5,3c-.38,0-.5-1.29-1.07-1.32a1,1,0,0,0-.9,1.14c.08,1,1,1.58.87,2.06-.23.78-2.19-.63-2.15-3.42S265.48,386.85,270.09,387Z" class="color20196f svgShape"></path><path fill="#a7d0fa" d="M260.62,429.49l-1.05,2.63c-3.67-1.91-5.82-6.91-6-10.93-.28-5.43,5.34-14.6,5.63-15,1.42-2.12,4.8-.24,3.68,2.47-.24.55-6,10-5.38,13.22C257.9,424.06,258.62,428.11,260.62,429.49Z" class="colorfacfa7 svgShape"></path><path fill="#193f6f" d="M269.42,387.05c-5.68.4-6.37,6-8.63,7.52-1.35.91-4.36-.8-6.12,2.25-2,3.51,1.25,4.79-.9,6.27s-3.8,6-.21,8.81,8.06.34,7.55-3.74c-.36-2.93.51-4.45,3-3.5,1.84.71,2.55-.75,1.72-2.63,4.1.41-.2-7.42,6-10.65C271.57,389.78,269.42,387.05,269.42,387.05Z" class="color20196f svgShape"></path><path fill="#a7d0fa" d="M260.62,429.49c.43.28,2.78-.27,3.34-.27a11.72,11.72,0,0,1,3.37.41c1.29.42,2.16.89,1.29,1.09.47.1,1.58.55.7.81-.08.3-.4.71-1.36.67a8.35,8.35,0,0,1-3.26.61c-.72.22-4.54.14-5.13-.69A4.58,4.58,0,0,1,260.62,429.49Z" class="colorfacfa7 svgShape"></path><rect width="33.89" height="6.23" x="307.01" y="506.24" style="mix-blend-mode:multiply" fill="url(#f)"></rect><rect width="33.88" height="6.23" x="291.57" y="497.25" style="mix-blend-mode:multiply" fill="url(#K)"></rect><path fill="url(#g)" d="M288,501.56c0-4.89,3.1-5,3.1-5a12.84,12.84,0,0,0,4.41-1.13c2.69-1.12,6.48-.69,4.36,3.22a.46.46,0,0,1-.07.14,2,2,0,0,1-.68.61l-6.78,4C291.3,503.93,288,502.57,288,501.56Z"></path><path fill="#102847" d="M288,501.12c.06,1,3.3,2.34,4.32,1.76l6.78-4a6.2,6.2,0,0,0,.95-.7c-.06.13-.12.26-.2.41a.46.46,0,0,1-.07.14,2,2,0,0,1-.68.61l-6.78,4c-1,.55-3.91-.61-4.29-1.59a.74.74,0,0,1,0-.19A2.16,2.16,0,0,1,288,501.12Z" class="color121047 svgShape"></path><path fill="#ffffff" d="M289.25,495.88a28.16,28.16,0,0,1,3.61.72,1.55,1.55,0,0,0,.26.73l.07.09c.56.39,1.12,1-.19,1.82a1.81,1.81,0,0,1-2.37-.17,2.18,2.18,0,0,0-.77-.86,1.82,1.82,0,0,0-.73-.31.56.56,0,0,0,0-.07S288.92,495.88,289.25,495.88Z" class="colorffffff svgShape"></path><path fill="#0c2340" d="M289.2,448l13.79.25c-1.14,9.21-3.44,17.57-5,26.49-1.65,8.67-3.5,14.76-5.12,22-.59,1.34-3.3.84-3.85-.46-.42-6.64-.92-14.73,1.05-22.39C289.77,465.63,289,456.39,289.2,448Z" class="color131147 svgShape"></path><path fill="url(#L)" d="M303.44,510.55c0-4.89,3.1-5,3.1-5a12.84,12.84,0,0,0,4.41-1.13c2.69-1.12,6.48-.69,4.36,3.22,0,.05-.05.09-.07.14a1.93,1.93,0,0,1-.69.61l-6.78,4C306.74,512.92,303.46,511.56,303.44,510.55Z"></path><path fill="#102847" d="M303.46,510.11c.05,1,3.29,2.34,4.31,1.76l6.78-4a6.2,6.2,0,0,0,.95-.7c-.06.13-.11.26-.19.41s-.05.09-.07.14a1.93,1.93,0,0,1-.69.61l-6.78,4c-1,.55-3.9-.61-4.29-1.58a.88.88,0,0,1,0-.2A3.2,3.2,0,0,1,303.46,510.11Z" class="color121047 svgShape"></path><path fill="#ffffff" d="M304.7,504.87a28.16,28.16,0,0,1,3.61.72,1.6,1.6,0,0,0,.25.73l.07.09c.56.39,1.13,1-.19,1.82a1.83,1.83,0,0,1-2.37-.16,2.19,2.19,0,0,0-.76-.87,1.9,1.9,0,0,0-.74-.31v-.07S304.36,504.87,304.7,504.87Z" class="colorffffff svgShape"></path><path fill="url(#M)" d="M298.92,469.94c-.83-4-10.49-4.45-9.86-20,3-.45,18.32,6.72,21.35,6.28.38,9.27-.52,17.89-.57,26.94-.21,8.82-1,15.13-1.46,22.51-.36,1.42-3.12,1.36-3.87.18-1.51-6.48-3.32-14.39-2.63-22.27C301,479.2,299.9,474.58,298.92,469.94Z"></path><path fill="#a50b89" d="M296.05,419.7c-10.78,7.21-12.07,21.53-6.24,30.61C289.81,450.31,288.56,430.18,296.05,419.7Z" class="colore37139 svgShape"></path><path fill="url(#N)" d="M295.56,458.75c6.56,3.69,13.43,3.69,15.77-.84-.87-8.43-1.69-15.29,0-23.38-.5-4.46-.85-5.13-.28-7.73-.2-.88-2.89-2.74-4.85-4.53s-3.54-3.76-4.63-4c-9-1.84-13.33,14.16-12.58,31.22A12.41,12.41,0,0,0,295.56,458.75Z"></path><path fill="#a7d0fa" d="M296.6,419.31c1.94-1.41,1.79-4.32,1.62-6.25a9.62,9.62,0,0,1-.36-3.34c.29-4.25,3.25-7.75,6.55-7.3,6.66.91,5.23,4.36,4.95,8.61-.27,3.94-2.24,6.54-5.26,6.79a5.67,5.67,0,0,0,1,3.44c-2.2,1.31-5.39.69-6.66.12S295.68,420.25,296.6,419.31Z" class="colorfacfa7 svgShape"></path><path fill="#193f6f" d="M307.07,400.34c-.16-.53-1.17-.88-4.63.46l-.9.35c-6.4,2.77-4.86,10.16-3.9,12.12a4,4,0,0,1,.51,2.32c2.51-.1,3.31,1.32,4.92-.09a32.25,32.25,0,0,0,3.18-2.7,2,2,0,0,0,.24-1.22c0-3.54,1.64-1.38,1.59-.56.67-.33.62-1.75.58-3.34h0C314.09,403.63,311.18,400.83,307.07,400.34Z" class="color20196f svgShape"></path><path fill="#a7d0fa" d="M310.55,461a2.21,2.21,0,0,1-3.25.11c-1.06-1.12-.45-2.36-1-2.74-1.59-1-2-2-1.69-2.94,1.27.81,2.58,2.11,3.69,1.32s2.56-1.87,2.64-3c1.65.38,1.74,4,.88,5.4A15.12,15.12,0,0,1,310.55,461Z" class="colorfacfa7 svgShape"></path><path fill="url(#O)" d="M308.32,458.21c-.82,2-.25,3.24,1.76,3.46,5-2.56,7.93-9.76,8-13.71.15-6.59-3-14.87-7.12-21.36-.94-1.4-4-.87-5.49,1.11-2,2.68-1.17,6.58,0,8.16,3,4.71,6.23,8.21,6.55,12C312.31,451.35,310.88,456,308.32,458.21Z"></path><path d="M385.28,361.51h60.84L384.43,325.9l-49.34,28.33c-2.21,1.28-2.21,3.37,0,4.64l23.68,13.66-3.6,1.29H361a11,11,0,0,0,5.54-1.46Z" style="mix-blend-mode:multiply" fill="url(#P)"></path><path fill="#ffffff" d="M329.25,324.94a8.88,8.88,0,0,1,8,0l45.27,26.13c2.21,1.28,2.21,3.36,0,4.64L359.19,369.2a9,9,0,0,1-8,0l-45.27-26.14c-2.21-1.27-2.21-3.36,0-4.64Z" class="colorffffff svgShape"></path><path fill="url(#Q)" d="M305.88,343.06l45.27,26.14a9,9,0,0,0,8,0l23.36-13.49a2.86,2.86,0,0,0,1.65-2.22s0,3.56,0,3.56a2.82,2.82,0,0,1-1.66,2.32l-23.36,13.49a8.9,8.9,0,0,1-8,0l-45.27-26.13a2.77,2.77,0,0,1-1.64-2.42v-3.47A2.85,2.85,0,0,0,305.88,343.06Z"></path><path d="M353.94,338.51h-21.3a3,3,0,0,0,1.64,2.07L359.22,355l-.18.39-4.29,2.48h24.1l4.29-2.48Z" style="mix-blend-mode:multiply" fill="url(#R)"></path><path fill="#cce1f6" d="M328.77,333.91a38.54,38.54,0,0,0,1.82-12.28l3.22-1.86c0,.82,0,2.08-.11,3.65l26.1,15.07a36.82,36.82,0,0,1-5.05,19.36L325.54,341Z" class="colorccd1f6 svgShape"></path><polygon fill="#b2bbc4" points="330.59 321.63 359.8 338.49 363.01 336.63 333.81 319.77 330.59 321.63" class="colorc4b2b9 svgShape"></polygon><path fill="#b9cee4" d="M354.75,357.85a36.82,36.82,0,0,0,5.05-19.36l3.21-1.86a43.09,43.09,0,0,1-4,18.74Z" class="colorb9bee4 svgShape"></path><path d="M358.19,350.11l3.45-2a42,42,0,0,0,1.12-6.21l-3.25,1.88A37.38,37.38,0,0,1,358.19,350.11Z" style="mix-blend-mode:multiply" fill="#d6e3f1" class="colord6dcf1 svgShape"></path><path fill="#d5e8fb" d="M398.54,347v14.67c0,2.55-1.8,3.59-4,2.32L286.26,301.48a8.93,8.93,0,0,1-4-7V279.85Z" class="colord5dbfb svgShape"></path><path fill="#b9cee4" d="M398.54,361.67V347l4.36-2.52v14.67a2.8,2.8,0,0,1-1.19,2.6l-4.18,2.4A2.93,2.93,0,0,0,398.54,361.67Z" class="colorb9bee4 svgShape"></path><polygon fill="#ffffff" points="286.26 282.17 394.53 344.68 394.53 272.11 286.26 209.6 286.26 282.17" class="colorffffff svgShape"></polygon><path fill="#6822a2" d="M394.53,267.47,286.26,205c-2.21-1.28-4-.24-4,2.32v72.57l4,2.32V209.6l108.27,62.51v72.57l4,2.32V274.43A8.88,8.88,0,0,0,394.53,267.47Z" class="color423ead svgShape"></path><path fill="url(#S)" d="M290.61,202.44,398.88,265a8.93,8.93,0,0,1,4,7v72.57L398.54,347V274.43a8.88,8.88,0,0,0-4-7L286.26,205a3.1,3.1,0,0,0-2.41-.45l3.49-2C288.07,201.75,289.26,201.66,290.61,202.44Z"></path><path fill="#6db6ff" d="M365.27,289.47a12.34,12.34,0,0,0-3.36-1.37c-.47-7.58-5.75-16.4-12.2-20.12a10.66,10.66,0,0,0-5.89-1.66c-2.08-7.78-7.55-15.64-14-19.35-8.22-4.74-14.88-.9-14.88,8.59a24.21,24.21,0,0,0,.63,5.33,20.18,20.18,0,0,0-1.71-1.13c-6.5-3.75-11.78-.71-11.78,6.8s5.28,16.65,11.78,20.4l51.38,29.67c6.49,3.74,11.75.71,11.75-6.79S371.76,293.22,365.27,289.47Z" class="colorffaf6d svgShape"></path><polygon fill="#ffffff" points="332.97 264.87 328.39 270.95 331.13 272.53 331.13 290.43 334.82 292.56 334.82 274.66 337.55 276.24 332.97 264.87" class="colorffffff svgShape"></polygon><polygon fill="#ffffff" points="344.64 289.5 344.64 271.61 340.95 269.48 340.95 287.37 338.22 285.79 342.8 297.17 347.38 291.08 344.64 289.5" class="colorffffff svgShape"></polygon><polygon fill="#857dfb" points="378.06 273.55 365.77 266.45 365.77 261.64 378.06 268.74 378.06 273.55" class="color807dfb svgShape"></polygon><polygon fill="#5046e4" points="383.21 276.52 378.06 273.55 378.06 268.74 383.21 271.71 383.21 276.52" class="color5652cc svgShape"></polygon><polygon fill="#cee3f8" points="390.35 280.64 383.21 276.52 383.21 271.71 390.35 275.83 390.35 280.64" class="colorced3f8 svgShape"></polygon><polygon fill="#857dfb" points="379.25 281.56 374.49 278.81 374.49 274 379.25 276.75 379.25 281.56" class="color807dfb svgShape"></polygon><polygon fill="#5046e4" points="384.94 284.85 379.25 281.56 379.25 276.75 384.94 280.04 384.94 284.85" class="color5652cc svgShape"></polygon><polygon fill="#cee3f8" points="390.35 287.97 384.94 284.85 384.94 280.04 390.35 283.16 390.35 287.97" class="colorced3f8 svgShape"></polygon><path fill="#cee3f8" d="M303.33,232.71a15.24,15.24,0,0,0-6.87-12c-3.8-2.21-6.88-.43-6.88,4a15.29,15.29,0,0,0,6.88,12C300.26,238.89,303.34,237.11,303.33,232.71Z" class="colorced3f8 svgShape"></path><path fill="#ffffff" d="M295.16,227.36a4.42,4.42,0,0,1-.88-2.47c0-1.27.81-1.83,1.81-1.25A4.19,4.19,0,0,1,297.9,227c0,.84-.35,1.35-.88,1.45a7.94,7.94,0,0,1,2.51,4.81l-3.44-2-3.43-2A1.93,1.93,0,0,1,295.16,227.36Z" class="colorffffff svgShape"></path><path d="M587.54,514.13H488.88c-5.52,0-4.33,3.3-1.57,4.9l43.93,25.48c1.51.85,6.47,1,12,1h44.31Z" style="mix-blend-mode:multiply" fill="url(#T)"></path><polygon points="608.52 504.45 561.16 504.45 591.22 521.8 561.16 539.16 608.52 539.16 638.58 521.8 608.52 504.45" style="mix-blend-mode:multiply" fill="url(#U)"></polygon><polygon fill="#6822a2" points="561.16 539.16 591.22 521.8 591.22 482.14 561.16 499.5 561.16 539.16" class="color423ead svgShape"></polygon><polygon fill="#5a52ca" points="561.16 539.16 531.11 521.8 531.11 482.14 561.16 499.5 561.16 539.16" class="color5652ca svgShape"></polygon><polygon fill="#857df9" points="561.16 499.5 531.11 482.14 561.16 464.79 591.22 482.14 561.16 499.5" class="color807df9 svgShape"></polygon><polygon fill="#6f67e7" points="561.16 488.94 549.39 482.14 561.16 475.35 572.94 482.14 561.16 488.94" class="color6b67e7 svgShape"></polygon><polygon fill="#652e92" points="587.22 494.68 565.17 507.41 565.17 503.86 587.22 491.13 587.22 494.68" class="color362e92 svgShape"></polygon><polygon fill="#652e92" points="587.22 502.52 565.17 515.25 565.17 511.71 587.22 498.98 587.22 502.52" class="color362e92 svgShape"></polygon><polygon fill="#652e92" points="587.22 510.37 565.17 523.1 565.17 519.56 587.22 506.82 587.22 510.37" class="color362e92 svgShape"></polygon><polygon fill="#652e92" points="587.22 518.32 565.17 531.05 565.17 527.51 587.22 514.77 587.22 518.32" class="color362e92 svgShape"></polygon><polygon points="571.63 503.72 568.52 505.52 568.52 501.93 571.63 500.13 571.63 503.72" style="mix-blend-mode:screen" fill="#fa0ace" class="colorfab80a svgShape"></polygon><polygon fill="#0c2340" points="584.18 504.32 581.07 506.12 581.07 502.53 584.18 500.73 584.18 504.32" class="color131147 svgShape"></polygon><polygon points="584.18 512.17 581.07 513.97 581.07 510.37 584.18 508.58 584.18 512.17" style="mix-blend-mode:screen" fill="#fa0ace" class="colorfab80a svgShape"></polygon><polygon fill="#0c2340" points="576.19 524.73 573.08 526.53 573.08 522.94 576.19 521.14 576.19 524.73" class="color131147 svgShape"></polygon><path d="M678.51,280.8a199.35,199.35,0,0,0-22.87-4.61,12.17,12.17,0,0,0-4.41-3.72c-11.26-6.5-38.32-11.78-61-12a17.35,17.35,0,0,0-1.87-1.23c-10-5.78-34.34-10.46-54.35-10.46s-28.12,4.68-18.11,10.46l79.8,46.07c5.69,3.28,15.14,6.28,26.09,8.55l54.06-31.2A18.76,18.76,0,0,0,678.51,280.8Z" style="mix-blend-mode:multiply" fill="url(#i)"></path><path fill="#dfe9f4" d="M513,216a25.28,25.28,0,0,1,2.14,1.4c.35-12.7,9.49-17.77,20.75-11.27a34.14,34.14,0,0,1,6.45,4.9c4.28-4.92,11.55-5.6,19.84-.82,12.62,7.29,22.93,24.56,23.79,39.38a23.26,23.26,0,0,1,6.83,2.71c12.34,7.13,22.35,24.45,22.35,38.71,0,.69,0,1.34-.09,2-.91,12.77-10.52,17.69-22.26,10.91L513,257.82C503,252,494.91,238,494.91,226.44S503,210.2,513,216Z" class="colordfe4f4 svgShape"></path><path fill="url(#h)" d="M559.2,200.57l2.86-1.66h0c4.35-2.9,10.56-2.71,17.46,1.28,12.62,7.29,22.93,24.56,23.79,39.38h0l-17.31,10c-.86-14.82-11.17-32.09-23.79-39.38-6.27-3.62-12-4.1-16.21-2h0Z"></path><path fill="#857dfb" d="M517.42,204.78h0a9.61,9.61,0,0,1,5.75-1.23l-1.75,1h0c-3.72,2.05-6.08,6.48-6.25,12.82A25.28,25.28,0,0,0,513,216c-5-2.87-9.48-3.16-12.75-1.3Z" class="color807dfb svgShape"></path><path fill="url(#V)" d="M610.14,242.28c12.34,7.13,22.35,24.46,22.35,38.71,0,.69,0,1.35-.09,2-.42,6-2.74,10.2-6.28,12.35h0l0,0-.12.07-17.17,9.91h0c3.54-2.15,5.86-6.4,6.28-12.35,0-.65.09-1.3.09-2,0-14.26-10-31.58-22.35-38.71a23.26,23.26,0,0,0-6.83-2.71h0l17.31-10A23.11,23.11,0,0,1,610.14,242.28Z"></path><path fill="#857dfb" d="M523.17,203.55l15.39-8.88h0c3.75-2.17,8.94-1.87,14.67,1.44a33.49,33.49,0,0,1,6,4.46L546,208.19h0a11.6,11.6,0,0,0-3.63,2.82,34.14,34.14,0,0,0-6.45-4.9c-5.65-3.26-10.76-3.61-14.5-1.55h0Z" class="color807dfb svgShape"></path><path d="M742.13,478a7.84,7.84,0,0,0-.89-1.26c-1.21-1.2,1.58-3.22,2.84-3.94,0,0-3.67-2.14-3.67-2.14H729.53a4.83,4.83,0,0,1-.91-2.84H723.4a4.31,4.31,0,0,1-1.79,3.58,2.84,2.84,0,0,1-1.05.36c-.74.15-1.47.32-2.17.52h-.1c-.7-.2-1.42-.38-2.16-.52-2.33-.35-2.81-2.92-2.8-3.95h-5.22a4.34,4.34,0,0,1-1.79,3.59,3,3,0,0,1-1.06.36,22.13,22.13,0,0,0-2.17.52c-2.4.52-5.55-.91-6.8-1.64l-3.7,2.14c1.25.73,4,2.74,2.8,3.95a7.49,7.49,0,0,0-.91,1.25,1.33,1.33,0,0,1-.63.61c-1.44.83-4.72,1-6.19,1v3c1.77,0,6.2.28,6.8,1.63a7.84,7.84,0,0,0,.89,1.26c1.21,1.2-1.58,3.22-2.84,3.95l3.67,2.13.46-.24-.43.24h10.87a5,5,0,0,1,.89,2.83h20.5l5.12-2.84h6.71l3.7-2.14c-1.26-.73-4-2.74-2.8-3.94.21-.25.4-.51.58-.76h3.44l3.7-2.14,0-3C747,479.69,742.73,479.33,742.13,478Z" style="mix-blend-mode:multiply" fill="url(#W)"></path><path fill="#d1e2f3" d="M695.69,467.2c0-1.18-2.07-2.65-3.1-3.25l0,8.81c1,.6,3.11,2.08,3.11,3.25Z" class="colord1d7f3 svgShape"></path><path fill="#bbcee2" d="M728.82,472.76l0-8.81c-1,.6-3.14,2.09-3.14,3.26l0,8.82C725.67,474.85,727.77,473.36,728.82,472.76Z" class="colorbbbfe2 svgShape"></path><path fill="url(#X)" d="M704.15,477.32a14.43,14.43,0,0,1,13.08,0c1.78,1,2.68,2.4,2.68,3.76l0-8.81c0-1.36-.9-2.72-2.69-3.76a14.41,14.41,0,0,0-13.07,0c-1.82,1.05-2.73,2.43-2.73,3.81l0,8.81C701.42,479.76,702.33,478.38,704.15,477.32Z"></path><polygon fill="#cee1f4" points="696.17 482.78 692.5 480.64 692.52 489.46 696.2 491.59 696.17 482.78" class="colorced2f4 svgShape"></polygon><polygon fill="#bbcee2" points="728.72 489.46 728.7 480.64 725 482.78 725.02 491.59 728.72 489.46" class="colorbbbfe2 svgShape"></polygon><path fill="url(#Y)" d="M703,490c.7.2,1.43.38,2.16.52,2.3.34,2.8,2.85,2.8,3.91l0-8.82c0-1.05-.5-3.56-2.8-3.9-.74-.15-1.46-.32-2.17-.52-2.07-.71-5.56.9-6.82,1.63l0,8.81C697.46,490.86,701,489.25,703,490Z"></path><path fill="url(#Z)" d="M715,490.84a3,3,0,0,1,1-.36c.74-.14,1.46-.32,2.16-.52,2.09-.71,5.56.9,6.81,1.63l0-8.81c-1.26-.73-4.73-2.34-6.81-1.63-.71.2-1.43.37-2.17.52a3,3,0,0,0-1,.35c-1.42.82-1.72,2.7-1.8,3.59l0,8.82C713.28,493.53,713.58,491.66,715,490.84Z"></path><path fill="#e8eff7" d="M695.34,476.7c1.21,1.2-1.58,3.21-2.84,3.94l3.67,2.14c1.26-.73,4.75-2.34,6.82-1.63.71.2,1.43.37,2.17.52,2.33.34,2.81,2.91,2.8,3.94h5.21c.08-.89.38-2.77,1.8-3.59a3,3,0,0,1,1-.35c.74-.15,1.46-.32,2.17-.52,2.08-.71,5.55.9,6.81,1.63l3.7-2.14c-1.26-.73-4-2.74-2.8-3.94a8.61,8.61,0,0,0,.9-1.26,1.49,1.49,0,0,1,.63-.61c1.44-.83,4.73-1,6.19-1l0-3c-1.91.08-6.2-.28-6.8-1.63a9.34,9.34,0,0,0-.89-1.26c-1.21-1.2,1.58-3.22,2.84-3.94l-3.68-2.14c-1.26.73-4.75,2.34-6.82,1.63-.7-.2-1.42-.37-2.16-.52-2.33-.35-2.81-2.91-2.8-3.94h-5.22a4.31,4.31,0,0,1-1.79,3.58,3,3,0,0,1-1.06.36c-.74.15-1.46.32-2.17.52-2.4.52-5.55-.9-6.8-1.63l-3.7,2.14c1.25.72,4,2.74,2.8,3.94a8,8,0,0,0-.91,1.26,1.43,1.43,0,0,1-.63.61c-1.44.83-4.72,1-6.19,1v3c1.77,0,6.2.29,6.8,1.64A7.84,7.84,0,0,0,695.34,476.7Zm8.79-8.19a14.41,14.41,0,0,1,13.07,0c3.6,2.09,3.58,5.48,0,7.57a14.41,14.41,0,0,1-13.07,0C700.49,474,700.51,470.6,704.13,468.51Z" class="colore8ecf7 svgShape"></path><path fill="#cee1f4" d="M692.5,480.64c1.26-.73,4-2.74,2.84-3.94a7.84,7.84,0,0,1-.89-1.26c-.6-1.35-5-1.64-6.8-1.64l0,8.82a22,22,0,0,1,4.83.52Z" class="colorced2f4 svgShape"></path><polygon fill="#bbcee2" points="713.2 494.43 713.17 485.61 707.96 485.61 707.98 494.43 713.2 494.43" class="colorbbbfe2 svgShape"></polygon><path fill="url(#aa)" d="M733.65,482.62l0-8.82c-1.46,0-4.75.2-6.19,1a1.49,1.49,0,0,0-.63.61,8.61,8.61,0,0,1-.9,1.26c-1.23,1.2,1.54,3.21,2.8,3.94v2.53A21.94,21.94,0,0,1,733.65,482.62Z"></path><path d="M436,600.33a13,13,0,0,0-3.43-1.41c-.48-7.75-5.88-16.77-12.48-20.58a10.94,10.94,0,0,0-6-1.69A36.44,36.44,0,0,0,406.84,563v48.29L436,628.12c6.64,3.83,12,.72,12-7S442.59,604.17,436,600.33Z" style="mix-blend-mode:multiply" fill="#f1f3f6" class="colorf1f1f6 svgShape"></path><g clip-path="url(#ab)" fill="#f4f6f8" class="color000000 svgShape"><path fill="#cce1f6" d="M419.45,606.7a12.67,12.67,0,0,0-3.43-1.4c-.48-7.76-5.88-16.78-12.48-20.59a10.94,10.94,0,0,0-6-1.69c-2.13-8-7.73-16-14.3-19.8C374.8,558.37,368,562.3,368,572a24.71,24.71,0,0,0,.65,5.45,17.56,17.56,0,0,0-1.75-1.15c-6.65-3.85-12.05-.73-12.05,7s5.4,17,12.05,20.87l52.57,30.35c6.64,3.83,12,.72,12-7S426.09,610.54,419.45,606.7Z" class="colorccd1f6 svgShape"></path><path fill="url(#ac)" d="M440.23,622.49c0-7.67-5.39-17-12-20.84a12.67,12.67,0,0,0-3.43-1.4h0l-8.75,5h0a12.67,12.67,0,0,1,3.43,1.4c6.64,3.84,12,13.17,12,20.84,0,3.78-1.31,6.44-3.43,7.73h0l8.61-5,.09,0,.05,0h0C438.92,628.93,440.23,626.27,440.23,622.49Z"></path><path fill="url(#ad)" d="M392,558.17c-4.32-2.5-8.22-2.66-11-.93L372.68,562c2.73-1.45,6.44-1.17,10.53,1.19,6.57,3.79,12.17,11.83,14.3,19.8l8.75-5C404.13,570,398.53,562,392,558.17Z"></path><path fill="url(#ae)" d="M412.29,579.66a10.94,10.94,0,0,0-6-1.69h0l-8.75,5h0a10.94,10.94,0,0,1,6,1.69c6.6,3.81,12,12.83,12.48,20.59l8.75-5C424.29,592.49,418.88,583.47,412.29,579.66Z"></path><path fill="#f4f6f8" d="M366.88,576.31a17.56,17.56,0,0,1,1.75,1.15A24.71,24.71,0,0,1,368,572a16.7,16.7,0,0,1,.12-2,5,5,0,0,0-.85.38h0l-.06,0-.13.07-8.56,4.94h0C360.67,574.22,363.62,574.42,366.88,576.31Z" class="colorf4f4f9 svgShape"></path><path d="M387.87,566.75a25.43,25.43,0,0,0-4.66-3.53C374.8,558.37,368,562.3,368,572a24.71,24.71,0,0,0,.65,5.45,17.56,17.56,0,0,0-1.75-1.15c-2.7-1.56-5.18-2-7.19-1.39v22.3a23.35,23.35,0,0,0,7.19,6.92l21,12.11Z" style="mix-blend-mode:multiply" fill="#f1f3f6" class="colorf1f1f6 svgShape"></path><path d="M397.9,563a26.42,26.42,0,0,0-5.94-4.83c-4.32-2.5-8.22-2.66-11-.93L372.68,562c2.73-1.45,6.44-1.17,10.53,1.19a25.43,25.43,0,0,1,4.66,3.53h0a14.46,14.46,0,0,1,9.75-3.73Z" style="mix-blend-mode:multiply" fill="#f1f3f6" class="colorf1f1f6 svgShape"></path></g><path d="M261.81,301.88a6.55,6.55,0,0,0-.7-.47l-3.51-2a100.44,100.44,0,0,0-15.37-2.1c.29-.78-.35-1.69-2-2.67-4.94-2.85-17-5.17-26.84-5.17s-13.89,2.32-9,5.17l2.73,1.58c-.66,0-1.32,0-2,0-9.89,0-13.89,2.32-8.95,5.17l28.18,16.27a36.53,36.53,0,0,0,10.27,3.28l24.82-14.33c1.7-1,2.55-2.27,2.55-3.56A3,3,0,0,0,261.81,301.88Z" style="mix-blend-mode:multiply" fill="url(#af)"></path><path fill="#d8e5f3" d="M224.39,298.69a7.79,7.79,0,0,0-3.17-1.09c-.66-6.26-5-13.3-10.27-16.34-4.95-2.86-9.1-1.23-10.11,3.56a16.74,16.74,0,0,0-4.63-4.16c-4.94-2.86-9-.54-9,5.16s4,12.65,9,15.5l28.18,16.27c4.53,2.61,8.19.5,8.19-4.72S228.92,301.3,224.39,298.69Z" class="colord8def3 svgShape"></path><path fill="#857df9" d="M206.24,279a15.11,15.11,0,0,0-3.05-2.4c-2.6-1.5-4.94-1.56-6.57-.46h0L190,280c1.6-.86,3.78-.7,6.19.69a16.74,16.74,0,0,1,4.63,4.16,6.18,6.18,0,0,1,2.8-4.28h0Z" class="color807df9 svgShape"></path><path fill="url(#j)" d="M239.56,308.84c0-5.22-3.67-11.57-8.19-14.18a7.79,7.79,0,0,0-3.17-1.09h0l-7,4a7.79,7.79,0,0,1,3.17,1.09c4.53,2.61,8.19,9,8.19,14.18,0,2.6-.91,4.43-2.38,5.29l6.88-4h0C238.61,313.34,239.56,311.5,239.56,308.84Z"></path><path fill="url(#ag)" d="M217.93,277.23c-2.93-1.69-5.57-1.8-7.45-.63h0L206.24,279h0l-2.6,1.51h0c1.87-1.08,4.45-.93,7.31.72,5.27,3,9.61,10.08,10.27,16.34h0l7-4C227.54,287.32,223.2,280.27,217.93,277.23Z"></path><polygon points="497.76 511.1 454.48 511.1 471.94 521.18 454.48 531.25 497.76 531.25 515.21 521.18 497.76 511.1" style="mix-blend-mode:multiply" fill="url(#ah)"></polygon><polygon fill="#6822a2" points="454.48 531.25 471.94 521.18 471.94 484.21 454.48 494.28 454.48 531.25" class="color423ead svgShape"></polygon><polygon fill="#5a52ca" points="454.48 531.25 437.03 521.18 437.03 484.21 454.48 494.28 454.48 531.25" class="color5652ca svgShape"></polygon><polygon fill="#6f67e7" points="454.48 494.28 437.03 484.21 454.48 474.13 471.94 484.21 454.48 494.28" class="color6b67e7 svgShape"></polygon><path fill="#652e92" d="M465.21,521.89c0,.56.45.76,1,.43l2-1.15a2.11,2.11,0,0,0,1-1.6v-2.63c0-.56-.45-.75-1-.43l-2,1.16a2.09,2.09,0,0,0-1,1.6Zm4-23.22c0-.56-.45-.75-1-.43l-2,1.16a2.09,2.09,0,0,0-1,1.6v2.62c0,.56.45.76,1,.43l2-1.15a2.11,2.11,0,0,0,1-1.6Zm-4-6.81v2.63c0,.56.45.75,1,.43l2-1.16a2.09,2.09,0,0,0,1-1.6v-2.63c0-.56-.45-.75-1-.43l-2,1.16A2.11,2.11,0,0,0,465.21,491.86Zm-3.61,11.22c0-.56-.46-.75-1-.43l-2,1.16a2.09,2.09,0,0,0-1,1.6V508c0,.56.45.75,1,.43l2-1.16a2.11,2.11,0,0,0,1-1.6Zm-4-6.81v2.63c0,.56.45.75,1,.43l2-1.16a2.11,2.11,0,0,0,1-1.6V494c0-.56-.46-.76-1-.43l-2,1.15A2.11,2.11,0,0,0,457.57,496.27Zm11.67,11.53c0-.56-.45-.75-1-.43l-2,1.16a2.11,2.11,0,0,0-1,1.6v2.63c0,.56.45.75,1,.43l2-1.16a2.09,2.09,0,0,0,1-1.6ZM461.6,524v-2.63c0-.56-.46-.75-1-.43l-2,1.16a2.09,2.09,0,0,0-1,1.6v2.63c0,.56.45.75,1,.43l2-1.16A2.11,2.11,0,0,0,461.6,524Zm0-11.76c0-.56-.46-.76-1-.43l-2,1.15a2.11,2.11,0,0,0-1,1.6v2.63c0,.56.45.75,1,.43l2-1.16a2.11,2.11,0,0,0,1-1.6Z" class="color362e92 svgShape"></path><path fill="#6822a2" d="M443.76,519.27a2.11,2.11,0,0,0-1-1.6l-2-1.16c-.56-.32-1-.13-1,.43v2.63a2.11,2.11,0,0,0,1,1.6l2,1.15c.56.33,1,.13,1-.43Zm-4-18a2.11,2.11,0,0,0,1,1.6l2,1.15c.56.33,1,.13,1-.43V501a2.11,2.11,0,0,0-1-1.6l-2-1.16c-.56-.32-1-.13-1,.43Zm3-11-2-1.16c-.56-.32-1-.13-1,.43v2.63a2.09,2.09,0,0,0,1,1.6l2,1.16c.56.32,1,.13,1-.43v-2.63A2.12,2.12,0,0,0,442.74,490.26Zm4.63,15.45a2.09,2.09,0,0,0,1,1.6l2,1.16c.56.32,1,.13,1-.43v-2.63a2.09,2.09,0,0,0-1-1.6l-2-1.16c-.56-.32-1-.13-1,.43Zm3-11-2-1.15c-.56-.33-1-.13-1,.43v2.62a2.09,2.09,0,0,0,1,1.6l2,1.16c.56.32,1,.13,1-.43v-2.63A2.11,2.11,0,0,0,450.39,494.67Zm-10.66,15.76a2.09,2.09,0,0,0,1,1.6l2,1.16c.56.32,1,.13,1-.43v-2.63a2.12,2.12,0,0,0-1-1.6l-2-1.16c-.56-.32-1-.13-1,.43Zm8.65,15.15,2,1.16c.56.32,1,.13,1-.43v-2.63a2.09,2.09,0,0,0-1-1.6l-2-1.16c-.56-.32-1-.13-1,.43V524A2.09,2.09,0,0,0,448.38,525.58Zm-1-10.74a2.09,2.09,0,0,0,1,1.6l2,1.16c.56.32,1,.13,1-.43v-2.63a2.11,2.11,0,0,0-1-1.6l-2-1.15c-.56-.33-1-.13-1,.43Z" class="color423ead svgShape"></path><path fill="#5a52ca" d="M455,477.69a2.11,2.11,0,0,0-1.89.08l-2,1.16c-.56.32-.62.81-.13,1.09l2.28,1.31a2.08,2.08,0,0,0,1.89-.08l2-1.15c.56-.33.62-.82.14-1.1Zm8.05,8.13,2-1.16c.56-.32.62-.81.14-1.09l-2.28-1.31a2.08,2.08,0,0,0-1.89.08l-2,1.15c-.56.33-.62.82-.14,1.1l2.28,1.31A2.08,2.08,0,0,0,463.08,485.82Zm-15.69-3.72a2.11,2.11,0,0,0-1.89.08l-2,1.16c-.56.32-.62.81-.13,1.09l2.27,1.32a2.11,2.11,0,0,0,1.89-.08l2-1.16c.56-.32.62-.81.13-1.09Zm8.05,8.13,2-1.15c.56-.33.62-.81.14-1.09l-2.28-1.32a2.11,2.11,0,0,0-1.89.08l-2,1.16c-.56.32-.62.81-.13,1.09l2.27,1.31A2.1,2.1,0,0,0,455.44,490.23Z" class="color5652ca svgShape"></path><path fill="#e6edf5" d="M481.35,509.94a11.16,11.16,0,0,0,5,8.7l44.3,25.58c2.76,1.59,5,.29,5-2.9V437.39a11.16,11.16,0,0,0-5-8.7l-44.3-25.58c-2.76-1.59-5-.29-5,2.9Z" class="colore6eaf5 svgShape"></path><path fill="url(#ai)" d="M482.71,402.84h0a3.47,3.47,0,0,1,3.66.27l44.3,25.58a11.16,11.16,0,0,1,5,8.7V541.32a3.54,3.54,0,0,1-1.44,3.22l3.56-2.33h0A3.5,3.5,0,0,0,539.3,539V435a11.09,11.09,0,0,0-5-8.69L490,400.76a3.45,3.45,0,0,0-3.66-.27h0Zm51.5,141.72h0Z"></path><polygon fill="#ffffff" points="484.5 409.73 484.5 505.61 532.54 533.34 532.54 437.47 484.5 409.73" class="colorffffff svgShape"></polygon><path fill="#b9cee4" d="M508.52,521.27c-2-1.15-3.6-.22-3.6,2.07a7.92,7.92,0,0,0,3.6,6.23c2,1.15,3.59.22,3.59-2.07A8,8,0,0,0,508.52,521.27Zm0,7.09A5.66,5.66,0,0,1,506,524c0-1.62,1.14-2.28,2.54-1.47a5.66,5.66,0,0,1,2.54,4.41C511.06,528.51,509.92,529.17,508.52,528.36Z" class="colorb9bee4 svgShape"></path><polygon points="514.25 423.71 502.79 417.1 502.79 415.84 514.25 422.45 514.25 423.71" style="mix-blend-mode:multiply" fill="#cfe0f1" class="colorcfd5f1 svgShape"></polygon><path fill="#e539c6" d="M523.52,439.8c0-1.77,1.24-2.49,2.78-1.61a6.15,6.15,0,0,1,2.78,4.82c0,1.78-1.24,2.5-2.78,1.61A6.14,6.14,0,0,1,523.52,439.8Z" class="colore57139 svgShape"></path><polygon fill="#cce1f6" points="523.04 445.12 529.56 448.88 529.56 451.24 523.04 447.47 523.04 445.12" class="colorccd1f6 svgShape"></polygon><polygon fill="#cce1f6" points="523.04 449.37 529.56 453.13 529.56 455.49 523.04 451.72 523.04 449.37" class="colorccd1f6 svgShape"></polygon><polygon fill="#eff1f4" points="523.04 453.62 529.56 457.38 529.56 459.74 523.04 455.97 523.04 453.62" class="colorefeff4 svgShape"></polygon><path fill="#fb4bdb" d="M498.18,455.54l-6.85-4c-.6-.35-1.09-.07-1.09.63v27.05a5.22,5.22,0,0,0,2.37,4.1l30.11,17.39c1.31.76,2.37.14,2.37-1.37V475.66a2.44,2.44,0,0,0-1.09-1.89l-22.95-13.24Z" class="colorfb944b svgShape"></path><polygon fill="none" stroke="#857dfb" stroke-linecap="round" stroke-linejoin="round" points="144.66 381.21 108.06 360.08 144.66 338.95 181.27 360.08 144.66 381.21" class="colorStroke807dfb svgStroke"></polygon><polyline fill="none" stroke="#807dfb" stroke-linecap="round" stroke-linejoin="round" points="108.06 360.08 108.06 402.35 144.66 423.48 181.27 402.35 181.27 360.08"></polyline><line x1="144.66" x2="144.66" y1="381.21" y2="423.48" fill="none" stroke="#857dfb" stroke-linecap="round" stroke-linejoin="round" class="colorStroke807dfb svgStroke"></line><path fill="#857dfb" d="M141.87 339a2.79 2.79 0 112.79 2.78A2.79 2.79 0 01141.87 339zM105.27 360.08a2.79 2.79 0 112.79 2.79A2.79 2.79 0 01105.27 360.08zM105.27 402.35a2.79 2.79 0 112.79 2.79A2.79 2.79 0 01105.27 402.35zM141.87 423.48a2.79 2.79 0 112.79 2.79A2.78 2.78 0 01141.87 423.48zM141.87 381.21a2.79 2.79 0 112.79 2.79A2.79 2.79 0 01141.87 381.21zM178.48 360.08a2.79 2.79 0 112.79 2.79A2.79 2.79 0 01178.48 360.08zM178.48 402.35a2.79 2.79 0 112.79 2.79A2.79 2.79 0 01178.48 402.35z" class="color807dfb svgShape"></path><polygon fill="none" stroke="#857dfb" stroke-linecap="round" stroke-linejoin="round" points="651.2 642.8 609.07 618.48 651.2 594.15 693.34 618.48 651.2 642.8" class="colorStroke807dfb svgStroke"></polygon><polyline fill="none" stroke="#807dfb" stroke-linecap="round" stroke-linejoin="round" points="609.07 618.48 609.07 667.13 651.2 691.46 693.34 667.13 693.34 618.48"></polyline><line x1="651.2" x2="651.2" y1="642.81" y2="691.46" fill="none" stroke="#857dfb" stroke-linecap="round" stroke-linejoin="round" class="colorStroke807dfb svgStroke"></line><path fill="#857dfb" d="M648 594.15a3.21 3.21 0 113.21 3.21A3.21 3.21 0 01648 594.15zM605.86 618.48a3.21 3.21 0 113.21 3.21A3.21 3.21 0 01605.86 618.48zM605.86 667.13a3.21 3.21 0 113.21 3.21A3.21 3.21 0 01605.86 667.13zM648 691.46a3.21 3.21 0 113.21 3.21A3.21 3.21 0 01648 691.46zM648 642.81a3.21 3.21 0 113.21 3.2A3.21 3.21 0 01648 642.81zM690.13 618.48a3.21 3.21 0 113.21 3.21A3.21 3.21 0 01690.13 618.48zM690.13 667.13a3.21 3.21 0 113.21 3.21A3.21 3.21 0 01690.13 667.13z" class="color807dfb svgShape"></path><polygon fill="#6822a2" points="469.24 221.37 483.19 213.32 483.19 197.22 469.24 205.27 469.24 221.37" class="color423ead svgShape"></polygon><polygon fill="#5a52ca" points="469.24 221.37 455.3 213.32 455.3 197.22 469.24 205.27 469.24 221.37" class="color5652ca svgShape"></polygon><polygon fill="#857df9" points="469.24 205.27 455.3 197.22 469.24 189.17 483.19 197.22 469.24 205.27" class="color807df9 svgShape"></polygon><polygon fill="#6f67e7" points="469.24 200.38 463.78 197.22 469.24 194.07 474.7 197.22 469.24 200.38" class="color6b67e7 svgShape"></polygon><polygon fill="#6822a2" points="481.84 697.35 497.15 688.51 497.15 670.83 481.84 679.67 481.84 697.35" class="color423ead svgShape"></polygon><polygon fill="#5a52ca" points="481.84 697.35 466.53 688.51 466.53 670.83 481.84 679.67 481.84 697.35" class="color5652ca svgShape"></polygon><polygon fill="#857df9" points="481.84 679.67 466.53 670.83 481.84 662 497.15 670.83 481.84 679.67" class="color807df9 svgShape"></polygon><polygon fill="#6f67e7" points="481.84 674.29 475.84 670.83 481.84 667.37 487.84 670.83 481.84 674.29" class="color6b67e7 svgShape"></polygon><polygon fill="#6822a2" points="764.13 541.28 776.12 534.36 776.12 520.52 764.13 527.44 764.13 541.28" class="color423ead svgShape"></polygon><polygon fill="#5a52ca" points="764.13 541.28 752.15 534.36 752.15 520.52 764.13 527.44 764.13 541.28" class="color5652ca svgShape"></polygon><polygon fill="#857df9" points="764.13 527.44 752.15 520.52 764.13 513.6 776.12 520.52 764.13 527.44" class="color807df9 svgShape"></polygon><polygon fill="#6f67e7" points="764.13 523.23 759.44 520.52 764.13 517.81 768.83 520.52 764.13 523.23" class="color6b67e7 svgShape"></polygon><polygon fill="#6822a2" points="108.06 474.36 121.98 466.32 121.98 450.24 108.06 458.28 108.06 474.36" class="color423ead svgShape"></polygon><polygon fill="#5a52ca" points="108.06 474.36 94.13 466.32 94.13 450.24 108.06 458.28 108.06 474.36" class="color5652ca svgShape"></polygon><polygon fill="#857df9" points="108.06 458.28 94.13 450.24 108.06 442.2 121.98 450.24 108.06 458.28" class="color807df9 svgShape"></polygon><polygon fill="#6f67e7" points="108.06 453.39 102.6 450.24 108.06 447.09 113.51 450.24 108.06 453.39" class="color6b67e7 svgShape"></polygon><polygon points="575.7 236.89 588.87 266.32 566.37 264.25 575.7 236.89" style="mix-blend-mode:multiply" fill="url(#aj)"></polygon><polygon points="559.58 307.61 601.5 308.09 575.74 261.55 559.58 307.61" style="mix-blend-mode:multiply" fill="url(#ak)"></polygon><path fill="#6db6ff" d="M527.28,226.73a1.45,1.45,0,0,0-.79-.21l-1.76.06a1.47,1.47,0,0,1,.79.21l10.46,6,1.77-.06Z" class="colorffaf6d svgShape"></path><polygon fill="#e539c6" points="535.98 232.83 537.75 232.77 540.27 240.96 538.51 241.02 535.98 232.83" class="colore57139 svgShape"></polygon><path fill="#fb4bdb" d="M536,232.83l2.53,8.19,35,20.23a2.7,2.7,0,0,1,1,3.1l-13.4,40.32c-.86,2.58-3.17,3.72-5.17,2.56l-46-26.55c-2-1.15-2.93-4.17-2.08-6.74l15.28-46a1.65,1.65,0,0,1,2.38-1.17Z" class="colorfb944b svgShape"></path><path fill="#6db6ff" d="M523.76,226.85a1.47,1.47,0,0,0-.79-.21l-1.77.06a1.57,1.57,0,0,1,.8.21l10.46,6,1.76-.06Z" class="colorffaf6d svgShape"></path><polygon fill="#e539c6" points="532.46 232.95 534.22 232.89 536.75 241.08 534.98 241.14 532.46 232.95" class="colore57139 svgShape"></polygon><path fill="#fb4bdb" d="M532.46,233l2.52,8.19,35,20.23a2.69,2.69,0,0,1,1,3.1l-13.4,40.32c-.85,2.58-3.16,3.72-5.16,2.57l-46-26.55c-2-1.16-2.92-4.18-2.07-6.74l15.28-46a1.65,1.65,0,0,1,2.38-1.17Z" class="colorfb944b svgShape"></path><path fill="#ffffff" d="M501,476.12l1.91,1.11V475L501,473.91Zm3.35,1.93,1.91,1.11V477l-1.91-1.11Zm3.35,1.94,1.91,1.1v-2.21l-1.91-1.1Zm3.35-.28v2.21l1.91,1.11v-2.21Z" class="colorffffff svgShape"></path><path fill="url(#al)" d="M575.3,261.18l-35-20.22-1.76.06,35,20.23a2.7,2.7,0,0,1,1,3.1l-13.4,40.32-1.77.06,13.4-40.32a2.67,2.67,0,0,0-1-3.1l-35-20.23-1.77.06,35,20.23a2.69,2.69,0,0,1,1,3.1l-13.4,40.32a4,4,0,0,1-3.44,3l1.76-.06.16,0h0l1.67-.06h-.05l1.76-.06h.18a4,4,0,0,0,3.26-3l13.4-40.32A2.72,2.72,0,0,0,575.3,261.18Z"></path><g clip-path="url(#am)" fill="#f4f6f8" class="color000000 svgShape"><polygon fill="#f6f8fb" points="519.43 269.33 556.13 290.53 573.94 236.96 537.23 215.76 519.43 269.33" class="colorf6f6fb svgShape"></polygon><polygon fill="#ffffff" points="537.23 215.76 573.94 236.96 575.7 236.89 538.99 215.7 537.23 215.76" class="colorffffff svgShape"></polygon><polygon fill="#bbd0e6" points="573.94 236.96 556.13 290.53 557.9 290.47 575.7 236.89 573.94 236.96" class="colorbbc0e6 svgShape"></polygon></g><polygon fill="#cee3f8" points="546.91 234.03 563.48 243.6 564.04 241.93 547.47 232.37 546.91 234.03" class="colorced3f8 svgShape"></polygon><polygon fill="#cee3f8" points="539.46 234.78 562.15 247.88 562.71 246.21 540.01 233.11 539.46 234.78" class="colorced3f8 svgShape"></polygon><polygon fill="#cee3f8" points="538.13 239.05 560.82 252.16 561.38 250.49 538.68 237.38 538.13 239.05" class="colorced3f8 svgShape"></polygon></g></svg>