<svg xmlns="http://www.w3.org/2000/svg" enable-background="new 0 0 51 51" viewBox="0 0 51 51" id="Wireframe"><path fill="#f4f6f8" d="M32.15409,2.29065c-0.18835-0.11509-0.45519-0.10462-0.7482,0.07332L5.2189,17.73078
													c-0.58076,0.34011-1.04643,1.16153-1.04643,1.8365l0.05755,19.48983l-1.26618-0.74817v-19.4584
													c0-0.67497,0.46567-1.49646,1.0412-1.8365L30.19727,1.64711c0.293-0.17264,0.55461-0.18835,0.7482-0.07319
													L32.15409,2.29065z" class="color474b59 svgShape"></path><path fill="#6822a2" d="M31.4082,2.36052c0.57849-0.33947,1.04883-0.06704,1.05072,0.60857l0.05436,19.49022
													L4.2282,39.05736L4.17384,19.56714c-0.00188-0.67561,0.4654-1.49825,1.04388-1.8377L31.4082,2.36052z" class="color5b5e71 svgShape"></path><path fill="#ffffff" d="M31.22147,21.70617L5.50939,36.79356L5.46272,19.56818
													c0-0.21477,0.21472-0.59754,0.40145-0.70022L31.1748,4.01391L31.22147,21.70617z" class="colorffffff svgShape"></path><path fill="#6822a2" d="M4.22981,39.05772l0.00857,1.77632l15.0835,8.41065c0.57541,0.34041,1.50721,0.34041,2.08692,0
													l26.18935-15.36714c0.29199-0.17022,0.438-0.39715,0.438-0.61974l-0.0086-1.27234
													c0,0.22259-0.14601,0.44518-0.438,0.61537L4.22981,39.05772z" class="color5b5e71 svgShape"></path><path fill="#f4f6f8" d="M4.23175,39.05668l15.08386,8.90946c0.57472,0.33946,1.5093,0.33947,2.08777,0.00001
													l26.18775-15.36732c0.5812-0.34106,0.58425-0.89128,0.00954-1.23074l-15.08387-8.90946L4.23175,39.05668z" class="colorecf0f1 svgShape"></path><polygon fill="#ffffff" points="8.944 42.425 8.942 43.168 9.578 43.542 9.581 42.798" class="colorffffff svgShape"></polygon><polygon fill="#ffffff" points="7.318 41.471 7.316 42.214 8.447 42.878 8.449 42.135" class="colorffffff svgShape"></polygon><polygon fill="#ffffff" points="6.235 40.835 6.233 41.578 6.869 41.952 6.871 41.208" class="colorffffff svgShape"></polygon><polygon fill="#ffffff" points="5.102 40.17 5.1 40.913 5.736 41.287 5.738 40.544" class="colorffffff svgShape"></polygon><g fill="#010001" class="color000000 svgShape"><path fill="#d4d5d6" d="M33.12729,38.85425l-3.58795-2.10484c-0.30801-0.18254-0.68447-0.17112-0.98681,0.01142
												l-5.63001,3.31984c-0.21105,0.11976-0.28521,0.36507-0.22247,0.57613c0.03422-0.03423,0.06845-0.06845,0.11409-0.09129
												l5.62431-3.31984c0.30805-0.18254,0.68451-0.19392,0.99252-0.01138l3.58795,2.11052
												c0.11977,0.06845,0.19392,0.17115,0.22247,0.29092C33.45243,39.41325,33.41821,39.02537,33.12729,38.85425z" class="colord4d6d6 svgShape"></path><path fill="#e0e1e2" d="M33.01891,39.3448l-3.58795-2.11052c-0.30801-0.18254-0.68447-0.17115-0.99252,0.01138
												l-5.62431,3.31984c-0.04564,0.02284-0.07987,0.05706-0.11409,0.09129c0.03422,0.11406,0.10838,0.21676,0.22247,0.28521
												l3.59933,2.11052c0.29663,0.17683,0.67309,0.17683,0.98114,0l5.63569-3.33122
												c0.03993-0.02284,0.07416-0.05135,0.10271-0.08558C33.21283,39.51595,33.13868,39.41325,33.01891,39.3448z" class="colore0e2e2 svgShape"></path></g><g fill="#010001" class="color000000 svgShape"><path fill="#f4f6f8" d="M9.39864,35.83131c0.07092-0.04191,0.16765-0.03546,0.27725,0.02579
													c0.2289,0.13219,0.40298,0.45458,0.40298,0.71248l19.04919-10.99441c0-0.25791-0.17408-0.58029-0.39976-0.70926
													c-0.10962-0.06448-0.20956-0.06769-0.28048-0.0258L9.39864,35.83131z" class="color474b59 svgShape"></path><path fill="#443644" d="M9.67701,35.8577c-0.22435-0.12953-0.402-0.01177-0.40273,0.24604l0.80481,0.46466
													C10.07982,36.31059,9.90343,35.98843,9.67701,35.8577z" class="color363a44 svgShape"></path></g><g fill="#010001" class="color000000 svgShape"><g fill="#010001" class="color000000 svgShape"><polygon fill="#5d5266" points="12.034 36.072 12.035 36.329 12.362 36.519 12.362 36.262" class="color525566 svgShape"></polygon><polygon fill="#f4f6f8" points="12.362 36.262 12.362 36.519 13.471 35.879 13.471 35.622" class="color474b59 svgShape"></polygon><polygon fill="#6822a2" points="12.034 36.072 12.362 36.262 13.471 35.622 13.143 35.432" class="color5b5e71 svgShape"></polygon></g><g fill="#010001" class="color000000 svgShape"><polygon fill="#5d5266" points="13.754 35.079 13.755 35.336 14.082 35.526 14.082 35.269" class="color525566 svgShape"></polygon><polygon fill="#f4f6f8" points="14.082 35.269 14.082 35.526 15.191 34.886 15.191 34.629" class="color474b59 svgShape"></polygon><polygon fill="#6822a2" points="13.754 35.079 14.082 35.269 15.191 34.629 14.863 34.439" class="color5b5e71 svgShape"></polygon></g><g fill="#010001" class="color000000 svgShape"><polygon fill="#5d5266" points="15.474 34.086 15.475 34.343 15.802 34.533 15.801 34.276" class="color525566 svgShape"></polygon><polygon fill="#f4f6f8" points="15.801 34.276 15.802 34.533 16.907 33.895 16.906 33.638" class="color474b59 svgShape"></polygon><polygon fill="#6822a2" points="15.474 34.086 15.801 34.276 16.906 33.638 16.579 33.448" class="color5b5e71 svgShape"></polygon></g><g fill="#010001" class="color000000 svgShape"><polygon fill="#5d5266" points="17.194 33.093 17.195 33.35 17.522 33.54 17.521 33.283" class="color525566 svgShape"></polygon><polygon fill="#f4f6f8" points="17.521 33.283 17.522 33.54 18.627 32.902 18.626 32.645" class="color474b59 svgShape"></polygon><polygon fill="#6822a2" points="17.194 33.093 17.521 33.283 18.626 32.645 18.299 32.455" class="color5b5e71 svgShape"></polygon></g><g fill="#010001" class="color000000 svgShape"><polygon fill="#5d5266" points="20.63 31.11 20.63 31.366 20.958 31.556 20.957 31.3" class="color525566 svgShape"></polygon><polygon fill="#f4f6f8" points="20.957 31.3 20.958 31.556 22.067 30.916 22.066 30.66" class="color474b59 svgShape"></polygon><polygon fill="#6822a2" points="20.63 31.11 20.957 31.3 22.066 30.66 21.739 30.469" class="color5b5e71 svgShape"></polygon></g><g fill="#010001" class="color000000 svgShape"><polygon fill="#5d5266" points="22.82 29.845 22.82 30.102 23.148 30.292 23.147 30.035" class="color525566 svgShape"></polygon><polygon fill="#f4f6f8" points="23.147 30.035 23.148 30.292 24.257 29.652 24.256 29.395" class="color474b59 svgShape"></polygon><polygon fill="#6822a2" points="22.82 29.845 23.147 30.035 24.256 29.395 23.929 29.205" class="color5b5e71 svgShape"></polygon></g><g fill="#010001" class="color000000 svgShape"><polygon fill="#5d5266" points="24.54 28.852 24.54 29.109 24.868 29.299 24.867 29.042" class="color525566 svgShape"></polygon><polygon fill="#f4f6f8" points="24.867 29.042 24.868 29.299 25.977 28.659 25.976 28.402" class="color474b59 svgShape"></polygon><polygon fill="#6822a2" points="24.54 28.852 24.867 29.042 25.976 28.402 25.649 28.212" class="color5b5e71 svgShape"></polygon></g><g fill="#010001" class="color000000 svgShape"><polygon fill="#5d5266" points="25.382 29.342 25.383 29.598 26.481 30.236 26.48 29.98" class="color525566 svgShape"></polygon><polygon fill="#f4f6f8" points="26.48 29.98 26.481 30.236 27.59 29.596 27.589 29.339" class="color474b59 svgShape"></polygon><polygon fill="#6822a2" points="25.382 29.342 26.48 29.98 27.589 29.339 26.491 28.701" class="color5b5e71 svgShape"></polygon></g><g fill="#010001" class="color000000 svgShape"><polygon fill="#5d5266" points="23.662 30.335 23.663 30.591 24.761 31.229 24.76 30.973" class="color525566 svgShape"></polygon><polygon fill="#f4f6f8" points="24.76 30.973 24.761 31.229 25.87 30.589 25.869 30.332" class="color474b59 svgShape"></polygon><polygon fill="#6822a2" points="23.662 30.335 24.76 30.973 25.869 30.332 24.771 29.694" class="color5b5e71 svgShape"></polygon></g><g fill="#010001" class="color000000 svgShape"><polygon fill="#5d5266" points="21.472 31.599 21.473 31.856 22.571 32.494 22.57 32.237" class="color525566 svgShape"></polygon><polygon fill="#f4f6f8" points="22.57 32.237 22.571 32.494 23.68 31.853 23.679 31.597" class="color474b59 svgShape"></polygon><polygon fill="#6822a2" points="21.472 31.599 22.57 32.237 23.679 31.597 22.581 30.959" class="color5b5e71 svgShape"></polygon></g><g fill="#010001" class="color000000 svgShape"><polygon fill="#5d5266" points="18.91 32.103 18.911 32.359 19.238 32.549 19.237 32.293" class="color525566 svgShape"></polygon><polygon fill="#f4f6f8" points="19.237 32.293 19.238 32.549 20.347 31.909 20.346 31.652" class="color474b59 svgShape"></polygon><polygon fill="#6822a2" points="18.91 32.103 19.237 32.293 20.346 31.652 20.019 31.462" class="color5b5e71 svgShape"></polygon></g><g fill="#010001" class="color000000 svgShape"><polygon fill="#5d5266" points="19.752 32.592 19.753 32.849 20.851 33.487 20.85 33.23" class="color525566 svgShape"></polygon><polygon fill="#f4f6f8" points="20.85 33.23 20.851 33.487 21.96 32.846 21.959 32.59" class="color474b59 svgShape"></polygon><polygon fill="#6822a2" points="19.752 32.592 20.85 33.23 21.959 32.59 20.861 31.952" class="color5b5e71 svgShape"></polygon></g><g fill="#010001" class="color000000 svgShape"><polygon fill="#5d5266" points="18.036 33.583 18.037 33.839 19.135 34.477 19.134 34.221" class="color525566 svgShape"></polygon><polygon fill="#f4f6f8" points="19.134 34.221 19.135 34.477 20.24 33.839 20.239 33.583" class="color474b59 svgShape"></polygon><polygon fill="#6822a2" points="18.036 33.583 19.134 34.221 20.239 33.583 19.141 32.945" class="color5b5e71 svgShape"></polygon></g><g fill="#010001" class="color000000 svgShape"><polygon fill="#5d5266" points="16.316 34.576 16.317 34.832 17.415 35.47 17.414 35.214" class="color525566 svgShape"></polygon><polygon fill="#f4f6f8" points="17.414 35.214 17.415 35.47 18.52 34.832 18.519 34.576" class="color474b59 svgShape"></polygon><polygon fill="#6822a2" points="16.316 34.576 17.414 35.214 18.519 34.576 17.422 33.938" class="color5b5e71 svgShape"></polygon></g><g fill="#010001" class="color000000 svgShape"><polygon fill="#5d5266" points="14.597 35.569 14.597 35.825 15.695 36.463 15.694 36.207" class="color525566 svgShape"></polygon><polygon fill="#f4f6f8" points="15.694 36.207 15.695 36.463 16.804 35.823 16.804 35.566" class="color474b59 svgShape"></polygon><polygon fill="#6822a2" points="14.597 35.569 15.694 36.207 16.804 35.566 15.706 34.928" class="color5b5e71 svgShape"></polygon></g><g fill="#010001" class="color000000 svgShape"><polygon fill="#5d5266" points="12.877 36.562 12.877 36.818 13.975 37.456 13.975 37.2" class="color525566 svgShape"></polygon><polygon fill="#f4f6f8" points="13.975 37.2 13.975 37.456 15.084 36.816 15.084 36.559" class="color474b59 svgShape"></polygon><polygon fill="#6822a2" points="12.877 36.562 13.975 37.2 15.084 36.559 13.986 35.921" class="color5b5e71 svgShape"></polygon></g><g fill="#010001" class="color000000 svgShape"><polygon fill="#5d5266" points="26.867 30.205 26.868 30.461 27.97 31.102 27.969 30.845" class="color525566 svgShape"></polygon><polygon fill="#f4f6f8" points="27.969 30.845 27.97 31.102 29.079 30.461 29.078 30.205" class="color474b59 svgShape"></polygon><polygon fill="#6822a2" points="26.867 30.205 27.969 30.845 29.078 30.205 27.976 29.564" class="color5b5e71 svgShape"></polygon></g><g fill="#010001" class="color000000 svgShape"><polygon fill="#5d5266" points="25.147 31.198 25.148 31.454 26.25 32.095 26.249 31.838" class="color525566 svgShape"></polygon><polygon fill="#f4f6f8" points="26.249 31.838 26.25 32.095 27.359 31.454 27.358 31.198" class="color474b59 svgShape"></polygon><polygon fill="#6822a2" points="25.147 31.198 26.249 31.838 27.358 31.198 26.256 30.557" class="color5b5e71 svgShape"></polygon></g><g fill="#010001" class="color000000 svgShape"><polygon fill="#5d5266" points="22.957 32.462 22.958 32.719 24.06 33.359 24.059 33.103" class="color525566 svgShape"></polygon><polygon fill="#f4f6f8" points="24.059 33.103 24.06 33.359 25.169 32.719 25.168 32.462" class="color474b59 svgShape"></polygon><polygon fill="#6822a2" points="22.957 32.462 24.059 33.103 25.168 32.462 24.066 31.822" class="color5b5e71 svgShape"></polygon></g><g fill="#010001" class="color000000 svgShape"><polygon fill="#5d5266" points="21.237 33.455 21.238 33.712 22.34 34.352 22.339 34.096" class="color525566 svgShape"></polygon><polygon fill="#f4f6f8" points="22.339 34.096 22.34 34.352 23.449 33.712 23.448 33.455" class="color474b59 svgShape"></polygon><polygon fill="#6822a2" points="21.237 33.455 22.339 34.096 23.448 33.455 22.346 32.815" class="color5b5e71 svgShape"></polygon></g><g fill="#010001" class="color000000 svgShape"><polygon fill="#5d5266" points="19.521 34.446 19.522 34.702 20.624 35.343 20.623 35.086" class="color525566 svgShape"></polygon><polygon fill="#f4f6f8" points="20.623 35.086 20.624 35.343 21.729 34.705 21.728 34.448" class="color474b59 svgShape"></polygon><polygon fill="#6822a2" points="19.521 34.446 20.623 35.086 21.728 34.448 20.627 33.808" class="color5b5e71 svgShape"></polygon></g><g fill="#010001" class="color000000 svgShape"><polygon fill="#5d5266" points="17.802 35.439 17.802 35.695 18.904 36.336 18.903 36.079" class="color525566 svgShape"></polygon><polygon fill="#f4f6f8" points="18.903 36.079 18.904 36.336 20.009 35.698 20.009 35.441" class="color474b59 svgShape"></polygon><polygon fill="#6822a2" points="17.802 35.439 18.903 36.079 20.009 35.441 18.907 34.801" class="color5b5e71 svgShape"></polygon></g><g fill="#010001" class="color000000 svgShape"><polygon fill="#5d5266" points="16.082 36.432 16.082 36.688 17.184 37.329 17.184 37.072" class="color525566 svgShape"></polygon><polygon fill="#f4f6f8" points="17.184 37.072 17.184 37.329 18.293 36.688 18.293 36.432" class="color474b59 svgShape"></polygon><polygon fill="#6822a2" points="16.082 36.432 17.184 37.072 18.293 36.432 17.191 35.791" class="color5b5e71 svgShape"></polygon></g><g fill="#010001" class="color000000 svgShape"><polygon fill="#5d5266" points="14.362 37.425 14.363 37.681 15.464 38.322 15.464 38.065" class="color525566 svgShape"></polygon><polygon fill="#f4f6f8" points="15.464 38.065 15.464 38.322 16.574 37.681 16.573 37.425" class="color474b59 svgShape"></polygon><polygon fill="#6822a2" points="14.362 37.425 15.464 38.065 16.573 37.425 15.471 36.784" class="color5b5e71 svgShape"></polygon></g><g fill="#010001" class="color000000 svgShape"><polygon fill="#5d5266" points="10.314 37.065 10.315 37.322 10.643 37.512 10.642 37.255" class="color525566 svgShape"></polygon><polygon fill="#f4f6f8" points="10.642 37.255 10.643 37.512 11.752 36.872 11.751 36.615" class="color474b59 svgShape"></polygon><polygon fill="#6822a2" points="10.314 37.065 10.642 37.255 11.751 36.615 11.424 36.425" class="color5b5e71 svgShape"></polygon></g><g fill="#010001" class="color000000 svgShape"><polygon fill="#5d5266" points="11.157 37.555 11.158 37.811 12.255 38.449 12.255 38.193" class="color525566 svgShape"></polygon><polygon fill="#f4f6f8" points="12.255 38.193 12.255 38.449 13.364 37.809 13.364 37.552" class="color474b59 svgShape"></polygon><polygon fill="#6822a2" points="11.157 37.555 12.255 38.193 13.364 37.552 12.266 36.914" class="color5b5e71 svgShape"></polygon></g><g fill="#010001" class="color000000 svgShape"><polygon fill="#5d5266" points="12.642 38.418 12.643 38.674 13.745 39.315 13.744 39.058" class="color525566 svgShape"></polygon><polygon fill="#f4f6f8" points="13.744 39.058 13.745 39.315 14.854 38.674 14.853 38.418" class="color474b59 svgShape"></polygon><polygon fill="#6822a2" points="12.642 38.418 13.744 39.058 14.853 38.418 13.751 37.777" class="color5b5e71 svgShape"></polygon></g><g fill="#010001" class="color000000 svgShape"><polygon fill="#5d5266" points="25.544 33.961 25.545 34.218 27.03 35.081 27.029 34.824" class="color525566 svgShape"></polygon><polygon fill="#f4f6f8" points="27.029 34.824 27.03 35.081 28.139 34.44 28.138 34.184" class="color474b59 svgShape"></polygon><polygon fill="#6822a2" points="22.718 34.316 23.82 34.956 25.544 33.961 27.029 34.824 28.138 34.184 25.551 32.68" class="color5b5e71 svgShape"></polygon><polygon fill="#5d5266" points="22.718 34.316 22.719 34.572 23.821 35.213 23.82 34.956" class="color525566 svgShape"></polygon><polygon fill="#f4f6f8" points="23.82 34.956 23.821 35.213 25.545 34.218 25.544 33.961" class="color474b59 svgShape"></polygon><polygon fill="#f4f6f8" points="25.305 35.819 25.306 36.076 26.415 35.436 26.415 35.179" class="color474b59 svgShape"></polygon><polygon fill="#5d5266" points="24.204 35.179 24.204 35.436 25.306 36.076 25.305 35.819" class="color525566 svgShape"></polygon><polygon fill="#6822a2" points="24.204 35.179 25.305 35.819 26.415 35.179 25.313 34.539" class="color5b5e71 svgShape"></polygon></g><g fill="#010001" class="color000000 svgShape"><polygon fill="#5d5266" points="21.003 35.307 21.003 35.563 22.105 36.203 22.104 35.947" class="color525566 svgShape"></polygon><polygon fill="#f4f6f8" points="22.104 35.947 22.105 36.203 23.21 35.565 23.21 35.309" class="color474b59 svgShape"></polygon><polygon fill="#6822a2" points="21.003 35.307 22.104 35.947 23.21 35.309 22.108 34.669" class="color5b5e71 svgShape"></polygon></g><g fill="#010001" class="color000000 svgShape"><polygon fill="#5d5266" points="19.283 36.3 19.283 36.556 20.385 37.196 20.385 36.94" class="color525566 svgShape"></polygon><polygon fill="#f4f6f8" points="20.385 36.94 20.385 37.196 21.49 36.558 21.49 36.302" class="color474b59 svgShape"></polygon><polygon fill="#6822a2" points="19.283 36.3 20.385 36.94 21.49 36.302 20.388 35.662" class="color5b5e71 svgShape"></polygon></g><g fill="#010001" class="color000000 svgShape"><polygon fill="#5d5266" points="17.563 37.293 17.564 37.549 18.665 38.189 18.665 37.933" class="color525566 svgShape"></polygon><polygon fill="#f4f6f8" points="18.665 37.933 18.665 38.189 19.775 37.549 19.774 37.293" class="color474b59 svgShape"></polygon><polygon fill="#6822a2" points="17.563 37.293 18.665 37.933 19.774 37.293 18.672 36.652" class="color5b5e71 svgShape"></polygon></g><g fill="#010001" class="color000000 svgShape"><polygon fill="#5d5266" points="15.843 38.285 15.844 38.542 16.946 39.182 16.945 38.926" class="color525566 svgShape"></polygon><polygon fill="#f4f6f8" points="16.945 38.926 16.946 39.182 18.055 38.542 18.054 38.286" class="color474b59 svgShape"></polygon><polygon fill="#6822a2" points="15.843 38.285 16.945 38.926 18.054 38.286 16.952 37.645" class="color5b5e71 svgShape"></polygon></g><g fill="#010001" class="color000000 svgShape"><polygon fill="#5d5266" points="14.123 39.278 14.124 39.535 15.226 40.175 15.225 39.919" class="color525566 svgShape"></polygon><polygon fill="#f4f6f8" points="15.225 39.919 15.226 40.175 16.335 39.535 16.334 39.278" class="color474b59 svgShape"></polygon><polygon fill="#6822a2" points="14.123 39.278 15.225 39.919 16.334 39.278 15.232 38.638" class="color5b5e71 svgShape"></polygon></g><g fill="#010001" class="color000000 svgShape"><polygon fill="#5d5266" points="8.595 38.058 8.595 38.315 8.923 38.505 8.922 38.248" class="color525566 svgShape"></polygon><polygon fill="#f4f6f8" points="8.922 38.248 8.923 38.505 10.032 37.865 10.031 37.608" class="color474b59 svgShape"></polygon><polygon fill="#6822a2" points="8.595 38.058 8.922 38.248 10.031 37.608 9.704 37.418" class="color5b5e71 svgShape"></polygon></g><g fill="#010001" class="color000000 svgShape"><polygon fill="#5d5266" points="9.437 38.548 9.438 38.804 10.536 39.442 10.535 39.186" class="color525566 svgShape"></polygon><polygon fill="#f4f6f8" points="10.535 39.186 10.536 39.442 11.645 38.802 11.644 38.545" class="color474b59 svgShape"></polygon><polygon fill="#6822a2" points="9.437 38.548 10.535 39.186 11.644 38.545 10.546 37.907" class="color5b5e71 svgShape"></polygon></g><g fill="#010001" class="color000000 svgShape"><polygon fill="#5d5266" points="10.922 39.411 10.923 39.667 12.025 40.308 12.024 40.051" class="color525566 svgShape"></polygon><polygon fill="#f4f6f8" points="12.024 40.051 12.025 40.308 13.134 39.667 13.133 39.411" class="color474b59 svgShape"></polygon><polygon fill="#6822a2" points="10.922 39.411 12.024 40.051 13.133 39.411 12.031 38.77" class="color5b5e71 svgShape"></polygon></g><g fill="#010001" class="color000000 svgShape"><polygon fill="#5d5266" points="12.403 40.271 12.404 40.528 13.506 41.168 13.505 40.912" class="color525566 svgShape"></polygon><polygon fill="#f4f6f8" points="13.505 40.912 13.506 41.168 14.615 40.528 14.614 40.271" class="color474b59 svgShape"></polygon><polygon fill="#6822a2" points="12.403 40.271 13.505 40.912 14.614 40.271 13.512 39.631" class="color5b5e71 svgShape"></polygon></g><g fill="#010001" class="color000000 svgShape"><polygon fill="#5d5266" points="22.488 36.17 22.488 36.426 23.59 37.067 23.59 36.81" class="color525566 svgShape"></polygon><polygon fill="#f4f6f8" points="23.59 36.81 23.59 37.067 24.695 36.429 24.695 36.172" class="color474b59 svgShape"></polygon><polygon fill="#6822a2" points="22.488 36.17 23.59 36.81 24.695 36.172 23.593 35.532" class="color5b5e71 svgShape"></polygon></g><g fill="#010001" class="color000000 svgShape"><polygon fill="#5d5266" points="20.768 37.163 20.769 37.419 21.87 38.059 21.87 37.803" class="color525566 svgShape"></polygon><polygon fill="#f4f6f8" points="21.87 37.803 21.87 38.059 22.976 37.421 22.975 37.165" class="color474b59 svgShape"></polygon><polygon fill="#6822a2" points="20.768 37.163 21.87 37.803 22.975 37.165 21.873 36.525" class="color5b5e71 svgShape"></polygon></g><g fill="#010001" class="color000000 svgShape"><polygon fill="#5d5266" points="19.048 38.156 19.049 38.412 20.151 39.052 20.15 38.796" class="color525566 svgShape"></polygon><polygon fill="#f4f6f8" points="20.15 38.796 20.151 39.052 21.26 38.412 21.259 38.156" class="color474b59 svgShape"></polygon><polygon fill="#6822a2" points="19.048 38.156 20.15 38.796 21.259 38.156 20.157 37.515" class="color5b5e71 svgShape"></polygon></g><g fill="#010001" class="color000000 svgShape"><polygon fill="#5d5266" points="17.328 39.149 17.329 39.405 18.431 40.045 18.43 39.789" class="color525566 svgShape"></polygon><polygon fill="#f4f6f8" points="18.43 39.789 18.431 40.045 19.54 39.405 19.539 39.149" class="color474b59 svgShape"></polygon><polygon fill="#6822a2" points="17.328 39.149 18.43 39.789 19.539 39.149 18.437 38.508" class="color5b5e71 svgShape"></polygon></g><g fill="#010001" class="color000000 svgShape"><polygon fill="#5d5266" points="15.608 40.142 15.609 40.398 16.711 41.038 16.71 40.782" class="color525566 svgShape"></polygon><polygon fill="#f4f6f8" points="16.71 40.782 16.711 41.038 17.82 40.398 17.819 40.142" class="color474b59 svgShape"></polygon><polygon fill="#6822a2" points="15.608 40.142 16.71 40.782 17.819 40.142 16.717 39.501" class="color5b5e71 svgShape"></polygon></g><g fill="#010001" class="color000000 svgShape"><polygon fill="#5d5266" points="13.888 41.135 13.889 41.391 14.991 42.031 14.99 41.775" class="color525566 svgShape"></polygon><polygon fill="#f4f6f8" points="14.99 41.775 14.991 42.031 16.1 41.391 16.099 41.135" class="color474b59 svgShape"></polygon><polygon fill="#6822a2" points="13.888 41.135 14.99 41.775 16.099 41.135 14.997 40.494" class="color5b5e71 svgShape"></polygon></g><g fill="#010001" class="color000000 svgShape"><polygon fill="#5d5266" points="27.405 35.047 27.405 35.303 28.507 35.944 28.506 35.687" class="color525566 svgShape"></polygon><polygon fill="#f4f6f8" points="28.506 35.687 28.507 35.944 29.616 35.303 29.616 35.047" class="color474b59 svgShape"></polygon><polygon fill="#6822a2" points="27.405 35.047 28.506 35.687 29.616 35.047 28.514 34.406" class="color5b5e71 svgShape"></polygon></g><g fill="#010001" class="color000000 svgShape"><polygon fill="#5d5266" points="17.089 41.002 17.09 41.259 18.192 41.899 18.191 41.643" class="color525566 svgShape"></polygon><polygon fill="#f4f6f8" points="18.191 41.643 18.192 41.899 27.9 36.294 27.9 36.037" class="color474b59 svgShape"></polygon><polygon fill="#6822a2" points="17.089 41.002 18.191 41.643 27.9 36.037 26.798 35.397" class="color5b5e71 svgShape"></polygon></g><g fill="#010001" class="color000000 svgShape"><polygon fill="#5d5266" points="15.369 41.995 15.37 42.252 16.472 42.892 16.471 42.636" class="color525566 svgShape"></polygon><polygon fill="#f4f6f8" points="16.471 42.636 16.472 42.892 17.581 42.252 17.58 41.995" class="color474b59 svgShape"></polygon><polygon fill="#6822a2" points="15.369 41.995 16.471 42.636 17.58 41.995 16.479 41.355" class="color5b5e71 svgShape"></polygon></g><g fill="#010001" class="color000000 svgShape"><polygon fill="#5d5266" points="28.574 26.523 28.575 26.779 28.902 26.97 28.901 26.713" class="color525566 svgShape"></polygon><polygon fill="#f4f6f8" points="28.901 26.713 28.902 26.97 30.007 26.332 30.006 26.075" class="color474b59 svgShape"></polygon><polygon fill="#6822a2" points="28.574 26.523 28.901 26.713 30.006 26.075 29.679 25.885" class="color5b5e71 svgShape"></polygon></g><g fill="#010001" class="color000000 svgShape"><polygon fill="#5d5266" points="30.294 25.53 30.295 25.615 30.622 25.977 30.621 25.72" class="color525566 svgShape"></polygon><polygon fill="#f4f6f8" points="30.621 25.72 30.622 25.977 31.727 25.339 31.726 25.082" class="color474b59 svgShape"></polygon><polygon fill="#6822a2" points="30.294 25.53 30.621 25.72 31.726 25.082 31.399 24.892" class="color5b5e71 svgShape"></polygon></g><g fill="#010001" class="color000000 svgShape"><polygon fill="#5d5266" points="31.136 26.019 31.137 26.276 32.235 26.914 32.234 26.657" class="color525566 svgShape"></polygon><polygon fill="#f4f6f8" points="32.234 26.657 32.235 26.914 33.34 26.276 33.339 26.019" class="color474b59 svgShape"></polygon><polygon fill="#6822a2" points="31.136 26.019 32.234 26.657 33.339 26.019 32.241 25.381" class="color5b5e71 svgShape"></polygon></g><g fill="#010001" class="color000000 svgShape"><polygon fill="#5d5266" points="32.621 26.883 32.622 27.139 33.724 27.779 33.723 27.523" class="color525566 svgShape"></polygon><polygon fill="#f4f6f8" points="33.723 27.523 33.724 27.779 34.829 27.141 34.828 26.885" class="color474b59 svgShape"></polygon><polygon fill="#6822a2" points="32.621 26.883 33.723 27.523 34.828 26.885 33.727 26.245" class="color5b5e71 svgShape"></polygon></g><g fill="#010001" class="color000000 svgShape"><polygon fill="#5d5266" points="34.103 27.743 34.103 28 35.205 28.64 35.204 28.384" class="color525566 svgShape"></polygon><polygon fill="#f4f6f8" points="35.204 28.384 35.205 28.64 36.31 28.002 36.31 27.746" class="color474b59 svgShape"></polygon><polygon fill="#6822a2" points="34.103 27.743 35.204 28.384 36.31 27.746 35.208 27.105" class="color5b5e71 svgShape"></polygon></g><g fill="#010001" class="color000000 svgShape"><polygon fill="#5d5266" points="29.416 27.012 29.417 27.269 30.515 27.907 30.514 27.65" class="color525566 svgShape"></polygon><polygon fill="#f4f6f8" points="30.514 27.65 30.515 27.907 31.62 27.269 31.619 27.012" class="color474b59 svgShape"></polygon><polygon fill="#6822a2" points="29.416 27.012 30.514 27.65 31.619 27.012 30.521 26.374" class="color5b5e71 svgShape"></polygon></g><g fill="#010001" class="color000000 svgShape"><polygon fill="#5d5266" points="30.902 27.876 30.902 28.132 32.004 28.772 32.003 28.516" class="color525566 svgShape"></polygon><polygon fill="#f4f6f8" points="32.003 28.516 32.004 28.772 33.109 28.134 33.109 27.878" class="color474b59 svgShape"></polygon><polygon fill="#6822a2" points="30.902 27.876 32.003 28.516 33.109 27.878 32.007 27.238" class="color5b5e71 svgShape"></polygon></g><g fill="#010001" class="color000000 svgShape"><polygon fill="#5d5266" points="32.383 28.736 32.383 28.993 33.485 29.633 33.485 29.377" class="color525566 svgShape"></polygon><polygon fill="#f4f6f8" points="33.485 29.377 33.485 29.633 34.59 28.995 34.59 28.739" class="color474b59 svgShape"></polygon><polygon fill="#6822a2" points="32.383 28.736 33.485 29.377 34.59 28.739 33.488 28.098" class="color5b5e71 svgShape"></polygon></g><g fill="#010001" class="color000000 svgShape"><polygon fill="#5d5266" points="26.854 27.516 26.855 27.772 27.182 27.963 27.182 27.706" class="color525566 svgShape"></polygon><polygon fill="#f4f6f8" points="27.182 27.706 27.182 27.963 28.291 27.322 28.291 27.066" class="color474b59 svgShape"></polygon><polygon fill="#6822a2" points="26.854 27.516 27.182 27.706 28.291 27.066 27.963 26.876" class="color5b5e71 svgShape"></polygon></g><g fill="#010001" class="color000000 svgShape"><polygon fill="#5d5266" points="27.697 28.005 27.697 28.262 28.795 28.9 28.794 28.643" class="color525566 svgShape"></polygon><polygon fill="#f4f6f8" points="28.794 28.643 28.795 28.9 29.904 28.26 29.904 28.003" class="color474b59 svgShape"></polygon><polygon fill="#6822a2" points="27.697 28.005 28.794 28.643 29.904 28.003 28.806 27.365" class="color5b5e71 svgShape"></polygon></g><g fill="#010001" class="color000000 svgShape"><polygon fill="#5d5266" points="29.182 28.869 29.182 29.125 30.284 29.765 30.284 29.509" class="color525566 svgShape"></polygon><polygon fill="#f4f6f8" points="30.284 29.509 30.284 29.765 31.393 29.125 31.393 28.869" class="color474b59 svgShape"></polygon><polygon fill="#6822a2" points="29.182 28.869 30.284 29.509 31.393 28.869 30.291 28.228" class="color5b5e71 svgShape"></polygon></g><g fill="#010001" class="color000000 svgShape"><polygon fill="#5d5266" points="30.663 29.729 30.664 29.986 31.765 30.626 31.765 30.37" class="color525566 svgShape"></polygon><polygon fill="#f4f6f8" points="31.765 30.37 31.765 30.626 32.875 29.986 32.874 29.729" class="color474b59 svgShape"></polygon><polygon fill="#6822a2" points="30.663 29.729 31.765 30.37 32.874 29.729 31.772 29.089" class="color5b5e71 svgShape"></polygon></g><g fill="#010001" class="color000000 svgShape"><polygon fill="#5d5266" points="35.588 28.606 35.588 28.863 38.171 30.364 38.171 30.107" class="color525566 svgShape"></polygon><polygon fill="#f4f6f8" points="38.171 30.107 38.171 30.364 39.277 29.726 39.276 29.469" class="color474b59 svgShape"></polygon><polygon fill="#6822a2" points="35.588 28.606 38.171 30.107 39.276 29.469 36.693 27.968" class="color5b5e71 svgShape"></polygon></g><g fill="#010001" class="color000000 svgShape"><polygon fill="#5d5266" points="33.868 29.599 33.869 29.856 34.97 30.496 34.97 30.24" class="color525566 svgShape"></polygon><polygon fill="#f4f6f8" points="34.97 30.24 34.97 30.496 36.076 29.858 36.075 29.602" class="color474b59 svgShape"></polygon><polygon fill="#6822a2" points="33.868 29.599 34.97 30.24 36.075 29.602 34.973 28.961" class="color5b5e71 svgShape"></polygon></g><g fill="#010001" class="color000000 svgShape"><polygon fill="#5d5266" points="32.148 30.592 32.149 30.849 33.251 31.489 33.25 31.233" class="color525566 svgShape"></polygon><polygon fill="#f4f6f8" points="33.25 31.233 33.251 31.489 34.36 30.849 34.359 30.592" class="color474b59 svgShape"></polygon><polygon fill="#6822a2" points="32.148 30.592 33.25 31.233 34.359 30.592 33.257 29.952" class="color5b5e71 svgShape"></polygon></g><g fill="#010001" class="color000000 svgShape"><polygon fill="#5d5266" points="35.349 30.46 35.35 30.717 36.452 31.357 36.451 31.1" class="color525566 svgShape"></polygon><polygon fill="#f4f6f8" points="36.451 31.1 36.452 31.357 37.557 30.719 37.556 30.462" class="color474b59 svgShape"></polygon><polygon fill="#6822a2" points="35.349 30.46 36.451 31.1 37.556 30.462 36.454 29.822" class="color5b5e71 svgShape"></polygon></g><g fill="#010001" class="color000000 svgShape"><polygon fill="#5d5266" points="33.629 31.453 33.63 31.71 34.732 32.35 34.731 32.093" class="color525566 svgShape"></polygon><polygon fill="#f4f6f8" points="34.731 32.093 34.732 32.35 35.841 31.71 35.84 31.453" class="color474b59 svgShape"></polygon><polygon fill="#6822a2" points="33.629 31.453 34.731 32.093 35.84 31.453 34.738 30.813" class="color5b5e71 svgShape"></polygon></g></g><g fill="#010001" class="color000000 svgShape"><polygon fill="#d4d5d6" points="32.103 24.755 39.739 29.192 41.461 28.198 33.825 23.761" class="colord4d6d6 svgShape"></polygon><polygon fill="#d4d5d6" points="6.286 39.661 13.922 44.099 15.644 43.104 8.008 38.667" class="colord4d6d6 svgShape"></polygon></g><g fill="#010001" class="color000000 svgShape"><polygon fill="#e0e1e2" points="30.121 19.616 30.123 20.246 23.916 23.829 23.915 23.199" class="colore0e2e2 svgShape"></polygon><g fill="#010001" class="color000000 svgShape"><polygon fill="#e0e1e2" points="21.462 24.615 21.464 25.245 15.257 28.828 15.256 28.198" class="colore0e2e2 svgShape"></polygon><polygon fill="#e0e1e2" points="21.457 23.121 21.459 23.751 15.253 27.334 15.251 26.704" class="colore0e2e2 svgShape"></polygon><path fill="#a50b89" d="M21.00639,17.95332c0.23899-0.13798,0.43639-0.02543,0.43715,0.24108l0.00994,3.5051
					c0.00078,0.27456-0.19536,0.60626-0.43435,0.74424l-5.34161,3.08398c-0.23899,0.13798-0.42936,0.02944-0.43014-0.24513
					l-0.00994-3.5051c-0.00076-0.26651,0.18836-0.60222,0.42735-0.7402L21.00639,17.95332z" class="colore74c3c svgShape"></path><path fill="#e0e1e2" d="M29.65573,7.03811c0.23194-0.13391,0.42936-0.02944,0.43014,0.24513l0.00994,3.5051
					c0.00076,0.26651-0.19541,0.60629-0.42735,0.7402L7.00165,24.61522c-0.23899,0.13798-0.42939,0.02139-0.43014-0.24512
					L6.56157,20.865c-0.00078-0.27456,0.18836-0.60222,0.42735-0.7402L29.65573,7.03811z" class="colore0e2e2 svgShape"></path></g><polygon fill="#e0e1e2" points="12.803 29.614 12.804 30.244 6.598 33.827 6.597 33.197" class="colore0e2e2 svgShape"></polygon><polygon fill="#e0e1e2" points="12.798 28.12 12.8 28.75 6.594 32.333 6.592 31.703" class="colore0e2e2 svgShape"></polygon><path fill="#5046e4" d="M12.3473,22.95265c0.23899-0.13798,0.43644-0.02546,0.4372,0.24105l0.00994,3.5051
				c0.00078,0.27456-0.19541,0.60629-0.4344,0.74427l-5.34161,3.08398c-0.23899,0.13798-0.42936,0.02944-0.43014-0.24512
				l-0.00994-3.5051c-0.00076-0.26651,0.18836-0.60222,0.42735-0.7402L12.3473,22.95265z" class="color2ecc71 svgShape"></path><path fill="#f10fc8" d="M29.67249,12.94994c0.23194-0.13391,0.42939-0.02139,0.43014,0.24513l0.00994,3.5051
				c0.00078,0.27456-0.19541,0.60629-0.42735,0.7402l-5.34867,3.08805c-0.23194,0.13391-0.42932,0.02941-0.4301-0.24515
				l-0.00994-3.5051c-0.00076-0.26651,0.19536-0.60626,0.4273-0.74017L29.67249,12.94994z" class="colorf1c40f svgShape"></path><polygon fill="#e0e1e2" points="30.117 18.122 30.118 18.752 23.912 22.335 23.91 21.705" class="colore0e2e2 svgShape"></polygon></g></svg>