<svg xmlns="http://www.w3.org/2000/svg" viewBox="0 0 52 52" id="Accounting"><path fill="#f4f6f8" d="M45.222 22.51c0 1.19-.84 2.64-1.87 3.23l-2.231 1.291c-.51.3-.97.33-1.31.13a.24.24 0 0 1-.12-.07l-7.012-4.07.01 4.81c0 2.24-1.58 4.981-3.531 6.112-1 .57-1.9.61-2.55.22-.01-.01-.02-.01-.03-.02l-6.742-3.911v1.27c.04.11.05.22.05.33l-.04 17.254c-.01.21-.08.35-.2.43l-.95.55c-.12.07-.29.07-.48-.04L7.443 43.805c-.37-.22-.67-.73-.66-1.16l.04-17.244c.01-.22.09-.38.23-.44l.92-.55c.09-.05.2-.05.32-.02v-1.23l-.01-1.461v-.86c0-.28.03-.56.08-.85.01-.08.02-.17.04-.25.09-.41.22-.83.39-1.24.03-.08.07-.16.1-.24.17-.381.37-.751.6-1.101.05-.07.09-.14.15-.21.24-.36.51-.69.81-.99.06-.07.12-.12.18-.18.321-.31.661-.57 1.021-.78.03-.02.06-.03.09-.05.09-.05.18-.09.27-.13.8-.37 1.51-.36 2.05-.05l7.072 4.11v-2l-.01-.29v-1.75l-.01-1.471v-2.04l-.01-1.46V8.546c0-.14 0-.28.02-.42 0-.09.01-.18.03-.27.05-.42.15-.86.3-1.29.02-.08.05-.15.08-.23.15-.39.33-.78.54-1.15.03-.08.08-.15.12-.22.22-.371.47-.731.73-1.051.06-.06.11-.13.17-.18.29-.35.62-.66.96-.91.07-.06.141-.11.21-.16.121-.08.241-.16.361-.23.36-.2.7-.35 1.03-.43.12-.04.23-.07.34-.09.57-.08 1.07 0 1.49.24l11.043 6.41a.423.423 0 0 0-.14-.06c.8.381 1.31 1.301 1.32 2.651l.02 8.162 5.492 3.191z" class="colorbac1ce svgShape"></path><path fill="#f4f6f8" d="m41.93 38.684-.01 1.61c0 .418-.161.82-.41 1.13-.312.448-.87.81-1.35 1.05a6.185 6.185 0 0 1-1.54.51c-.144.042-.852.13-.97.13-.4.04-.64.028-.78.03-.279 0-.645-.029-.77-.05a6.554 6.554 0 0 1-.78-.12 9.785 9.785 0 0 1-.77-.2c-.782-.234-1.542-.727-1.711-.93-.143.058-.678.13-.83.15-.05 1.25.126 1.552-.21 2.25-.06.101-.12.201-.2.301-.15.2-.34.39-.57.57-.07.06-.13.1-.2.14-.08.07-.17.12-.26.17-.1.06-.21.12-.32.17-.06.03-.13.07-.2.1-.18.08-.37.15-.57.21-.06.02-.13.04-.201.06-.18.06-.38.1-.58.14-.06.02-.13.03-.2.04-.19.04-.37.06-.57.08-.06 0-.13.01-.2.01-.19.03-.38.03-.57.03h-.2c-.2 0-.39-.01-.57-.03-.07 0-.14-.01-.2-.01-.2-.02-.39-.05-.58-.08-.07-.01-.14-.03-.2-.04-.19-.04-.39-.09-.571-.15-.07-.01-.14-.03-.2-.05-.2-.07-.39-.14-.58-.23a.881.881 0 0 1-.2-.09c-.1-.05-.2-.1-.3-.16-.09-.05-.19-.11-.27-.17-.07-.04-.13-.09-.2-.15a2.76 2.76 0 0 1-.57-.56c-.08-.1-.15-.2-.2-.31-.15-.27-.22-.55-.22-.84l.01-1.61c0-.73.48-1.46 1.44-2.021.71-.42 1.6-.68 2.52-.79l.01-1.41c0-.73.48-1.46 1.44-2.021 1.931-1.12 5.062-1.12 7.002 0 .25.14.47.3.65.46 1.77-.4 3.851-.19 5.292.64.98.56 1.47 1.3 1.47 2.04z" class="colorbac1ce svgShape"></path><path fill="#cad3dd" d="m44.715 22.798-11.036-6.413.504-.291 11.036 6.413z" class="colorcad0dd svgShape"></path><path fill="#d4dee8" d="M44.718 22.8c0 .869-.612 1.93-1.366 2.363l-2.235 1.289c-.378.22-.72.242-.968.092l-11.033-6.413c.25.15.591.128.968-.092l2.228-1.289c.754-.434 1.367-1.501 1.367-2.363l11.04 6.413z" class="colord4dae8 svgShape"></path><path fill="#d4dee8" d="M39.81 27.157 28.753 20.75c-.334-.199-.54-.612-.548-1.21l-.043-14.505c0-1.11-.391-1.894-1.025-2.257L38.17 9.191c.633.363 1.032 1.146 1.032 2.257 0 0 .267 15.51.608 15.709z" class="colord4dae8 svgShape"></path><path fill="#d4dee8" d="M38.532 8.568c-.4-.23-.89-.32-1.43-.24-.11.01-.23.04-.35.08-.35.07-.71.23-1.09.44-.11.06-.21.13-.32.21-.07.04-.15.1-.22.16-.34.25-.67.56-.97.9-.06.06-.11.13-.17.19a8.765 8.765 0 0 0-.85 1.25c-.22.37-.401.77-.541 1.16a.79.79 0 0 0-.08.23c-.16.43-.27.87-.32 1.29l-.03.261v.01c-.01.15-.02.3-.02.45v1.28l.01 1.46v2.041l.01 1.47v1.75l.01.291v3.21l.01.29v1.371c0 .03.077.216.067.246.01.09-.077.024-.087.114-.03.43-.13.87-.28 1.31-.02.08-.05.16-.08.24-.15.39-.33.77-.55 1.14-.04.07-.065.193-.115.263-.22.37-.49.71-.78 1.01.306.64-.078.172-.18.18-.31.32-.676.528-1.026.738-.03.02-.034.082-.064.092-.09.06-.206.048-.286.088-.7.31-1.33.3-1.8.03l-11.033-6.421c.46.27 1.08.28 1.76-.01.09-.03.17-.07.26-.13.04-.01.09-.03.13-.06.34-.2.67-.46.98-.76l.181-.18c.29-.3.55-.65.78-1.01.05-.07.1-.14.13-.22.23-.36.41-.74.56-1.13.03-.081.06-.161.08-.241.16-.43.26-.87.29-1.3.02-.09.02-.18.02-.27.01-.05.01-.09.01-.14v-1.61l-.01-1.461v-1.75l-.01-.29v-1.75l-.01-1.471v-2.04l-.01-1.461v-1.32c0-.14 0-.28.02-.42 0-.09.01-.18.03-.27.05-.42.15-.86.3-1.29.02-.08.05-.15.08-.23.15-.39.33-.781.54-1.151.03-.08.08-.15.12-.22.22-.37.47-.73.73-1.05.06-.06.11-.13.17-.18.29-.35.62-.66.961-.91.07-.06.14-.11.21-.16.12-.08.24-.16.36-.23.36-.2.7-.35 1.03-.43.12-.04.23-.07.34-.09.57-.08 1.07 0 1.49.24l11.043 6.41z" class="colord4dae8 svgShape"></path><path fill="#d4dee8" d="M35.352 7.878c-.06.04-.12.07-.18.1-.26.15-.52.33-.77.53-.07.06-.14.11-.2.17-.33.28-.64.59-.93.93-.05.06-.1.12-.15.19-.26.33-.511.68-.731 1.05-.04.07-.09.14-.12.22-.22.37-.4.75-.55 1.14-.04.07-.07.15-.1.23-.15.42-.27.84-.35 1.26-.02.09-.04.17-.05.26-.05.341-.08.681-.08 1.011v.69l.01 1.46v2.041l.01 1.47v2.04l.01 1.461v2.04l.01 1.461v.49c0 .37-.06.76-.18 1.16-.02.08-.05.16-.08.24-.13.39-.31.78-.53 1.15-.05.08-.09.15-.14.22-.24.37-.52.71-.81.99-.06.06-.13.12-.19.171-.19.17-.39.32-.6.44-.3.17-.531.24-.701.27-.06.01-.11.01-.15.01a.52.52 0 0 1-.29-.07l-8.662-5.031c.04-.03.09-.06.13-.09.36-.25.7-.54 1.02-.88.06-.06.11-.12.17-.18.28-.32.54-.66.76-1.02.05-.07.09-.14.13-.21.22-.36.41-.74.57-1.13l.09-.24c.16-.421.27-.851.34-1.271.02-.08.03-.17.04-.26.03-.23.05-.46.05-.69v-1.03l-.01-1.46V17.17l-.01-1.47v-2.031l-.01-1.47v-1.75l-.01-.29V8.547c0-.04 0-.09.01-.13 0-.43.09-.88.22-1.34.03-.08.05-.15.08-.23.13-.4.31-.79.52-1.171.04-.07.08-.14.13-.21.21-.37.461-.71.751-1.03.04-.07.1-.13.16-.19.32-.35.67-.65 1.04-.87.04-.03.07-.05.11-.07.05-.03.1-.05.14-.07.43-.24.83-.35 1.17-.35.21 0 .4.05.55.14l8.363 4.85z" class="colord4dae8 svgShape"></path><path fill="#d4dee8" d="m26.646 34.182-11.04-6.413c-.633-.37-1.031-1.153-1.031-2.271l-.029-8.27c0-.905-.32-1.545-.833-1.844l11.033 6.413c.52.299.84.94.84 1.843l.021 8.278c.007 1.11.399 1.894 1.04 2.264z" class="colord4dae8 svgShape"></path><path fill="#f4f6f8" d="M25.1 21.18c-.52-.31-1.221-.32-2.011.04-.08.03-.17.08-.26.13-.04.02-.09.04-.13.07-.35.2-.68.45-1 .74l-.18.18c-.3.3-.58.63-.82.991-.06.07-.1.14-.15.21-.23.35-.43.72-.6 1.1-.04.08-.07.16-.1.24-.18.4-.311.82-.4 1.23-.021.08-.031.17-.051.25-.05.3-.08.6-.08.89v.811l.01 1.47v1.76l.01.28v1.761l.01 1.46v2.041l.01 1.5-11.042-6.411v-1.75l-.01-1.47v-2.031l-.01-1.47V23.16l-.01-1.46v-.86c0-.28.03-.56.08-.85.01-.08.02-.17.04-.25.09-.41.22-.831.39-1.241.03-.08.07-.16.1-.24.17-.38.37-.75.6-1.1.05-.07.09-.14.15-.21.24-.36.51-.69.81-.99.06-.07.12-.12.18-.18.32-.31.66-.57 1.02-.78.03-.02.06-.03.09-.05.09-.05.18-.09.27-.13.8-.371 1.51-.361 2.05-.05L25.1 21.18z" class="colore4e8f4 svgShape"></path><path fill="#f4f6f8" d="M22.109 20.6c-.01.01-.03.02-.04.03-.08.04-.15.09-.23.15-.36.24-.71.53-1.04.86l-.18.18c-.29.31-.55.65-.79 1.01-.06.06-.1.13-.15.2v.011c-.23.35-.431.72-.601 1.1-.05.08-.08.15-.11.23-.18.4-.32.81-.42 1.22-.03.08-.05.17-.06.25-.11.46-.17.92-.17 1.36v.29l.01 1.461v2.04l.01 1.471v2.03l.01 1.47v.631l-9.032-5.251v-.6l-.01-1.46v-2.041l-.01-1.46v-2.04l-.01-1.471v-1.43c0-.1 0-.2.02-.31 0-.08.01-.17.03-.26.05-.41.17-.85.33-1.271.03-.08.07-.16.1-.24.16-.38.37-.75.59-1.11.05-.06.09-.13.15-.2.25-.36.54-.69.85-.97.06-.07.12-.12.19-.18.2-.16.4-.31.61-.43.24-.14.47-.24.68-.29h.01c.11-.03.22-.04.32-.04.04 0 .07 0 .1.01.12.01.21.04.3.09l8.543 4.96z" class="colore4e8f4 svgShape"></path><path fill="#f4f6f8" d="M35.667 8.853c2.222-1.283 4.032-.247 4.04 2.302l.04 14.511c.003.867.619 1.223 1.373.787l2.231-1.288c.755-.435 1.366-1.5 1.364-2.367l.504-.29c.004 1.19-.834 2.641-1.866 3.237l-2.231 1.288c-1.032.596-1.875.115-1.879-1.076l-.04-14.511c-.007-2.23-1.594-3.134-3.534-2.014-1.672.966-3.027 3.317-3.021 5.238l.037 13.16c.006 2.24-1.575 4.983-3.529 6.111-1.95 1.126-3.54.214-3.547-2.026l-.023-8.277c-.005-1.822-1.3-2.56-2.89-1.642-1.587.916-2.873 3.144-2.868 4.966l.032 11.081-.505.291-.031-11.08c-.006-2.141 1.506-4.762 3.37-5.838 1.867-1.078 3.39-.21 3.396 1.93l.024 8.278c.005 1.921 1.368 2.703 3.04 1.738s3.032-3.32 3.027-5.241l-.038-13.16c-.006-2.24 1.575-4.983 3.524-6.108z" class="colorbac1ce svgShape"></path><path fill="#4f4657" d="M29.44 31.883c-.06.06-.13.12-.19.17l-3.14-1.82v-.28l3.33 1.93zm.95-1.21c-.05.08-.09.15-.14.22l-4.15-2.4v-.29l4.29 2.47zM31.161 20.63v.29l-9.032-5.221v-.28z" class="color464957 svgShape"></path><g fill="#4f4657" class="color464957 svgShape"><path d="M31.141 15.369v.29l-9.022-5.211-.01-.29zM28.91 12.337c-.02.09-.04.17-.05.26l-6.751-3.9v-.15c0-.04 0-.09.01-.13l6.791 3.92zm2.81-.128c-.04.07-.07.15-.1.23L22.34 7.077c.03-.08.05-.15.08-.23l9.302 5.362zm.671-1.36c-.04.07-.09.14-.12.22l-9.332-5.392c.04-.07.08-.14.13-.21l9.322 5.381zm-1.48-2.603c-.05.06-.1.12-.15.19l-6.942-4c.04-.07.1-.13.16-.19l6.932 4zm3.49.262c-.07.06-.14.11-.2.17L25.02 3.376c.04-.03.07-.05.11-.07.05-.03.1-.05.14-.07l9.132 5.272z" fill="#010001" class="color000000 svgShape"></path></g><path fill="#4f4657" d="M31.151 17.12v.29l-9.032-5.212v-.29zM28.79 17.518v.28l-6.661-3.849v-.28zM31.161 22.381v.29l-9.022-5.221v-.28zM28.81 22.769v.29l-6.671-3.849v-.29zM31.17 25.882v.29l-5.08-2.941c-.01-.1-.01-.2-.03-.3l5.11 2.95zM31.181 27.632v.29l-5.091-2.941v-.29zM28.64 27.92c-.02.08-.05.16-.08.24l-2.46-1.418v-.29l2.54 1.468zm-.69 4.843c-.06.01-.11.01-.15.01a.52.52 0 0 1-.29-.07l-1.38-.8c-.01-.06-.02-.13-.01-.2l1.83 1.06zM18.348 35.964v.29l-9.032-5.211v-.3zM18.338 34.213v.28l-9.032-5.211v-.28zM13.827 22.868c-.03.08-.05.17-.06.25L9.306 20.53c0-.08.01-.17.03-.26l4.49 2.598zm5.251 1.273c-.05.08-.08.15-.11.23L9.666 19c.03-.08.07-.16.1-.24l9.312 5.381zm-1.73-6.235c-.08.04-.15.09-.23.15l-4.271-2.477c.11-.03.22-.04.32-.04.04 0 .07 0 .1.01l4.08 2.357zm3.45 3.735-.18.18-9.262-5.342c.06-.07.12-.12.19-.18l9.252 5.342zm-5.691-1.534c-.06.06-.1.13-.15.2l-4.601-2.657c.05-.06.09-.13.15-.2l4.601 2.657zM18.318 27.202v.29l-9.032-5.221v-.28zM13.607 26.228v.29l-4.311-2.487v-.29zM18.328 30.713v.28l-9.032-5.211v-.291zM18.338 32.463v.29l-9.032-5.221v-.29z" class="color464957 svgShape"></path><path fill="#514759" d="m19.886 31.832-.043 17.253c-.007.207-.078.356-.199.427l-.952.557c.12-.071.192-.22.192-.434l.05-17.247c0-.42-.292-.94-.662-1.146l-10.776-6.22c-.185-.114-.349-.121-.477-.05l.96-.557c.12-.071.291-.057.476.05l10.77 6.22c.37.207.668.727.661 1.147z" class="color474b59 svgShape"></path><path fill="#6822a2" d="M18.272 31.239c.368.212.663.728.662 1.15l-.05 17.248c0 .423-.297.598-.665.385l-10.775-6.22c-.368-.213-.667-.731-.666-1.154l.05-17.248c0-.423.301-.594.67-.382l10.774 6.22z" class="color5b5e71 svgShape"></path><path fill="#514759" d="m8.072 27.3-.364-.21-.012 3.994.365-.123z" class="color474b59 svgShape"></path><path fill="#5d5266" d="m8.061 30.961-.365.123 10.089 5.825.001-.334z" class="color525566 svgShape"></path><path fill="#7d74fd" d="m8.072 27.3-.011 3.661 9.725 5.614.01-3.661z" class="color748bfd svgShape"></path><path fill="#cad3dd" d="m9.489 41.428-.007 1.53c0 .029-.008.05-.029.064l-.249.143c.014-.008.028-.029.028-.064L7.78 40.616c-.035-.02-.064-.02-.085-.007l.256-.15c.015-.013.05-.006.079.008l1.352.783a.238.238 0 0 1 .107.178z" class="colorcad0dd svgShape"></path><path fill="#f4f6f8" d="M9.128 41.394c.06.034.11.115.109.178l-.004 1.53c0 .068-.05.09-.11.057l-1.35-.78a.234.234 0 0 1-.108-.183l.004-1.53c0-.062.05-.086.11-.051l1.35.779z" class="colore4e8f4 svgShape"></path><path fill="#cad3dd" d="m9.496 38.801-.007 1.53c0 .03-.007.05-.029.058l-.249.15c.021-.015.029-.036.029-.065L7.788 37.99c-.036-.021-.064-.021-.086-.007l.256-.15c.022-.014.05-.007.079.008l1.352.783a.226.226 0 0 1 .107.177z" class="colorcad0dd svgShape"></path><path fill="#f4f6f8" d="M9.136 38.767c.059.034.109.115.108.178l-.004 1.53c0 .063-.05.086-.11.052l-1.349-.78a.233.233 0 0 1-.109-.177l.005-1.53c0-.063.05-.086.109-.052l1.35.78z" class="colore4e8f4 svgShape"></path><path fill="#cad3dd" d="m9.503 36.175-.007 1.53c0 .029-.007.05-.029.057l-.249.15c.022-.014.029-.036.029-.064l-1.452-2.484c-.036-.022-.064-.022-.086-.008l.257-.149c.02-.014.05-.007.078.007l1.352.783a.226.226 0 0 1 .107.178z" class="colorcad0dd svgShape"></path><path fill="#f4f6f8" d="M9.143 36.14c.06.035.11.116.109.178l-.004 1.53c0 .063-.05.086-.11.052l-1.35-.779a.233.233 0 0 1-.108-.178l.004-1.53c0-.062.05-.086.11-.052l1.35.78z" class="colore4e8f4 svgShape"></path><path fill="#cad3dd" d="M9.51 33.541v1.53l-.007.008c0 .028-.007.05-.021.057l-.257.142c.022-.007.029-.028.029-.057l-.107-1.708-1.345-.776a.113.113 0 0 0-.057-.021l.228-.135c.021-.015.05-.015.078.007l1.345.783.007-.007a.25.25 0 0 1 .107.177z" class="colorcad0dd svgShape"></path><path fill="#f4f6f8" d="M9.15 33.514c.06.034.11.115.11.178l-.005 1.53c0 .062-.05.086-.11.052l-1.35-.78a.233.233 0 0 1-.108-.177l.004-1.53c0-.063.05-.086.11-.052l1.35.779z" class="colore4e8f4 svgShape"></path><path fill="#cad3dd" d="m12.329 43.065-.007 1.53c0 .036-.008.057-.029.064l-.249.15a.09.09 0 0 0 .028-.064l-1.452-2.491c-.035-.015-.064-.022-.085-.008l.256-.149a.083.083 0 0 1 .079.014l1.352.776a.238.238 0 0 1 .107.178z" class="colorcad0dd svgShape"></path><path fill="#f4f6f8" d="M11.973 43.036a.232.232 0 0 1 .104.175l-.004 1.53c0 .068-.05.092-.105.06l-1.354-.782a.234.234 0 0 1-.109-.183l.004-1.53c0-.062.05-.086.11-.052l1.354.782z" class="colore4e8f4 svgShape"></path><path fill="#cad3dd" d="m12.336 40.439-.007 1.53c0 .028-.007.05-.029.064l-.249.142c.021-.007.029-.028.029-.057l-1.452-2.49c-.036-.015-.064-.022-.086-.008l.256-.15a.083.083 0 0 1 .079.015l1.352.776a.238.238 0 0 1 .107.178z" class="colorcad0dd svgShape"></path><path fill="#f4f6f8" d="M11.98 40.41a.232.232 0 0 1 .105.175l-.005 1.53c0 .063-.05.086-.104.054l-1.355-.781a.233.233 0 0 1-.108-.178l.004-1.53c0-.063.05-.086.11-.052l1.353.782z" class="colore4e8f4 svgShape"></path><path fill="#cad3dd" d="m12.343 37.812-.007 1.53c0 .029-.007.05-.029.064l-.249.143c.022-.007.029-.029.029-.064L10.635 37a.22.22 0 0 0-.057-.015l.228-.142a.083.083 0 0 1 .078.014l1.352.776a.238.238 0 0 1 .107.178z" class="colorcad0dd svgShape"></path><path fill="#f4f6f8" d="M11.988 37.783a.232.232 0 0 1 .104.175l-.004 1.53c0 .063-.05.086-.105.055l-1.354-.782a.233.233 0 0 1-.109-.178l.004-1.53c0-.063.05-.086.11-.052l1.354.782z" class="colore4e8f4 svgShape"></path><path fill="#cad3dd" d="m12.35 35.186-.007 1.53c0 .028-.007.05-.029.064l-.249.142c.022-.007.029-.028.029-.064l-1.452-2.484c-.036-.021-.064-.021-.079-.007l.25-.15a.083.083 0 0 1 .078.015l1.352.776a.238.238 0 0 1 .107.178z" class="colorcad0dd svgShape"></path><path fill="#f4f6f8" d="M11.995 35.156a.232.232 0 0 1 .105.176l-.005 1.53c0 .062-.05.086-.105.054l-1.354-.782a.233.233 0 0 1-.109-.178l.005-1.53c0-.062.05-.086.11-.051l1.353.781z" class="colore4e8f4 svgShape"></path><path fill="#cad3dd" d="m15.169 44.702-.007 1.53c0 .036-.008.057-.029.072l-.25.142c.022-.007.03-.029.03-.064L13.46 43.89a.103.103 0 0 0-.078-.008l.25-.142c.02-.014.05-.007.078.007l1.352.783a.218.218 0 0 1 .107.171z" class="colorcad0dd svgShape"></path><path fill="#f4f6f8" d="M14.813 44.676c.06.034.105.113.105.175l-.005 1.53c0 .068-.046.094-.105.06l-1.354-.782a.225.225 0 0 1-.104-.18l.004-1.53c0-.063.046-.089.105-.055l1.354.782z" class="colore4e8f4 svgShape"></path><path fill="#cad3dd" d="m15.176 42.076-.007 1.53c0 .036-.007.057-.029.064l-.249.15c.021-.015.029-.036.029-.065l-1.452-2.49a.103.103 0 0 0-.079-.008l.25-.142c.02-.015.05-.007.078.007l1.352.783a.218.218 0 0 1 .107.17z" class="colorcad0dd svgShape"></path><path fill="#f4f6f8" d="M14.82 42.05c.06.034.105.112.105.175l-.004 1.53c0 .062-.046.088-.105.054l-1.354-.782a.224.224 0 0 1-.105-.175l.005-1.53c0-.063.045-.089.105-.054l1.354.781z" class="colore4e8f4 svgShape"></path><path fill="#cad3dd" d="m15.183 39.45-.007 1.53c0 .035-.007.056-.029.064l-.249.149c.022-.014.029-.036.029-.064l-1.452-2.491a.103.103 0 0 0-.079-.007l.25-.143c.02-.014.05-.007.078.007l1.352.783a.218.218 0 0 1 .107.171z" class="colorcad0dd svgShape"></path><path fill="#f4f6f8" d="M14.828 39.423c.06.034.105.112.104.175l-.004 1.53c0 .063-.046.089-.105.055L13.47 40.4a.224.224 0 0 1-.104-.175l.004-1.53c0-.063.046-.09.105-.055l1.354.782z" class="colore4e8f4 svgShape"></path><path fill="#cad3dd" d="m15.19 36.823-.007 1.53c0 .036-.007.057-.029.064l-.249.15c.022-.015.029-.036.029-.064l-1.452-2.492a.103.103 0 0 0-.079-.007l.257-.142c.014-.014.042-.014.07.007l1.353.783a.218.218 0 0 1 .107.17z" class="colorcad0dd svgShape"></path><path fill="#f4f6f8" d="M14.836 36.796c.059.034.104.113.104.175l-.004 1.53c0 .063-.046.09-.105.055l-1.355-.782a.224.224 0 0 1-.104-.175l.005-1.53c0-.063.045-.089.104-.055l1.355.782z" class="colore4e8f4 svgShape"></path><path fill="#ef41cf" d="m18.009 46.346-.007 1.53c0 .036-.008.057-.029.065l-.25.15c.022-.015.03-.037.03-.072L16.3 45.535c-.028-.022-.057-.022-.078-.007l.25-.15a.103.103 0 0 1 .077.007l1.353.783a.22.22 0 0 1 .107.178z" class="colorefac41 svgShape"></path><path fill="#7abcfe" d="M17.654 46.316c.059.034.104.112.104.175l-.005 1.53c0 .068-.045.094-.104.06l-1.355-.782a.225.225 0 0 1-.104-.18l.004-1.53c0-.063.046-.09.105-.055l1.355.782z" class="colorfed57a svgShape"></path><path fill="#5046e4" d="m18.016 43.72-.007 1.53c0 .029-.007.05-.029.064l-.249.143c.021-.008.028-.029.028-.065l-1.452-2.484c-.028-.021-.056-.021-.078-.007l.25-.15a.103.103 0 0 1 .078.008l1.352.783a.22.22 0 0 1 .107.178z" class="color4562ef svgShape"></path><path fill="#7d74fd" d="M17.661 43.69c.06.033.104.112.104.174l-.004 1.53c0 .063-.046.09-.105.055l-1.354-.782a.224.224 0 0 1-.104-.175l.004-1.53c0-.063.046-.089.105-.055l1.354.782z" class="color748bfd svgShape"></path><path fill="#986eba" d="m18.023 41.093-.007 1.53c0 .03-.007.05-.029.065l-.249.142c.021-.007.029-.028.029-.064l-1.452-2.484c-.029-.021-.057-.021-.079-.007l.257-.15c.014-.007.042-.007.07.007l1.353.783a.22.22 0 0 1 .107.178z" class="color6eba6e svgShape"></path><path fill="#98b8d8" d="M17.668 41.063c.06.034.105.112.105.175l-.005 1.53c0 .063-.045.089-.105.054l-1.354-.781a.224.224 0 0 1-.104-.176l.004-1.53c0-.062.046-.088.105-.054l1.354.782z" class="color9ad898 svgShape"></path><path fill="#a50b89" d="M18.03 38.467v1.53c0 .029-.014.05-.036.064l-.249.143c.022-.007.029-.029.029-.064l-1.452-2.485c-.029-.02-.057-.02-.079-.007l.257-.15c.014-.006.042-.006.07.008l1.353.783a.22.22 0 0 1 .107.178z" class="colorf34858 svgShape"></path><path fill="#f960dd" d="M17.676 38.436c.059.034.104.113.104.175l-.004 1.53c0 .063-.046.089-.105.055l-1.354-.782a.224.224 0 0 1-.105-.175l.005-1.53c0-.063.046-.089.105-.055l1.354.782z" class="colorf9607f svgShape"></path><path fill="#4aa1f9" d="M41.928 38.687c-.052 1.417.112 1.792-.217 2.43-.22.411-.685.86-.97 1.018-.182.146-.758.462-1.347.65-.206.052-.366.118-.778.2-.238.06-.836.129-.97.129-.462.057-1.178.03-1.548-.016a6.994 6.994 0 0 1-.778-.12c-1.517-.317-3.311-1.24-3.311-2.71l.008-1.613c0 .289.072-.01.216.264.056.104.12.208.2.312.392.544.962.847 1.34 1.05.367.185.891.377 1.547.514.141.035.55.101.778.12.336.042 1.11.071 1.548.016.132 0 .72-.066.97-.128.486-.097 1.1-.282 1.548-.505.224-.113.589-.316.778-.481.322-.245.571-.506.77-.874.144-.273.216.025.216-.256z" class="colorf9bb4a svgShape"></path><path fill="#d839bb" d="M41.711 39.521v1.596a1.81 1.81 0 0 1-.2.305v-1.588c.08-.104.144-.208.2-.313zm-.77.874v1.596a1.153 1.153 0 0 1-.2.144V40.54c.072-.04.137-.089.2-.145zm-.777.482v1.595c-.064.032-.128.064-.2.096v-1.603c.072-.032.136-.056.2-.088zm-.77.304v1.604c-.064.016-.128.04-.2.056v-1.604c.072-.016.136-.032.2-.056zm-.778.2v1.604c-.064.016-.136.024-.2.04v-1.603c.064-.016.136-.024.2-.04zm-.77.113v1.604a1.697 1.697 0 0 1-.2.016V41.51c.064 0 .136-.008.2-.016zm-.777.048v1.604h-.2v-1.612c.063.008.135.008.2.008zm-.77-.032v1.604a1.7 1.7 0 0 1-.2-.016v-1.604c.063.008.128.016.2.016zm-.778-.096v1.604a1.773 1.773 0 0 1-.2-.04v-1.604c.064.016.128.032.2.04zm-.77-.185v1.604a1.469 1.469 0 0 1-.2-.056v-1.604c.064.024.136.04.2.056zm-.778-.28v1.603a1.506 1.506 0 0 1-.2-.088V40.86c.064.033.128.065.2.089zm-.77-.417v1.603a1.886 1.886 0 0 1-.2-.152V40.38c.064.056.128.105.2.153zm-.77-.722v1.612c-.08-.096-.152-.2-.2-.313v-1.612c.056.104.12.209.2.313z" class="colord89b39 svgShape"></path><path fill="#7abcfe" d="M40.462 36.641c1.94 1.12 1.954 2.939.027 4.06-1.932 1.122-5.072 1.12-7.012 0-1.94-1.121-1.95-2.938-.019-4.06 1.928-1.12 5.064-1.12 7.004 0z" class="colorfed57a svgShape"></path><path fill="#ef41cf" d="M39.74 37.247c1.538.786 1.549 2.061.02 2.847-1.531.787-4.021.786-5.56 0-1.538-.786-1.547-2.06-.015-2.847 1.529-.785 4.016-.785 5.554 0z" class="colorefac41 svgShape"></path><path fill="#7abcfe" d="m38.766 37.831.395-.23-.3-.173-.402.233-.044-.02a2.292 2.292 0 0 0-.945-.207h-.007c-.32 0-.607.072-.85.214-.227.132-.338.264-.329.392.01.143.128.325.35.543l.09.087-.857.497c-.024-.034-.24-.198-.315-.628l-.758.043c.103.527.556.798.611.854l-.314.182.301.174.316-.184.045.02c.317.145.646.22.977.222a1.68 1.68 0 0 0 .87-.212c.227-.132.337-.267.325-.402-.013-.152-.135-.342-.364-.566l-.088-.087.832-.483c.027.033.204.171.314.488l.724-.075c-.094-.231-.25-.431-.465-.596l-.112-.086zM36.6 39.478c-.187 0-.327-.064-.484-.106l.827-.481.05.07c.07.095.096.177.08.25-.033.175-.291.267-.473.267zm.65-1.115c-.024-.052-.126-.16-.09-.302.02-.074.072-.136.158-.186.145-.085.322-.097.524-.041l.216.06-.807.47z" class="colorfed57a svgShape"></path><path fill="#4aa1f9" d="M32.013 41.812c-.052 1.416.112 1.791-.216 2.43a1.81 1.81 0 0 1-.2.304c-.145.2-.338.393-.57.57a1.153 1.153 0 0 1-.2.144c-.08.064-.169.112-.257.168-.104.056-.209.112-.321.168-.064.032-.128.065-.2.097-.185.08-.37.152-.57.216-.064.016-.128.04-.2.056a6.07 6.07 0 0 1-.578.145c-.064.016-.136.024-.2.04a6.918 6.918 0 0 1-.57.072 1.697 1.697 0 0 1-.2.016 4.641 4.641 0 0 1-.577.032h-.2c-.193 0-.386-.016-.57-.032a7.122 7.122 0 0 1-1.548-.28 1.506 1.506 0 0 1-.978-.369c-.104-.057-.2-.105-.297-.161a4.049 4.049 0 0 1-.272-.168 1.886 1.886 0 0 1-.2-.153 2.527 2.527 0 0 1-.57-.561c-.08-.096-.152-.2-.2-.313a1.7 1.7 0 0 1-.225-.842l.008-1.612c0 .29.072-.009.216.264a2.733 2.733 0 0 0 .77.882c.064.056.129.104.2.152.089.056.177.112.273.169.097.056.193.104.297.16.064.032.128.064.2.088.185.088.377.16.578.225.064.024.136.04.2.056.185.056.377.104.57.144.064.016.128.032.2.04.193.032.385.064.577.08.065.008.129.016.2.016.185.016.378.033.57.024.064.009.137.009.2.009.193 0 .386-.009.578-.033a1.7 1.7 0 0 0 .2-.016c.193-.016.386-.04.57-.072.064-.016.136-.024.2-.04.2-.04.393-.088.578-.144.072-.016.136-.032.2-.056.905-.29 1.866-.82 2.318-1.66.144-.273.216.025.216-.255z" class="colorf9bb4a svgShape"></path><path fill="#d839bb" d="M31.797 42.645v1.596a1.81 1.81 0 0 1-.2.305v-1.588c.08-.104.144-.208.2-.313zm-.77.875v1.595a1.153 1.153 0 0 1-.2.145v-1.596c.072-.04.136-.088.2-.144zm-.778.48v1.596c-.064.032-.128.065-.2.097v-1.604c.072-.032.136-.056.2-.088zm-.77.305v1.604c-.064.016-.128.04-.2.056v-1.603a1.47 1.47 0 0 0 .2-.057zm-.778.2v1.605c-.064.016-.136.024-.2.04v-1.604c.064-.016.136-.024.2-.04zm-.77.113v1.604a1.697 1.697 0 0 1-.2.016v-1.604c.064 0 .136-.008.2-.016zm-.777.048v1.604h-.2v-1.612c.063.008.136.008.2.008zm-.77-.032v1.604a1.7 1.7 0 0 1-.2-.016v-1.604c.064.008.128.016.2.016zm-.778-.096v1.604a1.773 1.773 0 0 1-.2-.04v-1.604c.064.016.128.032.2.04zm-.77-.184v1.603a1.469 1.469 0 0 1-.2-.056v-1.604c.064.024.136.04.2.056zm-.777-.281v1.604a1.506 1.506 0 0 1-.201-.089v-1.603c.064.032.128.064.2.088zm-.77-.417v1.604a1.886 1.886 0 0 1-.2-.153v-1.604c.063.057.128.105.2.153zm-.77-.722v1.612c-.08-.096-.152-.2-.2-.313v-1.612c.056.105.12.209.2.313z" class="colord89b39 svgShape"></path><path fill="#7abcfe" d="M30.547 39.765c1.94 1.12 1.954 2.939.027 4.06-1.932 1.122-5.071 1.12-7.012 0s-1.95-2.937-.019-4.06c1.928-1.12 5.064-1.12 7.004 0z" class="colorfed57a svgShape"></path><path fill="#ef41cf" d="M29.824 40.371c1.539.786 1.55 2.062.022 2.847-1.532.788-4.022.786-5.56 0s-1.547-2.06-.016-2.847c1.529-.785 4.016-.785 5.554 0z" class="colorefac41 svgShape"></path><path fill="#7abcfe" d="m28.85 40.956.396-.23-.3-.174-.401.233c-.01-.001-1.006-.5-1.848-.013-.226.132-.337.264-.328.392.01.143.128.325.35.543l.09.087-.857.498-.052-.056a1.102 1.102 0 0 1-.263-.573l-.758.043c.057.29.226.548.503.768l.108.086-.314.182.301.174.317-.184.044.02c.317.145.646.22.978.223a1.68 1.68 0 0 0 .869-.213c.397-.23.48-.46-.039-.968l-.088-.087.832-.483c.027.034.204.172.314.489l.724-.076c-.176-.432-.515-.624-.577-.681zm-1.845 1.564a.624.624 0 0 1-.32.083.956.956 0 0 1-.275-.044l-.21-.063.828-.48.05.069c.07.095.096.177.08.25-.013.07-.065.133-.153.185zm.331-1.033c-.024-.052-.126-.16-.09-.302.055-.213.371-.313.682-.227l.215.06-.807.47z" class="colorfed57a svgShape"></path><path fill="#4aa1f9" d="m35.987 37.59-.009 1.603c0 .426-.174.85-.408 1.13-.234.325-.631.637-.77.715-.14.112-.418.256-.578.336a5.394 5.394 0 0 1-.77.313c-.206.052-.366.118-.777.2-.344.086-1.164.16-1.548.16-.68-.018-.895-.019-1.548-.127a7.06 7.06 0 0 1-.77-.185 4.396 4.396 0 0 1-.777-.28 4.091 4.091 0 0 1-.497-.25 2.965 2.965 0 0 1-.473-.32 2.527 2.527 0 0 1-.57-.561c-.08-.096-.152-.2-.2-.313a1.7 1.7 0 0 1-.225-.842l.008-1.612c0 .289.072-.009.217.264a2.733 2.733 0 0 0 .77.882c.064.056.128.104.2.152 2.726 1.735 7.361 1.121 8.508-1.01.144-.273.217.025.217-.256z" class="colorf9bb4a svgShape"></path><path fill="#d839bb" d="M35.77 38.423v1.596a1.81 1.81 0 0 1-.2.305v-1.588c.08-.104.144-.208.2-.313zm-.77.874v1.596a1.153 1.153 0 0 1-.2.145v-1.596c.072-.04.136-.088.2-.145zm-.778.482v1.595c-.064.032-.128.064-.2.097v-1.604c.072-.032.136-.056.2-.088zm-.77.304v1.604c-.064.016-.128.04-.2.056V40.14c.072-.016.136-.032.2-.056zm-.777.2v1.605c-.064.016-.137.024-.2.04v-1.604c.063-.016.136-.024.2-.04zm-.77.113V42a1.697 1.697 0 0 1-.2.016v-1.604a1.7 1.7 0 0 0 .2-.016zm-.778.048v1.604h-.2v-1.612c.064.008.136.008.2.008zm-.77-.032v1.604a1.7 1.7 0 0 1-.2-.016v-1.604c.064.008.128.016.2.016zm-.778-.096v1.604a1.772 1.772 0 0 1-.2-.04v-1.604c.064.016.128.032.2.04zm-.77-.185v1.604a1.469 1.469 0 0 1-.2-.056v-1.604c.064.024.137.04.2.056zm-.777-.28v1.603a1.506 1.506 0 0 1-.2-.088v-1.603c.064.032.128.064.2.088zm-.77-.417v1.604a1.885 1.885 0 0 1-.2-.153v-1.604c.064.057.128.105.2.153zm-.77-.722v1.612c-.08-.096-.152-.2-.2-.313V38.4c.056.105.12.209.2.313z" class="colord89b39 svgShape"></path><path fill="#7abcfe" d="M34.52 35.543c1.94 1.12 1.955 2.939.027 4.06-1.931 1.122-5.071 1.12-7.011 0-1.94-1.121-1.95-2.937-.02-4.06 1.928-1.12 5.064-1.12 7.004 0z" class="colorfed57a svgShape"></path><path fill="#ef41cf" d="M33.798 36.15c1.538.785 1.55 2.06.02 2.846-1.53.787-4.02.786-5.56 0-1.538-.785-1.546-2.06-.014-2.847 1.528-.785 4.015-.785 5.554 0z" class="colorefac41 svgShape"></path><path fill="#7abcfe" d="m32.824 36.734.396-.23-.301-.174-.401.233-.044-.02a2.292 2.292 0 0 0-.946-.207h-.007c-.32 0-.606.072-.85.214-.227.132-.337.264-.328.392.01.143.127.325.35.543l.089.087-.857.497c-.023-.034-.24-.198-.314-.628l-.758.043c.102.527.556.798.61.854l-.313.182.3.174.317-.184.044.02c1.175.537 2.204-.026 2.173-.392-.013-.152-.136-.342-.364-.566l-.089-.087.832-.483.051.052c.115.117.204.264.264.437l.724-.076c-.095-.231-.25-.431-.466-.596l-.112-.085zm-2.441 1.603-.209-.063.827-.48.05.069c.28.385-.218.61-.668.474zm.926-1.072-.048-.08a.286.286 0 0 1-.042-.222c.02-.074.072-.136.157-.186.145-.084.322-.097.525-.041l.216.06-.808.47z" class="colorfed57a svgShape"></path></svg>