<svg xmlns="http://www.w3.org/2000/svg" viewBox="0 0 51 51" id="AppointmentReminder"><path fill="#f4f6f8" d="M22.171 44.087c-4.675 2.702-8.91 2.908-11.921 1.047l-3.918-2.272c-2.964-1.72-4.806-5.385-4.824-10.593-.01-4.685 1.449-9.818 3.88-14.53l4.095 2.375 4.544 1.019c-1.832 3.32-2.945 7.003-2.936 10.341 0 2.272.533 4.095 1.459 5.414 1.627.14 3.506-.328 5.516-1.487l4.086 2.375.019 6.311z" class="color4878fe svgShape"></path><path fill="#d9dbdd" d="M38.646 15.56c.028 10.491-7.35 23.263-16.475 28.527l-.019-6.311-4.086-2.375c6.097-3.516 11.015-12.043 10.996-19.037l4.086 2.375 5.498-3.179z" class="colord9dddd svgShape"></path><path fill="#9e70c4" d="m38.646 15.56-5.498 3.18-4.086-2.376c-.01-2.272-.533-4.104-1.45-5.423-1.626-.14-3.515.328-5.525 1.487l-.019-6.311-4.095-2.375c4.59-2.655 8.751-2.899 11.762-1.15l3.88 2.263c.075.037.14.074.206.112 2.964 1.73 4.806 5.385 4.825 10.593z" class="color70c470 svgShape"></path><path fill="#bbc0c6" d="m22.172 44.09-4.088-2.376-.018-6.313 4.088 2.376z" class="colorbbbec6 svgShape"></path><path fill="#eaecef" d="M22.154 37.777 18.066 35.4c6.092-3.518 11.013-12.043 10.993-19.04l4.088 2.375c.02 6.998-4.9 15.523-10.993 19.04z" class="coloreaefef svgShape"></path><path fill="#5449fe" d="m9.48 20.111 2.319-.997 2.224 2.016c-1.827 3.324-2.94 7.005-2.931 10.34.02 6.997 4.972 9.822 11.062 6.307l.018 6.313c-9.121 5.267-16.545 1.036-16.575-9.448-.013-4.678 1.451-9.814 3.884-14.53z" class="color497bfe svgShape"></path><path fill="#6cb5ff" d="M38.642 15.564c.03 10.484-7.346 23.258-16.47 28.526l-1.113-1.335 1.06-2.62c6.093-3.518 11.048-14.401 11.028-21.399l5.495-3.172z" class="colorffd06c svgShape"></path><path fill="#bbc0c6" d="m33.147 18.736-4.088-2.376 5.494-3.172 4.089 2.376z" class="colorbbbec6 svgShape"></path><path fill="#6d63ff" d="m14.31 38.544-4.089-2.376c2.005 1.165 4.781 1.002 7.845-.767l4.088 2.376c-3.064 1.768-5.84 1.932-7.844.767z" class="color638dff svgShape"></path><path fill="#99b8d8" d="m25.841 9.286 4.089 2.376c1.98 1.15 3.207 3.597 3.217 7.074L29.06 16.36c-.01-3.477-1.238-5.923-3.218-7.074z" class="color9bd899 svgShape"></path><path fill="#955ec3" d="M22.064 6.117C31.19.849 38.612 5.079 38.642 15.564l-1.217 2.505-2.182-.885c-.02-6.998-7.068-8.27-13.16-4.753l-.019-6.314z" class="color5ec363 svgShape"></path><path fill="#99b8d8" d="m22.082 12.431-4.088-2.376-.018-6.314 4.088 2.376z" class="color9bd899 svgShape"></path><path fill="#5aa0e7" d="m29.733 2.59 4.088 2.376c-3.004-1.746-7.165-1.5-11.757 1.15l-4.088-2.375c4.591-2.65 8.752-2.897 11.757-1.15z" class="color78e75a svgShape"></path><path fill="#6257fe" d="M10.418 45.24 6.33 42.864c-2.966-1.724-4.806-5.39-4.82-10.598-.014-4.678 1.45-9.814 3.882-14.53l4.089 2.375c-2.433 4.717-3.897 9.853-3.884 14.53.015 5.21 1.855 8.875 4.821 10.599z" class="color57b3fe svgShape"></path><path fill="#a50b89" d="m22.064 6.117 1.722 1.08-1.704 5.234c-3.185 1.839-7.046 5.59-9.054 9.237l-1.23-2.554-2.317.997c.184-7.383 4.63-12.641 12.583-13.994z" class="colordf3260 svgShape"></path><path fill="#f451d6" d="m9.48 20.111-4.088-2.376c3.02-5.857 7.534-11.078 12.584-13.994l4.088 2.376c-5.05 2.916-9.563 8.137-12.583 13.994z" class="colorf45170 svgShape"></path><path fill="#ffffff" d="M22.074 9.77c7.374-4.257 13.368-.841 13.392 7.627.024 8.468-5.931 18.783-13.305 23.04-7.37 4.255-13.364.84-13.388-7.629s5.931-18.783 13.3-23.038z" class="colorffffff svgShape"></path><path fill="#fa5fde" d="m28.983 15.753.146.203-6.412 8.233a.394.394 0 0 0-.232-.086l6.498-8.35z" class="colorfa5f7f svgShape"></path><path fill="#6822a2" d="M22.283 24.134a.572.572 0 0 1 .202-.03.396.396 0 0 1 .233.086c.113.09.181.25.182.464.001.49-.352 1.094-.778 1.34-.315.182-.594.125-.72-.115a.678.678 0 0 1-.069-.294c-.003-.101-.002-.095.013-.196.059-.393.308-.818.61-1.067l.327-.188z" class="color4c5c75 svgShape"></path><path fill="#6822a2" d="M22.27 15.673c.38-.113.676.1.678.552 0 .46-.293 1.015-.673 1.332l.019 6.57-.34.194-.021.015-.019-6.57c-.374.118-.676-.093-.677-.553-.002-.467.291-1.006.672-1.332l-.003-1.077.36-.208.004 1.077zm-.173 1.618c.268-.155.492-.542.49-.858 0-.301-.225-.436-.494-.28-.269.155-.497.55-.496.852 0 .317.23.441.5.286" class="color4c5c75 svgShape"></path><path fill="#fa5fde" d="m19.46 27.99 1.873-2.406a.69.69 0 0 0 .069.295l-1.796 2.306-.146-.195z" class="colorfa5f7f svgShape"></path><path fill="#6822a2" d="m19.57 24.592 1.918.34a1.67 1.67 0 0 0-.142.457l-1.973-.336c-.222.407-.543.758-.87.946-.87.503-1.391-.235-1.062-1.295l-.926-.16.195-.46.927.16c.228-.414.554-.757.882-.947.877-.506 1.385.26 1.05 1.295zm-.375.17c.317-.762.01-1.447-.68-1.048a1.73 1.73 0 0 0-.687.803c-.35.8.018 1.446.68 1.064.266-.154.53-.454.687-.819m2.776 13.864c-.201 0-.337-.161-.338-.4 0-.299.21-.664.47-.815.3-.173.569-.009.57.333 0 .305-.203.66-.464.811a.477.477 0 0 1-.238.07zm5.593-4.965a.311.311 0 0 1-.255-.125c-.143-.206-.071-.597.158-.875a.844.844 0 0 1 .235-.208.489.489 0 0 1 .24-.071c.105 0 .197.045.259.127.141.203.07.594-.158.874a.87.87 0 0 1-.235.205.497.497 0 0 1-.244.073z" class="color4c5c75 svgShape"></path><path fill="#ffffff" d="M32.303 25.454c.306.51-.559 1.514-.91.98-.087-.134-.09-.345-.008-.566.086-.215.239-.401.409-.5a.481.481 0 0 1 .266-.07" class="colorffffff svgShape"></path><path fill="#6822a2" d="M33.146 19.268c-.2 0-.335-.161-.336-.402 0-.295.208-.655.464-.803a.479.479 0 0 1 .239-.071c.2 0 .337.158.337.392.001.3-.21.665-.47.815a.47.47 0 0 1-.234.07z" class="color4c5c75 svgShape"></path><path fill="#4f4657" d="M16.093 39.991c-.193-.303.05-.864.402-1.068.38-.22.719.112.507.643a.988.988 0 0 1-.404.495c-.185.106-.392.109-.505-.07z" class="color464957 svgShape"></path><path fill="#6822a2" d="M27.513 11.348a.34.34 0 0 1-.038-.002.303.303 0 0 1-.236-.143c-.086-.134-.09-.344-.009-.56.086-.216.238-.401.409-.5a.48.48 0 0 1 .266-.07c.103.009.189.062.243.149.085.135.086.342.005.556a1.024 1.024 0 0 1-.408.501.465.465 0 0 1-.232.07zM10.727 32.21c-.201 0-.337-.16-.338-.4 0-.294.21-.656.47-.806a.465.465 0 0 1 .232-.068c.201 0 .337.158.338.393 0 .384-.345.881-.702.881zm1.453-7.305a.3.3 0 0 1-.24-.14c-.089-.136-.092-.348-.009-.565.087-.217.24-.404.408-.502a.465.465 0 0 1 .27-.067.304.304 0 0 1 .237.145c.085.134.088.34.008.552a1.019 1.019 0 0 1-.41.507.48.48 0 0 1-.264.07zm4.114-7.083a.304.304 0 0 1-.258-.132c-.139-.2-.072-.58.153-.865a.906.906 0 0 1 .238-.209.49.49 0 0 1 .24-.071c.109 0 .201.049.26.138.145.192.078.571-.155.858a.85.85 0 0 1-.236.21.492.492 0 0 1-.242.071zm15.325-4.127a.311.311 0 0 1-.255-.125c-.255-.385.191-1.153.63-1.153.107 0 .199.048.258.133.26.345-.169 1.145-.633 1.145zM12.241 37.786a.316.316 0 0 1-.258-.127c-.142-.205-.072-.587.157-.873a.877.877 0 0 1 .235-.206.49.49 0 0 1 .241-.072.3.3 0 0 1 .255.131c.144.202.077.583-.154.867-.115.146-.29.28-.476.28zm9.657-24.924c-.201 0-.337-.161-.338-.4-.001-.3.206-.654.47-.807a.479.479 0 0 1 .238-.071c.165 0 .33.122.332.396 0 .305-.203.66-.464.811a.477.477 0 0 1-.238.07z" class="color4c5c75 svgShape"></path><path fill="#918afd" d="m45.598 18.47 3.62 2.104c-.142-.083-.338-.07-.556.054l-3.62-2.104c.217-.125.413-.137.556-.054z" class="colorb28afd svgShape"></path><path fill="#deecfb" d="m31.26 49.526-3.621-2.104-.036-14.5 3.62 2.104c2.073 5.012 4.095 10.02.037 14.5z" class="colordedffb svgShape"></path><path fill="#f4f6f8" d="M31.224 35.026 49.456 24.5l.036 14.499L31.26 49.526z" class="colorf3f1fc svgShape"></path><path fill="#ffffff" d="m32.525 35.775 15.637-9.027.028 11.502-15.636 9.027z" class="colorffffff svgShape"></path><path fill="#918afd" d="m31.224 35.502-3.621-2.105-.01-3.9 3.621 2.104zM31.993 30.253l-3.621-2.105 16.669-9.624 3.621 2.104zM31.214 31.601l-3.621-2.104c-.002-.496.347-1.1.779-1.349l3.62 2.105c-.43.249-.78.853-.778 1.348z" class="colorb28afd svgShape"></path><path fill="#5046e4" d="M48.662 20.628c.432-.249.783-.049.784.447l.01 3.9-18.232 10.527-.01-3.9c-.001-.496.347-1.1.779-1.35l16.67-9.624z" class="color7e5af2 svgShape"></path><path fill="#211f21" d="M35.616 30.498c.002.75-.525 1.662-1.176 2.039-.464.267-.865.193-1.06-.141a1.055 1.055 0 0 1-.126-.534c0-.171.027-.35.077-.53.154-.557.526-1.115.975-1.428a1.52 1.52 0 0 1 .126-.081c.374-.216.707-.208.925-.02.16.137.258.376.259.695z" class="color21201f svgShape"></path><path fill="#ffffff" d="m35.148 29.754.355.206c.197.115.319.357.32.701.002.693-.487 1.54-1.09 1.888l-.356-.206c.603-.349 1.092-1.195 1.09-1.888 0-.345-.123-.587-.32-.701zm-1.193 2.87-.356-.206c.2.116.475.1.778-.075l.356.206c-.304.175-.58.191-.778.076zm1.399-3.234.355.207c-.251-.147-.6-.126-.984.095l-.356-.206c.384-.222.733-.242.985-.096z" class="colorffffff svgShape"></path><path fill="#ffffff" d="m33.75 32.97-.357-.207c-.248-.144-.403-.451-.404-.887-.002-.877.617-1.95 1.38-2.39l.356.206c-.764.441-1.302 1.477-1.3 2.354.002.436.075.78.324.924z" class="colorffffff svgShape"></path><path fill="#e7f1fc" d="M34.725 29.692c.763-.44 1.386-.085 1.389.792.002.877-.617 1.95-1.38 2.39-.764.441-1.387.086-1.39-.791-.002-.878.617-1.95 1.38-2.39zm.008 2.848c.603-.348 1.092-1.195 1.09-1.888-.002-.693-.494-.974-1.097-.625-.603.348-1.092 1.195-1.09 1.888.001.693.494.973 1.097.625" class="colore9e7fc svgShape"></path><g fill="#6822a2" class="color4c5c75 svgShape"><path d="m34.205 31.415-.56.326.002-.019c.006-.048.013-.097.023-.146.197-.014.377-.069.535-.16z" fill="#010001" class="color000000 svgShape"></path><path d="M35.442 30.165c0 .935-.329 1.585-.86 1.894l-.713.417c.53-.31.86-.966.865-1.894.007-1.875-1.32-4.167-2.948-5.108-.821-.474-1.566-.518-2.103-.202l.707-.417c.543-.31 1.288-.272 2.11.208 1.628.941 2.948 3.227 2.942 5.102z" fill="#010001" class="color000000 svgShape"></path></g><path fill="#6822a2" d="M30.419 25.773c-.841.15-1.124.976-1.098 1.827l.711-.41c-.016-.5.063-1.029.387-1.417z" class="color4c5c75 svgShape"></path><path fill="#431d43" d="M34.733 30.58c-.003.96-.353 1.627-.914 1.923-.115-.133-.183-.332-.184-.588 0-.063.004-.128.012-.193.307-.25.506-.67.548-1.23.005-.07.008-.144.008-.219.005-1.538-1.08-3.417-2.42-4.19-.49-.284-.949-.379-1.332-.31.092-.11.199-.202.317-.271-.681.4-.713.406-.826.491-.438.329-.593.928-.593 1.478 0 .037 0 .074.002.112l-.478.276a4.476 4.476 0 0 1-.055-.694c.006-1.875 1.337-2.633 2.967-1.692 1.478.854 2.703 2.814 2.916 4.569.022.182.033.361.032.537z" class="color1d2943 svgShape"></path><path fill="#431d43" d="M30.769 25.502c-1.332.717-.527.308-.318.271a1.2 1.2 0 0 1 .318-.271z" class="color1d2943 svgShape"></path><path fill="#211f21" d="M47.602 23.578c.003.75-.524 1.662-1.176 2.038-.463.268-.864.193-1.059-.14a1.055 1.055 0 0 1-.126-.535c0-.17.027-.35.077-.53.154-.557.526-1.115.975-1.428a1.52 1.52 0 0 1 .126-.08c.373-.217.707-.21.924-.021.162.138.259.376.26.696z" class="color21201f svgShape"></path><path fill="#ffffff" d="m47.135 22.824.355.206c.197.115.319.357.32.701.002.693-.487 1.54-1.09 1.888l-.356-.206c.603-.349 1.092-1.195 1.09-1.888-.001-.345-.123-.587-.32-.701zm-1.193 2.87-.356-.206c.199.116.474.1.778-.075l.356.206c-.304.175-.58.191-.778.076z" class="colorffffff svgShape"></path><path fill="#ffffff" d="m47.135 22.833.355.207c.197.114.319.356.32.7.002.694-.487 1.54-1.09 1.889l-.356-.207c.603-.348 1.092-1.195 1.09-1.888-.001-.344-.123-.587-.32-.7zm-1.193 2.871-.356-.206c.199.115.474.1.778-.076l.356.207c-.304.175-.58.19-.778.075zm1.399-3.235.355.207c-.252-.146-.6-.126-.985.096l-.355-.207c.384-.222.733-.242.985-.096z" class="colorffffff svgShape"></path><path fill="#ffffff" d="m45.736 26.05-.356-.207c-.248-.145-.403-.452-.404-.888-.003-.877.616-1.95 1.38-2.39l.355.207c-.568.585-1.299 1.574-1.38 2.39.002.436.156.743.405.887z" class="colorffffff svgShape"></path><path fill="#e7f1fc" d="M46.711 22.772c.764-.44 1.387-.086 1.39.791.002.878-.617 1.95-1.38 2.39-.764.441-1.387.086-1.39-.791-.002-.877.617-1.95 1.38-2.39zm.009 2.847c.603-.348 1.092-1.195 1.09-1.888-.002-.693-.494-.973-1.098-.625-.602.348-1.092 1.195-1.09 1.888.002.693.495.973 1.098.625" class="colore9e7fc svgShape"></path><g fill="#6822a2" class="color4c5c75 svgShape"><path d="m46.192 24.495-.56.325.002-.018c.005-.049.013-.097.023-.146.197-.015.377-.07.535-.161z" fill="#010001" class="color000000 svgShape"></path><path d="M47.429 23.245c0 .934-.329 1.584-.86 1.894l-.713.417c.53-.31.859-.966.865-1.895.007-1.875-1.32-4.167-2.948-5.108-.821-.474-1.566-.518-2.103-.202l.707-.417c.543-.31 1.288-.271 2.11.209 1.628.94 2.948 3.226 2.942 5.102z" fill="#010001" class="color000000 svgShape"></path></g><path fill="#6822a2" d="M42.015 20.137c.001-.555.145-.99.39-1.285-.826.149-1.124.97-1.097 1.828l.711-.41c-.001-.04-.004-.095-.004-.133z" class="color4c5c75 svgShape"></path><path fill="#431d43" d="M46.72 23.659c-.003.96-.353 1.627-.914 1.923-.115-.132-.183-.332-.184-.588 0-.063.004-.127.012-.192.307-.251.506-.67.547-1.23.006-.07.009-.144.009-.22.004-1.537-1.08-3.417-2.42-4.19-.49-.283-.949-.378-1.332-.31.092-.11.198-.201.317-.27-.624.413-.86.386-1.153.859-.217.375-.277.792-.264 1.222l-.478.275a4.475 4.475 0 0 1-.055-.694c.005-1.874 1.337-2.633 2.967-1.691 1.478.853 2.702 2.814 2.915 4.568.022.182.034.362.033.538z" class="color1d2943 svgShape"></path><path fill="#431d43" d="M42.755 18.581c-1.145.722-.741.347-.317.271a1.2 1.2 0 0 1 .317-.27z" class="color1d2943 svgShape"></path><path fill="#ffffff" d="M38.535 29.68c0 .03-.01.06-.03.09-.02.03-.04.06-.06.07-.03.02-.05.02-.07.01s-.03-.03-.03-.06v-1.21l-.43 1.47c-.01.03-.02.06-.05.1a.27.27 0 0 1-.08.07c-.02.01-.05.02-.07.01-.03 0-.04-.01-.05-.04l-.44-.97.01 1.21c0 .02 0 .03-.02.05.01.01 0 .03-.01.04l-.03.03c-.01.02-.02.03-.04.04-.02.02-.04.02-.06.01-.02-.01-.03-.03-.03-.06v-1.31c0-.04.01-.08.04-.13.02-.04.05-.08.09-.1l.06-.03c.03-.02.05-.02.07-.02.03.01.04.02.05.04l.43.98.43-1.47c.01-.03.02-.07.05-.1.02-.03.04-.05.07-.07l.06-.03c.01-.01.03-.01.05-.01.02-.01.03-.01.05 0s.03.04.03.08l.01 1.31zm1.01-1.95a.077.077 0 0 0-.046-.042c-.019-.007-.043-.002-.071.014l-.02.012a.214.214 0 0 0-.07.068.358.358 0 0 0-.046.093l-.482 1.6a.185.185 0 0 0-.01.053c0 .03.009.05.026.06.017.011.04.009.066-.007a.179.179 0 0 0 .052-.048.237.237 0 0 0 .036-.069l.121-.408.64-.37.124.268a.05.05 0 0 0 .036.027.079.079 0 0 0 .052-.012.179.179 0 0 0 .066-.07.181.181 0 0 0 .026-.09.094.094 0 0 0-.01-.04l-.49-1.04zm-.372 1.088.246-.83.25.543-.496.287zm2.199-1.774c0-.135-.046-.219-.133-.252-.088-.032-.22.002-.394.103l-.444.256a.18.18 0 0 0-.066.07.184.184 0 0 0-.026.092l.004 1.341c0 .03.009.05.026.06.018.01.04.008.066-.006a.19.19 0 0 0 .066-.07.18.18 0 0 0 .028-.091l-.001-.501.388-.224c.086-.05.15-.064.192-.04.042.023.07.062.08.117a.95.95 0 0 1 .018.19v.067c0 .031.01.051.027.061.017.01.04.007.068-.01a.185.185 0 0 0 .066-.068.18.18 0 0 0 .026-.091v-.1c0-.1-.018-.194-.052-.277-.032-.08-.09-.111-.174-.094a.843.843 0 0 0 .17-.251.702.702 0 0 0 .065-.282zm-.875.799-.001-.542.329-.19c.131-.077.225-.108.28-.094.053.015.08.065.08.15a.43.43 0 0 1-.093.259.832.832 0 0 1-.256.221l-.339.196zm3.578-2.712v1.35c0 .03 0 .06-.02.09s-.04.05-.07.07c-.03.01-.05.02-.06.01-.02-.01-.03-.03-.03-.06v-.58l-.71.41V27c0 .03-.01.06-.03.09l-.03.03c-.01.02-.02.03-.04.04-.02.01-.04.01-.06 0-.02-.01-.03-.03-.03-.06v-1.35c0-.03.01-.06.02-.09.02-.03.04-.05.07-.07.01-.01.02-.01.03 0 .02-.01.03-.02.04-.01.01.01.02.03.02.06l.01.58.71-.41-.01-.58c0-.03.01-.06.03-.09.02-.03.04-.05.07-.07.02-.01.04-.01.06 0 .02.01.03.03.03.06zm-2.24 1.66c-.04.12-.06.23-.06.34s.02.2.06.27c.04.07.09.1.17.11s.17-.02.28-.08c.07-.04.13-.09.18-.13.05-.05.11-.11.16-.17.01-.02.03-.03.04-.03.02-.02.04-.02.06-.01.01.01.02.02.02.05 0 .04-.01.08-.04.11-.07.09-.14.16-.21.22a.81.81 0 0 1-.23.17c-.13.08-.24.11-.35.11a.305.305 0 0 1-.24-.14.653.653 0 0 1-.09-.37c0-.16.03-.32.09-.47.06-.16.14-.3.24-.42.1-.12.22-.22.35-.29.08-.05.16-.09.23-.1.07-.02.14-.03.2-.02.03 0 .05.02.05.06 0 .03-.01.05-.02.08a.17.17 0 0 1-.06.06c-.02.01-.03.01-.04.01-.06 0-.11.01-.16.02a.882.882 0 0 0-.46.32c-.08.09-.14.2-.17.3z" class="colorffffff svgShape"></path><path fill="#e935c8" d="M39.44 40.75c0 .14-.04.28-.12.41-.08.14-.18.24-.3.31L36.2 43.1c-.12.07-.22.08-.3.04-.08-.05-.12-.14-.12-.28 0-.13.04-.27.12-.41.08-.14.18-.24.29-.31l1.06-.61-.02-5.23-.88 1.01a.95.95 0 0 1-.23.2c-.12.07-.22.08-.3.04-.08-.05-.12-.14-.12-.29 0-.2.08-.41.25-.6l1.24-1.47c.09-.1.18-.18.27-.23l.19-.11c.13-.07.25-.08.34-.03.09.05.13.15.13.3l.02 5.89.87-.5c.12-.07.22-.08.31-.03.08.05.12.14.12.27zm5.575-4.72c-.002-.956-.443-1.37-1.306-1.235.276-.28.51-.605.692-.96.2-.39.303-.798.302-1.211-.001-.305-.074-.57-.222-.783-.146-.214-.383-.327-.708-.336-.323-.008-.742.136-1.242.424-.502.29-.921.63-1.243 1.01-.324.384-.56.77-.704 1.151-.144.381-.217.732-.216 1.036 0 .414.105.702.307.86.183.144.418.198.695.16-.86.86-1.295 1.777-1.293 2.734.001.348.086.632.253.849.168.216.438.322.805.317.367-.007.843-.178 1.417-.51.573-.33 1.05-.71 1.414-1.124.365-.418.634-.836.8-1.244.166-.409.25-.791.25-1.139zm-3.38 2.913c-.235-.003-.407-.076-.51-.213a.767.767 0 0 1-.158-.47c0-.433.152-.864.451-1.277.304-.42.681-.762 1.124-1.017.44-.255.82-.35 1.124-.28.3.065.455.32.457.753 0 .174-.052.393-.154.649a2.95 2.95 0 0 1-.508.8 3.43 3.43 0 0 1-.911.738c-.373.216-.68.322-.915.317zm1.85-6.341c.216.082.324.285.325.6.001.282-.101.599-.302.937-.204.342-.53.644-.968.897-.441.254-.768.33-.973.223-.202-.105-.306-.303-.307-.585 0-.317.106-.644.32-.972.215-.33.534-.621.953-.863.417-.24.737-.32.953-.237z" class="colore93565 svgShape"></path></svg>