<svg xmlns="http://www.w3.org/2000/svg" enable-background="new 0 0 50 50" viewBox="0 0 50 50" id="Checklist"><g fill="#010001" class="color000000 svgShape"><polygon fill="#a50b89" points="26.923 4.276 25.822 3.636 26.849 5.751 27.95 6.391" class="color895f4c svgShape"></polygon><path fill="#a50b89" d="M32.2896,1.74644c-0.3122-0.1715-0.7182-0.1403-1.1867,0.1251l-4.16911,2.4047l-1.1086-0.6397
							l4.18471-2.4047c0.46839-0.2661,0.87439-0.2966,1.17109-0.1251L32.2896,1.74644z" class="color895f4c svgShape"></path><path fill="#f4f6f8" d="M26.6527,3.83934c-0.1249-0.0785-0.2967-0.0625-0.4684,0.0313l-3.5133,2.0456l-1.1087-0.6405
							l3.5289-2.0456c0.1718-0.0938,0.328-0.109,0.4528-0.0312L26.6527,3.83934z" class="colore3e6f0 svgShape"></path><path fill="#f4f6f8" d="M22.4056,4.49504c0,0.7495-0.531,1.6705-1.1868,2.0609c-0.3123,0.1723-0.5933,0.1875-0.812,0.0785
							l-1.093-0.6404c0.203,0.109,0.484,0.109,0.812-0.0778c0.6558-0.3904,1.1867-1.3122,1.1867-2.0616
							c0-0.3591-0.14059-0.6245-0.34359-0.7335l1.09309,0.6397C22.2806,3.87064,22.4056,4.13594,22.4056,4.49504z" class="colore3e6f0 svgShape"></path><polygon fill="#d4dee9" points="15.548 10.844 14.447 10.205 13.425 13.508 14.525 14.148" class="colord4dbe9 svgShape"></polygon><polygon fill="#a50b89" points="27.95 6.391 26.849 5.751 13.421 13.504 14.521 14.144" class="color895f4c svgShape"></polygon><path fill="#f4f6f8" d="M22.6294,2.75924l-1.1006-0.6396c-0.3623-0.2106-0.8635-0.1822-1.4144,0.1359
							c-1.0884,0.6284-1.9807,2.1739-1.9771,3.4319c0.0017,0.6069,0.2093,1.0281,0.5518,1.2454l1.1005,0.6396
							c-0.3425-0.2174-0.5501-0.6386-0.5518-1.2454c-0.0036-1.2581,0.8887-2.8035,1.97711-3.4319
							C21.7658,2.57704,22.267,2.54864,22.6294,2.75924z" class="colore3e6f0 svgShape"></path><path fill="#f4f6f8" d="M19.7822,7.57144l-3.4977,2.0296c-0.2654,0.1403-0.49959,0.4529-0.5933,0.7655l-0.1405,0.4834
							l-1.1087-0.6397l0.1562-0.4689c0.09371-0.3278,0.3279-0.6397,0.5778-0.7807l3.5133-2.0296L19.7822,7.57144z" class="colore3e6f0 svgShape"></path><path fill="#7d4172" d="M11.3531,13.26484c-0.9073,0.5238-1.6426,1.7974-1.6396,2.8403l0.0899,31.7206
							c0.0029,1.0423,0.7431,1.4753,1.6503,0.9515l19.7495-11.4024c0.9172-0.5295,1.6525-1.8144,1.6495-2.8567l-0.0899-31.7205
							c-0.00289-1.0429-0.7431-1.4647-1.6603-0.9352l-4.1798,2.4133l1.02721,2.1149L14.521,14.14374l1.0206-3.2972L11.3531,13.26484
							z" class="color7d5241 svgShape"></path><path fill="#a50b89" d="M15.5351,10.84994l-4.1848,2.4207c-0.9056,0.5155-1.6395,1.7956-1.6395,2.8416l0.0937,31.7136
							c0,0.5154,0.18741,0.8897,0.4841,1.062l-1.0931-0.6404c-0.3123-0.1716-0.484-0.5467-0.4997-1.0621l-0.078-31.7135
							c0-1.0461,0.7338-2.3262,1.6395-2.8416l4.1847-2.42L15.5351,10.84994z" class="color895f4c svgShape"></path></g><polygon fill="#f4f6f8" points="31.899 31.04 12.147 42.454 12.084 15.035 31.821 3.637" class="colorffffff svgShape"></polygon><path fill="#b4c5d7" d="M15.69491,10.37384c0.09579-0.3222,0.32719-0.6262,0.58479-0.775l3.5099-2.0264
					c-0.3425-0.2174-0.5501-0.6386-0.5518-1.2454c-0.0036-1.2581,0.8887-2.8035,1.97711-3.4319
					c1.09479-0.6321,1.99289-0.1203,1.99649,1.1377c0.0017,0.6068-0.2028,1.2661-0.543,1.8775l3.5228-2.0338
					c0.24471-0.1413,0.477-0.105,0.5873,0.0982l0.1492,0.2993l1.02521,2.121l-13.42781,7.7526l1.02281-3.3034L15.69491,10.37384z
					 M21.2252,6.55084c0.6569-0.3792,1.1833-1.3058,1.1812-2.0532c-0.0021-0.74-0.5319-1.0346-1.1888-0.6553
					c-0.6505,0.3756-1.1576,1.2687-1.1555,2.0088C20.0642,6.59854,20.5748,6.92644,21.2252,6.55084" class="colorb4bed7 svgShape"></path><polygon fill="#5046e4" points="29.15 15.501 29.155 17.322 21.731 21.608 21.726 19.788" class="color86aedc svgShape"></polygon><polygon fill="#b4d6f8" points="29.162 20.803 29.167 22.625 21.742 26.911 21.737 25.09" class="colorf8d5b4 svgShape"></polygon><polygon fill="#95b2d0" points="29.162 26.106 29.167 27.927 21.742 32.214 21.737 30.392" class="color98d095 svgShape"></polygon><polygon fill="#91c2f4" points="29.139 10.198 29.144 12.019 21.719 16.306 21.714 14.485" class="colorf491ab svgShape"></polygon><g fill="#010001" class="color000000 svgShape"><polygon fill="#d4dee9" points="18.267 15.762 18.269 16.282 17.989 16.664 17.988 16.246 15.804 17.507 15.811 20.013 17.995 18.752 17.99 16.912 18.269 16.383 18.276 18.912 15.535 20.494 15.526 17.345" class="colord4dbe9 svgShape"></polygon><polygon fill="#6822a2" points="18.462 16.018 18.269 16.383 17.99 16.912 16.934 18.91 16.118 17.9 16.96 18.071 17.989 16.664 18.269 16.282" class="color4d5772 svgShape"></polygon><polygon fill="#d4dee9" points="18.267 31.705 18.269 32.225 17.989 32.607 17.988 32.188 15.804 33.449 15.811 35.955 17.995 34.694 17.99 32.854 18.269 32.326 18.276 34.854 15.535 36.437 15.526 33.287" class="colord4dbe9 svgShape"></polygon><polygon fill="#6822a2" points="18.462 31.96 18.269 32.326 17.99 32.854 16.934 34.852 16.118 33.843 16.96 34.014 17.989 32.607 18.269 32.225" class="color4d5772 svgShape"></polygon><g fill="#010001" class="color000000 svgShape"><polygon fill="#d4dee9" points="18.267 26.517 18.269 27.037 17.989 27.419 17.988 27.001 15.804 28.262 15.811 30.767 17.995 29.506 17.99 27.666 18.269 27.138 18.276 29.667 15.535 31.249 15.526 28.099" class="colord4dbe9 svgShape"></polygon><polygon fill="#6822a2" points="18.462 26.772 18.269 27.138 17.99 27.666 16.934 29.664 16.118 28.655 16.96 28.826 17.989 27.419 18.269 27.037" class="color4d5772 svgShape"></polygon></g><g fill="#010001" class="color000000 svgShape"><polygon fill="#d4dee9" points="18.267 21.329 18.269 21.849 17.989 22.231 17.988 21.813 15.804 23.074 15.811 25.58 17.995 24.319 17.99 22.478 18.269 21.95 18.276 24.479 15.535 26.061 15.526 22.912" class="colord4dbe9 svgShape"></polygon><polygon fill="#6822a2" points="18.462 21.584 18.269 21.95 17.99 22.478 16.934 24.476 16.118 23.467 16.96 23.638 17.989 22.231 18.269 21.849" class="color4d5772 svgShape"></polygon></g></g><g fill="#010001" class="color000000 svgShape"><path fill="#94c9ff" d="M35.6035,30.04504l2.3632,5.8375c0.14821,0.3661,0.6665,0.3661,0.8147,0l2.3548-5.8375H35.6035z" class="colorffdd94 svgShape"></path><path fill="#6822a2" d="M37.4985,34.72624l0.4682,1.1564c0.14821,0.3661,0.6665,0.3661,0.8147,0l0.4806-1.1871
				C38.7456,34.93654,38.0376,34.94444,37.4985,34.72624z" class="color4d5772 svgShape"></path><g fill="#010001" class="color000000 svgShape"><path fill="#ed5ed3" d="M35.6254,13.03384l-0.03349,16.862c-0.00111,0.4144,0.27209,0.8291,0.8195,1.1453
						c1.0884,0.6283,2.8468,0.6278,3.9276-0.0004c0.537-0.3117,0.806-0.7203,0.8071-1.1294l0.0335-16.8775H35.6254z" enable-background="new" class="colored5e72 svgShape"></path><path fill="#b4c5d7" d="M40.5181,13.89634c-1.15719,0.6726-3.0396,0.6726-4.2049,0c-0.586-0.3384-0.8786-0.7825-0.87729-1.2256
					v1.5926c-0.00131,0.4431,0.29129,0.8876,0.87729,1.2256c1.1653,0.6731,3.04771,0.6726,4.2049,0
					c0.5613-0.3262,0.8444-0.7511,0.8589-1.1781l0.0052-1.624C41.38091,13.12474,41.093,13.56224,40.5181,13.89634z" class="colorb4bed7 svgShape"></path><path fill="#f4f6f8" d="M40.5044,11.46064c1.1653,0.6728,1.1709,1.7631,0.0137,2.4356c-1.15719,0.6725-3.0396,0.6728-4.2049,0
						c-1.1648-0.6724-1.17029-1.7628-0.0131-2.4353C37.4572,10.78854,39.3396,10.78814,40.5044,11.46064z" class="colore3e6f0 svgShape"></path><path fill="#a278c5" d="M40.379,9.75774c-1.0809,0.6283-2.83909,0.6283-3.9277,0c-0.5473-0.3161-0.8206-0.7309-0.81939-1.1448
				v3.7026c-0.00121,0.4139,0.27209,0.8291,0.81939,1.1449c1.08861,0.6286,2.8468,0.6282,3.9277,0
				c0.5243-0.3048,0.7887-0.7016,0.8023-1.1005l0.0048-3.732C41.185,9.03704,40.9161,9.44564,40.379,9.75774z" class="color7bc578 svgShape"></path><g fill="#010001" class="color000000 svgShape"><path fill="#95b2d0" d="M40.3662,7.48274c1.0885,0.6284,1.0937,1.6469,0.0128,2.275c-1.0808,0.6281-2.83909,0.6284-3.9276,0
					c-1.088-0.6281-1.0931-1.6466-0.0123-2.2747C37.52,6.85484,39.2783,6.85454,40.3662,7.48274z" class="color98d095 svgShape"></path></g></g></g></svg>