<svg xmlns="http://www.w3.org/2000/svg" viewBox="0 0 51 51" id="ApprovedCv"><path fill="#f4f6f8" d="m46.108 28.791-19.13 11.04-25.45-14.78-.01-7.46 19.13-11.05 25.44 14.79z" class="colorc9cee2 svgShape"></path><path fill="#e7f1fc" d="m1.515 17.586.014 7.46 25.446 14.787-.014-7.459z" class="colore9e7fc svgShape"></path><path fill="#deecfb" d="m26.961 32.374.014 7.459 19.129-11.044-.014-7.459z" class="colordedffb svgShape"></path><path fill="#f4f6f8" d="m1.515 17.586 25.446 14.788L46.09 21.33 20.644 6.542z" class="colorf3f1fc svgShape"></path><path fill="#ffffff" d="m3.369 17.589 17.274-9.973 23.593 13.711L26.963 31.3z" class="colorffffff svgShape"></path><path fill="#f4f6f8" d="M12.147 26.966c5.114 2.514 11.925 6.414 14.824 8.06 4.168-2.417 10.542-5.989 14.732-8.06-4.099 2.771-10.461 6.57-14.732 9.062-4.535-2.641-10.531-6.18-14.824-9.062z" class="colorc9cee2 svgShape"></path><path fill="#b0bfcf" d="M26.977 35.023v1.002c4.267-2.49 10.642-6.298 14.726-9.059-4.193 2.073-10.572 5.647-14.726 8.057z" class="colorb0b8cf svgShape"></path><path fill="#f451d6" d="M36.02 18.52a.411.411 0 0 0-.162-.15.815.815 0 0 0-.26-.093.99.99 0 0 0-.318-.009.834.834 0 0 0-.308.105l-.241.14c-.021.011-.032.026-.03.043.002.015.013.03.032.043l.734.423c.022.013.045.019.075.019a.143.143 0 0 0 .07-.017l.244-.141c.094-.056.154-.115.18-.18a.206.206 0 0 0-.016-.183zm-.192.17a.308.308 0 0 1-.126.118l-.154.09-.604-.348.156-.09a.664.664 0 0 1 .418-.075.62.62 0 0 1 .195.069c.06.034.098.072.117.113s.02.083-.002.124zm-.467.458c-.002.017-.013.03-.032.04l-.483.282a.152.152 0 0 1-.072.017.131.131 0 0 1-.073-.02l-.734-.422c-.022-.013-.032-.028-.034-.043 0-.017.01-.032.03-.042l.484-.282a.137.137 0 0 1 .07-.017.15.15 0 0 1 .07.017c.018.01.03.026.03.04-.001.018-.012.03-.031.041l-.408.237.23.135.366-.214a.143.143 0 0 1 .07-.017c.028 0 .053.006.07.017.02.01.03.026.03.04 0 .016-.01.03-.03.041l-.367.214.233.132.41-.237a.137.137 0 0 1 .07-.017.15.15 0 0 1 .07.017c.018.01.03.026.03.04zm-1.083.66-.027.014c-.028.017-.077.032-.158.015l-1.023-.248-.034-.012c-.021-.013-.034-.026-.034-.04 0-.018.009-.033.032-.046a.142.142 0 0 1 .058-.015.28.28 0 0 1 .06.003l.932.232-.399-.54c-.009-.013-.013-.023-.009-.036.003-.013.011-.024.026-.032a.15.15 0 0 1 .147 0c.011.006.017.013.024.019l.429.591c.03.047.004.077-.024.094zm-.734.176a.46.46 0 0 0-.175-.168.919.919 0 0 0-.29-.1.925.925 0 0 0-.606.095.389.389 0 0 0-.171.167.2.2 0 0 0 .006.184c.032.06.092.117.177.168.09.05.188.083.293.1a.911.911 0 0 0 .604-.096.39.39 0 0 0 .17-.166.193.193 0 0 0-.008-.184zm-1.048.024a.276.276 0 0 1 .117-.115.549.549 0 0 1 .199-.069.65.65 0 0 1 .41.077c.06.036.1.075.124.113a.13.13 0 0 1 .01.124c-.015.04-.055.081-.115.115a.587.587 0 0 1-.412.062.59.59 0 0 1-.196-.072.331.331 0 0 1-.126-.113c-.022-.041-.028-.082-.01-.122zm.25.604-.056-.032a.806.806 0 0 0-.207-.083.442.442 0 0 0-.19-.009.104.104 0 0 0 .009-.09c-.013-.042-.05-.078-.1-.108a.48.48 0 0 0-.28-.06.77.77 0 0 0-.331.107l-.28.164c-.02.01-.032.026-.03.043 0 .017.011.03.033.042l.74.427c.022.013.045.02.073.02a.161.161 0 0 0 .075-.02.054.054 0 0 0 .03-.042c.002-.015-.011-.03-.03-.043l-.263-.15.23-.134a.286.286 0 0 1 .146-.045c.049 0 .091.007.13.021.04.015.079.033.117.056l.037.021c.02.013.044.02.074.02a.144.144 0 0 0 .075-.02c.02-.012.03-.027.03-.042 0-.017-.01-.032-.032-.043zm-.752-.032-.198.115-.269-.156.192-.113a.547.547 0 0 1 .205-.077.229.229 0 0 1 .14.03c.044.026.06.056.048.088-.013.038-.051.075-.118.113zM31.51 20.88a.257.257 0 0 0-.107-.1.464.464 0 0 0-.17-.061.587.587 0 0 0-.22.002.709.709 0 0 0-.235.09l-.276.16c-.02.01-.032.025-.03.042.003.017.011.032.033.043l.74.429a.165.165 0 0 0 .148 0c.019-.013.03-.028.03-.045.002-.015-.01-.03-.03-.043l-.242-.138.201-.116a.397.397 0 0 0 .154-.136c.025-.047.027-.09.004-.126zm-.5.298-.292-.169.19-.111a.446.446 0 0 1 .203-.068c.057 0 .104.01.147.034.043.025.062.053.06.085-.002.034-.04.073-.118.118l-.19.11zm-.307.173a.286.286 0 0 0-.107-.1.49.49 0 0 0-.173-.063.636.636 0 0 0-.22.002.727.727 0 0 0-.234.09l-.276.16c-.019.013-.03.026-.03.043 0 .017.011.032.033.043l.74.429a.16.16 0 0 0 .075.017.158.158 0 0 0 .073-.017c.02-.013.03-.028.032-.045 0-.015-.011-.03-.032-.04l-.242-.142.201-.115c.079-.047.132-.092.154-.137.025-.047.027-.09.006-.125zm-.502.296-.292-.168.19-.111a.473.473 0 0 1 .203-.069c.057 0 .104.011.147.037.04.023.062.05.06.083-.002.034-.043.075-.118.117l-.19.111zm.097.389-.039-.015-1.037-.244c-.024-.004-.05-.008-.075-.004a.152.152 0 0 0-.073.02l-.012.006a.074.074 0 0 0-.037.042.07.07 0 0 0 .011.045l.423.6.023.024a.167.167 0 0 0 .147 0 .07.07 0 0 0 .03-.032c.005-.013 0-.024-.008-.037l-.103-.145.384-.222.252.06a.188.188 0 0 0 .114-.013c.02-.013.032-.028.032-.045-.003-.015-.011-.03-.032-.04zm-.829.147-.192-.265.461.11-.269.155z" class="colorf45170 svgShape"></path><path fill="#f451d6" d="M29.989 23.236c-.1 0-.2-.026-.29-.077l-1.748-1.01c-.107-.061-.17-.171-.17-.293s.062-.232.169-.293l6.943-4.035a.575.575 0 0 1 .578-.001l1.75 1.01c.106.06.169.17.169.293a.334.334 0 0 1-.169.293l-6.943 4.035a.574.574 0 0 1-.29.078zm5.194-5.587a.373.373 0 0 0-.19.052l-6.944 4.035c-.044.025-.068.07-.068.12s.025.095.07.12l1.748 1.01a.379.379 0 0 0 .378 0l6.944-4.036a.135.135 0 0 0 .069-.12.137.137 0 0 0-.07-.12l-1.749-1.01a.384.384 0 0 0-.188-.05z" class="colorf45170 svgShape"></path><path fill="#6257fe" d="m26.333 12.004-2.013 1.163-.173.1-.497.287-.174.1-2 1.156-.686-.398-4.861-2.826 4.857-2.804 4.89 2.841h.001z" class="color57b3fe svgShape"></path><path fill="#413050" d="m22.856 12.03.016.01a1.826 1.826 0 0 0-.01-.012l-.006.003z" class="color303950 svgShape"></path><path fill="#8a487e" d="M18.828 11.768c.18.115.352.2.507.26.374.146.646.16.68.16a.823.823 0 0 1-.103-.05c-.11-.06-.63-.376-.628-.502 0-.046.054-.067.098-.078.076-.018.151-.001.327-.002.457-.004.678-.114.69-.12l.038-.02c.46-.267.355-.628.35-.647a.124.124 0 0 1 .05-.056c.232-.134.967.396 1.025.438.003 0 .003-.002.002-.004-.044-.13-.167-.263-.313-.383a3.986 3.986 0 0 0-.692-.44c-1.122-.543-3.533.716-2.031 1.444z" class="color8a4852 svgShape"></path><path fill="#d4e4f4" d="M19.284 11.636c0 .126.516.442.628.503a.65.65 0 0 0 .106.05 2.203 2.203 0 0 1-.683-.161c-.05.03-.26.18.077.337.38.176.986.095 1.018.09.016.005.312.097.71.13.648.054 1.472-.097 1.389-.744-.016-.127-.084-.268-.237-.42.005-.022.094-.433-.2-.648-.137-.099-.382-.115-.495-.05a.13.13 0 0 0-.046.041c.146.12.269.253.313.383l.002.007c-.062-.045-.797-.574-1.028-.441a.124.124 0 0 0-.051.056c.005.019.11.38-.35.647a1.145 1.145 0 0 1-.039.02c-.011.006-.232.116-.69.12-.173 0-.25-.015-.326.002-.044.01-.098.032-.098.078z" class="colorf4d6d4 svgShape"></path><path fill="#413050" d="m21.516 12.804-.003.002.013.004-.01-.006z" class="color303950 svgShape"></path><path fill="#c6ddf5" d="m21.14 12.585.376.22.01.005.01.005c.315.184.802.21 1.167.077a.892.892 0 0 0 .302-.175.4.4 0 0 0 .144-.289c0-.14-.09-.28-.274-.386l-.02-.011-.326-.19c.083.647-.741.798-1.389.744z" class="colorf5c9c6 svgShape"></path><path fill="#431d43" d="m26.333 12.004-2.013 1.163-.531-.508.325-.008c-.163-.28-.853-.673-.888-.694.05 0 1.585-.52 2.438-.337l.012.003h.001l.656.381z" class="color1d2943 svgShape"></path><path fill="#ffffff" d="m24.32 13.167-.173.1-.713-.298-.001-.094-.309-.18-.119.022a.402.402 0 0 0 .145-.29c0-.138-.091-.278-.278-.387l-.01-.012c.015-.004.313-.07.364-.071.035.02.725.414.888.694l-.325.008.53.508z" class="colorffffff svgShape"></path><path fill="#f451d6" d="m24.147 13.267-.497.287-.514-.412-.162-.003-.309-.18.039-.066a.892.892 0 0 0 .301-.176l.12-.021.308.179.001.094.713.298z" class="colorf45170 svgShape"></path><path fill="#ffffff" d="m23.65 13.554-.174.1-.876-.31-.014.19c-.483-.096-1.161-.497-1.197-.518.002-.03.118-.2.124-.21a.044.044 0 0 0 .013.003l.01.006c.315.184.803.209 1.168.078l-.039.067.309.179.162.003.514.412z" class="colorffffff svgShape"></path><path fill="#431d43" d="m23.476 13.654-2 1.156-.686-.398c-.285-.498.598-1.366.6-1.396.035.021.713.422 1.196.518l.014-.19.876.31z" class="color1d2943 svgShape"></path><g fill="#deecfb" class="colordedffb svgShape"><path d="m34.099 16.438-14.925 8.673-.498-.287 14.925-8.674zM42.638 21.368l-14.925 8.673-.503-.29 14.925-8.674zM41.215 20.546 26.29 29.22l-.498-.288 14.925-8.674zM39.59 19.842l-14.723 8.556-.499-.288 14.724-8.556zM28.412 23.04l-6.392 3.715-.498-.288 6.392-3.714zM29.294 24.177l-5.851 3.399-.498-.287 5.851-3.4zM26.989 22.219l-6.392 3.714-.498-.287 6.392-3.715zM32.676 15.616 17.751 24.29l-.498-.288 14.925-8.673zM23.018 19.581l-6.69 3.887-.498-.287 6.69-3.888zM29.835 13.976 14.91 22.649l-.503-.29 14.925-8.673zM28.412 13.154l-14.925 8.674-.498-.288 14.925-8.673zM21.119 15.744l-9.055 5.262-.498-.287 9.055-5.263zM19.696 14.922l-9.055 5.263-.498-.288 9.055-5.262zM15.427 12.458 6.371 17.72l-.498-.288 9.055-5.262zM16.85 13.279l-9.055 5.262-.499-.287 9.055-5.262zM18.273 14.101l-9.055 5.262-.499-.288 9.056-5.262z" fill="#010001" class="color000000 svgShape"></path></g><path fill="#5046e4" d="m40.728 13.66-.01 1.19c0 .08-.05.16-.17.23l-5.11 2.97a.89.89 0 0 1-.81 0l-2.48-1.43c-.11-.06-.17-.15-.17-.23V15.2c0-.08.06-.16.17-.23l5.12-2.97c.22-.13.58-.13.81 0l2.48 1.43c.19.11.22.29.07.42.07-.06.1-.12.1-.19z" class="color7e5af2 svgShape"></path><path fill="#5046e4" d="m40.555 13.897-5.113 2.972a.892.892 0 0 1-.811.001l-2.478-1.43c-.114-.066-.171-.152-.171-.238l-.003 1.183c0 .085.057.171.171.237l2.478 1.43c.224.13.586.13.811-.001l5.113-2.971c.113-.066.169-.15.169-.235l.003-1.182c0 .084-.057.17-.17.234z" class="color7e5af2 svgShape"></path><path fill="#918afd" d="M40.555 13.428c.224.129.225.338 0 .47l-5.113 2.97a.892.892 0 0 1-.811.002l-2.478-1.43c-.227-.131-.228-.34-.003-.472l5.113-2.971a.893.893 0 0 1 .814 0l2.478 1.43z" class="colorb28afd svgShape"></path><path fill="#deecfb" d="M38.047 14.3v.25c-.001.276-.184.553-.548.765-.733.426-1.925.426-2.663 0-.371-.214-.557-.496-.556-.777l.001-.248c0 .281.233.522.604.737.738.426 1.861.348 2.594-.078.364-.212.568-.37.568-.648z" class="colordedffb svgShape"></path><path fill="#ffffff" d="M37.491 13.524c.738.426.742 1.117.01 1.543-.734.426-1.926.426-2.664 0-.738-.426-.741-1.117-.008-1.543.733-.426 1.925-.426 2.662 0z" class="colorffffff svgShape"></path><path fill="#331133" d="M37.718 13.815v.205c-.001.229-.152.458-.452.632-.605.352-1.589.352-2.198 0-.306-.177-.46-.409-.459-.64l.001-.206c0 .232.167.442.473.62.609.35 1.579.326 2.184-.026.3-.175.45-.356.451-.585z" class="color111d33 svgShape"></path><path fill="#6822a2" d="M37.26 13.174c.608.352.612.922.007 1.273-.605.352-1.59.352-2.198 0-.609-.351-.612-.921-.007-1.273.605-.351 1.589-.351 2.197 0z" class="color4c5c75 svgShape"></path><path fill="#331133" d="M37.059 14.341c-.475.276-1.248.276-1.727 0-.478-.276-.48-.724-.005-1s1.248-.276 1.726 0c.479.276.481.724.006 1z" class="color111d33 svgShape"></path><path fill="#bf5aad" d="m37.828 9.746-.581 4.096h-.003c-.016.145-.12.288-.312.4-.421.244-1.106.244-1.53 0-.195-.113-.301-.258-.318-.405l-.583-4.091h3.327z" class="colorbf7d5a svgShape"></path><path fill="#db60c5" d="M37.347 10.37c-.65.376-1.704.376-2.357-.001-.653-.377-.657-.988-.008-1.365s1.704-.377 2.357 0c.653.377.656.988.008 1.365z" class="colordba660 svgShape"></path><path fill="#d4e4f4" d="M42.032 8.584c-.64-1.071-.873-.733-.873-.733-.1-.056-.272-.734-1.397-.734 0 0-.047-.011-.151-.023-.012 0-.024-.012-.035-.012-.687-.081-3.096-.349-3.737.082a.465.465 0 0 0-.128.14s-.966-.21-1.408.384c-.396.523-1.234 1.897-1.001 2.77v.023l.035.105a.63.63 0 0 0 .081.151s.117.897.978 1.432c.85.536.698.442 1.14.64 0 0 1.107 1.327 2.724 1.467 1.607.14 3.586.21 3.923.268 0 0 .012-.07.035-.187.14-.558.617-2.258 1.758-3.003 0 0-1.292-1.7-1.944-2.77zm-5.797 2.852c-.35-.221-.745-1.234-1.827-1.06 0 0-.14-.523.256-.85.395-.325.558-.465.558-.465s.792.268 1.455.291c0 0 .92 1.316.897 1.793-.035.465-.99.512-1.339.29z" class="colorf4d6d4 svgShape"></path><path fill="#c6ddf5" d="M37.956 8.061c-.721-.35-1.478-.582-2.246-.757a.467.467 0 0 1 .128-.14 9.735 9.735 0 0 1 2.118.897zm2.305-.198c-.142-.427-.423-.685-.652-.768.378.042.273.022.338.035.174.21.279.477.314.733zM34.453 9.81l-.047.57s-.582-.233-.99.36a.727.727 0 0 1-.116-.255v-.023s.757-.57 1.153-.652zm7.566 4.444c-.315-.128-.664-.186-1.001-.232-.943-.128-1.898-.221-2.84-.338-.478-.058-.978-.128-1.374-.407-.21-.128-.384-.326-.594-.443-.128-.081-.267-.128-.407-.186-.408-.186-.745-.489-1.083-.78a9.207 9.207 0 0 1-.617-.558 4.136 4.136 0 0 1-.4-.506v.673c.147.237.366.491.691.694.85.535.699.442 1.141.64 0 0 1.106 1.327 2.724 1.467 1.606.14 3.585.21 3.923.267 0 0 .011-.07.035-.186a.646.646 0 0 0-.198-.105z" class="colorf5c9c6 svgShape"></path><path fill="#431d43" d="M49.268 14.76c-.49 1.59-1.66 3.19-2.63 3.58-.28.11-.51.11-.68.02l-5.28-2.91c-.19-.11-.32-.33-.36-.64l-.01.01c-.98-2.66 1.46-4.99 1.97-5.27.3-.16.65-.01.88.14.27-.1.49-.1.65-.01l5.29 2.91c.43.23.52 1.05.17 2.17z" class="color1d2943 svgShape"></path><path fill="#e7f1fc" d="M43.11 12.252c-.059.023-2.8 2.567-2.8 2.567-.982-2.663 1.46-4.99 1.966-5.263.506-.275 1.144.329 1.144.329s-.252 2.343-.31 2.367z" class="colore9e7fc svgShape"></path><path fill="#6822a2" d="M49.095 12.589c-.174-.095-.404-.095-.681.018-.963.392-2.14 1.994-2.63 3.577-.348 1.127-.254 1.942.177 2.175l-5.285-2.904c-.43-.234-.524-1.048-.176-2.175.49-1.584 1.667-3.185 2.63-3.577.277-.113.507-.113.681-.019l5.284 2.905z" class="color4c5c75 svgShape"></path><path fill="#431d43" d="M48.414 12.607c.963-.392 1.347.574.858 2.158-.49 1.583-1.667 3.184-2.63 3.576-.963.392-1.347-.573-.858-2.157.49-1.583 1.667-3.185 2.63-3.577z" class="color1d2943 svgShape"></path><path fill="#ffffff" d="M34.36 11.134c-.035.372-.082.687-.303.57-.21-.104-.57-.535-.5-.943 0 0 .08-.314.418-.337.338-.023.42.337.384.71z" class="colorffffff svgShape"></path><path fill="#a50b89" d="M13.406 31.613H4.753v.005c-.868.67-1.212 1.496-1.031 2.292h-.005l.886 8.154c.089.597.53 1.176 1.315 1.63 1.764 1.02 4.624 1.02 6.379-.002.765-.443 1.19-1.007 1.285-1.587h.003l.018-.127.877-8.068h-.005c.174-.799-.186-1.626-1.069-2.297z" class="colordf3260 svgShape"></path><path fill="#a50b89" d="m14.48 33.91-.878 8.068-.019.128c-.117.694-.676 1.233-1.285 1.585-1.758 1.023-4.618 1.023-6.38.004-.786-.453-1.225-1.034-1.315-1.63l-.884-8.156h10.76z" class="colordf3260 svgShape"></path><path fill="#f451d6" d="M12.947 35.727c-2.113 1.229-5.552 1.229-7.676.003-2.127-1.23-2.136-3.22-.024-4.447 2.113-1.229 5.549-1.229 7.676 0 2.124 1.226 2.136 3.218.024 4.444z" class="colorf45170 svgShape"></path><path fill="#a50b89" d="M13.792 33.514c0 2.277-5.705 3.496-8.533 1.391-.555-.42-.857-.907-.857-1.409 0-.366.166-.733.476-1.066 1.559-1.665 5.913-1.945 8.042-.334.095.068.18.139.257.212.402.37.615.783.615 1.206z" class="colordf3260 svgShape"></path><path fill="#9bcdff" d="m5.801 28.353-1.514.234.289-1.374.155-.744.376.662z" class="colorffde9b svgShape"></path><path fill="#a061d5" d="M6.925 35.7a5.127 5.127 0 0 1-1.666-.795l-.153-.99-.18-1.181-.048-.304-.582-3.8c-.006-.012-.006-.03-.006-.044 0-.012 0-.02.006-.033 0-.011.003-.026.009-.041a.482.482 0 0 1 .16-.228c.271-.215.747-.29 1.072-.162a.45.45 0 0 1 .242.19v.005c.003.012.015.02.015.035v.003c.006.012.006.027.012.042l.564 3.69.163 1.063h.003l.39 2.55zm-1.818-8.57a1.315 1.315 0 0 1-.531.083l.155-.744.376.662z" class="color72d561 svgShape"></path><path fill="#9bcdff" d="m9.478 30.463-1.734.04.568-1.505.306-.815.309.815z" class="colorffde9b svgShape"></path><path fill="#5b50ff" d="m9.496 30.556-.003 3.422-.003 2.009c-.143 0-.787.052-1.752-.1l.006-1.85.003-3.483c0-.018 0-.036.009-.05.014-.113.097-.225.245-.31.343-.199.895-.199 1.238 0 .15.085.23.197.248.31a.112.112 0 0 1 .009.052zm-.569-1.558c-.195.04-.416.044-.615 0l.306-.815.31.815z" class="color5094ff svgShape"></path><path fill="#fe1fd5" d="M13.455 28.684h-.003l-.935-.636-1.426-.972h-.001l-.054.027-.226.108h-.004l-.446 5.81-.082 1.064-.143 1.848h.002c1.001-.138 2.04-.41 2.843-1.046l.172-2.252.027-.326.277-3.625h-.001z" class="colorfebc1f svgShape"></path><path fill="#9bcdff" d="m13.456 28.684-.277 3.625-.027.326-.172 2.252c-.76.602-2.325 1.046-2.845 1.046l.143-1.848.228-2.95.3-3.924h.004l.28-.134 2.362 1.607h.004z" class="colorffde9b svgShape"></path><path fill="#fe1fd5" d="m13.455 28.683-.278 3.625-.026.328-.172 2.252c-.088.07-.186.139-.29.204l.202-2.594.03-.402.25-3.277.28-.136h.004z" class="colorfebc1f svgShape"></path><path fill="#6cb5ff" d="m13.171 28.82-.25 3.276-.03.402-.201 2.594c-.822.513-2.16.842-2.553.842l.142-1.85.227-2.948.302-3.924h.003l2.36 1.607z" class="colorffd06c svgShape"></path><path fill="#9bcdff" d="m13.452 28.684-.28.136-2.362-1.607.28-.136z" class="colorffde9b svgShape"></path><path fill="#3d313d" d="M10.77 35.83c-.035.007-.176.035-.213.039l-.166-.113.012-.177.366.251zM11.249 35.529l-.014.173-.799-.544.013-.173zM11.661 30.16l-.013.173-.8-.544.013-.173zM12.076 31.071l-.013.173-1.261-.858.014-.173zM11.569 31.352l-.013.175-.8-.544.014-.175zM11.524 31.949l-.014.175-.799-.544.013-.175zM11.939 32.86l-.013.173-1.261-.858.013-.173zM11.432 33.143l-.013.173-.8-.544.013-.173zM11.386 33.738l-.013.175-.8-.544.014-.175zM11.802 34.649l-.014.175-1.261-.858.014-.175zM11.294 34.932l-.013.173-.799-.544.013-.173zM11.707 29.563l-.014.175-.799-.544.013-.175zM12.214 29.28l-.013.175-1.261-.858.013-.175zM11.798 28.371l-.013.173-.8-.544.014-.173z" class="color31323d svgShape"></path></svg>