<svg xmlns="http://www.w3.org/2000/svg" enable-background="new 0 0 65 65" viewBox="0 0 65 65" id="MarketingBlog"><g fill="#010001" class="color000000 svgShape"><path fill="#f4f6f8" d="M44.9770546,46.0797424l-27.583065,16.0295258
							c-0.6604939,0.3838387-1.5751295,0.3303223-2.5823011-0.2511673c-1.9989719-1.15411-3.6178465-3.9581032-3.6113348-6.2551003
							l27.5830631-16.0295219c-0.0065117,2.2969933,1.6123619,5.1009903,3.6113319,6.2550964
							C43.4019203,46.4100647,44.316555,46.4635811,44.9770546,46.0797424z" class="colore9e8e6 svgShape"></path><polygon fill="#d2d4d6" points="18.452 59.79 46.035 43.76 47.699 44.721 20.116 60.75" class="colord6d4d2 svgShape"></polygon><path fill="#f4f6f8" d="M46.1534729 48.1124802L18.570406 64.1420059c.950531-.5523872 1.5406418-1.7256813 1.5453644-3.3916855l27.5830593-16.0295219C47.6941109 46.3868027 47.1039963 47.5600929 46.1534729 48.1124802zM3.5169091 18.9121971L31.0999641 2.8826852c-.6419392.3730462-1.0407257 1.1649938-1.043911 2.2889514L2.472986 21.2011662C2.4761777 20.0772038 2.8749638 19.2852554 3.5169091 18.9121971z" class="colore9e8e6 svgShape"></path><polygon fill="#f4f6f8" points="11.283 26.288 38.867 10.258 38.783 39.573 11.2 55.603" class="colore9e8e6 svgShape"></polygon><path fill="#f4f6f8" d="M2.3380284,16.8837376L29.9210892,0.8542243
							c0.9528046-0.5537188,2.2716293-0.476867,3.7251892,0.3623465L6.0632162,17.2460938
							C4.6096559,16.4068813,3.2908323,16.3300285,2.3380284,16.8837376z" class="colore9e8e6 svgShape"></path><path fill="#f4f6f8" d="M6.0632162,17.2460938L33.6462784,1.2165707
							c2.8885155,1.6676849,5.2296562,5.7226911,5.2202454,9.0417938L11.2834625,26.2878876
							C11.2928724,22.9687862,8.9517307,18.9137802,6.0632162,17.2460938z" class="colore9e8e6 svgShape"></path><path fill="#c0c2c4" d="M6.0632162,17.2460938c2.8885145,1.6676865,5.2296562,5.7226925,5.2202463,9.0417938
							l-0.0831089,29.3151131c-0.0065117,2.2969971,1.6123629,5.1009903,3.6113348,6.2551003
							c1.9989729,1.1541061,3.6334257,0.2284203,3.6399374-2.0685768l1.6641445,0.9607964
							c-0.0095062,3.3536072-2.3910198,4.7107391-5.3095198,3.0257378c-2.918499-1.6849976-5.2845459-5.7831306-5.2750387-9.1367378
							l0.0831089-29.3151112c0.0064144-2.2624931-1.5875378-5.0291233-3.5565257-6.1659184
							s-3.5783894-0.2196217-3.5848036,2.0428696L0.808847,20.240366
							C0.8182566,16.9212627,3.174701,15.5784092,6.0632162,17.2460938z" class="colorc4c2c0 svgShape"></path></g><g fill="#010001" class="color000000 svgShape"><polygon fill="#0a009b" points="53.421 32.851 51.621 31.805 51.604 25.645 53.404 26.692" class="color00649b svgShape"></polygon><path fill="#5046e4" d="M60.2027245,0.5761217l1.8000298,1.0460744
							c-0.2058105-0.1196152-0.4911575-0.1021911-0.8070526,0.0801917l-1.8000412-1.0460687
							C59.7115555,0.4739364,59.9969063,0.4565122,60.2027245,0.5761217z" class="color3f9ae0 svgShape"></path><path fill="#0b00b5" d="M39.5549507,34.2995033l-1.8000488-1.0460625
							c-0.2025108-0.1176949-0.3283463-0.3671188-0.3293533-0.7219696l1.8000374,1.0460701
							C39.226593,33.9323921,39.3524323,34.1818123,39.5549507,34.2995033z" class="color006cb5 svgShape"></path><polygon fill="#5046e4" points="39.226 33.578 37.426 32.531 37.386 14.668 39.186 15.714" class="color3f9ae0 svgShape"></polygon><polygon fill="#0b00b5" points="40.315 13.758 38.515 12.712 59.396 .656 61.196 1.702" class="color006cb5 svgShape"></polygon><path fill="#4a0087" d="M39.1858406,15.7141943l-1.8000412-1.0460682
							c-0.0020447-0.7213764,0.5058823-1.5964785,1.1296005-1.9565821l1.8000374,1.0460691
							C39.6917229,14.1177158,39.1837959,14.9928188,39.1858406,15.7141943z" class="color005e87 svgShape"></path><path fill="#0d00d1" d="M61.1957016,1.7023878c0.6277924-0.362457,1.1349335-0.0734051,1.136982,0.6479709l0.0397453,17.8633461
							c0.0020332,0.7166729-0.5018158,1.5893593-1.129612,1.9518166l-2.4704094,1.4262905l-5.3513985,9.2596207
							l-0.0174637-6.1599064l-13.0409889,7.5292187c-0.6237183,0.3601036-1.1349373,0.0734711-1.1369705-0.6432037
							l-0.0397453-17.8633461c-0.0020447-0.7213755,0.5058823-1.5964785,1.1295967-1.9565811L61.1957016,1.7023878z" class="color0074d1 svgShape"></path></g><path fill="#f4f6f8" d="M56.3011284,10.9070244c0.9690399-0.5496712,1.7548866-0.0995255,1.7580605,1.0198956
						c0.0031624,1.115778-0.7775574,2.473979-1.7465401,3.0432529L56.3011284,10.9070244z" class="colorffffff svgShape"></path><path fill="#489bef" d="M49.365345,18.3774815l6.1598663-0.2613754l0.0046997,1.6576195l-2.9181137-0.0941639
						l-3.3121338-0.1068878c0.039978-0.0601921,0.0655098-0.1322231,0.0653305-0.1957417l-0.0026817-0.9451256L49.365345,18.3774815
						z" class="colorefc348 svgShape"></path><path fill="#6822a2" d="M48.0352058,26.7258987c0.1208496-0.0697727,0.2229462-0.0115795,0.2233429,0.1272774l0.001564,0.5518036
						c0.0004044,0.1425247-0.1010399,0.314558-0.2218895,0.3843307l-2.9130821,1.6818676
						c-0.1240273,0.0716076-0.2261162,0.0170841-0.2265205-0.1254406l-0.001564-0.5518055
						c-0.0003929-0.138855,0.1010437-0.314558,0.225071-0.3861656l0.2862206-0.1652508l2.3120193-1.3348446L48.0352058,26.7258987z" class="color414141 svgShape"></path><polygon fill="#dd40c0" points="48.163 20.272 47.72 26.908 45.408 28.243 45.39 21.873" class="colorddb040 svgShape"></polygon><path fill="#f25ad6" d="M48.7243805,21.5037346c0.0477028-0.0275421,0.0828209-0.0002308,0.0734367,0.0600967
						l-0.211689,1.7364044c-0.0062447,0.043869-0.0379524,0.0951176-0.0761185,0.1171513l-0.5788002,0.3341694l0.1253242-1.8622398
						L48.7243805,21.5037346z" class="colorf25a5a svgShape"></path><g fill="#010001" class="color000000 svgShape"><path fill="#383638" d="M49.1789322,14.4221821c0.0422096-0.0243692,0.0807114-0.0293465,0.1105766-0.0179186
							c0.0376358,0.0144386,0.0615425,0.0549736,0.0617142,0.116087l0.0110893,3.9114561l0.0026817,0.9451256
							c0.0001793,0.0635185-0.0253525,0.1355495-0.0653305,0.1957417c-0.0301399,0.0448055-0.0662689,0.0815773-0.1058311,0.1044178
							l-4.04842,2.3373547c-0.0954056,0.0550842-0.1751709,0.0096149-0.1754799-0.1000233l-0.0137711-4.8565826
							c-0.000309-0.1096115,0.0789452-0.2432194,0.1743546-0.2983036L49.1789322,14.4221821z" class="color383736 svgShape"></path><path fill="#f4f6f8" d="M44.9573746,17.4854107l0.0113449,4.0014668l-0.098587,0.0569191
							c-0.9604263,0.5545025-1.7452965,0.1108685-1.7484245-0.9927177
							c-0.0015564-0.5481606,0.1910057-1.1644592,0.5080032-1.7098427c0.3106384-0.5417118,0.7488632-1.0216541,1.2290764-1.2989063
							L44.9573746,17.4854107z" class="colorffffff svgShape"></path></g><path fill="#383638" d="M56.0494461,6.3998895c0.1335678-0.077116,0.2388573-0.0171156,0.2392807,0.1326942l0.0124016,4.3744407
						l0.0115204,4.0631485l0.0123901,4.3707981c0.0004234,0.1498089-0.1041679,0.3346596-0.2377396,0.4117756l-0.3180199,0.183609
						c-0.1303902,0.0752811-0.2388725,0.0134506-0.239296-0.1363602l-0.0047722-1.6838894L55.4937515,7.0196128
						c-0.0005035-0.1778135,0.1072807-0.3608322,0.2376709-0.4361129L56.0494461,6.3998895z" class="color383736 svgShape"></path><path fill="#51a8ff" d="M49.2895164,14.4042587l6.2042427-7.3846574l0.0314598,11.0964909l-6.159874,0.261385
						l-0.0030289,0.0543194L49.3512268,14.52034C49.3510551,14.4592266,49.3271446,14.4186945,49.2895164,14.4042587z" class="colorffd651 svgShape"></path><polygon fill="#f4f6f8" points="60.084 10.476 60.085 10.874 58.584 11.741 58.583 11.343" class="colorffffff svgShape"></polygon><polygon fill="#f4f6f8" points="58.465 13.603 59.83 14.063 59.722 14.279 59.615 14.499 58.25 14.042 58.358 13.823" class="colorffffff svgShape"></polygon><polygon fill="#f4f6f8" points="59.594 7.409 59.703 7.504 59.812 7.599 58.454 9.624 58.345 9.533 58.237 9.438" class="colorffffff svgShape"></polygon><g fill="#010001" class="color000000 svgShape"><polygon fill="#f25ad6" points="35.663 22.833 14.47 35.076 14.404 22.402 35.597 10.168" class="colorf25a5a svgShape"></polygon><polygon fill="#d2d4d6" points="14.141 39.037 14.141 40.986 34.938 28.972 34.938 27.032" class="colord6d4d2 svgShape"></polygon><polygon fill="#d2d4d6" points="14.141 43.993 14.141 45.942 34.938 33.928 34.938 31.988" class="colord6d4d2 svgShape"></polygon><polygon fill="#d2d4d6" points="14.141 48.949 14.141 50.898 34.938 38.884 34.938 36.944" class="colord6d4d2 svgShape"></polygon><path fill="#d2d4d6" d="M14.1410666,53.9046516c0.049366,0.6944618,0.1186285,1.3385582,0.2604303,1.7985382
					l20.5364037-11.8636208v-1.9397469L14.1410666,53.9046516z" class="colord6d4d2 svgShape"></path><path fill="#f4f6f8" d="M28.2419186,21.0603046l-6.1542511,7.4395103
						c-0.0375614,0.046896-0.0844574,0.0844021-0.1219635,0.1031818c-0.1313553,0.0844021-0.2533188,0.0281162-0.2533188-0.1407452
						l-0.0187817-7.7584476c-0.0093327-0.1782513,0.1219654-0.3752823,0.2533188-0.4503498
						c0.0375633-0.0187244,0.0844593-0.0375061,0.1219635-0.0281162l6.1730328,0.3283291
						C28.410778,20.5536671,28.410778,20.8538818,28.2419186,21.0603046z" class="colorffffff svgShape"></path></g><g fill="#010001" class="color000000 svgShape"><g fill="#010001" class="color000000 svgShape"><polygon fill="#d2d4d6" points="59.639 53.826 56.148 51.797 56.103 35.944 59.594 37.973" class="colord6d4d2 svgShape"></polygon><polygon fill="#f4f6f8" points="59.594 37.973 56.103 35.944 60.655 33.316 64.146 35.345" class="colore9e8e6 svgShape"></polygon><polygon fill="#c0c2c4" points="64.146 35.345 64.191 51.198 59.639 53.826 59.594 37.973" class="colorc4c2c0 svgShape"></polygon></g><g fill="#010001" class="color000000 svgShape"><polygon fill="#9a60cb" points="53.584 57.322 50.093 55.293 50.063 44.929 53.555 46.958" class="color6dcb60 svgShape"></polygon><polygon fill="#72a4d6" points="53.555 46.958 50.063 44.929 54.614 42.301 58.105 44.331" class="color81d672 svgShape"></polygon><polygon fill="#7f3db5" points="58.105 44.331 58.135 54.695 53.584 57.322 53.555 46.958" class="color3db542 svgShape"></polygon></g><g fill="#010001" class="color000000 svgShape"><polygon fill="#489bef" points="47.528 60.819 44.036 58.79 43.999 45.647 47.491 47.676" class="colorefc348 svgShape"></polygon><polygon fill="#51a8ff" points="47.491 47.676 43.999 45.647 48.549 43.019 52.041 45.049" class="colorffd651 svgShape"></polygon><polygon fill="#dd40c0" points="52.041 45.049 52.078 58.192 47.528 60.819 47.491 47.676" class="colorddb040 svgShape"></polygon></g><g fill="#010001" class="color000000 svgShape"><polygon fill="#dd4ac2" points="41.472 64.316 37.98 62.286 37.954 53.043 41.445 55.072" class="colordd4a4a svgShape"></polygon><polygon fill="#f25ad6" points="41.445 55.072 37.954 53.043 42.504 50.416 45.996 52.445" class="colorf25a5a svgShape"></polygon><polygon fill="#a50b89" points="45.996 52.445 46.022 61.688 41.472 64.316 41.445 55.072" class="colorcc4848 svgShape"></polygon></g></g></svg>