<svg xmlns="http://www.w3.org/2000/svg" viewBox="0 0 132 132" id="BusinessData"><path fill="#f4f6f8" d="m33.005 84.587 17.411-10.124.552.319-17.411 10.124z" class="color525566 svgShape"></path><path fill="#010001" d="m45.489 101.743 19.646-11.4-.002 1.813-19.646 11.4z" class="colorafb5bf svgShape"></path><path fill="#d4dee8" d="M65.132 90.348 45.49 101.744l-10.692-6.801c-.773-.433-1.388-1.524-1.388-2.412l.148-7.632 17.414-10.122.807 7.086c0 .876.615 1.968 1.388 2.4l11.965 6.085z" class="colord4dae8 svgShape"></path><path fill="#bac4ce" d="M45.487 101.747v1.808l-10.692-6.79c-1.786-.716-2.65-3.116-2.639-4.356l.342-8.11 1.057.603-.148 7.632c-.011.887.615 1.968 1.388 2.411l10.692 6.802z" class="colorbac1ce svgShape"></path><path fill="#cad3dd" d="M77.805 4.834c-.681-.369-1.19.249-2.267.901l-64.696 37.35c-2.184 1.247-3.173 3.86-3.173 6.356l-.191 46.712v4.51c.028 1.248-.668 2.462.042 2.859l-1.163-.659-3.052-1.792c-.738-.453-1.163-1.333-1.163-2.58l-.029-4.483L2 46.807c0-2.496 1.787-5.56 3.943-6.836L70.73 2.584c1.107-.624 2.1-.709 2.808-.284l4.266 2.534z" class="colorcad0dd svgShape"></path><path fill="#6822a2" d="M78.988 54.538 6.357 96.509l-.142-47.173c0-2.496 1.787-5.56 3.971-6.836L74.975 5.113c2.184-1.276 3.97-.255 3.97 2.241l.043 47.184z" class="color5b5e71 svgShape"></path><path fill="#f4f6f8" d="M76.39 52.369 8.934 91.341l-.13-42.01c0-1.558 1.298-3.79 2.7-4.595L76.338 7.32l.051 45.048z" class="colorffffff svgShape"></path><path fill="#e4ecf4" d="m78.988 54.538.013 4.5c.007 2.516-1.76 5.578-3.95 6.843l-64.704 37.356c-2.202 1.271-3.981.257-3.988-2.26l-.013-4.5 72.642-41.94z" class="colore4e8f4 svgShape"></path><path fill="#bac4ce" d="M44.247 78.886c0 1.096-.768 2.383-1.699 2.931-.932.548-1.699.11-1.699-.958 0-1.096.74-2.412 1.699-2.96.931-.52 1.699-.082 1.699.987z" class="colorbac1ce svgShape"></path><path fill="#f960dd" d="m14.528 49.689.01 3.416-2.972 1.716-.01-3.416z" class="colorf9607f svgShape"></path><path fill="#a4abb3" d="m30.088 42.196-13.957 8.058.002.44 13.955-8.057zM30.088 43.686l-13.952 8.056.001.44 13.951-8.055zM30.088 47.691l-13.941 8.048.001.44 13.94-8.048zM30.088 49.187l-13.937 8.047.001.433 13.936-8.046zM30.088 40.706l-13.961 8.06.001.433 13.96-8.059z" class="colora4a9b3 svgShape"></path><path fill="#7d74fd" d="m14.548 56.663.01 3.415-2.973 1.716-.009-3.415z" class="color748bfd svgShape"></path><path fill="#a4abb3" d="m30.088 54.682-13.921 8.037.001.434 13.92-8.037zM30.088 57.663l-13.913 8.032.002.44 13.911-8.032zM30.088 56.172l-13.917 8.035.001.44 13.916-8.034zM30.088 50.678l-13.933 8.044.002.433 13.931-8.043z" class="colora4a9b3 svgShape"></path><path fill="#a375ca" d="m14.568 63.642.01 3.416-2.973 1.716-.009-3.415z" class="color75ca75 svgShape"></path><path fill="#7abcfe" d="m57.685 24.784.01 3.415-2.972 1.716-.01-3.415z" class="colorfed57a svgShape"></path><path fill="#a4abb3" d="m73.6 17.085-14.312 8.264.002.439 14.31-8.262zM73.6 18.576l-14.307 8.26.001.44 14.306-8.26zM73.6 22.58l-14.296 8.254.001.44L73.6 23.02zM73.6 24.076l-14.292 8.252.001.434L73.6 24.511zM73.6 15.595 59.284 23.86l.001.434L73.6 16.029z" class="colora4a9b3 svgShape"></path><path fill="#986eba" d="m57.705 31.757.01 3.416-2.973 1.716-.009-3.416z" class="color6eba6e svgShape"></path><path fill="#a4abb3" d="m73.6 25.567-14.288 8.249.002.433L73.6 26.001z" class="colora4a9b3 svgShape"></path><path fill="#6157fb" d="m57.725 38.737.01 3.416-2.973 1.716-.01-3.416z" class="color576cfb svgShape"></path><path fill="#a4abb3" d="m73.6 31.061-14.272 8.241.001.44 14.271-8.24zM73.6 32.552l-14.268 8.237.001.441L73.6 32.992zM73.6 29.571l-14.276 8.243.001.433L73.6 30.005zM30.088 62.355l-13.921 8.037.001.433 13.92-8.036zM30.088 65.335l-13.913 8.033.002.44 13.911-8.032zM30.088 63.845 16.171 71.88l.001.44 13.916-8.035z" class="colora4a9b3 svgShape"></path><path fill="#724c91" d="m14.568 71.315.01 3.416-2.973 1.716-.009-3.416z" class="color4c7891 svgShape"></path><path fill="#f960dd" d="m57.725 46.41.01 3.415-2.973 1.716-.01-3.415z" class="colorf9607f svgShape"></path><path fill="#a4abb3" d="m73.6 38.734-14.272 8.24.001.44L73.6 39.175zM73.6 40.224l-14.268 8.238.001.44L73.6 40.665zM73.6 37.244l-14.276 8.242.001.434L73.6 37.678zM30.088 70.027l-13.921 8.037.001.434 13.92-8.037zM30.088 73.008 16.175 81.04l.002.44 13.911-8.032zM30.088 71.517l-13.917 8.035.001.44 13.916-8.034z" class="colora4a9b3 svgShape"></path><path fill="#6822a2" d="m14.568 78.987.01 3.416-2.973 1.716-.009-3.415z" class="color5b5e71 svgShape"></path><path fill="#724c91" d="m57.725 54.082.01 3.416-2.973 1.716-.01-3.416z" class="color4c7891 svgShape"></path><path fill="#a4abb3" d="m73.6 46.407-14.272 8.24.001.44 14.271-8.24zM73.6 47.897l-14.268 8.238.001.44L73.6 48.337zM73.6 44.916l-14.276 8.243.001.433L73.6 45.35z" class="colora4a9b3 svgShape"></path><path fill="#cad3dd" d="M50.287 38.654c1.736.99 2.81 3.119 2.826 6.144l-3.353 1.936c-.005-1.97-.7-3.349-1.828-3.99l2.355-4.09z" class="colorcad0dd svgShape"></path><path fill="#986eba" d="M53.113 44.798c.009 3.04-1.057 6.403-2.773 9.386l-2.379-1.355c1.12-1.94 1.805-4.116 1.8-6.086l3.352-1.945z" class="color6eba6e svgShape"></path><path fill="#f960dd" d="M37.348 53.9c.005 1.98.71 3.354 1.836 3.996l-2.363 4.084c-1.728-.985-2.809-3.109-2.817-6.14l3.344-1.94z" class="colorf9607f svgShape"></path><path fill="#6822a2" d="m47.961 52.828 2.379 1.356c-1.725 2.978-4.11 5.59-6.747 7.112l-.019-3.847c1.722-.995 3.268-2.682 4.387-4.62z" class="color5b5e71 svgShape"></path><path fill="#664184" d="M39.184 57.896c1.127.642 2.676.542 4.39-.447l.011 3.852c-2.637 1.523-5.028 1.668-6.764.679l2.363-4.084z" class="color416e84 svgShape"></path><path fill="#7abcfe" d="m36.785 46.46 2.37 1.35c-1.119 1.94-1.813 4.12-1.807 6.09l-3.345 1.931c-.008-3.03 1.057-6.393 2.782-9.371z" class="colorfed57a svgShape"></path><path fill="#7d74fd" d="m43.523 39.343.01 3.843c-1.713.99-3.258 2.686-4.378 4.625l-2.37-1.351c1.717-2.983 4.1-5.595 6.738-7.117z" class="color748bfd svgShape"></path><path fill="#f960dd" d="M43.523 39.343c2.645-1.528 5.037-1.683 6.764-.689l-2.355 4.09c-1.126-.643-2.676-.553-4.39.437l-.02-3.838z" class="colorf9607f svgShape"></path><path fill="#cad3dd" d="M47.165 48.849c0 2.35-1.645 5.111-3.642 6.286-1.998 1.175-3.643.235-3.643-2.056 0-2.35 1.586-5.17 3.643-6.345 1.997-1.117 3.642-.176 3.642 2.115z" class="colorcad0dd svgShape"></path><path fill="#010001" d="M75.726 70.703a.997.997 0 0 1-.499-.134L43.771 52.407a1 1 0 0 1 1-1.732l31.456 18.162a1 1 0 0 1-.5 1.866z" class="colorafb5bf svgShape"></path><path fill="#6822a2" d="m86.999 72.665-2.43 2.467 2.408 5.26-9.971-5.757-2.407-5.259 2.429-2.468z" class="color5b5e71 svgShape"></path><path fill="#6157fb" d="m40.603 103.79-.011 3.779-2.615 1.948.011-3.779zM16.778 106.097l-.011 3.779-3.14-2.307.01-3.779z" class="color576cfb svgShape"></path><path fill="#5046e4" d="m34.252 109.381-.009 3.241c.003-1.06-.696-2.122-2.094-2.93-2.78-1.604-7.272-1.597-10.033.008-1.375.8-2.065 1.846-2.068 2.893l.009-3.241c.003-1.048.693-2.094 2.068-2.893 2.762-1.605 7.253-1.612 10.033-.007 1.398.807 2.097 1.869 2.094 2.93z" class="color3e60dd svgShape"></path><path fill="#6157fb" d="m43.49 110.958-.01 2.595-4.527.3.01-2.596zM16.247 111.326l-.011 2.595-5.401-.393.01-2.595z" class="color576cfb svgShape"></path><path fill="#5046e4" d="m17.079 112.437-.01 3.779c-.342-.35-.64-.727-.833-1.111l.01-3.779c.194.384.492.76.833 1.11zm21.884-1.18-.01 3.78c-.278.538-.688 1.033-1.202 1.52l.011-3.779c.514-.487.924-.982 1.201-1.52zm-15.154 4.435-.01 2.595a13.474 13.474 0 0 1-1.921-.478l.01-2.595c.607.196 1.257.367 1.921.478zm9.026-.325-.01 2.595c-.752.214-1.503.376-2.284.47l.01-2.595a14.72 14.72 0 0 0 2.284-.47zM40.666 114.932l-.011 2.595-3.852 2.238.01-2.595z" class="color3e60dd svgShape"></path><path fill="#6157fb" d="m36.813 117.17-.01 2.595-3.979-1.803.011-2.595z" class="color576cfb svgShape"></path><path fill="#5046e4" d="m17.578 117.17-.011 2.595-3.878-2.238.011-2.595z" class="color3e60dd svgShape"></path><path fill="#6157fb" d="m21.889 115.214-.011 2.595-4.311 1.956.011-2.595zM30.551 115.837l-.01 2.595-.588 2.982.01-2.595zM24.49 118.811l-.01 2.595-.682-3.119.011-2.595z" class="color576cfb svgShape"></path><path fill="#7d74fd" d="m36.813 117.17-3.978-1.803c-.751.214-1.502.376-2.284.47l-.588 2.982-5.472-.008-.682-3.119a13.474 13.474 0 0 1-1.92-.478l-4.311 1.956-3.878-2.238 3.379-2.495c-.341-.35-.639-.727-.832-1.111l-5.402-.393-.017-3.162 5.131-.358c.175-.445.438-.89.819-1.316l-3.14-2.307 3.852-2.24 3.727 1.676a14.703 14.703 0 0 1 2.621-.701l.517-2.615 5.472-.008.545 2.495c1.049.128 2.083.367 3.014.683l3.34-1.53 3.877 2.24-2.615 1.948c.55.538.966 1.136 1.19 1.743l4.295.299.018 3.178-4.527.3c-.278.538-.688 1.033-1.202 1.52l2.904 2.154-3.853 2.238zm-14.668-4.9c2.78 1.605 7.284 1.605 10.046 0s2.746-4.214-.033-5.819c-2.78-1.604-7.272-1.597-10.033.008-2.762 1.605-2.76 4.206.02 5.811" class="color748bfd svgShape"></path><path fill="#5046e4" d="m29.963 118.819-.01 2.595-5.473-.008.01-2.595z" class="color3e60dd svgShape"></path><path fill="#5c377b" d="M49.165 112.168c0 .929.606 1.85 1.825 2.558l24.58 14.19c2.437 1.403 6.359 1.39 8.765 0l43.841-25.475c1.206-.701 1.806-1.617 1.806-2.527l.007-3.138c0 .922-.594 1.825-1.8 2.52l-43.841 25.482c-2.407 1.402-6.328 1.402-8.766 0L51.015 111.58c-1.219-.682-1.825-1.61-1.825-2.52l-.025 3.107z" class="color37617b svgShape"></path><path fill="#724c91" d="m128.2 100.299-43.85 25.474c-2.413 1.402-6.328 1.415-8.766 0L51.006 111.59c-2.424-1.402-2.424-3.676-.025-5.078l43.851-25.474c2.412-1.402 6.328-1.402 8.753 0l24.577 14.183c2.438 1.402 2.45 3.676.038 5.078z" class="color4c7891 svgShape"></path><path fill="#5c377b" d="M64.802 118.272c.63.367 1.657.367 2.287 0 .63-.36.617-.957-.014-1.324-.63-.374-1.663-.374-2.287-.007-.63.36-.63.957.014 1.33z" class="color37617b svgShape"></path><path fill="#f4f6f8" d="M123.704 97.82c.967.558.972 1.464.012 2.023L83.55 123.184c-.961.559-2.526.559-3.493 0l-24.582-14.192c-.967-.559-.972-1.465-.011-2.023l40.165-23.342c.961-.558 2.526-.558 3.493 0l24.582 14.193z" class="colorffffff svgShape"></path><path fill="#5c377b" d="m118.23 91.417-1.18.686-8.225-4.749 1.18-.686z" class="color37617b svgShape"></path><path fill="#e4ecf4" d="m104.438 108.645-.756.439-17.247-9.957.757-.44zM102.442 109.805l-.756.439-17.247-9.957.756-.439zM100.445 110.965l-.756.439-17.246-9.957.756-.439zM94.131 114.634l-.756.44-17.246-9.957.756-.44zM92.135 115.794l-.756.44-17.247-9.957.756-.44zM85.814 119.468l-.756.439-17.247-9.957.756-.44z" class="colore4e8f4 svgShape"></path><path fill="#f960dd" d="m68.601 107.217-4.742 2.756-4.78-2.76 4.742-2.756z" class="colorf9607f svgShape"></path><path fill="#98b8d8" d="m76.912 102.388-4.743 2.756-4.78-2.76 4.743-2.756z" class="color9ad898 svgShape"></path><path fill="#7abcfe" d="m85.229 97.554-4.749 2.76-4.78-2.76 4.749-2.76z" class="colorfed57a svgShape"></path><path fill="#e4ecf4" d="m83.824 120.624-.756.44-17.246-9.958.756-.439zM87.81 118.308l-.756.439-17.246-9.957.756-.44zM96.121 113.478l-.756.439-17.247-9.957.756-.439z" class="colore4e8f4 svgShape"></path><path fill="#724c91" d="m105.618 92.542-6.029 3.504 6.069 3.504c-3.336 1.939-8.753 1.939-12.104.004-3.351-1.935-3.376-5.077-.046-7.011 3.33-1.935 8.76-1.935 12.11 0z" class="color4c7891 svgShape"></path><path fill="#f960dd" d="M108.573 92.542c3.351 1.935 3.369 5.065.04 7.008l-6.07-3.504 6.03-3.504z" class="colorf9607f svgShape"></path><path fill="#514759" d="m110.81 60.498-.014 3.08c-.005 2.043-1.345 4.082-4.019 5.636-5.399 3.137-14.2 3.137-19.634 0-2.735-1.579-4.1-3.654-4.095-5.726l.014-3.08c-.006 2.073 27.742 2.133 27.748.09z" class="color474b59 svgShape"></path><path fill="#6822a2" d="M106.79 66.138c-5.395 3.138-14.195 3.138-19.63 0-5.434-3.138-5.464-8.236-.069-11.374 5.385-3.128 14.185-3.128 19.62 0 5.433 3.138 5.463 8.236.078 11.374z" class="color5b5e71 svgShape"></path><path fill="#514759" d="M105.592 55.417c-4.811-2.771-12.611-2.771-17.382 0-2.762 1.604-3.92 3.792-3.465 5.89.307-1.504 1.465-2.97 3.465-4.137 4.77-2.772 12.57-2.772 17.382 0 2.039 1.168 3.217 2.652 3.533 4.187.456-2.109-.722-4.326-3.533-5.94z" class="color474b59 svgShape"></path><path fill="#7d74fd" d="M105.592 57.17c-4.811-2.772-12.611-2.772-17.382 0-2 1.168-3.158 2.633-3.465 4.137.317 1.534 1.495 3.02 3.534 4.187 4.81 2.772 12.61 2.772 17.392 0 1.98-1.158 3.138-2.623 3.454-4.137-.316-1.535-1.494-3.02-3.533-4.187z" class="color748bfd svgShape"></path><path fill="#d4dee8" d="M112.508 67.501c-.222-.126-.518-.105-.856.085-.666.391-1.205 1.322-1.205 2.094 0 .37.137.634.349.76l-3.484-2.02c-.211-.127-.349-.391-.349-.772 0-.772.54-1.702 1.206-2.083.338-.2.645-.211.856-.084l3.483 2.02z" class="colord4dae8 svgShape"></path><path fill="#a50b89" d="M111.65 67.59c.667-.386 1.21-.077 1.211.691.003.76-.536 1.693-1.204 2.079-.668.385-1.21.077-1.212-.684-.003-.768.536-1.7 1.204-2.086z" class="colorf34858 svgShape"></path><path fill="#f960dd" d="M127.72 75.448c-.34-.194-.812-.17-1.333.133-1.054.594-1.878 2.047-1.878 3.246 0 .582.206.994.545 1.187l-15.335-9.158c-.34-.194-.545-.606-.545-1.2 0-1.187.823-2.64 1.877-3.234.52-.303.993-.339 1.332-.133l15.336 9.159z" class="colorf9607f svgShape"></path><path fill="#a50b89" d="M126.382 75.577c1.036-.598 1.882-.116 1.885 1.075.004 1.181-.836 2.637-1.873 3.235-1.044.603-1.882.116-1.885-1.065-.004-1.191.829-2.642 1.873-3.245z" class="colorf34858 svgShape"></path></svg>