<svg xmlns="http://www.w3.org/2000/svg" enable-background="new 0 0 52 52" viewBox="0 0 52 52" id="MobileChat"><g fill="#010001" class="color000000 svgShape"><path fill="#6822a2" d="M35.2,38.6c0,1.1-0.7,2.3-1.7,2.9l-14.3,8.3c-0.5,0.3-0.9,0.3-1.2,0.1c-0.1,0-0.1-0.1-0.2-0.2c0,0,0.1,0.1,0.1,0.1l-1.7-1.1c-0.3-0.2-0.5-0.6-0.5-1.1l-0.1-34.3c0-1.1,0.9-2.2,1.8-2.8l14.2-8.4c0.5-0.3,0.9-0.3,1.2-0.1l1.8,1.1c0,0-0.1,0-0.1-0.1c0.4,0.1,0.7,0.5,0.7,1.2L35.2,38.6z" class="color4c5c75 svgShape"></path><path fill="#6822a2" d="M17.8 49.7c.1.1.1.1.2.2L18 49.8C17.9 49.8 17.9 49.8 17.8 49.7zM34.6 3.2c-.1 0-.1-.1-.2-.1C34.5 3.2 34.5 3.2 34.6 3.2z" class="color4c5c75 svgShape"></path><path fill="#6822a2" d="M17.8 49.7c.1.1.1.1.2.2L18 49.8C17.9 49.8 17.9 49.8 17.8 49.7zM34.6 3.2c-.1 0-.1-.1-.2-.1C34.5 3.2 34.5 3.2 34.6 3.2zM35 38.6c0 1-.7 2.2-1.5 2.7l-14.3 8.3c-.8.4-1.3.1-1.3-.8l-.1-34.3c0-1 .7-2.2 1.5-2.7l14.3-8.3c.8-.4 1.3-.1 1.3.8L35 38.6z" class="color4c5c75 svgShape"></path><path fill="#f4f6f8" d="M34.6,3.2c-0.3-0.2-0.7-0.2-1.2,0.1l-14.3,8.3c-0.9,0.5-1.7,1.8-1.7,2.9l0.1,34.3c0,0.5,0.2,0.9,0.5,1.1l-1.8-1.1c-0.3-0.2-0.5-0.5-0.5-1.1l-0.1-34.3c0-1.1,0.9-2.2,1.8-2.8l14.2-8.4c0.5-0.3,0.9-0.3,1.2-0.1L34.6,3.2z" class="color9ea9c9 svgShape"></path><path fill="#6822a2" d="M17.8,48.8l-0.1-34.3c0-1,0.7-2.2,1.5-2.7l14.3-8.3c0.8-0.4,1.3-0.1,1.3,0.8L35,38.6c0,1-0.7,2.2-1.5,2.7l-14.3,8.3C18.4,50,17.8,49.7,17.8,48.8z" class="color4c5c75 svgShape"></path><path fill="#ffffff" d="M34.7,38.9c0,0.7-0.5,1.6-1.2,2l-14.3,8.3c-0.6,0.4-1.2,0.1-1.2-0.7L18,14.2c0-0.7,0.5-1.6,1.2-2l3.6-2.1l0,1c0,0.3,0.2,0.4,0.4,0.2l6.4-3.7c0.2-0.1,0.4-0.4,0.4-0.7l0-1l3.6-2.1c0.6-0.4,1.2-0.1,1.2,0.7L34.7,38.9z" class="colorffffff svgShape"></path><path fill="#ffffff" d="M26.6 8.1c.2-.1.3 0 .3.2 0 .2-.1.4-.3.5l-2.3 1.3c-.2.1-.3 0-.3-.2 0-.2.1-.4.3-.5L26.6 8.1zM27.5 7.5c.2-.1.3 0 .3.2 0 .2-.1.5-.3.6-.2.1-.3 0-.3-.2C27.2 7.8 27.4 7.6 27.5 7.5z" class="colorffffff svgShape"></path><g fill="#010001" class="color000000 svgShape"><path fill="#431d43" d="M17.1 16.3l0 2.9c0 .1 0 .2-.1.3l-.2.1 0 0c-.1 0-.2 0-.3 0-.2-.1-.4-.5-.4-.8l0-2.9c0-.1 0-.2.1-.3 0 0 0 0 0 0l.2-.1c.1 0 .2 0 .3 0C16.9 15.7 17.1 16.1 17.1 16.3zM17 21.1V24c0 .1 0 .2-.1.3l-.2.1c-.1.1-.2 0-.3 0-.2-.1-.4-.5-.4-.8l0-2.9c0-.1.1-.2.1-.3 0 0 0 0 0 0l.2-.1c.1 0 .2 0 .3 0C16.9 20.4 17 20.8 17 21.1z" class="color1d2943 svgShape"></path></g><g fill="#010001" class="color000000 svgShape"><path fill="#6822a2" d="M16.4,15.7c0.2,0.1,0.4,0.5,0.4,0.7l0,2.9c0,0.3-0.2,0.4-0.4,0.2c-0.2-0.1-0.4-0.5-0.4-0.8l0-2.9C16,15.7,16.2,15.6,16.4,15.7z" class="color4c5c75 svgShape"></path><g fill="#010001" class="color000000 svgShape"><path fill="#431d43" d="M16.6 15.6c-.1-.1-.2-.1-.3 0l-.2.1c.1 0 .2 0 .3 0 .2.1.4.5.4.7l0 2.9c0 .1 0 .2-.1.3l.2-.1c.1 0 .1-.1.1-.3l0-2.9C17.1 16.1 16.9 15.7 16.6 15.6zM16.6 20.3c-.1-.1-.2-.1-.3 0l-.2.1c.1 0 .2 0 .3 0 .2.1.4.5.4.8l0 2.9c0 .1 0 .2-.1.3l.2-.1c.1 0 .1-.1.1-.3l0-2.9C17.1 20.8 16.9 20.4 16.6 20.3z" class="color1d2943 svgShape"></path><g fill="#010001" class="color000000 svgShape"><path fill="#6822a2" d="M16.4,20.4c0.2,0.1,0.4,0.5,0.4,0.8l0,2.9c0,0.3-0.2,0.4-0.4,0.2c-0.2-0.1-0.4-0.5-0.4-0.8l0-2.9C16,20.4,16.2,20.3,16.4,20.4z" class="color4c5c75 svgShape"></path></g></g></g><g fill="#010001" class="color000000 svgShape"><path fill="#ffffff" d="M31.9,3.3c-0.3-0.1-0.7-0.1-0.9,0c-0.2,0.1-0.3,0.3-0.1,0.5c0,0,0,0,0.1-0.1c0.3-0.1,0.7-0.1,0.9,0c0,0,0.1,0,0.1,0.1C32.1,3.6,32.1,3.4,31.9,3.3z" class="colorffffff svgShape"></path><path fill="#431d43" d="M30.9,3.7C30.9,3.7,30.9,3.7,30.9,3.7c-0.1,0.1,0,0.1,0,0.1c0.3,0.2,0.7,0.2,0.9,0c0,0,0.1,0,0.1-0.1v0c0,0-0.1,0-0.1-0.1C31.6,3.6,31.2,3.6,30.9,3.7z" class="color1d2943 svgShape"></path></g><g fill="#010001" class="color000000 svgShape"><path fill="#6822a2" d="M21.6 11.5C21.6 11.5 21.6 11.6 21.6 11.5 21.6 11.6 21.6 11.6 21.6 11.5l-.3 1c0 .1 0 .1-.1.1l0 0c0 0-.1 0-.1 0L20.9 12c0 0 0 0 0 0 0 0 0 0 0-.1 0 0 0 0 0 0 0 0 0 0 0 0 0 0 0 0 0 0l.3.6L21.6 11.5C21.5 11.6 21.5 11.6 21.6 11.5 21.5 11.6 21.5 11.5 21.6 11.5 21.6 11.5 21.6 11.5 21.6 11.5zM20.7 12.1l0 .8c0 0 0 0 0 .1 0 0 0 0 0 0 0 0 0 0 0 0 0 0 0 0 0 0l0-.8C20.6 12.1 20.6 12.1 20.7 12.1 20.6 12.1 20.6 12.1 20.7 12.1 20.7 12 20.7 12 20.7 12.1 20.7 12.1 20.7 12.1 20.7 12.1zM22.3 12C22.3 12 22.3 12 22.3 12 22.3 12.1 22.3 12.1 22.3 12l-.5.4c0 0 0 0 0 0 0 0 0 0 0 0l0-.8c0 0 0 0 0-.1 0 0 0 0 0 0l.5-.3c0 0 0 0 0 0 0 0 0 0 0 0 0 0 0 0 0 .1 0 0 0 0 0 0l-.4.2 0 .3.4-.2c0 0 0 0 0 0 0 0 0 0 0 0 0 0 0 0 0 .1 0 0 0 0 0 0l-.4.2 0 .3L22.3 12C22.3 11.9 22.3 11.9 22.3 12 22.3 12 22.3 12 22.3 12zM20.5 13C20.5 13 20.5 13 20.5 13 20.5 13.1 20.5 13.1 20.5 13c0 .1 0 .1 0 .1L20 13.4c0 0 0 0-.1 0 0 0 0 0 0 0l0-.8c0 0 0 0 0-.1 0 0 0 0 0 0 0 0 0 0 0 0 0 0 0 0 0 0l0 .7L20.5 13C20.4 13 20.5 13 20.5 13z" class="color4c5c75 svgShape"></path><g fill="#010001" class="color000000 svgShape"><path fill="#e935c8" d="M19.3,13.1c0.1-0.1,0.2,0,0.2,0.1c0,0.1-0.1,0.3-0.2,0.4c-0.1,0.1-0.2,0-0.2-0.1C19.1,13.4,19.2,13.2,19.3,13.1z" class="colore93565 svgShape"></path></g></g><g fill="#010001" class="color000000 svgShape"><path fill="#f350d5" d="M26.3,11c1-0.6,1.9-0.1,1.9,1c0,1.2-0.8,2.6-1.8,3.2c-1,0.6-1.8,0.1-1.9-1.1C24.5,13,25.3,11.6,26.3,11z" class="colorf3a250 svgShape"></path><path fill="#ffffff" d="M26.3 12.9c.6-.3 1-.1 1 .6l-2 1.2C25.3 13.9 25.8 13.2 26.3 12.9zM26.3 11.7c.3-.1.5 0 .5.3 0 .3-.2.6-.5.8-.2.1-.5 0-.5-.3C25.9 12.2 26.1 11.8 26.3 11.7z" class="colorffffff svgShape"></path></g><g fill="#010001" class="color000000 svgShape"><polygon fill="#d4dfea" points="34.6 11.8 34.6 12.5 18 22.1 18 21.4" class="colord4daea svgShape"></polygon></g><g fill="#010001" class="color000000 svgShape"><g fill="#010001" class="color000000 svgShape"><path fill="#5046e4" d="M20.9,34.3C20.9,34.3,20.9,34.2,20.9,34.3C20.8,34.2,20.8,34.2,20.9,34.3L20.9,34.3z" class="color7e5af2 svgShape"></path><path fill="#5046e4" d="M21.7,35.9c0,0.8-0.3,1.7-0.8,2.5c-0.5,0.8-1.1,1.5-1.8,1.9v1.8l-1.7-0.8l-3,1.8c-0.8,0.4-1.5,0.5-1.9,0.1c0,0,0.1,0.1,0.1,0.1l-0.7-0.4c-1.2-0.7-0.8-2.9,0-4.2c0.5-0.8,1.1-1.5,1.8-1.9l4.7-2.7c0.7-0.4,1.4-0.5,1.8-0.2l0.6,0.3c0,0,0,0,0,0C21.4,34.5,21.7,35.1,21.7,35.9z" class="color7e5af2 svgShape"></path></g><g fill="#010001" class="color000000 svgShape"><path fill="#5046e4" d="M20.9,34.3c-0.5-0.3-1.1-0.2-1.8,0.2l-4.7,2.7c-0.7,0.4-1.4,1.1-1.8,1.9c-0.7,1.3-1.2,3.5,0,4.2l-0.7-0.4c-1.2-0.7-0.7-2.9,0-4.2c0.5-0.8,1.1-1.5,1.8-1.9l4.7-2.7c0.7-0.4,1.4-0.5,1.8-0.2L20.9,34.3z" class="color7e5af2 svgShape"></path><path fill="#918afd" d="M19.1,34.4c1.4-0.8,2.6-0.2,2.6,1.5c0,0.8-0.3,1.7-0.7,2.5c-0.5,0.8-1.1,1.5-1.8,1.9l0,1.8l-1.7-0.8l-3,1.7c-2.3,1.3-3.4-1.2-1.8-4c0.5-0.8,1.1-1.5,1.8-1.9L19.1,34.4z" class="colorb28afd svgShape"></path></g><polygon fill="#ffffff" points="20.1 35.2 20.1 35.6 13.5 39.4 13.5 39" class="colorffffff svgShape"></polygon><polygon fill="#ffffff" points="20.1 36.6 20.1 36.9 13.5 40.8 13.5 40.4" class="colorffffff svgShape"></polygon><polygon fill="#ffffff" points="17.2 39.5 13.5 41.7 13.5 42.1 17.2 39.9" class="colorffffff svgShape"></polygon></g><g fill="#010001" class="color000000 svgShape"><path fill="#d4dfea" d="M30.6,37.4c0.9-0.5,1.7-0.1,1.7,1c0,1.1-0.8,2.4-1.7,2.9l-8.5,4.9c-0.9,0.5-1.7,0.1-1.7-1c0-1.1,0.8-2.4,1.7-2.9L30.6,37.4z" class="colord4daea svgShape"></path></g><g fill="#010001" class="color000000 svgShape"><path fill="#6822a2" d="M27.7,40.4c0.3-0.2,0.6,0,0.6,0.4c0,0.4-0.3,0.8-0.6,1L22.1,45c-0.3,0.2-0.6,0-0.6-0.3c0-0.4,0.3-0.9,0.6-1L27.7,40.4z" class="color4c5c75 svgShape"></path></g><g fill="#010001" class="color000000 svgShape"><path fill="#d4dfea" d="M28.5,20c0,0.6-0.4,1.3-0.9,1.6l-7.9,4.6c-0.5,0.3-0.9,0.1-0.9-0.5v-1.3c0-0.6,0.4-1.3,0.9-1.6l7.9-4.6c0.5-0.3,0.9-0.1,0.9,0.5L28.5,20z" class="colord4daea svgShape"></path></g><g fill="#010001" class="color000000 svgShape"><path fill="#95b6d8" d="M34.1,22.4c0,0.5-0.3,1-0.7,1.3l-4.2,2.4l-2.1,1.2c-0.4,0.2-0.7,0-0.7-0.4v-1c0-0.5,0.3-1,0.7-1.3l2.8-1.6l3.4-2c0.4-0.2,0.7,0,0.7,0.4L34.1,22.4z" class="color95d895 svgShape"></path><path fill="#a373ca" d="M34.1,22.4c0,0.5-0.3,1-0.7,1.3l-4.2,2.4l0.7-3.1l3.4-2c0.4-0.2,0.7,0,0.7,0.4L34.1,22.4z" class="color74ca73 svgShape"></path></g><g fill="#010001" class="color000000 svgShape"><path fill="#5449fe" d="M45.1,26.3c0,0.7-0.3,1.6-0.7,2.3c-0.4,0.7-1,1.4-1.7,1.8l-7.4,4.3c-0.4,0.3-0.8,0.3-1.2,0.3c-0.4,0.4-0.9,0.8-1.3,1c-0.7,0.4-1.2,0.6-1.3,0.6L30.8,36c0.9-0.6,1.4-1.3,1.8-2c-0.2-0.3-0.3-0.7-0.4-1.2c0-0.8,0.3-1.6,0.7-2.3c0.4-0.7,1.2-1.3,1.8-1.6l7.4-4.3c0.7-0.4,1.2-0.4,1.7-0.2l0.5,0.4C44.8,24.9,45.1,25.4,45.1,26.3z" enable-background="new" class="color497bfe svgShape"></path></g><g fill="#010001" class="color000000 svgShape"><g fill="#010001" class="color000000 svgShape"><path fill="#5449fe" d="M33.4,34.4c-0.4,0.7-0.9,1.5-1.8,2L30.8,36c0.9-0.6,1.4-1.3,1.8-2L33.4,34.4z" class="color497bfe svgShape"></path><path fill="#5b50ff" d="M44.3,24.7c-0.4-0.2-0.9-0.1-1.5,0.2l-7.4,4.3c-0.6,0.4-1.2,1-1.6,1.7c-0.4,0.7-0.7,1.6-0.7,2.3c0,0.5,0.1,0.9,0.4,1.2l-0.8-0.5c-0.2-0.3-0.4-0.7-0.4-1.2c0-0.8,0.3-1.6,0.7-2.3c0.4-0.7,1.2-1.3,1.8-1.6l7.4-4.3c0.7-0.4,1.2-0.4,1.7-0.2L44.3,24.7z" class="color5094ff svgShape"></path><path fill="#6257fe" d="M42.8,24.9c1.3-0.7,2.3-0.1,2.4,1.3c0,0.7-0.3,1.6-0.7,2.3c-0.4,0.7-1,1.4-1.7,1.8l-7.4,4.3c-0.4,0.2-0.8,0.3-1.2,0.3c-0.4,0.4-0.9,0.8-1.3,1c-0.7,0.4-1.2,0.6-1.3,0.6c0.8-0.6,1.4-1.3,1.8-2c-0.2-0.3-0.4-0.7-0.4-1.2c0-0.8,0.3-1.6,0.7-2.3c0.4-0.7,1-1.4,1.6-1.7L42.8,24.9z" class="color57b3fe svgShape"></path></g></g><g fill="#010001" class="color000000 svgShape"><polygon fill="#ffffff" points="43.7 26 43.7 26.4 34.6 31.7 34.6 31.3" class="colorffffff svgShape"></polygon><polygon fill="#ffffff" points="40.5 29.5 34.6 32.9 34.6 33.3 40.5 29.9" class="colorffffff svgShape"></polygon></g><g fill="#010001" class="color000000 svgShape"><polygon fill="#e935c8" points="30.1 38.9 31.1 38.9 30.1 40.1" class="colore93565 svgShape"></polygon><path fill="#e935c8" d="M30.5,38.2c0.5-0.3,1-0.1,1,0.6c0,0.6-0.4,1.4-1,1.7c-0.5,0.3-1,0.1-1-0.6C29.5,39.2,29.9,38.5,30.5,38.2z M30.5,40.3c0.5-0.3,0.8-0.9,0.8-1.5s-0.4-0.8-0.9-0.5c-0.5,0.3-0.8,0.9-0.8,1.5C29.6,40.3,30,40.6,30.5,40.3" class="colore93565 svgShape"></path></g><g fill="#010001" class="color000000 svgShape"><path fill="#c9d5e2" d="M42.7,11.6c-0.5,0.7-1.1,1.3-1.8,1.6c-0.7,0.4-1.5,0.5-2,0.3l-1.6,1.2l-0.6-0.4l0.8-2.2c0-0.1,0-0.1,0,0c-0.4-1.2,0-3.1,1.1-4.6c0.5-0.7,1.2-1.3,1.8-1.7c0.8-0.5,1.6-0.6,2.2-0.2L43,6c0.1,0.1,0.3,0.2,0.4,0.3C44.4,7.3,44.1,9.7,42.7,11.6z" enable-background="new" class="colorc9cee2 svgShape"></path><g fill="#010001" class="color000000 svgShape"><polygon fill="#c9d5e2" points="37.3 14.7 36.7 14.4 37.4 12.2 38.1 12.6" class="colorc9cee2 svgShape"></polygon><path fill="#d4dfea" d="M43.1,6c-0.6-0.3-1.4-0.2-2.2,0.2c-0.6,0.4-1.2,0.9-1.8,1.7c-1.1,1.6-1.6,3.4-1.1,4.6l-0.6-0.4c-0.4-1.2,0-3.1,1.1-4.6c0.5-0.7,1.2-1.3,1.8-1.7c0.8-0.5,1.6-0.6,2.2-0.2L43.1,6z" class="colord4daea svgShape"></path><path fill="#f4f6f8" d="M40.9,6.3c1-0.6,1.9-0.6,2.5,0c1,1,0.7,3.4-0.7,5.3c-0.5,0.7-1.1,1.3-1.8,1.7c-0.7,0.4-1.5,0.5-2,0.3l-1.6,1.2l0.8-2.2c-0.4-1.2,0-3.1,1.1-4.6C39.7,7.2,40.3,6.6,40.9,6.3z" class="colorf1f6fa svgShape"></path></g><path fill="#431d43" d="M42 8.4c0 .1 0 .3-.1.4 0 .1-.1.3-.2.4-.1.1-.1.2-.2.4-.1.2-.2.4-.3.5-.1.1-.1.2-.1.4 0 .1 0 .1-.1.2 0 .1-.1.1-.2.2-.1 0-.1 0-.2 0 0 0-.1-.1-.1-.1 0-.2 0-.3.1-.5 0-.1.1-.3.2-.4.1-.1.2-.3.3-.4.1-.2.2-.3.2-.4 0-.1.1-.2.1-.3 0-.4-.2-.4-.6-.2-.1.1-.2.1-.3.2-.1.1-.2.2-.3.3 0 .1-.1.1-.1.1-.1 0-.1 0-.2 0C40 9.2 40 9.1 40 9c0-.1 0-.2.1-.3.1-.2.3-.3.4-.4.1-.1.3-.2.4-.3.3-.2.6-.2.8-.2C41.9 7.9 42 8.1 42 8.4zM41.1 11.1c.1 0 .1.1.1.2 0 .1 0 .2-.1.3-.1.1-.1.2-.2.2-.1 0-.2.1-.2 0-.1 0-.1-.1-.1-.2 0-.1 0-.2.1-.3.1-.1.1-.2.2-.2C41 11.1 41.1 11.1 41.1 11.1z" class="color1d2943 svgShape"></path></g><g fill="#010001" class="color000000 svgShape"><g fill="#010001" class="color000000 svgShape"><path fill="#a50b89" d="M12.4 20.5c0 0-.1 0-.1-.1C12.3 20.4 12.3 20.4 12.4 20.5 12.3 20.4 12.4 20.4 12.4 20.5zM13.3 22.4c0 1.9-1.3 4.1-2.9 5.1-.9.5-1.7.5-2.3.1 0 0 .1.1.2.1l-.6-.3c-.5-.3-.9-1-.9-1.9 0-1.9 1.3-4.1 2.9-5.1.8-.5 1.5-.5 2.1-.2l.5.3c0 0 0 0-.1 0 0 0 .1 0 .1.1C12.9 20.7 13.3 21.4 13.3 22.4z" class="colordf3260 svgShape"></path><path fill="#a50b89" d="M12.4,20.5c0,0-0.1,0-0.1-0.1C12.3,20.4,12.3,20.4,12.4,20.5C12.3,20.4,12.4,20.4,12.4,20.5z" class="colordf3260 svgShape"></path></g><g fill="#010001" class="color000000 svgShape"><path fill="#a50b89" d="M12.4,20.5c-0.5-0.3-1.3-0.3-2.1,0.2c-1.6,0.9-2.9,3.2-2.9,5.1c0,0.9,0.3,1.6,0.9,1.9l-0.6-0.3c-0.5-0.3-0.9-1-0.9-1.9c0-1.9,1.3-4.1,2.9-5.1c0.8-0.5,1.6-0.5,2.1-0.2L12.4,20.5z" class="colordf3260 svgShape"></path><path fill="#f451d6" d="M10.4,20.7c1.6-0.9,2.9-0.2,2.9,1.7c0,1.9-1.3,4.1-2.9,5.1c-1.6,0.9-2.9,0.2-2.9-1.7C7.4,23.9,8.7,21.6,10.4,20.7z" class="colorf45170 svgShape"></path></g><path fill="#ffffff" d="M11,22.2c0.3-0.1,0.5-0.2,0.7-0.1c0.4,0.2,0.4,0.9,0,1.6L10.4,26L9,25.3c-0.4-0.2-0.4-0.9,0-1.6c0.2-0.3,0.4-0.6,0.7-0.7c0.2-0.1,0.4-0.2,0.6-0.1C10.5,22.6,10.8,22.3,11,22.2z" class="colorffffff svgShape"></path></g><g fill="#010001" class="color000000 svgShape"><path fill="#95b6d8" d="M34.1,26.8c0,0.5-0.3,1-0.7,1.3l-4.2,2.4l-2.1,1.2c-0.4,0.2-0.7,0-0.7-0.4v-1c0-0.5,0.3-1,0.7-1.3l2.8-1.6l3.4-2c0.4-0.2,0.7,0,0.7,0.4L34.1,26.8z" class="color95d895 svgShape"></path><path fill="#a373ca" d="M34.1,26.8c0,0.5-0.3,1-0.7,1.3l-4.2,2.4l0.7-3.1l3.4-2c0.4-0.2,0.7,0,0.7,0.4L34.1,26.8z" class="color74ca73 svgShape"></path></g></g></svg>