<svg xmlns="http://www.w3.org/2000/svg" enable-background="new 0 0 50 50" viewBox="0 0 50 50" id="DataMonitoring"><path fill="#f4f6f8" d="M26.26443,1.8175c-0.3771,0.2124-0.5994,0.6769-0.6091,1.334l-0.0193,7.7634l-17.7111,10.286
					l0.0193-7.7535c0-0.6571,0.232-1.1211,0.6091-1.334L26.26443,1.8175z" class="colord3dbea svgShape"></path><path fill="#f4f6f8" d="M33.92054,27.5339l-17.5895,10.2286c-0.3925,0.229-0.9378,0.1965-1.5376-0.1528
					c-1.1886-0.6757-2.1482-2.3551-2.13729-3.7294l0.05449-17.6878c0-1.657-1.1668-3.6857-2.6608-4.5472
					c-0.71969-0.4143-1.3849-0.4468-1.8538-0.1741l17.7203-10.2941c0.4689-0.2726,1.1342-0.2402,1.8429,0.1741
					c1.50491,0.8615,2.6717,2.8897,2.6608,4.5584l-0.0545,17.6873c0,1.3631,0.95961,3.0318,2.1482,3.7187
					C33.03724,27.6319,33.53883,27.6862,33.92054,27.5339z" class="colore3e7f0 svgShape"></path><polygon fill="#96b6d6" points="14.868 13.597 20.872 10.109 20.819 17.534 14.815 21.023" class="color96d696 svgShape"></polygon><polygon fill="#b4c5d7" points="14.868 22.91 28.216 15.154 28.163 16.755 14.815 24.512" class="colorb4bed7 svgShape"></polygon><polygon fill="#b4c5d7" points="14.868 26.399 28.216 18.643 28.163 20.244 14.815 28.001" class="colorb4bed7 svgShape"></polygon><polygon fill="#b4c5d7" points="14.868 29.888 28.216 22.131 28.163 23.733 14.815 31.49" class="colorb4bed7 svgShape"></polygon><polygon fill="#b4c5d7" points="14.868 33.377 28.216 25.62 28.163 27.222 14.815 34.978" class="colorb4bed7 svgShape"></polygon><g fill="#010001" class="color000000 svgShape"><path fill="#f4f6f8" d="M35.83533,13.4462c-0.377,0.2223-0.6091,0.6863-0.6091,1.3533l-0.0289,11.5818
						c-0.0097,0.8412-0.2997,1.4308-0.7831,1.7112l-17.7208,10.2959c0.4834-0.2804,0.7831-0.87,0.7831-1.7112l0.0387-11.5818
						c0-0.667,0.232-1.131,0.609-1.3533L35.83533,13.4462z" class="colord3dbea svgShape"></path></g><path fill="#f4f6f8" d="M39.93993,17.5125l-0.0654,21.1927l-17.72039,10.2941l0.06549-21.1928c0-1.6469-1.1668-3.675-2.6062-4.5035
					c-0.7198-0.4148-1.385-0.4585-1.8539-0.1858l17.7094-10.2941c0.4799-0.2726,1.1341-0.2396,1.8648,0.1853
					C38.77314,13.8374,39.93993,15.86559,39.93993,17.5125z" class="colore3e7f0 svgShape"></path><g fill="#010001" class="color000000 svgShape"><polygon fill="#b4c5d7" points="24.398 27.541 29.839 24.38 29.785 25.981 24.344 29.143" class="colorb4bed7 svgShape"></polygon><polygon fill="#b4c5d7" points="24.398 24.053 29.839 20.891 29.785 22.492 24.344 25.654" class="colorb4bed7 svgShape"></polygon><polygon fill="#b4c5d7" points="24.398 30.856 29.839 27.694 29.785 29.295 24.344 32.457" class="colorb4bed7 svgShape"></polygon><polygon fill="#b4c5d7" points="24.398 34.17 37.745 26.413 37.692 28.015 24.344 35.772" class="colorb4bed7 svgShape"></polygon><polygon fill="#b4c5d7" points="24.398 37.484 37.745 29.727 37.692 31.329 24.344 39.086" class="colorb4bed7 svgShape"></polygon><polygon fill="#b4c5d7" points="24.398 40.798 32.221 36.252 32.168 37.853 24.344 42.4" class="colorb4bed7 svgShape"></polygon></g><g fill="#010001" class="color000000 svgShape"><path fill="#b4c5d7" d="M10.05134,11.6505c1.4937,0.8624,2.6627,2.8871,2.658,4.5467l-0.0584,17.6904
						c-0.00379,1.3691,0.9559,3.0387,2.14721,3.7264c1.19129,0.6878,2.15729,0.1301,2.16119-1.239l0.0328-11.582
						c0.0047-1.6527,1.1813-2.3232,2.62569-1.4893c1.4381,0.8303,2.6071,2.855,2.6024,4.5077l-0.06609,21.1846l-0.51231-0.2958
						l0.0661-21.1846c0.0038-1.3333-0.9314-2.9532-2.09179-3.6232c-1.16041-0.6699-2.10171-0.1334-2.1055,1.1999l-0.0328,11.5821
						c-0.0048,1.6954-1.2062,2.3797-2.6814,1.528c-1.469-0.8482-2.6688-2.9187-2.6639-4.6142l0.0583-17.6903
						c0.0038-1.3338-0.9314-2.9533-2.0918-3.6232c-1.2036-0.6949-2.151-0.1623-2.1548,1.1714l-0.022,7.7591l-0.5123-0.2958
						l0.022-7.7591C7.43664,11.49059,8.61314,10.8202,10.05134,11.6505z" class="colorb4bed7 svgShape"></path></g><g fill="#010001" class="color000000 svgShape"><polygon fill="#5046e4" points="36.641 20.454 36.652 24.219 37.745 23.587 37.735 19.822" class="color7bb1ff svgShape"></polygon><polygon fill="#ed5dd3" points="31.279 24.167 31.288 27.315 32.381 26.684 32.372 23.536" class="colored5d71 svgShape"></polygon><polygon fill="#a577cb" points="33.062 21.608 33.075 26.284 34.168 25.653 34.155 20.977" class="color77cb77 svgShape"></polygon><polygon fill="#61affe" points="34.844 19.049 34.862 25.252 35.955 24.621 35.937 18.418" class="colorfebb61 svgShape"></polygon></g><g fill="#010001" class="color000000 svgShape"><g fill="#010001" class="color000000 svgShape"><path fill="#563670" d="M37.89053,30.2837l-0.0066,8.3047c-0.0005,0.1884-0.1243,0.3765-0.3717,0.5203
							c-0.498,0.2894-1.308,0.2894-1.8092,0c-0.2523-0.1456-0.3782-0.3368-0.3777-0.5276l0.0066-8.3047
							c-0.0005,0.1909,0.1254,0.382,0.3777,0.5276c0.5011,0.2894,1.3112,0.2894,1.8092,0
							C37.76624,30.66019,37.89003,30.4721,37.89053,30.2837z" class="color704536 svgShape"></path><path fill="#a50b89" d="M37.51294,29.7561c-0.5013-0.2895-1.3112-0.2895-1.8092,0c-0.498,0.2893-0.4954,0.7585,0.0059,1.0479
						c0.5011,0.2894,1.3112,0.2894,1.8092,0C38.01683,30.5146,38.01414,30.04539,37.51294,29.7561z" class="color885e4b svgShape"></path></g><g fill="#010001" class="color000000 svgShape"><path fill="#3a273a" d="M37.25093,28.5575l-0.0033,1.58c-0.0003,0.0945-0.0624,0.1888-0.1864,0.2609
							c-0.2496,0.145-0.6557,0.145-0.9069,0c-0.1265-0.073-0.1896-0.1688-0.1894-0.2645l0.0033-1.58
							c-0.0002,0.0957,0.0629,0.1915,0.1894,0.2645c0.2512,0.145,0.6573,0.145,0.9069,0
							C37.18853,28.7463,37.25063,28.65199,37.25093,28.5575z" class="color272e3a svgShape"></path><path fill="#b4d6f9" d="M37.06163,28.6354c-0.2513-0.1451-0.6573-0.1451-0.907,0c-0.2496,0.1451-0.2483,0.3803,0.003,0.5254
						c0.2512,0.145,0.6573,0.145,0.9069,0C37.31424,29.0157,37.31284,28.78049,37.06163,28.6354z" class="colorf9d5b4 svgShape"></path></g><path fill="#6822a2" d="M32.08453,28.43089l1.0802,0.6206c0.9499,0.5513,2.2522,0.475,3.6923-0.3524
						c2.86511-1.6548,5.1862-5.6765,5.1785-8.9704c0-1.6316-0.5822-2.7807-1.5168-3.3249l-1.0801-0.628
						c0.9346,0.5438,1.5168,1.6929,1.5168,3.3245c0.00771,3.2942-2.3135,7.316-5.1785,8.9704
						C34.33673,28.8981,33.03444,28.97479,32.08453,28.43089z" class="color4c5671 svgShape"></path><path fill="#5046e4" d="M30.88334,25.31409c0.0072,3.3922,2.421,4.7703,5.3775,3.0637
									c2.9494-1.7069,5.3489-5.856,5.3346-9.2552c-0.0071-3.3921-2.4209-4.7636-5.37029-3.0567
									C33.26863,17.7655,30.87623,21.9147,30.88334,25.31409z" enable-background="new" opacity=".2" class="color7bb1ff svgShape"></path><path fill="#6822a2" d="M30.01624,25.42019c0.0077,1.8082,0.6435,3.0874,1.6777,3.6848l1.0801,0.628
						c-1.0342-0.5974-1.67-1.8766-1.6777-3.6844c-0.0077-3.6466,2.5586-8.0974,5.7301-9.9205
						c1.5934-0.9269,3.0412-1.011,4.083-0.3983l-1.0801-0.6281c-1.0418-0.613-2.4897-0.5285-4.0831,0.3984
						C32.57483,17.32319,30.00854,21.77399,30.01624,25.42019z" class="color4c5671 svgShape"></path><g fill="#010001" class="color000000 svgShape"><path fill="#453751" d="M42.59003,19.4101c0.0103,3.6418-2.5588,8.0974-5.7282,9.9272
								c-3.1693,1.8298-5.7553,0.3506-5.7656-3.2913c-0.0103-3.6418,2.5588-8.0916,5.7282-9.9214
								C39.99373,14.2948,42.57973,15.7682,42.59003,19.4101z M36.86003,28.6967c2.8613-1.652,5.1867-5.6742,5.1773-8.9675
								c-0.0093-3.2876-2.3499-4.6159-5.2111-2.964c-2.8612,1.652-5.1866,5.6742-5.1773,8.9617
								C31.65823,29.0203,33.99883,30.34859,36.86003,28.6967" enable-background="new" class="color373f51 svgShape"></path></g></g><polygon fill="#ed5dd3" points="22.426 12.118 28.216 8.753 28.163 10.354 22.372 13.719" class="colored5d71 svgShape"></polygon><polygon fill="#b4c5d7" points="22.426 15.03 28.216 11.665 28.163 13.266 22.372 16.631" class="colorb4bed7 svgShape"></polygon><polygon fill="#ed5dd3" points="22.426 9.206 28.216 5.841 28.163 7.443 22.372 10.808" class="colored5d71 svgShape"></polygon></svg>