<svg xmlns="http://www.w3.org/2000/svg" enable-background="new 0 0 55 55" viewBox="0 0 55 55" id="Shop"><g fill="#010001" class="color000000 svgShape"><polygon fill="#f4f6f8" points="50.473 36.063 50.473 38.133 27.471 51.5 27.471 49.43" class="color70c470 svgShape"></polygon><polygon fill="#9469b7" points="27.471 49.43 27.471 51.5 4.319 38.133 4.319 36.063" class="color69b769 svgShape"></polygon><polygon fill="#7da7d1" points="50.473 36.063 27.471 49.43 4.319 36.063 27.321 22.696" class="color7dd17d svgShape"></polygon></g><g fill="#010001" class="color000000 svgShape"><polygon fill="#d9dbdd" points="48.741 15.863 48.671 35.971 27.396 48.334 27.466 28.227" class="colord9dddd svgShape"></polygon><polygon fill="#cccdce" points="27.466 28.227 27.396 48.334 5.982 35.971 6.052 15.864" class="colorcccece svgShape"></polygon><polygon fill="#f4f6f8" points="48.741 15.863 27.466 28.227 6.052 15.864 27.327 3.5" class="coloreaefef svgShape"></polygon><polygon fill="#cccdce" points="8.623 15.861 10.489 16.939 27.33 7.151 27.33 4.989" class="colorcccece svgShape"></polygon><polygon fill="#d9dbdd" points="27.33 4.989 27.33 7.151 44.304 16.95 46.17 15.865" class="colord9dddd svgShape"></polygon><g fill="#010001" class="color000000 svgShape"><polygon fill="#6822a2" points="44.304 16.95 27.33 7.151 10.489 16.939 27.463 26.738" class="color8d9096 svgShape"></polygon></g></g><polygon fill="#f4f6f8" points="9.009 32.996 9.056 22.713 8.185 22.21 8.133 33.413 9.009 32.996" class="coloreaefef svgShape"></polygon><polygon fill="#ffffff" points="9.009 32.996 8.133 33.413 8.133 33.413 25.26 43.301 25.264 42.381" class="colorffffff svgShape"></polygon><polygon fill="#5046e4" points="25.315 32.098 25.285 37.678 25.285 38.172 25.264 42.382 21.853 40.41 21.424 40.165 17.089 37.661 16.66 37.416 12.326 34.912 11.896 34.663 9.01 32.996 9.031 28.786 9.031 28.288 9.057 22.713 11.952 24.384 12.377 24.633 16.711 27.133 17.141 27.378 21.471 29.882 21.901 30.127" class="color638dff svgShape"></polygon><polygon fill="#ffffff" points="25.285 37.678 25.285 38.172 21.875 36.201 21.853 40.41 21.424 40.165 21.445 35.951 17.111 33.451 17.089 37.661 16.66 37.416 16.681 33.202 12.347 30.698 12.326 34.912 11.896 34.663 11.918 30.453 9.031 28.786 9.031 28.288 11.922 29.959 11.952 24.384 12.377 24.633 12.351 30.204 16.686 32.708 16.711 27.133 17.141 27.378 17.111 32.953 21.445 35.457 21.471 29.882 21.901 30.127 21.875 35.707" class="colorffffff svgShape"></polygon><g fill="#010001" class="color000000 svgShape"><polygon fill="#f4f6f8" points="40.335 35.555 40.296 27.113 41.012 26.7 41.054 35.897 40.335 35.555" class="coloreaefef svgShape"></polygon><polygon fill="#ffffff" points="30.444 42.023 41.054 35.897 40.335 35.555 30.444 41.266" class="colorffffff svgShape"></polygon><polygon fill="#5046e4" points="40.317 32.099 40.317 31.69 40.296 27.113 37.919 28.485 37.57 28.689 34.012 30.742 33.659 30.943 30.444 32.802 30.444 41.267 33.702 39.385 34.054 39.184 37.612 37.128 37.965 36.923 40.335 35.555" class="color638dff svgShape"></polygon><polygon fill="#ffffff" points="40.317 31.69 37.944 33.062 37.919 28.485 37.57 28.689 37.591 33.263 34.033 35.319 34.012 30.742 33.659 30.943 33.684 35.52 30.444 37.392 30.444 37.798 33.684 35.929 33.702 39.385 34.054 39.184 34.037 35.724 37.595 33.669 37.612 37.128 37.965 36.923 37.947 33.468 40.317 32.099" class="colorffffff svgShape"></polygon></g><g fill="#010001" class="color000000 svgShape"><g fill="#010001" class="color000000 svgShape"><polygon fill="#dd50c3" points="42.447 40.154 41.952 39.866 41.924 26.96 42.419 27.248" class="colordda450 svgShape"></polygon><polygon fill="#a2a5a9" points="42.419 27.248 41.924 26.96 47.437 23.777 47.932 24.065" class="colora2a7a9 svgShape"></polygon><polygon fill="#6cb5ff" points="47.932 24.065 47.96 36.971 42.447 40.154 42.419 27.248" class="colorffd06c svgShape"></polygon><polygon fill="#5046e4" points="47.537 36.523 42.877 39.203 42.867 34.433 47.517 31.753" class="color638dff svgShape"></polygon><polygon fill="#5046e4" points="42.867 33.153 42.847 27.493 47.507 24.813 47.517 30.463" class="color638dff svgShape"></polygon></g></g><g fill="#010001" class="color000000 svgShape"><path fill="#e52cc3" d="M31.387207 32.5468521l.0064812 1.1092415c.0035858.6137428-.4264202 1.3637428-.9596176 1.6737251-.2665977.154995-.5094624.1718903-.6843014.0701447-.1748238-.0989342-.2840538-.3122711-.285862-.6219597l-.0064812-1.1092415L31.387207 32.5468521zM39.1014366 28.0620537l.0064812 1.1092434c.0035858.6137428-.4239731 1.3623199-.9596138 1.6737232-.2641525.1535702-.507019.1704693-.6818581.0687218-.1748238-.0989304-.286499-.3108482-.2883072-.6205349l-.0064812-1.1092434L39.1014366 28.0620537z" class="colore5392c svgShape"></path><path fill="#e52cc3" d="M39.1014366,28.0620537l0.0064812,1.1092434
										c0.0035858,0.6137428-0.4239731,1.3623199-0.9596138,1.6737232
										c-0.2641525,0.1535702-0.507019,0.1704693-0.6818581,0.0687218
										c-0.1748238-0.0989304-0.286499-0.3108482-0.2883072-0.6205349l-0.0064812-1.1092434L39.1014366,28.0620537z" class="colore5392c svgShape"></path><path fill="#e52cc3" d="M41.0302048,26.9411755l0.0064812,1.1092453
								c0.0035858,0.6137428-0.4239731,1.3623199-0.9596138,1.6737232c-0.2641525,0.1535702-0.507019,0.1704693-0.6818581,0.0687218
								c-0.1748238-0.0989323-0.286499-0.3108482-0.288311-0.6205349l-0.0064774-1.1092434L41.0302048,26.9411755z" class="colore5392c svgShape"></path><path fill="#d9dbdd" d="M41.0302048 26.9411755l.0064812 1.1092453c.0035858.6137428-.4239731 1.3623199-.9596138 1.6737232-.2641525.1535702-.507019.1704693-.6818581.0687218-.1748238-.0989323-.286499-.3108482-.288311-.6205349l-.0064774-1.1092434L41.0302048 26.9411755zM37.1716576 29.1839638l.0064812 1.1092434c.0035858.6137428-.4239731 1.3623199-.9571686 1.6723022-.2666016.1549931-.5094643.1718922-.6843033.0701427-.1748238-.0989304-.2840538-.3122692-.285862-.6219578l-.0064812-1.1092434L37.1716576 29.1839638z" class="colord9dddd svgShape"></path><path fill="#e52cc3" d="M35.2443237,30.304451l0.0064812,1.1092434
								c0.0035858,0.6137447-0.4239769,1.3623219-0.9596176,1.673727c-0.2665977,0.1549911-0.5094604,0.1718903-0.6818581,0.068718
								c-0.177269-0.0975075-0.2864952-0.3108482-0.2883072-0.620533l-0.0064812-1.1092434L35.2443237,30.304451z" class="colore5392c svgShape"></path><path fill="#d9dbdd" d="M33.3145409,31.426363l0.0064812,1.1092434
										c0.0035858,0.6137428-0.4239731,1.3623199-0.9596138,1.6737251
										c-0.2641563,0.1535683-0.5070171,0.1704674-0.6818581,0.0687218
										c-0.1748238-0.0989342-0.2840519-0.3122711-0.285862-0.6219597l-0.0064812-1.1092415L33.3145409,31.426363z" class="colord9dddd svgShape"></path><g fill="#010001" class="color000000 svgShape"><g fill="#010001" class="color000000 svgShape"><polygon fill="#ff30d9" points="35.204 25.322 37.133 24.201 39.102 28.065 37.173 29.185" class="colorff5230 svgShape"></polygon><polygon fill="#a50b89" points="35.204 25.322 37.173 29.185 34.803 27.817" class="color892c1a svgShape"></polygon></g></g><g fill="#010001" class="color000000 svgShape"><g fill="#010001" class="color000000 svgShape"><polygon fill="#f4f6f8" points="33.276 26.442 35.204 25.322 37.173 29.185 35.244 30.306" class="coloreaefef svgShape"></polygon><polygon fill="#f4f6f8" points="37.133 24.201 39.062 23.08 41.03 26.944 39.102 28.065" class="coloreaefef svgShape"></polygon><polygon fill="#f4f6f8" points="39.059 23.091 40.988 21.97 42.956 25.834 41.027 26.954" class="coloreaefef svgShape"></polygon><path fill="#d9dbdd" d="M44.8814316,24.7209072l0.0064812,1.1092434
									c0.0035858,0.6137428-0.4239769,1.3623219-0.9596176,1.6737251
									c-0.2641525,0.1535702-0.5070152,0.1704693-0.6818581,0.0687218
									c-0.1748199-0.0989323-0.2864952-0.3108501-0.2883072-0.6205368l-0.0064812-1.1092434L44.8814316,24.7209072z" class="colord9dddd svgShape"></path><polygon fill="#f4f6f8" points="40.984 21.98 42.913 20.86 44.882 24.723 42.953 25.844" class="coloreaefef svgShape"></polygon><polygon fill="#ff30d9" points="39.062 23.08 40.991 21.959 42.959 25.823 41.03 26.944" class="colorff5230 svgShape"></polygon><polygon fill="#a50b89" points="33.276 26.442 35.244 30.306 32.874 28.938" class="color892c1a svgShape"></polygon></g></g><g fill="#010001" class="color000000 svgShape"><g fill="#010001" class="color000000 svgShape"><polygon fill="#ff30d9" points="31.347 27.563 33.276 26.442 35.244 30.306 33.315 31.427" class="colorff5230 svgShape"></polygon><polygon fill="#a50b89" points="31.347 27.563 33.315 31.427 30.946 30.059" class="color892c1a svgShape"></polygon></g></g><g fill="#010001" class="color000000 svgShape"><g fill="#010001" class="color000000 svgShape"><polygon fill="#f4f6f8" points="29.418 28.684 31.347 27.563 33.315 31.427 31.387 32.548" class="coloreaefef svgShape"></polygon><polygon fill="#a50b89" points="29.418 28.684 31.387 32.548 29.017 31.18" class="color892c1a svgShape"></polygon></g></g><g fill="#010001" class="color000000 svgShape"><g fill="#010001" class="color000000 svgShape"><polygon fill="#ff30d9" points="27.489 29.805 29.418 28.684 31.387 32.548 29.458 33.669" class="colorff5230 svgShape"></polygon><polygon fill="#e52cc3" points="27.489 29.805 29.458 33.669 27.482 32.528" class="colore5392c svgShape"></polygon></g></g><g fill="#010001" class="color000000 svgShape"><path fill="#e52cc3" d="M42.9589729,25.8202991l0.0064774,1.1092434
						c0.0035858,0.6137447-0.4239731,1.3623219-0.9596138,1.6737251c-0.2641525,0.1535702-0.5070152,0.1704693-0.6818581,0.0687218
						c-0.1748238-0.0989323-0.286499-0.3108482-0.2883072-0.6205368l-0.0064812-1.1092434L42.9589729,25.8202991z" class="colore5392c svgShape"></path></g><g fill="#010001" class="color000000 svgShape"><polygon fill="#ff30d9" points="42.92 20.838 44.848 19.717 46.817 23.581 44.888 24.702" class="colorff5230 svgShape"></polygon></g><g fill="#010001" class="color000000 svgShape"><path fill="#e52cc3" d="M46.8165054,23.5785465l0.0064812,1.1092434c0.003582,0.6137428-0.4239769,1.3623219-0.9596176,1.6737251
						c-0.2641525,0.1535702-0.5070152,0.1704693-0.6818581,0.0687218c-0.1748238-0.0989323-0.286499-0.3108501-0.2883072-0.6205368
						l-0.0064812-1.1092434L46.8165054,23.5785465z" class="colore5392c svgShape"></path></g><g fill="#010001" class="color000000 svgShape"><polygon fill="#f4f6f8" points="44.848 19.717 46.777 18.596 48.745 22.46 46.817 23.581" class="coloreaefef svgShape"></polygon></g><g fill="#010001" class="color000000 svgShape"><path fill="#d9dbdd" d="M48.7452698,22.4576702l0.0064812,1.1092434c0.0035858,0.6137428-0.4239731,1.3623199-0.9596138,1.6737251
						c-0.2641525,0.1535683-0.507019,0.1704674-0.6818581,0.0687199c-0.1748238-0.0989304-0.286499-0.3108482-0.2883072-0.6205349
						l-0.0064812-1.1092434L48.7452698,22.4576702z" class="colord9dddd svgShape"></path></g><g fill="#010001" class="color000000 svgShape"><polygon fill="#ff30d9" points="46.777 18.596 48.706 17.475 50.674 21.339 48.745 22.46" class="colorff5230 svgShape"></polygon></g><g fill="#010001" class="color000000 svgShape"><path fill="#e52cc3" d="M50.6740379,21.3367939l0.0064812,1.1092434
						c0.0035858,0.6137428-0.4239769,1.3623199-0.9596176,1.6737251c-0.2641525,0.1535683-0.5070152,0.1704674-0.6818581,0.0687199
						c-0.1748199-0.0989304-0.2864952-0.3108482-0.2883072-0.6205349l-0.0064812-1.1092434L50.6740379,21.3367939z" class="colore5392c svgShape"></path></g></g><g fill="#010001" class="color000000 svgShape"><g fill="#010001" class="color000000 svgShape"><polygon fill="#d9dbdd" points="33.743 14.318 33.737 16.435 27.657 19.969 27.663 17.851" class="colord9dddd svgShape"></polygon><polygon fill="#d9dbdd" points="27.663 17.851 27.657 19.969 22.776 17.151 22.782 15.033" class="colord9dddd svgShape"></polygon><polygon fill="#ffffff" points="33.743 14.318 27.663 17.851 22.782 15.033 27.198 12.467 30.538 12.467" class="colorffffff svgShape"></polygon></g><path fill="#3a373a" d="M29.3820629,13.985651c0.7504902,0.4332952,0.7585697,1.1347532,0.0087948,1.5704746
					c-0.7456532,0.4333258-1.9607868,0.4333315-2.7112751,0.0000362c-0.7505455-0.4333277-0.7545071-1.1371775-0.0088539-1.5705042
					C27.4205017,13.5499363,28.6315174,13.5523233,29.3820629,13.985651z" class="color3a3937 svgShape"></path></g><g fill="#010001" class="color000000 svgShape"><path fill="#ffffff" d="M43.4640999,33.4779167c0,0.1876221-0.1324501,0.4139175-0.2924843,0.5077286
			c-0.165596,0.093811-0.2925186,0.0165405-0.2925186-0.1710854c0-0.1876564,0.1269226-0.4083939,0.2925186-0.5022392
			C43.3316498,33.2185097,43.4640999,33.2902565,43.4640999,33.4779167z" class="colorffffff svgShape"></path></g></svg>