<svg xmlns="http://www.w3.org/2000/svg" enable-background="new 0 0 66 66" viewBox="0 0 66 66" id="EducationForAll"><path fill="#5046e4" d="M28.1,30.6c-1.8-1-4.3-0.9-7,0.7c-5.5,3.2-9.9,10.8-9.9,17.1c0,3.1,1.1,5.3,2.9,6.4l-10.2-6
							c-1.8-1-2.9-3.2-2.9-6.4c0-6.3,4.4-13.9,9.9-17.1c2.8-1.6,5.2-1.7,7-0.7L28.1,30.6z" class="color0074d1 svgShape"></path><path fill="#f4f6f8" d="M19,32.8l-10.2-6C5.6,29.4,3,33.4,1.8,37.4l10.2,6C13.3,39.4,15.8,35.4,19,32.8z" class="color006cb5 svgShape"></path><path fill="#5046e4" d="M21.1,31.3c2.8-1.6,5.2-1.7,7-0.7l-10.2-6c-1.8-1-4.3-0.9-7,0.7c-0.7,0.4-1.4,0.9-2.1,1.5l10.2,6
								C19.6,32.2,20.4,31.7,21.1,31.3z" class="color0074d1 svgShape"></path><path fill="#0a009b" d="M1.8,37.4c-0.5,1.7-0.8,3.4-0.8,5c0,3.1,1.1,5.3,2.9,6.4l10.2,6c-1.8-1-2.9-3.2-2.9-6.4
								c0-1.6,0.3-3.3,0.8-5L1.8,37.4z" class="color00649b svgShape"></path><path fill="#4a0087" d="M21.1,31.3c5.5-3.2,9.9-0.6,9.9,5.7c0,6.3-4.4,13.9-9.9,17.1c-5.5,3.2-9.9,0.6-9.9-5.7
							C11.2,42.1,15.6,34.5,21.1,31.3z" class="color005e87 svgShape"></path><path fill="#5046e4" d="M30.4,37.3c0,5.9-4.1,13.1-9.3,16.1c-4.2,2.4-7.7,1.3-8.9-2.4c-0.3-0.8-0.4-1.8-0.4-2.9
							c0-5.9,4.1-13.1,9.3-16.1c1-0.6,2-1,2.9-1.2C27.7,30.1,30.4,32.6,30.4,37.3z" class="color0074d1 svgShape"></path><path fill="#cfd1d3" d="M12.2,51l4.7,2.8c-1.2-0.7-2-2-2.3-3.9l-2.9-1.7C11.8,49.3,12,50.2,12.2,51z" class="colorcfd2d3 svgShape"></path><path fill="#a2a2a5" d="M11.8,48.1c0,0,0,0.1,0,0.1l2.9,1.7c-0.1-0.4-0.1-0.9-0.1-1.4c0-2.1,0.6-4.4,1.6-6.6l-2.5-1.4
								C12.5,43,11.8,45.6,11.8,48.1z" class="colora2a4a5 svgShape"></path><path fill="#cfd1d3" d="M28.7,33.6L24,30.9c-0.9,0.2-1.9,0.6-2.9,1.2c-1,0.6-2,1.3-2.9,2.2l2.5,1.5c0.7-0.6,1.4-1.1,2.1-1.5
								C25.1,32.9,27.2,32.7,28.7,33.6z" class="colorcfd2d3 svgShape"></path><path fill="#b6b8ba" d="M13.7,40.5l2.5,1.4c1.1-2.4,2.7-4.6,4.6-6.2l-2.5-1.5C16.4,35.9,14.8,38.1,13.7,40.5z" class="colorb6b9ba svgShape"></path><g fill="#010001" class="color000000 svgShape"><path fill="#929093" d="M22.8,34.2c4.6-2.6,8.3-0.5,8.3,4.7c0,5.3-3.7,11.6-8.3,14.3c-4.6,2.6-8.3,0.5-8.3-4.7
								C14.6,43.2,18.2,36.8,22.8,34.2z" class="color909293 svgShape"></path><path fill="#cccdce" d="M30.4,38.9c0,5-3.5,11.1-7.9,13.7c-0.9,0.5-1.8,0.9-2.7,1c-0.2,0-0.5,0-0.7,0c-2.4,0-3.9-2-3.9-5.2
								c0-0.8,0.1-1.6,0.2-2.4c0.9-4.4,4-9.1,7.7-11.3c0.5-0.3,1-0.5,1.4-0.7c0.7-0.2,1.3-0.4,1.9-0.4c1.7,0,2.9,1,3.5,2.7
								C30.3,37.1,30.4,38,30.4,38.9z" class="colorcccece svgShape"></path></g><g fill="#010001" class="color000000 svgShape"><path fill="#51a8ff" d="M61.4,60.9c0.7,4.5-7.8,1.2-7.8,1.2c-1.6,4.7-19-4.6-19-4.6c0.3,1.5-0.6,1.9-1.1,2
									c-1,0.2-2.6-0.6-5.5-0.8s-4-1.6-4.9-2.7c-0.8-0.9-1.7-1.3-3.1-2.4c-0.2-0.2-0.4-0.4-0.7-0.6c-1.4-1.3-1.9-4.2-2-5.5
									c0-0.3-1.2-1.2-1.6-1.4c0.9-4.4,4-9.1,7.7-11.3c0.5-0.3,1-0.5,1.4-0.7c1.3,1,2.7,1.7,4.1,2.1c0.4,0.1,0.8,0.2,1.1,0.2
									c0.1,0,0.2,0,0.3,0c0.6,0,1.4,0,2,0c0.3,0,0.5,0,0.5,0s21,12.7,25.9,14.6c1,0.4,1.7,0.8,2.1,1.2c0.8,0.7,0.9,1.5,0.8,2
									c-0.1,0.7-0.7,1.3-0.7,1.3s3.6,1.2,4.2,3.5C65.5,61.3,61.4,60.9,61.4,60.9z" class="colorffd651 svgShape"></path><path fill="#f4f6f8" d="M33.2,59.1c-0.1,0-1.6-0.1-2.4-0.9c-0.8-0.8-0.4-2-0.4-2c0.5-0.9,2.3-0.4,2.3-0.4
								c0.9,0.2,0.9,0.8,0.9,0.8s-0.1,1.5,0.1,1.9C33.8,58.9,33.3,59.1,33.2,59.1z" class="colorf4f4f4 svgShape"></path><path fill="#489bef" d="M26.6 49.3c.7.7 1.4 1.4 2.3 1.8.2.1.4.2.6.3.2.1.4.2.7.3.5.2.9.4 1.4.7.9.6 1.6 1.3 2.1 2.2.5.9.8 1.9.8 2.9-.2-1-.5-1.9-1.1-2.7-.3-.4-.6-.8-.9-1.1-.3-.3-.7-.6-1.1-.9-.4-.3-.8-.5-1.3-.7-.4-.2-.9-.4-1.3-.7C27.9 50.9 27.1 50.2 26.6 49.3zM51.9 57.8c.4.2.7.5 1 .8.3.3.5.7.7 1 .2.4.3.8.4 1.2 0 .4-.1.9-.4 1.2.2-.8 0-1.5-.4-2.2C52.8 59.2 52.3 58.6 51.9 57.8zM61.4 60.9c.1-1.1-1.6-2.2-2.5-2.7-1.1-.6-3-1.6-3.5-1.9 1.3.3 2.4.7 3.8 1.4C60.2 58.4 61.9 59.8 61.4 60.9zM60.7 55.5c-.7-.1-1.3-.2-2-.4-.3-.1-.6-.2-1-.3-.3-.1-.6-.2-1-.3.3-.1.7-.1 1-.1.3 0 .7.1 1 .2.3.1.7.2 1 .3C60.1 55.1 60.4 55.3 60.7 55.5z" class="colorefc348 svgShape"></path></g><path fill="#489bef" d="M25.6,34.8c-3.9,2.9-7.2,6.8-10,11.2c0.9-4.4,4-9.1,7.7-11.3c0.5-0.3,1-0.5,1.4-0.7
						C24.9,34.4,25.2,34.6,25.6,34.8z" class="colorefc348 svgShape"></path><g fill="#010001" class="color000000 svgShape"><path fill="#82b1e0" d="M60.5,38c0,1.6-0.2,3.1-0.6,4.6c0,0.1-0.1,0.2-0.1,0.4c-0.9,3.2-2.7,6.1-5,8.3
															c-0.1,0.1-0.2,0.2-0.3,0.3c-0.1,0.1-0.2,0.2-0.3,0.2c-0.5,0.4-1,0.8-1.5,1.2c0,0,0,0,0,0c0,0-0.1,0.1-0.1,0.1
															c0,0-0.1,0-0.1,0.1c-0.1,0.1-0.2,0.1-0.3,0.2c-0.7,0.5-1.5,0.9-2.3,1.3c0,0-0.1,0-0.1,0c-1.2,0.5-2.5,1-3.8,1.2
															c-0.1,0-0.7,0.1-1.5,0.2c-0.1,0-0.2,0-0.3,0c-0.6,0.1-1.1,0.1-1.7,0.1c-3,0-5.8-0.7-8.3-2c-0.1-0.1-0.2-0.1-0.3-0.2
															c-1.3-0.7-2.4-1.5-3.5-2.4c-0.1-0.1-0.2-0.2-0.3-0.2c0,0,0,0,0,0c0,0,0,0-0.1,0c-0.1-0.1-0.2-0.2-0.3-0.3
															c-0.3-0.3-0.7-0.7-1-1c0,0,0,0,0,0c-2.7-3-4.4-7-4.5-11.3c0-0.1,0-0.2,0-0.3c0-0.1,0-0.2,0-0.3c0-0.7,0-1.4,0.1-2
															c0,0,0-0.1,0-0.1c0-0.1,0-0.1,0-0.2c0.2-1.8,0.7-3.5,1.4-5c0.5-1.1,1.1-2.2,1.7-3c0-0.1,0.1-0.1,0.1-0.2
															c0.1-0.1,0.1-0.2,0.2-0.2c0,0,0-0.1,0.1-0.1c0.1-0.1,0.1-0.2,0.2-0.2c0.2-0.2,0.3-0.4,0.5-0.6
															c0.1-0.1,0.1-0.1,0.2-0.2c0.4-0.4,0.8-0.8,1.2-1.2c0.2-0.2,0.4-0.4,0.6-0.5c0.1-0.1,0.2-0.2,0.3-0.3
															c3.1-2.6,7.2-4.1,11.6-4.1c0.9,0,1.9,0.1,2.8,0.2c1.5,0.2,2.9,0.6,4.3,1.2c0.1,0,0.1,0,0.1,0.1c0.1,0,0.1,0,0.1,0.1
															c1.2,0.5,2.3,1.2,3.4,1.9c0,0,0.1,0.1,0.1,0.1c0.2,0.1,0.4,0.3,0.5,0.4c1.1,0.9,2.1,1.9,3,3c0.1,0.1,0.2,0.2,0.2,0.3
															c1.5,2,2.6,4.3,3.1,6.8c0,0.1,0.1,0.2,0.1,0.3c0,0.1,0,0.1,0,0.2c0,0.1,0,0.2,0.1,0.3v0c0,0.2,0.1,0.3,0.1,0.5
															C60.4,36.3,60.5,37.1,60.5,38z" class="color82c6e0 svgShape"></path><path fill="#b5d4f4" d="M60.5,38c0,1.6-0.2,3.1-0.6,4.6c0,0.1-0.1,0.2-0.1,0.4c-0.9,3.3-2.8,6.3-5.3,8.5h0
															c-0.1,0.1-0.2,0.2-0.3,0.2h0c-0.5,0.4-1,0.8-1.5,1.2c0,0,0,0,0,0c-0.1,0-0.1,0.1-0.1,0.1c0,0-0.1,0.1-0.1,0.1
															c-0.3,0.2-0.6,0.3-0.9,0.5c0-0.3,0.1-0.7,0.1-1c-0.1-0.6-0.2-1.2-0.3-1.8c0,0,0,0,0,0c0-0.1,0-0.2,0-0.3
															c0-0.1,0-0.2,0-0.4c-0.1-0.6-0.3-1.2-0.5-1.7c-0.1-0.6-0.2-1.2-0.3-1.9c-0.1-0.9,0.1-1.1,0.8-1.5
															c0.2-0.1,0.5-0.4,0.6-0.6c0.4-0.6,0.7-1.1,1.1-1.7c0.1-0.1,0.1-0.3,0-0.4c0-0.1-0.1-0.3-0.1-0.4
															c0.2-0.4,0-0.7-0.4-0.9c-0.1,0-0.1-0.1-0.1-0.2C52,40.4,52,40,52.3,39.5c0.2-0.4,0.4-0.3,0.7-0.1c0,0,0.1,0,0.1,0
															c0.4-0.3,0.8-0.6,1.1-0.9c0,0,0.1-0.1,0.1-0.1c0.1-0.1,0.2-0.1,0.2-0.2c0.1-0.1,0.2-0.2,0.4-0.3
															c0.3-0.2,0.7-0.3,1-0.5c0.2-0.1,0.4-0.1,0.6-0.1c0.1,0,0.2,0.1,0.2,0c0.8-0.5,1.9-0.5,2.2-1.7c0-0.1,0.1-0.1,0.2-0.2
															c0.3-0.3,0.5-0.6,0.8-0.8c0.1-0.1,0.2-0.2,0.3-0.2c0,0.1,0,0.2,0.1,0.3v0c-0.2,0.3-0.3,0.5-0.5,0.8
															c0,0,0.1,0.1,0.1,0.1c0.2-0.1,0.3-0.2,0.5-0.4C60.4,36.3,60.5,37.1,60.5,38z" class="colorb5e5f4 svgShape"></path><path fill="#b5d4f4" d="M57,35.7c-0.1-0.5,0-1.1-0.6-1.4c0,0-0.1-0.1-0.1-0.1c-0.8,0.2-1.5-0.5-2.3-0.1
													c-0.1,0.1-0.3,0.2-0.4,0.3c-0.2,0.2-0.3,0.5-0.5,0.7c-0.1,0-0.2-0.1-0.2-0.1c0.1-0.3,0.1-0.7,0.2-1
													c0.1-0.3,0.1-0.5-0.2-0.6c-0.2-0.2-0.5-0.3-0.7-0.5c-0.2-0.2-0.3-0.4-0.4-0.6c-0.4-0.3-0.4-1.2-1.3-0.9
													c0.2-0.8-0.4-0.8-0.9-0.9c-0.3,0.4-0.3,0.4-1.7-0.1c0.1-0.1,0.2-0.3,0.3-0.3c0.4,0,0.7,0,0.8-0.5c0-0.1,0.3-0.1,0.4-0.1
													c0.2,0,0.3,0.1,0.6,0.2c-0.6-0.6-0.9-0.7-1.3-0.2c-0.3-0.1-0.7-0.3-1.1-0.5c-0.1-0.1-0.2-0.1-0.3-0.1
													c0.2,0.3,0.3,0.5,0.4,0.8c0,0.1,0.1,0.1,0.1,0.2h-1.4c-0.1,0-0.1-0.1-0.1-0.1c0.1-0.1,0.2-0.1,0.3-0.2
													c0.1-0.1,0.2-0.1,0.3-0.2c0.1-0.1,0.2-0.1,0.3-0.2c-0.1-0.1-0.2-0.3-0.2-0.5c0.1-0.1,0.3-0.2,0.4-0.3
													c0.6-0.5,1.2-0.9,1.8-1.4c0.7,0.5,0.9,0.5,1.1-0.2c0.4-0.1,0.7-0.2,1.1-0.2c0.1,0,0.3,0,0.4-0.1c0.4,0,0.7,0.6,0.4,0.9
													c-0.1,0.1-0.2,0.4-0.2,0.5c0.1,0.1,0.3,0.2,0.5,0.3c0,0.1-0.1,0.3-0.1,0.5c0,0.1,0.1,0.3,0.1,0.3c0.1,0,0.3,0,0.3-0.1
													c0.2-0.5,0.5-0.7,1.1-0.8c0.7-0.1,1.3-0.4,1.9-0.6c0.4-0.2,0.4-0.4,0-0.7c-0.4-0.3-0.8-0.4-1.3-0.6
													c-0.1-0.1-0.2-0.1-0.4-0.2c-0.1,0.1-0.2,0.2-0.2,0.3c-0.5,0-0.9,0.1-1.3,0.1c0,0,0-0.1,0-0.1c0.4-0.2,0.8-0.3,1.3-0.5
													c-0.5-0.1-0.8-0.1-1.3-0.2c0.1-0.2,0.2-0.4,0.3-0.6h-1.4c0.1,0.2,0.1,0.3,0.1,0.5c-0.3-0.1-0.6-0.2-0.8-0.3
													c0,0.1,0,0.2-0.1,0.2c0.3,0.1,0.7,0.2,1,0.3c0.1,0,0.1,0.1,0.2,0.2C52.2,25.9,52.1,26,52,26c-0.3,0.1-0.6,0.1-0.9,0.1
													c-0.2,0-0.4,0.1-0.6,0.1c-0.5,0.1-1,0.1-1.5,0.2c0-0.1-0.1-0.1-0.1-0.2c0.2-0.2,0.4-0.4,0.6-0.6c-0.5-0.1-1,0.5-1.3-0.2
													c0.4-0.1,0.8-0.3,1.1-0.4c0.1,0,0.2-0.1,0.2-0.1c0-0.3,0.2-0.4,0.3-0.4c0.2-0.1,0.4-0.1,0.6-0.2
													c0.4-0.1,0.7-0.2,1.1-0.4c0.7-0.3,1.4-0.4,2-0.1c-0.2-0.1-0.4-0.3-0.5-0.4c-0.1,0-0.2,0-0.3-0.1c0,0,0.1,0,0.1,0
													c-0.3-0.2-0.7-0.5-1-0.7c-0.1-0.1-0.2-0.1-0.3-0.2c-0.7-0.4-1.4-0.8-2.1-1.1c-0.1,0-0.2-0.1-0.3-0.1
													c-1.2-0.5-2.5-0.9-3.8-1.1c-0.1,0-0.2,0-0.3-0.1c-0.1,0-0.1,0-0.2,0c-0.3-0.1-0.7-0.1-1-0.1c-0.1,0-0.2,0-0.4,0
													c-0.5,0-0.9-0.1-1.4-0.1c-0.1,0-0.2,0-0.3,0c-0.9,0-1.7,0.1-2.5,0.2c-0.1,0-0.2,0-0.3,0c0,0,0,0,0,0
													c-0.1,0-0.3,0-0.4,0.1c-0.9,0.2-1.7,0.4-2.2,0.6c-1.9,0.6-3.7,1.6-5.3,2.8c-0.4,0.4-0.7,0.7-1.1,1.1
													c-0.1,0.1-0.1,0.1-0.1,0.1c0.2,0.1,0.3,0.3,0.5,0.4c0.4,0.3,0.9,0.6,1.3,0.9c0.2,0.1,0.5,0.3,0.6,0.5
													c0,0.2-0.1,0.5-0.3,0.7c-0.3,0.2-0.6,0.1-0.8-0.2c0,0-0.1,0-0.2,0c-0.1,0.2-0.2,0.5-0.3,0.7c-0.8,0-1-0.1-1.6-1.1
													c0.1-0.1,0.3-0.2,0.5-0.4c-0.3-0.1-0.5-0.2-0.7-0.3c-0.3,0.4-0.6,0.9-0.9,1.3c0.5-0.1,0.7,0.2,0.8,0.7
													c0.6,0,1.2,0,1.7,0c0.4,0,0.6-0.1,0.6-0.6c0.6,0,0.7,0.1,0.5,0.6c0.3,0.2,0.7,0.3,1,0.5c0.2,0.1,0.4,0.2,0.6-0.1
													c0.3-0.4,0.9-0.6,0.9-1.3c0-0.1,0.4-0.2,0.6-0.2c0.2,0,0.3,0.1,0.5,0.2c0,0.1-0.1,0.2-0.1,0.4c0,0,0.1,0.1,0.1,0.1
													c0.2,0.1,0.5,0.2,0.6,0.4c0.1,0.1-0.1,0.4-0.1,0.6c-0.3-0.1-0.5-0.2-0.8-0.4c-0.1-0.1-0.1-0.3-0.1-0.5
													c-0.2,0.1-0.4,0.1-0.6,0.2c0.2,0.2,0.3,0.4,0.5,0.5c-0.4,0.5-1.1,0.2-1.7,0.4c0.6,0.2,1,0.3,1.6,0.5
													c-0.2,0.1-0.4,0.1-0.5,0.2c-0.1,0.2-0.3,0.4-0.3,0.5c0,0.1,0.3,0.3,0.5,0.3c0.3,0,0.6,0,1,0c0.3,0,0.5,0.2,0.4,0.5
													c0,0.1-0.1,0.3,0,0.5c0.2,0.4,0,0.6-0.4,0.7c-0.2,0.1-0.3,0.2-0.5,0.2c-0.2,0-0.4-0.1-0.6-0.1c-0.2-0.1-0.4-0.1-0.5-0.2
													c-0.4-0.4-0.7-0.8-1.1-1.1c-0.1-0.1-0.3-0.2-0.3-0.2c-0.5,0.4-1-0.6-1.5,0.1c-0.1,0.1-0.3,0.2-0.4,0.3
													c-0.3,0.2-0.7,0.4-1,0.6c0-0.1-0.1-0.3-0.2-0.4c0.4-0.3,0.8-0.7,1.2-1c-0.1-0.1-0.1-0.1-0.2-0.2
													c-0.4,0.3-0.9,0.5-1.2,0.9c-0.4,0.4-0.6,0.9-0.9,1.3c-0.6-0.2-0.6-0.2-0.4-0.8c-0.2-0.1-0.3-0.2-0.5-0.3
													c-0.4,0.9-0.5,1.1-1.5,1.1c-0.1,0.4-0.2,0.8-0.2,1.2c0.1,0,0.2,0,0.4,0c0.7-0.1,1.4-0.2,2.1-0.3c0.2,0,0.4,0.2,0.6,0.3
													c0.2,0.1,0.4,0.2,0.6,0.2c0.6-0.2,1.1-0.5,1.6-0.7c0-0.3-0.1-0.6,0-0.7c0.2-0.1,0.5-0.2,0.7-0.1c1,0.1,2.1,0.3,3.1,0.5
													c0.5,0.1,0.9,0.4,1.1,1c0.1,0.2,0.2,0.5,0.4,0.6c0.6,0.3,1,0.9,1.1,1.4c0.1,0.6-0.1,1.2,0.2,1.8c0.1,0.3-0.1,0.7-0.5,1
													C36.7,39,36.4,39.6,36,40c-0.2,0.2-0.4,0.4-0.7,0.1C35.2,40,35.1,40,35,40c-0.7,0.1-1.3,0-1.9-0.3
													c-0.1-0.1-0.5,0.1-0.6,0.3c-0.2,0.3-0.4,0.4-0.7,0.2c-0.1-0.1-0.3,0-0.4,0.1c-0.1,0,0,0.3,0,0.4c0.2,0.5,0.3,1-0.2,1.4
													c-0.6,0.5-0.5,1.2-0.7,1.8c0,0.1,0.1,0.2,0.1,0.3c0.5,0.4,0.4,0.9,0.2,1.4c-0.3,0.6-0.7,1.2-0.7,1.9
													c0,0.1-0.2,0.3-0.3,0.5c0,0.1-0.1,0.1-0.1,0.2c0.1,0.2,0.3,0.3,0.4,0.5c0,0,0,0,0,0c0.3,0.4,0.7,0.8,1,1.1
													c0.1,0.1,0.1,0.1,0.2,0.2c0,0,0,0,0.1,0.1c0.9,0.8,1.9,1.5,2.6,2c0.1,0.1,0.2,0.1,0.3,0.2c2.7,1.7,6,2.7,9.4,2.7
													c0.6,0,0.8,0,1.2,0h0c0.1,0,0.2,0,0.3,0c1.7-0.1,3.3-0.5,4.8-1.1c0.2-0.2,0.1-0.4-0.1-0.6c-0.2-0.2-0.4-0.3-0.7-0.6
													c0.2-0.1,0.3-0.2,0.5-0.3c-0.3-0.3-0.5-0.6-0.8-0.8c0.1-0.1,0.2-0.3,0.3-0.5h-0.6c0-0.4-0.3-0.5-0.6-0.5
													c-0.6,0-0.9-0.3-0.8-0.9c-0.3,0-0.5,0-0.6-0.1c-0.1,0-0.2-0.1-0.2-0.2c-0.1-0.1-0.3-0.3-0.4-0.5c0-0.1-0.1-0.1-0.1-0.2
													c-0.1,0-0.1-0.1-0.2-0.1c-0.2-0.3-0.6-0.5-0.5-0.9c0-0.1-0.1-0.3-0.2-0.4c-0.2-0.2-0.5-0.3-0.7-0.4
													c-0.3-0.1-0.6-0.1-0.8-0.3c-0.4-0.4-0.5-1-0.6-1.6c0-0.1,0-0.2-0.1-0.3c-0.1-0.2-0.1-0.3-0.2-0.5
													c-0.2-0.3-0.4-0.6-0.6-1c-0.2-0.4,0-0.6,0.3-0.8c0.9-0.4,1.8-0.8,2.8-1c0.2,0,0.4-0.3,0.4-0.5c0.1-0.2,0.3-0.5,0.6-0.8
													c0.2-0.2,0.5-0.4,0.7-0.3c0.2,0,0.4,0,0.6-0.1c0.1,0,0.1-0.1,0.2-0.2c0,0,0.1-0.1,0.1-0.1c0.1-0.1,0.3-0.2,0.5-0.3
													c0-0.1,0-0.2,0-0.3c0.6-0.3,1.4,0.2,2-0.3c0.1-0.1,0.4,0.2,0.6,0.4v-0.6c0.4,0.3,0.7,0.5,0.9,0.7
													c0.1,0.1,0.3,0.3,0.3,0.2c0.3-0.2,0.6-0.1,0.9-0.1c0.1,0,0.2,0,0.3,0.1c0.1,0,0.3-0.3,0.4-0.5c0.1-0.2,0-0.4,0-0.6
													c0-0.3,0.2-0.6,0.5-0.5c0.2,0,0.4,0,0.6,0c0-0.2,0-0.5-0.1-0.7c-0.1-0.2-0.4-0.5,0-0.6c0.2-0.1,0.7-0.2,0.8,0.3
													c0.1,0.3,0.7,0.5,0.9,0.3C56.7,36.5,57,36.2,57,35.7z M36.7,21.3C36.7,21.3,36.7,21.3,36.7,21.3
													C36.7,21.2,36.7,21.2,36.7,21.3c0.5-0.3,0.8-0.3,1.2,0c0.5,0.4,0.8,0.3,0.9-0.3c0.1-0.4,0.2-0.8,0.7-0.8
													c0.9,0,1.9,0,2.8,0c0.4,0,0.9,0,1.3,0h0.2c0.1,0,0.2,0,0.3,0c0.4,0,0.7,0.1,1,0.6c0.2-0.1,0.3-0.2,0.4-0.3
													c0.3,0.7,0.3,0.7,1.1,0.6c0,0,0.1,0,0.1,0c0.5,0,1.1-0.1,1.4,0.2c0.2,0.2,0.5,0.2,0.7,0.4c0.1,0,0.2,0.1,0.3,0.1
													c0.1,0.1,0.2,0.2,0.2,0.3c0.2,0.4,0.9,0.4,1.4,0.6c-0.2,0.1-0.4,0.2-0.6,0.4c-0.1,0.1-0.2,0.1-0.3,0.1
													c-0.4,0-0.7-0.1-1.1-0.1h0c-0.3,0-0.6,0-0.8,0.1c-0.2,0-0.4,0.1-0.5,0.2c-0.3,0.2-0.6,0.5-0.7,1
													c-0.2-0.1-0.4-0.1-0.6-0.2c0.1,0.2,0.3,0.4,0.4,0.5c0,0,0,0.1,0,0.1c-0.1,0.2-0.2,0.4-0.3,0.7c0,0.1-0.1,0.1-0.1,0.2
													C46.1,25.7,46,25.8,46,26c0,0,0,0.1-0.1,0.1c-0.2,0.2-0.4,0.4-0.6,0.5c-0.3,0.2-0.7,0.2-1.1,0.3c-0.1,0-0.2-0.1-0.3-0.1
													c-0.2-0.2-0.4-0.4-0.5-0.6c-0.2-0.6-0.6-0.5-1.1-0.6c-0.2,0-0.4-0.1-0.6-0.2c-0.2-0.1-0.4-0.2-0.6-0.2
													c-0.8-0.1-1.5-0.3-2.2-0.6c0.1-0.2,0.1-0.4,0.2-0.6c-0.2,0-0.3-0.1-0.4-0.1c-0.4,0-0.8-0.7-0.5-0.9
													c0.2-0.3,0.1-0.4-0.1-0.6c-0.3-0.2-0.6-0.4-0.9-0.7C37,21.5,36.9,21.4,36.7,21.3z M37,25.7C36.9,25.7,36.9,25.7,37,25.7
													C36.9,25.7,36.9,25.6,37,25.7c0.2-0.1,0.4-0.2,0.6-0.2c0.4,0,0.9,0,1.3,0c0.1,0,0.2,0.1,0.3,0.1c0,0.1-0.1,0.2-0.1,0.3
													c0,0,0,0.1-0.1,0.1c0,0,0,0,0,0C38.3,26.3,37.7,26.3,37,25.7z M50.8,36.9c-0.1,0-0.1,0-0.1,0c-0.1,0-0.2,0-0.3,0
													c-0.1,0-0.2,0-0.3,0c0,0,0-0.1,0.1-0.1c0,0,0,0,0-0.1c0,0,0,0,0,0v0c0,0,0,0,0.1,0c0,0,0.1-0.1,0.1-0.1c0,0,0.1,0,0.1,0
													c0,0,0,0,0,0c0,0,0,0,0,0c0,0,0.1,0,0.1,0c0.2,0,0.4,0.1,0.6,0.3C51,36.9,50.9,36.9,50.8,36.9z M53.4,35.9
													c-0.1,0-0.3,0.1-0.4,0.1c0,0,0,0-0.1,0c-0.1,0-0.2,0.1-0.3,0.1c-0.1,0.1-0.3,0.1-0.5,0.1c-0.2,0.1-0.3,0.1-0.5,0.2
													C52.4,35.8,53,35.6,53.4,35.9C53.5,35.9,53.5,35.9,53.4,35.9C53.5,35.9,53.4,35.9,53.4,35.9z" class="colorb5e5f4 svgShape"></path><g fill="#010001" class="color000000 svgShape"><g fill="#010001" class="color000000 svgShape"><path fill="#2d2b2d" d="M54,15c-0.1,0.1-0.3,0.2-0.4,0.3c-6.2,3.6-16.2,3.6-22.4,0C31.1,15.1,31,15,30.8,15h-4.3l-0.1,14.4
										c0,2.4,1.5,4.7,4.7,6.5c6.2,3.6,16.2,3.6,22.4,0c3.1-1.8,4.6-4.1,4.6-6.4L58.2,15H54z" class="color2d2c2b svgShape"></path><path fill="#211f21" d="M54,15c-0.1,0.1-0.3,0.2-0.4,0.3c-5.1,3-12.8,3.5-18.9,1.5v20.7c6,1.9,13.6,1.4,18.7-1.6
										c3.1-1.8,4.6-4.1,4.6-6.4L58.2,15H54z" class="color21201f svgShape"></path><path fill="#383638" d="M54,15c-0.1,0.1-0.3,0.2-0.4,0.3c-3.1,1.8-7.2,2.7-11.3,2.7v20.6c4,0,8-0.9,11.1-2.7
										c3.1-1.8,4.6-4.1,4.6-6.4L58.2,15H54z" class="color383736 svgShape"></path><path fill="#6822a2" d="M54,15c-0.1,0.1-0.3,0.2-0.4,0.3c-0.7,0.4-1.6,0.8-2.4,1.1v20.6c0.8-0.3,1.5-0.7,2.2-1.1
										c3.1-1.8,4.6-4.1,4.6-6.4L58.2,15H54z" class="color494846 svgShape"></path><path fill="#c6c6c6" d="M30.8,15c0.1,0.1,0.3,0.2,0.4,0.3c6.2,3.6,16.2,3.6,22.4,0c0.2-0.1,0.3-0.2,0.4-0.3H30.8z" class="colorc6c6c6 svgShape"></path></g><polygon fill="#2d2b2d" points="65 15.7 65 18 42.4 31.1 42.4 28.8" class="color2d2c2b svgShape"></polygon><polygon fill="#383638" points="42.4 28.8 42.4 31.1 19.6 18 19.6 15.7" class="color383736 svgShape"></polygon><polyline fill="#6822a2" points="42.2 2.5 65 15.7 42.4 28.8 19.6 15.7 42.2 2.5" class="color494846 svgShape"></polyline><path fill="#f25ad6" d="M29.3,33.2c-0.5,0-0.9-0.4-0.9-0.9l0-8.7c0-0.3,0.2-0.6,0.5-0.8l13.1-7.5c0.4-0.3,1-0.1,1.3,0.3
									c0.3,0.4,0.1,1-0.3,1.3l-12.6,7.3l0,8.2C30.2,32.8,29.8,33.2,29.3,33.2C29.3,33.2,29.3,33.2,29.3,33.2z" class="colorf25a5a svgShape"></path><path fill="#a50b89" d="M29.2,42.6c-0.9,0-1.6-0.4-2.1-1.1c-0.5-0.6-0.6-1.4-0.4-2.3l1.7-6H30l1.7,6
								C32.2,40.9,31,42.6,29.2,42.6z" class="colorcc4848 svgShape"></path><path fill="#dd4ac2" d="M27.9,41.6c-0.3,0-0.5,0-0.8-0.1c-0.5-0.6-0.6-1.4-0.4-2.3l1.7-6h0.5l1.5,5.1
								C30.9,39.9,29.6,41.6,27.9,41.6z" class="colordd4a4a svgShape"></path><path fill="#a50b89" d="M31.3,33.1c0,1.1-0.9,2-2,2c-1.1,0-2-0.9-2-2c0-1.3,1.2-2.3,2.6-2C30.6,31.4,31.3,32.2,31.3,33.1z" class="colorcc4848 svgShape"></path><path fill="#dd4ac2" d="M30.3,32.6c0,1.1-0.9,2-2,2c-0.2,0-0.3,0-0.5-0.1c-0.3-0.4-0.6-0.9-0.6-1.4c0-1.3,1.2-2.3,2.6-2
								C30.1,31.5,30.3,32,30.3,32.6z" class="colordd4a4a svgShape"></path><g fill="#010001" class="color000000 svgShape"><g fill="#010001" class="color000000 svgShape"><path fill="#2d2b2d" d="M48.1,13.7l0,2.3c0,0.8-0.5,1.6-1.6,2.2c-2.1,1.2-5.6,1.2-7.8,0C37.6,17.6,37,16.8,37,16l0-2.3
								c0,0.8,0.5,1.6,1.6,2.3c2.2,1.2,5.6,1.2,7.8,0C47.5,15.4,48.1,14.6,48.1,13.7z" class="color2d2c2b svgShape"></path><path fill="#211f21" d="M46.5,16c-1.7,1-4.4,1.2-6.5,0.5v2.3c2.1,0.6,4.7,0.5,6.5-0.5c1.1-0.6,1.6-1.4,1.6-2.2l0-2.3
								C48.1,14.6,47.5,15.4,46.5,16z" class="color21201f svgShape"></path><path fill="#2d2b2d" d="M46.5,16c-0.6,0.3-1.3,0.6-2,0.7V19c0.7-0.2,1.4-0.4,2-0.7c1.1-0.6,1.6-1.4,1.6-2.2l0-2.3
								C48.1,14.6,47.5,15.4,46.5,16z" class="color2d2c2b svgShape"></path><path fill="#383638" d="M46.4,11.5c2.2,1.2,2.2,3.3,0,4.5c-2.1,1.2-5.6,1.2-7.8,0c-2.2-1.2-2.2-3.3,0-4.5
								C40.8,10.2,44.3,10.2,46.4,11.5z" class="color383736 svgShape"></path></g></g></g></g></svg>