<svg xmlns="http://www.w3.org/2000/svg" enable-background="new 0 0 50 50" viewBox="0 0 50 50" id="EmailMessage"><g fill="#010001" class="color000000 svgShape"><polygon fill="#5046e4" points="25.988 2.236 23.861 1 38.483 6.643 41.876 8.615" class="colore5bd13 svgShape"></polygon><polygon fill="#6822a2" points="10.252 49 8.124 47.764 8.061 25.673 10.189 26.91" class="colorc6a51a svgShape"></polygon><polygon fill="#f4f6f8" points="10.189 26.91 8.061 25.673 23.861 1 25.988 2.236" class="colord6b218 svgShape"></polygon><polygon fill="#f10fc8" points="25.988 2.236 41.876 8.615 41.939 30.705 10.252 49 10.189 26.91" class="colorf1c40f svgShape"></polygon></g><g fill="#010001" class="color000000 svgShape"><polygon fill="#d4d5d6" points="13.66 43.402 13.024 43.032 12.95 16.969 13.586 17.339" class="colord4d6d6 svgShape"></polygon><polygon fill="#e0e1e2" points="13.586 17.339 12.95 16.969 38.468 2.236 39.104 2.606" class="colore0e2e2 svgShape"></polygon><polygon fill="#f4f6f8" points="39.175 28.667 36.726 30.081 26.064 28.806 15.431 42.381 13.662 43.404 13.614 27.32 13.584 17.337 39.103 2.607 39.127 12.12" class="colorecf0f1 svgShape"></polygon></g><polygon fill="#5046e4" points="26.064 28.806 15.431 42.381 10.25 49 10.19 26.91 13.614 27.32" class="colore5bd13 svgShape"></polygon><polygon fill="#5046e4" points="41.937 30.707 36.726 30.081 26.064 28.806 39.127 12.12 41.871 8.618" class="colore5bd13 svgShape"></polygon><g fill="#010001" class="color000000 svgShape"><path fill="#a50b89" d="M30.0675,11.7446c0.9907,0.6086,1.4903,1.7572,1.4951,3.4524
			c0.003,1.0639-0.1713,2.0224-0.519,2.882c-0.3516,0.8574-0.8155,1.4525-1.3995,1.7896c-0.4187,0.2418-0.7535,0.2714-1.0041,0.0845
			c-0.2506-0.1825-0.3826-0.5795-0.4036-1.1775c-0.4766,1.5442-1.2393,2.6213-2.2958,3.2313
			c-0.7376,0.4258-1.3878,0.4608-1.9507,0.1048c-0.5628-0.356-0.8457-1.0549-0.8486-2.0967
			c-0.003-1.0462,0.2596-2.0778,0.7916-3.0924c0.5282-1.0169,1.2302-1.7759,2.1023-2.2794
			c0.3957-0.2285,0.7687-0.3244,1.1228-0.2945c0.3503,0.0366,0.6046,0.1683,0.7592,0.4062l-0.0028-0.9889l1.2332-0.712
			l0.0146,5.1562c0.002,0.6887,0.2411,0.8955,0.7098,0.6249c0.2689-0.1553,0.5103-0.5157,0.728-1.0924
			c0.2139-0.5745,0.3236-1.2259,0.3216-1.9543c-0.0045-1.576-0.4232-2.674-1.2523-3.2876
			c-0.8329-0.6157-1.8987-0.5487-3.2049,0.2055c-1.31,0.7564-2.4188,1.9271-3.334,3.5079
			c-0.9152,1.5852-1.3688,3.1117-1.3647,4.5773c0.0042,1.47,0.4417,2.4422,1.3089,2.9232c0.8672,0.481,1.9404,0.3521,3.2198-0.3865
			c1.0257-0.5922,1.8163-1.3449,2.3601-2.2514l0.2859,0.3833c-0.2988,0.4688-0.6977,0.9378-1.1927,1.4094
			c-0.4989,0.4694-0.9828,0.8371-1.4514,1.1077c-1.4407,0.8318-2.6486,0.9764-3.6237,0.4384
			c-0.979-0.5402-1.467-1.6425-1.4716-3.298c-0.0047-1.6555,0.4984-3.3609,1.517-5.1296c1.0147-1.7665,2.2463-3.0656,3.6908-3.8996
			C27.8535,11.2542,29.073,11.1382,30.0675,11.7446z M27.4716,19.0756c0.3137-0.6321,0.4659-1.2594,0.4641-1.8951
			c-0.0018-0.6357-0.1646-1.0679-0.4923-1.2943c-0.3277-0.2264-0.7509-0.1855-1.2734,0.1161
			c-0.5225,0.3017-0.9445,0.7575-1.2583,1.3588c-0.3176,0.6079-0.4737,1.2197-0.4719,1.8378
			c0.0017,0.6136,0.1608,1.0612,0.4733,1.3363c0.3163,0.2773,0.7434,0.2606,1.2813-0.0499
			C26.7359,20.1725,27.1617,19.7012,27.4716,19.0756" class="colore74c3c svgShape"></path></g></svg>