<svg xmlns="http://www.w3.org/2000/svg" enable-background="new 0 0 50 50" viewBox="0 0 50 50" id="EmployeeDesk"><g fill="#010001" class="color000000 svgShape"><polygon fill="#6822a2" points="29.755 30.759 26.533 30.084 25.924 30.438 29.146 31.113 32.361 34.155 32.971 33.801" class="color686868 svgShape"></polygon><polygon fill="#5046e4" points="32.361 34.155 32.971 33.801 32.969 34.301 32.36 34.655" class="color3d3d3d svgShape"></polygon><polygon fill="#f4f6f8" points="32.361 34.155 32.36 34.655 29.143 32.143 25.922 30.938 25.924 30.438 29.145 31.113" class="color4f4d4d svgShape"></polygon></g><g fill="#010001" class="color000000 svgShape"><polygon fill="#6822a2" points="29.136 30.759 32.358 30.082 32.968 30.436 29.746 31.113 26.532 34.156 25.922 33.802" class="color686868 svgShape"></polygon><polygon fill="#5046e4" points="26.532 34.156 25.922 33.802 25.924 34.303 26.534 34.656" class="color3d3d3d svgShape"></polygon><polygon fill="#f4f6f8" points="26.532 34.156 26.533 34.656 29.75 32.142 32.97 30.937 32.967 30.436 29.747 31.112" class="color4f4d4d svgShape"></polygon></g><g fill="#010001" class="color000000 svgShape"><path fill="#6822a2" d="M30.2129,24.0001c-0.4173,0.2425-1.0962,0.2425-1.5162,0
														c-0.2113-0.122-0.3168-0.2821-0.3163-0.442l-0.0152,7.7803c-0.0005,0.1599,0.105,0.32,0.3163,0.442
														c0.42,0.2425,1.099,0.2425,1.5162,0c0.2073-0.1205,0.311-0.2781,0.3115-0.4361l0.0152-7.7803
														C30.524,23.722,30.4202,23.8796,30.2129,24.0001z" class="color686868 svgShape"></path><path fill="#f4f6f8" d="M30.208,23.1219c0.42,0.2425,0.4222,0.6358,0.0049,0.8782
															c-0.4173,0.2425-1.0962,0.2425-1.5162,0c-0.42-0.2425-0.422-0.6356-0.0047-0.8781
															C29.1092,22.8795,29.788,22.8794,30.208,23.1219z" class="color4f4d4d svgShape"></path></g><g fill="#010001" class="color000000 svgShape"><path fill="#6e4194" d="M34.9842,20.8293l-5.8623,3.4068c-0.4752,0.2762-1.2499,0.2768-1.7293,0l-5.9007-3.4068
														c-0.2411-0.1392-0.3613-0.3219-0.3608-0.5043l-0.0056,1.993c-0.0005,0.1824,0.1197,0.3651,0.3608,0.5043l5.9007,3.4068
														c0.4795,0.2768,1.2541,0.2762,1.7293,0l5.8623-3.4068c0.2366-0.1375,0.3551-0.3173,0.3556-0.4974l0.0056-1.993
														C35.3393,20.512,35.2208,20.6918,34.9842,20.8293z" class="color589441 svgShape"></path><path fill="#c838ae" d="M34.9785,19.8276c0.4795,0.2768,0.482,0.7249,0.0056,1.0017l-5.8623,3.4068
															c-0.4752,0.2762-1.2499,0.2768-1.7293,0l-5.9007-3.4068c-0.4795-0.2768-0.4809-0.7255-0.0056-1.0017l5.8623-3.4068
															c0.4763-0.2768,1.2499-0.2768,1.7293,0L34.9785,19.8276z" class="colora9c838 svgShape"></path></g><g fill="#010001" class="color000000 svgShape"><path fill="#8441bc" d="M37.5961,12.1224l-0.0148,6.1548c0,0.0886-0.0147,0.1773-0.0295,0.2511
											c0,0,0,0.0148-0.0148,0.0296c-0.0296,0.1477-0.1034,0.2659-0.2216,0.3251l-1.7137,1.0046
											c0.1477-0.0886-5.6436-10.779-5.6436-10.779c0-0.7683-0.8658-1.3092-0.5999-1.8115l1.0135-0.1091l-0.9987,0.0943
											c0.6944-1.3296,2.879-2.0037,5.0172-0.7296C36.1361,7.593,37.5961,10.0688,37.5961,12.1224z" class="color80bc41 svgShape"></path><path fill="#6e4194" d="M32.6562,7.6026c-2.4319-1.4042-4.4264-0.2554-4.4321,2.5528l-0.0109,4.7678
											c-0.0011,0.5485,0.3867,1.2216,0.8617,1.4959l5.9083,3.4111c0.475,0.2743,0.8646,0.0499,0.8656-0.4986l0.0138-6.1625
											C35.8668,11.128,34.4238,8.623,32.6562,7.6026z" class="color589441 svgShape"></path></g><path fill="#f4f6f8" d="M34.8725,19.9964c-0.4841-1.8593-0.41-3.8183-0.1335-5.7197
							c0.6324-4.3475-1.6402-5.3714-1.9343-5.6164c-0.3665-0.3054-1.2418-1.4657-1.2418-1.4657s-1.4931,0.3317-2.7987,0.1966
							c-1.3055-0.135-2.1119,0.2127-2.1119,0.2127c-1.4542,2.1498-1.0432,7.8718-0.8219,8.6621c0.2213,0.7904,0,2.6239,0,2.6239
							l6.3859,3.6988C34.7337,22.0529,35.1244,20.9639,34.8725,19.9964z" class="color4f4d4d svgShape"></path><path fill="#f4f6f8" d="M27.8791,14.8572c0,0,2.4542-3.6641,3.6838-7.6626l-2.6645,0.5865
								C28.8984,7.7811,26.8512,8.8612,27.8791,14.8572z" class="colorf1f1f1 svgShape"></path><path fill="#70aae5" d="M30.811,4.8639c0,0,0.2679-0.2538,0.7049-0.0846V5.893l0.0705,1.9531
								c0,0-0.7182,1.3177-2.4245,1.1767c0,0,0.1265-0.8731-0.367-1.1767S30.811,4.8639,30.811,4.8639z" class="colore5ae70 svgShape"></path><path fill="#ef5ad4" d="M29.5998,9.1759l-0.5206,0.1116c-2.4333,3.5584-1.2001,5.5698-1.2001,5.5698l1.2497-1.8011
								C29.874,9.205,29.5998,9.1759,29.5998,9.1759z" class="coloref5a5a svgShape"></path><path fill="#6822a2" d="M27.8791,14.8572c0,0-0.5987-5.1424,1.0193-7.0761c0,0-1.4207,0.5525-1.8548,1.322l0.7301,0.3946
								l-1.0655,0.5525C26.7081,10.0503,26.689,12.8817,27.8791,14.8572z" class="color686868 svgShape"></path><path fill="#a50b89" d="M29.4174,8.6149c0,0,0.9497,0.3457,0.6242,0.582c-0.3254,0.2363-0.9429,0.4721-1.2106-0.0503
							C28.8311,9.1466,28.9685,8.6115,29.4174,8.6149z" class="colorbc2b3b svgShape"></path><path fill="#d7d7d7" d="M28.8311,7.5097c0,0-0.1565,1.1478-0.1578,1.5014C28.6719,9.3647,28.4267,9.56,28.4267,9.56
							s0.3462-0.0148,0.5991-0.478c0.2529-0.4632,0.3917-0.4672,0.3917-0.4672S28.9115,8.0707,28.8311,7.5097z" class="colord7d7d7 svgShape"></path><path fill="#d7d7d7" d="M31.5505,6.8504c0,0,0.0124,0.3442,0.0302,0.4453c0.0593,0.3373-0.4533,1.6782-1.5082,2.2399
							c0,0-0.3989-0.8573-0.6551-0.9207C29.4174,8.6149,31.5028,7.5294,31.5505,6.8504z" class="colord7d7d7 svgShape"></path><path fill="#6822a2" d="M27.8791,14.8572c0,0,2.1743-2.9469,3.1087-3.3962l-0.4755-0.8374c0,0,0.9599,0.2508,1.3527,0.24
						c0,0,0.7327-1.7808,0.6609-2.4832l-0.0003-0.0021c-0.4111-0.454-0.9627-1.1836-0.9627-1.1836s-0.2293,0.9959-1.3366,2.5773
						C29.119,11.3532,27.8791,14.8572,27.8791,14.8572z" class="color686868 svgShape"></path><path fill="#81bffd" d="M27.3289,2.9565c0,0-0.5891,3.9369,0.5647,4.6257s2.6345,0.6358,3.3483-1.5322
						c0.7139-2.1681,0.3702-3.6487,0.3702-3.6487L27.3289,2.9565z" class="colorfdc281 svgShape"></path><path fill="#5046e4" d="M31.3147,1.1018c-0.3515-0.1882-1.2325,0.1599-1.5734,0.3664c-2.012,1.2187-3.7945-0.832-2.9687,1.0232
						c0.2406,0.5405,0.8064,0.8606,1.3979,0.8504c0.3835-0.0066,1.0932-0.2038,1.7794-0.3998c0,0-0.4955,0.37,0.039,0.9517
						c0.5344,0.5816,0.2986,1.3676,0.2986,1.3676h0.2986c0,0-0.1729-1.1508,0.4874-1.1476c0.4893,0.0024,0.4893,0.6788,0.2464,1.38
						c0,0-0.2317,0.7918,0.2054,0.6637c0,0,0.0064-0.8083,0.1298-1.069c0.1521-0.3216,0.7231-1.289,0.5031-2.0907
						C32.1583,2.9976,32.494,1.733,31.3147,1.1018z" class="color3d3d3d svgShape"></path><g fill="#010001" class="color000000 svgShape"><polygon fill="#5046e4" points="8.209 20.288 19.178 13.913 19.131 28.901 8.162 35.275" class="color3d3d3d svgShape"></polygon><polygon fill="#f4f6f8" points="7.078 19.133 7.038 34.632 8.162 35.275 8.203 19.133" class="color4f4d4d svgShape"></polygon><polygon fill="#9f2288" points="31.815 33.851 9.111 20.896 9.112 31.708 31.627 44.707" class="color9f3e22 svgShape"></polygon><polygon fill="#5046e4" points="31.884 30.811 45.402 28.483 45.355 41.096 31.837 48.952" class="color3d3d3d svgShape"></polygon><polygon fill="#f4f6f8" points="30.76 30.169 30.717 48.317 31.837 48.952 31.884 30.811" class="color4f4d4d svgShape"></polygon><g fill="#010001" class="color000000 svgShape"><polygon fill="#cc3ab1" points="2.483 20.89 19.162 11.197 47.517 27.568 30.838 37.261" class="colorcc673a svgShape"></polygon><polygon fill="#9f2288" points="30.838 37.261 47.517 27.568 47.515 28.342 30.837 38.035" class="color9f3e22 svgShape"></polygon><polygon fill="#b82b9e" points="30.838 37.26 2.483 20.89 2.485 21.664 30.84 38.034" class="colorb8512b svgShape"></polygon></g></g><g fill="#010001" class="color000000 svgShape"><g fill="#010001" class="color000000 svgShape"><path fill="#f4f6f8" d="M32.551,20.878l-4.8294,2.8836c-0.1839,0.1092-0.4868,0.1104-0.674,0.0023L15.2596,16.958
					c-0.0933-0.0539-0.1398-0.1244-0.1396-0.195l-0.0018,0.6423c-0.0002,0.0706,0.0463,0.1412,0.1396,0.195l11.7881,6.8059
					c0.1872,0.1081,0.4901,0.1069,0.674-0.0023l4.8294-2.8835c0.0881-0.053,0.1324-0.1214,0.1326-0.1899l0.0018-0.6424
					C32.6834,20.7566,32.6391,20.8251,32.551,20.878z" class="color4f4d4d svgShape"></path><path fill="#939293" d="M32.5438,20.4928c0.1841,0.1063,0.1861,0.2777,0.0072,0.3852l-4.8294,2.8835
						c-0.1839,0.1092-0.4868,0.1104-0.674,0.0023L15.2596,16.958c-0.1841-0.1063-0.1861-0.2777-0.0062-0.3858l4.8304-2.883
						c0.1829-0.1086,0.4858-0.1098,0.673-0.0017L32.5438,20.4928z" class="color929393 svgShape"></path></g><polygon fill="#757475" points="18.553 15.017 18.552 15.388 19.298 15.819 21.152 14.741 21.154 14.37 19.299 15.448" class="color747575 svgShape"></polygon><polygon fill="#d7d7d7" points="21.154 14.37 19.299 15.448 18.553 15.017 20.407 13.94" class="colord7d7d7 svgShape"></polygon><polygon fill="#d7d7d7" points="29.341 19.092 28.6 19.523 24.351 17.07 25.092 16.639" class="colord7d7d7 svgShape"></polygon><polygon fill="#757475" points="29.341 19.092 28.6 19.523 24.351 17.07 24.35 17.44 28.599 19.893 29.34 19.463" class="color747575 svgShape"></polygon><polygon fill="#d7d7d7" points="22.315 15.045 21.573 15.476 20.827 15.045 21.569 14.614" class="colord7d7d7 svgShape"></polygon><polygon fill="#d7d7d7" points="23.482 15.719 22.741 16.149 21.995 15.719 22.737 15.288" class="colord7d7d7 svgShape"></polygon><polygon fill="#d7d7d7" points="24.65 16.393 23.909 16.824 23.162 16.393 23.904 15.962" class="colord7d7d7 svgShape"></polygon><polygon fill="#d7d7d7" points="30.489 19.764 29.747 20.195 29.001 19.764 29.743 19.333" class="colord7d7d7 svgShape"></polygon><polygon fill="#d7d7d7" points="31.657 20.438 30.916 20.869 30.169 20.438 30.911 20.008" class="colord7d7d7 svgShape"></polygon><polygon fill="#d7d7d7" points="21.207 15.688 20.466 16.119 19.72 15.688 20.461 15.258" class="colord7d7d7 svgShape"></polygon><polygon fill="#d7d7d7" points="22.374 16.362 21.633 16.793 20.888 16.363 21.629 15.932" class="colord7d7d7 svgShape"></polygon><polygon fill="#d7d7d7" points="23.542 17.037 22.801 17.467 22.055 17.037 22.796 16.606" class="colord7d7d7 svgShape"></polygon><polygon fill="#d7d7d7" points="24.71 17.711 23.969 18.142 23.223 17.711 23.964 17.28" class="colord7d7d7 svgShape"></polygon><polygon fill="#d7d7d7" points="25.878 18.385 25.137 18.816 24.391 18.385 25.132 17.954" class="colord7d7d7 svgShape"></polygon><polygon fill="#d7d7d7" points="27.046 19.059 26.305 19.49 25.559 19.059 26.3 18.629" class="colord7d7d7 svgShape"></polygon><polygon fill="#d7d7d7" points="28.213 19.733 27.472 20.164 26.727 19.734 27.468 19.303" class="colord7d7d7 svgShape"></polygon><polygon fill="#d7d7d7" points="29.381 20.408 28.64 20.838 27.894 20.408 28.635 19.977" class="colord7d7d7 svgShape"></polygon><polygon fill="#d7d7d7" points="30.549 21.082 29.808 21.513 29.062 21.082 29.803 20.651" class="colord7d7d7 svgShape"></polygon><polygon fill="#d7d7d7" points="18.931 15.658 18.19 16.088 17.444 15.658 18.185 15.227" class="colord7d7d7 svgShape"></polygon><polygon fill="#d7d7d7" points="20.099 16.333 19.358 16.763 18.612 16.332 19.353 15.902" class="colord7d7d7 svgShape"></polygon><polygon fill="#d7d7d7" points="21.266 17.006 20.525 17.437 19.78 17.006 20.521 16.576" class="colord7d7d7 svgShape"></polygon><polygon fill="#d7d7d7" points="22.434 17.681 21.693 18.111 20.947 17.68 21.688 17.25" class="colord7d7d7 svgShape"></polygon><polygon fill="#d7d7d7" points="23.602 18.355 22.861 18.785 22.115 18.355 22.856 17.924" class="colord7d7d7 svgShape"></polygon><polygon fill="#d7d7d7" points="24.77 19.029 24.029 19.46 23.283 19.029 24.024 18.599" class="colord7d7d7 svgShape"></polygon><polygon fill="#d7d7d7" points="25.938 19.704 25.197 20.134 24.451 19.703 25.192 19.273" class="colord7d7d7 svgShape"></polygon><polygon fill="#d7d7d7" points="27.105 20.378 26.364 20.808 25.619 20.378 26.36 19.947" class="colord7d7d7 svgShape"></polygon><polygon fill="#d7d7d7" points="28.273 21.052 27.532 21.482 26.786 21.051 27.527 20.621" class="colord7d7d7 svgShape"></polygon><polygon fill="#d7d7d7" points="17.823 16.302 17.082 16.733 16.336 16.302 17.077 15.871" class="colord7d7d7 svgShape"></polygon><polygon fill="#d7d7d7" points="18.991 16.976 18.25 17.407 17.504 16.976 18.245 16.545" class="colord7d7d7 svgShape"></polygon><polygon fill="#d7d7d7" points="24.83 20.347 24.089 20.778 23.343 20.347 24.084 19.917" class="colord7d7d7 svgShape"></polygon><polygon fill="#d7d7d7" points="23.644 19.673 22.903 20.104 22.157 19.673 22.898 19.242" class="colord7d7d7 svgShape"></polygon><polygon fill="#d7d7d7" points="25.997 21.021 25.256 21.452 24.511 21.022 25.252 20.591" class="colord7d7d7 svgShape"></polygon><polygon fill="#d7d7d7" points="27.165 21.695 26.424 22.126 25.678 21.695 26.419 21.265" class="colord7d7d7 svgShape"></polygon><g fill="#010001" class="color000000 svgShape"><polygon fill="#757475" points="20.826 15.415 21.572 15.846 22.314 15.415 22.315 15.045 21.573 15.476 20.827 15.045" class="color747575 svgShape"></polygon><polygon fill="#757475" points="21.994 16.09 22.739 16.52 23.481 16.089 23.482 15.719 22.741 16.149 21.995 15.719" class="color747575 svgShape"></polygon><polygon fill="#757475" points="23.161 16.764 23.907 17.194 24.649 16.764 24.65 16.393 23.909 16.824 23.162 16.393" class="color747575 svgShape"></polygon><polygon fill="#757475" points="29 20.135 29.746 20.566 30.488 20.135 30.489 19.764 29.747 20.195 29.001 19.764" class="color747575 svgShape"></polygon><polygon fill="#757475" points="30.916 20.869 30.169 20.438 30.168 20.809 30.914 21.24 31.656 20.809 31.657 20.438" class="color747575 svgShape"></polygon><polygon fill="#757475" points="19.72 15.688 19.719 16.059 20.465 16.49 21.206 16.059 21.207 15.688 20.466 16.119" class="color747575 svgShape"></polygon><polygon fill="#757475" points="20.888 16.363 20.887 16.733 21.632 17.164 22.373 16.733 22.374 16.362 21.633 16.793" class="color747575 svgShape"></polygon><polygon fill="#757475" points="22.055 17.037 22.054 17.407 22.8 17.838 23.541 17.407 23.542 17.037 22.801 17.467" class="color747575 svgShape"></polygon><polygon fill="#757475" points="23.223 17.711 23.222 18.081 23.968 18.512 24.709 18.081 24.71 17.711 23.969 18.142" class="color747575 svgShape"></polygon><polygon fill="#757475" points="24.391 18.385 24.39 18.756 25.136 19.187 25.877 18.756 25.878 18.385 25.137 18.816" class="color747575 svgShape"></polygon><polygon fill="#757475" points="25.559 19.059 25.558 19.43 26.304 19.861 27.045 19.43 27.046 19.059 26.305 19.49" class="color747575 svgShape"></polygon><polygon fill="#757475" points="26.726 20.105 27.471 20.535 28.212 20.104 28.213 19.733 27.472 20.164 26.727 19.734" class="color747575 svgShape"></polygon><polygon fill="#757475" points="29.38 20.778 29.381 20.408 28.64 20.838 27.894 20.408 27.893 20.778 28.639 21.209" class="color747575 svgShape"></polygon><polygon fill="#757475" points="29.062 21.082 29.061 21.453 29.807 21.883 30.548 21.453 30.549 21.082 29.808 21.513" class="color747575 svgShape"></polygon><polygon fill="#757475" points="18.93 16.029 18.931 15.658 18.19 16.088 17.444 15.658 17.443 16.028 18.189 16.459" class="color747575 svgShape"></polygon><polygon fill="#757475" points="18.612 16.332 18.611 16.703 19.357 17.133 20.098 16.703 20.099 16.333 19.358 16.763" class="color747575 svgShape"></polygon><polygon fill="#757475" points="21.265 17.377 21.266 17.006 20.525 17.437 19.78 17.006 19.779 17.377 20.524 17.807" class="color747575 svgShape"></polygon><polygon fill="#757475" points="22.433 18.051 22.434 17.681 21.693 18.111 20.947 17.68 20.946 18.051 21.692 18.482" class="color747575 svgShape"></polygon><polygon fill="#757475" points="23.601 18.726 23.602 18.355 22.861 18.785 22.115 18.355 22.114 18.725 22.86 19.156" class="color747575 svgShape"></polygon><polygon fill="#757475" points="24.769 19.4 24.77 19.029 24.029 19.46 23.283 19.029 23.282 19.399 24.028 19.83" class="color747575 svgShape"></polygon><polygon fill="#757475" points="25.937 20.074 25.938 19.704 25.197 20.134 24.451 19.703 24.45 20.074 25.196 20.505" class="color747575 svgShape"></polygon><polygon fill="#757475" points="27.104 20.748 27.105 20.378 26.364 20.808 25.619 20.378 25.618 20.748 26.363 21.178" class="color747575 svgShape"></polygon><polygon fill="#757475" points="28.272 21.422 28.273 21.052 27.532 21.482 26.786 21.051 26.785 21.422 27.531 21.853" class="color747575 svgShape"></polygon><polygon fill="#757475" points="17.823 16.302 17.082 16.733 16.336 16.302 16.335 16.672 17.081 17.103 17.822 16.672" class="color747575 svgShape"></polygon><polygon fill="#757475" points="18.991 16.976 18.25 17.407 17.504 16.976 17.503 17.347 18.249 17.778 18.99 17.347" class="color747575 svgShape"></polygon><polygon fill="#757475" points="24.83 20.347 24.089 20.778 23.343 20.347 23.342 20.718 24.088 21.149 24.829 20.718" class="color747575 svgShape"></polygon><polygon fill="#757475" points="23.644 19.673 22.903 20.104 22.157 19.673 22.156 20.044 22.902 20.474 23.643 20.044" class="color747575 svgShape"></polygon><polygon fill="#d7d7d7" points="22.459 18.999 21.717 19.429 20.971 18.999 21.712 18.568" class="colord7d7d7 svgShape"></polygon><polygon fill="#757475" points="22.459 18.999 21.717 19.429 20.971 18.999 20.97 19.369 21.716 19.8 22.457 19.369" class="color747575 svgShape"></polygon><polygon fill="#d7d7d7" points="21.273 18.324 20.532 18.755 19.785 18.324 20.527 17.894" class="colord7d7d7 svgShape"></polygon><polygon fill="#757475" points="21.273 18.324 20.532 18.755 19.785 18.324 19.785 18.695 20.53 19.126 21.272 18.695" class="color747575 svgShape"></polygon><polygon fill="#d7d7d7" points="20.087 17.65 19.346 18.081 18.6 17.65 19.341 17.219" class="colord7d7d7 svgShape"></polygon><polygon fill="#757475" points="20.087 17.65 19.346 18.081 18.6 17.65 18.599 18.021 19.345 18.451 20.086 18.021" class="color747575 svgShape"></polygon><polygon fill="#757475" points="25.997 21.021 25.256 21.452 24.511 21.022 24.51 21.392 25.255 21.823 25.996 21.392" class="color747575 svgShape"></polygon><polygon fill="#757475" points="27.165 21.695 26.424 22.126 25.678 21.695 25.677 22.066 26.423 22.497 27.164 22.066" class="color747575 svgShape"></polygon><g fill="#010001" class="color000000 svgShape"><polygon fill="#d7d7d7" points="28.333 22.37 27.592 22.801 26.846 22.37 27.587 21.939" class="colord7d7d7 svgShape"></polygon></g><g fill="#010001" class="color000000 svgShape"><polygon fill="#d7d7d7" points="29.441 21.726 28.699 22.157 27.953 21.726 28.695 21.295" class="colord7d7d7 svgShape"></polygon></g><polygon fill="#757475" points="28.699 22.157 27.953 21.726 27.952 22.097 28.698 22.528 29.44 22.097 29.441 21.726" class="color747575 svgShape"></polygon><polygon fill="#757475" points="26.846 22.37 26.845 22.741 27.591 23.171 28.332 22.741 28.333 22.37 27.592 22.801" class="color747575 svgShape"></polygon></g></g><g fill="#010001" class="color000000 svgShape"><path fill="#afafb0" d="M17.8486,24.4358c-0.0434-0.0252-0.1034-0.0219-0.1693,0.0162l-2.5891,1.4949l2.3699,1.3773l2.5891-1.4949
			c0.0659-0.038,0.1259-0.0414,0.1693-0.0162L17.8486,24.4358z" class="colorb0afb0 svgShape"></path><path fill="#5046e4" d="M20.2882,25.9655c-0.0004-0.1505-0.1081-0.2118-0.2391-0.1362L17.46,27.3241V27.324l-0.475,0.8229
			l3.0657-1.77C20.1817,26.3013,20.2887,26.1184,20.2882,25.9655z" class="color3d3d3d svgShape"></path><g fill="#010001" class="color000000 svgShape"><path fill="#f4f6f8" d="M27.6835,7.4052c0,0-1.1822-0.4906-2.5473,1.8496c-1.3651,2.3402-2.2427,3.6402-6.1104,5.0053v2.4377
					l3.4452-1.711c0,0,2.9252-0.5308,3.8353-3.6677C27.2163,8.1822,27.6835,7.4052,27.6835,7.4052z" class="color4f4d4d svgShape"></path><path fill="#939293" d="M23.4547,16.8127l-11.0773-6.3955c-0.2152-0.1243-0.4103-0.1358-0.5512-0.0539l-0.8631,0.5016
					c0.1409-0.0819,0.336-0.0703,0.5512,0.0539l11.0773,6.3955c0.4289,0.2477,0.7749,0.847,0.7735,1.3398l-0.0255,8.9773
					c-0.0007,0.2444-0.0871,0.4167-0.2265,0.4977l0.8631-0.5016c0.1394-0.081,0.2258-0.2533,0.2265-0.4977l0.0255-8.9773
					C24.2296,17.6597,23.8836,17.0604,23.4547,16.8127z" class="color929393 svgShape"></path><path fill="#f4f6f8" d="M22.5916,17.3143c0.4289,0.2476,0.7749,0.847,0.7735,1.3398l-0.0254,8.9773
						c-0.0014,0.4917-0.3497,0.6913-0.7786,0.4437l-11.0773-6.3955c-0.4279-0.2471-0.7739-0.8475-0.7726-1.3393l0.0255-8.9773
						c0.0014-0.4929,0.3497-0.6913,0.7776-0.4443L22.5916,17.3143z" class="color4f4d4d svgShape"></path></g><path fill="#939293" d="M17.3777,20.5485c-0.0437-0.0235-0.1042-0.0202-0.1681,0.0168
				c-0.1345,0.0774-0.2388,0.2589-0.2388,0.4136l0.0135,7.169l-2.3706-1.3787l-0.0135-7.169c0-0.1547,0.1042-0.3363,0.2387-0.4102
				c0.0673-0.0403,0.1278-0.0437,0.1681-0.0168L17.3777,20.5485z" class="color929393 svgShape"></path><path fill="#5046e4" d="M17.4478,20.7022c-0.0004-0.153-0.1081-0.2119-0.2391-0.1363c-0.1331,0.0769-0.2379,0.2585-0.2375,0.4115
				l0.0138,7.1695h0.0001l0.475-0.8229L17.4478,20.7022z" class="color3d3d3d svgShape"></path></g><g fill="#010001" class="color000000 svgShape"><g fill="#010001" class="color000000 svgShape"><path fill="#6822a2" d="M29.0399,26.6929c0.6686,0.386,0.6721,1.0121,0.0079,1.3982c-0.6643,0.386-1.7452,0.386-2.4138,0
												c-0.6686-0.386-0.6718-1.0119-0.0075-1.398C27.2907,26.3071,28.3713,26.3069,29.0399,26.6929z" class="color686868 svgShape"></path><path fill="#e8e8e8" d="M29.249,26.5713c-0.7848-0.4531-2.0533-0.4529-2.833,0.0003
												c-0.7798,0.4531-0.776,1.1879,0.0088,1.641c0.7848,0.4531,2.0537,0.4531,2.8334,0
												C30.038,27.7594,30.0339,27.0245,29.249,26.5713z M29.0478,28.091c-0.6643,0.386-1.7452,0.386-2.4138,0
												c-0.6686-0.386-0.6718-1.0119-0.0075-1.398c0.6643-0.386,1.7449-0.3862,2.4135-0.0002
												C29.7085,27.0789,29.7121,27.705,29.0478,28.091z" class="colore8e8e8 svgShape"></path><path fill="#282828" d="M26.634,28.091c0.6686,0.386,1.7495,0.386,2.4138,0c0.1056-0.0613,0.1881-0.1302,0.2599-0.2017
												c-0.0737-0.0738-0.1586-0.1448-0.2678-0.2079c-0.6686-0.386-1.7492-0.3858-2.4135,0.0002
												c-0.1056,0.0614-0.1881,0.1302-0.26,0.2018C26.4401,27.9571,26.5249,28.028,26.634,28.091z" class="color282828 svgShape"></path></g><path fill="#a50b89" d="M26.7946,26.4894c-0.0935,0.1017-0.2791,0.1593-0.4145,0.1286c-0.0681-0.0154-0.1105-0.0503-0.124-0.094
					l1.0576,3.4238c0.0134,0.0438,0.0559,0.0786,0.124,0.094c0.1354,0.0307,0.321-0.0269,0.4145-0.1286
					c0.0465-0.0505,0.0615-0.1024,0.0482-0.1456l-1.0576-3.4238C26.8561,26.387,26.8411,26.4389,26.7946,26.4894z" class="colorbc2b3b svgShape"></path><path fill="#dd45c1" d="M26.4075,25.1531c-0.1047,0.1138-0.3124,0.1783-0.464,0.1439
					c-0.0762-0.0173-0.1237-0.0563-0.1388-0.1052l0.5896,1.9172c0.015,0.049,0.0625,0.088,0.1388,0.1052
					c0.1515,0.0343,0.3593-0.0301,0.464-0.1439c0.052-0.0565,0.0688-0.1146,0.0539-0.163l-0.5896-1.9172
					C26.4763,25.0384,26.4595,25.0965,26.4075,25.1531z" class="colordd454d svgShape"></path><path fill="#f17edc" d="M26.3227 24.8848c.1515.0343.1895.1545.0849.2683s-.3124.1783-.464.1439c-.1515-.0343-.1895-.1545-.0848-.2683S26.1711 24.8505 26.3227 24.8848zM26.5174 25.1703c.0166.0537-.015.1223-.015.1223l.3577-.111-.0333-.1073L26.5174 25.1703z" class="colorf17e82 svgShape"></path><path fill="#dd45c1" d="M26.8593,25.1814l0.4705,1.5167c0.0149,0.0479-0.0116,0.0981-0.0594,0.1129
						c-0.0479,0.0149-0.1-0.011-0.1148-0.0589l-0.401-1.2927l-0.1819,0.0564l-0.0695-0.2241L26.8593,25.1814z" class="colordd454d svgShape"></path><g fill="#010001" class="color000000 svgShape"><path fill="#419bf6" d="M29.5541,25.4747c-0.1489,0.0417-0.3595-0.0129-0.4703-0.1219
					c-0.0557-0.0548-0.0756-0.113-0.0626-0.1625l-1.011,3.8814c-0.013,0.0496,0.0069,0.1077,0.0626,0.1625
					c0.1108,0.109,0.3213,0.1635,0.4703,0.1219c0.074-0.0207,0.1188-0.0613,0.1317-0.1102l1.011-3.8814
					C29.6729,25.4134,29.6281,25.454,29.5541,25.4747z" class="colorf6d341 svgShape"></path><path fill="#e8e8e8" d="M29.6591,25.3935c-0.0228,0.0235-0.0548,0.0431-0.0983,0.0552
						c-0.1489,0.0417-0.3595-0.0129-0.4703-0.1219c-0.0327-0.0321-0.0516-0.0652-0.0602-0.0973
						c-0.0051-0.0133-0.0079-0.0264-0.0092-0.0393l-0.1191,0.4576c0.0035,0.04,0.0252,0.083,0.0671,0.1242
						c0.1134,0.1115,0.3289,0.1674,0.4814,0.1248c0.0547-0.0153,0.0932-0.0415,0.1157-0.0735l0.1195-0.4593
						C29.6786,25.3745,29.6699,25.3844,29.6591,25.3935z" class="colore8e8e8 svgShape"></path><path fill="#ffffff" d="M29.6225,25.2046c0.1108,0.109,0.0798,0.2311-0.0691,0.2728
						c-0.1489,0.0417-0.3595-0.0129-0.4703-0.1219c-0.1108-0.109-0.0798-0.2311,0.0691-0.2727
						C29.3012,25.0411,29.5117,25.0956,29.6225,25.2046z" class="colorffffff svgShape"></path></g><g fill="#010001" class="color000000 svgShape"><path fill="#7e43ae" d="M27.9677,24.8191l-0.3327,0.4572l-0.3435,3.9962c-0.0045,0.051,0.0249,0.105,0.089,0.1497
						c0.1275,0.0888,0.3443,0.1071,0.4841,0.041c0.0694-0.0329,0.1068-0.0804,0.1112-0.1308l0.3435-3.9962l-0.249-0.5082
						C28.0504,24.7873,27.9944,24.7824,27.9677,24.8191z" class="color73ae43 svgShape"></path><path fill="#b4d6f8" d="M28.0694,24.8284c-0.02-0.0406-0.076-0.0454-0.1026-0.0088l-0.331,0.4558
					c-0.0052,0.0616,0.0376,0.1245,0.1262,0.175c0.1313,0.0748,0.2968,0.0824,0.4349,0.021
					c0.0781-0.0347,0.1174-0.0817,0.122-0.1361L28.0694,24.8284z" class="colorf8d5b4 svgShape"></path><path fill="#f4f6f8" d="M28.1429,24.9834c0.0009-0.0004,0.0012-0.001,0.0012-0.001l-0.0746-0.1539
						c-0.02-0.0406-0.076-0.0454-0.1026-0.0088l-0.0989,0.1362c0.0067,0.0049,0.0098,0.0105,0.0178,0.0151
						C27.9633,25.0152,28.0612,25.0197,28.1429,24.9834z" class="color4f4d4d svgShape"></path></g><path fill="#6822a2" d="M29.2583,28.2126c-0.7797,0.4531-2.0486,0.4531-2.8334,0c-0.3948-0.228-0.592-0.5272-0.5912-0.826
			l-0.0283,3.6578c-0.0008,0.2988,0.1963,0.598,0.5911,0.826c0.7848,0.4531,2.0537,0.4531,2.8334,0
			c0.3874-0.2251,0.5813-0.5198,0.5821-0.8149l0.0283-3.6578C29.8395,27.6928,29.6456,27.9875,29.2583,28.2126z" class="color686868 svgShape"></path><g fill="#010001" class="color000000 svgShape"><path fill="#e8e8e8" d="M29.4851,27.6368c-0.0723,0.1661-0.2136,0.3242-0.4374,0.4542c-0.6643,0.386-1.7452,0.386-2.4138,0
				c-0.2252-0.13-0.3683-0.2881-0.4424-0.4542h-0.308c0.0794,0.2108,0.2576,0.4119,0.5413,0.5757
				c0.7848,0.4531,2.0537,0.4531,2.8334,0c0.2819-0.1638,0.4578-0.3649,0.5349-0.5757H29.4851z" class="colore8e8e8 svgShape"></path></g></g><path fill="#80befc" d="M29.7238,17.6448c-0.3902,0.196-0.7658,0.3901-0.9969,0.5344c-0.299,0.1867-0.6409,0.2927-0.9925,0.3173
		c-1.9568,0.1368-2.9942,1.3802-3.4997,1.9758c-0.0858,0.101-0.0788,0.2516,0.0149,0.3445
		c0.1057,0.1052,0.2754,0.0962,0.3734-0.0154c0.5229-0.599,1.1258-0.9424,1.1807-0.9729c-0.3721,0.2332-0.9135,1.1466-1.1552,1.577
		c-0.0231,0.0402-0.0334,0.0839-0.0325,0.127c0.0022,0.088,0.0516,0.1725,0.1367,0.2156c0.116,0.0598,0.262,0.0161,0.3284-0.097
		c0.2945-0.5022,1.0236-1.1935,1.362-1.5013c-0.2986,0.3202-0.7463,0.9434-0.9853,1.2846
		c-0.0872,0.1246-0.0416,0.2966,0.0947,0.3622c0.1144,0.0536,0.2519,0.0134,0.3145-0.0954
		c0.4038-0.7037,1.2135-1.4254,1.2384-1.4478l-0.7384,1.0324c-0.0606,0.0859-0.0346,0.2064,0.0574,0.2589
		c0.0857,0.049,0.1932,0.0192,0.2433-0.0655c0.088-0.1503,0.2314-0.3318,0.3827-0.507c0.2789-0.3219,0.5075-0.491,0.8919-0.6733
		c0.495-0.2341,0.5305-0.6469,0.7938-0.674c0.2932-0.0301,0.7435-0.1118,1.3424-0.2194L29.7238,17.6448z" class="colorfcc080 svgShape"></path><path fill="#f4f6f8" d="M27.4967,18.4639c0,0,1.0718,0.9295,0.607,1.859c0,0,3.1974-0.8551,3.625-2.0821
		s-1.1712-2.0449-1.1712-2.0449L27.4967,18.4639z" class="color4f4d4d svgShape"></path><g fill="#010001" class="color000000 svgShape"><g fill="#010001" class="color000000 svgShape"><path fill="#f4f6f8" d="M31.4701,27.8057l-0.0024,0.5108l-0.8658-0.4997c-0.1096-0.0638-0.165-0.1469-0.165-0.23l0.0024-0.512
						c0,0.0831,0.0542,0.1674,0.1638,0.23L31.4701,27.8057z" class="color4f4d4d svgShape"></path><path fill="#d860c2" d="M33.8905,29.2025l-0.0024,0.512l-0.283,0.1638c-0.0735,0.0421-0.1915,0.0421-0.2649,0l-0.4696-0.2709
						c-0.3336,0.1939-0.8766,0.1939-1.2114,0c-0.1686-0.0975-0.2529-0.2252-0.2529-0.3528l0.0012-0.4925l-0.2216-0.1276
						c-0.0373-0.0217-0.0554-0.0494-0.0554-0.0771l0.0024-0.512c0,0.0277,0.0181,0.0566,0.0554,0.0771l0.4696,0.2721l-0.0024,0.6864
						l-0.0939-0.0542c0.0289,0.0241,0.0626,0.047,0.0999,0.0686c0.3348,0.1939,0.8766,0.1939,1.2114,0l0.4696,0.2709
						c0.0722,0.0422,0.1915,0.0434,0.2649,0L33.8905,29.2025z" class="colord89c60 svgShape"></path><path fill="#ffffff" d="M41.2276,25.9422l-6.0777,3.532l-0.8727-0.5038c0.0363-0.0409,0.0248-0.0928-0.0344-0.1269
						l-2.1542-1.2437c-0.0598-0.0345-0.149-0.0408-0.2193-0.0195l-0.8726-0.5038l6.0777-3.532L41.2276,25.9422z" class="colorffffff svgShape"></path><path fill="#f4f6f8" d="M41.6228,26.1703l-6.0777,3.532c-0.2169,0.1261-0.5702,0.1265-0.7885,0.0004l-0.8665-0.5002
					l-0.0019,0.5116l0.8665,0.5002c0.2183,0.1261,0.5716,0.1256,0.7885-0.0004l6.0777-3.532
					c0.1078-0.0626,0.1617-0.1445,0.1619-0.2266l0.0019-0.5116C41.7845,26.0258,41.7306,26.1077,41.6228,26.1703z" class="color4f4d4d svgShape"></path><path fill="#d7d7d7" d="M41.6202,25.714c0.2183,0.1261,0.2195,0.3302,0.0026,0.4563l-6.0777,3.532
						c-0.2169,0.1261-0.5702,0.1265-0.7885,0.0004l-0.8665-0.5002l0.3536-0.2055c0.0138-0.008,0.025-0.0171,0.0335-0.0267
						l0.8727,0.5038l6.0777-3.532l-4.1531-2.3978l-6.0777,3.532l0.8726,0.5038c-0.0165,0.005-0.032,0.0115-0.0459,0.0195
						l-0.3536,0.2055l-0.8665-0.5002c-0.2183-0.1261-0.2187-0.3307-0.0018-0.4568l6.0777-3.532
						c0.2169-0.1261,0.5694-0.1261,0.7878,0L41.6202,25.714z" class="colord7d7d7 svgShape"></path></g><path fill="#95c7f9" d="M34.2429,28.8434c0.0591,0.0341,0.0706,0.086,0.0344,0.1269c-0.0085,0.0096-0.0197,0.0186-0.0335,0.0267
				l-0.3536,0.2055l-0.2826,0.1642c-0.0733,0.0426-0.1921,0.0422-0.2651,0l-0.4697-0.2712c-0.3338,0.194-0.8763,0.194-1.2115,0.0005
				c-0.336-0.194-0.337-0.5078-0.0032-0.7018l-0.4697-0.2712c-0.0738-0.0426-0.0742-0.111-0.0009-0.1536l0.2826-0.1642
				l0.3536-0.2055c0.0138-0.008,0.0293-0.0145,0.0459-0.0195c0.0703-0.0212,0.1595-0.015,0.2193,0.0195L34.2429,28.8434z" class="colorf9c895 svgShape"></path></g><polygon fill="#d7d7d7" points="35.998 28.429 35.717 28.591 32.68 26.838 32.961 26.676" class="colord7d7d7 svgShape"></polygon><polygon fill="#d7d7d7" points="36.895 27.923 36.614 28.085 33.577 26.332 33.858 26.17" class="colord7d7d7 svgShape"></polygon><polygon fill="#d7d7d7" points="37.792 27.417 37.511 27.579 34.474 25.826 34.755 25.664" class="colord7d7d7 svgShape"></polygon><polygon fill="#d7d7d7" points="38.689 26.911 38.408 27.073 35.37 25.32 35.652 25.158" class="colord7d7d7 svgShape"></polygon></svg>