<svg xmlns="http://www.w3.org/2000/svg" enable-background="new 0 0 67 67" viewBox="0 0 67 67" id="EventCalendar"><g fill="#010001" class="color000000 svgShape"><path fill="#f4f6f8" d="M9.7036943,65.2796402l-5.7432032-3.3375816
										c-0.5865417-0.3408661-0.9500003-1.0658684-0.95292-2.0957565l5.7431984,3.3375816
										C8.7536898,64.2137756,9.1171484,64.9387741,9.7036943,65.2796402z" class="colorc4c2c0 svgShape"></path><polygon fill="#d2d4d6" points="8.751 63.184 3.008 59.846 2.934 29.771 8.678 33.109" class="colord6d4d2 svgShape"></polygon><polygon fill="#f4f6f8" points="8.678 33.109 2.934 29.771 41.436 7.542 47.18 10.88" class="colorffffff svgShape"></polygon><path fill="#e6e7e9" d="M47.1795197,10.8796148l0.073185,30.0751648
										c0.0058746,2.0724678-1.4526138,4.5986748-3.2562218,5.6399918L12.0282669,65.0516281
										c-1.8057699,1.0425644-3.2716217,0.2047195-3.2774973-1.8677444L8.6775875,33.1087151L47.1795197,10.8796148z" class="colore9e8e6 svgShape"></path></g><g fill="#010001" class="color000000 svgShape"><path fill="#f25ad6" d="M40.4725685,1.7205938l5.7431946,3.3375859
										c-0.5940857-0.3452511-1.4167099-0.2967782-2.3243103,0.2272263l-5.7431984-3.3375826
										C39.0558548,1.4238193,39.878479,1.3753463,40.4725685,1.7205938z" class="colorf25a5a svgShape"></path><polygon fill="#cc48b4" points="8.678 33.109 2.934 29.771 2.924 26.045 8.667 29.382" class="colorcc4848 svgShape"></polygon><polygon fill="#dd4ac2" points="11.923 23.742 6.18 20.405 38.148 1.948 43.891 5.285" class="colordd4a4a svgShape"></polygon><polygon fill="#cc48b4" points="11.923 23.742 6.18 20.405 29.409 6.994 35.152 10.331" class="colorcc4848 svgShape"></polygon><polygon fill="#a50b89" points="11.923 23.742 6.18 20.405 20.669 12.039 26.413 15.377" class="colorc44141 svgShape"></polygon><path fill="#dd4ac2" d="M8.6670237,29.3822498l-5.7431993-3.3375816
										c-0.0058756-2.0724697,1.4504423-4.5974255,3.2562127-5.639986l5.7431989,3.3375816
										C10.117466,24.7848263,8.6611481,27.309782,8.6670237,29.3822498z" class="colordd4a4a svgShape"></path><path fill="#f25ad6" d="M43.8914528,5.2854061c1.8036079-1.0413146,3.2716293-0.2047257,3.277504,1.8677421
										l0.0105629,3.7264667L8.6775875,33.1087151l-0.0105639-3.7264652
										c-0.0058756-2.0724678,1.4504423-4.5974236,3.2562122-5.639986L43.8914528,5.2854061z" class="colorf25a5a svgShape"></path></g><polygon fill="#5046e4" points="18.182 30.671 18.2 37.042 12.664 40.238 12.646 33.867" class="color3f9ae0 svgShape"></polygon><polygon fill="#5046e4" points="26.527 25.853 26.545 32.223 21.01 35.419 20.992 29.049" class="color3f9ae0 svgShape"></polygon><polygon fill="#c5c5c5" points="34.873 21.035 34.891 27.405 29.347 30.606 29.329 24.236" class="colorc5c5c5 svgShape"></polygon><polygon fill="#c5c5c5" points="43.209 16.222 43.228 22.592 37.692 25.788 37.674 19.417" class="colorc5c5c5 svgShape"></polygon><polygon fill="#c5c5c5" points="18.21 40.632 18.228 47.002 12.693 50.198 12.675 43.828" class="colorc5c5c5 svgShape"></polygon><polygon fill="#c5c5c5" points="26.555 35.813 26.573 42.184 21.038 45.38 21.02 39.009" class="colorc5c5c5 svgShape"></polygon><polygon fill="#c5c5c5" points="34.901 30.995 34.919 37.366 29.375 40.566 29.357 34.196" class="colorc5c5c5 svgShape"></polygon><polygon fill="#c5c5c5" points="43.238 26.182 43.256 32.552 37.72 35.748 37.702 29.378" class="colorc5c5c5 svgShape"></polygon><polygon fill="#c5c5c5" points="18.238 50.592 18.256 56.962 12.721 60.158 12.703 53.788" class="colorc5c5c5 svgShape"></polygon><polygon fill="#c5c5c5" points="26.584 45.774 26.602 52.144 21.066 55.34 21.048 48.97" class="colorc5c5c5 svgShape"></polygon><polygon fill="#51a8ff" points="34.929 40.956 34.947 47.326 29.403 50.526 29.385 44.156" class="colorffd651 svgShape"></polygon><polygon fill="#51a8ff" points="43.266 36.142 43.284 42.512 37.749 45.708 37.731 39.338" class="colorffd651 svgShape"></polygon><g fill="#010001" class="color000000 svgShape"><path fill="#f25ad6" d="M11.5062313,47.5464592c-0.0063477-2.4199219,1.7026367-5.3779297,3.8100586-6.5942383
						c2.2034721-1.2735176,4.0724907-0.2096405,4.0795898,2.3271484c0.0068359,2.421875-1.7001953,5.3813477-3.8056641,6.5966797
						C13.3832321,51.1515045,11.5133333,50.0887451,11.5062313,47.5464592z M15.5662899,41.3848381L15.5662899,41.3848381
						c-1.9692383,1.1367188-3.5664063,3.9003906-3.5600586,6.1606445c0.0060701,2.1488457,1.4554472,2.9803276,3.3339844,1.8979492
						c1.9672852-1.1357422,3.5625-3.9003906,3.5556641-6.1630859
						C18.8898067,41.1351624,17.4397831,40.3034592,15.5662899,41.3848381z" class="colorf25a5a svgShape"></path></g><g fill="#010001" class="color000000 svgShape"><path fill="#211f21" d="M19.3775463,23.0406857c0.0033092,1.1733723-0.8208008,2.6012478-1.8410263,3.1906853
					c-0.7249641,0.4186649-1.3529587,0.3018799-1.6581192-0.2203522c-0.1256151-0.2137394-0.1961432-0.4946861-0.1972189-0.8362274
					c-0.0011292-0.2677326,0.0418539-0.5486774,0.1200743-0.8307266c0.2412777-0.8703823,0.82411-1.7440796,1.5259399-2.2343559
					c0.0649872-0.046278,0.1300011-0.0881462,0.1972198-0.1267033c0.5850372-0.3382397,1.1072407-0.3261223,1.4476929-0.03195
					C19.2244148,22.166996,19.3764706,22.540493,19.3775463,23.0406857z" class="color21201f svgShape"></path><g fill="#010001" class="color000000 svgShape"><path fill="#f4f6f8" d="M18.6451797,21.8600426l0.556776,0.3235645c0.307539,0.1787205,0.4984703,0.5582962,0.4999981,1.0971069
							c0.0030746,1.0848789-0.7623367,2.4106255-1.7064705,2.9557209l-0.556776-0.3235626
							c0.9441338-0.5450954,1.7095451-1.870842,1.7064705-2.9557209
							C19.1436501,22.4183407,18.9527187,22.038765,18.6451797,21.8600426z" class="colorffffff svgShape"></path><path fill="#f4f6f8" d="M16.7778263 26.354702l-.556776-.3235626c.3115253.1810379.742672.1559658 1.2176571-.1182671l.556776.3235626C17.5204983 26.5106678 17.0893517 26.5357399 16.7778263 26.354702zM18.9678135 21.305479l.556776.3235645c-.3943996-.2292023-.9402866-.1974583-1.5417442.1497936l-.556776-.3235645C18.0275269 21.1080208 18.5734138 21.0762787 18.9678135 21.305479z" class="colorffffff svgShape"></path><path fill="#f4f6f8" d="M16.4556198,26.909647l-0.556777-0.3235645c-0.3893089-0.2262402-0.6310225-0.70681-0.6329575-1.3892212
							c-0.0038929-1.3732128,0.9651289-3.0516224,2.1601839-3.7415886l0.556776,0.3235645
							c-1.195055,0.6899643-2.1640768,2.3683739-2.160183,3.7415867
							C15.8245964,26.2028351,16.0663109,26.6834049,16.4556198,26.909647z" class="colorffffff svgShape"></path><path fill="#e6e7e9" d="M17.9828453,21.7788372c1.1950626-0.68997,2.1707306-0.1343269,2.1746235,1.2388859
							c0.0038929,1.3735752-0.9654408,3.0521641-2.1605015,3.7421341c-1.195055,0.6899643-2.1704111,0.1341419-2.174305-1.2394333
							C15.8187685,24.1472111,16.7877903,22.4688015,17.9828453,21.7788372z M17.9954834,26.2364349
							c0.9441338-0.5450954,1.7095451-1.870842,1.7064705-2.9557209c-0.0030746-1.0845165-0.7734909-1.5239143-1.7176247-0.9788189
							c-0.9438133,0.5449104-1.7095394,1.8712006-1.7064648,2.9557171
							C16.280941,26.3424911,17.0516701,26.7813454,17.9954834,26.2364349" class="colore9e8e6 svgShape"></path></g><g fill="#010001" class="color000000 svgShape"><path fill="#e6e7e9" d="M17.1699848 24.4761524l-.8770199.5095978c.0005856-.0099449.0017567-.0193081.0029278-.029253.00877-.0754719.0210552-.1521206.0362682-.2287636C16.6404934 24.7055035 16.9225006 24.6200829 17.1699848 24.4761524zM10.0886889 14.8543377l1.1133585-.6470127c.8424511-.4895792 2.0084152-.4217882 3.2930965.3199234l-1.1133585.6470127C12.0971041 14.4325504 10.931139 14.3647594 10.0886889 14.8543377z" class="colore9e8e6 svgShape"></path><path fill="#cfd1d3" d="M17.7577915,25.4874687l-1.1133595,0.6470127
							c0.8315716-0.4832554,1.347887-1.5096207,1.3520184-2.9668674c0.0083179-2.933815-2.0618458-6.5194817-4.614665-7.9933529
							l1.1133585-0.6470127c2.5528202,1.4738712,4.6229839,5.0595379,4.614666,7.9933529
							C19.1056786,23.9778481,18.5893631,25.0042114,17.7577915,25.4874687z" class="colorcfd2d3 svgShape"></path><path fill="#f4f6f8" d="M16.7847462,18.8652802c0.7554073,1.385437,1.2156353,2.9165077,1.2117081,4.3023319
							c-0.0041351,1.4572487-0.5204506,2.483614-1.3520184,2.9668674l1.1133614-0.6470127
							c0.8315697-0.4832573,1.3478832-1.5096188,1.3520107-2.9668674c0.0039368-1.3858242-0.4562931-2.916893-1.2116985-4.3023319
							L16.7847462,18.8652802z" class="colorc4c2c0 svgShape"></path><path fill="#d2d4d6" d="M14.4951448,14.5272474l-1.1133623,0.6470127c1.346962,0.777667,2.5591688,2.1434622,3.4029636,3.69102
							l1.1133633-0.6470127C17.054306,16.6707134,15.8421068,15.3049145,14.4951448,14.5272474z" class="colord6d4d2 svgShape"></path></g><path fill="#e6e7e9" d="M10.6303005,17.6538353c0.0024576-0.8690891,0.2277012-1.5502872,0.6120529-2.0105619
					c-1.2828274,0.2301159-1.762435,1.5238867-1.7220716,2.8335371l1.1134329-0.6429062
					C10.631815,17.7736549,10.6301298,17.7134628,10.6303005,17.6538353z" class="colore9e8e6 svgShape"></path><path fill="#afb0b2" d="M17.9966888,23.1673508c-0.0046768,1.5024605-0.5534801,2.5473995-1.4310856,3.0107746
					c-0.1807785-0.2071171-0.2866802-0.5195427-0.2878513-0.9203186c0-0.0988731,0.0058498-0.1995068,0.0181408-0.3013096
					c0.480341-0.3925838,0.7916031-1.0490303,0.8571224-1.9254684c0.0087776-0.1105747,0.0128708-0.2252502,0.0134563-0.3428497
					c0.0070267-2.4075623-1.6920195-5.349884-3.7871599-6.5598087c-0.7693615-0.444067-1.4866581-0.5926771-2.0869408-0.4850225
					c0.1445103-0.1731815,0.3112535-0.3159389,0.4973097-0.4247618l-1.1133909,0.6470881
					c-0.8718882,0.5127745-1.1358232,1.5967093-1.1057844,2.6111689l-0.7482996,0.4317818
					c-0.0567579-0.3685932-0.0865898-0.7325077-0.0854254-1.0870609c0.0081921-2.9341288,2.0922117-4.1212358,4.6448746-2.6474438
					c2.3133698,1.3357162,4.2300606,4.4049931,4.563549,7.1518993
					C17.9797268,22.6109486,17.9972744,22.8917847,17.9966888,23.1673508z" class="colorb2b0af svgShape"></path><path fill="#afb0b2" d="M11.7899227,15.2188253l-1.1133614,0.6470127
					c-0.2132883,0.1239595,0.1803894-0.1444559,0.6158237-0.2225647
					C11.4369669,15.4701195,11.6033602,15.3272409,11.7899227,15.2188253z" class="colorb2b0af svgShape"></path><path fill="#211f21" d="M40.2843399,10.9229565c0.0033073,1.1733713-0.8208046,2.6012478-1.8410301,3.1906843
					c-0.7249641,0.4186649-1.3529587,0.3018799-1.6581192-0.2203512c-0.1256142-0.2137403-0.1961403-0.4946861-0.197216-0.8362274
					c-0.001133-0.2677326,0.041851-0.5486784,0.1200714-0.8307276c0.2412796-0.8703823,0.8241119-1.7440796,1.5259438-2.234355
					c0.0649834-0.046279,0.1299973-0.0881453,0.197216-0.1267042c0.5850372-0.3382397,1.1072426-0.3261223,1.4476929-0.031949
					C40.1312065,10.0492659,40.2832642,10.4227629,40.2843399,10.9229565z" class="color21201f svgShape"></path><g fill="#010001" class="color000000 svgShape"><path fill="#f4f6f8" d="M39.5519714,9.7423134l0.5567741,0.3235636c0.3075409,0.1787214,0.4984703,0.5582972,0.5,1.0971079
							c0.0030746,1.084878-0.7623367,2.4106245-1.7064705,2.9557209l-0.556778-0.3235626
							c0.9441338-0.5450964,1.7095451-1.8708429,1.7064705-2.9557219
							C40.0504417,10.3006105,39.8595085,9.9210348,39.5519714,9.7423134z" class="colorffffff svgShape"></path><path fill="#f4f6f8" d="M37.6846161 14.2369719l-.5567741-.3235626c.3115234.1810379.742672.1559658 1.2176552-.1182661l.556778.3235626C38.4272919 14.3929386 37.9961433 14.4180107 37.6846161 14.2369719zM39.8746033 9.1877499l.556778.3235636c-.3944016-.2292013-.9402847-.1974583-1.5417442.1497936l-.556778-.3235636C38.9343185 8.9902916 39.4802055 8.9585495 39.8746033 9.1877499z" class="colorffffff svgShape"></path><path fill="#f4f6f8" d="M37.3624115,14.7919168l-0.556778-0.3235636
							c-0.3893089-0.2262411-0.6310234-0.706811-0.6329575-1.3892212c-0.003891-1.3732138,0.9651299-3.0516233,2.160183-3.7415886
							l0.556778,0.3235636c-1.1950531,0.6899643-2.1640778,2.3683748-2.160183,3.7415876
							C36.7313881,14.0851049,36.9731026,14.5656748,37.3624115,14.7919168z" class="colorffffff svgShape"></path><path fill="#e6e7e9" d="M38.889637,9.6611071c1.1950607-0.6899691,2.1707306-0.1343269,2.1746216,1.2388859
							c0.0038948,1.3735752-0.9654388,3.052165-2.1604996,3.7421341c-1.1950569,0.6899652-2.1704102,0.1341429-2.174305-1.2394323
							C36.7255592,12.0294819,37.6945839,10.3510714,38.889637,9.6611071z M38.9022751,14.1187057
							c0.9441338-0.5450964,1.7095451-1.8708429,1.7064705-2.9557209c-0.0030746-1.0845165-0.7734909-1.5239153-1.7176247-0.9788189
							c-0.9438133,0.5449104-1.7095413,1.8712006-1.7064667,2.9557171
							C37.1877327,14.224762,37.9584618,14.6636162,38.9022751,14.1187057" class="colore9e8e6 svgShape"></path></g><g fill="#010001" class="color000000 svgShape"><g fill="#010001" class="color000000 svgShape"><path fill="#e6e7e9" d="M38.0767746 12.3584242l-.877018.5095968c.0005836-.0099449.0017548-.0193081.0029259-.029253.0087738-.0754728.0210571-.1521206.0362701-.2287645C37.5472832 12.5877743 37.8292923 12.5023527 38.0767746 12.3584242zM30.9954796 2.736608l1.1133575-.6470129c.842453-.4895791 2.0084152-.4217876 3.2930984.3199234L34.288578 3.0565319C33.0038948 2.3148208 31.8379307 2.2470295 30.9954796 2.736608z" class="colore9e8e6 svgShape"></path><path fill="#cfd1d3" d="M38.6645813,13.3697386l-1.1133575,0.6470146
							c0.8315697-0.4832573,1.3478851-1.5096216,1.3520164-2.9668684c0.0083199-2.933815-2.0618439-6.5194817-4.6146622-7.9933529
							l1.1133575-0.6470134c2.5528183,1.473871,4.622982,5.0595379,4.614666,7.9933529
							C40.0124702,11.8601189,39.4961548,12.8864822,38.6645813,13.3697386z" class="colorcfd2d3 svgShape"></path><path fill="#f4f6f8" d="M37.6915398,6.7475514c0.7554054,1.3854356,1.2156334,2.9165063,1.2117043,4.3023305
							c-0.0041351,1.4572487-0.5204506,2.483614-1.3520164,2.9668684l1.1133614-0.6470127
							c0.8315697-0.4832582,1.3478813-1.5096197,1.3520126-2.9668684c0.003933-1.3858242-0.456295-2.9168916-1.2117004-4.3023305
							L37.6915398,6.7475514z" class="colorc4c2c0 svgShape"></path><path fill="#d2d4d6" d="M35.4019356,2.4095173L34.2885742,3.05653c1.346962,0.777668,2.5591698,2.1434631,3.4029655,3.6910214
							l1.1133614-0.6470127C37.9610977,4.5529838,36.7488976,3.1871853,35.4019356,2.4095173z" class="colord6d4d2 svgShape"></path></g></g><g fill="#010001" class="color000000 svgShape"><path fill="#e6e7e9" d="M31.5370922,5.5361052c0.0024567-0.8690891,0.2276993-1.5502868,0.612051-2.0105617
					c-0.713026,0.1279044-1.2221775,0.6100786-1.4915714,1.2949321c-0.16576,0.4216552-0.2325382,0.906034-0.2338409,1.3626456
					c-0.0001659,0.0582676,0.0015278,0.1170998,0.0033417,0.1759601l1.1134338-0.6429057
					C31.5386066,5.6559258,31.5369205,5.5957332,31.5370922,5.5361052z" class="colore9e8e6 svgShape"></path><path fill="#afb0b2" d="M38.9034805,11.0496216c-0.0046768,1.5024605-0.5534821,2.5473986-1.4310875,3.0107737
					c-0.1807785-0.2071171-0.2866783-0.5195427-0.2878494-0.9203186c0-0.0988731,0.0058479-0.1995068,0.0181389-0.3013086
					c0.4803429-0.3925838,0.7916031-1.0490313,0.8571243-1.9254684c0.0087776-0.1105757,0.0128708-0.2252512,0.0134544-0.3428507
					c0.0070305-2.4075623-1.6920166-5.3498836-3.787159-6.5598083c-0.7693596-0.4440665-1.4866562-0.5926769-2.0869408-0.4850223
					c0.1445122-0.173182,0.3112526-0.3159394,0.4973106-0.4247615c-0.7775803,0.5474191-1.553421,0.6181512-1.9886551,1.7195225
					c-0.1651306,0.420938-0.2340279,0.9123235-0.2340279,1.3626275c0,0.058507,0.0017567,0.1170144,0.0035076,0.1761069
					l-0.7483006,0.4317822c-0.056757-0.3685937-0.0865898-0.7325091-0.0854244-1.0870619
					c0.0081921-2.9341292,2.0922108-4.1212358,4.6448727-2.6474433c2.3133698,1.3357167,4.2300644,4.4049935,4.563549,7.1518993
					C38.8865204,10.4932194,38.904068,10.7740555,38.9034805,11.0496216z" class="colorb2b0af svgShape"></path><path fill="#afb0b2" d="M32.6967125,3.1010959c-2.117569,1.1406548-0.8031635,0.4792717-0.4975357,0.4244475
					C32.3437576,3.3523898,32.5101509,3.209511,32.6967125,3.1010959z" class="colorb2b0af svgShape"></path></g></g><g fill="#010001" class="color000000 svgShape"><g fill="#010001" class="color000000 svgShape"><path fill="#72a4d6" d="M57.7660179,27.9459419l3.262928,1.9026318
								c-1.9026794-1.1057453-4.5378876-0.9494457-7.4470863,0.7301788l-3.2629433-1.9026108
								C53.2281113,26.9965153,55.8633194,26.8402157,57.7660179,27.9459419z" class="color81d672 svgShape"></path><path fill="#9a60cb" d="M46.2029419,55.3596878l-3.2629547-1.9025879
								c-1.8783951-1.0916367-3.0428734-3.4132576-3.0522308-6.7134705
								c-0.0188332-6.6431084,4.6499023-14.7296791,10.43116-18.0674877l3.2629433,1.9026108
								c-5.7812576,3.3378124-10.4499893,11.4243832-10.4311562,18.0674877
								C43.1600571,51.9464531,44.3245354,54.2680779,46.2029419,55.3596878z" class="color6dcb60 svgShape"></path><path fill="#72a4d6" d="M46.2090645,55.3634109l-3.2733078-1.9048882
								c-1.866436-1.0903358-3.0306511-3.4186478-3.0491486-6.7080383l3.2733078,1.904892
								C43.1599159,51.944767,44.3241272,54.2731895,46.2090645,55.3634109z" class="color81d672 svgShape"></path><path fill="#6822a2" d="M64.0761414,36.5682716c0.0184937,6.6340485-4.6383553,14.7280388-10.4224205,18.0543137
								c-5.7840652,3.344883-10.4777985,0.6653442-10.4962959-5.9688148
								c-0.0184975-6.6525459,4.6383514-14.7280426,10.4224167-18.072813S64.0576401,29.9156132,64.0761414,36.5682716z" class="color3db542 svgShape"></path></g><path fill="#f4f6f8" d="M58.600502,38.6405182l-5.3219223,9.2118111
					c-0.2929382,0.5207214-0.7161102,0.9601822-1.1392822,1.2043495c-0.4231682,0.2440681-0.8300514,0.292942-1.1392822,0.1139374
					l-2.3599243-1.3345757c-0.6184654-0.3581085-0.634655-1.5298729,0-2.6203804
					c0.3092346-0.5370102,0.716114-0.9438896,1.1229935-1.1880608c0.423172-0.2440681,0.8300514-0.2929382,1.1392822-0.1139374
					l1.2206421,0.6998215l4.1990242-7.2749634c0.3092346-0.5371094,0.716114-0.9602776,1.139286-1.1880569
					c0.4068794-0.2441673,0.8137589-0.2930412,1.139183-0.1302261
					C59.2189674,36.3945313,59.2189674,37.5663986,58.600502,38.6405182z" class="colorffffff svgShape"></path></g></svg>