<svg xmlns="http://www.w3.org/2000/svg" enable-background="new 0 0 50 50" viewBox="0 0 50 50" id="CloudCost"><g fill="#010001" class="color000000 svgShape"><path fill="#f4f6f8" d="M23.59081,4.97826c6.6586,3.8444,12.0826,12.9236,12.51411,20.6749
						c0.203,0.0992,0.406,0.1984,0.62459,0.3246c3.16141,1.8252,5.72141,6.2415,5.711,9.883
						c-0.0103,3.6328-2.5869,5.101-5.7483,3.2758l-25.7601-14.8726c-4.0201-2.321-7.2568-7.9542-7.2437-12.5554
						c0.013-4.6109,3.271-6.4764,7.2911-4.1554c0.2186,0.1262,0.4371,0.2704,0.6399,0.4236
						C13.29061,3.19126,18.01731,1.76046,23.59081,4.97826z" class="colord3dbea svgShape"></path><path fill="#e3e9f0" d="M13.59161 4.70216l1.08-.6196c-1.37.7797-2.43 2.1-3.05 3.8896-.21-.1499-.42-.2896-.64-.4199-2.01-1.1597-3.83-1.27-5.15-.52l3.85-2.2398C10.72161 4.19236 12.07161 4.14256 13.59161 4.70216zM46.3116 33.61226c0 1.7998-.64 3.0703-1.67 3.67l-3.87 2.25c1.02-.5997 1.66-1.8702 1.67-3.67.01-3.6401-2.55-8.06-5.71-9.8798-.22-.1299-.42-.23-.63-.3301-.43-7.75-5.85-16.8301-12.51-20.6699-3.48-2.0103-6.64-2.21-8.92-.9102l3.84-2.2197c2.28-1.3301 5.45-1.1504 8.95.8799 6.66 3.8398 12.08 12.9199 12.52 20.6699.2.1001.4.2002.62.3198C43.7616 25.55226 46.32161 29.97216 46.3116 33.61226z" class="colore3e7f0 svgShape"></path></g><path fill="#453751" d="M29.20381,25.28276l-0.0623,22.668c0,0.9455-0.6649,1.3092-1.4752,0.8517l-15.7181-9.0795
					c-0.8104-0.4677-1.4649-1.5999-1.4649-2.5348l0.0624-22.6787c0.0104-0.9349,0.6649-1.3194,1.4856-0.8522l15.7077,9.0699
					C28.5493,23.19436,29.2142,24.34736,29.20381,25.28276z" class="color373f51 svgShape"></path><polygon fill="#5046e4" points="12.449 15.606 12.435 20.396 27.721 29.222 27.735 24.431" class="color7bb1ff svgShape"></polygon><path fill="#6822a2" d="M31.4062,24.00446l-0.06229,22.6786c-0.01041,0.4576-0.16621,0.7898-0.43631,0.9354l-2.192,1.2778
					c0.2597-0.1456,0.4259-0.4783,0.4259-0.9455l0.0623-22.668c0.0104-0.9354-0.6545-2.0884-1.4648-2.5556l-15.7077-9.0699
					c-0.4156-0.2384-0.7792-0.2597-1.0493-0.1035l2.192-1.2778c0.2702-0.1455,0.6441-0.1247,1.0493,0.104l15.7078,9.0795
					C30.7413,21.92666,31.4062,23.06956,31.4062,24.00446z" class="color4c5671 svgShape"></path><path fill="#f4f6f8" d="M14.06611 32.73616l-1.7246-.9973c-.1038-.0624-.1974-.0731-.2597-.0315l-.4363.2598c.0623-.0416.1558-.031.2597.0208l1.7245.9972c.1974.1248.3637.4053.3637.6443v1.9844c0 .1141-.0416.1973-.1144.2389l.4468-.2597c.0623-.0416.1039-.1248.1039-.239l.0104-1.9844C14.44011 33.14146 14.27381 32.85026 14.06611 32.73616zM14.08681 25.38086l-1.7245-.9973c-.1039-.0523-.19739-.0624-.2597-.0208l-.44669.2491c.07269-.031.16619-.031.27009.0314l1.7245.9973c.19741.1141.3636.3946.3636.6336v1.9844c0 .1141-.0415.1973-.1143.2389l.4468-.2597c.06231-.0416.1039-.1248.1039-.239l.01041-1.9844C14.46091 25.78616 14.29461 25.50566 14.08681 25.38086zM14.05571 36.41376l-1.7246-.9978c-.1038-.0619-.1974-.0619-.2597-.0203l-.4363.2491c.0623-.0416.1559-.0309.2597.0309l1.7245.9872c.1974.1248.3637.4053.3637.6341v1.9839c0 .1141-.0416.1973-.1143.2389l.4467-.2491c.0623-.0416.1039-.1248.1039-.2389l.0104-1.9844C14.42971 36.81856 14.26351 36.52796 14.05571 36.41376zM14.07641 29.05846l-1.72449-.9973c-.10381-.0624-.19741-.0624-.25971-.0208l-.43629.2491c.06229-.0416.15579-.0309.25969.0315l1.7245.9866c.1974.1248.3637.4053.3637.6341v1.9945c0 .1141-.0416.1867-.1144.2283l.4468-.2491c.0623-.0416.1039-.1248.1039-.2389l.0104-1.9844C14.45051 29.46376 14.28421 29.17266 14.07641 29.05846z" class="colord3dbea svgShape"></path><path fill="#b4c5d7" d="M13.61531 36.66766c.20561.1187.3709.405.3702.6337l-.00559 1.9815c-.00071.2361-.167.331-.37271.2123l-1.7245-.9957c-.2056-.1187-.3643-.4012-.3636-.6373l.0056-1.9815c.0007-.2287.1604-.3274.366-.2087L13.61531 36.66766zM13.62571 32.98626c.2056.1187.3709.405.37021.6411l-.00561 1.982c-.0007.2361-.167.331-.3726.2122l-1.7246-.9956c-.2056-.1187-.36419-.4013-.3636-.6374l.0056-1.9819c.0007-.2361.1604-.3348.3661-.2161L13.62571 32.98626zM13.63611 29.31266c.2056.1187.3709.4051.3703.6338l-.0057 1.9889c-.0006.2287-.167.3236-.3726.2048l-1.7245-.9956c-.20569-.1187-.3643-.4013-.36369-.6299l.00569-1.989c.0006-.2286.1604-.3274.366-.2086L13.63611 29.31266zM13.64651 25.63916c.2057.1187.3709.3972.3703.6333l-.0056 1.9819c-.0007.2361-.1671.331-.3727.2123l-1.7245-.9957c-.2056-.1187-.3643-.4012-.3636-.6373l.0056-1.9819c.0007-.2361.1604-.327.366-.2083L13.64651 25.63916z" class="colorb4bed7 svgShape"></path><g fill="#010001" class="color000000 svgShape"><path fill="#91c7fe" d="M17.77481 25.60956v.623c0 .1247-.0415.1973-.1142.2389l-.4364.2496c.0624-.0315.1039-.1142.1039-.2288v-.6229c.0104-.2395-.1558-.5301-.3636-.6443l-1.7245-.9972c-.1039-.0523-.187-.0624-.2597-.0208l.4363-.2598c.0727-.0314.1662-.0314.2597.031l1.7349.9973C17.60861 25.09016 17.77481 25.37016 17.77481 25.60956zM14.46091 23.69776v.6234c0 .1248-.04161.1973-.10391.2389l-.4364.2491c.0624-.031.1039-.1142.1039-.2283v-.6234c0-.2389-.1662-.5194-.374-.6442l-1.7245-.9973c-.1039-.0518-.187-.0624-.2597-.0208l.4467-.2597c.0623-.0416.1558-.031.2597.0314l1.7245.9973C14.29461 23.17826 14.46091 23.46896 14.46091 23.69776z" class="colorfe91ab svgShape"></path></g><path fill="#a50b89" d="M13.65311 23.31446c.2057.1187.3709.4051.3702.6412l-.0017.6248c-.00069.2365-.167.3235-.37269.2048l-1.72451-.9957c-.2056-.1187-.3643-.3933-.3636-.6299l.0018-.6248c.0006-.2361.1604-.3348.366-.2161L13.65311 23.31446zM16.96951 25.22916c.199.1149.3643.4013.3637.6374l-.0018.6248c-.0007.2365-.167.3235-.366.2086l-1.7312-.9995c-.199-.1148-.36429-.3933-.3636-.6299l.0018-.6248c.0006-.2361.167-.331.366-.2161L16.96951 25.22916z" class="colored5d71 svgShape"></path><g fill="#010001" class="color000000 svgShape"><path fill="#f4f6f8" d="M17.7541 31.60346v1.9844c0 .1141-.0416.1973-.1143.2389l-.4363.2496c.0623-.0315.1039-.1147.1039-.2288l.0104-1.9946c0-.2288-.1663-.5093-.3637-.6234l-1.7349-.9973c-.0935-.0624-.187-.0624-.2597-.0309l.4467-.2496c.0624-.0416.1559-.0416.2493.0208l1.7349.9973C17.5878 31.08396 17.7541 31.37516 17.7541 31.60346zM17.74371 35.28106v1.9844c0 .1141-.0415.1973-.1143.2389l-.4363.2597c.0623-.0415.1039-.1247.1039-.2389l.0104-1.9844c0-.2389-.1663-.5296-.3637-.6442l-1.7349-.9973c-.0935-.0517-.187-.0619-.2597-.0203l.4467-.2597c.0624-.0314.1559-.0314.2493.031l1.735.9972C17.57751 34.76166 17.74371 35.04216 17.74371 35.28106zM20.6837 40.23646c.2077.1248.3636.4053.3636.6336l-.0104 1.9743c0 .1248-.04151.2074-.10391.249l-.4467.2496c.0728-.0314.1143-.1141.1143-.2389v-1.9844c0-.2283-.1559-.5093-.3636-.6234l-1.7246-.9973c-.1038-.0624-.1973-.0624-.2597-.031l.4363-.2495c.0728-.0416.1663-.0416.2701.0208L20.6837 40.23646zM20.71481 29.21416c.2078.1142.3637.3846.3637.6235l-.0104 1.9839c0 .1146-.0416.1978-.1039.2394l-.4467.2597c.0727-.0416.1142-.1248.1142-.2496v-1.9737c.0104-.2389-.15579-.5093-.3636-.6336l-1.7245-.9973c-.1039-.0629-.1974-.0629-.2597-.0213l.43629-.2597c.0624-.0416.1662-.0309.2701.0315L20.71481 29.21416zM24.37171 39.10426l-.0104 1.9844c0 .1142-.0415.1974-.1039.239l-.4363.2597c.0623-.0416.1039-.1248.1039-.2389l.0104-1.9844c0-.239-.1663-.5195-.3741-.6443l-1.7245-.9972c-.1038-.0518-.1973-.0624-.2597-.0208l.4363-.2598c.0624-.0309.1559-.0309.2598.0315l1.7245.9973C24.2054 38.58486 24.37171 38.87556 24.37171 39.10426zM24.36131 42.78196l-.01039 1.9839c0 .1146-.04151.1978-.10391.2394l-.4363.2491c.0624-.031.1039-.1142.1039-.2389l.0104-1.9738c0-.2288-.1663-.5194-.374-.6336l-1.7246-.9972c-.1038-.0624-.1973-.0731-.2701-.0315l.4467-.2496c.0624-.0411.1559-.0411.2598.0213l1.7245.9973C24.1951 42.26246 24.36131 42.55316 24.36131 42.78196zM24.3821 35.42666l-.0104 1.9945c0 .104-.0415.1872-.1039.2288l-.4363.2491c.0623-.031.1039-.1142.1039-.2283l.0103-1.9844c0-.2288-.1662-.5194-.374-.6336l-1.7245-.9972c-.1039-.0624-.19729-.0624-.2701-.0315l.4467-.2491c.0624-.0416.1559-.0416.2598.0208l1.7245.9973C24.21581 34.91786 24.3821 35.19786 24.3821 35.42666zM17.76451 27.92576v1.9844c0 .1147-.04159.1973-.1143.2389l-.43629.2597c.06229-.0415.1039-.1242.1039-.2389l.0103-1.9844c0-.2384-.16619-.5194-.3636-.6336l-1.7349-.9972c-.1039-.0624-.187-.0624-.25969-.031l.43629-.2495c.0728-.0416.1662-.031.25971.0208l1.73489 1.0079C17.59821 27.41696 17.76451 27.68736 17.76451 27.92576zM17.7333 38.95866v1.9845c0 .1141-.0415.1973-.1143.2389l-.4363.249c.0623-.0416.1039-.1141.1039-.2384l.0104-1.9844c0-.2288-.1663-.5093-.3637-.6234l-1.7349-.9973c-.0934-.0624-.187-.0624-.2597-.0309l.4467-.2496c.0624-.0416.1559-.0416.2493.0208l1.735.9973C17.56711 38.43926 17.7333 38.73046 17.7333 38.95866zM21.0577 37.19296l-.0104 1.9839c0 .1146-.0415.1978-.1039.2389l-.4467.2597c.0727-.0411.1143-.1243.1143-.2491v-1.9737c.0104-.2389-.1559-.5194-.3637-.6442l-1.7245-.9973c-.1038-.0523-.1973-.0624-.2597-.0208l.4363-.2597c.0728-.0315.1663-.0315.2701.0309l1.7246.9973C20.90181 36.67346 21.0577 36.95406 21.0577 37.19296zM20.7044 32.88176c.2078.1242.3637.4047.3637.6335l-.0104 1.9839c0 .1147-.0415.1979-.1039.2395l-.4363.249c.0623-.0309.1039-.1141.1039-.2288v-1.9945c.0103-.2283-.1559-.5088-.3637-.6229l-1.7245-.9978c-.1039-.0624-.19729-.0624-.2597-.031l.4363-.2495c.0728-.0416.1663-.031.27011.0208L20.7044 32.88176z" class="colorffffff svgShape"></path></g><g fill="#010001" class="color000000 svgShape"><path fill="#96b6d6" d="M27.68571 41.01566l-.02079 5.6621c0 .1141-.04151.1973-.10391.2389l-.4467.2495c.0728-.0314.1143-.1146.1143-.2394l.0104-5.6514c0-.2389-.1663-.5194-.3636-.6336l-1.72449-1.0074c-.104-.0522-.19741-.0629-.25981-.0213l.4363-.249c.0728-.0416.1559-.0416.2598.0207l1.7349.9973C27.51941 40.49626 27.68571 40.78736 27.68571 41.01566zM24.39251 31.74896l-.0104 1.9844c0 .1243-.0416.1974-.1039.239l-.43629.2597c.06229-.0416.10379-.1248.10379-.2389l.0104-1.9844c0-.239-.16619-.5195-.374-.6336l-1.7245-.9973c-.1039-.0624-.1973-.0624-.2701-.0314l.4467-.2491c.0624-.0416.1558-.0315.2598.0309l1.7245.9872C24.22621 31.24026 24.39251 31.52026 24.39251 31.74896zM27.69611 37.33796l-.0104 1.9845c0 .1141-.0416.1973-.1039.2389l-.4467.2495c.0727-.0314.1143-.1146.1143-.2287v-1.9844c0-.2283-.1663-.5195-.3636-.6336l-1.7245-.9973c-.104-.0624-.19739-.0624-.2598-.0314l.4363-.2491c.0624-.0416.1559-.0309.2598.0208l1.7349.9973C27.5298 36.81856 27.69611 37.10976 27.69611 37.33796zM27.7065 33.66086l-.0104 1.9839c0 .1248-.0416.208-.1039.2389l-.4467.2597c.0727-.0416.1142-.1247.1142-.2389v-1.9839c0-.2394-.1662-.5194-.3635-.6341l-1.7245-.9972c-.104-.0518-.1974-.0624-.25979-.0208l.43629-.2597c.0624-.0416.1558-.031.2598.0309l1.73491.9978C27.54021 33.15156 27.7065 33.43206 27.7065 33.66086z" class="color96d696 svgShape"></path></g><path fill="#a577cb" d="M23.58251 31.37566c.2057.1188.371.3973.3703.6334l-.0056 1.9819c-.0007.2361-.1671.331-.3727.2123l-1.7245-.9957c-.2056-.1187-.3709-.4051-.3703-.6412l.0057-1.9819c.0006-.2361.167-.3231.3726-.2044L23.58251 31.37566zM26.87811 40.63756c.199.1148.3643.4012.3636.6373l-.016 5.6555c-.0007.2361-.167.331-.366.2161l-1.7312-.9995c-.199-.1149-.3643-.4013-.36359-.6374l.016-5.6554c.00069-.2361.1671-.331.36609-.2161L26.87811 40.63756zM26.88861 36.96396c.1989.1149.3642.4013.3636.6299l-.0057 1.989c-.0006.2286-.167.3235-.366.2086l-1.7311-.9994c-.199-.1149-.3643-.4013-.3637-.63l.0057-1.9889c.0006-.2287.167-.3236.366-.2087L26.88861 36.96396z" class="color77cb77 svgShape"></path><g fill="#010001" class="color000000 svgShape"><path fill="#a577cb" d="M26.89901,33.29046c0.19891,0.1149,0.3643,0.3934,0.3636,0.6295l-0.0056,1.9819
						c-0.0007,0.2361-0.1671,0.331-0.366,0.2161l-1.7312-0.9995c-0.199-0.1149-0.3643-0.4012-0.3636-0.6374l0.0056-1.9819
						c0.0007-0.2361,0.167-0.3231,0.366-0.2082L26.89901,33.29046z" class="color77cb77 svgShape"></path></g><g fill="#010001" class="color000000 svgShape"><path fill="#94c9ff" d="M21.0785 27.52096v.6229c0 .1248-.04159.1979-.1039.2395l-.4363.2597c.0623-.0416.1038-.1248.1038-.2395v-.6229c0-.2389-.1558-.5194-.3636-.6442l-1.7245-.9871c-.1039-.0619-.1974-.0726-.2597-.031l.4363-.2597c.0624-.0309.1558-.0309.2597.031l1.7245.9972C20.92261 27.00156 21.0785 27.28206 21.0785 27.52096zM27.7065 31.34366v.6341c0 .1141-.04159.1867-.1039.2283l-.4363.2597c.0623-.0416.1038-.1248.1038-.2389v-.6234c0-.239-.16619-.5195-.3635-.6336l-1.7349-1.0079c-.0936-.0518-.1871-.0619-.2494-.0203l.4363-.2496c.0624-.0416.1558-.0416.2598.0208l1.72451.9973C27.54021 30.82426 27.7065 31.11546 27.7065 31.34366zM24.40281 29.43236l-.0103.6335c0 .1147-.0312.1872-.1039.2288l-.4363.2597c.0623-.0416.1038-.1248.1038-.2389v-.6234c0-.2389-.16619-.5194-.3636-.6442l-1.7245-.9973c-.1039-.0518-.1974-.0624-.27009-.0208l.43629-.2597c.0728-.031.1662-.031.2702.0314l1.72451.9973C24.2366 28.91286 24.40281 29.20406 24.40281 29.43236z" class="colorffdd94 svgShape"></path></g><g fill="#010001" class="color000000 svgShape"><path fill="#61affe" d="M20.2793,27.14006c0.2057,0.1187,0.3643,0.4013,0.36361,0.6374l-0.00171,0.6248
						c-0.0007,0.2365-0.1604,0.3274-0.366,0.2086l-1.7246-0.9956c-0.2056-0.1187-0.3709-0.3972-0.3702-0.6338l0.0017-0.6248
						c0.0007-0.2361,0.1671-0.331,0.3727-0.2122L20.2793,27.14006z" class="colorfebb61 svgShape"></path></g><g fill="#010001" class="color000000 svgShape"><path fill="#61affe" d="M23.58911,29.05096c0.2057,0.1188,0.3709,0.4051,0.3703,0.6412l-0.0018,0.6248
						c-0.00069,0.2365-0.167,0.3236-0.3726,0.2049l-1.7246-0.9957c-0.2056-0.1187-0.3709-0.3972-0.3702-0.6337l0.00171-0.6248
						c0.00069-0.2362,0.1671-0.331,0.37269-0.2123L23.58911,29.05096z" class="colorfebb61 svgShape"></path></g><g fill="#010001" class="color000000 svgShape"><path fill="#61affe" d="M26.90561,30.96576c0.1989,0.1149,0.3642,0.4012,0.3636,0.6373l-0.0018,0.6248
						c-0.0007,0.2366-0.167,0.3236-0.366,0.2087l-1.7312-0.9995c-0.199-0.1149-0.36429-0.3934-0.3636-0.6299l0.0018-0.6248
						c0.0006-0.2361,0.167-0.331,0.366-0.2161L26.90561,30.96576z" class="colorfebb61 svgShape"></path></g><g fill="#010001" class="color000000 svgShape"><path fill="#f4f6f8" d="M16.93171 38.58236c.199.1149.3643.4013.3636.6299l-.0056 1.9815c-.0007.2361-.167.331-.366.2161l-1.7312-.9995c-.199-.1149-.3643-.4012-.36359-.6373l.00559-1.9815c.0007-.2287.167-.3236.366-.2087L16.93171 38.58236zM16.94211 34.90096c.199.1149.3643.4013.3636.6374l-.0056 1.9819c-.0007.2361-.167.331-.366.2161l-1.73119-.9995c-.199-.1149-.36431-.4013-.36361-.6374l.00561-1.9819c.00069-.2361.16709-.331.366-.2161L16.94211 34.90096zM16.95251 31.22746c.199.1149.3643.4012.3637.6299l-.0057 1.9889c-.00059.2287-.167.3236-.366.2087l-1.7312-.9995c-.1989-.1149-.3642-.4013-.3636-.6299l.0057-1.989c.0006-.2286.167-.3235.366-.2086L16.95251 31.22746zM16.96291 27.55386c.199.1149.36439.3934.36369.6295l-.0056 1.9819c-.0007.2361-.16709.331-.36609.2161l-1.73111-.9995c-.199-.1148-.3643-.4012-.3636-.6373l.0056-1.9819c.0007-.2361.167-.3232.366-.2083L16.96291 27.55386zM20.2415 40.49326c.2056.1187.3643.4013.3636.6299l-.0056 1.9815c-.0007.2361-.1604.3348-.366.2161l-1.72459-.9956c-.20561-.1187-.3709-.4051-.3702-.6412l.0056-1.9815c.0007-.2287.167-.3236.3726-.2049L20.2415 40.49326zM20.25191 36.81186c.2056.1187.36429.4013.36359.6374l-.00559 1.9819c-.00071.2361-.16041.3348-.366.2161l-1.72461-.9957c-.2056-.1187-.3709-.4051-.3702-.6412l.0056-1.9819c.0007-.2361.1671-.331.3727-.2123L20.25191 36.81186zM20.26231 33.13836c.2057.1187.3643.4012.3637.6299l-.0057 1.9889c-.0006.2287-.16039.3274-.366.2087l-1.7245-.9957c-.2056-.1187-.3709-.4051-.3703-.6337l.0057-1.989c.0006-.2286.167-.3235.3726-.2048L20.26231 33.13836zM20.27271 29.46476c.2057.1187.3643.3934.3637.6295l-.0056 1.9819c-.0007.2362-.1604.3349-.3661.2161l-1.7245-.9956c-.2056-.1187-.3709-.4051-.3702-.6412l.0056-1.9819c.0006-.2361.167-.3231.3726-.2044L20.27271 29.46476zM23.55131 42.40416c.20561.1187.3709.4051.3702.6338l-.00559 1.9815c-.00071.2361-.167.331-.37261.2122l-1.7246-.9956c-.2056-.1187-.3709-.4051-.3702-.6412l.0056-1.9815c.0006-.2287.167-.3236.3726-.2048L23.55131 42.40416zM23.5617 38.72276c.2056.1187.3709.4051.37021.6412l-.00561 1.9819c-.0006.2361-.167.331-.3726.2123l-1.7246-.9957c-.2056-.1187-.3709-.405-.37019-.6412l.00559-1.9819c.0007-.2361.167-.331.3727-.2122L23.5617 38.72276zM23.57211 35.04926c.2056.1187.3709.4051.3703.6337l-.0057 1.989c-.0006.2286-.167.3235-.3726.2048l-1.7245-.9957c-.20569-.1187-.3709-.405-.3703-.6337l.00561-1.9889c.00069-.2287.1671-.3236.37269-.2049L23.57211 35.04926z" class="colord3dbea svgShape"></path></g><g fill="#010001" class="color000000 svgShape"><polygon fill="#6822a2" points="27.721 29.222 12.435 20.396 12.435 20.396 12.006 20.687 27.72 29.759" class="color4c5671 svgShape"></polygon><polygon fill="#3a273a" points="12.449 15.606 12.022 15.359 12.006 20.687 12.006 20.687 12.435 20.396" class="color272e3a svgShape"></polygon></g></svg>