<svg xmlns="http://www.w3.org/2000/svg" viewBox="0 0 130 130" id="LogisticsDeliveryTruck"><path fill="#f4f6f8" d="M49.112 74.832c0 2.011-.724 3.432-1.877 4.103l-7.562 4.397c1.153-.67 1.877-2.091 1.877-4.13.027-4.048-2.842-9.01-6.382-11.047-1.77-1.019-3.405-1.126-4.558-.456l7.561-4.37c1.153-.698 2.762-.59 4.559.428 3.54 2.038 6.382 7 6.382 11.075zm49.083 27.896c0 2.011-.724 3.433-1.878 4.103l-7.561 4.398c1.153-.67 1.877-2.092 1.877-4.13.027-4.049-2.843-9.01-6.382-11.048-1.77-1.019-3.406-1.126-4.559-.455l7.562-4.371c1.153-.698 2.762-.59 4.559.429 3.54 2.038 6.382 6.998 6.382 11.074z" class="color363a44 svgShape"></path><path fill="#c32ea8" d="m68.9 64.937 31.662-18.4-.087 30.596-31.662 18.4z" class="colorc3a12e svgShape"></path><path fill="#6822a2" d="m96.382 105.104 31.662-18.4.956.552-31.662 18.4z" class="color5b5e71 svgShape"></path><path fill="#5d5266" d="M97.338 105.656 129 87.256l-.826 4.273-31.662 18.4z" class="color525566 svgShape"></path><path fill="#cad3dd" d="m68.93 53.42-.024 11.522-.024 8.894v.578l-.024 5.809v1.205l-.024 2.676-.024 11.425-29.479-17.017-13.353-7.713L13.3 63.496l.12-42.133z" class="colorcad0dd svgShape"></path><path fill="#bac4ce" d="m68.932 53.42 31.662-18.4-.032 11.517-31.662 18.4z" class="colorbac1ce svgShape"></path><path fill="#f4f6f8" d="M100.606 35.015 68.934 53.409 13.429 21.363 45.075 2.97z" class="colore4e8f4 svgShape"></path><path fill="#bac4ce" d="M17.151 21.358 45.079 5.125 96.882 35.02l-27.95 16.233z" class="colorbac1ce svgShape"></path><path fill="#f960dd" d="m80.213 71.469 31.662-18.4 8.012 16.968-31.662 18.4z" class="colorf9607f svgShape"></path><path fill="#f348d4" d="m118.27 69.534-6.944-14.703-.774.45 6.639 14.059 1.079.194zM117.191 69.34 88.47 86.031l.304.644 29.496-17.141z" class="colorf34858 svgShape"></path><path fill="#5046e4" d="m117.185 69.329-10.87 6.339-2.772 1.591-3.712 2.169-9.762 5.664-1.591.94-6.652-14.052 11.666-6.773 9.737-5.664 3.712-2.17 2.772-1.615.844-.482z" class="color576cfb svgShape"></path><path fill="#f960dd" d="m68.9 64.937 31.662-18.4 11.313 6.532-31.662 18.4zM128.067 77.839 96.405 96.255l-8.156-7.809 31.636-18.416z" class="colorf9607f svgShape"></path><path fill="#f348d4" d="m97.32 105.679-.819 4.29-2.29-1.181-.072-.048-.579-.289-.554-.289-12.799-6.653-.772-.41-1.277-.675-2.724-1.422-6.628-3.446.024-11.425.024-2.676V80.25l.048-15.282L80.207 71.5l8.026 16.969 7.882 7.496.289.289v3.785l-.024 5.086z" class="colorf34858 svgShape"></path><path fill="#a50b89" d="M93.058 107.123c0 .361-.024.699-.048 1.012l-12.8-6.652-.77-.41-1.278-.675-2.724-1.422c.265-3.688 2.652-6.219 5.93-6.219 1.325 0 2.7.41 4.097 1.205 4.267 2.459 7.593 8.244 7.593 13.16z" class="colore63044 svgShape"></path><path fill="#5d5266" d="M84.254 96.055c3.526 2.036 6.393 7.002 6.382 11.054-.012 4.073-2.897 5.717-6.424 3.68-3.544-2.045-6.41-7.01-6.4-11.083.012-4.053 2.898-5.697 6.442-3.65z" class="color525566 svgShape"></path><path fill="#cad3dd" d="M84.225 97.903c2.743 1.584 4.95 5.395 4.941 8.524-.001 3.174-2.215 4.435-4.973 2.834-2.728-1.575-4.92-5.397-4.911-8.54.009-3.118 2.223-4.38 4.943-2.818zm-.92.516c-1.253-.338-2.142-.045-2.772.913.737.623 1.43 1.22 2.138 1.792a.807.807 0 0 0 .1.07c.249.143.41.008.438-.326.016-.308.017-.633.025-.946.024-.484.048-.976.072-1.503m1.938 3.53c.023.464.173.772.486.953.074.042.158.078.25.107.194.07.388.13.575.186.447.138.895.268 1.372.406-.614-1.667-1.507-2.998-2.736-4.076l-.037.056c.035.792.063 1.58.09 2.368m1.967 6.644c.726-.49 1.094-1.307 1.143-2.54-.635-.092-1.232-.214-1.807-.263-.246-.022-.344.196-.195.59.274.725.563 1.45.86 2.213m-5.258-4.743c.142-.244.046-.6-.26-.93-.505-.55-1.019-1.086-1.585-1.688.02 1.221.33 2.412 1.013 3.708.18-.222.337-.423.494-.624.113-.158.24-.29.338-.466m2.274 4.496c.478.276.952.45 1.437.53-.386-.747-.735-1.463-1.136-2.15a1.205 1.205 0 0 0-.388-.363c-.07-.041-.13-.062-.163-.049-.464.196-.883.486-1.347.759.549.55 1.075.971 1.597 1.273m-.008-5.984c-.574-.332-1.06-.046-1.062.613-.002.669.474 1.5 1.055 1.836l.014.008c.575.333 1.054.072 1.063-.587.017-.663-.481-1.53-1.057-1.863a1.277 1.277 0 0 0-.013-.007m.011-1.195c-.164-.086-.299-.01-.3.17 0 .189.134.42.298.515s.291.022.3-.162a.673.673 0 0 0-.298-.523m-.81 3.78a.663.663 0 0 0-.297-.515c-.164-.095-.298-.018-.299.161 0 .189.133.42.297.515.157.09.291.022.3-.162m2.606-.39c.164.094.299.026.3-.163a.636.636 0 0 0-.298-.514c-.156-.09-.29-.014-.291.166-.001.188.133.42.29.51m-3.676-2.121c.164.094.291.022.3-.162a.65.65 0 0 0-.298-.515c-.156-.09-.29-.014-.291.166 0 .189.125.416.29.51m3.08 3.675a.65.65 0 0 0-.297-.514c-.157-.09-.291-.014-.292.166 0 .188.126.415.29.51.164.095.291.022.3-.162" class="colorcad0dd svgShape"></path><path fill="#f960dd" d="M87.056 88.611 70.714 78.199l-.193-10.871-.602-.362.192 11.425 17.355 11.064z" class="colorf9607f svgShape"></path><path fill="#5046e4" d="m87.056 88.611-10.75-6.845-.844-.53-1.133-.723-2.964-1.905-.651-.409-.193-10.871 5.496 3.157 3.037 1.76.193.096.602 1.23.506 1.084z" class="color576cfb svgShape"></path><path fill="#fa51db" d="m96.407 96.242 31.662-18.4-.025 8.862-31.662 18.4z" class="colorfa5168 svgShape"></path><path fill="#483f4f" d="M96.382 105.104v4.758l.13.067.826-4.273z" class="color3f434f svgShape"></path><path fill="#7abcfe" d="M102.892 94.126c.217 1.295.816 2.125 1.713 2.62l-4.44 2.564c-.242.139-.44.09-.441-.138l-.008-2.804c-.001-.228.197-.522.438-.661l2.738-1.581z" class="colorfed57a svgShape"></path><path fill="#724c91" d="m119.358 87.64.001.392-14.258 8.231-.001-.391zM119.71 86.702l.002.391-14.982 8.65-.001-.391zM120.43 84.833l.001.392-16.414 9.476-.001-.391z" class="color4c7891 svgShape"></path><path fill="#7abcfe" d="M124.272 81.782c.256-.147.44-.074.441.154l.008 2.804c0 .228-.183.498-.439.645l-4.44 2.564c.89-1.527 1.483-3.045 1.706-4.594l2.724-1.573z" class="colorfed57a svgShape"></path><path fill="#f4f6f8" d="M124.407 86.016c.256-.148.455-.083.456.145l.002.864c0 .228-.197.538-.453.686l-3.433 1.982c-.255.147-.455.067-.455-.162l-.003-.864c0-.228.198-.522.453-.67l3.433-1.981z" class="colore4e8f4 svgShape"></path><path fill="#fa51db" d="M127.024 80.193c.242-.139.44-.074.441.154l.008 2.804c0 .228-.197.506-.438.645l-1.547.893c-.241.14-.44.09-.44-.137l-.009-2.804c0-.229.198-.523.439-.662l1.546-.893z" class="colorfa5168 svgShape"></path><path fill="#f4f6f8" d="M103.994 97.69c.255-.148.469-.091.47.137l.002.864c0 .228-.212.547-.467.694l-3.433 1.982c-.256.148-.455.067-.456-.161l-.002-.864c0-.229.197-.523.453-.67l3.433-1.982z" class="colore4e8f4 svgShape"></path><path fill="#4aa1f9" d="M125.23 90.898c.212-.122.377-.069.377.12l.002.715c.001.189-.163.446-.374.568l-2.841 1.64c-.212.122-.376.055-.377-.134l-.002-.715c0-.189.163-.432.375-.554l2.84-1.64zM103.7 103.18c.21-.122.387-.076.388.113l.002.715c0 .19-.175.453-.387.723l-2.84 1.64c-.212-.026-.377-.093-.377-.282l-.002-.715c0-.189.163-.432.374-.554l2.842-1.64z" class="colorf9bb4a svgShape"></path><path fill="#fa51db" d="M98.963 96.395c.227-.131.44-.075.44.153l.009 2.804c0 .229-.212.514-.44.646l-1.546.892c-.255.148-.44.091-.44-.137l-.008-2.804c-.001-.228.183-.514.438-.661l1.547-.893z" class="colorfa5168 svgShape"></path><path fill="#724c91" d="m120.063 85.78.001.391-15.676 9.051-.002-.391zM120.768 83.92l.001.391-17.123 9.886-.001-.391zM18.654 61.55l-.085 2.359-4.094-2.364.085-2.359z" class="color4c7891 svgShape"></path><path fill="#d4dee8" d="M116.655 95.143v2.387l-7.809 4.531v-2.41z" class="colord4dae8 svgShape"></path><path fill="#7d74fd" d="m103.229 59.543-3.398 19.885-9.762 5.664 3.423-19.885zM109.713 55.758l-3.398 19.91-2.772 1.591 3.398-19.886zM79.054 72.245l-4.725 8.268-2.964-1.905 4.652-8.123zM80.355 74.655l-4.049 7.111-.844-.53 4.387-7.665z" class="color748bfd svgShape"></path><path fill="#bac4ce" d="m27.569 71.715 1.518.795 1.278.675.771.41c.723.506 1.47.988 2.194 1.446 3.47 2.29 6.966 4.339 10.533 6.098.024-.313.12-1.542.12-1.904 0-4.917-3.326-10.702-7.592-13.16-1.398-.796-2.772-1.206-4.098-1.206-3.254 0-5.64 2.507-5.93 6.147l1.206.699z" class="colorbac1ce svgShape"></path><path fill="#5d5266" d="M41.549 79.21c0 4.074-2.892 5.714-6.412 3.689-3.543-2.049-6.411-7.014-6.411-11.088.024-4.05 2.892-5.688 6.435-3.663 3.544 2.048 6.412 7.014 6.388 11.063z" class="color525566 svgShape"></path><path fill="#cad3dd" d="M35.143 70.007c2.743 1.584 4.95 5.394 4.94 8.524 0 3.173-2.215 4.435-4.973 2.834-2.728-1.575-4.92-5.397-4.91-8.541.008-3.118 2.222-4.38 4.943-2.817zm-.92.516c-1.254-.338-2.143-.045-2.773.913.738.623 1.43 1.22 2.138 1.792a.806.806 0 0 0 .1.07c.25.143.41.008.438-.326.016-.308.017-.634.025-.946.024-.484.048-.977.072-1.503m1.939 3.53c.022.464.173.772.486.952.074.043.157.079.25.108.194.069.388.13.574.186.448.138.895.268 1.373.406-.615-1.668-1.507-2.998-2.736-4.076l-.038.055c.035.793.063 1.58.09 2.369m1.968 6.644c.725-.49 1.094-1.308 1.142-2.541-.635-.092-1.231-.213-1.806-.262-.247-.022-.344.196-.196.59.274.725.563 1.45.86 2.213m-5.258-4.743c.142-.244.046-.6-.259-.93-.506-.55-1.02-1.087-1.585-1.688.019 1.22.329 2.412 1.012 3.707.18-.222.337-.423.495-.623.112-.159.24-.291.337-.466m2.274 4.495c.478.276.953.451 1.437.53-.386-.746-.735-1.462-1.136-2.149a1.205 1.205 0 0 0-.387-.364c-.07-.04-.131-.061-.164-.048-.464.195-.883.485-1.346.758.548.55 1.074.972 1.596 1.273m-.008-5.984c-.574-.331-1.06-.045-1.062.614-.001.668.474 1.5 1.055 1.836l.014.008c.575.332 1.054.071 1.063-.587.017-.664-.48-1.53-1.057-1.863l-.013-.008m.011-1.195c-.164-.086-.298-.009-.299.171 0 .188.133.42.297.515s.291.022.3-.162a.673.673 0 0 0-.298-.524m-.81 3.78a.663.663 0 0 0-.297-.515c-.164-.095-.298-.018-.299.162 0 .189.134.42.298.515.156.09.29.022.299-.162m2.607-.391c.164.095.298.026.299-.162a.636.636 0 0 0-.297-.515c-.157-.09-.292-.013-.292.166 0 .189.133.42.29.511m-3.675-2.122c.164.095.29.022.299-.162a.65.65 0 0 0-.297-.514c-.157-.09-.292-.014-.292.166 0 .188.126.416.29.51m3.08 3.675a.65.65 0 0 0-.297-.515c-.156-.09-.291-.013-.292.166 0 .189.126.416.29.51.164.096.291.023.3-.161" class="colorcad0dd svgShape"></path><path fill="#a4afba" d="m62.53 62.363-.072 29.503-.507-.289.073-29.504c0-.82-.579-1.831-1.302-2.241l-9.617-5.544c-.723-.41-1.278-.096-1.302.747l-.072 29.488-.506-.289.072-29.512c0-1.157.82-1.615 1.808-1.037l9.617 5.544c.989.579 1.808 1.977 1.808 3.134z" class="colora4adba svgShape"></path><path fill="#a4afba" d="m49.238 70.124.506.289v2.483l-.024 11.618-.506-.29.024-11.642zM62.471 77.741v2.627l-.024 11.497-.507-.289.024-11.497v-2.628z" class="colora4adba svgShape"></path><path fill="#f4f6f8" d="M51.545 64.585c-.341-.183-.603-.628-.603-1.021l.026-7.282v-.078c-.183 0-.34.157-.34.419l-.026 7.307c0 .393.288.812.602 1.022l9.298 5.37c.315.183.55.052.603-.262a.505.505 0 0 1-.262-.08l-9.298-5.395z" class="colore4e8f4 svgShape"></path><path fill="#5046e4" d="m60.555 61.652-9.325-5.37a.505.505 0 0 0-.262-.078v.078l-.026 7.282c0 .393.262.838.603 1.021l9.298 5.396a.505.505 0 0 0 .262.079v-.08l.026-7.28c0-.393-.262-.839-.576-1.048z" class="color576cfb svgShape"></path><path fill="#5d5266" d="m73.755 81.533-.002.867-3.54-2.044.002-.866zM53.026 70.81l-.003.867-2.201-1.271.003-.866z" class="color525566 svgShape"></path><path fill="#ef41cf" d="m35.011 85.453-.055 18.936-16.93 9.954.055-18.936 7.287-4.298 2.191-1.275z" class="colorefac41 svgShape"></path><path fill="#4aa1f9" d="m18.103 95.418-.069 18.912L1 104.37l.056-18.895v-.029h.028l7.39 4.335 1.679.991.504.283z" class="colorf9bb4a svgShape"></path><path fill="#7abcfe" d="m35.022 85.471-16.929 9.953-7.441-4.36-2.155-1.233-.043-.022-7.398-4.338 16.928-9.954z" class="colorfed57a svgShape"></path><path fill="#f4f6f8" d="m27.587 81.111-16.929 9.953-2.154-1.233-.044-.022 16.973-9.953.021.022z" class="colore4e8f4 svgShape"></path><path fill="#d4dee8" d="m8.446 94.316 2.191 1.303.028-4.51v-.055l-.493-.277-1.699-.971v.028z" class="colord4dae8 svgShape"></path><path fill="#483f4f" d="m20.431 107.681.51.982-.316.185-.697.404z" class="color3f434f svgShape"></path><path fill="#483f4f" d="m20.625 108.848.006 1.944-.381.223-.006-1.944zM22.52 109.862l.001.416-2.633 1.538-.001-.416zM27.33 103.766l.005 1.385c0 .437-.249.945-.58 1.203l.003 1.248c.233-.109.408-.098.408.032l-1.026.6c0-.13.174-.345.407-.508l-.004-1.249c-.151.061-.282.047-.385-.018-.12-.091-.2-.261-.2-.504l-.004-1.385 1.377-.804zM22.151 107.957l.005 1.944-.381.222-.006-1.943zM21.959 106.788l.508.984-.316.185-.695.403z" class="color3f434f svgShape"></path><path fill="#483f4f" d="M24.533 109.566c-.072-.04-.114-.122-.114-.225l-.01-4.16a.633.633 0 0 1 .282-.497l3.57-2.086c.087-.05.174-.056.245-.016.07.04.11.124.11.229l.013 4.159a.634.634 0 0 1-.277.494l-3.57 2.086a.295.295 0 0 1-.147.043.193.193 0 0 1-.102-.027zm3.805-6.836-3.57 2.086a.49.49 0 0 0-.21.366l.011 4.159c.002.046.015.08.037.093.024.01.058.007.099-.016l3.57-2.086a.478.478 0 0 0 .203-.362l-.012-4.16c0-.046-.013-.083-.036-.096a.057.057 0 0 0-.025-.006.135.135 0 0 0-.067.022zM19.215 112.67c-.07-.04-.11-.123-.11-.224l-.01-4.159a.627.627 0 0 1 .282-.498l3.57-2.087c.087-.05.173-.057.244-.015.072.041.111.125.111.228l.012 4.16a.621.621 0 0 1-.278.495l-3.57 2.085a.285.285 0 0 1-.145.043.207.207 0 0 1-.106-.028zm3.81-6.836-3.571 2.087a.488.488 0 0 0-.21.366l.011 4.16c0 .044.014.078.036.091.023.011.06.008.1-.015l3.57-2.085a.479.479 0 0 0 .203-.363l-.012-4.16c0-.047-.013-.082-.036-.096a.062.062 0 0 0-.027-.006.141.141 0 0 0-.065.021zM29.843 106.462c-.07-.04-.11-.123-.11-.224l-.01-4.159a.627.627 0 0 1 .282-.498l3.571-2.087c.086-.05.172-.057.244-.015.07.042.11.125.11.228l.013 4.16a.621.621 0 0 1-.278.495l-3.571 2.085a.285.285 0 0 1-.145.043.207.207 0 0 1-.106-.028zm3.81-6.836-3.571 2.087a.488.488 0 0 0-.21.366l.012 4.16c0 .044.013.078.035.091.024.012.06.008.1-.014l3.57-2.086a.479.479 0 0 0 .204-.363l-.013-4.16c0-.047-.013-.082-.035-.096a.062.062 0 0 0-.028-.006.141.141 0 0 0-.065.021z" class="color3f434f svgShape"></path><path fill="#483f4f" d="M31.915 101.062v.194c.728-.372 1.31-.007 1.313.843l-1.308.763.005 1.544c0 .268-.189.6-.42.735-.232.135-.422.025-.423-.242l.176-.103c0 .155.111.22.246.14a.55.55 0 0 0 .245-.427l-.004-1.544-1.308.764c-.002-.85.573-1.89 1.303-2.37v-.194l.175-.103z" class="color3f434f svgShape"></path><path fill="#f4f6f8" d="M6.464 102.641c.18.104.321.338.321.546l-.013 2.977c0 .195-.141.273-.308.182l-4.65-2.717a.703.703 0 0 1-.322-.546l.013-2.977c0-.208.142-.286.309-.182l4.65 2.717zm.334-3.86-.013 2.99c0 .194-.141.272-.308.168l-4.65-2.717c-.18-.09-.322-.338-.322-.546l.013-2.976c0-.208.141-.286.308-.182l4.65 2.716c.18.104.322.338.322.546z" class="colore4e8f4 svgShape"></path><path fill="#6822a2" d="M6.341 104.152v.133l-4.404-2.573v-.134zM6.343 103.751l-.001.134-4.404-2.574v-.133zM6.345 102.95l-.001.133-4.404-2.573v-.133zM6.337 105.754v.133l-4.405-2.573v-.133zM6.338 105.353v.134l-4.405-2.573.001-.134zM6.339 104.953v.133l-4.405-2.573.001-.133zM6.34 104.552v.134l-4.405-2.574.001-.133zM6.344 103.35l-.001.134-4.404-2.573v-.134zM6.353 100.156l-.001.133-4.404-2.573v-.133zM6.354 99.755l-.001.134-4.404-2.573v-.134zM6.356 98.954v.134l-4.405-2.574v-.133zM6.357 98.554v.133l-4.405-2.573.001-.134zM6.349 101.348v.143l-4.405-2.573.001-.143zM6.35 100.947v.143l-4.404-2.573v-.143zM6.352 100.547l-.001.143-4.404-2.573v-.143zM6.355 99.355v.133L1.95 96.915v-.134z" class="color5b5e71 svgShape"></path><path fill="#ef41cf" d="m56.74 98.141-.054 18.936-16.931 9.953.055-18.936 7.287-4.297 2.192-1.276z" class="colorefac41 svgShape"></path><path fill="#4aa1f9" d="m39.832 108.105-.069 18.913-17.034-9.961.056-18.895v-.028h.028l7.39 4.334 1.68.992.504.283z" class="colorf9bb4a svgShape"></path><path fill="#7abcfe" d="m56.751 98.158-16.928 9.954-7.442-4.36-2.154-1.233-.044-.022-7.398-4.339 16.929-9.953z" class="colorfed57a svgShape"></path><path fill="#f4f6f8" d="m49.316 93.798-16.928 9.954-2.155-1.233-.043-.022 16.972-9.954.022.022z" class="colore4e8f4 svgShape"></path><path fill="#d4dee8" d="m30.175 107.004 2.192 1.303.027-4.51v-.056l-.493-.277-1.698-.97v.027z" class="colord4dae8 svgShape"></path><path fill="#483f4f" d="m42.161 120.368.51.983-.316.185-.698.404zM42.355 121.536l.005 1.943-.381.223-.006-1.944zM44.249 122.549l.001.416-2.632 1.539-.002-.417zM49.06 116.453l.004 1.385c.001.438-.248.946-.58 1.203l.003 1.248c.233-.108.408-.098.409.033l-1.027.6c0-.131.175-.346.407-.509l-.004-1.248c-.151.061-.282.046-.384-.019-.12-.09-.2-.26-.2-.503l-.004-1.385 1.376-.805zM43.88 120.644l.006 1.944-.382.223-.005-1.944zM43.688 119.476l.508.984-.316.184-.695.403z" class="color3f434f svgShape"></path><path fill="#483f4f" d="M46.262 122.254c-.071-.04-.113-.122-.113-.226l-.011-4.159a.633.633 0 0 1 .283-.498l3.57-2.086c.086-.05.174-.056.244-.016.07.041.11.125.11.23l.013 4.158a.634.634 0 0 1-.277.495l-3.57 2.085a.295.295 0 0 1-.147.044.193.193 0 0 1-.102-.027zm3.806-6.837-3.571 2.086a.49.49 0 0 0-.21.366l.012 4.16c.001.045.015.079.037.093.023.01.058.007.098-.017l3.57-2.085a.478.478 0 0 0 .204-.363l-.012-4.159c0-.047-.014-.083-.036-.097a.057.057 0 0 0-.026-.006.135.135 0 0 0-.066.022zM40.944 125.358c-.07-.041-.11-.123-.11-.224l-.01-4.16a.627.627 0 0 1 .283-.497l3.57-2.087c.086-.051.172-.058.244-.015.071.04.11.124.11.228l.013 4.16a.621.621 0 0 1-.278.494l-3.57 2.086a.285.285 0 0 1-.146.042.207.207 0 0 1-.106-.027zm3.81-6.836-3.571 2.087a.488.488 0 0 0-.21.366l.012 4.159c0 .044.013.078.035.092.024.011.06.007.1-.015l3.57-2.086a.479.479 0 0 0 .204-.362l-.013-4.16c0-.048-.013-.083-.035-.096a.062.062 0 0 0-.027-.006.141.141 0 0 0-.066.02zM51.572 119.15c-.07-.041-.11-.123-.11-.224l-.01-4.16a.627.627 0 0 1 .283-.497l3.57-2.087c.086-.051.173-.057.244-.015.071.041.11.125.11.228l.013 4.16a.621.621 0 0 1-.278.494l-3.57 2.086a.285.285 0 0 1-.146.042.207.207 0 0 1-.106-.027zm3.81-6.836L51.81 114.4a.488.488 0 0 0-.21.366l.012 4.159c0 .045.013.078.036.092.023.011.06.007.1-.015l3.569-2.086a.479.479 0 0 0 .204-.362l-.012-4.16c0-.047-.014-.082-.036-.096a.062.062 0 0 0-.027-.006.141.141 0 0 0-.065.02z" class="color3f434f svgShape"></path><path fill="#483f4f" d="M53.645 113.75v.193c.728-.371 1.31-.006 1.312.843l-1.307.764.004 1.544c0 .267-.189.6-.42.734-.231.136-.422.026-.423-.242l.176-.102c0 .154.112.219.246.14a.55.55 0 0 0 .245-.427l-.004-1.544-1.307.763c-.003-.849.572-1.89 1.302-2.37v-.193l.176-.103z" class="color3f434f svgShape"></path><path fill="#f4f6f8" d="M28.193 115.329c.18.104.322.338.322.546l-.013 2.976c0 .195-.142.273-.309.182l-4.65-2.716a.703.703 0 0 1-.321-.546l.013-2.977c0-.208.141-.286.308-.182l4.65 2.717zm.334-3.861-.012 2.99c0 .195-.142.273-.309.169l-4.65-2.717c-.18-.091-.321-.338-.321-.546l.013-2.977c0-.208.14-.286.308-.182l4.65 2.717c.18.104.321.338.321.546z" class="colore4e8f4 svgShape"></path><path fill="#6822a2" d="m28.071 116.839-.001.134-4.404-2.573v-.134zM28.072 116.439v.133l-4.405-2.573v-.134zM28.074 115.638v.133l-4.405-2.573.001-.134zM28.066 118.441v.134l-4.405-2.573.001-.134zM28.067 118.041v.133l-4.404-2.573v-.133zM28.069 117.64l-.001.134-4.404-2.573v-.134zM28.07 117.24l-.001.133-4.404-2.573v-.133zM28.073 116.038v.134l-4.405-2.574.001-.133zM28.082 112.843v.134l-4.405-2.573.001-.134zM28.083 112.443v.133l-4.405-2.573.001-.133zM28.085 111.642v.133l-4.405-2.573.001-.133zM28.086 111.241v.134l-4.404-2.573v-.134zM28.079 114.035l-.001.143-4.404-2.573v-.143zM28.08 113.635l-.001.143-4.404-2.573v-.143zM28.081 113.234v.143l-4.405-2.573v-.143zM28.084 112.042v.134l-4.405-2.573.001-.134z" class="color5b5e71 svgShape"></path><path fill="#ef41cf" d="m49.394 70.506-.055 18.936-16.93 9.953.055-18.936 7.287-4.297 2.192-1.276z" class="colorefac41 svgShape"></path><path fill="#4aa1f9" d="m32.486 80.47-.069 18.913-17.034-9.961.056-18.895v-.028h.028l7.39 4.334 1.68.991.504.284z" class="colorf9bb4a svgShape"></path><path fill="#7abcfe" d="m49.405 70.523-16.929 9.954-7.441-4.361-2.154-1.233-.044-.022-7.398-4.338 16.929-9.953z" class="colorfed57a svgShape"></path><path fill="#f4f6f8" d="m41.97 66.163-16.929 9.953-2.154-1.233-.043-.022 16.972-9.953.022.022z" class="colore4e8f4 svgShape"></path><path fill="#d4dee8" d="m22.829 79.369 2.192 1.303.027-4.51v-.056l-.493-.277-1.699-.97v.027z" class="colord4dae8 svgShape"></path><path fill="#483f4f" d="m34.814 92.733.511.983-.316.184-.698.405zM35.009 93.9l.005 1.944-.381.223-.006-1.944zM36.903 94.914l.001.416-2.633 1.538-.001-.416zM41.714 88.818l.004 1.385c.001.437-.249.945-.58 1.203l.003 1.248c.233-.108.408-.098.409.032l-1.027.6c0-.13.174-.345.407-.508l-.004-1.248c-.151.06-.282.046-.384-.02-.12-.09-.2-.26-.2-.503l-.004-1.385 1.376-.804zM36.534 93.009l.005 1.944-.381.223-.005-1.944zM36.342 91.84l.508.985-.316.184-.695.403z" class="color3f434f svgShape"></path><path fill="#483f4f" d="M38.916 94.618c-.072-.04-.113-.122-.113-.225l-.011-4.159a.633.633 0 0 1 .283-.498l3.57-2.086c.086-.05.174-.056.244-.016.07.041.11.125.11.23l.013 4.158a.634.634 0 0 1-.277.494l-3.57 2.086a.295.295 0 0 1-.147.044.193.193 0 0 1-.102-.028zm3.805-6.836-3.57 2.086a.49.49 0 0 0-.21.366l.012 4.159c.001.046.015.08.037.093.023.01.057.008.098-.016l3.57-2.086a.478.478 0 0 0 .204-.362l-.013-4.159c0-.047-.013-.083-.035-.097a.057.057 0 0 0-.026-.006.135.135 0 0 0-.067.022zM33.598 97.723c-.07-.042-.11-.124-.11-.225l-.01-4.159a.627.627 0 0 1 .282-.498l3.571-2.087c.086-.05.172-.057.244-.014.071.04.11.124.11.227l.013 4.16a.622.622 0 0 1-.278.495l-3.57 2.086a.285.285 0 0 1-.146.042.207.207 0 0 1-.106-.027zm3.81-6.837-3.571 2.087a.488.488 0 0 0-.21.366l.012 4.16c0 .044.013.078.035.092.024.01.06.007.1-.015l3.57-2.086a.479.479 0 0 0 .204-.362l-.013-4.16c0-.048-.013-.083-.035-.096a.062.062 0 0 0-.027-.007.141.141 0 0 0-.066.021zM44.226 91.515c-.07-.041-.11-.124-.11-.224l-.01-4.16a.627.627 0 0 1 .283-.497l3.57-2.087c.086-.051.172-.058.244-.015.071.04.11.124.11.228l.013 4.16a.621.621 0 0 1-.278.494l-3.57 2.086a.285.285 0 0 1-.146.042.207.207 0 0 1-.106-.027zm3.81-6.836-3.571 2.087a.488.488 0 0 0-.21.366l.012 4.159c0 .044.013.078.036.092.023.011.06.007.1-.015l3.569-2.086a.479.479 0 0 0 .204-.362l-.013-4.16c0-.048-.013-.083-.035-.096a.062.062 0 0 0-.027-.006.141.141 0 0 0-.065.02z" class="color3f434f svgShape"></path><path fill="#483f4f" d="M46.299 86.115v.193c.728-.371 1.31-.006 1.312.843l-1.307.764.004 1.544c0 .267-.189.599-.42.734-.231.135-.422.025-.423-.242l.176-.103c0 .155.112.22.246.14a.55.55 0 0 0 .245-.427l-.004-1.544-1.307.764c-.003-.85.572-1.89 1.302-2.37v-.194l.176-.102z" class="color3f434f svgShape"></path><path fill="#f4f6f8" d="M20.847 87.693c.18.104.321.338.321.546l-.012 2.977c0 .195-.142.273-.309.182l-4.65-2.717a.703.703 0 0 1-.321-.546l.013-2.977c0-.207.14-.285.308-.181l4.65 2.716zm.334-3.86-.013 2.99c0 .194-.14.272-.308.168l-4.65-2.716c-.18-.091-.321-.338-.321-.546l.012-2.977c0-.208.142-.286.309-.182l4.65 2.717c.18.104.321.338.321.546z" class="colore4e8f4 svgShape"></path><path fill="#6822a2" d="m20.725 89.204-.001.133-4.404-2.573v-.133zM20.726 88.803l-.001.134-4.404-2.573v-.134zM20.728 88.002v.134l-4.405-2.573.001-.134zM20.72 90.806v.134l-4.405-2.574.001-.133zM20.721 90.405v.134l-4.405-2.573.001-.134zM20.722 90.005v.133l-4.404-2.573v-.133zM20.724 89.604l-.001.134-4.404-2.573v-.134zM20.727 88.403v.133l-4.405-2.573v-.133zM20.736 85.208v.134l-4.405-2.574v-.133zM20.737 84.807v.134l-4.405-2.573.001-.134zM20.739 84.006v.134l-4.405-2.573.001-.134zM20.74 83.606v.133l-4.404-2.573v-.133zM20.733 86.4l-.001.143-4.404-2.573v-.143zM20.734 86l-.001.143-4.404-2.574v-.143zM20.735 85.599l-.001.143-4.404-2.573v-.143zM20.738 84.407v.133l-4.405-2.573.001-.133z" class="color5b5e71 svgShape"></path><g fill="#6822a2" class="color5b5e71 svgShape"><path d="M18.967 38.992c.354.589.53 1.206.528 1.878-.002.659-.17 1.09-.526 1.28-.346.185-.878.07-1.598-.346l-1.241-.716.012-4.29 1.283.74c.668.385 1.178.872 1.542 1.454zm-.466 2.42c.24-.113.356-.418.357-.898.003-.983-.486-1.757-1.456-2.317l-.636-.367-.008 2.948.698.403c.46.265.804.332 1.045.231M22.943 40.723l-.002.684-1.992-1.151-.004 1.139 1.784 1.03-.002.647-1.784-1.03-.003 1.151 2.055 1.186-.002.671-2.691-1.553.012-4.291zM24.434 41.585l-.01 3.607 1.71.988-.002.683-2.336-1.349.012-4.291zM27.459 43.331l-.012 4.291-.626-.362.012-4.29zM31.704 45.782l-1.514 3.423-.709-.409-1.48-5.152.699.403 1.138 3.875 1.157-2.55zM34.864 47.606l-.002.683-2.002-1.156-.004 1.139 1.794 1.036-.001.647-1.794-1.036-.004 1.151 2.066 1.192-.002.671-2.691-1.553.012-4.291zM37.892 52.091l.976 2.124-.804-.463-.882-1.95-.834-.482-.004 1.438-.626-.361.012-4.29 1.387.8c.574.331.98.686 1.22 1.04.25.372.373.792.372 1.284-.002.707-.275.994-.817.86zm-.75-.973c.355.205.595.284.72.224.136-.041.2-.21.2-.497.001-.275-.071-.51-.196-.69-.136-.174-.365-.366-.71-.565l-.802-.463-.005 1.534.793.457M42.405 51.96l-1.394 1.8-.005 1.69-.647-.373.005-1.69-1.38-3.402.688.397 1.017 2.544 1.028-1.363z" fill="#010001" class="color000000 svgShape"></path></g><path fill="#6822a2" d="m41.665 54.423 6.81 8.373-6.835.481.008-2.9-26.363-15.22.009-3.069 26.363 15.221z" class="color5b5e71 svgShape"></path></svg>