<svg xmlns="http://www.w3.org/2000/svg" viewBox="0 0 50 50" id="ConvertibleCar"><path fill="#010001" d="M34.935 31.272c-.566-.327-1.08-.357-1.45-.142L26.772 35l2.89 4.97 6.71-3.868c.367-.213.594-.665.596-1.308.003-1.294-.908-2.872-2.034-3.522zM15.804 20.045c-1.467-.847-1.44.14-8.163 3.728l2.077 4.712 7.524-3.61c.366-.213.593-.665.595-1.308.004-1.293-.908-2.872-2.033-3.522z" class="color020202 svgShape"></path><path fill="#5046e4" d="M41.29 17.777c-.267-.154-.674.011-1.049.228-.191.11-.375.234-.526.336-.588.394-.496 1.417-.49 1.471l.405.236c-.005-.054-.097-1.078.49-1.471.152-.102.335-.226.527-.336.375-.217.782-.382 1.048-.228l-.406-.236z" class="color4f4d4d svgShape"></path><path fill="#5046e4" d="m38.426 20.743-.406-.235 1.204-.696.406.236z" class="color4f4d4d svgShape"></path><path fill="#f4f6f8" d="M40.647 18.24c.5-.288 1.056-.485 1.26.043.05.132.067.3.03.489a1.298 1.298 0 0 1-.326.638c-.504.544-2.95 2.001-3.183 2.14l-.002-.807 1.204-.695c-.005-.054-.097-1.078.49-1.471.152-.102.335-.226.527-.337z" class="color3d3d3d svgShape"></path><path fill="#a50b89" d="m34.331 39.754-.005 1.419 14.173-8.237a1 1 0 0 0 .497-.86L49 31.15l-14.669 8.604z" class="colorbc2b3a svgShape"></path><path fill="#ff3cdc" d="m1.514 17.74 14.864-8.67c1.57-.912 4.099 1.03 4.249 1.095L5.958 18.689c-.15-.065-2.875-1.862-4.444-.95z" class="colorff413c svgShape"></path><path fill="#5046e4" d="M30.894 17.647c3.486 2.013 7.725 4.534 7.43 5.145-.411.852-.775 1.935-4.659 4.192-3.883 2.257-5.752 2.471-7.223 2.713-1.479.242-15.834-8.138-16.68-8.78-2.891-2.244 2.002-4.602 3.686-5.58 1.685-.98 5.651-3.77 9.536-2.104.257.114 4.972 2.736 7.91 4.414.833.476-1.38-.796 0 0z" class="color4f4d4d svgShape"></path><path fill="#afafaf" d="M26.805 30.869c4.303-.706 10.179-3.924 11.534-6.22-1.406-.903-3.162-1.933-4.76-2.856-2.938-1.678-8.141-5.259-8.399-5.372-3.884-1.667-7.362 2.083-9.047 3.062-1.167.678-3.874 2.018-4.465 3.524 3.295 1.924 13.56 8.12 15.137 7.862z" class="colorafafaf svgShape"></path><path fill="#e220bf" d="M30.894 17.647c2.232 1.289 4.772 2.785 6.234 3.856l.552-.32-14.101-8.295-.595.345c.257.114 4.972 2.736 7.91 4.414-1.38-.796.833.476 0 0z" class="colore22020 svgShape"></path><path fill="#e220bf" d="M20.627 10.165 5.958 18.689l2.912.828c-.103-1.764 3.244-3.405 4.578-4.18 1.685-.98 5.651-3.77 9.536-2.104l.595-.345s-3.167-1.87-2.952-2.723z" class="colore22020 svgShape"></path><path fill="#d8d8d8" d="M18.485 13.843c.282.03.43-.01.9.41.728.653 1.34 3.83 1.27 4.747 0 0-1.487-.56-1.435-1.15.074-.833-1.518-4.092-.735-4.007z" class="colord8d8d8 svgShape"></path><path fill="#e8e8e8" d="M21.744 11.386a.219.219 0 0 0-.158.045l-3.22 2.433c.123-.06.516-.06 1.018.39.729.652.602 2.06 1.27 4.746l4.2-2.727c-1.69-3.3-1.21-4.683-3.11-4.886z" class="colore8e8e8 svgShape"></path><path fill="#d8d8d8" d="M18.943 12.1a.134.134 0 0 1 .149-.14c.172.018.465.09.752.347.445.398.35 1.151.307 1.711 0 0-1.242-.298-1.21-.658.025-.278.01-.96.002-1.26zm2.244 1.15c.03-.388.257-.786.042-1.223l.357-.596c.248-.192 1.115.232 1.485.618l-1.883 1.201z" class="colord8d8d8 svgShape"></path><path fill="#f4f6f8" d="M19.844 12.307a1.346 1.346 0 0 0-.752-.348.133.133 0 0 0-.073.014l2.36-1.516c.026-.02.06-.031.096-.027 1.197.128 1.123 1.218 1.06 2.059l-2.384 1.53c.043-.56.138-1.314-.307-1.712z" class="colorf1f1f2 svgShape"></path><path fill="#d8d8d8" d="M20.378 13.851c.542-.347 1.318-.924 2.156-1.362-.625.477-1.389.913-2.136 1.395-.082.044-.163.092-.247.134.075-.057.151-.11.227-.167zm-6.334 2.95a.22.22 0 0 1 .245-.23c.282.03.43-.01.9.41.728.652 1.34 3.83 1.27 4.747 0 0-1.487-.56-1.434-1.15.04-.455-.967-3.287-.98-3.777z" class="colord8d8d8 svgShape"></path><path fill="#e8e8e8" d="M17.548 14.114a.219.219 0 0 0-.158.044l-3.22 2.434a.22.22 0 0 1 .119-.022c.282.03.43-.009.9.411.728.652.601 2.06 1.27 4.747L20.656 19c-1.69-3.3-1.21-4.683-3.11-4.887z" class="colore8e8e8 svgShape"></path><path fill="#d8d8d8" d="M14.747 14.828a.134.134 0 0 1 .15-.141c.171.019.464.09.75.347.446.399.35 1.152.308 1.712 0 0-1.242-.298-1.21-.659.025-.277.01-.96.002-1.26zm2.244 1.15c.03-.388.257-.786.043-1.224l.356-.596c.247-.19 1.112.23 1.485.619l-1.883 1.2z" class="colord8d8d8 svgShape"></path><path fill="#f4f6f8" d="M15.648 15.034a1.346 1.346 0 0 0-.752-.347.133.133 0 0 0-.073.013l2.36-1.516c.026-.02.06-.03.096-.027.172.019.465.091.752.348.445.398.35 1.151.307 1.711l-2.383 1.53c.043-.56.138-1.313-.307-1.712z" class="colorf1f1f2 svgShape"></path><path fill="#d8d8d8" d="M16.182 16.579c.513-.337 1.4-.967 2.156-1.363-.503.385-.996.677-2.136 1.395-.082.045-.163.092-.247.135.075-.058.152-.111.227-.167zm-6.334 2.95a.22.22 0 0 1 .245-.231c.282.03.43-.01.9.41.728.653 1.34 3.83 1.27 4.747 0 0-1.487-.56-1.434-1.15.04-.454-.967-3.286-.98-3.777z" class="colord8d8d8 svgShape"></path><path fill="#e8e8e8" d="M14.583 17.41c-.339-.303-1.15-.709-1.389-.524l-3.22 2.433a.219.219 0 0 1 .119-.021c.282.03.43-.01.9.41.728.653.601 2.06 1.27 4.747l4.199-2.726c-1.31-2.56-1.356-3.85-1.88-4.32z" class="colore8e8e8 svgShape"></path><path fill="#d8d8d8" d="M10.55 17.555a.135.135 0 0 1 .15-.14c1.195.129 1.124 1.216 1.06 2.058 0 0-1.242-.298-1.21-.658.024-.278.01-.96 0-1.26zm2.246 1.15c.03-.388.256-.786.042-1.223l.357-.596c.237-.184 1.02.195 1.388.524.033.03.065.061.096.094l-1.883 1.201z" class="colord8d8d8 svgShape"></path><path fill="#f4f6f8" d="M10.7 17.415a.133.133 0 0 0-.073.013l2.36-1.516c.026-.02.06-.031.096-.027.172.018.465.09.752.347.445.399.35 1.152.307 1.712l-2.383 1.53c.068-.887.11-1.933-1.059-2.06z" class="colorf1f1f2 svgShape"></path><path fill="#d8d8d8" d="M14.142 17.944c-.595.455-2.132 1.4-2.383 1.53.075-.058 1.644-1.143 2.383-1.53z" class="colord8d8d8 svgShape"></path><path fill="#bfbfbf" d="M18.846 18.424c.114-.095.232-.183.35-.272.352-.261.717-.509 1.094-.748l-.006.004c.107-.083.33-.016.454.033.13.05.25.121.358.208.106.084.205.19.267.313.063.122.097.255.108.387A1.32 1.32 0 0 0 21.3 18a1.007 1.007 0 0 0-.275-.255 1.45 1.45 0 0 0-.337-.166 1.46 1.46 0 0 0-.18-.047c-.207-.04.013-.021-1.27.687-.129.07-.258.141-.392.205z" class="colorbfbfbf svgShape"></path><path fill="#f4f6f8" d="M18.5 23.035a1.371 1.371 0 0 0-.047-.028c-.183-.106-.47-.415-.913-.592a2.53 2.53 0 0 1-.33-.162 6.804 6.804 0 0 1-.752-.525l-2.812 1.653c1.248.974 1.237.602 2.194 1.212.384.247.632.92.33 1.095l2.66-1.558c.084-.049.134-.15.135-.29 0-.279-.2-.635-.465-.805z" class="colorf1f1f2 svgShape"></path><path fill="#afafaf" d="M15.84 24.593c.621.399.611 1.39-.002 1.073-.889-.456-.97-.862-2.195-1.322l.003-.963c.262.205.514.388.752.525.113.066.223.12.33.163.303.12.89.383 1.113.524z" class="colorafafaf svgShape"></path><path fill="#f4f6f8" d="M21.297 21.377a1.371 1.371 0 0 0-.046-.028c-.184-.106-.47-.415-.914-.591a2.543 2.543 0 0 1-.33-.163c-.237-.137-.685-.493-.948-.698l-2.616 1.827c.263.205.514.387.752.525.113.065.223.12.33.162a9.748 9.748 0 0 1 1.113.525c.264.17.465.526.465.805 0 .14-.052.24-.136.29l2.66-1.559c.084-.049.135-.15.135-.29 0-.278-.2-.635-.465-.805z" class="colorf1f1f2 svgShape"></path><path fill="#939293" d="M20.296 24.455a14.466 14.466 0 0 1-1.012-.606c-.167-.105-.328-.217-.491-.325l-.483-.335-.475-.347c-.156-.119-.315-.234-.468-.356-.31-.242-.614-.49-.905-.757.348.187.681.393 1.011.607.167.104.328.216.491.324l.483.335.476.347c.156.118.314.233.468.357.31.241.614.489.905.756z" class="color929393 svgShape"></path><path fill="#d8d8d8" d="M17.227 21.046a.218.218 0 0 1 .242-.228c.279.03.426-.009.89.407.72.645 1.072 5.368 1.003 6.275 0 0-1.47-.554-1.418-1.138.04-.45-.703-4.83-.717-5.316z" class="colord8d8d8 svgShape"></path><path fill="#e8e8e8" d="M21.91 18.951a2.183 2.183 0 0 0-1.217-.562.216.216 0 0 0-.156.044L17.35 20.84a.216.216 0 0 1 .118-.021c.279.03.426-.01.89.406.72.645 1.072 5.368 1.003 6.275l3.868-2.782c-.352-2.212-.803-5.303-1.32-5.767z" class="colore8e8e8 svgShape"></path><path fill="#d8d8d8" d="M17.922 19.095a.133.133 0 0 1 .148-.14c.17.02.46.09.743.344.44.394.347 1.14.304 1.693 0 0-1.228-.295-1.196-.651.024-.275.01-.95.001-1.246zm2.22 1.137c.03-.383.254-.777.042-1.21l.353-.59a.216.216 0 0 1 .156-.043 2.183 2.183 0 0 1 1.312.656l-1.862 1.187z" class="colord8d8d8 svgShape"></path><path fill="#e8e8e8" d="M18.813 19.3a1.332 1.332 0 0 0-.743-.344.132.132 0 0 0-.072.013c2.316-1.481 2.327-1.537 2.429-1.526.17.018.46.09.743.343.44.395.346 1.14.304 1.693l-2.357 1.513c.043-.553.136-1.299-.304-1.693z" class="colore8e8e8 svgShape"></path><path fill="#d8d8d8" d="m19.342 20.827.712-.477c.152-.105.308-.206.464-.306.156-.099.313-.198.473-.291.159-.094.319-.188.483-.274a17.1 17.1 0 0 1-1.39.921l-.723.459c-.08.044-.16.091-.244.133.074-.057.15-.11.225-.165zM24.216 16.722a.218.218 0 0 1 .242-.228c.278.03.425-.01.89.406.72.645 1.071 5.369 1.002 6.275 0 0-1.47-.554-1.418-1.138.04-.45-.703-4.83-.716-5.315z" class="colord8d8d8 svgShape"></path><path fill="#f4f6f8" d="M28.898 14.626a2.183 2.183 0 0 0-1.217-.562.216.216 0 0 0-.156.044l-3.186 2.407a.217.217 0 0 1 .119-.021c.278.03.425-.01.89.406.72.645 1.071 5.369 1.002 6.275l3.868-2.782c-.352-2.212-.802-5.303-1.32-5.767z" class="colorf1f1f2 svgShape"></path><path fill="#d8d8d8" d="M24.91 14.77a.133.133 0 0 1 .148-.139c.17.018.46.09.744.343.44.394.346 1.14.304 1.693 0 0-1.228-.294-1.197-.651.025-.274.01-.95.002-1.246zm2.22 1.137h.001c.03-.383.254-.777.041-1.21l.353-.59a.216.216 0 0 1 .156-.043 2.183 2.183 0 0 1 1.313.656l-1.863 1.188z" class="colord8d8d8 svgShape"></path><path fill="#e8e8e8" d="M25.802 14.974a1.333 1.333 0 0 0-.744-.343.132.132 0 0 0-.072.013l2.334-1.5a.132.132 0 0 1 .095-.026c.17.018.46.09.744.343.44.395.346 1.14.304 1.693l-2.357 1.514c.042-.554.136-1.3-.304-1.694z" class="colore8e8e8 svgShape"></path><path fill="#d8d8d8" d="m26.33 16.502.712-.477a17.255 17.255 0 0 1 1.421-.87 16.862 16.862 0 0 1-1.39.921l-.723.458c-.081.044-.161.091-.244.133.074-.057.15-.11.224-.165z" class="colord8d8d8 svgShape"></path><path fill="#f4f6f8" d="M24.737 26.525a1.371 1.371 0 0 0-.047-.028c-.183-.106-.47-.415-.913-.592a2.517 2.517 0 0 1-.33-.162 6.806 6.806 0 0 1-.752-.525l-2.813 1.653c.263.205.515.388.753.525.113.066.223.12.33.163a9.734 9.734 0 0 1 1.112.524c.265.17.466.527.465.806 0 .14-.051.24-.135.29l2.66-1.56c.083-.048.134-.149.134-.288.001-.28-.2-.636-.464-.806z" class="colorf1f1f2 svgShape"></path><path fill="#e220bf" d="m9.761 20.918-.85.494 14.1 8.295 1.19-.692c-3.346-1.5-14.242-7.948-14.44-8.097zM48.289 28.577 33.98 36.892l.35 2.862L49 31.15l-.083-.655a5.312 5.312 0 0 0-.628-1.918z" class="colore22020 svgShape"></path><path fill="#ff3cdc" d="M48.289 28.577a5.311 5.311 0 0 0-1.31-1.554L38.87 20.49l-14.668 8.525 1.67 1.345 8.108 6.532 14.309-8.315z" class="colorff413c svgShape"></path><path fill="#f734d4" d="m33.98 36.892-9.778-7.877-.923.536L8.91 21.412c-.222-.135-3.167-1.87-2.952-2.723-.17-.074-3.399-2.318-4.82-.612-.113.135-.156 1.192-.131 1.444l.182 1.795c.05.498.372 1.051.78 1.342l3.04 2.175 5.52 3.369 14.768 8.455 5.356 2.836 3.673 1.68.005-1.42-.35-2.86z" class="colorf73434 svgShape"></path><path fill="#e8e8e8" d="M27.988 35.37c.928.536 1.678 1.835 1.675 2.901-.003 1.066-.758 1.496-1.686.96-.928-.535-1.678-1.834-1.675-2.9.003-1.067.758-1.497 1.686-.96zm.983 3.614c.244-.147.395-.451.396-.883 0-.078-.004-.157-.014-.237a2.317 2.317 0 0 1-.542-.204c-.114-.066-.202-.144-.224-.236-.055-.228.384-.192.623-.156-.196-.544-.558-1.067-.989-1.4-.011.287-.057.807-.236.704-.18-.104-.223-.675-.233-.975-.43-.164-.795-.06-.993.255.239.24.676.71.62.874-.022.066-.11.043-.225-.022a3.86 3.86 0 0 1-.541-.422c-.01.069-.015.142-.016.22 0 .431.148.91.39 1.336.14-.12.4-.311.56-.22a.195.195 0 0 1 .06.058c.145.205-.1.536-.241.699.184.211.392.39.612.517.22.127.428.188.613.19-.14-.326-.383-.938-.237-.975.018-.005.039 0 .061.014.16.092.418.581.556.863" class="colore8e8e8 svgShape"></path><path fill="#e8e8e8" d="M27.984 36.834c.224.13.405.444.404.701 0 .258-.183.362-.407.232a.891.891 0 0 1-.405-.7c.001-.258.184-.362.408-.233z" class="colore8e8e8 svgShape"></path><path fill="#5046e4" d="M29.353 37.864c.01.08.014.159.014.237-.001.432-.152.736-.396.883-.138-.282-.396-.771-.556-.863-.022-.014-.043-.019-.061-.014-.146.037.096.65.237.975a1.268 1.268 0 0 1-.613-.19 2.465 2.465 0 0 1-.612-.517c.141-.163.386-.494.241-.699a.195.195 0 0 0-.06-.057c-.16-.092-.42.098-.56.22-.242-.428-.39-.906-.39-1.338 0-.077.006-.15.016-.22.147.133.372.325.541.423.114.065.202.089.225.023.056-.164-.381-.634-.62-.875.198-.316.562-.42.993-.255.01.3.053.87.233.975.179.103.225-.417.236-.704.43.333.793.856.99 1.4-.24-.036-.679-.072-.624.156.022.092.11.17.224.236.17.098.395.166.542.204zm-1.372-.097c.224.13.406.026.407-.232a.891.891 0 0 0-.404-.7c-.224-.13-.407-.026-.408.232 0 .257.181.57.405.7" class="color4f4d4d svgShape"></path><path fill="#5046e4" d="M27.99 34.726c1.237.715 2.237 2.447 2.233 3.869-.004 1.422-1.01 1.995-2.248 1.28-1.237-.714-2.237-2.446-2.233-3.868s1.01-1.995 2.248-1.28zm-.013 4.506c.928.535 1.682.105 1.685-.96.004-1.068-.746-2.366-1.674-2.902-.928-.536-1.683-.106-1.686.96-.003 1.067.747 2.366 1.675 2.902" class="color4f4d4d svgShape"></path><path fill="#e8e8e8" d="M8.007 25.373c.225.13.406.443.405.701-.001.258-.183.362-.407.232a.891.891 0 0 1-.405-.7c0-.258.183-.362.407-.233z" class="colore8e8e8 svgShape"></path><path fill="#5046e4" d="M8.013 23.265c1.238.714 2.238 2.446 2.233 3.868-.004 1.423-1.01 1.996-2.247 1.281-1.238-.714-2.238-2.446-2.234-3.868.004-1.422 1.01-1.995 2.248-1.28zm-.012 4.505c.927.536 1.682.106 1.685-.96.003-1.067-.747-2.365-1.674-2.901-.929-.536-1.683-.106-1.686.96-.003 1.067.747 2.366 1.675 2.901" class="color4f4d4d svgShape"></path><path fill="#5046e4" d="M9.377 26.403c.01.08.014.159.014.237-.001.431-.153.736-.396.882-.139-.281-.396-.77-.556-.863-.023-.013-.044-.018-.062-.013-.145.037.097.649.237.975a1.266 1.266 0 0 1-.612-.19 2.465 2.465 0 0 1-.613-.518c.142-.162.387-.493.242-.698a.193.193 0 0 0-.061-.058c-.16-.092-.42.1-.56.22-.242-.427-.39-.905-.39-1.337.001-.077.006-.15.016-.22.147.132.373.325.542.423.114.065.202.088.225.022.056-.163-.382-.633-.62-.874.197-.316.562-.42.993-.255.01.3.052.87.232.974.18.104.225-.416.237-.703.43.333.793.856.989 1.4-.24-.036-.679-.072-.624.156.022.091.11.17.224.236.17.098.396.166.543.204zm-1.372-.097c.224.13.406.026.407-.232a.891.891 0 0 0-.405-.7c-.224-.13-.406-.026-.407.232 0 .257.18.57.405.7" class="color4f4d4d svgShape"></path><path fill="#e8e8e8" d="M8.012 23.909c.927.536 1.677 1.834 1.674 2.9-.003 1.067-.758 1.497-1.685.961-.928-.535-1.678-1.834-1.675-2.9.003-1.067.757-1.497 1.686-.961zm.983 3.614c.243-.147.395-.452.396-.883 0-.078-.005-.157-.014-.237a2.322 2.322 0 0 1-.543-.204c-.113-.066-.202-.145-.224-.236-.054-.228.384-.192.624-.157-.196-.543-.559-1.066-.99-1.4-.01.288-.056.808-.236.704-.18-.103-.223-.674-.232-.974-.431-.164-.796-.06-.994.255.24.24.677.71.62.874-.022.066-.11.043-.224-.022a3.882 3.882 0 0 1-.542-.423c-.01.07-.015.143-.015.22-.001.432.147.91.39 1.337.14-.12.399-.312.559-.22a.193.193 0 0 1 .061.058c.145.205-.1.536-.242.699.185.211.392.39.613.517.22.127.428.188.612.19-.14-.326-.382-.938-.237-.975.018-.005.04 0 .062.013.16.093.417.582.556.864" class="colore8e8e8 svgShape"></path><path fill="#e220bf" d="m8.91 21.412.851-.494c-.6-.467-.864-.938-.891-1.4l-2.912-.829c-.214.853 2.73 2.588 2.952 2.723z" class="colore22020 svgShape"></path><path fill="none" d="M19.578 27.27z"></path><path fill="#f4f6f8" d="M19.578 27.269v.001z" class="colorf1f1f2 svgShape"></path><path fill="#ff5fe2" d="m17.826 19.77 14.683-8.532c.078-.046.188-.032.306.035l-14.683 8.534c-.118-.068-.228-.081-.306-.036z" class="colorff5f5f svgShape"></path><path fill="#f734d4" d="M18.337 19.978a.868.868 0 0 0-.205-.172c-.166-.095-.317-.082-.383.05-.094.186.004.528.214.778a32.204 32.204 0 0 1 5.316 8.917l.908-.528c-1.475-3.319-3.498-6.444-5.85-9.045z" class="colorf73434 svgShape"></path><path fill="#ffffff" d="M35.59 36.9c-.306.177-.554.605-.553.958 0 .352.25.494.557.317.306-.177.554-.606.553-.958-.001-.352-.25-.495-.557-.317z" class="colorffffff svgShape"></path><path fill="#5046e4" d="M36.273 38.898a.869.869 0 0 0-.394.683c.001.25.179.352.397.226a.869.869 0 0 0 .394-.683c0-.251-.178-.352-.397-.226z" class="color4f4d4d svgShape"></path><path fill="#ffffff" d="M36.626 36.301a.774.774 0 0 0-.351.609c0 .224.159.314.353.202a.775.775 0 0 0 .352-.61c0-.223-.159-.313-.354-.2z" class="colorffffff svgShape"></path><path fill="#d8d8d8" d="m35.035 36.954 1.64-.947c.043-.025.084-.025.109.002l.58.599c.064.065.001.241-.107.304l-.828.478a.272.272 0 0 0-.1.11c-.16.315-.403.596-.675.753a1.14 1.14 0 0 1-.062.034c-.428.212-.779.02-.817-.448-.02-.238.039-.504.15-.756a.286.286 0 0 1 .11-.13zm.559 1.22c.306-.176.554-.605.553-.957-.001-.352-.25-.494-.557-.317-.306.176-.554.605-.553.957 0 .353.25.495.557.318m1.034-1.063a.775.775 0 0 0 .352-.61c0-.223-.159-.313-.354-.2a.774.774 0 0 0-.351.608c0 .224.159.314.353.202" class="colord8d8d8 svgShape"></path><path fill="#ffffff" d="M47.496 30.049c-.306.177-.553.605-.552.958 0 .352.25.494.556.317.306-.177.554-.606.553-.958-.001-.352-.25-.494-.557-.317z" class="colorffffff svgShape"></path><path fill="#5046e4" d="M47.656 32.284a.868.868 0 0 0-.394.682c0 .251.178.353.397.227a.869.869 0 0 0 .394-.683c0-.251-.178-.353-.397-.226z" class="color4f4d4d svgShape"></path><path fill="#ffffff" d="M46.46 30.647a.775.775 0 0 0-.351.608c0 .224.159.314.353.202a.774.774 0 0 0 .352-.609c0-.223-.159-.314-.354-.201z" class="colorffffff svgShape"></path><path fill="#d8d8d8" d="M46.301 30.537a.285.285 0 0 1 .109-.127l1.64-.947c.043-.025.085-.024.11.002.113.122.173.32.155.58-.036.512-.385 1.107-.812 1.388a1.3 1.3 0 0 1-.062.038c-.272.157-.515.157-.678.028-.024-.02-.062-.017-.1.005l-.828.479c-.108.062-.171-.042-.109-.18l.575-1.266zm1.199.787c.306-.177.554-.606.553-.958-.001-.352-.25-.494-.557-.317-.306.177-.553.605-.552.958 0 .352.25.494.556.317m-1.038.133a.774.774 0 0 0 .352-.609c0-.223-.159-.314-.354-.201a.775.775 0 0 0-.351.608c0 .224.159.315.353.202" class="colord8d8d8 svgShape"></path><path fill="#ffffff" d="m41.021 36.126.002.808 2.724-1.559-.001-.808z" class="colorffffff svgShape"></path><path fill="#5046e4" d="m37.911 35.53.846.814 6.025-3.448.553-1.614z" class="color4f4d4d svgShape"></path><path fill="#e220bf" d="m38.273 20.644-.492.333c3.083 2.065 6.65 5.191 8.407 8.462-.593-1.238-4.085-5.965-7.915-8.795zm-10.575 9.752a58.59 58.59 0 0 1-2.52-2.124l-.486.318a64.73 64.73 0 0 0 2.758 2.13c2.163 1.586 6.085 4.242 8.745 4.613-2.63-.479-6.412-3.274-8.497-4.937z" class="colore22020 svgShape"></path><path fill="#ff5fe2" d="M18.337 19.978c2.352 2.6 4.375 5.726 5.85 9.045L38.87 20.49c-1.476-3.319-3.498-6.444-5.85-9.045a.866.866 0 0 0-.205-.172l-14.683 8.534c.068.039.138.096.205.17z" class="colorff5f5f svgShape"></path><path fill="#444345" d="M24.472 28.127c-1.395-2.975-3.22-5.783-5.32-8.183l13.57-7.886c2.115 2.378 3.95 5.19 5.337 8.173l-13.587 7.896z" class="color434345 svgShape"></path><path fill="#6822a2" d="M24.678 27.46a36.01 36.01 0 0 0-4.796-7.393l12.74-7.404a33.634 33.634 0 0 1 4.823 7.378l-12.767 7.42z" class="color686868 svgShape"></path><path fill="#5046e4" d="m22.839 30.054-.406-.236 1.204-.695.406.236zM22.224 28.9c-.071-.04-.165-.043-.288.017-.152.074-.335.161-.527.272-.5.288-1.055.733-1.255 1.494-.05.191-.065.377-.027.523.023.089.067.177.149.224l.406.236c-.082-.047-.126-.135-.15-.225-.038-.145-.023-.33.028-.522.2-.761.755-1.206 1.255-1.494.192-.111.375-.199.527-.272.123-.06.216-.058.287-.017l-.405-.236z" class="color4f4d4d svgShape"></path><path fill="#f4f6f8" d="M21.815 29.424c.192-.11.375-.198.527-.272.588-.285.502.842.497.902l1.204-.695.002.806c-.233.13-2.679 1.498-3.184 1.537-.204.015-.292-.12-.329-.26-.037-.146-.023-.332.028-.524.2-.76.755-1.205 1.255-1.494z" class="color3d3d3d svgShape"></path><path fill="#5046e4" d="M12.993 25.285c0 .194-.146.268-.307.175l-.965-.557a.671.671 0 0 1-.304-.528c0-.194.138-.272.306-.175.53.372 1.271.528 1.27 1.085zm7.196 3.776c.161.093.305.334.305.528s-.146.267-.307.175l-.965-.557c-.407-.235-.4-.935.002-.703l.965.557z" class="color4f4d4d svgShape"></path><path fill="#ff3cdc" d="M11.242 25.874A6.262 6.262 0 0 0 9.72 23.4c-.68-.662-1.598-1.266-2.576-1.138.953.085 1.703.728 2.297 1.4a7.109 7.109 0 0 1 1.325 2.366c.246.77.36 1.636.097 2.365l.364.208c.423-.878.271-1.873.015-2.727zM31.264 37.039c-.622-1.846-2.382-3.836-4.098-3.612.953.085 1.703.728 2.297 1.4a7.106 7.106 0 0 1 1.326 2.366c.246.77.36 1.678.096 2.407l.364.166c.423-.879.272-1.873.015-2.727z" class="colorff413c svgShape"></path></svg>