<svg xmlns="http://www.w3.org/2000/svg" viewBox="0 0 132 132" id="MobileMessaging"><path fill="#6822a2" d="M2 59.3V65c0 .7.5 1.5 1.5 2.1L80 111.5c2 1.1 5.2 1.1 7.2 0l41.3-23.9c1-.6 1.5-1.3 1.5-2.1v-5.8c0 .8-.5 1.5-1.5 2.1l-41.3 23.9c-2 1.1-5.2 1.1-7.2 0L3.5 61.3c-1-.5-1.5-1.3-1.5-2z" class="color416e84 svgShape"></path><path fill="#f4f6f8" d="M3.5 57.2c-2 1.1-2 3 0 4.2L80 105.8c2 1.1 5.2 1.1 7.2 0l41.4-23.9c2-1.1 2-3 0-4.2L52 33.3c-2-1.1-5.2-1.1-7.2 0L3.5 57.2z" class="color305766 svgShape"></path><path fill="#6822a2" d="m21.4 50.9 12.5-7.2-.8-.5-12.5 7.2z" class="color416e84 svgShape"></path><path fill="#f4f6f8" d="m8.2 61.2 72 41.8c1.8 1.1 4.9 1.1 6.7 0l36.8-21.3c1.9-1.1 1.9-2.8 0-3.9L51.7 36c-1.9-1.1-4.9-1.1-6.8 0l-10 6 1.4.8c.9.5.9 1.4 0 1.9l-13.2 7.6c-.9.5-2.3.5-3.2 0l-1.4-.8-10.2 5.8c-1.9 1.1-1.9 2.8-.1 3.9z" class="colorffffff svgShape"></path><path fill="#010001" d="M12.3 68.5c.2-.1.5-.1.8.1l8 4.6c.6.3 1.1 1.2 1.1 1.8 0 .3-.1.6-.3.7l.4-.3c.2-.1.3-.3.3-.7 0-.7-.5-1.5-1-1.8l-8-4.6c-.3-.2-.6-.2-.8-.1l-.5.3z" class="colorbac1ce svgShape"></path><path fill="#e4ecf4" d="M13 68.6c-.6-.3-1.1-.1-1.1.6s.5 1.5 1.1 1.8l8 4.6c.6.3 1.1.1 1.1-.6s-.5-1.5-1.1-1.8l-8-4.6z" class="colore4e8f4 svgShape"></path><path fill="#010001" d="M24.2 75.7c.2-.1.5-.1.8.1l8 4.6c.6.3 1.1 1.2 1.1 1.8 0 .3-.1.6-.3.7l.4-.3c.2-.1.3-.3.3-.7 0-.7-.5-1.5-1-1.8l-8-4.6c-.3-.2-.6-.2-.8-.1l-.5.3z" class="colorbac1ce svgShape"></path><path fill="#e4ecf4" d="M24.9 75.7c-.6-.3-1.1-.1-1.1.6s.5 1.5 1.1 1.8l8 4.6c.6.3 1.1.1 1.1-.6s-.5-1.5-1.1-1.8l-8-4.6z" class="colore4e8f4 svgShape"></path><path fill="#986eba" d="M70.7 61.5 46.6 75.4v4.1L35.2 73c-.5-.3-.5-.7 0-1l26.9-15.5c.5-.3 1.3-.3 1.8 0l6.9 4c.4.2.4.7-.1 1z" class="color6eba6e svgShape"></path><path fill="#98b8d8" d="m35.8 62.3-6.9-4c-.5-.3-.5-.7 0-1l26.8-15.5c.5-.3 1.3-.3 1.8 0l11.3 6.6h-7.1L37.5 62.3c-.5.3-1.2.3-1.7 0z" class="color9ad898 svgShape"></path><path fill="#986eba" d="m102.3 79.8-24.2 14v4.1l-11.3-6.6c-.5-.3-.5-.7 0-1l26.9-15.5c.5-.3 1.3-.3 1.8 0l6.9 4c.4.3.4.7-.1 1z" class="color6eba6e svgShape"></path><path fill="#98b8d8" d="m67.3 80.7-6.9-4c-.5-.3-.5-.7 0-1l26.9-15.5c.5-.3 1.3-.3 1.7 0l11.3 6.6h-7.1L69 80.8c-.4.2-1.2.2-1.7-.1z" class="color9ad898 svgShape"></path><path fill="#f4f6f8" d="m48.3 71.5.8.5L61 65.1l-.9-.4z" class="colorffffff svgShape"></path><path fill="#7d74fd" d="M40.4 71.3c-.5.3-.6.8 0 1.1.5.3 1.4.3 2 0 .5-.3.5-.8 0-1.1-.6-.3-1.5-.3-2 0zm2.2 1.3c-1 .6-1 1.5-.1 2.1l3.7-2.1c-1-.6-2.6-.6-3.6 0z" class="color748bfd svgShape"></path><path fill="#f4f6f8" d="m62.6 76.3.8.5 19.4-11.2-.8-.5zM74.6 74.6l.9.4 11.8-6.8-.8-.5zM64.9 77.6l.8.5 19.4-11.2-.9-.5z" class="colorffffff svgShape"></path><path fill="#7d74fd" d="M74.1 90.9c-1 .6-1 1.5-.1 2.1l3.7-2.1c-1-.6-2.6-.5-3.6 0zm-2.2-1.2c-.5.3-.5.8 0 1.1.5.3 1.4.3 2 0 .5-.3.5-.8 0-1.1-.6-.4-1.5-.4-2 0z" class="color748bfd svgShape"></path><path fill="#f4f6f8" d="M77 89.3c1.6.9 1.6 2.4 0 3.3-1.6.9-4.1.9-5.7 0-1.6-.9-1.6-2.4 0-3.3 1.6-.9 4.1-.9 5.7 0zm.7 1.6c-1-.6-2.6-.5-3.6 0-1 .6-1 1.5-.1 2.1l3.7-2.1m-5.8-1.2c-.5.3-.5.8 0 1.1.5.3 1.4.3 2 0 .5-.3.5-.8 0-1.1-.6-.4-1.5-.4-2 0M75.3 87.2l.8.5 19.4-11.2-.8-.5zM77.6 88.5l.8.5 19.4-11.2-.8-.5zM79.9 89.8l.8.5 11.8-6.8-.8-.5z" class="colorffffff svgShape"></path><path fill="#f960dd" d="M86.2 63.1c-.5.3-.6.8 0 1.1.5.3 1.4.3 2 0 .5-.3.5-.8 0-1.1-.6-.3-1.4-.3-2 0z" class="colorf9607f svgShape"></path><path fill="#f4f6f8" d="m43.1 56.2.8.5 11.9-6.8-.9-.5zM31 57.9l.8.5 19.4-11.2-.8-.5zM33.3 59.3l.8.4 19.4-11.2-.8-.4z" class="colorffffff svgShape"></path><path fill="#f960dd" d="M54.7 44.8c-.5.3-.5.8 0 1.1.5.3 1.4.3 2 0 .5-.3.5-.8 0-1.1-.6-.3-1.5-.3-2 0zm2.2 1.3c-1 .6-1 1.5-.1 2.1l3.6-2.1c-.9-.6-2.5-.6-3.5 0z" class="colorf9607f svgShape"></path><path fill="#f4f6f8" d="M59.8 44.4c1.6.9 1.5 2.4 0 3.3-1.6.9-4.1.9-5.7 0s-1.5-2.4 0-3.3c1.6-.9 4.1-.9 5.7 0zm.6 1.6c-1-.6-2.6-.5-3.6 0-1 .6-1 1.5-.1 2.1l3.7-2.1m-5.7-1.2c-.5.3-.5.8 0 1.1.5.3 1.4.3 2 0 .5-.3.5-.8 0-1.1-.6-.3-1.5-.3-2 0" class="colorffffff svgShape"></path><path fill="#f960dd" d="M88.4 64.4c-1 .6-1 1.5-.1 2.1l3.6-2.1c-.9-.6-2.5-.6-3.5 0z" class="colorf9607f svgShape"></path><path fill="#f4f6f8" d="M91.3 62.8c1.6.9 1.5 2.4 0 3.3-1.6.9-4.1.9-5.7 0-1.6-.9-1.5-2.4 0-3.3 1.6-.9 4.2-.9 5.7 0zm.7 1.6c-1-.6-2.6-.5-3.6 0-1 .6-1 1.5-.1 2.1l3.7-2.1m-5.8-1.3c-.5.3-.6.8 0 1.1.5.3 1.4.3 2 0 .5-.3.5-.8 0-1.1-.6-.3-1.4-.3-2 0M43.8 68.9l.8.4L64 58.2l-.8-.5zM46 70.2l.8.5 19.4-11.2-.8-.5zM45.4 71c1.6.9 1.6 2.4 0 3.3-1.6.9-4.1.9-5.7 0-1.6-.9-1.6-2.4 0-3.3 1.7-.9 4.2-.9 5.7 0zm.7 1.6c-1-.6-2.6-.5-3.6 0-1 .6-1 1.5-.1 2.1l3.7-2.1m-5.7-1.3c-.5.3-.6.8 0 1.1.5.3 1.4.3 2 0 .5-.3.5-.8 0-1.1-.6-.3-1.5-.3-2 0" class="colorffffff svgShape"></path><path fill="#7abcfe" d="m20.5 108.9 3.9-2.3c1.5 2.3 3.7 5 7.2 7.1l-3.9 2.3c-3.5-2.1-5.7-4.8-7.2-7.1z" class="colorfed57a svgShape"></path><path fill="#7abcfe" d="M32.7 99c0 3.5-1.2 6-3.3 7.2l-3.8 2.3c2-1.2 3.2-3.6 3.2-7.2 0-7.1-5-15.8-11.2-19.4-3.1-1.8-5.9-1.9-8-.8l3.9-2.3c2-1.2 4.8-1 8 .8 6.2 3.6 11.2 12.2 11.2 19.4z" class="colorfed57a svgShape"></path><path fill="#4aa1f9" d="M17.7 81.9c6.2 3.6 11.2 12.2 11.2 19.3 0 6-3.5 8.9-8.3 7.6 1.5 2.3 3.7 5 7.2 7.1-.1 0-2.2-.7-4.9-2.2-3-1.7-6.6-4.5-8.7-8.7-4.5-4.2-7.8-11-7.8-16.7.1-7.1 5.1-10 11.3-6.4z" class="colorf9bb4a svgShape"></path><path fill="#7d74fd" d="m83.8 48.1 2.9-1.7c3.6 2 5.9 2 7.4 1.3l-2.9 1.7c-1.4.7-3.7.8-7.4-1.3zm16.5 3.6-2.9 1.7c.1-.1.3-.2.4-.3l2.9-1.7c-.1.1-.2.2-.4.3zm8.4-8.3c0 3.6-1.3 6.2-3.3 7.4l-2.9 1.7c2.1-1.2 3.3-3.8 3.4-7.4 0-7.3-5.1-16.2-11.5-19.9-3.2-1.9-6.1-2-8.2-.8l2.9-1.7c2.1-1.2 5-1 8.2.8 6.3 3.7 11.5 12.6 11.4 19.9z" class="color748bfd svgShape"></path><path fill="#5046e4" d="M94.4 25.2c6.3 3.7 11.5 12.6 11.5 19.9 0 5.9-3.4 8.9-8 8-2.2 1.8-5.9.4-9-1.4-2.8-1.6-4.9-3.4-5.1-3.5 3.6 2 5.9 2 7.4 1.3-4.9-4.3-8.5-11.5-8.5-17.7.1-7.3 5.3-10.3 11.7-6.6z" class="color576cfb svgShape"></path><path fill="#f960dd" d="m28.1 37.3-2.9-1.7c-3.6 2-5.9 2-7.4 1.3l2.9 1.7c1.5.7 3.8.7 7.4-1.3z" class="colorf9607f svgShape"></path><path fill="#7d74fd" d="m11.6 40.8 2.9 1.7c-.1-.1-.3-.2-.4-.3l-2.9-1.7c.1.2.2.2.4.3z" class="color748bfd svgShape"></path><path fill="#f960dd" d="M3.2 32.6c0 3.6 1.3 6.2 3.3 7.4l2.9 1.7c-2.1-1.2-3.3-3.8-3.4-7.4 0-7.3 5.1-16.2 11.5-19.9 3.2-1.9 6.1-2 8.2-.8l-2.9-1.7c-2.1-1.2-5-1-8.2.8C8.3 16.3 3.2 25.3 3.2 32.6z" class="colorf9607f svgShape"></path><path fill="#a50b89" d="M17.6 14.4C11.2 18 6.1 26.9 6.1 34.2c0 5.9 3.4 8.9 8 8 2.2 1.8 5.9.4 9-1.4 2.8-1.6 4.9-3.4 5.1-3.5-3.6 2-5.9 2-7.4 1.3 4.9-4.3 8.5-11.5 8.5-17.7-.2-7.3-5.4-10.2-11.7-6.5z" class="colorf34858 svgShape"></path><path fill="#f4f6f8" d="M25.1 97c-1.4-.8-2.6-.2-2.6 1.5 0 1.6 1.1 3.6 2.6 4.4s2.6.2 2.6-1.5c0-1.6-1.1-3.6-2.6-4.4zm-7.3-4.2c-1.4-.8-2.6-.2-2.6 1.5 0 1.6 1.1 3.6 2.6 4.4 1.4.8 2.6.2 2.6-1.5-.1-1.6-1.2-3.6-2.6-4.4zm-7.4-4.3c-1.4-.8-2.5-.2-2.6 1.5 0 1.6 1.1 3.6 2.6 4.4s2.6.2 2.6-1.5c0-1.6-1.2-3.6-2.6-4.4zM101.7 40c-1.4-.8-2.6-.2-2.6 1.5 0 1.6 1.1 3.6 2.6 4.4s2.6.2 2.6-1.5c0-1.6-1.2-3.5-2.6-4.4zm-7.4-4.2c-1.4-.8-2.6-.2-2.6 1.5 0 1.6 1.1 3.6 2.6 4.4 1.4.8 2.6.2 2.6-1.5 0-1.6-1.1-3.6-2.6-4.4zM87 31.5c-1.4-.8-2.6-.2-2.6 1.5 0 1.6 1.1 3.6 2.6 4.4s2.6.2 2.6-1.5c-.1-1.6-1.2-3.5-2.6-4.4zM10.4 28.8c1.4-.8 2.6-.2 2.6 1.5 0 1.6-1.1 3.6-2.6 4.4s-2.6.2-2.6-1.5c0-1.6 1.2-3.6 2.6-4.4zm7.3-4.2c1.4-.8 2.6-.2 2.6 1.5 0 1.6-1.1 3.6-2.6 4.4-1.4.8-2.6.2-2.6-1.5.1-1.6 1.2-3.6 2.6-4.4zm7.4-4.3c1.4-.8 2.6-.2 2.6 1.5 0 1.6-1.1 3.6-2.6 4.4s-2.6.2-2.6-1.5c0-1.6 1.2-3.6 2.6-4.4z" class="colorffffff svgShape"></path><path fill="#cad3dd" d="M130 106.7v1.7l-12.9 7.5v-1.7z" class="colorcad0dd svgShape"></path><path fill="#d4dee8" d="M117.1 114.2v1.7l-13-7.5v-1.7z" class="colord4dae8 svgShape"></path><path fill="#e4ecf4" d="m130 106.7-12.9 7.5-13-7.5 12.9-7.5z" class="colore4e8f4 svgShape"></path><path fill="#cad3dd" d="M75.3 24.7v1.7l-12.9 7.5v-1.7z" class="colorcad0dd svgShape"></path><path fill="#d4dee8" d="M62.4 32.2v1.7l-13-7.5v-1.7z" class="colord4dae8 svgShape"></path><path fill="#e4ecf4" d="m75.3 24.7-12.9 7.5-13-7.5 12.9-7.5z" class="colore4e8f4 svgShape"></path><path fill="#cad3dd" d="M49.3 110.9v-1.7c-.2-.3-.2-.7-.2-1v2.8h.2z" class="colorcad0dd svgShape"></path><path fill="#d4dee8" d="M63.8 117.4v3.5l.1-8.3v-4.5zM63.8 120.9H47.4c-4.1 0-7.4-1.9-7.4-4.2v-3.5c0 2.3 3.3 4.2 7.4 4.2h16.4v3.5z" class="colord4dae8 svgShape"></path><path fill="#e4ecf4" d="M42.1 110.2c-1.4.8-2.2 1.8-2.2 3 0 2.3 3.3 4.2 7.4 4.2h16.5l.1-9.3c0-2.3-3.3-4.2-7.4-4.2-2.1 0-3.9.5-5.2 1.2-1.3.8-2.2 1.8-2.2 3 0 .4.1.7.2 1-.6-.1-1.2-.1-1.9-.1-2.1 0-3.9.5-5.3 1.2z" class="colore4e8f4 svgShape"></path><path fill="#ef41cf" d="M123.3 57v5.9l-6 3.6v-6z" class="colorefac41 svgShape"></path><path fill="#4aa1f9" d="M117.3 60.5v6l-6.1-3.6V57z" class="colorf9bb4a svgShape"></path><path fill="#7abcfe" d="m123.3 57-6 3.5-6.1-3.5 6.1-3.6z" class="colorfed57a svgShape"></path></svg>