<svg xmlns="http://www.w3.org/2000/svg" viewBox="0 0 53 53" id="CustomerSupport"><path fill="#6822a2" d="M29.23 47.49a.962.962 0 0 1-.46-1.808l5.275-2.865 6.575-3.668.022-.012c2.978-1.562 3.758-3.577 2.606-6.739l-.913-2.52a.962.962 0 0 1 1.81-.656l.911 2.52c.77 2.115.827 3.905.172 5.468-.61 1.458-1.815 2.644-3.682 3.625l-6.574 3.667-5.284 2.87a.957.957 0 0 1-.458.117z" class="color4c5c75 svgShape"></path><path fill="#f4f6f8" d="m35.81 46.066-5.276 2.864a2.737 2.737 0 0 1-3.708-1.098 2.734 2.734 0 0 1 1.098-3.708l5.275-2.864a2.714 2.714 0 0 1 1.664-.308 2.734 2.734 0 0 1 .947 5.114z" class="color1d2943 svgShape"></path><path fill="#6822a2" d="m34.192 45.246-5.276 2.866a2.73 2.73 0 0 1-1.662.307 2.734 2.734 0 0 1 .67-4.295l5.275-2.864a2.714 2.714 0 0 1 1.664-.308 2.735 2.735 0 0 1-.67 4.294z" class="color4c5c75 svgShape"></path><path fill="#f4f6f8" d="M15.756 32.087c-1.817-1.049-3.462-1.146-4.65-.456l-2.152 1.251c1.188-.69 2.833-.593 4.65.456 3.607 2.083 6.523 7.133 6.511 11.28-.006 2.06-.733 3.509-1.906 4.19l2.153-1.25c1.172-.682 1.9-2.132 1.906-4.19.011-4.148-2.904-9.198-6.512-11.281z" class="colorf8f9fe svgShape"></path><path fill="#d2d4d6" d="M13.603 33.338c-3.609-2.084-6.544-.411-6.555 3.736-.012 4.145 2.904 9.196 6.513 11.28 3.608 2.082 6.542.409 6.554-3.736.012-4.147-2.904-9.197-6.512-11.28z" class="colord6d4d2 svgShape"></path><path fill="#a50b89" d="M20.11 44.613c0 2.06-.73 3.51-1.9 4.19l-2.15 1.26c.02-.01.05-.03.07-.05-1.19.74-2.87.66-4.72-.41-3.61-2.08-6.53-7.13-6.52-11.28.01-2.09.76-3.56 1.96-4.22l2.1-1.22c1.19-.69 2.84-.59 4.65.45 3.61 2.09 6.53 7.14 6.51 11.28z" class="colore93565 svgShape"></path><path fill="#f451d6" d="M13.603 33.338c-1.816-1.049-3.461-1.146-4.65-.456l-2.152 1.251c1.188-.69 2.834-.593 4.65.456 3.608 2.083 6.523 7.133 6.512 11.28-.006 2.06-.733 3.508-1.906 4.19l2.152-1.25c1.173-.682 1.9-2.132 1.906-4.191.012-4.147-2.904-9.197-6.512-11.28z" class="colorf45170 svgShape"></path><path fill="#a50b89" d="M11.45 34.589c-3.608-2.084-6.543-.412-6.555 3.735-.011 4.145 2.904 9.196 6.513 11.28 3.608 2.083 6.543.41 6.555-3.735.011-4.147-2.904-9.197-6.512-11.28z" class="colore93565 svgShape"></path><path fill="#6822a2" d="M15.31 43.793c-.01 1.14-.41 1.94-1.06 2.32l-1.73 1.02-5.12-8.82 1.73-1.02c.65-.38 1.57-.33 2.57.25 2 1.16 3.61 3.95 3.61 6.25z" class="color4c5c75 svgShape"></path><path fill="#6822a2" d="m14.93 41.753-1.72 1.03c-.59-1.72-1.81-3.39-3.24-4.21l1.73-1.03c1.43.83 2.65 2.49 3.23 4.21z" class="color4c5c75 svgShape"></path><path fill="#f4f6f8" d="M9.971 38.568c-1.998-1.153-3.622-.227-3.629 2.068-.006 2.295 1.608 5.09 3.606 6.244 1.997 1.153 3.621.227 3.628-2.068.006-2.295-1.608-5.09-3.605-6.244z" class="color1d2943 svgShape"></path><path fill="#ffffff" d="M9.966 40.466c-1.086-.626-1.968-.123-1.972 1.124-.003 1.246.874 2.765 1.959 3.392 1.085.626 1.967.123 1.97-1.124.004-1.247-.872-2.765-1.957-3.392z" class="colorffffff svgShape"></path><g fill="#f4f6f8" class="color1d2943 svgShape"><path d="M42.026 16.706c-1.005-.58-1.916-.634-2.574-.252l-1.73 1.021c.658-.382 1.568-.328 2.574.252 1.997 1.153 3.61 3.949 3.604 6.244-.003 1.14-.405 1.942-1.055 2.32l1.73-1.022c.65-.377 1.052-1.18 1.056-2.32.006-2.295-1.608-5.09-3.605-6.243z" fill="#010001" class="color000000 svgShape"></path><path d="M40.296 17.727c-1.998-1.153-3.622-.227-3.629 2.068-.006 2.295 1.607 5.09 3.605 6.244 1.997 1.153 3.622.227 3.628-2.068.007-2.295-1.607-5.09-3.604-6.244z" fill="#010001" class="color000000 svgShape"></path></g><path fill="#6822a2" d="M43.115 16.777c-.01-3.502-.929-6.348-2.658-8.229a7.3 7.3 0 0 0-1.709-1.379l-.904-.525a7.3 7.3 0 0 1 1.709 1.38c1.73 1.88 2.649 4.725 2.658 8.228l.017 5.828.904.526-.017-5.829z" class="color4c5c75 svgShape"></path><path fill="#6822a2" d="m43.86 22.183-.73.42-.01-5.83c-.01-3.5-.93-6.34-2.66-8.22-2.82-3.06-7.44-3.19-12.38-.34-4.93 2.85-9.54 8.3-12.33 14.6-1.71 3.87-2.61 7.76-2.6 11.26l.02 5.83c-.24.04-.48.2-.73.42l-.91-.52-.01-5.83c-.01-3.67.93-7.76 2.73-11.82 2.92-6.59 7.75-12.32 12.93-15.3 4.23-2.45 8.24-2.8 11.18-1.1l.88.52c.66.38 1.27.86 1.81 1.45 1.82 1.98 2.78 4.96 2.79 8.63l.02 5.83z" class="color4c5c75 svgShape"></path><path fill="#f4f6f8" d="M28.08 7.375c5.175-2.987 10.024-2.855 12.975.353 1.813 1.973 2.777 4.957 2.788 8.63l.016 5.828-.727.42-.017-5.829c-.01-3.502-.929-6.348-2.658-8.229-2.814-3.06-7.44-3.185-12.373-.337-4.935 2.85-9.544 8.307-12.331 14.6-1.714 3.869-2.614 7.765-2.604 11.267l.017 5.829c-.232.036-.478.201-.728.42l-.017-5.828c-.01-3.673.934-7.758 2.73-11.816 2.923-6.598 7.757-12.321 12.93-15.308z" class="color1d2943 svgShape"></path><path fill="#6822a2" d="M40.663 15.352c-.01-3.502-.93-6.348-2.659-8.229a7.3 7.3 0 0 0-1.708-1.38l-.904-.524a7.3 7.3 0 0 1 1.708 1.38c1.73 1.88 2.65 4.725 2.66 8.228l.016 5.828.904.526-.017-5.829z" class="color4c5c75 svgShape"></path><path fill="#f4f6f8" d="M41.39 14.932c-.01-3.672-.974-6.656-2.787-8.629a7.648 7.648 0 0 0-1.814-1.457l.022.01-.904-.525c-2.936-1.706-6.95-1.35-11.183 1.094-5.173 2.986-10.006 8.71-12.928 15.308-1.798 4.057-2.742 8.142-2.731 11.815l.016 5.346.904.525c.256-.201.5-.352.728-.42l-.016-5.346c-.01-3.502.89-7.398 2.603-11.267 2.788-6.293 7.397-11.75 12.332-14.6 4.933-2.848 9.558-2.722 12.372.337 1.73 1.881 2.65 4.727 2.66 8.229l.016 5.829.727-.42-.017-5.829zm-8.172-11.11c-.058-.003-.116-.01-.175-.012.06.002.116.01.175.013zm2.556.545zm-1.303-.389c-.057-.011-.116-.018-.173-.028.057.01.116.017.173.028zM15.95 15.385zM31.828 3.844zm-1.545.232c-.041.009-.084.022-.125.031.042-.01.084-.022.125-.031zm-1.38.388c-.081.027-.162.051-.244.08.082-.029.163-.053.245-.08zm-1.584.62-.278.132c.093-.044.186-.09.278-.131z" class="color1d2943 svgShape"></path><path fill="#6822a2" d="M35.907 4.331c-2.936-1.706-6.95-1.35-11.183 1.094-5.173 2.986-10.006 8.71-12.928 15.308-1.798 4.057-2.742 8.142-2.731 11.815l.016 5.346.904.525-.016-5.346c.1 0 .1 0 0 0-.01-3.672.933-7.757 2.73-11.815C15.622 14.66 20.456 8.937 25.63 5.95c4.231-2.443 8.246-2.8 11.182-1.093l-.904-.526z" class="color4c5c75 svgShape"></path><path fill="#f4f6f8" d="M25.628 5.95c5.174-2.987 10.024-2.855 12.975.353 1.813 1.973 2.777 4.957 2.787 8.63l.017 5.828-.727.42-.017-5.829c-.01-3.502-.93-6.348-2.659-8.229-2.814-3.06-7.44-3.185-12.372-.337-4.935 2.85-9.544 8.307-12.332 14.6-1.713 3.869-2.613 7.765-2.603 11.267L10.713 38c-.227.068-.472.219-.728.42l-.016-5.346c-.01-3.672.933-7.757 2.73-11.815C15.622 14.66 20.456 8.937 25.63 5.95z" class="color1d2943 svgShape"></path><path fill="#6cb5ff" d="m35.853 7.048 2.17 1.261c.591.344 1.134.78 1.62 1.309l-2.17-1.261a6.926 6.926 0 0 0-1.62-1.309z" class="colorffd06c svgShape"></path><path fill="#f451d6" d="M42.312 17.077c-1.617-.933-3.082-1.02-4.14-.405l-1.916 1.113c1.058-.614 2.523-.528 4.14.406 3.212 1.855 5.808 6.35 5.797 10.043-.005 1.833-.653 3.124-1.697 3.73l1.917-1.113c1.044-.607 1.691-1.897 1.697-3.73.01-3.693-2.586-8.19-5.798-10.044z" class="colorf45170 svgShape"></path><path fill="#d2d4d6" d="M40.395 18.19c-3.213-1.854-5.825-.365-5.836 3.327-.01 3.69 2.585 8.187 5.799 10.042 3.212 1.855 5.825.365 5.835-3.325.01-3.692-2.585-8.188-5.798-10.043z" class="colord6d4d2 svgShape"></path><path fill="#f4f6f8" d="M46.19 28.233c0 1.83-.65 3.12-1.69 3.73l-1.92 1.11-8.24-14.17 1.92-1.12c1.05-.61 2.52-.53 4.14.41 3.21 1.85 5.8 6.35 5.79 10.04z" class="colorf8f9fe svgShape"></path><path fill="#e7f1fc" d="M44.277 29.348c-.011 3.69-2.624 5.18-5.836 3.325-3.212-1.856-5.81-6.352-5.798-10.042.01-3.693 2.623-5.181 5.837-3.327 3.212 1.855 5.808 6.352 5.797 10.044z" class="colore9e7fc svgShape"></path><path fill="#f4f6f8" d="M40.356 30.888c-2.843-1.642-5.237-5.787-5.226-9.05.001-.535.076-1.493.533-2.18-1.682.149-1.876 2.113-1.878 2.976-.01 3.263 2.384 7.408 5.227 9.05.73.422 1.435.645 2.038.645.757 0 1.242-.341 1.552-.806-.067.006-.136.01-.208.01-.603 0-1.308-.223-2.038-.645z" class="colorf8f9fe svgShape"></path><path fill="#cadcef" d="M37.909 20.293c-.731-.421-1.437-.645-2.04-.645-.072 0-.14.004-.206.01-.457.687-.532 1.645-.533 2.18-.01 3.263 2.383 7.408 5.226 9.05.73.422 1.435.645 2.038.645.072 0 .14-.004.208-.01.457-.687.532-1.644.533-2.178.01-3.266-2.384-7.41-5.226-9.052z" class="colorcaccef svgShape"></path><path fill="#c0c2c4" d="M12.016 37.591c-.092-.053-.177-.058-.237-.023l-.112.065c.06-.035.007.29.1.343.184.106.155.041.155.251 0 .106.276.182.216.217l.112-.065c.06-.035.097-.109.097-.214a.73.73 0 0 0-.33-.574z" class="colorc4c2c0 svgShape"></path><path fill="#e6e7e9" d="M11.904 37.656c-.184-.106-.334-.02-.334.19s.148.469.332.575c.184.106.333.02.333-.191a.73.73 0 0 0-.331-.574z" class="colore9e8e6 svgShape"></path><path fill="#c0c2c4" d="M9.576 36.374c-.093-.054-.177-.058-.238-.023l-.112.065c.06-.035-.031.302.061.355.184.106.193.018.192.228 0 .106.278.193.218.228l.112-.065c.06-.035.097-.11.098-.214a.73.73 0 0 0-.331-.574z" class="colorc4c2c0 svgShape"></path><path fill="#e6e7e9" d="M9.463 36.44c-.184-.107-.333-.022-.334.189 0 .21.148.469.332.575.184.106.333.02.334-.191a.73.73 0 0 0-.332-.574z" class="colore9e8e6 svgShape"></path><path fill="#f451d6" d="M20.11 44.613c0 2.06-.73 3.51-1.9 4.19l-2.15 1.26c1.17-.69 1.9-2.14 1.9-4.19.01-2.99-1.5-6.44-3.69-8.92v-3.19c3.29 2.28 5.86 6.97 5.84 10.85z" class="colorf45170 svgShape"></path><path fill="#5b50ff" d="M34.17 39.403c-.18.08-3.46 1.6-5.25.67-2.75 1.38-5.17 1.52-6.78.57-.16-.09-.32-.2-.46-.31.08.07.17.14.26.2l-2.04-1.17c-1.28-.76-2.07-2.21-2.07-4.26-.02-4.85 4.28-11.28 9.6-14.35 3.07-1.77 5.81-2.03 7.57-1l2.04 1.18c-.08-.04-.16-.07-.24-.1.13.04.25.1.36.17 1.34.74 2.14 2.19 2.15 4.28.01 4.05-2.97 9.18-7.04 12.55.27.81.81 1.57 1.9 1.57z" class="color5094ff svgShape"></path><path fill="#6257fe" d="M37.241 21.04c-1.773-1.024-2.291 6.343-5.372 8.116-5.308 3.07-7.138 2.617-7.128 7.471.01 2.058-3.898 3.27-2.6 4.02l-2.238-1.288c-1.287-.76-2.068-2.206-2.068-4.253-.02-4.854 4.274-11.28 9.592-14.351 3.071-1.773 5.815-2.037 7.577-1.003l2.237 1.288z" class="color57b3fe svgShape"></path><path fill="#5046e4" d="m31.933 38.103 2.237 1.298c-.37 0-.675-.084-.928-.232l-2.237-1.298c.253.148.559.232.928.232z" class="color497bfe svgShape"></path><path fill="#5b50ff" d="M21.68 40.333c.14.11.3.22.46.31a1.28 1.28 0 0 1-.2-.11c-.09-.06-.18-.13-.26-.2zm15.48-19.33c-.11-.07-.23-.13-.36-.17.08.03.16.06.24.1.04.02.08.04.12.07z" class="color5094ff svgShape"></path><path fill="#5b50ff" d="M21.68 40.333c.14.11.3.22.46.31a1.28 1.28 0 0 1-.2-.11c-.09-.06-.18-.13-.26-.2zm15.48-19.33c-.11-.07-.23-.13-.36-.17.08.03.16.06.24.1.04.02.08.04.12.07z" class="color5094ff svgShape"></path><path fill="#5b50ff" d="M29.658 22.056c5.316-3.069 9.639-1.625 9.652 3.229.012 4.049-2.97 9.182-7.036 12.553.265.809.807 1.566 1.894 1.567-.173.08-3.458 1.6-5.249.665-4.946 2.483-8.844.95-8.857-3.672-.014-4.854 4.28-11.273 9.596-14.342z" class="color5094ff svgShape"></path><path fill="#f4f6f8" d="M16.825 32.814v3.369c1.97 2.432 3.298 5.637 3.29 8.435-.006 2.06-.733 3.509-1.906 4.19l2.153-1.25c1.172-.682 1.9-2.132 1.906-4.19.01-3.728-2.347-8.178-5.443-10.554z" class="colorf8f9fe svgShape"></path><path fill="#e7f1fc" d="M26.87 33.873c.01.94-.65 2.08-1.47 2.56-.44.25-.83.26-1.1.06.01.02.03.03.04.04l-.87-.51c-.27-.15-.44-.49-.44-.94 0-.95.66-2.1 1.49-2.57.41-.24.78-.25 1.05-.1l.84.49c-.01-.01-.02-.01-.03-.01.3.14.49.48.49.98zm5-2.88c0 .94-.66 2.08-1.48 2.55-.41.24-.78.27-1.05.1l-.1-.06-.77-.45c-.27-.15-.43-.47-.43-.94 0-.95.65-2.08 1.46-2.55.43-.24.8-.27 1.07-.1l.81.47.02.01.02.02h.01c.27.15.44.48.44.95zm4.99-2.89c.01.94-.66 2.09-1.47 2.56-.44.25-.83.26-1.1.07.01.02.03.03.05.04l-.88-.51c-.26-.15-.42-.49-.42-.96 0-.93.65-2.08 1.47-2.55.4-.24.79-.25 1.06-.1l.8.47c.01 0 .02.01.03.02.28.14.46.47.46.96z" class="colore9e7fc svgShape"></path><path fill="#e7f1fc" d="M25.388 33.026c.818-.473 1.483-.094 1.486.847.003.94-.658 2.085-1.477 2.558-.817.472-1.483.092-1.485-.848-.003-.94.658-2.085 1.476-2.557zm4.994-2.884c.819-.473 1.484-.093 1.487.847.002.94-.659 2.085-1.477 2.558-.818.472-1.483.092-1.486-.848-.002-.94.659-2.085 1.476-2.557z" class="colore9e7fc svgShape"></path><path fill="#ffffff" d="m25.57 32.412.877.507c-.27-.153-.642-.136-1.064.1-.81.474-1.47 1.623-1.47 2.569 0 .456.17.794.423.946l-.862-.507c-.27-.152-.439-.49-.439-.946 0-.946.659-2.095 1.487-2.568.405-.236.777-.253 1.047-.101zm5-2.872.861.507c-.27-.17-.642-.136-1.047.101-.811.473-1.487 1.605-1.47 2.55 0 .474.152.795.422.947l-.861-.507c-.27-.152-.44-.473-.44-.946 0-.946.66-2.078 1.47-2.55.422-.237.794-.271 1.064-.102zm5.861-2.382c-.27-.152-.641-.135-1.047.101-.828.473-1.487 1.622-1.487 2.551 0 .473.17.794.44.963l-.879-.507c-.253-.152-.422-.49-.422-.963 0-.929.659-2.078 1.47-2.55.405-.237.794-.254 1.064-.102l.861.507z" class="colorffffff svgShape"></path><path fill="#e7f1fc" d="M35.377 27.258c.819-.472 1.484-.093 1.487.847.002.94-.659 2.086-1.477 2.558-.818.472-1.483.092-1.486-.847-.002-.94.658-2.086 1.476-2.558z" class="colore9e7fc svgShape"></path><path fill="#ffffff" d="M19.913 45.77c-.604 0-1.142.248-1.528.668a2.274 2.274 0 0 0-.635 1.608c0-1.252-.966-2.276-2.162-2.276.592 0 1.142-.26 1.534-.66.38-.414.628-.992.628-1.615 0 .623.236 1.201.635 1.614.386.4.924.661 1.528.661z" class="colorffffff svgShape"></path><path fill="#6822a2" d="M38.36 5.756c-2.937-1.706-6.952-1.35-11.183 1.094-5.173 2.986-10.007 8.71-12.93 15.308-1.796 4.057-2.74 8.142-2.73 11.815l.017 5.829.904.525-.017-5.828c.1 0 .1 0 0 0-.01-3.673.934-7.758 2.73-11.816 2.923-6.598 7.757-12.321 12.93-15.308 4.231-2.443 8.246-2.8 11.182-1.093l-.904-.526z" class="color4c5c75 svgShape"></path><path fill="#fe1fd5" d="m41.51 7.053-1.87 2.56c-2.67-2.9-7.05-3.02-11.73-.32-4.68 2.71-9.05 7.88-11.7 13.85l-1.88-.4-3.37-1.92c3.07-6.93 8.14-12.93 13.57-16.07 4.44-2.56 8.65-2.93 11.73-1.14l3.22 1.84c.74.41 1.43.94 2.03 1.6z" class="colorfebc1f svgShape"></path><path fill="#6cb5ff" d="M36.258 3.609c-3.08-1.79-7.292-1.416-11.732 1.147-5.427 3.134-10.5 9.138-13.565 16.062l3.374 1.928C17.4 15.822 22.473 9.817 27.9 6.684c4.44-2.564 8.652-2.938 11.732-1.148L36.258 3.61z" class="colorffd06c svgShape"></path><path fill="#fe1fd5" d="M27.9 6.684c5.429-3.135 10.517-2.996 13.613.37l-1.87 2.564c-2.669-2.903-7.056-3.022-11.734-.32-4.68 2.701-9.052 7.878-11.696 13.847l-1.878-.4C17.4 15.823 22.473 9.818 27.9 6.685z" class="colorfebc1f svgShape"></path></svg>