<svg xmlns="http://www.w3.org/2000/svg" enable-background="new 0 0 65 65" viewBox="0 0 65 65" id="Inventory"><polygon fill="#f4f6f8" points="4.131 40.822 6.808 42.426 6.767 29.242 4.09 27.638" class="color7e8a8c svgShape"></polygon><path fill="#a0a5aa" d="M4.7407002 17.7200451c-.3735027.2178707-.6785741.7408123-.6785741 1.1765518l.0275092 8.741785 2.676908 1.6035919-.0275092-8.745472c0-.4357395.3050332-.9586811.6785359-1.1765518l4.5714741-2.6398239-2.6732597-1.6014633L4.7407002 17.7200451zM4.1991024 62.4176674c0 .2116394.0747004.3672714.199214.4357414l2.6768703 1.5999451c-.1245136-.0685501-.1992145-.2241821-.1992145-.4357452l-.0264454-8.4079475-2.6769075-1.6036682L4.1991024 62.4176674z" class="colora0a8aa svgShape"></path><polygon fill="#a0a5aa" points="4.173 54.006 6.85 55.61 6.808 42.426 4.131 40.822" class="colora0a8aa svgShape"></polygon><polygon fill="#f4f6f8" points="9.316 15.079 11.989 16.68 21.894 10.961 19.222 9.36" class="color7e8a8c svgShape"></polygon><path fill="#a0a5aa" d="M37.5604477,2.1443403l-2.670639-1.5999057
												c-0.1245155-0.0684692-0.2988014-0.0622378-0.4855537,0.049813l-4.557188,2.6310086l2.671133,1.6002095
												l4.556694-2.6313124C37.2678757,2.0821025,37.4359703,2.0758712,37.5604477,2.1443403z" class="colora0a8aa svgShape"></path><polygon fill="#948d99" points="19.222 9.36 21.894 10.961 32.518 4.825 29.847 3.225" class="color8d9799 svgShape"></polygon><g fill="#010001" class="color000000 svgShape"><path fill="#746d7a" d="M37.0767555,2.1946952c0.3769226-0.2176161,0.6831017-0.0439684,0.68433,0.3891666
												l0.1366196,43.5213356c0.0012245,0.4331322-0.3029671,0.9600182-0.6798897,1.1776352L7.5585961,64.4065933
												c-0.3762536,0.2172241-0.6824355,0.0427475-0.6836634-0.3903885L6.7383132,20.4948673
												c-0.0012283-0.4331341,0.3029675-0.9591827,0.6792212-1.1764126L37.0767555,2.1946952z" class="color6d797a svgShape"></path><polygon fill="#f4f6f8" points="9.231 21.147 35.282 6.106 35.405 45.454 9.354 60.495" class="colorffffff svgShape"></polygon></g><g fill="#010001" class="color000000 svgShape"><g fill="#010001" class="color000000 svgShape"><path fill="#51a8ff" d="M30.090292,6.3190227c-0.3360672-0.1964178-0.8026905-0.1691699-1.3181553,0.1283121
														l-2.9235935,1.6882892l-1.0675545-0.6210403l2.9247017-1.6882896
														c0.5143566-0.2974539,0.9809818-0.3247294,1.3181572-0.1283116L30.090292,6.3190227z" class="colorffd651 svgShape"></path><path fill="#dd40c0" d="M30.0900898 6.3185601c-.3361511-.1929827-.8030491-.1680956-1.3197594.1307449l-1.0645008-.62253c.5166721-.29884.9835682-.3237276 1.3197594-.1307449L30.0900898 6.3185601zM23.8707275 7.2727551c.0011082.4688969-.3281403 1.0399947-.7368851 1.2761617-.2043457.1180553-.390564.1294203-.5256672.0510864l-.4821682-.2807894c.1339951.0783339.3202114.0669966.5256653-.0510864.4076385-.236167.7379951-.8072648.736887-1.2761617-.0011101-.2327576-.0828819-.396245-.2157116-.4734707l.4821701.2807894C23.7878475 6.8764825 23.8695641 7.0399976 23.8707275 7.2727551z" class="colorddb040 svgShape"></path><path fill="#51a8ff" d="M25.0458527,5.624187c-0.4927902-0.2815709-1.1705799-0.2395763-1.919939,0.1941447
														c-1.4964447,0.8628969-2.7067184,2.9587965-2.7021713,4.6800165l0.0022163,0.7595596l-1.0675526-0.6210403
														l-0.0022736-0.7595596c-0.0045452-1.72122,1.206892-3.8159833,2.7033367-4.6800165
														c0.7493591-0.4325848,1.4271469-0.4745793,1.919939-0.1941447L25.0458527,5.624187z" class="colorffd651 svgShape"></path><path fill="#dd40c0" d="M20.422224,10.4957476l0.0062313,0.7594681l-1.0707703-0.6162987V9.8794498
														c-0.0062313-1.7244196,1.2077084-3.8161101,2.7017956-4.6814356l1.0645008,0.6225295
														C21.6299324,6.6796379,20.422224,8.7775593,20.422224,10.4957476z" class="colorddb040 svgShape"></path><path fill="#489bef" d="M28.7722321,6.4391608c1.0235615-0.5909534,1.8562927-0.1155968,1.8596268,1.0605445
														l0.0051517,3.1810732l-14.9771509,8.6470623l-0.0051498-3.1810741
														c-0.003334-1.1761408,0.8246889-2.6103354,1.8482428-3.2012835l2.9228001-1.68748l-0.0021534-0.7596684
														c-0.004879-1.7209053,1.2060986-3.8167186,2.7022991-4.6805511
														c0.7495213-0.4327359,1.4275894-0.4746337,1.9199219-0.1940675
														c0.4916267,0.2801905,0.7975712,0.8844628,0.8000088,1.744092l0.0021534,0.7596684L28.7722321,6.4391608z
														 M23.1343536,8.5486622c0.4081097-0.2356224,0.737587-0.8071394,0.7362576-1.2761068
														c-0.0013275-0.4681125-0.3329601-0.6571002-0.7410698-0.4214778
														c-0.4081097,0.2356219-0.7383327,0.8067322-0.7370052,1.2748446
														C22.3938656,8.5948896,22.726244,8.7842846,23.1343536,8.5486622L23.1343536,8.5486622z" class="colorefc348 svgShape"></path><path fill="#51a8ff" d="M20.4259586,11.2579079l-2.9235916,1.6871805
														c-1.0229473,0.591527-1.8506413,2.0254936-1.8472042,3.2017546l0.0045462,3.1809826l-1.0665007-0.6210403
														l-0.0056543-3.1809826c-0.0033817-1.1762342,0.8254204-2.6102276,1.8484221-3.2006178l2.92243-1.6883173
														L20.4259586,11.2579079z" class="colorffd651 svgShape"></path><path fill="#dd40c0" d="M15.6536255,16.1483269l0.0062313,3.181118l-1.0645008-0.62253l-0.0062323-3.1811171
														c-0.0062313-1.17659,0.821744-2.6084003,1.8488951-3.199811l1.064539,0.6162977
														C16.4815998,13.5336952,15.6536255,14.9717379,15.6536255,16.1483269z" class="colorddb040 svgShape"></path></g></g><g fill="#010001" class="color000000 svgShape"><path fill="#dd40c0" d="M18.4759655,14.3243608c0.0760498,0.1188965,0.1304321,0.2648926,0.1309814,0.4632568
								c0.0018311,0.6456299-0.4522095,1.4320059-1.0064697,1.7520742
								c-0.0725098,0.0418701-0.1367188,0.0479736-0.2052002,0.0709229
								c0.1750488,0.2662354,0.5050049,0.3343506,0.8927002,0.1104736c0.5542603-0.3199463,1.0083008-1.1064444,1.0064697-1.7519522
								C19.29286,14.4035845,18.9354382,14.1660357,18.4759655,14.3243608z" class="colorddb040 svgShape"></path><path fill="#746d7a" d="M18.6069469,14.7876177c-0.0005493-0.1983643-0.0549316-0.3443604-0.1309814-0.4632568
								c-0.0651245,0.0224609-0.1257935,0.0275879-0.1945801,0.0673828
								c-0.5618286,0.3243408-1.0235596,1.1064453-1.0217285,1.7520742c0.0005493,0.2000732,0.0570068,0.34729,0.1356201,0.4667969
								c0.0684814-0.0229492,0.1326904-0.0290527,0.2052002-0.0709229
								C18.1547375,16.2196236,18.608778,15.4332476,18.6069469,14.7876177z" class="color6d797a svgShape"></path></g><g fill="#010001" class="color000000 svgShape"><path fill="#dd40c0" d="M29.0476017,8.2197151c0.0760498,0.1188965,0.1304321,0.2648926,0.1309814,0.4632568
								c0.0018311,0.6456299-0.4522095,1.4320068-1.0064697,1.7520752
								c-0.0725098,0.0418701-0.1367188,0.0479736-0.2052002,0.0709229
								c0.1750488,0.2662354,0.5050049,0.3343506,0.8927002,0.1104736c0.5542603-0.3199463,1.0083008-1.1064453,1.0064697-1.7519531
								C29.8644962,8.2989388,29.5070744,8.0613899,29.0476017,8.2197151z" class="colorddb040 svgShape"></path><path fill="#746d7a" d="M29.1785831,8.682972c-0.0005493-0.1983643-0.0549316-0.3443604-0.1309814-0.4632568
								c-0.0651245,0.0224609-0.1257935,0.0275879-0.1945801,0.0673828
								c-0.5618286,0.3243408-1.0235596,1.1064453-1.0217285,1.7520752c0.0005493,0.2000732,0.0570068,0.34729,0.1356201,0.4667969
								c0.0684814-0.0229492,0.1326904-0.0290527,0.2052002-0.0709229
								C28.7263737,10.1149788,29.1804142,9.3286018,29.1785831,8.682972z" class="color6d797a svgShape"></path></g><g fill="#010001" class="color000000 svgShape"><polygon fill="#d2d4d6" points="28.8 25.667 28.8 27.356 33.756 24.494 33.756 22.805" class="colord6d4d2 svgShape"></polygon><polygon fill="#d2d4d6" points="28.8 16.654 28.8 18.338 33.756 15.477 33.756 13.793" class="colord6d4d2 svgShape"></polygon><polygon fill="#72a4d6" points="15.93 40.775 15.944 45.521 11.813 47.906 11.799 43.159" class="color81d672 svgShape"></polygon><polygon fill="#d2d4d6" points="26.429 43.935 10.88 52.912 10.885 55.375 26.429 46.401" class="colord6d4d2 svgShape"></polygon><polygon fill="#d2d4d6" points="33.756 31.823 18.182 40.815 18.186 42.496 33.756 33.507" class="colord6d4d2 svgShape"></polygon></g><g fill="#010001" class="color000000 svgShape"><polygon fill="#51a8ff" points="27.967 40.002 41.507 47.87 55.135 40.002 41.595 32.133" class="colorffd651 svgShape"></polygon><polygon fill="#489bef" points="27.967 40.002 28.01 55.037 41.549 62.906 41.507 47.87" class="colorefc348 svgShape"></polygon><polygon fill="#dd40c0" points="41.507 47.87 41.549 62.906 55.178 55.038 55.135 40.002" class="colorddb040 svgShape"></polygon><polygon fill="#484649" points="51.279 50.77 51.262 49.226 45.405 52.608 45.423 54.151" class="color494846 svgShape"></polygon><polygon fill="#f25ad6" points="33.624 36.739 47.169 44.601 47.169 49.115 48.336 47.39 49.478 47.87 49.478 43.264 35.934 35.403" class="colorf25a5a svgShape"></polygon></g><g fill="#010001" class="color000000 svgShape"><path fill="#484649" d="M13.9188337,37.3683929l-3.7351608,5.4108849
								c0.0165176-0.0249252-0.0194397-0.0901489-0.1199894-0.1904907c-0.249033-0.2558174-0.8104725-0.6580505-1.2477207-0.896843
								c-0.2682619-0.1450844-0.4288378-0.1973495-0.454772-0.1574974l3.7351608-5.4108887
								c0.0283842-0.0399246,0.188961,0.0123558,0.4547882,0.1574974c0.439683,0.2387352,0.9986248,0.6385612,1.2501698,0.8967705
								C13.899394,37.2782249,13.9378033,37.3434029,13.9188337,37.3683929z" class="color494846 svgShape"></path><path fill="#a50b89" d="M10.3004332,41.8065262c-0.4377594-0.2381363-0.9970636-0.6399918-1.2493591-0.897934
								c-0.2513847-0.2570114-0.1001234-0.2723274,0.337636-0.0341911c0.4393444,0.2389984,0.9986486,0.6408539,1.2500334,0.8978653
								C10.8910389,42.0302086,10.7397776,42.0455246,10.3004332,41.8065262z" class="colord8463f svgShape"></path><path fill="#ce3ab3" d="M5.1298556,50.335453c-0.8309236-0.4520111-1.8922615-1.2145767-2.3706543-1.7036743
									c-0.4771595-0.4878387-0.1901238-0.5169067,0.6408-0.0648918c0.8330696,0.4531784,1.8922594,1.2145767,2.3694193,1.7024155
									C6.2478132,50.7584,5.9629254,50.7886353,5.1298556,50.335453z" class="colorcea03a svgShape"></path><path fill="#6822a2" d="M24.2035828,20.6578388c-1.2965069-0.751976-3.0903988-0.645895-5.0705242,0.4973831
								c-3.9343109,2.2724266-7.1142874,7.7814026-7.1001444,12.3003178
								c0.0047188,2.2488441,0.7991228,3.828228,2.0767679,4.5731392l-1.3214312-0.7706108
								c-1.2776451-0.7425499-2.0720491-2.3242798-2.0791283-4.5707779
								c-0.0117836-4.5212746,3.1658335-10.0302505,7.1025038-12.3026772
								c1.9801254-1.1432781,3.7740173-1.2493591,5.0681648-0.4950256L24.2035828,20.6578388z" class="color555555 svgShape"></path><path fill="#484649" d="M10.7091341,32.6872711c0.0070868,2.2465019,0.8014755,3.8282394,2.0791302,4.5707893
									l1.3214006,0.7705879c-1.2776108-0.7449112-2.0720434-2.3242836-2.0767679-4.5731049
									c-0.0012255-0.3979187,0.0306664-0.8051949,0.0772991-1.21558l-1.323369-0.7679653
									C10.7401495,31.8822517,10.7080841,32.2894402,10.7091341,32.6872711z" class="color494846 svgShape"></path><path fill="#2d2b2d" d="M10.7868271,31.4719982l1.323369,0.7679653
									c0.2140951-1.8846779,0.9095736-3.8674355,1.9367371-5.6746826l-1.32372-0.7682285
									C11.6964874,27.6042557,11.0014029,29.5869694,10.7868271,31.4719982z" class="color2d2c2b svgShape"></path><path fill="#484649" d="M24.2035999,20.6578255l-1.3238087-0.7682285
									c-1.2941456-0.7543621-3.0880508-0.6482773-5.0681839,0.4949894
									c-0.2528973,0.1459808-0.5023823,0.3062668-0.7483673,0.4778404l1.3244629,0.7686214
									c0.2450237-0.1708717,0.4935017-0.3303719,0.7453499-0.4758282
									C21.1131859,20.0119553,22.9070892,19.9058704,24.2035999,20.6578255z" class="color494846 svgShape"></path><path fill="#383638" d="M12.7232132,25.7970524l1.32372,0.7682285
									c1.1266422-1.9822311,2.6430197-3.7502384,4.3407698-4.9342327l-1.3244629-0.7686214
									C15.3651838,22.0468578,13.8493748,23.8147774,12.7232132,25.7970524z" class="color383736 svgShape"></path><path fill="#211f21" d="M24.2008705,20.6580582c-0.0645256-0.0430031-0.1361828-0.0788307-0.2078819-0.1147022
								c-0.0573082-0.0214806-0.1218338-0.0501785-0.1791859-0.0788307
								c-0.164835-0.0716572-0.3368454-0.1290092-0.5160313-0.1720123
								c-0.0716991-0.0215225-0.1433563-0.0358276-0.2150135-0.0430012
								c-0.0788746-0.0215244-0.1648788-0.0358295-0.250885-0.0430031c-0.0071735,0-0.0071735,0-0.0143051,0
								c-0.043045-0.0071735-0.0931797-0.014349-0.1433563-0.0215225c-0.028698,0-0.0573521-0.0071316-0.0860043,0
								c-0.0860062-0.0071316-0.1648808-0.0143051-0.250885-0.0143051c-0.0471153,0-0.1003113,0.0111542-0.1484756,0.0128613
								c-0.1952839,0.0066051-0.3930607,0.0218735-0.5969181,0.0516205c0,0-0.0071754,0-0.014349,0
								c-0.2508411,0.0358276-0.5160313,0.1003532-0.7812214,0.1863594
								c-0.1290073,0.0358276-0.2651901,0.0788307-0.4013729,0.1361809c-0.1361809,0.0501785-0.2795391,0.1003551-0.41572,0.1648369
								c-0.2795391,0.1147022-0.5590782,0.2580605-0.845747,0.4300709
								c-3.9348936,2.2720509-7.117218,7.7837791-7.1029129,12.2992287c0,0.1935349,0.0071745,0.3798904,0.0215235,0.5662498
								c0,0.0214806,0,0.0501366,0.0071745,0.0788307c0.0071745,0.1720123,0.0286531,0.3368492,0.0501766,0.4945526
								c0,0.0214806,0,0.0358276,0.0071306,0.0573082c0.0215235,0.1290512,0.0430031,0.250885,0.0645256,0.3655434
								c0.0071745,0.0358734,0.014349,0.0645256,0.0214796,0.1003571c0.028698,0.1648331,0.0717001,0.3225403,0.1218777,0.4802017
								c0.0143051,0.0358734,0.0214787,0.0645256,0.0358276,0.1003532c0.0286541,0.1003532,0.0645256,0.1935349,0.1003542,0.2867126
								v0.0071754c0.0071745,0.0214806,0.0143051,0.0358276,0.0214796,0.0573082
								c0.0358276,0.0860062,0.0717001,0.179184,0.1075287,0.2651901c0.0501766,0.0860062,0.0931787,0.179184,0.1433563,0.2723656
								c0.0501766,0.0931778,0.1003103,0.179184,0.1576614,0.2580566c0.0501776,0.0788307,0.1075287,0.1648369,0.1648359,0.2364922
								c0,0,0,0.0071754,0.0071745,0.0143509c0.0430031,0.0573502,0.0931797,0.1146584,0.1361828,0.1648369
								c0.0645256,0.0716972,0.1290073,0.1433563,0.2007074,0.2150116c0.0788307,0.0860481,0.1576614,0.1648788,0.2508411,0.2365379
								c0.0501776,0.0429993,0.1147032,0.0860023,0.1648369,0.12183c0.0717001,0.057354,0.1433563,0.1075287,0.2150564,0.1505318
								c1.304471,0.8027458,3.1249733,0.7167397,5.146183-0.4515495c3.9420681-2.272049,7.1243916-7.7766037,7.1100426-12.2992268
								C26.2793884,22.9802876,25.4838181,21.3962765,24.2008705,20.6580582z M15.3921146,36.6843414
								c-0.3941975,0-0.7453928-0.0716591-1.0751085-0.1935349c-0.0214796-0.0071297-0.0430031-0.0214806-0.0644827-0.0286522
								c-0.69526-0.6880875-1.0751085-1.8133736-1.082283-3.2826805c-0.0071745-3.9993744,2.8096066-8.8947163,6.2929497-10.901577
								c0.9317951-0.5375557,1.8491993-0.8242683,2.6519432-0.8242683c0.4228954,0,0.8027458,0.0788307,1.1468105,0.2293606
								c0.5160313,0.5089016,0.8600521,1.275774,1.0034084,2.2433987c0.0501766,0.3225422,0.071701,0.6737366,0.071701,1.0392818
								c0,0.7095642-0.0860062,1.454958-0.250885,2.2003937c-0.5590343,2.5372429-2.0140362,5.1461849-3.8775425,7.0096874
								c-0.1505299,0.1433601-0.3010616,0.2867165-0.4515495,0.4228973
								c-0.5447273,0.4945526-1.1181107,0.9245796-1.7130165,1.2686005
								c-0.1146603,0.0645256-0.2293625,0.1290054-0.3511963,0.1863594c-0.2293606,0.12183-0.4587231,0.222187-0.6880856,0.3081894
								c-0.222187,0.0860062-0.4443741,0.1505318-0.6665611,0.2078857
								C16.0085449,36.6485138,15.6931772,36.6843414,15.3921146,36.6843414z" class="color21201f svgShape"></path><path fill="#6822a2" d="M25.1397972,25.5103531c0.0143051,3.9994183-2.8096504,8.8875885-6.2929935,10.8944473
								c-0.9317513,0.5447311-1.8491993,0.8314438-2.6519432,0.8314438c-0.20784,0-0.4013729-0.0215225-0.5877323-0.0573502
								c-0.5303802-0.1003571-0.9819298-0.3440208-1.3546047-0.7167397
								c0.0214796,0.0071716,0.0430031,0.0215225,0.0644827,0.0286522c0.3297157,0.1218758,0.6809111,0.1935349,1.0751085,0.1935349
								c0.3010626,0,0.6164303-0.0358276,0.9461021-0.1146584c0.222187-0.057354,0.4443741-0.1218796,0.6665611-0.2078857
								c0.2293625-0.0860023,0.458725-0.1863594,0.6880856-0.3081894c0.1218338-0.057354,0.236536-0.1218338,0.3511963-0.1863594
								c0.5949059-0.3440208,1.1682892-0.7740479,1.7130165-1.2686005c0.1504879-0.1361809,0.3010197-0.2795372,0.4515495-0.4228973
								c1.8635063-1.8635025,3.3185081-4.4724445,3.8775425-7.0096874c0.1720104-0.7454357,0.2580147-1.4908295,0.2580147-2.2003937
								c0-0.3727188-0.0286541-0.7167397-0.0788307-1.0392818c-0.1433563-0.9676247-0.4873772-1.7344971-1.0034084-2.2433987
								c0.4873772,0.20784,0.8887501,0.5519047,1.1897678,1.0249329
								C24.8960857,23.3960075,25.1326218,24.3421097,25.1397972,25.5103531z" class="color555555 svgShape"></path><path fill="#5046e4" d="M15.3921146,36.6843414c0.3010626,0,0.6164303-0.0358276,0.9461021-0.1146584
								c-0.3296719,0.0788307-0.6450396,0.12183-0.9461021,0.12183c-0.3941975,0-0.7525673-0.0716972-1.0751085-0.2007065
								C14.6467218,36.6126823,14.9979172,36.6843414,15.3921146,36.6843414z" opacity=".3" class="color267cb5 svgShape"></path><g fill="#010001" class="color000000 svgShape"><path fill="#0b00b5" d="M11.1335602,37.842205L3.7018073,48.7355576c0.416465,0.2474709,0.8597901,0.5486221,1.2487819,0.842205
						l7.4344215-10.8972473C11.9951878,38.3870201,11.5507689,38.0867462,11.1335602,37.842205z" class="color006cb5 svgShape"></path><path fill="#489bef" d="M5.9354258,45.4615326l-2.2336185,3.274025c0.416465,0.2474709,0.8597901,0.5486221,1.2487819,0.842205
						l2.2362871-3.2779198C6.7970529,46.0063477,6.3526344,45.7060738,5.9354258,45.4615326z" class="colorefc348 svgShape"></path><path fill="#4a0087" d="M10.8350353,37.6738663c-0.5067129-0.283474-0.8072939-0.3779221-0.8588705-0.3006668
						l-7.4346409,10.897686c0.0429151-0.077301,0.352114,0.0257225,0.8588712,0.2920494
						c0.0976853,0.0533714,0.1988707,0.1116829,0.3014119,0.1726227l7.4317532-10.8933525
						C11.0320253,37.7827072,10.9318027,37.72575,10.8350353,37.6738663z" class="color005e87 svgShape"></path><path fill="#dd40c0" d="M5.6854811,45.3295937c-0.5067134-0.283474-0.8558741-0.4143219-0.9074512-0.3370667
						l-2.2365057,3.2783585c0.0429151-0.077301,0.352114,0.0257225,0.8588712,0.2920494
						c0.0976853,0.0533714,0.1988707,0.1116829,0.3014119,0.1726227l2.2336185-3.274025
						C5.8338909,45.4020348,5.782248,45.3814774,5.6854811,45.3295937z" class="colorddb040 svgShape"></path><path fill="#0d00d1" d="M12.3850107,38.6805153L4.9505892,49.5777626
						c0.3320785,0.2506218,0.6247411,0.4952927,0.8202868,0.6942978c0.1803226,0.1889381,0.2576222,0.3091965,0.2232375,0.3607292
						l7.4347281-10.8976822c0.0343838-0.0515366-0.0343409-0.1717491-0.2233248-0.360733
						C13.0099707,39.1752853,12.7171764,38.9306107,12.3850107,38.6805153z" class="color0074d1 svgShape"></path><path fill="#51a8ff" d="M7.1868763,46.2998428l-2.2362871,3.2779198c0.3320785,0.2506218,0.6247411,0.4952927,0.8202868,0.6942978
						c0.1803226,0.1889381,0.2576222,0.3091965,0.2232375,0.3607292l2.2365937-3.2783546
						c0.0343838-0.0515327,0.0142384-0.1353493-0.1747456-0.3243332C7.8604159,46.8310127,7.519042,46.5499382,7.1868763,46.2998428
						z" class="colorffd651 svgShape"></path></g></g><g fill="#010001" class="color000000 svgShape"><path fill="#f4f6f8" d="M18.7409077,25.2763767c1.7335224-1.0008488,3.1408348-0.198864,3.1464615,1.786047
						c0.0056477,1.9919472-1.3925266,4.413681-3.1260471,5.4145317c-1.7304497,0.999073-3.1347084,0.1953239-3.1403551-1.7966232
						C15.6153393,28.6954231,17.010458,26.2754536,18.7409077,25.2763767z M18.7592163,31.7343731
						c1.3751793-0.7939606,2.4833279-2.7168884,2.4788494-4.2970734c-0.0044708-1.5766659-1.119873-2.2123013-2.4950523-1.4183407
						c-1.3721161,0.7921906-2.4802742,2.7115993-2.4758053,4.2882652
						C16.2716885,31.8874092,17.3871021,32.5265656,18.7592163,31.7343731" class="colorffffff svgShape"></path><path fill="#f25ad6" d="M22.688406,26.1029053c0.2488804,0.1347923,0.2501469,0.5817585,0.0089493,0.9959621
						c-0.1862507,0.3084621-0.2374401,0.6482258-0.1386738,0.855587c0.1418972,0.2811604-0.0100555,0.784853-0.325119,1.1077595
						c-0.2324715,0.2399693-0.3848705,0.5888157-0.3809891,0.8756332c0.0071316,0.3878155-0.258646,0.8546047-0.5909882,1.0464821
						c-0.2752914,0.1586456-0.5008545,0.4608402-0.5910568,0.7816315c-0.0930195,0.3284569-0.3162537,0.622345-0.553669,0.7594147
						c-0.0803967,0.0464172-0.1624222,0.0748672-0.2415714,0.0804291c-0.0800495,0.0067635-0.1619301,0.0348663-0.2432899,0.0818367
						c-0.1585045,0.0915031-0.3151035,0.2546921-0.430088,0.4585152c-0.1205635,0.2159004-0.2765675,0.3755913-0.4331512,0.465992
						c-0.1565838,0.0904045-0.3137474,0.1115227-0.433588,0.0414734c-0.1188278-0.0758667-0.274519-0.0587616-0.4330006,0.0327377
						c-0.0813675,0.0469666-0.1634369,0.1135216-0.2412472,0.1979065c-0.0832138,0.0902786-0.16366,0.1550255-0.2428665,0.2007561
						c-0.2381897,0.137516-0.4656506,0.1035919-0.5606441-0.1140327c-0.0917435-0.2192497-0.3182697-0.2604294-0.5634766-0.1188812
						c-0.3594828,0.2078438-0.6299934,0.0508156-0.625042-0.3335381c0.002223-0.3009148-0.1485987-0.4746971-0.381649-0.4423714
						c-0.318944,0.0396118-0.4732599-0.2872581-0.3364534-0.7258034c0.1003132-0.3258209,0.0504313-0.6072311-0.1308308-0.6999874
						c-0.2488718-0.1347866-0.2501383-0.5817528-0.012022-0.9941883c0.1893225-0.310236,0.2374487-0.6482296,0.1386919-0.8555965
						c-0.1419144-0.2811508,0.0069838-0.7830791,0.3251009-1.1112747c0.2355337-0.2417374,0.3848791-0.5888195,0.3809996-0.8721123
						c-0.0071516-0.3914375,0.2615948-0.8598232,0.591114-1.0500717c0.2751637-0.1585712,0.5007172-0.460762,0.590929-0.7815666
						c0.093441-0.3299141,0.3199749-0.6259823,0.5581379-0.763485c0.0792332-0.0457458,0.15975-0.0739403,0.2370834-0.0798721
						c0.0841827-0.0067997,0.16642-0.03549,0.2478027-0.0824776c0.1584568-0.0914841,0.3136978-0.2523384,0.428648-0.4561253
						c0.1220951-0.2167835,0.2788658-0.376915,0.4354477-0.4673195c0.1565838-0.0904026,0.3129826-0.1110783,0.4312916-0.040144
						c0.1188107,0.0758667,0.2758007,0.0564651,0.4342728-0.0350285c0.0813923-0.0469933,0.1631832-0.1129951,0.2399845-0.1956234
						c0.0809841-0.0886459,0.1615944-0.1532726,0.2406635-0.1989231c0.2405548-0.1388855,0.4668217-0.1020966,0.5597935,0.1174908
						c0.0917759,0.2157135,0.3182602,0.2569389,0.563467,0.1153679c0.3623238-0.2094803,0.6299858-0.0473347,0.625042,0.3370628
						c-0.002224,0.2973843,0.1485901,0.4711685,0.3847218,0.4405918c0.3189354-0.039608,0.4701786,0.289032,0.3333626,0.7240582
						C22.4541988,25.7305088,22.507143,26.0101509,22.688406,26.1029053z M18.761322,32.4769554
						c1.7335205-1.0008507,3.1316948-3.4225845,3.1260471-5.4145317c-0.0056267-1.984911-1.4129391-2.7868958-3.1464615-1.786047
						c-1.7304497,0.9990768-3.1255684,3.4190464-3.1199408,5.4039555
						C15.6266136,32.6722794,17.0308723,33.4760284,18.761322,32.4769554" class="colorf25a5a svgShape"></path><path fill="#f25ad6" d="M18.7430191,26.0189648c1.3751736-0.7939568,2.4905758-0.1583233,2.4950466,1.4183426
						c0.0044785,1.5801849-1.1036701,3.5031128-2.4788418,4.2970695c-1.3721218,0.7921925-2.4875336,0.1530399-2.4920139-1.4271469
						C16.2627411,28.730566,17.3708992,26.8111572,18.7430191,26.0189648z" class="colorf25a5a svgShape"></path></g><g fill="#010001" class="color000000 svgShape"><g fill="#010001" class="color000000 svgShape"><polygon fill="#9a2c9a" points="35.284 22.825 33.917 22.03 33.9 16.221 35.267 17.015" class="color2c9a2c svgShape"></polygon><polygon fill="#72a4d6" points="35.267 17.015 33.9 16.221 61.087 .525 62.454 1.319" class="color81d672 svgShape"></polygon><polygon fill="#9a2c9a" points="35.267 17.015 33.9 16.221 52.836 5.288 54.203 6.082" class="color2c9a2c svgShape"></polygon><polygon fill="#72a4d6" points="35.267 17.015 33.9 16.221 38.242 13.714 39.609 14.508" class="color81d672 svgShape"></polygon><polygon fill="#9a60cb" points="62.454 1.319 62.471 7.128 35.284 22.825 35.267 17.015" class="color6dcb60 svgShape"></polygon></g><g fill="#010001" class="color000000 svgShape"><polygon fill="#afb0b2" points="36.69 20.937 36.339 20.733 36.33 17.483 36.681 17.687" class="colorb2b0af svgShape"></polygon><polygon fill="#afb0b2" points="36.681 17.687 36.33 17.483 36.984 17.105 37.335 17.309" class="colorb2b0af svgShape"></polygon><polygon fill="#f4f6f8" points="37.335 17.309 37.344 20.56 36.69 20.937 36.681 17.687" class="colorffffff svgShape"></polygon></g><g fill="#010001" class="color000000 svgShape"><polygon fill="#afb0b2" points="44.857 15.616 44.506 15.412 46.045 14.523 46.396 14.727" class="colorb2b0af svgShape"></polygon><polygon fill="#afb0b2" points="44.853 14.28 44.502 14.076 45.814 13.319 46.165 13.523" class="colorb2b0af svgShape"></polygon><polygon fill="#afb0b2" points="44.209 16.596 43.858 16.392 43.849 13.142 44.2 13.346" class="colorb2b0af svgShape"></polygon><polygon fill="#afb0b2" points="44.2 13.346 43.849 13.142 45.983 11.91 46.334 12.113" class="colorb2b0af svgShape"></polygon><polygon fill="#f4f6f8" points="46.334 12.113 46.336 12.719 44.851 13.576 44.853 14.28 46.165 13.523 46.167 14.107 44.854 14.865 44.857 15.616 46.396 14.727 46.397 15.332 44.209 16.596 44.2 13.346" class="colorffffff svgShape"></polygon></g><g fill="#010001" class="color000000 svgShape"><polygon fill="#afb0b2" points="42.449 16.682 42.098 16.478 42.964 13.653 43.314 13.857" class="colorb2b0af svgShape"></polygon><polygon fill="#afb0b2" points="43.314 13.857 42.964 13.653 43.613 13.278 43.964 13.482" class="colorb2b0af svgShape"></polygon><polygon fill="#afb0b2" points="40.876 15.264 40.525 15.061 41.234 14.652 41.584 14.855" class="colorb2b0af svgShape"></polygon><polygon fill="#afb0b2" points="42.107 17.81 41.756 17.606 40.525 15.061 40.876 15.264" class="colorb2b0af svgShape"></polygon><polygon fill="#f4f6f8" points="43.964 13.482 42.752 17.437 42.107 17.81 40.876 15.264 41.584 14.855 42.449 16.682 43.314 13.857" class="colorffffff svgShape"></polygon></g><g fill="#010001" class="color000000 svgShape"><polygon fill="#afb0b2" points="39.956 17.771 39.605 17.567 39.599 15.595 39.95 15.799" class="colorb2b0af svgShape"></polygon><polygon fill="#afb0b2" points="39.95 15.799 39.599 15.595 40.244 15.223 40.595 15.427" class="colorb2b0af svgShape"></polygon><polygon fill="#afb0b2" points="40.068 18.987 39.717 18.783 38.304 17.623 38.655 17.827" class="colorb2b0af svgShape"></polygon><polygon fill="#afb0b2" points="38.007 16.921 37.656 16.717 38.196 16.405 38.547 16.609" class="colorb2b0af svgShape"></polygon><polygon fill="#afb0b2" points="38.016 20.172 37.665 19.968 37.656 16.717 38.007 16.921" class="colorb2b0af svgShape"></polygon><polygon fill="#f4f6f8" points="40.595 15.427 40.604 18.677 40.068 18.987 38.655 17.827 38.661 19.799 38.016 20.172 38.007 16.921 38.547 16.609 39.956 17.771 39.95 15.799" class="colorffffff svgShape"></polygon></g><g fill="#010001" class="color000000 svgShape"><path fill="#afb0b2" d="M53.3648491 10.4315567l-.3508568-.2038879c.0523262.0303965.1114006.0484352.1772346.054759.136467.0100517.2864342-.0294991.4544296-.1264915.1680069-.0970001.3176956-.2304554.4536552-.3977919.1314354-.1647224.2355232-.3450127.3122559-.5460882l.3508492.2038908c-.0767326.2010756-.1808205.3813667-.3122559.5460892-.1359596.1673365-.2856483.3007917-.4536552.3977909-.1679955.0969925-.3179626.1365442-.4544296.1264925C53.4762421 10.4799948 53.4171677 10.461957 53.3648491 10.4315567zM54.2714081 8.0024881l.3508453.2038994c.0525169.0305099.098217.0734882.1371002.1295786.0776596.1171646.1190147.2709675.1195908.4744425.0005608.1982574-.0397873.3992167-.1165276.6055384l-.3508492-.2038908c.0767403-.2063227.1170883-.4072819.1165276-.6055393-.000576-.203474-.0419312-.3572769-.1195908-.4744415C54.3696213 8.075985 54.3239212 8.0330057 54.2714081 8.0024881zM54.7734947 7.2923956l.3508453.2038975c-.0992851-.0577078-.2137337-.0891571-.3448715-.0916858L54.4286194 7.200716C54.5597572 7.2032447 54.6742058 7.234694 54.7734947 7.2923956zM52.8631363 11.1449604l-.3508606-.2038879c-.0808296-.0469809-.1514778-.110919-.2111053-.1918163l.3508492.2038908C52.711647 11.0340452 52.7822952 11.0979834 52.8631363 11.1449604zM52.6520195 10.9531469l-.3508492-.2038908c-.1369095-.1717806-.2013016-.42204-.2022057-.7402802-.0009155-.323473.0618515-.6471319.1973419-.9761972l.3508492.2038918c-.1354904.3290653-.1982574.6527243-.1973419.9761963C52.4507179 10.5311079 52.51511 10.7813663 52.6520195 10.9531469zM52.6471558 9.2366705l-.3508492-.2038918c.1309471-.3316689.3165283-.642621.5476875-.917181C53.0796852 7.8332 53.3428345 7.608108 53.6379509 7.4377232c.2951279-.170392.5586777-.249392.7906685-.2370071l.3508492.2038913C54.5474777 7.3922224 54.2839279 7.4712224 53.9888 7.6416144c-.2951164.1703849-.5582657.3954768-.7939568.677875C52.9636841 8.5940485 52.7781029 8.9050016 52.6471558 9.2366705z" class="colorb2b0af svgShape"></path><path fill="#f4f6f8" d="M55.3350868,7.6847911c0.1369247,0.1717877,0.2013016,0.4220395,0.2022209,0.7455115
							c0.0009003,0.3182411-0.0618515,0.6419067-0.1973534,0.9709654c-0.1354752,0.3342829-0.3165283,0.6426363-0.5522041,0.9250269
							c-0.2311745,0.2745667-0.4943123,0.499651-0.7894402,0.670043c-0.2951164,0.1703854-0.5586815,0.2493925-0.7951813,0.2448387
							c-0.2319756-0.012392-0.4187126-0.1084032-0.5511093-0.2880297c-0.1369095-0.1717806-0.2013016-0.422039-0.2022057-0.7402802
							c-0.0009155-0.323472,0.0618515-0.647131,0.1973419-0.9761963c0.1309471-0.3316689,0.3165283-0.642622,0.5476875-0.917181
							c0.2356911-0.2823982,0.4988403-0.5074902,0.7939568-0.677875c0.2951279-0.170392,0.5586777-0.249392,0.7906685-0.2370071
							C55.0159569,7.4091678,55.1981621,7.5077786,55.3350868,7.6847911z M54.7624168,9.415947
							c0.0767403-0.2063217,0.1170883-0.4072809,0.1165276-0.6055384c-0.000576-0.203475-0.0419312-0.3572779-0.1195908-0.4744425
							c-0.0776176-0.1119623-0.1823883-0.1716814-0.3143234-0.1843328
							c-0.1364632-0.0100517-0.2864189,0.0294771-0.4544258,0.1264772
							c-0.1679955,0.0969925-0.3176994,0.2304697-0.4536591,0.3978062c-0.1314201,0.1647005-0.2355118,0.345006-0.3122559,0.5460882
							c-0.0767288,0.2063007-0.1170883,0.4072819-0.1165123,0.6107569c0.0005608,0.1982565,0.0419312,0.3520374,0.1195755,0.4692249
							c0.0776291,0.1119547,0.1823997,0.1716595,0.3143234,0.1843328c0.136467,0.0100517,0.2864342-0.0295,0.4544296-0.1264925
							c0.1680069-0.0969992,0.3176956-0.2304544,0.4536552-0.3977909
							C54.5815964,9.7973137,54.6856842,9.6170225,54.7624168,9.415947" class="colorffffff svgShape"></path></g><g fill="#010001" class="color000000 svgShape"><polygon fill="#afb0b2" points="50.761 12.813 50.41 12.609 50.403 9.975 50.753 10.178" class="colorb2b0af svgShape"></polygon><polygon fill="#afb0b2" points="49.85 10.7 49.499 10.496 49.497 9.881 49.848 10.085" class="colorb2b0af svgShape"></polygon><polygon fill="#afb0b2" points="49.848 10.085 49.497 9.881 51.958 8.46 52.309 8.664" class="colorb2b0af svgShape"></polygon><polygon fill="#f4f6f8" points="52.309 8.664 52.311 9.279 51.407 9.801 51.415 12.436 50.761 12.813 50.753 10.178 49.85 10.7 49.848 10.085" class="colorffffff svgShape"></polygon></g><g fill="#010001" class="color000000 svgShape"><polygon fill="#afb0b2" points="48.859 12.631 48.508 12.427 48.503 10.455 48.854 10.659" class="colorb2b0af svgShape"></polygon><polygon fill="#afb0b2" points="48.854 10.659 48.503 10.455 49.148 10.082 49.498 10.286" class="colorb2b0af svgShape"></polygon><polygon fill="#afb0b2" points="48.972 13.846 48.621 13.642 47.203 12.485 47.554 12.689" class="colorb2b0af svgShape"></polygon><polygon fill="#afb0b2" points="46.906 11.783 46.555 11.579 47.095 11.267 47.446 11.471" class="colorb2b0af svgShape"></polygon><polygon fill="#afb0b2" points="46.915 15.034 46.564 14.83 46.555 11.579 46.906 11.783" class="colorb2b0af svgShape"></polygon><polygon fill="#f4f6f8" points="49.498 10.286 49.508 13.537 48.972 13.846 47.554 12.689 47.56 14.661 46.915 15.034 46.906 11.783 47.446 11.471 48.859 12.631 48.854 10.659" class="colorffffff svgShape"></polygon></g><g fill="#010001" class="color000000 svgShape"><polygon fill="#afb0b2" points="59.665 7.673 59.314 7.469 59.31 6.305 59.661 6.509" class="colorb2b0af svgShape"></polygon><polygon fill="#afb0b2" points="60.014 5.663 59.663 5.459 60.412 3.579 60.763 3.783" class="colorb2b0af svgShape"></polygon><polygon fill="#afb0b2" points="60.763 3.783 60.412 3.579 61.057 3.206 61.408 3.41" class="colorb2b0af svgShape"></polygon><polygon fill="#afb0b2" points="58.561 5.054 58.21 4.85 58.905 4.449 59.256 4.653" class="colorb2b0af svgShape"></polygon><polygon fill="#afb0b2" points="59.661 6.509 59.31 6.305 58.21 4.85 58.561 5.054" class="colorb2b0af svgShape"></polygon><polygon fill="#f4f6f8" points="61.408 3.41 60.315 6.142 60.318 7.295 59.665 7.673 59.661 6.509 58.561 5.054 59.256 4.653 60.014 5.663 60.763 3.783" class="colorffffff svgShape"></polygon></g><g fill="#010001" class="color000000 svgShape"><polygon fill="#afb0b2" points="57.835 8.729 57.484 8.525 56.937 7.932 57.287 8.136" class="colorb2b0af svgShape"></polygon><path fill="#afb0b2" d="M57.2176056,7.5803618l-0.3508492-0.2038913
							c0.1952515-0.1127281,0.3449249-0.2513862,0.4490738-0.4108076l0.3508492,0.2038913
							C57.5625305,7.3289757,57.4128571,7.4676337,57.2176056,7.5803618z" class="colorb2b0af svgShape"></path><path fill="#afb0b2" d="M57.3448906,6.1455364l0.3508453,0.2038894c0.0801582,0.0465841,0.1236725,0.1511173,0.1241341,0.313602
							c0.0005188,0.18262-0.0535812,0.3497267-0.1531906,0.5065265L57.3158302,6.965663
							c0.0996094-0.1567998,0.1537094-0.3239064,0.1531906-0.5065265
							C57.4685593,6.2966518,57.425045,6.1921186,57.3448906,6.1455364z" class="colorb2b0af svgShape"></path><polygon fill="#afb0b2" points="56.686 7.887 56.336 7.683 56.867 7.376 57.218 7.58" class="colorb2b0af svgShape"></polygon><path fill="#afb0b2" d="M57.8574142,5.4389453l0.3508492,0.2038918
							c-0.0841866-0.0489244-0.1858673-0.0698037-0.3050537-0.0626268
							c-0.1864128,0.0135593-0.4045105,0.0872216-0.6542358,0.2313995l-0.3508492-0.2038913
							c0.2497215-0.1441779,0.467823-0.2178402,0.6542358-0.2313995
							C57.6715469,5.3691421,57.7732277,5.3900213,57.8574142,5.4389453z" class="colorb2b0af svgShape"></path><polygon fill="#afb0b2" points="56.028 6.517 55.677 6.313 56.898 5.608 57.249 5.812" class="colorb2b0af svgShape"></polygon><polygon fill="#afb0b2" points="56.037 9.767 55.686 9.563 55.677 6.313 56.028 6.517" class="colorb2b0af svgShape"></polygon><path fill="#f4f6f8" d="M57.899971,7.646286l0.6386185,0.6764612l-0.7037544,0.4063129l-0.5474358-0.5932474
							l-0.0317841,0.0183496l-0.5675545,0.3276777l0.0025749,0.9078245L56.0368118,9.767149l-0.0092125-3.2503777
							l1.2213745-0.7051616c0.2497253-0.1441779,0.467823-0.2178402,0.6542358-0.2313995
							c0.1818962-0.0109529,0.3230209,0.0434403,0.4234123,0.1631427c0.1003952,0.1197314,0.1509285,0.2995882,0.1516113,0.5395694
							c0.000679,0.2400103-0.0486755,0.4775376-0.1480598,0.7125826C58.2307701,7.2253613,58.0858765,7.4448748,57.899971,7.646286z
							 M57.6666794,7.1695542c0.0996094-0.1567998,0.1537094-0.3239064,0.1531906-0.5065265
							c-0.0005188-0.182591-0.0554008-0.2920012-0.1555595-0.3282413c-0.1047096-0.038836-0.2546654,0.0007076-0.449913,0.1134362
							l-0.5312309,0.3067055l0.0032082,1.1321397l0.5312309-0.306706
							C57.4128571,7.4676337,57.5625305,7.3289757,57.6666794,7.1695542" class="colorffffff svgShape"></path></g></g></svg>