<svg xmlns="http://www.w3.org/2000/svg" viewBox="0 0 130 130" id="OnlineInvoiceVector"><path fill="#f4f6f8" d="M11.19 78.169c-.04-.54.07-1.09.33-1.62-.21-.45-.34-.91-.34-1.38l-.01-2.85c0 .12.01.18.02.21-.04-.63.11-1.25.45-1.85-.14-.37-.24-.74-.24-1.12l-.01-2.83c0 .11.01.17.02.2-.04-.54.07-1.09.33-1.62-.21-.44-.34-.9-.34-1.37l-.01-2.83c0 .11.01.17.02.2-.1-1.38.75-2.77 2.57-3.82 3.43-1.98 8.98-1.98 12.39 0 1.69.98 2.54 2.27 2.54 3.56v.09l.02 2.76c0 .47-.12.93-.36 1.38.23.46.34.92.34 1.39v.09l.02 2.76c0 .51-.13 1.01-.4 1.49v.01c.18.41.27.83.27 1.25h.01v.04l.01 2.82c0 .48-.12.94-.35 1.39.22.45.33.92.33 1.39h.01v.05l.01 2.82c0 .51-.13 1.01-.4 1.49-.09.2-.21.39-.36.56-.25.36-.6.7-1.01 1-.11.1-.23.19-.36.27-.14.1-.31.2-.48.3-.17.1-.34.19-.53.29-.11.05-.23.11-.36.15-.32.16-.67.29-1.02.4-.12.04-.23.07-.36.1-.33.1-.67.19-1.01.26-.12.03-.25.06-.36.07-.34.06-.68.11-1.03.14-.11.02-.24.03-.35.03-.33.03-.67.06-1.02.06h-.35c-.35 0-.69-.02-1.03-.06-.11 0-.24-.01-.36-.03-.34-.03-.67-.07-1.01-.13-.11-.02-.24-.04-.36-.07-.35-.07-.7-.15-1.02-.25-.13-.03-.25-.08-.36-.1-.36-.12-.69-.25-1.01-.39-.13-.06-.25-.11-.36-.17-.2-.1-.39-.2-.57-.3-.16-.1-.32-.19-.46-.3-.13-.07-.24-.16-.35-.26-.42-.31-.76-.65-1.02-1.01-.14-.17-.25-.36-.35-.54-.25-.47-.38-.97-.38-1.47l-.01-2.85c0 .11.01.17.02.2zm53.64 32.14c.07-.43-.16-.86-.72-1.18l-38.16-22.18c-.98-.57-2.58-.58-3.57-.01L1.75 98.848c-.55.32-.79.75-.73 1.17-.01-.04-.02-.08-.02-.12l.01 2.96c0 .38.25.75.75 1.03l38.15 22.18c.99.58 2.6.58 3.58 0l20.63-11.91c.49-.28.74-.65.74-1.04v-2.96c0 .05-.02.1-.03.15zm-.71.89-7.51 4.33 7.5-4.34c.03-.02.06-.04.09-.05-.02.02-.05.04-.08.06zm32.582-65.24c0 .462.118.924.343 1.36.093.172.198.343.33.502a4.5 4.5 0 0 0 .938.938c.106.093.212.172.33.238.133.106.278.185.423.277.172.093.344.185.529.278.106.053.211.105.33.158.304.133.608.251.938.357.106.027.212.066.33.093.305.092.622.171.952.237.106.027.225.04.33.066.317.053.621.093.938.12.106.012.225.026.33.026.318.04.635.053.952.053h.33c.317 0 .634-.027.938-.053.106 0 .225-.014.33-.027.318-.026.635-.079.952-.132a2.9 2.9 0 0 0 .33-.066c.317-.066.634-.145.938-.238.119-.026.225-.052.33-.092.33-.106.648-.225.952-.37.119-.04.224-.093.33-.145.172-.093.33-.172.489-.265.158-.092.317-.185.449-.277.119-.08.225-.159.33-.251.383-.278.7-.595.938-.925.132-.158.251-.33.33-.515a2.8 2.8 0 0 0 .37-1.388l-.012-2.61v-.045.002c-.001-.161-.018-.323-.048-.484.027-.154.06-.308.06-.465l-.012-2.611v-.044.002c-.001-.045-.009-.09-.011-.136.077-.258.124-.518.124-.784l-.012-2.595v-.044.003c-.001-.16-.018-.321-.047-.481.026-.154.06-.306.06-.462l-.013-2.596v-.043.003c-.005-1.195-.79-2.388-2.36-3.301-3.156-1.834-8.29-1.834-11.467 0-1.684.972-2.472 2.265-2.38 3.539a.509.509 0 0 1-.02-.189l.013 2.626c0 .134.03.266.05.399-.05.247-.061.495-.043.743a.509.509 0 0 1-.02-.188l.012 2.492a2.844 2.844 0 0 0-.196 1.254.513.513 0 0 1-.02-.19l.013 2.643c0 .134.03.268.05.401-.05.249-.061.499-.043.748a.511.511 0 0 1-.02-.19l.013 2.643zm16.307-2.544c.001-.022.005-.043.006-.065a.705.705 0 0 1-.006.065zm0-3.603.006-.064a.705.705 0 0 1-.006.064zm.101-3.557c.001-.022.005-.043.006-.065a.745.745 0 0 1-.006.065zm0-3.58.006-.064a.733.733 0 0 1-.006.065zm15.877 20.817v-.004.003c-.001-.162-.018-.323-.047-.484.026-.155.06-.308.06-.465l-.013-2.612v-.044.003c-.005-1.202-.794-2.403-2.375-3.322-3.176-1.845-8.343-1.845-11.54 0-1.694.978-2.487 2.28-2.395 3.562a.512.512 0 0 1-.02-.19l.013 2.642c0 .135.031.268.051.402-.05.248-.062.498-.044.748a.513.513 0 0 1-.02-.19l.013 2.643c0 .462.119.924.344 1.36.092.172.198.344.33.502.238.33.555.648.938.939.106.092.211.171.33.237.132.106.278.185.423.278.172.092.343.185.528.277.106.053.212.106.33.159.305.132.608.25.939.356.105.027.211.067.33.093.304.093.621.172.951.238.106.026.225.04.33.066.318.053.622.092.939.119.105.013.224.026.33.026.317.04.634.053.951.053h.33c.318 0 .635-.026.939-.053.105 0 .224-.013.33-.026.317-.027.634-.08.951-.132.106-.014.225-.04.33-.066a10.8 10.8 0 0 0 .938-.238c.12-.027.225-.053.33-.093a7.47 7.47 0 0 0 .952-.37c.119-.04.225-.092.33-.145.172-.093.33-.172.49-.264.158-.093.316-.185.448-.278.12-.079.225-.158.33-.25.384-.278.7-.595.939-.925.132-.16.25-.33.33-.516.251-.449.37-.911.37-1.387l-.013-2.611v-.04zm-.01-3.454c.002-.022.006-.043.006-.065a.709.709 0 0 1-.005.065zm0 3.602c.002-.022.006-.043.006-.064a.71.71 0 0 1-.005.064z" class="colorbac1ce svgShape"></path><path fill="#f4f6f8" d="M128.9 73.469c0-.79-.51-1.57-1.55-2.17-.54-.32-1.18-.55-1.86-.7.01-.06.03-.12.03-.18l-.02-2.74c.02-.49-.28-.98-.9-1.36l-31.92-19.32-.11-42.26c-.01-.74-.26-1.26-.67-1.49l-2.04-1.23c-.4-.25-.96-.21-1.58.16l-55.41 33.32c-1.22.74-2.21 2.52-2.21 3.98v42.14l2.18 1.38v-.01h.01l10.67-6.42v.01l-10.67 6.41-.01.01.02 3.85 31.91 18.24c1.22.73 3.19.73 4.42 0l18.09-10.89c.74 1.41 1.82 2.67 3.04 3.37l4.26 2.46.05 18.48c0 .79.52 1.58 1.56 2.18 2.07 1.21 5.47 1.21 7.54.01 1.06-.61 1.59-1.41 1.59-2.2l-.07-21.65c0-.4-.13-.79-.39-1.16l1.55-.9.05 17.19c0 .79.51 1.57 1.55 2.17 2.08 1.21 5.47 1.21 7.56 0 1.05-.6 1.58-1.4 1.58-2.2l-.06-23.37 1.15-.67.04 17.53c0 .79.52 1.57 1.55 2.17 2.08 1.21 5.47 1.21 7.56 0 1.06-.6 1.58-1.4 1.58-2.2l-.07-31.94zm-40.84 20.26h.01c.15.3.32.59.5.86-.19-.27-.36-.56-.51-.86zm28.86-12.9c-1.04-.59-1.95-1.73-2.47-2.96l3.77-2.27.01 5.99-1.31-.76z" class="colorbac1ce svgShape"></path><path fill="#f4f6f8" d="m93.43 108.539.06 16.5c.01.79-.52 1.59-1.58 2.2-2.09 1.21-5.47 1.2-7.55-.01-1.03-.6-1.55-1.39-1.56-2.18l-.06-16.5c0 .12.03.23.06.34-.18-.9.31-1.84 1.51-2.53 2.1-1.22 5.48-1.21 7.56 0 1.04.6 1.56 1.39 1.56 2.18z" class="colorbac1ce svgShape"></path><path fill="#514759" d="M91.92 3.262c-.399-.246-.962-.217-1.58.161L34.93 36.746c-1.226.738-2.207 2.517-2.207 3.984l.118 42.266-2.176-1.38V39.484c0-1.467.98-3.246 2.207-3.984L88.282 2.176c.618-.369 1.18-.407 1.58-.16l2.059 1.246z" class="color474b59 svgShape"></path><path fill="#483f4f" d="M90.343 3.42c1.224-.737 2.219-.146 2.223 1.319l.115 42.263-59.843 35.992-.115-42.263c-.004-1.465.985-3.25 2.209-3.985l55.41-33.327z" class="color3f434f svgShape"></path><path fill="#f4f6f8" d="M35.45 40.723c-.003-.453.464-1.29.845-1.519L89.846 6.996l.105 38.37-54.4 32.718-.102-37.361z" class="colorffffff svgShape"></path><path fill="#f960dd" d="M35.45 40.723c-.003-.453.464-1.29.845-1.519L89.846 6.996l.021 5.033-54.42 32.731.002-4.037z" class="colorf9607f svgShape"></path><path fill="#514759" d="m32.842 82.995.018 3.851 31.912 18.238c1.217.738 3.189.738 4.415 0l55.409-33.322c.617-.37.926-.862.926-1.344l-.018-2.76c0 .483-.309.966-.927 1.335L32.843 82.995z" class="color474b59 svgShape"></path><path fill="#6822a2" d="m124.581 68.989-55.407 33.324c-1.221.73-3.196.73-4.417 0l-31.91-19.32 59.837-35.996 31.92 19.321c1.21.742 1.21 1.93-.023 2.67zM41.879 89.465l-.005 1.571 1.312.789.005-1.571zM38.526 87.449l-.004 1.571 2.332 1.402.004-1.57zM36.293 86.106l-.004 1.57 1.312.789.004-1.57zM33.957 84.701l-.004 1.57 1.312.79.004-1.571z" class="color5b5e71 svgShape"></path><path fill="#f4f6f8" d="m93.987 84.632-11.958 7.253a2.005 2.005 0 0 1-2.08 0l-7.631-4.592c-.705-.414-.705-1.463 0-1.877L84.249 78.2c.652-.396 1.454-.423 2.107-.026l7.604 4.582c.705.423.705 1.463.027 1.877z" class="colorbac1ce svgShape"></path><path fill="#483f4f" d="M43.777 75.998c.15-.09.355-.077.587.056.484.287.853.986.853 1.545l40.302-23.84c0-.56-.369-1.259-.846-1.538-.232-.14-.443-.147-.593-.056L43.777 75.998z" class="color3f434f svgShape"></path><path fill="#443644" d="M44.366 76.055c-.474-.28-.85-.025-.852.534l1.703 1.008c.002-.56-.372-1.258-.85-1.542z" class="color363a44 svgShape"></path><path fill="#f4f6f8" d="M111.66 60.256 55.35 93.581l-16.681-9.962 56.319-33.315z" class="colorbac1ce svgShape"></path><path fill="#6822a2" d="m91.592 54.066 1.552.925 3.391-2.007-1.552-.924zM41.643 83.623l1.552.925 3.391-2.007-1.552-.924zM86.585 57.029l1.552.925 3.405-2.015-1.552-.925zM81.591 59.984l1.552.924 3.405-2.014-1.552-.925zM76.598 62.939l1.552.924 3.405-2.014-1.552-.925zM71.604 65.894l1.552.924 3.405-2.014-1.552-.925zM66.611 68.849l1.552.924 3.404-2.014-1.552-.925zM61.617 71.804l1.552.924 3.405-2.015-1.552-.924zM56.623 74.759l1.552.924 3.405-2.015-1.552-.924zM51.63 77.714l1.552.924 3.405-2.015-1.552-.924zM46.636 80.669l1.552.924 3.392-2.007-1.552-.924zM44.694 85.441l1.538.916 53.341-31.564-1.539-.916zM47.731 87.25l1.553.925 53.34-31.564-1.552-.925zM50.782 89.067l1.552.925 53.341-31.564-1.552-.925zM53.833 90.884l1.539.917 53.341-31.564-1.539-.916z" class="color5b5e71 svgShape"></path><path fill="#f4f6f8" d="M41.728 37.656c.596-.344 1.079-.057 1.08.628.003.685-.477 1.527-1.073 1.871-.606.35-1.088.063-1.09-.622-.002-.684.477-1.527 1.083-1.877zM44.99 35.773c.596-.344 1.079-.057 1.08.628.003.684-.477 1.527-1.073 1.87-.606.35-1.088.064-1.09-.621-.002-.685.477-1.527 1.083-1.877zM38.466 39.54c.596-.345 1.079-.058 1.08.627.003.685-.476 1.527-1.072 1.871s-1.079.057-1.08-.627c-.003-.685.477-1.527 1.072-1.871z" class="colorffffff svgShape"></path><path fill="#d4dee8" d="m47.175 55.61-3.466-2.014-.018-6.223 3.466 2.014z" class="colord4dae8 svgShape"></path><path fill="#e4ecf4" d="m47.157 49.387-3.466-2.014L79.18 26.884l3.466 2.014z" class="colore4e8f4 svgShape"></path><path fill="#cad3dd" d="m82.646 28.898.018 6.222-35.489 20.49-.018-6.223z" class="colorcad0dd svgShape"></path><path fill="#724c91" d="m48.267 50.025 33.277-19.212.01 3.669-33.278 19.213z" class="color4c7891 svgShape"></path><path fill="#cad3dd" d="m95.996 99.563 26.586-15.45-.003 1.28-26.586 15.45z" class="colorcad0dd svgShape"></path><path fill="#d4dee8" d="M54.802 51.098c2.238 1.292 4.048 4.44 4.041 7.01l-.024 8.557c-.005 1.856 1.305 4.137 2.93 5.076l21.606 12.474c2.228 1.286 4.048 4.427 4.04 6.999-.005 1.868 1.306 4.137 2.931 5.076l5.67 3.273-.003 1.28-5.67-3.273c-2.238-1.292-4.048-4.428-4.041-7 .005-1.867-1.315-4.143-2.93-5.075L61.745 73.02c-2.238-1.292-4.048-4.428-4.041-7l.024-8.555c.006-1.868-1.315-4.155-2.93-5.088l-5.315-3.056 1.124-.646 4.194 2.422z" class="colord4dae8 svgShape"></path><path fill="#e4ecf4" d="M122.59 84.111 95.994 99.568l-5.67-3.277c-1.616-.93-2.923-3.211-2.923-5.071 0-2.57-1.816-5.714-4.052-6.998l-21.592-12.49c-1.639-.93-2.945-3.211-2.945-5.072l.022-8.548c.022-2.568-1.794-5.713-4.03-7.02l-4.186-2.414 26.574-15.457 4.186 2.436c2.259 1.285 4.052 4.43 4.052 6.998l-.022 8.57c0 1.838 1.307 4.12 2.923 5.071l21.614 12.468c2.215 1.285 4.053 4.43 4.03 6.998 0 1.86 1.307 4.141 2.946 5.072l5.669 3.277z" class="colore4e8f4 svgShape"></path><path fill="#e4ecf4" d="M118.042 84.11 95.993 96.928l-1.46-.845-.571-.33-1.997-1.153-.503-.286c-.022-.011-.057-.034-.08-.045-.49-.309-.97-.913-1.29-1.564a3.406 3.406 0 0 1-.216-.525 2.866 2.866 0 0 1-.194-.959c0-.399-.034-.798-.091-1.198a5.375 5.375 0 0 0-.103-.593 10.444 10.444 0 0 0-.616-1.952 3.047 3.047 0 0 0-.229-.525 11.417 11.417 0 0 0-1.004-1.735c-.103-.16-.228-.32-.342-.467a10.307 10.307 0 0 0-1.404-1.495c-.148-.137-.308-.263-.468-.388a7.852 7.852 0 0 0-.936-.628l-.981-.57-.582-.332-1.986-1.152-.582-.331-1.997-1.153-.57-.331-1.998-1.153-.57-.342-1.998-1.153-.582-.33-1.986-1.153-.57-.331-1.997-1.153-.582-.33-1.986-1.154-.582-.33-1.986-1.153-.057-.034a2.507 2.507 0 0 1-.457-.343c-.456-.422-.867-1.05-1.107-1.666a3.976 3.976 0 0 1-.182-.56 2.943 2.943 0 0 1-.057-.524v-1.746l.011-.674v-2.967l.012-2.305v-.845a8.07 8.07 0 0 0-.229-1.997 5.427 5.427 0 0 0-.148-.582 10.534 10.534 0 0 0-.73-1.883c-.08-.171-.172-.342-.263-.514a11.69 11.69 0 0 0-1.118-1.654 3.526 3.526 0 0 0-.377-.446 9.377 9.377 0 0 0-1.53-1.415 4.06 4.06 0 0 0-.536-.365 2.58 2.58 0 0 0-.228-.148l-.787-.445 22.026-12.817 1.095.64.582.342 1.358.787a3.6 3.6 0 0 1 .56.4c.16.125.296.262.445.41A7.145 7.145 0 0 1 82.4 40.07c.103.17.182.342.25.525.31.684.48 1.38.492 2.02v.662l-.012 2.316v2.968l-.011.662v1.997c0 .102 0 .194.011.296 0 .206.023.423.057.64a7.96 7.96 0 0 0 .56 1.985c.068.183.148.354.24.525.285.605.65 1.164 1.06 1.69.115.16.24.307.377.456a7.283 7.283 0 0 0 1.62 1.37c.046.034.08.056.126.08l.434.25 1.997 1.153.582.33 1.997 1.154.571.33 1.997 1.153.582.331 1.997 1.153.571.33 1.997 1.153.57.331 1.998 1.153.582.331 1.997 1.153.57.33 1.998 1.153.57.331.628.366c.388.228.776.559 1.119.947.137.137.25.285.365.445.41.525.753 1.118.993 1.735.08.182.137.365.194.547.148.457.217.913.217 1.324 0 .274.023.548.057.822.023.205.057.4.103.605a8.18 8.18 0 0 0 .65 1.929c.08.17.16.342.263.513a8.137 8.137 0 0 0 1.14 1.643c.138.149.263.297.412.434.445.445.947.833 1.472 1.13l.285.16.57.33 1.393.8z" class="colore4e8f4 svgShape"></path><path fill="#f4f6f8" d="m88.76 9.86.002 1.433-32.299 18.648-.003-1.433z" class="colorffffff svgShape"></path><g fill="#afb7bf" class="colorafb5bf svgShape"><path d="M78.874 36.84 56.723 49.633a4.06 4.06 0 0 0-.537-.365l22.106-12.77.582.342zm-2.124 4.188L58.629 51.494a3.526 3.526 0 0 0-.377-.445l18.053-10.432c.16.126.297.263.445.411zm5.902-.433L60.01 53.662c-.08-.171-.172-.342-.263-.514L82.401 40.07c.103.17.182.342.25.525zm-3.996 4.61v.662l-17.768 10.26a5.427 5.427 0 0 0-.148-.582l17.916-10.34zM83.131 45.593v.662L61.117 58.969v-.662zM78.644 51.151l-.011.662-17.528 10.123v-.662zM83.188 52.155l-22.094 12.76.011-.674 22.026-12.725c0 .206.023.423.057.64zM79.5 57.257 61.333 67.745a3.976 3.976 0 0 1-.182-.56l18.11-10.453c.068.183.148.354.24.525zm5.925-.445L62.954 69.788l-.057-.034a2.507 2.507 0 0 1-.457-.343L85.05 56.355c.114.16.24.308.376.457zm-2.307 4.291L65.522 71.271l-.582-.33 17.619-10.169c.046.034.08.057.125.08l.434.251zM90.184 59.996 68.09 72.755l-.582-.331 22.094-12.759zM88.265 64.07 70.657 74.239l-.57-.331 17.608-10.169zM95.331 62.963 73.225 75.722l-.582-.331 22.106-12.759zM93.412 67.037l-17.619 10.18-.571-.342 17.62-10.169zM100.467 65.93 78.361 78.701l-.571-.331 22.106-12.771zM98.559 70.005 80.94 80.185l-.582-.331 17.619-10.18zM105.614 68.898l-22.106 12.77-.582-.331 22.117-12.77zM103.695 72.972 85.893 83.255c-.148-.137-.308-.263-.468-.388l17.7-10.226.57.33zm6.598-.833L87.639 85.217c-.103-.16-.228-.32-.342-.467l22.63-13.056c.138.137.252.285.366.445zm-3.3 4.873L88.872 87.477a3.047 3.047 0 0 0-.229-.525L106.8 76.464c.08.183.137.365.194.548zm4.864.16L89.59 90.022a5.375 5.375 0 0 0-.103-.593l22.266-12.862c.023.205.057.4.103.605zm-3.574 5.033-18.19 10.5a3.406 3.406 0 0 1-.217-.526l18.144-10.488c.08.171.16.342.263.514zm6.039-.514L91.965 94.6l-.503-.286c-.022-.011-.057-.034-.08-.045l22.529-13.01c.137.148.262.296.41.433zM112.163 85.902l-17.631 10.18-.57-.331 17.63-10.18z" fill="#010001" class="color000000 svgShape"></path></g><path fill="#5c377b" d="m1 99.894.015 2.96c0 .386.248.757.742 1.035l38.152 22.183c.99.572 2.597.572 3.586 0l20.622-11.918c.495-.278.742-.65.742-1.036v-2.96c0 .372-.247.743-.742 1.037L43.48 123.098c-.99.587-2.597.572-3.57 0L1.741 100.93c-.495-.294-.742-.665-.742-1.036z" class="color37617b svgShape"></path><path fill="#724c91" d="M1.753 98.85c-.997.575-.992 1.504-.012 2.074l38.164 22.178c.98.57 2.584.576 3.58 0l20.628-11.91c.987-.57.983-1.498.002-2.068L25.952 86.946c-.98-.57-2.584-.576-3.571-.006L1.753 98.85z" class="color4c7891 svgShape"></path><path fill="#5c377b" d="m10.167 95.403.614.357 6.227-3.596-.613-.356z" class="color37617b svgShape"></path><path fill="#f4f6f8" d="m61.715 111.127-18.34 10.602c-.924.536-2.43.536-3.366 0L4.105 100.867c-.913-.536-.902-1.415.023-1.963l5.078-2.921.685.422c.468.24 1.176.24 1.632 0l6.562-3.812c.457-.251.457-.685.023-.936l-.707-.4 5.078-2.944c.913-.525 2.442-.525 3.355 0l35.904 20.874c.925.548.925 1.404-.023 1.94z" class="colorffffff svgShape"></path><path fill="#cad3dd" d="M9.095 106.486c-.23-.132-.428-.032-.428.232-.001.276.195.616.425.749l3.074 1.775c.24.139.427.02.428-.257.001-.264-.184-.585-.425-.724l-3.074-1.775z" class="colorcad0dd svgShape"></path><path fill="#e4ecf4" d="m9.038 106.325-.25.126c.083-.042.187-.042.313.042l3.072 1.776c.23.125.418.46.418.71 0 .147-.042.251-.126.293l.251-.146a.337.337 0 0 0 .125-.272c0-.272-.188-.585-.439-.732l-3.071-1.776c-.105-.062-.23-.083-.293-.02zm-5.412-2.842c.083-.042.209-.042.334.042l3.072 1.776c.23.126.418.46.418.71 0 .147-.042.252-.126.293l.251-.146a.337.337 0 0 0 .126-.271c0-.272-.188-.586-.44-.732L4.19 103.38c-.125-.084-.23-.084-.313-.042l-.251.146z" class="colore4e8f4 svgShape"></path><path fill="#cad3dd" d="M3.952 103.518c-.24-.14-.438-.04-.438.225-.001.276.195.616.436.755l3.074 1.775c.24.14.427.02.428-.256 0-.264-.184-.586-.425-.724l-3.075-1.775z" class="colorcad0dd svgShape"></path><path fill="#f960dd" d="M20.586 100.974c-.105-.866.412-1.755 1.57-2.424 1.228-.71 2.906-1.006 4.5-.884l2.178-3.47c-3.84-.564-8.11.023-11.13 1.767-2.8 1.616-3.905 3.854-3.285 5.941l6.167-.93z" class="colorf9607f svgShape"></path><path fill="#a375ca" d="M29.803 98.55c1.71.994 2.013 2.511.922 3.686l4.532 2.633c3.517-2.657 3.197-6.47-.984-8.9a12.714 12.714 0 0 0-2.503-1.104l-2.237 3.54.27.145z" class="color75ca75 svgShape"></path><path fill="#5046e4" d="M15.342 103.654c.549.692 1.318 1.337 2.308 1.912 4.181 2.43 10.764 2.628 15.361.6l-4.53-2.634c-2.032.628-4.65.447-6.36-.547-.16-.093-.29-.192-.43-.296l-6.349.965z" class="color576cfb svgShape"></path><path fill="#cad3dd" d="m29.336 111.926.73.424 16.734-9.661-.73-.424zM31.147 112.978l.73.425 8.548-4.936-.73-.424zM34.988 115.21l.73.425 16.734-9.661-.731-.425zM36.848 116.292l.721.418 16.733-9.661-.72-.419zM38.699 117.367l.73.424 16.734-9.661-.73-.424zM40.549 118.442l.731.425 9.937-5.738-.73-.424z" class="colorcad0dd svgShape"></path><path fill="#4aa1f9" d="m96.688 43.316.014 2.642c0 .463.118.925.343 1.361.093.172.198.344.33.502.238.33.555.647.938.938a1.9 1.9 0 0 0 .33.238c.133.106.278.185.424.277.171.093.343.185.528.278.106.053.211.106.33.158.304.133.608.251.938.357.106.026.212.066.33.093.305.092.622.171.952.237.106.027.224.04.33.066.317.053.621.093.938.12.106.013.225.026.33.026.318.04.635.053.952.053h.33c.317 0 .634-.027.938-.053.106 0 .225-.013.33-.027.318-.026.635-.079.952-.132a2.92 2.92 0 0 0 .33-.066c.317-.066.634-.145.938-.238.119-.026.225-.053.33-.092.33-.106.648-.225.952-.37.119-.04.224-.093.33-.145.172-.093.33-.172.489-.265.158-.092.317-.185.449-.277.119-.08.225-.159.33-.251.383-.278.7-.595.938-.925.132-.158.251-.33.33-.515.252-.45.37-.912.37-1.387l-.013-2.656c0 .476-.119-.016-.356.434a4.503 4.503 0 0 1-1.268 1.453 3.108 3.108 0 0 1-.331.251c-.145.093-.29.185-.45.277-.158.093-.316.172-.488.265a2.481 2.481 0 0 1-.33.145c-.304.145-.621.264-.952.37-.105.04-.224.066-.33.092a10.82 10.82 0 0 1-.938.238 2.431 2.431 0 0 1-.33.066 11.74 11.74 0 0 1-.952.132c-.105.014-.21.027-.33.027a7.318 7.318 0 0 1-.938.04c-.106.013-.224.013-.33.013-.317 0-.634-.013-.951-.053-.106 0-.225-.013-.33-.026a10.715 10.715 0 0 1-.939-.12c-.106-.026-.224-.04-.33-.065a10 10 0 0 1-.951-.238 2.423 2.423 0 0 1-.33-.093 9.843 9.843 0 0 1-.939-.357c-.119-.052-.224-.092-.33-.145a7.037 7.037 0 0 1-.542-.29c-.145-.08-.277-.172-.41-.265a1.905 1.905 0 0 1-.33-.238c-.383-.29-.7-.594-.938-.924a3.736 3.736 0 0 1-.33-.516c-.238-.449-.357.042-.357-.42z" class="colorf9bb4a svgShape"></path><path fill="#d839bb" d="M97.045 44.69v2.629c.093.172.198.343.33.502v-2.616a3.736 3.736 0 0 1-.33-.515zm1.268 1.44v2.63a1.9 1.9 0 0 0 .33.237v-2.63a1.904 1.904 0 0 1-.33-.237zm1.282.793v2.629c.106.053.211.106.33.158v-2.642c-.119-.053-.224-.093-.33-.145zm1.268.502v2.642c.106.026.212.066.33.093v-2.643a2.423 2.423 0 0 1-.33-.092zm1.282.33v2.642c.106.027.224.04.33.066v-2.642c-.106-.026-.224-.04-.33-.066zm1.268.185v2.642c.106.014.225.027.33.027v-2.643a2.8 2.8 0 0 1-.33-.026zm1.282.08v2.642h.33v-2.656c-.106.013-.224.013-.33.013zm1.268-.054v2.643c.106 0 .225-.013.33-.027V47.94c-.105.013-.211.026-.33.026zm1.282-.158v2.642a2.92 2.92 0 0 0 .33-.066v-2.642a2.431 2.431 0 0 1-.33.066zm1.268-.304v2.642c.119-.026.225-.053.33-.092V47.41c-.105.04-.224.067-.33.093zm1.282-.463v2.643c.119-.04.224-.093.33-.145v-2.643a2.481 2.481 0 0 1-.33.145zm1.268-.686v2.642c.119-.08.225-.159.33-.251v-2.643a3.109 3.109 0 0 1-.33.252zm1.268-1.19v2.656c.132-.159.251-.33.33-.515V44.65a3.732 3.732 0 0 1-.33.515z" class="colord89b39 svgShape"></path><path fill="#7abcfe" d="M99.104 39.944c-3.197 1.846-3.22 4.842-.044 6.688 3.182 1.85 8.355 1.846 11.552 0 3.197-1.846 3.214-4.838.032-6.688-3.176-1.846-8.343-1.846-11.54 0z" class="colorfed57a svgShape"></path><path fill="#ef41cf" d="M100.295 40.943c-2.535 1.294-2.554 3.396-.035 4.69 2.523 1.298 6.626 1.295 9.16 0 2.536-1.294 2.55-3.393.026-4.69-2.519-1.295-6.616-1.295-9.151 0z" class="colorefac41 svgShape"></path><path fill="#7abcfe" d="M101.714 42.047a2.35 2.35 0 0 0-.767.981l1.193.125c.099-.284.245-.526.434-.72l.084-.086 1.371.797-.146.143c-.377.37-.578.683-.6.933-.019.221.162.444.537.662.408.237.9.357 1.432.35a3.93 3.93 0 0 0 1.61-.366l.074-.033.52.303.497-.287-.517-.3.178-.142c.457-.362.735-.787.828-1.265l-1.249-.07c-.068.39-.213.707-.433.943l-.085.092-1.411-.82.146-.143c.367-.359.56-.66.577-.895.015-.211-.167-.429-.54-.646-.402-.233-.874-.352-1.401-.352h-.012a3.777 3.777 0 0 0-1.558.34l-.073.033-.66-.384-.496.287.652.379-.185.14zm2.973 2.131c-.025-.12.019-.255.133-.412l.082-.115 1.363.792-.344.104a1.575 1.575 0 0 1-.455.072c-.194 0-.37-.045-.526-.136-.146-.085-.23-.188-.253-.305zm-1.623-2.169.356-.1c.334-.092.626-.071.864.069.14.082.228.184.259.305.03.116.007.24-.07.366l-.079.132-1.33-.772z" class="colorfed57a svgShape"></path><path fill="#4aa1f9" d="m96.688 39.714.014 2.642c0 .462.118.925.343 1.36.093.172.198.344.33.503.238.33.555.647.938.938a1.9 1.9 0 0 0 .33.238c.133.105.278.185.424.277.171.093.343.185.528.278.106.052.211.105.33.158.304.132.608.251.938.357.106.026.212.066.33.092.305.093.622.172.952.238.106.026.224.04.33.066.317.053.621.093.938.12.106.012.225.025.33.025.318.04.635.053.952.053h.33c.317 0 .634-.026.938-.053.106 0 .225-.013.33-.026.318-.026.635-.08.952-.132.105-.013.224-.04.33-.066.317-.066.634-.145.938-.238.119-.026.225-.053.33-.092.33-.106.648-.225.952-.37.119-.04.224-.093.33-.146.172-.092.33-.171.489-.264.158-.092.317-.185.449-.277.119-.08.225-.159.33-.251.383-.278.7-.595.938-.925.132-.159.251-.33.33-.516.252-.449.37-.911.37-1.387l-.013-2.655c0 .475-.119-.016-.356.433a4.503 4.503 0 0 1-1.268 1.453 3.108 3.108 0 0 1-.331.252c-.145.092-.29.185-.45.277-.158.093-.316.172-.488.264a2.481 2.481 0 0 1-.33.146c-.304.145-.621.264-.952.37-.105.04-.224.066-.33.092-.304.093-.62.172-.938.238a2.431 2.431 0 0 1-.33.066 11.74 11.74 0 0 1-.952.132c-.105.013-.21.027-.33.027a7.318 7.318 0 0 1-.938.04c-.106.013-.224.013-.33.013-.317 0-.634-.014-.951-.053-.106 0-.225-.014-.33-.027a10.711 10.711 0 0 1-.939-.119c-.106-.026-.224-.04-.33-.066-.33-.066-.647-.145-.951-.238a2.423 2.423 0 0 1-.33-.092 9.843 9.843 0 0 1-.939-.357c-.119-.053-.224-.092-.33-.145a7.04 7.04 0 0 1-.542-.29c-.145-.08-.277-.173-.41-.265a1.904 1.904 0 0 1-.33-.238c-.383-.29-.7-.594-.938-.925a3.736 3.736 0 0 1-.33-.515c-.238-.45-.357.042-.357-.42z" class="colorf9bb4a svgShape"></path><path fill="#d839bb" d="M97.045 41.088v2.629c.093.171.198.343.33.502v-2.616a3.737 3.737 0 0 1-.33-.515zm1.268 1.44v2.629a1.9 1.9 0 0 0 .33.238v-2.63a1.905 1.905 0 0 1-.33-.237zm1.282.792v2.63c.106.052.211.105.33.158v-2.642c-.119-.053-.224-.093-.33-.146zm1.268.502v2.643c.106.026.212.066.33.092v-2.642a2.422 2.422 0 0 1-.33-.093zm1.282.33v2.643c.106.026.224.04.33.066V44.22c-.106-.027-.224-.04-.33-.066zm1.268.186v2.642c.106.013.225.027.33.027v-2.643c-.105 0-.224-.013-.33-.026zm1.282.079v2.642h.33v-2.655c-.106.013-.224.013-.33.013zm1.268-.053v2.642c.106 0 .225-.013.33-.026v-2.642c-.105.013-.211.026-.33.026zm1.282-.158v2.642c.105-.013.224-.04.33-.066V44.14a2.431 2.431 0 0 1-.33.066zm1.268-.304v2.642c.119-.026.225-.053.33-.092v-2.643c-.105.04-.224.066-.33.093zm1.282-.463v2.643c.119-.04.224-.093.33-.146v-2.642a2.482 2.482 0 0 1-.33.145zm1.268-.687v2.643c.119-.08.225-.159.33-.251V42.5a3.109 3.109 0 0 1-.33.251zm1.268-1.189v2.656c.132-.159.251-.33.33-.516v-2.655a3.732 3.732 0 0 1-.33.515z" class="colord89b39 svgShape"></path><path fill="#7abcfe" d="M99.104 36.342c-3.197 1.846-3.22 4.842-.044 6.688 3.182 1.85 8.355 1.845 11.552 0 3.197-1.846 3.214-4.839.032-6.688-3.176-1.846-8.343-1.846-11.54 0z" class="colorfed57a svgShape"></path><path fill="#ef41cf" d="M100.295 37.34c-2.535 1.295-2.554 3.397-.035 4.691 2.523 1.297 6.626 1.295 9.16 0s2.55-3.393.026-4.69c-2.519-1.295-6.616-1.295-9.151 0z" class="colorefac41 svgShape"></path><path fill="#7abcfe" d="M101.714 38.445a2.35 2.35 0 0 0-.767.98l1.193.126c.099-.285.245-.526.434-.72l.084-.086 1.371.797-.146.143c-.377.369-.578.682-.6.933-.019.221.162.444.537.662.408.237.9.357 1.432.35a3.93 3.93 0 0 0 1.61-.366l.074-.033.52.303.497-.287-.517-.3.178-.143c.457-.361.735-.787.828-1.264l-1.249-.071c-.068.39-.213.707-.433.944l-.085.091-1.411-.82.146-.143c.367-.358.56-.659.577-.894.015-.212-.167-.429-.54-.646-.402-.233-.874-.352-1.401-.352h-.012a3.777 3.777 0 0 0-1.558.34l-.073.033-.66-.384-.496.287.652.378-.185.142zm2.973 2.131c-.025-.12.019-.255.133-.412l.082-.115 1.363.792-.344.103a1.575 1.575 0 0 1-.455.073c-.194 0-.37-.045-.526-.136-.146-.085-.23-.189-.253-.305zm-1.623-2.17.356-.099c.334-.092.626-.071.864.069.14.081.228.184.259.305.03.116.007.239-.07.366l-.079.132-1.33-.772z" class="colorfed57a svgShape"></path><path fill="#4aa1f9" d="m96.892 36.157.014 2.626c0 .459.118.918.34 1.352.093.17.198.341.33.499.235.328.55.643.931.932.105.092.21.17.328.236.132.105.276.184.42.276.171.092.342.184.526.275.105.053.21.106.328.158.302.131.604.25.932.355.105.026.21.065.328.091.302.092.617.171.946.237.104.026.223.04.328.065.315.053.617.092.932.119.105.013.223.026.328.026.315.04.63.052.945.052h.329c.315 0 .63-.026.932-.052.105 0 .223-.013.328-.026.315-.027.63-.08.945-.132a2.9 2.9 0 0 0 .328-.065c.315-.066.63-.145.932-.237.119-.026.224-.052.329-.092.328-.105.643-.223.945-.367.118-.04.223-.092.328-.145.17-.092.328-.17.486-.262.157-.092.315-.184.446-.276.118-.079.223-.157.329-.25.38-.275.695-.59.932-.918.13-.158.249-.329.328-.512.25-.447.367-.906.367-1.379l-.013-2.639c0 .473-.118-.015-.354.431a4.475 4.475 0 0 1-1.26 1.444c-.106.092-.21.171-.329.25-.144.092-.289.184-.446.276-.158.092-.315.17-.486.262-.105.053-.21.105-.328.145a7.42 7.42 0 0 1-.945.367c-.105.04-.224.066-.329.092-.302.092-.617.17-.932.236-.105.027-.21.053-.328.066-.315.053-.63.105-.945.131-.105.013-.21.027-.328.027a7.27 7.27 0 0 1-.932.039c-.106.013-.224.013-.329.013-.315 0-.63-.013-.945-.052a2.78 2.78 0 0 1-.328-.027c-.315-.026-.63-.065-.932-.118-.105-.026-.224-.04-.328-.065a9.937 9.937 0 0 1-.946-.237 2.406 2.406 0 0 1-.328-.092 9.78 9.78 0 0 1-.932-.354c-.118-.053-.223-.092-.328-.145-.184-.091-.368-.183-.539-.288-.144-.08-.275-.171-.407-.263a1.893 1.893 0 0 1-.328-.236 4.428 4.428 0 0 1-.932-.92 3.711 3.711 0 0 1-.328-.511c-.236-.447-.355.041-.355-.418z" class="colorf9bb4a svgShape"></path><path fill="#d839bb" d="M97.247 37.522v2.613c.092.17.197.341.328.499v-2.6a3.711 3.711 0 0 1-.328-.512zm1.26 1.431v2.613c.105.092.21.17.328.236V39.19a1.892 1.892 0 0 1-.328-.237zm1.274.788v2.612c.105.053.21.106.328.158v-2.626c-.118-.052-.223-.092-.328-.144zm1.26.499v2.626c.105.026.21.065.328.091v-2.625a2.407 2.407 0 0 1-.328-.092zm1.273.328v2.626c.105.026.224.04.329.065v-2.625c-.105-.027-.224-.04-.329-.066zm1.26.184v2.626c.106.013.224.026.329.026v-2.626a2.78 2.78 0 0 1-.328-.026zm1.274.079v2.625h.329v-2.639c-.106.014-.224.014-.329.014zm1.26-.053v2.626c.106 0 .224-.013.329-.026v-2.626c-.105.013-.21.026-.328.026zm1.274-.158v2.626a2.9 2.9 0 0 0 .328-.065v-2.626c-.105.026-.21.052-.328.065zm1.26-.301v2.625c.119-.026.224-.052.329-.092v-2.625c-.105.039-.224.065-.329.092zm1.274-.46v2.626c.118-.04.223-.092.328-.145v-2.625c-.105.052-.21.105-.328.144zm1.26-.683v2.626c.118-.079.223-.157.328-.25v-2.625c-.105.092-.21.17-.328.25zm1.26-1.181v2.639c.132-.158.25-.329.329-.512v-2.64c-.092.171-.197.342-.328.513z" class="colord89b39 svgShape"></path><path fill="#7abcfe" d="M99.293 32.806c-3.177 1.834-3.2 4.812-.044 6.646 3.162 1.838 8.303 1.834 11.48 0 3.176-1.834 3.193-4.808.03-6.646-3.155-1.834-8.29-1.834-11.466 0z" class="colorfed57a svgShape"></path><path fill="#ef41cf" d="M100.476 33.799c-2.52 1.286-2.537 3.375-.035 4.661 2.508 1.289 6.584 1.286 9.103 0 2.52-1.286 2.533-3.372.025-4.661-2.503-1.286-6.574-1.286-9.093 0z" class="colorefac41 svgShape"></path><path fill="#7abcfe" d="M101.887 34.896c-.352.27-.608.597-.762.975l1.184.124a1.9 1.9 0 0 1 .432-.714l.084-.086 1.362.791-.145.143c-.375.366-.575.678-.597.926-.018.22.161.442.534.658a2.75 2.75 0 0 0 1.423.348 3.906 3.906 0 0 0 1.6-.363l.073-.034.518.302.493-.285-.514-.299.178-.141c.453-.36.73-.782.822-1.257l-1.241-.07c-.068.388-.212.703-.43.938l-.085.09-1.402-.814.145-.142c.364-.356.557-.655.574-.89.014-.21-.167-.425-.537-.641-.4-.232-.868-.35-1.393-.35h-.011a3.753 3.753 0 0 0-1.548.338l-.073.033-.656-.382-.493.285.648.377-.183.14zm2.953 2.118c-.025-.12.019-.253.133-.41l.081-.114 1.355.787-.342.103c-.16.048-.311.072-.452.072-.193 0-.368-.045-.523-.135-.145-.085-.23-.187-.252-.303zm-1.612-2.156.353-.099c.333-.091.622-.07.86.069.14.08.226.183.256.303a.469.469 0 0 1-.069.364l-.078.13-1.322-.767z" class="colorfed57a svgShape"></path><path fill="#4aa1f9" d="m96.892 32.577.014 2.626c0 .46.118.919.34 1.352.093.17.198.342.33.5.235.327.55.642.931.931.105.092.21.171.328.237.132.105.276.183.42.275.171.092.342.184.526.276.105.052.21.105.328.158.302.13.604.249.932.354.105.026.21.066.328.092.302.092.617.17.946.236.104.026.223.04.328.066.315.052.617.092.932.118.105.013.223.026.328.026.315.04.63.053.945.053h.329c.315 0 .63-.026.932-.053.105 0 .223-.013.328-.026.315-.026.63-.079.945-.131.105-.013.223-.04.328-.066.315-.066.63-.144.932-.236.119-.026.224-.053.329-.092.328-.105.643-.223.945-.368.118-.04.223-.092.328-.144.17-.092.328-.17.486-.263.157-.092.315-.183.446-.275.118-.08.223-.158.329-.25.38-.276.695-.59.932-.919.13-.157.249-.328.328-.512.25-.446.367-.906.367-1.378l-.013-2.64c0 .473-.118-.015-.354.432a4.475 4.475 0 0 1-1.26 1.444c-.106.092-.21.17-.329.25-.144.091-.289.183-.446.275-.158.092-.315.17-.486.263-.105.052-.21.105-.328.144a7.42 7.42 0 0 1-.945.368c-.105.04-.224.065-.329.092-.302.092-.617.17-.932.236-.105.026-.21.052-.328.066-.315.052-.63.105-.945.13-.105.014-.21.027-.328.027a7.272 7.272 0 0 1-.932.04c-.106.013-.224.013-.329.013a7.6 7.6 0 0 1-.945-.053 2.78 2.78 0 0 1-.328-.026c-.315-.026-.63-.066-.932-.118-.105-.027-.224-.04-.328-.066a9.937 9.937 0 0 1-.946-.236 2.408 2.408 0 0 1-.328-.092 9.78 9.78 0 0 1-.932-.355c-.118-.052-.223-.092-.328-.144-.184-.092-.368-.184-.539-.289-.144-.079-.275-.17-.407-.262a1.892 1.892 0 0 1-.328-.237 4.428 4.428 0 0 1-.932-.919 3.711 3.711 0 0 1-.328-.512c-.236-.446-.355.042-.355-.418z" class="colorf9bb4a svgShape"></path><path fill="#d839bb" d="M97.247 33.943v2.612c.092.17.197.342.328.5v-2.6a3.711 3.711 0 0 1-.328-.512zm1.26 1.43v2.613c.105.092.21.171.328.237V35.61a1.894 1.894 0 0 1-.328-.236zm1.274.788v2.613c.105.052.21.105.328.158v-2.626c-.118-.053-.223-.092-.328-.145zm1.26.5v2.625c.105.026.21.066.328.092v-2.626a2.407 2.407 0 0 1-.328-.092zm1.273.328v2.625c.105.026.224.04.329.066v-2.626c-.105-.026-.224-.04-.329-.065zm1.26.183v2.626c.106.013.224.026.329.026V37.2a2.78 2.78 0 0 1-.328-.027zm1.274.08v2.625h.329v-2.64c-.106.014-.224.014-.329.014zm1.26-.053v2.625c.106 0 .224-.013.329-.026v-2.626c-.105.013-.21.027-.328.027zm1.274-.158v2.626c.105-.013.223-.04.328-.066v-2.626c-.105.027-.21.053-.328.066zm1.26-.302v2.626c.119-.027.224-.053.329-.092v-2.626c-.105.04-.224.066-.329.092zm1.274-.46v2.626c.118-.04.223-.092.328-.144v-2.626c-.105.053-.21.105-.328.145zm1.26-.682v2.626c.118-.08.223-.158.328-.25v-2.626c-.105.092-.21.171-.328.25zm1.26-1.182v2.64c.132-.158.25-.33.329-.513v-2.639c-.092.17-.197.342-.328.512z" class="colord89b39 svgShape"></path><path fill="#7abcfe" d="M99.293 29.227c-3.177 1.834-3.2 4.812-.044 6.646 3.162 1.837 8.303 1.834 11.48 0 3.176-1.834 3.193-4.808.03-6.646-3.155-1.834-8.29-1.834-11.466 0z" class="colorfed57a svgShape"></path><path fill="#ef41cf" d="M100.476 30.22c-2.52 1.286-2.537 3.374-.035 4.66 2.508 1.29 6.584 1.287 9.103 0 2.52-1.286 2.533-3.372.025-4.66-2.503-1.287-6.574-1.287-9.093 0z" class="colorefac41 svgShape"></path><path fill="#7abcfe" d="M101.887 31.316c-.352.27-.608.597-.762.975l1.184.124a1.9 1.9 0 0 1 .432-.714l.084-.086 1.362.792-.145.142c-.375.367-.575.678-.597.927-.018.22.161.441.534.658a2.75 2.75 0 0 0 1.423.348 3.906 3.906 0 0 0 1.6-.364l.073-.033.518.301.493-.285-.514-.298.178-.142c.453-.359.73-.782.822-1.257l-1.241-.07c-.068.388-.212.703-.43.938l-.085.091-1.402-.815.145-.142c.364-.356.557-.655.574-.889.014-.21-.167-.426-.537-.642-.4-.231-.868-.35-1.393-.35h-.011a3.753 3.753 0 0 0-1.548.338l-.073.034-.656-.382-.493.285.648.376-.183.14zm2.953 2.119c-.025-.12.019-.254.133-.41l.081-.114 1.355.787-.342.103c-.16.048-.311.071-.452.071-.193 0-.368-.044-.523-.134-.145-.085-.23-.188-.252-.303zm-1.612-2.156.353-.1c.333-.09.622-.07.86.069.14.081.226.183.256.303a.469.469 0 0 1-.069.364l-.078.131-1.322-.767z" class="colorfed57a svgShape"></path><path fill="#4aa1f9" d="m11.171 77.964.014 2.854c0 .5.129.998.371 1.47.1.185.214.37.357.542.257.356.6.699 1.013 1.013.114.1.228.185.357.256.142.114.3.2.456.3.186.1.371.2.57.3.115.057.23.114.358.17.328.143.656.272 1.013.386.114.028.228.071.356.1.328.1.67.185 1.028.257.114.028.242.042.356.071.343.057.67.1 1.013.128.114.015.243.029.357.029.342.043.685.057 1.027.057h.357c.342 0 .685-.028 1.013-.057.114 0 .242-.014.357-.029a12.68 12.68 0 0 0 1.027-.142c.114-.015.242-.043.357-.072a11.68 11.68 0 0 0 1.013-.256c.128-.029.242-.058.356-.1a8.06 8.06 0 0 0 1.027-.4c.129-.043.243-.1.357-.157.186-.1.357-.185.528-.285.171-.1.342-.2.485-.3.129-.085.243-.17.357-.27.414-.3.756-.643 1.013-1 .143-.17.27-.356.357-.556.27-.485.399-.984.399-1.498l-.014-2.868c0 .514-.129-.016-.385.469-.1.185-.214.37-.357.556-.257.357-.6.7-1.013 1.013-.114.1-.228.186-.357.271-.157.1-.314.2-.485.3-.171.1-.342.185-.528.285a2.679 2.679 0 0 1-.357.157c-.328.157-.67.285-1.027.4-.114.042-.242.07-.356.1-.329.1-.671.185-1.013.256a2.627 2.627 0 0 1-.357.072c-.343.057-.685.114-1.027.142-.115.014-.229.029-.357.029-.328.028-.67.057-1.013.043-.114.014-.243.014-.357.014-.342 0-.685-.014-1.027-.057-.114 0-.243-.015-.357-.029a11.569 11.569 0 0 1-1.013-.128c-.114-.029-.242-.043-.356-.071a10.8 10.8 0 0 1-1.028-.257 2.617 2.617 0 0 1-.356-.1 10.63 10.63 0 0 1-1.013-.385c-.129-.057-.243-.1-.357-.157-.2-.1-.4-.2-.585-.314-.157-.086-.3-.186-.442-.286a2.056 2.056 0 0 1-.357-.256c-.414-.314-.756-.642-1.013-1a4.033 4.033 0 0 1-.357-.556c-.257-.485-.385.046-.385-.454z" class="colorf9bb4a svgShape"></path><path fill="#d839bb" d="M11.556 79.448v2.84c.1.185.214.37.357.542v-2.825a4.033 4.033 0 0 1-.357-.557zm1.37 1.555v2.84c.114.1.228.185.357.256V81.26a2.057 2.057 0 0 1-.357-.257zm1.384.856v2.84c.114.057.228.114.357.17v-2.853c-.129-.057-.243-.1-.357-.157zm1.37.543v2.853c.114.028.228.071.356.1V82.5a2.615 2.615 0 0 1-.356-.1zm1.384.356v2.854c.114.028.242.042.356.071V82.83c-.114-.029-.242-.043-.356-.072zm1.37.2v2.853c.113.015.242.029.356.029v-2.854c-.114 0-.243-.014-.357-.028zm1.383.086v2.853h.357V83.03c-.114.015-.243.015-.357.015zm1.37-.058v2.854c.114 0 .242-.014.357-.029v-2.853c-.115.014-.229.028-.357.028zm1.384-.17v2.853c.114-.015.242-.043.357-.072v-2.853a2.626 2.626 0 0 1-.357.071zm1.37-.329v2.854c.128-.029.242-.057.356-.1v-2.854c-.114.043-.242.072-.356.1zm1.383-.5v2.854c.129-.043.243-.1.357-.157v-2.853a2.681 2.681 0 0 1-.357.157zm1.37-.741v2.853c.129-.085.243-.17.357-.27v-2.854c-.114.1-.228.185-.357.27zm1.37-1.284v2.868c.143-.172.27-.357.357-.557v-2.868c-.1.186-.214.371-.357.557z" class="colord89b39 svgShape"></path><path fill="#7abcfe" d="M13.78 74.323c-3.452 1.993-3.478 5.23-.048 7.222 3.437 1.998 9.023 1.994 12.475 0s3.47-5.225.034-7.222c-3.43-1.993-9.01-1.993-12.461 0z" class="colorfed57a svgShape"></path><path fill="#ef41cf" d="M15.066 75.402c-2.738 1.398-2.758 3.667-.038 5.065 2.725 1.401 7.155 1.398 9.893 0 2.737-1.398 2.752-3.664.026-5.065-2.72-1.398-7.144-1.398-9.881 0z" class="colorefac41 svgShape"></path><path fill="#7abcfe" d="M16.599 76.594c-.383.293-.661.649-.829 1.06l1.288.134c.107-.307.264-.568.469-.776l.091-.093 1.48.86-.157.155c-.407.398-.625.736-.648 1.007-.02.239.174.48.58.715.44.255.972.386 1.546.378a4.245 4.245 0 0 0 1.74-.395l.078-.036.563.327.536-.31-.56-.324.194-.154c.493-.39.794-.85.894-1.366l-1.349-.076c-.073.422-.23.764-.468 1.02l-.092.098-1.523-.885.158-.155c.396-.387.605-.711.623-.966.016-.228-.18-.463-.584-.697-.434-.252-.943-.38-1.513-.38h-.012a4.079 4.079 0 0 0-1.682.367l-.08.036-.712-.415-.536.31.704.408-.2.153zm3.21 2.302c-.028-.13.02-.276.143-.446l.09-.123 1.47.855-.37.112a1.701 1.701 0 0 1-.492.078c-.21 0-.4-.049-.568-.147-.157-.092-.25-.204-.274-.33zm-1.752-2.343.383-.108c.361-.099.676-.077.934.075.152.088.246.199.28.329a.51.51 0 0 1-.076.396l-.085.142-1.436-.834z" class="colorfed57a svgShape"></path><path fill="#4aa1f9" d="m11.171 72.32.014 2.853c0 .5.129.999.371 1.47.1.185.214.37.357.542.257.356.6.699 1.013 1.013.114.1.228.185.357.257.142.114.3.2.456.3.186.1.371.199.57.299.115.057.23.114.358.171.328.143.656.271 1.013.385.114.029.228.072.356.1.328.1.67.186 1.028.257.114.028.242.043.356.071.343.057.67.1 1.013.129.114.014.243.028.357.028.342.043.685.057 1.027.057h.357c.342 0 .685-.028 1.013-.057.114 0 .242-.014.357-.028.342-.029.684-.086 1.027-.143.114-.014.242-.043.357-.071a11.68 11.68 0 0 0 1.013-.257c.128-.029.242-.057.356-.1a8.06 8.06 0 0 0 1.027-.4c.129-.042.243-.1.357-.156.186-.1.357-.186.528-.286.171-.1.342-.2.485-.3.129-.085.243-.17.357-.27.414-.3.756-.643 1.013-1 .143-.17.27-.356.357-.556.27-.485.399-.984.399-1.498l-.014-2.868c0 .514-.129-.016-.385.469-.1.185-.214.37-.357.556-.257.357-.6.7-1.013 1.013-.114.1-.228.186-.357.271-.157.1-.314.2-.485.3-.171.1-.342.186-.528.285a2.68 2.68 0 0 1-.357.157c-.328.157-.67.286-1.027.4-.114.043-.242.071-.356.1-.329.1-.671.185-1.013.257a2.627 2.627 0 0 1-.357.07c-.343.058-.685.115-1.027.144-.115.014-.229.028-.357.028-.328.029-.67.057-1.013.043-.114.014-.243.014-.357.014-.342 0-.685-.014-1.027-.057a3.02 3.02 0 0 1-.357-.028 11.569 11.569 0 0 1-1.013-.129c-.114-.028-.242-.043-.356-.071a10.8 10.8 0 0 1-1.028-.257 2.615 2.615 0 0 1-.356-.1 10.626 10.626 0 0 1-1.013-.385c-.129-.057-.243-.1-.357-.157-.2-.1-.4-.2-.585-.314-.157-.086-.3-.185-.442-.285a2.056 2.056 0 0 1-.357-.257c-.414-.314-.756-.642-1.013-.999a4.033 4.033 0 0 1-.357-.556c-.257-.485-.385.045-.385-.454z" class="colorf9bb4a svgShape"></path><path fill="#d839bb" d="M11.556 73.803v2.84c.1.185.214.37.357.542V74.36a4.034 4.034 0 0 1-.357-.557zm1.37 1.556v2.839c.114.1.228.185.357.257v-2.84a2.057 2.057 0 0 1-.357-.256zm1.384.856v2.839c.114.057.228.114.357.171v-2.853c-.129-.057-.243-.1-.357-.157zm1.37.542v2.853c.114.029.228.072.356.1v-2.853a2.617 2.617 0 0 1-.356-.1zm1.384.356v2.854c.114.028.242.043.356.071v-2.853c-.114-.029-.242-.043-.356-.072zm1.37.2v2.854c.113.014.242.028.356.028v-2.853c-.114 0-.243-.015-.357-.029zm1.383.086v2.853h.357v-2.867c-.114.014-.243.014-.357.014zm1.37-.057v2.853c.114 0 .242-.014.357-.028v-2.854c-.115.014-.229.029-.357.029zm1.384-.171v2.853c.114-.014.242-.043.357-.071v-2.854a2.625 2.625 0 0 1-.357.072zm1.37-.329v2.854c.128-.029.242-.057.356-.1v-2.853c-.114.042-.242.07-.356.1zm1.383-.499v2.853c.129-.042.243-.1.357-.156v-2.854a2.68 2.68 0 0 1-.357.157zm1.37-.742v2.854c.129-.086.243-.172.357-.271V75.33c-.114.1-.228.186-.357.271zm1.37-1.284v2.868c.143-.171.27-.357.357-.557v-2.867c-.1.185-.214.37-.357.556z" class="colord89b39 svgShape"></path><path fill="#7abcfe" d="M13.78 68.679c-3.452 1.993-3.478 5.229-.048 7.222 3.437 1.997 9.023 1.993 12.475 0s3.47-5.225.034-7.222c-3.43-1.994-9.01-1.994-12.461 0z" class="colorfed57a svgShape"></path><path fill="#ef41cf" d="M15.066 69.757c-2.738 1.398-2.758 3.668-.038 5.066 2.725 1.4 7.155 1.398 9.893 0s2.752-3.665.026-5.066c-2.72-1.398-7.144-1.398-9.881 0z" class="colorefac41 svgShape"></path><path fill="#7abcfe" d="M16.599 70.95c-.383.292-.661.648-.829 1.059l1.288.135c.107-.307.264-.568.469-.777l.091-.093 1.48.86-.157.155c-.407.398-.625.737-.648 1.007-.02.24.174.48.58.715.44.256.972.386 1.546.378a4.244 4.244 0 0 0 1.74-.395l.078-.036.563.327.536-.31-.56-.323.194-.154c.493-.39.794-.85.894-1.366l-1.349-.077c-.073.422-.23.764-.468 1.02l-.092.099-1.523-.886.158-.154c.396-.387.605-.712.623-.967.016-.228-.18-.462-.584-.697-.434-.252-.943-.38-1.513-.38h-.012a4.08 4.08 0 0 0-1.682.367l-.08.036-.712-.415-.536.31.704.409-.2.152zm3.21 2.301c-.028-.13.02-.275.143-.445l.09-.124 1.47.855-.37.112a1.7 1.7 0 0 1-.492.078c-.21 0-.4-.049-.568-.146-.157-.093-.25-.204-.274-.33zm-1.752-2.343.383-.107c.361-.1.676-.077.934.074.152.088.246.2.28.33a.51.51 0 0 1-.076.395l-.085.143-1.436-.835z" class="colorfed57a svgShape"></path><path fill="#4aa1f9" d="m11.391 66.724.015 2.836c0 .496.127.992.368 1.46.1.184.213.368.355.539.255.354.595.694 1.006 1.006.114.1.227.185.355.255.141.114.297.199.453.298.185.1.369.199.567.298.114.056.227.113.355.17.326.142.652.27 1.006.383.114.028.227.07.355.099.326.1.666.184 1.02.255.114.028.242.043.355.071.34.057.666.1 1.007.128a3 3 0 0 0 .354.028c.34.043.68.057 1.021.057h.354c.34 0 .68-.029 1.007-.057a3 3 0 0 0 .354-.028c.34-.029.681-.085 1.021-.142.114-.014.241-.043.355-.071.34-.07.68-.156 1.006-.255a2.6 2.6 0 0 0 .355-.1 8.01 8.01 0 0 0 1.02-.396c.128-.043.241-.1.355-.156.184-.1.354-.185.524-.284.17-.1.34-.198.483-.298.127-.085.24-.17.354-.269a4.467 4.467 0 0 0 1.007-.992c.141-.17.269-.355.354-.553.27-.482.397-.979.397-1.489l-.014-2.85c0 .51-.128-.016-.383.466a4.832 4.832 0 0 1-1.361 1.56c-.113.099-.227.184-.354.269-.156.099-.312.198-.483.297-.17.1-.34.185-.524.284a2.665 2.665 0 0 1-.355.156 8.013 8.013 0 0 1-1.02.397c-.114.042-.241.07-.355.1-.326.098-.666.183-1.006.254a2.61 2.61 0 0 1-.355.071c-.34.057-.68.114-1.02.142-.114.014-.227.028-.355.028a7.853 7.853 0 0 1-1.007.043c-.113.014-.24.014-.354.014-.34 0-.68-.014-1.02-.057a3 3 0 0 1-.355-.028c-.34-.028-.68-.07-1.007-.128-.113-.028-.24-.042-.354-.07-.355-.071-.695-.156-1.021-.256a2.6 2.6 0 0 1-.355-.099c-.354-.113-.68-.24-1.006-.383-.128-.056-.241-.099-.355-.156-.198-.099-.397-.198-.58-.312-.157-.085-.299-.184-.44-.283a2.044 2.044 0 0 1-.355-.255c-.41-.312-.751-.638-1.006-.993a4.008 4.008 0 0 1-.355-.553c-.255-.482-.383.045-.383-.45z" class="colorf9bb4a svgShape"></path><path fill="#d839bb" d="M11.774 68.199v2.82c.1.185.213.37.355.54V68.75a4.008 4.008 0 0 1-.355-.552zm1.361 1.545v2.821c.114.1.227.185.355.255V70a2.044 2.044 0 0 1-.355-.256zm1.375.85v2.822c.114.056.227.113.355.17V70.75c-.128-.056-.241-.099-.355-.155zm1.361.54v2.835c.114.028.227.07.355.099v-2.835a2.603 2.603 0 0 1-.355-.1zm1.376.354v2.835c.113.028.24.043.354.071V71.56c-.113-.029-.24-.043-.354-.071zm1.36.198v2.836a3 3 0 0 0 .355.028v-2.836c-.113 0-.24-.014-.354-.028zm1.376.085v2.836h.354v-2.85c-.113.014-.24.014-.354.014zm1.361-.057v2.836a3 3 0 0 0 .354-.028v-2.836c-.113.014-.226.028-.354.028zm1.375-.17v2.836c.114-.014.241-.043.355-.071v-2.835a2.61 2.61 0 0 1-.355.07zm1.361-.326v2.836a2.6 2.6 0 0 0 .355-.1V71.12c-.114.043-.241.07-.355.1zm1.375-.496v2.836c.128-.043.241-.1.355-.156v-2.836a2.662 2.662 0 0 1-.355.156zm1.362-.737v2.835c.127-.085.24-.17.354-.269v-2.835c-.113.099-.227.184-.354.269zm1.36-1.276v2.85c.142-.17.27-.355.355-.553v-2.85c-.1.184-.213.369-.355.553z" class="colord89b39 svgShape"></path><path fill="#7abcfe" d="M13.984 63.106c-3.43 1.98-3.456 5.196-.048 7.177 3.415 1.984 8.966 1.98 12.397 0s3.448-5.192.033-7.177c-3.408-1.98-8.952-1.98-12.382 0z" class="colorfed57a svgShape"></path><path fill="#ef41cf" d="M15.261 64.178c-2.72 1.389-2.74 3.644-.037 5.033 2.708 1.392 7.11 1.39 9.83 0s2.735-3.641.027-5.033c-2.703-1.39-7.1-1.39-9.82 0z" class="colorefac41 svgShape"></path><path fill="#7abcfe" d="M16.785 65.362c-.38.292-.657.645-.823 1.053l1.28.134c.106-.305.262-.564.465-.771l.09-.093 1.472.855-.157.154c-.404.395-.62.732-.644 1-.02.238.174.477.576.71.438.255.967.384 1.537.376a4.218 4.218 0 0 0 1.728-.392l.079-.036.559.325.532-.307-.555-.322.192-.153c.49-.388.788-.845.888-1.358l-1.34-.075c-.073.418-.23.759-.465 1.013l-.092.098-1.514-.88.158-.154c.393-.384.6-.707.619-.96.016-.226-.18-.46-.58-.693-.432-.25-.937-.377-1.504-.377h-.012a4.053 4.053 0 0 0-1.672.364l-.078.036-.709-.412-.532.308.7.406-.198.151zm3.19 2.288c-.028-.129.02-.274.142-.443l.088-.123 1.463.85-.37.111a1.69 1.69 0 0 1-.487.078c-.208 0-.397-.049-.564-.146-.157-.091-.249-.202-.273-.327zm-1.742-2.328.382-.107c.358-.099.671-.077.927.074.151.087.245.197.278.327a.507.507 0 0 1-.074.393l-.085.142-1.428-.83z" class="colorfed57a svgShape"></path><path fill="#4aa1f9" d="m11.391 61.104.015 2.835c0 .497.127.993.368 1.46.1.185.213.37.355.54.255.354.595.694 1.006 1.006.114.1.227.184.355.255.141.114.297.199.453.298.185.1.369.198.567.298.114.056.227.113.355.17.326.142.652.27 1.006.383.114.028.227.07.355.099.326.1.666.184 1.02.255.114.028.242.043.355.07.34.058.666.1 1.007.129a3 3 0 0 0 .354.028c.34.042.68.057 1.021.057h.354c.34 0 .68-.029 1.007-.057a3 3 0 0 0 .354-.028c.34-.029.681-.086 1.021-.142a3.13 3.13 0 0 0 .355-.071c.34-.071.68-.156 1.006-.255a2.6 2.6 0 0 0 .355-.1 8.013 8.013 0 0 0 1.02-.397c.128-.042.241-.099.355-.156.184-.099.354-.184.524-.283.17-.1.34-.199.483-.298.127-.085.24-.17.354-.27a4.467 4.467 0 0 0 1.007-.992c.141-.17.269-.354.354-.553.27-.482.397-.978.397-1.488l-.014-2.85c0 .51-.128-.016-.383.466a4.832 4.832 0 0 1-1.361 1.56c-.113.098-.227.183-.354.269-.156.099-.312.198-.483.297-.17.1-.34.185-.524.284a2.662 2.662 0 0 1-.355.156 8.01 8.01 0 0 1-1.02.397c-.114.042-.241.07-.355.099-.326.1-.666.184-1.006.255a2.61 2.61 0 0 1-.355.071c-.34.057-.68.113-1.02.142-.114.014-.227.028-.355.028a7.851 7.851 0 0 1-1.007.043c-.113.014-.24.014-.354.014-.34 0-.68-.014-1.02-.057a3 3 0 0 1-.355-.028c-.34-.029-.68-.071-1.007-.128-.113-.028-.24-.042-.354-.07-.355-.072-.695-.157-1.021-.256a2.6 2.6 0 0 1-.355-.1 10.56 10.56 0 0 1-1.006-.382c-.128-.057-.241-.1-.355-.156a7.555 7.555 0 0 1-.58-.312c-.157-.085-.299-.184-.44-.283a2.044 2.044 0 0 1-.355-.256c-.41-.311-.751-.637-1.006-.992a4.008 4.008 0 0 1-.355-.553c-.255-.482-.383.045-.383-.451z" class="colorf9bb4a svgShape"></path><path fill="#d839bb" d="M11.774 62.578V65.4c.1.184.213.368.355.538v-2.807a4.008 4.008 0 0 1-.355-.553zm1.361 1.546v2.821c.114.1.227.184.355.255V64.38a2.044 2.044 0 0 1-.355-.255zm1.375.85v2.822c.114.056.227.113.355.17V65.13c-.128-.056-.241-.099-.355-.156zm1.361.54v2.835c.114.028.227.07.355.099v-2.836a2.6 2.6 0 0 1-.355-.099zm1.376.354v2.835c.113.028.24.043.354.07v-2.835c-.113-.028-.24-.042-.354-.07zm1.36.198v2.836a3 3 0 0 0 .355.028v-2.836c-.113 0-.24-.014-.354-.028zm1.376.085v2.836h.354v-2.85c-.113.014-.24.014-.354.014zm1.361-.057v2.836a3 3 0 0 0 .354-.028v-2.836c-.113.014-.226.028-.354.028zm1.375-.17v2.836a3.13 3.13 0 0 0 .355-.071v-2.836a2.61 2.61 0 0 1-.355.071zm1.361-.326v2.836a2.6 2.6 0 0 0 .355-.1V65.5c-.114.042-.241.07-.355.1zm1.375-.496v2.835c.128-.042.241-.099.355-.156v-2.835a2.662 2.662 0 0 1-.355.156zm1.362-.737V67.2c.127-.085.24-.17.354-.27v-2.835c-.113.1-.227.185-.354.27zm1.36-1.276v2.85c.142-.17.27-.355.355-.554v-2.85c-.1.185-.213.37-.355.554z" class="colord89b39 svgShape"></path><path fill="#7abcfe" d="M13.984 57.486c-3.43 1.98-3.456 5.196-.048 7.176 3.415 1.985 8.966 1.981 12.397 0 3.43-1.98 3.448-5.192.033-7.176-3.408-1.98-8.952-1.98-12.382 0z" class="colorfed57a svgShape"></path><path fill="#ef41cf" d="M15.261 58.558c-2.72 1.389-2.74 3.644-.037 5.033 2.708 1.392 7.11 1.39 9.83 0 2.72-1.389 2.735-3.641.027-5.033-2.703-1.39-7.1-1.39-9.82 0z" class="colorefac41 svgShape"></path><path fill="#7abcfe" d="M16.785 59.742c-.38.292-.657.645-.823 1.053l1.28.134c.106-.305.262-.564.465-.771l.09-.093 1.472.855-.157.153c-.404.396-.62.733-.644 1.001-.02.238.174.477.576.71.438.255.967.384 1.537.376a4.218 4.218 0 0 0 1.728-.392l.079-.036.559.325.532-.308-.555-.322.192-.152c.49-.388.788-.845.888-1.358l-1.34-.075c-.073.418-.23.759-.465 1.013l-.092.098-1.514-.88.158-.154c.393-.384.6-.707.619-.96.016-.227-.18-.46-.58-.693-.432-.25-.937-.378-1.504-.378h-.012a4.053 4.053 0 0 0-1.672.365l-.078.036-.709-.412-.532.307.7.407-.198.151zm3.19 2.288c-.028-.129.02-.274.142-.443l.088-.123 1.463.85-.37.11a1.69 1.69 0 0 1-.487.079c-.208 0-.397-.049-.564-.146-.157-.092-.249-.203-.273-.327zm-1.742-2.328.382-.107c.358-.099.671-.077.927.073.151.088.245.198.278.328a.507.507 0 0 1-.074.393l-.085.142-1.428-.83z" class="colorfed57a svgShape"></path><path fill="#4aa1f9" d="m112.657 53.541.013 2.643c0 .462.119.924.344 1.36.092.172.198.344.33.503.238.33.555.647.938.938a1.9 1.9 0 0 0 .33.237c.132.106.278.185.423.278.172.092.343.185.528.277.106.053.212.106.33.159.305.132.608.25.939.357.105.026.211.066.33.092.304.093.621.172.951.238.106.026.225.04.33.066.318.053.622.092.939.119.105.013.224.026.33.026.317.04.634.053.951.053h.33c.318 0 .635-.026.939-.053.105 0 .224-.013.33-.026.317-.027.634-.08.951-.132a2.92 2.92 0 0 0 .33-.066c.318-.066.635-.146.939-.238.118-.027.224-.053.33-.093.33-.105.647-.224.951-.37.119-.04.225-.092.33-.145.172-.092.33-.172.49-.264a6.67 6.67 0 0 0 .448-.278c.12-.079.225-.158.33-.25.384-.278.7-.595.939-.925.132-.159.25-.33.33-.516.251-.449.37-.911.37-1.387l-.013-2.656c0 .476-.12-.015-.357.434a4.502 4.502 0 0 1-1.268 1.453 3.107 3.107 0 0 1-.33.252c-.146.092-.291.185-.45.277-.158.092-.317.172-.489.264a2.482 2.482 0 0 1-.33.145c-.304.146-.62.265-.951.37-.106.04-.225.067-.33.093-.304.092-.621.172-.939.238a2.431 2.431 0 0 1-.33.066 11.74 11.74 0 0 1-.951.132c-.106.013-.212.026-.33.026a7.317 7.317 0 0 1-.938.04 2.758 2.758 0 0 1-.33.013c-.318 0-.635-.013-.952-.053-.106 0-.225-.013-.33-.026a10.714 10.714 0 0 1-.938-.119c-.106-.026-.225-.04-.33-.066-.331-.066-.648-.145-.952-.238a2.423 2.423 0 0 1-.33-.092 9.843 9.843 0 0 1-.938-.357c-.12-.053-.225-.093-.33-.145a7.037 7.037 0 0 1-.542-.291c-.146-.08-.278-.172-.41-.264a1.904 1.904 0 0 1-.33-.238c-.383-.29-.7-.595-.938-.925a3.734 3.734 0 0 1-.33-.515c-.238-.45-.357.042-.357-.42z" class="colorf9bb4a svgShape"></path><path fill="#d839bb" d="M113.014 54.915v2.63c.092.171.198.343.33.501v-2.615a3.736 3.736 0 0 1-.33-.516zm1.268 1.44v2.63a1.9 1.9 0 0 0 .33.237v-2.629a1.904 1.904 0 0 1-.33-.238zm1.281.793v2.63c.106.052.212.105.33.158v-2.643c-.118-.052-.224-.092-.33-.145zm1.269.502v2.643c.105.026.211.066.33.092v-2.642a2.422 2.422 0 0 1-.33-.093zm1.281.33v2.643c.106.026.225.04.33.066v-2.642c-.105-.027-.224-.04-.33-.067zm1.269.185v2.643c.105.013.224.026.33.026v-2.642c-.106 0-.225-.013-.33-.027zm1.281.08v2.642h.33v-2.656c-.105.014-.224.014-.33.014zm1.269-.053v2.642c.105 0 .224-.013.33-.026v-2.643c-.106.014-.212.027-.33.027zm1.281-.159v2.643a2.92 2.92 0 0 0 .33-.066v-2.643a2.434 2.434 0 0 1-.33.066zm1.269-.304v2.643c.118-.027.224-.053.33-.093v-2.642c-.106.04-.225.066-.33.092zm1.281-.462v2.642c.119-.04.225-.092.33-.145v-2.642a2.485 2.485 0 0 1-.33.145zm1.268-.687v2.642c.12-.079.225-.158.33-.25v-2.643a3.11 3.11 0 0 1-.33.251zm1.269-1.19v2.657c.132-.159.25-.33.33-.516v-2.655a3.735 3.735 0 0 1-.33.515z" class="colord89b39 svgShape"></path><path fill="#7abcfe" d="M115.072 50.17c-3.196 1.845-3.22 4.842-.044 6.687 3.183 1.85 8.356 1.846 11.553 0 3.196-1.845 3.213-4.838.03-6.687-3.175-1.846-8.342-1.846-11.539 0z" class="colorfed57a svgShape"></path><path fill="#ef41cf" d="M116.263 51.168c-2.535 1.295-2.553 3.397-.035 4.691 2.524 1.297 6.626 1.295 9.161 0 2.535-1.294 2.549-3.393.025-4.69-2.519-1.295-6.616-1.295-9.15 0z" class="colorefac41 svgShape"></path><path fill="#7abcfe" d="M117.683 52.272a2.35 2.35 0 0 0-.767.981l1.192.125c.1-.284.245-.526.434-.719l.085-.086 1.37.797-.145.143c-.377.369-.579.682-.6.932-.02.222.161.445.536.663.408.236.901.357 1.433.35a3.93 3.93 0 0 0 1.61-.366l.073-.034.521.303.496-.286-.517-.3.179-.143c.456-.361.735-.787.828-1.265l-1.25-.07c-.068.39-.213.707-.433.944l-.085.091-1.41-.82.146-.143c.366-.358.56-.66.577-.895.014-.21-.168-.428-.54-.646-.403-.233-.874-.351-1.402-.351h-.011a3.777 3.777 0 0 0-1.558.34l-.073.033-.66-.384-.497.286.652.379-.184.141zm2.972 2.132c-.025-.12.019-.255.133-.413l.083-.114 1.362.792-.343.103a1.575 1.575 0 0 1-.455.073c-.194 0-.37-.045-.526-.136-.146-.085-.231-.189-.254-.305zm-1.622-2.17.355-.1c.335-.091.626-.07.865.07.14.081.227.184.258.304.03.117.007.24-.069.367l-.08.132-1.33-.772z" class="colorfed57a svgShape"></path><path fill="#4aa1f9" d="m112.657 49.939.013 2.642c0 .463.119.925.344 1.361.092.172.198.344.33.502.238.33.555.648.938.938a1.9 1.9 0 0 0 .33.238c.132.106.278.185.423.278.172.092.343.185.528.277.106.053.212.106.33.159.305.132.608.25.939.356.105.027.211.066.33.093.304.092.621.172.951.238.106.026.225.04.33.066.318.052.622.092.939.119.105.013.224.026.33.026.317.04.634.053.951.053h.33c.318 0 .635-.027.939-.053.105 0 .224-.013.33-.026.317-.027.634-.08.951-.133a2.92 2.92 0 0 0 .33-.066c.318-.066.635-.145.939-.237.118-.027.224-.053.33-.093.33-.106.647-.224.951-.37.119-.04.225-.092.33-.145.172-.093.33-.172.49-.264a6.67 6.67 0 0 0 .448-.278c.12-.08.225-.158.33-.25.384-.278.7-.595.939-.926.132-.158.25-.33.33-.515.251-.45.37-.912.37-1.387l-.013-2.656c0 .476-.12-.015-.357.434a4.502 4.502 0 0 1-1.268 1.453 3.107 3.107 0 0 1-.33.251c-.146.093-.291.185-.45.278-.158.092-.317.171-.489.264a2.482 2.482 0 0 1-.33.145c-.304.146-.62.265-.951.37-.106.04-.225.066-.33.093-.304.092-.621.171-.939.238a2.431 2.431 0 0 1-.33.066 11.74 11.74 0 0 1-.951.132c-.106.013-.212.026-.33.026a7.317 7.317 0 0 1-.938.04 2.758 2.758 0 0 1-.33.013c-.318 0-.635-.013-.952-.053-.106 0-.225-.013-.33-.026a10.714 10.714 0 0 1-.938-.12c-.106-.026-.225-.039-.33-.065a10 10 0 0 1-.952-.238 2.423 2.423 0 0 1-.33-.093 9.843 9.843 0 0 1-.938-.356c-.12-.053-.225-.093-.33-.146a7.037 7.037 0 0 1-.542-.29c-.146-.08-.278-.172-.41-.265a1.904 1.904 0 0 1-.33-.237c-.383-.291-.7-.595-.938-.925a3.734 3.734 0 0 1-.33-.515c-.238-.45-.357.041-.357-.421z" class="colorf9bb4a svgShape"></path><path fill="#d839bb" d="M113.014 51.313v2.63c.092.171.198.343.33.501v-2.616a3.734 3.734 0 0 1-.33-.515zm1.268 1.44v2.63a1.9 1.9 0 0 0 .33.237v-2.629a1.903 1.903 0 0 1-.33-.238zm1.281.793v2.629c.106.053.212.106.33.159V53.69c-.118-.053-.224-.092-.33-.145zm1.269.502v2.642c.105.027.211.066.33.093V54.14a2.422 2.422 0 0 1-.33-.092zm1.281.33v2.643c.106.026.225.04.33.066v-2.643c-.105-.026-.224-.04-.33-.066zm1.269.185v2.643c.105.013.224.026.33.026V54.59c-.106 0-.225-.014-.33-.027zm1.281.08v2.642h.33v-2.656c-.105.013-.224.013-.33.013zm1.269-.053v2.642c.105 0 .224-.013.33-.026v-2.643c-.106.013-.212.027-.33.027zm1.281-.159v2.642a2.92 2.92 0 0 0 .33-.066v-2.642a2.434 2.434 0 0 1-.33.066zm1.269-.304v2.643c.118-.027.224-.053.33-.093v-2.642c-.106.04-.225.066-.33.092zm1.281-.462v2.642c.119-.04.225-.092.33-.145v-2.643a2.482 2.482 0 0 1-.33.146zm1.268-.687v2.642c.12-.08.225-.158.33-.25v-2.643a3.11 3.11 0 0 1-.33.25zm1.269-1.19v2.656c.132-.158.25-.33.33-.515v-2.656a3.736 3.736 0 0 1-.33.516z" class="colord89b39 svgShape"></path><path fill="#7abcfe" d="M115.072 46.567c-3.196 1.846-3.22 4.842-.044 6.688 3.183 1.85 8.356 1.846 11.553 0 3.196-1.845 3.213-4.838.03-6.688-3.175-1.845-8.342-1.845-11.539 0z" class="colorfed57a svgShape"></path><path fill="#ef41cf" d="M116.263 47.566c-2.535 1.295-2.553 3.396-.035 4.69 2.524 1.298 6.626 1.295 9.161 0 2.535-1.294 2.549-3.393.025-4.69-2.519-1.294-6.616-1.294-9.15 0z" class="colorefac41 svgShape"></path><path fill="#7abcfe" d="M117.683 48.67a2.35 2.35 0 0 0-.767.981l1.192.125c.1-.284.245-.526.434-.719l.085-.086 1.37.797-.145.143c-.377.368-.579.682-.6.932-.02.222.161.444.536.662.408.237.901.358 1.433.35a3.93 3.93 0 0 0 1.61-.365l.073-.034.521.303.496-.287-.517-.3.179-.142c.456-.362.735-.787.828-1.265l-1.25-.07c-.068.39-.213.707-.433.944l-.085.09-1.41-.82.146-.142c.366-.359.56-.66.577-.895.014-.211-.168-.428-.54-.646-.403-.233-.874-.352-1.402-.352h-.011a3.777 3.777 0 0 0-1.558.34l-.073.034-.66-.385-.497.287.652.379-.184.141zm2.972 2.132c-.025-.12.019-.255.133-.413l.083-.114 1.362.791-.343.104a1.575 1.575 0 0 1-.455.072c-.194 0-.37-.045-.526-.135-.146-.086-.231-.19-.254-.305zm-1.622-2.17.355-.1c.335-.091.626-.07.865.07.14.08.227.184.258.304.03.116.007.24-.069.367l-.08.132-1.33-.773z" class="colorfed57a svgShape"></path><path fill="#a50b89" d="m118.214 73.504.065 31.934c.002.788.519 1.575 1.551 2.175 2.078 1.208 5.473 1.208 7.564 0 1.053-.607 1.579-1.407 1.576-2.206l-.065-31.934c.003.799-.523 1.599-1.575 2.207-2.092 1.207-5.487 1.207-7.565 0-1.032-.6-1.549-1.388-1.551-2.176z" class="colorfa5168 svgShape"></path><path fill="#f960dd" d="M119.79 71.298c-2.092 1.207-2.103 3.174-.025 4.381 2.078 1.208 5.473 1.208 7.565 0 2.091-1.207 2.102-3.174.024-4.381-2.078-1.208-5.473-1.208-7.564 0z" class="colorf9607f svgShape"></path><path fill="#5046e4" d="m106.392 85.188.065 26.789c.002.788.519 1.575 1.551 2.175 2.078 1.208 5.473 1.208 7.564 0 1.053-.607 1.579-1.407 1.576-2.206l-.065-26.789c.003.799-.523 1.599-1.576 2.206-2.091 1.208-5.486 1.208-7.564 0-1.032-.6-1.549-1.387-1.551-2.175z" class="color576cfb svgShape"></path><path fill="#7d74fd" d="M107.968 82.982c-2.092 1.207-2.103 3.174-.025 4.381 2.078 1.208 5.473 1.208 7.565 0 2.091-1.207 2.102-3.174.024-4.381-2.078-1.208-5.473-1.208-7.564 0z" class="color748bfd svgShape"></path><path fill="#5c377b" d="m94.568 96.869.065 21.644c.002.788.519 1.577 1.553 2.178 2.078 1.208 5.473 1.208 7.55.009 1.057-.611 1.583-1.41 1.58-2.205l-.064-21.644c.002.796-.523 1.594-1.582 2.205-2.076 1.199-5.471 1.199-7.549-.009-1.034-.6-1.55-1.39-1.553-2.178z" class="color37617b svgShape"></path><path fill="#724c91" d="M96.13 94.674c-2.076 1.2-2.087 3.166-.009 4.373 2.078 1.208 5.473 1.208 7.55.009 2.106-1.216 2.102-3.174.024-4.382-2.078-1.207-5.458-1.216-7.564 0z" class="color4c7891 svgShape"></path><path fill="#a375ca" d="m82.74 108.551.065 16.5c.002.789.523 1.577 1.559 2.18 2.078 1.207 5.458 1.215 7.55.008 1.057-.611 1.583-1.41 1.58-2.205l-.064-16.5c.002.797-.524 1.595-1.582 2.206-2.091 1.207-5.471 1.199-7.55-.009-1.035-.602-1.556-1.39-1.558-2.18z" class="color75ca75 svgShape"></path><path fill="#98b8d8" d="M84.309 106.358c-2.092 1.208-2.088 3.165-.01 4.373 2.078 1.208 5.458 1.216 7.55.009 2.106-1.216 2.102-3.174.024-4.382-2.078-1.207-5.458-1.216-7.564 0z" class="color9ad898 svgShape"></path></svg>