<svg xmlns="http://www.w3.org/2000/svg" enable-background="new 0 0 132 132" viewBox="0 0 132 132" id="CustomerServices"><g fill="#010001" class="color000000 svgShape"><polygon fill="#a50b89" points="95.5 59.7 95.4 84.5 88.5 88.5 88.6 63.7" class="colorf34858 svgShape"></polygon><polygon fill="#f4f6f8" points="88.6 63.7 88.5 88.5 81.6 84.5 81.7 59.7" class="colorfa5168 svgShape"></polygon><polygon fill="#f960dd" points="95.5 59.7 88.6 63.7 81.7 59.7 88.6 55.8" class="colorf9607f svgShape"></polygon></g><g fill="#010001" class="color000000 svgShape"><polygon fill="#986eba" points="105.6 73 105.5 97.8 98.7 94.4 98.8 77" class="color6eba6e svgShape"></polygon><polygon fill="#a375ca" points="98.8 77 98.7 94.4 91.8 90.4 91.9 73" class="color75ca75 svgShape"></polygon><polygon fill="#98b8d8" points="105.6 73 98.8 77 91.9 73 98.7 69" class="color9ad898 svgShape"></polygon></g><g fill="#010001" class="color000000 svgShape"><polygon fill="#ef41cf" points="115.7 86.3 115.6 96.2 108.8 100.2 108.9 90.2" class="colorefac41 svgShape"></polygon><polygon fill="#4aa1f9" points="108.9 90.2 108.8 100.2 101.9 96.2 102 86.3" class="colorf9bb4a svgShape"></polygon><polygon fill="#7abcfe" points="115.7 86.3 108.9 90.2 102 86.3 108.8 82.3" class="colorfed57a svgShape"></polygon></g><g fill="#010001" class="color000000 svgShape"><polygon fill="#5c377b" points="125.9 95.9 125.8 102.1 118.9 106 119 99.9" class="color37617b svgShape"></polygon><polygon fill="#664184" points="119 99.9 118.9 106 112 102.1 112.1 95.9" class="color416e84 svgShape"></polygon><polygon fill="#724c91" points="125.9 95.9 119 99.9 112.1 95.9 119 91.9" class="color4c7891 svgShape"></polygon></g><path fill="#6822a2" d="M57.6,5.8c-0.9-0.5-2.2-0.4-3.6,0.4L17.3,27.3c-2.8,1.6-5,5.5-5,8.7l0.2,74.7c0,1.6,0.6,2.7,1.5,3.2
				l-6.1-3.5c-0.9-0.5-1.5-1.6-1.5-3.2L6.1,32.5c0-3.2,2.2-7.1,5-8.7L47.9,2.6c1.4-0.8,2.7-0.9,3.6-0.3L57.6,5.8z" class="color5b5e71 svgShape"></path><path fill="#514759" d="M54,6.1C56.8,4.5,59,5.8,59,9l0.2,74.7c0,3.2-2.2,7.1-5,8.7l-36.7,21.2c-2.8,1.6-5,0.3-5.1-2.9L12.2,36
				c0-3.2,2.2-7.1,5-8.7L54,6.1z" class="color474b59 svgShape"></path><path fill="#6822a2" d="M46 13.7c.5-.3.9 0 .9.5 0 .6-.4 1.3-.9 1.6-.5.3-.9 0-.9-.5C45.1 14.7 45.5 14 46 13.7zM37.5 94.8c.2-.1.4 0 .4.2l0 3.7c0 .2-.2.5-.4.6l-3.2 1.9c-.2.1-.4 0-.4-.2l0-3.7c0-.2.2-.5.4-.6L37.5 94.8z" class="color5b5e71 svgShape"></path><polygon fill="#f4f6f8" points="56.4 81.6 15.3 105.4 15.1 35.6 56.2 11.9" class="coloreaf0f6 svgShape"></polygon><polygon fill="#6822a2" points="42.4 15.9 42.4 17.8 24.4 28.2 24.4 26.4" class="color5b5e71 svgShape"></polygon><path fill="#d4dee8" d="M45.9,54.6l-2,1.2c0-6.3-4.5-8.9-10-5.7v-2.4C40.5,43.9,45.9,47,45.9,54.6z" class="colord4dae8 svgShape"></path><path fill="#d4dee8" d="M41.9 56.9l-2 1.2c0-3.8-2.7-5.3-6-3.4v-2.4C38.3 49.8 41.9 51.9 41.9 56.9zM50 52.3l-2 1.2c0-8.9-6.3-12.5-14.1-8l0-2.3C42.7 38 49.9 42.1 50 52.3z" class="colord4dae8 svgShape"></path><path fill="#d4dee8" d="M37.9,59.2l-2,1.2c0-1.2-0.9-1.7-1.9-1.1V57C36.1,55.7,37.9,56.7,37.9,59.2z" class="colord4dae8 svgShape"></path><path fill="#724c91" d="M52.4,69.8c-1.8,2.3-3.8,4.1-5.9,5.3c-3,1.7-6,2.1-8.3,0.8l-16.6-9.5c-3.9-2.2-4.5-8.6-1.8-15.3h0
				c0.6-1,1.3-1.8,2.1-2.2c0.7-0.4,1.4-0.5,2-0.3l4.7,2.7c1.1,0.6,1.1,2.7-0.1,4.7l-2.1,3.5l15.2,8.7l2.1-3.6c0.6-1,1.4-1.8,2.1-2.2
				c0.7-0.4,1.4-0.5,2-0.2l4.7,2.7C53.6,65.7,53.5,67.8,52.4,69.8z" class="color4c7891 svgShape"></path><path fill="#7abcfe" d="M95.9,4.3C95.4,4,94.8,4,94,4.5L60.8,23.7c-1.5,0.8-2.7,2.9-2.7,4.6l0.1,27c0,0.8,0.3,1.4,0.8,1.7l-4-2.3
				c-0.5-0.3-0.8-0.9-0.8-1.7l-0.1-27c0-1.7,1.2-3.7,2.7-4.6L90,2.1c0.7-0.4,1.4-0.5,1.9-0.2L95.9,4.3z" class="colorfed57a svgShape"></path><path fill="#ef41cf" d="M94,4.5c1.5-0.8,2.7-0.2,2.7,1.5l0.1,27c0,1.7-1.2,3.7-2.6,4.6L84,43.4l-6.5,14L71,51l-10.1,5.8
				c-1.5,0.8-2.7,0.2-2.7-1.5l-0.1-27c0-1.7,1.2-3.7,2.6-4.6L94,4.5z" class="colorefac41 svgShape"></path><path fill="#ffffff" d="M65.3,33.1c0.8-0.5,1.5-0.6,2.1-0.3c0.6,0.2,0.9,0.9,0.9,1.9c0,0.6-0.1,1.2-0.4,1.9
					c-0.3,0.7-0.7,1.6-1.4,2.8l-2.3,4l4.4-2.5l0,1.8l-6.6,3.8l0-1.6l2.9-5.1c0.7-1.2,1.1-2,1.4-2.6c0.3-0.6,0.4-1.1,0.4-1.6
					c0-0.4-0.1-0.7-0.4-0.9c-0.3-0.1-0.7-0.1-1.1,0.2c-0.8,0.5-1.5,1.3-2,2.5l-1.3-0.1c0.4-1,0.9-1.8,1.4-2.5
					C63.8,34.1,64.5,33.6,65.3,33.1z" class="colorffffff svgShape"></path><polygon fill="#ffffff" points="75.3 27.6 71.8 36.3 74.1 34.9 74.1 32.9 75.7 32 75.7 34 76.8 33.4 76.8 35.1 75.7 35.7 75.7 38.6 74.1 39.5 74.1 36.6 69.9 39.1 69.9 37.4 73.5 28.6" class="colorffffff svgShape"></polygon><polygon fill="#ffffff" points="85.2 20.1 79.2 38.4 77.8 39.2 83.8 20.9" class="colorffffff svgShape"></polygon><polygon fill="#ffffff" points="93 17.4 93 19 88.9 30.9 87.1 32 91.1 20.2 87.7 22.2 87.7 23.7 86.2 24.5 86.2 21.3" class="colorffffff svgShape"></polygon><g fill="#010001" class="color000000 svgShape"><path fill="#5046e4" d="M47.7 102.5l0 4.2c0 1.2.6 2.4 1.7 3.5l0-4.2C48.2 104.9 47.7 103.7 47.7 102.5zM41.6 112l0 4.2c0 1.6 1 3.2 3.1 4.4.3.2.7.4 1.1.6l0-4.2c-.4-.2-.8-.4-1.1-.6C42.6 115.2 41.6 113.6 41.6 112z" class="color576cfb svgShape"></path><path fill="#5046e4" d="M98.3,106.2c0,1.7-1.1,3.4-3.4,4.8l-30.1,17.4c-4.5,2.6-11.8,2.6-16.3,0c-2.2-1.3-3.4-3-3.4-4.7l0-4.2
						c0,1.7,1.1,3.4,3.4,4.7c4.5,2.6,11.8,2.6,16.3,0l30.1-17.4c2.3-1.3,3.4-3,3.4-4.7L98.3,106.2z" class="color576cfb svgShape"></path><path fill="#7d74fd" d="M51.2,97.6c-3.9,2.3-4.5,5.7-1.8,8.3c-1.7,0.3-3.2,0.8-4.6,1.6c-4.3,2.5-4.3,6.5-0.1,8.9
						c0.3,0.2,0.7,0.4,1.1,0.6c-1.6,2.4-0.7,5.2,2.6,7.1c4.5,2.6,11.8,2.6,16.3,0l30.1-17.4c4.5-2.6,4.6-6.8,0.1-9.5
						c-3.4-2-8.5-2.5-12.7-1.4c-0.3-0.2-0.5-0.4-0.9-0.6c-4.2-2.4-10.9-2.4-15.1,0c-0.6,0.4-1.1,0.7-1.6,1.1
						C60.4,95.1,54.9,95.5,51.2,97.6z" class="color748bfd svgShape"></path><polygon fill="#e4ecf4" points="62 99.6 64.8 106.6 67.7 104.9 77.7 110.8 81.3 108.7 71.3 102.9 74.2 101.2" class="colore4e8f4 svgShape"></polygon><polygon fill="#7abcfe" points="51.4 105.7 61.4 111.6 58.5 113.3 70.7 114.9 67.9 107.8 65 109.5 54.9 103.7" class="colorfed57a svgShape"></polygon></g><g fill="#010001" class="color000000 svgShape"><path fill="#a375ca" d="M51.4,17.3l3.8-2.2l0,1.6l-3.8,2.2l0-0.3l-0.5,0.3l0-0.9l0.5-0.3L51.4,17.3z M53.9,17.3l0-1.2l-0.4,0.2
					l0,1.2L53.9,17.3 M54.9,16.7l0-1.2l-0.4,0.2l0,1.2L54.9,16.7 M53.4,17.6l0-1.2L53,16.5l0,1.2L53.4,17.6 M54.4,17l0-1.2l-0.3,0.2
					l0,1.2L54.4,17" class="color75ca75 svgShape"></path><polygon fill="#a375ca" points="21.9 33.9 21.9 35.7 21.6 35.9 21.6 34.1" class="color75ca75 svgShape"></polygon><polygon fill="#a375ca" points="21.4 34.4 21.4 36 21.1 36.2 21.1 34.6" class="color75ca75 svgShape"></polygon><polygon fill="#a375ca" points="20.9 34.9 20.9 36.3 20.6 36.5 20.6 35.1" class="color75ca75 svgShape"></polygon><polygon fill="#a375ca" points="20.4 35.4 20.4 36.6 20.2 36.7 20.1 35.6" class="color75ca75 svgShape"></polygon><polygon fill="#a375ca" points="20 36 20 36.8 19.7 37 19.7 36.1" class="color75ca75 svgShape"></polygon><polygon fill="#a375ca" points="18.3 36 18.3 37.8 18 38 18 36.1" class="color75ca75 svgShape"></polygon><polygon fill="#a375ca" points="17.8 36.5 17.8 38.1 17.6 38.2 17.6 36.7" class="color75ca75 svgShape"></polygon><polygon fill="#a375ca" points="17.4 37 17.4 38.3 17.1 38.5 17.1 37.2" class="color75ca75 svgShape"></polygon><polygon fill="#a375ca" points="16.9 37.5 16.9 38.6 16.6 38.8 16.6 37.6" class="color75ca75 svgShape"></polygon><polygon fill="#a375ca" points="16.4 38 16.4 38.9 16.1 39.1 16.1 38.2" class="color75ca75 svgShape"></polygon></g></svg>