<svg xmlns="http://www.w3.org/2000/svg" enable-background="new 0 0 65 65" viewBox="0 0 65 65" id="SystemRepairing"><g fill="#010001" class="color000000 svgShape"><polygon fill="#f4f6f8" points="5.2 48.3 2.7 46.8 2.6 20.2 5.1 21.7" class="color434240 svgShape"></polygon><polygon fill="#383638" points="5.2 48.3 2.7 46.8 2.7 29.2 5.2 30.7" class="color383736 svgShape"></polygon><polygon fill="#211f21" points="5.2 48.3 2.7 46.8 2.7 38.3 5.2 39.7" class="color21201f svgShape"></polygon><polygon fill="#f4f6f8" points="5.1 21.7 2.6 20.2 36.8 .5 39.3 1.9" class="color434240 svgShape"></polygon><polygon fill="#383638" points="5.1 21.7 2.6 20.2 26.5 6.4 29 7.9" class="color383736 svgShape"></polygon><polygon fill="#211f21" points="5.1 21.7 2.6 20.2 16.2 12.4 18.7 13.8" class="color21201f svgShape"></polygon><polygon fill="#2d2b2d" points="39.3 1.9 39.3 28.5 5.2 48.3 5.1 21.7" class="color2d2c2b svgShape"></polygon></g><g fill="#010001" class="color000000 svgShape"><polygon fill="#d2d4d6" points="5.2 48.3 5.2 51.1 28.2 64.5 28.2 61.6" class="colord6d4d2 svgShape"></polygon><polygon fill="#c0c2c4" points="12.4 55.3 28.2 64.5 28.2 61.6 12.4 52.5" class="colorc4c2c0 svgShape"></polygon><polygon fill="#afb0b2" points="20.5 60 28.2 64.5 28.2 61.6 20.5 57.1" class="colorb2b0af svgShape"></polygon><polygon fill="#d2d4d6" points="28.2 61.6 28.2 64.5 62.4 44.8 62.3 41.9" class="colord6d4d2 svgShape"></polygon><polygon fill="#c0c2c4" points="40 57.7 62.4 44.8 62.3 41.9 40 54.8" class="colorc4c2c0 svgShape"></polygon><polygon fill="#afb0b2" points="50 51.9 62.4 44.8 62.3 41.9 50 49" class="colorb2b0af svgShape"></polygon><polygon fill="#e6e7e9" points="5.2 48.3 28.2 61.6 62.3 41.9 39.3 28.5" class="colore9e8e6 svgShape"></polygon></g><polygon fill="#c0c2c4" points="8.9 48.7 20.7 55.6 52 37.6 40.2 30.7" class="colorc4c2c0 svgShape"></polygon><polygon fill="#5046e4" points="37.9 27.7 6.7 45.8 6.6 22.5 37.8 4.4" class="color3f9ae0 svgShape"></polygon><g fill="#010001" class="color000000 svgShape"><polygon fill="#f4f6f8" points="39 36.3 39 36.9 41.7 38.5 41.7 37.9" class="color434240 svgShape"></polygon><polygon fill="#2d2b2d" points="40.4 37.7 41.7 38.5 41.7 37.9 40.4 37.2" class="color2d2c2b svgShape"></polygon><polygon fill="#383638" points="41.7 37.9 41.7 38.5 46.5 35.7 46.5 35.2" class="color383736 svgShape"></polygon><polygon fill="#2d2b2d" points="44.1 37.2 46.5 35.7 46.5 35.2 44.1 36.6" class="color2d2c2b svgShape"></polygon><polygon fill="#6822a2" points="39 36.3 41.7 37.9 46.5 35.2 43.8 33.6" class="color494948 svgShape"></polygon></g><g fill="#010001" class="color000000 svgShape"><polygon fill="#f4f6f8" points="29.1 42 29.1 42.6 31.9 44.2 31.9 43.6" class="color434240 svgShape"></polygon><polygon fill="#2d2b2d" points="30.4 43.3 31.9 44.2 31.9 43.6 30.4 42.8" class="color2d2c2b svgShape"></polygon><polygon fill="#383638" points="31.9 43.6 31.9 44.2 35.8 41.9 35.8 41.3" class="color383736 svgShape"></polygon><polygon fill="#2d2b2d" points="33.8 43.1 35.8 41.9 35.8 41.3 33.8 42.5" class="color2d2c2b svgShape"></polygon><polygon fill="#6822a2" points="29.1 42 31.9 43.6 35.8 41.3 33.1 39.7" class="color494948 svgShape"></polygon></g><g fill="#010001" class="color000000 svgShape"><polygon fill="#f4f6f8" points="24.2 44.9 24.2 45.4 26.9 47 26.9 46.5" class="color434240 svgShape"></polygon><polygon fill="#2d2b2d" points="25.5 46.2 26.9 47 26.9 46.5 25.5 45.6" class="color2d2c2b svgShape"></polygon><polygon fill="#383638" points="26.9 46.5 26.9 47 30.9 44.8 30.9 44.2" class="color383736 svgShape"></polygon><polygon fill="#2d2b2d" points="28.9 45.9 30.9 44.8 30.9 44.2 28.9 45.3" class="color2d2c2b svgShape"></polygon><polygon fill="#6822a2" points="24.2 44.9 26.9 46.5 30.9 44.2 28.1 42.6" class="color494948 svgShape"></polygon></g><g fill="#010001" class="color000000 svgShape"><polygon fill="#f4f6f8" points="19.3 47.7 19.3 48.3 22 49.9 22 49.3" class="color434240 svgShape"></polygon><polygon fill="#2d2b2d" points="20.5 49 22 49.9 22 49.3 20.5 48.4" class="color2d2c2b svgShape"></polygon><polygon fill="#383638" points="22 49.3 22 49.9 26 47.6 26 47" class="color383736 svgShape"></polygon><polygon fill="#2d2b2d" points="24 48.8 26 47.6 26 47 24 48.2" class="color2d2c2b svgShape"></polygon><polygon fill="#6822a2" points="19.3 47.7 22 49.3 26 47 23.2 45.4" class="color494948 svgShape"></polygon></g><g fill="#010001" class="color000000 svgShape"><polygon fill="#f4f6f8" points="14.3 50.6 14.3 51.1 17.1 52.7 17.1 52.2" class="color434240 svgShape"></polygon><polygon fill="#2d2b2d" points="15.6 51.9 17.1 52.7 17.1 52.2 15.6 51.3" class="color2d2c2b svgShape"></polygon><polygon fill="#383638" points="17.1 52.2 17.1 52.7 21 50.5 21 49.9" class="color383736 svgShape"></polygon><polygon fill="#2d2b2d" points="19.1 51.6 21 50.5 21 49.9 19.1 51" class="color2d2c2b svgShape"></polygon><polygon fill="#6822a2" points="14.3 50.6 17.1 52.2 21 49.9 18.3 48.3" class="color494948 svgShape"></polygon></g><g fill="#010001" class="color000000 svgShape"><polygon fill="#f4f6f8" points="25.6 48.3 25.6 48.9 28.3 50.5 28.3 49.9" class="color434240 svgShape"></polygon><polygon fill="#383638" points="28.3 49.9 28.3 50.5 42.6 42.2 42.6 41.7" class="color383736 svgShape"></polygon><polygon fill="#2d2b2d" points="33.2 47.7 42.6 42.2 42.6 41.7 33.2 47.1" class="color2d2c2b svgShape"></polygon><polygon fill="#211f21" points="37.2 45.4 42.6 42.2 42.6 41.7 37.2 44.8" class="color21201f svgShape"></polygon><polygon fill="#6822a2" points="25.6 48.3 28.3 49.9 42.6 41.7 39.8 40.1" class="color494948 svgShape"></polygon></g><g fill="#010001" class="color000000 svgShape"><polygon fill="#f4f6f8" points="18 52.7 18 53.2 20.7 54.8 20.7 54.3" class="color434240 svgShape"></polygon><polygon fill="#2d2b2d" points="19.5 54.1 20.7 54.8 20.7 54.3 19.5 53.5" class="color2d2c2b svgShape"></polygon><polygon fill="#383638" points="20.7 54.3 20.7 54.8 23.6 53.2 23.6 52.6" class="color383736 svgShape"></polygon><polygon fill="#2d2b2d" points="22.3 54 23.6 53.2 23.6 52.6 22.3 53.4" class="color2d2c2b svgShape"></polygon><polygon fill="#6822a2" points="18 52.7 20.7 54.3 23.6 52.6 20.8 51" class="color494948 svgShape"></polygon></g><g fill="#010001" class="color000000 svgShape"><polygon fill="#383638" points="36.1 33.8 36.1 34.4 38.8 36 38.8 35.4" class="color383736 svgShape"></polygon><polygon fill="#2d2b2d" points="37.3 35.1 38.8 36 38.8 35.4 37.3 34.5" class="color2d2c2b svgShape"></polygon><polygon fill="#383638" points="38.8 35.4 38.8 36 42.9 33.6 42.9 33" class="color383736 svgShape"></polygon><polygon fill="#2d2b2d" points="41.1 34.6 42.9 33.6 42.9 33 41.1 34.1" class="color2d2c2b svgShape"></polygon><polygon fill="#6822a2" points="36.1 33.8 38.8 35.4 42.9 33 40.2 31.4" class="color494948 svgShape"></polygon></g><g fill="#010001" class="color000000 svgShape"><polygon fill="#383638" points="33.9 39.4 33.9 39.9 36.6 41.5 36.6 41" class="color383736 svgShape"></polygon><polygon fill="#2d2b2d" points="35.1 40.7 36.6 41.5 36.6 41 35.1 40.1" class="color2d2c2b svgShape"></polygon><polygon fill="#383638" points="36.6 41 36.6 41.5 40.7 39.2 40.7 38.6" class="color383736 svgShape"></polygon><polygon fill="#2d2b2d" points="38.9 40.2 40.7 39.2 40.7 38.6 38.9 39.6" class="color2d2c2b svgShape"></polygon><polygon fill="#6822a2" points="33.9 39.4 36.6 41 40.7 38.6 38 37" class="color494948 svgShape"></polygon></g><g fill="#010001" class="color000000 svgShape"><polygon fill="#383638" points="31 36.7 31 37.3 33.8 38.9 33.8 38.3" class="color383736 svgShape"></polygon><polygon fill="#2d2b2d" points="32.2 38 33.8 38.9 33.8 38.3 32.2 37.4" class="color2d2c2b svgShape"></polygon><polygon fill="#383638" points="33.8 38.3 33.8 38.9 37.8 36.6 37.8 36" class="color383736 svgShape"></polygon><polygon fill="#2d2b2d" points="36.1 37.6 37.8 36.6 37.8 36 36.1 37" class="color2d2c2b svgShape"></polygon><polygon fill="#6822a2" points="31 36.7 33.8 38.3 37.8 36 35.1 34.4" class="color494948 svgShape"></polygon></g><g fill="#010001" class="color000000 svgShape"><polygon fill="#383638" points="25.9 39.7 25.9 40.2 28.7 41.8 28.7 41.3" class="color383736 svgShape"></polygon><polygon fill="#2d2b2d" points="27.1 40.9 28.7 41.8 28.7 41.3 27.1 40.4" class="color2d2c2b svgShape"></polygon><polygon fill="#383638" points="28.7 41.3 28.7 41.8 32.8 39.5 32.8 38.9" class="color383736 svgShape"></polygon><polygon fill="#2d2b2d" points="31 40.5 32.8 39.5 32.8 38.9 31 39.9" class="color2d2c2b svgShape"></polygon><polygon fill="#6822a2" points="25.9 39.7 28.7 41.3 32.8 38.9 30 37.3" class="color494948 svgShape"></polygon></g><g fill="#010001" class="color000000 svgShape"><polygon fill="#383638" points="20.9 42.6 20.9 43.2 23.6 44.8 23.6 44.2" class="color383736 svgShape"></polygon><polygon fill="#2d2b2d" points="22.1 43.9 23.6 44.8 23.6 44.2 22.1 43.3" class="color2d2c2b svgShape"></polygon><polygon fill="#383638" points="23.6 44.2 23.6 44.8 27.7 42.4 27.7 41.8" class="color383736 svgShape"></polygon><polygon fill="#2d2b2d" points="25.9 43.4 27.7 42.4 27.7 41.8 25.9 42.9" class="color2d2c2b svgShape"></polygon><polygon fill="#6822a2" points="20.9 42.6 23.6 44.2 27.7 41.8 24.9 40.2" class="color494948 svgShape"></polygon></g><g fill="#010001" class="color000000 svgShape"><polygon fill="#383638" points="15.8 45.5 15.8 46.1 18.5 47.7 18.5 47.1" class="color383736 svgShape"></polygon><polygon fill="#2d2b2d" points="17 46.8 18.5 47.7 18.5 47.1 17 46.2" class="color2d2c2b svgShape"></polygon><polygon fill="#383638" points="18.5 47.1 18.5 47.7 22.6 45.3 22.6 44.8" class="color383736 svgShape"></polygon><polygon fill="#2d2b2d" points="20.8 46.4 22.6 45.3 22.6 44.8 20.8 45.8" class="color2d2c2b svgShape"></polygon><polygon fill="#6822a2" points="15.8 45.5 18.5 47.1 22.6 44.8 19.8 43.2" class="color494948 svgShape"></polygon></g><g fill="#010001" class="color000000 svgShape"><polygon fill="#383638" points="10.7 48.5 10.7 49 13.5 50.6 13.5 50" class="color383736 svgShape"></polygon><polygon fill="#2d2b2d" points="11.9 49.7 13.5 50.6 13.5 50 11.9 49.2" class="color2d2c2b svgShape"></polygon><polygon fill="#383638" points="13.5 50 13.5 50.6 17.5 48.3 17.5 47.7" class="color383736 svgShape"></polygon><polygon fill="#2d2b2d" points="15.8 49.3 17.5 48.3 17.5 47.7 15.8 48.7" class="color2d2c2b svgShape"></polygon><polygon fill="#6822a2" points="10.7 48.5 13.5 50 17.5 47.7 14.8 46.1" class="color494948 svgShape"></polygon></g><g fill="#010001" class="color000000 svgShape"><polygon fill="#f4f6f8" points="21.7 50.5 21.7 51.1 24.4 52.7 24.4 52.1" class="color434240 svgShape"></polygon><polygon fill="#2d2b2d" points="23.2 52 24.4 52.7 24.4 52.1 23.2 51.4" class="color2d2c2b svgShape"></polygon><polygon fill="#383638" points="24.4 52.1 24.4 52.7 27.3 51.1 27.3 50.5" class="color383736 svgShape"></polygon><polygon fill="#2d2b2d" points="26 51.8 27.3 51.1 27.3 50.5 26 51.2" class="color2d2c2b svgShape"></polygon><polygon fill="#6822a2" points="21.7 50.5 24.4 52.1 27.3 50.5 24.5 48.9" class="color494948 svgShape"></polygon></g><g fill="#010001" class="color000000 svgShape"><polygon fill="#f4f6f8" points="40.9 39.5 40.9 40 43.6 41.6 43.6 41.1" class="color434240 svgShape"></polygon><polygon fill="#2d2b2d" points="42.4 40.9 43.6 41.6 43.6 41.1 42.4 40.3" class="color2d2c2b svgShape"></polygon><polygon fill="#383638" points="43.6 41.1 43.6 41.6 46.5 40 46.5 39.4" class="color383736 svgShape"></polygon><polygon fill="#2d2b2d" points="45.2 40.7 46.5 40 46.5 39.4 45.2 40.2" class="color2d2c2b svgShape"></polygon><polygon fill="#6822a2" points="40.9 39.5 43.6 41.1 46.5 39.4 43.7 37.8" class="color494948 svgShape"></polygon></g><g fill="#010001" class="color000000 svgShape"><polygon fill="#f4f6f8" points="44.6 37.3 44.6 37.9 47.3 39.5 47.3 38.9" class="color434240 svgShape"></polygon><polygon fill="#2d2b2d" points="46.1 38.8 47.3 39.5 47.3 38.9 46.1 38.2" class="color2d2c2b svgShape"></polygon><polygon fill="#383638" points="47.3 38.9 47.3 39.5 50.2 37.8 50.2 37.3" class="color383736 svgShape"></polygon><polygon fill="#2d2b2d" points="48.9 38.6 50.2 37.8 50.2 37.3 48.9 38" class="color2d2c2b svgShape"></polygon><polygon fill="#6822a2" points="44.6 37.3 47.3 38.9 50.2 37.3 47.4 35.7" class="color494948 svgShape"></polygon></g><g fill="#010001" class="color000000 svgShape"><polygon fill="#c0c2c4" points="31 50.9 31.6 51.2 42.1 45.1 42.1 44.5" class="colorc4c2c0 svgShape"></polygon><polygon fill="#afb0b2" points="42.1 44.5 42.1 45.1 48.1 48.6 48.6 48.3" class="colorb2b0af svgShape"></polygon><polygon fill="#6822a2" points="48.1 48.6 42.1 45.1 31.6 51.2 37.6 54.7" class="color494948 svgShape"></polygon></g><g fill="#010001" class="color000000 svgShape"><g fill="#010001" class="color000000 svgShape"><path fill="#e6e7e9" d="M29.5,25.9c0.9,0.4,0.9,1.9,0.1,3.3c-0.4,0.7-0.9,1.2-1.4,1.5c-0.5,0.3-1,0.4-1.4,0.1l-0.1,0l-3.7-2.5
						l1-1.7l-0.9-0.5l1.5-2.6L29.5,25.9z M29.1,29c0.6-1,0.6-2,0-2.4c-0.3-0.2-0.7-0.1-1,0.1c-0.4,0.2-0.7,0.6-1,1.1
						c-0.6,1-0.6,2.1,0,2.4c0.3,0.2,0.6,0.1,1-0.1C28.4,29.9,28.8,29.5,29.1,29" class="colore9e8e6 svgShape"></path><polygon fill="#d2d4d6" points="24.4 23.5 22.9 26.1 23.9 26.7 22.9 28.3 22.6 28.1 23.2 27 22.3 26.5 24.1 23.3" class="colord6d4d2 svgShape"></polygon><polygon fill="#489bef" points="21.5 27.6 22.1 27.9 17.5 35.9 16.9 35.5" class="colorefc348 svgShape"></polygon><polygon fill="#f4f6f8" points="29.5 11.9 30.4 12.5 29.7 14.5 28.4 15.9 24.1 23.3 22.3 26.5 21.8 26.2 21.4 26 23.1 22.9 27.5 15.4 28 13.6" class="colorffffff svgShape"></polygon><path fill="#51a8ff" d="M22.3,26.5l0.9,0.5l-0.6,1.1l-4.8,8.4c-0.4,0.7-0.9,1.2-1.4,1.5c-0.5,0.3-1,0.4-1.4,0.1
						c-0.4-0.2-0.6-0.7-0.6-1.3c0-0.6,0.2-1.3,0.6-1.9l5-8.6l0.5-0.9l1.4,0.8L22.3,26.5z M16.2,35.1l4.6-7.9l-0.6-0.3l-4.6,7.9
						L16.2,35.1 M17.5,35.9l4.6-7.9l-0.6-0.3l-4.6,7.9L17.5,35.9" class="colorffd651 svgShape"></path><polygon fill="#489bef" points="20.2 26.8 20.8 27.2 16.2 35.1 15.6 34.8" class="colorefc348 svgShape"></polygon><polygon fill="#d2d4d6" points="23.1 22.9 21.4 26 21.8 26.2 20.4 25.4 19.9 26.3 19.6 26.1 20.4 24.7 21.4 25.2 22.8 22.7" class="colord6d4d2 svgShape"></polygon></g><path fill="#e6e7e9" d="M19.8,21.3l3,1.4l-1.5,2.5l-0.9-0.5l-0.8,1.4l-1.9-1.3c-0.2,0.2-0.4,0.3-0.6,0.4c-0.7,0.4-1.4,0.5-1.9,0.2
					c-0.8-0.5-1-1.7-0.6-3.1l2.2,1.3l1.5-2.6L16,19.8c0.3-0.3,0.7-0.6,1-0.8c0.7-0.4,1.4-0.5,1.9-0.2C19.7,19.2,20,20.1,19.8,21.3z" class="colore9e8e6 svgShape"></path></g><g fill="#010001" class="color000000 svgShape"><g fill="#010001" class="color000000 svgShape"><polygon fill="#a50b89" points="37.5 22.7 36.1 21.9 36.1 15.2 37.4 16" class="colorc44141 svgShape"></polygon><polygon fill="#f25ad6" points="37.4 16 36.1 15.2 60.3 1.2 61.7 2" class="colorf25a5a svgShape"></polygon><polygon fill="#a50b89" points="37.4 16 36.1 15.2 53.9 4.9 55.3 5.7" class="colorc44141 svgShape"></polygon><polygon fill="#f25ad6" points="37.4 16 36.1 15.2 41.1 12.3 42.5 13.1" class="colorf25a5a svgShape"></polygon><polygon fill="#dd4ac2" points="61.7 2 61.7 8.7 37.5 22.7 37.4 16" class="colordd4a4a svgShape"></polygon></g></g><g fill="#010001" class="color000000 svgShape"><g fill="#010001" class="color000000 svgShape"><path fill="#afb0b2" d="M49.6 13.5l-.4-.2c.1 0 .1.1.2.1.2 0 .3 0 .5-.1.2-.1.4-.3.5-.5.2-.2.3-.4.4-.6l.4.2c-.1.2-.2.4-.4.6-.1.2-.3.3-.5.5-.2.1-.4.2-.5.1C49.7 13.6 49.7 13.6 49.6 13.5zM50.6 10.8L51 11c.1 0 .1.1.2.2.1.1.1.3.1.5 0 .2 0 .5-.1.7l-.4-.2c.1-.2.1-.5.1-.7 0-.2 0-.4-.1-.5C50.8 10.8 50.7 10.8 50.6 10.8zM49 14.3l-.4-.2c-.1-.1-.2-.1-.2-.2l.4.2C48.9 14.2 48.9 14.3 49 14.3z" class="colorb2b0af svgShape"></path><path fill="#afb0b2" d="M51.2,9.9l0.4,0.2c-0.1-0.1-0.2-0.1-0.4-0.1c-0.3,0-0.6,0.1-0.9,0.3c-0.3,0.2-0.6,0.5-0.9,0.8
							c-0.3,0.3-0.5,0.7-0.6,1c-0.1,0.4-0.2,0.8-0.2,1.1s0.1,0.6,0.2,0.9l-0.4-0.2c-0.2-0.2-0.2-0.5-0.2-0.9s0.1-0.7,0.2-1.1
							c0.2-0.4,0.4-0.7,0.6-1c0.3-0.3,0.6-0.6,0.9-0.8c0.3-0.2,0.6-0.3,0.9-0.3C51,9.8,51.1,9.9,51.2,9.9z" class="colorb2b0af svgShape"></path><path fill="#f4f6f8" d="M51.9,10.4c0.2,0.2,0.2,0.5,0.2,0.9S52,12,51.9,12.4c-0.2,0.4-0.4,0.7-0.6,1c-0.3,0.3-0.6,0.6-0.9,0.8
							c-0.3,0.2-0.6,0.3-0.9,0.3c-0.3,0-0.5-0.1-0.6-0.3c-0.2-0.2-0.2-0.5-0.2-0.9s0.1-0.7,0.2-1.1c0.2-0.4,0.4-0.7,0.6-1
							c0.3-0.3,0.6-0.6,0.9-0.8c0.3-0.2,0.6-0.3,0.9-0.3C51.5,10.1,51.7,10.2,51.9,10.4z M51.2,12.4c0.1-0.2,0.1-0.5,0.1-0.7
							c0-0.2,0-0.4-0.1-0.5c-0.1-0.1-0.2-0.2-0.4-0.2c-0.2,0-0.3,0-0.5,0.1c-0.2,0.1-0.4,0.3-0.5,0.5c-0.1,0.2-0.3,0.4-0.4,0.6
							c-0.1,0.2-0.1,0.5-0.1,0.7c0,0.2,0,0.4,0.1,0.5c0.1,0.1,0.2,0.2,0.4,0.2c0.2,0,0.3,0,0.5-0.1c0.2-0.1,0.4-0.3,0.5-0.5
							C51,12.8,51.1,12.6,51.2,12.4" class="colorffffff svgShape"></path></g><g fill="#010001" class="color000000 svgShape"><path fill="#afb0b2" d="M45.7 15.8l-.4-.2c.1 0 .1.1.2.1.2 0 .3 0 .5-.1.2-.1.4-.3.5-.5.2-.2.3-.4.4-.6l.4.2c-.1.2-.2.4-.4.6-.1.2-.3.3-.5.5-.2.1-.4.2-.5.1C45.8 15.8 45.8 15.8 45.7 15.8zM46.8 13l.4.2c.1 0 .1.1.2.2.1.1.1.3.1.5 0 .2 0 .5-.1.7l-.4-.2c.1-.2.1-.5.1-.7 0-.2 0-.4-.1-.5C46.9 13.1 46.8 13 46.8 13zM45.1 16.6l-.4-.2c-.1-.1-.2-.1-.2-.2l.4.2C45 16.5 45.1 16.5 45.1 16.6z" class="colorb2b0af svgShape"></path><path fill="#afb0b2" d="M47.3,12.2l0.4,0.2c-0.1-0.1-0.2-0.1-0.4-0.1c-0.3,0-0.6,0.1-0.9,0.3c-0.3,0.2-0.6,0.5-0.9,0.8
							c-0.3,0.3-0.5,0.7-0.6,1c-0.1,0.4-0.2,0.8-0.2,1.1c0,0.4,0.1,0.6,0.2,0.9l-0.4-0.2c-0.2-0.2-0.2-0.5-0.2-0.9s0.1-0.7,0.2-1.1
							c0.2-0.4,0.4-0.7,0.6-1c0.3-0.3,0.6-0.6,0.9-0.8c0.3-0.2,0.6-0.3,0.9-0.3C47.1,12.1,47.2,12.1,47.3,12.2z" class="colorb2b0af svgShape"></path><path fill="#f4f6f8" d="M48,12.6c0.2,0.2,0.2,0.5,0.2,0.9c0,0.4-0.1,0.7-0.2,1.1c-0.2,0.4-0.4,0.7-0.6,1
							c-0.3,0.3-0.6,0.6-0.9,0.8c-0.3,0.2-0.6,0.3-0.9,0.3c-0.3,0-0.5-0.1-0.6-0.3c-0.2-0.2-0.2-0.5-0.2-0.9c0-0.4,0.1-0.7,0.2-1.1
							c0.2-0.4,0.4-0.7,0.6-1c0.3-0.3,0.6-0.6,0.9-0.8c0.3-0.2,0.6-0.3,0.9-0.3C47.6,12.3,47.8,12.4,48,12.6z M47.3,14.6
							c0.1-0.2,0.1-0.5,0.1-0.7c0-0.2,0-0.4-0.1-0.5c-0.1-0.1-0.2-0.2-0.4-0.2c-0.2,0-0.3,0-0.5,0.1c-0.2,0.1-0.4,0.3-0.5,0.5
							c-0.1,0.2-0.3,0.4-0.4,0.6c-0.1,0.2-0.1,0.5-0.1,0.7c0,0.2,0,0.4,0.1,0.5c0.1,0.1,0.2,0.2,0.4,0.2c0.2,0,0.3,0,0.5-0.1
							c0.2-0.1,0.4-0.3,0.5-0.5C47.1,15,47.2,14.8,47.3,14.6" class="colorffffff svgShape"></path></g><g fill="#010001" class="color000000 svgShape"><polygon fill="#afb0b2" points="42.8 18.5 42.4 18.2 42.3 15.2 42.7 15.5" class="colorb2b0af svgShape"></polygon><polygon fill="#afb0b2" points="41.7 16.1 41.3 15.8 41.3 15.1 41.7 15.4" class="colorb2b0af svgShape"></polygon><polygon fill="#afb0b2" points="41.7 15.4 41.3 15.1 44.1 13.5 44.5 13.7" class="colorb2b0af svgShape"></polygon><polygon fill="#f4f6f8" points="44.5 13.7 44.5 14.4 43.5 15 43.5 18.1 42.8 18.5 42.7 15.5 41.7 16.1 41.7 15.4" class="colorffffff svgShape"></polygon></g><g fill="#010001" class="color000000 svgShape"><path fill="#afb0b2" d="M56.6 8.8L57 9c0 0 .1.1.1.2 0 .1-.1.2-.1.4l-.4-.2c.1-.1.1-.3.1-.4C56.7 8.9 56.7 8.8 56.6 8.8zM57.2 7.9l.4.2c-.1-.1-.2-.1-.4-.1l-.4-.2C57 7.9 57.1 7.9 57.2 7.9z" class="colorb2b0af svgShape"></path><path fill="#afb0b2" d="M55.4,10.2L55,9.9c0.1,0,0.3,0,0.5,0c0.2,0,0.4-0.1,0.6-0.2c0.2-0.1,0.4-0.2,0.5-0.4L57,9.6
							c-0.1,0.1-0.3,0.3-0.5,0.4c-0.2,0.1-0.4,0.2-0.6,0.2C55.7,10.2,55.6,10.2,55.4,10.2z" class="colorb2b0af svgShape"></path><polygon fill="#afb0b2" points="55.2 10.9 54.8 10.7 55 9.9 55.4 10.2" class="colorb2b0af svgShape"></polygon><path fill="#afb0b2" d="M57.2 6.5l-.4-.2c.2-.1.4-.1.5-.1l.4.2C57.5 6.4 57.4 6.4 57.2 6.5zM56 8.4l-.4-.2c0 0 .1 0 .1 0 .1 0 .3 0 .5-.1.2-.1.4-.1.6-.2l.4.2c-.2 0-.4.1-.6.2-.2.1-.4.1-.5.1C56.1 8.4 56.1 8.4 56 8.4zM55.4 9.2L55 9c0 0 0 0-.1 0L55.4 9.2C55.4 9.2 55.4 9.2 55.4 9.2z" class="colorb2b0af svgShape"></path><path fill="#afb0b2" d="M56.6,6.7l-0.4-0.2c0.2-0.1,0.4-0.2,0.6-0.3l0.4,0.2C57,6.5,56.8,6.6,56.6,6.7z" class="colorb2b0af svgShape"></path><path fill="#f4f6f8" d="M56.6,6.7c0.2-0.1,0.4-0.2,0.6-0.3c0.2-0.1,0.4-0.1,0.5-0.1l-0.2,0.8c-0.3,0-0.6,0.1-0.9,0.2
							c-0.2,0.1-0.4,0.3-0.5,0.4C56,7.9,56,8.1,56,8.2c0,0.1,0.1,0.2,0.2,0.2c0.1,0,0.3,0,0.5-0.1c0.2-0.1,0.4-0.1,0.6-0.2
							c0.2,0,0.3,0,0.4,0.1c0.1,0.1,0.2,0.2,0.2,0.5c0,0.2-0.1,0.4-0.2,0.7c-0.1,0.2-0.3,0.5-0.5,0.7c-0.2,0.2-0.5,0.4-0.8,0.6
							c-0.3,0.1-0.5,0.3-0.7,0.3c-0.2,0.1-0.4,0.1-0.6,0l0.3-0.8c0.1,0,0.3,0,0.5,0c0.2,0,0.4-0.1,0.6-0.2c0.2-0.1,0.4-0.2,0.5-0.4
							c0.1-0.1,0.1-0.3,0.1-0.4c0-0.1,0-0.1-0.1-0.2c-0.1,0-0.1,0-0.2,0c-0.1,0-0.2,0-0.4,0.1c-0.2,0.1-0.4,0.1-0.6,0.1
							c-0.2,0-0.3,0-0.4-0.1c-0.1-0.1-0.2-0.2-0.2-0.5c0-0.2,0.1-0.4,0.2-0.7c0.1-0.2,0.3-0.5,0.5-0.7C56,7.1,56.3,6.9,56.6,6.7z" class="colorffffff svgShape"></path><path fill="#afb0b2" d="M55.4,9.2L55,8.9c-0.1-0.1-0.2-0.2-0.2-0.5c0-0.2,0.1-0.4,0.2-0.7c0.1-0.2,0.3-0.5,0.5-0.7
							c0.2-0.2,0.5-0.4,0.8-0.6l0.4,0.2c-0.3,0.2-0.5,0.4-0.8,0.6c-0.2,0.2-0.4,0.4-0.5,0.7c-0.1,0.2-0.2,0.5-0.2,0.7
							C55.2,8.9,55.3,9.1,55.4,9.2z" class="colorb2b0af svgShape"></path></g><g fill="#010001" class="color000000 svgShape"><polygon fill="#afb0b2" points="53.4 11.6 53 11.4 54.6 10.5 55 10.7" class="colorb2b0af svgShape"></polygon><polygon fill="#afb0b2" points="52.7 12.8 52.3 12.5 52.2 8.8 52.6 9.1" class="colorb2b0af svgShape"></polygon><polygon fill="#afb0b2" points="52.6 9.1 52.2 8.8 53 8.4 53.4 8.6" class="colorb2b0af svgShape"></polygon><polygon fill="#f4f6f8" points="53.4 8.6 53.4 11.6 55 10.7 55 11.4 52.7 12.8 52.6 9.1" class="colorffffff svgShape"></polygon></g></g></svg>