<svg xmlns="http://www.w3.org/2000/svg" enable-background="new 0 0 110 110" viewBox="0 0 110 110" id="FactoryManufacturing"><g fill="#010001" class="color000000 svgShape"><polygon fill="#f4f6f8" points="10.636 73.353 10.65 75.718 57.596 103 57.582 100.635" class="color3d4449 svgShape"></polygon><polygon fill="#342a34" points="57.582 100.635 57.596 103 99.364 78.885 99.35 76.521" class="color2a3134 svgShape"></polygon><polygon fill="#6822a2" points="10.636 73.353 57.582 100.635 99.35 76.521 52.404 49.238" class="color4f575f svgShape"></polygon><g fill="#010001" class="color000000 svgShape"><path fill="#bbd5ef" d="M43.84346,8.67241l-0.02372,30.77295c-0.0012,0.42318-0.27941,0.84572-0.8352,1.1687
													c-1.11873,0.65014-2.93755,0.65013-4.06359,0.00001c-0.56615-0.32687-0.84916-0.75633-0.84795-1.1852l0.02372-30.77295
													c-0.00433,1.52788,3.15105,2.20828,4.91154,1.18519C43.56405,9.51812,43.84226,9.09558,43.84346,8.67241z" class="colorbbcfef svgShape"></path><path fill="#ff61e2" d="M42.99503,7.48731c1.12605,0.65012,1.13199,1.70365,0.01323,2.3538
													c-1.11873,0.65013-2.93755,0.65013-4.06359,0.00001c-1.12475-0.64937-1.132-1.70365-0.01327-2.35378
													C40.05016,6.83718,41.87028,6.83793,42.99503,7.48731z" class="colorff6161 svgShape"></path><path fill="#6822a2" d="M39.2886,9.51971c-0.85235-0.49197-0.85683-1.21973-0.01113-1.71142
													c0.92212-0.53552,2.44528-0.53559,3.37358,0.00041c0.85106,0.49116,0.85964,1.21847,0.01133,1.71142
													C42.21666,9.77915,40.21733,10.05614,39.2886,9.51971z" class="color4f575f svgShape"></path><path fill="#f4f6f8" d="M42.65105,7.8087c-0.44862-0.25903-1.04869-0.40163-1.68958-0.40163
													c-0.00051,0-0.001,0.00005-0.00149,0.00005v2.51411c0.20376-0.02304,0.9658,0.02695,1.7024-0.40112
													c0.40781-0.23698,0.63223-0.53949,0.63181-0.8519C43.29379,8.35314,43.06526,8.04774,42.65105,7.8087z" class="color3d4449 svgShape"></path><path fill="#a50b89" d="M43.84346 8.67302l-.00332 1.71745c-.0012.42289-.27922.84516-.83464 1.16793-1.74712 1.01531-4.91307.33035-4.90878-1.18431l.00331-1.71745c-.00121.42836.28161.85738.84788 1.18432 1.1253.64969 2.94292.64969 4.0609-.00001C43.56424 9.51818 43.84226 9.09592 43.84346 8.67302zM43.82915 17.18766l-.00332 1.71745c-.0012.42289-.26491.84616-.82033 1.16893-1.7591 1.02227-4.92739.32983-4.92309-1.18531l.00332-1.71745c-.00121.42836.2816.85738.84788 1.18432 1.1253.64969 2.95723.65069 4.07521.00099C43.56424 18.03382 43.82795 17.61056 43.82915 17.18766zM43.82915 25.48212l-.00332 1.71745c-.0012.42289-.26491.84616-.82033 1.16893-1.7591 1.02228-4.92739.32983-4.92309-1.18531l.00332-1.71745c-.00121.42836.2816.85738.84788 1.18432 1.1253.64969 2.95723.65069 4.07521.00099C43.56424 26.32827 43.82795 25.90501 43.82915 25.48212z" class="colorf04343 svgShape"></path><g fill="#010001" class="color000000 svgShape"><path fill="#bbd5ef" d="M36.41324,12.99038l-0.02373,30.77295c-0.0012,0.42318-0.27941,0.84572-0.8352,1.1687
													c-1.11872,0.65014-2.93755,0.65013-4.06359,0.00001c-0.56616-0.32687-0.84916-0.75633-0.84795-1.1852l0.02372-30.77295
													c-0.00433,1.52788,3.15105,2.20828,4.91154,1.18519C36.13383,13.83609,36.41204,13.41355,36.41324,12.99038z" class="colorbbcfef svgShape"></path><path fill="#ff61e2" d="M35.56481,11.80528c1.12605,0.65012,1.132,1.70365,0.01323,2.3538
													c-1.11873,0.65013-2.93755,0.65013-4.06359,0.00001c-1.12475-0.64937-1.13199-1.70365-0.01327-2.35378
													C32.61995,11.15515,34.44006,11.15591,35.56481,11.80528z" class="colorff6161 svgShape"></path><path fill="#6822a2" d="M31.15837,12.97826c-0.00042-0.32034,0.22933-0.63034,0.64702-0.87318
													c0.94493-0.54877,2.50577-0.54884,3.45704,0.00042c0.42445,0.24496,0.65863,0.55791,0.65906,0.88078
													c0.00042,0.32013-0.22954,0.63013-0.64744,0.87297C33.77795,14.72869,31.15984,14.1041,31.15837,12.97826z" class="color4f575f svgShape"></path><path fill="#f4f6f8" d="M35.26242,12.1055c-0.45971-0.26544-1.07463-0.41157-1.73137-0.41157
													c-0.00053,0-0.00103,0.00005-0.00153,0.00005v2.57631c0.20872-0.0236,0.98999,0.02744,1.74451-0.41104
													c0.4179-0.24284,0.64786-0.55284,0.64744-0.87297C35.92105,12.66341,35.68687,12.35046,35.26242,12.1055z" class="color3d4449 svgShape"></path><g fill="#010001" class="color000000 svgShape"><path fill="#a50b89" d="M36.39893,21.50563l-0.00332,1.71745c-0.00119,0.42289-0.26491,0.84616-0.82033,1.16893
												c-1.75909,1.02227-4.92739,0.32983-4.92309-1.18531l0.00332-1.71745c-0.00121,0.42836,0.28161,0.85738,0.84788,1.18432
												c1.1253,0.64969,2.95723,0.65069,4.07521,0.00099C36.13402,22.35179,36.39774,21.92853,36.39893,21.50563z" class="colorf04343 svgShape"></path></g><g fill="#010001" class="color000000 svgShape"><path fill="#a50b89" d="M36.39893,29.80009l-0.00332,1.71745c-0.00119,0.4229-0.26491,0.84616-0.82033,1.16893
												c-1.75909,1.02227-4.92739,0.32983-4.92309-1.18531l0.00332-1.71745c-0.00121,0.42836,0.28161,0.85738,0.84788,1.18432
												C33.2165,31.95709,36.39453,31.35273,36.39893,29.80009z" class="colorf04343 svgShape"></path></g><g fill="#010001" class="color000000 svgShape"><path fill="#a50b89" d="M36.41325,12.99099l-0.00332,1.71745c-0.00119,0.42289-0.27922,0.84515-0.83464,1.16793
											c-1.74711,1.01531-4.91307,0.33035-4.90878-1.18431l0.00332-1.71745c-0.00121,0.42836,0.2816,0.85738,0.84788,1.18432
											c1.1253,0.64969,2.94291,0.64969,4.0609-0.00001C36.13402,13.83615,36.41205,13.41389,36.41325,12.99099z" class="colorf04343 svgShape"></path></g></g><g fill="#010001" class="color000000 svgShape"><polygon fill="#bbd5ef" points="94.483 49.313 94.428 76.749 64.715 94.106 64.77 66.67" class="colorbbcfef svgShape"></polygon><polygon fill="#cbdff4" points="64.77 66.67 64.715 94.106 23.662 70.404 23.717 42.968" class="colorcbdbf4 svgShape"></polygon><polygon fill="#dbeafa" points="94.429 49.422 64.77 66.67 23.717 42.968 53.376 25.72" class="colordbe6fa svgShape"></polygon><polygon fill="#bbd5ef" points="26.073 42.965 27.626 43.861 53.378 28.883 53.378 27.085" class="colorbbcfef svgShape"></polygon><polygon fill="#cbdff4" points="53.378 27.085 53.378 28.883 90.52 50.327 92.073 49.425" class="colorcbdbf4 svgShape"></polygon><g fill="#010001" class="color000000 svgShape"><polygon fill="#6a4f80" points="90.52 50.327 53.378 28.883 27.626 43.861 64.768 65.305" class="color804f59 svgShape"></polygon></g><g fill="#010001" class="color000000 svgShape"><path fill="#dbeafa" d="M63.15504,40.49468c-1.43312-0.83275-3.41824-0.71479-5.60946,0.55045
										c-4.35172,2.51238-7.86892,8.59874-7.85456,13.59943l14.37104,8.32173c-0.0228-8.06535,8.52178-17.02212,13.46402-14.14988
										L63.15504,40.49468z" class="colordbe6fa svgShape"></path><path fill="#bbd5ef" d="M71.91675,49.36674c4.352-2.51263,7.89185-0.50053,7.90603,4.50011l-15.76074,9.09947
											C64.04786,57.96568,67.56487,51.87929,71.91675,49.36674z" class="colorbbcfef svgShape"></path><g fill="#010001" class="color000000 svgShape"><path fill="#cbdff4" d="M76.12682,54.04764l-0.02418-4.17596c-0.10002,0.05778-8.90507,5.14444-8.34468,4.82071
												l0.01904,4.17541L76.12682,54.04764z" class="colorcbdbf4 svgShape"></path><polygon fill="#bbd5ef" points="75.341 53.594 75.322 50.627 75.842 50.327 75.863 53.895 75.341 53.594" class="colorbbcfef svgShape"></polygon><polygon fill="#f4f6f8" points="75.341 53.594 75.863 53.895 75.863 53.895 68.042 58.414 68.04 57.812" class="colorebf2ff svgShape"></polygon><g fill="#010001" class="color000000 svgShape"><polygon fill="#5a4fff" points="75.322 50.627 75.341 53.594 68.04 57.812 68.021 54.845" class="color4f91ff svgShape"></polygon></g></g></g></g><g fill="#010001" class="color000000 svgShape"><path fill="#f4f6f8" d="M70.2589,45.7789l-0.01222,2.30375c-0.43631,0.08947-0.85072,0.34094-1.24725,0.7247l0.01229-2.30368
									L70.2589,45.7789z" class="color3d4449 svgShape"></path><polygon fill="#342a34" points="69.012 46.504 69 48.807 67.744 48.083 67.756 45.779" class="color2a3134 svgShape"></polygon><polygon fill="#6822a2" points="70.259 45.779 69.012 46.504 67.756 45.779 69.003 45.054" class="color4f575f svgShape"></polygon></g><g fill="#010001" class="color000000 svgShape"><path fill="#f4f6f8" d="M66.62119,43.67866l-0.01222,2.30376c-0.43631,0.08947-0.85072,0.34093-1.24725,0.7247l0.01229-2.30368
									L66.62119,43.67866z" class="color3d4449 svgShape"></path><polygon fill="#342a34" points="65.374 44.403 65.362 46.707 64.106 45.982 64.119 43.679" class="color2a3134 svgShape"></polygon><polygon fill="#6822a2" points="66.621 43.679 65.374 44.403 64.119 43.679 65.366 42.954" class="color4f575f svgShape"></polygon></g><g fill="#010001" class="color000000 svgShape"><path fill="#f4f6f8" d="M62.98348,41.57843l-0.01222,2.30376c-0.43631,0.08947-0.85072,0.34094-1.24724,0.7247l0.01229-2.30368
									L62.98348,41.57843z" class="color3d4449 svgShape"></path><polygon fill="#342a34" points="61.736 42.303 61.724 44.607 60.469 43.882 60.481 41.578" class="color2a3134 svgShape"></polygon><polygon fill="#6822a2" points="62.983 41.578 61.736 42.303 60.481 41.578 61.728 40.854" class="color4f575f svgShape"></polygon></g><g fill="#010001" class="color000000 svgShape"><path fill="#512e51" d="M39.99696,42.63981c-0.14822,0.08475-0.3036,0.14826-0.48008,0.19769
							c-0.57177,0.17649-1.26359,0.17649-1.83536-0.01413c-0.15538-0.04235-0.3036-0.10587-0.43777-0.18355
							c-0.75533-0.43768-0.76239-1.15065-0.00706-1.58838c0.14124-0.07764,0.28946-0.14822,0.45897-0.19057
							c0.57177-0.18355,1.27065-0.18355,1.83536,0c0.16235,0.04942,0.31773,0.11293,0.4519,0.19057
							C40.75229,41.48916,40.75229,42.20213,39.99696,42.63981z" class="color512e35 svgShape"></path><path fill="#342a34" d="M34.09444,28.3319l0.29125,0.16916c-0.62146-0.36115-0.13389-1.77673,0.667-2.23912
								c0.26263-0.15166,0.50076-0.16584,0.67267-0.06581c-0.25271-0.1468-0.03875-0.02256-0.29145-0.16937
								c-0.17171-0.09982-0.40984-0.08585-0.67267,0.06601C33.94328,26.56471,33.49297,27.98164,34.09444,28.3319z" class="color2a3134 svgShape"></path><path fill="#6822a2" d="M35.05259,26.26197c-0.52217,0.30148-0.94432,1.03252-0.94262,1.63268
								c0.00375,1.32167,1.72539,0.51247,1.88296-0.93855c0.00095-0.01698,0.00835-0.14327,0.00828-0.16021
								c-0.01251-0.1927-0.03592-0.28615-0.07185-0.36502C35.78703,26.11689,35.44777,26.03382,35.05259,26.26197z" class="color4f575f svgShape"></path><path fill="#ff61e2" d="M39.52962,30.88346c-0.0151,16.38049-0.0099,10.73069-0.01102,11.95303
										c-0.57254,0.17619-1.26617,0.17619-1.8387-0.01102c0.00169-1.22163-0.00612,4.42539,0.01653-11.94746
										c0-0.55601-0.29729-1.07351-0.77064-1.34324l-2.16906-1.24964c-0.73368-0.42503,0.19125-2.02149,0.92493-1.59645
										l2.16341,1.24413C38.89109,28.54936,39.54064,29.67791,39.52962,30.88346z" class="colorff6161 svgShape"></path><g fill="#010001" class="color000000 svgShape"><path fill="#342a34" d="M39.53106,30.88226v0.52569c0,0.63116-1.83148,0.63116-1.83148,0v-0.53418
										c0-0.55115-0.29664-1.06836-0.77151-1.33969c-0.47932-0.27387,0.43637-1.87635,0.91569-1.60248
										C38.88675,28.55055,39.53954,29.67826,39.53106,30.88226z" class="color2a3134 svgShape"></path></g></g><g fill="#010001" class="color000000 svgShape"><path fill="#512e51" d="M47.38823,38.35612c-0.14822,0.08475-0.3036,0.14827-0.48008,0.19769
							c-0.57177,0.17648-1.26358,0.17648-1.83536-0.01413c-0.15537-0.04235-0.30359-0.10587-0.43777-0.18356
							c-0.75533-0.43768-0.76239-1.15065-0.00707-1.58838c0.14124-0.07764,0.28946-0.14822,0.45897-0.19057
							c0.57177-0.18355,1.27065-0.18355,1.83536,0c0.16235,0.04942,0.31773,0.11293,0.4519,0.19057
							C48.14355,37.20547,48.14355,37.91844,47.38823,38.35612z" class="color512e35 svgShape"></path><path fill="#342a34" d="M41.48571,24.04822l0.29125,0.16916c-0.16969-0.09861-0.27478-0.30839-0.27579-0.60645
								c-0.00253-0.93792,1.0078-2.05206,1.61546-1.69848c-0.2527-0.1468-0.03874-0.02256-0.29145-0.16936
								c-0.17171-0.09982-0.40984-0.08586-0.67267,0.06601C41.33455,22.28103,40.88424,23.69795,41.48571,24.04822z" class="color2a3134 svgShape"></path><path fill="#6822a2" d="M42.44386,21.97829c-0.52217,0.30147-0.94432,1.03252-0.94262,1.63268
								c0.00333,1.17396,1.42863,0.69924,1.82187-0.6385c0.07831-0.26685,0.05804-0.35282,0.0694-0.45343
								c-0.01333-0.10861-0.00701-0.22945-0.07189-0.37186C43.1783,21.83321,42.83903,21.75014,42.44386,21.97829z" class="color4f575f svgShape"></path><path fill="#ff61e2" d="M46.92088,26.59978v0.52301l-0.01102,11.43002c-0.57254,0.17619-1.26617,0.17619-1.83871-0.01102
										c0.00169-1.22163-0.00612,4.42539,0.01653-11.94746c0-0.55601-0.29729-1.07351-0.77064-1.34324l-2.16906-1.24964
										c-0.73368-0.42504,0.19125-2.02149,0.92493-1.59645l2.16341,1.24413C46.28236,24.26568,46.9319,25.39422,46.92088,26.59978
										z" class="colorff6161 svgShape"></path><g fill="#010001" class="color000000 svgShape"><path fill="#342a34" d="M46.92232,26.59857v0.52569c0,0.63116-1.83148,0.63116-1.83148,0v-0.53418
										c0-0.55115-0.29664-1.06836-0.77151-1.33969c-0.47932-0.27387,0.43637-1.87635,0.91569-1.60248
										C46.27802,24.26686,46.93081,25.39458,46.92232,26.59857z" class="color2a3134 svgShape"></path></g></g><g fill="#010001" class="color000000 svgShape"><polygon fill="#6822a2" points="67.689 92.393 83.07 83.481 81.717 82.701 67.689 90.802" class="color4f575f svgShape"></polygon><polygon fill="#dbeafa" points="83.07 83.481 83.037 66.794 81.69 67.572 81.717 82.701 83.07 83.481" class="colordbe6fa svgShape"></polygon><polygon fill="#6822a2" points="67.689 90.802 81.717 82.701 81.704 74.919 67.689 83.017" class="color4f575f svgShape"></polygon><g fill="#010001" class="color000000 svgShape"><polygon fill="#f4f6f8" points="81.705 75.029 67.689 83.127 67.689 87.319 78.697 80.959 81.717 82.694" class="color3d4449 svgShape"></polygon></g><g fill="#010001" class="color000000 svgShape"><polygon fill="#ffffff" points="67.689 83.211 81.706 75.106 81.683 67.571 67.689 75.662" class="colorffffff svgShape"></polygon></g></g><g fill="#010001" class="color000000 svgShape"><path fill="#ffffff" d="M43.18723,60.76756l0.04682-4.26122c12.87618,7.43715,8.43517,4.87207,9.3959,5.42698
										l-0.03689,4.26015L43.18723,60.76756z" class="colorffffff svgShape"></path><polygon fill="#bbd5ef" points="44.709 59.889 44.746 57.969 43.739 57.388 43.698 60.473 44.709 59.889" class="colorbbcfef svgShape"></polygon><polygon fill="#f4f6f8" points="44.709 59.889 43.698 60.473 43.698 60.473 52.081 65.314 52.084 64.149" class="colorebf2ff svgShape"></polygon><polygon fill="#5046e4" points="44.746 57.969 44.709 59.889 52.084 64.149 52.121 62.229" class="color457aef svgShape"></polygon><g fill="#010001" class="color000000 svgShape"><path fill="#ffffff" d="M53.76488,66.65643l0.04682-4.26122c12.87619,7.43715,8.43517,4.87207,9.3959,5.42697
										l-0.03689,4.26015L53.76488,66.65643z" class="colorffffff svgShape"></path><polygon fill="#bbd5ef" points="55.286 65.778 55.324 63.858 54.317 63.277 54.276 66.362 55.286 65.778" class="colorbbcfef svgShape"></polygon><polygon fill="#f4f6f8" points="55.286 65.778 54.276 66.362 54.276 66.362 62.658 71.203 62.662 70.038" class="colorebf2ff svgShape"></polygon><g fill="#010001" class="color000000 svgShape"><polygon fill="#5046e4" points="55.324 63.858 55.286 65.778 62.662 70.038 62.699 68.118" class="color457aef svgShape"></polygon></g></g><g fill="#010001" class="color000000 svgShape"><path fill="#ffffff" d="M43.18723,66.86274l0.04682-4.26122c12.87618,7.43715,8.43517,4.87206,9.3959,5.42697
										l-0.03689,4.26015L43.18723,66.86274z" class="colorffffff svgShape"></path><polygon fill="#bbd5ef" points="44.709 65.985 44.746 64.065 43.739 63.483 43.698 66.568 44.709 65.985" class="colorbbcfef svgShape"></polygon><polygon fill="#f4f6f8" points="44.709 65.985 43.698 66.568 43.698 66.568 52.081 71.409 52.084 70.244" class="colorebf2ff svgShape"></polygon><g fill="#010001" class="color000000 svgShape"><polygon fill="#5046e4" points="44.746 64.065 44.709 65.985 52.084 70.244 52.121 68.324" class="color457aef svgShape"></polygon></g><g fill="#010001" class="color000000 svgShape"><path fill="#ffffff" d="M53.76488,72.75162l0.04682-4.26122c12.87619,7.43715,8.43517,4.87207,9.3959,5.42697
										l-0.03689,4.26015L53.76488,72.75162z" class="colorffffff svgShape"></path><polygon fill="#bbd5ef" points="55.286 71.873 55.324 69.954 54.317 69.372 54.276 72.457 55.286 71.873" class="colorbbcfef svgShape"></polygon><polygon fill="#f4f6f8" points="55.286 71.873 54.276 72.457 54.276 72.457 62.658 77.298 62.662 76.133" class="colorebf2ff svgShape"></polygon><g fill="#010001" class="color000000 svgShape"><polygon fill="#5046e4" points="55.324 69.954 55.286 71.873 62.662 76.133 62.699 74.213" class="color457aef svgShape"></polygon></g></g></g><g fill="#010001" class="color000000 svgShape"><path fill="#ffffff" d="M43.18723,72.95792l0.04682-4.26122c12.87618,7.43715,8.43517,4.87206,9.3959,5.42697
										l-0.03689,4.26015L43.18723,72.95792z" class="colorffffff svgShape"></path><polygon fill="#bbd5ef" points="44.709 72.08 44.746 70.16 43.739 69.579 43.698 72.663 44.709 72.08" class="colorbbcfef svgShape"></polygon><polygon fill="#f4f6f8" points="44.709 72.08 43.698 72.663 43.698 72.663 52.081 77.504 52.084 76.339" class="colorebf2ff svgShape"></polygon><g fill="#010001" class="color000000 svgShape"><polygon fill="#5046e4" points="44.746 70.16 44.709 72.08 52.084 76.339 52.121 74.42" class="color457aef svgShape"></polygon></g><g fill="#010001" class="color000000 svgShape"><path fill="#ffffff" d="M53.76488,78.8468l0.04682-4.26122c12.87619,7.43715,8.43517,4.87207,9.3959,5.42697
										l-0.03689,4.26015L53.76488,78.8468z" class="colorffffff svgShape"></path><polygon fill="#bbd5ef" points="55.286 77.969 55.324 76.049 54.317 75.467 54.276 78.552 55.286 77.969" class="colorbbcfef svgShape"></polygon><polygon fill="#f4f6f8" points="55.286 77.969 54.276 78.552 54.276 78.552 62.658 83.393 62.662 82.228" class="colorebf2ff svgShape"></polygon><g fill="#010001" class="color000000 svgShape"><polygon fill="#5046e4" points="55.324 76.049 55.286 77.969 62.662 82.228 62.699 80.308" class="color457aef svgShape"></polygon></g></g></g><g fill="#010001" class="color000000 svgShape"><path fill="#ffffff" d="M43.18723,79.05311l0.04682-4.26122c12.87618,7.43715,8.43517,4.87206,9.3959,5.42697
										l-0.03689,4.26015L43.18723,79.05311z" class="colorffffff svgShape"></path><polygon fill="#bbd5ef" points="44.709 78.175 44.746 76.255 43.739 75.674 43.698 78.758 44.709 78.175" class="colorbbcfef svgShape"></polygon><polygon fill="#f4f6f8" points="44.709 78.175 43.698 78.758 43.698 78.758 52.081 83.599 52.084 82.435" class="colorebf2ff svgShape"></polygon><g fill="#010001" class="color000000 svgShape"><polygon fill="#5046e4" points="44.746 76.255 44.709 78.175 52.084 82.435 52.121 80.515" class="color457aef svgShape"></polygon></g><g fill="#010001" class="color000000 svgShape"><path fill="#ffffff" d="M53.76488,84.94199l0.04682-4.26122c12.87619,7.43715,8.43517,4.87207,9.3959,5.42697
										l-0.03689,4.26015L53.76488,84.94199z" class="colorffffff svgShape"></path><polygon fill="#bbd5ef" points="55.286 84.064 55.324 82.144 54.317 81.563 54.276 84.647 55.286 84.064" class="colorbbcfef svgShape"></polygon><polygon fill="#f4f6f8" points="55.286 84.064 54.276 84.647 54.276 84.647 62.658 89.488 62.662 88.324" class="colorebf2ff svgShape"></polygon><g fill="#010001" class="color000000 svgShape"><polygon fill="#5046e4" points="55.324 82.144 55.286 84.064 62.662 88.324 62.699 86.404" class="color457aef svgShape"></polygon></g></g></g></g><g fill="#010001" class="color000000 svgShape"><path fill="#ffffff" d="M93.77087,57.55525l-0.04682-4.26122c-12.87618,7.43715-8.43517,4.87207-9.3959,5.42697
										l0.03689,4.26015L93.77087,57.55525z" class="colorffffff svgShape"></path><polygon fill="#bbd5ef" points="92.25 56.677 92.212 54.757 93.219 54.176 93.26 57.26 92.25 56.677" class="colorbbcfef svgShape"></polygon><polygon fill="#f4f6f8" points="92.25 56.677 93.26 57.26 93.26 57.26 84.877 62.101 84.874 60.937" class="colorebf2ff svgShape"></polygon><polygon fill="#5a4fff" points="92.212 54.757 92.25 56.677 84.874 60.937 84.837 59.017" class="color4f91ff svgShape"></polygon><g fill="#010001" class="color000000 svgShape"><path fill="#ffffff" d="M93.77087,63.65044l-0.04682-4.26122c-12.87618,7.43715-8.43517,4.87206-9.3959,5.42697
										l0.03689,4.26015L93.77087,63.65044z" class="colorffffff svgShape"></path><polygon fill="#bbd5ef" points="92.25 62.772 92.212 60.852 93.219 60.271 93.26 63.355 92.25 62.772" class="colorbbcfef svgShape"></polygon><polygon fill="#f4f6f8" points="92.25 62.772 93.26 63.355 93.26 63.355 84.877 68.197 84.874 67.032" class="colorebf2ff svgShape"></polygon><g fill="#010001" class="color000000 svgShape"><polygon fill="#5a4fff" points="92.212 60.852 92.25 62.772 84.874 67.032 84.837 65.112" class="color4f91ff svgShape"></polygon></g></g><g fill="#010001" class="color000000 svgShape"><path fill="#ffffff" d="M93.77087,69.74562l-0.04682-4.26122c-12.87618,7.43715-8.43517,4.87206-9.3959,5.42697
										l0.03689,4.26015L93.77087,69.74562z" class="colorffffff svgShape"></path><polygon fill="#bbd5ef" points="92.25 68.867 92.212 66.948 93.219 66.366 93.26 69.451 92.25 68.867" class="colorbbcfef svgShape"></polygon><polygon fill="#f4f6f8" points="92.25 68.867 93.26 69.451 93.26 69.451 84.877 74.292 84.874 73.127" class="colorebf2ff svgShape"></polygon><g fill="#010001" class="color000000 svgShape"><polygon fill="#5a4fff" points="92.212 66.948 92.25 68.867 84.874 73.127 84.837 71.207" class="color4f91ff svgShape"></polygon></g></g><g fill="#010001" class="color000000 svgShape"><path fill="#ffffff" d="M93.77087,75.84081l-0.04682-4.26122c-12.87618,7.43715-8.43517,4.87206-9.3959,5.42697
										l0.03689,4.26015L93.77087,75.84081z" class="colorffffff svgShape"></path><polygon fill="#bbd5ef" points="92.25 74.963 92.212 73.043 93.219 72.461 93.26 75.546 92.25 74.963" class="colorbbcfef svgShape"></polygon><polygon fill="#f4f6f8" points="92.25 74.963 93.26 75.546 93.26 75.546 84.877 80.387 84.874 79.222" class="colorebf2ff svgShape"></polygon><g fill="#010001" class="color000000 svgShape"><polygon fill="#5a4fff" points="92.212 73.043 92.25 74.963 84.874 79.222 84.837 77.302" class="color4f91ff svgShape"></polygon></g></g></g><g fill="#010001" class="color000000 svgShape"><polygon fill="#cbdff4" points="16.021 67.012 16.037 75.221 31.315 84.1 31.299 75.89" class="colorcbdbf4 svgShape"></polygon><polygon fill="#bbd5ef" points="31.299 75.89 31.315 84.1 39.552 79.344 39.535 71.135" class="colorbbcfef svgShape"></polygon><polygon fill="#dbeafa" points="16.021 67.012 31.299 75.89 39.535 71.135 24.258 62.256" class="colordbe6fa svgShape"></polygon><path fill="#6822a2" d="M22.89918,67.18894c0.61926,0.19115,1.36853,0.19115,1.9878-0.0153
								c1.12721-0.30728,1.53196-1.31051,0.48178-1.91911c-0.15297-0.08409-0.31351-0.16053-0.49709-0.20641
								c-0.84933-0.27266-1.85974-0.15092-2.47723,0.20641C21.3417,65.85348,21.68724,66.84956,22.89918,67.18894z" class="color4f575f svgShape"></path><path fill="#342a34" d="M28.77199,57.21053l-0.31544,0.18321c0.18378-0.1068,0.2976-0.334,0.2987-0.65683
									c0.00274-1.01582-1.09151-2.22249-1.74964-1.83955c0.2737-0.159,0.04196-0.02443,0.31566-0.18343
									c0.18597-0.10812,0.44388-0.09298,0.72854,0.0715C28.93571,55.29657,29.42342,56.83117,28.77199,57.21053z" class="color2a3134 svgShape"></path><path fill="#6822a2" d="M27.73426,54.96868c0.56554,0.32652,1.02275,1.11828,1.02091,1.76829
									c-0.0036,1.27147-1.54729,0.75732-1.97319-0.69152c-0.0807-0.27499-0.11297-0.63998,0.00269-0.89384
									C26.93882,54.81155,27.30627,54.72158,27.73426,54.96868z" class="color4f575f svgShape"></path><path fill="#4239c9" d="M22.88539,59.97401v0.56645l0.01194,6.64739c0.62009,0.19083,1.37133,0.19083,1.99142-0.01194
											l-0.0179-6.63545v-0.57235c0-0.60219,0.32198-1.16267,0.83465-1.45481l2.34921-1.35343
											c0.79462-0.46033-0.20713-2.18938-1.00175-1.72905l-2.3431,1.34746
											C23.57695,57.44606,22.87345,58.66833,22.88539,59.97401z" class="color39c988 svgShape"></path><g fill="#010001" class="color000000 svgShape"><path fill="#5c1894" d="M22.88383,59.97271v2.34232c0,0.68358,1.9836,0.68358,1.9836,0v-2.35151
											c0-0.59693,0.32128-1.15709,0.83559-1.45096c0.51913-0.29662-0.47261-2.0322-0.99174-1.73558
											C23.58165,57.44734,22.87464,58.66872,22.88383,59.97271z" class="color189453 svgShape"></path></g><g fill="#010001" class="color000000 svgShape"><path fill="#6822a2" d="M27.27324,69.73087c0.61926,0.19115,1.36854,0.19115,1.9878-0.0153
								c0.16828-0.04587,0.32881-0.11465,0.47413-0.1988c0.81806-0.47404,0.82571-1.24622,0.00765-1.72031
								c-0.89542-0.49223-2.18989-0.45393-2.97432,0C25.71576,68.3954,26.0613,69.39149,27.27324,69.73087z" class="color4f575f svgShape"></path><path fill="#342a34" d="M33.14605,59.75246l-0.31544,0.18321c0.18378-0.1068,0.2976-0.33401,0.2987-0.65683
									c0.00274-1.01582-1.09151-2.2225-1.74963-1.83955c0.27369-0.159,0.04196-0.02444,0.31566-0.18343
									c0.18597-0.10812,0.44388-0.09299,0.72854,0.0715C33.30976,57.83849,33.79748,59.3731,33.14605,59.75246z" class="color2a3134 svgShape"></path><path fill="#6822a2" d="M32.10832,57.51061c0.56554,0.32651,1.02275,1.11827,1.02091,1.76829
									c-0.0036,1.27147-1.54729,0.75732-1.97319-0.69153c-0.0807-0.27499-0.11297-0.63998,0.00269-0.89383
									C31.31288,57.35348,31.68032,57.26351,32.10832,57.51061z" class="color4f575f svgShape"></path><path fill="#4239c9" d="M27.25945,62.51594c0.00017,0.10013,0.01274,7.69802,0.01194,7.21384
											c0.62009,0.19083,1.37133,0.19083,1.99142-0.01193l-0.0179-6.63546v-0.57235c0-0.60219,0.32198-1.16267,0.83465-1.45481
											l2.34921-1.35343c0.79462-0.46034-0.20713-2.18938-1.00175-1.72905l-2.3431,1.34746
											C27.95101,59.98798,27.24751,61.21026,27.25945,62.51594z" class="color39c988 svgShape"></path><g fill="#010001" class="color000000 svgShape"><path fill="#5c1894" d="M27.25789,62.51464v2.34232c0,0.68359,1.9836,0.68359,1.9836,0v-2.35151
											c0-0.59693,0.32128-1.15709,0.83559-1.45096c0.51913-0.29662-0.47261-2.0322-0.99174-1.73558
											C27.95571,59.98926,27.2487,61.21064,27.25789,62.51464z" class="color189453 svgShape"></path></g></g><g fill="#010001" class="color000000 svgShape"><path fill="#6822a2" d="M31.12734,72.09873c0.16053,0.0918,0.32881,0.16058,0.51996,0.21411
								c0.61926,0.19114,1.36853,0.19114,1.9878-0.01531c0.16828-0.04587,0.32881-0.11465,0.47413-0.1988
								c0.81806-0.47403,0.82571-1.24622,0.00765-1.72031c-0.15297-0.08409-0.3135-0.16053-0.49709-0.2064
								c-0.61926-0.1988-1.37619-0.1988-1.98779,0c-0.17584,0.05352-0.34412,0.12231-0.48944,0.2064
								C30.30928,70.85251,30.30928,71.6247,31.12734,72.09873z" class="color4f575f svgShape"></path><path fill="#342a34" d="M37.52011,62.33443l-0.31544,0.18321c0.18378-0.1068,0.2976-0.334,0.2987-0.65683
									c0.00274-1.01582-1.09151-2.22249-1.74964-1.83955c0.2737-0.159,0.04196-0.02443,0.31566-0.18343
									c0.18597-0.10812,0.44388-0.09298,0.72854,0.0715C37.68382,60.42046,38.17154,61.95507,37.52011,62.33443z" class="color2a3134 svgShape"></path><path fill="#6822a2" d="M36.48238,60.09258c0.56554,0.32652,1.02275,1.11828,1.02091,1.76829
									c-0.0036,1.27147-1.54729,0.75732-1.97319-0.69152C35.26252,60.25759,35.73923,59.66352,36.48238,60.09258z" class="color4f575f svgShape"></path><path fill="#4239c9" d="M31.6335,65.09792c0.00017,0.10013,0.01274,7.69801,0.01194,7.21384
											c0.62009,0.19083,1.37133,0.19083,1.99142-0.01193c-0.00025-0.10011-0.0191-7.69209-0.0179-7.2078
											c0-0.60219,0.32198-1.16267,0.83465-1.45481l2.34921-1.35343c0.79462-0.46033-0.20713-2.18938-1.00175-1.72905
											l-2.3431,1.34746C32.32507,62.56995,31.62157,63.79223,31.6335,65.09792z" class="color39c988 svgShape"></path><g fill="#010001" class="color000000 svgShape"><path fill="#5c1894" d="M31.63195,65.09661v2.34232c0,0.68358,1.9836,0.68358,1.9836,0v-2.35152
											c0-0.59693,0.32128-1.15709,0.83559-1.45096c0.51913-0.29662-0.47261-2.0322-0.99174-1.73558
											C32.32977,62.57124,31.62276,63.79261,31.63195,65.09661z" class="color189453 svgShape"></path></g></g></g><g fill="#010001" class="color000000 svgShape"><path fill="#ccd2d9" d="M47.12998,45.87296l-0.0029,1.14084c0,0.05511-0.03769,0.11022-0.10731,0.15081l-4.74503,2.75827
								c-0.14212,0.08122-0.37415,0.08122-0.51626,0l-4.77695-2.75827c-0.07251-0.04059-0.10731-0.0957-0.10731-0.15081
								l0.0029-1.13506c0,0.04932,0.03771,0.10443,0.10731,0.14502l4.77405,2.75537c0.14502,0.08412,0.37705,0.08412,0.51917,0
								l4.74503-2.75537C47.09228,45.98027,47.12708,45.92806,47.12998,45.87296z" class="colorccd0d9 svgShape"></path><path fill="#ebeff4" d="M47.02142,45.72219c0.14259,0.08232,0.14335,0.21704-0.00016,0.30044l-4.74475,2.75735
								c-0.14166,0.08232-0.37422,0.08232-0.51681,0l-4.77579-2.75731c-0.14444-0.0834-0.14336-0.21703-0.0017-0.29935
								l4.74475-2.75735c0.14351-0.0834,0.37423-0.08447,0.51867-0.00108L47.02142,45.72219z" class="colorebeef4 svgShape"></path><path fill="#ccd2d9" d="M45.37347,46.10762c-0.12811-0.65532-0.79163-1.13176-1.41733-1.38198
												c-1.32735-0.54316-3.17858-0.47568-4.37737,0.21854c-0.65732,0.39009-0.91879,0.88362-0.94811,1.14737
												c-0.14943-0.67199,0.34309-1.25051,0.94811-1.60696c1.33699-0.77776,3.48389-0.77135,4.81124-0.00965
												c0.00322,0,0.00322,0.00322,0.00643,0.00322C45.01403,44.84867,45.52129,45.3999,45.37347,46.10762z" class="colorccd0d9 svgShape"></path><path fill="#f4f6f8" d="M45.37347,46.10762c-0.08356,0.42424-0.40496,0.83883-0.97059,1.16022
												c-0.67084,0.39164-1.57227,0.57209-2.27547,0.57209c-0.00322,0.00322-0.00965,0.00322-0.01607,0
												c-0.89989,0.01607-1.81266-0.17356-2.50686-0.57209c-0.56244-0.32781-0.89348-0.74883-0.97383-1.17629
												c0.00644-0.02893,0.01285-0.05785,0.01928-0.08678h0.00322c0.00322-0.02892,0.01285-0.06107,0.02572-0.0932
												c0.01928-0.05465,0.04178-0.10928,0.07391-0.16391c0.15105-0.29248,0.43066-0.56887,0.82598-0.80348
												C41.5361,43.81069,45.0489,44.44735,45.37347,46.10762z" class="color3d4449 svgShape"></path><g fill="#010001" class="color000000 svgShape"><path fill="#eceef1" d="M41.66626,45.90477c0.4408-0.25439,1.11592,0.11406,0.68265,0.38715
													c-0.19384,0.11188-0.49173,0.11657-0.68442,0.01397c-0.19258-0.11198-0.19968-0.28445-0.01387-0.39174
													C41.65572,45.91092,41.66104,45.90779,41.66626,45.90477z" class="colorecf0f1 svgShape"></path><path fill="#ffffff" d="M39.75035,46.27274c0.03904,0.1903,0.15023,0.37604,0.33368,0.53852l0.07994,0.03717
													l0.05637-0.04184c0.31264-0.39238,0.77604-0.4978,0.87676-0.55243l-0.00052,0.10205
													c-0.29765,0.18116-0.40313,0.40863-0.3805,0.65469c0.05853,0.36238,1.02118,0.40889,1.38444,0.40396l0.08825-0.01391
													l-0.03966-0.06032c-0.23941-0.20432-0.37437-0.43189-0.38102-0.67794l0.0082-0.0325l0.1521,0.05108
													c0.12697,0.23214,0.39846,0.39929,0.75861,0.50612c0.34294,0.10245,0.6224,0.0042,0.93023-0.17338
													c0.15843-0.09146,0.29111-0.19445,0.39514-0.31416l0.0163-0.05575c-0.32639-0.01012-0.70126,0.03161-1.26567-0.13922
													l-0.08004-0.02793l0.15261-0.05108c0.47252,0.0508,1.49158-0.04197,1.41351-0.49211
													c-0.03893-0.19965-0.14115-0.41142-0.34157-0.54329l-0.07195-0.04174c-0.3084,0.30249-0.32356,0.35655-0.89306,0.5897
													L42.90242,45.943l0.00851-0.09748c0.28966-0.18573,0.40313-0.40853,0.3724-0.65002
													c-0.03857-0.37804-1.01385-0.41413-1.38444-0.40396l-0.08825,0.01391c0.11121,0.12585,0.39804,0.33049,0.42099,0.69186
													l0.01557,0.07433l-0.16808-0.05108c-0.14286-0.24149-0.42244-0.41331-0.80668-0.51546
													c-0.21605-0.06032-0.44061-0.0325-0.62541,0.04651c-0.2404,0.10608-0.48355,0.2515-0.65189,0.45037l-0.02419,0.03249
													l-0.0163,0.03717c0.49719-0.03717,0.9458,0.00924,1.3699,0.15314l-0.15261,0.05108
													C40.70966,45.71161,39.68008,45.8079,39.75035,46.27274z M41.5484,45.83638
													c0.25366-0.14643,0.65384-0.14233,0.90577,0.00409c0.25202,0.13824,0.25074,0.37416,0.00418,0.5165
													c-0.26066,0.15052-0.65392,0.15052-0.91295,0.00819C41.29346,46.21873,41.29474,45.98281,41.5484,45.83638z" class="colorffffff svgShape"></path></g><g fill="#010001" class="color000000 svgShape"><path fill="#ccd2d9" d="M44.65677 44.64851c-.11248.06563-2.02449 1.18123-1.90586 1.11201l-.06107.03537v-.09322c.1011-.05905 2.01161-1.17486 1.89301-1.10559C44.60855 44.61314 44.63427 44.62922 44.65677 44.64851zM41.1311 46.03049v.0932c-.10057-.00488-2.68058-.1301-2.51651-.12213-.00322-.02892-.00644-.06107-.00644-.0932C38.96135 45.92546 41.27941 46.03767 41.1311 46.03049zM42.85182 45.99301l-.00027.09409c-.00078.27818-.36314.44178-.64513.47949l.00027-.09409C42.49091 46.43449 42.85103 46.27004 42.85182 45.99301z" class="colorccd0d9 svgShape"></path><path fill="#ccd2d9" d="M41.92032,46.48739l-0.00027,0.09409c-0.30805-0.01346-0.74484-0.15437-0.79035-0.45631
											l0.00026-0.09408C41.17543,46.33266,41.61147,46.4739,41.92032,46.48739z" class="colorccd0d9 svgShape"></path><path fill="#ebeff4" d="M42.12741,47.83994c-0.00322,0.00322-0.00965,0.00322-0.01607,0l-0.19284-1.25987l0.00322-0.0932
											L42.12741,47.83994z" class="colorebeef4 svgShape"></path><path fill="#ebeff4" d="M42.68985,45.70267c0.38776,0.33232,0.01576,0.70346-0.48209,0.77135
											c0.01505,0.10056,0.21753,1.45362,0.20248,1.35305c-0.09322,0.00965-0.18641,0.01287-0.28283,0.01287l-0.2057-1.35307
											c-0.30264-0.00993-0.74923-0.15832-0.79062-0.45637c-0.10257-0.00497-2.68807-0.13013-2.52295-0.12213
											c-0.00322-0.05463,0-0.10928,0.00322-0.16713c0.36367,0.01793,2.69051,0.13266,2.54221,0.12535
											c0.11156-0.28997,0.78162-0.51508,1.33057-0.28283c0.1012-0.05888,2.02458-1.17788,1.90586-1.10881
											c0.00322,0,0.00322,0.00322,0.00643,0.00322c0.06429,0.03856,0.12857,0.07713,0.18642,0.11891
											C44.48176,44.65612,42.57124,45.77193,42.68985,45.70267z" class="colorebeef4 svgShape"></path></g><g fill="#010001" class="color000000 svgShape"><path fill="#ccd2d9" d="M54.81532,41.41019l-0.0029,1.14085c0,0.05511-0.03769,0.11021-0.10731,0.15081l-4.74503,2.75827
								c-0.14212,0.08122-0.37415,0.08122-0.51626,0c-4.92067-2.87525-4.88426-2.74044-4.88426-2.90908l0.0029-1.13506
								c0,0.15701,0.00106,0.04994,4.88136,2.90039c0.14502,0.08413,0.37705,0.08413,0.51917,0l4.74503-2.75537
								C54.77762,41.51751,54.81242,41.4653,54.81532,41.41019z" class="colorccd0d9 svgShape"></path><path fill="#ebeff4" d="M54.70676,41.25943c0.14259,0.08232,0.14335,0.21704-0.00016,0.30043l-4.74475,2.75735
								c-0.14166,0.08232-0.37422,0.08232-0.51681,0l-4.77579-2.75731c-0.14445-0.08339-0.14336-0.21703-0.0017-0.29935
								l4.74475-2.75735c0.14351-0.0834,0.37422-0.08447,0.51867-0.00108L54.70676,41.25943z" class="colorebeef4 svgShape"></path><path fill="#ccd2d9" d="M53.05881,41.64486c-0.08356-0.42746-0.41137-0.83883-0.97702-1.16987
												c-2.06208-1.11043-4.97729-0.48042-5.64366,0.80991c-0.05883,0.10003-0.11291,0.26099-0.12213,0.34389
												c-0.14943-0.672,0.34309-1.25051,0.94811-1.60696c1.33699-0.77777,3.48389-0.77135,4.81124-0.00965
												c0.00322,0,0.00322,0.00322,0.00644,0.00322C52.69938,40.38591,53.20663,40.93714,53.05881,41.64486z" class="colorccd0d9 svgShape"></path><path fill="#f4f6f8" d="M53.05881,41.64486c-0.08356,0.42424-0.40496,0.83883-0.97059,1.16022
												c-0.67084,0.39164-1.57227,0.57209-2.27547,0.57209c-0.00322,0.00322-0.00965,0.00322-0.01607,0
												c-0.89989,0.01606-1.81266-0.17356-2.50686-0.57209c-0.56244-0.32781-0.89348-0.74883-0.97383-1.17629
												c0.00644-0.02893,0.01285-0.05785,0.01928-0.08678h0.00322c0.00712-0.06397,0.0638-0.19619,0.09963-0.25711
												c0.15105-0.29248,0.43066-0.56887,0.82598-0.80348C49.2208,39.3483,52.73643,39.99582,53.05881,41.64486z" class="color3d4449 svgShape"></path><g fill="#010001" class="color000000 svgShape"><path fill="#eceef1" d="M49.3516,41.44201c0.4408-0.25439,1.11592,0.11406,0.68265,0.38715
													c-0.19384,0.11188-0.49173,0.11657-0.68442,0.01397c-0.19258-0.11198-0.19967-0.28444-0.01387-0.39174
													C49.34106,41.44815,49.34638,41.44503,49.3516,41.44201z" class="colorecf0f1 svgShape"></path><path fill="#ffffff" d="M47.43569,41.80997c0.03904,0.1903,0.15023,0.37603,0.33368,0.53851l0.07994,0.03717
													c0.12104-0.08749,0.25545-0.34816,0.84478-0.56177l0.08835-0.0325l-0.00052,0.10205
													c-0.29765,0.18117-0.40313,0.40864-0.3805,0.65469c0.05853,0.36238,1.02118,0.40889,1.38444,0.40396l0.08825-0.01391
													l-0.03966-0.06032c-0.23941-0.20432-0.37438-0.43189-0.38102-0.67794l0.0082-0.03249l0.1521,0.05108
													c0.12697,0.23214,0.39846,0.39929,0.75861,0.50612c0.34294,0.10245,0.6224,0.00419,0.93023-0.17338
													c0.15843-0.09146,0.29111-0.19445,0.39514-0.31416l0.0163-0.05575l-0.08814-0.00457
													c-0.76786,0.03403-1.15755-0.14104-1.25757-0.16258l0.15261-0.05108c0.43262,0.04651,0.82568-0.00457,1.17919-0.15313
													c0.15385-0.06695,0.26299-0.17371,0.23432-0.33897c-0.03893-0.19965-0.14115-0.41142-0.34157-0.54329l-0.07195-0.04173
													c-0.10682,0.09032-0.27028,0.35955-0.84489,0.57111l-0.04818,0.01859l-0.04007,0.00457l0.00851-0.09749
													c0.28966-0.18573,0.40313-0.40853,0.3724-0.65002c-0.03857-0.37804-1.01385-0.41413-1.38444-0.40396l-0.08825,0.01391
													c0.11121,0.12585,0.39804,0.33049,0.42099,0.69186l0.01557,0.07434l-0.16808-0.05108
													c-0.14286-0.24149-0.42244-0.41331-0.80668-0.51547c-0.3185-0.08892-0.58912,0.00766-0.8698,0.16964
													c-0.16435,0.09489-0.30274,0.20349-0.40749,0.32724l-0.02419,0.0325l-0.0163,0.03717
													c0.49719-0.03717,0.9458,0.00924,1.3699,0.15313l-0.15261,0.05108C48.395,41.24885,47.36542,41.34514,47.43569,41.80997
													z M49.23374,41.37362c0.25366-0.14643,0.65384-0.14234,0.90577,0.00409c0.25202,0.13824,0.25075,0.37416,0.00418,0.5165
													c-0.26066,0.15052-0.65392,0.15052-0.91295,0.00819C48.97881,41.75597,48.98008,41.52005,49.23374,41.37362z" class="colorffffff svgShape"></path></g><g fill="#010001" class="color000000 svgShape"><path fill="#ccd2d9" d="M52.34211 40.18575c-.36456.21266-2.06805 1.20637-1.96692 1.14737V41.2399c.1011-.05904 2.01161-1.17486 1.89301-1.10559C52.2939 40.15038 52.31961 40.16646 52.34211 40.18575zM48.81644 41.56773v.0932c-.10057-.00488-2.68058-.13009-2.51651-.12213-.00322-.02892-.00644-.06107-.00644-.0932C46.64669 41.4627 48.96475 41.57491 48.81644 41.56773zM50.53716 41.53025l-.00027.09409c-.00079.27818-.36314.44178-.64513.4795l.00027-.09409C50.17625 41.97172 50.53637 41.80727 50.53716 41.53025z" class="colorccd0d9 svgShape"></path><path fill="#ccd2d9" d="M49.60566,42.02463l-0.00027,0.09409c-0.30805-0.01345-0.74484-0.15436-0.79035-0.45631
											l0.00026-0.09408C48.86077,41.8699,49.29681,42.01114,49.60566,42.02463z" class="colorccd0d9 svgShape"></path><path fill="#ebeff4" d="M49.81275,43.37717c-0.00322,0.00322-0.00965,0.00322-0.01607,0l-0.19284-1.25988l0.00322-0.0932
											L49.81275,43.37717z" class="colorebeef4 svgShape"></path><path fill="#ebeff4" d="M50.37519,41.2399c0.38789,0.33243,0.01651,0.70336-0.48209,0.77135
											c0.01505,0.10057,0.21753,1.45362,0.20248,1.35305c-0.09322,0.00965-0.18642,0.01287-0.28283,0.01287l-0.2057-1.35307
											c-0.30264-0.00993-0.74923-0.15832-0.79062-0.45637c-0.10257-0.00497-2.68807-0.13012-2.52295-0.12213
											c-0.00322-0.05463,0-0.10928,0.00322-0.16713c0.36367,0.01793,2.69051,0.13266,2.54221,0.12535
											c0.11156-0.28997,0.78162-0.51508,1.33057-0.28283c0.1012-0.05887,2.02458-1.17788,1.90586-1.10881
											c0.00322,0,0.00322,0.00322,0.00644,0.00322c0.06428,0.03857,0.12856,0.07713,0.18641,0.11892
											C52.1671,40.19336,50.25658,41.30917,50.37519,41.2399z" class="colorebeef4 svgShape"></path></g></g></g></g></g></svg>