<svg xmlns="http://www.w3.org/2000/svg" enable-background="new 0 0 126 126" viewBox="0 0 126 126" id="BusinessPlanning"><path fill="#f4f6f8" d="M5.9465 91.8901c.1361-.451 1.3054.9948 3.3853-1.1894 1.6658.5104 3.6458.0542 4.5788-.2528 1.0399-.3457 2.1381.3564.5442 1.885-1.5939 1.5173-5.5429 1.6993-5.5429 1.6993v.181c0 .2432-.1799.5-.3911.5594L6.3732 94.995c-.2062.0581-.3102-.1018-.3355-.3394C5.9227 93.5786 5.8405 92.2496 5.9465 91.8901zM11.0565 94.8147c.156-.401 1.1255.8608 3.5095-.5647 1.5217.9834 4.1213 2.0465 5.1908 2.0795 1.1919.0339 2.4508 1.1364.6238 2.0833-1.827.9362-6.5057-.2784-6.5057-.2784v.3083c0 .2426-.2062.434-.4483.4164l-2.4616-.1807c-.2363-.0173-.411-.2266-.3846-.462C10.6848 97.2842 10.9349 95.1358 11.0565 94.8147z" class="color454859 svgShape"></path><path fill="#6822a2" d="M120.5221,23.6953L81.878,1.385c-0.6059-0.355-1.1578-0.3859-1.5553-0.1543L78.6903,2.18
									c0.3975-0.2316,1.2774,2.1919,1.2774,2.1919l-0.0811,40.132l39.1882,22.6267c0,0,1.671,1.9682,1.2813,2.1959l1.6286-0.9493
									c0.3936-0.2276,0.6368-0.714,0.6406-1.4046l0.0811-39.499C122.7103,26.0841,121.7339,24.3938,120.5221,23.6953z" class="color5b5d70 svgShape"></path><path fill="#443a4c" d="M121.074,28.4228l-0.0811,39.499c-0.0039,1.3892-0.988,1.9488-2.1959,1.2503L80.153,46.8618
										c-1.2118-0.6985-2.1882-2.3888-2.1843-3.7821l0.0811-39.495c0.0039-1.3892,0.988-1.9526,2.1998-1.2542l38.6402,22.3103
										C120.1014,25.3394,121.0778,27.0335,121.074,28.4228z" class="color3a3d4c svgShape"></path><polygon fill="#f4f6f8" points="79.477 3.687 79.391 44.62 119.566 67.813 119.651 26.883" class="colorffffff svgShape"></polygon><g fill="#010001" class="color000000 svgShape"><path fill="#a374ca" d="M111.0752,56.2684c-0.2987-0.1725-0.5381-0.587-0.5371-0.9302l0.0121-4.2504
								c0.001-0.34,0.2419-0.4806,0.5406-0.3082l4.4223,2.5531c0.2987,0.1725,0.541,0.5921,0.54,0.9321l-0.0121,4.2504
								c-0.001,0.3432-0.2448,0.4788-0.5436,0.3063L111.0752,56.2684z" class="color74ca74 svgShape"></path><path fill="#fc68e1" d="M101.7454 45.3829c.2987.1725.5381.587.5371.9302l-.012 4.2504c-.001.34-.2419.4806-.5406.3082l-4.4223-2.5532c-.2987-.1725-.541-.5921-.54-.9321l.012-4.2504c.001-.3432.2448-.4788.5436-.3063L101.7454 45.3829zM88.0409 14.1416c.2987.1725.5381.5872.5371.9304l-.012 4.2502c-.001.34-.2419.4806-.5406.3082l-4.4223-2.5532c-.2987-.1725-.541-.5921-.54-.9321l.012-4.2502c.001-.3432.2448-.479.5436-.3065L88.0409 14.1416z" class="colorfc688b svgShape"></path><polygon fill="#5c5066" points="113.35 35.981 114.465 39.179 113.519 38.633 113.509 42.039 99.739 34.089 99.732 36.525 113.502 44.475 113.493 47.878 114.439 48.424 113.31 50.33 112.195 47.129 113.138 47.673 113.147 44.678 99.731 36.932 99.722 39.927 100.668 40.473 99.539 42.38 98.425 39.178 99.368 39.723 99.376 36.727 85.96 28.982 85.952 31.977 86.898 32.523 85.769 34.429 84.654 31.228 85.597 31.772 85.607 28.37 99.377 36.32 99.384 33.884 85.614 25.933 85.624 22.528 84.68 21.983 85.809 20.08 86.924 23.279 85.978 22.733 85.969 25.727 99.385 33.473 99.394 30.478 98.451 29.934 99.58 28.03 100.694 31.229 99.748 30.683 99.74 33.678 113.156 41.424 113.165 38.429 112.222 37.884" class="color505366 svgShape"></polygon><path fill="#a50b89" d="M83.5342,40.3679c-0.2987-0.1725-0.5381-0.587-0.5371-0.9302l0.0121-4.2504
								c0.001-0.34,0.2419-0.4807,0.5406-0.3082l4.4223,2.5531c0.2987,0.1725,0.541,0.5921,0.54,0.9321L88.5,42.6147
								c-0.001,0.3432-0.2448,0.4788-0.5435,0.3063L83.5342,40.3679z" class="color8c6758 svgShape"></path><path fill="#a374ca" d="M99.6003,20.8154c1.3179,0.7609,2.3863,2.6081,2.382,4.1224
								c-0.0043,1.5178-1.0797,2.1273-2.3976,1.3664c-1.3208-0.7626-2.3863-2.6081-2.382-4.1259
								C97.2071,20.6641,98.2795,20.0528,99.6003,20.8154z" class="color74ca74 svgShape"></path><path fill="#867efc" d="M113.3708,28.7658c1.3179,0.7609,2.3834,2.6064,2.3791,4.1207
								c-0.0043,1.5178-1.0767,2.129-2.3946,1.3681c-1.3208-0.7626-2.3863-2.6081-2.382-4.1259
								C110.9776,28.6145,112.05,28.0033,113.3708,28.7658z" class="color7ea5fc svgShape"></path><g fill="#010001" class="color000000 svgShape"><path fill="#94c9ff" d="M107.9135,37.1776c0.3602,0.208,0.6492,0.7086,0.648,1.1225l-0.012,4.2369
							c-0.0012,0.4139-0.2921,0.5797-0.6523,0.3717l-16.7607-9.6768c-0.3602-0.208-0.6492-0.7086-0.648-1.1225l0.012-4.2369
							c0.0012-0.4139,0.2921-0.5797,0.6523-0.3717L107.9135,37.1776z" class="colorffdd94 svgShape"></path></g></g><g fill="#010001" class="color000000 svgShape"><path fill="#94c9ff" d="M82.3046,36.1669c0.0775-0.072,0.0703-0.1402,0.0703-0.1402c-0.0209-0.0208-0.4265-0.3976-1.4387-0.5641
					c-0.6684-0.0979-0.756-0.3187-0.7367-0.4597c0.0099-0.0724,0.0816-0.1194,0.1521-0.1086
					c0.5645,0.0881,0.8989-0.0662,1.078-0.2271c0.0704-0.0531,0.1212-0.1093,0.1571-0.1585
					c0.0471-0.0641,0.0132-0.1522-0.0633-0.1596c-0.2095-0.0192-0.6703-0.0415-1.4942,0.0108
					c-1.2118,0.063-1.3891,0.4992-1.5942,0.5753c-0.2052,0.0758-0.6023-0.0475-0.6319-0.0508l-0.4467,1.0342l0.2092,0.013
					c0.2544,0.0161,0.4786,0.1473,0.6275,0.3498c0.5334,0.7256,1.7344,1.0738,2.3532,1.1197
					c0.1741,0.0074,0.2678-0.0135,0.3152-0.0449c0.1121-0.0987-0.1049-0.332-0.1924-0.4276
					c0.0674,0.0323,0.2873,0.0934,0.8606,0.0947c0.1612,0.0114,0.2382-0.0171,0.2854-0.0488
					c0.0904-0.0766-0.1448-0.2314-0.3003-0.3157c0.2865,0.1359,0.3716,0.1332,0.3716,0.1332
					c0.149-0.0269,0.226-0.0553,0.2692-0.0999c0.2281-0.1846-0.6246-0.4809-0.6583-0.497
					C81.9921,36.3111,82.214,36.2429,82.3046,36.1669z" class="colorffdd94 svgShape"></path><path fill="#5046e4" d="M63.884,20.2985c0,0-0.3152-3.4153,2.906-3.1483c2.5023,0.208,3.4342,9.024,3.6153,12.3402
								c0.053,0.9643,0.6649,1.7631,1.5613,2.0565l6.9156,2.9689c0,0-0.4049,0.3704-0.6837,2.0852l-10.0751-2.3754
								c-0.7081-0.2256-1.2599-0.7728-1.476-1.4929C65.7925,29.8822,63.9495,21.7321,63.884,20.2985z" class="color3887e5 svgShape"></path><path fill="#f4f6f8" d="M62.5912,80.125c-0.4442-0.3888-1.4971-1.6316-1.4971-1.6316
											c-1.8323-0.0229-2.7082-5.7495-4.8723-5.4928c-2.1641,0.2563-1.0802,3.4046-0.6,4.0203
											c0.4802,0.6153,0.3774,2.3998,0.3774,2.3998h0.7384c0,0-0.1876-1.569-0.1607-1.9999
											c0.027-0.4309,0.6615-1.0614,1.0683,0.8494s0.4387,1.6308,2.5693,2.4926c1.589,0.6423,2.216,0.0335,2.432-0.3172
											C62.7119,80.3392,62.6851,80.2076,62.5912,80.125z" class="color454859 svgShape"></path><path fill="#94c9ff" d="M56.2218,73.0005c0,0,0.5451-2.6072,0.1945-4.2479c-0.3506-1.6407-2.2776-8.0778-0.2225-12.4534
											l3.8343,1.581c0,0,1.3164,4.8132,0.3048,9.2433c-1.0116,4.4304-1.3011,4.9108-0.8192,6.8251s0.8537,3.6698,1.5804,4.5449
											c0,0-1.9679,1.1179-3.0056-0.9061c-1.0377-2.0235-0.6108-1.0681-1.5738-2.162
											C55.5517,74.3314,56.2218,73.0005,56.2218,73.0005z" class="colorffdd94 svgShape"></path><path fill="#f4f6f8" d="M67.8968,76.5223c-0.4442-0.3892-1.4971-1.6316-1.4971-1.6316
											c-1.8322-0.0233-2.7082-5.7495-4.8723-5.4932c-2.1641,0.2563-1.0802,3.405-0.6,4.0203
											c0.4802,0.6153,0.3773,2.3998,0.3773,2.3998h0.7384c0,0-0.1875-1.569-0.1606-1.9999
											c0.0269-0.4305,0.6614-1.061,1.0683,0.8499c0.4068,1.9108,0.4387,1.6308,2.5693,2.4922
											c1.589,0.6423,2.2159,0.0339,2.432-0.3172C68.0176,76.7361,67.9908,76.6045,67.8968,76.5223z" class="color454859 svgShape"></path><path fill="#94c9ff" d="M61.5274,69.3976c0,0,0.5451-2.6072,0.1945-4.2479c-0.3506-1.6407-2.2776-8.0778-0.2225-12.4534
											l3.8343,1.581c0,0,1.3164,4.8132,0.3048,9.2433c-1.0116,4.4304-1.3011,4.9108-0.8192,6.8251
											c0.4819,1.9143,0.8538,3.6698,1.5804,4.5449c0,0-1.9679,1.1179-3.0056-0.9061c-1.0377-2.0235-0.6108-1.0681-1.5738-2.162
											C60.8573,70.7285,61.5274,69.3976,61.5274,69.3976z" class="colorffdd94 svgShape"></path><g fill="#010001" class="color000000 svgShape"><path fill="#f4f6f8" d="M67.1628,40.0292c0,0,0.2736,2.3856-0.0586,8.1996c-0.3322,5.814,0.4983,5.893-1.495,7.8864
											c-1.9934,1.9934-8.6379,3.8206-10.9635,1.495c0,0-1.0611-13.6317-0.6803-16.3736
											c0.3808-2.7419,0.7616-2.5134,0.7616-2.5134L67.1628,40.0292z" class="color454859 svgShape"></path></g><g fill="#010001" class="color000000 svgShape"><path fill="#867efc" d="M56.0693,35.4025c3.1496-4.3506,0.1717-8.7838,0.1717-8.7838
														c-2.8209-3.943-1.4099-5.6068-0.1557-6.2777c1.0715-0.5733,2.05-1.3127,2.789-2.2774
														c0.3917-0.5114,1.1947-1.6827,1.1947-1.6827s2.462,0.0787,4.862,0.3927c0.9905,0.1294,2.7007,0.1913,3.1354,1.4787
														c0.6723,1.9936-0.2064,2.6665,0.3598,3.3249c2.948,3.4224-0.1165,4.6687-1.1573,7.0617
														c-1.1313,2.6032-0.1059,11.3905-0.1059,11.3905c-10.5964,5.5731-13.2257,1.3792-13.2257,1.3792
														C54.1835,38.9445,54.1822,38.0064,56.0693,35.4025z" class="color7ea5fc svgShape"></path><path fill="#63affc" d="M63.1393,19.9164c0,0-2.07-1.8178-2.5588-2.3985c-1.0159-1.2069-0.802-3.2384-0.802-3.2384
												s3.7733-0.2827,3.4067,1.3516c-0.0458,0.1988,0.3132,0.5274,0.5347,0.5274
												C64.2392,17.6477,63.3073,17.6555,63.1393,19.9164z" class="colorfcbe63 svgShape"></path></g><g fill="#010001" class="color000000 svgShape"><path fill="#94c9ff" d="M63.8099,8.6078c-2.4068-0.8792-5.8251,6.0984-5.8251,6.0984l0.8133,1.2392l1.5116,1.1837
										c1.1722,0.9181,2.8641,0.9986,4.0062,0.043c0.4265-0.3563,0.7728-0.8496,0.9142-1.5307
										C65.7392,13.1879,66.2166,9.4874,63.8099,8.6078z" class="colorffdd94 svgShape"></path><path fill="#f4f6f8" d="M64.2733,17.1796c0,0.1096,2.2158,0.2395,2.2158,0.2395s-0.5789-1.1183-0.4691-3.9925
										c0.0998-2.8842,0.1995-6.8569-4.6911-7.366c0,0-2.3849-0.3469-2.8745,0.9086c0,0-2.5651,0.2895-2.3256,4.3317
										c0.2395,4.0322,1.7467,6.3478,4.8108,7.4855c0,0-3.683-4.0422,0.6189-7.6654c0,0,0.2695,0.6886,0.1497,1.2274
										c0,0,1.3774-1.0575,1.5869-2.0161c0.2096-0.9582-0.0099-2.026,1.0281-0.988c1.038,1.0385,1.5072,4.7014,0.8484,6.0285
										C64.7124,16.2813,64.2733,16.9397,64.2733,17.1796z" class="color454859 svgShape"></path></g><g fill="#010001" class="color000000 svgShape"><path fill="#94c9ff" d="M69.5149,41.9909c0.0891-0.0571,0.0941-0.1256,0.0941-0.1256
									c-0.0169-0.0241-0.3492-0.467-1.3159-0.8104c-0.6405-0.2149-0.6875-0.4478-0.6435-0.5831
									c0.0226-0.0695,0.1015-0.1031,0.1689-0.0799c0.5399,0.1869,0.8964,0.0942,1.1012-0.0323
									c0.0787-0.0398,0.1386-0.0861,0.1827-0.1282c0.0577-0.0548,0.04-0.1474-0.034-0.1683
									c-0.2028-0.0561-0.6523-0.1598-1.4724-0.2544c-1.2038-0.1529-1.4556,0.2449-1.671,0.2834
									c-0.2154,0.0382-0.5843-0.1536-0.6128-0.1621l-0.623,0.9385l0.2036,0.0499c0.2475,0.061,0.4449,0.2299,0.5555,0.4556
									c0.3962,0.8088,1.5164,1.3645,2.1172,1.5194c0.1701,0.0382,0.266,0.0342,0.3182,0.0117
									c0.1278-0.0773-0.0444-0.3454-0.1135-0.4549c0.0606,0.0437,0.2662,0.1428,0.8301,0.2459
									c0.1566,0.0398,0.2374,0.0254,0.2896,0.0026c0.1026-0.0594-0.1014-0.2534-0.2396-0.3639
									c0.2579,0.1846,0.342,0.197,0.342,0.197c0.1514,0,0.2322-0.0144,0.2826-0.0505c0.2573-0.1412-0.5294-0.5841-0.5597-0.6059
									C69.1818,42.0773,69.4123,42.0496,69.5149,41.9909z" class="colorffdd94 svgShape"></path><path fill="#5046e4" d="M63.4683 21.7613c.4216-.2434.7616-.0448.763.4396s-.3365 1.0694-.758 1.3129c-.4216.2434-.7658.0521-.7671-.4323C62.7048 22.597 63.0467 22.0047 63.4683 21.7613zM63.4775 26.4367c.4216-.2434.7616-.0448.763.4396s-.3365 1.0697-.758 1.3131c-.4216.2434-.7658.0519-.7671-.4326C62.7139 27.2725 63.0559 26.6802 63.4775 26.4367zM63.4867 31.1124c.4216-.2434.7616-.0448.763.4396.0014.4844-.3365 1.0694-.758 1.3129-.4216.2434-.7658.0521-.7671-.4323S63.0651 31.3558 63.4867 31.1124zM63.4958 35.7879c.4216-.2434.7616-.0448.763.4396s-.3364 1.0695-.758 1.3129c-.4216.2434-.7658.0521-.7671-.4323S63.0742 36.0313 63.4958 35.7879z" class="color3887e5 svgShape"></path><path fill="#5046e4" d="M54.2097,23.0866c0,0,0.2956-3.4171,3.4184-2.583c2.4257,0.6485,1.779,9.4903,1.369,12.7861
									c-0.1189,0.9585,0.3416,1.8531,1.1717,2.3009l6.2793,4.1486c0,0-0.4642,0.2928-1.0428,1.9309l-9.4939-4.1249
									c-0.6568-0.3476-1.1028-0.984-1.1878-1.7311C54.3879,32.857,54.0199,24.509,54.2097,23.0866z" class="color3887e5 svgShape"></path></g></g><g fill="#010001" class="color000000 svgShape"><path fill="#f4f6f8" d="M83.1551 116.5292c.1638-.5427 2.1637 1.087 4.6668-1.5416 2.0047.6142 3.7949.1755 4.9177-.194 1.2515-.416 2.5732.4289.655 2.2685-1.9182 1.826-6.6708 2.045-6.6708 2.045v.2179c0 .2927-.2165.6017-.4707.6732l-2.5846.2678c-.2482.07-.3733-.1225-.4038-.4085C83.1265 118.5613 83.0275 116.9619 83.1551 116.5292zM89.6165 120.0489c.1877-.4826 2.4801 1.8767 5.3492.1611 1.8313 1.1834 3.8343 1.6222 5.1214 1.6619 1.4345.0408 2.9495 1.3676.7508 2.5072-2.1988 1.1267-7.8294-.3351-7.8294-.3351v.371c0 .292-.2481.5223-.5395.5011l-2.9625-.2175c-.2844-.0208-.4946-.2727-.4629-.556C89.1692 123.0209 89.4702 120.4354 89.6165 120.0489zM92.5734 73.7781c-1.0349.1868-2.063.3792-2.8176.5225-.6011.1139-1.148-.3508-1.1398-.9625.0372-2.7815 1.1098-11.6454-2.6461-11.4034-7.0459.4534-1.6221 15.0219.2247 16.0608.9443.5307 3.8062.003 6.3787-.6394V73.7781z" class="color454859 svgShape"></path><path fill="#94c9ff" d="M93.862,53.5503c0,0-7.0782,2.0993-7.1024,2.5024c0.0057,0.1448-0.2812,7.4546-0.1515,9.1126
															c0.1906,2.7024,7.2979,1.372,6.2792-0.4448c-0.6579-1.1933-1.4026-2.031-0.7415-2.6915
															c0.432-0.4317,0.7044-0.0599,1.2193-0.4625C95.7912,59.6334,93.862,53.5503,93.862,53.5503z" class="colorffdd94 svgShape"></path><path fill="#6822a2" d="M95.0218,66.2682c-0.8203-0.619-1.6787-1.3407-2.3582-2.1566
														c-0.4763-0.5732-1.2233-0.8319-1.9651-0.7651c-1.5704,0.1424-3.7718,0.1099-4.1045-1.4141
														c0,0-5.442-0.3438-3.473,6.6705c1.9688,7.0144,1.3567,12.6076,0.6552,15.2085c0,0,8.6212,11.1316,13.4509,2.3692
														c0,0-0.2001-11.6937,0.2512-13.745C97.8721,70.6456,97.9534,68.4804,95.0218,66.2682z" class="color5b5d70 svgShape"></path><path fill="#5c5066" d="M83.096,98.0897c-0.8616-8.9508-1.2815-10.2356,0.6802-14.2784
														c0,0,11.3194,6.3273,13.4507,2.3696c0,0,2.0661,4.4307-0.8479,14.9481c-0.9241,3.3359-0.971,6.0272-1.0346,9.4883
														l-0.1673,9.8536c0,0-1.4693,2.7262-5.6665,1.1169c0,0,0.5927-23.5866,0.2793-25.1282
														c-0.6638,2.267-1.6139,18.6259-1.6139,18.6259c-1.3462,2.3653-5.0845,1.3272-5.0845,1.3272
														C82.4193,109.0504,83.6985,104.3484,83.096,98.0897z" class="color505366 svgShape"></path><path fill="#f4f6f8" d="M93.7219,52.7832c-0.658-0.0613-1.6104-0.2684-2.9173-0.8137
							c-2.9871-1.2469-6.6801,0.6696-6.2942,5.5116c0.2279,2.8596,0.4975,3.379,1.18,4.3265
							c1.1692,1.2279,2.4871,1.5247,3.9364,0.9992c0.416-0.5635,0.629-1.8893,0.5475-2.778
							c-0.2745-2.9933,0.222-2.5274,0.7503-2.0131c0.5283,0.5143,0.6238,1.6188,1.0488,1.6145
							c0.425-0.0043,0.8853-0.006,0.9268-0.5686c0.0415-0.5635,0.1599-1.6869,0.775-2.3496
							c0.4343-0.4677,1.2824-1.0467,1.459-2.2142C95.2654,53.6314,94.5949,52.8643,93.7219,52.7832z" class="color454859 svgShape"></path><g fill="#010001" class="color000000 svgShape"><path fill="#94c9ff" d="M109.9693,57.6452c-0.2588-0.513-0.2534-0.9965-0.2534-0.9965s-0.0357-0.6312-0.161-0.8607
						l-0.3778-0.6717c0.642-0.3851,1.0346,0.5006,1.0479,0.6256c0.013,0.1243,0.1813,0.6237,0.1813,0.6237
						s0.1058,0.3669,0.4032-0.625c0.2755-0.9193,0.6938-1.9808,0.812-2.3366c0.1179-0.356,0.362-0.1278,0.3826-0.0812
						c0.0214,0.0469-0.6617,2.1558-0.6783,2.3739c-0.0153,0.2179,0.1224,0.1307,0.1224,0.1307s0.7378-2.3236,0.9908-2.6603
						c0.2525-0.3369,0.365,0.0213,0.365,0.0213s-0.7505,2.4924-0.7472,2.699c0.0034,0.2065,0.1296,0.0269,0.1296,0.0269
						s0.5465-1.658,0.6176-1.9276c0.0706-0.2696,0.2095-0.3695,0.3915-0.2947c0.3095,0.1273-0.5019,2.3878-0.539,2.6245
						c-0.0373,0.2371,0.0711,0.2326,0.1043,0.2006c0.033-0.0326,0.4135-1.4083,0.5275-1.5925
						c0.1138-0.1837,0.2701-0.1512,0.3479-0.0077c0.0777,0.1441-0.4625,1.9712-0.4841,2.0231
						c-0.0221,0.0521-0.535,1.3821-0.8314,1.634c-0.2956,0.2521-0.6745,1.2815-0.6745,1.2815l-1.7191-0.4496
						C110.1621,58.7115,110.2283,58.1576,109.9693,57.6452z" class="colorffdd94 svgShape"></path><path fill="#6822a2" d="M109.8978,58.5544c-0.6627,1.6878-1.9085,5.2662-2.8098,7.6693
						c-0.0176,0.0444-0.4823,1.8975-3.5167,1.8379c0,0-5.8582-0.8745-6.9362-0.9807c-2.9159-0.2826-4.5063,1.1045-3.9497,2.898
						c0.5478,1.7939,1.3165,2.819,4.2324,3.1016c0.9631,0.0884,4.3296-0.4241,6.3619-0.645c3.393-0.3978,6.6535-0.6096,6.9538-1.564
						c1.6435-5.1605,1.7672-11.3188,1.7937-11.6989C111.5767,58.5898,110.6577,58.4043,109.8978,58.5544z" class="color5b5d70 svgShape"></path></g></g><g fill="#010001" class="color000000 svgShape"><path fill="#f4f6f8" d="M29.0515,118.5702l2.5858-0.8744c1.7779,1.5198,2.6828,1.0356,4.9455,1.1314
										c2.2304,0.1294,1.5193,1.3262,1.5193,1.3262c-0.6588,0.7689-2.1529,1.2088-3.0435,1.4125
										c-0.4198,0.0959-0.8452,0.1139-1.2759,0.1109c-2.178-0.0138-4.3361,0.9631-4.99,0.1888
										C28.0816,121.0261,29.0515,118.5702,29.0515,118.5702z" class="color454859 svgShape"></path><path fill="#5c5066" d="M26.4612,95.5716c-1.4341-4.2364,0.8929-7.0371,1.2839-7.7538l7.1705,2.2809
											c0,0,0.597,6.4106-1.7672,14.474c-0.2975,1.0146-0.4644,2.0549-0.5429,3.1091c-0.2256,3.03-0.6364,8.9533-0.5161,10.3784
											c-0.6022,1.0212-1.7523,1.1584-3.1642,0.8744c0,0-1.5698-7.0146-0.9261-11.9288
											c0.2092-1.5971,0.3178-3.2002,0.2026-4.8063C28.0616,100.2487,27.1898,97.7248,26.4612,95.5716z" class="color505366 svgShape"></path><path fill="#f4f6f8" d="M33.1182,121.3232l2.5858-0.8744c1.7779,1.5198,2.6828,1.0356,4.9455,1.1314
											c2.2304,0.1294,1.5193,1.3262,1.5193,1.3262c-0.6588,0.7689-2.1529,1.2088-3.0435,1.4125
											c-0.4198,0.0959-0.8452,0.1139-1.2759,0.1109c-2.178-0.0138-4.3361,0.9631-4.99,0.1888
											C32.1484,123.7791,33.1182,121.3232,33.1182,121.3232z" class="color454859 svgShape"></path><path fill="#6822a2" d="M30.1521,97.7637c-1.677-3.9745-0.0028-7.9923,0.3883-8.7085l8.598,2.5254
											c0,0,0.4008,7.5042-1.9636,15.5688c-0.2973,1.014-0.4643,2.0544-0.5427,3.1085c-0.2256,3.03-0.6365,8.9533-0.5161,10.3778
											c-0.6023,1.0212-1.7524,1.159-3.1642,0.875c0,0-1.5327-6.8486-0.9483-11.7532c0.2078-1.7439,0.329-3.4956,0.1705-5.2449
											C31.9875,102.4547,31.0311,99.8469,30.1521,97.7637z" class="color5b5d70 svgShape"></path><g fill="#010001" class="color000000 svgShape"><path fill="#77b9fc" d="M35.6756,83.8436c-0.0111-0.0163-0.0211-0.0338-0.0323-0.0495
											c-0.8902-1.3008-2.0726-2.3397-3.2752-3.3574c-1.6616-1.4041-0.6786-3.571-0.6015-3.7751c0,0-1.1788-0.662-1.0661-0.8812
											l-3.6527,1.8268c0.1519,0.8398,0.3452,1.7554,0.499,2.9121c0.1079,0.8098,1.5985,2.0999,3.2481,3.3242H35.6756z" class="colorfcc977 svgShape"></path><path fill="#f54ed7" d="M27.927,68.6415c-1.3779,0.7125-2.3843,2.4239-2.1592,4.7167
											c0.073,0.7517,0.6382,2.8545,1.1412,4.3835c0.9419,0.0692,4.2622,0.2712,4.9845-0.8948
											c0.1152-1.831-0.0637-4.2073-0.1464-5.0596C31.523,69.4922,29.3029,67.9259,27.927,68.6415z" class="colorf54e5f svgShape"></path><path fill="#fa5cdd" d="M41.1022,79.2219c0.9788-0.9369,2.0813-3.5526-0.2735-4.5352
											c-2.0696-0.8647-0.8929-3.7014-2.5078-4.2605c-1.6147-0.5591-3.326-1.692-3.326-1.692s-2.4934,1.0867-4.7288-0.5277
											c0,0-3.5263-0.4014-3.5263,2.5154c0,0,0.0082,2.5567,0.3079,3.7967c0.8769,3.6297,0.9558,7.3459,0.4501,11.0453
											c-0.237,1.7333-0.4871,3.2548-0.7013,3.8891c0,0,11.6727,6.6826,12.6366,2.3931c0,0,0.3215-1.5451,0.0941-3.5963
											c-0.1734-1.5363-0.4661-4.5533-0.1139-6.0164C39.6156,81.3939,40.7244,79.5835,41.1022,79.2219z" class="colorfa5c7c svgShape"></path><g fill="#010001" class="color000000 svgShape"><path fill="#94c9ff" d="M37.3556,59.0603c0,0-4.3101,1.0081-4.3429,1.0985c-0.0328,0.0909-3.7287,7.0408,0.175,7.7664
											c1.4071,0.2609,2.9146,1.5505,3.6321,0.4938c1.2731-1.8748,1.3895-5.4372,1.4467-6.3559
											C38.3558,60.6261,37.3556,59.0603,37.3556,59.0603z" class="colorffdd94 svgShape"></path><path fill="#f4f6f8" d="M36.7669,62.5507c0.7038-0.4608,1.723-1.0966,1.7944-2.3892
											c0.1244-2.2501-6.1702-3.6037-8.3383-1.5166c0,0-1.7913,0.876-1.3213,5.3183c0,0,0.0387,0.705-0.0066,1.5869
											c-0.1262,2.4545,1.874,4.796,4.3267,4.6408c1.0352-0.0658,2.1471-0.0904,3.8636-0.282
											c-1.7749-1.2715-2.9403-3.8115-2.6451-5.1458c0.115-0.5208,0.4145-0.9801,0.8299-1.298
											c0.0914-0.0703,0.2212-0.0334,0.2597,0.0757c0.1051,0.2963,0.1887,0.764,0.2224,1.6252l0.4863-0.4677
											c0,0-0.0087-0.6569,0.0855-1.4287C36.3598,62.9762,36.5197,62.7128,36.7669,62.5507z" class="color454859 svgShape"></path><path fill="#443a4c" d="M33.5446,69.8112c-2.2785-0.3749-4.1838-2.0546-4.0652-4.3607
												c0.0426-0.8283,0.0062-1.4906,0.0062-1.4906c-0.4415-4.1741,1.2415-4.997,1.2415-4.997
												c1.9938-1.9195,7.687-0.7394,7.8186,1.2941c0.0032-0.0334,0.0137-0.0614,0.0156-0.0953
												c0.1244-2.2501-6.1702-3.6037-8.3383-1.5166c0,0-1.7913,0.876-1.3213,5.3183c0,0,0.0387,0.705-0.0066,1.5869
												c-0.1262,2.4545,1.874,4.796,4.3267,4.6408c0.8958-0.057,1.874-0.0894,3.2269-0.2196
												C35.2459,70.0692,34.6027,69.9852,33.5446,69.8112z" class="color3a3d4c svgShape"></path></g></g><g fill="#010001" class="color000000 svgShape"><path fill="#86c1fc" d="M54.1592,79.5427c-0.0172-0.0201-0.0345-0.0398-0.0529-0.0506
											c-0.206-0.1729-0.3206-0.1425-0.5522-0.0634c-0.2429,0.0879-1.8121,0.4859-1.8955,0.5085
											c-0.0099-0.001-0.0298-0.002-0.0484-0.0123c-0.0085-0.0103-0.0146-0.0388,0.0629-0.0899
											c0.1337-0.0953,2.2227-0.9109,2.33-0.9605c0,0,0.0529-0.0904-0.0174-0.1607c-0.0458-0.031-0.1411-0.0653-0.3026-0.057
											c-0.472,0.0079-2.3964,0.7212-2.5023,0.761c0,0-0.0483-0.0123-0.0755-0.0329c-0.0272-0.0201-0.0319-0.058,0.0542-0.0992
											c0.1648-0.1027,1.807-0.9472,1.8223-0.9836c0.0026-0.0187-0.0066-0.0943-0.0795-0.1459
											c-0.0629-0.0506-0.1682-0.086-0.335-0.0403c-0.3547,0.0997-1.3573,0.4584-2.1765,0.8662
											c-0.485,0.2417-0.6452,0.2412-0.6995,0.2c-0.0358-0.03-0.0093-0.0757-0.0093-0.0757
											c0.0026-0.0187,0.1764-0.3267,0.2565-0.397c0.0476-0.0536,0.1564-0.4692-0.1309-0.704
											c-0.0716-0.0604-0.1643-0.1135-0.2907-0.1405c-0.0014,0.0098-0.0721,0.1553-0.1182,0.34
											c-0.0349,0.1764-0.5377,0.6141-0.5602,0.6313c-0.0112,0.0088-0.3321,0.2231-0.4384,0.6205
											c-0.0462,0.1852-0.1778,0.3365-0.365,0.4559c-0.2687,0.058-0.5784,0.1228-0.7201,0.1327l-4.247,0.2741
											c-0.9941,0.0865-1.4787-0.6682-1.7806-1.5795c-0.0703-0.2191-0.135-0.4594-0.1984-0.706
											c-1.4593,0.622-2.9632,1.5299-4.4978,1.8817c0.6826,1.0479,1.4456,2.1696,1.9696,2.9438
											c0.4136,0.618,1.1229,0.9173,1.9132,0.8549l7.5333-2.0462c0,0,0.0113-0.0088,0.0212-0.0084
											c0.2092-0.0619,1.5149-0.4387,1.9379-0.3837c0.4529,0.057,1.8328-0.2776,1.8937-0.2835
											c0.0522-0.0147,1.9617-0.4097,1.9874-0.5213c0.0066-0.0462-0.0066-0.0943-0.051-0.1351
											c-0.053-0.0501-0.1497-0.0747-0.2815-0.0644c-0.2336,0.0226-1.6851,0.2962-1.7348,0.2933
											c-0.0198-0.001-0.0384-0.0118-0.057-0.0226c-0.0357-0.0305-0.0291-0.0766,0.0992-0.1341
											C52.0158,80.3169,54.407,79.7746,54.1592,79.5427z" class="colorfcd286 svgShape"></path><path fill="#f54ed7" d="M40.7003,73.2983c-0.614-2.2762-3.1334-3.5147-4.4105-2.5842
											c-1.28,0.9271-2.0141,2.8033-1.3996,5.0766c0.2008,0.7458,1.2207,3.9648,1.9892,5.4273
											c2.643-0.0427,4.7956-2.089,4.8097-2.0836C41.4978,77.2739,40.9277,74.1433,40.7003,73.2983z" class="colorf54e5f svgShape"></path></g></g><g fill="#010001" class="color000000 svgShape"><path fill="#5c5066" d="M3.8863,67.2707c-1.5444-4.5623,0.3688-7.5917,0.79-8.3636l7.7222,2.4563
								c0,0,0.643,6.9037-1.9032,15.5874c-0.3204,1.0926-0.5002,2.213-0.5846,3.3483c-0.2429,3.2631-0.6854,9.6421-0.5558,11.1768
								c-0.6485,1.0997-1.8871,1.2475-3.4076,0.9416c0,0-1.6906-7.5543-0.9974-12.8465c0.2252-1.72,0.3423-3.4464,0.2181-5.176
								C5.0171,72.2944,4.6709,69.5896,3.8863,67.2707z" class="color505366 svgShape"></path><path fill="#6822a2" d="M8.736,69.6316c-1.806-4.2802-0.5957-8.6205-0.1746-9.3917l9.0481,3.8975
								c0,0,0.643,6.9037-1.9033,15.5887c-0.3202,1.092-0.5,2.2124-0.5845,3.3476c-0.2429,3.2631-0.6855,9.6421-0.5558,11.1762
								c-0.6486,1.0997-1.8872,1.2482-3.4076,0.9423c0,0-1.6507-7.3755-1.0212-12.6574c0.2238-1.8781,0.3543-3.7646,0.1836-5.6484
								C10.1198,74.6701,9.6826,71.8749,8.736,69.6316z" class="color5b5d70 svgShape"></path><path fill="#94c9ff" d="M7.2568,38.3426c1.2325-1.4231,1.1473-3.3067,1.1473-3.3067l1.362-3.6473
								c0,0,6.2489-3.3013,7.3399-2.6844c1.1579,0.6548-0.3825,6.0719-0.3825,6.0719c-0.1161,1.2516-0.6616,1.6821-0.6616,1.6821
								l-2.6998,1.2307l-0.7535,2.0569C12.6085,39.7458,6.0243,39.7657,7.2568,38.3426z" class="colorffdd94 svgShape"></path><path fill="#f4f6f8" d="M11.5728,26.9066c0.5829,0.0524,3.1604-0.3262,7.102,1.9721c0.3474,0.2023,0.238,0.746,0.0572,1.0468
								c-1.258,2.0901-2.6758,2.7024-2.6758,2.7024s-0.2802,1.2687-0.4399,2.4913l-0.8996-0.3277
								c0.0047-0.1176,0.0088-0.2351,0.0171-0.3424c0.0831-1.0918-0.1612-1.4969-1.1395-1.7526
								c-0.9786-0.2552-0.5694,2.4663-0.5694,2.4663s-0.1365,0.5814-2.8066,1.013c-2.6698,0.4315-1.9817-2.8822-2.4067-5.8917
								C7.3867,27.274,9.902,26.7572,11.5728,26.9066z" class="color454859 svgShape"></path><path fill="#96b6d6" d="M3.5239,43.1523c-1.4546-8.1258,4.7351-6.8317,4.7351-6.8317
							c0.2006,1.7658,3.0196,2.3776,4.9154,1.876l3.6012,2.7112c0.2723,0.2048,0.5134,0.4453,0.7017,0.7294
							c0.2911,0.4394,0.5013,1.1682,0.6526,1.9627c0.3274,1.7193,0.3311,3.4802,0.1469,5.2206
							c-0.408,3.855-0.4532,13.1921-0.6684,15.318c0,0-13.1214,0.4815-12.9309-5.2265c0.0502-1.4646,0.0301-0.7323,0.0301-2.2072
							C4.6876,53.716,4.7077,49.8233,3.5239,43.1523z" class="color96d696 svgShape"></path><path fill="#9766bf" d="M7.9881,36.3108l0.4112-1.0031c0.923,2.6181,5.3269,2.217,5.3269,2.217l-0.1647,0.7902
					c-0.0416,0.1997-0.2016,0.3549-0.4026,0.3894c-3.2725,0.5626-4.7923-1.1855-5.1707-1.9623
					C7.9279,36.6013,7.9279,36.4509,7.9881,36.3108z" class="color66bf66 svgShape"></path><g fill="#010001" class="color000000 svgShape"><path fill="#94c9ff" d="M27.666,50.8118c0.179-0.3921,0.3042-0.5827,0.5365-0.8141c0.2325-0.2319,0.5275-0.5984,0.6219-0.7993
					c0.0943-0.2014,0.0699-0.4073,0.1866-0.4343c0.5133-0.1218,0.2647,0.7939,0.1651,0.9924
					c-0.0994,0.198-0.2571,0.3508-0.3058,0.5232c-0.0486,0.172,0.3401,0.0128,0.6728-0.2265
					c0.3328-0.2393,1.6107-0.9914,1.9466-1.13c0.336-0.1395,0.4922-0.059,0.3101,0.2034c-0.1819,0.2614-1.4208,1.0676-1.6695,1.241
					c-0.2487,0.1729-0.0937,0.2127-0.0553,0.1916c0.5452-0.3105,1.7641-0.8966,2.2224-1.0352
					c0.4583-0.1381,0.3536,0.1803,0.2812,0.2285c-0.4907,0.3262-1.7961,1.0509-2.1088,1.2641
					c-0.3126,0.2127-0.1371,0.1808-0.1101,0.1734c0.4365-0.1223,1.3331-0.5616,1.6836-0.6883
					c0.3505-0.1272,0.4337-0.2471,0.4913,0.1376c0.0578,0.3847-1.8754,1.0332-2.0941,1.1187
					c-0.2186,0.085-0.2977,0.2103-0.0886,0.2009c0.2089-0.0088,1.2358-0.3896,1.4537-0.4078
					c0.2179-0.0177,0.4486-0.0236,0.2143,0.2471c-0.2343,0.2712-1.2804,0.5453-1.7592,0.7173
					c-0.4788,0.1715-1.1705,0.4392-1.6744,0.4574c-0.5039,0.0182-0.9664,0.1729-1.3713,0.4309
					c-0.2481-0.4446-0.4958-0.8843-0.7436-1.3363C26.8894,51.7998,27.4872,51.2029,27.666,50.8118z" class="colorffdd94 svgShape"></path><path fill="#9766bf" d="M14.5249,42.8639c0.4056-0.4834,0.8927-2.4177,2.8815-1.2862
					c1.9889,1.1319,0.7971,9.9087,1.8808,10.3562c2.2117,0.9138,4.8969,0.1041,7.657-0.4324
					c0.7998,0.2388,0.732,1.1233,0.9384,1.6234c-3.2936,2.8638-10.6057,2.6936-10.6057,2.6936
					c-2.2084-0.4387-2.7522-6.5693-2.9768-9.1742C14.2822,46.4376,13.8094,43.7173,14.5249,42.8639z" class="color66bf66 svgShape"></path></g></g></svg>