<svg xmlns="http://www.w3.org/2000/svg" enable-background="new 0 0 50 50" viewBox="0 0 50 50" id="startup"><g fill="#010001" class="color000000 svgShape"><path fill="#f4f6f8" d="M16.7558 27.06445l.6018-.3499c.0903-1.1669.4396-1.787.912-2.0614l-.6017.3495C17.1955 25.27705 16.8461 25.89755 16.7558 27.06445zM18.0934 20.95305l-.6017 1.1115c1.5738-.9147 3.5738-1.7411 4.0044-1.4921.0546.0313.0826.049.0841.0497l-.0133 6.5503.6018-.3499.0132-6.5499c-.0015-.001-.0294-.0184-.0841-.05C21.6672 19.97395 19.6673 20.03875 18.0934 20.95305z" class="colorf491ab svgShape"></path><g fill="#010001" class="color000000 svgShape"><path fill="#a50b89" d="M21.4961,19.82795c0.0546,0.0315,0.0826,0.049,0.0841,0.0499l-0.0133,6.5502
					c-0.0307-0.0276-0.6143-0.5524-1.4053-1.0091c-1.3378-0.7724-3.1802-1.2699-3.4058,1.6454l-1.2446-0.7186
					C15.8075,18.70105,20.7859,19.41765,21.4961,19.82795z" class="colored5e72 svgShape"></path></g></g><g fill="#010001" class="color000000 svgShape"><path fill="#f4f6f8" d="M33.2442 27.06445l-.6017-.3499c-.0903-1.1669-.4397-1.787-.9121-2.0614l.6017.3495C32.8045 25.27705 33.1539 25.89755 33.2442 27.06445zM31.9066 20.95305l.6018 1.1115c-1.5739-.9147-3.5738-1.7411-4.00439-1.4921-.0547.0313-.08271.049-.08411.0497l.0132 6.5503-.6017-.3499-.0133-6.5499c.0015-.001.0295-.0184.0841-.05C28.3328 19.97395 30.3328 20.03875 31.9066 20.95305z" class="colorf491ab svgShape"></path><g fill="#010001" class="color000000 svgShape"><path fill="#a50b89" d="M28.50401,19.82795c-0.0547,0.0315-0.08271,0.049-0.08411,0.0499l0.0132,6.5502
					c0.0307-0.0276,0.6144-0.5524,1.4054-1.0091c1.3378-0.7724,3.1802-1.2699,3.4057,1.6454l1.2447-0.7186
					C34.1926,18.70105,29.2141,19.41765,28.50401,19.82795z" class="colored5e72 svgShape"></path></g></g><path fill="#d4dee9" d="M37.1143,43.13375c0-0.636-0.4821-1.1694-1.1694-1.4153c0-1.5787-1.9818-2.0698-3.2004-1.4056
							c-0.3179-0.8202-1.3129-1.4259-2.4926-1.4259c-0.0565,0-0.1122,0.0014-0.1671,0.004c-0.4134,0.019-0.8002-0.2073-0.9778-0.581
							c-1.7858-3.7571-2.3119-11.0137-2.3119-11.0137h-2.9645c0,0-0.5399,7.4425-2.3785,11.1585
							c-0.3403,0.688-1.087,0.5349-1.4578,0.5349c-1.2001,0-2.2362,0.5747-2.667,1.3745c-0.2564-0.0717-0.5231-0.1129-0.8001-0.1129
							c-1.2001,0-2.1849,0.7178-2.2772,1.631c-0.7693,0.1025-1.3643,0.6155-1.3643,1.2515c0,0.5539,0.4719,1.0258,1.1284,1.2003
							c-0.0923,0.1537-0.1436,0.3279-0.1436,0.5027c0,0.6973,0.7385,1.2716,1.6515,1.2716c0.66669,0,1.2412-0.3074,1.49759-0.7387
							c0.2051,0.8003,1.1283,1.4055,2.2362,1.4055c0.4205,0,0.8103-0.082,1.1488-0.2358c0.1231,0.8819,1.0873,1.559,2.2669,1.559
							c0.1642,0,0.3283-0.0101,0.4924-0.0411c0.3796,0.5645,1.1386,0.9437,2.0207,0.9437c0.7181,0,1.3541-0.2565,1.7747-0.6561
							h0.0615c0.88221,0,1.6515-0.3798,2.031-0.9435c0.4308,0.1946,0.9334,0.3075,1.4771,0.3075
							c1.3643,0,2.5029-0.7183,2.8106-1.6825c0.2667,0.082,0.5539,0.1232,0.8514,0.1232c1.2617,0,2.2874-0.79,2.2874-1.7539
							c0-0.0412,0-0.0823-0.0102-0.1232C36.8681,43.98535,37.1143,43.57455,37.1143,43.13375z" class="colord4dbe9 svgShape"></path><path fill="#b4c5d7" d="M36.4681,43.44775c0.0102,0.0409,0.0102,0.0819,0.0102,0.1235c0,0.9637-1.0257,1.7535-2.2874,1.7535
								c-0.2975,0-0.5847-0.041-0.8514-0.123c-0.3077,0.9643-1.4463,1.6827-2.8106,1.6827c-0.5437,0-1.0463-0.113-1.4771-0.3074
								c-0.3795,0.5633-1.1489,0.9432-2.031,0.9432h-0.0615c-0.4206,0.3999-1.0566,0.6563-1.7747,0.6563
								c-0.8821,0-1.6411-0.3793-2.0207-0.9437c-0.1641,0.031-0.3282,0.0409-0.4923,0.0409c-1.1797,0-2.1439-0.6774-2.267-1.5591
								c-0.3385,0.154-0.7283,0.236-1.1488,0.236c-1.1079,0-2.0311-0.6054-2.2362-1.4058
								c-0.2564,0.4315-0.8309,0.7389-1.4977,0.7389c-0.7194,0-1.3242-0.3589-1.551-0.8513
								c-0.06,0.1288-0.1004,0.2652-0.1004,0.4046c0,0.6967,0.7385,1.2716,1.6514,1.2716c0.6668,0,1.2413-0.3079,1.4977-0.7388
								c0.2051,0.8003,1.1283,1.4051,2.2362,1.4051c0.4205,0,0.8103-0.082,1.1488-0.2353c0.1231,0.8817,1.0873,1.5585,2.267,1.5585
								c0.1641,0,0.3282-0.01,0.4923-0.041c0.3796,0.5644,1.1386,0.9438,2.0207,0.9438c0.7181,0,1.3541-0.2564,1.7747-0.6563h0.0615
								c0.8821,0,1.6515-0.3794,2.031-0.9432c0.4308,0.1944,0.9334,0.3074,1.4771,0.3074c1.3643,0,2.5029-0.7184,2.8106-1.6827
								c0.2667,0.0825,0.5539,0.1235,0.8514,0.1235c1.2617,0,2.2874-0.7904,2.2874-1.7541c0-0.0409,0-0.0819-0.0102-0.1229
								c0.4-0.2875,0.6462-0.6979,0.6462-1.1388c0-0.1469-0.0315-0.2857-0.0793-0.4192
								C36.9346,42.99625,36.7411,43.25215,36.4681,43.44775z" class="colorb4bed7 svgShape"></path><path fill="#e3e9f0" d="M14.2501,43.30585c0.0922-0.9137,1.077-1.6313,2.2771-1.6313c0.277,0,0.5437,0.0411,0.8002,0.1128
								c0.4508-0.8372,1.6208-1.492,3.0392-1.3568c0.4463,0.0432,0.8867-0.1507,1.0855-0.5521
								c1.8386-3.7162,2.3785-11.159,2.3785-11.159h2.9645c0,0,0.5261,7.2568,2.3119,11.0141
								c0.1776,0.3735,0.5644,0.5996,0.9778,0.5806c0.055-0.0026,0.1106-0.0037,0.1671-0.0037c1.1797,0,2.1747,0.6054,2.4926,1.4258
								c1.2141-0.6613,3.2004-0.1828,3.2004,1.4057c0.4066,0.1454,0.725,0.3989,0.9307,0.7076
								c0.1479-0.2176,0.2387-0.46,0.2387-0.716c0-0.636-0.4821-1.1692-1.1694-1.4152c0-1.5787-1.9835-2.0699-3.2004-1.4053
								c-0.3179-0.8203-1.3129-1.4262-2.4926-1.4262c-0.0565,0-0.1121,0.0015-0.1671,0.0042
								c-0.4134,0.0189-0.8002-0.2076-0.9778-0.5812c-1.7858-3.7572-2.3119-11.0135-2.3119-11.0135h-2.9645
								c0,0-0.5399,7.4423-2.3785,11.1584c-0.3409,0.6896-1.0928,0.5348-1.4578,0.5348c-1.2002,0-2.2361,0.5748-2.6669,1.3747
								c-0.2565-0.0717-0.5232-0.1128-0.8002-0.1128c-1.2001,0-2.1849,0.7176-2.2771,1.6307
								c-0.7694,0.1028-1.3643,0.6154-1.3643,1.2514c0,0.2676,0.1141,0.5132,0.3013,0.7181
								C13.434,43.57245,13.8039,43.36535,14.2501,43.30585z" class="colore3e6f0 svgShape"></path><g fill="#010001" class="color000000 svgShape"><path fill="#e3e9f0" d="M31.0298,21.82495c0,3.0595-1.0322,5.755-2.6065,7.3664c-0.1782,0.1856-0.3936,0.364-0.6609,0.5127
							c-0.7648,0.4452-1.7673,0.6682-2.76239,0.6682c-0.99511,0-1.99751-0.223-2.76241-0.6682
							c-0.2673-0.1487-0.4827-0.3271-0.6609-0.5127c-1.5743-1.6114-2.6065-4.3069-2.6065-7.3664
							c0-3.3787,0.37881-12.3155,3.1337-17.4171c0.1485,0.223,0.3862,0.4307,0.6906,0.6091
							c0.6164,0.3488,1.411,0.5272,2.20551,0.5272c0.79459,0,1.58919-0.1784,2.20549-0.5272
							c0.3045-0.1784,0.5421-0.3861,0.6906-0.6091C30.6511,9.50945,31.0298,18.44625,31.0298,21.82495z" class="colore3e6f0 svgShape"></path><path fill="#d4dee9" d="M27.8961,4.40775c-0.1485,0.2233-0.3861,0.4306-0.6906,0.6094
							c-0.13149,0.0743,2.461,8.3837,1.8736,16.3306c-0.3713,5.0239-2.3979,6.2321-3.9722,7.8436
							c-0.1782,0.1858,1.4174,0.3641,1.15011,0.5127c-0.57131,0.3325-1.27541,0.5407-2.00971,0.6246
							c0.2488,0.0289,0.5009,0.0436,0.75271,0.0436c0.99509,0,1.99759-0.2229,2.76239-0.6682
							c0.2673-0.1486,0.4827-0.3269,0.6609-0.5127c1.5743-1.6115,2.6065-4.3071,2.6065-7.3663
							C31.0298,18.44615,30.6511,9.50955,27.8961,4.40775z" class="colord4dbe9 svgShape"></path><path fill="#62affc" d="M22.9094,28.43055c-1.7349,4.6676,0.5284,7.0724,2.1975,9.2925
								c1.66911-2.2224,3.9327-4.6254,2.1976-9.2925C25.9127,29.37255,24.3012,29.37255,22.9094,28.43055z" class="colorfcba62 svgShape"></path><path fill="#94c9ff" d="M26.57701,28.82955c0.76239,3.278-0.5848,4.4548-1.47011,5.9713
								c-0.8852-1.5147-2.2323-2.6905-1.47-5.9713C24.5959,29.23905,25.61801,29.23905,26.57701,28.82955z" class="colorffdd94 svgShape"></path><path fill="#6822a2" d="M25.00001 28.43095c-1.49581 0-3.00281-.3354-4.15261-1.005-.3439-.1912-.6212-.4179-.8647-.6534.4252.9476.9632 1.7733 1.594 2.4187.1782.1855.3936.364.6609.5126.7649.4456 1.7673.6683 2.76241.6683.99509 0 1.99759-.2227 2.76239-.6683.2673-.1486.4828-.3271.6609-.5126.6308-.6454 1.1688-1.4711 1.594-2.4187-.2435.2355-.5208.4622-.8647.6534C28.0028 28.09555 26.4958 28.43095 25.00001 28.43095zM26.2708 1.62885c-.3015-.3958-.76579-.6298-1.2633-.6298-.4975 0-.9618.234-1.2633.6298-.6514.8545-1.4007 2.0582-1.6394 2.78.1486.2224.3857.4301.6897.6081.6164.3487 1.411.5272 2.20551.5272.79459 0 1.58919-.1785 2.20549-.5272.3045-.1785.5421-.3861.6906-.609.003.0055.0057.0116.0087.0171.0022-.0028.0048-.0097.007-.012C27.6744 3.69165 26.9235 2.48525 26.2708 1.62885z" class="color4d5772 svgShape"></path></g><g fill="#010001" class="color000000 svgShape"><g fill="#010001" class="color000000 svgShape"><path fill="#f4f6f8" d="M20.4318,9.87795c-0.2199,0.9218,0.1591,2.1969,0.8521,2.8562
								c0.3499,0.3309,0.7095,0.4383,1.0154,0.3441l0.5486-0.1669c-0.299,0.0955-0.6655-0.0136-1.0154-0.3441
								c-0.693-0.6597-1.0719-1.9348-0.8452-2.8546c0.1099-0.4607,0.3452-0.7464,0.6496-0.8338l-0.5556,0.1656
								C20.784,9.13315,20.5418,9.41725,20.4318,9.87795z" class="colorffffff svgShape"></path><path fill="#5046e4" d="M22.5476,9.22455c0.6927,0.6556,1.0753,1.9405,0.85241,2.8632
								c-0.22291,0.9227-0.96731,1.1351-1.66,0.4795c-0.69281-0.6555-1.07281-1.932-0.84991-2.8547
								C21.113,8.78995,21.8548,8.56895,22.5476,9.22455z" class="color678cc8 svgShape"></path><path fill="#b4c5d7" d="M22.2005,8.93435c0.882,0.8347,1.3673,2.4649,1.0835,3.6395c-0.2827,1.17-1.2283,1.4456-2.1104,0.611
								c-0.8783-0.8312-1.3635-2.461-1.0809-3.631C20.3765,8.37925,21.3222,8.10325,22.2005,8.93435z M21.2833,12.73095
								c0.69271,0.6556,1.4371,0.4431,1.66-0.4795c0.2229-0.9227-0.1597-2.2077-0.8524-2.8632
								c-0.6928-0.6556-1.4346-0.4347-1.6575,0.488C20.2105,10.79895,20.5905,12.07535,21.2833,12.73095" class="colorb4bed7 svgShape"></path><path fill="#f4f6f8" d="M20.9143,8.49565c0.1094-0.0321,0.2138-0.0434,0.3288-0.0377l0.00691,0.0017
								c0.15779,0.0085,0.335,0.0579,0.50219,0.1489c0.1483,0.079,0.297,0.1869,0.4459,0.3243
								c0.2616,0.2441,0.4792,0.5505,0.6648,0.9c0.0438,0.0903,0.0877,0.1806,0.1246,0.2697
								c0.1511,0.3412,0.2544,0.7002,0.3201,1.0648c0.0131,0.0975,0.0261,0.1953,0.0375,0.2996
								c0.0189,0.1646,0.024,0.3258,0.0155,0.4835c-0.0011,0.2177-0.0281,0.4221-0.07559,0.6215
								c-0.04761,0.1995-0.11781,0.3719-0.1951,0.5132c-0.0623,0.1087-0.1282,0.2019-0.2046,0.2784
								c-0.0406,0.0486-0.0934,0.0867-0.1376,0.1198c-0.0885,0.0662-0.1874,0.1154-0.2883,0.1421l0.5556-0.1656
								c0.1008-0.0267,0.19289-0.0775,0.28139-0.1437c0.0511-0.0315,0.0969-0.0713,0.1445-0.1182
								c0.0694-0.0778,0.1421-0.1694,0.1975-0.2797c0.0843-0.14,0.14761-0.314,0.1952-0.5135
								c0.0459-0.1924,0.0745-0.4035,0.0825-0.6199c0.0017-0.1593-0.0034-0.3206-0.0224-0.4848
								c-0.0045-0.103-0.0176-0.2005-0.0375-0.2997c-0.0587-0.3632-0.1689-0.7238-0.31319-1.0635
								c-0.0438-0.0903-0.08771-0.1806-0.1315-0.2712c-0.1786-0.3479-0.4031-0.6559-0.6578-0.8984
								c-0.149-0.137-0.2976-0.2453-0.4459-0.3243c-0.1742-0.0923-0.3445-0.1404-0.5092-0.1506
								c-0.1149-0.0057-0.2263,0.0043-0.3289,0.038C21.3057,8.37815,21.0869,8.44235,20.9143,8.49565z" class="colorffffff svgShape"></path></g><g fill="#010001" class="color000000 svgShape"><path fill="#f4f6f8" d="M20.3316,15.32315c-0.1674,0.7016,0.1211,1.6722,0.6486,2.1741
								c0.2663,0.2519,0.54,0.3337,0.7729,0.262l0.4176-0.1271c-0.2276,0.0727-0.5065-0.0103-0.7729-0.2619
								c-0.5275-0.5022-0.816-1.4728-0.6434-2.1729c0.0837-0.3507,0.2628-0.5681,0.4945-0.6347l-0.4229,0.126
								C20.5996,14.75625,20.4153,14.97245,20.3316,15.32315z" class="colorffffff svgShape"></path><path fill="#5046e4" d="M21.9421,14.82575c0.5273,0.499,0.8185,1.4771,0.6489,2.1795
								c-0.1697,0.7023-0.73631,0.864-1.26361,0.365c-0.5274-0.499-0.8166-1.4706-0.6469-2.173
								C20.8502,14.49495,21.4148,14.32675,21.9421,14.82575z" class="color678cc8 svgShape"></path><path fill="#b4c5d7" d="M21.6779,14.60495c0.6714,0.6353,1.0408,1.8762,0.8248,2.7703
								c-0.2152,0.8906-0.935,1.1004-1.6064,0.465c-0.6686-0.6326-1.038-1.8732-0.8228-2.7638
								C20.2895,14.18235,21.0094,13.97225,21.6779,14.60495z M20.9797,17.49485c0.52731,0.499,1.0939,0.3373,1.2636-0.365
								c0.1697-0.7024-0.1215-1.6805-0.6488-2.1795c-0.5274-0.499-1.092-0.3308-1.2617,0.3715
								C20.1631,16.02415,20.4524,16.99585,20.9797,17.49485" class="colorb4bed7 svgShape"></path><path fill="#f4f6f8" d="M20.6989,14.27095c0.0833-0.0244,0.1627-0.033,0.2502-0.0286l0.0053,0.0012
								c0.1201,0.0065,0.255,0.0441,0.3823,0.1134c0.1129,0.0601,0.2261,0.1422,0.3394,0.2468
								c0.1991,0.1858,0.3648,0.419,0.506,0.6851c0.0334,0.0687,0.0668,0.1375,0.0949,0.2052
								c0.115,0.2598,0.1936,0.5331,0.2436,0.8105c0.01,0.0743,0.0199,0.1488,0.0286,0.2281
								c0.0143,0.1253,0.0182,0.2481,0.0118,0.3681c-0.0008,0.1657-0.0214,0.3212-0.0576,0.4731
								c-0.0362,0.1518-0.0897,0.2831-0.1485,0.3906c-0.0474,0.0827-0.0975,0.1537-0.1557,0.2119
								c-0.0309,0.037-0.0711,0.066-0.1048,0.0912c-0.0673,0.0504-0.1426,0.0878-0.21939,0.1082l0.42289-0.1261
								c0.0767-0.0203,0.1468-0.059,0.2142-0.1094c0.0389-0.0239,0.0738-0.0542,0.11-0.0899
								c0.0528-0.0593,0.1082-0.129,0.1504-0.213c0.0641-0.1065,0.1123-0.239,0.1485-0.3908
								c0.035-0.1465,0.05669-0.3072,0.0628-0.4719c0.0013-0.1212-0.0026-0.244-0.017-0.369
								c-0.0035-0.0784-0.0134-0.1526-0.0286-0.2281c-0.0447-0.2765-0.1286-0.551-0.2384-0.8095
								c-0.0334-0.0688-0.0668-0.1375-0.1001-0.2065c-0.136-0.2648-0.3068-0.4993-0.5007-0.6838
								c-0.11341-0.1044-0.22651-0.1867-0.33941-0.2469c-0.1326-0.0703-0.2622-0.1068-0.38759-0.1146
								c-0.08751-0.0044-0.17231,0.0032-0.25031,0.0289C20.9968,14.18155,20.8302,14.23045,20.6989,14.27095z" class="colorffffff svgShape"></path></g></g><g fill="#010001" class="color000000 svgShape"><path fill="#a50b89" d="M27.9436,21.34205c0.7112,0.4106,5.6915,5.4438,5.9435,13.4048l-1.2446-0.7186
						c-0.2084-3.1662-2.0493-4.7949-3.3884-5.5681c-0.7917-0.457-1.3771-0.6072-1.4079-0.6151l0.0132-6.5502
						C27.8609,21.29565,27.8888,21.31045,27.9436,21.34205z" class="colored5e72 svgShape"></path><path fill="#f4f6f8" d="M28.5453,20.99245c-0.0548-0.0316-0.0827-0.0466-0.0842-0.0473l-0.6017,0.3495
					c0.0015,0.0011,0.0294,0.0157,0.0842,0.0473c0.7112,0.4106,5.6915,5.4441,5.9435,13.4048l0.6018-0.3495
					C34.2368,26.43625,29.2566,21.40305,28.5453,20.99245z" class="colorf491ab svgShape"></path><g fill="#010001" class="color000000 svgShape"><path fill="#a50b89" d="M22.0565,21.34205c-0.7113,0.4106-5.6916,5.4438-5.9436,13.4048l1.2447-0.7186
						c0.2083-3.1662,2.0493-4.7949,3.3884-5.5681c0.7916-0.457,1.3771-0.6072,1.4079-0.6151l-0.0132-6.5502
						C22.1392,21.29565,22.1113,21.31045,22.0565,21.34205z" class="colored5e72 svgShape"></path><path fill="#f4f6f8" d="M21.4547,20.99245c0.0548-0.0316,0.0827-0.0466,0.0842-0.0473l0.6018,0.3495
					c-0.0015,0.0011-0.0294,0.0157-0.0842,0.0473c-0.7113,0.4106-5.6916,5.4441-5.9436,13.4048l-0.6017-0.3495
					C15.7632,26.43625,20.7435,21.40305,21.4547,20.99245z" class="colorf491ab svgShape"></path></g></g></svg>