<svg xmlns="http://www.w3.org/2000/svg" enable-background="new 0 0 55 55" viewBox="0 0 55 55" id="PointOfSale"><g fill="#010001" class="color000000 svgShape"><path fill="#f4f6f8" d="M25.2991962,22.9189777c-0.0066071-0.0105476-0.0131321-0.0211487-0.0195751-0.0318012
								c-5.4573574,3.1714382-10.9143381,6.3427544-16.3716965,9.5141907
								c0.0064421,0.0106544,0.0129681,0.0212555,0.0195751,0.0318031
								C13.8390102,29.5789146,20.3876877,25.7732372,25.2991962,22.9189777z" class="color434240 svgShape"></path><path fill="#f4f6f8" d="M24.9846687,22.0725803c-5.4573555,3.1714382-10.9143372,6.3427563-16.3716965,9.5141926
								c0.0325708,0.2714272,0.1396332,0.5577965,0.2949514,0.8145943
								c5.4573584-3.1714363,10.9143391-6.3427525,16.3716984-9.5141888
								C25.1243038,22.6303768,25.0172405,22.3440094,24.9846687,22.0725803z" class="color434240 svgShape"></path><path fill="#f4f6f8" d="M24.9753075,21.9567871c-0.0004559-0.0129604-0.0007267-0.0209751-0.000864-0.0289249
								L8.6027489,31.4420547c0.0001345,0.0079479,0.0004072,0.0159607,0.0008621,0.028923
								c0.0003548,0.0089645,0.0008335,0.0179234,0.0014658,0.0287132c0.0017471,0.0288162,0.0043907,0.0578613,0.0078964,0.08708
								c5.4573584-3.1714344,10.91434-6.3427525,16.3716965-9.5141888c-0.0035076-0.0292206-0.0061493-0.0582638-0.0078964-0.08708
								C24.976141,21.9747105,24.9756622,21.9657516,24.9753075,21.9567871z" class="color434240 svgShape"></path><polygon fill="#f4f6f8" points="8.603 31.442 24.974 21.928 24.988 16.923 8.617 26.437" class="color434240 svgShape"></polygon><path fill="#f4f6f8" d="M25.006258,16.6440735c-5.4573555,3.1714382-10.9143353,6.3427544-16.3716927,9.5141926
								c-0.002655,0.0202503-0.0051823,0.0425186-0.009861,0.0912476C8.6240559,26.2570038,8.623457,26.264555,8.6216536,26.289772
								c-0.0004883,0.0073433-0.0009508,0.014782-0.0020266,0.0343208
								c-0.0005331,0.0104141-0.0010052,0.0208359-0.0016451,0.0387974
								c-0.0003223,0.0096397-0.000596,0.0194492-0.0009966,0.0394268c-0.000205,0.0116615-0.0003614,0.0233326-0.0003948,0.0351429
								l16.3716984-9.5141888c0.0000324-0.0118122,0.0001869-0.0234814,0.0003929-0.0351448
								c0.0004005-0.0199776,0.0006733-0.0297871,0.0009956-0.0394268c0.0006409-0.0179615,0.001112-0.0283813,0.001646-0.0387955
								c0.0010757-0.0195389,0.0015392-0.0269794,0.0020256-0.0343208c0.0018044-0.0252171,0.0024033-0.0327702,0.0030518-0.0402603
								C25.0010777,16.686594,25.0036068,16.6643257,25.006258,16.6440735z" class="color434240 svgShape"></path><path fill="#f4f6f8" d="M25.0068321,16.6397438c0.0000134-0.000103,0.0000267-0.000206,0.000042-0.000309
								c-5.4573574,3.1714363-10.9143381,6.3427544-16.3716965,9.5141907
								c-0.0000153,0.000103-0.0000296,0.000206-0.0000439,0.000309c-0.0001917,0.0014381-0.0003824,0.0028782-0.0005722,0.0043278
								c5.4573603-3.1714344,10.91434-6.3427505,16.3716965-9.5141869
								C25.0064487,16.642622,25.0066395,16.6411819,25.0068321,16.6397438z" class="color434240 svgShape"></path><path fill="#f4f6f8" d="M25.0094395,16.6210899c-5.4573555,3.1714382-10.9143381,6.3427563-16.3716965,9.5141926
								c-0.0008821,0.0060844-0.0017366,0.0121994-0.0025673,0.0183411
								c5.4573593-3.1714344,10.91434-6.3427525,16.3716965-9.5141888
								C25.0077038,16.6332912,25.0085583,16.6271763,25.0094395,16.6210899z" class="color434240 svgShape"></path><path fill="#f4f6f8" d="M25.165617,16.1267757c0.0403214-0.0731487,0.08325-0.1346626,0.131134-0.189292
								c-5.4573746,3.1714449-10.914362,6.3427954-16.3717384,9.5142393
								c-0.0470982,0.0537357-0.0894003,0.1141357-0.1291418,0.1857166
								c5.4378223-3.16008,10.8752651-6.3200474,16.3130875-9.4801273c-5.4378223,3.16008-9.0388241,9.4801292-16.3130875,9.4801292
								c-0.0006523,0.0011711-0.0013027,0.002346-0.0019522,0.0035248c-0.003149,0.0057907-0.0062122,0.0115318-0.0092878,0.017416
								c-0.0031872,0.0060787-0.0063248,0.0122433-0.0128489,0.0252209
								c-0.0028048,0.0056725-0.0055733,0.0113926-0.0084896,0.0175438
								c-0.0591145,0.1245499-0.1016426,0.2688866-0.1255512,0.4341335
								c5.4573584-3.1714344,10.914341-6.3427525,16.3716984-9.5141888
								c0.0239067-0.1652489,0.0664349-0.3095856,0.1255493-0.4341354c0.0029163-0.0061493,0.0056839-0.0118713,0.0084896-0.0175438
								c0.0065231-0.0129776,0.0096607-0.0191422,0.0128479-0.0252209
								C25.1594048,16.1383095,25.162468,16.1325665,25.165617,16.1267757z" class="color434240 svgShape"></path><path fill="#3f263f" d="M7.7244496,24.4953938c-1.8032269-1.0410938-3.2693701-0.2055759-3.2752476,1.867506
									c-0.0058713,2.0709953,1.4507475,4.5950146,3.2539749,5.6361084
									c0.4331622,0.2500877,0.8458085,0.3915253,1.2243228,0.4341621
									c-0.1830282-0.2921906-0.3037729-0.6258602-0.322423-0.9334793
									c-0.0006323-0.0107899-0.001111-0.0197487-0.0014658-0.0287132
									c-0.0004549-0.0129623-0.0007277-0.0209751-0.000864-0.0289249l0.0138435-5.0045929
									c0.0000334-0.0118103,0.0001898-0.0234814,0.0003948-0.0351429
									c0.0004005-0.0199776,0.0006742-0.0297871,0.0009966-0.0394268c0.0006399-0.0179615,0.001112-0.0283833,0.0016451-0.0387974
									c0.0010757-0.0195389,0.0015383-0.0269775,0.0020266-0.0343208
									c0.0018034-0.0252171,0.0024023-0.0327682,0.0030499-0.0402584
									c0.0050135-0.0522194,0.0075569-0.0740509,0.0104313-0.0955791
									c0.0233545-0.1730614,0.0668306-0.3235741,0.1281595-0.4527874
									c0.0029163-0.0061512,0.0056849-0.0118713,0.0084896-0.0175438
									c0.0065241-0.0129776,0.0096617-0.0191422,0.0128489-0.0252209c0.0030756-0.0058842,0.0061388-0.0116253,0.0092878-0.017416
									c0.0403204-0.0731487,0.0832491-0.1346626,0.131135-0.1892929
									C8.5530872,25.0673981,8.1483889,24.7401543,7.7244496,24.4953938z" class="color262e3f svgShape"></path><path fill="#f4f6f8" d="M8.9250126,25.4517231c5.4573765-3.1714439,10.9143639-6.3427944,16.3717403-9.5142393
								L8.9250574,25.4516735C8.9250412,25.4516907,8.9250269,25.4517059,8.9250126,25.4517231z" class="color434240 svgShape"></path><path fill="#6822a2" d="M5.4017677,24.2681274c0.5934644-0.345602,1.4149842-0.29603,2.3228855,0.2266216
									c0.4235029,0.2450352,0.8286095,0.5722237,1.1996889,0.957489l16.3679504-9.5125608
									c0.0014172,0,0.0028362-0.0014086,0.0042534-0.0028267c-0.3710976-0.3838482-0.776186-0.7110367-1.199688-0.9560709
									c-0.9079189-0.5240707-1.7294216-0.5722322-2.3229027-0.2266302L5.4017677,24.2681274z" class="color38425d svgShape"></path><path fill="#cccdce" d="M9.1495619,25.2666893c0.3328514-0.194046,0.7931814-0.1657162,1.2974119,0.1260624
								c0.0382462,0.0212402,0.0750732,0.0439091,0.1133194,0.0679855l22.8593121,15.4288654
								c0.9617271,0.6232185,1.7124252,1.9758835,1.7095909,3.0835114l-0.0084877,2.9149475
								c-0.0014191,0.2563667-0.0920715,0.4376717-0.2379646,0.5226517l16.3707848-9.5139694
								c0.1473122-0.08498,0.2379456-0.2662849,0.2379456-0.5240707l0.0085068-2.9135399
								c0.0042534-1.1090355-0.7464447-2.460289-1.7096062-3.0834999L26.931078,15.9467669
								c-0.0368271-0.024085-0.0750732-0.0467443-0.1119003-0.0679932
								c-0.5042477-0.2917786-0.9659958-0.3201084-1.2988472-0.1260538L9.1495619,25.2666893z" class="colorcccece svgShape"></path><path fill="#f4f6f8" d="M35.6191025,43.9745598c0.0033531-1.2769737-0.8275414-2.7798576-1.9326897-3.4958839
								L10.8344316,25.0544853c-0.0583916-0.0373325-0.1636896-0.0981178-0.1699114-0.1014671l15.1020756-8.7765598
								c0.0655708-0.03829,0.1445446-0.0574341,0.2354832-0.0574341c0.1660824,0,0.3637562,0.0636578,0.5714779,0.1837921
								l0.0904617,0.0550423l22.8519802,15.4241905c0.8308945,0.5374966,1.4976196,1.7350178,1.4937897,2.6750393
								l-0.0086136,2.9143486c0,0.0761032-0.0138817,0.1153488-0.019146,0.1239662l-15.3696251,8.9249306L35.6191025,43.9745598z" class="coloreaefef svgShape"></path><path fill="#6822a2" d="M12.4172115,25.0060692l10.7479935,7.2535591
								c0.4501972,0.3038292,1.0344887,0.3234634,1.5040703,0.0505447l11.9055538-6.9194794
								c0.4516907-0.2625198,0.473362-0.9070358,0.040329-1.1993046l-10.4631004-7.0619297
								c-0.0141773-0.0084991-0.0269203-0.0155792-0.0410824-0.0240765
								c-0.0184135-0.0113335-0.0368271-0.0198326-0.0510044-0.0283298L12.4172115,25.0060692z" class="color38425d svgShape"></path><path fill="#5046e4" d="M21.618681,30.0735168c-0.1134243,0-0.2231121-0.0335426-0.3170319-0.0969639l-7.2855549-4.9167728
								l12.0178394-6.9847012l7.5796261,5.1157475l-11.7102165,6.8059902
								C21.8168926,30.0470276,21.7185478,30.0735168,21.618681,30.0735168L21.618681,30.0735168z" class="color638dff svgShape"></path><g fill="#010001" class="color000000 svgShape"><path fill="#9c9ba5" d="M10.4476128,25.3923836c-0.6306276-0.3641644-1.1924896-0.3172359-1.5225573,0.0592899
									c-0.0478859,0.0546303-0.0908146,0.1161442-0.1284428,0.1844025
									c-0.0945492,0.1944332-0.1380739,0.3448524-0.1611013,0.515089
									c-0.0032511,0.0242825-0.0057821,0.0461502-0.008007,0.0682793l-0.0250187,5.1934052
									c0.038805,0.6778145,0.4513664,1.3649292,0.9563694,1.6564903l24.7414036,14.2844582
									c0.4512558,0.2605324,0.8186989,0.0521774,0.8201675-0.4663467l0.0082626-2.9137459
									c0.0031433-1.1087646-0.7466583-2.4607162-1.709568-3.0843086l-22.85952-15.4284687
									C10.5221109,25.4366798,10.4846554,25.4137764,10.4476128,25.3923836z" class="color9b9ea5 svgShape"></path></g></g><g fill="#010001" class="color000000 svgShape"><path fill="#6822a2" d="M6.2425508,27.78969c0.3456111-0.1997166,0.8229208-0.1713867,1.345582,0.1303062
									c0.0382457,0.0226593,0.0778918,0.0467434,0.1161375,0.0722389l23.6864891,15.9855099
									c0.9985695,0.6458778,1.7747574,2.0467033,1.7719193,3.1954041l-0.0042343,1.2563477
									c0,0.2677002-0.0949059,0.4546661-0.2464523,0.5439034l1.0977097-0.6388016
									c0.1515465-0.0878143,0.2464523-0.2761993,0.2464523-0.5424843l0.0042381-1.2563477
									c0.0028343-1.150116-0.7733498-2.5495224-1.7719231-3.1968193L8.8019819,27.3534355
									c-0.0382462-0.0254936-0.0778923-0.0495796-0.1161375-0.0708199
									c-0.5226612-0.3016949-0.9999709-0.3314419-1.3441639-0.1303062L6.2425508,27.78969z" class="color38425d svgShape"></path><path fill="#3f263f" d="M7.5878377,27.9203682c-1.0361314-0.5982323-1.8927598-0.1245594-1.8961821,1.0825901
									l-0.0096211,3.3938198c-0.0017881,0.6307602,0.4416876,1.3988914,0.9906139,1.7158127l25.6366882,14.8013496
									c0.4675293,0.269928,0.8476753,0.0532951,0.8491974-0.4839401l0.0035629-1.2563171
									c0.0032578-1.1492805-0.7726593-2.5496254-1.7717476-3.1961861L7.7044973,27.9918022
									C7.6654019,27.9664993,7.6264744,27.9426746,7.5878377,27.9203682z" class="color262e3f svgShape"></path></g><path fill="#f4f6f8" d="M37.8783073 26.6252537c.3627739.2094498.3646851.5488148.0042686.7582664l-1.7360115 1.0088596c-.3604164.2094517-.945713.2091141-1.3084908-.0003357-.1810875-.1045513-.272995-.2416668-.2737694-.3787861-.0007706-.1371231.0895996-.2742405.2695122-.3787937l1.7360115-1.0088596C36.9302444 26.416153 37.5155334 26.4158058 37.8783073 26.6252537zM33.6948891 29.0563908c.3627739.2094498.3646851.5488148.0042686.7582664l-1.7360115 1.0088596c-.3604183.2094517-.945715.2091122-1.3084888-.0003357-.1810894-.1045513-.272995-.2416668-.2737713-.378788-.0007725-.1371212.0895977-.2742386.2695103-.3787918l1.7360134-1.0088596C32.7468262 28.84729 33.3321152 28.8469429 33.6948891 29.0563908zM29.5114708 31.4875278c.3627758.2094498.3646851.5488148.0042686.7582645l-1.7360115 1.0088615c-.3604145.2094498-.945715.2091141-1.3084888-.0003357-.1810894-.1045532-.272995-.2416687-.2737675-.378788-.0007763-.1371231.0895939-.2742386.2695065-.3787918l1.7360134-1.0088596C28.5634079 31.2784271 29.1486969 31.27808 29.5114708 31.4875278zM40.4064445 28.0848732c.3627739.2094498.3646851.5488148.0042648.7582664l-1.7360115 1.0088596c-.3604164.2094517-.945713.2091141-1.3084869-.0003357-.1810913-.1045513-.2730026-.2416706-.2737694-.3787861-.0007744-.1371231.0895958-.2742386.2695084-.3787937l1.7360115-1.0088596C39.4583817 27.8757725 40.0436668 27.8754253 40.4064445 28.0848732zM36.2230263 30.5160103c.3627739.2094498.3646851.5488148.0042648.7582664l-1.7360115 1.0088615c-.3604164.2094498-.945713.2091103-1.3084869-.0003357-.1810913-.1045532-.2730026-.2416725-.2737694-.378788-.0007744-.1371231.0895958-.2742405.2695084-.3787937l1.7360115-1.0088596C35.2749634 30.3069096 35.8602486 30.3065624 36.2230263 30.5160103zM32.039608 32.9471474c.3627739.2094498.3646851.5488167.0042648.7582664l-1.7360115 1.0088615c-.3604126.2094498-.945713.2091103-1.3084869-.0003357-.1810894-.1045532-.2730026-.2416725-.2737675-.3787918-.0007763-.1371193.0895939-.2742348.2695065-.378788l1.7360134-1.0088615C31.0915432 32.7380447 31.6768322 32.7377014 32.039608 32.9471474zM42.9345779 29.5444927c.3627739.2094498.3646851.5488148.0042686.7582664l-1.7360115 1.0088596c-.3604202.2094517-.945713.2091141-1.3084908-.0003357-.1810875-.1045513-.2730026-.2416706-.2737694-.3787861-.0007706-.1371231.0895882-.2742443.2695007-.3787975l1.7360153-1.0088596C41.9865074 29.3353882 42.571804 29.3350449 42.9345779 29.5444927zM38.7511597 31.9756298c.3627739.2094479.3646851.5488148.0042686.7582684l-1.7360115 1.0088577c-.3604202.2094536-.945713.2091141-1.3084908-.0003357-.1810875-.1045532-.2730026-.2416725-.2737694-.378788-.0007706-.1371231.0895882-.2742424.2695007-.3787956l1.7360153-1.0088596C37.8030891 31.7665253 38.3883858 31.7661819 38.7511597 31.9756298zM34.5677414 34.4067688c.3627739.209446.3646851.5488129.0042686.7582664l-1.7360115 1.0088577c-.3604126.2094498-.945715.2091141-1.3084888-.0003357-.1810894-.1045532-.2730026-.2416725-.2737675-.378788-.0007763-.1371231.0895863-.2742424.2694988-.3787956l1.7360134-1.0088615C33.6196709 34.1976624 34.2049675 34.197319 34.5677414 34.4067688zM45.4627151 31.0041122c.3627663.209444.3646851.5488148.0042648.7582664l-1.7360115 1.0088615c-.3604164.2094498-.9457207.2091064-1.3084869-.0003357-.1810913-.1045532-.2730026-.2416725-.2737808-.3787918-.0007629-.1371193.0895996-.2742386.2695122-.3787956l1.7360115-1.0088577C44.5146408 30.7950077 45.0999374 30.7946644 45.4627151 31.0041122zM41.2792969 33.4352493c.3627663.209446.3646851.5488167.0042648.7582664l-1.7360115 1.0088615c-.3604164.2094498-.9457207.2091064-1.3084869-.0003357-.1810913-.1045532-.2730026-.2416725-.2737808-.3787918-.0007629-.1371193.0895996-.2742386.2695122-.3787956l1.7360115-1.0088577C40.3312225 33.2261429 40.9165192 33.2258034 41.2792969 33.4352493zM37.0958786 35.8663864c.3627663.209446.3646851.5488167.0042648.7582664l-1.7360115 1.0088615c-.3604126.2094498-.9457207.2091064-1.3084869-.0003357-.1810913-.1045532-.2730026-.2416725-.273777-.3787956-.0007668-.1371155.0895958-.2742348.2695084-.3787918l1.7360115-1.0088577C36.1478043 35.65728 36.7331009 35.6569405 37.0958786 35.8663864z" class="color434240 svgShape"></path><path fill="#489bef" d="M47.9908409,32.4637299c0.363369,0.2097893,0.3646927,0.5488167,0.0042763,0.7582703
						l-1.7360115,1.0088577c-0.3604202,0.2094536-0.9451256,0.2094536-1.3084984-0.0003395
						c-0.1810875-0.1045532-0.272995-0.2416687-0.2737694-0.378788c-0.0007629-0.1371193,0.0895958-0.2742386,0.2695084-0.3787918
						l1.7360153-1.0088615C47.042778,32.2546272,47.6280746,32.2542839,47.9908409,32.4637299z" class="colorefc348 svgShape"></path><path fill="#7da7d1" d="M43.8074226,34.8948669c0.363369,0.2097893,0.3646927,0.5488167,0.0042763,0.7582703
						l-1.7360115,1.0088577c-0.3604202,0.2094536-0.9451256,0.2094536-1.3084984-0.0003395
						c-0.1810875-0.1045532-0.272995-0.2416687-0.2737694-0.378788c-0.0007629-0.1371193,0.0895958-0.2742386,0.2695084-0.3787918
						l1.7360153-1.0088615C42.8593597,34.6857643,43.4446564,34.685421,43.8074226,34.8948669z" class="color7dd17d svgShape"></path><path fill="#2d2b2d" d="M34.5629387 28.3919258l.0009308-.3784885c.0009308.1366997.0929947.2743359.2743263.3784885.3626823.2092381.9476089.2101688 1.3084373 0l1.7361984-1.0080624c.1785545-.1041527.2687569-.2408524.2687569-.3766251l-.0009193.3784866c-.0009308.1366997-.0902138.2724743-.2687683.376627l-1.7361984 1.0089874c-.360817.2092361-.945755.2092361-1.3084373 0C34.6559334 28.666254 34.5638695 28.5295563 34.5629387 28.3919258zM34.5713043 35.5441208l-1.7362099 1.0089912c-.3608093.20924-.9457455.20924-1.3084259-.0009308-.1813469-.1041527-.2734089-.2408562-.2743416-.3784866l.0018635-.3784866c0 .1366997.092062.2734032.2734089.3784866.3626804.2092361.9476166.2092361 1.3084259 0l1.7362099-1.0089912c.1785507-.1041527.2687531-.2399216.2687531-.3766251l-.0009308.3794174C34.8400574 35.3041954 34.749855 35.4399681 34.5713043 35.5441208zM37.098896 37.0041351l-1.7362099 1.0080566c-.3598862.2101669-.945755.2092361-1.3084259 0-.1804161-.1041565-.27248-.2417831-.2734108-.3784828l.0009308-.3794212c.0009308.1376305.0929947.2743378.2734108.3784904.3636017.2101669.9485397.2101669 1.3093567.0009308l1.7352791-1.0089951c.1794739-.1041527.2687454-.2399254.2696762-.3766251l-.0009308.3794212C37.3676414 36.7632751 37.2783699 36.8999825 37.098896 37.0041351zM38.675148 29.8519325l1.7352753-1.0089855c.1794853-.1041546.2687569-.2399273.2696877-.376627l-.0018616.3794193c0 .1366978-.0892715.2724724-.2687569.3766251l-1.7362099 1.0089874c-.3598747.2092381-.9457436.2092381-1.3084259-.0009308-.1804123-.1041527-.2724762-.2417831-.273407-.3784885l.0009308-.3794117c.0009308.1376286.0929947.274334.273407.3794117C37.7294006 30.0611706 38.3143272 30.0611706 38.675148 29.8519325zM29.5142689 32.6250267l-1.7352676 1.0089912c-.3608303.20924-.9457569.20924-1.3084373-.0009308-.1813354-.1041527-.2733974-.2417831-.2743282-.3784866l.0009308-.3794174c.0009308.1376343.0929947.274334.2743282.3794174.3626804.2092361.947607.2092361 1.3084373 0l1.7361984-1.0089874c.1785412-.1041527.268755-.2399254.268755-.3766308l-.0009308.3794193C29.7830238 32.3851051 29.6937523 32.520874 29.5142689 32.6250267z" class="color2d2c2b svgShape"></path><path fill="#ce3ab3" d="M48.2647285,32.8454208l-0.0018539,0.3794212c0,0.1357727-0.0892792,0.2724724-0.2687645,0.3766251
						l-1.7361984,1.0080605c-0.3598862,0.2101707-0.9448242,0.2101707-1.3084373,0
						c-0.1813354-0.1041527-0.2733994-0.2417831-0.2733994-0.3784866l0.0009308-0.3794174
						c0.0009308,0.1376343,0.0920639,0.274334,0.2733994,0.3784866c0.3636131,0.2101669,0.9485397,0.2101669,1.3084373,0.0009308
						l1.7361984-1.0089874C48.1745262,33.1179008,48.2638054,32.9821281,48.2647285,32.8454208z" class="colorcea03a svgShape"></path><path fill="#2d2b2d" d="M41.2027283 31.3119469l1.7362213-1.0089874c.1785393-.1041527.2687416-.2399273.2687416-.376627l-.0009308.3794136c0 .1357746-.0902023.2715473-.2687416.3757019l-1.7362099 1.0089855c-.3608208.2092381-.9457588.2092381-1.3084259 0-.1813469-.1050835-.2734108-.2417831-.2743416-.3784866l.0018616-.3794136c0 .1366997.0920639.2743282.2734108.3784828C40.2569809 31.521183 40.8428497 31.521183 41.2027283 31.3119469zM34.4913292 32.2828064l1.7361984-1.0089855c.178566-.1032219.2687645-.2399273.2687645-.3757019l-.0009308.3784885c0 .1367054-.0901985.2724724-.2687531.3766327l-1.7362099 1.0089874c-.360817.2092361-.9457436.2092361-1.3084373 0-.1813354-.1050873-.2733994-.2417831-.2743301-.3794212l.0009308-.3784866c.0009308.1367035.0929947.274334.2743301.3784866C33.5455856 32.4920464 34.1305122 32.4929771 34.4913292 32.2828064zM37.9646797 35.2019043l.0009193-.3784904c0 .1367073.0920753.274334.273407.3784904.3626709.2092361.9485397.2101669 1.3084297.0009308l1.7362061-1.0089951c.1785431-.1041527.2687454-.2408524.2687454-.3766251l-.0009308.3784866c0 .1367073-.0902023.2724724-.2687454.3766289l-1.7362099 1.0089912c-.360817.2092361-.945755.2092361-1.3084259 0C38.0567436 35.4762383 37.9646797 35.3395309 37.9646797 35.2019043z" class="color2d2c2b svgShape"></path><path fill="#a50b89" d="M39.8980255,37.7081032l-0.0018616,0.3784866c0,0.1366997-0.0902023,0.2724724-0.2687569,0.3766251
						l-1.7361984,1.0089874c-0.3608284,0.20924-0.9448242,0.20924-1.3084373,0
						c-0.1813316-0.1050835-0.2733955-0.2417831-0.2733955-0.3794136l0.0009308-0.3784866
						c0.0009308,0.1366997,0.0920639,0.2743301,0.2733955,0.3784866c0.3636131,0.2101631,0.9485397,0.2101631,1.3084373,0
						l1.7361984-1.0080605C39.8078117,37.9805756,39.8970947,37.8438721,39.8980255,37.7081032z" class="colore5392c svgShape"></path><path fill="#2d2b2d" d="M30.3800507 30.8237247l.0009308-.3794117c.0009308.1376286.0929947.2743282.2733994.3784809.3626804.2101688.9485378.2101688 1.3084373.0009308l1.7361984-1.0089855c.1794815-.1041546.2687531-.2399273.2687531-.376627l-.0009308.3794136c0 .1357727-.0892715.2724781-.2687531.3757l-1.7361984 1.0089874c-.3598995.2101688-.9457569.2092381-1.3084373 0C30.4721146 31.0980606 30.3809814 30.9604301 30.3800507 30.8237247zM43.7312508 32.7710266l1.7352791-1.0089855c.1794701-.1041527.2687531-.2399273.2696724-.3757l-.0009193.3784866c-.0009308.1367054-.0902138.2724724-.2696838.3766327l-1.7352676 1.0089874c-.3608322.2092361-.9457703.2092361-1.3093681-.0009308-.1804047-.1041527-.2724686-.2408524-.2733994-.3784904l.0009308-.3784866c.0009308.1367035.0929947.2734032.2743301.3784866C42.7854919 32.9802666 43.37043 32.9802666 43.7312508 32.7710266zM38.7542 33.1132469l-1.7362213 1.0089912c-.3598747.20924-.9457436.2083092-1.3084145-.0009308-.1804123-.1041527-.2724876-.2417831-.273407-.3784866l.0009193-.3794174c.0009308.1376343.0929947.274334.273407.3794174.3636131.2092361.9485512.2092361 1.3093567 0l1.7352905-1.0089874c.1794739-.1041527.2687454-.2399254.2696762-.3766327l-.0009308.3794212C39.0229454 32.8723946 38.9336739 33.0090942 38.7542 33.1132469z" class="color2d2c2b svgShape"></path><path fill="#5f0aa5" d="M44.0809097,35.2762985l-0.0009308,0.3794174c0,0.1366997-0.0902023,0.2724724-0.2696838,0.3766251
						l-1.7352676,1.0089951c-0.3608322,0.2092361-0.9457588,0.2092361-1.3093681-0.0009308
						c-0.1804047-0.1041565-0.2724686-0.2417908-0.2733994-0.3784904l0.0009308-0.3794174
						c0.0009308,0.1376305,0.0929947,0.274334,0.2743301,0.3794174c0.3626785,0.20924,0.9476051,0.20924,1.3084373,0
						l1.7361984-1.0089912C43.9907074,35.5487709,44.0809097,35.413002,44.0809097,35.2762985z" class="color0aa553 svgShape"></path><path fill="#2d2b2d" d="M32.0427818,34.0841103l-1.7362003,1.0089912c-0.3598862,0.2092361-0.9457455,0.2092361-1.3084373,0
						c-0.1813335-0.1050835-0.2724667-0.2417908-0.2733974-0.3784866l0.0009308-0.3794212
						c0.0009308,0.1367073,0.0929947,0.274334,0.2733974,0.3784904c0.3626919,0.2101669,0.9485512,0.2101669,1.3084373,0.0009308
						l1.7362003-1.0089951c0.1794815-0.1041527,0.2687645-0.2399216,0.2696953-0.3766251l-0.0018616,0.3794174
						C32.3115463,33.8441887,32.2222748,33.9799538,32.0427818,34.0841103z" class="color2d2c2b svgShape"></path><path fill="#ff30d9" d="M39.6240044,37.326004c0.363369,0.2097893,0.3646927,0.5488167,0.0042763,0.7582703l-1.7360115,1.0088577
						c-0.3604164,0.2094498-0.9451256,0.2094536-1.3084984-0.0003395c-0.1810875-0.1045532-0.272995-0.2416687-0.2737656-0.3787918
						c-0.0007668-0.1371155,0.089592-0.2742348,0.2695045-0.378788l1.7360153-1.0088615
						C38.6759415,37.1169014,39.2612381,37.1165581,39.6240044,37.326004z" class="colorff5230 svgShape"></path><g fill="#010001" class="color000000 svgShape"><polygon fill="#6822a2" points="49.857 35.352 49.862 37.073 38.027 43.906 38.022 42.185" class="color38425d svgShape"></polygon></g><g fill="#010001" class="color000000 svgShape"><g fill="#010001" class="color000000 svgShape"><path fill="#c9cdd1" d="M35.1275558,24.5793896v0.431303c0,0.1568089-0.0979996,0.3038673-0.2940559,0.4214897
								l-0.9507904,0.5489235v-0.4313011l0.9507904-0.5489254C35.0295563,24.8832588,35.1275558,24.7362003,35.1275558,24.5793896z" class="colorc9cfd1 svgShape"></path><polygon fill="#d7dbe0" points="33.884 25.548 33.883 25.982 32.419 25.137 32.42 24.703" class="colord7dde0 svgShape"></polygon><path fill="#e7ebef" d="M34.8215103,24.152317c0.4036407,0.2330418,0.4106064,0.6121063,0.0095749,0.8451614
							l-0.9469948,0.550333l-1.4638367-0.8451462l0.9469948-0.5503311
							C33.76828,23.9192791,34.4178543,23.9192657,34.8215103,24.152317z" class="colore7ecef svgShape"></path></g><g fill="#010001" class="color000000 svgShape"><polygon fill="#c9cdd1" points="33.522 25.758 33.52 26.193 32.037 27.055 32.038 26.62" class="colorc9cfd1 svgShape"></polygon><polygon fill="#d7dbe0" points="32.038 26.62 32.037 27.055 30.573 26.21 30.575 25.775" class="colord7dde0 svgShape"></polygon><polygon fill="#e7ebef" points="33.522 25.758 32.038 26.62 30.575 25.775 32.058 24.913" class="colore7ecef svgShape"></polygon></g><g fill="#010001" class="color000000 svgShape"><path fill="#a50b89" d="M31.7979107,27.1462326v0.4341812c0,0.045702-0.0304527,0.0914021-0.0914021,0.1219006
									l-2.3155861,1.3481979c-0.1219006,0.0685749-0.3047028,0.0761986-0.4265575,0l-1.8357506-1.0587444
									c-0.0609035-0.0304985-0.0837765-0.0761986-0.0837765-0.1218987V27.435688
									c0,0.0457001,0.0228729,0.0914001,0.0837765,0.1218987l1.8357506,1.0587444
									c0.1218548,0.0761986,0.304657,0.0685749,0.4265575,0l2.3155861-1.3481979
									C31.767458,27.2376347,31.7979107,27.1919346,31.7979107,27.1462326z" class="colore5392c svgShape"></path><path fill="#ff30d9" d="M31.7110348,27.0247536c0.1215858,0.0701962,0.1124878,0.1768875-0.0034733,0.244278
								l-2.314352,1.3449535c-0.1207771,0.0701885-0.3049717,0.0758247-0.4265575,0.0056286L27.128334,27.55826
								c-0.1167202-0.0673885-0.1124554-0.1769085,0.0083218-0.247097l2.314352-1.3449535
								c0.1159611-0.0673904,0.304987-0.0702,0.4217072-0.0028114L31.7110348,27.0247536z" class="colorff5230 svgShape"></path></g><g fill="#010001" class="color000000 svgShape"><polygon fill="#d7dbe0" points="26.786 29.673 26.785 30.107 25.321 29.262 25.323 28.827" class="colord7dde0 svgShape"></polygon><polygon fill="#e7ebef" points="28.27 28.811 26.786 29.673 25.323 28.827 26.806 27.965" class="colore7ecef svgShape"></polygon></g><g fill="#010001" class="color000000 svgShape"><path fill="#c9cdd1" d="M25.482172,30.4313068l0.9409771-0.5489235v0.4313011L25.482172,30.862608
								c-0.401926,0.2353039-1.0586605,0.2353039-1.4703388,0c-0.1960564-0.1176224-0.2940559-0.2646198-0.2940559-0.4214897
								v-0.4313011c0,0.1470585,0.0979996,0.3038673,0.3038673,0.4214897
								C24.4235115,30.6666107,25.080246,30.6666107,25.482172,30.4313068z" class="colorc9cfd1 svgShape"></path><polygon fill="#c9cdd1" points="28.266 28.814 28.266 29.245 26.786 30.108 26.786 29.677" class="colorc9cfd1 svgShape"></polygon><g fill="#010001" class="color000000 svgShape"><path fill="#e7ebef" d="M26.4240112,29.8831367l-0.9421768,0.547533
							c-0.4010334,0.2330532-1.0602875,0.233057-1.4639282,0.0000153c-0.403656-0.2330513-0.4009399-0.6121063,0.0000935-0.8451614
							l0.9421749-0.547533L26.4240112,29.8831367z" class="colore7ecef svgShape"></path></g></g></g><g fill="#010001" class="color000000 svgShape"><g fill="#010001" class="color000000 svgShape"><path fill="#f4f6f8" d="M23.3998585,16.9798584l-12.1857443,7.0785103L5.599689,14.374383
							c-0.2882152-0.5072622-0.6686788-0.8992653-1.0491424-1.1183119
							c-0.3803935-0.2190466-0.7608571-0.2766752-1.0490723-0.1037178l12.1857443-7.0901208
							c0.2882156-0.1614175,0.6686792-0.1037183,1.0490732,0.1153283c0.3804626,0.2190461,0.7724667,0.6109796,1.0606823,1.1067009
							L23.3998585,16.9798584z" class="coloreaefef svgShape"></path><path fill="#d9dbdd" d="M4.5494494,13.2561245c0.3842645,0.2218552,0.7677245,0.6126738,1.0556684,1.1156778l5.6052237,9.6916609
							l-0.2362785,0.1262016l-5.5978861-9.6874247c-0.2200899-0.3812113-0.5141191-0.6865292-0.8232589-0.8734856
							c-0.3091383-0.1784811-0.6039839-0.2046757-0.8255129-0.078433L3.5,13.1479378
							C3.7898381,12.9827681,4.1700525,13.0370789,4.5494494,13.2561245z" class="colord9dddd svgShape"></path></g></g><g fill="#010001" class="color000000 svgShape"><polygon fill="#d9dbdd" points="22.417 16.282 11.097 22.852 10.977 22.642 22.297 16.072" class="colord9dddd svgShape"></polygon><polygon fill="#d9dbdd" points="21.627 14.923 10.307 21.502 10.187 21.282 21.507 14.712" class="colord9dddd svgShape"></polygon><polygon fill="#d9dbdd" points="20.847 13.562 9.517 20.142 9.397 19.932 20.727 13.352" class="colord9dddd svgShape"></polygon><polygon fill="#d9dbdd" points="20.057 12.192 8.727 18.782 8.607 18.572 19.937 11.993" class="colord9dddd svgShape"></polygon><polygon fill="#d9dbdd" points="19.277 10.832 7.937 17.423 7.817 17.212 19.157 10.622" class="colord9dddd svgShape"></polygon><polygon fill="#d9dbdd" points="18.487 9.472 7.147 16.062 7.027 15.852 18.367 9.262" class="colord9dddd svgShape"></polygon><polygon fill="#d9dbdd" points="17.697 8.113 6.367 14.702 6.237 14.493 17.577 7.902" class="colord9dddd svgShape"></polygon><path fill="#d9dbdd" d="M16.7872543,6.8324742l-11.289978,6.559998c-0.0599976-0.0599976-0.1300049-0.1300049-0.1900024-0.1799927
				l11.2700195-6.5399785C16.6473007,6.7124791,16.717308,6.7724767,16.7872543,6.8324742z" class="colord9dddd svgShape"></path></g></svg>