<svg xmlns="http://www.w3.org/2000/svg" enable-background="new 0 0 50 50" viewBox="0 0 50 50" id="ProjectPlan"><g fill="#010001" class="color000000 svgShape"><polygon fill="#f4f6f8" points="20.9 31 21.8 30.4 17.6 28 16.7 28.5" class="colorbbbbbc svgShape"></polygon><polygon fill="#6822a2" points="16.7 28.5 17.6 28 17.6 23.1 16.7 23.6" class="color747475 svgShape"></polygon><polygon fill="#4d107f" points="20.9 31 21.8 30.4 21.9 25.5 20.9 26.1" class="color105a7f svgShape"></polygon><polygon fill="#a6a7a8" points="22.8 30.8 23.7 30.3 22.3 28.2 21.4 28.8" class="colora6a6a8 svgShape"></polygon><polygon fill="#312a31" points="22.8 30.8 23.7 30.3 23.7 29.6 22.8 30.1" class="color2a2e31 svgShape"></polygon><polygon fill="#2a1cf3" points="16.7 23.6 16.7 28.5 20.9 31 20.9 26.1" class="color1cc0f3 svgShape"></polygon><polygon fill="#5046e4" points="20.9 26.1 21.9 25.5 17.6 23.1 16.7 23.6" class="color1a91cd svgShape"></polygon><polygon fill="#312a31" points="22.8 29.1 23.7 28.5 23.7 27.7 22.8 28.2" class="color2a2e31 svgShape"></polygon><polygon fill="#3d343d" points="22.8 28.2 23.7 27.7 22.3 28.2 21.4 28.8" class="color34393d svgShape"></polygon><polygon fill="#4a444f" points="24.4 30 25.3 29.5 23.7 28.5 22.8 29.1" class="color444a4f svgShape"></polygon><polygon fill="#6822a2" points="26.9 33.3 27.9 32.7 27.9 32 26.9 32.5" class="color747475 svgShape"></polygon><polygon fill="#f4f6f8" points="26.9 32.5 27.9 32 23.7 29.6 22.8 30.1" class="colorbbbbbc svgShape"></polygon><polygon fill="#4a444f" points="27 31.5 27.9 30.9 26.3 30 25.3 30.5" class="color444a4f svgShape"></polygon><polygon fill="#6822a2" points="27 31.5 27.9 30.9 27.9 30.1 27 30.7" class="color747475 svgShape"></polygon><polygon fill="#919092" points="28.3 32.7 29.2 32.2 27.9 32.7 26.9 33.3" class="color909092 svgShape"></polygon><polygon fill="#413c46" points="28.3 32.7 29.2 32.2 27.9 30.1 27 30.7" class="color3c4246 svgShape"></polygon><polygon fill="#6822a2" points="24.4 30 25.3 29.5 25.3 24.5 24.4 25" class="color747475 svgShape"></polygon><polygon fill="#433c49" points="24.4 25 24.4 30 22.8 29.1 22.8 28.2 21.4 28.8 22.8 30.8 22.8 30.1 26.9 32.5 26.9 33.3 28.3 32.7 27 30.7 27 31.5 25.3 30.5 25.3 25.5" class="color3c4349 svgShape"></polygon><polygon fill="#312a31" points="25.3 30.5 26.3 30 26.3 25 25.3 25.5" class="color2a2e31 svgShape"></polygon><polygon fill="#4a444f" points="25.3 25.5 26.3 25 25.3 24.5 24.4 25" class="color444a4f svgShape"></polygon><polygon fill="#6822a2" points="21.6 22.7 22.6 22.1 22.6 17.8 21.7 18.3" class="color747475 svgShape"></polygon><polygon fill="#f4f6f8" points="33.2 38.1 34.2 37.5 29.9 35.1 29 35.6" class="colorbbbbbc svgShape"></polygon><polygon fill="#6822a2" points="29 35.6 29.9 35.1 29.9 30.2 29 30.7" class="color747475 svgShape"></polygon><polygon fill="#f4f6f8" points="28.1 26.4 29 25.9 22.6 22.1 21.6 22.7" class="colorbbbbbc svgShape"></polygon><polygon fill="#651065" points="33.2 38.1 34.2 37.5 34.2 32.7 33.3 33.2" class="color3d6510 svgShape"></polygon><polygon fill="#651aa3" points="33.3 33.2 34.2 32.7 29.9 30.2 29 30.7" class="color63a31a svgShape"></polygon><polygon fill="#a50b89" points="28.1 26.4 29 25.9 29.1 21.5 28.1 22" class="color882f37 svgShape"></polygon><polygon fill="#f744d6" points="21.7 18.3 21.6 22.7 28.1 26.4 28.1 22" class="colorf74457 svgShape"></polygon><polygon fill="#db4bc1" points="28.1 22 29.1 21.5 22.6 17.8 21.7 18.3" class="colordb4b58 svgShape"></polygon><polygon fill="#751ebd" points="29 30.7 29 35.6 33.2 38.1 33.3 33.2" class="color73bd1e svgShape"></polygon><polygon fill="#bbbbbc" points="39.4 45.8 40.3 45.3 40.4 19.5 39.5 20" class="colorbcbbbb svgShape"></polygon></g><polygon fill="#f4f6f8" points="39.5 20 40.4 19.5 11.5 2.8 10.5 3.3" class="coloreaeaec svgShape"></polygon><path fill="#d9dadb" d="M10.5,3.3l-0.1,25.8l28.9,16.7L39.5,20L10.5,3.3z M28.1,22l0,4.4l-6.5-3.7l0-4.4L28.1,22z M20.9,31
		l-4.3-2.5l0-4.9l4.3,2.5L20.9,31z M26.9,33.3l0-0.7l-4.2-2.4l0,0.7l-1.4-2.1l1.4-0.5l0,0.8l1.6,0.9l0-5l0.9,0.5l0,5l1.6,0.9l0-0.8
		l1.4,2.1L26.9,33.3z M33.2,38.1L29,35.6l0-4.9l4.3,2.5L33.2,38.1z" class="colord9d9db svgShape"></path><path fill="#f4f6f8" d="M6.8,2.9L6.9,32c0,0.5,0.3,1,0.9,1.3c1.3,0.7,3.4,0.7,4.6,0c0.6-0.4,1-0.9,1-1.3L13.3,2.9
				C13.3,5.3,6.8,5.4,6.8,2.9z" class="coloreaeaec svgShape"></path><path fill="#bbbcbd" d="M12.4,4.2c1.3-0.7,1.3-1.9,0-2.7c-1.3-0.7-3.3-0.7-4.6,0C7.2,1.9,6.9,2.2,6.8,2.6
					C6.3,4.6,10.4,5.3,12.4,4.2z" class="colorbbbbbd svgShape"></path><path fill="#d9dadb" d="M6.8,2.6c0.7,1.5,4.4,1.3,4.8-0.1c0,0.1,0,0.4,0,0.2v1.8c-1,0.3-2.5,0.3-2.8,0.1C8.1,4.7,6.5,3.7,6.8,2.6z
			" class="colord9d9db svgShape"></path><path fill="#f4f6f8" d="M36.6,18l0.1,29.1c0,0.5,0.3,1,0.9,1.3c1.3,0.7,3.4,0.7,4.6,0c0.6-0.4,1-0.9,1-1.3L43.1,18
			C43.2,20.4,36.6,20.5,36.6,18z" class="coloreaeaec svgShape"></path><path fill="#bbbcbd" d="M36.6,17.7c0-1.1,3.3-2.4,5.5-1c1.3,0.7,1.3,1.9,0,2.7C39.8,20.7,36.1,19.4,36.6,17.7z" class="colorbbbbbd svgShape"></path><path fill="#d9dadb" d="M36.6,17.7c0.5,1.5,4.3,1.4,4.7-0.1c0,0.1,0,0.4,0,0.2v1.8C38.6,20.5,36.2,19,36.6,17.7z" class="colord9d9db svgShape"></path><g fill="#010001" class="color000000 svgShape"><path fill="#433c49" d="M22.5,14.1c0.2,0.3,0.3,0.6,0.3,1c0,0.4-0.1,0.6-0.3,0.7c-0.2,0.1-0.5,0-0.9-0.2l-0.5-0.3l0,0.9l-0.5-0.3
				l0-3.1l0.9,0.5C22.1,13.5,22.3,13.8,22.5,14.1z M22.2,15.2c0.1-0.1,0.1-0.2,0.1-0.4c0-0.2-0.1-0.4-0.2-0.6
				c-0.1-0.2-0.3-0.3-0.5-0.5l-0.5-0.3l0,1.2l0.5,0.3C21.9,15.2,22.1,15.2,22.2,15.2" class="color3c4349 svgShape"></path><polygon fill="#433c49" points="23.8 14.5 23.8 17.2 25 17.9 25 18.4 23.3 17.4 23.4 14.3" class="color3c4349 svgShape"></polygon><path fill="#433c49" d="M26.9,16.3l1.2,3.8l-0.5-0.3L27.3,19l-1.4-0.8l-0.3,0.6l-0.5-0.3l1.2-2.4L26.9,16.3z M26.1,17.8l1,0.6
				l-0.5-1.6L26.1,17.8" class="color3c4349 svgShape"></path><polygon fill="#433c49" points="30.9 18.6 30.9 21.7 30.4 21.5 28.9 18.3 28.9 20.6 28.4 20.3 28.4 17.2 28.9 17.5 30.4 20.7 30.4 18.4" class="color3c4349 svgShape"></polygon></g></svg>