<svg xmlns="http://www.w3.org/2000/svg" enable-background="new 0 0 50 50" viewBox="0 0 50 50" id="MobileShopping"><path fill="#f4f6f8" d="M23.353,7.1273c0.2043,0.118,0.3634,0.4008,0.3627,0.628c-0.0007,0.2348-0.1608,0.3333-0.3651,0.2154
				c-0.2043-0.118-0.3634-0.4008-0.3627-0.6356C22.9885,7.1079,23.1486,7.0094,23.353,7.1273z" class="color3f535c svgShape"></path><path fill="#6822a2" d="M33.4881,12.0089c0.7087,0.4092,1.2751,1.39,1.2728,2.2044l-0.0946,33.3516
				c-0.0023,0.8144-0.5724,1.1391-1.2811,0.7299l-15.5339-8.9685c-0.7023-0.4055-1.2751-1.39-1.2728-2.2044l0.0946-33.3516
				c0.0023-0.8144,0.5788-1.1354,1.2811-0.7299L33.4881,12.0089z M33.4129,45.3051l0.0866-30.5339L17.9273,5.7805l-0.0866,30.5339
				L33.4129,45.3051 M24.4192,7.7429c-0.2043-0.1179-0.3645-0.0194-0.3651,0.2078c-0.0007,0.2348,0.1584,0.5177,0.3627,0.6356
				l3.6648,2.1159c0.2043,0.118,0.3645,0.0194,0.3651-0.2154c0.0006-0.2273-0.1584-0.5101-0.3627-0.628L24.4192,7.7429
				 M23.353,7.1273c-0.2043-0.118-0.3645-0.0195-0.3651,0.2078c-0.0007,0.2348,0.1584,0.5176,0.3627,0.6356
				c0.2043,0.1179,0.3644,0.0194,0.3651-0.2154C23.7163,7.5281,23.5572,7.2453,23.353,7.1273" class="color475e68 svgShape"></path><path fill="#f4f6f8" d="M28.084,9.8588c0.2043,0.118,0.3634,0.4008,0.3627,0.628c-0.0007,0.2348-0.1608,0.3333-0.3651,0.2154
				l-3.6648-2.1159c-0.2043-0.118-0.3634-0.4008-0.3627-0.6356c0.0006-0.2273,0.1608-0.3258,0.3651-0.2078L28.084,9.8588z" class="color3f535c svgShape"></path><line x1="36.573" x2="34.296" y1="47.05" y2="48.391" fill="#CED8DA"></line><path fill="#dde2e7" d="M35.7629,10.6706l-15.53-8.9697c-0.36-0.2002-0.68-0.2202-0.91-0.0903l-2.2769,1.3403
				c0.23-0.1304,0.55-0.1099,0.91,0.0898l15.53,8.9702c0.3442,0.1987,0.6522,0.5342,0.8804,0.9165l2.2766-1.3403
				C36.4148,11.2048,36.107,10.8693,35.7629,10.6706z" class="colordde4e7 svgShape"></path><path fill="#b0b6bc" d="M34.3665,12.9274c0.2426,0.4063,0.3947,0.8657,0.3896,1.2832l-0.09,33.3501
				c0,0.4102-0.14,0.6899-0.37,0.8301l2.2769-1.3403c0.23-0.1396,0.37-0.4199,0.37-0.8296l0.09-33.3501
				c0.0052-0.4175-0.1472-0.877-0.3898-1.2837L34.3665,12.9274z" class="colorb0b8bc svgShape"></path><polygon fill="#72ace6" points="32.255 34.139 32.252 35.21 19.046 27.586 19.049 26.514" class="color72d4e6 svgShape"></polygon><polygon fill="#72ace6" points="32.294 20.608 32.258 33.386 19.051 25.761 19.087 12.983" class="color72d4e6 svgShape"></polygon><g fill="#010001" class="color000000 svgShape"><polygon fill="#ac2493" points="21.043 7.581 21.041 8.12 16.55 10.73 16.552 10.19" class="colorac2a24 svgShape"></polygon><polygon fill="#781967" points="16.552 10.19 16.55 10.73 13.432 8.93 13.434 8.39" class="color781d19 svgShape"></polygon><polygon fill="#f172da" points="21.043 7.581 16.085 10.46 12.967 8.66 17.925 5.78" class="colorf17572 svgShape"></polygon></g><g fill="#010001" class="color000000 svgShape"><polygon fill="#5046e4" points="24.165 9.383 24.163 9.922 19.672 12.532 19.674 11.993" class="color9fa7a8 svgShape"></polygon><polygon fill="#726f75" points="19.674 11.993 19.672 12.532 16.55 10.73 16.552 10.19" class="color6f7475 svgShape"></polygon><polygon fill="#ac2493" points="27.282 11.183 27.281 11.723 22.79 14.332 22.791 13.793" class="colorac2a24 svgShape"></polygon><polygon fill="#781967" points="22.791 13.793 22.79 14.332 19.672 12.532 19.674 11.993" class="color781d19 svgShape"></polygon></g><g fill="#010001" class="color000000 svgShape"><polygon fill="#5046e4" points="30.4 12.983 30.398 13.523 25.908 16.132 25.909 15.593" class="color9fa7a8 svgShape"></polygon><polygon fill="#726f75" points="25.909 15.593 25.908 16.132 22.79 14.332 22.791 13.793" class="color6f7475 svgShape"></polygon></g><polygon fill="#781967" points="29.021 17.395 29.021 17.934 25.908 16.132 25.909 15.593" enable-background="new" class="color781d19 svgShape"></polygon><g fill="#010001" class="color000000 svgShape"><path fill="#a50b89" d="M16.0967,16.2079l-0.4664,0.271c0.2797-0.1626,0.453-0.5085,0.4544-1.0006l0.4663-0.271
								C16.5497,15.6994,16.3764,16.0454,16.0967,16.2079z" class="colorca4743 svgShape"></path><polygon fill="#df2fbf" points="16.085 10.46 16.551 10.189 16.551 15.207 16.085 15.478" class="colordf362f svgShape"></polygon><path fill="#ee4fd1" d="M16.0848,10.4604v5.018c-0.0028,0.9905-0.7021,1.389-1.564,0.8914
								c-0.8618-0.4976-1.5566-1.7009-1.5538-2.6914v-5.018L16.0848,10.4604z" class="coloree534f svgShape"></path></g><g fill="#010001" class="color000000 svgShape"><path fill="#b0b6bc" d="M19.2144,18.008l-0.4664,0.271c0.2797-0.1626,0.453-0.5085,0.4544-1.0006l0.4664-0.271
								C19.6675,17.4994,19.4942,17.8454,19.2144,18.008z" class="colorb0b8bc svgShape"></path><polygon fill="#ced4da" points="19.203 12.26 19.669 11.989 19.669 17.007 19.203 17.278" class="colorced8da svgShape"></polygon><path fill="#cfd6dd" d="M19.2025,12.2604v5.018c-0.0028,0.9905-0.7021,1.389-1.564,0.8914
								c-0.8618-0.4976-1.5566-1.7009-1.5538-2.6914v-5.018L19.2025,12.2604z" class="colorcfd8dd svgShape"></path></g><g fill="#010001" class="color000000 svgShape"><path fill="#a50b89" d="M22.3322,19.808l-0.4664,0.271c0.2797-0.1626,0.453-0.5085,0.4544-1.0006l0.4663-0.271
								C22.7852,19.2995,22.6119,19.6455,22.3322,19.808z" class="colorca4743 svgShape"></path><polygon fill="#df2fbf" points="22.32 14.06 22.787 13.789 22.787 18.807 22.32 19.078" class="colordf362f svgShape"></polygon><path fill="#ee4fd1" d="M22.3203,14.0604v5.018c-0.0028,0.9905-0.7021,1.389-1.564,0.8914
								c-0.8618-0.4976-1.5566-1.7009-1.5538-2.6914v-5.018L22.3203,14.0604z" class="coloree534f svgShape"></path></g><g fill="#010001" class="color000000 svgShape"><path fill="#b0b6bc" d="M25.4499,21.608l-0.4664,0.271c0.2797-0.1626,0.453-0.5085,0.4544-1.0006l0.4663-0.271
								C25.903,21.0995,25.7297,21.4455,25.4499,21.608z" class="colorb0b8bc svgShape"></path><polygon fill="#ced4da" points="25.438 15.861 25.904 15.589 25.904 20.607 25.438 20.878" class="colorced8da svgShape"></polygon><path fill="#cfd6dd" d="M25.438,15.8605v5.018c-0.0028,0.9905-0.7021,1.389-1.564,0.8914
								c-0.8618-0.4976-1.5566-1.7009-1.5538-2.6914v-5.018L25.438,15.8605z" class="colorcfd8dd svgShape"></path></g><g fill="#010001" class="color000000 svgShape"><path fill="#a50b89" d="M29.021,17.392v5.02c0,0.4902-0.17,0.8301-0.45,1l-0.47,0.27c0.28-0.1699,0.45-0.5098,0.45-1
								l0.01-5.02L29.021,17.392z" class="colorca4743 svgShape"></path><polygon fill="#a50b89" points="33.518 14.782 33.518 15.323 29.021 17.934 29.021 17.395" class="colorca4743 svgShape"></polygon><g fill="#010001" class="color000000 svgShape"><path fill="#ee4fd1" d="M28.5572,17.6607l-0.0014,5.0177c-0.0028,0.9905-0.7021,1.389-1.564,0.8914
								c-0.8618-0.4976-1.5566-1.7009-1.5538-2.6914v-5.018L28.5572,17.6607z" class="coloree534f svgShape"></path></g></g><polygon fill="#f172da" points="33.518 14.782 28.557 17.661 25.442 15.863 30.4 12.983" class="colorf17572 svgShape"></polygon><g fill="#010001" class="color000000 svgShape"><polygon fill="#dde2e7" points="30.4 12.983 25.442 15.863 22.325 14.063 27.282 11.183" class="colordde4e7 svgShape"></polygon></g><g fill="#010001" class="color000000 svgShape"><polygon fill="#f172da" points="27.282 11.183 22.325 14.063 19.207 12.263 24.165 9.383" class="colorf17572 svgShape"></polygon></g><g fill="#010001" class="color000000 svgShape"><polygon fill="#dde2e7" points="24.165 9.383 19.207 12.263 16.085 10.46 21.043 7.581" class="colordde4e7 svgShape"></polygon></g><polygon fill="#a50b89" points="33.518 15.323 29.011 22.412 29.021 17.934" class="colorca4743 svgShape"></polygon><g fill="#010001" class="color000000 svgShape"><g fill="#010001" class="color000000 svgShape"><path fill="#82c0fe" d="M29.4456,37.8977c0,0.6602-0.22,1.1401-0.6,1.3599l-0.71,0.4102c0.38-0.2202,0.61-0.6997,0.61-1.3599
						c0-1.3398-0.94-2.9902-2.12-3.6699l-3.97-2.29c-0.59-0.3403-1.12-0.3799-1.51-0.1602l0.7-0.4102
						c0.4-0.2197,0.93-0.1797,1.51,0.1602l3.97,2.29C28.5156,34.9075,29.4556,36.5579,29.4456,37.8977z" class="colorfee182 svgShape"></path><path fill="#4ca5fe" d="M26.6257,34.6359c1.1812,0.6819,2.123,2.328,2.1192,3.6706c-0.0019,0.6751-0.2335,1.1585-0.6242,1.3739
						c-0.3843,0.2191-0.9214,0.1809-1.5088-0.1583l-3.9713-2.2928c-1.1684-0.6746-2.123-2.3205-2.1192-3.6706
						c0.0019-0.6675,0.2399-1.1548,0.6242-1.3739c0.3907-0.2154,0.9214-0.1809,1.5088,0.1583L26.6257,34.6359z" class="colorfed44c svgShape"></path><path fill="#f4f6f8" d="M26.1957,41.8777c0.3842,0.2218,0.6906,0.7573,0.6894,1.1941
						c-0.0013,0.4576-0.3215,0.6104-0.6939,0.3955l-2.2062-1.2561c-0.3801-0.2194-0.6906-0.7549-0.6894-1.1941
						c0.0013-0.4484,0.3162-0.6135,0.6939-0.3955L26.1957,41.8777z" class="color3f535c svgShape"></path></g></g><g fill="#010001" class="color000000 svgShape"><path fill="#f4f6f8" d="M32.9116,9.7128c0.2873,0.1659,0.2954,0.4349,0.0101,0.6007c-0.2856,0.166-0.7566,0.166-1.0439,0.0001
				c-0.2873-0.1659-0.2825-0.435,0.0032-0.601C32.1663,9.5468,32.6243,9.5469,32.9116,9.7128z" class="color3f535c svgShape"></path></g><g fill="#010001" class="color000000 svgShape"><path fill="#f4f6f8" d="M23.5712 35.4267c.0689.1334.1032.2681.1028.406-.0004.152-.0456.2595-.1355.3246-.1082.0711-.2896.0344-.55-.116l-.8303-.4794.0062-2.1795.7387.4265c.1282.074.2401.1573.3316.2453.0935.0891.1626.1781.2072.2625.0872.1628.1296.3161.1292.4564-.0005.1706-.0476.27-.1415.3-.0347.0081-.0571.0139-.0714.0127-.0122-.0001-.0346-.0013-.0673-.0036C23.4088 35.1807 23.5023 35.2955 23.5712 35.4267zM23.2522 35.7906c.0632-.008.094-.0699.0943-.1892.0005-.1917-.1335-.3674-.4042-.5237l-.4599-.2655-.0017.5963.5006.289C23.0994 35.7656 23.189 35.7962 23.2522 35.7906M22.485 33.9094l-.0016.5636.407.235c.23.1328.3462.1085.3467-.0715.0003-.1029-.0259-.193-.0828-.2726-.0548-.0785-.1423-.1501-.2603-.2183L22.485 33.9094M25.3499 35.7438l-.0047 1.6581-.3053-.1762.0009-.3017c-.0491.0747-.1165.1155-.2022.1245-.0856.0091-.1793-.0169-.2791-.0744-.1628-.094-.2929-.2253-.3943-.3986-.0994-.1721-.1498-.3676-.1492-.5828l.0029-1.0173.3053.1762-.0026.9097c-.0009.3064.1086.5218.3284.6487.1058.0611.1975.0743.2751.0394.0776-.0349.1166-.1294.117-.2838l.0025-.898L25.3499 35.7438zM27.1082 36.759l-.7057 1.5671c-.043.0829-.1023.1331-.1798.1516-.0775.0184-.1651-.0017-.2587-.0557-.1323-.0764-.2502-.2007-.3577-.3729l.1392-.203c.0629.1042.1279.1769.1971.2169.0672.0388.1222.0425.1651.0109.0429-.0314.0634-.0804.0636-.1483.0001-.028-.1916-.7079-.5772-2.0408l.3256.188.428 1.4721.4349-.9739L27.1082 36.759z" class="colorffffff svgShape"></path></g></svg>