<svg xmlns="http://www.w3.org/2000/svg" enable-background="new 0 0 52 52" viewBox="0 0 52 52" id="Recommended"><g fill="#010001" class="color000000 svgShape"><polygon fill="#6822a2" points="34.343 42.182 30.693 40.06 26.004 29.944 29.655 32.065" class="colorffd651 svgShape"></polygon><polygon fill="#f4f6f8" points="34.343 42.182 30.693 40.06 28.825 36.029 32.475 38.15" class="colorddb040 svgShape"></polygon><polygon fill="#bf32a5" points="29.655 32.065 26.983 30.512 32.709 24.423 35.38 25.975" class="colorbf3f32 svgShape"></polygon><polygon fill="#489bef" points="35.38 25.975 40.068 36.094 36.033 36.641 34.343 42.182 29.655 32.065" class="colorefc348 svgShape"></polygon></g><g fill="#010001" class="color000000 svgShape"><polygon fill="#ce3ab3" points="22.709 49.469 19.059 47.347 17.344 43.772 20.994 45.894" class="colorcea03a svgShape"></polygon><polygon fill="#a50b89" points="21.813 33.809 18.162 31.687 23.904 31.157 27.554 33.278" class="colorb63c2f svgShape"></polygon><polygon fill="#6822a2" points="16.969 50 13.319 47.879 18.162 31.687 21.813 33.809" class="colorffd651 svgShape"></polygon><polygon fill="#f4f6f8" points="16.969 50 13.319 47.879 15.182 41.651 18.832 43.772" class="colorddb040 svgShape"></polygon><polygon fill="#489bef" points="21.813 33.809 27.554 33.278 22.709 49.469 20.994 45.894 16.969 50" class="colorefc348 svgShape"></polygon></g><g fill="#010001" class="color000000 svgShape"><polygon fill="#790879" points="28.33 36.391 24.456 34.14 21.696 32.534 25.57 34.785" class="color796208 svgShape"></polygon><polygon fill="#96097c" points="38.541 12.318 34.667 10.067 37.456 11.623 41.33 13.874" class="color967a09 svgShape"></polygon><polygon fill="#f25ad6" points="21.802 38.15 17.229 35.493 16.227 31.714 20.801 34.372" class="colorf25a5a svgShape"></polygon><polygon fill="#fc7ee5" points="35.774 8.437 31.201 5.779 34.989 4.73 39.562 7.388" class="colorfc7e7e svgShape"></polygon><polygon fill="#f25ad6" points="17.011 35.423 12.438 32.765 13.459 27.835 18.032 30.492" class="colorf25a5a svgShape"></polygon><polygon fill="#fc7ee5" points="31.006 8.023 26.432 5.365 30.201 2 34.774 4.658" class="colorfc7e7e svgShape"></polygon><rect width="5.512" height="5.289" x="11.586" y="22.579" fill="#fc7ee5" transform="rotate(-59.838 14.342 25.223)" class="colorfc7e7e svgShape"></rect><polygon fill="#f25ad6" points="25.503 11.198 20.93 8.54 23.672 3.76 28.245 6.418" class="colorf25a5a svgShape"></polygon><polygon fill="#fc7ee5" points="16.968 20.431 12.395 17.773 16.178 14.452 20.752 17.11" class="colorfc7e7e svgShape"></polygon><polygon fill="#f25ad6" points="18.014 24.17 13.441 21.512 12.395 17.773 16.968 20.431" class="colorf25a5a svgShape"></polygon><polygon fill="#fc7ee5" points="21.727 12.189 17.154 9.531 20.93 8.54 25.503 11.198" class="colorfc7e7e svgShape"></polygon><polygon fill="#dd4ac2" points="28.245 6.418 31.006 8.023 34.774 4.658 35.774 8.437 39.562 7.388 38.541 12.318 41.33 13.874 38.559 18.641 39.605 22.378 35.823 25.698 34.846 30.619 31.071 31.609 28.33 36.391 25.57 34.785 21.802 38.15 20.801 34.372 17.011 35.423 18.032 30.492 15.244 28.935 18.014 24.17 16.968 20.431 20.752 17.11 21.727 12.189 25.503 11.198" class="colordd4a4a svgShape"></polygon><polygon fill="#f25ad6" points="20.752 17.11 16.178 14.452 17.154 9.531 21.727 12.189" class="colorf25a5a svgShape"></polygon></g><path fill="#f4f6f8" d="M36.6455,14.3405c-0.3298-1.4223-1.0042-2.4927-1.9259-3.1642
							c0.32771,0.5324,0.5813,1.1592,0.7473,1.8751c0.1508,0.6358,0.2263,1.3362,0.2263,2.1017
							c0.0216,5.4535-3.8154,12.0931-8.5579,14.82c-2.5576,1.4843-4.858,1.5187-6.4371,0.3825
							c1.4427,2.3216,4.3135,2.8233,7.6157,0.9066c4.7424-2.7269,8.5794-9.3665,8.5579-14.8199
							C36.8718,15.6768,36.7963,14.9764,36.6455,14.3405z" class="colorffffff svgShape"></path><path fill="#c0c2c4" d="M27.1353,29.9731c4.7425-2.7269,8.5795-9.3665,8.5579-14.82c0-0.7655-0.0755-1.4659-0.2263-2.1017
							c-0.166-0.7159-0.4196-1.3427-0.7473-1.8751c-1.5788-1.1497-3.8871-1.1218-6.4595,0.3618
							c-4.7425,2.7378-8.5687,9.377-8.5579,14.8199c0,0.1295,0.0108,0.2586,0.0108,0.3773c0.0523,1.4789,0.4078,2.691,0.9852,3.6203
							C22.2773,31.4918,24.5777,31.4574,27.1353,29.9731z" class="colorc4c2c0 svgShape"></path><path fill="#f4f6f8" d="M19.7291,20.2499c-0.5617,0.1839-1.0724,0.5005-1.4809,0.9192c-0.4085,0.3982-0.7252,0.9089-0.909,1.4707
				c-0.0613,0.1837-0.3064,0.1837-0.3676,0c-0.3678-1.1337-1.2665-2.0222-2.39-2.3899c-0.194-0.0612-0.194-0.3064,0-0.3676
				c0.572-0.1839,1.0724-0.5005,1.481-0.909c0.4085-0.4086,0.7251-0.909,0.909-1.481c0.0612-0.1838,0.3063-0.1838,0.3676,0
				c0.1838,0.572,0.5005,1.0724,0.909,1.481c0.4085,0.4085,0.9192,0.7251,1.4809,0.909
				C19.913,19.9435,19.913,20.1887,19.7291,20.2499z" class="colorffffff svgShape"></path><g fill="#010001" class="color000000 svgShape"><path fill="#f4f6f8" d="M28.5439,14.5985c0.2214-0.1154,0.4029-0.127,0.4044-0.127c0.5246-0.0442,0.7902,0.4619,0.7932,1.5026
					c0,0.0165,0,0.0332-0.0001,0.05c-0.0038,0.8277-0.1775,1.6833-0.179,1.6922c-0.0027,0.0129-0.0038,0.0252-0.0035,0.0365
					c0.0007,0.0249,0.0082,0.0454,0.0215,0.0578c0.0201,0.0186,0.051,0.0185,0.0842-0.0007l3.0231-1.7454
					c0.3193-0.1843,0.5808-0.0361,0.5819,0.3316c0.001,0.3712-0.2604,0.8178-0.5781,1.0012l-0.3069,0.1773
					c-0.0579,0.0333-0.1048,0.1155-0.1046,0.1819c0.0002,0.0665,0.0474,0.0943,0.1053,0.0609
					c0.32-0.1848,0.5807-0.0362,0.5818,0.3315c0.001,0.3693-0.2573,0.8161-0.5781,1.0013l-0.3061,0.1767
					c-0.05859,0.0339-0.1055,0.1151-0.1053,0.1825c0.0001,0.0664,0.0473,0.0933,0.1059,0.0595
					c0.3193-0.1844,0.5808-0.0353,0.5819,0.3315c0.001,0.3695-0.2605,0.8188-0.57809,1.0022l-0.3069,0.1772
					c-0.0579,0.0334-0.1055,0.115-0.1053,0.1815c0.0002,0.0674,0.0481,0.0938,0.106,0.0604c0.32-0.1848,0.5808-0.0362,0.5818,0.3316
					c0.0011,0.3692-0.2572,0.816-0.578,1.0012l-4.5748,2.6413c-0.3725,0.215-0.6127,0.2392-0.7522,0.0747l-0.0138-4.8775
					l1.2526-2.8463c0.1028-0.2343,0.157-0.4697,0.1564-0.6806l-0.0039-1.3727c-0.0004-0.14,0.0524-0.27,0.1164-0.3947
					C28.0996,14.9379,28.2902,14.7312,28.5439,14.5985z" class="colorffffff svgShape"></path><path fill="#f4f6f8" d="M28.5602,14.3476c0.2522-0.1305,0.4538-0.1457,0.4739-0.1475c0.3421-0.028,0.5929,0.1441,0.7445,0.511
					c0.1183,0.285,0.1766,0.6881,0.1734,1.1985c-0.0036,0.6412-0.1014,1.2826-0.1539,1.5809l2.8889-1.6679
					c0.4358-0.2516,0.7917-0.0487,0.7931,0.452c0.0012,0.4354-0.2604,0.9336-0.5867,1.2192c0.1732,0.0678,0.2842,0.254,0.285,0.5331
					c0.0012,0.4303-0.2556,0.9271-0.5875,1.2198c0.1732,0.0668,0.2842,0.253,0.285,0.5322
					c0.0012,0.4302-0.2534,0.9262-0.5867,1.2201c0.1732,0.0669,0.2842,0.2531,0.285,0.5323c0.0015,0.5059-0.3557,1.116-0.7887,1.366
					l-4.5748,2.6413c-0.3245,0.1873-0.5736,0.2494-0.7545,0.1871c0.0017-0.0146,0.0026-0.0291,0.0026-0.0432l-0.0009-0.312
					c0.1395,0.1645,0.3797,0.1403,0.7514-0.0743l4.5756-2.6417c0.321-0.1854,0.5791-0.6323,0.578-1.0012
					c-0.001-0.3678-0.2618-0.5164-0.5818-0.3316c-0.0579,0.0334-0.1058,0.007-0.106-0.0604
					c-0.0002-0.0665,0.0474-0.1481,0.1053-0.1815l0.3069-0.1772c0.3119-0.1801,0.5792-0.626,0.57809-1.0022
					c-0.00109-0.3668-0.2626-0.5159-0.5819-0.3315c-0.0586,0.0338-0.1058,0.0069-0.1059-0.0595
					c-0.0002-0.0674,0.04671-0.1486,0.1053-0.1825l0.3061-0.1767c0.3211-0.1854,0.5791-0.6324,0.5781-1.0013
					c-0.0011-0.3677-0.2618-0.5163-0.5818-0.3315c-0.0579,0.0334-0.1051,0.0056-0.1053-0.0609
					c-0.0002-0.0664,0.0467-0.1486,0.1046-0.1819l0.3069-0.1773c0.318-0.1835,0.5791-0.6304,0.5781-1.0012
					c-0.0011-0.3677-0.2626-0.5159-0.5819-0.3316l-3.0231,1.7454c-0.0332,0.0192-0.0641,0.0193-0.0842,0.0007
					c-0.0133-0.0124-0.0208-0.0329-0.0215-0.0578c-0.0003-0.0113,0.0008-0.0236,0.0035-0.0365
					c0.0015-0.0089,0.1752-0.8645,0.179-1.6922c0.0001-0.0168,0.0001-0.0335,0.0001-0.05c-0.003-1.0407-0.2686-1.5468-0.7909-1.5031
					c-0.0038,0.0005-0.1853,0.0121-0.4067,0.1275c-0.0158,0.0082-0.0315,0.0168-0.0468,0.0257
					c-0.236,0.1428-0.4063,0.3307-0.5315,0.5745c-0.0639,0.1245-0.1168,0.2546-0.1164,0.3947l0.0039,1.3727
					c0.0006,0.2109-0.0536,0.4463-0.1564,0.6806l-1.2526,2.8463l-0.0011-0.3597c0-0.0209-0.0021-0.0401-0.0058-0.0576l1.0848-2.4649
					c0.079-0.1797,0.121-0.361,0.1205-0.5232l-0.0038-1.3727c-0.0004-0.1338,0.0324-0.2823,0.0961-0.4309
					C27.9048,14.8836,28.1797,14.5438,28.5602,14.3476z" class="colorffffff svgShape"></path></g><g fill="#010001" class="color000000 svgShape"><path fill="#5046e4" d="M26.1907,20.2319c0.0232-0.0134,0.0417-0.0028,0.0418,0.0229l0.0157,5.5492
				c0.0001,0.0257-0.0183,0.0577-0.0415,0.071l-2.7594,1.5932c-0.0231,0.0133-0.0417,0.0027-0.0417-0.023l-0.0158-5.5492
				c0-0.0257,0.0184-0.0576,0.0415-0.071L26.1907,20.2319z" class="color0074d1 svgShape"></path></g><g fill="#010001" class="color000000 svgShape"><path fill="#5046e4" d="M26.4372,20.0757c0.0037,0.0175,0.0058,0.0367,0.0058,0.0576l0.0011,0.3597l0.0138,4.8775l0.0009,0.312
				c0.0004,0.1595-0.1126,0.3552-0.2514,0.4354L23.448,27.711c-0.1396,0.0806-0.2525,0.0153-0.253-0.1442l-0.0157-5.5492
				c-0.0005-0.1595,0.1118-0.3548,0.2514-0.4354l2.7593-1.5931C26.3107,19.9194,26.4124,19.9593,26.4372,20.0757z M26.2482,25.804
				l-0.0157-5.5492c-0.0001-0.0257-0.0186-0.0363-0.0418-0.0229l-2.7594,1.5931c-0.0231,0.0134-0.0415,0.0453-0.0415,0.071
				l0.0158,5.5492c0,0.0257,0.0186,0.0363,0.0417,0.023l2.7594-1.5932C26.2299,25.8617,26.2483,25.8297,26.2482,25.804" class="color0074d1 svgShape"></path></g><g fill="#010001" class="color000000 svgShape"><path fill="#f4f6f8" d="M25.45,25.113c0,0.3999-0.2799,0.8899-0.63,1.0898c-0.3499,0.2001-0.63,0.0401-0.63-0.3598
				c0-0.4001,0.2801-0.8902,0.63-1.0901C25.1701,24.5529,25.45,24.7128,25.45,25.113z" class="colorffffff svgShape"></path></g></svg>