<svg xmlns="http://www.w3.org/2000/svg" enable-background="new 0 0 67 67" viewBox="0 0 67 67" id="Interview"><polygon fill="#f4f6f8" points="41.152 45.168 41.134 50.278 26.402 58.836 26.42 53.744" class="colorcfd2d3 svgShape"></polygon><polygon fill="#f4f6f8" points="24.616 52.417 37.924 44.683 40.304 46.248 26.995 53.982" class="coloreaf0f6 svgShape"></polygon><polygon fill="#a2a2a5" points="31.925 61.988 46.666 53.421 46.659 56.933 31.918 65.5" class="colora2a4a5 svgShape"></polygon><polygon fill="#b6b8ba" points="26.398 58.849 41.139 50.282 46.666 53.421 31.925 61.988" class="colorb6b9ba svgShape"></polygon><polygon fill="#929093" points="26.412 53.749 26.398 58.849 31.925 61.988 31.918 65.5 23.217 60.308 23.238 51.696" class="color909293 svgShape"></polygon><polygon fill="none" points="46.667 53.415 46.653 56.94 31.924 65.494 23.221 60.313 23.235 51.701 37.979 43.133 41.155 45.176 41.14 50.277"></polygon><path fill="#6822a2" d="M54.2033882,4.1507511c-0.3911934-0.2119133-1.060318-0.1929369-1.6797409,0.1819401
									L15.3468952,25.7951946c-1.2550631,0.7172203-2.2819958,2.4940071-2.2819958,3.9284496l0.0814819,27.1074677v2.5918083
									c0.0163164,0.7172203,0.2607622,1.2225266,0.668273,1.4507561l-0.668273-0.3911934l-3.6414757-2.0728683
									c-0.4238262-0.2607613-0.668272-0.7660713-0.668272-1.4832916l-0.0163164-2.575489L8.7551508,27.2269497
									c0-1.4344425,1.0269337-3.1948128,2.2656794-3.9283504L48.2509804,1.8146887
									c0.6357384-0.3586605,1.2062111-0.4075099,1.6137199-0.1630636L54.2033882,4.1507511z" class="color494948 svgShape"></path><path fill="#383638" d="M37.4051933,13.057766L15.3459072,25.7947636
									c-1.254982,0.7171288-2.2808714,2.4949951-2.2808714,3.9292526l0.0821753,27.1064091v2.5921249
									c0.0149393,0.7171288,0.2589569,1.2226105,0.667325,1.4516754l-0.667325-0.3909225l-3.6427679-2.0726166
									c-0.4233074-0.261467-0.667325-0.7669487-0.667325-1.4840775l-0.0174322-2.5746765L8.7549429,27.228075
									c0-1.4367352,1.0283823-3.1946926,2.2659168-3.9292526l22.1115837-12.7594147L37.4051933,13.057766z" class="color383736 svgShape"></path><path fill="#2d2b2d" d="M13.0650358,29.7240162l0.0821753,27.1064091l-4.3275251-2.4834785L8.7549429,27.228075
									c0-1.4367352,1.0283823-3.1946926,2.2659168-3.9292526l4.3250475,2.4959412
									C14.0909252,26.5118923,13.0650358,28.2897587,13.0650358,29.7240162z" class="color2d2c2b svgShape"></path><path fill="#211f21" d="M54.8834686,32.7125549l-41.7370872,24.118557l-0.0814819-27.1074677
									c0-1.4344425,1.0269327-3.194912,2.2819958-3.9284496L52.5770416,4.3112841
									c1.2551651-0.7335377,2.2819977-0.1467471,2.2819977,1.2876954L54.8834686,32.7125549z" class="color21201f svgShape"></path><path fill="#ffffff" d="M14.6005411,29.719183c0-0.8885307,0.7493172-2.1708698,1.5419188-2.6341019
									c0,0,28.8309593-16.6370239,35.7735405-20.6429939c0.6636543-0.3829393,1.4914131,0.09443,1.4921112,0.8606424
									c0.0053444,5.8407393,0.0222321,24.5480499,0.0222321,24.5480499L14.6742201,54.2467804L14.6005411,29.719183z" class="colorffffff svgShape"></path><path fill="#c0c2c4" d="M13.8146544,60.8736763l-0.668273-0.3911934l-3.6423149-2.0761642
									c-0.0977983-0.0651665-0.1955967-0.1466484-0.2770786-0.2444496
									c-0.2608624-0.2771759-0.3911934-0.701004-0.3911934-1.2225266L8.819478,54.3475342l4.3269033,2.4835777v2.5918083
									C13.1626978,60.1401405,13.4071436,60.6454468,13.8146544,60.8736763z" class="colorc4c2c0 svgShape"></path><path fill="#afb0b2" d="M13.8144083,60.8703079l-0.6633892-0.384819l-3.6497898-2.0793953
									c-0.0928841-0.0662422-0.199049-0.1457634-0.2786522-0.2387276c-0.2520914-0.2785721-0.384737-0.7032318-0.384737-1.2338142
									l4.313179,2.4904518C13.1643,60.1405144,13.4031105,60.6446953,13.8144083,60.8703079z" class="colorb2b0af svgShape"></path><path fill="#e6e7e9" d="M54.8834686,32.7125549l0.0073318,2.5858574
									c0.0041008,1.4461708-1.0117302,3.2056084-2.2702789,3.9322319L15.439353,60.6972008
									c-1.2653799,0.7305679-2.2878504,0.1479454-2.2919502-1.2982254l-0.0073318-2.5858574L54.8834686,32.7125549z" class="colore9e8e6 svgShape"></path><path fill="#c0c2c4" d="M35.5001602,46.3677025c0,1.0051384-0.6991348,2.1848869-1.5584755,2.6948357
									c-0.8594284,0.4951935-1.5585632,0.1018829-1.5585632-0.8886757c0-1.0049629,0.6845551-2.213871,1.5585632-2.7090645
									C34.8010254,44.9840088,35.5001602,45.3918991,35.5001602,46.3677025z" class="colorc4c2c0 svgShape"></path><g fill="#010001" class="color000000 svgShape"><g fill="#010001" class="color000000 svgShape"><path fill="#72a4d6" d="M17.211731,29.4499702l1.4749699,0.857172
								c-0.1336918-0.0777073-0.3187504-0.0669289-0.5227089,0.050827l-1.4749756-0.8571625
								C16.8929749,29.3830509,17.0780315,29.3722725,17.211731,29.4499702z" class="color81d672 svgShape"></path><path fill="#9a2c9a" d="M5.840198,48.0232086l-1.4749846-0.8571625
								c-0.1306949-0.0759583-0.2117267-0.2371101-0.212379-0.4671898l1.4749765,0.8571625
								C5.6284628,47.7860985,5.7094946,47.9472504,5.840198,48.0232086z" class="color2c9a2c svgShape"></path><polygon fill="#9a2c9a" points="5.628 47.556 4.153 46.699 4.127 37.599 5.602 38.456" class="color2c9a2c svgShape"></polygon><polygon fill="#7f3db5" points="6.335 37.188 4.86 36.331 16.689 29.501 18.164 30.358" class="color3db542 svgShape"></polygon><path fill="#9a2c9a" d="M5.6020136,38.4564514L4.127037,37.5992851
								c-0.0013204-0.4657059,0.3271856-1.0347176,0.7324886-1.2687187l1.4749761,0.8571625
								C5.9291987,37.42173,5.6006932,37.9907417,5.6020136,38.4564514z" class="color2c9a2c svgShape"></path><path fill="#9a60cb" d="M18.1639919,30.3579693c0.405304-0.2340012,0.7359715-0.0455647,0.7372913,0.4201431
								l0.0257988,9.0995693c0.0013199,0.4657059-0.3272152,1.0295906-0.7325191,1.2635918l-0.7838745,0.4525719
								l0.0079651,2.8097191l-2.4486923-1.4005661L6.3650723,47.971035
								c-0.4053025,0.2340012-0.7359414,0.0506897-0.7372613-0.4150162l-0.0257974-9.0995674
								c-0.0013204-0.4657097,0.3271852-1.0347214,0.7324882-1.2687225L18.1639919,30.3579693z" class="color6dcb60 svgShape"></path></g><g fill="#010001" class="color000000 svgShape"><path fill="#5046e4" d="M61.1597862,5.5118346l1.4749718,0.8571649
							c-0.1338501-0.0777903-0.3197975-0.0662208-0.5248528,0.0521698l-1.4749794-0.8571625
							C60.8399849,5.4456162,61.0259323,5.4340467,61.1597862,5.5118346z" class="color3f9ae0 svgShape"></path><polygon fill="#5046e4" points="51.103 26.386 49.628 25.529 49.62 22.719 51.095 23.577" class="color3f9ae0 svgShape"></polygon><path fill="#0b00b5" d="M49.7860794,24.0812798L48.3111,23.2241268
							c-0.1306992-0.0759659-0.211731-0.2371197-0.2123833-0.4671974l1.4749756,0.8571625
							C49.5743446,23.8441696,49.6553764,24.0053234,49.7860794,24.0812798z" class="color006cb5 svgShape"></path><polygon fill="#0d00d1" points="49.574 23.614 48.099 22.757 48.073 13.657 49.548 14.515" class="color0074d1 svgShape"></polygon><polygon fill="#0d00d1" points="50.28 13.251 48.805 12.394 60.635 5.564 62.11 6.421" class="color0074d1 svgShape"></polygon><path fill="#0b00b5" d="M49.5478935,14.5145912l-1.4749756-0.8571625
							c-0.0013199-0.4657764,0.3272018-1.0296516,0.732502-1.2636538l1.4749794,0.8571634
							C49.8750954,13.4849396,49.5465736,14.0488148,49.5478935,14.5145912z" class="color006cb5 svgShape"></path><path fill="#0a009b" d="M62.1099052,6.4211693c0.4053001-0.2340016,0.735939-0.0506921,0.7372589,0.4150844l0.0257988,9.0995007
							c0.0013199,0.4657068-0.3272018,1.029582-0.732502,1.2635832l-8.6048889,4.9680367l-2.4327621,4.218874l-0.0079651-2.8097191
							l-0.7838898,0.4525776c-0.405304,0.2340012-0.7359428,0.0506916-0.7372627-0.4150143l-0.0257988-9.0995007
							c-0.0013199-0.4657764,0.3272018-1.0296516,0.7325058-1.2636528L62.1099052,6.4211693z" class="color00649b svgShape"></path></g><g fill="#010001" class="color000000 svgShape"><path fill="#e6e7e9" d="M60.9618416,11.2069826l0.6648788,0.3863859
								c-0.2058678-0.1196384-0.4909935-0.1027241-0.8057747,0.0790138l-0.6648788-0.386385
								C60.4708481,11.1042595,60.7559738,11.0873451,60.9618416,11.2069826z" class="colore9e8e6 svgShape"></path><path fill="#d2d4d6" d="M60.0233307,14.3532925l-0.6648788-0.386385
								c-0.203331-0.118166-0.3294411-0.3694296-0.330452-0.7263508c-0.0020409-0.7187901,0.503109-1.5937395,1.128067-1.9545593
								l0.6648788,0.386385c-0.624958,0.3608198-1.1301079,1.2357702-1.128067,1.9545593
								C59.6938896,13.9838638,59.8199959,14.2351274,60.0233307,14.3532925z" class="colord6d4d2 svgShape"></path><path fill="#e6e7e9" d="M60.0186501,14.3470449l-0.6556587-0.3782787
								c-0.2018013-0.1260681-0.3278694-0.3656578-0.3404922-0.7313919l0.6683578,0.3909016
								C59.6908569,13.9813881,59.816925,14.2335997,60.0186501,14.3470449z" class="colore9e8e6 svgShape"></path><path fill="#c0c2c4" d="M60.8209457,11.6723824c0.6255417-0.3611565,1.1339836-0.0714045,1.1360207,0.6473856
								c0.002037,0.7181311-0.5031013,1.5937347-1.128643,1.9548912c-0.624958,0.3608198-1.1334114,0.0704136-1.1354446-0.6477175
								C59.6908379,12.9081526,60.1959877,12.0332022,60.8209457,11.6723824z" class="colorc4c2c0 svgShape"></path></g><g fill="#010001" class="color000000 svgShape"><path fill="#e6e7e9" d="M53.345459,15.615016l0.6648788,0.3863859
								c-0.2058716-0.1196384-0.4909973-0.1027241-0.8057747,0.0790138l-0.6648788-0.3863859
								C52.8544617,15.5122919,53.1395912,15.4953785,53.345459,15.615016z" class="colore9e8e6 svgShape"></path><path fill="#d2d4d6" d="M52.4069481,18.7613258l-0.6648788-0.386385
								c-0.2033348-0.118166-0.3294449-0.3694305-0.3304558-0.7263508c-0.002037-0.7187901,0.5031128-1.5937405,1.1280708-1.9545603
								l0.6648788,0.3863859c-0.624958,0.3608189-1.1301079,1.2357693-1.1280708,1.9545593
								C52.0775032,18.3918972,52.2036133,18.6431599,52.4069481,18.7613258z" class="colord6d4d2 svgShape"></path><path fill="#e6e7e9" d="M52.4022636,18.7550774l-0.6556587-0.3782787
								c-0.2017975-0.1260681-0.3278656-0.3656578-0.3404884-0.7313919l0.6683578,0.3909016
								C52.0744743,18.3894215,52.2005424,18.6416321,52.4022636,18.7550774z" class="colore9e8e6 svgShape"></path><path fill="#c0c2c4" d="M53.2045631,16.0804157c0.6255417-0.3611574,1.1339836-0.0714054,1.1360207,0.6473846
								c0.002037,0.718132-0.5031013,1.5937347-1.128643,1.9548912c-0.624958,0.3608208-1.1334114,0.0704136-1.1354485-0.6477165
								C52.0744553,17.316185,52.5796051,16.4412346,53.2045631,16.0804157z" class="colorc4c2c0 svgShape"></path></g><g fill="#010001" class="color000000 svgShape"><path fill="#e6e7e9" d="M57.1536484,13.4109993l0.6648788,0.3863859
								c-0.2058678-0.1196384-0.4909935-0.1027241-0.8057747,0.0790138l-0.6648788-0.386385
								C56.6626549,13.3082762,56.9477806,13.2913618,57.1536484,13.4109993z" class="colore9e8e6 svgShape"></path><path fill="#d2d4d6" d="M56.2151413,16.5573082l-0.6648788-0.3863831
								c-0.2033348-0.118166-0.3294449-0.3694305-0.3304558-0.7263517c-0.002037-0.7187901,0.503109-1.5937395,1.128067-1.9545593
								l0.6648788,0.386385c-0.624958,0.3608198-1.1301041,1.2357693-1.128067,1.9545593
								C55.8856964,16.1878796,56.0118065,16.4391441,56.2151413,16.5573082z" class="colord6d4d2 svgShape"></path><path fill="#e6e7e9" d="M56.2104568,16.5510616l-0.6556587-0.3782787
								c-0.2018013-0.1260681-0.3278656-0.3656578-0.3404884-0.7313919l0.6683578,0.3909016
								C55.8826675,16.1854038,56.0087357,16.4376163,56.2104568,16.5510616z" class="colore9e8e6 svgShape"></path><path fill="#c0c2c4" d="M57.0127525,13.876399c0.6255417-0.3611574,1.1339874-0.0714045,1.1360245,0.6473856
								c0.0020332,0.7181311-0.5031052,1.5937347-1.1286469,1.9548912c-0.624958,0.3608189-1.1334076,0.0704136-1.1354446-0.6477175
								C55.8826485,15.1121683,56.3877945,14.2372189,57.0127525,13.876399z" class="colorc4c2c0 svgShape"></path></g><g fill="#010001" class="color000000 svgShape"><g fill="#010001" class="color000000 svgShape"><path fill="#e6e7e9" d="M16.3673515,35.6587334l0.6648769,0.3863831
								c-0.2058678-0.1196365-0.4909954-0.1027222-0.8057747,0.0790138l-0.6648779-0.3863831
								C15.8763552,35.5560074,16.1614819,35.539093,16.3673515,35.6587334z" class="colore9e8e6 svgShape"></path><path fill="#d2d4d6" d="M15.4288406,38.8050423l-0.6648788-0.3863869
								c-0.2033339-0.1181641-0.329443-0.3694267-0.3304548-0.7263489c-0.002038-0.718792,0.5031109-1.5937424,1.1280689-1.9545593
								l0.6648779,0.3863831c-0.624958,0.3608208-1.130106,1.2357712-1.128068,1.9545593
								C15.0993977,38.4356117,15.2255058,38.6868744,15.4288406,38.8050423z" class="colord6d4d2 svgShape"></path><path fill="#e6e7e9" d="M15.4241581,38.7987938l-0.6556587-0.3782806
								c-0.2018003-0.1260681-0.3278675-0.3656578-0.3404903-0.7313919l0.6683578,0.3909035
								C15.0963669,38.433136,15.222435,38.6853485,15.4241581,38.7987938z" class="colore9e8e6 svgShape"></path><path fill="#c0c2c4" d="M16.2264538,36.1241302c0.6255436-0.3611565,1.1339855-0.0714035,1.1360226,0.6473885
								c0.002037,0.7181282-0.5031033,1.5937309-1.1286449,1.9548874c-0.624958,0.3608208-1.1334095,0.0704155-1.1354456-0.6477165
								C15.0963478,37.3599014,15.6014957,36.484951,16.2264538,36.1241302z" class="colorc4c2c0 svgShape"></path></g><g fill="#010001" class="color000000 svgShape"><path fill="#e6e7e9" d="M8.750967,40.0667648l0.6648779,0.3863869c-0.2058687-0.1196404-0.4909954-0.102726-0.8057747,0.0790138
								l-0.6648784-0.3863869C8.2599707,39.9640427,8.5450983,39.9471283,8.750967,40.0667648z" class="colore9e8e6 svgShape"></path><path fill="#d2d4d6" d="M7.8124566,43.2130737l-0.6648788-0.3863831
								c-0.2033343-0.1181679-0.329443-0.3694305-0.3304548-0.7263527c-0.002038-0.7187881,0.5031104-1.5937386,1.1280689-1.9545593
								l0.6648784,0.3863869c-0.624958,0.360817-1.1301064,1.2357674-1.1280689,1.9545593
								C7.4830132,42.8436432,7.6091223,43.0949097,7.8124566,43.2130737z" class="colord6d4d2 svgShape"></path><path fill="#e6e7e9" d="M7.8077741,43.2068253l-0.6556587-0.3782768
								c-0.2018003-0.1260681-0.327868-0.3656578-0.3404899-0.7313919l0.6683574,0.3908997
								C7.4799829,42.8411674,7.6060505,43.09338,7.8077741,43.2068253z" class="colore9e8e6 svgShape"></path><path fill="#c0c2c4" d="M8.6100702,40.5321655c0.6255426-0.3611603,1.1339846-0.0714073,1.1360226,0.6473846
								c0.0020361,0.718132-0.5031033,1.5937347-1.1286449,1.9548912c-0.624958,0.3608208-1.1334105,0.0704117-1.1354465-0.6477165
								C7.4799638,41.7679329,7.9851122,40.8929825,8.6100702,40.5321655z" class="colorc4c2c0 svgShape"></path></g><g fill="#010001" class="color000000 svgShape"><path fill="#e6e7e9" d="M12.5591583,37.8627472l0.6648788,0.3863869
								c-0.2058687-0.1196404-0.4909954-0.102726-0.8057747,0.0790138l-0.6648788-0.3863869
								C12.0681629,37.760025,12.3532896,37.7431107,12.5591583,37.8627472z" class="colore9e8e6 svgShape"></path><path fill="#d2d4d6" d="M11.6206484,41.0090561l-0.6648788-0.3863831
								c-0.2033339-0.1181679-0.329443-0.3694305-0.3304548-0.7263527c-0.002038-0.7187881,0.5031109-1.5937386,1.1280689-1.9545593
								l0.6648788,0.3863869c-0.624958,0.3608208-1.1301069,1.2357674-1.1280689,1.9545593
								C11.2912054,40.6396294,11.4173145,40.890892,11.6206484,41.0090561z" class="colord6d4d2 svgShape"></path><path fill="#e6e7e9" d="M11.6159658,41.0028114l-0.6556587-0.3782806
								c-0.2018003-0.1260681-0.3278675-0.3656578-0.3404894-0.7313919l0.6683578,0.3909035
								C11.2881756,40.6371536,11.4142427,40.8893661,11.6159658,41.0028114z" class="colore9e8e6 svgShape"></path><path fill="#c0c2c4" d="M12.4182625,38.3281479c0.6255417-0.3611565,1.1339846-0.0714035,1.1360226,0.6473846
								c0.0020361,0.718132-0.5031033,1.5937347-1.1286449,1.9548912c-0.624958,0.3608208-1.1334105,0.0704155-1.1354465-0.6477165
								C11.2881556,39.5639153,11.7933044,38.6889687,12.4182625,38.3281479z" class="colorc4c2c0 svgShape"></path></g></g></g><g fill="#010001" class="color000000 svgShape"><path fill="#a50b89" d="M36.7872925,33.7031784c0.042469,0.0197067,0.0800781,0.0288506,0.1155891,0.0477829
							c0.6061859,0.3329124,1.1608086,0.9162369,2.0204887,1.5007973l-1.3103294,1.6377106l1.4274101,0.2204704l-1.828228,4.154377
							l-0.7547035,0.4357262l-1.2873497,0.7432518l1.1619911-6.8071175c0.1004677-0.576107,0.0867882-1.1100578-0.0492973-1.5272484
							c-0.0103569-0.030777-0.024971-0.0566597-0.0368729-0.0862427L36.7872925,33.7031784z" class="colorcc4848 svgShape"></path><path fill="#489bef" d="M32.1140404,34.447834c0.6244011,0.0600853,1.3171501-0.1057587,2.0463257-0.5267487
							c0.7291946-0.4210014,1.4206161-1.0542908,2.0426369-1.8339958l0.0033264,1.1736526
							c0.0007744,0.2728004-0.0293846,0.5538025-0.086071,0.8345375c-0.2472,1.2243462-0.9989548,2.4438705-1.8902321,2.9584503
							l-0.1213379,0.0700531c-0.8912811,0.5145798-1.6474648,0.1656685-1.9007912-0.7697029
							c-0.0580864-0.2144699-0.089756-0.459774-0.0905266-0.7325745L32.1140404,34.447834z" class="colorefc348 svgShape"></path><g fill="#010001" class="color000000 svgShape"><path fill="#f25ad6" d="M40.2756729,31.6961498c0.8165817-0.4714546,1.5415459-0.2504215,1.8002434,0.5456562
								l1.6992836,5.2333717L24.5970917,48.5476646l1.6641045-7.1752243
								c0.2533474-1.0917053,0.9771099-2.1491623,1.791256-2.6192093l3.4810867-2.0098076
								c-0.0253963,0.0425911-0.0798531,0.1257057-0.1052494,0.1682968
								c-0.6047401,1.0320358-1.1554756,2.2507515-2.0053921,3.8251419l1.3129005,0.1231842L29.316721,42.723938
								l1.8433495,2.0345879l0.7607594-0.4392242l4.5366898-2.6192589l0.7547035-0.4357262l1.828228-4.154377l-1.4274101-0.2204704
								l1.3103294-1.6377106c-0.8596802-0.5845604-1.4143028-1.1678848-2.0204887-1.5007973
								c-0.035511-0.0189323-0.0731201-0.0280762-0.1088715-0.0446739L40.2756729,31.6961498z" class="colorf25a5a svgShape"></path><path fill="#383638" d="M32.5635757,18.9052658c0.2038193-0.1176758,0.40839-0.2201881,0.6114464-0.3173046
								c0.7197189-0.3443108,1.4359474-0.6279564,2.1426544-0.8474407c0.717617-0.2243919,1.4305725-0.3846474,2.0808868-0.3425522
								c0.6503334,0.0434837,1.2368507,0.2997761,1.6163673,0.848732c0.4710579,0.6846485,0.5883827,1.7746143,0.5539322,2.9089184
								c-0.0154457,0.4776287-0.0586281,0.9670219-0.1274567,1.4645519
								c-0.1666603-0.0901604-0.370018-0.0824795-0.5889626,0.0439281c-0.2740936,0.158247-0.5225677,0.4730206-0.7048988,0.8563194
								c-0.0229149-0.2273636-0.045845-0.454689-0.0687752-0.6819572c-0.0437851-0.4425545-0.093689-0.8983269-0.3071404-1.1661072
								c-0.2427177-0.305357-0.6681061-0.3181095-1.0979347-0.1760845c-0.2865372,0.094677-0.579422,0.2513676-0.8725891,0.4206181
								c-0.1465988,0.0846386-0.2932396,0.1724072-0.4392624,0.2571774
								c-0.0197792,0.0115166-0.0396271,0.0230217-0.0594063,0.0344429
								c-0.8514366,0.4915771-1.7039146,0.8957615-2.5439644,1.2060699c-0.3459473,0.1278229-0.762888,0.2170601-1.152771,0.4421482
								c-0.2915039,0.1682911-0.5678406,0.4124832-0.7882042,0.8055611
								c-0.2309532,0.414032-0.3013611,0.8722439-0.3609276,1.2990513
								c-0.1025333,0.7369652-0.2050858,1.4736481-0.3076859,2.2103882
								c-0.1853733-0.1898136-0.4430847-0.2254086-0.7277584-0.0610523
								c-0.2275677,0.1313877-0.4374409,0.3703346-0.6065006,0.666853
								c-0.1196117-0.8155689-0.1553402-1.6963387-0.1015034-2.6265678
								c0.0382175-0.6658516,0.1273346-1.3792458,0.4036388-2.0889969c0.2559566-0.6646385,0.827364-1.2906208,1.3329887-1.5825443
								c0.0353661-0.0204182,0.0703735-0.0391808,0.1049595-0.0562325c-0.1833782-0.381506-0.0795193-1.0405731,0.1910839-1.6157494
								c0.2730408-0.5752029,0.689724-1.0629501,1.1201611-1.4203949
								C32.0950508,19.1964607,32.3288155,19.0408134,32.5635757,18.9052658z" class="color383736 svgShape"></path></g><path fill="#a50b89" d="M32.0977516,36.417675c-0.0072136,0.0306931-0.0458832,0.1074829-0.0518799,0.1374817
							c-0.1296272,0.5706024-0.1414413,1.1192703-0.040493,1.5790863l1.1955261,5.4460068l-1.2800751,0.7390518
							l-0.7607594,0.4392242L29.316721,42.723938l1.4190769-1.8638916l-1.3129005-0.1231842
							c0.8499165-1.5743904,1.4006519-2.7931061,2.0053921-3.8251419c0.0253963-0.0425911,0.0798531-0.1257057,0.1052494-0.1682968
							L32.0977516,36.417675z" class="colorcc4848 svgShape"></path><path fill="#eaecef" d="M36.3355331,35.6331978l-1.1641388,6.8024368v0.0101318l-1.9739418,1.1337395l-1.1944733-5.4460258
							c-0.101202-0.4555359-0.0911312-1.0122719,0.0404701-1.5791435c0.0101318-0.0303345,0.050663-0.1012001,0.050663-0.1417313
							l0.1113358-0.0607338c0.253067,0.9414024,1.0122719,1.2856026,1.9030762,0.7693367l0.1214676-0.0708694
							c0.8908005-0.5162659,1.6398735-1.7309418,1.8929405-2.9558144L36.2444,34.0236588
							c0.0101318,0.0303955,0.0303993,0.050602,0.0404701,0.0809975
							C36.4164696,34.5297928,36.4367332,35.0561943,36.3355331,35.6331978z" class="coloreaefef svgShape"></path><g fill="#010001" class="color000000 svgShape"><path fill="#51a8ff" d="M39.8738594,23.6776562c0.0029945,0.8585796-0.4248161,1.8069229-0.9632988,2.1569309
						c-0.5833588,3.4223614-2.4859962,6.7789001-4.750618,8.086216c-1.9026375,1.0979195-3.5569706,0.4607162-4.3946247-1.3940659
						c-0.1585445-0.3530045-0.2901745-0.7508869-0.3859062-1.1906395c-0.5384808,0.2722244-0.9692688-0.1795063-0.9722633-1.0380859
						c0-0.5265198,0.1585636-1.0859432,0.4068508-1.5197258c0.1705208-0.2961617,0.3799362-0.5354843,0.6072979-0.6671143
						c0.2842026-0.1645336,0.5414753-0.1286354,0.7269497,0.0598354c0.1046982-0.7359352,0.2064209-1.4718494,0.3081226-2.2107792
						c0.0598354-0.4247971,0.1316299-0.8825169,0.3619881-1.2983322c0.2183781-0.3918953,0.4966106-0.637207,0.7867851-0.8047352
						c0.3918953-0.2243671,0.8077297-0.3141289,1.1547451-0.4427643c0.837635-0.3111172,1.6902466-0.7149734,2.5428352-1.205595
						c0.0209465-0.0119781,0.0388947-0.0239372,0.0598373-0.0358982c0.1465836-0.0837727,0.2931671-0.1705208,0.4397697-0.257288
						c0.2931671-0.1675282,0.5833435-0.3260727,0.8705406-0.4188099c0.4307861-0.1435909,0.855587-0.1286354,1.0979042,0.1764927
						c0.2154007,0.2662544,0.2632599,0.7239742,0.3081398,1.1637268c0.0239182,0.2273617,0.0448608,0.4547253,0.0687981,0.6820869
						c0.1824837-0.3829308,0.4307899-0.6970425,0.7060089-0.8556042c0.218399-0.1256409,0.4218216-0.1346054,0.5863533-0.0418682
						C39.7003441,22.7622356,39.8708649,23.1391754,39.8738594,23.6776562z" class="colorffd651 svgShape"></path></g></g></svg>