<svg xmlns="http://www.w3.org/2000/svg" enable-background="new 0 0 67 67" viewBox="0 0 67 67" id="Partners"><g fill="#010001" class="color000000 svgShape"><path fill="#6822a2" d="M47.7741585,16.9075737c1.331768-0.7749176,3.1775551-0.6658707,5.2141457,0.5101223
							c4.0420494,2.3364449,7.309185,7.994545,7.2975159,12.6401711c-0.0077972,2.3091831-0.8216705,3.9330044-2.137867,4.6962528
							l5.2141685-3.0296001c1.3162003-0.7632236,2.1300735-2.3870468,2.1378403-4.7001266
							c0.0116959-4.6456509-3.2515373-10.2998295-7.2974854-12.6362734
							c-2.0365944-1.1760178-3.8823814-1.2850399-5.2102737-0.5101233L47.7741585,16.9075737z" class="colorf25a5a svgShape"></path><path fill="#6822a2" d="M52.9883156 17.4177017c-2.0365944-1.1760006-3.8823967-1.285038-5.2141647-.5101395l5.2180595-3.0295677c1.3278961-.7749224 3.1736755-.665885 5.2102699.5101166.3959885.2286692.7815552.4974985 1.1602058.7856903l-5.2164688 3.0286541C53.7682419 17.9146347 53.3834343 17.6460876 52.9883156 17.4177017zM63.3621254 31.7245102l-5.2141647 3.0296135c1.2471619-.7232323 2.0343323-2.2270622 2.1210289-4.3465672l5.2138824-3.027153C65.3949814 29.5001469 64.6081543 31.001976 63.3621254 31.7245102z" class="colorf25a5a svgShape"></path><path fill="#a50b89" d="M58.4399605,23.3944092l5.2170143-3.0289822
							c1.1480484,2.1512012,1.8483887,4.5114269,1.8429947,6.6589737c-0.000412,0.1233082-0.0121384,0.2366314-0.0170975,0.3560028
							l-5.2138824,3.027153c0.0048065-0.1173038,0.0164223-0.2285824,0.0168381-0.3496933
							C60.2912216,27.9094257,59.5894203,25.5472641,58.4399605,23.3944092z" class="colorc44141 svgShape"></path><path fill="#f4f6f8" d="M54.1462173,18.2024555l5.2164688-3.0286541
							c1.7017822,1.2951317,3.2018929,3.1446972,4.2942886,5.1916256l-5.2170143,3.0289822
							C57.3468895,21.3471966,55.8466721,19.4973717,54.1462173,18.2024555z" class="colorcc4848 svgShape"></path><g fill="#010001" class="color000000 svgShape"><path fill="#dd4ac2" d="M52.9870338,17.4181576c-4.0451012-2.3354406-7.332634-0.461977-7.3458023,4.1832924
							c-0.013176,4.6481323,3.2529945,10.3082409,7.2980957,12.6436825s7.3326416,0.4591179,7.3458176-4.1890144
							C60.298317,25.4108486,57.032135,19.7535992,52.9870338,17.4181576z" class="colordd4a4a svgShape"></path></g></g><g fill="#010001" class="color000000 svgShape"><path fill="#e6e7e9" d="M43.6723671,20.7318573c1.1730042-0.6825371,2.7987556-0.5864906,4.5925636,0.4493122
							c3.5601959,2.0579147,6.437851,7.0415077,6.4275703,11.1333256c-0.0068665,2.033905-0.7237129,3.4641495-1.883007,4.1364098
							l4.5925827-2.6684418c1.1592941-0.6722374,1.8761444-2.1024818,1.8829918-4.1398182
							c0.0102997-4.0918407-2.8639259-9.0719795-6.4275513-11.1298943
							c-1.7938118-1.0358238-3.4195595-1.1318493-4.5891533-0.4493122L43.6723671,20.7318573z" class="colore9e8e6 svgShape"></path><path fill="#d2d4d6" d="M59.2850647 29.642643c-.006855 2.0373344-.72369 3.4675903-1.8829803 4.1398239l-4.592598 2.6684341c1.1592941-.6722603 1.876152-2.1024933 1.8830261-4.1364098.0012817-.5098343-.0424652-1.0335274-.1265945-1.5636578l4.5932922-2.6668663C59.2427292 28.6123371 59.2863464 29.1343746 59.2850647 29.642643zM43.6723747 20.7318516l4.5959892-2.6684113c1.1311226-.6600971 2.6894264-.589241 4.413269.3528919l-4.5943375 2.6674538C46.364151 20.1425667 44.8064117 20.0719929 43.6723747 20.7318516z" class="colord6d4d2 svgShape"></path><path fill="#c0c2c4" d="M48.2649269,21.1811619c-0.0595665-0.0343952-0.1184349-0.0650482-0.1776314-0.0973759
							l4.5943375-2.6674538c0.058609,0.0320454,0.1169128,0.0623512,0.1758881,0.0964184
							c1.5319633,0.8846779,2.9345207,2.3110809,4.0372963,3.9731159l-4.5952492,2.6679974
							C51.1967506,23.4918728,49.7948647,22.0655117,48.2649269,21.1811619z" class="colorc4c2c0 svgShape"></path><path fill="#afb0b2" d="M56.8948174,22.4858665c1.1438255,1.7239075,1.9645386,3.7013931,2.2643929,5.5981007
							l-4.5932922,2.6668663c-0.3008957-1.8962078-1.1226349-3.8733673-2.2663498-5.5969696L56.8948174,22.4858665z" class="colorb2b0af svgShape"></path><g fill="#010001" class="color000000 svgShape"><path fill="#e6e7e9" d="M48.2638092,21.1815758c-3.5628815-2.0570316-6.4585037-0.4069042-6.4701004,3.6845989
							c-0.0116081,4.0940247,2.8652,9.0793858,6.4280853,11.1364193c3.5628815,2.0570297,6.4585114,0.4043884,6.4701157-3.68964
							C54.7035103,28.2214527,51.8266945,23.2386074,48.2638092,21.1815758z" class="colore9e8e6 svgShape"></path></g></g><path fill="#51a8ff" d="M20.3675785,39.3161736c1.8000069,1.5861511,4.9045658,5.1469612,5.054285,10.9248047
				c0.0106831,0.4740677,0.2815781,0.905365,0.6950378,1.1299248c0.4099121,0.224556,0.9909077,0.4098892,1.703783,0.3100967
				c0.2780304-0.0391998,0.5667458,0.0071144,0.8126888,0.1425629c0.4312744,0.2316933,1.2546444,0.5025902,2.5093136,0.2031746
				c0.2637596-0.0641594,0.5382233-0.0463409,0.7912807,0.0463371c0.0035686,0.0035667,0.0035686,0.0035667,0.0071354,0.0035667
				c0.5239773,0.1817894,1.5077267,0.4170265,2.5806065,0.081974c0.2566452-0.081974,0.5239754-0.0926781,0.7806015-0.0213852
				c0.6112862,0.1716042,1.9861832,0.2069473,3.8910179-1.8139534c0.0215607-0.0247574,0.0438919-0.0504036,0.0654526-0.075161
				l7.5956879-9.4242172c0.0570221-0.0748596,0.106926-0.1532669,0.1497002-0.2388077
				c0.3635712-0.7164421,2.2170296-4.3164558,3.1758499-4.7477531c0.1069489-0.0499077,0.224556-0.0962448,0.3457565-0.1425819
				c0.3345566-0.1302719,0.7109184-0.2531586,1.0698471-0.3625374c0.1749878-0.0533257,0.3363991-0.1403542,0.4756012-0.2590446
				c0.7329941-0.6249733,1.1709671-1.701889,1.1741714-3.1530838c0.014019-4.4439774-4.0706367-9.9230576-7.7026367-9.9410553
				c-0.6219444,0-1.1890297,0.1229076-1.7215767,0.6807861c-1.0966988,1.1434078-2.5677109,2.2248707-4.0883522,2.6483536
				c-2.5663567,0.7164211-7.34618,1.5504951-8.404789,2.3845692c-1.0586319,0.8340511-3.5893307,2.634058-4.6336918,3.4823818
				c-0.9445686,0.7627831-3.3433876,3.5109253-3.7925034,4.0277443c-0.0463371,0.0570412-0.0998116,0.1104927-0.1604004,0.1568336
				l-2.3310947,1.9176369C19.7723122,37.8013115,19.7473583,38.770813,20.3675785,39.3161736z" class="colorffd651 svgShape"></path><path fill="#489bef" d="M46.7118874,40.9985504c0,0,0.3813896,0.2388268,0.9196129,0.4526825
				c0.9445496,0.3742561,2.3703003,0.6772385,3.0475388-0.5204086c0.7877388-1.3900948-0.4883156-2.8407974-1.2083282-3.5002213
				c-0.2281265-0.2138519-0.4027748-0.3457336-0.4312744-0.3671188c-0.0035706,0-0.0035706,0-0.0035706,0
				c-0.8661385,1.2475319-1.7857552,3.0404015-2.0316963,3.5216064c-0.0427742,0.0855408-0.0926781,0.1639481-0.1497002,0.2388077
				L46.7118874,40.9985504z" class="colorefc348 svgShape"></path><path fill="#dd40c0" d="M43.5930557 43.4793663c.0962448.4348412.5275192.869709 1.03368 1.176239.3706856.2281265.7841454.3849602 1.1298981.4277306.8198051.0962448 2.0103149-.8376198 2.184967-1.9639778.0891113-.552475-.2459412-1.0265427-.6095161-1.3615952-.3742561-.3528671-.7806015-.5596085-.7806015-.5596085C44.3344536 40.3355789 43.4290848 42.7272873 43.5930557 43.4793663zM42.0104713 47.7993889c.0641556.0463371.1283112.0891075.1924667.1283112.0035706 0 .0035706.0035706.0035706.0035706 1.8392296 1.1299019 2.7481422-.6629715 2.7481422-.6629715s.8305054-1.2653503-.0249519-2.1528969c0-.0071144-.0035706-.0071144-.0071373-.0071144-.0392036-.0392036-.081974-.0784264-.1283112-.11763-1.069313-.8875275-2.2206001-1.0514946-2.9014091-.3778229C41.8928413 44.6128349 40.0358124 46.4128418 42.0104713 47.7993889zM39.5296555 50.3087044c.1604004.0926743.3136673.1639671.4384346.2067375.5203857.1746521 1.6752625.2316933 2.1457405-.951683.3101006-.7770309-.0142517-1.3437767-.270874-1.6431732-.1319046-.153286-.2495117-.23526-.2495117-.23526s-.4633636-.388504-1.2760544-.5132713c-.812664-.1247444-1.5112915.8804131-1.7073288 1.7002144C38.4567986 49.4960365 39.0235214 50.019989 39.5296555 50.3087044z" class="colorddb040 svgShape"></path><path fill="#489bef" d="M44.1669159 43.9213448c.0570412.2566452.224556.5097008.4598198.7342606.3706856.2281265.7841454.3849602 1.1298981.4277306.8198051.0962448 2.0103149-.8376198 2.184967-1.9639778.0891113-.552475-.2459412-1.0265427-.6095161-1.3615952-.1247444-.0784035-.2067413-.1211739-.2067413-.1211739C44.9083138 40.7775612 43.9994011 43.165699 44.1669159 43.9213448zM42.2029381 47.9277c.0035706 0 .0035706.0035706.0035706.0035706 1.8392296 1.1299019 2.7481422-.6629715 2.7481422-.6629715s.8305054-1.2653503-.0249519-2.1528969c0-.0071144-.0035706-.0071144-.0071373-.0071144-.9338646-.5916977-1.8712997-.6380386-2.4594078-.0570412C42.4631538 45.0512466 40.8734322 46.5946274 42.2029381 47.9277zM39.5296555 50.3087044c.1604004.0926743.3136673.1639671.4384346.2067375.5203857.1746521 1.6752625.2316933 2.1457405-.951683.3101006-.7770309-.0142517-1.3437767-.270874-1.6431732-.2174454-.1140594-.5417938-.2459412-.9552727-.3101196-.8126678-.1211777-1.5077248.8839798-1.7073288 1.7037849C39.0912437 49.6920738 39.2623291 50.0342598 39.5296555 50.3087044zM19.1093426 38.346653l.0891094 3.4146805 6.1200314 8.1517296.0677242.3457565c4.4590397-2.6020164 6.0950985-8.3656082 6.0950985-8.3656082s.1782188-1.728714 1.4293194-3.831707c1.2510796-2.0994225 4.9794273-2.3097076 4.9794273-2.3097076 1.5041542 1.3865471 5.2467537 2.3560486 6.4230156.5667229.2138519-.3243484.3279152-.6166306.3635521-.8839569.1568298-1.2083321-1.2938728-1.8998222-2.4665451-2.619812-1.4293175-.8768425-2.0780373-1.8285255-2.0780373-1.8285255-1.5362473-1.5255642-2.926342-1.1833763-3.550106-1.15131-.6237679.0356579-1.539814.7734871-3.5144958.1247673-1.9710884-.6451511-2.6483288-.0998135-4.2023926.8090992-1.5540638.905365-5.6210308 4.0455799-5.6210308 4.0455799L19.1093426 38.346653z" class="colorefc348 svgShape"></path><path fill="#489bef" d="M25.628582 50.8861313c0 0 .8839817 1.2261467 2.6518993.6914902 0 0 3.2043934-2.9085236 4.8618145-7.2249794C33.0246658 44.5843124 28.7759342 52.7467461 25.628582 50.8861313zM28.2804813 51.5776215c0 0 1.0443592 1.0443802 3.2720947.3350525 0 0 3.4931087-1.7001953 4.9901295-6.8222046C36.5427055 45.0904694 32.3902206 53.9229889 28.2804813 51.5776215z" class="colorefc348 svgShape"></path><path fill="#489bef" d="M31.941103,52.0766411c0.5916767,0.2067413,1.7786236,0.4811821,3.0119038-0.0855408
				c0,0,3.6392174-3.0119019,4.5980339-5.5996437C39.4334335,46.5768089,35.3985558,52.8893318,31.941103,52.0766411z" class="colorefc348 svgShape"></path><path fill="#dd40c0" d="M25.5431423 49.5780106v.5871735c4.4590397-2.6019897 5.9381638-8.2719727 5.9381638-8.2719727s.1782188-1.728714 1.4293194-3.831707c1.2510796-2.0994225 4.9794273-2.3097076 4.9794273-2.3097076 1.5041542 1.3865471 5.2467537 2.3560486 6.4230156.5667229.2138519-.3243484.3279152-.6166306.3635521-.8839569h-.0035477c0 0-3.4467697 3.4574509-6.9897614-1.2403984 0 0-1.4007988 2.6019936-5.1897354 1.5362473 0 0 .4705009.9623871-.4098892 2.3417969-.8804111 1.3758469-1.2867565 2.819416-1.8677521 4.7192345-.5809727 1.8998184-1.7073288 4.9045868-3.3754559 5.9525146L25.5431423 49.5780106zM46.7118874 40.9985504c0 0 .3813896.2388268.9196129.4526825.2815781-.2031708.5097046-.4847488.634449-.8091202.1604004-.4170265.1604004-.8768234.1817856-1.3223724.021389-.4455452.0748596-.9124794.3243713-1.2831879.1746521-.2637596.4277077-.4491158.6986046-.6059494-.2281265-.2138519-.4027748-.3457336-.4312744-.3671188-.0035706 0-.0035706 0-.0035706 0-.8661385 1.2475319-1.7857552 3.0404015-2.0316963 3.5216064-.0427742.0855408-.0926781.1639481-.1497002.2388077L46.7118874 40.9985504z" class="colorddb040 svgShape"></path><g fill="#010001" class="color000000 svgShape"><g fill="#010001" class="color000000 svgShape"><path fill="#e6e7e9" d="M9.8655596,40.3815956c1.1840839-0.6889839,2.8251877-0.5920296,4.6359377,0.4535522
							c3.5938187,2.0773506,6.4986515,7.1080132,6.4882755,11.2384758c-0.0069313,2.053112-0.7305508,3.4968643-1.9007931,4.1754723
							l4.6359596-2.6936417c1.1702423-0.6785851,1.8938618-2.1223373,1.9007721-4.1789169
							c0.010397-4.1304817-2.8909721-9.1576576-6.4882545-11.2350082c-1.810751-1.0456047-3.4518538-1.14254-4.632494-0.4535522
							L9.8655596,40.3815956z" class="colore9e8e6 svgShape"></path><path fill="#e6e7e9" d="M25.6257076 49.3765373c-.006918 2.0565758-.7305222 3.5003357-1.9007645 4.1789207l-4.6359692 2.693634c1.1702423-.6786079 1.8938694-2.1223488 1.9008083-4.1754761.0012951-.5146484-.0428677-1.0432854-.1277885-1.5784225l4.6366711-2.6920547C25.5829716 48.3364983 25.6270027 48.8634682 25.6257076 49.3765373zM9.8655691 40.381588l4.6393948-2.6936111c1.1418028-.6663322 2.7148256-.5948067 4.4549475.3562241l-4.6377258 2.692646C12.5827665 39.7867393 11.010314 39.7154999 9.8655691 40.381588z" class="colore9e8e6 svgShape"></path><path fill="#c0c2c4" d="M14.5014944,40.835144c-0.0601282-0.0347214-0.1195545-0.0656624-0.1793089-0.0982971l4.6377258-2.692646
							c0.0591621,0.0323486,0.1180172,0.0629387,0.1775513,0.0973282c1.5464287,0.8930321,2.9622364,2.3329086,4.0754242,4.0106392
							l-4.638649,2.6931953C17.4610062,43.167675,16.0458813,41.7278442,14.5014944,40.835144z" class="colorc4c2c0 svgShape"></path><path fill="#afb0b2" d="M23.2128868,42.1521683c1.1546268,1.7401886,1.9830933,3.736351,2.285778,5.6509705l-4.6366711,2.6920547
							c-0.3037395-1.9141159-1.1332378-3.9099503-2.287756-5.6498299L23.2128868,42.1521683z" class="colorb2b0af svgShape"></path><g fill="#010001" class="color000000 svgShape"><path fill="#d2d4d6" d="M14.5003672,40.8355598c-3.5965319-2.076458-6.5194993-0.4107475-6.5312085,3.7193985
							c-0.0117164,4.1326904,2.892262,9.1651344,6.4887938,11.2415924s6.5195065,0.4082069,6.5312233-3.7244835
							C21.000885,47.941925,18.096899,42.9120178,14.5003672,40.8355598z" class="colord6d4d2 svgShape"></path></g></g></g><g fill="#010001" class="color000000 svgShape"><g fill="#010001" class="color000000 svgShape"><path fill="#6822a2" d="M3.632966,42.8986664c1.3317666-0.7749176,3.1775537-0.6658707,5.2141466,0.5101242
							c4.0420504,2.3364449,7.3091831,7.994545,7.297514,12.6401711c-0.0077953,2.3091812-0.8216677,3.9330025-2.137867,4.6962509
							l5.2141705-3.0296021c1.3161983-0.7632217,2.1300697-2.387043,2.1378422-4.7001228
							c0.011694-4.6456528-3.2515411-10.2998314-7.2974892-12.6362762c-2.0365934-1.1760178-3.8823805-1.285038-5.2102728-0.5101204
							L3.632966,42.8986664z" class="colorf25a5a svgShape"></path><path fill="#6822a2" d="M8.8471231 43.4087944c-2.0365949-1.1760025-3.8823962-1.285038-5.2141647-.5101395l5.2180586-3.0295677c1.3278961-.7749214 3.1736755-.6658859 5.2102709.5101166.3959885.2286682.7815561.4974976 1.1602058.7856903l-5.2164698 3.028656C9.6270485 43.9057274 9.2422419 43.6371803 8.8471231 43.4087944zM19.2209339 57.7156029l-5.2141647 3.0296135c1.2471619-.7232323 2.0343323-2.2270622 2.121027-4.3465652l5.2138805-3.0271568C21.2537861 55.4912376 20.4669647 56.9930687 19.2209339 57.7156029z" class="colorf25a5a svgShape"></path><path fill="#a50b89" d="M14.298768,49.3855019l5.2170134-3.0289803c1.1480465,2.1511993,1.8483906,4.511425,1.8429947,6.6589699
							c-0.000412,0.1233101-0.0121384,0.2366333-0.0170994,0.3560028l-5.2138805,3.0271568
							c0.0048065-0.1173058,0.0164242-0.2285843,0.0168381-0.3496933
							C16.1500301,53.9005165,15.4482269,51.5383568,14.298768,49.3855019z" class="colorc44141 svgShape"></path><path fill="#f4f6f8" d="M10.005024,44.1935501l5.2164698-3.028656c1.7017813,1.2951317,3.2018919,3.1446991,4.2942877,5.1916275
							l-5.2170134,3.0289803C13.2056971,47.3382912,11.7054787,45.4884644,10.005024,44.1935501z" class="colorcc4848 svgShape"></path><g fill="#010001" class="color000000 svgShape"><path fill="#dd4ac2" d="M8.8458414,43.4092522c-4.0451026-2.3354416-7.3326321-0.4619789-7.3458018,4.1832924
							c-0.0131774,4.6481323,3.2529945,10.308239,7.2980971,12.6436806s7.3326406,0.4591179,7.3458166-4.1890144
							C16.1571236,51.4019432,12.8909435,45.7446938,8.8458414,43.4092522z" class="colordd4a4a svgShape"></path></g></g></g><g fill="#010001" class="color000000 svgShape"><g fill="#010001" class="color000000 svgShape"><polygon fill="#0a009b" points="13.106 32.953 10.574 31.481 10.549 22.648 13.081 24.119" class="color00649b svgShape"></polygon><polygon fill="#5046e4" points="13.081 24.119 10.549 22.648 39.8 5.759 42.333 7.231" class="color0074d1 svgShape"></polygon><polygon fill="#0a009b" points="13.081 24.119 10.549 22.648 31.514 10.544 34.046 12.015" class="color00649b svgShape"></polygon><polygon fill="#5046e4" points="13.081 24.119 10.549 22.648 23.228 15.328 25.76 16.799" class="color0074d1 svgShape"></polygon><polygon fill="#0b00b5" points="42.333 7.231 42.358 16.065 13.106 32.953 13.081 24.119" class="color006cb5 svgShape"></polygon></g></g><g fill="#010001" class="color000000 svgShape"><path fill="#cfd0d1" d="M38.9929161 11.9326553l.4466209.2595558c.1068764.0621023.1649971.1965714.165596.4084921.0006409.2258129-.0682144.4451742-.1950111.6447687l-.4466286-.259552c.1267967-.1995935.195652-.4189558.1950111-.6447687C39.1579056 12.1292305 39.0997887 11.9947615 38.9929161 11.9326553zM39.6557961 11.0411406l.4466248.2595587c-.1073151-.0623732-.2393494-.0875721-.3912048-.078433-.237339.010622-.5149422.1110249-.8328362.2945623l-.4466286-.259552c.317894-.1835375.5954971-.2839403.8328362-.2945623C39.4164429 10.9535751 39.5484772 10.9787741 39.6557961 11.0411406z" class="colorcfd0d1 svgShape"></path><polygon fill="#cfd0d1" points="37.324 12.414 36.877 12.155 38.432 11.257 38.878 11.517" class="colorcfd0d1 svgShape"></polygon><polygon fill="#cfd0d1" points="32.21 17.882 31.763 17.622 31.756 15.112 32.203 15.371" class="colorcfd0d1 svgShape"></polygon><polygon fill="#cfd0d1" points="32.203 15.371 31.756 15.112 32.577 14.638 33.023 14.897" class="colorcfd0d1 svgShape"></polygon><polygon fill="#cfd0d1" points="32.353 19.422 31.906 19.163 30.107 17.693 30.554 17.953" class="colorcfd0d1 svgShape"></polygon><polygon fill="#cfd0d1" points="29.723 16.803 29.276 16.543 29.97 16.143 30.417 16.402" class="colorcfd0d1 svgShape"></polygon><polygon fill="#cfd0d1" points="29.735 20.934 29.288 20.674 29.276 16.543 29.723 16.803" class="colorcfd0d1 svgShape"></polygon><polygon fill="#f4f6f8" points="33.023 14.897 33.035 19.028 32.353 19.422 30.554 17.953 30.561 20.457 29.735 20.934 29.723 16.803 30.417 16.402 32.21 17.882 32.203 15.371" class="colorffffff svgShape"></polygon><polygon fill="#cfd0d1" points="27.307 22.335 26.86 22.076 26.851 18.722 27.298 18.981" class="colorcfd0d1 svgShape"></polygon><polygon fill="#cfd0d1" points="26.147 19.645 25.701 19.386 25.699 18.609 26.145 18.868" class="colorcfd0d1 svgShape"></polygon><polygon fill="#cfd0d1" points="26.145 18.868 25.699 18.609 28.831 16.8 29.278 17.06" class="colorcfd0d1 svgShape"></polygon><polygon fill="#f4f6f8" points="29.278 17.06 29.28 17.837 28.13 18.501 28.139 21.855 27.307 22.335 27.298 18.981 26.147 19.645 26.145 18.868" class="colorffffff svgShape"></polygon><polygon fill="#cfd0d1" points="25.128 23.593 24.681 23.334 23.985 22.585 24.431 22.845" class="colorcfd0d1 svgShape"></polygon><path fill="#cfd0d1" d="M24.3423672,22.1311207l-0.4466286-0.259552c0.2485352-0.1434917,0.439106-0.3133869,0.5716972-0.5163441
					l0.4466267,0.259552C24.7814732,21.8177338,24.5909023,21.9876289,24.3423672,22.1311207z" class="colorcfd0d1 svgShape"></path><path fill="#cfd0d1" d="M24.4968586,20.30196l0.446619,0.2595539c0.1068783,0.0621033,0.1649952,0.1965733,0.165596,0.408493
					c0.0006409,0.2258129-0.0682125,0.4451752-0.1950111,0.6447697l-0.4466267-0.259552
					c0.1267967-0.1995945,0.1956501-0.4189568,0.1950092-0.6447697
					C24.6618443,20.4985352,24.6037273,20.3640652,24.4968586,20.30196z" class="colorcfd0d1 svgShape"></path><polygon fill="#cfd0d1" points="23.666 22.522 23.219 22.262 23.896 21.872 24.342 22.131" class="colorcfd0d1 svgShape"></polygon><path fill="#cfd0d1" d="M25.1597271,19.4104347l0.4466209,0.259552c-0.1073036-0.0623627-0.2393303-0.0875607-0.3911915-0.0784168
					c-0.237339,0.010622-0.5149403,0.1110249-0.8328362,0.2945633l-0.4466286-0.259552
					c0.3178959-0.1835384,0.5954971-0.2839413,0.8328362-0.2945633
					C24.9203892,19.3228741,25.0524158,19.3480721,25.1597271,19.4104347z" class="colorcfd0d1 svgShape"></path><polygon fill="#cfd0d1" points="22.828 20.784 22.381 20.524 23.936 19.627 24.382 19.886" class="colorcfd0d1 svgShape"></polygon><polygon fill="#cfd0d1" points="22.839 24.915 22.393 24.655 22.381 20.524 22.828 20.784" class="colorcfd0d1 svgShape"></polygon><path fill="#f4f6f8" d="M25.2110233,22.2150211l0.8129539,0.8611279l-0.895895,0.5172443l-0.6968441-0.7485542
					l-0.0404644,0.0233631l-0.7224827,0.4171257l0.0032578,1.1489964l-0.8323097,0.4805336l-0.011713-4.1310654l1.5547943-0.8976593
					c0.3178959-0.1835384,0.5954971-0.2839413,0.8328362-0.2945633c0.2315445-0.0139427,0.4169827,0.0519562,0.5390034,0.2076893
					c0.1277943,0.152401,0.1921329,0.3813629,0.1930008,0.6868782c0.0008659,0.3054962-0.0619678,0.6078815-0.1885014,0.9004707
					C25.6321449,21.6858349,25.4476681,21.9653034,25.2110233,22.2150211z M24.9140625,21.6147766
					c0.1267986-0.1995945,0.195652-0.4189568,0.1950111-0.6447697c-0.000658-0.2324696-0.070528-0.3717384-0.1980419-0.4245243
					c-0.1332874-0.0427876-0.3242149,0.0009289-0.5727501,0.1444187l-0.6762409,0.3904285l0.0040855,1.4412193l0.6762409-0.3904285
					C24.5909023,21.9876289,24.7814732,21.8177338,24.9140625,21.6147766" class="colorffffff svgShape"></path><polygon fill="#cfd0d1" points="21.591 25.636 21.144 25.376 20.824 24.676 21.27 24.936" class="colorcfd0d1 svgShape"></polygon><polygon fill="#cfd0d1" points="19.864 25.023 19.417 24.763 20.556 24.106 21.002 24.365" class="colorcfd0d1 svgShape"></polygon><polygon fill="#cfd0d1" points="21.002 24.365 20.556 24.106 19.985 22.846 20.432 23.105" class="colorcfd0d1 svgShape"></polygon><polygon fill="#cfd0d1" points="18.429 27.461 17.983 27.201 19.578 22.143 20.024 22.402" class="colorcfd0d1 svgShape"></polygon><path fill="#f4f6f8" d="M20.8450108,21.9283981l1.6185226,3.2033749l-0.8727589,0.5038872l-0.3204002-0.6997852
					l-1.6704121,0.9644127l-0.3153763,1.0668507l-0.8554306,0.4938831l1.5950985-5.0587578L20.8450108,21.9283981z
					 M19.8637886,25.0228443l1.1386528-0.657402l-0.5709305-1.2602997L19.8637886,25.0228443" class="colorffffff svgShape"></path><polygon fill="#cfd0d1" points="20.024 22.402 19.578 22.143 20.398 21.669 20.845 21.928" class="colorcfd0d1 svgShape"></polygon><path fill="#cfd0d1" d="M16.8804741,26.4326l-0.4466286-0.259552c0.2485332-0.1434917,0.439106-0.3133888,0.5659027-0.5130005
					l0.4466286,0.259552C17.3195801,26.1192112,17.1290073,26.2891083,16.8804741,26.4326z" class="colorcfd0d1 svgShape"></path><path fill="#cfd0d1" d="M17.0365391,24.6161022l0.4466228,0.2595558c0.1062832,0.061758,0.1576557,0.1978149,0.1582451,0.4058094
					c0.000639,0.2258129-0.0624371,0.4418392-0.1950302,0.6381321l-0.4466286-0.259552
					c0.1325932-0.1962929,0.1956711-0.4123192,0.1950302-0.6381321
					C17.1941891,24.813921,17.1428185,24.6778641,17.0365391,24.6161022z" class="colorcfd0d1 svgShape"></path><polygon fill="#cfd0d1" points="16.198 26.826 15.752 26.567 16.434 26.173 16.88 26.433" class="colorcfd0d1 svgShape"></polygon><path fill="#cfd0d1" d="M17.6964188,23.7209778l0.4466152,0.2595634c-0.1079273-0.0627403-0.2392292-0.088892-0.3955441-0.0775108
					l-0.4466286-0.259552C17.4571762,23.6320972,17.5884781,23.6582489,17.6964188,23.7209778z" class="colorcfd0d1 svgShape"></path><path fill="#cfd0d1" d="M16.9204292,24.1942577l-0.4466286-0.259552c0.3178959-0.1835365,0.5955124-0.2839489,0.8270607-0.2912273
					l0.4466286,0.259552C17.5159416,23.9103088,17.2383251,24.0107212,16.9204292,24.1942577z" class="colorcfd0d1 svgShape"></path><polygon fill="#cfd0d1" points="15.377 29.223 14.931 28.963 14.919 24.832 15.366 25.092" class="colorcfd0d1 svgShape"></polygon><path fill="#f4f6f8" d="M18.2922688,24.1073856c0.1278114,0.1523895,0.1921329,0.381361,0.1929989,0.6868763
					c0.0008678,0.3054981-0.0619678,0.6012363-0.1884995,0.9004707c-0.1264954,0.3058643-0.3051796,0.5819874-0.5418224,0.8383541
					c-0.2308521,0.2530403-0.5081291,0.4729958-0.826025,0.6565342l-0.72826,0.4204597l0.0032196,1.135704l-0.8265333,0.4771996
					l-0.0117111-4.1310673l1.5547934-0.8976593c0.3178959-0.1835365,0.5955124-0.2839489,0.8270607-0.2912273
					C17.9848099,23.8857517,18.1644726,23.9549847,18.2922688,24.1073856z M17.4463768,25.9195995
					c0.1325932-0.1962929,0.1956692-0.4123192,0.1950302-0.6381321c-0.0006599-0.2324696-0.0647545-0.3750744-0.1980419-0.4245262
					c-0.1274948-0.0461292-0.3184242-0.0024147-0.5669594,0.141077l-0.6820335,0.3937721l0.0040665,1.4345818L16.8804741,26.4326
					C17.1290073,26.2891083,17.3195801,26.1192112,17.4463768,25.9195995" class="colorffffff svgShape"></path><polygon fill="#cfd0d1" points="15.366 25.092 14.919 24.832 16.474 23.935 16.92 24.194" class="colorcfd0d1 svgShape"></polygon><polygon fill="#cfd0d1" points="34.715 17.293 34.268 17.034 36.222 15.906 36.668 16.166" class="colorcfd0d1 svgShape"></polygon><polygon fill="#cfd0d1" points="34.71 15.593 34.263 15.334 35.934 14.369 36.38 14.629" class="colorcfd0d1 svgShape"></polygon><polygon fill="#cfd0d1" points="33.89 18.534 33.444 18.275 33.432 14.144 33.879 14.403" class="colorcfd0d1 svgShape"></polygon><polygon fill="#cfd0d1" points="33.879 14.403 33.432 14.144 36.149 12.575 36.595 12.835" class="colorcfd0d1 svgShape"></polygon><polygon fill="#f4f6f8" points="36.595 12.835 36.597 13.605 34.707 14.697 34.71 15.593 36.38 14.629 36.383 15.373 34.712 16.337 34.715 17.293 36.668 16.166 36.671 16.929 33.89 18.534 33.879 14.403" class="colorffffff svgShape"></polygon><polygon fill="#cfd0d1" points="39.624 15.224 39.178 14.965 38.481 14.216 38.927 14.476" class="colorcfd0d1 svgShape"></polygon><path fill="#cfd0d1" d="M38.8384247,13.761817l-0.4466248-0.259552c0.2485313-0.1434917,0.439106-0.3133879,0.5716934-0.516345
					l0.4466286,0.259552C39.2775307,13.4484291,39.0869598,13.6183252,38.8384247,13.761817z" class="colorcfd0d1 svgShape"></path><polygon fill="#cfd0d1" points="38.162 14.152 37.716 13.893 38.392 13.502 38.838 13.762" class="colorcfd0d1 svgShape"></polygon><polygon fill="#cfd0d1" points="37.335 16.546 36.889 16.286 36.877 12.155 37.324 12.414" class="colorcfd0d1 svgShape"></polygon><path fill="#f4f6f8" d="M39.7070808,13.8457184l0.8129578,0.8611259l-0.8958969,0.5172453l-0.6968422-0.7485542
					l-0.0404663,0.0233631l-0.7224846,0.4171257l0.0032578,1.1489954l-0.832325,0.480545l-0.0117111-4.1310663l1.5548096-0.8976698
					c0.317894-0.1835375,0.5954971-0.2839403,0.8328362-0.2945623c0.2315292-0.0139341,0.4169846,0.0519552,0.5390015,0.2076902
					c0.1277962,0.1524,0.1921349,0.381362,0.1930008,0.6868773c0.0008659,0.3054972-0.0619659,0.6078815-0.1884995,0.9004707
					C40.1282043,13.3165312,39.9437294,13.5959988,39.7070808,13.8457184z M39.4101219,13.245472
					c0.1267967-0.1995945,0.195652-0.4189558,0.1950111-0.6447687c-0.0006599-0.2324696-0.0705299-0.3717394-0.1980438-0.4245253
					c-0.1332855-0.0427866-0.3242149,0.0009289-0.5727501,0.1444197l-0.676239,0.3904285l0.0040855,1.4412184l0.676239-0.3904276
					C39.0869598,13.6183252,39.2775307,13.4484291,39.4101219,13.245472" class="colorffffff svgShape"></path></g></svg>