<svg xmlns="http://www.w3.org/2000/svg" enable-background="new 0 0 53 53" viewBox="0 0 53 53" id="PropertyRentTag"><g fill="#010001" class="color000000 svgShape"><polygon fill="#5046e4" points="38.422 7.787 44.112 4.48 44.105 6.898 38.415 10.205" class="colorc4c6c6 svgShape"></polygon><polygon fill="#f4f6f8" points="36.325 6.577 42.015 3.27 44.112 4.48 38.422 7.787" class="colorecf0f1 svgShape"></polygon><polygon fill="#f4f6f8" points="38.422 7.787 38.415 10.205 36.318 8.994 36.325 6.577" class="color787979 svgShape"></polygon></g><g fill="#010001" class="color000000 svgShape"><polygon fill="#d4d5d6" points="41.628 36.314 42.014 46.796 36.353 50.5 36.386 39.485" class="colord4d6d6 svgShape"></polygon><polygon fill="#e0e1e2" points="36.386 39.485 36.353 50.5 30.663 46.801 31.115 36.318" class="colore0e2e2 svgShape"></polygon><polygon fill="#f4f6f8" points="41.628 36.314 36.386 39.485 31.115 36.318 36.358 33.271" class="colorecf0f1 svgShape"></polygon></g><g fill="#010001" class="color000000 svgShape"><polygon fill="#d4d5d6" points="39.326 4.186 39.266 36.797 36.365 38.483 36.425 5.872" class="colord4d6d6 svgShape"></polygon><polygon fill="#e0e1e2" points="36.425 5.872 36.365 38.483 33.445 36.797 33.505 4.186" class="colore0e2e2 svgShape"></polygon><polygon fill="#f4f6f8" points="39.326 4.186 36.425 5.872 33.505 4.186 36.406 2.5" class="colorecf0f1 svgShape"></polygon></g><rect width=".25" height="4.357" x="16.115" y="20.772" fill="#6822a2" class="color5b5e71 svgShape"></rect><rect width=".25" height="4.357" x="28.14" y="13.63" fill="#6822a2" class="color5b5e71 svgShape"></rect><g fill="#010001" class="color000000 svgShape"><polygon fill="#a50b89" points="15.564 41.983 15.11 41.719 15.068 26.786 15.522 27.05" class="colorcc4444 svgShape"></polygon><polygon fill="#d83fbc" points="15.522 27.05 15.068 26.786 31.438 17.334 31.892 17.598" class="colord8463f svgShape"></polygon><polygon fill="#e73cc8" points="31.892 17.598 31.935 32.532 15.564 41.983 15.522 27.05" class="colore74c3c svgShape"></polygon></g><polygon fill="#ffffff" points="20.718 27.766 20.715 28.257 19.361 29.039 19.363 29.899 20.572 29.201 20.574 29.69 19.365 30.388 19.368 31.676 18.908 31.942 18.9 28.816" class="colorffffff svgShape"></polygon><polygon fill="#ffffff" points="26.062 29.219 26.071 32.345 25.576 32.63 24.027 31.24 24.034 33.521 23.574 33.786 23.565 30.66 24.02 30.397 25.609 31.82 25.602 29.484" class="colorffffff svgShape"></polygon><path fill="#ffffff" d="M23.531147,26.5250835c0.2768764,0.1527443,0.4137897,0.4568844,0.4151039,0.9200039
							c0.001297,0.4580975-0.1334324,0.9241295-0.4085541,1.3905411c-0.2751331,0.4664326-0.6120148,0.8172226-1.0193825,1.0524178
							c-0.4030342,0.2326927-0.7451782,0.2789516-1.022068,0.126215c-0.2724686-0.1502609-0.4137421-0.4569416-0.415041-0.915041
							c-0.0013123-0.4631176,0.1377773-0.926609,0.4085045-1.3904839c0.2751198-0.4714527,0.6164074-0.8197594,1.0194435-1.0524521
							C22.9165211,26.4210892,23.2542725,26.3773537,23.531147,26.5250835z M23.1993752,28.678009
							c0.1877842-0.3302708,0.2790127-0.6501598,0.2781277-0.9622898c-0.0009003-0.3171082-0.0936413-0.530798-0.2826805-0.6435375
							c-0.1845856-0.1152821-0.4127007-0.0894508-0.6842995,0.0673561
							c-0.2672672,0.1543064-0.4947815,0.3915329-0.6825047,0.7217693
							c-0.1833897,0.3277626-0.2746201,0.6476669-0.2737198,0.9647751c0.000885,0.3121281,0.0936394,0.5308228,0.2782726,0.6410522
							c0.1889782,0.1127472,0.4171066,0.0919628,0.6843739-0.0623436
							C22.7885437,29.2479839,23.0160446,29.0057087,23.1993752,28.678009" class="colorffffff svgShape"></path><polygon fill="#ffffff" points="28.673 27.706 28.674 28.189 27.846 28.667 27.854 31.315 27.394 31.581 27.386 28.933 26.563 29.409 26.561 28.93" class="colorffffff svgShape"></polygon><path fill="#ffffff" d="M26.1160145 26.6411381l.7129173.7279186-.5826607.3363991L25.5949154 27.02771l-.6045303.3490257.0029831 1.052084-.4599609.2655602-.0088634-3.1260509 1.0119705-.5842609c.4161663-.2402744.7142391-.3367348.8899288-.2768345.180069.0573997.2728577.2660332.2738571.6184063C26.7017689 25.8441029 26.5055332 26.2801247 26.1160145 26.6411381zM26.0882416 26.1227207c.0917149-.1437397.1394768-.3225651.1389046-.5239067-.0005836-.2064037-.0491734-.3195305-.1457653-.3394089-.0965919-.019865-.267519.0435257-.5128574.1851711l-.5826607.3363991.0031681 1.1175251.5695305-.3288174C25.821373 26.4179478 25.9964657 26.2714787 26.0882416 26.1227207M19.7723007 34.8415909l.7172623.7254105-.5826015.3363647-.6557484-.675209-.6045284.3490257.0029812 1.0520859-.4556293.2630577-.0132542-3.1235161 1.0119572-.5842514c.4162254-.2403107.7143269-.3317146.8944092-.2743645.180069.0573959.2683887.2635536.2694035.6209488C20.3580074 34.0446129 20.1661777 34.48312 19.7723007 34.8415909zM19.7488861 34.3257141c.0917015-.1487579.1394768-.3225479.1388912-.5289536s-.04916-.3144836-.1457653-.3393669c-.0965919-.0198784-.2675209.0435257-.5128593.1851692l-.5869923.3389015.0031681 1.1175117.5738621-.3313179C19.4776592 34.6184311 19.6571579 34.4694176 19.7488861 34.3257141" class="colorffffff svgShape"></path><polygon fill="#ffffff" points="22.93 31.027 22.931 31.52 21.477 32.36 21.479 33.191 22.784 32.437 22.786 32.905 21.48 33.659 21.483 34.494 22.985 33.627 22.987 34.125 21.024 35.258 21.015 32.132" class="colorffffff svgShape"></polygon><g fill="#010001" class="color000000 svgShape"><path fill="#d83fbc" d="M29.9469738,19.7306137c0.042675,0.0817871,0.0701962,0.1815777,0.0705204,0.3060417
						c0.0012951,0.4498005-0.3161449,1.007164-0.7142048,1.2369862c-0.1118355,0.0645638-0.214735,0.0889111-0.3096027,0.0912437
						c0.1135826,0.2226334,0.3664589,0.2822094,0.6604557,0.1124821c0.3980618-0.2298222,0.715435-0.7871857,0.7141399-1.2369881
						C30.3673115,19.9060402,30.1942806,19.7196045,29.9469738,19.7306137z" class="colord8463f svgShape"></path><path fill="#ffffff" d="M30.0185947,20.0316029c0,0.456213-0.3182812,1.0079422-0.7108383,1.2413921
						c-0.1167564,0.0636559-0.2228279,0.0848312-0.3183441,0.0954514c-0.0317955-0.0848961-0.0636559-0.1803474-0.0636559-0.2970409
						c0-0.0424805,0-0.0848961,0.0106201-0.1379318c0.0106201-0.1061363,0.0424805-0.2122078,0.0848961-0.3182812
						c0.1060715-0.2758636,0.2864838-0.530489,0.4880733-0.7002811c0.0424156-0.0317955,0.0954514-0.0636559,0.137867-0.0954514
						c0.0531006-0.0318604,0.1167564-0.0531006,0.1697922-0.0636559c0.0424175-0.0106201,0.084898-0.0212402,0.1273136-0.0212402
						C29.9867344,19.8088398,30.0185947,19.9149113,30.0185947,20.0316029z" class="colorffffff svgShape"></path><path fill="none" d="M28.6553955,20.4993439c0.241415,0.1393566,0.4621067,0.1673317,0.6227036,0.0761528
							c0.1564522-0.0901413,0.2434864-0.2921829,0.2434864-0.5688248c0.0020714-0.6392803-0.4641781-1.4495201-1.0184975-1.7691593
							c-0.1502361-0.0870342-0.2932205-0.1310692-0.4175529-0.1310692c-0.0787449,0-0.1502361,0.0176144-0.2124023,0.05336
							c-0.1574898,0.0906601-0.2445221,0.2932205-0.2445221,0.5698624c-0.0007133,0.224123,0.072073,0.4666386,0.171669,0.7049427
							l0.0793934-0.0458469l-0.0793934,0.0458469C27.9836063,19.8732738,28.2935333,20.2901783,28.6553955,20.4993439z"></path><path fill="#6822a2" d="M29.8382454,20.0104275c0,0.3925571-0.1379318,0.6895981-0.4031754,0.83815
							c-0.1061363,0.0636559-0.2334499,0.0955162-0.3713818,0.0955162c-0.0424156,0-0.0848312,0-0.1273117-0.0106201
							c0.0106201-0.1061363,0.0424805-0.2122078,0.0848961-0.3182812c0.0954514,0.0211773,0.1803474,0,0.2546234-0.0424805
							c0.159174-0.0848961,0.2440052-0.2864189,0.2440052-0.5622845c0-0.0318604,0-0.0636559-0.0105553-0.0955162
							c-0.0318604-0.6259403-0.4880733-1.3686371-1.0079422-1.676363c-0.1485519-0.0848312-0.2864857-0.1273117-0.4137974-0.1273117
							c-0.0848961,0-0.1485519,0.0106201-0.2122078,0.0531006c-0.1591072,0.0848312-0.2440052,0.2864208-0.2440052,0.5622845
							c0,0.2228279,0.0742779,0.4668331,0.1697292,0.7108364l-0.2758656,0.159174
							c-0.1273117-0.2864857-0.2121429-0.5835247-0.2121429-0.8700104c0-0.3925571,0.1379318-0.689661,0.4031773-0.83815
							c0.2546234-0.1591721,0.5941448-0.1273117,0.9442196,0.0742779c0.5835896,0.3288994,1.0609779,1.0927734,1.1564941,1.7930546
							C29.8276253,19.8406353,29.8382454,19.9255314,29.8382454,20.0104275z" class="color5b5e71 svgShape"></path></g><g fill="#010001" class="color000000 svgShape"><path fill="#d83fbc" d="M17.7631149,26.7533684c0.042675,0.0817871,0.0701962,0.1815777,0.0705204,0.3060417
					c0.0012951,0.4498005-0.3161449,1.007164-0.7142048,1.2369862c-0.1118355,0.0645638-0.214735,0.0889111-0.3096027,0.0912437
					c0.1135826,0.2226334,0.3664589,0.2822094,0.6604557,0.1124821c0.3980618-0.2298222,0.715435-0.7871857,0.7141399-1.2369881
					C18.1834526,26.9287949,18.0104218,26.7423592,17.7631149,26.7533684z" class="colord8463f svgShape"></path><path fill="#ffffff" d="M17.8347359,27.0543575c0,0.456213-0.3182812,1.0079422-0.7108364,1.2413921
					c-0.1167583,0.0636559-0.2228298,0.0848312-0.318346,0.0954514c-0.0317955-0.0848961-0.0636559-0.1803474-0.0636559-0.2970409
					c0-0.0424805,0-0.0848961,0.0106201-0.1379318c0.0106201-0.1061363,0.0424805-0.2122078,0.0848961-0.3182812
					c0.1060715-0.2758636,0.2864857-0.530489,0.4880733-0.7002811c0.0424156-0.0317955,0.0954514-0.0636559,0.137867-0.0954514
					c0.0531006-0.0318604,0.1167564-0.0531006,0.1697922-0.0636559c0.0424175-0.0106201,0.084898-0.0212402,0.1273136-0.0212402
					C17.8028755,26.8315945,17.8347359,26.9376659,17.8347359,27.0543575z" class="colorffffff svgShape"></path><path fill="none" d="M16.4715366,27.5220985c0.241415,0.1393566,0.4621067,0.1673317,0.6227036,0.0761528
						c0.1564522-0.0901413,0.2434864-0.2921829,0.2434864-0.5688248c0.0020714-0.6392803-0.4641781-1.4495201-1.0184975-1.7691593
						c-0.1502361-0.0870342-0.2932205-0.1310692-0.4175529-0.1310692c-0.0787449,0-0.1502361,0.0176144-0.2124033,0.05336
						c-0.1574888,0.0906601-0.2445221,0.2932205-0.2445221,0.5698624c-0.0007124,0.224123,0.0720749,0.4666386,0.1716709,0.7049427
						l0.0793915-0.0458469l-0.0793915,0.0458469C15.7997484,26.8960285,16.1096745,27.312933,16.4715366,27.5220985z"></path><path fill="#6822a2" d="M17.6543865,27.0331821c0,0.3925571-0.1379318,0.6895981-0.4031754,0.83815
						c-0.1061363,0.0636559-0.2334499,0.0955162-0.3713818,0.0955162c-0.0424156,0-0.0848312,0-0.1273117-0.0106201
						c0.0106201-0.1061363,0.0424805-0.2122078,0.0848961-0.3182812c0.0954514,0.0211773,0.1803474,0,0.2546234-0.0424805
						c0.159174-0.0848961,0.2440052-0.2864189,0.2440052-0.5622845c0-0.0318604,0-0.0636559-0.0105553-0.0955162
						c-0.0318604-0.6259403-0.4880733-1.3686371-1.0079422-1.676363c-0.1485519-0.0848312-0.2864838-0.1273117-0.4137964-0.1273117
						c-0.084897,0-0.1485529,0.0106201-0.2122087,0.0531006c-0.1591082,0.0848312-0.2440042,0.2864189-0.2440042,0.5622845
						c0,0.2228279,0.074276,0.4668331,0.1697283,0.7108364l-0.2758646,0.159174
						c-0.1273127-0.2864857-0.2121439-0.5835247-0.2121439-0.8700104c0-0.3925571,0.1379318-0.689661,0.4031763-0.83815
						c0.2546244-0.1591721,0.5941458-0.1273117,0.9442205,0.0742779c0.5835896,0.3288994,1.0609779,1.0927734,1.1564941,1.7930546
						C17.6437664,26.86339,17.6543865,26.9482861,17.6543865,27.0331821z" class="color5b5e71 svgShape"></path></g><g fill="#010001" class="color000000 svgShape"><g fill="#010001" class="color000000 svgShape"><polygon fill="#5046e4" points="10.992 23.735 36.119 9.133 36.112 11.551 10.985 26.153" class="colorc4c6c6 svgShape"></polygon><polygon fill="#f4f6f8" points="8.895 22.525 34.022 7.923 36.119 9.133 10.992 23.735" class="colorecf0f1 svgShape"></polygon><polygon fill="#d4d5d6" points="10.992 23.735 10.985 26.153 8.888 24.943 8.895 22.525" class="colord4d6d6 svgShape"></polygon></g></g></svg>