<svg xmlns="http://www.w3.org/2000/svg" enable-background="new 0 0 50 50" viewBox="0 0 50 50" id="SaleBoard"><g fill="#010001" class="color000000 svgShape"><polygon fill="#f4f6f8" points="13.371 47.551 13.373 48.075 13.077 47.017 13.075 46.493" class="colord4dbe9 svgShape"></polygon><polygon fill="#9eb0c2" points="18.988 47.036 18.99 47.56 18.156 48.514 18.154 47.99" class="color9eaac2 svgShape"></polygon><polygon fill="#f4f6f8" points="14.683 48.308 14.685 48.832 13.373 48.075 13.371 47.551" class="colord4dbe9 svgShape"></polygon><polygon fill="#b4c5d7" points="16.509 48.476 16.512 49 14.685 48.832 14.683 48.308" class="colorb4bed7 svgShape"></polygon><polygon fill="#9eb0c2" points="18.154 47.99 18.156 48.514 16.512 49 16.509 48.476" class="color9eaac2 svgShape"></polygon><polygon fill="#e3e9f0" points="18.692 45.978 18.988 47.036 18.154 47.99 16.509 48.476 14.683 48.308 13.371 47.551 13.075 46.493 13.909 45.539 15.553 45.053 17.381 45.221" class="colore3e6f0 svgShape"></polygon></g><g fill="#010001" class="color000000 svgShape"><polygon fill="#e3e9f0" points="14.572 32.99 14.538 46.903 14.376 46.322 14.41 32.41" class="colore3e6f0 svgShape"></polygon><polygon fill="#9eb0c2" points="17.654 32.708 17.62 46.62 17.162 47.143 17.196 33.231" class="color9eaac2 svgShape"></polygon><polygon fill="#e3e9f0" points="15.292 33.406 15.258 47.318 14.538 46.903 14.572 32.99" class="colore3e6f0 svgShape"></polygon><polygon fill="#f4f6f8" points="16.294 33.498 16.26 47.41 15.258 47.318 15.292 33.406" class="colord4dbe9 svgShape"></polygon><polygon fill="#b4c5d7" points="17.196 33.231 17.162 47.143 16.26 47.41 16.294 33.498" class="colorb4bed7 svgShape"></polygon><polygon fill="#9d9bb9" points="18.227 31.137 18.373 31.662 17.959 32.136 17.143 32.377 16.236 32.294 15.586 31.918 15.439 31.393 15.853 30.919 16.669 30.678 17.576 30.761" class="color9ba4b9 svgShape"></polygon></g><g fill="#010001" class="color000000 svgShape"><g fill="#010001" class="color000000 svgShape"><polygon fill="#f4f6f8" points="31.693 36.89 31.695 37.414 31.399 36.356 31.397 35.832" class="colord4dbe9 svgShape"></polygon><polygon fill="#9eb0c2" points="37.309 36.375 37.312 36.899 36.478 37.853 36.475 37.329" class="color9eaac2 svgShape"></polygon><polygon fill="#f4f6f8" points="33.004 37.648 33.007 38.172 31.695 37.414 31.693 36.89" class="colord4dbe9 svgShape"></polygon><polygon fill="#b4c5d7" points="34.831 37.815 34.833 38.339 33.007 38.172 33.004 37.648" class="colorb4bed7 svgShape"></polygon><polygon fill="#9eb0c2" points="36.475 37.329 36.478 37.853 34.833 38.339 34.831 37.815" class="color9eaac2 svgShape"></polygon><polygon fill="#e3e9f0" points="37.014 35.317 37.309 36.375 36.475 37.329 34.831 37.815 33.004 37.648 31.693 36.89 31.397 35.832 32.231 34.878 33.875 34.392 35.703 34.56" class="colore3e6f0 svgShape"></polygon></g><g fill="#010001" class="color000000 svgShape"><polygon fill="#e3e9f0" points="32.894 22.33 32.86 36.242 32.697 35.661 32.732 21.749" class="colore3e6f0 svgShape"></polygon><polygon fill="#9eb0c2" points="35.975 22.047 35.941 35.959 35.484 36.483 35.518 22.57" class="color9eaac2 svgShape"></polygon><polygon fill="#e3e9f0" points="33.614 22.745 33.579 36.657 32.86 36.242 32.894 22.33" class="colore3e6f0 svgShape"></polygon><polygon fill="#f4f6f8" points="34.616 22.837 34.582 36.749 33.579 36.657 33.614 22.745" class="colord4dbe9 svgShape"></polygon><polygon fill="#b4c5d7" points="35.518 22.57 35.484 36.483 34.582 36.749 34.616 22.837" class="colorb4bed7 svgShape"></polygon><polygon fill="#9d9bb9" points="34.8 21.494 34.947 22.018 34.533 22.492 33.717 22.733 32.81 22.65 32.159 22.274 32.012 21.749 32.426 21.276 33.242 21.034 34.149 21.118" class="color9ba4b9 svgShape"></polygon></g></g><g fill="#010001" class="color000000 svgShape"><polygon fill="#ed5ed3" points="37.573 6.814 35.332 5.498 35.381 23.07 37.622 24.386" class="colored5e72 svgShape"></polygon><polygon fill="#91c2f4" points="37.622 24.386 35.381 23.07 10.573 37.541 12.814 38.856" class="colorf491ab svgShape"></polygon><polygon fill="#f4f6f8" points="11.984 20.826 12.034 38.398 36.842 23.928 36.793 6.356" class="colorffffff svgShape"></polygon><path fill="#5046e4" d="M22.89207 22.20659l2.16101 4.46157-1.18154.68216-.46119-.96505-2.08099 1.20146-.45954 1.49663-1.17622.67909 2.1287-6.93823L22.89207 22.20659zM21.74665 26.22484l1.24008-.71596-.62205-1.2949L21.74665 26.22484M17.48434 25.20012c.32998-.19051.66547-.31674.99581-.37885.33034-.06211.61828-.03859.86378.05862l-.5562 1.25233c-.43218-.13034-.87444-.05879-1.33747.20855-.18096.10448-.32984.23929-.436.39862-.10615.16564-.15901.32477-.15852.49598.00047.1649.07002.25369.19803.27749.13334.02106.43171-.03456.90045-.17059.47406-.13877.84184-.15536 1.09807-.03377.26154.11254.3957.42724.39716.94086.00144.50764-.16769 1.02171-.49677 1.53041-.3344.51144-.77037.92234-1.31856 1.23884-.78237.4517-1.49118.52427-2.12109.21996l.65732-1.31038c.53374.23089 1.02948.21421 1.48186-.04698.20757-.11984.3671-.26113.47857-.42951.11681-.16548.17497-.33366.17449-.50486-.00048-.17154-.06475-.27501-.18744-.30222-.12271-.03351-.3678.00995-.73.11505-.57525.17293-1.0016.21702-1.26845.11353-.26682-.09687-.401-.41754-.40252-.95571-.00154-.54448.16759-1.05854.50205-1.54576C16.55869 25.88143 16.97873 25.49203 17.48434 25.20012z" class="color678cc8 svgShape"></path><polygon fill="#5046e4" points="26.719 19.997 26.732 24.566 28.845 23.346 28.848 24.477 25.628 26.336 25.612 20.636" class="color678cc8 svgShape"></polygon><polygon fill="#5046e4" points="33.217 16.245 33.22 17.383 30.751 18.809 30.754 19.983 32.974 18.701 32.977 19.784 30.757 21.065 30.761 22.246 33.31 20.774 33.313 21.899 29.657 24.01 29.641 18.31" class="color678cc8 svgShape"></polygon><path fill="#a50b89" d="M38.75222,25.03662L11.69097,40.8213L11.6343,20.62762L38.69555,4.84294L38.75222,25.03662z
				 M12.81378,38.85645l24.80828-14.47053L37.57275,6.81355L12.76447,21.28408L12.81378,38.85645" class="colore44555 svgShape"></path><polygon fill="#ed5ed3" points="11.634 20.628 9.394 19.312 9.45 39.506 11.691 40.821" class="colored5e72 svgShape"></polygon><polygon fill="#91c2f4" points="38.696 4.843 36.455 3.527 9.394 19.312 11.634 20.628" class="colorf491ab svgShape"></polygon><g fill="#010001" class="color000000 svgShape"><polygon fill="#3a283a" points="19.708 19.488 21.205 18.618 21.2 21.051 19.703 21.921" class="color282e3a svgShape"></polygon><polygon fill="#78757a" points="12.676 13.204 13.95 12.464 14.295 12.277 13.886 12.515" class="color75767a svgShape"></polygon><polygon fill="#e3e9f0" points="13.886 12.515 14.295 12.277 17.174 13.939 16.765 14.177" class="colore3e6f0 svgShape"></polygon><polygon fill="#6822a2" points="19.267 17.499 17.769 18.369 19.708 19.488 21.205 18.618" class="color4d5772 svgShape"></polygon><rect width=".473" height="5.113" x="18.013" y="13.715" fill="#b4c5d7" transform="rotate(149.838 18.25 16.271)" class="colorb4bed7 svgShape"></rect><polygon fill="#f4f6f8" points="13.886 12.514 12.676 13.204 12.673 17.4 12.996 17.211 12.999 13.543 13.408 13.306 13.408 13.307 14.018 12.956 16.632 14.465 18.869 18.34 19.325 18.604 16.765 14.177" class="colord4dbe9 svgShape"></polygon><polygon fill="#463852" points="19.708 19.488 19.703 21.921 17.767 19.098 17.769 18.369 18.162 18.595 18.618 18.858" class="color384052 svgShape"></polygon><polygon fill="#b4c5d7" points="12.996 17.211 13.405 16.972 13.408 13.308 12.999 13.543" class="colorb4bed7 svgShape"></polygon><g fill="#010001" class="color000000 svgShape"><polygon fill="#3a283a" points="39.109 8.211 40.606 7.341 40.601 9.774 39.104 10.644" class="color282e3a svgShape"></polygon><polygon fill="#78757a" points="32.077 1.927 33.351 1.187 33.696 1 33.287 1.238" class="color75767a svgShape"></polygon><polygon fill="#e3e9f0" points="33.287 1.238 33.696 1 36.575 2.662 36.166 2.9" class="colore3e6f0 svgShape"></polygon><polygon fill="#6822a2" points="38.667 6.222 37.17 7.092 39.109 8.211 40.606 7.341" class="color4d5772 svgShape"></polygon><rect width=".473" height="5.113" x="37.414" y="2.438" fill="#b4c5d7" transform="rotate(149.838 37.65 4.994)" class="colorb4bed7 svgShape"></rect><polygon fill="#f4f6f8" points="33.287 1.237 32.077 1.927 32.074 6.123 32.397 5.934 32.4 2.266 32.809 2.028 32.809 2.03 33.419 1.679 36.033 3.188 38.27 7.063 38.726 7.326 36.166 2.9" class="colord4dbe9 svgShape"></polygon><polygon fill="#463852" points="39.109 8.211 39.104 10.644 37.168 7.821 37.17 7.092 37.563 7.318 38.019 7.581" class="color384052 svgShape"></polygon><polygon fill="#b4c5d7" points="32.397 5.934 32.806 5.695 32.809 2.031 32.4 2.266" class="colorb4bed7 svgShape"></polygon></g><g fill="#010001" class="color000000 svgShape"><polygon fill="#3a283a" points="32.642 11.97 34.139 11.1 34.134 13.533 32.637 14.403" class="color282e3a svgShape"></polygon><polygon fill="#78757a" points="25.61 5.686 26.884 4.946 27.229 4.759 26.82 4.997" class="color75767a svgShape"></polygon><polygon fill="#e3e9f0" points="26.82 4.997 27.229 4.759 30.108 6.421 29.699 6.659" class="colore3e6f0 svgShape"></polygon><polygon fill="#6822a2" points="32.2 9.981 30.703 10.851 32.642 11.97 34.139 11.1" class="color4d5772 svgShape"></polygon><rect width=".473" height="5.113" x="30.947" y="6.197" fill="#b4c5d7" transform="rotate(149.838 31.183 8.753)" class="colorb4bed7 svgShape"></rect><polygon fill="#f4f6f8" points="26.82 4.996 25.61 5.686 25.607 9.882 25.93 9.693 25.933 6.025 26.342 5.787 26.342 5.789 26.952 5.438 29.566 6.947 31.803 10.822 32.259 11.085 29.699 6.659" class="colord4dbe9 svgShape"></polygon><polygon fill="#463852" points="32.642 11.97 32.637 14.403 30.701 11.58 30.703 10.851 31.096 11.077 31.552 11.34" class="color384052 svgShape"></polygon><polygon fill="#b4c5d7" points="25.93 9.693 26.339 9.454 26.342 5.79 25.933 6.025" class="colorb4bed7 svgShape"></polygon></g><g fill="#010001" class="color000000 svgShape"><polygon fill="#3a283a" points="26.175 15.729 27.672 14.859 27.667 17.292 26.17 18.162" class="color282e3a svgShape"></polygon><polygon fill="#78757a" points="19.143 9.445 20.417 8.705 20.762 8.518 20.353 8.756" class="color75767a svgShape"></polygon><polygon fill="#e3e9f0" points="20.353 8.756 20.762 8.518 23.641 10.18 23.232 10.418" class="colore3e6f0 svgShape"></polygon><polygon fill="#6822a2" points="25.733 13.74 24.236 14.61 26.175 15.729 27.672 14.859" class="color4d5772 svgShape"></polygon><rect width=".473" height="5.113" x="24.48" y="9.956" fill="#b4c5d7" transform="rotate(149.838 24.716 12.512)" class="colorb4bed7 svgShape"></rect><polygon fill="#f4f6f8" points="20.353 8.755 19.143 9.445 19.14 13.641 19.463 13.452 19.466 9.784 19.875 9.546 19.875 9.548 20.485 9.197 23.099 10.706 25.336 14.581 25.792 14.844 23.232 10.418" class="colord4dbe9 svgShape"></polygon><polygon fill="#463852" points="26.175 15.729 26.17 18.162 24.234 15.339 24.236 14.61 24.629 14.836 25.085 15.099" class="color384052 svgShape"></polygon><polygon fill="#b4c5d7" points="19.463 13.452 19.872 13.213 19.875 9.549 19.466 9.784" class="colorb4bed7 svgShape"></polygon></g></g></g></svg>