<svg xmlns="http://www.w3.org/2000/svg" enable-background="new 0 0 50 50" viewBox="0 0 50 50" id="Writing"><path fill="#6822a2" d="M48.75459,22.79573c-0.3957,1.5772-1.2413,2.5558-2.268,2.8509l-8.3025,2.3969
				c1.0379-0.3016,1.8724-1.2737,2.2793-2.8579c0.8092-3.188-0.4646-7.6424-2.8316-9.9414
				c-1.1958-1.1573-2.4504-1.5483-3.4883-1.2468l8.2913-2.39c1.0469-0.2997,2.2926,0.0891,3.4883,1.2468
				C48.29899,15.15553,49.56619,19.59803,48.75459,22.79573z" class="color4d5772 svgShape"></path><path fill="#f4f6f8" d="M40.45749,25.17983c-0.8014,3.1948-3.3881,3.9123-5.7588,1.6146
				c-2.3804-2.3001-3.6507-6.7486-2.8397-9.9411c0.8087-3.1831,3.3976-3.9099,5.7684-1.6122
				C40.00539,17.55053,41.26599,21.99713,40.45749,25.17983z" class="color384052 svgShape"></path><path fill="#f4f6f8" d="M39.59519,24.64793c-0.345,1.3755-1.0825,2.229-1.97779,2.4863l-2.7462,0.7948
				c0.9051-0.2629,1.6328-1.1108,1.9877-2.4923c0.7057-2.7802-0.4051-6.6648-2.4694-8.6698
				c-1.0428-1.0093-2.137-1.3503-3.0421-1.0873l2.7364-0.7888c0.913-0.2614,1.9994,0.0776,3.0421,1.0873
				C39.19789,17.98503,40.30309,21.85933,39.59519,24.64793z" class="colore3e6f0 svgShape"></path><path fill="#b4c5d7" d="M29.35989,18.17623c-0.7073,2.7779,0.3976,6.6574,2.4643,8.6592
				c2.0767,2.0037,4.3323,1.379,5.0298-1.4014c0.7073-2.7779-0.3976-6.6574-2.4718-8.6712
				C32.31539,14.76153,30.06959,15.38873,29.35989,18.17623z" class="colorb4bed7 svgShape"></path><g fill="#010001" class="color000000 svgShape"><path fill="#98bee5" d="M6.63539 36.73753c0 0-3.8977-3.962-4.5124-5.3777-.6146-1.4157.3323-2.3198.8679-4.2875.5356-1.9676 2.3488-1.9158 2.3488-1.9158L6.63539 36.73753zM8.45129 37.31863c0 0 2.619 6.4458 4.8649 5.8768 2.2459-.5691 1.3151-2.8832 1.3151-2.8832s.7026 3.1359 2.3958 1.8528c1.6933-1.2832.2999-2.9553.2999-2.9553s3.2598.3096.5024-3.723C15.07209 31.45403 8.45129 37.31863 8.45129 37.31863z" class="colore5b998 svgShape"></path><path fill="#98bee5" d="M14.61659,20.04663c-1.1835-0.0243-1.7921,1.2594-1.9459,2.0556
			c-0.1538,0.7963-1.598-2.2821-2.4561-2.6873c0,0,1.075,1.9878,1.0128,3.3323c0,0-0.78,1.3622-1.02,0.507
			c-0.2401-0.8552-0.8537-2.648-1.1135-1.9787c-0.2598,0.6693,0.2518,2.0304,0.2635,3.2055
			c0.0117,1.175-1.6083,3.0017-2.2842,2.5535c-0.6758-0.4483-1.733-1.2244-2.4442-1.0183c0,0,1.455,0.5301,1.9286,2.052
			s1.3846,8.754,1.0634,9.3239c-0.3213,0.5699,1.6974-1.6461,2.4811-2.5241c0.9025-1.0113,2.0609-1.2469,3.1739-2.0038
			c1.1129-0.7569,1.8202-2.427,2.1435-3.3098c0.3233-0.8827,3.2696-4.0107,2.9269-5.9435
			C18.00359,21.67813,15.80019,20.07093,14.61659,20.04663z" class="colore5b998 svgShape"></path><path fill="#b4d6f8" d="M34.06969,17.13433c-0.036-0.0352-0.4004-0.3275-0.4364-0.3612
			c-0.8725-0.7991-1.8655-0.7683-2.9128-0.3211c-1.2319,0.526-4.4511,0.7097-16.0679-2.2178
			c-4.1697-1.0507-5.824-1.2017-7.0007,0.7483c-1.1767,1.951-3.416,5.3019-5.8381,8.1743
			c-2.4223,2.8719,1.2817,6.4569,1.8307,7.8951c0.5489,1.4381,1.1481,2.7951,0.8293,6.4597
			c-0.3187,3.6635,2.5877,1.5134,2.5877,1.5134c0.0092,0.0648,0.0205,0.1292,0.0338,0.1914
			c0.3054,1.4412,1.7938,2.3108,3.2245,1.9603c2.4985-0.6117,6.2761-2.6996,7.6469-4.6066
			c1.8631-2.5908,2.9624-2.4042,2.9624-2.4042s3.9964,0.5976,8.682-1.727c2.782-1.3801,6.2783-5.7326,6.5648-6.4701
			C37.20559,23.31813,35.99869,19.00273,34.06969,17.13433z M15.41949,29.55443c-0.3233,0.8831-1.0306,2.5531-2.1435,3.3093
			c-1.1129,0.7573-2.2714,0.9931-3.1739,2.0046c-0.7836,0.8774-2.8025,3.0938-2.4811,2.5239
			c0.3213-0.5704-0.0575-7.802-0.5311-9.3238c-0.4736-1.5223-2.4609-2.0524-2.4609-2.0524c0.7112-0.206,1.7684,0.5697,2.4442,1.0186
			c0.6759,0.4479,2.2959-1.3791,2.2843-2.5538c-0.0118-1.1753-0.5233-2.5359-0.2635-3.2052
			c0.2598-0.6694,0.8733,1.1233,1.1134,1.9786c0.24,0.8547,1.0201-0.5069,1.0201-0.5069c0.0621-1.3444-1.0129-3.3328-1.0129-3.3328
			c0.8583,0.4055,2.3024,3.484,2.4562,2.6876c0.1537-0.7964,0.7622-2.0796,1.9458-2.0559c1.1836,0.0242,3.387,1.6319,3.7298,3.5648
			C18.68909,25.54343,15.74269,28.67183,15.41949,29.55443z" class="colorf8d5b4 svgShape"></path><path fill="#3a283a" d="M3.80309,45.00853l0.0474,2.4311c0.0012,0.0614,0.0388,0.1162,0.0957,0.1394
					c0.0568,0.0233,0.1221,0.0105,0.1659-0.0325l1.7367-1.7016L3.80309,45.00853z" class="color282e3a svgShape"></path><path fill="#f4f6f8" d="M4.34869,40.19873l-0.576,4.741c-0.019,0.1444,0.0336,0.3092,0.1641,0.4792
					c0.3227,0.4168,1.0129,0.699,1.5351,0.6277c0.2202-0.0338,0.378-0.1232,0.4608-0.2478l2.8962-3.7683L4.34869,40.19873z" class="color384052 svgShape"></path><g fill="#010001" class="color000000 svgShape"><path fill="#6822a2" d="M18.34589,18.79853l-9.5166,23.232c-0.1358,0.3296-0.4874,0.5704-1.0236,0.6451
								c-1.0793,0.1502-2.4981-0.4299-3.1687-1.2956c-0.3375-0.4357-0.4213-0.8607-0.2837-1.1945l9.5166-23.232
								c-0.1376,0.3339-0.0538,0.7589,0.2837,1.1946c0.6706,0.8657,2.0894,1.4458,3.1686,1.2955
								C17.85849,19.36903,18.21009,19.12813,18.34589,18.79853z" class="color4d5772 svgShape"></path><path fill="#ed5ed3" d="M12.80179,30.48363c-1.0814,0.1482-2.4975-0.4308-3.1713-1.2966
								c-0.3357-0.436-0.4221-0.8532-0.2859-1.1864l-0.4013,0.9817c-0.1362,0.3332-0.0546,0.7623,0.2834,1.1924
								c0.6714,0.8717,2.0875,1.4507,3.1713,1.2967c0.5306-0.075,0.8845-0.3121,1.0207-0.6454l0.4038-0.9877
								C13.68629,30.17153,13.33229,30.40893,12.80179,30.48363z" class="colored5e72 svgShape"></path><path fill="#5046e4" d="M18.36369,16.90353c-1.0838,0.154-2.4998-0.425-3.1713-1.2967
								c-0.3358-0.4356-0.4197-0.8589-0.2835-1.1921l-0.4036,0.9875c-0.1364,0.3335-0.0549,0.7626,0.2808,1.1985
								c0.6739,0.8656,2.09,1.4445,3.1713,1.2967c0.533-0.0808,0.8845-0.3122,1.0207-0.6454l0.4062-0.9936
								C19.24809,16.59173,18.89419,16.82883,18.36369,16.90353z" class="color86aedc svgShape"></path><path fill="#b4d6f8" d="M18.06219,17.60403c-0.6707-0.8659-2.0892-1.4459-3.1686-1.2956
							c-1.0793,0.1503-1.4108,0.9738-0.74,1.8397c0.6706,0.8657,2.0894,1.4458,3.1686,1.2955
							C18.40169,19.29343,18.73289,18.46973,18.06219,17.60403z" class="colorf8d4b4 svgShape"></path></g><g fill="#010001" class="color000000 svgShape"><path fill="#ed5ed3" d="M23.12329,7.49883l-4.9754,12.1356c-0.144,0.3495-0.5168,0.6048-1.0853,0.6839
								c-1.1443,0.1593-2.6486-0.4557-3.3597-1.3736c-0.3578-0.4619-0.4466-0.9125-0.3007-1.2665l4.9753-12.1356
								c-0.1458,0.354-0.057,0.8046,0.3008,1.2666c0.711,0.9178,2.2153,1.5329,3.3596,1.3736
								C22.60649,8.10363,22.97919,7.84833,23.12329,7.49883z" class="colored5e72 svgShape"></path><path fill="#91c2f4" d="M22.82249,6.23233c-0.7111-0.9181-2.2151-1.533-3.3596-1.3736
							c-1.1443,0.1592-1.4958,1.0324-0.7846,1.9505c0.711,0.9178,2.2153,1.5329,3.3596,1.3736
							C23.18239,8.02353,23.53349,7.15013,22.82249,6.23233z" class="colorf491ab svgShape"></path></g><g fill="#010001" class="color000000 svgShape"><path fill="#f4f6f8" d="M23.45049,4.02823l-1.2048,2.9259c-0.0874,0.2123-0.3138,0.3674-0.6592,0.4154
								c-0.6949,0.0968-1.6086-0.2768-2.0404-0.8342c-0.2173-0.2806-0.2713-0.5542-0.1827-0.7692l1.2049-2.926
								c-0.0886,0.215-0.0347,0.4887,0.1826,0.7693c0.4318,0.5574,1.3455,0.931,2.0405,0.8342
								C23.13669,4.39553,23.36309,4.24053,23.45049,4.02823z" class="color384052 svgShape"></path><path fill="#6822a2" d="M23.26789,3.25903c-0.4319-0.5576-1.3454-0.931-2.0405-0.8343
							c-0.695,0.0968-0.9084,0.6271-0.4765,1.1847c0.4319,0.5574,1.3455,0.931,2.0405,0.8342
							C23.48649,4.34693,23.69969,3.81643,23.26789,3.25903z" class="color4d5772 svgShape"></path></g><g fill="#010001" class="color000000 svgShape"><g fill="#010001" class="color000000 svgShape"><path fill="#a50b89" d="M23.38089,10.54523c0.0192,0.1043,0.0068,0.2244-0.0277,0.3087l-3.3649,8.1714
							c-0.0398,0.0966-0.0989,0.1459-0.1587,0.1464l-0.9092,0.1277c0.049-0.0116,0.1004-0.0591,0.1369-0.1467l3.3648-8.1713
							c0.0345-0.0845,0.0445-0.2038,0.0278-0.3088c-0.0083-0.1043-0.052-0.2084-0.1042-0.2913l-0.9572-1.2278l0.9316-0.1249
							l0.9513,1.2374C23.32899,10.33693,23.36369,10.43753,23.38089,10.54523z" class="colore44555 svgShape"></path><path fill="#91c2f4" d="M22.34649,10.38693c0.1191,0.1536,0.1512,0.4219,0.0777,0.6004l-3.3675,8.1711
							c-0.0737,0.1788-0.2246,0.1986-0.3436,0.0449c-0.119-0.1536-0.1596-0.4206-0.0859-0.5994l3.2327-7.8442l-0.7364-0.9523
							l0.2693-0.6534L22.34649,10.38693z" class="colorf491ab svgShape"></path></g></g><path fill="#b4d6f8" d="M10.10209,34.86803c-0.7837,0.878-2.8024,3.094-2.4811,2.5241c0.2727-0.4838,0.1898-5.7668-0.2921-8.2839
			l-4.2906,0.888c0.2751,0.4182,0.5,0.7774,0.6061,1.0556c0.5489,1.4383,1.1482,2.7949,0.8295,6.4592
			c-0.3188,3.6642,2.5876,1.5141,2.5876,1.5141c0.0092,0.0647,0.0205,0.1285,0.0338,0.1911c0.3054,1.441,1.7939,2.311,3.2245,1.9607
			c1.5918-0.3897,3.702-1.3791,5.379-2.5387l-1.5631-6.6153c-0.2537,0.3286-0.5393,0.6235-0.8597,0.8413
			C12.16299,33.62113,11.00459,33.85673,10.10209,34.86803z" class="colorf8d5b4 svgShape"></path><path fill="#98bee5" d="M7.06149,39.02513c0.0166-0.2763,0.0752-0.5462,0.155-0.81c0.0417-0.1314,0.0889-0.2618,0.1503-0.3863
			c0.0608-0.124,0.1291-0.2487,0.2295-0.346c-0.0643,0.1222-0.1105,0.2489-0.1549,0.3768c-0.0425,0.1285-0.086,0.2566-0.1248,0.3867
			C7.23399,38.50503,7.15799,38.76613,7.06149,39.02513z" class="colore5b998 svgShape"></path><path fill="#f4f6f8" d="M10.31329,35.65163l-1.7898,1.4136c0,0-2.0297,1.4464-1.1822,2.8375
			c0.8644,1.4189,1.8192,1.6666,3.3342,1.0774c1.515-0.5892,2.7066-1.3269,2.7066-1.3269S10.62449,37.38643,10.31329,35.65163z" class="colore3e6f0 svgShape"></path></g></svg>