<svg xmlns="http://www.w3.org/2000/svg" enable-background="new 0 0 132 132" viewBox="0 0 132 132" id="MobileMessage"><g fill="#010001" class="color000000 svgShape"><path fill="#5046e4" d="M35.7,89.6c0,0.1-0.1,0.3-0.3,0.4l-4.5,2.6l0-3.7l4.5-2.6c0.2-0.1,0.3-0.3,0.3-0.4L35.7,89.6z" class="color4562ef svgShape"></path><polygon fill="#5046e4" points="24.8 92.5 24.8 96.2 32.3 97 32.3 93.3" class="color4562ef svgShape"></polygon><path fill="#f4f6f8" d="M24.8,96.2l-4.5,2.6c-0.4,0.2-1,0.2-1.4,0L4.6,90.6c-0.2-0.1-0.3-0.3-0.3-0.4l0-3.7
						c0,0.1,0.1,0.3,0.3,0.4l14.2,8.3c0.4,0.2,1,0.2,1.4,0l4.5-2.6L24.8,96.2z" class="color576cfb svgShape"></path><path fill="#7d74fd" d="M4.6,86c-0.4,0.2-0.4,0.6,0,0.8l14.2,8.3c0.4,0.2,1,0.2,1.4,0l4.5-2.6l7.5,0.8L30.9,89l4.5-2.6
						c0.4-0.2,0.4-0.6,0-0.8l-14.2-8.3c-0.4-0.2-1-0.2-1.4,0L4.6,86z" class="color748bfd svgShape"></path></g><path fill="#514759" d="M18.8,65.5V71c0,0.6,0.4,1.2,1.2,1.6L84.2,110c1.6,0.9,4.1,0.9,5.7,0l39-22.5c0.8-0.5,1.2-1.1,1.2-1.7
				v-5.5c0,0.6-0.4,1.2-1.2,1.6l-39,22.5c-1.6,0.9-4.1,0.9-5.7,0L19.9,67.1C19.1,66.6,18.8,66.1,18.8,65.5z" class="color474b59 svgShape"></path><path fill="#6822a2" d="M19.9,63.8c-1.6,0.9-1.6,2.4,0,3.3l64.3,37.3c1.6,0.9,4.1,0.9,5.7,0l39-22.5c1.6-0.9,1.6-2.4,0-3.3
				L64.6,41.3c-1.6-0.9-4.1-0.9-5.7,0L19.9,63.8z" class="color5b5e71 svgShape"></path><path fill="#514759" d="M103.9 89.9c-.9.5-.9 1.4 0 1.9.9.5 2.4.5 3.3 0 .9-.5.9-1.4 0-1.9C106.3 89.4 104.8 89.4 103.9 89.9zM43.6 54.9c-.6.4-1.6.4-2.2 0-.6-.4-.6-.9 0-1.3.6-.4 1.6-.4 2.2 0C44.2 54 44.2 54.5 43.6 54.9zM88.5 99.6c-.6.3-.6.8 0 1.1.5.3 1.4.3 2 0l3.4-2c.5-.3.6-.8 0-1.1-.5-.3-1.4-.3-2 0L88.5 99.6zM116.8 83.2c-.5.3-.6.8 0 1.1.5.3 1.4.3 2 0l3.4-2c.5-.3.6-.8 0-1.1-.5-.3-1.4-.3-2 0L116.8 83.2z" class="color474b59 svgShape"></path><polygon fill="#f4f6f8" points="26.1 66.8 82.8 99.7 121 77.6 64.4 44.7" class="colorffffff svgShape"></polygon><path fill="#bac4ce" d="M27.4,73.6c0.2-0.1,0.5-0.1,0.8,0.1l8.1,4.7c0.6,0.3,1.1,1.2,1.1,1.9c0,0.3-0.1,0.6-0.3,0.7l0.4-0.3
					c0.2-0.1,0.3-0.3,0.3-0.7c0-0.7-0.5-1.5-1.1-1.9l-8.2-4.7c-0.3-0.2-0.6-0.2-0.8-0.1L27.4,73.6z" class="colorbac1ce svgShape"></path><path fill="#d4dee8" d="M28.2,73.7c-0.6-0.4-1.1-0.1-1.1,0.6c0,0.7,0.5,1.5,1.1,1.9l8.1,4.7c0.6,0.3,1.1,0.1,1.1-0.6
					c0-0.7-0.5-1.5-1.1-1.9L28.2,73.7z" class="colord4dae8 svgShape"></path><path fill="#bac4ce" d="M39.5,80.9c0.2-0.1,0.5-0.1,0.8,0.1l8.1,4.7c0.6,0.3,1.1,1.2,1.1,1.9c0,0.3-0.1,0.6-0.3,0.7l0.4-0.3
					c0.2-0.1,0.3-0.3,0.3-0.7c0-0.7-0.5-1.5-1.1-1.9l-8.2-4.7c-0.3-0.2-0.6-0.2-0.8-0.1L39.5,80.9z" class="colorbac1ce svgShape"></path><path fill="#d4dee8" d="M40.3,81c-0.6-0.4-1.1-0.1-1.1,0.6c0,0.7,0.5,1.5,1.1,1.9l8.1,4.7c0.6,0.3,1.1,0.1,1.1-0.6
					c0-0.7-0.5-1.5-1.1-1.9L40.3,81z" class="colord4dae8 svgShape"></path><path fill="#724c91" d="M59.3,49.3l5-2.9l1.8,1.1l-5,2.9l-0.4-0.2l-0.6,0.3l-1-0.6l0.6-0.3L59.3,49.3z M63.7,48.6l0.5-0.3
					l-1.4-0.8l-0.5,0.3L63.7,48.6 M64.4,48.2l0.5-0.3l-1.4-0.8L63,47.4L64.4,48.2 M65.1,47.8l0.5-0.3l-1.4-0.8L63.7,47L65.1,47.8
					 M63.1,49l0.5-0.3L62.1,48l-0.5,0.3L63.1,49" class="color4c7891 svgShape"></path><polygon fill="#724c91" points="30.1 66.8 31.3 67.5 31.7 67.3 30.5 66.6" class="color4c7891 svgShape"></polygon><polygon fill="#724c91" points="30.4 66.2 32 67.1 32.4 66.8 30.9 66" class="color4c7891 svgShape"></polygon><polygon fill="#724c91" points="31.3 65.1 33.4 66.3 33.8 66 31.8 64.8" class="color4c7891 svgShape"></polygon><polygon fill="#724c91" points="31.7 64.4 34.1 65.8 34.6 65.6 32.2 64.2" class="color4c7891 svgShape"></polygon><polygon fill="#724c91" points="30.9 65.6 32.7 66.7 33.1 66.4 31.3 65.4" class="color4c7891 svgShape"></polygon><polygon fill="#724c91" points="36.7 62 38.8 63.2 39.2 62.9 37.1 61.7" class="color4c7891 svgShape"></polygon><polygon fill="#724c91" points="35.8 63.1 37.3 64 37.8 63.7 36.2 62.9" class="color4c7891 svgShape"></polygon><polygon fill="#724c91" points="36.3 62.5 38.1 63.6 38.5 63.3 36.7 62.3" class="color4c7891 svgShape"></polygon><polygon fill="#724c91" points="37.1 61.3 39.5 62.7 39.9 62.5 37.5 61.1" class="color4c7891 svgShape"></polygon><polygon fill="#724c91" points="35.5 63.7 36.6 64.4 37.1 64.2 35.9 63.5" class="color4c7891 svgShape"></polygon><g fill="#010001" class="color000000 svgShape"><path fill="#4aa1f9" d="M50,73.9l0,1.4c0,0.2,0.1,0.4,0.4,0.6L67.9,86c0.2,0.1,0.5,0.2,0.7,0.2c0.5,0,0.9,0,1.2-0.2l27-15.6
						c0.2-0.1,0.4-0.3,0.4-0.5v-1.4c0,0.2-0.2,0.4-0.4,0.5l-27,15.6c-0.3,0.2-0.8,0.3-1.2,0.2c-0.3,0-0.5-0.1-0.7-0.2L50.4,74.5
						C50.2,74.3,50,74.1,50,73.9z" class="colorf9bb4a svgShape"></path><path fill="#7abcfe" d="M50.4,73.3c-0.2,0.1-0.4,0.3-0.4,0.5c0,0.2,0.1,0.5,0.4,0.6l17.5,10.2c0.2,0.1,0.5,0.2,0.7,0.2
						c0.5,0,0.9,0,1.2-0.2l27-15.6c0.2-0.1,0.4-0.3,0.4-0.5c0-0.2-0.1-0.5-0.4-0.6L79.4,57.7c-0.3-0.2-0.7-0.2-1.1-0.2
						c-0.3,0-0.6,0.1-0.9,0.2L50.4,73.3z" class="colorfed57a svgShape"></path><path fill="#4aa1f9" d="M50,73.8c4.2-0.1,8.4-0.3,12.6-0.6c2.1-0.1,4.2-0.2,6.3-0.4l1.3-0.1l-0.1,0.3c-0.3,1.3-0.5,2.6-0.7,4
						c-0.2,1.3-0.4,2.7-0.5,4l-0.2,2c0,0.6-0.1,1.2-0.1,1.8c0.2-0.6,0.4-1.2,0.5-1.8l0.4-2c0.3-1.3,0.5-2.6,0.7-4
						c0.2-1.3,0.4-2.7,0.5-4c0-0.1,0-0.2,0-0.3l1.2-0.1c0.6,0,1-0.1,1.6-0.1c0.6-0.1,1.2-0.2,1.6-0.5c0.4-0.3,0.7-0.6,0.9-0.9
						c0.1-0.4,0.1-0.6,0.2-0.9l0.1-0.5l0.3,0c2.3-0.1,4.6-0.2,6.9-0.3c2.3-0.1,4.6-0.2,6.8-0.4l3.4-0.2c1.1-0.1,2.3-0.2,3.4-0.3
						c-1.1,0-2.3,0-3.5,0l-3.4,0.1c-2.3,0.1-4.6,0.2-6.9,0.3c-2.3,0.1-4.6,0.2-6.9,0.4l-0.2,0l0.1-0.9c0.2-1.2,0.5-2.4,0.6-3.7
						l0.6-3.6c0.1-1.2,0.3-2.4,0.5-3.7c-0.3,1.2-0.6,2.4-0.9,3.6l-0.8,3.6c-0.3,1.2-0.5,2.4-0.8,3.6l-0.2,1l-0.1,0.4l-0.1,0.4
						c-0.1,0.3-0.1,0.6-0.2,0.9c-0.1,0.2-0.3,0.5-0.6,0.7c-0.3,0.2-0.7,0.3-1.1,0.4c-0.4,0-1,0.1-1.5,0.1l-1.1,0.1l-0.6,0l-1.5,0.1
						c-2.1,0.1-4.2,0.3-6.3,0.4C58.3,73.1,54.1,73.4,50,73.8z" class="colorf9bb4a svgShape"></path><path fill="#f960dd" d="M81.3,56.2c1.9,1.1,1.9,2.9,0,3.9c-1.9,1.1-4.9,1.1-6.8,0c-1.9-1.1-1.9-2.9,0-3.9
						C76.4,55.2,79.4,55.2,81.3,56.2z M77.9,57.7c0,0.2,0.1,0.4,0.1,0.7l0,1.4l0.6,0.3l2.7-1.5l-0.6-0.4l-1.8,1l0-1.1
						c0-0.3,0-0.6-0.1-0.7c-0.1-0.2-0.2-0.3-0.4-0.4c-0.4-0.2-0.8-0.3-1.2-0.3c-0.5,0-0.8,0.1-1.2,0.3s-0.5,0.4-0.6,0.6
						c-0.1,0.2-0.1,0.4,0,0.7l0.8-0.1c-0.1-0.3,0-0.6,0.3-0.7c0.2-0.1,0.4-0.2,0.6-0.2c0.2,0,0.4,0,0.6,0.1
						C77.8,57.4,77.9,57.6,77.9,57.7" class="colorf9607f svgShape"></path><path fill="#f4f6f8" d="M75.9,57c-0.3,0.2-0.5,0.4-0.6,0.6c-0.1,0.2-0.1,0.4,0,0.7l0.8-0.1c-0.1-0.3,0-0.6,0.3-0.7
						c0.2-0.1,0.4-0.2,0.6-0.2c0.2,0,0.4,0,0.6,0.1c0.2,0.1,0.3,0.2,0.3,0.4c0,0.2,0.1,0.4,0.1,0.7l0,1.4l0.6,0.3l2.7-1.5l-0.6-0.4
						l-1.8,1l0-1.1c0-0.3,0-0.6-0.1-0.7c-0.1-0.2-0.2-0.3-0.4-0.4c-0.4-0.2-0.8-0.3-1.2-0.3C76.6,56.7,76.2,56.8,75.9,57z" class="colorffffff svgShape"></path><polygon fill="#e4ecf4" points="82.8 87.2 83.5 87.6 97.3 79.6 96.6 79.2" class="colore4e8f4 svgShape"></polygon><polygon fill="#e4ecf4" points="78.4 92.4 79.2 92.8 85.2 89.3 84.5 88.9" class="colore4e8f4 svgShape"></polygon><polygon fill="#e4ecf4" points="76.1 91 76.9 91.4 82.2 88.4 81.5 87.9" class="colore4e8f4 svgShape"></polygon><polygon fill="#e4ecf4" points="101.7 78.9 102.5 79.3 107.8 76.3 107.1 75.8" class="colore4e8f4 svgShape"></polygon><polygon fill="#e4ecf4" points="98.7 78 99.4 78.4 105.5 74.9 104.8 74.5" class="colore4e8f4 svgShape"></polygon><polygon fill="#e4ecf4" points="86.6 87.7 87.3 88.1 101.2 80.1 100.4 79.7" class="colore4e8f4 svgShape"></polygon><polygon fill="#e4ecf4" points="80.5 85.8 81.2 86.2 95.1 78.2 94.3 77.8" class="colore4e8f4 svgShape"></polygon><polygon fill="#e4ecf4" points="73.8 89.6 74.6 90.1 79.9 87 79.2 86.6" class="colore4e8f4 svgShape"></polygon><polygon fill="#e4ecf4" points="96.4 76.6 97.2 77 103.2 73.5 102.5 73.1" class="colore4e8f4 svgShape"></polygon><g fill="#010001" class="color000000 svgShape"><polygon fill="#e4ecf4" points="46.4 66 47.2 66.5 61 58.5 60.3 58.1" class="colore4e8f4 svgShape"></polygon><polygon fill="#e4ecf4" points="42.1 71.2 42.8 71.7 48.9 68.2 48.2 67.7" class="colore4e8f4 svgShape"></polygon><polygon fill="#e4ecf4" points="39.8 69.9 40.5 70.3 45.8 67.2 45.1 66.8" class="colore4e8f4 svgShape"></polygon><polygon fill="#e4ecf4" points="65.4 57.8 66.1 58.2 71.5 55.1 70.7 54.7" class="colore4e8f4 svgShape"></polygon><polygon fill="#e4ecf4" points="62.4 56.8 63.1 57.3 69.2 53.8 68.4 53.3" class="colore4e8f4 svgShape"></polygon><polygon fill="#e4ecf4" points="50.3 66.5 51 67 64.8 59 64.1 58.6" class="colore4e8f4 svgShape"></polygon><polygon fill="#e4ecf4" points="44.2 64.7 44.9 65.1 58.7 57.1 58 56.7" class="colore4e8f4 svgShape"></polygon><polygon fill="#e4ecf4" points="37.5 68.5 38.2 69 43.6 65.9 42.8 65.4" class="colore4e8f4 svgShape"></polygon><polygon fill="#e4ecf4" points="60.1 55.5 60.8 55.9 66.9 52.4 66.1 52" class="colore4e8f4 svgShape"></polygon></g></g><g fill="#010001" class="color000000 svgShape"><g fill="#010001" class="color000000 svgShape"><path fill="#98b8d8" d="M56,12.5c-0.2,0-0.4,0-0.6,0.1L5.6,41.3c-0.6,0.3-1,1.1-1,1.7l0.1,22.7c0,0.3,0.1,0.5,0.3,0.6
							l-2.6-1.5c-0.2-0.1-0.3-0.3-0.3-0.6L2,41.6c0-0.6,0.5-1.4,1-1.7l49.8-28.8c0.3-0.2,0.5-0.2,0.7-0.1L56,12.5z" class="color9ad898 svgShape"></path><path fill="#a375ca" d="M55.4,12.6c0.6-0.3,1-0.1,1,0.6l0.1,22.7c0,0.7-0.5,1.4-1,1.7l-4.4,2.5l1.1,5.6l-8.6-1.3l-38,21.9
							c-0.6,0.3-1,0.1-1-0.6L4.6,43.1c0-0.6,0.5-1.4,1-1.7L55.4,12.6z" class="color75ca75 svgShape"></path></g><polygon fill="#f4f6f8" points="35.1 36.3 8.8 51.4 8.8 52.8 35.1 37.6" class="colorffffff svgShape"></polygon><polygon fill="#f4f6f8" points="36.4 36.9 52.6 27.5 52.6 26.1 36.4 35.5" class="colorffffff svgShape"></polygon><polygon fill="#f4f6f8" points="27.4 37.9 52.6 23.4 52.6 22 27.4 36.5" class="colorffffff svgShape"></polygon><polygon fill="#f4f6f8" points="24 38.5 8.8 47.3 8.8 48.6 24 39.9" class="colorffffff svgShape"></polygon><polygon fill="#f4f6f8" points="33.2 29 8.8 43.1 8.8 44.5 33.2 30.4" class="colorffffff svgShape"></polygon><polygon fill="#f4f6f8" points="36.7 28.4 52.6 19.2 52.6 17.9 36.7 27" class="colorffffff svgShape"></polygon><polygon fill="#f4f6f8" points="29.9 44.8 52.6 31.7 52.6 30.3 29.9 43.4" class="colorffffff svgShape"></polygon><polygon fill="#f4f6f8" points="28.8 44 8.8 55.6 8.8 56.9 28.8 45.4" class="colorffffff svgShape"></polygon><polygon fill="#f4f6f8" points="37.2 43.3 18.5 54.2 18.5 55.5 37.2 44.7" class="colorffffff svgShape"></polygon><polygon fill="#f4f6f8" points="40.2 43 52.6 35.8 52.6 34.4 40.2 41.6" class="colorffffff svgShape"></polygon><polygon fill="#f4f6f8" points="16.8 55.1 8.8 59.7 8.8 61.1 16.8 56.5" class="colorffffff svgShape"></polygon></g><g fill="#010001" class="color000000 svgShape"><g fill="#010001" class="color000000 svgShape"><path fill="#f960dd" d="M72.6,12.9c0.1,0,0.3,0,0.5,0.1l42.2,24.3c0.5,0.3,0.9,0.9,0.9,1.5L116,65.1c0,0.3-0.1,0.5-0.3,0.5
							l2.2-1.3c0.1-0.1,0.2-0.3,0.2-0.5l0.1-26.3c0-0.5-0.4-1.2-0.9-1.5L75.3,11.7c-0.2-0.1-0.5-0.1-0.6-0.1L72.6,12.9z" class="colorf9607f svgShape"></path><path fill="#a50b89" d="M73.1,13c-0.5-0.3-0.9-0.1-0.9,0.5l-0.1,26.2c0,0.6,0.4,1.2,0.9,1.5l3.7,2.1l-0.9,4.7L83,47l32.1,18.6
							c0.5,0.3,0.9,0.1,0.9-0.5l0.1-26.2c0-0.5-0.4-1.2-0.9-1.5L73.1,13z" class="colorf34858 svgShape"></path></g><polygon fill="#f4f6f8" points="90.2 38.2 112.9 51.3 112.9 52.5 90.2 39.4" class="colorffffff svgShape"></polygon><polygon fill="#f4f6f8" points="89.1 38.7 75 30.6 75 29.4 89.1 37.5" class="colorffffff svgShape"></polygon><polygon fill="#f4f6f8" points="90.2 27.4 112.9 40.5 112.9 41.7 90.2 28.6" class="colorffffff svgShape"></polygon><polygon fill="#f4f6f8" points="89.1 27.9 75 19.8 75 18.6 89.1 26.8" class="colorffffff svgShape"></polygon><polygon fill="#f4f6f8" points="96.8 39.6 75 27 75 25.8 96.8 38.4" class="colorffffff svgShape"></polygon><polygon fill="#f4f6f8" points="99.8 40.1 113 47.7 112.9 48.9 99.8 41.3" class="colorffffff svgShape"></polygon><polygon fill="#f4f6f8" points="91.8 31.9 113 44.1 113 45.3 91.8 33.1" class="colorffffff svgShape"></polygon><polygon fill="#f4f6f8" points="88.8 31.4 75 23.4 75.1 22.2 88.8 30.2" class="colorffffff svgShape"></polygon><polygon fill="#f4f6f8" points="94.7 45.5 75 34.2 75 33 94.7 44.4" class="colorffffff svgShape"></polygon><polygon fill="#f4f6f8" points="95.6 44.9 112.9 54.9 112.9 56.1 95.6 46.1" class="colorffffff svgShape"></polygon><polygon fill="#f4f6f8" points="88.3 44.3 104.6 53.7 104.6 54.8 88.3 45.5" class="colorffffff svgShape"></polygon><polygon fill="#f4f6f8" points="85.7 44 75 37.8 75 36.6 85.7 42.8" class="colorffffff svgShape"></polygon><polygon fill="#f4f6f8" points="106 54.5 112.9 58.5 112.9 59.7 106 55.7" class="colorffffff svgShape"></polygon></g><g fill="#010001" class="color000000 svgShape"><g fill="#010001" class="color000000 svgShape"><polygon fill="#5c377b" points="67.2 106.1 67.2 116.3 59.1 121.1 59.1 110.9" class="color37617b svgShape"></polygon><polygon fill="#664184" points="59.1 110.9 59.1 121.1 50.9 116.3 50.9 106.1" class="color416e84 svgShape"></polygon><polygon fill="#724c91" points="67.2 106.1 59.1 110.9 50.9 106.1 59.1 101.4" class="color4c7891 svgShape"></polygon></g></g><g fill="#010001" class="color000000 svgShape"><polygon fill="#f4f6f8" points="26 82.4 24.2 85.6 27.5 88.3 22 88.2 18.8 91 17.2 87.8 11.9 86.8 16.4 84.8 16.3 81.4 20.8 83.5" class="colorffffff svgShape"></polygon></g></svg>