<svg xmlns="http://www.w3.org/2000/svg" enable-background="new 0 0 52 52" viewBox="0 0 52 52" id="MobileMediaMarketing"><g fill="#010001" class="color000000 svgShape"><path fill="#6822a2" d="M25.5,37.2c0,1.4-1,3.1-2.2,3.9L8.9,49.4c-0.6,0.4-1.2,0.4-1.6,0.1c0,0-0.1,0-0.1-0.1l-1.7-1
																	C5,48.2,4.8,47.7,4.8,47L4.7,14.5c0-1.4,1-3.2,2.2-3.9l14.4-8.3C22,1.9,22.5,1.9,23,2.1l1.8,1.1c0,0,0,0-0.1,0
																	c0.4,0.2,0.7,0.7,0.7,1.5L25.5,37.2z" class="color4d5c75 svgShape"></path><path fill="#6822a2" d="M24.8,3.2c-0.4-0.2-1-0.2-1.6,0.2L8.8,11.7c-1.2,0.7-2.2,2.5-2.2,3.9l0.1,32.5
																	c0,0.7,0.3,1.2,0.7,1.4l-1.8-1.1C5,48.2,4.8,47.7,4.8,47L4.7,14.5c0-1.4,1-3.2,2.2-3.9l14.4-8.3
																	C22,1.9,22.5,1.9,23,2.1L24.8,3.2z" class="color4d5c75 svgShape"></path><path fill="#f4f6f8" d="M23.2,3.4c1.2-0.7,2.2-0.1,2.2,1.3l0.1,32.5c0,1.4-1,3.2-2.2,3.9L8.9,49.4
																	c-1.2,0.7-2.2,0.1-2.2-1.3L6.5,15.6c0-1.4,1-3.2,2.2-3.9L23.2,3.4z" class="color9ea9c9 svgShape"></path><path fill="#431d43" d="M23.2,4.1c0.9-0.5,1.6-0.1,1.6,0.9l0.1,32.5c0,1-0.7,2.2-1.6,2.7L8.9,48.6
															c-0.9,0.5-1.6,0.1-1.6-0.9L7.2,15.2c0-1,0.7-2.2,1.6-2.7L23.2,4.1z" class="color1d2943 svgShape"></path><polygon fill="#ffffff" points="24.1 7 24.2 36.1 8 45.4 7.9 16.3" class="colorffffff svgShape"></polygon><path fill="#9f9cc7" d="M17.4,41.2v1c0,0.2-0.1,0.4-0.3,0.5L15,43.9c-0.2,0.1-0.3,0-0.3-0.2l0-1c0-0.2,0.1-0.4,0.3-0.5
																l2.1-1.2C17.2,40.9,17.4,41,17.4,41.2z" class="color9ca8c7 svgShape"></path><g fill="#010001" class="color000000 svgShape"><path fill="#9f9cc7" d="M17.5,9.5c0,0.2-0.1,0.5-0.3,0.6l-2.7,1.6c-0.1,0.1-0.2,0-0.3,0c0,0-0.1-0.1-0.1-0.2
															c0-0.1,0-0.2,0.1-0.3c0.1-0.1,0.1-0.2,0.2-0.3l2.7-1.6c0.1,0,0.1,0,0.2,0C17.4,9.3,17.5,9.4,17.5,9.5z" class="color9ca8c7 svgShape"></path></g><g fill="#010001" class="color000000 svgShape"><path fill="#ffffff" d="M17.3,9.3c0,0,0.1,0.1,0.1,0.2c0,0.2-0.1,0.5-0.3,0.6l-2.7,1.6c-0.1,0-0.1,0-0.2,0
															c0.1,0.1,0.2,0.1,0.3,0l2.7-1.6c0.2-0.1,0.3-0.4,0.3-0.6C17.5,9.4,17.4,9.3,17.3,9.3z" class="colorffffff svgShape"></path><path fill="#9f9cc7" d="M14.3,11.6L17,10c0.2-0.1,0.3-0.4,0.3-0.6c0-0.1,0-0.1-0.1-0.2c0,0-0.1,0-0.2,0l-2.7,1.6
															c-0.1,0.1-0.2,0.1-0.2,0.2c-0.1,0.1-0.1,0.2-0.1,0.3c0,0.1,0,0.1,0.1,0.2C14.2,11.7,14.2,11.6,14.3,11.6z" class="color9ca8c7 svgShape"></path></g><g fill="#010001" class="color000000 svgShape"><path fill="#e7f1fc" d="M6.1 18v2.2c0 .1 0 .2-.1.3l-.3.2c-.1 0-.2 0-.3 0C5.2 20.5 5 20.1 5 19.8l0-2.2c0-.1 0-.2.1-.3l.3-.2c.1 0 .2 0 .3 0C6 17.4 6.1 17.7 6.1 18zM6.1 22.2l0 2.2c0 .1 0 .2-.1.3l-.3.2c-.1 0-.2 0-.3 0C5.2 24.7 5 24.4 5 24.1l0-2.2c0-.1 0-.2.1-.3l.3-.2c.1 0 .2 0 .3 0C5.9 21.6 6.1 22 6.1 22.2z" class="colore9e7fc svgShape"></path></g><g fill="#010001" class="color000000 svgShape"><path fill="#ffffff" d="M5.7,17.2c-0.1-0.1-0.2-0.1-0.3,0l-0.3,0.2c0.1,0,0.2,0,0.3,0c0.2,0.1,0.4,0.5,0.4,0.8l0,2.2
									c0,0.1-0.1,0.2-0.1,0.3L6,20.5c0.1,0,0.1-0.1,0.1-0.3l0-2.2C6.1,17.7,6,17.4,5.7,17.2z" class="colorffffff svgShape"></path><path fill="#e7f1fc" d="M5.4,17.4c-0.1-0.1-0.2-0.1-0.3,0C5,17.4,5,17.5,5,17.6l0,2.2c0,0.3,0.2,0.6,0.4,0.8
										c0.1,0.1,0.2,0.1,0.3,0c0.1,0,0.1-0.1,0.1-0.3l0-2.2C5.9,17.9,5.7,17.5,5.4,17.4z" class="colore9e7fc svgShape"></path><g fill="#010001" class="color000000 svgShape"><path fill="#ffffff" d="M5.7,21.5c-0.1-0.1-0.2-0.1-0.3,0l-0.3,0.2c0.1,0,0.2,0,0.3,0c0.2,0.1,0.4,0.5,0.4,0.8l0,2.2
									c0,0.1-0.1,0.2-0.1,0.3L6,24.7c0.1,0,0.1-0.1,0.1-0.3l0-2.2C6.1,22,5.9,21.6,5.7,21.5z" class="colorffffff svgShape"></path><path fill="#e7f1fc" d="M5.4,21.6c-0.1-0.1-0.2-0.1-0.3,0C5,21.6,5,21.7,5,21.9l0,2.2c0,0.3,0.2,0.6,0.4,0.8
										c0.1,0.1,0.2,0.1,0.3,0c0.1,0,0.1-0.1,0.1-0.3l0-2.2C5.9,22.1,5.7,21.8,5.4,21.6z" class="colore9e7fc svgShape"></path></g></g><g fill="#010001" class="color000000 svgShape"><path fill="#ffffff" d="M21.7,3.1c-0.2-0.1-0.6-0.1-0.8,0c-0.2,0.1-0.2,0.3-0.1,0.4c0,0,0,0,0.1-0.1c0.2-0.1,0.6-0.1,0.8,0
							c0,0,0,0,0.1,0.1C21.9,3.4,21.9,3.2,21.7,3.1z" class="colorffffff svgShape"></path><path fill="#331133" d="M20.9,3.5C20.8,3.5,20.8,3.5,20.9,3.5c-0.1,0.1,0,0.1,0,0.1c0.2,0.1,0.6,0.1,0.8,0c0,0,0,0,0.1,0v0
							c0,0,0,0-0.1-0.1C21.5,3.4,21.1,3.4,20.9,3.5z" class="color111d33 svgShape"></path></g><g fill="#010001" class="color000000 svgShape"><path fill="#e3e9f0" d="M19.1,22.4c0,0.9-0.3,1.9-0.8,2.8c-0.5,0.9-1.2,1.7-2,2.1c-0.8,0.4-1.5,0.5-2,0.2c-0.5-0.3-0.8-1-0.8-1.8
					c0-0.9,0.3-1.9,0.8-2.8c0.5-0.9,1.2-1.7,2-2.1c0.8-0.4,1.5-0.5,2-0.2C18.8,20.9,19.1,21.5,19.1,22.4z" class="colore3e7f0 svgShape"></path></g><g fill="#010001" class="color000000 svgShape"><polygon fill="#ffffff" points="18.6 29.3 17.5 28.7 19.7 27.4 20.8 28" class="colorffffff svgShape"></polygon><path fill="#deecfb" d="M20.8,34.1c0,0.4-0.3,0.8-0.6,1l-1.1,0.6c-0.2,0.1-0.4,0.1-0.5,0c0,0,0,0,0.1,0.1l-1.1-0.6
										c-0.1-0.1-0.2-0.2-0.2-0.4l0-6l1.1,0.6c0.1,0.1,0.7,0.7,0,0l2.2-1.3L20.8,34.1z" class="colordedffb svgShape"></path><path fill="#deecfb" d="M18.8,35.7l-1.1-0.6c-0.1-0.1-0.2-0.2-0.2-0.4l0-6.1l1.1,0.6l0,6.1C18.6,35.5,18.7,35.7,18.8,35.7z" class="colordedffb svgShape"></path><path fill="#e7f1fc" d="M20.8,28l0,6c0,0.4-0.2,0.8-0.6,1l-1.1,0.6c-0.3,0.2-0.6,0-0.6-0.3l0-6L20.8,28z" class="colore9e7fc svgShape"></path><g fill="#010001" class="color000000 svgShape"><polygon fill="#f34bd4" points="20.8 32.3 19.9 32.8 19.1 32.3 19.1 30 19.4 30.2 20.3 29.7 20.3 31" class="colorf34b58 svgShape"></polygon><polygon fill="#fa5fde" points="19.4 31.5 20.3 31 20.8 32.3 19.9 32.8" class="colorfa5f7f svgShape"></polygon><polygon fill="#90c7fe" points="19.4 30.2 20.3 29.7 20.3 31 19.4 31.5" class="colorfe90a9 svgShape"></polygon><polygon fill="#f34bd4" points="19.4 30.2 19.4 31.5 19.9 32.8 19.1 32.3 19.1 30" class="colorf34b58 svgShape"></polygon><polygon fill="#cbcdd0" points="19.1 30 19.9 29.5 20.3 29.7 19.4 30.2" class="colorcbcfd0 svgShape"></polygon></g><g fill="#010001" class="color000000 svgShape"><path fill="#786ff9" d="M18.2,25.3l1.1,0.6L17,28.1L15.1,27l0,0c-0.4-0.2-0.7-0.8-0.7-1.5c0-0.7,0.2-1.5,0.7-2.2
													c0.4-0.7,1-1.4,1.6-1.7c0.6-0.4,1.2-0.4,1.6-0.2c0,0,0,0,0,0l0,0l2,1.2l-1.4,0.8c-0.1,0.6-0.3,1.2-0.6,1.7
													C18.3,25.2,18.2,25.2,18.2,25.3z" class="color986ff9 svgShape"></path><path fill="#918afd" d="M20.2,26.5l1.3,0.8l-2.9,2.8l-2.4-1.4l0,0c-0.5-0.3-0.8-1-0.8-1.9c0-0.9,0.3-1.9,0.8-2.8
													c0.5-0.9,1.3-1.7,2-2.2c0.8-0.4,1.5-0.5,2.1-0.2c0,0,0,0,0,0l0,0l2.5,1.5l-1.8,1c-0.1,0.7-0.4,1.5-0.8,2.2
													C20.3,26.4,20.3,26.5,20.2,26.5z" class="colorb28afd svgShape"></path><path fill="#5046e4" d="M23.6,24.9c0,0.9-0.3,1.9-0.8,2.8c-0.5,0.9-1.3,1.7-2,2.2c-0.8,0.4-1.5,0.5-2.1,0.2
												c-0.5-0.3-0.9-1-0.9-1.9c0-0.9,0.3-1.9,0.8-2.8c0.5-0.9,1.3-1.7,2-2.2c0.8-0.4,1.5-0.5,2.1-0.2
												C23.3,23.4,23.6,24,23.6,24.9z" class="color7e5af2 svgShape"></path><path fill="#deecfb" d="M30.2,24.5l-4.3,4.7l-1.1,3.4l-0.3,0.9L23.9,35c-1-2.1-2.9-3.5-4.8-4.7c-0.1,0-0.1-0.1-0.2-0.1
												c-0.1,0-0.1-0.1-0.2-0.1c-0.3-0.2-0.5-0.6-0.6-1c0,0,0,0,0-0.1c0-0.2,0-0.3,0-0.5c0-0.9,0.3-1.9,0.8-2.8
												c0.5-0.9,1.2-1.7,2-2.1c0.4-0.3,0.9-0.4,1.3-0.4c0,0,0.1,0,0.1,0c0,0,0,0,0.1,0c0.2,0,0.4,0.1,0.6,0.2c0,0,0,0,0.1,0
												c0.3,0.2,0.6,0.4,1,0.5C25.9,24.4,28.3,24.6,30.2,24.5z" class="colordedffb svgShape"></path><path fill="#e7f1fc" d="M30.2,24.5l-4.3,4.7l-1.1,3.4l-0.3,0.9c-1.1-1.4-2.5-2.6-4.1-3.5c-0.1,0-0.1-0.1-0.2-0.1
												c-0.1,0-0.1-0.1-0.2-0.1c-0.3-0.2-0.5-0.6-0.6-1c0,0,0,0,0-0.1c0-0.2,0-0.3,0-0.5c0-0.9,0.3-1.9,0.8-2.8
												c0.5-0.9,1.2-1.7,2-2.1c0.1,0,0.1-0.1,0.2-0.1c0.2,0,0.4,0.1,0.6,0.2c0,0,0,0,0.1,0c0.3,0.2,0.6,0.4,1,0.5
												C25.9,24.4,28.3,24.6,30.2,24.5z" class="colore9e7fc svgShape"></path><path fill="#f4f6f8" d="M36.7,28.3c0,1.9-0.6,4-1.8,5.9c-1.1,2-2.7,3.6-4.3,4.5c-1.6,0.9-3.1,1.1-4.3,0.4
												c-0.8-0.5-1.4-1.3-1.6-2.4c-0.1-0.5-0.2-1-0.2-1.5c0-1.9,0.6-4,1.8-5.9c1.1-2,2.7-3.6,4.3-4.5c0.5-0.3,1-0.5,1.5-0.6
												c1.1-0.3,2-0.2,2.8,0.2C36,25.1,36.7,26.5,36.7,28.3z" class="colorf8f9fe svgShape"></path><path fill="#e7f1fc" d="M32.2,25.7c0,1.9-0.6,4-1.8,5.9c-1.1,2-2.7,3.6-4.3,4.5c-0.5,0.3-1,0.5-1.5,0.6
												c-0.1-0.5-0.2-1-0.2-1.5c0-1.9,0.6-4,1.8-5.9c1.1-2,2.7-3.6,4.3-4.5c0.5-0.3,1-0.5,1.5-0.6
												C32.2,24.7,32.2,25.2,32.2,25.7z" class="colore9e7fc svgShape"></path><path fill="#5046e4" d="M34.9,24.4l-1.1-0.6c-1.1-0.7-2.7-0.5-4.3,0.4c-1.6,0.9-3.1,2.5-4.3,4.5c-1.1,2-1.8,4.1-1.8,5.9
								c0,1.9,0.6,3.2,1.8,3.9l1.1,0.7c1.1,0.6,2.7,0.5,4.3-0.4c1.6-0.9,3.1-2.5,4.3-4.5c1.1-2,1.8-4.1,1.8-5.9
								C36.7,26.5,36,25.1,34.9,24.4z M29.5,36.6c-1,0.6-2,0.8-2.8,0.6c-0.5-0.6-0.9-1.5-0.9-2.6c0-3,2.1-6.6,4.7-8.2
								c1-0.6,2-0.8,2.7-0.6c0.5,0.6,0.9,1.5,0.9,2.6C34.2,31.4,32.1,35.1,29.5,36.6z" class="color7e5af2 svgShape"></path><path fill="#918afd" d="M34,26l-1.1-0.6c0.8,0.5,1.4,1.5,1.4,3c0,3-2.1,6.7-4.7,8.2c-1.3,0.8-2.5,0.8-3.4,0.3l1.1,0.6
											c0.9,0.5,2,0.4,3.4-0.3c2.6-1.5,4.7-5.2,4.7-8.2C35.3,27.6,34.8,26.5,34,26z" class="colorb28afd svgShape"></path><path fill="#918afd" d="M26.4,39.2l-1.1-0.6c-1.1-0.7-1.8-2-1.8-3.9c0-1.9,0.6-4,1.8-5.9c1.1-2,2.7-3.6,4.3-4.5
												c1.6-0.9,3.1-1.1,4.3-0.4l1.1,0.6c-1.1-0.7-2.7-0.5-4.3,0.4c-1.6,0.9-3.1,2.5-4.3,4.5c-1.1,2-1.8,4.1-1.8,5.9
												C24.6,37.1,25.2,38.5,26.4,39.2z" class="colorb28afd svgShape"></path><path fill="#5046e4" d="M34.9,24.4c1.1,0.7,1.8,2,1.8,3.9c0,1.9-0.6,4-1.8,5.9c-1.1,2-2.7,3.6-4.3,4.5s-3.1,1.1-4.3,0.4
												c-1.1-0.7-1.8-2-1.8-3.9c0-1.9,0.6-4,1.8-5.9c1.1-2,2.7-3.6,4.3-4.5C32.2,23.9,33.7,23.8,34.9,24.4z M30.6,37.2
												c2.6-1.5,4.7-5.2,4.7-8.2s-2.1-4.2-4.7-2.7c-2.6,1.5-4.7,5.2-4.7,8.2S28,38.7,30.6,37.2L30.6,37.2z" class="color7e5af2 svgShape"></path><path fill="#624c75" d="M31.2,30.3l-1.7,2.9l-3.4-0.7c0.4-1.6,1.3-3.2,2.4-4.5L31.2,30.3z" class="color4c5c75 svgShape"></path><g fill="#010001" class="color000000 svgShape"><path fill="#431d43" d="M31.5,31.1c0,0.8-0.5,1.7-1.2,2.1c-0.7,0.4-1.2,0.1-1.2-0.7c0-0.8,0.5-1.7,1.2-2.1
												C31,30,31.5,30.3,31.5,31.1z" class="color1d2943 svgShape"></path></g><g fill="#010001" class="color000000 svgShape"><path fill="#e7f1fc" d="M30.9,31.5c0,0.2-0.1,0.4-0.2,0.5c-0.1,0.2-0.2,0.3-0.4,0.4c-0.3,0.2-0.6,0-0.6-0.3
												c0-0.4,0.2-0.8,0.6-1C30.7,31,30.9,31.1,30.9,31.5z" class="colore9e7fc svgShape"></path></g></g></g><g fill="#010001" class="color000000 svgShape"><path fill="#5b50ff" d="M39.4,36.5l-0.3,2.8c0,0.2-0.1,0.3-0.2,0.3l-0.5,0.2c-0.1,0-0.2,0-0.4-0.1l-2.3-1.7
								c-0.3-0.2-0.5-0.7-0.5-1l0.3-2.8c0-0.2,0.1-0.3,0.2-0.3l0.5-0.2c0.1,0,0.2,0,0.4,0.1l2.3,1.7C39.3,35.7,39.5,36.1,39.4,36.5z
								" class="color5094ff svgShape"></path><path fill="#6257fe" d="M36.2,34c-0.3-0.2-0.5-0.1-0.6,0.3l-0.3,2.8c0,0.3,0.2,0.8,0.5,1l2.3,1.7c0.3,0.2,0.5,0.1,0.6-0.3
								l0.3-2.8c0-0.3-0.2-0.8-0.5-1L36.2,34z" class="color57b3fe svgShape"></path><path fill="#5b50ff" d="M38.5,39.8c0.1,0,0.2-0.2,0.2-0.3l0.3-2.8c0-0.3-0.2-0.8-0.5-1L36.2,34c-0.1-0.1-0.3-0.1-0.4-0.1l0.5-0.2
							c0.1,0,0.2,0,0.4,0.1l2.3,1.7c0.3,0.2,0.5,0.7,0.5,1l-0.3,2.8c0,0.2-0.1,0.3-0.2,0.3L38.5,39.8z" class="color5094ff svgShape"></path><path fill="#ffffff" d="M36.1,36.1c0,0.4,0.1,0.8,0.4,1.2c0.1,0.5,0.5,0.9,0.5,1C37,38.1,37,37.9,37,37.7c0,0,0.1,0,0.1,0.1
								c0.6,0.4,1.1,0.3,1.1-0.2c0.1-0.5-0.4-1.3-0.9-1.7C36.7,35.4,36.2,35.5,36.1,36.1z" class="colorffffff svgShape"></path><path fill="#5046e4" d="M46.4,46.8l-0.3,2.6c0,0.2-0.1,0.3-0.2,0.3L45.4,50c-0.1,0-0.2,0-0.4-0.1l-2.2-1.6
								c-0.3-0.2-0.4-0.6-0.4-1l0.3-2.6c0-0.2,0.1-0.3,0.2-0.3l0.5-0.2c0.1,0,0.2,0,0.4,0.1l2.1,1.6C46.2,46.1,46.4,46.5,46.4,46.8z
								" class="color7e5af2 svgShape"></path><path fill="#5046e4" d="M45.4,50c0.1,0,0.2-0.1,0.2-0.3l0.3-2.6c0-0.3-0.1-0.7-0.4-0.9l-2.1-1.6c-0.1-0.1-0.3-0.1-0.4-0.1
							l0.5-0.2c0.1,0,0.2,0,0.4,0.1l2.1,1.6c0.3,0.2,0.4,0.6,0.4,0.9l-0.3,2.6c0,0.2-0.1,0.3-0.2,0.3L45.4,50z" class="color7e5af2 svgShape"></path><path fill="#918afd" d="M43.4,44.5c-0.3-0.2-0.5-0.1-0.5,0.2l-0.3,2.6c0,0.3,0.1,0.7,0.4,0.9l2.1,1.6c0.3,0.2,0.5,0.1,0.5-0.2
								l0.3-2.6c0-0.3-0.1-0.7-0.4-0.9L43.4,44.5z" class="colorb28afd svgShape"></path><polygon fill="#ffffff" points="44.3 46 43.9 46.5 43.2 46.1 43.7 47 43.5 47.8 44.1 47.8 44.7 48.6 44.7 47.8 45.2 47.5 44.6 46.9" class="colorffffff svgShape"></polygon><g fill="#010001" class="color000000 svgShape"><path fill="#fe1fd5" d="M41.8,30.9l-0.4,0.3c-0.3,0.2-0.7,0.3-1.3,0c-1-0.4-2-1.7-2.1-2.8c-0.1-0.6,0.1-1,0.4-1.2l0.4-0.3
										c0.3-0.2,0.7-0.3,1.3,0c1,0.4,2,1.7,2.1,2.8C42.3,30.3,42.1,30.7,41.8,30.9z" class="colorfebc1f svgShape"></path><path fill="#fe1fd5" d="M38.4,27.3c0.3-0.2,0.7-0.3,1.3,0c1,0.4,2,1.7,2.1,2.8c0.1,0.5-0.1,1-0.4,1.2l0.4-0.3
										c0.3-0.2,0.4-0.6,0.4-1.2C42,28.6,41.1,27.4,40,27c-0.5-0.2-1-0.2-1.3,0L38.4,27.3z" class="colorfebc1f svgShape"></path><path fill="#6cb5ff" d="M39.6,27.3c-1-0.4-1.8,0.1-1.6,1.2c0.1,1.1,1.1,2.4,2.1,2.8c1,0.4,1.8-0.1,1.6-1.2
										C41.6,28.9,40.7,27.7,39.6,27.3z" class="colorffd06c svgShape"></path><g fill="#010001" class="color000000 svgShape"><path fill="#aa569b" d="M39.2 29.3C39.1 29.3 39.1 29.4 39.2 29.3c0 .1 0 .1 0 .1.2.3.5.6.9.8.4.2.6.1.7-.1 0 0 0 0 0 0 0 0 0-.1-.1-.1 0 0 0 0 0 0 0 0 0 0 0 0-.2.1-.4.1-.7 0C39.8 29.8 39.5 29.7 39.2 29.3 39.2 29.4 39.2 29.4 39.2 29.3 39.2 29.4 39.2 29.4 39.2 29.3zM39.1 28.1c-.2-.1-.3 0-.4.3l.1.1c.1-.1.2-.1.3 0 .1.1.3.2.4.3l.1 0C39.5 28.4 39.3 28.2 39.1 28.1z" class="coloraa6256 svgShape"></path><path fill="#e935c8" d="M38.8 28.4c-.3-.1-.4 0-.4.3 0 .3.3.6.5.7.1 0 .2 0 .3 0 0 0 0 0 0 0 0-.1 0-.1 0-.1 0 0 0 0 0 0 0 0 0 0 0 0 0-.1.1-.1 0-.3C39.3 28.9 39 28.6 38.8 28.4zM41 29.4c-.3-.1-.4 0-.4.3 0 .1.1.2.1.3 0 0 0 0 0 0 0 0 0 0 0 0 0 0 .1.1.1.1 0 0 0 0 0 0 .1.1.2.2.3.2.3.1.4 0 .4-.3C41.5 29.8 41.2 29.5 41 29.4z" opacity=".8" class="colore93565 svgShape"></path><path fill="#aa569b" d="M40.4,28.6c-0.2-0.1-0.3,0-0.4,0.3l0.1,0.1c0.1-0.1,0.2-0.1,0.3,0c0.1,0.1,0.3,0.2,0.4,0.3l0.1,0
									C40.8,28.9,40.6,28.7,40.4,28.6z" class="coloraa6256 svgShape"></path></g></g><g fill="#010001" class="color000000 svgShape"><path fill="#fe1fd5" d="M33.2,43.5c-0.1,0.6-0.4,1-0.8,1.1l-0.5,0.2c-0.4,0.2-0.9,0.1-1.4-0.3c-0.9-0.8-1.5-2.4-1.3-3.6
											c0.1-0.7,0.5-1.1,0.9-1.2c0,0-0.1,0-0.1,0l0.5-0.2c0.4-0.1,0.8,0,1.3,0.4C32.8,40.7,33.4,42.3,33.2,43.5z" class="colorfebc1f svgShape"></path><path fill="#fe1fd5" d="M30,39.8c0.4-0.1,0.9,0,1.3,0.4c0.9,0.8,1.5,2.4,1.3,3.6c-0.1,0.6-0.4,1-0.8,1.1l0.5-0.2
											c0.4-0.1,0.7-0.5,0.8-1.1c0.2-1.2-0.4-2.8-1.3-3.6c-0.5-0.4-0.9-0.5-1.3-0.4L30,39.8z" class="colorfebc1f svgShape"></path><path fill="#6cb5ff" d="M31.3,40.1c-0.9-0.8-1.9-0.4-2.1,0.8c-0.2,1.2,0.4,2.8,1.3,3.6c0.9,0.8,1.9,0.4,2.1-0.8
											C32.9,42.5,32.3,40.9,31.3,40.1z" class="colorffd06c svgShape"></path><g fill="#010001" class="color000000 svgShape"><path fill="#8a487e" d="M30.9 42.7c.1.3.3.3.4.5.1.2-.1.1-.2.3s.1.4 0 .4c-.1 0-.3-.2-.4-.1 0-.1.1-.2.3-.1 0 0-.1-.1-.1-.4s.2-.2.2-.2C31 43 30.9 42.8 30.9 42.7zM30.5 41.3c.1.1.2.3.2.5 0 .2-.2.2-.3.1-.1-.1-.2-.3-.2-.5C30.2 41.2 30.3 41.2 30.5 41.3zM32 42.2L32 42.2c-.2-.2-.4-.5-.6-.6 0 0 0 0 0 0 0 0 0-.2 0-.1C31.7 41.6 31.9 41.9 32 42.2zM31.6 42.2c.1.1.2.3.2.5 0 .2-.2.2-.3.1-.1-.1-.2-.3-.2-.5C31.3 42.1 31.5 42.1 31.6 42.2zM30.8 40.9c0 0 0 .1 0 .1 0 0 0 0 0 0-.2-.2-.4-.3-.6-.3l-.1-.2C30.4 40.5 30.7 40.7 30.8 40.9z" class="color8a4852 svgShape"></path></g></g><g fill="#010001" class="color000000 svgShape"><path fill="#a50b89" d="M47.2,34.8c-0.1,0.5-0.4,0.9-0.8,1l-0.4,0.1c0,0,0,0,0,0c-0.4,0.1-0.8,0-1.2-0.4
											c-0.8-0.8-1.2-2.3-1-3.4c0.1-0.6,0.4-0.9,0.8-1l0.4-0.1c0.4-0.1,0.8,0,1.2,0.4C47,32.2,47.5,33.7,47.2,34.8z" class="colordf3260 svgShape"></path><path fill="#a50b89" d="M44.6,31.1c0.4-0.1,0.8,0,1.2,0.4c0.8,0.8,1.2,2.3,1,3.4c-0.1,0.5-0.4,0.9-0.8,1l0.5-0.1
											c0.4-0.1,0.6-0.4,0.8-1c0.3-1.1-0.2-2.6-1-3.4c-0.4-0.4-0.8-0.5-1.2-0.4L44.6,31.1z" class="colordf3260 svgShape"></path><path fill="#f451d6" d="M45.8,31.5c-0.8-0.8-1.7-0.5-1.9,0.5c-0.3,1.1,0.2,2.6,1,3.4s1.7,0.5,1.9-0.6
											C47,33.8,46.6,32.3,45.8,31.5z" class="colorf45170 svgShape"></path><g fill="#010001" class="color000000 svgShape"><polygon fill="#ffffff" points="44.6 33.9 45.8 34 45 32.3" class="colorffffff svgShape"></polygon></g></g><g fill="#010001" class="color000000 svgShape"><path fill="#955ec3" d="M37.9,47.9c-0.3,0.5-0.8,0.7-1.2,0.6l-0.5,0c-0.4,0-0.7-0.3-1-0.8c-0.5-1-0.4-2.6,0.3-3.5
										c0.3-0.5,0.7-0.7,1.1-0.7l0.6,0.1c0.4,0,0.7,0.3,1,0.8C38.7,45.3,38.6,46.9,37.9,47.9z" class="color5ec363 svgShape"></path><path fill="#955ec3" d="M37.3,43.5c-0.4,0-0.8,0.2-1.1,0.7c-0.7,0.9-0.8,2.5-0.3,3.5c0.2,0.5,0.6,0.8,1,0.8l-0.6,0
										c-0.4,0-0.7-0.3-1-0.8c-0.5-1-0.4-2.6,0.3-3.5c0.3-0.5,0.7-0.7,1.1-0.7L37.3,43.5z" class="color5ec363 svgShape"></path><path fill="#5aa0e7" d="M36.2,44.1c0.6-0.9,1.6-0.9,2.1,0.2c0.5,1,0.4,2.6-0.3,3.5c-0.7,0.9-1.6,0.9-2.1-0.2
										C35.4,46.7,35.5,45.1,36.2,44.1z" class="color78e75a svgShape"></path><g fill="#010001" class="color000000 svgShape"><path fill="#ffffff" d="M36.9,44.9c0.1-0.1,0.2-0.2,0.3-0.2c0.3,0,0.4,0.4,0.4,0.8L37.5,47l-0.9-0.1c-0.3,0-0.4-0.4-0.4-0.8
								c0-0.2,0.1-0.4,0.2-0.5c0.1-0.1,0.2-0.2,0.3-0.2C36.8,45.2,36.8,45,36.9,44.9z" class="colorffffff svgShape"></path></g></g><g fill="#010001" class="color000000 svgShape"><path fill="#fe1fd5" d="M44.7,41.7l-0.2,0.4c0,0,0,0,0-0.1c-0.2,0.4-0.6,0.6-1.2,0.6c-1.1,0-2.5-0.9-3-1.8
										c-0.3-0.5-0.3-0.9-0.1-1.2l0.2-0.4c0.2-0.3,0.6-0.5,1.2-0.5c1.1,0,2.5,0.8,3,1.8C44.9,40.9,44.9,41.4,44.7,41.7z" class="colorfebc1f svgShape"></path><path fill="#fe1fd5" d="M40.2,39.5c0.2-0.3,0.6-0.5,1.2-0.5c1.1,0,2.5,0.8,3,1.8c0.3,0.5,0.3,0.9,0.1,1.2l0.2-0.4
										c0.2-0.3,0.2-0.8-0.1-1.2c-0.5-1-1.9-1.8-3-1.8c-0.6,0-1,0.2-1.2,0.5L40.2,39.5z" class="colorfebc1f svgShape"></path><path fill="#6cb5ff" d="M41.4,39c-1.1,0-1.6,0.8-1.1,1.7c0.5,1,1.9,1.8,3,1.8c1.1,0,1.6-0.8,1.1-1.7
										C43.9,39.8,42.5,39,41.4,39z" class="colorffd06c svgShape"></path><g fill="#010001" class="color000000 svgShape"><path fill="#8a487e" d="M43.3 41.5c.1.2 0 .4-.3.4-.3 0-.6-.2-.7-.4-.1-.2 0-.4.3-.4C42.8 41 43.2 41.2 43.3 41.5zM41.1 39.9c.2 0 .4.1.5.3.1.2 0 .3-.2.3-.2 0-.4-.1-.5-.3C40.9 40 41 39.9 41.1 39.9zM42.7 40c.2 0 .4.1.5.3.1.2 0 .3-.2.3-.2 0-.4-.1-.5-.3C42.5 40.1 42.5 40 42.7 40z" class="color8a4852 svgShape"></path></g></g></g><g fill="#010001" class="color000000 svgShape"><polygon fill="#624c75" points="8.7 17.2 8.7 17.9 8.4 18.1 8.4 17.3" class="color4c5c75 svgShape"></polygon><polygon fill="#624c75" points="9.1 16.7 9.1 17.7 8.9 17.8 8.9 16.8" class="color4c5c75 svgShape"></polygon><polygon fill="#624c75" points="9.5 16.3 9.5 17.4 9.3 17.6 9.3 16.4" class="color4c5c75 svgShape"></polygon><polygon fill="#624c75" points="9.9 15.8 9.9 17.2 9.7 17.3 9.7 16" class="color4c5c75 svgShape"></polygon><polygon fill="#624c75" points="10.8 15.9 10.8 16.7 10.6 16.9 10.5 16.1" class="color4c5c75 svgShape"></polygon><polygon fill="#624c75" points="11.2 15.5 11.2 16.5 11 16.6 11 15.6" class="color4c5c75 svgShape"></polygon><polygon fill="#624c75" points="11.6 15 11.6 16.2 11.4 16.4 11.4 15.2" class="color4c5c75 svgShape"></polygon><polygon fill="#624c75" points="12.1 14.6 12.1 16 11.8 16.1 11.8 14.7" class="color4c5c75 svgShape"></polygon></g></g></svg>