<svg xmlns="http://www.w3.org/2000/svg" enable-background="new 0 0 50 50" viewBox="0 0 50 50" id="Calendar"><g fill="#010001" class="color000000 svgShape"><polygon fill="#f4f6f8" points="45.037 41.436 15.962 21.715 4.958 30.892 34.034 47.788" class="colorb4bed7 svgShape"></polygon><path fill="#f4f6f8" d="M4.19338,32.07882l29.0758,16.897c-0.01349-0.0078-0.026-0.0176-0.0373-0.0291l-29.0757-16.897
						C4.16748,32.06131,4.17988,32.07101,4.19338,32.07882z" class="colorb4bed7 svgShape"></path><polygon fill="#f4f6f8" points="39.476 19.949 10.4 3.052 15.962 21.715 45.037 41.436" class="colorb4bed7 svgShape"></polygon><polygon fill="#e3e9f0" points="39.476 19.949 10.4 3.052 4.958 30.892 34.034 47.788" class="colore3e6f0 svgShape"></polygon><path fill="#f4f6f8" d="M39.10778,18.47312c0.04491-0.2142,0.1944-0.4258,0.3624-0.5229
						c0.1681-0.097,0.3183-0.0584,0.3642,0.1034l6.0712,23.1943c0.0367,0.1095,0.0143,0.2636-0.058,0.4152
						c-0.0723,0.1515-0.1812,0.2821-0.3038,0.3529l-12.0116,6.9349c-0.1181,0.0682-0.2318,0.066-0.3003-0.0042
						c-0.0729-0.0676-0.096-0.1955-0.0646-0.3444L39.10778,18.47312z M45.03728,41.43562l-5.5614-21.4869l-5.4421,27.8397
						L45.03728,41.43562" class="colorb4bed7 svgShape"></path><path fill="#e3e9f0" d="M10.66838,1.02182c-0.0753-0.0377-0.1694-0.028-0.273,0.028c-0.1694,0.1039-0.3199,0.3107-0.367,0.5276
					l-5.9389,30.1269c-0.0282,0.1507-0.0094,0.2822,0.0659,0.3484l29.073,16.8938c-0.0659-0.0657-0.0941-0.1976-0.0564-0.3479
					l5.9388-30.1273c0.0376-0.2165,0.1882-0.4233,0.3577-0.5175c0.1035-0.0661,0.207-0.0753,0.2729-0.0285L10.66838,1.02182z" class="colore3e6f0 svgShape"></path></g><polygon fill="#6822a2" points="45.037 41.436 39.476 19.949 36.271 36.342 45.037 41.436" class="color4d5772 svgShape"></polygon><polygon fill="#9eb0c2" points="45.037 41.436 36.271 36.342 34.034 47.788" class="color9eaac2 svgShape"></polygon><polygon fill="#5046e4" points="38.496 21.587 9.417 4.68 8.38 9.939 37.459 26.837" class="color678cc8 svgShape"></polygon><path fill="#3a283a" d="M35.20998,17.58852c-0.3559,0.2833-0.8309,0.2134-1.0605-0.1604
									c-0.1201-0.1893-0.14179-0.4163-0.1005-0.6392c0.046-0.1994,0.1549-0.3947,0.3294-0.5335
									c0.3482-0.2771,0.8231-0.2072,1.0527,0.1665c0.1075,0.1723,0.1443,0.3873,0.1158,0.5863
									C35.50558,17.23121,35.39148,17.44411,35.20998,17.58852z" class="color282e3a svgShape"></path><path fill="#6822a2" d="M34.98608,13.02002c-0.9752,0.563-1.7371,1.8824-1.7347,3.0041
							c0.0016,0.5786,0.2093,1.0161,0.5851,1.2321c0.1593,0.0915,0.3385,0.1374,0.5296,0.1374c0.26,0,0.5439-0.0845,0.8332-0.2518
							c0.1183-0.068,0.2336-0.1489,0.3452-0.2394c0.00421-0.1577-0.0246-0.3167-0.1031-0.4536
							c-0.1418,0.1319-0.2892,0.2513-0.4451,0.3414c-0.3725,0.2156-0.7119,0.2542-0.9577,0.114
							c-0.2441-0.1406-0.3797-0.4536-0.3813-0.881c-0.0023-0.9733,0.685-2.1627,1.5317-2.6516
							c0.7674-0.4433,1.3405-0.1327,1.3438,0.7582c0.0018,0.529-0.2129,1.1112-0.534,1.6195l0.3598,0.2091
							c0.3564-0.5735,0.5818-1.2367,0.58011-1.8295C36.93538,12.93552,36.03578,12.41442,34.98608,13.02002z" class="color4d5772 svgShape"></path><path fill="#3a283a" d="M31.29798,15.31371c-0.356,0.2832-0.831,0.2133-1.0606-0.1604
									c-0.1201-0.1893-0.1418-0.4163-0.1004-0.6392c0.0459-0.1994,0.1548-0.3947,0.3293-0.5335
									c0.3482-0.2771,0.8232-0.2072,1.0527,0.1665c0.1075,0.1723,0.1443,0.3872,0.1159,0.5863
									C31.59348,14.95632,31.47938,15.16932,31.29798,15.31371z" class="color282e3a svgShape"></path><path fill="#6822a2" d="M31.07398,10.74522c-0.9752,0.5629-1.7371,1.8823-1.7347,3.0041
							c0.0016,0.5786,0.2093,1.0161,0.5851,1.2321c0.1594,0.0914,0.3385,0.1374,0.5296,0.1374c0.26,0,0.5439-0.0846,0.8332-0.2518
							c0.1183-0.0681,0.2337-0.1489,0.3453-0.2395c0.00421-0.1576-0.0247-0.3166-0.1031-0.4536
							c-0.1419,0.1319-0.2893,0.2514-0.4451,0.3415c-0.37259,0.2155-0.7119,0.2541-0.9577,0.114
							c-0.2442-0.1407-0.3798-0.4536-0.3814-0.881c-0.0023-0.9734,0.685-2.1627,1.5317-2.6517
							c0.7674-0.4433,1.3405-0.1326,1.3439,0.7583c0.0017,0.529-0.213,1.1112-0.5341,1.6195l0.35979,0.2091
							c0.3565-0.5735,0.5818-1.2367,0.58021-1.8295C33.02328,10.66072,32.12369,10.13951,31.07398,10.74522z" class="color4d5772 svgShape"></path><path fill="#3a283a" d="M27.38588,13.03892c-0.356,0.2832-0.8309,0.2133-1.0606-0.1604
									c-0.1201-0.1893-0.1418-0.4163-0.1004-0.6393c0.0459-0.1993,0.1549-0.3946,0.3293-0.5334
									c0.3482-0.2771,0.8232-0.2072,1.0527,0.1665c0.1075,0.1723,0.1444,0.3872,0.1159,0.5863
									C27.68138,12.68152,27.56738,12.89441,27.38588,13.03892z" class="color282e3a svgShape"></path><path fill="#6822a2" d="M27.16188,8.47031c-0.97519,0.563-1.7371,1.8824-1.7346,3.0042
							c0.0015,0.5786,0.2092,1.0161,0.585,1.2321c0.15941,0.0914,0.3386,0.1374,0.5296,0.1374c0.2601,0,0.5439-0.0846,0.8333-0.2519
							c0.1182-0.068,0.2336-0.1489,0.3452-0.2394c0.0042-0.1576-0.0246-0.3166-0.1031-0.4536
							c-0.1418,0.1319-0.2893,0.2514-0.4451,0.3415c-0.3726,0.2155-0.7119,0.2541-0.9577,0.1139
							c-0.2442-0.1406-0.3797-0.4535-0.3813-0.8809c-0.0024-0.9734,0.6849-2.1627,1.5317-2.6517
							c0.77381-0.447,1.3404-0.1255,1.34381,0.7583c0.00169,0.5289-0.213,1.1112-0.53411,1.6195l0.3598,0.2091
							c0.3565-0.5736,0.5819-1.2367,0.5802-1.8295C29.11128,8.38592,28.21169,7.86472,27.16188,8.47031z" class="color4d5772 svgShape"></path><path fill="#3a283a" d="M23.47378,10.76402c-0.356,0.2833-0.8309,0.2134-1.0605-0.1603
									c-0.1202-0.1894-0.1418-0.4164-0.1005-0.6393c0.04591-0.1994,0.15491-0.3946,0.3294-0.5335
									c0.3482-0.277,0.8231-0.2071,1.0527,0.1666c0.1075,0.1722,0.1443,0.3872,0.11581,0.5863
									C23.76938,10.40672,23.65528,10.61962,23.47378,10.76402z" class="color282e3a svgShape"></path><path fill="#6822a2" d="M23.24978,6.19552c-0.97509,0.563-1.737,1.8824-1.7346,3.0042
							c0.00151,0.5786,0.2092,1.0161,0.5851,1.232c0.1593,0.0915,0.3385,0.1375,0.5295,0.1375
							c0.2601,0,0.54391-0.0846,0.8333-0.2519c0.1183-0.068,0.23361-0.1489,0.3452-0.2394
							c0.0042-0.1576-0.02459-0.3167-0.1031-0.4536c-0.1418,0.1319-0.2892,0.2514-0.4451,0.3415
							c-0.3726,0.2155-0.7119,0.2541-0.9577,0.1139c-0.2441-0.1406-0.37969-0.4536-0.3813-0.881
							c-0.00239-0.9733,0.685-2.1626,1.5317-2.6516c0.7673-0.4433,1.3404-0.1326,1.3438,0.7583
							c0.0017,0.5289-0.21289,1.1112-0.5341,1.6195l0.3599,0.2091c0.3564-0.5736,0.5818-1.2367,0.5801-1.8296
							C25.19918,6.11112,24.29958,5.58992,23.24978,6.19552z" class="color4d5772 svgShape"></path><g fill="#010001" class="color000000 svgShape"><path fill="#3a283a" d="M19.56169,8.48921c-0.35591,0.2833-0.83091,0.2134-1.06051-0.1604
									c-0.1201-0.1893-0.1418-0.4163-0.10049-0.6392c0.046-0.1994,0.15489-0.3947,0.32939-0.5335
									c0.3482-0.2771,0.8231-0.2072,1.0527,0.1665c0.1075,0.1723,0.1443,0.3873,0.1158,0.5864
									C19.85728,8.13192,19.74318,8.34482,19.56169,8.48921z" class="color282e3a svgShape"></path><path fill="#6822a2" d="M19.33778,3.92072c-0.9752,0.563-1.73709,1.8824-1.7347,3.0041
							c0.00161,0.5786,0.2093,1.0161,0.5851,1.2321c0.1593,0.0915,0.33851,0.1374,0.5296,0.1374
							c0.26,0,0.54391-0.0845,0.8332-0.2518c0.1183-0.068,0.2336-0.1489,0.3452-0.2394c0.0042-0.1577-0.0246-0.3167-0.1031-0.4536
							c-0.1418,0.1319-0.2892,0.2514-0.4451,0.3414c-0.3725,0.2156-0.7119,0.2542-0.9577,0.114
							c-0.2441-0.1406-0.3797-0.4536-0.3813-0.881c-0.00229-0.9733,0.685-2.1627,1.53171-2.6516
							c0.77379-0.4471,1.34049-0.1256,1.34379,0.7582c0.0018,0.529-0.2129,1.1113-0.534,1.6195l0.3598,0.2091
							c0.35641-0.5735,0.5818-1.2366,0.5801-1.8295C21.28708,3.83622,20.38748,3.31512,19.33778,3.92072z" class="color4d5772 svgShape"></path></g><g fill="#010001" class="color000000 svgShape"><path fill="#3a283a" d="M15.64969,6.21442c-0.356,0.2832-0.831,0.2133-1.06061-0.1604
									c-0.1201-0.1893-0.1418-0.4163-0.10039-0.6392c0.04589-0.1994,0.15479-0.3947,0.32929-0.5335
									c0.3482-0.2771,0.8232-0.2072,1.05271,0.1665c0.10749,0.1723,0.14429,0.3872,0.11589,0.5863
									C15.94518,5.85702,15.83108,6.07002,15.64969,6.21442z" class="color282e3a svgShape"></path><path fill="#6822a2" d="M15.42569,1.64592c-0.97521,0.5629-1.73711,1.8823-1.73471,3.0041
							c0.0016,0.5786,0.2093,1.0161,0.5851,1.2321c0.1594,0.0915,0.3385,0.1374,0.52961,0.1374
							c0.26,0,0.54389-0.0845,0.83319-0.2518c0.1183-0.068,0.2337-0.1489,0.3453-0.2395c0.0042-0.1576-0.0247-0.3166-0.1031-0.4535
							c-0.1419,0.1318-0.2893,0.2513-0.4451,0.3414c-0.3726,0.2155-0.7119,0.2541-0.9577,0.114
							c-0.2442-0.1406-0.3798-0.4536-0.3814-0.881c-0.0023-0.9733,0.685-2.1627,1.5317-2.6517
							c0.2299-0.1328,0.4472-0.1999,0.6375-0.1999c0.5031,0,0.7044,0.4512,0.7064,0.9582c0.0017,0.529-0.213,1.1112-0.5341,1.6195
							l0.3598,0.2091c0.35651-0.5735,0.5818-1.2367,0.5802-1.8295C17.37498,1.56142,16.47538,1.04022,15.42569,1.64592z" class="color4d5772 svgShape"></path></g><g fill="#010001" class="color000000 svgShape"><path fill="#3a283a" d="M19.56169,8.48921c-0.35591,0.2833-0.83091,0.2134-1.06051-0.1604
									c-0.1201-0.1893-0.1418-0.4163-0.10049-0.6392c0.046-0.1994,0.15489-0.3947,0.32939-0.5335
									c0.3482-0.2771,0.8231-0.2072,1.0527,0.1665c0.1075,0.1723,0.1443,0.3873,0.1158,0.5864
									C19.85728,8.13192,19.74318,8.34482,19.56169,8.48921z" class="color282e3a svgShape"></path><path fill="#6822a2" d="M19.33778,3.92072c-0.9752,0.563-1.73709,1.8824-1.7347,3.0041
							c0.00161,0.5786,0.2093,1.0161,0.5851,1.2321c0.1593,0.0915,0.33851,0.1374,0.5296,0.1374
							c0.26,0,0.54391-0.0845,0.8332-0.2518c0.1183-0.068,0.2336-0.1489,0.3452-0.2394c0.0042-0.1577-0.0246-0.3167-0.1031-0.4536
							c-0.1418,0.1319-0.2892,0.2514-0.4451,0.3414c-0.3725,0.2156-0.7119,0.2542-0.9577,0.114
							c-0.2441-0.1406-0.3797-0.4536-0.3813-0.881c-0.00229-0.9733,0.685-2.1627,1.53171-2.6516
							c0.77379-0.4471,1.34049-0.1256,1.34379,0.7582c0.0018,0.529-0.2129,1.1113-0.534,1.6195l0.3598,0.2091
							c0.35641-0.5735,0.5818-1.2366,0.5801-1.8295C21.28708,3.83622,20.38748,3.31512,19.33778,3.92072z" class="color4d5772 svgShape"></path></g><g fill="#010001" class="color000000 svgShape"><path fill="#f4f6f8" d="M18.24298 11.70042c.11571.2848.129.591.0419.9196-.0871.3286-.2356.5401-.4467.6315-.2098.0945-.4787.0394-.8073-.1632l-.5889-.3632.5599-2.1116.6074.3745C17.91748 11.17822 18.12738 11.41551 18.24298 11.70042zM17.62958 12.78272c.123-.0508.2112-.1809.2658-.387.05531-.2085.0512-.3955-.0129-.5669-.0666-.1702-.1955-.3157-.3912-.4364l-.2141-.132-.3407 1.2847.2437.1502C17.35558 12.80352 17.50469 12.83232 17.62958 12.78272M19.78988 13.74852l-.0643.2424-.9636-.5943c-.0124.0952.0053.1905.0549.2869.0496.0965.1144.1681.19381.2171.13109.0808.25009.0936.36319.0395l.1341.4016c-.1952.08-.394.0602-.5952-.0638-.2012-.1241-.3469-.3037-.4378-.5362-.0908-.2326-.1032-.4776-.03529-.7336.06789-.2561.19029-.4179.36279-.4854.175-.0687.3518-.0468.5346.0659.1809.1116.3185.273.4098.4875C19.83828 13.29062 19.85238 13.51282 19.78988 13.74852zM18.85708 13.07832l.5815.3586c.016-.1008.0063-.1938-.0297-.2767-.0379-.084-.0916-.1487-.1654-.1942-.072-.0444-.1475-.0594-.2229-.0426C18.94708 12.94142 18.89098 12.99102 18.85708 13.07832M20.88218 13.54152c.096.0592.186.1411.2706.2512.0852.108.15091.2328.2001.3713l-.2737.1898c-.0262-.0874-.0647-.1692-.1184-.2418-.052-.0715-.1086-.1251-.1696-.1626-.096-.0592-.1893-.0719-.2798-.0381-.0906.0337-.1545.1209-.1912.2591-.036.1359-.0298.2663.0199.3867.0504.118.1214.2065.2137.2635.1237.0762.2543.0698.3924-.0217l.1391.4391c-.2275.1128-.4409.1077-.6403-.0152-.1975-.1219-.3451-.3025-.4427-.5419-.0957-.2383-.11059-.4822-.0445-.7313.0661-.2493.1897-.4077.3696-.4786C20.50728 13.40001 20.69208 13.42422 20.88218 13.54152zM22.74358 15.57001l-.0643.2424-.9637-.5943c-.0123.0952.0054.1905.055.2869.0496.0965.1144.1681.1938.2171.131.0808.2519.0947.3632.0395l.13411.4016c-.19521.08-.394.0602-.59521-.0639-.2012-.124-.3469-.3036-.43779-.5361-.09081-.2326-.10321-.4776-.03531-.7336.0679-.2561.19031-.4179.3628-.4854.175-.0687.3518-.0468.53451.0659.18089.1116.31859.273.40989.4875C22.79188 15.11211 22.80598 15.33432 22.74358 15.57001zM21.81078 14.89982l.5815.3586c.016-.1009.0063-.1938-.0297-.2767-.03789-.084-.0916-.1487-.1655-.1942-.072-.0444-.1475-.0594-.2228-.0426C21.90078 14.76292 21.84469 14.81252 21.81078 14.89982M24.77738 15.94361c.155.0956.2655.2297.3315.4022.0641.1713.0682.3664.0112.5816l-.262.9878-.3729-.2299.23551-.8882c.06609-.2491.02529-.4193-.12421-.5115-.0739-.0456-.145-.0526-.21779-.0211-.071.0328-.12391.1108-.15761.2377l-.23239.8768-.37111-.2288.2355-.8881c.0342-.1292.0429-.2346.0271-.3129-.017-.0817-.0609-.1429-.1311-.1862-.072-.0444-.1431-.0514-.2159-.0199-.0728.0316-.1239.1108-.15749.2377l-.23251.8768-.3711-.2288.4307-1.6245.3711.2289-.0487.1835c.1388-.0779.2738-.0765.4048.0043.0831.0513.151.1274.203.2308.05271.101.0846.2076.095.3143.0781-.0679.1663-.1006.2674-.1014C24.59469 15.86272 24.68869 15.88892 24.77738 15.94361zM26.75218 17.43052c.0792.228.0879.4626.0236.7052-.0637.2402-.1805.4053-.3456.4933-.167.0869-.3289.0819-.4858-.0149-.1551-.0956-.2651-.2557-.3258-.4804l-.0571.2153-.3692-.2277.5941-2.2408.3692.2277-.2114.7975c.1387-.0779.2878-.065.4484.034C26.55508 17.03992 26.67498 17.20352 26.75218 17.43052zM26.21669 18.18641c.08689-.044.14889-.1323.18319-.2615.03481-.1314.0329-.2617-.0064-.3888-.0394-.1271-.10179-.2157-.1904-.2703-.0868-.0535-.1702-.0549-.2545-.0041-.082.0497-.1428.1414-.1776.2728-.0349.1314-.03229.2596.0045.3798.0393.1191.0999.2065.1849.2589C26.04528 18.22552 26.13238 18.22922 26.21669 18.18641M28.32408 19.01151l-.0642.2424-.9655-.5954c-.0105.0963.0072.1916.0568.288.0477.0954.1144.1681.1937.217.1293.0797.2502.0936.3615.0384l.134.4016c-.1952.0801-.3921.0614-.5933-.0627-.2013-.1241-.347-.3036-.4378-.5361-.0908-.2327-.1032-.4776-.0353-.7336.0679-.2561.1884-.419.3628-.4854.1732-.0699.3518-.0468.5327.0648.1827.1127.3204.2741.4117.4886C28.37248 18.55362 28.38658 18.77582 28.32408 19.01151zM27.39138 18.34132l.5796.3574c.0179-.0997.0082-.1926-.0297-.2766-.036-.0829-.09159-.1487-.16359-.1931-.07381-.0456-.14751-.0594-.22281-.0426C27.47948 18.20321 27.42528 18.25401 27.39138 18.34132M29.55678 18.89102l-.1112.4272-.072-.0444c-.10889-.0672-.2046-.0708-.2833-.0087-.0788.0621-.1401.1719-.18159.3283l-.18681.7046-.36919-.2277.43069-1.6245.3692.2277-.0564.2129c.0654-.036.13951-.0563.22351-.0572C29.40248 18.82491 29.48228 18.84781 29.55678 18.89102z" class="colorffffff svgShape"></path></g><g fill="#010001" class="color000000 svgShape"><polygon fill="#a50b89" points="12.85 20.134 12.057 23.23 9.629 21.827 10.422 18.732" class="colored5e72 svgShape"></polygon><polygon fill="#a50b89" points="11.704 24.579 10.911 27.674 8.482 26.272 9.275 23.176" class="colored5e72 svgShape"></polygon><polygon fill="#a50b89" points="10.557 29.023 9.764 32.118 7.335 30.716 8.128 27.621" class="colored5e72 svgShape"></polygon></g><g fill="#010001" class="color000000 svgShape"><polygon fill="#f4f6f8" points="21.802 20.196 21.009 23.291 18.58 21.889 19.373 18.794" class="colorb4bed7 svgShape"></polygon><polygon fill="#f4f6f8" points="29.604 24.7 28.811 27.796 26.388 26.397 27.181 23.301" class="colorb4bed7 svgShape"></polygon><polygon fill="#f4f6f8" points="25.704 22.449 24.911 25.544 22.483 24.142 23.276 21.047" class="colorb4bed7 svgShape"></polygon><polygon fill="#f4f6f8" points="33.509 26.955 32.716 30.05 30.287 28.648 31.08 25.553" class="colorb4bed7 svgShape"></polygon><polygon fill="#f4f6f8" points="20.655 24.64 19.862 27.736 17.433 26.333 18.227 23.238" class="colorb4bed7 svgShape"></polygon><polygon fill="#f4f6f8" points="28.457 29.145 27.664 32.24 25.241 30.841 26.034 27.746" class="colorb4bed7 svgShape"></polygon><polygon fill="#f4f6f8" points="16.753 22.387 15.96 25.483 13.531 24.08 14.324 20.985" class="colorb4bed7 svgShape"></polygon><polygon fill="#f4f6f8" points="24.558 26.893 23.765 29.989 21.336 28.586 22.129 25.491" class="colorb4bed7 svgShape"></polygon><polygon fill="#f4f6f8" points="32.362 31.399 31.569 34.495 29.141 33.093 29.934 29.997" class="colorb4bed7 svgShape"></polygon><polygon fill="#f4f6f8" points="19.508 29.085 18.715 32.18 16.287 30.778 17.08 27.682" class="colorb4bed7 svgShape"></polygon><polygon fill="#f4f6f8" points="27.31 33.589 26.517 36.684 24.095 35.286 24.888 32.19" class="colorb4bed7 svgShape"></polygon><polygon fill="#f4f6f8" points="15.606 26.832 14.813 29.927 12.384 28.525 13.177 25.429" class="colorb4bed7 svgShape"></polygon><polygon fill="#f4f6f8" points="23.411 31.338 22.618 34.433 20.189 33.031 20.982 29.936" class="colorb4bed7 svgShape"></polygon><polygon fill="#f4f6f8" points="31.216 35.844 30.423 38.939 27.994 37.537 28.787 34.442" class="colorb4bed7 svgShape"></polygon><polygon fill="#f4f6f8" points="18.362 33.529 17.569 36.625 15.14 35.222 15.933 32.127" class="colorb4bed7 svgShape"></polygon><polygon fill="#f4f6f8" points="14.459 31.276 13.666 34.372 11.238 32.969 12.031 29.874" class="colorb4bed7 svgShape"></polygon><polygon fill="#f4f6f8" points="22.264 35.782 21.471 38.878 19.042 37.475 19.836 34.38" class="colorb4bed7 svgShape"></polygon></g><g fill="#010001" class="color000000 svgShape"><polygon fill="#463852" points="29.669 29.117 26.319 30.752 26.399 28.428 26.943 29.777" class="color384052 svgShape"></polygon></g></svg>