<svg xmlns="http://www.w3.org/2000/svg" enable-background="new 0 0 50 50" viewBox="0 0 50 50" id="Checklist"><path fill="#f4f6f8" d="M37.6,47l-3.1,1.8c0.4-0.2,0.6-0.7,0.6-1.4l3.1-1.8C38.2,46.3,38,46.8,37.6,47z" class="colordd9a76 svgShape"></path><path fill="#acd3fa" d="M12.4,3l3.1-1.8c0.4-0.2,1-0.2,1.6,0.2L14,3.1C13.3,2.8,12.8,2.7,12.4,3z" class="colorfacdac svgShape"></path><polygon fill="#9d5d91" points="14.4 34.8 17.5 33 35.6 43.4 32.5 45.2" class="color9d8b5d svgShape"></polygon><polygon fill="#72538c" points="14.5 6.6 17.6 4.7 17.5 33 14.4 34.8" class="color8c7c53 svgShape"></polygon><polygon fill="#dcdcdc" points="17 32.9 20.1 31.1 24.4 33.6 21.3 35.4" class="colordcdcdc svgShape"></polygon><polygon fill="#c5c5c5" points="17 28 20.1 26.2 20.1 31.1 17 32.9" class="colorc5c5c5 svgShape"></polygon><polygon fill="#3285d8" points="17.7 30.7 20.8 28.9 21.9 30.8 18.8 32.6" class="coloraad832 svgShape"></polygon><polygon fill="#6d196d" points="18.3 30.4 21.4 28.6 20.8 28.9 17.7 30.7" class="color566d19 svgShape"></polygon><polygon fill="#fdfdfd" points="18.3 30.4 21.4 28.6 21.9 29.6 18.8 31.4" class="colorfdfdfd svgShape"></polygon><polygon fill="#6e196e" points="18.8 32.6 21.9 30.8 23.7 29.9 20.6 31.7" class="color566e19 svgShape"></polygon><polygon fill="#818181" points="18.8 31.4 21.9 29.6 23.1 28.9 20 30.7" class="color818181 svgShape"></polygon><polygon fill="#fdfdfd" points="20 30.7 23.1 28.9 23.7 29.9 20.6 31.7" class="colorfdfdfd svgShape"></polygon><polygon fill="#ffffff" points="20 30.7 20.6 31.7 18.8 32.6 17.7 30.7 18.3 30.4 18.8 31.4" class="colorffffff svgShape"></polygon><polygon fill="#6e27a8" points="21.3 30.5 24.4 28.7 24.4 33.6 21.3 35.4" class="color84a827 svgShape"></polygon><polygon fill="#c5c5c5" points="22.4 34.2 25.5 32.4 25.5 33.6 22.4 35.4" class="colorc5c5c5 svgShape"></polygon><path fill="#751ebd" d="M17,28l4.3,2.5l0,5L17,32.9L17,28z M18.8,32.6l1.7-1l-0.6-1l-1.2,0.7l-0.6-1l-0.5,0.3L18.8,32.6" class="color73bd1e svgShape"></path><polygon fill="#7a2bbc" points="17 28 20.1 26.2 24.4 28.7 21.3 30.5" class="color93bc2b svgShape"></polygon><polygon fill="#c5c5c5" points="22.4 31.7 25.5 29.9 25.5 31.1 22.4 32.9" class="colorc5c5c5 svgShape"></polygon><polygon fill="#dcdcdc" points="17 25.3 20.1 23.5 24.4 26 21.3 27.8" class="colordcdcdc svgShape"></polygon><polygon fill="#c5c5c5" points="17 20.4 20.1 18.6 20.1 23.5 17 25.3" class="colorc5c5c5 svgShape"></polygon><polygon fill="#2b1eec" points="17.7 23.3 20.8 21.5 22 23.4 18.9 25.2" class="color1ea8ec svgShape"></polygon><polygon fill="#dcdcdc" points="22.4 35.4 25.5 33.6 29.3 35.8 26.2 37.6" class="colordcdcdc svgShape"></polygon><polygon fill="#480f77" points="18.3 23 21.4 21.2 20.8 21.5 17.7 23.3" class="color0f5577 svgShape"></polygon><polygon fill="#fdfdfd" points="18.3 23 21.4 21.2 22 22.1 18.9 23.9" class="colorfdfdfd svgShape"></polygon><polygon fill="#d9dadb" points="26.2 36.4 26.2 37.6 22.4 35.4 22.4 34.2" class="colord9d9db svgShape"></polygon><polygon fill="#a7a8a9" points="26.2 36.4 29.3 34.6 29.3 35.8 26.2 37.6" class="colora7a7a9 svgShape"></polygon><polygon fill="#bbbcbd" points="22.4 34.2 25.5 32.4 29.3 34.6 26.2 36.4" class="colorbbbbbd svgShape"></polygon><polygon fill="#480f78" points="18.9 25.2 22 23.4 23.7 22.4 20.6 24.2" class="color0f5578 svgShape"></polygon><polygon fill="#818181" points="18.9 23.9 22 22.1 23.1 21.5 20 23.3" class="color818181 svgShape"></polygon><polygon fill="#fdfdfd" points="20 23.3 23.1 21.5 23.7 22.4 20.6 24.2" class="colorfdfdfd svgShape"></polygon><polygon fill="#ffffff" points="20 23.3 20.6 24.2 18.9 25.2 17.7 23.3 18.3 23 18.9 23.9" class="colorffffff svgShape"></polygon><polygon fill="#5046e4" points="21.3 22.8 24.4 21 24.4 26 21.3 27.8" class="color1782b8 svgShape"></polygon><polygon fill="#c5c5c5" points="22.4 26.6 25.5 24.8 25.5 26 22.4 27.8" class="colorc5c5c5 svgShape"></polygon><polygon fill="#251acd" points="17 20.4 20.1 18.6 24.4 21 21.3 22.8" class="color1a92cd svgShape"></polygon><path fill="#2b1eee" d="M17,20.4l4.3,2.5l0,5L17,25.3L17,20.4z M18.9,25.2l1.7-1l-0.6-1l-1.2,0.7l-0.6-1l-0.5,0.3L18.9,25.2" class="color1ea9ee svgShape"></path><polygon fill="#c5c5c5" points="22.4 24.1 25.5 22.3 25.5 23.5 22.4 25.3" class="colorc5c5c5 svgShape"></polygon><polygon fill="#dcdcdc" points="22.4 32.9 25.5 31.1 33.4 35.7 30.3 37.5" class="colordcdcdc svgShape"></polygon><polygon fill="#dcdcdc" points="17 17.7 20.1 15.9 24.4 18.4 21.3 20.2" class="colordcdcdc svgShape"></polygon><polygon fill="#c5c5c5" points="17 12.8 20.1 10.9 20.1 15.9 17 17.7" class="colorc5c5c5 svgShape"></polygon><polygon fill="#fd56df" points="17.8 15.8 20.9 14 22 16 18.9 17.8" class="colorfd5665 svgShape"></polygon><polygon fill="#dcdcdc" points="22.4 27.8 25.5 26 29.3 28.2 26.2 30" class="colordcdcdc svgShape"></polygon><polygon fill="#a7a8a9" points="30.3 36.3 33.4 34.5 33.4 35.7 30.3 37.5" class="colora7a7a9 svgShape"></polygon><polygon fill="#bbbcbd" points="22.4 31.7 25.5 29.9 33.4 34.5 30.3 36.3" class="colorbbbbbd svgShape"></polygon><polygon fill="#802c71" points="18.3 15.5 21.4 13.7 20.9 14 17.8 15.8" class="color802c33 svgShape"></polygon><polygon fill="#fdfdfd" points="18.3 15.5 21.4 13.7 22 14.7 18.9 16.5" class="colorfdfdfd svgShape"></polygon><polygon fill="#a7a8a9" points="26.2 28.8 29.3 27 29.3 28.2 26.2 30" class="colora7a7a9 svgShape"></polygon><polygon fill="#bbbcbd" points="22.4 26.6 25.5 24.8 29.3 27 26.2 28.8" class="colorbbbbbd svgShape"></polygon><polygon fill="#d9dadb" points="26.2 28.8 26.2 30 22.4 27.8 22.4 26.6" class="colord9d9db svgShape"></polygon><polygon fill="#812c72" points="18.9 17.8 22 16 23.7 15 20.6 16.8" class="color812c34 svgShape"></polygon><polygon fill="#ffffff" points="20.1 15.8 20.6 16.8 18.9 17.8 17.8 15.8 18.3 15.5 18.9 16.5" class="colorffffff svgShape"></polygon><polygon fill="#818181" points="18.9 16.5 22 14.7 23.2 14 20.1 15.8" class="color818181 svgShape"></polygon><polygon fill="#fdfdfd" points="20.1 15.8 23.2 14 23.7 15 20.6 16.8" class="colorfdfdfd svgShape"></polygon><polygon fill="#a50b89" points="21.3 15.2 24.4 13.4 24.4 18.4 21.3 20.2" class="colorc5434f svgShape"></polygon><polygon fill="#c5c5c5" points="22.4 19 25.5 17.2 25.5 18.4 22.4 20.2" class="colorc5c5c5 svgShape"></polygon><polygon fill="#dc4bc2" points="17 12.8 20.1 10.9 24.4 13.4 21.3 15.2" class="colordc4b58 svgShape"></polygon><path fill="#f744d6" d="M17,12.8l4.3,2.5l0,5L17,17.7L17,12.8z M18.9,17.8l1.7-1l-0.6-1l-1.2,0.7l-0.6-1l-0.5,0.3L18.9,17.8" class="colorf74457 svgShape"></path><polygon fill="#c5c5c5" points="22.4 16.5 25.5 14.7 25.5 15.9 22.4 17.7" class="colorc5c5c5 svgShape"></polygon><polygon fill="#dcdcdc" points="22.4 25.3 25.5 23.5 33.5 28.1 30.4 29.9" class="colordcdcdc svgShape"></polygon><polygon fill="#dcdcdc" points="22.4 20.2 25.5 18.4 29.3 20.6 26.2 22.4" class="colordcdcdc svgShape"></polygon><polygon fill="#bbbcbd" points="22.4 24.1 25.5 22.3 33.5 26.9 30.4 28.7" class="colorbbbbbd svgShape"></polygon><polygon fill="#d9dadb" points="30.4 28.7 30.4 29.9 22.4 25.3 22.4 24.1" class="colord9d9db svgShape"></polygon><polygon fill="#a7a8a9" points="30.4 28.7 33.5 26.9 33.5 28.1 30.4 29.9" class="colora7a7a9 svgShape"></polygon><polygon fill="#a7a8a9" points="26.2 21.2 29.3 19.4 29.3 20.6 26.2 22.4" class="colora7a7a9 svgShape"></polygon><polygon fill="#bbbcbd" points="22.4 19 25.5 17.2 29.3 19.4 26.2 21.2" class="colorbbbbbd svgShape"></polygon><polygon fill="#d9dadb" points="26.2 21.2 26.2 22.4 22.4 20.2 22.4 19" class="colord9d9db svgShape"></polygon><polygon fill="#dcdcdc" points="22.4 17.7 25.5 15.9 33.5 20.5 30.4 22.3" class="colordcdcdc svgShape"></polygon><polygon fill="#a7a8a9" points="30.4 21.1 33.5 19.3 33.5 20.5 30.4 22.3" class="colora7a7a9 svgShape"></polygon><polygon fill="#d9dadb" points="30.4 21.1 30.4 22.3 22.4 17.7 22.4 16.5" class="colord9d9db svgShape"></polygon><polygon fill="#bbbcbd" points="22.4 16.5 25.5 14.7 33.5 19.3 30.4 21.1" class="colorbbbbbd svgShape"></polygon><polygon fill="#dcdcdc" points="18.3 10.2 21.4 8.4 32.1 14.6 29 16.4" class="colordcdcdc svgShape"></polygon><polygon fill="#423d47" points="29 15 32.1 13.2 32.1 14.6 29 16.4" class="color3d4247 svgShape"></polygon><path fill="#f4f6f8" d="M29,15l3.5,2l-0.1,28.3L14.4,34.8l0.1-28.3l3.8,2.2l0,1.4L29,16.4L29,15z M21.3,20.2l0-5L17,12.8l0,5
					L21.3,20.2 M21.3,35.4l0-5L17,28l0,5L21.3,35.4 M21.3,27.8l0-5L17,20.4l0,5L21.3,27.8 M30.3,37.5l0-1.2l-7.9-4.6l0,1.2
					L30.3,37.5 M30.4,22.3l0-1.2l-7.9-4.6l0,1.2L30.4,22.3 M30.4,29.9l0-1.2l-7.9-4.6l0,1.2L30.4,29.9 M22.4,19l0,1.2l3.8,2.2l0-1.2
					L22.4,19 M22.4,26.6l0,1.2l3.8,2.2l0-1.2L22.4,26.6 M26.2,37.6l0-1.2l-3.8-2.2l0,1.2L26.2,37.6" class="colorf1f1f3 svgShape"></path><polygon fill="#d9dadb" points="30.3 36.3 30.3 37.5 22.4 32.9 22.4 31.7" class="colord9d9db svgShape"></polygon><polygon fill="#dcdcdc" points="14.5 6.6 17.6 4.7 21.4 7 18.3 8.8" class="colordcdcdc svgShape"></polygon><polygon fill="#423d47" points="29 11.8 32.1 10 32.1 13.2 29 15" class="color3d4247 svgShape"></polygon><polygon fill="#c5c5c5" points="32.5 17 35.6 15.2 35.6 43.4 32.5 45.2" class="colorc5c5c5 svgShape"></polygon><polygon fill="#dcdcdc" points="29 15 32.1 13.2 35.6 15.2 32.5 17" class="colordcdcdc svgShape"></polygon><path fill="#76b6f7" d="M33,14.1c1.2,0.7,2.2,2.4,2.2,3.8l-0.1,29.5c0,1.4-1,2-2.2,1.3l-19.1-11c-1.2-0.7-2.2-2.4-2.2-3.8
					l0.1-29.5c0-1.4,1-2,2.2-1.2l4.3,2.5l0,3.2l-3.8-2.2l-0.1,28.3l18.1,10.4L32.5,17L29,15l0-3.2L33,14.1z" class="colorf7b376 svgShape"></path><polygon fill="#c5c5c5" points="18.3 8.8 21.4 7 21.4 8.4 18.3 10.2" class="colorc5c5c5 svgShape"></polygon><polygon fill="#8dc5fd" points="14 3.1 17.1 1.3 21.4 3.8 18.3 5.6" class="colorfdc68d svgShape"></polygon><polygon fill="#72538c" points="18.3 5.6 21.4 3.8 21.4 7 18.3 8.8" class="color8c7c53 svgShape"></polygon><path fill="#4a444f" d="M18.5,4.8L21.6,3c0.1-0.1,0.3-0.1,0.5,0.1l-3.1,1.8C18.9,4.7,18.7,4.7,18.5,4.8z" class="color444a4f svgShape"></path><polygon fill="#4a444f" points="19.1 4.9 22.2 3.1 24 4.1 20.9 5.9" class="color444a4f svgShape"></polygon><polygon fill="#423d47" points="20.9 5.9 24 4.1 24 6.3 20.9 8.1" class="color3d4247 svgShape"></polygon><path fill="#6822a2" d="M21.2,3.4l3.1-1.8c0.1-0.1,0.3-0.1,0.6,0.1l-3.1,1.8C21.5,3.3,21.3,3.3,21.2,3.4z" class="color5a6268 svgShape"></path><polygon fill="#4a444f" points="20.9 8.1 24 6.3 29.5 9.4 26.4 11.2" class="color444a4f svgShape"></polygon><polygon fill="#423d47" points="26.4 9.1 29.5 7.3 29.5 9.4 26.4 11.2" class="color3d4247 svgShape"></polygon><polygon fill="#433c49" points="26.4 7.1 29.5 5.3 29.5 7.3 26.4 9.1" class="color3c4349 svgShape"></polygon><polygon fill="#564f5c" points="21.7 3.5 24.8 1.7 28.7 3.9 25.6 5.7" class="color4f565c svgShape"></polygon><polygon fill="#564f5c" points="29 11.5 32.1 9.7 32.1 10 29 11.8" class="color4f565c svgShape"></polygon><polygon fill="#564f5c" points="26.4 9.1 29.5 7.3 31.4 8.4 28.3 10.2" class="color4f565c svgShape"></polygon><path fill="#010001" d="M25.6,5.7c0.4,0.3,0.8,0.9,0.8,1.4l0,2l0,2.1l-5.5-3.2l0-2.1l0-2c0-0.5,0.4-0.7,0.8-0.5L25.6,5.7z" class="color2a2f35 svgShape"></path><path fill="#6822a2" d="M25.6,5.7l3.1-1.8c0.4,0.3,0.8,0.9,0.8,1.4l-3.1,1.8C26.4,6.6,26,5.9,25.6,5.7z" class="color5a6268 svgShape"></path><path fill="#010001" d="M28.3,10.2c0.4,0.2,0.8,0.8,0.8,1.3l0,0.3l0,3.2l0,1.4l-10.7-6.2l0-1.4l0-3.2l0-0.3
					c0-0.5,0.3-0.7,0.8-0.4l1.9,1.1l0,2.1l5.5,3.2l0-2.1L28.3,10.2z" class="color2a2f35 svgShape"></path><path fill="#6822a2" d="M28.3,10.2l3.1-1.8c0.4,0.2,0.8,0.8,0.8,1.3L29,11.5C29,11,28.7,10.4,28.3,10.2z" class="color5a6268 svgShape"></path><polygon fill="#f4f6f8" points="35.2 17.9 38.3 16.1 38.2 45.6 35.1 47.4" class="colordd9a76 svgShape"></polygon><polygon fill="#8dc5fd" points="29 11.8 32.1 10 36.1 12.3 33 14.1" class="colorfdc68d svgShape"></polygon><path fill="#7eb8f3" d="M33,14.1l3.1-1.8c1.2,0.7,2.2,2.4,2.2,3.8l-3.1,1.8C35.2,16.5,34.3,14.8,33,14.1z" class="colorf3ac7e svgShape"></path></svg>