<svg xmlns="http://www.w3.org/2000/svg" viewBox="0 0 131 131" id="TropicalArea"><path fill="#f4f6f8" d="m113.338 96.252-.027 11.275c0-.41-.271-.819-.814-1.134L70.738 82.288c-1.073-.625-2.81-.625-3.878 0L39.978 97.912c-.531.304-.797.708-.797 1.111l.028-11.275c.006-.404.271-.807.797-1.112l26.887-15.623c1.068-.62 2.805-.62 3.879 0l41.759 24.104c.542.316.813.725.807 1.135z" class="colorcc9e75 svgShape"></path><path fill="#8fbae5" d="m110.232 99.17-17.5 10.165-1.639.958-1.594.928-3.443 1.999c-1.287.74-3.376.74-4.67 0L42.323 90.66l16.152-9.385 1.639-.95 1.67-.974 4.715-2.74c1.28-.748 3.368-.748 4.662 0l39.07 22.56z" class="colore5bd8f svgShape"></path><path fill="#abd3fc" d="m92.732 109.335-1.639.958-1.594.928-3.443 1.999c-1.287.74-3.376.74-4.67 0L42.323 90.66l16.152-9.385 1.639-.95 1.67-.974c.276.719.658 1.362 1.25 1.864 1.354 1.175 3.337 1.107 5.134 1.19 1.78.12 3.87.644 4.535 2.305.412 1.07.135 2.283.322 3.399.337 1.9 2.26 3.353 4.177 3.195 1.43-.15 2.896-1.048 4.206-.479 1.976.883 1.37 3.795 1.931 5.846.516 2.013 2.515 3.503 4.558 3.45 1.07-.06 2.156-.419 3.144-.037 2.066.823 1.572 3.787 1.347 5.98-.105 1.086-.015 2.253.344 3.271z" class="colorfcdcab svgShape"></path><path fill="#9dccfc" d="M52.757 74.464c-.038-.015-.045-.045-.068-.03l1.377-1.55c.023-.007.03.015.06.038l-1.37 1.542z" class="color9de5fc svgShape"></path><path fill="#8fbae5" d="m91.093 110.293-1.594.928-3.443 1.999c-1.287.74-3.376.74-4.67 0L42.323 90.66l16.152-9.385 1.639-.95c.3.942.704 1.796 1.452 2.432 1.362 1.175 3.338 1.108 5.135 1.197 1.78.12 3.87.637 4.535 2.306.412 1.07.135 2.283.33 3.398.329 1.893 2.253 3.353 4.176 3.188 1.422-.15 2.897-1.048 4.199-.471 1.976.875 1.37 3.787 1.931 5.845.517 2.006 2.515 3.503 4.558 3.443 1.07-.06 2.163-.419 3.144-.037 2.066.823 1.572 3.787 1.355 5.98a8.113 8.113 0 0 0 .164 2.687z" class="colore5bd8f svgShape"></path><path fill="#73b8fe" d="m89.499 111.221-3.443 1.999c-.097.06-.21.112-.314.157-1.295.576-3.166.524-4.356-.157L42.323 90.66l13.637-7.926 2.515-1.46c.314 1.161.718 2.239 1.617 3.002 1.362 1.175 3.338 1.108 5.134 1.19 1.781.12 3.87.644 4.536 2.306.411 1.077.135 2.282.33 3.398.328 1.9 2.252 3.353 4.176 3.196 1.422-.15 2.896-1.048 4.206-.48 1.968.884 1.37 3.795 1.924 5.846.516 2.013 2.514 3.51 4.558 3.45 1.07-.06 2.163-.418 3.143-.037 2.066.824 1.572 3.787 1.355 5.98a8.54 8.54 0 0 0 .045 2.096z" class="color73d0fe svgShape"></path><path fill="#6257ff" d="m86.977 112.658-1.235.719c-1.295.576-3.166.524-4.356-.157L42.323 90.66l13.637-7.926c.314 1.153.719 2.223 1.61 2.98 1.361 1.174 3.337 1.107 5.134 1.19 1.781.12 3.87.643 4.535 2.305.412 1.077.135 2.282.33 3.398.33 1.9 2.253 3.353 4.176 3.196 1.422-.15 2.897-1.048 4.207-.48 1.968.884 1.37 3.795 1.923 5.846.517 2.013 2.515 3.51 4.558 3.45 1.07-.06 2.164-.418 3.144-.037 2.066.824 1.572 3.787 1.355 5.98a8.54 8.54 0 0 0 .045 2.096z" class="color57c7ff svgShape"></path><path fill="#abd3fc" d="M112.92 94.893c1.29.745 1.297 1.956.016 2.7L86.05 113.218c-1.281.745-3.372.745-4.662 0L39.631 89.108c-1.29-.744-1.296-1.956-.016-2.7L66.5 70.784c1.281-.744 3.373-.744 4.662 0l41.759 24.11zM85.66 112.991l26.885-15.624c1.067-.62 1.06-1.627-.013-2.247L70.772 71.01c-1.074-.62-2.813-.62-3.88 0L40.008 86.634c-1.067.62-1.062 1.628.012 2.248L81.78 112.99c1.074.62 2.813.62 3.88 0" class="colorfcdcab svgShape"></path><path fill="#abd3fc" d="M112.92 94.893c1.29.745 1.297 1.956.016 2.7L86.05 113.218c-1.281.745-3.372.745-4.662 0L39.631 89.108c-1.29-.744-1.296-1.956-.016-2.7L66.5 70.784c1.281-.744 3.373-.744 4.662 0l41.759 24.11zM85.66 112.991l26.885-15.624c1.067-.62 1.06-1.627-.013-2.247L70.772 71.01c-1.074-.62-2.813-.62-3.88 0L40.008 86.634c-1.067.62-1.062 1.628.012 2.248L81.78 112.99c1.074.62 2.813.62 3.88 0z" class="colorfcdcab svgShape"></path><path fill="#aa3595" d="m113.892 96.252-.034 11.275c0 .487-.32.974-.957 1.339L86.02 124.489c-1.283.747-3.375.747-4.664 0l-41.759-24.105c-.647-.376-.968-.868-.968-1.36l.033-11.265c0 .487.327.98.968 1.35l41.76 24.11c1.288.742 3.38.742 4.663 0l26.882-15.623c.637-.37.958-.857.958-1.344z" class="coloraa6135 svgShape"></path><path fill="#abd5ff" d="m122.948 58.404-8.392 34.401c-.399 1.638-1.776 2.368-3.065 1.627l-41.76-24.11c-1.288-.748-2.013-2.684-1.61-4.327l8.388-34.4c.404-1.638 1.776-2.369 3.065-1.622l41.759 24.11c1.289.742 2.014 2.684 1.615 4.321z" class="colorabe7ff svgShape"></path><path fill="#aa3595" d="m116.84 93.309-4.071.835c-.366.078-.764.011-1.157-.216L69.853 69.823c-1.073-.62-1.676-2.235-1.339-3.601l8.388-34.4c.215-.87.758-1.434 1.4-1.561l4.071-.841c-.641.133-1.184.697-1.394 1.566l-8.393 34.4c-.332 1.367.271 2.977 1.345 3.597l41.759 24.11a1.63 1.63 0 0 0 1.15.216zM83.651 29.138l-4.077.835c-.465-.27-.946-.348-1.383-.254l4.072-.841c.442-.089.918-.011 1.388.26z" class="coloraa6135 svgShape"></path><path fill="#aa3595" d="m127.02 57.57-8.393 34.4c-.254 1.046-.901 1.72-1.676 1.875l-4.072.841c.77-.16 1.422-.835 1.677-1.88l8.392-34.402c.399-1.637-.326-3.579-1.615-4.32l-41.76-24.111 4.078-.835 41.76 24.105c1.288.747 2.013 2.689 1.61 4.326z" class="coloraa6135 svgShape"></path><path fill="#abd3fc" d="M121.334 54.083c1.29.744 2.013 2.683 1.613 4.322l-8.392 34.401c-.4 1.64-1.774 2.367-3.063 1.623l-41.759-24.11c-1.29-.744-2.013-2.683-1.613-4.322l8.392-34.401c.4-1.64 1.774-2.367 3.063-1.623l41.759 24.11zm-7.17 38.497 8.39-34.4c.334-1.366-.268-2.979-1.342-3.599l-41.758-24.11c-1.074-.62-2.217-.014-2.55 1.351l-8.392 34.401c-.333 1.366.269 2.978 1.343 3.598l41.758 24.11c1.074.62 2.217.014 2.55-1.351" class="colorfcdcab svgShape"></path><path fill="#9a2685" d="M69.99 52.252c-1.462 1.966-10.674 13.55-5.312 23.888 0 0 .084.37.118.824l-5.884-4.405c.135-2.589.572-7.144 1.9-10.943 1.311-3.733 5.11-11.819 12.524-18.04l2.555 1.917c-2.992 3.11-5.346 6.003-5.9 6.759z" class="color9a4c26 svgShape"></path><path fill="#9a2685" d="M62.495 82.193c-2.69-2.727-6.765-7.236-9.474-11.992-3.44-6.038-10.57-22.206-7.918-40.136 0 0-.04-.093-.094-.225l3.108-.738c.31 9.558 2.357 20.024 2.82 21.975.833 3.509 5.272 24.793 20.947 28.733 0 0 2.204 1.17 2.372 2.383-2.3 1.44-10.265.974-11.761 0z" class="color9a4c26 svgShape"></path><path fill="#6a2f9b" d="M19.894 28.424c9.495-5.871 25.97.86 25.97.86-5.102-5.385-9.495-7.608-13.145-8.067-.34.753-.585 1.305-.585 1.305l-1.363-1.433a11.411 11.411 0 0 0-4.779 1.302l-.136 1.2-1.029-.514c-.545.356-1.015.736-1.485 1.115l1.513 1.431-2.205-.774c-1.827 1.817-2.756 3.575-2.756 3.575z" class="color579b2f svgShape"></path><path fill="#6a2f9b" d="M22.62 44.912c.877-2.637 2.66-4.79 4.9-6.553l-.254-1.668 1.043 1.055a22.12 22.12 0 0 1 2.838-1.823l.28-2.527s.637.763 1.303 1.7c6.409-3.186 13.378-4.31 13.378-4.31l-.988-3.601c-24.035.255-22.502 17.578-22.5 17.727z" class="color579b2f svgShape"></path><path fill="#8041b5" d="m41.575 29.485 4.844-3.997c-.163-.242-.327-.533-.49-.775C36.162 8.244 40.801 2.208 41.44 1.5c-1.977 1.401-3.234 3.215-4.005 5.23l1.086 2.168-1.55-.495c-.204.91-.33 1.841-.356 2.817l1.61 1.642-1.61.307c.023.924.145 1.842.267 2.76l2.465.799-2.21.763c.193.84.41 1.654.627 2.467l3.023.97-2.569.582c1.458 4.549 3.358 7.975 3.358 7.975z" class="color69b541 svgShape"></path><path fill="#9b51d9" d="m48.646 28.065-5.393 1.564c-.108-1.833.016-3.713.53-5.597l1.928-.431-1.442-1.114c.197-.511.429-1.019.696-1.523l3.545.382-2.32-2.522c.127-.2.287-.36.415-.56.333-.46.706-.953 1.082-1.48l2.983.32c.176.02-.557-1.089-1.255-2.194a10.942 10.942 0 0 1 2.247-1.746l1.759.154s-.103-.366-.265-.845c2.488-1.01 5.851-1.253 10.658-.061 0 0-14.68 3.576-15.168 15.653z" class="color81d951 svgShape"></path><path fill="#9b51d9" d="M34.57 47.824s1.518-11.902 8.867-14.703c0 0 1.593-2.802 2.382-3.387 0 0-5.282-2.6-8.673 2.748.884.297 1.573.54 1.573.54l-1.96.12c-.17.272-.307.556-.442.855l1.438.337-1.75.423c-.109.264-.215.544-.319.84l1.521.373-1.692.26c-.128.36-.222.733-.313 1.136l.863.252-.982.296c-.05.226-.116.579-.183 1.042l.979.3-1.122.564c-.373 2.399-.783 6.134-.187 8.004z" class="color81d951 svgShape"></path><path fill="#9b51d9" d="M61.804 40.784s-6.468-10.1-14.303-9.511c0 0-2.639-1.854-3.602-2.047 0 0 3.656-4.588 9.008-1.2-.671.644-1.19 1.156-1.19 1.156l1.823-.724c.27.173.515.371.765.584l-1.154.915 1.762-.36c.21.192.426.4.646.622l-1.213.983 1.64-.484c.269.271.513.567.768.893l-.671.594 1.013-.15c.142.183.353.474.612.863l-.755.687 1.254.033c1.364 2.007 3.334 5.206 3.597 7.146z" class="color81d951 svgShape"></path><path fill="#7c1e6b" d="m59.39 67.453 5.283 8.688s-3.554-2.29-5.763-5.774l.48-2.914z" class="color7c391e svgShape"></path><circle cx="45.634" cy="32.616" r="3.557" fill="#7c1e6b" class="color7c391e svgShape"></circle><circle cx="47.086" cy="33.687" r=".665" fill="#6d1b6d" class="color6d331b svgShape"></circle><circle cx="45.922" cy="35.073" r=".665" fill="#6d1b6d" class="color6d331b svgShape"></circle><circle cx="45.317" cy="33.303" r=".665" fill="#6d1b6d" class="color6d331b svgShape"></circle><circle cx="47.981" cy="28.056" r="3.557" fill="#6d1b6d" class="color6d331b svgShape"></circle><circle cx="46.954" cy="26.573" r=".665" fill="#591359" class="color592513 svgShape"></circle><circle cx="48.503" cy="25.638" r=".665" fill="#591359" class="color592513 svgShape"></circle><circle cx="48.503" cy="27.508" r=".665" fill="#591359" class="color592513 svgShape"></circle><circle cx="41.741" cy="30.186" r="3.557" fill="#aa3595" class="coloraa6135 svgShape"></circle><circle cx="40.044" cy="30.796" r=".665" fill="#6d1b6d" class="color6d331b svgShape"></circle><circle cx="39.54" cy="29.058" r=".665" fill="#6d1b6d" class="color6d331b svgShape"></circle><circle cx="41.347" cy="29.54" r=".665" fill="#6d1b6d" class="color6d331b svgShape"></circle><path fill="#6a2f9b" d="M72.985 33.584c3.057 4.24.46 12.158.46 12.158 2.346-2.561 3.238-4.687 3.332-6.407-.363-.134-.63-.23-.63-.23l.625-.684a5.343 5.343 0 0 0-.767-2.189l-.564-.023.205-.498c-.184-.243-.377-.45-.57-.657l-.618.755.288-1.056c-.91-.793-1.761-1.169-1.761-1.169z" class="color579b2f svgShape"></path><path fill="#6a2f9b" d="M65.374 35.405c1.261.322 2.326 1.084 3.224 2.071l.77-.174-.458.522c.34.392.66.81.946 1.265l1.19.047s-.336.323-.75.665c1.7 2.887 2.456 6.105 2.456 6.105l1.65-.58c-.918-11.218-8.958-9.927-9.028-9.92z" class="color579b2f svgShape"></path><path fill="#8041b5" d="m73.21 43.746 2.027 2.13c.108-.084.238-.171.346-.255 7.367-5.109 10.34-3.142 10.692-2.868-.72-.877-1.609-1.404-2.575-1.697l-.977.58.18-.741a6.812 6.812 0 0 0-1.328-.073l-.713.806-.197-.74c-.43.04-.856.128-1.28.215l-.292 1.178-.43-1.007c-.385.118-.758.247-1.13.375l-.353 1.444-.357-1.18c-2.077.832-3.614 1.833-3.614 1.833z" class="color69b541 svgShape"></path><path fill="#9b51d9" d="m74.107 47.001-.91-2.466a8.078 8.078 0 0 1 2.632.061l.266.886.472-.71c.245.075.49.166.734.274l-.06 1.669 1.1-1.168c.098.053.178.122.276.176.226.14.469.298.727.456l-.05 1.404c-.003.082.49-.297.983-.66.32.277.623.602.89.992l-.013.827s.167-.06.386-.152c.554 1.128.779 2.691.382 4.976 0 0-2.158-6.737-7.815-6.565z" class="color81d951 svgShape"></path><path fill="#9b51d9" d="M64.411 41.083s5.61.314 7.162 3.653c0 0 1.361.651 1.66 1 0 0 1.04-2.553-1.57-3.96-.11.424-.2.754-.2.754l-.122-.912a3.346 3.346 0 0 0-.414-.178l-.11.683-.255-.804a8.605 8.605 0 0 0-.403-.12l-.124.722-.177-.782a4.662 4.662 0 0 0-.541-.108l-.09.412-.17-.45a7.05 7.05 0 0 0-.493-.05l-.108.467-.3-.505c-1.133-.095-2.891-.162-3.745.178z" class="color81d951 svgShape"></path><path fill="#9b51d9" d="M68.603 53.57s4.503-3.357 3.968-6.997c0 0 .778-1.294.836-1.75 0 0 2.265 1.555.86 4.167-.323-.292-.58-.517-.58-.517l.4.827a3.358 3.358 0 0 1-.248.377l-.466-.509.227.811a8.643 8.643 0 0 1-.27.323l-.499-.534.281.75a4.674 4.674 0 0 1-.392.388l-.3-.294.104.469c-.08.072-.21.18-.383.314l-.346-.33.027.587c-.892.704-2.321 1.73-3.219 1.917z" class="color81d951 svgShape"></path><circle cx="71.882" cy="45.746" r="1.666" fill="#7c1e6b" class="color7c391e svgShape"></circle><circle cx="71.43" cy="46.459" r=".311" fill="#6d1b6d" class="color6d331b svgShape"></circle><circle cx="70.744" cy="45.961" r=".311" fill="#6d1b6d" class="color6d331b svgShape"></circle><circle cx="71.55" cy="45.621" r=".311" fill="#6d1b6d" class="color6d331b svgShape"></circle><circle cx="74.09" cy="46.69" r="1.666" fill="#6d1b6d" class="color6d331b svgShape"></circle><circle cx="74.748" cy="46.161" r=".311" fill="#591359" class="color592513 svgShape"></circle><circle cx="75.236" cy="46.854" r=".311" fill="#591359" class="color592513 svgShape"></circle><circle cx="74.363" cy="46.916" r=".311" fill="#591359" class="color592513 svgShape"></circle><circle cx="72.888" cy="43.847" r="1.666" fill="#aa3595" class="coloraa6135 svgShape"></circle><circle cx="72.546" cy="43.074" r=".311" fill="#6d1b6d" class="color6d331b svgShape"></circle><circle cx="73.341" cy="42.781" r=".311" fill="#6d1b6d" class="color6d331b svgShape"></circle><circle cx="73.176" cy="43.641" r=".311" fill="#6d1b6d" class="color6d331b svgShape"></circle><path fill="#785a91" d="m38.423 94.783-.035 18.146-1.062 3.727.051-18.146z" class="color91785a svgShape"></path><path fill="#a6689b" d="m37.377 98.51-.051 18.146-6.415.618.034-18.146z" class="colora68968 svgShape"></path><path fill="#664d7b" d="m30.945 99.128-.034 18.146-22.243-12.832.052-18.146z" class="color7b654d svgShape"></path><path fill="#424242" d="m38.423 94.783-.035 18.146-1.062 3.727.051-18.146z" class="color424242 svgShape"></path><path fill="#4c4c4c" d="m37.377 98.51-.051 18.146-6.415.618.034-18.146z" class="color4c4c4c svgShape"></path><path fill="#595959" d="m30.945 99.128-.034 18.146-22.243-12.832.052-18.146z" class="color595959 svgShape"></path><path fill="#ebeced" d="m38.423 94.783-1.046 3.727-6.432.618L8.72 86.296l1.045-3.727 6.432-.618z" class="colorecedeb svgShape"></path><path fill="#c1c1c1" d="M38.423 94.783v2.657l-1.046 3.727V98.51z" class="colorc1c1c1 svgShape"></path><path fill="#cecece" d="M37.377 98.51v2.657l-6.432.618v-2.657z" class="colorcecece svgShape"></path><path fill="#e0e0e0" d="M30.945 99.128v2.657L8.712 88.949l.008-2.653z" class="colore0e0e0 svgShape"></path><path fill="#c1c1c1" d="m38.378 110.43.01 2.499-1.011 3.727v-2.657z" class="colorc1c1c1 svgShape"></path><path fill="#cecece" d="M37.377 113.999v2.657l-6.466.618.005-2.674z" class="colorcecece svgShape"></path><path fill="#ebeced" d="m30.916 114.6-.005 2.674-22.243-12.832v-2.657z" class="colorecedeb svgShape"></path><path fill="#cecece" d="m24.884 96.92 1.114-.648-.046 18.136-1.115.648z" class="colorcecece svgShape"></path><path fill="#4c4c4c" d="m24.876 99.776 1.115-.648-.032 12.617-1.115.648z" class="color4c4c4c svgShape"></path><path fill="#ebeced" d="m11.863 89.402 1.114-.647 13.021 7.517-1.114.648z" class="colorecedeb svgShape"></path><path fill="#e0e0e0" d="m24.884 96.92-.047 18.136-13.02-7.517.046-18.137z" class="colore0e0e0 svgShape"></path><path fill="#6822a2" d="m24.876 99.776-.032 12.617-13.021-7.518.032-12.617z" class="color686868 svgShape"></path><path fill="#c1c1c1" d="M21.83 105.575c-.003 1.352-.481 2.303-1.252 2.752l-2.382 1.384c.771-.45 1.249-1.4 1.252-2.752.008-2.723-1.907-6.04-4.275-7.407-1.193-.689-2.274-.753-3.053-.3l2.382-1.383c.778-.454 1.86-.39 3.052.297 2.369 1.368 4.284 4.686 4.276 7.41z" class="colorc1c1c1 svgShape"></path><path fill="#e0e0e0" d="M15.911 99.543c2.107 1.216 3.809 4.165 3.802 6.585s-1.72 3.396-3.826 2.18c-2.106-1.216-3.809-4.164-3.802-6.584s1.72-3.397 3.826-2.18z" class="colore0e0e0 svgShape"></path><path fill="#595959" d="M20.072 106.944c-.005 1.482-.528 2.524-1.37 3.014l-2.118 1.231c.843-.49 1.366-1.533 1.37-3.015.01-2.983-2.088-6.615-4.685-8.114-1.306-.754-2.49-.824-3.343-.327l2.117-1.23c.854-.497 2.037-.428 3.344.327 2.596 1.5 4.693 5.131 4.685 8.114z" class="color595959 svgShape"></path><path fill="#4c4c4c" d="M13.27 100.06c2.596 1.499 4.693 5.132 4.685 8.114s-2.12 4.186-4.716 2.687-4.693-5.131-4.685-8.114 2.12-4.186 4.715-2.687z" class="color4c4c4c svgShape"></path><path fill="#c1c1c1" d="M16.56 107.95c-.002 1.201-.427 2.047-1.112 2.446l-2.117 1.23c.685-.399 1.11-1.244 1.113-2.446.007-2.42-1.695-5.368-3.8-6.584-1.06-.613-2.022-.67-2.714-.267l2.117-1.23c.692-.403 1.653-.346 2.713.265 2.106 1.216 3.808 4.165 3.8 6.586z" class="colorc1c1c1 svgShape"></path><path fill="#e0e0e0" d="M10.643 102.595c2.106 1.216 3.808 4.164 3.801 6.584s-1.72 3.397-3.826 2.181c-2.106-1.216-3.809-4.164-3.802-6.584s1.72-3.397 3.827-2.181z" class="colore0e0e0 svgShape"></path><path fill="#595959" d="M15.386 109.775c-.005 1.482-.528 2.525-1.37 3.014l-2.118 1.232c.843-.49 1.366-1.533 1.37-3.015.01-2.983-2.088-6.615-4.686-8.114-1.306-.754-2.489-.824-3.343-.328l2.118-1.23c.854-.496 2.037-.427 3.344.328 2.596 1.499 4.693 5.13 4.685 8.113z" class="color595959 svgShape"></path><path fill="#4c4c4c" d="M8.583 102.892c2.597 1.499 4.694 5.132 4.686 8.114-.009 2.983-2.12 4.186-4.716 2.687s-4.693-5.132-4.685-8.114 2.12-4.186 4.715-2.687z" class="color4c4c4c svgShape"></path><path fill="#595959" d="M9.514 112.659c-2.318-1.339-4.197-4.595-4.19-7.258.003-1.084.324-1.911.886-2.38-1.065.21-1.71 1.23-1.714 2.768-.008 2.663 1.871 5.92 4.19 7.258.634.365 1.26.56 1.814.56.492 0 .915-.151 1.251-.43-.133.028-.274.041-.422.041-.553 0-1.18-.194-1.815-.56z" class="color595959 svgShape"></path><path fill="#73b8fe" d="M8.45 103.537c-.633-.365-1.262-.558-1.813-.558-.148 0-.29.013-.425.04l-.002.002c-.562.469-.883 1.296-.887 2.38-.006 2.663 1.873 5.92 4.191 7.258.635.365 1.262.56 1.815.56.148 0 .289-.014.422-.042.564-.467.887-1.296.89-2.382.008-2.662-1.872-5.918-4.19-7.258z" class="color73d0fe svgShape"></path><path fill="#0e00e5" d="M9.024 105.333c1.322.763 2.39 2.613 2.386 4.131-.004 1.518-1.08 2.131-2.401 1.368-1.322-.763-2.39-2.613-2.385-4.131.004-1.519 1.079-2.131 2.4-1.368z" class="color00a4e5 svgShape"></path><path fill="#f4f6f8" d="M7.897 104.374c.702.405 1.268 1.386 1.266 2.192s-.573 1.13-1.274.726c-.701-.405-1.268-1.386-1.265-2.192.002-.806.572-1.13 1.273-.726zm1.728 4.52c.255.147.46.504.46.796s-.208.41-.463.263c-.254-.147-.46-.503-.46-.795s.209-.41.463-.263z" class="colorffffff svgShape"></path><path fill="#e0e0e0" d="m13.135 88.707 4.679-2.72 4.297-2.008-4.68 2.72z" class="colore0e0e0 svgShape"></path><path fill="#ebeced" d="m17.431 86.699 4.68-2.72 4.143 2.392-4.68 2.72z" class="colorecedeb svgShape"></path><path fill="#c1c1c1" d="m21.574 89.091 4.68-2.72 6.949 5.398-7.358 4.276z" class="colorc1c1c1 svgShape"></path><path fill="#cecece" d="m21.574 89.091 4.271 6.954-12.71-7.338 4.296-2.008z" class="colorcecece svgShape"></path><path fill="#dc13b7" d="m28.56 95.924-.001.359-.713.415.001-.36z" class="colordc9813 svgShape"></path><path fill="#ec07c2" d="m27.847 96.338-.001.36-1.069-.618.001-.359z" class="colorecaf07 svgShape"></path><path fill="#5cadfe" d="m28.56 95.924-.713.414-1.069-.617.713-.414z" class="colorfee05c svgShape"></path><path fill="#6a2f9b" d="m30.149 96.842-.001.359-.713.414.001-.359z" class="color579b2f svgShape"></path><path fill="#8041b5" d="m29.436 97.256-.001.359-1.069-.617.002-.359z" class="color69b541 svgShape"></path><path fill="#9b51d9" d="m30.149 96.842-.713.414-1.068-.617.712-.414z" class="color81d951 svgShape"></path><path fill="#db0fb6" d="m31.738 97.76-.001.359-.712.414.001-.359z" class="colordb0f0f svgShape"></path><path fill="#f41ecd" d="m31.026 98.174-.001.359-1.069-.617.001-.359z" class="colorf41e1e svgShape"></path><path fill="#ff3edc" d="m31.738 97.76-.712.414-1.069-.617.712-.415z" class="colorff3e3e svgShape"></path><path fill="#595959" d="m35.762 95.139-.001.612c-.002.362-.24.723-.714 1-.956.555-2.512.555-3.474 0-.485-.28-.726-.647-.725-1.014l.001-.612c0 .366.241.733.726 1.013.962.555 2.517.555 3.473 0 .475-.276.713-.638.714-1z" class="color595959 svgShape"></path><path fill="#737274" d="M35.037 94.126c.963.555.968 1.456.011 2.012-.956.555-2.511.555-3.473 0-.963-.556-.968-1.457-.012-2.012s2.512-.556 3.474 0z" class="color747472 svgShape"></path><path fill="#595959" d="m35.222 93.514-.001 1.453c-.001.283-.187.564-.557.78-.746.433-1.958.433-2.709 0-.378-.219-.566-.505-.565-.79v-1.454c0 .285.189.572.566.79.75.433 1.964.433 2.71 0 .37-.216.555-.497.556-.78z" class="color595959 svgShape"></path><path fill="#969597" d="M34.657 92.723c.75.434.754 1.136.008 1.57-.745.433-1.958.433-2.709 0-.75-.434-.754-1.136-.008-1.57.745-.433 1.958-.433 2.709 0z" class="color959597 svgShape"></path><path fill="#595959" d="m16.262 84.335-.002.613c0 .362-.239.723-.714.999-.956.556-2.511.556-3.474 0-.484-.28-.726-.647-.725-1.013l.002-.613c-.001.367.24.734.725 1.014.963.555 2.518.555 3.474 0 .475-.277.713-.638.714-1z" class="color595959 svgShape"></path><path fill="#737274" d="M15.537 83.322c.962.556.967 1.457.011 2.013-.956.555-2.511.555-3.474 0-.962-.556-.967-1.457-.011-2.013s2.511-.555 3.474 0z" class="color747472 svgShape"></path><path fill="#595959" d="m15.722 82.71-.002 1.454c0 .282-.186.564-.556.78-.746.433-1.959.433-2.71 0-.377-.219-.566-.505-.565-.79l.002-1.455c-.001.286.187.572.565.79.75.434 1.963.434 2.71 0 .37-.215.555-.497.556-.779z" class="color595959 svgShape"></path><path fill="#969597" d="M15.156 81.92c.75.433.755 1.136.01 1.57s-1.96.433-2.71 0c-.75-.434-.754-1.136-.009-1.57.746-.433 1.959-.433 2.71 0zM30.126 108.593c-.001.495-.176.843-.457 1.006l-.707.412c.28-.164.456-.512.457-1.007.003-.996-.697-2.21-1.565-2.71-.436-.252-.831-.275-1.116-.11l.707-.41c.285-.166.68-.143 1.117.109.867.5 1.567 1.714 1.564 2.71z" class="color959597 svgShape"></path><path fill="#737274" d="M27.854 106.294c.868.5 1.568 1.714 1.565 2.71-.003.996-.708 1.398-1.575.897-.867-.5-1.567-1.714-1.564-2.71.002-.996.707-1.398 1.574-.897z" class="color747472 svgShape"></path><path fill="#ff3edc" d="m76.814 85.923-5.418 3.149-.505-.292 5.418-3.148z" class="colorff3e3e svgShape"></path><path fill="#ebeced" d="m77.32 86.215-5.418 3.149-.506-.292 5.418-3.149z" class="colorecedeb svgShape"></path><path fill="#ff3edc" d="m77.825 86.507-5.418 3.148-.505-.291 5.418-3.149z" class="colorff3e3e svgShape"></path><path fill="#ebeced" d="m78.33 86.799-5.418 3.148-.505-.292 5.418-3.148z" class="colorecedeb svgShape"></path><path fill="#ff3edc" d="m78.835 87.09-5.418 3.149-.505-.292 5.418-3.148z" class="colorff3e3e svgShape"></path><path fill="#ebeced" d="m79.342 87.383-5.418 3.149-.507-.293 5.418-3.149z" class="colorecedeb svgShape"></path><path fill="#ff3edc" d="m101.503 98.343-5.418 3.149-.505-.292 5.418-3.149z" class="colorff3e3e svgShape"></path><path fill="#ebeced" d="m102.008 98.635-5.418 3.148-.505-.291 5.418-3.149z" class="colorecedeb svgShape"></path><path fill="#ff3edc" d="m102.514 98.926-5.418 3.149-.506-.292 5.418-3.148z" class="colorff3e3e svgShape"></path><path fill="#ebeced" d="m103.019 99.218-5.418 3.149-.505-.292 5.418-3.149z" class="colorecedeb svgShape"></path><path fill="#ff3edc" d="m103.524 99.51-5.418 3.148-.505-.291 5.418-3.149z" class="colorff3e3e svgShape"></path><path fill="#ebeced" d="m104.031 99.802-5.418 3.149-.507-.293 5.418-3.148z" class="colorecedeb svgShape"></path><path fill="#ff3edc" d="m84.758 94.873-5.418 3.148-.505-.291 5.418-3.149z" class="colorff3e3e svgShape"></path><path fill="#ebeced" d="m85.263 95.164-5.418 3.149-.505-.292 5.418-3.148z" class="colorecedeb svgShape"></path><path fill="#ff3edc" d="m85.769 95.456-5.418 3.149-.506-.292 5.418-3.149z" class="colorff3e3e svgShape"></path><path fill="#ebeced" d="m86.274 95.748-5.418 3.148-.505-.291 5.418-3.149z" class="colorecedeb svgShape"></path><path fill="#ff3edc" d="m86.779 96.039-5.418 3.149-.505-.292 5.418-3.148z" class="colorff3e3e svgShape"></path><path fill="#ebeced" d="m87.286 96.332-5.418 3.149-.507-.293 5.418-3.149z" class="colorecedeb svgShape"></path><path fill="#f4f6f8" d="M59.372 89.634a4.87 4.87 0 0 0-1.411-.568 7 7 0 0 0-3.032-.04 5.171 5.171 0 0 0-1.43.519c-.021.012-.042.025-.064.036-1.113.647-1.453 1.573-1.018 2.391.182.343.5.668.955.945l.08.05c.4.228.858.402 1.348.519.969.232 2.06.241 3.034.028a5.028 5.028 0 0 0 1.446-.539l.017-.008c1.578-.917 1.603-2.39.075-3.333zm-4.943 1.292c.097-.141.257-.272.479-.385a2.55 2.55 0 0 1 .566-.201 3.866 3.866 0 0 1 1.895.03c.16.045.31.101.445.17.23.115.395.252.495.396a.562.562 0 0 1 .045.602c-.088.172-.264.335-.53.469-.14.07-.295.128-.46.173a3.878 3.878 0 0 1-2.066-.023 2.441 2.441 0 0 1-.381-.151c-.273-.139-.454-.305-.542-.481a.555.555 0 0 1 .054-.6z" class="colorffffff svgShape"></path><path fill="#ebeced" d="m59.297 92.967-.017.008a5.028 5.028 0 0 1-1.446.54 6.97 6.97 0 0 1-3.034-.03 5.102 5.102 0 0 1-1.348-.518l-.08-.05c-.455-.277-.773-.602-.955-.945a6.72 6.72 0 0 0 4.46 1.053c.474-.058.951-.172 1.357-.424.407-.252.736-.658.807-1.13.075-.498-.142-1.003-.468-1.387-.326-.384-.752-.666-1.172-.942.03-.036.062-.12.272-.138a5.564 5.564 0 0 1 .34.076 4.87 4.87 0 0 1 1.359.554c1.528.943 1.503 2.416-.075 3.333z" class="colorecedeb svgShape"></path><path fill="#a50b89" d="M59.28 92.975a5.034 5.034 0 0 1-1.446.54c.003-.25-.035-.502-.113-.74a1.375 1.375 0 0 0-.357-.595c.165-.045.32-.103.46-.173.266-.134.442-.297.53-.469a.61.61 0 0 1 .102.028c.24.087.43.284.554.509.122.223.182.477.229.727.01.058.02.119.04.173zm-3.982-.818c-.184.153-.31.385-.387.618a2.29 2.29 0 0 0-.111.711 5.116 5.116 0 0 1-1.347-.52 1.462 1.462 0 0 1-.081-.05c.009-.037.014-.076.022-.114.048-.25.109-.504.23-.727.122-.225.313-.422.554-.509a.745.745 0 0 1 .197-.04c.088.175.269.341.542.48.118.058.245.11.38.15z" class="colore25656 svgShape"></path><path fill="#ff3edc" d="M55.474 90.34a2.594 2.594 0 0 0-.566.201c-.222.113-.382.244-.479.385a.695.695 0 0 1-.123-.033c-.24-.086-.43-.283-.554-.508-.122-.223-.182-.477-.23-.727a1.398 1.398 0 0 0-.022-.113c.423-.235.91-.408 1.429-.519.004.222.042.444.112.659.082.254.223.505.433.655z" class="colorff3e3e svgShape"></path><path fill="#a50b89" d="m59.372 89.635-.004.023c-.048.25-.109.504-.23.727-.124.225-.314.422-.554.508a.724.724 0 0 1-.275.043c-.1-.144-.265-.28-.495-.396a2.453 2.453 0 0 0-.445-.17c.236-.145.392-.414.482-.685.064-.2.1-.409.11-.619.479.116.927.287 1.317.513l.094.056zm-.092 3.34a5.034 5.034 0 0 1-1.446.54c.003-.25-.035-.502-.113-.74a1.375 1.375 0 0 0-.357-.595c.165-.045.32-.103.46-.173.266-.134.442-.297.53-.469a.61.61 0 0 1 .102.028c.24.087.43.284.554.509.122.223.182.477.229.727.01.058.02.119.04.173zm-3.982-.818c-.184.153-.31.385-.387.618a2.29 2.29 0 0 0-.111.711 5.116 5.116 0 0 1-1.347-.52 1.462 1.462 0 0 1-.081-.05c.009-.037.014-.076.022-.114.048-.25.109-.504.23-.727.122-.225.313-.422.554-.509a.745.745 0 0 1 .197-.04c.088.175.269.341.542.48.118.058.245.11.38.15z" class="colore25656 svgShape"></path><path fill="#a50b89" d="m59.372 89.635-.004.023c-.048.25-.109.504-.23.727-.124.225-.314.422-.554.508a.724.724 0 0 1-.275.043c-.1-.144-.265-.28-.495-.396a2.453 2.453 0 0 0-.445-.17c.236-.145.392-.414.482-.685.064-.2.1-.409.11-.619.479.116.927.287 1.317.513l.094.056z" class="colore25656 svgShape"></path><path fill="#ff3edc" d="M59.28 92.975a5.034 5.034 0 0 1-1.446.54c.003-.25-.035-.502-.113-.74a1.375 1.375 0 0 0-.357-.595c.165-.045.32-.103.46-.173.266-.134.442-.297.53-.469a.61.61 0 0 1 .102.028c.24.087.43.284.554.509.122.223.182.477.229.727.01.058.02.119.04.173zm-3.982-.818c-.184.153-.31.385-.387.618a2.29 2.29 0 0 0-.111.711 5.116 5.116 0 0 1-1.347-.52 1.462 1.462 0 0 1-.081-.05c.009-.037.014-.076.022-.114.048-.25.109-.504.23-.727.122-.225.313-.422.554-.509a.745.745 0 0 1 .197-.04c.088.175.269.341.542.48.118.058.245.11.38.15zM59.372 89.635l-.004.023c-.048.25-.109.504-.23.727-.124.225-.314.422-.554.508a.724.724 0 0 1-.275.043c-.1-.144-.265-.28-.495-.396a2.453 2.453 0 0 0-.445-.17c.236-.145.392-.414.482-.685.064-.2.1-.409.11-.619.479.116.927.287 1.317.513l.094.056z" class="colorff3e3e svgShape"></path><path fill="#f41ecd" d="M54.86 92.955c-.04.174-.06.352-.06.53a5.102 5.102 0 0 1-1.348-.518l-.08-.05c.009-.038.015-.077.021-.115.018-.092.038-.183.061-.274.452.192.925.336 1.407.427zM59.28 92.975a5.028 5.028 0 0 1-1.446.54c.003-.23-.029-.461-.095-.68.172-.06.34-.137.495-.234a1.84 1.84 0 0 0 .664-.697c.042.054.08.111.112.17.122.224.181.478.229.728.01.059.02.118.04.173zM59.372 89.634c0 .008-.003.017-.004.024-.048.25-.109.504-.23.727a1.231 1.231 0 0 1-.208.28 2.147 2.147 0 0 0-.357-.581 3.73 3.73 0 0 0-.668-.599c.031-.137.05-.278.056-.42a.793.793 0 0 1 .052.015c.053.012.105.027.157.04l.04.013c.048.013.095.027.141.043.056.017.111.035.165.055a4.37 4.37 0 0 1 .856.403z" class="colorf41e1e svgShape"></path><path fill="#ebeced" d="M59.67 118.438a10.7 10.7 0 0 0-.255-.151c-1.031-.6-2.213-1.055-3.473-1.37a15.249 15.249 0 0 0-.932-.207 19.2 19.2 0 0 0-7.527.061c-1.422.302-2.76.778-3.92 1.422-.06.032-.116.07-.178.1-3.053 1.774-3.984 4.312-2.792 6.558.501.94 1.373 1.83 2.62 2.59.072.048.145.091.22.137 1.096.627 2.354 1.104 3.697 1.424 2.657.638 5.648.662 8.322.078 1.448-.315 2.802-.805 3.965-1.478.016-.005.033-.016.049-.024 4.326-2.515 4.396-6.556.204-9.14zm-13.558 3.543c.267-.388.706-.746 1.314-1.056.463-.234.99-.42 1.554-.552 1.642-.403 3.591-.374 5.196.084.438.121.85.277 1.222.463.63.318 1.082.695 1.357 1.088.363.533.406 1.112.124 1.653-.243.47-.725.918-1.454 1.284-.383.194-.81.353-1.26.476-1.76.49-3.939.472-5.67-.064a6.696 6.696 0 0 1-1.045-.415c-.748-.38-1.243-.834-1.486-1.32-.274-.537-.226-1.114.148-1.641z" class="colorecedeb svgShape"></path><path fill="#e0e0e0" d="M59.466 127.578c-.016.008-.033.019-.049.024-1.163.673-2.517 1.163-3.965 1.478-2.674.584-5.665.56-8.322-.078-1.343-.32-2.6-.797-3.696-1.424-.076-.046-.149-.09-.221-.137-1.247-.76-2.119-1.65-2.62-2.59 3.573 2.345 7.985 3.408 12.234 2.886 1.3-.16 2.609-.471 3.723-1.16 1.115-.693 2.017-1.807 2.213-3.102.205-1.365-.39-2.752-1.284-3.804-.894-1.053-2.062-1.826-3.215-2.582.085-.1.171-.332.746-.38a15.249 15.249 0 0 1 .932.208c1.26.315 2.442.77 3.473 1.37.088.051.172.1.255.15 4.192 2.585 4.122 6.626-.204 9.14z" class="colore0e0e0 svgShape"></path><path fill="#a50b89" d="M59.418 127.6c-1.165.674-2.519 1.165-3.965 1.48a6.3 6.3 0 0 0-.31-2.027c-.198-.608-.516-1.213-.98-1.632a6.874 6.874 0 0 0 1.262-.475c.729-.367 1.213-.814 1.454-1.286.093.017.19.045.278.077.661.238 1.18.778 1.52 1.394.334.612.499 1.31.628 1.995.028.16.056.326.113.475zm-10.923-2.243c-.504.419-.85 1.055-1.06 1.696a6.284 6.284 0 0 0-.306 1.95c-1.342-.322-2.599-.798-3.695-1.426a4.024 4.024 0 0 1-.221-.137c.024-.101.04-.21.06-.314.133-.686.298-1.383.633-1.995.334-.616.858-1.156 1.519-1.394.173-.06.354-.1.54-.113.241.484.737.939 1.486 1.318a6.7 6.7 0 0 0 1.044.415z" class="colore25656 svgShape"></path><path fill="#ff3edc" d="M48.978 120.373a7.118 7.118 0 0 0-1.551.552c-.608.31-1.047.669-1.313 1.055a1.905 1.905 0 0 1-.339-.088c-.66-.238-1.18-.778-1.519-1.394-.334-.613-.5-1.31-.632-1.995a3.834 3.834 0 0 0-.06-.31c1.16-.645 2.497-1.12 3.92-1.422.012.608.116 1.216.306 1.805.225.697.612 1.386 1.188 1.797z" class="colorff3e3e svgShape"></path><path fill="#a50b89" d="m59.671 118.439-.012.064c-.133.685-.298 1.382-.632 1.995-.339.616-.858 1.156-1.52 1.394a1.985 1.985 0 0 1-.753.116c-.274-.394-.725-.77-1.357-1.087a6.728 6.728 0 0 0-1.221-.464c.648-.399 1.076-1.136 1.321-1.881.178-.548.278-1.12.303-1.697 1.313.319 2.542.786 3.614 1.407.088.052.173.1.257.153zm-.253 9.162c-1.165.673-2.519 1.164-3.965 1.479a6.3 6.3 0 0 0-.31-2.027c-.198-.608-.516-1.213-.98-1.632a6.874 6.874 0 0 0 1.262-.475c.729-.367 1.213-.814 1.454-1.286.093.017.19.045.278.077.661.238 1.18.778 1.52 1.394.334.612.499 1.31.628 1.995.028.16.056.326.113.475zm-10.923-2.244c-.504.419-.85 1.055-1.06 1.696a6.284 6.284 0 0 0-.306 1.95c-1.342-.322-2.599-.798-3.695-1.426a4.024 4.024 0 0 1-.221-.137c.024-.101.04-.21.06-.314.133-.686.298-1.383.633-1.995.334-.616.858-1.156 1.519-1.394.173-.06.354-.1.54-.113.241.484.737.939 1.486 1.318a6.7 6.7 0 0 0 1.044.415z" class="colore25656 svgShape"></path><path fill="#a50b89" d="m59.671 118.439-.012.064c-.133.685-.298 1.382-.632 1.995-.339.616-.858 1.156-1.52 1.394a1.985 1.985 0 0 1-.753.116c-.274-.394-.725-.77-1.357-1.087a6.728 6.728 0 0 0-1.221-.464c.648-.399 1.076-1.136 1.321-1.881.178-.548.278-1.12.303-1.697 1.313.319 2.542.786 3.614 1.407.088.052.173.1.257.153z" class="colore25656 svgShape"></path><path fill="#ff3edc" d="M59.418 127.6c-1.165.674-2.519 1.165-3.965 1.48a6.3 6.3 0 0 0-.31-2.027c-.198-.608-.516-1.213-.98-1.632a6.874 6.874 0 0 0 1.262-.475c.729-.367 1.213-.814 1.454-1.286.093.017.19.045.278.077.661.238 1.18.778 1.52 1.394.334.612.499 1.31.628 1.995.028.16.056.326.113.475zm-10.923-2.243c-.504.419-.85 1.055-1.06 1.696a6.284 6.284 0 0 0-.306 1.95c-1.342-.322-2.599-.798-3.695-1.426a4.024 4.024 0 0 1-.221-.137c.024-.101.04-.21.06-.314.133-.686.298-1.383.633-1.995.334-.616.858-1.156 1.519-1.394.173-.06.354-.1.54-.113.241.484.737.939 1.486 1.318a6.7 6.7 0 0 0 1.044.415zM59.671 118.439l-.012.064c-.133.685-.298 1.382-.632 1.995-.339.616-.858 1.156-1.52 1.394a1.985 1.985 0 0 1-.753.116c-.274-.394-.725-.77-1.357-1.087a6.728 6.728 0 0 0-1.221-.464c.648-.399 1.076-1.136 1.321-1.881.178-.548.278-1.12.303-1.697 1.313.319 2.542.786 3.614 1.407.088.052.173.1.257.153z" class="colorff3e3e svgShape"></path><path fill="#f41ecd" d="M47.297 127.545a6.314 6.314 0 0 0-.167 1.457c-1.343-.32-2.6-.797-3.696-1.424-.076-.046-.149-.09-.221-.137.024-.103.04-.21.059-.315.048-.25.102-.501.167-.752a18.6 18.6 0 0 0 3.858 1.171zM59.417 127.602c-1.163.673-2.517 1.163-3.965 1.478a6.164 6.164 0 0 0-.261-1.866 6.884 6.884 0 0 0 1.36-.638c.756-.468 1.413-1.133 1.82-1.914.115.148.217.307.306.469.334.614.498 1.31.627 1.995.03.161.057.325.113.476zM59.67 118.438c-.002.021-.008.046-.01.064-.132.687-.3 1.384-.633 1.995-.154.28-.342.541-.568.768a5.889 5.889 0 0 0-.98-1.594c-.533-.63-1.166-1.158-1.833-1.642.086-.377.137-.762.153-1.15.048.01.097.024.143.038.145.035.288.075.43.113a8.145 8.145 0 0 1 .498.15c.154.046.305.097.453.151.142.051.288.103.428.16a11.987 11.987 0 0 1 1.92.947z" class="colorf41e1e svgShape"></path><path fill="#f4f6f8" d="M74.68 100.926a3.684 3.684 0 0 0-1.068-.43 5.297 5.297 0 0 0-2.294-.03 3.913 3.913 0 0 0-1.08.392c-.017.01-.033.02-.05.028-.842.49-1.099 1.19-.77 1.809.138.26.379.505.723.714.02.014.04.026.06.038.303.173.65.305 1.02.393a5.273 5.273 0 0 0 2.296.022c.4-.087.773-.222 1.094-.408.004-.001.009-.004.013-.007 1.194-.693 1.213-1.808.057-2.521zm-3.74.977a.955.955 0 0 1 .363-.29 1.93 1.93 0 0 1 .429-.153c.453-.111.99-.103 1.433.023.121.033.235.076.337.128a.995.995 0 0 1 .374.3c.1.147.113.306.035.456-.067.13-.2.253-.401.354a1.87 1.87 0 0 1-.348.131 2.934 2.934 0 0 1-1.564-.017 1.847 1.847 0 0 1-.288-.115c-.207-.104-.343-.23-.41-.364a.42.42 0 0 1 .04-.453z" class="colorffffff svgShape"></path><path fill="#ebeced" d="M74.624 103.447a3.805 3.805 0 0 1-1.107.414 5.273 5.273 0 0 1-2.296-.02 3.86 3.86 0 0 1-1.02-.394c-.02-.012-.04-.024-.06-.038-.344-.209-.585-.455-.723-.714.986.647 2.203.94 3.375.796.359-.044.72-.13 1.027-.32.307-.19.556-.498.61-.856.057-.376-.107-.759-.354-1.049-.246-.29-.569-.503-.887-.712.024-.028.048-.092.206-.105a4.215 4.215 0 0 1 .257.057 3.684 3.684 0 0 1 1.029.42c1.156.713 1.137 1.828-.057 2.521z" class="colorecedeb svgShape"></path><path fill="#a50b89" d="M74.611 103.454a3.809 3.809 0 0 1-1.094.408 1.738 1.738 0 0 0-.085-.56 1.04 1.04 0 0 0-.27-.45c.124-.034.242-.077.348-.13.2-.102.334-.225.4-.355a.46.46 0 0 1 .077.02.812.812 0 0 1 .42.385c.092.17.137.362.173.55.008.045.015.09.031.132zm-3.013-.62a1.022 1.022 0 0 0-.292.468 1.734 1.734 0 0 0-.085.538 3.87 3.87 0 0 1-1.08-.43l.016-.087c.037-.19.083-.382.175-.55a.808.808 0 0 1 .419-.385.564.564 0 0 1 .149-.031c.067.133.203.259.41.363.089.045.186.083.288.115z" class="colore25656 svgShape"></path><path fill="#ff3edc" d="M71.731 101.46c-.154.036-.3.088-.428.152a.958.958 0 0 0-.362.291.525.525 0 0 1-.093-.024.812.812 0 0 1-.42-.385 1.892 1.892 0 0 1-.174-.55 1.059 1.059 0 0 0-.017-.086 3.91 3.91 0 0 1 1.082-.392c.003.168.032.336.084.498.063.192.17.382.328.496z" class="colorff3e3e svgShape"></path><path fill="#a50b89" d="m74.681 100.926-.003.018a1.892 1.892 0 0 1-.175.55.812.812 0 0 1-.419.385.547.547 0 0 1-.208.032.985.985 0 0 0-.374-.3 1.856 1.856 0 0 0-.337-.128c.179-.11.297-.313.365-.519.048-.151.076-.309.083-.468.362.088.701.217.997.388l.071.042zm-.07 2.528a3.809 3.809 0 0 1-1.094.408 1.738 1.738 0 0 0-.085-.56 1.04 1.04 0 0 0-.27-.45c.124-.034.242-.077.348-.13.2-.102.334-.225.4-.355a.46.46 0 0 1 .077.02.812.812 0 0 1 .42.385c.092.17.137.362.173.55.008.045.015.09.031.132zm-3.013-.62a1.022 1.022 0 0 0-.292.468 1.734 1.734 0 0 0-.085.538 3.87 3.87 0 0 1-1.08-.43l.016-.087c.037-.19.083-.382.175-.55a.808.808 0 0 1 .419-.385.564.564 0 0 1 .149-.031c.067.133.203.259.41.363.089.045.186.083.288.115z" class="colore25656 svgShape"></path><path fill="#a50b89" d="m74.681 100.926-.003.018a1.892 1.892 0 0 1-.175.55.812.812 0 0 1-.419.385.547.547 0 0 1-.208.032.985.985 0 0 0-.374-.3 1.856 1.856 0 0 0-.337-.128c.179-.11.297-.313.365-.519.048-.151.076-.309.083-.468.362.088.701.217.997.388l.071.042z" class="colore25656 svgShape"></path><path fill="#ff3edc" d="M74.611 103.454a3.809 3.809 0 0 1-1.094.408 1.738 1.738 0 0 0-.085-.56 1.04 1.04 0 0 0-.27-.45c.124-.034.242-.077.348-.13.2-.102.334-.225.4-.355a.46.46 0 0 1 .077.02.812.812 0 0 1 .42.385c.092.17.137.362.173.55.008.045.015.09.031.132zm-3.013-.62a1.022 1.022 0 0 0-.292.468 1.734 1.734 0 0 0-.085.538 3.87 3.87 0 0 1-1.08-.43l.016-.087c.037-.19.083-.382.175-.55a.808.808 0 0 1 .419-.385.564.564 0 0 1 .149-.031c.067.133.203.259.41.363.089.045.186.083.288.115zM74.681 100.926l-.003.018a1.892 1.892 0 0 1-.175.55.812.812 0 0 1-.419.385.547.547 0 0 1-.208.032.985.985 0 0 0-.374-.3 1.856 1.856 0 0 0-.337-.128c.179-.11.297-.313.365-.519.048-.151.076-.309.083-.468.362.088.701.217.997.388l.071.042z" class="colorff3e3e svgShape"></path><path fill="#f41ecd" d="M71.267 103.438a1.742 1.742 0 0 0-.046.402 3.86 3.86 0 0 1-1.02-.393c-.02-.012-.04-.024-.06-.038l.016-.086c.013-.07.028-.139.046-.208.342.146.7.255 1.064.323zM74.61 103.454c-.32.186-.693.32-1.093.408a1.7 1.7 0 0 0-.072-.515 1.9 1.9 0 0 0 .375-.176c.209-.13.39-.313.502-.528.032.04.06.085.085.13.092.169.137.36.173.55.008.044.015.09.03.131zM74.68 100.926l-.002.018c-.037.19-.083.381-.175.55a.932.932 0 0 1-.156.212 1.624 1.624 0 0 0-.27-.44 2.822 2.822 0 0 0-.507-.453 1.75 1.75 0 0 0 .043-.317.606.606 0 0 1 .04.01l.118.032.03.008c.037.01.072.021.107.033.043.013.084.027.125.042.04.014.08.028.118.044a3.307 3.307 0 0 1 .53.26z" class="colorf41e1e svgShape"></path><path fill="#f4f6f8" d="M95.685 64.822a1.376 1.376 0 0 1-1.896.412 1.127 1.127 0 0 1-.19-.156.952.952 0 0 1-1.376.41.894.894 0 0 1-.374-.477c-.404.108-.863.05-1.245-.195a1.583 1.583 0 0 1-.706-1.07 1.922 1.922 0 0 1-1.563-.238 1.932 1.932 0 0 1-.589-2.678l.054-.084a1.564 1.564 0 0 1-.316-2.06 1.567 1.567 0 0 1 2.064-.541.949.949 0 0 1 1.07-.035.974.974 0 0 1 .44.81 1.363 1.363 0 0 1 2.276.86 1.91 1.91 0 0 1 1.648.207 1.946 1.946 0 0 1 .352 2.98c.584.418.749 1.236.35 1.855zm21.155 4.636c0 .754-.617 1.372-1.37 1.372-.083 0-.164-.01-.246-.028a.952.952 0 0 1-.935 1.09.894.894 0 0 1-.573-.2c-.281.31-.699.509-1.153.509-.463 0-.88-.2-1.171-.518-.355.4-.872.645-1.444.645a1.932 1.932 0 0 1-1.944-1.934v-.1a1.564 1.564 0 0 1-1.38-1.562c0-.827.627-1.508 1.444-1.571a.949.949 0 0 1 .88-.609c.337 0 .636.182.809.445a1.363 1.363 0 0 1 2.38-.508 1.91 1.91 0 0 1 1.498-.718 1.946 1.946 0 0 1 1.907 2.316 1.375 1.375 0 0 1 1.298 1.371zM91.34 52.146a1.705 1.705 0 0 1-2.334.619 1.295 1.295 0 0 1-.214-.156 1.722 1.722 0 0 1-1.805.034 1.736 1.736 0 0 1-.672-.705 1.37 1.37 0 0 1-1.337-.03 1.366 1.366 0 0 1-.683-1.121 1.17 1.17 0 0 1-1.037-.077 1.203 1.203 0 0 1-.471-1.576c-.083-.037-.159-.07-.237-.116-.888-.516-1.19-1.657-.676-2.545s1.657-1.19 2.545-.675c.11.064.215.135.311.223l.019-.032a1.174 1.174 0 0 1 2.052.046 1.54 1.54 0 0 1 1.6-.026 1.574 1.574 0 0 1 .592 2.129c.37-.258.868-.284 1.285-.042a1.24 1.24 0 0 1 .451 1.7l-.013.024a1.704 1.704 0 0 1 .624 2.326zm19.734 5.465c-.31.814-1.24 1.216-2.079.896-.08-.03-.15-.066-.224-.111a1.646 1.646 0 0 1-1.679.284 1.686 1.686 0 0 1-.741-.551c-.345.254-.809.33-1.252.162a1.31 1.31 0 0 1-.819-.932c-.286.17-.64.205-.98.076-.565-.215-.868-.826-.695-1.38-.082-.022-.159-.042-.239-.072-.912-.348-1.379-1.35-1.042-2.236.338-.886 1.354-1.327 2.267-.98a1.7 1.7 0 0 1 .326.162l.013-.032c.212-.558.852-.833 1.424-.615.202.077.375.203.498.367a1.472 1.472 0 0 1 1.49-.248c.766.291 1.162 1.115.895 1.867a1.137 1.137 0 0 1 1.192-.22c.612.233.922.899.695 1.495l-.008.022c.839.32 1.265 1.237.958 2.046z" class="colorffffff svgShape"></path><path fill="#ebeced" d="m28.533 124.035-1.363.796.787 2.376c.148.437-.341.857-1.101.944l-1.293.14-2.945.323-6.746.743c-.463.052-.926-.044-1.24-.227-.193-.105-.332-.254-.385-.42l-1.092-3.285-8.554-4.937c-.55-.315-.55-.821-.009-1.136l7.881-4.587c.542-.315 1.425-.315 1.966 0l2.028 1.17 6.107-.672c.463-.052.926.044 1.241.227.192.114.332.254.384.42l1.853 5.566 2.473 1.424c.541.314.55.82.008 1.135z" class="colorecedeb svgShape"></path><path fill="#e0e0e0" d="M16.625 124.196c.111.065.112.174.001.239l-.066.038a.462.462 0 0 1-.412 0l-2.387-1.378c-.112-.065-.107-.17.004-.235l.066-.039a.45.45 0 0 1 .406-.003l2.388 1.378zM12.772 118.402c.117.068.118.177.007.242a.465.465 0 0 1-.422 0l-1.808-1.044c-.117-.068-.118-.177-.001-.245a.464.464 0 0 1 .417.003l1.807 1.044z" class="colore0e0e0 svgShape"></path><path fill="#ec07c2" d="m8.163 119.523-.647-.374-.028-.016.926-.538.194.003.977.564-.649.377-.307-.177-.194.003zM7.698 119.903l.279.161-.571.332-.948-.548-.006-.113.848-.492.022.019.647.373-.266.155zM10.806 119.867l.001.11-.926.538-.022-.013-.692-.399.272-.158.005-.113-.312-.18.648-.377z" class="colorecaf07 svgShape"></path><path fill="#010001" d="m9.86 120.502.021.013-.188.11-.028-.01-.692-.4-.266.155-.194.003-.34-.196-.572.332-.195-.113.571-.332-.279-.161.005-.113.266-.155-.647-.373-.022-.02.188-.109.028.016.647.374.272-.158.194-.003.307.177.649-.377.195.113-.648.377.312.18-.005.113-.272.158.692.399zm-1.248-.296.543-.316-.625-.36-.543.315.625.36" class="color383838 svgShape"></path><path fill="#e0e0e0" d="M20.986 120.518c.117.068.118.177.007.242a.466.466 0 0 1-.423 0l-7.754-4.477c-.117-.068-.118-.178-.001-.245.11-.065.3-.065.417.003l7.754 4.477z" class="colore0e0e0 svgShape"></path><path fill="#ff3edc" d="M23.938 122.377c.304.175.443.41.417.64-.022.191-.158.379-.41.525-.25.146-.573.224-.903.237-.395.016-.8-.064-1.105-.24-.552-.319-.555-.84-.006-1.16.554-.321 1.455-.321 2.007-.002z" class="colorff3e3e svgShape"></path><path fill="#5046e4" d="M28.523 122.898c.546.316.55.825.006 1.14l-1.362.792-2.31 1.342-2.554 1.485-1.655.962c-.543.315-1.422.315-1.969 0l-5.524-3.19-8.556-4.94c-.547-.315-.55-.824-.007-1.14l7.882-4.58c.543-.316 1.421-.316 1.968 0l2.02 1.166 2.401 1.386 3.777 2.18 3.41 1.97 2.473 1.427zm-5.063 1.52c.558.323 1.459.323 2.007.004.555-.322.552-.844-.006-1.166-.304-.176-.71-.255-1.106-.24.026-.23-.113-.464-.417-.64-.553-.318-1.453-.318-2.008.004-.548.319-.545.84.007 1.16.304.175.71.255 1.105.24-.025.228.114.463.418.639m-13.579-3.904.926-.538v-.11l-1.027-.592-.195-.113-.977-.564-.194-.003-1.962 1.14.006.113 2.198 1.27h.189l.848-.494.188-.11m3.35-4.473a.464.464 0 0 0-.417-.003c-.116.067-.115.177.002.245l7.754 4.477a.466.466 0 0 0 .423 0c.11-.065.11-.174-.007-.242l-7.754-4.477m-1.137.66a.454.454 0 0 0-.417-.003c-.116.068-.11.174.007.242l4.307 2.486c.117.068.3.071.417.003.116-.067.11-.173-.007-.241l-4.307-2.487m4.465 7.772.066-.038c.111-.065.11-.174-.001-.239l-2.388-1.378a.45.45 0 0 0-.406.003l-.066.039c-.111.064-.116.17-.004.235l2.387 1.378c.112.065.3.065.412 0m3.28 1.894.067-.038c.11-.065.11-.174-.002-.239l-2.382-1.375a.452.452 0 0 0-.411 0l-.067.039c-.11.064-.116.17.001.238l2.383 1.375c.111.065.3.065.411 0m-6.566-3.79.066-.04c.111-.064.116-.17.005-.235l-2.388-1.378a.45.45 0 0 0-.406.003l-.066.039c-.111.064-.116.17-.005.235l2.388 1.378a.45.45 0 0 0 .406-.003m-2.31-5.218a.464.464 0 0 0-.417-.003c-.116.068-.115.177.002.245l1.808 1.043a.465.465 0 0 0 .422 0c.111-.064.11-.173-.007-.241l-1.807-1.044" class="color2559c7 svgShape"></path><path fill="#e0e0e0" d="M16.402 119.188c.117.068.123.174.007.241a.454.454 0 0 1-.417-.003l-4.307-2.486c-.117-.068-.123-.174-.007-.242s.3-.064.417.003l4.307 2.487z" class="colore0e0e0 svgShape"></path><path fill="#ec07c2" d="m7.987 119.845.543-.316.625.361-.543.316z" class="colorecaf07 svgShape"></path><path fill="#ec07c2" d="m8.973 120.215.692.4.028.009-.848.493h-.189l-1.055-.608.571-.332.341.196.194-.003zM25.46 123.256c.559.322.562.844.007 1.166-.548.319-1.45.319-2.007-.003-.304-.176-.443-.41-.418-.64.33-.013.653-.091.902-.236.253-.147.389-.335.41-.527.397-.015.803.064 1.107.24z" class="colorecaf07 svgShape"></path><path fill="#424242" d="m18.334 115.732 2.946-.322 1.36 4.092-3.777-2.181z" class="color424242 svgShape"></path><path fill="#4c4c4c" d="m22.64 119.502-1.36-4.092-2.946.322.53 1.59-2.402-1.387 6.112-.67c.467-.05.926.042 1.242.224.192.11.33.254.386.42l1.849 5.562-3.411-1.97z" class="color4c4c4c svgShape"></path><path fill="#424242" d="m24.857 126.172.705 2.118-2.94.325-.319-.958z" class="color424242 svgShape"></path><path fill="#e0e0e0" d="M13.345 122.302c.111.065.106.171-.005.236l-.066.038a.45.45 0 0 1-.406.003l-2.388-1.378c-.111-.065-.106-.17.005-.235l.066-.039a.45.45 0 0 1 .406-.003l2.388 1.378zm6.56 3.788c.112.065.113.174.002.239l-.067.038a.462.462 0 0 1-.411 0l-2.382-1.375c-.118-.068-.113-.174-.002-.238l.067-.04a.452.452 0 0 1 .411 0l2.382 1.376z" class="colore0e0e0 svgShape"></path><path fill="#4c4c4c" d="M27.957 127.208c.148.438-.345.86-1.1.944l-10.981 1.204c-.47.052-.928-.04-1.242-.222-.193-.112-.332-.257-.386-.422l-1.093-3.283 5.524 3.19c.547.315 1.426.315 1.969 0l1.655-.962.319.958 2.94-.325-.705-2.118 2.31-1.342.79 2.378z" class="color4c4c4c svgShape"></path></svg>