<svg xmlns="http://www.w3.org/2000/svg" viewBox="0 0 200 200" id="ProjectManagement"><path fill="#f4f6f8" d="m174.289 128.193-1.239 1.11c.255-.231.336-.67.174-1.282L159.07 74.504c-.382-1.433-1.895-3.293-3.397-4.16L67.6 19.498c-.844-.485-1.49-.543-1.837-.243l1.25-1.11c.335-.3.993-.242 1.837.243l88.062 50.848c1.502.866 3.016 2.726 3.397 4.16l14.153 53.516c.162.612.093 1.051-.173 1.282z" class="colore2af98 svgShape"></path><path fill="#b25ea3" d="M155.674 70.348c1.498.865 3.015 2.725 3.393 4.156l14.152 53.515c.378 1.43-.524 1.894-2.022 1.03l-88.07-50.847c-1.482-.856-3-2.717-3.378-4.148L65.598 20.54c-.379-1.432.524-1.895 2.007-1.04l88.07 50.848z" class="colorb27f5e svgShape"></path><path fill="#f4f6f8" d="m157.421 74.98-14.5 70.166c-.243 1.144-.901 1.895-1.71 2.115l-1.291.348c.808-.22 1.467-.97 1.71-2.115l14.5-70.165c.38-1.86-.509-4.09-2.01-4.945L66.056 19.536c-.59-.335-1.179-.416-1.699-.277l1.292-.349c.52-.138 1.109-.069 1.698.278l88.063 50.836c1.502.867 2.391 3.085 2.01 4.957z" class="colore2af98 svgShape"></path><path fill="#f4f6f8" d="M154.12 70.378c1.497.865 2.392 3.087 2.006 4.954l-14.502 70.166c-.388 1.876-1.912 2.701-3.41 1.837L50.152 96.492c-1.49-.86-2.385-3.082-1.997-4.959l14.501-70.166c.386-1.867 1.911-2.692 3.401-1.832l88.063 50.843z" class="colore7f1f7 svgShape"></path><path fill="#c5d1dd" d="m73.835 24.97-.528 2.658-4.426-2.554.529-2.657z" class="colorc5d4dd svgShape"></path><path fill="#6822a2" d="m67.884 22.713.551.33c.525.303 1.23.303 2.01-.015l-.552-.319c-.78.319-1.484.317-2.009.004zm6.577-6.007c.011 1.328-.555 2.853-1.433 4.09h-.011l-.543-.324c.866-1.236 1.444-2.761 1.432-4.09 0-.947-.289-1.652-.762-2.057-.081-.08-.174-.138-.266-.196l.416.243c.115.057.231.127.323.208.104.08.208.173.29.288.08.104.161.22.23.347.058.127.116.243.162.381 0 .024 0 .035.012.047.046.161.08.323.104.496.034.174.046.37.046.567z" class="color616173 svgShape"></path><path fill="#6822a2" d="M73.848 13.824c-.747-.429-1.8-.406-2.927.243-2.241 1.298-4.053 4.445-4.053 7.017.012 1.286.465 2.192 1.187 2.62l-.55-.33c-.735-.416-1.189-1.323-1.189-2.608-.012-2.572 1.8-5.72 4.054-7.017 1.126-.649 2.155-.71 2.89-.282l.588.357z" class="color616173 svgShape"></path><path fill="#4f4756" d="M74.992 16.394c.012 1.513-.612 3.212-1.594 4.621l-.37-.22c.867-1.236 1.433-2.76 1.421-4.09a4.51 4.51 0 0 0-.034-.566 3.438 3.438 0 0 0-.104-.496c-.012-.012-.012-.023-.012-.047-.046-.138-.104-.254-.162-.38a2.58 2.58 0 0 0-.23-.348 1.373 1.373 0 0 0-.29-.288 1.559 1.559 0 0 0-.323-.208c-.046-.012-.104-.035-.15-.047-.613-.219-1.387-.115-2.23.37-1.953 1.12-3.524 3.848-3.524 6.089.012 2.033 1.329 2.946 3.039 2.241h.011l.578.335a.35.35 0 0 1-.081.058c-2.241 1.294-4.067.243-4.079-2.334-.011-2.564 1.803-5.719 4.056-7.013 2.241-1.294 4.078-.254 4.078 2.323z" class="color474756 svgShape"></path><path fill="#6822a2" d="m70.37 24.154.55.33c.526.303 1.23.303 2.01-.015l-.552-.318c-.779.318-1.483.316-2.008.003zm6.576-6.007c.012 1.328-.554 2.853-1.432 4.09h-.012l-.543-.324c.867-1.236 1.444-2.761 1.433-4.09 0-.947-.289-1.652-.763-2.056-.08-.081-.173-.139-.265-.197l.416.243c.115.058.23.127.323.208.104.08.208.173.289.289.08.104.162.219.23.346.059.127.116.243.163.382 0 .023 0 .034.011.046.046.161.081.323.104.497.035.173.046.37.046.566z" class="color616173 svgShape"></path><path fill="#6822a2" d="M76.333 15.265c-.747-.429-1.8-.406-2.926.243-2.241 1.298-4.054 4.446-4.054 7.017.012 1.286.465 2.192 1.188 2.62l-.551-.33c-.735-.416-1.188-1.323-1.188-2.608-.012-2.572 1.8-5.719 4.053-7.017 1.127-.649 2.156-.71 2.89-.281l.588.356z" class="color616173 svgShape"></path><path fill="#4f4756" d="M77.478 17.835c.011 1.513-.612 3.212-1.595 4.621l-.37-.22c.867-1.236 1.433-2.76 1.422-4.09a4.51 4.51 0 0 0-.035-.565 3.437 3.437 0 0 0-.104-.497c-.011-.012-.011-.023-.011-.046-.047-.14-.104-.255-.162-.382a2.58 2.58 0 0 0-.231-.346 1.373 1.373 0 0 0-.289-.29 1.559 1.559 0 0 0-.323-.207c-.047-.012-.105-.035-.15-.046-.613-.22-1.387-.116-2.23.37-1.953 1.12-3.524 3.847-3.524 6.088.011 2.034 1.328 2.946 3.038 2.241h.012l.577.336a.35.35 0 0 1-.08.057c-2.242 1.294-4.067.243-4.079-2.333-.011-2.565 1.802-5.72 4.055-7.014 2.242-1.294 4.079-.254 4.079 2.323z" class="color474756 svgShape"></path><path fill="#c5d1dd" d="m83.531 30.569-.529 2.657-4.425-2.554.529-2.657z" class="colorc5d4dd svgShape"></path><path fill="#6822a2" d="m77.58 28.311.55.33c.526.304 1.23.304 2.01-.015l-.552-.318c-.779.318-1.483.316-2.008.003zm6.576-6.007c.012 1.328-.554 2.854-1.432 4.09h-.012l-.543-.324c.867-1.236 1.444-2.761 1.433-4.09 0-.947-.289-1.652-.763-2.056-.08-.081-.173-.139-.265-.197l.415.243c.116.058.232.127.324.208.104.08.208.173.289.289.08.104.162.22.23.346.059.128.116.243.163.382 0 .023 0 .034.011.046.046.162.081.323.104.497.035.173.046.37.046.566z" class="color616173 svgShape"></path><path fill="#6822a2" d="M83.543 19.422c-.747-.428-1.8-.405-2.926.243-2.241 1.299-4.054 4.446-4.054 7.017.012 1.286.465 2.192 1.188 2.62l-.551-.33c-.735-.416-1.188-1.322-1.188-2.608-.012-2.572 1.8-5.719 4.053-7.017 1.127-.649 2.156-.71 2.89-.281l.588.356z" class="color616173 svgShape"></path><path fill="#4f4756" d="M84.688 21.992c.011 1.513-.612 3.212-1.595 4.621l-.37-.22c.867-1.235 1.433-2.76 1.422-4.09 0-.196-.012-.38-.035-.565a3.438 3.438 0 0 0-.104-.497c-.011-.012-.011-.023-.011-.046-.047-.14-.104-.254-.162-.382a2.58 2.58 0 0 0-.231-.346 1.373 1.373 0 0 0-.289-.29 1.56 1.56 0 0 0-.324-.207c-.046-.012-.104-.035-.15-.046-.612-.22-1.386-.116-2.23.37-1.952 1.12-3.523 3.847-3.523 6.088.011 2.034 1.328 2.947 3.038 2.242h.012l.577.335a.35.35 0 0 1-.08.058c-2.242 1.293-4.067.242-4.079-2.334-.011-2.565 1.802-5.72 4.055-7.013 2.242-1.295 4.079-.255 4.079 2.322z" class="color474756 svgShape"></path><path fill="#6822a2" d="m80.065 29.752.551.33c.526.304 1.23.304 2.01-.015l-.552-.318c-.78.318-1.484.316-2.009.003zm6.577-6.007c.012 1.328-.555 2.854-1.433 4.09h-.011l-.543-.324c.866-1.236 1.444-2.761 1.432-4.09 0-.947-.288-1.652-.762-2.056-.081-.081-.173-.139-.266-.197l.416.243c.116.058.231.127.324.208.104.08.208.173.288.289.081.104.162.22.231.346.058.128.116.243.162.382 0 .023 0 .035.012.046.046.162.08.324.104.497.034.173.046.37.046.566z" class="color616173 svgShape"></path><path fill="#6822a2" d="M86.029 20.863c-.747-.428-1.8-.405-2.927.244-2.24 1.298-4.053 4.445-4.053 7.016.012 1.286.465 2.192 1.188 2.621l-.552-.33c-.734-.417-1.187-1.323-1.187-2.609-.013-2.572 1.8-5.719 4.053-7.017 1.127-.649 2.155-.71 2.89-.281l.588.356z" class="color616173 svgShape"></path><path fill="#4f4756" d="M87.173 23.433c.012 1.514-.612 3.212-1.594 4.621l-.37-.219c.867-1.236 1.433-2.762 1.421-4.09a4.51 4.51 0 0 0-.034-.566 3.437 3.437 0 0 0-.104-.497c-.012-.011-.012-.023-.012-.046-.046-.139-.104-.254-.162-.382a2.58 2.58 0 0 0-.23-.346 1.372 1.372 0 0 0-.29-.29 1.559 1.559 0 0 0-.323-.207c-.046-.012-.104-.035-.15-.046-.612-.22-1.387-.116-2.23.37-1.953 1.12-3.524 3.847-3.524 6.088.012 2.034 1.329 2.947 3.039 2.242h.011l.578.335a.35.35 0 0 1-.08.058c-2.242 1.294-4.068.242-4.08-2.334-.01-2.565 1.803-5.72 4.056-7.013 2.241-1.295 4.078-.254 4.078 2.322z" class="color474756 svgShape"></path><path fill="#c5d1dd" d="m93.227 36.167-.529 2.657-4.425-2.553.529-2.658z" class="colorc5d4dd svgShape"></path><path fill="#6822a2" d="m87.275 33.91.551.33c.526.303 1.23.303 2.01-.016l-.552-.318c-.78.318-1.484.316-2.009.003zm6.577-6.008c.012 1.329-.555 2.854-1.433 4.09h-.011l-.543-.323c.866-1.237 1.444-2.762 1.432-4.09 0-.948-.288-1.653-.762-2.057-.081-.081-.173-.139-.266-.196l.416.242c.116.058.231.127.324.208.104.081.208.174.288.289.081.104.162.22.231.347.058.127.116.242.162.381 0 .023 0 .035.012.046.046.162.08.324.104.497.034.173.046.37.046.566z" class="color616173 svgShape"></path><path fill="#6822a2" d="M93.239 25.02c-.747-.428-1.8-.405-2.927.244-2.24 1.298-4.053 4.445-4.053 7.016.012 1.286.465 2.192 1.188 2.621l-.552-.33c-.734-.417-1.187-1.323-1.187-2.609-.013-2.571 1.8-5.719 4.053-7.016 1.127-.65 2.155-.71 2.89-.282l.588.356z" class="color616173 svgShape"></path><path fill="#4f4756" d="M94.383 27.59c.012 1.514-.612 3.212-1.594 4.622l-.37-.22c.867-1.236 1.433-2.761 1.421-4.09a4.51 4.51 0 0 0-.034-.566 3.437 3.437 0 0 0-.104-.497c-.012-.011-.012-.023-.012-.046-.046-.139-.104-.254-.162-.381a2.58 2.58 0 0 0-.23-.347 1.373 1.373 0 0 0-.29-.289 1.56 1.56 0 0 0-.323-.208c-.046-.011-.104-.034-.15-.046-.612-.22-1.387-.115-2.23.37-1.953 1.12-3.524 3.847-3.524 6.089.012 2.033 1.329 2.946 3.039 2.24h.011l.578.336a.35.35 0 0 1-.08.058c-2.242 1.294-4.068.242-4.08-2.334-.01-2.565 1.803-5.719 4.056-7.013 2.241-1.294 4.078-.254 4.078 2.322z" class="color474756 svgShape"></path><path fill="#6822a2" d="m89.76 35.35.552.331c.525.303 1.23.303 2.009-.016l-.552-.318c-.778.318-1.483.317-2.008.004zm6.578-6.007c.011 1.329-.555 2.854-1.433 4.09h-.012l-.543-.323c.867-1.237 1.445-2.762 1.433-4.09 0-.948-.289-1.652-.763-2.057-.08-.08-.173-.138-.265-.196l.416.242c.115.058.23.128.323.208.104.081.208.174.289.29.08.103.162.219.231.346.058.127.116.242.162.381 0 .023 0 .035.011.046.047.162.081.324.104.497.035.173.047.37.047.566z" class="color616173 svgShape"></path><path fill="#6822a2" d="M95.724 26.461c-.747-.428-1.8-.405-2.926.244-2.241 1.298-4.054 4.445-4.054 7.017.013 1.285.466 2.192 1.188 2.62l-.55-.33c-.736-.417-1.189-1.323-1.189-2.609-.012-2.571 1.8-5.719 4.054-7.016 1.126-.65 2.155-.71 2.89-.282l.587.356z" class="color616173 svgShape"></path><path fill="#4f4756" d="M96.869 29.031c.012 1.514-.612 3.212-1.594 4.622l-.37-.22c.867-1.236 1.433-2.761 1.421-4.09 0-.196-.012-.381-.035-.566a3.438 3.438 0 0 0-.104-.497c-.011-.011-.011-.023-.011-.046-.046-.139-.104-.254-.162-.381a2.579 2.579 0 0 0-.231-.347 1.373 1.373 0 0 0-.289-.289 1.559 1.559 0 0 0-.323-.208c-.047-.011-.104-.034-.15-.046-.613-.22-1.387-.115-2.23.37-1.953 1.12-3.524 3.847-3.524 6.089.011 2.033 1.328 2.946 3.038 2.241h.012l.578.335a.35.35 0 0 1-.081.058c-2.242 1.294-4.067.243-4.079-2.334-.011-2.565 1.803-5.719 4.056-7.013 2.241-1.294 4.078-.254 4.078 2.322z" class="color474756 svgShape"></path><path fill="#c5d1dd" d="m102.922 41.765-.529 2.657-4.425-2.553.529-2.657z" class="colorc5d4dd svgShape"></path><path fill="#6822a2" d="m96.97 39.508.552.33c.525.303 1.23.303 2.009-.016l-.552-.318c-.778.318-1.483.317-2.008.004zm6.578-6.008c.011 1.329-.555 2.854-1.433 4.09h-.012l-.543-.323c.867-1.236 1.445-2.762 1.433-4.09 0-.948-.289-1.652-.763-2.057-.08-.08-.173-.138-.265-.196l.416.242c.115.058.23.128.323.208.104.081.208.174.289.29.08.103.162.219.231.346.058.127.116.242.162.381 0 .023 0 .035.011.046.047.162.081.324.104.497.035.173.047.37.047.566z" class="color616173 svgShape"></path><path fill="#6822a2" d="M102.934 30.619c-.747-.429-1.8-.406-2.926.243-2.241 1.298-4.054 4.445-4.054 7.017.013 1.286.466 2.192 1.188 2.62l-.55-.33c-.736-.416-1.189-1.323-1.189-2.608-.012-2.572 1.8-5.72 4.054-7.017 1.126-.65 2.155-.71 2.89-.282l.587.357z" class="color616173 svgShape"></path><path fill="#4f4756" d="M104.079 33.188c.012 1.514-.612 3.212-1.594 4.622l-.37-.22c.866-1.236 1.433-2.761 1.421-4.09a4.51 4.51 0 0 0-.035-.566 3.437 3.437 0 0 0-.104-.496c-.011-.012-.011-.024-.011-.047-.046-.139-.104-.254-.162-.381a2.58 2.58 0 0 0-.231-.347 1.373 1.373 0 0 0-.289-.289 1.559 1.559 0 0 0-.323-.208c-.047-.011-.104-.034-.15-.046-.613-.22-1.387-.115-2.23.37-1.953 1.12-3.524 3.847-3.524 6.089.011 2.033 1.328 2.946 3.038 2.241h.012l.578.335a.35.35 0 0 1-.081.058c-2.242 1.294-4.067.243-4.079-2.334-.011-2.565 1.803-5.719 4.056-7.013 2.241-1.294 4.078-.254 4.078 2.322z" class="color474756 svgShape"></path><path fill="#6822a2" d="m99.456 40.949.551.33c.526.303 1.23.303 2.01-.015l-.552-.319c-.779.319-1.483.317-2.009.004zm6.577-6.008c.012 1.329-.554 2.854-1.432 4.09h-.012l-.543-.323c.866-1.236 1.444-2.762 1.433-4.09 0-.948-.29-1.652-.763-2.057-.08-.08-.173-.138-.266-.196l.416.243c.116.057.231.127.324.207.104.081.208.174.289.29.08.103.161.219.23.346.058.127.116.243.162.381 0 .023 0 .035.012.047.046.161.08.323.104.496.035.174.046.37.046.566z" class="color616173 svgShape"></path><path fill="#6822a2" d="M105.42 32.06c-.747-.429-1.8-.406-2.927.243-2.24 1.298-4.053 4.445-4.053 7.017.012 1.286.465 2.192 1.188 2.62l-.551-.33c-.735-.416-1.188-1.323-1.188-2.608-.012-2.572 1.8-5.72 4.053-7.017 1.127-.65 2.155-.71 2.89-.282l.588.357z" class="color616173 svgShape"></path><path fill="#4f4756" d="M106.565 34.63c.011 1.513-.613 3.211-1.595 4.621l-.37-.22c.867-1.236 1.433-2.761 1.422-4.09 0-.196-.012-.38-.035-.566a3.437 3.437 0 0 0-.104-.496c-.012-.012-.012-.024-.012-.047-.046-.138-.104-.254-.161-.381a2.58 2.58 0 0 0-.231-.347 1.373 1.373 0 0 0-.29-.289 1.56 1.56 0 0 0-.323-.207c-.046-.012-.104-.035-.15-.047-.612-.22-1.386-.115-2.23.37-1.952 1.12-3.524 3.848-3.524 6.089.012 2.033 1.329 2.946 3.039 2.241h.011l.578.335a.35.35 0 0 1-.08.058c-2.242 1.294-4.068.243-4.08-2.334-.01-2.565 1.803-5.719 4.056-7.013 2.242-1.294 4.079-.254 4.079 2.322z" class="color474756 svgShape"></path><path fill="#c5d1dd" d="m112.618 47.363-.529 2.658-4.425-2.554.529-2.657z" class="colorc5d4dd svgShape"></path><path fill="#6822a2" d="m106.666 45.106.551.33c.526.303 1.23.303 2.01-.015l-.552-.318c-.779.318-1.483.316-2.009.003zm6.577-6.007c.012 1.328-.554 2.853-1.432 4.09h-.012l-.543-.324c.866-1.236 1.444-2.761 1.433-4.09 0-.947-.29-1.652-.763-2.057-.08-.08-.173-.138-.266-.196l.416.243c.116.058.231.127.324.208.104.08.208.173.289.288.08.105.161.22.23.347.058.127.116.243.162.382 0 .023 0 .034.012.046.046.161.08.323.104.497.035.173.046.37.046.566z" class="color616173 svgShape"></path><path fill="#6822a2" d="M112.63 36.217c-.747-.429-1.8-.406-2.927.243-2.24 1.298-4.053 4.446-4.053 7.017.012 1.286.465 2.192 1.188 2.62l-.551-.33c-.735-.416-1.188-1.323-1.188-2.608-.012-2.572 1.8-5.72 4.053-7.017 1.127-.649 2.155-.71 2.89-.282l.588.357z" class="color616173 svgShape"></path><path fill="#4f4756" d="M113.775 38.787c.011 1.513-.613 3.212-1.595 4.621l-.37-.22c.867-1.236 1.433-2.76 1.422-4.09a4.51 4.51 0 0 0-.035-.565 3.437 3.437 0 0 0-.104-.497c-.012-.012-.012-.023-.012-.046-.046-.14-.104-.255-.161-.382a2.58 2.58 0 0 0-.231-.347 1.372 1.372 0 0 0-.29-.288 1.559 1.559 0 0 0-.323-.208c-.046-.012-.104-.035-.15-.047-.612-.219-1.386-.115-2.23.37-1.952 1.121-3.524 3.848-3.524 6.09.012 2.033 1.329 2.945 3.039 2.24h.011l.578.336a.35.35 0 0 1-.08.057c-2.242 1.294-4.068.243-4.08-2.333-.01-2.565 1.803-5.72 4.056-7.014 2.242-1.294 4.079-.254 4.079 2.323z" class="color474756 svgShape"></path><path fill="#6822a2" d="m109.152 46.547.551.33c.525.304 1.23.304 2.01-.015l-.552-.318c-.78.318-1.484.316-2.01.003zm6.577-6.007c.011 1.328-.555 2.853-1.433 4.09h-.011l-.543-.324c.866-1.236 1.444-2.761 1.432-4.09 0-.947-.289-1.652-.762-2.056-.081-.081-.174-.139-.266-.197l.416.243c.115.058.231.127.323.208.104.08.208.173.29.289.08.104.161.22.23.346.058.127.116.243.162.382 0 .023 0 .034.012.046.046.162.08.323.104.497.034.173.046.37.046.566z" class="color616173 svgShape"></path><path fill="#6822a2" d="M115.116 37.658c-.747-.428-1.8-.405-2.927.243-2.241 1.298-4.053 4.446-4.053 7.017.012 1.286.465 2.192 1.187 2.62l-.55-.33c-.735-.416-1.189-1.322-1.189-2.608-.012-2.572 1.8-5.719 4.054-7.017 1.126-.649 2.155-.71 2.89-.281l.588.356z" class="color616173 svgShape"></path><path fill="#4f4756" d="M116.26 40.228c.012 1.513-.612 3.212-1.594 4.621l-.37-.22c.867-1.236 1.433-2.76 1.421-4.09a4.51 4.51 0 0 0-.034-.565 3.437 3.437 0 0 0-.104-.497c-.012-.012-.012-.023-.012-.046-.046-.14-.104-.255-.162-.382a2.58 2.58 0 0 0-.23-.346 1.373 1.373 0 0 0-.29-.29 1.56 1.56 0 0 0-.323-.207c-.046-.012-.104-.035-.15-.046-.613-.22-1.387-.116-2.23.37-1.953 1.12-3.524 3.847-3.524 6.088.012 2.034 1.329 2.946 3.039 2.242h.011l.578.335a.35.35 0 0 1-.081.058c-2.241 1.293-4.067.242-4.079-2.334-.011-2.565 1.803-5.72 4.056-7.014 2.241-1.294 4.078-.254 4.078 2.323z" class="color474756 svgShape"></path><path fill="#c5d1dd" d="m122.313 52.962-.529 2.657-4.425-2.553.529-2.658z" class="colorc5d4dd svgShape"></path><path fill="#6822a2" d="m116.362 50.704.55.33c.526.304 1.231.304 2.01-.015l-.551-.318c-.78.318-1.484.316-2.01.003zm6.577-6.007c.011 1.328-.555 2.854-1.433 4.09h-.011l-.543-.324c.866-1.236 1.444-2.761 1.432-4.09 0-.947-.289-1.652-.762-2.056-.081-.081-.174-.139-.266-.197l.416.243c.115.058.231.127.323.208.104.08.208.173.29.289.08.104.161.22.23.346.058.128.116.243.162.382 0 .023 0 .034.012.046.046.162.08.324.104.497.034.173.046.37.046.566z" class="color616173 svgShape"></path><path fill="#6822a2" d="M122.326 41.815c-.747-.428-1.8-.405-2.927.243-2.241 1.299-4.053 4.446-4.053 7.017.012 1.286.465 2.192 1.187 2.621l-.55-.33c-.735-.417-1.189-1.323-1.189-2.609-.012-2.572 1.8-5.719 4.054-7.017 1.126-.649 2.155-.71 2.89-.281l.588.356z" class="color616173 svgShape"></path><path fill="#4f4756" d="M123.47 44.385c.012 1.514-.612 3.212-1.594 4.621l-.37-.219c.867-1.236 1.433-2.762 1.421-4.09 0-.196-.011-.381-.034-.566a3.438 3.438 0 0 0-.104-.497c-.012-.012-.012-.023-.012-.046-.046-.139-.104-.254-.162-.382a2.579 2.579 0 0 0-.23-.346 1.373 1.373 0 0 0-.29-.29 1.559 1.559 0 0 0-.323-.207c-.046-.012-.104-.035-.15-.046-.613-.22-1.387-.116-2.23.37-1.953 1.12-3.524 3.847-3.524 6.088.012 2.034 1.329 2.947 3.039 2.242h.011l.578.335a.35.35 0 0 1-.081.058c-2.241 1.294-4.067.242-4.079-2.334-.011-2.565 1.803-5.72 4.056-7.013 2.241-1.295 4.078-.255 4.078 2.322z" class="color474756 svgShape"></path><path fill="#6822a2" d="m118.848 52.145.55.33c.526.304 1.23.304 2.01-.015l-.552-.318c-.779.318-1.483.316-2.008.003zm6.576-6.007c.012 1.329-.554 2.854-1.432 4.09h-.012l-.543-.323c.867-1.237 1.444-2.762 1.433-4.09 0-.948-.29-1.653-.763-2.057-.08-.081-.173-.139-.265-.196l.415.242c.116.058.232.127.324.208.104.081.208.174.289.289.08.104.162.22.23.347.059.127.116.242.163.38 0 .024 0 .036.011.047.046.162.081.324.104.497.035.173.046.37.046.566z" class="color616173 svgShape"></path><path fill="#6822a2" d="M124.811 43.256c-.747-.428-1.8-.405-2.927.244-2.24 1.298-4.053 4.445-4.053 7.016.012 1.286.465 2.192 1.188 2.621l-.551-.33c-.735-.417-1.188-1.323-1.188-2.609-.012-2.571 1.8-5.719 4.053-7.017 1.127-.649 2.156-.71 2.89-.281l.588.356z" class="color616173 svgShape"></path><path fill="#4f4756" d="M125.956 45.826c.011 1.514-.612 3.212-1.595 4.622l-.37-.22c.867-1.236 1.433-2.761 1.422-4.09a4.51 4.51 0 0 0-.035-.566 3.437 3.437 0 0 0-.104-.497c-.011-.011-.011-.023-.011-.046-.047-.139-.104-.254-.162-.381a2.58 2.58 0 0 0-.231-.347 1.373 1.373 0 0 0-.29-.289 1.559 1.559 0 0 0-.323-.208c-.046-.011-.104-.035-.15-.046-.612-.22-1.386-.115-2.23.37-1.952 1.12-3.523 3.847-3.523 6.089.011 2.033 1.328 2.946 3.038 2.24h.012l.577.336a.35.35 0 0 1-.08.058c-2.242 1.294-4.067.242-4.079-2.334-.012-2.565 1.802-5.72 4.055-7.013 2.242-1.294 4.079-.254 4.079 2.322z" class="color474756 svgShape"></path><path fill="#c5d1dd" d="m132.009 58.56-.529 2.657-4.425-2.553.529-2.657z" class="colorc5d4dd svgShape"></path><path fill="#6822a2" d="m126.058 56.302.55.331c.526.303 1.23.303 2.01-.016l-.552-.318c-.779.318-1.483.317-2.008.003zm6.576-6.007c.012 1.329-.554 2.854-1.432 4.09h-.012l-.543-.323c.867-1.237 1.444-2.762 1.433-4.09 0-.948-.29-1.652-.763-2.057-.08-.08-.173-.138-.265-.196l.415.242c.116.058.232.128.324.208.104.081.208.174.289.289.08.104.162.22.23.347.059.127.116.242.163.381 0 .023 0 .035.011.046.046.162.081.324.104.497.035.173.046.37.046.566z" class="color616173 svgShape"></path><path fill="#6822a2" d="M132.021 47.413c-.747-.428-1.8-.405-2.927.244-2.24 1.298-4.053 4.445-4.053 7.017.012 1.285.465 2.192 1.188 2.62l-.551-.33c-.735-.417-1.188-1.323-1.188-2.609-.012-2.571 1.8-5.719 4.053-7.016 1.127-.65 2.156-.71 2.89-.282l.588.356z" class="color616173 svgShape"></path><path fill="#4f4756" d="M133.166 49.983c.011 1.514-.612 3.212-1.595 4.622l-.37-.22c.867-1.236 1.433-2.761 1.422-4.09a4.51 4.51 0 0 0-.035-.566 3.437 3.437 0 0 0-.104-.497c-.011-.011-.011-.023-.011-.046-.047-.139-.104-.254-.162-.381a2.58 2.58 0 0 0-.231-.347 1.372 1.372 0 0 0-.29-.289 1.559 1.559 0 0 0-.323-.208c-.046-.011-.104-.034-.15-.046-.612-.22-1.386-.115-2.23.37-1.952 1.12-3.523 3.847-3.523 6.089.011 2.033 1.328 2.946 3.038 2.241h.012l.577.335a.35.35 0 0 1-.08.058c-2.242 1.294-4.067.243-4.079-2.334-.012-2.565 1.802-5.719 4.055-7.013 2.242-1.294 4.079-.254 4.079 2.322z" class="color474756 svgShape"></path><path fill="#6822a2" d="m128.543 57.744.551.33c.526.303 1.23.303 2.01-.016l-.552-.318c-.78.318-1.484.317-2.009.004zm6.577-6.008c.012 1.329-.555 2.854-1.433 4.09h-.011l-.543-.323c.866-1.237 1.444-2.762 1.432-4.09 0-.948-.288-1.652-.762-2.057-.081-.08-.173-.138-.266-.196l.416.242c.116.058.231.128.324.208.104.081.208.174.288.29.081.103.162.219.231.346.058.127.116.242.162.381 0 .023 0 .035.012.046.046.162.08.324.104.497.034.173.046.37.046.566z" class="color616173 svgShape"></path><path fill="#6822a2" d="M134.507 48.854c-.747-.428-1.8-.405-2.927.244-2.24 1.298-4.053 4.445-4.053 7.017.012 1.286.465 2.192 1.188 2.62l-.552-.33c-.734-.416-1.187-1.323-1.187-2.608-.013-2.572 1.8-5.72 4.053-7.017 1.127-.65 2.155-.71 2.89-.282l.588.356z" class="color616173 svgShape"></path><path fill="#4f4756" d="M135.651 51.424c.012 1.514-.612 3.212-1.594 4.622l-.37-.22c.867-1.236 1.433-2.761 1.421-4.09a4.51 4.51 0 0 0-.034-.566 3.437 3.437 0 0 0-.104-.497c-.012-.011-.012-.023-.012-.046-.046-.139-.104-.254-.162-.381a2.58 2.58 0 0 0-.23-.347 1.373 1.373 0 0 0-.29-.289 1.56 1.56 0 0 0-.323-.208c-.046-.011-.104-.034-.15-.046-.613-.22-1.387-.115-2.23.37-1.953 1.12-3.524 3.847-3.524 6.089.012 2.033 1.329 2.946 3.039 2.241h.011l.578.335a.35.35 0 0 1-.08.058c-2.242 1.294-4.068.243-4.08-2.334-.01-2.565 1.803-5.719 4.056-7.013 2.241-1.294 4.078-.254 4.078 2.322z" class="color474756 svgShape"></path><path fill="#c5d1dd" d="m141.705 64.158-.529 2.657-4.425-2.553.528-2.657z" class="colorc5d4dd svgShape"></path><path fill="#6822a2" d="m135.753 61.9.551.331c.526.303 1.23.303 2.01-.015l-.552-.319c-.78.319-1.484.317-2.009.004zm6.577-6.007c.012 1.329-.555 2.854-1.433 4.09h-.011l-.543-.323c.866-1.236 1.444-2.762 1.432-4.09 0-.948-.288-1.652-.762-2.057-.081-.08-.173-.138-.266-.196l.416.243c.116.057.231.127.324.207.104.081.208.174.288.29.081.103.162.219.231.346.058.127.116.243.162.381 0 .023 0 .035.012.047.046.161.08.323.104.496.034.174.046.37.046.566z" class="color616173 svgShape"></path><path fill="#6822a2" d="M141.717 53.012c-.747-.429-1.8-.406-2.927.243-2.24 1.298-4.053 4.445-4.053 7.017.012 1.286.465 2.192 1.188 2.62l-.552-.33c-.734-.416-1.187-1.323-1.187-2.608-.013-2.572 1.8-5.72 4.053-7.017 1.127-.65 2.155-.71 2.89-.282l.588.357z" class="color616173 svgShape"></path><path fill="#4f4756" d="M142.861 55.581c.012 1.514-.612 3.212-1.594 4.622l-.37-.22c.867-1.236 1.433-2.761 1.421-4.09a4.51 4.51 0 0 0-.034-.566 3.439 3.439 0 0 0-.104-.496c-.012-.012-.012-.024-.012-.047-.046-.138-.104-.254-.162-.381a2.58 2.58 0 0 0-.23-.347 1.372 1.372 0 0 0-.29-.289 1.56 1.56 0 0 0-.323-.207c-.046-.012-.104-.035-.15-.047-.613-.22-1.387-.115-2.23.37-1.953 1.12-3.524 3.848-3.524 6.089.012 2.033 1.329 2.946 3.039 2.241h.011l.578.335a.35.35 0 0 1-.08.058c-2.242 1.294-4.068.243-4.08-2.334-.01-2.565 1.803-5.719 4.056-7.013 2.241-1.294 4.078-.254 4.078 2.322z" class="color474756 svgShape"></path><path fill="#6822a2" d="m138.239 63.342.55.33c.526.303 1.23.303 2.01-.015l-.552-.319c-.779.319-1.483.317-2.008.004zm6.577-6.007c.011 1.328-.555 2.853-1.433 4.09h-.012l-.543-.324c.867-1.236 1.445-2.761 1.433-4.09 0-.947-.289-1.652-.763-2.057-.08-.08-.173-.138-.265-.196l.416.243c.115.058.23.127.323.208.104.08.208.173.289.288.08.105.162.22.231.347.058.127.116.243.162.381 0 .024 0 .035.011.047.047.161.081.323.104.496.035.174.047.37.047.567z" class="color616173 svgShape"></path><path fill="#6822a2" d="M144.202 54.453c-.747-.429-1.8-.406-2.926.243-2.241 1.298-4.054 4.445-4.054 7.017.012 1.286.466 2.192 1.188 2.62l-.551-.33c-.735-.416-1.188-1.323-1.188-2.608-.012-2.572 1.8-5.72 4.054-7.017 1.126-.649 2.155-.71 2.89-.282l.587.357z" class="color616173 svgShape"></path><path fill="#4f4756" d="M145.347 57.023c.012 1.513-.612 3.212-1.594 4.621l-.37-.22c.866-1.236 1.433-2.76 1.421-4.09a4.51 4.51 0 0 0-.035-.566 3.437 3.437 0 0 0-.104-.496c-.011-.012-.011-.023-.011-.047-.046-.138-.104-.254-.162-.38a2.581 2.581 0 0 0-.231-.348 1.373 1.373 0 0 0-.289-.288 1.56 1.56 0 0 0-.323-.208c-.047-.012-.104-.035-.15-.047-.613-.219-1.387-.115-2.23.37-1.953 1.12-3.524 3.848-3.524 6.089.011 2.034 1.328 2.946 3.038 2.241h.012l.578.336a.35.35 0 0 1-.081.057c-2.242 1.294-4.067.243-4.079-2.334-.011-2.564 1.803-5.719 4.056-7.013 2.241-1.294 4.078-.254 4.078 2.323z" class="color474756 svgShape"></path><path fill="#c5d1dd" d="m151.4 69.756-.529 2.658-4.425-2.554.529-2.657z" class="colorc5d4dd svgShape"></path><path fill="#6822a2" d="m145.449 67.499.55.33c.526.304 1.23.304 2.01-.015l-.552-.318c-.779.318-1.483.316-2.008.003zm6.577-6.007c.011 1.328-.555 2.853-1.433 4.09h-.012l-.543-.324c.867-1.236 1.445-2.761 1.433-4.09 0-.947-.289-1.652-.763-2.056-.08-.081-.173-.139-.265-.197l.416.243c.115.058.23.127.323.208.104.08.208.173.289.289.08.104.162.219.231.346.058.127.116.243.162.382 0 .023 0 .034.011.046.047.161.081.323.104.497.035.173.047.37.047.566z" class="color616173 svgShape"></path><path fill="#6822a2" d="M151.412 58.61c-.747-.429-1.8-.405-2.926.243-2.241 1.298-4.054 4.446-4.054 7.017.012 1.286.466 2.192 1.188 2.62l-.551-.33c-.735-.416-1.188-1.322-1.188-2.608-.012-2.572 1.8-5.719 4.054-7.017 1.126-.649 2.155-.71 2.89-.281l.587.356z" class="color616173 svgShape"></path><path fill="#4f4756" d="M152.557 61.18c.012 1.513-.612 3.212-1.594 4.621l-.37-.22c.866-1.236 1.433-2.76 1.421-4.09a4.51 4.51 0 0 0-.035-.565 3.437 3.437 0 0 0-.104-.497c-.011-.012-.011-.023-.011-.046-.046-.14-.104-.255-.162-.382a2.58 2.58 0 0 0-.231-.346 1.372 1.372 0 0 0-.289-.29 1.56 1.56 0 0 0-.323-.207c-.047-.012-.104-.035-.15-.046-.613-.22-1.387-.116-2.23.37-1.953 1.12-3.524 3.847-3.524 6.088.011 2.034 1.328 2.946 3.038 2.242h.012l.578.335a.35.35 0 0 1-.081.057c-2.242 1.294-4.067.243-4.079-2.333-.011-2.565 1.803-5.72 4.056-7.014 2.241-1.294 4.078-.254 4.078 2.323z" class="color474756 svgShape"></path><path fill="#6822a2" d="m147.934 68.94.551.33c.526.304 1.23.304 2.01-.015l-.552-.318c-.779.318-1.483.316-2.009.003zm6.577-6.007c.012 1.328-.554 2.854-1.432 4.09h-.012l-.543-.324c.866-1.236 1.444-2.761 1.433-4.09 0-.947-.29-1.652-.763-2.056-.08-.081-.173-.139-.266-.197l.416.243c.116.058.231.127.324.208.104.08.208.173.289.289.08.104.161.22.23.346.058.128.116.243.162.382 0 .023 0 .034.012.046.046.162.08.324.104.497.035.173.046.37.046.566z" class="color616173 svgShape"></path><path fill="#6822a2" d="M153.898 60.051c-.747-.428-1.8-.405-2.927.243-2.24 1.299-4.053 4.446-4.053 7.017.012 1.286.465 2.192 1.188 2.62l-.551-.33c-.735-.416-1.188-1.322-1.188-2.608-.012-2.572 1.8-5.719 4.053-7.017 1.127-.649 2.155-.71 2.89-.281l.588.356z" class="color616173 svgShape"></path><path fill="#4f4756" d="M155.043 62.62c.011 1.514-.613 3.213-1.595 4.622l-.37-.22c.867-1.235 1.433-2.76 1.422-4.09a4.51 4.51 0 0 0-.035-.565 3.437 3.437 0 0 0-.104-.497c-.012-.012-.012-.023-.012-.046-.046-.14-.104-.254-.161-.382a2.58 2.58 0 0 0-.231-.346 1.372 1.372 0 0 0-.29-.29 1.559 1.559 0 0 0-.323-.207c-.046-.012-.104-.035-.15-.046-.612-.22-1.386-.116-2.23.37-1.952 1.12-3.524 3.847-3.524 6.088.012 2.034 1.329 2.947 3.039 2.242h.011l.578.335a.351.351 0 0 1-.08.058c-2.242 1.293-4.068.242-4.08-2.334-.01-2.565 1.803-5.72 4.056-7.013 2.242-1.295 4.079-.255 4.079 2.322z" class="color474756 svgShape"></path><path fill="#c5d1dd" d="m140.532 75.69-9.472-5.468-9.479-5.472-9.471-5.469-9.48-5.472-9.471-5.469-9.472-5.468-9.479-5.473-9.471-5.468-2.661 12.875-2.447 11.836-2.446 11.835-2.446 11.835.213-1.031-.213 1.031-2.446 11.835 9.472 5.469.826.477 8.653 4.996.819.472 8.652 4.996.213-1.031-8.652-4.996 2.233-10.804 8.652 4.996.214-1.032-8.653-4.995 2.233-10.804 8.653 4.995-2.233 10.804-2.66 12.867.827.477 8.645 4.991.213-1.03-8.645-4.992 2.233-10.804 8.645 4.99-2.446 11.836.826.477 8.653 4.996.819.473 8.653 4.995.826.477 8.653 4.996.818.473 8.653 4.996.826.477 9.472 5.468 2.66-12.866 2.447-11.845 2.446-11.835 2.446-11.835 2.447-11.836-10.298-5.945zm-8.866-3.964 8.653 4.996-2.233 10.804-8.653-4.995 2.233-10.805zm-52.87-5.184-8.654-4.995 2.231-10.795 8.653 4.995-2.23 10.795zm47.372 27.351-8.653-4.996 2.231-10.794 8.653 4.995-2.231 10.795zm-9.479-5.473-8.653-4.995 2.231-10.795 8.653 4.996-2.231 10.794zm-18.34-9.423 8.653 4.995-2.23 10.795-8.654-4.996 2.231-10.794zm9.472 5.468 8.653 4.996-2.231 10.794-8.653-4.995 2.231-10.795zm-.604-1.513-8.652-4.996 2.23-10.794 8.653 4.995-2.23 10.795zm-9.479-5.473-8.645-4.991 2.231-10.795 8.645 4.991-2.23 10.795zm-9.471-5.468-8.653-4.996 2.231-10.795 8.653 4.996-2.231 10.795zm.61 1.517 8.646 4.992-2.23 10.794-8.646-4.991 2.23-10.795zm7.026 17.304 8.653 4.996-2.233 10.803.819.473 2.233-10.804 8.653 4.996-2.233 10.804-8.653-4.996-.819-.473-8.653-4.995 2.233-10.804zm16.718 21.745 2.233-10.804 8.653 4.996-2.233 10.804-8.653-4.996-.35-.202.35.202zm2.448-11.844 2.231-10.795 8.653 4.996-2.231 10.794-8.653-4.995zm11.703-5.327 8.652 4.996-2.23 10.795-8.653-4.996 2.23-10.795zm.215-1.04 2.23-10.795 8.654 4.996-2.231 10.794-8.653-4.995zm-4.793-28.108 8.653 4.996-2.233 10.804-8.653-4.996 2.233-10.804zm-9.479-5.473 8.653 4.996-2.233 10.804-8.653-4.996 2.233-10.804zm-9.471-5.468 8.652 4.996-2.233 10.804-8.652-4.996 2.233-10.804zm-9.472-5.469 8.645 4.992-2.233 10.804-8.645-4.992 2.233-10.804zm-9.479-5.472 8.653 4.995-2.233 10.804-8.653-4.995 2.233-10.804zm-9.472-5.469 8.653 4.996-2.233 10.804-8.653-4.996 2.233-10.804zm-9.479-5.472 8.653 4.995-2.233 10.804-8.653-4.995 2.233-10.804zm-2.448 11.844 8.653 4.996-2.23 10.795-8.654-4.996 2.231-10.795zm-2.446 11.835 8.653 4.996-2.231 10.795-8.653-4.996 2.231-10.795zm13.453 33.108-8.653-4.996 2.233-10.804 8.653 4.996-2.233 10.804zM58.002 68.949l8.653 4.996-2.233 10.804-8.653-4.995 2.233-10.805zm3.974 27.636-8.653-4.996 2.233-10.804 8.653 4.996-2.233 10.804zm9.479 5.472-8.653-4.995 2.233-10.805 8.653 4.996.213-1.03-2.446 11.834zm-3.759-28.675 2.231-10.795 8.653 4.996-2.231 10.795-8.653-4.996zm9.472 5.468 2.23-10.795 8.654 4.996-2.231 10.795-8.653-4.996zm7.03 17.317 2.234-10.804 8.645 4.992-2.233 10.804-8.645-4.992zm15.68 22.3-8.654-4.996 2.233-10.804 8.653 4.996-2.233 10.804zm9.47 5.468-8.652-4.996 2.233-10.804 8.653 4.996.213-1.031-2.446 11.835zm9.48 5.473-8.653-4.996 2.233-10.804 8.653 4.996-2.233 10.804zm9.471 5.468-8.653-4.995 2.233-10.804 8.653 4.995.213-1.03-8.652-4.997 2.233-10.804 8.652 4.996-2.233 10.804-2.446 11.835zm9.48 5.473-8.654-4.996 2.233-10.804 8.653 4.996-2.233 10.804zm2.445-11.835-8.652-4.996 2.233-10.804 8.652 4.996-2.233 10.804zm2.448-11.845-8.652-4.995 2.23-10.795 8.653 4.996-2.23 10.794zm2.447-11.835-8.653-4.995 2.23-10.795 8.654 4.995-2.231 10.795zM147.565 93l-8.653-4.996 2.233-10.804 8.653 4.996-2.233 10.804z" class="colorc5d4dd svgShape"></path><path fill="#9fcfff" d="M86.965 45.577c.321.185.513.661.43 1.063l-2.016 9.752c-.083.402-.41.579-.73.393L63.59 44.627c-.319-.184-.51-.66-.427-1.062l2.015-9.752c.083-.401.41-.578.729-.394l21.058 12.158z" class="colorff9fd1 svgShape"></path><path fill="#7bbdff" d="m85.506 47.382-.215 1.038-19.074-11.013.214-1.037zM75.41 47.863l-.215 1.038-10.143-5.857.214-1.037zM84.923 50.201l-.214 1.037-19.075-11.012.215-1.038z" class="colorff7bba svgShape"></path><path fill="#5046e4" d="M141.337 103.776c.32.185.513.661.43 1.063l-2.016 9.752c-.083.402-.41.579-.73.393l-21.059-12.158c-.319-.184-.51-.66-.428-1.062l2.016-9.752c.083-.402.41-.578.729-.394l21.058 12.158z" class="color3765c7 svgShape"></path><path fill="#1d13ab" d="m139.878 105.581-.215 1.038-19.074-11.013.214-1.038zM129.781 106.062l-.214 1.038-10.144-5.857.215-1.037zM139.295 108.4l-.214 1.037-19.075-11.013.214-1.037z" class="color1352ab svgShape"></path><path fill="#7caddf" d="m77.168 78.85 2.231-10.795 8.653 4.996-2.231 10.795z" class="color7cdf82 svgShape"></path><path fill="#399cff" d="m138.913 87.999 2.231-10.795 8.653 4.995-2.231 10.795z" class="colorffb839 svgShape"></path><path fill="#6f66f1" d="m110.176 124.403 2.231-10.795 8.653 4.996-2.231 10.795z" class="colorbf66f1 svgShape"></path><path fill="#c5d1dd" d="M114.256 95.107a.313.313 0 0 1 .042.303l-.143.306c-.04.085-.122.11-.199.066l-.976-.66c-.073-.042-.139-.034-.183.016-.08.093-.165.176-.255.25-.053.044-.076.131-.06.222l.244 1.362c.02.114-.02.217-.098.246l-.268.098a.14.14 0 0 1-.118-.015.261.261 0 0 1-.1-.115l-.584-1.238a.257.257 0 0 0-.1-.115.15.15 0 0 0-.073-.021c-.113 0-.228-.011-.343-.031-.068-.013-.129.03-.154.106l-.393 1.148c-.033.096-.117.135-.2.092l-.288-.149a.304.304 0 0 1-.14-.267l.028-1.337a.32.32 0 0 0-.097-.237 3.442 3.442 0 0 1-.298-.299.218.218 0 0 0-.054-.044.134.134 0 0 0-.134-.006l-.874.485c-.042.023-.09.019-.135-.007a.251.251 0 0 1-.089-.092l-.194-.336c-.056-.097-.06-.224-.007-.3l.627-.913a.276.276 0 0 0 .02-.242 4.985 4.985 0 0 1-.136-.451.277.277 0 0 0-.122-.175.18.18 0 0 0-.027-.013l-1.014-.37a.173.173 0 0 1-.027-.012.298.298 0 0 1-.13-.237l-.026-.392c-.007-.114.047-.205.129-.215l.981-.13c.066-.009.116-.069.127-.156.012-.094.029-.188.048-.282l.031-.138c.02-.082 0-.18-.05-.253l-.754-1.08c-.064-.09-.078-.218-.033-.303l.154-.293c.041-.08.12-.102.196-.06l.968.717c.078.047.142.041.186-.005.082-.086.17-.164.263-.231.055-.041.08-.126.068-.217l-.201-1.365c-.017-.115.028-.214.107-.238l.273-.081a.139.139 0 0 1 .11.016c.042.024.08.068.105.125l.548 1.262c.024.057.062.1.104.125.022.012.044.02.067.021.04.002.079.006.12.011.067.008.125-.038.149-.117l.351-1.179c.03-.099.112-.143.196-.104l.29.132a.305.305 0 0 1 .147.26l.018 1.349c0 .09.04.181.102.232.107.087.21.182.307.285a.21.21 0 0 0 .046.037c.048.027.1.028.141.002l.85-.54c.043-.028.095-.025.142.002.03.017.06.046.083.083l.204.327c.06.096.067.223.017.302l-.592.957a.288.288 0 0 0-.01.245c.056.144.107.293.15.445.02.073.065.133.118.164a.172.172 0 0 0 .035.015l1.017.312a.166.166 0 0 1 .034.016c.069.04.121.129.13.226l.04.394c.01.114-.04.209-.122.224l-.968.19c-.065.012-.113.075-.12.162a3.971 3.971 0 0 1-.064.426.326.326 0 0 0 .057.257l.783 1.04zm-3.722-.674c.895.516 1.81.022 2.042-1.105.233-1.127-.304-2.459-1.198-2.975-.895-.517-1.81-.023-2.042 1.104-.233 1.127.304 2.46 1.198 2.976M62.089 91.432a.313.313 0 0 1 .042.303l-.144.306c-.039.084-.121.11-.199.065l-.976-.66c-.072-.042-.139-.034-.183.017-.08.093-.165.175-.255.25-.053.043-.075.13-.06.222l.245 1.361c.02.115-.021.218-.1.246l-.266.098a.14.14 0 0 1-.118-.014.261.261 0 0 1-.1-.116l-.584-1.237a.257.257 0 0 0-.1-.115.15.15 0 0 0-.074-.022c-.113 0-.228-.01-.343-.031-.068-.013-.129.03-.154.106l-.393 1.148c-.033.096-.117.135-.2.092l-.287-.148a.304.304 0 0 1-.14-.267l.027-1.337a.32.32 0 0 0-.097-.237 3.442 3.442 0 0 1-.298-.3.218.218 0 0 0-.053-.044.134.134 0 0 0-.135-.006l-.874.485c-.042.023-.09.02-.135-.006a.251.251 0 0 1-.088-.093l-.195-.335c-.056-.098-.059-.225-.006-.301l.626-.913a.276.276 0 0 0 .02-.242 4.984 4.984 0 0 1-.136-.45.277.277 0 0 0-.121-.175.18.18 0 0 0-.028-.013l-1.013-.37a.173.173 0 0 1-.028-.013.298.298 0 0 1-.13-.236l-.026-.393c-.007-.113.047-.204.129-.215l.981-.13c.066-.008.116-.068.127-.155a3.86 3.86 0 0 1 .048-.282l.031-.139c.02-.082 0-.18-.05-.253l-.754-1.079c-.064-.09-.077-.218-.033-.303l.155-.294c.04-.08.12-.102.195-.059l.968.717c.078.046.142.04.186-.006.083-.086.17-.164.264-.23.054-.042.08-.127.067-.218l-.2-1.365c-.018-.114.028-.214.107-.238l.272-.08a.139.139 0 0 1 .11.016c.043.024.08.068.106.125l.547 1.262c.024.056.062.1.105.125.02.012.043.02.066.02.04.003.079.006.12.011.067.008.126-.037.149-.117l.352-1.179c.029-.098.111-.142.195-.104l.29.133a.305.305 0 0 1 .147.26l.018 1.348c0 .091.04.182.102.232.107.087.21.183.307.285a.21.21 0 0 0 .046.037c.048.028.1.029.142.002l.85-.54c.043-.028.094-.025.141.002.031.018.06.046.083.083l.204.328c.06.095.067.222.017.301l-.592.957a.288.288 0 0 0-.01.245c.056.145.107.294.15.446.02.073.065.133.118.163a.172.172 0 0 0 .035.016l1.017.312a.166.166 0 0 1 .035.015c.068.04.12.129.13.226l.038.395c.011.114-.04.208-.121.224l-.968.189c-.065.012-.112.076-.12.162a3.972 3.972 0 0 1-.064.426.326.326 0 0 0 .057.257l.784 1.04zm-3.722-.675c.894.517 1.809.022 2.042-1.105.232-1.126-.304-2.458-1.2-2.975-.894-.516-1.808-.022-2.04 1.104-.234 1.127.303 2.46 1.198 2.976" class="colorc5d4dd svgShape"></path><path fill="#ff6ce4" d="m96.378 154.261 4.748-2.759 13.176 13.077-4.747 2.759z" class="colorff6c85 svgShape"></path><path fill="#399cff" d="m110.086 149.118 4.747-2.759-.881 14.661-4.748 2.759z" class="colorffb839 svgShape"></path><path fill="#fd54de" d="m109.555 167.338 4.747-2.759 14.202 8.237-4.747 2.758z" class="colorfd546b svgShape"></path><path fill="#ea3dcb" d="m96.378 154.261 13.177 13.077 14.202 8.236c-.326 8.413-6.505 11.712-14.053 7.355-7.751-4.476-13.999-15.309-13.974-24.216.005-1.668.235-3.168.648-4.452z" class="colorea3d5b svgShape"></path><path fill="#5e5466" d="m91.74 173.612 1.92 1.734 19.876-11.476c.375-.216.678-.03.68.387 0 .431-.3.94-.676 1.157l-19.876 11.475-1.904 3.969-7.503 4.331 2.41-5.026-2.43-2.219 7.502-4.332z" class="color545466 svgShape"></path><path fill="#a50b89" d="m124.43 181.146-4.747 2.76c2.39-1.39 3.916-4.262 4.074-8.332l4.747-2.758c-.157 4.069-1.685 6.942-4.074 8.33z" class="colore22951 svgShape"></path><path fill="#88c3ff" d="m114.832 146.352-4.749 2.761-.286-.168c-3.89-2.256-7.426-2.475-9.986-.993l4.75-2.762c2.559-1.482 6.095-1.263 9.985.993l.286.169z" class="colorffe088 svgShape"></path><path fill="#50a7ff" d="m109.796 148.938.29.18-.882 14.661-12.413-12.327c2.102-4.676 7.145-5.897 13.005-2.514z" class="colorffc950 svgShape"></path><path fill="#94c0ed" d="m112.539 150.697 4.747-2.759c6.846 4.782 12.214 14.39 12.482 22.575l-4.747 2.759c-.268-8.185-5.636-17.793-12.482-22.575z" class="color94ed96 svgShape"></path><path fill="#7b75d1" d="M112.539 150.697c6.846 4.782 12.214 14.39 12.482 22.575l-13.375-7.722.893-14.853z" class="color75d178 svgShape"></path><path fill="#c5d1dd" d="m53.418 128.59.011-3.797c0 .038.01.076.03.114l-.011 3.798a.241.241 0 0 1-.03-.114zm17.121-2.828-.01 3.798a.256.256 0 0 1-.082.178l.01-3.798a.256.256 0 0 0 .082-.178z" class="colorc5d4dd svgShape"></path><path fill="#c5d1dd" d="m54.611 127.007-.011 3.798-1.152-2.1.011-3.798z" class="colorc5d4dd svgShape"></path><path fill="#c5d1dd" d="m54.64 127.121-.01 3.798a.236.236 0 0 0-.03-.114l.01-3.798c.021.037.031.076.03.114zM70.458 125.94l-.011 3.798-1.855 1.918.011-3.798z" class="colorc5d4dd svgShape"></path><path fill="#c5d1dd" d="m68.507 131.843.01-3.798c0-.064.029-.128.086-.187l-.01 3.798a.271.271 0 0 0-.086.187zm-20.615.388.01-3.798c0 .101.069.2.195.273a.7.7 0 0 0 .078.039l-.01 3.798a.7.7 0 0 1-.079-.039c-.126-.073-.194-.172-.194-.273z" class="colorc5d4dd svgShape"></path><path fill="#c5d1dd" d="m51.256 130.041-.011 3.798-3.08-1.296.01-3.798z" class="colorc5d4dd svgShape"></path><path fill="#c5d1dd" d="m74.684 129.986-.01 3.798c0 .148-.149.286-.388.35l.01-3.798c.24-.064.388-.202.388-.35zm-23.156.364-.01 3.798c0-.101-.073-.2-.197-.271a.69.69 0 0 0-.076-.038l.01-3.798a.685.685 0 0 1 .077.037c.124.072.196.17.196.272z" class="colorc5d4dd svgShape"></path><path fill="#c5d1dd" d="m74.296 130.336-.01 3.798-3.464.898.01-3.798z" class="colorc5d4dd svgShape"></path><path fill="#c5d1dd" d="m67.184 131.536-.011 3.798c.002-.933-.613-1.866-1.844-2.577-2.448-1.413-6.405-1.413-8.836 0-1.208.701-1.812 1.62-1.814 2.539l.01-3.798c.003-.92.607-1.838 1.814-2.54 2.432-1.412 6.389-1.412 8.836 0 1.232.712 1.847 1.645 1.845 2.578zm3.14 4.63.012-3.798c0-.018.002-.036.006-.054a3.33 3.33 0 0 0 .101-.742c.005-.146.155-.278.39-.338l-.011 3.798c-.235.06-.385.192-.39.338a3.33 3.33 0 0 1-.1.742.224.224 0 0 0-.007.054zm-23.335.284.01-3.798c0 .025.004.05.013.074L47 136.524a.232.232 0 0 1-.012-.074zM47.226 133.351l-.011 3.798-.214-.625.011-3.798zM51.678 133.643l-.011 3.798-3.798.017.011-3.798z" class="colorc5d4dd svgShape"></path><path fill="#c5d1dd" d="m47.88 133.66-.011 3.798a.951.951 0 0 1-.471-.112.39.39 0 0 1-.183-.197l.01-3.798a.39.39 0 0 0 .184.197c.122.07.29.113.47.112zm26.221.564-.01 3.798c0 .049-.017.099-.052.146l.01-3.798a.249.249 0 0 0 .052-.146zm-21.085.49-.01 3.798a.278.278 0 0 0-.105-.206 5.823 5.823 0 0 1-.635-.65.472.472 0 0 0-.126-.102.97.97 0 0 0-.473-.113l.01-3.798c.18 0 .35.041.474.113.05.029.094.064.126.102.185.222.396.44.635.65.07.062.104.134.104.206z" class="colorc5d4dd svgShape"></path><path fill="#c5d1dd" d="m74.05 134.37-.011 3.798-.425.586.01-3.798zM72.876 135.181l-.011 3.798-3.714-.473.011-3.798z" class="colorc5d4dd svgShape"></path><path fill="#c5d1dd" d="m73.624 134.956-.01 3.798c-.123.172-.438.264-.749.225l.011-3.798c.31.039.625-.053.748-.225zm-4.462-.248-.011 3.798c-.248-.032-.507.022-.662.137a7.8 7.8 0 0 1-.833.553l.011-3.798a7.8 7.8 0 0 0 .832-.553c.156-.116.415-.169.663-.137z" class="colorc5d4dd svgShape"></path><path fill="#c5d1dd" d="m67.456 139.47.011-3.798c0-.1.07-.2.2-.274l-.01 3.798c-.13.075-.2.174-.2.275zM58.02 137l-.01 3.798c-.014-.092-.084-.177-.193-.24a.802.802 0 0 0-.233-.086 13.018 13.018 0 0 1-1.174-.308 1.063 1.063 0 0 0-.7.034l.01-3.798c.202-.089.474-.103.701-.034.378.119.772.222 1.174.307.09.02.168.05.233.087.109.063.178.147.192.24zm6.232-.081-.01 3.798a1.027 1.027 0 0 0-.678-.117c-.412.07-.835.121-1.258.157-.25.02-.455.127-.527.269l.011-3.798c.072-.142.276-.249.527-.269.423-.036.846-.087 1.258-.158.234-.038.478.002.677.118zm-13.441 3.86.01-3.798c0 .102.071.206.214.287l-.01 3.798c-.143-.081-.214-.184-.214-.286z" class="colorc5d4dd svgShape"></path><path fill="#c5d1dd" d="m51.846 137.696-.011 3.798-.811-.428.011-3.798zM55.72 136.4l-.01 3.798-3.031 1.32.011-3.798zM52.69 137.72l-.011 3.798a1.05 1.05 0 0 1-.844-.024l.011-3.798c.238.125.588.134.844.024zm16.164.283-.01 3.798c0 .133-.118.26-.322.329l.01-3.798c.205-.07.322-.196.322-.329zM66.785 138.597l-.011 3.798-2.533-1.678.011-3.798z" class="colorc5d4dd svgShape"></path><path fill="#c5d1dd" d="m68.533 138.332-.011 3.798-.945.323.011-3.798z" class="colorc5d4dd svgShape"></path><path fill="#c5d1dd" d="m67.588 138.655-.01 3.798c-.261.089-.59.065-.804-.058l.01-3.798c.214.123.544.147.804.058zM58.335 139.192l-.011 3.798-.314-2.192.01-3.798zM61.79 137.228l-.011 3.798-1.072 2.108.011-3.798z" class="colorc5d4dd svgShape"></path><path fill="#c5d1dd" d="m58.924 139.542-.01 3.798a.925.925 0 0 1-.398-.11c-.108-.063-.18-.147-.192-.24l.01-3.798c.013.093.084.177.193.24.104.06.242.1.397.11z" class="colorc5d4dd svgShape"></path><path fill="#c5d1dd" d="m60.016 139.609-.011 3.798-1.092-.067.011-3.798zM60.718 139.336l-.01 3.798c-.091.178-.384.292-.703.273l.011-3.798c.318.019.612-.095.702-.273z" class="colorc5d4dd svgShape"></path><path fill="#f4f6f8" d="M68.816 137.873c.106.173-.012.366-.283.459l-.945.323c-.26.089-.59.065-.803-.058l-2.533-1.678a1.027 1.027 0 0 0-.677-.118c-.412.07-.835.122-1.258.158-.25.02-.455.127-.527.269l-1.072 2.108c-.09.178-.384.292-.702.273l-1.092-.067a.926.926 0 0 1-.397-.11c-.109-.063-.18-.147-.192-.24L58.02 137c-.014-.093-.083-.177-.192-.24a.802.802 0 0 0-.233-.087 13.008 13.008 0 0 1-1.174-.307 1.063 1.063 0 0 0-.7.034l-3.031 1.32a1.05 1.05 0 0 1-.844-.024l-.811-.428c-.238-.137-.277-.333-.116-.484l1.998-1.869c.134-.125.133-.284-.005-.407a5.823 5.823 0 0 1-.635-.65.472.472 0 0 0-.126-.102.97.97 0 0 0-.473-.113l-3.798.017a.951.951 0 0 1-.471-.112.39.39 0 0 1-.183-.197l-.214-.625c-.06-.18.108-.36.402-.428l3.532-.811c.237-.054.398-.182.413-.328a3.26 3.26 0 0 1 .158-.74c.04-.125-.033-.253-.185-.34a.685.685 0 0 0-.076-.038l-3.08-1.296a.7.7 0 0 1-.079-.039c-.195-.112-.251-.287-.132-.434l.469-.573c.136-.167.46-.255.764-.206l3.677.566c.246.04.51-.008.674-.122a7.733 7.733 0 0 1 .88-.533c.186-.102.258-.257.182-.397l-1.152-2.1c-.093-.175.038-.367.32-.453l.967-.298c.256-.08.57-.052.772.065l2.432 1.754a1 1 0 0 0 .664.134c.418-.058.843-.101 1.269-.126.25-.014.466-.114.546-.255l1.233-2.08c.102-.175.403-.28.716-.253l1.087.093a.919.919 0 0 1 .369.108c.115.067.187.157.194.257l.155 2.2c.006.098.077.19.193.256a.8.8 0 0 0 .208.081c.137.033.272.067.407.105.232.065.505.045.698-.049l2.93-1.399c.245-.114.6-.114.844.005l.84.408c.251.142.3.33.155.48l-1.855 1.918c-.126.13-.112.287.035.406.257.204.484.417.685.635.03.034.069.064.114.09.13.074.311.116.5.109l3.791-.111a.96.96 0 0 1 .502.111c.084.049.146.11.176.18l.26.617c.074.18-.081.364-.37.44l-3.464.899c-.234.06-.384.192-.389.338a3.33 3.33 0 0 1-.1.742c-.031.121.041.24.186.324.03.017.065.033.101.048l3.177 1.217c.036.014.07.03.1.047.186.109.249.275.143.42l-.426.586c-.123.172-.437.264-.748.225l-3.714-.473c-.248-.032-.507.021-.663.137a7.8 7.8 0 0 1-.832.553c-.185.107-.25.264-.16.406l1.309 2.069zm-12.281-3.798c2.447 1.413 6.402 1.415 8.833.002 2.432-1.413 2.419-3.705-.029-5.118-2.447-1.413-6.404-1.413-8.836 0-2.431 1.413-2.416 3.703.032 5.116" class="colore7f1f7 svgShape"></path><path fill="#564c5e" d="m75.524 136.537.008-2.889c0 .03.007.059.022.087l-.008 2.89a.183.183 0 0 1-.022-.088zm13.022-2.15-.008 2.888c0 .047-.02.093-.062.136l.008-2.89a.195.195 0 0 0 .062-.135z" class="color4c4c5e svgShape"></path><path fill="#564c5e" d="m76.431 135.333-.009 2.889-.876-1.598.008-2.889z" class="color4c4c5e svgShape"></path><path fill="#564c5e" d="m76.453 135.42-.008 2.889a.18.18 0 0 0-.023-.087l.009-2.89a.18.18 0 0 1 .022.088zM88.484 134.522l-.008 2.889-1.411 1.458.009-2.889z" class="color4c4c5e svgShape"></path><path fill="#564c5e" d="m87 139.012.008-2.89c0-.048.022-.097.066-.142l-.009 2.889a.206.206 0 0 0-.065.143zm-15.68.295.008-2.89c0 .077.052.153.148.208l.06.03-.009 2.889a.53.53 0 0 1-.06-.03c-.095-.055-.147-.13-.147-.207zM73.879 137.64l-.009 2.889-2.343-.985.009-2.889z" class="color4c4c5e svgShape"></path><path fill="#564c5e" d="m91.7 137.599-.009 2.889c0 .112-.113.217-.295.266l.008-2.89c.183-.048.295-.153.295-.265zm-17.614.277-.009 2.889c0-.077-.054-.152-.149-.207a.52.52 0 0 0-.058-.029l.009-2.889a.52.52 0 0 1 .058.03c.094.054.149.129.149.206z" class="color4c4c5e svgShape"></path><path fill="#564c5e" d="m91.404 137.865-.008 2.889-2.635.683.008-2.889z" class="color4c4c5e svgShape"></path><path fill="#564c5e" d="m85.994 138.777-.008 2.89c.002-.71-.466-1.42-1.403-1.96-1.862-1.076-4.872-1.076-6.721 0-.918.533-1.378 1.231-1.38 1.93l.008-2.888c.002-.7.462-1.398 1.38-1.932 1.85-1.075 4.86-1.075 6.721 0 .937.541 1.405 1.251 1.403 1.96zm2.39 3.523.007-2.89a.17.17 0 0 1 .006-.04c.046-.187.073-.377.076-.565.004-.111.118-.211.296-.257l-.008 2.889c-.178.046-.292.146-.296.257-.003.188-.03.378-.077.565a.17.17 0 0 0-.005.04zm-17.75.216.007-2.89c0 .02.003.038.01.057l-.009 2.89a.176.176 0 0 1-.009-.057z" class="color4c4c5e svgShape"></path><path fill="#564c5e" d="m70.813 140.158-.008 2.889-.163-.475.008-2.889zM74.2 140.38l-.009 2.889-2.889.013.009-2.889z" class="color4c4c5e svgShape"></path><path fill="#564c5e" d="m71.31 140.393-.008 2.89a.724.724 0 0 1-.358-.086.297.297 0 0 1-.14-.15l.01-2.889c.02.058.07.11.138.15.093.054.221.086.359.085zm19.946.429-.008 2.889a.189.189 0 0 1-.04.112l.009-2.89a.19.19 0 0 0 .039-.111zm-16.038.373-.008 2.889a.211.211 0 0 0-.08-.157 4.428 4.428 0 0 1-.483-.494.36.36 0 0 0-.096-.078.739.739 0 0 0-.36-.086l.009-2.889c.136 0 .265.032.36.086a.359.359 0 0 1 .096.078c.14.169.3.335.482.494.053.048.08.102.08.157z" class="color4c4c5e svgShape"></path><path fill="#564c5e" d="m91.217 140.934-.009 2.889-.323.445.008-2.889zM90.324 141.55l-.008 2.889-2.826-.36.009-2.889z" class="color4c4c5e svgShape"></path><path fill="#564c5e" d="m90.893 141.38-.008 2.888c-.094.13-.333.2-.57.171l.009-2.889c.236.03.475-.04.569-.17zm-3.394-.19-.009 2.89c-.188-.025-.385.016-.503.104a5.934 5.934 0 0 1-.634.42l.009-2.889c.23-.134.44-.273.633-.42.118-.088.315-.129.504-.105z" class="color4c4c5e svgShape"></path><path fill="#564c5e" d="m86.202 144.813.008-2.889c0-.077.053-.152.152-.209l-.009 2.89c-.098.056-.151.131-.151.208zm-7.178-1.88-.008 2.89c-.01-.07-.064-.135-.147-.183a.61.61 0 0 0-.177-.065 9.895 9.895 0 0 1-.893-.234.808.808 0 0 0-.533.026l.009-2.89a.808.808 0 0 1 .532-.025 9.9 9.9 0 0 0 .894.234.61.61 0 0 1 .176.065c.084.048.136.113.147.183zm4.74-.061-.008 2.889a.781.781 0 0 0-.515-.09c-.314.054-.635.093-.957.12-.19.016-.346.097-.4.205l.007-2.889c.055-.108.21-.189.401-.204.322-.027.644-.067.957-.12a.781.781 0 0 1 .515.089zm-10.224 2.937.009-2.89c0 .078.053.157.162.219l-.009 2.889c-.108-.062-.162-.14-.162-.218zM74.328 143.463l-.009 2.889-.617-.325.009-2.889z" class="color4c4c5e svgShape"></path><path fill="#564c5e" d="m77.275 142.478-.009 2.889-2.305 1.003.008-2.889z" class="color4c4c5e svgShape"></path><path fill="#564c5e" d="m74.97 143.481-.009 2.89a.799.799 0 0 1-.642-.019l.009-2.889a.799.799 0 0 0 .641.018zm12.295.216-.008 2.889c0 .1-.09.197-.245.25l.008-2.89c.155-.052.245-.148.245-.249zM85.691 144.149l-.009 2.889-1.926-1.277.008-2.889z" class="color4c4c5e svgShape"></path><path fill="#564c5e" d="m87.02 143.947-.008 2.889-.719.246.009-2.889z" class="color4c4c5e svgShape"></path><path fill="#564c5e" d="m86.302 144.193-.009 2.889a.795.795 0 0 1-.61-.044l.008-2.89a.795.795 0 0 0 .61.045zM79.263 144.601l-.008 2.889-.239-1.667.008-2.889zM81.891 143.107l-.008 2.889-.815 1.603.008-2.889z" class="color4c4c5e svgShape"></path><path fill="#564c5e" d="m79.712 144.867-.009 2.89a.704.704 0 0 1-.302-.085c-.082-.047-.136-.111-.146-.182l.008-2.889c.01.071.064.135.146.182.08.046.185.077.303.084z" class="color4c4c5e svgShape"></path><path fill="#564c5e" d="m80.542 144.918-.008 2.889-.831-.051.009-2.889z" class="color4c4c5e svgShape"></path><path fill="#564c5e" d="m81.076 144.71-.008 2.89c-.069.135-.292.221-.534.207l.008-2.889c.242.015.465-.072.534-.208z" class="color4c4c5e svgShape"></path><path fill="#6822a2" d="M87.235 143.598c.081.131-.008.279-.215.349l-.718.246a.795.795 0 0 1-.611-.044l-1.927-1.277a.781.781 0 0 0-.515-.09c-.313.054-.635.094-.957.12-.19.016-.346.097-.4.205l-.816 1.603c-.069.136-.292.223-.534.208l-.83-.05a.704.704 0 0 1-.303-.085c-.082-.047-.136-.111-.146-.182l-.239-1.667c-.01-.07-.063-.135-.147-.183a.61.61 0 0 0-.176-.065 9.9 9.9 0 0 1-.894-.234.808.808 0 0 0-.532.026l-2.306 1.003a.799.799 0 0 1-.641-.018l-.617-.325c-.181-.104-.21-.253-.089-.368l1.52-1.422c.102-.095.101-.216-.004-.31a4.43 4.43 0 0 1-.482-.494.359.359 0 0 0-.097-.078.738.738 0 0 0-.36-.086l-2.888.013a.724.724 0 0 1-.359-.085.297.297 0 0 1-.139-.15l-.163-.475c-.045-.138.083-.274.306-.325l2.687-.618c.18-.04.303-.138.314-.25a2.48 2.48 0 0 1 .12-.562c.031-.095-.025-.192-.14-.259a.52.52 0 0 0-.058-.029l-2.343-.985a.533.533 0 0 1-.06-.03c-.148-.085-.19-.218-.1-.33l.356-.436c.104-.127.35-.194.582-.157l2.797.431c.186.03.387-.006.512-.092a5.882 5.882 0 0 1 .67-.407c.14-.077.196-.194.138-.301l-.877-1.598c-.07-.133.03-.279.244-.344l.735-.227a.787.787 0 0 1 .588.05l1.85 1.334a.76.76 0 0 0 .505.102c.317-.044.641-.077.965-.096.19-.011.354-.087.415-.194l.938-1.582c.078-.133.307-.214.545-.192l.826.07c.11.01.207.04.281.082.088.051.142.12.147.196l.118 1.673c.005.075.06.144.147.195a.608.608 0 0 0 .158.062c.105.025.208.05.31.08a.79.79 0 0 0 .531-.038l2.23-1.064a.809.809 0 0 1 .64.004l.64.31c.19.108.228.252.117.366l-1.41 1.458c-.096.099-.085.219.026.309.196.155.369.317.521.483a.355.355 0 0 0 .087.068.729.729 0 0 0 .38.083l2.884-.084a.73.73 0 0 1 .381.084.308.308 0 0 1 .135.138l.197.469c.056.136-.062.277-.28.335l-2.636.683c-.178.046-.292.146-.296.257-.003.188-.03.378-.076.565-.024.092.032.182.142.246.023.013.049.025.077.036l2.416.927c.028.01.053.022.075.035.143.083.19.209.11.32l-.324.445c-.094.13-.333.2-.569.171l-2.825-.36c-.19-.024-.386.017-.504.105a5.934 5.934 0 0 1-.633.42c-.141.082-.19.2-.122.309l.995 1.574zm-9.341-2.889c1.862 1.075 4.87 1.076 6.72.001 1.849-1.074 1.839-2.818-.023-3.893-1.861-1.075-4.871-1.075-6.72 0-1.85 1.075-1.839 2.817.023 3.892" class="color616173 svgShape"></path><path fill="#c5d1dd" d="m56.137 142.826.008-2.89c0 .03.007.06.022.088l-.008 2.889a.184.184 0 0 1-.022-.087zm13.023-2.152-.009 2.89c0 .047-.02.093-.062.135l.008-2.889a.195.195 0 0 0 .063-.136z" class="colorc5d4dd svgShape"></path><path fill="#c5d1dd" d="m57.044 141.621-.008 2.889-.877-1.597.008-2.889zM57.067 141.708l-.009 2.89a.18.18 0 0 0-.022-.088l.008-2.889a.18.18 0 0 1 .023.087zM69.097 140.81l-.008 2.889-1.41 1.458.008-2.889z" class="colorc5d4dd svgShape"></path><path fill="#c5d1dd" d="m67.613 145.3.009-2.889c0-.049.021-.098.065-.143l-.008 2.89a.206.206 0 0 0-.066.142zm-15.68.295.009-2.889c0 .077.051.152.147.208a.53.53 0 0 0 .06.03l-.008 2.888a.533.533 0 0 1-.06-.03c-.096-.055-.148-.13-.148-.207z" class="colorc5d4dd svgShape"></path><path fill="#c5d1dd" d="m54.492 143.929-.008 2.889-2.343-.986.008-2.889z" class="colorc5d4dd svgShape"></path><path fill="#c5d1dd" d="m72.312 143.887-.008 2.89c0 .112-.113.217-.295.265l.008-2.889c.183-.048.295-.153.295-.266zm-17.613.277-.008 2.89c0-.078-.055-.153-.15-.207a.523.523 0 0 0-.057-.03l.008-2.888c.02.009.04.018.058.029.094.054.15.13.149.206z" class="colorc5d4dd svgShape"></path><path fill="#c5d1dd" d="m72.017 144.153-.008 2.889-2.635.683.008-2.889z" class="colorc5d4dd svgShape"></path><path fill="#c5d1dd" d="m66.607 145.066-.008 2.889c.002-.71-.466-1.42-1.403-1.96-1.861-1.075-4.871-1.075-6.72 0-.92.533-1.379 1.232-1.38 1.931l.008-2.889c.002-.7.461-1.398 1.38-1.931 1.849-1.075 4.859-1.075 6.72 0 .937.54 1.405 1.25 1.403 1.96zm2.39 3.522.008-2.889a.17.17 0 0 1 .005-.041c.046-.186.074-.376.077-.564.003-.112.117-.212.295-.258l-.008 2.89c-.178.045-.292.145-.296.257-.003.188-.03.377-.076.564a.17.17 0 0 0-.006.041zm-17.75.216.007-2.889c0 .019.003.038.01.057l-.009 2.889a.176.176 0 0 1-.009-.057zM51.426 146.447l-.008 2.889-.163-.475.009-2.889zM54.813 146.669l-.008 2.889-2.889.013.008-2.889z" class="colorc5d4dd svgShape"></path><path fill="#c5d1dd" d="m51.924 146.682-.008 2.889a.724.724 0 0 1-.359-.086.297.297 0 0 1-.139-.15l.008-2.888c.02.058.07.11.14.15.093.053.22.086.358.085zm19.945.428L71.86 150a.189.189 0 0 1-.04.111l.009-2.889a.19.19 0 0 0 .039-.112zm-16.038.373-.008 2.89a.211.211 0 0 0-.08-.157 4.428 4.428 0 0 1-.482-.494.359.359 0 0 0-.097-.078.738.738 0 0 0-.36-.086l.009-2.89c.136 0 .266.032.36.087a.359.359 0 0 1 .096.078c.14.168.301.335.482.494.054.047.08.102.08.156z" class="colorc5d4dd svgShape"></path><path fill="#c5d1dd" d="m71.83 147.222-.008 2.889-.324.445.008-2.889zM70.937 147.839l-.008 2.888-2.825-.359.008-2.889z" class="colorc5d4dd svgShape"></path><path fill="#c5d1dd" d="m71.506 147.667-.008 2.89c-.094.13-.333.2-.569.17l.008-2.888c.236.03.476-.04.57-.172zm-3.394-.188-.008 2.889c-.19-.024-.386.016-.504.104a5.933 5.933 0 0 1-.633.42l.008-2.888c.23-.135.441-.274.633-.42.118-.089.315-.13.504-.105zm-1.297 3.623.008-2.89c0-.076.053-.151.152-.208l-.008 2.889c-.099.057-.152.132-.152.209zm-7.178-1.88-.008 2.89c-.01-.071-.063-.136-.147-.184a.61.61 0 0 0-.176-.065 9.9 9.9 0 0 1-.894-.234.808.808 0 0 0-.532.026l.008-2.889a.808.808 0 0 1 .533-.026 9.9 9.9 0 0 0 .893.234.61.61 0 0 1 .177.065c.083.048.136.113.146.183zm4.74-.062-.008 2.89a.781.781 0 0 0-.515-.09c-.313.054-.635.093-.957.12-.19.016-.346.096-.4.204l.008-2.888c.054-.109.21-.19.4-.205.322-.027.644-.066.957-.12a.781.781 0 0 1 .515.09zm-10.223 2.937.008-2.889c0 .078.054.156.162.218l-.008 2.89c-.109-.063-.163-.141-.162-.219z" class="colorc5d4dd svgShape"></path><path fill="#c5d1dd" d="m54.941 149.752-.008 2.889-.617-.326.008-2.889zM57.888 148.766l-.008 2.889-2.306 1.004.009-2.889z" class="colorc5d4dd svgShape"></path><path fill="#c5d1dd" d="m55.583 149.77-.009 2.889a.799.799 0 0 1-.641-.018l.008-2.89a.799.799 0 0 0 .642.019zm12.295.215-.008 2.89c0 .1-.09.196-.245.25l.008-2.89c.156-.053.245-.149.245-.25zM66.304 150.437l-.008 2.889-1.927-1.277.008-2.889zM67.633 150.235l-.008 2.889-.718.246.008-2.889z" class="colorc5d4dd svgShape"></path><path fill="#c5d1dd" d="m66.915 150.481-.008 2.889a.795.795 0 0 1-.611-.044l.008-2.889a.795.795 0 0 0 .61.044zM59.876 150.89l-.008 2.889-.239-1.668.008-2.889zM62.505 149.396l-.009 2.888-.815 1.604.008-2.889z" class="colorc5d4dd svgShape"></path><path fill="#c5d1dd" d="m60.325 151.156-.008 2.889a.704.704 0 0 1-.303-.084c-.082-.048-.136-.112-.146-.182l.008-2.89c.01.071.064.135.146.183.08.045.185.076.303.084z" class="colorc5d4dd svgShape"></path><path fill="#c5d1dd" d="m61.155 151.207-.008 2.889-.83-.051.008-2.889z" class="colorc5d4dd svgShape"></path><path fill="#c5d1dd" d="m61.69 150.999-.009 2.889c-.069.135-.292.222-.534.208l.008-2.89c.242.015.465-.072.534-.207z" class="colorc5d4dd svgShape"></path><path fill="#f4f6f8" d="M67.849 149.886c.08.132-.01.28-.216.35l-.718.245a.795.795 0 0 1-.611-.044l-1.927-1.277a.781.781 0 0 0-.515-.089c-.313.054-.635.093-.957.12-.19.016-.346.096-.4.205l-.816 1.603c-.069.135-.292.222-.534.208l-.83-.051a.704.704 0 0 1-.303-.084c-.082-.048-.136-.112-.146-.182l-.239-1.668c-.01-.07-.063-.135-.146-.183a.61.61 0 0 0-.177-.065 9.9 9.9 0 0 1-.893-.234.808.808 0 0 0-.533.026l-2.305 1.004a.799.799 0 0 1-.642-.018l-.617-.326c-.181-.104-.21-.253-.088-.368l1.52-1.421c.101-.095.1-.217-.005-.31a4.43 4.43 0 0 1-.482-.494.359.359 0 0 0-.096-.078.739.739 0 0 0-.36-.086l-2.89.013a.724.724 0 0 1-.357-.086.297.297 0 0 1-.14-.15l-.162-.474c-.046-.138.082-.275.305-.326l2.687-.617c.18-.04.303-.138.314-.25a2.48 2.48 0 0 1 .12-.563c.032-.094-.025-.192-.14-.258a.523.523 0 0 0-.058-.03l-2.343-.985a.53.53 0 0 1-.06-.03c-.148-.085-.19-.218-.1-.33l.356-.436c.104-.127.35-.193.582-.156l2.797.43c.186.03.387-.005.512-.092a5.878 5.878 0 0 1 .67-.406c.141-.077.196-.195.138-.302l-.877-1.597c-.07-.133.03-.28.245-.345l.734-.226a.787.787 0 0 1 .588.05l1.85 1.333a.76.76 0 0 0 .505.102c.317-.044.641-.077.965-.096.19-.01.354-.087.415-.194l.938-1.581c.078-.133.307-.214.545-.193l.826.07c.11.01.207.04.281.083.088.05.143.12.148.195l.118 1.674c.004.074.058.144.146.194a.608.608 0 0 0 .159.062c.104.025.207.051.31.08a.79.79 0 0 0 .53-.037l2.23-1.064a.809.809 0 0 1 .641.003l.64.31c.19.109.228.252.116.366l-1.41 1.458c-.096.099-.085.219.026.31.196.155.369.316.522.483a.354.354 0 0 0 .086.068.729.729 0 0 0 .38.082l2.884-.084a.73.73 0 0 1 .382.085.308.308 0 0 1 .134.137l.198.47c.056.136-.062.276-.282.334l-2.635.683c-.178.046-.292.146-.295.258-.003.188-.031.378-.077.564-.023.092.032.183.142.246a.56.56 0 0 0 .077.037l2.416.926c.028.01.053.023.075.036.143.082.19.208.11.32l-.324.444c-.093.131-.333.201-.569.172l-2.825-.36c-.189-.024-.386.016-.504.104a5.933 5.933 0 0 1-.633.42c-.141.083-.19.201-.122.31l.996 1.573zm-9.342-2.888c1.862 1.075 4.87 1.076 6.72 0 1.849-1.074 1.839-2.817-.023-3.892-1.861-1.075-4.871-1.075-6.72 0-1.85 1.075-1.838 2.817.023 3.892" class="colore7f1f7 svgShape"></path><path fill="#cfdbe8" d="M189.468 149.147c-3.743 2.173-9.82 2.173-13.583 0s-3.783-5.695-.04-7.868c3.742-2.173 9.82-2.173 13.583 0s3.783 5.695.04 7.868z" class="colorcfdee8 svgShape"></path><path fill="#4f4756" d="m191.568 129.501-1.955 13.47c-.147 1.28-1.06 2.515-2.68 3.431-3.135 1.774-8.003 1.775-11.159 0-1.65-.927-2.578-2.183-2.72-3.482l-1.893-13.477c-.004 1.522 1 3.047 3.011 4.208 4 2.309 10.457 2.309 14.43 0 1.974-1.147 2.962-2.647 2.966-4.15z" class="color474756 svgShape"></path><path fill="#5c5463" d="M188.555 125.293c3.999 2.309 4.02 6.05.047 8.358-3.973 2.309-10.43 2.309-14.43 0-3.994-2.306-4.02-6.05-.047-8.358 3.973-2.309 10.435-2.306 14.43 0z" class="color545463 svgShape"></path><path fill="#564c5e" d="m192.14 128.02-.034 2.076c-.004 1.584-1.046 3.166-3.127 4.376-4.19 2.434-10.998 2.434-15.215 0-2.12-1.224-3.18-2.832-3.175-4.438l.034-2.076c-.005 1.606 1.055 3.214 3.175 4.438 4.216 2.434 11.025 2.434 15.214 0 2.081-1.21 3.123-2.792 3.128-4.376z" class="color4c4c5e svgShape"></path><path fill="#6822a2" d="M188.963 123.583c4.216 2.434 4.238 6.378.05 8.813s-10.999 2.434-15.215 0c-4.212-2.432-4.239-6.379-.05-8.813 4.19-2.434 11.003-2.432 15.215 0z" class="color616173 svgShape"></path><path fill="#564c5e" d="M190.933 128.012c0 .327-.073.654-.206.98-.34.848-1.138 1.672-2.325 2.362-1.84 1.065-4.322 1.659-6.986 1.659-2.664 0-5.158-.594-7.01-1.671-1.211-.69-2.022-1.514-2.361-2.386a2.378 2.378 0 0 1-.206-.98c-.012-1.21.884-2.397 2.518-3.342 1.84-1.077 4.323-1.67 6.986-1.67 2.664 0 5.158.593 7.01 1.67 1.66.957 2.58 2.155 2.58 3.378z" class="color4c4c5e svgShape"></path><path fill="#7f4174" d="M190.727 128.993c-.34.847-1.138 1.67-2.325 2.36-1.84 1.066-4.322 1.66-6.986 1.66-2.664 0-5.158-.594-7.01-1.671-1.211-.69-2.022-1.514-2.361-2.386.339-.847 1.138-1.658 2.312-2.336 1.84-1.078 4.323-1.659 6.986-1.659 2.664 0 5.158.581 7.01 1.659 1.2.69 2.01 1.513 2.374 2.373z" class="color7f5341 svgShape"></path><path fill="#7b75d1" d="M172.962 88.685c1.52 1.348 1.52 4.035 1.318 5.685-.191 1.826-.554 3.617-.351 4.917.326 2.847 1.364 5.677 2.863 8.524 1.388 2.931 3.31 5.996 4.582 9.653 1.293 3.556 1.951 7.908.298 11.503-2.61-7.096-7.45-10.937-11.124-18.038-1.685-3.506-2.942-7.761-2.029-12.102.829-4.626 4.35-6.368 4.443-10.142z" class="color75d178 svgShape"></path><path fill="#7caddf" d="M178.484 127.062c3.072-.67 4.775-4.282 5.201-7.08.522-2.965.642-5.215 1.394-7.527 1.33-4.669 3.658-8.876 7.183-13.447-5.825 1.087-10.46 6.224-12.128 12.042-.85 2.942-.76 6.21-.439 8.682.173 2.516.395 4.853-1.21 7.33z" class="color7cdf82 svgShape"></path><path fill="#94c0ed" d="M155.386 119.933s1.96-1.364 3.289-5.489c1.328-4.124 9.228-7.585 15.007-.176 5.78 7.41 9.6 17.262 8.576 17.642-1.024.38-.979 1.222-2.907-1.967-1.928-3.19-9.25-11.145-12.837-13.014-3.587-1.869-8.198 5.662-11.128 3.004z" class="color94ed96 svgShape"></path><path fill="#7caddf" d="M182.26 129.676c-1.101-1.702-.062-4.172 1.51-5.401 1.63-1.379 3.512-1.757 4.996-2.07 2.903-.395 5.558-.732 9.234-.273-1.858 3.222-5.168 4.774-8.375 5.342l-3.875.474c-1.077.26-2.33.462-3.49 1.928z" class="color7cdf82 svgShape"></path><path fill="#acd2f9" d="M180.103 129.738c.515.2.896-.155.987-.405.04-.253.005-.493-.113-.772l-.393-1.163c-.145-.476-.275-.858-.284-1.615.094-2.789 1.24-4.404 1.968-6.076.922-1.643 1.9-3.255 3.143-4.728 1.103-1.331 2.873-3.514 5.232-3.393-1.153 1.8-1.033 3.368-1.685 5.273-.52 1.856-1.306 3.57-2.148 5.255-.917 1.685-2.035 3.245-2.55 4.218-.151.178-.187.742-.323 1.207-.143.447-.19.929-.527 1.646-.341.622-.895 1.28-1.723 1.434-.742.15-1.517-.296-1.584-.881z" class="coloracf9ac svgShape"></path><path fill="#7f4174" d="M184.887 128.495c.039.576.047 1.185-.074 1.771-.12.619-.371 1.18-.86 1.566-.517.42-1.214.563-1.917.61-1.02.1-2.05.071-3.006-.315-1.647-.629-2.848-2.281-2.933-4.042l.833-.023c.494.673 1.203 1.204 1.99 1.44.915.26 1.874.197 2.801.135.573-.07 1.149-.108 1.715-.274.57-.135 1.096-.426 1.451-.868z" class="color7f5341 svgShape"></path><path fill="#b5d9fe" d="M30.172 48.873s.747-.788 1.128-.964c.378-.177 1.257-.453 1.716-.667.458-.217 1.14-1.434 1.256-2.145.114-.706-.4-1.956-.803-1.774-.249.115-.399.683-.59 1.216-.217.607-.781 1.038-1.426 1.042a.328.328 0 0 1-.08-.006c-.104-.03.212-.923.394-1.19.182-.266.19-.95-.112-.968-.302-.017-.458.653-.94 1.224-.188.226-.34.592-.46.968-.254.8-.796 1.46-1.495 1.927-.052.033-.103.07-.153.11-.514.402 1.565 1.227 1.565 1.227z" class="colorfed0b5 svgShape"></path><path fill="#a50b89" d="M17.336 44.013s-1.17 5.097.418 6.977 5.306 5.474 6.31 5.307c1.002-.167 4.846-3.802 6.81-8.022 0 0-.502-1.672-1.964-1.337l-5.223 5.431s-5.18-9.526-6.35-8.356z" class="colore22951 svgShape"></path><path fill="#010001" d="M15.995 98.113s-1.17.936-1.103 1.672c.067.735.167 1.57.234 1.805s.016 3.326.167 3.36c.15.033.368 0 .368 0s.133-2.658.334-2.708c.2-.05.551 2.87.735 3.257.184.386 3.16 2.66 4.162 1.924 1.003-.735-2.073-5.014-2.474-5.716-.4-.702-2.273-3.861-2.423-3.594z" class="color2a2a38 svgShape"></path><path fill="#a7ccf2" d="M20.16 86.821c-.218 1.63-1.2 7.677-1.2 9.982 0 2.302.556 6.758 1.124 7.575.204.593-1.493.81-1.738.502-.189-.238-.717-.8-1.11-1.428a3.484 3.484 0 0 1-.38-.844c-.33-1.095-1.054-2.736-.995-3.778.06-1.137.275.183.489-2.027.217-2.21-1.165-9.245-1.165-11.638 0-2.397 4.726-4.7 5.371-4.608.646.092.707 1.725.615 2.027 0 0-.798 2.611-1.012 4.237z" class="colorf2c0a7 svgShape"></path><path fill="#010001" d="M10.09 99.323s-1.311.957-1.437 2.041c-.126 1.084-.176 4.436-.479 5.343-.302.907.328 1.865.63 2.218.303.353 1.714 1.512 2.168 1.512.453 0 1.134-.076 1.234-.983.101-.907-.126-3.68-.327-6.477-.202-2.797.025-3.554-1.79-3.654z" class="color2a2a38 svgShape"></path><path fill="#b5d9fe" d="M11.778 85.184s-1.487 1.663-1.865 4.738c-.378 3.075-.151 7.763-.353 8.77-.201 1.009-.453 1.588-.554 1.992-.101.403-.335 6.152.018 6.732.324.723 2.675.937 2.826.433s-.274-4.116-.274-5.502c0-1.386.756-5.469 1.437-7.006.68-1.538 2.319-7.082 2.797-8.267.48-1.184.555-1.99.278-2.646-.278-.655-4.184-.781-4.31.756z" class="colorfed0b5 svgShape"></path><path fill="#4f4756" d="M8.95 66.618s-.055.078-.132.232c-.26.52-.777 1.918-.347 4.19.558 2.948 2.67 10.677 2.59 13.187s4.9 1.833 6.493 1.195 3.506-1.115 3.944-3.307c.439-2.19.24-15.776-.318-17.05s-12.285 1.63-12.285 1.63" class="color474756 svgShape"></path><path fill="#ea3dcb" d="M21.627 67.079c.01.3-.132.584-.376.758a74.15 74.15 0 0 1-3.235 2.167c-.168.107-.336.208-.495.306-5.89 3.586-6.563 2.057-8.178 1.32-1.932-.88-1.125-2.9-1.008-4.53.094-1.318 3.907-4.867 2.898-8.098a3.888 3.888 0 0 0-.547-1.092c-1.058-1.485-1.822-3.225-2.342-4.839-.694-2.164-.945-4.103-.847-4.898.067-.547.752-1.17 1.556-1.718.196-.134.397-.266.602-.388.425-.26.85-.492 1.208-.675.067-.037.131-.068.192-.098.135-.07.257-.132.361-.18.034-.016.064-.028.092-.043a.309.309 0 0 1 .046-.022c.049-.024.088-.046.122-.061a44.127 44.127 0 0 1 2.923-1.269c.33-.128.666-.253.996-.367 1.462-.507 3.216 1.15 3.964 2.738.044.132.099.26.161.385 2.618 5.187.653 5.692.317 6.055a.273.273 0 0 0-.036.052c-.046.1-.062.666-.059 1.434.007 1.52.082 3.835.121 4.941.014.39.112.767.276 1.12 1.018 2.202 1.24 5.725 1.288 7.002z" class="colorea3d5b svgShape"></path><path fill="#a50b89" d="M20 52.582c-.045.1-.06.666-.058 1.434-1.293.37-2.876.865-4.001 1.372-1.627.725-3.47 2.174-4.708 3.614a3.888 3.888 0 0 0-.547-1.092c-1.058-1.485-1.822-3.225-2.342-4.839.721 1.073 2.598 2.813 3.77 2.381 2.527-.929 6.453-2.821 7.923-2.922a.273.273 0 0 0-.036.052z" class="colore22951 svgShape"></path><path fill="#b5d9fe" d="M7.588 63.216s.8.734.981 1.113c.184.375.473 1.249.695 1.704.225.455 1.452 1.117 2.165 1.222.708.102 1.95-.432 1.76-.832-.118-.247-.688-.388-1.225-.57-.61-.208-1.05-.764-1.064-1.41 0-.038 0-.066.005-.08.028-.104.926.198 1.195.376s.954.174.967-.128c.012-.302-.661-.447-1.24-.92-.228-.185-.597-.332-.975-.445-.803-.24-1.473-.772-1.95-1.463a1.962 1.962 0 0 0-.113-.152c-.41-.507-1.201 1.585-1.201 1.585z" class="colorfed0b5 svgShape"></path><path fill="#ea3dcb" d="M9.11 47.606a1.084 1.084 0 0 0-1.493.17c-1.634 1.952-6.028 7.452-5.586 9.588.542 2.617 6.183 6.634 6.183 6.634.798-.297 1.378-.73 1.58-1.4l-4.243-5.46s4.874-4.784 4.874-6.995c0-1.246-.702-2.062-1.314-2.537z" class="colorea3d5b svgShape"></path><path fill="#f4f6f8" d="m18.298 69.723-.282.281-.504.502.01-.196c.06-1.455.397-10.663-.793-13.476-.25-.59-.421-1.085-.577-1.537-.153-.453-.288-.863-.465-1.294-.566-1.375-1.55-2.925-4.873-6.493-.049-.052-.758-.58-1.159-1.443.737-.45 1.47-.813 1.853-.996l.168-.083a44.127 44.127 0 0 1 2.923-1.269c.214.285.428.609.642.972 2.35 4.036 1.736 6.604 2.05 8.404.013.068.025.15.038.245.049.333.104.829.168 1.443.388 3.843.993 12.338.8 14.94z" class="colore7f1f7 svgShape"></path><path fill="#dce6f1" d="M17.497 54.783c-.477.165-.939.336-1.345.514-.153-.453-.288-.863-.465-1.294.562-.232 1.116-.461 1.642-.663.049.333.104.829.168 1.443z" class="colordce8f1 svgShape"></path><path fill="#fd54de" d="M10.924 50.362s.257-1.036.257-1.048c-.019.049-1.034.159-1.034.159s-.76-.11-1.045-2.394a6.872 6.872 0 0 1-.049-.624c.196-.134.397-.266.602-.388.4.862 1.11 1.391 1.159 1.443 2.95 3.167 4.057 4.742 4.665 6.02l-4.555-3.168zm6.557 2.88a.62.62 0 0 1-.14.187c-.003-.03-.01-.061-.012-.089a4.954 4.954 0 0 0-.037-.245c-.315-1.8.3-4.368-2.051-8.404a10.308 10.308 0 0 0-.642-.972c.33-.128.666-.253.996-.367.49.37 1 .869 1.52 1.538l-.71.624.927.516s1.054 5.467.15 7.212z" class="colorfd546b svgShape"></path><path fill="#b5d9fe" d="M9.639 46.014s1.19-.147 1.571-.998.456-1.41.588-2.424c.132-1.014-1.557-5.48-.852-6.58.705-1.102 5.082-2.836 6.037-2.087.955.75 1.792 2.248 1.704 3.908-.088 1.66-.367 3.055-.22 3.687.147.631-.852 3.216-3.129 2.952 0 0-.015 1.19.264 1.866s.485.984.309 1.38c-.176.397-1.542 1.513-3.628.397s-2.688-1.792-2.644-2.1z" class="colorfed0b5 svgShape"></path><path fill="#010001" d="M9.513 39.864s-3.273.13-3.316-2.51 1.321-4.168 3.833-3.842c0 0 1.913-2.004 4.873-1.68 2.959.323 3.884 2.252 3.986 2.431.102.18.712 1.685-1.13 1.71-1.843.025-3.045.072-3.502.693-.456.622-.787 1.006-.428 2.333.36 1.327-.846 3.616-.955 4.429s-.233 2.002.387 2.889c0 0-2.007-1.054-1.491-3.409 0 0-1.898-.988-2.257-3.044z" class="color2a2a38 svgShape"></path><path fill="#399cff" d="m51.415 45.272 1.908-1.109-.035 12.49-1.909 1.109z" class="colorffb839 svgShape"></path><path fill="#88c3ff" d="m24.127 29.517 1.908-1.109 27.288 15.755-1.908 1.109z" class="colorffe088 svgShape"></path><path fill="#50a7ff" d="m51.415 45.272-.036 12.49-27.287-15.755.035-12.49z" class="colorffc950 svgShape"></path><path fill="#399cff" d="M26.297 40.06v1.533l12.883 7.438.004-1.531zM48.673 49.462 26.297 36.543v1.533l22.376 12.918zM48.673 45.938 26.297 33.019v1.533l22.376 12.919z" class="colorffb839 svgShape"></path><path fill="#f46cdb" d="m166.395 148.474-5.158-2.998.109 27.821 5.158 2.997z" class="colorf46cb4 svgShape"></path><path fill="#9fcfff" d="m171.807 145.349-5.158-2.997-5.412 3.124 5.158 2.998z" class="colorff9fd1 svgShape"></path><path fill="#7bbdff" d="m166.395 148.474.109 27.82 5.413-3.124-.11-27.821z" class="colorff7bba svgShape"></path><path fill="#399cff" d="m157.325 160.303-5.158-2.998.076 21.248 5.158 2.997z" class="colorffb839 svgShape"></path><path fill="#88c3ff" d="m162.738 157.178-5.158-2.998-5.413 3.125 5.158 2.998z" class="colorffe088 svgShape"></path><path fill="#50a7ff" d="m157.325 160.303.076 21.247 5.412-3.124-.075-21.248z" class="colorffc950 svgShape"></path><path fill="#1d13ab" d="m148.259 173.455-5.157-2.997.037 13.351 5.158 2.997z" class="color1352ab svgShape"></path><path fill="#5046e4" d="m153.672 170.331-5.158-2.998-5.412 3.125 5.157 2.997z" class="color3765c7 svgShape"></path><path fill="#2e25b8" d="m148.259 173.455.038 13.351 5.413-3.125-.038-13.35z" class="color255bb8 svgShape"></path><path fill="#69b4ff" d="m51.502 111.247-.007 2.339-.068.482.007-2.339zM35.277 112.166l-.007 2.339-.15-.476.007-2.339zM51.867 112.143l-.007 2.339-.219.466.007-2.339z" class="colorffd469 svgShape"></path><path fill="#69b4ff" d="m35.211 113.054-.006 2.339-.297-.453.007-2.339zM51.946 113.062l-.007 2.339-.362.434.006-2.339z" class="colorffd469 svgShape"></path><path fill="#69b4ff" d="m35.425 113.934-.006 2.339-.433-.414.006-2.339zM51.732 113.973l-.006 2.339-.491.388.007-2.339z" class="colorffd469 svgShape"></path><path fill="#50a7ff" d="m35.914 114.776-.007 2.339-.556-.36.006-2.339zM51.242 114.361l-.007 2.339-.005.484.007-2.339z" class="colorffc950 svgShape"></path><path fill="#69b4ff" d="m51.237 114.845-.007 2.339-.605.329.007-2.339zM35.996 115.258l-.006 2.339-.083-.482.007-2.339z" class="colorffd469 svgShape"></path><path fill="#50a7ff" d="m36.658 115.552-.007 2.339-.661-.294.006-2.339zM50.632 115.174l-.007 2.339-.155.475.006-2.339z" class="colorffc950 svgShape"></path><path fill="#69b4ff" d="m50.476 115.649-.006 2.339-.7.258.007-2.339zM36.891 116.017l-.007 2.339-.233-.465.007-2.339z" class="colorffd469 svgShape"></path><path fill="#50a7ff" d="m37.63 116.235-.006 2.339-.74-.218.007-2.339zM49.777 115.907l-.007 2.339-.3.451.007-2.339z" class="colorffc950 svgShape"></path><path fill="#69b4ff" d="m49.477 116.358-.007 2.339-.769.177.007-2.339zM38.006 116.667 38 119.006l-.376-.432.006-2.339z" class="colorffd469 svgShape"></path><path fill="#50a7ff" d="m38.802 116.803-.006 2.339-.796-.136.006-2.339zM48.708 116.535l-.007 2.339-.439.41.007-2.339z" class="colorffc950 svgShape"></path><path fill="#69b4ff" d="m48.269 116.945-.007 2.339-.811.093.006-2.339zM39.306 117.188l-.006 2.339-.504-.385.006-2.339z" class="colorffd469 svgShape"></path><path fill="#50a7ff" d="m40.131 117.235-.007 2.339-.824-.047.006-2.339zM47.457 117.038l-.006 2.339-.56.355.006-2.339z" class="colorffc950 svgShape"></path><path fill="#69b4ff" d="m46.897 117.393-.006 2.339-.826.003.007-2.339zM40.747 117.559l-.006 2.339-.617-.324.007-2.339z" class="colorffd469 svgShape"></path><path fill="#50a7ff" d="m41.571 117.518-.007 2.339-.823.041.006-2.339z" class="colorffc950 svgShape"></path><path fill="#69b4ff" d="m45.407 117.685-.006 2.339-.814-.086.006-2.339z" class="colorffd469 svgShape"></path><path fill="#50a7ff" d="m46.072 117.396-.007 2.339-.664.289.006-2.339zM43.077 117.64l-.007 2.339-.796.13.006-2.339z" class="colorffc950 svgShape"></path><path fill="#69b4ff" d="m42.28 117.77-.006 2.339-.71-.252.007-2.339z" class="colorffd469 svgShape"></path><path fill="#50a7ff" d="m44.593 117.599-.006 2.339-.742.214.007-2.339z" class="colorffc950 svgShape"></path><path fill="#69b4ff" d="m43.852 117.813-.007 2.339-.775-.173.007-2.339z" class="colorffd469 svgShape"></path><path fill="#88c3ff" d="m49.968 109.646.235.465.66.294.084.481.555.361-.068.482.433.414-.219.466.298.453-.363.434.149.477-.49.388-.005.484-.605.329-.156.475-.699.258-.3.451-.769.177-.439.41-.812.093-.56.355-.825.003-.665.289-.814-.086-.741.214-.775-.173-.797.13-.709-.252-.824.041-.616-.324-.825-.047-.504-.385-.796-.136-.376-.432-.739-.218-.233-.465-.662-.294-.082-.482-.557-.36.068-.482-.433-.414.219-.466-.296-.453.362-.435-.15-.476.493-.389.002-.484.605-.328.156-.476.699-.258.302-.449.767-.178.439-.41.812-.093.56-.355.828-.004.661-.289.816.086.741-.213.774.172.797-.129.709.252.824-.042.618.324.823.047.505.387.795.134.376.432z" class="colorffe088 svgShape"></path><path fill="#69b4ff" d="M48.324 109.96c-2.722-1.589-7.12-1.59-9.824-.003-1.563.918-2.218 2.164-1.965 3.36.18-.866.833-1.7 1.965-2.365 2.703-1.586 7.102-1.586 9.824.002 1.148.67 1.816 1.516 1.996 2.389.253-1.203-.412-2.46-1.996-3.384z" class="colorffd469 svgShape"></path><path fill="#50a7ff" d="M48.324 110.954c-2.722-1.588-7.12-1.588-9.824-.002-1.132.664-1.785 1.499-1.965 2.364.18.873.847 1.72 1.995 2.39 2.723 1.587 7.121 1.587 9.825 0 1.131-.666 1.785-1.5 1.965-2.363-.18-.873-.848-1.72-1.996-2.389z" class="colorffc950 svgShape"></path><path fill="#399cff" d="m46.915 111.325-.001.585-.757.444.001-.585zM43.335 112.71l.002-.584c0-.082.053-.154.156-.214a.891.891 0 0 1 .44-.112c.174-.004.371.033.59.112l-.002.585a1.652 1.652 0 0 0-.59-.112.891.891 0 0 0-.44.112c-.103.06-.156.132-.156.214zM45.242 112.307l-.001.585-1.18.692.001-.584z" class="colorffb839 svgShape"></path><path fill="#399cff" d="m41.783 112.568.002-.585c0 .157.052.312.156.463.132.19.323.405.576.643l-.002.585a4.315 4.315 0 0 1-.576-.643.808.808 0 0 1-.156-.463zm4.168.575-.002.585c-.15-.32-.386-.6-.708-.836l.001-.585c.323.237.56.515.709.836zM47.154 112.845l-.001.585-1.204.298.002-.585zM43.223 113.96l-.002.584a.2.2 0 0 0-.002-.027c-.013-.095-.072-.206-.18-.333l.002-.585c.108.128.167.238.18.333l.002.027z" class="colorffb839 svgShape"></path><path fill="#399cff" d="m43.041 113.599-.002.585-.958.562.002-.585z" class="colorffb839 svgShape"></path><path fill="#399cff" d="m44.793 114.092-.001.585a.74.74 0 0 1-.01.12l.001-.585a.74.74 0 0 0 .01-.12zm-4.347.213-.001.585a3.82 3.82 0 0 1-.804-.682c-.212-.241-.337-.461-.382-.66l.002-.585c.044.199.17.42.382.66.209.242.478.47.803.682zm4.337-.093-.002.585c-.033.2-.202.39-.509.57-.38.223-.845.331-1.394.327-.552-.004-1.122-.14-1.714-.41l.002-.584c.592.27 1.162.405 1.713.409.55.004 1.015-.104 1.395-.327.306-.18.475-.37.509-.57z" class="colorffb839 svgShape"></path><path fill="#399cff" d="m41.166 114.7-.002.585-.778.456.002-.585z" class="colorffb839 svgShape"></path><path fill="#88c3ff" d="M44.783 114.212c-.034.2-.203.39-.51.57-.379.223-.844.331-1.394.327-.551-.004-1.121-.14-1.713-.41l-.778.457-.699-.407.757-.444a3.82 3.82 0 0 1-.803-.681c-.213-.242-.338-.462-.382-.66l1.233-.274c.047.18.146.364.294.555.15.19.34.365.568.526l1.16-.682a4.315 4.315 0 0 1-.575-.643.773.773 0 0 1-.145-.585c.032-.2.204-.39.515-.573.384-.226.854-.337 1.413-.334.556.002 1.13.14 1.723.416l.77-.452.698.407-.757.444c.527.361.859.72.996 1.076l-1.203.298c-.15-.32-.386-.6-.709-.836l-1.18.693c.252.234.444.445.575.632.132.187.18.38.146.58zm-1.246-1.721.986-.58a1.652 1.652 0 0 0-.59-.111.891.891 0 0 0-.44.112c-.116.068-.168.15-.154.244.015.095.08.207.198.335m-.896 1.785a.83.83 0 0 0 .424-.102c.116-.068.168-.148.156-.242-.013-.095-.072-.205-.18-.333l-.958.562c.204.077.39.115.558.115" class="colorffe088 svgShape"></path><path fill="#399cff" d="m40.388 115.156-.002.585-.698-.407.001-.585z" class="colorffb839 svgShape"></path><path fill="#69b4ff" d="m54.231 108.57-.006 2.339-.068.482.006-2.339zM38.007 109.489 38 111.828l-.15-.475.007-2.339zM54.596 109.466l-.006 2.339-.219.467.007-2.339z" class="colorffd469 svgShape"></path><path fill="#69b4ff" d="m37.941 110.377-.007 2.339-.296-.452.007-2.339zM54.675 110.386l-.006 2.339-.362.433.006-2.339z" class="colorffd469 svgShape"></path><path fill="#69b4ff" d="m38.155 111.258-.006 2.339-.433-.415.006-2.339zM54.462 111.296l-.007 2.339-.49.389.007-2.339z" class="colorffd469 svgShape"></path><path fill="#50a7ff" d="m38.644 112.099-.007 2.339-.556-.359.006-2.339zM53.972 111.685l-.007 2.339-.005.484.007-2.339z" class="colorffc950 svgShape"></path><path fill="#69b4ff" d="m53.967 112.169-.007 2.339-.605.329.006-2.339zM38.726 112.582l-.006 2.339-.083-.483.007-2.339z" class="colorffd469 svgShape"></path><path fill="#50a7ff" d="m39.388 112.876-.007 2.339-.661-.294.006-2.339zM53.361 112.498l-.006 2.339-.156.475.007-2.339z" class="colorffc950 svgShape"></path><path fill="#69b4ff" d="m53.206 112.973-.007 2.339-.699.258.007-2.339zM39.621 113.34l-.007 2.339-.233-.464.007-2.339z" class="colorffd469 svgShape"></path><path fill="#50a7ff" d="m40.36 113.559-.006 2.339-.74-.219.007-2.339zM52.507 113.231l-.007 2.339-.3.45.007-2.339z" class="colorffc950 svgShape"></path><path fill="#69b4ff" d="m52.207 113.681-.007 2.339-.769.178.007-2.339zM40.736 113.991l-.006 2.339-.376-.432.006-2.339z" class="colorffd469 svgShape"></path><path fill="#50a7ff" d="m41.532 114.127-.006 2.339-.796-.136.006-2.339zM51.438 113.859l-.007 2.339-.439.409.007-2.339z" class="colorffc950 svgShape"></path><path fill="#69b4ff" d="m50.999 114.268-.007 2.339-.812.093.007-2.339zM42.036 114.512l-.006 2.339-.504-.385.006-2.339z" class="colorffd469 svgShape"></path><path fill="#50a7ff" d="m42.86 114.559-.006 2.339-.824-.047.006-2.339zM50.187 114.361l-.007 2.339-.559.355.006-2.339z" class="colorffc950 svgShape"></path><path fill="#69b4ff" d="m49.627 114.716-.006 2.339-.826.004.007-2.339zM43.477 114.883l-.007 2.339-.616-.324.006-2.339z" class="colorffd469 svgShape"></path><path fill="#50a7ff" d="m44.301 114.841-.007 2.339-.824.042.007-2.339z" class="colorffc950 svgShape"></path><path fill="#69b4ff" d="m48.137 115.009-.006 2.339-.814-.086.006-2.339z" class="colorffd469 svgShape"></path><path fill="#50a7ff" d="m48.802 114.72-.007 2.339-.664.289.006-2.339zM45.806 114.964l-.006 2.339-.796.13.006-2.339z" class="colorffc950 svgShape"></path><path fill="#69b4ff" d="m45.01 115.094-.006 2.339-.71-.253.007-2.339z" class="colorffd469 svgShape"></path><path fill="#50a7ff" d="m47.323 114.923-.006 2.339-.742.214.007-2.339z" class="colorffc950 svgShape"></path><path fill="#69b4ff" d="m46.582 115.137-.007 2.339-.775-.173.006-2.339z" class="colorffd469 svgShape"></path><path fill="#88c3ff" d="m52.698 106.969.235.466.659.293.085.482.554.36-.068.482.433.414-.218.467.297.453-.362.433.149.477-.49.389-.005.484-.606.329-.155.475-.699.258-.3.45-.769.178-.439.409-.812.093-.56.355-.825.004-.665.289-.814-.086-.741.214-.776-.173-.796.13-.709-.253-.824.042-.617-.324-.824-.047-.504-.385-.796-.136-.376-.432-.739-.219-.233-.464-.662-.294-.082-.483-.557-.359.068-.482-.433-.415.219-.466-.296-.452.362-.436-.15-.475.493-.389.002-.484.605-.329.156-.475.699-.258.302-.45.767-.178.439-.41.812-.092.559-.355.829-.004.661-.289.816.085.741-.212.774.172.796-.13.71.252.824-.041.618.323.822.048.506.386.794.135.376.432z" class="colorffe088 svgShape"></path><path fill="#69b4ff" d="M51.054 107.283c-2.723-1.588-7.121-1.59-9.824-.003-1.563.919-2.219 2.164-1.965 3.36.18-.866.833-1.7 1.965-2.365 2.703-1.585 7.101-1.585 9.824.003 1.148.669 1.815 1.516 1.995 2.388.254-1.202-.412-2.46-1.995-3.383z" class="colorffd469 svgShape"></path><path fill="#50a7ff" d="M51.054 108.278c-2.723-1.588-7.121-1.588-9.824-.003-1.132.665-1.785 1.5-1.965 2.365.18.873.847 1.72 1.995 2.389 2.723 1.587 7.121 1.587 9.825 0 1.131-.665 1.784-1.5 1.964-2.363-.18-.872-.847-1.719-1.995-2.388z" class="colorffc950 svgShape"></path><path fill="#399cff" d="m49.645 108.648-.002.585-.756.444.001-.584zM46.065 110.034l.001-.585c0-.081.053-.153.156-.214a.891.891 0 0 1 .441-.111c.173-.005.371.033.59.111l-.002.585a1.652 1.652 0 0 0-.59-.112.891.891 0 0 0-.44.112c-.103.06-.156.132-.156.214zM47.972 109.63l-.001.585-1.181.693.002-.585z" class="colorffb839 svgShape"></path><path fill="#399cff" d="m44.513 109.891.002-.584c0 .157.052.311.156.463.132.19.323.404.576.643l-.002.585a4.315 4.315 0 0 1-.576-.644.808.808 0 0 1-.156-.463zm4.167.576-.001.585c-.15-.321-.386-.6-.708-.837l.001-.585c.322.237.559.516.708.837z" class="colorffb839 svgShape"></path><path fill="#399cff" d="m49.884 110.169-.002.585-1.203.298.001-.585zM45.952 111.283l-.001.585a.2.2 0 0 0-.002-.028c-.013-.095-.072-.205-.18-.333l.002-.584c.108.127.167.238.18.333a.2.2 0 0 1 .001.027zM45.771 110.922l-.002.585-.958.563.002-.585zM47.523 111.416l-.001.584a.74.74 0 0 1-.01.12v-.584a.74.74 0 0 0 .011-.12zm-4.347.213-.002.584a3.82 3.82 0 0 1-.803-.681c-.213-.242-.337-.462-.382-.66l.001-.585c.045.198.17.419.382.66.21.242.479.47.804.682z" class="colorffb839 svgShape"></path><path fill="#399cff" d="m47.513 111.536-.002.585c-.033.2-.203.39-.509.57-.38.222-.845.33-1.395.326-.551-.003-1.121-.14-1.713-.409l.001-.585c.592.27 1.163.406 1.714.41.55.004 1.015-.105 1.395-.328.306-.18.475-.369.509-.569z" class="colorffb839 svgShape"></path><path fill="#399cff" d="m43.895 112.023-.001.585-.778.457.002-.585z" class="colorffb839 svgShape"></path><path fill="#88c3ff" d="M47.513 111.536c-.034.2-.203.39-.51.57-.38.222-.844.33-1.394.326-.551-.003-1.122-.139-1.714-.409l-.777.457-.699-.407.757-.444a3.82 3.82 0 0 1-.804-.682c-.212-.241-.337-.462-.382-.66l1.234-.273c.047.18.145.364.294.554.15.19.34.365.568.526l1.16-.681a4.315 4.315 0 0 1-.575-.643.773.773 0 0 1-.145-.586c.032-.199.204-.39.515-.573.384-.225.854-.336 1.413-.334.556.003 1.13.141 1.722.416l.77-.452.699.407-.757.445c.526.361.858.72.996 1.076l-1.204.298c-.149-.321-.386-.6-.708-.837l-1.18.693c.251.235.444.445.574.632.133.188.18.38.147.581zm-1.247-1.721.987-.58a1.652 1.652 0 0 0-.59-.111.891.891 0 0 0-.44.111c-.116.068-.168.15-.154.245.015.095.08.207.197.335m-.895 1.784a.83.83 0 0 0 .424-.102c.116-.068.168-.148.156-.241-.013-.095-.072-.206-.18-.334l-.958.563c.204.077.39.114.558.114" class="colorffe088 svgShape"></path><path fill="#399cff" d="m43.118 112.48-.002.585-.698-.407.001-.585z" class="colorffb839 svgShape"></path><path fill="#69b4ff" d="m45.89 105.894-.007 2.339-.068.482.007-2.339zM29.665 106.813l-.006 2.339-.151-.476.007-2.339zM46.255 106.79l-.007 2.339-.219.466.007-2.339z" class="colorffd469 svgShape"></path><path fill="#69b4ff" d="m29.599 107.701-.006 2.339-.297-.453.007-2.339zM46.334 107.709l-.007 2.339-.362.434.007-2.339z" class="colorffd469 svgShape"></path><path fill="#69b4ff" d="m29.813 108.581-.006 2.339-.433-.414.006-2.339zM46.12 108.62l-.006 2.339-.491.389.007-2.339z" class="colorffd469 svgShape"></path><path fill="#50a7ff" d="m30.302 109.423-.007 2.339-.556-.36.006-2.339zM45.63 109.009l-.007 2.339-.005.484.007-2.339z" class="colorffc950 svgShape"></path><path fill="#69b4ff" d="m45.625 109.493-.007 2.339-.605.328.007-2.339zM30.384 109.905l-.006 2.339-.083-.482.007-2.339z" class="colorffd469 svgShape"></path><path fill="#50a7ff" d="m31.046 110.199-.007 2.339-.661-.294.006-2.339zM45.02 109.821l-.007 2.339-.155.475.006-2.339z" class="colorffc950 svgShape"></path><path fill="#69b4ff" d="m44.864 110.296-.006 2.339-.699.259.006-2.339zM31.279 110.664l-.007 2.339-.233-.465.007-2.339z" class="colorffd469 svgShape"></path><path fill="#50a7ff" d="m32.018 110.883-.006 2.339-.74-.219.007-2.339zM44.165 110.555l-.006 2.339-.301.45.007-2.339z" class="colorffc950 svgShape"></path><path fill="#69b4ff" d="m43.865 111.005-.007 2.339-.769.177.007-2.339zM32.394 111.314l-.006 2.339-.376-.431.006-2.339z" class="colorffd469 svgShape"></path><path fill="#50a7ff" d="m33.191 111.45-.007 2.339-.796-.136.006-2.339zM43.096 111.182l-.007 2.339-.439.41.007-2.339z" class="colorffc950 svgShape"></path><path fill="#69b4ff" d="m42.657 111.592-.007 2.339-.811.093.006-2.339zM33.694 111.835l-.006 2.339-.504-.385.007-2.339z" class="colorffd469 svgShape"></path><path fill="#50a7ff" d="m34.519 111.882-.007 2.339-.824-.047.006-2.339zM41.845 111.685l-.006 2.339-.56.355.006-2.339z" class="colorffc950 svgShape"></path><path fill="#69b4ff" d="m41.285 112.04-.006 2.339-.826.003.007-2.339zM35.135 112.206l-.006 2.339-.617-.324.007-2.339z" class="colorffd469 svgShape"></path><path fill="#50a7ff" d="m35.959 112.165-.007 2.339-.823.041.006-2.339z" class="colorffc950 svgShape"></path><path fill="#69b4ff" d="m39.795 112.333-.006 2.339-.814-.087.007-2.339z" class="colorffd469 svgShape"></path><path fill="#50a7ff" d="m40.46 112.043-.007 2.339-.664.29.006-2.339zM37.465 112.288l-.007 2.339-.796.129.006-2.339z" class="colorffc950 svgShape"></path><path fill="#69b4ff" d="m36.668 112.417-.006 2.339-.71-.252.007-2.339z" class="colorffd469 svgShape"></path><path fill="#50a7ff" d="m38.982 112.246-.007 2.339-.742.214.007-2.339z" class="colorffc950 svgShape"></path><path fill="#69b4ff" d="m38.24 112.46-.007 2.339-.775-.172.007-2.339z" class="colorffd469 svgShape"></path><path fill="#88c3ff" d="m44.356 104.293.235.465.66.294.084.481.555.361-.068.482.433.414-.219.466.298.453-.362.434.148.477-.49.389-.005.484-.605.328-.156.475-.699.259-.3.45-.769.177-.439.41-.812.093-.56.355-.825.003-.665.29-.813-.087-.742.214-.775-.172-.797.129-.709-.252-.824.041-.616-.324-.825-.047-.503-.385-.797-.136-.376-.431-.739-.219-.233-.465-.662-.294-.082-.482-.557-.36.068-.482-.433-.414.219-.466-.296-.453.362-.435-.15-.476.493-.389.002-.484.605-.328.156-.475.699-.259.302-.449.767-.178.439-.41.812-.093.56-.355.828-.003.662-.29.815.086.742-.212.773.171.797-.129.709.252.824-.041.618.323.823.048.505.386.795.134.376.432z" class="colorffe088 svgShape"></path><path fill="#69b4ff" d="M42.712 104.606c-2.722-1.587-7.12-1.59-9.824-.002-1.563.918-2.218 2.164-1.965 3.36.18-.866.833-1.7 1.965-2.365 2.703-1.586 7.102-1.586 9.824.002 1.148.67 1.816 1.516 1.996 2.389.253-1.203-.412-2.46-1.996-3.384z" class="colorffd469 svgShape"></path><path fill="#50a7ff" d="M42.712 105.601c-2.722-1.588-7.12-1.588-9.824-.002-1.132.664-1.785 1.499-1.965 2.365.18.872.847 1.719 1.996 2.388 2.722 1.588 7.12 1.588 9.824 0 1.131-.664 1.785-1.499 1.965-2.362-.18-.873-.848-1.72-1.996-2.389z" class="colorffc950 svgShape"></path><path fill="#399cff" d="m41.303 105.972-.001.585-.757.444.001-.585zM37.723 107.358l.002-.585c0-.082.053-.153.156-.214a.891.891 0 0 1 .44-.112c.174-.004.371.034.59.112l-.002.585a1.651 1.651 0 0 0-.59-.112.891.891 0 0 0-.44.112c-.103.06-.156.132-.156.214zM39.63 106.954l-.001.585-1.18.692.001-.584z" class="colorffb839 svgShape"></path><path fill="#399cff" d="m36.172 107.215.001-.585c0 .157.052.312.156.463.132.19.323.405.576.644l-.002.584a4.315 4.315 0 0 1-.576-.643.808.808 0 0 1-.155-.463zm4.167.575-.002.585c-.15-.32-.386-.6-.708-.836l.001-.585c.323.237.56.516.709.836zM41.542 107.492l-.001.585-1.204.298.002-.585zM37.61 108.607l-.001.584a.2.2 0 0 0-.002-.027c-.013-.095-.072-.205-.18-.333l.002-.585c.108.128.167.238.18.333a.2.2 0 0 1 .002.028zM37.429 108.246l-.002.585-.958.562.002-.585z" class="colorffb839 svgShape"></path><path fill="#399cff" d="m39.181 108.74-.001.584a.74.74 0 0 1-.01.12l.001-.584a.74.74 0 0 0 .01-.12zm-4.347.212-.001.585a3.82 3.82 0 0 1-.804-.682c-.212-.241-.337-.461-.382-.66l.002-.584c.045.198.17.418.382.66.209.241.478.469.803.681zm4.337-.092-.002.584c-.033.2-.202.39-.509.57-.38.223-.844.331-1.394.327-.552-.004-1.122-.14-1.714-.41l.002-.584c.592.27 1.162.405 1.713.409.55.004 1.015-.104 1.395-.327.306-.18.476-.37.509-.57z" class="colorffb839 svgShape"></path><path fill="#399cff" d="m35.554 109.347-.002.585-.778.456.002-.584z" class="colorffb839 svgShape"></path><path fill="#88c3ff" d="M39.171 108.86c-.033.2-.203.39-.509.569-.38.223-.845.331-1.395.327-.551-.004-1.121-.14-1.713-.409l-.778.457-.698-.408.756-.444a3.82 3.82 0 0 1-.803-.681c-.213-.242-.337-.462-.382-.66l1.234-.274c.046.18.145.364.293.555.15.19.34.365.568.526l1.161-.681a4.315 4.315 0 0 1-.576-.644.773.773 0 0 1-.145-.585c.032-.2.204-.39.515-.573.385-.226.854-.337 1.413-.334.556.003 1.13.14 1.723.416l.77-.452.698.407-.757.444c.527.362.859.72.996 1.076l-1.203.298c-.15-.32-.386-.599-.709-.836l-1.18.693c.252.234.444.445.575.632.132.187.18.38.146.58zm-1.246-1.722.986-.579a1.652 1.652 0 0 0-.59-.112.891.891 0 0 0-.44.112c-.116.068-.168.15-.154.244.015.095.08.207.198.335m-.896 1.785a.829.829 0 0 0 .424-.102c.116-.068.168-.148.156-.242-.013-.095-.072-.205-.18-.333l-.958.562c.204.077.39.115.558.115" class="colorffe088 svgShape"></path><path fill="#399cff" d="m34.776 109.804-.002.584-.698-.407.002-.585z" class="colorffb839 svgShape"></path><path fill="#69b4ff" d="m51.545 99.303-.007 2.339-.068.482.007-2.339zM35.32 100.222l-.006 2.339-.15-.476.006-2.339zM51.91 100.199l-.006 2.339-.219.466.006-2.339z" class="colorffd469 svgShape"></path><path fill="#69b4ff" d="m35.255 101.11-.007 2.339-.296-.453.006-2.339zM51.989 101.118l-.007 2.339-.362.434.007-2.339z" class="colorffd469 svgShape"></path><path fill="#69b4ff" d="m35.469 101.99-.007 2.339-.433-.414.007-2.339zM51.776 102.029l-.007 2.339-.49.389.006-2.339z" class="colorffd469 svgShape"></path><path fill="#50a7ff" d="m35.957 102.832-.006 2.339-.557-.36.007-2.339zM51.285 102.418l-.006 2.339-.005.483.006-2.339z" class="colorffc950 svgShape"></path><path fill="#69b4ff" d="m51.28 102.901-.006 2.339-.606.329.007-2.339zM36.04 103.314l-.007 2.339-.082-.482.006-2.339z" class="colorffd469 svgShape"></path><path fill="#50a7ff" d="m36.701 103.608-.006 2.339-.662-.294.007-2.339zM50.675 103.23l-.007 2.339-.155.475.007-2.339z" class="colorffc950 svgShape"></path><path fill="#69b4ff" d="m50.52 103.705-.007 2.339-.699.259.006-2.339zM36.934 104.073l-.006 2.339-.233-.465.006-2.339z" class="colorffd469 svgShape"></path><path fill="#50a7ff" d="m37.674 104.292-.007 2.339-.739-.219.006-2.339zM49.82 103.964l-.006 2.339-.3.45.006-2.339z" class="colorffc950 svgShape"></path><path fill="#69b4ff" d="m49.52 104.414-.006 2.339-.769.177.006-2.339zM38.05 104.723l-.007 2.339-.376-.431.007-2.339z" class="colorffd469 svgShape"></path><path fill="#50a7ff" d="m38.846 104.859-.007 2.339-.796-.136.007-2.339zM48.751 104.591l-.006 2.339-.439.41.006-2.339z" class="colorffc950 svgShape"></path><path fill="#69b4ff" d="m48.312 105.001-.006 2.339-.812.093.007-2.339zM39.35 105.244l-.007 2.339-.504-.385.007-2.339z" class="colorffd469 svgShape"></path><path fill="#50a7ff" d="m40.174 105.291-.007 2.339-.824-.047.007-2.339zM47.501 105.094l-.007 2.339-.56.355.007-2.339z" class="colorffc950 svgShape"></path><path fill="#69b4ff" d="m46.941 105.449-.007 2.339-.825.003.006-2.339zM40.79 105.615l-.006 2.339-.617-.324.007-2.339z" class="colorffd469 svgShape"></path><path fill="#50a7ff" d="m41.614 105.574-.006 2.339-.824.041.006-2.339z" class="colorffc950 svgShape"></path><path fill="#69b4ff" d="m45.451 105.741-.007 2.339-.814-.086.007-2.339z" class="colorffd469 svgShape"></path><path fill="#50a7ff" d="m46.115 105.452-.006 2.339-.665.289.007-2.339zM43.12 105.697l-.007 2.338-.796.13.007-2.339z" class="colorffc950 svgShape"></path><path fill="#69b4ff" d="m42.324 105.826-.007 2.339-.709-.252.006-2.339z" class="colorffd469 svgShape"></path><path fill="#50a7ff" d="m44.637 105.655-.007 2.339-.741.214.006-2.339z" class="colorffc950 svgShape"></path><path fill="#69b4ff" d="m43.895 105.869-.006 2.339-.776-.173.007-2.338z" class="colorffd469 svgShape"></path><path fill="#88c3ff" d="m50.012 97.702.234.465.66.294.084.481.555.361-.068.482.433.414-.219.466.298.453-.362.434.149.477-.491.389-.005.483-.605.329-.155.475-.7.259-.3.45-.769.177-.439.41-.811.093-.56.355-.826.003-.664.289-.814-.086-.742.214-.775-.172-.796.129-.71-.252-.824.041-.616-.324-.824-.047-.504-.385-.796-.136-.376-.431-.74-.219-.233-.465-.661-.294-.083-.482-.556-.36.068-.482-.433-.414.219-.466-.297-.453.362-.435-.15-.476.494-.389.001-.484.606-.328.155-.475.699-.259.302-.449.767-.178.44-.41.811-.093.56-.355.829-.003.661-.29.815.086.742-.212.774.171.796-.129.709.252.824-.042.618.324.823.048.505.386.795.134.376.432z" class="colorffe088 svgShape"></path><path fill="#69b4ff" d="M48.367 98.015c-2.722-1.587-7.12-1.59-9.824-.002-1.562.918-2.218 2.164-1.965 3.36.18-.866.834-1.7 1.965-2.365 2.704-1.586 7.102-1.586 9.824.002 1.148.67 1.816 1.516 1.996 2.389.253-1.203-.412-2.46-1.996-3.384z" class="colorffd469 svgShape"></path><path fill="#50a7ff" d="M48.367 99.01c-2.722-1.588-7.12-1.588-9.824-.002-1.131.664-1.785 1.499-1.965 2.365.18.872.848 1.719 1.996 2.388 2.722 1.588 7.12 1.588 9.824 0 1.132-.664 1.785-1.499 1.965-2.362-.18-.873-.848-1.72-1.996-2.389z" class="colorffc950 svgShape"></path><path fill="#399cff" d="m46.959 99.381-.002.585-.757.444.002-.585zM43.378 100.767l.002-.585c0-.082.053-.154.156-.214a.891.891 0 0 1 .44-.112c.174-.004.372.034.59.112l-.001.585a1.652 1.652 0 0 0-.59-.112.891.891 0 0 0-.44.112c-.104.06-.156.132-.157.214zM45.286 100.363l-.002.585-1.18.692.002-.584z" class="colorffb839 svgShape"></path><path fill="#399cff" d="m41.827 100.624.001-.585c0 .157.052.312.156.463.132.19.323.405.576.644l-.001.584a4.315 4.315 0 0 1-.576-.643.808.808 0 0 1-.156-.463zm4.167.575-.002.585c-.149-.32-.386-.6-.708-.836l.002-.585c.322.237.559.515.708.836z" class="colorffb839 svgShape"></path><path fill="#399cff" d="m47.198 100.901-.002.585-1.204.298.002-.585zM43.266 102.016l-.002.584a.2.2 0 0 0-.002-.027c-.012-.095-.072-.205-.18-.333l.002-.585c.108.128.167.238.18.333l.002.028z" class="colorffb839 svgShape"></path><path fill="#399cff" d="m43.084 101.655-.001.585-.958.562.001-.585z" class="colorffb839 svgShape"></path><path fill="#399cff" d="m44.837 102.148-.002.585a.74.74 0 0 1-.01.12l.001-.585a.74.74 0 0 0 .01-.12zm-4.347.213-.002.585a3.82 3.82 0 0 1-.804-.682c-.212-.241-.337-.461-.382-.66l.002-.584c.045.198.17.418.382.66.21.241.479.469.804.681zm4.336-.093-.001.585c-.034.2-.203.39-.51.57-.38.223-.844.331-1.394.327-.551-.004-1.122-.14-1.714-.41l.002-.584c.592.27 1.162.405 1.714.409.55.004 1.014-.104 1.394-.327.307-.18.476-.37.51-.57z" class="colorffb839 svgShape"></path><path fill="#399cff" d="m41.209 102.756-.002.585-.778.456.002-.585z" class="colorffb839 svgShape"></path><path fill="#88c3ff" d="M44.826 102.268c-.033.2-.202.39-.509.57-.38.223-.844.331-1.394.327-.552-.004-1.122-.14-1.714-.41l-.778.457-.698-.407.757-.444a3.82 3.82 0 0 1-.804-.681c-.212-.242-.337-.462-.382-.66l1.234-.274c.046.18.145.364.294.555.15.19.34.365.568.526l1.16-.681a4.315 4.315 0 0 1-.576-.644.773.773 0 0 1-.145-.585c.032-.2.205-.39.515-.573.385-.226.854-.337 1.413-.334.556.003 1.13.14 1.723.416l.77-.452.699.407-.757.444c.526.362.858.72.996 1.076l-1.204.298c-.15-.32-.386-.6-.708-.836l-1.18.693c.25.234.443.445.574.632.132.187.18.38.146.58zm-1.246-1.72.986-.58a1.652 1.652 0 0 0-.59-.112.891.891 0 0 0-.44.112c-.116.068-.168.15-.154.244.016.095.081.207.198.335m-.896 1.785a.83.83 0 0 0 .425-.102c.115-.068.168-.148.155-.242-.013-.095-.072-.205-.18-.333l-.958.562c.204.077.39.115.558.115" class="colorffe088 svgShape"></path><path fill="#399cff" d="m40.431 103.212-.002.585-.698-.407.002-.585z" class="colorffb839 svgShape"></path></svg>