<svg xmlns="http://www.w3.org/2000/svg" viewBox="0 0 52 52" id="IncomingCall"><path fill="#6822a2" d="M15.1 12.6 33.3 2.2" class="color4c5c75 svgShape"></path><path fill="#5046e4" d="M38 37.4c0 .7-.5 1.6-1.1 2L18.7 49.8c-.3.2-.6.2-.8.1l-3.6-2.1c-.2-.1-.3-.4-.3-.8V14.6c0-.7.5-1.6 1.1-2L33.3 2.2c.3-.2.6-.2.8-.1l3.6 2.1c.1.1.3.3.3.7v32.5z" class="color1d2943 svgShape"></path><path fill="#6822a2" d="M37.6 4.2c-.2-.1-.5-.1-.8.1L18.7 14.7c-.6.4-1.2 1.3-1.1 2l.1 32.5c0 .4.1.6.3.7l-3.6-2.1c-.2-.1-.3-.4-.3-.7L14 14.6c0-.7.5-1.6 1.1-2L33.3 2.2c.3-.2.6-.2.8-.1l3.5 2.1z" class="color4c5c75 svgShape"></path><path fill="#5046e4" d="M36.8 4.2c.7-.3 1.2 0 1.2.7v32.5c0 .7-.5 1.6-1.1 2L18.7 49.8c-.6.4-1.1.1-1.2-.7l-.1-32.5c0-.7.5-1.6 1.1-2L36.8 4.2z" class="color1d2943 svgShape"></path><path fill="#f4f6f8" d="m18.9 46.3-.1-28L36.7 7.9l.1 28z" class="colorffffff svgShape"></path><path fill="#6822a2" d="M30.6 9.4c.2-.1.4 0 .4.2s-.2.5-.4.7l-6.7 3.9c-.2.1-.4 0-.4-.2s.2-.5.4-.7l6.7-3.9zm1.1-.7c.2-.1.4 0 .4.2 0 .3-.2.6-.4.7-.2.1-.4 0-.4-.2 0-.3.2-.6.4-.7zm-.9 31.8c.4-.2.7 0 .7.4s-.3.9-.6 1.1l-5.2 3c-.4.2-.7 0-.7-.4s.3-.9.7-1.1l5.1-3z" class="color4c5c75 svgShape"></path><path fill="#edeff2" d="M34.2 4.7c0 .1-.1.2-.2.3-.6.3-1.5.3-2.1 0-.1-.1-.2-.1-.3-.2-.3-.3-.2-.7.3-1 .6-.3 1.5-.3 2.1 0 .4.2.5.6.2.9z" class="coloredeef2 svgShape"></path><path fill="#010001" d="M34.2 4.7c0 .1-.1.2-.2.3-.6.3-1.5.3-2.1 0-.1-.1-.2-.1-.3-.2.1-.1.1-.1.3-.2.6-.3 1.5-.3 2.1 0 .1 0 .2.1.2.1z" class="color111d33 svgShape"></path><path fill="#f4f6f8" d="M15.7 17.9c.4.2.6.7.6 1.1v3.9c0 .4-.3.6-.6.4-.3-.2-.6-.7-.6-1.1v-3.9c0-.5.3-.6.6-.4zm0 6.4c.4.2.6.7.6 1.1v3.9c0 .4-.3.6-.6.4-.3-.2-.6-.7-.6-1.1v-3.9c0-.4.3-.6.6-.4z" class="colorffffff svgShape"></path><path fill="#e7f1fc" d="M34.3 19.1c0 2.1-.7 4.4-1.9 6.4-1.1 1.9-2.6 3.6-4.3 4.7-.1.1-.3.2-.4.3-.1.1-.3.2-.4.2-1.7.8-3.2.9-4.3.2-1.2-.7-1.9-2.2-1.9-4.2 0-4.2 2.9-9.3 6.5-11.4 3.8-2.1 6.7-.5 6.7 3.8z" class="colore9e7fc svgShape"></path><path fill="#fe1fd5" d="M32.5 23.9c0-.8-.5-1.1-1.2-.7l-1.7 1c-.1.8-.6 1.8-1.3 2.5l-.1-.1-.2.6.2 2.9c1.7-1.1 3.2-2.8 4.3-4.7v-1.5zm-1.1 2.3c0 .1 0 .2-.1.3l-.5.7c0 .1-.1.1-.1.1h-.1l-.5-.2c-.1 0-.1 0-.1-.1v-1.2l1.4-.8v1.2zm-3.9 1.3-.2 3.1c-1.7.8-3.2.9-4.3.2v-1.5c0-.8.5-1.7 1.2-2.1l1.7-1c.1.7.6 1.1 1.2 1.1l.1-.2.3.4z" class="colorfebc1f svgShape"></path><path fill="#c6ddf5" d="M25.8 22.8h.2v.9l-.1.1c-.2.1-.3 0-.3-.3-.1-.2 0-.5.2-.7z" class="colorf5c9c6 svgShape"></path><path fill="#d4e4f4" d="M27.8 19.8c.6-.4 1.3-.4 1.6.1 0 .1.1.2.1.3v.5c0 .3 0 .7-.1 1 0 .7-.3 1.5-.8 2.1-1 1.3-2.5 1.3-2.6-.1v-1.4c0-.2.1-.4.2-.6.2-.7.9-1.5 1.6-1.9z" class="colorf4d6d4 svgShape"></path><path fill="#6822a2" d="M26.5 17.6c0 .3.3.5.6.4.3 0 .6-.2 1-.4.3-.1.7-.3.9-.2.3.1.3.4.3.7.1-.1.1-.1.2-.1.1-.1.3-.1.3 0 .1.1.1.3.1.4.1.6.1 1.3-.1 2.1h-.1l-.1.1v-.4c0-.1 0-.2-.1-.3v-.1c-.3-.5-1-.5-1.6-.1-.7.4-1.4 1.2-1.6 1.9-.1.3-.1.5-.2.6v.5c-.1-.1-.1-.1-.2 0-.1-.2-.2-.5-.2-.8-.1-.5 0-1.2.4-1.8-.4-.6-.2-1.7.4-2.5z" class="color4c5c75 svgShape"></path><path fill="#c6ddf5" d="M29.6 20.6s.1 0 0 0h.1c.1 0 .2.2.2.5s-.2.6-.3.7h-.1c.1-.3.1-.7.1-1v-.2z" class="colorf5c9c6 svgShape"></path><path fill="#deecfb" d="M28.2 30.1c-.1.1-.3.2-.4.3-.1.1-.3.2-.4.2l.2-3.1.5-.3.1 2.9z" class="colordedffb svgShape"></path><path fill="#f4f6f8" d="m27.8 25.9.4.6.1.1-.3.6-.5.3-.2-.4V27z" class="colorf3f1fc svgShape"></path><path fill="#f93dd7" d="m28.6 23.9.9.2c0 .9-.5 1.9-1.2 2.6l-.1-.1-.5-.6c.5-.7.8-1.4.9-2.1zm-1.7 1c.1.6.4.9.8 1l-.4 1.1-.1.3c-.6 0-1.1-.4-1.2-1.1l.9-1.3z" class="colorf9a83d svgShape"></path><path fill="#c6ddf5" d="M28.6 23.9c0 .1 0 .8-.8 2-.4-.1-.8-.4-.8-1v-.1c.2 0 .3 0 .5-.1.1 0 .6-.2 1.1-.8z" class="colorf5c9c6 svgShape"></path><path fill="#f4f6f8" d="M31.4 25v1.2c0 .1 0 .2-.1.3l-.5.7c0 .1-.1.1-.1.1h-.1l-.5-.2c-.1 0-.1 0-.1-.1v-1.2l1.4-.8z" class="colorffffff svgShape"></path><path fill="#5aa0e7" d="M20.9 39.8c0-1.9 1.3-4.2 3-5.1 1.5-.8 2.5-.3 2.6 1.4 0 1.9-1.3 4.2-3 5.2-1.5.8-2.6.2-2.6-1.5z" class="color78e75a svgShape"></path><path fill="#f4f6f8" d="M23.1 36.7c0-.1 0 0 0 0 .2.9.6.5.1 1.2v.1c.2.3.6.5 1 .5.2 0 .2-.6.4-.6.9 0 .8-.7.7.9 0 .1-.1.1-.1.2-1.4.6-2.6-.1-2.8-1.6-.3-.1-.1-.2.7-.7-.1 0 0 0 0 0z" class="colorffffff svgShape"></path><path fill="#a50b89" d="M29.1 35.1c0-1.9 1.3-4.2 3-5.1 1.5-.8 2.5-.3 2.6 1.4 0 1.9-1.3 4.2-3 5.2-1.5.8-2.6.2-2.6-1.5z" class="colorf45170 svgShape"></path><path fill="#f4f6f8" d="M31.9 32.4c.6-.4 1.2-.5 1.8-.5.1 0 .2.2.1.3-.6 1.5-.4 1.1-1.1 1.2-.1 0-.2-.1-.2-.2 0-.2-.1-.3-.2-.2-.4.2-1.1.5-1.1.9 0 .1 0 .3-.2.4l-.4.4c-.1.1-.2.2-.3.1-.1-.2-.2-.3-.4-.5-.1-.1 0-.3.1-.4.7-.6 1.3-1.1 1.9-1.5z" class="colorffffff svgShape"></path></svg>