<svg xmlns="http://www.w3.org/2000/svg" enable-background="new 0 0 51 51" viewBox="0 0 51 51" id="LoginWebsite"><path fill="#f4f6f8" d="M35.48264,41.11779v2.12791c0,0.33188-0.20932,0.66376-0.65351,0.91393l-7.19894,4.156
			c-0.95986,0.54628-2.54774,0.49012-3.33911-0.14809l-6.88751-5.57535v-2.12791l6.88751,5.57535
			c0.79137,0.63821,2.37925,0.70458,3.33911,0.14808l7.19894-4.156C35.2631,41.78154,35.48264,41.44967,35.48264,41.11779z" class="color384f63 svgShape"></path><path fill="#583d6e" d="M17.39955,40.46812l6.89229,5.56716c0.79119,0.64072,2.38038,0.70718,3.34216,0.15189l7.19281-4.15277
			c0.96178-0.55529,0.85226-1.47603-0.2513-1.9364l-9.59679-4.00572L17.39955,40.46812z" class="color3d566e svgShape"></path><path fill="#d6d6d6" d="M42.82822,3.19725c-0.15449-0.09013-0.38622-0.07724-0.61796,0.06436L11.53001,20.96422
		c-0.47635,0.28328-0.87547,0.9656-0.87547,1.5192l0.07724,26.39299c0,0.28328,0.09013,0.47636,0.25751,0.56649L8.18554,47.8028
		c-0.16738-0.09005-0.25751-0.28321-0.25751-0.56649L7.85079,20.84332c0-0.5536,0.39911-1.23591,0.87547-1.5192L39.40651,1.62151
		c0.24462-0.1416,0.46347-0.15449,0.61796-0.06436L42.82822,3.19725z" class="colord6d6d6 svgShape"></path><g fill="#010001" class="color000000 svgShape"><polygon fill="#d4d5d6" points="25.288 44.568 24.176 43.922 24.154 35.867 25.265 36.514" class="colord4d6d6 svgShape"></polygon><polygon fill="#5046e4" points="25.265 36.514 24.154 35.867 28.504 33.356 29.616 34.002" class="color2b7a9d svgShape"></polygon><polygon fill="#e0e1e2" points="29.616 34.002 29.639 42.056 25.288 44.568 25.265 36.514" class="colore0e2e2 svgShape"></polygon></g><path fill="#583d6e" d="M43.08602,3.76211c0-0.56306-0.4022-0.7814-0.87335-0.49987L11.53082,20.96463
		c-0.47686,0.28153-0.87907,0.96527-0.87907,1.51686l0.07217,23.67908l32.4188-18.71156L43.08602,3.76211z" class="color3d566e svgShape"></path><path fill="#ffffff" d="M12.37566,22.54156c0.01487-0.03647,0.04461-0.08557,0.0693-0.11447L41.36713,5.73999l0.04966,20.71496
		l-28.978,16.72582L12.37566,22.54156z" class="colorffffff svgShape"></path><path fill="#ffffff" d="M19.7354 22.60045c.27845-.16076.5046-.03189.50551.28806.00091.31996-.22377.70912-.50222.86988-.27514.15885-.5046.03189-.50551-.28807C19.23227 23.15038 19.46026 22.75931 19.7354 22.60045zM19.73912 23.91078c.53039-.30622.95942-.05413.96113.54773l-1.91602 1.10621C18.78252 24.96286 19.21205 24.21509 19.73912 23.91078z" class="colorffffff svgShape"></path><path fill="#6822a2" d="M19.73372,22.01004c0.92155-0.53206,1.66983-0.10562,1.67284,0.95711
				c0.00299,1.05511-0.74043,2.34278-1.66198,2.87483c-0.92154,0.53205-1.66983,0.10562-1.67282-0.94949
				C18.06876,23.82977,18.81218,22.54209,19.73372,22.01004z M18.78423,25.56472l1.91602-1.10621
				c-0.00171-0.60187-0.43075-0.85394-0.96114-0.54772C19.21204,24.21509,18.78252,24.96285,18.78423,25.56472 M19.7354,22.60045
				c-0.27513,0.15885-0.50312,0.54992-0.50222,0.86987c0.00091,0.31996,0.23037,0.44693,0.5055,0.28808
				c0.27845-0.16076,0.50313-0.54993,0.50223-0.86989C20.24,22.56856,20.01385,22.43969,19.7354,22.60045" class="color9b59b6 svgShape"></path><polygon fill="#c5c5c5" points="35.719 22.39 35.721 22.813 22.173 30.635 22.171 30.212" class="colorc5c5c5 svgShape"></polygon><path fill="#675b71" d="M28.97828 24.40503c.29502-.17033.53115-.03578.53211.30324s-.23363.74534-.52866.91567c-.29502.17033-.53115.03578-.53211-.30324S28.68325 24.57536 28.97828 24.40503zM30.83463 23.33326c.29502-.17033.53115-.03578.53211.30324s-.23363.74534-.52866.91567c-.29502.17033-.53115.03578-.53211-.30324S30.53961 23.5036 30.83463 23.33326z" class="color5b5e71 svgShape"></path><polygon fill="#c5c5c5" points="35.702 16.419 35.703 16.842 22.155 24.664 22.154 24.241" class="colorc5c5c5 svgShape"></polygon><g fill="#010001" class="color000000 svgShape"><path fill="#382ecc" d="M19.75124,27.98103c0.92155-0.53206,1.66984-0.10182,1.67284,0.95711
					c0.00299,1.05512-0.74041,2.34658-1.66196,2.87864c-0.92154,0.53205-1.66984,0.10182-1.67283-0.95329
					C18.08628,29.80455,18.8297,28.51309,19.75124,27.98103z M20.46914,30.57301l-0.00365-1.28747
					c-0.00014-0.04952-0.03672-0.07036-0.07981-0.04548l-0.05636,0.03254l-0.00064-0.22473
					c-0.00104-0.36568-0.2571-0.50779-0.57533-0.32406c-0.31823,0.18373-0.57266,0.62058-0.57162,0.98626l0.00064,0.22473
					L19.126,29.96733c-0.04309,0.02488-0.08275,0.08974-0.08261,0.13926l0.00365,1.28747
					c0.00015,0.05335,0.04003,0.06846,0.08313,0.04358l1.25967-0.72727C20.43293,30.68549,20.46929,30.62636,20.46914,30.57301" class="color2ecc71 svgShape"></path><path fill="#ffffff" d="M19.75363 29.99415c.10276-.05933.18258-.01004.18291.10423.00021.07236-.03275.16008-.08568.22878l.00086.30474L19.66278 30.741l-.00086-.30474c-.05315-.00746-.0865-.05689-.0867-.12926C19.57489 30.19272 19.65749 30.04966 19.75363 29.99415zM19.75394 28.93331c.21216-.12249.39173-.02777.39243.21981l.00063.22094-.78232.45167-.00063-.22094C19.36334 29.35722 19.54179 29.05579 19.75394 28.93331z" class="colorffffff svgShape"></path><path fill="#675b71" d="M20.38567,29.24006c0.04309-0.02488,0.07968-0.00403,0.07981,0.04548l0.00365,1.28747
					c0.00015,0.05335-0.03621,0.11248-0.0793,0.13736l-1.25967,0.72727c-0.04309,0.02488-0.08297,0.00977-0.08313-0.04358
					l-0.00365-1.28747c-0.00014-0.04951,0.03951-0.11438,0.08261-0.13926l0.05636-0.03254l-0.00064-0.22473
					c-0.00104-0.36568,0.2534-0.80253,0.57162-0.98626c0.31824-0.18373,0.5743-0.04162,0.57533,0.32406l0.00064,0.22473
					L20.38567,29.24006z M20.14699,29.37407l-0.00063-0.22094c-0.0007-0.24758-0.18027-0.3423-0.39243-0.21981
					c-0.21215,0.12249-0.39059,0.42391-0.38989,0.67149l0.00063,0.22094L20.14699,29.37407 M19.85086,30.32716
					c0.05293-0.0687,0.08588-0.15642,0.08568-0.22878c-0.00032-0.11427-0.08015-0.16356-0.18291-0.10423
					c-0.09614,0.05551-0.17874,0.19857-0.17842,0.31285c0.0002,0.07236,0.03355,0.1218,0.0867,0.12926l0.00086,0.30474
					l0.18895-0.10909L19.85086,30.32716" class="color5b5e71 svgShape"></path></g><path fill="#675b71" d="M23.4026 27.62415c.29502-.17033.53115-.03578.53211.30324s-.23363.74534-.52866.91567c-.29502.17033-.53115.03578-.53211-.30324S23.10757 27.79448 23.4026 27.62415zM25.25895 26.55238c.29502-.17033.53115-.03578.53211.30324s-.23363.74534-.52866.91567c-.29171.16842-.53115.03578-.53211-.30324S24.96724 26.7208 25.25895 26.55238zM27.11861 25.47871c.29504-.17034.53115-.03578.53211.30324s-.23362.74533-.52866.91567c-.29502.17033-.53114.03578-.5321-.30324S26.82359 25.64904 27.11861 25.47871z" class="color5b5e71 svgShape"></path><path fill="#a50b89" d="M12.37566,22.54156c0.01487-0.03647,0.04461-0.08557,0.0693-0.11447L41.36713,5.73999l0.0041,1.70945
		L12.38068,24.18251L12.37566,22.54156z" class="colore74c3c svgShape"></path><path fill="#f4f6f8" d="M43.14922,30.15769c0,0.5516-0.38495,1.23533-0.87335,1.51686L11.60552,49.37693
		c-0.48837,0.28728-0.87332,0.05169-0.87332-0.49987l-0.00575-2.71772l32.41702-18.70787L43.14922,30.15769z" class="colorecf0f1 svgShape"></path><g fill="#010001" class="color000000 svgShape"><path fill="#c6c6c6" d="M27.75543,38.17338c0,0.51999-0.36215,1.15139-0.81713,1.42065
			c-0.45498,0.26002-0.81713,0.03712-0.81713-0.47357c0-0.52928,0.35285-1.15139,0.81713-1.42065
			C27.38404,37.43979,27.75543,37.65339,27.75543,38.17338z" class="colorc6c6c6 svgShape"></path></g><g fill="#010001" class="color000000 svgShape"><path fill="#ffffff" d="M13.63191,22.2763c0.16232-0.09372,0.29588-0.01762,0.2964,0.16892
			c0.00054,0.19026-0.13215,0.42009-0.29447,0.5138c-0.1656,0.09561-0.29913,0.01949-0.29967-0.17077
			C13.33364,22.60172,13.46631,22.37191,13.63191,22.2763z" class="colorffffff svgShape"></path></g><g fill="#010001" class="color000000 svgShape"><path fill="#ffffff" d="M15.10916,21.42341c0.16234-0.09373,0.2959-0.01763,0.29643,0.16891
			c0.00054,0.19026-0.13215,0.42009-0.29449,0.51382c-0.16558,0.0956-0.29913,0.01949-0.29967-0.17078
			C14.81089,21.74882,14.94358,21.51901,15.10916,21.42341z" class="colorffffff svgShape"></path></g><g fill="#010001" class="color000000 svgShape"><path fill="#ffffff" d="M16.58644,20.57051c0.16232-0.09372,0.29588-0.01762,0.29641,0.16892
			c0.00054,0.19026-0.13215,0.42009-0.29447,0.5138c-0.1656,0.09561-0.29913,0.01949-0.29967-0.17078
			C16.28817,20.89592,16.42084,20.66611,16.58644,20.57051z" class="colorffffff svgShape"></path></g><g fill="#010001" class="color000000 svgShape"><path fill="#f10fc8" d="M32.33805,27.25472c0.14859-0.08579,0.27117-0.01594,0.27165,0.1548l0.00471,1.6619
			c0.00048,0.17074-0.1213,0.38167-0.26989,0.46746L21.4577,35.8244c-0.15189,0.0877-0.27447,0.01785-0.27495-0.1529
			l-0.00471-1.6619c-0.00048-0.17074,0.1213-0.38167,0.27319-0.46937L32.33805,27.25472z" class="colorf1c40f svgShape"></path><polygon fill="#5d5266" points="24.547 32.237 24.55 33.345 25.075 33.042 25.075 33.251 24.356 33.666 24.352 32.35" class="color525566 svgShape"></polygon><path fill="#5d5266" d="M26.21129 31.43964c.11595.06228.17253.19303.17308.38654.00055.19351-.05511.38908-.17033.58481-.11519.19952-.2603.34791-.43201.44705-.1684.09723-.31388.1166-.42982.05053-.11593-.06227-.17255-.19302-.1731-.38653-.00055-.1935.05514-.38908.17034-.58481.11519-.19952.2603-.3479.4287-.44512C25.94987 31.39296 26.09534 31.37357 26.21129 31.43964zM26.07164 32.34499c.07569-.13491.11499-.27161.11461-.40442-.00038-.1328-.04032-.22374-.11653-.27096-.07952-.04911-.17541-.03935-.29098.02737-.11228.06482-.2079.16564-.28688.30625-.07899.13682-.11499.27161-.11461.40441.00038.13281.04032.22375.11653.27097.07952.04911.1754.03936.28767-.02547C25.89702 32.58642 25.99266 32.4856 26.07164 32.34499M27.15182 30.69901c.1651-.09532.30395-.11848.41323-.07136l-.10189.22985c-.04635-.01884-.09266-.02251-.13564-.0129-.04628.00772-.09913.03063-.15858.06495-.11888.06863-.21451.16565-.29351.29868-.079.13303-.11832.26594-.11792.40633.0004.14039.04035.23134.11653.27097.07619.04342.16878.03177.27774-.03114.10896-.06291.20134-.14285.27384-.23791l-.00103-.36425.19482-.11248.00128.45152c-.10858.1995-.26358.35741-.465.47369-.16841.09723-.31058.1147-.42652.05243-.11593-.05849-.17252-.18923-.17308-.38654-.00056-.1973.05841-.39477.17362-.5905C26.84491 30.94081 26.98672 30.79434 27.15182 30.69901z" class="color525566 svgShape"></path><polygon fill="#5d5266" points="28.063 30.207 28.07 31.522 27.875 31.634 27.872 30.318" class="color525566 svgShape"></polygon><polygon fill="#5d5266" points="29.437 29.414 29.441 30.731 29.233 30.851 28.579 30.266 28.582 31.226 28.387 31.339 28.384 30.022 28.578 29.91 29.248 30.507 29.242 29.526" class="color525566 svgShape"></polygon></g></svg>