<svg xmlns="http://www.w3.org/2000/svg" enable-background="new 0 0 51 51" viewBox="0 0 51 51" id="LoginWebsite"><g fill="#010001" class="color000000 svgShape"><path fill="#f4f6f8" d="M15.68051,49.41767l-3.23128-1.88117c-0.21151-0.12247-0.33952-0.38406-0.34509-0.76254l-0.06679-26.0942
				l3.23128,1.88674l0.06679,26.0942C15.33542,49.03361,15.469,49.29523,15.68051,49.41767z" class="colorecf0f1 svgShape"></path><path fill="#f4f6f8" d="M38.91251,8.91662l0.06689,26.09423c0.00213,0.75136-0.52565,1.6655-1.17952,2.04301L16.52395,49.33752
				c-0.65388,0.37752-1.18511,0.07479-1.18724-0.67656l-0.06689-26.09423L38.91251,8.91662z" class="colore0e2e2 svgShape"></path><path fill="#ffffff" d="M16.27142,23.14336l21.64551-12.49707l0.0625,24.36719c0.00098,0.39453-0.33594,0.97607-0.67969,1.17432
				L16.34173,48.28838L16.27142,23.14336z" class="colorffffff svgShape"></path></g><g fill="#010001" class="color000000 svgShape"><path fill="#f10fc8" d="M38.54556,3.46493c-0.21708-0.12801-0.51206-0.11133-0.84047,0.07793L16.42636,15.82699
				c-0.65121,0.37848-1.17999,1.29688-1.17441,2.04828l0.01668,4.69124l-3.23128-1.88674l-0.01672-4.6857
				c-0.00554-0.75139,0.5232-1.66979,1.17999-2.04828L34.47382,1.66166c0.32838-0.18922,0.62896-0.20594,0.84047-0.08347
				L38.54556,3.46493z" class="colorf1c40f svgShape"></path><path fill="#d618b3" d="M37.70489,3.54499c0.65387-0.37751,1.1851-0.0707,1.18724,0.68066l0.02039,4.69097L15.26983,22.56673
				l-0.02039-4.69097c-0.00213-0.75136,0.52563-1.66958,1.17952-2.0471L37.70489,3.54499z" class="colord6b218 svgShape"></path></g><path fill="#ffffff" d="M17.3294 17.85934c.37789-.21817.68904-.04495.6903.39747.00123.43423-.30794.9615-.68583 1.17967-.37789.21818-.68903.04905-.69026-.38518C16.64236 18.60888 16.95151 18.07751 17.3294 17.85934zM19.86412 16.39592c.37789-.21818.68904-.04495.6903.39747.00123.43423-.30794.9615-.68583 1.17967-.38146.22023-.68903.04904-.69026-.38519C19.17707 17.14546 19.48267 16.61615 19.86412 16.39592zM22.39884 14.9325c.37789-.21817.68904-.04495.6903.39747.00123.43423-.30794.9615-.68583 1.17967-.38145.22023-.68903.04905-.69026-.38519C21.71179 15.68204 22.01738 15.15273 22.39884 14.9325z" class="colorffffff svgShape"></path><polygon fill="#ffffff" points="37.515 6.419 37.518 7.574 28.994 12.495 28.991 11.34" class="colorffffff svgShape"></polygon><g fill="#010001" class="color000000 svgShape"><path fill="#6822a2" d="M34.31153,29.90228c0,0.70001-0.48999,1.54999-1.09998,1.90002l-12.48004,7.20996
			c-0.60999,0.35004-1.09998,0.07001-1.09998-0.63c0-0.34998,0.12-0.73999,0.31-1.07996
			c0.20001-0.35004,0.46997-0.64001,0.77997-0.82001l12.49005-7.21002C33.81153,28.9223,34.31153,29.20227,34.31153,29.90228z" class="color9b59b6 svgShape"></path><path fill="#4f4657" d="M19.244,29.35663c-0.28708,0-0.55369-0.06787-0.78904-0.20459
			c-0.56152-0.32373-0.87012-0.98877-0.87012-1.87256c-0.00488-1.7417,1.21777-3.86426,2.72559-4.72998
			c0.77246-0.44824,1.50977-0.51611,2.0791-0.19043c0.56348,0.32373,0.875,0.98828,0.87793,1.87109l0,0
			c0.00586,1.73535-1.2207,3.85938-2.73438,4.73535C20.08191,29.22528,19.64344,29.35663,19.244,29.35663z M21.59949,22.55633
			c-0.33008,0-0.7002,0.11426-1.08887,0.33936c-1.39746,0.80273-2.53027,2.76904-2.52539,4.3833
			c0,0.73535,0.2373,1.27734,0.66992,1.52686c0.43555,0.25293,1.0332,0.18506,1.67773-0.18701
			c1.40332-0.81152,2.54004-2.77979,2.53418-4.3877l0,0c-0.00195-0.73389-0.24219-1.27539-0.67676-1.5249
			C22.01551,22.60614,21.81629,22.55633,21.59949,22.55633z" class="color464957 svgShape"></path><polygon fill="#4f4657" points="26.831 23.524 26.832 23.843 25.117 24.833 25.116 24.514" class="color464957 svgShape"></polygon><path fill="#382ecc" d="M33.19429,24.72435c0.60605-0.3499,1.09962-0.06863,1.10159,0.62367
			c0.002,0.70459-0.48838,1.54985-1.09443,1.89975l-12.48464,7.20801c-0.60605,0.3499-1.09961,0.07273-1.10161-0.63187
			c-0.00098-0.3441,0.12289-0.73566,0.31833-1.07418c0.19899-0.34467,0.46954-0.64037,0.77613-0.81738L33.19429,24.72435z" class="color2ecc71 svgShape"></path><path fill="#a50b89" d="M22.01154,25.01227l-2.28003,3.04004c-0.02997,0.03998-0.06,0.06995-0.09998,0.08997
			c-0.09003,0.04999-0.17999,0.02002-0.17999-0.09998l-0.01001-3.44c0-0.13,0.08997-0.27002,0.17999-0.32001
			c0.02997-0.02002,0.07001-0.03003,0.09998-0.02002l2.29004,0.39001C22.13154,24.6723,22.13154,24.8623,22.01154,25.01227z" class="colore74c3c svgShape"></path><path fill="#6822a2" d="M25.74225,21.05433c0.38146-0.22023,0.69617-0.04906,0.69744,0.39745
			c0.00124,0.43832-0.31148,0.97174-0.69293,1.19198c-0.38146,0.22023-0.69617,0.04906-0.69742-0.38926
			C25.04807,21.80799,25.3608,21.27456,25.74225,21.05433z" class="color9b59b6 svgShape"></path><polygon fill="#4f4657" points="32.054 20.508 32.055 20.828 27.378 23.528 27.377 23.209" class="color464957 svgShape"></polygon><path fill="#e622c2" d="M28.29836,19.57856c0.38145-0.22023,0.69617-0.04906,0.69744,0.39745
			c0.00124,0.43832-0.31148,0.97174-0.69293,1.19198c-0.38146,0.22023-0.69617,0.04906-0.69742-0.38926
			C27.60418,20.33222,27.9169,19.79879,28.29836,19.57856z" class="colore67e22 svgShape"></path><path fill="#5046e4" d="M30.8509,18.10485c0.38502-0.22229,0.69617-0.04906,0.69744,0.39745
			c0.00124,0.43832-0.30791,0.96969-0.69293,1.19198c-0.38145,0.22023-0.69261,0.04701-0.69385-0.39131
			C30.16029,18.85645,30.46945,18.32508,30.8509,18.10485z" class="color3498db svgShape"></path><path fill="#382ecc" d="M33.40701,16.62908c0.38145-0.22023,0.69617-0.04906,0.69744,0.39745
			c0.00124,0.43832-0.31148,0.97174-0.69294,1.19198c-0.38145,0.22023-0.69617,0.04906-0.69741-0.38926
			C32.71283,17.38273,33.02555,16.84931,33.40701,16.62908z" class="color2ecc71 svgShape"></path><path fill="#a50b89" d="M35.96312,15.15331c0.38146-0.22023,0.69261-0.047,0.69388,0.39951
			c0.00124,0.43832-0.30791,0.96969-0.68937,1.18992c-0.38502,0.22229-0.69617,0.04906-0.69742-0.38926
			C35.26894,15.90697,35.5781,15.3756,35.96312,15.15331z" class="colore74c3c svgShape"></path><polygon fill="#4f4657" points="34.517 19.086 34.518 19.405 32.971 20.299 32.97 19.979" class="color464957 svgShape"></polygon><polygon fill="#4f4657" points="36.663 17.847 36.664 18.166 35.41 18.891 35.409 18.571" class="color464957 svgShape"></polygon><path fill="#e622c2" d="M20.24988,43.35858c-0.12207,0-0.23633-0.0293-0.33691-0.0874
			c-0.24023-0.1377-0.37207-0.42041-0.37305-0.79492c-0.00098-0.3501,0.11914-0.76172,0.33105-1.12891
			c0.21582-0.37256,0.50488-0.67578,0.81348-0.854l12.48437-7.20801c0.32715-0.18799,0.63965-0.21533,0.87891-0.07715
			c0.23926,0.13721,0.37109,0.41846,0.37207,0.79102c0.00195,0.72998-0.51074,1.62109-1.14355,1.98682L20.7909,43.19403
			C20.60242,43.30341,20.41785,43.35858,20.24988,43.35858z M33.26844,33.45819L20.78406,40.6662
			c-0.27832,0.16162-0.54199,0.43896-0.73926,0.78125c-0.19531,0.3374-0.30664,0.7124-0.30566,1.02783
			c0.00098,0.30078,0.09863,0.52197,0.27344,0.62256c0.17773,0.10303,0.41699,0.07324,0.67871-0.07666l12.48535-7.20801
			c0.57715-0.33398,1.0459-1.14746,1.04395-1.81299c-0.00098-0.29883-0.09766-0.51855-0.27246-0.61865
			C33.77234,33.2785,33.52918,33.30829,33.26844,33.45819L33.26844,33.45819z" class="colore67e22 svgShape"></path><polygon fill="#ffffff" points="22.145 31.76 22.285 31.835 21.945 32.423 21.848 32.593 21.709 32.514 21.805 32.348" class="colorffffff svgShape"></polygon><polygon fill="#ffffff" points="21.611 31.902 21.804 31.791 21.805 32.348 21.709 32.514 21.613 32.459" class="colorffffff svgShape"></polygon><polygon fill="#ffffff" points="21.615 32.996 21.71 32.83 21.807 32.885 21.808 33.443 21.616 33.553" class="colorffffff svgShape"></polygon><polygon fill="#ffffff" points="21.474 32.921 21.572 32.752 21.71 32.83 21.615 32.996 21.275 33.585 21.135 33.51" class="colorffffff svgShape"></polygon><polygon fill="#ffffff" points="20.993 32.973 21.474 32.696 21.572 32.752 21.474 32.921 20.994 33.199" class="colorffffff svgShape"></polygon><polygon fill="#ffffff" points="21.271 32.264 21.613 32.459 21.709 32.514 21.848 32.593 21.946 32.649 22.288 32.844 22.149 33.08 21.807 32.885 21.71 32.83 21.572 32.752 21.474 32.696 21.132 32.501" class="colorffffff svgShape"></polygon><polygon fill="#ffffff" points="21.945 32.423 22.426 32.146 22.427 32.372 21.946 32.649 21.848 32.593" class="colorffffff svgShape"></polygon><polygon fill="#ffffff" points="23.94 30.563 23.941 31.115 24.281 30.527 24.417 30.604 24.073 31.2 24.562 30.917 24.563 31.138 24.078 31.418 24.42 31.613 24.285 31.847 23.943 31.652 23.944 32.204 23.752 32.315 23.751 31.758 23.407 32.354 23.271 32.276 23.606 31.691 23.126 31.968 23.125 31.747 23.614 31.465 23.268 31.267 23.403 31.034 23.749 31.231 23.748 30.674" class="colorffffff svgShape"></polygon><polygon fill="#ffffff" points="26.076 29.33 26.077 29.882 26.417 29.293 26.553 29.371 26.209 29.967 26.698 29.684 26.699 29.905 26.214 30.185 26.556 30.38 26.421 30.614 26.079 30.419 26.081 30.971 25.888 31.082 25.887 30.525 25.543 31.121 25.407 31.043 25.742 30.457 25.262 30.735 25.261 30.514 25.746 30.234 25.404 30.034 25.539 29.8 25.885 29.998 25.884 29.441" class="colorffffff svgShape"></polygon><polygon fill="#ffffff" points="28.212 28.096 28.214 28.648 28.553 28.06 28.689 28.138 28.345 28.733 28.83 28.453 28.831 28.674 28.35 28.952 28.692 29.147 28.557 29.38 28.215 29.186 28.217 29.738 28.02 29.851 28.019 29.294 27.679 29.887 27.539 29.812 27.878 29.224 27.398 29.502 27.397 29.281 27.882 29.001 27.536 28.803 27.675 28.567 28.017 28.767 28.015 28.21" class="colorffffff svgShape"></polygon><polygon fill="#ffffff" points="32.48 25.632 32.481 26.189 32.821 25.596 32.961 25.671 32.617 26.267 33.102 25.987 33.103 26.208 32.622 26.485 32.964 26.68 32.825 26.916 32.483 26.716 32.485 27.274 32.288 27.387 32.286 26.835 31.947 27.423 31.811 27.346 32.151 26.758 31.67 27.035 31.669 26.814 32.154 26.534 31.808 26.337 31.943 26.103 32.285 26.298 32.283 25.746" class="colorffffff svgShape"></polygon><polygon fill="#ffffff" points="30.348 26.863 30.35 27.415 30.689 26.827 30.825 26.904 30.481 27.5 30.966 27.22 30.967 27.441 30.486 27.718 30.828 27.913 30.693 28.147 30.351 27.952 30.353 28.504 30.156 28.618 30.155 28.061 29.811 28.656 29.675 28.579 30.014 27.991 29.534 28.268 29.533 28.047 30.018 27.767 29.672 27.57 29.807 27.336 30.153 27.534 30.152 26.976" class="colorffffff svgShape"></polygon><polygon fill="#ffffff" points="30.654 32.343 30.748 32.337 30.79 32.415 30.748 32.548 30.659 32.648 30.565 32.654 30.527 32.568 30.564 32.443" class="colorffffff svgShape"></polygon><polygon fill="#ffffff" points="29.166 33.202 29.26 33.196 29.298 33.277 29.261 33.407 29.167 33.51 29.073 33.515 29.035 33.429 29.072 33.305" class="colorffffff svgShape"></polygon><polygon fill="#ffffff" points="28.667 33.49 28.762 33.484 28.8 33.565 28.762 33.695 28.668 33.798 28.574 33.804 28.536 33.717 28.573 33.593" class="colorffffff svgShape"></polygon><polygon fill="#ffffff" points="30.159 32.628 30.254 32.623 30.292 32.704 30.254 32.833 30.16 32.936 30.066 32.942 30.028 32.856 30.065 32.731" class="colorffffff svgShape"></polygon><polygon fill="#ffffff" points="29.66 32.916 29.755 32.911 29.797 32.989 29.755 33.121 29.661 33.224 29.572 33.227 29.529 33.144 29.571 33.017" class="colorffffff svgShape"></polygon><polygon fill="#ffffff" points="28.173 33.775 28.267 33.769 28.305 33.85 28.268 33.98 28.174 34.083 28.08 34.089 28.042 34.002 28.079 33.878" class="colorffffff svgShape"></polygon><path fill="#ffffff" d="M27.43188,33.39029c0.10355-0.05978,0.19308-0.07356,0.25919-0.03588
				c0.06611,0.03766,0.09936,0.12682,0.09976,0.26742l0.00189,0.66523l-0.20238,0.11685l-0.00169-0.59492
				c-0.00057-0.20009-0.07146-0.2621-0.21737-0.17786c-0.06589,0.03804-0.127,0.10042-0.17862,0.18439
				c-0.05163,0.07856-0.07495,0.16787-0.07466,0.27062l0.00167,0.58951l-0.19768,0.11413L26.9189,33.7027l0.19768-0.11413
				l0.00057,0.20011c0.03275-0.08933,0.07497-0.16246,0.13134-0.23292C27.30486,33.48529,27.36599,33.42834,27.43188,33.39029z" class="colorffffff svgShape"></path><polygon fill="#ffffff" points="26.437 35.07 26.434 33.983 26.632 33.868 26.635 34.956" class="colorffffff svgShape"></polygon><polygon fill="#ffffff" points="26.532 33.752 26.443 33.761 26.405 33.68 26.442 33.555 26.532 33.466 26.621 33.452 26.659 33.533 26.622 33.658" class="colorffffff svgShape"></polygon><path fill="#ffffff" d="M25.94463 34.26519l.19768-.11413.00268.94646c.00526.19198-.0414.35976-.13056.50875-.09385.15168-.20669.26019-.3479.34172-.1459.08424-.27312.10892-.38637.07137l.09364-.22739c.08966.0295.1839.01299.27803-.04136.09415-.05436.16937-.12488.2257-.21157.05161-.08396.0796-.19219.07924-.31659l-.00038-.13521c-.02807.08122-.07028.15434-.12666.22481-.05636.07046-.1175.12743-.18338.16547-.12709.07338-.23078.07907-.31108.02792-.0803-.05655-.11829-.15923-.11872-.31066-.00042-.14604.03687-.29215.11659-.44109.07974-.14895.18313-.25741.31023-.33079.12236-.07065.22608-.07094.30172.00458L25.94463 34.26519zM25.87142 35.04419c.05159-.0948.0749-.18408.07464-.27604-.00028-.09733-.02401-.15947-.07597-.19448-.05196-.03502-.11794-.0294-.19796.0168-.08001.0462-.14581.11666-.19269.20874-.04688.09749-.07019.18681-.06993.27872.00025.08655.02398.14866.07125.18639.04725.03774.11323.03214.19324-.01406C25.75872 35.20135 25.82452 35.13086 25.87142 35.04419M24.90489 35.01174c.09443.05382.14187.15646.14231.31329.00044.15685-.04624.31923-.14006.48174-.09384.16251-.21136.28453-.35255.36605-.1459.08424-.26373.09809-.35816.04428-.09443-.05382-.14188-.16185-.14233-.3187-.00043-.15143.04625-.31382.14007-.47632.09382-.1625.21134-.28452.35724-.36876C24.69261 34.97179 24.81044 34.95794 24.90489 35.01174zM24.76553 35.74767c.0563-.0975.08429-.20033.08399-.30851-.00029-.10275-.02877-.17297-.08544-.20527-.05665-.03228-.12735-.02398-.21207.02493-.08942.05162-.15993.12486-.21623.22235-.05629.09751-.08429.20035-.084.30309.00031.10818.0288.17839.08546.21068.05667.0323.12737.024.21678-.02763C24.63873 35.91841 24.70925 35.84518 24.76553 35.74767" class="colorffffff svgShape"></path><polygon fill="#ffffff" points="23.364 35.414 23.368 36.614 23.933 36.288 23.933 36.515 23.157 36.964 23.153 35.536" class="colorffffff svgShape"></polygon><polyline fill="#5046e4" points="24.127 39.315 24.128 39.583 28.998 36.771 28.998 36.503 24.127 39.315" class="color3498db svgShape"></polyline><polyline fill="#5046e4" points="29.453 37.406 29.453 37.142 25.55 39.395 25.551 39.659 29.453 37.406" class="color3498db svgShape"></polyline><polyline fill="#5046e4" points="31.282 35.453 31.281 35.185 29.429 36.254 29.43 36.522 31.282 35.453" class="color3498db svgShape"></polyline><polyline fill="#5046e4" points="31.285 36.349 31.284 36.085 29.801 36.941 29.802 37.205 31.285 36.349" class="color3498db svgShape"></polyline><polyline fill="#5046e4" points="23.634 39.869 23.633 39.601 22.676 40.153 22.676 40.421 23.634 39.869" class="color3498db svgShape"></polyline><polyline fill="#5046e4" points="25.154 39.888 25.153 39.624 24.387 40.066 24.388 40.33 25.154 39.888" class="color3498db svgShape"></polyline></g></svg>