<?xml version="1.0" standalone="no"?>
<!DOCTYPE svg PUBLIC "-//W3C//DTD SVG 20010904//EN"
 "http://www.w3.org/TR/2001/REC-SVG-20010904/DTD/svg10.dtd">
<svg version="1.0" xmlns="http://www.w3.org/2000/svg"
 width="130.000000pt" height="130.000000pt" viewBox="0 0 130.000000 130.000000"
 preserveAspectRatio="xMidYMid meet">

<g transform="translate(0.000000,130.000000) scale(0.100000,-0.100000)"
fill="#000000" stroke="none">
<path d="M0 650 l0 -650 650 0 650 0 0 650 0 650 -650 0 -650 0 0 -650z m688
289 c174 -116 323 -218 330 -227 13 -17 16 -70 4 -88 -4 -7 -153 -109 -332
-228 l-325 -216 -3 42 c-2 23 -1 51 2 63 4 15 88 76 268 195 145 96 266 177
271 180 4 4 -106 82 -245 174 -139 93 -263 178 -275 189 -18 16 -23 31 -23 74
0 29 2 53 5 53 3 0 148 -95 323 -211z m-123 -151 c85 -57 155 -106 155 -109 0
-12 -82 -51 -99 -46 -9 2 -72 41 -139 86 -120 80 -122 82 -122 120 0 76 20 71
205 -51z"/>
</g>
</svg>
