<?xml version="1.0" standalone="no"?>
<!DOCTYPE svg PUBLIC "-//W3C//DTD SVG 20010904//EN"
 "http://www.w3.org/TR/2001/REC-SVG-20010904/DTD/svg10.dtd">
<svg version="1.0" xmlns="http://www.w3.org/2000/svg"
 width="130.000000pt" height="130.000000pt" viewBox="0 0 130.000000 130.000000"
 preserveAspectRatio="xMidYMid meet">

<g transform="translate(0.000000,130.000000) scale(0.100000,-0.100000)"
fill="#000000" stroke="none">
<path d="M550 1184 c-207 -32 -382 -149 -461 -309 -33 -67 -34 -74 -34 -185 0
-108 2 -119 31 -180 17 -36 50 -86 73 -112 l41 -46 0 -99 c0 -88 2 -102 21
-118 20 -19 22 -18 137 20 115 38 120 38 277 40 136 1 170 4 225 23 141 47
275 151 333 260 33 60 32 92 -2 109 -33 16 -56 2 -82 -50 -32 -62 -128 -151
-201 -185 -66 -32 -191 -62 -254 -62 -21 0 -65 5 -99 11 -56 9 -69 8 -136 -14
-41 -14 -81 -28 -90 -32 -14 -5 -17 4 -20 68 l-4 74 -57 62 c-190 205 -86 495
213 595 141 46 271 43 405 -11 99 -39 177 -102 230 -183 48 -74 75 -88 108
-54 23 22 20 42 -13 100 -79 137 -228 235 -409 270 -68 13 -173 16 -232 8z"/>
</g>
</svg>
