<svg width="296" height="295" viewBox="0 0 296 295" fill="none" xmlns="http://www.w3.org/2000/svg">
<path d="M293.535 183.379C292.037 200.898 283.966 217.202 270.942 229.015C257.918 240.828 240.907 247.275 223.325 247.062H184.607L110.857 295V247.062L184.607 199.125H223.399C228.888 199.323 234.247 197.431 238.395 193.831C242.543 190.231 245.17 185.191 245.745 179.729C248 142.882 247.815 105.926 245.192 69.1038C244.748 64.1919 242.552 59.6039 239.004 56.178C235.456 52.7521 230.794 50.7172 225.87 50.445C200.721 48.8963 174.245 47.9375 147.732 47.9375C121.219 47.9375 94.7423 48.8225 69.5935 50.5925C64.6692 50.8647 60.0072 52.8996 56.4594 56.3255C52.9117 59.7514 50.7151 64.3394 50.271 69.2513C47.6483 106.074 47.4636 143.029 49.7179 179.876C50.3281 185.312 52.97 190.316 57.1141 193.885C61.2582 197.455 66.5983 199.327 72.0641 199.125H110.857V247.062H72.1379C54.5756 247.237 37.5962 240.768 24.603 228.951C11.6098 217.134 3.56294 200.843 2.0754 183.342C-0.363407 144.041 -0.178622 104.62 2.62853 65.3425C4.02234 49.0547 11.191 33.8011 22.8412 22.3334C34.4915 10.8657 49.8563 3.93891 66.1642 2.8025C92.4192 0.921875 120.075 0 147.732 0C175.388 0 203.044 0.921875 229.299 2.8025C245.656 3.90971 261.075 10.8426 272.759 22.3436C284.443 33.8447 291.617 49.1523 292.982 65.49C295.785 104.731 295.969 144.114 293.535 183.379Z" fill="#FF5100"/>
</svg>
