<?xml version="1.0" encoding="UTF-8"?>
<svg width="86px" height="89px" viewBox="0 0 86 89" version="1.1" xmlns="http://www.w3.org/2000/svg" xmlns:xlink="http://www.w3.org/1999/xlink">
    <!-- Generator: Sketch 51.3 (57544) - http://www.bohemiancoding.com/sketch -->
    <title>Untitled 3</title>
    <desc>Created with Sketch.</desc>
    <defs></defs>
    <g id="Page-1" stroke="none" stroke-width="1" fill="none" fill-rule="evenodd">
        <g id="typeform" transform="translate(1.000000, 0.000000)">
            <path d="M39.2805197,87.5610394 C51.7437209,87.715041 60.4396065,83.5673168 69.4147811,75.3863874 C78.3899556,67.2054579 83.7209065,58.5187333 84.1563923,46.6563923 C84.5918782,34.7940514 80.7437041,25.2261767 71.5922101,16.0746827 C62.4407161,6.92318874 50.6402933,0.899868118 38.3989226,0.898922571 C26.1575518,0.897977025 17.9669417,6.25154038 10.3853563,16.069955 C2.80377084,25.8883695 1.14831175,38.2817106 0.490995484,49.9909955 C-0.166320784,61.7002804 -0.659129924,67.1023706 7.09877492,74.6163794 C14.8566798,82.1303882 26.8173185,87.4070378 39.2805197,87.5610394 Z" id="Shape" stroke="#262627"></path>
            <g id="Group" transform="translate(27.500000, 33.000000)" fill="#262627" fill-rule="nonzero">
                <polygon id="Shape" points="0.635793896 4.9761 0.635793896 0.0911 26.5537939 0.0911 26.5537939 4.9761 16.1787939 4.9761 16.1787939 32.9741 11.0107939 32.9741 11.0107939 4.9761"></polygon>
            </g>
        </g>
    </g>
</svg>