<svg width="1080" height="357" viewBox="0 0 1080 357" fill="none" xmlns="http://www.w3.org/2000/svg">
<path d="M901.793 0C895.163 0 887.206 0 880.575 1.32222L842.116 68.7556C859.356 58.1778 880.575 52.8889 901.793 52.8889C970.754 52.8889 1027.78 109.744 1027.78 178.5C1027.78 247.256 970.754 304.111 901.793 304.111C832.833 304.111 777.134 248.578 775.808 179.822L736.023 247.256C762.546 312.044 827.528 357 900.467 357C998.604 357 1079.5 276.344 1079.5 178.5C1080.83 80.6556 999.93 0 901.793 0Z" fill="#BF3078"/>
<path d="M360.717 186.433L391.219 133.544L460.18 251.222L539.75 115.033L619.32 251.222L755.915 19.8333C762.546 7.93333 775.808 0 790.395 0H828.854L619.32 357L539.75 220.811L460.18 357L360.717 186.433Z" fill="#802050"/>
<path d="M417.743 0L208.208 357L0 0H38.4588C53.0467 0 66.3083 7.93333 72.9392 19.8333L208.208 252.544L344.803 19.8333C351.434 7.93333 364.696 0 379.284 0H417.743Z" fill="#26134D"/>
</svg>
