<?xml version="1.0" encoding="UTF-8"?>
<svg width="133px" height="131px" viewBox="0 0 133 131" version="1.1" xmlns="http://www.w3.org/2000/svg" xmlns:xlink="http://www.w3.org/1999/xlink">
    <!-- Generator: Sketch 51.3 (57544) - http://www.bohemiancoding.com/sketch -->
    <title>Untitled 5</title>
    <desc>Created with Sketch.</desc>
    <defs></defs>
    <g id="Page-1" stroke="none" stroke-width="1" fill="none" fill-rule="evenodd">
        <g id="wufoo" fill="#E66760" fill-rule="nonzero">
            <g id="Group" transform="translate(66.900000, 65.500000) scale(-1, 1) rotate(-180.000000) translate(-66.900000, -65.500000) translate(0.900000, 0.000000)">
                <path d="M49.3,129 C32.3,124.5 15.6,111.4 7.8,96.3 C-5.8,70 -1.3,40.2 19.6,19.4 C32.4,6.6 48,0 65.6,0 C83.2,0 98.9,6.6 111.7,19.4 C124.5,32.2 131.1,47.9 131.1,65.5 C131.1,95.2 110.4,121.6 81.5,129 C71.6,131.6 59.1,131.5 49.3,129 Z M103.1,99.7 C103.1,89.4 100,37.5 99.3,36.9 C98,35.8 81.7,33 81.1,33.7 C80.7,34.2 77.4,42.8 73.7,53 C70,63.2 66.6,72.3 66.3,73.3 C65.9,74.3 65.7,65 65.9,52.6 L66.3,30.2 L60.4,29 C57.2,28.4 52.9,27.5 50.8,27 L46.9,26.2 L44.6,31.3 C43.4,34.2 37.2,48 30.8,62.2 L19.4,87.8 L28.3,89.5 C33.2,90.5 37.5,90.9 37.9,90.6 C38.3,90.2 42.1,80.3 46.4,68.7 L54.1,47.5 L53.9,70.9 L53.6,94.4 L62.5,96.2 C67.4,97.2 71.6,97.9 71.7,97.7 C72.1,97.4 82.6,68.3 85.1,60.7 C86.3,56.9 87.4,54 87.5,54.2 C87.6,54.4 87.4,60.4 87,67.5 C86.6,74.7 86.3,85.1 86.2,90.7 L86.1,100.9 L89.9,101.6 C91.9,101.9 95.2,102.6 97.1,103 C103,104.3 103.1,104.3 103.1,99.7 Z" id="Shape"></path>
            </g>
        </g>
    </g>
</svg>